<?xml version="1.0" encoding="UTF-8"?>
<!-- Generator: visioncortex VTracer 0.6.12 -->
<svg version="1.1" xmlns="http://www.w3.org/2000/svg" width="726" height="669">
<path d="M0,0 L4,0 L4,2 L-1,3 Z " fill="#000000" transform="translate(317,31)"/>
<path d="M0,0 L62,1 L71,2 L82,1 L276,2 L459,2 L472,1 L477,4 L478,8 L474,14 L474,66 L476,71 L475,79 L468,99 L464,105 L461,117 L457,127 L451,139 L440,167 L434,182 L426,203 L416,228 L411,241 L404,257 L399,270 L396,278 L389,296 L379,322 L374,335 L371,344 L367,352 L358,374 L352,390 L348,400 L343,411 L335,430 L326,454 L318,474 L315,483 L309,496 L299,521 L291,538 L284,552 L275,575 L270,586 L266,597 L263,600 L257,599 L253,597 L225,597 L199,596 L89,596 L-6,595 L-182,595 L-187,592 L-188,588 L-187,583 L-187,515 L-189,504 L-191,502 L-191,491 L-187,485 L-180,469 L-172,448 L-165,432 L-162,423 L-157,411 L-152,397 L-141,370 L-135,355 L-129,339 L-121,318 L-118,309 L-106,279 L-100,263 L-94,248 L-88,232 L-77,203 L-67,176 L-61,161 L-52,138 L-45,118 L-36,95 L-32,83 L-27,71 L-21,56 L-14,33 L-10,23 L-10,16 L-11,15 L-10,8 L-4,1 Z M15,14 L10,17 L6,25 L2,37 L3,42 L16,44 L17,45 L27,45 L34,44 L38,46 L39,53 L25,52 L20,55 L13,55 L12,50 L10,49 L3,49 L-5,55 L-10,66 L-14,77 L-13,81 L4,81 L9,82 L21,82 L26,86 L27,91 L12,90 L5,90 L1,87 L-7,87 L-18,91 L-22,100 L-26,109 L-29,116 L-33,129 L-34,131 L-34,137 L-29,138 L-25,137 L-18,137 L-14,141 L-13,146 L-19,145 L-23,142 L-39,145 L-43,154 L-49,169 L-56,187 L-62,203 L-68,217 L-74,233 L-78,244 L-83,256 L-93,282 L-99,298 L-103,310 L-108,322 L-124,364 L-130,379 L-134,390 L-136,394 L-136,399 L-135,400 L-112,401 L-103,399 L-98,401 L-90,401 L-85,399 L-79,399 L-74,404 L-74,408 L-80,407 L-81,406 L-89,406 L-94,409 L-99,409 L-102,406 L-106,405 L-113,407 L-117,409 L-122,408 L-124,406 L-132,406 L-140,410 L-144,415 L-152,436 L-158,451 L-164,467 L-168,478 L-169,486 L-167,488 L-162,489 L-60,490 L-11,491 L153,491 L255,490 L262,489 L266,484 L271,474 L278,457 L283,445 L287,436 L292,424 L302,399 L309,382 L314,369 L322,349 L328,334 L332,322 L338,310 L344,294 L359,257 L369,232 L383,198 L389,182 L397,163 L401,154 L409,132 L407,128 L405,126 L397,125 L394,126 L387,126 L383,124 L376,125 L369,127 L371,122 L376,119 L388,119 L395,120 L402,119 L408,122 L413,122 L415,116 L409,108 L400,106 L397,104 L385,105 L383,100 L382,99 L375,99 L369,104 L367,111 L364,111 L363,109 L363,103 L364,99 L369,97 L376,94 L383,94 L391,97 L399,97 L406,100 L415,102 L421,101 L424,97 L429,84 L432,78 L435,69 L440,57 L443,48 L442,43 L434,40 L413,39 L406,40 L402,38 L393,38 L385,41 L379,40 L375,37 L365,37 L360,39 L354,39 L350,34 L341,35 L332,39 L327,38 L321,35 L311,36 L302,38 L295,38 L290,35 L282,36 L276,39 L269,38 L268,37 L259,38 L248,45 L245,45 L244,42 L248,40 L256,35 L263,32 L280,32 L287,30 L295,31 L297,32 L307,32 L319,31 L330,33 L336,32 L343,29 L352,29 L361,33 L367,32 L378,32 L382,34 L390,34 L398,32 L405,32 L415,33 L424,33 L439,37 L445,38 L448,36 L452,27 L452,20 L448,18 L400,17 L333,17 L268,16 L248,16 L173,15 L129,15 Z " fill="#000000" transform="translate(220,43)"/>
<path d="M0,0 L9,0 L19,4 L30,6 L35,15 L37,16 L46,16 L57,14 L67,17 L77,18 L81,22 L81,27 L75,28 L62,28 L58,22 L51,23 L45,27 L39,26 L33,24 L26,27 L21,32 L16,39 L11,38 L12,32 L19,24 L22,21 L24,21 L25,16 L24,15 L13,14 L7,8 L-2,8 L-8,9 L-10,8 L-9,3 Z " fill="#000000" transform="translate(262,67)"/>
<path d="M0,0 L5,1 L6,3 L4,6 L-1,5 Z " fill="#000000" transform="translate(369,68)"/>
<path d="M0,0 L12,1 L16,3 L18,6 L18,10 L13,11 L8,8 L-3,7 L-4,3 Z " fill="#000000" transform="translate(337,70)"/>
<path d="M0,0 L5,1 L6,4 L4,7 L-1,6 L-1,1 Z " fill="#000000" transform="translate(451,71)"/>
<path d="M0,0 L4,1 L5,6 L0,7 L-2,2 Z " fill="#000000" transform="translate(406,72)"/>
<path d="M0,0 L4,1 L4,6 L-1,7 L-2,6 L-2,1 Z " fill="#000000" transform="translate(428,72)"/>
<path d="M0,0 L5,1 L6,6 L5,8 L-1,8 L-3,3 Z " fill="#000000" transform="translate(386,88)"/>
<path d="M0,0 L12,2 L21,0 L29,0 L36,3 L45,3 L50,2 L74,2 L84,0 L89,2 L96,2 L99,1 L106,1 L109,4 L109,9 L105,10 L96,9 L92,11 L86,11 L82,8 L76,8 L68,11 L63,10 L58,8 L48,9 L41,11 L33,11 L28,7 L20,7 L7,10 L2,8 L-6,8 L-16,13 L-22,17 L-25,16 L-24,12 L-16,6 L-4,1 Z " fill="#000000" transform="translate(542,92)"/>
<path d="M0,0 L5,0 L7,2 L7,8 L4,10 L-2,9 L-2,2 Z " fill="#000000" transform="translate(421,98)"/>
<path d="M0,0 L5,0 L6,5 L1,5 Z " fill="#000000" transform="translate(496,102)"/>
<path d="M0,0 L4,2 L6,4 L10,14 L15,25 L20,42 L23,53 L25,64 L30,65 L33,63 L38,39 L41,24 L44,11 L47,8 L51,10 L56,26 L60,39 L63,51 L67,75 L70,104 L71,147 L77,146 L85,131 L89,114 L95,87 L102,50 L105,35 L107,32 L112,33 L115,58 L117,95 L117,108 L116,116 L115,136 L112,156 L111,163 L115,161 L123,145 L131,129 L139,114 L143,107 L148,99 L156,86 L162,78 L163,72 L159,68 L159,63 L165,62 L171,70 L172,80 L172,92 L170,108 L165,129 L157,153 L155,156 L152,165 L144,183 L144,185 L151,182 L161,173 L170,162 L176,155 L180,149 L183,142 L187,139 L192,140 L196,148 L197,154 L195,162 L195,171 L193,174 L187,199 L183,211 L180,217 L180,226 L179,229 L183,235 L186,241 L186,246 L178,253 L164,260 L159,259 L153,258 L144,265 L136,269 L123,272 L115,277 L114,282 L126,284 L131,290 L131,295 L130,296 L124,296 L115,293 L109,291 L107,288 L99,288 L93,289 L91,288 L89,282 L69,280 L48,281 L40,284 L26,286 L17,289 L2,291 L-6,295 L-4,299 L0,302 L6,302 L13,300 L22,303 L31,306 L34,310 L33,315 L28,314 L23,311 L15,309 L8,308 L1,312 L-5,312 L-8,305 L-12,304 L-17,307 L-20,312 L-22,319 L-27,320 L-28,314 L-28,311 L-34,313 L-42,317 L-57,320 L-67,319 L-82,313 L-98,302 L-103,297 L-111,289 L-119,278 L-122,274 L-120,270 L-117,268 L-119,263 L-133,241 L-141,227 L-146,215 L-151,202 L-150,197 L-146,196 L-141,199 L-137,205 L-127,217 L-118,228 L-98,248 L-91,257 L-86,262 L-82,262 L-83,257 L-89,245 L-96,234 L-102,222 L-112,205 L-119,191 L-130,163 L-138,142 L-141,133 L-137,132 L-132,137 L-122,147 L-122,149 L-119,150 L-112,158 L-105,166 L-98,174 L-90,182 L-79,196 L-72,205 L-69,210 L-64,210 L-63,208 L-67,191 L-73,177 L-84,150 L-96,114 L-104,78 L-107,59 L-111,57 L-112,54 L-107,48 L-98,47 L-84,53 L-77,63 L-70,80 L-68,82 L-64,82 L-65,72 L-69,57 L-75,30 L-77,25 L-76,20 L-71,19 L-59,35 L-52,45 L-44,58 L-38,72 L-35,80 L-33,98 L-29,120 L-24,154 L-21,169 L-20,170 L-15,170 L-13,163 L-14,154 L-15,113 L-15,94 L-13,78 L-12,70 L-12,59 L-10,38 L-7,19 L-3,2 Z " fill="#000000" transform="translate(364,104)"/>
<path d="M0,0 L5,1 L5,6 L3,8 L-1,7 L-2,2 Z " fill="#000000" transform="translate(450,104)"/>
<path d="M0,0 L6,0 L7,1 L7,8 L5,10 L0,10 L-2,7 L-2,2 Z " fill="#000000" transform="translate(309,108)"/>
<path d="M0,0 L5,1 L4,6 L-1,5 Z " fill="#000000" transform="translate(333,108)"/>
<path d="M0,0 L10,1 L19,2 L25,2 L30,7 L30,11 L28,12 L14,11 L8,9 L-8,9 L-9,5 L-4,1 Z " fill="#000000" transform="translate(226,109)"/>
<path d="M0,0 L1,3 L0,6 L-2,5 Z " fill="#000000" transform="translate(348,109)"/>
<path d="M0,0 L5,1 L11,6 L24,5 L28,9 L27,17 L23,19 L17,14 L11,16 L6,17 L4,15 L2,9 L-4,9 L-14,18 L-15,19 L-20,19 L-22,15 L-29,17 L-33,27 L-38,26 L-41,17 L-47,18 L-49,30 L-48,38 L-45,42 L-45,45 L-48,46 L-52,44 L-55,37 L-56,26 L-54,17 L-48,10 L-42,9 L-37,11 L-31,10 L-26,7 L-12,7 L-3,1 Z " fill="#000000" transform="translate(609,110)"/>
<path d="M0,0 L2,1 L2,3 L-1,3 Z " fill="#000000" transform="translate(547,112)"/>
<path d="M0,0 L7,0 L9,1 L21,1 L26,3 L27,9 L25,11 L13,13 L8,13 L4,9 L-1,8 L-9,11 L-14,10 L-15,7 L-12,4 L-5,1 Z " fill="#000000" transform="translate(511,125)"/>
<path d="M0,0 L5,1 L7,6 L5,8 L0,7 L-2,5 L-1,1 Z " fill="#000000" transform="translate(318,128)"/>
<path d="M0,0 L3,1 L2,3 L-1,2 Z " fill="#000000" transform="translate(272,131)"/>
<path d="M0,0 L5,1 L6,4 L5,6 L0,6 L-1,1 Z " fill="#000000" transform="translate(440,134)"/>
<path d="M0,0 L4,1 L4,5 L-1,6 L-2,1 Z " fill="#000000" transform="translate(333,143)"/>
<path d="M0,0 L8,0 L17,2 L23,6 L22,13 L18,14 L14,12 L11,8 L2,7 L-7,8 L-8,3 Z " fill="#000000" transform="translate(210,150)"/>
<path d="M0,0 L4,2 L3,7 L-2,6 L-3,2 Z " fill="#000000" transform="translate(508,152)"/>
<path d="M0,0 L4,1 L6,7 L5,9 L-1,9 L-3,7 L-2,2 Z " fill="#000000" transform="translate(443,170)"/>
<path d="M0,0 L4,2 L5,7 L2,10 L-2,8 L-3,4 L-2,1 Z " fill="#000000" transform="translate(214,170)"/>
<path d="M0,0 L8,1 L14,5 L13,9 L6,9 L4,8 L-7,8 L-9,7 L-8,3 Z " fill="#000000" transform="translate(569,177)"/>
<path d="M0,0 L13,2 L15,6 L13,8 L-3,8 L-8,10 L-13,9 L-12,5 L-5,1 Z " fill="#000000" transform="translate(601,178)"/>
<path d="M0,0 L4,2 L5,6 L2,10 L-3,9 L-4,8 L-4,2 Z " fill="#000000" transform="translate(494,187)"/>
<path d="M0,0 L5,1 L3,5 L-1,4 Z " fill="#000000" transform="translate(224,192)"/>
<path d="M0,0 L8,1 L9,6 L8,7 L-6,8 L-23,8 L-30,11 L-35,11 L-36,7 L-32,4 L-23,2 L-4,1 Z " fill="#000000" transform="translate(600,194)"/>
<path d="M0,0 L5,0 L7,2 L8,9 L6,12 L1,12 L-1,10 L-2,3 Z " fill="#000000" transform="translate(194,203)"/>
<path d="M0,0 L5,0 L9,5 L11,11 L8,15 L1,14 L-1,9 L-1,2 Z " fill="#000000" transform="translate(212,212)"/>
<path d="M0,0 L4,0 L4,4 L-1,3 Z " fill="#000000" transform="translate(239,212)"/>
<path d="M0,0 L8,0 L11,2 L10,6 L9,7 L0,7 L-3,4 L-2,1 Z " fill="#000000" transform="translate(589,215)"/>
<path d="M0,0 L5,0 L6,5 L1,6 L-1,5 Z " fill="#000000" transform="translate(566,217)"/>
<path d="M0,0 L4,1 L5,5 L3,8 L-2,8 L-3,7 L-3,2 Z " fill="#000000" transform="translate(184,222)"/>
<path d="M0,0 L4,1 L3,6 L-2,5 L-1,1 Z " fill="#000000" transform="translate(542,224)"/>
<path d="M0,0 L5,1 L18,13 L22,19 L22,23 L18,22 L0,4 Z " fill="#000000" transform="translate(242,228)"/>
<path d="M0,0 L6,0 L9,4 L8,10 L5,13 L-1,12 L-3,9 L-3,3 Z " fill="#000000" transform="translate(571,235)"/>
<path d="M0,0 L5,1 L5,6 L1,7 L-1,5 Z " fill="#000000" transform="translate(194,251)"/>
<path d="M0,0 L5,1 L5,6 L0,5 L-1,1 Z " fill="#000000" transform="translate(198,269)"/>
<path d="M0,0 L5,0 L7,3 L6,9 L1,10 L-2,7 L-2,2 Z " fill="#000000" transform="translate(163,271)"/>
<path d="M0,0 L5,2 L4,5 L-2,4 L-3,1 Z " fill="#000000" transform="translate(563,272)"/>
<path d="M0,0 L4,1 L3,6 L-2,5 L-2,1 Z " fill="#000000" transform="translate(206,284)"/>
<path d="M0,0 L4,2 L3,6 L0,7 L-3,5 L-2,1 Z " fill="#000000" transform="translate(183,297)"/>
<path d="M0,0 L4,1 L6,6 L4,9 L0,8 L-3,3 Z " fill="#000000" transform="translate(150,304)"/>
<path d="M0,0 L5,1 L5,5 L2,6 L-1,4 Z " fill="#000000" transform="translate(556,305)"/>
<path d="M0,0 L5,0 L7,2 L6,6 L0,6 L-1,1 Z " fill="#000000" transform="translate(150,321)"/>
<path d="M0,0 L5,1 L5,5 L0,6 L-2,3 Z " fill="#000000" transform="translate(184,321)"/>
<path d="M0,0 L20,2 L25,6 L26,10 L24,12 L18,11 L12,10 L4,10 L2,9 L-4,9 L-9,12 L-12,10 L-10,5 L-4,1 Z " fill="#000000" transform="translate(167,339)"/>
<path d="M0,0 L5,1 L6,6 L1,8 L-2,6 L-2,1 Z " fill="#000000" transform="translate(211,340)"/>
<path d="M0,0 L10,0 L16,5 L14,9 L7,8 L-1,8 L-5,11 L-11,11 L-17,8 L-31,10 L-34,8 L-32,4 L-25,2 L-4,2 Z " fill="#000000" transform="translate(153,359)"/>
<path d="M0,0 L5,1 L5,4 L1,5 L-1,1 Z " fill="#000000" transform="translate(200,360)"/>
<path d="M0,0 L6,0 L12,4 L18,4 L23,2 L32,2 L36,4 L43,3 L46,2 L55,2 L62,5 L69,7 L71,10 L71,13 L69,14 L59,15 L54,12 L52,10 L44,10 L38,13 L33,13 L27,9 L21,10 L16,14 L11,15 L7,12 L6,9 L2,7 L-5,8 L-12,14 L-17,13 L-16,8 L-10,3 Z " fill="#000000" transform="translate(141,383)"/>
<path d="M0,0 L11,0 L17,3 L31,2 L40,5 L44,9 L44,14 L42,16 L36,15 L31,11 L21,12 L12,12 L7,8 L-1,8 L-9,10 L-12,8 L-10,4 Z " fill="#000000" transform="translate(411,391)"/>
<path d="M0,0 L9,0 L14,3 L13,8 L-3,8 L-6,6 L-5,2 Z " fill="#000000" transform="translate(238,394)"/>
<path d="M0,0 L7,1 L10,3 L25,3 L40,4 L43,6 L42,11 L39,12 L27,12 L24,11 L16,11 L14,12 L8,12 L4,9 L-1,10 L-4,15 L-9,14 L-8,6 L-3,1 Z " fill="#000000" transform="translate(112,406)"/>
<path d="M0,0 L7,0 L12,4 L21,7 L25,12 L36,15 L38,24 L36,27 L31,26 L29,24 L20,23 L17,21 L16,16 L11,15 L6,15 L4,13 L3,8 L-4,9 L-14,19 L-20,19 L-23,15 L-28,16 L-32,25 L-41,28 L-42,29 L-42,35 L-39,41 L-40,45 L-45,44 L-48,39 L-50,32 L-49,25 L-43,18 L-35,14 L-28,7 L-24,5 L-17,6 L-13,7 L-5,3 Z " fill="#000000" transform="translate(204,406)"/>
<path d="M0,0 L6,0 L8,4 L6,6 L0,5 L-1,1 Z " fill="#000000" transform="translate(242,411)"/>
<path d="M0,0 L9,0 L15,3 L25,6 L26,10 L23,13 L6,13 L-6,9 L-7,4 Z " fill="#000000" transform="translate(486,411)"/>
<path d="M0,0 L14,0 L16,1 L24,1 L27,0 L34,0 L41,2 L54,2 L59,5 L62,10 L61,12 L55,12 L52,9 L43,9 L35,10 L29,8 L23,9 L16,10 L11,7 L-3,7 L-4,3 Z " fill="#000000" transform="translate(419,419)"/>
<path d="M0,0 L8,0 L10,2 L10,6 L-2,8 L-5,11 L-10,11 L-11,7 L-2,1 Z " fill="#000000" transform="translate(267,429)"/>
<path d="M0,0 L7,1 L11,4 L10,8 L0,7 L-8,11 L-13,14 L-18,13 L-22,9 L-28,10 L-38,18 L-43,17 L-47,13 L-52,14 L-53,20 L-54,31 L-56,34 L-61,34 L-65,31 L-73,31 L-82,36 L-88,35 L-90,31 L-93,29 L-99,30 L-103,32 L-106,36 L-111,36 L-111,31 L-103,25 L-99,23 L-89,23 L-82,27 L-73,25 L-62,23 L-61,22 L-60,13 L-56,8 L-50,5 L-43,6 L-42,7 L-35,7 L-27,2 L-19,2 L-15,4 L-8,4 Z " fill="#000000" transform="translate(363,429)"/>
<path d="M0,0 L15,1 L22,1 L26,5 L37,6 L44,11 L54,11 L59,14 L60,18 L59,19 L46,19 L40,20 L33,14 L24,14 L20,12 L20,10 L13,11 L8,12 L4,8 L-4,8 L-9,10 L-12,19 L-17,19 L-19,17 L-18,11 L-11,5 L-3,1 Z " fill="#000000" transform="translate(191,435)"/>
<path d="M0,0 L5,1 L7,5 L4,9 L4,11 L21,11 L24,12 L43,13 L47,16 L46,21 L41,20 L33,19 L29,21 L23,21 L18,18 L11,19 L3,20 L-1,17 L-9,17 L-18,22 L-25,21 L-28,19 L-35,20 L-39,22 L-46,21 L-50,17 L-56,18 L-66,24 L-71,23 L-75,18 L-82,18 L-87,23 L-89,29 L-90,34 L-95,33 L-96,26 L-91,16 L-82,11 L-74,11 L-69,13 L-61,13 L-54,10 L-47,10 L-42,13 L-37,14 L-33,13 L-15,13 L-5,9 L-4,5 L-3,1 Z " fill="#000000" transform="translate(430,438)"/>
<path d="M0,0 L6,0 L9,3 L7,7 L0,7 L-3,4 L-2,1 Z " fill="#000000" transform="translate(497,438)"/>
<path d="M0,0 L8,0 L20,6 L22,8 L22,12 L15,13 L5,7 L-3,7 L-9,10 L-14,10 L-15,8 L-10,3 L-6,1 Z " fill="#000000" transform="translate(131,458)"/>
<path d="M0,0 L5,0 L6,4 L1,5 Z " fill="#000000" transform="translate(89,466)"/>
<path d="M0,0 L5,1 L5,6 L4,7 L-1,7 L-2,2 Z " fill="#000000" transform="translate(200,467)"/>
<path d="M0,0 L17,2 L23,5 L25,7 L25,10 L19,11 L17,10 L5,8 L-2,8 L-5,10 L-10,10 L-9,6 L-4,2 Z " fill="#000000" transform="translate(465,467)"/>
<path d="M0,0 L4,1 L3,4 L0,3 Z " fill="#000000" transform="translate(169,474)"/>
<path d="M0,0 L8,0 L15,5 L22,4 L24,3 L31,3 L36,7 L43,6 L47,2 L54,2 L61,6 L67,4 L74,0 L80,1 L83,4 L86,12 L93,11 L100,10 L105,15 L106,18 L115,21 L120,26 L121,36 L119,38 L115,37 L112,29 L107,30 L103,31 L100,28 L100,21 L97,18 L92,19 L88,24 L83,29 L79,28 L78,11 L77,9 L71,9 L66,13 L62,22 L61,23 L56,23 L55,22 L54,11 L49,10 L45,14 L40,24 L38,32 L34,33 L27,27 L22,28 L23,35 L24,42 L21,43 L17,39 L14,31 L14,24 L17,19 L24,18 L29,20 L34,19 L34,14 L30,11 L22,11 L17,15 L12,15 L7,8 L0,8 L-7,14 L-10,19 L-15,20 L-19,16 L-22,13 L-24,12 L-30,12 L-35,15 L-37,15 L-39,26 L-40,27 L-45,27 L-46,25 L-46,19 L-41,11 L-36,7 L-31,5 L-24,5 L-17,8 L-11,8 L-2,1 Z " fill="#000000" transform="translate(354,475)"/>
<path d="M0,0 L4,2 L2,6 L-2,5 L-2,1 Z " fill="#000000" transform="translate(292,476)"/>
<path d="M0,0 L7,2 L10,3 L17,3 L20,2 L29,2 L35,6 L35,11 L29,11 L26,9 L18,10 L14,12 L7,11 L3,8 L-5,9 L-12,15 L-17,14 L-20,11 L-20,9 L-33,10 L-34,6 L-29,3 L-21,2 L-12,5 L-4,1 Z " fill="#000000" transform="translate(201,482)"/>
<path d="M0,0 L9,1 L17,5 L18,8 L17,10 L10,10 L4,8 L-10,9 L-12,8 L-20,8 L-27,10 L-30,7 L-26,3 L-20,1 L-3,1 Z " fill="#000000" transform="translate(132,483)"/>
<path d="M0,0 L5,0 L7,3 L7,6 L3,7 L0,6 L-1,1 Z " fill="#000000" transform="translate(74,488)"/>
<path d="M0,0 L3,1 L3,5 L-2,5 L-2,1 Z " fill="#000000" transform="translate(264,488)"/>
<path d="M0,0 L5,1 L4,6 L-1,6 L-2,1 Z " fill="#000000" transform="translate(280,496)"/>
<path d="M0,0 L5,1 L5,4 L0,5 L-2,2 Z " fill="#000000" transform="translate(232,503)"/>
<path d="M0,0 L4,2 L3,5 L-2,5 L-2,1 Z " fill="#000000" transform="translate(121,503)"/>
<path d="M0,0 L5,0 L7,5 L5,7 L0,6 L-1,1 Z " fill="#000000" transform="translate(177,504)"/>
<path d="M0,0 L5,1 L6,5 L1,6 L-1,5 Z " fill="#000000" transform="translate(337,508)"/>
<path d="M0,0 L5,2 L4,7 L0,6 L-1,1 Z " fill="#000000" transform="translate(149,511)"/>
<path d="M0,0 L5,1 L6,6 L5,7 L-1,7 L-3,3 Z " fill="#000000" transform="translate(66,513)"/>
<path d="M0,0 L2,0 L2,2 L0,2 Z " fill="#000000" transform="translate(204,513)"/>
<path d="M0,0 L5,0 L6,4 L4,6 L-1,5 Z " fill="#000000" transform="translate(247,513)"/>
<path d="M0,0 L6,0 L7,5 L6,6 L1,6 L0,5 Z " fill="#000000" transform="translate(428,513)"/>
<path d="M0,0 L4,2 L3,7 L-1,8 L-3,6 L-2,1 Z " fill="#000000" transform="translate(285,518)"/>
<path d="M0,0 L5,0 L6,2 L5,4 L0,4 Z " fill="#000000" transform="translate(102,519)"/>
<path d="M0,0 L5,1 L8,5 L5,8 L-1,7 L-2,2 Z " fill="#000000" transform="translate(305,519)"/>
<path d="M0,0 L5,1 L6,5 L2,7 L-1,5 Z " fill="#000000" transform="translate(398,519)"/>
<path d="M0,0 L5,1 L5,5 L1,6 L-1,2 Z " fill="#000000" transform="translate(350,520)"/>
<path d="M0,0 L4,2 L4,5 L1,6 L-2,4 Z " fill="#000000" transform="translate(154,522)"/>
</svg>
