<?xml version="1.0" encoding="UTF-8"?>
<!-- Generator: visioncortex VTracer 0.6.12 -->
<svg version="1.1" xmlns="http://www.w3.org/2000/svg" width="1140" height="1113">
<path d="M0,0 L13,0 L12,14 L11,41 L10,172 L9,296 L7,481 L6,591 L5,649 L5,676 L4,698 L3,784 L3,890 L2,927 L0,929 Z " fill="#000000" transform="translate(0,0)"/>
<path d="M0,0 L6,0 L3,2 Z " fill="#000000" transform="translate(519,0)"/>
<path d="M0,0 L6,0 L2,2 Z " fill="#000000" transform="translate(534,0)"/>
<path d="M0,0 L62,0 L61,2 L1,2 Z " fill="#000000" transform="translate(549,0)"/>
<path d="M0,0 L5,0 L5,1 L0,1 Z " fill="#000000" transform="translate(638,0)"/>
<path d="M0,0 L4,1 Z " fill="#000000" transform="translate(654,0)"/>
<path d="M0,0 L391,0 L388,3 L350,4 L309,4 L283,3 L279,4 L210,4 L145,3 L138,3 L133,2 L130,3 L96,3 L33,2 L3,2 Z " fill="#000000" transform="translate(666,0)"/>
<path d="M0,0 L82,0 L82,1098 L81,1103 L82,1104 L82,1112 L81,1113 L67,1113 L68,1098 L69,1035 L70,971 L71,940 L72,887 L73,799 L73,682 L74,566 L74,501 L75,445 L76,299 L77,251 L78,201 L78,14 L76,7 L74,5 L52,4 L6,4 L0,1 Z " fill="#000000" transform="translate(1058,0)"/>
<path d="M0,0 L15,0 L24,5 L30,12 L37,23 L43,37 L50,56 L56,82 L58,93 L60,133 L60,303 L62,315 L65,321 L74,331 L84,342 L89,347 L93,352 L98,357 L107,366 L112,371 L123,382 L129,389 L134,393 L140,403 L151,414 L156,419 L185,448 L190,453 L202,466 L208,471 L215,479 L228,494 L236,501 L241,506 L251,516 L259,523 L268,535 L283,551 L291,558 L298,566 L314,582 L321,590 L344,613 L351,621 L361,630 L368,638 L372,643 L377,648 L393,665 L406,678 L411,683 L417,691 L420,699 L421,713 L420,733 L420,744 L416,752 L409,753 L403,749 L394,743 L387,739 L373,731 L364,726 L350,718 L338,711 L328,706 L319,700 L307,693 L291,683 L282,678 L272,672 L249,661 L239,653 L223,644 L219,641 L210,636 L203,632 L184,622 L171,614 L160,608 L144,598 L136,594 L128,588 L120,584 L104,576 L91,569 L84,563 L68,555 L60,556 L59,564 L58,606 L55,651 L53,668 L51,688 L50,692 L48,710 L46,728 L44,738 L42,750 L37,777 L35,791 L35,806 L42,816 L58,833 L65,841 L72,848 L81,859 L97,875 L104,883 L104,885 L108,887 L118,897 L123,902 L132,912 L136,920 L136,962 L134,966 L127,967 L109,956 L100,950 L90,944 L78,937 L63,929 L54,923 L37,914 L26,906 L9,897 L2,896 L-19,906 L-42,919 L-51,925 L-65,932 L-70,935 L-84,943 L-100,951 L-122,963 L-128,963 L-131,960 L-131,920 L-125,908 L-116,899 L-108,892 L-88,872 L-83,867 L-72,856 L-67,851 L-60,844 L-53,836 L-41,825 L-36,819 L-28,812 L-24,804 L-24,795 L-27,783 L-32,753 L-34,740 L-37,717 L-39,700 L-44,646 L-46,583 L-46,573 L-48,556 L-51,553 L-58,553 L-77,563 L-88,569 L-108,579 L-123,588 L-135,594 L-145,600 L-163,610 L-173,615 L-189,625 L-197,629 L-210,636 L-218,641 L-243,654 L-254,661 L-272,671 L-284,677 L-300,686 L-310,692 L-338,707 L-352,716 L-375,727 L-400,740 L-403,742 L-408,742 L-411,738 L-412,721 L-412,694 L-409,684 L-405,678 L-396,668 L-385,658 L-378,650 L-376,650 L-374,646 L-359,632 L-348,621 L-344,617 L-337,609 L-328,601 L-323,597 L-316,589 L-311,584 L-304,576 L-299,571 L-293,565 L-291,565 L-289,561 L-282,554 L-275,546 L-267,538 L-261,533 L-252,522 L-240,510 L-232,503 L-220,491 L-212,485 L-203,474 L-177,448 L-173,444 L-171,444 L-169,440 L-164,435 L-140,411 L-135,405 L-130,400 L-115,386 L-110,381 L-97,368 L-91,360 L-83,353 L-76,346 L-71,341 L-66,337 L-60,330 L-52,323 L-48,316 L-46,304 L-47,267 L-47,212 L-46,194 L-46,142 L-44,99 L-37,64 L-32,47 L-26,32 L-22,23 L-14,10 L-4,2 Z M-52,862 L-55,865 L-54,870 L-49,869 L-49,864 Z " fill="#000000" transform="translate(569,62)"/>
<path d="M0,0 Z " fill="#000000" transform="translate(1066,235)"/>
<path d="M0,0 L2,1 L2,4 L-1,4 Z " fill="#000000" transform="translate(781,337)"/>
<path d="M0,0 L3,1 L2,4 L-2,3 Z " fill="#000000" transform="translate(889,437)"/>
<path d="M0,0 L2,1 L1,7 L0,7 Z " fill="#000000" transform="translate(0,948)"/>
<path d="M0,0 L4,2 L5,3 L22,4 L50,4 L102,5 L104,7 L0,7 Z " fill="#000000" transform="translate(0,1106)"/>
<path d="M0,0 L13,0 L16,2 L0,2 Z " fill="#000000" transform="translate(118,1111)"/>
<path d="M0,0 L7,1 L7,2 L-3,2 Z " fill="#000000" transform="translate(144,1111)"/>
<path d="M0,0 L11,0 L20,1 L20,2 L-2,2 Z " fill="#000000" transform="translate(220,1111)"/>
<path d="M0,0 L5,0 L5,1 L0,1 Z " fill="#000000" transform="translate(191,1112)"/>
<path d="M0,0 L7,1 L7,2 L-3,2 Z " fill="#000000" transform="translate(201,1111)"/>
</svg>
