<?xml version="1.0" encoding="UTF-8"?>
<!-- Generator: visioncortex VTracer 0.6.12 -->
<svg version="1.1" xmlns="http://www.w3.org/2000/svg" width="999" height="1011">
<path d="M0,0 L800,0 L805,3 L815,7 L825,11 L826,14 L832,16 L844,23 L858,34 L868,43 L876,51 L883,60 L891,70 L895,78 L898,82 L906,98 L906,913 L896,932 L890,943 L885,951 L874,963 L867,971 L853,984 L841,993 L830,999 L822,1004 L808,1009 L806,1009 L806,1011 L14,1011 L14,1009 L9,1008 L-20,994 L-28,988 L-43,977 L-47,972 L-52,968 L-59,960 L-69,948 L-79,932 L-86,917 L-91,905 L-91,902 L-93,902 L-93,101 L-88,89 L-82,79 L-78,70 L-70,58 L-58,42 L-50,35 L-43,28 L-32,19 L-18,10 L-2,2 L0,2 Z M148,17 L115,18 L49,18 L32,21 L21,25 L11,27 L0,34 L-14,43 L-30,55 L-31,58 L-35,60 L-47,75 L-57,91 L-63,103 L-70,125 L-72,138 L-73,150 L-75,154 L-75,163 L-74,168 L-74,305 L-75,313 L-75,416 L-74,441 L-75,456 L-75,517 L-74,561 L-74,852 L-73,856 L-71,875 L-67,892 L-59,911 L-55,919 L-51,926 L-42,937 L-33,947 L-28,952 L-19,960 L-9,968 L-4,971 L4,975 L11,978 L26,984 L37,987 L59,990 L94,990 L109,989 L125,990 L202,991 L390,991 L403,992 L478,992 L484,991 L492,992 L511,992 L516,991 L526,992 L612,992 L625,990 L629,992 L747,992 L778,990 L781,988 L790,986 L803,981 L812,977 L822,971 L832,963 L841,956 L855,942 L864,931 L870,921 L876,909 L881,894 L884,880 L886,868 L888,856 L888,424 L887,411 L887,397 L885,390 L881,386 L882,381 L887,375 L888,356 L888,160 L886,138 L883,124 L879,114 L872,98 L863,83 L856,74 L851,69 L845,61 L835,55 L832,51 L823,46 L819,42 L807,36 L801,34 L793,30 L784,27 L774,25 L757,22 L725,22 L715,21 L709,22 L704,21 L534,21 L525,20 L419,20 L389,19 L387,20 L365,20 L342,19 L281,19 L277,18 L261,19 L237,18 L163,18 Z " fill="#000000" transform="translate(93,0)"/>
<path d="M0,0 L65,0 L74,1 L80,6 L90,24 L98,37 L103,45 L107,54 L116,69 L120,77 L125,85 L130,94 L137,106 L143,117 L152,132 L163,153 L171,166 L177,177 L182,185 L194,206 L201,217 L207,228 L219,250 L226,259 L228,260 L260,260 L267,259 L282,259 L289,258 L292,259 L300,259 L304,258 L336,257 L348,257 L353,255 L356,256 L375,258 L394,259 L425,265 L432,268 L445,272 L451,275 L459,277 L469,283 L476,292 L479,297 L479,306 L473,316 L462,324 L450,330 L436,335 L419,339 L407,341 L391,344 L366,345 L356,346 L346,346 L338,345 L303,345 L298,344 L247,342 L229,342 L225,344 L218,357 L212,365 L206,374 L199,388 L194,395 L186,411 L180,421 L174,432 L165,448 L162,453 L151,473 L142,490 L133,506 L128,514 L122,526 L119,530 L113,542 L108,548 L100,565 L96,569 L92,578 L86,588 L80,597 L78,599 L71,600 L3,600 L-2,597 L-2,590 L5,572 L11,554 L16,542 L21,525 L25,515 L33,493 L38,477 L45,458 L48,451 L51,441 L60,415 L66,400 L76,371 L83,349 L83,339 L82,338 L54,336 L9,334 L-42,332 L-79,332 L-85,336 L-108,359 L-113,363 L-118,368 L-133,384 L-140,392 L-148,399 L-155,405 L-159,407 L-192,407 L-196,404 L-194,393 L-179,351 L-173,333 L-165,311 L-163,302 L-164,295 L-172,273 L-177,259 L-179,252 L-183,244 L-186,233 L-196,204 L-198,199 L-197,195 L-196,194 L-175,193 L-159,193 L-152,195 L-140,207 L-135,212 L-120,226 L-115,231 L-110,237 L-102,244 L-93,254 L-88,259 L-78,269 L-72,271 L-62,271 L-56,270 L-47,270 L-41,267 L-37,269 L-33,270 L26,268 L50,267 L73,266 L86,264 L87,259 L83,246 L79,237 L74,221 L68,205 L62,191 L58,178 L56,169 L51,158 L48,150 L43,135 L38,125 L36,115 L30,99 L25,87 L16,60 L9,42 L5,31 L1,17 L-3,7 L-2,1 Z " fill="#000000" transform="translate(361,204)"/>
</svg>
