<?xml version="1.0" encoding="UTF-8"?>
<!-- Generator: visioncortex VTracer 0.6.12 -->
<svg version="1.1" xmlns="http://www.w3.org/2000/svg" width="1296" height="1338">
<path d="M0,0 L1296,0 L1296,41 L1250,42 L931,42 L890,43 L440,43 L398,44 L385,43 L0,43 Z " fill="#000000" transform="translate(0,0)"/>
<path d="M0,0 L104,0 L111,1 L126,1 L137,0 L143,1 L152,1 L169,0 L185,1 L284,1 L346,2 L359,3 L371,2 L578,2 L603,3 L620,6 L635,9 L662,18 L671,22 L687,30 L697,35 L702,40 L712,47 L719,52 L724,57 L738,70 L746,80 L746,82 L748,82 L759,97 L764,105 L768,110 L777,131 L781,139 L787,158 L793,182 L795,199 L796,245 L795,284 L795,529 L796,673 L796,808 L794,834 L790,854 L788,865 L780,888 L770,911 L764,920 L758,931 L745,947 L740,952 L733,961 L725,967 L717,975 L706,982 L698,988 L689,994 L673,1002 L669,1004 L661,1006 L650,1010 L635,1015 L622,1017 L601,1020 L580,1021 L522,1021 L415,1020 L345,1020 L338,1019 L331,1020 L321,1019 L310,1020 L252,1020 L245,1019 L240,1020 L218,1020 L158,1019 L122,1019 L114,1020 L97,1020 L86,1019 L-2,1019 L-17,1017 L-33,1014 L-55,1007 L-67,1003 L-86,993 L-102,984 L-118,972 L-127,965 L-146,946 L-154,936 L-163,923 L-171,910 L-175,902 L-180,892 L-185,880 L-192,859 L-196,844 L-199,824 L-200,797 L-200,663 L-201,487 L-201,205 L-198,181 L-194,160 L-188,141 L-183,130 L-179,120 L-169,102 L-157,84 L-150,76 L-143,68 L-139,66 L-137,62 L-127,52 L-114,42 L-99,31 L-74,18 L-59,12 L-52,9 L-41,7 L-28,4 L-15,1 Z M296,119 L290,124 L283,142 L276,161 L267,202 L265,221 L264,257 L263,331 L258,337 L253,342 L243,350 L234,358 L226,364 L221,368 L217,372 L210,376 L206,381 L198,387 L192,392 L187,397 L176,407 L170,411 L162,418 L156,422 L152,426 L142,434 L134,441 L122,452 L111,461 L107,465 L96,474 L86,482 L78,489 L71,494 L71,496 L67,498 L56,508 L46,516 L39,521 L34,526 L23,536 L18,539 L13,544 L2,554 L-11,564 L-22,574 L-33,582 L-37,587 L-45,593 L-52,599 L-57,604 L-60,608 L-63,615 L-64,633 L-63,644 L-59,650 L-58,651 L-52,651 L-37,643 L-21,635 L-12,630 L5,621 L21,613 L30,607 L46,599 L70,586 L81,580 L91,575 L97,571 L113,563 L132,554 L145,546 L159,539 L185,530 L196,526 L212,522 L220,519 L237,514 L253,509 L257,508 L262,509 L263,535 L263,612 L264,638 L266,656 L268,686 L273,720 L275,738 L274,748 L263,759 L253,767 L243,775 L239,780 L231,786 L223,791 L218,798 L210,803 L206,807 L198,813 L191,819 L186,824 L180,834 L180,860 L183,864 L191,864 L200,862 L216,857 L228,853 L237,851 L264,841 L286,834 L296,834 L308,837 L329,844 L351,851 L361,854 L367,856 L377,859 L388,863 L392,864 L400,864 L404,860 L405,856 L405,836 L399,825 L387,814 L379,808 L365,794 L357,788 L347,779 L342,775 L338,770 L328,763 L319,755 L315,749 L313,749 L312,745 L312,736 L313,727 L314,725 L319,682 L321,671 L321,662 L324,637 L325,598 L326,583 L327,527 L328,510 L337,510 L352,515 L363,519 L377,523 L384,526 L401,531 L419,538 L435,546 L464,561 L474,567 L485,573 L512,587 L528,595 L552,608 L560,612 L566,616 L578,622 L597,632 L615,642 L639,654 L643,656 L650,656 L654,653 L655,649 L656,631 L654,620 L649,611 L636,599 L630,595 L626,590 L619,585 L614,579 L609,576 L604,571 L593,561 L580,551 L575,546 L563,536 L561,536 L559,532 L548,523 L539,515 L533,511 L529,506 L523,502 L518,497 L506,486 L498,479 L489,472 L482,466 L475,460 L472,457 L464,450 L455,442 L450,437 L441,429 L436,426 L434,426 L432,422 L423,415 L414,407 L406,400 L396,391 L388,385 L383,380 L371,368 L361,360 L347,349 L331,333 L329,326 L328,317 L328,219 L326,195 L324,189 L320,169 L318,163 L316,152 L312,142 L308,133 L304,122 L301,119 Z M167,713 L161,716 L158,720 L159,729 L163,730 L162,724 L166,719 L171,719 L173,722 L174,728 L178,726 L178,719 L173,714 Z " fill="#000000" transform="translate(350,138)"/>
<path d="M0,0 L3,0 L2,3 L0,2 Z " fill="#000000" transform="translate(5,1189)"/>
<path d="M0,0 L7,1 L11,6 L15,15 L24,27 L32,40 L38,49 L41,55 L45,54 L46,21 L47,6 L49,3 L55,2 L58,4 L59,18 L58,44 L57,78 L55,82 L51,84 L45,83 L42,80 L36,69 L26,54 L15,36 L12,31 L9,30 L7,31 L6,36 L5,64 L5,77 L3,81 L-2,82 L-7,79 L-8,75 L-6,9 L-4,2 Z " fill="#000000" transform="translate(151,1220)"/>
<path d="M0,0 L12,0 L22,1 L30,6 L36,13 L38,18 L38,25 L36,27 L31,26 L27,21 L22,14 L18,12 L5,11 L-4,16 L-6,22 L-3,28 L3,32 L11,34 L22,37 L26,40 L34,43 L41,51 L42,53 L42,63 L37,73 L33,78 L25,82 L22,83 L6,84 L-9,80 L-18,71 L-20,65 L-20,55 L-19,54 L-12,55 L-6,66 L0,71 L9,72 L18,72 L27,68 L28,65 L28,57 L23,52 L13,47 L-5,42 L-13,37 L-17,29 L-18,21 L-16,13 L-11,6 Z " fill="#000000" transform="translate(319,1221)"/>
<path d="M0,0 L30,0 L42,3 L47,8 L51,13 L53,17 L53,30 L48,39 L41,45 L33,48 L10,49 L6,50 L5,77 L2,80 L-4,79 L-6,76 L-6,40 L-5,11 L-4,3 Z M11,10 L7,13 L6,17 L6,30 L8,35 L14,37 L28,37 L36,34 L41,28 L40,19 L37,14 L30,11 Z " fill="#000000" transform="translate(234,1222)"/>
</svg>
