<?xml version="1.0" encoding="UTF-8"?>
<!-- Generator: visioncortex VTracer 0.6.12 -->
<svg version="1.1" xmlns="http://www.w3.org/2000/svg" width="1185" height="792">
<path d="M0,0 L10,0 L33,13 L38,16 L38,18 L43,20 L58,29 L68,35 L77,41 L90,48 L113,61 L130,72 L139,78 L149,84 L160,90 L182,104 L204,117 L220,126 L233,134 L251,145 L261,151 L274,160 L288,169 L298,175 L322,189 L333,196 L340,201 L354,208 L361,214 L374,222 L380,222 L385,217 L394,205 L400,196 L404,189 L409,185 L416,185 L427,191 L440,199 L446,203 L450,207 L451,210 L452,226 L456,235 L462,242 L476,250 L490,260 L503,267 L515,275 L525,280 L535,287 L540,289 L546,288 L548,283 L555,273 L563,260 L572,244 L582,226 L590,210 L597,200 L602,190 L605,188 L611,188 L614,190 L614,192 L617,193 L624,202 L630,204 L641,205 L688,205 L693,202 L693,196 L688,191 L667,178 L664,173 L665,165 L668,160 L670,159 L677,159 L688,166 L699,173 L707,178 L710,179 L737,180 L746,182 L754,188 L759,193 L764,202 L766,208 L766,219 L763,229 L755,238 L751,243 L743,247 L734,250 L722,248 L714,246 L709,243 L709,241 L706,240 L706,238 L704,238 L697,230 L691,226 L665,226 L662,227 L661,230 L663,245 L663,257 L660,266 L654,277 L649,282 L640,288 L631,292 L619,292 L610,290 L601,291 L600,296 L593,325 L587,351 L585,355 L582,370 L577,391 L574,401 L565,439 L561,453 L561,463 L568,469 L576,475 L583,484 L586,492 L588,500 L593,500 L599,497 L605,495 L609,492 L611,492 L611,490 L622,481 L635,472 L658,457 L678,445 L687,441 L690,439 L696,420 L698,411 L702,406 L712,400 L727,398 L736,398 L762,403 L767,402 L797,401 L814,399 L826,395 L832,393 L839,394 L842,399 L840,408 L831,418 L824,429 L820,435 L812,438 L778,437 L763,437 L758,440 L754,449 L748,453 L719,463 L701,471 L686,479 L674,485 L662,492 L643,506 L632,514 L625,520 L618,528 L613,532 L588,533 L524,533 L514,532 L489,532 L454,531 L431,531 L426,530 L400,530 L380,529 L377,526 L376,514 L371,511 L299,509 L293,506 L291,499 L291,480 L295,476 L298,475 L355,475 L380,476 L429,476 L437,474 L437,472 L442,467 L449,456 L455,446 L460,439 L466,427 L470,420 L474,408 L474,401 L471,393 L463,381 L454,373 L440,364 L429,358 L414,349 L403,342 L392,336 L376,326 L359,316 L353,311 L345,306 L332,298 L319,290 L307,283 L289,272 L278,266 L272,262 L264,258 L254,252 L246,247 L239,241 L237,237 L237,230 L245,217 L247,209 L242,203 L225,193 L216,187 L206,180 L191,171 L181,164 L172,157 L163,152 L150,144 L137,135 L120,124 L109,117 L95,108 L81,99 L63,86 L38,71 L32,66 L19,58 L6,50 L-4,43 L-6,42 L-6,5 Z M9,21 L7,22 L8,27 L18,34 L36,45 L48,53 L58,60 L72,68 L85,77 L101,87 L119,99 L129,105 L145,116 L155,122 L174,135 L191,145 L205,155 L215,161 L230,171 L252,186 L265,194 L278,203 L287,210 L296,215 L314,226 L327,234 L344,244 L359,254 L375,264 L390,273 L399,279 L413,287 L421,288 L426,283 L428,279 L428,272 L422,267 L410,261 L399,254 L389,248 L369,236 L358,229 L350,223 L343,219 L333,212 L317,203 L309,199 L299,193 L288,186 L270,175 L259,169 L243,159 L231,152 L222,146 L205,136 L194,129 L187,125 L165,113 L146,101 L127,90 L118,84 L98,73 L85,65 L77,59 L67,52 L35,35 L22,27 L13,21 Z M262,222 L259,225 L259,231 L266,237 L276,243 L295,254 L306,261 L317,268 L328,275 L348,287 L355,293 L366,299 L380,307 L396,317 L401,318 L406,316 L408,312 L407,307 L399,300 L384,291 L376,286 L359,277 L348,270 L328,258 L308,246 L288,234 L269,222 Z M620,229 L614,233 L610,244 L608,256 L608,265 L611,271 L617,274 L626,274 L634,271 L641,265 L644,259 L644,243 L640,236 L631,230 L628,229 Z M463,297 L458,302 L457,304 L457,312 L464,318 L480,327 L502,340 L508,344 L514,344 L518,339 L521,333 L519,327 L512,322 L503,317 L487,307 L473,299 L469,297 Z M441,331 L438,334 L439,341 L447,347 L471,361 L480,367 L491,374 L498,374 L502,369 L502,364 L493,356 L477,348 L466,341 L456,335 L449,331 Z M555,487 L552,490 L551,498 L555,502 L560,503 L564,501 L565,496 L563,489 L561,487 Z " fill="#000000" transform="translate(6,22)"/>
<path d="M0,0 L18,1 L35,6 L53,13 L61,19 L69,26 L80,42 L87,57 L89,66 L90,92 L85,111 L76,128 L65,140 L56,148 L45,155 L37,159 L21,162 L-1,162 L-13,160 L-30,152 L-44,142 L-51,135 L-58,125 L-63,115 L-68,99 L-70,85 L-70,71 L-67,61 L-64,45 L-60,37 L-54,30 L-46,24 L-41,19 L-37,15 L-26,9 L-16,4 Z " fill="#000000" transform="translate(182,544)"/>
<path d="M0,0 L25,0 L48,8 L64,17 L73,28 L79,38 L86,54 L89,62 L91,80 L90,92 L87,103 L84,113 L76,126 L67,136 L61,143 L46,154 L41,156 L13,160 L-2,158 L-17,154 L-31,147 L-41,139 L-49,130 L-57,117 L-65,97 L-67,80 L-66,63 L-61,46 L-56,34 L-50,26 L-39,17 L-30,11 L-15,4 Z " fill="#000000" transform="translate(936,555)"/>
<path d="M0,0 L9,0 L36,5 L44,9 L50,16 L56,17 L60,16 L68,16 L75,21 L84,32 L97,45 L103,53 L114,60 L117,64 L120,80 L126,98 L129,108 L129,123 L127,125 L118,125 L119,130 L128,134 L132,138 L135,143 L135,151 L129,161 L120,187 L120,192 L126,194 L136,195 L182,195 L209,196 L224,195 L234,195 L238,191 L239,188 L239,140 L238,135 L238,125 L239,116 L243,113 L244,110 L231,109 L198,108 L193,106 L191,103 L190,87 L188,76 L190,71 L193,68 L203,66 L234,66 L311,67 L383,66 L415,67 L428,68 L431,69 L434,77 L434,101 L431,108 L425,112 L425,114 L432,117 L434,121 L437,140 L440,143 L445,144 L482,145 L528,145 L544,146 L620,146 L623,144 L627,125 L633,121 L634,117 L630,107 L632,96 L640,80 L645,71 L650,65 L660,60 L661,59 L663,48 L668,42 L686,31 L699,23 L701,22 L708,22 L712,26 L718,26 L720,16 L722,14 L741,11 L744,10 L765,9 L774,12 L777,15 L777,17 L786,18 L790,16 L799,17 L816,24 L827,32 L838,40 L843,45 L846,56 L856,60 L861,64 L867,73 L873,81 L877,90 L878,91 L885,91 L896,85 L906,78 L909,76 L916,76 L922,81 L930,96 L933,105 L943,107 L959,101 L978,90 L992,82 L994,82 L994,148 L982,154 L971,161 L970,164 L973,165 L994,166 L994,201 L878,201 L873,204 L869,209 L862,219 L856,227 L844,238 L842,239 L832,240 L830,243 L828,251 L814,260 L800,266 L785,269 L770,272 L750,272 L732,270 L728,269 L708,269 L666,268 L632,268 L601,267 L509,267 L428,266 L382,266 L364,265 L329,265 L324,264 L173,264 L122,263 L103,261 L87,261 L71,262 L65,263 L35,264 L10,264 L2,263 L-13,262 L-26,258 L-28,257 L-30,250 L-31,249 L-37,249 L-42,253 L-44,254 L-50,254 L-59,249 L-71,240 L-75,238 L-90,237 L-95,236 L-170,238 L-174,237 L-181,237 L-187,239 L-191,239 L-191,199 L-181,197 L-165,189 L-149,182 L-126,172 L-124,168 L-123,161 L-120,156 L-121,150 L-130,143 L-134,135 L-133,128 L-131,124 L-128,108 L-121,86 L-117,81 L-108,78 L-108,70 L-111,63 L-110,58 L-100,50 L-91,39 L-84,31 L-77,27 L-67,25 L-65,20 L-63,13 L-57,8 L-50,7 L-40,7 L-28,3 L-19,3 L-12,6 L-6,4 L-3,1 Z M-5,18 L-12,24 L-17,26 L-24,26 L-28,23 L-33,22 L-42,25 L-55,33 L-61,42 L-65,47 L-73,51 L-79,54 L-90,65 L-95,76 L-96,95 L-99,98 L-108,102 L-111,111 L-112,118 L-112,137 L-109,144 L-105,150 L-104,155 L-105,171 L-99,186 L-95,191 L-91,199 L-74,208 L-71,212 L-68,220 L-59,228 L-49,234 L-40,235 L-33,232 L-24,232 L-18,237 L-15,243 L-12,245 L-7,246 L14,246 L21,243 L28,235 L34,225 L36,221 L41,219 L47,219 L48,220 L48,226 L47,233 L48,234 L54,234 L65,228 L74,221 L78,217 L81,211 L83,195 L86,186 L89,184 L100,185 L104,181 L108,172 L114,156 L114,142 L109,133 L103,124 L102,122 L102,115 L110,109 L110,101 L105,85 L99,76 L95,72 L83,67 L79,62 L79,54 L76,47 L65,38 L55,34 L39,35 L33,33 L30,23 L23,20 L12,19 L7,20 L3,18 Z M748,26 L733,28 L727,31 L719,41 L714,45 L712,46 L705,46 L701,44 L694,44 L682,52 L672,62 L667,74 L664,80 L655,86 L651,93 L645,111 L646,119 L649,126 L648,135 L644,141 L642,144 L642,153 L645,165 L651,179 L657,186 L665,191 L667,194 L667,205 L674,219 L688,230 L690,231 L703,232 L709,235 L713,244 L721,249 L734,253 L743,252 L753,248 L762,243 L768,243 L770,246 L772,252 L779,253 L796,249 L812,241 L819,229 L821,219 L823,215 L830,214 L835,218 L842,217 L854,202 L856,195 L856,174 L858,170 L866,165 L869,160 L870,153 L870,132 L861,121 L852,107 L853,103 L860,99 L860,93 L851,77 L844,70 L833,65 L827,62 L825,59 L824,50 L815,42 L802,36 L787,31 L780,34 L772,36 L767,33 L763,28 L758,26 Z M255,110 L255,113 L257,114 L272,114 L293,115 L299,113 L298,110 Z M406,111 L403,114 L406,116 L413,115 L412,112 Z M375,112 L374,114 L381,115 L389,114 L388,112 Z " fill="#000000" transform="translate(191,494)"/>
</svg>
