<?xml version="1.0" encoding="UTF-8"?>
<!-- Generator: visioncortex VTracer 0.6.12 -->
<svg version="1.1" xmlns="http://www.w3.org/2000/svg" width="630" height="1038">
<path d="M0,0 L6,0 L11,3 L13,18 L15,41 L18,47 L25,49 L38,51 L42,55 L43,58 L43,129 L42,133 L40,175 L40,218 L39,238 L39,322 L38,369 L38,401 L37,435 L36,447 L37,458 L36,494 L37,511 L36,516 L35,540 L35,641 L33,737 L33,788 L32,876 L32,917 L31,928 L30,973 L26,977 L24,978 L11,980 L-3,980 L-32,981 L-59,980 L-63,981 L-70,981 L-75,980 L-169,980 L-181,979 L-270,979 L-276,980 L-294,979 L-321,979 L-423,980 L-513,980 L-520,978 L-522,976 L-523,965 L-523,863 L-522,855 L-522,766 L-523,706 L-527,699 L-527,695 L-524,691 L-522,677 L-522,567 L-521,547 L-521,457 L-522,448 L-525,444 L-525,438 L-523,431 L-521,422 L-521,386 L-522,367 L-521,340 L-521,297 L-520,254 L-520,104 L-519,90 L-519,59 L-520,51 L-517,44 L-510,39 L-496,40 L-487,41 L-483,45 L-481,63 L-480,67 L-480,86 L-476,90 L-473,91 L-456,91 L-447,90 L-439,91 L-365,90 L-339,91 L-331,92 L-62,92 L-59,91 L-57,80 L-57,58 L-56,51 L-55,20 L-53,7 L-49,3 L-23,2 Z M-404,153 L-410,156 L-413,161 L-414,198 L-414,250 L-413,278 L-410,283 L-401,285 L-368,287 L-365,286 L-323,286 L-318,283 L-316,279 L-315,263 L-315,224 L-314,185 L-315,164 L-317,156 L-321,153 Z M-162,155 L-167,160 L-169,169 L-169,229 L-170,277 L-168,284 L-164,287 L-136,286 L-126,287 L-91,287 L-82,284 L-79,277 L-79,248 L-78,227 L-78,167 L-80,159 L-84,156 L-93,155 Z M-407,371 L-412,376 L-413,388 L-413,499 L-409,507 L-406,508 L-380,510 L-371,509 L-340,509 L-322,508 L-318,505 L-316,494 L-316,471 L-315,432 L-316,405 L-316,383 L-318,375 L-321,372 L-330,371 Z M-156,373 L-167,374 L-170,379 L-171,387 L-171,430 L-172,473 L-172,502 L-169,507 L-164,510 L-103,510 L-89,509 L-84,506 L-82,502 L-81,460 L-81,388 L-82,378 L-85,375 L-101,373 Z M-415,589 L-440,590 L-444,592 L-448,600 L-449,607 L-449,631 L-450,664 L-451,670 L-450,721 L-451,737 L-451,823 L-448,828 L-442,830 L-404,831 L-329,831 L-323,826 L-322,821 L-321,789 L-321,758 L-322,720 L-323,716 L-323,705 L-322,700 L-322,631 L-323,620 L-324,614 L-322,609 L-322,595 L-326,592 L-329,591 L-356,590 L-375,590 Z M-210,591 L-216,596 L-217,603 L-218,617 L-219,622 L-219,645 L-217,735 L-215,738 L-210,740 L-164,741 L-95,741 L-87,739 L-84,736 L-82,727 L-82,602 L-85,595 L-89,592 L-100,592 L-111,591 Z M-314,662 L-315,667 L-310,668 L-310,663 Z M-416,864 L-445,866 L-451,869 L-454,873 L-454,881 L-450,885 L-403,885 L-396,886 L-327,885 L-321,882 L-319,878 L-319,871 L-323,866 L-337,865 L-407,865 Z M-151,872 L-173,873 L-180,876 L-183,883 L-184,886 L-184,930 L-182,935 L-175,939 L-162,939 L-140,940 L-89,940 L-65,939 L-59,934 L-58,932 L-56,908 L-56,890 L-58,878 L-63,873 L-74,873 L-85,875 L-99,874 L-106,874 L-109,873 Z M-368,917 L-426,918 L-446,919 L-453,922 L-454,934 L-451,939 L-448,940 L-423,941 L-388,940 L-330,940 L-324,938 L-320,933 L-320,923 L-324,918 L-326,917 Z " fill="#000000" transform="translate(559,30)"/>
</svg>
