<?xml version="1.0" encoding="UTF-8"?>
<!-- Generator: visioncortex VTracer 0.6.12 -->
<svg version="1.1" xmlns="http://www.w3.org/2000/svg" width="705" height="705">
<path d="M0,0 L6,0 L11,5 L21,18 L26,24 L27,31 L20,40 L18,40 L16,45 L0,61 L-7,69 L-15,79 L-24,89 L-28,94 L-30,94 L-32,98 L-42,109 L-43,111 L-45,111 L-47,115 L-56,127 L-57,132 L-54,137 L-43,149 L-38,154 L-31,160 L-22,160 L-17,156 L-15,153 L-13,153 L-13,151 L-5,144 L-3,144 L-3,142 L7,135 L17,128 L28,120 L41,111 L56,103 L80,93 L117,81 L138,78 L190,78 L205,79 L220,83 L231,86 L247,90 L258,94 L267,98 L288,107 L302,115 L315,124 L333,138 L343,147 L345,148 L345,150 L348,151 L351,155 L351,157 L353,157 L360,165 L366,172 L375,183 L383,194 L389,204 L399,220 L409,243 L415,261 L419,272 L425,308 L426,315 L426,355 L424,367 L423,380 L418,403 L416,413 L411,427 L406,440 L394,465 L388,475 L381,486 L378,487 L376,491 L364,507 L355,517 L343,528 L339,533 L330,540 L321,547 L308,556 L301,560 L293,565 L276,575 L265,578 L253,584 L240,587 L229,591 L209,595 L195,597 L173,598 L156,598 L139,597 L107,592 L90,588 L81,588 L78,591 L75,598 L73,610 L69,626 L62,644 L58,648 L51,648 L42,644 L19,632 L10,626 L0,618 L-10,609 L-21,597 L-26,590 L-31,586 L-31,584 L-34,583 L-41,575 L-55,561 L-60,553 L-71,540 L-78,531 L-81,526 L-91,507 L-97,496 L-103,485 L-109,477 L-114,468 L-117,463 L-122,446 L-129,427 L-133,413 L-137,393 L-139,370 L-138,333 L-136,323 L-134,309 L-131,292 L-123,269 L-115,251 L-112,247 L-106,236 L-102,230 L-96,227 L-89,227 L-76,232 L-69,231 L-63,222 L-59,213 L-55,205 L-55,196 L-64,186 L-78,174 L-85,168 L-92,167 L-100,174 L-107,181 L-114,189 L-125,201 L-134,212 L-143,221 L-153,234 L-164,248 L-168,253 L-173,257 L-178,262 L-186,270 L-190,275 L-196,275 L-201,270 L-211,259 L-219,249 L-220,242 L-217,237 L-203,222 L-196,214 L-188,205 L-183,200 L-172,188 L-163,178 L-158,173 L-145,159 L-138,151 L-135,148 L-133,148 L-131,144 L-127,138 L-122,134 L-113,123 L-105,114 L-103,114 L-101,110 L-89,98 L-85,93 L-83,93 L-81,89 L-75,81 L-64,68 L-55,57 L-46,50 L-39,42 L-37,42 L-35,38 L-26,28 L-15,16 L-10,11 L-2,1 Z M150,122 L129,125 L109,129 L84,138 L70,146 L61,150 L46,159 L29,172 L21,179 L13,187 L9,194 L10,198 L16,204 L18,204 L20,208 L24,213 L37,221 L43,220 L54,213 L73,202 L83,197 L89,199 L93,206 L95,211 L95,218 L86,225 L78,231 L67,239 L56,247 L46,256 L34,265 L26,275 L21,276 L16,273 L14,273 L14,271 L9,267 L8,260 L7,253 L-2,242 L-8,237 L-13,234 L-19,235 L-25,242 L-28,250 L-27,258 L-21,265 L-11,272 L-1,280 L8,291 L14,298 L20,307 L28,323 L38,338 L47,357 L51,364 L57,378 L63,401 L66,411 L70,424 L72,433 L76,450 L78,474 L79,480 L80,514 L81,530 L85,535 L97,541 L114,546 L130,550 L143,551 L147,552 L184,553 L209,550 L222,547 L230,544 L243,541 L255,536 L272,528 L286,519 L297,511 L307,503 L320,490 L325,484 L330,479 L336,472 L339,467 L344,461 L354,445 L363,426 L370,409 L373,401 L378,379 L381,359 L381,320 L378,297 L376,292 L372,272 L368,260 L360,244 L352,228 L344,215 L333,200 L330,199 L328,195 L313,179 L303,170 L288,159 L275,150 L264,145 L248,138 L239,134 L224,129 L191,123 L177,122 Z " fill="#000000" transform="translate(251,31)"/>
</svg>
