<?xml version="1.0" encoding="UTF-8"?>
<!-- Generator: visioncortex VTracer 0.6.12 -->
<svg version="1.1" xmlns="http://www.w3.org/2000/svg" width="1164" height="1224">
<path d="M0,0 L28,1 L28,13 L1,13 L-4,15 L-7,18 L-9,39 L-10,131 L-10,165 L-9,205 L-9,435 L-8,531 L-8,547 L-7,594 L-3,604 L0,606 L28,608 L28,620 L16,620 L2,621 L-3,624 L-7,632 L-8,669 L-8,817 L-7,1045 L-6,1109 L-4,1134 L-1,1144 L17,1146 L28,1147 L28,1162 L7,1162 L2,1164 L-4,1164 L-13,1150 L-20,1139 L-20,921 L-21,701 L-21,654 L-22,619 L-21,495 L-21,80 L-22,19 L-18,14 L-7,6 Z " fill="#000000" transform="translate(1136,29)"/>
<path d="M0,0 L99,0 L104,1 L230,1 L319,2 L389,2 L427,3 L492,3 L581,4 L751,4 L786,5 L810,5 L813,4 L820,4 L823,5 L997,5 L1005,12 L1015,22 L1016,24 L1016,40 L1015,81 L1015,267 L1014,440 L1015,584 L1015,617 L1014,653 L1014,749 L1013,887 L1013,958 L1012,971 L1013,997 L1013,1070 L1014,1100 L1016,1112 L1017,1115 L1021,1117 L1020,1121 L1001,1131 L839,1131 L724,1130 L614,1130 L523,1129 L318,1128 L241,1128 L98,1127 L48,1127 L0,1126 L0,1113 L6,1112 L42,1112 L92,1113 L164,1113 L191,1114 L196,1113 L247,1113 L270,1114 L334,1114 L379,1115 L422,1115 L428,1116 L441,1115 L479,1115 L621,1116 L748,1116 L776,1117 L861,1116 L995,1116 L998,1113 L999,1110 L1000,1046 L1001,935 L1001,587 L1002,373 L1002,263 L1003,201 L1004,190 L1003,180 L1003,63 L1004,27 L1002,20 L997,17 L691,17 L641,16 L562,16 L529,17 L492,16 L411,16 L318,15 L221,15 L212,18 L208,23 L205,28 L203,33 L198,42 L190,58 L181,77 L171,103 L166,115 L158,142 L152,167 L148,184 L145,203 L142,224 L139,263 L140,276 L143,281 L216,282 L226,283 L302,283 L403,284 L485,284 L492,282 L491,279 L476,271 L466,262 L459,253 L454,242 L452,233 L451,221 L454,206 L462,191 L474,179 L489,171 L498,169 L514,169 L525,172 L535,177 L545,185 L552,193 L558,204 L561,215 L561,233 L557,247 L551,257 L542,267 L528,276 L519,280 L519,283 L529,284 L578,285 L636,285 L695,286 L707,288 L719,294 L727,302 L732,313 L733,319 L733,328 L731,338 L725,348 L715,356 L707,360 L697,361 L554,361 L549,363 L547,366 L546,454 L543,458 L542,462 L546,464 L546,547 L551,557 L560,573 L564,578 L569,588 L579,605 L585,616 L589,623 L600,641 L605,650 L612,661 L615,668 L621,678 L630,692 L634,700 L645,719 L651,728 L655,737 L656,763 L656,952 L654,958 L653,959 L621,959 L577,958 L574,957 L573,955 L572,755 L567,743 L554,721 L545,706 L537,692 L529,680 L515,656 L505,639 L496,624 L492,619 L487,620 L481,631 L474,642 L460,665 L449,683 L445,691 L438,701 L425,724 L416,739 L410,749 L399,768 L394,776 L389,785 L379,801 L371,816 L364,826 L358,837 L347,855 L333,879 L325,892 L319,903 L312,913 L306,925 L289,953 L282,955 L219,954 L202,954 L199,951 L202,942 L212,925 L220,912 L225,903 L230,895 L236,884 L240,877 L248,865 L254,854 L271,825 L279,811 L287,797 L294,786 L300,776 L315,751 L324,735 L335,716 L341,706 L345,701 L351,689 L356,681 L368,661 L380,640 L387,629 L396,613 L404,601 L410,590 L417,579 L425,566 L430,557 L435,548 L436,544 L437,494 L437,363 L434,360 L328,358 L275,358 L176,357 L151,357 L147,358 L146,360 L146,368 L149,387 L155,413 L163,442 L166,451 L174,472 L177,478 L179,485 L186,499 L190,509 L198,525 L207,542 L216,557 L236,587 L247,602 L257,614 L266,625 L273,632 L277,637 L277,639 L281,641 L293,654 L301,661 L306,666 L318,677 L324,682 L325,688 L322,693 L317,692 L307,683 L297,675 L267,645 L260,637 L254,630 L254,628 L250,626 L242,615 L233,604 L227,596 L221,588 L216,580 L205,563 L198,552 L193,543 L183,524 L175,508 L165,486 L160,473 L156,463 L147,436 L142,418 L138,402 L136,391 L134,381 L130,359 L126,355 L121,353 L112,351 L100,344 L90,337 L82,329 L75,319 L69,307 L65,291 L65,285 L67,282 L90,281 L122,281 L124,278 L125,272 L127,245 L129,221 L132,200 L134,193 L136,178 L141,156 L143,152 L145,142 L148,130 L155,109 L160,94 L165,82 L169,73 L178,53 L187,34 L193,25 L196,18 L195,13 L191,14 L128,14 L82,13 L35,13 L0,12 Z M711,1121 L710,1125 L715,1125 L715,1121 Z " fill="#000000" transform="translate(0,60)"/>
<path d="M0,0 L2,0 L1,2 Z " fill="#000000" transform="translate(1030,260)"/>
</svg>
