<?xml version="1.0" encoding="UTF-8"?>
<!-- Generator: visioncortex VTracer 0.6.12 -->
<svg version="1.1" xmlns="http://www.w3.org/2000/svg" width="1113" height="1107">
<path d="M0,0 L90,0 L90,2 L101,3 L127,10 L143,15 L155,19 L172,25 L201,37 L219,45 L234,53 L245,59 L263,69 L273,75 L284,82 L298,92 L314,104 L330,117 L344,129 L356,140 L373,156 L381,164 L388,172 L398,182 L404,190 L413,200 L420,210 L429,224 L435,232 L445,247 L451,257 L457,266 L464,277 L472,293 L481,310 L488,325 L494,339 L499,352 L508,377 L511,388 L516,406 L521,427 L523,436 L524,437 L524,664 L522,669 L519,685 L509,720 L504,736 L499,749 L496,757 L491,769 L488,777 L483,787 L472,811 L465,823 L460,832 L452,845 L445,856 L435,871 L425,886 L422,891 L413,902 L405,913 L396,922 L392,928 L376,944 L369,952 L361,961 L353,967 L345,975 L336,981 L328,988 L318,998 L308,1005 L299,1011 L283,1021 L272,1029 L267,1033 L253,1041 L237,1049 L225,1055 L216,1061 L207,1065 L198,1069 L177,1075 L168,1080 L163,1083 L154,1086 L128,1093 L113,1098 L97,1102 L84,1105 L79,1107 L-150,1107 L-153,1105 L-164,1103 L-190,1097 L-206,1092 L-225,1085 L-239,1078 L-251,1075 L-272,1065 L-284,1060 L-294,1054 L-310,1046 L-323,1038 L-334,1031 L-348,1021 L-359,1014 L-360,1013 L-360,1005 L-356,1004 L-339,1016 L-332,1020 L-312,1032 L-295,1041 L-279,1049 L-253,1061 L-240,1066 L-229,1070 L-215,1076 L-198,1081 L-182,1085 L-161,1090 L-159,1091 L-147,1093 L-134,1096 L-109,1100 L-85,1102 L-81,1103 L-56,1104 L-23,1104 L11,1101 L29,1100 L68,1094 L73,1092 L94,1088 L125,1079 L143,1073 L154,1069 L171,1063 L187,1056 L205,1048 L228,1036 L244,1028 L254,1022 L262,1017 L278,1007 L292,997 L305,987 L316,978 L327,969 L336,960 L344,953 L358,940 L363,936 L370,928 L378,920 L386,910 L391,905 L400,895 L407,887 L412,883 L421,870 L425,863 L436,846 L444,833 L456,812 L462,799 L475,774 L481,758 L487,744 L493,726 L498,709 L504,689 L507,674 L512,654 L514,643 L519,601 L521,569 L521,553 L520,519 L517,485 L514,459 L509,434 L506,424 L504,413 L500,398 L493,375 L489,364 L483,348 L473,324 L465,307 L460,299 L448,276 L436,257 L429,247 L421,234 L414,223 L405,212 L396,201 L384,187 L373,174 L358,159 L352,154 L352,152 L348,150 L337,140 L333,136 L325,129 L320,123 L310,117 L307,115 L307,113 L302,111 L290,102 L278,94 L269,88 L261,82 L247,75 L236,69 L216,58 L193,48 L184,44 L175,40 L162,36 L156,33 L145,29 L124,23 L111,19 L94,15 L92,14 L78,12 L58,8 L30,4 L9,3 L0,1 Z " fill="#000000" transform="translate(589,0)"/>
<path d="M0,0 L103,0 L102,2 L96,3 L68,4 L37,8 L27,10 L15,12 L-3,16 L-32,24 L-56,31 L-71,37 L-90,44 L-115,55 L-124,59 L-136,66 L-146,71 L-156,77 L-163,81 L-173,87 L-191,99 L-207,110 L-216,117 L-226,124 L-236,132 L-249,144 L-264,157 L-272,166 L-280,173 L-291,183 L-298,191 L-298,195 L-279,206 L-262,215 L-252,220 L-251,221 L-246,221 L-238,209 L-231,200 L-222,190 L-220,189 L-127,189 L-42,190 L152,191 L203,191 L292,192 L293,197 L286,208 L277,227 L271,249 L267,264 L264,285 L262,409 L260,521 L258,523 L22,523 L10,530 L3,536 L-3,552 L-3,565 L0,576 L7,585 L12,590 L18,597 L17,604 L6,618 L-2,628 L-9,637 L-17,650 L-23,660 L-28,668 L-36,682 L-48,709 L-56,734 L-60,750 L-62,755 L-64,757 L-296,756 L-297,755 L-297,750 L-290,736 L-284,723 L-278,705 L-275,692 L-273,674 L-271,661 L-270,649 L-269,622 L-268,543 L-266,446 L-265,369 L-264,337 L-264,316 L-262,280 L-259,257 L-255,244 L-253,238 L-253,232 L-269,222 L-282,215 L-296,207 L-304,201 L-308,203 L-311,209 L-316,214 L-323,221 L-331,232 L-335,237 L-350,259 L-356,268 L-367,287 L-374,298 L-377,301 L-379,301 L-380,311 L-390,332 L-396,346 L-402,363 L-407,373 L-408,374 L-410,386 L-415,401 L-417,405 L-419,417 L-425,436 L-428,455 L-431,471 L-435,497 L-437,524 L-439,526 L-439,437 L-437,433 L-432,412 L-426,391 L-420,374 L-413,355 L-407,339 L-400,323 L-392,307 L-384,291 L-380,283 L-374,274 L-365,258 L-359,249 L-348,233 L-336,216 L-329,208 L-318,194 L-302,177 L-291,165 L-285,158 L-277,151 L-269,143 L-261,136 L-248,125 L-237,116 L-228,109 L-219,102 L-200,88 L-176,73 L-161,64 L-138,52 L-122,44 L-105,36 L-69,21 L-45,13 L-26,7 L-14,4 L-1,1 Z M173,234 L173,237 L175,237 L175,234 Z M-192,241 Z M-192,246 L-193,249 L-190,248 L-190,246 Z M-39,343 L-59,352 L-81,364 L-98,372 L-111,379 L-117,379 L-129,372 L-150,362 L-170,351 L-185,344 L-191,344 L-207,352 L-219,359 L-231,364 L-248,372 L-252,378 L-253,395 L-253,442 L-251,445 L-245,444 L-230,436 L-207,425 L-193,417 L-186,417 L-170,426 L-147,438 L-131,446 L-117,453 L-111,453 L-92,444 L-73,434 L-54,424 L-42,418 L-36,418 L-12,431 L4,439 L20,447 L32,453 L39,452 L57,442 L74,434 L90,426 L106,418 L107,417 L113,417 L129,426 L143,433 L162,443 L178,451 L184,454 L191,452 L207,444 L230,432 L246,424 L250,419 L252,375 L251,351 L246,350 L213,367 L197,375 L189,379 L183,380 L182,376 L173,374 L144,359 L124,348 L115,344 L106,346 L89,354 L73,362 L44,377 L40,379 L33,379 L25,374 L9,366 L-7,358 L-26,348 L-36,343 Z M50,360 L48,363 L48,369 L52,365 L51,360 Z " fill="#000000" transform="translate(439,0)"/>
<path d="M0,0 L183,0 L385,1 L395,5 L404,13 L409,25 L410,30 L410,38 L405,49 L398,57 L388,66 L383,74 L384,80 L388,86 L399,100 L410,116 L416,126 L427,144 L440,170 L449,194 L455,213 L458,224 L461,243 L461,287 L458,302 L452,327 L443,348 L436,360 L428,371 L421,380 L413,387 L406,393 L397,400 L381,408 L368,413 L355,416 L344,417 L244,416 L34,416 L14,414 L-2,410 L-23,400 L-33,392 L-42,385 L-55,371 L-66,354 L-76,332 L-82,311 L-85,289 L-86,276 L-86,253 L-84,237 L-80,221 L-78,211 L-73,194 L-68,181 L-64,171 L-59,161 L-52,147 L-48,139 L-44,134 L-39,125 L-35,120 L-31,113 L-23,103 L-16,93 L-7,83 L-2,74 L-2,68 L-11,58 L-20,47 L-23,40 L-24,37 L-24,27 L-22,18 L-15,9 L-8,3 Z M74,192 L57,201 L41,209 L16,221 L5,227 L-1,227 L-17,219 L-32,211 L-48,203 L-59,198 L-63,202 L-67,216 L-72,244 L-72,263 L-67,268 L-42,281 L-26,289 L-10,297 L0,302 L7,302 L30,290 L49,280 L64,273 L79,266 L99,277 L115,285 L140,297 L151,303 L158,303 L185,289 L204,280 L219,272 L229,267 L234,269 L250,277 L283,294 L299,302 L303,304 L308,303 L324,295 L340,287 L372,271 L377,268 L384,269 L404,280 L420,288 L439,297 L440,298 L445,298 L448,292 L449,284 L449,242 L447,231 L443,226 L420,214 L391,200 L385,196 L377,195 L361,203 L345,211 L324,222 L308,230 L301,229 L279,217 L263,209 L240,197 L232,193 L226,193 L217,199 L201,206 L185,214 L169,222 L155,229 L150,228 L117,211 L95,200 L80,192 Z " fill="#000000" transform="translate(466,527)"/>
<path d="M0,0 Z " fill="#000000" transform="translate(0,585)"/>
<path d="M0,0 L2,1 L4,24 L3,35 L3,39 L6,42 L11,67 L17,92 L22,109 L26,125 L32,144 L36,153 L38,160 L43,172 L49,187 L55,199 L63,215 L74,235 L81,245 L86,254 L95,268 L102,278 L108,287 L116,297 L120,303 L131,316 L135,322 L144,332 L158,346 L165,354 L174,363 L174,365 L178,367 L186,374 L199,385 L209,393 L217,399 L221,403 L222,410 L218,411 L207,403 L200,396 L191,391 L177,379 L167,369 L159,362 L147,350 L142,345 L136,338 L130,333 L121,321 L110,308 L103,299 L96,290 L88,278 L83,272 L73,258 L67,249 L58,233 L52,221 L44,207 L39,197 L35,187 L26,166 L19,147 L15,136 L11,122 L7,112 L4,98 L1,84 L0,83 Z " fill="#000000" transform="translate(0,594)"/>
</svg>
