<?xml version="1.0" encoding="UTF-8"?>
<!-- Generator: visioncortex VTracer 0.6.12 -->
<svg version="1.1" xmlns="http://www.w3.org/2000/svg" width="1128" height="1140">
<path d="M0,0 L116,0 L115,2 L4,2 Z " fill="#000000" transform="translate(0,0)"/>
<path d="M0,0 L3,0 L3,194 L1,191 L1,167 L0,115 L-1,6 Z " fill="#000000" transform="translate(1125,0)"/>
<path d="M0,0 L25,1 L41,4 L61,12 L77,21 L85,27 L92,32 L99,40 L106,48 L111,55 L111,61 L108,63 L27,64 L-45,63 L-91,63 L-95,59 L-94,53 L-85,41 L-76,32 L-68,25 L-58,18 L-50,14 L-38,8 L-10,1 Z " fill="#000000" transform="translate(552,86)"/>
<path d="M0,0 L184,0 L206,1 L224,1 L229,4 L232,8 L234,16 L235,25 L234,49 L232,63 L224,83 L216,98 L205,111 L199,118 L186,128 L181,132 L154,145 L143,148 L118,151 L103,151 L84,148 L66,142 L49,134 L31,121 L26,116 L16,105 L7,92 L1,82 L-5,67 L-10,45 L-11,33 L-11,20 L-8,6 L-4,1 Z " fill="#000000" transform="translate(449,175)"/>
<path d="M0,0 L205,0 L304,1 L372,1 L422,2 L444,4 L460,8 L465,11 L466,12 L466,18 L462,26 L458,33 L452,44 L443,57 L433,76 L426,87 L419,97 L413,108 L404,123 L400,129 L393,139 L388,146 L384,148 L363,149 L210,149 L171,148 L119,148 L99,149 L58,148 L42,148 L34,141 L27,129 L17,114 L12,105 L-4,78 L-13,64 L-24,46 L-32,33 L-37,25 L-42,14 L-41,9 L-36,6 L-26,3 L-13,1 Z M98,30 L97,33 L100,33 L100,30 Z M114,31 L115,37 L118,40 L119,38 L119,32 Z M95,48 L94,51 L95,53 L98,52 L97,48 Z " fill="#000000" transform="translate(349,350)"/>
<path d="M0,0 L6,0 L13,9 L26,30 L37,47 L45,60 L52,71 L65,92 L74,106 L80,116 L82,121 L83,145 L83,174 L84,177 L84,291 L86,450 L86,548 L87,576 L87,644 L86,665 L84,672 L81,675 L66,675 L47,672 L34,667 L14,659 L2,652 L-7,646 L-11,642 L-21,634 L-30,623 L-38,613 L-44,603 L-48,598 L-57,576 L-62,556 L-63,554 L-65,521 L-65,501 L-66,479 L-66,448 L-67,312 L-68,229 L-68,117 L-66,96 L-62,80 L-57,65 L-45,44 L-34,30 L-25,20 L-20,16 L-16,11 L-6,4 Z " fill="#000000" transform="translate(273,375)"/>
<path d="M0,0 L6,2 L17,10 L26,17 L31,22 L40,32 L48,42 L56,55 L64,71 L69,88 L73,107 L74,133 L74,508 L73,542 L71,557 L65,581 L53,606 L49,611 L43,620 L32,632 L26,637 L21,642 L16,647 L3,656 L-13,664 L-26,669 L-45,674 L-54,675 L-72,675 L-76,671 L-77,667 L-78,256 L-78,129 L-76,120 L-69,108 L-60,94 L-56,86 L-41,61 L-27,39 L-18,25 L-14,18 L-7,7 L-2,1 Z M29,184 Z " fill="#000000" transform="translate(845,375)"/>
<path d="M0,0 L17,4 L31,11 L32,14 L37,16 L45,24 L51,34 L54,42 L55,48 L66,46 L69,35 L76,24 L83,16 L93,9 L105,3 L119,0 L136,0 L151,5 L162,12 L172,21 L180,31 L183,37 L187,53 L191,48 L199,48 L213,52 L225,57 L235,65 L240,69 L246,79 L250,87 L251,96 L245,97 L244,98 L250,100 L262,100 L272,97 L282,92 L292,82 L296,73 L298,63 L297,54 L295,46 L288,34 L281,28 L268,22 L265,21 L250,21 L238,25 L227,32 L219,45 L216,49 L209,48 L200,43 L199,40 L203,31 L210,22 L221,12 L235,5 L250,1 L261,1 L274,3 L295,13 L300,18 L307,27 L315,41 L318,52 L318,71 L313,86 L306,97 L295,108 L284,115 L266,120 L256,121 L245,120 L238,118 L227,112 L218,106 L210,99 L203,89 L198,80 L197,71 L197,68 L191,64 L187,60 L186,72 L180,88 L175,96 L163,108 L154,112 L151,112 L152,118 L157,128 L164,136 L175,143 L183,145 L186,146 L197,146 L209,142 L218,137 L225,130 L230,121 L232,119 L238,119 L247,121 L250,124 L248,132 L241,143 L232,152 L224,158 L210,165 L200,166 L184,166 L169,162 L153,153 L145,146 L136,133 L132,125 L130,107 L130,96 L135,81 L142,70 L153,59 L159,55 L163,57 L163,70 L166,69 L167,67 L167,54 L163,44 L157,34 L148,26 L138,21 L128,19 L121,20 L110,23 L100,28 L92,37 L86,48 L86,52 L99,60 L110,71 L117,84 L120,90 L119,96 L119,98 L124,100 L127,109 L127,116 L125,118 L118,118 L119,125 L113,137 L104,149 L93,157 L84,162 L71,166 L53,166 L42,164 L28,157 L17,149 L8,137 L3,128 L1,119 L0,104 L2,93 L3,85 L10,73 L19,62 L27,56 L36,54 L34,46 L29,36 L26,33 L26,31 L22,29 L14,24 L5,21 L-9,21 L-20,23 L-30,29 L-37,37 L-42,47 L-44,56 L-44,64 L-41,77 L-35,86 L-28,93 L-19,98 L-6,100 L-3,103 L-2,116 L-4,120 L-8,121 L-19,119 L-31,114 L-43,107 L-52,98 L-60,86 L-65,70 L-66,66 L-66,53 L-63,41 L-56,28 L-48,18 L-38,10 L-26,4 L-14,1 Z M59,63 L57,64 L53,82 L48,89 L43,98 L32,107 L32,109 L26,111 L21,115 L23,124 L27,132 L36,140 L48,146 L51,147 L67,147 L77,144 L87,137 L92,133 L96,128 L101,117 L104,114 L95,108 L86,103 L77,95 L70,83 L67,77 L67,70 L72,70 L75,72 L78,72 L76,68 L73,66 Z M212,73 L212,75 L214,74 Z M161,76 L160,79 L162,79 L163,76 Z M237,93 L237,95 L242,96 L240,93 Z " fill="#000000" transform="translate(435,552)"/>
<path d="M0,0 L194,0 L200,3 L202,8 L203,31 L203,200 L200,207 L198,208 L177,209 L27,209 L-17,208 L-151,208 L-156,203 L-157,200 L-157,6 L-153,2 L-128,1 L-98,1 Z " fill="#000000" transform="translate(541,843)"/>
<path d="M0,0 L2,3 L0,5 Z " fill="#000000" transform="translate(0,1028)"/>
<path d="M0,0 L2,2 L2,5 L0,5 Z " fill="#000000" transform="translate(0,1065)"/>
<path d="M0,0 L1,0 L1,5 L0,5 Z " fill="#000000" transform="translate(0,1079)"/>
<path d="M0,0 L1,0 L1,8 L0,8 Z " fill="#000000" transform="translate(0,1089)"/>
<path d="M0,0 L2,2 L3,19 L4,25 L57,26 L301,25 L338,25 L510,24 L640,24 L744,23 L811,23 L993,22 L1128,22 L1128,27 L1126,28 L1054,29 L907,29 L899,30 L891,29 L858,29 L852,31 L850,30 L695,30 L694,31 L682,31 L679,30 L672,30 L670,31 L0,31 Z " fill="#000000" transform="translate(0,1109)"/>
</svg>
