<?xml version="1.0" encoding="UTF-8"?>
<!-- Generator: visioncortex VTracer 0.6.12 -->
<svg version="1.1" xmlns="http://www.w3.org/2000/svg" width="867" height="1128">
<path d="M0,0 L9,0 L14,5 L22,16 L31,27 L37,36 L45,48 L52,57 L60,69 L64,74 L71,83 L79,93 L86,102 L94,113 L99,119 L100,122 L100,129 L96,137 L91,142 L90,143 L82,143 L64,133 L54,126 L51,125 L41,125 L34,131 L27,139 L24,143 L21,156 L15,166 L7,177 L2,185 L-1,190 L0,195 L4,199 L9,201 L21,200 L28,202 L30,206 L34,236 L34,257 L31,280 L27,296 L25,306 L23,318 L21,324 L19,335 L15,348 L13,353 L13,363 L18,368 L34,376 L43,380 L59,386 L76,392 L93,396 L107,408 L111,411 L111,413 L115,415 L124,424 L135,433 L139,437 L139,439 L144,441 L150,448 L159,455 L164,461 L172,468 L172,474 L166,482 L158,490 L151,491 L143,485 L132,477 L125,477 L114,484 L96,488 L84,497 L79,499 L70,500 L58,500 L48,495 L37,486 L36,485 L30,485 L29,486 L29,494 L34,512 L38,541 L41,554 L42,566 L48,588 L51,606 L53,616 L54,623 L58,647 L62,680 L66,706 L67,713 L68,731 L69,735 L72,766 L74,804 L77,826 L79,845 L81,870 L83,885 L84,888 L88,889 L91,886 L95,880 L106,868 L114,863 L125,858 L142,855 L153,854 L156,852 L157,849 L157,833 L153,811 L153,804 L151,797 L152,788 L152,777 L149,770 L141,765 L125,757 L114,749 L103,738 L99,731 L101,723 L106,718 L114,714 L119,712 L136,711 L160,718 L171,722 L186,731 L202,733 L214,738 L223,743 L233,749 L238,753 L238,755 L242,757 L252,764 L265,775 L271,780 L277,787 L282,789 L291,789 L306,781 L322,773 L332,768 L342,766 L356,757 L365,751 L382,738 L390,732 L403,720 L413,713 L425,711 L430,709 L439,709 L445,706 L457,696 L459,696 L461,692 L466,687 L487,676 L498,672 L513,672 L519,675 L522,678 L523,682 L523,689 L511,716 L504,723 L492,732 L486,736 L482,743 L480,750 L480,757 L483,775 L485,788 L487,800 L490,801 L490,803 L493,804 L499,813 L508,824 L515,831 L523,845 L525,849 L527,858 L534,873 L549,917 L550,929 L547,936 L540,942 L531,948 L520,954 L518,957 L518,970 L516,975 L515,976 L515,981 L523,988 L535,990 L548,991 L555,995 L562,1005 L570,1011 L569,1016 L562,1028 L557,1030 L556,1029 L556,1021 L552,1019 L533,1019 L529,1020 L527,1027 L522,1029 L508,1028 L493,1032 L465,1033 L457,1031 L455,1028 L456,1021 L453,1018 L447,1016 L442,1017 L442,1027 L441,1028 L434,1028 L429,1023 L420,1013 L416,1006 L416,999 L420,993 L427,989 L439,988 L450,983 L451,978 L443,972 L432,972 L392,974 L386,978 L376,993 L372,998 L364,1005 L352,1016 L344,1023 L335,1026 L319,1030 L313,1032 L294,1032 L276,1027 L268,1023 L252,1008 L245,1002 L243,996 L239,994 L233,987 L226,984 L216,984 L209,983 L196,983 L168,980 L154,977 L136,972 L121,966 L110,959 L103,953 L97,945 L95,942 L90,942 L89,943 L87,958 L87,999 L85,1008 L82,1011 L79,1012 L43,1013 L38,1014 L8,1014 L-24,1013 L-32,1010 L-34,1005 L-35,994 L-35,981 L-36,964 L-35,943 L-36,928 L-37,921 L-38,889 L-37,884 L-38,867 L-38,852 L-40,822 L-45,779 L-47,768 L-48,750 L-50,738 L-52,709 L-54,705 L-58,704 L-62,708 L-66,717 L-71,733 L-73,747 L-76,766 L-81,785 L-87,812 L-89,824 L-91,832 L-93,842 L-96,858 L-100,874 L-103,887 L-106,898 L-109,912 L-115,937 L-117,948 L-121,966 L-125,975 L-128,978 L-136,979 L-146,979 L-152,980 L-236,981 L-240,979 L-241,977 L-240,965 L-236,942 L-229,916 L-227,905 L-225,900 L-219,868 L-215,854 L-212,838 L-209,829 L-206,814 L-202,799 L-197,774 L-193,760 L-189,743 L-186,729 L-183,714 L-180,707 L-177,690 L-171,665 L-166,642 L-164,631 L-160,617 L-156,602 L-154,591 L-154,585 L-156,578 L-158,578 L-158,576 L-163,574 L-179,570 L-193,568 L-204,565 L-209,561 L-209,555 L-206,545 L-202,531 L-195,506 L-193,497 L-189,487 L-184,463 L-180,446 L-175,435 L-171,419 L-168,405 L-168,393 L-171,388 L-180,381 L-191,373 L-195,368 L-197,363 L-197,353 L-194,334 L-188,314 L-179,294 L-174,278 L-170,266 L-163,250 L-159,240 L-156,231 L-151,219 L-144,208 L-139,190 L-135,182 L-132,175 L-129,165 L-124,154 L-119,138 L-115,129 L-112,122 L-102,97 L-99,89 L-95,78 L-88,68 L-78,64 L-72,54 L-62,44 L-55,36 L-50,31 L-41,24 L-28,15 L-20,10 L-9,3 Z M-48,62 L-56,68 L-57,71 L-59,71 L-61,75 L-61,84 L-57,90 L-40,101 L-31,109 L-17,117 L-8,124 L1,128 L7,127 L18,120 L19,117 L22,116 L24,113 L24,107 L20,101 L13,95 L6,91 L-9,81 L-21,71 L-31,65 L-39,62 Z M75,403 L70,406 L64,415 L60,422 L55,438 L51,446 L44,456 L42,465 L46,474 L53,480 L64,487 L67,488 L75,488 L81,484 L90,475 L93,472 L97,470 L108,468 L112,465 L113,461 L113,454 L108,445 L100,436 L92,426 L87,411 L81,404 Z M333,778 L324,784 L319,788 L308,794 L300,800 L293,804 L283,811 L276,821 L276,829 L279,832 L288,832 L303,828 L311,825 L324,825 L330,827 L339,827 L354,821 L357,816 L357,807 L346,787 L342,780 L339,778 Z M368,781 L364,783 L363,785 L364,795 L373,811 L378,818 L392,822 L418,823 L434,829 L445,838 L460,854 L466,866 L468,866 L470,870 L472,873 L474,873 L476,877 L475,882 L472,883 L464,883 L448,877 L437,870 L437,864 L440,855 L437,849 L431,845 L424,843 L393,840 L373,840 L366,837 L363,835 L355,835 L343,840 L336,839 L334,837 L330,838 L326,842 L314,845 L303,843 L300,842 L273,842 L264,839 L260,834 L256,827 L251,825 L236,826 L224,829 L212,833 L204,837 L193,846 L180,858 L176,867 L172,878 L169,888 L165,894 L160,898 L153,897 L150,892 L151,883 L155,876 L154,872 L152,870 L147,869 L136,869 L120,877 L115,881 L109,891 L105,902 L104,916 L110,932 L120,945 L128,951 L145,959 L160,961 L167,963 L190,964 L211,964 L216,961 L222,952 L230,935 L238,919 L245,908 L250,902 L263,894 L278,887 L292,883 L296,882 L315,882 L334,886 L353,897 L357,899 L359,903 L368,913 L374,923 L378,933 L382,946 L389,953 L391,954 L402,954 L406,953 L436,951 L451,948 L467,945 L475,941 L489,938 L507,931 L520,926 L527,920 L529,915 L529,898 L524,885 L519,873 L515,861 L507,850 L501,842 L498,836 L493,827 L481,815 L469,806 L466,803 L454,796 L438,791 L424,788 L410,786 L400,783 L385,781 Z " fill="#000000" transform="translate(271,29)"/>
<path d="M0,0 L4,1 L3,9 L-2,21 L-5,38 L-5,54 L-2,69 L-1,71 L1,84 L8,107 L11,120 L12,129 L12,155 L8,164 L-1,175 L-9,182 L-12,185 L-17,185 L-18,180 L-9,169 L-3,154 L1,133 L1,121 L-2,109 L-5,99 L-7,92 L-10,84 L-14,67 L-15,60 L-15,35 L-12,23 L-3,2 Z " fill="#000000" transform="translate(479,330)"/>
</svg>
