<?xml version="1.0" encoding="UTF-8"?>
<!-- Generator: visioncortex VTracer 0.6.12 -->
<svg version="1.1" xmlns="http://www.w3.org/2000/svg" width="1110" height="1305">
<path d="M0,0 L16,1 L28,1 L44,3 L60,6 L79,11 L88,16 L90,20 L90,26 L83,41 L79,51 L74,64 L71,76 L68,92 L66,104 L64,133 L62,149 L62,188 L61,197 L61,215 L62,245 L64,265 L65,290 L66,306 L68,336 L73,339 L78,341 L81,345 L82,350 L82,357 L79,366 L75,367 L68,366 L65,397 L64,426 L63,431 L61,468 L58,506 L56,516 L55,528 L53,541 L51,558 L49,577 L47,592 L45,612 L42,646 L38,673 L34,720 L33,726 L32,749 L30,778 L29,784 L28,816 L26,830 L25,843 L24,846 L23,858 L23,871 L21,892 L20,896 L19,921 L19,939 L21,951 L21,958 L18,964 L17,977 L13,983 L10,986 L11,990 L15,993 L16,999 L14,1035 L11,1042 L5,1046 L-3,1046 L-10,1040 L-15,1030 L-19,1017 L-19,1006 L-20,983 L-19,966 L-19,927 L-21,888 L-23,838 L-27,805 L-30,773 L-36,738 L-40,695 L-43,677 L-45,651 L-48,639 L-51,608 L-53,600 L-55,585 L-56,583 L-58,565 L-62,547 L-63,523 L-65,512 L-66,496 L-68,484 L-71,455 L-72,424 L-75,374 L-77,371 L-85,367 L-87,362 L-87,351 L-85,345 L-78,341 L-76,341 L-74,325 L-74,295 L-72,267 L-71,184 L-72,168 L-72,157 L-73,145 L-77,124 L-81,107 L-84,97 L-88,81 L-98,57 L-102,47 L-109,32 L-108,25 L-100,19 L-85,11 L-76,8 L-64,5 L-53,4 L-51,3 Z M42,41 L28,44 L15,45 L-8,46 L-53,47 L-65,46 L-68,48 L-68,55 L-57,76 L-51,94 L-45,117 L-42,133 L-41,149 L-39,155 L-36,194 L-36,217 L-38,228 L-40,268 L-41,273 L-42,292 L-43,298 L-44,329 L-42,339 L-37,342 L12,344 L33,343 L37,339 L37,303 L35,265 L33,227 L32,208 L32,143 L35,115 L42,83 L47,60 L50,49 L49,43 L46,41 Z M-29,369 L-39,370 L-43,374 L-45,384 L-44,426 L-43,430 L-40,478 L-37,504 L-36,507 L-34,534 L-32,546 L-30,562 L-27,585 L-25,605 L-22,622 L-21,628 L-20,644 L-18,655 L-16,678 L-14,703 L-9,725 L-8,739 L-6,749 L-5,762 L-3,766 L1,766 L4,755 L8,708 L11,669 L11,658 L13,651 L15,630 L21,566 L23,551 L25,537 L28,520 L29,496 L30,491 L32,468 L34,452 L36,431 L37,422 L37,379 L34,373 L28,371 L4,370 L-12,370 Z " fill="#000000" transform="translate(590,37)"/>
<path d="M0,0 L41,1 L196,1 L277,2 L432,3 L872,3 L976,4 L1069,4 L1069,58 L1064,59 L1037,59 L1030,60 L1006,59 L831,59 L816,58 L780,59 L748,59 L743,60 L738,59 L717,59 L709,58 L703,59 L591,59 L418,58 L257,58 L205,57 L132,57 L93,56 L51,56 L6,55 L-1,54 L-3,51 L-3,45 L-5,42 L-5,33 L-3,4 Z " fill="#000000" transform="translate(41,1173)"/>
</svg>
