<?xml version="1.0" encoding="UTF-8"?>
<!-- Generator: visioncortex VTracer 0.6.12 -->
<svg version="1.1" xmlns="http://www.w3.org/2000/svg" width="498" height="522">
<path d="M0,0 L9,0 L25,3 L34,7 L46,14 L57,25 L65,36 L69,46 L73,61 L73,78 L69,93 L63,105 L60,108 L58,108 L56,113 L49,120 L39,126 L26,130 L18,133 L3,133 L-12,130 L-25,125 L-36,118 L-46,108 L-52,99 L-57,88 L-61,73 L-61,59 L-60,48 L-54,34 L-49,27 L-46,22 L-38,15 L-26,7 Z " fill="#000000" transform="translate(241,31)"/>
<path d="M0,0 L42,0 L66,1 L91,1 L141,2 L159,5 L176,11 L184,18 L192,29 L195,36 L201,60 L204,68 L208,85 L212,101 L218,124 L225,150 L230,171 L235,176 L246,183 L251,185 L264,187 L275,191 L284,198 L290,203 L294,217 L295,234 L290,248 L281,264 L269,280 L262,288 L257,293 L250,297 L240,303 L228,308 L222,309 L212,309 L206,306 L195,298 L191,290 L188,271 L187,258 L189,252 L191,237 L194,228 L197,219 L203,212 L207,206 L209,206 L210,203 L212,203 L214,199 L216,194 L215,188 L205,182 L191,168 L184,158 L182,154 L183,145 L187,136 L191,127 L190,123 L176,123 L170,119 L165,110 L159,95 L155,82 L155,80 L146,79 L144,82 L145,94 L150,117 L150,122 L147,124 L141,125 L32,125 L6,124 L-6,122 L-8,120 L-7,110 L0,88 L-1,83 L-4,81 L-12,80 L-16,82 L-20,98 L-23,107 L-26,117 L-29,120 L-37,123 L-38,128 L-31,140 L-29,144 L-29,152 L-37,162 L-42,165 L-49,174 L-52,177 L-54,177 L-55,180 L-66,189 L-72,195 L-72,201 L-67,210 L-61,222 L-57,236 L-52,255 L-51,270 L-55,290 L-63,298 L-75,304 L-79,305 L-90,305 L-105,300 L-118,289 L-125,282 L-133,270 L-140,261 L-145,253 L-147,221 L-147,192 L-143,181 L-135,173 L-128,170 L-123,169 L-109,170 L-105,171 L-95,171 L-87,166 L-82,153 L-76,132 L-72,116 L-70,111 L-68,103 L-63,87 L-58,73 L-54,58 L-50,45 L-48,36 L-43,23 L-36,14 L-27,7 L-17,3 Z M-118,187 L-127,189 L-134,197 L-139,209 L-139,230 L-135,246 L-131,255 L-125,262 L-120,266 L-114,275 L-106,282 L-89,290 L-79,290 L-71,286 L-64,272 L-63,267 L-63,259 L-70,231 L-78,215 L-85,204 L-92,198 L-103,192 L-107,189 L-114,187 Z M246,194 L234,199 L228,203 L219,211 L211,222 L207,229 L205,240 L202,248 L201,256 L201,269 L204,285 L216,294 L227,294 L239,291 L248,286 L259,277 L272,259 L281,243 L284,231 L284,215 L277,201 L272,197 L266,194 Z " fill="#000000" transform="translate(176,185)"/>
<path d="M0,0 L5,0 L8,2 L8,4 L10,4 L20,18 L31,30 L37,35 L44,43 L49,47 L56,55 L65,66 L65,68 L67,68 L69,71 L69,76 L64,80 L48,88 L38,92 L24,100 L7,107 L-9,115 L-15,115 L-17,112 L-17,96 L-19,86 L-24,71 L-31,56 L-38,42 L-37,36 L-28,27 L-23,22 L-14,13 L-9,8 L-2,1 Z " fill="#000000" transform="translate(162,348)"/>
<path d="M0,0 L7,0 L22,16 L27,21 L32,26 L31,32 L23,45 L18,55 L16,60 L12,80 L12,99 L14,114 L13,116 L7,116 L-9,107 L-19,102 L-34,94 L-42,89 L-58,81 L-64,77 L-65,73 L-58,65 L-50,56 L-43,48 L-28,33 L-21,24 L-19,24 L-19,22 L-11,15 Z " fill="#000000" transform="translate(335,355)"/>
</svg>
