<?xml version="1.0" encoding="UTF-8"?>
<!-- Generator: visioncortex VTracer 0.6.12 -->
<svg version="1.1" xmlns="http://www.w3.org/2000/svg" width="1107" height="1098">
<path d="M0,0 L83,0 L82,2 L49,4 L31,6 L10,10 L-4,12 L-19,16 L-33,19 L-42,22 L-58,26 L-74,32 L-81,34 L-91,38 L-103,43 L-115,48 L-139,59 L-151,66 L-159,70 L-169,76 L-180,82 L-193,91 L-207,101 L-217,108 L-223,112 L-231,119 L-236,121 L-236,123 L-247,132 L-254,137 L-258,141 L-263,146 L-275,156 L-281,163 L-287,168 L-294,176 L-304,186 L-313,197 L-324,209 L-336,225 L-344,237 L-351,247 L-359,261 L-362,265 L-368,276 L-371,280 L-377,291 L-385,307 L-398,335 L-409,363 L-418,390 L-424,412 L-427,425 L-431,441 L-435,465 L-438,492 L-440,519 L-440,578 L-439,607 L-436,624 L-434,640 L-432,647 L-429,664 L-424,686 L-417,708 L-415,716 L-409,734 L-403,751 L-396,766 L-383,795 L-376,808 L-369,821 L-362,831 L-356,842 L-348,853 L-337,871 L-330,878 L-321,891 L-310,903 L-299,915 L-293,923 L-288,927 L-281,935 L-272,944 L-267,949 L-259,957 L-249,965 L-238,975 L-227,984 L-214,994 L-204,1001 L-190,1010 L-180,1016 L-162,1026 L-155,1031 L-139,1039 L-128,1044 L-105,1055 L-92,1060 L-62,1071 L-49,1076 L-37,1079 L-25,1082 L-16,1084 L-5,1087 L3,1089 L25,1092 L38,1095 L48,1097 L48,1098 L-10,1098 L-19,1095 L-39,1090 L-50,1086 L-68,1081 L-81,1076 L-92,1072 L-112,1064 L-121,1060 L-126,1057 L-135,1054 L-148,1047 L-160,1041 L-168,1036 L-191,1023 L-203,1015 L-213,1008 L-229,997 L-241,988 L-247,981 L-256,975 L-267,965 L-275,958 L-283,951 L-290,943 L-297,936 L-303,929 L-307,925 L-312,920 L-323,908 L-329,900 L-336,892 L-345,881 L-353,869 L-362,857 L-370,843 L-375,835 L-379,827 L-383,822 L-394,803 L-399,791 L-405,779 L-415,755 L-422,738 L-430,713 L-433,701 L-436,692 L-438,687 L-442,668 L-442,664 L-444,664 L-444,434 L-442,428 L-440,419 L-436,404 L-434,396 L-428,380 L-425,368 L-419,351 L-409,327 L-401,311 L-395,298 L-381,272 L-377,267 L-372,258 L-366,248 L-359,238 L-350,225 L-342,214 L-334,204 L-331,203 L-329,198 L-322,189 L-315,183 L-307,172 L-298,163 L-291,155 L-283,148 L-264,129 L-254,121 L-243,112 L-232,103 L-222,97 L-217,92 L-205,84 L-200,82 L-195,78 L-189,74 L-168,62 L-163,59 L-140,47 L-130,42 L-114,35 L-106,32 L-81,22 L-70,19 L-63,16 L-48,12 L-38,10 L-30,7 L-19,5 L-8,2 L-1,1 Z " fill="#000000" transform="translate(444,0)"/>
<path d="M0,0 L74,0 L90,3 L94,5 L103,6 L110,9 L118,11 L133,15 L156,22 L165,26 L175,29 L193,37 L209,45 L220,49 L230,55 L246,63 L255,69 L269,78 L282,85 L289,91 L304,101 L315,110 L323,117 L329,121 L338,129 L343,134 L352,141 L387,176 L395,186 L404,197 L411,205 L415,210 L424,221 L428,228 L436,238 L440,244 L451,263 L457,272 L468,293 L478,311 L483,323 L487,333 L498,360 L506,385 L513,407 L519,432 L520,433 L520,501 L518,499 L517,488 L511,452 L504,419 L499,401 L490,373 L486,363 L484,359 L482,351 L473,331 L468,318 L461,304 L454,292 L451,286 L447,280 L440,266 L435,260 L426,245 L417,232 L411,223 L407,218 L402,213 L395,205 L385,192 L380,186 L374,181 L369,174 L361,167 L357,162 L349,155 L343,148 L337,144 L333,139 L322,130 L315,124 L311,120 L303,115 L287,103 L279,97 L266,89 L253,81 L232,69 L217,61 L194,50 L173,41 L163,37 L156,34 L140,29 L129,25 L120,23 L108,19 L95,16 L83,14 L78,12 L61,9 L44,6 L34,5 L32,4 L2,2 Z " fill="#000000" transform="translate(587,0)"/>
<path d="M0,0 L22,0 L36,3 L42,7 L54,13 L58,18 L66,25 L72,32 L81,51 L83,66 L83,84 L77,102 L68,116 L58,126 L50,132 L39,138 L38,145 L42,148 L49,151 L57,155 L67,159 L79,164 L85,167 L101,173 L117,181 L127,185 L131,190 L133,202 L135,221 L136,226 L138,247 L142,278 L144,297 L147,321 L149,336 L152,370 L154,382 L160,436 L161,457 L159,459 L153,460 L135,460 L120,459 L116,455 L112,438 L109,428 L103,403 L97,378 L94,366 L94,363 L90,363 L90,377 L91,401 L92,406 L94,442 L96,468 L98,482 L102,534 L105,572 L107,602 L111,654 L113,674 L116,710 L117,735 L118,740 L120,760 L120,771 L115,775 L69,775 L63,773 L59,765 L54,734 L51,718 L46,688 L38,640 L34,612 L29,586 L27,570 L24,550 L21,535 L18,515 L15,497 L11,480 L7,480 L0,526 L-8,580 L-12,601 L-17,640 L-19,655 L-22,672 L-25,679 L-25,696 L-29,721 L-30,725 L-32,743 L-36,768 L-38,772 L-46,774 L-90,773 L-94,770 L-95,760 L-94,735 L-92,716 L-90,682 L-87,638 L-84,604 L-82,566 L-81,561 L-79,518 L-77,500 L-75,465 L-71,414 L-69,374 L-68,358 L-73,358 L-75,367 L-78,376 L-80,387 L-84,401 L-90,423 L-98,453 L-102,458 L-140,458 L-143,455 L-143,442 L-140,424 L-138,407 L-136,390 L-134,381 L-133,368 L-130,348 L-128,336 L-126,317 L-124,299 L-120,276 L-117,251 L-113,222 L-110,201 L-108,192 L-105,186 L-100,182 L-87,177 L-75,172 L-48,161 L-29,153 L-11,146 L-9,143 L-10,139 L-21,133 L-32,125 L-45,113 L-53,99 L-58,87 L-59,82 L-59,61 L-55,45 L-51,36 L-45,26 L-40,21 L-30,12 L-22,7 L-13,4 Z M121,262 L122,264 L124,264 L124,262 Z M64,590 L64,594 L68,592 L67,590 Z M64,596 L64,598 L67,598 L67,596 Z " fill="#000000" transform="translate(259,130)"/>
<path d="M0,0 L45,0 L65,1 L94,2 L120,3 L128,7 L134,14 L138,23 L140,38 L140,62 L143,67 L144,68 L159,69 L164,74 L164,88 L165,92 L165,209 L164,242 L164,290 L163,331 L162,372 L158,377 L156,378 L75,378 L36,377 L-26,377 L-54,376 L-58,372 L-59,366 L-60,272 L-60,210 L-58,201 L-59,194 L-59,134 L-58,78 L-57,71 L-51,68 L-39,66 L-36,64 L-35,61 L-33,23 L-29,14 L-21,6 L-15,3 L-10,8 L-5,8 L-3,4 Z M111,24 L107,27 L36,26 L0,26 L-6,29 L-11,36 L-14,46 L-14,60 L-12,65 L-6,68 L3,69 L113,69 L118,64 L119,62 L119,44 L116,35 L117,26 L115,24 Z M133,264 L133,268 L136,267 L136,265 Z M137,271 L136,275 L140,276 L140,272 Z " fill="#000000" transform="translate(596,414)"/>
<path d="M0,0 L6,1 L10,5 L10,279 L9,303 L6,307 L-58,307 L-63,303 L-64,289 L-65,250 L-65,57 L-62,41 L-58,31 L-50,21 L-39,12 L-34,8 L-18,1 L-9,1 Z M-5,125 L-6,129 L-2,130 L-1,125 Z " fill="#000000" transform="translate(509,482)"/>
<path d="M0,0 L9,0 L20,2 L30,6 L42,12 L54,22 L63,34 L67,42 L69,47 L70,62 L70,186 L69,300 L66,307 L65,308 L40,308 L34,307 L25,309 L0,308 L-6,305 L-7,303 L-7,160 L-6,134 L-6,97 L-5,92 L-5,17 L-3,2 Z " fill="#000000" transform="translate(785,484)"/>
<path d="M0,0 L42,1 L50,4 L61,15 L65,21 L65,23 L67,23 L71,28 L71,30 L73,30 L83,43 L90,53 L95,58 L104,68 L110,76 L113,79 L113,81 L115,81 L127,97 L139,111 L147,122 L154,131 L157,137 L156,143 L152,149 L143,159 L139,166 L134,171 L124,184 L113,197 L105,208 L98,216 L94,223 L89,227 L81,238 L70,252 L61,263 L51,274 L49,275 L0,275 L-3,270 L0,265 L11,251 L19,241 L30,227 L38,217 L47,205 L57,192 L63,185 L70,175 L73,170 L71,165 L61,163 L17,162 L-35,161 L-41,159 L-42,158 L-43,138 L-42,117 L-39,114 L20,114 L58,115 L66,114 L68,112 L68,105 L61,94 L51,81 L39,64 L30,52 L21,41 L14,31 L4,16 L-2,8 L-3,2 Z M84,147 L82,148 L82,154 L86,156 L89,155 L89,150 Z M82,158 L79,161 L81,166 L84,170 L88,168 L88,162 L85,158 Z M72,196 L70,198 L70,203 L72,205 L77,205 L78,201 L76,197 Z M66,209 L64,213 L68,214 L70,211 Z " fill="#000000" transform="translate(915,509)"/>
<path d="M0,0 L1,0 L1,69 L-1,69 L-3,82 L-10,110 L-14,120 L-16,128 L-27,156 L-31,165 L-36,178 L-41,188 L-49,204 L-57,218 L-61,225 L-65,233 L-70,239 L-77,251 L-83,260 L-94,276 L-100,283 L-106,292 L-111,297 L-120,309 L-126,314 L-130,320 L-135,325 L-162,352 L-167,357 L-178,367 L-183,372 L-191,379 L-205,390 L-214,396 L-219,399 L-226,400 L-229,405 L-233,410 L-243,416 L-258,425 L-268,431 L-285,440 L-304,450 L-321,458 L-333,463 L-345,467 L-348,469 L-358,472 L-369,476 L-382,480 L-391,482 L-406,487 L-425,491 L-430,491 L-430,493 L-483,493 L-483,491 L-472,489 L-459,487 L-446,486 L-428,481 L-419,479 L-406,476 L-387,470 L-377,468 L-372,465 L-355,460 L-343,455 L-328,448 L-303,437 L-280,425 L-267,417 L-256,411 L-246,405 L-235,398 L-225,390 L-215,383 L-203,374 L-198,369 L-193,365 L-189,361 L-178,352 L-166,341 L-151,326 L-142,315 L-134,308 L-125,297 L-117,287 L-113,281 L-105,272 L-93,254 L-85,243 L-76,227 L-67,211 L-60,200 L-56,191 L-50,179 L-46,169 L-41,159 L-36,146 L-26,119 L-17,88 L-11,66 L-10,56 L-8,50 L-5,35 L-1,1 Z " fill="#000000" transform="translate(1106,605)"/>
</svg>
