<?xml version="1.0" encoding="UTF-8"?>
<!-- Generator: visioncortex VTracer 0.6.12 -->
<svg version="1.1" xmlns="http://www.w3.org/2000/svg" width="1140" height="1131">
<path d="M0,0 L979,0 L979,10 L972,4 L959,3 L909,3 L732,4 L726,5 L654,6 L628,5 L617,6 L599,6 L582,7 L498,8 L472,9 L450,9 L401,10 L391,9 L367,9 L307,10 L216,11 L197,12 L187,11 L148,11 L138,12 L100,12 L9,13 L-40,14 L-51,15 L-63,15 L-78,14 L-154,16 L-158,19 L-161,19 L-161,5 L-155,3 L-130,2 L-31,2 L-1,1 Z " fill="#000000" transform="translate(161,0)"/>
<path d="M0,0 L17,0 L30,2 L46,7 L65,17 L75,25 L84,33 L93,45 L102,59 L105,62 L111,64 L129,65 L143,65 L156,64 L268,64 L274,65 L278,63 L332,62 L348,63 L354,62 L439,62 L447,68 L455,75 L460,80 L462,84 L466,86 L471,92 L472,97 L465,103 L448,113 L434,121 L428,120 L416,109 L410,104 L401,103 L396,106 L391,111 L385,118 L383,119 L377,119 L366,108 L361,104 L361,102 L357,101 L349,101 L341,108 L329,119 L323,120 L315,113 L305,104 L303,103 L294,104 L288,108 L281,116 L270,124 L264,125 L211,126 L187,126 L177,127 L163,127 L148,128 L143,131 L139,139 L137,141 L126,141 L122,142 L109,143 L103,148 L95,162 L89,170 L82,178 L74,185 L66,191 L49,200 L33,206 L17,209 L4,209 L-11,208 L-27,204 L-38,200 L-49,194 L-59,187 L-72,175 L-80,165 L-86,156 L-91,146 L-95,135 L-97,128 L-99,112 L-99,102 L-97,81 L-94,73 L-89,60 L-82,47 L-74,37 L-69,31 L-61,24 L-49,15 L-35,8 L-25,4 L-13,1 Z M-38,82 L-48,88 L-53,94 L-55,98 L-55,111 L-51,119 L-46,124 L-39,127 L-26,127 L-18,123 L-13,119 L-9,112 L-8,110 L-8,102 L-11,94 L-18,86 L-24,83 L-29,82 Z " fill="#000000" transform="translate(346,125)"/>
<path d="M0,0 L46,0 L59,2 L68,8 L74,15 L81,29 L82,33 L83,80 L84,102 L86,107 L89,109 L132,110 L181,109 L197,109 L202,107 L213,109 L253,108 L280,110 L303,116 L320,125 L330,131 L344,142 L354,153 L360,162 L366,170 L371,179 L377,193 L382,209 L384,219 L385,231 L386,347 L386,450 L387,456 L387,556 L382,581 L376,597 L367,612 L359,623 L352,631 L347,636 L339,643 L324,653 L314,658 L299,664 L276,669 L262,670 L170,670 L111,671 L72,672 L28,672 L-14,673 L-76,673 L-115,674 L-198,675 L-254,675 L-292,676 L-317,676 L-323,675 L-333,675 L-349,673 L-360,669 L-368,667 L-385,658 L-390,654 L-399,649 L-406,642 L-414,635 L-423,624 L-430,613 L-434,605 L-440,589 L-443,579 L-445,561 L-446,499 L-446,436 L-447,312 L-447,231 L-446,220 L-440,200 L-436,189 L-426,172 L-413,155 L-405,148 L-398,142 L-387,134 L-378,128 L-364,123 L-355,120 L-339,116 L-331,115 L-285,114 L-264,113 L-211,113 L-152,112 L-148,110 L-146,105 L-146,45 L-143,28 L-137,17 L-131,10 L-123,5 L-109,2 L-57,1 Z M-28,35 L-48,36 L-62,36 L-70,37 L-90,37 L-101,42 L-104,45 L-109,56 L-110,62 L-110,82 L-109,99 L-107,109 L-103,112 L-6,112 L8,111 L41,110 L45,104 L46,100 L46,59 L42,46 L34,38 L20,35 Z M-1,417 L-4,419 L-3,422 L1,421 L0,417 Z M337,487 L336,490 L340,491 L339,487 Z " fill="#000000" transform="translate(605,319)"/>
<path d="M0,0 Z " fill="#000000" transform="translate(0,990)"/>
<path d="M0,0 L2,2 L1,8 L0,8 Z " fill="#000000" transform="translate(0,1075)"/>
<path d="M0,0 L2,1 L3,13 L5,20 L0,20 Z " fill="#000000" transform="translate(0,1111)"/>
<path d="M0,0 L2,0 L2,14 L-651,14 L-649,11 L-642,10 L-579,10 L-538,9 L-491,9 L-467,8 L-407,8 L-332,7 L-275,7 L-232,6 L-197,6 L-171,5 L-130,6 L-117,5 L-73,5 L-6,4 L-1,1 Z " fill="#000000" transform="translate(1138,1117)"/>
<path d="M0,0 L5,1 L5,2 L-1,2 Z " fill="#000000" transform="translate(150,1129)"/>
<path d="M0,0 L13,0 L14,2 L-2,2 Z " fill="#000000" transform="translate(181,1129)"/>
<path d="M0,0 L65,0 L66,2 L-1,2 Z " fill="#000000" transform="translate(201,1129)"/>
<path d="M0,0 L5,0 L6,2 L-1,2 Z " fill="#000000" transform="translate(272,1129)"/>
<path d="M0,0 L91,0 L99,1 L100,3 L-46,3 L-45,1 Z " fill="#000000" transform="translate(350,1128)"/>
<path d="M0,0 L6,0 L7,2 L0,2 Z " fill="#000000" transform="translate(456,1129)"/>
<path d="M0,0 L6,0 L6,1 L0,1 Z " fill="#000000" transform="translate(290,1130)"/>
</svg>
