<?xml version="1.0" encoding="UTF-8"?>
<!-- Generator: visioncortex VTracer 0.6.12 -->
<svg version="1.1" xmlns="http://www.w3.org/2000/svg" width="1107" height="954">
<path d="M0,0 L249,0 L258,3 L274,7 L302,13 L326,21 L341,26 L368,37 L381,42 L401,51 L416,58 L440,72 L459,82 L473,92 L484,99 L498,109 L498,111 L503,113 L510,119 L525,130 L539,141 L551,152 L555,157 L563,164 L571,173 L578,181 L586,191 L594,201 L598,207 L608,220 L612,226 L621,240 L631,256 L641,273 L650,292 L654,301 L661,317 L669,339 L672,349 L679,370 L682,379 L682,579 L680,584 L677,596 L674,606 L668,622 L663,637 L657,652 L651,662 L643,678 L636,692 L628,704 L624,712 L617,722 L611,731 L602,742 L594,753 L589,759 L580,770 L575,775 L563,788 L556,796 L548,803 L544,808 L536,815 L529,821 L519,828 L512,834 L501,843 L493,849 L480,858 L474,862 L463,870 L452,876 L441,884 L429,890 L418,896 L404,903 L398,906 L386,912 L374,917 L359,923 L348,927 L335,932 L315,938 L302,942 L288,945 L283,947 L267,950 L263,952 L255,952 L255,954 L142,954 L143,952 L151,951 L158,951 L168,950 L179,950 L194,949 L218,945 L228,944 L238,942 L254,939 L273,934 L299,927 L314,922 L323,920 L326,918 L339,914 L351,910 L359,906 L366,904 L374,900 L398,889 L410,884 L420,878 L431,872 L444,864 L451,860 L462,853 L476,844 L485,837 L491,833 L498,827 L504,823 L517,812 L525,805 L535,797 L552,780 L560,770 L569,760 L578,751 L584,742 L592,732 L598,724 L610,705 L615,698 L621,687 L633,666 L637,656 L643,645 L649,629 L654,619 L662,595 L666,581 L670,564 L674,543 L677,519 L678,502 L678,448 L675,420 L671,402 L666,381 L664,371 L657,350 L653,339 L647,321 L642,309 L636,296 L628,279 L621,266 L616,259 L610,248 L597,229 L588,217 L577,203 L566,191 L554,177 L544,167 L536,160 L523,147 L509,136 L501,130 L485,117 L477,111 L468,105 L460,99 L449,93 L430,81 L414,73 L407,69 L393,63 L382,59 L371,54 L355,47 L333,39 L328,36 L316,33 L301,29 L289,26 L281,23 L249,16 L233,13 L220,12 L205,9 L192,8 L189,7 L170,6 L151,4 L116,4 L87,6 L64,7 L49,9 L20,13 L7,16 L4,17 L-18,19 L-50,27 L-66,33 L-79,37 L-99,45 L-118,52 L-130,57 L-147,66 L-161,73 L-169,78 L-186,87 L-203,98 L-217,107 L-226,114 L-236,121 L-245,129 L-253,136 L-262,143 L-275,154 L-290,169 L-295,174 L-305,184 L-314,195 L-321,202 L-328,211 L-336,221 L-346,235 L-354,246 L-362,260 L-372,278 L-383,301 L-387,310 L-391,317 L-398,337 L-403,351 L-408,371 L-412,384 L-415,397 L-418,416 L-420,445 L-421,451 L-421,516 L-416,552 L-409,586 L-402,606 L-393,633 L-379,664 L-368,684 L-360,696 L-351,712 L-343,723 L-331,739 L-319,753 L-310,765 L-303,771 L-297,779 L-290,786 L-285,791 L-279,796 L-272,804 L-258,817 L-246,826 L-237,834 L-224,843 L-205,856 L-193,864 L-174,875 L-164,881 L-144,891 L-129,899 L-109,907 L-99,912 L-86,916 L-70,923 L-60,927 L-55,929 L-43,931 L-34,935 L-22,937 L-9,939 L12,942 L20,944 L38,946 L59,948 L68,949 L82,951 L137,952 L139,954 L-4,954 L-10,952 L-26,949 L-37,948 L-52,943 L-68,939 L-84,933 L-100,925 L-112,920 L-132,912 L-151,904 L-172,892 L-180,888 L-189,882 L-203,874 L-211,868 L-218,864 L-226,858 L-240,848 L-252,838 L-263,829 L-273,820 L-282,813 L-294,801 L-294,799 L-299,797 L-308,787 L-318,774 L-328,764 L-334,756 L-340,747 L-347,741 L-351,735 L-357,727 L-364,715 L-370,706 L-380,689 L-389,673 L-397,655 L-401,648 L-406,634 L-414,610 L-419,596 L-422,587 L-424,577 L-425,576 L-425,379 L-422,372 L-415,347 L-406,321 L-395,297 L-388,281 L-382,271 L-375,257 L-369,247 L-366,242 L-353,223 L-348,217 L-340,206 L-329,193 L-318,179 L-306,167 L-300,159 L-292,152 L-281,141 L-272,134 L-260,123 L-252,116 L-241,108 L-228,98 L-218,91 L-208,85 L-197,79 L-181,69 L-154,55 L-138,47 L-114,36 L-105,33 L-84,25 L-73,21 L-64,18 L-46,13 L-34,9 L-10,4 Z " fill="#000000" transform="translate(425,0)"/>
<path d="M0,0 L21,0 L33,3 L44,9 L52,17 L57,22 L62,32 L66,45 L66,62 L61,77 L55,86 L46,97 L40,101 L38,110 L40,115 L44,118 L100,119 L108,123 L112,131 L116,140 L119,152 L125,170 L135,200 L142,221 L150,245 L157,267 L166,297 L174,321 L178,332 L184,354 L187,364 L186,372 L183,374 L160,377 L140,376 L133,373 L128,368 L121,348 L118,340 L112,318 L105,298 L103,293 L100,281 L89,248 L84,233 L83,230 L77,230 L74,241 L72,246 L66,272 L67,286 L71,297 L74,307 L79,323 L87,347 L94,368 L96,376 L103,397 L107,411 L113,427 L119,445 L123,456 L128,474 L134,491 L142,515 L150,540 L156,559 L161,577 L161,582 L156,586 L107,588 L97,586 L91,581 L84,563 L71,525 L66,511 L56,483 L50,465 L46,455 L39,434 L31,414 L28,404 L24,395 L24,393 L18,395 L14,401 L10,415 L7,421 L-2,447 L-9,467 L-12,476 L-17,489 L-24,510 L-33,533 L-37,543 L-41,556 L-48,575 L-52,583 L-57,587 L-68,588 L-116,588 L-121,583 L-122,581 L-121,572 L-115,551 L-107,524 L-103,514 L-95,487 L-93,482 L-91,473 L-84,452 L-79,433 L-75,422 L-71,408 L-63,383 L-59,370 L-56,358 L-47,330 L-39,304 L-37,296 L-32,279 L-32,262 L-34,255 L-37,246 L-42,229 L-45,224 L-49,225 L-53,233 L-58,246 L-61,258 L-65,269 L-68,279 L-73,294 L-78,311 L-90,347 L-94,356 L-99,361 L-144,361 L-148,357 L-149,352 L-144,333 L-135,306 L-133,297 L-129,286 L-121,264 L-116,246 L-106,216 L-100,196 L-95,181 L-90,164 L-78,129 L-75,124 L-70,121 L-63,120 L-40,120 L-18,119 L-13,116 L-12,114 L-12,103 L-19,95 L-26,88 L-35,75 L-38,67 L-39,61 L-39,44 L-36,33 L-31,23 L-22,12 L-13,6 Z " fill="#000000" transform="translate(245,149)"/>
<path d="M0,0 L50,0 L65,1 L73,6 L77,14 L79,29 L82,35 L84,36 L93,37 L107,37 L116,39 L120,43 L121,48 L121,79 L120,149 L120,165 L119,170 L119,214 L118,245 L117,259 L115,266 L111,269 L98,271 L72,270 L62,271 L55,270 L-2,270 L-11,271 L-15,270 L-42,269 L-56,268 L-60,266 L-63,257 L-63,198 L-62,149 L-62,124 L-61,58 L-58,42 L-55,38 L-52,37 L-26,36 L-20,33 L-17,26 L-16,14 L-12,5 L-4,1 Z M8,21 L3,24 L2,26 L2,33 L6,36 L18,37 L53,37 L59,34 L60,32 L60,26 L54,21 Z M-10,45 L-12,48 L-14,72 L-17,77 L-22,79 L-28,81 L-33,86 L-35,119 L-35,162 L-34,172 L-30,176 L-24,178 L-9,179 L2,179 L12,178 L17,173 L19,158 L20,118 L20,92 L18,83 L14,81 L2,78 L-2,75 L-4,65 L-5,48 L-7,45 Z " fill="#000000" transform="translate(653,308)"/>
<path d="M0,0 L28,0 L38,1 L43,4 L45,9 L46,24 L45,117 L44,176 L43,215 L41,227 L37,232 L26,232 L7,233 L-4,232 L-18,225 L-24,218 L-29,202 L-29,155 L-27,62 L-27,33 L-24,14 L-20,8 L-12,2 L-10,1 Z " fill="#000000" transform="translate(532,344)"/>
<path d="M0,0 L19,0 L34,2 L47,7 L55,13 L59,21 L61,29 L62,40 L62,78 L60,116 L58,198 L52,218 L48,224 L44,227 L30,233 L17,233 L13,232 L-6,232 L-11,228 L-13,224 L-13,203 L-12,118 L-11,104 L-11,88 L-10,36 L-9,15 L-7,4 L-3,1 Z " fill="#000000" transform="translate(801,346)"/>
<path d="M0,0 L5,1 L13,8 L28,22 L33,27 L48,41 L55,48 L63,55 L74,65 L82,72 L92,83 L92,92 L85,101 L76,108 L68,114 L62,121 L57,124 L49,131 L40,138 L33,146 L25,152 L10,165 L0,173 L-5,173 L-7,171 L-8,163 L-8,149 L-10,139 L-14,134 L-61,133 L-84,133 L-90,129 L-94,124 L-94,72 L-93,51 L-91,39 L-88,34 L-78,32 L-18,32 L-11,30 L-8,26 L-3,3 Z " fill="#000000" transform="translate(984,389)"/>
<path d="M0,0 L5,0 L7,2 L8,10 L6,14 L2,15 L-2,11 L-2,2 Z " fill="#000000" transform="translate(641,407)"/>
<path d="M0,0 L75,0 L80,3 L82,15 L81,22 L78,25 L59,26 L17,26 L-16,27 L-121,27 L-129,28 L-142,27 L-170,27 L-184,26 L-191,27 L-324,27 L-342,28 L-349,27 L-357,28 L-360,27 L-416,27 L-423,23 L-424,21 L-424,12 L-422,6 L-417,3 L-408,2 L-370,1 L-280,1 L-256,2 L-249,1 L-62,1 Z " fill="#000000" transform="translate(927,602)"/>
</svg>
