<?xml version="1.0" encoding="UTF-8"?>
<!-- Generator: visioncortex VTracer 0.6.12 -->
<svg version="1.1" xmlns="http://www.w3.org/2000/svg" width="1140" height="1110">
<path d="M0,0 L17,0 L13,4 L12,7 L11,25 L10,165 L8,266 L7,382 L7,417 L6,545 L6,728 L5,790 L5,815 L4,853 L3,942 L3,956 L2,962 L2,1003 L1,1009 L0,1009 Z " fill="#000000" transform="translate(0,0)"/>
<path d="M0,0 L8,0 L6,2 L0,1 Z " fill="#000000" transform="translate(18,0)"/>
<path d="M0,0 L12,0 L9,2 L0,1 Z " fill="#000000" transform="translate(45,0)"/>
<path d="M0,0 L7,0 L6,2 L1,2 Z " fill="#000000" transform="translate(72,0)"/>
<path d="M0,0 L1055,0 L1055,17 L1052,14 L1049,10 L994,9 L944,9 L937,8 L929,8 L921,9 L910,8 L750,7 L631,7 L527,6 L498,6 L481,5 L466,5 L454,6 L414,5 L363,5 L327,4 L192,4 L78,3 L42,3 L25,2 L22,3 L7,3 L0,1 Z " fill="#000000" transform="translate(85,0)"/>
<path d="M0,0 L1,0 L1,12 L-1,8 Z " fill="#000000" transform="translate(1139,57)"/>
<path d="M0,0 L8,1 L19,1 L22,0 L30,0 L38,1 L45,2 L62,10 L67,16 L70,23 L72,32 L77,42 L79,45 L79,51 L77,58 L79,65 L84,71 L89,75 L92,76 L120,76 L126,75 L146,77 L154,79 L157,84 L159,91 L159,124 L161,222 L161,308 L163,369 L163,403 L162,411 L162,465 L160,475 L154,479 L135,480 L75,480 L69,481 L55,480 L18,480 L-2,481 L-12,481 L-20,480 L-28,480 L-33,479 L-45,479 L-54,480 L-59,479 L-100,479 L-103,478 L-130,479 L-138,478 L-167,478 L-171,479 L-181,479 L-184,476 L-185,473 L-185,252 L-184,237 L-185,224 L-185,121 L-183,92 L-181,82 L-176,78 L-168,77 L-132,77 L-121,76 L-116,74 L-109,61 L-105,55 L-103,49 L-101,32 L-94,16 L-87,10 L-77,5 L-64,3 L-41,2 L-5,2 Z M1,31 L-3,32 L-67,32 L-69,33 L-83,33 L-89,35 L-93,40 L-94,42 L-95,51 L-95,60 L-92,68 L-86,75 L-79,76 L-70,76 L-68,77 L24,77 L50,76 L56,74 L60,69 L62,59 L61,44 L61,36 L55,31 Z M34,134 L24,138 L16,144 L6,154 L2,162 L-3,192 L-9,230 L-10,239 L-7,244 L-5,246 L5,249 L21,252 L34,255 L52,257 L59,256 L64,252 L66,247 L69,230 L76,200 L79,179 L80,165 L78,159 L71,146 L64,138 L61,135 L57,134 L52,139 L49,142 L42,141 L38,135 Z " fill="#000000" transform="translate(446,234)"/>
<path d="M0,0 L12,0 L17,2 L27,4 L37,8 L48,14 L55,22 L63,28 L70,38 L77,50 L83,63 L86,80 L87,93 L87,188 L88,197 L88,212 L87,255 L90,264 L95,268 L102,269 L150,269 L161,268 L172,268 L184,269 L208,268 L237,269 L239,268 L348,268 L354,272 L356,276 L357,282 L357,298 L358,313 L353,326 L350,334 L349,378 L350,438 L349,480 L347,527 L344,534 L339,538 L278,538 L271,537 L237,537 L222,538 L215,539 L192,538 L172,538 L155,539 L151,540 L143,540 L132,538 L73,538 L52,537 L18,536 L-19,536 L-24,533 L-26,531 L-27,527 L-27,363 L-28,339 L-32,333 L-36,328 L-39,321 L-40,297 L-38,279 L-35,272 L-27,268 L-15,267 L-13,258 L-13,213 L-12,173 L-12,34 L-11,7 L-7,2 Z " fill="#000000" transform="translate(656,308)"/>
<path d="M0,0 L13,0 L23,1 L29,5 L31,10 L34,28 L33,49 L34,58 L34,76 L33,106 L33,143 L34,147 L34,220 L33,271 L34,298 L34,325 L33,336 L33,380 L32,391 L29,396 L20,401 L3,401 L-6,398 L-15,396 L-36,387 L-44,382 L-49,380 L-59,371 L-67,355 L-71,344 L-74,324 L-75,311 L-75,266 L-74,240 L-73,237 L-72,223 L-72,196 L-74,179 L-74,160 L-73,137 L-72,74 L-70,58 L-65,44 L-51,26 L-35,13 L-26,7 L-15,3 Z " fill="#000000" transform="translate(194,312)"/>
<path d="M0,0 L1,0 L1,1033 L-585,1033 L-587,1033 L-1139,1033 L-1139,1017 L-1135,1021 L-1118,1022 L-1056,1022 L-1022,1023 L-916,1023 L-893,1024 L-886,1025 L-870,1024 L-775,1025 L-755,1024 L-732,1025 L-694,1025 L-685,1026 L-589,1026 L-544,1027 L-530,1026 L-500,1027 L-445,1027 L-420,1028 L-399,1028 L-389,1027 L-374,1028 L-265,1029 L-146,1029 L-87,1030 L-49,1030 L-27,1031 L-13,1029 L-11,1026 L-10,1009 L-11,991 L-11,978 L-10,965 L-10,903 L-9,848 L-8,777 L-7,752 L-6,699 L-6,423 L-5,322 L-5,273 L-4,221 L-4,189 L-3,144 L-2,48 L-1,1 Z " fill="#000000" transform="translate(1139,77)"/>
</svg>
