<?xml version="1.0" encoding="UTF-8"?>
<!-- Generator: visioncortex VTracer 0.6.12 -->
<svg version="1.1" xmlns="http://www.w3.org/2000/svg" width="987" height="984">
<path d="M0,0 L89,0 L88,2 L81,3 L65,3 L43,6 L33,7 L25,9 L7,12 L-14,17 L-24,20 L-36,23 L-52,29 L-62,32 L-81,40 L-90,43 L-99,48 L-104,50 L-121,59 L-127,63 L-137,68 L-150,76 L-165,86 L-173,92 L-183,99 L-193,107 L-199,111 L-207,117 L-209,117 L-211,121 L-219,127 L-222,130 L-224,130 L-226,134 L-232,139 L-234,139 L-236,143 L-241,147 L-246,154 L-248,154 L-250,158 L-257,164 L-263,173 L-271,180 L-278,189 L-286,201 L-293,210 L-298,219 L-305,229 L-312,240 L-323,259 L-329,271 L-334,284 L-339,295 L-344,306 L-346,312 L-352,328 L-359,348 L-367,379 L-370,392 L-373,413 L-375,424 L-377,449 L-379,458 L-379,500 L-378,531 L-377,552 L-373,571 L-371,586 L-367,605 L-361,626 L-357,637 L-352,654 L-347,669 L-344,676 L-333,701 L-330,706 L-328,715 L-320,727 L-314,738 L-306,752 L-303,756 L-300,761 L-291,774 L-285,783 L-273,799 L-265,809 L-253,822 L-246,830 L-237,838 L-230,846 L-218,857 L-211,862 L-206,867 L-196,876 L-185,884 L-176,891 L-168,896 L-160,902 L-153,906 L-149,909 L-135,916 L-119,926 L-107,932 L-97,937 L-80,944 L-67,949 L-59,953 L-50,956 L-42,958 L-32,962 L-24,964 L-14,966 L5,971 L7,972 L31,975 L48,978 L62,980 L86,981 L131,981 L159,980 L162,979 L177,978 L195,975 L229,968 L242,964 L258,960 L274,954 L287,950 L313,939 L336,927 L357,915 L371,908 L382,900 L387,897 L397,890 L408,882 L416,875 L424,869 L431,863 L433,863 L435,859 L444,852 L459,838 L466,830 L471,826 L478,818 L489,805 L495,797 L499,791 L506,783 L512,774 L518,766 L524,756 L529,750 L536,736 L539,731 L544,722 L552,708 L557,697 L561,688 L564,678 L569,667 L575,651 L579,640 L585,618 L587,609 L591,593 L595,572 L599,539 L600,535 L601,520 L603,518 L603,599 L600,607 L595,628 L589,648 L580,674 L573,688 L569,701 L564,709 L556,725 L548,742 L541,752 L537,757 L531,768 L525,776 L521,782 L514,793 L508,800 L500,810 L494,818 L490,821 L488,821 L486,826 L476,837 L469,845 L461,854 L455,858 L451,863 L445,867 L440,872 L435,877 L422,887 L408,898 L398,905 L387,912 L376,918 L368,924 L359,929 L354,933 L344,937 L335,943 L320,949 L312,954 L297,960 L278,967 L268,971 L257,974 L245,976 L235,980 L225,982 L220,984 L0,984 L-5,982 L-14,980 L-28,976 L-53,969 L-66,964 L-77,960 L-87,956 L-96,952 L-110,945 L-122,939 L-141,929 L-152,923 L-160,917 L-166,913 L-186,901 L-191,896 L-203,888 L-215,877 L-224,870 L-229,865 L-242,853 L-249,845 L-256,839 L-263,831 L-267,826 L-272,822 L-285,805 L-286,802 L-288,802 L-295,793 L-304,781 L-311,770 L-320,756 L-329,742 L-338,723 L-342,715 L-347,705 L-352,693 L-357,683 L-360,676 L-363,666 L-367,656 L-372,643 L-377,625 L-380,613 L-383,601 L-384,600 L-384,382 L-382,377 L-376,351 L-371,338 L-366,320 L-361,309 L-353,289 L-342,266 L-334,252 L-327,236 L-322,228 L-318,222 L-312,213 L-304,202 L-298,194 L-290,183 L-284,176 L-276,166 L-268,158 L-259,146 L-251,138 L-243,131 L-236,123 L-228,117 L-216,106 L-208,100 L-197,91 L-191,86 L-179,77 L-169,72 L-155,62 L-140,54 L-130,49 L-119,43 L-109,38 L-104,35 L-94,31 L-80,24 L-63,19 L-48,14 L-39,11 L-24,7 L-23,6 L-13,4 L-7,1 L-1,1 Z M-362,334 Z " fill="#000000" transform="translate(384,0)"/>
<path d="M0,0 L4,1 L1,2 Z " fill="#000000" transform="translate(523,0)"/>
<path d="M0,0 L74,0 L74,2 L83,3 L87,5 L99,7 L120,14 L124,16 L133,18 L141,22 L152,26 L172,34 L189,43 L208,53 L222,61 L234,69 L245,76 L255,83 L260,86 L265,91 L274,97 L286,107 L294,113 L299,118 L307,125 L310,128 L310,130 L314,132 L319,138 L327,145 L328,148 L331,149 L331,151 L333,151 L340,159 L340,161 L342,161 L353,175 L364,188 L370,197 L378,208 L384,217 L390,228 L400,244 L409,261 L418,278 L426,295 L430,306 L432,313 L437,324 L440,334 L446,353 L449,366 L452,375 L455,383 L455,473 L453,469 L453,460 L451,448 L449,428 L445,401 L442,384 L434,355 L430,342 L428,336 L422,318 L417,307 L411,291 L404,278 L397,266 L393,259 L389,249 L379,233 L375,225 L367,214 L356,198 L346,187 L342,181 L333,170 L324,160 L319,156 L312,148 L304,140 L299,135 L291,128 L288,125 L288,123 L284,121 L278,116 L272,112 L261,102 L251,96 L239,87 L232,83 L223,77 L209,69 L198,62 L169,48 L159,43 L143,36 L134,33 L123,28 L112,24 L102,22 L85,17 L62,12 L55,10 L44,9 L38,7 L3,3 Z " fill="#000000" transform="translate(532,0)"/>
<path d="M0,0 L2,0 L1,4 L-1,3 Z " fill="#000000" transform="translate(355,94)"/>
<path d="M0,0 L10,0 L28,2 L44,10 L53,16 L59,24 L64,29 L67,33 L72,46 L75,59 L75,74 L73,86 L65,102 L55,114 L45,122 L36,128 L36,131 L44,136 L49,138 L54,139 L63,145 L73,148 L87,153 L103,161 L110,164 L117,168 L121,181 L125,224 L133,288 L136,313 L138,337 L141,357 L142,360 L144,382 L146,396 L146,408 L144,414 L143,415 L136,416 L107,415 L103,409 L100,394 L96,383 L94,371 L89,350 L85,334 L84,332 L82,332 L81,336 L85,381 L88,422 L91,456 L94,495 L97,523 L102,588 L102,599 L106,635 L109,679 L109,696 L105,699 L70,699 L60,698 L55,694 L53,690 L49,663 L45,638 L42,624 L39,601 L34,572 L31,557 L30,546 L28,533 L25,521 L23,504 L19,481 L17,468 L13,446 L12,435 L8,436 L5,452 L4,466 L2,474 L0,491 L-2,502 L-8,542 L-9,545 L-11,571 L-16,596 L-18,609 L-21,638 L-23,645 L-26,669 L-29,687 L-32,696 L-36,698 L-79,698 L-83,696 L-84,694 L-84,671 L-82,646 L-80,608 L-79,600 L-78,593 L-77,568 L-75,553 L-73,510 L-72,502 L-70,465 L-68,434 L-66,416 L-65,392 L-64,389 L-62,351 L-62,329 L-65,331 L-71,355 L-75,367 L-78,380 L-81,391 L-87,410 L-91,414 L-95,415 L-108,415 L-125,414 L-128,410 L-128,398 L-124,378 L-122,355 L-120,341 L-118,324 L-114,291 L-113,280 L-112,277 L-110,259 L-105,228 L-102,203 L-99,181 L-97,170 L-93,165 L-82,161 L-72,156 L-61,152 L-51,148 L-44,146 L-34,141 L-21,136 L-12,132 L-11,128 L-12,126 L-22,121 L-35,111 L-44,100 L-47,95 L-53,79 L-55,69 L-53,49 L-50,39 L-42,25 L-28,11 L-13,4 Z " fill="#000000" transform="translate(230,114)"/>
<path d="M0,0 L30,0 L93,2 L103,2 L115,7 L119,12 L124,24 L126,57 L127,59 L143,63 L146,68 L147,74 L147,191 L146,243 L146,290 L145,314 L145,327 L144,338 L142,341 L122,342 L-33,342 L-47,341 L-51,339 L-53,332 L-54,282 L-54,92 L-53,69 L-50,64 L-47,62 L-37,61 L-34,58 L-32,46 L-31,21 L-27,13 L-20,7 L-8,1 Z M21,26 L18,27 L3,27 L-5,29 L-11,38 L-13,50 L-10,60 L-7,62 L0,62 L8,63 L14,62 L98,62 L103,59 L104,57 L104,39 L98,30 L94,28 L64,27 L50,26 Z " fill="#000000" transform="translate(533,367)"/>
<path d="M0,0 L10,1 L13,3 L14,7 L14,265 L13,274 L9,279 L3,280 L-36,279 L-51,278 L-54,275 L-55,267 L-55,225 L-56,195 L-56,49 L-53,37 L-49,29 L-41,18 L-34,12 L-24,6 L-19,3 Z " fill="#000000" transform="translate(451,429)"/>
<path d="M0,0 L9,1 L19,2 L38,12 L45,18 L49,22 L59,37 L62,51 L62,174 L61,267 L59,277 L53,280 L-3,280 L-7,275 L-7,125 L-6,62 L-6,14 L-5,4 Z " fill="#000000" transform="translate(701,429)"/>
<path d="M0,0 L20,1 L25,4 L34,15 L43,26 L52,38 L63,51 L74,64 L80,72 L90,85 L98,94 L106,105 L111,110 L118,122 L119,127 L113,137 L107,146 L99,154 L93,163 L88,168 L80,179 L71,190 L65,198 L56,209 L44,225 L31,241 L26,247 L21,250 L8,249 L4,251 L-3,250 L-22,250 L-25,247 L-24,242 L-16,230 L-9,222 L-3,214 L6,203 L13,192 L20,184 L27,176 L37,162 L42,154 L41,151 L38,150 L13,149 L-25,149 L-32,148 L-55,148 L-60,143 L-60,114 L-58,106 L-54,103 L-50,102 L-19,102 L-10,103 L32,103 L38,99 L35,92 L29,82 L22,74 L16,65 L9,55 L0,43 L-4,37 L-15,23 L-21,15 L-26,7 L-26,2 L-24,1 Z " fill="#000000" transform="translate(837,451)"/>
</svg>
