<?xml version="1.0" encoding="UTF-8"?>
<!-- Generator: visioncortex VTracer 0.6.12 -->
<svg version="1.1" xmlns="http://www.w3.org/2000/svg" width="1053" height="1029">
<path d="M0,0 L68,0 L69,2 L72,2 L73,0 L867,0 L868,97 L868,191 L869,351 L870,369 L870,595 L871,653 L871,824 L872,869 L872,897 L871,958 L872,971 L872,1013 L868,1016 L847,1016 L760,1017 L605,1017 L600,1018 L506,1018 L475,1019 L409,1019 L357,1021 L308,1022 L216,1022 L174,1023 L156,1023 L141,1024 L122,1024 L52,1023 L23,1024 L-94,1024 L-161,1026 L-171,1027 L-171,2 L-126,3 L-85,2 L-45,2 L-5,1 Z M459,89 L448,92 L432,100 L426,104 L413,115 L405,123 L396,137 L390,142 L388,143 L331,144 L311,144 L299,145 L222,145 L214,146 L158,147 L139,148 L131,152 L126,160 L118,176 L117,184 L119,192 L125,204 L130,210 L136,210 L144,202 L151,191 L152,190 L159,191 L164,197 L169,206 L173,210 L179,210 L182,207 L186,201 L194,190 L198,189 L203,194 L210,205 L216,210 L222,209 L228,202 L234,191 L237,188 L242,188 L249,196 L255,204 L260,209 L265,208 L272,198 L279,188 L284,188 L289,194 L299,211 L304,214 L308,216 L338,216 L386,215 L394,219 L399,225 L407,235 L416,245 L423,251 L432,257 L452,265 L462,267 L481,267 L496,264 L511,259 L517,255 L522,251 L533,243 L543,232 L550,221 L556,208 L558,203 L561,184 L561,175 L559,157 L556,147 L551,134 L544,123 L532,110 L520,102 L509,96 L499,91 L488,89 Z M253,120 L253,124 L258,123 L257,120 Z M670,315 L641,317 L636,316 L526,316 L500,317 L416,318 L388,318 L379,319 L342,319 L316,320 L273,320 L249,321 L244,320 L240,321 L187,321 L158,322 L121,323 L95,323 L73,324 L16,324 L11,325 L-19,325 L-25,328 L-27,332 L-29,351 L-29,411 L-28,445 L-27,494 L-29,505 L-27,532 L-25,684 L-25,736 L-24,810 L-24,832 L-23,868 L-21,887 L-17,891 L-5,893 L23,893 L69,892 L97,892 L138,891 L169,891 L190,890 L231,890 L242,889 L268,889 L326,888 L394,888 L425,887 L443,886 L452,887 L455,886 L490,886 L518,885 L614,884 L631,883 L690,883 L706,882 L712,878 L717,872 L718,865 L718,820 L717,746 L717,718 L715,533 L715,454 L714,381 L714,329 L712,320 L704,315 Z " fill="#000000" transform="translate(171,0)"/>
<path d="M0,0 L8,2 L16,9 L21,19 L20,29 L15,37 L7,42 L1,43 L-8,41 L-14,37 L-18,31 L-19,28 L-19,18 L-15,8 L-8,2 Z " fill="#000000" transform="translate(686,156)"/>
<path d="M0,0 L4,2 L4,5 L1,4 Z " fill="#000000" transform="translate(811,380)"/>
<path d="M0,0 L61,0 L72,4 L80,10 L86,17 L91,24 L94,35 L96,61 L98,68 L101,71 L106,73 L126,73 L164,72 L222,72 L234,73 L246,78 L261,86 L266,91 L271,97 L276,102 L283,117 L287,131 L288,136 L288,157 L289,173 L289,285 L290,335 L290,378 L288,398 L284,407 L277,420 L268,430 L265,433 L263,433 L262,436 L254,440 L237,448 L217,448 L201,449 L176,449 L165,450 L112,450 L80,451 L35,451 L-63,453 L-92,453 L-150,454 L-210,454 L-231,447 L-241,441 L-252,430 L-259,420 L-262,410 L-265,404 L-267,385 L-268,328 L-268,190 L-269,177 L-269,140 L-267,127 L-259,111 L-249,98 L-242,92 L-227,83 L-212,79 L-210,78 L-169,78 L-150,77 L-147,78 L-140,78 L-135,77 L-102,77 L-86,73 L-83,70 L-80,59 L-80,48 L-79,35 L-75,22 L-67,12 L-59,7 L-50,3 L-41,2 L-5,1 Z M-26,25 L-34,26 L-41,26 L-48,28 L-54,35 L-56,42 L-56,64 L-54,71 L-49,76 L-21,76 L-13,77 L-11,76 L56,75 L65,71 L69,65 L70,61 L70,48 L68,37 L65,31 L59,26 L55,25 Z " fill="#000000" transform="translate(507,390)"/>
</svg>
