<?xml version="1.0" encoding="UTF-8"?>
<!-- Generator: visioncortex VTracer 0.6.12 -->
<svg version="1.1" xmlns="http://www.w3.org/2000/svg" width="1002" height="1008">
<path d="M0,0 L444,0 L442,4 L370,5 L334,5 L327,4 L319,5 L286,6 L237,6 L195,7 L177,7 L167,6 L163,7 L119,7 L85,8 L64,8 L57,9 L55,8 L35,8 L32,9 L17,11 L3,15 L-9,20 L-25,28 L-38,38 L-44,43 L-46,43 L-48,47 L-51,50 L-53,50 L-55,54 L-62,64 L-68,73 L-76,89 L-80,100 L-86,126 L-86,287 L-85,305 L-85,456 L-84,510 L-84,575 L-83,617 L-83,692 L-82,788 L-83,792 L-82,814 L-82,851 L-80,890 L-77,908 L-69,928 L-65,936 L-62,940 L-58,949 L-46,963 L-34,975 L-26,980 L-26,982 L-21,984 L-2,994 L10,999 L17,1001 L26,1002 L32,1004 L59,1006 L61,1008 L-8,1008 L-8,1006 L-17,1003 L-30,994 L-39,988 L-50,979 L-57,971 L-62,967 L-71,953 L-74,950 L-78,941 L-82,934 L-88,918 L-90,913 L-90,82 L-88,82 L-87,74 L-79,63 L-74,54 L-65,45 L-58,37 L-46,27 L-36,19 L-28,15 L-23,11 L-5,3 Z " fill="#000000" transform="translate(90,0)"/>
<path d="M0,0 L26,0 L25,3 L23,4 L2,4 Z " fill="#000000" transform="translate(538,0)"/>
<path d="M0,0 L190,0 L188,2 L171,3 L96,3 L68,4 L5,4 L0,1 Z " fill="#000000" transform="translate(573,0)"/>
<path d="M0,0 L57,0 L56,2 L1,2 Z " fill="#000000" transform="translate(773,0)"/>
<path d="M0,0 L22,0 L19,3 L10,3 L1,2 Z " fill="#000000" transform="translate(835,0)"/>
<path d="M0,0 L58,0 L74,9 L88,19 L109,40 L117,50 L126,65 L134,82 L136,88 L136,806 L134,804 L133,798 L133,736 L132,631 L132,459 L131,418 L131,157 L130,150 L130,121 L127,109 L125,99 L119,83 L112,68 L108,61 L101,51 L95,44 L90,39 L80,30 L69,22 L59,16 L36,7 L26,5 L15,3 L0,1 Z " fill="#000000" transform="translate(866,0)"/>
<path d="M0,0 L3,0 L3,2 L0,2 Z " fill="#000000" transform="translate(433,15)"/>
<path d="M0,0 L6,1 L11,6 L19,22 L23,37 L26,55 L27,68 L27,150 L31,159 L40,165 L49,172 L63,182 L76,192 L86,200 L95,207 L99,209 L105,216 L115,222 L127,231 L139,239 L146,246 L155,252 L165,260 L177,268 L184,274 L192,280 L200,286 L211,294 L217,303 L218,315 L217,324 L217,343 L214,348 L206,347 L190,341 L177,337 L153,329 L150,327 L139,325 L130,321 L117,317 L109,314 L99,310 L80,304 L55,295 L41,291 L31,288 L28,291 L27,337 L27,378 L25,406 L25,414 L29,420 L41,430 L49,436 L55,440 L65,447 L72,453 L78,457 L84,463 L90,466 L93,469 L101,475 L103,478 L103,509 L100,512 L93,511 L92,510 L81,508 L69,504 L57,501 L35,495 L31,493 L19,491 L7,487 L-2,488 L-20,493 L-35,497 L-56,503 L-63,506 L-76,508 L-90,513 L-95,512 L-97,508 L-97,483 L-94,477 L-86,470 L-73,460 L-62,452 L-52,444 L-46,440 L-36,432 L-28,425 L-23,422 L-15,414 L-15,407 L-18,391 L-20,376 L-21,346 L-21,310 L-22,306 L-23,291 L-25,289 L-32,289 L-43,293 L-56,297 L-65,301 L-82,307 L-113,318 L-118,321 L-127,322 L-134,326 L-144,329 L-149,332 L-162,336 L-183,344 L-194,348 L-203,351 L-207,352 L-210,349 L-211,347 L-212,326 L-211,313 L-208,303 L-202,296 L-188,285 L-178,277 L-172,273 L-167,269 L-162,264 L-145,251 L-134,243 L-126,237 L-118,231 L-105,222 L-98,216 L-88,208 L-77,199 L-65,190 L-57,184 L-49,177 L-43,172 L-36,168 L-29,161 L-24,158 L-22,154 L-21,138 L-21,119 L-20,52 L-16,31 L-11,17 L-4,3 Z " fill="#000000" transform="translate(728,211)"/>
<path d="M0,0 L2,1 Z " fill="#000000" transform="translate(319,259)"/>
<path d="M0,0 L10,1 L21,5 L31,17 L33,26 L35,43 L39,46 L54,46 L67,47 L70,51 L71,62 L71,88 L72,218 L72,238 L70,251 L65,255 L57,256 L39,255 L-57,256 L-66,255 L-69,256 L-106,256 L-111,252 L-112,231 L-113,119 L-112,114 L-112,56 L-109,50 L-105,47 L-91,47 L-86,50 L-84,56 L-84,78 L-87,85 L-88,86 L-100,87 L-102,94 L-102,150 L-99,157 L-97,158 L-88,158 L-81,157 L-73,159 L-66,158 L-61,155 L-60,154 L-59,125 L-59,99 L-60,89 L-63,87 L-73,87 L-77,83 L-78,44 L-76,22 L-70,12 L-62,5 L-56,2 L-49,1 L-18,1 Z M-45,20 L-53,23 L-56,28 L-57,36 L-55,44 L-52,47 L-45,48 L-13,48 L10,47 L14,42 L15,31 L11,23 L8,20 Z " fill="#000000" transform="translate(224,370)"/>
<path d="M0,0 L9,0 L19,4 L28,11 L33,21 L34,24 L35,56 L35,181 L34,188 L28,197 L20,204 L11,207 L2,207 L-2,203 L-3,196 L-3,157 L-4,150 L-4,129 L-5,101 L-5,76 L-4,27 L-3,3 Z " fill="#000000" transform="translate(317,417)"/>
<path d="M0,0 L7,0 L12,4 L13,6 L14,46 L13,78 L13,103 L14,172 L13,202 L11,206 L7,208 L-5,207 L-13,203 L-21,196 L-24,190 L-26,174 L-26,154 L-27,134 L-26,128 L-26,109 L-27,106 L-27,84 L-26,74 L-26,49 L-27,38 L-26,24 L-20,11 L-10,2 Z " fill="#000000" transform="translate(81,418)"/>
<path d="M0,0 L7,1 L17,10 L24,17 L24,19 L28,21 L35,29 L47,40 L50,45 L49,52 L41,61 L33,68 L28,73 L21,81 L12,88 L7,94 L-4,95 L-13,94 L-14,93 L-14,88 L-2,75 L5,67 L6,60 L-6,58 L-58,58 L-62,55 L-63,47 L-61,38 L-58,36 L-36,37 L-28,35 L-18,36 L-4,36 L6,35 L6,30 L-1,22 L-8,14 L-13,10 L-15,4 L-12,1 Z " fill="#000000" transform="translate(443,471)"/>
<path d="M0,0 L9,0 L15,4 L18,7 L18,18 L12,26 L2,28 L-3,25 L-8,17 L-8,11 L-4,3 Z " fill="#000000" transform="translate(138,493)"/>
<path d="M0,0 L1,0 L1,11 L-1,9 L-1,1 Z " fill="#000000" transform="translate(1001,809)"/>
<path d="M0,0 L1,0 L1,92 L-1,92 L-4,101 L-11,113 L-19,124 L-25,132 L-32,139 L-40,146 L-51,155 L-71,167 L-81,172 L-88,175 L-100,178 L-120,180 L-121,181 L-843,181 L-841,179 L-807,178 L-753,178 L-703,177 L-662,177 L-632,176 L-594,176 L-568,175 L-517,175 L-505,174 L-488,174 L-387,172 L-322,171 L-268,170 L-248,170 L-225,169 L-160,169 L-124,168 L-103,165 L-88,160 L-82,157 L-75,154 L-62,147 L-49,137 L-37,126 L-33,120 L-24,109 L-18,98 L-12,89 L-10,81 L-5,64 L-3,52 L-2,38 L-1,35 L-1,26 L-2,8 Z " fill="#000000" transform="translate(1001,827)"/>
</svg>
