<?xml version="1.0" encoding="UTF-8"?>
<!-- Generator: visioncortex VTracer 0.6.12 -->
<svg version="1.1" xmlns="http://www.w3.org/2000/svg" width="1008" height="999">
<path d="M0,0 L997,0 L997,999 L97,999 L92,998 L13,996 L-7,994 L-11,992 L-11,697 L-10,695 L-10,689 L-11,687 L-11,673 L-10,669 L-10,645 L-9,605 L-10,595 L-9,584 L-9,564 L-8,526 L-8,499 L-7,457 L-7,405 L-6,365 L-7,318 L-6,310 L-6,280 L-5,263 L-6,260 L-6,247 L-5,231 L-5,118 L-4,64 L-4,48 L-3,22 L-2,20 L-1,2 Z M133,88 L110,89 L101,92 L99,94 L97,100 L96,100 L96,113 L98,116 L96,125 L95,226 L94,233 L95,272 L94,278 L94,336 L93,352 L94,357 L93,359 L93,372 L94,383 L94,395 L93,398 L93,405 L94,411 L93,412 L93,453 L92,552 L92,595 L91,642 L91,737 L90,758 L90,796 L89,826 L89,853 L88,864 L89,892 L91,902 L94,905 L101,908 L155,909 L246,909 L279,910 L341,910 L437,911 L475,912 L498,913 L507,912 L519,912 L541,913 L597,913 L615,914 L678,914 L686,915 L694,914 L701,915 L707,914 L715,915 L792,915 L800,916 L881,916 L888,913 L891,909 L892,900 L892,871 L893,828 L893,800 L894,769 L894,732 L896,596 L896,553 L897,517 L897,460 L898,437 L899,285 L900,195 L901,163 L901,119 L900,106 L896,100 L891,97 L886,96 L839,96 L810,95 L708,95 L697,94 L651,94 L571,93 L512,93 L508,92 L437,92 L408,91 L317,90 L276,90 L224,89 Z " fill="#000000" transform="translate(11,0)"/>
<path d="M0,0 L187,0 L205,1 L231,1 L303,2 L381,2 L387,3 L463,2 L467,3 L492,4 L508,3 L562,3 L568,2 L577,4 L649,4 L703,5 L707,9 L709,18 L709,97 L708,150 L708,175 L707,286 L707,312 L706,335 L706,376 L705,435 L705,485 L704,542 L704,580 L703,618 L702,695 L702,718 L701,728 L697,734 L695,735 L659,736 L598,735 L524,735 L505,734 L463,734 L398,733 L319,733 L280,732 L72,730 L-5,729 L-12,725 L-13,723 L-14,714 L-14,666 L-13,625 L-13,570 L-12,494 L-12,447 L-11,398 L-10,372 L-10,307 L-9,293 L-9,148 L-8,131 L-8,86 L-7,77 L-7,19 L-5,4 Z M437,235 L427,238 L419,245 L413,253 L406,269 L398,282 L392,291 L383,295 L377,296 L341,297 L318,296 L220,296 L162,295 L136,296 L128,298 L117,304 L107,313 L100,321 L89,334 L81,343 L76,352 L76,365 L80,373 L89,384 L94,389 L98,393 L100,393 L102,397 L109,405 L117,415 L127,422 L136,425 L145,423 L157,417 L166,411 L169,410 L176,410 L187,417 L196,423 L199,424 L212,424 L226,417 L236,410 L238,409 L244,409 L252,413 L262,421 L269,425 L277,428 L288,428 L300,421 L316,405 L323,401 L332,402 L340,408 L350,422 L358,430 L360,430 L360,432 L366,435 L375,435 L384,431 L391,432 L397,440 L407,458 L413,468 L421,478 L432,483 L442,485 L455,485 L461,484 L464,485 L484,485 L496,486 L551,485 L563,482 L574,474 L580,467 L590,445 L597,425 L601,418 L604,406 L609,395 L614,380 L615,372 L615,358 L613,348 L607,329 L601,311 L599,302 L594,290 L592,280 L586,263 L582,254 L577,245 L567,239 L558,236 L510,235 Z M429,681 L430,684 L431,681 Z " fill="#000000" transform="translate(157,136)"/>
<path d="M0,0 L13,0 L24,6 L31,12 L36,21 L37,34 L33,46 L29,52 L19,59 L12,61 L-1,61 L-11,56 L-16,52 L-22,44 L-24,36 L-23,20 L-17,11 L-10,4 Z " fill="#000000" transform="translate(694,470)"/>
</svg>
