<?xml version="1.0" encoding="UTF-8"?>
<!-- Generator: visioncortex VTracer 0.6.12 -->
<svg version="1.1" xmlns="http://www.w3.org/2000/svg" width="987" height="987">
<path d="M0,0 L210,0 L210,2 L220,4 L237,9 L253,13 L269,18 L285,24 L297,29 L315,37 L329,44 L339,49 L353,57 L366,65 L373,69 L378,73 L384,77 L388,81 L396,85 L408,94 L414,98 L418,102 L428,110 L436,117 L439,120 L444,125 L454,134 L460,139 L464,146 L472,153 L477,158 L486,168 L494,178 L499,186 L504,191 L512,202 L522,215 L528,226 L535,237 L548,260 L554,271 L557,278 L566,299 L571,313 L576,325 L583,345 L586,358 L590,372 L592,379 L593,380 L593,440 L590,437 L587,419 L587,409 L585,402 L584,397 L581,384 L576,366 L570,346 L564,328 L557,306 L552,294 L544,278 L539,269 L537,264 L523,240 L513,225 L506,214 L499,205 L493,196 L484,185 L482,180 L479,179 L472,170 L465,162 L460,156 L452,149 L442,138 L434,131 L425,124 L420,119 L411,111 L405,107 L394,97 L382,90 L369,81 L359,75 L344,67 L337,63 L321,55 L311,49 L299,44 L287,39 L267,31 L256,27 L240,22 L232,20 L211,15 L195,12 L190,10 L168,7 L155,5 L126,3 L112,3 L101,2 L56,4 L53,5 L27,7 L20,9 L-5,13 L-11,15 L-21,17 L-32,20 L-45,24 L-57,28 L-70,32 L-76,33 L-80,36 L-87,39 L-98,45 L-108,49 L-133,61 L-147,69 L-157,75 L-168,82 L-182,92 L-191,98 L-200,105 L-211,112 L-218,120 L-227,127 L-237,137 L-242,141 L-247,147 L-253,152 L-257,157 L-262,162 L-267,168 L-272,173 L-279,181 L-283,187 L-297,205 L-303,213 L-309,222 L-320,240 L-330,256 L-336,268 L-344,283 L-348,291 L-352,302 L-357,312 L-360,321 L-371,352 L-375,362 L-379,383 L-382,392 L-388,429 L-391,453 L-392,466 L-394,467 L-394,393 L-392,387 L-388,371 L-385,358 L-373,322 L-369,310 L-361,293 L-352,272 L-347,264 L-343,257 L-338,248 L-327,230 L-321,220 L-317,215 L-312,206 L-302,192 L-293,182 L-284,171 L-272,157 L-270,157 L-268,152 L-256,140 L-251,135 L-239,124 L-235,120 L-230,115 L-220,106 L-212,100 L-202,93 L-197,89 L-192,87 L-192,85 L-176,74 L-163,66 L-141,52 L-125,44 L-110,36 L-88,27 L-79,23 L-62,17 L-58,15 L-36,10 L-25,6 L-16,3 L-1,1 Z " fill="#000000" transform="translate(394,0)"/>
<path d="M0,0 L21,0 L26,2 L34,3 L49,7 L66,16 L77,24 L92,38 L98,47 L107,66 L112,83 L114,99 L114,111 L112,126 L107,143 L99,159 L92,169 L81,181 L72,189 L61,196 L45,204 L35,206 L26,209 L0,209 L-2,208 L-14,206 L-23,204 L-39,197 L-47,191 L-58,182 L-72,168 L-77,160 L-80,154 L-88,142 L-90,141 L-106,140 L-155,142 L-183,142 L-191,143 L-203,143 L-211,138 L-215,133 L-224,128 L-229,127 L-240,127 L-249,126 L-255,126 L-265,118 L-268,115 L-273,114 L-282,119 L-288,126 L-292,128 L-305,128 L-313,129 L-322,129 L-327,134 L-334,142 L-341,141 L-348,135 L-352,131 L-362,129 L-376,130 L-386,129 L-394,122 L-404,112 L-405,106 L-395,93 L-388,86 L-382,81 L-374,81 L-370,80 L-357,80 L-319,78 L-313,76 L-309,71 L-306,72 L-305,78 L-257,78 L-252,77 L-206,76 L-152,75 L-122,74 L-96,74 L-89,71 L-78,51 L-71,41 L-66,38 L-64,38 L-62,34 L-59,28 L-51,21 L-45,17 L-41,14 L-19,4 Z M78,76 L67,79 L61,82 L56,86 L53,91 L50,95 L48,105 L49,114 L52,122 L61,132 L71,137 L87,137 L99,131 L104,125 L107,117 L109,105 L105,91 L99,83 L87,77 Z " fill="#000000" transform="translate(634,72)"/>
<path d="M0,0 L38,0 L50,1 L54,4 L56,21 L56,61 L57,115 L58,143 L59,220 L59,243 L60,283 L62,411 L62,492 L60,496 L-31,498 L-81,498 L-88,499 L-120,499 L-195,500 L-227,501 L-285,501 L-304,502 L-320,501 L-331,502 L-413,504 L-436,504 L-464,505 L-486,505 L-530,506 L-569,506 L-573,503 L-574,498 L-575,484 L-576,409 L-577,317 L-577,300 L-578,268 L-579,211 L-579,166 L-580,143 L-580,119 L-581,107 L-581,21 L-579,16 L-576,13 L-551,13 L-548,12 L-540,12 L-528,13 L-518,11 L-455,10 L-441,9 L-405,9 L-390,8 L-357,8 L-347,7 L-320,7 L-296,6 L-268,6 L-236,5 L-229,6 L-228,5 L-211,4 L-180,4 L-144,3 L-122,2 L-87,2 L-69,1 L-24,1 L-18,2 L-17,1 L-8,1 Z M-517,22 L-519,23 L-519,26 L-513,27 L-512,24 L-514,22 Z M-313,71 L-323,74 L-332,80 L-338,87 L-341,96 L-342,102 L-343,125 L-344,134 L-349,137 L-361,137 L-365,139 L-367,142 L-368,148 L-368,167 L-367,207 L-367,235 L-365,372 L-364,416 L-361,420 L-348,421 L-282,421 L-230,420 L-220,421 L-206,420 L-168,420 L-160,418 L-157,411 L-157,277 L-158,222 L-158,192 L-159,158 L-161,138 L-165,134 L-182,133 L-186,129 L-186,106 L-188,91 L-193,82 L-198,77 L-206,73 L-212,71 L-238,71 L-273,72 L-285,71 Z M-142,134 L-145,137 L-146,139 L-147,151 L-146,187 L-146,214 L-145,291 L-145,324 L-144,339 L-144,357 L-143,409 L-141,416 L-132,419 L-94,419 L-75,418 L-71,414 L-70,409 L-70,304 L-72,198 L-74,174 L-81,158 L-85,153 L-90,148 L-97,143 L-112,136 L-123,134 Z M-402,138 L-413,140 L-422,143 L-434,150 L-445,162 L-451,172 L-452,175 L-453,188 L-453,261 L-452,400 L-451,414 L-448,421 L-438,423 L-387,422 L-381,420 L-379,417 L-378,379 L-379,368 L-379,313 L-380,240 L-380,206 L-381,202 L-382,157 L-383,142 L-389,138 Z M-34,400 L-36,403 L-36,407 L-31,406 L-30,402 L-31,400 Z " fill="#000000" transform="translate(758,334)"/>
<path d="M0,0 L99,0 L104,4 L107,13 L107,33 L102,37 L92,38 L77,38 L48,39 L41,38 L25,39 L-4,39 L-8,37 L-9,35 L-9,14 L-7,6 Z " fill="#000000" transform="translate(445,431)"/>
<path d="M0,0 L1,0 L1,5 L0,5 Z " fill="#000000" transform="translate(0,504)"/>
<path d="M0,0 L2,1 L5,40 L11,77 L15,92 L17,103 L21,114 L23,125 L35,160 L38,167 L42,175 L43,183 L49,192 L55,203 L61,213 L69,226 L80,245 L86,255 L99,274 L108,285 L115,293 L123,303 L132,314 L148,330 L157,337 L166,346 L172,350 L185,362 L194,368 L202,375 L207,378 L218,385 L228,392 L241,400 L251,406 L262,412 L296,427 L317,436 L355,449 L367,452 L395,459 L404,461 L406,462 L429,464 L442,466 L454,467 L455,469 L384,469 L384,467 L371,465 L362,463 L361,462 L344,459 L329,453 L309,446 L299,441 L284,435 L271,430 L266,426 L248,416 L224,402 L213,395 L198,384 L188,376 L178,369 L170,362 L159,353 L149,344 L144,341 L137,333 L128,324 L122,316 L114,308 L105,297 L99,290 L91,280 L83,270 L80,264 L74,257 L65,245 L59,235 L53,224 L45,208 L37,190 L34,181 L32,176 L29,171 L24,161 L21,152 L19,144 L13,132 L11,124 L7,111 L3,95 L1,85 L0,84 Z " fill="#000000" transform="translate(0,518)"/>
<path d="M0,0 L1,0 L1,62 L-1,68 L-8,96 L-20,131 L-26,144 L-31,157 L-34,166 L-42,182 L-46,189 L-52,199 L-58,211 L-67,223 L-76,237 L-82,245 L-89,254 L-95,262 L-106,274 L-112,282 L-124,295 L-129,300 L-149,320 L-160,329 L-168,335 L-175,341 L-183,348 L-191,354 L-196,358 L-201,361 L-214,370 L-218,373 L-227,378 L-241,386 L-258,396 L-273,403 L-283,407 L-292,411 L-304,416 L-320,423 L-329,426 L-341,430 L-349,431 L-354,434 L-364,436 L-373,439 L-383,441 L-384,442 L-452,442 L-451,440 L-416,436 L-406,434 L-385,431 L-379,428 L-365,426 L-358,423 L-342,419 L-336,416 L-324,413 L-312,408 L-292,401 L-283,396 L-266,388 L-255,381 L-246,377 L-238,372 L-217,359 L-207,352 L-196,345 L-189,338 L-177,330 L-162,316 L-157,311 L-148,304 L-142,297 L-134,290 L-120,275 L-116,270 L-110,266 L-103,255 L-94,244 L-85,230 L-81,225 L-73,213 L-67,203 L-61,193 L-53,179 L-48,169 L-39,148 L-35,138 L-31,126 L-26,114 L-19,92 L-13,71 L-5,32 L-3,22 L-2,6 Z " fill="#000000" transform="translate(986,545)"/>
</svg>
