<?xml version="1.0" encoding="UTF-8"?>
<!-- Generator: visioncortex VTracer 0.6.12 -->
<svg version="1.1" xmlns="http://www.w3.org/2000/svg" width="1134" height="1098">
<path d="M0,0 L1134,0 L1134,73 L1132,73 L1131,71 L1130,42 L1130,22 L1128,10 L1124,7 L1087,6 L946,6 L893,5 L872,5 L844,4 L839,3 L826,5 L804,5 L755,4 L747,5 L739,4 L421,4 L322,3 L95,3 L54,2 L13,3 L8,8 L7,23 L7,117 L6,214 L5,277 L5,355 L4,458 L4,500 L3,719 L3,758 L2,783 L0,785 Z " fill="#000000" transform="translate(0,0)"/>
<path d="M0,0 L2,0 L2,1014 L-9,1014 L-8,1008 L-6,835 L-6,722 L-5,639 L-5,572 L-3,326 L-2,246 L-1,1 Z " fill="#000000" transform="translate(1132,84)"/>
<path d="M0,0 L15,0 L25,2 L35,3 L50,7 L59,10 L81,22 L95,32 L105,40 L113,48 L123,61 L130,71 L140,92 L144,104 L148,126 L149,145 L148,168 L145,182 L140,198 L131,217 L120,232 L112,242 L106,249 L100,253 L95,258 L80,269 L64,277 L45,284 L39,286 L36,292 L34,343 L34,410 L33,533 L34,587 L33,646 L33,667 L32,723 L30,746 L28,751 L24,753 L-16,754 L-42,754 L-90,753 L-155,754 L-169,754 L-193,755 L-217,754 L-233,754 L-244,753 L-317,753 L-421,752 L-434,751 L-488,751 L-498,750 L-560,751 L-614,750 L-617,746 L-618,734 L-618,707 L-616,698 L-612,695 L-414,694 L-135,694 L-93,695 L-51,695 L-34,694 L-31,690 L-29,683 L-28,658 L-28,550 L-27,526 L-26,457 L-25,412 L-23,341 L-23,298 L-25,290 L-28,287 L-35,284 L-48,280 L-62,274 L-68,270 L-78,265 L-89,255 L-99,247 L-106,240 L-116,227 L-126,211 L-133,194 L-137,180 L-139,173 L-141,150 L-141,139 L-138,118 L-135,106 L-127,85 L-121,74 L-113,62 L-105,52 L-96,41 L-89,36 L-84,31 L-78,26 L-63,17 L-49,11 L-37,6 L-19,2 Z M-5,32 L-17,34 L-33,38 L-44,43 L-51,46 L-65,56 L-75,65 L-85,76 L-93,88 L-97,96 L-101,108 L-104,117 L-106,127 L-107,140 L-106,164 L-102,180 L-98,191 L-90,207 L-80,221 L-72,228 L-68,233 L-56,241 L-51,245 L-36,251 L-29,254 L-11,258 L12,258 L29,256 L43,252 L59,244 L69,238 L78,231 L89,221 L97,211 L108,193 L115,174 L118,163 L118,128 L114,111 L108,96 L100,82 L91,71 L80,59 L68,50 L59,44 L41,37 L25,33 L18,32 Z " fill="#000000" transform="translate(811,169)"/>
<path d="M0,0 L5,1 L6,3 L6,26 L1,28 L-2,26 L-3,20 L-2,3 Z " fill="#000000" transform="translate(816,216)"/>
<path d="M0,0 L4,1 L7,6 L12,19 L12,26 L7,27 L4,23 L-2,7 L-1,1 Z " fill="#000000" transform="translate(780,222)"/>
<path d="M0,0 L4,1 L3,9 L-1,19 L-5,25 L-8,26 L-10,25 L-10,18 L-6,9 L-3,3 Z " fill="#000000" transform="translate(853,224)"/>
<path d="M0,0 L5,1 L17,14 L18,20 L14,21 L9,16 L-1,6 L-1,1 Z " fill="#000000" transform="translate(748,244)"/>
<path d="M0,0 L3,2 L2,7 L-3,11 L-10,19 L-15,22 L-17,21 L-16,15 L-2,1 Z " fill="#000000" transform="translate(883,243)"/>
<path d="M0,0 L5,0 L15,11 L23,18 L35,29 L45,38 L56,47 L65,56 L66,58 L66,64 L54,75 L43,83 L37,82 L32,74 L23,55 L17,43 L13,33 L4,12 L1,7 L-1,2 Z " fill="#000000" transform="translate(778,261)"/>
<path d="M0,0 L8,1 L22,8 L23,13 L18,14 L9,10 L1,6 L-1,4 Z " fill="#000000" transform="translate(728,274)"/>
<path d="M0,0 L5,1 L6,5 L-1,9 L-11,14 L-17,14 L-18,11 L-13,6 Z " fill="#000000" transform="translate(900,274)"/>
<path d="M0,0 L21,0 L25,3 L24,7 L22,8 L3,9 L-2,6 L-2,1 Z " fill="#000000" transform="translate(721,309)"/>
<path d="M0,0 L12,0 L19,1 L20,5 L18,7 L-3,6 L-4,3 Z " fill="#000000" transform="translate(892,310)"/>
<path d="M0,0 L4,2 L3,7 L-2,11 L-13,16 L-20,17 L-23,14 L-22,10 L-14,5 Z " fill="#000000" transform="translate(747,337)"/>
<path d="M0,0 L7,0 L22,7 L23,12 L16,13 L0,5 Z " fill="#000000" transform="translate(883,339)"/>
<path d="M0,0 L5,0 L6,5 L-1,13 L-6,18 L-12,23 L-16,21 L-17,17 L-10,9 Z " fill="#000000" transform="translate(761,363)"/>
<path d="M0,0 L5,1 L19,16 L20,20 L18,22 L13,21 L4,12 L-2,4 Z " fill="#000000" transform="translate(866,363)"/>
<path d="M0,0 L4,1 L5,5 L2,13 L-3,25 L-8,26 L-9,25 L-8,16 L-5,8 L-2,2 Z " fill="#000000" transform="translate(786,379)"/>
<path d="M0,0 L5,0 L12,15 L13,24 L12,26 L7,25 L2,14 L-1,6 Z " fill="#000000" transform="translate(843,379)"/>
<path d="M0,0 L5,2 L6,9 L5,27 L2,30 L-2,29 L-4,20 L-4,8 L-1,1 Z " fill="#000000" transform="translate(815,383)"/>
<path d="M0,0 L12,1 L45,1 L55,3 L61,7 L64,13 L65,22 L66,54 L69,59 L76,61 L107,62 L121,62 L126,66 L127,70 L128,137 L128,180 L127,346 L127,370 L126,397 L123,404 L118,406 L43,407 L-29,407 L-76,406 L-94,405 L-110,405 L-127,404 L-137,403 L-141,399 L-143,393 L-143,250 L-142,216 L-142,179 L-141,120 L-140,87 L-139,69 L-136,63 L-134,62 L-92,62 L-83,61 L-77,56 L-76,54 L-75,42 L-74,12 L-71,6 L-63,2 L-57,1 L-24,1 Z M-34,30 L-45,31 L-50,37 L-51,51 L-49,58 L-44,62 L20,63 L33,62 L39,58 L41,51 L41,40 L38,33 L35,31 L25,30 Z M-66,63 L-70,65 L-71,67 L-72,99 L-72,115 L-75,124 L-79,126 L-95,126 L-100,129 L-102,137 L-104,222 L-104,270 L-102,278 L-99,282 L-89,284 L-33,284 L-28,281 L-25,277 L-24,237 L-24,135 L-28,129 L-30,128 L-51,126 L-55,124 L-57,113 L-57,72 L-60,65 Z " fill="#000000" transform="translate(470,424)"/>
<path d="M0,0 L24,1 L47,1 L53,4 L55,14 L56,36 L56,162 L55,195 L55,263 L53,329 L51,339 L46,343 L31,344 L11,343 L-8,343 L-24,340 L-34,334 L-42,327 L-49,316 L-52,309 L-54,296 L-54,224 L-53,206 L-53,163 L-52,84 L-52,45 L-49,29 L-43,19 L-32,8 L-18,2 L-15,1 L-3,1 Z " fill="#000000" transform="translate(247,484)"/>
<path d="M0,0 L59,0 L73,6 L83,13 L91,24 L96,36 L98,49 L99,105 L99,123 L98,146 L98,220 L97,270 L96,296 L94,307 L90,318 L79,332 L70,338 L56,343 L47,344 L17,344 L-5,343 L-8,340 L-10,333 L-10,193 L-9,152 L-8,140 L-6,33 L-5,29 L-5,7 L-3,2 Z " fill="#000000" transform="translate(633,486)"/>
<path d="M0,0 L9,0 L16,4 L19,10 L19,22 L14,28 L7,32 L-2,32 L-10,26 L-14,17 L-13,10 L-7,2 Z " fill="#000000" transform="translate(404,562)"/>
<path d="M0,0 L1,0 L1,11 L0,11 Z " fill="#000000" transform="translate(0,786)"/>
<path d="M0,0 Z " fill="#000000" transform="translate(0,810)"/>
<path d="M0,0 L2,2 L1,14 L0,14 Z " fill="#000000" transform="translate(0,834)"/>
<path d="M0,0 L1,4 Z " fill="#000000" transform="translate(0,873)"/>
<path d="M0,0 L5,4 L89,5 L117,5 L221,6 L259,7 L286,6 L309,7 L373,7 L474,8 L592,8 L630,9 L631,11 L0,11 Z " fill="#000000" transform="translate(0,1087)"/>
<path d="M0,0 L6,0 L7,2 L-1,2 Z " fill="#000000" transform="translate(635,1096)"/>
<path d="M0,0 L11,1 L11,2 L-1,2 Z " fill="#000000" transform="translate(646,1096)"/>
<path d="M0,0 L11,0 L14,2 L-4,2 Z " fill="#000000" transform="translate(662,1096)"/>
<path d="M0,0 L7,1 L7,2 L-1,2 Z " fill="#000000" transform="translate(681,1096)"/>
<path d="M0,0 L5,1 L5,2 L-1,2 Z " fill="#000000" transform="translate(772,1096)"/>
<path d="M0,0 L4,1 Z " fill="#000000" transform="translate(736,1097)"/>
</svg>
