<?xml version="1.0" encoding="UTF-8"?>
<!-- Generator: visioncortex VTracer 0.6.12 -->
<svg version="1.1" xmlns="http://www.w3.org/2000/svg" width="1263" height="1218">
<path d="M0,0 L202,0 L356,1 L609,2 L655,2 L821,4 L916,5 L1060,5 L1116,6 L1125,8 L1129,11 L1129,36 L1130,63 L1131,81 L1131,122 L1130,125 L1130,132 L1131,134 L1131,146 L1132,152 L1131,189 L1131,272 L1132,282 L1132,388 L1133,391 L1133,517 L1134,532 L1134,623 L1135,665 L1135,709 L1136,792 L1136,820 L1137,851 L1137,1051 L1138,1060 L1138,1074 L1139,1089 L1138,1095 L1138,1138 L1135,1145 L1131,1147 L1124,1148 L778,1148 L627,1147 L579,1146 L549,1146 L538,1147 L492,1147 L464,1146 L281,1146 L258,1145 L7,1145 L2,1143 L0,1141 L-2,1133 L-2,1002 L-3,985 L-2,977 L-3,928 L-4,917 L-4,815 L-5,809 L-4,795 L-5,788 L-5,756 L-6,711 L-6,672 L-7,665 L-6,658 L-5,642 L-6,618 L-6,597 L-8,593 L-8,569 L-7,565 L-6,535 L-7,531 L-6,526 L-7,513 L-8,511 L-9,500 L-9,374 L-10,315 L-10,270 L-9,248 L-10,224 L-9,178 L-9,128 L-10,124 L-10,114 L-9,107 L-9,86 L-10,77 L-10,11 L-8,4 Z M252,293 L237,296 L229,301 L219,310 L214,315 L204,327 L197,333 L193,339 L187,344 L183,349 L181,350 L181,352 L177,354 L171,361 L166,364 L162,370 L154,377 L151,382 L144,386 L137,396 L132,399 L127,404 L111,420 L105,427 L99,432 L93,439 L87,444 L84,449 L80,451 L74,459 L68,463 L63,470 L58,473 L55,481 L57,490 L60,493 L65,496 L69,503 L79,512 L82,516 L85,516 L87,521 L94,529 L97,530 L103,539 L114,547 L128,550 L171,550 L179,552 L185,556 L190,562 L195,566 L202,574 L205,577 L207,577 L208,580 L213,585 L219,590 L220,592 L222,592 L224,596 L230,603 L235,608 L237,608 L237,610 L242,614 L247,620 L249,620 L251,624 L256,629 L258,629 L260,633 L268,641 L273,646 L280,653 L288,659 L294,662 L303,664 L342,665 L543,666 L650,666 L660,664 L664,660 L662,655 L654,645 L644,636 L635,628 L630,623 L623,616 L618,611 L609,601 L602,595 L601,593 L596,590 L590,583 L585,581 L583,577 L576,569 L572,565 L566,558 L566,555 L571,553 L587,551 L798,552 L878,553 L952,553 L1051,552 L1063,549 L1066,545 L1066,421 L1062,416 L1052,413 L1037,412 L970,412 L961,409 L960,406 L963,400 L970,393 L970,391 L972,391 L976,386 L978,385 L978,383 L982,381 L988,374 L993,370 L997,365 L1002,360 L1008,355 L1008,353 L1012,352 L1018,344 L1023,339 L1029,332 L1035,328 L1042,320 L1047,315 L1056,305 L1055,301 L1050,298 L1039,296 L852,296 L526,295 L485,295 L428,294 L318,293 Z M64,574 L56,576 L51,580 L50,589 L51,605 L51,663 L52,737 L57,741 L64,743 L77,744 L161,744 L454,746 L461,748 L464,749 L465,754 L466,828 L466,849 L467,908 L467,1044 L468,1076 L470,1082 L471,1084 L480,1087 L485,1088 L629,1089 L640,1087 L648,1083 L649,1081 L649,1026 L648,975 L648,955 L647,939 L648,903 L647,860 L646,842 L646,806 L647,796 L647,752 L648,749 L667,746 L1051,746 L1062,744 L1066,742 L1067,740 L1068,722 L1068,602 L1067,583 L1063,578 L1051,576 L953,577 L715,576 L661,575 L636,575 L626,578 L623,581 L625,587 L632,595 L638,600 L645,608 L658,620 L665,628 L671,633 L676,638 L685,648 L690,650 L692,654 L697,659 L704,666 L709,671 L711,671 L712,674 L715,677 L720,682 L721,685 L720,687 L709,690 L570,690 L502,689 L428,689 L332,688 L290,688 L282,687 L277,682 L271,677 L264,669 L259,664 L252,658 L250,658 L248,654 L239,646 L232,638 L228,634 L223,628 L219,625 L217,625 L215,621 L195,601 L193,601 L192,598 L190,598 L190,596 L185,592 L180,585 L175,580 L169,577 L163,576 L146,575 Z " fill="#000000" transform="translate(88,36)"/>
<path d="M0,0 L96,0 L108,3 L110,5 L109,10 L104,15 L99,19 L92,27 L87,33 L79,40 L74,45 L70,49 L68,49 L66,53 L61,58 L59,58 L57,62 L50,70 L42,77 L38,79 L36,83 L31,90 L22,95 L16,96 L-24,96 L-41,95 L-88,94 L-92,90 L-90,84 L-83,75 L-78,71 L-73,65 L-68,61 L-61,53 L-54,47 L-52,44 L-50,44 L-48,40 L-39,31 L-34,27 L-27,19 L-19,12 L-14,8 L-10,3 Z " fill="#000000" transform="translate(348,352)"/>
<path d="M0,0 L98,0 L109,3 L112,7 L105,15 L102,18 L100,18 L98,23 L89,31 L88,33 L86,33 L85,36 L83,36 L81,40 L73,48 L71,48 L69,52 L64,57 L62,57 L61,60 L58,63 L56,63 L54,67 L50,69 L48,73 L40,81 L37,86 L30,92 L19,95 L-14,96 L-41,96 L-82,95 L-92,90 L-91,87 L-88,87 L-86,83 L-82,77 L-72,68 L-69,65 L-67,65 L-65,61 L-54,49 L-49,43 L-41,36 L-36,30 L-31,25 L-20,14 L-16,9 L-5,2 Z " fill="#000000" transform="translate(507,353)"/>
<path d="M0,0 L24,0 L89,1 L101,4 L103,8 L100,13 L90,22 L89,24 L87,24 L86,27 L84,27 L83,30 L81,30 L79,35 L74,39 L67,47 L62,51 L57,56 L52,61 L42,72 L38,75 L36,75 L34,80 L32,83 L30,83 L28,88 L21,93 L11,96 L-86,96 L-98,92 L-97,87 L-92,80 L-90,80 L-90,78 L-87,75 L-85,71 L-73,62 L-69,57 L-67,57 L-65,53 L-58,47 L-49,36 L-34,22 L-20,8 L-10,2 Z " fill="#000000" transform="translate(671,353)"/>
<path d="M0,0 L18,0 L50,1 L85,1 L97,4 L99,8 L96,11 L91,13 L89,17 L84,22 L73,31 L65,38 L63,38 L60,47 L54,55 L49,60 L45,65 L43,65 L43,67 L38,71 L36,74 L34,74 L33,77 L28,82 L19,91 L13,94 L0,96 L-86,96 L-95,94 L-100,91 L-99,86 L-92,76 L-90,76 L-88,72 L-80,64 L-75,59 L-66,50 L-62,45 L-56,40 L-50,32 L-42,25 L-22,5 L-11,1 Z " fill="#000000" transform="translate(832,354)"/>
<path d="M0,0 L94,0 L102,1 L106,3 L107,8 L101,16 L96,19 L94,19 L92,23 L87,29 L82,34 L79,37 L77,37 L77,39 L72,43 L70,43 L68,47 L61,55 L53,63 L48,67 L44,72 L39,77 L33,84 L25,91 L17,94 L10,95 L-76,95 L-91,93 L-95,90 L-95,85 L-92,82 L-90,82 L-88,78 L-83,73 L-76,67 L-70,60 L-68,60 L-68,58 L-63,53 L-59,48 L-51,41 L-47,36 L-45,36 L-44,33 L-37,27 L-35,24 L-33,24 L-32,21 L-30,21 L-29,18 L-24,13 L-16,6 L-6,1 Z " fill="#000000" transform="translate(982,355)"/>
<path d="M0,0 Z " fill="#000000" transform="translate(254,440)"/>
</svg>
