<?xml version="1.0" encoding="UTF-8"?>
<!-- Generator: visioncortex VTracer 0.6.12 -->
<svg version="1.1" xmlns="http://www.w3.org/2000/svg" width="1029" height="714">
<path d="M0,0 L19,0 L29,3 L42,9 L53,17 L58,22 L65,31 L70,39 L74,48 L76,59 L76,81 L72,94 L66,106 L59,115 L53,122 L46,126 L30,135 L23,138 L0,140 L-12,139 L-30,131 L-39,125 L-47,118 L-57,104 L-62,93 L-65,74 L-65,64 L-62,49 L-54,33 L-48,24 L-40,17 L-35,13 L-25,7 L-13,2 Z " fill="#000000" transform="translate(770,37)"/>
<path d="M0,0 L19,0 L33,5 L43,12 L50,18 L57,27 L63,39 L66,47 L70,78 L73,100 L77,128 L79,141 L88,205 L92,213 L106,217 L139,224 L160,229 L191,236 L193,237 L205,239 L229,244 L234,246 L244,247 L256,250 L266,252 L285,257 L303,260 L309,264 L308,269 L301,279 L293,291 L288,295 L276,296 L271,295 L257,295 L252,294 L206,291 L186,289 L130,285 L118,284 L99,283 L94,282 L57,280 L46,278 L35,277 L28,272 L19,255 L13,241 L9,234 L6,225 L-2,206 L-7,194 L-13,179 L-23,150 L-29,132 L-33,127 L-46,124 L-67,121 L-90,117 L-120,108 L-130,103 L-140,96 L-145,92 L-152,83 L-156,74 L-157,68 L-157,56 L-155,45 L-149,34 L-139,25 L-128,19 L-112,15 L-86,11 L-74,10 L-53,6 L-40,5 L-38,4 L-22,3 L-14,1 Z " fill="#000000" transform="translate(633,116)"/>
<path d="M0,0 L2,0 L2,4 L0,4 L-1,1 Z " fill="#000000" transform="translate(970,160)"/>
<path d="M0,0 L22,0 L39,6 L47,12 L53,16 L58,20 L63,25 L69,34 L79,47 L86,57 L94,70 L98,80 L103,85 L105,86 L148,89 L173,90 L192,92 L196,95 L194,105 L187,119 L176,146 L171,159 L162,181 L159,188 L150,209 L144,222 L140,235 L135,246 L130,259 L120,283 L116,295 L110,300 L78,302 L37,304 L13,306 L8,309 L-2,317 L-19,329 L-24,333 L-35,341 L-48,351 L-58,359 L-64,363 L-75,373 L-88,383 L-102,393 L-113,402 L-127,412 L-135,418 L-148,428 L-158,436 L-172,446 L-178,450 L-187,457 L-195,463 L-201,467 L-207,466 L-216,460 L-224,453 L-238,442 L-240,439 L-239,432 L-232,426 L-227,421 L-218,412 L-213,405 L-202,396 L-192,385 L-185,377 L-176,367 L-169,359 L-152,342 L-145,334 L-136,325 L-128,311 L-128,298 L-130,286 L-130,263 L-126,258 L-119,255 L-104,252 L-86,246 L-68,241 L-59,237 L-57,234 L-56,220 L-55,180 L-55,142 L-54,75 L-52,53 L-48,38 L-44,29 L-38,21 L-27,12 L-10,3 Z " fill="#000000" transform="translate(277,213)"/>
<path d="M0,0 L10,2 L23,7 L35,13 L52,29 L61,43 L68,62 L69,72 L68,93 L62,110 L54,124 L39,139 L30,144 L18,151 L7,154 L1,155 L-15,155 L-25,154 L-29,152 L-37,150 L-49,145 L-60,136 L-70,126 L-80,111 L-85,96 L-86,91 L-86,68 L-84,57 L-79,44 L-70,32 L-64,24 L-53,15 L-41,8 L-20,1 Z " fill="#000000" transform="translate(928,437)"/>
</svg>
