<?xml version="1.0" encoding="UTF-8"?>
<!-- Generator: visioncortex VTracer 0.6.12 -->
<svg version="1.1" xmlns="http://www.w3.org/2000/svg" width="1164" height="1296">
<path d="M0,0 L4,1 L7,4 L8,12 L4,10 Z " fill="#000000" transform="translate(1077,37)"/>
<path d="M0,0 L97,1 L100,5 L101,13 L101,1117 L99,1130 L98,1132 L86,1134 L34,1133 L22,1133 L0,1132 L0,1012 L1,1008 L0,993 Z " fill="#000000" transform="translate(0,128)"/>
<path d="M0,0 L100,1 L429,1 L519,0 L562,0 L569,1 L569,277 L491,277 L465,278 L455,280 L452,284 L451,294 L452,301 L455,303 L464,304 L562,304 L566,307 L566,316 L562,320 L458,321 L452,326 L452,341 L454,344 L464,345 L562,345 L565,346 L566,348 L566,357 L562,360 L460,361 L453,364 L452,378 L454,383 L458,385 L562,385 L566,387 L567,395 L565,401 L564,402 L498,403 L460,403 L454,406 L452,414 L453,423 L454,427 L487,428 L544,428 L561,427 L566,430 L566,442 L564,444 L544,445 L492,445 L457,446 L453,447 L452,451 L452,462 L454,468 L456,470 L528,470 L563,471 L566,473 L566,484 L562,487 L469,487 L454,489 L452,494 L452,507 L454,511 L456,512 L500,513 L563,513 L566,516 L567,522 L565,527 L562,529 L516,530 L460,530 L455,532 L453,534 L452,548 L454,553 L457,555 L561,555 L566,558 L567,560 L567,568 L564,571 L517,572 L466,572 L456,573 L453,575 L453,595 L457,598 L565,599 L566,601 L566,612 L563,614 L543,614 L481,615 L460,615 L453,619 L453,638 L462,639 L529,639 L564,640 L567,643 L567,651 L563,655 L468,656 L457,657 L453,662 L453,678 L459,681 L564,681 L567,684 L568,691 L566,695 L564,696 L526,696 L462,697 L456,699 L453,702 L453,717 L456,721 L511,721 L565,722 L567,726 L569,726 L569,733 L564,738 L460,739 L455,741 L453,747 L453,758 L455,763 L459,766 L501,765 L511,766 L518,765 L523,766 L564,766 L567,769 L569,772 L569,777 L565,782 L509,783 L475,783 L459,784 L454,786 L453,790 L453,803 L455,808 L461,810 L562,810 L566,811 L569,815 L569,821 L562,825 L461,825 L455,828 L453,833 L454,847 L456,849 L466,850 L565,850 L569,853 L569,863 L566,865 L482,866 L460,866 L455,868 L454,870 L454,888 L458,891 L541,891 L567,892 L569,893 L569,906 L566,908 L459,909 L454,914 L454,928 L457,934 L460,935 L565,935 L569,937 L569,947 L566,950 L511,951 L466,951 L456,953 L454,958 L454,970 L456,975 L458,976 L531,977 L566,977 L569,979 L569,992 L563,995 L459,995 L455,999 L454,1007 L455,1018 L459,1022 L465,1023 L512,1023 L535,1022 L569,1022 L569,1135 L538,1136 L157,1136 L132,1135 L-38,1135 L-46,1134 L-75,1135 L-118,1134 L-128,1135 L-131,1134 L-393,1134 L-397,1130 L-399,1110 L-399,1074 L-400,1029 L-400,958 L-401,762 L-401,722 L-402,645 L-402,589 L-403,513 L-403,431 L-404,347 L-404,282 L-405,207 L-405,94 L-406,34 L-405,7 L-402,2 L-371,1 L-35,1 Z M249,78 L247,84 L242,138 L241,157 L239,176 L231,273 L228,309 L227,316 L225,347 L220,412 L219,418 L216,462 L212,508 L209,549 L209,611 L210,689 L210,716 L211,786 L212,871 L211,887 L205,886 L194,881 L185,879 L166,878 L150,881 L133,890 L120,901 L113,911 L107,923 L103,936 L102,943 L102,952 L104,966 L107,976 L113,987 L124,1000 L131,1006 L141,1012 L150,1017 L161,1019 L193,1019 L205,1015 L217,1009 L226,1002 L235,992 L242,980 L246,969 L248,961 L248,736 L249,732 L254,731 L261,731 L264,734 L265,786 L265,842 L266,958 L268,968 L274,984 L281,993 L290,1003 L300,1010 L311,1015 L323,1018 L325,1019 L342,1020 L355,1018 L366,1015 L382,1007 L387,1002 L394,997 L401,987 L407,977 L411,963 L412,956 L412,942 L410,928 L405,918 L399,906 L392,899 L387,894 L378,887 L366,881 L354,878 L332,878 L317,882 L308,887 L304,886 L303,879 L302,767 L302,730 L301,582 L302,557 L299,520 L297,507 L296,489 L294,480 L291,448 L287,411 L283,367 L282,362 L280,336 L277,306 L274,274 L269,221 L266,191 L263,161 L261,144 L259,117 L254,80 L253,78 Z M-116,104 L-131,106 L-140,108 L-155,116 L-165,125 L-172,133 L-178,143 L-182,157 L-183,162 L-183,179 L-180,191 L-176,200 L-170,209 L-161,219 L-154,225 L-137,233 L-126,235 L-106,235 L-91,230 L-79,223 L-69,214 L-62,206 L-55,192 L-52,181 L-52,156 L-56,144 L-62,132 L-71,122 L-84,112 L-95,107 L-107,104 Z M-209,276 L-221,277 L-245,285 L-257,292 L-270,304 L-276,311 L-280,317 L-286,328 L-292,346 L-294,362 L-294,435 L-293,474 L-294,482 L-293,550 L-292,650 L-289,655 L-287,657 L-210,657 L-205,652 L-203,640 L-203,397 L-202,372 L-200,368 L-192,367 L-167,368 L-165,371 L-164,404 L-164,567 L-167,588 L-171,601 L-177,624 L-184,647 L-189,666 L-193,679 L-200,707 L-204,720 L-207,731 L-212,749 L-214,755 L-216,766 L-220,779 L-227,806 L-229,811 L-233,828 L-238,844 L-242,860 L-247,873 L-251,889 L-259,916 L-264,933 L-274,968 L-280,990 L-280,996 L-276,1000 L-260,1005 L-228,1013 L-218,1015 L-204,1019 L-198,1020 L-193,1017 L-188,1002 L-183,981 L-178,961 L-176,951 L-172,937 L-165,906 L-161,891 L-157,875 L-150,849 L-142,815 L-135,783 L-131,769 L-123,733 L-116,707 L-114,696 L-111,696 L-107,711 L-102,732 L-97,750 L-93,768 L-86,795 L-81,819 L-77,834 L-63,890 L-61,900 L-56,918 L-51,939 L-45,964 L-38,993 L-33,1014 L-30,1019 L-26,1021 L-12,1020 L0,1017 L25,1012 L46,1008 L54,1005 L56,1001 L56,992 L47,961 L42,943 L30,907 L26,892 L22,878 L15,858 L11,842 L5,823 L-5,789 L-11,768 L-18,747 L-25,723 L-35,690 L-43,663 L-48,648 L-53,631 L-61,605 L-67,585 L-70,575 L-71,508 L-70,426 L-70,411 L-69,371 L-66,368 L-36,368 L-33,369 L-32,372 L-31,527 L-31,632 L-30,652 L-27,657 L-24,659 L48,659 L54,655 L56,652 L56,355 L52,336 L46,321 L39,310 L25,295 L14,288 L-1,281 L-15,277 L-30,276 Z " fill="#000000" transform="translate(595,127)"/>
<path d="M0,0 L9,2 L14,6 L16,9 L16,18 L12,24 L9,26 L0,26 L-7,22 L-9,18 L-9,8 L-5,3 Z " fill="#000000" transform="translate(848,785)"/>
<path d="M0,0 L8,0 L22,6 L32,15 L36,20 L41,33 L41,47 L37,58 L31,67 L24,73 L15,78 L6,80 L-2,80 L-14,77 L-23,72 L-31,63 L-37,52 L-38,46 L-38,33 L-36,25 L-31,16 L-23,7 L-13,2 Z " fill="#000000" transform="translate(766,1036)"/>
<path d="M0,0 L9,1 L20,5 L29,11 L36,18 L42,31 L42,49 L38,61 L30,71 L18,78 L7,81 L-4,80 L-14,77 L-24,70 L-32,61 L-35,55 L-37,47 L-37,32 L-35,23 L-28,14 L-19,6 L-6,1 Z " fill="#000000" transform="translate(935,1035)"/>
</svg>
