<?xml version="1.0" encoding="UTF-8"?>
<!-- Generator: visioncortex VTracer 0.6.12 -->
<svg version="1.1" xmlns="http://www.w3.org/2000/svg" width="1134" height="1131">
<path d="M0,0 L14,0 L15,1 L23,1 L24,0 L345,0 L343,2 L325,2 L268,3 L100,4 L77,5 L29,6 L-87,7 L-116,7 L-116,3 L-109,2 L-49,2 L-3,1 Z " fill="#000000" transform="translate(116,0)"/>
<path d="M0,0 L6,0 L6,29 L7,55 L8,106 L8,128 L9,167 L9,193 L10,196 L10,561 L9,561 L8,554 L7,533 L6,428 L4,316 L2,153 L1,109 L0,37 L-1,4 Z " fill="#000000" transform="translate(1124,0)"/>
<path d="M0,0 L21,0 L29,3 L41,8 L54,15 L66,26 L71,30 L82,46 L85,51 L89,64 L92,80 L92,93 L90,109 L85,124 L78,137 L66,151 L57,159 L36,170 L27,173 L17,175 L-7,175 L-25,170 L-34,165 L-43,160 L-56,150 L-65,139 L-73,126 L-77,117 L-80,106 L-81,99 L-81,76 L-77,60 L-70,45 L-63,34 L-53,23 L-44,16 L-31,8 L-15,2 Z " fill="#000000" transform="translate(554,79)"/>
<path d="M0,0 L58,0 L74,5 L94,13 L107,23 L120,35 L127,45 L132,54 L140,72 L144,99 L145,144 L146,180 L148,182 L157,181 L173,177 L193,169 L219,157 L234,151 L247,147 L252,145 L273,141 L288,139 L330,139 L350,142 L364,145 L368,147 L370,152 L371,191 L372,254 L374,316 L375,376 L376,410 L378,533 L380,631 L380,704 L375,706 L364,702 L345,698 L333,697 L304,697 L286,699 L267,704 L251,709 L228,719 L213,728 L196,736 L183,741 L176,744 L161,748 L147,751 L127,753 L106,753 L87,751 L70,747 L52,741 L42,737 L35,733 L10,721 L-3,715 L-16,711 L-33,706 L-54,703 L-75,702 L-101,704 L-119,708 L-135,713 L-151,719 L-166,727 L-182,735 L-198,743 L-211,748 L-218,751 L-241,756 L-252,758 L-264,759 L-282,759 L-306,756 L-327,751 L-343,745 L-363,736 L-374,729 L-385,724 L-406,716 L-430,710 L-444,709 L-446,708 L-473,708 L-504,711 L-512,714 L-522,718 L-528,717 L-529,715 L-530,699 L-531,639 L-532,615 L-533,538 L-533,510 L-535,459 L-536,386 L-538,309 L-539,225 L-540,180 L-540,164 L-537,159 L-527,155 L-506,150 L-475,148 L-466,148 L-431,152 L-411,157 L-402,160 L-378,170 L-363,177 L-348,182 L-334,186 L-324,189 L-319,188 L-317,185 L-317,92 L-313,74 L-306,57 L-300,47 L-291,37 L-286,32 L-278,24 L-264,15 L-253,10 L-230,4 L-201,3 L-152,3 L-76,2 Z M36,104 L33,108 L33,148 L34,170 L37,175 L43,176 L44,175 L45,158 L44,108 L41,104 Z M-212,107 L-215,111 L-215,159 L-214,177 L-212,179 L-206,178 L-204,175 L-204,132 L-205,110 L-209,107 Z M-96,179 L-120,182 L-141,187 L-166,196 L-179,202 L-189,207 L-205,215 L-223,221 L-239,224 L-246,226 L-261,228 L-293,229 L-315,227 L-330,224 L-343,221 L-361,215 L-376,209 L-390,202 L-406,196 L-416,193 L-426,191 L-437,189 L-441,191 L-442,199 L-442,210 L-440,216 L-433,219 L-422,221 L-401,227 L-391,230 L-378,236 L-363,242 L-354,246 L-335,252 L-316,256 L-297,258 L-273,258 L-250,256 L-229,252 L-207,245 L-189,237 L-168,227 L-158,223 L-140,217 L-111,211 L-93,209 L-70,209 L-57,210 L-44,212 L-26,216 L-9,221 L15,231 L31,239 L36,241 L44,243 L59,248 L67,250 L88,253 L127,253 L142,251 L159,248 L170,245 L182,241 L198,235 L214,227 L226,222 L233,219 L257,212 L267,210 L271,207 L272,199 L272,190 L270,182 L268,181 L261,181 L246,185 L230,191 L218,196 L187,210 L180,213 L155,219 L141,222 L127,223 L92,223 L66,220 L52,216 L33,210 L17,203 L3,196 L-12,190 L-33,184 L-54,180 L-67,179 Z M-100,245 L-130,250 L-157,259 L-173,266 L-189,274 L-200,279 L-216,285 L-232,289 L-254,293 L-264,294 L-296,294 L-321,291 L-336,288 L-348,284 L-365,278 L-384,270 L-395,265 L-416,259 L-426,256 L-437,255 L-441,258 L-441,279 L-436,284 L-410,290 L-398,294 L-381,300 L-373,304 L-360,309 L-347,314 L-330,319 L-314,322 L-290,324 L-277,324 L-249,322 L-220,316 L-209,312 L-189,304 L-173,296 L-156,289 L-142,284 L-126,280 L-116,278 L-104,276 L-91,275 L-66,275 L-36,279 L-10,286 L14,296 L27,302 L40,307 L48,310 L56,312 L69,315 L87,318 L102,319 L123,319 L138,318 L163,313 L173,310 L194,303 L216,293 L242,283 L252,280 L268,276 L272,273 L272,249 L270,247 L263,247 L248,251 L228,258 L210,266 L195,273 L175,280 L160,284 L137,288 L123,289 L93,289 L76,287 L60,284 L43,279 L27,273 L8,264 L-2,259 L-20,253 L-32,250 L-53,246 L-68,245 Z M-94,311 L-116,314 L-138,319 L-153,324 L-165,329 L-182,337 L-192,342 L-207,348 L-230,355 L-251,359 L-261,360 L-300,360 L-327,356 L-338,353 L-349,350 L-373,340 L-393,331 L-416,324 L-429,321 L-438,321 L-439,322 L-439,343 L-436,348 L-430,350 L-411,354 L-401,358 L-392,361 L-380,366 L-358,375 L-347,379 L-325,385 L-309,388 L-300,389 L-259,389 L-234,385 L-211,379 L-191,371 L-162,357 L-151,353 L-134,348 L-117,344 L-93,341 L-76,341 L-55,342 L-29,347 L-7,353 L15,362 L29,369 L39,373 L52,377 L57,379 L77,383 L90,385 L130,385 L156,381 L172,377 L190,371 L216,359 L236,351 L258,344 L270,341 L274,337 L274,317 L272,313 L268,312 L247,317 L230,323 L210,332 L195,339 L188,342 L181,344 L174,346 L158,351 L142,354 L122,355 L92,355 L76,353 L59,350 L47,346 L26,338 L11,331 L-2,325 L-20,319 L-41,314 L-65,311 Z M-93,377 L-120,381 L-129,383 L-156,391 L-172,398 L-190,408 L-209,415 L-230,421 L-255,425 L-263,426 L-297,426 L-326,422 L-359,411 L-374,405 L-384,400 L-399,394 L-416,389 L-428,386 L-434,385 L-438,388 L-439,404 L-437,413 L-432,416 L-416,419 L-396,425 L-376,433 L-353,443 L-338,448 L-310,454 L-285,456 L-260,455 L-242,453 L-227,450 L-207,444 L-198,441 L-183,434 L-162,424 L-141,416 L-108,409 L-96,407 L-69,407 L-51,409 L-32,412 L-14,417 L1,422 L16,429 L32,436 L58,445 L74,448 L97,451 L130,451 L152,448 L169,444 L190,437 L204,431 L228,420 L258,410 L270,408 L274,406 L275,404 L275,381 L270,378 L250,382 L234,388 L224,392 L216,396 L198,404 L181,411 L172,413 L155,418 L135,421 L104,422 L79,420 L61,416 L52,414 L36,408 L8,395 L-5,390 L-18,385 L-39,380 L-61,377 Z M-496,430 L-497,434 L-492,435 L-493,430 Z M-91,443 L-114,446 L-139,452 L-159,459 L-182,470 L-197,477 L-209,481 L-217,484 L-240,489 L-266,492 L-292,492 L-320,488 L-332,485 L-343,482 L-360,476 L-389,463 L-413,455 L-431,451 L-435,452 L-437,455 L-437,476 L-435,480 L-420,484 L-403,488 L-399,490 L-391,492 L-368,502 L-355,508 L-339,513 L-325,517 L-309,520 L-278,522 L-258,521 L-241,519 L-218,514 L-205,510 L-180,499 L-170,494 L-160,490 L-147,485 L-128,479 L-112,476 L-85,473 L-69,473 L-45,475 L-26,479 L-12,483 L6,489 L21,496 L35,502 L54,509 L75,514 L99,517 L130,517 L158,513 L179,508 L199,500 L228,487 L244,481 L270,474 L275,472 L277,468 L277,457 L276,447 L274,444 L267,444 L248,449 L227,457 L209,465 L189,474 L169,480 L140,486 L131,487 L95,487 L70,483 L55,480 L39,474 L21,466 L11,462 L-7,454 L-28,448 L-44,445 L-74,443 Z M-85,509 L-109,511 L-136,517 L-155,524 L-167,529 L-188,540 L-212,549 L-222,552 L-231,554 L-234,555 L-245,556 L-253,558 L-300,558 L-332,552 L-350,546 L-369,538 L-396,526 L-422,519 L-431,518 L-436,521 L-436,537 L-434,544 L-431,547 L-410,552 L-395,556 L-368,567 L-352,574 L-344,577 L-332,580 L-323,583 L-313,584 L-306,586 L-272,588 L-246,586 L-214,579 L-202,575 L-187,569 L-164,558 L-152,553 L-135,547 L-111,542 L-97,540 L-63,539 L-46,541 L-28,544 L-6,550 L12,557 L28,565 L52,574 L76,580 L89,582 L103,583 L133,583 L147,581 L158,579 L160,578 L172,576 L189,571 L201,566 L224,555 L241,548 L263,542 L273,540 L278,534 L278,516 L276,511 L274,510 L263,511 L247,516 L235,520 L226,524 L199,536 L190,540 L179,544 L163,548 L144,552 L130,553 L95,553 L77,551 L53,545 L29,536 L12,528 L0,522 L-15,517 L-24,515 L-32,513 L-50,510 L-67,509 Z M-513,559 L-513,562 L-510,562 L-510,559 Z M-90,575 L-113,578 L-134,583 L-155,590 L-173,598 L-184,604 L-194,608 L-204,612 L-217,616 L-233,620 L-253,623 L-266,624 L-291,624 L-307,622 L-328,618 L-329,617 L-340,615 L-343,613 L-356,609 L-363,606 L-391,593 L-405,588 L-425,584 L-432,584 L-434,586 L-435,590 L-435,600 L-434,609 L-431,613 L-408,618 L-377,629 L-362,636 L-335,646 L-309,652 L-285,654 L-261,654 L-237,651 L-219,647 L-200,641 L-177,631 L-156,621 L-135,614 L-125,611 L-109,608 L-82,605 L-68,605 L-45,607 L-18,612 L6,620 L15,624 L34,633 L48,638 L57,641 L77,646 L90,648 L102,649 L125,649 L143,648 L160,645 L176,641 L191,636 L204,631 L219,624 L230,619 L252,611 L268,607 L276,605 L278,603 L279,599 L279,583 L277,577 L276,576 L265,577 L250,581 L240,585 L227,590 L199,603 L183,609 L169,613 L144,618 L125,619 L103,619 L85,617 L70,614 L58,612 L54,610 L46,608 L34,603 L8,591 L-14,583 L-35,578 L-63,575 Z M-93,641 L-110,644 L-134,649 L-150,655 L-161,659 L-177,667 L-186,671 L-200,677 L-210,680 L-223,684 L-247,688 L-264,690 L-287,690 L-314,687 L-333,682 L-345,678 L-356,674 L-376,665 L-393,658 L-403,655 L-413,653 L-425,650 L-432,651 L-434,658 L-433,676 L-430,679 L-399,687 L-378,695 L-362,703 L-343,712 L-328,717 L-313,721 L-296,724 L-280,725 L-251,724 L-222,718 L-209,713 L-200,710 L-184,702 L-171,695 L-159,689 L-144,683 L-124,677 L-102,673 L-80,671 L-59,671 L-36,674 L-11,680 L9,687 L27,695 L42,703 L58,710 L76,715 L94,718 L104,719 L134,719 L161,715 L173,711 L187,706 L203,699 L219,691 L246,680 L264,675 L276,672 L280,666 L280,648 L278,643 L277,642 L267,643 L243,650 L230,655 L207,666 L187,674 L177,677 L175,678 L164,679 L161,681 L142,684 L126,685 L112,685 L91,684 L68,680 L49,675 L41,671 L21,663 L10,657 L-2,652 L-23,646 L-38,643 L-60,641 Z " fill="#000000" transform="translate(649,275)"/>
<path d="M0,0 Z " fill="#000000" transform="translate(0,423)"/>
<path d="M0,0 L2,4 L0,7 Z " fill="#000000" transform="translate(0,440)"/>
<path d="M0,0 L2,1 L3,19 L3,94 L4,207 L5,251 L5,279 L6,326 L7,444 L8,520 L9,555 L10,680 L4,680 L3,668 L3,626 L2,510 L1,444 L0,440 Z " fill="#000000" transform="translate(0,451)"/>
<path d="M0,0 L25,0 L26,5 L-27,6 L-45,6 L-53,7 L-345,7 L-345,6 L-339,5 L-295,4 L-152,3 L-137,3 L-78,1 L-60,1 Z " fill="#000000" transform="translate(1108,1124)"/>
</svg>
