<?xml version="1.0" encoding="UTF-8"?>
<!-- Generator: visioncortex VTracer 0.6.12 -->
<svg version="1.1" xmlns="http://www.w3.org/2000/svg" width="1134" height="1137">
<path d="M0,0 L7,1 L8,0 L1134,0 L1134,7 L1132,7 L1132,145 L1133,209 L1134,213 L1134,1136 L1105,1135 L1046,1135 L1022,1136 L989,1136 L986,1137 L0,1137 Z M1059,5 L1044,6 L980,6 L892,8 L795,9 L729,10 L648,11 L608,11 L497,12 L425,13 L351,14 L220,15 L147,16 L112,16 L29,18 L14,20 L7,21 L6,23 L4,41 L4,117 L5,136 L7,342 L7,386 L8,458 L8,566 L9,647 L9,710 L10,765 L12,933 L12,1007 L14,1055 L14,1093 L15,1125 L18,1132 L33,1133 L38,1135 L43,1134 L44,1133 L99,1133 L189,1132 L211,1132 L321,1131 L372,1130 L395,1130 L439,1129 L529,1129 L575,1128 L635,1128 L671,1127 L686,1127 L717,1126 L740,1126 L818,1125 L837,1125 L866,1124 L1060,1121 L1101,1120 L1124,1118 L1127,1109 L1128,1086 L1128,937 L1127,860 L1126,813 L1125,701 L1125,673 L1123,568 L1122,437 L1121,365 L1119,297 L1121,286 L1120,285 L1116,109 L1113,35 L1112,22 L1112,7 L1111,6 L1081,5 Z M1124,292 L1123,295 L1126,294 L1126,292 Z " fill="#000000" transform="translate(0,0)"/>
<path d="M0,0 L8,1 L14,8 L15,15 L12,22 L12,31 L15,39 L16,41 L16,49 L8,58 L1,59 L-5,55 L-8,54 L-18,54 L-29,59 L-30,60 L-35,60 L-43,49 L-42,42 L-39,35 L-39,27 L-44,18 L-44,11 L-37,2 L-35,1 L-29,1 L-20,5 L-10,5 Z M-19,17 L-25,22 L-26,24 L-26,34 L-21,40 L-14,42 L-7,40 L-3,34 L-3,25 L-8,18 L-10,17 Z " fill="#000000" transform="translate(590,354)"/>
<path d="M0,0 L5,1 L13,7 L16,10 L16,16 L14,21 L14,35 L18,45 L17,51 L8,59 L2,60 L-5,56 L-9,55 L-16,55 L-26,61 L-31,60 L-38,54 L-41,49 L-40,43 L-38,36 L-38,27 L-42,15 L-41,10 L-34,3 L-27,2 L-21,6 L-13,7 L-6,4 Z M-14,18 L-21,21 L-24,26 L-24,35 L-21,40 L-17,43 L-9,43 L-2,37 L-1,30 L-4,23 L-8,19 Z " fill="#000000" transform="translate(446,356)"/>
<path d="M0,0 L6,1 L11,5 L17,19 L20,30 L20,36 L19,37 L-16,37 L-17,36 L-16,22 L-13,9 L-7,2 Z " fill="#000000" transform="translate(577,422)"/>
<path d="M0,0 L7,0 L13,4 L18,12 L22,26 L22,33 L20,35 L-9,36 L-12,34 L-11,18 L-7,5 L-2,1 Z " fill="#000000" transform="translate(431,426)"/>
<path d="M0,0 L29,0 L31,2 L32,11 L32,25 L29,28 L-14,28 L-19,31 L-26,41 L-37,57 L-47,72 L-60,90 L-67,100 L-77,115 L-87,129 L-100,149 L-110,165 L-119,176 L-128,185 L-138,193 L-155,203 L-175,211 L-193,215 L-212,216 L-226,217 L-226,224 L-214,265 L-215,270 L-235,270 L-245,260 L-254,249 L-268,234 L-275,226 L-282,218 L-285,217 L-321,217 L-383,218 L-411,218 L-580,220 L-603,220 L-607,222 L-615,232 L-622,240 L-633,254 L-638,260 L-640,260 L-642,264 L-650,274 L-655,275 L-669,275 L-671,270 L-664,245 L-660,231 L-659,222 L-666,221 L-690,221 L-711,214 L-722,206 L-729,199 L-736,188 L-741,176 L-745,160 L-747,150 L-754,119 L-761,88 L-765,71 L-769,56 L-772,39 L-773,36 L-811,35 L-813,33 L-814,28 L-814,13 L-812,9 L-810,8 L-650,7 L-553,6 L-495,5 L-283,3 L-196,2 L-171,2 Z M-88,15 L-174,16 L-338,17 L-390,18 L-463,19 L-493,19 L-639,21 L-691,21 L-744,22 L-746,24 L-745,36 L-740,55 L-738,68 L-734,81 L-732,93 L-727,114 L-722,135 L-720,147 L-717,159 L-716,161 L-714,173 L-708,182 L-700,189 L-692,193 L-688,194 L-636,194 L-394,191 L-368,191 L-322,190 L-294,190 L-201,189 L-187,187 L-172,182 L-154,172 L-144,163 L-133,151 L-125,140 L-116,126 L-106,111 L-97,98 L-89,86 L-76,67 L-69,57 L-57,39 L-48,26 L-45,21 L-45,16 L-47,15 Z " fill="#000000" transform="translate(949,472)"/>
<path d="M0,0 L30,0 L56,2 L74,5 L86,8 L96,10 L122,12 L147,12 L168,10 L178,8 L183,8 L184,11 L178,21 L174,23 L146,26 L125,26 L97,24 L73,20 L63,18 L48,16 L35,15 L6,15 L-22,18 L-41,22 L-43,23 L-64,26 L-87,28 L-93,29 L-119,28 L-138,26 L-164,21 L-183,18 L-195,17 L-233,17 L-259,20 L-270,23 L-295,28 L-317,30 L-366,30 L-386,27 L-391,22 L-392,13 L-390,11 L-384,12 L-371,14 L-351,16 L-316,16 L-288,12 L-272,8 L-254,5 L-222,2 L-197,2 L-170,5 L-143,10 L-116,13 L-86,13 L-63,11 L-50,8 L-33,5 L-20,3 L-3,1 Z " fill="#000000" transform="translate(637,556)"/>
<path d="M0,0 L37,1 L53,4 L65,6 L78,9 L110,12 L145,12 L145,17 L141,20 L123,21 L96,20 L78,18 L63,14 L38,10 L23,9 L3,9 L-7,10 L-20,11 L-38,14 L-55,18 L-70,21 L-92,23 L-124,23 L-143,22 L-162,19 L-184,14 L-201,12 L-216,11 L-232,11 L-246,12 L-261,15 L-268,15 L-285,20 L-312,24 L-337,26 L-362,26 L-384,24 L-392,21 L-393,14 L-392,13 L-379,14 L-366,15 L-323,15 L-300,12 L-260,4 L-246,2 L-211,2 L-187,4 L-164,9 L-148,12 L-126,14 L-100,14 L-65,11 L-34,4 L-12,1 Z " fill="#000000" transform="translate(647,593)"/>
</svg>
