<?xml version="1.0" encoding="UTF-8"?>
<!-- Generator: visioncortex VTracer 0.6.12 -->
<svg version="1.1" xmlns="http://www.w3.org/2000/svg" width="1029" height="1206">
<path d="M0,0 L50,1 L54,0 L75,1 L224,2 L301,2 L314,1 L345,2 L434,2 L597,3 L632,3 L746,4 L964,5 L969,6 L969,340 L960,341 L878,342 L867,343 L864,347 L864,358 L866,363 L868,364 L969,364 L969,379 L871,379 L865,382 L864,386 L864,397 L866,401 L868,402 L969,402 L969,416 L872,417 L865,419 L865,434 L869,438 L969,438 L969,453 L871,454 L866,457 L865,458 L865,472 L868,476 L873,477 L969,477 L969,492 L936,492 L871,493 L866,496 L865,498 L865,511 L868,514 L876,515 L969,515 L969,527 L944,528 L868,529 L865,533 L865,541 L867,548 L872,550 L937,550 L969,551 L969,564 L954,565 L870,565 L865,570 L865,585 L869,589 L875,590 L969,590 L969,603 L903,604 L871,604 L866,607 L865,610 L865,624 L869,628 L957,628 L969,629 L969,641 L956,642 L867,643 L865,649 L865,661 L869,665 L966,665 L968,669 L964,675 L954,686 L947,695 L938,706 L937,709 L937,1025 L941,1029 L944,1030 L969,1030 L969,1137 L781,1137 L724,1136 L637,1135 L379,1135 L249,1134 L37,1134 L20,1133 L14,1132 L-1,1133 L-15,1132 L-23,1129 L-25,1127 L-25,483 L-24,322 L-24,46 L-25,7 L-22,3 L-17,1 Z M268,28 L268,32 L271,31 L271,28 Z M387,126 L368,127 L356,132 L344,139 L339,143 L332,151 L328,156 L322,169 L320,176 L319,187 L319,197 L324,216 L330,227 L339,237 L342,240 L350,246 L362,251 L374,254 L392,254 L404,251 L420,243 L432,231 L438,223 L444,208 L446,198 L446,181 L443,169 L435,153 L428,145 L418,136 L403,129 L391,126 Z M767,196 L765,204 L763,227 L762,236 L760,267 L758,298 L756,316 L754,337 L751,379 L749,410 L744,469 L741,515 L738,550 L736,576 L734,606 L733,614 L733,637 L734,722 L736,895 L736,913 L729,912 L725,909 L720,907 L708,904 L690,905 L676,909 L665,915 L657,922 L650,930 L643,941 L639,954 L639,979 L645,997 L652,1006 L660,1015 L671,1022 L680,1026 L694,1029 L714,1030 L729,1026 L741,1020 L751,1012 L760,1000 L764,991 L767,978 L768,968 L768,779 L770,775 L780,775 L782,778 L783,860 L783,954 L784,976 L786,986 L792,1000 L801,1011 L810,1019 L825,1026 L835,1029 L844,1030 L859,1030 L874,1026 L889,1018 L900,1008 L909,993 L911,988 L913,976 L913,956 L908,941 L902,931 L898,926 L890,919 L883,913 L872,908 L862,905 L841,905 L827,909 L822,912 L817,911 L816,862 L816,791 L815,690 L815,613 L812,581 L810,563 L807,535 L805,519 L801,480 L798,447 L796,431 L795,415 L793,401 L790,368 L787,341 L785,315 L781,280 L779,257 L775,221 L773,205 L771,196 Z M347,285 L337,289 L323,297 L308,306 L294,314 L277,324 L267,330 L253,338 L227,353 L218,358 L208,364 L192,373 L173,385 L157,394 L149,399 L135,407 L126,413 L109,422 L96,430 L79,440 L64,449 L61,452 L61,459 L67,471 L79,491 L84,499 L90,510 L96,519 L100,523 L106,523 L115,518 L126,511 L142,503 L157,494 L167,488 L175,484 L192,474 L213,462 L237,448 L247,442 L258,436 L269,430 L280,423 L300,412 L321,400 L334,392 L337,390 L341,391 L342,426 L342,448 L341,477 L330,497 L325,506 L315,523 L309,532 L303,543 L289,567 L282,580 L275,591 L269,601 L261,615 L255,626 L249,636 L236,658 L224,679 L215,695 L210,703 L204,714 L198,724 L194,732 L194,737 L198,740 L211,741 L242,741 L342,742 L343,745 L344,789 L345,960 L345,1021 L348,1028 L351,1030 L423,1030 L428,1026 L429,1024 L429,896 L428,796 L429,744 L431,741 L450,740 L578,740 L584,737 L584,730 L577,716 L565,698 L559,688 L553,679 L543,662 L535,651 L524,633 L514,617 L507,606 L501,596 L495,585 L488,575 L479,560 L472,549 L463,535 L460,528 L452,515 L446,506 L438,492 L431,482 L427,473 L426,401 L427,389 L432,389 L442,396 L454,403 L461,407 L474,415 L495,427 L516,439 L526,445 L533,449 L548,458 L559,464 L572,472 L589,482 L605,492 L616,498 L626,504 L637,510 L647,516 L656,520 L662,519 L666,514 L672,503 L680,490 L689,473 L695,463 L699,456 L699,447 L694,442 L680,434 L670,429 L655,420 L642,412 L631,406 L614,396 L597,386 L586,380 L576,373 L563,366 L545,356 L532,348 L518,340 L507,334 L497,328 L485,321 L476,316 L461,307 L445,297 L434,291 L428,287 L422,286 L382,285 Z M463,989 L461,993 L465,995 L466,990 Z M490,1001 L489,1006 L493,1010 L494,1010 L494,1004 L491,1001 Z M447,1005 Z M475,1005 L469,1009 L468,1010 L468,1016 L472,1015 L478,1010 L478,1006 Z M452,1028 L450,1030 L450,1035 L455,1036 L456,1029 Z M488,1030 L486,1032 L487,1037 L491,1035 L492,1031 Z " fill="#000000" transform="translate(60,36)"/>
<path d="M0,0 L7,0 L14,6 L15,13 L12,19 L7,22 L1,23 L-4,20 L-7,17 L-8,14 L-8,5 Z " fill="#000000" transform="translate(832,746)"/>
<path d="M0,0 L18,0 L31,7 L38,15 L43,24 L44,30 L44,40 L42,48 L39,54 L30,64 L20,69 L15,70 L1,70 L-9,66 L-15,62 L-23,53 L-27,43 L-27,29 L-25,21 L-20,13 L-11,5 Z " fill="#000000" transform="translate(752,968)"/>
<path d="M0,0 L14,0 L27,7 L35,15 L39,24 L41,32 L41,39 L37,52 L30,61 L21,67 L10,71 L-3,70 L-13,66 L-21,60 L-28,50 L-31,42 L-31,27 L-27,18 L-23,12 L-14,4 L-8,1 Z " fill="#000000" transform="translate(907,968)"/>
</svg>
