<?xml version="1.0" encoding="UTF-8"?>
<!-- Generator: visioncortex VTracer 0.6.12 -->
<svg version="1.1" xmlns="http://www.w3.org/2000/svg" width="1113" height="1107">
<path d="M0,0 L55,0 L53,4 L41,4 L35,9 L20,12 L7,14 L-19,19 L-23,21 L-35,23 L-57,29 L-68,33 L-82,38 L-91,42 L-107,48 L-119,53 L-135,61 L-168,78 L-178,84 L-189,91 L-206,102 L-220,112 L-228,118 L-240,127 L-255,140 L-267,150 L-272,155 L-288,171 L-293,176 L-300,183 L-309,194 L-319,205 L-327,216 L-338,230 L-346,241 L-352,250 L-359,260 L-368,275 L-381,300 L-393,322 L-400,337 L-405,349 L-411,362 L-416,378 L-419,388 L-425,407 L-434,444 L-441,484 L-444,511 L-445,530 L-447,532 L-447,439 L-444,430 L-439,409 L-434,392 L-428,376 L-421,355 L-416,341 L-412,334 L-407,321 L-402,311 L-394,295 L-387,281 L-380,270 L-375,260 L-365,245 L-356,232 L-348,221 L-336,205 L-327,194 L-318,183 L-308,173 L-301,165 L-280,144 L-272,137 L-260,126 L-252,120 L-246,115 L-233,105 L-225,99 L-206,86 L-193,78 L-179,69 L-168,63 L-149,53 L-133,45 L-113,36 L-98,30 L-74,21 L-48,12 L-27,7 L-1,1 Z " fill="#000000" transform="translate(447,0)"/>
<path d="M0,0 L143,0 L143,2 L155,3 L172,7 L193,13 L220,22 L229,25 L264,40 L292,53 L304,59 L309,63 L321,69 L331,75 L340,81 L355,91 L366,100 L381,111 L392,120 L403,129 L416,141 L421,146 L430,154 L436,161 L441,166 L448,173 L455,181 L461,188 L468,196 L478,209 L482,214 L489,223 L501,240 L506,248 L512,257 L523,275 L530,288 L536,299 L540,307 L548,323 L552,333 L556,341 L559,348 L562,357 L573,389 L578,406 L583,427 L585,438 L586,439 L586,543 L584,542 L583,535 L582,510 L581,502 L580,492 L578,473 L575,452 L569,426 L565,412 L563,403 L556,381 L552,368 L544,348 L538,336 L534,326 L526,310 L513,285 L499,262 L489,246 L483,238 L474,226 L466,215 L458,205 L451,197 L440,184 L424,167 L412,155 L402,147 L397,142 L389,134 L379,126 L371,119 L360,111 L350,104 L333,95 L323,89 L309,80 L299,74 L296,67 L285,67 L273,60 L265,57 L254,52 L233,42 L221,37 L209,34 L200,31 L190,28 L170,22 L132,14 L116,11 L100,9 L97,7 L87,7 L41,4 L18,4 L2,5 L0,3 Z " fill="#000000" transform="translate(527,0)"/>
<path d="M0,0 L16,0 L32,4 L46,11 L57,21 L62,26 L69,37 L74,50 L76,62 L76,77 L73,88 L69,99 L61,111 L52,120 L41,127 L28,133 L19,135 L-2,135 L-14,132 L-29,124 L-39,115 L-44,110 L-52,98 L-58,81 L-59,74 L-59,62 L-57,50 L-51,35 L-41,21 L-34,14 L-23,7 L-14,3 Z " fill="#000000" transform="translate(478,165)"/>
<path d="M0,0 L17,1 L32,6 L45,14 L56,24 L64,35 L70,49 L73,64 L73,78 L69,93 L63,105 L56,114 L48,122 L36,130 L27,134 L17,136 L4,137 L-9,135 L-24,130 L-36,122 L-44,115 L-54,101 L-58,93 L-62,79 L-63,69 L-63,60 L-61,51 L-54,34 L-46,23 L-37,14 L-25,7 L-19,4 L-8,1 Z " fill="#000000" transform="translate(641,167)"/>
<path d="M0,0 L8,0 L24,3 L41,11 L54,22 L59,28 L65,40 L69,49 L72,64 L71,74 L69,86 L66,94 L59,107 L53,115 L39,126 L24,133 L14,135 L-6,135 L-22,131 L-36,123 L-49,111 L-59,95 L-62,88 L-64,79 L-65,66 L-63,52 L-59,39 L-50,25 L-43,17 L-34,10 L-19,3 L-11,1 Z " fill="#000000" transform="translate(344,241)"/>
<path d="M0,0 L26,0 L42,5 L55,13 L65,22 L73,33 L78,43 L82,63 L81,78 L78,89 L73,101 L65,112 L57,120 L46,127 L35,132 L29,134 L19,135 L18,133 L19,130 L15,129 L12,135 L2,135 L-12,131 L-23,125 L-32,118 L-41,109 L-47,99 L-53,83 L-54,75 L-54,59 L-51,47 L-46,35 L-40,25 L-27,12 L-13,5 Z M28,71 L24,75 L17,77 L15,80 L15,86 L19,86 L23,79 L30,78 L32,75 L31,71 Z " fill="#000000" transform="translate(767,246)"/>
<path d="M0,0 L21,0 L26,1 L42,2 L71,9 L83,13 L107,23 L126,34 L138,43 L147,50 L160,62 L169,70 L176,78 L190,96 L204,119 L213,138 L219,154 L224,169 L228,190 L230,204 L230,245 L226,271 L221,291 L216,304 L212,315 L204,330 L200,338 L191,352 L185,360 L175,373 L164,384 L162,384 L160,388 L151,395 L146,400 L133,410 L126,414 L111,423 L87,434 L71,439 L66,441 L63,441 L64,446 L74,453 L84,459 L95,466 L106,473 L111,476 L124,484 L142,495 L160,506 L178,517 L195,527 L208,535 L223,544 L243,556 L254,562 L260,566 L263,569 L271,610 L276,635 L279,649 L285,677 L289,695 L289,704 L286,713 L291,711 L300,705 L310,699 L327,687 L333,682 L347,671 L360,661 L375,647 L386,637 L391,632 L408,615 L417,604 L424,595 L429,590 L436,581 L446,570 L453,559 L460,550 L471,532 L481,515 L487,504 L495,488 L499,480 L510,457 L517,440 L521,426 L526,413 L532,395 L537,377 L542,355 L544,350 L546,338 L550,313 L553,286 L555,255 L557,253 L557,356 L555,360 L553,372 L549,387 L539,420 L533,436 L525,456 L521,466 L517,475 L513,484 L504,501 L498,512 L491,525 L480,543 L473,553 L466,563 L459,573 L451,584 L441,597 L432,608 L423,617 L416,625 L404,638 L399,642 L394,647 L385,656 L377,663 L369,670 L361,677 L350,686 L336,696 L326,703 L316,710 L305,717 L296,723 L274,735 L247,749 L238,753 L229,757 L205,767 L192,772 L180,775 L173,778 L162,781 L148,785 L132,789 L127,791 L-126,791 L-132,789 L-171,779 L-182,775 L-205,767 L-229,757 L-253,746 L-272,736 L-292,725 L-308,715 L-319,708 L-334,697 L-340,693 L-356,680 L-368,671 L-379,661 L-387,654 L-396,645 L-404,638 L-417,625 L-426,614 L-437,601 L-444,592 L-454,579 L-461,569 L-473,553 L-479,543 L-485,534 L-493,520 L-504,499 L-512,484 L-520,464 L-529,437 L-533,427 L-536,420 L-541,405 L-546,390 L-548,381 L-555,357 L-556,356 L-556,274 L-554,276 L-550,321 L-545,348 L-542,365 L-539,380 L-539,389 L-531,408 L-525,425 L-522,434 L-518,442 L-513,455 L-506,471 L-501,483 L-496,491 L-492,500 L-482,517 L-471,534 L-466,543 L-457,554 L-450,566 L-440,576 L-437,582 L-430,591 L-421,602 L-419,606 L-415,608 L-404,620 L-397,628 L-384,641 L-371,651 L-357,664 L-345,673 L-335,681 L-325,688 L-315,695 L-301,703 L-296,706 L-293,702 L-289,689 L-284,668 L-277,637 L-270,610 L-267,596 L-260,566 L-258,561 L-253,557 L-236,549 L-227,544 L-209,534 L-195,526 L-183,519 L-166,510 L-159,505 L-147,499 L-136,493 L-128,488 L-107,476 L-96,470 L-86,464 L-78,460 L-69,452 L-58,446 L-56,446 L-56,441 L-65,439 L-80,432 L-101,422 L-125,406 L-133,400 L-137,396 L-143,391 L-147,385 L-152,381 L-159,373 L-166,365 L-176,351 L-186,337 L-194,321 L-201,306 L-207,289 L-211,273 L-216,240 L-216,204 L-212,177 L-206,155 L-201,139 L-197,131 L-189,115 L-179,97 L-168,85 L-159,73 L-149,62 L-147,62 L-145,58 L-135,49 L-129,45 L-118,37 L-99,27 L-83,19 L-65,11 L-48,6 L-27,2 Z M-17,25 L-47,31 L-70,39 L-84,47 L-99,55 L-110,64 L-120,72 L-131,81 L-143,93 L-150,102 L-158,113 L-166,124 L-175,141 L-183,161 L-189,185 L-192,208 L-192,237 L-189,259 L-185,275 L-182,290 L-174,312 L-167,323 L-162,333 L-149,351 L-138,364 L-131,371 L-129,371 L-127,375 L-121,380 L-116,385 L-106,392 L-86,403 L-72,410 L-55,417 L-36,422 L-21,425 L-5,426 L16,426 L38,424 L45,422 L54,421 L80,412 L93,406 L112,396 L123,389 L134,380 L142,373 L151,364 L156,359 L166,346 L174,336 L182,324 L191,305 L197,287 L199,279 L203,262 L205,247 L206,243 L206,215 L203,188 L199,171 L193,154 L188,142 L175,118 L167,107 L161,100 L155,92 L151,87 L143,80 L134,71 L115,58 L102,49 L83,40 L60,32 L38,27 L27,25 Z " fill="#000000" transform="translate(556,316)"/>
<path d="M0,0 L17,2 L29,6 L43,14 L56,27 L65,41 L71,62 L71,75 L66,93 L59,106 L52,115 L47,120 L34,128 L22,133 L15,135 L-8,135 L-24,130 L-34,125 L-44,117 L-53,107 L-62,91 L-65,79 L-65,56 L-62,45 L-54,29 L-43,17 L-33,10 L-21,4 L-8,1 Z " fill="#000000" transform="translate(261,376)"/>
<path d="M0,0 L20,0 L33,3 L45,9 L53,15 L58,19 L65,27 L71,38 L76,50 L77,58 L77,76 L73,92 L65,107 L62,108 L60,112 L54,119 L44,126 L30,132 L21,134 L0,134 L-5,133 L-11,132 L-23,127 L-37,117 L-45,107 L-52,96 L-57,82 L-59,67 L-57,51 L-54,42 L-48,31 L-41,22 L-34,14 L-25,8 L-11,2 Z " fill="#000000" transform="translate(854,385)"/>
<path d="M0,0 L12,0 L22,5 L30,12 L34,20 L35,23 L35,36 L31,46 L21,54 L14,57 L5,58 L-2,57 L-12,49 L-17,43 L-21,31 L-20,22 L-16,12 L-9,5 Z " fill="#000000" transform="translate(486,477)"/>
<path d="M0,0 L11,0 L22,6 L29,14 L33,23 L34,26 L34,34 L30,43 L23,51 L12,57 L1,57 L-8,54 L-17,48 L-20,44 L-24,32 L-24,25 L-21,16 L-15,7 L-7,2 Z " fill="#000000" transform="translate(626,479)"/>
<path d="M0,0 L1,0 L1,5 L0,5 Z " fill="#000000" transform="translate(1112,549)"/>
<path d="M0,0 L9,0 L19,1 L27,10 L38,18 L51,23 L59,25 L72,25 L87,21 L99,15 L106,10 L113,2 L132,2 L134,4 L133,9 L126,18 L122,23 L114,29 L106,35 L94,41 L79,45 L56,45 L40,41 L30,37 L17,28 L4,15 L-2,6 L-1,1 Z " fill="#000000" transform="translate(497,610)"/>
</svg>
