<?xml version="1.0" encoding="UTF-8"?>
<!-- Generator: visioncortex VTracer 0.6.12 -->
<svg version="1.1" xmlns="http://www.w3.org/2000/svg" width="702" height="609">
<path d="M0,0 L7,0 L20,2 L27,0 L34,0 L40,4 L47,4 L52,2 L60,2 L69,5 L76,4 L81,2 L90,3 L94,6 L98,15 L110,15 L123,17 L127,21 L130,29 L132,31 L147,33 L150,35 L150,41 L149,43 L149,49 L157,52 L167,54 L176,58 L186,64 L189,69 L191,76 L199,83 L204,88 L206,96 L213,106 L219,111 L220,113 L220,127 L223,131 L223,133 L227,135 L232,139 L238,147 L238,152 L233,156 L232,161 L238,170 L242,176 L245,184 L244,193 L242,205 L240,210 L240,219 L245,227 L269,240 L277,246 L283,250 L293,259 L301,267 L310,282 L314,291 L317,298 L320,314 L321,325 L321,335 L319,346 L317,362 L313,379 L305,397 L295,419 L289,428 L282,442 L274,455 L266,467 L258,480 L253,489 L247,500 L240,510 L231,530 L226,539 L221,542 L214,541 L209,536 L203,526 L200,516 L199,509 L199,483 L204,448 L214,425 L223,400 L227,390 L235,374 L242,355 L244,347 L244,328 L240,318 L232,310 L226,309 L222,313 L218,322 L204,346 L196,356 L186,362 L162,372 L154,375 L132,381 L118,386 L109,388 L99,392 L74,399 L61,403 L50,408 L39,411 L31,415 L18,420 L7,423 L-14,432 L-30,436 L-37,436 L-41,433 L-40,419 L-31,405 L-15,396 L-5,392 L12,386 L19,381 L25,378 L26,371 L17,364 L7,358 L-4,349 L-8,347 L-15,348 L-26,357 L-37,364 L-54,373 L-63,379 L-76,389 L-83,399 L-87,410 L-93,421 L-97,426 L-105,430 L-113,430 L-121,425 L-125,420 L-127,412 L-127,404 L-123,393 L-115,377 L-106,367 L-101,362 L-96,357 L-91,352 L-85,345 L-83,341 L-83,335 L-94,334 L-106,335 L-118,341 L-128,349 L-141,358 L-158,366 L-170,373 L-180,378 L-194,383 L-199,384 L-221,385 L-241,388 L-250,390 L-265,390 L-275,386 L-280,380 L-281,376 L-281,359 L-280,335 L-277,307 L-271,286 L-267,266 L-260,247 L-254,237 L-246,227 L-240,219 L-232,211 L-228,206 L-217,198 L-208,191 L-202,188 L-197,183 L-191,180 L-186,175 L-178,162 L-172,150 L-163,138 L-161,138 L-159,132 L-152,125 L-145,115 L-137,105 L-128,95 L-121,87 L-118,83 L-116,83 L-115,80 L-110,75 L-98,63 L-87,56 L-75,45 L-70,41 L-55,32 L-44,24 L-36,17 L-20,9 L-6,3 Z M-231,287 L-233,290 L-233,296 L-230,299 L-224,298 L-222,295 L-223,290 L-226,287 Z " fill="#000000" transform="translate(348,35)"/>
</svg>
