<?xml version="1.0" encoding="UTF-8"?>
<!-- Generator: visioncortex VTracer 0.6.12 -->
<svg version="1.1" xmlns="http://www.w3.org/2000/svg" width="1194" height="1335">
<path d="M0,0 L15,1 L32,1 L87,0 L237,0 L259,2 L287,8 L304,14 L320,26 L330,36 L336,41 L341,46 L351,60 L356,70 L360,83 L362,86 L365,98 L366,105 L367,143 L367,187 L368,266 L368,368 L369,517 L370,620 L371,673 L371,724 L372,880 L368,924 L363,940 L357,951 L351,961 L344,970 L330,984 L315,995 L298,1004 L287,1009 L269,1013 L226,1015 L183,1016 L-43,1018 L-209,1018 L-240,1019 L-264,1019 L-312,1020 L-352,1020 L-466,1022 L-523,1021 L-547,1017 L-557,1014 L-576,1004 L-589,994 L-599,985 L-607,977 L-614,966 L-619,957 L-626,936 L-631,919 L-634,898 L-636,874 L-637,855 L-637,780 L-638,529 L-638,493 L-639,417 L-640,383 L-640,358 L-641,228 L-642,197 L-642,140 L-640,112 L-636,96 L-631,82 L-624,70 L-617,61 L-613,56 L-606,48 L-598,40 L-577,26 L-566,20 L-556,15 L-538,9 L-520,7 L-492,5 L-399,5 L-224,3 L-198,3 L-109,2 L-62,2 L-3,1 Z M72,6 L46,7 L-33,7 L-45,8 L-67,8 L-128,9 L-197,9 L-290,10 L-338,11 L-370,11 L-417,12 L-451,12 L-480,13 L-500,13 L-509,14 L-534,17 L-555,24 L-575,35 L-586,43 L-598,52 L-605,59 L-613,70 L-619,78 L-625,89 L-631,107 L-634,127 L-634,266 L-633,324 L-632,364 L-631,484 L-631,517 L-630,588 L-630,701 L-629,775 L-629,838 L-628,878 L-626,892 L-624,912 L-619,933 L-613,949 L-606,963 L-598,974 L-589,984 L-578,993 L-565,1001 L-555,1006 L-539,1011 L-518,1014 L-414,1014 L-409,1013 L-261,1013 L-248,1012 L-180,1011 L-79,1011 L-45,1010 L46,1010 L137,1009 L209,1008 L253,1007 L270,1005 L292,999 L312,988 L323,980 L341,962 L346,955 L350,948 L353,944 L358,929 L362,916 L363,893 L365,882 L365,832 L364,727 L363,695 L363,621 L362,495 L361,468 L362,443 L361,379 L360,337 L360,304 L361,262 L360,246 L360,152 L359,108 L355,89 L350,74 L340,56 L332,45 L324,37 L314,30 L304,23 L290,16 L276,12 L265,10 L247,7 L232,6 Z " fill="#000000" transform="translate(781,36)"/>
<path d="M0,0 L22,1 L42,5 L52,8 L72,16 L82,21 L87,25 L102,35 L115,45 L122,52 L129,60 L135,67 L144,80 L154,98 L164,123 L168,143 L170,163 L170,175 L169,192 L167,207 L165,212 L163,220 L157,237 L149,255 L143,265 L133,279 L124,288 L117,296 L109,303 L100,310 L91,316 L87,319 L82,322 L68,329 L49,336 L42,338 L26,341 L13,342 L10,343 L-18,342 L-27,340 L-41,338 L-59,332 L-81,322 L-97,312 L-110,302 L-125,288 L-131,281 L-141,268 L-145,263 L-153,247 L-157,239 L-159,231 L-163,223 L-169,194 L-169,152 L-165,129 L-157,106 L-150,92 L-142,78 L-136,70 L-128,60 L-108,40 L-101,34 L-96,31 L-87,25 L-70,16 L-51,8 L-25,2 Z M-12,41 L-30,44 L-54,52 L-71,62 L-82,70 L-95,82 L-103,91 L-110,102 L-116,111 L-123,128 L-128,146 L-130,162 L-130,186 L-125,210 L-117,230 L-109,244 L-101,255 L-96,260 L-88,269 L-77,278 L-67,285 L-51,293 L-37,298 L-24,301 L-5,303 L5,303 L25,301 L43,296 L55,291 L69,284 L81,276 L86,270 L94,263 L102,255 L111,241 L121,222 L125,211 L130,190 L131,177 L131,164 L128,145 L125,133 L119,118 L107,95 L102,90 L93,80 L88,74 L83,69 L72,61 L56,52 L40,46 L27,43 L15,41 Z " fill="#000000" transform="translate(613,149)"/>
<path d="M0,0 L22,0 L39,5 L49,11 L59,18 L65,23 L74,36 L78,44 L82,60 L82,69 L80,83 L77,93 L69,104 L65,109 L51,120 L43,126 L34,135 L32,143 L31,157 L31,167 L29,174 L25,177 L-3,177 L-7,174 L-8,170 L-9,153 L-8,125 L-6,117 L-1,108 L13,97 L23,90 L32,83 L36,78 L39,71 L39,59 L35,51 L30,46 L21,42 L18,41 L0,41 L-9,45 L-17,51 L-22,61 L-25,87 L-28,90 L-34,91 L-59,91 L-64,87 L-64,67 L-61,52 L-57,42 L-50,29 L-38,16 L-27,8 L-15,2 Z " fill="#000000" transform="translate(604,206)"/>
<path d="M0,0 L30,0 L34,3 L35,10 L35,36 L31,41 L28,42 L-1,42 L-4,39 L-5,30 L-5,13 L-4,4 Z " fill="#000000" transform="translate(601,394)"/>
<path d="M0,0 L10,0 L20,2 L34,11 L38,17 L42,26 L44,32 L45,48 L46,98 L46,120 L48,258 L50,264 L53,266 L81,266 L114,265 L206,264 L266,264 L274,263 L295,263 L307,262 L438,261 L480,261 L510,260 L513,259 L520,259 L522,260 L535,260 L556,259 L604,259 L628,258 L630,257 L631,249 L631,203 L630,136 L631,119 L633,110 L640,99 L651,90 L658,87 L664,85 L676,86 L684,89 L693,95 L701,104 L704,111 L707,131 L707,158 L709,313 L710,363 L710,380 L708,384 L709,389 L710,391 L710,456 L708,459 L705,460 L639,461 L635,456 L634,413 L633,368 L631,354 L628,352 L604,352 L511,353 L467,354 L427,354 L418,355 L334,355 L282,356 L263,357 L207,357 L170,358 L149,358 L76,359 L58,359 L51,362 L49,372 L50,390 L50,464 L45,469 L-19,470 L-24,468 L-26,461 L-27,451 L-27,407 L-28,359 L-29,250 L-31,157 L-31,134 L-32,43 L-31,28 L-25,16 L-22,12 L-20,12 L-18,8 L-8,2 Z " fill="#000000" transform="translate(280,458)"/>
<path d="M0,0 L19,0 L25,3 L33,5 L46,12 L58,23 L66,34 L71,44 L75,55 L78,68 L82,68 L84,62 L95,51 L101,48 L111,46 L120,47 L130,51 L137,57 L143,66 L146,74 L148,129 L148,173 L145,185 L142,192 L135,200 L123,206 L111,208 L85,208 L43,209 L-37,209 L-49,203 L-55,198 L-61,189 L-63,183 L-63,168 L-59,158 L-51,148 L-39,143 L-17,141 L-15,139 L-15,137 L-24,134 L-39,124 L-48,115 L-54,106 L-59,97 L-63,86 L-64,81 L-64,59 L-60,44 L-52,29 L-45,22 L-38,14 L-27,7 L-9,1 Z M74,88 L69,99 L63,109 L54,119 L45,127 L28,137 L28,140 L45,142 L57,142 L75,141 L79,138 L80,133 L80,108 L79,95 L78,88 Z " fill="#000000" transform="translate(400,503)"/>
<path d="M0,0 L109,0 L122,2 L139,10 L151,19 L158,28 L164,37 L169,50 L171,61 L172,114 L172,157 L170,160 L167,161 L118,162 L96,163 L57,163 L-18,164 L-54,164 L-125,165 L-143,166 L-156,166 L-166,165 L-169,162 L-171,153 L-172,86 L-173,31 L-172,7 L-169,3 L-126,2 L-106,2 L-65,1 Z M159,92 L159,96 L162,96 L161,92 Z " fill="#000000" transform="translate(726,545)"/>
<path d="M0,0 L4,0 L3,4 L0,3 Z " fill="#000000" transform="translate(320,951)"/>
<path d="M0,0 L5,0 L8,5 L9,30 L9,40 L10,49 L19,53 L20,58 L18,62 L11,64 L10,78 L6,82 L0,81 L-2,78 L-2,67 L-4,63 L-33,63 L-35,61 L-35,53 L-32,46 L-21,31 L-14,20 L-6,9 Z M-6,24 L-13,35 L-20,45 L-22,50 L-18,53 L-3,52 L-1,48 L-1,25 Z " fill="#000000" transform="translate(566,1101)"/>
<path d="M0,0 L24,1 L60,0 L63,3 L63,10 L60,13 L40,14 L38,17 L39,73 L39,80 L36,84 L30,84 L26,82 L25,80 L24,22 L23,15 L22,14 L-1,14 L-2,12 L-2,3 Z " fill="#000000" transform="translate(367,1102)"/>
<path d="M0,0 L5,0 L7,3 L8,10 L8,18 L4,27 L0,31 L-4,30 L-5,26 L-1,20 L-1,15 L-4,11 L-4,3 Z " fill="#000000" transform="translate(447,1103)"/>
<path d="M0,0 L15,0 L24,4 L32,11 L38,18 L43,28 L44,45 L42,58 L36,70 L29,78 L17,84 L6,86 L-1,86 L-9,83 L-19,78 L-29,66 L-32,58 L-34,50 L-33,33 L-32,26 L-28,18 L-19,7 L-8,1 Z M6,11 L-4,13 L-12,17 L-18,25 L-21,35 L-21,51 L-19,59 L-14,66 L-6,72 L3,74 L10,74 L22,68 L28,59 L31,51 L31,32 L25,21 L17,14 L10,11 Z " fill="#000000" transform="translate(314,1104)"/>
<path d="M0,0 L43,0 L46,3 L46,10 L37,23 L29,39 L25,48 L23,55 L20,74 L17,79 L10,80 L7,78 L7,69 L10,54 L17,38 L27,21 L30,17 L29,12 L12,12 L-1,13 L-5,10 L-5,4 Z " fill="#000000" transform="translate(476,1104)"/>
<path d="M0,0 L36,0 L49,4 L56,10 L60,17 L64,27 L65,30 L65,51 L60,67 L54,75 L44,81 L36,83 L4,84 L-1,81 L-2,75 L-3,3 Z M12,11 L10,14 L9,20 L10,58 L10,66 L13,71 L34,71 L40,69 L46,65 L50,59 L52,52 L53,44 L53,35 L51,27 L46,18 L41,14 L36,12 Z " fill="#000000" transform="translate(202,1106)"/>
<path d="M0,0 L89,0 L90,1 L92,23 L93,42 L93,53 L91,55 L17,57 L-30,57 L-68,58 L-157,58 L-231,59 L-255,59 L-337,60 L-393,61 L-425,61 L-490,62 L-509,62 L-539,63 L-569,63 L-748,66 L-795,67 L-844,68 L-870,68 L-905,69 L-927,70 L-948,70 L-991,71 L-1005,71 L-1036,72 L-1049,72 L-1068,73 L-1068,14 L-1009,13 L-993,13 L-956,12 L-913,12 L-911,11 L-814,9 L-766,9 L-642,7 L-560,6 L-528,6 L-499,5 L-484,5 L-456,4 L-346,4 L-287,3 L-250,3 L-81,1 Z " fill="#000000" transform="translate(1068,1229)"/>
</svg>
