<?xml version="1.0" encoding="UTF-8"?>
<!-- Generator: visioncortex VTracer 0.6.12 -->
<svg version="1.1" xmlns="http://www.w3.org/2000/svg" width="204" height="1383">
<path d="M0,0 L107,0 L107,7 L107,11 L110,30 L109,42 L106,49 L104,56 L105,63 L106,68 L111,69 L110,76 L109,77 L107,88 L106,92 L107,93 L108,117 L110,119 L111,129 L110,134 L111,141 L108,147 L108,156 L111,161 L110,165 L106,166 L106,168 L108,168 L109,175 L106,181 L107,188 L108,192 L103,197 L105,201 L107,203 L107,214 L106,216 L106,238 L108,243 L108,255 L107,262 L110,271 L107,275 L108,279 L109,284 L106,286 L107,296 L106,301 L111,306 L111,309 L106,311 L107,321 L111,321 L112,323 L113,341 L112,343 L112,355 L109,362 L109,367 L112,372 L111,378 L109,381 L110,386 L113,389 L111,393 L105,394 L105,404 L109,404 L109,399 L113,400 L114,404 L112,406 L113,414 L109,414 L109,420 L105,420 L107,424 L107,429 L107,433 L111,435 L114,441 L114,447 L112,449 L107,450 L107,451 L114,453 L113,457 L111,458 L110,467 L109,473 L111,477 L111,486 L109,495 L111,501 L113,502 L111,507 L107,512 L106,517 L111,522 L110,548 L107,551 L108,552 L108,564 L106,568 L106,575 L104,579 L104,584 L110,586 L109,590 L105,594 L100,605 L102,615 L100,620 L100,628 L96,630 L98,637 L98,643 L97,646 L98,648 L98,666 L97,670 L98,685 L95,689 L96,693 L97,695 L97,707 L99,723 L98,736 L102,737 L101,742 L99,742 L101,749 L101,756 L99,765 L98,769 L103,779 L104,783 L104,795 L106,807 L107,811 L104,814 L105,819 L111,821 L112,826 L106,838 L106,844 L107,845 L109,855 L110,858 L108,861 L107,874 L106,875 L105,884 L110,887 L108,891 L107,898 L109,907 L109,911 L107,914 L108,918 L110,922 L106,926 L107,929 L109,930 L109,932 L103,934 L106,938 L105,942 L103,944 L104,953 L103,957 L104,958 L104,979 L107,982 L106,986 L102,1005 L98,1006 L98,1009 L102,1008 L105,1011 L104,1018 L100,1022 L102,1028 L104,1030 L104,1036 L103,1037 L102,1056 L99,1057 L99,1061 L103,1063 L104,1064 L103,1073 L106,1074 L105,1077 L102,1078 L101,1100 L99,1104 L103,1109 L101,1114 L99,1118 L102,1119 L104,1124 L105,1128 L103,1132 L101,1145 L100,1146 L101,1157 L100,1163 L101,1169 L100,1173 L101,1174 L102,1188 L102,1197 L104,1201 L103,1231 L103,1245 L99,1246 L100,1248 L103,1249 L105,1263 L106,1268 L103,1272 L103,1278 L104,1280 L104,1289 L98,1289 L98,1292 L104,1293 L102,1302 L100,1306 L102,1308 L104,1313 L106,1315 L105,1320 L103,1324 L105,1326 L105,1332 L103,1335 L105,1339 L110,1342 L108,1347 L104,1348 L104,1350 L107,1351 L107,1359 L103,1363 L103,1370 L104,1376 L100,1383 L-4,1383 L-3,1372 L-5,1360 L-5,1349 L-6,1342 L-5,1340 L-5,1302 L-6,1269 L-6,1262 L-5,1258 L-5,1250 L-6,1246 L-5,1244 L-5,1224 L-6,1198 L-5,1197 L-5,1188 L-4,1185 L-4,1167 L-3,1163 L-3,1123 L-2,1119 L-2,1102 L-3,1098 L-2,1094 L-2,1086 L-4,1084 L-4,1063 L-2,1058 L-4,1055 L-3,1037 L-4,1005 L-4,981 L-3,977 L-3,959 L-4,933 L-5,924 L-5,835 L-4,825 L-4,795 L-2,780 L-3,773 L-2,766 L-3,763 L-2,758 L-3,754 L-2,753 L-2,744 L-1,741 L-1,703 L0,694 L1,690 L1,668 L2,654 L1,635 L1,604 L0,590 L-1,576 L-2,570 L-1,567 L-1,550 L-2,506 L-3,502 L-2,497 L-3,492 L-1,486 L-1,478 L-2,476 L-2,461 L-1,438 L-1,414 L-2,405 L-1,390 L-2,377 L-1,366 L-1,345 L0,328 L-1,298 L-2,291 L-1,284 L-2,256 L0,249 L-2,245 L-1,234 L-2,226 L-2,214 L-1,213 L-1,198 L-2,194 L-2,171 L-1,162 L-1,133 L0,113 L-1,94 L0,92 L-1,81 L-1,72 L0,64 Z M99,584 L98,589 L101,589 L100,584 Z M99,815 Z M98,1070 L98,1073 L100,1073 L100,1070 Z " fill="#000000" transform="translate(41,0)"/>
</svg>
