<?xml version="1.0" encoding="UTF-8"?>
<!-- Generator: visioncortex VTracer 0.6.12 -->
<svg version="1.1" xmlns="http://www.w3.org/2000/svg" width="690" height="576">
<path d="M0,0 L5,2 L8,11 L9,22 L9,32 L13,39 L11,50 L9,57 L9,79 L15,86 L20,90 L27,89 L36,80 L48,64 L50,62 L55,63 L54,70 L46,86 L37,97 L31,106 L31,115 L36,125 L43,133 L51,144 L57,156 L62,157 L73,148 L83,139 L88,135 L101,127 L104,120 L106,116 L116,114 L118,113 L136,112 L141,112 L149,107 L162,106 L172,109 L174,111 L174,117 L169,121 L144,127 L132,129 L119,130 L111,133 L103,149 L96,163 L85,175 L78,183 L73,188 L67,193 L64,196 L62,197 L62,202 L64,203 L70,203 L77,200 L91,197 L110,190 L147,179 L158,176 L173,173 L190,169 L203,165 L214,162 L240,162 L253,168 L265,173 L272,178 L272,180 L276,182 L286,189 L295,197 L303,203 L310,208 L317,217 L321,226 L322,234 L322,244 L318,257 L310,262 L299,265 L290,271 L282,277 L273,284 L264,291 L250,297 L241,298 L239,299 L226,299 L197,296 L174,293 L169,291 L161,289 L145,284 L133,281 L116,274 L109,272 L95,264 L70,258 L62,258 L61,260 L61,277 L65,283 L83,293 L91,299 L102,307 L107,312 L112,317 L121,327 L130,339 L135,344 L140,352 L142,358 L142,368 L138,372 L135,374 L130,373 L122,364 L116,359 L110,351 L105,346 L97,336 L86,327 L80,322 L75,319 L73,315 L64,308 L57,303 L52,304 L49,308 L49,315 L55,318 L65,320 L68,324 L69,328 L69,346 L67,355 L61,359 L25,358 L1,357 L-57,357 L-62,352 L-64,349 L-65,339 L-65,328 L-60,322 L-53,319 L-50,315 L-51,308 L-53,305 L-59,306 L-66,315 L-70,323 L-81,337 L-94,355 L-99,361 L-105,369 L-114,378 L-119,378 L-123,373 L-123,359 L-116,345 L-109,335 L-103,327 L-94,316 L-89,306 L-80,298 L-75,294 L-70,289 L-65,284 L-62,279 L-62,271 L-65,268 L-71,268 L-83,274 L-97,282 L-115,290 L-138,298 L-151,302 L-163,303 L-190,303 L-210,300 L-222,295 L-236,287 L-245,279 L-253,272 L-256,270 L-256,268 L-260,266 L-268,261 L-281,256 L-297,248 L-306,242 L-310,237 L-313,229 L-313,210 L-305,192 L-299,184 L-292,178 L-284,172 L-279,169 L-265,162 L-252,157 L-238,154 L-229,153 L-212,153 L-200,156 L-181,164 L-177,166 L-169,168 L-153,174 L-135,182 L-130,185 L-121,187 L-113,191 L-102,195 L-89,199 L-78,203 L-66,204 L-62,202 L-63,198 L-79,183 L-94,168 L-103,155 L-109,142 L-112,136 L-119,133 L-124,130 L-131,127 L-141,122 L-156,114 L-166,106 L-168,102 L-167,96 L-165,95 L-156,96 L-142,99 L-135,106 L-122,114 L-115,116 L-110,119 L-105,128 L-101,131 L-93,134 L-88,138 L-75,145 L-63,156 L-55,162 L-52,162 L-51,159 L-52,156 L-52,149 L-45,135 L-32,124 L-29,121 L-27,114 L-28,106 L-36,97 L-39,92 L-39,90 L-43,88 L-52,77 L-57,69 L-58,64 L-57,62 L-52,62 L-39,74 L-37,78 L-34,79 L-34,81 L-31,82 L-26,89 L-26,91 L-21,93 L-17,94 L-9,87 L-5,76 L-5,57 L-9,41 L-9,32 L-5,26 L-4,23 L-3,7 L-1,1 Z M-247,170 L-260,175 L-277,184 L-286,192 L-296,210 L-298,218 L-297,227 L-292,233 L-283,237 L-273,242 L-255,246 L-233,249 L-217,250 L-172,250 L-160,249 L-145,246 L-131,245 L-122,242 L-110,243 L-111,246 L-118,248 L-136,249 L-146,251 L-162,253 L-167,254 L-187,256 L-235,258 L-240,261 L-239,266 L-233,274 L-229,277 L-218,281 L-215,283 L-208,285 L-205,287 L-192,289 L-180,293 L-167,293 L-163,291 L-154,289 L-142,286 L-133,284 L-119,279 L-110,275 L-87,263 L-67,254 L-63,249 L-61,237 L-61,224 L-64,221 L-77,215 L-85,212 L-106,207 L-125,198 L-139,194 L-150,189 L-164,182 L-176,179 L-189,174 L-193,172 L-214,170 Z M221,175 L211,177 L198,180 L185,184 L161,189 L147,194 L137,198 L112,205 L97,208 L82,215 L67,218 L63,223 L63,236 L67,242 L79,248 L88,250 L95,253 L103,255 L111,260 L128,265 L135,268 L146,270 L158,274 L170,275 L183,280 L198,283 L220,285 L233,285 L245,283 L262,275 L264,273 L263,269 L242,268 L232,266 L209,264 L191,259 L184,257 L172,255 L157,252 L145,250 L140,247 L140,244 L148,245 L167,248 L189,251 L197,251 L217,254 L246,255 L249,256 L266,257 L278,257 L293,255 L300,252 L306,245 L309,237 L307,227 L303,219 L295,211 L285,204 L280,198 L271,192 L261,185 L249,179 L238,176 Z " fill="#000000" transform="translate(342,31)"/>
<path d="M0,0 L52,0 L56,1 L75,0 L108,1 L112,3 L114,8 L114,16 L111,29 L108,31 L80,33 L61,33 L25,32 L22,31 L7,31 L-4,30 L-9,25 L-11,9 L-9,4 L-7,2 Z " fill="#000000" transform="translate(293,407)"/>
<path d="M0,0 L5,1 L11,8 L11,18 L8,42 L2,66 L0,81 L-6,95 L-11,98 L-15,94 L-16,92 L-16,66 L-14,50 L-10,32 L-8,29 L-5,9 L-1,1 Z " fill="#000000" transform="translate(216,413)"/>
<path d="M0,0 L5,2 L11,10 L15,30 L18,48 L18,78 L19,83 L19,93 L16,96 L9,95 L3,91 L-2,81 L-4,72 L-7,31 L-7,9 L-4,3 Z " fill="#000000" transform="translate(478,412)"/>
<path d="M0,0 L22,1 L37,1 L54,2 L55,3 L55,15 L51,26 L48,29 L38,31 L13,30 L-21,29 L-43,27 L-48,22 L-51,13 L-51,5 L-48,2 L-43,1 L-16,1 Z " fill="#000000" transform="translate(341,458)"/>
<path d="M0,0 L20,2 L23,6 L22,11 L15,21 L11,26 L9,26 L7,30 L-2,42 L-6,44 L-11,43 L-22,35 L-32,26 L-37,21 L-40,19 L-40,17 L-42,17 L-48,9 L-48,4 L-46,2 L-40,1 L-19,1 Z " fill="#000000" transform="translate(356,504)"/>
<path d="M0,0 L8,0 L19,3 L38,14 L41,19 L41,25 L36,30 L29,31 L18,27 L9,21 L-2,10 L-4,7 L-3,2 Z " fill="#000000" transform="translate(498,514)"/>
<path d="M0,0 L7,0 L12,3 L12,10 L7,18 L3,21 L-5,24 L-22,24 L-27,20 L-27,14 L-23,11 L-13,6 L-8,3 Z " fill="#000000" transform="translate(184,516)"/>
</svg>
