<?xml version="1.0" encoding="UTF-8"?>
<!-- Generator: visioncortex VTracer 0.6.12 -->
<svg version="1.1" xmlns="http://www.w3.org/2000/svg" width="678" height="978">
<path d="M0,0 L12,0 L22,5 L36,17 L41,22 L42,25 L46,27 L51,34 L51,36 L53,36 L61,46 L69,60 L76,70 L84,86 L90,98 L95,111 L100,123 L106,146 L106,154 L102,164 L95,172 L88,181 L82,191 L77,201 L71,214 L67,225 L63,247 L61,269 L61,286 L63,309 L68,322 L72,333 L77,359 L78,371 L78,403 L76,420 L71,440 L69,455 L66,465 L64,475 L63,494 L66,510 L71,519 L79,526 L80,528 L80,563 L82,601 L84,626 L85,666 L85,673 L81,677 L70,678 L48,678 L37,679 L-5,679 L-38,680 L-53,680 L-83,681 L-89,682 L-90,685 L-91,715 L-93,726 L-99,735 L-107,744 L-113,747 L-119,748 L-146,749 L-203,749 L-209,746 L-223,728 L-227,721 L-228,714 L-229,688 L-230,639 L-231,628 L-231,612 L-232,583 L-233,534 L-234,513 L-234,485 L-231,479 L-225,471 L-220,465 L-212,461 L-186,460 L-124,460 L-114,464 L-103,473 L-97,481 L-96,484 L-95,500 L-95,515 L-93,523 L-80,524 L-41,524 L-13,523 L-8,521 L-6,516 L-5,505 L-5,496 L-8,465 L-11,447 L-16,434 L-23,404 L-26,378 L-26,348 L-23,334 L-23,327 L-28,322 L-31,315 L-32,309 L-34,277 L-38,249 L-43,233 L-46,228 L-51,215 L-63,185 L-69,166 L-74,149 L-75,147 L-76,134 L-77,131 L-77,112 L-76,104 L-75,93 L-72,80 L-64,64 L-56,48 L-46,35 L-37,25 L-29,18 L-18,8 Z M44,321 L38,324 L36,327 L37,336 L43,351 L47,360 L48,388 L46,406 L40,430 L36,451 L35,462 L35,496 L37,511 L39,518 L43,521 L50,521 L52,520 L53,513 L50,497 L51,472 L54,456 L61,424 L63,414 L64,396 L64,374 L63,357 L57,334 L52,324 L47,321 Z M24,525 L22,526 L23,529 L33,535 L38,541 L42,552 L42,559 L39,567 L35,571 L31,571 L33,565 L34,559 L32,557 L27,558 L16,564 L13,568 L12,571 L7,571 L4,568 L1,560 L0,553 L0,545 L4,539 L14,531 L17,529 L17,527 L7,526 L-5,527 L-10,530 L-12,541 L-12,563 L-8,576 L-3,583 L8,591 L18,594 L26,594 L38,588 L43,583 L50,573 L53,565 L53,552 L49,532 L45,527 L42,526 Z M11,547 L8,549 L8,552 L14,552 L15,548 Z " fill="#000000" transform="translate(461,31)"/>
<path d="M0,0 L11,1 L16,7 L17,12 L18,41 L19,65 L20,80 L19,92 L20,103 L21,129 L23,143 L24,180 L26,225 L26,236 L27,243 L27,258 L24,265 L18,269 L6,269 L-5,262 L-8,257 L-11,248 L-12,233 L-13,229 L-14,214 L-16,209 L-18,207 L-35,206 L-44,205 L-56,205 L-61,203 L-64,197 L-65,180 L-65,158 L-66,149 L-68,114 L-69,85 L-69,72 L-65,68 L-55,66 L-35,65 L-26,64 L-23,62 L-21,56 L-21,25 L-20,14 L-17,8 L-12,4 L-5,1 Z " fill="#000000" transform="translate(624,494)"/>
<path d="M0,0 L24,0 L28,3 L29,11 L28,37 L28,113 L29,144 L27,149 L23,151 L8,152 L0,155 L-5,160 L-6,164 L-6,192 L-5,253 L-3,327 L-2,361 L-2,384 L-6,388 L-9,389 L-54,390 L-102,390 L-112,391 L-123,391 L-133,388 L-137,384 L-138,379 L-141,324 L-141,305 L-142,248 L-143,239 L-144,213 L-147,169 L-147,131 L-148,104 L-148,79 L-146,62 L-140,46 L-134,34 L-126,27 L-114,16 L-98,8 L-86,4 L-68,2 Z " fill="#000000" transform="translate(178,559)"/>
</svg>
