<?xml version="1.0" encoding="UTF-8"?>
<!-- Generator: visioncortex VTracer 0.6.12 -->
<svg version="1.1" xmlns="http://www.w3.org/2000/svg" width="924" height="861">
<path d="M0,0 L6,1 L17,10 L23,15 L29,23 L36,31 L41,36 L48,36 L53,31 L61,23 L66,17 L71,14 L76,12 L94,10 L98,12 L100,16 L99,21 L94,24 L83,26 L78,29 L77,38 L77,44 L75,47 L62,51 L51,58 L49,59 L42,59 L37,56 L29,46 L24,43 L10,29 L6,28 L3,36 L0,55 L0,62 L3,67 L24,70 L37,72 L49,74 L64,78 L86,85 L91,84 L97,77 L109,68 L115,63 L122,55 L124,54 L134,54 L144,50 L152,45 L156,40 L162,35 L169,27 L174,22 L178,23 L178,30 L174,39 L169,47 L161,54 L148,62 L145,65 L141,75 L138,77 L122,79 L114,83 L112,86 L112,94 L117,100 L126,104 L132,103 L137,101 L139,97 L150,89 L161,83 L167,79 L182,73 L192,69 L201,66 L219,62 L246,60 L262,61 L270,61 L300,68 L319,75 L332,82 L344,89 L349,93 L357,99 L362,104 L369,110 L376,118 L383,127 L389,135 L393,139 L393,141 L395,141 L407,163 L415,185 L419,212 L422,224 L421,247 L418,269 L409,300 L399,319 L389,334 L383,342 L374,352 L369,357 L359,368 L351,374 L349,378 L350,385 L359,401 L364,411 L368,421 L373,434 L379,455 L382,475 L383,486 L383,507 L382,523 L379,541 L370,568 L362,588 L354,601 L352,606 L353,613 L359,620 L367,627 L379,638 L389,646 L394,652 L405,661 L415,670 L423,677 L436,685 L452,702 L455,705 L462,709 L467,714 L475,721 L480,726 L483,731 L484,743 L480,749 L471,758 L463,765 L458,770 L454,772 L445,772 L434,764 L426,757 L418,750 L409,741 L398,732 L384,719 L376,712 L366,703 L353,692 L341,682 L341,680 L337,678 L332,674 L332,672 L328,670 L318,661 L312,657 L305,656 L297,660 L287,668 L275,674 L265,679 L257,683 L242,687 L228,691 L212,695 L188,696 L168,696 L149,695 L140,692 L124,691 L120,695 L116,711 L111,723 L104,739 L95,752 L86,762 L77,773 L66,782 L50,791 L35,797 L23,800 L7,803 L-4,804 L-17,804 L-42,800 L-49,797 L-58,794 L-70,789 L-80,783 L-88,777 L-96,771 L-103,765 L-109,760 L-116,750 L-123,739 L-130,729 L-136,710 L-139,696 L-140,687 L-140,669 L-139,654 L-134,636 L-129,623 L-125,615 L-121,608 L-117,603 L-110,591 L-111,586 L-126,578 L-142,570 L-154,563 L-164,556 L-170,552 L-183,542 L-194,533 L-201,526 L-201,524 L-205,522 L-211,515 L-216,508 L-222,503 L-226,498 L-230,494 L-238,483 L-250,462 L-258,449 L-266,431 L-269,421 L-273,412 L-276,398 L-279,389 L-281,374 L-282,370 L-283,354 L-285,337 L-286,321 L-287,319 L-294,320 L-300,329 L-305,335 L-310,336 L-318,336 L-333,345 L-337,348 L-345,348 L-349,344 L-348,337 L-339,331 L-328,323 L-325,319 L-323,312 L-319,308 L-301,302 L-290,295 L-283,289 L-279,281 L-276,264 L-266,234 L-264,226 L-265,219 L-271,219 L-274,221 L-293,221 L-306,219 L-318,213 L-321,209 L-322,206 L-321,174 L-321,158 L-320,152 L-320,142 L-323,139 L-331,139 L-336,141 L-348,142 L-361,142 L-367,144 L-375,144 L-381,141 L-383,139 L-382,132 L-379,130 L-359,129 L-343,123 L-339,121 L-321,122 L-309,123 L-303,128 L-302,135 L-302,156 L-303,162 L-303,183 L-301,189 L-291,189 L-277,185 L-264,183 L-256,180 L-255,172 L-258,151 L-258,130 L-255,111 L-253,100 L-248,84 L-240,69 L-234,62 L-226,55 L-216,49 L-202,42 L-197,38 L-189,34 L-177,30 L-174,28 L-165,28 L-156,25 L-124,26 L-111,29 L-102,33 L-95,35 L-82,43 L-66,51 L-53,62 L-47,64 L-43,60 L-40,55 L-37,46 L-28,27 L-20,17 L-15,10 L-4,2 Z M245,87 L221,89 L197,95 L181,103 L168,110 L158,118 L158,120 L153,122 L146,129 L138,135 L128,140 L127,145 L130,155 L133,162 L136,174 L136,188 L130,197 L119,210 L106,221 L101,226 L96,230 L84,237 L75,244 L63,249 L57,254 L45,260 L40,264 L39,269 L43,279 L47,290 L50,299 L52,310 L53,325 L56,332 L60,335 L68,338 L79,340 L89,345 L106,350 L122,359 L138,367 L148,373 L160,382 L171,382 L176,387 L180,395 L185,401 L196,405 L207,406 L215,405 L225,405 L225,411 L215,417 L204,419 L186,419 L173,415 L166,410 L159,406 L149,399 L139,394 L126,392 L109,392 L105,391 L90,390 L83,387 L62,385 L53,385 L49,387 L48,394 L50,401 L50,408 L48,417 L49,427 L58,448 L64,464 L73,480 L77,480 L81,468 L85,463 L91,462 L96,465 L109,467 L120,472 L126,475 L126,479 L122,480 L108,478 L97,478 L93,482 L91,497 L90,504 L90,513 L91,522 L99,539 L104,552 L111,566 L112,569 L112,576 L108,581 L106,582 L97,582 L91,578 L81,563 L71,544 L62,534 L51,529 L39,524 L32,521 L28,520 L21,520 L17,525 L13,537 L8,538 L7,536 L7,509 L11,502 L13,501 L20,501 L32,506 L36,508 L41,507 L43,502 L37,491 L26,474 L13,457 L4,445 L-3,442 L-13,439 L-22,434 L-25,431 L-30,432 L-35,437 L-44,458 L-49,468 L-53,475 L-62,487 L-74,501 L-77,507 L-77,524 L-76,531 L-75,559 L-73,567 L-69,572 L-57,578 L-55,578 L-54,584 L-56,588 L-68,596 L-81,607 L-87,612 L-95,623 L-103,638 L-109,655 L-110,662 L-110,689 L-105,708 L-101,716 L-97,727 L-88,738 L-83,744 L-81,744 L-79,748 L-69,755 L-59,762 L-48,767 L-33,772 L-28,774 L-20,774 L-12,776 L13,774 L30,768 L39,764 L53,756 L60,749 L65,744 L69,739 L77,727 L80,719 L83,711 L86,702 L88,696 L89,662 L90,659 L96,655 L105,651 L116,647 L131,641 L152,633 L161,628 L179,622 L188,617 L191,613 L191,602 L188,591 L184,568 L181,558 L177,538 L173,519 L171,509 L171,501 L175,497 L186,496 L203,496 L207,497 L219,497 L232,498 L253,499 L272,500 L303,500 L309,495 L311,489 L313,465 L316,419 L319,397 L321,372 L322,361 L325,356 L334,349 L342,344 L351,338 L357,331 L363,323 L369,315 L376,305 L384,290 L388,275 L392,262 L394,248 L394,233 L392,210 L387,192 L380,171 L372,155 L360,141 L351,130 L342,122 L333,116 L323,109 L308,100 L293,95 L275,90 L253,87 Z M-7,94 L-12,99 L-14,103 L-14,112 L-5,127 L4,143 L10,154 L23,185 L27,196 L29,203 L34,211 L39,212 L50,207 L67,198 L83,191 L102,181 L115,176 L118,171 L117,165 L113,158 L111,158 L109,154 L108,135 L103,125 L96,119 L75,108 L60,104 L51,101 L35,97 L20,95 L8,94 Z M-236,236 L-241,243 L-250,270 L-253,282 L-256,297 L-256,327 L-252,336 L-246,344 L-241,348 L-236,351 L-232,360 L-228,369 L-224,370 L-213,362 L-203,353 L-192,345 L-181,337 L-174,329 L-174,324 L-185,307 L-194,296 L-200,287 L-205,279 L-214,262 L-221,253 L-227,242 L-231,237 Z M-139,363 L-147,368 L-160,374 L-176,382 L-194,389 L-215,395 L-222,397 L-229,396 L-235,391 L-239,386 L-241,386 L-241,384 L-247,381 L-250,385 L-249,395 L-244,414 L-233,440 L-227,451 L-220,461 L-212,474 L-207,481 L-205,481 L-203,486 L-201,489 L-199,489 L-197,493 L-187,504 L-179,511 L-175,516 L-164,524 L-156,531 L-145,538 L-137,543 L-121,552 L-112,556 L-96,562 L-89,562 L-87,560 L-87,554 L-93,545 L-93,522 L-98,503 L-98,485 L-95,458 L-89,437 L-84,422 L-83,411 L-87,404 L-99,395 L-108,383 L-114,375 L-121,367 L-129,363 Z " fill="#000000" transform="translate(413,29)"/>
</svg>
