<?xml version="1.0" encoding="UTF-8"?>
<!-- Generator: visioncortex VTracer 0.6.12 -->
<svg version="1.1" xmlns="http://www.w3.org/2000/svg" width="576" height="630">
<path d="M0,0 L14,0 L24,9 L38,24 L45,25 L52,22 L64,13 L79,4 L90,2 L96,2 L100,6 L99,13 L92,20 L90,24 L91,30 L96,32 L113,36 L125,38 L131,40 L152,43 L157,45 L170,47 L189,55 L205,63 L217,70 L228,78 L233,81 L243,90 L248,95 L262,110 L269,117 L279,134 L285,146 L293,168 L299,197 L301,220 L302,234 L302,264 L299,291 L294,308 L292,318 L284,338 L275,354 L265,368 L256,378 L245,390 L237,396 L224,406 L200,419 L193,424 L184,429 L174,435 L157,444 L145,453 L131,462 L120,471 L110,480 L104,487 L96,498 L90,507 L87,512 L78,523 L71,537 L65,553 L61,558 L59,559 L52,559 L47,556 L40,547 L32,531 L24,516 L16,505 L5,491 L-5,478 L-12,473 L-19,469 L-25,464 L-31,461 L-39,455 L-57,445 L-73,436 L-92,426 L-103,419 L-116,412 L-130,404 L-142,393 L-144,384 L-148,383 L-153,383 L-163,374 L-173,361 L-181,349 L-187,340 L-189,332 L-196,315 L-199,304 L-202,288 L-205,273 L-206,260 L-206,228 L-204,201 L-201,181 L-198,170 L-195,160 L-190,147 L-186,138 L-181,126 L-176,119 L-172,111 L-162,99 L-155,91 L-147,84 L-139,78 L-132,72 L-121,66 L-114,62 L-105,58 L-85,51 L-72,47 L-63,44 L-53,42 L-40,38 L-20,34 L-3,32 L3,29 L6,24 L3,16 L-2,6 L-1,1 Z M-66,156 L-72,161 L-79,172 L-82,182 L-86,193 L-89,212 L-91,226 L-91,245 L-90,262 L-85,288 L-81,301 L-76,312 L-71,322 L-61,339 L-50,352 L-42,359 L-32,368 L-22,376 L-10,385 L5,395 L17,406 L25,413 L29,419 L28,427 L23,441 L18,454 L16,464 L17,471 L24,485 L32,496 L36,502 L43,512 L50,520 L55,520 L62,511 L71,495 L78,487 L83,479 L83,465 L79,455 L71,442 L66,434 L58,425 L53,420 L41,406 L30,395 L11,381 L-1,373 L-8,367 L-19,359 L-29,350 L-37,343 L-47,330 L-54,323 L-60,311 L-66,296 L-70,283 L-72,278 L-76,251 L-76,228 L-74,211 L-72,198 L-67,187 L-62,172 L-59,164 L-60,157 L-61,156 Z " fill="#000000" transform="translate(241,38)"/>
</svg>
