<?xml version="1.0" encoding="UTF-8"?>
<!-- Generator: visioncortex VTracer 0.6.12 -->
<svg version="1.1" xmlns="http://www.w3.org/2000/svg" width="1122" height="780">
<path d="M0,0 L7,1 L23,8 L31,13 L38,16 L46,21 L67,33 L96,48 L119,61 L143,74 L159,82 L175,91 L200,104 L212,111 L229,120 L243,128 L258,136 L262,139 L272,144 L289,153 L311,165 L327,173 L341,181 L357,189 L371,197 L380,201 L392,207 L408,211 L420,212 L430,214 L435,215 L458,216 L471,218 L480,222 L489,227 L498,229 L503,234 L503,236 L509,238 L517,244 L528,251 L538,257 L548,265 L550,268 L549,276 L545,286 L537,303 L534,310 L530,317 L526,327 L518,344 L510,360 L504,372 L498,379 L492,379 L475,372 L466,369 L454,368 L436,358 L425,352 L417,347 L398,338 L379,328 L370,323 L342,308 L321,296 L313,291 L299,283 L281,272 L268,264 L257,257 L249,252 L242,248 L234,241 L225,235 L209,223 L200,218 L185,207 L173,198 L165,192 L156,185 L145,177 L133,168 L128,164 L125,161 L114,153 L102,144 L91,135 L73,121 L63,113 L52,105 L43,98 L35,92 L21,81 L8,70 L-4,60 L-16,52 L-27,43 L-41,32 L-50,24 L-51,20 L-49,17 L-42,14 L-30,11 L-20,7 L-7,3 Z " fill="#000000" transform="translate(86,37)"/>
<path d="M0,0 L16,1 L31,7 L40,13 L47,19 L56,31 L63,46 L65,58 L65,73 L60,88 L52,98 L45,106 L37,112 L26,117 L15,120 L2,122 L-3,125 L-12,136 L-18,145 L-29,161 L-35,168 L-42,179 L-52,192 L-63,208 L-73,223 L-79,230 L-86,241 L-92,249 L-103,263 L-111,275 L-122,289 L-129,300 L-135,312 L-143,328 L-156,356 L-162,371 L-166,380 L-166,387 L-163,389 L-84,390 L-7,390 L-3,393 L-2,396 L-2,420 L-3,446 L-7,450 L-26,450 L-88,449 L-142,449 L-233,448 L-499,448 L-502,445 L-503,439 L-503,394 L-500,390 L-497,389 L-336,389 L-303,390 L-238,389 L-235,386 L-233,377 L-231,348 L-228,336 L-223,298 L-220,270 L-217,247 L-216,234 L-214,219 L-210,190 L-208,175 L-206,159 L-203,151 L-201,149 L-194,149 L-178,152 L-173,154 L-152,156 L-147,159 L-145,164 L-147,175 L-149,180 L-151,190 L-154,200 L-159,226 L-163,242 L-166,258 L-162,257 L-154,241 L-145,224 L-139,212 L-133,201 L-126,187 L-121,179 L-116,169 L-108,153 L-100,138 L-92,122 L-89,116 L-81,100 L-80,93 L-85,88 L-98,77 L-105,70 L-113,60 L-123,45 L-126,34 L-126,25 L-123,19 L-117,12 L-111,8 L-94,5 L-58,4 L-38,2 L-10,1 Z " fill="#000000" transform="translate(867,298)"/>
<path d="M0,0 L15,0 L24,1 L35,5 L48,12 L56,18 L59,22 L59,24 L63,26 L69,35 L76,50 L78,60 L78,73 L76,85 L70,99 L64,108 L55,118 L46,125 L30,133 L18,136 L0,137 L-21,132 L-34,124 L-44,113 L-48,108 L-54,98 L-57,91 L-60,76 L-60,61 L-56,44 L-46,28 L-37,19 L-31,12 L-14,3 Z " fill="#000000" transform="translate(1010,312)"/>
<path d="M0,0 L2,0 L3,3 L0,3 Z " fill="#000000" transform="translate(455,466)"/>
</svg>
