<?xml version="1.0" encoding="UTF-8"?>
<!-- Generator: visioncortex VTracer 0.6.12 -->
<svg version="1.1" xmlns="http://www.w3.org/2000/svg" width="1131" height="1137">
<path d="M0,0 L3,0 L2,42 L0,43 Z " fill="#000000" transform="translate(0,0)"/>
<path d="M0,0 L2,2 L0,4 Z " fill="#000000" transform="translate(0,48)"/>
<path d="M0,0 L1,4 Z " fill="#000000" transform="translate(0,68)"/>
<path d="M0,0 L1,0 L1,5 L0,5 Z " fill="#000000" transform="translate(0,89)"/>
<path d="M0,0 Z " fill="#000000" transform="translate(0,160)"/>
<path d="M0,0 L20,0 L31,3 L41,9 L51,18 L56,24 L62,34 L64,42 L66,54 L65,60 L61,63 L-41,63 L-44,58 L-43,43 L-39,31 L-31,19 L-26,13 L-16,6 L-4,1 Z " fill="#000000" transform="translate(397,330)"/>
<path d="M0,0 L131,0 L137,1 L142,0 L260,0 L267,1 L274,1 L279,4 L282,7 L284,15 L283,26 L283,38 L284,39 L366,39 L436,40 L449,43 L460,49 L469,57 L477,68 L482,79 L490,95 L501,118 L507,129 L509,131 L526,133 L545,136 L557,141 L573,149 L581,155 L589,161 L599,165 L610,167 L620,169 L622,170 L638,172 L654,175 L669,177 L679,180 L712,186 L715,188 L736,191 L748,193 L761,196 L786,201 L806,205 L812,206 L812,202 L799,193 L789,186 L779,179 L769,172 L756,163 L747,156 L732,147 L720,138 L710,131 L699,124 L689,117 L679,110 L668,102 L649,89 L633,77 L618,67 L605,58 L591,48 L577,38 L573,35 L574,29 L581,27 L590,26 L608,26 L619,28 L630,31 L642,36 L653,43 L663,50 L676,59 L686,66 L696,73 L706,80 L716,87 L728,95 L738,102 L749,110 L764,120 L775,128 L782,132 L792,139 L802,146 L812,153 L827,163 L832,167 L837,170 L848,178 L863,188 L876,197 L884,203 L895,210 L901,214 L906,218 L917,226 L926,233 L932,237 L942,244 L956,253 L966,260 L977,267 L987,275 L999,283 L1003,287 L1008,290 L1013,293 L1023,300 L1025,304 L1024,309 L1018,317 L1008,335 L1007,336 L1002,336 L991,328 L983,322 L968,312 L959,306 L942,294 L926,283 L915,274 L905,267 L897,264 L848,261 L793,257 L785,256 L755,255 L699,251 L649,249 L637,249 L638,253 L647,260 L668,274 L678,281 L687,287 L697,294 L706,300 L716,307 L729,316 L748,328 L765,340 L775,347 L792,358 L802,365 L836,388 L841,392 L852,398 L854,399 L878,399 L1019,401 L1021,403 L1021,439 L1018,443 L999,444 L908,444 L707,443 L310,443 L295,441 L281,437 L269,432 L258,424 L248,415 L240,406 L239,399 L241,397 L258,397 L284,398 L291,397 L301,398 L378,398 L430,397 L469,398 L767,398 L766,394 L750,386 L738,380 L722,372 L707,364 L691,356 L675,348 L656,338 L640,330 L625,322 L609,315 L590,305 L550,285 L533,276 L517,268 L500,259 L484,251 L455,236 L445,228 L431,217 L419,208 L406,197 L395,189 L389,184 L384,181 L376,174 L370,170 L359,161 L349,154 L331,140 L324,137 L315,141 L298,150 L281,158 L265,166 L254,172 L249,170 L242,159 L233,146 L226,136 L214,119 L204,104 L193,88 L182,72 L176,63 L169,53 L161,40 L161,38 L153,37 L97,37 L80,38 L72,31 L64,22 L59,19 L37,19 L31,18 L29,19 L-7,19 L-9,17 L-9,4 L-6,1 Z M199,36 L198,38 L198,44 L207,54 L215,61 L232,77 L242,86 L249,94 L255,99 L259,98 L264,93 L272,85 L273,78 L268,71 L257,62 L241,47 L233,41 L227,36 Z M293,102 L292,105 L294,105 Z " fill="#000000" transform="translate(51,369)"/>
<path d="M0,0 L4,0 L4,2 L0,2 Z " fill="#000000" transform="translate(133,745)"/>
<path d="M0,0 L4,1 L3,4 L0,4 Z " fill="#000000" transform="translate(288,870)"/>
</svg>
