<?xml version="1.0" encoding="UTF-8"?>
<!-- Generator: visioncortex VTracer 0.6.12 -->
<svg version="1.1" xmlns="http://www.w3.org/2000/svg" width="1119" height="1125">
<path d="M0,0 L599,0 L600,1 L611,1 L614,0 L617,1 L671,2 L742,3 L808,5 L826,5 L868,6 L918,7 L939,7 L956,8 L1017,9 L1091,11 L1115,12 L1115,677 L1114,686 L1113,712 L1113,744 L1111,878 L1110,902 L1110,987 L1109,1036 L1108,1059 L1107,1113 L1106,1125 L319,1125 L317,1124 L261,1123 L190,1122 L153,1121 L135,1121 L110,1120 L38,1119 L25,1118 L0,1118 L-4,1117 L-4,159 L-3,157 L-2,103 L-1,5 Z M129,407 L129,411 L135,411 L135,408 Z M380,498 L370,502 L363,510 L360,519 L361,528 L364,534 L371,540 L375,542 L391,543 L391,549 L383,565 L378,576 L370,593 L367,598 L356,621 L350,633 L339,656 L334,665 L329,667 L320,665 L315,663 L303,661 L299,660 L285,659 L252,659 L235,662 L215,667 L195,675 L178,684 L162,696 L152,704 L145,710 L138,718 L129,728 L122,738 L114,751 L104,772 L99,787 L95,801 L92,820 L91,839 L92,858 L96,882 L101,898 L105,910 L117,933 L124,943 L131,952 L140,963 L148,970 L159,980 L173,990 L183,995 L202,1005 L230,1014 L246,1017 L270,1019 L287,1018 L308,1015 L327,1010 L347,1002 L359,996 L363,993 L374,987 L390,974 L397,967 L403,962 L408,955 L413,950 L425,933 L431,922 L438,908 L443,895 L449,873 L451,857 L452,837 L451,819 L449,804 L447,798 L445,788 L438,768 L430,752 L419,734 L412,725 L408,720 L401,712 L390,702 L382,695 L374,689 L374,681 L377,674 L385,658 L388,652 L388,650 L393,652 L401,663 L408,673 L418,687 L428,701 L436,712 L447,727 L454,737 L458,745 L466,756 L480,775 L488,786 L495,796 L504,809 L512,820 L526,840 L539,858 L549,872 L554,877 L561,880 L640,881 L654,882 L658,883 L660,894 L666,912 L674,931 L681,943 L689,955 L698,966 L702,971 L710,978 L720,988 L728,993 L737,1000 L753,1009 L778,1020 L801,1026 L813,1028 L834,1029 L844,1029 L870,1026 L892,1020 L908,1014 L928,1003 L938,997 L947,990 L957,982 L964,975 L969,970 L976,962 L983,953 L990,942 L997,931 L1007,906 L1013,883 L1016,859 L1016,836 L1013,812 L1009,797 L1004,782 L996,766 L988,751 L980,741 L969,727 L952,710 L941,702 L930,695 L912,685 L903,681 L894,678 L881,674 L859,670 L850,669 L823,669 L802,671 L792,674 L783,676 L771,680 L756,687 L752,686 L744,675 L734,661 L726,650 L717,635 L717,629 L725,613 L731,601 L738,587 L741,585 L776,584 L781,582 L788,571 L797,551 L798,546 L796,541 L795,540 L782,539 L681,537 L665,537 L659,541 L653,550 L645,568 L643,573 L643,578 L647,581 L653,582 L687,583 L691,585 L690,590 L683,604 L678,607 L649,607 L609,606 L533,605 L515,605 L416,602 L417,594 L431,565 L439,549 L444,544 L513,544 L518,540 L520,534 L520,507 L516,501 L504,500 L430,498 Z " fill="#000000" transform="translate(4,0)"/>
<path d="M0,0 L141,2 L189,3 L207,4 L211,7 L210,12 L202,28 L194,45 L184,64 L176,80 L167,97 L159,113 L151,129 L143,145 L133,166 L127,177 L123,178 L115,168 L106,156 L92,137 L88,131 L79,119 L70,107 L62,96 L55,87 L46,73 L40,65 L34,57 L27,47 L16,32 L9,22 L7,15 L5,15 L-1,6 L-1,1 Z " fill="#000000" transform="translate(451,646)"/>
<path d="M0,0 L4,1 L14,15 L21,25 L23,29 L22,35 L15,43 L9,48 L2,57 L-7,70 L-20,93 L-28,115 L-32,130 L-37,155 L-40,157 L-74,157 L-77,155 L-76,150 L-71,139 L-63,123 L-49,94 L-42,80 L-34,65 L-26,49 L-20,37 L-12,21 L-4,6 L-2,1 Z " fill="#000000" transform="translate(696,681)"/>
<path d="M0,0 L31,0 L43,2 L55,5 L57,7 L56,15 L49,31 L41,47 L35,59 L27,75 L19,92 L14,102 L6,118 L2,126 L-7,145 L-7,153 L-3,157 L18,167 L24,167 L30,159 L39,142 L47,125 L55,109 L63,93 L75,69 L78,62 L90,39 L95,30 L97,28 L102,29 L104,30 L104,32 L108,34 L116,41 L125,51 L131,59 L137,68 L143,79 L148,89 L153,105 L155,113 L156,127 L156,149 L153,169 L148,186 L139,205 L131,216 L125,224 L116,234 L108,241 L98,249 L76,261 L49,270 L29,273 L9,273 L-12,270 L-17,268 L-26,266 L-43,259 L-59,250 L-67,244 L-78,235 L-87,225 L-99,208 L-107,194 L-113,179 L-117,163 L-119,152 L-120,128 L-116,101 L-113,93 L-107,77 L-100,64 L-93,54 L-82,41 L-77,36 L-75,36 L-75,34 L-61,23 L-45,14 L-27,6 L-12,2 Z " fill="#000000" transform="translate(257,702)"/>
<path d="M0,0 L16,0 L28,1 L50,7 L63,12 L83,23 L96,33 L112,49 L124,66 L133,81 L138,96 L143,121 L144,130 L144,146 L142,165 L136,185 L131,197 L122,213 L114,224 L104,235 L93,244 L88,248 L69,259 L55,265 L37,270 L16,273 L2,273 L-12,272 L-27,269 L-39,265 L-54,259 L-71,249 L-85,238 L-99,224 L-110,208 L-117,196 L-122,186 L-124,178 L-124,171 L-121,169 L43,169 L46,172 L48,171 L48,167 L50,163 L47,154 L43,149 L29,128 L22,119 L13,105 L1,88 L-5,80 L-11,70 L-24,53 L-33,39 L-41,28 L-47,19 L-48,12 L-42,8 L-27,3 Z " fill="#000000" transform="translate(833,712)"/>
<path d="M0,0 L4,1 L12,12 L18,20 L26,32 L36,46 L44,57 L52,69 L60,80 L63,85 L63,90 L62,91 L-6,90 L-35,90 L-39,88 L-40,86 L-40,76 L-36,58 L-30,41 L-21,25 L-14,15 L-7,6 Z " fill="#000000" transform="translate(744,750)"/>
</svg>
