<?xml version="1.0" encoding="UTF-8"?>
<!-- Generator: visioncortex VTracer 0.6.12 -->
<svg version="1.1" xmlns="http://www.w3.org/2000/svg" width="1125" height="1143">
<path d="M0,0 L18,1 L28,4 L42,12 L53,23 L62,37 L67,53 L68,59 L68,75 L65,84 L63,94 L55,108 L42,121 L29,129 L17,133 L10,134 L-2,134 L-14,131 L-26,126 L-39,116 L-45,109 L-52,99 L-58,83 L-59,77 L-59,56 L-56,42 L-49,28 L-40,18 L-31,10 L-19,4 L-11,1 Z " fill="#000000" transform="translate(802,320)"/>
<path d="M0,0 L7,2 L9,4 L8,12 L3,25 L1,34 L0,53 L2,68 L4,76 L11,93 L22,109 L30,116 L38,122 L50,128 L63,133 L79,134 L95,133 L108,129 L123,121 L129,121 L132,126 L135,142 L136,143 L145,142 L159,138 L178,133 L191,130 L196,133 L206,149 L206,157 L202,160 L187,163 L169,168 L151,173 L133,177 L127,181 L123,187 L118,197 L108,210 L101,221 L100,226 L104,235 L118,259 L129,278 L138,292 L147,292 L156,289 L196,277 L206,274 L217,270 L230,267 L251,261 L260,258 L267,258 L272,264 L278,273 L280,280 L278,284 L267,288 L251,293 L243,295 L230,299 L217,303 L203,307 L193,310 L173,316 L144,324 L137,327 L118,332 L109,335 L93,339 L90,341 L66,347 L50,352 L35,356 L22,360 L11,363 L-13,370 L-24,374 L-33,376 L-43,379 L-66,386 L-82,391 L-104,398 L-122,403 L-142,409 L-163,416 L-181,421 L-200,427 L-211,430 L-243,440 L-260,445 L-284,452 L-316,462 L-340,469 L-360,476 L-380,479 L-401,479 L-419,475 L-434,470 L-443,465 L-455,465 L-464,468 L-489,476 L-504,480 L-525,480 L-534,477 L-544,471 L-548,467 L-547,462 L-540,458 L-522,453 L-501,446 L-484,441 L-480,439 L-481,433 L-491,417 L-499,402 L-505,391 L-511,381 L-514,374 L-523,358 L-534,339 L-544,339 L-552,342 L-570,347 L-593,347 L-607,340 L-615,333 L-616,328 L-611,324 L-600,321 L-591,318 L-580,315 L-556,307 L-555,306 L-556,299 L-565,282 L-570,265 L-571,259 L-571,243 L-567,228 L-563,219 L-557,209 L-549,200 L-541,193 L-534,186 L-523,178 L-513,171 L-498,161 L-484,152 L-463,140 L-444,130 L-434,125 L-408,113 L-401,111 L-393,107 L-377,101 L-365,96 L-359,94 L-351,92 L-330,91 L-312,94 L-297,100 L-293,103 L-285,107 L-275,115 L-268,121 L-263,121 L-252,105 L-247,99 L-241,87 L-226,65 L-219,58 L-206,50 L-194,48 L-186,48 L-180,51 L-179,56 L-184,67 L-188,82 L-189,87 L-189,109 L-185,126 L-182,135 L-174,149 L-165,161 L-152,171 L-139,178 L-131,181 L-117,183 L-96,183 L-79,178 L-68,171 L-62,170 L-58,174 L-54,184 L-52,195 L-52,218 L-56,234 L-62,249 L-68,258 L-79,271 L-107,299 L-115,306 L-125,316 L-129,321 L-137,328 L-148,340 L-158,349 L-166,357 L-176,362 L-190,362 L-198,357 L-204,350 L-206,344 L-205,318 L-205,302 L-207,287 L-211,271 L-216,256 L-229,229 L-239,213 L-252,193 L-262,179 L-269,170 L-281,154 L-290,144 L-299,136 L-306,131 L-323,125 L-344,125 L-353,127 L-369,133 L-387,140 L-397,144 L-425,156 L-444,166 L-467,179 L-480,187 L-491,195 L-506,206 L-516,215 L-522,220 L-529,228 L-534,234 L-538,246 L-538,259 L-533,274 L-521,297 L-513,312 L-503,330 L-499,333 L-498,341 L-491,351 L-484,363 L-476,379 L-469,391 L-463,403 L-453,418 L-441,430 L-426,439 L-410,445 L-395,448 L-384,448 L-359,445 L-341,439 L-335,437 L-322,433 L-300,426 L-279,420 L-253,412 L-230,405 L-215,400 L-203,397 L-185,391 L-171,387 L-159,383 L-142,378 L-126,373 L-110,368 L-101,366 L-89,362 L-72,357 L-48,350 L-29,344 L-10,339 L6,334 L30,327 L66,316 L70,314 L80,312 L89,309 L97,307 L107,304 L108,299 L105,292 L98,281 L93,271 L86,261 L82,253 L82,251 L76,251 L50,277 L36,288 L28,294 L21,299 L8,305 L2,308 L-11,312 L-22,316 L-43,322 L-64,328 L-85,334 L-102,339 L-115,343 L-121,344 L-122,339 L-108,325 L-106,325 L-104,321 L-96,314 L-81,299 L-73,292 L-62,282 L-55,274 L-50,267 L-45,258 L-40,247 L-36,235 L-33,218 L-33,199 L-35,180 L-41,164 L-44,157 L-44,149 L-36,134 L-32,123 L-29,102 L-30,86 L-33,74 L-38,62 L-47,46 L-50,42 L-51,36 L-44,26 L-35,15 L-31,13 L-29,9 L-20,4 L-11,1 Z " fill="#000000" transform="translate(727,337)"/>
<path d="M0,0 L15,1 L25,4 L39,11 L51,22 L59,34 L65,49 L67,58 L67,77 L63,91 L55,107 L43,120 L27,129 L19,132 L12,133 L-7,133 L-17,130 L-31,123 L-41,114 L-48,106 L-52,101 L-59,82 L-60,76 L-60,61 L-58,48 L-53,36 L-47,26 L-40,19 L-35,14 L-21,5 L-17,3 Z " fill="#000000" transform="translate(614,369)"/>
<path d="M0,0 L88,0 L145,1 L159,1 L161,3 L0,3 Z " fill="#000000" transform="translate(0,1140)"/>
<path d="M0,0 L16,1 L16,2 L-2,2 Z " fill="#000000" transform="translate(168,1141)"/>
<path d="M0,0 L8,0 L9,2 L-4,2 Z " fill="#000000" transform="translate(210,1141)"/>
<path d="M0,0 L4,1 Z " fill="#000000" transform="translate(233,1142)"/>
</svg>
