<?xml version="1.0" encoding="UTF-8"?>
<!-- Generator: visioncortex VTracer 0.6.12 -->
<svg version="1.1" xmlns="http://www.w3.org/2000/svg" width="987" height="999">
<path d="M0,0 L868,0 L868,2 L875,3 L884,9 L892,15 L904,26 L912,34 L920,45 L931,64 L931,945 L922,956 L920,962 L912,968 L908,976 L897,985 L889,990 L880,996 L874,999 L14,999 L-9,987 L-18,980 L-28,971 L-37,961 L-43,953 L-51,938 L-54,933 L-56,928 L-56,60 L-54,60 L-52,54 L-44,38 L-34,27 L-30,22 L-20,14 L-15,11 L-11,7 L-2,2 L0,2 Z M52,40 L40,43 L21,49 L12,56 L1,67 L-8,82 L-11,98 L-12,109 L-12,141 L-13,147 L-12,197 L-12,477 L-11,495 L-10,500 L-12,514 L-12,647 L-11,672 L-11,817 L-10,849 L-11,874 L-10,893 L-7,910 L-1,921 L4,927 L8,932 L11,937 L26,947 L38,951 L46,954 L103,954 L110,953 L113,954 L169,954 L192,955 L203,954 L342,954 L348,955 L506,955 L608,954 L686,955 L707,955 L725,956 L739,956 L749,955 L760,956 L794,955 L797,956 L818,955 L841,954 L853,950 L863,944 L871,935 L877,931 L884,919 L889,904 L890,892 L890,862 L891,839 L890,810 L890,740 L889,698 L890,678 L890,663 L889,629 L889,462 L888,453 L889,416 L888,410 L888,377 L889,369 L888,356 L888,278 L887,267 L887,168 L886,149 L886,105 L883,89 L876,72 L874,69 L872,69 L870,65 L865,60 L856,54 L851,49 L843,47 L840,45 L829,43 L801,43 L793,45 L786,44 L785,43 L744,42 L736,43 L725,42 L661,42 L628,41 L616,42 L382,42 L362,41 L330,41 L325,40 L301,41 L261,41 L252,40 L238,40 L213,41 L56,41 Z " fill="#000000" transform="translate(56,0)"/>
<path d="M0,0 L75,1 L83,2 L98,1 L100,0 L118,0 L122,1 L216,1 L250,0 L263,1 L347,1 L392,0 L396,1 L409,1 L412,0 L422,0 L424,1 L492,1 L502,2 L505,1 L524,0 L540,1 L572,1 L598,2 L768,2 L781,6 L796,14 L803,21 L810,32 L813,40 L814,47 L814,102 L815,114 L816,115 L816,120 L815,121 L815,174 L814,203 L815,219 L814,237 L815,248 L815,481 L817,504 L816,509 L816,536 L815,541 L816,573 L816,678 L817,703 L817,810 L818,820 L817,841 L811,858 L799,871 L782,880 L779,881 L758,882 L701,881 L695,880 L675,880 L626,881 L621,880 L574,880 L561,879 L555,880 L498,880 L478,879 L294,879 L285,878 L275,879 L10,879 L-10,877 L-15,874 L-23,872 L-33,866 L-39,858 L-45,848 L-49,835 L-50,820 L-50,807 L-49,782 L-50,769 L-51,765 L-51,702 L-50,693 L-50,599 L-51,551 L-51,529 L-50,521 L-51,499 L-51,152 L-52,141 L-52,45 L-49,30 L-42,17 L-37,13 L-24,5 L-16,2 Z M153,201 L143,202 L114,202 L85,203 L71,210 L58,220 L49,231 L45,240 L42,250 L40,261 L40,273 L43,289 L50,303 L59,315 L65,323 L71,332 L76,338 L83,349 L93,361 L101,372 L108,383 L114,392 L126,408 L137,424 L144,433 L153,445 L160,455 L166,465 L171,470 L178,480 L188,493 L195,503 L205,517 L219,535 L226,546 L229,550 L231,550 L233,556 L240,565 L248,576 L255,583 L262,593 L265,595 L270,594 L273,590 L278,578 L284,566 L288,561 L294,552 L305,543 L315,537 L331,531 L339,529 L356,527 L452,527 L460,526 L464,527 L513,527 L550,526 L571,527 L619,527 L622,526 L630,526 L636,527 L669,527 L700,526 L702,524 L702,518 L698,512 L694,506 L688,503 L681,492 L672,481 L666,474 L660,466 L651,455 L639,441 L629,430 L621,420 L616,413 L612,409 L610,409 L608,405 L604,399 L596,392 L592,387 L587,379 L574,365 L568,357 L561,351 L549,335 L541,325 L530,313 L523,303 L517,295 L509,287 L501,277 L494,270 L488,262 L481,252 L476,247 L469,239 L464,234 L456,223 L450,215 L444,206 L430,201 L415,201 L408,202 L395,201 L371,202 L360,201 L351,201 L347,202 L327,202 L311,201 L243,201 L240,202 L186,202 L175,201 Z M496,547 L480,548 L364,548 L339,550 L330,554 L323,557 L315,562 L306,571 L298,582 L295,592 L292,602 L291,613 L292,627 L295,635 L301,645 L307,655 L316,663 L326,669 L329,672 L337,674 L354,675 L359,676 L632,676 L690,677 L701,676 L707,673 L710,668 L707,659 L694,651 L686,644 L680,635 L677,630 L675,619 L675,604 L678,593 L682,587 L685,582 L687,577 L691,575 L702,569 L709,561 L709,555 L703,550 L695,549 L680,549 L663,548 L539,548 Z " fill="#000000" transform="translate(112,58)"/>
</svg>
