<?xml version="1.0" encoding="UTF-8"?>
<!-- Generator: visioncortex VTracer 0.6.12 -->
<svg version="1.1" xmlns="http://www.w3.org/2000/svg" width="1005" height="993">
<path d="M0,0 L1005,0 L1005,993 L0,993 Z M901,91 L902,93 Z M921,93 L911,96 L897,104 L887,108 L873,114 L863,120 L838,131 L818,140 L811,143 L809,145 L800,148 L788,154 L776,159 L760,167 L740,175 L738,176 L731,176 L727,178 L726,182 L720,184 L714,188 L690,198 L683,201 L676,204 L671,206 L664,210 L656,214 L642,220 L636,223 L628,226 L614,233 L605,238 L596,241 L587,245 L571,253 L563,257 L552,262 L544,265 L530,273 L527,277 L526,281 L526,323 L525,352 L525,390 L524,437 L524,469 L523,486 L523,565 L522,606 L522,655 L521,755 L520,765 L518,770 L520,773 L520,809 L523,814 L531,814 L551,805 L571,796 L580,792 L587,789 L608,779 L620,774 L629,770 L653,759 L665,754 L684,745 L710,733 L732,724 L744,718 L754,714 L771,706 L793,696 L807,690 L818,686 L836,677 L841,677 L843,680 L842,698 L838,702 L814,713 L794,721 L785,726 L775,729 L759,737 L744,744 L727,750 L720,754 L712,757 L707,760 L697,763 L672,775 L652,783 L636,791 L616,800 L602,806 L576,818 L565,823 L548,830 L538,835 L519,843 L512,846 L504,846 L493,842 L477,834 L451,822 L435,815 L423,809 L395,796 L380,789 L364,781 L348,774 L338,770 L329,765 L318,761 L306,755 L301,752 L284,745 L272,739 L263,735 L242,725 L226,717 L209,709 L202,705 L196,703 L179,695 L176,690 L176,545 L177,530 L178,525 L176,521 L177,441 L177,345 L178,268 L180,264 L179,259 L178,256 L179,233 L180,224 L185,223 L194,227 L214,236 L224,241 L240,249 L248,253 L249,255 L250,266 L250,394 L249,517 L249,580 L248,599 L249,644 L249,657 L252,663 L256,665 L274,666 L282,667 L292,668 L316,673 L329,678 L337,679 L352,686 L366,693 L382,700 L392,706 L403,712 L407,716 L415,720 L428,730 L444,743 L454,752 L459,757 L466,763 L473,773 L475,773 L475,775 L479,779 L484,787 L486,789 L491,788 L493,783 L494,724 L495,701 L495,653 L496,630 L496,607 L497,521 L497,495 L498,466 L498,406 L499,385 L499,353 L500,341 L500,299 L501,256 L497,246 L492,236 L486,226 L475,211 L466,199 L458,190 L454,186 L448,182 L437,172 L433,167 L425,161 L420,157 L414,153 L409,149 L403,145 L395,140 L384,133 L373,127 L369,124 L362,121 L351,116 L328,107 L316,103 L304,101 L302,100 L274,96 L259,96 L254,100 L253,104 L252,148 L251,159 L246,160 L230,153 L218,148 L212,144 L204,142 L188,135 L182,133 L170,126 L155,120 L145,115 L130,109 L118,104 L108,99 L104,98 L100,100 L98,108 L97,119 L98,133 L97,149 L97,608 L96,614 L96,633 L97,646 L97,740 L98,748 L106,753 L125,762 L133,765 L149,773 L171,783 L181,787 L193,793 L210,801 L235,812 L262,824 L268,828 L277,831 L291,838 L305,844 L311,847 L319,850 L330,855 L338,858 L344,862 L359,868 L387,881 L397,886 L416,894 L432,902 L448,909 L474,921 L488,928 L505,934 L515,935 L535,926 L551,918 L563,913 L579,906 L587,901 L620,886 L632,881 L659,869 L668,865 L683,858 L694,854 L704,851 L709,847 L727,839 L747,830 L763,822 L790,810 L807,802 L830,792 L847,784 L872,773 L901,760 L917,753 L922,748 L924,744 L925,723 L926,662 L926,430 L927,351 L928,299 L928,193 L929,178 L928,164 L928,138 L927,96 L923,93 Z M595,102 L595,104 L597,104 L597,102 Z " fill="#000000" transform="translate(0,0)"/>
</svg>
