<?xml version="1.0" encoding="UTF-8"?>
<!-- Generator: visioncortex VTracer 0.6.12 -->
<svg version="1.1" xmlns="http://www.w3.org/2000/svg" width="264" height="747">
<path d="M0,0 L24,0 L32,2 L37,7 L42,24 L42,35 L40,50 L40,97 L43,124 L46,139 L50,153 L52,161 L60,180 L64,188 L72,209 L76,218 L87,243 L98,270 L103,284 L106,297 L110,309 L111,323 L112,376 L109,382 L103,385 L91,387 L72,387 L58,388 L41,388 L37,387 L26,387 L20,389 L14,390 L1,397 L-2,406 L-3,457 L-3,501 L0,508 L4,510 L19,510 L42,511 L63,511 L93,512 L102,513 L107,517 L110,523 L111,528 L111,602 L109,659 L107,670 L100,676 L66,677 L51,677 L42,676 L-16,676 L-39,675 L-65,674 L-78,672 L-82,667 L-83,665 L-83,522 L-82,456 L-82,356 L-81,346 L-80,313 L-78,301 L-75,292 L-70,279 L-66,263 L-62,253 L-60,247 L-52,228 L-47,218 L-42,205 L-35,192 L-30,179 L-23,157 L-20,149 L-18,139 L-15,129 L-12,116 L-11,110 L-10,61 L-11,44 L-14,35 L-14,23 L-8,9 L-5,4 Z " fill="#000000" transform="translate(118,36)"/>
<path d="M0,0 L7,0 L16,1 L36,1 L50,2 L57,4 L61,9 L62,12 L63,30 L63,54 L62,94 L60,99 L54,104 L47,105 L9,105 L-23,104 L-30,104 L-39,99 L-41,95 L-41,24 L-39,8 L-35,3 L-30,2 L-8,1 Z " fill="#000000" transform="translate(167,432)"/>
</svg>
