<?xml version="1.0" encoding="UTF-8"?>
<!-- Generator: visioncortex VTracer 0.6.12 -->
<svg version="1.1" xmlns="http://www.w3.org/2000/svg" width="852" height="603">
<path d="M0,0 L55,0 L58,1 L57,8 L53,13 L42,20 L34,29 L17,41 L9,45 L6,46 L0,58 L-3,60 L-47,60 L-64,61 L-68,59 L-67,55 L-57,47 L-53,42 L-45,35 L-34,27 L-23,16 L-10,6 L-6,2 Z " fill="#000000" transform="translate(112,31)"/>
<path d="M0,0 L74,0 L78,2 L77,6 L58,25 L50,32 L43,38 L38,41 L31,50 L29,50 L28,53 L21,58 L16,63 L-77,64 L-122,63 L-313,63 L-345,64 L-403,62 L-406,58 L-399,50 L-386,38 L-382,34 L-380,34 L-378,30 L-364,17 L-351,7 L-345,2 L-340,1 L-23,1 Z " fill="#000000" transform="translate(555,30)"/>
<path d="M0,0 L72,0 L75,2 L74,8 L70,13 L59,21 L49,30 L39,40 L37,40 L35,44 L30,49 L28,49 L27,52 L17,58 L8,61 L-12,62 L-58,62 L-61,60 L-60,56 L-53,48 L-45,41 L-37,33 L-31,28 L-26,22 L-18,16 L-15,15 L-13,11 L-5,3 Z " fill="#000000" transform="translate(676,31)"/>
<path d="M0,0 L5,0 L8,4 L9,37 L5,43 L-5,52 L-14,59 L-36,81 L-41,85 L-43,85 L-43,87 L-48,92 L-50,94 L-55,94 L-56,93 L-55,79 L-54,67 L-55,60 L-51,51 L-44,43 L-35,36 L-22,24 L-14,14 L-8,9 L-1,1 Z " fill="#000000" transform="translate(765,52)"/>
<path d="M0,0 L28,0 L69,1 L73,4 L74,28 L74,48 L72,53 L64,55 L24,54 L2,53 L-3,51 L-4,49 L-6,14 L-6,7 L-4,2 Z " fill="#000000" transform="translate(37,109)"/>
<path d="M0,0 L423,0 L427,2 L428,5 L429,25 L429,41 L428,52 L423,55 L399,55 L395,54 L375,55 L65,55 L8,54 L-2,53 L-5,49 L-6,29 L-6,6 L-4,2 Z " fill="#000000" transform="translate(147,110)"/>
<path d="M0,0 L64,0 L69,3 L70,7 L72,38 L71,48 L68,51 L49,52 L27,52 L5,53 L-2,50 L-3,45 L-3,2 Z " fill="#000000" transform="translate(611,111)"/>
<path d="M0,0 L4,2 L5,46 L5,126 L6,135 L6,150 L7,184 L7,244 L3,264 L5,273 L8,282 L8,313 L9,354 L2,364 L-10,377 L-11,379 L-13,379 L-15,383 L-23,393 L-35,407 L-44,417 L-53,427 L-58,428 L-60,424 L-60,353 L-61,306 L-61,255 L-62,157 L-62,64 L-59,50 L-54,46 L-43,39 L-32,28 L-23,21 L-18,15 L-16,15 L-16,13 L-7,6 Z " fill="#000000" transform="translate(771,127)"/>
<path d="M0,0 L137,0 L413,1 L416,5 L418,114 L419,215 L419,381 L415,385 L406,387 L316,387 L294,385 L269,384 L181,383 L138,382 L72,382 L55,383 L26,383 L19,384 L3,384 L-10,381 L-14,378 L-15,374 L-15,325 L-16,318 L-17,241 L-18,223 L-18,172 L-19,72 L-19,42 L-20,13 L-18,4 L-15,1 Z M66,51 L61,56 L60,78 L60,150 L61,226 L61,299 L63,311 L68,314 L84,315 L113,315 L243,316 L317,316 L327,314 L330,311 L331,309 L332,300 L332,263 L331,226 L331,157 L329,102 L329,70 L328,58 L323,53 L313,52 L206,52 Z " fill="#000000" transform="translate(161,190)"/>
<path d="M0,0 L28,0 L45,1 L48,4 L49,29 L49,94 L50,112 L51,205 L51,226 L52,277 L52,366 L51,379 L45,381 L15,381 L-23,382 L-27,379 L-27,353 L-28,243 L-28,136 L-29,92 L-29,73 L-30,48 L-30,4 L-27,1 Z " fill="#000000" transform="translate(64,190)"/>
<path d="M0,0 L13,0 L19,5 L21,12 L22,65 L21,98 L22,140 L22,366 L23,381 L21,385 L16,387 L-22,387 L-47,386 L-52,381 L-53,378 L-55,82 L-56,78 L-56,43 L-55,7 L-52,2 L-51,1 Z " fill="#000000" transform="translate(664,190)"/>
<path d="M0,0 L8,0 L22,7 L38,15 L58,26 L75,35 L84,40 L91,45 L90,52 L81,55 L61,54 L42,54 L37,56 L34,63 L30,64 L22,60 L17,61 L16,76 L16,100 L18,118 L20,120 L30,120 L42,115 L61,110 L80,106 L86,104 L94,104 L98,110 L97,128 L93,132 L73,133 L47,138 L29,144 L21,147 L17,151 L16,203 L17,211 L13,213 L10,210 L9,201 L8,173 L5,157 L3,154 L-2,153 L-12,156 L-20,161 L-24,170 L-27,178 L-30,188 L-35,200 L-38,204 L-42,212 L-46,213 L-48,210 L-44,187 L-42,179 L-42,172 L-49,171 L-64,176 L-80,185 L-86,184 L-86,180 L-75,172 L-65,166 L-51,156 L-40,148 L-38,145 L-39,137 L-42,132 L-47,130 L-58,129 L-66,129 L-82,126 L-85,122 L-83,113 L-79,106 L-74,85 L-70,77 L-64,72 L-57,72 L-52,75 L-51,76 L-51,82 L-57,92 L-61,103 L-64,108 L-64,114 L-58,116 L-43,112 L-32,112 L-26,116 L-20,123 L-17,130 L-14,132 L-6,132 L2,127 L2,110 L-1,67 L-3,56 L-10,53 L-14,52 L-66,52 L-69,50 L-68,44 L-66,44 L-64,40 L-59,35 L-46,26 L-39,22 L-23,13 L-14,7 Z M-3,11 L-17,19 L-26,26 L-35,33 L-36,37 L-33,40 L-30,41 L-3,42 L33,43 L40,44 L49,42 L51,40 L50,35 L41,30 L31,24 L19,17 L9,11 Z " fill="#000000" transform="translate(355,264)"/>
<path d="M0,0 L2,2 L-1,2 Z " fill="#000000" transform="translate(309,277)"/>
</svg>
