<?xml version="1.0" encoding="UTF-8"?>
<!-- Generator: visioncortex VTracer 0.6.12 -->
<svg version="1.1" xmlns="http://www.w3.org/2000/svg" width="669" height="393">
<path d="M0,0 L6,0 L10,2 L39,2 L65,3 L67,4 L74,4 L92,6 L102,6 L117,10 L128,12 L139,13 L146,16 L173,21 L184,25 L197,29 L205,31 L214,34 L237,45 L251,54 L262,62 L271,71 L275,76 L276,80 L276,91 L269,101 L264,104 L260,109 L247,119 L238,125 L218,133 L208,137 L199,141 L170,151 L165,153 L152,155 L148,156 L134,157 L127,159 L105,161 L104,162 L68,164 L60,165 L38,165 L31,166 L2,166 L-6,164 L-13,165 L-27,166 L-65,163 L-72,163 L-99,159 L-102,158 L-119,157 L-148,151 L-158,149 L-168,145 L-178,143 L-188,140 L-197,137 L-205,133 L-214,129 L-223,125 L-228,121 L-230,118 L-239,117 L-249,110 L-259,102 L-264,95 L-265,91 L-265,80 L-263,72 L-256,64 L-250,59 L-238,52 L-232,47 L-216,39 L-204,37 L-196,31 L-178,27 L-166,22 L-146,19 L-138,15 L-122,13 L-114,11 L-70,6 L-40,3 L-16,2 L-5,2 Z " fill="#000000" transform="translate(336,36)"/>
<path d="M0,0 L5,0 L16,10 L21,16 L31,22 L36,25 L46,32 L48,34 L56,36 L66,41 L82,47 L92,52 L105,57 L113,60 L122,62 L127,64 L134,64 L149,67 L156,70 L165,72 L168,73 L189,75 L208,78 L211,79 L262,82 L346,83 L363,82 L375,82 L385,80 L393,78 L403,78 L411,76 L430,73 L434,71 L458,67 L465,64 L475,60 L488,57 L498,53 L510,50 L525,45 L546,33 L556,26 L564,19 L572,10 L574,7 L580,7 L583,13 L587,28 L587,46 L584,66 L577,87 L570,104 L558,123 L547,137 L534,147 L522,155 L513,160 L503,167 L485,175 L476,178 L466,183 L446,191 L437,192 L429,195 L421,197 L414,200 L399,202 L383,205 L376,206 L358,207 L349,209 L327,211 L292,210 L277,210 L257,208 L231,207 L211,207 L204,205 L183,203 L178,201 L167,199 L140,193 L130,191 L113,184 L99,179 L83,171 L68,164 L63,161 L52,153 L44,147 L33,139 L25,131 L25,129 L21,127 L11,115 L3,100 L-1,94 L-4,84 L-8,77 L-10,71 L-12,60 L-13,45 L-10,16 L-5,5 Z " fill="#000000" transform="translate(49,148)"/>
</svg>
