<?xml version="1.0" encoding="UTF-8"?>
<!-- Generator: visioncortex VTracer 0.6.12 -->
<svg version="1.1" xmlns="http://www.w3.org/2000/svg" width="1119" height="1110">
<path d="M0,0 L968,0 L968,2 L978,4 L989,7 L1000,14 L1013,25 L1021,32 L1029,41 L1039,55 L1044,64 L1044,66 L1046,66 L1046,774 L1045,778 L1044,810 L1044,869 L1043,955 L1043,998 L1040,1023 L1034,1044 L1020,1068 L1007,1084 L998,1093 L978,1107 L974,1108 L974,1110 L-2,1110 L-12,1105 L-28,1097 L-39,1090 L-44,1086 L-44,1084 L-47,1083 L-52,1078 L-61,1068 L-71,1054 L-71,1052 L-73,1052 L-73,97 L-71,90 L-66,71 L-62,62 L-52,45 L-47,39 L-39,29 L-29,20 L-18,11 L-6,4 L-1,2 Z M379,177 L363,181 L350,187 L339,196 L332,204 L326,214 L323,220 L320,233 L317,280 L316,328 L315,349 L312,471 L311,497 L309,507 L307,511 L298,514 L288,513 L282,509 L280,505 L279,472 L279,456 L280,421 L280,399 L276,386 L269,377 L259,368 L250,363 L242,361 L225,360 L215,363 L205,369 L197,375 L190,383 L186,393 L184,400 L183,409 L181,470 L181,503 L180,514 L178,618 L179,643 L185,670 L189,682 L194,695 L199,705 L202,710 L209,719 L218,730 L226,738 L243,749 L262,759 L280,765 L294,768 L392,770 L408,770 L427,771 L492,771 L505,772 L605,774 L641,774 L657,770 L670,764 L681,757 L686,751 L694,745 L700,738 L710,722 L716,707 L719,694 L719,674 L720,638 L721,575 L722,536 L723,380 L723,344 L724,277 L725,271 L725,243 L721,230 L717,222 L714,215 L707,206 L698,198 L686,192 L676,188 L664,186 L630,184 L557,182 L508,180 L441,179 L406,178 Z M320,787 L311,793 L305,801 L303,807 L300,922 L300,943 L303,952 L308,959 L316,963 L327,964 L347,964 L361,965 L456,966 L487,966 L541,967 L621,967 L631,966 L640,961 L646,952 L647,948 L648,906 L649,892 L649,865 L650,850 L650,812 L644,801 L640,796 L635,794 L623,792 L588,791 L548,791 L523,790 L398,788 L361,787 Z " fill="#000000" transform="translate(73,0)"/>
</svg>
