<?xml version="1.0" encoding="UTF-8"?>
<!-- Generator: visioncortex VTracer 0.6.12 -->
<svg version="1.1" xmlns="http://www.w3.org/2000/svg" width="1071" height="1053">
<path d="M0,0 L20,0 L37,1 L54,4 L60,7 L68,15 L74,25 L78,33 L85,44 L88,46 L103,45 L123,38 L134,35 L140,35 L146,39 L147,48 L143,53 L136,56 L113,61 L103,65 L101,69 L101,79 L103,89 L103,108 L100,120 L95,132 L85,146 L75,155 L67,161 L48,168 L40,170 L26,171 L24,176 L35,190 L45,206 L50,220 L54,234 L55,244 L57,253 L57,265 L54,283 L54,292 L58,303 L62,313 L67,327 L72,340 L85,363 L95,382 L101,391 L110,406 L112,414 L119,422 L125,431 L131,439 L139,452 L139,454 L143,456 L153,467 L159,478 L161,485 L160,492 L156,498 L150,503 L141,514 L134,521 L125,527 L119,527 L110,521 L102,512 L96,507 L89,499 L78,486 L70,475 L62,467 L55,458 L47,445 L39,435 L30,421 L25,420 L20,425 L16,428 L8,429 L-5,427 L-20,423 L-29,421 L-39,419 L-54,416 L-60,414 L-75,412 L-86,409 L-96,408 L-111,403 L-115,399 L-115,397 L-120,397 L-123,407 L-123,419 L-112,419 L-102,422 L-93,423 L-80,428 L-59,431 L-55,433 L-47,435 L-39,437 L-24,438 L-17,441 L0,445 L9,447 L16,453 L19,465 L22,483 L25,496 L29,507 L32,516 L37,531 L42,542 L51,564 L55,575 L59,583 L59,592 L57,597 L57,607 L60,616 L63,625 L71,641 L74,648 L77,657 L82,669 L90,689 L92,691 L96,701 L101,712 L108,727 L112,740 L116,748 L120,756 L128,772 L141,797 L147,803 L147,805 L151,807 L157,809 L184,811 L191,810 L222,809 L231,810 L240,815 L243,819 L242,828 L237,834 L227,842 L217,848 L210,854 L202,858 L192,864 L176,873 L159,882 L147,887 L131,895 L124,897 L117,896 L111,892 L101,873 L96,865 L88,850 L83,842 L76,828 L70,817 L62,805 L59,801 L54,791 L47,779 L42,769 L35,756 L29,746 L26,736 L17,722 L8,703 L3,693 L-2,685 L-8,673 L-14,664 L-18,656 L-27,642 L-29,641 L-38,640 L-44,636 L-53,625 L-62,614 L-66,614 L-70,624 L-79,637 L-84,643 L-99,651 L-105,659 L-114,676 L-121,686 L-126,693 L-130,701 L-136,710 L-143,720 L-150,733 L-159,746 L-170,763 L-181,780 L-188,789 L-196,804 L-204,817 L-206,821 L-206,833 L-198,846 L-193,851 L-178,861 L-167,867 L-159,873 L-153,880 L-148,889 L-148,895 L-152,901 L-159,903 L-183,902 L-195,900 L-220,896 L-231,892 L-242,888 L-251,886 L-268,878 L-282,870 L-292,866 L-302,858 L-303,856 L-303,849 L-297,837 L-289,821 L-281,805 L-272,789 L-261,766 L-254,755 L-246,739 L-242,732 L-237,721 L-231,708 L-226,698 L-218,684 L-214,674 L-208,662 L-200,645 L-194,632 L-186,614 L-183,605 L-180,588 L-174,575 L-162,540 L-154,519 L-149,507 L-142,481 L-139,469 L-139,462 L-143,462 L-148,467 L-155,468 L-167,463 L-180,459 L-194,455 L-204,450 L-215,444 L-223,436 L-227,429 L-228,425 L-227,409 L-224,395 L-221,379 L-216,361 L-212,347 L-204,323 L-192,292 L-185,278 L-181,268 L-173,252 L-167,239 L-162,223 L-152,204 L-149,197 L-140,182 L-128,168 L-120,162 L-112,155 L-107,153 L-91,152 L-80,156 L-70,158 L-61,162 L-57,166 L-56,169 L-56,178 L-57,183 L-57,190 L-54,190 L-50,181 L-45,164 L-42,157 L-33,147 L-30,143 L-30,136 L-37,123 L-42,109 L-47,105 L-71,112 L-81,116 L-92,117 L-98,112 L-99,105 L-94,99 L-83,95 L-69,93 L-53,87 L-48,83 L-47,81 L-47,67 L-49,57 L-49,40 L-45,32 L-37,24 L-24,14 L-15,8 L-5,2 Z M70,71 L64,73 L49,76 L36,79 L27,82 L11,86 L-2,90 L-10,93 L-17,96 L-20,100 L-20,107 L-16,120 L-11,129 L-1,139 L12,146 L18,148 L26,149 L37,149 L54,145 L64,139 L74,130 L79,121 L82,116 L85,100 L85,85 L82,77 L78,72 Z M-24,167 L-28,171 L-28,177 L-22,184 L-13,189 L-1,200 L7,209 L18,228 L23,237 L27,244 L33,253 L38,252 L41,244 L40,235 L36,222 L27,205 L14,190 L6,182 L-3,176 L-12,169 L-16,167 Z M-70,234 L-74,243 L-76,247 L-78,255 L-79,258 L-80,271 L-77,271 L-73,262 L-71,254 L-68,243 L-67,242 L-67,235 Z M33,314 L24,319 L14,326 L8,330 L6,333 L6,341 L14,357 L20,369 L26,381 L37,399 L43,411 L54,428 L61,439 L67,447 L74,457 L84,470 L88,475 L91,482 L96,488 L106,492 L118,503 L122,504 L133,498 L140,491 L141,485 L137,471 L133,464 L126,459 L118,448 L110,437 L105,430 L101,423 L94,413 L87,402 L83,397 L76,385 L68,370 L61,356 L56,344 L46,325 L41,317 L38,314 Z M29,612 L16,617 L6,622 L0,628 L1,638 L5,647 L13,663 L22,678 L25,685 L33,701 L40,714 L43,717 L52,714 L63,708 L71,702 L72,700 L72,691 L68,677 L63,666 L58,652 L50,636 L45,626 L39,615 L34,612 Z M-155,616 L-161,619 L-165,624 L-171,635 L-175,643 L-181,657 L-189,671 L-192,680 L-190,686 L-185,691 L-180,695 L-173,699 L-161,699 L-156,695 L-144,676 L-136,660 L-130,649 L-127,641 L-127,632 L-131,627 L-143,620 L-153,616 Z " fill="#000000" transform="translate(601,31)"/>
<path d="M0,0 L214,0 L215,1 L215,7 L214,8 L47,8 L-54,9 L-65,8 L-96,9 L-325,9 L-402,10 L-470,10 L-538,11 L-677,11 L-793,12 L-821,12 L-824,10 L-823,5 L-812,4 L-697,4 L-641,3 L-580,3 L-573,2 L-422,2 L-318,1 L-138,1 Z " fill="#000000" transform="translate(853,1015)"/>
</svg>
