<?xml version="1.0" encoding="UTF-8"?>
<!-- Generator: visioncortex VTracer 0.6.12 -->
<svg version="1.1" xmlns="http://www.w3.org/2000/svg" width="375" height="939">
<path d="M0,0 L11,2 L25,6 L35,10 L48,17 L58,27 L63,32 L69,40 L73,48 L78,57 L81,67 L83,77 L83,100 L79,115 L74,128 L68,138 L57,150 L43,161 L29,168 L12,173 L7,174 L-12,175 L-28,171 L-47,162 L-56,156 L-61,151 L-70,142 L-76,135 L-79,128 L-84,116 L-88,103 L-89,85 L-87,67 L-82,54 L-73,38 L-67,30 L-61,23 L-48,14 L-31,6 L-24,3 L-9,1 Z M43,40 L38,43 L30,50 L24,54 L13,65 L7,69 L-5,78 L-12,85 L-17,90 L-26,96 L-31,94 L-43,81 L-54,67 L-60,60 L-65,58 L-70,63 L-73,74 L-73,103 L-70,112 L-66,121 L-60,131 L-51,141 L-43,147 L-24,156 L-16,158 L4,158 L18,156 L34,149 L45,140 L55,129 L56,127 L56,120 L49,109 L43,99 L34,88 L27,80 L25,77 L25,71 L29,65 L39,54 L44,50 L47,46 L46,41 Z " fill="#000000" transform="translate(196,30)"/>
<path d="M0,0 L6,1 L14,6 L17,11 L18,17 L13,26 L7,30 L8,34 L12,39 L17,64 L20,84 L27,84 L29,79 L35,68 L41,58 L45,50 L51,40 L60,26 L70,18 L77,17 L92,18 L96,19 L109,20 L125,28 L138,40 L147,53 L153,69 L156,77 L156,274 L155,323 L155,346 L152,361 L147,375 L141,385 L134,393 L120,404 L108,411 L106,415 L104,451 L103,481 L103,510 L102,552 L98,558 L95,562 L89,565 L87,565 L85,581 L85,593 L84,620 L83,629 L81,687 L77,690 L64,693 L34,692 L19,691 L13,692 L4,690 L1,686 L1,656 L3,518 L4,495 L4,477 L5,424 L5,375 L4,371 L2,370 L-5,370 L-8,377 L-10,422 L-10,436 L-11,471 L-13,565 L-14,629 L-15,675 L-17,686 L-21,690 L-25,691 L-88,690 L-93,687 L-95,678 L-94,628 L-94,591 L-95,570 L-100,565 L-108,560 L-114,553 L-116,540 L-116,521 L-117,478 L-116,451 L-116,413 L-118,408 L-124,404 L-132,401 L-146,390 L-151,385 L-156,377 L-160,353 L-161,340 L-160,292 L-160,116 L-159,95 L-155,74 L-147,58 L-140,47 L-136,42 L-128,35 L-116,26 L-106,20 L-82,15 L-66,16 L-57,18 L-52,23 L-45,33 L-38,47 L-35,52 L-28,64 L-22,74 L-17,81 L-13,81 L-8,59 L-5,43 L-2,35 L-2,31 L-9,26 L-12,22 L-13,12 L-9,5 Z M-91,225 L-95,231 L-94,238 L-91,242 L-87,243 L-76,242 L-70,243 L-44,244 L-35,244 L-31,241 L-31,231 L-36,226 L-40,225 Z M31,228 L28,230 L27,239 L31,243 L34,244 L81,246 L86,243 L87,238 L85,232 L79,229 L61,228 Z M-136,314 L-141,318 L-143,327 L-143,340 L-142,361 L-136,373 L-125,382 L-122,384 L-117,383 L-115,380 L-114,372 L-114,320 L-116,316 L-118,315 Z M116,318 L108,321 L107,323 L106,338 L106,386 L110,389 L115,387 L124,380 L132,371 L137,361 L140,348 L140,329 L138,322 L131,319 Z M-48,565 L-58,566 L-71,566 L-75,570 L-76,576 L-77,612 L-77,663 L-74,669 L-71,671 L-38,671 L-33,668 L-31,657 L-30,635 L-30,575 L-33,567 L-34,566 Z M36,565 L25,566 L22,567 L19,577 L18,630 L18,664 L21,669 L25,672 L54,671 L59,669 L63,662 L64,625 L64,576 L63,569 L59,566 L46,565 L40,566 Z " fill="#000000" transform="translate(192,219)"/>
</svg>
