<?xml version="1.0" encoding="UTF-8"?>
<!-- Generator: visioncortex VTracer 0.6.12 -->
<svg version="1.1" xmlns="http://www.w3.org/2000/svg" width="771" height="1095">
<path d="M0,0 L771,0 L771,1095 L0,1095 Z M404,168 L404,172 L408,172 L407,168 Z M146,280 L138,283 L135,291 L134,323 L132,332 L131,347 L134,356 L134,787 L136,796 L140,799 L148,802 L155,801 L159,800 L205,800 L214,798 L219,796 L225,800 L238,799 L280,800 L306,801 L311,800 L329,800 L336,801 L503,801 L513,800 L515,801 L543,801 L612,802 L631,802 L635,800 L638,788 L638,719 L639,704 L639,671 L640,596 L640,297 L638,289 L633,285 L601,284 L565,284 L554,283 L519,283 L511,281 L504,281 L503,282 L482,282 L455,281 L449,280 L436,282 L417,282 L365,281 L337,281 L330,283 L323,283 L320,282 L301,281 L255,281 L249,280 L238,281 L213,281 L200,280 Z M560,942 L560,944 L563,944 L563,942 Z " fill="#000000" transform="translate(0,0)"/>
<path d="M0,0 L87,0 L90,6 L90,33 L87,38 L85,40 L76,41 L74,40 L67,40 L63,44 L63,52 L66,55 L86,56 L91,61 L91,77 L88,83 L84,85 L77,85 L73,87 L70,94 L68,104 L67,127 L68,146 L71,166 L75,191 L80,224 L80,259 L78,283 L74,299 L69,312 L60,325 L52,331 L49,333 L41,333 L32,328 L23,318 L19,314 L12,299 L9,289 L7,269 L6,245 L6,211 L10,187 L15,148 L20,127 L20,107 L18,98 L14,90 L9,87 L-5,86 L-47,86 L-53,82 L-55,77 L-54,58 L-50,55 L22,56 L23,51 L23,43 L21,42 L-11,41 L-17,42 L-23,41 L-51,41 L-57,36 L-58,32 L-58,23 L-56,17 L-51,14 L-40,13 L-15,7 L-3,1 Z " fill="#000000" transform="translate(357,363)"/>
</svg>
