<?xml version="1.0" encoding="UTF-8"?>
<!-- Generator: visioncortex VTracer 0.6.12 -->
<svg version="1.1" xmlns="http://www.w3.org/2000/svg" width="963" height="648">
<path d="M0,0 L17,0 L26,2 L35,2 L42,1 L52,1 L64,0 L75,1 L124,1 L147,2 L171,2 L251,3 L367,3 L385,4 L420,5 L439,7 L449,9 L467,11 L492,16 L506,19 L521,23 L542,32 L561,42 L574,50 L587,59 L590,62 L590,64 L594,66 L605,76 L615,90 L621,100 L626,108 L629,116 L633,124 L639,145 L643,168 L643,197 L640,215 L635,226 L631,241 L624,252 L615,266 L606,278 L595,290 L586,297 L578,304 L572,308 L563,310 L554,311 L192,311 L191,307 L196,303 L204,296 L213,288 L220,280 L230,268 L236,260 L245,246 L249,237 L255,224 L258,214 L260,198 L261,195 L262,181 L262,162 L259,141 L255,130 L249,114 L244,103 L237,93 L232,85 L220,72 L208,60 L191,51 L165,41 L155,38 L139,33 L118,30 L111,28 L95,25 L79,23 L56,22 L30,19 L-7,21 L-45,23 L-73,25 L-105,30 L-122,35 L-134,38 L-155,45 L-176,55 L-188,63 L-198,71 L-205,79 L-212,87 L-217,93 L-222,102 L-225,106 L-228,116 L-234,130 L-238,151 L-239,180 L-238,196 L-235,210 L-231,222 L-222,238 L-212,252 L-201,264 L-195,269 L-190,274 L-175,284 L-175,286 L-173,286 L-172,288 L-172,416 L-173,491 L-173,537 L-172,546 L-169,549 L-164,550 L-155,550 L-144,552 L-63,552 L-21,553 L82,553 L131,554 L177,554 L181,552 L183,548 L185,510 L185,451 L187,417 L187,380 L188,358 L188,335 L191,332 L197,331 L256,330 L353,330 L367,331 L397,331 L428,330 L465,331 L575,331 L579,335 L580,340 L580,363 L579,372 L579,412 L578,488 L578,542 L577,562 L574,571 L567,578 L560,584 L549,587 L525,589 L515,590 L500,588 L408,587 L333,586 L242,585 L213,584 L145,584 L40,583 L-23,582 L-109,582 L-120,581 L-160,581 L-178,580 L-188,575 L-195,565 L-200,551 L-199,486 L-199,400 L-198,386 L-198,308 L-200,296 L-214,284 L-222,277 L-231,266 L-240,254 L-247,242 L-255,224 L-258,217 L-262,202 L-264,183 L-264,167 L-262,145 L-258,127 L-251,110 L-246,100 L-241,92 L-238,86 L-232,78 L-227,73 L-220,65 L-214,58 L-205,51 L-194,43 L-182,36 L-170,30 L-157,24 L-138,18 L-120,13 L-114,11 L-69,4 L-59,4 L-19,1 Z M514,352 L512,355 L514,357 L517,357 L517,353 Z " fill="#000000" transform="translate(294,30)"/>
</svg>
