<?xml version="1.0" encoding="UTF-8"?>
<!-- Generator: visioncortex VTracer 0.6.12 -->
<svg version="1.1" xmlns="http://www.w3.org/2000/svg" width="1137" height="1125">
<path d="M0,0 L622,0 L622,1125 L617,1125 L616,1124 L554,1124 L548,1123 L529,1124 L515,1124 L514,1125 L-512,1125 L-511,1114 L-510,1071 L-510,994 L-511,981 L-511,859 L-512,751 L-514,650 L-515,644 L-515,4 L-512,3 L-487,4 L-378,4 L-376,5 L-375,11 L-371,10 L-367,4 L-297,4 L-226,3 L-94,2 L-74,2 L-2,1 Z M540,7 L495,8 L469,8 L350,9 L305,10 L156,12 L115,12 L1,14 L-27,14 L-118,15 L-277,17 L-390,18 L-435,19 L-465,20 L-503,21 L-505,23 L-506,30 L-507,51 L-507,143 L-506,214 L-506,256 L-505,307 L-504,329 L-504,357 L-502,468 L-501,503 L-498,746 L-497,840 L-497,887 L-496,940 L-496,1017 L-495,1054 L-494,1120 L-489,1122 L-440,1122 L-348,1121 L-244,1120 L-62,1118 L-24,1118 L13,1117 L140,1115 L160,1115 L235,1114 L279,1113 L361,1113 L364,1111 L369,1112 L438,1112 L451,1111 L530,1110 L561,1109 L585,1108 L611,1108 L614,1105 L614,1016 L613,884 L613,629 L612,535 L611,392 L611,321 L610,277 L610,228 L609,212 L608,132 L607,77 L607,49 L605,22 L605,10 L603,8 L570,8 Z " fill="#000000" transform="translate(515,0)"/>
<path d="M0,0 L4,1 L14,14 L25,26 L29,32 L38,42 L46,52 L58,65 L64,73 L75,85 L86,99 L93,106 L101,116 L112,128 L121,139 L130,149 L139,160 L140,167 L127,183 L118,194 L111,203 L102,213 L95,222 L84,235 L73,249 L64,260 L59,266 L50,277 L39,290 L31,300 L23,310 L11,326 L6,332 L3,331 L3,301 L2,252 L1,247 L-1,246 L-43,246 L-112,247 L-149,248 L-158,254 L-169,263 L-179,271 L-181,271 L-182,274 L-192,281 L-203,290 L-211,297 L-224,308 L-234,316 L-247,327 L-256,334 L-258,334 L-258,336 L-265,341 L-269,345 L-282,355 L-292,364 L-300,370 L-311,379 L-324,390 L-339,402 L-349,410 L-356,416 L-366,424 L-375,431 L-385,440 L-396,448 L-405,455 L-410,460 L-422,470 L-433,479 L-447,490 L-460,501 L-471,509 L-482,518 L-490,525 L-495,529 L-516,530 L-581,531 L-671,532 L-701,533 L-766,533 L-769,530 L-770,494 L-771,378 L-768,374 L-718,374 L-627,372 L-598,372 L-518,371 L-518,347 L-519,322 L-519,303 L-517,301 L-432,300 L-429,297 L-432,238 L-431,232 L-430,231 L-346,230 L-344,229 L-344,209 L-346,163 L-344,160 L-285,159 L-261,159 L-257,157 L-259,109 L-260,94 L-257,89 L-132,88 L-110,88 L-57,87 L-2,86 L0,83 L0,53 L-1,1 Z " fill="#000000" transform="translate(878,264)"/>
<path d="M0,0 L4,1 L3,4 L-1,3 Z " fill="#000000" transform="translate(390,267)"/>
</svg>
