<?xml version="1.0" encoding="UTF-8"?>
<!-- Generator: visioncortex VTracer 0.6.12 -->
<svg version="1.1" xmlns="http://www.w3.org/2000/svg" width="534" height="648">
<path d="M0,0 L5,1 L15,7 L28,15 L32,19 L34,22 L34,35 L27,47 L23,53 L15,70 L3,92 L-3,99 L-7,105 L-12,112 L-15,119 L-19,123 L-24,134 L-32,145 L-36,155 L-42,162 L-47,174 L-54,185 L-57,191 L-62,197 L-66,208 L-73,216 L-82,230 L-84,237 L-87,242 L-90,247 L-94,250 L-98,260 L-104,268 L-110,277 L-117,289 L-121,299 L-127,305 L-131,313 L-139,324 L-145,337 L-148,344 L-151,347 L-153,363 L-145,370 L-137,374 L-127,380 L-114,387 L-94,400 L-77,410 L-68,416 L-49,427 L-32,437 L-28,443 L-29,452 L-34,461 L-37,464 L-43,464 L-55,457 L-63,450 L-70,445 L-78,441 L-87,435 L-98,428 L-114,420 L-126,413 L-135,408 L-145,401 L-161,392 L-172,386 L-177,382 L-186,377 L-193,372 L-205,366 L-215,359 L-231,350 L-241,344 L-256,335 L-266,329 L-274,324 L-280,321 L-294,311 L-306,305 L-318,298 L-334,290 L-342,286 L-345,282 L-344,273 L-338,264 L-334,261 L-327,262 L-318,268 L-300,278 L-280,289 L-269,295 L-257,302 L-256,305 L-251,307 L-243,312 L-226,322 L-209,331 L-205,333 L-199,333 L-194,329 L-188,318 L-181,307 L-173,294 L-165,281 L-160,272 L-156,265 L-151,256 L-141,240 L-136,231 L-128,215 L-121,205 L-114,195 L-108,185 L-102,173 L-98,164 L-90,150 L-84,142 L-77,128 L-69,116 L-65,108 L-56,94 L-49,83 L-45,77 L-37,61 L-31,51 L-20,33 L-11,18 L-2,2 Z " fill="#000000" transform="translate(467,36)"/>
<path d="M0,0 L7,0 L13,4 L22,10 L28,14 L46,25 L60,33 L67,37 L72,41 L81,46 L90,53 L97,57 L116,68 L123,72 L123,74 L128,76 L134,80 L139,83 L155,90 L163,95 L177,104 L183,107 L183,109 L189,111 L202,119 L215,128 L226,134 L235,140 L246,147 L260,154 L271,160 L276,164 L279,170 L278,180 L277,191 L275,196 L273,212 L270,220 L269,246 L264,258 L264,268 L261,274 L254,273 L243,267 L232,260 L214,250 L202,243 L200,240 L199,232 L201,220 L201,213 L197,214 L189,220 L187,220 L185,224 L180,228 L174,228 L165,222 L160,216 L160,208 L162,200 L165,184 L165,178 L155,180 L149,190 L143,198 L138,203 L133,202 L124,195 L122,192 L122,184 L123,181 L123,174 L115,175 L108,183 L100,184 L86,176 L82,172 L66,164 L53,156 L39,147 L23,137 L6,127 L0,123 L-3,118 L-2,110 L1,100 L1,94 L-3,95 L-12,105 L-16,108 L-25,108 L-31,103 L-32,101 L-32,95 L-29,90 L-22,80 L-19,74 L-19,69 L-27,71 L-37,77 L-52,86 L-58,86 L-64,83 L-74,74 L-82,67 L-89,61 L-88,56 L-81,53 L-69,47 L-64,44 L-55,42 L-48,38 L-39,30 L-28,24 L-17,15 L-5,5 Z " fill="#000000" transform="translate(125,342)"/>
</svg>
