<?xml version="1.0" encoding="UTF-8"?>
<!-- Generator: visioncortex VTracer 0.6.12 -->
<svg version="1.1" xmlns="http://www.w3.org/2000/svg" width="1245" height="1011">
<path d="M0,0 L11,0 L20,1 L34,6 L48,16 L53,21 L62,28 L68,32 L74,39 L78,41 L89,41 L98,38 L106,33 L117,27 L124,21 L130,17 L146,9 L149,8 L167,6 L186,7 L194,9 L204,14 L211,22 L219,31 L225,43 L228,60 L229,67 L229,82 L224,87 L221,88 L201,88 L198,84 L195,75 L195,64 L192,56 L187,50 L179,46 L165,46 L150,50 L133,58 L129,61 L117,65 L109,68 L98,72 L85,73 L80,75 L72,75 L59,67 L53,64 L40,54 L21,43 L16,40 L0,39 L-12,44 L-20,49 L-28,54 L-47,63 L-53,68 L-66,72 L-86,77 L-95,77 L-101,76 L-114,75 L-128,68 L-138,59 L-153,51 L-161,46 L-182,41 L-194,41 L-206,46 L-219,53 L-227,59 L-234,63 L-244,69 L-260,75 L-267,77 L-282,77 L-292,74 L-303,71 L-311,67 L-324,59 L-341,49 L-357,44 L-360,43 L-379,43 L-391,48 L-404,59 L-411,68 L-418,74 L-422,78 L-424,79 L-433,78 L-441,73 L-445,67 L-446,62 L-443,52 L-432,32 L-429,29 L-427,29 L-425,25 L-414,17 L-406,11 L-392,5 L-380,2 L-355,2 L-338,6 L-322,15 L-309,25 L-303,29 L-299,33 L-288,37 L-279,39 L-268,39 L-259,37 L-245,30 L-241,28 L-241,26 L-232,20 L-222,14 L-208,7 L-194,4 L-190,3 L-170,3 L-153,5 L-142,13 L-126,21 L-119,29 L-105,38 L-96,42 L-88,42 L-77,39 L-66,37 L-54,32 L-43,23 L-37,19 L-33,14 L-21,8 L-12,4 L-9,2 Z " fill="#000000" transform="translate(764,36)"/>
<path d="M0,0 L18,0 L24,3 L25,5 L28,48 L28,64 L29,87 L29,101 L30,137 L31,142 L31,161 L32,174 L33,211 L35,249 L35,262 L36,269 L36,293 L38,321 L40,358 L40,373 L41,384 L41,400 L43,417 L44,428 L45,478 L47,532 L47,547 L49,567 L51,632 L53,687 L54,691 L54,721 L50,726 L47,727 L27,728 L-95,727 L-109,728 L-150,727 L-157,728 L-192,728 L-198,729 L-201,728 L-255,728 L-276,729 L-373,729 L-411,730 L-449,730 L-528,731 L-558,731 L-568,732 L-642,732 L-654,731 L-656,729 L-658,704 L-658,674 L-659,646 L-659,611 L-660,585 L-660,532 L-661,505 L-662,463 L-663,404 L-664,372 L-665,336 L-666,290 L-667,264 L-667,238 L-669,158 L-669,133 L-665,122 L-660,118 L-606,118 L-565,117 L-554,118 L-519,117 L-471,117 L-435,116 L-403,116 L-371,115 L-327,115 L-315,114 L-309,115 L-295,115 L-274,114 L-259,114 L-256,115 L-248,115 L-245,114 L-182,114 L-173,117 L-171,121 L-172,136 L-172,154 L-171,161 L-171,201 L-170,227 L-170,260 L-169,310 L-169,343 L-167,388 L-167,417 L-165,466 L-165,511 L-164,517 L-163,538 L-161,539 L-126,539 L-110,540 L-84,540 L-80,539 L-57,539 L-48,538 L-45,535 L-44,443 L-45,428 L-46,361 L-47,337 L-48,267 L-49,223 L-49,199 L-50,189 L-50,166 L-51,86 L-51,36 L-52,8 L-49,3 L-47,2 Z M-263,127 L-264,132 L-263,133 L-257,133 L-256,128 L-257,127 Z M-302,168 L-320,169 L-323,172 L-324,177 L-323,251 L-320,258 L-313,259 L-297,259 L-260,258 L-238,258 L-233,255 L-231,252 L-231,220 L-232,203 L-232,179 L-234,170 L-237,168 Z M-455,169 L-465,171 L-467,181 L-467,254 L-465,258 L-461,260 L-404,260 L-382,259 L-378,255 L-379,183 L-380,173 L-384,169 Z M-567,170 L-576,171 L-594,171 L-604,173 L-606,176 L-607,182 L-607,224 L-606,254 L-604,259 L-600,262 L-574,261 L-536,261 L-522,260 L-519,256 L-518,253 L-518,236 L-520,176 L-522,172 L-526,170 Z M-279,306 L-288,307 L-317,307 L-321,310 L-322,315 L-321,335 L-320,388 L-317,394 L-312,396 L-278,396 L-231,394 L-228,391 L-228,359 L-230,313 L-232,308 L-233,307 Z M-459,308 L-463,310 L-464,312 L-465,324 L-465,340 L-464,379 L-464,387 L-460,396 L-459,397 L-446,397 L-428,398 L-399,397 L-382,397 L-377,395 L-376,393 L-376,344 L-377,318 L-378,311 L-381,308 Z M-540,309 L-601,310 L-604,314 L-605,336 L-604,371 L-604,389 L-601,396 L-595,399 L-557,399 L-522,398 L-517,395 L-516,393 L-515,378 L-516,356 L-517,317 L-519,311 L-524,309 Z M-312,441 L-317,443 L-318,447 L-318,486 L-317,523 L-317,536 L-312,541 L-248,541 L-228,540 L-225,537 L-224,528 L-225,479 L-226,450 L-228,443 L-231,441 Z M-422,442 L-457,443 L-461,446 L-462,476 L-461,487 L-461,534 L-457,542 L-448,543 L-398,543 L-378,542 L-374,538 L-374,460 L-375,446 L-379,442 Z M-560,443 L-597,444 L-601,447 L-602,450 L-602,535 L-599,542 L-596,544 L-562,545 L-519,544 L-514,539 L-514,475 L-515,447 L-518,444 L-544,443 Z M-281,587 L-312,588 L-315,591 L-316,615 L-316,649 L-314,670 L-310,673 L-290,673 L-279,674 L-275,673 L-230,673 L-224,670 L-223,668 L-223,636 L-224,591 L-228,587 L-243,588 L-253,587 Z M-148,587 L-160,588 L-163,592 L-164,620 L-163,667 L-159,671 L-155,673 L-141,672 L-135,673 L-118,672 L-110,673 L-94,672 L-65,672 L-60,671 L-56,672 L-49,672 L-44,667 L-43,662 L-43,600 L-45,590 L-50,587 Z M-454,589 L-459,594 L-460,600 L-460,654 L-459,668 L-457,673 L-455,674 L-385,674 L-374,672 L-372,670 L-372,603 L-373,593 L-377,589 Z M-527,590 L-557,591 L-596,591 L-600,595 L-601,599 L-601,651 L-599,672 L-591,675 L-523,675 L-514,673 L-512,669 L-512,608 L-514,593 L-520,590 Z " fill="#000000" transform="translate(989,155)"/>
<path d="M0,0 L16,1 L85,0 L128,0 L134,1 L134,7 L28,8 L-153,8 L-220,9 L-307,9 L-445,10 L-540,10 L-740,11 L-911,11 L-1066,12 L-1111,11 L-1111,5 L-1076,4 L-715,4 L-709,3 L-540,3 L-335,2 L-207,2 L-160,1 L-12,1 Z " fill="#000000" transform="translate(1111,966)"/>
</svg>
