<?xml version="1.0" encoding="UTF-8"?>
<!-- Generator: visioncortex VTracer 0.6.12 -->
<svg version="1.1" xmlns="http://www.w3.org/2000/svg" width="843" height="1089">
<path d="M0,0 L9,0 L16,4 L19,7 L19,9 L23,11 L30,19 L37,29 L43,38 L53,51 L58,60 L65,69 L74,79 L80,87 L89,97 L99,110 L104,116 L112,119 L125,119 L130,120 L174,121 L187,122 L197,123 L249,123 L259,124 L309,125 L361,125 L370,126 L400,126 L405,130 L407,139 L406,169 L407,181 L409,196 L412,201 L423,203 L429,207 L430,209 L430,338 L427,344 L419,348 L410,351 L408,366 L407,382 L408,406 L408,570 L409,574 L409,594 L408,622 L409,657 L409,695 L410,699 L422,702 L427,705 L429,709 L431,720 L431,776 L430,816 L429,832 L426,844 L420,847 L412,849 L407,852 L405,861 L407,876 L408,901 L409,913 L410,916 L410,931 L411,944 L408,961 L399,978 L395,982 L393,982 L393,984 L391,984 L390,987 L375,994 L361,996 L346,995 L331,987 L318,973 L313,965 L309,961 L305,949 L302,943 L294,937 L290,936 L278,936 L258,940 L254,943 L251,950 L249,972 L246,983 L242,987 L238,988 L177,988 L124,987 L118,986 L91,985 L86,980 L85,974 L84,921 L87,885 L87,867 L86,834 L86,807 L89,803 L95,804 L106,812 L120,820 L127,823 L136,823 L144,819 L154,812 L165,805 L177,796 L187,787 L198,778 L208,770 L214,767 L221,767 L231,770 L249,777 L268,786 L287,795 L296,802 L297,803 L297,811 L293,820 L289,823 L279,822 L254,813 L242,807 L235,807 L234,818 L237,834 L240,843 L245,847 L247,848 L264,848 L271,847 L278,849 L288,850 L307,850 L321,848 L325,844 L326,828 L327,816 L328,796 L327,789 L328,773 L327,766 L327,756 L329,741 L330,695 L330,683 L331,672 L331,644 L332,634 L332,559 L331,556 L331,532 L332,478 L331,468 L332,430 L331,422 L331,412 L332,401 L332,379 L331,371 L332,367 L332,279 L331,274 L330,245 L327,239 L320,238 L311,237 L306,236 L288,235 L276,235 L265,233 L240,233 L192,232 L186,229 L186,223 L189,220 L256,220 L267,221 L274,220 L314,220 L319,221 L331,221 L334,220 L344,220 L348,224 L348,247 L347,278 L347,306 L346,361 L346,422 L344,491 L345,518 L344,535 L343,580 L343,677 L342,716 L342,771 L341,801 L340,807 L341,815 L341,829 L339,850 L336,857 L333,859 L321,861 L284,861 L251,863 L246,866 L245,867 L244,879 L246,889 L247,903 L250,909 L253,911 L263,911 L265,910 L289,909 L305,907 L318,903 L328,895 L341,889 L353,886 L368,886 L374,883 L378,873 L379,816 L379,796 L378,773 L379,768 L380,753 L380,669 L381,644 L381,597 L380,506 L380,278 L381,272 L380,226 L380,183 L381,179 L380,163 L375,158 L371,157 L331,156 L273,156 L265,155 L196,154 L168,153 L161,154 L142,155 L133,160 L125,168 L119,177 L112,177 L97,168 L89,162 L81,157 L73,151 L68,149 L61,150 L57,151 L55,155 L52,161 L53,168 L54,174 L53,192 L58,201 L66,211 L70,220 L80,245 L84,253 L86,254 L92,254 L95,253 L97,247 L102,236 L106,227 L115,219 L119,217 L129,216 L145,219 L151,223 L157,231 L162,240 L168,249 L174,264 L177,278 L177,288 L175,301 L174,316 L171,322 L170,335 L171,337 L171,354 L168,366 L163,385 L157,411 L153,428 L150,439 L147,447 L142,460 L139,469 L131,480 L126,485 L118,492 L108,496 L97,498 L85,498 L68,490 L57,481 L48,472 L41,461 L36,455 L30,445 L25,432 L21,413 L17,401 L13,394 L6,393 L1,398 L-9,424 L-12,435 L-14,446 L-14,461 L-16,495 L-18,512 L-20,518 L-22,535 L-22,547 L-18,556 L-10,572 L-2,591 L2,603 L10,619 L16,631 L19,639 L22,646 L27,654 L35,673 L42,687 L50,705 L55,719 L59,729 L64,739 L68,754 L69,766 L69,777 L68,787 L67,891 L68,935 L69,943 L69,972 L67,982 L61,985 L46,986 L23,986 L-46,983 L-55,981 L-59,978 L-60,974 L-60,941 L-65,936 L-70,934 L-83,933 L-101,934 L-109,936 L-114,941 L-118,954 L-123,964 L-135,977 L-146,985 L-154,989 L-170,991 L-182,991 L-194,986 L-208,976 L-217,967 L-222,966 L-226,970 L-232,978 L-238,980 L-268,981 L-279,982 L-305,982 L-328,981 L-344,981 L-351,979 L-354,975 L-353,962 L-347,937 L-340,905 L-335,887 L-332,876 L-326,853 L-321,832 L-314,807 L-313,805 L-311,793 L-306,775 L-302,757 L-295,734 L-290,709 L-283,685 L-278,663 L-276,655 L-272,636 L-266,616 L-265,615 L-263,604 L-256,578 L-257,567 L-260,561 L-267,557 L-287,550 L-311,542 L-316,538 L-315,532 L-310,519 L-305,501 L-296,481 L-290,465 L-287,456 L-282,445 L-278,433 L-273,423 L-269,410 L-268,408 L-268,398 L-273,391 L-286,384 L-301,375 L-310,369 L-315,365 L-324,359 L-332,349 L-333,347 L-333,324 L-329,314 L-323,302 L-318,294 L-313,283 L-310,277 L-303,267 L-297,257 L-292,247 L-285,235 L-278,221 L-271,211 L-263,198 L-259,193 L-255,187 L-249,178 L-243,170 L-238,161 L-227,149 L-215,139 L-201,132 L-161,122 L-151,122 L-120,125 L-99,126 L-94,123 L-87,112 L-84,106 L-78,103 L-68,100 L-64,97 L-61,82 L-57,73 L-54,56 L-46,45 L-39,36 L-32,29 L-24,18 L-14,7 L-4,1 Z M-33,76 L-39,79 L-46,90 L-47,93 L-47,104 L-42,111 L-27,117 L-10,124 L2,129 L19,140 L26,145 L32,146 L36,144 L41,136 L41,129 L34,121 L24,113 L9,102 L-1,95 L-5,90 L-17,82 L-24,78 Z M124,239 L119,244 L114,250 L110,261 L107,272 L106,279 L107,295 L110,302 L115,306 L132,310 L136,312 L143,312 L149,308 L153,301 L154,297 L154,268 L149,254 L148,245 L148,240 L146,239 Z M-123,663 L-126,666 L-130,678 L-133,687 L-137,696 L-142,714 L-144,720 L-143,741 L-144,795 L-143,806 L-143,834 L-137,844 L-135,845 L-120,846 L-106,848 L-63,847 L-58,842 L-56,835 L-57,826 L-55,818 L-56,811 L-59,790 L-66,774 L-73,760 L-78,748 L-86,732 L-92,720 L-99,700 L-103,694 L-108,681 L-113,673 L-116,665 L-120,663 Z M-159,774 L-164,780 L-173,805 L-178,821 L-180,824 L-184,840 L-188,851 L-196,879 L-195,884 L-190,886 L-177,883 L-162,883 L-143,891 L-129,901 L-123,904 L-112,907 L-71,907 L-63,905 L-60,902 L-58,888 L-58,878 L-60,863 L-64,859 L-73,857 L-90,856 L-119,856 L-123,857 L-134,857 L-149,853 L-152,849 L-153,806 L-153,786 L-155,776 Z " fill="#000000" transform="translate(385,31)"/>
</svg>
