<?xml version="1.0" encoding="UTF-8"?>
<!-- Generator: visioncortex VTracer 0.6.12 -->
<svg version="1.1" xmlns="http://www.w3.org/2000/svg" width="474" height="1014">
<path d="M0,0 L37,2 L53,6 L66,10 L84,21 L89,26 L93,33 L93,49 L91,57 L87,64 L81,72 L74,93 L68,103 L62,111 L50,120 L39,126 L29,130 L27,130 L27,136 L36,140 L43,144 L48,149 L57,157 L61,168 L61,179 L60,198 L56,216 L51,228 L46,244 L37,268 L31,285 L24,303 L20,316 L10,344 L2,370 L-1,378 L-5,391 L-14,419 L-19,437 L-23,446 L-24,453 L-24,464 L-21,477 L-17,488 L-5,523 L5,553 L10,567 L15,581 L17,587 L20,596 L25,610 L30,623 L34,635 L41,656 L44,676 L44,688 L42,702 L39,736 L39,747 L36,768 L36,786 L34,801 L34,812 L32,827 L32,838 L30,848 L27,892 L25,915 L24,920 L23,939 L20,952 L15,956 L-1,957 L-18,956 L-69,956 L-76,954 L-79,951 L-79,932 L-78,923 L-77,906 L-73,866 L-70,839 L-65,777 L-64,771 L-62,746 L-60,724 L-60,702 L-62,693 L-66,683 L-73,662 L-81,642 L-83,633 L-89,617 L-94,605 L-96,603 L-101,603 L-103,618 L-107,679 L-110,722 L-111,746 L-113,759 L-117,769 L-124,779 L-132,788 L-139,796 L-150,807 L-157,815 L-168,827 L-175,835 L-181,842 L-183,842 L-185,846 L-192,854 L-196,859 L-205,870 L-212,877 L-221,888 L-230,899 L-243,912 L-250,920 L-261,933 L-271,942 L-275,943 L-281,940 L-285,936 L-290,926 L-297,914 L-301,906 L-310,891 L-316,882 L-322,869 L-322,862 L-316,853 L-308,844 L-301,834 L-298,830 L-294,823 L-288,815 L-286,815 L-284,811 L-274,800 L-267,792 L-257,781 L-250,772 L-246,767 L-244,767 L-242,763 L-234,751 L-229,744 L-221,727 L-219,719 L-220,680 L-220,658 L-223,613 L-224,577 L-225,561 L-227,516 L-230,504 L-232,502 L-238,503 L-249,510 L-260,519 L-266,523 L-272,523 L-277,518 L-285,502 L-288,493 L-296,472 L-305,455 L-309,445 L-314,432 L-314,426 L-306,416 L-298,409 L-289,402 L-279,392 L-268,383 L-263,375 L-262,370 L-267,354 L-272,342 L-277,329 L-285,312 L-289,301 L-296,284 L-299,276 L-302,264 L-302,254 L-300,245 L-292,229 L-288,224 L-286,224 L-284,218 L-276,210 L-265,202 L-255,194 L-252,191 L-250,191 L-249,188 L-235,178 L-227,171 L-216,164 L-206,155 L-197,148 L-183,138 L-172,130 L-164,124 L-156,117 L-141,106 L-135,101 L-133,101 L-133,99 L-120,89 L-106,82 L-95,79 L-86,79 L-74,82 L-61,89 L-54,96 L-47,105 L-37,115 L-32,122 L-19,131 L-13,134 L-7,135 L8,135 L8,131 L0,127 L-12,121 L-25,109 L-32,99 L-36,91 L-39,80 L-40,67 L-46,58 L-58,47 L-61,41 L-63,30 L-62,24 L-59,19 L-45,10 L-35,7 L-10,1 Z M7,36 L-8,38 L-18,43 L-25,53 L-28,65 L-28,79 L-26,93 L-22,97 L-11,106 L-2,112 L9,117 L27,117 L39,113 L50,106 L60,95 L65,87 L68,77 L68,62 L62,53 L56,48 L41,41 L23,37 L16,36 Z M3,162 L-2,167 L-12,186 L-14,192 L-14,201 L-10,204 L-3,206 L5,205 L9,201 L11,194 L11,184 L9,167 L6,162 Z M-25,221 L-32,225 L-36,230 L-39,238 L-42,243 L-41,250 L-36,254 L-21,256 L6,256 L11,251 L13,246 L13,234 L10,227 L7,224 L1,222 L-6,221 Z M-50,267 L-56,271 L-62,280 L-62,286 L-59,289 L-51,291 L-31,293 L-5,294 L3,291 L7,283 L7,276 L2,272 L-1,271 L-35,267 Z M-74,305 L-80,309 L-84,314 L-85,316 L-85,322 L-80,326 L-75,327 L-39,329 L-33,330 L-20,330 L-11,328 L-7,323 L-6,321 L-6,312 L-11,308 L-36,305 Z M-94,342 L-102,344 L-107,348 L-109,352 L-108,359 L-104,361 L-64,365 L-42,368 L-28,368 L-22,365 L-18,359 L-18,352 L-20,348 L-28,345 L-60,343 L-76,343 Z M-121,375 L-129,379 L-135,386 L-136,395 L-130,398 L-117,400 L-87,403 L-72,404 L-40,404 L-34,401 L-31,397 L-31,388 L-36,384 L-46,382 L-72,380 L-91,377 L-111,375 Z M-150,412 L-156,415 L-160,420 L-161,428 L-156,431 L-140,434 L-107,438 L-53,441 L-46,438 L-42,433 L-41,430 L-41,423 L-45,420 L-58,418 L-76,418 L-83,416 L-133,412 Z " fill="#000000" transform="translate(353,29)"/>
</svg>
