<?xml version="1.0" encoding="UTF-8"?>
<!-- Generator: visioncortex VTracer 0.6.12 -->
<svg version="1.1" xmlns="http://www.w3.org/2000/svg" width="1089" height="1200">
<path d="M0,0 L43,1 L43,9 L38,10 L-31,10 L-56,11 L-831,11 L-878,12 L-923,12 L-965,13 L-979,14 L-982,17 L-983,80 L-983,322 L-985,342 L-983,349 L-983,400 L-984,509 L-985,606 L-985,645 L-986,665 L-985,668 L-985,774 L-984,831 L-984,1102 L-983,1118 L-977,1122 L-905,1122 L-793,1121 L-460,1121 L-407,1122 L-218,1122 L-206,1121 L-133,1121 L-129,1122 L43,1122 L43,1130 L-18,1130 L-40,1131 L-47,1130 L-118,1131 L-143,1132 L-192,1131 L-222,1132 L-288,1130 L-342,1130 L-358,1131 L-366,1130 L-461,1130 L-507,1131 L-521,1130 L-885,1130 L-893,1131 L-945,1130 L-982,1131 L-984,1132 L-996,1132 L-998,1130 L-997,1108 L-996,1043 L-996,783 L-997,732 L-997,698 L-996,574 L-995,490 L-995,467 L-994,350 L-993,345 L-994,343 L-994,312 L-995,230 L-995,129 L-996,24 L-997,8 L-992,4 L-972,4 L-967,3 L-855,3 L-760,2 L-662,2 L-578,1 L-488,1 L-268,2 L-149,2 L-105,1 L-24,1 Z " fill="#000000" transform="translate(1046,35)"/>
<path d="M0,0 L2,1 Z " fill="#000000" transform="translate(107,223)"/>
<path d="M0,0 L491,0 L498,1 L511,1 L518,4 L532,13 L537,19 L545,34 L547,52 L547,123 L548,143 L548,268 L549,346 L549,427 L548,550 L548,582 L546,599 L542,612 L536,620 L528,627 L518,633 L505,634 L496,636 L451,636 L409,637 L395,636 L247,635 L199,635 L175,636 L114,636 L85,637 L17,637 L1,636 L-20,634 L-30,631 L-42,623 L-48,615 L-52,608 L-55,598 L-56,584 L-56,488 L-57,431 L-57,408 L-58,373 L-58,215 L-59,173 L-59,154 L-58,120 L-58,84 L-59,42 L-55,28 L-49,19 L-39,9 L-27,2 L-24,1 Z M66,10 L67,14 L71,14 L71,10 Z M373,26 L367,27 L316,27 L289,28 L200,28 L148,27 L134,28 L109,27 L77,28 L65,32 L54,40 L48,48 L46,57 L46,74 L48,81 L58,94 L69,100 L76,102 L104,103 L175,103 L199,102 L210,104 L225,104 L229,102 L230,95 L222,82 L220,76 L221,54 L223,48 L227,49 L228,53 L229,77 L232,84 L236,88 L243,89 L250,86 L254,80 L255,74 L256,51 L257,49 L262,50 L263,54 L263,71 L261,83 L257,91 L252,95 L252,100 L256,103 L265,104 L277,103 L282,100 L281,94 L275,87 L276,81 L282,82 L287,86 L293,87 L298,84 L299,83 L299,77 L294,72 L279,66 L275,60 L275,53 L278,47 L288,41 L298,42 L304,45 L306,48 L306,51 L302,52 L292,49 L287,52 L287,58 L293,63 L303,67 L308,71 L310,75 L310,83 L305,91 L300,97 L301,101 L304,103 L408,103 L423,100 L433,92 L440,82 L443,74 L444,59 L441,49 L435,39 L427,33 L417,29 L404,27 Z M208,127 L203,128 L157,129 L110,129 L100,128 L87,129 L15,129 L-6,128 L-19,130 L-28,137 L-31,145 L-32,158 L-32,390 L-31,412 L-28,422 L-23,426 L-18,428 L-9,430 L213,430 L228,429 L233,426 L236,420 L237,386 L237,279 L236,262 L236,239 L237,225 L235,180 L235,144 L232,133 L227,129 L216,127 Z M390,127 L385,128 L279,128 L260,129 L252,133 L250,139 L249,147 L249,181 L250,251 L248,267 L250,274 L250,372 L251,420 L254,426 L259,429 L290,430 L295,431 L310,430 L508,430 L517,426 L523,419 L524,415 L524,244 L523,227 L523,177 L522,151 L520,138 L529,139 L531,136 L531,131 L528,129 L523,130 L520,135 L515,133 L512,130 L507,128 L485,127 L411,127 L402,128 L397,127 Z M42,481 L26,486 L16,491 L5,503 L-1,515 L-3,521 L-3,542 L2,556 L5,560 L9,567 L20,576 L31,581 L34,582 L53,582 L66,579 L78,572 L88,561 L92,553 L95,540 L95,521 L93,511 L87,503 L80,495 L74,490 L64,484 L48,481 Z M442,482 L425,485 L415,491 L405,500 L397,516 L395,522 L394,537 L395,546 L400,556 L403,562 L414,574 L425,580 L434,583 L455,583 L464,581 L475,575 L481,570 L481,568 L484,567 L492,554 L494,545 L494,537 L493,534 L492,513 L486,501 L477,492 L462,484 L453,482 Z M255,590 L252,593 L251,602 L255,601 L257,598 L257,590 Z " fill="#000000" transform="translate(373,269)"/>
<path d="M0,0 L9,0 L18,2 L24,6 L26,10 L26,24 L28,31 L28,44 L24,50 L15,55 L9,56 L0,55 L-5,50 L-8,43 L-9,34 L-9,13 L-7,5 L-3,1 Z M7,11 L4,14 L5,18 L10,20 L13,17 L12,12 Z M7,31 L3,35 L3,40 L8,44 L13,43 L17,39 L16,34 L12,31 Z " fill="#000000" transform="translate(557,310)"/>
<path d="M0,0 L29,2 L34,5 L37,9 L38,14 L38,30 L39,41 L38,83 L37,104 L33,114 L25,120 L23,121 L-4,121 L-20,122 L-48,122 L-59,118 L-64,112 L-68,104 L-69,40 L-68,17 L-66,7 L-61,3 L-56,2 L-23,1 L-4,1 Z " fill="#000000" transform="translate(435,912)"/>
<path d="M0,0 L76,0 L87,1 L92,4 L94,6 L95,25 L95,93 L94,105 L89,113 L84,117 L81,118 L34,118 L26,119 L2,117 L-4,114 L-8,108 L-10,101 L-11,56 L-11,7 L-4,1 Z " fill="#000000" transform="translate(776,914)"/>
</svg>
