<?xml version="1.0" encoding="UTF-8"?>
<!-- Generator: visioncortex VTracer 0.6.12 -->
<svg version="1.1" xmlns="http://www.w3.org/2000/svg" width="885" height="1266">
<path d="M0,0 L12,1 L34,0 L48,0 L60,2 L73,3 L75,4 L88,6 L95,8 L95,1019 L93,1020 L79,1021 L77,1022 L41,1023 L40,1030 L36,1031 L32,1024 L30,1023 L15,1024 L9,1023 L-23,1023 L-48,1024 L-74,1024 L-106,1025 L-140,1024 L-157,1025 L-167,1024 L-183,1025 L-189,1024 L-197,1026 L-223,1025 L-245,1026 L-249,1025 L-256,1025 L-258,1026 L-288,1026 L-294,1027 L-301,1026 L-329,1027 L-334,1026 L-347,1027 L-391,1027 L-410,1028 L-416,1029 L-438,1030 L-443,1029 L-457,1031 L-462,1033 L-466,1032 L-467,1031 L-486,1030 L-512,1031 L-513,1032 L-520,1032 L-527,1031 L-537,1031 L-554,1029 L-574,1025 L-586,1022 L-596,1020 L-606,1015 L-624,1007 L-639,998 L-648,992 L-664,980 L-671,974 L-675,969 L-685,961 L-693,950 L-697,944 L-702,939 L-706,931 L-718,911 L-726,891 L-730,883 L-736,860 L-739,847 L-740,831 L-741,826 L-742,797 L-743,721 L-743,696 L-744,654 L-744,641 L-745,615 L-746,550 L-746,517 L-747,502 L-749,397 L-749,374 L-750,332 L-751,313 L-752,248 L-752,219 L-751,200 L-748,176 L-746,171 L-742,154 L-739,147 L-735,136 L-727,120 L-721,110 L-714,99 L-705,88 L-697,78 L-691,71 L-686,67 L-681,62 L-670,53 L-654,42 L-648,38 L-627,28 L-618,24 L-600,18 L-589,15 L-575,12 L-563,10 L-539,9 L-523,9 L-479,8 L-472,7 L-407,7 L-391,6 L-351,6 L-319,5 L-284,5 L-245,4 L-231,3 L-194,3 L-161,2 L-96,2 L-74,1 L-12,1 Z M-253,210 L-272,212 L-301,213 L-312,214 L-322,216 L-338,217 L-348,218 L-368,222 L-378,223 L-380,224 L-390,225 L-392,227 L-399,227 L-411,230 L-419,233 L-428,235 L-431,237 L-440,239 L-452,244 L-458,248 L-468,253 L-478,263 L-483,267 L-490,283 L-493,295 L-495,308 L-496,311 L-500,346 L-502,368 L-505,415 L-506,463 L-505,523 L-504,537 L-503,564 L-499,623 L-497,641 L-496,665 L-494,682 L-492,701 L-485,757 L-482,768 L-479,771 L-470,775 L-467,780 L-465,805 L-465,815 L-463,831 L-459,834 L-447,837 L-429,837 L-419,836 L-412,830 L-411,804 L-411,781 L-408,773 L-405,772 L-376,772 L-330,771 L-271,771 L-249,770 L-215,769 L-193,769 L-171,768 L-138,769 L-104,768 L-87,768 L-71,769 L-69,771 L-67,785 L-65,822 L-60,828 L-54,831 L-20,831 L-14,827 L-11,821 L-10,810 L-9,775 L-5,767 L1,764 L4,758 L7,741 L9,718 L10,714 L13,680 L17,643 L19,605 L21,569 L23,555 L23,545 L24,529 L24,494 L23,455 L19,398 L17,371 L15,362 L13,346 L9,316 L6,304 L3,288 L0,281 L-3,272 L-9,264 L-18,255 L-30,249 L-37,243 L-46,240 L-48,238 L-58,236 L-63,234 L-74,233 L-81,229 L-95,225 L-107,224 L-113,222 L-125,221 L-130,219 L-158,215 L-164,216 L-168,221 L-171,221 L-173,217 L-179,218 L-188,223 L-193,229 L-195,229 L-198,222 L-200,221 L-200,214 L-206,212 L-218,213 L-234,211 Z " fill="#000000" transform="translate(790,36)"/>
<path d="M0,0 L8,0 L18,1 L52,1 L79,2 L84,7 L85,12 L85,28 L83,36 L75,41 L58,42 L1,42 L-20,43 L-53,43 L-68,44 L-74,43 L-91,43 L-100,44 L-176,44 L-184,40 L-187,35 L-188,21 L-187,12 L-182,6 L-173,5 L-164,5 L-158,4 L-117,4 L-106,3 L-104,4 L-97,4 L-93,3 L-60,2 L-44,3 L-37,2 L-19,2 L-3,1 Z " fill="#000000" transform="translate(595,286)"/>
<path d="M0,0 L10,1 L17,3 L21,8 L23,13 L25,29 L25,40 L27,46 L30,70 L30,95 L32,100 L33,129 L33,201 L32,241 L28,250 L23,253 L-15,254 L-21,253 L-29,254 L-62,255 L-189,255 L-196,254 L-198,255 L-226,255 L-238,254 L-248,256 L-271,256 L-284,257 L-346,257 L-352,258 L-384,258 L-395,257 L-400,251 L-402,242 L-404,220 L-405,187 L-405,97 L-402,58 L-400,28 L-397,15 L-391,7 L-379,7 L-369,6 L-348,6 L-345,5 L-308,5 L-299,4 L-240,3 L-221,3 L-205,2 L-162,2 L-152,1 L-147,2 L-121,2 L-80,1 L-20,1 Z M-44,78 L-42,82 L-36,83 L-35,81 L-41,79 Z " fill="#000000" transform="translate(734,346)"/>
<path d="M0,0 L7,1 L18,5 L27,13 L33,23 L35,30 L35,44 L31,54 L24,63 L10,70 L7,71 L-5,71 L-15,68 L-23,62 L-28,56 L-34,44 L-34,27 L-27,13 L-23,8 L-9,1 Z " fill="#000000" transform="translate(748,649)"/>
<path d="M0,0 L8,0 L21,3 L32,11 L38,20 L40,29 L39,46 L34,56 L26,63 L18,67 L8,70 L-1,68 L-9,65 L-16,61 L-22,53 L-25,49 L-28,41 L-28,29 L-24,16 L-15,6 L-8,2 Z " fill="#000000" transform="translate(346,654)"/>
<path d="M0,0 L23,0 L31,5 L38,13 L39,15 L39,24 L38,25 L31,24 L27,19 L22,14 L16,11 L5,11 L-3,16 L-5,19 L-5,25 L0,31 L4,33 L20,35 L36,42 L42,49 L45,54 L45,63 L39,73 L32,79 L23,84 L2,84 L-10,79 L-15,74 L-19,67 L-20,64 L-20,57 L-18,55 L-12,55 L-7,60 L-2,68 L7,72 L21,71 L27,67 L28,65 L28,57 L25,52 L17,47 L5,45 L-10,40 L-16,33 L-18,29 L-18,16 L-13,8 L-8,4 Z " fill="#000000" transform="translate(213,1144)"/>
<path d="M0,0 L35,0 L44,3 L51,9 L55,17 L54,30 L50,38 L44,45 L39,48 L31,48 L25,49 L12,49 L10,50 L8,56 L8,74 L6,80 L0,81 L-3,78 L-5,68 L-5,56 L-6,41 L-6,8 L-3,2 Z M14,10 L8,14 L7,17 L7,30 L10,36 L16,37 L29,37 L39,33 L42,27 L41,18 L37,13 L31,10 Z " fill="#000000" transform="translate(126,1148)"/>
<path d="M0,0 L6,0 L12,4 L19,14 L23,19 L31,32 L38,42 L45,52 L49,53 L49,4 L54,0 L59,1 L62,5 L63,16 L63,71 L62,79 L58,83 L51,82 L46,77 L39,67 L32,56 L23,44 L17,34 L15,31 L11,31 L11,76 L8,82 L0,82 L-3,75 L-3,36 L-4,31 L-4,4 Z " fill="#000000" transform="translate(40,1149)"/>
</svg>
