<?xml version="1.0" encoding="UTF-8"?>
<!-- Generator: visioncortex VTracer 0.6.12 -->
<svg version="1.1" xmlns="http://www.w3.org/2000/svg" width="1119" height="1113">
<path d="M0,0 L182,0 L182,2 L179,3 L12,4 L8,9 L7,19 L6,50 L6,193 L5,216 L5,251 L4,384 L4,453 L3,834 L2,840 L3,867 L3,902 L2,910 L2,951 L0,953 Z " fill="#000000" transform="translate(0,0)"/>
<path d="M0,0 L410,0 L409,2 L377,3 L84,3 L59,2 L42,3 L2,3 Z " fill="#000000" transform="translate(186,0)"/>
<path d="M0,0 L10,0 L9,2 L1,2 Z " fill="#000000" transform="translate(603,0)"/>
<path d="M0,0 L5,0 L4,2 Z " fill="#000000" transform="translate(620,0)"/>
<path d="M0,0 Z " fill="#000000" transform="translate(645,0)"/>
<path d="M0,0 L6,0 L5,2 L0,1 Z " fill="#000000" transform="translate(751,0)"/>
<path d="M0,0 L5,0 L4,2 L0,1 Z " fill="#000000" transform="translate(829,0)"/>
<path d="M0,0 L7,0 L7,1113 L-1112,1113 L-1112,1091 L-1110,1093 L-1108,1106 L-1103,1109 L-414,1109 L-320,1108 L-269,1108 L-172,1107 L-147,1107 L-56,1106 L-6,1106 L-1,1101 L0,1099 L1,1082 L2,1038 L2,849 L3,427 L4,160 L4,84 L3,8 L1,3 Z " fill="#000000" transform="translate(1112,0)"/>
<path d="M0,0 L6,1 L40,1 L55,3 L67,1 L82,0 L96,2 L108,2 L136,1 L145,3 L151,1 L188,1 L197,2 L202,1 L212,1 L221,4 L228,5 L236,1 L244,1 L257,2 L270,2 L275,3 L281,1 L287,3 L290,2 L310,2 L315,3 L319,1 L329,2 L343,2 L347,1 L380,1 L384,3 L399,2 L424,2 L450,3 L454,2 L495,3 L502,3 L507,5 L511,3 L535,3 L542,4 L545,3 L569,3 L574,4 L577,3 L596,3 L605,2 L610,6 L614,5 L618,2 L630,3 L643,3 L650,5 L663,6 L673,11 L690,16 L701,22 L706,26 L713,30 L722,37 L729,46 L733,51 L739,56 L747,68 L753,77 L757,86 L761,94 L766,109 L767,116 L767,145 L768,181 L767,184 L767,197 L768,205 L768,306 L767,308 L767,318 L769,344 L768,377 L769,387 L768,394 L769,422 L767,437 L766,443 L768,447 L768,467 L766,474 L764,479 L759,480 L752,480 L749,481 L714,481 L704,482 L693,482 L681,480 L672,481 L646,481 L644,480 L610,481 L583,481 L574,480 L571,481 L553,481 L544,480 L539,476 L538,474 L536,449 L529,427 L526,418 L517,408 L510,399 L505,394 L494,385 L491,382 L491,380 L481,380 L470,374 L463,371 L452,369 L450,367 L444,367 L434,370 L425,369 L416,369 L407,373 L399,375 L387,380 L382,383 L377,388 L373,392 L371,392 L369,396 L363,404 L357,412 L352,420 L347,431 L343,445 L340,469 L338,476 L335,479 L329,480 L292,480 L274,479 L255,479 L250,480 L237,480 L206,479 L102,479 L98,478 L95,479 L28,479 L21,478 L15,479 L0,478 L-17,478 L-21,476 L-23,468 L-23,450 L-30,428 L-35,416 L-39,409 L-44,405 L-50,395 L-60,387 L-67,380 L-77,375 L-86,371 L-96,367 L-106,367 L-109,365 L-119,365 L-128,364 L-132,365 L-138,365 L-148,369 L-154,371 L-170,376 L-176,381 L-179,382 L-187,392 L-193,396 L-201,406 L-211,423 L-215,432 L-218,446 L-219,462 L-222,475 L-227,478 L-243,478 L-250,477 L-261,479 L-277,478 L-286,479 L-288,478 L-299,478 L-309,476 L-312,470 L-312,329 L-311,318 L-310,295 L-309,285 L-307,280 L-307,272 L-299,238 L-297,233 L-294,219 L-290,205 L-286,191 L-280,172 L-277,166 L-275,157 L-270,141 L-267,132 L-261,113 L-254,98 L-249,84 L-241,70 L-236,60 L-229,52 L-220,41 L-216,36 L-205,29 L-192,19 L-173,10 L-165,6 L-153,5 L-141,2 L-139,1 L-133,1 L-129,2 L-109,1 L-96,1 L-90,2 L-88,1 L-81,1 L-79,2 L-39,2 L-37,1 L-4,1 Z M0,51 L-19,53 L-33,53 L-44,55 L-50,62 L-51,65 L-52,85 L-53,89 L-53,133 L-50,152 L-45,157 L-40,160 L-29,161 L-27,162 L112,162 L122,158 L127,152 L129,143 L130,97 L130,75 L128,62 L120,54 L115,53 L98,52 L93,53 L91,52 L59,52 L54,51 L47,51 L39,52 L11,52 L7,51 Z M-126,52 L-131,53 L-145,53 L-150,56 L-159,58 L-169,64 L-185,76 L-195,87 L-202,98 L-208,107 L-212,118 L-217,128 L-222,140 L-223,145 L-223,152 L-220,157 L-218,159 L-204,162 L-123,162 L-106,161 L-98,161 L-91,158 L-90,155 L-88,155 L-85,149 L-84,144 L-84,75 L-86,65 L-90,57 L-94,54 L-106,53 Z M229,51 L227,52 L181,52 L172,55 L165,61 L162,67 L160,83 L161,93 L161,140 L162,149 L168,157 L173,160 L185,162 L221,162 L228,163 L237,162 L298,162 L313,163 L316,162 L333,161 L338,156 L342,149 L343,124 L344,115 L344,105 L343,100 L343,80 L342,63 L335,55 L333,54 L321,52 L318,51 L311,51 L308,52 L290,52 L282,51 L273,53 L246,53 L241,51 Z M521,52 L512,54 L487,54 L480,53 L465,53 L456,54 L451,53 L425,53 L422,54 L415,54 L408,53 L405,54 L398,54 L395,53 L388,53 L382,58 L377,68 L375,80 L374,139 L376,151 L382,160 L385,162 L413,163 L473,164 L478,165 L481,164 L510,163 L517,164 L525,163 L541,163 L549,160 L553,151 L554,148 L555,117 L555,76 L554,67 L550,59 L543,53 L534,52 Z M610,53 L602,54 L593,60 L590,65 L587,74 L587,143 L589,157 L593,162 L602,164 L608,165 L611,164 L626,164 L638,165 L643,163 L656,165 L675,164 L685,163 L691,164 L700,164 L710,161 L710,159 L714,157 L717,151 L717,128 L710,104 L703,93 L694,82 L690,75 L681,69 L665,61 L655,58 L645,53 L638,54 L627,54 Z M-135,193 L-153,194 L-216,194 L-230,195 L-238,199 L-243,205 L-247,216 L-250,227 L-252,239 L-255,245 L-261,272 L-263,290 L-258,299 L-251,302 L-238,304 L-175,304 L-169,305 L-160,304 L-108,304 L-97,303 L-91,300 L-87,293 L-85,285 L-85,215 L-88,206 L-92,201 L-102,195 L-110,194 L-123,193 Z M-35,193 L-47,199 L-50,202 L-53,219 L-53,250 L-54,262 L-53,282 L-53,290 L-50,296 L-44,301 L-40,303 L-29,304 L4,304 L13,305 L15,304 L68,304 L98,303 L110,304 L122,301 L126,297 L128,292 L129,275 L129,212 L124,202 L120,198 L114,196 L101,195 L92,194 L-13,194 L-21,195 L-29,193 Z M25,324 L23,326 L24,330 L28,329 L27,324 Z " fill="#000000" transform="translate(327,330)"/>
<path d="M0,0 L13,0 L25,2 L35,4 L45,7 L58,16 L63,19 L69,23 L80,34 L90,52 L95,65 L97,80 L98,83 L98,97 L96,105 L95,115 L90,125 L86,136 L80,146 L72,155 L64,160 L59,165 L43,174 L34,176 L32,178 L21,179 L19,180 L-2,180 L-7,178 L-17,177 L-32,169 L-43,164 L-51,155 L-56,150 L-65,139 L-69,129 L-74,118 L-79,97 L-79,84 L-77,75 L-73,59 L-68,51 L-65,44 L-59,35 L-50,24 L-37,14 L-35,12 L-29,10 L-17,4 L-9,4 Z " fill="#000000" transform="translate(196,702)"/>
<path d="M0,0 L9,3 L19,3 L29,8 L43,13 L59,26 L66,32 L75,44 L79,54 L84,65 L86,72 L87,81 L87,103 L83,118 L78,131 L73,141 L67,148 L63,155 L58,158 L54,163 L43,172 L21,182 L6,184 L-15,182 L-30,179 L-38,175 L-52,168 L-61,160 L-71,147 L-76,141 L-82,131 L-86,119 L-87,118 L-90,101 L-91,93 L-90,79 L-86,63 L-80,48 L-76,43 L-69,32 L-57,20 L-43,12 L-34,7 L-25,4 L-5,2 Z " fill="#000000" transform="translate(768,702)"/>
<path d="M0,0 L2,4 L2,14 L0,16 Z " fill="#000000" transform="translate(0,971)"/>
<path d="M0,0 L1,0 L1,6 L0,6 Z " fill="#000000" transform="translate(0,1011)"/>
<path d="M0,0 L2,2 L2,50 L0,52 Z " fill="#000000" transform="translate(0,1032)"/>
</svg>
