<?xml version="1.0" encoding="UTF-8"?>
<!-- Generator: visioncortex VTracer 0.6.12 -->
<svg version="1.1" xmlns="http://www.w3.org/2000/svg" width="1092" height="435">
<path d="M0,0 L6,1 L25,11 L42,19 L54,26 L57,30 L56,50 L53,72 L50,101 L47,125 L46,138 L43,156 L35,172 L30,177 L20,183 L13,185 L-11,186 L-34,185 L-37,182 L-38,176 L-33,155 L-32,144 L-30,139 L-26,114 L-24,108 L-21,94 L-19,83 L-14,55 L-9,33 L-5,10 L-2,2 Z " fill="#000000" transform="translate(74,36)"/>
<path d="M0,0 L5,0 L9,4 L12,25 L13,38 L15,44 L17,63 L18,65 L21,88 L21,105 L18,108 L16,109 L-28,109 L-31,105 L-32,102 L-33,79 L-33,18 L-28,11 L-19,7 L-11,5 Z " fill="#000000" transform="translate(1032,44)"/>
<path d="M0,0 L29,1 L47,1 L52,4 L53,5 L54,13 L55,38 L55,91 L53,97 L44,101 L29,100 L-93,101 L-97,99 L-99,94 L-101,82 L-101,10 L-98,4 L-96,2 L-66,1 L-9,1 Z " fill="#000000" transform="translate(929,55)"/>
<path d="M0,0 L7,0 L12,4 L13,8 L13,94 L9,99 L-2,100 L-63,100 L-115,101 L-135,101 L-139,98 L-140,92 L-140,14 L-138,4 L-137,3 L-117,2 L-58,1 L-16,1 Z " fill="#000000" transform="translate(799,57)"/>
<path d="M0,0 L112,0 L116,4 L117,6 L117,94 L113,99 L1,99 L-32,100 L-37,95 L-38,89 L-39,47 L-39,29 L-38,6 L-33,1 L-12,1 Z " fill="#000000" transform="translate(525,60)"/>
<path d="M0,0 L7,3 L9,5 L10,10 L11,65 L11,79 L10,94 L6,99 L-2,100 L-43,100 L-53,101 L-85,100 L-103,101 L-129,101 L-137,98 L-138,97 L-139,89 L-140,63 L-140,13 L-137,4 L-135,2 L-67,1 Z " fill="#000000" transform="translate(459,61)"/>
<path d="M0,0 L7,1 L11,5 L13,10 L14,18 L13,85 L12,96 L9,99 L-13,100 L-44,100 L-101,101 L-137,102 L-147,101 L-151,98 L-151,78 L-148,53 L-146,43 L-142,10 L-139,3 L-138,2 L-75,2 L-71,1 L-30,1 Z " fill="#000000" transform="translate(289,63)"/>
<path d="M0,0 L6,1 L10,6 L11,21 L11,151 L7,163 L4,170 L-6,174 L-12,175 L-71,175 L-74,176 L-104,176 L-121,177 L-146,177 L-147,178 L-160,177 L-175,177 L-178,174 L-178,163 L-177,144 L-180,128 L-183,121 L-194,104 L-207,91 L-214,86 L-221,83 L-228,80 L-238,77 L-253,76 L-265,76 L-274,78 L-282,81 L-299,89 L-312,100 L-321,112 L-327,122 L-332,143 L-333,155 L-331,169 L-331,177 L-334,179 L-374,180 L-380,179 L-383,180 L-408,180 L-415,179 L-417,180 L-443,180 L-451,182 L-465,181 L-570,181 L-659,182 L-699,182 L-703,183 L-763,183 L-781,184 L-785,180 L-785,172 L-784,165 L-785,140 L-791,123 L-797,113 L-809,100 L-823,91 L-841,84 L-844,83 L-870,82 L-883,85 L-895,90 L-905,96 L-916,105 L-924,114 L-928,121 L-933,130 L-936,139 L-938,154 L-938,167 L-937,171 L-937,183 L-939,185 L-957,186 L-992,185 L-1004,181 L-1010,174 L-1012,170 L-1012,73 L-1008,70 L-1003,69 L-971,69 L-955,66 L-939,58 L-932,51 L-925,41 L-920,31 L-916,18 L-912,11 L-909,10 L-889,10 L-841,9 L-793,9 L-710,7 L-579,7 L-548,6 L-474,6 L-431,5 L-406,5 L-371,4 L-346,4 L-200,2 L-157,2 L-67,1 Z " fill="#000000" transform="translate(1048,179)"/>
<path d="M0,0 L9,0 L19,2 L34,7 L46,15 L56,25 L62,34 L67,48 L70,63 L67,84 L64,93 L60,99 L56,106 L50,113 L37,122 L27,128 L13,131 L-6,132 L-12,129 L-22,127 L-31,122 L-40,116 L-47,108 L-52,102 L-59,88 L-62,76 L-62,60 L-61,51 L-56,36 L-49,26 L-38,14 L-27,7 L-15,2 Z " fill="#000000" transform="translate(790,265)"/>
<path d="M0,0 L15,0 L32,2 L43,6 L54,14 L64,23 L72,37 L75,45 L78,57 L78,71 L75,87 L70,97 L64,106 L59,111 L50,119 L34,127 L21,130 L4,130 L1,128 L-11,127 L-23,120 L-29,116 L-37,107 L-42,102 L-46,96 L-52,78 L-53,60 L-51,48 L-47,37 L-41,27 L-28,13 L-20,7 L-14,5 L-7,2 Z " fill="#000000" transform="translate(175,272)"/>
</svg>
