<?xml version="1.0" encoding="UTF-8"?>
<!-- Generator: visioncortex VTracer 0.6.12 -->
<svg version="1.1" xmlns="http://www.w3.org/2000/svg" width="1014" height="1002">
<path d="M0,0 L1012,0 L1013,30 L1014,36 L1014,56 L1013,60 L1014,65 L1014,1002 L0,1002 Z M797,295 L759,296 L750,296 L743,297 L735,296 L713,296 L685,297 L677,296 L662,297 L562,297 L544,298 L510,298 L505,297 L496,297 L491,299 L485,298 L473,298 L465,297 L463,298 L440,298 L437,299 L416,298 L404,297 L400,298 L380,298 L376,299 L330,300 L320,299 L315,300 L236,300 L231,301 L223,300 L209,301 L207,300 L201,300 L197,302 L180,301 L174,300 L167,301 L160,301 L152,302 L144,301 L136,305 L132,312 L125,333 L120,349 L113,370 L105,396 L99,413 L95,427 L88,447 L84,457 L82,466 L78,477 L74,491 L72,499 L72,536 L71,547 L67,553 L60,560 L54,572 L54,585 L58,593 L70,605 L72,610 L73,640 L76,651 L79,654 L145,654 L153,651 L159,641 L165,629 L172,620 L181,609 L192,601 L206,593 L215,591 L220,588 L233,585 L255,585 L269,586 L275,589 L282,592 L300,602 L314,614 L322,623 L325,629 L329,635 L332,643 L340,650 L349,652 L390,652 L456,651 L527,651 L556,650 L583,650 L592,648 L596,643 L603,631 L605,624 L609,619 L615,611 L620,606 L628,598 L637,593 L653,585 L666,581 L685,580 L707,582 L727,589 L743,599 L760,616 L767,626 L772,638 L778,646 L783,648 L910,648 L943,647 L948,645 L950,643 L951,638 L951,590 L950,556 L950,505 L949,476 L948,433 L948,420 L946,401 L943,382 L938,365 L933,355 L923,341 L915,333 L909,326 L904,321 L883,309 L875,304 L851,297 L819,295 L806,296 Z M688,600 L662,603 L650,608 L641,615 L632,622 L625,633 L619,642 L615,656 L614,663 L614,677 L616,689 L619,699 L623,704 L629,715 L632,720 L644,729 L653,734 L663,739 L675,742 L691,744 L705,740 L717,735 L729,728 L734,724 L744,711 L751,700 L756,683 L756,658 L753,648 L745,632 L736,622 L731,617 L721,610 L709,604 L691,600 Z M237,603 L221,607 L204,616 L195,623 L186,635 L180,643 L174,664 L174,685 L177,698 L185,714 L189,722 L201,733 L212,741 L224,746 L237,748 L249,748 L269,745 L277,741 L288,735 L301,723 L306,716 L312,705 L315,698 L318,682 L318,671 L317,659 L312,646 L305,633 L298,623 L286,615 L270,607 L251,603 Z " fill="#000000" transform="translate(0,0)"/>
<path d="M0,0 L3,0 L3,3 L0,3 Z " fill="#000000" transform="translate(507,309)"/>
<path d="M0,0 L5,3 L8,10 L21,11 L41,10 L136,10 L144,9 L176,10 L196,9 L217,8 L279,8 L304,9 L306,10 L333,12 L337,14 L346,16 L362,24 L370,31 L379,38 L385,45 L392,57 L396,68 L401,89 L403,126 L401,138 L398,142 L382,142 L379,143 L310,143 L300,145 L283,142 L263,144 L236,143 L204,143 L185,144 L-1,144 L-39,145 L-76,144 L-80,145 L-99,146 L-233,146 L-248,145 L-250,143 L-253,121 L-254,81 L-254,19 L-251,14 L-249,13 L-210,12 L-170,12 L-129,11 L-63,11 L-57,13 L-51,12 L-1,10 L-1,1 Z " fill="#000000" transform="translate(517,316)"/>
<path d="M0,0 L55,0 L60,2 L62,9 L63,30 L63,128 L60,133 L58,134 L38,135 L14,135 L0,134 L-11,135 L-48,135 L-53,130 L-51,116 L-44,93 L-40,83 L-36,67 L-34,64 L-31,54 L-29,45 L-25,34 L-20,14 L-14,4 L-8,1 Z " fill="#000000" transform="translate(171,329)"/>
<path d="M0,0 L2,0 L2,3 L-1,2 Z " fill="#000000" transform="translate(687,532)"/>
</svg>
