<?xml version="1.0" encoding="UTF-8"?>
<!-- Generator: visioncortex VTracer 0.6.12 -->
<svg version="1.1" xmlns="http://www.w3.org/2000/svg" width="1023" height="1014">
<path d="M0,0 L957,0 L957,1 L947,2 L913,3 L796,3 L768,4 L748,4 L733,5 L664,5 L610,6 L591,6 L552,7 L495,7 L431,8 L407,8 L403,13 L398,12 L394,8 L383,8 L364,9 L296,9 L213,10 L162,10 L151,11 L36,11 L11,12 L4,14 L1,20 L0,20 Z " fill="#000000" transform="translate(0,0)"/>
<path d="M0,0 L17,0 L17,1011 L-44,1011 L-106,1012 L-141,1012 L-168,1013 L-172,1014 L-173,1013 L-182,1013 L-184,1014 L-1006,1014 L-1006,244 L-1004,245 L-1003,300 L-1003,404 L-1002,525 L-1002,576 L-1001,620 L-1001,748 L-1002,766 L-1001,810 L-1001,865 L-1000,920 L-1000,978 L-999,1002 L-994,1007 L-949,1007 L-942,1006 L-939,1007 L-883,1007 L-835,1006 L-779,1006 L-747,1005 L-738,1006 L-714,1005 L-640,1005 L-602,1004 L-468,1004 L-456,1003 L-372,1003 L-280,1002 L-273,1001 L-213,1001 L-186,1000 L-152,1000 L-129,999 L-111,999 L-50,998 L-23,998 L4,997 L8,995 L10,990 L11,964 L12,949 L11,924 L11,869 L10,781 L10,728 L9,696 L9,684 L8,665 L8,595 L7,493 L7,310 L6,204 L6,155 L5,119 L5,59 L4,11 L3,4 L0,2 Z " fill="#000000" transform="translate(1006,0)"/>
<path d="M0,0 L1,0 L1,5 L0,5 Z " fill="#000000" transform="translate(0,21)"/>
<path d="M0,0 Z " fill="#000000" transform="translate(0,125)"/>
<path d="M0,0 L2,1 L2,18 L0,18 Z " fill="#000000" transform="translate(0,135)"/>
<path d="M0,0 L2,1 L3,32 L1,39 L0,39 Z " fill="#000000" transform="translate(0,160)"/>
<path d="M0,0 L1,0 L2,5 L2,36 L0,37 Z " fill="#000000" transform="translate(0,204)"/>
<path d="M0,0 L7,0 L13,2 L74,2 L84,1 L98,1 L127,2 L139,1 L162,1 L198,0 L200,1 L216,1 L222,2 L224,1 L247,1 L258,2 L264,2 L274,7 L284,10 L293,14 L305,20 L314,26 L322,33 L336,48 L339,53 L345,60 L356,81 L359,91 L361,96 L362,112 L362,131 L363,143 L363,173 L364,196 L364,286 L365,296 L365,362 L366,366 L366,383 L365,390 L365,404 L366,416 L364,428 L360,432 L355,433 L345,434 L314,433 L310,434 L250,434 L243,433 L239,434 L161,434 L158,430 L154,402 L151,392 L148,381 L140,371 L136,368 L137,374 L144,387 L147,395 L150,410 L150,423 L145,447 L140,458 L136,464 L129,475 L117,486 L112,491 L106,495 L97,498 L88,502 L80,503 L68,503 L56,502 L53,500 L45,500 L38,498 L30,493 L17,485 L7,475 L-3,462 L-9,450 L-12,441 L-15,425 L-15,413 L-13,401 L-11,392 L-2,375 L7,362 L21,351 L32,345 L38,342 L51,338 L58,338 L65,336 L79,337 L81,335 L75,332 L69,334 L46,334 L34,338 L19,344 L10,352 L5,357 L-3,366 L-11,379 L-14,383 L-19,399 L-21,408 L-22,423 L-25,432 L-29,435 L-54,436 L-68,435 L-84,435 L-123,436 L-157,435 L-165,436 L-179,436 L-188,435 L-200,435 L-204,436 L-280,436 L-296,437 L-341,436 L-347,437 L-354,431 L-355,408 L-361,390 L-369,374 L-376,366 L-381,358 L-394,347 L-399,344 L-409,340 L-420,335 L-448,333 L-453,334 L-459,334 L-474,340 L-486,344 L-494,350 L-500,355 L-505,360 L-510,365 L-516,372 L-525,388 L-528,397 L-531,409 L-532,431 L-535,436 L-544,439 L-574,439 L-577,438 L-594,438 L-614,437 L-617,433 L-618,430 L-619,408 L-619,297 L-618,272 L-616,260 L-615,252 L-614,245 L-608,219 L-600,187 L-596,175 L-592,164 L-590,158 L-584,137 L-575,111 L-571,101 L-566,89 L-562,81 L-558,71 L-551,59 L-547,54 L-541,46 L-536,41 L-532,36 L-522,30 L-512,22 L-496,14 L-487,10 L-464,5 L-457,4 L-396,4 L-374,5 L-366,4 L-333,3 L-213,3 L-204,4 L-191,3 L-165,2 L-155,3 L-138,3 L-136,4 L-125,4 L-121,2 L-110,2 L-103,3 L-99,2 L-91,2 L-88,3 L-73,3 L-43,2 L-9,1 Z M218,48 L207,53 L202,59 L201,61 L200,72 L200,125 L201,136 L204,142 L216,147 L221,146 L270,146 L291,145 L302,145 L311,142 L315,137 L315,114 L313,109 L311,100 L308,90 L304,85 L293,71 L286,64 L270,56 L255,50 L252,48 L237,49 L232,48 Z M-124,48 L-135,50 L-153,50 L-175,51 L-183,57 L-187,62 L-188,64 L-189,81 L-189,110 L-188,129 L-185,140 L-174,148 L-127,148 L-78,147 L-42,147 L-32,145 L-26,137 L-25,134 L-25,123 L-24,117 L-24,62 L-28,55 L-31,52 L-52,48 L-62,50 L-76,48 L-86,50 L-117,49 Z M38,48 L34,50 L18,50 L13,54 L8,63 L7,66 L6,79 L6,127 L8,137 L11,143 L18,146 L45,146 L48,147 L118,147 L155,146 L164,143 L167,139 L168,135 L170,84 L168,60 L164,52 L160,49 L156,48 L139,48 L133,51 L126,51 L122,49 L89,49 L82,50 L77,49 L51,49 L47,50 Z M-466,52 L-471,56 L-480,57 L-491,64 L-499,70 L-504,74 L-507,79 L-513,84 L-519,93 L-525,103 L-528,112 L-533,122 L-537,135 L-537,141 L-533,147 L-523,150 L-487,150 L-482,151 L-479,150 L-459,149 L-436,149 L-422,148 L-414,141 L-412,135 L-412,72 L-415,61 L-420,55 L-429,53 L-437,52 Z M-291,50 L-294,51 L-342,51 L-365,52 L-375,54 L-380,60 L-381,63 L-382,81 L-383,89 L-382,94 L-382,118 L-381,132 L-377,142 L-374,145 L-364,148 L-347,149 L-283,148 L-275,149 L-270,148 L-233,148 L-224,145 L-221,140 L-219,131 L-218,80 L-219,62 L-222,56 L-230,52 L-234,51 L-260,50 L-270,51 L-277,50 L-284,51 Z M-293,178 L-299,179 L-327,180 L-331,179 L-355,180 L-359,183 L-365,183 L-366,179 L-370,180 L-377,183 L-381,196 L-381,250 L-380,265 L-376,273 L-369,276 L-360,277 L-324,277 L-316,276 L-275,276 L-273,275 L-241,275 L-235,276 L-234,275 L-225,273 L-221,269 L-218,260 L-218,215 L-219,192 L-224,184 L-229,180 L-243,180 L-250,179 L-278,179 L-282,178 Z M-482,179 L-490,180 L-523,180 L-529,181 L-542,181 L-551,185 L-555,190 L-560,205 L-562,218 L-567,230 L-568,242 L-570,246 L-572,260 L-572,267 L-569,273 L-564,277 L-505,277 L-486,278 L-458,277 L-431,277 L-422,276 L-416,272 L-413,267 L-412,263 L-411,243 L-411,226 L-412,200 L-415,190 L-419,185 L-430,180 L-437,179 L-461,179 L-462,180 L-472,181 L-478,179 Z M89,335 L88,339 L94,342 L100,342 L96,338 L91,335 Z M107,342 L105,343 L106,347 L116,353 L126,361 L131,364 L132,360 L124,353 L114,346 L112,343 Z " fill="#000000" transform="translate(633,299)"/>
<path d="M0,0 L3,0 L2,3 L0,2 Z " fill="#000000" transform="translate(596,417)"/>
<path d="M0,0 L26,0 L39,4 L53,11 L62,18 L67,21 L75,30 L84,49 L87,55 L89,65 L90,76 L90,88 L87,107 L79,123 L76,128 L74,133 L67,141 L60,145 L56,150 L44,157 L33,160 L31,162 L20,163 L18,164 L0,164 L-14,161 L-19,157 L-29,153 L-40,147 L-48,138 L-55,130 L-59,125 L-65,109 L-68,100 L-72,83 L-68,63 L-63,49 L-57,37 L-47,23 L-38,16 L-25,7 L-16,3 L-10,2 L-4,2 Z " fill="#000000" transform="translate(180,639)"/>
</svg>
