<?xml version="1.0" encoding="UTF-8"?>
<!-- Generator: visioncortex VTracer 0.6.12 -->
<svg version="1.1" xmlns="http://www.w3.org/2000/svg" width="1122" height="1125">
<path d="M0,0 L890,0 L890,2 L898,4 L914,11 L934,22 L950,34 L959,43 L965,48 L971,56 L982,68 L988,78 L991,84 L992,92 L997,96 L1002,108 L1007,117 L1008,118 L1008,1000 L1005,1004 L1002,1013 L995,1033 L989,1043 L982,1057 L974,1067 L966,1077 L961,1084 L953,1091 L949,1095 L944,1098 L940,1103 L923,1113 L916,1117 L907,1121 L899,1125 L14,1125 L4,1121 L-12,1115 L-29,1107 L-44,1098 L-53,1091 L-65,1080 L-73,1073 L-77,1068 L-82,1063 L-93,1049 L-102,1035 L-111,1018 L-114,1012 L-114,122 L-112,122 L-110,113 L-104,98 L-96,83 L-89,72 L-85,68 L-83,63 L-71,49 L-61,39 L-54,33 L-46,27 L-41,24 L-34,18 L-20,10 L-6,3 L0,2 Z M78,19 L72,20 L55,21 L34,24 L31,26 L21,28 L7,33 L-2,37 L-15,44 L-25,51 L-36,59 L-41,65 L-49,72 L-60,85 L-64,91 L-72,106 L-81,126 L-85,142 L-87,151 L-90,195 L-90,430 L-91,549 L-91,566 L-92,609 L-93,693 L-94,861 L-95,929 L-94,958 L-91,976 L-88,991 L-85,995 L-81,1006 L-73,1022 L-65,1034 L-53,1048 L-46,1056 L-38,1063 L-29,1070 L-11,1081 L1,1087 L17,1093 L23,1095 L34,1097 L39,1099 L56,1101 L60,1103 L64,1101 L105,1101 L164,1102 L190,1102 L208,1103 L227,1103 L251,1104 L325,1104 L352,1105 L427,1105 L513,1106 L530,1106 L535,1107 L558,1106 L586,1106 L604,1107 L676,1107 L680,1110 L685,1107 L719,1107 L729,1108 L755,1108 L845,1107 L867,1104 L892,1095 L908,1087 L919,1080 L929,1072 L937,1065 L942,1060 L951,1050 L959,1039 L964,1031 L972,1015 L976,1004 L982,983 L985,967 L986,951 L986,766 L987,707 L987,618 L988,610 L988,464 L989,437 L989,231 L990,215 L989,183 L989,173 L985,145 L982,133 L978,123 L973,111 L966,99 L955,83 L952,79 L950,79 L948,75 L937,63 L927,55 L913,46 L901,39 L886,33 L877,31 L867,27 L851,26 L835,24 L775,23 L746,23 L715,22 L669,22 L547,21 L299,21 L214,20 L95,20 Z " fill="#000000" transform="translate(114,0)"/>
<path d="M0,0 L2,0 L2,2 L0,2 Z " fill="#000000" transform="translate(973,226)"/>
<path d="M0,0 L27,0 L33,1 L43,0 L136,0 L165,1 L314,1 L331,2 L415,2 L479,3 L526,3 L534,4 L571,3 L588,4 L671,4 L678,5 L691,5 L704,6 L710,10 L713,14 L712,20 L708,24 L698,28 L695,33 L699,50 L703,67 L708,85 L711,98 L718,119 L722,123 L731,127 L741,134 L745,142 L747,147 L748,162 L748,198 L747,233 L745,239 L744,240 L720,241 L647,241 L643,243 L640,249 L636,262 L628,273 L617,282 L607,286 L599,288 L583,288 L580,286 L572,284 L562,278 L554,270 L548,261 L546,258 L542,245 L539,241 L472,239 L455,239 L399,238 L349,238 L287,237 L214,237 L210,239 L205,255 L199,266 L191,275 L178,282 L167,285 L149,285 L137,279 L129,273 L121,264 L117,259 L114,252 L110,238 L102,235 L43,235 L-3,234 L-14,232 L-16,228 L-16,47 L-15,19 L-11,9 L-4,2 Z M46,21 L38,23 L31,31 L30,33 L29,57 L29,88 L30,107 L35,114 L40,117 L98,118 L129,118 L138,120 L147,113 L150,108 L151,94 L151,40 L150,33 L143,25 L135,22 L101,21 Z M189,22 L181,25 L175,32 L174,35 L173,65 L173,106 L177,113 L181,117 L186,119 L236,120 L283,120 L289,116 L294,108 L295,101 L295,39 L292,31 L286,26 L281,24 L240,23 Z M326,24 L321,28 L317,34 L316,38 L316,108 L320,116 L326,120 L352,121 L428,121 L435,117 L438,113 L439,109 L439,37 L436,29 L431,25 L404,24 Z M486,25 L471,26 L466,29 L463,34 L462,38 L462,110 L466,118 L476,122 L515,123 L571,123 L577,119 L582,111 L583,104 L583,49 L582,36 L578,29 L572,26 L556,25 Z M619,26 L611,30 L607,37 L606,41 L606,109 L609,116 L614,121 L618,123 L629,124 L688,123 L692,119 L691,108 L686,86 L682,75 L680,66 L674,46 L671,37 L664,29 L660,27 L650,26 Z M159,209 L149,211 L143,214 L138,219 L133,231 L132,237 L133,246 L138,255 L142,260 L150,264 L158,266 L167,266 L177,260 L183,254 L187,244 L187,230 L183,220 L173,212 L169,210 Z M585,213 L573,219 L567,227 L564,236 L564,247 L569,257 L576,264 L581,267 L592,269 L604,266 L612,261 L618,253 L620,249 L620,234 L615,224 L607,216 L601,213 Z " fill="#000000" transform="translate(198,420)"/>
</svg>
