<?xml version="1.0" encoding="UTF-8"?>
<!-- Generator: visioncortex VTracer 0.6.12 -->
<svg version="1.1" xmlns="http://www.w3.org/2000/svg" width="1119" height="1128">
<path d="M0,0 L557,0 L557,1 L550,2 L511,3 L412,3 L393,4 L266,4 L251,5 L219,5 L212,6 L154,6 L41,7 L32,9 L11,11 L1,14 L-20,22 L-32,29 L-42,35 L-53,44 L-63,51 L-72,61 L-81,74 L-89,88 L-93,98 L-97,113 L-100,136 L-102,137 L-102,86 L-99,81 L-90,65 L-79,51 L-73,44 L-68,39 L-60,32 L-46,23 L-33,15 L-17,7 L-1,1 Z " fill="#000000" transform="translate(102,0)"/>
<path d="M0,0 L8,0 L6,2 L0,1 Z " fill="#000000" transform="translate(665,0)"/>
<path d="M0,0 L8,0 L4,2 Z " fill="#000000" transform="translate(692,0)"/>
<path d="M0,0 L54,0 L66,6 L78,14 L92,26 L97,30 L104,38 L113,50 L121,64 L126,72 L126,120 L124,118 L121,100 L115,80 L111,70 L101,55 L93,44 L87,37 L73,27 L73,25 L68,23 L60,16 L54,13 L31,7 L17,4 L4,3 L0,2 Z " fill="#000000" transform="translate(993,0)"/>
<path d="M0,0 L42,1 L81,4 L104,8 L122,10 L128,12 L156,17 L169,21 L183,24 L192,27 L204,30 L221,36 L228,38 L243,44 L260,52 L271,59 L278,64 L278,66 L281,67 L281,69 L285,71 L294,81 L301,92 L307,104 L311,117 L317,153 L320,173 L323,197 L325,204 L327,220 L331,244 L335,275 L337,284 L339,302 L343,328 L346,349 L348,365 L349,369 L350,395 L351,490 L352,591 L352,725 L347,728 L324,728 L299,729 L296,731 L295,746 L295,779 L293,793 L288,807 L282,815 L275,822 L262,829 L254,831 L234,831 L222,826 L212,819 L204,810 L199,800 L196,790 L194,736 L192,731 L178,730 L151,730 L104,731 L56,731 L-73,733 L-101,733 L-176,734 L-179,737 L-180,794 L-183,805 L-188,815 L-197,825 L-209,833 L-220,836 L-235,836 L-249,832 L-259,826 L-269,816 L-275,804 L-278,786 L-279,741 L-281,737 L-283,736 L-334,735 L-336,725 L-336,694 L-337,641 L-337,590 L-338,542 L-338,386 L-333,341 L-327,281 L-324,250 L-320,213 L-318,198 L-314,156 L-311,131 L-305,109 L-298,95 L-291,84 L-280,73 L-276,68 L-261,58 L-245,50 L-232,44 L-222,41 L-213,37 L-199,33 L-184,28 L-158,21 L-144,17 L-126,13 L-116,11 L-93,7 L-53,3 L-27,1 Z M135,62 L76,63 L-82,64 L-141,65 L-150,67 L-158,73 L-162,78 L-164,83 L-164,91 L-161,99 L-155,106 L-147,110 L-112,110 L-37,109 L43,109 L54,108 L143,107 L150,106 L159,99 L163,92 L164,81 L161,72 L157,67 L152,64 L143,62 Z M172,145 L111,146 L72,146 L50,147 L-14,147 L-84,148 L-113,148 L-142,149 L-228,150 L-238,152 L-248,158 L-255,165 L-260,174 L-263,192 L-264,208 L-268,243 L-271,271 L-272,277 L-273,293 L-275,308 L-277,334 L-281,368 L-281,390 L-275,401 L-266,409 L-255,411 L-209,411 L-106,410 L-33,409 L17,409 L28,408 L51,408 L102,407 L214,406 L263,405 L275,402 L284,395 L288,390 L290,383 L290,372 L286,340 L282,311 L280,299 L277,280 L275,264 L271,239 L267,212 L262,177 L258,166 L255,160 L248,152 L239,147 L233,145 Z M248,522 L233,523 L221,527 L215,531 L209,536 L201,547 L196,559 L195,568 L195,577 L198,590 L207,604 L217,611 L227,616 L233,618 L252,618 L262,615 L273,609 L283,599 L289,590 L292,577 L292,562 L288,550 L284,542 L271,529 L257,523 Z M-236,526 L-249,530 L-261,537 L-269,545 L-275,555 L-278,564 L-279,577 L-277,590 L-271,602 L-261,613 L-253,619 L-244,622 L-237,623 L-223,623 L-208,618 L-198,612 L-191,605 L-185,595 L-182,587 L-182,565 L-186,553 L-191,545 L-201,535 L-215,528 L-228,526 Z " fill="#000000" transform="translate(560,131)"/>
<path d="M0,0 Z " fill="#000000" transform="translate(0,325)"/>
<path d="M0,0 L1,4 Z " fill="#000000" transform="translate(0,345)"/>
<path d="M0,0 L1,0 L1,5 L0,5 Z " fill="#000000" transform="translate(0,359)"/>
<path d="M0,0 L2,3 L2,39 L0,41 Z " fill="#000000" transform="translate(0,365)"/>
<path d="M0,0 L2,3 L2,14 L0,15 Z " fill="#000000" transform="translate(0,420)"/>
<path d="M0,0 L2,2 L2,8 L0,10 Z " fill="#000000" transform="translate(0,439)"/>
<path d="M0,0 L2,2 L3,20 L3,150 L4,324 L4,384 L5,513 L8,545 L10,563 L14,578 L18,589 L22,603 L32,622 L36,628 L45,638 L53,646 L63,653 L73,660 L85,666 L93,668 L104,672 L112,674 L112,676 L79,676 L79,674 L70,671 L60,665 L50,658 L44,653 L37,645 L27,635 L19,622 L12,609 L6,592 L1,575 L0,574 Z " fill="#000000" transform="translate(0,452)"/>
<path d="M0,0 L2,0 L2,34 L0,34 L-2,39 L-12,55 L-23,68 L-30,75 L-39,82 L-45,87 L-51,90 L-65,99 L-78,105 L-87,106 L-87,108 L-748,108 L-747,106 L-728,105 L-714,106 L-681,105 L-535,104 L-451,103 L-420,103 L-356,102 L-271,101 L-247,100 L-234,101 L-206,101 L-132,100 L-106,98 L-87,94 L-72,88 L-56,79 L-51,75 L-41,68 L-24,51 L-14,36 L-6,20 Z " fill="#000000" transform="translate(1117,1020)"/>
<path d="M0,0 L10,0 L13,2 L-4,2 Z " fill="#000000" transform="translate(287,1126)"/>
<path d="M0,0 L9,0 L10,2 L0,2 Z " fill="#000000" transform="translate(338,1126)"/>
<path d="M0,0 L5,0 L5,1 L0,1 Z " fill="#000000" transform="translate(357,1127)"/>
</svg>
