<?xml version="1.0" encoding="UTF-8"?>
<!-- Generator: visioncortex VTracer 0.6.12 -->
<svg version="1.1" xmlns="http://www.w3.org/2000/svg" width="1110" height="1119">
<path d="M0,0 L190,0 L195,2 L195,0 L200,1 L208,3 L222,5 L228,7 L237,8 L243,11 L246,14 L254,13 L261,17 L271,18 L276,21 L286,24 L292,27 L299,29 L311,33 L314,35 L324,38 L340,46 L350,50 L354,53 L365,58 L377,65 L388,71 L397,77 L409,85 L419,91 L423,95 L434,102 L440,107 L445,110 L445,112 L449,114 L459,123 L467,129 L472,134 L485,145 L493,154 L501,161 L506,166 L506,168 L510,170 L518,180 L518,182 L522,184 L533,197 L534,200 L538,202 L544,210 L550,218 L551,223 L547,227 L540,227 L534,222 L527,212 L515,198 L508,191 L501,183 L493,174 L490,169 L481,162 L476,157 L468,150 L461,142 L447,131 L436,123 L425,114 L415,107 L402,99 L391,91 L380,84 L371,78 L352,68 L342,63 L322,54 L312,49 L293,42 L288,39 L286,36 L279,37 L276,35 L265,33 L259,30 L250,28 L234,24 L230,22 L219,20 L216,18 L202,17 L191,14 L180,12 L165,11 L155,9 L130,7 L95,7 L71,8 L59,8 L36,11 L14,13 L6,15 L-4,16 L-9,18 L-19,19 L-24,21 L-34,23 L-43,24 L-53,28 L-62,29 L-72,33 L-87,38 L-100,43 L-109,47 L-128,55 L-144,61 L-150,66 L-160,70 L-165,73 L-182,82 L-191,88 L-202,94 L-207,98 L-217,105 L-230,115 L-241,122 L-251,131 L-261,139 L-268,145 L-270,145 L-272,149 L-282,158 L-294,169 L-303,179 L-311,187 L-318,195 L-329,208 L-334,213 L-340,222 L-344,226 L-348,231 L-353,240 L-359,247 L-370,264 L-382,286 L-391,302 L-402,324 L-405,331 L-411,342 L-417,358 L-425,379 L-437,415 L-442,440 L-448,468 L-453,502 L-455,528 L-457,530 L-457,439 L-455,434 L-450,413 L-447,402 L-444,395 L-441,383 L-430,352 L-428,349 L-426,343 L-417,322 L-411,310 L-401,291 L-395,280 L-389,271 L-385,264 L-380,256 L-370,239 L-360,225 L-350,213 L-343,202 L-335,194 L-330,186 L-322,179 L-306,162 L-296,151 L-288,144 L-281,137 L-270,130 L-266,123 L-257,117 L-248,111 L-234,99 L-222,91 L-212,84 L-205,80 L-201,77 L-191,72 L-182,66 L-167,58 L-159,54 L-138,44 L-129,40 L-116,35 L-110,30 L-95,27 L-90,24 L-79,22 L-71,18 L-63,17 L-59,14 L-54,14 L-51,17 L-49,17 L-46,12 L-39,10 L-34,7 L-15,4 L-2,2 L0,2 Z " fill="#000000" transform="translate(457,0)"/>
<path d="M0,0 L6,1 L12,12 L18,19 L24,28 L30,40 L38,51 L42,60 L47,65 L48,68 L49,73 L53,82 L65,109 L68,114 L72,126 L78,141 L80,144 L80,152 L84,153 L86,165 L89,172 L93,187 L97,205 L99,215 L99,447 L96,456 L94,466 L93,480 L88,490 L86,499 L79,518 L72,538 L68,544 L62,548 L63,559 L59,569 L54,581 L48,588 L42,602 L36,609 L33,618 L22,635 L15,646 L8,657 L1,665 L-6,675 L-14,686 L-25,699 L-33,709 L-49,726 L-56,731 L-60,737 L-72,749 L-80,756 L-87,763 L-92,766 L-94,766 L-96,770 L-104,777 L-118,787 L-129,796 L-134,799 L-145,806 L-154,813 L-166,819 L-180,828 L-188,832 L-204,840 L-220,848 L-244,859 L-253,862 L-261,866 L-278,871 L-285,874 L-293,876 L-297,878 L-306,880 L-329,886 L-346,889 L-347,890 L-443,890 L-440,886 L-413,886 L-408,885 L-401,885 L-390,883 L-372,881 L-370,880 L-359,879 L-356,875 L-337,874 L-332,872 L-315,869 L-301,864 L-287,860 L-275,855 L-265,853 L-242,844 L-239,842 L-226,838 L-216,832 L-203,826 L-196,823 L-187,816 L-178,813 L-165,804 L-153,797 L-143,790 L-133,784 L-122,775 L-116,771 L-103,759 L-95,753 L-82,742 L-74,735 L-70,730 L-65,725 L-53,713 L-44,701 L-38,696 L-29,685 L-22,677 L-15,669 L-9,658 L-4,653 L-1,645 L4,643 L6,639 L12,630 L18,620 L23,613 L28,602 L31,598 L33,593 L34,592 L36,583 L40,578 L45,567 L52,553 L56,544 L60,535 L61,527 L67,518 L72,501 L77,475 L82,463 L86,447 L89,426 L92,410 L94,396 L96,359 L96,321 L95,313 L96,309 L95,293 L94,278 L92,272 L91,271 L90,261 L89,259 L87,238 L83,227 L83,217 L79,210 L80,202 L79,199 L78,187 L72,179 L70,171 L70,162 L66,153 L63,143 L61,139 L59,130 L54,118 L45,98 L40,89 L31,73 L28,67 L25,62 L21,54 L18,52 L17,46 L12,39 L7,30 L1,20 L-3,15 L-9,6 L-8,1 L-1,1 Z " fill="#000000" transform="translate(1011,229)"/>
<path d="M0,0 L3,0 L2,4 L0,4 Z " fill="#000000" transform="translate(670,347)"/>
<path d="M0,0 L10,2 L15,7 L22,25 L25,33 L33,53 L39,69 L42,76 L46,87 L52,103 L56,109 L58,117 L62,126 L67,139 L70,146 L77,167 L78,178 L78,288 L77,306 L75,315 L72,317 L57,318 L-3,318 L-8,315 L-11,303 L-13,294 L-17,283 L-27,267 L-35,259 L-42,255 L-39,260 L-29,275 L-23,287 L-17,310 L-17,326 L-21,342 L-25,355 L-32,366 L-37,372 L-44,380 L-50,384 L-60,391 L-71,396 L-88,400 L-90,401 L-109,401 L-114,399 L-125,398 L-141,390 L-151,384 L-161,374 L-171,360 L-176,351 L-182,326 L-181,309 L-176,290 L-170,278 L-163,267 L-145,249 L-140,246 L-139,243 L-143,244 L-147,248 L-157,253 L-167,262 L-176,275 L-181,282 L-186,297 L-191,315 L-194,318 L-197,319 L-286,320 L-398,320 L-486,321 L-500,320 L-503,317 L-506,301 L-510,287 L-515,277 L-521,269 L-528,261 L-537,253 L-550,245 L-561,240 L-565,239 L-565,242 L-560,244 L-554,247 L-542,256 L-532,267 L-527,274 L-519,291 L-515,300 L-512,315 L-512,335 L-516,348 L-521,358 L-530,371 L-534,376 L-542,382 L-549,388 L-557,393 L-569,398 L-583,400 L-586,401 L-599,401 L-615,399 L-627,394 L-639,388 L-649,380 L-653,374 L-658,369 L-662,364 L-667,357 L-671,347 L-674,336 L-675,315 L-674,304 L-668,286 L-661,272 L-649,258 L-636,248 L-632,244 L-638,245 L-652,254 L-667,269 L-673,278 L-678,288 L-681,296 L-684,313 L-686,320 L-688,322 L-743,323 L-764,323 L-771,322 L-805,323 L-820,323 L-828,320 L-831,315 L-831,273 L-832,209 L-833,124 L-833,87 L-832,81 L-833,77 L-833,63 L-831,51 L-828,44 L-818,28 L-808,18 L-798,11 L-785,5 L-773,4 L-759,4 L-755,3 L-718,4 L-709,3 L-689,3 L-668,4 L-656,3 L-571,3 L-566,4 L-557,3 L-542,3 L-535,4 L-528,3 L-426,3 L-398,2 L-307,2 L-256,1 L-4,1 Z M-34,47 L-37,48 L-58,49 L-63,54 L-64,58 L-65,96 L-65,162 L-62,167 L-57,170 L21,170 L39,169 L43,166 L42,159 L38,147 L29,123 L27,116 L22,104 L18,91 L14,84 L9,71 L3,55 L0,51 L-7,48 Z M-411,48 L-416,53 L-417,67 L-417,123 L-415,130 L-411,132 L-328,132 L-275,131 L-270,128 L-269,126 L-268,68 L-269,53 L-272,50 L-276,49 L-305,48 Z M-157,47 L-166,48 L-227,48 L-237,50 L-239,54 L-240,71 L-240,116 L-239,128 L-235,131 L-102,131 L-97,128 L-96,127 L-95,120 L-94,100 L-94,63 L-96,53 L-100,49 L-103,48 L-134,47 Z M-761,50 L-769,55 L-770,57 L-770,127 L-767,132 L-763,134 L-666,134 L-628,133 L-623,129 L-622,120 L-622,67 L-623,57 L-628,52 L-639,50 Z M-565,48 L-573,50 L-588,50 L-593,53 L-596,58 L-597,124 L-594,130 L-592,132 L-581,134 L-571,134 L-570,133 L-507,133 L-464,132 L-453,131 L-450,129 L-449,126 L-448,115 L-447,69 L-448,56 L-452,52 L-459,49 L-541,49 L-556,50 Z M39,176 L38,178 L41,179 L42,176 Z M-595,233 L-595,236 L-594,237 L-583,237 L-578,240 L-575,239 L-576,235 L-582,233 Z M-612,234 L-619,237 L-620,239 L-613,240 L-608,238 L-607,234 Z M-625,240 Z M-51,248 L-51,251 L-46,254 L-44,254 L-45,250 L-47,248 Z M-601,279 L-602,284 L-598,283 L-599,279 Z " fill="#000000" transform="translate(935,358)"/>
<path d="M0,0 L2,1 L3,4 L4,27 L6,41 L8,57 L10,68 L13,82 L15,88 L17,98 L21,113 L26,129 L31,146 L34,153 L39,164 L42,173 L53,198 L56,204 L64,220 L74,239 L84,255 L86,260 L94,271 L101,282 L109,293 L118,305 L131,319 L138,329 L138,331 L142,333 L148,340 L153,345 L172,364 L172,366 L176,368 L187,377 L197,386 L211,396 L221,405 L227,409 L239,418 L241,421 L240,422 L235,422 L227,414 L222,412 L209,413 L200,406 L195,401 L184,393 L170,380 L162,373 L152,363 L147,358 L141,352 L138,347 L134,343 L127,335 L119,326 L114,321 L110,316 L101,305 L93,294 L84,280 L79,271 L72,262 L69,255 L55,231 L48,219 L43,207 L35,191 L31,182 L25,167 L21,157 L19,150 L17,148 L15,138 L11,128 L10,127 L8,117 L4,103 L3,101 L2,91 L0,88 Z " fill="#000000" transform="translate(0,601)"/>
<path d="M0,0 L5,1 L15,8 L23,13 L30,16 L40,23 L55,31 L62,35 L77,41 L89,47 L98,51 L107,54 L120,59 L138,65 L149,69 L160,71 L164,73 L174,75 L175,76 L187,78 L192,80 L223,86 L236,86 L241,88 L254,89 L260,90 L270,91 L290,92 L309,91 L319,93 L320,95 L191,95 L191,93 L178,91 L161,87 L153,84 L144,82 L130,77 L120,74 L113,71 L85,60 L72,55 L63,50 L54,46 L39,38 L25,31 L20,29 L13,19 L9,12 L1,4 Z " fill="#000000" transform="translate(245,1024)"/>
</svg>
