<?xml version="1.0" encoding="UTF-8"?>
<!-- Generator: visioncortex VTracer 0.6.12 -->
<svg version="1.1" xmlns="http://www.w3.org/2000/svg" width="990" height="990">
<path d="M0,0 L62,0 L61,2 L52,4 L38,5 L26,8 L24,9 L9,11 L-12,16 L-22,19 L-33,22 L-36,24 L-45,26 L-61,31 L-70,36 L-78,38 L-101,50 L-110,54 L-120,59 L-133,66 L-141,71 L-151,77 L-167,88 L-179,97 L-187,103 L-195,109 L-204,117 L-213,124 L-222,133 L-230,140 L-239,150 L-243,153 L-245,153 L-247,157 L-250,160 L-252,160 L-254,165 L-261,172 L-272,186 L-281,196 L-285,203 L-297,221 L-305,232 L-314,247 L-320,258 L-332,281 L-335,285 L-338,295 L-344,307 L-349,318 L-352,329 L-356,339 L-361,353 L-363,365 L-366,374 L-369,387 L-373,408 L-376,425 L-377,429 L-378,446 L-380,450 L-381,450 L-381,376 L-378,370 L-375,358 L-372,348 L-362,319 L-354,298 L-346,281 L-340,270 L-332,254 L-324,240 L-317,228 L-306,212 L-299,202 L-289,187 L-279,175 L-271,165 L-264,157 L-257,150 L-253,145 L-249,143 L-245,137 L-231,125 L-215,109 L-209,105 L-202,99 L-191,91 L-187,88 L-185,88 L-184,85 L-175,79 L-161,70 L-147,61 L-133,53 L-119,45 L-111,42 L-94,33 L-73,24 L-60,20 L-55,17 L-40,12 L-34,10 L-29,8 L-14,5 L-10,3 L-1,1 Z " fill="#000000" transform="translate(381,0)"/>
<path d="M0,0 L2,1 Z " fill="#000000" transform="translate(447,0)"/>
<path d="M0,0 L63,0 L64,2 L76,4 L89,8 L99,10 L109,14 L118,17 L123,20 L133,22 L144,27 L155,32 L167,37 L186,47 L202,55 L207,59 L218,65 L228,72 L238,78 L247,85 L258,93 L268,102 L279,110 L280,113 L284,115 L295,124 L300,130 L305,134 L307,138 L315,144 L323,152 L330,160 L341,174 L348,182 L357,195 L365,205 L375,221 L384,235 L396,257 L408,283 L416,299 L418,308 L422,318 L431,344 L436,363 L439,375 L440,376 L440,448 L438,447 L437,443 L435,422 L434,419 L432,404 L429,389 L423,363 L417,343 L414,330 L406,309 L402,299 L398,291 L394,281 L385,264 L382,259 L374,244 L371,238 L367,233 L362,224 L355,213 L341,194 L332,183 L326,176 L318,166 L311,158 L301,148 L294,140 L284,131 L276,124 L269,116 L261,112 L256,107 L245,98 L234,91 L226,85 L218,79 L204,71 L193,64 L182,58 L149,42 L137,37 L127,33 L124,31 L112,28 L108,25 L96,22 L91,20 L81,18 L69,14 L68,13 L57,12 L54,10 L44,8 L42,7 L29,6 L18,4 L2,3 L0,2 Z " fill="#000000" transform="translate(550,0)"/>
<path d="M0,0 L6,0 L10,3 L52,3 L95,2 L172,2 L208,1 L272,0 L281,1 L301,0 L314,0 L328,1 L334,8 L338,16 L342,26 L350,45 L353,53 L357,62 L367,88 L375,109 L387,139 L390,148 L391,208 L391,261 L390,275 L386,279 L340,280 L317,281 L313,277 L311,272 L309,259 L306,250 L301,241 L295,233 L283,222 L275,217 L271,214 L265,213 L267,217 L276,221 L289,233 L298,248 L302,257 L305,271 L306,281 L305,296 L302,307 L296,318 L289,329 L281,337 L266,346 L256,351 L241,355 L233,355 L227,356 L207,352 L192,344 L181,335 L172,325 L166,315 L163,310 L159,292 L158,287 L158,278 L161,264 L165,251 L174,237 L189,222 L201,215 L202,213 L196,213 L184,220 L175,227 L167,237 L161,246 L157,255 L153,266 L151,279 L149,282 L138,283 L83,283 L57,284 L37,284 L25,285 L15,284 L-8,284 L-17,285 L-56,285 L-118,286 L-127,286 L-130,284 L-132,269 L-138,253 L-145,243 L-149,237 L-149,235 L-153,233 L-158,227 L-172,219 L-180,215 L-195,211 L-199,209 L-210,209 L-208,212 L-187,217 L-177,221 L-169,227 L-157,238 L-153,243 L-147,254 L-142,263 L-139,274 L-138,291 L-139,305 L-149,325 L-154,330 L-162,341 L-171,347 L-178,351 L-188,355 L-193,357 L-210,359 L-228,357 L-237,354 L-251,348 L-267,332 L-271,326 L-277,317 L-283,298 L-284,288 L-282,270 L-279,259 L-275,250 L-268,239 L-261,232 L-250,224 L-239,218 L-226,214 L-215,212 L-215,209 L-221,208 L-233,211 L-248,217 L-256,222 L-266,230 L-277,241 L-284,253 L-287,262 L-291,276 L-293,286 L-298,289 L-419,289 L-423,285 L-425,230 L-425,152 L-426,128 L-426,93 L-427,88 L-427,52 L-419,36 L-405,21 L-393,12 L-384,8 L-348,7 L-341,6 L-332,7 L-321,6 L-292,6 L-262,5 L-259,6 L-237,5 L-105,5 L-97,4 L-52,4 L-44,3 L-38,4 L-6,4 L-3,3 Z M307,39 L267,41 L263,45 L262,77 L263,144 L267,148 L287,149 L316,150 L342,149 L356,147 L358,145 L358,139 L351,122 L348,115 L345,106 L342,100 L340,94 L334,77 L327,61 L322,48 L319,42 L312,39 Z M198,40 L143,41 L111,42 L106,46 L105,50 L104,81 L104,101 L106,113 L109,116 L126,117 L198,116 L222,115 L229,115 L233,111 L234,108 L235,71 L235,52 L233,44 L226,41 Z M28,42 L18,43 L-11,43 L-36,44 L-50,45 L-54,50 L-54,110 L-51,117 L-49,118 L40,118 L73,117 L77,113 L78,107 L79,82 L79,52 L77,45 L69,42 L40,43 L35,42 Z M-206,45 L-211,48 L-214,55 L-214,96 L-213,112 L-211,117 L-208,120 L-110,120 L-91,119 L-85,117 L-84,115 L-82,97 L-82,82 L-83,53 L-86,46 L-88,45 Z M-312,46 L-353,47 L-355,48 L-361,48 L-365,47 L-368,49 L-370,60 L-370,93 L-369,116 L-366,121 L-362,123 L-342,122 L-301,122 L-299,121 L-284,122 L-269,122 L-246,121 L-241,119 L-239,117 L-238,113 L-238,53 L-242,48 L-244,47 L-261,46 L-275,46 L-281,47 L-287,46 Z M224,205 L222,207 L226,208 L228,206 Z M246,207 L246,209 L255,211 L260,213 L260,210 L256,207 Z " fill="#000000" transform="translate(517,312)"/>
<path d="M0,0 L1,0 L1,65 L-1,70 L-4,84 L-9,100 L-12,110 L-16,123 L-22,139 L-25,148 L-30,160 L-35,171 L-40,181 L-46,192 L-56,209 L-65,225 L-71,233 L-79,245 L-90,260 L-100,273 L-109,284 L-117,293 L-122,298 L-127,302 L-134,310 L-145,322 L-155,330 L-160,335 L-170,343 L-175,348 L-186,355 L-200,366 L-208,372 L-222,381 L-238,391 L-258,402 L-270,408 L-286,416 L-298,421 L-308,425 L-322,431 L-332,434 L-347,438 L-359,442 L-375,446 L-382,448 L-388,448 L-390,450 L-461,450 L-461,448 L-438,446 L-417,443 L-404,441 L-395,439 L-383,436 L-381,435 L-369,433 L-348,427 L-339,424 L-321,418 L-309,413 L-296,408 L-282,401 L-266,394 L-256,388 L-231,374 L-220,367 L-211,361 L-200,353 L-190,346 L-176,335 L-168,327 L-158,319 L-150,311 L-142,304 L-135,296 L-128,290 L-117,276 L-108,266 L-101,257 L-93,246 L-81,229 L-73,216 L-66,206 L-60,195 L-58,190 L-51,178 L-43,162 L-38,149 L-30,133 L-27,126 L-24,114 L-22,105 L-16,85 L-11,64 L-6,40 L-2,12 L-2,5 Z " fill="#000000" transform="translate(989,540)"/>
<path d="M0,0 L2,1 L3,5 L5,28 L9,48 L11,60 L15,73 L17,84 L27,114 L30,123 L35,137 L42,151 L46,162 L54,177 L59,186 L63,193 L65,198 L74,212 L80,222 L90,236 L96,244 L103,255 L111,263 L121,276 L137,292 L141,298 L149,305 L158,315 L171,325 L181,334 L192,342 L202,350 L211,356 L224,365 L238,373 L254,382 L268,390 L278,395 L293,402 L305,407 L317,412 L323,415 L338,420 L343,422 L351,424 L366,428 L386,433 L395,435 L396,436 L415,438 L428,440 L447,442 L475,444 L475,446 L387,446 L382,444 L372,442 L369,440 L357,438 L349,436 L340,433 L328,430 L321,426 L305,420 L287,412 L272,406 L264,402 L257,398 L239,388 L224,379 L212,372 L199,362 L190,356 L179,347 L169,338 L158,330 L151,323 L151,321 L146,319 L141,314 L132,306 L123,295 L109,280 L103,272 L96,265 L89,256 L82,245 L75,236 L71,230 L65,221 L59,211 L54,204 L50,194 L45,186 L41,178 L35,166 L33,163 L31,156 L24,142 L19,127 L13,112 L9,102 L4,80 L2,67 L0,67 Z " fill="#000000" transform="translate(0,544)"/>
<path d="M0,0 Z " fill="#000000" transform="translate(518,989)"/>
</svg>
