<?xml version="1.0" encoding="UTF-8"?>
<!-- Generator: visioncortex VTracer 0.6.12 -->
<svg version="1.1" xmlns="http://www.w3.org/2000/svg" width="1104" height="1242">
<path d="M0,0 L9,0 L18,1 L96,1 L142,0 L245,0 L249,4 L251,17 L252,78 L252,124 L253,133 L253,228 L254,263 L255,371 L256,394 L256,477 L257,508 L257,566 L258,681 L258,772 L257,811 L258,857 L259,861 L258,900 L258,1005 L255,1010 L244,1009 L201,1009 L194,1011 L190,1010 L118,1010 L102,1011 L54,1011 L39,1012 L13,1012 L-23,1013 L-68,1012 L-88,1013 L-137,1013 L-143,1014 L-149,1013 L-167,1013 L-193,1014 L-202,1013 L-206,1014 L-227,1014 L-233,1013 L-239,1015 L-300,1016 L-325,1017 L-354,1017 L-386,1016 L-390,1017 L-407,1018 L-419,1017 L-426,1018 L-443,1017 L-476,1017 L-484,1018 L-489,1017 L-529,1018 L-624,1019 L-686,1019 L-708,1020 L-737,1020 L-749,1021 L-763,1021 L-767,1017 L-768,1014 L-769,994 L-769,930 L-770,728 L-770,676 L-771,618 L-771,589 L-772,521 L-772,495 L-773,369 L-774,293 L-774,240 L-775,196 L-776,74 L-776,32 L-775,13 L-772,10 L-765,9 L-754,9 L-743,8 L-705,8 L-697,7 L-667,7 L-661,6 L-643,7 L-633,7 L-628,4 L-624,6 L-523,6 L-503,5 L-414,5 L-272,3 L-253,4 L-250,3 L-220,3 L-133,2 L-88,2 L-80,1 L-2,1 Z M123,197 L119,202 L118,208 L121,213 L124,213 L124,204 L127,197 Z M133,200 L133,207 L132,212 L136,210 L136,202 Z M6,334 L3,336 L-99,336 L-108,337 L-196,336 L-231,337 L-374,337 L-381,338 L-401,338 L-405,339 L-471,338 L-475,339 L-495,339 L-527,340 L-539,339 L-573,339 L-584,340 L-594,343 L-607,347 L-617,352 L-633,360 L-643,369 L-650,375 L-655,380 L-664,389 L-675,407 L-679,413 L-683,423 L-685,428 L-688,440 L-690,450 L-691,463 L-692,513 L-692,588 L-691,613 L-689,620 L-678,623 L-611,623 L-604,624 L-577,624 L-575,623 L-555,623 L-548,621 L-545,617 L-539,596 L-534,583 L-527,573 L-519,563 L-511,555 L-499,548 L-486,542 L-477,542 L-473,539 L-445,539 L-426,545 L-412,553 L-405,557 L-397,564 L-389,575 L-381,591 L-377,602 L-373,618 L-369,621 L-359,621 L-352,622 L-343,621 L-316,621 L-299,622 L-34,622 L-24,620 L-20,612 L-18,600 L-9,579 L-1,568 L4,562 L12,555 L22,548 L35,542 L49,538 L62,537 L79,538 L88,540 L98,543 L108,548 L120,556 L127,564 L133,569 L142,583 L149,600 L152,616 L156,620 L158,621 L174,621 L183,619 L186,614 L187,592 L187,407 L185,393 L178,377 L172,368 L163,358 L156,352 L147,346 L135,340 L129,338 L111,336 L12,336 L9,334 Z M-761,373 L-762,378 L-757,379 L-756,374 Z M-454,545 L-467,546 L-485,550 L-495,554 L-504,561 L-512,567 L-522,580 L-529,594 L-532,605 L-533,624 L-531,636 L-527,649 L-520,661 L-514,669 L-512,669 L-510,673 L-503,679 L-492,686 L-487,688 L-478,690 L-468,693 L-448,693 L-430,687 L-420,682 L-412,676 L-403,667 L-393,653 L-389,642 L-386,629 L-385,615 L-388,598 L-396,581 L-403,571 L-412,562 L-423,555 L-433,550 L-442,547 Z M71,545 L46,547 L27,555 L19,561 L6,573 L-2,586 L-7,597 L-10,615 L-9,632 L-4,648 L4,663 L15,675 L24,681 L40,689 L44,691 L57,692 L61,693 L81,692 L88,689 L97,686 L108,680 L121,668 L128,660 L133,650 L137,641 L140,631 L140,609 L136,594 L128,578 L120,568 L109,558 L94,550 L85,547 L75,545 Z " fill="#000000" transform="translate(811,35)"/>
<path d="M0,0 L72,0 L77,2 L79,4 L80,19 L80,91 L77,104 L74,106 L-8,107 L-16,106 L-19,104 L-20,101 L-21,87 L-21,26 L-20,6 L-18,2 L-16,1 L-4,1 Z " fill="#000000" transform="translate(655,394)"/>
<path d="M0,0 L37,0 L54,5 L64,11 L69,16 L80,29 L84,40 L86,55 L86,71 L85,98 L83,104 L76,106 L1,106 L-4,103 L-7,97 L-6,91 L-6,11 L-4,3 Z " fill="#000000" transform="translate(889,394)"/>
<path d="M0,0 L40,1 L43,3 L44,6 L45,45 L44,98 L42,104 L40,106 L27,107 L-39,107 L-52,106 L-55,102 L-56,80 L-56,14 L-54,4 L-50,2 L-40,1 Z " fill="#000000" transform="translate(565,394)"/>
<path d="M0,0 L11,1 L32,1 L40,2 L43,7 L43,45 L42,88 L41,103 L36,107 L-21,107 L-33,108 L-37,107 L-45,107 L-50,108 L-55,106 L-57,103 L-58,92 L-58,8 L-55,3 L-54,2 L-24,1 L-5,1 Z " fill="#000000" transform="translate(817,393)"/>
<path d="M0,0 L82,0 L87,5 L88,10 L88,97 L86,104 L84,105 L47,106 L-1,106 L-5,104 L-7,98 L-8,63 L-8,9 L-6,4 Z " fill="#000000" transform="translate(273,396)"/>
<path d="M0,0 L23,0 L51,1 L56,6 L56,20 L57,31 L57,49 L55,101 L51,105 L48,106 L-41,106 L-44,102 L-45,99 L-45,6 L-40,1 Z " fill="#000000" transform="translate(429,395)"/>
<path d="M0,0 L8,0 L12,3 L13,23 L13,38 L12,82 L12,99 L7,104 L-81,104 L-85,99 L-85,86 L-81,72 L-74,55 L-64,41 L-55,30 L-45,21 L-34,13 L-29,10 Z " fill="#000000" transform="translate(229,398)"/>
<path d="M0,0 L9,0 L24,8 L31,17 L35,26 L35,42 L31,50 L25,58 L16,63 L12,65 L3,66 L-6,66 L-14,62 L-23,54 L-28,43 L-29,39 L-29,24 L-23,13 L-11,3 Z " fill="#000000" transform="translate(349,622)"/>
<path d="M0,0 L18,1 L29,7 L38,19 L40,25 L41,39 L37,49 L31,57 L22,63 L10,67 L-5,65 L-15,59 L-23,48 L-26,40 L-26,26 L-22,17 L-18,11 L-10,4 Z " fill="#000000" transform="translate(869,622)"/>
<path d="M0,0 L5,0 L9,5 L8,17 L4,25 L1,28 L-3,28 L-4,24 L-1,19 L-3,14 L-5,10 L-4,3 Z " fill="#000000" transform="translate(126,1125)"/>
<path d="M0,0 L8,1 L10,2 L9,7 L1,20 L-6,31 L-9,34 L-10,42 L-3,53 L3,62 L9,71 L14,78 L12,82 L3,82 L-2,79 L-6,73 L-16,58 L-20,54 L-24,55 L-39,79 L-44,83 L-49,83 L-52,81 L-51,74 L-42,61 L-36,52 L-32,46 L-31,39 L-34,32 L-42,19 L-49,9 L-50,3 L-48,1 L-41,1 L-37,3 L-28,18 L-22,25 L-18,24 L-9,11 L-2,1 Z " fill="#000000" transform="translate(97,1126)"/>
<path d="M0,0 L17,0 L24,4 L30,11 L34,21 L35,31 L35,42 L31,66 L28,71 L23,76 L17,81 L6,81 L-3,79 L-11,73 L-15,68 L-18,58 L-20,48 L-20,38 L-18,23 L-14,12 L-9,5 Z M2,11 L-3,17 L-6,27 L-7,45 L-5,60 L-1,68 L3,71 L12,71 L17,66 L19,63 L21,49 L21,28 L18,16 L12,11 Z " fill="#000000" transform="translate(230,1126)"/>
<path d="M0,0 L6,2 L7,9 L3,16 L-8,33 L-14,47 L-18,60 L-21,75 L-25,80 L-31,80 L-33,78 L-33,66 L-29,52 L-23,37 L-14,22 L-12,16 L-12,14 L-21,13 L-41,13 L-44,9 L-44,4 L-42,2 L-28,1 L-10,1 Z " fill="#000000" transform="translate(195,1126)"/>
</svg>
