<?xml version="1.0" encoding="UTF-8"?>
<!-- Generator: visioncortex VTracer 0.6.12 -->
<svg version="1.1" xmlns="http://www.w3.org/2000/svg" width="1158" height="1245">
<path d="M0,0 L53,0 L58,3 L60,6 L60,67 L61,73 L60,81 L60,103 L61,112 L61,225 L62,245 L62,327 L63,378 L63,448 L64,452 L64,553 L65,561 L65,651 L64,663 L65,670 L65,700 L66,800 L66,847 L67,895 L67,921 L68,978 L68,1005 L65,1014 L62,1016 L22,1017 L0,1016 L-27,1016 L-58,1017 L-66,1016 L-95,1016 L-102,1017 L-116,1016 L-124,1016 L-127,1014 L-132,1015 L-138,1017 L-222,1017 L-230,1016 L-239,1017 L-304,1017 L-315,1019 L-328,1018 L-359,1018 L-385,1019 L-416,1019 L-454,1020 L-487,1019 L-619,1019 L-640,1020 L-646,1019 L-680,1020 L-769,1020 L-815,1021 L-841,1022 L-900,1022 L-916,1021 L-924,1022 L-950,1022 L-956,1020 L-965,1020 L-970,1015 L-973,999 L-974,829 L-974,797 L-975,730 L-975,664 L-976,659 L-976,595 L-977,438 L-978,360 L-978,304 L-979,280 L-980,101 L-980,77 L-981,33 L-982,22 L-979,15 L-970,12 L-958,9 L-947,9 L-941,10 L-938,9 L-892,9 L-885,8 L-835,8 L-789,7 L-732,7 L-664,6 L-623,6 L-575,5 L-479,5 L-443,4 L-396,4 L-358,3 L-308,3 L-299,4 L-296,3 L-285,3 L-280,2 L-197,2 L-188,3 L-168,2 L-118,1 L-16,1 Z M-39,9 L-47,10 L-185,10 L-194,11 L-307,11 L-316,13 L-326,13 L-336,12 L-357,12 L-362,13 L-423,13 L-430,12 L-435,14 L-520,14 L-528,12 L-533,14 L-594,14 L-599,13 L-602,14 L-623,15 L-633,15 L-649,16 L-655,15 L-678,15 L-685,16 L-725,16 L-752,15 L-760,16 L-778,16 L-784,15 L-794,16 L-812,16 L-859,17 L-942,17 L-958,18 L-967,21 L-970,28 L-971,93 L-971,112 L-970,131 L-970,254 L-969,259 L-969,328 L-968,344 L-968,424 L-967,510 L-967,622 L-966,668 L-966,693 L-965,711 L-965,841 L-964,881 L-964,937 L-965,944 L-964,949 L-963,987 L-963,996 L-961,1009 L-957,1012 L-947,1013 L-928,1013 L-924,1012 L-917,1013 L-847,1013 L-834,1012 L-812,1012 L-805,1011 L-678,1011 L-633,1010 L-591,1010 L-585,1012 L-576,1012 L-573,1011 L-528,1010 L-390,1010 L-345,1009 L-296,1009 L-285,1008 L-149,1008 L-140,1007 L-31,1007 L-23,1009 L-13,1009 L-10,1008 L5,1007 L29,1007 L49,1006 L55,1002 L56,1001 L56,901 L58,897 L57,892 L56,850 L56,815 L55,791 L55,665 L54,631 L54,584 L53,493 L53,385 L52,332 L52,311 L51,233 L51,171 L50,119 L50,82 L49,23 L47,13 L46,11 L43,10 L23,9 L14,10 L4,10 L-13,9 L-31,10 Z " fill="#000000" transform="translate(1057,37)"/>
<path d="M0,0 L20,0 L25,1 L54,1 L63,3 L90,5 L97,7 L121,10 L132,13 L143,15 L156,18 L167,21 L170,23 L181,24 L189,28 L205,32 L218,37 L233,42 L239,45 L253,50 L264,55 L281,63 L295,75 L301,82 L309,95 L314,108 L316,118 L319,139 L321,160 L324,175 L326,194 L328,206 L330,222 L331,237 L333,244 L336,274 L338,284 L341,305 L343,319 L344,331 L346,343 L348,360 L350,375 L352,378 L351,385 L350,386 L351,394 L352,399 L351,463 L352,472 L352,563 L353,567 L353,701 L352,714 L348,717 L316,717 L310,719 L293,720 L289,724 L288,727 L288,748 L287,767 L287,780 L283,785 L275,792 L260,794 L229,794 L219,793 L213,789 L207,781 L205,777 L204,757 L204,730 L202,722 L197,720 L177,720 L172,721 L162,720 L50,720 L39,721 L30,721 L25,720 L21,721 L-26,721 L-73,722 L-105,722 L-110,723 L-114,722 L-195,723 L-200,726 L-202,728 L-203,737 L-203,769 L-205,781 L-208,788 L-215,795 L-220,797 L-272,797 L-278,794 L-285,786 L-287,781 L-288,735 L-290,726 L-293,723 L-301,722 L-346,723 L-353,717 L-354,656 L-354,602 L-353,591 L-352,585 L-354,579 L-353,566 L-354,546 L-354,506 L-353,439 L-353,388 L-352,386 L-347,343 L-338,276 L-334,245 L-333,241 L-332,228 L-330,217 L-327,193 L-323,164 L-321,150 L-317,120 L-313,107 L-309,96 L-303,86 L-296,79 L-291,74 L-284,68 L-274,62 L-260,56 L-240,47 L-232,45 L-222,41 L-199,33 L-189,29 L-178,26 L-169,24 L-163,22 L-153,20 L-150,18 L-138,16 L-134,14 L-117,12 L-108,10 L-105,8 L-91,7 L-72,4 L-38,1 Z M89,38 L78,39 L50,39 L44,40 L39,39 L29,39 L23,40 L13,39 L6,40 L-9,39 L-45,39 L-54,40 L-86,40 L-125,41 L-135,43 L-139,48 L-140,50 L-140,66 L-133,74 L86,74 L94,73 L104,74 L127,73 L135,68 L137,60 L137,51 L135,43 L131,40 L96,38 Z M180,101 L177,103 L100,103 L79,104 L58,104 L49,103 L10,105 L-58,105 L-64,106 L-71,104 L-75,105 L-90,105 L-100,106 L-107,105 L-125,105 L-134,106 L-200,106 L-205,107 L-214,107 L-228,110 L-244,117 L-254,125 L-262,136 L-266,143 L-270,156 L-272,171 L-276,202 L-278,211 L-280,234 L-286,280 L-289,301 L-290,304 L-291,322 L-296,355 L-298,379 L-298,393 L-294,398 L-247,398 L-240,399 L-232,398 L-178,398 L-162,397 L-140,397 L-131,398 L-120,397 L-106,396 L66,396 L168,395 L268,395 L274,394 L284,395 L292,393 L297,389 L298,387 L298,378 L296,367 L293,338 L289,311 L287,290 L284,274 L282,255 L279,230 L278,227 L275,198 L273,187 L270,154 L267,145 L263,136 L253,122 L248,118 L243,115 L239,110 L231,108 L218,104 L208,103 L185,103 Z M224,516 L214,520 L208,523 L198,532 L191,545 L190,553 L190,567 L194,577 L197,583 L202,588 L212,596 L225,599 L241,599 L257,593 L262,588 L266,584 L274,571 L275,563 L275,554 L273,544 L268,534 L266,534 L264,530 L259,524 L249,520 L239,517 Z M-234,521 L-244,522 L-261,531 L-269,540 L-275,551 L-276,563 L-275,575 L-269,586 L-262,594 L-254,599 L-243,603 L-231,604 L-219,601 L-210,597 L-202,590 L-195,580 L-191,567 L-191,558 L-193,549 L-197,541 L-206,531 L-210,527 L-225,521 Z " fill="#000000" transform="translate(599,136)"/>
<path d="M0,0 L2,2 L0,3 Z " fill="#000000" transform="translate(334,324)"/>
<path d="M0,0 L4,1 L3,4 L-1,3 Z " fill="#000000" transform="translate(36,356)"/>
<path d="M0,0 L36,1 L46,6 L50,11 L53,16 L53,27 L51,33 L43,44 L38,47 L34,48 L9,48 L7,49 L6,52 L6,67 L5,77 L2,80 L-3,80 L-5,77 L-6,70 L-6,5 L-3,1 Z M12,11 L8,13 L7,15 L7,35 L10,37 L31,37 L39,34 L41,31 L41,23 L37,15 L33,12 L28,11 Z " fill="#000000" transform="translate(85,1131)"/>
<path d="M0,0 L5,3 L7,6 L9,16 L18,22 L17,27 L12,30 L10,30 L9,35 L9,59 L10,65 L17,69 L17,76 L15,78 L5,78 L-1,73 L-3,69 L-5,51 L-5,31 L-10,29 L-12,27 L-11,20 L-7,17 L-5,4 L-3,1 Z " fill="#000000" transform="translate(270,1132)"/>
<path d="M0,0 L4,2 L5,3 L5,10 L-7,16 L-11,24 L-12,31 L-13,52 L-15,59 L-16,60 L-21,60 L-24,55 L-25,42 L-25,4 L-22,1 L-16,1 L-12,4 L-7,3 Z " fill="#000000" transform="translate(246,1150)"/>
<path d="M0,0 L17,0 L28,6 L34,16 L36,22 L36,37 L33,42 L30,50 L20,59 L14,61 L0,61 L-8,58 L-15,50 L-18,45 L-21,27 L-18,16 L-11,7 L-6,3 Z M5,10 L-1,13 L-5,18 L-9,28 L-8,39 L-3,47 L2,51 L11,52 L19,48 L23,43 L24,40 L24,22 L19,14 L13,10 Z " fill="#000000" transform="translate(171,1152)"/>
</svg>
