<?xml version="1.0" encoding="UTF-8"?>
<!-- Generator: visioncortex VTracer 0.6.12 -->
<svg version="1.1" xmlns="http://www.w3.org/2000/svg" width="1164" height="1203">
<path d="M0,0 L64,0 L68,1 L126,1 L134,2 L242,2 L253,3 L331,3 L334,4 L408,4 L434,5 L476,5 L486,6 L540,6 L548,7 L551,6 L571,6 L582,7 L659,7 L757,9 L778,9 L836,10 L855,10 L948,12 L999,12 L1022,13 L1088,14 L1131,15 L1135,18 L1135,94 L1132,100 L1133,105 L1133,118 L1130,126 L1131,131 L1132,132 L1132,164 L1131,216 L1130,287 L1129,308 L1129,354 L1128,420 L1127,564 L1127,663 L1126,722 L1126,849 L1125,914 L1125,981 L1124,1013 L1123,1017 L1124,1019 L1124,1090 L1123,1120 L1121,1131 L1119,1133 L1113,1134 L1097,1133 L1043,1132 L1036,1133 L1029,1132 L1018,1132 L1002,1131 L933,1131 L919,1130 L913,1129 L894,1130 L843,1129 L817,1128 L762,1128 L672,1127 L649,1126 L482,1126 L377,1125 L326,1124 L199,1124 L189,1123 L116,1123 L53,1122 L18,1122 L-10,1120 L-13,1116 L-14,1113 L-14,1073 L-13,1000 L-13,968 L-12,898 L-12,831 L-11,783 L-11,686 L-10,641 L-10,589 L-9,485 L-9,450 L-7,254 L-6,238 L-6,155 L-5,133 L-5,74 L-4,9 L-2,1 Z M113,41 L102,43 L96,46 L90,46 L83,52 L74,59 L64,69 L55,85 L51,100 L49,121 L49,159 L48,181 L48,205 L46,288 L46,308 L45,346 L45,373 L44,423 L43,502 L42,546 L42,572 L41,610 L40,686 L40,724 L39,784 L38,883 L37,984 L37,1017 L43,1037 L53,1053 L60,1061 L75,1071 L85,1075 L92,1078 L110,1080 L132,1080 L140,1081 L165,1081 L221,1082 L283,1082 L348,1083 L389,1083 L399,1084 L502,1084 L515,1083 L518,1084 L649,1084 L675,1085 L711,1085 L768,1086 L810,1086 L826,1087 L848,1087 L853,1088 L856,1087 L917,1087 L930,1088 L1018,1088 L1027,1086 L1039,1081 L1053,1071 L1063,1061 L1072,1047 L1074,1041 L1076,1040 L1078,1016 L1079,966 L1079,947 L1080,911 L1080,856 L1081,836 L1081,756 L1082,653 L1082,586 L1084,394 L1084,311 L1085,235 L1085,122 L1084,111 L1079,95 L1074,86 L1068,78 L1063,76 L1061,71 L1055,66 L1040,58 L1032,55 L1010,52 L923,51 L885,51 L872,50 L827,50 L791,49 L715,49 L644,48 L619,48 L556,47 L497,47 L487,45 L480,46 L423,46 L421,45 L354,45 L285,44 L244,43 L229,42 L199,42 L157,41 Z " fill="#000000" transform="translate(29,36)"/>
<path d="M0,0 L21,1 L158,1 L165,0 L167,1 L231,2 L297,2 L323,4 L360,7 L380,10 L386,13 L392,13 L397,17 L398,25 L395,30 L389,36 L388,45 L384,45 L379,45 L375,52 L375,108 L379,114 L385,118 L390,116 L393,116 L397,126 L398,130 L398,148 L399,159 L398,175 L398,188 L400,192 L400,199 L398,204 L393,210 L378,214 L359,215 L357,214 L296,214 L282,213 L277,210 L272,209 L271,220 L267,231 L261,240 L252,247 L244,251 L236,252 L227,252 L213,246 L203,238 L197,226 L195,219 L195,209 L190,210 L185,214 L144,214 L124,213 L62,213 L10,212 L-9,212 L-30,211 L-81,211 L-132,210 L-158,210 L-214,208 L-244,208 L-262,207 L-268,203 L-273,203 L-273,212 L-276,226 L-283,236 L-291,243 L-301,248 L-313,249 L-329,245 L-339,237 L-347,223 L-349,216 L-350,203 L-360,211 L-410,211 L-440,210 L-461,209 L-468,203 L-468,201 L-479,200 L-484,195 L-483,189 L-480,181 L-478,147 L-476,97 L-474,76 L-474,63 L-472,36 L-468,21 L-465,14 L-455,7 L-437,4 L-423,4 L-383,3 L-363,3 L-308,2 L-253,2 L-242,1 L-13,1 Z M203,36 L192,38 L188,43 L187,55 L187,91 L190,97 L194,100 L213,101 L269,101 L280,100 L286,96 L288,89 L289,67 L288,47 L284,39 L274,36 Z M-135,37 L-143,39 L-146,43 L-148,60 L-148,88 L-144,97 L-139,100 L-111,101 L-75,101 L-57,100 L-51,96 L-49,90 L-48,79 L-48,64 L-49,45 L-51,40 L-54,38 L-89,37 Z M52,36 L1,37 L-5,38 L-9,37 L-25,37 L-31,41 L-34,47 L-35,60 L-34,89 L-31,97 L-28,99 L-3,100 L46,100 L55,99 L61,95 L64,92 L65,82 L65,46 L61,38 L56,36 Z M113,36 L83,37 L78,42 L77,45 L76,67 L76,82 L79,94 L84,99 L87,100 L166,100 L172,96 L175,92 L176,65 L175,45 L170,39 L166,37 Z M-430,38 L-436,40 L-440,44 L-442,49 L-442,92 L-439,98 L-436,101 L-433,102 L-418,103 L-412,100 L-408,96 L-407,90 L-407,54 L-409,42 L-415,38 Z M-373,37 L-382,38 L-389,43 L-392,52 L-392,86 L-390,96 L-386,101 L-382,103 L-312,103 L-299,101 L-293,96 L-292,93 L-292,50 L-296,41 L-300,38 Z M321,44 L316,50 L315,59 L316,100 L320,105 L322,106 L328,106 L333,101 L335,89 L336,87 L338,87 L339,89 L340,102 L344,106 L350,107 L355,102 L356,99 L358,64 L356,50 L351,44 L343,44 L340,49 L339,83 L335,82 L334,54 L332,47 L329,44 Z M-254,45 L-259,49 L-261,55 L-261,98 L-259,107 L-255,111 L-249,110 L-245,103 L-244,71 L-245,51 L-247,47 L-250,45 Z M-232,45 L-237,49 L-238,51 L-239,94 L-238,105 L-234,110 L-228,110 L-223,105 L-222,74 L-222,57 L-224,48 L-229,45 Z M-208,45 L-213,48 L-215,52 L-215,102 L-212,109 L-205,110 L-200,105 L-200,52 L-202,47 L-205,45 Z M-187,45 L-192,49 L-193,51 L-193,102 L-191,107 L-188,110 L-181,109 L-178,103 L-177,98 L-177,71 L-178,51 L-180,47 L-183,45 Z M323,118 L318,122 L316,128 L316,176 L319,181 L321,183 L328,182 L331,179 L333,170 L333,123 L331,119 L329,118 Z M349,118 L342,120 L340,123 L339,144 L338,157 L338,167 L340,180 L345,184 L351,183 L355,178 L357,168 L356,127 L353,120 Z M-256,121 L-260,126 L-261,128 L-261,145 L-262,150 L-262,170 L-260,179 L-256,183 L-251,183 L-246,178 L-245,175 L-245,128 L-248,123 L-250,121 Z M-231,120 L-236,123 L-238,127 L-239,133 L-239,175 L-236,180 L-234,182 L-227,182 L-224,179 L-222,170 L-222,129 L-224,124 L-227,121 Z M-209,121 L-214,124 L-215,127 L-216,150 L-215,179 L-210,184 L-205,183 L-201,179 L-200,177 L-200,126 L-203,121 Z M-186,120 L-191,123 L-193,126 L-193,177 L-190,182 L-182,182 L-179,178 L-178,172 L-177,151 L-178,126 L-183,121 Z M2,186 L3,188 L4,186 Z " fill="#000000" transform="translate(632,541)"/>
</svg>
