<?xml version="1.0" encoding="UTF-8"?>
<!-- Generator: visioncortex VTracer 0.6.12 -->
<svg version="1.1" xmlns="http://www.w3.org/2000/svg" width="1134" height="1110">
<path d="M0,0 L65,0 L63,2 L22,3 L7,4 L4,7 L3,104 L3,317 L2,325 L0,326 Z " fill="#000000" transform="translate(0,0)"/>
<path d="M0,0 L14,0 L13,2 L3,2 Z " fill="#000000" transform="translate(73,0)"/>
<path d="M0,0 L4,1 Z " fill="#000000" transform="translate(95,0)"/>
<path d="M0,0 L9,0 L8,2 L1,2 Z " fill="#000000" transform="translate(107,0)"/>
<path d="M0,0 L11,0 L11,1 L0,1 Z " fill="#000000" transform="translate(123,0)"/>
<path d="M0,0 L4,1 Z " fill="#000000" transform="translate(310,0)"/>
<path d="M0,0 L3,1 Z " fill="#000000" transform="translate(539,0)"/>
<path d="M0,0 L2,1 Z " fill="#000000" transform="translate(622,0)"/>
<path d="M0,0 L8,0 L8,1110 L1,1110 L2,955 L3,881 L3,814 L4,789 L3,723 L3,613 L2,577 L2,374 L3,308 L3,266 L4,225 L4,12 L3,5 Z " fill="#000000" transform="translate(1126,0)"/>
<path d="M0,0 L2,1 Z " fill="#000000" transform="translate(47,178)"/>
<path d="M0,0 L489,0 L497,1 L510,1 L517,4 L531,13 L536,19 L544,35 L546,52 L546,123 L547,144 L547,268 L548,346 L548,427 L547,543 L547,582 L545,599 L541,612 L535,620 L527,627 L517,633 L504,634 L494,636 L450,636 L408,637 L394,636 L246,635 L197,635 L174,636 L113,636 L84,637 L16,637 L0,636 L-21,634 L-31,631 L-43,623 L-49,615 L-53,608 L-56,598 L-57,584 L-57,488 L-58,414 L-59,362 L-59,215 L-60,173 L-60,154 L-59,120 L-59,84 L-60,42 L-56,28 L-50,19 L-40,9 L-28,2 L-25,1 Z M65,10 L66,14 L70,14 L71,11 L70,10 Z M372,26 L366,27 L315,27 L243,28 L199,28 L147,27 L108,27 L76,28 L64,32 L53,40 L47,48 L45,57 L45,74 L47,81 L57,94 L64,98 L75,102 L103,103 L174,103 L197,102 L209,104 L224,104 L228,102 L229,95 L221,82 L219,72 L220,54 L222,48 L226,49 L227,53 L228,77 L231,84 L235,88 L242,89 L249,86 L253,80 L254,74 L255,51 L256,49 L261,50 L262,55 L262,71 L260,83 L256,91 L251,95 L251,100 L255,103 L264,104 L277,103 L281,100 L280,94 L275,89 L274,83 L275,81 L281,82 L286,86 L292,87 L297,84 L298,83 L298,76 L293,72 L278,66 L274,60 L274,53 L277,47 L287,41 L297,42 L303,45 L305,48 L305,51 L301,52 L291,49 L286,52 L286,58 L292,63 L302,67 L307,71 L309,75 L309,83 L304,91 L299,97 L300,101 L303,103 L408,103 L422,100 L432,92 L439,82 L442,74 L443,59 L440,49 L434,39 L426,33 L416,29 L403,27 Z M207,127 L201,128 L156,129 L109,129 L98,128 L87,129 L14,129 L-7,128 L-20,130 L-28,136 L-31,141 L-33,154 L-33,390 L-32,412 L-29,422 L-23,427 L-10,430 L212,430 L227,429 L232,426 L235,420 L236,398 L236,278 L235,262 L235,240 L236,225 L234,180 L234,144 L231,133 L226,129 L215,127 Z M331,127 L318,128 L278,128 L258,129 L251,133 L249,139 L248,147 L248,182 L249,251 L247,267 L249,275 L249,372 L250,420 L253,426 L258,429 L289,430 L294,431 L310,430 L507,430 L516,426 L522,419 L523,415 L523,244 L522,226 L522,177 L521,150 L519,138 L528,139 L530,136 L530,131 L527,129 L522,130 L519,135 L514,133 L509,129 L506,128 L484,127 L410,127 L401,128 L396,127 L389,127 L384,128 L349,128 Z M41,481 L25,486 L15,491 L4,503 L-2,515 L-4,521 L-4,542 L1,556 L4,560 L8,567 L20,577 L33,582 L53,582 L65,579 L77,572 L87,561 L91,553 L94,540 L94,521 L92,511 L86,503 L79,495 L73,490 L63,484 L47,481 Z M441,482 L424,485 L411,493 L404,500 L396,516 L394,522 L393,537 L394,546 L399,556 L402,562 L413,574 L424,580 L433,583 L454,583 L463,581 L474,575 L477,573 L477,571 L481,569 L489,558 L492,551 L493,545 L493,537 L492,534 L491,513 L485,501 L476,492 L459,483 L452,482 Z M254,590 L251,593 L250,602 L254,602 L256,598 L256,590 Z " fill="#000000" transform="translate(314,224)"/>
<path d="M0,0 L9,0 L18,2 L24,6 L26,11 L26,24 L28,31 L28,44 L24,50 L15,55 L0,55 L-5,50 L-8,43 L-9,34 L-9,13 L-7,5 L-3,1 Z M6,11 L4,14 L5,18 L10,20 L13,17 L12,12 L11,11 Z M7,31 L3,35 L3,40 L8,44 L13,43 L17,39 L16,34 L12,31 Z " fill="#000000" transform="translate(497,265)"/>
<path d="M0,0 L2,0 L3,2 L3,82 L2,147 L0,148 Z " fill="#000000" transform="translate(0,334)"/>
<path d="M0,0 L2,3 L1,10 L0,10 Z " fill="#000000" transform="translate(0,497)"/>
<path d="M0,0 L1,0 L1,6 L0,6 Z " fill="#000000" transform="translate(0,817)"/>
<path d="M0,0 L29,2 L34,5 L37,9 L38,14 L38,31 L39,40 L38,83 L37,104 L33,114 L25,120 L23,121 L-4,121 L-20,122 L-48,122 L-59,118 L-64,112 L-68,104 L-69,41 L-68,17 L-66,7 L-61,3 L-55,2 L-31,1 L-4,1 Z " fill="#000000" transform="translate(375,867)"/>
<path d="M0,0 L76,0 L87,1 L92,4 L94,7 L95,25 L95,93 L94,105 L89,113 L81,118 L34,118 L26,119 L2,117 L-4,114 L-8,108 L-10,101 L-11,56 L-11,8 L-6,2 Z " fill="#000000" transform="translate(716,869)"/>
<path d="M0,0 L1,0 L1,8 L0,8 Z " fill="#000000" transform="translate(0,910)"/>
<path d="M0,0 Z " fill="#000000" transform="translate(0,934)"/>
<path d="M0,0 Z " fill="#000000" transform="translate(0,1049)"/>
<path d="M0,0 Z " fill="#000000" transform="translate(0,1078)"/>
<path d="M0,0 L2,1 L3,19 L0,19 Z " fill="#000000" transform="translate(0,1091)"/>
</svg>
