<?xml version="1.0" encoding="UTF-8"?>
<!-- Generator: visioncortex VTracer 0.6.12 -->
<svg version="1.1" xmlns="http://www.w3.org/2000/svg" width="1209" height="1200">
<path d="M0,0 L18,1 L34,1 L65,2 L122,2 L137,3 L192,3 L224,2 L233,3 L277,4 L293,5 L340,6 L383,6 L390,7 L405,7 L413,6 L455,9 L519,9 L540,8 L559,9 L653,9 L657,10 L699,10 L716,11 L723,10 L746,10 L757,9 L790,9 L795,10 L832,10 L841,11 L866,9 L1077,9 L1106,11 L1114,8 L1121,5 L1125,9 L1125,65 L1124,129 L1123,149 L1123,181 L1121,276 L1120,287 L1120,308 L1121,320 L1121,362 L1120,374 L1120,415 L1119,519 L1118,549 L1118,607 L1117,636 L1117,655 L1116,688 L1116,720 L1115,825 L1115,861 L1114,884 L1113,970 L1113,1016 L1112,1090 L1111,1119 L1109,1129 L1106,1131 L1094,1131 L1087,1130 L952,1130 L831,1129 L823,1128 L813,1129 L732,1129 L660,1128 L648,1129 L624,1129 L612,1127 L585,1127 L579,1128 L534,1128 L503,1127 L451,1127 L421,1126 L344,1126 L307,1125 L296,1125 L285,1124 L198,1124 L185,1123 L93,1122 L33,1120 L-12,1120 L-14,1118 L-14,1107 L-13,1087 L-13,1038 L-12,1033 L-12,1013 L-13,1005 L-12,1001 L-12,923 L-11,867 L-11,751 L-10,740 L-11,682 L-9,659 L-9,544 L-8,514 L-8,479 L-7,476 L-7,461 L-8,437 L-7,432 L-7,400 L-8,392 L-8,380 L-7,373 L-7,117 L-6,67 L-5,35 L-4,30 L-4,19 L-5,15 L-5,8 L-2,1 Z M58,12 L25,13 L13,13 L9,17 L7,23 L6,66 L5,122 L5,147 L4,179 L3,262 L3,296 L2,335 L2,376 L1,390 L1,504 L0,568 L0,718 L-1,753 L0,758 L0,821 L-1,870 L-1,1100 L2,1105 L9,1107 L43,1108 L58,1108 L85,1109 L111,1109 L122,1110 L156,1110 L179,1111 L221,1111 L279,1112 L313,1112 L375,1113 L446,1113 L471,1114 L478,1111 L484,1112 L488,1114 L663,1114 L690,1115 L765,1115 L903,1116 L939,1116 L945,1117 L1024,1117 L1092,1119 L1098,1116 L1101,1109 L1101,1091 L1102,1080 L1102,1038 L1103,1029 L1102,1017 L1103,1013 L1102,981 L1102,940 L1103,927 L1104,849 L1104,784 L1105,717 L1105,689 L1106,655 L1107,579 L1107,541 L1108,501 L1108,476 L1109,471 L1109,455 L1110,430 L1110,358 L1112,338 L1112,317 L1111,304 L1111,291 L1113,277 L1113,268 L1111,250 L1111,194 L1110,188 L1110,175 L1111,163 L1112,130 L1112,107 L1111,89 L1112,74 L1113,39 L1112,24 L1104,20 L1019,20 L939,21 L768,21 L730,20 L724,21 L597,21 L563,20 L503,20 L498,19 L431,19 L410,18 L365,18 L341,17 L326,17 L283,15 L253,14 L180,14 L169,13 L156,14 L121,13 L99,13 Z " fill="#000000" transform="translate(50,35)"/>
<path d="M0,0 L105,1 L196,1 L478,2 L710,2 L777,3 L789,5 L802,11 L811,23 L815,34 L820,54 L823,70 L830,109 L833,126 L836,138 L840,168 L840,323 L839,335 L834,338 L714,338 L712,334 L712,317 L709,298 L701,279 L693,265 L688,260 L681,253 L675,249 L665,243 L656,239 L645,235 L631,233 L621,233 L608,234 L595,237 L579,243 L565,252 L555,261 L545,274 L537,290 L532,312 L531,335 L526,338 L493,338 L375,339 L111,339 L108,335 L107,310 L103,293 L99,284 L94,275 L86,264 L78,256 L64,246 L46,238 L30,234 L7,234 L-8,237 L-20,241 L-31,247 L-43,256 L-48,261 L-56,269 L-66,287 L-70,298 L-73,311 L-74,337 L-76,339 L-208,339 L-211,336 L-211,215 L-210,181 L-210,144 L-209,105 L-208,77 L-203,58 L-198,47 L-189,33 L-178,22 L-166,13 L-149,5 L-126,1 L-92,1 Z M-33,40 L-111,41 L-130,42 L-142,46 L-151,52 L-156,56 L-164,70 L-166,75 L-167,82 L-168,115 L-168,151 L-165,157 L-160,162 L-157,163 L-9,163 L-2,160 L3,155 L4,152 L5,131 L5,58 L3,49 L-1,43 L-6,41 Z M47,41 L40,45 L36,51 L35,54 L34,141 L35,154 L40,160 L46,163 L61,164 L154,164 L191,163 L200,160 L205,155 L206,150 L207,60 L206,51 L202,45 L197,42 L177,41 Z M247,42 L240,47 L237,55 L236,81 L236,149 L240,159 L247,163 L359,164 L388,164 L399,162 L405,158 L408,151 L409,124 L409,58 L406,48 L400,43 L397,42 Z M450,42 L441,47 L438,56 L437,71 L437,148 L439,155 L444,161 L450,163 L487,164 L589,164 L601,162 L606,157 L608,152 L609,142 L609,52 L605,45 L600,42 Z M651,42 L645,46 L641,51 L640,53 L639,63 L638,150 L642,158 L648,162 L655,163 L687,164 L789,164 L797,161 L801,156 L803,149 L802,137 L799,117 L792,85 L789,69 L785,53 L780,46 L772,42 Z " fill="#000000" transform="translate(292,408)"/>
<path d="M0,0 L21,0 L33,3 L51,11 L63,20 L73,33 L79,45 L83,57 L84,63 L84,81 L82,90 L77,104 L71,114 L60,127 L49,135 L36,141 L29,144 L15,146 L-5,145 L-18,141 L-26,137 L-35,131 L-42,126 L-50,116 L-56,107 L-61,94 L-64,81 L-64,64 L-60,49 L-56,40 L-49,28 L-41,19 L-31,12 L-21,6 L-5,1 Z " fill="#000000" transform="translate(904,656)"/>
<path d="M0,0 L9,0 L22,3 L31,7 L42,14 L50,20 L57,27 L63,36 L68,45 L72,59 L73,70 L73,81 L70,95 L65,107 L56,120 L48,129 L35,138 L25,143 L9,147 L-12,147 L-27,144 L-42,136 L-52,128 L-60,120 L-67,110 L-73,96 L-76,81 L-76,72 L-74,59 L-70,45 L-63,33 L-51,19 L-42,12 L-27,5 L-15,1 Z " fill="#000000" transform="translate(310,656)"/>
<path d="M0,0 L4,1 L3,6 L-1,4 Z " fill="#000000" transform="translate(128,1122)"/>
</svg>
