<?xml version="1.0" encoding="UTF-8"?>
<!-- Generator: visioncortex VTracer 0.6.12 -->
<svg version="1.1" xmlns="http://www.w3.org/2000/svg" width="1116" height="1380">
<path d="M0,0 L14,0 L14,28 L11,36 L9,37 L3,37 L0,34 L-1,28 L-1,12 Z " fill="#000000" transform="translate(64,0)"/>
<path d="M0,0 L14,0 L16,10 L23,20 L28,23 L34,24 L42,24 L50,22 L56,15 L60,6 L65,3 L70,3 L72,5 L72,17 L67,23 L64,28 L57,34 L49,38 L46,39 L35,39 L23,37 L12,30 L5,21 L1,10 Z " fill="#000000" transform="translate(112,0)"/>
<path d="M0,0 L3,1 L2,6 L-2,5 L-1,1 Z " fill="#000000" transform="translate(132,104)"/>
<path d="M0,0 L388,0 L452,1 L609,1 L623,2 L638,5 L660,11 L677,19 L687,25 L699,33 L709,42 L714,47 L725,60 L731,68 L743,90 L749,106 L751,114 L752,126 L754,130 L756,155 L756,289 L755,320 L755,801 L756,811 L755,886 L753,910 L749,923 L747,932 L743,942 L736,956 L728,968 L721,978 L707,993 L699,1000 L684,1010 L676,1015 L662,1021 L645,1027 L633,1030 L623,1031 L617,1031 L609,1034 L600,1033 L427,1033 L410,1032 L397,1033 L391,1032 L356,1033 L263,1033 L256,1034 L246,1033 L64,1033 L58,1034 L-61,1034 L-105,1035 L-141,1035 L-167,1033 L-185,1027 L-201,1020 L-208,1016 L-219,1010 L-230,1000 L-240,992 L-247,984 L-251,979 L-254,976 L-263,961 L-271,945 L-277,930 L-279,924 L-281,910 L-283,902 L-284,865 L-284,819 L-283,735 L-283,490 L-284,481 L-283,476 L-282,429 L-282,394 L-281,214 L-281,179 L-280,137 L-276,114 L-272,104 L-270,96 L-266,88 L-262,78 L-255,68 L-246,55 L-240,50 L-235,45 L-224,34 L-216,28 L-193,15 L-175,8 L-164,5 L-152,3 L-131,2 L-125,1 L-51,1 Z M-114,13 L-131,14 L-143,14 L-165,18 L-176,22 L-186,25 L-206,36 L-214,42 L-222,48 L-227,53 L-241,68 L-246,77 L-253,88 L-260,105 L-264,120 L-267,141 L-269,161 L-269,216 L-270,284 L-271,468 L-271,890 L-268,910 L-265,923 L-262,933 L-257,945 L-248,961 L-238,975 L-226,987 L-216,995 L-208,1000 L-203,1004 L-195,1008 L-186,1012 L-175,1016 L-160,1020 L-155,1021 L-137,1022 L-1,1021 L194,1021 L218,1020 L223,1021 L239,1020 L257,1021 L281,1021 L296,1020 L327,1021 L421,1021 L452,1020 L459,1021 L474,1021 L480,1020 L487,1021 L561,1021 L609,1020 L633,1017 L645,1014 L655,1011 L667,1005 L679,999 L687,994 L698,985 L709,974 L719,961 L725,952 L733,936 L740,913 L743,891 L744,831 L744,814 L743,800 L744,745 L744,568 L745,529 L744,516 L744,199 L745,162 L744,140 L741,120 L734,99 L726,83 L720,73 L709,59 L705,57 L703,53 L690,41 L680,35 L670,29 L658,24 L655,22 L645,19 L630,16 L605,14 L576,13 L506,13 L496,14 L471,13 L434,13 L397,14 L384,13 L376,14 L299,13 L-65,13 L-108,14 Z " fill="#000000" transform="translate(328,188)"/>
<path d="M0,0 L15,1 L94,1 L155,0 L181,1 L199,0 L449,0 L457,1 L469,0 L520,1 L560,1 L580,7 L593,14 L601,21 L610,33 L618,51 L625,74 L627,78 L629,87 L636,108 L645,138 L649,150 L652,158 L659,180 L663,196 L664,208 L665,222 L665,344 L663,351 L661,353 L648,354 L642,355 L639,354 L585,354 L581,352 L578,345 L574,327 L571,317 L564,304 L552,288 L543,279 L535,274 L520,266 L499,259 L461,259 L451,263 L441,266 L427,274 L421,279 L415,283 L405,295 L397,309 L393,317 L388,331 L386,342 L382,351 L379,352 L254,352 L177,353 L107,352 L90,353 L82,352 L57,352 L53,350 L51,345 L48,327 L43,315 L34,296 L25,287 L20,281 L7,271 L-10,263 L-18,260 L-30,257 L-52,257 L-63,259 L-76,262 L-92,270 L-101,275 L-106,280 L-108,280 L-110,284 L-117,291 L-124,301 L-132,317 L-137,333 L-139,347 L-143,352 L-145,353 L-208,353 L-221,352 L-223,349 L-224,319 L-224,306 L-225,292 L-224,263 L-225,239 L-225,64 L-223,52 L-218,40 L-212,30 L-210,27 L-208,27 L-206,23 L-193,12 L-177,5 L-171,3 L-154,2 L-97,2 L-74,1 L-68,4 L-62,1 Z M211,24 L177,25 L173,27 L171,30 L170,36 L169,73 L169,139 L170,151 L174,155 L181,157 L254,157 L320,156 L326,154 L328,149 L329,132 L330,91 L330,30 L326,26 L324,25 L296,24 Z M478,23 L464,24 L397,24 L360,25 L353,27 L350,33 L349,83 L349,146 L351,153 L355,156 L363,157 L386,157 L486,158 L493,157 L514,157 L519,153 L521,126 L521,105 L522,70 L522,35 L519,28 L513,25 L489,24 L485,23 Z M552,24 L547,27 L544,32 L544,148 L546,155 L549,157 L594,158 L612,158 L623,156 L625,153 L624,144 L621,129 L615,111 L611,95 L606,81 L604,72 L599,56 L595,46 L586,36 L582,32 L570,26 L564,24 Z M51,25 L5,26 L-8,27 L-12,31 L-13,36 L-14,88 L-14,146 L-12,154 L-6,157 L78,157 L141,156 L146,150 L147,87 L147,33 L145,28 L144,27 L117,25 Z M-100,26 L-151,27 L-163,28 L-174,32 L-182,37 L-190,44 L-197,56 L-199,65 L-200,89 L-199,141 L-199,153 L-195,157 L-189,158 L-183,157 L-175,158 L-112,158 L-47,157 L-40,156 L-36,150 L-35,143 L-34,117 L-34,33 L-37,28 L-44,26 Z " fill="#000000" transform="translate(344,551)"/>
<path d="M0,0 L11,1 L27,4 L43,12 L59,24 L67,34 L74,45 L79,60 L81,72 L81,86 L76,105 L67,122 L54,136 L44,143 L33,148 L19,152 L-10,152 L-26,147 L-37,141 L-45,134 L-52,128 L-61,115 L-67,98 L-69,87 L-69,74 L-67,58 L-63,47 L-55,33 L-44,21 L-37,15 L-28,9 L-18,5 L-14,3 L-3,1 Z " fill="#000000" transform="translate(820,824)"/>
<path d="M0,0 L21,2 L39,10 L52,19 L61,29 L71,47 L75,59 L76,67 L76,86 L74,96 L68,111 L62,120 L58,126 L50,133 L47,136 L38,142 L26,148 L9,152 L-6,152 L-16,151 L-36,143 L-46,134 L-53,129 L-57,123 L-62,116 L-69,100 L-71,88 L-71,63 L-69,55 L-65,44 L-57,31 L-50,22 L-45,17 L-30,8 L-15,2 Z " fill="#000000" transform="translate(297,826)"/>
<path d="M0,0 L4,1 L4,5 L-1,4 Z " fill="#000000" transform="translate(980,1155)"/>
<path d="M0,0 L5,1 L5,9 L0,23 L-4,34 L-8,42 L-11,52 L-17,64 L-21,76 L-24,82 L-27,84 L-32,84 L-34,79 L-27,60 L-22,49 L-13,28 L-8,14 L-2,2 Z " fill="#000000" transform="translate(155,1263)"/>
<path d="M0,0 L34,1 L44,4 L50,8 L57,16 L61,27 L62,34 L62,47 L59,63 L54,71 L48,78 L38,83 L23,84 L-3,83 L-6,78 L-6,22 L-5,8 L-2,1 Z M14,14 L9,18 L8,24 L6,65 L11,70 L12,71 L30,71 L39,67 L46,60 L48,54 L48,31 L44,21 L38,17 L28,14 Z " fill="#000000" transform="translate(43,1264)"/>
<path d="M0,0 L7,0 L17,1 L31,1 L45,0 L50,2 L51,9 L48,13 L44,14 L26,14 L16,13 L10,16 L10,31 L14,34 L38,34 L43,37 L43,44 L39,47 L14,47 L10,49 L9,52 L8,78 L4,82 L-2,81 L-4,77 L-4,6 L-1,1 Z " fill="#000000" transform="translate(189,1264)"/>
<path d="M0,0 L7,1 L8,5 L2,27 L-1,39 L-7,60 L-10,72 L-13,78 L-17,81 L-23,81 L-27,77 L-34,56 L-37,45 L-39,40 L-40,29 L-45,30 L-53,58 L-59,76 L-62,81 L-64,82 L-70,82 L-75,78 L-80,56 L-84,41 L-91,10 L-91,3 L-89,1 L-81,2 L-79,5 L-75,26 L-69,49 L-68,51 L-64,51 L-59,38 L-55,19 L-49,4 L-45,1 L-39,1 L-34,6 L-30,22 L-26,36 L-22,51 L-18,52 L-15,44 L-9,19 L-4,3 Z " fill="#000000" transform="translate(340,1265)"/>
</svg>
