<?xml version="1.0" encoding="UTF-8"?>
<!-- Generator: visioncortex VTracer 0.6.12 -->
<svg version="1.1" xmlns="http://www.w3.org/2000/svg" width="642" height="675">
<path d="M0,0 L19,0 L31,4 L44,11 L53,20 L55,21 L61,21 L77,13 L86,9 L91,8 L101,8 L117,10 L131,15 L141,24 L146,29 L155,40 L158,46 L163,47 L166,38 L173,30 L182,20 L190,14 L198,9 L209,6 L222,5 L238,6 L254,13 L264,22 L266,26 L268,26 L275,35 L281,49 L283,62 L289,72 L290,76 L290,97 L289,111 L289,126 L288,137 L287,209 L285,277 L284,335 L283,386 L281,395 L274,404 L267,410 L259,417 L253,424 L245,431 L229,447 L224,452 L220,457 L214,462 L209,467 L202,474 L200,474 L198,478 L186,489 L181,495 L174,501 L169,506 L163,513 L156,519 L151,525 L149,525 L148,528 L137,537 L136,539 L134,539 L132,543 L120,554 L107,567 L100,573 L93,581 L84,588 L77,596 L69,603 L57,615 L52,619 L46,620 L7,619 L-13,619 L-80,617 L-100,617 L-105,616 L-150,616 L-194,615 L-219,614 L-253,613 L-281,612 L-289,612 L-294,609 L-295,601 L-295,552 L-292,527 L-289,520 L-290,514 L-293,506 L-292,460 L-291,455 L-289,428 L-288,391 L-286,376 L-287,368 L-287,348 L-286,324 L-285,316 L-285,290 L-286,285 L-286,274 L-284,261 L-279,250 L-269,234 L-255,225 L-245,220 L-232,217 L-228,212 L-223,200 L-214,186 L-209,181 L-198,173 L-188,169 L-173,165 L-169,156 L-166,146 L-160,135 L-155,130 L-153,124 L-151,122 L-138,118 L-128,113 L-124,112 L-111,111 L-105,108 L-103,104 L-100,87 L-92,70 L-86,63 L-71,52 L-64,49 L-54,46 L-49,41 L-41,25 L-28,11 L-18,5 Z M5,9 L-10,12 L-19,17 L-28,24 L-36,33 L-37,35 L-37,42 L-33,46 L-22,50 L-7,58 L-2,62 L6,73 L10,78 L16,77 L22,72 L43,62 L45,52 L50,35 L49,29 L38,18 L27,12 L16,9 Z M212,17 L197,22 L184,33 L178,42 L177,51 L182,55 L197,59 L209,65 L218,72 L219,74 L221,74 L223,78 L228,84 L235,101 L237,103 L244,102 L251,96 L258,88 L266,78 L269,75 L272,69 L273,62 L271,50 L266,40 L259,31 L249,24 L237,18 L226,17 Z M92,19 L83,21 L71,26 L63,33 L59,38 L56,44 L55,51 L55,60 L60,63 L78,68 L88,74 L98,83 L104,90 L110,105 L115,108 L118,105 L122,88 L125,84 L130,75 L141,67 L146,63 L149,56 L148,48 L142,38 L134,30 L124,24 L115,20 L107,19 Z M-46,57 L-58,59 L-72,66 L-80,72 L-86,81 L-89,88 L-91,95 L-91,111 L-88,116 L-77,123 L-70,129 L-68,129 L-66,133 L-60,140 L-55,141 L-47,134 L-41,129 L-29,121 L-10,118 L-4,114 L-1,108 L2,95 L1,87 L-2,81 L-9,72 L-18,64 L-31,59 Z M174,64 L160,66 L151,71 L143,75 L137,85 L132,91 L128,99 L128,110 L134,117 L146,123 L159,135 L166,146 L171,159 L173,167 L178,168 L187,161 L192,156 L203,144 L208,140 L215,132 L220,127 L224,122 L226,116 L226,107 L223,96 L216,83 L206,74 L197,68 L192,66 L180,64 Z M50,70 L40,72 L28,77 L17,87 L9,102 L8,105 L8,112 L12,118 L29,126 L32,129 L34,129 L36,133 L43,141 L49,151 L53,155 L58,152 L61,144 L68,134 L73,130 L78,125 L93,116 L101,112 L102,109 L98,95 L91,86 L89,86 L88,83 L75,75 L65,71 Z M-122,122 L-138,128 L-146,135 L-153,142 L-158,152 L-160,159 L-159,165 L-154,168 L-142,173 L-130,181 L-123,189 L-121,192 L-119,192 L-117,196 L-114,198 L-109,197 L-97,184 L-88,178 L-65,168 L-64,166 L-64,156 L-71,142 L-81,132 L-93,125 L-104,122 Z M107,122 L89,128 L78,136 L69,146 L65,156 L64,161 L64,168 L67,171 L81,175 L93,183 L98,188 L107,199 L112,209 L115,217 L117,223 L119,225 L124,225 L131,217 L137,212 L142,207 L149,201 L155,192 L160,187 L163,181 L163,170 L161,158 L154,144 L149,138 L138,130 L121,123 Z M-13,125 L-29,131 L-38,137 L-45,144 L-50,154 L-51,157 L-51,166 L-47,170 L-35,174 L-24,180 L-22,180 L-22,182 L-14,189 L-7,198 L-3,204 L2,204 L8,195 L11,191 L11,189 L14,188 L14,186 L18,184 L28,177 L40,173 L44,169 L44,161 L37,147 L28,137 L18,131 L8,127 L-1,125 Z M-180,178 L-190,181 L-201,187 L-206,192 L-206,194 L-208,194 L-215,205 L-217,215 L-215,219 L-199,227 L-188,234 L-182,241 L-173,254 L-167,255 L-162,250 L-156,242 L-148,234 L-139,229 L-126,224 L-122,221 L-123,212 L-129,200 L-131,197 L-133,197 L-135,193 L-143,186 L-158,179 L-166,178 Z M-67,179 L-82,184 L-92,190 L-98,196 L-98,198 L-100,198 L-105,209 L-106,212 L-106,220 L-102,223 L-85,228 L-73,236 L-63,246 L-58,254 L-54,255 L-49,252 L-42,244 L-36,239 L-32,235 L-13,225 L-10,222 L-10,213 L-15,203 L-27,190 L-39,183 L-49,180 Z M54,179 L37,184 L24,191 L16,201 L11,210 L10,218 L14,222 L32,229 L47,239 L54,249 L62,265 L65,276 L70,278 L75,275 L95,255 L103,248 L107,242 L108,238 L108,226 L105,215 L101,206 L97,200 L88,191 L79,185 L64,180 Z M-239,230 L-252,235 L-260,240 L-260,242 L-264,244 L-268,249 L-275,264 L-274,271 L-267,275 L-247,276 L-225,276 L-220,277 L-197,278 L-184,278 L-181,276 L-180,267 L-182,259 L-186,253 L-192,246 L-197,241 L-206,235 L-214,232 L-224,230 Z M-118,230 L-132,234 L-142,240 L-152,249 L-159,260 L-160,263 L-160,275 L-157,278 L-140,280 L-119,280 L-92,282 L-68,282 L-63,279 L-62,278 L-62,270 L-66,259 L-72,249 L-77,244 L-92,234 L-104,231 Z M0,232 L-14,233 L-27,243 L-35,250 L-40,257 L-45,272 L-44,279 L-41,282 L-38,283 L10,285 L51,285 L55,282 L56,277 L52,261 L44,250 L34,240 L23,235 L11,232 Z M-268,289 L-271,291 L-273,304 L-274,311 L-275,341 L-278,352 L-277,365 L-278,413 L-279,425 L-280,442 L-281,488 L-283,539 L-283,553 L-284,564 L-284,589 L-282,595 L-281,597 L-269,600 L-250,601 L-224,601 L-185,602 L-151,602 L-146,603 L-129,603 L-105,605 L-68,605 L-20,606 L-18,610 L-16,612 L-6,612 L2,607 L24,607 L38,608 L45,605 L48,601 L49,585 L51,533 L53,471 L55,415 L55,387 L57,341 L58,328 L58,305 L56,300 L49,298 L36,297 L-27,295 L-51,295 L-63,294 L-172,291 L-191,290 L-227,289 Z " fill="#000000" transform="translate(324,29)"/>
<path d="M0,0 L10,0 L16,1 L62,2 L89,3 L104,3 L172,5 L183,5 L205,6 L219,6 L225,9 L226,14 L223,17 L166,16 L128,15 L113,15 L45,13 L14,13 L10,18 L7,68 L6,99 L2,169 L0,216 L-1,225 L-6,231 L-15,238 L-20,237 L-20,222 L-19,214 L-18,188 L-17,182 L-16,136 L-14,94 L-13,83 L-12,46 L-10,17 L-6,2 Z " fill="#000000" transform="translate(98,356)"/>
</svg>
