<?xml version="1.0" encoding="UTF-8"?>
<!-- Generator: visioncortex VTracer 0.6.12 -->
<svg version="1.1" xmlns="http://www.w3.org/2000/svg" width="1359" height="609">
<path d="M0,0 L9,0 L18,2 L21,6 L22,9 L24,42 L27,45 L29,46 L42,47 L57,47 L59,37 L60,22 L63,17 L70,16 L85,15 L97,15 L110,16 L169,17 L198,17 L211,18 L232,18 L260,19 L271,19 L296,21 L307,24 L308,25 L307,37 L309,45 L310,58 L310,105 L311,121 L313,124 L317,125 L349,126 L416,126 L497,128 L506,129 L528,129 L583,130 L636,132 L669,132 L674,131 L679,133 L683,144 L685,162 L686,243 L686,333 L688,338 L690,339 L709,340 L733,343 L750,344 L756,349 L757,352 L757,384 L752,390 L743,392 L718,391 L710,392 L690,392 L687,394 L686,407 L686,415 L684,423 L682,425 L662,425 L652,426 L636,426 L628,425 L579,426 L577,427 L578,431 L587,436 L597,445 L603,455 L606,471 L605,481 L601,495 L598,498 L594,505 L586,512 L583,514 L582,518 L620,519 L641,518 L639,514 L631,507 L624,493 L622,486 L621,477 L622,468 L630,451 L636,444 L650,435 L666,431 L680,431 L690,434 L700,441 L707,449 L712,456 L716,470 L715,483 L707,500 L698,510 L688,516 L688,520 L702,520 L732,521 L778,521 L804,522 L810,527 L809,531 L808,532 L789,533 L756,533 L639,534 L634,533 L607,532 L577,532 L543,531 L465,531 L454,530 L339,530 L295,529 L135,529 L95,527 L69,528 L66,531 L63,543 L56,547 L15,547 L7,544 L6,540 L10,536 L15,534 L52,533 L54,531 L48,528 L-15,526 L-148,526 L-162,525 L-183,525 L-212,526 L-316,526 L-335,525 L-397,525 L-421,524 L-449,524 L-483,523 L-488,521 L-489,516 L-482,512 L-477,511 L-465,511 L-456,512 L-389,512 L-390,506 L-399,497 L-408,483 L-411,475 L-413,466 L-412,452 L-404,436 L-397,429 L-392,424 L-384,419 L-370,411 L-368,410 L-362,410 L-360,411 L-348,413 L-335,421 L-326,432 L-320,441 L-317,447 L-316,454 L-317,473 L-321,486 L-328,493 L-335,501 L-340,506 L-341,510 L-308,510 L-296,513 L-288,513 L-286,512 L-287,508 L-295,503 L-302,495 L-307,483 L-307,458 L-304,447 L-298,438 L-296,435 L-294,435 L-293,432 L-291,432 L-291,430 L-276,421 L-267,415 L-265,414 L-256,415 L-244,417 L-233,423 L-220,435 L-214,444 L-210,450 L-207,461 L-206,472 L-206,482 L-209,491 L-218,500 L-221,505 L-220,510 L-218,511 L-195,512 L-96,513 L-62,514 L-26,514 L-16,515 L9,515 L68,516 L176,516 L214,518 L239,518 L271,520 L274,521 L286,521 L296,520 L306,520 L309,519 L329,519 L336,518 L357,517 L527,517 L529,516 L528,512 L520,506 L511,492 L508,480 L508,468 L511,457 L515,447 L517,440 L527,435 L534,429 L534,426 L532,425 L522,424 L492,423 L445,423 L367,422 L345,422 L340,424 L338,427 L337,462 L335,473 L332,477 L328,478 L302,478 L271,477 L255,476 L230,476 L214,475 L196,475 L166,473 L154,472 L149,469 L148,466 L147,433 L147,422 L142,419 L134,418 L104,417 L88,417 L84,421 L83,443 L84,462 L83,471 L80,474 L7,474 L0,471 L-3,466 L-4,463 L-4,442 L-6,421 L-10,417 L-16,415 L-39,415 L-63,414 L-110,413 L-136,412 L-162,412 L-202,411 L-274,410 L-366,408 L-374,404 L-378,397 L-379,383 L-382,377 L-383,376 L-414,376 L-433,375 L-439,372 L-443,367 L-444,362 L-442,341 L-441,328 L-438,321 L-432,318 L-424,317 L-373,317 L-370,316 L-369,311 L-370,297 L-371,289 L-370,277 L-370,114 L-368,111 L-362,110 L-292,110 L-281,111 L-214,111 L-172,113 L-158,113 L-77,115 L-63,115 L-5,117 L15,118 L54,118 L57,116 L58,97 L58,82 L56,77 L51,75 L40,74 L7,73 L0,71 L-4,67 L-5,64 L-7,33 L-7,21 L-5,3 Z M-409,337 L-415,339 L-418,342 L-418,348 L-413,353 L-410,354 L-385,354 L-374,355 L-271,356 L-262,357 L-223,357 L-172,358 L-134,358 L-103,359 L-78,359 L-56,360 L-37,360 L-5,361 L64,362 L116,363 L130,363 L140,364 L193,364 L210,365 L235,365 L242,366 L271,366 L281,367 L292,367 L300,366 L321,367 L353,367 L367,368 L381,368 L407,369 L415,369 L418,371 L420,377 L425,382 L433,383 L438,380 L441,377 L443,370 L469,370 L487,371 L558,372 L627,374 L650,374 L668,375 L673,373 L679,373 L685,375 L694,376 L728,376 L733,373 L734,367 L732,362 L726,360 L703,360 L671,359 L597,358 L580,358 L563,357 L524,357 L517,356 L494,356 L482,357 L468,355 L443,353 L357,353 L337,352 L284,352 L247,350 L190,350 L165,349 L142,350 L139,349 L118,349 L109,348 L49,347 L22,346 L-52,345 L-73,344 L-108,344 L-125,343 L-149,343 L-192,342 L-220,341 L-294,340 L-333,339 L-399,338 Z " fill="#000000" transform="translate(520,31)"/>
<path d="M0,0 L15,0 L45,1 L49,3 L48,8 L41,11 L38,12 L4,12 L-5,9 L-6,5 L-2,1 Z " fill="#000000" transform="translate(41,561)"/>
<path d="M0,0 L30,0 L37,2 L38,7 L34,11 L29,12 L0,12 L-7,10 L-9,6 L-4,1 Z " fill="#000000" transform="translate(124,561)"/>
<path d="M0,0 L38,1 L42,3 L41,10 L35,13 L-2,13 L-9,10 L-9,5 L-5,2 Z " fill="#000000" transform="translate(206,561)"/>
<path d="M0,0 L29,0 L50,1 L52,3 L51,8 L46,11 L6,12 L-2,10 L-5,8 L-5,3 Z " fill="#000000" transform="translate(283,563)"/>
<path d="M0,0 L23,0 L36,2 L39,5 L38,9 L33,12 L-8,12 L-14,8 L-13,4 L-7,1 Z " fill="#000000" transform="translate(373,563)"/>
<path d="M0,0 L31,1 L38,4 L39,8 L34,11 L29,12 L-5,12 L-14,10 L-15,5 L-11,2 Z " fill="#000000" transform="translate(456,564)"/>
<path d="M0,0 L26,0 L40,1 L44,5 L42,9 L39,11 L12,12 L-8,12 L-15,9 L-14,4 L-9,1 Z " fill="#000000" transform="translate(638,566)"/>
<path d="M0,0 L35,1 L40,4 L39,8 L35,11 L25,13 L-1,13 L-14,11 L-16,9 L-15,5 L-9,1 Z " fill="#000000" transform="translate(732,566)"/>
<path d="M0,0 L21,0 L34,1 L39,4 L38,9 L33,12 L-17,12 L-22,9 L-23,6 L-20,2 L-13,1 Z " fill="#000000" transform="translate(832,567)"/>
<path d="M0,0 L36,0 L46,2 L47,6 L43,9 L39,10 L18,11 L-1,11 L-6,8 L-7,5 L-3,1 Z " fill="#000000" transform="translate(911,569)"/>
<path d="M0,0 L37,0 L47,2 L50,5 L49,9 L44,11 L30,12 L3,12 L-5,10 L-7,8 L-6,3 Z " fill="#000000" transform="translate(994,569)"/>
<path d="M0,0 L33,0 L37,2 L38,6 L34,10 L28,12 L16,13 L-6,12 L-11,9 L-10,4 L-5,1 Z " fill="#000000" transform="translate(1087,569)"/>
<path d="M0,0 L8,0 L12,1 L33,2 L38,4 L39,9 L34,12 L31,13 L-1,13 L-8,10 L-10,6 L-6,2 Z " fill="#000000" transform="translate(1161,569)"/>
<path d="M0,0 L11,0 L20,1 L22,3 L21,8 L16,11 L-15,12 L-23,9 L-24,4 L-19,1 Z " fill="#000000" transform="translate(1249,571)"/>
<path d="M0,0 L21,0 L26,2 L28,4 L27,8 L24,10 L5,11 L-4,8 L-5,3 Z " fill="#000000" transform="translate(1305,572)"/>
</svg>
