<?xml version="1.0" encoding="UTF-8"?>
<!-- Generator: visioncortex VTracer 0.6.12 -->
<svg version="1.1" xmlns="http://www.w3.org/2000/svg" width="1158" height="1107">
<path d="M0,0 L35,0 L34,4 L29,5 L24,6 L10,14 L2,17 L-2,20 L-11,23 L-15,28 L-18,31 L-22,36 L-28,39 L-32,40 L-31,46 L-35,51 L-39,52 L-42,62 L-47,67 L-49,67 L-50,71 L-49,72 L-49,79 L-53,84 L-58,84 L-59,82 L-59,75 L-55,70 L-57,63 L-53,59 L-51,59 L-52,49 L-47,47 L-44,47 L-42,41 L-39,38 L-34,37 L-33,32 L-29,27 L-26,27 L-27,19 L-19,13 L-5,3 Z M13,3 L12,5 L15,5 L15,3 Z " fill="#000000" transform="translate(79,0)"/>
<path d="M0,0 L6,0 L5,3 L0,2 Z " fill="#000000" transform="translate(119,0)"/>
<path d="M0,0 L4,0 L4,2 L0,2 Z " fill="#000000" transform="translate(133,0)"/>
<path d="M0,0 L4,1 L0,1 Z " fill="#000000" transform="translate(147,0)"/>
<path d="M0,0 L5,0 L2,3 L0,2 Z " fill="#000000" transform="translate(173,0)"/>
<path d="M0,0 L7,0 L5,3 L0,2 Z " fill="#000000" transform="translate(186,0)"/>
<path d="M0,0 L7,0 L6,2 L1,2 Z " fill="#000000" transform="translate(200,0)"/>
<path d="M0,0 L6,0 L6,2 L0,2 Z " fill="#000000" transform="translate(221,0)"/>
<path d="M0,0 L10,0 L9,3 L4,4 Z " fill="#000000" transform="translate(241,0)"/>
<path d="M0,0 L7,0 L7,2 L2,3 L0,2 Z " fill="#000000" transform="translate(272,0)"/>
<path d="M0,0 L20,0 L19,2 L13,2 L4,4 Z " fill="#000000" transform="translate(284,0)"/>
<path d="M0,0 L3,0 L3,2 L0,1 Z " fill="#000000" transform="translate(311,0)"/>
<path d="M0,0 L23,0 L20,3 L0,3 Z " fill="#000000" transform="translate(323,0)"/>
<path d="M0,0 L7,0 L6,2 L1,2 Z " fill="#000000" transform="translate(348,0)"/>
<path d="M0,0 L5,0 L5,2 L2,3 L0,2 Z " fill="#000000" transform="translate(362,0)"/>
<path d="M0,0 L22,0 L19,3 L1,3 Z " fill="#000000" transform="translate(376,0)"/>
<path d="M0,0 L8,0 L7,3 L1,2 Z " fill="#000000" transform="translate(399,0)"/>
<path d="M0,0 L10,0 L8,3 L2,3 L0,2 Z " fill="#000000" transform="translate(427,0)"/>
<path d="M0,0 L12,0 L9,3 L3,3 Z " fill="#000000" transform="translate(439,0)"/>
<path d="M0,0 L8,0 L7,3 L0,2 Z " fill="#000000" transform="translate(452,0)"/>
<path d="M0,0 Z " fill="#000000" transform="translate(470,0)"/>
<path d="M0,0 L32,0 L31,3 L1,3 Z " fill="#000000" transform="translate(480,0)"/>
<path d="M0,0 L3,1 L0,1 Z " fill="#000000" transform="translate(520,0)"/>
<path d="M0,0 L33,0 L32,3 L1,3 Z " fill="#000000" transform="translate(531,0)"/>
<path d="M0,0 L34,0 L32,3 L21,3 L15,4 L2,3 Z " fill="#000000" transform="translate(583,0)"/>
<path d="M0,0 L46,0 L45,3 L23,3 L3,4 L0,2 Z " fill="#000000" transform="translate(635,0)"/>
<path d="M0,0 L47,0 L46,3 L38,3 L35,2 L33,3 L9,4 L4,6 L0,2 Z " fill="#000000" transform="translate(687,0)"/>
<path d="M0,0 L85,0 L84,3 L77,4 L52,4 L47,3 L40,4 L31,3 L14,4 L4,5 L0,2 Z " fill="#000000" transform="translate(739,0)"/>
<path d="M0,0 L11,0 L10,3 L4,4 Z " fill="#000000" transform="translate(827,0)"/>
<path d="M0,0 L35,0 L35,2 L33,3 L22,4 L15,5 L5,5 Z " fill="#000000" transform="translate(841,0)"/>
<path d="M0,0 L51,0 L48,4 L37,4 L32,5 L28,4 L19,5 L15,3 L10,4 L5,5 Z " fill="#000000" transform="translate(878,0)"/>
<path d="M0,0 L144,0 L145,5 L155,6 L157,9 L157,14 L161,13 L163,11 L168,11 L171,16 L179,19 L183,23 L188,26 L190,32 L196,34 L200,42 L205,45 L207,55 L209,57 L209,62 L204,65 L201,67 L197,67 L196,61 L198,58 L193,56 L192,50 L193,43 L190,44 L189,48 L185,47 L181,41 L166,27 L148,17 L143,14 L134,11 L131,9 L122,8 L120,7 L108,6 L106,4 L89,4 L86,6 L76,5 L56,5 L53,3 L38,4 L30,5 L16,5 L13,3 L3,4 L0,1 Z " fill="#000000" transform="translate(932,0)"/>
<path d="M0,0 L4,1 L9,5 L14,3 L19,1 L25,3 L40,2 L44,4 L49,3 L52,0 L56,1 L58,3 L63,2 L65,0 L70,1 L73,4 L79,3 L83,0 L89,1 L93,5 L98,4 L101,1 L104,0 L111,5 L116,3 L118,1 L124,1 L130,3 L135,0 L140,0 L146,5 L151,3 L154,1 L159,2 L162,4 L168,3 L173,0 L178,2 L180,3 L186,3 L189,1 L195,2 L198,5 L203,5 L208,1 L214,2 L220,4 L224,0 L229,0 L234,4 L239,4 L243,1 L248,2 L251,5 L256,5 L261,1 L267,3 L268,4 L274,4 L281,1 L288,5 L293,4 L297,1 L301,2 L302,5 L308,5 L312,2 L318,2 L321,4 L329,3 L334,1 L339,4 L345,4 L348,2 L353,2 L356,5 L364,5 L366,2 L371,3 L376,4 L414,4 L421,6 L431,4 L450,4 L459,6 L464,3 L469,4 L470,5 L480,4 L505,4 L509,6 L515,5 L518,3 L523,4 L528,6 L534,3 L540,3 L545,5 L551,4 L552,3 L558,3 L562,6 L567,5 L571,3 L577,4 L583,5 L586,3 L592,3 L602,5 L607,2 L611,4 L616,7 L623,2 L628,4 L629,5 L635,5 L639,3 L646,3 L649,5 L655,5 L659,2 L664,4 L664,6 L671,7 L674,3 L681,3 L686,6 L691,4 L694,2 L698,3 L700,5 L708,5 L711,3 L716,4 L719,7 L724,6 L727,3 L732,3 L735,5 L743,5 L744,4 L750,4 L754,6 L760,6 L764,3 L769,4 L772,7 L777,7 L782,3 L786,4 L789,6 L796,6 L799,4 L804,5 L806,7 L813,7 L816,4 L821,5 L824,7 L833,6 L838,5 L841,7 L876,8 L879,6 L884,6 L887,8 L895,7 L898,5 L903,6 L908,9 L913,8 L920,8 L930,16 L937,17 L945,16 L950,22 L957,25 L960,30 L960,32 L965,34 L970,39 L976,46 L976,50 L982,51 L984,56 L982,62 L987,62 L990,67 L993,76 L996,82 L999,101 L1000,110 L999,122 L1000,125 L998,133 L999,140 L1003,139 L1007,139 L1010,140 L1012,135 L1011,131 L1010,127 L1012,117 L1011,108 L1013,104 L1013,97 L1010,92 L1011,79 L1008,76 L1008,69 L1000,70 L997,68 L998,63 L1006,57 L1011,59 L1011,66 L1010,68 L1016,70 L1017,75 L1016,80 L1018,82 L1018,85 L1020,85 L1020,114 L1018,114 L1018,119 L1020,119 L1020,166 L1019,171 L1020,172 L1020,204 L1018,205 L1017,209 L1020,209 L1020,217 L1018,217 L1018,223 L1020,223 L1020,254 L1016,258 L1017,262 L1020,264 L1020,270 L1019,274 L1020,275 L1020,305 L1017,309 L1017,314 L1018,317 L1020,317 L1019,327 L1020,328 L1020,343 L1018,352 L1019,356 L1018,359 L1018,366 L1020,369 L1019,373 L1018,377 L1020,381 L1019,390 L1020,396 L1016,402 L1015,406 L1017,409 L1018,428 L1020,429 L1020,438 L1019,443 L1020,448 L1018,448 L1017,460 L1018,468 L1019,472 L1018,481 L1020,485 L1019,496 L1020,497 L1020,505 L1016,510 L1017,516 L1020,521 L1019,525 L1018,528 L1018,548 L1019,555 L1020,559 L1018,559 L1016,564 L1017,569 L1018,578 L1018,591 L1016,595 L1017,600 L1017,612 L1016,613 L1016,621 L1017,623 L1017,638 L1018,644 L1016,657 L1017,662 L1015,669 L1016,675 L1017,681 L1016,690 L1015,710 L1015,723 L1016,728 L1016,749 L1013,752 L1015,755 L1015,761 L1013,763 L1014,767 L1015,769 L1016,796 L1014,801 L1003,801 L1004,804 L1014,807 L1015,810 L1013,815 L1014,820 L1015,823 L1015,850 L1013,853 L1003,853 L1003,857 L1010,857 L1015,862 L1014,870 L1015,873 L1016,887 L1015,889 L1015,895 L1016,902 L1013,906 L1003,906 L1003,909 L1010,909 L1014,911 L1015,913 L1015,925 L1016,937 L1015,946 L1015,956 L1009,960 L1015,964 L1016,965 L1015,973 L1015,983 L1016,984 L1016,992 L1014,1006 L1011,1012 L1009,1022 L1007,1031 L1002,1036 L999,1046 L992,1052 L989,1059 L983,1066 L980,1070 L973,1071 L970,1080 L960,1087 L946,1093 L940,1096 L938,1096 L938,1098 L893,1098 L894,1096 L900,1096 L907,1093 L918,1091 L939,1081 L950,1074 L959,1067 L964,1062 L970,1057 L976,1048 L983,1037 L988,1024 L991,1016 L994,1007 L994,1001 L991,1002 L990,1012 L985,1019 L984,1028 L976,1032 L976,1041 L971,1046 L967,1048 L964,1055 L960,1059 L955,1061 L951,1065 L944,1065 L943,1067 L942,1072 L937,1075 L929,1080 L922,1081 L919,1083 L907,1086 L902,1087 L896,1086 L890,1088 L883,1084 L880,1088 L876,1087 L874,1085 L862,1086 L856,1086 L849,1087 L835,1087 L831,1086 L825,1087 L822,1085 L817,1086 L813,1087 L805,1086 L796,1087 L785,1087 L778,1086 L772,1087 L767,1085 L758,1086 L751,1086 L747,1087 L740,1086 L734,1087 L727,1085 L721,1086 L719,1084 L714,1084 L712,1086 L701,1085 L696,1087 L688,1086 L670,1086 L668,1084 L662,1084 L660,1086 L648,1086 L642,1087 L634,1086 L627,1085 L610,1084 L605,1086 L601,1084 L596,1085 L595,1086 L568,1085 L564,1083 L558,1083 L554,1086 L549,1084 L536,1085 L532,1084 L525,1085 L523,1083 L506,1083 L504,1085 L493,1085 L489,1086 L481,1083 L477,1085 L473,1084 L471,1080 L464,1082 L454,1082 L451,1084 L433,1084 L428,1083 L421,1084 L417,1081 L411,1082 L395,1084 L382,1084 L375,1083 L374,1084 L368,1084 L365,1082 L352,1082 L346,1085 L341,1085 L340,1084 L331,1085 L327,1082 L322,1084 L318,1085 L310,1081 L308,1082 L292,1084 L285,1083 L279,1085 L274,1082 L264,1083 L254,1082 L248,1081 L245,1083 L227,1084 L222,1081 L218,1083 L204,1082 L186,1083 L172,1083 L169,1081 L162,1082 L149,1082 L142,1081 L140,1083 L133,1083 L126,1082 L109,1083 L107,1081 L91,1081 L87,1083 L76,1083 L70,1087 L68,1083 L68,1079 L63,1082 L59,1081 L54,1080 L48,1082 L43,1081 L39,1083 L28,1083 L23,1084 L18,1082 L10,1083 L5,1079 L0,1080 L-5,1083 L-11,1082 L-12,1083 L-17,1083 L-24,1078 L-32,1078 L-35,1076 L-45,1074 L-53,1069 L-62,1066 L-70,1060 L-77,1056 L-83,1047 L-88,1042 L-95,1036 L-101,1025 L-107,1013 L-112,997 L-113,984 L-114,982 L-114,920 L-112,917 L-113,912 L-114,911 L-114,853 L-113,851 L-113,827 L-116,820 L-117,811 L-119,809 L-121,812 L-121,817 L-120,821 L-126,826 L-131,824 L-135,821 L-133,816 L-130,814 L-130,808 L-133,804 L-132,796 L-131,789 L-134,785 L-133,780 L-127,776 L-123,777 L-122,784 L-122,790 L-119,796 L-119,805 L-118,805 L-117,788 L-116,782 L-115,775 L-115,762 L-114,748 L-115,715 L-114,707 L-114,698 L-113,693 L-114,691 L-114,667 L-113,662 L-114,661 L-114,652 L-112,641 L-114,635 L-114,595 L-113,572 L-114,558 L-113,549 L-112,532 L-113,530 L-113,514 L-114,509 L-112,506 L-111,495 L-112,489 L-112,472 L-111,465 L-112,442 L-115,432 L-113,422 L-112,415 L-113,412 L-109,397 L-110,382 L-111,380 L-111,373 L-110,367 L-111,364 L-110,344 L-110,321 L-109,315 L-110,308 L-108,301 L-109,294 L-109,277 L-111,268 L-110,250 L-109,247 L-109,225 L-110,220 L-110,201 L-109,194 L-109,172 L-108,140 L-108,111 L-107,110 L-106,91 L-104,80 L-102,71 L-98,61 L-92,51 L-88,46 L-86,41 L-81,40 L-78,40 L-76,33 L-66,24 L-59,18 L-43,10 L-36,6 L-26,6 L-19,2 L-11,3 L-7,5 Z M366,104 L366,109 L369,109 L368,104 Z M1008,145 L1007,165 L1008,172 L1011,171 L1011,161 L1014,156 L1014,149 L1011,145 Z M999,146 L998,148 L998,161 L997,170 L996,177 L997,180 L996,188 L999,193 L1001,194 L1002,192 L1003,179 L1005,175 L1003,169 L1004,162 L1003,148 L1002,146 Z M1008,179 L1007,192 L1009,199 L1011,198 L1012,182 L1011,179 Z M261,186 L261,189 L264,188 L263,186 Z M396,198 Z M389,205 L389,211 L392,213 L393,212 L393,206 Z M998,208 L992,213 L992,216 L998,218 L1001,215 L1001,208 Z M844,218 L842,222 L845,226 L850,225 L849,221 L846,218 Z M998,224 L995,226 L996,235 L997,237 L1001,235 L1002,226 Z M285,234 L280,239 L282,241 L287,240 L289,235 Z M1009,243 L1007,245 L1007,250 L1010,252 L1012,250 L1012,244 Z M995,263 L992,265 L993,269 L998,271 L1000,268 L999,263 Z M439,273 L434,277 L431,283 L424,289 L421,298 L416,302 L411,312 L402,322 L394,337 L388,340 L386,350 L381,352 L379,354 L377,364 L369,368 L368,372 L367,378 L362,381 L358,383 L357,392 L349,402 L345,410 L339,414 L336,423 L330,428 L326,437 L321,441 L318,447 L315,454 L312,457 L309,462 L304,468 L301,474 L294,479 L292,488 L289,491 L282,493 L282,502 L278,506 L272,508 L272,517 L264,526 L262,531 L257,536 L253,540 L251,548 L244,552 L243,553 L242,562 L238,564 L234,568 L229,578 L225,583 L219,594 L212,602 L208,606 L205,614 L196,616 L196,624 L193,629 L193,631 L188,633 L188,640 L184,645 L180,649 L178,656 L173,660 L168,663 L168,669 L165,674 L159,676 L158,686 L151,692 L146,702 L139,708 L137,717 L129,723 L126,731 L119,740 L111,754 L103,759 L101,769 L100,770 L91,771 L89,773 L79,773 L72,775 L70,770 L67,770 L65,773 L59,773 L58,772 L48,772 L43,771 L36,776 L32,776 L30,773 L21,774 L7,774 L6,771 L1,771 L-3,772 L-10,771 L-12,776 L-13,788 L-13,795 L-16,798 L-15,802 L-13,805 L-12,816 L-9,817 L-4,816 L-1,818 L7,818 L11,816 L16,817 L26,817 L33,814 L40,815 L44,816 L55,816 L60,811 L61,808 L65,809 L67,814 L78,816 L97,818 L124,817 L131,819 L146,819 L148,820 L154,820 L156,819 L173,819 L180,818 L184,820 L191,819 L198,818 L202,820 L209,819 L216,818 L218,819 L226,819 L229,817 L235,818 L237,819 L244,819 L247,817 L252,818 L256,820 L261,819 L263,818 L269,818 L271,819 L278,819 L281,817 L288,818 L291,820 L298,819 L305,818 L308,820 L315,819 L318,817 L323,818 L325,820 L332,819 L338,817 L343,820 L350,820 L354,818 L359,819 L362,821 L367,820 L370,818 L375,818 L379,820 L395,819 L404,819 L409,818 L414,820 L420,820 L423,818 L430,819 L436,820 L441,817 L446,818 L451,821 L456,820 L459,818 L464,819 L467,821 L473,821 L475,819 L491,820 L499,819 L505,821 L510,821 L512,819 L518,819 L525,821 L550,820 L555,821 L571,821 L581,820 L591,821 L597,821 L604,822 L608,820 L614,821 L615,822 L621,822 L623,821 L633,821 L641,822 L644,820 L649,821 L650,822 L657,822 L662,820 L669,821 L670,822 L677,821 L678,820 L684,820 L689,822 L694,821 L696,820 L703,820 L705,822 L711,822 L714,820 L720,820 L722,822 L728,822 L731,817 L737,818 L743,822 L748,821 L751,819 L756,820 L759,822 L765,822 L768,820 L773,820 L778,823 L784,822 L788,819 L793,821 L794,822 L800,822 L803,820 L808,820 L811,822 L818,822 L820,820 L827,821 L830,822 L837,822 L844,821 L846,822 L853,822 L856,820 L861,820 L865,823 L872,822 L874,820 L881,819 L883,816 L884,800 L885,790 L882,779 L877,776 L873,774 L858,775 L856,776 L836,776 L831,774 L829,776 L823,776 L820,774 L806,775 L797,776 L784,776 L779,773 L771,769 L763,758 L758,748 L745,731 L743,726 L740,722 L739,718 L734,716 L733,710 L726,702 L716,686 L710,679 L705,669 L699,661 L692,650 L689,643 L685,639 L677,627 L673,619 L668,616 L661,602 L658,599 L653,588 L649,582 L643,575 L637,565 L634,559 L630,554 L628,549 L622,546 L620,539 L615,533 L607,522 L604,515 L601,512 L599,507 L595,502 L591,494 L586,487 L583,482 L573,469 L567,461 L561,450 L556,442 L553,435 L546,429 L541,422 L536,412 L531,406 L525,395 L515,382 L506,368 L497,354 L489,343 L483,333 L478,327 L472,319 L470,312 L466,305 L461,300 L454,290 L450,283 L442,273 Z M997,275 L996,276 L996,283 L1000,284 L1001,277 L1000,275 Z M1008,297 L1006,301 L1010,303 L1013,300 L1012,297 Z M19,311 L18,316 L21,316 L21,311 Z M997,314 L993,317 L994,321 L999,321 L1000,315 Z M396,322 Z M217,328 L213,332 L210,337 L210,342 L214,340 L219,335 L222,332 L221,329 Z M495,333 L496,336 L498,335 L498,333 Z M1007,335 L1006,339 L1010,340 L1011,336 Z M996,340 L998,342 L998,340 Z M1007,351 L1007,354 L1011,353 L1011,351 Z M994,368 L993,369 L993,374 L998,377 L999,376 L999,369 Z M1008,387 L1007,388 L1007,393 L1011,393 L1011,388 Z M997,388 L997,392 L998,388 Z M994,419 L992,421 L993,428 L998,429 L999,428 L999,421 L997,419 Z M151,421 L150,425 L151,426 L157,426 L157,423 Z M1007,438 L1005,440 L1006,446 L1010,446 L1011,440 Z M995,473 L992,475 L994,481 L999,480 L999,474 Z M1005,480 L1005,483 L1008,483 L1008,480 Z M1006,491 L1005,492 L1005,498 L1009,499 L1011,497 L1010,492 Z M997,495 L996,498 L998,498 Z M994,525 L993,526 L993,534 L998,535 L999,533 L999,527 L997,525 Z M1005,531 L1005,536 L1008,536 L1009,533 L1008,531 Z M1005,542 L1004,547 L1006,550 L1010,549 L1011,544 L1009,542 Z M993,546 L994,549 L997,549 L997,546 Z M1005,555 L1004,557 L1005,559 L1008,559 L1007,555 Z M994,575 L993,576 L993,589 L997,587 L998,577 Z M806,578 L803,580 L802,590 L805,595 L809,596 L812,593 L810,585 L811,581 L808,578 Z M1006,584 L1002,588 L1002,597 L1003,599 L1008,598 L1009,595 L1009,586 Z M-38,597 L-39,599 L-37,599 Z M993,614 L994,618 L997,618 L997,614 Z M992,623 L989,626 L991,631 L993,633 L992,641 L995,643 L998,639 L997,633 L997,625 L996,623 Z M1003,640 L1002,642 L1002,649 L1006,650 L1008,648 L1008,641 Z M1003,661 Z M145,670 L143,673 L144,678 L149,677 L150,676 L150,671 Z M993,676 L990,678 L991,682 L993,684 L996,684 L997,678 Z M993,691 L994,694 L996,693 L996,691 Z M1003,693 L1002,695 L1002,701 L1006,702 L1008,700 L1007,693 Z M992,727 L991,732 L992,734 L996,734 L997,729 L996,727 Z M1002,746 L1002,753 L1006,754 L1010,752 L1007,746 Z M991,780 L990,785 L995,786 L996,782 L995,780 Z M991,819 L989,823 L994,824 L995,820 Z M1003,839 L1004,841 Z M991,871 L989,873 L989,876 L994,876 L995,872 Z M1002,888 L1000,893 L1001,897 L1004,898 L1006,897 L1006,891 L1004,888 Z M862,890 L860,891 L861,896 L863,899 L868,898 L869,893 L864,890 Z M1002,940 L1002,950 L1004,951 L1007,949 L1006,943 L1004,940 Z M1002,984 L1003,988 L1005,988 L1005,984 Z M993,990 L992,993 L995,993 L994,990 Z M1003,994 L1001,997 L1000,1004 L1000,1013 L1004,1010 L1007,1002 L1008,997 L1005,994 Z M999,1014 L995,1018 L993,1024 L993,1030 L998,1029 L1001,1023 L1000,1014 Z M986,1042 L984,1046 L988,1046 L988,1042 Z " fill="#000000" transform="translate(138,9)"/>
<path d="M0,0 L3,0 L6,7 L5,15 L6,24 L4,29 L6,34 L4,42 L4,53 L6,55 L5,70 L5,95 L4,96 L4,129 L3,158 L5,167 L4,180 L4,191 L3,209 L4,211 L4,230 L3,239 L2,243 L0,245 L1,249 L3,251 L2,262 L3,263 L3,281 L-1,285 L-6,283 L-8,281 L-7,276 L-7,266 L-8,263 L-8,249 L-9,247 L-9,240 L-5,234 L-6,229 L-9,225 L-7,220 L-8,212 L-9,211 L-9,205 L-5,196 L-10,193 L-9,187 L-6,185 L-6,148 L-5,139 L-4,132 L-5,131 L-5,125 L-4,118 L-6,115 L-6,93 L-3,84 L-4,79 L-6,77 L-6,72 L-4,69 L-5,63 L-6,62 L-5,52 L-6,50 L-6,41 L-1,28 L-6,26 L-7,22 L-4,17 L-4,9 L-5,5 Z " fill="#000000" transform="translate(18,84)"/>
<path d="M0,0 L4,2 L3,6 L0,5 L-1,2 Z " fill="#000000" transform="translate(1141,98)"/>
<path d="M0,0 L3,2 L2,8 L-2,7 L-2,2 Z " fill="#000000" transform="translate(1143,107)"/>
<path d="M0,0 L2,0 L4,15 L4,21 L3,23 L-1,22 L-2,7 Z " fill="#000000" transform="translate(1143,121)"/>
<path d="M0,0 L4,1 L6,4 L6,12 L7,14 L7,33 L3,36 L-2,35 L-5,32 L-4,26 L-3,22 L-5,16 L-5,8 Z " fill="#000000" transform="translate(14,385)"/>
<path d="M0,0 L4,2 L3,7 L2,11 L3,20 L4,26 L4,36 L5,44 L2,47 L-3,48 L-9,45 L-8,40 L-5,36 L-6,31 L-9,26 L-8,21 L-6,16 L-9,11 L-8,5 L-3,1 Z " fill="#000000" transform="translate(16,425)"/>
<path d="M0,0 L5,0 L6,1 L7,13 L8,18 L7,23 L8,32 L7,39 L7,45 L4,48 L-3,47 L-3,41 L-1,38 L-1,33 L-3,30 L-3,2 Z " fill="#000000" transform="translate(12,477)"/>
<path d="M0,0 L4,2 L6,4 L7,20 L8,31 L7,40 L6,47 L3,48 L4,53 L6,56 L6,87 L1,88 L-3,83 L-3,53 L-2,49 L-3,48 L-3,43 L0,39 L-1,34 L-3,33 L-4,24 L-9,23 L-12,21 L-12,17 L-5,12 L-2,2 Z " fill="#000000" transform="translate(12,528)"/>
<path d="M0,0 L6,1 L8,3 L18,3 L21,8 L22,13 L25,14 L27,18 L28,24 L33,27 L36,33 L42,36 L44,43 L48,46 L49,59 L56,61 L59,68 L64,71 L67,77 L70,80 L74,87 L79,95 L84,100 L87,107 L89,114 L92,117 L92,120 L96,122 L105,133 L109,139 L111,141 L113,157 L120,159 L127,168 L133,176 L135,182 L140,185 L143,193 L148,202 L152,207 L154,215 L160,220 L162,225 L162,230 L157,233 L155,234 L149,234 L142,232 L138,233 L131,232 L123,233 L116,234 L110,235 L102,234 L95,233 L91,232 L85,234 L82,230 L77,231 L75,233 L62,233 L60,234 L57,241 L52,240 L50,234 L44,233 L42,231 L38,232 L34,234 L27,231 L22,233 L12,233 L11,234 L-5,234 L-11,230 L-15,232 L-16,233 L-21,233 L-22,232 L-32,233 L-37,232 L-39,233 L-52,233 L-59,234 L-63,230 L-66,230 L-68,233 L-88,232 L-92,233 L-111,233 L-115,230 L-120,231 L-121,232 L-137,233 L-146,227 L-150,225 L-150,220 L-143,210 L-139,205 L-135,199 L-131,191 L-124,183 L-119,174 L-112,165 L-107,156 L-101,147 L-95,139 L-91,137 L-88,128 L-82,120 L-76,111 L-70,101 L-66,94 L-59,84 L-56,79 L-51,76 L-45,60 L-41,58 L-39,53 L-28,37 L-25,31 L-17,20 L-12,12 L-7,7 L-4,2 Z " fill="#000000" transform="translate(567,551)"/>
<path d="M0,0 L4,1 L0,2 Z " fill="#000000" transform="translate(0,568)"/>
<path d="M0,0 L3,0 L4,2 L4,8 L1,13 L3,17 L6,32 L5,34 L5,45 L4,48 L2,49 L3,53 L4,54 L4,62 L2,64 L3,73 L4,77 L4,101 L3,105 L4,109 L0,113 L-5,113 L-8,109 L-8,104 L-6,102 L-6,92 L-8,90 L-8,85 L-6,79 L-8,74 L-9,71 L-7,66 L-5,65 L-6,57 L-8,55 L-7,51 L-5,44 L-3,37 L-7,36 L-6,31 L-6,16 L-3,12 L-5,10 L-5,5 Z " fill="#000000" transform="translate(14,617)"/>
<path d="M0,0 L5,1 L6,2 L7,12 L8,13 L8,34 L6,39 L8,41 L7,45 L2,49 L-3,47 L-7,42 L-5,37 L-2,35 L-2,28 L-6,23 L-6,19 L-2,17 L-2,11 L-5,7 L-4,2 Z " fill="#000000" transform="translate(10,734)"/>
<path d="M0,0 L4,2 L5,4 L5,14 L7,17 L7,35 L5,39 L7,45 L0,51 L-5,48 L-6,44 L-2,39 L0,39 L-5,30 L-5,24 L-4,22 L-4,14 L-5,13 L-5,6 L-2,1 Z " fill="#000000" transform="translate(11,836)"/>
<path d="M0,0 L2,1 L2,3 L0,3 Z " fill="#000000" transform="translate(0,887)"/>
<path d="M0,0 L6,5 L7,12 L8,21 L8,35 L6,39 L7,41 L7,47 L4,51 L6,57 L7,64 L8,74 L7,78 L8,85 L4,90 L0,88 L-4,84 L-4,78 L-3,77 L-3,70 L-4,59 L-3,51 L-4,49 L-4,43 L0,39 L-2,34 L-4,31 L-4,15 L-5,8 L-1,1 Z " fill="#000000" transform="translate(10,888)"/>
<path d="M0,0 L5,1 L6,6 L3,11 L7,27 L8,37 L13,46 L15,49 L14,57 L11,60 L7,59 L4,54 L1,46 L-1,44 L-1,35 L-5,26 L-4,16 L-3,11 L-6,6 L-3,1 Z " fill="#000000" transform="translate(11,980)"/>
<path d="M0,0 L9,0 L11,4 L12,7 L17,11 L25,23 L31,26 L38,33 L41,39 L50,41 L53,44 L53,49 L58,47 L59,46 L64,46 L66,50 L74,50 L78,55 L82,56 L87,53 L91,54 L93,57 L103,58 L110,59 L138,58 L165,58 L171,57 L184,60 L186,55 L191,56 L194,59 L204,58 L206,59 L212,59 L217,57 L224,58 L242,58 L248,60 L255,56 L262,60 L267,58 L268,57 L275,58 L280,59 L293,58 L295,60 L301,59 L304,57 L311,58 L313,60 L318,60 L322,57 L327,58 L335,59 L340,56 L345,57 L349,60 L358,57 L364,58 L367,60 L373,59 L375,58 L382,58 L384,59 L391,59 L394,57 L399,58 L402,60 L407,60 L410,58 L416,58 L419,60 L426,59 L428,58 L434,58 L438,60 L443,60 L447,57 L452,58 L454,60 L460,60 L466,57 L471,60 L487,59 L488,60 L501,61 L516,60 L521,59 L522,60 L557,61 L603,61 L606,64 L72,64 L72,62 L61,61 L44,52 L34,45 L25,39 L18,32 L12,27 L8,21 L5,18 L4,12 L6,7 L-1,5 Z " fill="#000000" transform="translate(22,1043)"/>
<path d="M0,0 L4,1 L4,5 L-1,5 Z " fill="#000000" transform="translate(28,1072)"/>
<path d="M0,0 L5,1 L8,3 L8,5 L-7,5 L-4,2 Z " fill="#000000" transform="translate(672,1102)"/>
<path d="M0,0 L6,2 L10,3 L15,1 L21,1 L24,3 L24,5 L-6,5 L-6,3 Z " fill="#000000" transform="translate(761,1102)"/>
<path d="M0,0 L7,3 L7,5 L-24,5 L-22,2 L-14,1 L-5,2 Z " fill="#000000" transform="translate(709,1102)"/>
<path d="M0,0 L6,1 L8,4 L-4,4 L-3,1 Z " fill="#000000" transform="translate(725,1103)"/>
<path d="M0,0 L6,1 L7,4 L-3,4 L-2,1 Z " fill="#000000" transform="translate(743,1103)"/>
<path d="M0,0 L5,0 L6,4 L-2,4 Z " fill="#000000" transform="translate(795,1103)"/>
<path d="M0,0 L7,1 L8,4 L-4,4 Z " fill="#000000" transform="translate(812,1103)"/>
<path d="M0,0 L6,1 L7,4 L-3,4 L-2,1 Z " fill="#000000" transform="translate(829,1103)"/>
<path d="M0,0 L5,1 L6,4 L-3,4 L-2,1 Z " fill="#000000" transform="translate(884,1103)"/>
<path d="M0,0 L5,1 L9,5 L-24,5 L-21,2 L-2,1 Z " fill="#000000" transform="translate(655,1102)"/>
<path d="M0,0 L6,0 L8,1 L8,3 L-1,3 Z " fill="#000000" transform="translate(847,1104)"/>
<path d="M0,0 L6,0 L9,3 L-2,3 Z " fill="#000000" transform="translate(865,1104)"/>
<path d="M0,0 L7,1 L7,3 L-2,3 Z " fill="#000000" transform="translate(901,1104)"/>
<path d="M0,0 L6,0 L7,3 L-1,3 Z " fill="#000000" transform="translate(935,1104)"/>
<path d="M0,0 L5,0 L5,2 L0,2 Z " fill="#000000" transform="translate(954,1105)"/>
<path d="M0,0 L4,0 L4,2 L-1,2 Z " fill="#000000" transform="translate(973,1105)"/>
</svg>
