<?xml version="1.0" encoding="UTF-8"?>
<!-- Generator: visioncortex VTracer 0.6.12 -->
<svg version="1.1" xmlns="http://www.w3.org/2000/svg" width="1131" height="1095">
<path d="M0,0 L61,0 L58,3 L34,5 L23,8 L13,11 L6,15 L-1,17 L-3,19 L-9,19 L-13,18 L-14,26 L-25,37 L-32,36 L-36,34 L-35,40 L-33,42 L-34,47 L-41,53 L-44,63 L-48,68 L-51,70 L-50,76 L-53,82 L-57,83 L-62,78 L-66,73 L-60,63 L-52,58 L-53,51 L-48,41 L-43,33 L-38,29 L-31,21 L-22,14 L-12,7 L-2,2 Z " fill="#000000" transform="translate(85,0)"/>
<path d="M0,0 L5,0 L5,2 L0,2 Z " fill="#000000" transform="translate(164,0)"/>
<path d="M0,0 L30,0 L30,2 L24,3 L3,3 Z " fill="#000000" transform="translate(175,0)"/>
<path d="M0,0 L45,0 L45,2 L39,3 L17,4 L9,2 L7,3 L1,3 Z " fill="#000000" transform="translate(215,0)"/>
<path d="M0,0 L44,0 L42,3 L32,3 L13,4 L7,3 L1,3 Z " fill="#000000" transform="translate(268,0)"/>
<path d="M0,0 L45,0 L45,2 L38,3 L22,4 L2,4 Z " fill="#000000" transform="translate(319,0)"/>
<path d="M0,0 L33,0 L32,3 L5,4 L0,1 Z " fill="#000000" transform="translate(371,0)"/>
<path d="M0,0 L8,0 L7,3 L1,3 Z " fill="#000000" transform="translate(409,0)"/>
<path d="M0,0 L48,0 L48,2 L46,3 L34,3 L27,4 L3,4 L0,2 Z " fill="#000000" transform="translate(423,0)"/>
<path d="M0,0 L36,0 L35,3 L33,4 L4,4 Z " fill="#000000" transform="translate(474,0)"/>
<path d="M0,0 L9,0 L8,3 L2,3 Z " fill="#000000" transform="translate(514,0)"/>
<path d="M0,0 L150,0 L149,3 L146,4 L133,5 L106,6 L99,2 L97,3 L86,4 L82,6 L71,5 L53,4 L51,3 L35,3 L31,5 L21,4 L4,4 L0,2 Z " fill="#000000" transform="translate(527,0)"/>
<path d="M0,0 L99,0 L98,3 L95,5 L68,5 L62,4 L61,5 L54,4 L53,3 L46,3 L41,4 L25,5 L17,6 L14,4 L9,5 L4,6 L0,1 Z " fill="#000000" transform="translate(681,0)"/>
<path d="M0,0 L271,0 L275,7 L279,5 L283,4 L288,8 L296,11 L301,16 L307,19 L311,23 L311,25 L317,27 L320,32 L324,36 L330,40 L337,48 L342,61 L343,66 L340,68 L334,68 L336,72 L347,71 L347,91 L342,92 L342,98 L347,98 L347,108 L343,112 L347,114 L347,126 L343,128 L342,132 L347,133 L347,143 L343,145 L343,149 L347,150 L347,196 L343,198 L343,202 L347,203 L347,216 L342,216 L343,220 L347,218 L347,234 L341,233 L332,236 L332,241 L336,241 L337,238 L344,238 L347,236 L347,249 L341,249 L342,254 L347,255 L347,285 L342,283 L340,288 L335,287 L333,286 L332,294 L333,296 L342,294 L345,290 L347,290 L347,301 L342,301 L342,308 L347,308 L347,353 L343,352 L340,351 L341,354 L342,366 L345,363 L347,363 L347,391 L345,391 L343,387 L344,373 L342,370 L341,372 L341,381 L342,387 L340,397 L338,399 L338,402 L341,405 L341,417 L342,422 L345,415 L347,415 L347,466 L341,466 L339,475 L343,474 L346,468 L347,468 L347,558 L344,556 L338,555 L339,564 L344,562 L347,561 L347,611 L341,611 L340,615 L347,615 L347,662 L341,662 L339,663 L339,668 L342,669 L347,667 L347,715 L338,715 L339,721 L343,721 L346,718 L347,718 L347,1010 L344,1012 L344,1021 L339,1033 L333,1039 L331,1048 L325,1053 L318,1061 L313,1069 L301,1075 L299,1081 L292,1081 L291,1086 L289,1089 L280,1092 L278,1095 L222,1095 L222,1093 L229,1092 L237,1092 L261,1085 L280,1073 L289,1067 L302,1055 L307,1049 L315,1037 L316,1031 L310,1034 L307,1043 L301,1048 L297,1052 L294,1057 L285,1065 L273,1069 L271,1071 L263,1072 L262,1078 L261,1079 L251,1079 L250,1082 L244,1083 L238,1083 L233,1084 L228,1083 L221,1084 L214,1083 L209,1085 L189,1085 L180,1083 L175,1084 L171,1085 L167,1083 L153,1084 L141,1084 L135,1083 L128,1084 L126,1082 L116,1083 L110,1082 L102,1085 L90,1085 L81,1084 L74,1083 L73,1082 L66,1083 L38,1084 L34,1082 L29,1083 L24,1084 L20,1081 L2,1084 L-15,1084 L-21,1083 L-22,1084 L-28,1084 L-31,1082 L-40,1082 L-53,1084 L-67,1084 L-70,1081 L-75,1082 L-76,1083 L-87,1082 L-94,1083 L-110,1083 L-112,1084 L-118,1084 L-124,1082 L-128,1084 L-138,1083 L-147,1082 L-152,1084 L-159,1084 L-162,1083 L-172,1084 L-176,1083 L-191,1083 L-201,1082 L-204,1084 L-215,1083 L-234,1084 L-236,1082 L-248,1083 L-255,1082 L-257,1083 L-284,1083 L-287,1081 L-292,1081 L-295,1083 L-300,1083 L-303,1081 L-307,1082 L-308,1083 L-338,1083 L-342,1080 L-350,1082 L-353,1081 L-360,1081 L-366,1082 L-372,1081 L-373,1082 L-383,1081 L-391,1081 L-393,1079 L-399,1080 L-403,1082 L-411,1081 L-413,1082 L-430,1083 L-434,1081 L-442,1082 L-446,1080 L-455,1081 L-463,1081 L-469,1082 L-477,1082 L-482,1083 L-488,1078 L-493,1081 L-498,1079 L-504,1080 L-511,1081 L-522,1082 L-526,1081 L-535,1082 L-539,1078 L-544,1079 L-545,1080 L-561,1081 L-589,1081 L-594,1077 L-600,1079 L-602,1080 L-618,1080 L-627,1081 L-632,1080 L-639,1081 L-644,1078 L-651,1078 L-655,1080 L-664,1080 L-670,1078 L-677,1077 L-682,1074 L-691,1072 L-701,1066 L-711,1062 L-715,1056 L-723,1052 L-725,1048 L-730,1045 L-733,1040 L-734,1036 L-738,1034 L-741,1025 L-748,1012 L-751,1006 L-752,997 L-754,991 L-754,957 L-755,948 L-755,925 L-754,914 L-755,908 L-755,884 L-754,871 L-754,823 L-753,820 L-754,818 L-754,808 L-753,801 L-755,787 L-754,778 L-754,756 L-753,749 L-755,742 L-754,704 L-753,701 L-753,693 L-754,689 L-755,666 L-755,576 L-754,554 L-752,547 L-753,533 L-754,527 L-754,514 L-753,512 L-753,490 L-754,485 L-753,483 L-753,449 L-752,438 L-755,426 L-754,411 L-753,403 L-754,397 L-751,391 L-752,364 L-753,355 L-749,355 L-751,350 L-751,268 L-750,261 L-751,254 L-749,252 L-749,246 L-751,243 L-751,220 L-750,217 L-750,190 L-751,162 L-748,145 L-749,138 L-751,135 L-751,125 L-749,123 L-748,107 L-748,93 L-747,85 L-743,80 L-741,73 L-738,68 L-735,61 L-728,51 L-722,44 L-717,39 L-707,30 L-701,27 L-697,24 L-686,23 L-679,18 L-672,14 L-671,13 L-659,14 L-656,12 L-650,13 L-644,15 L-641,14 L-621,13 L-619,12 L-613,12 L-610,14 L-605,14 L-599,11 L-594,15 L-588,14 L-586,12 L-579,12 L-571,13 L-568,12 L-560,12 L-558,13 L-552,13 L-550,12 L-544,12 L-541,14 L-534,13 L-531,11 L-525,12 L-518,13 L-514,11 L-508,11 L-504,14 L-499,13 L-495,11 L-490,12 L-488,14 L-482,14 L-477,11 L-472,12 L-469,14 L-463,13 L-460,11 L-454,12 L-449,15 L-443,11 L-438,11 L-435,14 L-428,14 L-424,11 L-417,13 L-416,14 L-411,14 L-408,11 L-403,11 L-399,15 L-395,14 L-392,12 L-387,12 L-384,14 L-376,14 L-372,11 L-367,11 L-363,14 L-358,14 L-353,11 L-348,12 L-346,14 L-341,14 L-337,11 L-332,12 L-330,14 L-325,15 L-321,12 L-315,12 L-312,14 L-306,14 L-302,11 L-297,12 L-294,15 L-285,13 L-281,12 L-276,15 L-270,15 L-266,12 L-261,13 L-259,14 L-251,14 L-245,13 L-243,15 L-236,15 L-228,12 L-224,15 L-216,15 L-213,13 L-196,15 L-193,17 L-188,16 L-187,15 L-182,15 L-180,17 L-174,17 L-170,15 L-147,15 L-141,17 L-135,17 L-132,15 L-128,16 L-121,17 L-119,15 L-101,15 L-94,14 L-90,16 L-83,15 L-76,14 L-73,16 L-71,19 L-61,14 L-57,15 L-48,15 L-43,13 L-36,17 L-31,16 L-27,13 L-21,14 L-18,16 L-13,15 L-9,12 L-4,14 L-1,16 L4,15 L7,13 L12,14 L16,17 L22,15 L25,13 L31,14 L34,16 L40,15 L41,14 L48,14 L56,15 L59,13 L64,13 L68,17 L72,16 L76,13 L82,13 L87,16 L92,15 L96,13 L101,14 L103,15 L110,15 L112,14 L118,14 L121,17 L126,17 L131,13 L137,15 L141,16 L150,13 L155,14 L158,16 L163,15 L170,14 L175,17 L180,16 L183,14 L190,15 L195,16 L201,14 L208,15 L210,17 L215,16 L219,14 L223,15 L224,18 L234,17 L240,16 L252,19 L255,20 L267,21 L273,25 L278,28 L281,33 L289,33 L293,36 L295,43 L304,44 L307,49 L310,54 L314,59 L317,64 L323,70 L329,82 L331,91 L334,91 L333,84 L330,75 L323,61 L318,53 L310,43 L301,34 L301,32 L296,30 L282,20 L271,15 L254,11 L243,7 L213,6 L210,4 L200,5 L193,4 L189,7 L179,5 L175,6 L159,6 L157,4 L147,5 L140,4 L135,6 L108,6 L105,4 L94,5 L93,4 L87,4 L84,6 L56,6 L51,3 L46,5 L35,4 L27,6 L12,5 L10,6 L4,6 L0,2 Z M-611,33 L-614,37 L-614,40 L-609,39 L-607,37 L-608,33 Z M339,78 L339,81 L342,81 L342,78 Z M333,96 L333,99 L335,99 L334,96 Z M334,122 L332,123 L332,128 L337,128 L338,122 Z M334,134 L332,136 L333,141 L337,142 L337,135 Z M213,147 L212,148 L212,153 L216,154 L218,150 L215,147 Z M334,147 L334,151 L337,150 L336,147 Z M335,197 L333,198 L333,201 L336,201 L337,198 Z M250,204 L247,206 L252,206 L252,204 Z M332,228 L334,232 L336,231 L336,228 Z M342,269 L341,274 L344,274 L343,269 Z M332,280 L333,285 L335,284 L335,280 Z M333,301 L332,305 L335,306 L336,303 L335,301 Z M-541,304 L-545,307 L-545,309 L-541,308 L-539,304 Z M341,320 L340,321 L340,328 L341,330 L344,329 L344,321 Z M332,330 L331,331 L331,339 L330,346 L332,348 L337,348 L338,342 L345,343 L346,340 L343,334 L336,331 Z M332,354 L332,357 L335,356 L334,354 Z M-263,361 L-266,363 L-277,363 L-287,365 L-308,366 L-312,364 L-317,365 L-321,366 L-326,365 L-331,367 L-340,367 L-344,369 L-353,369 L-367,372 L-378,372 L-385,373 L-388,371 L-391,371 L-394,375 L-399,374 L-403,373 L-406,375 L-411,374 L-415,373 L-424,377 L-427,379 L-439,378 L-444,382 L-453,382 L-456,384 L-465,384 L-468,387 L-478,387 L-481,389 L-492,392 L-502,393 L-512,399 L-516,408 L-523,411 L-522,422 L-523,434 L-525,439 L-525,447 L-526,453 L-524,456 L-524,466 L-523,473 L-523,486 L-524,488 L-529,491 L-528,494 L-523,495 L-525,500 L-526,501 L-526,507 L-525,508 L-524,519 L-524,538 L-529,543 L-528,546 L-524,550 L-525,558 L-524,566 L-524,590 L-528,595 L-526,600 L-525,615 L-525,642 L-528,646 L-528,652 L-527,654 L-527,667 L-530,669 L-539,670 L-544,671 L-548,668 L-553,669 L-558,671 L-563,668 L-571,670 L-578,670 L-584,671 L-591,670 L-599,671 L-601,673 L-600,680 L-594,681 L-589,681 L-585,683 L-579,682 L-577,681 L-569,681 L-560,682 L-557,680 L-551,681 L-548,683 L-542,682 L-541,681 L-535,681 L-532,684 L-526,683 L-521,680 L-514,682 L-508,682 L-504,680 L-499,681 L-496,683 L-489,682 L-482,681 L-478,684 L-473,684 L-470,681 L-464,681 L-459,684 L-454,682 L-451,680 L-446,681 L-442,684 L-437,683 L-435,681 L-429,681 L-426,684 L-420,684 L-417,681 L-412,681 L-407,684 L-402,683 L-399,681 L-394,681 L-390,684 L-385,684 L-381,681 L-375,682 L-372,684 L-367,684 L-364,681 L-359,681 L-356,683 L-349,683 L-347,682 L-341,682 L-335,685 L-330,683 L-328,681 L-323,681 L-320,684 L-313,684 L-308,681 L-302,684 L-296,683 L-292,678 L-289,671 L-287,661 L-281,646 L-277,637 L-270,628 L-264,621 L-259,618 L-254,612 L-236,601 L-230,598 L-221,597 L-217,595 L-208,593 L-205,591 L-191,592 L-187,590 L-182,591 L-176,595 L-169,593 L-164,597 L-156,596 L-149,604 L-139,605 L-131,611 L-127,615 L-122,618 L-120,624 L-113,627 L-114,632 L-116,633 L-115,637 L-108,635 L-104,639 L-102,646 L-100,649 L-98,659 L-96,663 L-96,669 L-94,672 L-93,680 L-91,682 L-82,684 L-75,685 L-71,682 L-67,683 L-64,686 L-58,685 L-55,683 L-49,683 L-47,684 L-38,684 L-31,683 L-27,685 L-21,684 L-15,683 L-12,685 L-5,685 L1,683 L6,685 L12,684 L18,682 L24,687 L30,686 L30,684 L37,683 L41,686 L46,685 L49,684 L56,684 L58,685 L66,685 L70,683 L74,684 L78,688 L83,686 L86,683 L90,684 L93,686 L99,686 L103,683 L115,684 L127,677 L135,667 L138,662 L139,661 L140,652 L142,649 L142,641 L143,635 L142,626 L141,625 L141,620 L143,618 L143,602 L144,559 L144,550 L145,543 L144,541 L144,532 L145,525 L145,503 L144,492 L144,478 L146,472 L146,454 L148,451 L147,427 L143,417 L138,408 L130,401 L124,397 L121,395 L111,393 L106,392 L100,392 L94,389 L85,389 L72,386 L70,384 L55,384 L31,379 L5,377 L2,374 L-9,375 L-11,374 L-22,374 L-26,371 L-35,370 L-40,369 L-43,371 L-49,370 L-50,369 L-64,368 L-67,367 L-86,367 L-93,365 L-101,366 L-105,363 L-128,363 L-134,362 L-147,361 L-157,361 L-166,362 L-177,362 L-186,361 L-191,362 L-200,361 L-211,361 L-213,362 L-255,362 Z M332,381 L331,386 L335,387 L335,381 Z M332,390 L329,394 L331,399 L335,401 L336,399 L335,391 Z M340,429 L340,440 L344,441 L345,430 Z M329,432 L327,434 L328,438 L330,450 L334,452 L336,445 L335,433 L334,432 Z M342,448 L339,454 L339,459 L343,460 L344,459 L344,448 Z M331,484 L329,486 L329,496 L331,501 L334,501 L336,493 L343,491 L344,486 L340,486 L335,488 L335,484 Z M341,503 L339,505 L340,510 L344,511 L345,506 L343,503 Z M340,520 L340,527 L344,527 L345,520 Z M331,536 L328,539 L329,548 L332,552 L334,552 L335,538 L334,536 Z M341,539 L339,541 L340,545 L344,544 L343,539 Z M340,574 L338,576 L339,581 L343,579 L344,575 Z M330,590 L328,592 L329,599 L334,600 L335,597 L333,591 Z M341,593 L339,597 L343,599 L344,594 Z M164,595 L164,597 L167,597 L167,595 Z M-180,613 L-195,614 L-202,615 L-204,616 L-213,617 L-216,620 L-224,621 L-227,625 L-234,627 L-238,635 L-246,640 L-253,651 L-256,656 L-259,666 L-262,670 L-262,680 L-263,686 L-263,698 L-260,703 L-258,712 L-254,722 L-251,726 L-248,735 L-241,739 L-236,744 L-232,748 L-230,754 L-225,753 L-221,752 L-217,756 L-208,756 L-204,761 L-200,762 L-195,758 L-190,759 L-189,760 L-180,759 L-175,756 L-167,756 L-155,749 L-144,740 L-136,732 L-132,726 L-126,718 L-122,708 L-121,707 L-119,694 L-119,688 L-121,685 L-122,674 L-127,658 L-132,648 L-136,641 L-147,630 L-159,621 L-171,617 L-174,614 Z M340,628 L338,630 L338,635 L343,634 L343,629 Z M330,640 L328,643 L329,653 L333,653 L334,652 L334,640 Z M341,648 L342,651 L344,649 Z M339,681 L340,685 L342,684 L342,681 Z M53,689 L50,692 L50,697 L52,699 L58,699 L59,693 L55,689 Z M330,691 L328,694 L328,705 L332,709 L334,708 L334,697 L335,692 Z M339,698 L338,703 L340,705 L344,704 L343,699 Z M-559,703 L-566,704 L-571,708 L-577,710 L-579,717 L-582,723 L-586,726 L-584,732 L-585,736 L-583,741 L-578,746 L-576,750 L-569,754 L-564,759 L-559,758 L-553,756 L-548,756 L-535,743 L-531,739 L-531,728 L-533,721 L-538,712 L-542,707 L-550,703 Z M338,733 L338,741 L342,741 L343,740 L343,735 L341,733 Z M329,747 L328,758 L332,760 L333,759 L333,747 Z M340,751 L339,755 L340,757 L343,757 L344,752 Z M339,766 L337,776 L341,777 L344,774 L344,767 Z M338,783 L337,788 L339,795 L342,794 L343,789 L341,784 Z M330,797 L328,800 L328,810 L333,812 L337,819 L338,832 L341,832 L345,826 L344,820 L341,816 L343,810 L344,809 L344,804 L339,799 L337,801 L333,800 L332,797 Z M339,835 L337,838 L337,850 L334,849 L331,845 L328,846 L327,849 L328,863 L332,863 L335,855 L336,855 L336,888 L341,889 L344,876 L344,871 L343,870 L343,862 L344,856 L341,852 L342,848 L343,843 L340,835 Z M327,897 L326,898 L326,904 L330,905 L332,903 L332,898 Z M339,899 L337,902 L338,906 L341,906 L341,900 Z M338,917 L336,920 L337,925 L339,926 L342,923 L342,917 Z M338,933 L335,936 L335,941 L337,943 L340,943 L341,941 L341,934 Z M326,938 L326,942 L330,942 L329,938 Z M-336,945 L-337,947 L-333,953 L-328,952 L-331,947 Z M326,950 L325,955 L326,957 L330,957 L331,953 L329,950 Z M337,955 L336,959 L340,958 L340,955 Z M338,969 L335,973 L337,978 L342,977 L343,976 L343,971 L341,969 Z M327,987 L323,990 L323,996 L324,997 L324,1002 L323,1003 L323,1009 L327,1009 L330,999 L331,996 L330,988 Z M336,988 L335,991 L336,994 L340,993 L340,988 Z M334,1005 L330,1014 L331,1019 L335,1017 L340,1010 L338,1005 Z M58,1007 L57,1011 L62,1010 L61,1007 Z M322,1015 L316,1019 L318,1028 L322,1026 L325,1019 L324,1015 Z M320,1039 L317,1042 L314,1047 L314,1050 L318,1049 L323,1046 L324,1040 Z M311,1053 L311,1056 L313,1056 L313,1053 Z M290,1074 L289,1079 L292,1080 L293,1075 Z " fill="#000000" transform="translate(784,0)"/>
<path d="M0,0 L6,0 L7,5 L5,8 L5,21 L4,32 L0,36 L-5,36 L-6,30 L-4,26 L-4,21 L-8,18 L-7,9 L-2,1 Z " fill="#000000" transform="translate(23,86)"/>
<path d="M0,0 L5,1 L8,17 L7,23 L8,32 L7,38 L7,44 L3,48 L-2,47 L-3,44 L0,38 L-1,33 L-4,29 L-3,24 L-2,22 L-2,13 L-3,6 Z " fill="#000000" transform="translate(19,127)"/>
<path d="M0,0 L5,1 L7,5 L9,30 L6,36 L7,37 L7,46 L4,50 L0,49 L-3,46 L-2,41 L2,37 L0,33 L-2,29 L-1,15 L-2,6 Z " fill="#000000" transform="translate(18,179)"/>
<path d="M0,0 L4,1 L6,7 L7,17 L7,31 L4,35 L-1,34 L-3,32 L-2,16 L-3,9 L-2,2 Z " fill="#000000" transform="translate(19,230)"/>
<path d="M0,0 L4,3 L3,12 L2,18 L3,24 L3,40 L4,41 L4,47 L2,50 L3,55 L3,62 L1,67 L1,71 L4,78 L3,93 L3,99 L1,103 L-2,104 L-6,102 L-6,95 L-5,87 L-6,78 L-5,71 L-3,68 L-5,66 L-5,59 L-2,54 L-4,50 L-6,48 L-5,37 L-7,27 L-5,15 L-7,11 L-6,6 L-2,1 Z " fill="#000000" transform="translate(22,266)"/>
<path d="M0,0 L4,1 L5,5 L4,14 L5,46 L2,50 L-3,49 L-4,48 L-4,41 L-3,37 L-4,34 L-3,6 Z " fill="#000000" transform="translate(20,371)"/>
<path d="M0,0 L1,0 L1,10 L-2,9 L-2,3 Z " fill="#000000" transform="translate(1130,394)"/>
<path d="M0,0 L2,0 L2,2 L0,2 Z " fill="#000000" transform="translate(355,412)"/>
<path d="M0,0 L5,1 L4,14 L3,23 L5,27 L5,47 L3,51 L5,54 L4,60 L4,78 L5,79 L5,98 L0,100 L-4,96 L-5,87 L-5,76 L-7,74 L-6,70 L0,58 L-4,56 L-4,51 L-1,50 L-4,40 L-4,33 L-3,23 L-4,21 L-4,14 Z " fill="#000000" transform="translate(19,423)"/>
<path d="M0,0 L7,3 L13,2 L19,1 L26,4 L31,3 L34,0 L39,1 L41,3 L49,3 L55,1 L59,3 L66,3 L68,2 L74,2 L77,4 L84,3 L87,1 L92,2 L94,4 L108,3 L115,8 L117,16 L117,35 L114,39 L115,49 L115,54 L117,57 L117,75 L113,79 L110,80 L116,81 L115,86 L109,91 L104,92 L90,93 L85,91 L78,92 L75,90 L52,92 L37,92 L33,91 L26,92 L22,89 L17,90 L15,91 L-13,92 L-20,87 L-27,84 L-29,76 L-28,54 L-28,22 L-25,8 L-18,1 L-13,2 L-8,4 Z " fill="#000000" transform="translate(357,425)"/>
<path d="M0,0 L5,0 L8,4 L13,4 L17,1 L22,2 L28,4 L35,1 L40,2 L45,5 L50,5 L51,2 L55,1 L61,4 L67,4 L69,2 L75,2 L82,7 L85,14 L85,33 L81,38 L82,42 L83,44 L85,73 L84,80 L83,86 L74,92 L51,92 L47,93 L40,89 L34,89 L32,91 L22,92 L-7,92 L-11,89 L-19,90 L-23,92 L-38,92 L-44,93 L-50,91 L-59,92 L-67,89 L-73,90 L-78,92 L-90,91 L-97,92 L-100,90 L-106,91 L-112,92 L-116,90 L-125,90 L-129,91 L-137,91 L-143,90 L-144,91 L-151,90 L-154,87 L-162,83 L-164,77 L-163,70 L-164,61 L-164,52 L-166,49 L-166,42 L-162,37 L-163,30 L-171,26 L-172,24 L-172,18 L-170,16 L-164,16 L-162,15 L-159,5 L-153,4 L-146,4 L-143,2 L-118,2 L-108,3 L-106,1 L-101,1 L-98,4 L-93,4 L-89,1 L-82,2 L-73,2 L-66,1 L-60,5 L-55,3 L-50,1 L-45,4 L-40,4 L-36,1 L-28,2 L-25,4 L-21,3 L-18,1 L-11,2 L-9,4 L-4,4 Z M61,30 L59,34 L61,36 L66,35 L65,30 Z " fill="#000000" transform="translate(753,427)"/>
<path d="M0,0 L5,0 L7,2 L6,6 L1,9 L-3,8 L-2,2 Z " fill="#000000" transform="translate(16,526)"/>
<path d="M0,0 L5,1 L6,2 L6,12 L8,29 L5,34 L2,35 L-2,31 L-4,28 L-2,19 L-3,5 Z " fill="#000000" transform="translate(16,539)"/>
<path d="M0,0 L5,1 L6,6 L1,12 L-4,9 L-4,4 Z " fill="#000000" transform="translate(16,577)"/>
<path d="M0,0 L5,1 L6,3 L6,13 L7,19 L7,26 L8,33 L5,36 L1,35 L-4,30 L-3,25 L-3,17 L-5,14 L-4,9 L-2,6 Z " fill="#000000" transform="translate(16,590)"/>
<path d="M0,0 L4,2 L3,10 L3,14 L5,29 L5,45 L2,49 L-4,48 L-6,45 L-6,39 L-4,34 L-6,29 L-6,22 L-4,17 L-4,12 L-6,11 L-6,5 Z " fill="#000000" transform="translate(18,629)"/>
<path d="M0,0 L5,1 L10,6 L20,8 L24,12 L26,17 L33,19 L36,24 L40,35 L40,50 L38,52 L33,53 L34,57 L36,59 L35,64 L32,68 L27,70 L26,77 L22,81 L15,83 L11,86 L2,86 L-2,88 L-8,87 L-11,85 L-20,84 L-25,81 L-33,76 L-39,71 L-45,61 L-48,52 L-49,49 L-49,34 L-47,26 L-41,18 L-37,13 L-27,6 L-18,3 L-5,3 Z " fill="#000000" transform="translate(597,642)"/>
<path d="M0,0 L5,1 L5,16 L6,25 L6,37 L7,44 L3,49 L-3,48 L-5,46 L-4,32 L-5,29 L-5,22 L-4,17 L-6,7 Z " fill="#000000" transform="translate(17,681)"/>
<path d="M0,0 L5,0 L6,5 L6,22 L7,42 L4,47 L-1,48 L-4,45 L-3,39 L-2,34 L-5,29 L-5,8 L-2,2 Z " fill="#000000" transform="translate(16,734)"/>
<path d="M0,0 L4,1 L5,2 L5,22 L6,30 L5,36 L6,44 L3,49 L-2,49 L-3,48 L-3,34 L-5,31 L-5,4 Z " fill="#000000" transform="translate(17,785)"/>
<path d="M0,0 L5,1 L6,6 L5,24 L6,32 L6,46 L3,51 L5,54 L5,76 L6,85 L6,97 L3,102 L4,109 L5,114 L5,127 L6,135 L6,160 L6,163 L9,166 L9,172 L5,175 L0,175 L-1,174 L-1,168 L2,163 L-5,163 L-5,157 L-2,152 L-4,147 L-7,144 L-6,131 L-7,129 L-7,121 L-5,118 L-5,113 L-8,110 L-7,105 L-3,102 L-3,96 L-7,92 L-7,87 L-5,84 L-5,77 L-7,75 L-7,70 L-5,67 L-6,60 L-7,58 L-7,52 L-4,50 L-3,41 L-6,39 L-5,33 L-4,23 L-5,17 L-3,10 L-4,4 Z " fill="#000000" transform="translate(16,837)"/>
<path d="M0,0 L5,1 L7,6 L6,10 L10,12 L13,16 L14,21 L17,22 L19,25 L18,30 L17,34 L25,33 L30,39 L30,41 L34,43 L37,46 L36,51 L35,55 L39,54 L40,50 L45,51 L55,58 L57,62 L66,64 L69,69 L79,69 L81,71 L91,71 L95,75 L100,73 L101,72 L117,73 L123,71 L132,75 L137,73 L138,72 L143,72 L146,75 L153,74 L155,72 L161,73 L167,74 L174,72 L179,73 L183,75 L188,75 L190,73 L196,73 L198,75 L204,75 L211,72 L216,75 L222,74 L224,73 L232,73 L235,75 L241,75 L245,72 L250,73 L251,75 L258,75 L261,73 L275,75 L279,73 L286,74 L288,75 L295,75 L296,74 L309,75 L318,74 L322,75 L347,75 L362,74 L369,75 L373,74 L399,74 L402,75 L452,75 L458,77 L465,74 L479,75 L481,74 L488,74 L493,76 L499,75 L503,74 L512,77 L518,74 L524,75 L531,76 L539,74 L548,76 L558,75 L561,78 L561,79 L67,79 L65,77 L55,74 L41,66 L36,61 L26,54 L25,52 L25,45 L22,42 L15,40 L15,35 L10,33 L7,29 L4,22 L2,20 L1,13 L-4,11 L-5,5 Z " fill="#000000" transform="translate(23,1016)"/>
<path d="M0,0 L5,2 L7,3 L14,3 L17,1 L22,2 L27,4 L27,6 L-6,6 L-2,1 Z " fill="#000000" transform="translate(701,1089)"/>
<path d="M0,0 L5,1 L9,3 L9,5 L-5,5 L-5,3 Z " fill="#000000" transform="translate(611,1090)"/>
<path d="M0,0 L6,2 L7,5 L-5,5 L-4,2 Z " fill="#000000" transform="translate(630,1090)"/>
<path d="M0,0 L5,0 L8,2 L14,1 L21,0 L27,3 L27,5 L-5,5 L-4,2 Z " fill="#000000" transform="translate(647,1090)"/>
<path d="M0,0 L6,3 L7,6 L-7,6 L-2,1 Z " fill="#000000" transform="translate(684,1089)"/>
<path d="M0,0 L4,1 L7,4 L7,5 L-4,5 Z " fill="#000000" transform="translate(770,1090)"/>
<path d="M0,0 L5,1 L9,5 L-4,5 L-2,1 Z " fill="#000000" transform="translate(840,1090)"/>
<path d="M0,0 L7,0 L10,2 L10,4 L-3,4 Z " fill="#000000" transform="translate(592,1091)"/>
<path d="M0,0 L5,0 L7,4 L-2,4 Z " fill="#000000" transform="translate(735,1091)"/>
<path d="M0,0 L6,1 L8,2 L8,4 L-4,4 Z " fill="#000000" transform="translate(753,1091)"/>
<path d="M0,0 L5,3 L5,5 L-4,5 L-2,1 Z " fill="#000000" transform="translate(788,1090)"/>
<path d="M0,0 L5,2 L7,3 L7,5 L-25,5 L-22,2 L-17,1 L-8,3 Z " fill="#000000" transform="translate(824,1090)"/>
<path d="M0,0 L18,1 L32,2 L33,4 L-7,4 L-4,1 Z " fill="#000000" transform="translate(857,1091)"/>
<path d="M0,0 L11,1 L13,3 L-5,3 L-3,1 Z " fill="#000000" transform="translate(916,1092)"/>
<path d="M0,0 L8,0 L10,2 L0,2 Z " fill="#000000" transform="translate(900,1093)"/>
<path d="M0,0 L5,1 L5,3 L-5,3 L-4,1 Z " fill="#000000" transform="translate(938,1092)"/>
<path d="M0,0 L5,0 L5,2 L-1,2 Z " fill="#000000" transform="translate(954,1093)"/>
<path d="M0,0 L7,1 L8,3 L-7,3 L-6,1 Z " fill="#000000" transform="translate(973,1092)"/>
<path d="M0,0 L5,1 L5,2 L0,2 Z " fill="#000000" transform="translate(991,1093)"/>
</svg>
