<?xml version="1.0" encoding="UTF-8"?>
<!-- Generator: visioncortex VTracer 0.6.12 -->
<svg version="1.1" xmlns="http://www.w3.org/2000/svg" width="1113" height="1107">
<path d="M0,0 L235,0 L236,2 L267,10 L287,16 L297,19 L334,32 L359,43 L372,49 L384,54 L395,60 L418,73 L438,85 L447,92 L457,99 L466,106 L478,115 L486,122 L497,131 L504,138 L512,145 L544,177 L553,188 L564,200 L571,210 L582,225 L598,248 L609,265 L618,281 L625,292 L628,302 L636,317 L644,337 L652,357 L659,378 L666,399 L667,415 L671,425 L673,432 L674,444 L676,447 L676,670 L674,675 L668,701 L659,731 L652,750 L647,763 L638,784 L631,799 L619,825 L612,836 L608,844 L596,862 L586,877 L575,893 L573,893 L571,897 L560,911 L552,921 L548,926 L541,932 L536,939 L531,944 L527,948 L522,953 L512,963 L501,972 L497,976 L495,976 L494,979 L483,988 L472,997 L461,1005 L449,1014 L437,1022 L432,1026 L412,1038 L393,1049 L383,1054 L368,1062 L350,1070 L342,1074 L312,1086 L294,1092 L280,1096 L255,1103 L241,1106 L240,1107 L109,1107 L110,1105 L126,1105 L192,1101 L215,1097 L232,1094 L252,1090 L260,1087 L272,1084 L293,1077 L310,1071 L316,1069 L337,1061 L344,1058 L354,1054 L373,1044 L389,1036 L402,1029 L413,1022 L433,1010 L446,1000 L460,990 L470,982 L479,975 L491,964 L499,957 L508,949 L513,943 L520,937 L527,929 L534,921 L539,916 L546,907 L548,907 L550,903 L560,891 L570,877 L580,863 L588,850 L601,829 L610,813 L616,803 L622,790 L629,771 L637,752 L646,725 L653,701 L658,682 L663,654 L665,643 L668,625 L671,595 L672,542 L671,525 L671,514 L670,498 L665,465 L662,448 L657,426 L655,414 L651,401 L637,358 L629,340 L618,312 L610,296 L597,272 L589,260 L577,241 L570,231 L562,220 L551,207 L542,196 L535,188 L523,176 L516,168 L504,156 L496,149 L484,138 L476,131 L468,125 L465,123 L465,121 L460,119 L444,107 L427,96 L417,90 L412,87 L393,76 L376,67 L371,63 L355,55 L342,49 L329,44 L308,36 L283,28 L257,21 L242,18 L229,16 L217,14 L188,9 L170,7 L85,7 L65,9 L63,10 L33,13 L9,16 L-11,21 L-23,22 L-31,25 L-43,28 L-62,35 L-72,38 L-99,49 L-123,60 L-139,68 L-161,80 L-185,95 L-190,97 L-191,100 L-205,109 L-217,118 L-228,127 L-241,138 L-252,147 L-265,159 L-270,165 L-278,172 L-284,178 L-286,178 L-288,183 L-301,196 L-313,212 L-324,225 L-332,236 L-338,245 L-343,251 L-348,260 L-355,270 L-364,284 L-370,295 L-373,300 L-376,307 L-382,317 L-387,328 L-395,347 L-399,358 L-408,384 L-413,407 L-418,425 L-423,448 L-429,488 L-430,492 L-432,520 L-433,559 L-432,571 L-431,584 L-429,611 L-423,654 L-416,685 L-413,696 L-411,705 L-405,725 L-396,752 L-388,771 L-381,787 L-371,806 L-363,824 L-357,836 L-344,853 L-336,865 L-321,887 L-313,897 L-301,911 L-292,921 L-284,931 L-258,957 L-252,962 L-247,967 L-236,976 L-228,983 L-217,992 L-207,1002 L-195,1011 L-184,1018 L-178,1022 L-164,1031 L-150,1038 L-136,1046 L-110,1058 L-97,1063 L-88,1067 L-78,1071 L-58,1078 L-37,1085 L-17,1090 L-11,1092 L17,1097 L41,1101 L59,1103 L81,1104 L94,1105 L102,1105 L105,1107 L-4,1107 L-4,1105 L-13,1104 L-48,1095 L-68,1088 L-79,1084 L-88,1081 L-119,1068 L-144,1056 L-163,1046 L-178,1037 L-193,1027 L-202,1022 L-215,1012 L-226,1004 L-237,995 L-246,988 L-257,979 L-274,963 L-286,952 L-295,943 L-295,941 L-298,940 L-303,933 L-309,928 L-317,918 L-326,907 L-335,895 L-345,882 L-351,873 L-359,862 L-365,852 L-374,839 L-382,823 L-386,817 L-388,812 L-395,800 L-400,787 L-404,779 L-410,765 L-416,749 L-422,728 L-425,717 L-430,699 L-433,690 L-436,676 L-437,675 L-437,434 L-435,428 L-430,411 L-425,394 L-416,368 L-407,343 L-401,331 L-397,320 L-387,301 L-377,282 L-362,258 L-357,251 L-353,244 L-342,228 L-339,223 L-332,214 L-321,200 L-314,192 L-307,184 L-298,174 L-284,159 L-279,154 L-269,145 L-254,131 L-243,122 L-231,112 L-218,102 L-203,91 L-187,80 L-175,73 L-162,65 L-142,54 L-130,48 L-102,35 L-92,31 L-84,28 L-66,21 L-45,14 L-20,7 L-3,2 L0,2 Z " fill="#000000" transform="translate(437,0)"/>
<path d="M0,0 L19,0 L31,5 L36,8 L41,11 L50,22 L57,33 L61,41 L61,43 L70,43 L89,40 L122,37 L132,36 L169,34 L233,34 L264,35 L280,37 L300,41 L326,49 L333,53 L344,62 L352,72 L356,83 L360,97 L368,129 L377,165 L376,176 L372,188 L365,202 L358,212 L345,228 L329,244 L318,252 L308,260 L298,267 L287,273 L284,276 L268,284 L253,292 L239,299 L218,309 L202,317 L183,326 L155,338 L147,342 L137,345 L116,353 L103,358 L94,361 L69,370 L51,376 L40,380 L30,383 L9,389 L-10,395 L-23,399 L-64,410 L-80,414 L-92,416 L-103,419 L-130,424 L-149,428 L-170,431 L-186,434 L-199,435 L-208,437 L-225,439 L-241,441 L-253,443 L-282,447 L-311,449 L-354,450 L-383,449 L-417,446 L-435,443 L-450,439 L-461,436 L-473,431 L-488,423 L-495,417 L-501,409 L-505,399 L-510,382 L-518,352 L-522,339 L-524,331 L-527,319 L-528,314 L-528,301 L-525,288 L-519,276 L-510,263 L-503,255 L-498,249 L-490,242 L-479,233 L-462,222 L-453,216 L-438,206 L-425,199 L-411,191 L-402,186 L-383,176 L-367,168 L-353,162 L-338,155 L-325,149 L-311,143 L-306,141 L-304,138 L-303,122 L-299,109 L-294,96 L-289,88 L-277,76 L-266,69 L-251,62 L-232,57 L-212,57 L-203,60 L-194,63 L-177,72 L-160,82 L-153,88 L-147,88 L-138,85 L-124,81 L-103,76 L-89,72 L-84,64 L-77,50 L-69,38 L-58,26 L-48,18 L-42,14 L-37,10 L-26,5 L-11,1 Z M194,53 L160,54 L153,55 L109,58 L90,61 L73,63 L66,65 L64,67 L61,79 L56,89 L47,99 L37,108 L23,117 L13,123 L5,127 L-5,133 L-20,142 L-20,146 L-19,147 L9,149 L17,147 L21,149 L113,150 L133,151 L137,152 L136,156 L127,162 L115,169 L99,177 L93,181 L91,184 L91,192 L92,196 L93,209 L85,208 L73,206 L50,203 L3,198 L-53,193 L-65,193 L-76,204 L-88,210 L-105,210 L-112,206 L-116,207 L-124,213 L-138,224 L-146,230 L-151,235 L-161,244 L-172,253 L-185,264 L-186,267 L-190,269 L-198,276 L-209,285 L-221,296 L-228,304 L-233,304 L-235,296 L-238,284 L-243,279 L-268,283 L-282,284 L-290,286 L-301,286 L-301,281 L-296,279 L-280,267 L-265,256 L-254,248 L-243,240 L-225,227 L-211,217 L-196,207 L-191,203 L-180,195 L-178,191 L-180,189 L-191,189 L-197,188 L-220,187 L-237,186 L-256,184 L-271,180 L-287,172 L-296,163 L-300,162 L-318,170 L-336,178 L-360,189 L-374,196 L-397,207 L-409,214 L-420,220 L-442,233 L-453,240 L-458,244 L-472,255 L-487,268 L-495,276 L-500,285 L-504,292 L-506,301 L-506,309 L-502,317 L-493,325 L-474,334 L-453,340 L-425,344 L-355,344 L-295,340 L-267,337 L-232,332 L-206,328 L-186,325 L-167,321 L-155,319 L-142,315 L-132,313 L-107,308 L-74,300 L-57,295 L-33,289 L-14,283 L-2,279 L11,275 L40,265 L51,261 L61,258 L72,254 L89,248 L106,242 L121,235 L137,229 L157,221 L172,215 L182,210 L199,202 L215,194 L231,185 L253,172 L266,164 L274,158 L287,149 L296,142 L309,131 L317,124 L324,117 L332,104 L336,95 L336,85 L332,78 L324,71 L312,65 L296,60 L274,56 L247,53 Z M-103,97 L-116,101 L-126,104 L-129,106 L-128,110 L-113,125 L-109,129 L-104,127 L-100,113 L-97,100 L-98,98 Z M1,112 L-1,113 L-1,117 L3,117 L2,112 Z " fill="#000000" transform="translate(564,172)"/>
<path d="M0,0 L9,1 L14,4 L15,6 L15,13 L9,24 L4,32 L-2,32 L-10,28 L-26,23 L-37,22 L-39,21 L-37,17 L-27,13 L-13,6 L-2,1 Z " fill="#000000" transform="translate(757,507)"/>
<path d="M0,0 L23,0 L31,2 L47,8 L55,17 L60,22 L60,31 L57,41 L52,47 L45,46 L34,40 L21,35 L11,32 L-25,32 L-33,28 L-35,25 L-34,19 L-27,6 L-24,4 Z " fill="#000000" transform="translate(815,512)"/>
<path d="M0,0 L11,0 L25,2 L38,6 L47,12 L55,20 L58,25 L62,27 L59,33 L57,33 L55,37 L50,41 L36,48 L17,52 L-3,54 L-7,55 L-15,55 L-19,51 L-27,35 L-33,30 L-50,22 L-52,20 L-51,16 L-36,11 L-23,7 L-13,3 Z " fill="#000000" transform="translate(697,535)"/>
<path d="M0,0 L16,0 L52,4 L66,11 L73,17 L80,25 L86,34 L89,43 L89,56 L83,57 L75,53 L68,50 L50,47 L46,46 L21,46 L18,47 L7,48 L-7,53 L-12,50 L-20,37 L-25,32 L-24,23 L-20,14 L-16,8 L-5,1 Z " fill="#000000" transform="translate(902,543)"/>
<path d="M0,0 L11,0 L20,2 L31,6 L42,13 L52,25 L55,31 L56,35 L56,46 L53,59 L45,66 L28,72 L23,70 L16,56 L4,40 L0,37 L-18,30 L-29,27 L-42,26 L-45,24 L-45,19 L-39,10 L-28,5 L-10,1 Z " fill="#000000" transform="translate(815,554)"/>
<path d="M0,0 L13,1 L25,7 L32,14 L36,21 L36,27 L33,30 L30,31 L-3,32 L-33,32 L-70,30 L-79,28 L-79,25 L-74,22 L-61,19 L-32,10 L-10,3 Z " fill="#000000" transform="translate(619,560)"/>
<path d="M0,0 L9,0 L28,3 L48,5 L59,9 L67,15 L70,19 L71,30 L69,39 L64,43 L47,48 L20,51 L5,53 L-22,53 L-28,49 L-32,40 L-34,33 L-34,24 L-29,15 L-24,11 L-7,2 Z " fill="#000000" transform="translate(747,589)"/>
<path d="M0,0 L12,0 L14,1 L36,4 L46,8 L51,13 L54,18 L54,31 L50,44 L47,47 L38,50 L11,50 L-19,48 L-28,47 L-44,46 L-50,43 L-55,37 L-56,30 L-52,19 L-47,11 L-40,8 L-25,5 L-10,2 Z " fill="#000000" transform="translate(513,592)"/>
<path d="M0,0 L17,0 L35,1 L43,4 L52,10 L56,14 L59,24 L58,40 L55,45 L53,46 L24,48 L-34,47 L-52,46 L-55,44 L-59,31 L-59,24 L-55,16 L-47,9 L-38,5 L-30,3 L-6,1 Z " fill="#000000" transform="translate(643,597)"/>
<path d="M0,0 L11,0 L34,3 L51,8 L62,15 L66,21 L67,26 L67,37 L64,45 L58,52 L48,58 L33,65 L17,71 L10,72 L1,66 L-8,52 L-13,47 L-25,41 L-39,38 L-42,36 L-43,27 L-41,20 L-37,13 L-27,7 L-16,2 Z " fill="#000000" transform="translate(927,599)"/>
<path d="M0,0 L6,0 L7,5 L0,19 L-5,23 L-24,22 L-39,20 L-57,18 L-67,15 L-67,11 L-58,9 L-48,8 L-19,3 Z " fill="#000000" transform="translate(435,608)"/>
<path d="M0,0 L4,1 L6,7 L6,54 L5,82 L4,133 L1,141 L-5,148 L-11,155 L-19,161 L-32,169 L-48,177 L-62,184 L-83,192 L-109,200 L-126,204 L-135,206 L-160,211 L-173,213 L-187,216 L-199,217 L-218,221 L-245,224 L-259,225 L-261,226 L-291,228 L-316,231 L-339,232 L-346,233 L-388,235 L-430,235 L-480,234 L-523,232 L-555,230 L-570,228 L-618,223 L-658,217 L-685,212 L-701,209 L-707,207 L-721,205 L-734,201 L-744,199 L-756,195 L-765,193 L-791,185 L-812,176 L-820,172 L-836,164 L-849,155 L-855,150 L-860,145 L-868,136 L-873,126 L-875,118 L-875,81 L-874,18 L-873,16 L-869,17 L-866,22 L-860,31 L-848,42 L-833,52 L-816,61 L-794,70 L-770,79 L-739,88 L-722,92 L-709,95 L-671,103 L-657,105 L-606,112 L-580,114 L-560,116 L-535,117 L-508,118 L-475,119 L-405,119 L-398,120 L-325,119 L-289,116 L-258,114 L-237,111 L-216,109 L-193,106 L-159,100 L-134,95 L-116,91 L-108,89 L-78,80 L-58,73 L-38,64 L-25,55 L-20,51 L-10,37 L-6,27 L-4,16 L-3,2 Z " fill="#000000" transform="translate(1020,610)"/>
<path d="M0,0 L15,0 L39,2 L50,5 L61,12 L66,18 L70,22 L69,27 L61,35 L52,49 L46,60 L42,66 L37,67 L15,63 L-4,59 L-22,55 L-27,53 L-36,51 L-43,45 L-46,35 L-46,28 L-39,18 L-31,9 L-22,3 L-11,1 Z " fill="#000000" transform="translate(304,626)"/>
<path d="M0,0 L6,0 L7,3 L-2,14 L-9,21 L-14,29 L-21,28 L-34,23 L-52,13 L-60,6 L-59,2 L-56,1 L-9,1 Z " fill="#000000" transform="translate(245,632)"/>
<path d="M0,0 L25,0 L34,2 L46,9 L59,20 L61,24 L61,34 L59,41 L49,46 L30,51 L14,55 L-6,58 L-13,60 L-25,60 L-55,46 L-60,41 L-59,33 L-56,23 L-50,14 L-41,9 L-25,4 Z " fill="#000000" transform="translate(846,639)"/>
<path d="M0,0 L14,1 L25,2 L36,6 L57,12 L62,17 L66,25 L66,40 L63,48 L59,54 L43,66 L30,66 L-32,61 L-52,58 L-56,54 L-59,37 L-58,29 L-50,19 L-43,11 L-31,6 L-25,4 Z " fill="#000000" transform="translate(434,641)"/>
<path d="M0,0 L16,0 L29,2 L49,5 L60,8 L68,12 L75,18 L78,23 L79,27 L79,36 L78,45 L75,55 L70,59 L17,60 L-31,58 L-42,57 L-45,54 L-46,33 L-44,24 L-39,16 L-29,8 L-24,6 L-11,3 Z " fill="#000000" transform="translate(561,652)"/>
<path d="M0,0 L22,0 L32,2 L39,6 L44,14 L47,24 L48,41 L46,47 L39,50 L6,54 L-16,55 L-21,56 L-51,57 L-64,57 L-67,55 L-68,51 L-68,38 L-67,27 L-61,17 L-52,11 L-37,7 L-23,3 L-12,1 Z " fill="#000000" transform="translate(727,654)"/>
</svg>
