<?xml version="1.0" encoding="UTF-8"?>
<!-- Generator: visioncortex VTracer 0.6.12 -->
<svg version="1.1" xmlns="http://www.w3.org/2000/svg" width="804" height="555">
<path d="M0,0 L5,1 L6,3 L6,14 L0,26 L-7,34 L-13,45 L-16,49 L-21,59 L-25,67 L-29,77 L-29,87 L-24,91 L-13,95 L5,99 L24,105 L41,109 L50,110 L63,114 L77,116 L89,119 L101,123 L111,125 L123,128 L146,133 L161,138 L171,140 L184,144 L196,147 L225,156 L240,158 L249,161 L253,165 L253,176 L249,203 L247,211 L245,226 L240,247 L237,257 L234,266 L230,276 L226,279 L203,278 L187,273 L173,268 L167,268 L163,269 L164,276 L167,286 L174,287 L182,297 L189,305 L196,312 L203,320 L211,330 L219,338 L226,346 L237,359 L243,367 L250,375 L255,379 L263,391 L267,398 L275,405 L283,414 L290,422 L296,426 L317,427 L331,429 L350,430 L355,434 L356,436 L357,463 L356,474 L353,480 L349,482 L310,483 L299,484 L283,484 L272,482 L256,480 L248,473 L240,464 L231,457 L222,449 L208,438 L192,422 L179,413 L169,405 L162,398 L158,396 L151,397 L145,404 L140,416 L137,425 L133,434 L129,440 L121,445 L108,450 L89,461 L83,466 L69,476 L62,482 L53,487 L43,486 L27,482 L19,479 L13,478 L2,478 L-7,479 L-17,483 L-32,486 L-40,486 L-50,478 L-59,469 L-73,461 L-85,456 L-98,450 L-105,447 L-111,440 L-117,425 L-125,412 L-129,406 L-145,389 L-148,385 L-148,350 L-151,330 L-153,324 L-157,302 L-157,295 L-154,286 L-144,272 L-138,262 L-131,254 L-126,246 L-118,230 L-115,223 L-111,214 L-111,208 L-115,204 L-117,203 L-126,202 L-131,200 L-142,198 L-152,196 L-161,192 L-178,189 L-191,185 L-193,182 L-193,163 L-191,154 L-187,140 L-187,133 L-192,127 L-195,125 L-212,121 L-220,119 L-231,117 L-241,113 L-250,111 L-269,105 L-278,102 L-291,100 L-304,95 L-324,91 L-335,87 L-354,83 L-364,80 L-374,78 L-378,75 L-379,67 L-379,55 L-376,46 L-370,30 L-368,21 L-365,16 L-361,14 L-335,16 L-325,20 L-316,22 L-312,25 L-293,29 L-276,32 L-250,38 L-233,42 L-224,44 L-203,50 L-178,54 L-173,56 L-164,58 L-147,63 L-131,66 L-125,69 L-117,71 L-92,78 L-67,83 L-63,84 L-53,84 L-48,78 L-44,70 L-41,60 L-36,50 L-30,41 L-23,30 L-13,16 L-5,5 Z M-7,196 L-25,199 L-36,203 L-48,209 L-65,218 L-70,223 L-78,232 L-89,246 L-97,256 L-102,265 L-106,278 L-111,289 L-116,309 L-117,317 L-116,326 L-116,349 L-112,365 L-104,382 L-97,395 L-87,407 L-83,411 L-76,419 L-68,426 L-59,433 L-50,438 L-33,444 L-18,448 L-10,449 L4,450 L16,450 L44,445 L52,441 L60,439 L76,429 L84,422 L93,415 L101,403 L113,389 L119,381 L126,361 L129,342 L129,315 L127,302 L123,289 L119,278 L112,264 L107,251 L101,241 L93,233 L88,228 L79,220 L69,214 L48,205 L39,201 L20,197 L16,196 Z " fill="#000000" transform="translate(414,35)"/>
<path d="M0,0 L0,3 Z " fill="#000000" transform="translate(202,219)"/>
<path d="M0,0 L7,1 L15,6 L20,12 L21,21 L18,33 L16,36 L4,41 L-5,40 L-15,35 L-18,30 L-19,19 L-15,8 L-7,2 Z " fill="#000000" transform="translate(421,343)"/>
</svg>
