<?xml version="1.0" encoding="UTF-8"?>
<!-- Generator: visioncortex VTracer 0.6.12 -->
<svg version="1.1" xmlns="http://www.w3.org/2000/svg" width="1140" height="1125">
<path d="M0,0 L11,0 L10,12 L9,66 L8,91 L8,178 L7,267 L6,402 L6,479 L5,536 L5,576 L4,605 L3,714 L2,788 L1,813 L1,826 L2,837 L1,846 L0,895 L-1,931 L-2,1014 L-3,1050 L-3,1075 L-4,1091 L-5,1097 L-6,1097 L-6,494 L-5,488 L-5,447 L-3,225 L-3,174 L-2,166 L-2,87 L-1,34 L-1,4 Z " fill="#000000" transform="translate(6,0)"/>
<path d="M0,0 L4,1 L0,1 Z " fill="#000000" transform="translate(579,0)"/>
<path d="M0,0 L28,0 L27,2 L10,3 L0,1 Z " fill="#000000" transform="translate(633,0)"/>
<path d="M0,0 L3,1 Z " fill="#000000" transform="translate(672,0)"/>
<path d="M0,0 L9,0 L7,2 L0,1 Z " fill="#000000" transform="translate(679,0)"/>
<path d="M0,0 L52,0 L51,2 L40,3 L11,2 L2,2 Z " fill="#000000" transform="translate(706,0)"/>
<path d="M0,0 L13,0 L10,3 L1,2 Z " fill="#000000" transform="translate(762,0)"/>
<path d="M0,0 L16,0 L14,2 L5,3 L0,2 Z " fill="#000000" transform="translate(780,0)"/>
<path d="M0,0 L343,0 L343,5 L339,4 L283,3 L6,3 L0,1 Z " fill="#000000" transform="translate(797,0)"/>
<path d="M0,0 L1,4 Z " fill="#000000" transform="translate(1139,66)"/>
<path d="M0,0 L1,0 L1,911 L0,916 L1,920 L1,943 L0,945 L-1,1041 L-14,1041 L-13,1037 L-12,992 L-12,956 L-11,867 L-11,837 L-10,779 L-9,740 L-9,675 L-8,617 L-7,605 L-7,480 L-6,452 L-6,384 L-5,328 L-4,222 L-4,185 L-3,166 L-3,100 L-2,26 L-1,3 Z " fill="#000000" transform="translate(1139,84)"/>
<path d="M0,0 L10,0 L20,2 L41,4 L55,7 L68,9 L76,11 L96,14 L112,19 L124,22 L124,27 L117,37 L109,50 L103,58 L95,70 L87,82 L76,96 L71,103 L66,108 L59,116 L51,123 L46,128 L28,146 L20,153 L5,163 L-15,175 L-30,181 L-41,184 L-48,187 L-64,192 L-83,193 L-90,197 L-102,211 L-107,216 L-118,229 L-122,236 L-124,261 L-127,267 L-132,273 L-138,278 L-150,294 L-158,302 L-164,302 L-168,300 L-175,300 L-183,303 L-191,310 L-197,317 L-205,324 L-212,331 L-219,339 L-226,347 L-231,351 L-239,361 L-251,374 L-260,385 L-267,392 L-274,400 L-290,417 L-298,427 L-303,432 L-312,441 L-319,449 L-333,464 L-345,477 L-352,484 L-361,495 L-377,511 L-384,519 L-396,532 L-411,548 L-420,558 L-430,569 L-437,577 L-449,590 L-458,600 L-467,610 L-474,618 L-474,631 L-473,633 L-473,642 L-478,651 L-485,658 L-493,668 L-501,676 L-508,684 L-511,686 L-521,685 L-530,685 L-537,689 L-538,695 L-533,697 L-527,700 L-510,701 L-501,695 L-492,685 L-486,678 L-478,671 L-475,669 L-445,668 L-441,667 L-423,666 L-417,665 L-379,664 L-360,663 L-347,661 L-335,659 L-326,659 L-309,655 L-294,653 L-287,651 L-259,647 L-252,644 L-241,645 L-230,643 L-224,643 L-222,647 L-227,657 L-236,671 L-248,689 L-258,705 L-257,708 L-248,710 L-187,714 L-164,715 L-139,716 L-120,716 L-98,718 L-33,718 L1,719 L23,719 L54,720 L108,719 L113,722 L114,742 L112,775 L110,785 L102,797 L91,807 L78,815 L70,819 L56,823 L39,826 L15,825 L10,823 L0,821 L-12,815 L-24,808 L-38,797 L-43,792 L-49,785 L-60,776 L-69,770 L-83,763 L-98,759 L-107,757 L-122,757 L-137,759 L-148,762 L-164,769 L-176,776 L-188,787 L-193,791 L-200,799 L-217,810 L-229,815 L-242,819 L-257,821 L-267,821 L-288,818 L-298,814 L-314,806 L-325,797 L-337,786 L-341,781 L-349,774 L-357,768 L-369,761 L-384,755 L-395,753 L-420,752 L-438,756 L-453,762 L-464,769 L-473,776 L-490,793 L-503,803 L-519,811 L-534,816 L-549,818 L-569,817 L-591,811 L-605,803 L-611,799 L-616,799 L-622,806 L-631,818 L-632,823 L-626,832 L-613,845 L-595,857 L-583,862 L-569,865 L-560,867 L-540,865 L-525,861 L-506,852 L-501,848 L-490,839 L-482,831 L-477,826 L-466,817 L-461,813 L-448,807 L-440,804 L-419,800 L-399,800 L-378,805 L-359,815 L-346,825 L-331,840 L-326,845 L-311,856 L-296,863 L-280,868 L-266,869 L-247,868 L-229,863 L-213,855 L-204,849 L-189,835 L-181,827 L-167,817 L-152,810 L-132,805 L-106,805 L-92,808 L-75,815 L-59,825 L-49,834 L-41,841 L-37,846 L-29,853 L-14,863 L1,869 L14,872 L23,873 L45,873 L66,868 L79,862 L88,856 L102,845 L105,840 L109,839 L111,842 L111,886 L109,893 L102,903 L93,912 L81,921 L70,927 L55,932 L37,935 L19,934 L3,931 L-12,925 L-23,919 L-36,909 L-48,898 L-53,893 L-60,887 L-70,880 L-80,875 L-101,868 L-122,867 L-137,868 L-147,871 L-152,873 L-158,875 L-175,884 L-185,893 L-195,901 L-207,912 L-217,918 L-236,926 L-253,930 L-269,930 L-283,928 L-299,923 L-309,919 L-319,913 L-330,905 L-338,898 L-350,886 L-362,877 L-382,868 L-398,864 L-413,864 L-431,865 L-447,870 L-463,878 L-474,886 L-486,897 L-495,905 L-510,915 L-521,921 L-540,926 L-542,927 L-566,927 L-583,924 L-593,920 L-609,911 L-624,900 L-624,898 L-628,896 L-639,885 L-652,875 L-668,867 L-679,863 L-685,861 L-698,860 L-715,860 L-730,864 L-739,867 L-756,875 L-765,882 L-775,891 L-783,898 L-791,905 L-805,913 L-814,917 L-821,920 L-839,923 L-854,923 L-875,920 L-896,910 L-911,899 L-920,889 L-926,881 L-928,876 L-928,826 L-923,825 L-912,837 L-907,842 L-897,848 L-880,857 L-872,860 L-852,863 L-843,863 L-822,860 L-801,851 L-789,843 L-772,827 L-762,817 L-756,813 L-746,807 L-738,803 L-721,798 L-716,797 L-687,797 L-683,798 L-674,798 L-666,791 L-656,781 L-651,776 L-635,759 L-629,751 L-623,746 L-620,746 L-618,741 L-614,735 L-602,723 L-597,718 L-587,708 L-577,695 L-566,681 L-562,676 L-561,672 L-566,666 L-573,665 L-594,668 L-605,670 L-620,672 L-638,675 L-653,676 L-661,679 L-677,681 L-693,684 L-727,688 L-747,689 L-748,690 L-816,690 L-819,689 L-823,673 L-826,665 L-826,647 L-823,628 L-821,621 L-820,610 L-814,588 L-809,570 L-802,550 L-793,529 L-783,508 L-778,499 L-771,488 L-763,475 L-755,463 L-744,450 L-732,436 L-723,425 L-713,414 L-706,406 L-695,397 L-686,389 L-676,383 L-666,376 L-652,368 L-626,355 L-615,346 L-613,342 L-611,319 L-610,297 L-606,276 L-600,264 L-590,254 L-582,248 L-565,240 L-542,235 L-526,234 L-498,237 L-482,243 L-474,247 L-466,259 L-463,269 L-461,284 L-460,302 L-460,328 L-461,345 L-465,373 L-470,385 L-478,401 L-490,415 L-501,423 L-507,426 L-518,428 L-536,428 L-545,425 L-556,421 L-562,421 L-561,425 L-555,430 L-545,436 L-535,441 L-534,442 L-534,447 L-541,456 L-550,466 L-558,477 L-567,489 L-579,505 L-588,520 L-596,536 L-600,544 L-606,560 L-610,567 L-615,580 L-621,588 L-640,588 L-653,587 L-657,588 L-676,588 L-677,587 L-676,578 L-673,574 L-669,563 L-661,547 L-655,532 L-651,523 L-641,493 L-635,472 L-634,466 L-634,451 L-636,446 L-639,446 L-642,465 L-647,485 L-651,495 L-655,503 L-660,517 L-674,548 L-678,558 L-681,565 L-685,572 L-693,588 L-697,597 L-696,601 L-690,602 L-644,599 L-603,598 L-592,597 L-576,597 L-521,595 L-510,600 L-501,603 L-494,602 L-487,595 L-482,589 L-477,584 L-472,578 L-470,578 L-468,574 L-460,566 L-451,555 L-439,543 L-430,532 L-418,520 L-411,512 L-406,506 L-401,501 L-389,488 L-382,481 L-374,471 L-365,462 L-358,454 L-347,442 L-336,431 L-330,423 L-314,407 L-307,399 L-298,389 L-291,381 L-276,365 L-266,354 L-259,346 L-250,336 L-244,330 L-244,326 L-250,327 L-261,331 L-288,338 L-309,344 L-323,346 L-332,350 L-349,355 L-355,356 L-365,360 L-374,363 L-392,367 L-410,374 L-429,381 L-439,387 L-449,392 L-454,391 L-457,386 L-452,368 L-450,357 L-448,350 L-447,340 L-447,311 L-445,302 L-443,300 L-429,299 L-410,294 L-394,293 L-387,291 L-371,288 L-358,286 L-337,283 L-321,280 L-305,278 L-299,276 L-284,275 L-263,271 L-247,268 L-237,266 L-230,262 L-220,257 L-200,246 L-191,239 L-178,231 L-168,224 L-147,221 L-139,215 L-134,211 L-125,200 L-116,189 L-114,186 L-115,179 L-121,170 L-127,152 L-128,145 L-128,137 L-126,126 L-121,111 L-116,102 L-105,89 L-95,76 L-81,63 L-71,55 L-63,48 L-55,41 L-47,34 L-34,24 L-28,19 L-26,20 L-25,26 L-20,26 L-20,19 L-23,16 L-7,4 Z " fill="#000000" transform="translate(976,147)"/>
<path d="M0,0 L28,1 L32,5 L34,21 L35,37 L40,45 L42,46 L59,47 L105,48 L136,46 L175,44 L195,42 L197,41 L221,38 L237,36 L250,33 L261,32 L274,29 L282,28 L282,33 L271,46 L261,58 L252,70 L247,74 L240,83 L234,88 L220,95 L210,101 L201,101 L183,97 L163,97 L144,100 L128,107 L120,111 L110,118 L107,119 L105,123 L91,136 L78,146 L66,152 L54,157 L41,160 L27,161 L12,160 L7,158 L-2,156 L-15,151 L-30,141 L-43,129 L-53,116 L-54,113 L-54,84 L-53,70 L-53,60 L-51,44 L-49,40 L-20,40 L-4,39 L-1,36 L-2,22 L-3,13 L-3,3 Z " fill="#000000" transform="translate(104,800)"/>
<path d="M0,0 L2,0 L3,4 L19,4 L27,5 L40,4 L57,5 L58,7 L0,7 Z " fill="#000000" transform="translate(0,1118)"/>
<path d="M0,0 L11,0 L12,2 L-4,2 Z " fill="#000000" transform="translate(77,1123)"/>
</svg>
