<?xml version="1.0" encoding="UTF-8"?>
<!-- Generator: visioncortex VTracer 0.6.12 -->
<svg version="1.1" xmlns="http://www.w3.org/2000/svg" width="1128" height="1140">
<path d="M0,0 L1128,0 L1128,1140 L318,1140 L317,1064 L314,1053 L309,1044 L302,1035 L282,1015 L276,1007 L273,999 L272,993 L272,861 L273,764 L275,762 L370,762 L434,763 L452,761 L466,755 L505,716 L513,709 L517,704 L525,697 L541,681 L549,674 L560,663 L565,658 L577,647 L580,646 L584,648 L591,656 L604,669 L604,671 L607,672 L611,677 L618,683 L625,691 L635,701 L642,709 L649,717 L649,719 L653,721 L661,729 L666,734 L678,747 L698,767 L703,768 L711,761 L718,753 L724,748 L728,743 L733,738 L758,713 L763,708 L781,690 L789,683 L796,676 L801,671 L803,666 L799,660 L770,631 L763,623 L746,606 L746,604 L742,602 L727,586 L717,576 L710,568 L704,563 L697,555 L686,545 L673,535 L654,527 L638,524 L601,523 L532,522 L470,522 L410,520 L402,514 L397,508 L392,504 L385,496 L376,487 L376,485 L373,484 L367,476 L359,469 L354,464 L337,447 L330,439 L313,422 L308,417 L302,410 L294,403 L286,395 L279,387 L274,382 L268,375 L257,367 L251,365 L242,365 L233,367 L225,373 L219,379 L214,391 L214,406 L220,417 L229,426 L236,434 L241,439 L246,445 L247,449 L247,617 L248,622 L248,639 L249,651 L245,653 L246,659 L246,693 L244,698 L233,704 L226,712 L221,721 L220,731 L222,740 L227,749 L235,756 L243,760 L245,763 L246,780 L246,817 L244,994 L240,1010 L236,1016 L231,1021 L223,1028 L219,1032 L213,1039 L208,1044 L203,1051 L199,1064 L197,1140 L0,1140 Z M956,215 L956,221 L960,222 L961,218 L959,215 Z M500,372 L486,375 L472,382 L462,390 L457,394 L449,405 L446,412 L442,425 L441,430 L441,442 L444,458 L452,474 L461,484 L470,492 L477,496 L488,500 L497,502 L506,502 L521,500 L534,495 L542,490 L551,483 L561,469 L566,458 L569,442 L569,433 L566,419 L562,408 L553,394 L542,384 L532,378 L521,374 L509,372 Z M850,716 L842,723 L827,738 L821,743 L816,748 L800,764 L792,771 L785,779 L778,785 L772,792 L767,796 L760,804 L750,814 L745,819 L731,833 L725,838 L720,843 L667,896 L667,898 L664,899 L655,912 L654,915 L653,938 L653,958 L656,962 L701,962 L712,961 L716,963 L721,962 L723,960 L724,948 L724,938 L728,931 L751,908 L759,901 L774,887 L784,878 L791,870 L801,861 L808,854 L808,852 L812,850 L830,832 L838,825 L848,815 L854,815 L861,822 L868,830 L878,840 L883,845 L894,856 L901,864 L910,874 L916,879 L923,887 L938,902 L945,910 L962,927 L968,934 L974,939 L981,947 L989,956 L994,961 L1000,966 L1091,966 L1092,963 L1090,959 L1085,955 L1080,949 L1074,944 L1067,936 L1058,927 L1051,919 L1034,902 L1031,898 L1029,898 L1027,894 L998,865 L991,857 L986,851 L981,847 L974,839 L958,823 L953,818 L943,808 L937,801 L932,797 L924,787 L918,782 L913,776 L905,769 L898,761 L887,750 L882,745 L873,736 L866,728 L854,716 Z " fill="#000000" transform="translate(0,0)"/>
<path d="M0,0 L4,1 L6,3 L7,8 L7,143 L8,182 L8,196 L7,202 L6,235 L1,238 L-3,233 L-4,212 L-5,201 L-2,194 L-3,179 L-2,60 L-1,1 Z " fill="#000000" transform="translate(258,460)"/>
<path d="M0,0 L5,1 L17,15 L30,28 L37,36 L52,52 L61,61 L68,69 L85,86 L89,91 L97,97 L105,102 L113,104 L141,104 L212,106 L242,106 L250,111 L255,116 L256,120 L253,125 L246,131 L241,137 L233,144 L199,178 L191,185 L163,213 L158,218 L155,220 L147,221 L45,220 L16,220 L2,219 L-2,215 L-3,207 L-3,177 L-2,81 L-2,34 L-1,1 Z " fill="#000000" transform="translate(276,479)"/>
<path d="M0,0 L5,2 L6,3 L6,244 L9,252 L16,261 L29,273 L40,285 L45,293 L48,307 L49,377 L48,379 L-50,379 L-50,324 L-49,305 L-45,295 L-38,285 L-29,275 L-22,269 L-15,261 L-9,252 L-6,242 L-5,182 L-4,12 L-3,2 Z " fill="#000000" transform="translate(258,761)"/>
</svg>
