<?xml version="1.0" encoding="UTF-8"?>
<!-- Generator: visioncortex VTracer 0.6.12 -->
<svg version="1.1" xmlns="http://www.w3.org/2000/svg" width="1101" height="1239">
<path d="M0,0 L8,0 L17,1 L42,2 L44,3 L50,3 L55,2 L75,2 L88,1 L215,2 L304,2 L324,3 L339,2 L346,3 L359,1 L362,3 L498,3 L573,4 L707,4 L774,5 L800,5 L827,6 L878,6 L891,5 L916,6 L949,6 L955,7 L971,6 L985,6 L988,7 L1010,7 L1017,6 L1022,8 L1023,9 L1023,33 L1022,112 L1022,139 L1021,219 L1020,405 L1020,418 L1019,426 L1019,513 L1018,537 L1018,681 L1017,771 L1017,851 L1016,995 L1016,1017 L1013,1021 L1000,1020 L964,1020 L905,1019 L871,1019 L827,1018 L760,1018 L754,1019 L745,1018 L715,1018 L697,1017 L672,1017 L669,1018 L641,1018 L635,1017 L627,1018 L616,1018 L607,1017 L482,1017 L473,1016 L355,1016 L329,1015 L301,1016 L227,1015 L104,1015 L85,1014 L6,1014 L-2,1012 L-7,1009 L-9,1002 L-10,971 L-9,913 L-9,849 L-8,814 L-8,712 L-7,664 L-7,571 L-6,481 L-6,421 L-5,388 L-5,335 L-4,254 L-4,111 L-3,6 Z M24,16 L15,17 L12,21 L11,31 L11,48 L10,61 L9,126 L9,167 L8,232 L8,396 L7,411 L7,494 L6,521 L6,561 L5,605 L5,741 L4,743 L5,760 L4,836 L4,866 L3,946 L3,996 L6,1002 L9,1004 L36,1005 L163,1005 L179,1006 L184,1007 L187,1006 L291,1006 L294,1007 L342,1007 L386,1008 L392,1007 L405,1008 L413,1008 L418,1009 L420,1008 L433,1008 L438,1009 L443,1008 L506,1008 L526,1009 L547,1008 L578,1009 L640,1009 L647,1010 L654,1009 L691,1010 L694,1009 L730,1009 L738,1010 L832,1010 L862,1011 L997,1011 L1002,1008 L1004,1003 L1005,919 L1005,876 L1006,739 L1006,619 L1007,597 L1007,551 L1008,518 L1007,508 L1008,490 L1008,390 L1009,339 L1009,243 L1010,197 L1010,172 L1011,107 L1011,31 L1010,24 L1007,21 L1004,20 L979,20 L947,19 L860,19 L835,18 L808,19 L801,18 L646,18 L636,17 L566,17 L548,18 L536,17 L407,17 L393,16 Z " fill="#000000" transform="translate(45,37)"/>
<path d="M0,0 L8,0 L26,4 L42,10 L50,14 L64,24 L67,27 L67,29 L69,29 L77,39 L83,47 L88,59 L93,69 L96,81 L97,101 L95,114 L93,127 L85,143 L81,149 L72,160 L64,169 L50,179 L36,186 L17,191 L9,192 L-3,192 L-18,191 L-34,186 L-48,179 L-61,171 L-68,166 L-77,155 L-84,146 L-90,134 L-92,132 L-100,131 L-119,130 L-124,125 L-127,118 L-131,117 L-152,117 L-163,116 L-177,116 L-204,115 L-234,115 L-241,112 L-248,104 L-256,98 L-260,94 L-265,95 L-276,103 L-284,110 L-290,109 L-295,104 L-302,97 L-310,91 L-315,92 L-325,101 L-330,106 L-333,109 L-338,109 L-350,96 L-354,93 L-361,94 L-376,107 L-379,110 L-384,110 L-398,102 L-416,91 L-419,87 L-418,81 L-409,72 L-403,67 L-399,62 L-389,55 L-326,55 L-318,56 L-269,56 L-233,57 L-198,57 L-191,58 L-153,58 L-111,59 L-94,59 L-88,55 L-80,43 L-73,34 L-68,28 L-59,21 L-53,16 L-45,12 L-32,6 L-24,3 L-3,1 Z M31,78 L21,82 L16,88 L15,90 L15,103 L18,108 L28,117 L40,117 L49,111 L53,104 L54,100 L54,92 L50,85 L44,80 L39,78 Z " fill="#000000" transform="translate(726,117)"/>
<path d="M0,0 L41,0 L49,1 L56,0 L145,0 L181,1 L217,1 L222,2 L269,2 L274,1 L307,2 L345,2 L356,3 L367,2 L389,3 L404,6 L420,14 L425,18 L430,21 L438,29 L444,38 L449,47 L454,60 L459,80 L463,90 L466,100 L469,107 L472,117 L481,145 L488,168 L495,188 L504,215 L507,221 L517,223 L536,228 L547,232 L561,241 L572,250 L577,255 L583,262 L590,273 L595,282 L600,298 L602,307 L602,342 L601,377 L601,503 L599,519 L597,521 L580,522 L552,522 L548,524 L546,528 L546,539 L545,558 L545,592 L544,612 L537,619 L530,623 L467,622 L459,616 L456,612 L455,534 L453,523 L450,521 L357,520 L336,520 L321,519 L295,520 L253,520 L244,519 L182,519 L150,518 L131,518 L124,519 L121,518 L98,518 L71,517 L65,518 L17,518 L-1,517 L-70,517 L-78,519 L-79,520 L-80,527 L-80,603 L-83,613 L-89,619 L-107,620 L-139,620 L-147,619 L-154,619 L-163,615 L-166,612 L-169,604 L-170,521 L-171,518 L-174,517 L-191,516 L-203,517 L-206,516 L-219,515 L-223,512 L-224,489 L-224,315 L-222,296 L-216,277 L-206,258 L-198,249 L-193,246 L-186,238 L-177,232 L-167,227 L-157,223 L-141,219 L-128,216 L-125,213 L-119,197 L-106,159 L-101,144 L-96,129 L-93,120 L-90,110 L-87,103 L-83,89 L-79,77 L-68,44 L-62,34 L-48,19 L-41,13 L-32,8 L-23,3 L-12,1 Z M79,37 L75,38 L57,39 L11,39 L-4,40 L-14,43 L-22,49 L-31,60 L-37,77 L-47,105 L-49,113 L-54,126 L-56,129 L-58,138 L-65,157 L-70,174 L-77,195 L-79,203 L-81,209 L-81,216 L-78,218 L-73,219 L26,220 L87,220 L142,221 L187,221 L233,222 L338,222 L387,223 L433,223 L454,222 L457,219 L458,215 L458,205 L452,187 L447,170 L443,159 L440,150 L438,140 L435,131 L431,121 L426,104 L418,80 L415,70 L408,58 L400,49 L390,44 L384,44 L382,43 L358,42 L323,42 L310,41 L293,41 L275,42 L273,41 L245,41 L238,40 L196,40 L178,39 L126,39 L104,38 L87,39 Z M-139,337 L-151,342 L-160,347 L-172,359 L-177,370 L-179,376 L-180,384 L-180,396 L-178,405 L-174,414 L-169,422 L-163,429 L-154,435 L-141,441 L-132,442 L-121,442 L-108,439 L-98,434 L-92,431 L-85,422 L-80,414 L-76,405 L-74,398 L-74,378 L-78,366 L-86,355 L-96,345 L-113,337 Z M496,341 L486,343 L477,347 L467,354 L459,363 L454,371 L450,387 L450,397 L452,409 L460,425 L464,429 L469,434 L477,439 L488,444 L509,446 L522,443 L538,433 L544,428 L551,417 L556,402 L556,385 L552,373 L546,362 L539,355 L534,350 L519,342 L511,342 L508,341 Z " fill="#000000" transform="translate(368,374)"/>
<path d="M0,0 Z " fill="#000000" transform="translate(961,583)"/>
<path d="M0,0 L38,0 L51,7 L55,13 L57,21 L57,29 L53,38 L45,45 L39,48 L14,50 L11,52 L10,56 L10,74 L7,80 L3,82 L-2,81 L-3,80 L-3,68 L-2,48 L-2,4 Z M27,11 L14,12 L11,15 L11,33 L13,36 L38,36 L43,31 L44,29 L44,22 L41,15 L30,11 Z " fill="#000000" transform="translate(44,1122)"/>
<path d="M0,0 L6,1 L9,6 L11,15 L17,19 L18,20 L18,27 L10,32 L9,56 L10,64 L18,69 L18,77 L11,79 L1,77 L-3,72 L-5,67 L-5,33 L-6,30 L-12,26 L-12,20 L-7,16 L-4,4 Z " fill="#000000" transform="translate(231,1126)"/>
<path d="M0,0 L7,0 L18,4 L23,10 L27,14 L31,27 L31,34 L28,46 L22,56 L15,60 L9,63 L-4,63 L-14,59 L-20,55 L-25,46 L-27,37 L-27,25 L-23,16 L-17,8 L-7,1 Z M-2,12 L-7,15 L-13,23 L-14,29 L-14,37 L-11,45 L-7,51 L-5,52 L3,52 L10,50 L15,44 L18,34 L16,22 L12,15 L3,12 Z " fill="#000000" transform="translate(139,1143)"/>
<path d="M0,0 L7,0 L9,2 L9,10 L3,14 L-3,17 L-7,25 L-8,28 L-9,58 L-14,62 L-19,61 L-22,57 L-23,51 L-23,12 L-21,2 L-14,1 L-10,3 L-3,2 Z " fill="#000000" transform="translate(204,1143)"/>
</svg>
