<?xml version="1.0" encoding="UTF-8"?>
<!-- Generator: visioncortex VTracer 0.6.12 -->
<svg version="1.1" xmlns="http://www.w3.org/2000/svg" width="1104" height="1119">
<path d="M0,0 L29,1 L30,0 L452,0 L451,2 L421,3 L333,4 L325,5 L307,5 L264,6 L166,8 L150,8 L131,9 L66,10 L1,12 L-75,13 L-91,14 L-141,15 L-164,15 L-202,16 L-212,17 L-214,18 L-226,20 L-239,23 L-249,27 L-255,30 L-265,36 L-279,45 L-292,56 L-304,68 L-317,85 L-320,92 L-329,113 L-335,133 L-338,150 L-339,175 L-339,309 L-340,313 L-339,315 L-338,338 L-338,371 L-337,413 L-337,454 L-336,513 L-335,712 L-335,839 L-334,967 L-332,991 L-326,1016 L-320,1032 L-315,1042 L-310,1051 L-302,1062 L-291,1075 L-280,1086 L-263,1098 L-246,1106 L-231,1112 L-227,1114 L-211,1117 L-210,1119 L-253,1119 L-258,1116 L-274,1107 L-284,1099 L-295,1090 L-308,1077 L-317,1066 L-323,1056 L-332,1040 L-339,1022 L-341,1014 L-342,1013 L-342,108 L-340,108 L-338,99 L-330,85 L-325,77 L-317,66 L-312,59 L-310,59 L-308,55 L-303,50 L-299,48 L-297,44 L-284,33 L-278,29 L-267,23 L-251,15 L-239,10 L-223,6 L-203,4 L-130,4 L-119,3 L-31,2 L-2,1 Z " fill="#000000" transform="translate(342,0)"/>
<path d="M0,0 L21,0 L19,2 L1,2 Z " fill="#000000" transform="translate(800,0)"/>
<path d="M0,0 L47,0 L52,3 L74,15 L81,21 L92,30 L99,37 L106,45 L117,60 L125,73 L133,89 L139,106 L141,115 L142,116 L142,921 L140,917 L139,901 L139,867 L138,721 L137,617 L137,595 L136,559 L134,435 L134,403 L133,338 L132,227 L131,177 L129,127 L124,105 L116,86 L109,73 L100,59 L92,48 L84,41 L79,36 L67,27 L58,21 L43,13 L24,6 L14,4 L1,2 Z " fill="#000000" transform="translate(962,0)"/>
<path d="M0,0 L26,0 L41,3 L64,11 L85,23 L101,36 L109,44 L118,55 L127,69 L137,87 L139,89 L143,90 L178,90 L222,89 L276,88 L306,88 L358,87 L414,87 L417,86 L435,86 L442,85 L447,88 L451,93 L458,105 L472,128 L471,138 L457,163 L451,175 L448,178 L437,180 L423,179 L415,176 L409,168 L405,156 L400,150 L395,148 L387,149 L381,154 L379,157 L376,169 L373,174 L368,179 L362,182 L356,182 L348,177 L345,173 L342,164 L341,156 L336,151 L331,149 L323,150 L319,152 L316,156 L311,174 L306,180 L298,183 L289,182 L283,175 L281,168 L279,158 L277,154 L270,150 L264,150 L257,154 L253,160 L249,172 L243,179 L238,182 L231,183 L221,183 L209,185 L177,185 L141,186 L136,189 L128,205 L120,218 L108,234 L101,240 L96,245 L89,252 L78,259 L64,267 L44,275 L35,277 L29,279 L13,281 L-9,281 L-33,277 L-42,273 L-51,270 L-67,262 L-78,255 L-87,248 L-96,239 L-105,228 L-113,217 L-121,201 L-125,192 L-129,181 L-132,167 L-134,142 L-132,117 L-126,95 L-119,79 L-112,66 L-104,55 L-95,45 L-88,37 L-77,28 L-58,16 L-49,12 L-38,7 L-25,3 Z M-82,103 L-94,109 L-104,118 L-108,123 L-111,131 L-112,143 L-111,155 L-105,167 L-96,176 L-85,182 L-76,184 L-68,184 L-52,179 L-44,173 L-39,167 L-33,156 L-32,150 L-32,137 L-34,129 L-39,119 L-43,114 L-52,107 L-63,103 Z " fill="#000000" transform="translate(528,112)"/>
<path d="M0,0 L7,1 L17,6 L23,11 L29,21 L32,31 L31,43 L27,52 L21,60 L12,66 L4,69 L-5,70 L-15,68 L-25,63 L-26,60 L-28,60 L-35,50 L-37,44 L-37,27 L-31,15 L-26,9 L-21,5 L-11,1 Z " fill="#000000" transform="translate(331,223)"/>
<path d="M0,0 L14,1 L25,7 L30,11 L37,22 L39,29 L39,44 L34,54 L26,63 L12,70 L-3,70 L-12,66 L-18,62 L-25,54 L-28,49 L-30,41 L-30,30 L-27,20 L-16,7 L-6,2 Z " fill="#000000" transform="translate(223,261)"/>
<path d="M0,0 L15,0 L26,6 L33,12 L38,21 L40,24 L41,29 L41,40 L38,49 L34,56 L26,64 L17,69 L2,69 L-8,66 L-16,60 L-23,52 L-26,45 L-27,40 L-27,30 L-25,21 L-19,12 L-11,5 L-6,2 Z " fill="#000000" transform="translate(149,345)"/>
<path d="M0,0 L18,0 L30,6 L37,13 L42,32 L42,42 L37,55 L30,63 L20,67 L17,68 L0,68 L-10,63 L-18,56 L-24,44 L-26,37 L-26,30 L-22,17 L-10,4 Z " fill="#000000" transform="translate(131,450)"/>
<path d="M0,0 L61,0 L73,3 L82,7 L95,17 L103,27 L110,43 L112,52 L114,189 L115,229 L115,398 L112,410 L105,424 L96,434 L86,441 L73,447 L68,449 L46,451 L12,452 L-51,452 L-55,453 L-154,453 L-263,454 L-311,454 L-341,455 L-462,457 L-490,457 L-506,455 L-519,450 L-533,439 L-539,431 L-545,421 L-550,405 L-560,376 L-568,352 L-573,336 L-576,326 L-584,302 L-587,295 L-592,278 L-601,250 L-602,244 L-602,227 L-599,215 L-592,196 L-589,185 L-586,175 L-581,160 L-575,140 L-568,119 L-561,97 L-555,76 L-549,59 L-547,50 L-539,36 L-528,24 L-518,18 L-508,14 L-495,11 L-463,10 L-438,9 L-395,8 L-367,8 L-299,6 L-245,5 L-217,5 L-199,4 L-163,4 L-137,3 L-92,3 L-72,2 L-28,1 Z M-160,103 L-183,104 L-215,104 L-276,105 L-315,105 L-323,108 L-326,112 L-332,129 L-336,140 L-345,166 L-353,188 L-356,191 L-366,192 L-418,193 L-434,198 L-444,206 L-449,214 L-452,223 L-452,259 L-451,275 L-448,279 L-406,279 L-402,274 L-396,255 L-390,245 L-382,236 L-371,229 L-358,225 L-344,225 L-330,228 L-319,234 L-316,235 L-315,238 L-310,243 L-304,252 L-299,266 L-296,275 L-292,277 L-228,277 L-192,276 L-157,276 L-147,275 L-113,275 L-108,270 L-105,257 L-99,245 L-92,236 L-84,230 L-75,225 L-68,222 L-51,221 L-39,224 L-30,228 L-20,235 L-11,247 L-5,262 L-3,269 L3,273 L33,272 L43,271 L46,269 L48,260 L48,237 L46,214 L39,200 L32,193 L18,186 L13,185 L-68,187 L-76,183 L-83,175 L-90,167 L-94,162 L-103,151 L-112,141 L-118,133 L-122,126 L-136,109 L-142,104 L-145,103 Z M-549,197 L-562,202 L-571,210 L-577,220 L-580,229 L-580,244 L-577,254 L-570,265 L-563,271 L-554,276 L-547,278 L-532,279 L-516,272 L-507,263 L-502,253 L-500,246 L-500,231 L-504,219 L-510,210 L-518,203 L-527,198 L-532,197 Z M-64,228 L-79,234 L-89,243 L-97,257 L-99,267 L-99,280 L-97,288 L-91,300 L-84,307 L-74,314 L-65,316 L-49,316 L-40,314 L-30,308 L-22,301 L-15,289 L-13,280 L-13,265 L-15,257 L-20,247 L-29,237 L-45,229 L-47,228 Z M-358,233 L-368,237 L-379,245 L-385,252 L-389,260 L-392,274 L-392,282 L-389,294 L-384,303 L-379,309 L-373,313 L-361,319 L-356,320 L-348,320 L-335,318 L-325,313 L-315,304 L-307,289 L-306,284 L-306,270 L-309,258 L-318,245 L-328,238 L-336,234 L-341,233 Z " fill="#000000" transform="translate(935,510)"/>
<path d="M0,0 L9,0 L20,4 L28,10 L34,20 L36,28 L36,41 L32,51 L26,60 L18,66 L7,69 L-2,69 L-11,65 L-19,61 L-26,53 L-29,49 L-32,39 L-32,30 L-28,18 L-21,9 L-17,6 L-9,2 Z " fill="#000000" transform="translate(140,555)"/>
<path d="M0,0 L54,0 L59,5 L69,16 L77,27 L84,35 L91,46 L101,58 L102,63 L97,67 L95,68 L73,69 L-8,69 L-11,67 L-12,64 L-13,37 L-13,6 L-8,1 Z " fill="#000000" transform="translate(732,630)"/>
<path d="M0,0 L16,0 L20,4 L22,60 L19,67 L16,69 L-8,70 L-56,70 L-58,65 L-55,54 L-47,32 L-40,11 L-37,5 L-33,1 Z " fill="#000000" transform="translate(683,631)"/>
<path d="M0,0 L10,0 L20,3 L30,9 L37,19 L40,32 L40,42 L36,51 L32,57 L22,65 L14,68 L-2,68 L-12,63 L-20,56 L-25,48 L-27,42 L-28,32 L-25,21 L-22,15 L-14,6 L-4,1 Z " fill="#000000" transform="translate(170,655)"/>
<path d="M0,0 L13,2 L21,7 L29,16 L33,25 L34,28 L34,41 L29,53 L24,59 L16,65 L7,68 L-9,68 L-21,62 L-28,54 L-33,43 L-34,32 L-32,24 L-28,15 L-19,6 L-12,2 Z " fill="#000000" transform="translate(263,715)"/>
<path d="M0,0 Z " fill="#000000" transform="translate(1103,939)"/>
<path d="M0,0 L1,0 L1,55 L-1,55 L-3,63 L-10,74 L-15,82 L-25,95 L-34,105 L-42,112 L-54,122 L-65,129 L-79,137 L-92,143 L-99,146 L-646,146 L-643,143 L-580,143 L-553,142 L-444,142 L-331,141 L-241,141 L-217,140 L-139,140 L-132,139 L-123,138 L-108,134 L-97,130 L-85,126 L-64,114 L-55,108 L-50,103 L-36,89 L-26,75 L-15,56 L-6,30 L-2,7 Z " fill="#000000" transform="translate(1103,973)"/>
<path d="M0,0 L61,0 L63,1 L63,3 L-17,3 L-16,1 Z " fill="#000000" transform="translate(389,1116)"/>
<path d="M0,0 L7,0 L10,2 L-1,2 Z " fill="#000000" transform="translate(280,1117)"/>
<path d="M0,0 L16,1 L19,3 L-43,3 L-40,1 L-17,1 Z " fill="#000000" transform="translate(334,1116)"/>
<path d="M0,0 L7,0 L8,2 L-2,2 Z " fill="#000000" transform="translate(361,1117)"/>
<path d="M0,0 L6,0 L6,1 L0,1 Z " fill="#000000" transform="translate(230,1118)"/>
</svg>
