<?xml version="1.0" encoding="UTF-8"?>
<!-- Generator: visioncortex VTracer 0.6.12 -->
<svg version="1.1" xmlns="http://www.w3.org/2000/svg" width="1131" height="1137">
<path d="M0,0 L1131,0 L1131,705 L1130,714 L1131,724 L1130,730 L1126,913 L1125,981 L1124,1011 L1122,1121 L1121,1137 L1104,1137 L1106,1133 L1108,1124 L1109,1109 L1112,965 L1113,885 L1115,801 L1116,713 L1117,672 L1118,608 L1119,505 L1121,411 L1122,318 L1123,286 L1124,192 L1124,66 L1122,28 L1120,20 L1118,17 L1115,16 L1095,15 L1070,15 L1002,14 L938,13 L735,11 L578,10 L567,9 L562,10 L516,10 L462,9 L440,8 L321,6 L179,5 L163,5 L78,3 L57,3 L21,4 L16,8 L13,24 L11,58 L10,90 L9,386 L5,584 L4,753 L3,946 L2,971 L0,973 Z " fill="#000000" transform="translate(0,0)"/>
<path d="M0,0 L49,1 L75,1 L178,2 L249,3 L268,3 L336,4 L416,4 L469,5 L580,6 L657,7 L687,7 L778,8 L799,8 L810,9 L817,7 L820,8 L929,9 L986,10 L991,13 L993,16 L994,25 L994,37 L992,42 L989,44 L952,44 L900,43 L817,42 L720,41 L654,40 L463,38 L421,38 L367,37 L296,36 L224,35 L184,35 L117,34 L29,34 L25,36 L24,38 L23,55 L22,196 L22,248 L21,376 L21,533 L20,637 L19,755 L19,779 L20,793 L22,797 L26,799 L115,801 L139,801 L195,802 L224,802 L359,803 L443,804 L497,805 L569,805 L733,806 L861,807 L912,807 L918,804 L920,795 L920,760 L921,669 L922,621 L923,522 L923,477 L922,468 L919,465 L909,464 L870,463 L840,463 L789,462 L766,462 L722,461 L659,461 L611,460 L606,457 L605,454 L605,418 L608,413 L610,412 L666,412 L770,413 L885,415 L962,415 L967,418 L969,423 L970,448 L974,452 L981,454 L984,457 L984,583 L983,648 L982,765 L981,777 L978,782 L977,783 L969,784 L967,786 L966,822 L964,837 L962,840 L959,841 L895,841 L701,839 L682,839 L622,838 L587,838 L317,836 L240,835 L214,835 L136,834 L103,834 L-5,833 L-12,832 L-14,830 L-15,826 L-15,751 L-14,703 L-14,592 L-13,501 L-12,346 L-12,247 L-11,187 L-11,112 L-10,49 L-10,34 L-9,5 L-5,1 Z M682,819 L681,822 L682,824 L686,824 L685,820 Z " fill="#000000" transform="translate(75,145)"/>
<path d="M0,0 L18,0 L27,4 L35,10 L41,18 L45,29 L45,42 L40,54 L32,63 L24,70 L20,74 L20,83 L14,87 L12,90 L12,95 L17,98 L32,99 L44,101 L62,105 L79,111 L94,119 L103,126 L109,131 L117,141 L121,147 L125,163 L127,173 L128,195 L133,200 L144,207 L150,212 L159,224 L167,241 L169,248 L169,396 L168,432 L165,441 L156,448 L146,451 L126,453 L123,455 L122,463 L122,541 L121,575 L118,600 L114,625 L111,638 L108,644 L101,651 L95,653 L38,653 L19,652 L15,648 L15,511 L16,374 L17,307 L17,245 L16,242 L12,241 L-1,241 L-2,245 L-3,315 L-3,360 L-4,428 L-5,528 L-6,570 L-7,635 L-8,649 L-12,652 L-83,652 L-92,650 L-101,644 L-104,638 L-107,623 L-110,591 L-111,569 L-111,524 L-109,494 L-108,487 L-107,467 L-107,455 L-109,451 L-112,450 L-144,447 L-154,441 L-159,434 L-160,422 L-159,357 L-159,326 L-158,266 L-157,249 L-153,236 L-144,220 L-135,210 L-127,203 L-111,194 L-110,190 L-110,181 L-107,160 L-103,148 L-99,139 L-91,128 L-84,121 L-71,113 L-62,110 L-49,106 L-36,103 L-35,102 L-8,98 L-3,93 L1,82 L7,71 L14,63 L24,57 L29,52 L33,44 L34,36 L32,27 L27,19 L19,13 L0,13 L-5,17 L-7,17 L-9,21 L-13,29 L-15,40 L-19,44 L-25,42 L-26,40 L-26,26 L-22,18 L-14,8 L-7,3 Z M14,105 L9,109 L9,128 L11,135 L15,138 L34,142 L50,150 L57,159 L57,170 L51,178 L39,184 L27,190 L22,195 L18,201 L17,204 L17,218 L21,229 L28,237 L36,240 L44,241 L59,241 L75,237 L89,230 L101,221 L111,211 L118,198 L120,187 L119,173 L117,161 L113,151 L107,140 L96,128 L85,120 L67,112 L53,108 L31,105 Z M-18,106 L-34,109 L-48,112 L-60,116 L-69,121 L-79,129 L-90,142 L-95,152 L-98,159 L-101,170 L-101,194 L-95,206 L-88,215 L-78,225 L-71,229 L-57,237 L-39,241 L-18,241 L-8,237 L-1,228 L3,217 L3,209 L0,198 L-6,190 L-14,186 L-24,183 L-35,177 L-42,169 L-43,167 L-43,158 L-39,151 L-31,145 L-21,141 L-9,138 L-5,135 L-4,130 L-4,113 L-7,108 L-10,106 Z " fill="#000000" transform="translate(284,237)"/>
<path d="M0,0 L8,0 L16,6 L19,11 L19,20 L15,26 L8,30 L0,31 L-6,28 L-11,21 L-12,14 L-10,8 L-6,3 Z " fill="#000000" transform="translate(290,258)"/>
<path d="M0,0 L6,0 L10,5 L13,16 L13,27 L9,30 L-12,36 L-28,40 L-36,40 L-52,36 L-56,34 L-56,29 L-46,18 L-41,12 L-30,8 L-16,4 L-9,3 L-6,1 Z " fill="#000000" transform="translate(413,274)"/>
<path d="M0,0 L4,1 L3,3 L0,3 Z " fill="#000000" transform="translate(34,489)"/>
<path d="M0,0 L10,2 L26,7 L41,12 L50,21 L57,29 L61,33 L61,36 L50,38 L37,41 L29,41 L19,37 L6,33 L-4,29 L-8,26 L-8,19 L-4,4 Z " fill="#000000" transform="translate(698,639)"/>
<path d="M0,0 L9,1 L22,5 L35,6 L62,7 L67,10 L69,20 L74,24 L84,26 L87,29 L88,32 L88,123 L87,190 L87,213 L86,240 L83,244 L10,244 L-16,243 L-20,241 L-22,232 L-22,164 L-21,106 L-21,44 L-19,28 L-16,25 L-10,24 L-3,23 L0,22 L1,15 L1,5 Z M17,15 L12,18 L13,23 L15,24 L53,24 L57,20 L55,16 L52,15 Z " fill="#000000" transform="translate(790,683)"/>
<path d="M0,0 L43,0 L47,4 L48,20 L48,46 L47,184 L46,209 L44,216 L38,218 L-14,217 L-21,214 L-29,206 L-32,200 L-33,196 L-34,169 L-33,110 L-32,34 L-30,23 L-24,13 L-16,6 L-8,2 Z " fill="#000000" transform="translate(700,708)"/>
<path d="M0,0 L47,1 L56,5 L64,11 L69,17 L73,26 L73,83 L72,192 L70,200 L64,210 L56,216 L47,219 L9,219 L-3,218 L-7,215 L-8,210 L-8,154 L-7,21 L-6,6 L-4,2 Z " fill="#000000" transform="translate(906,710)"/>
<path d="M0,0 Z " fill="#000000" transform="translate(0,983)"/>
<path d="M0,0 L1,0 L1,5 L0,5 Z " fill="#000000" transform="translate(0,1003)"/>
<path d="M0,0 L2,1 L4,8 L26,9 L88,10 L119,11 L142,11 L190,12 L237,12 L349,13 L419,14 L481,14 L599,15 L615,15 L666,16 L688,16 L697,17 L697,18 L0,18 Z " fill="#000000" transform="translate(0,1119)"/>
<path d="M0,0 L5,0 L5,1 L0,1 Z " fill="#000000" transform="translate(710,1136)"/>
<path d="M0,0 L3,1 Z " fill="#000000" transform="translate(734,1136)"/>
</svg>
