<?xml version="1.0" encoding="UTF-8"?>
<!-- Generator: visioncortex VTracer 0.6.12 -->
<svg version="1.1" xmlns="http://www.w3.org/2000/svg" width="1014" height="999">
<path d="M0,0 L878,0 L878,2 L887,5 L904,13 L918,23 L927,31 L934,40 L944,53 L947,56 L947,58 L949,58 L949,914 L942,937 L930,959 L920,970 L913,978 L904,987 L894,993 L885,999 L9,999 L9,997 L1,995 L-15,987 L-24,981 L-35,974 L-41,965 L-46,961 L-55,950 L-61,941 L-63,934 L-65,934 L-65,72 L-60,62 L-52,44 L-43,33 L-37,28 L-30,20 L-21,14 L-13,8 L-1,1 Z M82,41 L38,42 L27,46 L18,52 L6,60 L-1,68 L-7,79 L-13,98 L-14,112 L-13,120 L-14,134 L-14,252 L-15,256 L-15,269 L-14,282 L-14,305 L-15,321 L-15,402 L-14,408 L-14,417 L-16,429 L-16,502 L-17,560 L-17,738 L-18,762 L-18,774 L-19,779 L-19,811 L-20,859 L-19,894 L-17,903 L-12,914 L-9,920 L-2,929 L3,935 L11,939 L15,943 L25,948 L41,951 L54,952 L80,953 L114,953 L143,954 L217,954 L238,953 L247,954 L277,954 L283,955 L379,955 L399,956 L407,955 L418,956 L483,957 L661,957 L670,958 L684,959 L743,959 L753,958 L755,959 L769,960 L773,959 L804,960 L808,959 L843,959 L855,956 L873,945 L886,931 L889,926 L894,911 L896,896 L896,870 L898,797 L898,770 L899,700 L900,684 L901,611 L901,453 L902,425 L902,387 L901,373 L902,367 L903,327 L903,299 L902,281 L903,275 L903,226 L904,196 L905,192 L905,109 L903,104 L901,92 L897,81 L891,72 L886,67 L875,59 L865,53 L851,49 L845,48 L789,48 L748,47 L739,47 L736,46 L728,46 L725,47 L717,47 L712,46 L703,46 L695,47 L674,46 L610,45 L580,44 L573,45 L485,45 L474,44 L463,44 L439,45 L426,44 L343,44 L340,43 L286,43 L253,42 L233,43 L197,43 L190,44 L182,44 L179,42 L163,41 L141,42 L118,42 Z " fill="#000000" transform="translate(65,0)"/>
<path d="M0,0 L28,2 L32,1 L64,1 L99,2 L193,2 L214,3 L227,3 L240,2 L254,2 L259,3 L279,4 L312,3 L362,3 L365,2 L373,2 L379,3 L396,3 L418,4 L450,3 L467,4 L483,3 L494,4 L662,4 L665,5 L719,5 L722,4 L730,4 L733,5 L749,6 L784,7 L797,11 L809,19 L819,32 L824,44 L825,47 L825,69 L824,73 L824,125 L823,136 L823,266 L822,281 L822,293 L823,325 L822,362 L822,393 L821,436 L821,475 L820,499 L820,575 L821,581 L821,591 L820,595 L819,639 L819,653 L818,664 L818,695 L817,711 L817,747 L816,771 L816,831 L811,852 L806,861 L799,869 L790,875 L779,880 L773,881 L654,881 L637,880 L573,880 L548,879 L543,880 L520,880 L513,878 L484,879 L473,878 L453,879 L425,878 L292,878 L281,877 L212,876 L182,877 L138,876 L132,875 L121,876 L110,876 L96,875 L24,875 L17,874 L9,875 L-2,874 L-9,875 L-14,874 L-30,873 L-49,864 L-59,855 L-64,845 L-66,839 L-68,816 L-67,783 L-67,644 L-66,587 L-66,570 L-65,538 L-65,460 L-64,449 L-64,347 L-65,339 L-63,329 L-63,260 L-64,248 L-63,237 L-62,113 L-62,96 L-61,89 L-61,41 L-57,29 L-45,13 L-36,7 L-22,2 Z M407,72 L398,74 L395,78 L394,83 L394,206 L398,214 L400,215 L412,216 L436,216 L481,217 L492,217 L500,214 L503,210 L504,202 L505,175 L505,160 L504,154 L505,149 L505,136 L504,134 L504,127 L505,123 L505,110 L504,103 L505,98 L505,81 L502,76 L497,73 L455,72 Z M322,71 L320,72 L306,72 L297,73 L283,79 L283,81 L277,83 L272,87 L263,94 L257,98 L247,104 L247,106 L243,108 L233,115 L226,121 L215,129 L205,136 L197,143 L189,153 L185,162 L183,176 L179,193 L175,215 L172,224 L168,240 L163,272 L159,288 L160,295 L164,298 L171,297 L181,291 L186,285 L192,273 L195,261 L201,246 L204,236 L207,226 L211,214 L212,212 L214,198 L220,185 L223,179 L237,171 L245,167 L253,167 L258,171 L265,183 L265,189 L261,195 L252,203 L250,207 L242,214 L231,226 L220,237 L215,242 L208,251 L206,257 L205,267 L205,276 L208,283 L213,284 L226,276 L236,269 L247,262 L262,252 L272,246 L277,242 L277,240 L281,238 L293,231 L304,223 L321,213 L331,203 L336,198 L342,188 L352,175 L362,168 L368,164 L372,158 L373,154 L373,123 L372,105 L372,90 L371,81 L367,75 L364,73 L352,72 L330,72 Z M208,338 L206,340 L206,348 L203,354 L203,356 L199,357 L191,357 L186,353 L185,351 L184,341 L183,339 L177,339 L170,345 L165,352 L162,361 L162,374 L167,387 L175,397 L176,405 L174,416 L177,422 L180,426 L181,440 L181,458 L182,478 L186,484 L190,485 L196,483 L199,480 L199,449 L205,429 L212,420 L213,414 L212,408 L214,398 L219,390 L225,381 L228,371 L227,357 L220,345 L215,340 L212,338 Z M330,467 L317,468 L308,473 L295,486 L288,494 L282,499 L276,507 L268,518 L258,527 L250,531 L223,531 L215,532 L209,532 L206,534 L182,534 L171,533 L168,534 L150,535 L143,536 L134,536 L124,539 L119,543 L118,546 L118,560 L120,568 L125,575 L128,588 L131,605 L134,611 L135,621 L141,626 L144,628 L162,632 L170,636 L173,642 L177,652 L184,663 L195,673 L206,677 L216,678 L226,677 L237,674 L243,670 L253,660 L259,650 L264,638 L268,634 L276,633 L312,634 L329,634 L389,635 L430,635 L495,636 L503,635 L510,640 L516,656 L524,668 L532,675 L545,681 L548,682 L564,682 L579,677 L590,668 L595,662 L600,648 L603,641 L608,637 L650,636 L660,635 L667,631 L671,623 L672,618 L672,566 L669,556 L665,551 L660,548 L631,545 L618,543 L603,542 L596,540 L579,539 L569,537 L551,535 L547,533 L538,531 L529,524 L524,519 L516,506 L510,497 L505,488 L498,478 L494,476 L493,473 L482,469 L478,468 L395,468 L378,467 Z M295,753 L288,760 L289,766 L292,771 L293,777 L294,794 L300,801 L305,802 L306,801 L306,796 L302,792 L301,789 L301,774 L303,768 L305,765 L304,761 L299,753 Z M196,758 L187,762 L184,767 L181,776 L180,786 L185,795 L190,799 L193,798 L190,793 L190,785 L193,781 L192,777 L190,774 L190,767 L194,765 L203,763 L209,767 L209,774 L203,779 L206,781 L216,781 L219,776 L217,767 L212,762 L210,760 L200,758 Z M260,761 L251,768 L247,773 L247,775 L254,775 L259,773 L266,773 L267,796 L270,799 L274,798 L275,792 L273,769 L271,764 L267,761 Z M152,762 L148,766 L147,769 L147,795 L152,794 L153,793 L156,772 L158,768 L162,764 L160,762 Z M238,763 L235,770 L235,796 L239,798 L242,795 L243,792 L244,772 L243,764 Z M399,762 L397,763 L396,768 L392,769 L390,763 L380,763 L378,764 L378,768 L388,773 L394,773 L396,777 L395,778 L382,779 L375,785 L373,789 L373,796 L380,804 L382,805 L389,805 L392,802 L383,796 L383,788 L388,783 L393,781 L399,784 L401,791 L397,799 L398,802 L404,803 L409,800 L410,797 L410,774 L407,766 L401,762 Z M492,763 L486,767 L480,774 L479,778 L479,789 L482,798 L486,802 L492,805 L496,804 L490,796 L487,786 L487,778 L491,771 L499,766 L499,763 Z M553,764 L549,767 L550,771 L554,773 L554,777 L550,780 L552,784 L558,787 L559,792 L556,798 L553,800 L548,800 L549,793 L545,784 L540,783 L533,794 L533,801 L536,804 L545,807 L556,805 L565,804 L568,801 L569,798 L569,780 L566,770 L563,767 L555,764 Z M504,765 L505,770 L509,771 L511,767 L509,765 Z M594,766 L589,771 L588,782 L588,802 L592,805 L596,804 L599,797 L600,792 L601,777 L609,769 L608,766 Z M211,794 L207,797 L208,800 L214,798 L212,794 Z M507,798 L502,802 L502,805 L508,805 L512,802 L512,798 Z " fill="#000000" transform="translate(129,59)"/>
<path d="M0,0 L9,2 L17,7 L24,18 L25,21 L25,34 L17,45 L5,52 L-8,52 L-21,47 L-27,40 L-30,34 L-30,20 L-27,13 L-20,6 L-9,1 Z " fill="#000000" transform="translate(349,666)"/>
<path d="M0,0 L13,0 L22,3 L30,9 L34,18 L35,23 L35,32 L32,38 L25,46 L14,52 L3,51 L-4,49 L-12,44 L-15,41 L-19,30 L-19,19 L-16,12 L-10,5 Z " fill="#000000" transform="translate(678,670)"/>
</svg>
