<?xml version="1.0" encoding="UTF-8"?>
<!-- Generator: visioncortex VTracer 0.6.12 -->
<svg version="1.1" xmlns="http://www.w3.org/2000/svg" width="1008" height="999">
<path d="M0,0 L1008,0 L1008,14 L1001,10 L976,10 L943,9 L857,9 L832,8 L805,9 L798,8 L643,8 L633,7 L563,7 L544,8 L533,7 L404,7 L390,6 L21,6 L12,7 L10,10 L9,20 L9,38 L8,50 L7,115 L7,156 L6,221 L6,385 L5,400 L5,483 L4,510 L4,550 L3,654 L3,731 L0,733 Z " fill="#000000" transform="translate(0,0)"/>
<path d="M0,0 L8,0 L26,4 L39,9 L47,12 L61,22 L67,27 L67,29 L69,29 L77,39 L83,47 L88,59 L93,69 L96,81 L97,101 L95,114 L93,127 L85,143 L81,149 L72,160 L64,169 L50,179 L36,186 L17,191 L9,192 L-3,192 L-18,191 L-34,186 L-48,179 L-61,171 L-68,166 L-77,155 L-84,146 L-90,134 L-92,132 L-104,131 L-119,130 L-124,125 L-127,118 L-131,117 L-152,117 L-163,116 L-177,116 L-204,115 L-234,115 L-241,112 L-241,110 L-245,108 L-250,102 L-256,98 L-260,94 L-265,95 L-276,103 L-284,110 L-290,109 L-295,104 L-302,97 L-310,91 L-315,92 L-325,101 L-330,106 L-333,109 L-338,109 L-350,96 L-354,93 L-361,94 L-376,107 L-379,110 L-384,110 L-398,102 L-416,91 L-419,87 L-419,82 L-409,72 L-403,67 L-398,61 L-392,57 L-389,55 L-326,55 L-318,56 L-269,56 L-233,57 L-198,57 L-191,58 L-153,58 L-111,59 L-94,59 L-88,55 L-80,43 L-73,34 L-68,28 L-59,21 L-53,16 L-45,12 L-32,6 L-24,3 L-3,1 Z M31,78 L21,82 L16,88 L15,90 L15,103 L18,108 L28,117 L40,117 L49,111 L53,104 L54,100 L54,92 L50,85 L44,80 L39,78 Z " fill="#000000" transform="translate(678,69)"/>
<path d="M0,0 L1,0 L1,12 L-1,10 Z " fill="#000000" transform="translate(1007,155)"/>
<path d="M0,0 L1,0 L1,22 L0,22 L-1,15 Z " fill="#000000" transform="translate(1007,171)"/>
<path d="M0,0 L1,0 L1,803 L-9,803 L-7,796 L-6,712 L-6,669 L-5,532 L-5,411 L-4,390 L-4,301 L-3,283 L-3,183 L-2,133 L-2,15 L-1,3 Z " fill="#000000" transform="translate(1007,196)"/>
<path d="M0,0 L42,0 L50,1 L57,0 L146,0 L182,1 L218,1 L223,2 L270,2 L275,1 L308,2 L346,2 L357,3 L368,2 L390,3 L405,6 L421,14 L426,18 L431,21 L439,29 L445,38 L450,47 L455,60 L460,80 L464,90 L467,100 L470,107 L473,117 L482,145 L489,168 L496,188 L505,215 L508,221 L518,223 L537,228 L548,232 L558,238 L569,247 L581,258 L590,271 L596,282 L601,298 L603,307 L603,342 L602,376 L602,503 L600,519 L598,521 L581,522 L553,522 L549,524 L547,528 L547,539 L546,558 L546,592 L545,612 L538,619 L531,623 L468,622 L460,616 L457,612 L456,534 L454,523 L451,521 L358,520 L337,520 L322,519 L296,520 L254,520 L245,519 L183,519 L152,518 L132,518 L125,519 L122,518 L99,518 L72,517 L66,518 L18,518 L0,517 L-69,517 L-77,519 L-78,520 L-79,527 L-79,603 L-82,613 L-88,619 L-106,620 L-138,620 L-146,619 L-153,619 L-162,615 L-165,612 L-168,604 L-169,521 L-170,518 L-173,517 L-190,516 L-202,517 L-205,516 L-218,515 L-222,512 L-223,489 L-223,315 L-221,296 L-215,277 L-205,258 L-197,249 L-192,246 L-185,238 L-176,232 L-166,227 L-156,223 L-140,219 L-127,216 L-124,213 L-118,197 L-105,159 L-100,144 L-95,129 L-92,120 L-89,110 L-86,103 L-82,89 L-78,77 L-67,44 L-61,34 L-47,19 L-40,13 L-32,8 L-22,3 L-11,1 Z M80,37 L76,38 L58,39 L12,39 L-3,40 L-13,43 L-22,50 L-30,60 L-36,77 L-46,105 L-48,113 L-53,126 L-55,129 L-57,138 L-64,157 L-69,174 L-76,195 L-78,203 L-80,209 L-80,216 L-77,218 L-72,219 L27,220 L88,220 L143,221 L188,221 L234,222 L339,222 L388,223 L422,223 L455,222 L458,219 L459,215 L459,205 L453,187 L448,170 L444,159 L441,150 L439,140 L436,131 L432,121 L427,104 L419,80 L416,70 L409,58 L401,49 L391,44 L385,44 L383,43 L359,42 L324,42 L311,41 L294,41 L276,42 L274,41 L246,41 L239,40 L197,40 L179,39 L88,39 Z M-138,337 L-150,342 L-159,347 L-171,359 L-176,370 L-178,376 L-179,384 L-179,396 L-177,405 L-173,414 L-168,422 L-162,429 L-153,435 L-142,440 L-131,442 L-120,442 L-107,439 L-97,434 L-92,432 L-84,422 L-79,414 L-75,405 L-73,398 L-73,378 L-77,366 L-85,355 L-95,345 L-112,337 Z M497,341 L487,343 L478,347 L468,354 L460,363 L455,371 L451,387 L451,397 L453,409 L461,425 L465,429 L470,434 L478,439 L489,444 L510,446 L523,443 L539,433 L545,428 L552,417 L557,402 L557,385 L553,373 L547,362 L540,355 L535,350 L520,342 L512,342 L509,341 Z " fill="#000000" transform="translate(319,326)"/>
<path d="M0,0 Z " fill="#000000" transform="translate(913,535)"/>
<path d="M0,0 L2,0 L3,2 L3,81 L2,87 L2,117 L0,121 Z " fill="#000000" transform="translate(0,738)"/>
<path d="M0,0 L1,0 L1,7 L0,7 Z " fill="#000000" transform="translate(0,862)"/>
<path d="M0,0 L2,0 L6,4 L33,5 L160,5 L176,6 L181,7 L184,6 L288,6 L291,7 L389,7 L411,8 L413,11 L0,11 Z " fill="#000000" transform="translate(0,988)"/>
<path d="M0,0 L14,0 L18,1 L23,0 L88,0 L106,1 L113,0 L128,0 L158,1 L159,3 L-2,3 L-2,1 Z " fill="#000000" transform="translate(417,996)"/>
<path d="M0,0 L17,0 L18,2 L-1,2 Z " fill="#000000" transform="translate(582,997)"/>
<path d="M0,0 L32,0 L33,2 L-1,2 Z " fill="#000000" transform="translate(605,997)"/>
<path d="M0,0 L5,1 L5,2 L0,2 Z " fill="#000000" transform="translate(647,997)"/>
<path d="M0,0 L10,0 L12,2 L0,2 Z " fill="#000000" transform="translate(691,997)"/>
<path d="M0,0 L6,0 L6,2 L-1,2 Z " fill="#000000" transform="translate(722,997)"/>
</svg>
