<?xml version="1.0" encoding="UTF-8"?>
<!-- Generator: visioncortex VTracer 0.6.12 -->
<svg version="1.1" xmlns="http://www.w3.org/2000/svg" width="1017" height="996">
<path d="M0,0 L15,0 L14,3 L10,5 L8,12 L7,61 L6,143 L6,179 L5,220 L5,248 L6,257 L5,279 L5,344 L4,454 L4,655 L3,697 L2,699 L0,699 Z " fill="#000000" transform="translate(0,0)"/>
<path d="M0,0 L17,0 L16,2 L0,2 Z " fill="#000000" transform="translate(35,0)"/>
<path d="M0,0 L16,0 L16,2 L11,3 L1,2 Z " fill="#000000" transform="translate(61,0)"/>
<path d="M0,0 L6,0 L5,3 L0,2 Z " fill="#000000" transform="translate(85,0)"/>
<path d="M0,0 L918,0 L918,12 L913,8 L904,7 L899,4 L891,4 L883,7 L854,7 L847,6 L632,6 L623,5 L605,5 L594,6 L536,6 L529,5 L474,5 L434,4 L430,3 L422,4 L399,4 L392,5 L383,5 L380,4 L326,4 L274,3 L237,3 L215,4 L109,3 L34,3 L1,2 Z " fill="#000000" transform="translate(99,0)"/>
<path d="M0,0 L1,0 L1,34 L-1,33 L-1,1 Z " fill="#000000" transform="translate(1016,72)"/>
<path d="M0,0 L1,0 L1,16 L-1,15 L-1,2 Z " fill="#000000" transform="translate(1016,152)"/>
<path d="M0,0 L1,0 L1,33 L-1,32 L-1,1 Z " fill="#000000" transform="translate(1016,174)"/>
<path d="M0,0 L1,0 L1,783 L-9,783 L-7,778 L-6,776 L-6,725 L-5,500 L-5,361 L-4,330 L-5,316 L-5,293 L-4,270 L-4,230 L-3,228 L-4,151 L-3,137 L-3,107 L-2,20 L-1,1 Z " fill="#000000" transform="translate(1016,213)"/>
<path d="M0,0 L65,0 L100,1 L161,1 L167,2 L248,2 L267,3 L272,2 L289,3 L302,6 L314,12 L325,23 L330,31 L332,37 L340,53 L345,64 L349,74 L356,91 L360,101 L368,119 L374,132 L381,146 L384,151 L388,161 L395,172 L404,184 L416,201 L423,211 L428,226 L430,257 L429,324 L427,327 L425,337 L417,350 L407,358 L400,361 L394,364 L377,365 L374,363 L368,363 L366,364 L351,364 L347,365 L338,365 L335,364 L326,364 L318,365 L308,366 L300,364 L274,364 L268,363 L249,363 L239,364 L221,363 L215,364 L185,363 L151,363 L146,362 L143,363 L67,363 L65,362 L58,362 L54,363 L33,363 L15,362 L0,363 L-5,360 L-10,355 L-11,351 L-10,284 L-10,201 L-9,164 L-7,155 L-4,152 L2,150 L35,151 L56,150 L63,151 L74,151 L79,152 L137,151 L200,151 L223,152 L230,151 L241,152 L263,152 L274,153 L304,152 L311,153 L316,152 L329,153 L345,153 L351,150 L353,147 L352,139 L350,132 L345,123 L341,115 L336,102 L333,97 L328,84 L320,67 L312,49 L307,39 L306,36 L298,30 L292,28 L229,28 L205,27 L196,28 L189,28 L183,29 L180,28 L159,26 L156,27 L111,27 L60,26 L52,25 L49,23 L44,24 L40,26 L5,26 L-3,22 L-6,19 L-8,12 L-7,5 L-3,1 Z M342,207 L329,210 L320,215 L310,226 L304,238 L302,250 L303,261 L309,276 L313,281 L322,288 L334,293 L344,294 L352,293 L359,291 L365,288 L375,280 L381,272 L384,268 L387,259 L387,247 L384,235 L379,225 L370,215 L358,209 L346,207 Z " fill="#000000" transform="translate(27,346)"/>
<path d="M0,0 L8,1 L21,2 L25,4 L33,5 L38,9 L48,14 L56,20 L61,23 L64,25 L67,30 L76,43 L80,51 L84,58 L87,73 L88,75 L88,93 L87,109 L83,122 L80,129 L76,135 L70,146 L65,151 L56,160 L52,162 L47,167 L39,171 L30,175 L14,179 L-11,179 L-16,177 L-27,175 L-38,170 L-43,167 L-53,161 L-61,154 L-67,146 L-72,141 L-77,132 L-78,129 L-84,127 L-113,126 L-162,126 L-169,123 L-174,118 L-176,113 L-182,103 L-184,102 L-191,102 L-196,107 L-202,116 L-206,121 L-212,122 L-216,116 L-218,111 L-226,100 L-233,100 L-237,105 L-241,109 L-246,119 L-249,122 L-254,122 L-260,114 L-265,104 L-269,100 L-274,101 L-280,109 L-286,118 L-291,123 L-296,122 L-300,116 L-304,108 L-310,100 L-314,99 L-319,104 L-328,119 L-332,121 L-336,120 L-342,113 L-347,102 L-352,92 L-352,83 L-346,72 L-338,57 L-332,52 L-308,51 L-300,50 L-282,51 L-200,51 L-172,52 L-170,51 L-157,50 L-147,52 L-137,52 L-128,51 L-90,51 L-78,47 L-68,34 L-60,25 L-52,19 L-47,15 L-40,11 L-38,9 L-30,6 L-17,2 L-15,1 L-3,1 Z M36,71 L26,80 L24,89 L24,97 L28,103 L35,108 L43,109 L54,104 L58,97 L59,88 L56,79 L52,75 L42,71 Z " fill="#000000" transform="translate(819,357)"/>
<path d="M0,0 L3,2 L3,169 L2,173 L0,173 Z " fill="#000000" transform="translate(0,702)"/>
<path d="M0,0 L9,2 L15,3 L24,2 L31,3 L39,3 L45,6 L48,11 L49,15 L49,78 L48,87 L48,95 L45,105 L38,113 L29,117 L-1,117 L-25,115 L-33,109 L-38,101 L-40,90 L-40,33 L-42,15 L-40,9 L-33,3 L-26,1 L-21,2 L-13,2 L-11,1 L-4,1 Z " fill="#000000" transform="translate(368,717)"/>
<path d="M0,0 L2,1 L3,4 L3,13 L2,21 L0,21 Z " fill="#000000" transform="translate(0,880)"/>
<path d="M0,0 L3,3 L3,36 L0,39 Z " fill="#000000" transform="translate(0,907)"/>
<path d="M0,0 L2,1 L1,6 L0,6 Z " fill="#000000" transform="translate(0,951)"/>
<path d="M0,0 L1,0 L1,5 L0,5 Z " fill="#000000" transform="translate(0,958)"/>
<path d="M0,0 L2,1 L3,7 L4,17 L7,20 L38,20 L45,21 L99,21 L112,22 L123,22 L135,21 L155,21 L172,22 L219,21 L223,22 L285,22 L301,23 L410,23 L417,24 L424,23 L438,23 L454,24 L571,24 L580,26 L583,25 L601,25 L627,26 L646,25 L685,26 L717,26 L723,27 L762,26 L776,26 L781,27 L785,26 L831,27 L907,27 L914,29 L914,30 L0,30 Z " fill="#000000" transform="translate(0,966)"/>
<path d="M0,0 L26,0 L77,1 L78,3 L-4,3 L-3,1 Z " fill="#000000" transform="translate(920,993)"/>
</svg>
