<?xml version="1.0" encoding="UTF-8"?>
<!-- Generator: visioncortex VTracer 0.6.12 -->
<svg version="1.1" xmlns="http://www.w3.org/2000/svg" width="1014" height="999">
<path d="M0,0 L1011,0 L1011,999 L993,999 L997,995 L998,988 L999,896 L999,819 L1000,747 L1002,589 L1002,488 L1003,412 L1003,393 L1004,362 L1004,245 L1005,71 L1005,55 L1006,35 L1005,29 L1005,20 L1003,12 L999,10 L946,9 L913,9 L901,8 L889,9 L814,9 L793,8 L759,8 L746,7 L736,8 L716,7 L709,8 L681,7 L505,7 L495,8 L492,7 L470,7 L375,6 L287,6 L270,5 L176,5 L154,4 L18,4 L13,8 L12,10 L11,31 L10,119 L10,155 L9,334 L8,354 L8,394 L7,471 L7,560 L6,677 L5,708 L5,747 L4,852 L4,989 L7,992 L50,993 L139,993 L146,994 L204,994 L221,995 L297,995 L351,996 L417,996 L427,997 L430,996 L460,996 L474,997 L475,999 L-3,999 L-3,7 L-1,7 Z " fill="#000000" transform="translate(3,0)"/>
<path d="M0,0 L136,0 L148,1 L155,0 L171,1 L188,1 L206,0 L257,0 L303,1 L400,1 L414,5 L420,8 L433,15 L443,26 L449,34 L454,43 L458,59 L462,74 L466,90 L468,101 L473,121 L476,136 L479,149 L484,169 L486,179 L489,191 L492,204 L496,217 L498,223 L513,233 L520,240 L526,248 L532,262 L534,272 L535,287 L534,299 L534,419 L533,470 L533,500 L531,511 L527,522 L521,531 L518,532 L516,536 L507,544 L502,547 L497,552 L495,559 L495,580 L494,627 L493,649 L489,659 L485,664 L474,668 L423,668 L411,665 L404,659 L400,650 L399,636 L398,603 L398,561 L396,555 L390,552 L370,552 L363,551 L354,553 L352,552 L334,551 L170,551 L126,550 L13,550 L-4,551 L-9,554 L-10,574 L-11,640 L-14,656 L-22,663 L-38,666 L-58,666 L-61,665 L-70,665 L-78,666 L-90,665 L-98,661 L-104,654 L-107,647 L-107,560 L-108,549 L-115,541 L-125,534 L-131,527 L-140,511 L-142,503 L-143,489 L-143,302 L-142,279 L-140,258 L-136,249 L-129,238 L-121,231 L-115,227 L-105,221 L-101,214 L-95,193 L-92,179 L-88,163 L-85,147 L-78,122 L-70,86 L-67,77 L-61,50 L-55,34 L-49,25 L-45,20 L-40,15 L-30,8 L-20,2 L-12,1 Z M15,43 L6,46 L-2,48 L-11,53 L-18,63 L-22,71 L-29,96 L-31,107 L-35,121 L-39,138 L-41,143 L-45,164 L-53,191 L-54,207 L-52,215 L-47,219 L-38,222 L243,222 L276,223 L285,222 L288,223 L322,223 L332,224 L359,223 L435,223 L445,218 L447,213 L447,203 L444,189 L440,174 L437,164 L432,138 L426,112 L418,78 L413,65 L406,57 L402,53 L393,48 L386,45 L380,44 L327,43 L311,43 L283,44 L243,44 L235,43 Z M-68,283 L-80,287 L-86,291 L-97,301 L-103,312 L-107,325 L-107,338 L-104,350 L-98,361 L-90,370 L-82,376 L-70,381 L-46,381 L-34,376 L-24,369 L-17,361 L-11,350 L-8,338 L-8,325 L-12,311 L-19,299 L-24,293 L-33,288 L-41,284 L-44,283 Z M436,286 L425,291 L417,295 L408,304 L402,315 L397,328 L398,342 L401,354 L405,362 L412,371 L428,382 L440,385 L456,385 L469,381 L478,375 L486,367 L492,358 L496,347 L497,328 L493,315 L488,307 L482,299 L471,290 L456,286 Z M51,342 L35,345 L30,350 L28,356 L28,366 L31,373 L35,376 L42,378 L167,378 L175,377 L189,378 L253,379 L321,379 L341,380 L351,378 L358,372 L360,368 L361,359 L358,350 L353,345 L343,343 L335,344 L333,343 L275,342 L273,343 L180,343 L126,342 L82,343 L76,342 Z M60,400 L43,401 L34,404 L30,409 L29,411 L29,427 L35,435 L41,436 L104,436 L112,437 L146,436 L184,437 L282,437 L305,438 L312,437 L350,437 L356,433 L361,425 L361,417 L358,408 L352,403 L349,402 L335,401 L229,401 L220,400 Z M96,459 L38,460 L31,464 L28,470 L28,486 L35,494 L37,495 L53,496 L327,496 L334,497 L350,496 L357,492 L361,483 L361,472 L358,466 L353,462 L348,460 L205,460 L197,459 Z " fill="#000000" transform="translate(224,179)"/>
<path d="M0,0 L20,1 L32,4 L44,9 L54,15 L62,20 L67,25 L74,34 L84,45 L90,61 L93,69 L95,77 L96,95 L94,110 L91,120 L86,132 L79,145 L71,155 L66,160 L66,167 L74,170 L78,173 L83,176 L90,185 L92,190 L92,259 L88,268 L84,273 L71,281 L61,283 L45,291 L43,294 L42,300 L41,332 L38,340 L30,348 L23,354 L21,357 L22,364 L30,373 L35,377 L37,381 L36,386 L28,394 L21,403 L22,409 L28,416 L33,421 L36,425 L35,432 L22,445 L21,447 L21,454 L25,459 L28,461 L28,463 L32,465 L37,472 L36,480 L27,497 L24,501 L21,507 L12,517 L8,519 L3,519 L0,517 L-9,514 L-16,508 L-21,503 L-26,498 L-28,494 L-29,484 L-29,441 L-30,422 L-30,296 L-34,291 L-54,282 L-62,279 L-74,272 L-79,262 L-80,259 L-80,236 L-81,207 L-81,194 L-77,184 L-71,177 L-58,169 L-56,167 L-56,160 L-61,154 L-66,149 L-73,139 L-82,118 L-85,107 L-85,76 L-80,58 L-74,46 L-71,41 L-67,36 L-60,28 L-56,23 L-40,12 L-28,6 L-19,3 L-11,1 L-2,1 Z M7,19 L-11,21 L-24,26 L-38,35 L-48,44 L-55,52 L-61,62 L-64,71 L-66,81 L-66,99 L-63,114 L-55,130 L-46,141 L-39,148 L-26,155 L-19,155 L-9,151 L0,148 L10,148 L18,152 L27,155 L38,154 L51,146 L61,136 L68,125 L71,120 L75,106 L76,101 L76,85 L75,82 L74,71 L69,59 L62,48 L51,36 L46,32 L38,27 L28,23 L25,21 L13,19 Z M3,176 L-4,180 L-9,186 L-10,188 L-10,201 L-3,209 L6,212 L12,212 L18,208 L23,203 L24,199 L24,190 L21,184 L15,179 L9,176 Z " fill="#000000" transform="translate(862,243)"/>
<path d="M0,0 L48,0 L50,2 L-4,2 Z " fill="#000000" transform="translate(485,997)"/>
<path d="M0,0 L7,1 L7,2 L-2,2 Z " fill="#000000" transform="translate(559,997)"/>
<path d="M0,0 L20,0 L22,2 L-3,2 Z " fill="#000000" transform="translate(579,997)"/>
<path d="M0,0 L8,0 L8,2 L-4,2 Z " fill="#000000" transform="translate(614,997)"/>
</svg>
