<?xml version="1.0" encoding="UTF-8"?>
<!-- Generator: visioncortex VTracer 0.6.12 -->
<svg version="1.1" xmlns="http://www.w3.org/2000/svg" width="1122" height="1119">
<path d="M0,0 L900,0 L903,2 L912,4 L927,9 L937,14 L946,19 L956,25 L967,33 L979,44 L986,50 L994,61 L1000,69 L1013,91 L1017,99 L1017,169 L1015,168 L1013,137 L1010,120 L1002,100 L994,83 L986,72 L980,64 L972,55 L964,48 L959,44 L947,36 L941,31 L929,25 L917,21 L908,18 L901,15 L877,12 L865,10 L850,11 L847,10 L718,10 L705,9 L662,9 L650,8 L644,9 L582,9 L576,8 L515,8 L393,6 L277,6 L245,5 L193,5 L146,4 L90,4 L55,5 L30,7 L13,11 L-2,17 L-15,23 L-34,34 L-47,45 L-61,59 L-71,73 L-79,89 L-83,97 L-88,111 L-92,128 L-93,137 L-93,173 L-94,186 L-94,217 L-95,234 L-95,301 L-96,350 L-96,412 L-97,450 L-97,470 L-98,509 L-98,550 L-99,598 L-101,608 L-100,635 L-99,643 L-99,668 L-100,675 L-100,704 L-101,729 L-101,743 L-103,748 L-105,748 L-105,125 L-103,118 L-101,108 L-96,93 L-92,85 L-84,69 L-78,61 L-70,50 L-59,38 L-54,33 L-44,24 L-37,20 L-14,6 L-2,2 Z " fill="#000000" transform="translate(105,0)"/>
<path d="M0,0 L16,0 L27,2 L38,5 L53,14 L60,20 L66,25 L66,27 L70,29 L78,40 L88,59 L91,70 L92,87 L91,99 L89,104 L87,113 L80,129 L68,145 L55,157 L48,163 L43,167 L40,174 L38,187 L32,196 L31,201 L30,281 L25,294 L25,303 L34,327 L33,336 L23,345 L23,353 L31,370 L32,377 L27,389 L18,402 L11,410 L5,411 L-3,407 L-9,402 L-16,396 L-19,391 L-20,384 L-20,359 L-18,342 L-18,327 L-19,314 L-19,257 L-18,198 L-19,179 L-22,172 L-31,165 L-47,157 L-58,148 L-65,140 L-72,130 L-80,110 L-83,95 L-83,81 L-78,56 L-72,45 L-68,38 L-58,26 L-55,22 L-48,18 L-40,12 L-28,5 L-15,1 Z M0,30 L-7,33 L-11,37 L-13,42 L-12,48 L-6,55 L-1,57 L5,56 L12,52 L15,47 L15,38 L11,32 L1,30 Z " fill="#000000" transform="translate(536,128)"/>
<path d="M0,0 L189,0 L206,1 L214,1 L228,8 L237,17 L246,33 L254,46 L263,62 L269,74 L273,83 L278,92 L288,109 L295,115 L298,116 L308,116 L321,118 L384,124 L403,129 L412,135 L421,145 L425,152 L429,170 L429,203 L428,246 L425,253 L420,256 L415,257 L389,257 L383,253 L380,246 L376,229 L371,217 L364,204 L353,192 L347,188 L339,183 L330,179 L318,175 L309,175 L306,174 L290,174 L278,176 L263,182 L253,188 L246,194 L241,198 L230,212 L226,222 L223,232 L219,250 L214,255 L212,256 L191,257 L128,257 L102,258 L99,257 L-129,257 L-169,256 L-177,251 L-180,237 L-182,225 L-190,209 L-199,198 L-203,193 L-209,189 L-221,182 L-234,177 L-245,175 L-268,175 L-280,178 L-299,188 L-310,194 L-316,203 L-321,208 L-328,220 L-331,226 L-336,245 L-339,251 L-343,254 L-352,255 L-358,250 L-360,243 L-361,219 L-361,162 L-359,147 L-355,138 L-350,132 L-337,125 L-320,122 L-256,120 L-238,118 L-206,117 L-157,114 L-151,113 L-141,104 L-134,93 L-124,78 L-109,56 L-101,44 L-93,33 L-80,15 L-71,5 L-67,2 L-63,1 Z M-21,26 L-26,27 L-44,28 L-50,31 L-57,38 L-66,50 L-74,61 L-85,76 L-91,85 L-97,95 L-102,102 L-103,109 L-99,114 L-97,115 L-60,116 L-31,116 L-9,117 L25,116 L31,117 L84,117 L107,116 L129,116 L192,117 L228,116 L234,113 L235,107 L225,78 L216,62 L212,52 L208,48 L204,39 L198,31 L193,28 L190,27 L168,26 L153,27 L136,26 Z " fill="#000000" transform="translate(508,584)"/>
<path d="M0,0 L2,1 L3,4 L4,28 L3,71 L3,96 L0,99 Z " fill="#000000" transform="translate(0,751)"/>
<path d="M0,0 L22,0 L37,6 L50,13 L60,22 L69,36 L73,49 L74,57 L74,74 L68,92 L62,102 L55,110 L47,116 L38,122 L28,126 L18,128 L-2,128 L-10,126 L-25,120 L-34,113 L-43,104 L-50,93 L-56,71 L-56,57 L-52,41 L-46,30 L-35,18 L-25,10 L-13,4 Z " fill="#000000" transform="translate(798,767)"/>
<path d="M0,0 L14,0 L26,2 L42,10 L50,16 L59,27 L65,39 L69,52 L69,68 L67,80 L62,94 L51,107 L47,113 L33,122 L20,127 L14,128 L-9,128 L-21,124 L-36,116 L-47,106 L-57,88 L-60,76 L-60,54 L-57,43 L-49,29 L-40,19 L-30,11 L-11,2 Z " fill="#000000" transform="translate(245,769)"/>
<path d="M0,0 L2,0 L3,2 L3,28 L1,33 L0,33 Z " fill="#000000" transform="translate(0,855)"/>
<path d="M0,0 L2,1 L3,8 L1,12 L0,12 Z " fill="#000000" transform="translate(0,895)"/>
<path d="M0,0 L2,1 L3,8 L2,40 L0,41 Z " fill="#000000" transform="translate(0,915)"/>
<path d="M0,0 L1,0 L1,849 L-4,859 L-14,880 L-25,894 L-36,907 L-52,923 L-67,932 L-73,937 L-91,945 L-93,945 L-93,947 L-1019,947 L-1033,940 L-1045,935 L-1058,928 L-1068,920 L-1077,913 L-1087,903 L-1092,898 L-1100,888 L-1107,878 L-1117,860 L-1121,851 L-1121,804 L-1119,804 L-1116,823 L-1112,840 L-1103,860 L-1096,873 L-1087,884 L-1083,890 L-1069,904 L-1054,915 L-1043,922 L-1031,928 L-1013,934 L-1000,936 L-982,940 L-870,940 L-793,941 L-752,941 L-607,942 L-442,942 L-382,943 L-309,943 L-209,944 L-154,944 L-128,942 L-115,939 L-102,935 L-97,932 L-87,928 L-70,918 L-53,906 L-48,900 L-43,896 L-35,886 L-27,873 L-18,858 L-12,843 L-8,831 L-6,819 L-4,793 L-3,772 L-3,661 L-2,643 L-2,547 L-3,501 L-2,456 L-2,38 L-1,2 Z " fill="#000000" transform="translate(1121,172)"/>
</svg>
