<?xml version="1.0" encoding="UTF-8"?>
<!-- Generator: visioncortex VTracer 0.6.12 -->
<svg version="1.1" xmlns="http://www.w3.org/2000/svg" width="1299" height="1347">
<path d="M0,0 L19,1 L111,2 L226,2 L243,3 L327,3 L344,4 L435,4 L469,5 L506,5 L548,6 L664,6 L686,7 L738,7 L789,8 L825,8 L908,9 L964,9 L1008,10 L1073,11 L1147,11 L1151,9 L1154,11 L1228,12 L1239,12 L1239,69 L1209,68 L1169,68 L1055,67 L1025,67 L975,66 L917,66 L877,65 L822,65 L779,64 L728,64 L606,62 L533,62 L527,61 L452,61 L376,60 L349,60 L317,59 L205,59 L197,58 L104,58 L-23,57 L-60,56 L-60,1 Z " fill="#000000" transform="translate(60,12)"/>
<path d="M0,0 L5,1 L10,2 L54,2 L61,1 L185,1 L196,4 L210,6 L221,9 L227,12 L234,15 L242,19 L247,22 L260,31 L270,39 L280,49 L291,63 L303,83 L308,96 L310,99 L316,128 L317,148 L317,280 L316,492 L316,511 L315,551 L315,586 L314,665 L314,724 L313,780 L313,834 L312,898 L310,916 L307,926 L305,929 L303,936 L295,952 L287,966 L280,974 L271,985 L261,994 L252,1001 L241,1009 L232,1013 L218,1020 L204,1025 L194,1027 L181,1029 L-15,1029 L-82,1028 L-139,1028 L-143,1026 L-149,1027 L-183,1028 L-188,1027 L-273,1027 L-284,1026 L-412,1026 L-417,1027 L-419,1026 L-529,1026 L-566,1024 L-569,1023 L-590,1021 L-597,1018 L-608,1015 L-624,1007 L-636,999 L-648,990 L-653,985 L-659,980 L-668,969 L-676,957 L-682,947 L-687,936 L-692,923 L-694,910 L-697,897 L-698,889 L-699,853 L-698,793 L-697,790 L-698,754 L-698,738 L-697,701 L-697,674 L-696,649 L-696,599 L-695,588 L-694,582 L-695,580 L-695,480 L-694,434 L-694,346 L-693,303 L-693,192 L-692,147 L-690,139 L-688,127 L-685,115 L-676,91 L-668,75 L-658,62 L-649,52 L-637,40 L-622,30 L-610,22 L-598,16 L-583,11 L-572,8 L-551,7 L-545,6 L-536,7 L-447,7 L-440,6 L-309,6 L-282,5 L-280,6 L-258,5 L-174,5 L-147,4 L-132,5 L-131,4 L-117,4 L-99,3 L-89,4 L-61,4 L-57,3 L-3,2 Z M147,14 L127,15 L4,15 L-2,16 L-9,15 L-23,16 L-102,16 L-126,17 L-191,17 L-200,18 L-207,17 L-216,17 L-221,18 L-228,17 L-260,17 L-264,18 L-333,18 L-341,19 L-421,19 L-496,20 L-540,20 L-547,19 L-563,21 L-585,26 L-603,33 L-609,37 L-617,41 L-630,52 L-640,61 L-649,71 L-659,87 L-668,106 L-672,119 L-676,136 L-677,143 L-678,204 L-678,240 L-679,261 L-679,399 L-680,425 L-680,480 L-681,553 L-681,571 L-682,588 L-682,679 L-683,724 L-684,774 L-685,781 L-684,784 L-684,792 L-685,803 L-684,882 L-682,902 L-678,918 L-672,936 L-666,947 L-657,961 L-652,966 L-644,974 L-639,980 L-632,985 L-628,989 L-612,997 L-592,1006 L-588,1008 L-568,1010 L-514,1011 L-471,1011 L-454,1012 L-419,1011 L-392,1012 L-340,1012 L-327,1013 L-316,1012 L-279,1012 L-270,1013 L-175,1013 L-167,1014 L-124,1014 L-70,1015 L-19,1015 L-13,1014 L-6,1015 L30,1015 L81,1016 L129,1016 L140,1017 L160,1016 L182,1016 L184,1015 L195,1014 L204,1011 L224,1003 L232,998 L243,991 L260,977 L264,972 L269,967 L276,957 L283,945 L288,934 L292,923 L295,911 L298,891 L299,868 L298,829 L299,711 L300,694 L299,687 L300,669 L300,633 L301,558 L301,426 L302,252 L302,165 L301,135 L298,113 L294,101 L286,84 L274,65 L268,57 L260,50 L250,41 L241,36 L236,32 L222,25 L205,19 L196,17 L183,16 L175,14 L154,15 Z " fill="#000000" transform="translate(845,145)"/>
<path d="M0,0 L32,0 L39,2 L50,4 L60,8 L68,11 L79,17 L83,21 L88,24 L98,32 L108,42 L116,53 L123,64 L131,79 L137,84 L175,84 L205,83 L212,82 L214,83 L252,83 L270,82 L284,83 L316,83 L333,82 L347,83 L357,83 L367,82 L386,82 L397,81 L399,82 L409,83 L417,90 L422,101 L427,110 L432,118 L434,124 L434,130 L429,140 L424,147 L417,161 L413,166 L407,170 L392,170 L383,167 L377,162 L372,152 L370,146 L365,143 L355,143 L351,146 L347,158 L342,166 L335,171 L327,171 L321,167 L316,161 L312,148 L311,144 L305,142 L298,143 L293,148 L292,149 L291,159 L287,165 L277,172 L267,170 L262,167 L258,159 L256,149 L255,145 L248,143 L242,144 L236,149 L230,163 L222,170 L205,172 L156,172 L134,173 L129,177 L124,185 L119,195 L112,205 L105,213 L100,218 L93,226 L84,232 L78,236 L59,246 L52,250 L41,253 L31,255 L28,256 L-2,256 L-15,254 L-30,250 L-38,246 L-44,243 L-52,238 L-61,233 L-68,226 L-75,221 L-82,213 L-91,202 L-99,188 L-107,171 L-108,170 L-109,159 L-111,153 L-113,136 L-113,125 L-110,102 L-108,93 L-104,83 L-98,69 L-92,59 L-85,48 L-79,43 L-70,32 L-62,26 L-54,20 L-40,12 L-28,7 L-19,4 Z M-61,95 L-70,97 L-76,101 L-86,111 L-90,121 L-90,141 L-87,148 L-81,156 L-70,163 L-62,165 L-50,165 L-39,161 L-31,154 L-26,146 L-23,137 L-23,126 L-25,116 L-32,104 L-42,97 L-50,95 Z " fill="#000000" transform="translate(630,254)"/>
<path d="M0,0 L2,0 L2,3 L0,3 Z " fill="#000000" transform="translate(270,340)"/>
<path d="M0,0 L11,1 L20,4 L30,13 L35,23 L36,27 L36,39 L31,50 L22,60 L12,65 L-3,65 L-19,57 L-25,48 L-28,40 L-28,28 L-24,17 L-19,10 L-10,4 Z " fill="#000000" transform="translate(455,352)"/>
<path d="M0,0 L8,0 L16,3 L27,10 L34,22 L36,31 L36,38 L33,46 L29,52 L23,59 L13,65 L10,66 L-2,66 L-15,61 L-22,54 L-27,46 L-29,39 L-29,26 L-25,16 L-18,7 L-11,2 Z " fill="#000000" transform="translate(365,385)"/>
<path d="M0,0 L14,0 L21,2 L30,8 L36,15 L40,27 L40,37 L37,46 L31,55 L26,59 L18,63 L9,65 L1,64 L-10,60 L-18,53 L-24,39 L-25,30 L-23,20 L-17,10 L-12,5 Z " fill="#000000" transform="translate(294,460)"/>
<path d="M0,0 L12,0 L22,3 L31,9 L37,17 L40,25 L41,37 L38,47 L32,55 L25,62 L16,65 L0,65 L-8,60 L-16,54 L-22,45 L-23,39 L-23,28 L-21,19 L-14,8 L-9,4 Z " fill="#000000" transform="translate(277,553)"/>
<path d="M0,0 L5,0 L8,5 L10,9 L19,12 L30,20 L35,25 L42,35 L48,50 L49,75 L49,191 L48,258 L48,299 L47,309 L47,341 L46,367 L41,384 L38,390 L28,402 L14,410 L-2,415 L-9,417 L-37,417 L-43,418 L-47,417 L-132,417 L-142,416 L-217,416 L-227,415 L-234,416 L-344,416 L-349,415 L-356,416 L-378,415 L-390,416 L-422,416 L-471,415 L-494,415 L-508,414 L-519,411 L-529,406 L-535,401 L-540,396 L-543,389 L-546,386 L-552,373 L-560,345 L-570,315 L-576,297 L-578,287 L-582,276 L-584,266 L-588,256 L-592,243 L-596,232 L-598,221 L-597,200 L-592,188 L-587,171 L-578,145 L-574,134 L-571,125 L-563,101 L-555,76 L-553,69 L-547,52 L-540,35 L-532,26 L-524,20 L-512,14 L-501,11 L-491,10 L-430,10 L-361,9 L-313,9 L-308,8 L-231,8 L-226,7 L-219,7 L-212,8 L-193,8 L-175,7 L-92,7 L-85,8 L-83,7 L-5,6 L-3,5 Z M-254,100 L-263,101 L-327,101 L-341,102 L-346,105 L-351,114 L-353,122 L-357,130 L-362,146 L-369,163 L-375,175 L-380,177 L-432,178 L-444,181 L-452,187 L-456,192 L-461,204 L-462,243 L-459,250 L-455,253 L-426,253 L-421,250 L-414,231 L-410,224 L-401,215 L-389,208 L-380,206 L-378,205 L-362,205 L-348,211 L-340,216 L-330,230 L-325,243 L-323,249 L-320,253 L-299,253 L-291,252 L-280,252 L-274,251 L-272,252 L-254,253 L-169,253 L-160,252 L-156,249 L-150,233 L-145,224 L-137,215 L-124,208 L-114,206 L-98,206 L-85,210 L-74,218 L-69,224 L-61,240 L-58,249 L-54,252 L-47,251 L-45,252 L-23,252 L-18,249 L-15,245 L-15,208 L-19,195 L-28,184 L-39,178 L-47,177 L-89,177 L-119,176 L-125,173 L-130,168 L-132,168 L-134,162 L-143,152 L-149,144 L-158,133 L-161,128 L-166,123 L-174,112 L-182,103 L-184,102 L-206,101 L-243,101 L-246,100 Z M-541,179 L-553,181 L-566,189 L-573,200 L-576,213 L-576,221 L-573,232 L-565,242 L-556,247 L-551,250 L-544,251 L-533,250 L-523,246 L-513,238 L-507,225 L-506,212 L-510,198 L-516,189 L-524,183 L-527,181 Z M-380,215 L-390,217 L-399,227 L-405,235 L-408,244 L-408,263 L-402,275 L-398,280 L-387,287 L-382,289 L-364,290 L-349,282 L-341,275 L-336,266 L-334,257 L-335,244 L-337,237 L-343,228 L-352,219 L-363,215 Z M-104,214 L-116,215 L-125,219 L-133,225 L-140,234 L-144,242 L-145,256 L-140,272 L-135,279 L-127,285 L-117,289 L-113,290 L-102,290 L-93,288 L-88,284 L-83,282 L-77,275 L-70,260 L-70,246 L-74,234 L-78,228 L-83,222 L-100,214 Z " fill="#000000" transform="translate(1053,611)"/>
<path d="M0,0 L18,0 L28,5 L34,10 L40,20 L42,31 L41,42 L36,50 L28,59 L20,63 L16,64 L3,64 L-9,59 L-18,48 L-22,40 L-22,23 L-16,13 L-11,7 Z " fill="#000000" transform="translate(277,649)"/>
<path d="M0,0 L30,0 L35,5 L36,8 L36,58 L34,63 L31,65 L-33,65 L-37,61 L-36,55 L-32,42 L-29,33 L-26,24 L-20,10 L-16,3 L-13,1 Z " fill="#000000" transform="translate(754,724)"/>
<path d="M0,0 L53,0 L63,9 L72,20 L82,33 L90,44 L94,50 L99,56 L100,58 L100,64 L98,66 L9,66 L0,65 L-5,62 L-7,57 L-8,47 L-8,9 L-5,2 Z " fill="#000000" transform="translate(809,723)"/>
<path d="M0,0 L11,0 L20,2 L30,8 L37,18 L40,27 L40,40 L37,47 L33,53 L30,54 L28,59 L21,63 L10,65 L-3,63 L-14,55 L-19,49 L-23,38 L-23,27 L-19,15 L-14,9 L-3,1 Z " fill="#000000" transform="translate(307,739)"/>
<path d="M0,0 L18,0 L26,6 L36,16 L39,25 L39,38 L33,50 L26,57 L16,62 L13,63 L0,63 L-11,58 L-16,53 L-23,45 L-25,36 L-25,25 L-19,13 L-15,8 L-10,4 Z " fill="#000000" transform="translate(386,795)"/>
<path d="M0,0 L3,1 L2,4 L-1,4 Z " fill="#000000" transform="translate(609,806)"/>
<path d="M0,0 L5,0 L7,2 L7,9 L1,24 L-3,35 L-7,43 L-12,57 L-19,73 L-23,84 L-26,86 L-32,86 L-33,84 L-32,74 L-28,66 L-23,52 L-14,27 L-9,17 L-7,8 L-2,1 Z " fill="#000000" transform="translate(263,1229)"/>
<path d="M0,0 L25,0 L32,1 L35,0 L46,0 L49,3 L49,10 L46,13 L40,14 L23,14 L13,15 L9,19 L9,29 L12,33 L39,33 L43,36 L43,45 L40,47 L13,47 L9,50 L8,67 L8,79 L5,82 L1,83 L-4,81 L-6,79 L-7,54 L-6,36 L-6,9 L-4,2 Z " fill="#000000" transform="translate(298,1230)"/>
<path d="M0,0 L18,1 L41,2 L49,7 L56,13 L61,23 L64,40 L62,58 L57,69 L50,77 L41,83 L32,84 L-2,84 L-5,81 L-6,74 L-6,6 L-2,1 Z M16,14 L11,17 L9,26 L9,65 L12,70 L22,72 L35,70 L43,64 L46,58 L48,49 L48,36 L45,25 L39,18 L33,15 Z " fill="#000000" transform="translate(152,1231)"/>
<path d="M0,0 L6,1 L11,9 L16,28 L19,42 L20,45 L20,52 L25,52 L27,44 L30,37 L33,25 L37,9 L40,3 L48,0 L54,4 L56,8 L58,18 L62,30 L64,40 L68,52 L71,52 L75,36 L79,21 L81,8 L88,0 L94,0 L97,3 L97,10 L90,34 L81,69 L76,81 L74,83 L67,83 L62,80 L58,69 L55,56 L53,52 L48,29 L44,27 L41,43 L36,59 L32,77 L29,82 L24,84 L19,84 L14,79 L11,71 L9,59 L0,23 L-2,15 L-2,3 Z " fill="#000000" transform="translate(358,1230)"/>
</svg>
