<?xml version="1.0" encoding="UTF-8"?>
<!-- Generator: visioncortex VTracer 0.6.12 -->
<svg version="1.1" xmlns="http://www.w3.org/2000/svg" width="1128" height="1119">
<path d="M0,0 L1128,0 L1128,1119 L0,1119 Z M48,4 L13,5 L11,8 L10,15 L9,58 L9,110 L8,247 L7,305 L7,344 L8,451 L7,547 L7,728 L8,756 L8,916 L7,956 L7,978 L8,1026 L8,1108 L11,1113 L29,1113 L36,1114 L87,1114 L108,1115 L138,1115 L149,1116 L210,1116 L219,1115 L283,1116 L953,1116 L1064,1115 L1117,1115 L1118,1114 L1119,1105 L1120,1069 L1120,1036 L1122,962 L1122,465 L1123,418 L1123,256 L1124,211 L1124,95 L1122,16 L1120,14 L1116,13 L1101,12 L1084,12 L1046,11 L1028,10 L921,9 L770,8 L733,7 L652,7 L594,6 L532,6 L374,5 L289,5 L190,4 Z " fill="#000000" transform="translate(0,0)"/>
<path d="M0,0 L14,1 L17,3 L18,14 L16,98 L12,100 L16,106 L16,178 L17,179 L59,180 L64,185 L70,199 L73,208 L76,214 L77,215 L125,216 L152,216 L155,214 L159,194 L161,182 L165,157 L168,144 L169,143 L192,144 L215,145 L245,147 L269,149 L272,154 L277,179 L282,214 L285,217 L309,218 L360,218 L406,219 L438,219 L449,220 L455,229 L466,254 L471,267 L474,271 L479,272 L509,271 L512,236 L515,178 L521,69 L523,39 L526,36 L539,36 L542,37 L543,39 L543,70 L542,106 L541,159 L540,190 L538,268 L541,272 L618,273 L624,277 L628,285 L633,299 L637,307 L642,321 L646,328 L674,329 L709,330 L712,333 L711,338 L703,359 L696,378 L690,393 L686,404 L684,411 L681,414 L672,414 L665,413 L622,412 L521,411 L486,411 L478,410 L442,410 L387,409 L265,408 L52,406 L11,406 L-199,405 L-279,405 L-286,402 L-290,394 L-296,372 L-305,340 L-310,322 L-315,304 L-322,277 L-323,275 L-323,268 L-321,266 L-309,265 L-213,266 L-88,266 L-85,257 L-79,227 L-73,199 L-69,182 L-65,179 L-19,179 L-16,178 L-14,152 L-12,132 L-9,83 L-6,40 L-5,19 L-3,4 Z M145,248 L136,249 L128,255 L117,269 L109,280 L103,287 L97,290 L35,292 L24,293 L22,295 L21,299 L21,310 L27,317 L30,332 L31,344 L35,351 L39,355 L45,369 L53,378 L63,383 L75,384 L88,379 L97,371 L103,360 L105,353 L112,352 L162,353 L208,353 L261,354 L264,357 L269,370 L276,378 L282,382 L288,384 L301,385 L312,381 L321,373 L325,365 L328,356 L329,355 L359,355 L362,350 L364,340 L366,314 L363,305 L358,301 L352,299 L327,296 L312,294 L302,289 L292,278 L284,268 L273,255 L268,251 L264,249 L180,248 Z " fill="#000000" transform="translate(362,297)"/>
<path d="M0,0 L46,1 L50,4 L51,17 L51,29 L49,36 L44,37 L0,36 L-22,36 L-25,34 L-24,29 L-11,11 L-4,2 Z " fill="#000000" transform="translate(505,555)"/>
<path d="M0,0 L14,0 L41,1 L48,6 L53,18 L56,27 L57,28 L57,34 L55,36 L-1,36 L-4,32 L-4,4 Z " fill="#000000" transform="translate(570,556)"/>
<path d="M0,0 L9,0 L16,4 L20,9 L21,11 L21,21 L16,29 L11,32 L2,33 L-3,30 L-8,26 L-11,20 L-10,11 L-6,4 Z " fill="#000000" transform="translate(428,633)"/>
<path d="M0,0 L9,0 L17,6 L19,11 L19,20 L15,27 L8,31 L-1,31 L-7,27 L-12,20 L-12,12 L-8,5 Z " fill="#000000" transform="translate(654,635)"/>
</svg>
