<?xml version="1.0" encoding="UTF-8"?>
<!-- Generator: visioncortex VTracer 0.6.12 -->
<svg version="1.1" xmlns="http://www.w3.org/2000/svg" width="1200" height="1203">
<path d="M0,0 L27,0 L36,1 L63,1 L108,2 L203,3 L238,3 L305,5 L340,5 L442,6 L472,6 L483,7 L531,6 L540,8 L563,7 L579,8 L664,9 L706,9 L786,10 L794,11 L862,11 L880,12 L921,12 L955,13 L987,13 L1083,15 L1088,19 L1089,22 L1090,33 L1090,58 L1089,73 L1089,138 L1088,222 L1088,314 L1087,320 L1087,364 L1088,370 L1088,382 L1087,389 L1087,419 L1086,502 L1086,539 L1085,621 L1084,626 L1084,638 L1085,641 L1085,657 L1084,667 L1085,672 L1084,713 L1085,719 L1084,753 L1085,783 L1083,788 L1083,799 L1084,807 L1084,909 L1085,981 L1084,988 L1085,1001 L1085,1022 L1084,1031 L1084,1042 L1085,1057 L1085,1074 L1084,1086 L1084,1116 L1082,1127 L1077,1131 L1074,1132 L1059,1133 L1054,1132 L1021,1132 L1006,1131 L982,1132 L975,1131 L894,1131 L847,1130 L792,1130 L785,1129 L752,1129 L663,1127 L646,1128 L617,1127 L558,1125 L544,1124 L495,1124 L490,1125 L440,1125 L431,1124 L401,1125 L376,1124 L354,1124 L345,1125 L330,1125 L318,1124 L244,1124 L230,1123 L129,1123 L102,1122 L85,1121 L56,1121 L39,1120 L-9,1120 L-14,1117 L-16,1115 L-16,1094 L-14,1084 L-14,1075 L-16,1066 L-16,924 L-15,907 L-14,800 L-13,767 L-13,688 L-12,674 L-11,638 L-12,600 L-12,582 L-11,539 L-11,56 L-10,7 L-7,2 Z M12,13 L4,17 L2,20 L0,52 L0,96 L-1,134 L-2,194 L-2,369 L-3,393 L-2,403 L-2,417 L-3,427 L-3,593 L-4,630 L-4,1101 L1,1106 L30,1107 L37,1108 L100,1109 L131,1110 L237,1110 L307,1111 L325,1111 L331,1110 L341,1111 L371,1111 L396,1112 L472,1113 L500,1113 L595,1114 L664,1114 L674,1115 L685,1115 L690,1116 L715,1116 L728,1115 L732,1116 L800,1117 L851,1117 L900,1118 L951,1118 L963,1119 L1004,1119 L1010,1120 L1044,1120 L1055,1121 L1065,1120 L1069,1118 L1074,1112 L1075,1107 L1075,1093 L1074,1092 L1073,1082 L1073,1031 L1074,996 L1074,983 L1077,980 L1077,978 L1075,977 L1075,947 L1076,934 L1076,890 L1078,884 L1078,879 L1077,878 L1077,867 L1076,858 L1076,831 L1077,823 L1076,804 L1076,789 L1077,780 L1075,766 L1077,742 L1078,741 L1078,736 L1077,735 L1076,720 L1076,619 L1077,520 L1078,503 L1079,500 L1079,491 L1078,488 L1078,475 L1080,468 L1078,457 L1079,450 L1078,448 L1077,434 L1078,419 L1079,416 L1079,401 L1077,395 L1078,314 L1078,273 L1080,269 L1080,258 L1078,250 L1078,238 L1079,233 L1079,223 L1080,216 L1079,209 L1081,206 L1081,200 L1080,199 L1080,190 L1081,184 L1080,174 L1079,168 L1079,143 L1078,130 L1078,84 L1079,58 L1082,51 L1081,37 L1077,29 L1075,27 L1070,26 L1057,27 L968,26 L933,25 L922,24 L864,24 L830,23 L826,22 L799,23 L790,22 L759,22 L735,21 L658,21 L624,20 L609,19 L603,20 L564,19 L522,18 L269,18 L249,19 L210,18 L153,17 L96,17 L66,16 L57,16 L51,15 L24,14 Z " fill="#000000" transform="translate(52,36)"/>
<path d="M0,0 L8,1 L13,5 L19,16 L18,20 L12,29 L4,33 L2,33 L0,38 L0,46 L1,48 L1,56 L-2,62 L-9,68 L-18,72 L-17,78 L-14,85 L-14,92 L-18,100 L-28,106 L-28,114 L-27,123 L-31,132 L-40,139 L-41,158 L-44,163 L-48,166 L-55,169 L-57,171 L-57,177 L-55,182 L-55,190 L-58,195 L-65,200 L-72,199 L-77,195 L-79,190 L-79,182 L-75,176 L-71,173 L-65,171 L-63,169 L-63,163 L-65,158 L-65,146 L-60,141 L-54,136 L-54,118 L-50,111 L-41,105 L-40,104 L-40,97 L-41,95 L-41,82 L-36,76 L-25,70 L-24,63 L-28,54 L-28,48 L-24,42 L-16,37 L-12,35 L-12,26 L-15,19 L-14,11 L-8,3 Z " fill="#000000" transform="translate(434,97)"/>
<path d="M0,0 L10,1 L18,8 L23,12 L28,10 L34,3 L39,0 L47,0 L54,4 L58,9 L59,11 L59,23 L52,31 L48,34 L48,41 L51,49 L50,60 L46,65 L42,69 L41,76 L43,82 L43,92 L39,100 L35,104 L35,113 L37,118 L36,126 L30,135 L28,142 L29,147 L29,157 L23,165 L19,169 L18,176 L21,183 L21,191 L18,196 L13,200 L6,201 L0,197 L-4,191 L-4,183 L-1,177 L5,173 L6,171 L6,164 L3,156 L3,148 L7,142 L11,138 L11,130 L9,124 L9,117 L14,110 L18,106 L19,104 L19,98 L16,91 L16,83 L22,75 L25,71 L25,65 L21,55 L21,49 L27,40 L31,36 L32,29 L28,23 L22,22 L14,29 L9,32 L7,35 L7,43 L8,47 L8,56 L2,64 L-7,69 L-8,74 L-5,81 L-5,93 L-9,99 L-14,104 L-15,112 L-14,116 L-14,124 L-17,130 L-24,138 L-25,158 L-30,164 L-36,167 L-38,167 L-38,176 L-35,184 L-36,192 L-40,198 L-44,200 L-53,200 L-59,193 L-61,189 L-59,180 L-55,175 L-48,170 L-49,161 L-50,158 L-50,147 L-46,140 L-41,136 L-41,124 L-39,114 L-32,106 L-30,104 L-31,96 L-31,82 L-24,74 L-18,70 L-18,64 L-22,53 L-21,48 L-14,37 L-11,34 L-10,27 L-14,19 L-15,14 L-7,4 Z " fill="#000000" transform="translate(472,98)"/>
<path d="M0,0 L8,0 L14,3 L22,12 L27,12 L33,4 L40,1 L49,1 L55,4 L61,12 L65,13 L70,8 L79,2 L89,2 L95,6 L100,11 L101,21 L95,31 L96,39 L101,48 L102,51 L102,58 L98,66 L98,76 L103,84 L104,94 L102,101 L102,108 L107,119 L106,129 L104,133 L104,141 L109,150 L109,160 L105,167 L105,174 L112,184 L113,191 L109,198 L102,203 L96,202 L88,195 L87,186 L91,176 L90,169 L84,160 L83,152 L87,143 L87,137 L82,130 L81,127 L81,116 L83,111 L82,102 L77,92 L77,85 L80,79 L81,78 L81,70 L73,59 L72,50 L76,41 L75,33 L67,22 L63,21 L59,23 L53,33 L54,40 L58,47 L59,56 L55,66 L53,69 L54,76 L58,83 L58,94 L53,104 L54,111 L58,119 L57,127 L53,135 L53,144 L56,149 L57,158 L54,167 L54,175 L56,182 L56,192 L53,197 L49,200 L43,201 L36,199 L31,192 L31,184 L35,174 L34,165 L31,159 L32,152 L36,141 L35,134 L31,128 L31,118 L36,110 L36,103 L31,94 L31,86 L35,76 L35,66 L30,58 L30,49 L35,39 L35,32 L33,25 L28,23 L26,20 L22,21 L18,25 L13,30 L10,36 L11,41 L14,46 L15,49 L15,57 L11,65 L7,70 L8,78 L10,82 L10,94 L4,105 L5,112 L7,117 L7,124 L0,137 L0,145 L3,154 L2,160 L-4,169 L-4,177 L-1,185 L-1,191 L-8,199 L-11,201 L-16,200 L-24,193 L-26,189 L-25,183 L-18,171 L-19,165 L-22,155 L-21,148 L-16,142 L-15,140 L-15,134 L-19,126 L-19,118 L-15,110 L-14,106 L-14,99 L-16,92 L-16,85 L-12,76 L-10,68 L-14,59 L-14,49 L-8,41 L-5,36 L-7,27 L-11,20 L-11,11 L-6,3 Z " fill="#000000" transform="translate(551,98)"/>
<path d="M0,0 L7,0 L15,6 L19,11 L21,14 L21,21 L16,29 L17,38 L24,48 L24,59 L21,66 L21,73 L28,79 L30,82 L31,90 L29,98 L28,100 L28,106 L36,117 L37,126 L35,134 L35,139 L41,148 L42,151 L42,159 L38,167 L39,174 L45,179 L48,187 L46,195 L42,200 L40,201 L33,201 L25,196 L23,190 L24,181 L26,178 L26,170 L18,162 L16,157 L16,150 L17,147 L17,137 L12,130 L11,119 L13,110 L12,104 L4,94 L3,92 L3,83 L6,78 L6,72 L4,68 L-3,62 L-6,56 L-6,50 L-1,41 L-1,35 L-6,28 L-12,23 L-14,15 L-10,8 L-5,3 Z " fill="#000000" transform="translate(672,99)"/>
<path d="M0,0 L10,1 L15,4 L20,12 L20,21 L15,29 L15,36 L17,38 L22,38 L27,46 L29,49 L29,59 L26,68 L28,73 L35,80 L38,86 L38,94 L37,97 L37,105 L41,110 L46,115 L47,117 L47,128 L46,131 L46,138 L53,145 L56,150 L56,161 L53,168 L54,173 L63,180 L66,186 L65,194 L57,201 L52,202 L46,199 L41,193 L41,183 L43,179 L43,173 L39,168 L33,163 L31,159 L31,150 L32,147 L32,139 L23,130 L20,123 L21,116 L22,107 L18,102 L13,98 L10,92 L10,85 L12,79 L12,73 L8,68 L2,63 L-1,57 L0,49 L4,39 L4,34 L-1,32 L-7,28 L-11,23 L-13,20 L-13,13 L-7,5 Z M15,43 L11,49 L12,53 L17,51 L18,45 L17,43 Z " fill="#000000" transform="translate(712,99)"/>
<path d="M0,0 L6,0 L11,4 L16,13 L15,22 L13,28 L14,35 L18,38 L25,42 L28,48 L28,59 L25,67 L26,71 L36,76 L40,81 L41,84 L41,94 L40,98 L40,105 L50,112 L54,116 L55,123 L52,132 L53,139 L62,144 L67,152 L67,159 L63,165 L58,169 L52,168 L46,164 L42,159 L42,151 L44,147 L43,138 L38,135 L30,129 L28,125 L29,116 L29,104 L23,102 L16,94 L14,87 L17,77 L16,70 L5,64 L1,59 L0,50 L3,40 L2,35 L-3,32 L-11,27 L-15,20 L-15,12 L-8,4 Z " fill="#000000" transform="translate(755,100)"/>
<path d="M0,0 L7,1 L15,6 L17,15 L15,21 L9,26 L2,27 L-4,24 L-8,18 L-8,10 L-2,1 Z " fill="#000000" transform="translate(818,274)"/>
<path d="M0,0 L9,0 L16,8 L16,17 L12,23 L9,25 L2,25 L-4,21 L-7,17 L-7,8 L-5,4 Z " fill="#000000" transform="translate(410,306)"/>
<path d="M0,0 L7,1 L12,7 L13,10 L13,18 L9,24 L4,26 L-4,25 L-10,18 L-11,11 L-7,5 L-2,1 Z " fill="#000000" transform="translate(473,306)"/>
<path d="M0,0 L10,0 L14,4 L16,9 L15,18 L13,22 L8,25 L1,24 L-8,18 L-10,14 L-9,8 L-2,1 Z " fill="#000000" transform="translate(349,307)"/>
<path d="M0,0 L6,0 L11,4 L13,9 L12,17 L9,23 L3,26 L-3,24 L-8,19 L-10,15 L-10,9 L-6,4 Z " fill="#000000" transform="translate(532,307)"/>
<path d="M0,0 L6,0 L13,8 L14,17 L10,23 L7,25 L-3,25 L-9,20 L-10,18 L-10,10 L-4,2 Z " fill="#000000" transform="translate(652,308)"/>
<path d="M0,0 L8,0 L14,5 L16,8 L16,16 L13,22 L6,25 L-1,24 L-6,20 L-8,16 L-8,10 L-3,2 Z " fill="#000000" transform="translate(590,309)"/>
<path d="M0,0 L6,1 L11,5 L14,12 L12,20 L6,25 L-2,26 L-8,21 L-10,17 L-9,7 L-3,1 Z " fill="#000000" transform="translate(773,309)"/>
<path d="M0,0 L6,0 L13,6 L15,13 L13,20 L7,25 L0,25 L-6,21 L-9,17 L-8,8 L-2,1 Z " fill="#000000" transform="translate(832,310)"/>
<path d="M0,0 L8,0 L13,3 L16,8 L16,16 L13,21 L7,24 L1,23 L-4,20 L-7,17 L-7,7 L-2,1 Z " fill="#000000" transform="translate(709,311)"/>
<path d="M0,0 L9,1 L13,5 L14,16 L11,21 L7,24 L-1,23 L-6,18 L-8,15 L-8,8 L-5,3 Z " fill="#000000" transform="translate(335,347)"/>
<path d="M0,0 L7,0 L13,4 L15,7 L15,17 L12,22 L8,24 L1,23 L-5,19 L-7,9 L-4,3 Z " fill="#000000" transform="translate(398,348)"/>
<path d="M0,0 L7,3 L11,10 L10,17 L6,23 L4,24 L-3,24 L-9,20 L-11,15 L-10,8 L-5,2 Z " fill="#000000" transform="translate(466,348)"/>
<path d="M0,0 L6,0 L11,7 L11,16 L7,23 L0,23 L-7,19 L-9,16 L-9,7 L-5,2 Z " fill="#000000" transform="translate(529,349)"/>
<path d="M0,0 L6,1 L11,5 L13,14 L10,20 L7,23 L1,24 L-7,20 L-9,15 L-9,9 L-2,1 Z " fill="#000000" transform="translate(592,349)"/>
<path d="M0,0 L6,1 L11,5 L12,7 L12,16 L4,23 L-4,22 L-10,15 L-11,10 L-7,4 L-3,1 Z " fill="#000000" transform="translate(656,351)"/>
<path d="M0,0 L6,0 L11,4 L13,8 L13,16 L9,21 L6,23 L-1,23 L-7,18 L-9,14 L-8,7 Z " fill="#000000" transform="translate(719,352)"/>
<path d="M0,0 L6,1 L11,4 L13,11 L12,18 L7,23 L-2,23 L-7,17 L-8,15 L-7,6 Z " fill="#000000" transform="translate(784,352)"/>
<path d="M0,0 L5,2 L9,5 L11,10 L10,16 L5,22 L-4,24 L-14,22 L-15,19 L-12,9 L-6,2 Z " fill="#000000" transform="translate(852,353)"/>
<path d="M0,0 L6,2 L11,8 L11,17 L7,23 L3,25 L-2,24 L-10,18 L-11,17 L-11,9 L-6,4 Z " fill="#000000" transform="translate(320,387)"/>
<path d="M0,0 L7,0 L13,5 L14,8 L14,17 L9,22 L2,23 L-4,19 L-7,13 L-6,6 Z " fill="#000000" transform="translate(386,390)"/>
<path d="M0,0 L6,1 L11,7 L12,14 L10,20 L4,24 L-2,23 L-7,19 L-10,14 L-9,7 L-3,1 Z " fill="#000000" transform="translate(457,390)"/>
<path d="M0,0 L5,1 L10,4 L13,9 L13,17 L8,22 L7,23 L-2,23 L-7,17 L-8,15 L-8,8 L-2,1 Z " fill="#000000" transform="translate(524,391)"/>
<path d="M0,0 L9,1 L13,5 L14,8 L14,15 L10,21 L9,22 L-1,22 L-6,17 L-8,14 L-7,8 L-3,2 Z " fill="#000000" transform="translate(590,392)"/>
<path d="M0,0 L7,1 L12,7 L12,16 L7,21 L-1,23 L-6,20 L-9,16 L-9,8 L-4,2 Z " fill="#000000" transform="translate(660,393)"/>
<path d="M0,0 L6,2 L11,7 L12,15 L8,21 L5,23 L-3,23 L-8,18 L-9,10 L-6,4 L-3,1 Z " fill="#000000" transform="translate(728,392)"/>
<path d="M0,0 L6,0 L11,5 L12,7 L12,15 L7,21 L5,22 L-2,22 L-7,18 L-8,16 L-8,7 L-3,1 Z " fill="#000000" transform="translate(797,395)"/>
<path d="M0,0 L5,1 L10,6 L11,8 L11,15 L7,21 L5,22 L-5,22 L-10,17 L-11,12 L-8,5 Z " fill="#000000" transform="translate(867,396)"/>
<path d="M0,0 L6,2 L10,7 L10,18 L6,22 L-1,23 L-6,20 L-11,13 L-11,7 L-6,2 Z " fill="#000000" transform="translate(305,429)"/>
<path d="M0,0 L5,1 L10,6 L11,15 L8,21 L4,23 L-1,22 L-7,18 L-10,13 L-9,7 L-5,2 Z " fill="#000000" transform="translate(377,430)"/>
<path d="M0,0 L5,0 L10,6 L11,16 L6,22 L4,23 L-2,23 L-8,18 L-9,16 L-9,8 L-3,1 Z " fill="#000000" transform="translate(449,430)"/>
<path d="M0,0 L6,0 L11,6 L12,12 L9,19 L4,22 L-3,21 L-8,17 L-9,15 L-9,9 L-5,3 Z " fill="#000000" transform="translate(521,432)"/>
<path d="M0,0 L7,3 L10,6 L10,16 L6,21 L4,22 L-3,22 L-8,19 L-10,16 L-9,8 L-4,2 Z " fill="#000000" transform="translate(593,432)"/>
<path d="M0,0 L6,0 L12,5 L13,12 L8,20 L7,21 L-1,21 L-6,17 L-8,10 L-6,5 Z " fill="#000000" transform="translate(662,433)"/>
<path d="M0,0 L7,1 L10,6 L11,8 L11,14 L8,19 L3,22 L-3,21 L-8,17 L-9,15 L-9,9 L-2,1 Z " fill="#000000" transform="translate(735,434)"/>
<path d="M0,0 L6,1 L11,7 L11,14 L8,19 L4,22 L-3,21 L-8,16 L-8,9 L-2,1 Z " fill="#000000" transform="translate(809,435)"/>
<path d="M0,0 L7,0 L12,5 L12,14 L8,19 L6,20 L-1,20 L-7,16 L-8,14 L-8,7 L-3,2 Z " fill="#000000" transform="translate(880,437)"/>
<path d="M0,0 L7,0 L12,4 L13,6 L13,17 L9,21 L0,21 L-7,15 L-8,13 L-8,6 L-5,3 Z " fill="#000000" transform="translate(286,471)"/>
<path d="M0,0 L7,0 L12,5 L13,10 L10,17 L6,20 L0,20 L-5,15 L-6,14 L-6,7 L-2,1 Z " fill="#000000" transform="translate(363,471)"/>
<path d="M0,0 L6,0 L11,6 L12,8 L12,14 L6,21 L-1,21 L-8,15 L-8,7 Z " fill="#000000" transform="translate(440,472)"/>
<path d="M0,0 L8,0 L13,5 L14,12 L11,17 L8,20 L1,20 L-4,15 L-6,12 L-5,6 Z " fill="#000000" transform="translate(514,473)"/>
<path d="M0,0 L6,0 L11,4 L13,8 L12,14 L7,19 L5,20 L-2,20 L-6,15 L-7,8 L-4,3 Z " fill="#000000" transform="translate(590,473)"/>
<path d="M0,0 L7,1 L12,8 L11,14 L6,19 L0,20 L-5,18 L-8,11 L-6,5 Z " fill="#000000" transform="translate(666,474)"/>
<path d="M0,0 L5,2 L9,7 L10,13 L7,18 L3,21 L-3,21 L-8,16 L-9,8 L-5,3 Z " fill="#000000" transform="translate(743,474)"/>
<path d="M0,0 L7,1 L12,7 L12,13 L7,19 L-1,19 L-6,15 L-7,13 L-7,6 L-2,1 Z " fill="#000000" transform="translate(819,476)"/>
<path d="M0,0 L5,2 L9,7 L10,12 L7,18 L4,20 L-5,19 L-10,15 L-10,6 L-3,1 Z " fill="#000000" transform="translate(898,477)"/>
<path d="M0,0 L50,0 L62,1 L90,1 L174,2 L183,2 L190,3 L227,3 L255,4 L273,5 L323,5 L386,6 L407,7 L423,12 L435,10 L439,9 L444,12 L446,15 L446,23 L445,28 L446,41 L452,51 L460,58 L461,61 L461,79 L468,99 L475,113 L478,125 L483,139 L487,149 L492,162 L496,170 L499,173 L503,180 L511,190 L519,200 L531,215 L542,229 L547,237 L552,253 L552,324 L551,334 L551,358 L549,370 L547,377 L547,385 L552,395 L551,402 L550,403 L544,403 L535,397 L528,398 L515,403 L506,405 L487,406 L477,405 L420,405 L398,403 L363,403 L280,402 L270,401 L260,402 L256,401 L169,401 L120,400 L16,399 L-7,399 L-53,400 L-68,400 L-79,401 L-86,400 L-115,399 L-128,394 L-134,391 L-142,390 L-149,394 L-152,396 L-158,395 L-160,391 L-159,383 L-156,377 L-155,372 L-155,361 L-158,353 L-158,273 L-155,240 L-147,224 L-141,214 L-130,200 L-123,189 L-120,188 L-118,184 L-112,174 L-105,163 L-99,155 L-93,146 L-88,134 L-84,124 L-80,109 L-74,95 L-69,87 L-65,73 L-64,56 L-60,48 L-53,42 L-48,33 L-48,25 L-52,17 L-53,13 L-50,8 L-44,3 L-36,4 L-26,6 L-16,2 Z M-6,25 L-15,29 L-23,36 L-27,43 L-38,68 L-43,80 L-48,94 L-53,104 L-59,119 L-71,151 L-71,161 L-67,164 L-61,165 L-39,166 L-16,166 L-6,165 L-1,160 L3,154 L8,151 L14,152 L18,156 L21,163 L27,166 L40,167 L87,167 L92,163 L98,154 L101,152 L110,152 L117,165 L122,167 L138,168 L149,169 L178,168 L184,165 L191,155 L195,153 L201,154 L209,165 L212,168 L220,169 L241,170 L262,170 L275,168 L281,160 L286,155 L292,154 L297,157 L301,165 L306,169 L310,171 L335,171 L368,170 L373,165 L378,156 L382,154 L387,154 L392,159 L397,169 L398,170 L406,170 L409,171 L450,172 L460,171 L466,168 L467,166 L467,159 L462,145 L458,133 L454,124 L450,112 L444,99 L438,80 L430,60 L426,51 L421,42 L414,34 L402,30 L373,29 L329,29 L286,28 L214,27 L160,26 L142,26 L101,25 Z M103,176 L102,180 L106,181 L104,176 Z M413,192 L413,195 L415,195 L414,192 Z M478,207 L476,212 L478,216 L483,216 L484,215 L483,208 Z M-77,221 L-89,227 L-99,236 L-105,244 L-110,253 L-111,257 L-111,280 L-108,287 L-104,293 L-99,298 L-97,303 L-90,310 L-77,315 L-73,316 L-63,316 L-58,315 L-51,315 L-39,309 L-33,304 L-24,291 L-20,280 L-20,259 L-24,246 L-29,238 L-38,229 L-54,221 Z M453,226 L437,234 L426,244 L421,254 L418,262 L418,284 L425,301 L434,311 L444,318 L451,321 L459,323 L464,324 L480,321 L486,317 L492,314 L498,307 L503,302 L506,294 L509,290 L511,281 L511,272 L509,263 L504,248 L493,236 L484,230 L475,227 L470,226 Z M-132,246 L-134,248 L-133,252 L-128,251 L-129,247 Z M-129,263 L-131,265 L-130,269 L-128,271 L-124,270 L-123,266 L-126,263 Z M287,320 L285,321 L286,325 L289,324 L288,320 Z M224,334 L224,337 L227,338 L228,334 Z M176,335 L175,340 L177,342 L182,341 L186,337 L185,335 Z M460,342 L460,345 L463,344 L462,342 Z M3,372 L1,374 L1,379 L4,380 L7,378 L6,373 Z " fill="#000000" transform="translate(395,510)"/>
<path d="M0,0 L6,0 L11,5 L11,15 L7,19 L-3,18 L-9,12 L-9,7 Z " fill="#000000" transform="translate(271,513)"/>
<path d="M0,0 L6,0 L11,5 L12,11 L9,16 L5,18 L-1,17 L-6,13 L-7,9 L-3,2 Z " fill="#000000" transform="translate(911,522)"/>
<path d="M0,0 L6,0 L11,5 L12,7 L12,16 L7,20 L-1,19 L-7,15 L-9,12 L-9,6 L-5,2 Z " fill="#000000" transform="translate(252,557)"/>
<path d="M0,0 L8,0 L12,5 L13,11 L10,18 L8,19 L1,19 L-5,14 L-6,7 L-2,1 Z " fill="#000000" transform="translate(421,559)"/>
<path d="M0,0 L7,1 L11,5 L11,15 L6,19 L0,20 L-6,16 L-7,9 L-4,2 Z " fill="#000000" transform="translate(507,559)"/>
<path d="M0,0 L6,1 L11,6 L12,13 L8,19 L6,20 L-1,20 L-6,16 L-7,11 L-4,3 Z " fill="#000000" transform="translate(590,560)"/>
<path d="M0,0 L5,0 L10,4 L11,13 L8,18 L6,19 L-2,19 L-6,16 L-7,9 L-3,2 Z " fill="#000000" transform="translate(674,562)"/>
<path d="M0,0 L8,0 L13,6 L12,13 L10,17 L8,18 L0,18 L-5,14 L-5,7 Z " fill="#000000" transform="translate(758,564)"/>
<path d="M0,0 L6,0 L11,5 L11,13 L6,17 L1,18 L-6,15 L-7,14 L-7,5 L-2,1 Z " fill="#000000" transform="translate(928,566)"/>
<path d="M0,0 L8,0 L12,4 L13,7 L13,14 L9,18 L2,18 L-4,15 L-6,12 L-6,5 Z " fill="#000000" transform="translate(231,608)"/>
<path d="M0,0 L6,0 L11,6 L11,14 L6,19 L-1,18 L-6,13 L-7,8 L-3,2 Z " fill="#000000" transform="translate(413,609)"/>
<path d="M0,0 L6,0 L11,4 L12,6 L12,14 L7,19 L1,19 L-6,13 L-5,6 L-2,1 Z " fill="#000000" transform="translate(501,609)"/>
<path d="M0,0 L7,0 L11,4 L12,11 L9,16 L7,17 L-2,17 L-6,12 L-5,5 Z " fill="#000000" transform="translate(589,611)"/>
<path d="M0,0 L6,0 L11,4 L12,6 L12,13 L7,17 L0,16 L-4,13 L-5,6 Z " fill="#000000" transform="translate(678,613)"/>
<path d="M0,0 L5,2 L8,7 L7,14 L3,17 L-4,18 L-8,14 L-9,8 L-6,3 L-4,1 Z " fill="#000000" transform="translate(770,613)"/>
<path d="M0,0 L8,0 L13,6 L12,13 L8,17 L6,18 L0,18 L-5,14 L-5,6 L-2,1 Z " fill="#000000" transform="translate(946,615)"/>
<path d="M0,0 L5,2 L7,4 L8,13 L5,18 L-4,18 L-9,13 L-10,7 L-5,2 Z " fill="#000000" transform="translate(215,658)"/>
<path d="M0,0 L9,0 L13,5 L13,11 L8,17 L0,17 L-5,11 L-4,5 Z " fill="#000000" transform="translate(965,666)"/>
<path d="M0,0 L6,0 L9,3 L10,10 L7,15 L0,17 L-6,12 L-7,6 L-6,3 Z " fill="#000000" transform="translate(191,715)"/>
<path d="M0,0 L6,1 L8,3 L9,8 L7,14 L4,16 L-2,15 L-5,11 L-6,7 L-3,2 Z " fill="#000000" transform="translate(988,724)"/>
<path d="M0,0 L6,3 L7,9 L5,14 L2,16 L-3,15 L-8,11 L-9,6 L-6,2 Z " fill="#000000" transform="translate(171,772)"/>
<path d="M0,0 L6,1 L11,5 L10,12 L7,16 L0,16 L-5,12 L-4,3 Z " fill="#000000" transform="translate(1009,780)"/>
<path d="M0,0 L6,0 L12,5 L12,11 L9,15 L1,15 L-4,12 L-5,7 L-2,2 Z " fill="#000000" transform="translate(144,831)"/>
<path d="M0,0 L7,0 L11,3 L11,13 L6,16 L-1,14 L-4,10 L-3,4 Z " fill="#000000" transform="translate(1030,841)"/>
<path d="M0,0 L7,1 L11,6 L10,12 L6,16 L0,15 L-5,11 L-5,5 Z " fill="#000000" transform="translate(121,891)"/>
<path d="M0,0 L6,0 L9,4 L10,8 L7,13 L4,15 L-1,14 L-6,11 L-7,7 L-4,2 Z " fill="#000000" transform="translate(1055,902)"/>
<path d="M0,0 L9,1 L17,2 L46,2 L55,5 L60,11 L61,14 L61,32 L60,73 L59,100 L56,113 L50,121 L38,127 L15,127 L9,128 L-14,127 L-24,123 L-31,115 L-34,108 L-35,92 L-35,11 L-31,5 L-24,1 L-3,1 Z M12,79 L11,84 L13,86 L17,85 L17,80 Z " fill="#000000" transform="translate(313,917)"/>
<path d="M0,0 L57,0 L77,1 L83,5 L85,9 L86,17 L86,36 L85,56 L85,81 L84,99 L82,108 L78,116 L72,121 L67,124 L35,126 L11,126 L-3,119 L-8,112 L-10,107 L-11,86 L-11,52 L-12,28 L-11,11 L-9,4 L-4,1 Z " fill="#000000" transform="translate(820,924)"/>
<path d="M0,0 L7,0 L10,3 L10,10 L7,13 L4,15 L-2,14 L-5,10 L-5,4 L-2,1 Z " fill="#000000" transform="translate(218,954)"/>
<path d="M0,0 L6,0 L8,2 L9,9 L6,14 L-1,15 L-6,10 L-5,4 Z " fill="#000000" transform="translate(466,956)"/>
<path d="M0,0 L5,2 L7,5 L7,11 L4,15 L-2,15 L-7,11 L-7,4 L-2,1 Z " fill="#000000" transform="translate(589,957)"/>
<path d="M0,0 L7,1 L10,4 L11,9 L8,14 L0,14 L-4,10 L-4,4 Z " fill="#000000" transform="translate(709,960)"/>
<path d="M0,0 L6,0 L11,4 L12,8 L9,13 L7,14 L-1,14 L-3,12 L-3,4 Z " fill="#000000" transform="translate(955,960)"/>
<path d="M0,0 L7,2 L9,7 L8,12 L4,15 L-2,15 L-6,11 L-7,5 L-3,1 Z " fill="#000000" transform="translate(202,1017)"/>
<path d="M0,0 L7,1 L10,5 L9,12 L7,14 L-1,14 L-4,11 L-4,4 Z " fill="#000000" transform="translate(459,1018)"/>
<path d="M0,0 L7,0 L9,2 L9,9 L5,13 L0,12 L-3,9 L-2,2 Z " fill="#000000" transform="translate(586,1022)"/>
<path d="M0,0 L6,0 L10,4 L9,11 L5,14 L-1,14 L-5,10 L-5,3 Z " fill="#000000" transform="translate(716,1023)"/>
<path d="M0,0 L5,2 L8,5 L8,10 L4,15 L-1,14 L-6,9 L-3,2 Z " fill="#000000" transform="translate(976,1025)"/>
<path d="M0,0 L3,2 L2,6 L-2,7 L-3,2 Z " fill="#000000" transform="translate(984,1097)"/>
</svg>
