<?xml version="1.0" encoding="UTF-8"?>
<!-- Generator: visioncortex VTracer 0.6.12 -->
<svg version="1.1" xmlns="http://www.w3.org/2000/svg" width="1308" height="1332">
<path d="M0,0 L20,1 L43,2 L99,2 L156,3 L236,3 L266,4 L269,3 L278,3 L285,4 L370,4 L380,5 L467,5 L511,6 L529,6 L535,9 L536,13 L531,17 L526,18 L460,17 L442,17 L405,16 L292,16 L230,15 L209,14 L117,14 L113,13 L110,14 L63,14 L56,13 L48,14 L39,13 L15,13 L8,18 L6,33 L6,58 L5,136 L4,172 L4,249 L3,273 L3,328 L2,382 L2,410 L1,450 L1,499 L0,528 L0,577 L-1,687 L-2,742 L-3,778 L-3,820 L-4,865 L-5,874 L-5,911 L-6,951 L-6,1003 L-5,1008 L3,1009 L32,1010 L147,1010 L204,1011 L229,1011 L234,1012 L292,1012 L296,1011 L299,1012 L326,1012 L341,1013 L385,1013 L422,1014 L498,1014 L525,1016 L529,1015 L612,1016 L697,1016 L746,1017 L802,1017 L872,1018 L907,1019 L928,1019 L936,1020 L944,1019 L970,1020 L984,1019 L986,1015 L987,994 L989,905 L989,850 L990,822 L990,768 L991,725 L992,601 L994,486 L994,406 L995,384 L995,350 L996,301 L997,229 L997,167 L998,127 L997,25 L994,23 L936,22 L908,21 L852,21 L835,20 L764,20 L739,19 L629,19 L554,18 L540,17 L538,14 L539,9 L542,6 L580,7 L684,7 L765,8 L803,8 L826,9 L886,9 L944,10 L981,10 L984,11 L1010,12 L1015,16 L1017,21 L1017,79 L1015,95 L1015,210 L1014,228 L1014,286 L1013,373 L1012,431 L1012,467 L1011,530 L1010,635 L1009,710 L1009,749 L1008,794 L1008,819 L1006,912 L1005,970 L1005,994 L1004,1016 L1000,1031 L997,1034 L988,1033 L981,1032 L946,1031 L910,1031 L906,1030 L861,1030 L833,1029 L755,1029 L721,1028 L617,1028 L603,1027 L572,1028 L564,1027 L524,1027 L461,1026 L433,1025 L400,1025 L394,1024 L388,1025 L378,1024 L329,1024 L216,1023 L105,1023 L57,1022 L-13,1021 L-16,1019 L-19,1010 L-20,990 L-19,925 L-18,878 L-17,869 L-17,846 L-16,794 L-15,706 L-15,677 L-14,667 L-14,617 L-13,572 L-13,529 L-12,510 L-12,464 L-11,413 L-10,268 L-9,238 L-9,200 L-8,96 L-8,43 L-7,7 L-3,1 Z " fill="#000000" transform="translate(154,36)"/>
<path d="M0,0 L2,0 L2,2 L0,2 Z " fill="#000000" transform="translate(35,305)"/>
<path d="M0,0 L44,0 L57,1 L74,2 L86,4 L99,7 L108,10 L124,18 L129,22 L136,34 L138,56 L138,254 L137,263 L133,266 L105,266 L100,262 L99,258 L91,257 L87,261 L86,263 L85,276 L84,302 L81,307 L72,307 L66,304 L64,297 L62,267 L60,258 L57,255 L6,254 L-13,255 L-15,265 L-16,300 L-18,306 L-21,308 L-32,308 L-36,304 L-37,302 L-38,286 L-38,277 L-39,268 L-41,257 L-49,257 L-51,261 L-55,266 L-60,267 L-70,266 L-78,266 L-83,262 L-85,256 L-85,157 L-86,92 L-85,50 L-83,30 L-76,21 L-70,16 L-53,9 L-43,6 L-32,4 L-16,2 Z M3,21 L-10,24 L-15,29 L-17,41 L-17,138 L-16,215 L-14,224 L-10,227 L29,228 L63,227 L67,222 L69,208 L69,196 L68,173 L68,55 L67,32 L64,26 L58,24 L38,21 Z M-48,211 L-56,216 L-58,224 L-58,231 L-53,239 L-45,241 L-38,240 L-30,233 L-29,231 L-29,221 L-32,215 L-36,212 L-40,211 Z M88,211 L82,215 L78,222 L78,231 L80,236 L83,239 L92,243 L98,242 L104,238 L109,232 L109,223 L105,216 L101,212 L98,211 Z " fill="#000000" transform="translate(332,394)"/>
<path d="M0,0 L41,0 L114,1 L123,1 L132,2 L144,1 L148,2 L174,2 L189,3 L260,3 L331,4 L335,3 L342,6 L344,12 L344,36 L339,41 L332,42 L300,42 L294,41 L234,41 L206,40 L175,40 L171,44 L169,50 L165,108 L164,129 L162,148 L161,163 L160,195 L156,266 L155,280 L155,312 L159,315 L168,316 L187,316 L209,315 L210,314 L210,309 L205,299 L201,295 L184,292 L177,292 L170,288 L168,278 L168,257 L170,247 L174,244 L187,240 L200,238 L219,235 L232,232 L250,229 L256,226 L263,214 L268,206 L273,200 L278,195 L285,189 L298,185 L305,184 L328,184 L337,183 L383,183 L410,184 L417,187 L422,197 L427,209 L429,216 L431,221 L435,223 L446,225 L464,226 L498,230 L514,233 L535,237 L539,239 L546,240 L551,242 L559,244 L565,247 L568,250 L569,254 L569,269 L568,282 L563,287 L553,290 L531,292 L520,292 L514,296 L508,307 L505,313 L506,318 L512,319 L528,319 L535,320 L545,319 L555,319 L565,321 L568,328 L568,342 L565,353 L560,356 L445,356 L416,355 L401,355 L375,356 L359,355 L352,356 L344,355 L159,355 L24,354 L1,353 L-2,350 L-4,330 L-4,320 L0,316 L33,315 L42,316 L46,315 L109,315 L114,313 L115,308 L115,295 L113,256 L113,242 L111,222 L111,210 L109,185 L107,135 L106,127 L104,69 L103,50 L101,41 L94,38 L72,37 L63,37 L57,36 L14,36 L-3,35 L-9,32 L-10,22 L-10,12 L-8,3 L-6,1 Z M320,201 L304,204 L296,209 L289,218 L289,224 L295,227 L306,226 L339,226 L342,222 L343,219 L343,208 L341,204 L338,202 L333,201 Z M373,201 L366,202 L362,206 L361,218 L363,223 L368,226 L400,226 L405,223 L406,218 L402,206 L396,201 Z M236,268 L230,271 L225,277 L223,287 L226,295 L231,300 L237,302 L244,302 L252,298 L256,294 L258,286 L257,278 L253,272 L246,268 Z M472,272 L463,278 L460,285 L461,295 L464,301 L470,306 L481,306 L490,299 L493,293 L493,286 L489,277 L486,274 L478,272 Z M295,295 L279,296 L274,301 L268,312 L270,316 L282,317 L311,317 L318,318 L393,318 L416,317 L444,317 L447,314 L447,309 L442,300 L438,297 L431,296 L411,296 L404,295 Z " fill="#000000" transform="translate(488,342)"/>
<path d="M0,0 L5,2 L18,14 L25,23 L26,32 L17,44 L7,53 L3,55 L-2,55 L-5,50 L-5,48 L-15,46 L-45,46 L-53,43 L-55,41 L-55,18 L-52,12 L-50,11 L-19,10 L-8,9 L-5,7 L-2,1 Z " fill="#000000" transform="translate(552,555)"/>
<path d="M0,0 L5,1 L7,4 L8,25 L8,56 L11,65 L13,68 L20,71 L30,72 L38,68 L42,62 L44,56 L46,6 L48,2 L50,1 L56,1 L59,7 L59,54 L56,68 L50,77 L38,83 L34,84 L22,84 L10,81 L0,75 L-4,70 L-6,63 L-6,9 L-4,3 Z " fill="#000000" transform="translate(141,1113)"/>
<path d="M0,0 L13,0 L23,4 L29,8 L37,17 L39,22 L38,29 L34,31 L28,30 L23,25 L20,20 L12,15 L0,15 L-9,20 L-13,26 L-16,35 L-17,49 L-14,61 L-9,68 L-2,72 L11,72 L16,70 L21,65 L27,54 L32,51 L37,52 L40,56 L37,67 L31,76 L23,82 L12,86 L1,86 L-9,84 L-18,79 L-25,72 L-29,64 L-32,55 L-32,35 L-27,20 L-21,12 L-16,6 L-11,3 Z " fill="#000000" transform="translate(281,1113)"/>
<path d="M0,0 L6,0 L9,3 L10,5 L10,44 L9,59 L9,72 L6,81 L0,83 L-6,79 L-7,76 L-7,63 L-6,46 L-6,23 L-5,6 L-2,1 Z " fill="#000000" transform="translate(224,1114)"/>
<path d="M0,0 L3,1 L2,3 L-1,2 Z " fill="#000000" transform="translate(592,1158)"/>
<path d="M0,0 L56,0 L88,1 L135,1 L151,0 L192,1 L285,1 L293,2 L377,2 L386,1 L389,2 L455,3 L595,3 L650,4 L685,4 L705,5 L723,4 L776,5 L886,5 L892,4 L895,5 L992,5 L998,6 L1046,6 L1109,7 L1170,7 L1258,8 L1285,8 L1308,9 L1308,64 L1241,64 L1113,63 L1035,63 L959,62 L913,62 L887,61 L794,61 L638,60 L515,59 L471,59 L429,58 L425,49 L422,42 L415,41 L414,51 L411,58 L406,59 L345,58 L270,58 L147,57 L4,56 L0,55 Z " fill="#000000" transform="translate(0,1260)"/>
</svg>
