<?xml version="1.0" encoding="UTF-8"?>
<!-- Generator: visioncortex VTracer 0.6.12 -->
<svg version="1.1" xmlns="http://www.w3.org/2000/svg" width="1002" height="996">
<path d="M0,0 L1002,0 L1002,8 L998,7 L985,6 L978,5 L887,5 L875,6 L785,6 L755,5 L744,5 L731,6 L726,7 L724,6 L713,5 L572,5 L566,4 L563,5 L542,6 L527,6 L490,5 L477,5 L452,6 L118,6 L111,5 L101,6 L23,6 L8,7 L6,10 L5,26 L5,238 L4,246 L4,286 L3,330 L4,440 L3,632 L3,720 L1,738 L0,738 Z " fill="#000000" transform="translate(0,0)"/>
<path d="M0,0 L8,1 L11,5 L12,17 L13,27 L13,79 L12,88 L10,92 L8,93 L-15,93 L-65,94 L-121,94 L-126,93 L-128,94 L-152,94 L-157,90 L-159,86 L-166,82 L-169,82 L-175,91 L-181,92 L-186,88 L-187,81 L-185,76 L-186,68 L-187,65 L-188,44 L-187,37 L-187,31 L-182,26 L-169,18 L-161,13 L-156,4 L-152,1 L-133,1 L-126,2 L-119,1 L-102,2 L-100,1 L-16,1 Z M-45,18 L-60,19 L-137,19 L-141,24 L-142,32 L-142,69 L-139,76 L-136,77 L-108,78 L-98,77 L-7,77 L-3,75 L-2,73 L-2,25 L-7,19 L-22,18 Z M-164,32 L-167,35 L-166,39 L-159,40 L-158,39 L-158,34 L-161,32 Z M-166,58 L-168,62 L-162,67 L-158,65 L-159,58 Z " fill="#000000" transform="translate(425,293)"/>
<path d="M0,0 L6,2 L9,6 L9,13 L6,18 L0,19 L-5,15 L-5,3 Z " fill="#000000" transform="translate(218,295)"/>
<path d="M0,0 L6,1 L10,7 L10,15 L7,19 L-1,19 L-5,15 L-6,9 L-3,2 Z " fill="#000000" transform="translate(238,296)"/>
<path d="M0,0 L4,1 L7,5 L8,14 L4,19 L0,20 L-5,17 L-6,16 L-6,6 L-2,1 Z " fill="#000000" transform="translate(197,299)"/>
<path d="M0,0 L7,1 L9,3 L10,13 L10,20 L23,31 L30,41 L34,51 L36,58 L36,72 L30,88 L19,101 L13,108 L-2,118 L-8,123 L-8,128 L-5,129 L-5,131 L1,133 L3,135 L3,144 L2,149 L7,155 L7,163 L5,170 L-4,176 L-9,179 L-9,186 L-4,188 L0,194 L0,199 L-9,209 L-17,213 L-26,212 L-27,210 L-28,189 L-29,134 L-29,122 L-31,106 L-36,101 L-45,92 L-52,78 L-54,70 L-54,58 L-52,46 L-47,38 L-44,33 L-39,28 L-29,21 L-24,19 L-9,17 L-6,14 L-3,4 Z M-14,30 L-18,34 L-18,41 L-15,45 L-5,45 L-1,40 L-2,34 L-9,30 Z " fill="#000000" transform="translate(174,306)"/>
<path d="M0,0 L5,0 L9,8 L8,14 L5,18 L1,19 L-6,13 L-5,6 L-3,2 Z " fill="#000000" transform="translate(225,370)"/>
<path d="M0,0 L1,0 L1,9 L-1,8 Z " fill="#000000" transform="translate(1001,490)"/>
<path d="M0,0 L1,0 L1,10 L-1,10 L-1,1 Z " fill="#000000" transform="translate(1001,509)"/>
<path d="M0,0 L110,0 L119,1 L124,6 L128,15 L140,40 L148,59 L153,69 L157,79 L164,90 L168,91 L211,91 L216,92 L224,91 L289,91 L294,93 L302,91 L312,93 L318,98 L323,103 L326,112 L329,140 L333,173 L336,209 L335,218 L331,223 L325,226 L269,227 L266,230 L265,237 L263,250 L260,260 L254,271 L245,280 L245,284 L247,285 L268,284 L279,284 L302,285 L351,285 L356,290 L356,300 L352,303 L165,303 L161,302 L151,303 L130,302 L100,302 L94,301 L89,302 L45,303 L-77,303 L-88,304 L-264,304 L-293,305 L-299,304 L-437,304 L-441,302 L-442,300 L-442,290 L-440,287 L-435,286 L-381,286 L-341,285 L-327,286 L-318,284 L-317,280 L-321,278 L-327,271 L-334,259 L-339,245 L-341,231 L-348,228 L-367,227 L-376,226 L-379,224 L-385,222 L-389,215 L-392,206 L-393,192 L-396,168 L-397,165 L-398,153 L-402,142 L-408,138 L-409,136 L-409,97 L-405,93 L-400,92 L-327,92 L-322,91 L-320,92 L-206,92 L-195,91 L-190,88 L-178,74 L-169,64 L-159,50 L-155,48 L-153,43 L-144,32 L-134,19 L-126,9 L-121,4 L-114,2 L-101,1 L-91,2 L-76,1 L-55,1 Z M-4,22 L-46,23 L-102,23 L-108,26 L-114,33 L-126,49 L-130,53 L-136,61 L-141,67 L-148,76 L-156,87 L-155,91 L-153,92 L-44,92 L-35,93 L17,93 L28,92 L89,92 L95,93 L106,91 L107,86 L101,71 L96,59 L90,45 L86,34 L81,26 L74,23 L30,23 L10,22 Z M-27,224 L-33,225 L-50,225 L-81,226 L-168,226 L-193,225 L-227,227 L-231,231 L-232,234 L-232,246 L-235,259 L-242,270 L-246,275 L-251,280 L-253,284 L-252,286 L-240,286 L-228,287 L-90,287 L-75,286 L-12,286 L-5,285 L9,286 L135,286 L172,285 L177,283 L176,279 L169,272 L160,257 L156,246 L155,231 L152,226 L149,225 L117,225 L54,224 L35,225 L6,225 Z " fill="#000000" transform="translate(556,515)"/>
<path d="M0,0 L1,0 L1,27 L-1,24 L-1,4 Z " fill="#000000" transform="translate(1001,559)"/>
<path d="M0,0 L1,0 L1,19 L-1,18 L-1,2 Z " fill="#000000" transform="translate(1001,588)"/>
<path d="M0,0 L1,0 L1,381 L-10,381 L-9,379 L-4,378 L-3,372 L-2,252 L-3,157 L-2,137 L-2,65 L-1,1 Z " fill="#000000" transform="translate(1001,615)"/>
<path d="M0,0 L2,1 L2,7 L0,8 Z " fill="#000000" transform="translate(0,759)"/>
<path d="M0,0 L2,2 L3,26 L3,62 L1,69 L0,69 Z " fill="#000000" transform="translate(0,772)"/>
<path d="M0,0 L2,1 L3,23 L2,47 L3,62 L3,95 L2,120 L0,121 Z " fill="#000000" transform="translate(0,845)"/>
<path d="M0,0 L2,2 L4,19 L65,19 L147,20 L306,20 L315,21 L326,21 L331,20 L619,20 L622,23 L0,23 Z " fill="#000000" transform="translate(0,973)"/>
<path d="M0,0 L50,1 L52,3 L-30,3 L-29,1 Z " fill="#000000" transform="translate(657,993)"/>
<path d="M0,0 L20,0 L62,1 L63,3 L-31,3 L-28,1 Z " fill="#000000" transform="translate(743,993)"/>
<path d="M0,0 L8,0 L12,2 L-1,2 Z " fill="#000000" transform="translate(830,994)"/>
<path d="M0,0 L7,0 L13,1 L63,1 L66,3 L-28,3 L-25,1 Z " fill="#000000" transform="translate(893,993)"/>
<path d="M0,0 L4,1 L4,2 L-1,2 Z " fill="#000000" transform="translate(967,994)"/>
<path d="M0,0 Z " fill="#000000" transform="translate(981,995)"/>
</svg>
