<?xml version="1.0" encoding="UTF-8"?>
<!-- Generator: visioncortex VTracer 0.6.12 -->
<svg version="1.1" xmlns="http://www.w3.org/2000/svg" width="1017" height="1002">
<path d="M0,0 L1017,0 L1017,1002 L23,1002 L20,1001 L10,1001 L4,1002 L0,1001 Z M320,65 L300,67 L292,70 L283,71 L274,75 L264,78 L260,81 L249,87 L244,91 L232,98 L224,105 L217,110 L210,118 L202,127 L192,141 L180,163 L176,178 L172,187 L168,212 L168,236 L169,250 L172,265 L176,272 L180,288 L186,301 L193,315 L200,323 L203,328 L210,335 L217,343 L224,349 L229,354 L238,360 L244,364 L255,370 L264,374 L274,379 L298,386 L310,388 L332,389 L350,387 L364,384 L380,380 L388,376 L398,372 L407,366 L413,362 L422,356 L432,348 L439,341 L445,337 L451,329 L458,319 L469,301 L475,290 L482,287 L493,287 L500,288 L530,288 L542,287 L550,280 L559,269 L564,264 L575,252 L580,248 L587,249 L594,255 L601,264 L606,268 L611,274 L622,283 L626,285 L635,279 L645,267 L650,262 L655,256 L663,250 L671,250 L679,257 L688,266 L695,274 L705,283 L710,284 L716,281 L726,272 L731,267 L745,253 L751,249 L765,248 L803,248 L815,246 L824,237 L831,227 L836,223 L839,217 L846,207 L849,202 L849,197 L835,183 L825,177 L818,171 L810,168 L790,168 L786,167 L744,168 L704,168 L698,167 L674,168 L657,167 L654,165 L649,166 L647,167 L605,167 L601,165 L590,165 L586,167 L527,167 L522,166 L515,166 L511,167 L486,167 L477,165 L475,161 L472,157 L469,149 L465,144 L461,138 L454,128 L445,116 L441,113 L439,113 L437,108 L423,98 L411,89 L398,81 L386,75 L378,73 L365,69 L356,67 L347,65 Z M590,460 L586,461 L404,461 L398,463 L387,474 L380,483 L370,494 L365,499 L354,510 L348,518 L336,531 L330,538 L324,546 L319,550 L313,557 L308,560 L303,568 L294,578 L289,583 L282,591 L274,601 L268,606 L263,612 L253,617 L234,618 L224,620 L217,623 L204,627 L189,633 L170,643 L158,649 L147,655 L139,662 L131,668 L123,677 L117,681 L113,686 L107,691 L101,699 L94,707 L87,715 L79,731 L73,740 L69,750 L66,756 L62,767 L60,770 L58,780 L55,789 L55,795 L59,802 L65,803 L67,802 L112,802 L124,801 L129,797 L140,772 L147,762 L159,750 L164,745 L172,739 L181,733 L191,729 L205,722 L213,720 L217,718 L256,718 L264,722 L280,726 L295,734 L299,739 L311,746 L315,751 L321,758 L328,768 L333,778 L339,793 L342,799 L349,803 L375,803 L390,804 L400,803 L509,803 L519,804 L573,803 L583,802 L601,804 L614,804 L620,803 L625,804 L633,803 L646,803 L652,799 L657,791 L660,783 L670,767 L677,759 L684,751 L691,745 L697,741 L711,731 L725,726 L732,724 L748,721 L769,720 L780,722 L792,725 L802,729 L813,735 L824,743 L834,751 L842,760 L846,766 L852,776 L859,790 L863,799 L866,802 L872,804 L960,804 L967,800 L969,793 L969,781 L967,757 L962,740 L957,726 L952,713 L946,704 L944,697 L937,689 L931,681 L925,673 L917,666 L912,661 L902,653 L892,646 L883,640 L867,633 L860,633 L848,628 L842,625 L835,616 L827,605 L821,598 L815,590 L809,583 L803,575 L798,570 L791,560 L787,554 L785,554 L783,549 L772,538 L766,529 L759,520 L752,512 L748,508 L745,502 L736,492 L726,479 L715,466 L711,462 L708,461 L685,461 L664,460 L653,461 L620,461 Z M242,743 L218,745 L210,749 L203,751 L193,757 L182,765 L175,774 L168,784 L160,800 L157,809 L156,818 L156,827 L158,844 L166,862 L172,871 L178,879 L185,884 L189,890 L200,895 L219,902 L234,903 L246,903 L251,901 L263,898 L275,893 L288,882 L296,875 L300,869 L304,860 L308,848 L311,839 L312,830 L312,817 L311,806 L307,794 L305,788 L300,780 L293,770 L285,761 L277,755 L266,749 L263,747 L251,745 L247,743 Z M743,747 L740,749 L731,751 L719,757 L710,763 L703,769 L694,780 L688,789 L684,799 L682,808 L678,828 L679,840 L682,848 L684,856 L695,875 L706,886 L719,896 L740,901 L751,903 L764,903 L775,902 L782,901 L788,897 L800,891 L805,887 L810,882 L820,871 L828,857 L834,842 L836,824 L833,804 L830,796 L822,780 L818,774 L805,761 L792,753 L782,749 L772,748 L770,747 Z " fill="#000000" transform="translate(0,0)"/>
<path d="M0,0 L11,2 L25,11 L33,17 L40,31 L43,39 L44,46 L44,58 L41,67 L35,79 L30,84 L11,95 L3,97 L-4,98 L-19,97 L-30,90 L-41,84 L-48,76 L-55,62 L-56,59 L-56,46 L-53,30 L-48,22 L-39,12 L-25,4 L-16,1 Z " fill="#000000" transform="translate(251,175)"/>
<path d="M0,0 L22,1 L31,0 L136,0 L153,1 L158,2 L169,2 L195,6 L201,9 L211,12 L221,14 L235,21 L251,29 L267,39 L284,50 L292,57 L297,62 L305,70 L312,76 L321,87 L329,97 L338,112 L343,120 L349,137 L348,142 L344,145 L339,146 L276,145 L226,145 L215,146 L205,145 L195,145 L190,146 L183,146 L176,145 L150,145 L142,146 L139,145 L61,145 L34,144 L2,144 L-10,142 L-11,141 L-12,134 L-12,117 L-11,56 L-11,11 L-7,2 Z " fill="#000000" transform="translate(437,479)"/>
<path d="M0,0 L4,2 L6,5 L5,28 L4,82 L4,99 L5,115 L3,131 L-1,135 L-32,136 L-94,136 L-110,134 L-113,132 L-113,127 L-106,118 L-101,113 L-95,106 L-90,102 L-85,97 L-79,88 L-74,85 L-68,76 L-61,69 L-54,59 L-52,59 L-50,55 L-43,47 L-34,38 L-27,30 L-15,17 L-11,11 L-4,4 Z " fill="#000000" transform="translate(402,486)"/>
</svg>
