<?xml version="1.0" encoding="UTF-8"?>
<!-- Generator: visioncortex VTracer 0.6.12 -->
<svg version="1.1" xmlns="http://www.w3.org/2000/svg" width="1119" height="1137">
<path d="M0,0 L156,0 L161,1 L209,0 L267,1 L287,2 L351,3 L393,4 L418,4 L420,8 L424,7 L426,4 L552,4 L563,5 L583,5 L604,6 L680,6 L739,7 L762,7 L829,8 L889,8 L900,9 L941,9 L950,10 L981,10 L1002,11 L1032,11 L1050,12 L1082,11 L1082,884 L1081,902 L1081,919 L1082,927 L1080,936 L1080,960 L1079,970 L1079,1046 L1078,1083 L1078,1092 L1077,1103 L1077,1114 L1076,1129 L1075,1133 L117,1133 L115,1132 L104,1132 L92,1133 L80,1133 L79,1132 L61,1132 L51,1131 L-10,1130 L-28,1129 L-37,1126 L-37,790 L-36,789 L-36,783 L-37,782 L-37,725 L-36,722 L-35,657 L-35,631 L-34,518 L-33,499 L-32,485 L-32,471 L-33,449 L-31,381 L-31,321 L-30,316 L-29,283 L-28,215 L-27,211 L-27,120 L-26,105 L-26,67 L-25,34 L-24,21 L-23,7 L-20,4 L-9,1 Z M67,9 L31,10 L8,10 L-5,11 L-10,16 L-11,18 L-12,30 L-12,53 L-13,60 L-14,115 L-15,127 L-16,130 L-16,175 L-17,181 L-17,267 L-18,276 L-19,321 L-20,395 L-21,430 L-20,439 L-21,444 L-21,470 L-22,494 L-22,575 L-23,591 L-23,607 L-24,620 L-24,642 L-25,667 L-25,809 L-27,942 L-27,1014 L-28,1087 L-28,1111 L-23,1115 L-15,1116 L18,1116 L25,1117 L56,1117 L68,1118 L102,1118 L117,1119 L176,1119 L194,1121 L232,1121 L295,1122 L338,1123 L416,1123 L423,1124 L454,1123 L456,1124 L529,1124 L577,1125 L601,1125 L605,1126 L658,1126 L708,1127 L796,1127 L798,1128 L882,1128 L891,1129 L894,1128 L984,1128 L1021,1129 L1051,1129 L1059,1125 L1061,1122 L1062,1113 L1062,1084 L1063,1036 L1063,1007 L1064,1002 L1064,924 L1065,908 L1065,879 L1064,877 L1064,869 L1065,865 L1065,842 L1067,825 L1067,808 L1068,805 L1068,788 L1069,775 L1068,762 L1069,740 L1069,655 L1070,612 L1070,536 L1071,499 L1072,486 L1072,468 L1073,412 L1073,357 L1074,340 L1074,277 L1076,232 L1076,177 L1077,160 L1076,151 L1077,124 L1077,106 L1079,29 L1076,26 L1073,25 L1054,24 L1019,24 L1009,23 L977,23 L901,22 L867,20 L824,20 L763,19 L714,17 L658,17 L597,16 L568,16 L555,15 L554,16 L536,16 L527,15 L469,15 L431,14 L352,14 L313,13 L283,13 L214,11 L128,10 L75,10 Z " fill="#000000" transform="translate(37,4)"/>
<path d="M0,0 L63,0 L88,1 L121,0 L125,1 L193,1 L222,2 L241,2 L284,3 L308,3 L311,7 L311,14 L310,19 L309,41 L309,74 L308,79 L308,112 L313,141 L320,163 L331,183 L335,188 L338,194 L349,208 L358,219 L364,227 L370,239 L377,251 L382,264 L387,281 L389,296 L389,383 L388,395 L387,489 L387,510 L386,545 L387,562 L389,567 L395,570 L409,570 L486,572 L504,572 L543,573 L578,573 L584,574 L641,574 L655,575 L678,573 L687,573 L691,577 L692,587 L690,613 L690,633 L689,654 L689,724 L688,729 L688,754 L687,778 L687,822 L686,848 L685,859 L686,878 L686,917 L685,978 L685,1012 L683,1021 L681,1023 L652,1023 L648,1019 L648,1006 L650,989 L651,983 L649,978 L651,889 L652,820 L653,775 L654,730 L655,678 L656,627 L656,609 L654,604 L649,601 L643,600 L587,599 L545,598 L469,597 L436,596 L417,595 L391,596 L387,600 L385,605 L385,625 L386,634 L392,639 L397,641 L405,643 L418,651 L425,656 L434,668 L441,681 L444,696 L443,711 L440,720 L433,734 L420,746 L403,755 L394,757 L377,758 L355,757 L289,756 L268,756 L248,755 L239,754 L165,754 L147,753 L79,753 L24,751 L-29,751 L-39,749 L-52,744 L-60,739 L-67,733 L-75,723 L-81,711 L-84,698 L-84,686 L-81,671 L-75,659 L-63,646 L-56,641 L-39,633 L-31,631 L-26,626 L-25,624 L-25,593 L-31,589 L-41,588 L-125,587 L-170,587 L-202,586 L-277,586 L-282,589 L-284,593 L-285,653 L-286,667 L-286,698 L-287,754 L-287,784 L-288,862 L-288,1010 L-292,1015 L-298,1017 L-311,1017 L-317,1014 L-319,1011 L-319,957 L-318,908 L-318,901 L-315,888 L-315,879 L-317,869 L-317,859 L-315,854 L-315,846 L-317,840 L-317,813 L-314,806 L-315,799 L-317,793 L-316,774 L-313,767 L-313,759 L-315,749 L-316,730 L-315,704 L-313,699 L-312,673 L-314,667 L-314,640 L-313,626 L-313,618 L-311,613 L-313,603 L-313,594 L-311,586 L-312,574 L-310,565 L-305,560 L-292,560 L-285,561 L-266,560 L-212,560 L-187,561 L-156,560 L-140,561 L-134,557 L-132,550 L-131,535 L-130,505 L-129,432 L-129,385 L-128,364 L-128,340 L-127,308 L-123,290 L-116,274 L-108,260 L-98,248 L-89,236 L-78,223 L-69,211 L-61,200 L-53,191 L-42,177 L-35,166 L-29,155 L-25,147 L-22,138 L-19,126 L-18,118 L-17,95 L-16,76 L-15,23 L-16,4 L-13,1 Z M297,328 L297,332 L301,332 L300,328 Z M-34,401 L-38,406 L-40,413 L-40,427 L-41,433 L-42,473 L-43,522 L-43,548 L-42,557 L-38,562 L-32,563 L-27,561 L-24,556 L-23,550 L-22,523 L-21,457 L-21,408 L-27,401 Z M73,503 L67,508 L64,517 L63,530 L64,558 L68,564 L75,565 L82,562 L84,560 L86,553 L86,515 L84,506 L79,503 Z M182,504 L176,508 L173,515 L172,518 L172,557 L175,564 L178,566 L186,566 L190,563 L193,555 L193,514 L190,508 L184,504 Z M287,506 L283,508 L279,515 L278,526 L278,557 L280,565 L284,568 L291,569 L297,565 L299,562 L300,557 L300,530 L298,515 L294,508 L292,506 Z M-82,560 L-83,564 L-78,565 L-78,560 Z M71,590 L66,593 L63,597 L62,616 L62,625 L67,633 L69,634 L77,634 L82,630 L84,627 L85,616 L85,602 L83,593 L79,590 Z M178,591 L173,595 L171,604 L171,628 L175,634 L178,636 L185,635 L191,630 L192,628 L192,605 L190,595 L183,591 Z M284,594 L280,596 L277,606 L277,631 L282,636 L286,638 L292,637 L297,632 L299,622 L299,611 L297,598 L292,594 Z M-301,637 L-303,642 L-301,645 L-297,644 L-297,638 Z M-35,646 L-47,651 L-57,660 L-63,667 L-69,681 L-69,703 L-62,719 L-53,729 L-41,735 L-32,738 L23,740 L74,740 L103,741 L167,741 L221,743 L248,743 L257,744 L291,744 L364,746 L389,745 L402,741 L408,738 L416,731 L422,723 L429,707 L429,690 L427,681 L421,671 L412,661 L399,654 L389,653 L384,657 L378,673 L375,678 L364,689 L350,695 L334,695 L323,692 L311,683 L305,675 L299,662 L296,654 L293,651 L284,650 L277,656 L276,666 L275,694 L270,706 L266,712 L254,721 L248,724 L235,726 L226,725 L216,722 L207,716 L199,707 L195,699 L193,694 L192,687 L192,657 L189,651 L185,648 L177,648 L172,653 L170,663 L170,674 L168,690 L166,699 L159,711 L151,718 L141,723 L129,725 L121,725 L105,719 L100,716 L90,703 L86,695 L85,689 L84,656 L81,649 L76,646 L68,647 L63,652 L62,656 L61,678 L60,688 L56,701 L50,709 L42,716 L34,720 L28,722 L14,723 L0,718 L-9,712 L-17,704 L-22,694 L-24,685 L-25,664 L-26,653 L-28,648 L-32,646 Z M668,774 L666,776 L666,782 L669,783 L672,781 L672,776 Z " fill="#000000" transform="translate(375,51)"/>
<path d="M0,0 L2,1 L0,2 Z " fill="#000000" transform="translate(808,187)"/>
<path d="M0,0 L2,1 L2,4 L-1,4 Z " fill="#000000" transform="translate(1019,209)"/>
<path d="M0,0 L3,1 L3,3 L-1,2 Z " fill="#000000" transform="translate(1019,215)"/>
</svg>
