<?xml version="1.0" encoding="UTF-8"?>
<!-- Generator: visioncortex VTracer 0.6.12 -->
<svg version="1.1" xmlns="http://www.w3.org/2000/svg" width="723" height="744">
<path d="M0,0 L3,1 L2,3 L0,3 Z " fill="#000000" transform="translate(408,78)"/>
<path d="M0,0 L11,0 L19,4 L27,7 L35,14 L36,21 L40,29 L40,40 L37,43 L35,53 L25,63 L11,68 L2,68 L-11,65 L-19,58 L-24,54 L-26,50 L-28,49 L-28,41 L-29,34 L-32,33 L-29,32 L-27,18 L-23,13 L-19,9 L-17,9 L-17,7 L-11,3 L-2,1 Z " fill="#000000" transform="translate(327,199)"/>
<path d="M0,0 Z " fill="#000000" transform="translate(241,236)"/>
<path d="M0,0 Z " fill="#000000" transform="translate(481,238)"/>
<path d="M0,0 L3,0 L3,2 L0,2 Z " fill="#000000" transform="translate(228,261)"/>
<path d="M0,0 L15,1 L24,3 L29,6 L37,7 L46,12 L58,15 L62,18 L72,21 L77,24 L84,25 L91,29 L100,30 L105,34 L117,38 L123,42 L133,44 L139,48 L148,50 L154,57 L154,70 L153,80 L152,94 L149,96 L144,95 L132,91 L123,87 L116,85 L108,81 L99,79 L92,75 L82,73 L79,69 L70,69 L69,66 L63,64 L57,64 L48,58 L41,58 L35,54 L29,52 L29,55 L26,55 L25,51 L20,50 L22,57 L25,62 L25,70 L28,71 L27,80 L31,86 L31,94 L34,100 L35,107 L38,111 L38,118 L41,124 L42,129 L43,135 L45,138 L46,146 L48,152 L52,154 L55,161 L56,166 L62,173 L69,189 L73,195 L78,200 L80,202 L80,208 L83,214 L86,217 L89,222 L93,228 L96,238 L101,243 L104,246 L107,256 L114,267 L118,270 L120,277 L122,280 L129,279 L134,280 L151,280 L155,284 L157,290 L156,296 L156,300 L153,303 L137,303 L140,310 L144,317 L147,324 L154,334 L154,336 L156,336 L157,340 L155,347 L149,351 L142,354 L129,362 L122,362 L118,360 L112,352 L111,349 L108,348 L106,339 L96,325 L94,323 L90,311 L85,306 L81,302 L76,303 L74,304 L67,303 L53,303 L47,296 L48,286 L47,283 L49,281 L62,279 L67,279 L68,276 L63,264 L57,256 L53,247 L48,240 L48,238 L46,238 L38,220 L31,212 L28,201 L24,199 L22,204 L17,209 L11,221 L8,227 L1,236 L-2,246 L-12,258 L-17,271 L-21,276 L-24,279 L-26,283 L-26,289 L-29,290 L-31,295 L-34,298 L-38,303 L-41,313 L-44,315 L-46,320 L-50,325 L-51,332 L-63,346 L-70,361 L-72,364 L-78,364 L-80,363 L-80,361 L-87,361 L-90,358 L-97,354 L-100,351 L-107,349 L-110,343 L-107,337 L-103,328 L-98,320 L-95,317 L-89,301 L-88,297 L-89,296 L-89,291 L-88,287 L-87,282 L-84,281 L-77,281 L-77,279 L-72,276 L-71,273 L-66,268 L-63,259 L-54,248 L-51,241 L-49,235 L-45,229 L-42,226 L-39,222 L-37,214 L-35,210 L-33,210 L-31,206 L-25,198 L-22,189 L-20,186 L-18,186 L-16,181 L-11,172 L-8,165 L-1,156 L-2,151 L-4,139 L-6,134 L-7,127 L-8,125 L-9,116 L-12,112 L-14,100 L-17,97 L-17,87 L-20,84 L-20,77 L-23,70 L-24,63 L-28,56 L-31,55 L-40,58 L-56,62 L-68,65 L-73,68 L-79,67 L-86,70 L-95,70 L-99,71 L-109,71 L-114,70 L-118,71 L-135,72 L-136,71 L-145,72 L-150,71 L-154,72 L-159,68 L-162,64 L-161,56 L-162,51 L-161,47 L-162,43 L-158,32 L-152,28 L-130,28 L-124,26 L-114,28 L-104,27 L-97,26 L-89,24 L-85,22 L-77,21 L-74,19 L-62,17 L-55,13 L-47,13 L-45,10 L-37,10 L-32,7 L-24,7 L-21,4 L-9,2 L-8,1 Z " fill="#000000" transform="translate(358,280)"/>
<path d="M0,0 L2,0 L2,3 L0,3 Z " fill="#000000" transform="translate(208,298)"/>
<path d="M0,0 Z " fill="#000000" transform="translate(214,303)"/>
<path d="M0,0 L2,0 L1,2 Z " fill="#000000" transform="translate(204,304)"/>
<path d="M0,0 L3,0 L3,3 L0,3 Z " fill="#000000" transform="translate(189,336)"/>
<path d="M0,0 L3,1 L3,3 L-1,2 Z " fill="#000000" transform="translate(189,345)"/>
<path d="M0,0 L2,1 Z " fill="#000000" transform="translate(558,382)"/>
<path d="M0,0 L2,1 L0,2 Z " fill="#000000" transform="translate(121,481)"/>
<path d="M0,0 L2,1 Z " fill="#000000" transform="translate(385,487)"/>
<path d="M0,0 L3,0 L3,2 L0,2 Z " fill="#000000" transform="translate(627,522)"/>
<path d="M0,0 L21,0 L31,2 L32,3 L33,12 L34,15 L28,23 L14,24 L8,23 L3,24 L-5,24 L-10,20 L-11,4 L-8,1 Z " fill="#000000" transform="translate(350,559)"/>
<path d="M0,0 L32,0 L39,3 L41,7 L40,20 L37,23 L2,23 L-5,20 L-5,12 L-6,7 Z " fill="#000000" transform="translate(541,560)"/>
<path d="M0,0 L29,0 L39,1 L41,3 L41,13 L42,16 L37,22 L28,23 L22,24 L19,23 L13,24 L3,24 L-3,21 L-5,18 L-6,7 L-2,1 Z " fill="#000000" transform="translate(146,562)"/>
<path d="M0,0 L13,0 L26,1 L27,6 L28,14 L24,20 L19,23 L-10,23 L-14,21 L-16,14 L-16,7 L-12,2 L-10,1 Z " fill="#000000" transform="translate(223,561)"/>
<path d="M0,0 L2,1 L2,3 L-1,3 Z " fill="#000000" transform="translate(331,576)"/>
<path d="M0,0 L3,1 L3,4 L0,4 Z " fill="#000000" transform="translate(660,592)"/>
<path d="M0,0 Z " fill="#000000" transform="translate(29,667)"/>
<path d="M0,0 Z " fill="#000000" transform="translate(700,670)"/>
<path d="M0,0 L23,0 L31,3 L32,14 L29,21 L26,23 L-5,23 L-10,19 L-11,11 L-10,3 L-7,1 Z " fill="#000000" transform="translate(417,676)"/>
<path d="M0,0 L17,1 L25,1 L31,3 L32,6 L32,17 L27,23 L-7,23 L-12,22 L-14,19 L-14,4 L-11,1 Z " fill="#000000" transform="translate(484,675)"/>
<path d="M0,0 L38,0 L41,1 L43,4 L44,15 L38,22 L28,22 L24,22 L21,21 L14,22 L4,22 L-2,18 L-3,16 L-3,3 Z " fill="#000000" transform="translate(540,676)"/>
<path d="M0,0 L5,1 L7,0 L19,0 L24,5 L24,12 L25,15 L22,20 L17,23 L6,23 L-6,24 L-12,23 L-19,23 L-24,16 L-24,5 L-20,1 L-6,1 L-3,1 Z " fill="#000000" transform="translate(165,677)"/>
<path d="M0,0 L30,0 L35,2 L36,13 L35,21 L34,22 L18,23 L7,22 L1,23 L-5,19 L-7,17 L-7,5 L-3,1 Z " fill="#000000" transform="translate(215,677)"/>
<path d="M0,0 L24,1 L25,2 L26,10 L26,19 L24,22 L9,23 L-13,23 L-18,21 L-20,18 L-20,6 L-16,2 L-14,1 Z " fill="#000000" transform="translate(292,676)"/>
<path d="M0,0 L25,1 L26,5 L25,8 L26,15 L23,21 L21,22 L-15,22 L-18,18 L-18,4 L-14,1 Z " fill="#000000" transform="translate(358,676)"/>
<path d="M0,0 L2,0 L2,3 L-1,2 Z " fill="#000000" transform="translate(16,690)"/>
</svg>
