<?xml version="1.0" encoding="UTF-8"?>
<!-- Generator: visioncortex VTracer 0.6.12 -->
<svg version="1.1" xmlns="http://www.w3.org/2000/svg" width="1233" height="1218">
<path d="M0,0 L16,1 L19,2 L135,4 L191,4 L295,5 L527,5 L652,6 L807,6 L897,5 L942,6 L1107,6 L1145,5 L1150,8 L1152,10 L1153,16 L1149,22 L1147,24 L1141,26 L1140,28 L1139,203 L1139,247 L1138,313 L1138,695 L1137,756 L1137,1048 L1138,1105 L1138,1120 L1139,1130 L1143,1135 L1143,1144 L1139,1148 L1137,1149 L1118,1148 L1073,1148 L1058,1149 L1054,1148 L994,1147 L887,1147 L750,1146 L627,1145 L599,1145 L479,1144 L416,1144 L297,1143 L250,1143 L174,1142 L128,1142 L66,1143 L25,1144 L12,1146 L-2,1146 L-8,1142 L-11,1136 L-11,1129 L-12,1127 L-11,1111 L-10,1082 L-10,1045 L-11,1013 L-11,916 L-10,755 L-10,594 L-9,516 L-9,318 L-8,259 L-8,143 L-9,91 L-8,70 L-8,6 Z M56,17 L22,18 L10,22 L9,23 L8,38 L8,191 L7,447 L7,515 L6,625 L6,722 L5,756 L5,845 L6,971 L7,1005 L7,1099 L9,1123 L13,1126 L45,1127 L104,1128 L210,1129 L227,1129 L282,1130 L417,1131 L501,1131 L630,1132 L788,1133 L1017,1133 L1025,1132 L1092,1132 L1110,1131 L1117,1130 L1118,1127 L1120,1094 L1121,917 L1121,859 L1122,790 L1122,662 L1123,491 L1123,324 L1124,228 L1124,103 L1125,62 L1125,25 L1124,24 L1100,22 L1070,22 L1033,21 L1018,22 L1010,22 L1003,21 L882,21 L850,20 L778,19 L534,18 L354,18 L229,17 Z " fill="#000000" transform="translate(49,36)"/>
<path d="M0,0 L10,0 L20,4 L28,11 L34,20 L42,36 L52,52 L59,65 L62,72 L67,78 L72,88 L79,101 L84,110 L93,126 L97,132 L101,140 L108,151 L117,168 L123,177 L128,187 L136,200 L142,211 L150,224 L156,236 L169,258 L174,266 L184,285 L190,295 L199,310 L206,323 L218,343 L225,356 L230,364 L237,376 L246,391 L250,398 L257,410 L267,428 L275,441 L282,453 L287,461 L291,467 L299,482 L304,490 L309,500 L319,517 L324,525 L330,536 L338,548 L346,564 L352,574 L360,588 L369,604 L376,615 L383,629 L390,640 L399,654 L406,668 L412,677 L419,691 L426,702 L430,709 L440,728 L445,736 L454,750 L460,761 L472,781 L480,796 L489,811 L496,824 L498,831 L498,840 L495,851 L489,861 L482,867 L474,871 L407,871 L283,870 L252,869 L234,870 L201,870 L167,869 L97,869 L44,868 L-19,868 L-177,867 L-186,868 L-192,867 L-273,866 L-358,866 L-433,865 L-471,864 L-483,858 L-494,846 L-498,834 L-498,823 L-495,812 L-486,801 L-480,787 L-476,783 L-472,773 L-465,762 L-461,755 L-453,741 L-440,719 L-433,707 L-423,691 L-417,681 L-409,666 L-401,653 L-392,637 L-380,618 L-375,608 L-369,600 L-363,588 L-357,578 L-340,549 L-336,543 L-331,534 L-323,520 L-311,501 L-305,491 L-300,481 L-292,470 L-285,457 L-278,446 L-272,436 L-266,426 L-258,412 L-255,406 L-249,397 L-240,381 L-234,371 L-225,356 L-218,345 L-213,335 L-204,320 L-197,309 L-190,297 L-182,284 L-174,270 L-164,253 L-155,238 L-146,222 L-140,212 L-133,201 L-129,193 L-122,181 L-114,167 L-108,156 L-104,149 L-94,132 L-87,121 L-82,113 L-77,103 L-68,87 L-59,73 L-54,63 L-51,57 L-49,57 L-47,52 L-38,37 L-26,15 L-15,4 L-10,1 Z M1,113 L-6,124 L-12,133 L-17,142 L-24,155 L-30,164 L-38,177 L-47,193 L-55,206 L-61,216 L-67,227 L-74,237 L-78,246 L-91,266 L-100,283 L-106,293 L-113,305 L-116,312 L-123,324 L-130,335 L-134,343 L-137,347 L-141,355 L-147,365 L-153,375 L-159,384 L-165,395 L-176,412 L-184,427 L-191,438 L-197,449 L-206,463 L-217,482 L-229,502 L-238,518 L-244,528 L-252,542 L-258,552 L-266,565 L-270,570 L-277,584 L-283,593 L-290,604 L-297,618 L-303,627 L-307,634 L-311,639 L-319,655 L-327,668 L-333,678 L-338,687 L-341,690 L-349,706 L-356,718 L-359,724 L-363,729 L-369,741 L-377,753 L-383,765 L-389,775 L-396,787 L-396,792 L-393,794 L-370,795 L-294,795 L-238,796 L-66,797 L-62,795 L-56,796 L-49,798 L-30,797 L73,798 L104,798 L186,799 L394,799 L397,797 L396,791 L387,775 L379,761 L364,735 L359,728 L352,714 L347,707 L343,698 L338,689 L330,677 L324,666 L316,653 L310,641 L305,634 L300,624 L294,615 L290,607 L281,591 L276,582 L266,566 L258,552 L251,541 L245,530 L240,522 L234,511 L229,502 L224,493 L217,482 L212,472 L204,459 L198,448 L186,426 L174,406 L167,393 L164,389 L160,382 L154,372 L145,357 L136,340 L130,329 L123,317 L119,309 L116,306 L109,292 L99,276 L87,254 L79,240 L71,226 L67,219 L60,207 L51,191 L43,178 L35,164 L29,153 L23,143 L16,132 L8,116 L5,113 Z M-364,682 L-365,685 L-360,686 L-360,682 Z " fill="#000000" transform="translate(608,158)"/>
<path d="M0,0 L3,1 L2,5 L-1,5 Z " fill="#000000" transform="translate(75,435)"/>
<path d="M0,0 L19,1 L34,0 L37,4 L38,60 L38,106 L35,110 L22,111 L7,111 L8,114 L26,125 L42,133 L47,136 L53,136 L61,122 L69,109 L81,89 L89,75 L94,71 L124,72 L206,72 L211,75 L211,109 L206,113 L122,113 L116,116 L108,130 L98,146 L90,159 L84,170 L84,174 L125,175 L158,175 L162,179 L163,211 L163,255 L162,284 L162,304 L158,308 L150,307 L124,306 L123,305 L122,291 L121,218 L118,216 L83,216 L37,215 L28,212 L11,203 L-9,191 L-19,185 L-40,173 L-58,162 L-60,160 L-65,160 L-66,188 L-65,202 L-61,206 L-49,213 L-38,219 L-25,227 L-11,234 L-7,237 L-8,243 L-14,253 L-17,259 L-23,268 L-30,267 L-36,263 L-58,250 L-75,241 L-88,233 L-98,227 L-106,222 L-107,220 L-107,181 L-105,131 L-100,126 L-95,122 L-89,118 L-88,116 L-86,116 L-85,113 L-81,110 L-75,99 L-72,88 L-76,88 L-78,98 L-82,106 L-88,114 L-100,122 L-115,126 L-128,125 L-138,121 L-148,115 L-156,105 L-160,98 L-162,89 L-162,73 L-159,64 L-152,53 L-142,44 L-130,40 L-125,39 L-113,39 L-100,42 L-89,51 L-89,53 L-85,55 L-80,63 L-75,78 L-76,81 L-73,81 L-73,74 L-69,70 L-10,69 L-6,66 L-5,46 L-5,4 L-3,1 Z " fill="#000000" transform="translate(591,605)"/>
</svg>
