<?xml version="1.0" encoding="UTF-8"?>
<!-- Generator: visioncortex VTracer 0.6.12 -->
<svg version="1.1" xmlns="http://www.w3.org/2000/svg" width="1110" height="1119">
<path d="M0,0 L1110,0 L1110,1119 L0,1119 Z M542,211 L526,214 L511,219 L492,229 L487,233 L476,242 L467,251 L461,259 L450,277 L445,290 L441,306 L440,326 L442,329 L452,331 L483,330 L486,327 L492,313 L498,297 L507,285 L515,278 L526,271 L534,267 L541,265 L564,265 L575,268 L591,277 L601,286 L609,297 L614,306 L617,320 L617,340 L613,352 L606,365 L595,377 L584,386 L569,397 L556,409 L549,419 L544,431 L540,449 L539,464 L540,486 L544,502 L543,509 L531,514 L523,518 L509,523 L488,532 L475,537 L450,547 L430,555 L412,562 L406,565 L393,570 L368,580 L351,586 L332,594 L329,596 L320,598 L313,602 L299,607 L284,613 L274,617 L257,623 L247,627 L221,637 L211,642 L201,646 L187,651 L175,656 L159,662 L136,673 L127,681 L122,686 L114,694 L104,712 L99,726 L97,739 L97,763 L102,779 L110,795 L119,807 L130,818 L141,825 L154,831 L171,835 L178,836 L185,837 L577,837 L585,836 L639,836 L650,837 L655,836 L931,836 L960,833 L976,828 L988,822 L999,814 L1011,802 L1020,788 L1025,777 L1028,769 L1030,755 L1030,737 L1028,726 L1024,713 L1019,701 L1012,691 L1006,684 L995,675 L986,669 L970,661 L958,656 L949,652 L930,644 L922,640 L913,637 L884,625 L877,621 L867,618 L853,612 L838,606 L824,600 L812,595 L791,586 L779,581 L755,570 L738,564 L726,558 L698,547 L686,541 L672,536 L659,529 L649,526 L639,521 L631,518 L616,511 L605,505 L596,496 L592,489 L589,478 L589,461 L592,451 L598,441 L606,432 L615,426 L627,417 L639,406 L648,394 L654,386 L663,367 L665,358 L668,345 L669,340 L669,319 L667,305 L663,290 L659,279 L655,273 L650,263 L642,253 L635,244 L625,235 L611,226 L597,219 L587,215 L575,212 L568,211 Z " fill="#000000" transform="translate(0,0)"/>
<path d="M0,0 L7,0 L20,5 L26,8 L35,11 L51,18 L69,26 L77,29 L89,34 L104,40 L122,48 L136,53 L147,58 L163,64 L171,68 L185,74 L198,79 L217,87 L237,95 L256,104 L271,109 L291,118 L305,123 L317,129 L331,134 L343,139 L362,147 L378,154 L392,161 L397,165 L402,169 L407,176 L411,185 L412,190 L412,206 L407,219 L400,227 L392,234 L383,238 L373,240 L348,241 L311,241 L215,242 L-84,242 L-109,243 L-368,243 L-394,242 L-407,238 L-419,229 L-427,219 L-431,209 L-432,203 L-432,194 L-428,179 L-424,172 L-419,167 L-410,160 L-399,155 L-373,145 L-342,133 L-325,127 L-308,120 L-296,116 L-284,111 L-274,107 L-244,95 L-225,88 L-206,80 L-183,72 L-163,64 L-146,58 L-135,53 L-118,47 L-109,43 L-91,36 L-80,32 L-60,24 L-45,18 L-40,15 L-31,12 L-13,5 L-3,2 Z " fill="#000000" transform="translate(573,549)"/>
</svg>
