<?xml version="1.0" encoding="UTF-8"?>
<!-- Generator: visioncortex VTracer 0.6.12 -->
<svg version="1.1" xmlns="http://www.w3.org/2000/svg" width="723" height="825">
<path d="M0,0 L12,0 L31,1 L40,5 L44,15 L45,19 L46,40 L47,55 L47,66 L48,75 L48,95 L49,144 L49,268 L50,295 L51,304 L49,326 L49,381 L50,407 L50,452 L51,510 L51,553 L52,599 L52,621 L53,653 L53,684 L54,719 L54,731 L57,738 L57,744 L51,752 L43,759 L38,761 L32,762 L-49,762 L-62,763 L-158,763 L-183,764 L-283,764 L-291,765 L-427,765 L-433,766 L-483,767 L-493,766 L-528,767 L-555,767 L-581,768 L-590,765 L-595,759 L-597,752 L-600,731 L-601,658 L-603,652 L-602,649 L-601,621 L-602,570 L-603,552 L-603,498 L-604,446 L-604,405 L-605,392 L-605,371 L-607,354 L-606,330 L-608,184 L-608,156 L-609,137 L-609,23 L-603,12 L-599,9 L-592,7 L-571,8 L-557,8 L-547,7 L-454,7 L-402,6 L-375,6 L-348,5 L-296,5 L-248,3 L-132,3 L-102,2 L-82,2 L-52,1 L-13,1 Z M-290,31 L-303,38 L-317,48 L-321,53 L-329,60 L-340,68 L-346,75 L-346,77 L-350,79 L-360,86 L-366,94 L-366,96 L-370,98 L-379,108 L-385,116 L-393,124 L-402,139 L-408,146 L-411,152 L-421,167 L-427,179 L-433,186 L-436,192 L-438,199 L-444,209 L-448,219 L-453,232 L-459,253 L-463,263 L-467,276 L-472,291 L-477,301 L-481,317 L-489,333 L-493,341 L-499,352 L-506,364 L-512,373 L-517,382 L-528,394 L-532,399 L-532,401 L-536,403 L-546,413 L-553,422 L-564,431 L-565,434 L-561,442 L-559,450 L-556,452 L-549,452 L-542,449 L-532,440 L-532,438 L-528,436 L-521,427 L-519,423 L-515,421 L-510,414 L-506,407 L-498,400 L-484,378 L-478,369 L-472,359 L-468,352 L-465,347 L-460,337 L-454,319 L-448,301 L-440,285 L-434,276 L-426,269 L-422,266 L-412,263 L-408,261 L-389,261 L-381,268 L-378,273 L-378,282 L-385,293 L-396,307 L-400,311 L-403,323 L-411,338 L-414,348 L-417,355 L-421,375 L-423,401 L-423,421 L-420,437 L-417,450 L-414,458 L-409,468 L-410,477 L-417,485 L-423,494 L-430,501 L-435,512 L-438,522 L-439,524 L-441,536 L-443,542 L-442,563 L-438,578 L-434,586 L-430,597 L-421,608 L-413,618 L-402,626 L-384,636 L-361,641 L-357,642 L-347,642 L-342,641 L-328,640 L-308,632 L-292,623 L-287,618 L-280,611 L-279,608 L-279,600 L-287,591 L-289,587 L-289,578 L-283,573 L-278,566 L-271,567 L-262,576 L-257,580 L-252,585 L-243,591 L-235,598 L-223,604 L-217,606 L-205,608 L-201,610 L-193,610 L-187,609 L-183,610 L-176,610 L-174,609 L-157,609 L-141,607 L-129,602 L-124,598 L-115,592 L-102,581 L-96,574 L-91,569 L-88,564 L-82,559 L-78,552 L-71,532 L-67,522 L-66,513 L-67,478 L-71,470 L-75,467 L-81,466 L-89,468 L-105,467 L-108,464 L-110,455 L-110,447 L-108,444 L-85,438 L-73,432 L-61,426 L-51,418 L-43,411 L-32,398 L-27,390 L-24,385 L-20,380 L-16,365 L-11,353 L-9,342 L-9,323 L-11,317 L-14,303 L-18,290 L-23,278 L-29,266 L-36,259 L-43,251 L-47,248 L-49,248 L-49,246 L-57,240 L-73,234 L-87,230 L-97,228 L-111,228 L-118,230 L-131,232 L-139,235 L-150,239 L-156,243 L-156,245 L-160,247 L-163,249 L-169,249 L-184,241 L-195,238 L-205,233 L-218,231 L-235,228 L-266,228 L-286,231 L-292,233 L-301,235 L-313,239 L-321,243 L-321,245 L-327,247 L-346,257 L-355,264 L-364,263 L-366,259 L-376,252 L-395,246 L-403,247 L-406,248 L-417,248 L-420,246 L-421,240 L-418,230 L-413,216 L-409,211 L-405,201 L-403,194 L-392,181 L-384,165 L-375,150 L-367,139 L-359,128 L-352,120 L-344,109 L-342,105 L-338,103 L-332,96 L-330,95 L-330,93 L-326,91 L-319,84 L-308,76 L-303,71 L-303,69 L-299,67 L-287,58 L-280,52 L-268,45 L-263,41 L-264,37 L-268,34 L-274,33 L-281,32 Z " fill="#000000" transform="translate(638,29)"/>
<path d="M0,0 L12,0 L28,3 L40,5 L55,9 L70,14 L78,20 L86,24 L99,35 L113,48 L115,52 L115,63 L111,68 L95,79 L83,86 L61,93 L38,99 L16,102 L-6,103 L-36,100 L-50,97 L-57,96 L-58,97 L-57,110 L-56,117 L-55,142 L-54,151 L-54,171 L-59,203 L-61,215 L-66,230 L-69,239 L-75,255 L-83,268 L-89,275 L-91,276 L-97,276 L-107,268 L-116,258 L-116,256 L-118,256 L-126,243 L-130,238 L-134,229 L-139,221 L-142,214 L-145,204 L-148,194 L-150,176 L-150,153 L-147,122 L-145,115 L-142,108 L-139,98 L-132,83 L-127,74 L-124,71 L-118,61 L-109,51 L-104,48 L-97,40 L-87,31 L-77,24 L-67,18 L-61,14 L-50,11 L-41,6 L-31,5 L-24,2 Z " fill="#000000" transform="translate(384,273)"/>
</svg>
