<?xml version="1.0" encoding="UTF-8"?>
<!-- Generator: visioncortex VTracer 0.6.12 -->
<svg version="1.1" xmlns="http://www.w3.org/2000/svg" width="1200" height="1209">
<path d="M0,0 L5,1 L11,2 L14,1 L32,1 L48,2 L55,1 L75,1 L81,3 L94,1 L118,1 L150,2 L156,1 L164,2 L168,1 L210,1 L212,6 L210,10 L208,26 L208,56 L209,77 L209,383 L210,502 L210,841 L211,936 L211,1079 L210,1136 L206,1140 L166,1140 L154,1141 L49,1140 L-97,1140 L-109,1139 L-118,1140 L-184,1139 L-190,1140 L-234,1139 L-284,1139 L-310,1138 L-320,1139 L-360,1139 L-369,1138 L-461,1138 L-495,1139 L-519,1138 L-634,1138 L-653,1139 L-684,1138 L-702,1138 L-711,1137 L-714,1138 L-775,1138 L-851,1137 L-916,1137 L-921,1132 L-923,1121 L-923,654 L-924,577 L-924,519 L-925,473 L-925,434 L-926,379 L-926,162 L-927,130 L-927,95 L-926,22 L-925,11 L-920,6 L-907,5 L-871,4 L-848,5 L-846,4 L-773,4 L-762,3 L-746,3 L-740,4 L-737,3 L-685,3 L-653,2 L-549,2 L-528,1 L-196,1 L-190,2 L-180,1 L-171,1 L-169,2 L-128,1 L-119,2 L-112,1 L-31,1 L-12,2 L-12,6 L-17,10 L-34,9 L-98,9 L-168,10 L-173,9 L-242,10 L-277,9 L-393,9 L-394,8 L-400,8 L-401,9 L-459,9 L-486,10 L-519,9 L-567,10 L-619,10 L-646,11 L-664,10 L-703,10 L-711,11 L-756,11 L-771,12 L-788,11 L-792,13 L-800,12 L-827,12 L-897,13 L-909,13 L-915,16 L-916,19 L-917,77 L-917,363 L-916,400 L-915,437 L-915,511 L-914,562 L-914,618 L-913,693 L-913,740 L-912,830 L-912,880 L-913,961 L-913,1104 L-914,1119 L-912,1126 L-906,1127 L-871,1128 L-859,1128 L-854,1129 L-847,1128 L-634,1128 L-579,1129 L-577,1128 L-524,1128 L-518,1129 L-495,1129 L-487,1128 L-468,1129 L-457,1129 L-453,1128 L-428,1129 L-287,1129 L-277,1130 L-181,1130 L-175,1131 L-169,1130 L-129,1131 L71,1131 L76,1132 L155,1132 L156,1133 L164,1132 L196,1132 L199,1130 L200,1127 L201,1112 L201,1082 L202,1045 L201,1010 L201,877 L200,862 L200,225 L199,25 L197,14 L193,10 L184,9 L-6,9 L-8,6 L-8,3 Z " fill="#000000" transform="translate(979,36)"/>
<path d="M0,0 L6,0 L15,3 L24,5 L34,11 L39,15 L50,21 L59,31 L70,48 L76,59 L79,71 L83,100 L83,114 L79,134 L72,146 L67,151 L58,157 L50,162 L41,164 L37,168 L38,175 L42,181 L54,186 L71,194 L86,203 L91,207 L97,210 L111,220 L119,226 L129,233 L142,243 L154,252 L163,258 L170,264 L175,269 L185,278 L189,282 L197,288 L203,292 L208,303 L211,320 L211,349 L213,374 L218,403 L221,426 L226,431 L236,433 L240,435 L262,436 L270,433 L277,426 L282,422 L288,414 L295,405 L307,386 L314,379 L317,374 L327,367 L335,361 L350,348 L353,347 L355,343 L356,337 L345,329 L338,325 L331,321 L319,303 L316,297 L314,282 L317,263 L321,250 L323,242 L328,234 L335,224 L351,213 L364,209 L381,206 L394,207 L412,213 L421,218 L433,229 L439,239 L443,249 L445,254 L444,263 L441,273 L438,289 L433,304 L427,315 L419,329 L417,339 L417,344 L423,351 L431,358 L441,368 L449,374 L459,383 L465,387 L470,392 L478,401 L483,407 L488,412 L493,420 L500,428 L509,443 L512,462 L517,492 L521,520 L528,543 L528,560 L524,565 L522,566 L514,566 L504,561 L496,555 L489,547 L483,535 L478,515 L468,481 L462,472 L454,466 L448,461 L442,461 L441,467 L444,482 L448,494 L452,505 L456,521 L460,538 L463,559 L462,572 L458,593 L456,608 L456,624 L459,634 L465,646 L472,656 L478,665 L489,679 L494,684 L502,694 L504,699 L508,701 L513,705 L521,712 L528,719 L533,728 L532,736 L526,747 L520,758 L513,767 L504,776 L494,784 L486,790 L480,793 L474,793 L464,788 L460,782 L459,773 L462,764 L465,760 L468,752 L468,739 L464,731 L463,728 L458,726 L450,720 L446,716 L446,714 L443,713 L438,708 L426,696 L415,687 L408,676 L405,667 L402,662 L395,648 L393,644 L390,629 L386,621 L383,620 L380,623 L371,642 L365,653 L360,663 L354,680 L347,701 L342,722 L339,735 L337,745 L332,770 L331,783 L328,799 L324,805 L319,807 L310,806 L298,806 L271,799 L266,797 L252,793 L242,788 L237,782 L238,773 L241,767 L256,759 L263,755 L273,754 L276,747 L281,722 L284,702 L288,689 L293,664 L297,651 L301,635 L305,624 L312,601 L314,592 L315,590 L318,571 L321,565 L325,550 L327,543 L329,528 L328,518 L326,498 L318,473 L312,472 L302,480 L294,486 L286,489 L262,488 L238,483 L219,476 L197,473 L188,468 L178,453 L172,442 L169,426 L166,414 L164,395 L154,359 L151,348 L149,339 L145,333 L138,325 L130,319 L126,316 L115,312 L106,308 L98,308 L95,312 L95,322 L101,350 L106,372 L108,382 L112,398 L114,410 L117,428 L124,467 L130,487 L136,512 L138,529 L137,536 L134,539 L120,546 L104,552 L89,556 L77,561 L73,569 L74,578 L76,586 L84,610 L92,634 L99,651 L102,664 L106,680 L111,696 L118,718 L128,737 L131,743 L134,750 L141,758 L143,765 L144,775 L140,785 L133,791 L117,800 L106,807 L96,811 L89,814 L71,822 L67,824 L50,824 L42,820 L39,816 L39,806 L48,790 L57,778 L65,770 L68,763 L68,756 L65,741 L53,718 L49,711 L42,695 L35,685 L27,668 L21,660 L16,650 L10,640 L3,624 L1,620 L-2,602 L-5,588 L-8,579 L-12,574 L-27,574 L-31,575 L-51,576 L-56,581 L-60,587 L-63,595 L-69,608 L-73,619 L-75,627 L-81,647 L-84,659 L-88,674 L-93,692 L-99,707 L-107,723 L-116,742 L-124,758 L-129,771 L-135,785 L-140,799 L-146,807 L-151,811 L-163,812 L-200,803 L-217,801 L-224,800 L-243,796 L-248,791 L-252,785 L-252,773 L-247,768 L-239,763 L-233,761 L-206,759 L-195,756 L-189,749 L-183,735 L-179,722 L-176,713 L-172,698 L-166,670 L-163,657 L-157,636 L-151,620 L-148,609 L-144,599 L-138,586 L-136,581 L-136,573 L-140,565 L-149,561 L-160,557 L-169,552 L-182,545 L-185,542 L-185,534 L-181,524 L-174,501 L-168,485 L-164,477 L-160,464 L-156,454 L-147,433 L-140,413 L-130,389 L-126,381 L-120,363 L-116,345 L-122,347 L-130,356 L-132,356 L-134,360 L-143,366 L-159,374 L-171,381 L-181,387 L-186,391 L-195,398 L-213,408 L-232,418 L-246,429 L-253,435 L-258,438 L-286,438 L-291,434 L-294,428 L-295,421 L-295,407 L-293,397 L-286,391 L-280,382 L-269,373 L-259,367 L-254,362 L-244,355 L-225,344 L-214,336 L-207,330 L-196,323 L-191,319 L-182,314 L-172,307 L-167,302 L-159,293 L-152,285 L-145,278 L-141,273 L-132,266 L-127,261 L-117,248 L-112,243 L-103,233 L-91,220 L-84,212 L-79,208 L-67,204 L-63,200 L-54,197 L-51,195 L-40,194 L-36,192 L-30,183 L-29,174 L-31,169 L-40,163 L-52,158 L-64,149 L-70,140 L-79,132 L-84,127 L-88,120 L-90,104 L-89,86 L-86,77 L-82,68 L-74,47 L-67,37 L-60,30 L-56,24 L-47,16 L-38,11 L-33,7 L-23,2 L-6,2 Z " fill="#000000" transform="translate(491,230)"/>
</svg>
