<?xml version="1.0" encoding="UTF-8"?>
<!-- Generator: visioncortex VTracer 0.6.12 -->
<svg version="1.1" xmlns="http://www.w3.org/2000/svg" width="1116" height="1113">
<path d="M0,0 L1116,0 L1116,1113 L0,1113 Z M340,223 L323,228 L311,235 L298,248 L291,260 L286,275 L286,299 L289,310 L295,322 L304,333 L313,341 L323,346 L333,350 L348,352 L362,351 L373,348 L386,341 L392,337 L399,329 L406,320 L411,310 L414,297 L414,275 L409,260 L402,248 L389,235 L379,229 L371,225 L361,223 Z M785,261 L773,265 L759,273 L751,280 L744,289 L736,305 L733,318 L733,334 L738,350 L743,360 L749,368 L756,375 L765,381 L773,385 L786,389 L791,390 L807,390 L823,385 L835,379 L845,370 L852,362 L858,352 L862,338 L863,330 L861,309 L857,299 L851,288 L840,276 L833,270 L820,264 L810,261 Z M312,388 L306,393 L299,401 L291,410 L286,415 L281,420 L270,432 L258,445 L251,452 L244,460 L234,471 L229,476 L223,483 L218,488 L208,498 L201,506 L185,523 L171,538 L164,546 L154,556 L147,564 L132,580 L124,588 L117,597 L118,604 L137,623 L144,631 L170,657 L175,658 L186,645 L195,636 L195,634 L199,632 L210,618 L215,613 L215,611 L218,610 L227,599 L239,586 L246,578 L255,567 L268,553 L275,545 L285,534 L292,526 L301,515 L305,510 L309,509 L308,586 L302,598 L294,611 L288,623 L275,645 L267,658 L261,669 L247,694 L233,718 L221,739 L212,755 L207,763 L201,774 L200,780 L207,782 L307,782 L308,813 L307,907 L307,1007 L309,1012 L310,1013 L383,1013 L385,1012 L386,1009 L387,974 L387,864 L388,785 L389,783 L491,783 L493,781 L492,775 L484,760 L476,746 L468,732 L458,715 L451,703 L441,686 L430,666 L422,650 L416,640 L411,630 L399,609 L389,590 L389,512 L393,512 L404,526 L415,539 L426,553 L435,565 L444,576 L453,586 L459,594 L467,604 L476,615 L485,626 L494,637 L502,646 L511,657 L515,659 L522,653 L527,647 L532,643 L537,638 L544,631 L549,626 L567,608 L572,603 L574,597 L567,588 L555,575 L548,567 L535,553 L528,545 L521,537 L515,530 L510,525 L499,513 L488,501 L477,489 L466,477 L457,466 L445,454 L436,443 L429,435 L422,427 L410,413 L396,398 L389,390 L384,388 Z M754,426 L744,435 L732,447 L730,448 L730,450 L727,451 L723,455 L723,457 L719,459 L696,482 L691,487 L684,493 L679,498 L672,505 L668,510 L660,517 L617,560 L609,567 L581,595 L580,601 L591,614 L602,626 L611,637 L616,642 L627,654 L631,659 L637,660 L645,651 L650,646 L657,638 L662,633 L668,626 L673,622 L680,614 L689,604 L701,591 L708,583 L716,575 L725,564 L739,550 L748,539 L752,535 L756,534 L754,693 L751,702 L745,717 L740,730 L736,739 L728,758 L718,783 L713,795 L701,824 L693,844 L683,868 L675,888 L667,908 L654,940 L645,961 L641,973 L636,983 L633,992 L634,996 L639,999 L652,1003 L681,1012 L706,1020 L713,1020 L717,1013 L723,997 L729,982 L733,968 L738,957 L745,937 L753,916 L762,891 L769,871 L780,843 L792,809 L794,804 L797,804 L805,828 L810,842 L818,864 L828,893 L833,906 L838,921 L844,938 L854,965 L861,986 L872,1016 L875,1020 L882,1020 L912,1013 L925,1010 L937,1007 L946,1005 L961,1001 L963,999 L962,993 L957,981 L948,960 L935,930 L927,910 L922,899 L917,886 L911,872 L904,857 L895,835 L883,807 L873,783 L869,773 L862,758 L851,732 L842,711 L835,695 L835,671 L836,583 L836,535 L841,537 L849,547 L856,555 L863,563 L873,574 L880,582 L891,594 L900,605 L908,614 L915,623 L917,623 L919,627 L926,635 L936,646 L945,657 L948,659 L952,658 L958,652 L958,650 L962,648 L974,636 L979,631 L987,622 L992,617 L1006,603 L1007,599 L1003,593 L974,564 L969,559 L961,550 L953,543 L946,535 L937,526 L935,526 L933,522 L926,516 L919,508 L912,502 L910,502 L908,498 L902,491 L894,484 L878,468 L877,466 L875,466 L875,464 L870,459 L863,452 L858,447 L849,439 L843,432 L838,428 L830,427 Z " fill="#000000" transform="translate(0,0)"/>
</svg>
