<?xml version="1.0" encoding="UTF-8"?>
<!-- Generator: visioncortex VTracer 0.6.12 -->
<svg version="1.1" xmlns="http://www.w3.org/2000/svg" width="417" height="945">
<path d="M0,0 L17,0 L22,5 L23,9 L23,50 L25,56 L28,58 L45,59 L54,59 L56,60 L88,61 L96,64 L99,69 L99,81 L97,89 L95,91 L81,92 L79,93 L29,93 L24,95 L22,101 L21,134 L20,188 L19,215 L18,224 L14,229 L0,229 L-6,226 L-8,216 L-8,155 L-7,110 L-8,101 L-11,95 L-15,93 L-54,93 L-58,92 L-76,92 L-81,88 L-83,79 L-83,68 L-80,63 L-77,61 L-64,61 L-52,60 L-49,59 L-41,59 L-32,60 L-11,59 L-8,56 L-6,53 L-5,43 L-5,20 L-4,4 Z " fill="#000000" transform="translate(208,29)"/>
<path d="M0,0 L11,1 L16,5 L22,16 L26,33 L31,45 L38,71 L45,91 L51,108 L55,117 L62,137 L66,148 L69,158 L72,167 L76,176 L81,189 L85,200 L90,213 L94,224 L97,233 L103,248 L109,266 L114,277 L118,292 L125,307 L130,321 L134,334 L139,345 L146,365 L152,380 L155,387 L164,411 L171,428 L176,440 L178,445 L178,453 L174,456 L149,457 L96,457 L74,458 L35,458 L28,457 L6,457 L-31,458 L-38,460 L-58,458 L-68,457 L-84,457 L-93,456 L-100,457 L-128,458 L-142,457 L-162,458 L-171,455 L-174,451 L-175,446 L-170,426 L-166,416 L-163,406 L-153,382 L-149,369 L-143,354 L-135,334 L-128,314 L-124,302 L-120,295 L-116,281 L-108,262 L-98,234 L-91,216 L-85,200 L-80,186 L-75,175 L-70,162 L-63,144 L-57,128 L-51,114 L-47,102 L-42,91 L-38,81 L-36,76 L-35,69 L-30,59 L-26,46 L-21,37 L-19,29 L-14,17 L-9,5 L-4,1 Z M-51,291 L-58,295 L-63,302 L-62,307 L-52,312 L-46,312 L-41,307 L-39,303 L-40,295 L-43,292 Z " fill="#000000" transform="translate(206,281)"/>
<path d="M0,0 L148,0 L171,1 L190,1 L207,0 L280,0 L326,1 L330,5 L332,11 L333,42 L333,101 L334,108 L334,149 L330,152 L314,152 L294,153 L286,152 L263,152 L256,153 L82,153 L78,152 L66,152 L59,153 L42,153 L30,152 L27,153 L8,153 L-12,152 L-17,149 L-20,142 L-22,133 L-24,55 L-24,12 L-21,5 L-15,1 Z " fill="#000000" transform="translate(55,765)"/>
</svg>
