<?xml version="1.0" encoding="UTF-8"?>
<!-- Generator: visioncortex VTracer 0.6.12 -->
<svg version="1.1" xmlns="http://www.w3.org/2000/svg" width="408" height="894">
<path d="M0,0 L27,0 L39,3 L42,6 L42,11 L36,18 L29,26 L23,33 L16,43 L12,49 L7,55 L1,63 L-12,83 L-20,97 L-28,110 L-34,121 L-39,134 L-46,148 L-51,160 L-56,171 L-62,187 L-73,219 L-78,230 L-80,240 L-82,242 L-89,265 L-96,290 L-100,302 L-102,311 L-106,322 L-109,338 L-118,374 L-122,395 L-124,400 L-129,430 L-130,432 L-133,453 L-134,458 L-135,476 L-136,480 L-138,498 L-140,508 L-141,524 L-143,545 L-146,589 L-145,638 L-142,668 L-137,693 L-133,709 L-129,723 L-118,754 L-112,770 L-104,786 L-91,810 L-83,826 L-84,831 L-89,836 L-95,837 L-99,833 L-106,819 L-115,802 L-121,785 L-127,777 L-129,776 L-140,776 L-150,779 L-187,779 L-198,778 L-217,772 L-236,763 L-247,755 L-258,744 L-266,738 L-273,729 L-280,720 L-287,709 L-291,700 L-298,684 L-302,672 L-308,643 L-310,630 L-310,587 L-309,576 L-308,568 L-305,540 L-304,537 L-303,517 L-300,501 L-296,475 L-293,456 L-288,427 L-285,415 L-282,399 L-278,385 L-277,383 L-275,370 L-267,342 L-263,326 L-260,312 L-254,294 L-248,278 L-242,261 L-238,253 L-235,246 L-230,234 L-224,222 L-219,209 L-210,192 L-204,181 L-199,174 L-191,158 L-184,148 L-181,143 L-179,138 L-170,126 L-166,117 L-154,104 L-146,93 L-135,79 L-120,63 L-113,55 L-108,53 L-106,49 L-90,36 L-79,29 L-68,21 L-52,13 L-42,8 L-27,4 L-11,1 Z M-47,41 L-55,45 L-60,52 L-62,57 L-62,66 L-58,75 L-48,82 L-38,82 L-28,80 L-21,72 L-20,68 L-20,56 L-24,49 L-31,43 L-35,41 Z M-95,89 L-109,96 L-117,107 L-120,114 L-121,124 L-119,132 L-111,145 L-104,151 L-97,155 L-80,155 L-69,151 L-61,144 L-56,135 L-54,123 L-54,114 L-58,105 L-63,99 L-71,93 L-81,89 Z M-142,170 L-158,175 L-168,184 L-171,188 L-176,204 L-175,221 L-172,228 L-167,238 L-161,243 L-156,247 L-143,251 L-138,252 L-129,252 L-116,248 L-105,242 L-97,228 L-94,215 L-96,200 L-100,191 L-106,184 L-110,178 L-124,171 L-132,170 Z M-183,275 L-196,279 L-205,285 L-212,290 L-218,300 L-223,311 L-224,329 L-221,341 L-214,352 L-204,362 L-190,369 L-180,372 L-168,372 L-159,369 L-147,362 L-137,350 L-131,337 L-130,333 L-130,324 L-132,309 L-139,296 L-146,288 L-159,280 L-169,276 Z M-206,393 L-220,396 L-233,403 L-241,412 L-248,426 L-250,435 L-250,446 L-246,461 L-239,470 L-230,478 L-218,485 L-210,487 L-196,487 L-181,482 L-171,476 L-164,466 L-159,457 L-157,449 L-157,435 L-161,420 L-169,409 L-173,404 L-183,398 L-193,394 L-198,393 Z M-226,509 L-239,511 L-249,517 L-261,530 L-266,539 L-268,546 L-268,563 L-263,578 L-255,588 L-248,594 L-234,600 L-219,602 L-210,601 L-197,596 L-192,593 L-192,591 L-188,589 L-180,578 L-176,568 L-174,555 L-176,540 L-182,528 L-190,518 L-201,512 L-205,510 L-211,509 Z M-218,625 L-236,630 L-245,637 L-251,642 L-259,655 L-262,669 L-261,687 L-256,699 L-249,708 L-241,715 L-231,720 L-222,723 L-210,723 L-197,721 L-183,714 L-171,703 L-165,689 L-163,678 L-164,664 L-169,648 L-179,636 L-190,629 L-207,625 Z " fill="#000000" transform="translate(340,29)"/>
</svg>
