<?xml version="1.0" encoding="UTF-8"?>
<!-- Generator: visioncortex VTracer 0.6.12 -->
<svg version="1.1" xmlns="http://www.w3.org/2000/svg" width="660" height="762">
<path d="M0,0 L20,0 L43,2 L57,4 L77,7 L103,11 L126,16 L151,21 L181,29 L199,33 L240,45 L278,58 L286,61 L301,66 L320,74 L334,79 L359,89 L375,97 L395,106 L401,111 L398,123 L392,136 L387,141 L375,147 L368,153 L364,161 L362,171 L363,182 L368,195 L367,203 L361,219 L358,225 L352,227 L331,221 L313,215 L298,210 L278,203 L255,193 L238,186 L217,177 L201,170 L191,165 L175,157 L152,146 L140,140 L126,132 L108,122 L99,117 L92,113 L70,101 L66,98 L53,92 L44,86 L36,80 L32,76 L22,69 L13,62 L-1,52 L-12,44 L-16,36 L-15,28 L-6,9 L-3,2 Z " fill="#000000" transform="translate(47,29)"/>
<path d="M0,0 L8,0 L33,13 L42,19 L61,30 L74,38 L94,51 L105,58 L116,66 L126,74 L132,78 L142,86 L150,91 L152,95 L152,102 L148,114 L142,130 L139,135 L134,138 L121,138 L83,134 L46,127 L26,123 L13,121 L-29,112 L-38,108 L-40,106 L-39,98 L-36,91 L-29,80 L-21,75 L-12,69 L-5,60 L-3,52 L-3,38 L-9,24 L-8,15 L-3,3 Z " fill="#000000" transform="translate(477,157)"/>
<path d="M0,0 L22,0 L36,2 L76,6 L128,14 L156,20 L179,25 L195,29 L213,33 L236,39 L274,51 L284,55 L299,59 L315,65 L334,72 L348,78 L367,85 L393,96 L402,101 L405,104 L405,113 L399,130 L392,136 L383,140 L381,140 L381,142 L374,147 L369,157 L368,164 L368,172 L375,192 L374,198 L369,211 L365,216 L353,216 L328,208 L299,199 L269,188 L249,180 L232,174 L216,167 L204,162 L179,150 L160,142 L150,136 L135,128 L125,124 L109,115 L97,108 L89,104 L82,99 L72,94 L62,87 L42,74 L30,66 L12,54 L6,49 L-4,43 L-11,37 L-12,35 L-12,25 L-7,12 L-4,3 Z " fill="#000000" transform="translate(43,255)"/>
<path d="M0,0 L8,1 L22,10 L33,16 L47,24 L58,31 L66,36 L81,45 L93,53 L108,63 L120,72 L127,76 L135,82 L135,84 L140,86 L145,91 L145,102 L140,114 L135,126 L130,131 L113,131 L73,127 L55,124 L37,122 L20,119 L-4,115 L-30,109 L-38,105 L-39,104 L-39,97 L-35,86 L-32,81 L-14,70 L-8,63 L-5,56 L-4,42 L-10,25 L-8,13 L-4,3 Z " fill="#000000" transform="translate(481,376)"/>
<path d="M0,0 L20,1 L51,4 L61,6 L83,8 L114,13 L139,18 L162,22 L178,26 L216,35 L261,49 L288,57 L311,65 L326,71 L338,76 L365,87 L382,96 L383,97 L383,103 L376,120 L372,126 L358,134 L348,141 L343,151 L342,154 L342,168 L348,183 L348,191 L344,200 L338,212 L335,214 L327,214 L311,209 L289,202 L249,189 L236,183 L220,177 L191,165 L158,150 L141,142 L125,134 L110,126 L102,121 L86,113 L62,99 L48,90 L27,77 L14,68 L-1,58 L-16,47 L-21,42 L-20,32 L-16,21 L-9,5 L-6,2 Z " fill="#000000" transform="translate(53,481)"/>
<path d="M0,0 L9,1 L21,7 L33,13 L55,25 L80,40 L88,45 L108,57 L124,68 L136,77 L144,83 L161,94 L165,98 L166,106 L159,124 L152,138 L149,141 L140,142 L109,139 L73,135 L23,126 L6,123 L-17,118 L-35,114 L-41,111 L-42,110 L-42,102 L-38,92 L-32,82 L-18,74 L-11,67 L-8,64 L-6,56 L-6,41 L-11,28 L-10,20 L-5,6 L-2,1 Z " fill="#000000" transform="translate(466,594)"/>
</svg>
