<?xml version="1.0" encoding="UTF-8"?>
<!-- Generator: visioncortex VTracer 0.6.12 -->
<svg version="1.1" xmlns="http://www.w3.org/2000/svg" width="1308" height="1356">
<path d="M0,0 L579,0 L586,1 L586,55 L-121,55 L-286,56 L-393,56 L-427,57 L-452,56 L-484,56 L-568,57 L-573,58 L-586,57 L-650,57 L-657,58 L-722,57 L-722,3 L-631,3 L-619,4 L-617,6 L-617,9 L-614,7 L-610,3 L-560,2 L-532,2 L-523,1 L-511,2 L-400,1 L-202,1 Z " fill="#000000" transform="translate(722,35)"/>
<path d="M0,0 L5,1 L12,2 L200,2 L206,1 L219,1 L247,2 L332,2 L337,5 L339,14 L340,65 L340,983 L339,995 L336,1000 L331,1002 L325,1003 L276,1004 L269,1003 L252,1003 L240,1004 L205,1003 L167,1003 L155,1004 L134,1003 L-14,1003 L-21,1004 L-36,1003 L-346,1003 L-384,1004 L-394,1003 L-487,1003 L-511,1004 L-633,1004 L-666,1005 L-671,1001 L-673,995 L-674,977 L-674,809 L-673,756 L-673,611 L-672,583 L-672,277 L-671,177 L-671,14 L-668,8 L-666,6 L-610,5 L-608,4 L-541,5 L-536,4 L-528,5 L-503,4 L-486,5 L-469,5 L-415,4 L-409,4 L-407,3 L-384,3 L-343,4 L-339,3 L-318,4 L-305,4 L-293,2 L-288,4 L-274,3 L-191,3 L-162,2 L-57,2 L-51,1 L-46,2 L-41,1 L-25,2 L-4,2 Z M56,202 L51,203 L35,203 L25,205 L20,213 L16,226 L15,232 L15,252 L17,264 L23,281 L28,294 L34,306 L41,320 L48,331 L53,340 L58,349 L66,363 L74,381 L78,391 L83,407 L85,421 L84,435 L80,451 L76,462 L75,470 L79,474 L132,474 L143,472 L149,465 L157,449 L160,441 L162,429 L162,408 L159,388 L153,370 L146,358 L141,346 L135,334 L131,327 L123,314 L118,304 L113,296 L104,279 L97,259 L92,245 L92,221 L93,208 L89,204 L76,203 L66,203 Z M-167,499 L-172,500 L-337,500 L-376,501 L-499,501 L-510,503 L-515,508 L-515,570 L-510,578 L-508,579 L-400,580 L-327,579 L-233,579 L-154,580 L-128,579 L-19,579 L12,578 L26,577 L31,572 L31,511 L28,504 L24,501 L9,500 L-142,500 Z M110,500 L65,501 L61,506 L60,509 L60,554 L61,571 L64,576 L69,578 L136,578 L142,574 L143,570 L143,517 L142,507 L138,502 L128,500 Z M-564,590 L-566,594 L-560,597 L-556,598 L-555,593 L-560,590 Z " fill="#000000" transform="translate(821,168)"/>
<path d="M0,0 L6,1 L9,5 L10,28 L9,42 L9,78 L6,82 L-1,82 L-4,79 L-5,76 L-6,48 L-6,19 L-7,8 L-4,2 Z " fill="#000000" transform="translate(380,1238)"/>
<path d="M0,0 L5,2 L7,7 L4,12 L2,13 L-29,13 L-33,14 L-35,17 L-35,30 L-32,35 L-27,36 L-4,35 L-1,38 L-1,43 L-5,46 L-30,46 L-35,47 L-36,54 L-36,70 L-38,79 L-40,81 L-45,81 L-47,79 L-49,66 L-49,45 L-48,8 L-45,2 L-37,1 L-5,1 Z " fill="#000000" transform="translate(277,1238)"/>
<path d="M0,0 L9,1 L11,3 L17,20 L19,27 L23,36 L30,56 L35,69 L37,78 L36,80 L30,81 L25,76 L18,60 L14,57 L3,58 L-10,58 L-14,61 L-18,70 L-20,76 L-26,81 L-31,80 L-32,75 L-24,53 L-18,40 L-12,22 L-7,10 L-3,2 Z M1,21 L-1,23 L-7,40 L-6,45 L-3,48 L9,48 L11,46 L11,36 L7,23 L5,21 Z " fill="#000000" transform="translate(322,1240)"/>
<path d="M0,0 L9,1 L11,6 L11,30 L13,33 L17,31 L36,12 L38,12 L40,8 L47,1 L58,1 L59,6 L47,18 L43,23 L36,29 L35,37 L42,48 L47,54 L51,61 L59,70 L63,77 L61,82 L54,82 L48,79 L37,64 L30,54 L24,46 L20,45 L15,48 L12,53 L11,75 L8,80 L6,82 L1,82 L-2,79 L-3,72 L-3,2 Z " fill="#000000" transform="translate(151,1241)"/>
</svg>
