<?xml version="1.0" encoding="UTF-8"?>
<!-- Generator: visioncortex VTracer 0.6.12 -->
<svg version="1.1" xmlns="http://www.w3.org/2000/svg" width="834" height="540">
<path d="M0,0 L27,0 L66,3 L69,4 L78,4 L88,7 L97,8 L110,11 L138,18 L149,22 L164,26 L170,29 L187,35 L195,39 L204,42 L223,51 L242,61 L261,70 L272,78 L286,89 L298,98 L308,105 L312,109 L323,118 L336,130 L353,146 L361,154 L372,168 L380,176 L387,185 L394,195 L402,207 L410,218 L416,229 L426,245 L432,257 L438,267 L441,274 L444,282 L447,291 L451,301 L455,314 L463,338 L469,363 L471,376 L475,397 L476,403 L478,432 L478,461 L475,467 L473,469 L458,469 L454,468 L405,468 L317,467 L278,466 L182,465 L135,465 L60,464 L-43,464 L-99,462 L-165,463 L-323,463 L-323,416 L-299,416 L-294,417 L-290,416 L-274,416 L-237,417 L-180,417 L-95,418 L-60,418 L-28,419 L104,419 L142,420 L152,419 L156,420 L177,421 L180,420 L187,420 L191,421 L256,421 L280,422 L324,422 L359,423 L405,423 L420,422 L429,423 L428,409 L427,400 L425,383 L423,368 L420,358 L416,341 L412,328 L407,314 L401,298 L394,283 L386,267 L381,257 L378,253 L372,242 L364,231 L357,220 L347,206 L339,197 L330,186 L318,174 L311,166 L303,159 L291,148 L280,139 L270,131 L261,124 L251,117 L233,106 L218,97 L204,90 L199,88 L182,79 L164,72 L149,66 L132,61 L118,57 L101,53 L80,49 L51,45 L38,44 L-27,44 L-42,46 L-54,48 L-79,52 L-109,59 L-123,63 L-126,65 L-135,67 L-144,71 L-158,76 L-174,84 L-199,96 L-210,103 L-219,109 L-233,118 L-246,128 L-256,136 L-270,148 L-274,150 L-276,154 L-297,175 L-302,182 L-307,187 L-313,195 L-319,202 L-320,205 L-323,206 L-323,137 L-319,133 L-315,127 L-309,123 L-294,109 L-283,100 L-272,91 L-263,84 L-253,78 L-243,71 L-233,65 L-218,55 L-210,50 L-185,38 L-171,32 L-157,28 L-148,25 L-135,21 L-121,17 L-104,13 L-92,10 L-78,8 L-68,6 L-59,5 L-39,2 Z M311,426 L312,428 Z " fill="#000000" transform="translate(323,37)"/>
</svg>
