<?xml version="1.0" encoding="UTF-8"?>
<!-- Generator: visioncortex VTracer 0.6.12 -->
<svg version="1.1" xmlns="http://www.w3.org/2000/svg" width="936" height="870">
<path d="M0,0 L17,2 L29,7 L38,14 L44,21 L47,27 L51,33 L57,48 L58,63 L56,77 L56,83 L62,83 L71,76 L84,67 L93,61 L114,48 L126,39 L138,32 L151,24 L167,16 L175,11 L191,3 L195,0 L203,0 L208,5 L217,15 L227,23 L227,25 L230,26 L234,33 L234,44 L230,52 L228,52 L226,56 L217,69 L211,77 L200,89 L191,100 L182,109 L177,113 L168,124 L164,129 L156,136 L150,144 L147,149 L153,149 L167,142 L180,136 L197,130 L210,126 L220,124 L232,120 L249,117 L269,116 L273,115 L302,115 L316,116 L332,118 L362,125 L373,129 L383,132 L412,145 L426,152 L431,153 L428,148 L422,140 L417,131 L407,117 L396,103 L392,98 L385,89 L378,79 L368,64 L363,52 L363,42 L368,33 L375,26 L383,19 L388,13 L390,13 L390,11 L394,9 L404,10 L416,16 L431,26 L448,37 L458,45 L474,56 L487,67 L495,74 L505,83 L515,91 L519,90 L522,81 L530,62 L539,50 L552,40 L564,34 L575,30 L580,29 L603,29 L618,33 L631,37 L646,45 L657,52 L665,59 L672,67 L681,77 L689,91 L694,103 L697,118 L697,134 L696,145 L690,159 L681,173 L673,180 L662,187 L631,197 L630,202 L643,221 L651,229 L659,240 L669,251 L677,262 L684,270 L691,283 L696,293 L697,297 L697,304 L693,311 L681,324 L671,335 L662,338 L653,336 L641,329 L625,321 L616,315 L600,303 L592,296 L577,285 L566,276 L566,274 L562,272 L553,264 L548,259 L541,252 L537,251 L535,252 L535,258 L545,277 L554,296 L559,317 L566,338 L569,359 L571,391 L571,411 L569,438 L566,458 L561,479 L549,508 L538,531 L530,545 L526,553 L523,561 L523,569 L529,577 L537,584 L537,586 L541,588 L549,592 L554,593 L565,593 L583,589 L593,583 L600,577 L602,577 L604,572 L605,563 L597,561 L578,560 L573,558 L570,555 L569,547 L578,535 L585,521 L590,506 L594,488 L596,482 L598,467 L598,450 L596,433 L597,421 L602,416 L610,416 L621,420 L637,428 L655,439 L663,446 L663,448 L666,449 L666,451 L670,453 L675,457 L684,468 L692,478 L702,493 L710,510 L718,531 L722,543 L727,572 L727,596 L725,600 L718,604 L711,603 L698,595 L688,591 L681,589 L674,590 L669,593 L665,598 L663,598 L661,602 L656,608 L646,623 L638,639 L630,653 L625,667 L622,679 L615,698 L612,709 L609,725 L604,730 L594,733 L552,733 L528,736 L504,741 L484,747 L470,754 L456,763 L453,764 L453,766 L450,769 L449,775 L449,784 L451,796 L453,800 L453,808 L448,812 L437,812 L419,810 L399,801 L389,798 L373,790 L356,780 L347,773 L335,762 L335,760 L333,760 L333,758 L330,757 L325,752 L317,744 L311,739 L302,727 L292,711 L288,706 L288,699 L294,695 L302,693 L333,691 L357,686 L364,683 L376,680 L394,674 L409,669 L421,665 L429,661 L434,662 L436,664 L437,670 L437,687 L438,694 L449,694 L462,687 L465,686 L467,682 L475,672 L478,663 L479,654 L477,644 L471,634 L465,627 L463,626 L455,626 L438,636 L428,643 L405,655 L389,662 L372,666 L350,672 L315,676 L309,677 L289,677 L269,679 L257,678 L227,673 L210,668 L183,659 L171,654 L159,648 L151,644 L140,637 L127,627 L118,620 L109,615 L99,606 L94,605 L89,608 L81,616 L75,620 L73,620 L71,624 L68,630 L66,646 L69,661 L76,675 L82,682 L84,683 L84,685 L89,687 L97,691 L104,691 L107,688 L110,676 L111,666 L116,661 L123,661 L144,672 L161,677 L179,681 L193,687 L215,692 L225,693 L250,694 L262,696 L268,700 L269,701 L269,708 L259,721 L252,729 L244,737 L237,745 L227,755 L215,764 L203,773 L190,781 L176,790 L155,800 L141,806 L121,812 L111,814 L100,813 L89,808 L84,803 L85,795 L91,779 L91,772 L87,765 L74,756 L71,754 L71,752 L67,750 L57,743 L34,730 L18,722 L-10,711 L-19,708 L-40,702 L-46,701 L-62,700 L-67,697 L-69,694 L-70,679 L-68,662 L-68,652 L-72,631 L-74,616 L-80,593 L-89,574 L-97,564 L-100,560 L-103,559 L-117,558 L-140,558 L-151,552 L-150,545 L-148,543 L-144,522 L-140,508 L-137,492 L-132,481 L-124,465 L-113,451 L-103,438 L-91,424 L-81,414 L-76,412 L-76,410 L-64,402 L-52,395 L-36,390 L-28,391 L-23,396 L-22,401 L-26,415 L-27,423 L-26,447 L-24,455 L-22,470 L-19,482 L-16,489 L-11,508 L-5,518 L-2,522 L-2,529 L-4,534 L-13,539 L-27,543 L-37,545 L-38,550 L-31,558 L-26,562 L-16,566 L-2,567 L15,563 L22,559 L24,559 L24,557 L26,557 L27,554 L32,549 L40,542 L40,533 L34,521 L29,511 L27,503 L23,495 L18,480 L15,473 L9,444 L6,420 L5,409 L5,370 L9,342 L16,312 L21,296 L26,281 L35,264 L41,256 L48,242 L59,228 L60,224 L54,226 L47,232 L36,238 L26,246 L12,253 L-3,264 L-19,273 L-30,279 L-40,284 L-51,290 L-65,298 L-79,304 L-86,306 L-93,306 L-100,303 L-105,300 L-113,290 L-122,277 L-124,271 L-123,264 L-118,254 L-111,245 L-101,231 L-89,218 L-81,209 L-76,205 L-68,195 L-63,189 L-55,182 L-50,177 L-44,172 L-42,172 L-40,168 L-33,160 L-31,160 L-29,156 L-24,151 L-24,147 L-43,145 L-57,141 L-72,133 L-84,121 L-88,113 L-92,107 L-95,96 L-95,80 L-91,64 L-86,53 L-79,44 L-72,36 L-66,29 L-55,22 L-48,16 L-22,4 L-13,1 Z M-14,16 L-26,19 L-38,26 L-52,37 L-63,48 L-67,54 L-71,59 L-77,72 L-79,81 L-78,94 L-75,104 L-66,116 L-52,123 L-37,127 L-29,127 L-28,122 L-39,116 L-48,109 L-56,95 L-58,87 L-56,71 L-52,63 L-46,54 L-40,47 L-32,41 L-17,35 L-13,34 L-2,34 L7,38 L16,44 L21,49 L23,49 L26,58 L29,68 L29,79 L28,90 L30,91 L35,86 L40,73 L41,63 L39,48 L31,32 L23,25 L13,20 L-3,16 Z M191,22 L180,26 L164,34 L147,43 L133,52 L122,59 L104,72 L88,82 L73,94 L56,106 L45,114 L34,122 L24,130 L16,137 L7,145 L-3,152 L-3,154 L-7,156 L-12,161 L-23,171 L-31,178 L-34,182 L-34,184 L-38,186 L-49,195 L-55,200 L-64,211 L-73,220 L-80,228 L-88,236 L-95,246 L-102,254 L-105,260 L-106,269 L-102,279 L-94,287 L-91,288 L-81,288 L-68,283 L-50,272 L-31,262 L-25,258 L-13,252 L-2,245 L9,238 L24,227 L34,220 L44,212 L49,207 L59,199 L69,190 L77,184 L90,174 L96,170 L108,160 L122,149 L134,138 L141,131 L149,124 L156,115 L170,102 L177,94 L185,86 L192,78 L194,74 L198,72 L204,63 L207,58 L215,46 L215,39 L209,31 L207,31 L205,27 L199,22 Z M403,28 L394,34 L387,41 L382,50 L384,58 L390,70 L397,79 L402,86 L404,86 L406,91 L414,101 L424,117 L429,123 L434,128 L438,133 L446,140 L450,145 L452,145 L454,149 L463,159 L470,167 L497,194 L502,200 L513,207 L518,212 L520,212 L522,216 L528,221 L533,226 L542,233 L547,238 L556,248 L564,255 L572,262 L581,270 L590,277 L600,285 L610,292 L619,298 L624,302 L634,309 L652,316 L654,317 L660,317 L668,311 L675,303 L677,299 L676,292 L671,280 L661,269 L651,255 L641,242 L633,232 L626,224 L615,212 L611,206 L601,195 L594,187 L585,178 L578,170 L565,157 L558,149 L551,142 L543,136 L534,129 L533,127 L531,127 L530,124 L528,124 L527,121 L520,115 L515,110 L498,94 L494,91 L492,91 L491,88 L478,78 L462,65 L452,57 L444,51 L430,42 L419,35 L411,29 L409,28 Z M583,45 L567,52 L556,61 L552,66 L546,80 L543,89 L543,100 L546,112 L551,121 L556,127 L564,134 L575,145 L580,151 L585,156 L596,166 L606,172 L613,175 L621,177 L633,177 L650,173 L666,163 L672,153 L676,142 L679,127 L677,111 L671,93 L664,83 L655,71 L647,64 L642,60 L628,52 L619,49 L606,45 Z M-13,51 L-29,59 L-39,68 L-43,74 L-44,81 L-42,90 L-33,100 L-27,103 L-19,103 L-10,92 L-6,87 L4,82 L11,79 L13,77 L13,67 L8,59 L1,53 L-4,51 Z M24,94 L16,98 L6,99 L0,104 L-5,112 L-9,116 L-9,122 L-1,128 L5,128 L15,119 L26,110 L29,105 L29,97 L28,94 Z M273,135 L245,138 L206,148 L190,154 L165,166 L153,173 L139,180 L130,187 L117,197 L117,199 L113,201 L104,210 L99,216 L93,221 L78,241 L69,251 L62,261 L55,272 L48,286 L44,295 L40,305 L35,318 L31,336 L26,357 L24,370 L23,401 L25,433 L27,445 L32,461 L36,476 L44,497 L50,511 L55,521 L59,529 L69,544 L79,557 L81,560 L83,560 L85,564 L92,572 L101,581 L108,589 L116,596 L126,604 L136,611 L155,622 L168,630 L178,633 L190,639 L221,651 L239,655 L269,659 L293,659 L306,657 L335,654 L371,645 L385,641 L398,636 L413,628 L437,613 L446,606 L457,598 L468,589 L468,587 L472,585 L482,575 L487,570 L494,560 L501,552 L508,541 L514,533 L519,524 L527,510 L532,497 L536,487 L541,473 L546,449 L548,433 L549,428 L551,408 L551,387 L550,366 L546,344 L542,326 L537,313 L532,300 L529,293 L527,287 L517,268 L508,254 L500,243 L491,231 L483,221 L473,212 L465,205 L455,195 L447,189 L432,179 L425,175 L410,166 L386,153 L358,145 L342,140 L310,135 Z M-52,415 L-66,426 L-75,434 L-82,443 L-93,455 L-104,469 L-111,480 L-116,492 L-122,509 L-125,521 L-127,528 L-127,536 L-123,541 L-121,542 L-100,542 L-94,545 L-89,550 L-78,563 L-70,580 L-67,587 L-64,597 L-61,607 L-56,626 L-54,640 L-52,653 L-52,664 L-54,672 L-54,678 L-50,684 L-43,687 L-27,692 L-6,698 L13,705 L34,714 L53,724 L71,735 L85,745 L100,757 L108,764 L111,770 L110,781 L108,787 L108,794 L112,797 L119,796 L134,792 L152,785 L162,779 L174,773 L183,766 L198,756 L206,750 L213,745 L213,743 L217,741 L231,728 L238,720 L242,714 L241,710 L239,708 L215,706 L200,703 L179,698 L164,694 L153,690 L136,685 L130,685 L125,689 L121,699 L114,707 L110,709 L101,708 L84,702 L68,690 L60,681 L54,672 L49,657 L48,651 L48,639 L50,630 L55,616 L61,607 L77,592 L78,587 L74,577 L66,572 L60,564 L53,561 L47,564 L40,570 L23,578 L6,583 L-13,583 L-28,578 L-38,573 L-48,565 L-56,555 L-61,546 L-61,538 L-57,533 L-49,529 L-30,527 L-24,523 L-24,517 L-29,501 L-33,487 L-37,478 L-41,445 L-44,418 L-47,415 Z M618,443 L615,446 L612,477 L609,493 L605,508 L602,517 L598,533 L597,537 L599,541 L616,546 L626,553 L627,563 L624,570 L615,580 L612,585 L609,592 L604,597 L589,606 L584,608 L569,610 L553,610 L537,605 L527,600 L518,590 L509,583 L503,582 L497,587 L491,594 L485,599 L480,605 L480,614 L489,627 L492,631 L495,645 L494,664 L489,676 L480,690 L474,695 L469,700 L461,705 L450,710 L446,711 L431,711 L423,705 L420,698 L418,688 L415,686 L409,687 L398,691 L377,699 L361,703 L336,706 L319,708 L315,711 L316,716 L323,724 L335,737 L349,749 L351,752 L353,752 L353,754 L361,761 L372,769 L384,776 L398,783 L417,790 L421,792 L430,792 L433,787 L434,772 L437,761 L444,753 L462,743 L478,734 L487,730 L502,726 L518,722 L531,719 L553,717 L589,717 L593,713 L596,704 L598,694 L602,684 L608,666 L614,650 L623,633 L628,623 L635,611 L645,597 L652,589 L659,581 L669,569 L674,567 L681,567 L698,573 L704,573 L707,571 L707,557 L703,537 L695,516 L688,503 L682,493 L676,485 L671,479 L663,472 L658,467 L651,460 L646,455 L624,443 Z " fill="#000000" transform="translate(182,30)"/>
<path d="M0,0 L15,0 L31,3 L45,12 L51,16 L56,21 L64,29 L71,44 L72,49 L72,58 L70,68 L66,78 L58,86 L45,94 L37,96 L20,96 L10,91 L5,85 L1,69 L-4,67 L-16,65 L-21,60 L-29,48 L-31,41 L-31,29 L-27,18 L-23,13 L-14,6 L-7,2 Z M9,16 L-4,23 L-11,31 L-12,38 L-9,43 L-4,47 L7,50 L16,57 L21,67 L24,76 L27,78 L36,78 L47,70 L52,62 L53,59 L53,48 L50,41 L42,30 L31,22 L20,16 Z " fill="#000000" transform="translate(771,92)"/>
<path d="M0,0 L19,0 L42,4 L58,8 L82,16 L103,25 L117,34 L127,41 L138,50 L149,59 L161,72 L161,74 L163,74 L171,84 L181,98 L192,116 L199,131 L205,147 L210,167 L212,174 L215,199 L215,228 L211,260 L208,272 L199,296 L191,312 L186,320 L180,331 L172,343 L160,355 L153,363 L145,371 L129,383 L117,392 L106,399 L94,406 L82,411 L69,415 L50,421 L25,426 L0,427 L-38,423 L-59,418 L-78,411 L-100,401 L-125,386 L-125,384 L-129,382 L-140,372 L-148,365 L-157,356 L-164,348 L-170,341 L-170,339 L-173,338 L-183,321 L-191,308 L-201,284 L-204,272 L-207,265 L-209,257 L-214,221 L-214,196 L-212,175 L-210,168 L-208,152 L-196,125 L-188,109 L-180,95 L-168,79 L-157,67 L-146,56 L-135,48 L-124,39 L-113,32 L-106,27 L-89,19 L-74,12 L-60,7 L-46,4 L-20,1 Z M-13,19 L-28,21 L-53,26 L-72,33 L-91,41 L-107,51 L-120,61 L-129,67 L-136,74 L-145,85 L-155,96 L-162,104 L-169,114 L-176,126 L-179,132 L-181,140 L-186,150 L-191,171 L-194,186 L-194,207 L-193,216 L-192,240 L-187,263 L-177,289 L-167,308 L-157,324 L-150,332 L-142,343 L-130,355 L-125,360 L-111,371 L-92,382 L-80,389 L-59,396 L-42,402 L-27,404 L-1,406 L17,406 L41,403 L63,396 L89,385 L106,375 L120,365 L128,359 L140,347 L140,345 L144,343 L146,339 L149,338 L158,326 L164,316 L176,297 L184,279 L188,266 L191,256 L194,240 L195,230 L195,196 L191,170 L181,141 L173,125 L167,114 L157,99 L144,82 L138,77 L131,69 L119,59 L106,50 L85,38 L75,33 L50,25 L26,19 Z " fill="#000000" transform="translate(468,215)"/>
<path d="M0,0 L20,1 L70,3 L103,3 L137,4 L149,5 L167,5 L195,7 L216,7 L238,8 L268,8 L286,12 L293,17 L295,21 L295,27 L287,41 L282,52 L279,63 L276,95 L272,133 L269,152 L262,174 L252,193 L244,207 L235,217 L227,228 L211,239 L202,245 L194,250 L175,259 L154,266 L144,269 L131,270 L114,266 L101,261 L92,255 L86,251 L77,246 L65,238 L51,227 L40,214 L29,197 L23,187 L17,169 L11,146 L10,134 L10,105 L13,85 L13,67 L8,47 L2,32 L-6,19 L-7,17 L-7,10 L-3,2 Z M26,20 L22,23 L23,32 L27,45 L30,53 L32,64 L36,68 L38,69 L77,71 L124,71 L150,73 L159,73 L169,74 L204,75 L241,75 L254,73 L259,68 L265,44 L270,34 L270,29 L266,26 L262,25 L222,23 L163,22 L125,21 L61,21 L49,20 Z M37,84 L32,89 L30,98 L28,136 L34,162 L40,178 L45,186 L49,188 L54,185 L55,182 L56,167 L56,99 L55,88 L51,85 L48,84 Z M82,85 L76,89 L73,102 L73,145 L71,169 L71,212 L73,219 L80,226 L89,232 L94,233 L98,229 L101,176 L102,156 L103,148 L101,133 L101,98 L100,89 L96,86 L92,85 Z M138,88 L122,90 L118,94 L116,100 L116,134 L117,139 L117,168 L115,201 L115,235 L116,244 L123,250 L127,252 L136,252 L142,249 L145,244 L145,205 L146,186 L146,167 L148,140 L148,101 L146,91 L141,88 Z M168,89 L163,94 L161,104 L162,115 L163,132 L162,154 L161,161 L160,239 L163,242 L169,242 L184,234 L186,231 L185,217 L185,192 L187,144 L187,96 L185,91 L182,89 Z M209,89 L205,91 L202,100 L202,136 L201,141 L201,156 L202,179 L200,190 L201,197 L201,211 L203,214 L209,214 L218,206 L224,198 L224,158 L225,147 L226,111 L225,98 L222,92 L217,89 Z M245,90 L242,93 L241,101 L240,131 L241,156 L243,158 L248,157 L251,147 L257,116 L257,97 L255,92 L253,90 Z " fill="#000000" transform="translate(330,312)"/>
</svg>
