<?xml version="1.0" encoding="UTF-8"?>
<!-- Generator: visioncortex VTracer 0.6.12 -->
<svg version="1.1" xmlns="http://www.w3.org/2000/svg" width="1041" height="993">
<path d="M0,0 L1023,0 L1027,16 L1028,43 L1029,116 L1029,150 L1030,365 L1031,403 L1030,419 L1031,438 L1032,526 L1033,545 L1032,575 L1033,589 L1034,676 L1034,719 L1035,765 L1035,805 L1036,852 L1036,879 L1037,956 L1037,991 L1036,993 L0,993 Z M673,88 L668,92 L662,107 L651,136 L648,146 L641,164 L634,184 L627,203 L620,222 L615,231 L613,232 L574,233 L507,233 L436,234 L400,234 L306,235 L256,236 L217,237 L212,240 L210,243 L212,255 L221,279 L226,292 L234,316 L238,326 L246,348 L254,371 L260,386 L267,406 L270,415 L275,429 L282,448 L289,466 L298,491 L304,508 L312,530 L315,539 L320,554 L326,568 L334,590 L342,606 L351,620 L362,633 L368,640 L376,647 L386,656 L397,664 L412,674 L425,682 L450,692 L465,696 L468,701 L469,706 L470,775 L470,796 L469,812 L466,824 L461,833 L456,838 L448,843 L442,846 L432,848 L355,849 L330,849 L286,850 L280,854 L278,863 L278,901 L279,921 L283,925 L293,927 L515,927 L543,926 L580,927 L618,927 L715,926 L736,925 L741,922 L743,917 L744,884 L744,864 L741,853 L737,849 L726,848 L626,847 L618,846 L588,847 L571,842 L563,836 L556,826 L553,817 L552,798 L551,721 L551,704 L553,697 L559,694 L574,690 L584,686 L609,674 L615,670 L620,666 L628,660 L637,653 L647,644 L659,631 L668,620 L678,605 L684,595 L695,571 L702,551 L706,539 L711,526 L715,513 L718,505 L724,487 L730,472 L733,462 L736,456 L741,438 L747,422 L752,407 L756,398 L763,378 L767,367 L774,347 L783,321 L787,309 L793,293 L803,266 L809,248 L810,239 L806,235 L803,234 L778,233 L683,233 L679,231 L679,224 L685,205 L689,194 L694,182 L700,165 L704,152 L710,134 L715,120 L718,110 L717,104 L711,99 L691,91 L680,88 Z " fill="#000000" transform="translate(0,0)"/>
<path d="M0,0 L37,0 L39,2 L39,10 L31,34 L28,41 L25,50 L22,58 L16,74 L10,93 L3,112 L-1,123 L-7,141 L-15,160 L-20,177 L-24,188 L-32,211 L-40,234 L-44,243 L-50,255 L-63,271 L-73,281 L-84,289 L-95,295 L-110,301 L-126,305 L-140,306 L-150,306 L-163,305 L-176,302 L-187,299 L-202,291 L-216,282 L-223,275 L-230,269 L-237,259 L-247,241 L-253,227 L-257,214 L-262,203 L-265,194 L-276,164 L-279,158 L-283,145 L-287,137 L-291,124 L-301,95 L-306,83 L-311,68 L-320,46 L-324,34 L-332,13 L-332,6 L-329,3 L-309,2 L-279,2 L-232,1 L-75,1 L-70,4 L-71,13 L-81,40 L-84,50 L-89,63 L-94,79 L-102,101 L-112,130 L-117,145 L-124,164 L-127,174 L-134,193 L-145,225 L-152,246 L-156,258 L-155,266 L-146,269 L-135,273 L-124,277 L-123,278 L-107,278 L-105,273 L-94,243 L-88,228 L-79,199 L-72,179 L-66,164 L-59,142 L-54,127 L-42,93 L-34,73 L-29,57 L-19,29 L-14,16 L-10,6 L-5,1 Z " fill="#000000" transform="translate(655,312)"/>
</svg>
