<?xml version="1.0" encoding="UTF-8"?>
<!-- Generator: visioncortex VTracer 0.6.12 -->
<svg version="1.1" xmlns="http://www.w3.org/2000/svg" width="1359" height="1329">
<path d="M0,0 L114,0 L114,54 L49,55 L26,55 L-1,56 L-23,56 L-56,57 L-169,58 L-191,59 L-227,59 L-263,60 L-326,61 L-364,61 L-462,63 L-503,63 L-569,64 L-636,65 L-672,66 L-696,66 L-778,67 L-896,69 L-927,69 L-1032,70 L-1091,70 L-1111,71 L-1115,73 L-1121,73 L-1124,71 L-1194,70 L-1245,70 L-1245,16 L-1239,15 L-1220,15 L-1215,12 L-1211,13 L-1209,14 L-1125,15 L-1096,15 L-974,14 L-936,14 L-882,13 L-860,13 L-781,12 L-759,12 L-645,10 L-624,10 L-591,9 L-572,9 L-512,8 L-437,7 L-403,6 L-373,6 L-336,5 L-305,5 L-179,3 L-100,2 L-46,1 L-1,1 Z " fill="#000000" transform="translate(1245,0)"/>
<path d="M0,0 L28,0 L54,1 L78,4 L94,7 L114,10 L128,14 L144,17 L159,22 L174,27 L183,30 L203,38 L211,42 L224,47 L241,55 L251,61 L268,70 L277,77 L291,85 L298,91 L308,97 L319,106 L327,113 L333,117 L339,122 L344,128 L352,134 L366,147 L373,155 L381,162 L391,175 L402,187 L409,196 L417,207 L424,217 L433,231 L438,239 L444,249 L450,258 L455,268 L462,282 L471,301 L477,314 L481,327 L485,336 L488,346 L491,356 L494,365 L498,378 L503,401 L506,421 L509,438 L512,465 L513,478 L513,528 L510,562 L504,599 L502,606 L500,618 L496,632 L494,640 L491,652 L483,671 L479,683 L471,703 L469,706 L466,715 L461,723 L457,732 L444,756 L437,767 L430,778 L423,788 L417,796 L412,804 L407,809 L399,819 L390,830 L381,841 L377,846 L369,853 L365,858 L357,865 L348,873 L343,878 L332,888 L319,898 L305,909 L294,917 L284,924 L274,930 L264,936 L257,940 L238,951 L212,963 L200,969 L190,972 L182,976 L174,978 L163,982 L153,986 L142,985 L136,991 L118,995 L104,999 L83,1002 L76,1004 L63,1006 L34,1007 L32,1008 L-26,1008 L-37,1007 L-51,1006 L-55,1005 L-64,1005 L-84,1002 L-93,999 L-115,996 L-131,991 L-146,987 L-164,980 L-173,978 L-193,970 L-215,960 L-229,953 L-245,945 L-256,938 L-268,931 L-276,926 L-284,920 L-293,914 L-302,907 L-310,901 L-317,895 L-325,889 L-336,878 L-347,869 L-370,846 L-377,838 L-387,827 L-394,819 L-397,813 L-403,806 L-412,794 L-418,786 L-423,777 L-430,768 L-438,754 L-443,744 L-452,728 L-456,719 L-465,699 L-470,685 L-483,649 L-486,634 L-491,618 L-498,580 L-502,540 L-504,524 L-504,491 L-501,466 L-500,453 L-498,438 L-496,426 L-492,401 L-490,397 L-489,387 L-487,383 L-485,372 L-479,354 L-471,330 L-463,311 L-457,297 L-449,281 L-445,273 L-438,260 L-433,252 L-427,241 L-420,231 L-414,223 L-409,215 L-405,210 L-403,210 L-401,204 L-397,199 L-392,195 L-386,186 L-382,181 L-378,175 L-373,170 L-368,164 L-363,159 L-355,152 L-353,149 L-348,146 L-344,140 L-337,135 L-333,130 L-322,121 L-309,111 L-304,109 L-302,105 L-291,96 L-276,87 L-271,83 L-255,73 L-235,61 L-225,57 L-216,52 L-213,49 L-199,44 L-182,37 L-166,31 L-160,29 L-155,27 L-147,27 L-142,23 L-123,17 L-108,13 L-96,11 L-90,9 L-78,10 L-69,8 L-64,5 L-45,3 L-38,2 L-29,1 Z M-21,7 L-24,12 L-45,13 L-50,15 L-59,15 L-60,16 L-78,18 L-85,20 L-98,22 L-104,24 L-114,26 L-123,29 L-150,37 L-166,43 L-186,51 L-203,58 L-212,62 L-228,70 L-245,79 L-254,85 L-264,91 L-272,97 L-280,102 L-289,109 L-299,117 L-313,128 L-318,131 L-328,141 L-333,145 L-337,150 L-345,157 L-353,164 L-362,175 L-367,181 L-372,186 L-383,199 L-394,213 L-402,224 L-409,236 L-420,252 L-426,263 L-431,273 L-439,287 L-446,303 L-454,323 L-459,335 L-471,371 L-476,392 L-481,413 L-484,431 L-486,443 L-488,462 L-489,482 L-490,539 L-488,557 L-483,594 L-477,623 L-468,654 L-457,687 L-451,701 L-443,718 L-435,734 L-422,757 L-415,768 L-409,777 L-400,790 L-388,806 L-381,815 L-372,826 L-367,830 L-360,838 L-348,851 L-334,865 L-329,870 L-316,881 L-300,893 L-291,900 L-279,908 L-273,913 L-266,917 L-257,923 L-242,932 L-226,941 L-210,949 L-187,959 L-179,963 L-168,967 L-155,971 L-148,975 L-137,976 L-130,979 L-114,983 L-109,985 L-94,987 L-92,988 L-79,990 L-54,994 L-23,996 L6,997 L26,996 L55,994 L77,991 L84,989 L100,987 L107,985 L119,983 L160,971 L177,965 L187,961 L206,953 L229,942 L245,934 L265,923 L272,917 L282,911 L299,899 L310,890 L323,879 L325,878 L325,876 L329,874 L337,868 L350,855 L358,848 L367,839 L374,831 L385,819 L389,813 L393,809 L402,798 L411,786 L419,773 L426,763 L438,743 L442,735 L454,713 L459,703 L464,690 L468,681 L473,666 L479,649 L482,638 L486,626 L491,603 L494,587 L497,570 L501,537 L501,468 L499,453 L498,439 L488,389 L484,373 L477,350 L473,339 L462,311 L457,300 L453,290 L446,278 L440,266 L430,249 L427,243 L423,238 L415,226 L409,218 L406,213 L398,203 L390,193 L382,183 L375,172 L369,168 L360,159 L355,154 L348,146 L340,139 L332,131 L319,121 L305,109 L294,102 L283,94 L271,87 L263,82 L250,74 L238,67 L229,63 L220,59 L209,54 L191,46 L175,41 L166,37 L151,33 L142,29 L130,27 L115,23 L101,20 L53,13 L28,12 L19,11 L2,11 L-14,12 L-19,7 Z " fill="#000000" transform="translate(717,113)"/>
<path d="M0,0 L20,0 L26,1 L30,0 L98,0 L102,2 L104,9 L102,27 L97,39 L86,57 L80,66 L71,77 L63,89 L56,96 L49,104 L43,111 L35,118 L24,128 L20,132 L9,140 L4,144 L-2,148 L-10,154 L-22,162 L-32,168 L-43,174 L-60,182 L-70,186 L-80,190 L-96,197 L-112,206 L-121,213 L-128,219 L-134,227 L-136,235 L-137,247 L-137,463 L-136,521 L-131,534 L-127,540 L-113,547 L-91,553 L-75,557 L-60,562 L-52,564 L-43,565 L-27,570 L-8,575 L0,580 L3,587 L3,593 L0,598 L-6,599 L-31,600 L-132,601 L-170,602 L-184,602 L-201,603 L-224,603 L-269,604 L-334,604 L-338,600 L-338,590 L-334,584 L-330,581 L-303,572 L-293,569 L-278,565 L-271,562 L-259,559 L-250,556 L-235,552 L-226,549 L-215,546 L-206,541 L-200,534 L-198,528 L-197,520 L-197,493 L-196,460 L-195,452 L-196,448 L-197,421 L-196,391 L-196,238 L-202,223 L-207,217 L-207,215 L-211,213 L-218,207 L-235,199 L-248,194 L-258,191 L-266,188 L-281,183 L-298,175 L-308,171 L-316,166 L-330,158 L-340,151 L-345,148 L-348,145 L-356,139 L-360,135 L-360,133 L-366,131 L-381,117 L-401,97 L-408,89 L-412,84 L-419,73 L-425,66 L-429,60 L-437,47 L-442,38 L-444,28 L-444,17 L-442,10 L-435,8 L-424,8 L-399,7 L-368,6 L-347,6 L-299,5 L-278,5 L-269,4 L-192,3 L-152,2 L-133,2 L-124,1 L-114,2 L-96,3 L-92,1 L-51,1 Z " fill="#000000" transform="translate(893,360)"/>
<path d="M0,0 L3,0 L3,3 L-1,2 Z " fill="#000000" transform="translate(433,386)"/>
<path d="M0,0 Z " fill="#000000" transform="translate(1047,871)"/>
<path d="M0,0 L4,1 L5,6 L-2,27 L-7,38 L-11,51 L-15,60 L-22,77 L-26,84 L-31,84 L-33,81 L-32,75 L-22,50 L-14,28 L-9,14 L-5,4 Z " fill="#000000" transform="translate(319,1211)"/>
<path d="M0,0 L18,1 L25,4 L33,11 L36,17 L36,23 L33,26 L26,25 L22,15 L15,11 L0,11 L-6,15 L-8,18 L-8,26 L-5,30 L4,34 L21,37 L34,44 L38,50 L40,57 L39,67 L34,75 L22,83 L4,83 L-6,81 L-15,77 L-21,70 L-24,63 L-24,56 L-22,54 L-16,54 L-12,58 L-8,67 L0,71 L3,72 L17,72 L23,68 L26,61 L25,55 L18,49 L13,47 L-2,44 L-14,38 L-20,30 L-21,28 L-21,16 L-14,6 L-6,2 Z " fill="#000000" transform="translate(229,1214)"/>
<path d="M0,0 L8,0 L12,5 L20,21 L24,32 L29,43 L36,63 L40,72 L40,79 L38,81 L32,81 L27,76 L25,70 L19,58 L12,57 L-8,58 L-12,59 L-14,67 L-19,78 L-22,81 L-28,81 L-31,78 L-30,71 L-22,52 L-15,32 L-10,21 L-5,6 L-2,1 Z M2,22 L-1,27 L-5,41 L-3,45 L4,47 L11,46 L14,41 L11,31 L7,22 Z " fill="#000000" transform="translate(442,1214)"/>
<path d="M0,0 L51,0 L56,2 L57,8 L54,11 L44,11 L34,13 L32,16 L32,77 L29,80 L22,79 L20,75 L19,69 L19,40 L18,14 L15,12 L-5,12 L-7,9 L-7,3 L-5,1 Z " fill="#000000" transform="translate(348,1214)"/>
</svg>
