<?xml version="1.0" encoding="UTF-8"?>
<!-- Generator: visioncortex VTracer 0.6.12 -->
<svg version="1.1" xmlns="http://www.w3.org/2000/svg" width="696" height="900">
<path d="M0,0 L13,0 L25,2 L36,6 L54,16 L63,21 L72,29 L95,40 L108,45 L122,50 L132,59 L142,66 L154,72 L165,80 L182,90 L197,100 L205,107 L216,116 L224,123 L238,133 L253,149 L261,158 L269,169 L277,185 L288,197 L293,205 L296,211 L301,218 L304,225 L312,242 L319,257 L326,272 L332,291 L337,327 L339,333 L341,348 L342,372 L341,382 L342,384 L344,402 L344,419 L341,437 L340,450 L339,458 L338,470 L334,482 L331,493 L325,512 L320,519 L318,519 L317,522 L312,527 L303,537 L295,549 L291,567 L288,577 L286,600 L284,616 L280,632 L278,646 L275,662 L272,674 L266,686 L256,701 L248,708 L246,708 L245,711 L232,721 L220,732 L214,741 L206,758 L193,779 L188,785 L179,792 L166,800 L153,806 L144,810 L122,815 L107,817 L87,817 L73,818 L54,823 L41,827 L18,838 L3,842 L-15,843 L-29,843 L-49,839 L-60,835 L-77,825 L-93,820 L-105,815 L-116,813 L-156,811 L-169,807 L-189,799 L-209,791 L-223,781 L-229,776 L-236,767 L-244,756 L-253,742 L-264,724 L-268,717 L-272,713 L-279,705 L-286,697 L-292,689 L-294,681 L-294,672 L-288,660 L-285,656 L-283,656 L-281,652 L-274,644 L-266,636 L-263,631 L-254,620 L-246,609 L-237,596 L-227,581 L-218,568 L-210,558 L-205,553 L-195,542 L-187,537 L-180,528 L-177,527 L-177,525 L-167,518 L-162,513 L-152,505 L-137,495 L-124,487 L-100,474 L-81,466 L-63,458 L-44,452 L-34,448 L-23,443 L3,437 L8,435 L8,428 L3,426 L-11,417 L-20,412 L-36,404 L-48,399 L-57,393 L-68,387 L-83,378 L-92,371 L-106,363 L-114,357 L-127,350 L-136,342 L-147,335 L-147,333 L-151,331 L-165,321 L-177,314 L-187,305 L-199,294 L-211,284 L-211,282 L-215,280 L-228,268 L-239,256 L-248,246 L-254,239 L-264,225 L-270,218 L-276,210 L-283,199 L-288,193 L-289,191 L-289,183 L-286,179 L-269,173 L-261,168 L-244,166 L-223,159 L-201,154 L-190,152 L-168,148 L-156,146 L-150,144 L-106,140 L-42,140 L-20,146 L-15,147 L6,148 L10,145 L11,142 L11,105 L9,77 L8,71 L7,54 L4,39 L-3,18 L-5,7 L-3,2 Z M25,23 L21,25 L20,32 L21,38 L22,62 L24,68 L25,87 L28,138 L29,151 L30,167 L39,215 L49,245 L54,261 L58,270 L64,288 L71,302 L78,316 L91,334 L95,340 L100,348 L104,354 L110,362 L116,369 L121,373 L128,381 L140,393 L144,396 L146,396 L146,398 L159,407 L169,413 L185,422 L210,427 L241,427 L255,425 L264,421 L270,417 L271,416 L270,407 L266,399 L261,395 L255,386 L251,378 L245,370 L236,364 L220,358 L204,351 L194,346 L168,334 L159,329 L148,324 L132,315 L117,307 L109,303 L93,295 L87,291 L84,286 L90,286 L117,299 L133,306 L145,312 L153,318 L173,326 L183,332 L198,338 L217,347 L223,347 L225,345 L225,339 L219,330 L211,313 L203,302 L198,294 L190,284 L182,273 L180,273 L178,269 L169,263 L153,255 L138,249 L127,245 L110,237 L98,232 L83,224 L62,215 L58,212 L58,210 L65,210 L82,218 L91,222 L107,229 L119,234 L128,238 L145,244 L149,246 L156,245 L157,238 L154,232 L150,227 L146,219 L138,204 L128,190 L121,182 L105,174 L78,161 L72,157 L61,153 L50,147 L48,147 L47,143 L54,143 L68,149 L76,154 L86,158 L92,161 L101,161 L103,157 L94,141 L89,133 L80,117 L67,98 L62,88 L56,78 L49,68 L47,63 L48,59 L53,60 L61,71 L71,87 L78,97 L86,108 L93,118 L98,128 L105,134 L110,134 L111,133 L111,111 L110,106 L110,93 L114,92 L116,92 L119,103 L122,118 L123,135 L126,157 L128,170 L143,195 L151,206 L158,215 L165,223 L171,223 L172,222 L173,207 L173,181 L172,172 L172,141 L176,141 L178,145 L182,173 L182,205 L183,211 L185,253 L190,267 L199,275 L206,288 L217,300 L221,306 L227,315 L231,321 L238,322 L241,318 L241,309 L242,299 L242,228 L243,209 L247,209 L250,220 L251,227 L252,260 L253,269 L252,285 L252,343 L256,359 L261,369 L263,369 L265,373 L277,387 L286,401 L294,411 L303,422 L308,427 L314,433 L319,434 L322,431 L326,418 L328,371 L327,342 L317,297 L309,278 L305,267 L297,251 L292,240 L289,233 L281,217 L274,208 L270,199 L263,188 L260,183 L253,177 L244,165 L235,155 L220,140 L218,140 L218,138 L216,138 L214,134 L203,124 L190,115 L178,104 L172,100 L162,92 L146,84 L132,75 L117,67 L108,62 L87,52 L77,45 L61,37 L37,27 L32,24 Z M-101,152 L-144,154 L-166,158 L-178,161 L-201,165 L-221,170 L-230,173 L-239,175 L-247,179 L-256,183 L-264,189 L-266,191 L-266,198 L-258,212 L-246,229 L-235,242 L-227,249 L-220,255 L-214,263 L-205,270 L-193,281 L-187,286 L-182,291 L-173,298 L-164,305 L-156,312 L-145,320 L-129,332 L-117,341 L-99,353 L-89,360 L-67,372 L-45,385 L-29,394 L-14,403 L5,412 L22,419 L29,422 L39,424 L51,425 L72,425 L87,423 L100,422 L107,419 L112,414 L113,413 L113,404 L107,396 L98,388 L91,388 L68,398 L61,401 L55,401 L56,397 L75,387 L85,378 L86,369 L79,358 L71,347 L65,338 L59,329 L57,329 L57,327 L53,325 L44,325 L24,332 L8,340 L-4,346 L-20,354 L-41,362 L-45,364 L-50,363 L-48,359 L-37,353 L-22,344 L-12,340 L4,334 L22,326 L39,317 L44,312 L44,306 L39,301 L30,295 L13,289 L-8,282 L-19,279 L-27,279 L-37,284 L-55,291 L-62,294 L-73,298 L-93,306 L-113,310 L-119,313 L-125,313 L-123,309 L-108,303 L-95,298 L-84,294 L-68,288 L-59,285 L-47,278 L-46,271 L-54,265 L-68,260 L-77,257 L-88,253 L-93,252 L-107,252 L-118,255 L-138,258 L-158,262 L-171,262 L-171,260 L-163,257 L-144,254 L-135,250 L-132,247 L-131,243 L-135,239 L-159,231 L-166,228 L-182,225 L-203,217 L-217,211 L-217,209 L-211,208 L-198,212 L-189,215 L-180,218 L-164,221 L-141,228 L-135,228 L-131,225 L-133,216 L-147,198 L-154,190 L-157,185 L-157,182 L-151,183 L-142,194 L-134,203 L-127,212 L-119,220 L-117,223 L-115,223 L-113,227 L-108,234 L-106,234 L-106,236 L-96,241 L-83,246 L-68,251 L-55,255 L-48,254 L-46,251 L-47,245 L-55,231 L-65,218 L-72,208 L-79,197 L-89,185 L-94,176 L-95,172 L-89,174 L-83,181 L-77,189 L-70,198 L-61,213 L-54,222 L-51,225 L-49,225 L-47,229 L-38,242 L-34,246 L-25,258 L-20,265 L-7,272 L11,276 L18,279 L26,279 L30,275 L29,266 L22,252 L14,239 L5,222 L-8,200 L-13,190 L-13,186 L-7,187 L0,194 L6,194 L8,192 L8,178 L5,167 L-3,163 L-23,159 L-49,155 L-58,153 L-73,152 Z M271,438 L248,441 L225,443 L199,443 L181,441 L141,441 L131,440 L106,440 L94,442 L73,444 L69,445 L58,445 L17,450 L-14,457 L-28,460 L-45,466 L-59,473 L-79,480 L-95,488 L-109,496 L-125,506 L-143,516 L-154,525 L-165,533 L-175,544 L-183,551 L-190,558 L-197,566 L-203,574 L-210,586 L-216,595 L-220,603 L-229,612 L-235,620 L-246,633 L-251,640 L-256,645 L-264,661 L-265,665 L-265,673 L-260,678 L-247,684 L-221,689 L-202,695 L-165,704 L-144,709 L-118,714 L-96,719 L-75,723 L-39,724 L2,724 L23,722 L45,719 L57,717 L66,714 L88,709 L101,705 L117,700 L135,693 L145,687 L155,681 L162,677 L162,675 L167,673 L180,663 L188,657 L202,642 L210,633 L217,624 L227,610 L234,599 L241,585 L248,574 L256,555 L264,540 L268,531 L274,519 L283,505 L295,488 L304,478 L307,472 L307,466 L301,457 L293,447 L288,440 L285,438 Z " fill="#000000" transform="translate(323,29)"/>
<path d="M0,0 L13,0 L22,3 L26,5 L26,7 L30,9 L41,21 L46,25 L58,31 L65,37 L69,43 L74,50 L76,60 L76,70 L74,82 L68,94 L65,101 L59,110 L48,123 L37,138 L28,146 L23,149 L19,154 L9,160 L-4,168 L-16,174 L-28,180 L-44,188 L-49,191 L-58,194 L-67,196 L-91,206 L-127,216 L-152,222 L-190,227 L-212,229 L-220,230 L-253,231 L-271,231 L-286,228 L-305,225 L-320,220 L-336,212 L-346,206 L-350,199 L-352,194 L-353,179 L-351,169 L-347,163 L-343,155 L-340,150 L-340,133 L-337,120 L-332,114 L-325,110 L-298,110 L-286,103 L-283,100 L-280,80 L-271,64 L-266,60 L-255,56 L-246,56 L-234,60 L-227,60 L-210,52 L-203,50 L-200,47 L-195,33 L-191,27 L-184,19 L-176,15 L-164,12 L-157,12 L-145,17 L-134,24 L-124,24 L-114,20 L-102,19 L-98,17 L-96,12 L-88,5 L-83,2 L-69,1 L-59,4 L-50,10 L-46,11 L-35,11 L-27,12 L-16,12 L-5,3 Z M-33,43 L-37,46 L-39,59 L-39,71 L-37,73 L-33,72 L-30,67 L-28,58 L-28,46 Z M32,55 L29,58 L29,66 L36,74 L39,76 L46,75 L48,73 L47,64 L42,57 L38,55 Z M-120,56 L-121,58 L-122,73 L-119,88 L-117,90 L-112,89 L-110,84 L-111,75 L-113,59 L-116,56 Z M18,81 L15,83 L15,89 L19,94 L25,94 L27,92 L26,85 L22,81 Z M-212,85 L-215,88 L-214,96 L-210,105 L-205,128 L-200,139 L-196,140 L-192,137 L-192,125 L-195,116 L-198,104 L-203,92 L-207,86 Z M-34,116 L-41,122 L-42,124 L-42,131 L-40,133 L-33,133 L-26,127 L-25,120 L-28,116 Z M-2,118 L-8,122 L-12,129 L-11,136 L-6,139 L4,136 L7,132 L8,128 L8,121 L5,118 Z M-283,129 L-285,131 L-285,138 L-277,157 L-273,167 L-267,179 L-263,180 L-260,178 L-259,171 L-264,154 L-268,145 L-272,137 L-278,130 Z M-112,141 L-115,144 L-114,152 L-110,157 L-105,157 L-103,155 L-103,147 L-106,142 L-107,141 Z M-91,146 L-93,149 L-93,156 L-89,162 L-88,163 L-83,163 L-81,160 L-82,151 L-86,146 Z M-28,147 L-33,153 L-34,160 L-33,161 L-26,161 L-21,155 L-20,149 L-22,147 Z M-191,159 L-196,164 L-196,175 L-194,179 L-192,180 L-186,180 L-183,176 L-182,167 L-185,161 Z M-249,172 Z M-107,172 L-113,177 L-115,182 L-114,188 L-111,192 L-104,191 L-100,187 L-99,184 L-99,177 L-101,173 Z M-302,173 L-304,175 L-304,181 L-301,184 L-296,184 L-295,183 L-296,175 L-299,173 Z M-184,188 L-189,193 L-190,196 L-190,205 L-187,207 L-181,206 L-176,200 L-175,193 L-179,188 Z M-235,195 L-238,198 L-239,206 L-236,211 L-230,210 L-227,204 L-228,197 L-230,195 Z M-280,196 L-283,200 L-284,204 L-284,211 L-280,216 L-273,216 L-269,211 L-269,200 L-273,196 Z " fill="#000000" transform="translate(474,492)"/>
</svg>
