<?xml version="1.0" encoding="UTF-8"?>
<!-- Generator: visioncortex VTracer 0.6.12 -->
<svg version="1.1" xmlns="http://www.w3.org/2000/svg" width="696" height="1173">
<path d="M0,0 L35,1 L65,0 L139,0 L145,3 L146,4 L146,162 L147,218 L147,238 L148,329 L147,346 L148,357 L148,415 L149,424 L148,466 L149,493 L149,618 L150,785 L150,931 L151,996 L152,1006 L149,1009 L142,1010 L134,1009 L90,1008 L85,1007 L82,1008 L12,1009 L-39,1009 L-56,1010 L-65,1009 L-79,1010 L-154,1010 L-219,1011 L-231,1011 L-253,1012 L-292,1012 L-311,1011 L-353,1012 L-430,1012 L-430,742 L-367,742 L-352,741 L-337,741 L-313,742 L-311,741 L-233,741 L-227,742 L-223,741 L-151,741 L-133,740 L-123,735 L-112,723 L-105,715 L-97,704 L-92,698 L-85,687 L-78,675 L-78,669 L-81,667 L-194,666 L-222,667 L-353,667 L-424,668 L-430,667 L-430,625 L-426,624 L-380,623 L-257,623 L-231,621 L-224,617 L-217,607 L-211,597 L-198,574 L-193,565 L-184,549 L-177,536 L-171,530 L-163,530 L-160,529 L-121,526 L-107,523 L-95,521 L-87,517 L-77,514 L-58,505 L-47,497 L-35,486 L-31,485 L-29,481 L-22,474 L-12,460 L-7,451 L1,436 L4,425 L7,411 L7,398 L5,384 L1,367 L-4,357 L-9,348 L-17,337 L-28,328 L-38,321 L-56,313 L-68,311 L-70,310 L-86,309 L-97,308 L-105,307 L-157,307 L-167,308 L-172,307 L-231,307 L-235,308 L-319,308 L-376,309 L-389,308 L-398,309 L-430,309 L-430,5 L-341,5 L-335,6 L-329,3 L-300,4 L-284,4 L-264,3 L-203,3 L-195,4 L-191,3 L-165,3 L-148,4 L-146,3 L-136,3 L-131,2 L-118,2 L-112,3 L-104,2 L-36,2 Z " fill="#000000" transform="translate(430,36)"/>
<path d="M0,0 L24,0 L41,6 L50,11 L57,19 L61,28 L63,37 L64,48 L61,60 L56,74 L48,84 L36,96 L25,103 L10,109 L-3,112 L-25,114 L-34,114 L-37,112 L-38,104 L-36,98 L-28,77 L-24,66 L-19,50 L-14,32 L-9,11 L-6,4 Z " fill="#000000" transform="translate(322,397)"/>
<path d="M0,0 L4,2 L2,5 L-2,4 Z " fill="#000000" transform="translate(658,1136)"/>
</svg>
