<?xml version="1.0" encoding="UTF-8"?>
<!-- Generator: visioncortex VTracer 0.6.12 -->
<svg version="1.1" xmlns="http://www.w3.org/2000/svg" width="1131" height="1146">
<path d="M0,0 L12,0 L10,4 L9,12 L8,32 L5,152 L4,192 L4,217 L3,242 L1,328 L0,373 L-1,414 L-3,500 L-4,536 L-5,592 L-8,706 L-8,726 L-9,753 L-11,874 L-13,893 L-14,893 L-14,512 L-12,463 L-11,393 L-10,368 L-8,272 L-7,245 L-3,43 L-2,14 Z " fill="#000000" transform="translate(14,0)"/>
<path d="M0,0 L726,0 L734,1 L754,1 L806,2 L860,3 L868,4 L868,568 L867,574 L865,676 L864,721 L863,784 L862,824 L860,889 L859,965 L858,992 L856,1111 L854,1127 L853,1146 L835,1146 L837,1142 L840,1136 L842,1126 L843,1123 L846,1020 L847,935 L848,907 L850,789 L851,768 L851,751 L852,723 L853,650 L854,625 L854,598 L855,558 L856,504 L857,479 L858,451 L859,400 L860,355 L861,329 L862,250 L864,168 L865,77 L866,37 L866,27 L863,18 L860,16 L818,13 L797,13 L771,12 L686,11 L656,10 L508,8 L457,7 L363,6 L258,5 L181,4 L143,4 L70,3 L46,3 L3,2 Z " fill="#000000" transform="translate(263,0)"/>
<path d="M0,0 L17,1 L25,3 L37,8 L49,15 L60,27 L69,41 L73,51 L75,60 L75,81 L70,100 L63,114 L52,127 L38,137 L24,144 L19,152 L14,168 L10,179 L5,197 L-2,219 L-8,240 L-8,247 L-5,250 L2,251 L49,252 L53,256 L52,266 L45,286 L40,301 L36,315 L31,326 L26,343 L18,367 L4,408 L-2,427 L-4,434 L-4,440 L-2,444 L4,448 L11,457 L15,466 L15,481 L11,490 L3,500 L0,505 L2,511 L9,520 L14,530 L14,544 L9,556 L3,564 L-5,570 L-6,572 L-6,581 L1,607 L7,626 L11,640 L15,651 L20,669 L27,691 L31,705 L34,713 L38,726 L41,738 L45,749 L46,760 L43,763 L-4,763 L-68,762 L-184,760 L-233,759 L-291,758 L-311,758 L-354,757 L-359,754 L-359,747 L-356,737 L-347,710 L-337,682 L-332,667 L-326,649 L-315,616 L-310,603 L-305,586 L-302,576 L-303,567 L-308,562 L-314,555 L-318,549 L-320,538 L-320,531 L-315,517 L-308,510 L-305,506 L-305,501 L-314,491 L-318,483 L-320,476 L-318,460 L-313,450 L-305,443 L-299,438 L-298,436 L-298,427 L-302,414 L-306,402 L-308,394 L-315,372 L-320,355 L-327,334 L-334,308 L-342,283 L-349,260 L-350,251 L-346,247 L-217,249 L-109,250 L-98,249 L-94,245 L-88,232 L-83,216 L-76,194 L-70,176 L-65,160 L-58,138 L-56,130 L-55,127 L-55,116 L-61,103 L-66,90 L-67,83 L-67,64 L-66,55 L-58,36 L-54,30 L-46,21 L-44,21 L-42,17 L-32,10 L-20,4 L-7,1 Z M-252,382 L-252,385 L-247,390 L-244,396 L-245,407 L-240,406 L-238,403 L-239,391 L-241,386 L-249,382 Z M-266,386 L-266,390 L-265,386 Z M-266,394 L-267,399 L-256,410 L-251,410 L-251,406 L-260,399 L-265,394 Z " fill="#000000" transform="translate(723,193)"/>
<path d="M0,0 L3,1 L0,1 Z " fill="#000000" transform="translate(949,403)"/>
<path d="M0,0 L4,1 L3,5 L-1,4 Z " fill="#000000" transform="translate(1010,1126)"/>
<path d="M0,0 L10,4 L46,5 L69,6 L122,7 L167,7 L220,8 L251,8 L270,9 L292,9 L301,10 L419,11 L549,12 L644,13 L762,14 L788,14 L856,15 L870,16 L870,17 L113,17 L105,16 L75,15 L27,14 L0,12 Z " fill="#000000" transform="translate(0,1129)"/>
</svg>
