<?xml version="1.0" encoding="UTF-8"?>
<!-- Generator: visioncortex VTracer 0.6.12 -->
<svg version="1.1" xmlns="http://www.w3.org/2000/svg" width="1137" height="1104">
<path d="M0,0 L9,0 L7,4 L6,10 L5,33 L4,74 L3,191 L3,621 L2,675 L1,680 L0,680 Z " fill="#000000" transform="translate(0,0)"/>
<path d="M0,0 L5,0 L5,1104 L-6,1104 L-4,1100 L-3,1098 L-2,1081 L-2,1041 L-1,967 L-1,554 L0,530 L0,471 L1,412 L1,355 L2,216 L2,38 L1,3 Z " fill="#000000" transform="translate(1132,0)"/>
<path d="M0,0 L117,0 L130,1 L153,1 L189,2 L201,4 L218,4 L236,2 L263,2 L269,1 L328,2 L369,2 L410,3 L428,3 L441,4 L453,7 L463,11 L474,18 L485,27 L493,34 L500,44 L505,54 L508,62 L511,79 L511,95 L507,114 L496,135 L490,144 L486,149 L472,159 L456,168 L436,173 L419,174 L417,173 L400,172 L386,174 L381,177 L378,182 L377,188 L376,236 L374,266 L372,279 L367,293 L361,304 L351,318 L344,326 L338,330 L333,335 L317,344 L311,346 L300,347 L155,347 L147,346 L104,346 L50,345 L36,339 L27,332 L21,325 L21,323 L15,321 L7,311 L1,301 L-4,290 L-8,279 L-10,267 L-11,255 L-10,197 L-9,162 L-9,134 L-8,72 L-8,16 L-6,6 L-1,1 Z M426,38 L417,39 L403,43 L389,56 L382,68 L379,83 L379,100 L384,113 L392,124 L402,131 L409,135 L420,137 L433,137 L443,135 L453,130 L460,124 L471,110 L474,105 L476,92 L476,80 L473,66 L468,57 L464,51 L450,43 L440,38 Z " fill="#000000" transform="translate(350,363)"/>
<path d="M0,0 L1,0 L2,17 L1,26 L0,26 Z " fill="#000000" transform="translate(0,689)"/>
<path d="M0,0 L75,1 L93,0 L111,2 L135,1 L218,1 L263,3 L347,4 L385,4 L417,5 L492,5 L506,6 L537,6 L548,5 L551,8 L551,18 L549,26 L547,35 L540,49 L530,63 L517,76 L499,86 L481,91 L450,91 L430,90 L412,91 L389,91 L379,92 L375,91 L342,90 L271,90 L245,89 L20,89 L-12,88 L-32,89 L-55,88 L-68,89 L-82,88 L-143,88 L-161,87 L-215,87 L-233,84 L-245,81 L-262,72 L-272,63 L-281,52 L-290,38 L-294,25 L-296,15 L-296,8 L-292,4 L-285,3 L-257,2 L-204,2 L-147,3 L-99,2 Z " fill="#000000" transform="translate(430,719)"/>
<path d="M0,0 L2,2 L0,3 Z " fill="#000000" transform="translate(0,978)"/>
<path d="M0,0 Z " fill="#000000" transform="translate(0,999)"/>
<path d="M0,0 L2,1 L4,11 L23,12 L31,12 L36,13 L36,14 L0,14 Z " fill="#000000" transform="translate(0,1090)"/>
<path d="M0,0 L16,0 L30,1 L31,3 L-10,3 L-7,1 Z " fill="#000000" transform="translate(47,1101)"/>
<path d="M0,0 L7,0 L8,2 L-2,2 Z " fill="#000000" transform="translate(126,1102)"/>
<path d="M0,0 L3,1 Z " fill="#000000" transform="translate(88,1103)"/>
<path d="M0,0 L5,0 L5,1 L0,1 Z " fill="#000000" transform="translate(178,1103)"/>
</svg>
