<?xml version="1.0" encoding="UTF-8"?>
<!-- Generator: visioncortex VTracer 0.6.12 -->
<svg version="1.1" xmlns="http://www.w3.org/2000/svg" width="996" height="993">
<path d="M0,0 L996,0 L996,993 L989,991 L987,991 L987,993 L3,993 L2,991 L0,974 Z M809,289 L796,291 L781,296 L771,299 L762,304 L751,311 L746,313 L738,314 L523,314 L501,315 L477,314 L462,315 L391,315 L381,316 L370,316 L361,314 L350,316 L287,316 L279,317 L144,318 L110,318 L105,321 L103,325 L103,341 L107,364 L108,373 L110,377 L112,386 L115,397 L121,414 L125,423 L128,431 L134,445 L137,452 L141,459 L144,467 L149,473 L153,481 L159,491 L173,510 L181,520 L189,530 L193,534 L195,534 L197,539 L206,547 L213,555 L224,565 L232,571 L243,582 L258,591 L267,597 L277,603 L286,608 L291,612 L299,616 L302,618 L311,621 L322,626 L331,629 L339,633 L354,637 L370,642 L378,644 L401,649 L411,651 L422,652 L425,654 L431,653 L478,653 L498,651 L514,649 L528,646 L542,644 L559,639 L581,632 L595,626 L607,621 L623,615 L632,609 L655,596 L665,589 L673,583 L682,575 L693,568 L706,556 L713,549 L718,544 L723,540 L726,539 L775,539 L786,538 L793,539 L833,536 L848,534 L856,531 L865,529 L881,521 L889,516 L899,509 L915,493 L922,484 L927,478 L932,466 L939,450 L942,439 L943,426 L944,422 L944,405 L942,388 L937,372 L933,360 L924,344 L911,327 L907,325 L903,319 L899,317 L898,315 L904,313 L905,312 L904,304 L896,299 L892,299 L893,308 L893,311 L881,305 L875,301 L863,296 L845,291 L821,289 Z M851,663 L823,664 L796,664 L788,665 L743,665 L705,666 L669,666 L637,667 L614,666 L607,667 L585,667 L553,668 L485,668 L481,667 L476,668 L460,668 L416,669 L341,670 L327,670 L303,669 L292,670 L279,670 L271,671 L266,670 L214,670 L207,671 L85,671 L81,673 L80,678 L85,683 L98,690 L100,692 L108,693 L113,697 L124,701 L137,706 L144,710 L154,713 L170,719 L179,722 L192,726 L205,730 L214,733 L224,736 L227,738 L245,742 L249,744 L265,748 L268,750 L286,752 L301,755 L303,756 L316,758 L318,759 L330,761 L348,763 L355,764 L365,766 L407,770 L440,771 L457,773 L479,772 L489,773 L497,772 L543,770 L563,768 L575,766 L589,766 L593,764 L613,762 L622,760 L633,759 L638,757 L655,755 L664,752 L686,748 L691,745 L713,740 L724,737 L739,735 L747,730 L755,727 L764,725 L781,719 L796,714 L805,710 L816,706 L826,702 L842,694 L852,690 L862,685 L872,683 L883,674 L888,671 L889,667 L883,663 L876,663 L870,664 Z " fill="#000000" transform="translate(0,0)"/>
<path d="M0,0 L19,0 L35,2 L43,5 L51,7 L64,14 L69,18 L76,23 L83,31 L89,39 L96,51 L99,58 L101,67 L105,80 L105,97 L102,117 L97,130 L90,142 L84,151 L71,164 L58,172 L42,180 L38,182 L23,184 L4,184 L-12,181 L-23,177 L-31,173 L-41,166 L-52,157 L-61,146 L-69,133 L-75,118 L-78,99 L-78,84 L-76,78 L-74,67 L-69,53 L-62,40 L-51,27 L-46,24 L-40,17 L-30,11 L-17,5 L-5,1 Z " fill="#000000" transform="translate(807,321)"/>
</svg>
