<?xml version="1.0" encoding="UTF-8"?>
<!-- Generator: visioncortex VTracer 0.6.12 -->
<svg version="1.1" xmlns="http://www.w3.org/2000/svg" width="1104" height="1134">
<path d="M0,0 L1104,0 L1104,40 L1102,37 L1102,30 L1100,22 L1100,9 L1098,7 L1072,6 L1007,6 L957,5 L944,5 L921,4 L910,5 L875,5 L869,4 L867,5 L711,5 L689,4 L683,5 L674,4 L598,5 L343,5 L335,6 L319,5 L299,6 L277,5 L223,5 L177,4 L12,4 L5,5 L0,9 Z " fill="#000000" transform="translate(0,0)"/>
<path d="M0,0 Z " fill="#000000" transform="translate(1103,49)"/>
<path d="M0,0 L1,0 L1,129 L-1,128 L-2,92 L-2,35 L-1,10 Z " fill="#000000" transform="translate(1103,61)"/>
<path d="M0,0 L2,0 L2,2 L0,2 Z " fill="#000000" transform="translate(910,116)"/>
<path d="M0,0 Z " fill="#000000" transform="translate(505,150)"/>
<path d="M0,0 L1,0 L1,14 L-1,10 L-2,4 Z " fill="#000000" transform="translate(1103,193)"/>
<path d="M0,0 L1,0 L1,9 L-1,7 Z " fill="#000000" transform="translate(1103,211)"/>
<path d="M0,0 L1,0 L1,12 L-1,9 L-1,2 Z " fill="#000000" transform="translate(1103,228)"/>
<path d="M0,0 L15,2 L43,2 L48,3 L53,1 L148,1 L156,2 L204,2 L229,3 L231,2 L250,2 L255,1 L260,3 L269,2 L275,1 L283,2 L293,1 L306,4 L323,2 L338,2 L345,1 L361,3 L373,2 L385,2 L397,3 L417,3 L429,2 L432,1 L439,1 L440,2 L451,2 L473,4 L478,6 L492,8 L509,12 L525,19 L533,25 L541,30 L542,33 L547,35 L553,39 L558,43 L563,48 L572,57 L583,72 L593,86 L596,94 L601,102 L607,119 L610,129 L612,138 L613,140 L615,164 L615,183 L612,202 L606,227 L599,244 L594,254 L587,263 L576,278 L572,284 L570,284 L568,289 L564,291 L562,295 L555,301 L544,310 L534,317 L516,324 L507,329 L500,331 L489,333 L483,335 L473,337 L471,338 L458,338 L446,341 L444,344 L443,350 L442,371 L440,383 L436,404 L427,426 L420,439 L408,456 L397,468 L395,468 L393,472 L385,478 L380,482 L380,486 L398,487 L400,488 L420,488 L425,489 L525,489 L540,490 L547,489 L556,491 L563,491 L570,490 L583,490 L616,491 L622,491 L627,496 L626,504 L619,518 L610,534 L605,540 L600,545 L594,552 L590,558 L582,563 L571,573 L562,580 L543,589 L527,595 L507,597 L497,600 L475,602 L468,602 L460,601 L453,600 L424,600 L420,601 L407,602 L394,602 L385,600 L374,600 L357,601 L352,600 L334,600 L320,601 L299,601 L291,599 L277,600 L266,601 L253,600 L245,599 L241,600 L222,600 L211,599 L197,599 L159,600 L152,601 L149,600 L132,600 L108,599 L79,600 L66,601 L61,599 L33,599 L24,600 L21,599 L-34,599 L-42,598 L-72,598 L-108,599 L-129,597 L-150,594 L-170,586 L-178,582 L-188,578 L-198,572 L-206,567 L-228,545 L-232,539 L-238,531 L-246,518 L-254,502 L-256,495 L-256,489 L-254,487 L-224,486 L-182,486 L-139,487 L-63,487 L-29,486 L-17,485 L-14,484 L-15,480 L-27,469 L-40,459 L-50,445 L-54,441 L-62,422 L-65,417 L-71,398 L-75,380 L-76,328 L-75,305 L-75,24 L-74,7 L-70,3 L-68,2 L-33,1 L-6,1 Z M454,81 L444,83 L442,88 L442,246 L444,256 L448,259 L470,259 L479,256 L488,254 L498,248 L501,245 L506,242 L511,236 L518,230 L530,213 L535,201 L538,191 L539,175 L540,172 L540,165 L538,152 L536,140 L532,133 L525,118 L518,109 L516,109 L516,107 L509,101 L505,97 L489,89 L476,84 L457,81 Z " fill="#000000" transform="translate(365,260)"/>
<path d="M0,0 L1,0 L1,9 L0,9 Z " fill="#000000" transform="translate(1103,277)"/>
<path d="M0,0 L1,0 L1,10 L0,10 Z " fill="#000000" transform="translate(1103,300)"/>
<path d="M0,0 L1,0 L1,5 L0,5 Z " fill="#000000" transform="translate(1103,322)"/>
<path d="M0,0 L1,0 L1,13 L-1,12 L-1,1 Z " fill="#000000" transform="translate(1103,329)"/>
<path d="M0,0 L1,0 L1,13 L-1,12 L-1,5 Z " fill="#000000" transform="translate(1103,353)"/>
<path d="M0,0 L1,0 L1,9 L-1,6 L-1,1 Z " fill="#000000" transform="translate(1103,370)"/>
<path d="M0,0 L1,0 L1,224 L-1,222 L-2,148 L-2,123 L-1,98 L-2,86 L-2,57 L-1,2 Z " fill="#000000" transform="translate(1103,391)"/>
<path d="M0,0 L1,4 Z " fill="#000000" transform="translate(1103,622)"/>
<path d="M0,0 L1,0 L1,6 L0,6 Z " fill="#000000" transform="translate(1103,629)"/>
<path d="M0,0 L1,0 L1,9 L0,9 L-1,3 Z " fill="#000000" transform="translate(1103,740)"/>
<path d="M0,0 L1,0 L1,10 L-1,8 L-1,1 Z " fill="#000000" transform="translate(1103,756)"/>
<path d="M0,0 L1,0 L1,5 L0,5 Z " fill="#000000" transform="translate(1103,767)"/>
<path d="M0,0 L1,0 L1,7 L-1,6 Z " fill="#000000" transform="translate(1103,777)"/>
<path d="M0,0 L1,0 L1,28 L-1,25 L-1,3 Z " fill="#000000" transform="translate(1103,799)"/>
<path d="M0,0 L1,0 L1,22 L-1,19 L-1,2 Z " fill="#000000" transform="translate(1103,839)"/>
<path d="M0,0 L1,0 L1,10 L-1,6 Z " fill="#000000" transform="translate(1103,866)"/>
<path d="M0,0 L1,0 L1,7 L0,7 Z " fill="#000000" transform="translate(1103,878)"/>
<path d="M0,0 L1,0 L1,5 L0,5 Z " fill="#000000" transform="translate(1103,897)"/>
<path d="M0,0 L1,0 L1,24 L-1,20 L-1,2 Z " fill="#000000" transform="translate(1103,907)"/>
<path d="M0,0 L1,0 L1,17 L-1,14 L-1,1 Z " fill="#000000" transform="translate(1103,936)"/>
<path d="M0,0 L1,0 L1,14 L-1,12 L-1,4 Z " fill="#000000" transform="translate(1103,960)"/>
<path d="M0,0 L1,0 L1,15 L0,15 L-1,2 Z " fill="#000000" transform="translate(1103,990)"/>
<path d="M0,0 Z " fill="#000000" transform="translate(1103,1070)"/>
<path d="M0,0 L1,0 L3,14 L5,18 L8,19 L164,20 L240,20 L268,21 L366,21 L427,22 L454,22 L456,21 L528,22 L870,22 L904,23 L944,22 L982,22 L1046,23 L1087,22 L1099,21 L1102,16 L1104,16 L1104,26 L0,26 Z " fill="#000000" transform="translate(0,1108)"/>
</svg>
