<?xml version="1.0" encoding="UTF-8"?>
<!-- Generator: visioncortex VTracer 0.6.12 -->
<svg version="1.1" xmlns="http://www.w3.org/2000/svg" width="1140" height="1110">
<path d="M0,0 L1089,0 L1091,1 L1099,1 L1100,0 L1118,0 L1120,1 L1137,2 L1137,955 L1136,960 L1136,1011 L1137,1020 L1137,1095 L1136,1097 L1135,1110 L1118,1110 L1120,1106 L1121,1104 L1122,1058 L1122,994 L1123,935 L1124,903 L1124,887 L1125,846 L1127,729 L1128,699 L1128,649 L1129,602 L1129,557 L1130,497 L1131,454 L1132,345 L1132,301 L1133,223 L1133,195 L1134,163 L1134,134 L1135,73 L1135,19 L1132,13 L1119,12 L1102,12 L1093,11 L1074,12 L1022,11 L980,11 L884,10 L804,9 L697,9 L684,8 L647,8 L569,7 L521,7 L419,6 L342,5 L331,6 L304,5 L271,5 L231,4 L18,4 L16,8 L14,34 L13,99 L12,150 L11,162 L10,235 L9,292 L8,401 L8,430 L7,503 L6,641 L6,678 L5,706 L4,777 L4,815 L2,887 L1,910 L1,1093 L4,1097 L22,1098 L62,1099 L155,1099 L183,1100 L253,1100 L286,1101 L355,1102 L400,1103 L466,1103 L535,1104 L598,1104 L619,1105 L683,1105 L722,1106 L856,1107 L879,1107 L909,1108 L911,1110 L58,1110 L35,1109 L34,1110 L27,1110 L25,1109 L6,1109 L5,1110 L-3,1110 L-3,160 L-2,158 L-2,150 L-3,147 L-3,138 L-2,137 L-1,109 L-1,19 Z " fill="#000000" transform="translate(3,0)"/>
<path d="M0,0 L30,0 L96,1 L102,2 L105,1 L119,1 L148,2 L162,2 L166,1 L234,2 L255,2 L303,3 L330,3 L403,4 L434,4 L441,3 L446,4 L478,4 L531,5 L547,7 L567,12 L579,16 L601,26 L613,33 L620,39 L625,43 L630,48 L636,53 L641,59 L646,64 L655,78 L662,89 L667,101 L674,116 L676,125 L680,140 L682,154 L683,171 L681,199 L677,217 L667,243 L658,260 L651,270 L647,276 L632,292 L623,301 L613,309 L607,314 L598,317 L585,325 L574,329 L566,331 L559,334 L532,338 L517,339 L507,342 L505,353 L505,366 L502,391 L498,406 L494,417 L488,429 L485,435 L476,448 L470,456 L462,464 L457,469 L446,477 L433,486 L432,492 L435,493 L447,493 L450,494 L470,495 L510,496 L565,496 L639,497 L649,496 L664,498 L672,498 L679,497 L688,500 L689,501 L688,510 L677,531 L671,538 L663,549 L657,556 L652,561 L643,570 L633,576 L616,586 L602,592 L591,596 L589,597 L577,599 L565,602 L411,602 L389,601 L378,602 L302,601 L236,601 L196,600 L72,600 L-3,598 L-30,597 L-44,597 L-53,598 L-72,598 L-76,597 L-89,596 L-104,592 L-131,581 L-143,573 L-156,563 L-168,552 L-173,547 L-181,538 L-190,525 L-196,514 L-201,502 L-202,495 L-199,492 L-197,491 L-70,491 L-55,492 L-10,491 L-1,491 L3,492 L19,491 L26,490 L31,491 L46,491 L50,489 L49,484 L37,475 L21,463 L12,453 L6,445 L2,440 L-3,430 L-10,415 L-13,406 L-16,393 L-18,375 L-18,283 L-17,269 L-17,237 L-16,173 L-16,123 L-15,95 L-14,82 L-14,24 L-13,5 L-10,1 Z M516,78 L511,81 L509,87 L508,102 L507,149 L507,182 L506,201 L506,245 L507,258 L510,263 L516,266 L536,265 L556,259 L565,254 L577,246 L593,230 L599,220 L607,204 L613,177 L611,152 L605,132 L594,114 L585,103 L574,95 L565,88 L561,86 L553,84 L545,81 L532,78 Z M54,278 L53,279 L53,286 L55,287 L57,286 L58,282 L56,278 Z " fill="#000000" transform="translate(316,241)"/>
<path d="M0,0 L6,0 L6,1 L0,1 Z " fill="#000000" transform="translate(928,1109)"/>
</svg>
