<?xml version="1.0" encoding="UTF-8"?>
<!-- Generator: visioncortex VTracer 0.6.12 -->
<svg version="1.1" xmlns="http://www.w3.org/2000/svg" width="1116" height="1293">
<path d="M0,0 Z " fill="#000000" transform="translate(688,37)"/>
<path d="M0,0 L6,0 L8,4 L8,61 L7,161 L8,321 L9,457 L9,563 L10,610 L10,757 L11,841 L11,972 L12,978 L12,1000 L11,1012 L9,1014 L1,1015 L-30,1016 L-34,1015 L-66,1016 L-140,1016 L-182,1017 L-235,1017 L-269,1018 L-304,1017 L-351,1017 L-402,1018 L-504,1018 L-538,1019 L-562,1019 L-630,1018 L-638,1019 L-767,1019 L-812,1020 L-844,1020 L-862,1019 L-898,1020 L-1022,1020 L-1026,1018 L-1028,1015 L-1028,926 L-1027,919 L-1028,914 L-1029,636 L-1029,544 L-1030,414 L-1030,327 L-1031,304 L-1031,240 L-1032,165 L-1032,74 L-1033,22 L-1033,11 L-1030,6 L-1026,5 L-1006,6 L-943,6 L-885,5 L-687,5 L-683,4 L-676,4 L-671,5 L-657,4 L-515,4 L-504,3 L-342,3 L-225,2 L-185,2 L-152,1 L-107,2 L-28,2 L-4,1 Z M-178,11 L-230,12 L-327,12 L-410,13 L-502,13 L-540,14 L-554,13 L-564,13 L-576,14 L-720,14 L-768,15 L-789,15 L-823,14 L-862,15 L-967,15 L-1011,16 L-1020,18 L-1022,20 L-1023,60 L-1023,121 L-1022,265 L-1022,561 L-1021,605 L-1021,652 L-1020,689 L-1021,736 L-1020,790 L-1020,847 L-1019,1007 L-1016,1012 L-1010,1013 L-658,1013 L-633,1012 L-509,1012 L-490,1011 L-240,1011 L-145,1010 L-64,1010 L-56,1011 L-54,1010 L-12,1010 L0,1008 L3,1002 L3,833 L2,806 L1,618 L1,517 L0,378 L-1,345 L-1,111 L-2,48 L-3,25 L-6,13 L-12,11 Z " fill="#000000" transform="translate(1070,87)"/>
<path d="M0,0 L51,0 L59,1 L85,1 L93,0 L209,0 L213,3 L214,6 L215,52 L218,53 L226,46 L234,39 L238,33 L247,27 L257,20 L266,15 L273,11 L286,7 L291,5 L301,3 L314,1 L328,1 L349,2 L357,5 L366,7 L373,10 L379,12 L388,17 L399,24 L406,30 L412,34 L422,44 L428,52 L434,61 L442,76 L448,94 L451,108 L451,138 L447,157 L441,174 L433,188 L424,201 L416,210 L411,215 L400,225 L381,236 L368,242 L360,245 L344,247 L337,249 L315,250 L307,249 L300,249 L276,242 L257,232 L246,225 L237,218 L233,213 L225,206 L220,200 L217,199 L215,200 L214,242 L214,251 L213,257 L211,288 L208,302 L206,307 L203,319 L197,333 L192,346 L181,366 L173,377 L166,387 L151,403 L139,414 L126,424 L112,432 L99,440 L89,444 L81,448 L67,454 L51,457 L41,460 L-50,460 L-53,461 L-101,461 L-110,460 L-137,461 L-189,461 L-204,458 L-209,456 L-219,454 L-236,447 L-249,442 L-270,430 L-285,419 L-295,411 L-300,408 L-307,399 L-315,392 L-322,384 L-332,370 L-344,350 L-349,337 L-353,329 L-357,318 L-364,284 L-366,259 L-366,32 L-365,10 L-363,5 L-361,4 L-348,3 L-305,3 L-272,2 L-234,2 L-174,1 L-55,1 L-50,2 L-46,1 Z M319,52 L303,55 L290,60 L277,69 L268,77 L262,85 L254,101 L251,111 L250,115 L250,138 L255,155 L262,168 L271,178 L281,186 L290,191 L299,193 L308,197 L324,199 L348,196 L362,188 L373,181 L380,174 L389,162 L394,152 L396,144 L399,132 L400,119 L396,103 L393,94 L385,81 L377,72 L367,64 L350,56 L342,53 L323,52 Z " fill="#000000" transform="translate(530,370)"/>
<path d="M0,0 L2,0 L1,5 L-1,4 Z " fill="#000000" transform="translate(895,1118)"/>
<path d="M0,0 L22,1 L30,2 L37,3 L45,7 L50,13 L52,17 L52,29 L46,39 L40,44 L30,46 L8,47 L6,49 L5,53 L4,76 L1,79 L-4,78 L-5,77 L-5,6 L-2,1 Z M18,9 L9,10 L6,14 L5,29 L7,36 L8,37 L34,37 L41,32 L42,30 L42,20 L39,14 L32,9 Z " fill="#000000" transform="translate(53,1178)"/>
<path d="M0,0 L5,0 L7,2 L8,12 L11,16 L17,19 L16,24 L10,26 L9,29 L9,54 L10,62 L16,66 L17,72 L14,75 L7,76 L1,73 L-3,65 L-4,29 L-5,26 L-9,24 L-10,19 L-4,14 L-3,4 Z " fill="#000000" transform="translate(237,1184)"/>
<path d="M0,0 L8,0 L20,5 L29,14 L32,21 L32,40 L26,50 L22,55 L12,60 L3,61 L-5,59 L-12,56 L-17,52 L-21,45 L-23,26 L-22,19 L-15,8 L-10,4 Z M5,8 L-2,10 L-7,14 L-11,20 L-12,23 L-12,38 L-8,47 L-3,51 L0,52 L9,52 L16,47 L22,38 L22,25 L18,14 L12,9 Z " fill="#000000" transform="translate(142,1200)"/>
<path d="M0,0 L5,1 L7,4 L13,4 L18,1 L24,0 L26,2 L26,7 L17,10 L12,14 L9,19 L7,33 L7,51 L5,56 L-1,57 L-3,55 L-4,43 L-4,14 L-3,3 Z " fill="#000000" transform="translate(193,1201)"/>
</svg>
