<?xml version="1.0" encoding="UTF-8"?>
<!-- Generator: visioncortex VTracer 0.6.12 -->
<svg version="1.1" xmlns="http://www.w3.org/2000/svg" width="1152" height="1233">
<path d="M0,0 L32,0 L54,1 L58,5 L59,14 L60,38 L59,43 L59,56 L60,79 L60,100 L61,121 L62,199 L62,249 L63,293 L63,321 L64,362 L63,368 L63,392 L64,397 L64,529 L65,544 L65,611 L66,644 L66,748 L67,766 L65,779 L65,797 L66,819 L66,843 L67,871 L67,977 L68,988 L65,1003 L62,1005 L55,1005 L53,1004 L46,1004 L41,1006 L31,1006 L28,1007 L-15,1007 L-24,1008 L-33,1008 L-39,1009 L-84,1009 L-88,1010 L-119,1010 L-135,1009 L-172,1009 L-193,1011 L-296,1011 L-303,1010 L-316,1012 L-324,1011 L-376,1012 L-473,1012 L-511,1013 L-517,1012 L-544,1012 L-554,1013 L-619,1013 L-658,1014 L-739,1014 L-748,1013 L-754,1014 L-807,1015 L-926,1015 L-936,1014 L-938,1012 L-940,991 L-941,965 L-941,917 L-942,908 L-942,801 L-943,785 L-943,766 L-944,763 L-944,754 L-943,744 L-944,679 L-945,547 L-945,529 L-946,511 L-946,481 L-947,468 L-947,443 L-946,434 L-946,425 L-947,419 L-948,373 L-948,347 L-949,277 L-949,250 L-950,229 L-953,221 L-953,212 L-951,205 L-950,176 L-951,167 L-952,73 L-952,13 L-949,8 L-943,6 L-928,7 L-916,6 L-909,6 L-900,7 L-897,6 L-862,6 L-852,7 L-849,6 L-821,5 L-802,6 L-780,5 L-772,6 L-760,5 L-634,5 L-596,4 L-518,5 L-488,4 L-463,3 L-448,4 L-434,3 L-423,3 L-410,1 L-394,2 L-373,3 L-299,3 L-293,4 L-275,2 L-267,3 L-250,3 L-243,2 L-105,2 L-84,1 L-4,1 Z M-132,301 L-134,302 L-145,303 L-160,308 L-170,311 L-179,316 L-190,323 L-195,325 L-203,326 L-418,326 L-441,327 L-464,326 L-479,327 L-550,327 L-560,328 L-571,328 L-580,326 L-591,328 L-654,328 L-662,329 L-786,330 L-831,330 L-836,333 L-838,337 L-838,352 L-834,376 L-833,385 L-831,389 L-829,398 L-826,409 L-821,423 L-815,439 L-808,454 L-805,463 L-801,468 L-796,480 L-792,485 L-788,493 L-782,503 L-768,522 L-760,532 L-752,542 L-747,546 L-741,554 L-735,559 L-728,567 L-717,577 L-709,583 L-698,594 L-683,603 L-674,609 L-664,615 L-655,620 L-650,624 L-642,628 L-639,630 L-630,633 L-619,638 L-610,641 L-602,645 L-587,649 L-571,654 L-563,656 L-540,661 L-530,663 L-519,664 L-516,666 L-510,665 L-463,665 L-443,663 L-427,661 L-414,658 L-399,656 L-382,651 L-360,644 L-346,638 L-334,633 L-318,627 L-312,622 L-298,615 L-285,607 L-270,597 L-264,592 L-259,587 L-248,580 L-235,568 L-228,561 L-223,556 L-218,552 L-215,551 L-166,551 L-155,550 L-148,551 L-108,548 L-93,546 L-85,543 L-76,541 L-60,533 L-52,528 L-42,521 L-26,505 L-19,496 L-14,490 L-9,478 L-2,462 L1,451 L2,438 L3,434 L3,418 L1,400 L-4,384 L-8,372 L-17,356 L-25,346 L-30,339 L-34,337 L-38,331 L-42,329 L-42,327 L-36,324 L-37,316 L-45,311 L-49,311 L-48,320 L-48,323 L-60,317 L-66,313 L-78,308 L-96,303 L-120,301 Z M-90,675 L-118,676 L-145,676 L-153,677 L-197,677 L-236,678 L-272,678 L-304,679 L-327,678 L-334,679 L-355,679 L-388,680 L-456,680 L-460,679 L-465,680 L-481,680 L-525,681 L-600,682 L-614,682 L-638,681 L-649,682 L-662,682 L-670,683 L-675,682 L-727,682 L-734,683 L-856,683 L-860,685 L-861,690 L-856,695 L-843,702 L-841,704 L-833,705 L-828,709 L-817,713 L-804,718 L-797,722 L-787,725 L-771,731 L-762,734 L-749,738 L-736,742 L-727,745 L-717,748 L-714,750 L-696,754 L-692,756 L-676,760 L-673,762 L-655,764 L-640,767 L-638,768 L-625,770 L-623,771 L-611,773 L-593,775 L-579,777 L-566,779 L-534,782 L-501,783 L-484,785 L-462,784 L-452,785 L-444,784 L-398,782 L-378,780 L-367,778 L-350,777 L-348,776 L-328,774 L-319,772 L-308,771 L-303,769 L-286,767 L-277,764 L-255,760 L-250,757 L-228,752 L-217,749 L-202,747 L-194,742 L-186,739 L-177,737 L-160,731 L-145,726 L-136,722 L-125,718 L-115,714 L-99,706 L-89,702 L-79,697 L-69,695 L-58,686 L-53,683 L-52,679 L-56,676 L-65,675 L-71,676 Z " fill="#000000" transform="translate(989,36)"/>
<path d="M0,0 L20,0 L23,1 L35,2 L43,5 L51,7 L64,14 L69,18 L76,23 L83,31 L89,39 L95,50 L99,58 L101,67 L105,80 L105,97 L102,117 L97,130 L90,142 L84,151 L71,164 L61,170 L53,175 L38,182 L23,184 L4,184 L-12,181 L-23,177 L-31,173 L-41,166 L-51,158 L-60,148 L-69,133 L-75,118 L-78,99 L-78,83 L-76,78 L-74,67 L-69,53 L-62,40 L-51,27 L-46,24 L-40,17 L-30,11 L-17,5 L-5,1 Z " fill="#000000" transform="translate(855,369)"/>
<path d="M0,0 L2,0 L2,2 L0,2 Z " fill="#000000" transform="translate(1116,601)"/>
<path d="M0,0 L27,0 L33,1 L46,1 L54,0 L58,3 L57,8 L52,11 L37,11 L34,14 L33,20 L33,48 L32,75 L29,80 L22,79 L20,75 L20,13 L13,10 L2,11 L-3,9 L-4,4 Z " fill="#000000" transform="translate(57,1120)"/>
<path d="M0,0 L7,1 L10,5 L17,25 L21,34 L25,48 L31,63 L36,72 L37,78 L35,80 L25,80 L22,75 L17,60 L14,57 L-11,56 L-17,61 L-21,71 L-25,79 L-31,80 L-35,77 L-34,70 L-29,58 L-25,50 L-23,44 L-19,36 L-15,24 L-11,16 L-7,6 L-2,1 Z M-1,19 L-4,23 L-9,38 L-8,45 L2,47 L8,46 L10,42 L8,30 L3,20 Z " fill="#000000" transform="translate(156,1121)"/>
</svg>
