<?xml version="1.0" encoding="UTF-8"?>
<!-- Generator: visioncortex VTracer 0.6.12 -->
<svg version="1.1" xmlns="http://www.w3.org/2000/svg" width="1023" height="1014">
<path d="M0,0 L461,0 L458,2 L453,3 L411,3 L233,4 L200,3 L160,4 L55,4 L11,5 L0,7 Z " fill="#000000" transform="translate(0,0)"/>
<path d="M0,0 L81,0 L80,2 L52,2 L13,3 L0,2 Z " fill="#000000" transform="translate(468,0)"/>
<path d="M0,0 L13,0 L11,2 L1,2 Z " fill="#000000" transform="translate(555,0)"/>
<path d="M0,0 L34,0 L32,2 L2,2 Z " fill="#000000" transform="translate(570,0)"/>
<path d="M0,0 L23,0 L23,1 L16,2 L2,2 Z " fill="#000000" transform="translate(610,0)"/>
<path d="M0,0 L7,0 L7,367 L5,366 L4,342 L4,100 L3,36 L2,13 Z " fill="#000000" transform="translate(1016,0)"/>
<path d="M0,0 L51,0 L59,1 L85,1 L93,0 L209,0 L213,3 L214,6 L215,52 L218,53 L226,46 L234,39 L238,33 L247,27 L257,20 L266,15 L273,11 L286,7 L291,5 L301,3 L314,1 L328,1 L349,2 L358,5 L366,7 L373,10 L379,12 L388,17 L398,23 L406,30 L412,34 L422,44 L428,52 L434,61 L442,76 L448,94 L451,108 L451,138 L447,157 L441,174 L433,188 L424,201 L416,210 L411,215 L400,225 L381,236 L368,242 L360,245 L344,247 L337,249 L315,250 L307,249 L300,249 L276,242 L257,232 L246,225 L237,218 L233,213 L225,206 L220,200 L217,199 L215,200 L214,242 L214,252 L213,258 L211,288 L208,302 L206,307 L203,319 L197,333 L192,346 L181,366 L173,377 L166,387 L151,403 L139,414 L126,424 L112,432 L99,440 L92,443 L81,448 L67,454 L51,457 L41,460 L-50,460 L-53,461 L-102,461 L-110,460 L-137,461 L-189,461 L-204,458 L-209,456 L-219,454 L-236,447 L-249,442 L-272,429 L-282,421 L-290,415 L-300,408 L-307,399 L-315,392 L-322,384 L-332,370 L-344,350 L-349,337 L-353,329 L-357,318 L-364,284 L-366,259 L-366,32 L-365,10 L-363,5 L-361,4 L-348,3 L-305,3 L-272,2 L-235,2 L-174,1 L-46,1 Z M319,52 L303,55 L290,60 L278,68 L268,77 L262,85 L254,101 L251,111 L250,115 L250,138 L255,155 L262,168 L271,178 L281,186 L290,191 L299,193 L308,197 L324,199 L348,196 L362,188 L373,181 L380,174 L389,162 L394,152 L396,144 L399,132 L400,119 L396,103 L393,94 L385,81 L377,72 L367,64 L350,56 L342,53 L322,52 Z " fill="#000000" transform="translate(482,271)"/>
<path d="M0,0 L1,0 L1,9 L0,9 Z " fill="#000000" transform="translate(1022,375)"/>
<path d="M0,0 L2,2 L2,10 L0,13 Z " fill="#000000" transform="translate(0,583)"/>
<path d="M0,0 L2,2 L2,10 L0,13 Z " fill="#000000" transform="translate(0,605)"/>
<path d="M0,0 L2,1 L1,5 L0,5 Z " fill="#000000" transform="translate(0,626)"/>
<path d="M0,0 L2,1 L3,41 L3,74 L2,85 L3,114 L3,167 L4,356 L6,360 L12,361 L364,361 L389,360 L513,360 L532,359 L782,359 L877,358 L958,358 L966,359 L968,358 L1010,358 L1023,357 L1023,364 L992,365 L988,364 L956,365 L882,365 L840,366 L787,366 L753,367 L718,366 L671,366 L620,367 L518,367 L484,368 L460,368 L392,367 L384,368 L255,368 L210,369 L178,369 L160,368 L124,369 L0,369 Z " fill="#000000" transform="translate(0,639)"/>
</svg>
