<?xml version="1.0" encoding="UTF-8"?>
<!-- Generator: visioncortex VTracer 0.6.12 -->
<svg version="1.1" xmlns="http://www.w3.org/2000/svg" width="1092" height="1311">
<path d="M0,0 L1092,0 L1092,43 L851,43 L739,42 L640,42 L617,41 L590,41 L508,40 L436,40 L354,39 L318,39 L269,38 L38,38 L0,37 Z " fill="#000000" transform="translate(0,0)"/>
<path d="M0,0 L13,1 L19,4 L24,2 L36,1 L134,0 L199,0 L201,1 L215,2 L221,0 L239,0 L247,1 L578,1 L580,0 L602,1 L669,1 L678,0 L684,1 L742,1 L745,2 L861,2 L903,3 L989,3 L998,2 L1011,3 L1015,8 L1016,11 L1016,162 L1015,200 L1015,216 L1014,246 L1014,348 L1013,365 L1012,426 L1012,503 L1011,540 L1011,584 L1010,698 L1010,728 L1009,801 L1009,908 L1008,975 L1008,1007 L1007,1020 L1005,1025 L998,1026 L990,1025 L948,1024 L890,1024 L881,1023 L798,1023 L765,1022 L718,1022 L703,1023 L687,1022 L611,1022 L565,1023 L548,1022 L541,1022 L535,1021 L532,1022 L515,1023 L475,1022 L447,1022 L440,1021 L436,1022 L329,1022 L309,1021 L304,1019 L300,1021 L280,1022 L255,1021 L218,1021 L206,1020 L199,1021 L3,1021 L-9,1022 L-13,1018 L-13,921 L-12,873 L-12,705 L-11,681 L-10,597 L-10,567 L-9,560 L-10,555 L-9,542 L-9,464 L-8,402 L-8,359 L-7,267 L-7,194 L-6,171 L-6,7 L-3,1 Z M17,11 L9,12 L4,18 L3,29 L3,51 L2,161 L2,211 L1,322 L1,359 L0,395 L0,419 L-1,469 L-1,533 L-2,618 L-2,656 L-4,711 L-4,1005 L-1,1009 L27,1010 L97,1010 L162,1009 L213,1009 L217,1010 L238,1010 L245,1011 L248,1010 L303,1010 L312,1011 L321,1010 L381,1011 L389,1010 L396,1011 L403,1010 L411,1011 L443,1012 L522,1012 L528,1011 L533,1012 L554,1012 L570,1011 L573,1012 L586,1012 L604,1011 L606,1013 L612,1013 L614,1012 L622,1012 L626,1013 L635,1012 L643,1013 L658,1013 L662,1016 L666,1015 L668,1013 L793,1013 L813,1012 L835,1012 L873,1013 L994,1013 L997,1011 L998,1008 L999,978 L999,873 L1000,863 L1000,730 L1001,697 L1002,679 L1002,539 L1003,495 L1003,444 L1004,380 L1004,356 L1005,269 L1005,246 L1006,239 L1006,24 L1003,18 L1000,16 L955,15 L881,14 L773,14 L726,13 L696,13 L690,14 L688,13 L672,12 L670,13 L646,13 L629,14 L619,13 L615,11 L605,12 L599,12 L593,13 L534,13 L529,12 L521,13 L511,13 L503,12 L478,13 L452,13 L401,12 L392,13 L366,13 L351,12 L318,12 L316,11 L288,12 L244,12 L237,11 L234,12 L138,12 L120,13 L90,12 L24,12 Z " fill="#000000" transform="translate(49,113)"/>
<path d="M0,0 L12,1 L106,1 L121,0 L127,1 L162,1 L172,0 L248,0 L269,1 L292,0 L317,0 L330,1 L341,1 L351,0 L384,1 L421,1 L424,6 L426,20 L429,23 L448,24 L508,25 L510,29 L511,38 L510,113 L508,119 L501,125 L487,133 L468,143 L460,149 L452,153 L437,162 L431,166 L427,171 L421,188 L414,199 L408,210 L401,221 L391,240 L382,256 L380,261 L381,266 L394,266 L401,268 L404,267 L477,267 L484,269 L485,274 L480,280 L475,285 L458,302 L451,310 L448,311 L446,315 L438,322 L435,327 L428,333 L425,336 L420,341 L416,346 L411,349 L400,350 L371,350 L328,349 L306,350 L288,350 L275,351 L211,351 L195,352 L187,351 L99,351 L92,350 L89,351 L67,352 L12,351 L5,347 L0,342 L0,340 L-5,338 L-13,331 L-20,323 L-26,316 L-34,309 L-40,304 L-47,295 L-56,287 L-61,282 L-67,275 L-68,270 L-65,267 L-49,268 L-36,267 L-7,267 L25,266 L26,265 L26,259 L20,248 L12,233 L6,224 L-2,208 L-7,201 L-12,191 L-16,185 L-19,176 L-19,22 L-16,5 L-12,2 Z M435,48 L429,51 L426,54 L424,67 L424,112 L425,144 L427,146 L433,146 L442,140 L454,134 L459,130 L475,122 L491,113 L495,109 L497,99 L498,73 L496,52 L489,49 L486,48 Z " fill="#000000" transform="translate(337,612)"/>
<path d="M0,0 L12,1 L21,4 L34,16 L36,26 L33,29 L28,30 L23,27 L16,17 L10,14 L-3,14 L-11,18 L-16,25 L-20,38 L-19,55 L-16,62 L-12,66 L-12,68 L-7,70 L-2,72 L6,72 L15,69 L21,62 L25,53 L27,51 L34,50 L37,52 L36,62 L34,67 L27,76 L18,83 L13,85 L-4,85 L-14,83 L-20,79 L-26,71 L-31,64 L-34,53 L-34,39 L-30,23 L-26,15 L-16,6 L-6,1 Z " fill="#000000" transform="translate(145,1194)"/>
<path d="M0,0 L7,1 L8,2 L8,9 L4,13 L-14,13 L-16,16 L-16,63 L-17,77 L-20,81 L-26,81 L-30,77 L-30,17 L-34,13 L-36,12 L-53,12 L-55,10 L-55,4 L-54,2 L-51,1 L-15,1 Z " fill="#000000" transform="translate(93,1197)"/>
</svg>
