<?xml version="1.0" encoding="UTF-8"?>
<!-- Generator: visioncortex VTracer 0.6.12 -->
<svg version="1.1" xmlns="http://www.w3.org/2000/svg" width="1011" height="990">
<path d="M0,0 L14,0 L23,2 L42,2 L42,0 L47,0 L49,2 L67,1 L68,0 L74,0 L75,1 L89,2 L89,0 L626,0 L626,990 L161,990 L162,988 L179,987 L206,987 L212,988 L238,987 L288,986 L447,986 L474,985 L518,985 L554,984 L591,984 L620,983 L622,981 L623,967 L623,802 L622,689 L621,621 L620,596 L620,536 L619,443 L618,399 L619,390 L618,388 L617,372 L616,252 L616,139 L615,109 L615,43 L613,8 L608,5 L552,5 L544,4 L540,5 L524,5 L477,7 L350,7 L346,8 L315,8 L271,9 L192,9 L145,10 L81,10 L79,11 L42,11 L35,12 L-46,12 L-102,13 L-109,12 L-127,13 L-155,13 L-175,14 L-180,13 L-184,14 L-228,14 L-233,15 L-262,15 L-269,14 L-272,15 L-338,16 L-377,16 L-381,20 L-381,371 L-380,397 L-379,473 L-378,522 L-378,548 L-377,605 L-377,619 L-376,628 L-377,633 L-376,682 L-375,781 L-375,810 L-376,867 L-375,949 L-375,977 L-373,985 L-373,990 L-385,990 L-385,5 L-361,6 L-352,5 L-263,5 L-196,4 L-187,5 L-184,4 L-104,3 L-40,2 L-15,2 L-1,1 Z " fill="#000000" transform="translate(385,0)"/>
<path d="M0,0 L6,1 L11,2 L15,0 L54,0 L58,1 L78,2 L81,3 L94,4 L109,8 L124,10 L147,16 L155,18 L167,22 L181,26 L188,29 L198,33 L208,38 L217,41 L233,47 L238,51 L261,63 L270,69 L285,79 L293,85 L304,92 L305,95 L310,97 L321,107 L331,115 L346,129 L355,137 L362,146 L373,157 L382,168 L390,178 L398,188 L413,211 L425,231 L433,247 L437,255 L443,268 L449,281 L454,296 L456,303 L460,313 L462,322 L466,333 L468,346 L473,371 L475,383 L477,415 L477,454 L475,484 L472,498 L468,523 L460,553 L450,583 L440,607 L431,626 L425,635 L415,653 L408,664 L401,674 L396,682 L392,686 L385,695 L372,710 L365,718 L354,730 L349,734 L344,739 L334,749 L326,754 L321,759 L311,767 L300,774 L291,780 L281,788 L267,796 L255,803 L245,809 L237,813 L229,816 L224,820 L215,824 L207,827 L194,832 L191,834 L174,839 L173,840 L163,842 L150,846 L136,850 L118,853 L94,857 L66,860 L49,861 L15,861 L-24,858 L-40,856 L-43,855 L-54,854 L-70,850 L-83,847 L-99,843 L-107,839 L-120,837 L-124,834 L-133,832 L-137,829 L-137,827 L-146,828 L-151,825 L-166,817 L-179,812 L-196,803 L-202,799 L-216,792 L-227,784 L-232,780 L-243,773 L-253,766 L-261,759 L-272,750 L-280,743 L-296,727 L-301,722 L-306,717 L-313,709 L-321,699 L-328,690 L-337,679 L-343,671 L-353,654 L-357,649 L-361,641 L-369,625 L-377,610 L-383,596 L-387,585 L-392,575 L-396,558 L-399,549 L-405,528 L-409,509 L-410,506 L-412,489 L-413,484 L-415,454 L-416,447 L-416,420 L-412,378 L-408,353 L-406,347 L-403,330 L-399,316 L-394,299 L-389,285 L-380,263 L-375,253 L-370,242 L-360,223 L-356,215 L-349,206 L-343,195 L-330,177 L-321,166 L-313,156 L-309,150 L-306,149 L-304,145 L-296,136 L-289,128 L-276,117 L-272,113 L-264,106 L-254,98 L-244,90 L-232,81 L-218,72 L-214,68 L-202,62 L-187,53 L-176,48 L-169,45 L-150,35 L-140,32 L-133,29 L-122,25 L-113,21 L-90,15 L-59,8 L-40,5 L-30,5 L-25,3 Z M-35,173 L-36,177 L-32,178 L-31,175 L-32,173 Z M-300,197 L-302,199 L-301,204 L-296,203 L-296,198 Z M-214,230 L-229,233 L-236,234 L-252,242 L-262,249 L-268,254 L-277,265 L-283,275 L-287,284 L-290,298 L-290,316 L-287,332 L-279,348 L-272,357 L-260,369 L-250,376 L-238,381 L-227,384 L-220,385 L-201,385 L-189,383 L-175,378 L-163,371 L-152,362 L-143,351 L-140,347 L-135,338 L-126,334 L-25,333 L-11,333 L23,332 L88,332 L91,331 L155,331 L264,330 L292,330 L305,325 L309,323 L316,314 L319,306 L319,293 L313,283 L306,277 L301,274 L285,272 L258,272 L209,273 L122,274 L95,274 L64,275 L23,275 L-66,276 L-131,276 L-137,273 L-145,262 L-154,252 L-162,246 L-167,242 L-188,233 L-191,232 Z M189,424 L178,425 L163,425 L160,426 L139,426 L135,425 L127,425 L122,426 L98,426 L58,427 L2,428 L-43,429 L-76,429 L-87,430 L-131,430 L-136,431 L-174,432 L-181,434 L-184,444 L-184,471 L-183,491 L-182,550 L-177,578 L-172,592 L-169,601 L-164,610 L-157,623 L-147,638 L-135,652 L-125,663 L-119,667 L-110,674 L-106,678 L-95,684 L-85,686 L4,686 L52,685 L67,686 L98,685 L104,683 L114,677 L126,668 L141,655 L154,639 L161,630 L172,612 L176,602 L181,592 L184,586 L193,583 L214,583 L230,582 L244,578 L261,569 L273,558 L280,550 L286,542 L292,530 L295,519 L295,490 L292,478 L287,468 L283,461 L276,453 L272,448 L262,440 L257,436 L250,433 L240,429 L221,426 L193,425 Z " fill="#000000" transform="translate(476,69)"/>
<path d="M0,0 L11,0 L31,3 L37,6 L48,13 L57,22 L62,33 L64,43 L64,56 L60,69 L54,78 L46,85 L39,90 L31,94 L19,96 L-1,96 L-6,93 L-8,88 L-9,13 L-8,5 L-3,1 Z " fill="#000000" transform="translate(674,525)"/>
<path d="M0,0 L3,2 L-1,1 Z " fill="#000000" transform="translate(513,988)"/>
<path d="M0,0 L5,1 L5,2 L-2,2 Z " fill="#000000" transform="translate(535,988)"/>
<path d="M0,0 L2,1 Z " fill="#000000" transform="translate(526,989)"/>
</svg>
