<?xml version="1.0" encoding="UTF-8"?>
<!-- Generator: visioncortex VTracer 0.6.12 -->
<svg version="1.1" xmlns="http://www.w3.org/2000/svg" width="1128" height="1152">
<path d="M0,0 L18,0 L17,3 L12,6 L10,9 L8,24 L8,44 L7,75 L7,93 L8,129 L7,184 L7,397 L6,445 L7,665 L7,688 L6,793 L6,1006 L5,1023 L4,1123 L5,1137 L8,1145 L12,1148 L25,1149 L237,1149 L287,1150 L288,1152 L0,1152 Z " fill="#000000" transform="translate(0,0)"/>
<path d="M0,0 L6,0 L6,1 L0,1 Z " fill="#000000" transform="translate(326,0)"/>
<path d="M0,0 L30,0 L30,1 L25,2 L3,2 Z " fill="#000000" transform="translate(337,0)"/>
<path d="M0,0 L12,0 L12,1 L0,1 Z " fill="#000000" transform="translate(370,0)"/>
<path d="M0,0 L17,0 L17,1 L12,2 L3,2 Z " fill="#000000" transform="translate(402,0)"/>
<path d="M0,0 L21,0 L20,2 L0,1 Z " fill="#000000" transform="translate(474,0)"/>
<path d="M0,0 L31,0 L30,2 L9,3 L0,1 Z " fill="#000000" transform="translate(500,0)"/>
<path d="M0,0 L7,0 L7,1 L0,1 Z " fill="#000000" transform="translate(543,0)"/>
<path d="M0,0 L16,0 L13,2 L2,2 Z " fill="#000000" transform="translate(594,0)"/>
<path d="M0,0 L115,0 L114,2 L96,3 L23,2 L0,1 Z " fill="#000000" transform="translate(618,0)"/>
<path d="M0,0 L370,0 L370,26 L368,25 L366,11 L363,8 L358,6 L352,5 L328,4 L285,4 L197,3 L68,3 L1,2 Z " fill="#000000" transform="translate(758,0)"/>
<path d="M0,0 L1,0 L1,52 L0,52 L-1,44 L-1,1 Z " fill="#000000" transform="translate(1127,86)"/>
<path d="M0,0 L1,0 L1,10 L0,10 Z " fill="#000000" transform="translate(1127,194)"/>
<path d="M0,0 L1,0 L1,24 L-1,23 L-1,1 Z " fill="#000000" transform="translate(1127,228)"/>
<path d="M0,0 L4,2 L10,11 L20,27 L33,50 L42,65 L49,79 L54,86 L59,96 L67,110 L74,121 L80,132 L87,144 L93,153 L97,163 L105,176 L110,186 L116,196 L124,210 L132,222 L135,229 L142,240 L157,266 L171,289 L176,298 L186,314 L194,325 L198,329 L206,329 L208,325 L216,314 L225,300 L230,291 L236,282 L246,266 L253,255 L264,236 L268,230 L273,221 L283,204 L291,191 L303,171 L309,161 L313,154 L323,137 L338,112 L342,107 L348,95 L356,84 L364,69 L368,65 L372,56 L380,43 L387,29 L392,21 L398,11 L403,3 L408,2 L411,5 L410,12 L407,18 L399,31 L393,42 L387,52 L382,61 L374,74 L362,95 L354,108 L349,115 L344,125 L332,145 L325,157 L318,168 L312,179 L305,191 L296,206 L288,220 L281,230 L270,250 L264,259 L258,270 L246,291 L241,298 L235,310 L231,317 L229,322 L230,328 L234,332 L249,333 L301,333 L317,334 L396,334 L404,336 L407,339 L408,341 L409,365 L409,440 L408,512 L408,670 L407,685 L405,691 L399,691 L396,686 L395,671 L395,360 L393,354 L388,349 L385,348 L23,348 L14,349 L9,354 L7,359 L6,397 L6,473 L5,534 L5,562 L3,686 L0,690 L-5,690 L-8,685 L-9,681 L-9,506 L-7,372 L-6,344 L-3,337 L1,335 L23,335 L39,334 L91,334 L159,333 L168,332 L172,328 L171,320 L167,311 L159,297 L153,287 L145,271 L139,263 L133,251 L127,239 L119,226 L113,215 L103,198 L99,191 L93,181 L89,171 L80,156 L67,133 L58,118 L52,107 L40,85 L33,74 L27,63 L19,48 L13,38 L1,16 L-3,9 L-3,2 Z " fill="#000000" transform="translate(369,234)"/>
<path d="M0,0 L1,0 L1,95 L-1,93 L-1,4 Z " fill="#000000" transform="translate(1127,271)"/>
<path d="M0,0 L1,0 L1,52 L-1,49 L-1,10 Z " fill="#000000" transform="translate(1127,368)"/>
<path d="M0,0 L1,0 L1,74 L-1,71 L-1,1 Z " fill="#000000" transform="translate(1127,452)"/>
<path d="M0,0 L1,0 L1,33 L-1,29 L-1,11 Z " fill="#000000" transform="translate(1127,530)"/>
<path d="M0,0 L1,0 L1,10 L-1,8 L-1,1 Z " fill="#000000" transform="translate(1127,572)"/>
<path d="M0,0 L2,2 L-1,1 Z " fill="#000000" transform="translate(422,585)"/>
<path d="M0,0 L1,0 L1,566 L-50,566 L-50,565 L-15,563 L-8,560 L-5,553 L-4,536 L-4,516 L-3,496 L-3,435 L-2,315 L-2,85 L-1,47 L-1,2 Z " fill="#000000" transform="translate(1127,586)"/>
<path d="M0,0 L24,1 L42,5 L53,12 L63,21 L69,30 L74,41 L76,53 L77,155 L77,227 L75,244 L69,258 L60,269 L46,279 L34,283 L25,284 L-211,284 L-223,282 L-234,278 L-243,273 L-250,267 L-258,257 L-262,247 L-264,239 L-265,215 L-265,56 L-263,45 L-258,32 L-250,21 L-238,11 L-228,5 L-217,3 L-214,2 L-190,1 L-4,1 Z M-65,38 L-66,40 L-65,42 L-62,41 L-63,38 Z M-106,44 L-123,47 L-139,53 L-152,61 L-157,65 L-165,72 L-174,81 L-183,94 L-191,110 L-195,125 L-196,133 L-196,150 L-194,168 L-188,185 L-182,197 L-177,205 L-175,205 L-173,209 L-166,217 L-158,224 L-147,231 L-137,236 L-123,241 L-110,244 L-85,244 L-72,242 L-56,237 L-41,229 L-30,221 L-25,217 L-16,205 L-15,203 L-15,195 L-20,189 L-26,188 L-33,192 L-40,199 L-51,208 L-67,216 L-82,220 L-92,221 L-102,221 L-118,218 L-133,212 L-144,205 L-154,196 L-161,187 L-170,169 L-173,156 L-173,139 L-170,124 L-166,112 L-161,103 L-150,89 L-139,80 L-131,75 L-116,69 L-104,67 L-85,67 L-70,70 L-51,80 L-41,88 L-31,98 L-27,101 L-20,101 L-15,95 L-15,86 L-19,79 L-28,69 L-40,60 L-54,52 L-64,48 L-82,44 Z M12,111 L10,113 L10,116 L13,117 L20,117 L19,113 L15,111 Z " fill="#000000" transform="translate(663,604)"/>
<path d="M0,0 L371,0 L414,1 L458,0 L610,0 L643,1 L644,3 L-16,3 L-14,1 Z " fill="#000000" transform="translate(315,1149)"/>
<path d="M0,0 L18,0 L20,2 L-1,2 Z " fill="#000000" transform="translate(967,1150)"/>
<path d="M0,0 L42,0 L43,2 L-2,2 Z " fill="#000000" transform="translate(1018,1150)"/>
</svg>
