<?xml version="1.0" encoding="UTF-8"?>
<!-- Generator: visioncortex VTracer 0.6.12 -->
<svg version="1.1" xmlns="http://www.w3.org/2000/svg" width="1134" height="1146">
<path d="M0,0 L3,0 L3,2 L16,0 L26,0 L34,1 L108,1 L114,0 L1128,0 L1127,4 L1126,25 L1126,181 L1127,237 L1126,262 L1127,265 L1129,383 L1129,438 L1130,493 L1132,701 L1133,763 L1134,770 L1134,1127 L922,1127 L889,1128 L804,1129 L681,1131 L643,1131 L534,1132 L493,1133 L336,1135 L250,1136 L197,1137 L164,1137 L78,1138 L44,1138 L10,1139 L2,1132 L0,1126 L0,1099 L1,1097 L1,1046 L0,1044 Z M1014,3 L986,4 L976,5 L858,5 L793,6 L699,7 L636,8 L625,8 L613,9 L541,9 L510,10 L418,11 L326,12 L276,12 L121,14 L104,14 L25,16 L11,16 L7,19 L6,24 L5,36 L4,51 L4,158 L6,230 L6,313 L7,342 L7,358 L8,392 L10,559 L11,586 L11,650 L12,704 L12,720 L13,762 L13,810 L15,938 L16,1002 L17,1098 L18,1118 L21,1123 L48,1124 L204,1124 L296,1123 L323,1123 L419,1122 L543,1120 L575,1120 L675,1119 L743,1118 L831,1116 L845,1116 L885,1115 L925,1114 L1026,1113 L1120,1111 L1122,1108 L1123,1092 L1123,1061 L1122,1012 L1122,936 L1120,846 L1119,727 L1118,661 L1117,605 L1115,432 L1114,373 L1113,232 L1111,153 L1111,85 L1110,68 L1109,36 L1108,29 L1107,6 L1104,4 L1073,4 L1059,3 Z " fill="#000000" transform="translate(0,0)"/>
<path d="M0,0 L18,0 L34,5 L46,12 L57,23 L64,33 L69,46 L71,58 L70,73 L68,83 L63,95 L54,107 L46,114 L32,122 L27,124 L14,126 L4,126 L-5,125 L-12,122 L-19,120 L-30,113 L-40,103 L-47,92 L-52,79 L-54,71 L-54,53 L-50,39 L-46,31 L-38,20 L-31,13 L-21,7 L-10,2 Z " fill="#000000" transform="translate(687,236)"/>
<path d="M0,0 L14,0 L23,2 L39,10 L48,18 L57,33 L60,42 L61,54 L58,70 L51,84 L40,96 L24,104 L19,106 L-4,106 L-16,101 L-25,95 L-37,84 L-44,69 L-46,59 L-46,48 L-42,33 L-35,21 L-29,14 L-18,6 L-6,1 Z " fill="#000000" transform="translate(328,305)"/>
<path d="M0,0 L10,0 L16,3 L23,11 L27,21 L29,32 L29,49 L27,58 L26,75 L17,115 L6,151 L-4,176 L-9,189 L-13,198 L-23,222 L-27,230 L-35,249 L-41,262 L-45,272 L-51,287 L-55,296 L-61,309 L-67,321 L-74,329 L-81,332 L-87,334 L-120,334 L-152,332 L-243,330 L-263,329 L-313,328 L-341,328 L-343,329 L-346,346 L-349,362 L-354,400 L-359,436 L-364,474 L-368,500 L-375,556 L-377,561 L-379,563 L-419,564 L-445,565 L-480,565 L-481,564 L-481,554 L-477,550 L-461,545 L-449,540 L-441,535 L-433,528 L-426,517 L-422,509 L-418,495 L-418,354 L-419,327 L-421,325 L-432,324 L-435,322 L-435,312 L-430,291 L-428,281 L-425,275 L-420,269 L-410,262 L-393,257 L-384,255 L-369,251 L-359,249 L-339,258 L-323,266 L-307,274 L-293,282 L-277,290 L-261,298 L-250,304 L-242,309 L-232,310 L-226,305 L-218,295 L-209,284 L-201,273 L-196,266 L-196,262 L-205,265 L-214,270 L-224,274 L-231,274 L-240,267 L-242,263 L-246,261 L-256,251 L-261,246 L-274,233 L-274,229 L-261,225 L-243,221 L-231,218 L-215,214 L-206,212 L-158,200 L-143,196 L-138,193 L-137,192 L-133,161 L-132,149 L-132,138 L-133,137 L-145,138 L-158,140 L-164,142 L-190,146 L-213,149 L-218,151 L-223,150 L-228,135 L-232,122 L-233,113 L-229,109 L-206,98 L-157,74 L-143,67 L-122,57 L-106,49 L-89,41 L-77,35 L-65,29 L-49,21 L-37,15 L-12,4 Z " fill="#000000" transform="translate(729,377)"/>
<path d="M0,0 L12,2 L23,7 L39,13 L58,21 L71,27 L88,34 L98,40 L119,49 L131,54 L141,59 L151,63 L161,70 L157,86 L153,94 L148,96 L140,96 L111,91 L108,90 L101,90 L102,95 L108,105 L118,120 L124,129 L127,134 L134,144 L143,159 L142,164 L126,169 L101,176 L89,179 L79,181 L66,185 L48,189 L28,195 L-6,203 L-16,206 L-23,206 L-24,204 L-24,183 L-19,100 L-16,51 L-14,22 L-10,7 L-3,1 Z M97,154 L95,155 L96,158 L100,157 L100,155 Z " fill="#000000" transform="translate(308,427)"/>
<path d="M0,0 L6,1 L17,6 L29,10 L44,16 L45,17 L44,24 L41,36 L39,40 L36,54 L28,81 L26,84 L24,94 L12,134 L8,145 L4,160 L2,165 L-1,177 L-7,195 L-12,212 L-26,257 L-31,270 L-33,281 L-38,296 L-40,301 L-46,322 L-59,362 L-64,367 L-263,367 L-362,368 L-394,367 L-398,362 L-399,355 L-399,294 L-396,289 L-392,286 L-381,286 L-363,287 L-270,289 L-216,291 L-196,291 L-140,293 L-131,293 L-126,287 L-114,260 L-109,247 L-103,234 L-98,221 L-91,206 L-84,189 L-64,142 L-56,122 L-51,110 L-42,91 L-39,82 L-31,65 L-27,55 L-23,46 L-11,17 L-4,3 Z " fill="#000000" transform="translate(797,435)"/>
<path d="M0,0 L336,0 L338,2 L339,10 L339,52 L335,57 L336,66 L341,83 L349,110 L352,120 L351,125 L350,126 L343,127 L328,127 L324,123 L313,90 L310,81 L306,70 L301,57 L297,54 L248,54 L191,55 L74,56 L48,57 L43,60 L43,118 L41,124 L38,126 L16,126 L14,123 L12,68 L11,56 L-1,56 L-4,53 L-3,45 L-2,2 Z " fill="#000000" transform="translate(402,812)"/>
</svg>
