<?xml version="1.0" encoding="UTF-8"?>
<!-- Generator: visioncortex VTracer 0.6.12 -->
<svg version="1.1" xmlns="http://www.w3.org/2000/svg" width="1107" height="1122">
<path d="M0,0 L1007,0 L1021,1 L1066,2 L1107,2 L1107,1122 L0,1122 Z M148,8 L147,12 L152,13 L153,9 Z M716,103 L700,105 L684,113 L674,121 L667,129 L659,143 L656,152 L654,166 L655,178 L658,190 L662,198 L673,213 L683,221 L695,227 L704,229 L722,230 L735,228 L752,218 L762,209 L769,200 L774,190 L777,181 L778,162 L776,149 L771,135 L764,126 L757,118 L748,112 L736,106 L724,103 Z M503,104 L488,105 L472,113 L464,119 L456,127 L450,136 L445,148 L443,158 L443,179 L445,188 L454,205 L463,214 L472,220 L482,225 L492,228 L512,228 L522,226 L538,218 L548,209 L552,204 L559,193 L564,178 L565,168 L565,159 L563,149 L560,139 L554,129 L547,122 L542,116 L532,110 L518,105 L512,104 Z M921,107 L913,109 L896,117 L886,126 L879,134 L875,141 L870,153 L868,162 L868,179 L871,192 L878,206 L890,219 L901,226 L912,230 L922,232 L942,232 L955,227 L963,223 L973,215 L981,206 L987,194 L992,178 L992,158 L988,145 L983,135 L970,120 L964,116 L952,110 L941,107 Z M419,240 L414,243 L411,252 L410,357 L410,411 L414,415 L436,417 L464,417 L552,418 L582,417 L585,414 L587,406 L587,384 L588,326 L588,247 L585,242 L584,241 L563,240 Z M632,240 L627,246 L626,250 L625,282 L625,412 L629,417 L636,418 L690,418 L781,419 L795,418 L799,414 L801,409 L802,335 L802,248 L800,243 L795,241 L702,240 Z M876,240 L850,241 L844,245 L842,248 L841,254 L840,303 L840,414 L844,418 L850,419 L903,420 L1009,420 L1014,415 L1015,409 L1016,385 L1016,248 L1013,243 L1008,241 L943,241 Z M247,468 L241,472 L239,482 L238,514 L238,615 L237,628 L238,639 L242,644 L255,645 L290,645 L363,646 L403,646 L408,643 L410,640 L411,625 L411,476 L408,471 L400,469 L337,468 Z M169,495 L163,496 L155,496 L145,499 L133,506 L120,518 L112,534 L108,546 L108,566 L111,578 L118,592 L125,600 L135,608 L146,613 L156,616 L174,616 L184,615 L197,608 L208,599 L217,589 L222,581 L225,572 L227,563 L227,549 L224,535 L216,519 L207,510 L194,501 L185,498 L173,495 Z M416,703 L411,705 L408,708 L407,721 L407,748 L406,757 L406,780 L405,861 L406,873 L410,878 L412,879 L454,880 L518,881 L577,881 L581,879 L583,875 L584,867 L585,770 L585,714 L583,707 L580,705 L572,704 L537,703 Z M633,704 L626,707 L624,709 L623,714 L622,731 L621,871 L624,879 L627,881 L657,882 L790,882 L796,878 L798,872 L799,773 L799,718 L798,710 L794,706 L789,705 L733,705 L669,704 Z M851,706 L842,709 L840,711 L839,716 L838,744 L838,873 L840,878 L845,882 L875,882 L989,884 L1003,884 L1009,881 L1011,877 L1012,849 L1012,827 L1013,792 L1013,742 L1012,719 L1011,711 L1008,708 L996,707 L900,706 Z M1019,802 L1019,806 L1023,807 L1022,802 Z M495,896 L483,898 L471,904 L461,912 L453,920 L447,931 L444,938 L441,950 L441,964 L446,983 L451,991 L457,999 L464,1006 L478,1014 L493,1018 L511,1018 L527,1014 L538,1006 L547,998 L555,986 L560,973 L562,961 L561,944 L557,932 L551,921 L545,914 L535,906 L526,900 L512,896 Z M707,896 L697,898 L685,903 L675,910 L665,920 L657,934 L653,949 L652,962 L655,977 L660,989 L669,1002 L675,1007 L685,1014 L695,1018 L704,1020 L724,1020 L735,1017 L748,1010 L758,1001 L764,994 L770,982 L774,969 L774,944 L770,932 L763,920 L754,910 L740,901 L728,897 L722,896 Z M921,897 L907,900 L893,908 L881,919 L874,930 L870,939 L867,953 L867,969 L872,988 L881,1002 L890,1011 L906,1019 L911,1021 L926,1023 L934,1023 L948,1020 L962,1013 L971,1006 L981,992 L987,980 L990,968 L990,952 L986,935 L982,927 L972,914 L965,908 L950,900 L936,897 Z " fill="#000000" transform="translate(0,0)"/>
</svg>
