<?xml version="1.0" encoding="UTF-8"?>
<!-- Generator: visioncortex VTracer 0.6.12 -->
<svg version="1.1" xmlns="http://www.w3.org/2000/svg" width="501" height="1029">
<path d="M0,0 L9,0 L12,1 L31,1 L36,2 L73,3 L90,3 L109,4 L153,4 L173,5 L187,5 L195,4 L216,4 L240,7 L246,11 L249,26 L253,55 L256,68 L257,71 L259,103 L262,123 L264,139 L268,151 L270,153 L279,153 L285,149 L289,146 L292,137 L290,30 L289,12 L293,8 L295,7 L312,7 L322,8 L333,8 L340,10 L343,13 L344,16 L344,62 L343,115 L341,136 L341,148 L334,178 L329,186 L318,194 L309,198 L299,201 L297,202 L281,204 L275,206 L274,208 L275,230 L276,243 L273,248 L270,250 L263,251 L229,252 L216,252 L208,253 L170,252 L162,253 L134,252 L126,253 L112,253 L107,252 L98,253 L50,252 L31,252 L2,250 L-5,251 L-23,250 L-27,248 L-29,241 L-27,225 L-27,216 L-30,208 L-32,206 L-41,206 L-49,204 L-64,202 L-76,200 L-87,194 L-94,188 L-98,178 L-100,160 L-101,90 L-100,78 L-100,17 L-97,12 L-92,10 L-75,9 L-65,8 L-60,11 L-57,20 L-56,67 L-56,101 L-55,134 L-51,149 L-42,157 L-35,158 L-28,158 L-25,157 L-21,150 L-20,140 L-17,115 L-16,110 L-15,91 L-13,75 L-9,41 L-7,26 L-6,11 L-3,2 Z " fill="#000000" transform="translate(131,29)"/>
<path d="M0,0 L7,0 L9,1 L86,1 L106,2 L182,2 L193,3 L201,7 L205,13 L209,25 L211,39 L213,63 L217,102 L219,120 L224,164 L227,186 L231,221 L234,237 L236,262 L238,276 L240,297 L241,306 L243,317 L247,350 L249,366 L252,385 L254,391 L254,409 L257,432 L262,471 L264,487 L267,499 L274,553 L276,558 L279,574 L281,592 L282,597 L283,612 L283,649 L286,667 L287,681 L289,699 L289,712 L284,717 L208,717 L198,716 L151,717 L-43,717 L-63,718 L-79,718 L-87,716 L-91,712 L-92,710 L-92,691 L-89,669 L-86,635 L-82,604 L-80,575 L-77,552 L-74,517 L-70,474 L-68,451 L-66,437 L-63,398 L-60,373 L-58,357 L-57,335 L-54,314 L-52,278 L-49,256 L-48,234 L-45,211 L-43,196 L-41,168 L-40,162 L-39,139 L-37,125 L-36,94 L-32,57 L-31,40 L-29,29 L-28,12 L-26,7 L-22,4 L-10,3 Z " fill="#000000" transform="translate(165,286)"/>
</svg>
