<?xml version="1.0" encoding="UTF-8"?>
<!-- Generator: visioncortex VTracer 0.6.12 -->
<svg version="1.1" xmlns="http://www.w3.org/2000/svg" width="522" height="756">
<path d="M0,0 L7,1 L8,6 L2,20 L-4,32 L-9,38 L-16,41 L-22,40 L-30,36 L-32,34 L-32,27 L-29,22 L-17,12 L-8,6 Z " fill="#000000" transform="translate(404,29)"/>
<path d="M0,0 L5,3 L6,9 L7,36 L4,42 L-1,46 L-9,45 L-15,40 L-16,38 L-16,29 L-8,11 L-4,3 Z " fill="#000000" transform="translate(422,38)"/>
<path d="M0,0 L7,0 L14,3 L20,7 L24,15 L25,18 L25,25 L18,39 L14,43 L5,43 L-12,34 L-15,30 L-16,22 L-11,9 L-2,1 Z " fill="#000000" transform="translate(360,72)"/>
<path d="M0,0 L4,2 L2,8 L-3,10 L-5,8 L-4,3 Z " fill="#000000" transform="translate(333,87)"/>
<path d="M0,0 L7,1 L17,7 L24,15 L27,24 L24,34 L21,39 L13,45 L6,45 L-3,41 L-9,37 L-14,31 L-14,25 L-6,7 L-3,2 Z " fill="#000000" transform="translate(400,88)"/>
<path d="M0,0 L7,1 L10,4 L9,10 L1,28 L-5,39 L-8,42 L-16,43 L-21,40 L-24,34 L-22,24 L-11,12 L-5,4 Z " fill="#000000" transform="translate(316,106)"/>
<path d="M0,0 L8,1 L18,5 L22,9 L25,17 L24,26 L21,31 L19,36 L13,46 L4,50 L-4,50 L-18,43 L-22,35 L-22,26 L-13,9 L-7,4 Z " fill="#000000" transform="translate(342,117)"/>
<path d="M0,0 L7,0 L18,6 L26,16 L26,23 L19,37 L15,46 L7,51 L-1,50 L-16,42 L-19,37 L-19,30 L-15,21 L-7,5 Z " fill="#000000" transform="translate(381,136)"/>
<path d="M0,0 L8,0 L14,3 L18,7 L19,9 L19,19 L10,38 L4,43 L-3,44 L-12,40 L-18,36 L-20,33 L-20,23 L-14,15 L-8,6 Z " fill="#000000" transform="translate(279,155)"/>
<path d="M0,0 L4,1 L3,11 L-2,34 L-6,40 L-12,39 L-15,35 L-14,29 L-9,19 L-6,11 L-1,1 Z " fill="#000000" transform="translate(417,158)"/>
<path d="M0,0 L6,1 L15,6 L19,11 L21,18 L21,26 L15,38 L6,44 L2,46 L-5,45 L-19,38 L-22,34 L-23,25 L-17,10 L-10,4 Z " fill="#000000" transform="translate(319,171)"/>
<path d="M0,0 L9,1 L21,6 L27,11 L29,15 L29,21 L24,33 L16,44 L11,47 L3,47 L-12,39 L-15,35 L-16,26 L-8,8 L-2,1 Z " fill="#000000" transform="translate(355,189)"/>
<path d="M0,0 L9,0 L19,6 L23,11 L24,18 L18,34 L12,46 L9,51 L6,54 L1,56 L-6,56 L-25,46 L-28,42 L-28,31 L-22,20 L-10,3 Z " fill="#000000" transform="translate(251,202)"/>
<path d="M0,0 L6,1 L10,7 L12,18 L9,32 L2,40 L-1,43 L-8,42 L-14,36 L-14,27 L-2,2 Z " fill="#000000" transform="translate(396,207)"/>
<path d="M0,0 L7,0 L21,7 L24,12 L26,17 L26,28 L16,49 L9,55 L3,57 L-4,56 L-17,51 L-21,46 L-22,44 L-22,32 L-16,20 L-8,4 Z " fill="#000000" transform="translate(291,220)"/>
<path d="M0,0 L6,1 L23,10 L27,18 L26,25 L18,42 L12,52 L9,55 L3,57 L-5,56 L-19,49 L-23,41 L-22,36 L-16,22 L-8,6 L-3,1 Z " fill="#000000" transform="translate(334,238)"/>
<path d="M0,0 L10,0 L24,7 L28,14 L31,20 L30,27 L23,44 L16,50 L7,51 L-4,47 L-16,41 L-19,36 L-19,22 L-9,6 L-4,2 Z " fill="#000000" transform="translate(215,258)"/>
<path d="M0,0 L5,1 L11,5 L15,12 L15,23 L10,45 L6,51 L-1,55 L-8,54 L-20,48 L-24,40 L-24,33 L-11,6 L-6,2 Z " fill="#000000" transform="translate(379,260)"/>
<path d="M0,0 L5,0 L11,7 L19,21 L24,33 L28,43 L33,58 L36,78 L38,94 L37,116 L33,136 L29,156 L24,175 L20,191 L17,198 L13,213 L9,222 L1,248 L-5,270 L-9,285 L-13,301 L-14,319 L-13,336 L-8,361 L-3,373 L5,386 L16,399 L27,407 L37,413 L54,419 L67,421 L85,421 L102,417 L115,413 L125,407 L135,399 L140,394 L148,388 L160,375 L166,367 L173,358 L181,348 L186,339 L190,334 L196,325 L200,318 L208,305 L218,286 L233,261 L239,250 L250,232 L259,220 L267,209 L274,200 L282,190 L291,180 L299,173 L306,166 L320,156 L329,150 L347,142 L364,139 L371,140 L391,141 L405,145 L413,149 L412,152 L410,153 L389,153 L370,156 L356,161 L336,172 L326,180 L318,187 L311,197 L300,210 L294,220 L286,230 L282,236 L276,245 L262,269 L257,276 L249,292 L243,304 L236,313 L232,321 L226,331 L223,336 L216,348 L209,358 L202,368 L196,378 L185,393 L181,399 L171,412 L159,425 L147,436 L134,444 L128,448 L104,457 L88,461 L68,461 L47,458 L31,453 L19,448 L5,440 L-9,429 L-19,419 L-28,408 L-34,399 L-44,378 L-50,356 L-51,348 L-51,323 L-49,308 L-44,292 L-40,283 L-35,266 L-30,250 L-27,243 L-24,234 L-19,222 L-13,205 L-8,188 L-5,179 L2,158 L7,140 L12,117 L15,90 L15,78 L13,57 L11,45 L6,19 L0,6 Z " fill="#000000" transform="translate(81,268)"/>
<path d="M0,0 L9,0 L19,5 L26,13 L28,17 L28,26 L19,45 L13,50 L6,52 L-7,47 L-15,42 L-18,35 L-18,27 L-10,11 L-6,3 Z " fill="#000000" transform="translate(262,278)"/>
<path d="M0,0 L8,1 L23,10 L27,15 L28,22 L20,38 L14,49 L10,52 L1,52 L-8,48 L-16,42 L-19,38 L-19,31 L-12,16 L-6,4 L-3,1 Z " fill="#000000" transform="translate(306,297)"/>
<path d="M0,0 L8,0 L30,10 L36,17 L37,19 L37,25 L29,41 L25,47 L20,50 L10,51 L-13,40 L-17,34 L-17,24 L-10,8 L-5,3 Z " fill="#000000" transform="translate(186,308)"/>
<path d="M0,0 L10,0 L22,7 L26,12 L28,17 L27,26 L21,41 L12,49 L5,49 L-11,42 L-17,36 L-18,33 L-18,26 L-13,13 L-9,5 L-3,1 Z " fill="#000000" transform="translate(349,321)"/>
<path d="M0,0 L7,0 L23,6 L29,13 L30,15 L30,25 L25,37 L19,45 L14,48 L6,49 L-5,45 L-12,40 L-15,33 L-15,23 L-7,6 Z " fill="#000000" transform="translate(236,331)"/>
<path d="M0,0 L7,1 L20,8 L26,15 L27,17 L27,26 L24,31 L20,41 L12,47 L7,49 L-3,48 L-12,42 L-17,36 L-17,29 L-8,9 L-2,1 Z " fill="#000000" transform="translate(281,350)"/>
<path d="M0,0 L7,1 L26,9 L33,15 L36,21 L34,30 L28,41 L22,49 L18,51 L9,50 L-7,42 L-13,32 L-14,23 L-11,15 L-9,9 L-3,1 Z " fill="#000000" transform="translate(163,359)"/>
<path d="M0,0 L8,0 L25,8 L30,15 L30,25 L25,36 L20,45 L13,49 L4,48 L-12,40 L-15,36 L-18,29 L-17,22 L-9,5 Z " fill="#000000" transform="translate(325,373)"/>
<path d="M0,0 L9,0 L21,5 L30,11 L33,17 L33,23 L24,42 L19,47 L15,49 L7,48 L-9,40 L-12,36 L-13,32 L-13,23 L-10,16 L-4,4 Z " fill="#000000" transform="translate(211,382)"/>
<path d="M0,0 L8,1 L20,8 L24,13 L25,15 L25,23 L15,42 L8,48 L1,48 L-16,39 L-19,36 L-19,23 L-9,4 L-4,1 Z " fill="#000000" transform="translate(260,403)"/>
<path d="M0,0 L9,0 L19,5 L29,10 L33,15 L34,17 L34,25 L26,40 L23,46 L16,51 L7,51 L-8,43 L-13,39 L-14,36 L-14,29 L-9,17 L-5,5 Z " fill="#000000" transform="translate(142,409)"/>
<path d="M0,0 L12,0 L26,7 L32,15 L33,19 L33,29 L29,39 L23,46 L18,49 L10,49 L-8,41 L-14,34 L-15,32 L-15,23 L-9,11 L-3,2 Z " fill="#000000" transform="translate(299,424)"/>
<path d="M0,0 L11,1 L21,7 L27,14 L29,18 L29,26 L21,42 L16,48 L9,51 L1,50 L-15,42 L-18,37 L-18,28 L-14,18 L-7,5 L-3,1 Z " fill="#000000" transform="translate(191,430)"/>
<path d="M0,0 L8,2 L18,8 L23,14 L23,22 L15,37 L12,43 L1,49 L-6,48 L-16,43 L-22,36 L-23,31 L-18,18 L-12,6 L-7,2 Z " fill="#000000" transform="translate(240,451)"/>
<path d="M0,0 L10,2 L20,8 L25,15 L26,21 L21,34 L15,42 L9,44 L-7,37 L-13,29 L-14,22 L-10,10 L-5,2 Z " fill="#000000" transform="translate(126,460)"/>
<path d="M0,0 L9,1 L22,8 L27,14 L29,22 L29,28 L23,39 L14,47 L11,49 L3,49 L-11,43 L-16,38 L-18,34 L-18,25 L-10,8 L-2,1 Z " fill="#000000" transform="translate(280,471)"/>
<path d="M0,0 L8,1 L18,6 L28,12 L31,15 L31,22 L27,31 L22,40 L17,44 L15,45 L7,45 L-9,37 L-16,31 L-16,23 L-8,6 L-3,1 Z " fill="#000000" transform="translate(168,479)"/>
<path d="M0,0 L7,0 L17,4 L27,10 L29,16 L27,26 L20,38 L12,42 L6,42 L-8,35 L-12,29 L-12,20 L-8,10 L-2,2 Z " fill="#000000" transform="translate(211,500)"/>
<path d="M0,0 L8,0 L14,4 L21,13 L21,22 L17,29 L8,35 L-1,35 L-9,29 L-10,27 L-10,17 L-6,5 Z " fill="#000000" transform="translate(110,506)"/>
<path d="M0,0 L8,0 L25,8 L29,14 L29,23 L25,31 L16,39 L8,40 L-8,32 L-11,29 L-12,26 L-12,17 L-8,7 L-4,2 Z " fill="#000000" transform="translate(255,521)"/>
<path d="M0,0 L10,2 L24,8 L28,13 L29,15 L29,24 L25,32 L22,38 L17,41 L8,40 L-8,32 L-12,28 L-14,23 L-13,14 L-9,6 L-4,1 Z " fill="#000000" transform="translate(149,522)"/>
<path d="M0,0 L10,1 L20,5 L26,12 L26,20 L21,30 L15,35 L11,37 L3,37 L-8,31 L-12,26 L-14,22 L-13,14 L-7,4 L-3,1 Z " fill="#000000" transform="translate(194,543)"/>
<path d="M0,0 L7,0 L13,7 L15,12 L15,19 L8,33 L3,37 L-3,39 L-8,36 L-11,31 L-11,22 L-9,12 L-6,6 Z " fill="#000000" transform="translate(98,547)"/>
<path d="M0,0 L7,1 L21,7 L25,12 L25,22 L19,31 L11,38 L3,38 L-7,34 L-12,30 L-14,26 L-14,18 L-10,8 L-6,3 Z " fill="#000000" transform="translate(238,561)"/>
<path d="M0,0 L7,0 L16,3 L25,9 L29,14 L30,17 L30,25 L25,35 L20,41 L16,43 L7,44 L-9,36 L-14,31 L-15,29 L-15,22 L-8,6 Z " fill="#000000" transform="translate(129,562)"/>
<path d="M0,0 L8,1 L19,7 L25,15 L24,25 L18,37 L11,43 L3,43 L-10,38 L-16,31 L-17,25 L-14,17 L-8,5 L-3,1 Z " fill="#000000" transform="translate(176,582)"/>
<path d="M0,0 L6,2 L8,5 L8,12 L4,16 L-1,14 L-3,3 Z " fill="#000000" transform="translate(86,595)"/>
<path d="M0,0 L10,1 L16,5 L19,11 L19,22 L13,31 L9,37 L5,39 L-5,39 L-11,36 L-15,30 L-15,23 L-6,4 L-3,1 Z " fill="#000000" transform="translate(218,601)"/>
<path d="M0,0 L8,0 L19,4 L28,9 L33,19 L33,26 L25,42 L20,50 L13,54 L6,54 L-2,48 L-10,39 L-11,31 L-10,17 L-5,5 Z " fill="#000000" transform="translate(105,607)"/>
<path d="M0,0 L7,0 L17,4 L22,9 L24,13 L23,22 L16,35 L9,44 L5,47 L1,48 L-7,48 L-15,46 L-20,42 L-23,36 L-22,30 L-11,6 L-5,1 Z " fill="#000000" transform="translate(156,629)"/>
<path d="M0,0 L6,1 L11,6 L12,11 L9,16 L1,22 L-6,22 L-8,20 L-7,13 L-3,3 Z " fill="#000000" transform="translate(194,645)"/>
</svg>
