<?xml version="1.0" encoding="UTF-8"?>
<!-- Generator: visioncortex VTracer 0.6.12 -->
<svg version="1.1" xmlns="http://www.w3.org/2000/svg" width="564" height="540">
<path d="M0,0 L5,1 L8,5 L8,13 L5,27 L3,32 L1,40 L-3,51 L-6,60 L-14,77 L-22,95 L-27,103 L-30,110 L-35,118 L-43,132 L-55,154 L-61,163 L-63,167 L-63,176 L-54,182 L-46,188 L-46,192 L-49,193 L-63,185 L-69,184 L-75,187 L-86,204 L-94,216 L-101,227 L-108,236 L-114,245 L-118,253 L-125,263 L-132,274 L-140,290 L-144,296 L-151,312 L-155,320 L-160,332 L-168,351 L-174,368 L-177,377 L-181,393 L-185,404 L-188,413 L-190,422 L-197,431 L-204,432 L-209,426 L-209,412 L-207,402 L-203,385 L-200,378 L-197,368 L-194,361 L-192,355 L-188,347 L-183,334 L-178,322 L-167,299 L-160,285 L-152,272 L-141,251 L-135,242 L-129,233 L-121,221 L-112,208 L-104,198 L-95,186 L-85,170 L-79,160 L-71,148 L-65,136 L-58,126 L-48,110 L-44,101 L-36,87 L-31,75 L-26,64 L-21,51 L-14,32 L-12,24 L-8,12 L-3,3 Z " fill="#000000" transform="translate(244,36)"/>
<path d="M0,0 L11,0 L23,2 L44,9 L63,19 L71,19 L81,14 L91,11 L109,10 L122,10 L144,17 L147,21 L148,25 L156,25 L167,34 L173,42 L178,52 L181,60 L184,75 L185,97 L187,101 L199,108 L209,117 L215,124 L223,138 L228,151 L229,156 L229,178 L227,190 L222,204 L215,213 L206,223 L197,229 L189,233 L187,233 L186,237 L186,244 L188,253 L188,269 L185,282 L176,299 L167,311 L158,321 L148,329 L139,335 L132,338 L123,341 L114,342 L112,343 L94,343 L85,341 L78,341 L72,346 L67,354 L58,361 L44,368 L34,370 L22,373 L11,374 L1,374 L-17,372 L-27,369 L-40,362 L-45,357 L-55,346 L-63,331 L-68,313 L-73,308 L-89,300 L-97,295 L-97,293 L-102,291 L-111,284 L-118,276 L-127,265 L-136,253 L-141,243 L-147,229 L-150,219 L-151,208 L-151,186 L-150,178 L-145,167 L-140,156 L-137,150 L-124,132 L-119,128 L-117,125 L-113,124 L-109,126 L-106,134 L-104,161 L-100,176 L-91,200 L-79,221 L-67,234 L-61,242 L-54,249 L-46,256 L-41,261 L-33,268 L-31,271 L-14,279 L-6,283 L1,282 L2,278 L0,272 L-3,265 L-4,260 L-5,240 L-3,224 L-3,203 L-5,180 L-10,161 L-18,145 L-25,133 L-33,124 L-35,119 L-43,108 L-44,105 L-41,101 L-33,101 L-17,105 L-3,110 L6,111 L16,114 L28,119 L46,123 L75,127 L84,127 L99,125 L106,122 L115,120 L131,112 L134,109 L134,103 L130,99 L122,95 L110,84 L100,75 L90,67 L76,57 L60,49 L52,45 L38,42 L26,40 L24,39 L8,39 L-5,40 L-17,43 L-32,49 L-42,55 L-56,65 L-64,69 L-71,74 L-76,74 L-78,69 L-73,56 L-66,45 L-54,31 L-44,21 L-35,15 L-27,9 L-19,6 L-11,2 L-2,1 Z " fill="#000000" transform="translate(300,133)"/>
</svg>
