<?xml version="1.0" encoding="UTF-8"?>
<!-- Generator: visioncortex VTracer 0.6.12 -->
<svg version="1.1" xmlns="http://www.w3.org/2000/svg" width="1377" height="573">
<path d="M0,0 L5,0 L5,153 L4,248 L2,525 L1,553 L0,553 Z " fill="#000000" transform="translate(0,0)"/>
<path d="M0,0 L63,0 L88,5 L99,6 L119,10 L136,13 L152,18 L173,23 L195,29 L210,31 L221,34 L232,36 L240,39 L263,41 L274,39 L285,38 L297,35 L317,32 L321,31 L359,29 L380,33 L394,34 L402,38 L413,41 L425,46 L438,50 L448,54 L459,56 L464,58 L477,60 L495,60 L504,58 L508,54 L512,35 L517,27 L520,24 L528,25 L547,35 L550,36 L569,36 L595,32 L617,33 L639,37 L655,42 L669,48 L675,51 L692,60 L706,70 L715,81 L723,97 L727,106 L731,114 L739,120 L753,129 L762,136 L770,141 L777,149 L778,151 L778,162 L774,172 L766,182 L758,190 L753,199 L747,216 L739,227 L732,232 L726,232 L721,230 L716,234 L709,234 L694,228 L673,219 L661,215 L647,211 L620,206 L609,205 L596,205 L581,206 L573,207 L556,209 L533,214 L516,220 L493,230 L481,235 L462,245 L446,253 L435,259 L422,267 L405,277 L400,280 L388,287 L377,294 L369,299 L348,308 L339,311 L329,313 L324,318 L323,322 L324,387 L327,417 L327,446 L329,455 L333,460 L340,463 L350,465 L364,472 L372,478 L372,480 L374,480 L380,489 L384,499 L384,510 L380,514 L376,515 L312,515 L304,516 L286,516 L266,515 L258,511 L252,499 L246,482 L244,473 L238,455 L232,434 L228,418 L223,399 L216,369 L210,351 L205,330 L200,320 L194,315 L180,313 L162,307 L142,298 L128,289 L116,280 L102,270 L85,259 L74,252 L64,247 L57,244 L47,242 L31,239 L13,240 L3,244 L-5,250 L-13,261 L-21,268 L-25,273 L-41,285 L-51,292 L-65,301 L-73,305 L-86,313 L-106,321 L-135,334 L-147,339 L-153,342 L-164,345 L-178,352 L-194,358 L-208,365 L-218,373 L-226,382 L-229,391 L-230,396 L-230,414 L-228,424 L-222,432 L-201,441 L-195,445 L-195,447 L-191,449 L-184,457 L-178,466 L-176,472 L-176,490 L-180,498 L-185,501 L-197,503 L-225,505 L-236,506 L-240,505 L-249,505 L-258,506 L-268,503 L-279,504 L-288,499 L-292,494 L-300,474 L-307,451 L-314,435 L-318,419 L-322,406 L-325,394 L-327,385 L-336,359 L-338,357 L-345,357 L-354,363 L-373,374 L-394,385 L-414,392 L-436,394 L-450,394 L-465,392 L-484,388 L-502,378 L-514,366 L-517,359 L-518,346 L-516,333 L-511,327 L-501,321 L-489,317 L-479,318 L-473,323 L-472,325 L-472,334 L-473,336 L-473,347 L-470,350 L-464,352 L-453,353 L-435,351 L-418,346 L-403,341 L-393,335 L-382,327 L-373,321 L-363,313 L-357,305 L-349,295 L-337,278 L-330,269 L-322,256 L-315,247 L-307,237 L-299,226 L-291,214 L-284,204 L-277,190 L-267,171 L-259,153 L-252,139 L-243,123 L-236,113 L-229,104 L-218,91 L-213,87 L-207,79 L-196,70 L-186,62 L-178,56 L-170,51 L-162,46 L-154,41 L-138,33 L-123,25 L-105,18 L-75,11 L-66,9 L-60,7 L-4,1 Z M-92,92 L-92,96 L-88,95 L-89,92 Z M690,116 L677,120 L675,123 L675,129 L680,138 L683,139 L684,142 L692,146 L697,147 L704,147 L712,144 L716,139 L715,131 L708,124 L700,119 Z M-199,154 L-207,161 L-216,172 L-225,184 L-233,197 L-238,204 L-245,219 L-255,240 L-266,257 L-273,265 L-280,277 L-288,287 L-295,298 L-305,313 L-313,323 L-317,328 L-321,336 L-320,340 L-315,342 L-305,338 L-283,326 L-272,318 L-262,310 L-261,307 L-258,306 L-258,304 L-255,303 L-255,301 L-251,299 L-242,291 L-236,282 L-227,271 L-217,256 L-209,244 L-204,232 L-199,219 L-196,209 L-192,189 L-191,182 L-191,163 L-194,155 Z " fill="#000000" transform="translate(563,31)"/>
<path d="M0,0 L1,0 L1,241 L-35,241 L-32,218 L-23,154 L-16,106 L-12,76 L-7,43 L-3,13 Z " fill="#000000" transform="translate(1376,332)"/>
</svg>
