<?xml version="1.0" encoding="UTF-8"?>
<!-- Generator: visioncortex VTracer 0.6.12 -->
<svg version="1.1" xmlns="http://www.w3.org/2000/svg" width="1302" height="1017">
<path d="M0,0 L7,1 L13,8 L14,14 L12,23 L4,33 L-3,37 L-8,36 L-14,31 L-15,21 L-10,9 L-2,1 Z " fill="#000000" transform="translate(432,37)"/>
<path d="M0,0 L5,2 L9,9 L10,20 L16,29 L19,35 L23,43 L24,52 L18,63 L14,68 L11,74 L2,88 L-5,97 L-11,107 L-20,118 L-28,124 L-33,124 L-38,118 L-41,112 L-43,104 L-42,98 L-42,89 L-48,78 L-49,71 L-46,62 L-39,49 L-31,37 L-26,28 L-15,14 L-8,5 L-3,1 Z " fill="#000000" transform="translate(371,42)"/>
<path d="M0,0 L6,0 L10,4 L11,9 L9,14 L4,18 L-1,17 L-4,14 L-5,5 Z " fill="#000000" transform="translate(505,51)"/>
<path d="M0,0 L6,1 L11,5 L14,9 L25,10 L30,13 L30,26 L28,30 L21,35 L16,35 L8,28 L6,24 L-5,21 L-10,15 L-9,8 L-5,3 Z " fill="#000000" transform="translate(529,63)"/>
<path d="M0,0 L7,1 L14,9 L15,22 L17,27 L9,26 L-2,38 L-11,42 L-16,41 L-21,37 L-21,26 L-15,14 L-8,5 Z " fill="#000000" transform="translate(463,66)"/>
<path d="M0,0 L9,0 L18,1 L33,9 L35,13 L39,15 L48,23 L55,32 L65,45 L69,51 L78,61 L89,75 L97,83 L103,92 L116,106 L123,114 L133,125 L137,131 L142,135 L150,145 L154,150 L155,159 L152,167 L144,174 L142,175 L134,175 L125,170 L118,161 L112,157 L102,148 L94,141 L84,132 L79,127 L76,128 L84,139 L97,153 L104,162 L109,166 L118,177 L123,185 L123,192 L119,201 L110,207 L102,207 L93,201 L85,194 L80,190 L73,182 L63,174 L51,162 L46,157 L40,152 L35,147 L26,139 L19,130 L6,118 L1,117 L1,122 L7,130 L14,138 L25,151 L30,155 L36,163 L50,180 L61,192 L66,197 L76,208 L84,219 L87,226 L86,231 L79,240 L73,244 L65,244 L51,235 L41,226 L35,221 L30,216 L22,209 L11,199 L6,194 L1,188 L-10,179 L-20,170 L-24,165 L-32,158 L-38,153 L-43,154 L-43,160 L-36,170 L-31,176 L-25,181 L-16,192 L-11,196 L-7,202 L-3,205 L0,210 L7,218 L15,225 L24,238 L32,244 L39,251 L44,256 L46,261 L46,270 L40,279 L34,284 L24,283 L15,277 L10,272 L-2,261 L-7,256 L-13,251 L-20,243 L-29,233 L-37,226 L-43,221 L-46,217 L-51,214 L-60,205 L-68,198 L-74,193 L-79,192 L-82,194 L-81,200 L-72,209 L-65,217 L-57,226 L-53,231 L-47,235 L-40,243 L-36,248 L-31,253 L-22,262 L-14,269 L-2,282 L7,291 L9,294 L10,304 L7,311 L-4,320 L-14,319 L-28,309 L-35,301 L-41,297 L-48,289 L-53,284 L-67,272 L-80,259 L-91,250 L-101,239 L-106,235 L-110,235 L-108,240 L-102,248 L-94,255 L-84,267 L-80,272 L-75,275 L-68,283 L-53,298 L-46,307 L-38,313 L-31,321 L-27,327 L-24,335 L-24,340 L-34,351 L-38,353 L-48,353 L-57,348 L-69,336 L-74,331 L-85,321 L-94,315 L-105,303 L-110,298 L-118,292 L-123,288 L-128,282 L-137,275 L-141,274 L-138,281 L-133,288 L-127,293 L-118,308 L-104,323 L-99,329 L-92,335 L-89,340 L-78,350 L-71,360 L-65,367 L-62,372 L-62,378 L-66,384 L-74,389 L-76,390 L-84,390 L-93,384 L-98,380 L-105,372 L-111,367 L-117,360 L-125,353 L-131,346 L-139,339 L-145,334 L-152,326 L-162,318 L-167,313 L-177,303 L-185,299 L-187,300 L-186,307 L-179,318 L-167,331 L-161,336 L-154,344 L-149,349 L-140,356 L-133,364 L-128,369 L-120,377 L-115,384 L-108,390 L-101,398 L-97,405 L-98,413 L-101,418 L-109,424 L-119,424 L-125,422 L-135,412 L-143,405 L-145,401 L-149,399 L-158,391 L-169,382 L-176,374 L-185,366 L-189,363 L-189,361 L-194,359 L-205,348 L-214,342 L-217,340 L-221,340 L-221,345 L-215,353 L-207,360 L-200,369 L-193,375 L-189,380 L-182,386 L-177,391 L-173,396 L-165,403 L-159,410 L-151,415 L-144,423 L-134,433 L-132,438 L-132,445 L-136,452 L-144,457 L-151,457 L-163,451 L-170,445 L-173,440 L-184,431 L-195,422 L-209,408 L-214,403 L-226,392 L-236,384 L-242,377 L-251,372 L-254,373 L-253,378 L-245,387 L-240,392 L-232,400 L-225,408 L-216,416 L-211,421 L-204,428 L-199,433 L-194,438 L-184,448 L-177,454 L-170,462 L-165,468 L-165,477 L-169,483 L-175,489 L-184,490 L-197,482 L-207,473 L-214,466 L-219,461 L-229,452 L-242,440 L-251,429 L-256,424 L-265,415 L-277,406 L-277,404 L-282,402 L-289,401 L-291,404 L-290,410 L-283,418 L-272,429 L-264,436 L-258,441 L-253,446 L-253,448 L-250,449 L-247,453 L-247,455 L-243,457 L-233,468 L-233,470 L-229,472 L-215,484 L-208,492 L-201,500 L-200,505 L-200,513 L-206,521 L-211,524 L-224,522 L-237,510 L-251,498 L-260,491 L-267,483 L-272,478 L-277,473 L-287,465 L-289,461 L-292,460 L-293,456 L-297,456 L-297,459 L-293,463 L-289,468 L-281,475 L-276,482 L-268,489 L-255,502 L-253,503 L-253,505 L-249,507 L-244,512 L-236,519 L-228,531 L-228,540 L-237,550 L-246,556 L-252,557 L-261,552 L-279,534 L-286,526 L-297,516 L-301,511 L-311,503 L-323,492 L-329,487 L-335,480 L-346,473 L-351,472 L-351,478 L-344,487 L-334,497 L-328,504 L-323,509 L-318,514 L-303,529 L-294,540 L-290,545 L-279,554 L-273,562 L-269,568 L-268,575 L-271,581 L-275,586 L-282,591 L-290,590 L-295,587 L-305,579 L-313,572 L-323,561 L-331,555 L-340,546 L-347,542 L-353,535 L-353,533 L-356,533 L-356,537 L-351,542 L-346,547 L-334,561 L-329,567 L-324,572 L-312,584 L-308,590 L-302,599 L-300,603 L-300,612 L-307,620 L-315,626 L-321,626 L-330,620 L-352,598 L-360,591 L-367,585 L-374,577 L-392,559 L-398,552 L-407,545 L-412,538 L-418,536 L-419,539 L-413,547 L-406,555 L-399,563 L-385,578 L-379,585 L-372,594 L-366,601 L-360,608 L-355,612 L-349,621 L-342,628 L-335,637 L-335,645 L-338,652 L-344,657 L-350,660 L-358,660 L-367,652 L-374,644 L-386,633 L-391,628 L-395,623 L-400,619 L-407,611 L-416,604 L-423,596 L-431,590 L-433,586 L-437,584 L-448,575 L-451,571 L-455,571 L-454,578 L-447,588 L-447,590 L-443,592 L-438,598 L-429,609 L-419,619 L-419,621 L-414,623 L-406,631 L-396,645 L-389,652 L-380,663 L-372,674 L-372,684 L-378,692 L-384,697 L-386,698 L-392,698 L-401,693 L-412,685 L-412,683 L-416,681 L-425,673 L-429,667 L-437,660 L-445,651 L-449,648 L-449,646 L-453,644 L-469,629 L-473,624 L-481,617 L-490,608 L-497,607 L-498,613 L-493,622 L-485,629 L-479,637 L-470,645 L-461,656 L-447,671 L-441,676 L-434,684 L-420,698 L-414,707 L-410,716 L-411,723 L-416,728 L-422,733 L-431,733 L-437,729 L-448,720 L-455,713 L-459,709 L-473,698 L-480,692 L-486,688 L-496,679 L-501,674 L-514,663 L-524,655 L-528,656 L-526,661 L-517,673 L-509,680 L-500,692 L-488,704 L-481,714 L-473,721 L-466,728 L-458,738 L-453,743 L-450,749 L-451,756 L-455,762 L-459,764 L-466,764 L-473,760 L-484,751 L-495,741 L-508,731 L-519,722 L-530,712 L-538,706 L-549,697 L-559,689 L-561,685 L-565,683 L-574,674 L-581,670 L-588,662 L-596,655 L-603,647 L-611,635 L-613,624 L-612,613 L-605,602 L-598,595 L-596,595 L-594,591 L-585,583 L-581,578 L-576,573 L-562,559 L-557,554 L-547,545 L-540,538 L-535,532 L-530,528 L-526,523 L-521,518 L-511,508 L-506,504 L-501,499 L-496,494 L-491,489 L-489,489 L-487,485 L-482,479 L-474,472 L-467,466 L-460,458 L-445,444 L-440,438 L-432,431 L-426,424 L-418,417 L-406,406 L-399,400 L-392,392 L-379,379 L-370,368 L-365,361 L-365,354 L-369,348 L-378,342 L-388,336 L-403,328 L-416,323 L-444,316 L-456,311 L-474,303 L-495,296 L-510,290 L-525,282 L-538,277 L-551,269 L-562,262 L-571,255 L-577,251 L-586,243 L-595,236 L-604,228 L-611,220 L-626,204 L-633,195 L-641,183 L-648,172 L-652,163 L-658,150 L-664,137 L-668,117 L-668,97 L-664,83 L-659,71 L-653,66 L-650,65 L-645,67 L-640,76 L-638,86 L-634,96 L-631,104 L-627,113 L-623,120 L-615,133 L-604,154 L-595,165 L-589,172 L-583,181 L-571,193 L-563,200 L-555,207 L-546,213 L-536,220 L-525,228 L-508,240 L-488,251 L-466,260 L-449,267 L-437,269 L-414,276 L-403,279 L-389,282 L-383,285 L-360,287 L-351,288 L-320,286 L-314,288 L-312,290 L-312,299 L-316,305 L-325,313 L-332,317 L-335,319 L-336,325 L-334,329 L-329,328 L-321,322 L-317,320 L-315,315 L-306,305 L-283,282 L-278,277 L-267,265 L-259,258 L-244,242 L-236,234 L-228,227 L-223,222 L-212,210 L-202,201 L-194,192 L-190,191 L-188,187 L-181,179 L-169,167 L-162,161 L-153,150 L-145,142 L-137,135 L-126,122 L-120,117 L-115,111 L-104,102 L-90,87 L-82,78 L-77,73 L-60,56 L-53,48 L-48,44 L-43,38 L-35,31 L-26,20 L-18,13 L-10,6 L-6,3 Z M-126,242 L-126,246 L-121,245 L-122,242 Z " fill="#000000" transform="translate(957,81)"/>
<path d="M0,0 L7,0 L14,6 L15,8 L15,15 L10,24 L5,28 L-3,28 L-10,24 L-12,20 L-11,11 L-8,6 L-2,1 Z " fill="#000000" transform="translate(573,86)"/>
<path d="M0,0 L6,0 L16,7 L17,10 L17,17 L13,27 L4,37 L-5,43 L-7,45 L-13,45 L-19,41 L-20,37 L-20,27 L-13,12 L-8,4 Z " fill="#000000" transform="translate(489,91)"/>
<path d="M0,0 L6,0 L11,5 L12,12 L8,20 L4,23 L-5,23 L-9,19 L-10,11 L-6,5 Z " fill="#000000" transform="translate(602,103)"/>
<path d="M0,0 L6,1 L14,8 L17,12 L20,19 L20,26 L17,34 L5,50 L1,56 L-6,66 L-13,75 L-19,83 L-29,98 L-38,108 L-43,109 L-48,106 L-55,97 L-57,94 L-58,89 L-58,80 L-52,68 L-43,54 L-34,43 L-30,37 L-19,19 L-11,9 L-6,4 Z " fill="#000000" transform="translate(403,108)"/>
<path d="M0,0 L6,0 L13,6 L15,9 L15,20 L8,33 L1,40 L-9,45 L-18,44 L-24,39 L-26,31 L-20,18 L-10,7 L-5,2 Z " fill="#000000" transform="translate(524,114)"/>
<path d="M0,0 L7,0 L11,5 L12,7 L12,13 L6,18 L0,19 L-5,16 L-7,12 L-6,6 L-1,1 Z " fill="#000000" transform="translate(621,124)"/>
<path d="M0,0 L9,0 L18,6 L22,11 L23,18 L18,24 L12,35 L2,44 L-3,47 L-15,47 L-20,42 L-23,38 L-24,34 L-24,26 L-20,18 L-13,10 L-2,1 Z " fill="#000000" transform="translate(555,137)"/>
<path d="M0,0 L6,0 L11,4 L14,11 L13,20 L9,25 L5,27 L-2,27 L-7,23 L-9,13 L-6,6 L-1,1 Z " fill="#000000" transform="translate(639,139)"/>
<path d="M0,0 L9,1 L15,5 L19,10 L19,21 L16,28 L6,43 L2,50 L-2,55 L-6,61 L-11,66 L-18,75 L-27,86 L-34,97 L-40,104 L-44,106 L-50,106 L-56,101 L-60,93 L-59,86 L-51,73 L-42,58 L-35,48 L-31,42 L-23,30 L-16,20 L-9,10 Z " fill="#000000" transform="translate(431,145)"/>
<path d="M0,0 L7,1 L15,5 L20,15 L19,21 L11,36 L-1,50 L-9,54 L-20,54 L-25,51 L-28,46 L-28,34 L-22,22 L-14,12 L-8,4 L-4,1 Z " fill="#000000" transform="translate(602,159)"/>
<path d="M0,0 L9,2 L16,8 L17,10 L17,18 L15,24 L7,36 L-1,47 L-8,58 L-14,67 L-18,73 L-31,93 L-37,101 L-44,107 L-48,109 L-55,108 L-62,102 L-65,97 L-65,88 L-60,77 L-54,68 L-51,63 L-47,57 L-40,45 L-36,40 L-28,30 L-25,24 L-17,14 L-9,4 L-4,1 Z " fill="#000000" transform="translate(466,173)"/>
<path d="M0,0 L6,0 L14,7 L18,15 L18,28 L24,26 L28,23 L36,23 L44,28 L48,35 L48,42 L43,54 L35,64 L26,71 L20,71 L11,65 L7,58 L5,48 L-1,49 L-7,53 L-14,55 L-21,55 L-26,50 L-28,46 L-28,37 L-25,28 L-18,17 L-2,1 Z " fill="#000000" transform="translate(638,179)"/>
<path d="M0,0 L6,0 L15,5 L19,9 L20,13 L20,22 L11,38 L4,49 L-9,67 L-19,83 L-26,94 L-35,105 L-44,111 L-50,110 L-59,105 L-64,101 L-66,92 L-62,83 L-57,75 L-46,58 L-33,40 L-30,36 L-26,28 L-16,13 L-8,4 Z " fill="#000000" transform="translate(505,200)"/>
<path d="M0,0 L11,1 L20,7 L25,13 L25,22 L19,32 L14,41 L8,49 L0,63 L-8,76 L-20,95 L-25,102 L-31,106 L-34,108 L-45,109 L-53,106 L-60,101 L-62,98 L-63,89 L-60,81 L-52,68 L-44,56 L-36,45 L-30,36 L-24,28 L-16,18 L-10,9 L-2,1 Z " fill="#000000" transform="translate(540,222)"/>
<path d="M0,0 L9,0 L19,5 L23,10 L24,18 L22,27 L12,43 L3,59 L-6,70 L-12,79 L-21,89 L-27,97 L-32,102 L-37,104 L-47,104 L-59,98 L-62,93 L-62,85 L-59,78 L-47,62 L-38,46 L-26,30 L-20,21 L-12,10 L-5,3 Z " fill="#000000" transform="translate(586,243)"/>
<path d="M0,0 L9,0 L20,4 L24,9 L25,12 L25,27 L28,27 L34,18 L41,11 L43,10 L49,10 L54,14 L55,16 L55,23 L50,33 L46,38 L40,47 L32,59 L27,66 L22,75 L15,83 L7,87 L1,86 L-2,82 L-2,74 L1,68 L2,62 L-3,64 L-11,76 L-17,83 L-23,90 L-31,94 L-37,95 L-49,94 L-55,89 L-56,83 L-52,70 L-46,62 L-42,53 L-31,40 L-18,19 L-12,12 L-6,3 Z " fill="#000000" transform="translate(634,262)"/>
<path d="M0,0 L8,1 L21,8 L32,15 L47,24 L58,31 L72,39 L81,46 L91,52 L100,57 L115,70 L123,77 L128,81 L134,85 L144,94 L152,102 L157,107 L166,116 L171,120 L176,125 L183,131 L188,136 L193,142 L201,149 L209,160 L213,165 L218,170 L222,175 L232,190 L240,200 L245,211 L246,216 L246,223 L240,230 L231,231 L222,224 L215,214 L204,196 L192,182 L181,170 L172,159 L164,152 L158,145 L153,142 L144,131 L133,121 L119,111 L113,107 L102,98 L92,91 L81,83 L73,78 L53,66 L39,57 L28,49 L19,43 L8,36 L0,30 L-9,24 L-13,16 L-12,10 L-6,3 Z " fill="#000000" transform="translate(847,531)"/>
<path d="M0,0 L6,1 L11,6 L20,17 L24,23 L24,25 L28,27 L38,42 L46,52 L57,65 L69,81 L80,93 L89,103 L98,114 L103,120 L112,127 L112,129 L115,130 L120,135 L128,142 L133,147 L147,159 L153,164 L153,166 L157,168 L168,175 L177,181 L188,188 L198,194 L207,200 L230,211 L238,215 L248,219 L255,223 L270,227 L282,231 L291,233 L299,240 L300,242 L300,249 L298,254 L295,257 L291,258 L268,257 L257,256 L247,253 L239,250 L229,247 L218,242 L208,239 L205,237 L205,235 L195,232 L189,229 L180,223 L171,219 L162,213 L150,205 L142,198 L125,187 L112,176 L107,172 L102,167 L87,153 L79,146 L53,120 L46,110 L39,103 L29,88 L26,83 L22,79 L15,67 L9,60 L0,48 L-6,39 L-12,32 L-15,24 L-15,12 L-11,6 L-6,2 Z " fill="#000000" transform="translate(775,598)"/>
<path d="M0,0 L82,1 L164,2 L236,2 L298,3 L343,3 L475,4 L519,4 L596,5 L616,5 L689,6 L796,6 L852,7 L897,7 L922,8 L930,7 L964,8 L1029,8 L1035,9 L1060,8 L1068,9 L1211,9 L1265,10 L1267,14 L1264,17 L1241,16 L1226,17 L1164,17 L1116,16 L1011,16 L974,15 L897,15 L877,14 L769,14 L658,13 L495,13 L440,12 L386,12 L326,11 L229,11 L188,10 L157,10 L151,9 L143,9 L137,8 L119,9 L111,10 L100,8 L65,9 L62,8 L6,8 L-4,7 L-4,1 Z " fill="#000000" transform="translate(4,965)"/>
<path d="M0,0 L3,1 L2,3 L-1,2 Z " fill="#000000" transform="translate(289,981)"/>
</svg>
