<?xml version="1.0" encoding="UTF-8"?>
<!-- Generator: visioncortex VTracer 0.6.12 -->
<svg version="1.1" xmlns="http://www.w3.org/2000/svg" width="693" height="720">
<path d="M0,0 L6,1 L20,16 L28,24 L35,32 L43,39 L52,47 L57,52 L68,65 L73,70 L78,74 L85,82 L95,93 L103,100 L112,110 L115,114 L115,119 L107,128 L102,133 L97,138 L91,143 L85,150 L80,154 L78,154 L76,158 L68,165 L61,173 L56,175 L54,179 L47,186 L42,191 L40,194 L40,199 L52,212 L52,214 L56,216 L62,223 L68,228 L72,233 L80,240 L90,250 L95,255 L100,260 L107,266 L111,270 L116,268 L121,263 L136,249 L145,241 L149,236 L157,229 L162,223 L170,216 L184,201 L186,198 L185,193 L182,190 L182,188 L178,186 L172,181 L165,173 L160,169 L151,158 L131,138 L129,135 L129,127 L134,120 L142,113 L153,101 L164,92 L177,79 L182,74 L189,67 L195,60 L203,53 L208,48 L215,41 L222,33 L233,22 L236,21 L244,28 L251,36 L256,41 L265,50 L276,59 L282,66 L287,71 L295,78 L300,83 L314,97 L319,101 L326,109 L338,119 L343,124 L348,130 L353,134 L360,142 L367,150 L372,155 L381,165 L388,171 L393,177 L401,184 L414,197 L419,203 L424,208 L432,215 L438,224 L442,228 L441,235 L430,246 L422,253 L412,262 L406,269 L398,276 L394,281 L386,288 L376,297 L366,307 L364,307 L362,311 L352,321 L347,326 L336,337 L331,337 L322,329 L314,322 L302,310 L297,304 L289,297 L283,290 L275,283 L270,281 L264,285 L257,292 L255,292 L253,296 L246,303 L238,310 L231,318 L223,325 L211,338 L203,345 L196,355 L197,360 L217,380 L222,385 L230,394 L238,401 L253,417 L263,428 L271,435 L281,446 L288,454 L298,463 L303,468 L303,470 L307,472 L312,476 L317,481 L322,486 L330,496 L333,498 L333,500 L337,502 L344,509 L349,514 L355,519 L355,521 L359,523 L364,528 L370,535 L378,542 L390,553 L397,559 L400,564 L400,569 L388,582 L378,590 L373,595 L363,606 L355,613 L349,621 L344,626 L338,631 L332,638 L322,646 L318,651 L313,651 L301,640 L296,636 L296,634 L292,632 L285,624 L277,617 L275,613 L272,612 L265,603 L260,598 L256,595 L256,593 L252,591 L236,575 L229,567 L223,560 L216,554 L211,548 L198,538 L191,530 L186,526 L179,518 L172,509 L162,501 L154,494 L147,486 L140,480 L133,472 L124,463 L116,456 L110,450 L110,448 L102,447 L94,455 L89,460 L76,473 L71,478 L63,485 L55,493 L48,501 L42,507 L40,507 L38,511 L24,524 L19,530 L14,535 L2,546 L-3,551 L-12,560 L-14,560 L-16,564 L-37,585 L-41,591 L-49,598 L-72,621 L-83,630 L-89,637 L-96,641 L-101,640 L-109,631 L-117,624 L-121,618 L-132,609 L-139,601 L-147,594 L-154,586 L-156,582 L-160,580 L-163,577 L-163,575 L-167,573 L-174,565 L-173,558 L-159,543 L-147,532 L-136,522 L-131,517 L-119,504 L-110,496 L-105,491 L-87,473 L-82,468 L-65,451 L-58,443 L-48,434 L-42,427 L-40,427 L-38,422 L-31,415 L-26,410 L-17,401 L-12,396 L-4,387 L3,382 L10,374 L17,368 L19,365 L18,360 L7,349 L0,343 L-5,336 L-13,329 L-21,322 L-28,314 L-42,300 L-49,292 L-52,290 L-57,291 L-64,298 L-72,305 L-78,313 L-84,317 L-90,325 L-103,338 L-110,344 L-117,352 L-128,363 L-133,368 L-138,373 L-145,380 L-152,388 L-157,393 L-167,402 L-174,410 L-180,411 L-181,409 L-181,370 L-182,333 L-181,306 L-182,291 L-182,248 L-183,227 L-183,188 L-179,182 L-171,174 L-166,169 L-159,162 L-151,155 L-145,148 L-140,143 L-133,138 L-130,133 L-124,129 L-117,121 L-110,114 L-106,110 L-102,106 L-97,101 L-82,86 L-80,83 L-78,83 L-76,79 L-66,70 L-59,63 L-52,55 L-40,42 L-33,34 L-28,29 L-12,13 L-5,5 Z " fill="#000000" transform="translate(219,36)"/>
</svg>
