<?xml version="1.0" encoding="UTF-8"?>
<!-- Generator: visioncortex VTracer 0.6.12 -->
<svg version="1.1" xmlns="http://www.w3.org/2000/svg" width="1152" height="1134">
<path d="M0,0 L14,0 L12,5 L12,34 L11,105 L10,129 L9,145 L9,170 L8,197 L8,253 L7,268 L7,289 L6,327 L6,347 L5,377 L6,386 L4,393 L5,405 L4,420 L4,450 L3,478 L2,524 L2,561 L1,575 L-1,652 L-1,673 L-2,698 L-3,758 L-3,793 L-5,858 L-5,890 L-6,917 L-7,1011 L-8,1025 L-8,1042 L-10,1043 L-10,481 L-9,475 L-8,445 L-7,349 L-6,297 L-5,253 L-3,151 L-1,73 L-1,13 Z " fill="#000000" transform="translate(10,0)"/>
<path d="M0,0 L5,0 L1,2 Z " fill="#000000" transform="translate(118,0)"/>
<path d="M0,0 L18,0 L16,2 L2,2 Z " fill="#000000" transform="translate(137,0)"/>
<path d="M0,0 L9,0 L8,2 L2,2 Z " fill="#000000" transform="translate(170,0)"/>
<path d="M0,0 L5,0 L5,1 L0,1 Z " fill="#000000" transform="translate(183,0)"/>
<path d="M0,0 L959,0 L959,18 L952,14 L901,14 L892,13 L857,13 L821,12 L770,12 L750,11 L744,12 L720,12 L702,11 L700,10 L691,10 L688,12 L676,11 L637,11 L626,10 L556,10 L548,9 L514,9 L506,8 L422,8 L415,7 L378,7 L360,6 L354,7 L351,6 L321,6 L280,5 L275,6 L267,5 L241,5 L233,4 L164,4 L147,5 L143,4 L103,3 L12,3 L2,2 Z " fill="#000000" transform="translate(193,0)"/>
<path d="M0,0 L31,0 L47,2 L70,3 L96,7 L124,13 L140,17 L156,22 L166,25 L178,29 L191,34 L203,39 L217,47 L225,53 L236,59 L243,65 L243,67 L248,69 L257,76 L267,86 L273,91 L280,101 L286,108 L293,121 L304,140 L308,147 L316,163 L324,181 L327,196 L329,211 L330,245 L331,249 L330,263 L327,279 L324,301 L320,313 L319,325 L316,332 L314,341 L310,349 L306,358 L301,366 L293,377 L288,385 L285,392 L279,400 L269,414 L262,419 L257,425 L252,430 L242,438 L230,447 L224,451 L217,457 L211,461 L201,468 L191,474 L180,478 L173,483 L172,486 L174,488 L184,487 L188,488 L205,489 L213,492 L224,495 L230,500 L233,508 L233,536 L232,554 L228,561 L223,565 L213,567 L203,568 L171,568 L162,570 L161,573 L170,593 L179,607 L183,615 L194,635 L200,645 L205,654 L211,664 L216,673 L220,679 L224,686 L227,691 L233,702 L236,706 L242,717 L250,731 L257,741 L263,750 L272,765 L280,779 L287,793 L294,804 L302,817 L308,828 L316,842 L322,852 L328,863 L332,869 L336,877 L342,887 L346,895 L354,908 L361,919 L366,928 L374,939 L379,947 L390,962 L395,968 L402,980 L405,983 L404,989 L369,1007 L348,1018 L341,1021 L338,1023 L333,1022 L328,1018 L317,997 L314,992 L308,984 L301,970 L295,960 L288,950 L281,938 L274,927 L270,919 L265,911 L252,888 L246,879 L238,864 L233,857 L230,851 L226,846 L217,830 L211,822 L206,812 L200,802 L193,792 L183,773 L176,761 L168,745 L163,736 L157,726 L153,718 L145,705 L137,691 L132,682 L128,677 L125,669 L118,658 L113,649 L103,630 L97,620 L90,609 L84,600 L78,589 L69,577 L66,575 L61,576 L46,576 L28,577 L17,578 L12,581 L6,588 L-7,607 L-16,617 L-23,627 L-29,637 L-36,644 L-43,655 L-51,666 L-55,674 L-65,689 L-74,699 L-83,711 L-88,717 L-93,723 L-97,729 L-104,738 L-116,752 L-123,762 L-128,768 L-140,786 L-145,793 L-148,798 L-153,804 L-160,814 L-170,827 L-176,835 L-184,846 L-192,856 L-202,869 L-210,880 L-220,894 L-227,902 L-236,914 L-242,923 L-250,934 L-259,945 L-267,956 L-275,968 L-285,980 L-289,986 L-296,995 L-302,1003 L-313,1016 L-315,1018 L-320,1018 L-325,1014 L-333,1008 L-333,1006 L-336,1005 L-342,998 L-350,992 L-352,988 L-356,986 L-368,975 L-373,970 L-374,965 L-368,957 L-360,946 L-351,936 L-344,928 L-336,918 L-329,908 L-323,901 L-310,883 L-300,871 L-290,858 L-283,850 L-277,842 L-271,834 L-262,822 L-253,812 L-249,806 L-240,796 L-233,786 L-225,775 L-215,762 L-208,751 L-199,740 L-191,727 L-183,716 L-177,706 L-170,696 L-157,679 L-149,668 L-141,657 L-135,650 L-132,645 L-123,633 L-117,625 L-110,615 L-101,605 L-92,593 L-86,583 L-86,578 L-100,579 L-132,579 L-140,574 L-144,568 L-145,560 L-146,548 L-145,534 L-145,526 L-143,521 L-142,512 L-137,507 L-133,505 L-121,503 L-107,503 L-98,500 L-98,498 L-111,493 L-131,486 L-140,481 L-149,475 L-159,466 L-166,462 L-181,452 L-191,442 L-199,436 L-212,424 L-219,415 L-226,405 L-232,395 L-242,376 L-250,359 L-255,347 L-263,323 L-266,308 L-271,278 L-272,259 L-270,244 L-268,213 L-265,201 L-262,186 L-259,173 L-256,163 L-248,147 L-243,139 L-239,131 L-230,118 L-224,110 L-219,104 L-209,91 L-204,89 L-202,85 L-195,77 L-183,68 L-175,62 L-164,53 L-151,45 L-135,37 L-126,32 L-108,24 L-93,18 L-81,15 L-64,12 L-51,7 L-36,3 Z M-3,72 L-33,75 L-48,80 L-66,84 L-82,92 L-90,94 L-104,101 L-114,106 L-124,113 L-124,115 L-129,117 L-135,121 L-142,127 L-150,134 L-155,139 L-163,148 L-172,163 L-178,176 L-181,185 L-184,190 L-187,200 L-194,220 L-197,239 L-197,269 L-194,287 L-191,300 L-187,308 L-184,318 L-180,326 L-175,339 L-169,350 L-161,364 L-148,381 L-143,385 L-138,390 L-130,397 L-119,405 L-105,414 L-97,418 L-90,423 L-81,427 L-72,429 L-58,434 L-44,436 L-28,436 L-23,434 L-10,433 L8,436 L14,439 L25,446 L30,458 L32,467 L32,477 L31,487 L31,496 L36,499 L44,498 L47,495 L47,464 L52,449 L57,443 L65,441 L80,440 L86,438 L100,436 L113,432 L126,427 L138,425 L150,420 L167,411 L181,401 L185,396 L193,389 L198,385 L204,378 L212,371 L216,366 L220,360 L226,351 L234,336 L242,322 L246,310 L251,292 L256,268 L256,223 L251,206 L245,191 L239,181 L231,165 L224,155 L215,144 L204,132 L196,125 L189,119 L180,113 L172,108 L161,102 L145,96 L132,92 L116,87 L98,83 L85,79 L80,78 L64,77 L34,73 L24,72 Z " fill="#000000" transform="translate(551,57)"/>
<path d="M0,0 L2,0 L2,10 L0,9 Z " fill="#000000" transform="translate(1150,100)"/>
<path d="M0,0 L2,0 L2,6 L0,5 Z " fill="#000000" transform="translate(1150,117)"/>
<path d="M0,0 L1,0 L1,553 L0,557 L0,586 L-1,633 L-2,715 L-2,731 L-3,736 L-3,764 L-4,829 L-5,971 L-6,991 L-22,991 L-19,987 L-18,983 L-17,935 L-15,903 L-15,869 L-14,802 L-13,778 L-12,707 L-11,611 L-10,587 L-11,579 L-10,569 L-9,534 L-9,508 L-7,439 L-8,426 L-7,388 L-7,368 L-6,340 L-6,295 L-5,195 L-4,145 L-3,119 L-2,40 L-2,6 Z " fill="#000000" transform="translate(1151,143)"/>
<path d="M0,0 L2,1 L2,17 L0,18 Z " fill="#000000" transform="translate(0,1054)"/>
<path d="M0,0 L3,0 L2,4 L0,3 Z " fill="#000000" transform="translate(849,1112)"/>
<path d="M0,0 L3,1 L36,2 L80,2 L139,3 L163,4 L194,4 L236,5 L283,5 L395,7 L408,8 L466,8 L486,9 L539,9 L561,10 L653,12 L701,12 L709,13 L745,13 L797,14 L824,14 L856,15 L921,15 L934,16 L946,16 L952,15 L974,15 L990,16 L991,18 L306,18 L296,16 L250,16 L135,15 L102,15 L99,14 L83,14 L81,13 L26,13 L0,12 Z " fill="#000000" transform="translate(0,1116)"/>
<path d="M0,0 L28,0 L28,2 L-2,2 Z " fill="#000000" transform="translate(1010,1132)"/>
<path d="M0,0 L5,0 L5,1 L0,1 Z " fill="#000000" transform="translate(1076,1133)"/>
</svg>
