<?xml version="1.0" encoding="UTF-8"?>
<!-- Generator: visioncortex VTracer 0.6.12 -->
<svg version="1.1" xmlns="http://www.w3.org/2000/svg" width="996" height="999">
<path d="M0,0 L226,0 L226,2 L238,3 L247,6 L263,10 L280,17 L294,21 L307,26 L322,33 L337,40 L354,48 L367,56 L375,60 L390,70 L401,77 L411,85 L416,88 L428,97 L431,100 L431,102 L436,104 L446,112 L454,119 L462,127 L470,134 L475,139 L482,145 L491,156 L503,169 L511,180 L518,188 L526,199 L530,205 L535,214 L539,220 L549,236 L553,241 L559,253 L565,264 L572,279 L578,290 L581,298 L584,303 L591,323 L599,346 L603,359 L605,364 L607,373 L610,387 L611,388 L611,609 L606,627 L598,656 L595,665 L588,684 L586,692 L578,708 L566,734 L557,749 L549,763 L542,774 L538,780 L535,783 L529,795 L517,811 L510,820 L503,828 L492,842 L490,842 L488,846 L477,858 L463,871 L455,878 L447,886 L439,892 L431,899 L423,905 L410,915 L400,922 L394,926 L384,932 L370,941 L354,950 L328,964 L310,971 L302,975 L281,982 L269,987 L247,993 L228,998 L226,999 L135,999 L135,997 L165,995 L176,993 L192,991 L212,987 L232,983 L256,976 L263,973 L273,971 L290,964 L307,957 L341,941 L355,933 L363,929 L371,924 L384,916 L389,912 L398,906 L407,899 L417,892 L429,883 L434,878 L443,870 L453,862 L460,854 L468,847 L482,832 L489,824 L498,813 L508,801 L518,787 L526,776 L533,765 L541,749 L551,732 L559,717 L562,710 L568,698 L572,687 L577,675 L582,660 L589,640 L596,610 L598,605 L600,592 L604,574 L604,566 L606,552 L608,521 L609,493 L608,485 L607,456 L603,426 L598,398 L594,382 L589,363 L580,334 L575,320 L565,298 L555,275 L551,269 L545,258 L532,234 L530,232 L527,225 L514,207 L501,190 L494,181 L487,172 L482,167 L478,162 L470,155 L468,152 L467,145 L456,142 L449,136 L444,131 L431,118 L415,106 L405,98 L393,89 L383,83 L374,77 L364,70 L348,62 L336,55 L312,44 L299,39 L283,33 L271,28 L255,24 L237,18 L217,14 L205,11 L165,5 L159,4 L146,4 L124,3 L102,3 L73,4 L55,6 L33,9 L2,15 L-15,20 L-26,22 L-33,25 L-46,30 L-56,33 L-68,38 L-79,42 L-91,48 L-104,53 L-118,61 L-133,69 L-142,75 L-161,87 L-171,94 L-182,102 L-198,114 L-203,118 L-211,125 L-221,134 L-226,139 L-242,154 L-247,159 L-255,169 L-261,174 L-268,183 L-277,194 L-283,202 L-291,213 L-297,222 L-304,233 L-313,246 L-321,261 L-328,275 L-333,283 L-337,293 L-345,312 L-351,327 L-356,340 L-360,346 L-361,357 L-368,384 L-372,400 L-378,437 L-381,462 L-382,477 L-384,485 L-385,485 L-385,389 L-383,384 L-381,374 L-377,361 L-373,344 L-368,331 L-363,318 L-359,309 L-356,300 L-353,295 L-351,289 L-345,276 L-338,262 L-331,248 L-325,239 L-322,236 L-319,229 L-311,218 L-305,207 L-301,202 L-293,192 L-280,176 L-273,167 L-266,159 L-259,151 L-242,134 L-234,127 L-220,113 L-213,107 L-202,99 L-188,88 L-175,79 L-164,71 L-153,64 L-141,57 L-129,51 L-120,46 L-114,42 L-95,33 L-83,28 L-66,21 L-52,16 L-43,13 L-21,6 Z " fill="#000000" transform="translate(385,0)"/>
<path d="M0,0 L3,1 L2,4 L-1,3 Z " fill="#000000" transform="translate(32,124)"/>
<path d="M0,0 L7,1 L10,5 L13,118 L14,142 L14,174 L15,180 L17,257 L20,348 L20,401 L17,403 L10,404 L-21,407 L-31,409 L-56,412 L-79,416 L-99,420 L-113,422 L-122,425 L-131,427 L-148,432 L-163,435 L-170,438 L-182,441 L-199,448 L-200,453 L-193,457 L-186,466 L-179,475 L-173,486 L-170,495 L-168,500 L-167,511 L-167,520 L-171,540 L-175,548 L-178,554 L-187,565 L-195,572 L-204,579 L-209,583 L-208,587 L-198,593 L-189,600 L-177,611 L-168,626 L-163,639 L-160,652 L-160,672 L-163,685 L-170,702 L-176,711 L-189,725 L-197,731 L-211,738 L-218,740 L-230,743 L-252,743 L-273,737 L-282,732 L-289,727 L-294,724 L-304,715 L-310,706 L-318,690 L-322,680 L-323,679 L-329,679 L-340,687 L-352,693 L-359,696 L-375,700 L-385,700 L-391,701 L-406,699 L-419,695 L-428,691 L-431,688 L-443,682 L-458,667 L-465,657 L-473,641 L-477,625 L-477,598 L-473,582 L-468,569 L-467,564 L-477,566 L-501,573 L-519,577 L-526,580 L-541,583 L-545,585 L-579,592 L-585,594 L-594,593 L-605,596 L-621,598 L-630,599 L-634,600 L-647,601 L-652,603 L-681,605 L-710,606 L-730,607 L-742,608 L-748,605 L-750,601 L-750,593 L-749,588 L-750,583 L-751,544 L-754,433 L-754,414 L-755,365 L-757,303 L-758,246 L-758,211 L-755,206 L-749,204 L-721,203 L-685,200 L-663,197 L-637,193 L-619,190 L-602,187 L-585,183 L-571,180 L-557,176 L-548,173 L-541,173 L-530,169 L-510,163 L-502,159 L-485,155 L-477,151 L-469,148 L-448,140 L-435,135 L-423,130 L-407,123 L-391,115 L-370,105 L-350,94 L-340,89 L-317,78 L-302,72 L-290,67 L-265,56 L-233,45 L-224,43 L-208,37 L-196,34 L-190,32 L-173,27 L-162,26 L-154,23 L-137,19 L-130,18 L-128,16 L-112,14 L-86,9 L-67,7 L-64,6 L-23,2 L-16,2 Z M-263,160 L-281,161 L-290,165 L-299,172 L-306,180 L-313,191 L-318,201 L-324,219 L-327,237 L-330,269 L-329,284 L-328,289 L-327,305 L-323,324 L-320,335 L-313,351 L-309,359 L-303,367 L-295,377 L-286,383 L-278,386 L-271,387 L-252,387 L-241,381 L-231,372 L-224,362 L-217,350 L-210,332 L-207,314 L-204,279 L-204,263 L-206,253 L-207,239 L-213,216 L-220,198 L-226,186 L-234,176 L-245,165 L-250,162 Z M-408,214 L-423,216 L-434,222 L-444,232 L-453,247 L-460,267 L-462,272 L-465,286 L-467,314 L-467,337 L-464,364 L-459,384 L-457,388 L-455,396 L-446,413 L-438,424 L-433,429 L-425,435 L-417,439 L-400,440 L-394,441 L-382,436 L-373,430 L-364,420 L-356,407 L-350,391 L-347,381 L-345,371 L-342,343 L-342,318 L-345,297 L-348,280 L-355,258 L-359,249 L-371,229 L-378,222 L-392,216 L-400,214 Z M-504,248 L-517,253 L-522,259 L-528,270 L-536,281 L-543,288 L-551,294 L-562,300 L-565,305 L-565,313 L-560,316 L-553,320 L-551,320 L-549,325 L-547,334 L-547,354 L-546,392 L-546,478 L-550,485 L-554,490 L-553,495 L-547,495 L-534,490 L-522,486 L-506,479 L-497,476 L-489,473 L-481,467 L-482,463 L-489,455 L-491,444 L-492,403 L-494,329 L-495,275 L-496,251 L-499,248 Z M-250,492 L-250,494 L-259,495 L-264,505 L-263,509 L-262,510 L-254,511 L-249,517 L-242,531 L-240,540 L-234,541 L-223,535 L-220,532 L-221,526 L-226,523 L-233,513 L-239,503 L-243,495 L-246,492 Z M-315,493 L-344,508 L-365,519 L-367,522 L-366,526 L-357,530 L-345,535 L-336,540 L-326,549 L-319,557 L-312,566 L-304,583 L-301,592 L-299,600 L-294,601 L-286,595 L-272,588 L-270,586 L-271,581 L-282,573 L-290,567 L-297,558 L-304,548 L-309,533 L-311,524 L-311,513 L-309,495 L-311,493 Z M-384,570 L-384,572 L-381,572 L-381,570 Z M-409,576 L-411,578 L-413,587 L-421,604 L-426,609 L-428,614 L-430,619 L-428,623 L-422,627 L-417,629 L-408,630 L-404,637 L-397,641 L-390,640 L-380,636 L-372,629 L-365,615 L-363,607 L-363,600 L-367,591 L-376,586 L-383,586 L-390,589 L-394,589 L-393,579 L-397,576 Z M-243,630 L-259,633 L-264,636 L-265,638 L-265,656 L-262,660 L-242,660 L-237,663 L-235,666 L-234,673 L-237,679 L-237,681 L-241,680 L-240,676 L-240,668 L-244,664 L-247,663 L-254,663 L-261,668 L-262,671 L-262,680 L-260,687 L-253,695 L-244,699 L-233,699 L-224,694 L-215,685 L-212,677 L-212,667 L-215,658 L-220,653 L-223,651 L-232,650 L-230,646 L-226,642 L-225,633 L-227,630 Z " fill="#000000" transform="translate(834,147)"/>
<path d="M0,0 L5,1 L8,4 L9,11 L11,71 L13,155 L14,196 L12,209 L9,212 L2,211 L-1,204 L-2,143 L-2,112 L-3,107 L-5,30 L-5,8 L-2,2 Z " fill="#000000" transform="translate(562,315)"/>
<path d="M0,0 L7,1 L10,4 L12,14 L14,101 L15,120 L16,155 L17,190 L17,206 L15,213 L12,215 L7,215 L3,209 L1,200 L0,140 L-1,105 L-3,33 L-3,13 L-4,10 L-4,3 Z " fill="#000000" transform="translate(422,366)"/>
<path d="M0,0 L3,3 L3,24 L4,47 L5,50 L7,68 L10,82 L13,106 L15,112 L18,128 L22,142 L26,155 L32,172 L38,189 L43,201 L49,216 L57,231 L62,240 L70,255 L75,261 L81,272 L87,281 L93,292 L104,306 L111,315 L122,328 L129,336 L138,347 L145,355 L150,360 L165,375 L173,382 L186,393 L200,404 L213,414 L221,419 L226,422 L233,427 L238,430 L253,439 L264,445 L274,451 L290,459 L298,463 L314,469 L327,475 L344,480 L362,486 L367,488 L383,491 L389,493 L405,495 L421,499 L431,500 L433,501 L457,503 L479,504 L480,506 L384,506 L381,504 L368,502 L355,498 L343,495 L320,487 L309,483 L293,476 L273,467 L252,455 L243,450 L233,444 L222,437 L215,432 L208,428 L191,415 L178,405 L169,397 L164,392 L156,386 L144,375 L139,369 L128,360 L125,357 L125,355 L123,355 L118,348 L113,343 L101,329 L92,317 L79,298 L67,282 L60,269 L54,259 L50,252 L42,237 L34,220 L30,212 L25,201 L17,181 L10,158 L6,143 L3,132 L1,122 L0,121 Z " fill="#000000" transform="translate(0,493)"/>
<path d="M0,0 L4,1 L3,6 L-6,22 L-13,33 L-17,34 L-18,30 L-13,22 L-7,11 L-2,2 Z " fill="#000000" transform="translate(456,740)"/>
<path d="M0,0 L7,0 L6,2 L0,3 Z " fill="#000000" transform="translate(589,796)"/>
<path d="M0,0 L4,1 Z " fill="#000000" transform="translate(491,998)"/>
</svg>
