<?xml version="1.0" encoding="UTF-8"?>
<!-- Generator: visioncortex VTracer 0.6.12 -->
<svg version="1.1" xmlns="http://www.w3.org/2000/svg" width="1113" height="1308">
<path d="M0,0 L868,0 L866,2 L842,3 L753,4 L723,5 L707,5 L620,7 L566,8 L474,10 L443,10 L397,12 L382,12 L377,10 L372,11 L370,12 L258,15 L234,15 L203,16 L197,14 L194,16 L177,16 L118,18 L93,18 L27,19 L0,19 Z " fill="#000000" transform="translate(0,0)"/>
<path d="M0,0 L15,0 L14,2 L0,1 Z " fill="#000000" transform="translate(876,0)"/>
<path d="M0,0 L46,0 L82,4 L98,10 L113,16 L127,25 L137,32 L149,43 L159,53 L169,67 L175,77 L181,90 L186,102 L190,117 L193,147 L194,256 L195,271 L195,341 L196,369 L197,468 L198,534 L199,593 L200,664 L202,755 L202,790 L203,839 L204,868 L202,899 L197,920 L191,936 L182,953 L172,967 L157,983 L146,993 L127,1005 L112,1012 L102,1016 L89,1020 L80,1021 L51,1024 L15,1024 L-34,1025 L-44,1025 L-58,1026 L-86,1026 L-126,1027 L-150,1028 L-162,1028 L-168,1029 L-194,1029 L-205,1030 L-253,1030 L-268,1031 L-340,1032 L-386,1033 L-427,1033 L-473,1034 L-497,1035 L-528,1035 L-541,1036 L-554,1036 L-565,1037 L-573,1036 L-594,1037 L-617,1037 L-651,1038 L-673,1038 L-705,1036 L-722,1032 L-743,1024 L-754,1018 L-764,1012 L-772,1006 L-778,1001 L-783,996 L-794,985 L-806,968 L-814,952 L-819,941 L-823,929 L-827,909 L-829,881 L-829,852 L-830,796 L-831,716 L-831,689 L-832,662 L-832,635 L-833,594 L-834,468 L-835,385 L-837,295 L-837,269 L-838,228 L-838,219 L-839,210 L-839,150 L-835,125 L-829,108 L-823,94 L-816,84 L-812,76 L-801,64 L-792,54 L-784,47 L-774,40 L-765,34 L-747,26 L-741,23 L-720,18 L-703,16 L-657,15 L-638,15 L-631,14 L-583,14 L-575,13 L-497,11 L-424,9 L-404,9 L-394,8 L-359,7 L-320,7 L-285,6 L-255,6 L-251,5 L-228,5 L-182,4 L-158,3 L-136,3 L-114,2 L-96,2 L-80,1 Z M-18,11 L-67,13 L-78,13 L-88,12 L-93,13 L-121,14 L-139,14 L-182,16 L-203,16 L-215,17 L-253,18 L-364,21 L-372,21 L-378,20 L-428,22 L-440,22 L-450,23 L-485,23 L-546,24 L-592,25 L-614,26 L-642,26 L-687,27 L-713,28 L-725,31 L-740,36 L-763,46 L-774,54 L-783,61 L-788,65 L-793,70 L-801,80 L-808,90 L-812,98 L-818,110 L-825,128 L-829,153 L-830,204 L-829,218 L-829,240 L-828,278 L-827,372 L-826,421 L-825,441 L-824,511 L-823,544 L-823,558 L-822,576 L-822,600 L-821,671 L-821,689 L-820,721 L-820,732 L-819,746 L-819,765 L-817,891 L-815,908 L-813,914 L-811,925 L-808,935 L-803,949 L-793,965 L-789,971 L-780,982 L-772,990 L-767,995 L-757,1002 L-744,1010 L-726,1018 L-710,1022 L-703,1024 L-689,1026 L-675,1026 L-666,1027 L-638,1027 L-632,1026 L-591,1025 L-575,1025 L-533,1024 L-481,1023 L-467,1023 L-436,1022 L-423,1022 L-398,1021 L-340,1020 L-310,1020 L-220,1018 L-201,1018 L-120,1016 L-96,1016 L-63,1015 L-41,1014 L-19,1014 L9,1013 L60,1012 L79,1009 L89,1006 L111,999 L131,988 L141,979 L150,972 L150,970 L154,968 L161,960 L170,947 L175,939 L184,918 L187,908 L190,886 L191,832 L189,709 L189,669 L188,629 L188,601 L186,487 L186,467 L185,450 L185,415 L184,311 L184,278 L183,256 L182,180 L181,145 L178,123 L173,103 L165,84 L161,79 L156,70 L142,53 L134,46 L118,34 L102,26 L85,19 L78,17 L66,15 L61,13 L55,12 L17,11 L0,12 L-9,11 Z " fill="#000000" transform="translate(875,77)"/>
<path d="M0,0 L7,0 L12,4 L19,15 L26,26 L34,42 L40,52 L47,62 L51,70 L55,75 L61,87 L66,95 L74,108 L81,119 L87,130 L97,148 L108,164 L114,175 L128,200 L136,215 L145,230 L158,252 L168,269 L174,279 L183,296 L187,304 L193,312 L201,327 L207,337 L210,346 L210,352 L206,357 L196,364 L180,373 L162,384 L158,387 L153,390 L141,397 L132,403 L122,409 L120,409 L118,415 L118,422 L124,433 L132,448 L135,456 L138,463 L141,482 L141,494 L137,510 L133,520 L126,533 L117,543 L110,548 L104,556 L97,562 L92,565 L78,570 L64,572 L60,573 L40,570 L31,567 L19,563 L7,557 L-5,546 L-12,538 L-24,520 L-30,508 L-33,505 L-39,505 L-52,513 L-63,517 L-74,523 L-87,531 L-96,536 L-107,543 L-124,553 L-140,564 L-146,571 L-145,575 L-143,576 L-104,579 L-83,586 L-73,591 L-65,596 L-58,600 L-43,614 L-36,622 L-30,631 L-22,649 L-18,660 L-15,678 L-15,695 L-18,716 L-25,735 L-32,746 L-35,751 L-46,764 L-53,771 L-62,777 L-68,781 L-70,781 L-71,784 L-80,787 L-86,790 L-106,795 L-137,795 L-154,792 L-167,786 L-183,778 L-195,767 L-206,755 L-216,742 L-221,729 L-229,709 L-229,707 L-235,705 L-244,705 L-256,709 L-267,710 L-300,710 L-318,707 L-342,699 L-350,694 L-362,694 L-385,706 L-396,712 L-401,710 L-406,705 L-409,700 L-419,682 L-423,676 L-431,660 L-441,646 L-451,628 L-457,619 L-465,605 L-469,598 L-480,578 L-485,568 L-492,554 L-498,547 L-503,538 L-510,528 L-517,514 L-523,504 L-528,497 L-533,486 L-542,471 L-551,455 L-558,444 L-563,434 L-572,419 L-583,398 L-591,385 L-597,376 L-600,370 L-600,361 L-595,356 L-589,351 L-581,347 L-570,340 L-560,333 L-542,323 L-524,313 L-518,309 L-509,304 L-504,300 L-493,294 L-480,286 L-466,277 L-460,273 L-448,267 L-438,260 L-421,251 L-413,245 L-400,238 L-390,232 L-376,223 L-365,217 L-351,208 L-337,199 L-332,195 L-320,189 L-310,184 L-300,177 L-290,171 L-281,166 L-268,158 L-254,150 L-245,145 L-236,139 L-223,131 L-213,125 L-203,118 L-182,107 L-173,101 L-165,96 L-141,82 L-122,71 L-111,65 L-96,56 L-87,50 L-79,45 L-57,33 L-49,28 L-34,18 L-24,13 L-13,6 L-9,3 Z M-8,24 L-17,28 L-31,36 L-45,45 L-52,50 L-64,56 L-72,61 L-77,65 L-87,70 L-103,81 L-124,93 L-136,100 L-147,106 L-160,114 L-169,119 L-173,122 L-181,126 L-193,134 L-202,140 L-213,146 L-236,160 L-241,164 L-254,172 L-271,182 L-289,192 L-307,202 L-316,208 L-329,215 L-344,224 L-354,230 L-366,237 L-371,240 L-379,245 L-393,254 L-402,259 L-406,262 L-419,268 L-433,277 L-453,289 L-462,296 L-478,304 L-492,312 L-503,319 L-526,332 L-545,344 L-559,352 L-572,362 L-573,363 L-573,374 L-567,386 L-556,404 L-550,416 L-547,421 L-540,433 L-534,444 L-527,456 L-518,472 L-508,487 L-501,500 L-490,518 L-485,528 L-481,533 L-474,546 L-468,555 L-463,565 L-459,572 L-454,579 L-449,588 L-443,598 L-433,615 L-429,623 L-419,638 L-412,650 L-405,664 L-396,678 L-391,681 L-385,681 L-382,676 L-383,670 L-387,665 L-395,654 L-404,638 L-409,626 L-414,609 L-417,590 L-423,574 L-428,564 L-436,549 L-443,539 L-450,525 L-453,521 L-459,509 L-464,500 L-472,488 L-476,482 L-482,471 L-487,463 L-501,439 L-507,430 L-511,422 L-515,414 L-519,409 L-525,399 L-530,391 L-537,376 L-537,367 L-530,359 L-515,351 L-507,346 L-491,338 L-486,334 L-473,326 L-463,320 L-449,312 L-438,305 L-425,298 L-413,290 L-404,284 L-394,277 L-394,275 L-389,273 L-381,268 L-356,253 L-346,247 L-328,239 L-320,233 L-312,231 L-298,222 L-284,214 L-275,208 L-266,203 L-256,197 L-250,193 L-245,189 L-227,178 L-208,168 L-200,163 L-194,160 L-186,154 L-172,145 L-162,140 L-157,136 L-149,132 L-139,126 L-126,119 L-111,111 L-101,104 L-86,95 L-68,84 L-61,79 L-47,72 L-38,66 L-24,59 L-17,54 L-11,53 L-3,60 L2,68 L13,86 L25,107 L32,118 L37,127 L50,150 L54,156 L62,170 L68,181 L78,198 L81,204 L86,211 L89,220 L94,224 L100,236 L108,250 L116,262 L122,274 L130,287 L137,298 L142,308 L149,317 L153,328 L153,336 L149,343 L135,352 L124,358 L119,362 L97,375 L84,385 L82,390 L82,395 L87,399 L95,398 L111,390 L124,382 L138,374 L155,365 L179,349 L182,344 L182,337 L178,328 L166,306 L159,296 L148,276 L139,260 L131,247 L123,231 L118,222 L110,208 L102,194 L89,173 L80,158 L73,146 L68,136 L60,123 L48,103 L38,86 L27,69 L17,52 L13,44 L8,34 L1,26 L-3,24 Z M-53,144 L-63,145 L-76,150 L-88,154 L-103,162 L-112,170 L-121,182 L-128,196 L-134,213 L-136,237 L-134,257 L-131,271 L-123,295 L-113,314 L-105,326 L-96,337 L-89,345 L-79,353 L-65,360 L-55,365 L-43,368 L-40,369 L-14,370 L3,364 L11,362 L25,351 L30,346 L41,334 L48,319 L53,305 L54,300 L54,270 L51,252 L49,248 L47,239 L39,219 L33,208 L23,193 L15,183 L1,169 L-4,164 L-15,156 L-25,151 L-38,146 L-44,144 Z M-231,254 L-244,256 L-255,260 L-265,262 L-280,271 L-291,280 L-300,289 L-305,298 L-312,312 L-316,330 L-317,348 L-314,370 L-311,386 L-302,410 L-293,425 L-286,435 L-277,441 L-268,443 L-253,445 L-240,450 L-227,455 L-217,462 L-204,469 L-198,474 L-192,476 L-180,476 L-166,471 L-161,467 L-155,463 L-145,455 L-136,446 L-130,436 L-125,422 L-123,410 L-123,394 L-126,372 L-128,367 L-130,358 L-140,335 L-143,328 L-146,322 L-155,305 L-166,292 L-173,284 L-182,274 L-192,267 L-195,264 L-213,256 L-221,254 Z M-390,344 L-395,349 L-400,355 L-413,372 L-419,381 L-430,396 L-440,412 L-443,418 L-443,427 L-440,432 L-430,439 L-426,440 L-418,435 L-409,424 L-403,423 L-396,429 L-387,444 L-381,454 L-377,462 L-372,467 L-367,468 L-354,461 L-349,457 L-337,451 L-333,445 L-333,438 L-337,425 L-345,412 L-356,393 L-361,383 L-369,367 L-378,351 L-383,345 Z M48,450 L42,454 L40,459 L41,464 L43,502 L46,513 L50,516 L55,516 L60,512 L61,491 L57,456 L53,450 Z M-40,458 L-57,466 L-78,478 L-91,486 L-102,492 L-116,501 L-121,504 L-133,510 L-144,517 L-152,523 L-156,529 L-156,538 L-153,541 L-147,541 L-130,532 L-124,529 L-110,521 L-98,514 L-79,503 L-70,498 L-64,493 L-50,486 L-36,473 L-33,468 L-33,459 L-34,458 Z M-289,461 L-304,463 L-320,466 L-336,471 L-341,474 L-350,480 L-358,486 L-366,493 L-375,504 L-384,516 L-390,527 L-394,537 L-396,542 L-398,552 L-400,560 L-401,579 L-400,584 L-399,599 L-396,608 L-393,619 L-388,629 L-384,637 L-377,648 L-367,660 L-362,666 L-352,672 L-349,678 L-340,679 L-330,684 L-312,690 L-292,693 L-274,693 L-263,692 L-259,690 L-249,688 L-234,680 L-228,672 L-226,661 L-216,634 L-211,625 L-204,616 L-199,610 L-191,603 L-181,596 L-173,586 L-172,583 L-172,566 L-177,543 L-183,528 L-191,514 L-194,507 L-203,497 L-208,492 L-217,483 L-229,476 L-245,468 L-255,465 L-265,463 L-272,461 Z M-108,642 L-120,646 L-128,655 L-132,663 L-135,675 L-135,700 L-131,711 L-124,722 L-119,727 L-113,730 L-103,732 L-91,726 L-84,719 L-76,703 L-74,691 L-74,682 L-76,668 L-82,656 L-90,647 L-97,642 Z M-160,649 L-166,653 L-168,656 L-166,665 L-164,673 L-164,681 L-165,685 L-165,694 L-164,697 L-163,715 L-161,723 L-156,725 L-151,722 L-149,718 L-147,686 L-148,662 L-150,653 L-154,649 Z " fill="#000000" transform="translate(729,186)"/>
<path d="M0,0 L12,0 L20,4 L30,15 L38,31 L45,42 L55,57 L60,65 L66,77 L74,90 L80,101 L86,110 L93,124 L103,143 L104,155 L102,164 L96,171 L85,176 L73,178 L63,175 L54,166 L41,141 L37,135 L31,124 L22,107 L18,100 L12,89 L-1,67 L-6,59 L-10,51 L-16,42 L-19,30 L-19,19 L-15,11 L-10,5 Z " fill="#000000" transform="translate(647,356)"/>
<path d="M0,0 L7,0 L17,5 L24,13 L30,21 L34,29 L47,51 L57,68 L66,82 L70,92 L75,101 L83,114 L89,125 L95,135 L99,145 L99,153 L95,163 L92,168 L82,174 L77,175 L68,175 L58,171 L51,165 L42,149 L35,136 L27,122 L15,103 L9,94 L5,84 L-5,67 L-11,57 L-18,43 L-21,35 L-22,24 L-20,17 L-16,10 L-9,4 Z " fill="#000000" transform="translate(471,467)"/>
<path d="M0,0 L40,2 L47,6 L48,8 L48,18 L42,23 L40,24 L19,25 L15,26 L14,31 L17,34 L23,37 L33,40 L43,46 L51,52 L57,60 L62,70 L64,78 L64,95 L62,109 L55,123 L46,133 L36,141 L18,147 L3,146 L-9,145 L-22,140 L-31,133 L-37,125 L-40,120 L-40,114 L-35,110 L-29,108 L-21,108 L-16,113 L-7,120 L7,120 L15,116 L19,114 L21,109 L25,98 L25,86 L21,76 L17,71 L7,65 L0,62 L-14,62 L-24,67 L-29,68 L-33,66 L-35,57 L-32,40 L-29,25 L-27,13 L-21,4 L-17,1 Z " fill="#000000" transform="translate(436,692)"/>
<path d="M0,0 L6,0 L12,4 L17,12 L18,19 L18,39 L16,58 L12,67 L5,73 L1,74 L-7,68 L-10,63 L-12,55 L-13,46 L-13,24 L-10,10 L-5,3 Z " fill="#000000" transform="translate(622,835)"/>
<path d="M0,0 L5,0 L10,5 L16,20 L18,29 L25,42 L27,49 L34,66 L37,74 L37,80 L31,83 L25,80 L21,71 L18,61 L8,58 L-11,58 L-16,64 L-22,79 L-24,82 L-32,82 L-34,80 L-33,71 L-31,64 L-27,58 L-22,42 L-16,29 L-13,19 L-8,6 L-3,1 Z M0,22 L-5,28 L-7,38 L-7,45 L-1,47 L6,47 L10,43 L8,34 L4,24 Z " fill="#000000" transform="translate(245,1191)"/>
<path d="M0,0 L44,0 L48,3 L48,9 L44,12 L31,12 L25,15 L24,19 L23,40 L24,61 L23,78 L20,81 L14,81 L12,80 L11,69 L10,22 L9,14 L-1,13 L-11,14 L-15,12 L-15,3 L-13,1 Z " fill="#000000" transform="translate(156,1192)"/>
<path d="M0,0 L7,0 L12,3 L15,8 L23,28 L34,58 L39,69 L40,80 L35,82 L30,81 L27,78 L23,68 L19,60 L17,58 L-9,58 L-14,66 L-18,77 L-21,81 L-28,82 L-31,81 L-32,78 L-25,60 L-21,47 L-16,36 L-10,20 L-5,7 Z M4,21 L0,25 L-4,38 L-5,44 L-2,46 L11,46 L13,41 L8,24 L5,21 Z " fill="#000000" transform="translate(93,1194)"/>
</svg>
