<?xml version="1.0" encoding="UTF-8"?>
<!-- Generator: visioncortex VTracer 0.6.12 -->
<svg version="1.1" xmlns="http://www.w3.org/2000/svg" width="1017" height="1020">
<path d="M0,0 L248,0 L249,2 L250,26 L251,92 L251,105 L252,124 L252,171 L253,193 L254,285 L255,328 L256,331 L256,1006 L235,1008 L157,1010 L140,1010 L85,1012 L67,1012 L61,1013 L33,1013 L-7,1014 L-40,1015 L-54,1015 L-80,1016 L-111,1016 L-117,1017 L-166,1017 L-183,1018 L-231,1019 L-235,1020 L-240,1019 L-242,1020 L-749,1020 L-752,966 L-753,926 L-754,901 L-755,872 L-756,817 L-757,786 L-757,773 L-758,752 L-759,681 L-760,640 L-761,639 L-761,24 L-758,23 L-730,22 L-716,21 L-671,21 L-597,20 L-554,19 L-497,17 L-460,16 L-434,16 L-432,15 L-409,15 L-383,14 L-360,14 L-321,12 L-305,12 L-246,10 L-200,9 L-184,8 L-169,8 L-126,6 L-91,5 L-53,3 L-12,2 Z M127,33 L95,35 L58,36 L26,38 L-13,39 L-25,40 L-61,41 L-65,42 L-106,43 L-124,44 L-158,45 L-208,47 L-265,48 L-307,49 L-319,50 L-378,51 L-404,52 L-423,52 L-442,53 L-481,54 L-501,55 L-517,55 L-541,56 L-568,56 L-602,57 L-637,58 L-665,59 L-682,60 L-695,67 L-707,78 L-713,86 L-719,96 L-725,117 L-725,178 L-724,215 L-724,226 L-723,239 L-722,308 L-721,356 L-720,382 L-718,526 L-717,542 L-716,633 L-715,668 L-715,700 L-714,708 L-713,792 L-712,819 L-710,903 L-709,929 L-704,948 L-699,958 L-688,971 L-678,979 L-661,987 L-655,988 L-628,989 L-607,988 L-593,989 L-590,988 L-565,988 L-525,987 L-505,987 L-471,985 L-431,985 L-400,984 L-379,984 L-333,982 L-325,983 L-316,982 L-264,981 L-248,980 L-220,979 L-193,979 L-185,978 L-178,979 L-164,978 L-146,978 L-116,977 L-94,977 L-77,976 L-24,975 L0,974 L32,974 L50,972 L85,972 L100,971 L125,970 L146,970 L164,969 L179,965 L192,958 L201,951 L211,940 L215,931 L218,924 L222,911 L223,898 L223,880 L221,822 L220,770 L217,683 L217,669 L216,629 L215,603 L214,557 L213,531 L213,512 L212,501 L211,461 L209,389 L208,338 L207,316 L204,179 L203,148 L201,98 L201,89 L195,71 L187,57 L178,48 L168,41 L158,36 L148,33 Z M215,392 L215,394 L217,394 L217,392 Z " fill="#000000" transform="translate(761,0)"/>
<path d="M0,0 L5,0 L13,11 L24,28 L29,36 L40,53 L44,61 L47,67 L55,76 L62,89 L72,104 L78,114 L88,130 L95,141 L102,153 L115,173 L119,180 L128,194 L142,217 L155,238 L161,250 L161,257 L156,262 L146,269 L137,274 L128,281 L117,287 L108,293 L100,299 L89,305 L73,315 L59,325 L60,330 L66,339 L72,348 L77,362 L79,372 L79,389 L73,409 L67,420 L56,432 L49,439 L33,447 L29,449 L16,451 L-2,451 L-16,448 L-28,443 L-41,433 L-48,426 L-55,416 L-63,403 L-68,404 L-81,412 L-99,423 L-112,431 L-120,437 L-128,441 L-137,447 L-148,453 L-154,456 L-156,456 L-156,463 L-154,476 L-153,485 L-153,505 L-157,524 L-162,536 L-169,548 L-176,557 L-180,563 L-194,574 L-203,579 L-217,587 L-228,591 L-243,594 L-252,595 L-269,595 L-282,593 L-298,588 L-313,580 L-322,574 L-331,567 L-335,568 L-340,573 L-363,586 L-367,590 L-375,594 L-393,605 L-402,611 L-409,615 L-412,618 L-420,622 L-428,627 L-438,634 L-444,636 L-449,641 L-460,647 L-474,655 L-481,654 L-485,649 L-488,645 L-491,638 L-498,627 L-503,619 L-511,606 L-524,586 L-535,569 L-545,553 L-553,540 L-565,520 L-569,515 L-577,502 L-582,494 L-593,476 L-600,465 L-606,456 L-616,440 L-624,427 L-635,409 L-635,403 L-627,396 L-616,389 L-609,384 L-600,380 L-593,374 L-583,368 L-575,362 L-564,355 L-556,351 L-547,344 L-532,335 L-516,325 L-506,319 L-504,319 L-504,317 L-491,309 L-484,303 L-475,298 L-464,291 L-446,280 L-435,272 L-424,266 L-411,257 L-398,248 L-373,233 L-368,230 L-363,226 L-349,218 L-340,212 L-321,200 L-311,194 L-300,186 L-289,180 L-274,170 L-258,161 L-246,153 L-236,147 L-226,140 L-217,134 L-207,128 L-198,122 L-192,119 L-183,113 L-169,105 L-158,97 L-146,91 L-136,84 L-119,74 L-105,65 L-97,61 L-89,55 L-66,41 L-61,38 L-51,32 L-36,22 L-24,15 L-8,5 Z M-9,35 L-30,46 L-37,51 L-41,57 L-40,64 L-32,77 L-27,76 L-23,68 L-8,59 L-2,52 L-1,45 L-5,37 Z M1,64 L-8,67 L-14,71 L-19,77 L-18,80 L-6,79 L2,84 L9,94 L9,107 L8,108 L8,113 L13,113 L24,102 L28,93 L28,82 L24,74 L18,68 L11,65 Z M-12,87 L-18,91 L-21,96 L-20,107 L-15,113 L-10,116 L0,116 L2,115 L2,107 L4,104 L4,96 L-1,90 L-9,87 Z M-67,96 L-83,104 L-96,113 L-112,123 L-129,133 L-142,142 L-154,149 L-165,156 L-180,166 L-189,171 L-203,180 L-213,187 L-222,192 L-232,198 L-242,205 L-247,208 L-249,212 L-249,218 L-243,224 L-229,231 L-210,244 L-201,251 L-188,263 L-183,269 L-179,275 L-172,283 L-160,302 L-153,314 L-146,330 L-141,346 L-138,365 L-137,383 L-133,387 L-128,386 L-120,381 L-111,375 L-106,372 L-98,367 L-88,361 L-83,359 L-78,355 L-62,346 L-54,345 L-43,333 L-38,328 L-30,322 L-14,315 L-6,312 L3,310 L7,302 L19,295 L30,287 L41,280 L46,275 L48,268 L48,261 L45,251 L40,238 L38,225 L38,217 L42,206 L48,197 L55,188 L55,181 L45,164 L39,154 L30,140 L24,131 L18,126 L10,127 L-1,130 L-15,130 L-27,127 L-38,120 L-42,115 L-47,110 L-53,101 L-63,96 Z M90,195 L76,203 L67,208 L60,216 L59,220 L64,229 L70,237 L74,236 L78,228 L91,220 L98,212 L100,207 L99,201 L95,196 Z M97,224 L89,229 L84,234 L83,238 L84,239 L95,239 L102,242 L108,249 L111,257 L111,264 L109,270 L110,272 L115,271 L123,265 L128,256 L129,251 L129,242 L125,234 L120,229 L112,224 Z M88,246 L82,251 L80,255 L80,265 L84,271 L93,276 L100,276 L104,274 L103,267 L106,263 L105,255 L101,249 L94,246 Z M-343,270 L-352,274 L-364,282 L-375,289 L-384,294 L-395,301 L-411,311 L-424,320 L-434,326 L-450,336 L-474,351 L-479,355 L-493,364 L-498,367 L-510,375 L-516,379 L-520,384 L-521,386 L-521,396 L-513,411 L-510,419 L-509,426 L-509,438 L-513,451 L-521,462 L-528,470 L-529,476 L-522,490 L-518,495 L-510,509 L-506,514 L-498,527 L-492,533 L-487,532 L-480,528 L-473,527 L-459,527 L-447,532 L-434,542 L-428,550 L-421,558 L-417,561 L-412,562 L-400,557 L-393,552 L-384,547 L-369,537 L-359,531 L-357,527 L-361,509 L-361,478 L-356,459 L-350,448 L-347,440 L-338,428 L-327,416 L-317,408 L-306,401 L-299,396 L-300,391 L-308,377 L-316,361 L-322,347 L-327,331 L-331,315 L-333,297 L-335,275 L-340,270 Z M20,358 L12,360 L7,364 L4,371 L2,379 L2,388 L6,398 L10,402 L16,405 L26,406 L32,403 L38,396 L41,387 L41,374 L39,367 L35,362 L27,358 Z M-14,359 L-21,365 L-20,370 L-16,374 L-15,400 L-14,401 L-9,401 L-7,391 L-6,375 L-6,361 L-8,359 Z M-230,367 L-232,369 L-231,373 L-226,374 L-224,369 L-226,367 Z M-568,387 L-582,395 L-591,401 L-596,406 L-596,414 L-589,426 L-587,428 L-584,428 L-579,419 L-570,413 L-564,409 L-560,404 L-559,394 L-563,387 Z M-558,416 L-568,421 L-573,426 L-573,429 L-563,430 L-554,436 L-549,442 L-547,453 L-548,461 L-544,462 L-536,456 L-532,451 L-529,440 L-530,431 L-536,422 L-543,418 L-548,416 Z M-569,438 L-574,440 L-577,445 L-577,456 L-573,461 L-567,465 L-558,466 L-557,465 L-556,458 L-552,452 L-555,443 L-560,438 Z M-267,440 L-277,444 L-285,450 L-290,459 L-290,473 L-286,476 L-280,475 L-275,469 L-272,461 L-268,457 L-265,456 L-257,456 L-252,459 L-249,464 L-249,476 L-257,487 L-272,501 L-283,516 L-285,524 L-285,532 L-283,534 L-262,533 L-233,529 L-224,526 L-222,524 L-223,518 L-226,515 L-243,515 L-256,517 L-261,517 L-259,511 L-257,507 L-253,505 L-239,493 L-232,484 L-229,475 L-228,470 L-231,458 L-236,450 L-243,444 L-253,440 Z M-469,544 L-474,548 L-488,555 L-496,563 L-497,569 L-489,583 L-485,583 L-480,575 L-466,567 L-461,560 L-461,548 L-465,544 Z M-457,573 L-466,576 L-474,582 L-476,584 L-475,588 L-464,587 L-453,596 L-449,603 L-449,613 L-450,619 L-445,620 L-435,611 L-431,603 L-431,589 L-437,580 L-444,575 L-453,573 Z M-471,595 L-478,601 L-479,603 L-479,612 L-473,620 L-469,623 L-460,624 L-457,622 L-457,616 L-453,610 L-453,605 L-457,599 L-462,595 Z " fill="#000000" transform="translate(746,169)"/>
<path d="M0,0 L5,0 L10,3 L14,13 L13,23 L10,31 L4,36 L-2,36 L-7,31 L-9,26 L-9,12 L-6,5 Z " fill="#000000" transform="translate(766,532)"/>
<path d="M0,0 L27,0 L44,4 L47,6 L53,8 L65,14 L70,18 L75,21 L82,29 L88,36 L95,48 L101,62 L104,78 L104,98 L101,114 L95,129 L84,144 L77,152 L65,161 L54,167 L38,174 L28,176 L14,177 L-5,175 L-17,171 L-33,164 L-43,156 L-51,150 L-54,145 L-58,141 L-64,132 L-68,124 L-70,122 L-72,117 L-75,95 L-75,81 L-73,65 L-65,47 L-61,40 L-51,27 L-40,17 L-28,10 L-17,5 Z M6,41 L-6,54 L-12,61 L-12,66 L-6,71 L-1,81 L3,91 L11,107 L15,117 L19,122 L24,123 L36,117 L41,112 L40,106 L32,87 L27,78 L23,68 L16,54 L10,42 Z " fill="#000000" transform="translate(661,662)"/>
</svg>
