<?xml version="1.0" encoding="UTF-8"?>
<!-- Generator: visioncortex VTracer 0.6.12 -->
<svg version="1.1" xmlns="http://www.w3.org/2000/svg" width="1119" height="1110">
<path d="M0,0 L1117,0 L1117,1110 L-2,1110 L-2,97 L-1,93 L-1,48 Z M545,103 L505,106 L483,110 L466,113 L438,120 L423,124 L413,128 L404,131 L392,136 L372,144 L363,149 L353,153 L345,158 L331,165 L317,174 L306,181 L298,187 L285,197 L269,210 L258,219 L251,226 L244,232 L244,234 L240,236 L230,246 L223,254 L213,265 L203,278 L197,286 L184,302 L179,311 L172,321 L162,339 L151,359 L146,370 L140,383 L134,398 L126,422 L120,441 L115,463 L110,488 L107,508 L105,541 L105,587 L106,609 L109,633 L111,639 L113,651 L116,665 L122,688 L130,712 L134,724 L144,749 L152,765 L158,777 L166,792 L173,803 L180,813 L191,830 L193,834 L194,842 L203,845 L210,854 L217,863 L224,869 L228,874 L236,881 L243,889 L259,904 L267,911 L279,920 L292,930 L302,937 L317,947 L335,957 L346,963 L365,973 L389,984 L400,988 L433,999 L451,1003 L456,1005 L466,1007 L482,1010 L518,1014 L523,1015 L546,1016 L584,1015 L625,1011 L632,1009 L647,1007 L659,1004 L676,1000 L693,995 L728,983 L755,971 L774,961 L798,948 L812,939 L827,929 L835,922 L844,915 L858,904 L873,889 L876,887 L876,885 L880,883 L888,876 L896,866 L906,856 L916,843 L931,823 L947,799 L955,785 L961,775 L969,760 L974,748 L981,732 L985,722 L989,711 L995,691 L1000,676 L1006,649 L1012,618 L1015,585 L1015,526 L1012,495 L1008,473 L1002,446 L996,425 L985,392 L977,374 L966,351 L962,345 L954,329 L948,319 L941,309 L927,289 L921,280 L912,269 L899,256 L892,247 L881,236 L874,228 L862,217 L854,211 L840,199 L830,191 L818,183 L809,176 L798,170 L790,165 L780,159 L761,150 L755,146 L746,143 L735,137 L725,134 L721,132 L713,130 L700,125 L679,119 L673,117 L663,115 L645,111 L627,108 L602,105 L566,103 Z M438,1023 L437,1027 L441,1028 L442,1023 Z " fill="#000000" transform="translate(2,0)"/>
<path d="M0,0 L139,0 L151,2 L238,2 L245,4 L247,8 L248,22 L248,40 L247,52 L241,57 L194,57 L180,58 L179,59 L180,68 L184,74 L189,84 L195,94 L205,111 L216,130 L223,141 L229,151 L237,165 L243,173 L250,185 L253,191 L265,210 L272,221 L277,222 L285,212 L295,197 L302,186 L308,177 L315,166 L322,156 L327,146 L336,133 L347,115 L357,100 L366,86 L373,76 L378,66 L378,61 L374,58 L325,57 L316,56 L309,55 L307,46 L307,23 L308,7 L310,4 L316,3 L433,3 L523,4 L555,5 L560,10 L560,51 L558,56 L555,58 L509,59 L501,63 L495,72 L487,84 L480,94 L472,107 L462,123 L450,142 L442,155 L436,163 L427,178 L420,189 L415,197 L403,217 L400,227 L413,229 L434,229 L464,230 L481,230 L496,231 L500,236 L500,261 L499,280 L495,285 L365,286 L361,290 L360,293 L360,337 L364,341 L423,341 L466,342 L493,342 L497,345 L498,348 L498,388 L495,395 L486,397 L367,397 L359,401 L358,404 L357,451 L357,562 L360,566 L363,567 L377,567 L401,568 L409,570 L411,572 L411,618 L406,623 L336,623 L320,622 L272,623 L214,622 L159,622 L134,621 L131,619 L130,616 L130,574 L132,568 L134,567 L181,566 L184,564 L185,561 L186,545 L187,471 L187,400 L184,397 L180,396 L144,395 L116,395 L106,394 L97,395 L62,394 L51,393 L47,388 L47,349 L49,343 L51,341 L56,340 L108,340 L114,339 L181,339 L186,337 L192,328 L191,322 L189,318 L187,289 L183,285 L179,283 L172,284 L167,285 L161,284 L58,282 L50,280 L48,275 L48,241 L50,229 L52,227 L105,227 L145,226 L148,224 L147,218 L142,208 L136,198 L127,182 L121,172 L108,151 L103,142 L92,125 L75,96 L71,91 L65,79 L56,65 L51,58 L44,55 L26,55 L0,54 L-4,52 L-6,46 L-6,16 L-5,3 Z " fill="#000000" transform="translate(286,276)"/>
</svg>
