<?xml version="1.0" encoding="UTF-8"?>
<!-- Generator: visioncortex VTracer 0.6.12 -->
<svg version="1.1" xmlns="http://www.w3.org/2000/svg" width="1020" height="1023">
<path d="M0,0 L12,0 L16,1 L17,0 L26,0 L30,0 L414,0 L412,2 L393,3 L373,3 L278,6 L248,6 L210,7 L200,7 L189,8 L177,8 L171,7 L169,8 L109,10 L68,10 L65,11 L42,12 L9,12 L0,13 L-24,14 L-43,15 L-88,16 L-125,16 L-127,17 L-143,17 L-144,16 L-149,16 L-152,18 L-178,18 L-211,19 L-222,19 L-232,21 L-235,19 L-251,20 L-263,21 L-267,19 L-268,16 L-272,16 L-273,20 L-275,21 L-293,21 L-331,22 L-341,22 L-364,23 L-384,24 L-407,24 L-422,25 L-468,26 L-484,27 L-514,27 L-519,29 L-522,31 L-522,16 L-515,17 L-465,15 L-378,13 L-330,11 L-290,11 L-278,10 L-267,11 L-265,10 L-237,9 L-228,9 L-216,8 L-207,9 L-197,8 L-150,7 L-138,6 L-91,5 L-66,4 L-49,3 L-35,3 L-25,2 L-2,2 Z " fill="#000000" transform="translate(522,0)"/>
<path d="M0,0 L7,0 L7,1 L0,1 Z " fill="#000000" transform="translate(943,0)"/>
<path d="M0,0 Z " fill="#000000" transform="translate(956,0)"/>
<path d="M0,0 L13,0 L13,1 L8,2 L0,2 Z " fill="#000000" transform="translate(967,0)"/>
<path d="M0,0 L17,0 L18,22 L18,56 L17,57 L12,57 L17,63 L18,65 L19,122 L19,130 L20,136 L20,174 L22,299 L23,301 L23,452 L21,456 L23,456 L23,1009 L-9,1010 L-36,1010 L-94,1011 L-128,1013 L-188,1013 L-202,1014 L-261,1015 L-323,1016 L-342,1017 L-380,1018 L-411,1018 L-422,1019 L-456,1019 L-469,1020 L-491,1020 L-498,1021 L-518,1022 L-520,1023 L-929,1023 L-928,1021 L-909,1020 L-861,1019 L-832,1018 L-820,1017 L-764,1016 L-750,1016 L-724,1015 L-640,1013 L-617,1013 L-603,1012 L-594,1011 L-570,1011 L-521,1010 L-488,1009 L-464,1008 L-388,1006 L-367,1006 L-360,1005 L-339,1005 L-309,1004 L-224,1003 L-214,1002 L-181,1002 L-174,1003 L-167,1001 L-134,1001 L-112,1000 L-103,999 L-82,999 L-24,998 L8,997 L18,995 L19,992 L19,847 L18,841 L18,788 L17,743 L16,675 L15,667 L15,628 L14,574 L14,553 L11,419 L10,296 L9,255 L7,129 L7,104 L6,76 L7,66 L6,58 L6,38 L5,10 L4,4 Z " fill="#000000" transform="translate(997,0)"/>
<path d="M0,0 L7,0 L13,2 L19,7 L24,10 L35,21 L43,28 L56,39 L67,50 L73,55 L77,59 L85,66 L96,76 L104,83 L109,88 L119,97 L127,104 L134,112 L142,119 L154,130 L162,137 L171,145 L176,150 L185,159 L193,166 L205,177 L215,185 L222,191 L227,199 L224,206 L219,209 L206,213 L200,217 L190,220 L175,226 L172,228 L163,231 L156,237 L137,247 L123,255 L113,262 L97,272 L92,276 L78,286 L73,288 L71,292 L57,301 L48,307 L37,315 L27,322 L18,329 L12,333 L1,341 L-17,354 L-28,360 L-38,367 L-44,371 L-53,377 L-69,385 L-88,395 L-111,408 L-121,413 L-129,417 L-139,424 L-148,428 L-157,431 L-173,439 L-189,447 L-211,458 L-221,462 L-243,471 L-261,478 L-269,482 L-282,487 L-294,492 L-305,495 L-314,498 L-327,501 L-341,505 L-354,509 L-365,511 L-369,512 L-376,513 L-381,515 L-398,516 L-406,509 L-414,498 L-421,488 L-428,477 L-435,466 L-440,465 L-437,472 L-430,482 L-415,504 L-407,515 L-399,526 L-397,527 L-387,526 L-361,522 L-348,517 L-340,515 L-322,510 L-308,506 L-293,500 L-285,498 L-273,494 L-262,489 L-253,486 L-244,482 L-236,479 L-226,475 L-218,471 L-206,466 L-196,461 L-186,457 L-170,449 L-147,438 L-131,430 L-121,425 L-114,422 L-95,412 L-75,401 L-67,396 L-50,387 L-39,380 L-26,372 L-16,365 L-5,358 L13,347 L24,338 L33,332 L43,323 L53,317 L62,311 L77,301 L83,297 L88,293 L97,286 L101,283 L109,279 L127,266 L139,260 L148,254 L160,248 L181,238 L190,235 L204,228 L221,223 L227,223 L230,225 L231,228 L231,238 L227,246 L214,252 L201,257 L192,260 L176,268 L162,275 L143,284 L138,288 L130,290 L126,296 L113,304 L100,312 L85,322 L75,329 L63,338 L53,345 L42,353 L33,360 L24,367 L14,374 L4,381 L-8,388 L-14,393 L-28,400 L-38,408 L-57,420 L-79,433 L-98,443 L-121,455 L-128,459 L-144,467 L-168,479 L-181,485 L-191,489 L-211,498 L-220,502 L-248,515 L-262,520 L-278,526 L-287,530 L-302,533 L-305,535 L-316,537 L-319,539 L-337,543 L-344,546 L-359,549 L-364,551 L-377,553 L-389,556 L-391,557 L-397,557 L-403,553 L-413,539 L-419,531 L-427,519 L-430,515 L-430,513 L-432,513 L-440,500 L-447,491 L-451,483 L-458,474 L-470,457 L-476,447 L-484,436 L-493,422 L-501,411 L-504,406 L-510,398 L-514,392 L-514,390 L-520,389 L-516,397 L-513,401 L-508,410 L-497,427 L-483,448 L-477,456 L-469,468 L-457,484 L-450,494 L-444,503 L-444,505 L-442,505 L-436,514 L-427,528 L-416,544 L-407,556 L-400,565 L-397,568 L-387,568 L-380,566 L-368,564 L-351,559 L-339,556 L-322,551 L-314,548 L-306,546 L-295,542 L-285,539 L-272,534 L-267,532 L-256,529 L-252,526 L-239,522 L-219,514 L-209,509 L-202,506 L-179,495 L-163,487 L-147,479 L-130,471 L-111,461 L-93,451 L-77,442 L-69,438 L-56,430 L-39,420 L-25,410 L-14,403 L1,393 L11,387 L24,377 L37,370 L42,365 L52,358 L65,350 L76,343 L84,338 L89,334 L100,327 L109,321 L118,316 L132,308 L141,302 L157,294 L165,290 L171,287 L175,284 L202,272 L216,266 L226,262 L230,263 L231,264 L231,283 L226,288 L216,292 L204,297 L196,301 L179,308 L163,316 L142,328 L128,335 L123,339 L112,346 L102,353 L92,360 L84,365 L73,372 L64,380 L58,383 L50,389 L37,398 L26,407 L17,412 L6,419 L-3,425 L-14,432 L-24,439 L-35,445 L-45,452 L-56,459 L-74,469 L-88,477 L-103,485 L-108,488 L-112,491 L-124,497 L-141,506 L-163,515 L-172,521 L-192,529 L-208,537 L-223,543 L-250,554 L-264,560 L-281,565 L-290,569 L-304,574 L-320,579 L-328,582 L-340,586 L-351,588 L-360,591 L-376,595 L-391,598 L-397,599 L-403,594 L-403,592 L-405,592 L-410,584 L-413,583 L-411,588 L-405,597 L-399,606 L-395,608 L-386,608 L-374,606 L-361,602 L-351,600 L-333,594 L-320,591 L-309,587 L-293,583 L-283,579 L-269,574 L-259,570 L-252,568 L-242,563 L-232,559 L-213,551 L-199,545 L-183,539 L-166,530 L-149,522 L-141,518 L-125,510 L-102,497 L-87,488 L-71,480 L-65,476 L-57,470 L-41,461 L-26,451 L-12,443 L4,432 L12,427 L21,421 L30,414 L43,405 L54,397 L64,390 L70,386 L82,377 L89,373 L98,367 L108,361 L121,353 L131,347 L139,343 L147,338 L172,324 L181,320 L212,305 L223,301 L230,302 L233,306 L233,320 L229,326 L202,338 L186,346 L170,353 L158,359 L149,365 L138,371 L122,380 L113,385 L108,389 L96,396 L86,402 L75,411 L65,419 L61,421 L57,425 L47,432 L36,440 L27,446 L13,456 L7,459 L-2,465 L-12,472 L-23,479 L-42,491 L-56,499 L-65,504 L-82,514 L-95,520 L-106,527 L-123,536 L-134,542 L-144,547 L-163,557 L-171,561 L-192,570 L-203,574 L-210,578 L-220,582 L-229,587 L-242,591 L-272,603 L-294,611 L-309,615 L-328,621 L-341,626 L-350,628 L-354,630 L-364,632 L-377,636 L-391,638 L-398,638 L-404,633 L-406,630 L-409,629 L-406,636 L-400,646 L-394,650 L-384,650 L-365,645 L-356,643 L-352,641 L-343,639 L-339,637 L-327,634 L-311,629 L-301,625 L-278,617 L-264,611 L-255,608 L-242,603 L-227,596 L-211,590 L-200,585 L-178,573 L-166,568 L-158,564 L-143,557 L-131,552 L-115,544 L-102,537 L-96,533 L-85,527 L-76,521 L-63,516 L-55,510 L-34,498 L-24,492 L-8,482 L10,471 L19,464 L31,456 L36,452 L42,448 L51,442 L60,436 L70,429 L82,422 L90,416 L102,408 L107,404 L113,401 L121,395 L129,391 L135,386 L146,380 L161,372 L177,364 L193,356 L214,346 L222,343 L230,343 L234,347 L234,361 L231,366 L221,371 L205,377 L175,390 L166,396 L152,403 L139,411 L127,418 L114,426 L102,433 L93,439 L82,447 L73,454 L59,463 L50,469 L42,474 L34,480 L24,487 L7,499 L1,503 L-10,510 L-24,520 L-32,525 L-46,532 L-54,538 L-66,544 L-82,553 L-88,557 L-100,563 L-106,567 L-122,575 L-131,580 L-148,588 L-158,594 L-182,605 L-192,609 L-208,616 L-220,621 L-239,630 L-251,635 L-258,638 L-267,641 L-278,645 L-290,649 L-296,652 L-306,654 L-316,659 L-328,662 L-346,668 L-360,670 L-367,673 L-389,678 L-396,678 L-402,673 L-413,658 L-428,634 L-436,623 L-442,613 L-449,603 L-455,595 L-463,584 L-475,565 L-482,555 L-489,545 L-494,536 L-501,528 L-508,518 L-515,508 L-522,498 L-530,486 L-542,468 L-546,463 L-552,454 L-558,444 L-562,439 L-566,432 L-573,423 L-581,411 L-590,397 L-593,391 L-593,372 L-588,371 L-580,382 L-570,397 L-560,411 L-551,426 L-543,436 L-540,441 L-532,452 L-523,466 L-523,468 L-521,468 L-515,477 L-505,492 L-499,499 L-493,506 L-495,499 L-500,493 L-500,490 L-502,490 L-508,480 L-515,469 L-521,462 L-530,448 L-539,434 L-545,425 L-552,415 L-561,401 L-561,399 L-564,398 L-574,382 L-578,376 L-585,366 L-590,356 L-593,349 L-594,339 L-594,333 L-592,331 L-588,332 L-584,337 L-577,347 L-570,357 L-564,366 L-556,378 L-549,388 L-542,396 L-536,408 L-530,416 L-525,419 L-526,413 L-534,403 L-536,397 L-541,395 L-545,386 L-551,376 L-558,367 L-563,359 L-572,346 L-582,331 L-593,312 L-594,310 L-595,295 L-593,292 L-589,293 L-582,303 L-573,317 L-566,327 L-558,339 L-554,344 L-548,353 L-538,368 L-531,375 L-527,384 L-524,386 L-521,385 L-525,376 L-532,364 L-542,351 L-550,338 L-559,325 L-564,318 L-568,311 L-578,297 L-590,279 L-594,270 L-595,264 L-595,251 L-591,250 L-587,255 L-574,274 L-566,285 L-556,299 L-549,309 L-545,314 L-535,330 L-527,341 L-515,357 L-511,363 L-507,370 L-500,380 L-488,398 L-482,406 L-475,416 L-470,421 L-467,428 L-459,441 L-455,446 L-446,459 L-442,460 L-444,453 L-454,439 L-464,425 L-468,420 L-470,415 L-474,410 L-482,397 L-489,387 L-493,381 L-505,365 L-513,353 L-523,338 L-528,331 L-533,322 L-539,313 L-546,304 L-549,301 L-554,292 L-560,283 L-567,274 L-572,265 L-576,260 L-579,254 L-585,247 L-589,239 L-593,231 L-591,225 L-587,223 L-576,221 L-565,220 L-550,216 L-533,213 L-529,211 L-511,208 L-505,205 L-490,203 L-472,199 L-467,197 L-450,193 L-440,189 L-427,186 L-418,182 L-401,178 L-385,172 L-374,169 L-364,165 L-357,161 L-344,157 L-337,154 L-321,147 L-305,140 L-284,130 L-264,119 L-258,116 L-248,110 L-237,104 L-227,98 L-206,86 L-197,80 L-188,75 L-170,65 L-163,61 L-153,55 L-131,44 L-123,40 L-113,35 L-102,31 L-97,28 L-83,23 L-62,17 L-45,11 L-35,9 L-32,7 L-18,4 L-4,2 Z M-62,63 L-71,64 L-91,72 L-101,76 L-111,83 L-117,87 L-127,100 L-132,112 L-133,129 L-131,139 L-123,159 L-115,172 L-108,182 L-101,190 L-92,201 L-85,207 L-78,215 L-64,229 L-51,238 L-35,247 L-18,254 L-5,257 L5,258 L15,258 L34,254 L53,246 L66,238 L77,230 L83,223 L86,221 L89,213 L93,201 L94,195 L94,186 L92,174 L87,162 L76,144 L71,139 L62,129 L55,122 L48,114 L40,107 L32,100 L24,94 L22,94 L20,90 L5,81 L-8,73 L-24,67 L-29,65 L-47,63 Z M-185,139 Z M-234,167 L-243,168 L-259,172 L-265,175 L-277,178 L-293,187 L-299,190 L-305,195 L-309,198 L-309,200 L-314,202 L-321,211 L-328,222 L-333,239 L-334,244 L-334,266 L-329,287 L-321,303 L-313,317 L-307,324 L-298,336 L-292,343 L-287,347 L-285,347 L-283,351 L-275,358 L-263,366 L-255,371 L-247,375 L-233,380 L-219,384 L-211,385 L-191,385 L-177,382 L-166,380 L-150,374 L-140,368 L-128,362 L-122,357 L-114,350 L-105,340 L-98,328 L-95,319 L-92,306 L-92,291 L-94,278 L-98,265 L-106,247 L-113,236 L-121,226 L-128,216 L-138,204 L-146,197 L-161,185 L-176,177 L-182,174 L-202,169 L-212,167 Z M-427,245 L-441,249 L-452,253 L-456,259 L-459,269 L-465,278 L-474,284 L-483,289 L-484,291 L-484,298 L-480,303 L-476,308 L-474,309 L-458,308 L-454,306 L-442,304 L-438,303 L-433,306 L-425,316 L-420,324 L-413,333 L-398,355 L-392,363 L-385,373 L-377,384 L-367,399 L-361,410 L-352,422 L-340,439 L-336,441 L-325,440 L-308,434 L-297,428 L-296,427 L-297,418 L-310,399 L-316,390 L-320,383 L-325,378 L-333,366 L-340,357 L-351,341 L-358,330 L-362,324 L-366,319 L-369,314 L-377,303 L-385,291 L-394,279 L-402,268 L-409,257 L-419,246 L-421,245 Z M-521,424 L-522,429 L-517,436 L-515,441 L-510,450 L-505,456 L-499,461 L-495,460 L-498,454 L-505,444 L-511,434 L-515,429 L-519,424 Z M-477,491 L-476,496 L-474,498 L-470,498 L-471,493 L-473,491 Z M-468,503 L-467,507 L-464,506 L-466,503 Z M-492,507 Z M-491,508 L-490,513 L-486,521 L-478,533 L-475,534 L-473,539 L-465,548 L-463,547 L-464,544 L-466,543 L-469,536 L-477,523 L-489,509 Z M-448,533 L-447,538 L-438,549 L-434,551 L-435,546 L-442,535 L-444,533 Z M-463,549 L-462,555 L-455,567 L-451,571 L-445,581 L-436,594 L-429,605 L-421,616 L-416,622 L-412,622 L-414,616 L-419,608 L-430,592 L-437,582 L-444,571 L-447,567 L-449,567 L-451,561 L-457,552 Z M-430,558 L-430,560 L-428,560 L-428,558 Z " fill="#000000" transform="translate(687,169)"/>
<path d="M0,0 L2,3 L0,6 Z " fill="#000000" transform="translate(0,186)"/>
<path d="M0,0 L2,1 L3,73 L4,139 L5,164 L4,167 L5,170 L6,197 L7,248 L7,287 L10,441 L11,504 L11,546 L12,550 L12,575 L13,615 L13,638 L14,693 L15,709 L15,736 L17,800 L20,805 L21,807 L3,807 L2,792 L1,742 L0,731 L0,705 L1,696 L0,695 Z " fill="#000000" transform="translate(0,216)"/>
<path d="M0,0 L8,0 L22,4 L34,11 L44,18 L50,23 L55,26 L60,31 L66,37 L66,39 L70,41 L79,49 L86,57 L93,67 L98,73 L103,85 L104,88 L104,102 L98,113 L90,118 L82,122 L77,126 L66,129 L46,127 L30,119 L24,115 L14,108 L9,103 L2,97 L-4,90 L-10,85 L-19,74 L-25,66 L-31,56 L-37,44 L-38,39 L-38,27 L-33,17 L-27,10 L-17,4 L-7,1 Z " fill="#000000" transform="translate(637,263)"/>
<path d="M0,0 L23,0 L33,3 L43,8 L53,15 L63,25 L68,30 L76,39 L85,51 L93,62 L101,79 L104,94 L103,107 L96,120 L93,125 L85,131 L71,139 L57,144 L53,145 L38,145 L21,141 L10,135 L-2,126 L-13,116 L-21,106 L-29,95 L-35,87 L-41,74 L-45,66 L-47,59 L-48,44 L-46,35 L-40,25 L-32,17 L-21,9 L-6,2 Z " fill="#000000" transform="translate(446,372)"/>
<path d="M0,0 L4,1 Z " fill="#000000" transform="translate(42,1022)"/>
</svg>
