<?xml version="1.0" encoding="UTF-8"?>
<!-- Generator: visioncortex VTracer 0.6.12 -->
<svg version="1.1" xmlns="http://www.w3.org/2000/svg" width="1101" height="1275">
<path d="M0,0 L30,1 L52,0 L93,0 L105,1 L122,1 L127,5 L128,10 L131,63 L131,94 L132,110 L132,124 L133,140 L134,195 L134,209 L135,244 L136,268 L138,355 L139,363 L139,384 L140,411 L140,444 L141,477 L142,504 L143,540 L144,582 L144,606 L145,631 L146,697 L148,780 L149,831 L149,893 L150,907 L151,941 L151,993 L149,1003 L145,1005 L119,1007 L83,1007 L45,1008 L30,1008 L5,1009 L-27,1009 L-31,1010 L-52,1010 L-101,1011 L-122,1011 L-127,1012 L-180,1013 L-209,1013 L-225,1014 L-268,1014 L-270,1015 L-320,1016 L-353,1016 L-359,1015 L-367,1016 L-406,1017 L-411,1016 L-434,1018 L-453,1018 L-464,1017 L-467,1018 L-481,1019 L-534,1020 L-543,1021 L-547,1020 L-556,1020 L-562,1021 L-584,1021 L-593,1022 L-638,1022 L-694,1023 L-712,1024 L-732,1023 L-740,1024 L-776,1025 L-779,1023 L-785,1023 L-787,1024 L-798,1024 L-805,1025 L-851,1025 L-856,1020 L-857,1017 L-858,973 L-860,927 L-860,902 L-862,816 L-863,805 L-864,720 L-865,705 L-866,662 L-867,582 L-867,563 L-869,514 L-870,449 L-871,429 L-871,402 L-873,387 L-873,342 L-874,329 L-874,316 L-875,297 L-876,247 L-878,204 L-879,155 L-881,103 L-881,25 L-877,21 L-875,20 L-868,20 L-857,21 L-852,20 L-803,19 L-788,18 L-745,18 L-716,17 L-678,17 L-613,16 L-601,16 L-567,14 L-524,13 L-485,11 L-404,10 L-384,10 L-350,9 L-313,8 L-241,7 L-196,6 L-175,5 L-148,5 L-123,4 L-81,4 L-74,3 L-39,1 L-16,1 Z M-649,293 L-671,295 L-676,300 L-678,316 L-678,318 L-690,321 L-706,326 L-720,333 L-730,339 L-740,346 L-742,351 L-745,352 L-754,363 L-762,377 L-767,388 L-770,398 L-772,413 L-772,435 L-769,449 L-766,458 L-760,469 L-750,482 L-746,486 L-729,498 L-717,504 L-703,510 L-688,514 L-676,519 L-673,526 L-672,531 L-671,553 L-671,606 L-672,608 L-679,607 L-688,603 L-694,599 L-705,588 L-711,576 L-716,557 L-719,554 L-768,554 L-784,556 L-787,559 L-788,564 L-787,583 L-784,595 L-778,609 L-774,615 L-769,624 L-759,635 L-754,640 L-747,646 L-737,652 L-726,659 L-712,664 L-691,669 L-674,672 L-670,674 L-668,679 L-666,693 L-663,698 L-660,699 L-626,699 L-609,698 L-603,693 L-602,691 L-599,672 L-588,667 L-571,662 L-548,650 L-539,642 L-532,637 L-528,632 L-523,627 L-512,612 L-503,592 L-500,580 L-500,546 L-504,530 L-512,514 L-516,508 L-525,498 L-534,489 L-544,483 L-558,476 L-570,471 L-571,470 L-581,468 L-588,466 L-606,460 L-608,457 L-609,450 L-610,423 L-610,387 L-609,386 L-603,386 L-595,392 L-590,397 L-584,404 L-579,412 L-577,421 L-574,426 L-570,428 L-517,428 L-510,425 L-507,420 L-507,412 L-512,391 L-516,381 L-524,366 L-533,356 L-541,348 L-549,342 L-560,334 L-569,330 L-588,323 L-600,320 L-610,318 L-613,315 L-615,302 L-618,296 L-622,293 Z M-326,308 L-337,309 L-350,313 L-358,315 L-370,321 L-383,331 L-391,339 L-395,342 L-395,344 L-398,345 L-405,355 L-413,369 L-419,385 L-425,402 L-430,423 L-433,435 L-434,437 L-436,450 L-438,454 L-440,455 L-471,457 L-477,462 L-478,470 L-478,489 L-476,507 L-472,512 L-455,513 L-453,516 L-453,525 L-461,557 L-468,589 L-472,607 L-478,631 L-482,647 L-484,663 L-481,669 L-478,671 L-469,673 L-462,675 L-452,677 L-446,680 L-437,681 L-429,685 L-424,687 L-418,686 L-407,689 L-397,691 L-374,697 L-363,701 L-346,703 L-321,709 L-309,712 L-306,713 L-291,715 L-275,719 L-266,719 L-261,715 L-257,705 L-254,692 L-252,681 L-251,678 L-251,665 L-254,662 L-264,658 L-279,655 L-311,647 L-320,646 L-334,640 L-349,638 L-354,636 L-371,633 L-379,630 L-394,627 L-398,626 L-399,619 L-396,603 L-390,577 L-386,561 L-384,553 L-380,543 L-379,531 L-375,517 L-373,511 L-366,510 L-331,509 L-312,509 L-309,508 L-297,507 L-291,504 L-288,497 L-288,469 L-291,457 L-296,453 L-337,454 L-355,453 L-358,451 L-358,441 L-351,409 L-345,388 L-339,376 L-328,369 L-318,367 L-305,368 L-293,374 L-287,381 L-283,390 L-280,399 L-275,404 L-269,405 L-238,404 L-229,403 L-224,399 L-224,390 L-228,374 L-231,364 L-241,348 L-250,337 L-259,328 L-269,321 L-279,315 L-284,313 L-293,311 L-299,308 Z M20,304 L6,305 L-3,309 L-9,319 L-17,335 L-20,340 L-24,350 L-29,361 L-33,371 L-38,381 L-48,403 L-53,413 L-61,429 L-66,440 L-72,441 L-74,436 L-79,429 L-86,415 L-94,400 L-102,384 L-108,373 L-120,351 L-129,334 L-139,316 L-145,311 L-148,310 L-184,310 L-189,311 L-209,311 L-217,315 L-218,320 L-210,337 L-197,359 L-187,377 L-177,393 L-171,405 L-158,427 L-149,441 L-142,455 L-135,465 L-123,485 L-118,494 L-110,509 L-108,515 L-108,522 L-113,527 L-125,528 L-188,530 L-195,534 L-197,538 L-197,577 L-192,583 L-190,584 L-109,584 L-105,586 L-103,598 L-102,612 L-100,664 L-98,679 L-93,684 L-71,685 L-36,683 L-31,681 L-27,676 L-26,666 L-27,600 L-27,588 L-25,583 L-22,581 L-10,580 L18,579 L32,579 L51,578 L56,575 L58,572 L58,539 L57,530 L52,525 L50,524 L-25,524 L-28,522 L-28,508 L-24,499 L-12,474 L-5,462 L2,448 L6,440 L10,431 L13,427 L20,411 L28,396 L36,379 L44,363 L51,348 L59,331 L65,319 L68,309 L64,305 L60,304 Z M-272,497 L-274,499 L-273,503 L-270,506 L-267,505 L-267,499 L-269,497 Z M-269,515 L-269,517 L-266,516 Z " fill="#000000" transform="translate(917,37)"/>
<path d="M0,0 L4,1 L6,7 L7,30 L7,48 L3,53 L-2,52 L-9,47 L-14,41 L-17,34 L-17,20 L-12,10 L-4,2 Z " fill="#000000" transform="translate(236,423)"/>
<path d="M0,0 L5,0 L17,8 L24,17 L27,26 L27,37 L24,46 L17,55 L7,63 L2,62 L0,60 L-1,55 L-2,16 L-2,7 Z " fill="#000000" transform="translate(313,578)"/>
<path d="M0,0 L13,1 L22,7 L27,13 L29,20 L29,26 L24,38 L20,43 L11,47 L-1,47 L-14,48 L-17,51 L-18,71 L-19,77 L-22,80 L-27,79 L-30,75 L-30,5 L-26,1 Z M-7,10 L-14,11 L-17,14 L-18,18 L-18,32 L-14,36 L-11,37 L1,37 L11,34 L15,30 L16,21 L13,14 L7,10 Z " fill="#000000" transform="translate(99,1142)"/>
<path d="M0,0 L10,1 L18,4 L23,2 L28,2 L31,6 L32,24 L32,64 L28,74 L20,80 L12,82 L-3,82 L-9,80 L-15,76 L-17,72 L-17,67 L-14,65 L-8,66 L-2,71 L1,72 L11,72 L17,70 L19,65 L19,60 L15,59 L13,60 L1,61 L-7,58 L-15,52 L-19,44 L-21,34 L-21,23 L-17,13 L-8,4 Z M2,11 L-3,14 L-7,19 L-10,28 L-10,35 L-6,46 L-2,51 L10,51 L17,46 L21,39 L21,26 L18,17 L12,12 Z " fill="#000000" transform="translate(159,1161)"/>
</svg>
