<?xml version="1.0" encoding="UTF-8"?>
<!-- Generator: visioncortex VTracer 0.6.12 -->
<svg version="1.1" xmlns="http://www.w3.org/2000/svg" width="1002" height="993">
<path d="M0,0 L221,0 L230,4 L242,6 L255,10 L260,12 L272,15 L290,21 L300,26 L316,32 L332,38 L348,46 L365,55 L382,65 L391,71 L409,82 L415,86 L425,93 L436,102 L446,110 L458,121 L464,126 L464,128 L468,130 L473,134 L481,144 L501,164 L510,175 L517,183 L526,195 L534,206 L545,221 L556,239 L562,248 L568,260 L574,270 L584,293 L587,302 L592,310 L597,325 L600,332 L605,349 L609,361 L611,370 L615,383 L617,395 L618,396 L618,595 L616,601 L614,614 L611,625 L607,636 L604,650 L599,662 L593,678 L589,687 L584,699 L579,709 L574,717 L572,723 L565,731 L559,738 L555,752 L547,767 L543,772 L535,785 L523,801 L519,806 L510,817 L504,824 L502,824 L500,828 L493,836 L480,848 L471,859 L464,867 L453,876 L446,883 L435,892 L429,897 L416,905 L409,910 L406,913 L397,919 L391,924 L383,928 L378,932 L359,941 L340,951 L318,961 L308,965 L300,969 L293,970 L285,975 L276,978 L268,980 L261,983 L251,985 L238,989 L223,992 L222,993 L4,993 L1,991 L-8,990 L-12,988 L-22,986 L-40,981 L-64,973 L-79,967 L-85,964 L-93,962 L-119,949 L-126,945 L-140,937 L-148,933 L-168,920 L-174,916 L-177,913 L-184,909 L-196,899 L-206,892 L-221,879 L-231,870 L-242,861 L-247,855 L-254,849 L-261,841 L-262,838 L-264,838 L-271,830 L-280,819 L-288,809 L-293,802 L-293,800 L-295,800 L-303,788 L-310,777 L-317,766 L-327,749 L-335,735 L-339,725 L-344,715 L-352,699 L-356,688 L-364,668 L-371,644 L-374,637 L-377,623 L-383,597 L-384,595 L-384,400 L-381,391 L-376,368 L-373,361 L-370,348 L-364,331 L-357,310 L-351,296 L-346,284 L-338,268 L-330,252 L-327,247 L-317,230 L-307,215 L-300,204 L-290,191 L-285,183 L-276,171 L-265,159 L-260,154 L-249,141 L-247,141 L-245,137 L-236,129 L-231,124 L-225,119 L-220,114 L-207,103 L-196,94 L-190,89 L-172,77 L-163,70 L-153,64 L-143,58 L-126,48 L-113,42 L-99,35 L-94,32 L-76,25 L-63,20 L-59,18 L-51,16 L-47,13 L-38,12 L-33,9 L-24,7 L-10,3 L-1,1 Z M112,81 L107,86 L105,100 L105,115 L103,125 L97,128 L75,130 L60,133 L44,136 L35,139 L27,141 L5,150 L-19,163 L-32,173 L-41,180 L-54,192 L-63,202 L-68,208 L-73,211 L-76,219 L-83,230 L-90,242 L-99,262 L-105,278 L-111,304 L-114,330 L-114,345 L-113,362 L-107,393 L-101,413 L-93,430 L-83,451 L-71,468 L-67,472 L-65,472 L-63,476 L-54,487 L-38,502 L-28,510 L-17,517 L-9,522 L7,530 L14,533 L30,538 L45,543 L58,545 L60,546 L84,548 L92,549 L95,551 L96,558 L96,571 L95,591 L95,653 L94,674 L94,697 L93,704 L93,722 L92,744 L89,749 L73,749 L56,745 L40,738 L31,733 L18,723 L4,709 L-4,696 L-8,688 L-17,661 L-18,642 L-23,636 L-25,635 L-44,635 L-47,636 L-77,637 L-121,637 L-126,640 L-127,642 L-128,654 L-128,666 L-126,687 L-119,716 L-114,732 L-104,751 L-95,767 L-85,780 L-78,788 L-69,798 L-53,813 L-44,820 L-34,827 L-21,834 L-17,837 L3,846 L21,852 L27,854 L40,856 L59,860 L61,861 L84,863 L89,866 L90,870 L90,896 L91,905 L94,909 L106,910 L116,910 L121,908 L123,906 L125,875 L127,867 L136,864 L161,861 L181,857 L193,853 L206,850 L219,846 L235,838 L250,829 L260,823 L268,817 L277,810 L285,803 L299,789 L303,783 L306,780 L311,773 L315,769 L324,755 L330,744 L336,732 L343,709 L345,706 L348,693 L349,682 L350,655 L351,650 L351,624 L348,604 L346,599 L345,590 L340,578 L335,565 L326,548 L317,533 L307,520 L295,505 L287,498 L274,485 L261,475 L252,469 L237,460 L216,450 L209,448 L208,447 L200,446 L197,444 L187,442 L166,439 L145,437 L137,434 L135,430 L135,379 L137,317 L137,296 L138,266 L140,251 L141,247 L145,246 L155,246 L163,249 L176,252 L190,259 L200,267 L204,269 L208,274 L213,278 L219,288 L224,295 L230,310 L232,320 L235,337 L237,347 L243,350 L284,352 L309,352 L328,353 L337,351 L344,351 L349,347 L350,342 L350,331 L347,305 L343,286 L336,265 L330,250 L324,239 L319,231 L316,225 L310,218 L299,204 L292,196 L287,191 L279,183 L273,179 L262,171 L254,165 L244,159 L236,155 L226,150 L212,144 L195,138 L183,135 L174,132 L156,128 L145,126 L142,123 L141,90 L138,84 L135,82 L130,81 Z " fill="#000000" transform="translate(384,0)"/>
<path d="M0,0 L8,0 L12,4 L12,73 L11,92 L11,134 L10,181 L8,188 L7,189 L-10,189 L-19,186 L-28,185 L-47,176 L-55,169 L-61,165 L-72,153 L-81,137 L-85,130 L-87,125 L-89,116 L-90,114 L-90,80 L-85,64 L-77,46 L-71,39 L-64,30 L-53,21 L-42,13 L-26,5 L-10,1 Z " fill="#000000" transform="translate(474,243)"/>
<path d="M0,0 L12,0 L25,2 L37,5 L51,12 L63,19 L75,31 L80,36 L88,46 L95,61 L100,79 L101,89 L101,113 L97,130 L92,142 L86,153 L79,163 L70,173 L62,181 L43,192 L36,193 L28,198 L23,199 L12,199 L2,202 L-7,201 L-9,197 L-10,189 L-9,145 L-8,109 L-8,68 L-7,47 L-6,37 L-6,22 L-5,5 Z " fill="#000000" transform="translate(521,549)"/>
<path d="M0,0 L5,1 L4,8 L1,10 L-3,9 L-3,3 Z " fill="#000000" transform="translate(988,924)"/>
</svg>
