<?xml version="1.0" encoding="UTF-8"?>
<!-- Generator: visioncortex VTracer 0.6.12 -->
<svg version="1.1" xmlns="http://www.w3.org/2000/svg" width="1161" height="1326">
<path d="M0,0 L14,1 L42,0 L88,0 L88,54 L78,55 L57,55 L3,56 L-63,58 L-119,59 L-146,60 L-206,61 L-361,65 L-380,65 L-430,66 L-442,67 L-487,68 L-490,70 L-496,69 L-503,68 L-619,71 L-653,71 L-662,72 L-676,72 L-743,74 L-778,74 L-807,75 L-866,76 L-896,77 L-923,77 L-960,78 L-999,80 L-1006,79 L-1046,80 L-1073,81 L-1073,26 L-1061,25 L-1027,24 L-1009,24 L-912,22 L-891,22 L-867,21 L-815,20 L-799,19 L-772,19 L-685,17 L-575,15 L-507,13 L-450,12 L-389,10 L-372,10 L-276,8 L-210,6 L-143,5 L-122,4 L-54,3 L-37,2 L-27,2 L-12,1 L-3,1 Z " fill="#000000" transform="translate(1073,5)"/>
<path d="M0,0 L10,0 L10,13 L1,14 L-17,14 L-25,15 L-60,15 L-148,18 L-172,18 L-238,19 L-252,19 L-260,20 L-304,21 L-332,21 L-381,22 L-442,24 L-502,26 L-538,26 L-545,27 L-573,27 L-624,28 L-651,28 L-664,29 L-705,30 L-721,30 L-793,32 L-874,34 L-923,35 L-946,36 L-949,38 L-950,41 L-950,97 L-949,147 L-948,202 L-947,275 L-946,342 L-944,457 L-943,541 L-941,622 L-940,676 L-939,719 L-938,791 L-935,900 L-934,984 L-934,1026 L-931,1134 L-926,1137 L-887,1136 L-746,1133 L-725,1133 L-722,1132 L-692,1132 L-653,1131 L-630,1131 L-568,1130 L-553,1129 L-533,1129 L-505,1128 L-486,1128 L-448,1127 L-411,1126 L-359,1125 L-318,1124 L-309,1125 L-306,1124 L-248,1123 L-227,1122 L-204,1122 L-172,1121 L-126,1120 L-96,1119 L-78,1119 L-46,1118 L-25,1117 L-14,1116 L10,1117 L10,1127 L5,1128 L-5,1128 L-10,1129 L-33,1130 L-63,1130 L-83,1131 L-96,1131 L-101,1130 L-140,1131 L-179,1131 L-192,1132 L-205,1132 L-208,1133 L-217,1133 L-221,1132 L-229,1132 L-232,1133 L-249,1133 L-256,1134 L-314,1135 L-326,1135 L-330,1136 L-355,1136 L-369,1137 L-412,1138 L-425,1138 L-464,1139 L-507,1140 L-565,1140 L-571,1139 L-573,1141 L-607,1142 L-630,1143 L-714,1144 L-764,1146 L-802,1147 L-828,1147 L-849,1149 L-858,1149 L-862,1148 L-880,1149 L-889,1150 L-926,1150 L-935,1153 L-941,1152 L-943,1144 L-944,1117 L-945,1050 L-945,1019 L-947,928 L-947,914 L-948,875 L-948,854 L-951,719 L-952,675 L-953,617 L-954,568 L-954,547 L-955,512 L-956,470 L-958,337 L-960,230 L-961,184 L-962,114 L-962,29 L-960,24 L-958,22 L-935,21 L-874,20 L-815,18 L-797,18 L-726,16 L-716,16 L-703,15 L-669,15 L-642,14 L-613,14 L-586,13 L-547,13 L-532,12 L-468,11 L-382,9 L-372,8 L-348,8 L-289,7 L-228,5 L-170,4 L-144,3 L-84,2 L-43,1 L-25,1 Z " fill="#000000" transform="translate(1151,138)"/>
<path d="M0,0 L30,0 L49,2 L52,5 L52,65 L53,130 L53,187 L54,246 L55,341 L55,376 L56,421 L56,445 L57,517 L57,539 L58,582 L58,611 L59,685 L59,706 L60,754 L60,781 L61,832 L62,892 L63,1000 L64,1048 L64,1134 L60,1139 L29,1138 L-37,1138 L-37,1128 L-6,1127 L21,1127 L49,1126 L53,1122 L53,1058 L52,996 L52,975 L50,848 L50,818 L49,766 L49,723 L48,676 L48,638 L47,565 L46,519 L46,483 L45,424 L44,336 L43,319 L44,300 L43,281 L41,109 L40,31 L39,18 L37,13 L36,12 L-37,12 L-37,1 Z " fill="#000000" transform="translate(37,154)"/>
<path d="M0,0 L6,1 L9,4 L12,13 L15,15 L32,18 L48,25 L57,32 L66,42 L72,56 L75,70 L73,74 L67,76 L58,77 L46,77 L38,73 L31,61 L29,57 L24,55 L20,53 L14,54 L12,60 L12,79 L13,93 L14,97 L24,100 L37,104 L57,112 L71,123 L79,135 L83,150 L83,167 L80,181 L73,194 L63,205 L50,213 L40,217 L19,222 L15,226 L13,239 L8,244 L2,243 L-1,238 L-3,225 L-6,222 L-23,219 L-41,213 L-53,203 L-58,198 L-66,187 L-71,174 L-72,161 L-69,158 L-44,156 L-38,156 L-34,160 L-29,174 L-22,180 L-14,184 L-6,184 L-4,181 L-3,162 L-4,141 L-6,135 L-12,133 L-23,129 L-36,125 L-46,119 L-53,115 L-62,105 L-68,93 L-70,81 L-69,63 L-65,50 L-58,38 L-47,29 L-37,23 L-28,19 L-20,17 L-8,13 L-4,3 Z M-12,51 L-21,54 L-26,59 L-30,65 L-31,72 L-28,82 L-20,88 L-14,90 L-8,90 L-5,87 L-4,78 L-5,56 L-8,52 Z M19,141 L14,144 L13,145 L13,178 L16,184 L21,185 L31,182 L38,175 L42,166 L41,156 L37,150 L32,146 L21,141 Z " fill="#000000" transform="translate(336,241)"/>
<path d="M0,0 L20,0 L37,3 L49,9 L60,16 L69,27 L74,37 L78,48 L79,53 L79,62 L75,66 L72,67 L47,68 L43,64 L39,51 L31,40 L24,36 L17,34 L3,34 L-5,36 L-13,42 L-16,47 L-17,58 L-12,71 L1,92 L5,94 L30,95 L34,100 L34,107 L32,111 L29,113 L13,115 L10,118 L9,121 L9,134 L4,148 L1,152 L1,158 L6,160 L18,162 L30,167 L42,169 L49,169 L60,166 L68,162 L69,161 L75,161 L79,166 L89,183 L89,189 L84,194 L68,202 L48,207 L36,207 L21,203 L12,199 L-1,195 L-7,193 L-18,193 L-29,195 L-34,197 L-40,197 L-47,190 L-53,177 L-50,171 L-42,163 L-36,153 L-33,145 L-33,125 L-36,119 L-36,117 L-40,116 L-54,116 L-59,114 L-61,109 L-60,100 L-55,97 L-50,96 L-51,87 L-56,76 L-59,67 L-60,61 L-60,48 L-58,38 L-51,26 L-39,14 L-31,9 L-19,4 L-3,1 Z " fill="#000000" transform="translate(545,264)"/>
<path d="M0,0 L5,1 L15,17 L21,27 L31,43 L39,56 L45,66 L57,86 L67,102 L77,118 L83,129 L87,136 L93,145 L105,165 L115,181 L117,187 L119,187 L119,212 L116,211 L110,202 L102,186 L92,172 L88,164 L83,157 L78,147 L70,134 L62,121 L56,111 L49,101 L40,84 L32,73 L25,59 L19,50 L12,38 L2,21 L-2,17 L-7,18 L-20,27 L-32,35 L-42,41 L-56,50 L-68,58 L-95,74 L-98,77 L-105,81 L-110,84 L-121,90 L-136,100 L-142,105 L-142,107 L-138,105 L-123,96 L-112,89 L-104,83 L-87,74 L-77,68 L-72,64 L-61,58 L-52,52 L-39,44 L-29,37 L-12,27 L-6,27 L-1,32 L3,39 L8,47 L17,61 L22,70 L29,81 L32,88 L36,93 L42,103 L52,120 L60,133 L68,146 L76,159 L87,177 L93,186 L102,201 L108,210 L117,226 L119,228 L119,288 L117,288 L112,278 L101,260 L98,253 L91,240 L86,230 L82,225 L77,217 L67,199 L57,181 L51,170 L42,155 L36,148 L25,139 L15,132 L-2,123 L-5,121 L-14,119 L-18,117 L-28,115 L-44,114 L-56,114 L-74,116 L-89,121 L-96,124 L-110,131 L-119,137 L-129,145 L-138,155 L-140,155 L-142,160 L-150,172 L-158,188 L-162,198 L-165,211 L-166,221 L-166,235 L-165,252 L-160,272 L-151,291 L-145,303 L-135,321 L-121,345 L-115,356 L-109,366 L-105,373 L-94,392 L-86,405 L-76,418 L-71,423 L-65,430 L-55,437 L-35,448 L-24,452 L-1,456 L15,456 L31,455 L46,451 L62,445 L72,439 L81,433 L93,423 L98,418 L105,410 L109,404 L114,396 L117,390 L119,390 L119,458 L106,465 L97,471 L86,478 L78,483 L65,491 L56,497 L42,505 L30,513 L20,519 L10,526 L0,532 L-8,537 L-20,545 L-24,549 L-24,552 L-17,552 L-5,545 L6,538 L16,532 L26,525 L44,514 L58,505 L72,497 L87,487 L101,479 L110,473 L115,469 L119,468 L119,478 L112,483 L105,487 L92,495 L81,502 L68,510 L48,522 L31,533 L20,540 L10,546 L1,553 L-2,557 L-3,561 L2,563 L6,566 L13,570 L24,578 L38,592 L45,602 L51,611 L59,631 L62,642 L64,661 L62,684 L56,705 L48,721 L41,732 L36,737 L33,742 L22,751 L17,752 L23,745 L31,736 L36,731 L42,722 L49,707 L53,696 L55,687 L57,670 L57,656 L53,633 L48,620 L38,602 L34,597 L27,589 L17,580 L7,574 L2,574 L1,577 L0,598 L-3,603 L-7,605 L-15,606 L-40,607 L-58,609 L-76,610 L-82,614 L-83,615 L-85,631 L-84,642 L-75,640 L-63,636 L-40,635 L-28,637 L-16,642 L-7,648 L0,656 L0,658 L4,660 L9,668 L14,681 L16,692 L16,707 L13,720 L5,736 L-2,745 L-13,754 L-23,759 L-37,765 L-56,768 L-79,768 L-79,770 L-69,772 L-65,773 L-36,773 L-19,769 L-9,766 L1,761 L12,754 L15,754 L13,758 L4,764 L-9,770 L-19,773 L-32,777 L-52,778 L-65,778 L-78,776 L-94,771 L-110,763 L-113,760 L-122,755 L-132,746 L-130,744 L-120,751 L-110,757 L-108,757 L-109,753 L-114,748 L-121,740 L-127,730 L-129,723 L-129,717 L-126,714 L-120,712 L-110,712 L-98,711 L-93,714 L-90,719 L-86,725 L-78,731 L-72,734 L-61,736 L-46,733 L-36,728 L-28,718 L-26,713 L-25,706 L-25,695 L-28,685 L-35,676 L-43,671 L-56,668 L-69,669 L-81,674 L-90,680 L-93,681 L-106,682 L-118,682 L-123,679 L-123,666 L-118,624 L-116,614 L-114,595 L-114,583 L-119,582 L-127,589 L-137,598 L-144,608 L-151,622 L-156,635 L-159,644 L-161,658 L-161,675 L-158,690 L-154,704 L-149,716 L-141,730 L-138,735 L-135,738 L-135,741 L-139,740 L-141,736 L-145,732 L-152,723 L-159,709 L-166,686 L-168,664 L-169,660 L-175,661 L-193,671 L-210,682 L-220,687 L-229,693 L-239,699 L-248,705 L-259,711 L-278,723 L-292,732 L-305,740 L-327,753 L-335,758 L-348,766 L-365,776 L-380,785 L-383,788 L-392,793 L-410,804 L-416,808 L-425,813 L-444,825 L-467,839 L-476,845 L-488,852 L-496,858 L-503,857 L-510,846 L-517,835 L-525,822 L-533,809 L-545,790 L-552,779 L-555,773 L-562,763 L-565,759 L-571,747 L-578,737 L-586,724 L-596,707 L-604,695 L-611,682 L-620,668 L-629,654 L-642,633 L-651,618 L-662,600 L-668,591 L-677,576 L-683,567 L-692,552 L-697,543 L-703,534 L-712,520 L-717,511 L-723,502 L-731,488 L-740,474 L-746,464 L-745,457 L-731,448 L-714,438 L-699,429 L-682,419 L-666,410 L-659,405 L-653,402 L-637,392 L-617,380 L-597,368 L-587,362 L-576,355 L-566,349 L-546,337 L-530,327 L-519,321 L-514,317 L-497,307 L-484,299 L-469,290 L-462,285 L-451,279 L-435,269 L-423,262 L-413,258 L-409,253 L-392,243 L-387,239 L-377,233 L-360,223 L-345,214 L-330,205 L-321,199 L-310,192 L-296,184 L-285,176 L-274,170 L-268,166 L-255,158 L-242,150 L-234,146 L-224,139 L-210,131 L-200,125 L-187,117 L-174,108 L-164,102 L-155,96 L-135,84 L-122,76 L-110,69 L-94,59 L-73,46 L-63,40 L-49,31 L-39,25 L-30,19 L-19,12 Z M-155,111 L-161,115 L-161,118 L-155,117 L-152,113 L-152,111 Z M-174,123 L-180,127 L-181,130 L-179,131 L-172,128 L-169,125 L-169,123 Z M-192,136 Z M-206,142 L-212,146 L-214,151 L-209,150 L-203,147 L-201,145 L-201,142 Z M-240,164 L-245,170 L-238,168 L-236,164 Z M-249,170 L-260,176 L-269,183 L-288,193 L-301,201 L-311,207 L-332,219 L-342,225 L-352,231 L-362,238 L-371,244 L-383,249 L-388,252 L-393,254 L-396,259 L-410,267 L-418,273 L-428,279 L-445,288 L-455,295 L-467,302 L-478,309 L-483,312 L-498,321 L-514,331 L-532,342 L-552,355 L-562,360 L-575,368 L-586,375 L-602,384 L-618,393 L-643,406 L-652,412 L-656,415 L-667,421 L-676,426 L-685,432 L-695,437 L-706,444 L-716,450 L-725,456 L-729,461 L-728,468 L-717,486 L-713,493 L-708,500 L-705,506 L-694,523 L-688,534 L-682,544 L-674,557 L-662,576 L-645,605 L-639,614 L-629,631 L-622,642 L-615,653 L-603,673 L-594,688 L-590,694 L-585,703 L-577,716 L-568,731 L-559,746 L-551,758 L-540,775 L-535,785 L-530,791 L-526,798 L-518,811 L-511,822 L-499,840 L-494,844 L-488,843 L-477,837 L-449,820 L-431,809 L-411,797 L-398,789 L-386,781 L-370,771 L-356,763 L-348,757 L-338,751 L-324,743 L-309,733 L-294,724 L-285,718 L-263,705 L-252,698 L-228,683 L-212,674 L-202,667 L-185,657 L-177,652 L-168,645 L-166,642 L-167,638 L-174,639 L-184,645 L-200,655 L-210,660 L-219,665 L-228,671 L-236,676 L-256,688 L-271,697 L-282,704 L-296,713 L-311,722 L-318,726 L-327,732 L-339,739 L-344,742 L-355,749 L-374,759 L-390,770 L-396,768 L-401,760 L-409,746 L-416,735 L-423,724 L-428,716 L-432,710 L-437,701 L-444,690 L-450,680 L-458,668 L-466,654 L-473,643 L-485,624 L-493,610 L-501,597 L-510,583 L-514,577 L-520,566 L-530,550 L-538,537 L-543,529 L-549,519 L-557,505 L-564,494 L-573,480 L-588,456 L-596,442 L-604,431 L-609,422 L-616,412 L-617,404 L-615,400 L-591,386 L-574,375 L-569,372 L-563,367 L-551,361 L-540,354 L-513,338 L-500,330 L-489,323 L-480,317 L-469,311 L-453,301 L-431,288 L-422,282 L-413,277 L-402,270 L-390,263 L-380,256 L-365,247 L-351,239 L-342,233 L-332,227 L-322,220 L-306,211 L-292,202 L-281,195 L-268,186 L-256,180 L-246,172 L-245,170 Z M-286,257 L-305,260 L-315,263 L-324,266 L-340,274 L-353,284 L-365,295 L-371,302 L-383,321 L-388,332 L-392,349 L-394,359 L-395,380 L-394,395 L-387,423 L-376,443 L-366,459 L-359,472 L-353,481 L-345,496 L-338,506 L-330,520 L-318,540 L-309,552 L-301,562 L-296,567 L-284,576 L-275,582 L-261,588 L-251,592 L-239,595 L-225,597 L-206,596 L-197,594 L-190,594 L-178,590 L-159,581 L-148,574 L-141,569 L-136,564 L-130,558 L-130,556 L-126,554 L-116,539 L-108,523 L-103,509 L-100,494 L-99,482 L-99,469 L-101,454 L-104,442 L-110,429 L-115,419 L-128,397 L-134,386 L-148,363 L-154,352 L-161,341 L-172,322 L-182,305 L-190,294 L-195,289 L-205,281 L-219,272 L-234,264 L-239,262 L-261,258 Z M-467,354 L-483,363 L-491,368 L-499,375 L-501,383 L-503,400 L-507,415 L-515,433 L-526,449 L-543,466 L-545,469 L-544,477 L-536,490 L-533,493 L-527,493 L-508,482 L-489,471 L-478,464 L-468,458 L-460,453 L-453,453 L-448,459 L-438,474 L-425,496 L-415,512 L-408,523 L-400,536 L-392,550 L-383,566 L-371,586 L-365,596 L-354,613 L-347,625 L-337,641 L-331,651 L-324,662 L-316,673 L-312,678 L-305,678 L-291,669 L-281,663 L-279,660 L-279,652 L-285,641 L-293,628 L-305,609 L-311,599 L-319,586 L-326,575 L-333,564 L-346,542 L-351,535 L-357,524 L-366,510 L-369,504 L-377,491 L-381,484 L-387,475 L-393,463 L-402,450 L-411,435 L-419,422 L-429,406 L-437,392 L-446,378 L-452,368 L-459,358 L-465,354 Z M-63,558 L-75,561 L-89,565 L-101,571 L-102,575 L-101,576 L-92,577 L-58,575 L-28,573 L-14,572 L-11,571 L-12,566 L-17,563 L-25,561 L-30,559 L-48,558 Z " fill="#000000" transform="translate(1042,240)"/>
<path d="M0,0 L23,0 L40,5 L54,12 L60,17 L65,21 L72,29 L79,40 L85,50 L91,61 L100,76 L110,93 L113,99 L118,107 L124,118 L132,131 L140,146 L146,162 L148,179 L146,200 L140,216 L134,226 L125,237 L113,247 L103,253 L92,258 L83,260 L62,261 L48,259 L32,251 L23,245 L16,238 L11,233 L4,224 L-7,204 L-13,194 L-17,187 L-29,167 L-32,160 L-37,152 L-43,142 L-57,117 L-62,107 L-67,93 L-67,62 L-60,43 L-50,28 L-41,19 L-32,12 L-16,4 Z " fill="#000000" transform="translate(985,398)"/>
<path d="M0,0 L19,0 L32,2 L43,6 L56,13 L68,24 L76,33 L82,43 L91,58 L97,69 L107,86 L118,105 L122,111 L128,122 L133,129 L137,137 L143,147 L148,161 L150,170 L149,192 L147,201 L142,215 L134,226 L126,237 L115,245 L105,252 L84,258 L65,259 L54,257 L40,252 L27,245 L15,234 L8,225 L1,215 L-14,188 L-24,172 L-32,158 L-41,143 L-45,136 L-48,133 L-54,121 L-59,113 L-64,101 L-67,85 L-68,77 L-65,55 L-61,45 L-52,31 L-41,18 L-28,10 L-12,2 Z " fill="#000000" transform="translate(755,542)"/>
<path d="M0,0 L2,0 L2,95 L-3,93 L-8,88 L-16,76 L-20,65 L-22,53 L-22,43 L-20,31 L-13,15 L-6,6 Z " fill="#000000" transform="translate(1159,755)"/>
<path d="M0,0 L3,0 L3,16 L-2,21 L-14,32 L-16,35 L-15,40 L-11,42 L-4,43 L0,49 L2,95 L3,98 L3,123 L-12,120 L-26,114 L-37,105 L-45,95 L-51,85 L-54,74 L-55,66 L-55,57 L-52,42 L-48,32 L-42,24 L-36,17 L-28,11 L-16,4 Z " fill="#000000" transform="translate(1158,959)"/>
</svg>
