<?xml version="1.0" encoding="UTF-8"?>
<!-- Generator: visioncortex VTracer 0.6.12 -->
<svg version="1.1" xmlns="http://www.w3.org/2000/svg" width="1113" height="1128">
<path d="M0,0 L323,0 L322,2 L318,3 L206,3 L182,4 L65,4 L32,6 L20,7 L-2,14 L-18,22 L-26,27 L-35,33 L-45,42 L-50,48 L-55,53 L-63,64 L-72,80 L-80,104 L-82,120 L-84,121 L-84,78 L-82,78 L-80,72 L-75,62 L-65,48 L-54,36 L-43,25 L-30,17 L-19,10 L-3,2 Z " fill="#000000" transform="translate(84,0)"/>
<path d="M0,0 L26,0 L24,2 L8,3 L0,1 Z " fill="#000000" transform="translate(408,0)"/>
<path d="M0,0 L22,0 L21,2 L3,2 Z " fill="#000000" transform="translate(455,0)"/>
<path d="M0,0 L21,0 L20,2 L3,2 Z " fill="#000000" transform="translate(482,0)"/>
<path d="M0,0 L11,0 L9,2 L2,2 Z " fill="#000000" transform="translate(511,0)"/>
<path d="M0,0 L23,0 L19,2 L0,1 Z " fill="#000000" transform="translate(525,0)"/>
<path d="M0,0 L38,0 L55,10 L67,19 L77,28 L84,35 L93,46 L98,55 L102,62 L108,78 L110,85 L111,86 L111,140 L109,139 L106,114 L104,102 L99,89 L93,71 L83,52 L77,45 L70,37 L59,27 L46,18 L32,10 L12,4 L1,2 Z " fill="#000000" transform="translate(1002,0)"/>
<path d="M0,0 L27,0 L32,3 L33,24 L34,84 L34,160 L32,165 L34,174 L34,421 L30,424 L-86,425 L-96,426 L-99,429 L-103,440 L-106,449 L-114,465 L-120,474 L-128,484 L-132,489 L-142,497 L-152,504 L-171,513 L-187,518 L-208,520 L-222,520 L-237,518 L-255,512 L-274,502 L-287,491 L-298,480 L-306,469 L-312,458 L-317,447 L-322,432 L-326,428 L-431,428 L-502,429 L-539,429 L-672,430 L-749,430 L-811,431 L-824,430 L-827,426 L-828,331 L-828,287 L-829,147 L-829,12 L-826,9 L-824,8 L-691,7 L-682,8 L-675,7 L-583,7 L-578,6 L-474,5 L-376,5 L-359,4 L-335,4 L-258,3 L-225,3 L-150,2 L-130,2 Z M-126,27 L-126,30 L-121,31 L-121,27 Z M-87,81 L-128,82 L-192,82 L-234,83 L-323,84 L-363,84 L-372,85 L-473,85 L-543,86 L-681,87 L-720,87 L-744,88 L-747,91 L-748,96 L-749,121 L-748,192 L-748,290 L-747,345 L-745,349 L-738,351 L-565,351 L-501,350 L-492,351 L-488,350 L-472,350 L-429,349 L-309,348 L-302,342 L-293,331 L-285,323 L-279,319 L-271,313 L-264,309 L-256,305 L-246,301 L-235,298 L-223,296 L-204,296 L-184,299 L-174,302 L-155,310 L-145,317 L-137,324 L-123,338 L-118,345 L-115,346 L-59,346 L-49,344 L-47,342 L-46,338 L-46,162 L-47,107 L-47,88 L-50,83 L-54,81 Z M-220,324 L-232,328 L-244,335 L-253,345 L-257,355 L-258,360 L-258,372 L-257,386 L-266,389 L-269,392 L-270,403 L-268,413 L-266,416 L-259,417 L-253,417 L-250,419 L-249,423 L-251,431 L-258,445 L-261,449 L-262,452 L-262,473 L-259,477 L-187,477 L-164,476 L-159,474 L-158,472 L-158,451 L-162,447 L-215,448 L-222,447 L-220,439 L-218,434 L-216,421 L-214,417 L-206,417 L-198,413 L-197,412 L-196,405 L-196,392 L-201,387 L-218,387 L-220,386 L-223,379 L-223,364 L-219,359 L-214,356 L-205,355 L-193,361 L-188,369 L-185,378 L-183,379 L-162,380 L-157,377 L-156,376 L-156,364 L-160,353 L-166,342 L-171,336 L-185,327 L-198,324 Z " fill="#000000" transform="translate(956,180)"/>
<path d="M0,0 L16,0 L36,3 L46,6 L61,13 L77,23 L90,35 L90,37 L94,39 L102,50 L109,61 L116,77 L119,88 L122,108 L121,124 L118,141 L115,151 L110,164 L100,179 L91,190 L84,197 L71,207 L55,216 L49,219 L39,223 L19,227 L0,227 L-19,224 L-37,218 L-55,208 L-65,200 L-76,189 L-83,180 L-91,168 L-100,145 L-103,133 L-104,124 L-104,103 L-101,86 L-96,71 L-88,55 L-82,45 L-73,36 L-68,31 L-59,23 L-48,16 L-41,12 L-29,6 L-18,3 L-5,1 Z M-3,20 L-7,24 L-9,37 L-12,40 L-25,44 L-33,49 L-42,57 L-49,67 L-52,78 L-52,87 L-50,98 L-43,109 L-39,114 L-29,119 L-10,124 L-8,126 L-7,137 L-7,150 L-8,152 L-13,151 L-19,143 L-23,135 L-28,132 L-48,133 L-52,137 L-52,145 L-48,155 L-41,166 L-32,175 L-23,180 L-21,180 L-23,187 L-22,188 L-15,188 L-9,186 L-7,186 L-5,202 L-1,205 L18,205 L22,202 L24,188 L27,185 L37,182 L47,178 L59,167 L65,160 L70,149 L71,144 L71,133 L68,121 L62,113 L51,104 L37,100 L31,98 L24,97 L23,95 L23,72 L29,73 L35,81 L39,86 L61,86 L66,83 L67,77 L63,66 L57,57 L49,49 L38,43 L29,40 L22,38 L20,23 L16,20 Z " fill="#000000" transform="translate(556,283)"/>
<path d="M0,0 L5,2 L6,3 L6,18 L4,21 L-1,21 L-6,16 L-6,6 L-2,1 Z " fill="#000000" transform="translate(543,354)"/>
<path d="M0,0 Z " fill="#000000" transform="translate(354,358)"/>
<path d="M0,0 L6,0 L14,5 L15,6 L15,16 L11,21 L6,24 L0,24 L-2,20 L-2,9 L-1,1 Z " fill="#000000" transform="translate(580,412)"/>
<path d="M0,0 L23,2 L43,8 L52,12 L63,18 L76,28 L83,34 L94,48 L98,53 L106,69 L111,81 L114,98 L115,111 L115,123 L112,139 L107,154 L98,171 L89,184 L75,198 L65,205 L59,209 L43,217 L33,221 L9,225 L-2,225 L-18,224 L-33,220 L-47,215 L-65,204 L-75,196 L-83,186 L-92,175 L-102,156 L-107,138 L-109,126 L-109,103 L-107,90 L-104,78 L-98,63 L-92,53 L-86,45 L-77,34 L-72,29 L-64,22 L-45,11 L-33,6 L-17,2 Z M-8,29 L-23,34 L-32,41 L-40,50 L-44,58 L-46,65 L-47,88 L-48,90 L-58,92 L-62,97 L-62,109 L-61,118 L-58,121 L-49,122 L-46,126 L-45,169 L-44,180 L-39,183 L-18,183 L-15,181 L-13,168 L-13,138 L-12,123 L-8,121 L0,121 L5,119 L7,116 L7,98 L5,92 L1,90 L-9,90 L-12,89 L-14,80 L-13,68 L-10,63 L-3,60 L2,61 L8,66 L11,78 L15,82 L18,83 L34,83 L40,80 L42,78 L42,70 L40,60 L36,51 L29,42 L22,36 L15,32 L1,29 Z M18,89 L13,92 L12,93 L12,169 L13,178 L16,182 L38,182 L43,177 L44,170 L45,137 L50,128 L55,124 L62,120 L69,118 L71,115 L71,93 L70,90 L68,89 L62,89 L52,93 L48,97 L43,96 L41,91 L39,89 Z " fill="#000000" transform="translate(325,640)"/>
<path d="M0,0 L5,1 L7,7 L3,13 L-1,13 L-3,11 L-3,4 Z " fill="#000000" transform="translate(588,758)"/>
<path d="M0,0 L33,0 L50,4 L69,12 L83,21 L94,30 L104,41 L113,53 L121,70 L124,77 L127,90 L128,101 L128,125 L126,135 L120,154 L111,171 L98,187 L91,195 L78,204 L65,212 L54,217 L39,221 L31,223 L1,223 L-19,219 L-40,210 L-53,202 L-58,197 L-69,187 L-76,179 L-83,169 L-91,152 L-96,133 L-97,125 L-97,102 L-94,84 L-88,67 L-79,51 L-71,41 L-62,31 L-54,24 L-40,15 L-32,11 L-21,6 L-3,1 Z M50,43 L44,46 L40,50 L34,62 L31,66 L24,80 L18,91 L13,90 L2,71 L-4,60 L-12,47 L-15,45 L-39,45 L-44,48 L-45,52 L-37,67 L-29,82 L-16,104 L-5,123 L-4,129 L-28,130 L-34,133 L-36,138 L-36,151 L-34,158 L-33,159 L-24,160 L-3,161 L-1,163 L0,184 L1,193 L4,196 L6,197 L27,196 L31,192 L32,171 L34,161 L35,160 L63,158 L67,154 L67,133 L64,129 L38,128 L37,127 L38,120 L45,106 L57,84 L71,59 L75,50 L74,45 L68,43 Z " fill="#000000" transform="translate(659,762)"/>
<path d="M0,0 L1,0 L1,47 L-1,47 L-4,56 L-13,69 L-19,77 L-31,90 L-38,98 L-51,106 L-61,113 L-84,125 L-91,128 L-142,128 L-142,126 L-132,125 L-117,124 L-102,120 L-99,118 L-91,116 L-80,111 L-67,103 L-59,98 L-51,92 L-38,82 L-29,71 L-19,58 L-11,42 L-6,30 L-3,18 L-1,1 Z " fill="#000000" transform="translate(1112,1000)"/>
<path d="M0,0 L2,1 L7,20 L16,37 L26,51 L38,64 L49,73 L63,82 L87,90 L102,92 L104,93 L104,95 L68,95 L59,91 L51,86 L41,79 L31,71 L20,60 L10,46 L2,32 L0,30 Z " fill="#000000" transform="translate(0,1033)"/>
</svg>
