<?xml version="1.0" encoding="UTF-8"?>
<!-- Generator: visioncortex VTracer 0.6.12 -->
<svg version="1.1" xmlns="http://www.w3.org/2000/svg" width="1116" height="1122">
<path d="M0,0 L222,0 L224,2 L236,4 L250,8 L262,10 L271,14 L280,17 L285,19 L294,21 L302,24 L310,28 L327,33 L337,38 L346,41 L354,46 L361,49 L378,58 L386,62 L394,66 L409,76 L415,79 L425,86 L433,91 L440,97 L449,102 L453,107 L463,112 L470,120 L481,129 L490,137 L496,144 L504,151 L515,160 L522,170 L527,176 L535,183 L546,197 L553,205 L560,214 L568,225 L574,233 L583,248 L591,259 L598,271 L608,288 L614,301 L620,311 L622,314 L625,323 L638,353 L644,369 L649,387 L656,407 L658,415 L660,425 L662,432 L664,445 L665,446 L665,678 L663,682 L658,707 L652,728 L648,738 L644,751 L638,768 L634,777 L623,804 L618,814 L610,830 L600,847 L595,853 L589,865 L581,877 L574,888 L562,905 L558,909 L552,917 L543,928 L529,945 L526,946 L524,950 L516,959 L508,966 L492,982 L484,989 L474,998 L461,1008 L449,1017 L444,1021 L430,1031 L422,1037 L412,1043 L406,1047 L399,1051 L390,1056 L379,1062 L363,1071 L347,1079 L339,1083 L332,1086 L319,1092 L304,1096 L296,1100 L279,1106 L273,1108 L264,1109 L251,1114 L235,1118 L224,1121 L223,1122 L-8,1122 L-13,1120 L-24,1119 L-33,1116 L-45,1113 L-50,1111 L-60,1109 L-70,1106 L-73,1104 L-90,1100 L-98,1096 L-110,1092 L-118,1087 L-128,1084 L-147,1075 L-163,1066 L-170,1062 L-183,1055 L-194,1049 L-207,1041 L-218,1033 L-229,1026 L-239,1017 L-249,1010 L-261,1001 L-271,991 L-276,986 L-284,979 L-295,970 L-303,961 L-311,954 L-319,946 L-326,937 L-334,928 L-343,917 L-350,908 L-354,901 L-362,890 L-372,875 L-376,869 L-385,857 L-388,850 L-397,835 L-402,825 L-409,811 L-414,797 L-420,784 L-424,773 L-427,766 L-430,755 L-433,750 L-439,727 L-445,706 L-450,684 L-451,683 L-451,451 L-449,446 L-444,421 L-441,410 L-437,398 L-433,382 L-426,362 L-421,350 L-415,335 L-413,332 L-411,324 L-399,298 L-393,288 L-385,274 L-379,263 L-373,254 L-366,243 L-357,230 L-349,220 L-341,209 L-330,196 L-321,185 L-306,169 L-297,160 L-292,154 L-284,147 L-269,132 L-263,128 L-253,119 L-236,107 L-229,101 L-219,94 L-208,87 L-198,80 L-186,73 L-173,65 L-164,60 L-150,53 L-144,49 L-127,41 L-119,38 L-101,30 L-95,28 L-83,24 L-78,21 L-63,17 L-54,14 L-47,11 L-22,5 L-16,3 L0,2 Z M115,8 L63,10 L46,11 L37,13 L12,16 L-4,20 L-20,23 L-37,27 L-61,35 L-72,37 L-83,42 L-98,48 L-107,52 L-127,61 L-136,65 L-146,68 L-154,73 L-167,81 L-179,89 L-188,94 L-206,105 L-214,111 L-224,119 L-236,127 L-246,136 L-256,143 L-266,154 L-269,159 L-282,166 L-288,174 L-302,188 L-309,196 L-321,210 L-328,220 L-341,236 L-352,251 L-357,258 L-362,268 L-368,277 L-375,289 L-380,298 L-390,317 L-400,338 L-403,344 L-406,353 L-412,366 L-414,376 L-419,389 L-424,404 L-427,416 L-431,432 L-435,445 L-437,460 L-439,465 L-440,476 L-442,485 L-446,513 L-447,526 L-448,533 L-448,598 L-446,613 L-443,634 L-441,649 L-438,665 L-434,685 L-432,697 L-428,711 L-424,727 L-419,739 L-416,748 L-411,764 L-405,780 L-400,792 L-392,808 L-386,818 L-378,834 L-371,844 L-366,853 L-361,862 L-354,874 L-344,888 L-335,898 L-328,907 L-320,917 L-311,927 L-302,938 L-290,952 L-282,961 L-274,968 L-263,978 L-249,989 L-244,994 L-236,1000 L-231,1005 L-225,1008 L-222,1011 L-212,1016 L-208,1020 L-203,1021 L-201,1025 L-196,1028 L-194,1028 L-194,1030 L-178,1038 L-164,1047 L-152,1053 L-145,1056 L-136,1062 L-127,1065 L-122,1068 L-114,1073 L-104,1074 L-95,1078 L-87,1081 L-77,1086 L-53,1094 L-40,1098 L-38,1099 L-29,1100 L-16,1104 L-7,1105 L-5,1114 L-3,1116 L1,1116 L5,1109 L18,1110 L33,1113 L47,1114 L67,1114 L73,1117 L89,1118 L123,1116 L125,1114 L132,1115 L146,1115 L159,1114 L163,1113 L183,1111 L193,1109 L205,1108 L210,1106 L224,1104 L228,1102 L238,1101 L245,1098 L256,1097 L268,1091 L277,1089 L286,1086 L302,1080 L330,1069 L345,1061 L358,1055 L367,1050 L373,1046 L379,1044 L397,1033 L404,1029 L414,1022 L419,1019 L422,1016 L436,1007 L449,997 L449,995 L455,993 L464,985 L471,980 L476,975 L484,968 L491,960 L503,949 L512,940 L519,932 L529,919 L534,914 L545,902 L553,891 L563,877 L568,869 L575,859 L581,850 L586,841 L594,827 L601,815 L606,803 L614,787 L626,759 L634,735 L639,720 L642,711 L650,677 L654,656 L657,640 L659,625 L660,605 L661,601 L663,564 L662,527 L660,511 L659,493 L657,485 L654,464 L649,439 L644,418 L642,413 L639,401 L634,386 L631,376 L623,355 L616,339 L612,330 L603,313 L594,294 L591,288 L584,278 L575,262 L568,252 L560,241 L545,219 L541,214 L536,210 L529,201 L519,189 L512,183 L507,173 L503,170 L492,167 L490,163 L483,156 L478,149 L472,145 L465,138 L456,131 L447,123 L442,120 L433,114 L428,109 L422,105 L419,102 L409,96 L398,90 L388,84 L377,78 L364,71 L360,68 L351,64 L339,58 L330,54 L315,48 L305,43 L297,40 L286,37 L265,30 L257,28 L241,24 L220,20 L204,16 L201,15 L187,14 L183,12 L167,11 L154,9 Z " fill="#000000" transform="translate(451,0)"/>
<path d="M0,0 L11,1 L32,0 L36,3 L37,12 L37,35 L38,51 L38,100 L40,110 L39,114 L38,146 L39,166 L40,215 L40,256 L41,292 L42,304 L41,323 L42,329 L42,368 L41,381 L42,383 L43,412 L43,430 L42,446 L39,449 L32,451 L1,454 L-25,457 L-37,459 L-47,460 L-53,462 L-63,463 L-68,465 L-81,466 L-92,469 L-104,471 L-109,473 L-121,474 L-136,478 L-148,481 L-170,488 L-178,490 L-187,493 L-196,496 L-202,500 L-201,505 L-193,512 L-183,523 L-174,542 L-172,549 L-170,560 L-169,562 L-169,585 L-174,604 L-182,620 L-192,631 L-197,636 L-210,646 L-215,648 L-215,654 L-209,656 L-197,664 L-192,669 L-187,673 L-177,687 L-173,694 L-167,707 L-164,720 L-162,736 L-163,750 L-165,762 L-171,777 L-179,790 L-192,805 L-206,815 L-214,819 L-225,824 L-236,827 L-266,827 L-280,823 L-293,818 L-307,810 L-324,793 L-333,778 L-339,765 L-342,754 L-348,754 L-356,761 L-370,768 L-380,773 L-388,776 L-405,779 L-427,779 L-445,775 L-457,769 L-471,762 L-483,751 L-491,744 L-504,726 L-510,712 L-514,694 L-515,682 L-513,659 L-509,643 L-502,626 L-512,626 L-527,631 L-542,635 L-553,637 L-567,641 L-576,644 L-591,646 L-601,649 L-607,651 L-622,654 L-631,655 L-639,657 L-668,661 L-693,665 L-716,667 L-719,668 L-748,670 L-787,672 L-801,672 L-816,671 L-819,668 L-820,664 L-820,632 L-821,593 L-822,550 L-822,529 L-823,464 L-823,390 L-824,310 L-824,224 L-822,220 L-813,219 L-782,218 L-744,215 L-727,214 L-721,212 L-702,211 L-692,209 L-673,206 L-659,203 L-643,201 L-633,198 L-621,196 L-606,192 L-590,188 L-580,186 L-571,183 L-562,182 L-550,177 L-540,174 L-530,171 L-511,165 L-503,161 L-483,154 L-450,141 L-435,135 L-396,117 L-380,109 L-369,102 L-358,96 L-355,94 L-347,92 L-343,89 L-337,86 L-328,83 L-319,79 L-310,76 L-303,73 L-287,66 L-264,58 L-254,54 L-242,50 L-236,48 L-224,44 L-200,37 L-184,32 L-176,31 L-167,28 L-164,26 L-153,25 L-143,21 L-142,20 L-129,20 L-120,17 L-113,16 L-111,14 L-97,13 L-81,10 L-71,7 L-62,8 L-57,6 L-43,5 L-39,3 L-20,3 L-5,1 Z M-270,179 L-289,180 L-301,184 L-314,195 L-320,202 L-325,211 L-333,227 L-338,243 L-344,278 L-345,290 L-345,318 L-342,344 L-338,361 L-334,374 L-326,392 L-320,402 L-314,410 L-310,415 L-302,421 L-294,425 L-284,427 L-274,428 L-265,428 L-254,425 L-243,418 L-235,411 L-225,395 L-216,374 L-210,352 L-207,330 L-205,295 L-207,279 L-210,257 L-212,251 L-214,240 L-224,216 L-228,206 L-240,192 L-245,187 L-251,182 L-261,179 Z M-59,212 L-59,216 L-55,216 L-54,214 L-55,212 Z M-425,236 L-428,238 L-428,243 L-425,248 L-424,254 L-423,381 L-422,420 L-421,470 L-424,481 L-429,483 L-429,487 L-426,488 L-412,484 L-403,479 L-393,472 L-387,465 L-380,455 L-376,448 L-367,425 L-362,403 L-359,369 L-359,352 L-363,319 L-369,294 L-375,277 L-389,256 L-399,245 L-411,239 L-421,236 Z M-448,238 L-455,241 L-467,250 L-474,259 L-481,270 L-486,279 L-491,294 L-495,308 L-498,325 L-500,353 L-500,369 L-497,403 L-492,424 L-485,443 L-474,461 L-470,466 L-465,472 L-455,480 L-443,485 L-433,485 L-432,480 L-436,471 L-437,434 L-437,384 L-439,243 L-437,242 L-438,238 Z M-537,272 L-549,276 L-557,280 L-561,285 L-566,295 L-572,303 L-581,313 L-591,321 L-593,322 L-593,324 L-598,326 L-607,331 L-609,334 L-609,343 L-602,346 L-595,349 L-592,355 L-590,363 L-590,417 L-589,477 L-589,502 L-590,525 L-594,536 L-599,542 L-599,545 L-592,545 L-580,541 L-573,537 L-564,535 L-555,531 L-535,524 L-526,520 L-520,517 L-519,516 L-519,511 L-525,504 L-527,498 L-528,474 L-528,418 L-529,330 L-529,316 L-530,283 L-532,274 L-534,272 Z M-754,354 L-754,357 L-751,357 L-751,354 Z M-489,464 L-489,467 L-487,465 Z M-263,544 L-270,549 L-273,554 L-274,563 L-272,565 L-265,566 L-261,571 L-253,585 L-250,599 L-245,602 L-231,594 L-227,591 L-228,585 L-235,579 L-240,571 L-244,563 L-249,555 L-253,547 L-257,544 Z M-333,548 L-354,559 L-370,567 L-384,574 L-389,579 L-387,583 L-377,586 L-361,595 L-351,602 L-342,611 L-334,621 L-326,637 L-319,657 L-317,666 L-315,668 L-310,668 L-297,658 L-287,654 L-284,651 L-286,646 L-300,635 L-305,630 L-313,620 L-320,609 L-325,593 L-327,577 L-326,560 L-326,549 L-327,548 Z M-438,640 L-442,644 L-445,656 L-452,666 L-457,678 L-461,684 L-461,689 L-455,694 L-445,698 L-439,698 L-433,706 L-428,710 L-416,710 L-404,703 L-394,693 L-390,685 L-387,675 L-387,667 L-392,657 L-394,655 L-398,656 L-401,664 L-406,672 L-414,685 L-420,696 L-423,701 L-427,702 L-426,696 L-415,676 L-411,671 L-404,657 L-403,653 L-404,652 L-412,652 L-421,653 L-421,642 L-422,641 Z M-241,701 L-251,703 L-263,705 L-274,705 L-279,711 L-279,729 L-275,733 L-253,733 L-247,738 L-244,748 L-247,756 L-251,756 L-250,745 L-254,739 L-260,737 L-266,738 L-272,742 L-276,748 L-276,761 L-269,769 L-259,776 L-249,777 L-239,775 L-229,769 L-222,759 L-219,752 L-220,739 L-226,729 L-232,725 L-243,723 L-243,719 L-235,714 L-234,712 L-234,705 L-239,701 Z M-216,702 Z " fill="#000000" transform="translate(912,172)"/>
<path d="M0,0 L5,2 L7,7 L8,34 L8,95 L9,133 L9,160 L10,182 L10,234 L5,240 L0,241 L-4,237 L-5,233 L-5,180 L-6,160 L-6,111 L-8,37 L-7,7 L-3,1 Z " fill="#000000" transform="translate(635,356)"/>
</svg>
