<?xml version="1.0" encoding="UTF-8"?>
<!-- Generator: visioncortex VTracer 0.6.12 -->
<svg version="1.1" xmlns="http://www.w3.org/2000/svg" width="1215" height="1308">
<path d="M0,0 L146,0 L180,1 L195,1 L234,2 L297,2 L317,3 L341,3 L400,4 L426,4 L476,6 L562,7 L658,8 L758,9 L790,10 L811,13 L831,20 L843,25 L856,35 L867,44 L878,56 L884,65 L892,79 L896,90 L901,107 L905,126 L906,149 L908,167 L908,194 L907,224 L906,273 L905,348 L903,429 L902,506 L901,531 L901,561 L900,593 L900,633 L899,711 L898,731 L898,774 L897,808 L896,886 L893,928 L890,944 L886,953 L881,965 L875,974 L867,985 L853,1000 L844,1007 L830,1016 L822,1021 L804,1029 L795,1032 L786,1035 L778,1036 L754,1037 L719,1037 L661,1036 L629,1036 L612,1035 L589,1035 L560,1034 L507,1034 L472,1033 L418,1032 L382,1031 L375,1030 L369,1031 L311,1030 L287,1030 L214,1029 L191,1028 L159,1029 L142,1028 L45,1027 L16,1026 L-8,1024 L-45,1017 L-65,1009 L-75,1001 L-83,994 L-93,985 L-101,975 L-108,963 L-115,951 L-122,926 L-124,912 L-124,880 L-123,855 L-122,807 L-122,790 L-120,715 L-119,697 L-118,609 L-117,567 L-116,529 L-115,441 L-113,353 L-112,262 L-111,221 L-110,144 L-109,126 L-106,99 L-102,83 L-97,69 L-89,56 L-79,43 L-65,29 L-55,22 L-41,13 L-27,6 L-15,3 Z M36,9 L0,10 L-19,15 L-28,18 L-37,23 L-51,31 L-64,42 L-77,56 L-85,68 L-93,87 L-97,100 L-100,130 L-101,157 L-102,226 L-103,273 L-104,362 L-106,443 L-107,518 L-108,547 L-110,711 L-111,719 L-112,759 L-113,849 L-114,862 L-114,916 L-110,936 L-106,949 L-98,963 L-86,979 L-79,986 L-68,995 L-54,1004 L-36,1010 L-15,1014 L-3,1016 L25,1018 L59,1019 L89,1019 L108,1020 L177,1020 L204,1021 L232,1021 L369,1022 L390,1023 L445,1024 L530,1026 L556,1026 L589,1027 L667,1027 L751,1028 L779,1026 L791,1023 L808,1017 L823,1008 L829,1004 L839,997 L848,990 L857,981 L867,968 L875,954 L879,942 L881,938 L884,923 L887,884 L888,789 L889,762 L889,732 L890,681 L891,604 L893,491 L894,407 L895,375 L896,331 L897,234 L899,162 L897,152 L896,136 L892,112 L889,102 L886,93 L880,78 L873,67 L866,58 L855,47 L841,37 L832,31 L817,26 L808,23 L788,20 L780,19 L734,18 L709,18 L634,17 L568,16 L495,15 L442,14 L403,13 L363,13 L300,12 L260,12 L235,11 L183,10 L174,11 L171,10 L140,11 L120,11 L108,10 L72,10 Z " fill="#000000" transform="translate(274,35)"/>
<path d="M0,0 L19,0 L132,2 L178,2 L254,3 L322,3 L342,4 L407,4 L491,5 L531,6 L561,6 L613,7 L704,7 L764,8 L767,12 L766,152 L764,159 L765,163 L765,190 L764,262 L763,379 L760,386 L748,387 L656,386 L643,387 L641,389 L636,405 L627,422 L619,433 L606,446 L596,453 L580,461 L562,467 L554,468 L529,468 L514,466 L495,458 L483,451 L470,440 L465,435 L458,426 L451,414 L445,401 L441,387 L438,384 L309,382 L275,382 L96,380 L5,379 L-5,379 L-10,376 L-11,375 L-11,307 L-10,272 L-9,213 L-9,180 L-7,22 L-6,5 L-4,1 Z M68,74 L66,80 L65,87 L64,142 L63,250 L63,304 L67,308 L118,309 L143,310 L186,310 L229,311 L321,311 L423,312 L452,313 L457,311 L473,294 L484,285 L501,276 L508,273 L518,270 L536,268 L545,268 L563,270 L576,274 L584,278 L591,281 L602,288 L607,292 L612,297 L621,307 L625,313 L627,314 L651,315 L681,315 L688,314 L691,310 L692,268 L694,114 L694,85 L692,81 L690,80 L675,79 L616,79 L566,78 L531,78 L478,77 L386,77 L343,76 L278,75 L238,75 L141,74 Z M533,294 L524,297 L513,303 L506,310 L502,317 L500,325 L500,338 L501,341 L501,350 L492,351 L489,355 L489,366 L491,373 L497,375 L504,375 L507,378 L506,386 L499,400 L496,404 L495,409 L495,426 L498,429 L561,430 L584,429 L587,427 L588,424 L588,408 L585,405 L581,404 L534,404 L532,403 L533,394 L535,390 L536,379 L538,376 L552,374 L554,370 L554,354 L549,350 L539,351 L533,349 L531,344 L530,338 L530,330 L531,326 L535,324 L540,321 L547,321 L557,325 L562,332 L565,342 L566,343 L573,344 L588,344 L591,340 L591,331 L588,321 L584,313 L575,303 L563,296 L554,294 Z " fill="#000000" transform="translate(293,208)"/>
<path d="M0,0 L12,0 L28,2 L44,7 L58,14 L72,24 L78,29 L87,40 L97,56 L104,72 L108,91 L108,111 L105,129 L99,144 L93,155 L85,166 L73,179 L62,187 L48,195 L41,198 L33,200 L25,202 L11,204 L1,204 L-14,202 L-31,197 L-47,189 L-56,182 L-66,173 L-75,163 L-84,148 L-90,133 L-93,122 L-94,114 L-94,90 L-91,74 L-86,60 L-80,49 L-74,39 L-69,34 L-62,27 L-53,20 L-41,12 L-30,7 L-14,2 Z M-1,18 L-6,23 L-7,32 L-11,37 L-23,40 L-34,47 L-42,57 L-45,63 L-46,68 L-46,82 L-43,90 L-38,99 L-29,105 L-12,110 L-9,110 L-7,118 L-7,134 L-9,137 L-14,135 L-20,125 L-22,121 L-26,119 L-44,119 L-47,121 L-47,132 L-41,144 L-32,154 L-26,159 L-21,162 L-21,167 L-16,168 L-13,166 L-9,167 L-7,173 L-6,182 L-5,183 L13,184 L17,181 L19,169 L22,166 L35,162 L43,158 L53,149 L60,138 L62,131 L62,119 L58,107 L50,98 L42,93 L22,88 L19,85 L19,65 L25,66 L28,67 L30,71 L35,77 L37,78 L56,78 L59,75 L59,68 L52,54 L43,45 L32,39 L21,35 L19,31 L18,21 L15,19 Z " fill="#000000" transform="translate(669,300)"/>
<path d="M0,0 L4,2 L4,18 L2,20 L-3,19 L-7,15 L-7,7 L-2,1 Z " fill="#000000" transform="translate(658,363)"/>
<path d="M0,0 L7,1 L12,5 L13,7 L12,16 L5,22 L0,23 L-3,19 L-3,4 L-2,1 Z " fill="#000000" transform="translate(690,416)"/>
<path d="M0,0 L14,1 L23,3 L37,7 L51,14 L60,20 L72,31 L79,38 L88,51 L95,66 L99,86 L100,110 L96,134 L89,149 L82,160 L75,169 L72,170 L70,174 L62,181 L48,190 L33,197 L18,201 L6,202 L-15,202 L-29,199 L-47,192 L-56,186 L-65,180 L-76,170 L-84,159 L-90,149 L-96,137 L-100,121 L-102,103 L-102,94 L-99,77 L-95,65 L-87,49 L-79,38 L-71,29 L-63,22 L-54,16 L-37,7 L-24,3 L-14,1 Z M-9,27 L-20,30 L-30,37 L-38,46 L-42,57 L-43,73 L-45,80 L-55,82 L-57,85 L-57,104 L-53,108 L-45,109 L-43,112 L-42,160 L-38,163 L-33,164 L-23,164 L-16,161 L-15,157 L-14,111 L-10,108 L1,108 L3,106 L4,91 L2,82 L0,81 L-10,81 L-13,80 L-14,78 L-14,61 L-11,57 L-11,55 L-1,54 L5,56 L8,68 L10,73 L13,74 L31,74 L35,72 L36,70 L35,56 L31,47 L22,35 L10,29 L2,27 Z M12,81 L9,85 L9,159 L13,163 L31,163 L36,158 L37,126 L41,117 L42,114 L46,112 L54,108 L59,107 L62,99 L62,88 L59,81 L52,81 L43,86 L41,88 L37,89 L35,82 L34,81 Z " fill="#000000" transform="translate(459,615)"/>
<path d="M0,0 L19,1 L32,3 L45,8 L59,15 L68,21 L79,30 L88,41 L97,55 L103,69 L105,77 L107,89 L107,113 L104,127 L100,141 L91,157 L82,168 L76,175 L66,183 L55,190 L43,196 L21,202 L-9,202 L-15,200 L-26,198 L-42,191 L-52,185 L-66,173 L-73,166 L-79,158 L-83,152 L-90,136 L-93,124 L-95,116 L-95,91 L-92,73 L-87,61 L-80,47 L-74,40 L-65,29 L-51,18 L-37,10 L-18,3 Z M-26,41 L-45,42 L-47,47 L-39,61 L-31,77 L-18,100 L-12,111 L-12,116 L-13,117 L-34,117 L-37,118 L-40,123 L-40,139 L-35,144 L-12,144 L-9,147 L-8,173 L-5,177 L15,177 L19,173 L20,152 L22,145 L47,144 L52,139 L52,127 L51,120 L48,118 L27,117 L25,116 L26,109 L32,97 L40,83 L46,74 L51,64 L58,52 L60,47 L59,42 L51,41 L34,42 L29,47 L26,53 L17,69 L9,84 L4,83 L-5,67 L-12,53 L-16,47 L-18,42 Z " fill="#000000" transform="translate(761,729)"/>
<path d="M0,0 L37,1 L46,5 L52,9 L59,18 L62,25 L63,33 L63,49 L61,60 L57,69 L53,75 L46,81 L40,84 L32,85 L0,85 L-4,83 L-5,81 L-5,47 L-4,4 Z M12,13 L9,15 L8,18 L8,71 L10,73 L35,73 L43,68 L47,63 L50,53 L50,31 L44,20 L37,15 L21,13 Z " fill="#000000" transform="translate(202,1121)"/>
<path d="M0,0 L10,2 L17,4 L26,11 L30,16 L36,27 L38,38 L38,49 L34,65 L28,75 L16,84 L8,87 L-6,88 L-19,84 L-27,78 L-33,71 L-36,66 L-39,56 L-39,32 L-35,22 L-29,12 L-21,6 L-13,2 Z M-5,13 L-17,19 L-23,26 L-27,37 L-27,54 L-23,64 L-17,71 L-10,75 L-6,76 L5,76 L15,71 L21,63 L25,49 L25,39 L23,28 L19,22 L11,15 L5,13 Z " fill="#000000" transform="translate(318,1122)"/>
<path d="M0,0 L35,1 L61,1 L63,3 L63,13 L60,16 L40,15 L38,18 L37,46 L37,84 L34,86 L24,86 L21,84 L22,48 L22,16 L17,14 L13,15 L1,15 L-3,12 L-3,5 Z " fill="#000000" transform="translate(367,1124)"/>
<path d="M0,0 L5,3 L5,12 L3,24 L-3,32 L-8,33 L-10,28 L-7,23 L-5,20 L-6,16 L-9,13 L-9,6 L-6,1 Z " fill="#000000" transform="translate(450,1126)"/>
<path d="M0,0 L7,1 L8,3 L8,53 L16,54 L17,55 L17,63 L16,64 L8,65 L7,83 L4,85 L-3,84 L-5,82 L-5,68 L-8,64 L-17,65 L-35,64 L-37,62 L-37,52 L-33,46 L-26,38 L-20,29 L-14,20 L-11,16 L-6,7 Z M-7,26 L-10,29 L-12,35 L-22,48 L-21,53 L-20,54 L-6,54 L-4,52 L-3,28 Z " fill="#000000" transform="translate(565,1128)"/>
<path d="M0,0 L46,0 L48,1 L48,10 L38,24 L34,29 L31,36 L25,48 L22,57 L17,81 L15,82 L8,82 L5,79 L5,71 L10,52 L18,36 L27,22 L31,17 L30,13 L-1,13 L-4,10 L-4,4 Z " fill="#000000" transform="translate(474,1130)"/>
<path d="M0,0 L97,0 L148,1 L250,2 L388,3 L441,3 L463,4 L595,6 L671,7 L739,8 L819,9 L844,9 L905,10 L939,10 L974,11 L1071,12 L1154,13 L1178,14 L1206,14 L1215,15 L1215,45 L0,45 Z " fill="#000000" transform="translate(0,1263)"/>
</svg>
