<?xml version="1.0" encoding="UTF-8"?>
<!-- Generator: visioncortex VTracer 0.6.12 -->
<svg version="1.1" xmlns="http://www.w3.org/2000/svg" width="1017" height="1005">
<path d="M0,0 L5,1 L35,1 L37,0 L608,0 L608,2 L580,3 L570,2 L565,3 L506,4 L453,4 L396,6 L388,5 L361,6 L304,7 L281,7 L198,9 L142,9 L140,7 L135,8 L130,10 L109,10 L89,11 L50,11 L46,12 L5,12 L-39,13 L-49,13 L-54,14 L-74,14 L-79,15 L-129,15 L-133,14 L-135,15 L-185,16 L-218,17 L-233,17 L-247,18 L-268,18 L-290,19 L-295,21 L-295,6 L-271,7 L-264,6 L-191,5 L-156,4 L-151,5 L-140,5 L-137,4 L-69,2 L-63,3 L-1,1 Z " fill="#000000" transform="translate(295,0)"/>
<path d="M0,0 L7,0 L6,2 L0,2 Z " fill="#000000" transform="translate(909,0)"/>
<path d="M0,0 L7,0 L5,2 L0,1 Z " fill="#000000" transform="translate(921,0)"/>
<path d="M0,0 L2,1 Z " fill="#000000" transform="translate(931,0)"/>
<path d="M0,0 L9,0 L9,653 L7,649 L6,605 L6,581 L5,450 L5,416 L4,307 L4,292 L3,276 L3,246 L2,213 L4,172 L3,96 L3,70 L2,5 Z " fill="#000000" transform="translate(1008,0)"/>
<path d="M0,0 L7,0 L14,6 L20,16 L28,27 L33,36 L36,40 L41,52 L50,63 L54,68 L59,78 L66,88 L70,95 L76,104 L84,117 L93,131 L101,144 L108,156 L115,166 L122,176 L131,192 L136,199 L141,209 L149,221 L153,229 L162,242 L166,248 L170,256 L175,262 L183,277 L191,289 L200,303 L211,320 L215,328 L219,333 L223,341 L230,353 L238,366 L239,373 L235,379 L223,387 L210,395 L199,402 L194,406 L180,413 L170,420 L154,430 L143,437 L138,443 L138,450 L144,460 L150,468 L159,487 L162,497 L165,516 L165,528 L161,543 L154,561 L147,573 L140,582 L130,591 L119,602 L115,604 L107,606 L99,610 L81,613 L69,613 L53,610 L49,608 L35,605 L21,598 L9,590 L-5,575 L-12,563 L-20,547 L-26,542 L-31,543 L-44,553 L-57,557 L-71,566 L-82,572 L-101,583 L-115,593 L-129,602 L-139,608 L-145,613 L-147,613 L-148,621 L-146,622 L-115,622 L-102,623 L-84,628 L-80,630 L-72,632 L-45,648 L-36,656 L-31,661 L-19,674 L-9,695 L-2,717 L0,729 L0,740 L-1,744 L-3,769 L-9,787 L-17,801 L-27,815 L-38,826 L-43,831 L-53,838 L-62,843 L-75,849 L-88,854 L-111,857 L-130,857 L-143,855 L-155,852 L-169,847 L-184,839 L-193,832 L-203,823 L-210,815 L-216,808 L-222,798 L-231,779 L-237,764 L-242,762 L-248,763 L-257,766 L-266,768 L-268,769 L-292,771 L-300,771 L-311,770 L-321,769 L-334,767 L-346,766 L-369,755 L-377,755 L-388,760 L-397,765 L-407,772 L-415,777 L-422,776 L-427,772 L-435,758 L-438,753 L-441,746 L-447,739 L-456,720 L-464,710 L-468,705 L-473,696 L-479,686 L-486,676 L-497,657 L-502,649 L-512,631 L-520,620 L-529,606 L-539,589 L-546,579 L-554,564 L-556,557 L-561,553 L-568,543 L-574,532 L-580,523 L-590,505 L-597,495 L-605,482 L-611,471 L-619,458 L-630,441 L-636,430 L-645,416 L-646,413 L-646,405 L-642,400 L-622,388 L-612,381 L-598,373 L-580,363 L-566,353 L-546,341 L-538,336 L-527,329 L-514,321 L-502,314 L-494,309 L-477,299 L-466,291 L-455,284 L-450,280 L-440,276 L-434,271 L-423,264 L-407,254 L-391,244 L-381,237 L-373,232 L-365,226 L-355,220 L-347,216 L-330,207 L-319,199 L-311,194 L-301,187 L-289,181 L-280,174 L-268,167 L-255,158 L-245,151 L-238,147 L-225,139 L-219,136 L-210,129 L-199,123 L-188,116 L-180,110 L-166,102 L-148,91 L-140,87 L-131,81 L-122,76 L-115,72 L-105,66 L-99,61 L-90,56 L-77,48 L-59,37 L-51,31 L-41,25 L-33,19 L-19,12 L-11,6 Z M-6,30 L-22,38 L-35,46 L-46,53 L-58,61 L-66,66 L-83,76 L-92,81 L-97,85 L-106,91 L-119,99 L-129,104 L-138,110 L-148,117 L-162,125 L-172,131 L-183,139 L-193,145 L-204,152 L-217,160 L-233,170 L-250,180 L-260,188 L-268,193 L-275,198 L-281,201 L-289,207 L-299,213 L-309,218 L-320,224 L-331,232 L-344,240 L-352,244 L-364,251 L-369,255 L-382,263 L-394,269 L-409,279 L-412,281 L-412,283 L-416,285 L-427,290 L-438,297 L-455,307 L-466,314 L-482,324 L-490,329 L-499,335 L-510,342 L-523,350 L-536,357 L-552,367 L-566,375 L-575,381 L-588,389 L-605,399 L-615,407 L-617,410 L-617,416 L-608,433 L-603,441 L-598,449 L-591,463 L-586,470 L-582,477 L-577,485 L-571,495 L-564,505 L-559,515 L-556,520 L-553,523 L-547,532 L-544,538 L-538,546 L-536,551 L-532,556 L-526,567 L-519,577 L-511,591 L-508,595 L-503,605 L-495,616 L-487,627 L-479,642 L-475,647 L-470,657 L-467,662 L-463,667 L-456,680 L-450,687 L-443,698 L-434,713 L-419,737 L-415,742 L-410,744 L-403,740 L-401,735 L-403,730 L-411,722 L-418,712 L-425,702 L-430,690 L-437,676 L-439,665 L-441,657 L-445,637 L-450,627 L-459,611 L-464,601 L-474,587 L-482,575 L-485,569 L-491,560 L-495,552 L-504,538 L-510,528 L-515,520 L-525,504 L-534,491 L-541,479 L-545,474 L-550,465 L-557,455 L-562,445 L-569,434 L-572,428 L-575,425 L-578,416 L-577,410 L-570,403 L-559,397 L-545,389 L-532,381 L-524,377 L-512,368 L-502,362 L-491,355 L-481,349 L-471,342 L-456,334 L-451,330 L-437,321 L-425,314 L-411,306 L-400,298 L-384,289 L-372,282 L-362,275 L-351,269 L-346,265 L-335,258 L-314,245 L-302,238 L-295,234 L-285,227 L-272,219 L-261,211 L-250,204 L-233,194 L-228,190 L-218,184 L-207,177 L-196,170 L-177,158 L-163,150 L-147,142 L-142,137 L-137,134 L-133,131 L-121,125 L-118,122 L-107,116 L-94,108 L-84,101 L-71,93 L-61,86 L-48,79 L-39,73 L-25,65 L-15,58 L-8,58 L-1,66 L9,83 L16,93 L23,104 L27,112 L34,122 L41,134 L47,142 L52,152 L56,157 L64,170 L71,180 L82,200 L90,213 L100,227 L109,242 L118,257 L126,271 L132,281 L135,286 L143,297 L146,302 L149,309 L156,318 L161,326 L165,333 L172,345 L175,349 L176,352 L176,359 L172,365 L163,371 L150,379 L140,386 L125,394 L117,400 L106,408 L99,415 L98,423 L103,428 L112,427 L124,419 L132,415 L148,404 L157,399 L178,387 L188,381 L197,374 L206,368 L207,366 L207,359 L199,343 L195,337 L191,330 L186,322 L183,317 L176,306 L160,282 L151,267 L142,251 L133,237 L128,228 L117,210 L105,191 L93,173 L88,163 L81,153 L72,140 L66,128 L59,119 L53,107 L44,94 L36,82 L24,64 L16,51 L11,42 L1,31 Z M-71,160 L-86,167 L-102,175 L-108,179 L-123,194 L-129,204 L-135,215 L-140,233 L-143,247 L-143,270 L-138,294 L-134,307 L-127,324 L-123,330 L-119,338 L-112,351 L-107,358 L-102,363 L-92,372 L-88,378 L-81,380 L-76,384 L-65,390 L-56,394 L-39,397 L-26,399 L0,397 L19,389 L30,382 L46,367 L53,357 L57,350 L61,340 L63,335 L66,321 L66,294 L60,269 L55,253 L45,232 L38,221 L26,205 L19,197 L7,185 L-1,178 L-10,172 L-22,166 L-31,163 L-40,160 Z M-253,283 L-265,286 L-274,290 L-286,294 L-297,301 L-305,306 L-315,315 L-322,323 L-328,332 L-333,343 L-338,366 L-338,390 L-335,407 L-330,427 L-327,437 L-322,447 L-316,458 L-307,472 L-299,480 L-290,484 L-269,485 L-256,490 L-246,493 L-235,498 L-216,509 L-208,515 L-204,517 L-190,517 L-179,514 L-159,502 L-145,490 L-135,477 L-132,472 L-127,455 L-126,448 L-126,421 L-130,398 L-140,374 L-146,365 L-154,349 L-158,340 L-169,326 L-178,317 L-183,312 L-191,304 L-193,301 L-198,298 L-208,292 L-219,287 L-232,284 L-242,283 Z M-416,381 L-421,386 L-428,394 L-434,403 L-443,414 L-451,428 L-458,437 L-465,448 L-473,459 L-474,462 L-474,471 L-468,479 L-460,485 L-458,486 L-451,486 L-447,482 L-439,470 L-433,465 L-427,466 L-421,475 L-413,488 L-407,498 L-401,509 L-395,515 L-389,513 L-373,502 L-362,498 L-354,492 L-352,484 L-356,472 L-363,458 L-370,449 L-381,429 L-387,420 L-393,408 L-401,395 L-404,389 L-411,382 Z M65,480 L55,486 L52,490 L55,499 L57,508 L59,533 L61,548 L65,553 L70,554 L75,552 L78,548 L78,527 L76,515 L74,494 L71,482 Z M-32,491 L-50,502 L-59,507 L-63,510 L-73,515 L-77,519 L-93,527 L-103,533 L-114,540 L-124,546 L-137,554 L-144,558 L-155,566 L-160,573 L-160,580 L-157,585 L-156,586 L-149,586 L-139,579 L-127,573 L-110,563 L-97,555 L-89,550 L-69,538 L-49,526 L-39,520 L-28,510 L-25,505 L-25,493 L-27,491 Z M-296,502 L-313,505 L-341,511 L-369,524 L-383,536 L-395,548 L-403,559 L-410,570 L-417,584 L-422,602 L-425,627 L-424,644 L-421,659 L-416,675 L-408,691 L-400,702 L-392,712 L-389,717 L-384,721 L-380,725 L-370,731 L-362,736 L-348,742 L-341,745 L-322,749 L-309,750 L-286,750 L-270,746 L-257,743 L-243,735 L-237,728 L-233,710 L-229,699 L-223,689 L-215,684 L-214,683 L-213,671 L-209,664 L-204,658 L-192,649 L-182,641 L-178,637 L-176,632 L-175,619 L-177,604 L-181,589 L-188,572 L-194,562 L-203,548 L-217,534 L-225,527 L-251,513 L-255,511 L-271,507 L-274,505 L-283,503 Z M-101,691 L-112,694 L-120,700 L-126,707 L-131,719 L-133,732 L-133,743 L-132,754 L-125,770 L-118,779 L-112,784 L-105,787 L-95,787 L-84,781 L-76,771 L-69,758 L-66,746 L-66,726 L-70,714 L-76,702 L-84,694 L-91,691 Z M-155,698 L-164,702 L-169,708 L-168,713 L-165,719 L-163,751 L-162,776 L-159,781 L-154,782 L-150,780 L-147,775 L-147,727 L-148,721 L-148,707 L-150,700 Z M-409,748 L-409,751 L-405,751 L-405,748 Z " fill="#000000" transform="translate(708,68)"/>
<path d="M0,0 L12,0 L24,7 L34,19 L41,32 L49,43 L59,59 L65,67 L74,83 L81,94 L87,103 L94,114 L104,131 L115,149 L117,155 L117,167 L114,175 L110,181 L96,188 L90,189 L80,189 L73,186 L65,179 L61,173 L56,164 L48,151 L40,138 L31,124 L24,114 L20,107 L13,96 L8,87 L-1,72 L-10,58 L-14,53 L-20,42 L-23,32 L-21,20 L-16,10 L-11,5 L-4,1 Z " fill="#000000" transform="translate(623,254)"/>
<path d="M0,0 L2,4 L3,15 L2,45 L3,51 L3,65 L0,68 Z " fill="#000000" transform="translate(0,325)"/>
<path d="M0,0 L7,0 L14,3 L19,8 L28,18 L35,29 L40,39 L46,48 L52,57 L59,71 L59,73 L62,74 L68,82 L75,93 L84,108 L89,115 L93,123 L103,137 L108,145 L110,151 L110,163 L104,174 L100,179 L90,184 L81,185 L72,185 L64,181 L55,171 L46,158 L39,144 L32,133 L23,118 L16,108 L6,90 L1,82 L-3,72 L-12,59 L-17,51 L-23,40 L-24,35 L-24,27 L-21,15 L-15,8 L-5,2 Z " fill="#000000" transform="translate(434,379)"/>
<path d="M0,0 L2,0 L2,6 L0,6 Z " fill="#000000" transform="translate(0,397)"/>
<path d="M0,0 L3,3 L1,12 L0,12 Z " fill="#000000" transform="translate(0,407)"/>
<path d="M0,0 L2,1 L3,5 L4,63 L4,80 L5,121 L5,189 L6,199 L6,238 L7,334 L8,395 L9,452 L9,571 L11,578 L15,582 L0,582 Z " fill="#000000" transform="translate(0,423)"/>
<path d="M0,0 L32,0 L55,1 L62,1 L68,4 L70,9 L69,18 L64,24 L61,25 L38,26 L32,30 L32,35 L38,38 L50,40 L60,44 L76,57 L83,67 L87,77 L89,86 L89,106 L83,122 L77,133 L72,139 L65,145 L55,152 L43,156 L36,157 L16,157 L-4,150 L-13,144 L-19,139 L-25,128 L-25,122 L-22,119 L-15,115 L-4,115 L6,125 L14,128 L27,128 L36,124 L40,119 L44,112 L46,108 L46,88 L41,78 L37,74 L26,68 L16,65 L8,66 L-8,72 L-11,74 L-17,74 L-20,69 L-19,51 L-17,45 L-15,32 L-12,14 L-9,5 L-5,1 Z " fill="#000000" transform="translate(382,620)"/>
<path d="M0,0 L1,0 L1,6 L-1,5 Z " fill="#000000" transform="translate(1016,673)"/>
<path d="M0,0 L8,0 L14,4 L20,11 L22,18 L22,49 L20,65 L17,71 L13,76 L7,79 L1,79 L-6,74 L-10,66 L-12,50 L-12,29 L-11,16 L-8,8 L-3,2 Z " fill="#000000" transform="translate(604,766)"/>
<path d="M0,0 L2,0 L2,11 L-60,12 L-118,13 L-128,13 L-135,14 L-138,13 L-253,15 L-293,15 L-300,16 L-374,17 L-409,17 L-458,18 L-463,19 L-476,19 L-482,18 L-483,19 L-985,19 L-984,17 L-953,16 L-924,16 L-888,15 L-855,15 L-812,14 L-777,13 L-732,12 L-692,12 L-682,11 L-649,11 L-631,10 L-585,10 L-506,8 L-478,8 L-454,7 L-395,7 L-335,6 L-311,6 L-227,5 L-221,4 L-157,4 L-111,3 L-89,3 L-25,2 L-17,2 L-7,1 Z " fill="#000000" transform="translate(1015,986)"/>
<path d="M0,0 L5,1 L5,2 L-2,2 Z " fill="#000000" transform="translate(19,1003)"/>
</svg>
