<?xml version="1.0" encoding="UTF-8"?>
<!-- Generator: visioncortex VTracer 0.6.12 -->
<svg version="1.1" xmlns="http://www.w3.org/2000/svg" width="1083" height="1317">
<path d="M0,0 L112,0 L128,1 L321,1 L353,0 L371,1 L375,3 L376,5 L377,28 L377,277 L378,340 L379,486 L379,654 L380,748 L380,943 L381,973 L380,990 L379,999 L375,1003 L367,1005 L317,1006 L215,1006 L159,1005 L123,1006 L114,1005 L99,1006 L71,1006 L44,1005 L-82,1005 L-97,1004 L-101,1005 L-137,1006 L-246,1006 L-423,1005 L-618,1005 L-636,1004 L-639,1005 L-651,1005 L-656,1000 L-656,3 L-654,2 L-638,2 L-630,3 L-616,3 L-612,2 L-556,1 L-497,1 L-435,2 L-424,1 L-50,1 Z M-83,8 L-124,9 L-207,9 L-254,10 L-390,10 L-405,9 L-514,9 L-546,10 L-561,10 L-593,9 L-636,10 L-643,11 L-647,15 L-648,64 L-648,255 L-649,256 L-649,263 L-650,266 L-650,276 L-648,281 L-647,368 L-647,503 L-646,553 L-646,639 L-645,685 L-646,750 L-646,813 L-647,823 L-648,825 L-648,848 L-646,860 L-646,867 L-647,871 L-647,891 L-646,893 L-646,965 L-645,984 L-644,991 L-639,995 L-633,996 L-616,996 L-605,995 L-368,995 L-311,996 L-198,996 L-164,995 L8,995 L17,996 L33,995 L185,995 L194,996 L208,996 L217,995 L252,995 L272,994 L306,995 L356,995 L365,993 L368,989 L369,982 L369,953 L370,773 L369,715 L369,596 L368,366 L368,232 L367,50 L368,38 L367,34 L366,17 L363,11 L361,10 L335,9 L284,9 L264,10 L227,10 L223,9 L-48,9 L-52,8 Z " fill="#000000" transform="translate(656,36)"/>
<path d="M0,0 L106,0 L129,1 L171,1 L174,5 L173,10 L167,18 L156,31 L151,37 L144,40 L100,40 L86,41 L79,40 L63,40 L10,39 L-13,39 L-18,37 L-21,33 L-21,6 L-16,1 L-5,1 Z " fill="#000000" transform="translate(741,289)"/>
<path d="M0,0 L30,1 L40,2 L42,1 L102,1 L131,2 L144,2 L150,6 L152,13 L152,26 L151,40 L147,59 L141,72 L133,86 L125,95 L120,99 L115,104 L102,112 L80,118 L62,120 L44,117 L29,112 L22,109 L16,105 L4,94 L-5,86 L-15,67 L-20,53 L-23,44 L-28,39 L-32,38 L-36,39 L-43,39 L-49,37 L-49,30 L-41,23 L-36,19 L-30,12 L-19,3 L-15,1 Z " fill="#000000" transform="translate(737,357)"/>
<path d="M0,0 L7,0 L18,3 L28,11 L33,16 L39,24 L47,35 L50,49 L51,68 L51,135 L52,166 L55,171 L62,174 L95,175 L112,176 L125,180 L134,186 L140,195 L144,202 L146,208 L147,224 L147,310 L148,338 L148,356 L151,365 L155,368 L169,369 L182,368 L199,369 L255,369 L270,368 L277,366 L280,363 L282,354 L283,332 L282,307 L282,230 L284,181 L288,165 L298,146 L304,137 L318,124 L329,116 L345,109 L359,105 L389,105 L405,110 L417,115 L426,121 L435,128 L440,132 L448,143 L455,154 L459,161 L464,181 L466,197 L467,230 L467,319 L468,324 L467,344 L468,360 L468,424 L469,442 L466,448 L462,452 L446,453 L364,452 L239,452 L233,451 L203,451 L192,450 L185,451 L168,450 L154,450 L150,455 L149,459 L149,517 L147,537 L142,550 L134,560 L128,563 L122,566 L117,567 L95,568 L-89,568 L-115,567 L-125,563 L-131,559 L-140,548 L-144,538 L-147,520 L-148,489 L-154,477 L-160,470 L-171,456 L-179,445 L-187,431 L-190,424 L-192,412 L-193,389 L-194,378 L-195,373 L-193,363 L-193,212 L-192,201 L-192,188 L-187,169 L-180,152 L-169,137 L-165,132 L-163,132 L-161,128 L-151,119 L-143,112 L-127,99 L-116,90 L-105,80 L-94,71 L-86,65 L-77,58 L-67,49 L-56,40 L-46,31 L-29,19 L-18,9 L-7,2 Z M66,187 L57,189 L52,193 L50,199 L49,262 L48,282 L46,291 L43,301 L39,310 L25,334 L19,341 L10,348 L1,355 L-6,363 L-17,373 L-31,384 L-47,399 L-61,411 L-67,416 L-67,418 L-71,420 L-79,427 L-92,439 L-100,446 L-110,454 L-115,459 L-122,464 L-129,475 L-129,483 L-122,491 L-116,494 L-103,497 L102,497 L115,496 L124,493 L131,486 L135,478 L135,445 L126,435 L116,429 L106,420 L99,411 L94,405 L89,394 L85,384 L84,375 L86,371 L88,370 L104,369 L124,369 L131,366 L134,363 L135,360 L135,210 L128,196 L121,191 L102,188 Z " fill="#000000" transform="translate(426,418)"/>
<path d="M0,0 L3,0 L3,2 L0,2 Z " fill="#000000" transform="translate(1054,559)"/>
<path d="M0,0 L109,0 L148,1 L168,2 L174,5 L179,11 L185,22 L190,32 L197,42 L209,63 L215,74 L221,83 L224,92 L231,99 L238,112 L238,117 L236,119 L218,119 L199,120 L112,120 L106,119 L103,120 L71,120 L64,119 L1,119 L-7,115 L-9,112 L-10,106 L-10,85 L-11,82 L-11,37 L-12,32 L-12,10 L-9,4 L-4,1 Z " fill="#000000" transform="translate(722,893)"/>
<path d="M0,0 L9,0 L19,3 L28,9 L35,17 L40,27 L41,38 L41,48 L39,57 L31,72 L24,78 L12,83 L9,84 L-4,84 L-16,80 L-26,73 L-26,12 L-17,5 L-9,1 Z M-5,12 L-13,17 L-18,22 L-22,33 L-23,44 L-21,55 L-19,60 L-12,68 L0,72 L7,72 L19,66 L25,57 L28,43 L27,32 L24,23 L16,15 L7,12 Z " fill="#000000" transform="translate(26,1119)"/>
<path d="M0,0 L6,0 L10,5 L9,18 L5,26 L2,28 L-2,27 L-1,15 L-4,10 L-4,4 Z " fill="#000000" transform="translate(85,1119)"/>
<path d="M0,0 L5,2 L6,3 L6,11 L0,19 L-8,33 L-14,48 L-17,57 L-20,75 L-22,79 L-28,81 L-33,78 L-35,73 L-32,58 L-29,50 L-24,38 L-18,27 L-13,19 L-13,14 L-35,14 L-40,15 L-45,11 L-45,4 L-41,1 L-13,1 Z " fill="#000000" transform="translate(156,1120)"/>
<path d="M0,0 L18,0 L25,4 L32,12 L34,16 L34,27 L30,38 L22,47 L13,53 L3,61 L2,65 L3,66 L32,67 L35,71 L35,77 L33,79 L-10,80 L-16,78 L-17,77 L-17,70 L-13,60 L-8,52 L-2,49 L11,39 L16,34 L19,29 L19,18 L14,12 L9,11 L1,15 L-2,19 L-5,27 L-7,30 L-14,30 L-16,28 L-16,17 L-11,8 L-2,1 Z " fill="#000000" transform="translate(190,1121)"/>
<path d="M0,0 L68,0 L73,1 L89,1 L97,0 L106,1 L156,1 L261,2 L314,3 L432,4 L522,5 L545,5 L606,6 L673,6 L764,7 L1017,7 L1041,8 L1048,8 L1048,59 L183,59 L179,58 L122,57 L96,58 L84,58 L78,57 L-35,57 L-35,1 Z " fill="#000000" transform="translate(35,1258)"/>
</svg>
