<?xml version="1.0" encoding="UTF-8"?>
<!-- Generator: visioncortex VTracer 0.6.12 -->
<svg version="1.1" xmlns="http://www.w3.org/2000/svg" width="1008" height="1005">
<path d="M0,0 L27,0 L27,2 L12,6 L3,10 L-7,16 L-20,25 L-31,35 L-40,46 L-49,61 L-55,77 L-58,84 L-59,84 L-59,52 L-54,49 L-47,39 L-38,29 L-29,19 L-20,13 L-2,2 L0,2 Z " fill="#000000" transform="translate(59,0)"/>
<path d="M0,0 L30,0 L30,2 L36,4 L53,16 L63,25 L72,34 L81,48 L85,57 L88,62 L97,91 L100,98 L100,298 L98,296 L97,291 L96,226 L95,146 L92,119 L88,97 L83,77 L76,59 L74,54 L67,44 L60,35 L49,25 L41,19 L31,13 L24,9 L13,5 L1,2 Z " fill="#000000" transform="translate(908,0)"/>
<path d="M0,0 L31,0 L165,1 L172,3 L173,5 L173,59 L171,62 L154,63 L75,62 L-1,62 L-6,59 L-14,48 L-22,36 L-33,20 L-41,7 L-41,2 L-40,1 Z " fill="#000000" transform="translate(596,170)"/>
<path d="M0,0 L95,1 L132,1 L136,4 L137,16 L137,30 L136,51 L134,63 L131,73 L124,87 L117,96 L108,106 L97,114 L82,122 L68,126 L62,127 L39,127 L27,124 L15,120 L-1,110 L-13,98 L-24,82 L-29,70 L-33,57 L-35,46 L-38,43 L-69,42 L-70,37 L-60,24 L-54,16 L-48,8 L-44,3 L-40,1 Z " fill="#000000" transform="translate(633,250)"/>
<path d="M0,0 Z " fill="#000000" transform="translate(1007,301)"/>
<path d="M0,0 L1,0 L1,7 L0,7 Z " fill="#000000" transform="translate(1007,313)"/>
<path d="M0,0 Z " fill="#000000" transform="translate(1007,330)"/>
<path d="M0,0 L56,0 L61,3 L62,6 L63,75 L63,134 L64,307 L67,313 L71,315 L126,316 L178,316 L212,315 L242,315 L285,316 L377,316 L381,318 L382,323 L382,374 L380,384 L375,394 L369,401 L353,409 L318,410 L174,410 L155,409 L122,409 L94,408 L82,403 L74,396 L68,387 L65,377 L64,370 L63,320 L61,316 L17,315 L-2,313 L-16,305 L-24,295 L-27,290 L-30,269 L-30,35 L-28,25 L-23,15 L-12,5 Z " fill="#000000" transform="translate(138,405)"/>
<path d="M0,0 L149,0 L152,3 L150,8 L143,18 L132,33 L124,43 L116,53 L107,66 L99,76 L91,87 L80,101 L73,110 L62,125 L51,139 L44,148 L36,159 L28,169 L15,186 L7,197 L-3,210 L-10,219 L-15,226 L-17,226 L-19,230 L-31,246 L-36,253 L-40,253 L-41,248 L-41,188 L-42,99 L-43,85 L-46,84 L-51,89 L-60,101 L-70,116 L-81,130 L-89,140 L-97,151 L-105,162 L-113,172 L-128,192 L-133,198 L-141,209 L-149,219 L-158,231 L-170,247 L-180,260 L-190,273 L-199,284 L-206,293 L-213,300 L-225,305 L-229,306 L-242,306 L-254,301 L-262,294 L-268,287 L-272,277 L-273,271 L-273,262 L-271,253 L-265,243 L-257,232 L-248,221 L-240,210 L-232,199 L-222,186 L-214,176 L-207,166 L-200,157 L-188,141 L-181,132 L-171,118 L-162,106 L-150,90 L-141,79 L-134,69 L-120,51 L-108,34 L-100,25 L-93,17 L-82,9 L-70,3 L-61,1 L-17,1 Z " fill="#000000" transform="translate(604,405)"/>
<path d="M0,0 L10,1 L26,7 L34,13 L43,21 L51,35 L54,44 L55,53 L56,256 L56,401 L53,406 L48,408 L-71,408 L-127,407 L-249,407 L-252,404 L-253,380 L-253,324 L-252,317 L-247,314 L-35,314 L-31,313 L-29,306 L-29,282 L-30,271 L-48,270 L-74,270 L-202,269 L-204,268 L-204,263 L-198,255 L-189,243 L-179,230 L-169,217 L-162,208 L-154,197 L-147,188 L-139,178 L-127,161 L-124,160 L-122,155 L-111,142 L-105,133 L-99,125 L-90,114 L-80,100 L-73,92 L-61,76 L-51,63 L-43,53 L-33,40 L-25,30 L-18,21 L-8,8 Z M31,330 L31,334 L33,334 L33,330 Z " fill="#000000" transform="translate(816,407)"/>
<path d="M0,0 L1,0 L1,41 L-1,41 L-4,50 L-8,58 L-16,69 L-23,78 L-31,87 L-44,97 L-53,103 L-72,113 L-76,114 L-76,116 L-104,116 L-104,114 L-92,111 L-72,103 L-61,97 L-48,88 L-40,82 L-32,75 L-25,66 L-15,52 L-9,40 L-4,23 L-1,3 Z " fill="#000000" transform="translate(1007,889)"/>
<path d="M0,0 L2,1 L5,14 L10,28 L10,35 L15,38 L23,51 L40,67 L50,75 L59,80 L68,85 L77,89 L95,93 L110,95 L111,97 L70,97 L63,94 L52,89 L38,78 L28,70 L12,54 L4,41 L2,35 L0,35 Z " fill="#000000" transform="translate(0,908)"/>
</svg>
