<?xml version="1.0" encoding="UTF-8"?>
<!-- Generator: visioncortex VTracer 0.6.12 -->
<svg version="1.1" xmlns="http://www.w3.org/2000/svg" width="1140" height="1104">
<path d="M0,0 L7,0 L5,26 L4,157 L4,735 L3,865 L3,905 L2,925 L0,926 Z " fill="#000000" transform="translate(0,0)"/>
<path d="M0,0 Z " fill="#000000" transform="translate(389,0)"/>
<path d="M0,0 L5,0 L5,1 L0,1 Z " fill="#000000" transform="translate(865,0)"/>
<path d="M0,0 L26,0 L25,2 L20,3 L10,3 L0,1 Z " fill="#000000" transform="translate(977,0)"/>
<path d="M0,0 L35,0 L34,2 L4,3 L0,1 Z " fill="#000000" transform="translate(1007,0)"/>
<path d="M0,0 L7,0 L6,2 L0,2 Z " fill="#000000" transform="translate(1068,0)"/>
<path d="M0,0 L21,0 L17,2 L1,2 Z " fill="#000000" transform="translate(1084,0)"/>
<path d="M0,0 L23,0 L23,116 L22,116 L21,111 L20,16 L19,7 L15,3 L3,2 Z " fill="#000000" transform="translate(1117,0)"/>
<path d="M0,0 L1,0 L1,70 L-2,69 L-1,58 L-1,1 Z " fill="#000000" transform="translate(1139,132)"/>
<path d="M0,0 L2,0 L2,17 L0,15 L0,7 L-1,2 Z " fill="#000000" transform="translate(1138,204)"/>
<path d="M0,0 L1,0 L1,580 L-2,579 L-2,11 L-1,2 Z " fill="#000000" transform="translate(1139,223)"/>
<path d="M0,0 L92,0 L115,1 L123,0 L155,1 L184,1 L187,5 L186,11 L176,25 L161,41 L156,44 L152,45 L82,45 L69,44 L22,44 L-25,43 L-30,38 L-31,36 L-31,9 L-28,3 L-25,1 Z " fill="#000000" transform="translate(829,273)"/>
<path d="M0,0 L84,0 L93,1 L137,1 L174,2 L178,5 L180,12 L181,23 L178,50 L174,65 L168,81 L161,92 L157,99 L148,108 L137,117 L121,125 L105,131 L101,132 L77,134 L67,132 L65,131 L54,130 L44,125 L38,123 L29,117 L19,110 L10,102 L4,94 L-8,71 L-11,62 L-14,50 L-17,44 L-22,41 L-31,42 L-39,43 L-44,40 L-43,33 L-35,26 L-30,22 L-24,15 L-16,8 L-11,3 L-7,1 Z " fill="#000000" transform="translate(806,350)"/>
<path d="M0,0 L9,1 L18,6 L30,17 L41,31 L47,41 L49,49 L50,55 L51,105 L50,125 L51,130 L50,144 L50,158 L52,187 L55,192 L64,195 L90,196 L116,197 L128,199 L139,205 L148,213 L153,221 L154,228 L156,230 L158,243 L158,350 L159,377 L159,395 L160,406 L164,411 L176,413 L228,413 L273,414 L299,413 L305,410 L308,403 L309,395 L309,287 L310,234 L311,216 L313,199 L316,189 L321,177 L327,166 L334,156 L341,149 L349,142 L357,135 L375,125 L394,120 L403,119 L429,119 L443,123 L454,127 L464,133 L472,137 L488,152 L499,169 L505,178 L511,197 L514,219 L515,255 L515,352 L516,366 L515,374 L515,397 L516,422 L516,495 L514,502 L508,506 L439,507 L430,506 L352,506 L311,505 L284,505 L274,504 L186,504 L166,502 L162,506 L160,516 L159,580 L157,599 L152,614 L144,624 L128,632 L123,634 L74,635 L53,634 L-49,634 L-118,633 L-133,632 L-144,629 L-154,624 L-162,616 L-168,604 L-171,592 L-173,554 L-175,541 L-184,528 L-190,520 L-201,506 L-210,494 L-217,482 L-219,477 L-222,464 L-223,401 L-222,391 L-222,379 L-223,370 L-223,323 L-222,280 L-222,230 L-221,213 L-216,190 L-209,174 L-204,164 L-193,152 L-187,144 L-178,136 L-168,128 L-159,120 L-148,111 L-135,100 L-129,95 L-118,86 L-104,74 L-95,68 L-88,61 L-80,55 L-70,47 L-65,42 L-50,30 L-39,22 L-27,11 L-18,4 L-9,1 Z M81,209 L57,210 L51,215 L49,226 L48,250 L48,291 L47,312 L44,327 L38,343 L32,354 L19,375 L9,384 L-5,395 L-10,401 L-18,408 L-31,419 L-48,433 L-58,442 L-70,453 L-79,460 L-89,469 L-99,477 L-108,486 L-117,493 L-123,497 L-124,500 L-132,507 L-145,519 L-152,527 L-153,536 L-148,545 L-140,551 L-136,552 L-123,553 L-85,554 L-39,555 L4,555 L77,556 L106,555 L123,555 L131,551 L140,542 L144,533 L146,523 L145,503 L142,494 L134,486 L127,482 L116,474 L109,467 L97,450 L90,435 L87,423 L88,416 L91,414 L117,413 L135,413 L142,408 L144,404 L145,393 L145,242 L143,232 L139,222 L132,216 L124,212 L121,211 L91,209 Z M447,327 L448,332 L450,332 L451,328 Z " fill="#000000" transform="translate(474,417)"/>
<path d="M0,0 L1,0 L1,295 L-8,295 L-5,291 L-3,277 L-3,176 L-2,3 Z " fill="#000000" transform="translate(1139,809)"/>
<path d="M0,0 L2,1 L3,30 L2,46 L0,47 Z " fill="#000000" transform="translate(0,939)"/>
<path d="M0,0 L80,1 L135,1 L190,3 L198,8 L204,18 L209,26 L212,32 L216,39 L223,51 L229,61 L234,70 L240,81 L247,92 L255,106 L261,115 L267,127 L268,132 L267,134 L258,135 L247,135 L237,136 L217,135 L120,135 L89,134 L71,134 L47,133 L0,133 L-5,131 L-8,128 L-9,124 L-10,109 L-11,64 L-11,45 L-12,38 L-12,15 L-10,6 L-5,2 Z " fill="#000000" transform="translate(796,949)"/>
<path d="M0,0 L2,1 L1,29 L0,29 Z " fill="#000000" transform="translate(0,992)"/>
<path d="M0,0 L1,4 Z " fill="#000000" transform="translate(0,1029)"/>
<path d="M0,0 L2,2 L2,40 L0,43 Z " fill="#000000" transform="translate(0,1038)"/>
<path d="M0,0 L2,2 L5,11 L10,14 L25,15 L50,14 L134,14 L234,15 L271,14 L279,15 L299,15 L333,16 L360,16 L405,17 L414,16 L440,17 L485,17 L486,19 L0,19 Z " fill="#000000" transform="translate(0,1085)"/>
<path d="M0,0 L56,0 L61,1 L61,2 L-1,2 Z " fill="#000000" transform="translate(495,1102)"/>
<path d="M0,0 L39,0 L40,2 L-1,2 Z " fill="#000000" transform="translate(567,1102)"/>
<path d="M0,0 L20,0 L20,2 L-3,2 Z " fill="#000000" transform="translate(626,1102)"/>
<path d="M0,0 L4,2 L-1,2 Z " fill="#000000" transform="translate(884,1102)"/>
<path d="M0,0 L2,2 L-1,1 Z " fill="#000000" transform="translate(912,1102)"/>
</svg>
