<?xml version="1.0" encoding="UTF-8"?>
<!-- Generator: visioncortex VTracer 0.6.12 -->
<svg version="1.1" xmlns="http://www.w3.org/2000/svg" width="1092" height="1197">
<path d="M0,0 L238,0 L243,1 L366,1 L440,2 L477,2 L547,1 L554,2 L796,2 L860,3 L1050,3 L1057,6 L1059,9 L1060,31 L1060,49 L1059,103 L1058,106 L1058,114 L1059,117 L1060,152 L1059,409 L1059,801 L1057,809 L1059,828 L1059,1120 L1054,1125 L1043,1127 L1012,1128 L955,1127 L931,1128 L844,1128 L793,1127 L774,1127 L754,1126 L712,1126 L701,1127 L661,1125 L519,1125 L498,1126 L493,1125 L386,1125 L362,1124 L292,1124 L265,1123 L235,1123 L189,1122 L153,1123 L90,1122 L53,1122 L0,1121 L0,1111 L14,1110 L44,1110 L144,1111 L181,1110 L189,1111 L209,1111 L234,1112 L267,1112 L315,1113 L322,1112 L350,1113 L556,1113 L559,1114 L791,1114 L796,1113 L815,1114 L947,1114 L998,1115 L1036,1115 L1043,1112 L1045,1107 L1046,1090 L1046,1008 L1047,920 L1047,824 L1049,819 L1048,814 L1047,813 L1047,266 L1048,224 L1048,213 L1047,208 L1048,201 L1048,122 L1047,25 L1045,16 L1043,14 L1030,13 L978,13 L976,12 L958,12 L951,13 L889,13 L859,12 L631,12 L620,11 L588,11 L583,10 L551,10 L523,11 L459,11 L452,10 L451,11 L336,11 L329,12 L324,10 L317,11 L296,12 L292,11 L261,11 L254,10 L243,10 L227,11 L220,9 L202,10 L149,10 L126,9 L55,9 L37,10 L12,9 L0,8 Z " fill="#000000" transform="translate(0,37)"/>
<path d="M0,0 L92,0 L115,1 L123,0 L155,1 L184,1 L187,5 L186,11 L176,25 L161,41 L156,44 L152,45 L82,45 L69,44 L22,44 L-25,43 L-30,38 L-31,36 L-31,9 L-28,3 L-25,1 Z " fill="#000000" transform="translate(739,321)"/>
<path d="M0,0 L84,0 L93,1 L137,1 L174,2 L178,6 L180,12 L181,23 L178,50 L174,65 L168,81 L161,92 L157,99 L148,108 L137,117 L121,125 L105,131 L101,132 L77,134 L67,132 L65,131 L54,130 L44,125 L38,123 L29,117 L19,110 L10,102 L4,94 L-8,71 L-11,62 L-14,50 L-17,44 L-22,41 L-31,42 L-39,43 L-44,40 L-43,33 L-35,26 L-30,22 L-24,15 L-16,8 L-11,3 L-7,1 Z " fill="#000000" transform="translate(716,398)"/>
<path d="M0,0 L9,1 L18,6 L30,17 L41,31 L47,41 L49,49 L50,55 L51,105 L50,125 L51,130 L50,144 L50,158 L52,187 L55,192 L64,195 L90,196 L116,197 L128,199 L136,203 L146,211 L153,221 L154,228 L156,230 L158,243 L158,350 L159,377 L159,395 L160,406 L164,411 L176,413 L228,413 L273,414 L299,413 L305,410 L308,403 L309,395 L309,287 L310,234 L311,216 L313,199 L316,189 L321,177 L327,166 L334,156 L341,149 L349,142 L357,135 L375,125 L394,120 L403,119 L429,119 L443,123 L454,127 L464,133 L470,136 L483,147 L490,155 L501,172 L505,178 L511,197 L514,219 L515,255 L515,352 L516,366 L515,374 L515,397 L516,422 L516,495 L514,502 L508,506 L439,507 L430,506 L352,506 L310,505 L284,505 L274,504 L186,504 L166,502 L162,506 L160,516 L159,580 L158,585 L158,593 L155,605 L152,614 L144,624 L128,632 L123,634 L74,635 L53,634 L44,634 L34,633 L20,634 L-49,634 L-118,633 L-133,632 L-144,629 L-154,624 L-162,616 L-168,604 L-171,592 L-173,554 L-175,541 L-184,528 L-193,516 L-201,506 L-210,494 L-217,482 L-219,477 L-222,464 L-223,401 L-222,391 L-222,379 L-223,370 L-223,323 L-222,280 L-222,230 L-221,213 L-216,191 L-211,178 L-204,164 L-193,152 L-187,144 L-178,136 L-168,128 L-159,120 L-148,111 L-135,100 L-129,95 L-118,86 L-104,74 L-95,68 L-88,61 L-80,55 L-70,47 L-65,42 L-50,30 L-39,22 L-27,11 L-18,4 L-9,1 Z M81,209 L57,210 L51,215 L49,226 L48,250 L48,291 L47,312 L44,327 L38,343 L32,354 L19,375 L9,384 L-5,395 L-9,399 L-9,401 L-13,403 L-21,411 L-30,418 L-43,429 L-54,438 L-63,447 L-77,458 L-89,469 L-99,477 L-108,486 L-117,493 L-123,497 L-124,500 L-132,507 L-145,519 L-152,527 L-153,536 L-148,545 L-140,551 L-136,552 L-123,553 L-85,554 L-39,555 L4,555 L77,556 L106,555 L123,555 L131,551 L140,542 L144,533 L146,523 L145,503 L142,494 L134,486 L127,482 L119,476 L109,467 L97,450 L90,435 L87,423 L88,416 L91,414 L117,413 L135,413 L143,407 L144,404 L145,393 L145,242 L143,232 L139,222 L132,216 L124,212 L121,211 L91,209 Z M447,327 L448,332 L450,332 L451,328 Z " fill="#000000" transform="translate(384,465)"/>
<path d="M0,0 L79,1 L134,1 L190,3 L198,8 L204,18 L209,26 L212,32 L216,39 L223,51 L229,61 L234,70 L240,81 L247,92 L255,106 L261,115 L267,127 L268,132 L267,134 L258,135 L247,135 L237,136 L216,135 L120,135 L89,134 L71,134 L47,133 L0,133 L-5,131 L-8,128 L-9,124 L-10,109 L-11,64 L-11,45 L-12,38 L-12,15 L-10,6 L-5,2 Z " fill="#000000" transform="translate(706,997)"/>
</svg>
