<?xml version="1.0" encoding="UTF-8"?>
<!-- Generator: visioncortex VTracer 0.6.12 -->
<svg version="1.1" xmlns="http://www.w3.org/2000/svg" width="1128" height="1128">
<path d="M0,0 L52,0 L50,2 L46,3 L29,4 L6,10 L-10,18 L-26,29 L-39,40 L-44,45 L-56,60 L-64,74 L-71,95 L-74,110 L-76,111 L-76,72 L-71,64 L-65,54 L-57,44 L-47,34 L-40,26 L-29,18 L-19,11 L-2,2 L0,2 Z " fill="#000000" transform="translate(76,0)"/>
<path d="M0,0 L8,0 L8,1 L0,1 Z " fill="#000000" transform="translate(132,0)"/>
<path d="M0,0 L4,1 Z " fill="#000000" transform="translate(180,0)"/>
<path d="M0,0 L34,0 L34,2 L40,3 L50,10 L59,16 L71,26 L78,32 L82,39 L89,48 L94,57 L96,63 L100,70 L105,83 L110,100 L114,113 L116,138 L117,139 L117,435 L116,435 L115,427 L113,356 L113,339 L111,284 L110,237 L109,168 L105,137 L103,119 L98,97 L93,82 L90,73 L86,61 L81,56 L75,45 L68,38 L63,33 L50,23 L41,17 L27,9 L11,4 L1,2 Z " fill="#000000" transform="translate(1011,0)"/>
<path d="M0,0 L206,0 L210,5 L211,48 L211,62 L208,67 L206,68 L190,69 L15,69 L8,63 L1,53 L-8,39 L-16,28 L-25,14 L-29,7 L-28,2 L-27,1 Z " fill="#000000" transform="translate(650,192)"/>
<path d="M0,0 L95,0 L101,2 L103,11 L103,47 L101,67 L96,83 L88,99 L81,108 L69,121 L59,128 L44,136 L36,139 L16,143 L-7,142 L-19,139 L-36,133 L-47,126 L-58,117 L-68,105 L-75,94 L-82,79 L-86,64 L-88,53 L-90,50 L-93,49 L-127,48 L-128,43 L-118,29 L-107,14 L-100,6 L-94,1 Z " fill="#000000" transform="translate(758,281)"/>
<path d="M0,0 L1,4 Z " fill="#000000" transform="translate(0,406)"/>
<path d="M0,0 L2,3 L1,10 L0,10 Z " fill="#000000" transform="translate(0,417)"/>
<path d="M0,0 L1,0 L2,13 L0,16 Z " fill="#000000" transform="translate(0,437)"/>
<path d="M0,0 L52,0 L63,1 L67,4 L68,10 L69,100 L69,131 L70,222 L70,273 L71,338 L73,348 L77,352 L79,353 L224,353 L246,352 L268,352 L318,353 L355,353 L421,354 L424,358 L425,411 L423,424 L419,436 L412,445 L404,451 L394,456 L385,457 L349,458 L193,458 L111,457 L96,453 L88,448 L80,440 L75,430 L73,424 L72,416 L71,358 L69,354 L67,353 L12,352 L-2,350 L-15,343 L-20,339 L-26,331 L-30,323 L-32,314 L-33,305 L-34,232 L-34,202 L-35,132 L-35,38 L-32,26 L-28,18 L-23,13 L-14,6 Z " fill="#000000" transform="translate(159,456)"/>
<path d="M0,0 L179,0 L180,1 L180,6 L167,23 L156,38 L148,48 L135,66 L127,76 L113,95 L105,105 L95,118 L85,131 L78,141 L69,153 L63,161 L50,178 L44,186 L43,188 L41,188 L39,193 L30,204 L24,213 L15,224 L2,242 L-2,247 L-9,255 L-18,268 L-28,282 L-33,281 L-35,150 L-36,95 L-37,93 L-42,94 L-48,101 L-56,112 L-65,123 L-73,134 L-81,145 L-88,153 L-95,163 L-102,172 L-116,191 L-122,199 L-128,207 L-137,219 L-146,231 L-158,247 L-168,260 L-179,275 L-188,287 L-200,303 L-210,316 L-221,330 L-232,338 L-240,341 L-256,342 L-267,338 L-275,333 L-280,328 L-285,323 L-290,313 L-292,305 L-292,293 L-288,280 L-282,269 L-271,255 L-263,244 L-255,233 L-247,222 L-237,209 L-227,196 L-223,188 L-216,179 L-207,167 L-198,154 L-189,143 L-181,132 L-175,123 L-167,113 L-157,100 L-145,84 L-141,78 L-129,63 L-118,47 L-108,34 L-96,21 L-89,14 L-75,5 L-61,1 Z " fill="#000000" transform="translate(666,456)"/>
<path d="M0,0 L15,1 L28,7 L39,14 L51,26 L59,43 L62,60 L63,236 L64,378 L64,450 L61,454 L51,455 L-274,456 L-279,451 L-279,356 L-276,353 L-271,352 L-78,352 L-37,351 L-31,350 L-31,306 L-34,303 L-44,302 L-219,302 L-226,300 L-227,297 L-217,283 L-205,267 L-194,252 L-188,244 L-182,236 L-170,221 L-162,210 L-151,195 L-145,187 L-138,178 L-130,167 L-123,159 L-113,145 L-107,137 L-95,121 L-84,107 L-72,91 L-60,76 L-52,65 L-43,54 L-32,39 L-25,30 L-16,19 L-7,6 Z M36,369 L35,374 L40,374 L41,371 L40,369 Z " fill="#000000" transform="translate(913,457)"/>
<path d="M0,0 L1,0 L1,6 L0,6 Z " fill="#000000" transform="translate(0,464)"/>
<path d="M0,0 L1,4 Z " fill="#000000" transform="translate(0,480)"/>
<path d="M0,0 L2,2 L3,20 L4,185 L4,279 L6,370 L6,511 L10,532 L13,543 L19,559 L17,565 L23,567 L26,571 L32,582 L45,592 L50,598 L63,608 L74,615 L86,621 L98,625 L113,628 L125,629 L129,631 L129,632 L85,632 L85,630 L75,628 L61,621 L61,619 L57,617 L42,606 L32,597 L25,589 L17,580 L6,559 L2,546 L2,544 L0,544 Z " fill="#000000" transform="translate(0,496)"/>
<path d="M0,0 L1,0 L1,38 L-7,54 L-18,72 L-25,79 L-32,87 L-41,96 L-52,103 L-68,113 L-89,123 L-93,125 L-190,125 L-187,123 L-145,122 L-114,120 L-93,114 L-70,103 L-59,96 L-48,88 L-36,77 L-25,63 L-17,52 L-9,36 L-4,19 L-2,4 Z " fill="#000000" transform="translate(1127,1003)"/>
<path d="M0,0 L34,0 L36,2 L-1,2 Z " fill="#000000" transform="translate(886,1126)"/>
<path d="M0,0 Z " fill="#000000" transform="translate(756,1127)"/>
<path d="M0,0 L11,0 L11,1 L0,1 Z " fill="#000000" transform="translate(844,1127)"/>
<path d="M0,0 L2,1 Z " fill="#000000" transform="translate(858,1127)"/>
<path d="M0,0 L4,2 L-4,2 Z " fill="#000000" transform="translate(928,1126)"/>
</svg>
