<?xml version="1.0" encoding="UTF-8"?>
<!-- Generator: visioncortex VTracer 0.6.12 -->
<svg version="1.1" xmlns="http://www.w3.org/2000/svg" width="1152" height="1140">
<path d="M0,0 L947,0 L947,2 L953,3 L969,11 L980,17 L990,24 L998,30 L1008,39 L1017,50 L1025,59 L1033,71 L1041,85 L1045,95 L1046,96 L1046,1027 L1044,1027 L1042,1037 L1034,1054 L1027,1068 L1018,1082 L1006,1095 L999,1102 L994,1107 L985,1114 L975,1122 L967,1126 L953,1134 L945,1138 L940,1140 L-6,1140 L-6,1138 L-14,1137 L-28,1129 L-35,1126 L-44,1118 L-52,1112 L-62,1105 L-63,1102 L-67,1100 L-74,1092 L-81,1083 L-87,1075 L-96,1058 L-103,1044 L-106,1037 L-106,134 L-103,123 L-101,112 L-94,93 L-86,75 L-77,61 L-69,52 L-60,41 L-50,31 L-42,25 L-36,21 L-31,16 L-12,6 L-1,1 Z M101,5 L93,6 L49,6 L30,9 L27,11 L13,14 L-6,23 L-15,26 L-25,33 L-35,41 L-43,48 L-53,58 L-63,71 L-73,86 L-78,97 L-84,118 L-87,132 L-90,150 L-91,170 L-91,207 L-92,268 L-92,297 L-93,414 L-93,472 L-94,522 L-95,528 L-95,673 L-96,737 L-96,793 L-97,809 L-97,966 L-96,971 L-96,994 L-93,1011 L-90,1023 L-85,1039 L-78,1055 L-69,1069 L-63,1077 L-58,1081 L-51,1089 L-46,1095 L-32,1106 L-26,1110 L-19,1113 L-3,1121 L11,1126 L22,1128 L28,1130 L44,1130 L53,1131 L125,1131 L150,1130 L192,1131 L201,1130 L209,1131 L248,1131 L294,1130 L326,1131 L345,1130 L365,1131 L413,1131 L429,1130 L434,1131 L543,1131 L643,1132 L744,1132 L752,1134 L762,1132 L770,1132 L789,1134 L796,1133 L827,1133 L837,1134 L853,1134 L861,1133 L870,1133 L879,1134 L902,1130 L917,1128 L934,1124 L946,1119 L963,1110 L969,1105 L975,1102 L986,1092 L994,1086 L998,1080 L1008,1067 L1013,1060 L1022,1041 L1028,1027 L1032,1012 L1034,997 L1035,962 L1035,935 L1036,928 L1036,837 L1037,814 L1037,780 L1038,706 L1038,638 L1040,583 L1040,514 L1041,461 L1041,290 L1042,260 L1042,157 L1041,140 L1037,124 L1035,115 L1030,99 L1022,83 L1013,69 L1005,61 L994,47 L983,39 L971,30 L964,26 L955,21 L936,15 L928,12 L916,9 L888,7 L846,7 L839,6 L834,8 L828,7 L821,6 L819,7 L785,7 L760,6 L738,6 L710,8 L697,7 L671,6 L629,6 L625,7 L598,7 L592,6 L574,7 L558,7 L556,6 L340,6 L299,5 Z M-65,1082 L-65,1086 L-62,1085 Z " fill="#000000" transform="translate(106,0)"/>
<path d="M0,0 L40,1 L55,2 L83,5 L98,8 L100,9 L113,11 L139,18 L153,22 L176,30 L187,35 L200,39 L215,47 L224,50 L240,59 L256,67 L270,75 L288,87 L299,94 L309,102 L320,110 L335,123 L340,127 L348,134 L363,148 L368,153 L384,170 L392,180 L402,190 L406,198 L416,211 L418,217 L425,226 L431,234 L437,244 L442,254 L445,259 L448,266 L456,282 L460,291 L463,296 L468,309 L477,334 L480,345 L484,355 L487,367 L490,380 L492,394 L496,413 L498,425 L499,428 L501,453 L502,480 L501,487 L501,515 L500,522 L499,539 L496,562 L494,568 L492,577 L489,590 L488,592 L487,602 L483,613 L480,625 L473,647 L467,660 L465,666 L457,683 L449,699 L443,711 L438,720 L432,731 L428,735 L420,750 L413,756 L408,766 L397,780 L389,789 L381,799 L370,811 L359,822 L354,829 L343,838 L330,850 L321,856 L316,861 L308,867 L302,872 L294,878 L283,885 L270,894 L259,900 L250,906 L240,911 L235,915 L227,918 L210,926 L196,933 L185,938 L175,941 L163,946 L153,949 L149,951 L138,952 L131,956 L115,959 L100,962 L88,966 L75,967 L72,968 L57,969 L51,971 L20,971 L11,972 L-19,972 L-32,971 L-35,970 L-51,969 L-61,967 L-78,966 L-84,964 L-97,963 L-100,961 L-110,959 L-122,957 L-127,955 L-135,953 L-139,951 L-148,949 L-157,946 L-165,944 L-179,938 L-189,933 L-198,932 L-206,925 L-232,913 L-242,909 L-250,902 L-264,894 L-283,883 L-288,878 L-296,872 L-300,868 L-309,861 L-309,859 L-313,857 L-325,848 L-336,838 L-340,833 L-345,829 L-350,823 L-358,816 L-369,804 L-378,793 L-386,783 L-390,777 L-399,766 L-406,754 L-416,740 L-422,728 L-429,712 L-434,705 L-445,682 L-449,673 L-453,663 L-458,645 L-461,638 L-466,621 L-472,595 L-475,579 L-478,563 L-481,540 L-483,518 L-483,478 L-481,443 L-479,429 L-476,409 L-471,382 L-466,365 L-463,353 L-455,329 L-450,316 L-443,299 L-437,287 L-434,278 L-426,262 L-415,242 L-408,232 L-396,213 L-391,207 L-387,201 L-378,188 L-369,178 L-366,172 L-358,165 L-349,155 L-341,148 L-334,139 L-325,132 L-308,116 L-301,110 L-291,102 L-278,93 L-269,87 L-247,73 L-231,64 L-223,60 L-213,54 L-194,45 L-176,37 L-167,34 L-155,30 L-143,25 L-125,20 L-103,14 L-89,11 L-74,8 L-61,5 L-27,2 Z M-5,45 L-21,47 L-29,46 L-33,48 L-58,49 L-74,52 L-81,52 L-88,55 L-103,57 L-112,61 L-121,63 L-125,65 L-142,69 L-153,74 L-162,76 L-178,84 L-189,88 L-207,98 L-223,105 L-231,112 L-242,119 L-252,125 L-253,128 L-258,130 L-267,137 L-276,144 L-287,152 L-291,156 L-291,158 L-295,160 L-306,169 L-321,185 L-330,195 L-336,203 L-345,212 L-351,221 L-360,232 L-368,243 L-374,251 L-378,259 L-387,272 L-392,285 L-398,293 L-405,310 L-410,319 L-416,335 L-426,365 L-428,372 L-430,383 L-434,398 L-440,434 L-442,461 L-443,489 L-442,512 L-441,519 L-438,563 L-434,581 L-432,587 L-431,597 L-428,606 L-422,625 L-415,645 L-411,657 L-406,668 L-397,688 L-392,694 L-384,710 L-373,728 L-364,742 L-362,742 L-360,746 L-355,754 L-346,765 L-337,777 L-325,790 L-317,797 L-308,807 L-303,811 L-298,816 L-286,827 L-270,839 L-259,847 L-248,855 L-235,862 L-224,869 L-215,875 L-202,882 L-195,885 L-190,888 L-183,890 L-169,897 L-153,903 L-138,909 L-131,911 L-117,915 L-104,918 L-95,919 L-89,921 L-72,924 L-58,927 L-40,929 L-25,930 L-22,932 L-17,931 L47,930 L60,929 L66,927 L87,924 L96,922 L107,921 L128,915 L144,910 L157,905 L168,901 L177,898 L206,885 L220,878 L227,873 L237,869 L242,865 L248,862 L256,856 L263,852 L275,843 L281,839 L289,832 L299,825 L307,818 L317,810 L322,806 L326,802 L330,797 L335,792 L342,786 L349,778 L357,768 L365,760 L372,749 L376,744 L376,742 L378,742 L386,728 L394,716 L400,707 L406,696 L412,686 L418,674 L420,667 L424,660 L427,653 L431,643 L435,631 L442,610 L444,604 L446,595 L449,582 L451,575 L453,560 L454,557 L455,545 L457,539 L459,515 L460,505 L459,471 L459,445 L457,435 L454,413 L451,397 L449,392 L447,380 L444,368 L441,358 L437,349 L434,340 L432,331 L427,320 L416,297 L414,292 L409,282 L401,268 L397,260 L391,252 L384,240 L374,228 L366,218 L356,206 L352,200 L344,192 L337,184 L326,172 L319,164 L307,154 L297,147 L281,134 L262,121 L254,115 L246,111 L238,105 L224,98 L214,93 L207,90 L195,85 L182,78 L173,76 L159,69 L149,67 L134,62 L118,58 L103,54 L86,51 L60,47 L38,47 L36,46 L23,46 L20,45 Z " fill="#000000" transform="translate(578,75)"/>
<path d="M0,0 L21,0 L41,5 L60,14 L71,22 L79,29 L88,40 L97,53 L103,68 L105,76 L106,85 L108,92 L107,104 L103,125 L99,134 L97,141 L88,155 L80,163 L75,170 L64,178 L56,184 L40,192 L28,193 L25,195 L15,196 L5,196 L-15,192 L-29,187 L-44,177 L-50,172 L-55,169 L-63,160 L-69,155 L-77,140 L-82,126 L-85,115 L-86,102 L-86,89 L-83,73 L-74,52 L-69,44 L-61,34 L-56,28 L-48,21 L-42,16 L-31,10 L-26,7 L-5,1 Z M0,33 L-5,35 L-15,37 L-28,44 L-35,51 L-43,58 L-51,73 L-54,80 L-55,93 L-55,105 L-51,122 L-40,140 L-33,147 L-20,155 L-4,160 L4,162 L17,162 L33,159 L46,152 L60,140 L67,130 L72,119 L75,109 L75,92 L71,76 L66,66 L63,62 L60,56 L45,42 L27,36 L22,33 Z " fill="#000000" transform="translate(565,135)"/>
<path d="M0,0 L7,0 L16,4 L40,17 L48,21 L56,27 L65,32 L74,38 L83,44 L92,50 L103,57 L111,62 L122,68 L132,75 L139,79 L143,83 L154,92 L164,104 L170,118 L171,122 L171,150 L168,157 L163,169 L159,178 L156,183 L152,200 L152,211 L157,223 L164,230 L174,233 L186,237 L193,244 L195,257 L195,302 L194,321 L194,330 L190,345 L180,354 L174,357 L166,359 L150,359 L140,354 L133,348 L127,340 L127,338 L117,336 L109,331 L101,322 L96,317 L89,303 L79,295 L71,291 L60,280 L51,268 L44,262 L36,251 L35,247 L35,238 L36,235 L36,227 L33,219 L29,208 L29,187 L32,177 L32,168 L29,152 L29,132 L26,125 L21,115 L16,91 L8,80 L2,66 L0,59 L1,44 L-2,35 L-7,23 L-8,19 L-8,9 L-1,1 Z " fill="#000000" transform="translate(256,285)"/>
<path d="M0,0 L8,0 L17,5 L20,11 L20,19 L14,31 L8,41 L7,46 L6,57 L3,69 L-3,80 L-11,89 L-13,89 L-18,114 L-29,134 L-30,137 L-29,155 L-28,165 L-35,188 L-35,196 L-34,202 L-34,212 L-36,222 L-41,232 L-44,235 L-48,244 L-50,251 L-52,263 L-55,269 L-59,271 L-61,277 L-66,282 L-71,290 L-75,301 L-85,311 L-98,318 L-103,322 L-111,329 L-125,336 L-137,340 L-152,351 L-163,355 L-170,356 L-180,356 L-194,350 L-198,342 L-200,336 L-201,317 L-201,292 L-199,254 L-197,245 L-192,237 L-184,232 L-173,228 L-164,223 L-156,215 L-153,207 L-153,195 L-156,181 L-159,170 L-164,156 L-168,146 L-171,133 L-170,124 L-167,113 L-161,103 L-145,87 L-137,80 L-126,72 L-117,66 L-106,59 L-97,53 L-83,44 L-64,33 L-52,27 L-46,22 L-29,13 L-10,2 Z " fill="#000000" transform="translate(903,291)"/>
<path d="M0,0 L17,2 L27,3 L40,9 L47,14 L52,23 L54,34 L54,79 L56,91 L61,104 L68,114 L72,122 L72,129 L68,137 L66,138 L49,138 L36,139 L35,140 L42,142 L55,142 L76,144 L100,146 L108,148 L114,155 L116,171 L115,182 L115,274 L114,282 L113,319 L113,354 L112,358 L110,393 L104,404 L99,409 L96,411 L89,411 L86,407 L84,395 L85,372 L86,333 L87,301 L87,266 L86,256 L82,256 L81,258 L80,277 L80,293 L79,313 L79,336 L78,346 L78,369 L77,403 L72,416 L66,421 L59,421 L52,418 L50,415 L49,404 L49,348 L51,287 L51,259 L50,256 L47,255 L45,287 L44,337 L43,372 L43,393 L42,396 L41,409 L37,414 L30,418 L25,418 L20,414 L16,407 L14,398 L13,388 L11,389 L9,408 L8,419 L5,426 L-3,435 L-8,435 L-16,428 L-18,423 L-19,400 L-19,264 L-22,265 L-23,269 L-23,289 L-24,303 L-25,378 L-26,387 L-25,398 L-30,410 L-35,416 L-35,420 L-24,426 L-14,436 L-10,444 L-4,448 L3,447 L10,441 L17,433 L24,426 L31,420 L46,421 L57,426 L67,435 L72,439 L78,448 L84,460 L90,475 L95,485 L100,505 L103,522 L104,525 L104,543 L100,551 L90,561 L84,570 L82,576 L76,584 L71,586 L69,590 L63,593 L59,600 L53,604 L45,613 L39,615 L28,616 L22,615 L15,619 L8,627 L-3,633 L-10,634 L-19,634 L-30,626 L-37,619 L-52,615 L-66,608 L-72,598 L-76,593 L-87,587 L-94,580 L-100,571 L-105,554 L-107,550 L-111,548 L-119,541 L-124,531 L-123,511 L-120,502 L-115,492 L-109,481 L-104,472 L-98,465 L-87,447 L-75,434 L-63,423 L-50,418 L-50,413 L-53,408 L-55,395 L-55,346 L-58,345 L-59,347 L-61,407 L-66,413 L-70,415 L-77,415 L-84,411 L-87,405 L-88,385 L-88,257 L-92,257 L-93,265 L-94,317 L-94,328 L-95,341 L-97,391 L-98,398 L-104,404 L-111,403 L-117,399 L-121,394 L-124,382 L-123,346 L-123,321 L-122,314 L-122,248 L-121,216 L-120,213 L-120,190 L-119,168 L-118,158 L-114,150 L-109,145 L-106,144 L-75,143 L-61,142 L-23,142 L-16,140 L-7,141 L10,142 L15,144 L19,151 L22,150 L24,144 L30,141 L30,139 L16,138 L11,137 L2,137 L0,138 L-17,137 L-24,134 L-32,134 L-39,137 L-46,137 L-48,136 L-60,136 L-65,132 L-67,125 L-64,119 L-52,108 L-43,101 L-36,90 L-34,84 L-35,74 L-39,67 L-45,64 L-60,64 L-72,71 L-78,77 L-83,77 L-87,72 L-89,64 L-88,46 L-83,36 L-77,28 L-67,23 L-47,19 L-35,12 L-26,5 L-22,3 Z M-57,270 L-58,271 L-58,278 L-54,277 L-53,271 Z M12,281 L11,282 L11,294 L15,294 L16,292 L16,283 L15,281 Z M-57,287 L-58,288 L-58,306 L-54,306 L-53,302 L-54,289 L-55,287 Z M12,298 L11,299 L11,326 L15,326 L16,302 L14,298 Z M-57,317 L-59,320 L-59,329 L-57,337 L-55,335 L-54,319 Z M11,345 L10,350 L14,350 L13,345 Z " fill="#000000" transform="translate(580,342)"/>
<path d="M0,0 L6,0 L14,12 L18,29 L20,32 L27,32 L34,31 L37,35 L37,53 L35,62 L40,63 L41,60 L48,55 L53,56 L56,63 L57,69 L55,83 L54,93 L56,95 L66,94 L70,98 L71,106 L71,119 L82,120 L85,123 L86,126 L86,139 L82,155 L75,162 L71,163 L68,172 L74,171 L87,156 L97,148 L103,148 L106,153 L106,164 L103,175 L95,186 L90,192 L87,195 L86,201 L96,204 L115,205 L128,208 L138,215 L147,220 L153,219 L159,215 L167,199 L172,185 L180,169 L186,160 L192,155 L197,150 L206,141 L215,137 L229,130 L236,128 L246,129 L252,133 L256,139 L257,162 L258,179 L257,182 L256,196 L252,208 L247,215 L239,220 L229,230 L223,238 L221,238 L219,243 L210,250 L196,257 L170,257 L166,261 L156,278 L152,284 L151,292 L156,300 L163,311 L170,320 L179,334 L180,336 L180,342 L176,345 L170,343 L165,338 L159,330 L151,319 L142,307 L135,301 L132,300 L117,299 L111,296 L105,289 L99,278 L93,270 L90,265 L85,261 L78,251 L75,244 L74,238 L74,216 L70,208 L65,205 L56,207 L48,210 L40,211 L29,211 L20,206 L14,199 L13,197 L13,190 L19,183 L18,178 L11,174 L6,169 L-1,163 L-2,156 L0,151 L-1,144 L-6,139 L-14,132 L-17,126 L-17,120 L-12,113 L-13,109 L-18,103 L-24,95 L-28,86 L-28,79 L-26,74 L-27,67 L-32,59 L-34,51 L-33,43 L-27,39 L-18,41 L-10,44 L-5,43 L-6,26 L-6,13 L-2,2 Z " fill="#000000" transform="translate(191,531)"/>
<path d="M0,0 L4,2 L6,8 L8,15 L11,16 L19,9 L20,8 L25,8 L27,12 L27,22 L25,28 L20,31 L14,31 L8,24 L8,22 L2,23 L-3,24 L-7,22 L-11,22 L-15,33 L-20,37 L-29,39 L-32,44 L-34,54 L-39,59 L-45,57 L-47,53 L-46,44 L-40,35 L-32,32 L-30,32 L-27,23 L-22,14 L-17,12 L-13,17 L-9,16 L-4,4 Z " fill="#000000" transform="translate(910,573)"/>
<path d="M0,0 L5,2 L6,4 L7,13 L13,21 L14,25 L14,36 L18,41 L18,51 L13,57 L8,58 L4,54 L1,45 L-4,39 L-8,26 L-12,18 L-11,10 L-6,4 Z " fill="#000000" transform="translate(945,597)"/>
<path d="M0,0 L17,5 L41,18 L57,28 L62,32 L70,43 L75,51 L83,67 L89,81 L92,88 L97,94 L102,96 L108,95 L118,86 L127,80 L141,77 L147,70 L151,61 L153,52 L155,42 L158,32 L162,31 L164,33 L166,43 L168,50 L168,63 L165,70 L165,82 L170,92 L173,104 L173,117 L169,127 L167,131 L165,131 L163,135 L157,146 L150,157 L141,166 L135,169 L119,169 L106,164 L98,157 L92,149 L84,132 L82,130 L66,129 L61,130 L45,129 L34,123 L23,115 L11,102 L6,99 L-3,95 L-8,90 L-10,88 L-11,67 L-11,40 L-10,14 L-7,5 L-3,1 Z " fill="#000000" transform="translate(712,669)"/>
<path d="M0,0 Z " fill="#000000" transform="translate(796,678)"/>
</svg>
