<?xml version="1.0" encoding="UTF-8"?>
<!-- Generator: visioncortex VTracer 0.6.12 -->
<svg version="1.1" xmlns="http://www.w3.org/2000/svg" width="744" height="750">
<path d="M0,0 L6,1 L11,5 L18,16 L22,25 L29,33 L34,39 L37,49 L45,59 L49,65 L53,75 L61,86 L66,99 L71,104 L75,109 L78,113 L80,121 L81,124 L86,129 L91,136 L93,142 L99,152 L99,154 L103,156 L105,162 L105,172 L100,177 L97,178 L95,182 L88,188 L78,202 L73,207 L71,216 L67,223 L67,229 L63,237 L63,244 L60,248 L57,253 L51,256 L43,256 L38,257 L21,256 L15,255 L9,256 L5,255 L3,256 L-135,256 L-138,254 L-141,249 L-142,248 L-142,235 L-141,232 L-142,228 L-140,225 L-141,216 L-139,215 L-139,208 L-137,198 L-136,193 L-134,191 L-132,178 L-130,176 L-130,169 L-127,163 L-126,159 L-125,154 L-120,146 L-119,137 L-114,132 L-112,127 L-112,121 L-108,115 L-104,111 L-101,107 L-100,101 L-97,96 L-85,82 L-81,76 L-78,69 L-70,59 L-59,47 L-54,43 L-45,32 L-37,25 L-27,16 L-19,11 L-13,9 L-8,7 L-8,5 L-6,5 L-5,2 Z M-42,49 Z " fill="#000000" transform="translate(211,102)"/>
<path d="M0,0 L7,2 L13,6 L22,13 L22,15 L28,17 L36,22 L46,31 L51,36 L56,39 L57,43 L61,44 L66,50 L66,52 L69,53 L78,64 L85,74 L90,82 L98,91 L100,96 L102,97 L105,102 L107,107 L113,117 L118,127 L121,134 L126,141 L128,149 L133,157 L134,166 L136,168 L138,180 L141,183 L143,195 L144,197 L144,205 L146,210 L148,221 L148,229 L150,231 L149,235 L148,238 L150,243 L148,245 L149,252 L144,256 L139,257 L37,257 L24,256 L-32,257 L-44,256 L-49,254 L-52,248 L-52,240 L-54,238 L-54,231 L-59,223 L-61,213 L-64,209 L-64,202 L-71,198 L-74,191 L-79,186 L-86,178 L-94,171 L-98,167 L-97,163 L-95,159 L-95,157 L-97,157 L-95,153 L-92,148 L-89,145 L-87,142 L-85,142 L-83,134 L-82,129 L-78,124 L-73,119 L-72,118 L-71,111 L-65,101 L-60,99 L-58,93 L-54,82 L-45,71 L-42,65 L-40,58 L-36,54 L-32,49 L-31,41 L-23,31 L-20,27 L-18,27 L-16,15 L-7,6 L-2,1 Z " fill="#000000" transform="translate(535,103)"/>
<path d="M0,0 Z " fill="#000000" transform="translate(64,142)"/>
<path d="M0,0 L2,0 L1,2 Z " fill="#000000" transform="translate(742,267)"/>
<path d="M0,0 L2,0 L2,3 L-1,2 Z " fill="#000000" transform="translate(742,276)"/>
<path d="M0,0 L12,0 L19,2 L20,3 L30,5 L40,14 L46,18 L50,24 L55,29 L60,38 L61,47 L63,51 L61,55 L63,58 L62,66 L63,70 L59,75 L58,84 L40,102 L33,108 L24,110 L22,112 L-8,112 L-12,110 L-20,108 L-33,98 L-33,96 L-37,94 L-46,83 L-46,81 L-49,80 L-50,78 L-51,69 L-54,64 L-52,61 L-53,57 L-54,53 L-52,51 L-50,38 L-49,37 L-47,27 L-44,23 L-42,23 L-40,19 L-34,12 L-26,6 L-18,5 L-12,1 Z " fill="#000000" transform="translate(373,305)"/>
<path d="M0,0 L6,0 L9,2 L18,4 L22,7 L40,8 L45,9 L58,9 L75,8 L80,6 L82,4 L92,3 L97,0 L102,2 L111,13 L115,20 L121,32 L127,39 L131,49 L138,59 L141,62 L145,73 L147,75 L147,79 L151,80 L157,90 L158,97 L168,110 L170,114 L172,121 L179,129 L183,137 L186,144 L190,150 L190,152 L192,152 L197,162 L198,171 L187,179 L179,185 L166,189 L161,192 L153,194 L149,197 L140,198 L136,201 L119,204 L112,207 L81,210 L79,211 L29,212 L12,210 L8,208 L-9,207 L-14,206 L-14,204 L-35,201 L-41,197 L-51,196 L-56,192 L-65,192 L-71,187 L-76,184 L-85,182 L-93,176 L-98,170 L-97,165 L-95,161 L-93,153 L-92,151 L-90,151 L-88,146 L-83,141 L-82,137 L-82,133 L-78,127 L-71,121 L-69,115 L-68,112 L-68,109 L-66,109 L-64,104 L-61,101 L-58,96 L-58,91 L-48,78 L-45,71 L-44,66 L-34,54 L-30,42 L-22,33 L-19,28 L-16,19 L-14,16 L-12,16 L-10,11 L-8,11 L-6,7 L-3,6 L-1,1 Z M-63,119 Z " fill="#000000" transform="translate(328,461)"/>
<path d="M0,0 L2,2 L-1,2 Z " fill="#000000" transform="translate(10,492)"/>
<path d="M0,0 L2,1 Z " fill="#000000" transform="translate(13,508)"/>
<path d="M0,0 L2,0 L2,2 L0,2 Z " fill="#000000" transform="translate(708,552)"/>
</svg>
