<?xml version="1.0" encoding="UTF-8"?>
<!-- Generator: visioncortex VTracer 0.6.12 -->
<svg version="1.1" xmlns="http://www.w3.org/2000/svg" width="1134" height="1113">
<path d="M0,0 L1118,0 L1118,59 L1114,58 L1092,57 L1047,57 L1022,56 L999,56 L992,57 L985,56 L874,55 L796,55 L758,54 L723,54 L651,53 L618,53 L574,52 L498,51 L462,51 L402,50 L354,50 L300,49 L66,49 L63,53 L61,239 L60,401 L59,606 L59,755 L58,793 L58,843 L57,972 L57,1048 L60,1053 L61,1054 L193,1055 L457,1056 L560,1056 L587,1057 L637,1057 L643,1058 L767,1058 L962,1060 L1111,1060 L1118,1061 L1118,1113 L-1,1113 L-2,1048 L-1,953 L-1,878 L0,720 L0,56 L-1,42 Z " fill="#000000" transform="translate(16,0)"/>
<path d="M0,0 L93,1 L145,2 L154,4 L160,9 L163,16 L164,52 L163,93 L163,137 L164,149 L166,151 L186,152 L240,152 L291,153 L329,153 L368,154 L471,155 L594,155 L689,157 L714,157 L775,158 L818,159 L844,160 L848,165 L849,175 L848,227 L848,262 L847,343 L847,366 L845,384 L842,387 L832,388 L780,387 L741,386 L736,383 L734,378 L731,362 L726,348 L719,337 L708,324 L695,315 L680,308 L668,305 L659,304 L646,304 L629,307 L613,313 L600,322 L594,327 L583,342 L577,355 L574,365 L570,379 L567,383 L498,383 L380,381 L131,381 L126,378 L124,375 L120,355 L114,340 L104,326 L95,317 L87,311 L79,306 L61,300 L49,299 L32,299 L23,300 L7,306 L-4,312 L-15,321 L-22,328 L-28,336 L-37,355 L-39,364 L-43,377 L-46,379 L-69,379 L-74,375 L-75,373 L-75,338 L-73,232 L-72,203 L-71,154 L-68,138 L-59,105 L-57,100 L-52,79 L-48,65 L-44,51 L-40,36 L-35,19 L-28,9 L-19,3 L-11,1 Z M-2,40 L-13,42 L-18,47 L-23,55 L-31,85 L-35,99 L-38,111 L-40,122 L-43,130 L-44,135 L-44,143 L-41,148 L-33,151 L11,152 L112,152 L118,148 L120,143 L121,136 L122,112 L122,51 L119,45 L114,42 L109,41 L51,40 Z " fill="#000000" transform="translate(215,556)"/>
<path d="M0,0 L26,0 L44,8 L55,15 L68,28 L73,37 L75,40 L78,49 L79,52 L79,77 L76,89 L68,105 L62,113 L53,121 L40,129 L26,134 L20,135 L-2,135 L-16,131 L-28,125 L-41,114 L-49,104 L-56,87 L-57,84 L-58,73 L-58,60 L-56,49 L-51,37 L-43,25 L-36,18 L-29,12 L-17,5 Z " fill="#000000" transform="translate(246,867)"/>
<path d="M0,0 L23,0 L40,5 L52,12 L62,21 L70,30 L77,43 L80,53 L81,72 L79,83 L74,97 L67,108 L62,113 L57,118 L48,125 L39,130 L28,134 L19,135 L4,135 L-9,132 L-22,126 L-28,122 L-37,115 L-46,104 L-53,90 L-55,85 L-57,74 L-57,63 L-55,48 L-47,31 L-40,22 L-38,22 L-36,18 L-22,8 L-6,1 Z " fill="#000000" transform="translate(856,872)"/>
</svg>
