<?xml version="1.0" encoding="UTF-8"?>
<!-- Generator: visioncortex VTracer 0.6.12 -->
<svg version="1.1" xmlns="http://www.w3.org/2000/svg" width="1089" height="1101">
<path d="M0,0 L15,0 L12,10 L14,82 L14,127 L13,139 L13,162 L12,201 L11,222 L12,234 L12,320 L13,388 L14,400 L12,453 L12,585 L11,605 L11,711 L10,734 L11,756 L10,784 L9,977 L6,981 L6,986 L8,991 L8,1013 L7,1038 L6,1041 L0,1042 L0,974 L2,972 L2,966 L0,965 L0,909 L2,907 L2,901 L0,900 L0,838 L3,836 L4,830 L2,824 L0,823 L0,792 L3,789 L0,786 L0,712 L5,711 L4,706 L0,705 Z M4,228 L4,231 L9,230 L8,228 Z M3,325 L2,330 L5,331 L7,327 L6,325 Z " fill="#000000" transform="translate(0,0)"/>
<path d="M0,0 L6,0 L5,2 L0,1 Z " fill="#000000" transform="translate(342,0)"/>
<path d="M0,0 L4,1 Z " fill="#000000" transform="translate(534,0)"/>
<path d="M0,0 L3,1 Z " fill="#000000" transform="translate(555,0)"/>
<path d="M0,0 L493,0 L493,79 L493,83 L493,1101 L477,1101 L477,1099 L480,1097 L482,1090 L482,1003 L483,985 L482,969 L483,935 L483,822 L484,816 L484,670 L485,609 L484,580 L483,519 L483,491 L482,481 L483,478 L483,386 L481,369 L480,366 L480,359 L481,352 L482,343 L484,337 L484,328 L481,318 L482,303 L482,198 L481,193 L481,185 L482,178 L482,117 L483,99 L483,44 L482,14 L479,11 L475,10 L463,10 L446,8 L365,8 L358,7 L284,7 L244,6 L232,6 L221,5 L165,5 L149,4 L90,3 L29,3 L23,2 L20,3 L3,2 Z " fill="#000000" transform="translate(596,0)"/>
<path d="M0,0 L63,0 L73,1 L93,1 L97,5 L97,16 L95,26 L94,78 L91,93 L94,98 L101,101 L140,102 L187,102 L193,104 L195,107 L194,138 L193,156 L193,179 L194,193 L192,198 L188,201 L172,202 L98,202 L94,205 L92,214 L93,234 L93,245 L94,262 L94,291 L92,297 L89,300 L86,301 L66,302 L5,301 L-4,299 L-8,293 L-9,283 L-9,254 L-8,209 L-11,204 L-16,201 L-20,200 L-59,199 L-96,199 L-102,200 L-108,196 L-110,194 L-109,185 L-108,181 L-107,148 L-107,119 L-106,109 L-106,103 L-100,99 L-17,99 L-11,97 L-8,91 L-8,54 L-6,24 L-7,10 L-5,4 L-2,1 Z M20,10 L11,12 L8,15 L6,22 L6,104 L5,107 L-1,110 L-86,110 L-93,116 L-96,126 L-95,142 L-95,168 L-94,181 L-90,186 L-88,187 L-38,189 L-16,189 L-6,190 L5,190 L7,193 L6,206 L5,215 L5,276 L8,286 L13,290 L16,291 L71,291 L77,287 L79,284 L81,211 L81,201 L84,193 L87,191 L158,191 L174,189 L178,185 L180,181 L181,173 L181,125 L179,118 L173,114 L156,112 L137,112 L105,111 L89,111 L86,110 L83,105 L82,99 L82,54 L81,21 L78,14 L71,11 L49,10 Z " fill="#000000" transform="translate(209,81)"/>
<path d="M0,0 L21,1 L34,5 L48,14 L58,23 L67,37 L71,47 L74,62 L73,80 L70,89 L66,95 L58,105 L47,116 L30,125 L14,129 L3,129 L-13,127 L-28,119 L-40,108 L-46,101 L-50,94 L-53,86 L-57,73 L-57,58 L-54,45 L-51,40 L-49,31 L-43,24 L-38,17 L-29,10 L-24,7 L-15,4 L-6,1 Z " fill="#000000" transform="translate(667,121)"/>
<path d="M0,0 L13,1 L21,4 L37,12 L48,20 L54,28 L61,36 L67,49 L70,58 L71,81 L71,114 L69,144 L71,154 L77,159 L81,160 L114,161 L137,162 L185,162 L230,163 L247,164 L260,164 L267,163 L280,163 L283,166 L283,172 L277,188 L270,199 L266,204 L262,208 L258,207 L257,205 L257,198 L261,188 L261,180 L257,175 L250,173 L235,174 L224,174 L207,173 L191,173 L156,172 L131,171 L107,171 L65,170 L62,168 L58,157 L57,127 L57,72 L53,51 L49,41 L40,29 L28,20 L20,16 L9,13 L-9,13 L-24,19 L-34,27 L-43,36 L-48,46 L-52,56 L-52,124 L-51,125 L-51,131 L-52,132 L-53,148 L-53,238 L-54,287 L-55,311 L-53,323 L-48,328 L-36,332 L-22,339 L-8,353 L-1,361 L17,379 L24,387 L30,392 L36,399 L36,401 L40,403 L45,408 L51,411 L54,408 L56,393 L56,260 L57,251 L57,225 L60,220 L63,217 L82,217 L137,218 L146,219 L188,219 L201,220 L214,220 L225,218 L233,215 L246,208 L251,208 L253,210 L253,216 L243,222 L227,228 L215,230 L188,230 L120,229 L77,229 L72,232 L69,245 L69,266 L70,271 L70,310 L69,317 L69,343 L68,374 L68,402 L69,417 L73,422 L76,423 L81,420 L93,408 L101,401 L120,382 L126,378 L133,370 L150,353 L154,348 L161,342 L168,334 L172,330 L174,330 L176,326 L191,312 L200,302 L212,291 L220,284 L230,277 L243,272 L249,270 L258,269 L274,269 L293,273 L304,280 L314,289 L319,294 L327,303 L335,322 L337,331 L337,351 L333,366 L328,374 L318,387 L311,395 L303,402 L296,408 L291,413 L280,424 L275,429 L268,437 L260,445 L255,450 L248,456 L241,464 L239,464 L238,467 L233,471 L228,476 L223,482 L218,486 L211,494 L199,503 L195,509 L187,518 L185,518 L183,522 L171,534 L166,540 L161,544 L154,552 L147,558 L140,566 L129,577 L124,582 L118,582 L112,578 L99,563 L90,555 L85,550 L78,544 L72,543 L70,545 L69,549 L69,590 L70,622 L70,671 L71,681 L70,704 L70,724 L69,746 L70,780 L67,785 L65,786 L58,786 L46,783 L37,779 L26,772 L18,765 L10,755 L4,743 L-2,727 L-3,715 L-3,596 L-5,590 L-10,585 L-18,584 L-30,583 L-41,583 L-60,582 L-67,576 L-68,574 L-69,530 L-69,433 L-71,428 L-78,427 L-86,434 L-98,447 L-106,454 L-118,467 L-126,475 L-131,480 L-138,488 L-146,496 L-154,503 L-166,514 L-173,522 L-180,529 L-187,537 L-195,544 L-211,552 L-230,554 L-234,556 L-248,555 L-268,549 L-277,543 L-281,536 L-281,530 L-272,521 L-267,514 L-259,507 L-248,496 L-243,492 L-236,484 L-219,467 L-214,462 L-192,440 L-186,436 L-179,428 L-172,421 L-165,413 L-158,407 L-153,401 L-145,394 L-130,379 L-125,373 L-120,368 L-110,357 L-105,353 L-100,348 L-95,343 L-89,339 L-86,336 L-73,330 L-71,330 L-68,321 L-68,303 L-67,279 L-67,160 L-68,137 L-67,127 L-67,104 L-66,69 L-65,56 L-61,44 L-55,32 L-47,22 L-43,17 L-34,10 L-22,5 L-19,3 Z M163,357 L161,359 L161,366 L166,367 L168,363 L168,358 Z M-51,412 L-55,417 L-56,420 L-56,486 L-55,517 L-56,541 L-55,561 L-52,568 L-48,571 L24,573 L47,573 L52,570 L55,565 L56,560 L56,549 L57,540 L57,527 L53,516 L48,509 L43,504 L35,495 L33,495 L33,493 L27,488 L20,480 L13,473 L8,469 L2,461 L-7,452 L-16,441 L-23,435 L-30,427 L-38,420 L-47,413 Z M-220,497 L-221,500 L-220,502 L-215,501 L-216,497 Z " fill="#000000" transform="translate(554,236)"/>
<path d="M0,0 L3,2 L1,6 L-1,5 Z " fill="#000000" transform="translate(1066,364)"/>
<path d="M0,0 L21,0 L32,3 L44,8 L53,14 L63,24 L72,39 L75,46 L76,54 L76,68 L74,81 L69,95 L61,105 L53,114 L44,120 L35,124 L16,129 L0,129 L-17,124 L-26,119 L-36,110 L-45,101 L-51,89 L-55,76 L-56,59 L-53,44 L-49,36 L-43,24 L-34,14 L-21,6 L-11,2 Z M-39,45 L-44,50 L-45,57 L-41,59 L-36,54 L-35,46 Z " fill="#000000" transform="translate(924,392)"/>
<path d="M0,0 L5,0 L7,2 L7,24 L5,26 L0,25 L0,20 L2,17 L0,17 Z " fill="#000000" transform="translate(0,1048)"/>
<path d="M0,0 L4,2 L6,5 L13,6 L30,6 L47,7 L70,7 L165,8 L228,8 L238,9 L276,10 L305,10 L392,11 L400,11 L411,12 L414,11 L478,12 L523,11 L575,12 L624,13 L666,13 L754,14 L782,14 L792,16 L792,17 L-4,17 L-4,2 Z " fill="#000000" transform="translate(4,1084)"/>
<path d="M0,0 L11,0 L13,2 L-1,2 Z " fill="#000000" transform="translate(809,1099)"/>
<path d="M0,0 L7,1 L7,2 L-3,2 Z " fill="#000000" transform="translate(831,1099)"/>
<path d="M0,0 L27,0 L30,2 L-11,2 L-11,1 Z " fill="#000000" transform="translate(869,1099)"/>
<path d="M0,0 L5,0 L6,2 L-1,2 Z " fill="#000000" transform="translate(922,1099)"/>
<path d="M0,0 L7,0 L8,2 L-1,2 Z " fill="#000000" transform="translate(971,1099)"/>
<path d="M0,0 L2,1 Z " fill="#000000" transform="translate(911,1100)"/>
<path d="M0,0 L6,0 L6,1 L0,1 Z " fill="#000000" transform="translate(953,1100)"/>
<path d="M0,0 Z " fill="#000000" transform="translate(968,1100)"/>
</svg>
