<?xml version="1.0" encoding="UTF-8"?>
<!-- Generator: visioncortex VTracer 0.6.12 -->
<svg version="1.1" xmlns="http://www.w3.org/2000/svg" width="546" height="501">
<path d="M0,0 L10,0 L24,5 L47,18 L63,25 L79,33 L94,40 L110,48 L122,55 L125,58 L124,63 L119,67 L103,75 L90,81 L83,85 L73,89 L63,94 L51,100 L41,104 L26,111 L7,119 L-9,127 L-21,132 L-29,136 L-47,144 L-67,152 L-77,157 L-93,164 L-102,169 L-115,174 L-131,182 L-152,191 L-158,195 L-167,198 L-176,202 L-189,208 L-195,209 L-204,209 L-213,205 L-232,194 L-253,184 L-262,178 L-283,167 L-293,160 L-307,152 L-312,147 L-311,142 L-308,139 L-292,131 L-274,123 L-267,119 L-258,117 L-245,110 L-238,106 L-227,102 L-217,97 L-197,88 L-184,83 L-159,71 L-143,63 L-126,56 L-113,50 L-90,40 L-78,35 L-59,26 L-35,16 L-21,9 Z " fill="#000000" transform="translate(370,35)"/>
<path d="M0,0 L5,1 L8,4 L10,15 L10,72 L8,146 L8,161 L7,166 L5,187 L1,192 L-14,200 L-24,204 L-35,211 L-45,215 L-62,223 L-75,231 L-82,233 L-89,233 L-92,230 L-94,224 L-94,202 L-93,186 L-93,122 L-92,99 L-92,49 L-90,43 L-87,39 L-75,34 L-61,27 L-51,23 L-39,17 L-23,10 L-11,5 L-9,3 Z M-38,40 L-44,44 L-48,49 L-49,52 L-49,60 L-44,66 L-39,67 L-33,64 L-29,57 L-29,48 L-35,41 Z M-40,101 L-47,107 L-49,111 L-49,119 L-45,123 L-39,124 L-32,120 L-28,113 L-29,106 L-33,101 Z M-39,153 L-46,161 L-47,166 L-47,173 L-43,177 L-34,177 L-28,171 L-27,161 L-31,155 L-34,153 Z " fill="#000000" transform="translate(502,120)"/>
<path d="M0,0 L5,2 L7,4 L8,8 L8,66 L9,73 L8,135 L8,162 L7,181 L3,186 L-7,185 L-18,178 L-32,171 L-41,165 L-60,155 L-67,150 L-72,147 L-75,143 L-76,140 L-76,114 L-75,73 L-75,61 L-74,43 L-72,35 L-66,30 L-57,25 L-42,18 L-29,13 L-6,2 Z " fill="#000000" transform="translate(383,175)"/>
<path d="M0,0 L6,1 L18,8 L27,12 L41,20 L55,28 L61,31 L71,38 L83,44 L99,53 L111,60 L115,66 L117,75 L117,124 L116,142 L115,197 L115,223 L114,255 L110,261 L104,262 L92,257 L81,249 L71,245 L63,240 L47,232 L35,226 L23,218 L12,212 L-4,202 L-7,197 L-8,174 L-8,133 L-7,111 L-6,87 L-6,29 L-5,12 L-3,3 Z " fill="#000000" transform="translate(44,205)"/>
<path d="M0,0 L6,1 L9,6 L11,28 L11,60 L10,70 L10,85 L9,112 L9,132 L8,181 L6,193 L2,199 L-8,207 L-27,216 L-37,221 L-56,231 L-62,235 L-72,241 L-87,246 L-95,246 L-98,242 L-99,229 L-98,168 L-98,142 L-97,82 L-95,51 L-93,44 L-72,33 L-60,28 L-44,20 L-27,12 L-6,3 Z M-46,43 L-51,46 L-56,53 L-57,58 L-55,67 L-49,72 L-41,72 L-36,68 L-33,61 L-33,50 L-39,43 Z M-44,101 L-50,105 L-54,111 L-53,119 L-50,125 L-45,127 L-38,126 L-34,121 L-32,115 L-33,109 L-38,101 Z M-45,156 L-52,162 L-55,169 L-55,176 L-50,181 L-48,182 L-42,182 L-36,178 L-33,173 L-32,167 L-35,160 L-39,156 Z " fill="#000000" transform="translate(277,222)"/>
</svg>
