<?xml version="1.0" encoding="UTF-8"?>
<!-- Generator: visioncortex VTracer 0.6.12 -->
<svg version="1.1" xmlns="http://www.w3.org/2000/svg" width="1215" height="1209">
<path d="M0,0 L21,0 L66,1 L652,1 L655,2 L778,2 L803,3 L885,3 L905,4 L1025,5 L1080,6 L1107,5 L1110,3 L1116,3 L1121,8 L1123,12 L1123,37 L1122,69 L1121,152 L1120,291 L1121,336 L1120,392 L1120,429 L1119,467 L1118,484 L1119,493 L1119,561 L1118,609 L1119,615 L1119,660 L1118,690 L1117,696 L1118,714 L1118,744 L1116,749 L1116,756 L1118,760 L1118,777 L1117,800 L1116,807 L1117,816 L1118,851 L1116,868 L1118,935 L1117,957 L1117,992 L1118,998 L1117,1006 L1117,1068 L1116,1130 L1114,1138 L1112,1140 L1102,1140 L1098,1139 L1034,1137 L980,1136 L940,1136 L883,1135 L860,1135 L791,1134 L722,1134 L605,1133 L491,1133 L414,1132 L360,1132 L358,1129 L359,1124 L365,1123 L419,1122 L472,1123 L681,1123 L698,1124 L838,1124 L910,1125 L993,1125 L1058,1126 L1094,1125 L1099,1123 L1101,1121 L1101,1027 L1102,1010 L1102,957 L1103,945 L1102,876 L1102,832 L1103,828 L1103,807 L1102,787 L1103,778 L1103,769 L1102,754 L1107,746 L1106,740 L1104,733 L1104,589 L1105,535 L1104,497 L1105,422 L1105,267 L1106,222 L1106,160 L1107,132 L1106,127 L1099,125 L1090,127 L1052,128 L1015,127 L954,126 L859,125 L839,125 L782,124 L719,124 L700,123 L628,123 L618,122 L593,122 L503,121 L361,120 L278,119 L248,118 L226,119 L209,118 L163,118 L102,117 L98,119 L45,119 L4,118 L-1,123 L0,135 L1,158 L1,200 L0,267 L-1,275 L0,284 L1,295 L0,342 L-1,415 L-1,439 L-2,484 L-3,520 L-3,616 L-4,625 L-5,630 L-3,635 L-4,656 L-5,823 L-4,858 L-5,878 L-4,919 L-5,1007 L-6,1010 L-6,1017 L-5,1019 L-5,1032 L-6,1037 L-5,1038 L-5,1073 L-6,1087 L-6,1095 L-7,1102 L-7,1115 L-3,1120 L31,1121 L91,1121 L130,1123 L193,1123 L205,1120 L215,1123 L241,1124 L257,1125 L272,1124 L319,1124 L322,1123 L352,1123 L354,1125 L353,1130 L351,1132 L331,1132 L302,1133 L294,1132 L177,1132 L168,1133 L155,1132 L150,1129 L142,1130 L137,1132 L84,1133 L9,1133 L3,1132 L-14,1132 L-19,1129 L-21,1121 L-22,1105 L-22,1069 L-21,930 L-21,767 L-20,710 L-21,688 L-20,649 L-20,619 L-19,595 L-20,578 L-19,552 L-18,525 L-19,513 L-18,494 L-18,462 L-17,439 L-17,372 L-16,365 L-16,229 L-15,218 L-16,206 L-15,197 L-15,121 L-14,111 L-14,46 L-12,25 L-11,11 L-7,3 Z M521,28 L519,32 L520,34 L525,33 L525,29 Z M229,30 L231,32 L231,30 Z M429,74 L427,75 L427,79 L432,79 L434,75 Z M1060,111 L1061,114 L1064,113 L1064,111 Z " fill="#000000" transform="translate(59,37)"/>
<path d="M0,0 L9,0 L23,3 L39,10 L46,15 L50,20 L50,22 L54,24 L61,35 L66,45 L68,57 L68,68 L64,84 L60,93 L50,105 L48,105 L46,109 L38,115 L26,121 L13,124 L-5,124 L-18,120 L-30,113 L-34,110 L-34,108 L-38,106 L-45,98 L-50,90 L-54,77 L-56,57 L-53,43 L-49,33 L-42,22 L-31,11 L-15,3 Z M42,87 L42,91 L46,90 L46,87 Z " fill="#000000" transform="translate(965,221)"/>
<path d="M0,0 L10,0 L23,3 L34,7 L41,13 L50,20 L59,34 L64,45 L66,56 L66,70 L62,83 L56,97 L43,111 L32,118 L20,123 L9,124 L-1,124 L-13,122 L-32,112 L-41,104 L-52,88 L-55,78 L-56,71 L-56,56 L-52,40 L-48,31 L-42,22 L-33,13 L-23,6 L-11,2 Z " fill="#000000" transform="translate(640,303)"/>
<path d="M0,0 L117,0 L137,4 L148,8 L163,16 L168,19 L178,28 L186,35 L194,46 L199,56 L207,80 L208,88 L208,196 L206,202 L202,205 L153,205 L148,202 L146,197 L146,101 L145,94 L142,91 L137,92 L134,96 L132,164 L132,184 L131,199 L127,204 L125,205 L82,205 L47,207 L12,210 L4,211 L-9,211 L-12,206 L-13,179 L-12,133 L-12,95 L-16,90 L-23,91 L-25,97 L-26,169 L-27,207 L-30,214 L-38,216 L-67,219 L-74,221 L-81,221 L-85,217 L-86,213 L-85,156 L-85,138 L-84,92 L-81,71 L-73,51 L-68,42 L-61,33 L-56,28 L-47,19 L-39,14 L-29,8 L-15,3 Z M4,21 L4,25 L8,25 L7,21 Z " fill="#000000" transform="translate(909,390)"/>
<path d="M0,0 L81,1 L98,1 L131,3 L148,9 L165,18 L172,24 L180,30 L189,41 L198,57 L201,66 L206,85 L207,138 L204,146 L200,148 L186,151 L166,156 L156,159 L150,158 L147,156 L146,153 L146,96 L144,92 L142,91 L136,91 L133,94 L132,105 L132,159 L129,165 L123,169 L93,179 L74,187 L58,194 L46,201 L34,207 L24,214 L12,221 L1,229 L-4,232 L-9,234 L-13,230 L-13,180 L-12,154 L-12,122 L-11,102 L-13,92 L-14,91 L-21,91 L-24,94 L-25,96 L-26,111 L-26,152 L-27,195 L-27,243 L-30,252 L-35,258 L-39,261 L-41,261 L-43,265 L-50,274 L-58,282 L-65,293 L-73,302 L-81,317 L-84,320 L-89,319 L-90,313 L-89,282 L-88,274 L-88,223 L-86,117 L-86,104 L-85,88 L-81,68 L-77,57 L-69,41 L-65,36 L-60,31 L-54,24 L-43,15 L-35,10 L-27,6 L-12,2 Z " fill="#000000" transform="translate(583,473)"/>
<path d="M0,0 L15,1 L26,4 L40,11 L52,22 L61,34 L65,45 L67,58 L67,67 L65,80 L60,91 L50,104 L43,110 L41,110 L39,114 L24,121 L15,123 L-6,123 L-16,120 L-29,113 L-39,104 L-44,100 L-52,85 L-56,70 L-56,55 L-52,41 L-44,25 L-42,22 L-40,22 L-40,20 L-35,15 L-24,7 L-12,2 Z " fill="#000000" transform="translate(635,696)"/>
<path d="M0,0 L17,0 L26,2 L36,6 L46,12 L55,20 L63,31 L69,46 L71,54 L71,67 L67,82 L62,93 L58,99 L49,109 L33,118 L21,123 L2,124 L-13,120 L-24,114 L-33,108 L-43,96 L-50,81 L-52,73 L-52,54 L-49,41 L-40,24 L-31,14 L-20,6 L-7,1 Z " fill="#000000" transform="translate(959,699)"/>
<path d="M0,0 L113,0 L133,1 L142,3 L154,8 L166,14 L176,22 L186,31 L197,47 L204,62 L209,81 L210,92 L210,121 L209,196 L206,199 L182,199 L152,198 L148,195 L149,165 L149,99 L147,93 L144,91 L139,92 L137,98 L135,164 L135,196 L132,198 L15,198 L8,199 L-5,199 L-9,196 L-8,131 L-8,102 L-10,90 L-12,88 L-18,88 L-21,91 L-22,94 L-23,108 L-24,190 L-24,196 L-26,198 L-46,198 L-81,197 L-84,192 L-83,132 L-83,109 L-80,76 L-74,58 L-68,46 L-59,33 L-47,21 L-41,17 L-27,7 L-12,2 Z M184,73 L182,74 L183,79 L188,80 L189,76 Z M66,110 L66,113 L69,113 L68,110 Z M44,139 L43,143 L44,144 L49,144 L48,139 Z " fill="#000000" transform="translate(575,865)"/>
<path d="M0,0 L69,0 L130,1 L150,6 L163,12 L176,20 L183,26 L195,42 L203,54 L207,62 L210,74 L211,83 L212,157 L212,201 L207,205 L187,204 L118,203 L85,202 L12,201 L-12,200 L-13,196 L-10,190 L-9,122 L-9,102 L-11,90 L-12,89 L-18,89 L-21,92 L-22,94 L-23,144 L-23,185 L-22,193 L-21,194 L-21,199 L-26,200 L-31,199 L-55,198 L-70,198 L-80,197 L-83,195 L-84,188 L-84,171 L-83,123 L-83,99 L-81,81 L-75,58 L-69,46 L-65,41 L-61,35 L-50,23 L-41,16 L-27,8 L-14,3 Z M19,49 L17,50 L17,53 L21,54 L23,53 L23,50 Z M-51,61 L-52,65 L-48,68 L-42,67 L-43,63 L-46,61 Z M141,89 L137,94 L136,96 L135,163 L135,188 L137,195 L139,197 L146,197 L150,193 L151,146 L151,97 L147,90 Z " fill="#000000" transform="translate(901,868)"/>
</svg>
