<?xml version="1.0" encoding="UTF-8"?>
<!-- Generator: visioncortex VTracer 0.6.12 -->
<svg version="1.1" xmlns="http://www.w3.org/2000/svg" width="1320" height="1311">
<path d="M0,0 L1320,0 L1320,56 L1135,56 L1122,55 L667,55 L572,54 L542,54 L490,53 L480,52 L231,52 L223,51 L148,51 L123,50 L0,50 Z " fill="#000000" transform="translate(0,0)"/>
<path d="M0,0 L7,0 L17,2 L22,1 L133,1 L140,2 L150,2 L155,3 L164,2 L214,2 L221,3 L222,2 L260,2 L262,3 L283,3 L348,4 L356,4 L361,3 L364,4 L380,3 L387,4 L410,3 L428,4 L448,4 L479,5 L560,5 L562,6 L594,6 L596,8 L601,7 L605,6 L608,8 L614,7 L617,6 L631,6 L648,7 L690,7 L736,8 L757,7 L765,0 L770,1 L773,6 L782,8 L805,8 L812,7 L894,8 L906,8 L918,9 L932,9 L938,8 L940,9 L971,9 L979,10 L988,10 L994,9 L997,10 L1025,11 L1027,13 L1027,128 L1026,228 L1025,240 L1026,257 L1026,280 L1025,283 L1025,313 L1024,320 L1024,442 L1023,449 L1023,475 L1022,484 L1023,489 L1023,564 L1022,580 L1021,586 L1021,649 L1020,702 L1020,808 L1019,852 L1019,1021 L1016,1025 L937,1025 L921,1024 L904,1024 L865,1023 L815,1024 L811,1023 L722,1023 L710,1022 L704,1021 L702,1022 L676,1023 L662,1022 L645,1022 L609,1023 L594,1022 L550,1022 L547,1021 L521,1020 L506,1020 L495,1021 L492,1020 L397,1020 L380,1019 L374,1018 L370,1019 L258,1019 L250,1018 L213,1018 L189,1017 L116,1017 L112,1016 L96,1016 L87,1017 L41,1016 L-2,1016 L-11,1015 L-14,1012 L-15,1003 L-14,994 L-13,928 L-13,869 L-12,858 L-11,853 L-12,850 L-12,742 L-11,734 L-11,694 L-10,689 L-10,681 L-11,670 L-9,591 L-9,507 L-8,490 L-8,439 L-7,392 L-6,304 L-5,301 L-6,272 L-6,251 L-5,243 L-5,163 L-4,115 L-4,32 L-3,17 L-2,14 L-1,1 Z M75,9 L47,10 L31,10 L9,11 L6,15 L5,28 L4,36 L4,155 L3,184 L3,261 L2,292 L2,332 L1,334 L1,348 L2,356 L1,360 L1,453 L0,502 L-1,623 L-2,661 L-3,696 L-2,715 L-3,721 L-3,755 L-4,856 L-5,895 L-5,981 L-4,1002 L-2,1006 L0,1007 L13,1008 L56,1008 L100,1009 L108,1010 L120,1009 L122,1010 L148,1009 L155,1010 L171,1009 L172,1010 L198,1010 L211,1011 L214,1010 L265,1010 L293,1011 L377,1011 L391,1012 L450,1012 L453,1013 L527,1013 L531,1014 L651,1014 L668,1015 L685,1014 L688,1015 L757,1016 L822,1016 L842,1015 L850,1016 L963,1016 L966,1017 L996,1017 L1005,1016 L1008,1012 L1009,1001 L1010,975 L1010,922 L1009,882 L1011,847 L1010,831 L1011,817 L1011,734 L1012,718 L1011,684 L1012,663 L1012,639 L1013,627 L1013,592 L1014,587 L1014,488 L1015,469 L1015,417 L1016,402 L1015,399 L1015,360 L1016,349 L1017,299 L1018,184 L1018,140 L1019,77 L1019,27 L1015,20 L1011,18 L997,19 L990,18 L955,18 L947,17 L941,18 L926,17 L907,17 L901,16 L888,16 L882,17 L827,16 L801,17 L793,16 L772,16 L763,15 L759,16 L675,16 L671,15 L649,15 L641,13 L636,15 L622,15 L617,14 L606,14 L603,15 L587,14 L571,15 L569,14 L517,14 L489,13 L458,13 L423,12 L400,12 L395,13 L388,12 L383,9 L380,12 L374,12 L369,11 L297,11 L289,10 L282,11 L195,11 L149,10 L139,10 L133,9 L129,10 L88,10 Z " fill="#000000" transform="translate(159,109)"/>
<path d="M0,0 L10,0 L17,3 L18,4 L27,4 L31,10 L39,14 L43,22 L51,25 L62,37 L64,41 L70,43 L77,52 L84,58 L89,63 L97,70 L106,79 L115,90 L122,96 L129,102 L136,110 L145,120 L149,124 L154,128 L161,136 L171,144 L178,152 L183,157 L189,162 L193,167 L198,170 L205,178 L223,196 L228,203 L234,207 L236,212 L240,214 L255,228 L260,234 L265,239 L278,251 L282,254 L284,259 L295,267 L300,273 L303,276 L308,282 L313,287 L321,295 L328,301 L328,303 L332,305 L337,310 L342,316 L346,321 L353,326 L356,327 L362,337 L370,344 L379,354 L383,359 L391,375 L397,387 L403,397 L404,398 L411,398 L428,389 L437,383 L443,379 L448,375 L454,371 L465,363 L472,359 L479,351 L488,343 L493,338 L505,329 L511,322 L517,318 L522,313 L527,308 L532,303 L537,298 L545,291 L552,283 L558,274 L564,265 L567,261 L569,249 L569,236 L567,230 L566,223 L567,198 L571,186 L578,172 L585,163 L590,157 L596,152 L601,145 L606,142 L611,137 L619,133 L622,127 L629,122 L631,118 L637,114 L642,108 L662,94 L667,89 L675,83 L689,73 L697,66 L706,60 L715,53 L728,43 L736,38 L742,34 L751,28 L755,25 L766,19 L775,13 L780,13 L780,18 L772,27 L767,32 L756,43 L751,48 L746,53 L742,57 L740,57 L738,61 L728,71 L720,78 L712,87 L704,94 L694,104 L689,109 L684,114 L674,124 L667,129 L662,134 L651,145 L646,149 L644,149 L642,153 L635,159 L631,166 L632,169 L638,168 L650,160 L655,156 L663,149 L670,142 L680,134 L687,128 L692,123 L703,114 L710,108 L715,103 L718,100 L723,97 L728,91 L736,84 L745,77 L754,68 L760,64 L767,58 L775,51 L781,45 L791,41 L799,31 L804,31 L806,34 L806,40 L797,51 L790,58 L784,63 L782,63 L780,67 L773,76 L768,79 L760,90 L754,95 L748,102 L743,107 L730,120 L723,128 L707,144 L703,149 L698,152 L690,162 L685,168 L678,174 L676,174 L674,178 L667,185 L662,193 L662,198 L667,199 L678,192 L686,184 L692,180 L696,175 L704,170 L711,162 L713,162 L715,158 L723,149 L731,142 L737,137 L744,128 L749,123 L755,119 L760,117 L765,109 L771,102 L773,102 L775,98 L790,84 L800,75 L809,66 L823,55 L828,56 L829,60 L826,67 L817,78 L810,86 L800,97 L793,105 L784,116 L779,121 L769,130 L760,141 L755,145 L751,148 L748,154 L741,161 L732,172 L723,182 L716,189 L709,198 L697,210 L690,218 L688,218 L687,231 L693,230 L700,225 L707,217 L713,212 L720,204 L727,196 L732,193 L734,193 L736,188 L745,179 L753,169 L763,161 L766,155 L771,150 L778,145 L783,140 L786,137 L789,132 L801,119 L806,113 L813,107 L819,100 L824,95 L833,86 L839,79 L845,79 L845,84 L841,86 L839,92 L837,95 L835,95 L833,99 L828,109 L820,119 L814,127 L808,134 L798,148 L794,154 L789,158 L785,166 L778,175 L772,184 L766,188 L759,199 L745,214 L737,224 L731,231 L727,237 L719,244 L711,253 L700,261 L693,267 L687,270 L683,274 L675,278 L670,281 L660,284 L643,286 L634,285 L620,285 L617,286 L598,287 L596,289 L587,292 L582,296 L570,302 L559,311 L554,316 L537,332 L529,342 L521,349 L515,354 L508,364 L502,372 L497,377 L490,382 L484,390 L478,398 L472,403 L467,412 L464,414 L462,421 L460,424 L459,429 L459,437 L462,443 L468,447 L479,458 L483,464 L488,469 L496,479 L501,483 L505,487 L514,494 L521,503 L529,510 L536,518 L544,524 L555,535 L562,543 L571,553 L576,558 L582,563 L589,571 L599,581 L604,588 L610,592 L614,598 L619,603 L624,608 L634,619 L643,631 L651,639 L653,645 L657,647 L666,657 L677,671 L686,682 L688,688 L694,691 L700,699 L713,714 L719,722 L732,737 L739,746 L744,750 L748,757 L758,768 L763,776 L769,783 L774,791 L788,806 L793,814 L804,827 L811,836 L816,842 L824,853 L827,859 L826,866 L822,872 L814,880 L806,885 L802,891 L796,894 L794,894 L792,899 L791,900 L783,899 L770,891 L765,888 L759,881 L753,878 L741,867 L733,860 L723,852 L719,848 L714,843 L702,834 L690,822 L684,817 L680,812 L674,808 L668,800 L660,794 L649,784 L642,778 L638,773 L630,766 L625,760 L614,751 L609,744 L609,742 L604,740 L599,735 L582,718 L577,714 L570,706 L560,695 L555,688 L549,683 L545,677 L538,670 L532,663 L524,656 L520,650 L512,643 L507,637 L501,629 L492,621 L488,615 L483,609 L479,604 L479,602 L475,600 L469,595 L462,584 L458,580 L458,578 L456,578 L444,559 L440,554 L435,549 L429,542 L424,533 L420,529 L415,520 L415,518 L411,516 L410,510 L405,511 L401,516 L394,522 L390,528 L383,536 L378,540 L369,551 L363,556 L356,565 L351,570 L344,577 L339,582 L333,587 L328,592 L321,599 L319,599 L319,601 L311,608 L304,615 L298,622 L289,629 L275,644 L268,648 L266,648 L264,652 L256,662 L247,669 L244,670 L243,673 L235,680 L227,686 L218,697 L213,701 L208,706 L199,714 L193,718 L188,723 L184,728 L173,737 L167,744 L159,751 L148,759 L141,767 L131,777 L125,781 L121,786 L110,795 L103,802 L98,805 L94,810 L83,819 L74,829 L69,830 L67,835 L62,840 L57,842 L53,847 L45,854 L33,864 L26,872 L21,877 L12,883 L6,882 L-4,876 L-14,866 L-22,860 L-27,855 L-34,845 L-33,839 L-28,831 L-23,826 L-16,819 L-14,819 L-12,815 L-3,804 L5,793 L10,787 L18,780 L20,780 L22,775 L31,765 L39,758 L44,750 L53,742 L57,736 L64,729 L71,721 L77,713 L82,709 L86,703 L92,698 L102,685 L112,675 L121,664 L127,657 L131,654 L133,654 L135,650 L142,642 L147,637 L151,633 L155,627 L161,621 L163,621 L165,617 L175,608 L180,602 L185,597 L189,592 L194,589 L200,581 L206,574 L211,569 L219,562 L221,562 L223,557 L230,551 L235,546 L240,540 L245,537 L252,529 L261,519 L269,512 L276,504 L281,501 L284,496 L295,485 L301,480 L305,475 L310,471 L317,463 L326,456 L328,456 L330,452 L338,445 L340,442 L340,436 L332,431 L318,422 L304,414 L295,404 L284,394 L280,392 L275,386 L269,382 L254,367 L252,362 L247,360 L236,349 L229,340 L229,338 L224,336 L218,332 L218,330 L214,328 L205,317 L197,310 L189,301 L184,296 L169,281 L161,274 L153,267 L147,259 L141,255 L122,236 L117,231 L108,219 L100,212 L95,207 L84,196 L77,187 L70,183 L65,178 L56,167 L54,164 L49,161 L39,150 L29,136 L24,131 L19,125 L11,118 L3,107 L-2,99 L-7,87 L-11,78 L-15,67 L-18,55 L-20,44 L-21,41 L-21,25 L-18,15 L-12,7 L-7,3 Z M96,728 L94,732 L99,733 L100,729 Z " fill="#000000" transform="translate(270,176)"/>
<path d="M0,0 L7,1 L8,2 L8,73 L6,79 L2,82 L-3,81 L-6,78 L-6,21 L-5,8 L-2,2 Z " fill="#000000" transform="translate(155,1193)"/>
<path d="M0,0 L6,0 L10,4 L15,15 L18,24 L22,35 L25,42 L29,54 L33,63 L36,73 L36,80 L35,81 L28,81 L24,78 L21,66 L16,59 L14,58 L-10,57 L-14,59 L-21,73 L-26,80 L-32,80 L-33,79 L-33,72 L-28,61 L-22,45 L-16,30 L-10,17 L-6,7 L-2,1 Z M1,20 L-4,28 L-8,40 L-7,45 L-5,47 L10,47 L12,44 L11,35 L8,26 L5,21 Z " fill="#000000" transform="translate(210,1195)"/>
<path d="M0,0 L13,0 L25,1 L38,0 L49,0 L57,2 L59,4 L58,9 L56,11 L49,11 L43,13 L37,12 L35,14 L34,19 L33,52 L33,72 L30,79 L25,80 L22,76 L21,51 L21,18 L19,13 L17,11 L8,11 L-1,9 L-3,8 L-3,2 Z " fill="#000000" transform="translate(261,1196)"/>
<path d="M0,0 L11,0 L14,4 L19,14 L21,23 L25,33 L29,46 L32,52 L35,61 L38,67 L40,73 L40,79 L36,82 L31,81 L25,73 L21,61 L17,58 L0,57 L-9,56 L-14,65 L-20,77 L-24,80 L-29,79 L-30,78 L-29,70 L-27,64 L-22,52 L-18,44 L-12,28 L-9,19 L-5,9 L-2,2 Z M3,23 L-2,31 L-5,40 L-5,45 L-1,47 L12,47 L13,46 L13,34 L7,23 Z " fill="#000000" transform="translate(356,1196)"/>
</svg>
