<?xml version="1.0" encoding="UTF-8"?>
<!-- Generator: visioncortex VTracer 0.6.12 -->
<svg version="1.1" xmlns="http://www.w3.org/2000/svg" width="1359" height="1359">
<path d="M0,0 L33,0 L46,1 L62,1 L66,0 L86,0 L96,1 L163,1 L218,2 L323,2 L378,3 L413,3 L461,4 L499,5 L523,4 L536,5 L559,5 L567,6 L668,6 L751,8 L844,8 L858,9 L884,9 L914,10 L990,10 L1000,13 L1002,16 L1004,36 L1002,147 L1002,179 L1001,323 L1000,354 L999,478 L999,499 L998,550 L998,648 L997,669 L997,831 L996,844 L996,911 L995,934 L995,969 L994,1015 L991,1021 L985,1025 L981,1026 L965,1027 L963,1028 L919,1028 L911,1027 L907,1030 L900,1029 L899,1028 L885,1027 L874,1027 L860,1028 L857,1026 L832,1026 L820,1027 L815,1029 L812,1026 L805,1027 L796,1028 L784,1025 L768,1025 L754,1026 L749,1027 L744,1025 L739,1026 L737,1027 L731,1027 L724,1025 L704,1025 L691,1027 L680,1025 L640,1024 L631,1025 L601,1024 L574,1024 L548,1023 L540,1024 L538,1023 L528,1023 L515,1024 L510,1023 L494,1024 L492,1023 L483,1023 L472,1025 L467,1022 L456,1023 L448,1022 L431,1022 L425,1023 L423,1022 L398,1022 L391,1021 L389,1023 L379,1023 L375,1021 L356,1021 L350,1022 L339,1021 L326,1021 L317,1020 L312,1021 L308,1020 L253,1020 L244,1019 L227,1020 L217,1020 L216,1021 L204,1022 L202,1020 L191,1018 L176,1019 L169,1020 L164,1017 L159,1018 L118,1018 L104,1017 L92,1018 L62,1017 L51,1017 L32,1016 L25,1018 L22,1017 L-30,1016 L-40,1013 L-43,1010 L-43,955 L-42,876 L-41,826 L-40,721 L-40,692 L-39,655 L-38,583 L-38,492 L-37,454 L-37,401 L-36,262 L-36,242 L-35,216 L-35,137 L-34,63 L-35,10 L-32,3 L-27,2 L-25,3 L-13,3 Z M-13,13 L-20,18 L-21,32 L-22,87 L-23,97 L-23,118 L-24,171 L-24,196 L-25,330 L-25,404 L-26,440 L-26,539 L-27,585 L-27,634 L-28,774 L-30,884 L-30,994 L-25,1001 L-21,1002 L18,1002 L50,1003 L154,1003 L185,1004 L206,1004 L259,1005 L269,1004 L286,1005 L344,1005 L355,1006 L425,1006 L439,1007 L466,1008 L594,1008 L619,1010 L631,1010 L647,1008 L678,1008 L680,1009 L696,1009 L701,1008 L706,1010 L715,1009 L739,1010 L796,1010 L808,1011 L855,1011 L879,1012 L893,1013 L976,1013 L981,1008 L982,993 L982,972 L983,960 L983,865 L984,840 L984,813 L985,747 L986,686 L986,615 L987,521 L987,469 L988,404 L988,356 L989,324 L989,269 L990,197 L990,39 L988,29 L982,26 L949,25 L939,24 L936,25 L914,25 L850,23 L808,23 L781,22 L770,23 L745,23 L742,22 L701,21 L660,20 L639,21 L629,21 L628,22 L619,21 L588,19 L576,20 L546,19 L509,19 L495,18 L461,18 L437,17 L404,17 L394,16 L358,16 L328,17 L325,16 L299,16 L263,15 L249,15 L242,17 L239,16 L227,15 L194,15 L187,14 L159,15 L151,14 L66,14 L45,13 L38,14 L31,13 Z " fill="#000000" transform="translate(222,37)"/>
<path d="M0,0 L16,0 L44,1 L63,5 L85,8 L94,11 L103,13 L111,16 L127,21 L136,25 L144,28 L167,41 L178,48 L190,55 L197,62 L208,69 L213,75 L219,79 L237,97 L244,102 L250,111 L259,121 L265,131 L273,141 L281,157 L289,169 L292,176 L296,184 L304,203 L313,233 L317,254 L321,277 L322,290 L322,334 L320,345 L319,360 L315,376 L308,403 L304,418 L300,427 L297,433 L295,440 L291,448 L283,466 L273,480 L266,491 L261,498 L259,503 L254,508 L240,523 L233,531 L229,538 L221,542 L213,550 L204,557 L197,565 L189,570 L178,576 L173,580 L165,584 L151,591 L141,596 L127,601 L120,606 L113,609 L102,610 L97,613 L83,616 L80,618 L57,620 L48,622 L43,624 L29,623 L1,624 L-13,623 L-25,621 L-39,620 L-51,617 L-63,613 L-81,609 L-85,607 L-94,606 L-103,599 L-113,596 L-118,593 L-125,591 L-132,586 L-137,583 L-144,579 L-152,574 L-164,566 L-180,553 L-189,547 L-191,542 L-196,540 L-205,532 L-213,522 L-216,520 L-216,518 L-218,518 L-227,506 L-234,497 L-240,488 L-245,479 L-248,476 L-254,464 L-259,456 L-266,441 L-274,420 L-285,388 L-289,369 L-292,350 L-294,326 L-294,295 L-292,274 L-291,265 L-287,242 L-284,228 L-276,202 L-268,184 L-261,167 L-249,146 L-243,135 L-232,122 L-225,113 L-218,104 L-207,92 L-192,78 L-177,67 L-170,60 L-165,57 L-160,53 L-155,48 L-138,40 L-126,32 L-117,29 L-116,26 L-105,23 L-95,19 L-86,15 L-68,10 L-54,7 L-49,5 L-41,5 L-36,3 Z " fill="#000000" transform="translate(691,327)"/>
<path d="M0,0 L4,1 L5,6 L3,8 L-2,8 L-3,7 L-3,2 Z " fill="#000000" transform="translate(1338,341)"/>
<path d="M0,0 L4,2 L5,3 L6,27 L7,74 L9,84 L13,88 L18,87 L19,86 L20,49 L21,20 L21,9 L23,2 L27,1 L29,3 L30,34 L31,73 L33,88 L40,88 L42,85 L43,76 L43,35 L44,6 L46,2 L51,3 L53,8 L54,118 L54,140 L53,155 L50,162 L41,173 L32,179 L28,186 L28,302 L27,365 L27,404 L26,474 L26,500 L25,525 L24,588 L20,594 L15,597 L5,595 L1,591 L0,589 L-1,579 L-2,551 L-1,509 L-1,333 L0,301 L0,222 L-1,202 L-1,188 L-3,182 L-8,178 L-13,174 L-22,162 L-26,154 L-28,146 L-29,119 L-29,50 L-30,34 L-28,12 L-25,4 L-20,3 L-18,8 L-16,44 L-16,61 L-14,83 L-13,86 L-7,87 L-5,84 L-4,11 L-2,2 Z " fill="#000000" transform="translate(340,345)"/>
<path d="M0,0 L8,2 L12,9 L13,13 L12,87 L11,167 L10,234 L11,252 L10,320 L10,328 L9,340 L9,447 L8,459 L8,536 L7,586 L4,595 L0,597 L-8,597 L-15,594 L-18,591 L-21,581 L-21,484 L-20,474 L-20,426 L-19,365 L-19,340 L-22,331 L-33,328 L-38,325 L-41,321 L-42,318 L-43,307 L-43,264 L-42,247 L-42,197 L-41,161 L-41,100 L-40,90 L-40,74 L-41,58 L-40,39 L-37,26 L-31,16 L-28,11 L-14,2 Z " fill="#000000" transform="translate(1091,357)"/>
<path d="M0,0 L5,1 L11,5 L24,25 L30,25 L44,3 L45,2 L57,2 L58,3 L58,9 L52,20 L50,25 L44,30 L38,39 L39,46 L42,52 L53,67 L58,75 L61,80 L60,84 L58,86 L48,85 L44,83 L34,67 L30,61 L28,59 L23,60 L16,71 L8,81 L3,85 L-3,84 L-5,82 L-5,76 L6,58 L13,50 L15,47 L15,39 L8,28 L0,17 L-5,10 L-5,4 L-3,1 Z " fill="#000000" transform="translate(191,1130)"/>
<path d="M0,0 L6,1 L9,6 L9,14 L7,24 L1,33 L-6,32 L-7,26 L-4,20 L-7,11 L-7,5 L-4,1 Z " fill="#000000" transform="translate(268,1130)"/>
<path d="M0,0 L10,0 L20,6 L26,15 L26,21 L22,25 L16,23 L10,18 L3,15 L-3,16 L-7,21 L-9,25 L-9,29 L-5,30 L0,28 L9,28 L16,31 L24,38 L28,43 L29,47 L29,63 L23,75 L17,80 L8,84 L-4,84 L-12,80 L-19,74 L-25,62 L-28,50 L-28,42 L-24,21 L-20,13 L-13,5 L-8,2 Z M0,41 L-9,47 L-11,49 L-11,60 L-5,69 L-2,71 L6,71 L11,68 L14,62 L15,52 L12,45 L7,42 Z " fill="#000000" transform="translate(316,1132)"/>
<path d="M0,0 L6,0 L11,4 L11,13 L3,24 L-2,30 L-12,52 L-18,78 L-23,83 L-29,83 L-32,79 L-31,61 L-25,45 L-17,32 L-12,21 L-12,17 L-26,17 L-39,15 L-42,12 L-43,6 L-42,3 L-39,1 L-9,1 Z " fill="#000000" transform="translate(397,1132)"/>
<path d="M0,0 L4,1 L6,3 L50,4 L141,4 L148,5 L266,5 L288,6 L401,6 L407,5 L411,7 L502,8 L559,9 L597,9 L730,11 L799,12 L870,12 L875,13 L969,13 L972,14 L998,15 L1051,16 L1094,16 L1094,71 L1044,71 L1038,72 L1036,71 L941,70 L867,69 L824,68 L803,68 L759,67 L685,66 L669,66 L614,65 L573,65 L537,64 L500,64 L441,63 L344,62 L321,62 L237,61 L199,61 L155,60 L136,61 L127,60 L43,60 L-82,59 L-111,59 L-212,58 L-262,58 L-265,57 L-265,2 L-209,2 L-203,3 L-88,3 L-82,2 L-78,3 L-5,3 Z " fill="#000000" transform="translate(265,1253)"/>
</svg>
