<?xml version="1.0" encoding="UTF-8"?>
<!-- Generator: visioncortex VTracer 0.6.12 -->
<svg version="1.1" xmlns="http://www.w3.org/2000/svg" width="828" height="528">
<path d="M0,0 L25,0 L46,2 L58,4 L75,7 L77,9 L86,12 L104,18 L120,26 L130,31 L136,36 L147,42 L148,45 L152,47 L163,56 L170,63 L175,67 L179,72 L184,76 L192,86 L199,95 L205,103 L213,115 L217,123 L225,139 L228,145 L231,155 L235,164 L237,173 L239,191 L241,199 L242,217 L242,242 L240,262 L237,282 L233,293 L230,303 L220,327 L213,341 L207,350 L203,358 L197,366 L193,372 L186,378 L182,384 L175,391 L171,396 L166,400 L161,405 L156,408 L151,413 L140,420 L132,425 L128,428 L121,431 L112,436 L105,439 L89,446 L84,448 L74,450 L56,456 L45,456 L43,457 L24,458 L19,460 L-8,458 L-34,453 L-50,450 L-62,447 L-63,446 L-73,444 L-89,436 L-103,430 L-113,423 L-123,417 L-131,410 L-140,403 L-145,398 L-155,387 L-160,382 L-170,371 L-182,354 L-186,345 L-191,337 L-196,329 L-202,315 L-207,302 L-214,270 L-217,253 L-217,210 L-214,189 L-211,173 L-205,155 L-202,146 L-192,123 L-186,114 L-180,104 L-168,88 L-158,77 L-154,72 L-143,63 L-136,55 L-131,52 L-126,47 L-117,41 L-112,37 L-103,32 L-91,25 L-84,22 L-74,16 L-64,12 L-63,11 L-52,12 L-50,8 L-49,7 L-33,5 L-22,3 Z M-5,40 L-21,43 L-31,45 L-47,51 L-56,55 L-66,58 L-79,65 L-95,74 L-102,80 L-116,91 L-124,98 L-132,106 L-139,116 L-146,126 L-153,135 L-156,142 L-163,156 L-168,169 L-171,177 L-173,186 L-177,202 L-178,235 L-177,256 L-173,276 L-169,291 L-165,300 L-161,310 L-154,324 L-151,329 L-144,339 L-136,350 L-120,367 L-113,374 L-103,382 L-78,396 L-70,400 L-63,404 L-54,408 L-42,412 L-30,415 L-14,418 L5,420 L17,420 L32,419 L42,418 L47,417 L51,415 L57,415 L66,412 L77,408 L91,403 L105,395 L118,387 L128,380 L136,374 L146,364 L154,357 L163,346 L169,338 L178,325 L185,311 L189,303 L194,292 L199,275 L200,265 L202,260 L204,237 L204,208 L200,184 L197,175 L194,167 L190,156 L184,143 L177,131 L169,119 L166,114 L158,105 L153,100 L148,94 L135,85 L127,79 L113,69 L107,65 L102,61 L91,58 L84,54 L75,51 L62,46 L46,43 L35,42 L32,41 L8,40 Z " fill="#000000" transform="translate(351,35)"/>
<path d="M0,0 L10,1 L15,5 L16,7 L17,17 L17,46 L16,55 L16,77 L17,111 L18,116 L22,114 L23,94 L23,14 L25,6 L30,1 L34,0 L45,1 L49,6 L50,33 L49,78 L49,120 L47,141 L43,152 L28,167 L24,173 L23,208 L23,263 L22,317 L21,426 L18,436 L14,441 L7,446 L-3,446 L-11,442 L-16,434 L-18,417 L-18,366 L-17,305 L-17,286 L-18,279 L-17,273 L-17,215 L-18,179 L-20,169 L-34,157 L-39,149 L-43,137 L-45,120 L-44,111 L-44,16 L-42,4 L-38,1 L-22,1 L-19,4 L-17,8 L-18,106 L-16,115 L-12,116 L-11,107 L-11,76 L-10,8 L-7,3 Z " fill="#000000" transform="translate(82,42)"/>
<path d="M0,0 L9,0 L14,4 L15,21 L15,135 L14,145 L14,161 L15,175 L14,221 L14,252 L15,306 L14,339 L14,409 L13,425 L10,435 L2,442 L-4,445 L-12,444 L-18,439 L-23,431 L-24,426 L-24,365 L-25,346 L-25,318 L-24,260 L-26,242 L-28,237 L-34,236 L-38,235 L-41,230 L-42,220 L-42,76 L-41,63 L-38,47 L-29,28 L-20,15 L-13,9 L-9,8 L-9,6 L-3,1 Z M-37,211 L-38,218 L-34,220 L-32,218 L-32,212 Z " fill="#000000" transform="translate(659,42)"/>
<path d="M0,0 L14,1 L27,8 L37,17 L43,27 L46,33 L51,50 L53,59 L55,71 L57,99 L56,110 L54,124 L49,140 L44,150 L32,162 L26,164 L25,168 L24,183 L24,347 L23,359 L23,396 L22,428 L18,437 L12,444 L7,445 L-2,445 L-8,441 L-13,435 L-15,429 L-15,178 L-17,169 L-21,163 L-29,158 L-38,149 L-44,139 L-48,123 L-50,95 L-49,79 L-43,51 L-39,37 L-34,27 L-30,19 L-20,9 L-11,3 L-7,1 Z M4,38 L-2,42 L-8,54 L-10,62 L-14,75 L-14,105 L-9,123 L-4,128 L3,131 L11,130 L18,123 L22,114 L24,101 L24,78 L21,62 L14,44 L6,38 Z " fill="#000000" transform="translate(737,41)"/>
<path d="M0,0 L16,0 L39,3 L40,4 L50,6 L59,10 L65,12 L72,16 L80,18 L86,23 L100,33 L109,40 L114,45 L122,53 L127,61 L133,69 L142,85 L147,98 L151,113 L154,130 L155,153 L153,169 L150,185 L147,196 L140,215 L134,224 L131,230 L123,240 L116,249 L111,254 L107,259 L95,268 L84,275 L71,283 L64,286 L57,288 L51,292 L35,297 L12,297 L8,299 L-5,299 L-21,297 L-29,295 L-33,293 L-46,291 L-59,285 L-67,282 L-81,275 L-94,262 L-99,257 L-110,246 L-118,236 L-125,225 L-131,215 L-138,194 L-143,172 L-144,157 L-144,135 L-140,111 L-133,91 L-125,76 L-112,56 L-97,40 L-92,36 L-87,31 L-79,26 L-74,22 L-58,14 L-51,11 L-39,7 L-32,5 L-28,3 Z M5,38 L0,41 L-8,41 L-17,43 L-30,45 L-45,53 L-57,60 L-62,64 L-65,67 L-76,76 L-83,83 L-87,89 L-92,97 L-99,112 L-104,127 L-105,139 L-105,155 L-103,172 L-98,190 L-93,200 L-90,207 L-80,220 L-69,232 L-60,238 L-51,245 L-36,252 L-28,254 L-18,257 L-9,258 L23,258 L38,254 L54,248 L67,240 L82,229 L91,218 L99,208 L108,189 L114,167 L116,145 L116,136 L112,118 L108,108 L102,94 L95,84 L86,76 L82,71 L74,64 L66,58 L59,56 L51,48 L41,45 L29,43 L21,40 L11,40 Z " fill="#000000" transform="translate(359,115)"/>
<path d="M0,0 L3,0 L3,4 L0,4 Z " fill="#000000" transform="translate(496,458)"/>
</svg>
