<?xml version="1.0" encoding="UTF-8"?>
<!-- Generator: visioncortex VTracer 0.6.12 -->
<svg version="1.1" xmlns="http://www.w3.org/2000/svg" width="1152" height="735">
<path d="M0,0 L17,0 L30,4 L40,11 L48,16 L57,26 L63,36 L69,49 L74,66 L77,75 L83,102 L85,126 L85,148 L84,167 L79,190 L73,205 L67,215 L58,225 L56,225 L56,227 L42,237 L41,239 L40,292 L41,319 L42,378 L43,444 L44,452 L43,460 L44,498 L44,612 L42,622 L37,631 L29,638 L24,640 L11,640 L3,636 L-3,631 L-7,625 L-9,619 L-10,586 L-12,495 L-12,437 L-13,358 L-14,349 L-14,294 L-15,280 L-15,252 L-17,244 L-23,235 L-32,229 L-41,224 L-52,212 L-59,199 L-63,184 L-66,155 L-66,112 L-61,85 L-52,54 L-43,32 L-36,23 L-28,15 L-15,5 L-6,1 Z M5,55 L0,59 L-5,66 L-12,92 L-15,104 L-17,121 L-17,131 L-16,145 L-11,168 L-7,177 L0,185 L8,188 L18,188 L24,184 L33,172 L36,160 L38,144 L38,115 L34,93 L31,84 L27,74 L23,63 L15,56 L13,55 Z " fill="#000000" transform="translate(1035,37)"/>
<path d="M0,0 L35,0 L58,1 L67,3 L79,4 L92,7 L97,9 L113,12 L120,15 L134,19 L145,23 L153,25 L156,28 L156,30 L162,32 L175,37 L186,43 L197,51 L208,58 L219,67 L227,73 L232,78 L244,88 L249,93 L259,103 L268,114 L278,125 L290,142 L303,161 L311,177 L317,186 L322,198 L327,212 L331,220 L335,231 L338,244 L342,271 L345,285 L345,298 L346,306 L347,327 L347,346 L345,357 L342,384 L338,404 L332,425 L328,435 L319,457 L314,470 L306,485 L302,493 L293,507 L290,512 L285,518 L279,528 L270,539 L266,545 L255,555 L248,564 L243,569 L231,579 L223,585 L219,590 L210,596 L196,607 L191,611 L181,616 L162,626 L153,630 L146,632 L133,639 L123,642 L110,647 L104,649 L98,649 L87,653 L64,656 L61,657 L39,659 L30,659 L19,661 L11,659 L-6,659 L-20,658 L-26,657 L-35,656 L-56,653 L-61,651 L-70,651 L-81,647 L-89,644 L-99,642 L-110,637 L-123,631 L-137,625 L-153,616 L-161,611 L-170,605 L-173,602 L-178,599 L-190,590 L-203,578 L-203,576 L-207,574 L-216,567 L-227,555 L-235,547 L-246,532 L-254,522 L-260,513 L-266,502 L-273,492 L-281,476 L-287,464 L-295,445 L-300,427 L-307,403 L-308,392 L-311,376 L-313,359 L-314,334 L-313,303 L-310,281 L-307,259 L-303,245 L-299,233 L-297,225 L-290,209 L-285,197 L-277,178 L-266,160 L-258,149 L-254,144 L-251,139 L-241,125 L-232,115 L-225,107 L-216,98 L-210,93 L-203,85 L-193,78 L-188,73 L-174,63 L-165,56 L-156,51 L-147,45 L-128,35 L-120,30 L-106,24 L-99,20 L-92,16 L-69,11 L-54,9 L-48,6 L-30,4 L-14,1 Z M2,58 L-25,60 L-34,63 L-44,64 L-52,68 L-63,71 L-74,74 L-82,78 L-93,82 L-109,90 L-127,100 L-135,105 L-142,109 L-149,115 L-153,118 L-153,120 L-158,122 L-165,127 L-170,132 L-180,141 L-185,147 L-190,152 L-198,160 L-205,171 L-213,182 L-220,193 L-223,197 L-230,213 L-235,221 L-240,236 L-246,253 L-250,267 L-255,290 L-256,297 L-257,319 L-257,335 L-255,363 L-254,367 L-252,386 L-244,418 L-240,428 L-236,435 L-233,442 L-230,448 L-227,458 L-217,475 L-210,485 L-200,499 L-192,509 L-188,514 L-181,520 L-174,528 L-167,534 L-165,534 L-163,538 L-155,544 L-150,547 L-143,553 L-134,559 L-125,564 L-120,568 L-105,574 L-90,581 L-77,587 L-69,590 L-60,592 L-57,594 L-41,597 L-33,600 L-17,601 L-14,603 L5,603 L12,604 L33,602 L51,601 L68,597 L87,594 L92,592 L100,590 L106,587 L119,583 L135,576 L142,572 L152,567 L161,561 L175,552 L184,546 L194,538 L201,530 L209,523 L213,518 L221,511 L232,497 L242,484 L246,478 L252,469 L257,461 L268,438 L275,424 L282,399 L284,395 L287,373 L290,356 L291,339 L291,307 L290,292 L286,271 L279,244 L274,229 L266,213 L256,192 L248,180 L242,172 L235,162 L231,156 L215,140 L210,135 L201,126 L193,120 L184,111 L174,106 L169,101 L159,95 L148,88 L142,85 L129,80 L117,75 L98,69 L93,67 L85,66 L82,64 L64,61 L47,59 L39,58 Z " fill="#000000" transform="translate(490,41)"/>
<path d="M0,0 L11,0 L16,5 L18,15 L18,71 L20,112 L20,164 L21,177 L20,186 L20,228 L21,246 L21,320 L22,327 L23,370 L24,421 L25,436 L25,459 L24,466 L25,470 L25,524 L26,545 L26,589 L27,604 L23,623 L19,629 L10,637 L3,640 L-10,640 L-18,633 L-22,628 L-26,620 L-28,610 L-29,589 L-29,549 L-30,498 L-31,468 L-32,449 L-31,438 L-32,421 L-32,367 L-33,344 L-36,341 L-47,340 L-54,338 L-57,335 L-59,306 L-59,278 L-60,253 L-60,231 L-61,218 L-61,156 L-62,122 L-61,96 L-58,76 L-55,65 L-49,50 L-45,41 L-38,30 L-33,23 L-25,16 L-20,12 L-14,8 L-7,2 Z " fill="#000000" transform="translate(929,41)"/>
<path d="M0,0 L19,1 L24,4 L25,6 L26,56 L27,97 L27,104 L28,111 L27,128 L27,148 L28,164 L28,179 L27,184 L26,196 L22,209 L16,221 L10,228 L6,233 L-2,239 L-7,246 L-9,252 L-9,301 L-8,317 L-7,361 L-7,408 L-6,448 L-6,494 L-5,511 L-6,526 L-5,562 L-5,611 L-7,623 L-12,632 L-17,637 L-26,643 L-33,644 L-45,641 L-52,635 L-58,625 L-60,617 L-62,576 L-62,521 L-63,489 L-63,439 L-65,402 L-65,310 L-67,254 L-70,243 L-83,235 L-92,225 L-99,215 L-102,206 L-106,196 L-107,164 L-107,8 L-104,4 L-90,2 L-81,3 L-76,3 L-72,8 L-70,14 L-70,27 L-69,58 L-69,118 L-68,157 L-65,169 L-61,169 L-60,167 L-60,10 L-57,5 L-55,3 L-43,2 L-30,2 L-23,5 L-22,12 L-22,27 L-21,59 L-21,106 L-20,124 L-20,141 L-19,163 L-16,168 L-12,166 L-11,140 L-11,67 L-12,45 L-12,15 L-11,7 L-6,2 Z " fill="#000000" transform="translate(143,59)"/>
<path d="M0,0 L23,1 L35,1 L60,6 L76,10 L86,14 L94,17 L106,22 L122,31 L132,38 L146,48 L157,57 L162,61 L171,72 L179,81 L184,88 L188,95 L200,115 L208,131 L212,144 L216,158 L219,174 L220,177 L222,199 L222,224 L219,250 L215,267 L213,276 L207,293 L202,307 L191,326 L180,343 L174,351 L164,361 L157,370 L152,375 L150,375 L148,379 L134,389 L126,395 L119,399 L99,410 L89,415 L82,416 L70,421 L55,426 L50,427 L32,427 L22,428 L17,431 L12,432 L-26,429 L-49,424 L-72,418 L-80,414 L-92,411 L-102,404 L-116,396 L-121,391 L-132,382 L-147,367 L-154,359 L-164,349 L-169,341 L-173,334 L-179,326 L-188,311 L-192,300 L-196,290 L-202,265 L-206,243 L-207,229 L-208,213 L-207,207 L-206,188 L-202,165 L-198,153 L-196,144 L-189,128 L-185,119 L-174,101 L-169,92 L-165,87 L-162,82 L-151,71 L-147,65 L-132,51 L-124,46 L-119,41 L-114,38 L-111,34 L-104,31 L-97,28 L-88,23 L-84,20 L-76,18 L-59,11 L-46,7 L-39,5 L-23,3 L-18,2 L-3,1 Z M-11,58 L-14,60 L-23,63 L-32,64 L-37,66 L-49,68 L-65,77 L-71,81 L-78,87 L-89,93 L-95,98 L-103,105 L-112,113 L-119,122 L-124,128 L-132,139 L-140,155 L-144,168 L-147,178 L-149,183 L-151,192 L-152,208 L-150,232 L-145,260 L-139,276 L-133,288 L-125,305 L-113,319 L-98,334 L-86,343 L-80,347 L-72,353 L-60,358 L-51,363 L-38,367 L-26,370 L-7,373 L14,373 L17,372 L38,371 L54,364 L56,361 L66,362 L78,356 L86,354 L93,348 L102,342 L102,340 L106,338 L115,332 L128,319 L138,305 L142,300 L147,290 L156,271 L163,247 L166,231 L168,213 L168,200 L165,179 L161,168 L158,158 L150,141 L141,126 L136,120 L132,116 L125,108 L111,95 L103,88 L96,84 L75,72 L70,69 L44,61 L28,58 Z " fill="#000000" transform="translate(500,155)"/>
</svg>
