<?xml version="1.0" encoding="UTF-8"?>
<!-- Generator: visioncortex VTracer 0.6.12 -->
<svg version="1.1" xmlns="http://www.w3.org/2000/svg" width="1113" height="1212">
<path d="M0,0 L18,0 L36,1 L69,1 L77,0 L87,1 L139,1 L153,2 L177,2 L182,3 L195,2 L314,2 L322,3 L331,2 L557,2 L593,3 L629,3 L641,2 L659,3 L738,3 L744,4 L749,3 L814,3 L839,4 L874,3 L924,4 L1007,4 L1023,7 L1027,12 L1027,31 L1026,54 L1026,87 L1025,124 L1025,178 L1024,271 L1023,294 L1023,343 L1022,389 L1021,498 L1020,520 L1020,590 L1019,649 L1018,707 L1017,756 L1017,773 L1016,816 L1015,907 L1015,927 L1014,949 L1014,979 L1012,1004 L1010,1008 L1007,1010 L980,1014 L902,1013 L863,1013 L816,1012 L739,1012 L679,1011 L517,1011 L480,1010 L390,1010 L367,1009 L306,1009 L235,1008 L134,1008 L112,1007 L86,1008 L9,1008 L-7,1007 L-13,1004 L-15,995 L-16,985 L-16,922 L-15,914 L-14,806 L-14,776 L-13,765 L-13,724 L-12,678 L-12,617 L-11,573 L-10,555 L-10,507 L-9,425 L-9,378 L-8,305 L-7,205 L-6,114 L-6,83 L-5,24 L-6,11 L-4,3 Z M24,14 L12,15 L8,20 L7,60 L7,115 L6,210 L6,244 L5,289 L5,327 L4,360 L4,426 L3,534 L2,593 L2,635 L1,655 L0,736 L-2,830 L-2,989 L2,993 L8,994 L114,994 L122,995 L131,994 L141,994 L144,995 L328,995 L390,996 L521,996 L560,997 L644,997 L653,998 L873,998 L919,999 L993,999 L999,994 L1000,991 L1001,934 L1001,912 L1002,906 L1002,872 L1003,820 L1004,707 L1005,678 L1006,615 L1006,574 L1007,500 L1007,472 L1008,428 L1008,341 L1009,334 L1009,288 L1010,184 L1011,110 L1011,50 L1012,35 L1010,23 L1006,19 L1003,18 L893,18 L862,17 L646,17 L602,16 L512,16 L506,15 L503,16 L386,16 L345,15 L338,16 L331,15 L217,15 L141,14 L125,15 L45,14 Z " fill="#000000" transform="translate(53,36)"/>
<path d="M0,0 L58,0 L77,1 L113,6 L138,11 L166,18 L182,24 L197,29 L209,34 L221,39 L233,45 L254,55 L263,61 L271,65 L282,72 L288,77 L298,84 L305,90 L316,98 L329,110 L339,119 L350,128 L353,135 L361,139 L368,147 L376,158 L385,169 L392,178 L395,183 L401,191 L407,201 L417,217 L428,237 L436,253 L442,267 L448,283 L459,315 L466,346 L471,373 L473,392 L474,408 L474,463 L473,467 L471,493 L465,524 L459,551 L453,568 L449,581 L444,594 L439,603 L435,613 L421,642 L415,651 L405,668 L396,681 L392,687 L384,698 L371,713 L357,728 L343,743 L333,753 L331,753 L329,757 L315,769 L306,775 L298,782 L287,789 L278,796 L265,804 L254,811 L239,819 L223,827 L198,838 L181,844 L172,848 L162,850 L135,858 L101,865 L41,869 L10,869 L-16,866 L-28,864 L-41,863 L-56,860 L-66,858 L-76,855 L-84,852 L-93,850 L-117,843 L-125,839 L-136,834 L-147,830 L-163,822 L-173,817 L-191,806 L-201,800 L-215,790 L-230,780 L-241,771 L-254,759 L-265,750 L-270,744 L-278,737 L-288,727 L-292,721 L-297,717 L-305,706 L-315,693 L-322,683 L-328,676 L-334,667 L-342,654 L-346,646 L-354,630 L-360,618 L-366,604 L-369,598 L-372,589 L-377,577 L-384,557 L-388,540 L-392,524 L-397,496 L-399,478 L-401,435 L-401,420 L-398,381 L-391,341 L-388,333 L-385,321 L-379,302 L-374,284 L-366,266 L-357,244 L-351,233 L-341,215 L-334,204 L-328,195 L-322,186 L-310,170 L-298,156 L-288,145 L-281,136 L-266,122 L-259,115 L-254,111 L-249,106 L-236,96 L-228,89 L-222,85 L-213,79 L-206,73 L-197,68 L-188,62 L-180,58 L-169,51 L-156,44 L-146,40 L-133,34 L-121,29 L-115,27 L-105,23 L-93,19 L-81,16 L-78,14 L-65,12 L-50,8 L-39,7 L-19,3 L-18,2 L-2,1 Z M-336,346 L-345,348 L-353,354 L-358,365 L-360,372 L-361,384 L-359,407 L-359,422 L-360,462 L-360,501 L-358,505 L-352,509 L-305,510 L-259,510 L-239,509 L-149,509 L-138,510 L-79,509 L-56,510 L-19,510 L-11,511 L33,510 L97,511 L388,511 L394,513 L414,510 L422,506 L426,501 L429,494 L429,364 L425,358 L420,353 L414,350 L378,349 L273,349 L231,348 L219,347 L203,348 L46,348 L37,347 L9,347 L1,348 L-17,347 L-108,347 L-198,346 Z " fill="#000000" transform="translate(522,118)"/>
<path d="M0,0 L3,1 L3,5 L-1,4 Z " fill="#000000" transform="translate(335,552)"/>
<path d="M0,0 L5,0 L5,2 L-3,7 L-6,7 L-5,3 Z " fill="#000000" transform="translate(65,819)"/>
<path d="M0,0 L21,1 L30,3 L36,7 L40,12 L43,20 L43,29 L39,38 L31,46 L27,48 L18,49 L1,49 L-3,53 L-4,66 L-4,73 L-6,79 L-8,81 L-14,81 L-17,76 L-17,39 L-16,5 L-13,1 Z M1,12 L-2,15 L-3,18 L-3,33 L0,37 L18,38 L26,35 L30,30 L31,25 L28,18 L21,12 Z " fill="#000000" transform="translate(61,1094)"/>
<path d="M0,0 L6,0 L9,3 L10,14 L18,19 L19,23 L16,28 L11,31 L10,34 L10,52 L11,64 L17,66 L19,70 L18,76 L15,78 L8,79 L0,75 L-3,72 L-4,64 L-5,32 L-10,27 L-11,26 L-10,19 L-6,15 L-4,10 L-3,3 Z " fill="#000000" transform="translate(234,1099)"/>
<path d="M0,0 L11,1 L22,8 L28,15 L30,21 L31,30 L29,43 L24,52 L18,59 L15,61 L6,64 L-4,64 L-13,60 L-22,52 L-25,46 L-27,30 L-25,18 L-19,10 L-14,6 L-4,1 Z M2,11 L-8,16 L-12,21 L-13,24 L-13,42 L-7,51 L2,54 L9,51 L17,43 L19,33 L18,24 L15,18 L9,13 Z " fill="#000000" transform="translate(142,1115)"/>
<path d="M0,0 L6,2 L7,3 L7,10 L4,13 L-5,17 L-8,23 L-10,31 L-11,57 L-13,61 L-18,62 L-23,57 L-24,38 L-23,5 L-20,1 L-15,1 L-11,4 L-5,3 Z " fill="#000000" transform="translate(209,1115)"/>
</svg>
