<?xml version="1.0" encoding="UTF-8"?>
<!-- Generator: visioncortex VTracer 0.6.12 -->
<svg version="1.1" xmlns="http://www.w3.org/2000/svg" width="1539" height="1305">
<path d="M0,0 L91,2 L178,2 L233,4 L307,4 L339,5 L485,5 L524,6 L592,6 L619,7 L625,8 L628,7 L756,7 L785,8 L857,8 L902,11 L919,14 L930,19 L939,22 L954,31 L963,38 L971,45 L981,54 L988,62 L995,72 L1002,83 L1011,104 L1015,120 L1017,131 L1018,154 L1018,301 L1017,323 L1016,555 L1016,642 L1017,757 L1017,1009 L1015,1030 L1012,1045 L1006,1063 L998,1079 L988,1093 L978,1103 L971,1111 L958,1120 L944,1128 L922,1136 L910,1140 L896,1143 L879,1145 L870,1146 L849,1147 L846,1148 L795,1148 L755,1147 L704,1147 L587,1146 L562,1145 L535,1145 L498,1144 L406,1144 L379,1143 L245,1143 L163,1142 L106,1142 L53,1141 L26,1141 L-2,1139 L-21,1137 L-26,1135 L-33,1133 L-47,1128 L-63,1120 L-79,1108 L-91,1097 L-98,1090 L-108,1075 L-118,1060 L-126,1044 L-130,1033 L-135,1012 L-138,984 L-137,929 L-137,408 L-136,151 L-132,122 L-126,94 L-123,82 L-115,65 L-104,52 L-97,43 L-89,35 L-81,28 L-68,20 L-52,11 L-43,8 L-33,5 L-21,3 L-10,1 Z M-7,12 L-22,14 L-31,17 L-42,19 L-58,27 L-69,33 L-85,46 L-92,53 L-102,66 L-109,76 L-115,91 L-120,111 L-124,137 L-125,158 L-126,202 L-127,287 L-127,974 L-124,1014 L-117,1038 L-113,1046 L-108,1055 L-99,1070 L-94,1075 L-88,1084 L-84,1089 L-76,1096 L-65,1105 L-56,1111 L-42,1118 L-30,1123 L-16,1127 L3,1129 L22,1131 L83,1131 L254,1132 L265,1132 L285,1133 L432,1133 L448,1134 L607,1134 L668,1135 L734,1136 L848,1136 L855,1135 L874,1134 L900,1130 L921,1123 L929,1121 L943,1115 L957,1106 L964,1099 L969,1094 L977,1086 L987,1073 L997,1052 L1000,1040 L1004,1024 L1006,991 L1006,903 L1005,853 L1005,270 L1006,256 L1006,169 L1004,135 L1000,112 L996,103 L991,92 L985,81 L977,69 L971,62 L963,55 L956,48 L943,40 L933,34 L924,30 L916,28 L905,24 L884,22 L879,21 L810,19 L789,19 L728,18 L670,18 L597,17 L553,17 L537,16 L503,16 L395,15 L336,15 L328,16 L323,15 L252,15 L206,14 L176,13 L129,13 L80,12 L72,13 L54,13 L45,12 Z " fill="#000000" transform="translate(442,36)"/>
<path d="M0,0 L2,0 L2,2 L0,2 Z " fill="#000000" transform="translate(101,54)"/>
<path d="M0,0 L3,0 L3,3 L0,2 Z " fill="#000000" transform="translate(824,178)"/>
<path d="M0,0 L35,0 L69,2 L111,10 L131,15 L143,19 L152,22 L157,24 L166,26 L187,35 L199,40 L215,48 L233,58 L247,67 L254,72 L260,75 L261,78 L265,80 L271,84 L280,91 L293,102 L303,110 L306,113 L306,115 L310,117 L315,121 L315,123 L317,123 L321,128 L327,133 L334,141 L342,150 L342,152 L345,153 L354,166 L361,177 L367,185 L374,196 L386,215 L398,238 L406,256 L413,273 L418,288 L424,307 L428,324 L431,333 L435,356 L438,381 L440,408 L440,435 L437,471 L433,500 L426,528 L421,547 L414,565 L408,581 L403,593 L397,606 L390,620 L384,630 L379,639 L372,649 L367,657 L359,669 L354,675 L350,682 L339,696 L334,701 L319,717 L315,719 L315,721 L310,726 L297,737 L287,745 L279,751 L269,757 L267,757 L265,761 L260,765 L240,777 L230,783 L209,794 L205,797 L189,803 L179,808 L170,811 L151,818 L128,825 L116,827 L102,831 L78,835 L55,836 L50,837 L11,838 L-19,836 L-37,834 L-49,832 L-62,829 L-78,826 L-87,823 L-105,818 L-127,810 L-135,806 L-144,803 L-163,794 L-179,786 L-192,779 L-200,773 L-211,767 L-221,760 L-230,753 L-236,749 L-241,744 L-243,743 L-243,741 L-248,739 L-257,731 L-262,726 L-270,719 L-277,711 L-292,696 L-298,687 L-307,677 L-316,664 L-323,654 L-330,644 L-341,626 L-351,607 L-359,591 L-367,571 L-373,557 L-377,544 L-384,522 L-387,505 L-390,492 L-391,490 L-393,475 L-396,450 L-397,441 L-397,396 L-394,364 L-392,354 L-391,343 L-388,330 L-381,302 L-376,286 L-370,269 L-353,230 L-344,213 L-338,203 L-328,187 L-316,170 L-308,160 L-299,149 L-293,141 L-287,133 L-279,126 L-262,109 L-251,100 L-244,93 L-236,87 L-217,73 L-204,65 L-189,56 L-182,51 L-167,44 L-147,35 L-136,30 L-123,25 L-117,22 L-109,20 L-94,15 L-83,13 L-70,9 L-46,5 L-18,1 Z M-315,340 L-318,341 L-321,346 L-322,351 L-323,433 L-322,481 L-319,486 L-317,487 L-288,488 L-268,488 L-255,489 L-132,490 L11,491 L53,492 L105,492 L168,493 L246,494 L293,494 L319,495 L359,495 L362,492 L364,481 L364,365 L363,352 L360,349 L346,347 L246,347 L241,346 L186,345 L104,344 L88,344 L67,343 L-42,343 L-51,342 L-101,342 L-114,341 L-228,341 L-258,340 Z " fill="#000000" transform="translate(880,188)"/>
<path d="M0,0 L2,1 L2,4 L-1,3 Z " fill="#000000" transform="translate(469,342)"/>
<path d="M0,0 L4,1 L9,3 L90,3 L139,4 L173,4 L253,5 L513,7 L584,7 L623,8 L713,9 L764,9 L885,10 L945,11 L978,11 L1069,12 L1123,12 L1130,11 L1135,13 L1179,13 L1239,14 L1239,64 L470,64 L459,63 L430,63 L429,64 L419,64 L418,63 L387,62 L341,62 L205,61 L149,61 L107,60 L47,60 L-58,59 L-204,58 L-298,58 L-300,57 L-300,1 L-227,1 L-85,2 L-32,3 L-11,3 L-2,2 Z " fill="#000000" transform="translate(300,1241)"/>
</svg>
