<?xml version="1.0" encoding="UTF-8"?>
<!-- Generator: visioncortex VTracer 0.6.12 -->
<svg version="1.1" xmlns="http://www.w3.org/2000/svg" width="612" height="1191">
<path d="M0,0 L13,0 L26,3 L38,10 L46,17 L46,19 L48,19 L55,31 L60,46 L60,64 L56,77 L47,94 L46,99 L44,219 L44,248 L43,342 L43,536 L42,618 L42,745 L41,944 L41,1020 L40,1067 L40,1111 L36,1114 L26,1115 L16,1115 L11,1112 L9,1109 L8,1066 L9,709 L9,546 L10,364 L10,307 L11,221 L11,182 L12,126 L11,113 L8,109 L1,109 L-1,112 L-2,119 L-4,157 L-6,245 L-8,252 L-9,253 L-15,253 L-23,246 L-23,244 L-27,242 L-36,231 L-39,228 L-39,226 L-42,225 L-42,223 L-46,221 L-53,214 L-60,206 L-71,194 L-80,184 L-85,179 L-93,170 L-102,159 L-117,144 L-124,136 L-138,121 L-144,114 L-144,112 L-148,110 L-156,102 L-156,100 L-158,100 L-165,92 L-174,82 L-176,81 L-176,79 L-180,77 L-184,71 L-191,65 L-200,54 L-211,43 L-213,39 L-212,35 L-209,33 L-195,32 L-185,33 L-139,33 L-66,34 L-47,33 L-41,30 L-33,21 L-24,10 L-12,4 Z " fill="#000000" transform="translate(526,31)"/>
<path d="M0,0 L10,0 L15,3 L17,9 L15,12 L6,14 L-18,17 L-29,19 L-42,20 L-53,22 L-68,24 L-99,29 L-107,30 L-114,27 L-118,23 L-118,17 L-116,15 L-100,12 L-81,10 L-60,7 L-19,2 Z " fill="#000000" transform="translate(290,95)"/>
<path d="M0,0 L10,0 L15,4 L17,7 L16,12 L9,16 L-8,21 L-29,28 L-46,33 L-78,44 L-89,45 L-95,42 L-99,37 L-99,32 L-95,29 L-70,21 L-58,18 L-45,14 L-15,5 Z " fill="#000000" transform="translate(330,133)"/>
<path d="M0,0 L6,0 L11,4 L12,11 L3,18 L-19,30 L-33,37 L-42,42 L-59,51 L-67,55 L-74,54 L-79,50 L-80,43 L-72,36 L-60,30 L-50,26 L-31,16 L-23,12 L-15,8 L-3,1 Z " fill="#000000" transform="translate(370,169)"/>
<path d="M0,0 L5,0 L11,7 L11,13 L6,19 L1,24 L-5,29 L-12,37 L-17,41 L-26,52 L-30,57 L-38,64 L-45,70 L-52,70 L-57,66 L-58,64 L-58,58 L-51,50 L-39,38 L-34,33 L-25,23 L-20,19 L-18,19 L-17,16 L-15,16 L-14,13 L-7,7 L-5,4 L-3,4 L-2,1 Z " fill="#000000" transform="translate(406,204)"/>
<path d="M0,0 L6,0 L11,6 L12,8 L12,15 L6,25 L0,36 L-12,57 L-23,76 L-28,83 L-34,84 L-39,79 L-40,70 L-36,62 L-28,46 L-19,33 L-8,14 L-2,2 Z " fill="#000000" transform="translate(439,240)"/>
<path d="M0,0 L21,1 L35,5 L46,10 L57,19 L64,24 L74,37 L80,49 L86,69 L86,91 L82,108 L74,125 L65,135 L55,143 L41,151 L32,155 L21,157 L-3,157 L-19,153 L-31,147 L-44,138 L-53,130 L-63,114 L-69,96 L-69,66 L-64,50 L-60,41 L-51,28 L-48,25 L-46,25 L-44,21 L-34,13 L-24,7 L-5,1 Z M5,28 L-7,31 L-16,35 L-27,43 L-31,48 L-39,62 L-41,71 L-41,87 L-38,98 L-31,110 L-25,117 L-14,124 L-4,128 L12,129 L23,127 L37,121 L49,110 L56,98 L59,84 L59,72 L53,54 L46,45 L38,38 L28,32 L12,28 Z " fill="#000000" transform="translate(125,257)"/>
<path d="M0,0 L6,1 L11,9 L11,20 L3,45 L-1,61 L-7,80 L-14,104 L-18,108 L-22,107 L-29,97 L-29,88 L-24,73 L-19,54 L-15,40 L-10,22 L-4,4 Z " fill="#000000" transform="translate(474,274)"/>
<path d="M0,0 L15,0 L27,3 L39,9 L55,20 L61,25 L66,30 L73,37 L78,41 L87,52 L94,60 L105,74 L118,92 L130,111 L138,125 L148,143 L157,163 L163,178 L169,193 L174,211 L180,229 L189,265 L192,288 L195,307 L195,318 L196,328 L197,361 L198,368 L198,434 L199,477 L203,488 L204,524 L204,786 L203,819 L204,834 L202,843 L200,846 L195,847 L184,845 L180,841 L178,830 L174,789 L170,742 L169,722 L167,696 L163,662 L162,641 L160,619 L158,607 L156,588 L155,566 L150,518 L148,512 L138,510 L123,510 L115,509 L59,507 L13,507 L-10,508 L-15,511 L-17,517 L-19,539 L-22,564 L-27,604 L-31,638 L-32,661 L-35,679 L-38,704 L-43,755 L-47,786 L-49,797 L-51,822 L-53,839 L-56,844 L-60,846 L-72,846 L-78,843 L-80,838 L-81,818 L-83,814 L-88,812 L-97,813 L-120,819 L-146,826 L-156,829 L-176,835 L-184,837 L-190,839 L-199,839 L-202,836 L-203,833 L-204,762 L-205,721 L-205,532 L-206,516 L-206,480 L-207,470 L-211,464 L-218,460 L-233,451 L-234,449 L-235,431 L-234,357 L-233,350 L-228,344 L-217,339 L-207,335 L-195,330 L-180,325 L-172,319 L-166,309 L-154,283 L-145,264 L-141,257 L-137,247 L-129,233 L-123,218 L-115,203 L-108,186 L-100,170 L-92,154 L-83,137 L-78,125 L-70,109 L-62,92 L-54,76 L-46,60 L-38,44 L-33,34 L-24,17 L-15,6 L-5,1 Z M7,23 L-3,28 L-7,33 L-14,47 L-19,56 L-27,72 L-34,86 L-38,95 L-54,127 L-64,148 L-71,163 L-77,176 L-85,192 L-93,208 L-98,218 L-105,233 L-113,249 L-121,266 L-128,280 L-135,295 L-145,316 L-150,327 L-155,336 L-165,341 L-174,344 L-198,353 L-209,357 L-216,362 L-218,366 L-219,394 L-219,425 L-218,436 L-215,441 L-209,442 L-206,439 L-205,380 L-202,375 L-193,374 L-162,371 L-149,367 L-135,360 L-127,351 L-118,336 L-110,323 L-99,305 L-91,291 L-83,278 L-76,264 L-68,253 L-62,242 L-53,226 L-49,220 L-41,206 L-35,197 L-26,182 L-21,173 L-13,160 L0,139 L9,124 L18,113 L25,108 L32,105 L38,106 L39,111 L35,121 L22,144 L16,154 L7,168 L-8,193 L-8,205 L-1,217 L12,248 L19,269 L24,287 L28,305 L30,323 L32,352 L34,356 L39,358 L63,361 L127,365 L154,367 L163,367 L168,364 L169,362 L170,353 L170,337 L168,301 L162,261 L159,249 L155,235 L151,220 L143,197 L138,184 L132,169 L122,150 L117,140 L110,128 L104,119 L99,110 L89,96 L81,86 L70,72 L61,62 L53,52 L51,52 L51,50 L43,43 L39,38 L26,28 L16,23 Z M-28,231 L-33,236 L-44,253 L-55,272 L-65,287 L-73,300 L-80,312 L-89,326 L-96,340 L-102,350 L-107,359 L-105,364 L-102,365 L-92,365 L-82,364 L-37,362 L-6,359 L1,355 L2,353 L2,308 L0,293 L-5,274 L-12,253 L-17,243 L-22,233 L-25,231 Z " fill="#000000" transform="translate(265,300)"/>
</svg>
