<?xml version="1.0" encoding="UTF-8"?>
<!-- Generator: visioncortex VTracer 0.6.12 -->
<svg version="1.1" xmlns="http://www.w3.org/2000/svg" width="1179" height="1332">
<path d="M0,0 L13,0 L25,2 L37,5 L50,12 L59,18 L70,29 L76,39 L84,55 L87,67 L87,92 L84,108 L76,124 L69,132 L60,142 L50,149 L31,158 L12,161 L-4,160 L-23,155 L-35,149 L-46,141 L-51,136 L-58,127 L-64,118 L-70,103 L-72,91 L-72,68 L-69,55 L-63,41 L-55,30 L-50,24 L-37,14 L-23,6 L-14,3 Z M7,25 L-8,28 L-24,36 L-34,45 L-41,54 L-46,67 L-47,72 L-47,89 L-45,98 L-41,107 L-33,118 L-24,126 L-12,132 L1,135 L13,135 L31,130 L42,123 L52,113 L57,105 L61,94 L63,84 L63,72 L60,59 L55,51 L48,41 L35,31 L24,27 L12,25 Z " fill="#000000" transform="translate(454,66)"/>
<path d="M0,0 L6,0 L21,10 L35,18 L58,33 L76,46 L85,52 L98,61 L102,65 L103,72 L98,84 L98,90 L100,95 L104,97 L115,108 L122,116 L131,128 L138,138 L143,148 L149,156 L156,156 L164,149 L170,142 L173,130 L175,91 L178,84 L185,77 L186,71 L180,59 L174,47 L171,41 L171,34 L175,29 L190,21 L197,17 L204,18 L209,26 L216,38 L221,48 L228,59 L230,61 L247,61 L255,66 L260,72 L264,78 L265,79 L274,79 L281,76 L291,76 L297,80 L301,85 L302,95 L298,119 L295,135 L290,168 L289,182 L285,187 L271,194 L261,199 L246,200 L238,203 L237,208 L242,217 L242,226 L237,231 L229,239 L220,246 L211,254 L200,263 L190,273 L189,279 L192,281 L216,281 L221,278 L225,259 L229,255 L232,254 L255,254 L265,255 L273,254 L314,253 L328,253 L343,254 L348,259 L349,262 L350,276 L355,279 L391,279 L396,282 L398,287 L399,304 L399,363 L400,419 L400,450 L401,457 L401,514 L402,542 L402,588 L403,635 L406,770 L407,843 L408,866 L409,899 L411,998 L411,1015 L406,1020 L168,1020 L128,1021 L1,1021 L-7,1018 L-10,1012 L-12,935 L-14,906 L-14,887 L-15,845 L-17,826 L-22,823 L-72,823 L-77,818 L-78,810 L-78,760 L-77,686 L-77,620 L-76,586 L-76,536 L-75,515 L-75,477 L-73,354 L-72,322 L-72,279 L-71,221 L-70,216 L-69,195 L-67,185 L-66,170 L-62,151 L-57,130 L-52,107 L-44,81 L-39,68 L-33,55 L-27,38 L-20,26 L-13,16 L-7,7 L-2,1 Z M8,39 L3,44 L-5,60 L-14,81 L-21,100 L-25,113 L-32,141 L-35,172 L-38,191 L-39,254 L-40,296 L-41,317 L-41,347 L-42,389 L-43,467 L-44,489 L-44,509 L-45,570 L-46,677 L-46,758 L-44,783 L-39,787 L-36,788 L46,788 L82,787 L106,787 L151,786 L157,783 L160,776 L160,719 L159,680 L159,630 L158,601 L158,553 L157,526 L157,478 L156,443 L156,419 L155,412 L155,367 L154,321 L151,312 L144,313 L134,323 L126,330 L119,337 L111,344 L99,355 L96,357 L88,357 L83,352 L76,345 L72,339 L68,334 L61,324 L53,312 L48,304 L46,304 L44,300 L39,290 L37,290 L35,286 L26,274 L18,262 L10,246 L4,232 L-2,218 L-6,205 L-8,199 L-9,192 L-3,194 L3,202 L12,214 L20,223 L30,236 L37,244 L49,260 L58,273 L69,289 L77,301 L86,313 L91,318 L97,318 L110,309 L122,297 L132,289 L142,280 L142,278 L146,276 L156,267 L162,262 L166,257 L175,250 L175,248 L177,248 L182,243 L192,234 L198,229 L203,224 L206,218 L205,211 L198,200 L190,189 L183,180 L179,177 L175,176 L170,179 L160,187 L151,194 L144,202 L135,209 L127,215 L109,226 L104,229 L98,228 L90,217 L84,207 L74,192 L65,179 L61,171 L53,160 L45,147 L38,136 L37,130 L45,131 L54,136 L59,140 L70,149 L82,161 L87,166 L93,173 L98,182 L105,192 L108,194 L114,194 L122,187 L123,179 L119,167 L111,152 L105,142 L100,136 L89,122 L80,112 L69,100 L66,94 L66,87 L67,83 L67,76 L62,71 L51,63 L37,54 L16,40 L14,39 Z M240,78 L219,85 L203,93 L197,97 L194,101 L192,110 L192,139 L194,149 L202,163 L210,173 L219,176 L238,176 L250,173 L266,165 L273,158 L279,136 L281,122 L282,101 L279,99 L269,100 L249,100 L250,86 L247,81 L243,78 Z M130,820 L125,823 L122,828 L120,860 L119,892 L118,904 L117,936 L116,954 L117,966 L120,971 L128,977 L141,986 L151,992 L156,994 L161,993 L163,991 L164,971 L162,903 L162,861 L161,830 L158,822 L154,820 Z " fill="#000000" transform="translate(364,195)"/>
<path d="M0,0 L7,0 L11,6 L11,14 L3,19 L-5,23 L-27,35 L-50,46 L-56,45 L-60,39 L-60,32 L-55,27 L-44,21 L-27,13 L-12,5 Z " fill="#000000" transform="translate(682,389)"/>
<path d="M0,0 L71,0 L73,1 L73,6 L72,7 L49,8 L-84,9 L-328,10 L-494,11 L-523,11 L-939,14 L-1010,14 L-1081,15 L-1093,14 L-1094,13 L-1094,8 L-1090,7 L-1054,7 L-804,5 L-731,5 L-633,4 L-551,3 L-511,3 L-289,2 L-188,1 L-117,1 Z " fill="#000000" transform="translate(1103,1291)"/>
</svg>
