<?xml version="1.0" encoding="UTF-8"?>
<!-- Generator: visioncortex VTracer 0.6.12 -->
<svg version="1.1" xmlns="http://www.w3.org/2000/svg" width="1131" height="1122">
<path d="M0,0 L6,0 L6,25 L4,23 L3,8 L1,2 Z " fill="#000000" transform="translate(1125,0)"/>
<path d="M0,0 Z " fill="#000000" transform="translate(1130,30)"/>
<path d="M0,0 L1,0 L1,499 L-1,496 L-1,450 L-2,435 L-2,67 L-1,59 L-1,2 Z " fill="#000000" transform="translate(1130,40)"/>
<path d="M0,0 L7,0 L6,5 L-8,23 L-12,29 L-20,40 L-28,50 L-35,60 L-43,72 L-49,80 L-53,87 L-53,93 L-40,92 L-33,91 L15,89 L44,90 L65,91 L67,92 L84,94 L94,95 L111,98 L135,103 L139,105 L160,110 L178,116 L181,119 L182,122 L183,151 L183,166 L182,177 L179,180 L152,183 L139,184 L127,186 L125,187 L115,188 L113,189 L113,193 L123,198 L136,203 L154,210 L165,214 L179,220 L182,223 L183,230 L183,258 L182,260 L177,260 L172,256 L158,248 L139,240 L131,236 L121,233 L115,230 L90,224 L76,222 L59,222 L43,224 L32,230 L23,237 L11,248 L2,263 L-7,295 L-10,299 L-17,298 L-29,294 L-59,284 L-67,281 L-83,277 L-86,275 L-95,273 L-110,267 L-126,262 L-128,259 L-126,249 L-120,230 L-114,200 L-112,192 L-109,165 L-108,153 L-108,104 L-109,99 L-112,63 L-113,47 L-109,43 L-97,38 L-79,31 L-57,22 L-46,18 L-34,13 L-21,8 L-3,2 Z M4,103 L-3,108 L-4,110 L-4,118 L1,124 L3,125 L10,125 L17,119 L17,110 L15,106 L10,103 Z " fill="#000000" transform="translate(819,149)"/>
<path d="M0,0 L6,0 L9,3 L16,15 L29,38 L35,50 L48,73 L55,86 L64,99 L73,106 L89,115 L106,124 L124,131 L149,137 L162,141 L196,141 L249,139 L266,138 L273,136 L282,137 L290,137 L309,131 L321,128 L339,120 L355,112 L364,106 L371,102 L377,97 L388,88 L402,75 L409,67 L414,61 L420,60 L434,65 L451,70 L489,83 L517,92 L528,96 L544,102 L550,107 L550,122 L549,132 L548,167 L549,220 L554,313 L555,325 L559,442 L561,487 L561,497 L563,526 L566,599 L566,624 L562,626 L515,626 L512,622 L509,598 L507,572 L506,568 L504,541 L502,521 L499,489 L497,476 L495,455 L492,432 L490,419 L486,419 L481,438 L472,477 L464,512 L459,534 L451,568 L449,578 L442,605 L438,622 L435,626 L426,627 L383,627 L379,624 L380,609 L382,602 L384,587 L389,561 L391,556 L396,527 L401,502 L404,480 L411,449 L414,434 L419,404 L419,396 L413,389 L403,383 L393,376 L377,367 L366,359 L349,350 L343,345 L334,341 L313,329 L301,322 L280,312 L274,309 L267,306 L245,296 L229,293 L216,291 L201,291 L190,295 L181,303 L172,316 L165,325 L161,330 L155,338 L145,351 L136,364 L127,374 L119,385 L111,395 L104,404 L96,414 L83,431 L75,441 L67,452 L61,460 L53,473 L40,501 L34,524 L33,533 L33,557 L36,605 L38,621 L38,629 L36,631 L12,631 L-15,629 L-17,627 L-18,620 L-19,552 L-19,513 L-15,503 L-3,481 L9,459 L17,446 L26,429 L32,417 L32,414 L28,415 L22,420 L15,428 L-4,447 L-11,455 L-17,462 L-25,469 L-29,474 L-33,479 L-39,483 L-48,493 L-50,496 L-52,496 L-54,501 L-63,512 L-69,525 L-72,534 L-75,554 L-77,585 L-80,627 L-85,630 L-90,629 L-130,629 L-134,626 L-134,609 L-132,591 L-127,551 L-121,506 L-117,492 L-112,486 L-104,480 L-93,471 L-83,461 L-78,456 L-69,445 L-59,432 L-50,416 L-42,400 L-33,377 L-27,357 L-21,321 L-18,295 L-17,249 L-16,228 L-12,202 L-7,186 L-2,176 L4,165 L10,154 L19,141 L24,133 L25,127 L21,117 L13,101 L-2,73 L-10,57 L-15,47 L-18,31 L-17,24 L-15,16 L-10,8 L-3,1 Z " fill="#000000" transform="translate(253,392)"/>
<path d="M0,0 L1,0 L1,23 L-1,20 L-1,2 Z " fill="#000000" transform="translate(1130,543)"/>
<path d="M0,0 L2,0 L3,4 L2,6 L0,6 Z " fill="#000000" transform="translate(0,752)"/>
<path d="M0,0 L2,4 L1,9 L0,9 Z " fill="#000000" transform="translate(0,937)"/>
<path d="M0,0 Z " fill="#000000" transform="translate(0,1039)"/>
<path d="M0,0 L2,0 L2,7 L0,10 Z " fill="#000000" transform="translate(0,1062)"/>
<path d="M0,0 L1,0 L4,34 L9,37 L93,38 L108,38 L122,39 L152,39 L155,41 L0,41 Z " fill="#000000" transform="translate(0,1081)"/>
<path d="M0,0 L1,4 L-3,4 L-2,1 Z " fill="#000000" transform="translate(1130,1118)"/>
<path d="M0,0 L7,0 L8,2 L-1,2 Z " fill="#000000" transform="translate(162,1120)"/>
<path d="M0,0 L4,1 Z " fill="#000000" transform="translate(174,1121)"/>
<path d="M0,0 L2,1 Z " fill="#000000" transform="translate(190,1121)"/>
</svg>
