<?xml version="1.0" encoding="UTF-8"?>
<!-- Generator: visioncortex VTracer 0.6.12 -->
<svg version="1.1" xmlns="http://www.w3.org/2000/svg" width="831" height="777">
<path d="M0,0 L45,0 L55,1 L62,1 L66,2 L88,2 L108,3 L128,9 L130,10 L147,12 L160,17 L170,20 L179,23 L188,24 L198,28 L215,34 L226,36 L233,39 L245,42 L254,47 L276,59 L292,67 L298,71 L303,76 L308,81 L308,83 L312,85 L321,92 L331,101 L336,106 L345,114 L351,118 L357,126 L366,141 L371,146 L371,148 L374,149 L379,157 L386,165 L392,170 L402,193 L406,201 L411,217 L417,229 L424,245 L432,274 L434,279 L436,297 L440,323 L441,343 L441,389 L437,416 L435,428 L430,451 L424,468 L419,486 L409,508 L401,524 L394,538 L390,543 L384,552 L376,564 L369,573 L360,584 L351,595 L342,604 L339,614 L323,631 L314,638 L305,640 L289,649 L280,654 L268,662 L263,666 L245,672 L235,677 L226,681 L212,687 L203,689 L195,693 L169,699 L157,702 L127,705 L113,707 L68,707 L58,705 L22,705 L12,703 L-11,701 L-23,698 L-31,696 L-58,692 L-94,680 L-112,672 L-133,662 L-148,654 L-158,647 L-168,641 L-179,633 L-188,626 L-198,617 L-208,608 L-215,602 L-222,594 L-238,578 L-246,568 L-253,559 L-260,548 L-268,534 L-274,526 L-285,507 L-290,495 L-298,477 L-302,469 L-308,448 L-312,433 L-318,406 L-320,380 L-322,370 L-322,333 L-321,310 L-318,287 L-311,259 L-306,238 L-302,229 L-296,216 L-283,186 L-275,170 L-271,164 L-264,154 L-256,143 L-244,127 L-239,120 L-231,113 L-221,101 L-215,97 L-210,92 L-200,84 L-186,70 L-171,60 L-166,56 L-155,50 L-142,42 L-126,34 L-120,31 L-116,26 L-105,21 L-93,19 L-89,17 L-73,14 L-63,10 L-60,9 L-49,8 L-30,3 L-13,2 Z M12,30 L7,31 L-7,32 L-16,33 L-31,35 L-49,39 L-62,43 L-75,46 L-86,50 L-94,54 L-104,57 L-123,68 L-137,75 L-145,81 L-154,87 L-164,94 L-175,102 L-187,113 L-192,118 L-196,123 L-196,125 L-200,127 L-210,137 L-218,147 L-224,155 L-234,168 L-247,190 L-259,212 L-266,229 L-273,249 L-278,265 L-281,278 L-285,296 L-288,317 L-289,357 L-286,393 L-283,409 L-279,422 L-275,440 L-269,458 L-262,475 L-260,481 L-251,498 L-241,517 L-235,525 L-228,536 L-220,546 L-214,554 L-200,569 L-191,580 L-180,589 L-175,594 L-165,601 L-155,609 L-140,619 L-129,626 L-116,633 L-109,637 L-97,642 L-85,648 L-74,652 L-65,655 L-62,657 L-52,659 L-51,660 L-28,664 L-24,666 L-12,667 L-6,669 L4,669 L20,671 L58,670 L63,668 L77,667 L80,666 L95,664 L106,662 L109,660 L116,660 L137,653 L161,645 L173,639 L187,632 L195,627 L205,621 L218,612 L232,602 L238,598 L243,593 L252,585 L256,578 L261,574 L269,564 L277,557 L286,546 L297,531 L305,518 L310,509 L315,503 L323,485 L330,471 L334,460 L340,443 L344,427 L346,413 L349,389 L350,385 L350,330 L348,308 L346,301 L343,283 L339,270 L334,254 L330,242 L323,226 L316,210 L305,187 L298,175 L287,161 L281,153 L274,145 L265,136 L258,128 L248,119 L241,111 L229,100 L221,95 L208,85 L195,77 L176,66 L163,60 L148,53 L126,45 L122,43 L102,39 L83,35 L64,32 L46,30 Z M296,110 L293,113 L297,117 L305,117 L308,115 L307,111 L305,110 Z M323,144 L319,147 L320,151 L325,154 L337,155 L344,152 L343,147 L337,144 Z M344,182 L341,184 L341,189 L344,191 L361,192 L367,189 L367,185 L364,183 L359,182 Z M364,220 L359,222 L357,224 L358,228 L362,231 L374,232 L386,231 L389,229 L389,224 L385,221 Z M381,258 L379,260 L380,264 L391,266 L398,264 L397,260 L396,259 L389,258 Z M384,294 L380,297 L380,302 L384,305 L406,305 L411,302 L412,298 L408,294 Z M394,333 L386,335 L383,338 L383,344 L388,349 L393,350 L396,349 L413,348 L417,346 L418,344 L418,337 L413,333 Z M387,387 L383,390 L383,396 L386,399 L389,400 L409,400 L416,396 L416,390 L412,387 Z M385,432 L379,435 L377,437 L377,442 L380,445 L389,446 L401,446 L407,442 L408,437 L404,433 L397,432 Z M374,474 L367,477 L365,479 L366,484 L371,487 L391,485 L395,481 L394,477 L385,474 Z M362,511 L353,512 L348,515 L347,522 L353,525 L370,525 L375,522 L378,518 L377,513 L368,511 Z M343,548 L331,549 L327,553 L327,558 L330,561 L347,561 L353,558 L355,553 L350,548 Z M305,584 L298,587 L297,593 L299,595 L314,595 L321,593 L323,591 L323,586 L315,584 Z M264,621 L259,624 L260,630 L262,631 L274,631 L280,627 L281,623 L280,621 Z " fill="#000000" transform="translate(357,36)"/>
<path d="M0,0 L5,1 L11,4 L16,8 L17,11 L18,24 L22,32 L29,37 L42,42 L56,49 L61,53 L69,60 L77,66 L77,68 L81,70 L86,75 L100,94 L104,99 L111,113 L117,128 L121,145 L123,151 L124,164 L121,171 L117,174 L111,173 L108,169 L105,158 L102,142 L96,124 L90,109 L78,93 L71,87 L65,79 L58,72 L49,67 L38,60 L21,53 L8,49 L4,44 L2,36 L0,24 L-4,19 L-7,18 L-49,18 L-57,13 L-57,7 L-52,3 L-50,2 L-15,2 L-2,1 Z " fill="#000000" transform="translate(410,106)"/>
<path d="M0,0 L6,0 L11,5 L9,11 L2,18 L-5,22 L-9,26 L-17,31 L-22,34 L-24,34 L-26,38 L-40,50 L-56,65 L-65,76 L-73,86 L-77,93 L-83,102 L-92,117 L-100,132 L-109,153 L-116,173 L-118,179 L-120,189 L-124,207 L-126,222 L-127,225 L-127,271 L-125,287 L-120,318 L-117,330 L-113,340 L-111,348 L-106,361 L-98,379 L-92,391 L-86,401 L-77,415 L-70,426 L-65,433 L-57,440 L-53,445 L-49,449 L-42,457 L-35,464 L-24,472 L-16,478 L-4,487 L5,493 L21,501 L35,508 L48,513 L62,520 L71,522 L80,526 L92,528 L108,531 L137,534 L154,535 L182,533 L198,531 L203,529 L216,527 L222,525 L236,522 L263,513 L282,504 L296,497 L306,490 L315,484 L325,477 L333,470 L344,461 L359,446 L366,438 L373,430 L383,415 L391,404 L395,398 L399,394 L404,393 L409,398 L409,409 L404,418 L402,418 L400,424 L390,438 L380,449 L374,457 L369,461 L365,467 L357,474 L350,481 L341,487 L336,491 L327,498 L319,504 L309,511 L293,519 L285,523 L269,530 L249,537 L239,540 L234,542 L217,546 L202,548 L200,549 L191,550 L184,551 L148,552 L143,551 L125,550 L107,548 L98,546 L85,544 L71,540 L65,537 L41,529 L32,526 L22,521 L16,518 L0,510 L-16,502 L-21,496 L-26,493 L-38,484 L-51,472 L-61,464 L-70,453 L-83,439 L-88,431 L-96,420 L-104,407 L-108,399 L-114,389 L-122,373 L-127,359 L-132,347 L-137,328 L-139,320 L-143,303 L-145,287 L-145,268 L-146,263 L-146,239 L-145,217 L-140,191 L-135,177 L-130,159 L-124,143 L-114,119 L-108,111 L-102,100 L-96,90 L-90,82 L-83,74 L-75,63 L-71,56 L-66,52 L-59,44 L-56,41 L-54,41 L-52,37 L-38,25 L-29,18 L-12,7 Z " fill="#000000" transform="translate(236,132)"/>
<path d="M0,0 L15,0 L18,2 L18,9 L14,13 L3,19 L-4,22 L-17,27 L-28,35 L-38,43 L-46,51 L-52,54 L-58,53 L-61,49 L-62,44 L-56,34 L-41,20 L-31,13 L-21,7 L-7,2 Z " fill="#000000" transform="translate(343,140)"/>
<path d="M0,0 L5,0 L8,3 L10,9 L11,29 L13,119 L14,152 L19,165 L21,167 L35,172 L51,180 L61,187 L69,193 L83,208 L92,219 L96,224 L100,231 L107,244 L112,257 L116,266 L120,292 L121,318 L117,341 L111,353 L109,362 L103,372 L99,375 L92,374 L88,369 L89,362 L96,346 L101,324 L102,313 L102,302 L100,281 L95,262 L90,250 L80,233 L69,220 L64,215 L48,200 L33,192 L22,192 L17,187 L12,183 L2,178 L-2,173 L-4,166 L-5,148 L-5,104 L-6,29 L-6,10 L-2,2 Z M108,336 L107,341 L112,346 L114,343 L111,336 Z " fill="#000000" transform="translate(418,192)"/>
<path d="M0,0 L7,0 L10,3 L10,12 L5,21 L-2,35 L-5,45 L-5,70 L-1,85 L7,101 L16,113 L24,119 L30,124 L44,132 L49,137 L50,138 L50,144 L47,146 L38,146 L28,143 L14,134 L3,124 L-3,116 L-7,111 L-15,98 L-20,84 L-23,69 L-23,46 L-20,29 L-16,19 L-12,9 L-5,3 Z " fill="#000000" transform="translate(318,219)"/>
<path d="M0,0 L3,1 L3,3 L-1,3 Z " fill="#000000" transform="translate(242,333)"/>
<path d="M0,0 L5,1 L9,5 L10,8 L11,24 L11,44 L13,105 L13,132 L14,137 L20,138 L26,138 L30,144 L28,153 L19,161 L10,164 L4,164 L-2,161 L-4,157 L-5,146 L-6,110 L-6,89 L-7,29 L-7,8 L-4,2 Z " fill="#000000" transform="translate(422,417)"/>
<path d="M0,0 L24,0 L30,4 L36,19 L39,31 L48,48 L52,53 L57,58 L67,67 L77,71 L80,76 L78,82 L76,84 L68,84 L54,77 L43,68 L36,60 L27,45 L21,35 L17,24 L11,20 L-3,19 L-23,19 L-30,14 L-30,9 L-23,3 L-21,2 Z " fill="#000000" transform="translate(284,495)"/>
<path d="M0,0 L5,1 L8,5 L11,13 L11,21 L7,28 L4,30 L-1,30 L-5,26 L-6,22 L-6,8 L-3,2 Z " fill="#000000" transform="translate(427,622)"/>
</svg>
