<?xml version="1.0" encoding="UTF-8"?>
<!-- Generator: visioncortex VTracer 0.6.12 -->
<svg version="1.1" xmlns="http://www.w3.org/2000/svg" width="879" height="879">
<path d="M0,0 L7,0 L18,2 L36,1 L66,1 L80,3 L95,5 L110,9 L117,11 L127,13 L142,17 L146,20 L158,25 L176,33 L179,35 L188,38 L199,45 L207,49 L217,52 L230,59 L240,65 L251,72 L260,78 L270,84 L277,91 L283,95 L293,104 L298,109 L312,124 L327,138 L337,149 L345,160 L350,166 L354,172 L361,182 L368,193 L374,205 L383,219 L391,235 L397,248 L400,260 L407,274 L414,295 L420,314 L424,331 L427,345 L428,366 L429,373 L430,390 L430,410 L428,459 L423,485 L419,500 L417,511 L412,530 L403,557 L397,567 L393,577 L388,589 L382,599 L376,608 L367,625 L359,636 L351,647 L342,658 L335,666 L326,677 L321,684 L314,689 L307,697 L299,703 L287,714 L271,726 L261,733 L252,739 L234,749 L222,758 L210,764 L192,770 L182,775 L168,779 L154,786 L146,789 L137,791 L127,795 L108,799 L102,801 L87,803 L72,806 L39,809 L27,810 L-6,809 L-28,807 L-30,806 L-54,803 L-75,798 L-77,797 L-88,796 L-111,788 L-127,782 L-141,776 L-159,766 L-171,761 L-189,751 L-200,743 L-209,737 L-216,731 L-225,725 L-236,716 L-248,705 L-254,700 L-259,694 L-267,687 L-280,671 L-291,658 L-301,645 L-317,621 L-323,611 L-327,603 L-337,584 L-344,568 L-353,545 L-358,531 L-361,521 L-365,511 L-369,495 L-373,479 L-378,460 L-379,449 L-380,413 L-381,402 L-381,379 L-379,366 L-378,363 L-378,350 L-373,328 L-364,292 L-361,279 L-355,266 L-349,247 L-346,242 L-341,229 L-329,209 L-323,201 L-318,191 L-311,182 L-303,168 L-292,155 L-285,146 L-279,138 L-276,137 L-275,134 L-270,129 L-261,119 L-253,112 L-240,99 L-231,93 L-218,82 L-210,76 L-199,69 L-189,62 L-181,56 L-165,48 L-156,43 L-141,36 L-127,30 L-102,21 L-86,15 L-74,14 L-64,10 L-44,8 L-40,6 L-21,4 L-9,1 Z M-7,44 L-26,46 L-43,49 L-58,52 L-78,56 L-99,62 L-108,67 L-122,71 L-135,76 L-148,82 L-157,87 L-168,95 L-177,100 L-183,104 L-192,109 L-200,115 L-211,122 L-216,126 L-225,133 L-233,141 L-235,142 L-235,144 L-239,146 L-255,163 L-267,176 L-274,184 L-283,197 L-297,216 L-304,226 L-310,241 L-317,253 L-325,272 L-332,290 L-339,311 L-341,319 L-346,349 L-348,360 L-350,377 L-350,404 L-349,436 L-345,456 L-340,481 L-338,494 L-333,507 L-329,528 L-326,535 L-321,545 L-317,559 L-310,568 L-305,582 L-298,594 L-289,607 L-285,617 L-278,625 L-271,636 L-264,644 L-257,652 L-250,660 L-243,668 L-231,677 L-226,681 L-221,686 L-211,696 L-198,706 L-190,711 L-179,716 L-166,725 L-154,731 L-145,737 L-136,739 L-120,747 L-108,752 L-100,755 L-89,757 L-80,760 L-71,764 L-61,765 L-53,768 L-41,771 L-14,774 L17,775 L48,774 L71,772 L83,769 L102,767 L108,765 L126,762 L138,757 L150,754 L156,751 L166,748 L181,742 L191,737 L207,729 L224,719 L238,711 L248,704 L257,696 L265,690 L276,682 L282,675 L290,668 L297,661 L303,653 L308,648 L320,635 L329,623 L342,604 L350,591 L358,575 L366,557 L373,539 L378,521 L382,511 L386,487 L390,466 L392,430 L392,412 L391,392 L388,368 L386,345 L381,327 L377,311 L365,279 L356,260 L351,250 L343,236 L333,218 L326,209 L316,195 L309,185 L300,178 L292,169 L285,158 L275,148 L267,141 L252,128 L247,124 L230,112 L225,108 L211,99 L195,89 L186,85 L175,79 L167,75 L159,73 L145,66 L140,64 L131,63 L115,56 L110,54 L92,52 L76,49 L53,45 L43,44 Z " fill="#000000" transform="translate(416,36)"/>
<path d="M0,0 L21,0 L29,1 L34,5 L37,11 L38,26 L39,53 L41,63 L44,68 L50,72 L76,74 L85,74 L98,72 L103,67 L105,61 L106,25 L107,14 L111,5 L115,2 L121,1 L128,1 L137,0 L149,3 L154,7 L157,16 L159,64 L163,71 L171,76 L191,80 L207,86 L219,91 L234,99 L249,113 L256,121 L264,131 L272,144 L280,163 L283,171 L284,189 L281,196 L276,200 L273,201 L237,202 L229,202 L220,198 L216,193 L208,178 L203,168 L196,161 L188,155 L180,152 L167,151 L163,155 L161,160 L159,184 L158,210 L160,226 L162,247 L165,256 L170,258 L186,262 L205,268 L214,271 L228,279 L239,287 L247,294 L258,305 L262,311 L272,326 L278,338 L283,352 L286,368 L287,378 L287,390 L286,405 L281,424 L275,439 L265,456 L257,467 L242,480 L228,490 L220,494 L205,501 L184,506 L172,509 L168,511 L164,517 L163,567 L160,576 L156,580 L151,582 L128,583 L120,579 L116,573 L113,559 L112,526 L110,516 L106,511 L99,508 L76,507 L57,508 L50,511 L46,517 L45,524 L45,561 L43,574 L41,578 L33,582 L25,584 L11,584 L1,582 L-4,578 L-8,570 L-9,529 L-11,517 L-15,511 L-25,506 L-49,500 L-64,494 L-78,486 L-89,479 L-99,471 L-108,460 L-116,450 L-128,426 L-132,408 L-133,395 L-129,386 L-124,383 L-94,382 L-85,384 L-80,385 L-71,385 L-64,393 L-58,406 L-51,417 L-45,424 L-39,428 L-33,432 L-21,434 L-14,430 L-11,420 L-10,372 L-12,341 L-17,331 L-24,327 L-39,323 L-57,318 L-74,308 L-83,302 L-95,293 L-107,281 L-115,271 L-121,262 L-127,249 L-131,239 L-134,231 L-138,208 L-137,178 L-133,163 L-125,143 L-117,130 L-110,121 L-102,112 L-94,105 L-86,98 L-75,92 L-69,88 L-56,82 L-40,78 L-27,75 L-20,72 L-16,63 L-15,54 L-14,11 L-11,5 L-8,2 Z M56,146 L46,149 L42,154 L40,159 L40,174 L39,189 L41,238 L44,250 L50,255 L55,257 L70,258 L96,258 L105,252 L108,245 L109,240 L109,175 L108,161 L105,154 L102,149 L95,146 Z M-28,149 L-42,155 L-51,162 L-64,186 L-67,198 L-66,213 L-64,221 L-56,232 L-47,243 L-36,251 L-27,254 L-20,253 L-14,248 L-13,243 L-12,227 L-13,169 L-14,160 L-18,152 L-24,149 Z M63,327 L53,328 L45,333 L43,338 L42,346 L43,413 L45,429 L48,434 L56,438 L66,439 L99,439 L105,437 L109,433 L112,415 L112,345 L110,337 L106,331 L101,328 L98,327 Z M169,331 L164,335 L161,342 L161,364 L162,379 L162,408 L163,428 L166,434 L169,437 L181,437 L191,433 L204,422 L212,410 L217,400 L218,382 L217,370 L213,360 L205,349 L196,340 L180,332 Z " fill="#000000" transform="translate(365,163)"/>
</svg>
