<?xml version="1.0" encoding="UTF-8"?>
<!-- Generator: visioncortex VTracer 0.6.12 -->
<svg version="1.1" xmlns="http://www.w3.org/2000/svg" width="747" height="495">
<path d="M0,0 L15,1 L35,9 L49,19 L54,24 L54,26 L58,28 L62,35 L70,51 L73,64 L73,83 L69,95 L64,105 L54,119 L40,133 L28,139 L16,143 L6,144 L-9,143 L-22,139 L-33,135 L-45,126 L-56,113 L-63,101 L-66,92 L-68,83 L-68,57 L-64,44 L-56,29 L-45,18 L-37,12 L-22,4 L-16,2 Z " fill="#000000" transform="translate(338,36)"/>
<path d="M0,0 L5,1 L13,9 L16,11 L19,18 L19,38 L16,44 L9,52 L2,57 L-4,64 L-4,70 L2,79 L12,88 L18,89 L24,85 L38,72 L45,64 L52,58 L59,58 L67,65 L72,73 L73,86 L70,99 L66,106 L57,115 L53,119 L51,123 L52,128 L61,139 L68,146 L75,147 L80,143 L87,135 L95,128 L105,121 L109,117 L115,116 L122,120 L127,126 L129,134 L128,148 L125,158 L112,173 L107,180 L107,187 L117,199 L121,204 L124,206 L129,205 L142,193 L153,180 L164,172 L170,171 L179,178 L183,187 L184,194 L183,204 L177,216 L170,223 L166,228 L153,236 L123,236 L112,230 L94,212 L87,204 L74,191 L66,184 L51,168 L42,158 L35,150 L28,144 L21,136 L10,125 L4,118 L-4,111 L-15,100 L-22,92 L-34,80 L-39,75 L-42,72 L-47,72 L-49,75 L-48,85 L-44,103 L-41,110 L-37,126 L-34,138 L-28,164 L-21,191 L-14,219 L-13,230 L-15,235 L-19,238 L-74,240 L-87,240 L-100,241 L-116,241 L-141,242 L-161,242 L-186,240 L-193,237 L-195,233 L-194,209 L-190,196 L-187,184 L-182,159 L-177,137 L-175,127 L-171,110 L-169,96 L-165,84 L-162,71 L-156,64 L-147,65 L-135,70 L-124,71 L-120,73 L-111,74 L-101,74 L-99,73 L-87,71 L-68,65 L-58,60 L-51,54 L-49,54 L-47,49 L-38,41 L-32,32 L-23,21 L-21,18 L-19,18 L-17,14 L-4,2 Z " fill="#000000" transform="translate(446,119)"/>
<path d="M0,0 L59,0 L63,5 L64,8 L64,19 L60,37 L57,49 L53,58 L48,62 L45,63 L15,64 L0,64 L-11,65 L-24,65 L-42,64 L-48,60 L-53,55 L-54,52 L-54,23 L-52,13 L-46,5 L-41,1 L-5,1 Z " fill="#000000" transform="translate(176,297)"/>
<path d="M0,0 L33,1 L57,1 L63,5 L66,10 L67,21 L64,30 L60,34 L52,38 L50,41 L49,72 L46,81 L43,84 L32,86 L-19,88 L-54,88 L-97,89 L-123,89 L-132,90 L-139,89 L-179,91 L-215,91 L-260,92 L-302,92 L-308,93 L-365,93 L-370,94 L-430,95 L-517,95 L-528,96 L-543,96 L-546,95 L-570,95 L-581,94 L-587,90 L-590,85 L-591,78 L-592,59 L-594,50 L-596,47 L-604,43 L-608,39 L-609,36 L-609,21 L-603,14 L-600,13 L-575,12 L-564,11 L-556,10 L-536,11 L-493,9 L-386,9 L-343,8 L-291,8 L-207,7 L-202,8 L-188,8 L-186,7 L-176,7 L-166,6 L-142,6 L-122,5 L-43,3 L-40,2 L-18,1 L-6,1 Z " fill="#000000" transform="translate(646,365)"/>
</svg>
