<?xml version="1.0" encoding="UTF-8"?>
<!-- Generator: visioncortex VTracer 0.6.12 -->
<svg version="1.1" xmlns="http://www.w3.org/2000/svg" width="1122" height="1122">
<path d="M0,0 L1122,0 L1122,1122 L200,1122 L193,1121 L127,1121 L86,1120 L52,1120 L26,1119 L5,1119 L0,1118 L0,1103 L4,1101 L3,1094 L0,1093 Z M473,153 L456,163 L435,176 L413,190 L401,197 L391,204 L377,212 L367,218 L350,228 L339,236 L312,252 L305,257 L304,261 L312,278 L321,293 L327,304 L332,311 L338,323 L344,333 L354,351 L362,364 L367,374 L373,384 L376,386 L382,385 L393,378 L407,370 L416,364 L422,361 L425,358 L437,352 L446,346 L461,337 L471,330 L476,329 L475,430 L475,485 L474,497 L466,513 L461,523 L451,542 L442,558 L436,569 L429,582 L424,591 L416,606 L411,614 L404,628 L398,638 L392,649 L382,668 L374,683 L366,697 L360,708 L352,723 L347,732 L338,748 L328,767 L314,793 L303,812 L296,826 L284,848 L278,859 L268,877 L261,889 L258,898 L260,901 L267,902 L302,903 L358,903 L413,904 L485,904 L613,905 L655,905 L754,906 L868,906 L870,905 L871,900 L863,884 L850,861 L841,845 L837,837 L832,829 L827,819 L820,807 L813,793 L810,788 L794,758 L789,750 L780,734 L768,712 L759,695 L749,677 L737,655 L729,641 L725,634 L716,617 L709,605 L702,591 L699,586 L694,578 L687,564 L682,556 L675,542 L670,535 L662,519 L652,501 L651,497 L650,477 L650,333 L653,332 L662,338 L675,346 L686,353 L696,359 L710,368 L735,383 L739,385 L744,384 L750,376 L760,361 L768,349 L772,342 L779,331 L783,326 L789,315 L797,303 L805,290 L815,275 L821,265 L822,258 L815,252 L805,246 L796,240 L786,234 L766,222 L758,217 L741,207 L728,199 L718,193 L710,189 L707,186 L696,180 L687,174 L678,169 L663,160 L652,153 L647,155 L643,160 L637,169 L633,174 L629,181 L620,193 L615,199 L604,208 L589,215 L579,218 L571,219 L554,219 L540,216 L530,212 L515,202 L510,198 L501,187 L494,176 L481,157 L477,153 Z " fill="#000000" transform="translate(0,0)"/>
</svg>
