<?xml version="1.0" encoding="UTF-8"?>
<!-- Generator: visioncortex VTracer 0.6.12 -->
<svg version="1.1" xmlns="http://www.w3.org/2000/svg" width="1143" height="1164">
<path d="M0,0 L864,0 L872,1 L883,1 L887,0 L888,1 L971,1 L976,0 L977,1 L1025,5 L1034,5 L1040,4 L1057,3 L1108,3 L1138,4 L1138,97 L1093,97 L968,96 L891,95 L829,94 L744,94 L654,93 L632,93 L619,94 L604,96 L598,97 L591,98 L572,103 L556,110 L543,117 L529,126 L518,136 L511,144 L500,157 L490,173 L482,190 L477,209 L474,227 L472,260 L471,342 L472,366 L475,369 L477,370 L488,371 L493,374 L494,376 L494,392 L492,419 L485,500 L483,526 L480,551 L477,556 L472,558 L448,558 L409,557 L317,556 L313,559 L313,572 L321,618 L327,653 L331,674 L337,710 L343,742 L347,768 L355,812 L361,848 L367,881 L373,917 L376,933 L382,971 L391,1025 L397,1061 L400,1077 L403,1082 L408,1084 L469,1085 L513,1085 L590,1086 L686,1087 L719,1087 L724,1084 L729,1068 L737,1026 L744,991 L752,952 L760,910 L765,884 L774,840 L780,809 L785,786 L788,769 L795,735 L800,708 L809,662 L812,645 L820,602 L824,584 L825,575 L825,566 L824,564 L818,563 L783,562 L693,561 L666,560 L661,557 L659,551 L657,530 L654,474 L652,446 L650,408 L649,396 L649,381 L651,376 L655,374 L664,374 L672,371 L673,357 L673,329 L675,296 L679,279 L686,267 L695,257 L704,251 L713,246 L723,243 L742,241 L810,242 L858,242 L974,243 L1014,243 L1015,242 L1024,243 L1138,245 L1138,1160 L1136,1164 L178,1164 L175,1163 L59,1161 L18,1160 L-2,1159 L-5,1158 L-5,242 L-4,239 L-3,189 L-3,147 L-2,91 L-2,61 L-1,10 Z M38,398 L34,401 L34,407 L36,409 L40,408 L44,403 L43,399 Z M919,784 L920,788 L921,789 L926,789 L927,785 L926,784 Z " fill="#000000" transform="translate(5,0)"/>
<path d="M0,0 L29,0 L37,2 L40,7 L40,158 L39,180 L36,186 L27,187 L-15,186 L-19,184 L-21,180 L-20,157 L-18,140 L-16,115 L-12,68 L-7,14 L-5,4 L-2,1 Z " fill="#000000" transform="translate(527,372)"/>
<path d="M0,0 L36,0 L40,3 L42,15 L45,51 L50,132 L52,170 L52,179 L49,184 L46,186 L24,186 L-1,185 L-5,182 L-6,178 L-6,93 L-5,26 L-4,7 L-2,1 Z " fill="#000000" transform="translate(593,374)"/>
<path d="M0,0 L69,0 L75,3 L76,6 L76,20 L72,61 L69,100 L68,107 L66,133 L64,153 L64,169 L66,173 L69,174 L78,174 L81,171 L83,160 L86,126 L91,68 L93,45 L97,8 L100,3 L103,1 L148,1 L161,2 L164,7 L165,29 L165,171 L169,175 L176,176 L181,173 L182,169 L183,145 L184,65 L185,10 L188,3 L198,2 L221,2 L244,3 L249,7 L250,9 L256,89 L259,139 L261,166 L263,175 L265,176 L275,176 L278,175 L275,118 L272,75 L270,43 L269,11 L272,4 L280,3 L311,3 L340,4 L346,7 L346,22 L341,46 L336,72 L331,97 L326,122 L320,154 L316,172 L311,196 L305,225 L299,256 L293,284 L291,295 L286,320 L280,350 L273,381 L271,386 L267,389 L178,389 L115,388 L100,388 L69,387 L64,382 L59,358 L52,314 L47,287 L38,235 L34,215 L30,190 L25,164 L21,140 L17,120 L11,85 L3,41 L-3,7 L-2,2 Z " fill="#000000" transform="translate(401,630)"/>
<path d="M0,0 L3,0 L2,5 L-1,5 Z " fill="#000000" transform="translate(740,800)"/>
</svg>
