<?xml version="1.0" encoding="UTF-8"?>
<!-- Generator: visioncortex VTracer 0.6.12 -->
<svg version="1.1" xmlns="http://www.w3.org/2000/svg" width="738" height="840">
<path d="M0,0 L26,1 L28,4 L28,49 L26,52 L-46,53 L-54,52 L-56,53 L-57,56 L-58,95 L-58,148 L-57,152 L-52,153 L81,152 L136,152 L140,156 L140,242 L138,245 L50,246 L-33,247 L-60,247 L-110,248 L-136,248 L-171,249 L-191,249 L-226,251 L-241,254 L-256,260 L-267,267 L-281,277 L-289,285 L-297,295 L-304,305 L-310,316 L-315,329 L-319,339 L-323,357 L-326,360 L-328,361 L-409,361 L-412,358 L-412,340 L-410,323 L-408,317 L-407,308 L-400,288 L-391,268 L-384,255 L-376,242 L-369,233 L-358,220 L-343,205 L-332,196 L-324,190 L-307,180 L-291,172 L-273,165 L-256,160 L-242,157 L-225,155 L-204,154 L-168,154 L-126,153 L-124,148 L-124,70 L-125,56 L-130,53 L-208,53 L-209,52 L-209,5 L-205,2 L-127,1 Z " fill="#000000" transform="translate(566,35)"/>
<path d="M0,0 L27,0 L30,3 L32,15 L34,46 L37,79 L39,106 L41,117 L42,150 L44,166 L45,189 L47,205 L49,237 L50,245 L52,279 L53,284 L54,309 L57,337 L59,341 L125,341 L181,340 L228,339 L231,338 L232,336 L234,317 L236,275 L238,250 L243,158 L244,153 L248,90 L249,82 L250,61 L251,52 L252,30 L254,4 L255,1 L257,0 L278,0 L286,1 L287,3 L287,20 L285,43 L283,82 L277,178 L275,215 L274,227 L273,243 L272,259 L271,261 L271,278 L269,320 L267,344 L266,360 L264,373 L262,375 L164,376 L123,376 L59,377 L28,377 L24,373 L23,370 L20,336 L16,271 L14,252 L13,233 L11,213 L9,179 L8,175 L6,139 L2,88 L-1,48 L-2,28 L-4,11 L-2,1 Z " fill="#000000" transform="translate(73,429)"/>
<path d="M0,0 L21,1 L38,5 L48,9 L50,12 L49,35 L48,36 L41,36 L21,30 L0,29 L-11,30 L-16,32 L-28,35 L-34,38 L-46,41 L-70,41 L-100,34 L-118,34 L-132,37 L-142,42 L-148,42 L-149,41 L-150,26 L-150,14 L-146,11 L-130,6 L-109,5 L-90,8 L-63,14 L-52,14 L-41,12 L-27,6 L-8,1 Z " fill="#000000" transform="translate(266,496)"/>
<path d="M0,0 L16,0 L32,3 L46,8 L49,12 L48,34 L45,37 L40,36 L25,32 L12,30 L-9,31 L-29,37 L-43,40 L-64,40 L-92,35 L-114,35 L-125,37 L-140,43 L-144,39 L-145,18 L-143,14 L-136,11 L-127,9 L-118,6 L-99,5 L-80,8 L-75,10 L-48,12 L-34,10 L-26,6 L-16,3 L-8,1 Z " fill="#000000" transform="translate(264,544)"/>
<path d="M0,0 L17,1 L33,4 L42,7 L47,10 L47,33 L45,36 L37,35 L21,30 L17,29 L-8,29 L-24,33 L-36,36 L-42,37 L-55,37 L-74,34 L-92,32 L-99,32 L-120,37 L-131,41 L-136,41 L-138,33 L-139,18 L-136,13 L-122,7 L-111,4 L-97,3 L-85,4 L-70,8 L-47,10 L-37,9 L-21,4 L-8,1 Z " fill="#000000" transform="translate(262,593)"/>
</svg>
