<?xml version="1.0" encoding="UTF-8"?>
<!-- Generator: visioncortex VTracer 0.6.12 -->
<svg version="1.1" xmlns="http://www.w3.org/2000/svg" width="1110" height="1359">
<path d="M0,0 L7,2 L8,8 L11,9 L10,12 L5,13 L0,8 L-1,1 Z " fill="#000000" transform="translate(113,51)"/>
<path d="M0,0 L4,1 L3,6 L-1,5 Z " fill="#000000" transform="translate(134,68)"/>
<path d="M0,0 L51,0 L127,1 L194,2 L234,3 L346,4 L361,4 L401,5 L419,5 L451,6 L561,7 L612,8 L646,8 L693,9 L721,9 L756,10 L775,10 L802,11 L905,11 L953,15 L961,15 L967,14 L975,14 L983,13 L1036,13 L1070,14 L1075,17 L1077,22 L1077,79 L1076,99 L1073,106 L1071,107 L1019,107 L895,106 L817,105 L730,104 L671,104 L567,103 L559,103 L547,104 L531,106 L525,107 L518,108 L497,114 L485,119 L470,127 L459,134 L445,146 L438,154 L427,167 L417,183 L410,198 L406,211 L402,231 L400,248 L399,270 L398,352 L399,376 L402,379 L404,380 L415,381 L420,384 L421,386 L421,402 L419,429 L412,510 L410,536 L407,561 L404,566 L399,568 L374,568 L323,567 L244,566 L240,569 L240,581 L245,611 L252,651 L258,684 L264,720 L270,752 L274,778 L282,822 L289,864 L294,890 L297,910 L303,943 L309,981 L318,1035 L324,1070 L327,1087 L331,1093 L340,1094 L396,1095 L441,1095 L515,1096 L611,1097 L646,1097 L651,1094 L656,1078 L664,1036 L672,996 L680,956 L688,915 L692,894 L695,879 L701,850 L707,819 L713,789 L718,764 L727,718 L731,698 L739,654 L746,618 L751,594 L752,585 L752,576 L751,574 L745,573 L710,572 L619,571 L593,570 L588,568 L586,561 L584,540 L581,484 L579,457 L577,418 L576,406 L576,391 L578,386 L582,384 L595,383 L599,381 L600,371 L600,339 L602,306 L606,289 L613,277 L623,266 L633,260 L640,256 L650,253 L669,251 L738,252 L785,252 L919,253 L941,253 L942,252 L951,253 L1016,254 L1070,255 L1074,257 L1076,265 L1076,369 L1075,406 L1075,429 L1074,525 L1073,597 L1072,677 L1072,717 L1071,808 L1070,875 L1069,977 L1068,1028 L1067,1118 L1066,1157 L1063,1181 L1060,1184 L992,1184 L906,1183 L859,1182 L656,1180 L492,1178 L325,1176 L101,1173 L39,1172 L26,1172 L0,1171 Z M846,794 L847,798 L848,799 L853,799 L854,795 L853,794 Z " fill="#000000" transform="translate(0,113)"/>
<path d="M0,0 L29,0 L37,2 L40,7 L40,159 L39,180 L36,186 L27,187 L-15,186 L-19,184 L-21,180 L-20,157 L-18,139 L-16,114 L-14,89 L-13,83 L-10,46 L-7,14 L-5,4 L-2,1 Z " fill="#000000" transform="translate(449,495)"/>
<path d="M0,0 L36,0 L40,3 L42,15 L43,22 L49,113 L52,170 L52,179 L49,184 L46,186 L23,186 L-1,185 L-5,182 L-6,178 L-6,93 L-5,25 L-4,6 L-2,1 Z " fill="#000000" transform="translate(515,497)"/>
<path d="M0,0 L70,0 L75,3 L76,6 L76,21 L72,61 L69,100 L68,107 L66,133 L64,154 L64,169 L66,173 L69,174 L78,174 L81,171 L83,160 L88,100 L92,61 L95,24 L97,8 L100,3 L103,1 L149,1 L161,2 L164,7 L165,29 L165,171 L169,175 L176,176 L181,173 L182,169 L183,144 L184,46 L185,9 L188,3 L192,2 L222,2 L244,3 L248,5 L250,9 L256,89 L259,138 L261,166 L263,175 L265,176 L275,176 L278,175 L274,102 L272,75 L270,43 L269,11 L272,4 L274,3 L313,3 L340,4 L346,7 L346,22 L341,46 L336,72 L331,97 L326,122 L320,154 L316,172 L311,196 L298,261 L293,284 L291,295 L286,320 L280,350 L273,381 L270,388 L262,389 L177,389 L116,388 L99,388 L69,387 L64,382 L59,358 L52,314 L45,277 L36,224 L34,216 L30,190 L25,164 L17,120 L11,85 L4,48 L-3,7 L-2,2 Z " fill="#000000" transform="translate(323,753)"/>
<path d="M0,0 L3,0 L3,5 L0,6 L-1,1 Z " fill="#000000" transform="translate(662,923)"/>
</svg>
