<?xml version="1.0" encoding="UTF-8"?>
<!-- Generator: visioncortex VTracer 0.6.12 -->
<svg version="1.1" xmlns="http://www.w3.org/2000/svg" width="1044" height="1206">
<path d="M0,0 L5,2 L6,3 L6,8 L4,10 L-2,9 L-3,2 Z " fill="#000000" transform="translate(582,91)"/>
<path d="M0,0 L5,1 L5,5 L0,6 L-1,1 Z " fill="#000000" transform="translate(619,93)"/>
<path d="M0,0 L6,0 L7,5 L4,8 L-1,7 L-2,2 Z " fill="#000000" transform="translate(949,93)"/>
<path d="M0,0 L5,1 L6,7 L3,10 L-2,9 L-3,8 L-3,2 Z " fill="#000000" transform="translate(526,109)"/>
<path d="M0,0 L6,0 L8,2 L8,7 L6,9 L-1,8 L-1,1 Z " fill="#000000" transform="translate(561,111)"/>
<path d="M0,0 L5,0 L6,1 L6,7 L5,8 L0,8 L-2,6 L-1,1 Z " fill="#000000" transform="translate(599,111)"/>
<path d="M0,0 L5,1 L7,4 L6,9 L1,11 L-3,9 L-3,3 Z " fill="#000000" transform="translate(932,112)"/>
<path d="M0,0 L5,0 L8,4 L7,9 L4,11 L-1,10 L-3,8 L-3,3 Z " fill="#000000" transform="translate(968,112)"/>
<path d="M0,0 L5,0 L7,7 L11,22 L12,23 L23,24 L26,27 L25,32 L22,34 L11,34 L11,56 L13,59 L23,60 L27,63 L27,69 L22,73 L13,75 L10,84 L8,89 L4,92 L-2,91 L-10,84 L-23,84 L-31,91 L-32,92 L-38,92 L-46,85 L-54,82 L-63,80 L-67,75 L-68,72 L-68,64 L-66,63 L-53,63 L-29,62 L-22,60 L-21,58 L-19,35 L-18,18 L-14,6 L-10,1 Z " fill="#000000" transform="translate(97,126)"/>
<path d="M0,0 L5,2 L5,9 L4,10 L-2,10 L-4,8 L-4,3 Z " fill="#000000" transform="translate(545,129)"/>
<path d="M0,0 L5,0 L8,4 L7,8 L5,10 L0,10 L-3,6 L-1,1 Z " fill="#000000" transform="translate(617,129)"/>
<path d="M0,0 L4,1 L6,4 L5,8 L4,9 L-1,9 L-4,6 L-3,2 Z " fill="#000000" transform="translate(507,130)"/>
<path d="M0,0 L5,1 L6,7 L4,9 L-1,9 L-3,7 L-3,2 Z " fill="#000000" transform="translate(581,130)"/>
<path d="M0,0 L5,2 L6,8 L4,11 L-2,11 L-5,8 L-4,3 L-3,1 Z " fill="#000000" transform="translate(877,129)"/>
<path d="M0,0 L5,1 L6,3 L6,10 L3,12 L-2,11 L-4,9 L-3,2 Z " fill="#000000" transform="translate(914,130)"/>
<path d="M0,0 L5,1 L8,4 L7,9 L6,10 L0,10 L-2,8 L-2,2 Z " fill="#000000" transform="translate(987,131)"/>
<path d="M0,0 L6,0 L8,3 L7,8 L5,10 L0,10 L-2,8 L-2,2 Z " fill="#000000" transform="translate(949,132)"/>
<path d="M0,0 L7,1 L8,8 L4,11 L-1,10 L-3,4 Z " fill="#000000" transform="translate(487,148)"/>
<path d="M0,0 L5,2 L6,7 L3,11 L-3,11 L-5,9 L-5,3 Z " fill="#000000" transform="translate(526,147)"/>
<path d="M0,0 L5,1 L7,4 L7,10 L5,12 L-1,12 L-4,8 L-3,2 Z " fill="#000000" transform="translate(562,148)"/>
<path d="M0,0 L5,0 L8,4 L6,10 L1,11 L-3,8 L-2,1 Z " fill="#000000" transform="translate(598,148)"/>
<path d="M0,0 L7,0 L9,1 L9,7 L6,11 L0,11 L-2,8 L-1,1 Z " fill="#000000" transform="translate(635,148)"/>
<path d="M0,0 L5,2 L6,3 L5,10 L-2,11 L-5,8 L-4,3 Z " fill="#000000" transform="translate(859,149)"/>
<path d="M0,0 L5,1 L7,6 L4,10 L-1,10 L-3,8 L-3,2 Z " fill="#000000" transform="translate(895,150)"/>
<path d="M0,0 L5,0 L7,2 L7,8 L5,10 L-1,10 L-3,7 L-3,2 Z " fill="#000000" transform="translate(931,150)"/>
<path d="M0,0 L5,1 L7,5 L3,9 L-2,7 L-4,3 Z " fill="#000000" transform="translate(156,151)"/>
<path d="M0,0 L5,1 L6,2 L6,7 L0,8 L-2,6 L-1,1 Z " fill="#000000" transform="translate(968,152)"/>
<path d="M0,0 L6,0 L9,3 L9,11 L3,13 L-2,10 L-3,3 Z " fill="#000000" transform="translate(578,166)"/>
<path d="M0,0 L6,0 L8,2 L8,8 L4,11 L-1,10 L-3,7 L-2,2 Z " fill="#000000" transform="translate(468,167)"/>
<path d="M0,0 L5,2 L7,8 L5,11 L-1,11 L-4,8 L-4,3 Z " fill="#000000" transform="translate(506,167)"/>
<path d="M0,0 L6,1 L7,2 L7,8 L4,10 L-1,9 L-3,6 L-2,2 Z " fill="#000000" transform="translate(543,167)"/>
<path d="M0,0 L7,1 L8,5 L5,9 L0,9 L-2,7 L-2,2 Z " fill="#000000" transform="translate(135,168)"/>
<path d="M0,0 L6,0 L8,5 L6,8 L-1,7 L-2,3 Z " fill="#000000" transform="translate(431,168)"/>
<path d="M0,0 L5,1 L7,3 L7,9 L4,12 L-3,11 L-5,8 L-4,3 Z " fill="#000000" transform="translate(913,168)"/>
<path d="M0,0 L5,1 L6,6 L5,8 L1,9 L-3,6 L-2,1 Z " fill="#000000" transform="translate(839,169)"/>
<path d="M0,0 L5,2 L6,5 L4,9 L-2,9 L-4,4 Z " fill="#000000" transform="translate(877,169)"/>
<path d="M0,0 L6,0 L8,3 L8,9 L5,11 L-1,10 L-3,4 Z " fill="#000000" transform="translate(986,169)"/>
<path d="M0,0 L6,0 L7,7 L5,9 L0,8 L-2,3 Z " fill="#000000" transform="translate(949,170)"/>
<path d="M0,0 L7,1 L8,8 L5,11 L0,10 L-3,7 L-2,1 Z " fill="#000000" transform="translate(412,186)"/>
<path d="M0,0 L5,0 L7,2 L7,8 L4,11 L-2,11 L-4,6 L-1,1 Z " fill="#000000" transform="translate(154,187)"/>
<path d="M0,0 L6,0 L8,2 L8,7 L6,9 L1,9 L-1,7 L-1,1 Z " fill="#000000" transform="translate(449,187)"/>
<path d="M0,0 L7,1 L8,7 L5,10 L0,9 L-2,6 L-1,1 Z " fill="#000000" transform="translate(486,187)"/>
<path d="M0,0 L5,0 L8,4 L7,11 L6,12 L-1,12 L-4,9 L-2,2 Z " fill="#000000" transform="translate(1005,187)"/>
<path d="M0,0 L5,1 L6,2 L6,8 L4,10 L-2,9 L-3,3 Z " fill="#000000" transform="translate(857,188)"/>
<path d="M0,0 L6,0 L9,3 L8,9 L4,12 L-1,11 L-2,10 L-2,3 Z " fill="#000000" transform="translate(893,188)"/>
<path d="M0,0 L4,1 L6,3 L5,8 L4,9 L-2,9 L-3,8 L-2,1 Z " fill="#000000" transform="translate(931,188)"/>
<path d="M0,0 L5,1 L6,8 L4,10 L-2,10 L-4,8 L-4,3 Z " fill="#000000" transform="translate(968,188)"/>
<path d="M0,0 L6,1 L7,3 L7,9 L5,11 L-2,11 L-4,8 L-3,2 Z " fill="#000000" transform="translate(135,205)"/>
<path d="M0,0 L5,0 L8,3 L8,8 L6,10 L0,9 L-2,6 L-1,1 Z " fill="#000000" transform="translate(430,205)"/>
<path d="M0,0 L7,0 L8,1 L8,7 L6,9 L1,8 L-2,4 Z " fill="#000000" transform="translate(357,206)"/>
<path d="M0,0 L5,2 L6,7 L5,9 L-1,9 L-3,8 L-3,2 Z " fill="#000000" transform="translate(395,206)"/>
<path d="M0,0 L5,1 L7,3 L7,8 L4,11 L-1,11 L-4,8 L-4,2 Z " fill="#000000" transform="translate(912,206)"/>
<path d="M0,0 L5,1 L7,4 L6,11 L2,12 L-3,9 L-3,2 Z " fill="#000000" transform="translate(986,206)"/>
<path d="M0,0 L5,0 L7,3 L6,7 L5,8 L0,8 L-2,6 L-1,1 Z " fill="#000000" transform="translate(948,208)"/>
<path d="M0,0 L7,0 L10,4 L9,10 L6,12 L1,12 L-3,8 L-3,3 Z " fill="#000000" transform="translate(301,222)"/>
<path d="M0,0 L6,1 L8,4 L8,10 L4,14 L-2,13 L-5,9 L-5,4 Z " fill="#000000" transform="translate(153,223)"/>
<path d="M0,0 L5,1 L7,4 L6,11 L3,13 L-3,12 L-5,8 L-4,3 L-3,1 Z " fill="#000000" transform="translate(191,223)"/>
<path d="M0,0 L5,0 L8,3 L8,9 L6,11 L0,11 L-3,8 L-3,2 Z " fill="#000000" transform="translate(227,223)"/>
<path d="M0,0 L5,0 L9,5 L7,11 L0,12 L-3,8 L-3,3 Z " fill="#000000" transform="translate(78,224)"/>
<path d="M0,0 L6,1 L7,2 L7,9 L5,11 L-1,11 L-3,9 L-3,3 Z " fill="#000000" transform="translate(116,224)"/>
<path d="M0,0 L6,0 L8,2 L8,8 L7,9 L1,9 L-1,7 L-1,1 Z " fill="#000000" transform="translate(263,224)"/>
<path d="M0,0 L5,1 L6,2 L6,8 L3,10 L-1,9 L-3,7 L-2,1 Z " fill="#000000" transform="translate(340,224)"/>
<path d="M0,0 L5,0 L8,3 L8,8 L5,11 L-1,10 L-3,8 L-3,3 Z " fill="#000000" transform="translate(412,224)"/>
<path d="M0,0 L5,3 L5,8 L2,11 L-3,10 L-5,8 L-4,2 Z " fill="#000000" transform="translate(377,224)"/>
<path d="M0,0 L6,1 L7,8 L5,11 L1,12 L-4,9 L-4,3 Z " fill="#000000" transform="translate(1005,225)"/>
<path d="M0,0 L7,0 L9,3 L8,9 L2,10 L-2,6 L-1,1 Z " fill="#000000" transform="translate(40,226)"/>
<path d="M0,0 L6,0 L8,2 L8,8 L3,10 L-1,8 L-2,3 Z " fill="#000000" transform="translate(966,227)"/>
<path d="M0,0 L6,1 L8,3 L8,11 L4,14 L-1,13 L-5,8 L-4,2 Z " fill="#000000" transform="translate(171,242)"/>
<path d="M0,0 L5,0 L7,2 L7,9 L6,10 L-1,10 L-3,8 L-3,3 Z " fill="#000000" transform="translate(283,242)"/>
<path d="M0,0 L7,1 L8,7 L5,11 L-1,10 L-2,9 L-2,2 Z " fill="#000000" transform="translate(133,243)"/>
<path d="M0,0 L6,0 L9,4 L9,9 L6,11 L-1,10 L-2,8 L-2,2 Z " fill="#000000" transform="translate(207,243)"/>
<path d="M0,0 L6,0 L8,2 L8,8 L6,10 L-1,9 L-2,2 Z " fill="#000000" transform="translate(319,243)"/>
<path d="M0,0 L6,1 L8,7 L5,10 L-1,10 L-3,8 L-3,2 Z " fill="#000000" transform="translate(358,243)"/>
<path d="M0,0 L7,0 L9,3 L9,9 L7,11 L1,11 L-2,8 L-1,1 Z " fill="#000000" transform="translate(58,244)"/>
<path d="M0,0 L6,1 L7,7 L3,11 L-2,10 L-3,3 Z " fill="#000000" transform="translate(97,244)"/>
<path d="M0,0 L6,0 L9,3 L7,8 L6,9 L0,9 L-2,6 L-1,1 Z " fill="#000000" transform="translate(244,244)"/>
<path d="M0,0 L4,1 L7,5 L6,10 L5,11 L-1,11 L-5,6 L-4,2 Z " fill="#000000" transform="translate(987,245)"/>
<path d="M0,0 L6,0 L8,3 L7,9 L5,11 L-1,11 L-3,8 L-3,3 Z " fill="#000000" transform="translate(1021,245)"/>
<path d="M0,0 L5,2 L6,3 L6,9 L3,13 L-3,13 L-6,10 L-5,3 Z " fill="#000000" transform="translate(229,260)"/>
<path d="M0,0 L5,1 L7,3 L6,10 L-1,11 L-4,8 L-3,2 Z " fill="#000000" transform="translate(190,262)"/>
<path d="M0,0 L6,0 L8,2 L8,8 L5,10 L-1,9 L-2,8 L-1,1 Z " fill="#000000" transform="translate(263,262)"/>
<path d="M0,0 L6,0 L8,2 L8,8 L6,10 L1,10 L-2,5 Z " fill="#000000" transform="translate(300,262)"/>
<path d="M0,0 L6,0 L8,2 L8,8 L6,10 L0,10 L-3,7 L-2,2 Z " fill="#000000" transform="translate(338,262)"/>
<path d="M0,0 L5,0 L8,3 L7,10 L4,12 L-1,12 L-4,9 L-3,2 Z " fill="#000000" transform="translate(78,263)"/>
<path d="M0,0 L7,1 L8,2 L8,9 L5,11 L0,10 L-3,5 Z " fill="#000000" transform="translate(151,263)"/>
<path d="M0,0 L5,1 L7,4 L7,9 L5,11 L-2,11 L-4,9 L-4,3 Z " fill="#000000" transform="translate(1004,263)"/>
<path d="M0,0 L5,1 L7,5 L4,9 L-1,9 L-3,7 L-3,2 Z " fill="#000000" transform="translate(115,264)"/>
<path d="M0,0 L5,0 L5,11 L-2,10 L-3,9 L-3,3 Z " fill="#000000" transform="translate(1039,264)"/>
<path d="M0,0 L4,2 L4,8 L3,9 L-2,9 L-4,6 L-3,1 Z " fill="#000000" transform="translate(44,264)"/>
<path d="M0,0 L6,1 L9,4 L8,11 L4,13 L-2,12 L-4,10 L-4,3 Z " fill="#000000" transform="translate(169,280)"/>
<path d="M0,0 L5,0 L8,4 L7,9 L4,12 L-3,11 L-4,7 L-2,2 Z " fill="#000000" transform="translate(208,280)"/>
<path d="M0,0 L5,2 L6,8 L4,10 L-1,10 L-4,6 L-3,2 Z " fill="#000000" transform="translate(246,280)"/>
<path d="M0,0 L6,0 L9,3 L8,8 L6,9 L0,9 L-2,7 L-2,2 Z " fill="#000000" transform="translate(281,281)"/>
<path d="M0,0 L6,0 L8,2 L8,8 L6,10 L1,10 L-2,7 L-2,2 Z " fill="#000000" transform="translate(319,281)"/>
<path d="M0,0 L6,0 L8,2 L8,9 L6,11 L0,11 L-3,8 L-2,1 Z " fill="#000000" transform="translate(58,282)"/>
<path d="M0,0 L6,0 L8,1 L9,6 L7,10 L0,10 L-2,8 L-2,2 Z " fill="#000000" transform="translate(132,282)"/>
<path d="M0,0 L6,0 L8,5 L5,8 L0,7 L-2,3 Z " fill="#000000" transform="translate(95,283)"/>
<path d="M0,0 L9,0 L22,2 L40,10 L48,15 L54,22 L61,36 L64,48 L64,66 L61,76 L55,87 L46,97 L37,103 L21,109 L6,111 L-2,110 L-17,106 L-25,100 L-35,86 L-40,79 L-43,67 L-44,60 L-44,50 L-40,37 L-34,25 L-30,21 L-27,15 L-16,7 L-3,1 Z M3,19 L-9,23 L-17,29 L-21,34 L-25,43 L-26,48 L-26,63 L-24,74 L-20,80 L-16,85 L-6,90 L0,92 L18,92 L30,89 L39,84 L44,76 L48,61 L48,52 L44,42 L36,30 L29,24 L21,21 L9,19 Z " fill="#000000" transform="translate(882,283)"/>
<path d="M0,0 L5,0 L8,3 L8,8 L5,11 L-1,10 L-3,4 Z " fill="#000000" transform="translate(188,299)"/>
<path d="M0,0 L7,0 L9,5 L7,9 L0,10 L-2,8 L-2,2 Z " fill="#000000" transform="translate(263,299)"/>
<path d="M0,0 L5,2 L7,7 L5,11 L0,12 L-4,10 L-5,4 Z " fill="#000000" transform="translate(115,300)"/>
<path d="M0,0 L6,0 L8,2 L8,7 L6,9 L0,9 L-2,7 L-2,2 Z " fill="#000000" transform="translate(225,300)"/>
<path d="M0,0 L6,0 L9,3 L9,8 L5,11 L-1,10 L-2,8 L-2,2 Z " fill="#000000" transform="translate(150,301)"/>
<path d="M0,0 L5,0 L8,4 L7,8 L5,10 L-1,9 L-2,8 L-2,2 Z " fill="#000000" transform="translate(76,302)"/>
<path d="M0,0 L5,1 L7,2 L8,9 L3,14 L-3,13 L-5,11 L-5,3 Z " fill="#000000" transform="translate(171,317)"/>
<path d="M0,0 L5,1 L7,4 L6,10 L2,13 L-4,12 L-6,9 L-5,4 L-3,1 Z " fill="#000000" transform="translate(134,318)"/>
<path d="M0,0 L7,1 L9,5 L8,11 L6,12 L0,12 L-3,8 L-2,2 Z " fill="#000000" transform="translate(206,318)"/>
<path d="M0,0 L5,1 L6,3 L6,9 L3,11 L-2,10 L-3,8 L-3,2 Z " fill="#000000" transform="translate(245,318)"/>
<path d="M0,0 L6,0 L8,2 L7,9 L4,11 L-1,11 L-3,9 L-3,3 Z " fill="#000000" transform="translate(95,320)"/>
<path d="M0,0 L6,0 L8,1 L9,6 L5,10 L0,9 L-2,6 L-1,1 Z " fill="#000000" transform="translate(57,322)"/>
<path d="M0,0 L7,1 L8,3 L8,11 L5,13 L-1,13 L-3,11 L-4,6 L-1,1 Z " fill="#000000" transform="translate(188,336)"/>
<path d="M0,0 L5,1 L7,4 L7,11 L4,13 L-2,12 L-4,9 L-4,3 Z " fill="#000000" transform="translate(226,336)"/>
<path d="M0,0 L6,1 L7,3 L7,10 L4,13 L-2,12 L-4,9 L-3,2 Z " fill="#000000" transform="translate(114,337)"/>
<path d="M0,0 L6,0 L9,3 L8,9 L4,12 L-1,11 L-3,9 L-2,2 Z " fill="#000000" transform="translate(150,337)"/>
<path d="M0,0 L5,0 L9,5 L8,10 L4,13 L-1,12 L-3,10 L-3,3 Z " fill="#000000" transform="translate(76,338)"/>
<path d="M0,0 L6,2 L7,3 L7,11 L3,14 L-2,14 L-5,11 L-5,4 L-2,1 Z " fill="#000000" transform="translate(208,354)"/>
<path d="M0,0 L7,0 L9,2 L9,8 L6,12 L-1,11 L-3,8 L-2,2 Z " fill="#000000" transform="translate(243,355)"/>
<path d="M0,0 L6,1 L8,4 L7,11 L4,13 L-2,13 L-5,8 L-3,2 Z " fill="#000000" transform="translate(95,356)"/>
<path d="M0,0 L5,1 L7,3 L7,9 L2,12 L-3,10 L-5,6 L-2,1 Z " fill="#000000" transform="translate(133,356)"/>
<path d="M0,0 L6,1 L8,4 L7,10 L4,12 L-2,11 L-3,9 L-3,3 Z " fill="#000000" transform="translate(169,356)"/>
<path d="M0,0 L7,0 L9,5 L7,10 L1,11 L-2,8 L-1,1 Z " fill="#000000" transform="translate(56,359)"/>
<path d="M0,0 L14,0 L33,2 L46,6 L55,12 L64,22 L71,32 L78,46 L81,54 L82,67 L79,85 L74,95 L68,103 L59,111 L38,122 L32,124 L23,124 L18,123 L4,122 L-4,119 L-16,111 L-26,102 L-36,87 L-40,70 L-42,57 L-42,43 L-38,33 L-31,22 L-26,18 L-21,13 L-7,3 Z M10,20 L2,22 L-4,26 L-14,34 L-19,42 L-25,58 L-25,67 L-22,76 L-18,84 L-10,94 L0,101 L11,105 L24,105 L34,102 L46,95 L55,84 L58,79 L61,69 L61,55 L59,43 L52,32 L44,25 L29,20 Z " fill="#000000" transform="translate(341,370)"/>
<path d="M0,0 L5,0 L8,3 L7,10 L5,12 L-3,12 L-5,9 L-4,3 Z " fill="#000000" transform="translate(151,374)"/>
<path d="M0,0 L8,0 L11,3 L11,9 L9,12 L4,13 L0,11 L-1,9 L-1,2 Z " fill="#000000" transform="translate(185,374)"/>
<path d="M0,0 L6,0 L9,5 L7,11 L4,13 L-2,12 L-4,9 L-4,4 Z " fill="#000000" transform="translate(225,374)"/>
<path d="M0,0 L6,1 L7,6 L4,10 L-2,10 L-4,7 L-3,2 Z " fill="#000000" transform="translate(113,376)"/>
<path d="M0,0 L6,0 L8,5 L6,10 L0,11 L-3,8 L-2,2 Z " fill="#000000" transform="translate(76,377)"/>
<path d="M0,0 L5,0 L8,3 L8,10 L4,14 L-3,13 L-5,9 L-4,4 Z " fill="#000000" transform="translate(206,392)"/>
<path d="M0,0 L5,0 L8,2 L9,10 L5,14 L-2,13 L-4,10 L-3,2 Z " fill="#000000" transform="translate(131,393)"/>
<path d="M0,0 L6,0 L8,3 L8,9 L4,13 L-2,12 L-4,10 L-3,2 Z " fill="#000000" transform="translate(169,393)"/>
<path d="M0,0 L5,1 L6,3 L6,9 L3,12 L-2,12 L-5,8 L-4,3 Z " fill="#000000" transform="translate(95,394)"/>
<path d="M0,0 L6,0 L9,2 L10,7 L7,10 L1,9 L-2,5 Z " fill="#000000" transform="translate(55,399)"/>
<path d="M0,0 L5,1 L7,3 L10,15 L15,26 L20,40 L27,58 L34,78 L38,89 L41,101 L53,127 L56,138 L59,142 L62,143 L104,144 L122,136 L142,124 L158,116 L167,110 L183,102 L199,93 L214,84 L233,72 L243,66 L257,59 L276,49 L289,41 L310,30 L318,25 L344,13 L355,8 L361,9 L365,14 L375,39 L381,60 L386,73 L390,84 L394,102 L405,130 L410,144 L412,145 L412,206 L406,204 L405,202 L405,196 L406,189 L403,188 L391,187 L388,184 L389,176 L393,171 L392,163 L388,147 L384,138 L379,133 L371,128 L370,127 L370,121 L373,115 L373,108 L368,96 L364,81 L360,76 L354,72 L352,70 L352,64 L353,62 L353,53 L351,46 L347,45 L343,48 L340,53 L333,52 L326,51 L306,60 L294,66 L286,73 L274,78 L272,81 L269,90 L262,91 L252,90 L242,95 L226,103 L216,108 L211,112 L200,119 L196,124 L189,128 L178,133 L177,140 L176,146 L171,148 L167,146 L160,146 L155,149 L155,153 L161,156 L170,158 L176,161 L181,161 L186,157 L191,156 L196,160 L199,166 L210,170 L222,174 L231,178 L237,178 L242,175 L248,175 L251,178 L252,186 L257,190 L272,196 L288,204 L293,203 L295,197 L297,195 L303,195 L305,196 L306,202 L301,207 L302,212 L305,214 L320,214 L324,219 L326,228 L332,231 L341,233 L346,243 L356,250 L362,254 L372,263 L378,268 L384,268 L385,267 L386,255 L389,252 L395,253 L398,256 L397,266 L399,269 L412,271 L412,282 L405,282 L398,281 L396,282 L397,288 L409,300 L412,303 L412,343 L408,341 L396,328 L389,320 L389,318 L387,318 L383,312 L375,305 L367,296 L359,289 L350,279 L340,273 L330,266 L318,258 L309,250 L294,242 L284,235 L269,227 L261,221 L244,212 L228,206 L207,197 L198,194 L188,192 L176,186 L156,182 L143,179 L128,175 L83,168 L72,167 L65,169 L38,169 L34,170 L21,170 L18,169 L-12,169 L-23,171 L-57,174 L-76,177 L-93,182 L-104,186 L-129,191 L-144,197 L-172,210 L-186,215 L-198,221 L-210,228 L-224,235 L-226,235 L-226,237 L-238,245 L-244,250 L-259,259 L-267,267 L-277,275 L-283,280 L-285,280 L-285,282 L-294,289 L-301,297 L-305,301 L-310,307 L-317,313 L-324,321 L-331,329 L-333,329 L-335,333 L-340,338 L-350,345 L-362,361 L-372,373 L-381,388 L-387,397 L-395,411 L-402,422 L-408,434 L-413,442 L-422,461 L-433,484 L-441,504 L-448,525 L-453,541 L-460,570 L-462,576 L-467,606 L-470,645 L-471,678 L-470,696 L-468,716 L-467,730 L-464,740 L-463,758 L-456,788 L-451,804 L-449,814 L-443,834 L-436,851 L-431,867 L-423,882 L-415,898 L-410,905 L-406,907 L-400,906 L-395,896 L-388,876 L-381,861 L-376,846 L-367,829 L-359,815 L-352,803 L-344,792 L-340,787 L-330,771 L-322,760 L-321,754 L-325,725 L-325,687 L-327,671 L-328,645 L-335,621 L-340,605 L-346,591 L-351,581 L-356,573 L-368,547 L-372,542 L-378,529 L-380,522 L-381,510 L-381,496 L-377,481 L-372,475 L-367,471 L-358,466 L-354,464 L-320,464 L-315,465 L-282,466 L-264,469 L-247,471 L-236,473 L-204,478 L-184,483 L-168,491 L-160,497 L-150,505 L-143,514 L-135,521 L-123,540 L-120,545 L-114,562 L-109,577 L-105,588 L-101,592 L-99,593 L-88,593 L-64,585 L-44,577 L-29,571 L-10,562 L0,558 L22,550 L47,541 L65,535 L84,526 L106,521 L120,518 L130,517 L146,517 L156,519 L170,519 L172,515 L168,469 L165,449 L163,424 L162,419 L162,401 L164,390 L171,379 L177,376 L186,374 L196,373 L216,373 L235,375 L260,380 L276,382 L298,387 L326,393 L354,399 L366,404 L376,410 L383,417 L390,426 L396,438 L402,455 L408,476 L412,491 L412,630 L410,630 L408,635 L403,641 L388,650 L385,654 L384,662 L391,704 L394,714 L400,722 L407,727 L410,730 L412,731 L412,822 L407,821 L385,810 L373,804 L352,796 L330,784 L326,779 L316,761 L308,745 L303,738 L296,737 L290,741 L284,748 L279,753 L265,771 L257,782 L247,797 L243,805 L237,816 L227,840 L223,852 L217,875 L215,888 L210,896 L206,899 L203,900 L195,900 L170,895 L155,891 L150,888 L148,881 L148,868 L149,854 L151,843 L154,813 L157,800 L158,796 L158,786 L152,783 L131,784 L113,789 L99,794 L85,802 L71,809 L54,815 L48,818 L38,820 L20,822 L8,824 L-9,824 L-18,826 L-34,834 L-41,841 L-43,841 L-43,843 L-53,850 L-66,858 L-79,863 L-95,867 L-100,870 L-102,873 L-101,883 L-96,895 L-89,905 L-81,912 L-75,920 L-68,928 L-59,939 L-48,951 L-42,959 L-32,975 L-31,978 L-31,985 L-35,996 L-42,1003 L-57,1012 L-73,1021 L-79,1024 L-90,1024 L-104,1018 L-109,1012 L-121,1003 L-132,995 L-145,985 L-157,975 L-165,969 L-174,960 L-184,953 L-189,948 L-196,939 L-203,928 L-210,914 L-218,896 L-223,883 L-233,858 L-238,852 L-244,852 L-252,859 L-261,868 L-265,873 L-269,877 L-283,896 L-294,914 L-300,924 L-303,928 L-307,937 L-313,952 L-317,961 L-322,977 L-327,988 L-332,1004 L-331,1012 L-324,1018 L-308,1030 L-297,1039 L-286,1050 L-268,1062 L-256,1069 L-251,1073 L-245,1077 L-236,1083 L-220,1091 L-206,1100 L-196,1104 L-181,1109 L-162,1118 L-133,1128 L-117,1134 L-89,1139 L-68,1144 L-37,1148 L-34,1149 L3,1151 L36,1151 L68,1150 L101,1145 L117,1143 L133,1139 L156,1134 L170,1129 L185,1125 L200,1118 L222,1110 L234,1105 L243,1099 L260,1091 L278,1081 L289,1073 L303,1063 L313,1058 L327,1048 L339,1039 L347,1032 L354,1022 L363,1016 L368,1012 L372,1006 L380,999 L389,990 L395,982 L398,981 L400,977 L407,964 L412,960 L412,1009 L407,1012 L401,1020 L396,1025 L390,1030 L386,1035 L381,1040 L374,1046 L368,1051 L366,1051 L365,1054 L351,1065 L341,1075 L339,1075 L339,1077 L329,1084 L320,1089 L303,1099 L279,1112 L265,1120 L249,1128 L236,1134 L216,1141 L198,1147 L187,1154 L174,1159 L162,1163 L138,1167 L115,1171 L102,1172 L-77,1172 L-95,1170 L-120,1163 L-140,1156 L-159,1148 L-183,1138 L-197,1133 L-207,1129 L-223,1121 L-239,1113 L-250,1106 L-274,1090 L-283,1084 L-292,1078 L-303,1070 L-314,1061 L-327,1049 L-334,1044 L-334,1042 L-337,1041 L-343,1034 L-351,1027 L-358,1020 L-366,1014 L-371,1009 L-381,998 L-388,990 L-394,982 L-394,980 L-398,978 L-404,970 L-413,958 L-422,944 L-434,925 L-440,915 L-450,900 L-457,886 L-464,870 L-472,854 L-477,843 L-481,818 L-487,794 L-490,789 L-496,787 L-521,786 L-543,786 L-552,784 L-556,780 L-557,777 L-557,764 L-554,761 L-541,761 L-530,756 L-523,756 L-514,761 L-501,761 L-493,755 L-491,753 L-491,746 L-492,744 L-494,730 L-495,727 L-495,715 L-496,714 L-508,714 L-511,711 L-511,703 L-508,701 L-498,700 L-497,699 L-497,684 L-499,680 L-509,677 L-512,672 L-511,667 L-507,663 L-496,661 L-496,640 L-506,640 L-509,637 L-510,631 L-508,627 L-506,626 L-494,626 L-493,624 L-493,612 L-488,600 L-486,587 L-490,580 L-490,573 L-485,567 L-480,564 L-478,555 L-478,548 L-487,545 L-489,543 L-489,537 L-486,532 L-473,532 L-472,531 L-469,514 L-462,495 L-463,490 L-468,486 L-469,480 L-466,476 L-460,475 L-453,474 L-452,472 L-450,460 L-441,446 L-437,438 L-437,433 L-446,431 L-449,427 L-449,421 L-446,418 L-439,418 L-434,425 L-430,424 L-428,420 L-428,414 L-431,409 L-430,402 L-426,399 L-417,397 L-415,395 L-412,384 L-407,379 L-401,375 L-391,362 L-380,346 L-373,336 L-364,323 L-362,318 L-370,317 L-373,313 L-372,306 L-370,305 L-364,305 L-361,309 L-360,315 L-355,313 L-350,306 L-350,300 L-354,294 L-354,289 L-351,286 L-346,286 L-341,290 L-335,290 L-331,286 L-330,282 L-334,276 L-333,269 L-332,268 L-326,268 L-324,270 L-322,275 L-317,276 L-309,269 L-298,261 L-292,257 L-285,250 L-271,239 L-259,232 L-245,223 L-240,213 L-235,212 L-228,213 L-222,211 L-211,206 L-202,203 L-192,197 L-177,189 L-171,186 L-169,186 L-166,175 L-164,174 L-158,174 L-152,178 L-144,177 L-122,169 L-114,165 L-110,157 L-109,156 L-102,156 L-99,159 L-91,160 L-77,157 L-70,154 L-50,152 L-34,149 L-22,147 L-20,146 L-18,137 L-16,136 L-10,136 L-7,139 L-4,145 L-1,146 L10,146 L17,145 L19,136 L19,127 L16,120 L13,105 L9,95 L3,89 L2,86 L2,78 L3,70 L-2,49 L-7,36 L-10,32 L-15,31 L-28,33 L-28,39 L-27,46 L-28,48 L-35,47 L-36,39 L-36,37 L-46,39 L-57,45 L-66,52 L-74,57 L-76,57 L-78,61 L-81,66 L-83,67 L-99,68 L-111,74 L-120,78 L-131,85 L-138,89 L-150,94 L-153,97 L-156,107 L-160,109 L-167,108 L-175,108 L-177,113 L-174,118 L-174,124 L-179,127 L-183,125 L-187,118 L-192,117 L-204,123 L-216,130 L-225,135 L-230,145 L-233,147 L-246,146 L-251,149 L-252,152 L-250,157 L-250,163 L-252,165 L-257,165 L-262,158 L-269,158 L-292,170 L-300,178 L-304,184 L-308,186 L-316,185 L-326,181 L-336,181 L-345,186 L-350,185 L-358,181 L-374,181 L-381,185 L-387,185 L-395,181 L-406,181 L-413,183 L-417,186 L-424,186 L-432,182 L-444,181 L-451,184 L-456,187 L-463,186 L-465,183 L-465,168 L-464,164 L-464,149 L-465,139 L-464,127 L-464,111 L-462,99 L-458,93 L-453,90 L-445,90 L-442,94 L-439,107 L-439,120 L-440,127 L-440,147 L-438,151 L-436,152 L-398,153 L-375,155 L-328,155 L-320,156 L-310,156 L-300,153 L-276,140 L-268,135 L-245,122 L-229,114 L-220,108 L-209,101 L-195,93 L-179,85 L-168,80 L-156,74 L-141,66 L-118,55 L-106,49 L-87,39 L-70,29 L-52,21 L-41,17 L-29,11 L-15,6 L-6,4 Z M197,396 L188,401 L183,407 L182,413 L183,430 L185,438 L185,451 L187,483 L191,510 L192,526 L195,532 L197,534 L202,533 L207,521 L215,510 L228,498 L242,490 L256,486 L268,486 L288,493 L294,497 L302,505 L308,514 L313,526 L315,536 L315,557 L313,568 L309,576 L308,579 L306,579 L301,584 L285,597 L283,599 L284,606 L291,616 L292,618 L293,639 L299,645 L306,646 L316,644 L331,639 L340,633 L344,624 L347,613 L349,588 L350,581 L350,562 L347,520 L341,493 L334,465 L333,455 L341,456 L349,467 L356,483 L359,489 L361,499 L363,504 L368,532 L368,587 L367,605 L367,618 L372,623 L379,621 L385,614 L390,600 L392,591 L393,578 L393,560 L392,514 L389,492 L383,469 L375,453 L368,443 L362,436 L360,436 L358,432 L345,424 L331,419 L302,412 L284,408 L257,403 L214,397 Z M-333,481 L-347,483 L-353,487 L-358,493 L-360,496 L-361,505 L-358,515 L-349,534 L-343,544 L-339,552 L-334,562 L-327,579 L-322,591 L-317,606 L-312,630 L-310,635 L-310,656 L-309,669 L-307,685 L-307,713 L-305,720 L-299,720 L-297,716 L-297,691 L-301,650 L-304,641 L-304,622 L-307,607 L-314,585 L-316,576 L-316,570 L-309,570 L-304,575 L-298,591 L-294,605 L-290,616 L-286,639 L-283,659 L-282,678 L-280,694 L-280,742 L-275,747 L-267,751 L-237,761 L-210,765 L-195,767 L-177,766 L-173,762 L-171,755 L-170,720 L-170,701 L-173,676 L-177,657 L-179,640 L-182,633 L-184,620 L-190,604 L-193,596 L-198,584 L-203,576 L-204,571 L-202,567 L-195,567 L-188,572 L-180,588 L-171,605 L-167,611 L-164,623 L-160,637 L-154,658 L-151,666 L-149,679 L-147,703 L-146,759 L-142,764 L-135,765 L-130,761 L-126,751 L-122,730 L-119,715 L-117,700 L-116,687 L-116,673 L-117,652 L-119,642 L-122,617 L-127,592 L-132,581 L-137,565 L-151,537 L-159,525 L-163,519 L-165,519 L-166,516 L-180,508 L-187,504 L-203,500 L-216,497 L-235,495 L-251,494 L-286,488 L-291,486 L-323,481 Z M253,506 L245,509 L235,515 L227,526 L224,532 L223,537 L223,550 L226,559 L231,565 L239,571 L253,579 L264,580 L278,575 L287,566 L294,556 L297,546 L297,536 L292,524 L282,511 L270,506 Z M122,564 L105,568 L86,573 L78,577 L62,583 L43,590 L28,595 L18,598 L-11,613 L-18,616 L-25,618 L-34,618 L-42,615 L-53,608 L-55,607 L-63,607 L-75,611 L-87,614 L-94,618 L-96,621 L-96,694 L-97,723 L-102,748 L-107,767 L-112,780 L-123,788 L-124,789 L-124,799 L-121,809 L-118,823 L-116,834 L-113,840 L-108,843 L-100,843 L-91,839 L-80,833 L-70,827 L-60,820 L-51,814 L-41,808 L-28,804 L-11,803 L3,801 L17,800 L41,792 L57,784 L83,770 L96,764 L104,762 L128,761 L152,758 L168,754 L191,744 L199,741 L211,738 L221,735 L230,731 L251,728 L260,726 L270,721 L274,715 L277,684 L278,671 L278,660 L275,655 L268,651 L260,652 L244,656 L222,662 L211,666 L188,670 L179,672 L151,678 L139,680 L123,681 L118,682 L92,682 L83,679 L77,675 L67,666 L63,663 L61,658 L61,651 L62,648 L66,646 L75,642 L105,638 L110,636 L127,632 L147,625 L155,622 L165,618 L181,610 L195,602 L198,599 L198,595 L180,585 L168,577 L152,569 L139,564 Z " fill="#000000" transform="translate(632,31)"/>
<path d="M0,0 L5,1 L8,5 L7,11 L3,14 L-3,13 L-5,11 L-5,5 Z " fill="#000000" transform="translate(188,411)"/>
<path d="M0,0 L7,0 L10,3 L10,10 L7,13 L2,14 L-3,11 L-3,4 Z " fill="#000000" transform="translate(111,412)"/>
<path d="M0,0 L6,0 L8,3 L7,10 L3,13 L-2,12 L-4,10 L-4,4 Z " fill="#000000" transform="translate(150,412)"/>
<path d="M0,0 L5,0 L7,2 L7,9 L4,12 L-2,12 L-4,9 L-3,3 Z " fill="#000000" transform="translate(75,413)"/>
<path d="M0,0 L5,1 L7,3 L7,11 L3,15 L-4,14 L-6,11 L-6,5 L-3,1 Z " fill="#000000" transform="translate(170,429)"/>
<path d="M0,0 L5,1 L8,6 L6,12 L1,13 L-3,11 L-4,9 L-4,3 Z " fill="#000000" transform="translate(94,431)"/>
<path d="M0,0 L5,1 L8,6 L6,11 L0,12 L-3,10 L-3,2 Z " fill="#000000" transform="translate(131,431)"/>
<path d="M0,0 L5,0 L8,3 L8,8 L5,11 L0,11 L-2,9 L-2,3 Z " fill="#000000" transform="translate(56,434)"/>
<path d="M0,0 L5,0 L9,4 L9,12 L7,14 L-1,14 L-4,10 L-5,5 Z " fill="#000000" transform="translate(112,449)"/>
<path d="M0,0 L5,1 L8,4 L8,11 L5,13 L-3,12 L-5,9 L-5,4 Z " fill="#000000" transform="translate(150,449)"/>
<path d="M0,0 L7,1 L9,5 L8,11 L2,13 L-3,10 L-4,5 L-2,1 Z " fill="#000000" transform="translate(74,450)"/>
<path d="M0,0 L5,2 L6,9 L3,12 L-2,11 L-4,9 L-4,3 Z " fill="#000000" transform="translate(131,469)"/>
<path d="M0,0 L7,1 L8,2 L8,9 L5,12 L-1,11 L-3,9 L-3,3 Z " fill="#000000" transform="translate(167,469)"/>
<path d="M0,0 L7,1 L8,8 L5,11 L0,11 L-2,9 L-2,1 Z " fill="#000000" transform="translate(93,470)"/>
<path d="M0,0 L5,1 L7,4 L6,10 L4,12 L-2,12 L-4,10 L-4,3 Z " fill="#000000" transform="translate(112,487)"/>
<path d="M0,0 L5,1 L7,3 L8,12 L5,15 L-1,14 L-5,10 L-4,3 Z " fill="#000000" transform="translate(150,487)"/>
<path d="M0,0 L5,0 L7,2 L7,7 L5,9 L0,8 L-2,3 Z " fill="#000000" transform="translate(73,489)"/>
<path d="M0,0 L6,2 L7,9 L4,14 L-2,14 L-6,10 L-5,3 Z " fill="#000000" transform="translate(94,505)"/>
<path d="M0,0 L7,1 L9,5 L8,10 L4,13 L-1,12 L-4,9 L-3,3 Z " fill="#000000" transform="translate(129,506)"/>
<path d="M0,0 L6,1 L7,2 L7,11 L4,14 L-3,13 L-5,10 L-4,3 Z " fill="#000000" transform="translate(149,524)"/>
<path d="M0,0 L5,2 L6,3 L6,9 L2,13 L-4,11 L-5,5 Z " fill="#000000" transform="translate(112,525)"/>
<path d="M0,0 L7,0 L9,3 L8,10 L5,12 L0,11 L-2,8 L-2,2 Z " fill="#000000" transform="translate(90,545)"/>
<path d="M0,0 L5,3 L5,9 L1,13 L-4,12 L-6,10 L-5,3 Z " fill="#000000" transform="translate(131,544)"/>
<path d="M0,0 L5,1 L7,3 L7,9 L4,12 L0,13 L-4,11 L-5,6 L-4,2 Z " fill="#000000" transform="translate(111,563)"/>
<path d="M0,0 L6,0 L8,4 L7,9 L2,10 L-2,7 L-2,2 Z " fill="#000000" transform="translate(73,565)"/>
<path d="M0,0 L6,1 L7,2 L7,9 L4,12 L-1,11 L-3,9 L-3,2 Z " fill="#000000" transform="translate(91,582)"/>
<path d="M0,0 L5,1 L7,3 L7,8 L4,11 L-2,11 L-4,8 L-4,3 Z " fill="#000000" transform="translate(129,582)"/>
<path d="M0,0 L5,2 L6,3 L5,10 L-2,11 L-4,9 L-4,3 Z " fill="#000000" transform="translate(110,602)"/>
<path d="M0,0 L4,1 L6,5 L2,9 L-2,8 L-3,3 Z " fill="#000000" transform="translate(73,603)"/>
<path d="M0,0 L6,2 L7,3 L7,11 L3,14 L-4,13 L-6,8 L-3,1 Z " fill="#000000" transform="translate(128,619)"/>
<path d="M0,0 L5,1 L7,5 L6,10 L1,12 L-3,10 L-4,3 Z " fill="#000000" transform="translate(91,621)"/>
<path d="M0,0 L5,2 L6,4 L6,10 L2,14 L-3,14 L-6,11 L-6,4 L-3,1 Z " fill="#000000" transform="translate(110,638)"/>
<path d="M0,0 L5,0 L7,5 L5,9 L-1,10 L-3,5 Z " fill="#000000" transform="translate(72,640)"/>
<path d="M0,0 L4,1 L6,3 L6,10 L4,12 L-2,12 L-4,10 L-4,3 Z " fill="#000000" transform="translate(90,658)"/>
<path d="M0,0 L7,1 L8,8 L4,13 L-2,12 L-4,9 L-3,2 Z " fill="#000000" transform="translate(107,676)"/>
<path d="M0,0 L5,0 L7,2 L7,8 L4,11 L-1,10 L-2,5 Z " fill="#000000" transform="translate(71,679)"/>
<path d="M0,0 L5,0 L9,4 L9,10 L4,14 L-2,13 L-5,7 L-2,1 Z " fill="#000000" transform="translate(88,694)"/>
<path d="M0,0 L6,0 L10,4 L11,8 L8,13 L7,14 L0,14 L-4,9 L-3,3 Z " fill="#000000" transform="translate(105,713)"/>
<path d="M0,0 L6,0 L7,1 L7,7 L2,9 L-1,7 Z " fill="#000000" transform="translate(70,717)"/>
<path d="M0,0 L6,0 L9,3 L8,11 L5,14 L1,15 L-3,13 L-4,11 L-4,4 Z " fill="#000000" transform="translate(87,732)"/>
<path d="M0,0 L6,0 L9,4 L8,12 L6,14 L-1,14 L-4,10 L-3,3 Z " fill="#000000" transform="translate(105,751)"/>
<path d="M0,0 L7,1 L9,3 L9,11 L4,15 L-1,14 L-4,10 L-5,6 L-3,2 Z " fill="#000000" transform="translate(86,769)"/>
<path d="M0,0 L6,0 L9,4 L9,11 L7,14 L0,14 L-4,10 L-4,4 Z " fill="#000000" transform="translate(124,769)"/>
</svg>
