<?xml version="1.0" encoding="UTF-8"?>
<!-- Generator: visioncortex VTracer 0.6.12 -->
<svg version="1.1" xmlns="http://www.w3.org/2000/svg" width="648" height="1068">
<path d="M0,0 L40,2 L55,3 L58,4 L80,4 L88,7 L103,9 L117,12 L130,14 L146,17 L160,21 L174,25 L183,28 L192,31 L214,38 L224,43 L240,49 L257,56 L266,61 L276,65 L282,70 L285,78 L285,212 L286,293 L289,303 L295,311 L297,315 L296,324 L291,334 L286,342 L286,392 L285,605 L286,621 L291,626 L294,630 L296,636 L296,645 L293,650 L287,655 L285,660 L285,732 L286,781 L285,798 L286,834 L286,880 L285,897 L286,916 L286,929 L284,936 L279,940 L271,945 L259,950 L238,957 L228,962 L212,967 L203,970 L191,974 L173,979 L157,983 L131,989 L89,995 L82,996 L65,997 L41,999 L32,997 L29,998 L-13,998 L-38,996 L-42,995 L-56,994 L-65,992 L-83,990 L-93,988 L-109,984 L-119,983 L-123,981 L-137,978 L-145,974 L-161,971 L-170,967 L-182,965 L-189,962 L-201,958 L-211,954 L-223,949 L-231,945 L-241,941 L-251,935 L-267,928 L-275,921 L-276,919 L-275,887 L-275,803 L-274,736 L-274,685 L-273,655 L-279,647 L-282,638 L-283,635 L-283,628 L-279,617 L-275,611 L-273,605 L-273,553 L-272,522 L-272,465 L-271,415 L-270,345 L-271,320 L-276,310 L-279,304 L-280,294 L-275,284 L-271,279 L-270,276 L-269,208 L-269,71 L-267,66 L-259,61 L-249,57 L-242,53 L-235,50 L-232,48 L-223,45 L-203,37 L-199,35 L-190,33 L-181,30 L-159,23 L-129,16 L-112,12 L-109,11 L-94,9 L-91,8 L-80,7 L-77,6 L-59,4 L-48,3 L-20,1 Z M3,32 L-14,33 L-24,33 L-33,34 L-56,35 L-75,39 L-93,41 L-102,43 L-115,45 L-133,49 L-145,52 L-160,56 L-173,60 L-181,63 L-186,67 L-185,71 L-175,77 L-162,81 L-149,86 L-131,89 L-121,92 L-109,95 L-97,98 L-82,100 L-71,101 L-55,104 L-19,107 L40,107 L45,106 L74,104 L94,101 L108,100 L117,98 L123,97 L129,95 L140,94 L147,91 L163,87 L173,83 L182,81 L193,78 L201,74 L202,69 L181,61 L157,54 L139,50 L128,47 L112,44 L104,41 L90,40 L77,38 L32,34 L16,34 L11,32 Z M-226,92 L-230,96 L-231,105 L-232,190 L-233,289 L-232,296 L-222,304 L-201,314 L-189,319 L-182,322 L-173,325 L-157,331 L-146,335 L-133,339 L-126,341 L-116,343 L-106,346 L-94,347 L-89,350 L-77,352 L-58,355 L-42,357 L-33,357 L-30,358 L8,360 L14,361 L42,361 L44,360 L95,357 L111,354 L119,352 L126,351 L133,350 L153,346 L174,341 L188,336 L205,331 L215,328 L223,324 L232,321 L239,319 L249,313 L251,309 L252,298 L252,230 L251,214 L251,101 L246,96 L233,100 L228,103 L219,105 L200,112 L187,116 L175,118 L170,121 L160,123 L154,127 L144,128 L137,131 L130,131 L124,133 L99,135 L95,136 L66,138 L62,139 L42,140 L-19,140 L-38,139 L-51,137 L-78,134 L-89,132 L-101,129 L-124,125 L-142,120 L-151,118 L-161,114 L-173,111 L-188,105 L-200,102 L-218,94 Z M-229,338 L-232,340 L-233,368 L-234,414 L-234,430 L-233,440 L-234,445 L-234,497 L-235,515 L-235,625 L-231,629 L-214,638 L-191,646 L-182,649 L-164,656 L-136,664 L-125,667 L-108,670 L-75,676 L-31,681 L9,683 L26,683 L48,681 L68,680 L80,678 L102,676 L116,673 L125,672 L129,670 L148,666 L157,663 L166,661 L175,659 L178,657 L186,655 L196,652 L213,646 L232,638 L242,634 L249,629 L252,617 L252,363 L251,354 L248,351 L235,354 L220,360 L210,363 L197,367 L188,370 L179,372 L174,374 L161,377 L146,381 L118,386 L103,389 L89,391 L74,392 L70,393 L42,394 L1,394 L-34,392 L-47,390 L-67,388 L-79,386 L-91,383 L-102,382 L-107,380 L-119,377 L-141,371 L-155,367 L-171,362 L-185,357 L-201,350 L-224,340 Z M-232,666 L-235,670 L-236,684 L-237,876 L-236,893 L-236,902 L-233,907 L-220,914 L-212,917 L-196,925 L-187,929 L-178,931 L-168,935 L-148,942 L-132,946 L-122,949 L-107,952 L-82,957 L-74,959 L-60,960 L-54,962 L-41,962 L-27,964 L-19,964 L-12,965 L46,965 L62,963 L85,962 L110,958 L133,954 L141,952 L154,950 L163,947 L173,943 L177,941 L192,939 L202,935 L222,928 L233,924 L249,916 L252,912 L252,683 L251,671 L249,668 L244,669 L232,674 L214,680 L211,682 L201,684 L193,688 L182,691 L180,692 L167,694 L163,696 L146,699 L136,702 L113,706 L97,709 L60,713 L35,715 L-9,715 L-46,713 L-68,711 L-71,710 L-86,708 L-93,707 L-107,705 L-130,699 L-147,695 L-154,692 L-163,690 L-174,686 L-187,682 L-204,676 L-214,672 L-226,667 Z " fill="#000000" transform="translate(318,37)"/>
</svg>
