<?xml version="1.0" encoding="UTF-8"?>
<!-- Generator: visioncortex VTracer 0.6.12 -->
<svg version="1.1" xmlns="http://www.w3.org/2000/svg" width="1104" height="1122">
<path d="M0,0 L10,0 L8,4 L7,11 L8,13 L14,14 L15,16 L15,41 L16,55 L16,88 L15,104 L13,109 L14,115 L14,190 L13,197 L13,217 L12,223 L14,234 L13,247 L13,255 L12,261 L13,269 L13,289 L12,319 L13,323 L13,334 L11,341 L5,343 L5,348 L11,351 L12,355 L10,358 L11,366 L10,381 L11,389 L11,424 L12,429 L10,440 L10,452 L9,456 L9,499 L8,502 L4,503 L2,517 L10,522 L9,532 L11,562 L4,561 L3,566 L6,569 L9,571 L10,574 L10,585 L8,588 L4,588 L4,590 L9,591 L10,593 L10,608 L9,614 L10,619 L10,630 L9,644 L7,649 L0,652 Z M6,84 L7,89 L9,88 L9,84 Z M6,97 L4,99 L4,105 L8,106 L9,105 L9,98 Z M6,163 L7,165 L8,163 Z " fill="#000000" transform="translate(0,0)"/>
<path d="M0,0 L7,0 L4,2 L0,1 Z " fill="#000000" transform="translate(495,0)"/>
<path d="M0,0 L71,0 L71,2 L59,2 L53,3 L37,3 L3,2 Z " fill="#000000" transform="translate(512,0)"/>
<path d="M0,0 L516,0 L516,1122 L-588,1122 L-588,1106 L-586,1106 L-583,1109 L-572,1111 L-517,1111 L-514,1112 L-488,1113 L-397,1114 L-262,1114 L-240,1115 L-91,1115 L-39,1116 L7,1116 L27,1117 L74,1117 L160,1118 L383,1118 L417,1119 L457,1119 L463,1120 L496,1118 L499,1115 L501,1107 L500,1006 L500,974 L502,909 L502,873 L501,865 L501,835 L500,765 L501,742 L501,728 L502,725 L503,705 L502,699 L503,678 L503,644 L504,527 L504,497 L506,487 L506,480 L504,466 L505,432 L505,256 L506,248 L506,200 L505,149 L506,107 L506,64 L508,22 L507,13 L504,10 L483,8 L458,8 L413,7 L389,6 L283,5 L224,5 L216,4 L85,4 L2,3 L0,2 Z " fill="#000000" transform="translate(588,0)"/>
<path d="M0,0 L183,0 L208,1 L214,3 L217,1 L320,1 L374,2 L388,2 L392,8 L393,23 L397,27 L400,28 L411,28 L415,32 L416,34 L416,130 L415,166 L416,196 L415,212 L415,255 L414,319 L414,428 L413,547 L413,641 L412,661 L409,666 L407,667 L395,668 L389,672 L387,682 L388,702 L384,706 L269,704 L238,704 L174,703 L111,703 L88,702 L28,702 L-6,701 L-10,697 L-10,672 L-12,667 L-20,664 L-30,661 L-33,655 L-34,648 L-34,630 L-35,625 L-35,525 L-34,451 L-34,350 L-33,326 L-33,253 L-32,250 L-32,220 L-33,183 L-33,74 L-32,57 L-32,48 L-31,39 L-30,38 L-23,38 L-23,27 L-18,24 L-10,20 L-7,11 L-5,4 Z M15,11 L9,14 L8,21 L12,24 L42,25 L80,25 L95,26 L109,25 L118,26 L160,26 L205,27 L220,27 L229,28 L233,27 L316,28 L320,27 L328,27 L335,28 L370,28 L376,25 L378,21 L377,16 L372,13 L306,12 L216,12 L210,11 L199,12 L172,12 L161,11 Z M3,35 L-10,36 L-15,38 L-18,44 L-18,63 L-17,78 L-17,92 L-18,96 L-18,108 L-17,122 L-18,161 L-19,187 L-19,242 L-20,273 L-20,336 L-19,363 L-19,410 L-20,450 L-19,462 L-19,580 L-20,606 L-21,617 L-20,621 L-20,628 L-23,639 L-23,648 L-18,652 L-11,653 L25,653 L56,654 L117,655 L225,656 L391,656 L396,653 L399,649 L400,644 L400,554 L401,485 L401,437 L402,381 L402,350 L403,327 L403,273 L404,250 L404,48 L401,43 L397,40 L393,39 L364,39 L309,38 L280,38 L224,37 L136,37 L118,36 L56,36 L22,35 Z M-30,629 L-30,631 L-27,631 L-27,629 Z M13,663 L6,666 L2,671 L-1,679 L2,686 L7,690 L9,691 L77,692 L113,692 L254,694 L367,694 L372,690 L375,681 L374,673 L369,668 L361,666 L331,666 L312,665 L284,665 L174,664 L148,664 L80,663 Z " fill="#000000" transform="translate(415,221)"/>
<path d="M0,0 L40,1 L68,1 L193,2 L194,3 L194,9 L190,13 L188,14 L133,14 L71,13 L25,13 L11,14 L8,17 L9,24 L15,26 L43,26 L56,27 L60,26 L115,27 L188,27 L193,29 L195,31 L194,38 L190,40 L179,40 L167,39 L142,40 L134,39 L-10,39 L-15,42 L-17,50 L-17,131 L-18,169 L-19,187 L-19,213 L-20,274 L-19,367 L-19,430 L-20,483 L-21,489 L-21,500 L-20,504 L-19,518 L-19,542 L-20,567 L-20,578 L-21,589 L-20,603 L-22,631 L-22,645 L-18,652 L-8,654 L4,654 L25,655 L86,656 L180,656 L189,660 L192,663 L191,668 L185,670 L176,668 L117,668 L52,667 L14,667 L5,669 L3,671 L2,675 L2,683 L5,689 L7,691 L11,692 L42,693 L121,693 L126,694 L156,694 L190,695 L193,698 L193,704 L188,708 L158,707 L119,706 L92,706 L76,705 L24,705 L2,704 L-5,705 L-10,700 L-11,694 L-12,673 L-16,668 L-30,665 L-34,661 L-35,657 L-36,613 L-35,511 L-33,497 L-35,487 L-35,443 L-34,417 L-34,371 L-33,345 L-33,298 L-32,183 L-32,50 L-31,33 L-28,28 L-19,26 L-10,23 L-8,20 L-6,6 L-2,1 Z " fill="#000000" transform="translate(887,223)"/>
<path d="M0,0 L20,0 L33,2 L49,6 L56,7 L59,9 L68,12 L91,23 L100,28 L100,30 L104,32 L115,40 L122,47 L129,53 L136,61 L143,70 L150,81 L153,84 L162,103 L167,117 L173,135 L176,160 L176,190 L173,206 L169,219 L165,232 L157,251 L148,265 L144,272 L136,282 L129,291 L123,296 L121,296 L121,298 L110,307 L97,317 L87,322 L78,328 L66,332 L62,334 L55,336 L44,340 L26,343 L11,344 L-3,344 L-29,341 L-40,338 L-49,336 L-68,328 L-79,322 L-92,314 L-108,302 L-128,282 L-139,266 L-147,252 L-156,233 L-159,225 L-164,203 L-165,200 L-166,172 L-166,162 L-167,153 L-165,144 L-163,131 L-159,117 L-155,108 L-147,89 L-138,75 L-128,61 L-106,39 L-93,30 L-85,25 L-81,22 L-65,15 L-40,5 L-22,2 L-11,1 Z M2,12 L-16,13 L-35,17 L-40,19 L-52,22 L-73,32 L-83,39 L-96,49 L-108,60 L-115,67 L-124,79 L-130,87 L-139,104 L-144,117 L-147,127 L-149,132 L-150,142 L-150,149 L-153,159 L-153,185 L-149,209 L-146,221 L-138,241 L-129,257 L-119,271 L-110,281 L-103,289 L-93,297 L-86,303 L-73,311 L-59,318 L-51,322 L-38,326 L-21,330 L-13,331 L23,331 L52,325 L66,319 L76,315 L88,308 L99,300 L109,292 L117,284 L122,278 L127,273 L133,265 L139,257 L145,246 L152,231 L157,217 L162,194 L163,180 L163,159 L161,141 L153,113 L149,104 L139,86 L129,72 L120,62 L112,55 L106,48 L93,39 L82,32 L66,24 L48,18 L31,14 L8,12 Z " fill="#000000" transform="translate(600,314)"/>
<path d="M0,0 L6,1 L10,6 L10,11 L9,12 L-7,13 L-26,16 L-43,21 L-64,30 L-77,37 L-88,45 L-104,60 L-110,65 L-123,83 L-131,97 L-138,112 L-144,130 L-148,151 L-149,163 L-149,181 L-147,198 L-141,223 L-131,246 L-121,262 L-113,272 L-102,285 L-99,288 L-99,290 L-95,292 L-88,298 L-83,302 L-78,305 L-65,313 L-50,320 L-37,324 L-16,330 L8,330 L11,334 L12,340 L8,345 L-1,345 L-34,340 L-47,335 L-58,331 L-77,321 L-89,313 L-100,305 L-110,295 L-118,288 L-125,280 L-133,269 L-139,260 L-147,244 L-155,224 L-158,213 L-161,197 L-163,177 L-162,152 L-160,138 L-155,120 L-149,105 L-144,92 L-137,81 L-129,69 L-122,60 L-120,60 L-118,56 L-101,39 L-90,31 L-82,25 L-66,17 L-49,9 L-23,2 Z " fill="#000000" transform="translate(1071,318)"/>
<path d="M0,0 L27,1 L42,4 L62,11 L81,21 L89,27 L99,35 L108,45 L114,50 L126,70 L134,87 L140,108 L141,112 L142,125 L142,149 L136,175 L131,188 L121,206 L118,211 L116,211 L114,216 L105,226 L99,233 L88,242 L70,253 L58,258 L47,262 L32,266 L20,267 L-7,267 L-22,264 L-36,260 L-42,256 L-45,254 L-53,252 L-67,244 L-81,233 L-85,228 L-92,222 L-100,211 L-106,202 L-114,185 L-118,176 L-124,152 L-124,123 L-122,106 L-116,85 L-111,73 L-101,58 L-93,48 L-88,41 L-83,36 L-73,27 L-62,20 L-46,12 L-31,6 L-25,4 Z M-7,13 L-25,17 L-37,21 L-56,31 L-68,40 L-72,44 L-72,46 L-76,48 L-81,53 L-90,65 L-97,75 L-105,95 L-111,119 L-111,141 L-110,156 L-100,186 L-94,197 L-86,209 L-78,219 L-69,226 L-64,231 L-51,240 L-31,249 L-14,254 L0,255 L26,255 L46,250 L69,240 L79,233 L87,227 L97,218 L105,208 L109,202 L115,193 L121,177 L127,159 L129,145 L129,115 L124,96 L115,75 L107,61 L94,47 L89,41 L80,35 L67,27 L57,22 L43,17 L33,14 L22,13 Z " fill="#000000" transform="translate(596,352)"/>
<path d="M0,0 L5,2 L7,8 L6,82 L5,94 L5,111 L6,129 L6,223 L5,240 L3,243 L-4,243 L-29,239 L-48,230 L-58,223 L-69,215 L-82,201 L-91,187 L-99,170 L-101,164 L-104,148 L-104,118 L-101,106 L-95,90 L-86,74 L-80,66 L-72,56 L-62,49 L-51,41 L-33,33 L-28,31 L-3,26 L0,23 L-1,16 L-5,14 L-19,15 L-39,21 L-55,28 L-71,38 L-88,55 L-94,63 L-102,76 L-106,84 L-110,94 L-115,112 L-116,123 L-116,144 L-114,159 L-111,172 L-103,191 L-95,205 L-84,219 L-79,223 L-75,227 L-65,235 L-46,246 L-24,253 L-3,256 L3,259 L4,260 L4,267 L1,269 L-7,269 L-15,267 L-27,265 L-39,262 L-52,256 L-62,252 L-75,243 L-86,235 L-101,220 L-113,200 L-117,193 L-122,181 L-127,164 L-130,143 L-130,123 L-127,106 L-122,87 L-113,68 L-106,57 L-99,48 L-94,43 L-83,32 L-77,28 L-75,28 L-73,24 L-55,14 L-36,6 L-9,1 Z M-50,196 L-53,200 L-51,205 L-50,206 L-43,205 L-42,200 L-45,196 Z " fill="#000000" transform="translate(1076,355)"/>
<path d="M0,0 L26,0 L34,2 L43,3 L63,11 L77,19 L87,27 L96,36 L106,49 L114,65 L118,76 L122,95 L122,121 L118,142 L111,158 L104,168 L91,184 L82,193 L71,200 L66,203 L53,209 L39,213 L30,215 L9,216 L-10,214 L-29,207 L-44,199 L-55,191 L-65,181 L-73,171 L-79,161 L-87,145 L-92,126 L-93,120 L-93,96 L-90,81 L-85,67 L-81,57 L-75,47 L-68,38 L-64,33 L-53,24 L-46,18 L-36,12 L-24,7 L-14,3 L-3,1 Z " fill="#000000" transform="translate(590,378)"/>
<path d="M0,0 L7,2 L8,3 L9,17 L10,22 L10,30 L9,38 L10,48 L9,56 L2,58 L0,58 Z " fill="#000000" transform="translate(0,655)"/>
<path d="M0,0 L5,1 L9,6 L9,86 L8,97 L6,98 L0,97 L0,14 L3,12 L2,8 L0,7 Z " fill="#000000" transform="translate(0,723)"/>
<path d="M0,0 L6,0 L7,1 L7,68 L3,72 L7,74 L7,82 L8,86 L5,89 L3,91 L7,96 L8,102 L8,121 L6,124 L6,137 L7,141 L7,216 L5,272 L0,278 L-1,278 L-1,109 L1,107 L1,102 L-1,101 L-1,1 Z " fill="#000000" transform="translate(1,824)"/>
</svg>
