<?xml version="1.0" encoding="UTF-8"?>
<!-- Generator: visioncortex VTracer 0.6.12 -->
<svg version="1.1" xmlns="http://www.w3.org/2000/svg" width="1005" height="1008">
<path d="M0,0 L825,0 L825,2 L836,5 L845,9 L853,12 L859,17 L866,21 L879,31 L887,38 L895,46 L903,57 L915,76 L919,85 L919,88 L921,88 L921,909 L919,909 L918,920 L914,929 L910,936 L908,942 L900,956 L895,962 L891,969 L885,974 L880,979 L868,989 L859,995 L853,999 L841,1006 L839,1006 L839,1008 L793,1008 L796,1005 L809,1004 L822,999 L834,995 L849,987 L854,984 L866,975 L875,967 L880,962 L893,943 L899,931 L903,921 L907,912 L910,896 L911,893 L913,872 L913,824 L914,802 L914,606 L915,506 L915,445 L916,374 L916,326 L917,294 L917,127 L914,109 L909,94 L901,76 L893,63 L881,49 L878,45 L878,43 L873,41 L865,34 L856,28 L854,24 L844,22 L835,18 L823,13 L811,10 L794,8 L776,6 L751,6 L744,5 L741,6 L712,6 L701,5 L609,4 L482,4 L449,3 L272,3 L265,2 L263,3 L52,3 L29,7 L11,11 L-2,16 L-16,23 L-27,31 L-33,35 L-42,43 L-47,49 L-52,54 L-59,64 L-67,80 L-71,87 L-75,100 L-77,106 L-79,119 L-80,128 L-80,217 L-81,364 L-81,455 L-82,480 L-84,482 L-84,82 L-82,82 L-79,73 L-73,62 L-65,51 L-61,45 L-58,40 L-50,33 L-45,28 L-40,24 L-28,16 L-22,11 L-13,7 L-1,1 Z " fill="#000000" transform="translate(84,0)"/>
<path d="M0,0 L7,1 L9,4 L10,31 L13,35 L28,36 L33,39 L35,42 L35,54 L32,59 L28,60 L-36,60 L-40,58 L-42,54 L-42,21 L-39,17 L-20,16 L-17,14 L-15,3 L-13,1 Z " fill="#000000" transform="translate(843,74)"/>
<path d="M0,0 L52,0 L57,4 L58,12 L58,35 L60,39 L82,40 L112,40 L120,38 L121,33 L122,5 L125,1 L148,0 L159,1 L166,0 L176,0 L179,1 L181,6 L181,124 L180,169 L179,249 L177,254 L175,255 L163,256 L76,256 L59,255 L8,255 L-4,254 L-7,248 L-7,172 L-6,164 L-6,77 L-5,55 L-4,5 L-2,1 Z M77,91 L65,94 L51,102 L44,108 L37,116 L31,126 L26,142 L26,165 L31,178 L36,187 L45,198 L61,208 L72,212 L96,212 L111,208 L116,204 L128,197 L137,187 L143,177 L146,168 L147,163 L147,143 L145,134 L142,124 L138,118 L134,112 L131,109 L125,101 L116,98 L106,93 L99,91 Z " fill="#000000" transform="translate(697,149)"/>
<path d="M0,0 L2,0 L1,2 Z " fill="#000000" transform="translate(312,151)"/>
<path d="M0,0 L7,0 L14,3 L34,4 L42,7 L60,10 L81,13 L85,15 L95,16 L100,20 L100,30 L98,42 L96,56 L95,61 L95,84 L97,91 L104,99 L113,104 L127,106 L131,108 L151,112 L172,116 L185,119 L201,122 L210,125 L222,126 L231,129 L255,134 L276,138 L281,140 L297,143 L301,146 L301,155 L299,161 L296,176 L293,181 L289,182 L280,180 L278,179 L261,177 L252,177 L242,174 L220,172 L215,170 L197,168 L171,164 L158,162 L137,159 L125,156 L95,153 L78,150 L45,145 L43,144 L17,141 L5,137 L-3,132 L-11,125 L-17,116 L-22,103 L-23,99 L-23,85 L-19,66 L-13,41 L-10,28 L-5,7 L-2,1 Z " fill="#000000" transform="translate(140,182)"/>
<path d="M0,0 L7,1 L21,3 L35,7 L47,9 L60,12 L62,13 L74,15 L83,17 L84,19 L84,30 L82,35 L80,43 L78,47 L73,48 L68,47 L42,43 L27,41 L17,39 L3,38 L-6,35 L-8,33 L-8,26 L-5,9 L-3,2 Z " fill="#000000" transform="translate(474,334)"/>
<path d="M0,0 L7,0 L21,5 L47,12 L52,14 L70,18 L75,20 L95,24 L101,26 L112,27 L116,29 L136,33 L147,35 L161,37 L163,38 L185,41 L208,45 L216,46 L217,49 L212,51 L190,53 L186,54 L162,56 L148,59 L129,59 L105,55 L80,49 L65,46 L50,42 L33,37 L27,36 L24,38 L22,43 L20,67 L16,72 L11,74 L-6,75 L-8,73 L-8,63 L-4,19 L-2,10 L-1,1 Z " fill="#000000" transform="translate(283,417)"/>
<path d="M0,0 L16,0 L20,8 L21,25 L23,37 L26,65 L27,80 L29,89 L31,109 L32,113 L33,130 L35,139 L36,160 L39,181 L40,193 L42,206 L46,238 L47,242 L50,272 L52,295 L55,322 L59,352 L61,374 L63,386 L70,402 L74,407 L78,414 L83,419 L94,429 L102,434 L114,438 L117,440 L140,442 L160,438 L176,430 L186,424 L199,411 L206,398 L210,389 L212,381 L215,358 L216,356 L218,326 L221,299 L223,280 L224,266 L226,248 L228,226 L230,210 L233,169 L235,146 L236,120 L238,110 L240,82 L242,65 L245,43 L249,39 L263,40 L268,43 L269,45 L269,56 L268,59 L266,92 L263,114 L260,155 L255,207 L253,232 L250,266 L248,279 L244,326 L241,350 L239,371 L237,380 L235,393 L230,407 L218,427 L207,439 L200,445 L198,445 L198,447 L189,453 L177,460 L158,466 L142,468 L-6,468 L-29,467 L-120,467 L-129,466 L-261,466 L-342,465 L-392,465 L-434,464 L-459,463 L-478,457 L-495,449 L-509,439 L-523,425 L-530,414 L-535,404 L-541,388 L-544,376 L-546,354 L-547,351 L-549,322 L-550,318 L-553,287 L-555,262 L-557,238 L-559,227 L-560,209 L-562,201 L-564,181 L-566,164 L-567,161 L-569,138 L-571,128 L-573,111 L-574,106 L-575,89 L-576,82 L-576,73 L-572,69 L-537,65 L-528,63 L-512,62 L-504,60 L-486,59 L-470,57 L-458,56 L-457,55 L-449,55 L-442,53 L-435,53 L-425,51 L-415,49 L-391,47 L-376,44 L-361,42 L-351,41 L-338,40 L-336,39 L-311,36 L-303,35 L-295,35 L-293,34 L-268,32 L-249,29 L-231,27 L-216,26 L-213,24 L-191,23 L-184,23 L-181,21 L-141,17 L-134,15 L-112,14 L-96,11 L-79,10 L-75,9 L-53,7 L-34,5 L-29,3 L-8,2 Z M-18,27 L-31,28 L-38,29 L-55,32 L-72,33 L-81,35 L-106,37 L-128,40 L-131,41 L-150,42 L-156,44 L-180,46 L-182,47 L-205,50 L-218,51 L-220,52 L-254,55 L-270,57 L-292,60 L-304,61 L-306,62 L-319,63 L-334,65 L-349,67 L-385,72 L-399,73 L-403,74 L-416,75 L-434,78 L-450,80 L-470,83 L-491,85 L-502,87 L-528,90 L-542,93 L-544,95 L-544,114 L-541,138 L-538,162 L-536,173 L-534,194 L-530,219 L-526,266 L-524,282 L-522,304 L-521,309 L-519,341 L-516,364 L-510,384 L-501,398 L-495,406 L-488,414 L-480,421 L-469,427 L-454,435 L-437,438 L-408,439 L-381,439 L-340,440 L-196,440 L-146,441 L-89,441 L-11,442 L58,442 L60,441 L60,435 L48,419 L42,408 L37,394 L36,391 L34,372 L32,357 L29,325 L27,313 L26,296 L24,287 L22,268 L20,247 L16,214 L14,192 L12,184 L10,166 L9,162 L7,143 L5,133 L3,112 L0,91 L-2,73 L-4,55 L-6,38 L-8,31 L-13,27 Z " fill="#000000" transform="translate(637,462)"/>
<path d="M0,0 L11,0 L15,4 L17,21 L18,24 L20,48 L21,52 L24,83 L26,104 L29,128 L31,143 L35,174 L36,177 L38,199 L43,233 L45,253 L48,274 L53,324 L55,345 L58,371 L60,377 L64,383 L69,386 L77,386 L83,383 L88,379 L90,379 L92,371 L95,350 L96,328 L97,325 L101,287 L102,271 L104,257 L108,208 L111,180 L111,168 L112,164 L114,134 L115,129 L117,94 L119,78 L119,66 L104,64 L89,63 L83,62 L43,58 L38,54 L35,41 L36,36 L37,35 L50,35 L66,37 L73,38 L84,38 L88,39 L111,41 L123,43 L143,43 L148,46 L149,48 L149,63 L147,81 L142,137 L140,167 L139,173 L138,192 L137,196 L132,256 L129,292 L123,345 L121,359 L120,374 L117,386 L109,400 L104,405 L88,413 L83,414 L67,414 L57,410 L48,405 L42,398 L39,396 L33,382 L30,360 L23,288 L21,275 L19,250 L15,224 L10,186 L6,157 L5,144 L3,137 L1,111 L-2,92 L-11,12 L-10,3 L-9,2 Z " fill="#000000" transform="translate(699,455)"/>
<path d="M0,0 L2,2 L2,8 L0,9 Z " fill="#000000" transform="translate(0,499)"/>
<path d="M0,0 L2,0 L4,10 L8,26 L12,37 L23,58 L29,67 L36,74 L43,82 L56,93 L63,97 L77,104 L88,108 L91,110 L101,112 L113,115 L123,116 L225,117 L242,118 L270,117 L293,118 L348,118 L366,119 L458,119 L502,120 L510,119 L520,120 L545,120 L568,121 L582,121 L583,123 L91,123 L91,121 L86,120 L82,118 L74,116 L58,108 L43,98 L36,91 L28,84 L24,80 L21,75 L8,57 L1,44 L0,43 Z " fill="#000000" transform="translate(0,885)"/>
<path d="M0,0 L18,0 L21,2 L-3,2 Z " fill="#000000" transform="translate(591,1006)"/>
<path d="M0,0 L23,1 L24,3 L-25,3 L-24,1 Z " fill="#000000" transform="translate(641,1005)"/>
<path d="M0,0 L6,1 L6,2 L-2,2 Z " fill="#000000" transform="translate(679,1006)"/>
<path d="M0,0 L4,1 L4,2 L-2,2 Z " fill="#000000" transform="translate(688,1006)"/>
<path d="M0,0 L4,0 L4,2 L0,2 Z " fill="#000000" transform="translate(728,1006)"/>
<path d="M0,0 L3,1 L-1,2 Z " fill="#000000" transform="translate(740,1006)"/>
<path d="M0,0 L4,1 L4,2 L-1,2 Z " fill="#000000" transform="translate(857,1006)"/>
</svg>
