<?xml version="1.0" encoding="UTF-8"?>
<!-- Generator: visioncortex VTracer 0.6.12 -->
<svg version="1.1" xmlns="http://www.w3.org/2000/svg" width="816" height="1137">
<path d="M0,0 L11,0 L33,3 L45,9 L59,19 L67,28 L77,45 L81,59 L82,68 L82,84 L77,99 L72,111 L61,124 L50,133 L35,141 L20,145 L3,145 L-13,141 L-28,136 L-40,127 L-49,117 L-59,99 L-64,85 L-65,69 L-61,49 L-57,39 L-52,31 L-49,27 L-47,27 L-45,22 L-36,14 L-22,6 L-11,2 Z M13,27 L-4,29 L-13,33 L-23,40 L-31,48 L-35,56 L-38,68 L-38,81 L-35,91 L-27,103 L-22,107 L-8,115 L2,117 L20,117 L34,111 L42,105 L49,96 L53,88 L56,78 L56,70 L53,55 L46,43 L43,42 L43,40 L30,31 L23,28 Z " fill="#000000" transform="translate(396,31)"/>
<path d="M0,0 L13,0 L25,2 L40,8 L52,17 L59,24 L66,34 L72,48 L75,61 L75,77 L71,93 L66,103 L59,113 L51,120 L44,126 L36,131 L14,136 L0,136 L-16,132 L-33,124 L-43,115 L-52,106 L-55,98 L-60,83 L-61,61 L-59,49 L-55,38 L-53,33 L-49,28 L-44,21 L-42,21 L-42,19 L-37,15 L-33,11 L-14,2 L-11,1 Z M1,28 L-12,32 L-21,39 L-27,46 L-31,52 L-33,61 L-33,70 L-31,84 L-27,92 L-17,102 L-7,107 L2,109 L16,109 L33,100 L40,94 L47,82 L48,78 L48,62 L46,53 L38,42 L29,34 L17,29 L14,28 Z " fill="#000000" transform="translate(626,91)"/>
<path d="M0,0 L72,0 L78,3 L78,5 L81,6 L89,20 L93,27 L101,43 L109,58 L115,66 L119,74 L123,81 L127,82 L131,78 L141,57 L146,45 L156,24 L163,9 L165,5 L173,1 L218,1 L253,2 L264,3 L276,7 L292,16 L303,26 L309,36 L314,52 L316,63 L318,68 L321,70 L331,71 L346,71 L390,72 L423,72 L449,74 L461,78 L473,84 L480,90 L488,101 L494,111 L498,124 L500,131 L501,139 L503,192 L504,214 L504,318 L503,407 L500,416 L496,418 L489,419 L473,419 L464,423 L463,424 L463,436 L469,479 L473,504 L475,514 L477,535 L480,549 L484,584 L485,588 L487,611 L491,635 L493,646 L495,662 L503,713 L507,744 L506,753 L502,756 L498,757 L440,757 L416,758 L414,767 L413,777 L412,810 L412,874 L411,893 L409,899 L407,902 L404,903 L380,904 L363,903 L357,900 L354,893 L354,791 L355,693 L357,678 L361,675 L364,674 L392,673 L399,671 L401,666 L402,656 L402,635 L403,597 L404,528 L404,444 L403,426 L400,413 L394,400 L383,393 L373,388 L366,387 L357,387 L350,386 L345,387 L328,386 L239,386 L223,390 L213,395 L206,402 L201,411 L197,422 L196,432 L195,472 L195,551 L194,564 L194,660 L196,667 L200,669 L220,670 L227,672 L231,679 L232,695 L232,727 L231,799 L230,817 L230,885 L228,897 L225,900 L220,902 L202,903 L149,902 L143,899 L140,894 L139,863 L140,833 L139,791 L140,703 L140,499 L138,484 L135,481 L125,479 L117,481 L115,483 L114,512 L113,585 L113,863 L112,893 L110,898 L105,901 L100,902 L37,901 L31,904 L23,903 L20,902 L1,901 L-7,896 L-10,890 L-10,811 L-11,761 L-11,696 L-12,589 L-15,581 L-18,580 L-28,580 L-33,583 L-34,586 L-34,656 L-33,715 L-33,773 L-34,787 L-38,792 L-42,794 L-66,796 L-71,798 L-73,803 L-74,809 L-73,840 L-74,843 L-74,885 L-76,895 L-79,898 L-85,900 L-143,899 L-149,896 L-151,893 L-152,845 L-152,807 L-155,798 L-161,795 L-184,794 L-246,794 L-251,789 L-250,781 L-243,752 L-237,732 L-234,719 L-227,695 L-219,665 L-215,651 L-212,639 L-207,620 L-204,607 L-201,599 L-194,572 L-191,563 L-187,546 L-186,538 L-182,530 L-177,513 L-172,508 L-106,508 L-52,509 L-28,509 L-19,508 L-15,506 L-13,502 L-12,483 L-12,452 L-13,383 L-13,322 L-14,277 L-15,253 L-15,234 L-20,234 L-33,272 L-40,292 L-44,303 L-52,333 L-58,357 L-63,372 L-65,381 L-65,394 L-58,408 L-53,420 L-51,436 L-52,450 L-60,467 L-67,476 L-74,483 L-88,491 L-99,494 L-105,495 L-125,495 L-136,491 L-148,484 L-159,474 L-165,464 L-168,459 L-170,451 L-172,433 L-170,418 L-164,402 L-152,386 L-147,374 L-141,353 L-136,336 L-133,324 L-128,308 L-122,287 L-118,274 L-113,255 L-108,237 L-100,209 L-93,183 L-86,158 L-82,144 L-75,119 L-70,105 L-65,84 L-58,59 L-54,46 L-47,34 L-35,19 L-30,14 L-28,14 L-28,12 L-13,4 Z M291,234 L279,237 L264,245 L253,255 L247,264 L242,276 L240,289 L241,302 L247,320 L254,331 L262,338 L268,342 L277,348 L287,352 L311,352 L329,346 L341,338 L345,333 L350,329 L358,312 L360,306 L361,290 L359,278 L355,269 L350,259 L344,252 L339,248 L334,243 L320,236 L310,234 Z M-119,400 L-129,404 L-138,411 L-145,420 L-148,430 L-148,443 L-144,454 L-139,459 L-129,467 L-121,470 L-105,470 L-95,467 L-85,459 L-79,451 L-75,441 L-76,427 L-83,413 L-94,404 L-105,400 Z " fill="#000000" transform="translate(281,191)"/>
</svg>
