<?xml version="1.0" encoding="UTF-8"?>
<!-- Generator: visioncortex VTracer 0.6.12 -->
<svg version="1.1" xmlns="http://www.w3.org/2000/svg" width="1134" height="1134">
<path d="M0,0 L9,0 L8,9 L7,64 L6,215 L6,320 L5,353 L5,395 L4,487 L4,551 L3,679 L3,706 L0,709 Z " fill="#000000" transform="translate(0,0)"/>
<path d="M0,0 L7,0 L4,2 Z " fill="#000000" transform="translate(940,0)"/>
<path d="M0,0 L10,0 L10,1 L2,2 Z " fill="#000000" transform="translate(954,0)"/>
<path d="M0,0 L14,0 L12,2 L4,3 L0,1 Z " fill="#000000" transform="translate(1020,0)"/>
<path d="M0,0 L2,1 Z " fill="#000000" transform="translate(1035,0)"/>
<path d="M0,0 L7,0 L5,2 L0,1 Z " fill="#000000" transform="translate(1054,0)"/>
<path d="M0,0 L11,0 L11,1 L2,2 Z " fill="#000000" transform="translate(1069,0)"/>
<path d="M0,0 L43,0 L42,2 L2,2 Z " fill="#000000" transform="translate(1087,0)"/>
<path d="M0,0 L72,0 L76,3 L74,8 L65,17 L58,26 L53,31 L35,49 L28,57 L21,64 L16,69 L0,86 L-11,98 L-18,106 L-25,112 L-30,117 L-36,124 L-41,129 L-46,134 L-53,142 L-66,155 L-72,163 L-77,168 L-99,190 L-107,200 L-123,216 L-125,219 L-125,224 L-109,226 L-46,226 L-40,225 L-37,226 L47,226 L67,227 L69,229 L69,234 L63,241 L56,249 L52,251 L50,255 L45,261 L40,266 L24,282 L19,287 L10,297 L-1,309 L-10,319 L-26,336 L-36,346 L-41,352 L-43,352 L-45,356 L-47,356 L-49,360 L-59,370 L-66,378 L-79,392 L-86,400 L-98,412 L-105,420 L-116,432 L-123,439 L-124,445 L-122,446 L-107,447 L-48,447 L-33,448 L21,448 L74,449 L77,452 L76,458 L70,465 L66,468 L64,468 L63,471 L55,478 L50,482 L45,487 L38,494 L33,499 L26,506 L18,513 L15,516 L13,516 L11,520 L7,522 L5,526 L-10,540 L-20,550 L-28,557 L-41,569 L-46,574 L-53,581 L-58,586 L-68,595 L-76,602 L-81,607 L-93,618 L-105,630 L-112,636 L-116,641 L-124,648 L-139,662 L-146,669 L-154,676 L-163,685 L-171,692 L-189,710 L-199,718 L-206,726 L-212,731 L-217,736 L-224,743 L-232,750 L-246,764 L-251,769 L-256,773 L-263,781 L-273,790 L-280,798 L-288,805 L-298,815 L-306,822 L-320,836 L-328,843 L-339,854 L-347,861 L-358,872 L-360,872 L-361,875 L-368,881 L-372,886 L-380,893 L-406,919 L-411,922 L-416,921 L-417,916 L-412,908 L-403,897 L-394,886 L-385,876 L-379,868 L-374,863 L-362,849 L-355,840 L-353,840 L-351,836 L-344,827 L-334,816 L-325,805 L-317,796 L-312,789 L-310,789 L-308,785 L-299,775 L-292,766 L-286,759 L-281,754 L-273,744 L-266,736 L-258,726 L-250,715 L-245,711 L-235,698 L-230,693 L-218,680 L-207,666 L-200,659 L-195,652 L-193,652 L-191,648 L-179,634 L-172,625 L-167,620 L-158,609 L-147,597 L-140,589 L-132,579 L-121,566 L-117,561 L-112,556 L-105,548 L-95,537 L-85,524 L-80,518 L-79,511 L-180,510 L-235,510 L-266,509 L-271,505 L-270,500 L-259,488 L-251,478 L-247,474 L-245,474 L-243,469 L-231,457 L-226,452 L-212,437 L-205,429 L-200,424 L-194,417 L-189,412 L-176,399 L-169,391 L-162,384 L-155,376 L-148,369 L-139,358 L-133,353 L-127,346 L-123,342 L-116,334 L-108,325 L-103,321 L-94,310 L-85,301 L-79,293 L-79,291 L-81,290 L-164,289 L-264,289 L-270,286 L-269,279 L-260,269 L-251,258 L-244,251 L-239,246 L-228,234 L-219,225 L-214,219 L-208,214 L-201,206 L-193,197 L-188,193 L-181,185 L-173,177 L-168,172 L-164,167 L-157,161 L-151,153 L-149,153 L-147,149 L-125,127 L-118,119 L-109,111 L-102,103 L-97,97 L-90,91 L-85,85 L-80,80 L-69,69 L-62,61 L-57,55 L-49,48 L-33,31 L-27,25 L-25,25 L-23,21 L-15,13 L-8,5 L-3,1 Z " fill="#000000" transform="translate(744,103)"/>
<path d="M0,0 L1,4 Z " fill="#000000" transform="translate(0,731)"/>
<path d="M0,0 Z " fill="#000000" transform="translate(0,742)"/>
<path d="M0,0 L2,0 L1,4 Z " fill="#000000" transform="translate(0,771)"/>
</svg>
