<?xml version="1.0" encoding="UTF-8"?>
<!-- Generator: visioncortex VTracer 0.6.12 -->
<svg version="1.1" xmlns="http://www.w3.org/2000/svg" width="1017" height="996">
<path d="M0,0 L7,0 L6,15 L6,67 L5,105 L5,145 L3,377 L3,400 L2,450 L0,452 Z " fill="#000000" transform="translate(0,0)"/>
<path d="M0,0 L12,0 L11,2 L1,2 Z " fill="#000000" transform="translate(682,0)"/>
<path d="M0,0 L79,0 L77,2 L1,2 Z " fill="#000000" transform="translate(729,0)"/>
<path d="M0,0 L207,0 L207,5 L202,4 L73,3 L2,2 Z " fill="#000000" transform="translate(810,0)"/>
<path d="M0,0 L13,1 L66,1 L72,2 L86,0 L98,0 L121,1 L126,4 L128,11 L129,52 L128,80 L128,238 L129,254 L128,261 L128,314 L129,344 L128,392 L128,445 L127,505 L127,615 L126,622 L126,663 L125,697 L125,737 L124,763 L124,771 L122,775 L106,779 L100,779 L95,778 L86,779 L75,778 L37,778 L5,777 L-7,775 L-10,770 L-11,759 L-11,745 L-10,730 L-11,697 L-10,691 L-10,641 L-9,632 L-9,429 L-8,281 L-8,106 L-7,93 L-7,26 L-6,9 L-3,2 Z " fill="#000000" transform="translate(176,100)"/>
<path d="M0,0 L11,0 L21,1 L50,2 L113,2 L118,7 L120,29 L120,117 L119,129 L119,236 L118,290 L118,353 L117,372 L118,428 L117,441 L117,466 L116,473 L116,482 L117,489 L116,518 L116,568 L115,588 L115,660 L114,700 L113,707 L114,716 L114,725 L113,736 L112,769 L109,776 L104,779 L96,779 L91,776 L86,777 L84,778 L23,778 L17,777 L14,778 L-16,778 L-21,773 L-22,771 L-23,762 L-23,721 L-22,654 L-21,569 L-20,556 L-21,551 L-20,511 L-19,503 L-20,498 L-20,416 L-19,360 L-18,300 L-19,292 L-18,246 L-18,155 L-17,133 L-18,115 L-17,108 L-17,32 L-16,11 L-14,4 L-12,2 Z " fill="#000000" transform="translate(728,103)"/>
<path d="M0,0 L7,1 L12,5 L16,10 L16,12 L20,14 L30,25 L37,33 L46,43 L55,53 L62,61 L62,63 L64,63 L73,74 L82,85 L87,90 L95,99 L104,110 L111,118 L120,127 L126,135 L135,145 L140,151 L140,153 L144,155 L155,169 L154,174 L152,176 L136,177 L90,177 L71,178 L68,188 L68,219 L67,279 L67,501 L71,509 L74,510 L91,510 L101,511 L132,512 L146,513 L150,515 L149,521 L141,531 L130,543 L125,547 L119,555 L112,564 L104,570 L98,578 L86,591 L79,599 L73,606 L68,611 L58,621 L51,629 L41,639 L38,644 L30,651 L25,656 L20,661 L10,672 L4,679 L1,681 L-7,681 L-13,674 L-18,668 L-23,663 L-28,658 L-33,652 L-37,648 L-44,640 L-53,630 L-53,628 L-57,626 L-67,613 L-81,599 L-88,591 L-100,578 L-108,567 L-119,555 L-119,553 L-123,551 L-133,538 L-142,528 L-150,519 L-150,514 L-146,510 L-133,510 L-127,512 L-122,510 L-110,510 L-108,511 L-102,511 L-95,510 L-81,510 L-72,506 L-69,499 L-68,489 L-67,426 L-66,345 L-66,284 L-67,216 L-68,183 L-71,178 L-74,176 L-123,175 L-145,174 L-150,171 L-148,165 L-143,160 L-133,147 L-124,138 L-117,130 L-106,118 L-100,111 L-91,99 L-89,99 L-87,95 L-77,84 L-71,76 L-67,71 L-62,67 L-55,59 L-49,51 L-33,34 L-24,24 L-18,16 L-10,9 L-5,4 Z " fill="#000000" transform="translate(504,151)"/>
<path d="M0,0 L1,0 L1,5 L0,5 Z " fill="#000000" transform="translate(1016,389)"/>
<path d="M0,0 L1,0 L1,558 L-11,558 L-7,550 L-6,535 L-5,496 L-5,437 L-4,421 L-5,392 L-3,367 L-4,311 L-3,296 L-2,77 L-1,8 Z " fill="#000000" transform="translate(1016,438)"/>
<path d="M0,0 L2,2 L2,9 L0,10 Z " fill="#000000" transform="translate(0,453)"/>
<path d="M0,0 L2,3 L1,6 L0,6 Z " fill="#000000" transform="translate(0,467)"/>
<path d="M0,0 Z " fill="#000000" transform="translate(0,506)"/>
<path d="M0,0 L8,2 L29,3 L75,4 L144,4 L173,5 L217,5 L232,6 L242,6 L251,8 L253,6 L274,6 L363,7 L364,10 L0,10 Z " fill="#000000" transform="translate(0,986)"/>
<path d="M0,0 L73,0 L77,2 L77,3 L-1,3 Z " fill="#000000" transform="translate(371,993)"/>
<path d="M0,0 L15,1 L16,3 L-17,3 L-17,1 L-5,1 Z " fill="#000000" transform="translate(492,993)"/>
<path d="M0,0 L4,2 L-2,2 Z " fill="#000000" transform="translate(452,994)"/>
<path d="M0,0 L3,1 L3,3 L-7,3 L-6,1 Z " fill="#000000" transform="translate(465,993)"/>
<path d="M0,0 L19,0 L21,2 L-1,2 Z " fill="#000000" transform="translate(513,994)"/>
<path d="M0,0 L4,1 L4,2 L-1,2 Z " fill="#000000" transform="translate(601,994)"/>
<path d="M0,0 L6,0 L7,2 L-1,2 Z " fill="#000000" transform="translate(613,994)"/>
<path d="M0,0 L5,0 L5,1 L0,1 Z " fill="#000000" transform="translate(553,995)"/>
</svg>
