<?xml version="1.0" encoding="UTF-8"?>
<!-- Generator: visioncortex VTracer 0.6.12 -->
<svg version="1.1" xmlns="http://www.w3.org/2000/svg" width="1128" height="1122">
<path d="M0,0 L31,0 L28,3 L15,7 L4,11 L-11,20 L-22,28 L-28,32 L-34,39 L-39,44 L-47,54 L-55,67 L-59,76 L-65,97 L-67,107 L-69,137 L-69,171 L-71,179 L-72,179 L-72,79 L-67,67 L-63,60 L-56,49 L-48,38 L-31,21 L-17,11 L-4,3 L0,2 Z " fill="#000000" transform="translate(72,0)"/>
<path d="M0,0 L32,0 L32,2 L38,4 L47,9 L65,23 L70,28 L75,33 L84,44 L93,59 L98,69 L105,91 L108,102 L111,120 L112,137 L113,141 L115,172 L115,522 L114,666 L113,875 L113,926 L112,940 L112,984 L109,1010 L107,1024 L100,1043 L92,1059 L82,1073 L66,1090 L57,1098 L49,1104 L40,1110 L26,1117 L18,1122 L-30,1122 L-30,1120 L-3,1118 L17,1110 L33,1102 L43,1095 L53,1088 L63,1080 L70,1073 L77,1063 L86,1049 L92,1038 L97,1022 L100,1010 L102,990 L103,975 L103,927 L104,773 L104,711 L105,629 L105,245 L104,160 L100,121 L97,101 L85,65 L78,53 L70,42 L65,38 L59,31 L45,21 L36,15 L22,8 L11,4 L1,2 Z " fill="#000000" transform="translate(1009,0)"/>
<path d="M0,0 L8,0 L19,4 L28,10 L41,25 L49,35 L62,51 L71,62 L81,73 L87,81 L95,91 L104,101 L112,112 L121,122 L131,135 L138,147 L139,150 L139,168 L134,181 L126,188 L114,194 L105,195 L95,193 L85,187 L82,180 L76,176 L66,164 L61,158 L58,153 L47,140 L45,135 L40,135 L39,137 L39,214 L40,287 L39,306 L37,315 L32,323 L22,334 L15,337 L4,340 L-5,340 L-21,335 L-27,330 L-34,321 L-38,312 L-39,307 L-39,272 L-37,188 L-36,160 L-37,135 L-42,136 L-49,144 L-60,158 L-70,170 L-79,182 L-86,188 L-96,193 L-112,193 L-120,190 L-129,184 L-134,176 L-137,169 L-138,163 L-138,155 L-135,146 L-131,138 L-119,124 L-110,113 L-108,113 L-106,108 L-97,98 L-88,87 L-77,74 L-68,63 L-60,54 L-53,46 L-44,35 L-36,26 L-29,18 L-20,8 L-10,2 Z " fill="#000000" transform="translate(416,74)"/>
<path d="M0,0 L8,0 L17,3 L26,9 L33,16 L38,24 L40,31 L40,85 L38,145 L37,147 L30,148 L31,151 L37,154 L38,205 L43,205 L52,194 L65,178 L73,166 L84,154 L89,150 L99,146 L113,146 L125,151 L130,155 L136,163 L139,172 L139,183 L136,195 L130,204 L122,213 L113,224 L105,233 L97,243 L88,253 L81,262 L71,274 L66,279 L61,281 L59,286 L54,295 L49,300 L36,315 L29,324 L20,332 L15,335 L5,340 L-11,339 L-23,333 L-34,322 L-40,314 L-46,306 L-56,295 L-60,290 L-60,288 L-63,287 L-73,274 L-79,267 L-83,261 L-92,252 L-98,244 L-109,231 L-118,220 L-126,210 L-132,202 L-137,193 L-138,189 L-138,175 L-135,165 L-129,156 L-119,150 L-113,147 L-97,146 L-85,153 L-77,161 L-70,170 L-59,184 L-49,197 L-43,205 L-38,206 L-37,190 L-39,79 L-39,51 L-38,32 L-33,19 L-24,9 L-15,3 Z " fill="#000000" transform="translate(710,76)"/>
<path d="M0,0 L2,0 L3,25 L3,49 L2,87 L1,96 L0,96 Z " fill="#000000" transform="translate(0,183)"/>
<path d="M0,0 L1,0 L1,9 L0,9 Z " fill="#000000" transform="translate(0,311)"/>
<path d="M0,0 L2,1 L3,18 L2,29 L2,47 L0,48 Z " fill="#000000" transform="translate(0,336)"/>
<path d="M0,0 L1,0 L1,5 L0,5 Z " fill="#000000" transform="translate(0,411)"/>
<path d="M0,0 Z " fill="#000000" transform="translate(0,425)"/>
<path d="M0,0 L2,4 L2,34 L0,35 Z " fill="#000000" transform="translate(0,442)"/>
<path d="M0,0 L155,0 L414,1 L431,4 L444,8 L456,14 L467,23 L477,35 L483,45 L487,55 L490,66 L491,78 L492,117 L491,124 L491,224 L490,309 L490,466 L489,505 L485,522 L481,531 L474,543 L465,552 L461,556 L450,563 L440,568 L424,572 L411,573 L210,573 L139,572 L-15,572 L-31,570 L-45,565 L-55,559 L-64,552 L-73,543 L-80,532 L-85,522 L-89,506 L-90,502 L-90,456 L-89,349 L-89,324 L-88,252 L-88,99 L-87,67 L-84,54 L-76,38 L-67,25 L-56,15 L-42,7 L-29,3 L-16,1 Z M83,35 L83,37 L85,37 L85,35 Z M5,76 L-7,77 L-11,81 L-11,210 L-12,348 L-12,492 L-7,496 L14,497 L300,497 L407,496 L411,491 L412,447 L413,306 L414,119 L414,83 L410,78 L408,77 L230,77 L131,76 Z " fill="#000000" transform="translate(360,443)"/>
<path d="M0,0 L12,0 L20,6 L25,12 L28,19 L28,30 L24,38 L19,43 L14,47 L3,48 L-4,46 L-12,40 L-17,33 L-18,30 L-18,16 L-14,9 L-5,2 Z " fill="#000000" transform="translate(428,580)"/>
<path d="M0,0 L12,0 L21,6 L27,13 L29,17 L29,30 L24,40 L18,45 L11,49 L-1,48 L-10,43 L-16,36 L-19,22 L-16,13 L-11,6 Z " fill="#000000" transform="translate(556,580)"/>
<path d="M0,0 L12,0 L21,3 L29,14 L30,18 L30,29 L26,37 L20,44 L13,47 L0,47 L-11,40 L-17,31 L-17,18 L-13,10 L-6,3 Z " fill="#000000" transform="translate(684,581)"/>
<path d="M0,0 L49,0 L65,1 L74,6 L78,14 L79,17 L79,119 L76,128 L66,133 L56,135 L55,137 L54,166 L54,211 L53,256 L52,273 L49,278 L42,284 L35,285 L28,282 L22,274 L21,262 L21,135 L17,135 L15,141 L14,197 L14,241 L13,272 L8,280 L3,284 L-4,285 L-12,281 L-16,276 L-17,274 L-18,249 L-18,140 L-20,134 L-29,132 L-38,129 L-41,126 L-42,121 L-42,22 L-41,12 L-34,4 L-28,1 Z " fill="#000000" transform="translate(542,641)"/>
<path d="M0,0 L87,0 L97,3 L103,10 L105,15 L105,119 L102,128 L98,131 L83,134 L81,138 L80,170 L79,266 L77,274 L73,280 L68,283 L59,284 L53,280 L48,272 L47,137 L43,136 L41,140 L40,255 L39,272 L33,281 L26,284 L18,283 L11,277 L9,273 L8,254 L8,214 L9,164 L8,140 L6,134 L4,133 L-6,132 L-12,128 L-15,125 L-16,121 L-16,17 L-12,7 L-7,3 Z " fill="#000000" transform="translate(645,641)"/>
<path d="M0,0 L74,0 L83,4 L87,8 L89,14 L90,21 L90,115 L88,125 L81,131 L69,134 L66,137 L65,141 L64,210 L63,271 L58,279 L51,285 L43,285 L37,282 L33,274 L32,271 L32,137 L31,135 L27,135 L25,142 L25,178 L24,260 L22,273 L18,279 L12,283 L3,283 L-3,279 L-6,274 L-7,270 L-8,244 L-7,215 L-7,137 L-8,134 L-12,132 L-25,130 L-30,123 L-31,96 L-31,19 L-28,9 L-24,4 L-18,1 Z " fill="#000000" transform="translate(402,641)"/>
<path d="M0,0 L1,0 L1,9 L0,9 Z " fill="#000000" transform="translate(0,748)"/>
<path d="M0,0 L2,1 L8,26 L12,37 L14,44 L24,59 L30,68 L35,74 L35,76 L39,78 L50,87 L60,94 L71,101 L86,106 L104,110 L110,112 L117,112 L134,115 L134,116 L83,116 L80,114 L66,110 L56,105 L50,100 L36,90 L31,85 L23,77 L15,66 L4,48 L1,42 L0,41 Z " fill="#000000" transform="translate(0,1006)"/>
</svg>
