<?xml version="1.0" encoding="UTF-8"?>
<!-- Generator: visioncortex VTracer 0.6.12 -->
<svg version="1.1" xmlns="http://www.w3.org/2000/svg" width="1029" height="1011">
<path d="M0,0 L802,0 L807,1 L830,6 L846,13 L865,24 L871,29 L879,35 L891,46 L896,51 L902,58 L906,65 L913,75 L917,84 L917,86 L919,86 L919,904 L914,920 L908,935 L901,949 L890,965 L881,975 L877,980 L869,987 L858,995 L853,999 L843,1003 L833,1009 L831,1009 L831,1011 L1,1011 L-4,1008 L-17,1004 L-28,1000 L-33,997 L-40,994 L-48,988 L-53,985 L-66,974 L-80,959 L-84,953 L-91,942 L-96,932 L-101,922 L-103,915 L-107,905 L-109,891 L-110,890 L-110,846 L-109,844 L-109,835 L-110,831 L-110,824 L-109,822 L-108,772 L-107,709 L-106,699 L-107,687 L-107,610 L-106,574 L-106,556 L-105,519 L-104,446 L-102,376 L-101,314 L-101,249 L-100,241 L-100,219 L-99,174 L-98,156 L-98,140 L-95,111 L-91,97 L-86,83 L-82,73 L-76,64 L-69,54 L-62,44 L-60,44 L-58,40 L-47,29 L-37,21 L-28,15 L-19,10 L-9,4 Z M107,3 L54,4 L45,5 L35,6 L14,10 L-4,17 L-14,21 L-18,23 L-21,26 L-35,36 L-47,47 L-53,54 L-56,60 L-63,68 L-71,81 L-77,96 L-80,104 L-83,117 L-84,131 L-85,135 L-86,148 L-87,247 L-88,282 L-89,356 L-90,436 L-92,514 L-93,590 L-93,629 L-94,642 L-95,695 L-96,803 L-96,817 L-97,829 L-100,837 L-97,845 L-97,882 L-91,906 L-86,918 L-82,927 L-79,934 L-72,945 L-65,954 L-60,959 L-51,969 L-42,975 L-40,975 L-40,977 L-22,987 L-8,993 L5,997 L23,1000 L42,1001 L48,1002 L117,1002 L156,1003 L173,1003 L181,1004 L204,1003 L208,1004 L285,1005 L321,1005 L329,1006 L452,1006 L500,1007 L563,1008 L622,1008 L703,1009 L780,1009 L801,1006 L816,1001 L826,998 L835,994 L848,987 L862,976 L871,967 L878,959 L885,949 L889,943 L893,935 L897,926 L901,915 L906,898 L909,884 L910,860 L911,835 L911,783 L912,751 L913,675 L913,475 L914,425 L914,375 L916,290 L916,243 L917,181 L917,145 L915,119 L911,106 L910,98 L900,79 L893,67 L879,52 L873,45 L859,35 L845,27 L834,21 L816,15 L803,12 L779,11 L716,9 L666,9 L624,8 L541,8 L502,7 L426,6 L310,6 L242,5 L198,5 L178,4 L113,4 Z " fill="#000000" transform="translate(110,0)"/>
<path d="M0,0 L6,2 L14,9 L21,17 L31,26 L40,37 L45,42 L61,59 L68,66 L73,72 L81,79 L87,89 L87,103 L86,115 L86,126 L85,143 L83,145 L79,144 L74,139 L63,127 L56,119 L50,114 L43,106 L28,91 L23,92 L22,126 L22,158 L24,164 L34,166 L86,167 L138,168 L203,170 L268,171 L317,172 L321,177 L321,217 L319,302 L317,369 L316,421 L315,478 L315,497 L314,567 L314,585 L313,631 L312,648 L312,659 L311,681 L310,719 L308,734 L305,738 L284,738 L279,737 L270,738 L261,737 L221,737 L176,736 L141,736 L135,735 L93,735 L40,734 L14,733 L9,734 L7,748 L6,785 L6,806 L8,808 L13,807 L20,801 L25,796 L33,788 L38,783 L54,768 L59,763 L65,758 L69,760 L70,767 L69,814 L67,821 L60,828 L56,833 L48,840 L39,848 L35,853 L27,860 L16,871 L11,876 L5,881 L-2,889 L-9,896 L-15,901 L-21,900 L-30,890 L-35,884 L-40,879 L-50,870 L-57,862 L-64,855 L-69,850 L-79,840 L-84,835 L-89,830 L-99,819 L-101,816 L-102,808 L-102,791 L-101,757 L-96,756 L-91,762 L-84,768 L-78,775 L-70,782 L-65,787 L-60,793 L-52,800 L-51,803 L-47,805 L-43,808 L-39,809 L-37,776 L-36,738 L-37,734 L-46,733 L-60,733 L-91,732 L-134,732 L-169,731 L-196,731 L-236,730 L-299,730 L-328,729 L-331,726 L-332,716 L-332,703 L-331,685 L-330,675 L-330,653 L-329,590 L-328,579 L-328,544 L-327,509 L-327,480 L-326,433 L-325,416 L-325,399 L-324,363 L-322,288 L-321,283 L-321,252 L-320,173 L-317,164 L-313,162 L-278,162 L-276,163 L-270,163 L-263,162 L-169,163 L-126,163 L-123,164 L-114,164 L-108,163 L-97,164 L-53,165 L-31,165 L-25,163 L-24,160 L-22,119 L-22,87 L-28,88 L-43,102 L-49,107 L-54,112 L-56,112 L-58,116 L-66,124 L-71,128 L-78,136 L-82,140 L-86,139 L-86,89 L-84,80 L-77,72 L-72,67 L-67,62 L-54,50 L-42,38 L-37,33 L-22,19 L-15,13 L-7,6 Z M-270,207 L-274,209 L-275,211 L-276,227 L-276,250 L-277,256 L-277,270 L-279,343 L-280,391 L-282,450 L-282,463 L-283,484 L-283,521 L-284,534 L-284,554 L-285,613 L-286,643 L-286,679 L-282,684 L-276,685 L-267,685 L-253,686 L-223,686 L-183,687 L-124,687 L-116,688 L-43,688 L-39,689 L8,689 L22,690 L48,690 L115,691 L160,692 L169,693 L233,693 L255,694 L263,692 L266,688 L267,685 L270,622 L270,605 L271,559 L271,504 L272,486 L272,434 L273,423 L273,380 L276,292 L277,223 L274,216 L272,215 L253,214 L219,213 L199,213 L111,212 L71,211 L7,210 L-36,210 L-53,209 L-107,209 L-155,208 L-188,208 L-228,207 Z " fill="#000000" transform="translate(518,57)"/>
<path d="M0,0 L9,0 L21,3 L27,7 L36,17 L41,28 L42,43 L39,53 L31,67 L25,72 L23,75 L23,80 L25,82 L44,82 L53,88 L59,97 L64,112 L69,131 L73,146 L76,155 L82,178 L85,190 L94,221 L99,238 L103,256 L103,264 L100,266 L83,266 L79,260 L77,251 L73,242 L65,212 L61,199 L57,183 L50,160 L49,152 L44,153 L41,160 L37,173 L35,177 L35,193 L38,201 L42,219 L47,237 L51,248 L59,277 L63,293 L68,308 L69,318 L65,322 L33,322 L30,330 L27,358 L25,374 L21,407 L18,427 L16,449 L12,454 L6,455 L-6,454 L-13,454 L-20,451 L-21,448 L-23,422 L-24,399 L-26,378 L-30,327 L-33,322 L-69,319 L-72,314 L-70,305 L-64,285 L-60,274 L-58,267 L-53,247 L-48,235 L-43,218 L-37,199 L-34,190 L-33,187 L-33,179 L-37,163 L-40,155 L-44,153 L-47,164 L-51,175 L-58,194 L-61,205 L-63,214 L-67,223 L-74,247 L-79,259 L-84,262 L-100,263 L-103,262 L-104,256 L-100,242 L-94,224 L-91,213 L-84,192 L-79,177 L-77,172 L-73,158 L-62,125 L-54,102 L-51,93 L-46,87 L-37,82 L-16,80 L-14,77 L-15,72 L-23,64 L-30,50 L-31,46 L-31,32 L-28,22 L-22,13 L-9,3 Z " fill="#000000" transform="translate(368,276)"/>
<path d="M0,0 L8,1 L16,4 L25,9 L32,16 L37,26 L39,35 L39,43 L37,50 L31,62 L23,71 L20,74 L18,81 L48,83 L56,84 L65,90 L70,100 L74,111 L78,128 L81,138 L85,154 L88,162 L91,175 L94,185 L98,197 L106,227 L113,250 L114,254 L114,264 L111,267 L87,266 L82,260 L77,246 L73,230 L68,215 L63,194 L61,191 L56,172 L52,156 L49,153 L46,154 L39,169 L34,185 L34,196 L38,210 L43,228 L48,247 L55,269 L62,296 L67,313 L72,331 L80,358 L83,370 L91,397 L97,420 L104,444 L104,454 L98,456 L72,456 L68,454 L62,440 L54,418 L43,389 L39,379 L36,371 L28,351 L19,327 L9,302 L5,293 L3,287 L-1,278 L-5,279 L-12,293 L-20,314 L-24,322 L-30,338 L-39,358 L-43,368 L-48,380 L-52,389 L-58,403 L-62,412 L-66,421 L-76,443 L-81,451 L-87,452 L-99,453 L-104,451 L-112,453 L-117,448 L-115,437 L-111,427 L-107,417 L-105,408 L-98,388 L-93,371 L-87,353 L-83,342 L-78,325 L-74,312 L-69,296 L-62,275 L-60,267 L-56,255 L-52,238 L-49,229 L-45,217 L-38,196 L-37,191 L-37,182 L-41,169 L-47,154 L-52,153 L-57,165 L-61,176 L-65,190 L-73,214 L-81,240 L-85,254 L-90,262 L-92,263 L-115,263 L-119,260 L-119,252 L-112,227 L-107,212 L-104,203 L-101,194 L-99,186 L-90,160 L-84,142 L-78,124 L-74,115 L-70,98 L-63,88 L-59,85 L-48,81 L-33,81 L-19,80 L-18,75 L-25,67 L-33,54 L-36,44 L-36,35 L-31,19 L-27,14 L-25,14 L-23,10 L-18,6 L-13,3 Z " fill="#000000" transform="translate(658,279)"/>
<path d="M0,0 L4,0 L3,4 L0,3 Z " fill="#000000" transform="translate(105,981)"/>
</svg>
