<?xml version="1.0" encoding="UTF-8"?>
<!-- Generator: visioncortex VTracer 0.6.12 -->
<svg version="1.1" xmlns="http://www.w3.org/2000/svg" width="1140" height="1116">
<path d="M0,0 L16,0 L14,2 L0,1 Z " fill="#000000" transform="translate(65,0)"/>
<path d="M0,0 L54,0 L53,2 L40,3 L3,2 Z " fill="#000000" transform="translate(101,0)"/>
<path d="M0,0 L12,0 L10,14 L10,68 L9,71 L9,119 L7,208 L6,245 L5,296 L3,405 L2,473 L3,481 L8,482 L17,484 L24,485 L90,485 L99,484 L124,484 L154,485 L159,487 L164,493 L165,495 L166,547 L165,569 L166,578 L165,589 L164,617 L162,622 L159,624 L148,625 L126,625 L89,623 L81,623 L79,624 L37,624 L16,623 L8,622 L3,625 L0,632 L-1,652 L-1,672 L-2,728 L-3,760 L-4,770 L-4,792 L-5,860 L-7,918 L-8,1069 L-9,1093 L-7,1098 L-5,1100 L34,1101 L59,1101 L89,1102 L158,1102 L217,1103 L307,1104 L350,1104 L398,1105 L436,1105 L440,1106 L518,1106 L547,1107 L608,1107 L651,1108 L697,1108 L743,1109 L776,1109 L808,1110 L915,1110 L921,1111 L981,1111 L1009,1112 L1098,1112 L1103,1109 L1104,1107 L1105,1051 L1105,1003 L1107,994 L1108,932 L1109,903 L1109,829 L1110,818 L1111,779 L1111,719 L1112,708 L1113,664 L1113,651 L1111,641 L1107,638 L1097,638 L1091,637 L1088,638 L1046,637 L1013,638 L996,638 L980,635 L974,631 L973,630 L973,618 L978,614 L979,609 L973,602 L971,597 L971,584 L972,562 L973,501 L980,495 L985,494 L1108,494 L1113,490 L1115,484 L1116,455 L1116,429 L1117,385 L1117,336 L1118,333 L1119,278 L1119,249 L1120,204 L1121,190 L1120,182 L1120,165 L1121,152 L1120,127 L1121,121 L1121,100 L1122,79 L1124,72 L1125,50 L1125,21 L1121,16 L1091,15 L1070,15 L1014,14 L988,14 L970,13 L907,13 L834,12 L806,12 L785,11 L741,11 L687,10 L659,10 L602,9 L587,9 L536,8 L468,7 L423,7 L397,6 L368,6 L363,4 L353,5 L312,5 L303,4 L203,3 L155,2 L152,0 L1025,0 L1031,2 L1031,0 L1053,0 L1054,1 L1092,2 L1129,2 L1129,624 L1128,628 L1127,688 L1126,769 L1125,800 L1125,842 L1124,871 L1124,884 L1123,894 L1123,907 L1122,919 L1121,947 L1121,984 L1120,1021 L1119,1033 L1120,1041 L1119,1064 L1119,1095 L1118,1116 L196,1116 L193,1115 L169,1115 L168,1116 L161,1116 L159,1115 L148,1114 L80,1114 L10,1113 L-11,1113 L-11,373 L-10,369 L-9,348 L-8,266 L-7,217 L-6,194 L-4,103 L-4,69 L-3,30 L-3,14 Z M6,497 L3,499 L2,502 L2,527 L4,530 L9,529 L16,521 L24,508 L24,502 L19,498 Z M82,498 L73,504 L69,509 L62,520 L53,531 L46,543 L40,550 L30,564 L23,573 L15,584 L9,592 L5,599 L5,606 L8,609 L17,610 L27,608 L33,601 L42,589 L47,584 L52,577 L55,572 L63,562 L69,553 L74,544 L78,538 L88,524 L97,510 L98,503 L93,499 L91,498 Z M47,499 L38,505 L33,510 L27,518 L17,531 L13,537 L4,549 L1,561 L1,581 L2,583 L7,583 L16,573 L24,561 L32,550 L43,534 L55,518 L60,508 L60,501 L56,499 Z M117,501 L108,508 L101,519 L95,528 L85,541 L80,549 L73,561 L65,570 L59,579 L50,591 L43,600 L43,606 L49,611 L53,612 L65,609 L70,605 L77,597 L85,585 L93,575 L99,565 L107,552 L115,541 L123,531 L129,522 L135,512 L136,506 L132,502 L130,501 Z M988,510 L983,514 L982,517 L982,526 L983,534 L985,536 L989,535 L996,525 L999,518 L998,512 L995,510 Z M1021,510 L1013,517 L1009,523 L997,538 L990,549 L982,561 L980,570 L981,586 L983,591 L988,591 L996,583 L1001,575 L1008,564 L1014,556 L1021,546 L1024,540 L1031,531 L1036,523 L1038,518 L1037,513 L1033,510 Z M1062,510 L1056,512 L1044,524 L1037,535 L1029,547 L1023,556 L1017,565 L1007,581 L995,598 L987,611 L987,617 L992,620 L1004,620 L1012,615 L1020,605 L1028,593 L1040,577 L1048,563 L1057,552 L1059,546 L1066,536 L1074,523 L1075,521 L1075,514 L1071,510 Z M1101,510 L1093,514 L1082,527 L1075,536 L1070,545 L1064,553 L1058,562 L1053,570 L1043,586 L1037,596 L1033,601 L1029,610 L1030,616 L1032,618 L1043,618 L1053,616 L1062,603 L1068,593 L1074,583 L1084,568 L1091,558 L1097,550 L1106,535 L1112,525 L1113,522 L1113,515 L1108,510 Z M146,514 L136,525 L128,537 L121,547 L113,557 L102,572 L92,587 L85,596 L83,601 L83,606 L86,609 L98,611 L106,608 L111,604 L118,594 L131,578 L140,564 L146,555 L151,548 L152,524 L151,516 L149,514 Z M1105,555 L1097,563 L1092,572 L1087,577 L1080,588 L1069,605 L1066,610 L1066,616 L1071,619 L1079,619 L1086,616 L1093,609 L1101,597 L1107,587 L1113,578 L1115,570 L1115,562 L1112,556 L1111,555 Z M144,573 L137,582 L133,587 L126,598 L125,605 L128,607 L141,609 L148,603 L150,593 L150,576 L148,573 Z M1106,606 L1102,610 L1102,617 L1106,619 L1110,617 L1111,615 L1111,607 Z " fill="#000000" transform="translate(11,0)"/>
<path d="M0,0 L6,1 L13,8 L20,16 L28,26 L33,30 L40,39 L44,44 L49,49 L61,61 L67,69 L74,78 L73,83 L69,85 L54,85 L48,90 L45,100 L45,128 L43,160 L43,181 L42,214 L42,229 L41,271 L42,284 L41,300 L41,314 L40,333 L37,460 L36,481 L36,504 L35,540 L35,551 L33,566 L31,572 L28,575 L25,576 L16,576 L13,575 L-2,575 L-13,574 L-26,574 L-36,575 L-47,575 L-57,571 L-61,567 L-61,527 L-60,481 L-59,453 L-59,425 L-58,387 L-57,378 L-57,331 L-56,309 L-55,238 L-54,231 L-54,176 L-52,137 L-52,116 L-51,104 L-51,93 L-54,87 L-61,81 L-67,80 L-75,81 L-78,77 L-77,71 L-70,63 L-65,58 L-60,53 L-51,44 L-41,36 L-33,29 L-28,24 L-9,5 L-3,1 Z M13,191 L11,193 L12,197 L17,197 L16,192 Z " fill="#000000" transform="translate(298,220)"/>
<path d="M0,0 L25,0 L65,1 L73,1 L81,6 L82,8 L82,121 L81,147 L82,156 L81,186 L81,207 L80,223 L81,246 L81,294 L80,307 L80,319 L79,332 L79,382 L77,456 L77,470 L80,475 L83,477 L96,479 L100,483 L100,490 L94,500 L81,512 L69,525 L62,533 L46,548 L38,555 L32,562 L26,563 L18,557 L10,549 L3,541 L-6,533 L-13,525 L-18,520 L-29,508 L-36,499 L-44,491 L-45,488 L-45,481 L-41,476 L-39,475 L-31,475 L-25,476 L-20,471 L-17,449 L-17,408 L-16,402 L-16,349 L-15,311 L-14,209 L-14,160 L-13,143 L-13,132 L-12,124 L-12,101 L-11,46 L-10,25 L-10,18 L-7,5 L-3,1 Z " fill="#000000" transform="translate(830,311)"/>
<path d="M0,0 L56,1 L66,1 L74,0 L88,2 L119,2 L125,3 L137,3 L147,2 L197,3 L227,3 L237,5 L238,6 L245,6 L249,4 L271,4 L281,6 L287,4 L344,4 L353,8 L356,12 L357,17 L358,33 L358,60 L357,74 L357,129 L354,139 L350,144 L346,146 L332,148 L327,149 L300,149 L290,147 L275,148 L239,147 L234,146 L228,148 L213,148 L204,145 L190,145 L170,146 L164,140 L159,140 L154,144 L151,145 L146,144 L98,144 L95,145 L87,145 L83,144 L66,143 L18,143 L6,141 L-5,141 L-11,137 L-16,129 L-18,121 L-17,112 L-15,92 L-15,50 L-14,12 L-11,4 L-5,1 Z M4,16 L-2,23 L-2,36 L0,39 L5,38 L12,31 L15,25 L15,19 L12,16 Z M44,16 L32,19 L25,25 L19,32 L11,44 L2,60 L-2,66 L-4,73 L-5,82 L-5,99 L-3,103 L2,103 L10,93 L19,80 L27,67 L35,57 L42,48 L51,35 L56,27 L56,20 L50,16 Z M123,18 L115,21 L106,29 L103,34 L98,39 L89,50 L85,56 L78,66 L72,74 L62,88 L58,93 L53,101 L46,111 L43,116 L43,123 L48,126 L62,126 L70,122 L77,114 L82,109 L90,99 L93,93 L105,77 L112,66 L121,54 L135,35 L139,28 L139,22 L136,19 L131,18 Z M77,19 L69,24 L61,31 L52,43 L46,51 L41,60 L30,75 L19,89 L15,96 L5,110 L0,118 L0,124 L3,127 L13,127 L24,125 L31,119 L38,111 L48,98 L59,82 L69,67 L78,56 L84,46 L93,34 L96,27 L95,22 L93,19 Z M159,18 L154,21 L147,29 L134,46 L124,61 L110,80 L103,89 L93,104 L85,115 L83,122 L86,127 L94,129 L101,129 L113,126 L119,121 L126,110 L133,101 L140,92 L149,78 L160,63 L169,51 L179,36 L183,30 L183,23 L180,19 Z M206,19 L197,25 L185,37 L179,46 L171,57 L165,66 L159,74 L152,84 L139,102 L134,110 L129,119 L129,124 L134,128 L154,127 L162,123 L174,107 L183,92 L190,83 L193,78 L198,70 L213,50 L219,41 L225,33 L226,24 L221,20 L219,19 Z M254,20 L245,23 L237,29 L229,40 L220,51 L214,59 L206,70 L197,84 L188,96 L179,111 L175,116 L173,120 L173,125 L176,128 L185,129 L200,129 L206,125 L216,111 L223,101 L229,93 L236,82 L243,72 L256,54 L264,43 L269,34 L272,29 L272,23 L269,20 Z M300,20 L292,23 L282,32 L271,45 L262,57 L254,68 L248,77 L241,87 L234,96 L224,111 L219,120 L219,126 L222,130 L236,130 L244,127 L251,119 L262,101 L271,90 L278,81 L286,71 L290,64 L298,52 L306,41 L312,30 L312,24 L308,21 Z M334,22 L328,26 L319,37 L311,47 L304,56 L296,68 L286,80 L280,90 L274,98 L268,108 L260,119 L260,126 L265,130 L283,130 L291,125 L298,114 L307,104 L315,91 L323,78 L331,67 L338,60 L343,51 L345,42 L345,34 L343,25 L340,22 Z M336,76 L331,82 L323,93 L319,98 L312,109 L306,117 L303,123 L304,127 L307,130 L315,130 L324,127 L332,118 L339,108 L343,101 L344,96 L344,86 L342,78 L339,76 Z " fill="#000000" transform="translate(401,488)"/>
<path d="M0,0 L3,1 L2,4 L-1,3 Z " fill="#000000" transform="translate(517,734)"/>
<path d="M0,0 L4,1 L5,6 L0,7 L-1,6 L-1,1 Z " fill="#000000" transform="translate(673,1090)"/>
</svg>
