<?xml version="1.0" encoding="UTF-8"?>
<!-- Generator: visioncortex VTracer 0.6.12 -->
<svg version="1.1" xmlns="http://www.w3.org/2000/svg" width="1128" height="1113">
<path d="M0,0 L1128,0 L1128,425 L1127,429 L1127,444 L1128,450 L1127,465 L1127,492 L1126,501 L1125,589 L1125,650 L1124,685 L1123,778 L1122,829 L1122,877 L1121,918 L1121,955 L1120,1012 L1120,1068 L1119,1085 L1119,1106 L1122,1111 L1122,1113 L24,1113 L23,1112 L5,1111 L0,1110 L0,145 L1,139 L0,137 L0,125 L1,124 L1,116 L0,115 L0,94 L2,88 L2,48 L1,41 L0,40 L0,32 L2,28 L2,11 L0,7 Z M197,6 L169,7 L141,7 L134,11 L132,16 L133,27 L137,37 L137,90 L136,130 L135,212 L135,253 L134,317 L134,334 L133,393 L133,408 L132,429 L133,442 L132,491 L132,521 L130,651 L129,705 L128,817 L127,873 L126,944 L125,1031 L124,1049 L123,1052 L123,1060 L126,1069 L125,1076 L122,1080 L120,1090 L120,1099 L124,1102 L134,1103 L148,1100 L162,1098 L171,1098 L181,1101 L196,1101 L202,1099 L211,1100 L218,1101 L235,1102 L250,1102 L258,1100 L296,1100 L299,1101 L351,1101 L372,1102 L410,1102 L412,1103 L419,1103 L426,1100 L434,1100 L440,1102 L459,1103 L465,1102 L503,1102 L512,1101 L519,1103 L536,1103 L551,1102 L554,1103 L576,1103 L593,1102 L600,1101 L604,1103 L612,1103 L619,1102 L639,1104 L689,1104 L757,1105 L780,1104 L820,1104 L830,1105 L832,1106 L922,1106 L934,1107 L982,1107 L1012,1108 L1022,1107 L1057,1107 L1098,1109 L1105,1106 L1106,1104 L1105,1078 L1106,1071 L1105,1069 L1105,1053 L1107,1040 L1107,1024 L1109,1019 L1109,1014 L1106,1010 L1107,967 L1107,942 L1110,902 L1109,898 L1109,867 L1108,850 L1108,817 L1109,811 L1111,754 L1112,751 L1112,723 L1111,682 L1111,647 L1113,637 L1111,627 L1112,618 L1113,610 L1112,597 L1112,524 L1113,488 L1112,472 L1112,409 L1113,403 L1114,377 L1114,346 L1115,326 L1116,317 L1116,281 L1115,272 L1117,248 L1117,217 L1119,200 L1119,190 L1117,174 L1118,163 L1119,155 L1118,146 L1118,133 L1119,117 L1119,92 L1120,72 L1121,65 L1120,62 L1120,52 L1122,48 L1123,24 L1120,19 L1118,18 L1063,18 L1050,17 L985,17 L979,16 L940,15 L911,15 L884,16 L877,15 L850,15 L846,14 L795,13 L735,14 L723,12 L702,12 L688,11 L589,11 L586,10 L554,10 L551,11 L532,10 L470,9 L457,10 L454,9 L431,9 L370,8 L298,8 L274,7 L268,6 L262,7 L251,6 L229,7 L222,6 Z " fill="#000000" transform="translate(0,0)"/>
<path d="M0,0 L7,1 L10,5 L10,10 L-2,23 L-13,35 L-21,42 L-28,49 L-35,57 L-44,66 L-49,71 L-55,78 L-63,85 L-103,125 L-108,130 L-113,134 L-118,140 L-126,147 L-133,154 L-135,160 L-134,163 L-130,165 L-102,166 L-37,166 L-25,165 L8,165 L15,164 L25,165 L60,165 L66,163 L73,163 L79,165 L99,166 L129,166 L135,164 L142,165 L172,166 L236,166 L262,167 L266,169 L273,168 L288,166 L293,163 L299,163 L309,166 L333,166 L365,167 L436,167 L441,171 L440,234 L433,257 L426,265 L353,266 L324,265 L310,265 L275,266 L245,265 L146,265 L131,264 L125,263 L119,264 L60,264 L-20,263 L-45,262 L-56,263 L-69,263 L-75,262 L-130,262 L-136,265 L-136,270 L-124,284 L-111,297 L-104,305 L-98,310 L-91,318 L-81,328 L-74,334 L-65,345 L-57,352 L-53,357 L-48,360 L-42,368 L-31,378 L-25,386 L-17,393 L-8,403 L5,415 L6,420 L2,424 L-40,423 L-115,423 L-123,417 L-132,408 L-132,406 L-136,404 L-145,394 L-150,389 L-159,379 L-164,374 L-172,367 L-179,359 L-190,347 L-195,342 L-217,320 L-224,312 L-232,304 L-237,298 L-242,294 L-249,286 L-257,277 L-262,272 L-270,263 L-278,256 L-289,244 L-300,232 L-305,227 L-317,214 L-318,212 L-318,205 L-312,200 L-304,195 L-295,184 L-284,174 L-282,174 L-280,170 L-272,162 L-270,162 L-268,157 L-262,150 L-256,146 L-251,140 L-244,132 L-233,120 L-228,115 L-213,101 L-207,94 L-203,88 L-195,82 L-187,72 L-177,63 L-171,56 L-162,49 L-155,41 L-147,34 L-137,23 L-130,15 L-126,11 L-122,6 L-114,2 L-104,1 L-72,2 L-22,2 L-5,1 Z " fill="#000000" transform="translate(553,319)"/>
<path d="M0,0 L17,0 L30,2 L46,9 L55,15 L64,25 L73,36 L79,60 L79,72 L77,87 L72,100 L68,106 L58,118 L52,122 L42,129 L33,133 L18,136 L2,136 L-12,132 L-18,129 L-32,120 L-40,112 L-46,104 L-52,92 L-56,79 L-56,58 L-55,49 L-48,32 L-37,20 L-28,13 L-13,4 Z " fill="#000000" transform="translate(640,611)"/>
<path d="M0,0 L11,1 L25,5 L39,13 L50,22 L57,34 L62,44 L64,50 L66,69 L64,84 L58,101 L51,113 L43,121 L29,130 L14,135 L8,136 L-10,136 L-24,132 L-35,126 L-41,122 L-54,110 L-61,101 L-65,92 L-68,79 L-68,61 L-65,44 L-59,32 L-48,19 L-39,11 L-19,3 L-13,1 Z " fill="#000000" transform="translate(899,612)"/>
</svg>
