<?xml version="1.0" encoding="UTF-8"?>
<!-- Generator: visioncortex VTracer 0.6.12 -->
<svg version="1.1" xmlns="http://www.w3.org/2000/svg" width="1131" height="1119">
<path d="M0,0 L1124,0 L1125,23 L1126,114 L1128,249 L1129,360 L1129,381 L1130,413 L1131,416 L1131,1119 L0,1119 Z M1010,232 L908,233 L785,235 L757,235 L695,236 L647,236 L594,237 L562,237 L518,238 L467,239 L462,242 L459,247 L459,370 L460,437 L461,451 L464,457 L466,458 L509,458 L526,457 L533,455 L537,444 L536,405 L536,319 L538,316 L547,315 L588,315 L653,314 L688,314 L787,312 L815,312 L941,310 L969,310 L999,309 L1018,308 L1021,304 L1022,301 L1022,242 L1020,235 L1016,232 Z M275,397 L249,398 L245,402 L246,407 L258,420 L269,431 L275,438 L281,443 L285,448 L293,455 L300,463 L305,468 L330,493 L332,493 L334,497 L346,509 L351,514 L356,519 L356,523 L352,524 L317,524 L254,525 L211,525 L153,526 L138,527 L115,527 L110,530 L108,536 L108,594 L110,604 L113,607 L181,607 L243,606 L353,606 L352,611 L337,627 L326,638 L322,644 L316,649 L309,657 L301,665 L297,670 L292,674 L284,684 L268,701 L258,712 L251,721 L250,728 L253,730 L305,730 L347,729 L355,724 L364,713 L371,706 L376,701 L388,688 L393,683 L402,673 L409,665 L416,659 L423,651 L425,647 L427,647 L434,639 L455,618 L461,610 L467,605 L474,597 L491,580 L500,569 L502,566 L502,559 L493,548 L479,534 L474,529 L463,517 L455,510 L450,505 L441,496 L436,491 L427,481 L420,474 L416,470 L411,465 L406,460 L400,453 L392,446 L383,437 L381,437 L379,433 L371,426 L364,418 L352,406 L347,401 L343,398 L340,397 Z M492,667 L470,668 L465,670 L463,672 L462,681 L464,819 L464,848 L466,883 L469,888 L574,888 L623,887 L720,886 L764,886 L815,885 L846,885 L867,884 L909,884 L962,883 L989,883 L1006,882 L1021,882 L1026,879 L1029,873 L1029,820 L1027,811 L1024,808 L1021,807 L952,807 L915,808 L881,808 L821,809 L759,809 L699,810 L643,810 L639,811 L610,811 L572,812 L543,812 L541,806 L540,765 L540,740 L539,677 L536,669 L532,667 Z " fill="#000000" transform="translate(0,0)"/>
</svg>
