<?xml version="1.0" encoding="UTF-8"?>
<!-- Generator: visioncortex VTracer 0.6.12 -->
<svg version="1.1" xmlns="http://www.w3.org/2000/svg" width="1359" height="1227">
<path d="M0,0 L3,1 L7,7 L7,13 L0,18 L1,25 L4,34 L4,74 L3,86 L3,96 L4,103 L4,150 L5,182 L5,245 L6,301 L6,336 L7,366 L7,387 L8,468 L9,532 L9,543 L10,557 L10,626 L11,682 L11,728 L12,761 L12,802 L13,865 L13,889 L14,969 L14,993 L17,1108 L18,1127 L21,1134 L20,1139 L16,1144 L-75,1144 L-166,1145 L-226,1146 L-267,1147 L-351,1148 L-438,1149 L-503,1150 L-578,1151 L-638,1152 L-665,1153 L-684,1153 L-761,1154 L-819,1154 L-852,1155 L-925,1156 L-967,1156 L-1032,1157 L-1100,1158 L-1122,1159 L-1127,1156 L-1129,1152 L-1128,1131 L-1128,1026 L-1129,990 L-1130,916 L-1131,763 L-1132,715 L-1132,689 L-1134,528 L-1134,502 L-1136,379 L-1136,357 L-1137,302 L-1137,277 L-1138,244 L-1139,193 L-1140,118 L-1141,96 L-1141,68 L-1142,47 L-1142,35 L-1135,21 L-1131,19 L-1118,19 L-1111,18 L-1080,19 L-1023,19 L-808,18 L-691,17 L-664,16 L-452,14 L-417,14 L-384,13 L-297,12 L-247,11 L-205,10 L-146,9 L-124,9 L-98,8 L-40,8 L-37,7 L-25,7 L-9,6 L-2,8 L-1,1 Z M-175,25 L-255,26 L-303,27 L-436,28 L-502,29 L-631,31 L-670,31 L-685,32 L-775,33 L-922,34 L-977,34 L-1038,35 L-1106,36 L-1116,37 L-1121,37 L-1123,41 L-1124,134 L-1123,158 L-1123,226 L-1122,264 L-1121,435 L-1120,475 L-1120,499 L-1119,535 L-1118,644 L-1118,711 L-1117,767 L-1117,788 L-1116,848 L-1115,966 L-1114,1052 L-1112,1131 L-1111,1140 L-1109,1142 L-1096,1143 L-975,1143 L-891,1142 L-793,1141 L-739,1141 L-622,1139 L-508,1137 L-467,1137 L-457,1136 L-412,1136 L-293,1134 L-244,1133 L-205,1133 L-154,1132 L-72,1130 L-46,1130 L-2,1129 L1,1126 L1,992 L0,955 L0,927 L-1,876 L-2,774 L-3,696 L-4,651 L-5,578 L-5,535 L-7,451 L-8,353 L-9,312 L-9,270 L-10,247 L-12,132 L-14,58 L-16,27 L-18,25 Z " fill="#000000" transform="translate(1205,35)"/>
<path d="M0,0 L7,1 L14,3 L37,4 L49,4 L51,5 L51,19 L14,20 L12,22 L12,80 L15,274 L15,349 L16,378 L18,479 L18,572 L19,706 L20,763 L21,782 L21,896 L22,948 L24,984 L24,1094 L25,1115 L26,1116 L51,1117 L51,1132 L24,1133 L19,1137 L13,1136 L8,1133 L6,1129 L6,1009 L5,889 L3,745 L3,689 L2,602 L2,565 L1,485 L1,443 L0,404 L-1,342 L-1,323 L-2,297 L-2,269 L-3,202 L-4,170 L-5,154 L-5,125 L-8,32 L-8,19 L-9,10 L-5,3 Z " fill="#000000" transform="translate(1308,45)"/>
<path d="M0,0 L5,2 L6,7 L7,44 L7,75 L8,107 L9,245 L10,284 L11,356 L11,381 L12,431 L12,453 L14,591 L14,640 L15,682 L15,716 L13,720 L-17,721 L-39,721 L-179,723 L-279,725 L-387,726 L-496,727 L-569,728 L-681,729 L-701,730 L-705,727 L-706,724 L-707,647 L-709,542 L-709,499 L-705,496 L-635,495 L-616,495 L-614,497 L-613,503 L-612,625 L-611,632 L-608,634 L-499,633 L-451,632 L-396,631 L-354,631 L-121,628 L-102,628 L-83,627 L-82,626 L-82,517 L-83,447 L-83,429 L-84,377 L-84,349 L-87,145 L-88,112 L-89,98 L-92,96 L-216,97 L-289,98 L-475,100 L-614,102 L-617,106 L-617,158 L-616,219 L-616,240 L-619,243 L-626,244 L-709,244 L-711,241 L-712,225 L-713,116 L-714,37 L-714,11 L-712,9 L-673,8 L-633,8 L-493,6 L-343,4 L-318,4 L-265,3 L-173,2 L-35,1 Z " fill="#000000" transform="translate(1084,250)"/>
<path d="M0,0 L5,1 L6,4 L9,5 L14,10 L26,22 L33,30 L39,35 L44,40 L59,55 L67,62 L72,67 L88,83 L93,88 L103,97 L117,111 L122,116 L132,126 L131,132 L126,137 L116,147 L114,150 L112,150 L111,153 L109,153 L107,157 L96,168 L91,173 L79,186 L70,195 L63,203 L51,215 L46,220 L33,233 L24,244 L11,257 L8,262 L3,263 L2,262 L0,180 L-2,177 L-112,178 L-318,181 L-402,182 L-437,182 L-439,180 L-440,173 L-440,92 L-437,89 L-429,88 L-318,87 L-265,86 L-215,85 L-189,85 L-115,84 L-83,84 L-25,83 L-2,82 L-1,80 L-1,1 Z " fill="#000000" transform="translate(601,488)"/>
<path d="M0,0 L2,1 L2,3 L-1,3 Z " fill="#000000" transform="translate(773,527)"/>
</svg>
