<?xml version="1.0" encoding="UTF-8"?>
<!-- Generator: visioncortex VTracer 0.6.12 -->
<svg version="1.1" xmlns="http://www.w3.org/2000/svg" width="1314" height="1335">
<path d="M0,0 L144,0 L144,54 L125,54 L98,55 L51,55 L45,56 L43,55 L8,55 L-111,56 L-161,56 L-217,57 L-226,56 L-252,57 L-358,57 L-427,58 L-449,57 L-491,58 L-572,58 L-694,59 L-724,59 L-748,60 L-763,60 L-773,61 L-779,60 L-867,60 L-895,61 L-900,62 L-901,61 L-1081,61 L-1097,60 L-1102,61 L-1170,60 L-1170,6 L-1011,5 L-853,5 L-683,4 L-567,3 L-481,3 L-460,2 L-452,1 L-446,3 L-298,2 L-189,2 L-120,1 L-90,1 Z M-431,8 L-432,11 L-429,11 L-430,8 Z " fill="#000000" transform="translate(1170,27)"/>
<path d="M0,0 L168,0 L175,1 L181,0 L242,0 L253,1 L539,1 L640,2 L739,2 L744,3 L780,4 L796,5 L813,9 L833,15 L848,22 L866,32 L880,42 L892,53 L897,57 L904,65 L913,76 L923,89 L938,118 L946,140 L951,162 L953,183 L954,459 L953,621 L952,640 L952,664 L951,718 L951,983 L949,998 L944,1018 L940,1030 L936,1038 L933,1045 L925,1059 L918,1070 L909,1082 L901,1092 L893,1099 L879,1112 L868,1119 L856,1127 L833,1138 L811,1145 L801,1148 L779,1151 L747,1152 L510,1152 L500,1151 L485,1152 L431,1152 L418,1151 L184,1151 L175,1150 L97,1150 L82,1149 L-5,1149 L-32,1146 L-53,1140 L-63,1137 L-81,1129 L-87,1125 L-98,1119 L-116,1105 L-127,1095 L-132,1090 L-142,1079 L-152,1065 L-159,1054 L-166,1042 L-172,1027 L-178,1008 L-181,992 L-184,966 L-184,736 L-179,730 L-177,729 L-176,726 L-181,724 L-183,718 L-184,710 L-184,325 L-183,215 L-183,192 L-181,166 L-177,144 L-167,114 L-155,92 L-145,77 L-138,69 L-131,60 L-123,53 L-116,46 L-103,36 L-78,21 L-67,16 L-48,8 L-38,6 L-27,3 Z M395,9 L394,13 L395,15 L400,15 L401,12 L399,9 Z M18,33 L-9,35 L-20,36 L-43,42 L-64,51 L-72,55 L-76,58 L-81,61 L-95,72 L-103,79 L-110,87 L-121,101 L-128,112 L-136,127 L-142,142 L-145,151 L-148,169 L-150,189 L-150,239 L-151,272 L-151,332 L-152,541 L-152,603 L-153,618 L-152,630 L-152,931 L-153,942 L-151,974 L-147,997 L-142,1013 L-140,1017 L-138,1025 L-129,1041 L-124,1051 L-109,1067 L-96,1080 L-81,1091 L-72,1097 L-56,1105 L-42,1111 L-25,1115 L-9,1116 L-5,1117 L35,1117 L57,1118 L87,1117 L128,1117 L243,1118 L322,1118 L465,1119 L590,1119 L631,1120 L654,1119 L753,1120 L760,1119 L762,1120 L774,1120 L789,1118 L816,1111 L834,1103 L851,1093 L862,1084 L874,1073 L884,1063 L893,1050 L900,1039 L906,1027 L914,1007 L919,982 L920,966 L920,671 L921,591 L921,528 L922,439 L922,412 L921,381 L921,202 L920,173 L914,146 L905,125 L898,112 L885,93 L877,83 L875,83 L873,79 L862,70 L855,64 L839,54 L833,51 L825,48 L816,45 L808,42 L787,38 L776,37 L742,36 L655,36 L630,35 L619,36 L586,36 L506,35 L418,35 L407,34 L400,35 L373,35 L267,34 L39,34 Z " fill="#000000" transform="translate(274,151)"/>
<path d="M0,0 L244,0 L399,1 L609,1 L622,2 L736,2 L739,7 L740,19 L740,37 L739,84 L739,265 L738,312 L738,407 L737,494 L736,519 L733,522 L661,523 L635,523 L632,529 L627,528 L625,522 L343,522 L337,521 L332,522 L326,521 L157,521 L121,520 L-10,520 L-15,517 L-16,515 L-16,177 L-15,40 L-15,10 L-13,3 L-8,1 Z M20,20 L11,21 L6,25 L5,39 L4,285 L3,454 L4,491 L6,496 L10,498 L45,499 L113,499 L253,500 L341,500 L408,501 L442,500 L499,500 L506,502 L511,501 L542,500 L567,500 L597,501 L709,501 L714,498 L716,495 L717,482 L717,400 L718,325 L718,294 L719,186 L719,54 L718,30 L716,25 L711,23 L630,22 L622,23 L579,22 L450,22 L419,21 L206,21 L190,20 L175,21 L49,21 Z " fill="#000000" transform="translate(295,473)"/>
<path d="M0,0 L2,0 L6,4 L23,4 L26,0 L55,0 L60,3 L64,6 L71,4 L75,1 L78,2 L83,7 L85,9 L86,36 L85,68 L84,75 L79,79 L46,80 L23,79 L2,79 L-11,78 L-15,74 L-15,8 L-10,5 L-3,4 Z M-1,13 L-6,16 L-7,21 L-6,23 L-1,22 L1,20 L5,20 L5,25 L3,27 L3,32 L6,37 L5,41 L0,40 L-3,37 L-8,37 L-9,41 L-3,48 L8,49 L15,43 L16,35 L15,27 L15,20 L11,15 L7,13 Z M29,15 L22,21 L21,23 L21,39 L26,47 L28,49 L37,50 L44,47 L48,42 L50,35 L50,28 L47,21 L41,16 L39,15 Z " fill="#000000" transform="translate(879,539)"/>
<path d="M0,0 L5,0 L8,5 L9,15 L6,21 L0,22 L-3,19 L-4,10 L-2,1 Z " fill="#000000" transform="translate(912,560)"/>
<path d="M0,0 L157,0 L199,1 L203,3 L202,10 L195,11 L32,11 L0,10 L-3,8 L-3,2 Z " fill="#000000" transform="translate(592,782)"/>
<path d="M0,0 L91,0 L167,1 L217,1 L221,2 L247,2 L249,4 L248,10 L246,12 L158,12 L152,11 L146,12 L15,12 L3,11 L-2,10 L-4,8 L-3,2 Z " fill="#000000" transform="translate(592,804)"/>
<path d="M0,0 L133,0 L197,1 L215,1 L225,4 L226,8 L224,11 L219,12 L86,12 L-2,11 L-5,8 L-5,3 Z " fill="#000000" transform="translate(593,829)"/>
<path d="M0,0 L2,1 Z " fill="#000000" transform="translate(608,1182)"/>
</svg>
