<?xml version="1.0" encoding="UTF-8"?>
<!-- Generator: visioncortex VTracer 0.6.12 -->
<svg version="1.1" xmlns="http://www.w3.org/2000/svg" width="1308" height="1329">
<path d="M0,0 L4,1 L6,2 L101,2 L222,3 L346,3 L399,4 L432,4 L526,5 L609,5 L617,4 L628,3 L638,4 L656,4 L664,3 L667,5 L740,5 L797,6 L805,5 L832,6 L982,6 L1030,7 L1100,7 L1104,6 L1113,6 L1118,7 L1166,7 L1169,8 L1182,8 L1186,7 L1211,7 L1214,5 L1219,6 L1220,8 L1251,8 L1267,9 L1267,63 L1216,64 L1159,63 L1059,62 L974,62 L799,61 L582,60 L533,60 L420,59 L313,59 L227,58 L32,58 L-13,57 L-37,57 L-41,56 L-41,2 L-4,2 Z " fill="#000000" transform="translate(41,0)"/>
<path d="M0,0 L7,0 L14,2 L31,2 L57,3 L64,4 L111,4 L117,3 L121,4 L154,4 L202,5 L229,5 L259,6 L337,6 L343,7 L392,7 L472,8 L527,8 L574,9 L595,9 L670,10 L756,11 L786,11 L802,12 L824,12 L840,13 L861,13 L874,12 L928,13 L958,13 L995,14 L1004,14 L1008,12 L1013,13 L1016,17 L1019,31 L1018,60 L1015,224 L1014,290 L1013,383 L1012,408 L1012,420 L1011,440 L1012,454 L1011,475 L1011,502 L1010,564 L1009,605 L1007,690 L1007,761 L1005,811 L1004,912 L1003,970 L1003,1021 L1004,1030 L1001,1034 L933,1034 L891,1033 L787,1033 L738,1032 L663,1031 L596,1031 L578,1030 L548,1030 L540,1029 L517,1029 L497,1030 L491,1029 L456,1029 L382,1028 L330,1028 L276,1027 L247,1027 L30,1025 L3,1025 L-22,1022 L-25,1018 L-24,1009 L-23,1006 L-22,961 L-22,924 L-21,908 L-20,812 L-19,715 L-18,701 L-18,671 L-17,640 L-16,561 L-14,496 L-14,466 L-13,408 L-12,375 L-12,349 L-11,313 L-11,271 L-10,248 L-9,215 L-9,189 L-8,164 L-8,144 L-6,25 L-7,11 L-2,1 Z M16,14 L9,17 L8,18 L7,29 L5,116 L4,179 L3,198 L3,243 L2,298 L1,363 L1,389 L0,412 L-2,557 L-3,573 L-3,595 L-4,618 L-4,692 L-5,745 L-6,759 L-6,789 L-7,817 L-9,951 L-10,983 L-10,999 L-8,1007 L-5,1010 L5,1012 L43,1012 L63,1013 L90,1012 L115,1013 L189,1013 L227,1014 L241,1015 L251,1014 L304,1015 L348,1015 L402,1016 L487,1016 L553,1017 L588,1017 L651,1018 L657,1019 L705,1019 L754,1020 L804,1020 L828,1021 L868,1021 L874,1020 L889,1020 L892,1021 L943,1021 L953,1022 L982,1022 L988,1019 L990,1013 L991,969 L991,937 L992,909 L992,880 L993,814 L993,792 L994,768 L994,741 L995,702 L996,625 L997,595 L997,553 L998,528 L999,459 L1000,422 L1000,398 L1001,380 L1001,335 L1002,299 L1003,215 L1005,122 L1005,101 L1006,57 L1006,31 L1002,26 L871,23 L852,24 L802,23 L769,23 L711,22 L697,22 L666,21 L622,21 L595,20 L442,19 L398,18 L318,18 L313,17 L303,18 L301,17 L250,17 L211,16 L162,16 L88,15 L81,14 L57,15 L39,14 Z " fill="#000000" transform="translate(157,121)"/>
<path d="M0,0 L130,0 L169,2 L196,2 L204,1 L220,1 L234,2 L295,3 L347,2 L411,3 L433,3 L482,4 L508,4 L514,5 L520,4 L535,4 L576,5 L595,5 L608,6 L725,6 L751,7 L786,7 L791,8 L811,9 L825,8 L837,11 L843,15 L845,19 L846,41 L845,87 L843,126 L843,151 L841,215 L840,290 L839,304 L839,333 L838,350 L838,391 L836,422 L836,454 L834,497 L830,503 L828,505 L812,506 L763,505 L751,505 L740,504 L726,505 L661,505 L649,503 L633,504 L613,504 L588,503 L543,503 L499,502 L405,502 L344,501 L280,501 L250,500 L181,500 L174,499 L86,499 L76,500 L64,500 L24,498 L7,499 L-38,500 L-47,499 L-54,494 L-56,490 L-56,469 L-55,463 L-55,431 L-54,415 L-54,378 L-52,329 L-52,296 L-51,244 L-50,231 L-50,180 L-49,173 L-48,119 L-47,107 L-47,70 L-46,54 L-45,21 L-42,9 L-35,4 L-28,1 Z M89,16 L68,17 L-3,17 L-6,18 L-19,18 L-26,20 L-30,25 L-33,61 L-33,82 L-34,134 L-36,171 L-36,189 L-37,220 L-38,299 L-38,310 L-39,321 L-39,339 L-40,361 L-41,418 L-42,453 L-40,471 L-37,476 L-35,478 L-31,479 L-6,481 L38,482 L42,481 L68,482 L74,483 L82,483 L84,482 L117,482 L127,484 L146,483 L250,483 L262,484 L340,484 L346,485 L430,485 L439,486 L486,485 L508,485 L532,486 L536,487 L571,487 L588,488 L634,487 L640,486 L643,487 L677,487 L683,488 L700,488 L705,489 L810,489 L817,486 L820,482 L822,470 L824,425 L826,324 L827,285 L827,264 L828,254 L828,212 L829,170 L829,142 L830,112 L831,105 L831,32 L827,26 L818,24 L791,24 L780,23 L694,23 L692,22 L655,22 L612,21 L565,21 L552,20 L505,20 L448,19 L355,19 L299,18 L283,17 L226,17 L219,16 L212,17 L98,17 Z " fill="#000000" transform="translate(258,383)"/>
<path d="M0,0 L14,1 L17,0 L36,0 L69,3 L77,7 L85,10 L87,13 L88,20 L87,67 L86,96 L86,105 L84,121 L79,126 L70,132 L2,132 L-18,131 L-25,132 L-31,128 L-38,117 L-39,114 L-40,74 L-41,57 L-40,51 L-38,19 L-35,9 L-30,3 L-22,1 L-7,1 Z M-3,26 L-11,29 L-14,36 L-15,54 L-15,100 L-13,106 L-8,110 L0,111 L49,111 L59,109 L62,105 L64,98 L64,44 L62,35 L58,30 L55,28 L39,27 L25,27 L15,26 Z " fill="#000000" transform="translate(956,436)"/>
<path d="M0,0 L47,1 L107,1 L120,2 L210,3 L221,2 L224,3 L264,4 L273,5 L295,5 L302,4 L314,4 L363,6 L386,7 L391,10 L393,12 L394,24 L390,28 L386,30 L378,31 L268,31 L263,30 L181,30 L167,29 L153,30 L110,29 L86,29 L66,28 L60,27 L57,28 L4,28 L-9,27 L-16,23 L-17,17 L-11,10 L-7,2 Z " fill="#000000" transform="translate(422,611)"/>
<path d="M0,0 L8,0 L16,1 L83,1 L93,2 L154,3 L179,2 L186,3 L224,4 L256,4 L271,5 L306,5 L351,7 L358,10 L359,11 L358,25 L354,30 L350,32 L136,32 L132,31 L107,30 L75,31 L62,30 L42,31 L32,30 L-1,30 L-13,27 L-18,22 L-21,15 L-22,7 L-19,2 L-15,1 Z " fill="#000000" transform="translate(567,695)"/>
<path d="M0,0 L102,0 L119,1 L168,2 L188,2 L199,1 L200,2 L219,3 L246,3 L274,4 L287,6 L291,9 L292,12 L292,25 L287,29 L278,34 L265,33 L218,32 L133,32 L117,31 L69,31 L52,30 L49,29 L38,29 L31,30 L3,29 L-5,24 L-7,21 L-7,12 L-5,3 Z " fill="#000000" transform="translate(710,788)"/>
<path d="M0,0 L5,1 L8,6 L8,32 L7,45 L7,63 L6,79 L2,84 L-5,85 L-10,80 L-11,73 L-10,55 L-9,10 L-6,4 Z " fill="#000000" transform="translate(141,1204)"/>
<path d="M0,0 L9,0 L14,3 L19,17 L26,37 L32,55 L36,65 L39,78 L38,82 L34,84 L28,84 L24,80 L18,63 L18,61 L7,59 L-9,59 L-14,64 L-19,75 L-23,81 L-24,82 L-31,82 L-34,79 L-33,70 L-29,61 L-22,46 L-17,33 L-11,20 L-3,3 Z M2,24 L-2,32 L-3,36 L-3,44 L-1,46 L8,47 L11,45 L11,37 L8,26 L6,24 Z " fill="#000000" transform="translate(192,1208)"/>
<path d="M0,0 L36,1 L57,2 L61,5 L61,11 L57,15 L42,15 L38,16 L36,22 L35,32 L34,62 L33,76 L30,82 L23,83 L19,79 L19,51 L20,21 L18,16 L15,15 L-1,14 L-4,11 L-4,4 Z " fill="#000000" transform="translate(245,1209)"/>
<path d="M0,0 L10,2 L14,7 L22,30 L26,42 L28,50 L38,75 L38,83 L33,86 L27,85 L22,81 L16,64 L12,62 L1,61 L-11,61 L-15,64 L-18,71 L-24,81 L-33,83 L-37,79 L-35,69 L-29,56 L-22,40 L-15,27 L-12,18 L-4,3 Z M1,26 L-3,32 L-6,41 L-5,46 L-4,47 L8,47 L9,46 L8,36 L4,26 Z " fill="#000000" transform="translate(343,1210)"/>
</svg>
