<?xml version="1.0" encoding="UTF-8"?>
<!-- Generator: visioncortex VTracer 0.6.12 -->
<svg version="1.1" xmlns="http://www.w3.org/2000/svg" width="1128" height="1134">
<path d="M0,0 L1128,0 L1128,525 L1122,528 L1106,527 L1096,527 L1083,526 L1052,525 L931,525 L927,521 L928,516 L937,507 L944,499 L953,490 L958,485 L967,475 L972,466 L973,463 L974,447 L970,434 L964,427 L957,419 L947,413 L933,409 L922,409 L907,413 L897,420 L887,431 L882,436 L835,483 L830,488 L806,512 L801,517 L799,518 L790,517 L766,515 L754,513 L739,509 L728,508 L720,505 L704,501 L693,497 L673,490 L650,478 L629,468 L614,459 L604,453 L591,443 L580,435 L566,424 L556,415 L549,407 L547,403 L547,395 L551,389 L562,379 L567,374 L572,369 L578,364 L583,359 L587,355 L589,355 L591,351 L601,342 L613,331 L635,309 L643,303 L648,303 L662,315 L665,318 L665,320 L668,321 L672,327 L682,336 L700,354 L708,361 L724,376 L731,382 L733,383 L880,383 L911,382 L922,381 L923,377 L916,369 L907,359 L902,354 L866,318 L859,310 L851,303 L832,284 L825,276 L808,259 L808,257 L804,255 L793,244 L789,239 L781,232 L774,224 L772,223 L772,221 L770,221 L766,216 L761,212 L757,206 L751,201 L744,193 L736,186 L736,184 L732,182 L723,176 L715,171 L702,167 L684,167 L673,171 L663,179 L661,182 L659,182 L658,185 L650,192 L643,198 L636,206 L628,213 L600,241 L598,241 L596,245 L584,256 L572,268 L564,275 L546,293 L538,300 L532,307 L524,314 L519,319 L514,324 L506,331 L502,335 L495,336 L486,331 L476,320 L465,306 L457,298 L454,293 L444,286 L433,275 L422,267 L414,261 L403,253 L380,238 L359,227 L343,219 L329,213 L316,208 L311,206 L303,204 L282,197 L258,191 L222,185 L218,184 L209,184 L202,185 L193,183 L153,184 L133,187 L123,188 L102,193 L100,194 L85,196 L78,200 L76,203 L75,208 L74,299 L74,321 L73,386 L73,503 L75,507 L81,508 L87,503 L88,499 L89,482 L89,363 L90,352 L90,320 L91,283 L92,262 L92,228 L95,220 L99,216 L113,211 L124,209 L132,207 L152,205 L189,203 L200,203 L219,205 L235,207 L254,211 L257,212 L269,213 L280,217 L289,219 L304,224 L322,232 L333,236 L354,246 L371,256 L382,263 L392,269 L402,277 L414,286 L419,291 L419,293 L421,293 L426,298 L443,314 L451,323 L453,327 L452,334 L449,337 L296,337 L271,338 L263,342 L258,347 L253,355 L250,366 L250,376 L255,388 L259,393 L266,399 L271,401 L280,402 L333,402 L371,403 L488,403 L515,402 L521,406 L527,415 L536,425 L545,434 L556,443 L571,457 L582,464 L595,473 L610,481 L617,485 L648,501 L668,509 L681,513 L686,516 L712,523 L719,525 L739,529 L765,533 L772,537 L774,539 L774,545 L762,556 L747,571 L742,576 L735,582 L728,587 L722,596 L713,605 L709,612 L708,616 L708,630 L712,643 L719,653 L730,663 L740,667 L750,669 L760,669 L770,666 L786,658 L791,656 L793,652 L832,613 L834,613 L836,609 L844,602 L849,596 L854,591 L857,590 L859,586 L881,564 L888,556 L893,551 L903,541 L908,536 L917,537 L939,538 L1018,540 L1031,541 L1063,541 L1103,543 L1119,544 L1128,543 L1128,1134 L0,1134 Z M513,87 L498,91 L487,97 L474,108 L469,113 L462,123 L455,136 L449,140 L443,141 L423,141 L415,145 L413,148 L413,156 L417,161 L422,163 L446,163 L454,167 L458,173 L462,183 L468,194 L478,205 L486,211 L494,216 L503,220 L516,223 L533,223 L543,221 L554,217 L565,211 L569,207 L575,204 L582,194 L589,184 L593,172 L594,167 L594,148 L590,133 L584,121 L573,108 L566,101 L553,93 L544,89 L535,87 Z M660,333 L659,337 L661,341 L665,340 L665,335 Z M267,410 L262,414 L261,416 L261,422 L268,423 L272,419 L274,414 L273,410 Z M100,552 L96,555 L97,561 L101,563 L107,563 L108,559 L103,552 Z M818,661 L806,664 L796,670 L792,674 L792,676 L789,677 L784,689 L783,692 L783,700 L785,710 L789,717 L806,734 L812,741 L817,746 L832,760 L855,783 L862,791 L869,797 L876,805 L884,812 L891,820 L929,858 L934,863 L960,889 L972,895 L989,894 L999,890 L1007,883 L1013,875 L1017,864 L1017,851 L1013,841 L1006,832 L987,813 L982,807 L974,800 L963,788 L947,772 L942,767 L933,757 L928,752 L891,715 L886,709 L881,704 L869,693 L859,683 L854,677 L846,670 L836,664 L826,661 Z M577,662 L572,669 L574,673 L578,672 L581,669 L581,663 Z M584,685 L582,688 L586,689 L586,685 Z " fill="#000000" transform="translate(0,0)"/>
<path d="M0,0 L7,1 L15,8 L18,13 L21,20 L21,29 L17,39 L13,45 L0,58 L-5,63 L-10,69 L-18,76 L-31,89 L-36,94 L-48,106 L-53,111 L-69,127 L-74,132 L-80,137 L-89,148 L-93,150 L-95,154 L-101,161 L-109,168 L-112,169 L-114,173 L-152,211 L-163,216 L-167,217 L-177,217 L-189,212 L-196,202 L-197,200 L-197,184 L-191,173 L-184,164 L-159,139 L-154,133 L-146,126 L-129,109 L-124,104 L-115,96 L-114,94 L-112,94 L-110,90 L-99,78 L-97,78 L-95,74 L-79,59 L-36,16 L-24,9 L-11,2 Z " fill="#000000" transform="translate(929,430)"/>
</svg>
