<?xml version="1.0" encoding="UTF-8"?>
<!-- Generator: visioncortex VTracer 0.6.12 -->
<svg version="1.1" xmlns="http://www.w3.org/2000/svg" width="1119" height="1101">
<path d="M0,0 L1119,0 L1119,24 L1117,23 L1115,13 L1104,10 L1063,10 L1055,11 L1033,11 L1028,10 L1006,10 L999,9 L983,9 L975,10 L930,8 L919,8 L902,9 L890,8 L839,9 L818,8 L778,8 L704,9 L695,8 L685,11 L678,10 L675,9 L644,8 L628,9 L465,9 L452,8 L407,8 L399,7 L298,7 L291,8 L283,7 L194,7 L190,6 L137,6 L124,7 L119,6 L81,7 L77,9 L65,11 L62,10 L8,9 L5,11 L4,34 L3,89 L2,115 L2,134 L0,135 Z " fill="#000000" transform="translate(0,0)"/>
<path d="M0,0 L2,1 L3,18 L2,26 L0,27 Z " fill="#000000" transform="translate(0,142)"/>
<path d="M0,0 L17,1 L25,3 L36,10 L47,19 L53,27 L58,36 L62,47 L64,60 L63,75 L58,89 L52,100 L38,113 L25,119 L7,123 L-6,121 L-10,119 L-18,118 L-23,113 L-34,105 L-44,93 L-48,85 L-52,75 L-53,70 L-53,51 L-49,40 L-45,31 L-40,22 L-33,15 L-22,8 L-14,4 Z " fill="#000000" transform="translate(440,152)"/>
<path d="M0,0 L2,1 L1,5 L0,5 Z " fill="#000000" transform="translate(0,189)"/>
<path d="M0,0 L5,2 L6,3 L6,26 L4,34 L0,39 L-2,39 L-2,41 L-7,45 L-9,45 L-9,47 L-14,51 L-20,60 L-31,68 L-36,73 L-47,84 L-52,90 L-60,96 L-65,101 L-70,104 L-72,104 L-74,108 L-82,115 L-84,119 L-95,127 L-99,132 L-107,139 L-117,148 L-125,156 L-130,160 L-134,164 L-139,168 L-144,173 L-149,179 L-158,186 L-173,200 L-183,209 L-195,220 L-207,231 L-212,234 L-217,240 L-219,240 L-219,242 L-224,246 L-229,251 L-237,258 L-247,267 L-250,270 L-254,273 L-256,273 L-257,276 L-262,281 L-268,286 L-273,291 L-280,297 L-285,302 L-293,309 L-298,314 L-315,330 L-326,339 L-331,344 L-342,354 L-350,361 L-355,367 L-365,375 L-378,387 L-391,399 L-396,404 L-401,408 L-405,413 L-415,421 L-423,428 L-434,439 L-442,446 L-446,453 L-447,456 L-449,497 L-450,538 L-452,561 L-453,567 L-453,595 L-454,596 L-464,596 L-476,590 L-484,586 L-496,575 L-503,567 L-507,561 L-511,550 L-514,542 L-517,530 L-521,526 L-527,525 L-533,529 L-539,537 L-544,541 L-548,543 L-554,550 L-565,559 L-565,572 L-564,577 L-563,624 L-562,633 L-563,636 L-563,696 L-562,711 L-560,718 L-552,728 L-545,735 L-538,741 L-532,748 L-524,755 L-515,765 L-509,769 L-502,777 L-494,787 L-486,793 L-477,801 L-470,802 L-460,796 L-454,791 L-447,783 L-444,782 L-442,778 L-437,773 L-426,764 L-421,760 L-417,758 L-411,750 L-401,742 L-396,736 L-388,730 L-382,725 L-380,725 L-378,721 L-363,707 L-353,699 L-341,687 L-333,680 L-323,671 L-315,664 L-308,657 L-303,654 L-300,648 L-295,644 L-286,639 L-277,630 L-272,625 L-265,619 L-260,614 L-256,609 L-245,602 L-238,594 L-232,587 L-226,583 L-218,576 L-216,576 L-214,572 L-201,560 L-196,555 L-184,546 L-179,540 L-172,535 L-168,530 L-162,526 L-155,518 L-147,513 L-139,506 L-134,501 L-127,495 L-122,489 L-117,484 L-102,471 L-91,461 L-83,454 L-79,450 L-77,450 L-75,446 L-66,437 L-58,431 L-56,431 L-56,429 L-45,420 L-37,412 L-32,407 L-24,400 L-17,392 L-10,384 L-4,379 L0,374 L6,374 L8,376 L8,388 L7,404 L3,410 L-5,417 L-10,422 L-15,427 L-21,434 L-29,441 L-39,450 L-41,450 L-43,454 L-47,456 L-47,458 L-55,465 L-66,476 L-71,479 L-75,484 L-83,490 L-96,502 L-104,509 L-108,514 L-118,522 L-123,527 L-128,531 L-133,536 L-141,544 L-147,549 L-149,549 L-149,551 L-158,558 L-164,565 L-172,571 L-184,582 L-193,589 L-202,598 L-207,603 L-212,607 L-218,614 L-222,615 L-222,617 L-229,623 L-234,628 L-242,635 L-247,640 L-257,648 L-261,653 L-270,660 L-283,672 L-285,675 L-287,675 L-288,678 L-299,687 L-316,703 L-320,705 L-321,708 L-323,708 L-323,710 L-331,716 L-337,721 L-343,728 L-349,732 L-354,737 L-359,741 L-363,746 L-371,753 L-381,762 L-389,769 L-394,774 L-401,780 L-409,787 L-420,798 L-430,806 L-440,816 L-442,816 L-443,819 L-450,824 L-452,824 L-454,828 L-460,834 L-462,834 L-462,836 L-464,836 L-465,839 L-472,844 L-477,849 L-488,860 L-497,867 L-507,876 L-514,883 L-524,891 L-531,899 L-539,906 L-544,911 L-552,918 L-564,929 L-567,930 L-569,934 L-579,943 L-587,950 L-597,959 L-609,970 L-618,977 L-628,984 L-642,991 L-654,997 L-663,999 L-672,1003 L-687,1005 L-700,1006 L-812,1006 L-830,1007 L-839,1007 L-843,1006 L-901,1007 L-988,1007 L-995,1008 L-1000,1004 L-1000,977 L-994,973 L-988,973 L-983,975 L-892,975 L-872,974 L-830,975 L-810,975 L-805,973 L-806,965 L-817,953 L-823,944 L-831,934 L-836,924 L-839,920 L-844,906 L-847,895 L-850,884 L-852,872 L-853,842 L-851,834 L-850,824 L-844,804 L-842,800 L-841,793 L-833,778 L-827,767 L-823,761 L-811,748 L-803,740 L-795,733 L-788,726 L-780,719 L-773,712 L-768,707 L-755,695 L-744,686 L-740,682 L-732,675 L-722,667 L-714,659 L-707,648 L-706,641 L-706,621 L-707,562 L-707,533 L-708,515 L-708,452 L-709,444 L-714,445 L-721,450 L-723,450 L-725,454 L-732,463 L-743,480 L-752,493 L-758,502 L-766,513 L-772,523 L-777,529 L-784,538 L-789,544 L-795,548 L-803,554 L-819,562 L-828,565 L-840,567 L-849,566 L-862,565 L-876,558 L-878,553 L-877,547 L-867,535 L-860,525 L-852,515 L-849,509 L-843,500 L-839,496 L-837,486 L-831,479 L-818,479 L-813,481 L-808,487 L-806,492 L-806,499 L-807,502 L-805,501 L-803,496 L-803,488 L-808,479 L-814,475 L-822,475 L-822,470 L-816,463 L-806,448 L-800,439 L-793,429 L-783,414 L-777,405 L-768,393 L-758,378 L-752,368 L-742,354 L-736,345 L-728,333 L-721,323 L-712,310 L-704,298 L-698,288 L-688,275 L-673,259 L-651,247 L-647,245 L-641,246 L-626,246 L-616,249 L-600,257 L-591,263 L-581,272 L-573,279 L-562,288 L-555,295 L-548,303 L-541,310 L-536,315 L-531,320 L-517,333 L-510,341 L-500,352 L-492,359 L-482,369 L-478,374 L-470,381 L-458,393 L-458,395 L-454,397 L-447,405 L-440,406 L-432,401 L-421,392 L-416,387 L-413,383 L-411,383 L-410,380 L-408,380 L-408,378 L-403,373 L-399,371 L-397,367 L-387,357 L-378,351 L-365,339 L-360,335 L-354,327 L-348,323 L-343,318 L-328,304 L-317,294 L-307,286 L-300,278 L-289,271 L-278,259 L-274,254 L-260,243 L-255,238 L-241,224 L-233,217 L-221,206 L-213,199 L-205,192 L-201,186 L-192,179 L-178,165 L-170,158 L-159,148 L-155,146 L-150,141 L-135,127 L-124,116 L-116,109 L-105,99 L-101,94 L-91,86 L-89,86 L-87,82 L-82,77 L-73,70 L-67,65 L-60,57 L-50,48 L-40,39 L-35,34 L-30,30 L-25,25 L-21,23 L-19,19 L-15,11 L-7,6 L-2,1 Z M-345,333 L-346,337 L-344,339 L-339,338 L-338,334 L-339,333 Z M-563,392 L-566,398 L-566,497 L-564,510 L-561,512 L-555,511 L-549,507 L-545,502 L-539,498 L-534,492 L-528,488 L-520,480 L-516,471 L-516,441 L-519,430 L-529,419 L-533,415 L-538,410 L-543,405 L-550,399 L-554,394 L-558,392 Z M-713,697 L-719,701 L-728,710 L-736,717 L-744,724 L-754,732 L-757,737 L-766,744 L-767,750 L-767,756 L-777,761 L-782,764 L-789,766 L-797,776 L-805,789 L-814,805 L-820,823 L-823,841 L-823,865 L-821,877 L-817,896 L-812,906 L-808,916 L-798,931 L-783,946 L-777,950 L-763,960 L-747,968 L-740,971 L-721,974 L-713,974 L-706,971 L-705,969 L-704,960 L-704,743 L-705,707 L-707,699 L-710,697 Z M-357,720 L-357,723 L-354,722 L-355,720 Z M-633,749 L-636,752 L-637,801 L-636,840 L-636,864 L-635,938 L-632,943 L-630,945 L-625,944 L-615,937 L-610,932 L-597,920 L-596,917 L-592,915 L-584,909 L-579,904 L-574,899 L-561,887 L-552,881 L-546,874 L-538,867 L-531,859 L-529,855 L-529,847 L-534,841 L-542,834 L-547,829 L-550,828 L-552,823 L-568,808 L-577,798 L-581,796 L-588,788 L-593,783 L-600,775 L-605,770 L-621,754 L-630,749 Z " fill="#000000" transform="translate(1084,50)"/>
<path d="M0,0 L1,0 L1,1075 L-1118,1075 L-1118,1061 L-1114,1063 L-1106,1064 L-1094,1063 L-1069,1063 L-1048,1064 L-1045,1065 L-994,1066 L-938,1067 L-935,1066 L-906,1065 L-897,1065 L-888,1064 L-863,1066 L-853,1066 L-846,1067 L-837,1067 L-830,1066 L-820,1066 L-817,1067 L-747,1067 L-743,1066 L-600,1066 L-587,1065 L-572,1065 L-564,1066 L-553,1066 L-540,1067 L-535,1066 L-474,1066 L-450,1067 L-409,1067 L-389,1068 L-383,1067 L-327,1067 L-314,1068 L-306,1067 L-287,1067 L-259,1066 L-245,1067 L-201,1067 L-172,1066 L-133,1066 L-123,1067 L-40,1067 L-20,1069 L-9,1069 L-4,1066 L-3,1062 L-3,1031 L-4,1025 L-4,1005 L-3,970 L-3,939 L-4,897 L-3,868 L-3,785 L-4,744 L-3,631 L-2,601 L-1,583 L-3,568 L-4,536 L-3,355 L-3,177 L-2,166 L-3,162 L-3,128 L-2,125 L-2,116 L-3,112 L-2,80 L-3,75 L-3,41 L-2,33 L-3,23 L-2,6 Z " fill="#000000" transform="translate(1118,26)"/>
</svg>
