<?xml version="1.0" encoding="UTF-8"?>
<!-- Generator: visioncortex VTracer 0.6.12 -->
<svg version="1.1" xmlns="http://www.w3.org/2000/svg" width="1128" height="1107">
<path d="M0,0 L14,0 L11,3 L8,6 L7,18 L7,70 L6,127 L6,248 L5,351 L5,395 L4,608 L4,664 L3,833 L3,870 L2,939 L2,966 L0,968 Z " fill="#000000" transform="translate(0,0)"/>
<path d="M0,0 L26,0 L26,1 L13,2 L1,2 Z " fill="#000000" transform="translate(18,0)"/>
<path d="M0,0 L45,0 L44,2 L5,2 L0,1 Z " fill="#000000" transform="translate(48,0)"/>
<path d="M0,0 L49,0 L47,2 L5,2 L0,1 Z " fill="#000000" transform="translate(122,0)"/>
<path d="M0,0 L6,0 L2,2 Z " fill="#000000" transform="translate(228,0)"/>
<path d="M0,0 L16,0 L16,1 L0,1 Z " fill="#000000" transform="translate(265,0)"/>
<path d="M0,0 L12,0 L10,2 L0,1 Z " fill="#000000" transform="translate(289,0)"/>
<path d="M0,0 L22,0 L19,2 L2,2 Z " fill="#000000" transform="translate(324,0)"/>
<path d="M0,0 L10,0 L9,2 L0,1 Z " fill="#000000" transform="translate(362,0)"/>
<path d="M0,0 L735,0 L735,8 L728,6 L706,5 L663,5 L585,4 L582,5 L506,5 L497,4 L383,4 L278,3 L89,3 L84,2 L76,3 L4,2 Z " fill="#000000" transform="translate(393,0)"/>
<path d="M0,0 L1,0 L1,31 L-1,27 L-1,3 Z " fill="#000000" transform="translate(1127,374)"/>
<path d="M0,0 L1,0 L1,693 L-10,693 L-9,690 L-6,687 L-5,660 L-4,504 L-4,462 L-3,346 L-2,88 L-1,30 L-1,1 Z " fill="#000000" transform="translate(1127,414)"/>
<path d="M0,0 L117,1 L257,2 L305,2 L320,3 L512,3 L552,4 L604,4 L722,5 L785,5 L803,6 L811,12 L815,18 L819,33 L821,46 L827,73 L830,90 L834,109 L836,121 L836,208 L838,217 L841,226 L841,244 L839,250 L837,252 L688,252 L683,254 L680,263 L670,282 L662,293 L652,301 L647,305 L646,309 L667,310 L737,311 L809,311 L838,312 L841,314 L840,318 L839,319 L802,320 L738,319 L608,319 L541,318 L512,318 L432,317 L341,317 L298,316 L40,316 L-35,315 L-98,315 L-116,314 L-124,314 L-125,309 L-121,306 L3,306 L35,305 L36,301 L29,296 L24,291 L19,287 L9,272 L5,264 L1,253 L-2,249 L-8,247 L-76,247 L-102,246 L-110,242 L-116,235 L-117,232 L-118,208 L-118,124 L-115,115 L-107,99 L-99,83 L-91,67 L-83,51 L-74,34 L-66,17 L-59,7 L-49,1 Z M-39,22 L-46,26 L-51,35 L-60,52 L-66,67 L-70,73 L-74,84 L-79,94 L-85,107 L-86,113 L-85,116 L-78,118 L-39,119 L3,119 L37,120 L64,119 L69,117 L71,107 L71,37 L70,28 L67,24 L64,23 L23,22 Z M134,22 L101,23 L92,24 L89,29 L88,78 L89,113 L94,118 L102,120 L209,120 L215,116 L216,115 L217,101 L217,31 L214,25 L210,23 Z M247,23 L236,24 L232,28 L231,87 L232,115 L238,120 L352,121 L360,118 L361,116 L362,106 L362,92 L363,76 L362,46 L361,28 L357,25 L314,23 Z M389,24 L380,25 L377,28 L376,37 L376,111 L379,118 L386,121 L446,122 L502,122 L508,118 L509,110 L509,35 L507,28 L502,25 L487,25 L481,24 Z M534,25 L528,28 L526,33 L525,64 L525,81 L526,112 L528,119 L534,122 L563,123 L650,123 L655,118 L656,108 L657,83 L656,37 L654,30 L649,27 L643,26 L607,26 L587,25 Z M679,26 L673,29 L671,33 L671,115 L673,120 L678,123 L735,124 L796,124 L801,122 L803,120 L803,113 L797,93 L790,70 L787,61 L780,41 L774,32 L767,28 L762,27 Z M145,247 L139,250 L135,259 L129,274 L127,278 L125,278 L119,287 L109,296 L102,302 L103,306 L109,307 L145,308 L229,308 L238,309 L247,308 L262,309 L296,309 L338,310 L571,310 L579,309 L581,307 L580,303 L569,295 L560,284 L555,276 L548,262 L544,254 L541,251 L535,250 L466,249 L379,249 L374,248 L287,248 L253,247 Z " fill="#000000" transform="translate(216,420)"/>
<path d="M0,0 L2,0 L5,4 L31,5 L298,5 L722,6 L772,6 L790,7 L795,4 L800,7 L819,7 L823,9 L0,9 Z " fill="#000000" transform="translate(0,1098)"/>
<path d="M0,0 L6,0 L6,1 L0,1 Z " fill="#000000" transform="translate(835,1106)"/>
</svg>
