<?xml version="1.0" encoding="UTF-8"?>
<!-- Generator: visioncortex VTracer 0.6.12 -->
<svg version="1.1" xmlns="http://www.w3.org/2000/svg" width="1143" height="1134">
<path d="M0,0 L1143,0 L1143,1134 L0,1134 Z M959,31 L948,33 L941,33 L928,38 L916,41 L900,49 L892,54 L881,62 L873,69 L863,79 L855,86 L848,94 L838,104 L831,110 L826,115 L818,122 L810,131 L799,140 L794,146 L786,153 L773,166 L768,171 L764,176 L756,183 L747,191 L742,196 L733,205 L728,209 L722,216 L714,223 L709,229 L701,236 L673,264 L669,268 L661,275 L634,302 L629,307 L615,320 L608,328 L595,341 L590,346 L575,360 L568,368 L560,374 L552,383 L547,388 L542,392 L536,399 L531,404 L523,411 L523,413 L519,415 L518,416 L513,416 L511,413 L511,343 L509,326 L506,316 L496,301 L489,295 L484,291 L469,284 L470,277 L476,272 L482,263 L483,259 L483,244 L477,233 L470,227 L462,223 L448,223 L440,226 L432,234 L427,244 L426,253 L429,265 L436,274 L441,280 L440,284 L428,289 L419,295 L410,304 L402,319 L399,335 L398,529 L394,538 L386,546 L381,550 L378,554 L378,556 L374,558 L368,563 L363,568 L352,579 L352,581 L348,583 L343,589 L335,595 L331,600 L323,607 L310,620 L301,631 L292,639 L285,647 L275,656 L246,685 L238,692 L229,701 L221,708 L205,724 L200,729 L193,736 L193,738 L189,740 L182,746 L175,754 L170,759 L170,761 L165,763 L157,771 L154,776 L145,783 L134,794 L129,799 L122,806 L117,811 L112,815 L106,822 L98,829 L93,835 L85,842 L73,854 L68,859 L59,868 L49,882 L41,898 L37,908 L31,927 L29,941 L29,953 L28,956 L28,969 L33,997 L40,1016 L49,1032 L56,1042 L63,1050 L71,1059 L76,1064 L86,1072 L94,1078 L115,1089 L129,1094 L140,1097 L155,1099 L162,1100 L182,1100 L197,1098 L219,1093 L236,1086 L245,1080 L254,1075 L264,1067 L277,1054 L282,1049 L288,1044 L294,1039 L299,1033 L307,1026 L313,1018 L327,1005 L331,1000 L339,993 L380,952 L385,947 L406,926 L414,919 L425,909 L425,907 L429,905 L434,899 L442,892 L458,876 L463,871 L488,846 L496,839 L530,805 L535,800 L567,768 L575,761 L587,748 L595,741 L604,732 L610,727 L615,722 L624,712 L629,708 L634,703 L639,698 L648,690 L653,685 L662,676 L667,671 L677,661 L685,654 L689,649 L693,646 L693,644 L697,642 L706,633 L706,631 L710,629 L716,624 L716,622 L720,620 L728,611 L735,606 L740,601 L749,591 L754,587 L758,582 L766,575 L771,569 L779,562 L803,538 L811,531 L818,525 L825,517 L832,510 L837,505 L849,493 L854,488 L859,483 L864,479 L871,471 L885,457 L890,452 L897,445 L897,443 L901,441 L913,430 L913,428 L917,426 L922,420 L928,415 L935,407 L945,398 L950,394 L959,383 L966,376 L970,373 L970,371 L974,369 L975,366 L979,364 L990,353 L995,348 L1006,338 L1013,330 L1023,321 L1032,311 L1037,307 L1044,299 L1056,288 L1061,284 L1068,276 L1081,263 L1089,253 L1095,244 L1104,227 L1107,217 L1109,206 L1113,191 L1114,179 L1114,157 L1109,135 L1106,125 L1098,109 L1095,106 L1091,96 L1084,86 L1075,76 L1068,69 L1062,65 L1055,59 L1041,51 L1025,43 L1011,36 L999,35 L995,33 L983,31 Z M177,276 L178,282 L179,289 L182,289 L183,280 L181,276 Z " fill="#000000" transform="translate(0,0)"/>
<path d="M0,0 L72,0 L110,1 L134,1 L147,2 L152,6 L153,17 L154,58 L154,135 L153,151 L150,160 L144,169 L136,176 L129,179 L113,179 L103,175 L98,171 L91,159 L89,152 L89,136 L87,116 L83,115 L75,122 L49,148 L44,153 L32,165 L26,170 L19,178 L9,187 L2,195 L-3,200 L-12,207 L-23,219 L-25,219 L-27,223 L-35,230 L-52,247 L-60,254 L-65,258 L-72,266 L-83,278 L-90,284 L-97,292 L-102,296 L-107,301 L-119,312 L-124,318 L-130,323 L-137,331 L-149,343 L-151,343 L-153,347 L-164,358 L-169,363 L-176,369 L-181,375 L-189,382 L-198,391 L-203,396 L-213,406 L-218,411 L-221,414 L-223,414 L-225,418 L-232,424 L-237,429 L-257,449 L-262,454 L-267,460 L-275,467 L-283,474 L-289,481 L-297,488 L-305,496 L-310,501 L-315,505 L-322,513 L-332,522 L-347,537 L-355,544 L-365,555 L-373,562 L-385,573 L-390,578 L-397,585 L-402,590 L-412,600 L-417,605 L-428,616 L-433,621 L-439,628 L-448,635 L-454,642 L-459,647 L-469,656 L-474,661 L-481,669 L-486,674 L-492,681 L-500,688 L-529,717 L-539,725 L-546,733 L-552,738 L-559,746 L-574,760 L-585,769 L-591,772 L-608,772 L-620,767 L-625,762 L-629,756 L-632,747 L-632,737 L-628,726 L-617,713 L-610,706 L-602,699 L-572,669 L-565,663 L-559,656 L-553,651 L-549,646 L-538,637 L-518,617 L-513,612 L-491,590 L-486,585 L-471,570 L-464,562 L-456,553 L-448,546 L-443,540 L-435,533 L-409,507 L-404,502 L-387,486 L-379,479 L-372,471 L-360,460 L-351,450 L-349,450 L-348,447 L-340,440 L-336,435 L-325,426 L-318,418 L-301,402 L-272,373 L-264,366 L-253,355 L-248,350 L-230,332 L-225,327 L-220,322 L-204,306 L-199,301 L-191,294 L-184,286 L-176,279 L-171,274 L-159,261 L-151,254 L-135,238 L-129,233 L-122,225 L-107,211 L-102,207 L-95,199 L-86,190 L-84,190 L-82,186 L-75,178 L-70,174 L-68,174 L-66,170 L-60,165 L-53,157 L-50,156 L-48,152 L-35,140 L-24,128 L-22,128 L-22,126 L-18,124 L-12,116 L-4,109 L7,98 L12,94 L19,86 L27,79 L35,69 L36,64 L8,62 L0,62 L-12,58 L-18,53 L-26,41 L-27,31 L-26,19 L-19,9 L-14,5 L-9,2 Z " fill="#000000" transform="translate(794,194)"/>
</svg>
