<?xml version="1.0" encoding="UTF-8"?>
<!-- Generator: visioncortex VTracer 0.6.12 -->
<svg version="1.1" xmlns="http://www.w3.org/2000/svg" width="1110" height="1251">
<path d="M0,0 L60,1 L143,3 L202,4 L238,5 L289,5 L306,6 L356,6 L371,7 L393,7 L426,8 L462,8 L471,9 L579,11 L611,11 L647,12 L768,14 L848,16 L949,17 L1022,18 L1047,18 L1070,19 L1076,22 L1077,26 L1077,96 L1076,157 L1074,230 L1071,394 L1070,443 L1067,601 L1066,658 L1065,722 L1064,771 L1063,833 L1062,917 L1060,1023 L1059,1092 L1058,1138 L1057,1165 L1056,1178 L1053,1182 L1050,1183 L1006,1183 L868,1181 L805,1180 L679,1178 L567,1177 L488,1176 L423,1175 L255,1172 L206,1172 L192,1171 L69,1169 L8,1168 L0,1167 L0,980 L3,981 L7,991 L16,1007 L24,1019 L35,1033 L44,1043 L51,1050 L68,1063 L87,1075 L97,1080 L107,1084 L120,1089 L143,1095 L169,1098 L185,1098 L205,1096 L230,1091 L241,1087 L254,1083 L265,1077 L276,1070 L282,1066 L295,1056 L300,1052 L302,1052 L304,1048 L314,1039 L329,1025 L340,1013 L348,1006 L356,999 L361,993 L368,987 L373,982 L385,970 L390,965 L397,959 L401,954 L406,949 L411,944 L424,932 L430,925 L438,918 L464,892 L469,887 L474,883 L481,875 L492,864 L494,864 L496,860 L508,849 L512,844 L520,837 L544,813 L551,804 L558,797 L560,797 L562,793 L571,785 L576,780 L590,765 L592,765 L594,761 L605,751 L612,743 L620,735 L628,728 L633,723 L659,697 L667,690 L680,677 L685,672 L696,661 L701,656 L706,651 L750,607 L755,602 L761,597 L768,589 L796,561 L801,556 L815,542 L820,538 L824,533 L831,527 L833,524 L835,524 L837,520 L841,518 L842,515 L844,515 L845,512 L853,505 L857,500 L859,500 L860,497 L865,492 L868,491 L869,488 L871,488 L873,484 L881,476 L889,469 L893,464 L901,457 L939,419 L946,411 L956,398 L962,389 L970,376 L978,359 L983,346 L990,320 L992,307 L993,295 L993,265 L989,240 L981,212 L976,201 L968,185 L958,169 L944,151 L928,135 L919,128 L908,121 L895,113 L876,103 L858,97 L850,94 L827,90 L818,89 L798,89 L779,90 L763,93 L746,97 L724,106 L707,116 L702,119 L692,126 L677,139 L670,145 L665,150 L547,268 L544,273 L536,280 L522,294 L517,300 L512,304 L511,306 L509,306 L509,308 L501,315 L496,321 L494,321 L494,323 L488,328 L487,330 L485,330 L485,332 L478,338 L473,343 L445,371 L440,376 L434,381 L428,388 L420,395 L412,402 L407,401 L406,399 L405,346 L401,330 L396,317 L390,307 L381,296 L376,291 L367,284 L353,276 L335,270 L329,269 L305,269 L286,274 L270,282 L258,291 L251,298 L243,309 L237,319 L232,332 L229,345 L228,354 L227,379 L227,473 L230,476 L233,477 L256,478 L263,481 L265,486 L265,545 L261,553 L256,559 L248,566 L232,582 L230,582 L228,586 L220,594 L218,594 L216,598 L196,618 L194,618 L192,622 L185,629 L177,636 L170,644 L164,649 L158,656 L150,663 L145,669 L137,676 L123,690 L121,690 L119,694 L110,703 L102,710 L43,769 L36,777 L27,788 L17,802 L12,810 L6,824 L2,832 L0,833 Z M314,157 L303,161 L294,167 L287,173 L281,182 L277,193 L276,199 L276,210 L279,222 L284,232 L292,241 L302,247 L311,251 L331,251 L342,247 L351,241 L356,236 L363,226 L367,213 L368,203 L367,194 L363,183 L356,172 L346,163 L332,157 Z " fill="#000000" transform="translate(0,35)"/>
<path d="M0,0 L14,0 L34,3 L52,9 L72,19 L86,31 L95,39 L106,53 L113,65 L120,79 L125,96 L128,110 L128,143 L123,165 L117,181 L110,194 L100,208 L91,218 L85,225 L77,232 L72,237 L64,246 L62,246 L62,248 L58,252 L56,252 L54,256 L50,258 L50,260 L44,265 L43,267 L41,267 L40,270 L38,270 L36,274 L31,279 L19,290 L2,307 L-3,312 L-26,335 L-31,339 L-38,347 L-50,358 L-115,423 L-120,428 L-146,454 L-148,454 L-150,458 L-159,466 L-165,473 L-170,477 L-177,485 L-182,489 L-186,494 L-188,494 L-189,497 L-194,501 L-199,506 L-208,516 L-221,529 L-227,534 L-232,539 L-251,558 L-258,566 L-264,572 L-266,572 L-267,575 L-272,579 L-279,587 L-284,591 L-291,599 L-298,605 L-302,610 L-310,617 L-315,623 L-323,630 L-371,678 L-373,678 L-375,682 L-386,692 L-390,697 L-398,704 L-419,725 L-424,730 L-458,764 L-463,769 L-470,776 L-477,782 L-482,787 L-510,815 L-518,822 L-531,835 L-542,844 L-551,852 L-568,862 L-586,870 L-606,874 L-616,875 L-633,875 L-655,871 L-673,864 L-688,856 L-700,847 L-713,835 L-721,825 L-728,814 L-735,800 L-741,782 L-744,766 L-744,739 L-741,722 L-733,699 L-727,689 L-719,677 L-710,666 L-701,656 L-689,644 L-684,639 L-677,631 L-669,624 L-664,619 L-658,611 L-650,605 L-643,597 L-638,592 L-619,573 L-614,568 L-608,563 L-601,555 L-596,550 L-590,544 L-588,544 L-586,540 L-576,531 L-527,482 L-522,477 L-474,429 L-469,424 L-402,357 L-400,357 L-398,353 L-391,347 L-384,339 L-377,333 L-372,327 L-364,320 L-331,287 L-329,287 L-329,285 L-323,280 L-316,272 L-305,262 L-304,260 L-302,260 L-301,257 L-299,257 L-298,254 L-290,247 L-278,234 L-275,233 L-274,230 L-269,226 L-262,218 L-255,212 L-248,204 L-225,181 L-220,176 L-187,143 L-185,143 L-183,139 L-179,137 L-177,133 L-169,125 L-164,120 L-154,110 L-152,110 L-150,106 L-144,101 L-137,93 L-131,88 L-127,83 L-125,83 L-125,81 L-120,76 L-105,62 L-100,57 L-94,50 L-86,43 L-81,38 L-78,35 L-76,35 L-74,31 L-61,21 L-51,14 L-41,9 L-22,3 L-12,1 Z M-183,187 L-192,193 L-197,198 L-221,222 L-228,230 L-235,236 L-240,243 L-240,248 L-238,249 L-219,251 L-203,251 L-179,252 L-178,257 L-185,266 L-209,290 L-214,294 L-219,299 L-220,302 L-225,304 L-230,311 L-238,318 L-242,323 L-250,330 L-257,338 L-262,344 L-270,351 L-306,387 L-311,392 L-320,401 L-324,407 L-323,413 L-314,423 L-303,435 L-296,443 L-290,448 L-285,454 L-282,456 L-277,456 L-264,444 L-259,440 L-251,430 L-246,425 L-209,388 L-204,383 L-196,375 L-191,370 L-182,362 L-175,354 L-170,349 L-155,335 L-150,329 L-143,324 L-136,316 L-133,314 L-133,312 L-129,310 L-125,309 L-123,313 L-121,373 L-118,376 L-113,374 L-100,361 L-94,354 L-86,347 L-81,342 L-66,327 L-61,322 L-57,316 L-56,303 L-56,229 L-57,197 L-59,190 L-61,188 L-76,187 Z M-397,634 L-398,639 L-396,644 L-392,645 L-390,642 L-390,635 L-391,634 Z " fill="#000000" transform="translate(798,191)"/>
</svg>
