<?xml version="1.0" encoding="UTF-8"?>
<!-- Generator: visioncortex VTracer 0.6.12 -->
<svg version="1.1" xmlns="http://www.w3.org/2000/svg" width="435" height="696">
<path d="M0,0 L5,1 L10,13 L15,25 L22,41 L27,53 L36,67 L44,83 L52,99 L60,115 L67,131 L77,144 L82,159 L89,172 L100,187 L105,196 L113,207 L112,212 L102,216 L99,217 L90,217 L72,213 L69,212 L60,212 L53,214 L52,216 L53,225 L60,235 L67,248 L75,261 L86,279 L98,294 L105,304 L113,316 L116,322 L125,330 L131,339 L141,352 L146,357 L146,362 L141,365 L132,364 L113,363 L96,360 L81,356 L69,356 L67,360 L68,366 L74,376 L80,383 L89,395 L98,407 L103,416 L111,425 L118,437 L125,444 L134,458 L141,467 L147,476 L155,487 L163,496 L168,501 L178,512 L184,517 L190,525 L190,532 L187,535 L184,536 L177,536 L160,531 L149,530 L129,525 L115,522 L103,520 L90,517 L78,515 L66,510 L52,506 L47,504 L38,503 L30,504 L28,508 L28,522 L29,524 L29,571 L28,582 L28,615 L27,624 L25,626 L18,626 L5,622 L-3,618 L-13,616 L-18,612 L-19,610 L-19,552 L-17,549 L-18,534 L-17,525 L-17,510 L-22,503 L-26,501 L-35,502 L-58,510 L-71,515 L-92,519 L-102,522 L-117,526 L-129,528 L-145,532 L-148,533 L-164,535 L-166,536 L-172,536 L-175,533 L-175,526 L-166,517 L-162,511 L-153,503 L-144,491 L-136,481 L-128,470 L-115,451 L-112,446 L-108,440 L-104,434 L-100,427 L-91,417 L-79,397 L-72,390 L-62,375 L-57,367 L-56,359 L-58,353 L-63,351 L-71,351 L-83,357 L-99,361 L-111,364 L-126,366 L-132,368 L-137,368 L-139,366 L-138,361 L-134,355 L-132,355 L-130,351 L-119,336 L-106,317 L-99,307 L-91,293 L-86,285 L-74,265 L-71,260 L-63,250 L-53,233 L-49,226 L-48,223 L-48,212 L-51,208 L-55,207 L-65,209 L-74,212 L-84,213 L-97,218 L-104,218 L-106,216 L-106,209 L-96,190 L-87,176 L-78,160 L-71,145 L-67,137 L-59,122 L-48,97 L-42,87 L-34,71 L-23,50 L-18,39 L-14,31 L-9,18 L-5,11 L-1,1 Z " fill="#000000" transform="translate(211,37)"/>
</svg>
