<?xml version="1.0" encoding="UTF-8"?>
<!-- Generator: visioncortex VTracer 0.6.12 -->
<svg version="1.1" xmlns="http://www.w3.org/2000/svg" width="663" height="867">
<path d="M0,0 L5,1 L62,3 L105,3 L110,4 L149,4 L288,5 L369,5 L408,6 L560,6 L570,8 L572,11 L572,167 L571,269 L571,322 L570,338 L571,437 L570,492 L570,687 L569,791 L568,809 L566,811 L560,812 L541,812 L534,813 L511,813 L500,812 L497,813 L432,813 L403,812 L318,812 L301,811 L290,810 L277,811 L204,810 L170,810 L163,813 L158,812 L156,810 L123,809 L-28,809 L-33,806 L-33,704 L-34,639 L-36,636 L-35,631 L-34,629 L-33,505 L-33,226 L-32,113 L-32,4 L-28,1 L-6,2 Z M270,79 L265,84 L259,92 L252,103 L241,118 L222,147 L213,162 L209,169 L201,179 L194,190 L191,195 L188,199 L188,201 L185,202 L172,221 L162,236 L156,243 L151,252 L141,266 L139,270 L140,275 L149,277 L182,277 L183,278 L183,283 L177,291 L166,309 L159,319 L153,329 L145,342 L138,353 L134,359 L124,375 L115,388 L107,402 L103,407 L92,425 L82,441 L76,451 L76,456 L79,458 L85,459 L122,459 L121,466 L109,484 L98,500 L88,517 L84,522 L77,534 L67,548 L58,562 L46,581 L38,594 L32,605 L33,609 L35,610 L62,611 L189,611 L233,610 L234,611 L234,725 L235,739 L237,742 L291,743 L297,741 L299,732 L299,611 L377,611 L405,612 L451,612 L488,611 L500,609 L501,605 L491,589 L484,578 L472,559 L465,548 L458,538 L449,523 L441,512 L431,496 L424,485 L415,472 L412,465 L412,460 L414,459 L455,459 L458,457 L457,450 L452,444 L444,430 L439,423 L434,414 L426,400 L420,392 L410,376 L403,366 L393,350 L386,339 L379,328 L373,319 L367,310 L360,299 L354,290 L352,286 L351,280 L390,280 L397,278 L399,276 L398,271 L390,257 L380,242 L374,233 L366,220 L360,210 L354,201 L353,199 L351,199 L349,193 L337,175 L329,163 L318,147 L302,122 L292,106 L288,100 L283,91 L281,91 L279,87 L274,80 Z " fill="#000000" transform="translate(65,28)"/>
</svg>
