<?xml version="1.0" encoding="UTF-8"?>
<!-- Generator: visioncortex VTracer 0.6.12 -->
<svg version="1.1" xmlns="http://www.w3.org/2000/svg" width="1164" height="1212">
<path d="M0,0 L24,1 L38,0 L88,0 L93,3 L93,84 L94,115 L94,275 L95,307 L95,351 L96,390 L96,577 L97,621 L97,646 L98,721 L98,840 L99,888 L99,1008 L100,1129 L96,1133 L69,1134 L-86,1136 L-140,1137 L-153,1136 L-160,1137 L-254,1138 L-297,1138 L-415,1139 L-458,1139 L-578,1140 L-684,1141 L-746,1141 L-853,1142 L-1004,1142 L-1014,1143 L-1021,1141 L-1023,1138 L-1024,1123 L-1024,1002 L-1025,927 L-1025,807 L-1026,767 L-1026,731 L-1027,607 L-1028,395 L-1028,345 L-1029,307 L-1028,286 L-1029,230 L-1029,204 L-1030,124 L-1030,13 L-1028,10 L-1020,9 L-987,8 L-957,8 L-857,7 L-835,7 L-772,6 L-707,6 L-630,5 L-579,4 L-536,5 L-514,4 L-495,4 L-434,3 L-335,3 L-198,2 L-170,2 L-114,1 L-5,1 Z M-169,239 L-202,240 L-413,240 L-451,241 L-606,241 L-731,242 L-764,242 L-784,243 L-788,246 L-790,253 L-790,437 L-789,462 L-785,466 L-720,466 L-714,462 L-712,458 L-711,452 L-711,358 L-710,324 L-708,321 L-673,321 L-587,320 L-468,320 L-253,319 L-199,319 L-140,318 L-135,315 L-133,310 L-133,245 L-138,240 Z M-579,401 L-587,405 L-591,410 L-599,417 L-607,425 L-612,430 L-631,449 L-635,454 L-641,459 L-646,464 L-658,476 L-663,482 L-668,487 L-675,493 L-682,501 L-687,506 L-691,511 L-696,516 L-703,522 L-709,529 L-714,534 L-729,549 L-729,551 L-733,553 L-743,563 L-747,570 L-747,575 L-738,585 L-724,599 L-719,604 L-698,625 L-690,632 L-676,647 L-668,654 L-663,659 L-657,666 L-651,671 L-644,679 L-637,686 L-631,691 L-626,697 L-618,704 L-601,721 L-596,726 L-587,734 L-549,734 L-506,733 L-497,733 L-493,730 L-493,723 L-501,713 L-520,694 L-525,689 L-530,685 L-537,677 L-573,641 L-580,633 L-589,624 L-594,620 L-597,614 L-597,612 L-556,611 L-524,611 L-426,610 L-393,610 L-359,609 L-354,606 L-351,599 L-351,540 L-353,533 L-355,532 L-373,531 L-391,531 L-404,532 L-513,532 L-529,531 L-568,532 L-597,532 L-597,527 L-590,520 L-583,512 L-578,507 L-574,502 L-565,495 L-558,487 L-554,482 L-543,473 L-536,464 L-528,457 L-524,452 L-519,447 L-511,440 L-506,434 L-499,428 L-492,420 L-483,410 L-482,406 L-486,402 L-519,401 Z M-737,674 L-783,675 L-788,680 L-789,682 L-790,819 L-789,877 L-789,887 L-787,896 L-782,899 L-758,899 L-687,898 L-645,898 L-585,897 L-448,897 L-330,896 L-225,896 L-142,895 L-137,892 L-134,887 L-134,828 L-137,821 L-140,819 L-205,818 L-290,818 L-329,819 L-448,819 L-556,820 L-625,820 L-698,819 L-708,820 L-709,814 L-709,772 L-710,683 L-712,677 L-716,674 Z M-84,713 Z " fill="#000000" transform="translate(1054,35)"/>
</svg>
