<?xml version="1.0" encoding="UTF-8"?>
<!-- Generator: visioncortex VTracer 0.6.12 -->
<svg version="1.1" xmlns="http://www.w3.org/2000/svg" width="1164" height="1335">
<path d="M0,0 L50,0 L179,2 L264,4 L313,4 L353,5 L459,7 L677,9 L758,10 L790,10 L845,11 L955,12 L994,13 L1007,13 L1026,14 L1031,17 L1033,19 L1033,117 L1032,169 L1032,187 L1031,244 L1030,336 L1028,479 L1027,535 L1026,622 L1024,712 L1023,777 L1021,859 L1020,928 L1019,959 L1016,1113 L1014,1182 L1009,1187 L973,1188 L904,1187 L867,1186 L802,1185 L742,1184 L706,1184 L681,1183 L661,1183 L622,1182 L551,1181 L499,1181 L463,1180 L391,1179 L328,1178 L232,1176 L134,1175 L50,1174 L0,1173 Z M95,216 L90,218 L87,226 L86,282 L85,311 L85,336 L84,395 L84,446 L83,477 L82,559 L79,727 L78,780 L77,853 L75,931 L75,952 L77,958 L79,960 L84,961 L112,962 L134,962 L210,963 L276,964 L292,964 L307,965 L424,966 L454,967 L532,968 L661,969 L665,967 L668,960 L669,929 L670,867 L671,845 L670,811 L665,806 L625,805 L593,805 L588,807 L586,809 L585,814 L583,868 L581,879 L579,880 L563,881 L462,880 L258,877 L206,876 L176,875 L168,874 L166,872 L165,868 L165,848 L167,748 L169,647 L172,468 L174,349 L175,313 L178,308 L181,307 L218,307 L366,309 L413,310 L488,311 L516,311 L538,312 L553,312 L586,313 L591,314 L592,319 L592,344 L593,382 L596,386 L600,387 L672,387 L677,385 L678,383 L679,374 L680,346 L681,296 L681,229 L676,224 L659,223 L506,222 L467,222 L451,221 L418,221 L299,219 L263,218 L189,217 L168,217 L121,216 Z M831,221 L831,225 L835,226 L837,225 L837,222 Z M751,446 L732,447 L727,450 L728,456 L736,466 L744,476 L752,486 L763,499 L769,507 L782,523 L792,536 L798,544 L800,550 L797,553 L747,553 L573,551 L511,551 L506,555 L504,568 L504,630 L506,635 L509,638 L527,639 L685,641 L782,642 L798,643 L797,651 L789,660 L784,667 L779,672 L770,683 L761,694 L749,708 L742,716 L735,724 L726,735 L720,743 L721,748 L731,750 L787,751 L822,751 L829,748 L836,740 L843,732 L852,722 L861,712 L872,699 L879,691 L890,678 L904,661 L912,652 L920,642 L932,628 L941,617 L948,609 L952,602 L951,595 L942,583 L935,574 L921,557 L913,547 L905,537 L896,526 L889,517 L881,507 L879,507 L877,503 L870,494 L861,483 L852,472 L838,455 L830,448 L827,447 Z " fill="#000000" transform="translate(0,37)"/>
<path d="M0,0 L23,0 L23,1168 L-17,1167 L-22,1164 L-24,1157 L-22,1036 L-22,1010 L-21,987 L-18,809 L-17,741 L-17,716 L-14,568 L-13,488 L-12,439 L-9,208 L-8,106 L-7,30 L-6,5 L-3,1 Z " fill="#000000" transform="translate(1141,58)"/>
<path d="M0,0 L2,0 L1,3 Z " fill="#000000" transform="translate(116,460)"/>
<path d="M0,0 Z " fill="#000000" transform="translate(66,1256)"/>
<path d="M0,0 L4,0 L4,3 L0,3 Z " fill="#000000" transform="translate(615,1299)"/>
</svg>
