<?xml version="1.0" encoding="UTF-8"?>
<!-- Generator: visioncortex VTracer 0.6.12 -->
<svg version="1.1" xmlns="http://www.w3.org/2000/svg" width="1164" height="1254">
<path d="M0,0 L139,0 L174,1 L248,2 L345,3 L362,4 L406,4 L411,5 L453,5 L502,6 L537,6 L622,8 L661,8 L750,9 L770,9 L828,10 L895,10 L935,11 L1001,11 L1037,12 L1083,12 L1135,14 L1139,18 L1140,22 L1140,109 L1139,161 L1137,293 L1136,377 L1135,420 L1134,563 L1133,623 L1132,684 L1131,765 L1130,854 L1129,905 L1128,1009 L1127,1083 L1125,1176 L1122,1182 L1119,1184 L1015,1184 L953,1183 L911,1183 L843,1182 L788,1181 L754,1181 L689,1180 L661,1179 L649,1176 L644,1177 L642,1179 L635,1180 L632,1182 L623,1181 L608,1180 L569,1179 L494,1178 L465,1178 L356,1176 L331,1176 L277,1175 L189,1174 L88,1173 L70,1173 L22,1172 L0,1171 Z M181,215 L169,216 L166,221 L165,232 L164,326 L163,374 L162,461 L161,571 L160,659 L159,706 L159,773 L158,836 L158,879 L157,917 L157,952 L159,959 L163,962 L197,962 L242,963 L310,964 L344,964 L454,966 L497,966 L536,967 L601,967 L662,968 L745,969 L750,965 L751,963 L752,947 L752,817 L750,811 L746,808 L722,807 L675,807 L670,811 L669,816 L668,865 L666,877 L661,880 L575,880 L433,878 L303,876 L289,876 L251,875 L246,874 L244,869 L244,798 L245,751 L247,555 L249,414 L250,323 L251,310 L255,306 L374,306 L469,307 L503,308 L544,308 L586,309 L622,309 L645,310 L657,310 L670,311 L673,314 L674,317 L674,369 L675,379 L679,383 L684,384 L729,385 L753,384 L756,382 L758,375 L759,307 L760,270 L759,227 L755,223 L728,222 L693,222 L632,221 L605,221 L599,220 L588,221 L556,220 L503,219 L480,219 L442,218 L407,218 L347,217 L323,217 L269,216 Z M702,441 L694,447 L687,455 L687,457 L685,457 L676,468 L666,479 L659,488 L649,499 L645,504 L645,506 L641,508 L630,521 L619,534 L610,545 L599,557 L593,565 L582,577 L578,583 L572,590 L570,593 L570,599 L578,610 L589,623 L601,637 L605,642 L614,653 L623,662 L627,668 L635,676 L642,685 L653,698 L665,712 L674,722 L683,733 L693,744 L697,746 L743,747 L799,747 L803,745 L804,742 L796,730 L790,723 L782,713 L769,697 L761,687 L751,675 L741,662 L733,653 L727,644 L727,638 L736,637 L836,639 L953,640 L1007,640 L1011,635 L1012,611 L1012,562 L1010,557 L1007,555 L992,554 L942,554 L922,553 L871,553 L824,552 L744,551 L729,550 L727,549 L727,544 L737,531 L746,520 L750,515 L755,510 L764,499 L775,487 L783,477 L792,467 L800,456 L805,448 L804,444 L799,442 L715,441 Z M521,593 L519,596 L520,597 L525,597 L525,593 Z " fill="#000000" transform="translate(0,36)"/>
</svg>
