<?xml version="1.0" encoding="UTF-8"?>
<!-- Generator: visioncortex VTracer 0.6.12 -->
<svg version="1.1" xmlns="http://www.w3.org/2000/svg" width="1116" height="1101">
<path d="M0,0 L1116,0 L1116,16 L1109,15 L1099,15 L1089,13 L1074,14 L1054,13 L1031,13 L992,12 L988,13 L964,14 L961,13 L929,12 L909,12 L884,11 L871,12 L859,12 L849,11 L833,10 L817,12 L781,12 L777,11 L763,12 L749,12 L741,11 L722,12 L718,10 L583,10 L518,9 L501,10 L490,9 L479,9 L473,10 L468,9 L446,9 L442,8 L382,8 L376,7 L363,7 L358,8 L300,8 L276,7 L157,7 L151,8 L142,8 L126,7 L118,11 L117,18 L121,28 L122,34 L123,56 L123,86 L122,102 L122,166 L121,231 L120,355 L120,442 L119,455 L119,512 L120,535 L122,545 L122,555 L119,571 L119,599 L118,642 L118,846 L117,953 L117,1025 L115,1058 L115,1069 L119,1074 L124,1079 L127,1086 L128,1087 L175,1087 L214,1088 L277,1088 L317,1089 L356,1089 L360,1090 L431,1090 L461,1089 L477,1089 L487,1091 L528,1091 L532,1089 L539,1090 L542,1091 L579,1092 L603,1094 L616,1094 L619,1093 L645,1094 L697,1095 L705,1094 L742,1094 L748,1093 L760,1095 L815,1095 L838,1096 L1012,1096 L1039,1097 L1077,1098 L1086,1099 L1099,1098 L1103,1096 L1105,1093 L1104,1036 L1105,1027 L1105,969 L1106,963 L1105,952 L1105,943 L1106,930 L1106,880 L1107,874 L1105,862 L1106,854 L1107,834 L1106,830 L1106,816 L1107,805 L1108,800 L1107,791 L1108,788 L1108,781 L1107,779 L1106,766 L1107,754 L1107,716 L1108,707 L1107,698 L1108,663 L1107,642 L1108,622 L1108,599 L1109,585 L1111,579 L1109,574 L1109,557 L1110,532 L1111,525 L1110,505 L1110,492 L1111,483 L1111,426 L1112,391 L1113,367 L1112,362 L1112,330 L1113,299 L1113,204 L1114,173 L1115,164 L1116,164 L1116,1101 L0,1101 Z " fill="#000000" transform="translate(0,0)"/>
<path d="M0,0 L10,0 L27,3 L41,9 L50,15 L60,24 L66,34 L72,50 L75,61 L75,75 L72,92 L68,102 L60,115 L52,122 L47,127 L35,133 L25,137 L20,138 L6,138 L-9,136 L-24,130 L-35,122 L-45,112 L-54,98 L-58,87 L-60,80 L-60,55 L-56,42 L-51,32 L-41,21 L-33,15 L-24,9 L-10,3 L-3,1 Z " fill="#000000" transform="translate(621,74)"/>
<path d="M0,0 L1,0 L1,13 L-1,10 L-1,1 Z " fill="#000000" transform="translate(1115,126)"/>
<path d="M0,0 L1,4 Z " fill="#000000" transform="translate(1115,142)"/>
<path d="M0,0 L16,0 L34,3 L43,7 L54,14 L59,18 L64,22 L72,33 L77,42 L81,47 L90,61 L98,74 L104,84 L111,94 L118,105 L125,116 L133,129 L142,143 L152,158 L161,172 L172,189 L179,200 L191,219 L197,228 L204,239 L211,249 L219,262 L225,271 L232,282 L236,288 L246,303 L252,313 L260,325 L269,339 L276,350 L282,357 L288,365 L288,373 L283,378 L272,382 L257,385 L243,385 L230,383 L215,377 L200,369 L195,364 L185,355 L181,348 L171,333 L163,320 L161,315 L158,314 L152,305 L149,300 L143,289 L136,279 L126,264 L116,250 L109,238 L97,222 L92,222 L90,228 L90,294 L89,349 L89,371 L91,386 L94,393 L101,405 L108,416 L119,434 L126,445 L136,462 L146,477 L158,497 L167,512 L174,522 L178,530 L186,541 L190,549 L201,566 L208,577 L215,586 L219,595 L226,606 L237,622 L243,633 L251,645 L257,654 L265,669 L273,682 L279,692 L287,705 L294,717 L303,730 L305,735 L304,741 L300,746 L294,749 L283,751 L272,753 L264,753 L245,749 L229,742 L219,736 L215,732 L208,728 L200,720 L190,705 L184,694 L178,684 L173,676 L169,669 L159,654 L153,644 L143,629 L139,621 L133,611 L126,600 L116,584 L109,573 L99,556 L91,544 L84,531 L78,523 L72,513 L68,508 L61,494 L54,484 L52,480 L48,476 L43,465 L37,455 L28,443 L24,438 L20,429 L12,417 L9,413 L2,414 L-6,425 L-15,441 L-21,450 L-28,462 L-35,474 L-38,481 L-45,489 L-51,498 L-57,509 L-65,522 L-72,533 L-81,548 L-89,562 L-92,567 L-98,576 L-103,584 L-109,594 L-116,604 L-121,613 L-129,626 L-137,639 L-142,648 L-157,671 L-162,681 L-175,702 L-185,717 L-192,728 L-202,742 L-207,746 L-212,746 L-223,734 L-229,723 L-235,710 L-241,688 L-242,670 L-240,648 L-236,636 L-226,619 L-219,610 L-214,600 L-207,591 L-201,579 L-192,568 L-185,556 L-178,545 L-168,529 L-162,519 L-154,507 L-151,502 L-146,493 L-138,480 L-126,460 L-120,451 L-114,441 L-106,428 L-93,408 L-88,399 L-81,385 L-79,372 L-78,283 L-78,254 L-79,241 L-77,224 L-78,212 L-77,197 L-78,178 L-80,172 L-84,173 L-92,178 L-100,185 L-112,197 L-117,202 L-129,213 L-134,217 L-137,224 L-138,243 L-138,260 L-139,303 L-139,323 L-148,350 L-159,366 L-163,371 L-171,378 L-185,387 L-197,392 L-213,396 L-218,394 L-221,391 L-220,332 L-219,247 L-218,234 L-218,190 L-215,182 L-200,168 L-183,152 L-172,141 L-162,133 L-148,119 L-142,115 L-130,102 L-118,91 L-116,91 L-116,89 L-108,82 L-97,71 L-86,62 L-69,46 L-67,46 L-66,43 L-64,43 L-62,39 L-52,30 L-38,16 L-24,8 L-16,4 Z " fill="#000000" transform="translate(618,244)"/>
</svg>
