<?xml version="1.0" encoding="UTF-8"?>
<!-- Generator: visioncortex VTracer 0.6.12 -->
<svg version="1.1" xmlns="http://www.w3.org/2000/svg" width="1128" height="1119">
<path d="M0,0 L821,0 L825,2 L825,0 L1128,0 L1128,57 L1089,57 L1020,56 L964,56 L918,55 L835,55 L745,54 L635,54 L534,53 L435,53 L416,54 L304,54 L285,53 L64,53 L59,55 L58,58 L58,115 L57,362 L57,476 L56,493 L57,545 L57,825 L56,830 L57,835 L57,873 L58,965 L58,1043 L59,1059 L61,1064 L64,1065 L248,1065 L365,1066 L538,1066 L543,1068 L548,1065 L678,1066 L843,1066 L910,1067 L933,1066 L951,1067 L1128,1067 L1128,1119 L0,1119 Z " fill="#000000" transform="translate(0,0)"/>
<path d="M0,0 L88,0 L102,1 L145,1 L155,7 L160,12 L176,28 L181,32 L187,39 L195,46 L195,48 L199,50 L206,57 L214,64 L230,79 L245,94 L250,99 L260,109 L264,113 L264,115 L268,117 L282,131 L287,136 L293,141 L300,149 L307,156 L312,160 L319,168 L329,178 L337,185 L346,194 L354,201 L365,212 L368,215 L371,216 L371,235 L365,238 L352,251 L344,258 L339,264 L334,268 L327,276 L321,281 L315,288 L310,293 L299,304 L292,312 L272,332 L267,336 L260,345 L232,373 L225,381 L205,401 L200,406 L191,416 L182,425 L175,433 L167,442 L162,447 L155,452 L145,454 L83,454 L11,453 L-21,453 L-23,451 L-22,445 L-17,440 L-5,428 L5,420 L10,415 L23,403 L28,398 L41,387 L57,372 L65,364 L76,355 L79,352 L81,352 L81,350 L88,345 L93,340 L102,331 L110,324 L122,313 L127,309 L134,301 L141,294 L141,291 L133,289 L123,288 L24,287 L-35,286 L-95,286 L-160,285 L-272,284 L-435,284 L-532,283 L-538,280 L-541,276 L-541,170 L-538,162 L-530,159 L-496,159 L-422,160 L-415,159 L-411,160 L-397,160 L-394,159 L-390,160 L-308,161 L-278,161 L-194,163 L-181,164 L-166,163 L36,164 L142,164 L139,158 L136,155 L136,153 L132,151 L120,139 L112,132 L99,120 L94,115 L89,111 L82,103 L74,96 L67,88 L61,84 L61,82 L57,80 L45,68 L37,61 L34,59 L34,57 L30,55 L14,40 L2,28 L-6,21 L-15,12 L-16,10 L-16,4 L-13,1 Z M207,112 L206,113 L206,120 L210,122 L211,121 L211,115 L208,112 Z M111,192 Z " fill="#000000" transform="translate(757,310)"/>
</svg>
