<?xml version="1.0" encoding="UTF-8"?>
<!-- Generator: visioncortex VTracer 0.6.12 -->
<svg version="1.1" xmlns="http://www.w3.org/2000/svg" width="1092" height="987">
<path d="M0,0 L4,0 L4,3 L0,4 Z " fill="#000000" transform="translate(329,30)"/>
<path d="M0,0 L9,1 L9,500 L6,499 L-6,482 L-13,473 L-20,465 L-30,452 L-37,443 L-40,441 L-45,441 L-57,454 L-63,462 L-70,471 L-79,481 L-89,494 L-102,510 L-114,524 L-123,535 L-127,537 L-129,542 L-136,550 L-144,561 L-154,572 L-162,582 L-169,594 L-172,611 L-171,648 L-172,668 L-172,757 L-173,789 L-173,820 L-176,827 L-178,828 L-218,827 L-224,828 L-252,828 L-256,824 L-257,822 L-258,800 L-257,790 L-258,779 L-258,766 L-257,741 L-258,726 L-258,627 L-259,614 L-265,605 L-268,599 L-276,589 L-285,576 L-294,561 L-298,557 L-302,551 L-309,541 L-313,534 L-320,526 L-324,519 L-333,508 L-341,496 L-351,483 L-358,475 L-368,461 L-375,453 L-380,453 L-385,458 L-392,464 L-403,478 L-415,492 L-424,502 L-433,515 L-441,523 L-447,530 L-455,541 L-462,549 L-473,562 L-481,572 L-490,583 L-498,595 L-499,599 L-500,643 L-500,781 L-499,815 L-501,824 L-506,826 L-532,827 L-535,826 L-578,826 L-583,825 L-602,826 L-645,826 L-659,827 L-680,826 L-712,826 L-721,825 L-766,825 L-770,824 L-789,824 L-839,825 L-871,824 L-888,824 L-892,823 L-911,823 L-913,822 L-919,822 L-921,823 L-1051,823 L-1074,822 L-1077,819 L-1075,744 L-1075,726 L-1074,697 L-1074,430 L-1075,425 L-1075,399 L-1074,394 L-1075,387 L-1076,344 L-1076,331 L-1073,319 L-1071,309 L-1066,306 L-1046,307 L-1023,307 L-1002,306 L-997,301 L-995,282 L-993,209 L-993,63 L-988,49 L-982,41 L-973,35 L-959,28 L-950,27 L-941,27 L-928,31 L-917,35 L-907,39 L-904,41 L-898,41 L-882,31 L-864,24 L-858,23 L-842,23 L-830,25 L-815,31 L-807,37 L-800,38 L-794,34 L-785,30 L-776,26 L-772,24 L-760,23 L-746,24 L-734,27 L-725,31 L-713,34 L-704,39 L-697,38 L-688,31 L-679,26 L-660,22 L-652,21 L-637,21 L-614,28 L-604,34 L-596,41 L-590,40 L-579,34 L-570,31 L-560,30 L-558,29 L-540,29 L-525,31 L-507,36 L-500,38 L-491,38 L-470,28 L-461,24 L-450,20 L-425,19 L-412,25 L-404,27 L-396,32 L-387,39 L-381,37 L-376,31 L-354,22 L-349,21 L-332,21 L-317,23 L-312,25 L-302,27 L-293,30 L-284,35 L-277,34 L-267,28 L-257,24 L-240,24 L-223,26 L-212,30 L-201,34 L-196,35 L-187,35 L-173,29 L-154,29 L-137,35 L-125,42 L-117,49 L-112,54 L-106,64 L-106,71 L-112,74 L-197,74 L-221,73 L-261,73 L-266,72 L-275,73 L-359,73 L-368,72 L-393,73 L-439,72 L-463,73 L-470,72 L-487,74 L-493,72 L-611,72 L-672,71 L-737,71 L-747,70 L-759,70 L-782,72 L-785,75 L-785,136 L-786,186 L-786,218 L-784,221 L-785,225 L-786,226 L-786,259 L-787,282 L-786,297 L-784,303 L-777,305 L-753,304 L-720,305 L-717,309 L-716,372 L-716,475 L-714,492 L-710,494 L-703,495 L-678,496 L-632,496 L-628,492 L-627,486 L-627,403 L-623,387 L-618,382 L-616,381 L-557,381 L-543,382 L-526,380 L-490,379 L-479,381 L-466,381 L-448,379 L-445,375 L-443,335 L-443,261 L-442,247 L-439,241 L-436,239 L-417,238 L-406,239 L-326,239 L-312,240 L-241,240 L-236,241 L-224,240 L-188,240 L-129,241 L-123,240 L-111,240 L-107,241 L-97,241 L-91,240 L-76,240 L-72,236 L-71,234 L-70,220 L-69,150 L-69,127 L-68,104 L-64,99 L-35,98 L-10,98 L-7,95 L-5,84 L-5,49 L-6,38 L-5,30 L-5,4 Z M-912,68 L-918,71 L-920,79 L-921,92 L-921,301 L-919,305 L-916,307 L-885,308 L-866,306 L-862,302 L-860,286 L-859,243 L-859,174 L-858,163 L-859,118 L-860,86 L-861,75 L-866,70 L-872,69 L-903,69 Z M-223,313 L-232,315 L-234,319 L-235,326 L-234,375 L-230,382 L-228,383 L-214,384 L-205,382 L-202,377 L-200,342 L-200,326 L-201,317 L-204,314 L-209,313 Z M-126,314 L-132,318 L-134,327 L-134,336 L-132,359 L-132,370 L-130,380 L-128,383 L-119,384 L-110,381 L-108,378 L-106,361 L-106,331 L-107,320 L-109,315 L-111,314 Z M-989,416 L-1004,417 L-1009,421 L-1010,425 L-1011,455 L-1011,471 L-1009,480 L-1006,483 L-997,484 L-972,484 L-968,481 L-966,474 L-966,423 L-971,418 L-973,417 Z M-830,418 L-834,421 L-835,424 L-836,477 L-833,483 L-830,485 L-804,485 L-799,482 L-798,477 L-798,424 L-800,420 L-804,418 Z M-1005,575 L-1009,578 L-1011,585 L-1011,619 L-1008,625 L-1005,627 L-974,627 L-969,624 L-967,621 L-966,592 L-967,578 L-971,575 Z M-711,642 L-714,645 L-715,649 L-715,695 L-713,699 L-709,701 L-677,701 L-672,696 L-671,671 L-671,655 L-672,646 L-676,642 Z " fill="#000000" transform="translate(1083,94)"/>
<path d="M0,0 L19,0 L23,3 L24,6 L24,39 L22,44 L21,45 L-3,44 L-7,37 L-7,8 L-5,3 Z " fill="#000000" transform="translate(652,791)"/>
<path d="M0,0 L9,0 L9,50 L1,51 L-3,49 L-6,41 L-5,15 L-3,2 Z " fill="#000000" transform="translate(1083,799)"/>
<path d="M0,0 L43,1 L47,5 L49,31 L49,62 L48,67 L48,113 L46,120 L44,122 L32,123 L2,122 L-10,121 L-13,115 L-15,66 L-16,59 L-14,55 L-13,21 L-10,4 L-7,1 Z " fill="#000000" transform="translate(964,800)"/>
<path d="M0,0 L48,2 L53,7 L52,27 L52,79 L51,113 L48,118 L47,119 L-2,119 L-7,114 L-8,102 L-8,64 L-6,60 L-6,52 L-8,48 L-8,7 L-6,3 Z " fill="#000000" transform="translate(728,802)"/>
<path d="M0,0 L4,1 L3,4 L-1,3 Z " fill="#000000" transform="translate(732,956)"/>
</svg>
