<?xml version="1.0" encoding="UTF-8"?>
<!-- Generator: visioncortex VTracer 0.6.12 -->
<svg version="1.1" xmlns="http://www.w3.org/2000/svg" width="1344" height="957">
<path d="M0,0 L48,1 L69,2 L100,2 L114,3 L119,8 L120,13 L120,59 L123,62 L122,66 L121,73 L121,371 L122,397 L122,421 L123,461 L126,467 L147,467 L151,468 L184,468 L212,469 L217,471 L220,477 L220,490 L219,510 L216,515 L210,517 L127,517 L124,520 L123,533 L123,716 L124,734 L126,737 L129,738 L138,738 L144,737 L153,738 L160,738 L173,742 L180,748 L181,752 L181,785 L178,794 L173,797 L3,797 L-37,796 L-158,798 L-174,798 L-218,799 L-265,798 L-304,799 L-309,796 L-311,788 L-310,764 L-309,745 L-309,681 L-308,661 L-309,650 L-309,599 L-308,568 L-308,538 L-309,522 L-308,457 L-308,161 L-307,115 L-308,37 L-308,7 L-303,2 L-300,1 L-245,1 L-236,2 L-231,1 L-8,1 Z M-228,55 L-246,56 L-255,56 L-258,58 L-259,61 L-260,105 L-261,125 L-261,147 L-258,158 L-249,161 L-197,161 L-191,158 L-189,155 L-188,122 L-190,61 L-192,57 L-194,56 Z M-137,56 L-141,58 L-142,61 L-143,84 L-142,144 L-141,156 L-137,160 L-130,162 L-66,162 L-61,158 L-60,127 L-61,108 L-61,82 L-62,62 L-66,57 L-78,56 Z M-2,56 L-7,58 L-8,60 L-9,70 L-9,141 L-8,148 L-8,157 L-4,161 L-1,162 L23,162 L60,161 L68,159 L70,156 L71,136 L71,114 L70,73 L69,61 L65,57 L45,56 Z M-233,211 L-255,212 L-259,214 L-261,219 L-262,250 L-262,288 L-261,307 L-258,312 L-251,314 L-226,313 L-195,314 L-190,311 L-188,308 L-188,218 L-192,212 L-195,211 L-202,211 L-213,212 L-221,211 Z M-135,212 L-139,215 L-141,221 L-142,266 L-144,276 L-145,279 L-142,286 L-141,306 L-139,311 L-136,313 L-109,314 L-90,314 L-65,313 L-62,310 L-61,307 L-60,231 L-61,216 L-65,212 Z M-3,212 L-8,217 L-9,221 L-9,277 L-10,286 L-9,289 L-7,310 L-4,313 L17,313 L24,314 L40,314 L44,313 L60,313 L69,311 L72,307 L72,261 L71,223 L69,214 L67,213 L24,212 Z M-246,358 L-258,359 L-261,364 L-262,388 L-262,448 L-261,463 L-256,468 L-253,469 L-195,469 L-190,463 L-189,459 L-188,416 L-188,373 L-190,362 L-194,359 L-208,358 Z M-89,357 L-94,359 L-104,358 L-133,359 L-140,361 L-141,362 L-142,370 L-142,453 L-140,466 L-138,469 L-115,470 L-99,470 L-65,469 L-61,466 L-60,447 L-59,436 L-60,429 L-60,375 L-61,363 L-64,359 L-77,358 L-79,357 Z M-2,359 L-8,364 L-8,378 L-9,390 L-9,448 L-8,461 L-5,468 L-2,469 L63,469 L70,466 L72,458 L73,435 L73,412 L72,409 L72,380 L71,364 L67,360 L41,359 Z M-250,515 L-257,516 L-260,519 L-262,533 L-262,692 L-260,708 L-258,711 L-250,712 L-216,712 L-194,711 L-191,706 L-190,679 L-190,655 L-189,636 L-189,528 L-191,518 L-194,516 L-229,515 Z M-137,516 L-141,520 L-142,526 L-142,630 L-143,662 L-142,676 L-142,706 L-138,711 L-118,712 L-65,712 L-62,709 L-60,701 L-60,526 L-61,519 L-66,516 Z M63,515 L-4,516 L-8,520 L-9,530 L-9,666 L-10,686 L-8,704 L-6,710 L-4,711 L67,711 L71,709 L72,707 L73,680 L73,522 L71,517 L67,515 Z " fill="#000000" transform="translate(568,36)"/>
<path d="M0,0 L32,0 L82,1 L162,1 L172,2 L207,2 L235,3 L239,5 L242,10 L245,30 L245,72 L246,89 L251,92 L318,93 L322,94 L333,94 L338,97 L339,105 L339,180 L336,185 L328,190 L327,193 L326,211 L321,224 L315,232 L312,239 L304,246 L292,253 L280,255 L274,251 L271,247 L263,247 L258,250 L252,252 L246,252 L237,246 L231,241 L221,226 L217,214 L215,205 L215,184 L213,182 L151,182 L144,183 L142,190 L140,208 L137,217 L128,231 L123,237 L112,245 L101,250 L93,252 L73,252 L60,247 L52,242 L45,236 L35,223 L29,206 L28,188 L25,183 L18,182 L-10,182 L-14,179 L-15,122 L-16,114 L-15,103 L-15,66 L-16,33 L-16,14 L-13,5 L-9,2 Z " fill="#000000" transform="translate(736,582)"/>
<path d="M0,0 Z " fill="#000000" transform="translate(329,733)"/>
<path d="M0,0 L37,0 L53,1 L55,2 L58,1 L83,0 L585,0 L651,1 L686,1 L749,0 L781,1 L982,1 L1096,2 L1141,2 L1207,3 L1304,3 L1304,9 L1115,9 L1019,8 L898,8 L861,7 L198,7 L52,6 L46,7 L-32,7 L-40,6 L-40,1 Z " fill="#000000" transform="translate(40,916)"/>
</svg>
