<?xml version="1.0" encoding="UTF-8"?>
<!-- Generator: visioncortex VTracer 0.6.12 -->
<svg version="1.1" xmlns="http://www.w3.org/2000/svg" width="1185" height="1221">
<path d="M0,0 L23,1 L67,1 L93,2 L147,2 L172,3 L258,3 L266,2 L270,3 L359,3 L389,4 L426,4 L447,5 L461,4 L468,5 L518,5 L545,6 L561,5 L562,6 L578,6 L588,5 L592,6 L655,6 L659,8 L672,9 L681,11 L690,14 L696,15 L703,16 L713,20 L725,25 L741,33 L750,38 L760,43 L767,49 L772,54 L783,61 L786,64 L786,66 L790,68 L800,79 L805,84 L810,89 L823,106 L834,124 L837,134 L843,144 L850,158 L859,186 L860,193 L859,197 L862,201 L865,220 L866,234 L866,253 L862,264 L860,272 L859,284 L859,301 L861,332 L861,339 L864,349 L865,351 L865,518 L864,554 L863,564 L863,601 L862,630 L862,686 L860,723 L861,726 L861,735 L860,743 L860,792 L859,866 L858,877 L858,919 L855,939 L853,952 L849,967 L846,978 L841,991 L835,1007 L829,1015 L825,1025 L818,1035 L811,1044 L805,1051 L797,1062 L792,1066 L783,1077 L774,1085 L764,1093 L760,1095 L755,1100 L747,1105 L740,1108 L735,1111 L721,1118 L711,1122 L692,1128 L687,1130 L676,1132 L663,1135 L652,1136 L640,1136 L631,1138 L623,1137 L611,1137 L610,1138 L603,1137 L598,1136 L541,1136 L459,1135 L445,1134 L424,1133 L419,1135 L395,1134 L390,1135 L353,1134 L330,1134 L291,1133 L247,1133 L239,1132 L112,1132 L102,1131 L64,1131 L58,1132 L48,1130 L11,1130 L-38,1128 L-57,1126 L-70,1122 L-86,1119 L-99,1113 L-108,1110 L-134,1098 L-145,1090 L-155,1084 L-164,1077 L-168,1073 L-172,1071 L-175,1066 L-183,1059 L-192,1049 L-192,1047 L-195,1046 L-204,1035 L-211,1025 L-217,1017 L-220,1013 L-228,997 L-231,988 L-236,979 L-237,972 L-241,963 L-245,953 L-247,937 L-249,931 L-251,916 L-252,889 L-252,845 L-251,804 L-251,719 L-250,682 L-249,653 L-249,617 L-247,541 L-247,510 L-246,485 L-246,469 L-245,422 L-245,387 L-244,350 L-244,255 L-243,218 L-239,193 L-237,187 L-235,176 L-227,152 L-220,136 L-216,129 L-213,122 L-206,112 L-199,101 L-194,93 L-192,93 L-190,89 L-177,74 L-171,69 L-164,61 L-156,52 L-148,48 L-138,40 L-130,35 L-122,31 L-103,21 L-84,13 L-69,9 L-55,5 L-33,2 L-29,1 Z M316,251 L309,258 L299,273 L291,284 L281,300 L277,305 L270,316 L263,327 L257,336 L253,341 L247,351 L241,358 L235,368 L227,378 L223,386 L218,392 L212,403 L208,407 L196,425 L189,436 L182,447 L178,452 L172,462 L166,470 L161,478 L151,491 L142,505 L135,515 L126,528 L118,539 L116,544 L111,552 L105,561 L97,572 L87,587 L81,595 L76,603 L71,609 L64,621 L55,633 L47,647 L40,656 L33,666 L29,672 L22,682 L17,690 L10,700 L4,708 L-3,719 L-13,734 L-17,740 L-20,745 L-26,753 L-29,760 L-35,769 L-36,776 L-32,780 L-28,781 L62,782 L138,782 L161,783 L259,783 L281,784 L299,783 L305,784 L339,784 L344,785 L360,784 L362,785 L389,784 L401,785 L453,785 L460,782 L465,778 L469,772 L477,756 L477,750 L474,745 L469,740 L463,735 L455,728 L448,722 L446,714 L446,701 L447,685 L447,658 L443,650 L438,646 L422,638 L405,629 L395,622 L389,617 L385,607 L381,597 L377,588 L375,580 L368,568 L364,558 L360,549 L355,537 L349,523 L341,503 L340,491 L346,478 L346,469 L337,450 L332,439 L329,431 L330,422 L333,412 L336,404 L341,390 L345,381 L351,366 L355,358 L358,348 L362,342 L366,326 L367,323 L367,316 L362,306 L350,289 L343,282 L339,274 L332,263 L321,251 Z M393,381 L388,385 L384,397 L382,404 L382,417 L385,422 L390,425 L401,428 L405,431 L417,432 L426,421 L436,407 L438,402 L437,397 L434,394 L414,386 L402,381 Z M469,451 L461,455 L453,464 L446,473 L440,481 L436,494 L434,512 L434,524 L436,529 L444,536 L450,541 L459,545 L467,545 L476,542 L485,541 L490,538 L503,535 L507,529 L509,516 L512,506 L512,480 L508,474 L501,468 L490,461 L482,455 L476,451 Z M386,458 L379,465 L371,472 L366,481 L367,488 L380,503 L385,507 L387,508 L394,508 L405,496 L409,490 L409,484 L401,470 L392,459 Z M475,572 L473,573 L463,574 L459,578 L457,590 L457,616 L461,622 L478,622 L487,618 L493,611 L500,600 L501,598 L501,590 L496,582 L488,574 L483,572 Z M573,598 L564,600 L555,602 L542,604 L538,607 L538,609 L534,611 L526,621 L519,631 L510,642 L505,650 L498,661 L489,673 L483,683 L481,685 L481,694 L492,711 L504,723 L510,732 L519,743 L528,753 L534,757 L547,760 L556,759 L593,759 L609,757 L619,751 L624,746 L633,738 L641,728 L643,723 L643,716 L640,702 L639,688 L638,685 L637,673 L635,668 L632,656 L631,642 L626,629 L621,624 L613,617 L597,605 L591,600 L582,598 Z " fill="#000000" transform="translate(287,35)"/>
<path d="M0,0 L2,0 L2,2 L0,2 Z " fill="#000000" transform="translate(982,1192)"/>
</svg>
