<?xml version="1.0" encoding="UTF-8"?>
<!-- Generator: visioncortex VTracer 0.6.12 -->
<svg version="1.1" xmlns="http://www.w3.org/2000/svg" width="702" height="1209">
<path d="M0,0 L12,0 L23,2 L38,7 L49,13 L63,25 L68,30 L76,43 L80,51 L84,69 L84,83 L82,98 L80,107 L76,116 L65,132 L56,141 L47,147 L36,152 L22,155 L2,156 L-16,152 L-35,142 L-46,132 L-54,121 L-62,105 L-65,94 L-66,86 L-66,65 L-63,53 L-57,39 L-48,32 L-46,32 L-45,24 L-35,14 L-27,10 L-21,6 L-4,1 Z M1,27 L-8,29 L-22,38 L-27,43 L-34,53 L-39,65 L-40,70 L-40,86 L-35,103 L-25,116 L-18,122 L-5,128 L4,130 L20,129 L36,122 L49,110 L55,98 L59,85 L58,68 L53,53 L45,42 L38,35 L26,29 L21,28 Z " fill="#000000" transform="translate(206,30)"/>
<path d="M0,0 L13,0 L31,5 L46,13 L61,25 L70,36 L78,52 L82,70 L83,87 L80,101 L70,122 L59,136 L49,144 L35,151 L22,155 L16,156 L1,156 L-15,153 L-27,148 L-36,142 L-46,134 L-52,129 L-60,116 L-68,96 L-70,81 L-69,67 L-64,48 L-55,31 L-46,21 L-38,14 L-23,5 L-5,1 Z M4,28 L-9,30 L-23,37 L-32,47 L-32,49 L-34,49 L-40,59 L-42,68 L-42,82 L-40,98 L-35,106 L-28,115 L-21,121 L-11,126 L2,129 L17,128 L32,122 L43,113 L50,103 L54,95 L56,86 L56,69 L53,59 L46,47 L43,43 L41,43 L40,40 L23,30 L12,28 Z " fill="#000000" transform="translate(486,129)"/>
<path d="M0,0 L7,1 L19,3 L40,5 L56,13 L63,21 L71,38 L74,49 L76,80 L79,88 L86,91 L100,93 L106,97 L112,107 L117,116 L129,127 L137,132 L148,136 L154,138 L168,138 L183,136 L198,130 L208,121 L214,114 L221,103 L229,96 L236,94 L243,93 L253,93 L261,94 L288,95 L300,97 L315,105 L323,112 L331,125 L335,136 L340,164 L340,269 L341,284 L341,318 L342,338 L341,350 L341,395 L342,407 L342,424 L340,452 L337,462 L331,474 L323,498 L315,514 L309,527 L304,533 L304,548 L305,561 L308,580 L311,601 L313,608 L315,628 L318,647 L320,659 L322,667 L325,688 L329,717 L333,740 L336,757 L340,782 L344,799 L345,817 L343,822 L338,826 L334,827 L311,828 L269,828 L254,830 L249,835 L244,845 L241,858 L236,881 L231,893 L226,916 L221,928 L216,933 L208,935 L180,935 L168,934 L162,930 L159,925 L159,916 L161,906 L163,890 L166,872 L169,856 L171,841 L174,831 L180,826 L184,825 L213,825 L223,823 L227,819 L229,810 L228,796 L224,780 L221,759 L221,750 L230,731 L234,718 L235,716 L235,703 L233,681 L233,632 L232,595 L230,585 L227,576 L225,572 L221,570 L218,567 L209,565 L207,563 L203,562 L194,562 L178,565 L166,570 L157,576 L138,582 L119,582 L104,579 L88,571 L81,566 L71,562 L49,561 L42,558 L38,553 L37,545 L37,529 L36,515 L36,447 L35,438 L34,373 L27,359 L21,356 L14,354 L9,350 L-26,350 L-35,353 L-43,360 L-53,371 L-60,381 L-66,389 L-72,397 L-78,402 L-83,403 L-88,400 L-95,392 L-103,378 L-111,367 L-117,358 L-121,353 L-126,350 L-130,349 L-163,349 L-181,352 L-189,356 L-195,364 L-201,380 L-201,408 L-200,461 L-201,511 L-200,551 L-200,620 L-195,635 L-190,643 L-180,654 L-173,659 L-163,663 L-155,670 L-152,678 L-152,697 L-151,773 L-150,918 L-152,927 L-156,931 L-159,932 L-186,932 L-199,933 L-239,932 L-245,923 L-245,820 L-246,804 L-247,737 L-247,715 L-248,666 L-248,649 L-249,619 L-249,603 L-251,532 L-253,521 L-256,515 L-262,511 L-262,509 L-266,507 L-276,498 L-281,492 L-286,482 L-292,462 L-294,446 L-295,420 L-295,365 L-296,338 L-296,222 L-297,201 L-297,117 L-298,105 L-298,70 L-296,60 L-294,44 L-289,31 L-281,21 L-273,14 L-267,10 L-250,4 L-238,2 L-171,2 L-163,6 L-155,16 L-149,26 L-142,37 L-137,46 L-128,61 L-124,67 L-120,74 L-116,77 L-109,77 L-104,73 L-96,60 L-90,51 L-84,42 L-77,32 L-69,18 L-62,10 L-60,10 L-60,8 L-52,4 L-40,2 L-3,1 Z M-87,187 L-97,189 L-111,194 L-125,203 L-133,210 L-133,212 L-137,214 L-144,228 L-149,247 L-149,262 L-147,272 L-141,288 L-132,302 L-119,312 L-109,318 L-101,321 L-87,323 L-72,323 L-54,318 L-43,312 L-33,304 L-22,289 L-18,278 L-16,261 L-16,248 L-19,234 L-25,222 L-34,209 L-39,204 L-46,198 L-61,191 L-72,188 L-78,187 Z M129,411 L105,417 L97,422 L90,427 L83,436 L80,439 L76,447 L73,450 L73,481 L76,493 L82,505 L91,515 L101,523 L119,529 L124,530 L141,530 L153,527 L162,522 L172,515 L182,502 L189,482 L189,464 L187,459 L183,457 L181,446 L175,442 L168,433 L157,425 L153,422 L149,415 L144,412 L140,411 Z M-267,453 L-273,457 L-274,459 L-274,471 L-269,481 L-263,488 L-261,489 L-255,489 L-252,484 L-252,462 L-255,456 L-260,453 Z M297,472 L295,474 L295,485 L297,493 L303,494 L306,489 L309,478 L310,477 L310,472 L306,473 L305,475 L301,475 L299,472 Z " fill="#000000" transform="translate(329,213)"/>
<path d="M0,0 L7,1 L9,58 L10,61 L11,73 L16,85 L23,95 L26,100 L26,110 L22,123 L19,132 L13,152 L8,166 L8,173 L12,177 L19,179 L37,179 L45,178 L54,179 L60,183 L63,189 L65,197 L66,211 L70,225 L72,241 L75,253 L78,276 L76,285 L71,288 L14,289 L-13,288 L-26,287 L-31,284 L-34,280 L-35,277 L-35,249 L-34,195 L-35,164 L-35,107 L-34,63 L-34,47 L-32,32 L-28,25 L-18,17 L-12,13 Z " fill="#000000" transform="translate(351,858)"/>
</svg>
