<?xml version="1.0" encoding="UTF-8"?>
<!-- Generator: visioncortex VTracer 0.6.12 -->
<svg version="1.1" xmlns="http://www.w3.org/2000/svg" width="606" height="1182">
<path d="M0,0 L10,1 L23,6 L44,16 L59,31 L65,38 L73,41 L87,43 L95,47 L99,51 L102,63 L102,73 L100,82 L95,97 L89,107 L83,112 L69,117 L63,124 L56,134 L48,141 L41,147 L24,155 L10,158 L-11,158 L-27,154 L-43,146 L-54,137 L-61,130 L-68,120 L-72,114 L-73,111 L-83,108 L-93,103 L-100,96 L-105,86 L-107,75 L-107,65 L-104,56 L-99,50 L-91,44 L-77,37 L-66,35 L-61,31 L-54,23 L-43,14 L-27,6 L-13,3 Z M0,54 L-6,58 L-13,64 L-24,71 L-32,77 L-43,82 L-49,87 L-49,98 L-39,116 L-37,116 L-36,119 L-22,128 L-15,130 L1,132 L12,130 L28,122 L35,116 L42,106 L46,97 L47,84 L41,77 L26,70 L14,59 L6,54 Z " fill="#000000" transform="translate(308,29)"/>
<path d="M0,0 L48,0 L74,1 L97,10 L107,19 L114,31 L118,42 L120,50 L123,80 L122,140 L122,207 L121,250 L121,327 L123,336 L128,338 L146,346 L156,354 L164,362 L170,372 L176,386 L179,396 L179,413 L176,428 L169,444 L162,454 L161,459 L164,462 L166,463 L179,464 L195,472 L201,477 L208,485 L214,492 L219,502 L221,509 L223,531 L222,544 L220,549 L221,554 L222,556 L222,662 L219,669 L212,671 L200,672 L196,676 L196,722 L198,749 L198,764 L195,768 L192,769 L174,770 L168,772 L166,777 L163,784 L159,813 L156,836 L153,852 L149,886 L146,895 L142,898 L139,899 L103,899 L80,900 L72,897 L69,890 L67,847 L65,822 L64,800 L63,797 L61,782 L59,778 L54,775 L34,772 L27,770 L24,770 L20,786 L17,807 L15,812 L13,824 L7,851 L5,864 L-3,897 L-8,903 L-79,903 L-84,900 L-87,897 L-88,894 L-91,870 L-94,860 L-97,839 L-99,831 L-101,817 L-104,797 L-111,768 L-112,764 L-127,761 L-145,759 L-153,759 L-157,763 L-159,772 L-161,801 L-162,808 L-163,833 L-164,847 L-166,883 L-169,893 L-175,898 L-182,901 L-197,901 L-224,899 L-244,898 L-249,893 L-249,883 L-248,866 L-249,852 L-250,809 L-251,800 L-252,777 L-254,766 L-258,763 L-267,762 L-279,762 L-310,761 L-319,761 L-325,758 L-326,755 L-326,743 L-324,717 L-317,667 L-315,646 L-313,628 L-311,604 L-308,585 L-306,566 L-304,553 L-303,535 L-299,499 L-295,480 L-289,471 L-282,465 L-269,461 L-268,456 L-274,443 L-280,424 L-280,399 L-278,390 L-270,375 L-267,371 L-265,371 L-263,367 L-257,360 L-244,351 L-218,341 L-213,336 L-211,323 L-211,216 L-212,92 L-212,54 L-210,40 L-205,23 L-198,13 L-192,8 L-180,2 L-177,1 L-94,1 L-88,5 L-84,11 L-82,12 L-82,14 L-80,14 L-72,25 L-64,34 L-57,43 L-54,49 L-48,54 L-42,53 L-37,48 L-28,33 L-19,20 L-9,3 Z M100,360 L86,366 L76,375 L70,387 L66,403 L66,411 L71,423 L79,438 L87,445 L105,451 L119,451 L131,446 L141,440 L146,436 L153,425 L157,413 L157,400 L152,385 L145,375 L137,368 L124,361 L118,360 Z M-211,363 L-226,366 L-235,370 L-243,375 L-252,386 L-256,396 L-259,410 L-258,429 L-255,435 L-247,444 L-242,449 L-237,453 L-224,459 L-213,461 L-206,461 L-189,458 L-177,451 L-169,443 L-161,430 L-159,421 L-159,403 L-163,390 L-170,380 L-177,373 L-193,366 L-199,363 Z M101,883 L100,886 L101,888 L104,887 L103,883 Z " fill="#000000" transform="translate(356,212)"/>
</svg>
