<?xml version="1.0" encoding="UTF-8"?>
<!-- Generator: visioncortex VTracer 0.6.12 -->
<svg version="1.1" xmlns="http://www.w3.org/2000/svg" width="876" height="894">
<path d="M0,0 L10,0 L14,4 L15,13 L14,30 L13,38 L10,59 L7,70 L5,78 L-1,88 L-6,98 L-13,107 L-22,118 L-29,126 L-33,129 L-40,133 L-46,138 L-45,143 L-40,153 L-33,160 L-27,171 L-18,187 L-14,202 L-12,227 L-11,233 L-11,256 L-10,282 L-9,289 L-9,300 L-11,330 L-10,365 L-9,385 L-8,391 L-9,398 L-9,424 L-8,427 L-6,449 L-5,459 L-4,482 L-1,505 L0,509 L2,533 L7,562 L12,611 L14,619 L16,640 L17,643 L18,657 L20,675 L21,679 L21,747 L19,766 L17,778 L15,791 L11,807 L7,817 L2,819 L-41,819 L-50,820 L-63,822 L-79,823 L-85,820 L-93,820 L-98,823 L-103,823 L-106,820 L-111,820 L-114,823 L-119,823 L-121,821 L-125,822 L-130,826 L-135,827 L-139,823 L-144,824 L-147,825 L-151,822 L-168,822 L-175,821 L-182,820 L-186,816 L-188,810 L-191,791 L-196,774 L-203,758 L-209,748 L-213,738 L-214,733 L-215,700 L-213,686 L-211,653 L-211,627 L-212,607 L-214,594 L-216,571 L-219,554 L-221,548 L-224,533 L-230,509 L-235,487 L-240,477 L-245,469 L-250,455 L-260,438 L-268,422 L-274,413 L-278,405 L-285,395 L-289,390 L-289,388 L-293,386 L-300,377 L-299,369 L-298,367 L-296,353 L-292,345 L-288,329 L-284,313 L-281,299 L-279,261 L-280,253 L-283,228 L-285,219 L-285,214 L-290,209 L-294,203 L-296,195 L-297,192 L-301,190 L-313,178 L-319,174 L-325,171 L-332,171 L-344,180 L-353,187 L-361,196 L-366,200 L-372,209 L-376,217 L-382,227 L-387,237 L-392,248 L-397,266 L-403,292 L-407,316 L-410,321 L-445,320 L-446,319 L-447,308 L-447,288 L-445,253 L-443,241 L-442,228 L-438,214 L-436,202 L-428,180 L-421,164 L-421,157 L-437,145 L-444,137 L-452,130 L-461,119 L-470,104 L-474,94 L-477,81 L-479,70 L-479,46 L-477,32 L-474,28 L-463,28 L-456,31 L-436,39 L-415,49 L-403,55 L-392,63 L-384,70 L-373,83 L-363,97 L-357,106 L-350,127 L-346,133 L-341,134 L-337,132 L-327,131 L-323,129 L-314,128 L-307,125 L-298,125 L-291,121 L-290,120 L-265,118 L-258,116 L-249,115 L-247,114 L-214,114 L-199,113 L-192,114 L-175,114 L-171,116 L-153,116 L-141,118 L-138,119 L-124,120 L-114,121 L-111,118 L-109,110 L-106,103 L-102,93 L-97,79 L-92,67 L-84,54 L-75,44 L-73,40 L-62,32 L-59,29 L-57,29 L-55,25 L-39,15 L-23,7 L-16,4 L-10,1 L-3,1 Z " fill="#000000" transform="translate(821,36)"/>
<path d="M0,0 L4,1 L9,9 L13,14 L19,30 L21,38 L22,55 L22,76 L20,103 L16,126 L12,149 L5,162 L-1,174 L0,178 L5,182 L11,192 L19,201 L28,214 L37,230 L41,236 L45,248 L53,264 L57,273 L63,290 L67,299 L71,306 L75,324 L79,339 L82,354 L84,368 L85,372 L87,404 L88,425 L88,476 L85,500 L84,527 L85,538 L92,551 L102,568 L110,582 L113,593 L116,610 L115,616 L113,618 L53,618 L49,619 L14,620 L9,621 L-74,620 L-82,619 L-87,620 L-110,621 L-115,620 L-167,620 L-195,621 L-204,622 L-275,623 L-300,624 L-323,624 L-326,623 L-357,623 L-384,626 L-401,626 L-404,624 L-405,617 L-401,594 L-396,583 L-393,575 L-391,567 L-387,561 L-384,551 L-381,546 L-372,531 L-364,520 L-356,509 L-349,500 L-337,487 L-332,482 L-322,473 L-313,466 L-307,461 L-301,461 L-296,469 L-289,475 L-282,483 L-273,490 L-265,497 L-257,503 L-242,513 L-235,517 L-224,523 L-215,527 L-208,527 L-202,517 L-200,506 L-206,504 L-229,491 L-245,481 L-253,476 L-260,471 L-265,466 L-271,462 L-287,446 L-294,438 L-301,429 L-309,418 L-319,401 L-323,390 L-330,375 L-334,358 L-336,344 L-336,323 L-335,298 L-336,296 L-345,296 L-353,297 L-370,296 L-381,293 L-399,287 L-410,281 L-421,274 L-430,267 L-437,259 L-442,254 L-447,249 L-454,240 L-458,234 L-457,229 L-452,224 L-444,219 L-436,215 L-423,213 L-412,209 L-396,206 L-376,205 L-365,207 L-352,209 L-349,211 L-336,213 L-329,216 L-322,218 L-315,218 L-307,214 L-293,206 L-283,199 L-268,191 L-259,187 L-241,179 L-224,173 L-214,168 L-200,164 L-187,159 L-175,156 L-163,153 L-155,151 L-143,149 L-132,146 L-119,145 L-110,144 L-96,143 L-93,144 L-88,141 L-83,143 L-67,144 L-63,141 L-61,131 L-59,113 L-54,82 L-51,77 L-48,67 L-45,59 L-46,49 L-43,46 L-36,42 L-29,32 L-23,25 L-17,16 L-9,9 L-2,1 Z " fill="#000000" transform="translate(495,236)"/>
</svg>
