<?xml version="1.0" encoding="UTF-8"?>
<!-- Generator: visioncortex VTracer 0.6.12 -->
<svg version="1.1" xmlns="http://www.w3.org/2000/svg" width="1140" height="1146">
<path d="M0,0 L673,0 L673,1035 L671,1034 L670,993 L670,969 L669,850 L668,767 L668,728 L667,700 L666,542 L665,468 L665,446 L664,436 L663,314 L663,246 L662,205 L661,127 L661,47 L660,10 L657,3 L566,3 L491,4 L475,5 L353,7 L310,7 L303,8 L258,9 L180,10 L93,12 L24,13 L-51,15 L-200,17 L-242,18 L-347,19 L-368,20 L-397,20 L-440,21 L-463,22 L-467,25 L-467,9 L-392,8 L-363,8 L-321,7 L-280,5 L-193,5 L-177,4 L-110,4 L-99,3 L-70,3 L-62,2 L-28,2 L-2,1 Z " fill="#000000" transform="translate(467,0)"/>
<path d="M0,0 L14,0 L16,2 L15,7 L7,18 L0,28 L-9,40 L-19,53 L-26,63 L-29,68 L-34,73 L-44,87 L-52,98 L-64,114 L-72,124 L-80,135 L-93,154 L-102,166 L-110,176 L-120,190 L-128,201 L-140,217 L-148,229 L-154,237 L-162,248 L-172,261 L-179,272 L-185,280 L-192,289 L-202,302 L-209,313 L-221,329 L-234,347 L-240,354 L-251,370 L-261,384 L-265,390 L-266,398 L-263,408 L-258,420 L-251,437 L-245,453 L-237,471 L-233,480 L-228,494 L-221,509 L-216,523 L-208,542 L-197,568 L-193,578 L-180,609 L-173,625 L-169,636 L-165,645 L-157,665 L-147,690 L-140,706 L-137,708 L-123,706 L-110,704 L-103,703 L-79,703 L-64,705 L-52,707 L-38,711 L-27,715 L-6,726 L9,736 L18,743 L23,747 L29,755 L35,762 L42,775 L40,779 L26,784 L13,789 L2,795 L-16,802 L-45,815 L-55,819 L-72,827 L-82,831 L-95,835 L-116,845 L-128,850 L-132,852 L-143,854 L-153,860 L-180,872 L-187,875 L-196,878 L-216,886 L-245,898 L-249,900 L-254,899 L-255,886 L-257,875 L-257,856 L-254,835 L-248,814 L-239,793 L-230,779 L-223,768 L-219,763 L-214,758 L-203,746 L-201,746 L-199,742 L-188,734 L-174,724 L-174,717 L-180,699 L-184,690 L-191,673 L-196,660 L-201,647 L-205,636 L-211,620 L-222,592 L-229,574 L-236,559 L-241,543 L-248,528 L-253,513 L-264,485 L-272,466 L-280,446 L-284,437 L-289,427 L-294,429 L-304,443 L-312,454 L-322,469 L-329,478 L-339,491 L-349,505 L-357,517 L-359,521 L-358,527 L-351,536 L-341,549 L-334,560 L-326,573 L-320,589 L-316,603 L-314,610 L-311,634 L-311,658 L-315,680 L-321,697 L-325,703 L-328,705 L-333,704 L-347,695 L-357,688 L-371,677 L-379,671 L-388,664 L-399,655 L-409,648 L-423,639 L-432,632 L-435,629 L-435,627 L-439,625 L-451,617 L-461,610 L-471,604 L-480,597 L-491,590 L-502,581 L-514,573 L-525,565 L-535,557 L-544,551 L-557,540 L-568,531 L-579,521 L-578,517 L-568,510 L-554,502 L-546,497 L-538,493 L-528,490 L-516,486 L-505,483 L-488,481 L-464,480 L-445,482 L-421,489 L-409,493 L-393,501 L-387,500 L-375,486 L-365,472 L-357,461 L-345,447 L-331,428 L-322,417 L-310,405 L-303,394 L-298,385 L-291,374 L-283,362 L-276,354 L-269,345 L-260,334 L-247,317 L-238,305 L-232,298 L-226,289 L-216,277 L-204,260 L-196,250 L-185,235 L-179,227 L-173,219 L-164,208 L-155,196 L-142,179 L-132,167 L-118,148 L-108,135 L-102,127 L-98,121 L-84,103 L-77,94 L-66,80 L-55,66 L-45,53 L-37,43 L-24,26 L-15,14 L-8,5 L-4,1 Z M-27,764 L-29,769 L-28,773 L-19,771 L-18,766 L-20,764 Z M-244,849 L-251,855 L-253,859 L-252,868 L-249,873 L-240,875 L-235,874 L-230,868 L-230,857 L-235,851 L-239,849 Z " fill="#000000" transform="translate(821,49)"/>
<path d="M0,0 L16,0 L20,5 L28,25 L33,32 L38,45 L43,57 L47,66 L54,83 L57,92 L65,116 L72,131 L80,151 L84,161 L89,175 L96,189 L100,202 L108,222 L119,250 L123,260 L129,275 L134,287 L139,299 L143,313 L149,326 L155,342 L154,348 L146,360 L140,367 L136,365 L126,341 L121,328 L116,314 L108,295 L103,281 L96,264 L90,248 L81,225 L76,210 L71,198 L67,187 L60,168 L55,155 L51,147 L47,134 L42,122 L38,109 L30,90 L22,69 L19,61 L9,39 L3,24 L1,16 L-3,7 L-3,2 Z " fill="#000000" transform="translate(378,56)"/>
<path d="M0,0 L1,4 Z " fill="#000000" transform="translate(0,195)"/>
<path d="M0,0 L1,4 Z " fill="#000000" transform="translate(0,207)"/>
<path d="M0,0 L2,2 L2,20 L0,21 Z " fill="#000000" transform="translate(0,240)"/>
<path d="M0,0 L2,2 L3,36 L4,167 L4,273 L5,433 L5,530 L6,564 L6,603 L7,748 L8,779 L9,834 L10,841 L11,844 L0,844 Z " fill="#000000" transform="translate(0,302)"/>
<path d="M0,0 L5,1 L15,9 L29,18 L41,26 L44,29 L43,35 L36,45 L26,59 L19,67 L15,73 L5,86 L-5,100 L-13,113 L-20,123 L-28,135 L-35,145 L-40,151 L-51,166 L-62,180 L-67,181 L-72,177 L-77,171 L-83,168 L-94,159 L-103,152 L-108,147 L-107,142 L-98,131 L-94,126 L-87,117 L-81,110 L-74,99 L-64,86 L-54,72 L-43,57 L-37,49 L-33,44 L-25,32 L-16,20 L-3,2 Z " fill="#000000" transform="translate(336,659)"/>
<path d="M0,0 L5,1 L9,9 L17,29 L23,43 L25,50 L32,65 L37,78 L43,91 L48,105 L56,124 L60,134 L69,155 L74,166 L74,173 L63,179 L50,184 L41,187 L34,190 L26,193 L21,188 L17,180 L11,164 L3,146 L-2,135 L-7,124 L-13,107 L-21,89 L-26,73 L-31,62 L-37,47 L-45,30 L-44,23 L-35,18 L-22,10 L-3,2 Z " fill="#000000" transform="translate(742,890)"/>
<path d="M0,0 L6,1 L8,3 L8,9 L5,14 L0,15 L-4,10 L-3,3 Z " fill="#000000" transform="translate(577,905)"/>
<path d="M0,0 L2,0 L2,13 L-6,15 L-67,15 L-86,16 L-118,17 L-191,18 L-217,19 L-234,19 L-236,20 L-1025,20 L-1024,18 L-990,17 L-966,17 L-855,16 L-848,15 L-781,15 L-774,14 L-724,14 L-621,13 L-547,11 L-486,11 L-464,10 L-404,10 L-391,9 L-348,8 L-318,8 L-232,6 L-193,6 L-171,5 L-136,5 L-102,4 L-14,2 L-2,1 Z " fill="#000000" transform="translate(1138,1126)"/>
<path d="M0,0 L6,1 L6,2 L-2,2 Z " fill="#000000" transform="translate(98,1144)"/>
<path d="M0,0 L3,1 Z " fill="#000000" transform="translate(71,1145)"/>
<path d="M0,0 L2,1 Z " fill="#000000" transform="translate(84,1145)"/>
</svg>
