<?xml version="1.0" encoding="UTF-8"?>
<!-- Generator: visioncortex VTracer 0.6.12 -->
<svg version="1.1" xmlns="http://www.w3.org/2000/svg" width="1137" height="1242">
<path d="M0,0 L69,0 L137,1 L199,1 L207,2 L256,2 L263,3 L274,2 L341,3 L373,3 L397,4 L449,4 L466,5 L524,5 L544,6 L631,6 L688,7 L754,7 L772,8 L811,8 L816,9 L821,8 L836,8 L842,9 L847,8 L870,8 L915,9 L930,9 L937,10 L945,9 L969,10 L1028,10 L1033,13 L1035,22 L1033,29 L1031,145 L1031,162 L1030,174 L1031,199 L1030,202 L1029,259 L1028,282 L1028,331 L1026,404 L1026,436 L1025,446 L1025,487 L1024,523 L1024,544 L1023,621 L1023,642 L1022,705 L1021,713 L1021,744 L1020,797 L1020,846 L1018,941 L1018,1031 L1016,1037 L1015,1038 L982,1040 L930,1039 L896,1038 L889,1039 L886,1038 L869,1037 L865,1036 L863,1037 L782,1037 L736,1036 L677,1035 L641,1035 L621,1036 L616,1035 L464,1035 L445,1034 L429,1034 L370,1033 L323,1033 L313,1032 L223,1032 L202,1031 L179,1031 L164,1030 L149,1030 L138,1031 L122,1031 L101,1030 L94,1031 L43,1030 L-13,1030 L-23,1029 L-26,1025 L-28,1016 L-26,902 L-26,889 L-25,859 L-24,802 L-23,770 L-23,732 L-22,696 L-21,608 L-20,586 L-20,524 L-19,492 L-17,485 L-16,477 L-18,474 L-19,457 L-18,411 L-17,332 L-18,316 L-17,309 L-17,282 L-16,257 L-15,103 L-14,93 L-15,86 L-15,56 L-14,31 L-15,24 L-15,8 L-13,3 L-6,1 Z M13,11 L4,12 L0,15 L-2,24 L-3,52 L-3,86 L-4,178 L-5,239 L-5,254 L-6,303 L-6,353 L-7,381 L-8,396 L-8,463 L-9,527 L-10,617 L-11,686 L-12,739 L-12,780 L-13,864 L-14,872 L-14,885 L-15,911 L-15,933 L-16,989 L-15,1014 L-11,1018 L48,1018 L52,1019 L95,1019 L103,1020 L138,1019 L153,1020 L236,1020 L253,1021 L364,1021 L377,1022 L468,1022 L521,1023 L527,1024 L593,1024 L686,1025 L841,1025 L844,1026 L872,1026 L883,1027 L939,1027 L983,1028 L1004,1027 L1006,1022 L1007,1000 L1008,940 L1009,881 L1010,871 L1010,817 L1011,762 L1013,645 L1013,613 L1014,588 L1014,548 L1015,495 L1015,472 L1016,456 L1016,427 L1017,389 L1018,270 L1018,226 L1020,216 L1019,210 L1019,162 L1021,68 L1021,51 L1020,27 L1017,22 L987,21 L970,21 L940,20 L886,20 L876,19 L816,19 L757,18 L683,18 L670,17 L617,17 L607,16 L502,16 L457,15 L401,15 L362,14 L326,14 L280,13 L193,13 L108,12 L72,12 L35,11 Z " fill="#000000" transform="translate(69,35)"/>
<path d="M0,0 L10,0 L14,4 L15,8 L15,33 L14,50 L12,92 L11,107 L10,137 L9,163 L9,171 L12,174 L24,174 L26,175 L39,175 L53,176 L57,185 L61,196 L64,205 L69,209 L137,210 L141,208 L144,202 L149,160 L152,143 L156,139 L163,138 L174,139 L178,140 L199,141 L241,144 L252,148 L254,161 L257,188 L261,208 L270,212 L302,212 L361,213 L389,214 L414,214 L421,217 L427,232 L433,251 L438,261 L441,263 L474,263 L477,260 L480,237 L482,212 L486,173 L487,156 L489,139 L493,92 L495,73 L497,48 L499,40 L500,39 L514,39 L517,43 L517,59 L516,65 L515,78 L514,106 L512,117 L510,135 L510,154 L507,182 L503,242 L503,264 L577,266 L582,271 L586,281 L591,296 L596,308 L597,314 L604,316 L619,316 L659,317 L661,319 L661,326 L652,352 L647,364 L639,388 L634,392 L586,391 L495,390 L476,389 L470,388 L467,389 L406,389 L365,388 L326,388 L275,387 L213,387 L200,386 L171,386 L156,385 L108,385 L44,384 L-8,384 L-38,383 L-124,383 L-130,381 L-136,382 L-141,383 L-161,382 L-183,383 L-242,383 L-268,382 L-272,377 L-275,368 L-279,352 L-281,349 L-283,339 L-287,323 L-290,314 L-292,306 L-299,282 L-303,267 L-302,261 L-298,258 L-282,258 L-277,257 L-269,258 L-226,258 L-206,257 L-99,257 L-90,256 L-86,252 L-82,236 L-78,220 L-76,210 L-71,187 L-67,177 L-63,175 L-58,175 L-55,177 L-45,176 L-29,175 L-21,172 L-19,170 L-16,151 L-15,139 L-14,121 L-12,110 L-9,76 L-8,67 L-8,59 L-6,40 L-5,20 L-3,7 L-1,1 Z M-47,193 L-53,197 L-57,208 L-63,235 L-71,267 L-73,274 L-74,275 L-180,275 L-258,276 L-276,277 L-278,281 L-277,290 L-273,303 L-268,308 L-140,308 L-120,309 L-106,308 L-57,308 L-26,309 L66,309 L70,310 L77,310 L85,309 L94,310 L115,310 L155,311 L202,311 L224,312 L251,312 L302,313 L313,314 L319,313 L384,314 L442,314 L446,315 L503,315 L543,316 L552,317 L561,316 L566,317 L575,315 L576,314 L576,305 L570,289 L566,285 L558,284 L536,283 L518,283 L487,282 L455,282 L429,281 L423,276 L416,258 L410,242 L406,234 L394,231 L330,231 L295,230 L243,230 L206,229 L182,229 L169,227 L163,227 L161,228 L65,227 L54,226 L50,221 L44,205 L42,198 L37,194 L8,193 Z " fill="#000000" transform="translate(395,297)"/>
<path d="M0,0 L72,0 L81,1 L85,2 L87,5 L87,25 L85,29 L83,30 L10,29 L3,27 L-1,21 L-4,10 L-4,2 Z " fill="#000000" transform="translate(460,546)"/>
<path d="M0,0 L16,0 L57,1 L76,1 L81,5 L82,12 L81,27 L76,30 L5,30 L-3,29 L-7,25 L-8,15 L-7,6 L-3,1 Z " fill="#000000" transform="translate(583,547)"/>
<path d="M0,0 L42,1 L45,2 L54,2 L65,1 L76,2 L80,6 L83,12 L85,21 L86,28 L81,31 L49,31 L-2,30 L-6,28 L-7,26 L-7,4 L-4,1 Z " fill="#000000" transform="translate(700,548)"/>
<path d="M0,0 L2,2 L-1,3 Z " fill="#000000" transform="translate(802,942)"/>
<path d="M0,0 L8,0 L16,2 L24,5 L33,13 L36,18 L37,25 L33,29 L27,29 L20,21 L15,16 L11,14 L-3,14 L-11,19 L-16,26 L-19,37 L-19,52 L-16,62 L-13,65 L-13,67 L-9,69 L-2,73 L6,73 L14,71 L19,67 L25,55 L32,50 L36,51 L38,54 L37,61 L33,70 L28,78 L14,85 L-1,86 L-10,84 L-19,79 L-21,75 L-25,73 L-29,67 L-32,60 L-33,52 L-33,36 L-31,26 L-26,16 L-19,8 L-7,2 Z " fill="#000000" transform="translate(185,1123)"/>
<path d="M0,0 L6,0 L10,4 L10,77 L8,81 L4,83 L-1,82 L-4,80 L-5,71 L-5,32 L-4,7 L-1,1 Z " fill="#000000" transform="translate(125,1125)"/>
<path d="M0,0 L6,1 L9,6 L9,56 L6,66 L2,74 L-8,81 L-15,83 L-33,83 L-43,78 L-50,72 L-54,63 L-55,59 L-56,33 L-56,6 L-52,1 L-47,2 L-44,5 L-43,16 L-43,44 L-42,61 L-38,67 L-34,70 L-25,72 L-16,71 L-11,68 L-6,63 L-4,48 L-4,24 L-3,3 Z " fill="#000000" transform="translate(92,1126)"/>
</svg>
