<?xml version="1.0" encoding="UTF-8"?>
<!-- Generator: visioncortex VTracer 0.6.12 -->
<svg version="1.1" xmlns="http://www.w3.org/2000/svg" width="1314" height="1320">
<path d="M0,0 L83,1 L219,1 L237,2 L274,3 L293,3 L344,4 L356,3 L359,0 L364,1 L367,4 L384,3 L387,4 L406,4 L420,5 L451,6 L508,6 L516,7 L547,7 L557,6 L567,6 L571,7 L634,9 L667,9 L802,11 L841,12 L880,12 L918,13 L933,13 L947,14 L958,11 L963,12 L964,13 L988,14 L1020,14 L1040,15 L1099,15 L1108,14 L1111,15 L1130,15 L1145,16 L1152,15 L1176,16 L1223,17 L1234,18 L1304,19 L1314,20 L1314,76 L1276,76 L1221,75 L1173,74 L1107,73 L1024,72 L959,71 L935,71 L884,70 L806,69 L712,67 L645,66 L577,65 L545,65 L529,64 L499,64 L449,63 L279,61 L263,60 L212,60 L172,59 L162,60 L153,59 L120,58 L74,58 L20,57 L0,56 Z " fill="#000000" transform="translate(0,8)"/>
<path d="M0,0 L54,1 L89,1 L118,2 L169,3 L178,2 L191,3 L315,4 L361,4 L386,5 L427,5 L430,2 L434,3 L438,6 L458,6 L476,7 L483,6 L516,6 L574,7 L609,7 L678,9 L708,12 L725,17 L746,25 L755,29 L769,39 L785,51 L800,66 L807,74 L815,85 L826,103 L828,110 L832,119 L838,135 L842,157 L844,174 L844,217 L843,320 L842,409 L841,627 L840,667 L840,689 L839,736 L838,783 L835,865 L833,878 L832,894 L827,913 L825,921 L817,941 L808,956 L800,967 L791,978 L783,988 L779,990 L773,997 L766,1003 L754,1011 L744,1018 L734,1022 L725,1027 L709,1032 L696,1036 L681,1038 L671,1038 L668,1039 L537,1039 L494,1038 L468,1038 L447,1037 L314,1037 L302,1036 L263,1036 L232,1035 L199,1035 L178,1034 L167,1035 L163,1034 L123,1034 L114,1033 L106,1034 L35,1034 L33,1033 L16,1033 L5,1032 L-35,1031 L-58,1029 L-74,1025 L-90,1020 L-102,1015 L-116,1007 L-123,1002 L-129,999 L-133,995 L-143,988 L-153,977 L-157,972 L-162,968 L-171,956 L-180,940 L-185,930 L-191,914 L-194,906 L-197,893 L-200,845 L-199,822 L-198,783 L-197,698 L-196,645 L-196,630 L-195,578 L-194,509 L-193,472 L-193,435 L-191,367 L-191,320 L-190,251 L-189,211 L-188,162 L-185,139 L-180,119 L-175,107 L-167,91 L-162,82 L-156,74 L-148,63 L-141,56 L-137,51 L-132,48 L-125,40 L-115,32 L-104,25 L-88,17 L-76,11 L-55,4 L-34,1 Z M-24,32 L-41,34 L-46,36 L-57,38 L-73,43 L-86,50 L-97,57 L-100,60 L-106,64 L-120,78 L-125,83 L-131,90 L-138,101 L-149,124 L-155,142 L-157,161 L-158,180 L-159,240 L-159,277 L-160,308 L-160,328 L-161,364 L-161,415 L-163,495 L-163,512 L-164,560 L-165,651 L-167,754 L-167,781 L-168,858 L-167,885 L-160,909 L-155,922 L-147,936 L-136,951 L-131,956 L-127,960 L-122,963 L-118,968 L-108,975 L-100,980 L-86,988 L-76,991 L-70,994 L-61,997 L-40,1000 L-31,1000 L-25,999 L-23,1000 L-6,1000 L-1,1001 L22,1002 L31,1001 L49,1002 L81,1002 L90,1003 L116,1003 L127,1001 L132,1003 L174,1004 L271,1004 L278,1003 L284,1005 L329,1005 L335,1006 L371,1005 L373,1004 L379,1004 L382,1006 L424,1006 L442,1007 L567,1007 L578,1008 L586,1007 L669,1007 L689,1005 L719,995 L726,989 L737,985 L743,980 L749,977 L754,972 L759,966 L767,959 L776,948 L785,934 L793,918 L799,902 L802,890 L804,864 L804,854 L805,848 L806,806 L807,786 L807,754 L808,745 L809,672 L810,647 L811,529 L811,446 L812,325 L814,221 L814,175 L811,148 L806,138 L804,130 L798,117 L790,104 L783,94 L772,82 L764,74 L749,64 L739,58 L728,52 L715,48 L705,45 L696,43 L685,42 L682,41 L670,40 L585,39 L558,38 L556,37 L458,37 L429,36 L396,36 L380,35 L320,35 L295,34 L123,34 L117,33 L77,33 L44,32 Z " fill="#000000" transform="translate(341,134)"/>
<path d="M0,0 L15,0 L27,3 L28,4 L29,65 L37,65 L43,67 L85,67 L90,72 L91,75 L90,123 L87,132 L78,133 L33,133 L29,137 L27,144 L26,177 L25,193 L22,196 L-34,196 L-39,191 L-40,186 L-40,140 L-43,133 L-98,131 L-103,126 L-104,119 L-103,72 L-100,66 L-95,65 L-43,65 L-39,61 L-37,12 L-36,4 L-31,1 L-7,1 Z " fill="#000000" transform="translate(878,312)"/>
<path d="M0,0 L12,0 L24,4 L32,10 L38,20 L40,32 L40,53 L39,127 L38,165 L38,193 L37,204 L37,263 L36,290 L36,323 L38,333 L39,338 L44,340 L48,342 L55,342 L60,340 L64,335 L66,329 L67,319 L68,250 L70,158 L70,124 L71,94 L73,75 L79,65 L89,56 L93,54 L111,53 L124,61 L129,66 L134,74 L136,84 L136,114 L135,147 L134,212 L134,247 L133,264 L132,335 L132,371 L133,388 L135,397 L141,409 L142,413 L146,416 L147,422 L152,424 L162,429 L174,433 L186,433 L198,431 L205,426 L210,423 L222,411 L227,406 L235,397 L243,390 L254,380 L262,373 L267,369 L275,364 L286,359 L296,355 L304,354 L324,354 L340,357 L352,362 L360,367 L365,371 L373,378 L374,385 L366,395 L360,400 L354,407 L346,414 L341,419 L333,426 L328,431 L308,451 L303,456 L295,463 L290,469 L279,478 L267,492 L261,497 L254,505 L244,513 L237,521 L227,531 L222,536 L215,543 L207,550 L200,556 L193,564 L185,571 L175,581 L168,589 L160,596 L155,601 L146,613 L141,619 L130,644 L127,659 L125,683 L120,687 L114,688 L57,688 L45,687 L-19,687 L-31,686 L-88,686 L-113,685 L-183,684 L-200,683 L-203,684 L-211,684 L-224,682 L-227,678 L-228,666 L-227,634 L-226,573 L-226,541 L-225,511 L-224,454 L-223,371 L-223,342 L-222,330 L-222,304 L-221,263 L-221,220 L-220,204 L-220,140 L-218,111 L-216,103 L-209,92 L-202,85 L-190,82 L-178,82 L-167,88 L-160,95 L-154,103 L-153,111 L-153,120 L-154,126 L-155,205 L-155,241 L-154,243 L-153,257 L-154,258 L-156,278 L-156,331 L-152,337 L-144,340 L-138,340 L-130,336 L-127,329 L-126,314 L-125,282 L-125,260 L-123,147 L-123,111 L-121,75 L-116,59 L-112,53 L-103,45 L-98,43 L-80,43 L-70,48 L-62,58 L-58,67 L-58,166 L-59,200 L-60,296 L-60,320 L-58,332 L-55,338 L-50,341 L-41,341 L-33,337 L-30,330 L-29,322 L-27,230 L-27,202 L-26,163 L-25,80 L-24,67 L-24,33 L-22,22 L-16,11 L-9,4 Z M304,364 L284,370 L280,373 L280,380 L288,390 L305,407 L310,412 L315,417 L320,421 L326,421 L334,414 L344,403 L349,398 L357,391 L360,386 L359,379 L354,375 L339,368 L328,364 Z M265,383 L257,390 L252,394 L249,401 L252,405 L270,410 L283,413 L289,415 L295,415 L296,411 L289,403 L282,394 L276,391 L270,384 Z M231,416 L223,423 L217,430 L218,435 L230,440 L238,441 L251,445 L253,446 L259,446 L261,442 L251,429 L239,418 L236,416 Z M258,417 L257,422 L272,437 L279,446 L284,451 L287,453 L293,453 L297,448 L306,441 L310,435 L309,430 L302,427 L287,423 L273,419 L264,418 Z M209,444 L208,448 L217,459 L232,475 L239,480 L246,488 L248,490 L253,490 L262,483 L277,468 L278,464 L270,459 L260,456 L254,455 L248,453 L242,452 L224,447 L215,444 Z " fill="#000000" transform="translate(586,312)"/>
<path d="M0,0 Z " fill="#000000" transform="translate(134,1025)"/>
<path d="M0,0 L9,1 L12,3 L23,35 L27,44 L35,68 L38,75 L37,82 L35,83 L26,82 L24,80 L21,71 L16,60 L14,59 L-12,59 L-17,69 L-21,78 L-26,82 L-32,81 L-35,78 L-33,69 L-29,61 L-25,53 L-20,40 L-10,16 L-5,4 Z M2,23 L-2,28 L-6,37 L-6,45 L-4,46 L10,46 L11,45 L11,39 L6,25 Z " fill="#000000" transform="translate(171,1202)"/>
<path d="M0,0 L38,0 L49,4 L57,11 L62,19 L65,31 L65,43 L62,58 L55,71 L47,78 L39,82 L0,81 L-4,77 L-4,38 L-3,33 L-2,3 Z M14,12 L11,15 L10,34 L9,39 L9,61 L12,67 L15,69 L30,69 L39,67 L46,61 L49,56 L50,48 L50,30 L47,22 L41,15 L33,12 Z " fill="#000000" transform="translate(226,1203)"/>
<path d="M0,0 L7,2 L10,6 L15,24 L18,34 L21,45 L25,58 L25,60 L30,59 L34,49 L39,36 L46,15 L50,5 L55,2 L60,2 L63,5 L62,11 L57,25 L50,42 L44,58 L37,77 L34,82 L30,84 L23,83 L18,78 L16,72 L11,55 L-2,17 L-4,4 Z " fill="#000000" transform="translate(302,1203)"/>
</svg>
