<?xml version="1.0" encoding="UTF-8"?>
<!-- Generator: visioncortex VTracer 0.6.12 -->
<svg version="1.1" xmlns="http://www.w3.org/2000/svg" width="1149" height="1128">
<path d="M0,0 L498,0 L497,3 L492,4 L347,3 L36,3 L21,4 L17,7 L15,16 L14,76 L13,171 L11,247 L10,308 L8,379 L7,447 L5,517 L4,584 L3,614 L3,639 L2,682 L2,714 L1,745 L1,762 L0,778 L0,809 L-1,862 L-2,975 L-3,998 L-4,1073 L-4,1111 L-2,1116 L0,1117 L20,1117 L54,1118 L136,1118 L144,1119 L157,1118 L261,1119 L375,1119 L400,1120 L473,1120 L562,1121 L629,1121 L686,1122 L793,1122 L829,1123 L921,1123 L949,1124 L1023,1124 L1073,1125 L1113,1125 L1120,1122 L1121,1120 L1122,1098 L1123,1052 L1124,1036 L1124,966 L1125,896 L1126,845 L1127,764 L1127,752 L1128,731 L1128,699 L1129,638 L1130,565 L1131,512 L1131,498 L1132,476 L1132,459 L1134,341 L1135,295 L1136,229 L1137,137 L1138,79 L1138,64 L1139,45 L1140,24 L1141,24 L1141,663 L1139,742 L1139,769 L1138,814 L1137,917 L1136,972 L1136,991 L1135,1016 L1134,1128 L-8,1128 L-8,449 L-7,447 L-6,405 L-5,328 L-3,255 L-2,182 L-1,152 L-1,99 L0,22 Z " fill="#000000" transform="translate(8,0)"/>
<path d="M0,0 L634,0 L634,20 L632,17 L629,10 L625,8 L550,7 L517,7 L446,5 L315,5 L282,6 L254,6 L236,5 L185,5 L138,4 L76,4 L1,3 Z " fill="#000000" transform="translate(515,0)"/>
<path d="M0,0 L7,1 L17,4 L30,12 L38,22 L43,34 L44,41 L45,58 L45,89 L44,150 L45,169 L43,207 L43,247 L42,292 L42,316 L44,326 L48,332 L55,335 L62,334 L68,329 L71,313 L72,209 L73,140 L73,110 L74,59 L76,38 L84,22 L85,20 L87,20 L89,16 L94,11 L99,7 L111,2 L117,2 L122,0 L129,0 L144,4 L154,10 L159,14 L167,25 L172,38 L172,184 L170,251 L170,318 L172,328 L175,333 L176,334 L191,334 L196,328 L198,309 L199,213 L200,158 L201,130 L201,110 L202,52 L206,36 L214,22 L221,15 L230,9 L239,6 L256,5 L267,6 L279,13 L287,20 L293,28 L298,41 L299,50 L299,92 L298,178 L298,199 L297,226 L297,255 L296,302 L296,361 L295,424 L295,450 L296,464 L302,463 L311,451 L321,436 L325,428 L336,412 L341,403 L350,388 L358,375 L365,365 L370,356 L377,346 L385,332 L395,317 L405,299 L419,282 L427,275 L437,269 L448,266 L464,267 L475,274 L482,282 L486,291 L488,303 L487,318 L482,338 L477,350 L471,366 L467,375 L462,392 L454,411 L449,424 L444,436 L439,448 L436,456 L430,472 L425,482 L419,499 L411,518 L404,538 L401,545 L394,561 L385,585 L377,603 L372,617 L366,632 L360,647 L352,668 L347,679 L342,694 L338,703 L332,719 L329,725 L326,734 L318,754 L311,765 L305,773 L292,783 L264,796 L257,800 L244,812 L236,823 L232,837 L230,851 L230,870 L229,886 L224,891 L217,892 L89,892 L-26,891 L-75,891 L-117,892 L-132,891 L-137,888 L-139,884 L-140,826 L-143,817 L-147,810 L-147,808 L-149,808 L-154,803 L-160,798 L-173,791 L-181,782 L-184,776 L-188,767 L-191,748 L-191,726 L-190,717 L-189,654 L-189,637 L-190,623 L-191,619 L-191,601 L-189,594 L-187,536 L-188,526 L-187,485 L-186,399 L-185,331 L-185,321 L-184,309 L-182,59 L-178,44 L-170,31 L-162,23 L-147,15 L-138,13 L-125,13 L-110,18 L-99,26 L-91,39 L-87,48 L-85,57 L-85,81 L-86,92 L-86,177 L-88,294 L-88,318 L-85,328 L-79,333 L-74,335 L-68,334 L-60,329 L-57,315 L-57,283 L-56,245 L-56,199 L-55,180 L-54,128 L-54,67 L-53,45 L-49,32 L-42,20 L-33,10 L-25,5 L-15,1 Z M240,20 L230,24 L221,33 L216,41 L214,47 L213,65 L216,71 L223,74 L277,74 L284,71 L287,64 L287,54 L285,42 L279,32 L271,24 L262,21 L259,20 Z M237,87 L221,89 L217,91 L214,98 L213,132 L214,150 L216,152 L221,151 L231,142 L239,133 L246,125 L255,115 L261,107 L268,97 L268,92 L263,89 L260,88 L243,88 Z M280,108 L271,114 L264,124 L250,139 L239,153 L234,158 L231,164 L232,168 L235,170 L240,171 L278,171 L284,167 L286,160 L286,112 L282,108 Z M255,186 L248,187 L230,187 L218,189 L214,194 L212,203 L213,224 L217,229 L219,230 L279,230 L284,225 L285,223 L285,196 L282,190 L279,188 Z M228,246 L218,247 L213,253 L212,259 L212,281 L215,286 L218,288 L278,288 L283,283 L285,268 L284,253 L280,247 L279,246 Z M12,433 L3,436 L0,441 L-2,473 L-3,523 L-6,529 L-11,532 L-58,532 L-92,533 L-98,537 L-101,540 L-102,550 L-103,591 L-103,621 L-101,631 L-95,636 L-40,637 L-9,638 L-5,642 L-4,665 L-5,714 L-4,729 L-1,734 L3,736 L45,737 L89,737 L99,735 L102,732 L103,729 L104,712 L106,645 L108,640 L112,637 L185,637 L199,636 L204,632 L205,630 L206,607 L207,577 L207,542 L205,537 L201,534 L198,533 L175,533 L121,532 L112,531 L109,529 L108,522 L108,443 L105,436 L102,434 L96,433 Z M365,571 L364,572 L364,578 L369,577 L370,573 L368,571 Z " fill="#000000" transform="translate(476,99)"/>
</svg>
