<?xml version="1.0" encoding="UTF-8"?>
<!-- Generator: visioncortex VTracer 0.6.12 -->
<svg version="1.1" xmlns="http://www.w3.org/2000/svg" width="1080" height="1365">
<path d="M0,0 L4,2 L41,2 L62,3 L216,3 L250,4 L274,4 L391,5 L463,5 L516,6 L659,7 L702,6 L769,8 L872,9 L870,15 L870,52 L869,62 L867,64 L843,64 L834,65 L824,64 L783,64 L707,63 L639,63 L613,62 L546,62 L545,63 L538,62 L496,61 L462,61 L460,65 L455,63 L453,61 L388,61 L346,60 L287,60 L207,59 L195,60 L194,59 L62,59 L38,58 L-14,57 L-142,57 L-175,56 L-175,2 L-170,1 L-113,1 L-41,2 L-4,2 Z " fill="#000000" transform="translate(175,52)"/>
<path d="M0,0 L158,0 L165,1 L200,1 L208,0 L213,1 L220,1 L228,0 L246,1 L304,1 L375,2 L386,3 L390,4 L393,2 L468,2 L492,3 L633,3 L680,4 L817,4 L859,5 L885,5 L964,6 L980,8 L999,9 L1011,9 L1026,8 L1029,10 L1030,28 L1029,79 L1029,92 L1028,113 L1027,205 L1026,273 L1024,362 L1023,424 L1022,438 L1022,468 L1020,576 L1017,782 L1016,842 L1015,929 L1014,984 L1014,1003 L1013,1027 L1013,1057 L1012,1142 L1010,1149 L1008,1151 L910,1151 L897,1150 L847,1150 L799,1149 L657,1149 L629,1148 L557,1148 L530,1147 L467,1147 L421,1146 L320,1146 L183,1144 L112,1144 L-13,1143 L-13,1131 L-3,1130 L14,1130 L22,1131 L27,1130 L139,1131 L254,1131 L278,1132 L351,1132 L440,1133 L507,1133 L563,1134 L672,1134 L706,1135 L799,1135 L827,1136 L901,1136 L953,1137 L992,1137 L998,1134 L999,1132 L1000,1109 L1001,1064 L1002,1049 L1002,978 L1003,908 L1004,857 L1005,777 L1005,764 L1006,743 L1006,710 L1007,649 L1008,576 L1009,529 L1009,509 L1011,412 L1012,353 L1013,307 L1014,240 L1014,222 L1015,150 L1017,57 L1017,29 L1015,23 L1010,20 L935,19 L902,19 L831,17 L701,17 L667,18 L638,18 L621,17 L570,17 L524,16 L461,16 L386,15 L385,12 L376,14 L370,16 L358,16 L351,15 L-13,15 L-13,1 Z " fill="#000000" transform="translate(13,180)"/>
<path d="M0,0 L7,1 L17,4 L30,12 L38,22 L43,34 L44,41 L45,58 L45,89 L44,150 L45,169 L43,207 L43,247 L42,292 L42,315 L44,326 L47,331 L55,335 L62,334 L68,329 L71,313 L71,291 L73,140 L73,110 L74,58 L76,38 L84,22 L85,20 L87,20 L89,16 L94,11 L99,7 L111,2 L117,2 L122,0 L129,0 L144,4 L154,10 L159,14 L167,25 L172,38 L172,184 L170,251 L170,318 L172,328 L175,333 L176,334 L191,334 L196,328 L198,309 L199,213 L200,158 L201,130 L201,110 L202,52 L206,36 L214,22 L221,15 L230,9 L239,6 L256,5 L267,6 L279,13 L287,20 L293,28 L298,41 L299,50 L299,93 L298,178 L298,199 L297,226 L297,255 L296,302 L296,361 L295,424 L295,450 L296,464 L302,463 L311,451 L321,436 L325,428 L336,412 L341,403 L350,388 L358,375 L365,365 L370,356 L377,346 L385,332 L395,317 L405,299 L419,282 L427,275 L437,269 L448,266 L464,267 L475,274 L482,282 L486,291 L488,303 L487,318 L481,341 L477,350 L471,366 L467,375 L462,392 L454,411 L449,424 L444,436 L439,448 L436,456 L430,472 L425,482 L419,499 L411,518 L407,529 L403,542 L397,554 L389,574 L384,587 L377,603 L372,617 L366,632 L360,647 L352,668 L347,679 L342,694 L338,703 L332,719 L329,725 L326,734 L318,754 L311,765 L304,774 L290,784 L264,796 L257,800 L244,812 L236,823 L232,837 L230,851 L230,870 L229,886 L224,891 L217,892 L88,892 L-26,891 L-75,891 L-117,892 L-132,891 L-137,888 L-139,884 L-140,826 L-143,817 L-147,810 L-147,808 L-149,808 L-154,803 L-160,798 L-173,791 L-181,782 L-184,776 L-188,767 L-191,748 L-191,726 L-190,717 L-189,654 L-189,637 L-190,623 L-191,619 L-191,601 L-189,594 L-187,536 L-188,526 L-187,485 L-186,399 L-185,330 L-185,321 L-184,309 L-182,59 L-178,44 L-170,31 L-162,23 L-147,15 L-139,13 L-125,13 L-112,17 L-99,26 L-91,39 L-87,48 L-85,56 L-85,81 L-86,92 L-86,177 L-88,294 L-88,318 L-85,328 L-79,333 L-74,335 L-68,334 L-60,329 L-57,315 L-57,283 L-56,245 L-56,199 L-55,180 L-54,122 L-54,67 L-53,45 L-49,32 L-42,20 L-33,10 L-25,5 L-15,1 Z M241,20 L230,24 L221,33 L216,41 L214,47 L213,65 L216,71 L223,74 L277,74 L284,71 L287,64 L287,54 L285,42 L279,32 L271,24 L258,20 Z M237,87 L218,90 L214,98 L213,132 L214,150 L216,152 L221,151 L231,142 L239,133 L246,125 L255,115 L263,104 L268,97 L268,92 L263,89 L260,88 L243,88 Z M280,108 L272,114 L267,120 L260,128 L251,138 L238,154 L233,159 L231,164 L232,168 L235,170 L240,171 L278,171 L283,168 L286,160 L286,112 L282,108 Z M255,186 L248,187 L230,187 L218,189 L214,194 L212,203 L213,224 L217,229 L219,230 L279,230 L284,225 L285,223 L285,196 L282,190 L279,188 Z M228,246 L218,247 L213,253 L212,259 L212,281 L215,286 L218,288 L278,288 L283,283 L285,268 L284,253 L280,247 L279,246 Z M12,433 L3,436 L0,441 L-1,453 L-3,523 L-6,529 L-11,532 L-58,532 L-92,533 L-98,537 L-101,540 L-102,550 L-103,591 L-103,621 L-101,631 L-95,636 L-39,637 L-9,638 L-5,642 L-4,665 L-5,719 L-4,729 L-1,734 L3,736 L45,737 L89,737 L99,735 L102,732 L103,729 L104,712 L106,645 L108,640 L112,637 L184,637 L198,636 L204,632 L205,630 L206,607 L207,577 L207,542 L205,537 L201,534 L198,533 L175,533 L120,532 L110,530 L108,523 L108,443 L105,436 L102,434 L96,433 Z M365,571 L364,572 L364,578 L369,577 L370,573 L368,571 Z " fill="#000000" transform="translate(359,291)"/>
</svg>
