<?xml version="1.0" encoding="UTF-8"?>
<!-- Generator: visioncortex VTracer 0.6.12 -->
<svg version="1.1" xmlns="http://www.w3.org/2000/svg" width="1113" height="1206">
<path d="M0,0 L70,0 L76,1 L79,0 L103,0 L114,1 L177,1 L195,2 L200,1 L208,2 L219,1 L283,2 L297,1 L299,2 L349,2 L358,3 L411,3 L418,4 L466,4 L483,5 L530,5 L548,6 L620,6 L627,7 L690,7 L730,8 L751,8 L766,9 L793,18 L812,28 L824,36 L829,40 L837,47 L841,51 L841,53 L843,53 L852,64 L860,76 L866,86 L870,92 L873,101 L878,114 L882,134 L882,211 L880,296 L879,341 L878,356 L878,376 L877,400 L875,496 L874,529 L873,634 L872,651 L872,671 L871,724 L871,745 L870,754 L870,812 L869,859 L868,872 L868,883 L865,909 L863,920 L856,939 L848,954 L842,962 L836,970 L829,974 L825,980 L820,985 L811,993 L797,1002 L785,1009 L763,1017 L743,1021 L727,1023 L649,1023 L641,1022 L569,1022 L458,1020 L420,1020 L389,1019 L365,1019 L351,1018 L326,1018 L266,1017 L257,1017 L247,1018 L226,1017 L115,1017 L111,1015 L102,1016 L49,1016 L14,1015 L-25,1015 L-37,1013 L-52,1009 L-60,1007 L-84,997 L-94,992 L-104,985 L-104,983 L-109,981 L-118,974 L-127,963 L-134,956 L-139,947 L-146,937 L-155,918 L-159,906 L-162,878 L-162,864 L-161,855 L-161,838 L-160,796 L-160,770 L-159,735 L-159,687 L-158,658 L-158,573 L-157,537 L-157,441 L-156,308 L-156,225 L-155,209 L-155,175 L-154,137 L-149,105 L-144,92 L-138,80 L-130,65 L-121,54 L-112,42 L-98,31 L-88,24 L-77,18 L-67,13 L-58,9 L-50,6 L-31,2 L-24,1 Z M163,12 L159,14 L140,14 L121,13 L-8,13 L-27,14 L-47,19 L-57,22 L-76,31 L-84,36 L-95,44 L-103,51 L-108,56 L-117,67 L-123,76 L-129,85 L-135,96 L-142,122 L-144,133 L-145,166 L-146,213 L-147,310 L-147,345 L-148,421 L-150,423 L-149,427 L-149,546 L-150,665 L-150,686 L-151,746 L-151,793 L-153,856 L-153,881 L-150,899 L-146,912 L-143,922 L-132,942 L-123,954 L-116,961 L-110,968 L-101,975 L-90,982 L-71,992 L-49,999 L-38,1002 L-30,1003 L6,1004 L88,1005 L96,1006 L101,1005 L178,1006 L208,1006 L261,1007 L344,1007 L382,1008 L489,1009 L514,1010 L549,1010 L575,1011 L602,1011 L702,1012 L717,1012 L726,1011 L736,1011 L755,1007 L775,1000 L787,995 L801,987 L812,979 L819,972 L823,967 L828,962 L834,954 L842,942 L850,926 L855,910 L857,899 L859,810 L860,726 L861,659 L863,549 L864,542 L864,514 L865,500 L866,444 L866,386 L867,380 L867,357 L868,319 L869,305 L869,289 L870,269 L870,249 L871,204 L871,178 L872,153 L872,143 L869,121 L863,104 L854,85 L846,74 L835,61 L830,56 L824,51 L813,43 L803,36 L793,31 L781,27 L756,21 L731,18 L721,19 L690,20 L662,19 L616,19 L601,18 L571,18 L545,17 L469,17 L446,16 L438,15 L421,16 L367,16 L335,15 L290,15 L211,14 L183,14 L169,13 Z " fill="#000000" transform="translate(198,36)"/>
<path d="M0,0 L18,0 L38,5 L49,12 L60,21 L66,26 L74,42 L79,56 L80,60 L80,67 L76,71 L60,71 L56,69 L51,70 L45,71 L14,71 L-1,70 L-22,70 L-56,69 L-59,66 L-58,52 L-52,36 L-44,23 L-39,18 L-30,10 L-20,5 L-13,3 L-8,1 Z " fill="#000000" transform="translate(646,142)"/>
<path d="M0,0 L17,0 L29,7 L36,14 L43,25 L45,31 L45,119 L44,174 L42,221 L41,264 L41,287 L43,298 L47,307 L54,316 L63,322 L66,323 L127,325 L186,325 L192,328 L193,330 L193,456 L196,465 L204,472 L210,476 L227,477 L237,472 L242,466 L247,461 L252,456 L260,446 L262,446 L264,442 L271,434 L280,423 L286,416 L290,408 L300,400 L308,392 L314,384 L320,377 L324,373 L331,365 L345,350 L353,344 L368,336 L380,333 L405,333 L418,337 L425,343 L427,349 L426,357 L421,369 L414,383 L407,394 L398,409 L388,427 L381,437 L375,449 L369,459 L364,466 L360,474 L348,493 L341,506 L334,517 L323,536 L317,545 L307,561 L299,574 L293,584 L285,601 L279,611 L268,626 L262,635 L257,641 L251,651 L247,656 L240,666 L233,674 L218,685 L202,693 L185,701 L174,709 L166,718 L160,730 L154,746 L150,772 L148,790 L146,797 L144,798 L64,798 L55,797 L50,798 L46,797 L25,797 L16,796 L-11,796 L-52,795 L-109,795 L-130,794 L-133,790 L-135,749 L-138,728 L-143,712 L-147,702 L-157,688 L-164,681 L-167,679 L-167,677 L-171,675 L-181,669 L-191,660 L-200,653 L-209,641 L-214,632 L-219,626 L-222,620 L-226,611 L-230,603 L-235,586 L-239,554 L-239,539 L-240,501 L-240,427 L-239,383 L-238,378 L-239,368 L-239,322 L-238,315 L-238,184 L-237,143 L-237,112 L-236,103 L-236,79 L-235,66 L-231,55 L-225,47 L-218,41 L-210,37 L-204,36 L-192,37 L-178,44 L-169,54 L-165,62 L-164,89 L-165,175 L-166,212 L-167,230 L-168,301 L-167,310 L-163,316 L-161,318 L-153,319 L-146,316 L-142,310 L-141,301 L-140,196 L-140,127 L-138,54 L-136,42 L-130,32 L-121,23 L-116,20 L-109,18 L-91,18 L-80,22 L-73,29 L-68,34 L-64,42 L-63,46 L-63,161 L-66,283 L-65,308 L-62,314 L-58,318 L-58,320 L-47,320 L-41,316 L-38,308 L-37,278 L-35,274 L-35,269 L-37,266 L-37,125 L-36,113 L-36,87 L-35,82 L-36,73 L-36,47 L-34,32 L-30,19 L-27,13 L-18,6 L-4,1 Z M-126,58 L-127,62 L-123,63 L-124,58 Z M-61,369 L-66,372 L-67,375 L-68,390 L-70,463 L-72,468 L-75,470 L-167,470 L-172,472 L-174,475 L-175,481 L-176,518 L-175,569 L-170,572 L-164,573 L-95,574 L-75,575 L-73,578 L-72,583 L-72,643 L-71,667 L-67,672 L-52,673 L24,674 L34,672 L37,665 L38,613 L39,579 L43,575 L88,576 L137,576 L142,571 L143,569 L144,555 L145,524 L145,486 L142,477 L135,474 L61,473 L43,471 L41,469 L40,456 L40,376 L36,371 L29,370 L2,370 L-33,369 Z M278,553 Z " fill="#000000" transform="translate(510,159)"/>
<path d="M0,0 L51,0 L85,1 L97,1 L119,2 L120,5 L119,7 L104,12 L98,15 L88,17 L85,19 L72,23 L51,30 L44,33 L34,35 L25,39 L10,44 L3,46 L-4,45 L-5,42 L-5,6 L-4,2 Z " fill="#000000" transform="translate(592,227)"/>
<path d="M0,0 L5,0 L8,5 L8,41 L5,46 L2,48 L-57,48 L-116,46 L-122,45 L-123,42 L-118,39 L-99,32 L-85,28 L-78,25 L-70,23 L-61,19 L-53,17 L-49,15 L-40,13 L-28,9 L-19,6 L-2,1 Z " fill="#000000" transform="translate(718,251)"/>
<path d="M0,0 L10,1 L79,2 L105,3 L115,4 L116,8 L101,13 L85,18 L75,20 L59,26 L37,31 L25,36 L1,42 L-6,41 L-7,39 L-8,15 L-6,5 L-3,1 Z " fill="#000000" transform="translate(593,316)"/>
<path d="M0,0 L8,0 L11,8 L10,41 L6,45 L-47,45 L-91,44 L-103,43 L-121,43 L-124,40 L-121,37 L-116,35 L-107,33 L-92,28 L-71,21 L-60,18 L-48,15 L-32,10 L-10,3 L-2,1 Z " fill="#000000" transform="translate(714,342)"/>
<path d="M0,0 L7,0 L15,1 L34,1 L56,2 L117,2 L130,5 L132,10 L132,47 L130,59 L127,61 L108,61 L57,60 L-1,59 L-6,55 L-8,46 L-8,28 L-7,6 L-3,1 Z " fill="#000000" transform="translate(592,405)"/>
<path d="M0,0 L4,1 L3,3 L0,3 Z " fill="#000000" transform="translate(86,529)"/>
<path d="M0,0 L25,1 L40,3 L51,11 L57,18 L60,29 L60,49 L56,64 L49,73 L43,78 L35,81 L19,82 L-4,81 L-7,78 L-7,67 L-6,63 L-6,41 L-5,14 L-4,2 Z M19,12 L9,14 L7,16 L5,46 L5,64 L7,69 L15,71 L27,71 L41,67 L46,57 L48,51 L49,37 L47,27 L41,18 L37,15 L26,12 Z " fill="#000000" transform="translate(44,1086)"/>
<path d="M0,0 L5,0 L6,1 L5,10 L-3,27 L-10,44 L-16,55 L-20,68 L-26,80 L-28,82 L-33,82 L-34,81 L-34,74 L-30,66 L-14,30 L-9,18 L-3,3 Z " fill="#000000" transform="translate(155,1087)"/>
<path d="M0,0 L45,1 L49,3 L49,9 L46,12 L13,12 L9,14 L8,17 L8,31 L12,33 L33,33 L40,35 L42,37 L42,42 L39,45 L15,45 L8,47 L6,51 L5,76 L2,79 L-4,79 L-6,77 L-6,54 L-4,8 L-2,1 Z " fill="#000000" transform="translate(190,1089)"/>
<path d="M0,0 L6,0 L8,2 L16,40 L18,50 L22,52 L25,49 L29,36 L34,21 L37,10 L42,2 L48,1 L53,5 L58,24 L64,50 L66,55 L70,54 L73,44 L79,25 L83,7 L87,2 L92,1 L95,6 L91,21 L84,44 L81,52 L79,61 L74,76 L70,80 L64,80 L60,77 L56,62 L52,47 L49,28 L48,25 L43,25 L36,46 L33,56 L30,65 L27,75 L24,79 L20,80 L15,78 L13,76 L8,53 L5,40 L1,25 L-2,13 L-2,2 Z " fill="#000000" transform="translate(252,1092)"/>
</svg>
