<?xml version="1.0" encoding="UTF-8"?>
<!-- Generator: visioncortex VTracer 0.6.12 -->
<svg version="1.1" xmlns="http://www.w3.org/2000/svg" width="774" height="1083">
<path d="M0,0 L774,0 L774,1083 L0,1083 Z M561,285 L559,287 L555,288 L518,289 L473,288 L324,288 L222,287 L215,286 L211,287 L152,287 L144,286 L138,290 L137,294 L136,307 L136,372 L135,462 L134,504 L134,571 L133,578 L134,583 L134,632 L133,669 L133,717 L132,721 L133,772 L134,794 L137,799 L139,801 L149,802 L150,803 L155,803 L156,802 L219,802 L237,803 L293,803 L329,804 L440,804 L445,802 L457,803 L465,804 L537,804 L553,805 L589,805 L630,804 L635,799 L636,794 L638,761 L640,748 L640,738 L638,731 L639,687 L638,654 L639,600 L639,497 L638,442 L638,380 L639,349 L639,295 L635,291 L629,289 L579,289 L566,285 Z M747,430 L747,433 L749,433 L749,430 Z M766,434 L765,438 L768,437 L767,434 Z M745,446 Z " fill="#000000" transform="translate(0,0)"/>
<path d="M0,0 L56,1 L76,0 L88,0 L107,1 L125,1 L128,4 L130,8 L131,36 L130,73 L129,88 L129,124 L131,131 L142,131 L152,132 L155,131 L170,131 L177,132 L199,132 L221,133 L233,133 L242,132 L246,136 L247,164 L247,219 L245,226 L246,234 L247,236 L246,254 L242,265 L239,267 L223,268 L169,268 L150,267 L128,267 L126,269 L125,273 L124,344 L124,382 L121,389 L116,393 L105,393 L98,394 L87,394 L57,392 L3,392 L-3,393 L-11,389 L-14,383 L-14,334 L-12,279 L-12,268 L-17,264 L-37,265 L-128,265 L-132,263 L-134,259 L-135,250 L-134,180 L-133,157 L-131,142 L-128,132 L-122,127 L-88,128 L-75,129 L-61,129 L-53,128 L-49,129 L-12,129 L-9,124 L-8,96 L-8,73 L-7,63 L-7,18 L-6,7 L-3,2 Z " fill="#000000" transform="translate(323,340)"/>
</svg>
