<?xml version="1.0" encoding="UTF-8"?>
<!-- Generator: visioncortex VTracer 0.6.12 -->
<svg version="1.1" xmlns="http://www.w3.org/2000/svg" width="1077" height="1125">
<path d="M0,0 L13,0 L13,2 L9,4 L7,8 L8,14 L12,17 L13,20 L14,43 L13,51 L13,98 L12,131 L9,133 L4,134 L4,139 L11,138 L12,139 L12,155 L11,160 L13,166 L13,172 L9,172 L5,172 L6,176 L12,181 L13,184 L13,212 L12,224 L11,226 L5,226 L5,228 L11,227 L12,228 L12,243 L11,248 L11,255 L12,260 L12,280 L13,291 L13,343 L12,414 L9,435 L11,489 L11,508 L7,509 L3,509 L4,512 L10,511 L11,517 L10,559 L9,582 L7,591 L7,601 L9,609 L10,634 L10,680 L9,709 L9,859 L8,878 L1,880 L0,880 Z M5,65 L6,69 L8,69 L8,65 Z M5,334 L3,336 L3,343 L6,344 L9,342 L8,335 Z M4,355 L3,359 L7,360 L8,357 L7,355 Z M4,660 L2,663 L3,665 L7,664 L6,660 Z " fill="#000000" transform="translate(0,0)"/>
<path d="M0,0 L4,1 L0,1 Z " fill="#000000" transform="translate(343,0)"/>
<path d="M0,0 L23,0 L23,1 L2,2 Z " fill="#000000" transform="translate(528,0)"/>
<path d="M0,0 Z " fill="#000000" transform="translate(556,0)"/>
<path d="M0,0 L516,0 L516,66 L511,64 L511,71 L513,72 L515,67 L516,67 L516,513 L512,514 L508,520 L508,523 L511,524 L515,520 L516,520 L516,698 L511,699 L511,703 L516,703 L516,1125 L479,1125 L480,1123 L485,1122 L497,1122 L501,1120 L503,1109 L501,1077 L502,1050 L502,869 L501,860 L502,846 L503,839 L503,794 L504,711 L503,706 L503,594 L504,588 L503,579 L503,536 L504,525 L503,467 L503,445 L504,438 L503,425 L503,351 L502,327 L503,319 L503,281 L502,241 L502,202 L503,178 L504,164 L502,157 L503,138 L503,122 L502,110 L502,65 L503,58 L504,19 L502,12 L497,10 L451,8 L425,7 L409,6 L322,6 L308,5 L283,5 L250,4 L162,4 L54,3 L19,3 L10,2 L2,2 Z " fill="#000000" transform="translate(561,0)"/>
<path d="M0,0 L5,0 L4,6 L2,10 L2,19 L6,28 L4,37 L-2,42 L-6,41 L-7,34 L-17,35 L-19,36 L-20,56 L-21,62 L-21,167 L-22,173 L-22,240 L-23,257 L-23,276 L-22,294 L-22,311 L-23,318 L-23,406 L-24,430 L-23,447 L-23,505 L-24,533 L-24,798 L-25,804 L-25,817 L-23,844 L-24,850 L-24,903 L-23,915 L-25,932 L-24,939 L-24,999 L-23,1006 L-23,1016 L-26,1022 L-29,1023 L-50,1023 L-60,1024 L-64,1020 L-64,943 L-68,933 L-75,930 L-99,929 L-346,929 L-377,930 L-382,933 L-384,939 L-384,968 L-383,984 L-383,1020 L-385,1022 L-390,1023 L-419,1023 L-422,1020 L-423,1014 L-423,893 L-422,883 L-422,797 L-421,733 L-421,669 L-420,460 L-420,430 L-419,424 L-420,415 L-419,400 L-419,249 L-418,168 L-418,85 L-417,39 L-416,37 L-407,37 L-399,35 L-378,35 L-376,41 L-377,44 L-379,67 L-380,114 L-377,121 L-373,124 L-330,125 L-196,125 L-117,126 L-95,126 L-69,125 L-64,124 L-62,120 L-61,117 L-61,38 L-59,35 L-34,35 L-28,31 L-17,19 L-10,11 L-3,2 Z M-387,133 L-401,134 L-406,138 L-408,142 L-408,209 L-407,219 L-408,227 L-408,248 L-407,266 L-407,330 L-408,340 L-409,452 L-409,465 L-411,482 L-411,581 L-410,591 L-410,622 L-409,627 L-409,647 L-410,655 L-410,685 L-409,715 L-410,826 L-412,849 L-411,852 L-412,874 L-411,884 L-411,913 L-406,919 L-399,920 L-365,920 L-321,921 L-44,921 L-38,917 L-36,914 L-36,748 L-35,735 L-35,604 L-34,569 L-34,547 L-35,534 L-34,522 L-34,360 L-33,341 L-34,319 L-34,293 L-33,266 L-33,255 L-32,239 L-33,232 L-33,141 L-38,136 L-51,134 L-218,134 L-309,133 Z M-415,922 L-416,926 L-411,926 L-411,922 Z " fill="#000000" transform="translate(732,49)"/>
<path d="M0,0 L68,0 L84,1 L87,4 L87,19 L86,33 L86,79 L88,95 L92,97 L94,98 L124,99 L159,99 L177,100 L182,104 L183,113 L183,193 L179,197 L173,198 L92,198 L87,201 L85,206 L85,257 L86,284 L87,292 L84,297 L80,299 L53,299 L34,298 L29,299 L-1,298 L-10,295 L-12,293 L-12,274 L-13,258 L-13,206 L-16,200 L-19,198 L-29,197 L-100,197 L-107,196 L-111,191 L-112,187 L-112,156 L-111,106 L-107,100 L-105,99 L-18,98 L-13,94 L-12,90 L-10,34 L-10,6 L-5,1 Z M28,44 L26,48 L32,53 L36,51 L35,48 Z M-78,171 L-79,175 L-74,176 L-73,172 Z M20,180 L20,184 L23,183 L23,180 Z M64,269 L62,273 L63,275 L67,274 L67,270 Z M44,276 L44,280 L47,281 L48,276 Z " fill="#000000" transform="translate(474,429)"/>
<path d="M0,0 L5,1 L4,5 L0,5 Z " fill="#000000" transform="translate(826,711)"/>
<path d="M0,0 L6,0 L7,1 L8,12 L4,16 L7,17 L8,26 L4,29 L5,34 L7,37 L7,40 L3,41 L0,40 Z " fill="#000000" transform="translate(0,881)"/>
<path d="M0,0 L4,1 L5,3 L5,23 L0,29 L-2,28 L-1,22 L-4,19 L-4,2 Z " fill="#000000" transform="translate(4,929)"/>
<path d="M0,0 L6,0 L8,1 L7,20 L8,55 L9,78 L9,99 L8,116 L7,120 L6,135 L5,136 L0,136 L0,101 L3,100 L2,96 L0,95 Z " fill="#000000" transform="translate(0,962)"/>
<path d="M0,0 L2,1 L1,12 L2,14 L18,16 L44,16 L94,17 L171,18 L223,18 L281,19 L545,19 L557,18 L590,19 L670,19 L693,20 L849,20 L859,21 L888,21 L892,23 L-4,23 L-4,1 Z " fill="#000000" transform="translate(4,1102)"/>
<path d="M0,0 L10,0 L21,1 L30,1 L31,3 L-71,3 L-69,1 L-8,1 Z " fill="#000000" transform="translate(976,1122)"/>
</svg>
