<?xml version="1.0" encoding="UTF-8"?>
<!-- Generator: visioncortex VTracer 0.6.12 -->
<svg version="1.1" xmlns="http://www.w3.org/2000/svg" width="1131" height="1131">
<path d="M0,0 L890,0 L890,2 L900,4 L923,15 L938,25 L941,29 L949,33 L951,38 L956,40 L962,45 L968,52 L973,57 L983,70 L990,80 L996,90 L1001,100 L1005,110 L1010,122 L1011,123 L1011,991 L1008,999 L1004,1013 L1001,1018 L995,1032 L985,1048 L977,1059 L970,1067 L961,1078 L956,1083 L949,1090 L941,1096 L934,1102 L918,1112 L902,1120 L884,1128 L876,1131 L-5,1131 L-15,1126 L-25,1122 L-43,1112 L-49,1109 L-59,1101 L-69,1093 L-85,1077 L-94,1066 L-102,1055 L-105,1047 L-111,1037 L-118,1022 L-120,1018 L-120,123 L-116,114 L-110,100 L-105,91 L-101,82 L-91,67 L-80,54 L-75,48 L-67,41 L-57,32 L-45,23 L-27,13 L-21,9 L-10,5 Z M307,21 L265,22 L173,22 L159,23 L80,23 L74,22 L42,24 L29,27 L15,30 L2,34 L-13,41 L-20,45 L-31,53 L-37,57 L-50,69 L-59,78 L-71,95 L-78,106 L-86,123 L-93,146 L-95,155 L-96,165 L-97,227 L-97,410 L-98,462 L-98,560 L-99,658 L-99,968 L-96,989 L-89,1009 L-83,1024 L-76,1037 L-72,1042 L-65,1050 L-54,1062 L-46,1070 L-36,1078 L-27,1084 L-17,1090 L-7,1095 L7,1100 L16,1103 L25,1105 L29,1107 L67,1109 L172,1109 L187,1110 L221,1109 L529,1109 L609,1108 L625,1108 L636,1109 L661,1108 L751,1107 L812,1106 L849,1104 L865,1100 L878,1095 L885,1093 L900,1085 L915,1076 L926,1067 L931,1063 L937,1056 L945,1049 L951,1041 L959,1030 L968,1013 L973,1003 L976,994 L978,992 L983,966 L984,959 L985,927 L987,781 L987,746 L988,668 L988,592 L987,460 L987,194 L985,160 L983,147 L978,130 L972,114 L963,98 L954,85 L948,77 L931,60 L926,56 L921,53 L913,47 L892,36 L877,30 L855,25 L836,23 L825,22 L779,21 L737,22 L687,21 L395,21 L369,22 L342,22 Z M-101,102 L-101,106 L-98,105 L-98,102 Z " fill="#000000" transform="translate(120,0)"/>
<path d="M0,0 L57,0 L62,3 L63,5 L64,67 L65,70 L70,72 L128,72 L132,75 L134,88 L134,114 L133,138 L130,143 L99,144 L71,144 L66,148 L64,154 L63,195 L62,210 L58,215 L45,215 L37,216 L-3,215 L-7,212 L-8,208 L-8,159 L-11,147 L-15,145 L-68,145 L-77,143 L-79,142 L-80,136 L-80,105 L-79,78 L-75,74 L-68,73 L-27,73 L-11,71 L-9,68 L-8,50 L-7,6 L-4,1 Z " fill="#000000" transform="translate(764,181)"/>
<path d="M0,0 L10,2 L15,4 L26,12 L32,24 L33,31 L33,255 L32,361 L34,372 L40,380 L45,382 L56,382 L64,377 L67,372 L68,368 L69,343 L69,310 L70,279 L70,158 L71,90 L74,78 L82,67 L92,61 L103,58 L114,58 L123,63 L135,74 L139,84 L140,94 L141,145 L140,210 L140,255 L139,403 L139,421 L141,442 L148,456 L156,466 L163,472 L173,477 L184,481 L201,481 L211,479 L220,475 L228,469 L258,439 L263,434 L273,424 L277,419 L281,416 L283,416 L285,412 L290,408 L303,400 L323,392 L334,390 L344,390 L369,393 L385,400 L394,405 L405,414 L408,418 L408,424 L400,433 L392,440 L388,445 L382,450 L378,455 L370,462 L359,474 L351,481 L344,489 L332,501 L327,506 L314,519 L312,519 L310,523 L285,548 L279,555 L271,562 L253,580 L248,585 L229,604 L224,609 L216,618 L208,625 L199,634 L197,637 L195,637 L193,641 L183,651 L176,660 L168,667 L164,673 L155,686 L150,694 L144,707 L138,730 L136,759 L133,764 L132,765 L114,766 L-92,766 L-128,767 L-136,766 L-237,766 L-252,765 L-255,759 L-255,594 L-254,506 L-254,341 L-253,134 L-250,118 L-243,106 L-235,100 L-226,96 L-212,96 L-203,99 L-197,102 L-192,107 L-187,114 L-184,122 L-183,145 L-183,366 L-181,375 L-180,378 L-175,380 L-169,383 L-158,382 L-153,379 L-149,374 L-148,370 L-147,328 L-146,226 L-146,117 L-145,85 L-142,70 L-135,60 L-128,54 L-123,51 L-113,49 L-102,49 L-86,57 L-78,69 L-75,79 L-75,295 L-74,366 L-71,375 L-66,380 L-60,382 L-50,382 L-42,376 L-39,369 L-38,366 L-37,309 L-37,85 L-36,67 L-36,37 L-34,24 L-29,15 L-24,9 L-14,2 Z M331,400 L320,402 L307,407 L302,411 L301,418 L313,431 L318,436 L323,442 L331,449 L339,458 L348,465 L350,466 L356,466 L363,459 L370,451 L382,440 L389,432 L396,424 L395,418 L388,412 L371,404 L354,400 Z M288,422 L277,431 L270,439 L269,445 L275,449 L294,454 L319,460 L325,460 L326,456 L319,448 L308,436 L306,436 L304,432 L298,427 L292,422 Z M252,458 L244,464 L235,473 L232,477 L233,482 L238,485 L262,491 L279,495 L286,496 L289,494 L287,489 L281,482 L276,477 L263,464 L259,460 L255,458 Z M278,459 L276,460 L277,466 L289,479 L294,484 L301,491 L307,496 L312,501 L317,502 L324,498 L329,493 L338,483 L340,480 L339,475 L334,472 L316,467 L299,463 L292,460 Z M227,490 L222,493 L224,498 L233,508 L246,521 L251,526 L268,543 L275,544 L281,540 L289,533 L296,525 L301,519 L304,517 L305,513 L302,509 L278,502 L269,500 L253,496 Z " fill="#000000" transform="translate(484,184)"/>
</svg>
