<?xml version="1.0" encoding="UTF-8"?>
<!-- Generator: visioncortex VTracer 0.6.12 -->
<svg version="1.1" xmlns="http://www.w3.org/2000/svg" width="1191" height="1278">
<path d="M0,0 L2,1 L2,3 L-1,3 Z " fill="#000000" transform="translate(553,36)"/>
<path d="M0,0 L35,1 L98,0 L101,1 L113,1 L121,0 L125,1 L158,0 L165,1 L217,1 L234,2 L252,1 L257,2 L271,2 L284,3 L298,3 L304,2 L344,3 L411,3 L439,4 L493,4 L528,5 L579,6 L642,7 L646,8 L657,8 L683,11 L689,13 L697,14 L700,16 L709,17 L728,24 L748,32 L766,43 L779,53 L787,59 L798,66 L800,70 L804,72 L812,80 L817,84 L823,92 L832,104 L836,110 L843,120 L846,127 L850,134 L855,144 L861,156 L867,175 L872,193 L873,195 L875,212 L877,224 L878,256 L877,270 L877,300 L876,370 L876,428 L875,479 L874,577 L873,639 L872,674 L871,752 L870,783 L870,830 L869,851 L868,911 L865,936 L860,959 L856,969 L853,980 L847,992 L839,1008 L827,1027 L818,1039 L809,1051 L805,1057 L797,1064 L788,1071 L783,1076 L772,1085 L759,1093 L757,1093 L757,1095 L737,1106 L721,1114 L714,1115 L707,1116 L697,1121 L676,1126 L673,1127 L662,1128 L659,1129 L616,1130 L493,1129 L438,1129 L403,1128 L383,1128 L354,1127 L250,1127 L244,1126 L166,1126 L141,1124 L134,1124 L132,1125 L122,1125 L114,1126 L110,1125 L84,1125 L63,1124 L-3,1124 L-13,1123 L-35,1122 L-47,1119 L-65,1116 L-85,1111 L-95,1106 L-121,1094 L-130,1089 L-141,1082 L-149,1075 L-157,1068 L-163,1063 L-171,1056 L-176,1052 L-183,1044 L-190,1036 L-197,1026 L-207,1011 L-220,987 L-228,967 L-237,937 L-240,922 L-242,887 L-242,710 L-240,594 L-241,557 L-240,489 L-238,439 L-238,395 L-236,310 L-236,296 L-235,277 L-235,216 L-231,188 L-224,165 L-219,149 L-211,133 L-200,111 L-193,100 L-187,92 L-180,84 L-170,74 L-163,66 L-155,58 L-144,49 L-133,41 L-122,34 L-107,26 L-99,22 L-83,16 L-77,13 L-67,10 L-58,8 L-54,6 L-44,5 L-42,4 L-28,2 L-22,1 Z M396,411 L368,412 L355,412 L351,413 L334,414 L293,419 L268,424 L256,427 L244,429 L235,433 L219,436 L205,442 L192,446 L181,451 L173,453 L165,457 L152,462 L145,466 L129,473 L113,482 L103,488 L94,492 L86,498 L78,502 L69,509 L58,515 L47,523 L41,524 L31,520 L17,512 L7,504 L-10,494 L-21,487 L-38,476 L-46,472 L-56,465 L-75,453 L-82,448 L-92,443 L-97,441 L-100,443 L-100,451 L-92,468 L-88,473 L-82,485 L-73,498 L-65,511 L-55,530 L-48,540 L-40,553 L-39,562 L-43,570 L-49,579 L-55,588 L-58,594 L-64,605 L-76,623 L-85,638 L-95,657 L-98,662 L-98,667 L-94,670 L-88,668 L-70,658 L-64,653 L-56,649 L-44,642 L-32,634 L-22,627 L-16,624 L-10,619 L6,611 L15,605 L25,598 L35,593 L44,594 L54,599 L67,609 L82,619 L89,623 L105,633 L119,641 L133,647 L138,651 L151,657 L160,660 L176,668 L190,672 L209,680 L213,682 L222,684 L238,688 L245,691 L262,695 L268,697 L278,698 L284,700 L296,702 L312,704 L321,706 L360,708 L363,710 L436,709 L450,708 L458,706 L467,706 L476,705 L481,703 L497,700 L526,695 L536,692 L546,690 L564,685 L572,682 L580,680 L589,676 L602,672 L614,667 L623,664 L632,659 L646,653 L655,649 L665,644 L673,640 L681,635 L688,632 L699,624 L707,619 L720,611 L724,605 L724,596 L718,587 L707,575 L703,569 L703,562 L708,554 L711,551 L715,543 L723,532 L724,529 L724,522 L718,515 L711,511 L708,508 L690,497 L679,491 L670,484 L661,480 L645,472 L635,467 L622,462 L613,457 L599,451 L583,445 L564,439 L556,436 L546,435 L534,430 L517,427 L512,424 L500,422 L486,420 L484,419 L467,417 L463,416 L449,415 L438,413 L406,411 Z M702,842 L699,844 L700,848 L704,847 L706,842 Z M-47,1022 L-47,1024 L-44,1024 L-44,1022 Z " fill="#000000" transform="translate(279,122)"/>
<path d="M0,0 L6,0 L14,5 L18,11 L19,20 L15,28 L8,32 L1,33 L-9,28 L-13,22 L-14,13 L-11,8 L-6,3 Z " fill="#000000" transform="translate(908,624)"/>
<path d="M0,0 L2,0 L2,2 L0,2 Z " fill="#000000" transform="translate(796,775)"/>
</svg>
