<?xml version="1.0" encoding="UTF-8"?>
<!-- Generator: visioncortex VTracer 0.6.12 -->
<svg version="1.1" xmlns="http://www.w3.org/2000/svg" width="642" height="630">
<path d="M0,0 L26,2 L63,3 L78,5 L104,7 L126,9 L148,14 L182,20 L188,22 L202,25 L214,29 L226,32 L242,39 L257,47 L267,52 L272,58 L278,69 L280,80 L280,177 L279,191 L280,197 L280,205 L279,210 L278,265 L278,358 L277,379 L277,416 L276,445 L272,463 L270,478 L264,495 L260,504 L253,512 L242,520 L226,525 L222,527 L222,529 L207,536 L192,541 L173,547 L158,551 L143,554 L135,557 L114,561 L110,563 L78,565 L54,569 L11,573 L-14,573 L-36,571 L-63,571 L-93,568 L-109,564 L-145,561 L-164,557 L-175,553 L-215,544 L-228,541 L-251,533 L-262,529 L-268,525 L-284,517 L-291,511 L-295,503 L-297,492 L-298,476 L-298,404 L-299,341 L-300,310 L-300,281 L-301,257 L-302,250 L-301,219 L-302,188 L-303,138 L-304,110 L-304,85 L-299,71 L-292,61 L-276,48 L-261,40 L-241,32 L-226,28 L-191,19 L-153,13 L-139,10 L-114,8 L-91,6 L-67,3 L-62,1 L-52,2 L-40,2 L-27,1 Z M-44,27 L-61,30 L-97,31 L-110,33 L-120,33 L-141,36 L-183,42 L-199,46 L-213,48 L-240,56 L-261,65 L-272,71 L-276,76 L-276,85 L-266,91 L-257,95 L-238,100 L-231,102 L-200,107 L-197,108 L-183,109 L-180,110 L-139,113 L-118,114 L-110,115 L-79,116 L-29,116 L-3,115 L21,113 L61,111 L71,109 L109,107 L133,103 L171,97 L199,92 L205,90 L216,88 L228,82 L244,74 L246,71 L245,64 L240,58 L229,53 L218,51 L204,47 L190,44 L174,39 L149,35 L146,34 L120,33 L89,30 L55,28 L-6,27 Z M243,106 L227,112 L215,116 L190,121 L171,124 L157,126 L153,127 L139,128 L114,132 L83,134 L64,136 L49,137 L44,138 L17,139 L3,141 L-36,141 L-83,142 L-115,139 L-163,137 L-179,135 L-199,134 L-210,131 L-225,130 L-238,128 L-252,125 L-265,121 L-274,121 L-277,125 L-279,141 L-278,153 L-278,188 L-276,222 L-277,251 L-276,275 L-276,307 L-275,325 L-275,375 L-274,391 L-274,406 L-275,425 L-274,447 L-273,493 L-269,499 L-262,505 L-246,514 L-224,522 L-209,527 L-204,529 L-189,531 L-177,534 L-162,537 L-138,540 L-121,543 L-115,545 L-98,545 L-60,548 L23,548 L34,546 L45,546 L49,547 L56,547 L61,546 L75,545 L86,542 L101,539 L123,533 L142,529 L157,525 L177,520 L186,516 L206,508 L227,501 L234,495 L243,488 L248,478 L251,464 L252,389 L252,336 L253,296 L253,160 L254,157 L255,120 L253,109 L249,106 Z " fill="#000000" transform="translate(335,30)"/>
<path d="M0,0 L6,0 L14,5 L20,12 L23,19 L25,28 L28,48 L31,59 L33,64 L42,67 L85,70 L105,73 L111,75 L126,77 L147,85 L160,90 L172,95 L192,103 L204,107 L214,113 L231,121 L245,129 L252,133 L274,148 L285,156 L293,165 L304,174 L309,178 L309,180 L311,180 L318,188 L325,199 L331,208 L340,220 L351,240 L357,252 L363,263 L365,267 L365,275 L362,280 L354,286 L350,287 L292,287 L277,283 L269,280 L240,276 L222,271 L215,268 L196,263 L174,254 L164,248 L156,243 L144,238 L137,233 L129,229 L118,220 L102,210 L92,200 L81,191 L73,182 L68,177 L60,167 L48,151 L38,136 L27,117 L19,100 L14,95 L10,93 L4,92 L-8,92 L-33,97 L-43,100 L-51,100 L-57,95 L-60,85 L-57,76 L-53,71 L-46,59 L-43,54 L-39,46 L-35,41 L-28,29 L-19,16 L-14,9 L-3,1 Z M-3,43 L-7,45 L-13,54 L-15,59 L-15,65 L-12,67 L-4,68 L3,65 L6,60 L4,49 L1,44 Z M53,91 L47,94 L47,103 L54,117 L59,125 L63,131 L67,136 L78,151 L87,161 L93,169 L104,178 L113,186 L122,193 L126,196 L137,202 L146,209 L175,224 L190,231 L201,236 L218,241 L226,244 L234,244 L239,241 L247,225 L252,217 L257,213 L261,208 L272,199 L279,191 L277,185 L272,178 L259,168 L253,163 L245,159 L232,151 L221,145 L205,136 L198,133 L183,126 L157,115 L137,107 L128,103 L103,96 L86,93 L84,92 Z M298,211 L292,214 L278,225 L273,229 L267,239 L266,242 L266,249 L270,253 L279,256 L291,259 L299,261 L317,261 L327,258 L329,256 L328,249 L320,232 L310,219 L305,213 Z " fill="#000000" transform="translate(137,181)"/>
</svg>
