<?xml version="1.0" encoding="UTF-8"?>
<!-- Generator: visioncortex VTracer 0.6.12 -->
<svg version="1.1" xmlns="http://www.w3.org/2000/svg" width="1071" height="1092">
<path d="M0,0 L41,0 L39,5 L25,20 L11,34 L2,45 L0,45 Z " fill="#000000" transform="translate(0,0)"/>
<path d="M0,0 L74,0 L72,4 L64,10 L61,15 L52,22 L38,34 L27,46 L19,55 L12,63 L6,71 L2,78 L-10,92 L-17,100 L-21,108 L-30,118 L-35,123 L-43,137 L-52,146 L-61,162 L-69,173 L-75,183 L-82,191 L-89,205 L-93,210 L-98,225 L-101,235 L-104,242 L-106,242 L-106,145 L-99,136 L-89,121 L-84,112 L-76,101 L-68,92 L-63,81 L-57,71 L-53,65 L-47,54 L-41,47 L-37,43 L-33,35 L-21,24 L-13,15 L-6,7 Z " fill="#000000" transform="translate(106,0)"/>
<path d="M0,0 L62,0 L61,4 L57,10 L47,19 L36,28 L22,38 L12,46 L6,50 L-1,58 L-12,68 L-17,75 L-26,82 L-35,92 L-47,106 L-56,118 L-68,130 L-72,136 L-81,144 L-89,150 L-97,161 L-100,166 L-108,177 L-114,186 L-120,191 L-129,204 L-135,214 L-141,219 L-147,228 L-152,235 L-155,241 L-157,241 L-159,246 L-163,253 L-170,261 L-181,277 L-186,285 L-192,296 L-199,304 L-201,304 L-203,308 L-209,313 L-213,319 L-217,333 L-225,344 L-235,360 L-241,369 L-249,384 L-257,401 L-269,415 L-280,425 L-286,426 L-286,338 L-281,330 L-271,314 L-266,307 L-262,299 L-257,293 L-253,285 L-245,275 L-235,257 L-229,253 L-219,238 L-209,223 L-203,215 L-196,205 L-186,191 L-177,181 L-167,168 L-164,167 L-162,163 L-155,156 L-146,145 L-135,133 L-129,128 L-123,117 L-107,101 L-99,90 L-95,86 L-88,78 L-79,70 L-71,63 L-55,47 L-47,40 L-37,31 L-29,24 L-21,15 L-11,9 L-3,3 Z " fill="#000000" transform="translate(286,0)"/>
<path d="M0,0 L120,0 L117,3 L101,7 L93,13 L84,17 L79,21 L71,24 L62,26 L51,31 L42,34 L40,38 L38,39 L27,40 L13,47 L6,53 L-6,59 L-22,67 L-37,75 L-40,76 L-44,82 L-63,90 L-70,94 L-89,104 L-101,112 L-108,117 L-122,124 L-130,130 L-143,139 L-153,147 L-162,154 L-170,161 L-182,172 L-191,182 L-196,187 L-198,187 L-200,191 L-209,202 L-215,209 L-223,220 L-229,228 L-235,238 L-243,251 L-251,267 L-259,282 L-264,293 L-267,301 L-273,318 L-277,329 L-280,339 L-284,360 L-286,370 L-288,390 L-289,407 L-289,441 L-288,467 L-286,480 L-283,508 L-281,513 L-277,537 L-274,547 L-272,554 L-270,566 L-265,581 L-260,595 L-256,608 L-248,628 L-245,635 L-241,648 L-238,653 L-234,663 L-230,671 L-226,681 L-219,697 L-209,715 L-206,722 L-198,738 L-193,748 L-191,757 L-187,763 L-179,774 L-172,782 L-168,787 L-159,791 L-27,791 L-19,790 L-3,790 L7,789 L117,789 L196,788 L225,787 L275,786 L281,783 L287,776 L291,766 L299,750 L309,731 L315,721 L322,707 L327,699 L337,683 L345,673 L352,659 L359,649 L363,644 L372,631 L379,623 L388,612 L399,600 L408,590 L419,578 L430,566 L441,554 L448,546 L465,529 L473,523 L480,515 L488,509 L499,499 L507,492 L520,482 L528,475 L541,467 L551,458 L561,451 L569,447 L580,439 L595,430 L598,430 L598,476 L590,480 L574,492 L560,502 L552,508 L539,519 L531,526 L522,533 L514,541 L504,549 L491,562 L483,569 L478,574 L468,584 L462,592 L457,597 L449,606 L442,614 L434,624 L425,635 L421,641 L413,652 L401,669 L390,687 L382,700 L376,710 L368,726 L358,743 L348,764 L345,772 L347,782 L352,785 L358,785 L368,782 L375,775 L384,762 L390,752 L393,747 L402,733 L408,725 L418,711 L423,703 L435,687 L444,677 L450,669 L455,663 L459,657 L467,648 L474,640 L483,629 L486,624 L491,621 L493,621 L495,616 L506,606 L512,599 L517,594 L524,588 L529,583 L539,574 L551,565 L558,557 L571,546 L581,538 L595,528 L598,527 L598,590 L588,598 L576,609 L563,621 L553,630 L548,635 L543,639 L536,647 L527,657 L522,662 L512,673 L505,682 L503,682 L501,686 L490,700 L481,712 L475,721 L467,732 L459,745 L450,761 L446,769 L443,777 L443,788 L445,801 L446,815 L447,816 L452,816 L459,806 L466,796 L472,785 L480,772 L489,761 L501,745 L513,729 L524,715 L533,705 L542,694 L555,680 L562,672 L577,658 L588,647 L593,643 L596,639 L598,639 L598,712 L593,717 L582,729 L573,740 L569,745 L565,749 L556,760 L545,774 L533,791 L523,806 L512,822 L506,832 L498,845 L491,857 L484,871 L474,890 L467,904 L463,914 L457,929 L452,939 L446,955 L437,977 L433,990 L425,1012 L420,1031 L417,1042 L413,1057 L406,1083 L404,1092 L348,1092 L350,1088 L352,1074 L356,1057 L361,1038 L365,1022 L371,1005 L375,990 L381,975 L389,951 L393,941 L396,934 L396,923 L392,920 L388,919 L379,922 L368,932 L359,947 L353,961 L347,977 L336,1005 L328,1030 L325,1039 L320,1052 L316,1066 L314,1071 L312,1080 L309,1092 L259,1092 L260,1088 L267,1062 L268,1053 L272,1042 L275,1030 L279,1017 L284,1002 L286,995 L288,991 L290,982 L298,962 L302,950 L306,941 L307,934 L307,926 L303,921 L301,920 L293,920 L283,925 L275,932 L269,941 L260,961 L251,982 L239,1011 L235,1025 L230,1037 L222,1063 L218,1076 L214,1092 L-124,1092 L-128,1082 L-130,1072 L-134,1063 L-136,1055 L-139,1048 L-142,1036 L-147,1025 L-152,1010 L-157,997 L-161,989 L-165,979 L-173,963 L-181,947 L-192,933 L-197,929 L-204,926 L-215,926 L-221,930 L-222,932 L-222,950 L-218,955 L-208,984 L-204,994 L-201,1007 L-197,1020 L-195,1030 L-188,1052 L-183,1069 L-178,1084 L-178,1092 L-224,1092 L-227,1078 L-233,1062 L-238,1046 L-247,1016 L-251,1006 L-256,989 L-259,979 L-264,966 L-268,953 L-275,941 L-278,935 L-285,929 L-294,926 L-296,923 L-297,911 L-298,881 L-302,872 L-306,855 L-315,836 L-326,816 L-332,805 L-337,799 L-343,789 L-351,773 L-357,762 L-363,754 L-373,738 L-379,726 L-388,715 L-395,704 L-402,696 L-411,683 L-418,674 L-425,666 L-432,654 L-440,644 L-444,633 L-451,627 L-457,618 L-464,612 L-468,606 L-473,601 L-473,512 L-470,513 L-463,521 L-454,526 L-442,539 L-436,547 L-428,554 L-419,563 L-414,568 L-403,580 L-393,594 L-387,602 L-378,616 L-368,629 L-365,634 L-360,639 L-351,649 L-346,655 L-339,666 L-330,679 L-324,686 L-317,699 L-313,710 L-305,721 L-301,729 L-296,742 L-287,758 L-279,774 L-276,780 L-270,788 L-267,790 L-258,791 L-247,791 L-240,788 L-238,782 L-240,771 L-248,753 L-254,736 L-258,728 L-262,717 L-267,706 L-271,694 L-275,685 L-279,672 L-287,654 L-289,645 L-293,637 L-301,611 L-302,609 L-304,595 L-309,585 L-311,583 L-314,571 L-315,561 L-320,551 L-322,540 L-326,522 L-330,475 L-332,467 L-333,452 L-333,396 L-331,370 L-325,348 L-322,334 L-320,319 L-316,311 L-311,294 L-309,280 L-301,263 L-293,248 L-287,236 L-278,220 L-268,205 L-258,191 L-246,177 L-235,164 L-228,158 L-221,150 L-215,143 L-203,134 L-196,128 L-188,121 L-181,114 L-176,107 L-165,99 L-153,89 L-145,83 L-135,74 L-125,67 L-108,59 L-98,52 L-80,42 L-76,38 L-63,32 L-50,27 L-41,21 L-35,18 L-28,12 L-18,10 L-4,4 Z M-144,920 L-145,925 L-140,926 L-140,922 Z M-28,1053 L-29,1058 L-27,1058 L-26,1054 Z " fill="#000000" transform="translate(473,0)"/>
<path d="M0,0 L8,0 L14,2 L14,31 L6,34 L-21,35 L-34,35 L-46,36 L-68,43 L-101,43 L-103,44 L-120,45 L-127,47 L-145,49 L-154,51 L-165,52 L-175,56 L-182,55 L-192,55 L-211,60 L-223,62 L-233,65 L-250,67 L-253,68 L-269,69 L-275,72 L-286,73 L-298,74 L-313,81 L-324,83 L-336,84 L-340,86 L-356,88 L-383,94 L-388,96 L-397,97 L-417,103 L-434,108 L-442,110 L-453,114 L-462,117 L-475,123 L-487,127 L-507,136 L-515,140 L-525,144 L-554,160 L-565,167 L-574,173 L-584,180 L-592,186 L-598,191 L-609,200 L-617,207 L-628,216 L-633,222 L-638,227 L-646,235 L-652,242 L-656,246 L-660,252 L-666,259 L-674,270 L-683,282 L-687,288 L-693,297 L-703,315 L-711,332 L-717,348 L-720,356 L-722,367 L-725,372 L-730,373 L-733,370 L-734,364 L-732,356 L-726,335 L-716,311 L-710,294 L-696,267 L-690,257 L-680,242 L-670,226 L-662,216 L-655,208 L-647,199 L-641,192 L-636,187 L-620,172 L-609,163 L-603,158 L-596,150 L-585,141 L-575,135 L-568,128 L-558,123 L-544,116 L-533,112 L-527,108 L-519,105 L-516,102 L-504,96 L-494,89 L-479,83 L-461,76 L-447,73 L-437,68 L-414,64 L-402,59 L-386,56 L-369,54 L-354,50 L-338,47 L-336,46 L-324,44 L-319,42 L-302,40 L-296,38 L-270,36 L-252,32 L-236,30 L-216,26 L-197,23 L-180,22 L-167,19 L-154,18 L-151,17 L-138,16 L-122,14 L-98,11 L-81,10 L-62,6 L-46,3 L-36,2 L-9,2 Z " fill="#000000" transform="translate(1057,22)"/>
<path d="M0,0 L2,1 Z " fill="#000000" transform="translate(721,64)"/>
<path d="M0,0 L1,0 L1,29 L-10,31 L-31,37 L-42,38 L-58,42 L-85,48 L-100,53 L-120,57 L-126,59 L-135,61 L-147,63 L-157,68 L-173,72 L-189,76 L-196,79 L-208,82 L-223,87 L-244,94 L-262,100 L-282,107 L-291,111 L-299,115 L-315,120 L-322,124 L-333,128 L-354,138 L-362,142 L-369,145 L-376,149 L-391,157 L-407,167 L-423,176 L-434,183 L-445,191 L-458,201 L-469,209 L-478,217 L-486,227 L-497,238 L-504,246 L-513,257 L-521,268 L-527,277 L-532,284 L-539,298 L-544,306 L-553,325 L-561,348 L-564,360 L-568,372 L-571,388 L-574,411 L-575,425 L-575,460 L-573,485 L-575,489 L-579,490 L-582,487 L-586,471 L-588,453 L-590,446 L-591,436 L-592,413 L-593,405 L-593,396 L-590,366 L-585,347 L-583,336 L-577,319 L-573,308 L-570,298 L-565,290 L-557,274 L-549,260 L-542,249 L-531,235 L-526,229 L-516,216 L-493,193 L-485,186 L-478,178 L-464,168 L-456,161 L-441,151 L-428,143 L-409,132 L-386,120 L-375,114 L-367,110 L-352,103 L-340,97 L-327,93 L-308,85 L-293,79 L-265,70 L-255,66 L-223,55 L-215,53 L-202,49 L-194,47 L-183,43 L-173,41 L-169,39 L-155,36 L-146,33 L-140,31 L-130,29 L-117,25 L-100,21 L-91,19 L-85,17 L-58,12 L-46,9 L-27,5 L-15,3 Z " fill="#000000" transform="translate(1070,110)"/>
<path d="M0,0 L2,0 L2,43 L-15,51 L-31,59 L-44,65 L-58,73 L-73,81 L-86,89 L-101,99 L-106,102 L-115,109 L-125,116 L-130,119 L-141,129 L-153,137 L-159,142 L-162,147 L-171,152 L-185,166 L-193,173 L-206,186 L-213,194 L-224,206 L-231,215 L-239,227 L-248,237 L-255,245 L-262,251 L-269,259 L-279,268 L-283,273 L-289,274 L-293,270 L-292,265 L-287,255 L-285,247 L-278,230 L-275,223 L-265,204 L-262,199 L-253,183 L-246,172 L-239,165 L-227,148 L-221,143 L-217,137 L-206,126 L-199,118 L-191,110 L-183,103 L-170,93 L-163,86 L-151,78 L-137,68 L-122,58 L-99,46 L-85,38 L-70,30 L-43,18 L-16,6 L-5,2 Z " fill="#000000" transform="translate(1069,177)"/>
<path d="M0,0 L2,0 L2,47 L-12,55 L-33,68 L-50,79 L-66,91 L-77,99 L-90,110 L-96,114 L-108,125 L-114,129 L-121,137 L-134,149 L-142,156 L-154,167 L-163,175 L-168,180 L-173,181 L-176,178 L-174,171 L-170,161 L-163,148 L-156,137 L-150,130 L-146,124 L-135,110 L-127,100 L-116,88 L-110,83 L-104,75 L-95,65 L-84,58 L-73,50 L-60,39 L-52,33 L-38,24 L-29,18 L-20,11 L-10,6 Z " fill="#000000" transform="translate(1069,250)"/>
<path d="M0,0 L1,0 L1,38 L-9,42 L-23,49 L-41,57 L-49,61 L-58,66 L-61,68 L-68,67 L-69,62 L-56,50 L-50,42 L-42,32 L-33,25 L-22,15 L-11,7 L-3,1 Z " fill="#000000" transform="translate(1070,335)"/>
<path d="M0,0 L5,2 L9,7 L15,12 L22,20 L33,31 L37,37 L45,46 L53,56 L58,61 L64,68 L70,77 L74,82 L81,92 L88,102 L97,116 L106,133 L115,146 L125,166 L132,180 L140,196 L149,213 L154,227 L162,242 L167,255 L171,270 L176,280 L181,289 L185,301 L190,318 L194,330 L197,342 L205,371 L207,376 L207,380 L172,380 L164,367 L162,363 L160,355 L154,346 L150,338 L144,320 L139,307 L134,299 L129,291 L123,276 L112,258 L106,249 L98,233 L91,223 L85,216 L80,208 L74,197 L69,190 L64,181 L57,169 L48,156 L41,146 L31,130 L26,122 L20,114 L15,109 L8,100 L2,88 L0,87 Z M176,298 L176,300 L178,300 L178,298 Z " fill="#000000" transform="translate(0,712)"/>
<path d="M0,0 L1,0 L1,97 L-3,106 L-14,124 L-21,136 L-33,158 L-40,172 L-43,179 L-51,195 L-63,224 L-73,251 L-80,274 L-86,288 L-90,305 L-95,322 L-97,329 L-164,329 L-164,322 L-156,309 L-149,298 L-144,281 L-140,268 L-136,255 L-128,232 L-123,219 L-116,200 L-109,184 L-105,174 L-98,158 L-89,139 L-79,121 L-72,107 L-64,94 L-56,79 L-49,69 L-41,56 L-32,43 L-24,32 L-16,21 L-7,9 Z " fill="#000000" transform="translate(1070,763)"/>
<path d="M0,0 L3,1 L9,10 L15,21 L25,35 L34,48 L41,59 L49,74 L56,85 L62,95 L69,108 L76,119 L84,132 L92,149 L101,164 L111,182 L120,201 L122,206 L122,215 L69,215 L64,202 L57,193 L49,175 L39,156 L33,143 L30,136 L24,126 L18,118 L11,107 L5,99 L0,95 Z " fill="#000000" transform="translate(0,877)"/>
<path d="M0,0 L1,0 L1,127 L-1,127 L-1,133 L1,134 L1,167 L-64,167 L-62,154 L-56,134 L-50,115 L-47,108 L-41,90 L-34,74 L-30,63 L-23,47 L-18,37 L-14,27 L-6,12 L-1,1 Z " fill="#000000" transform="translate(1070,925)"/>
<path d="M0,0 L5,5 L10,11 L19,26 L28,42 L28,46 L0,46 Z " fill="#000000" transform="translate(0,1046)"/>
</svg>
