<?xml version="1.0" encoding="UTF-8"?>
<!-- Generator: visioncortex VTracer 0.6.12 -->
<svg version="1.1" xmlns="http://www.w3.org/2000/svg" width="1122" height="1128">
<path d="M0,0 L888,0 L890,1 L953,2 L1086,3 L1112,4 L1112,751 L1111,760 L1110,813 L1109,908 L1107,1010 L1106,1095 L1105,1128 L253,1128 L245,1127 L235,1127 L226,1128 L225,1127 L189,1126 L145,1126 L93,1125 L62,1125 L18,1124 L-7,1123 L-10,1122 L-10,411 L-9,410 L-9,395 L-8,372 L-8,341 L-7,284 L-7,267 L-6,245 L-5,200 L-2,67 L-1,13 Z M551,66 L551,69 L554,69 L554,66 Z M554,102 L545,104 L535,108 L521,118 L512,126 L503,139 L494,152 L485,171 L478,194 L475,210 L473,224 L472,250 L473,273 L477,295 L482,320 L487,338 L493,359 L498,376 L501,385 L510,417 L517,439 L521,454 L530,486 L534,495 L538,499 L557,499 L569,500 L572,497 L585,457 L592,438 L598,419 L602,408 L604,400 L616,365 L620,355 L623,343 L629,327 L635,305 L640,280 L642,265 L644,244 L644,232 L643,223 L641,198 L636,179 L629,159 L623,148 L617,137 L606,124 L598,116 L585,108 L576,104 L567,102 Z M279,214 L259,217 L241,227 L233,234 L224,248 L219,263 L218,270 L218,289 L220,303 L224,320 L231,339 L242,360 L254,376 L260,384 L272,397 L276,402 L284,408 L289,413 L298,420 L308,427 L318,434 L328,440 L343,449 L366,462 L375,467 L393,477 L409,485 L421,492 L435,499 L446,505 L468,517 L483,525 L492,529 L497,528 L512,513 L518,508 L519,503 L516,493 L508,476 L504,470 L499,458 L489,439 L486,432 L482,424 L474,408 L471,403 L467,393 L459,377 L451,361 L441,342 L428,319 L421,307 L416,299 L415,292 L407,288 L397,275 L395,275 L393,271 L384,261 L372,250 L362,243 L352,236 L325,223 L305,217 L297,215 Z M829,222 L815,224 L804,226 L795,229 L776,237 L760,245 L744,255 L735,263 L727,270 L719,277 L710,288 L699,300 L692,310 L682,325 L669,348 L656,371 L648,387 L639,403 L631,420 L622,436 L614,451 L608,462 L596,485 L588,502 L588,508 L594,515 L601,521 L608,529 L609,530 L615,530 L631,522 L647,514 L664,506 L676,499 L699,488 L715,480 L731,472 L762,456 L781,446 L798,436 L808,429 L817,422 L825,416 L835,408 L843,400 L848,395 L859,384 L869,370 L878,356 L886,340 L891,326 L896,309 L898,295 L898,281 L896,268 L892,256 L886,245 L880,238 L876,235 L874,235 L873,232 L859,225 L846,222 Z M211,471 L196,473 L189,475 L177,477 L157,484 L142,492 L133,496 L122,506 L114,512 L104,527 L98,541 L96,550 L96,566 L99,577 L107,593 L116,603 L121,608 L130,615 L139,621 L148,627 L162,633 L181,639 L192,642 L208,645 L239,646 L258,645 L283,641 L303,637 L329,630 L344,625 L357,621 L385,613 L400,608 L424,601 L439,596 L457,591 L461,589 L471,587 L484,582 L488,577 L488,545 L483,540 L451,529 L421,519 L410,515 L398,512 L379,505 L370,502 L359,498 L338,492 L325,487 L314,484 L293,478 L277,475 L274,474 L258,472 L250,471 Z M848,480 L829,483 L813,486 L799,490 L785,493 L756,502 L734,509 L721,513 L697,521 L676,527 L659,533 L651,535 L632,541 L620,546 L617,550 L616,580 L620,585 L632,590 L653,597 L666,601 L699,612 L709,615 L718,618 L727,621 L751,629 L770,635 L791,642 L815,648 L824,650 L836,652 L838,653 L867,655 L897,654 L923,650 L933,646 L946,642 L966,632 L977,625 L990,614 L997,606 L1002,597 L1007,587 L1009,578 L1009,556 L1003,540 L997,530 L988,520 L978,512 L964,503 L949,495 L931,488 L912,483 L895,480 Z M488,595 L472,603 L445,617 L435,622 L419,630 L399,641 L377,651 L366,657 L352,664 L337,673 L316,685 L306,692 L296,698 L285,706 L273,715 L269,719 L264,724 L256,732 L251,737 L241,748 L230,764 L224,774 L213,800 L209,814 L206,835 L206,851 L209,864 L217,880 L226,890 L238,898 L252,903 L258,904 L283,904 L295,902 L313,897 L324,892 L340,884 L354,876 L367,866 L375,859 L385,850 L385,848 L388,847 L397,836 L407,824 L416,811 L422,802 L428,791 L438,773 L447,757 L455,742 L463,726 L468,717 L474,705 L484,686 L498,659 L508,640 L514,628 L515,619 L510,611 L500,601 L495,596 L494,595 Z M608,599 L603,602 L598,608 L598,610 L594,612 L586,620 L586,629 L593,645 L606,672 L616,691 L623,705 L631,721 L637,733 L640,740 L651,762 L659,778 L671,801 L683,821 L693,835 L702,847 L709,854 L712,858 L714,858 L716,862 L726,871 L737,880 L752,890 L768,898 L786,906 L794,909 L810,912 L838,912 L848,909 L857,905 L866,899 L876,888 L882,877 L886,865 L888,853 L887,830 L885,818 L882,809 L880,801 L872,783 L862,764 L854,753 L849,747 L843,739 L835,732 L831,727 L823,720 L812,711 L801,702 L790,695 L778,688 L763,679 L755,675 L735,664 L729,661 L717,654 L703,647 L680,634 L653,620 L640,612 L626,605 L614,599 Z M539,627 L533,631 L527,646 L525,654 L519,671 L512,691 L507,708 L501,726 L497,737 L493,751 L483,780 L476,802 L471,815 L465,841 L462,858 L461,868 L461,908 L464,929 L470,953 L479,973 L489,991 L495,999 L500,1004 L511,1014 L525,1022 L539,1025 L554,1024 L565,1021 L573,1017 L586,1007 L593,999 L602,987 L609,976 L619,955 L626,932 L629,918 L631,904 L632,898 L632,864 L628,833 L623,808 L618,791 L611,765 L608,755 L594,712 L586,684 L580,665 L573,642 L571,633 L567,629 L565,628 Z " fill="#000000" transform="translate(10,0)"/>
<path d="M0,0 L2,1 L1,4 L-1,4 Z " fill="#000000" transform="translate(208,495)"/>
</svg>
