<?xml version="1.0" encoding="UTF-8"?>
<!-- Generator: visioncortex VTracer 0.6.12 -->
<svg version="1.1" xmlns="http://www.w3.org/2000/svg" width="549" height="399">
<path d="M0,0 L7,1 L6,5 L4,5 L4,7 L13,10 L18,11 L19,7 L23,8 L26,12 L24,15 L29,17 L39,24 L47,31 L50,32 L52,28 L55,29 L54,33 L52,33 L52,37 L58,37 L62,41 L64,44 L63,52 L69,57 L73,66 L74,67 L75,81 L74,104 L71,110 L73,120 L73,132 L71,141 L68,144 L68,150 L65,163 L62,166 L60,166 L59,175 L57,177 L55,187 L51,196 L46,212 L43,218 L40,225 L37,229 L35,242 L30,249 L30,265 L33,266 L40,260 L47,252 L56,242 L62,234 L69,228 L80,214 L86,207 L91,202 L103,189 L105,189 L107,185 L116,174 L126,163 L134,153 L142,146 L148,139 L158,131 L167,126 L175,122 L184,121 L194,121 L206,123 L212,128 L219,136 L226,146 L227,148 L227,164 L224,176 L221,182 L220,189 L216,196 L213,206 L206,216 L199,227 L192,233 L187,237 L180,246 L175,251 L168,258 L161,261 L157,266 L152,269 L150,269 L148,273 L141,279 L132,282 L127,287 L117,291 L109,299 L98,303 L84,311 L82,313 L72,315 L63,319 L58,322 L51,322 L48,327 L46,328 L32,329 L23,330 L-7,330 L-13,331 L-18,330 L-26,330 L-32,331 L-47,331 L-53,329 L-63,327 L-66,321 L-78,316 L-89,310 L-99,308 L-108,303 L-117,300 L-124,296 L-132,293 L-139,286 L-144,281 L-158,271 L-164,268 L-173,261 L-178,257 L-187,252 L-194,246 L-205,239 L-210,230 L-219,227 L-224,222 L-236,206 L-247,190 L-251,179 L-252,167 L-253,162 L-252,155 L-248,150 L-246,139 L-239,131 L-228,120 L-215,120 L-198,124 L-188,131 L-182,136 L-176,136 L-176,141 L-167,149 L-161,154 L-152,165 L-145,172 L-139,177 L-130,188 L-122,195 L-117,197 L-114,204 L-109,208 L-102,217 L-98,222 L-90,229 L-81,239 L-77,244 L-71,249 L-64,257 L-54,267 L-45,274 L-40,274 L-38,272 L-38,261 L-47,237 L-53,221 L-59,205 L-64,195 L-70,184 L-73,171 L-77,163 L-82,147 L-84,134 L-86,126 L-88,113 L-88,100 L-87,79 L-85,65 L-79,50 L-74,41 L-65,30 L-57,22 L-49,16 L-38,10 L-31,7 L0,6 L-1,1 Z " fill="#000000" transform="translate(289,35)"/>
<path d="M0,0 L2,2 L-1,2 Z " fill="#000000" transform="translate(334,57)"/>
<path d="M0,0 L4,0 L4,5 L0,4 Z " fill="#000000" transform="translate(506,162)"/>
</svg>
