<?xml version="1.0" encoding="UTF-8"?>
<!-- Generator: visioncortex VTracer 0.6.12 -->
<svg version="1.1" xmlns="http://www.w3.org/2000/svg" width="771" height="780">
<path d="M0,0 L7,0 L15,3 L23,9 L35,25 L41,25 L49,20 L64,17 L68,15 L77,16 L88,22 L93,32 L98,44 L107,64 L110,66 L119,65 L122,64 L133,64 L142,70 L149,80 L154,93 L157,95 L168,94 L177,92 L181,89 L182,59 L187,42 L193,30 L201,23 L215,17 L225,16 L234,20 L237,22 L243,22 L254,16 L273,12 L286,12 L302,20 L310,19 L316,17 L329,15 L340,15 L349,18 L356,25 L360,31 L363,33 L388,33 L397,38 L402,46 L410,46 L416,45 L438,45 L455,38 L477,38 L490,40 L507,44 L511,48 L515,66 L527,69 L538,71 L544,75 L546,82 L545,91 L541,108 L542,113 L551,117 L563,123 L565,126 L566,137 L561,158 L557,169 L558,174 L570,181 L575,187 L576,190 L576,201 L573,212 L568,224 L561,236 L556,240 L548,246 L541,252 L536,253 L532,251 L531,247 L536,234 L540,229 L545,218 L547,209 L547,198 L544,190 L542,186 L538,184 L534,179 L535,174 L540,167 L544,152 L544,138 L540,130 L536,127 L531,125 L528,122 L528,108 L527,93 L524,86 L520,84 L512,84 L505,85 L501,83 L497,76 L495,62 L493,58 L487,55 L479,56 L475,58 L468,58 L464,55 L458,54 L446,56 L441,59 L433,66 L426,65 L423,62 L420,61 L406,61 L398,66 L393,71 L387,71 L385,68 L384,56 L381,50 L379,48 L365,48 L355,52 L353,54 L346,53 L340,40 L340,38 L336,36 L330,33 L322,33 L313,37 L302,45 L296,46 L288,39 L283,33 L273,29 L266,29 L255,32 L247,36 L241,39 L234,47 L230,48 L226,44 L223,39 L213,34 L207,34 L204,36 L203,45 L199,58 L199,73 L200,85 L205,94 L204,100 L203,106 L207,116 L211,119 L217,119 L229,112 L238,109 L243,108 L270,108 L280,111 L290,118 L300,126 L308,127 L323,120 L327,119 L344,119 L364,120 L378,127 L395,139 L402,146 L406,155 L408,162 L416,165 L429,166 L442,171 L453,178 L462,185 L469,195 L471,202 L472,218 L477,223 L493,233 L502,243 L506,251 L508,257 L510,266 L523,268 L537,268 L540,270 L543,292 L543,310 L545,328 L544,355 L547,391 L548,407 L548,421 L546,443 L546,483 L547,494 L545,504 L543,543 L539,559 L536,580 L533,600 L530,617 L527,626 L523,642 L516,658 L512,667 L506,676 L501,681 L496,687 L494,687 L493,690 L491,690 L490,693 L476,702 L461,711 L445,719 L437,722 L423,725 L380,725 L370,724 L360,725 L335,724 L306,723 L259,723 L250,724 L246,723 L213,722 L161,721 L155,720 L130,720 L120,721 L108,721 L69,718 L43,715 L21,711 L9,708 L-8,701 L-18,697 L-37,689 L-37,687 L-41,685 L-52,677 L-59,671 L-59,669 L-61,669 L-71,656 L-78,645 L-83,636 L-92,619 L-98,597 L-100,591 L-103,567 L-106,519 L-107,512 L-107,495 L-105,488 L-103,464 L-106,442 L-107,419 L-106,411 L-106,394 L-104,373 L-103,359 L-104,352 L-105,329 L-105,312 L-102,304 L-100,266 L-99,257 L-105,246 L-114,231 L-121,221 L-127,207 L-130,199 L-134,185 L-138,178 L-138,172 L-136,167 L-136,159 L-135,156 L-133,139 L-127,127 L-120,119 L-109,113 L-104,109 L-91,102 L-88,97 L-88,77 L-84,61 L-77,50 L-68,43 L-61,35 L-54,34 L-44,36 L-38,35 L-36,31 L-32,26 L-28,19 L-20,9 L-16,6 L-2,1 Z M0,31 L-8,36 L-8,38 L-11,39 L-17,50 L-22,67 L-24,80 L-27,81 L-35,74 L-46,65 L-49,63 L-56,63 L-60,68 L-66,85 L-69,100 L-70,116 L-70,141 L-77,140 L-85,136 L-96,133 L-104,133 L-109,137 L-112,146 L-113,168 L-108,188 L-102,196 L-100,210 L-96,219 L-89,230 L-83,240 L-74,249 L-65,255 L-50,261 L-45,263 L-33,262 L-27,265 L-21,263 L-19,260 L-18,248 L-18,225 L-20,208 L-20,198 L-17,193 L-14,191 L41,191 L58,192 L68,193 L84,193 L106,192 L109,196 L109,210 L111,221 L112,251 L114,263 L117,266 L121,267 L236,267 L241,264 L243,257 L243,249 L239,240 L235,238 L227,236 L218,230 L214,219 L213,209 L211,195 L206,187 L201,183 L196,177 L187,174 L182,173 L183,164 L185,156 L185,141 L182,126 L178,120 L174,118 L157,119 L147,122 L138,122 L137,113 L134,107 L131,90 L127,87 L118,87 L102,95 L94,104 L90,104 L87,96 L85,79 L74,54 L68,47 L63,45 L55,46 L46,53 L37,63 L32,62 L27,52 L20,45 L15,39 L7,33 L3,31 Z M242,124 L233,126 L222,132 L215,141 L212,145 L212,159 L216,164 L232,167 L249,163 L256,161 L265,161 L281,165 L292,171 L296,170 L297,165 L294,158 L285,145 L269,130 L264,126 L256,124 Z M331,136 L321,139 L317,143 L318,152 L322,168 L325,180 L327,182 L337,182 L349,178 L357,178 L361,179 L369,179 L377,175 L383,170 L382,160 L376,153 L363,144 L355,140 L340,136 Z M250,182 L240,185 L238,187 L237,194 L237,210 L241,214 L248,216 L259,226 L261,227 L270,227 L287,220 L289,218 L289,209 L285,201 L273,188 L262,182 Z M404,184 L394,187 L390,192 L391,199 L396,213 L398,222 L400,224 L419,223 L435,218 L445,216 L448,213 L446,197 L439,193 L427,188 L420,186 L417,184 Z M340,196 L333,199 L325,205 L323,208 L324,213 L339,219 L353,226 L361,232 L370,240 L375,245 L380,244 L381,240 L377,221 L370,207 L359,199 L349,196 Z M7,208 L1,211 L-3,216 L-3,224 L-1,230 L-1,254 L1,263 L5,266 L37,267 L78,267 L87,264 L89,261 L89,241 L87,228 L82,215 L77,212 L63,211 L25,211 Z M306,235 L290,237 L278,241 L272,245 L270,248 L271,258 L273,265 L276,267 L282,268 L348,268 L355,266 L354,259 L348,251 L339,243 L330,238 L316,235 Z M431,238 L419,242 L414,246 L409,255 L409,264 L414,268 L473,268 L478,266 L479,261 L473,252 L464,245 L451,239 L445,238 Z M-2,290 L-71,291 L-76,294 L-78,300 L-78,320 L-79,323 L-78,345 L-76,350 L-73,352 L-48,354 L-34,354 L-11,353 L112,353 L117,354 L492,354 L512,353 L516,350 L518,344 L519,327 L519,306 L517,296 L514,293 L487,292 L392,292 L353,291 L310,291 L283,290 L260,291 L258,292 L250,292 L247,291 L227,290 Z M-71,374 L-76,378 L-77,397 L-78,401 L-78,422 L-79,442 L-77,451 L-74,454 L-60,456 L-33,456 L-26,453 L-26,446 L-27,443 L-27,428 L-23,417 L-23,410 L-24,404 L-24,382 L-28,377 L-33,375 L-47,374 Z M16,374 L4,375 L-2,378 L-3,380 L-4,389 L-4,404 L-3,406 L-3,414 L-4,424 L-3,438 L0,448 L6,450 L11,451 L31,452 L43,456 L61,456 L65,453 L65,438 L66,412 L66,387 L65,378 L60,374 Z M101,374 L86,375 L84,378 L84,400 L83,408 L83,448 L86,454 L89,456 L107,457 L160,457 L165,455 L167,452 L169,424 L170,392 L169,380 L167,376 L161,374 Z M198,374 L191,376 L188,380 L188,426 L189,436 L188,445 L191,454 L196,456 L210,457 L252,457 L274,456 L279,453 L281,446 L281,422 L279,381 L276,376 L265,374 Z M302,375 L298,378 L299,408 L301,432 L301,451 L306,456 L310,457 L364,456 L369,453 L371,451 L372,410 L371,387 L369,377 L365,375 Z M400,376 L395,379 L394,381 L394,392 L396,410 L396,429 L397,450 L401,455 L404,456 L442,456 L448,453 L451,447 L453,433 L453,416 L452,409 L452,380 L449,377 L444,376 Z M480,377 L476,379 L475,381 L475,392 L476,398 L477,429 L479,451 L484,455 L487,456 L512,456 L518,453 L520,449 L519,421 L518,386 L516,380 L514,377 Z M-20,472 L-34,474 L-65,474 L-72,476 L-75,480 L-75,498 L-76,503 L-72,510 L-68,512 L-54,512 L-12,513 L-5,513 L-1,514 L8,514 L12,513 L34,513 L50,514 L74,514 L77,512 L84,513 L86,514 L112,514 L149,515 L155,516 L172,516 L175,515 L245,515 L259,514 L279,516 L282,517 L290,517 L301,513 L315,503 L320,498 L322,493 L322,487 L317,482 L309,476 L305,474 L291,474 L287,475 L264,474 L254,475 L237,473 L202,473 L181,472 L171,474 L148,473 L111,474 L44,474 L29,475 L17,475 L13,474 L-4,473 L-11,472 Z M371,474 L357,475 L354,478 L356,483 L361,491 L361,500 L343,507 L341,511 L344,514 L363,516 L369,515 L398,515 L407,516 L436,516 L449,518 L477,518 L487,517 L512,516 L517,511 L519,497 L519,478 L516,476 L509,475 L483,474 L464,474 L452,475 L439,474 Z M-68,531 L-73,534 L-74,536 L-74,553 L-71,582 L-69,595 L-61,621 L-56,630 L-52,640 L-45,650 L-38,658 L-27,667 L-14,677 L-2,682 L5,681 L7,679 L7,672 L-1,655 L-4,641 L-10,623 L-15,599 L-18,561 L-22,535 L-25,532 L-29,531 Z M11,531 L6,533 L4,535 L5,567 L6,590 L11,612 L15,619 L16,631 L21,644 L25,652 L28,661 L34,671 L41,680 L46,685 L51,689 L65,695 L73,697 L95,697 L100,694 L98,689 L95,684 L91,679 L84,666 L79,649 L74,623 L71,594 L69,565 L68,539 L65,533 L62,532 L45,531 L35,532 L20,532 Z M94,532 L90,536 L89,548 L90,578 L91,584 L92,600 L99,647 L104,662 L112,673 L116,679 L130,687 L137,693 L153,698 L175,698 L180,695 L177,686 L173,673 L170,653 L169,640 L168,637 L167,607 L167,589 L168,550 L167,538 L164,533 L161,532 Z M204,531 L193,534 L190,545 L190,631 L192,642 L193,662 L196,675 L201,686 L205,696 L209,698 L254,698 L261,694 L266,688 L271,671 L275,650 L276,633 L277,629 L278,610 L280,605 L282,541 L279,534 L277,533 L268,532 L241,532 Z M311,533 L306,535 L304,538 L302,548 L301,562 L301,580 L300,593 L298,620 L296,636 L293,653 L291,667 L286,678 L286,685 L284,689 L284,696 L286,699 L289,700 L318,700 L324,697 L332,692 L338,689 L346,680 L356,662 L359,653 L362,633 L365,622 L369,574 L370,566 L370,536 L366,533 Z M407,533 L397,534 L394,538 L393,577 L392,585 L391,606 L389,611 L387,626 L382,647 L379,653 L377,662 L369,678 L362,689 L359,691 L359,696 L362,699 L365,700 L392,699 L402,694 L416,682 L430,669 L437,658 L441,645 L444,627 L447,604 L449,586 L451,560 L451,539 L447,534 L426,533 Z M482,534 L476,538 L475,540 L474,553 L473,557 L472,582 L469,597 L467,610 L465,630 L462,650 L457,662 L451,672 L447,678 L440,686 L434,694 L434,696 L441,695 L452,690 L461,686 L469,679 L478,670 L488,657 L493,649 L499,636 L501,628 L503,616 L509,600 L512,582 L515,561 L517,540 L514,535 L511,534 Z " fill="#000000" transform="translate(168,29)"/>
<path d="M0,0 L7,1 L13,5 L14,7 L14,13 L11,15 L0,15 L-10,12 L-14,9 L-13,4 Z " fill="#000000" transform="translate(261,513)"/>
<path d="M0,0 L6,0 L15,7 L18,11 L17,17 L15,19 L4,19 L-7,17 L-13,14 L-16,11 L-15,7 L-10,3 Z " fill="#000000" transform="translate(423,514)"/>
<path d="M0,0 L10,0 L17,3 L18,9 L15,12 L12,13 L3,13 L-7,8 L-8,5 L-5,2 Z " fill="#000000" transform="translate(333,515)"/>
</svg>
