<?xml version="1.0" encoding="UTF-8"?>
<!-- Generator: visioncortex VTracer 0.6.12 -->
<svg version="1.1" xmlns="http://www.w3.org/2000/svg" width="1197" height="1200">
<path d="M0,0 L211,0 L356,1 L508,1 L874,2 L1119,2 L1123,5 L1124,25 L1124,175 L1125,283 L1125,391 L1126,679 L1126,1126 L1123,1129 L952,1130 L921,1130 L828,1129 L554,1129 L549,1130 L545,1129 L416,1129 L332,1128 L297,1128 L234,1127 L179,1127 L129,1126 L38,1125 L1,1124 L-3,1120 L-4,395 L-4,15 L-3,2 Z M423,99 L410,101 L399,105 L390,110 L379,121 L374,130 L369,144 L368,158 L372,175 L378,186 L387,196 L397,203 L402,206 L412,209 L431,209 L444,206 L456,199 L462,194 L468,187 L474,174 L477,157 L476,142 L473,132 L467,121 L458,111 L442,102 L430,99 Z M517,119 L506,121 L496,127 L488,135 L484,144 L483,149 L483,164 L487,175 L495,184 L505,190 L515,192 L527,191 L537,187 L545,181 L550,175 L554,166 L555,161 L555,150 L552,139 L545,130 L538,124 L532,121 L524,119 Z M579,161 L569,165 L564,169 L560,173 L555,181 L553,190 L554,201 L556,207 L561,215 L568,221 L575,225 L579,226 L592,226 L601,223 L611,215 L618,203 L618,185 L612,173 L602,164 L594,161 Z M640,206 L630,208 L620,214 L612,224 L609,231 L609,245 L613,255 L621,264 L627,268 L635,270 L647,270 L659,265 L666,259 L671,249 L672,246 L672,231 L668,222 L665,217 L657,211 L648,207 Z M446,241 L434,243 L418,251 L410,257 L399,272 L393,286 L390,302 L390,324 L394,338 L399,350 L406,362 L413,372 L423,385 L430,393 L452,415 L466,426 L472,433 L486,444 L502,457 L509,463 L517,470 L522,475 L530,483 L538,494 L547,509 L552,520 L558,536 L563,553 L566,568 L569,594 L569,632 L568,652 L563,689 L561,700 L559,716 L556,734 L548,774 L543,792 L530,832 L521,853 L514,869 L506,890 L502,901 L499,913 L497,922 L496,933 L496,957 L500,973 L508,989 L515,999 L519,1004 L527,1011 L537,1019 L552,1026 L566,1030 L573,1031 L598,1031 L614,1026 L628,1020 L642,1010 L648,1005 L656,995 L666,979 L671,963 L674,953 L676,932 L676,916 L675,895 L673,873 L672,846 L672,781 L674,726 L677,693 L680,656 L685,613 L691,574 L694,558 L699,531 L702,512 L708,481 L712,452 L713,440 L713,424 L710,399 L705,378 L694,353 L687,339 L679,328 L674,321 L666,314 L652,301 L632,289 L617,281 L596,272 L582,267 L562,260 L548,256 L544,254 L531,252 L505,245 L488,242 L472,241 Z M691,255 L679,258 L671,264 L664,274 L662,284 L663,295 L667,304 L671,309 L678,314 L686,317 L697,317 L711,310 L717,303 L721,295 L722,292 L722,278 L718,269 L711,261 L707,258 L697,255 Z " fill="#000000" transform="translate(39,37)"/>
</svg>
