<?xml version="1.0" encoding="UTF-8"?>
<!-- Generator: visioncortex VTracer 0.6.12 -->
<svg version="1.1" xmlns="http://www.w3.org/2000/svg" width="1164" height="1230">
<path d="M0,0 L51,0 L51,10 L39,11 L23,11 L15,12 L-13,12 L-36,13 L-73,13 L-110,14 L-147,14 L-197,15 L-251,16 L-296,16 L-308,17 L-332,17 L-372,18 L-410,18 L-432,19 L-455,19 L-486,20 L-514,20 L-532,21 L-575,21 L-603,22 L-691,23 L-701,24 L-730,24 L-762,25 L-861,26 L-898,27 L-920,27 L-953,28 L-984,28 L-1000,29 L-1037,29 L-1040,31 L-1041,83 L-1040,131 L-1040,162 L-1039,221 L-1039,239 L-1038,268 L-1037,349 L-1036,383 L-1035,401 L-1035,423 L-1033,506 L-1032,544 L-1031,586 L-1031,604 L-1030,626 L-1030,646 L-1029,676 L-1028,732 L-1027,765 L-1027,808 L-1026,812 L-1025,879 L-1023,949 L-1022,1017 L-1021,1042 L-1021,1070 L-1020,1090 L-1020,1118 L-1019,1147 L-1016,1150 L-1013,1151 L-979,1152 L-920,1150 L-900,1150 L-835,1149 L-796,1149 L-771,1148 L-754,1148 L-735,1147 L-710,1147 L-615,1146 L-596,1145 L-574,1145 L-525,1144 L-494,1144 L-460,1143 L-442,1142 L-425,1142 L-402,1141 L-324,1141 L-321,1144 L-319,1144 L-315,1140 L-298,1140 L-233,1138 L-184,1138 L-126,1137 L-115,1136 L-67,1136 L-60,1135 L-8,1135 L30,1134 L51,1135 L51,1147 L13,1148 L-47,1148 L-141,1150 L-218,1151 L-268,1151 L-282,1152 L-313,1152 L-316,1150 L-321,1151 L-324,1153 L-385,1153 L-393,1154 L-426,1154 L-472,1155 L-502,1155 L-513,1156 L-582,1157 L-629,1158 L-681,1158 L-728,1159 L-777,1159 L-801,1160 L-809,1159 L-837,1160 L-892,1160 L-897,1161 L-944,1162 L-1001,1162 L-1026,1163 L-1030,1159 L-1030,1122 L-1031,1097 L-1033,1041 L-1033,1013 L-1034,961 L-1035,924 L-1034,906 L-1035,900 L-1036,847 L-1037,830 L-1037,802 L-1038,779 L-1039,714 L-1040,699 L-1040,656 L-1043,523 L-1046,388 L-1047,363 L-1047,343 L-1049,229 L-1049,183 L-1050,162 L-1050,127 L-1051,96 L-1051,25 L-1049,19 L-1047,17 L-1040,18 L-953,18 L-936,16 L-888,16 L-819,15 L-778,14 L-663,12 L-622,11 L-564,10 L-529,9 L-482,9 L-467,8 L-458,9 L-454,8 L-436,8 L-387,7 L-295,6 L-265,6 L-244,4 L-174,4 L-130,3 L-59,2 L-50,1 L-31,1 Z " fill="#000000" transform="translate(1113,35)"/>
<path d="M0,0 L12,0 L23,3 L34,7 L46,16 L54,26 L61,37 L67,51 L71,67 L76,88 L78,105 L77,115 L75,127 L70,135 L61,143 L57,147 L51,150 L50,154 L51,155 L58,155 L69,150 L94,148 L120,147 L123,146 L166,144 L173,143 L190,142 L213,140 L222,136 L231,132 L237,130 L269,117 L282,112 L324,93 L344,87 L356,86 L376,87 L392,89 L402,89 L415,92 L417,94 L416,99 L415,101 L413,101 L411,105 L403,111 L393,118 L378,122 L369,126 L356,130 L347,136 L330,148 L318,155 L309,162 L297,168 L286,176 L274,182 L261,190 L242,200 L223,205 L190,213 L179,215 L164,218 L153,222 L143,223 L131,227 L125,229 L125,237 L133,251 L136,258 L141,269 L150,290 L154,299 L159,312 L163,320 L168,333 L172,341 L177,355 L180,362 L185,372 L189,381 L194,391 L201,397 L219,404 L226,408 L247,418 L259,423 L273,430 L284,437 L298,444 L312,452 L329,463 L341,470 L346,473 L354,480 L360,484 L371,492 L371,494 L376,496 L381,500 L389,507 L394,511 L398,516 L406,523 L413,531 L424,542 L428,548 L430,555 L430,564 L427,583 L426,587 L426,599 L424,603 L420,602 L413,592 L406,582 L402,577 L395,566 L388,556 L375,539 L364,526 L348,517 L331,508 L315,500 L302,496 L293,494 L289,494 L290,498 L308,508 L317,513 L336,523 L346,529 L354,534 L354,536 L358,538 L363,543 L373,557 L378,562 L386,572 L394,583 L398,591 L404,602 L409,608 L414,617 L421,626 L426,635 L430,640 L436,651 L445,664 L454,676 L463,688 L471,699 L482,714 L492,728 L499,736 L505,746 L506,772 L506,800 L505,819 L502,847 L497,852 L478,853 L469,854 L464,850 L461,840 L457,818 L455,800 L452,789 L446,775 L434,761 L425,750 L415,739 L406,728 L397,718 L390,709 L378,696 L370,687 L361,676 L354,669 L348,661 L340,652 L332,641 L327,635 L319,628 L312,622 L306,619 L293,617 L267,615 L250,613 L233,612 L221,610 L206,609 L186,606 L160,602 L144,598 L128,594 L114,589 L103,582 L95,577 L78,561 L70,551 L64,540 L56,528 L48,517 L41,504 L36,495 L30,484 L18,461 L8,444 L1,433 L-3,425 L-15,407 L-25,392 L-30,383 L-36,374 L-38,367 L-32,352 L-28,344 L-27,340 L-26,327 L-30,328 L-38,344 L-44,355 L-52,369 L-60,385 L-68,401 L-76,418 L-81,431 L-85,440 L-88,449 L-95,467 L-96,470 L-96,489 L-94,518 L-91,530 L-88,545 L-84,569 L-79,602 L-77,608 L-75,618 L-69,644 L-65,660 L-65,672 L-66,673 L-72,673 L-93,663 L-109,651 L-117,644 L-121,639 L-128,623 L-134,607 L-139,593 L-145,571 L-152,548 L-157,529 L-161,513 L-165,489 L-167,461 L-166,446 L-162,425 L-157,404 L-148,365 L-143,345 L-138,333 L-135,323 L-131,315 L-126,299 L-123,292 L-120,283 L-116,271 L-111,259 L-108,252 L-105,243 L-95,224 L-89,215 L-82,207 L-74,200 L-64,192 L-48,184 L-39,178 L-36,176 L-35,171 L-39,155 L-51,133 L-58,114 L-63,101 L-68,85 L-70,65 L-67,47 L-61,35 L-51,21 L-37,12 L-30,9 L-15,3 Z " fill="#000000" transform="translate(347,192)"/>
<path d="M0,0 L8,0 L25,4 L42,12 L47,16 L56,22 L64,31 L73,46 L78,57 L82,75 L82,86 L80,101 L74,116 L65,130 L56,140 L48,147 L35,155 L25,160 L6,164 L-15,163 L-30,159 L-42,154 L-50,149 L-60,140 L-65,135 L-75,122 L-80,111 L-85,95 L-86,87 L-86,71 L-81,55 L-76,42 L-68,31 L-56,19 L-40,9 L-29,4 L-19,1 Z " fill="#000000" transform="translate(976,842)"/>
<path d="M0,0 L5,0 L17,14 L32,29 L41,40 L48,47 L54,55 L65,68 L70,74 L72,77 L75,87 L75,99 L73,124 L72,177 L71,203 L71,218 L74,227 L81,231 L99,238 L107,241 L118,246 L128,251 L133,257 L132,276 L129,279 L101,281 L68,281 L46,282 L5,283 L1,281 L0,279 L1,234 L2,208 L1,176 L-3,140 L-4,106 L-6,94 L-6,23 L-3,5 Z " fill="#000000" transform="translate(669,846)"/>
</svg>
