<?xml version="1.0" encoding="UTF-8"?>
<!-- Generator: visioncortex VTracer 0.6.12 -->
<svg version="1.1" xmlns="http://www.w3.org/2000/svg" width="603" height="660">
<path d="M0,0 L7,0 L12,3 L16,12 L18,25 L19,54 L19,60 L20,65 L19,69 L19,77 L20,83 L20,98 L21,116 L24,120 L31,120 L45,111 L56,103 L67,94 L78,86 L85,82 L95,82 L104,87 L117,95 L124,102 L129,108 L137,114 L144,120 L149,125 L154,130 L163,140 L172,150 L182,165 L195,187 L203,197 L213,213 L218,220 L223,230 L231,246 L238,261 L245,274 L248,281 L252,290 L260,309 L266,323 L270,339 L271,341 L271,349 L268,354 L263,355 L260,353 L251,350 L237,345 L229,342 L213,338 L204,337 L198,335 L189,334 L183,330 L174,318 L168,308 L161,297 L153,283 L145,271 L137,255 L128,240 L123,224 L118,215 L109,195 L99,165 L95,150 L90,133 L85,120 L81,116 L75,117 L64,123 L51,134 L43,141 L29,152 L23,160 L21,165 L20,274 L20,296 L16,302 L2,309 L-8,315 L-13,320 L-18,327 L-21,336 L-22,343 L-22,356 L-15,375 L-4,388 L4,392 L13,394 L15,395 L35,395 L47,392 L55,388 L58,387 L60,382 L65,374 L69,373 L72,378 L71,388 L60,403 L51,411 L46,414 L39,416 L26,418 L21,419 L8,419 L-5,417 L-18,410 L-25,407 L-34,398 L-44,384 L-49,372 L-51,362 L-51,339 L-46,321 L-39,310 L-31,300 L-24,293 L-19,288 L-15,279 L-13,271 L-14,219 L-15,205 L-18,195 L-23,193 L-34,200 L-39,205 L-46,209 L-50,214 L-66,224 L-71,228 L-77,232 L-87,241 L-99,250 L-109,256 L-113,261 L-122,267 L-133,276 L-146,286 L-156,294 L-159,297 L-162,301 L-164,310 L-163,321 L-160,341 L-155,360 L-149,377 L-145,383 L-139,398 L-135,405 L-126,422 L-122,429 L-113,441 L-106,455 L-100,463 L-94,471 L-78,488 L-68,498 L-64,502 L-51,511 L-39,519 L-30,525 L-24,525 L-5,518 L15,512 L30,505 L44,501 L54,496 L65,493 L80,488 L96,482 L106,479 L113,476 L129,470 L136,466 L162,458 L176,452 L196,446 L207,446 L218,448 L233,449 L247,453 L265,452 L270,448 L271,446 L271,440 L262,424 L255,417 L251,411 L244,404 L237,396 L229,386 L219,373 L216,369 L216,364 L222,363 L233,367 L243,370 L261,380 L272,387 L278,392 L288,400 L294,408 L295,411 L304,417 L313,428 L320,439 L326,454 L330,462 L341,490 L345,504 L349,528 L350,550 L346,568 L341,578 L334,587 L324,592 L312,592 L301,585 L296,579 L293,572 L290,558 L288,545 L288,521 L287,518 L286,499 L283,489 L277,482 L272,479 L253,475 L243,472 L234,471 L220,469 L201,469 L180,473 L167,477 L153,484 L145,487 L132,489 L122,494 L111,497 L100,501 L91,503 L85,506 L76,509 L51,518 L32,525 L13,532 L-3,538 L-17,542 L-20,544 L-25,545 L-41,545 L-50,542 L-57,536 L-64,533 L-74,526 L-85,516 L-90,510 L-98,503 L-107,493 L-117,482 L-124,471 L-132,458 L-139,449 L-144,439 L-148,433 L-150,426 L-156,415 L-160,406 L-162,399 L-166,389 L-169,382 L-171,374 L-176,351 L-178,347 L-180,331 L-182,320 L-183,307 L-181,295 L-177,287 L-167,277 L-152,266 L-141,256 L-128,246 L-116,235 L-107,229 L-98,222 L-87,213 L-76,206 L-66,197 L-58,192 L-56,192 L-54,188 L-40,179 L-31,172 L-26,170 L-24,166 L-21,165 L-18,156 L-15,140 L-16,137 L-16,14 L-12,4 L-2,1 Z " fill="#000000" transform="translate(220,35)"/>
<path d="M0,0 L14,3 L25,14 L28,20 L28,28 L25,38 L19,47 L9,52 L0,52 L-9,49 L-14,46 L-20,35 L-20,13 L-16,7 L-9,3 Z " fill="#000000" transform="translate(242,357)"/>
</svg>
