<?xml version="1.0" encoding="UTF-8"?>
<!-- Generator: visioncortex VTracer 0.6.12 -->
<svg version="1.1" xmlns="http://www.w3.org/2000/svg" width="867" height="1182">
<path d="M0,0 L28,1 L45,2 L126,4 L146,4 L155,5 L354,5 L373,6 L488,6 L504,5 L506,6 L525,6 L531,7 L644,7 L648,8 L763,8 L776,9 L779,14 L780,19 L781,36 L780,91 L779,125 L778,130 L778,150 L777,190 L777,249 L775,334 L775,364 L774,404 L773,426 L773,453 L772,569 L771,771 L771,811 L770,859 L770,929 L769,964 L769,1021 L770,1027 L770,1066 L771,1088 L771,1104 L769,1108 L764,1111 L751,1110 L722,1111 L685,1111 L676,1112 L669,1110 L664,1110 L659,1113 L641,1111 L555,1111 L536,1110 L519,1111 L469,1110 L428,1110 L426,1108 L420,1109 L419,1110 L158,1110 L155,1111 L118,1110 L99,1109 L53,1108 L36,1108 L29,1109 L-7,1109 L-12,1107 L-20,1108 L-22,1107 L-23,1085 L-23,1069 L-21,1036 L-20,1032 L-20,753 L-19,728 L-16,726 L-13,726 L-14,720 L-18,718 L-19,716 L-19,599 L-18,467 L-18,443 L-17,430 L-17,335 L-16,293 L-16,144 L-15,71 L-13,18 L-11,8 L-7,3 Z M133,298 L128,302 L126,305 L125,401 L125,420 L124,429 L124,448 L123,472 L123,691 L122,706 L122,807 L123,814 L128,818 L132,819 L156,819 L240,820 L253,820 L264,821 L295,821 L315,823 L319,822 L394,822 L430,823 L436,820 L441,821 L445,823 L465,823 L555,824 L598,825 L617,825 L624,822 L627,819 L629,804 L630,782 L630,737 L631,622 L631,538 L632,530 L631,461 L631,406 L632,360 L633,337 L633,314 L630,308 L628,306 L616,306 L615,309 L612,308 L609,303 L605,303 L602,309 L595,309 L589,306 L559,305 L549,304 L547,305 L532,305 L528,309 L527,311 L523,310 L520,305 L487,305 L475,306 L471,304 L449,304 L437,302 L433,303 L380,303 L309,301 L300,301 L290,302 L262,302 L259,301 L210,300 L153,299 L141,299 Z M633,618 L633,620 L637,619 Z M654,635 Z " fill="#000000" transform="translate(54,36)"/>
<path d="M0,0 L86,0 L93,6 L95,13 L95,21 L97,28 L110,35 L116,40 L117,43 L117,197 L118,227 L119,308 L123,312 L150,313 L173,312 L186,312 L191,316 L193,324 L192,337 L189,340 L185,341 L143,341 L104,340 L65,340 L59,339 L49,340 L-88,339 L-100,338 L-104,334 L-105,316 L-102,311 L-37,311 L-33,308 L-32,301 L-33,172 L-34,133 L-34,115 L-38,114 L-40,122 L-42,140 L-42,168 L-41,177 L-40,198 L-39,202 L-38,251 L-41,273 L-47,285 L-55,292 L-64,297 L-74,298 L-83,297 L-95,291 L-101,286 L-107,276 L-109,269 L-109,256 L-106,218 L-102,204 L-99,190 L-97,178 L-92,154 L-88,140 L-84,126 L-80,109 L-76,100 L-71,95 L-66,91 L-60,87 L-50,79 L-44,75 L-36,70 L-35,67 L-33,46 L-31,38 L-27,33 L-14,29 L-12,25 L-11,14 L-8,5 Z M20,48 L15,52 L14,56 L14,63 L17,69 L19,70 L67,70 L70,68 L72,61 L71,53 L65,48 Z M18,83 L16,85 L14,94 L14,114 L18,120 L56,121 L66,120 L70,117 L71,112 L71,89 L69,85 L65,83 Z M-60,124 L-70,130 L-74,138 L-82,171 L-89,206 L-95,253 L-95,272 L-90,281 L-79,287 L-70,287 L-60,281 L-56,275 L-53,262 L-53,199 L-55,184 L-57,149 L-56,124 Z " fill="#000000" transform="translate(410,417)"/>
</svg>
