<?xml version="1.0" encoding="UTF-8"?>
<!-- Generator: visioncortex VTracer 0.6.12 -->
<svg version="1.1" xmlns="http://www.w3.org/2000/svg" width="1134" height="1164">
<path d="M0,0 L47,0 L46,2 L26,3 L14,2 L11,6 L10,10 L9,58 L9,83 L8,118 L7,189 L6,285 L5,323 L6,339 L5,360 L3,591 L2,611 L0,613 Z " fill="#000000" transform="translate(0,0)"/>
<path d="M0,0 L989,0 L994,1 L1007,1 L1012,0 L1014,1 L1064,2 L1077,3 L1077,15 L1068,13 L1026,13 L955,12 L882,11 L853,12 L819,11 L744,11 L699,10 L649,10 L642,9 L630,10 L599,9 L554,9 L545,8 L513,9 L511,8 L431,8 L425,7 L400,7 L350,6 L287,6 L263,5 L202,5 L193,4 L55,4 L42,3 L22,3 L1,2 Z " fill="#000000" transform="translate(57,0)"/>
<path d="M0,0 L1,0 L1,5 L0,5 Z " fill="#000000" transform="translate(1133,119)"/>
<path d="M0,0 L36,1 L43,1 L54,0 L57,1 L86,2 L103,2 L126,3 L178,3 L236,4 L253,5 L267,4 L276,5 L329,5 L342,6 L407,6 L431,8 L446,12 L460,20 L467,24 L476,32 L486,45 L495,65 L496,70 L497,88 L500,119 L502,125 L508,128 L517,130 L536,138 L543,144 L551,150 L559,158 L568,174 L571,179 L576,197 L578,211 L578,265 L577,272 L577,354 L578,362 L576,367 L575,380 L577,389 L579,393 L576,405 L575,407 L574,425 L573,503 L572,546 L571,606 L571,664 L570,726 L569,742 L569,777 L568,792 L568,871 L567,885 L563,891 L561,892 L531,893 L459,893 L362,892 L302,892 L296,891 L284,891 L276,892 L253,891 L222,890 L200,890 L183,889 L174,887 L170,880 L170,870 L169,860 L169,654 L170,646 L170,497 L171,475 L171,439 L172,409 L172,356 L171,335 L167,330 L154,328 L135,329 L130,330 L129,334 L128,350 L126,416 L125,462 L125,523 L124,600 L124,656 L122,690 L121,700 L119,703 L115,721 L108,735 L101,750 L93,763 L81,777 L76,782 L69,788 L64,793 L57,799 L46,806 L29,815 L13,821 L2,823 L-2,825 L-16,827 L-43,828 L-63,825 L-76,822 L-93,816 L-105,809 L-118,801 L-130,794 L-135,789 L-150,775 L-159,763 L-169,749 L-179,730 L-188,703 L-191,687 L-192,675 L-192,655 L-190,641 L-187,622 L-184,606 L-181,594 L-177,578 L-174,568 L-172,557 L-168,544 L-162,518 L-156,497 L-153,486 L-151,475 L-147,463 L-145,452 L-139,428 L-132,406 L-129,392 L-123,373 L-121,362 L-115,342 L-108,318 L-105,307 L-101,290 L-96,273 L-90,252 L-86,234 L-84,230 L-82,222 L-78,212 L-74,196 L-72,192 L-70,182 L-66,169 L-62,156 L-56,136 L-51,121 L-46,103 L-42,91 L-40,82 L-36,72 L-34,63 L-27,37 L-24,30 L-22,22 L-16,8 L-11,2 L-9,1 Z M65,83 L48,87 L43,93 L39,107 L35,118 L29,139 L25,150 L21,167 L12,192 L8,207 L4,222 L1,232 L-2,241 L-4,250 L-8,262 L-10,269 L-13,281 L-17,295 L-24,321 L-31,344 L-35,357 L-37,365 L-42,385 L-44,390 L-46,399 L-50,416 L-53,425 L-57,445 L-63,463 L-67,476 L-69,488 L-77,517 L-79,525 L-86,547 L-92,572 L-96,587 L-100,605 L-104,619 L-109,641 L-111,654 L-112,667 L-110,682 L-108,687 L-106,695 L-97,712 L-89,720 L-82,728 L-72,735 L-54,743 L-44,744 L-24,744 L-12,741 L-2,738 L9,730 L18,722 L25,714 L30,707 L36,695 L40,679 L42,665 L43,643 L42,607 L42,568 L43,496 L43,432 L44,378 L45,356 L45,326 L46,295 L48,285 L52,280 L58,272 L65,266 L72,258 L80,251 L88,243 L88,241 L92,239 L114,217 L127,207 L131,205 L165,203 L170,204 L176,200 L181,187 L185,176 L195,158 L199,153 L207,146 L216,139 L226,133 L242,126 L251,124 L256,120 L257,116 L257,104 L255,92 L251,88 L225,87 L141,86 L122,85 L100,85 Z M301,208 L288,209 L279,209 L272,212 L269,221 L268,247 L267,329 L268,337 L272,342 L278,344 L289,345 L320,345 L398,346 L472,346 L476,342 L480,323 L480,305 L482,293 L482,227 L481,218 L479,214 L474,211 L470,210 L422,210 L362,209 L341,209 L319,208 L309,209 Z M456,549 L454,551 L454,556 L457,556 L460,552 L459,549 Z M472,550 L472,552 L474,552 L474,550 Z M474,552 L474,557 L477,559 L478,554 Z " fill="#000000" transform="translate(335,171)"/>
<path d="M0,0 L2,1 Z " fill="#000000" transform="translate(178,538)"/>
<path d="M0,0 L2,1 L1,6 L0,6 Z " fill="#000000" transform="translate(0,633)"/>
<path d="M0,0 L4,1 L3,4 L0,3 Z " fill="#000000" transform="translate(268,1105)"/>
<path d="M0,0 L1,0 L1,944 L-4,947 L-78,947 L-86,946 L-163,946 L-171,942 L-176,943 L-180,945 L-316,945 L-373,944 L-477,944 L-519,943 L-580,942 L-630,942 L-719,941 L-761,941 L-769,940 L-865,940 L-888,939 L-911,939 L-917,940 L-920,939 L-936,938 L-972,939 L-975,938 L-1028,938 L-1034,937 L-1065,937 L-1102,936 L-1105,937 L-1133,937 L-1133,927 L-1088,927 L-1035,928 L-1011,928 L-979,929 L-911,929 L-906,930 L-807,930 L-799,929 L-794,930 L-768,931 L-626,931 L-600,932 L-570,931 L-561,932 L-510,932 L-464,933 L-448,933 L-414,934 L-304,934 L-251,935 L-172,935 L-126,936 L-21,936 L-12,935 L-10,934 L-9,923 L-8,891 L-8,822 L-7,729 L-7,701 L-6,615 L-6,557 L-5,522 L-5,476 L-4,451 L-4,347 L-3,264 L-2,144 L-1,66 L-1,1 Z " fill="#000000" transform="translate(1133,202)"/>
</svg>
