<?xml version="1.0" encoding="UTF-8"?>
<!-- Generator: visioncortex VTracer 0.6.12 -->
<svg version="1.1" xmlns="http://www.w3.org/2000/svg" width="780" height="1089">
<path d="M0,0 L780,0 L780,1089 L0,1089 Z M145,286 L140,290 L138,293 L137,389 L137,408 L136,417 L136,436 L135,460 L135,680 L134,694 L134,795 L135,802 L140,806 L144,807 L168,807 L251,808 L277,809 L306,809 L327,811 L331,810 L406,810 L442,811 L448,808 L453,809 L457,811 L476,811 L530,812 L567,812 L610,813 L629,813 L636,810 L639,807 L641,792 L642,770 L642,725 L643,610 L643,526 L644,518 L643,449 L643,394 L644,349 L645,325 L645,302 L642,296 L640,294 L628,294 L627,297 L624,296 L621,291 L617,291 L614,297 L607,297 L601,294 L571,293 L561,292 L559,293 L544,293 L540,297 L539,299 L535,298 L532,293 L499,293 L487,294 L483,292 L461,292 L449,290 L445,291 L392,291 L321,289 L312,289 L302,290 L274,290 L271,289 L222,288 L181,287 L153,287 Z M645,606 L646,609 L649,607 Z M666,623 Z " fill="#000000" transform="translate(0,0)"/>
<path d="M0,0 L86,0 L93,6 L95,13 L95,21 L97,28 L110,35 L116,40 L117,43 L117,198 L118,227 L119,308 L123,312 L136,313 L150,313 L173,312 L186,312 L191,316 L193,324 L192,337 L189,340 L185,341 L143,341 L104,340 L65,340 L59,339 L49,340 L-88,339 L-100,338 L-104,334 L-105,323 L-105,316 L-102,311 L-37,311 L-33,308 L-32,301 L-33,172 L-34,133 L-34,115 L-38,114 L-40,122 L-42,140 L-42,168 L-40,198 L-39,202 L-38,250 L-41,273 L-47,285 L-55,292 L-64,297 L-73,298 L-83,297 L-95,291 L-101,286 L-107,276 L-109,269 L-109,256 L-106,218 L-102,204 L-99,190 L-97,178 L-92,154 L-88,140 L-84,126 L-80,109 L-76,100 L-71,95 L-66,91 L-60,87 L-50,79 L-44,75 L-36,70 L-35,67 L-33,46 L-31,38 L-27,33 L-14,29 L-12,25 L-11,14 L-8,5 Z M20,48 L15,52 L14,56 L14,64 L17,69 L19,70 L67,70 L70,68 L72,61 L71,53 L67,49 L64,48 Z M18,83 L16,85 L14,94 L14,115 L18,120 L50,121 L66,120 L70,117 L71,112 L71,89 L69,85 L65,83 Z M-60,124 L-70,130 L-74,138 L-82,171 L-88,202 L-90,214 L-95,253 L-95,272 L-90,281 L-79,287 L-70,287 L-60,281 L-56,275 L-53,262 L-53,199 L-55,184 L-57,142 L-56,124 Z " fill="#000000" transform="translate(368,369)"/>
</svg>
