<?xml version="1.0" encoding="UTF-8"?>
<!-- Generator: visioncortex VTracer 0.6.12 -->
<svg version="1.1" xmlns="http://www.w3.org/2000/svg" width="624" height="936">
<path d="M0,0 L110,0 L192,1 L239,1 L305,2 L311,5 L313,13 L315,34 L315,55 L314,84 L313,100 L312,165 L310,223 L309,294 L308,353 L308,366 L306,379 L304,381 L297,380 L294,377 L292,364 L288,364 L283,380 L275,416 L273,430 L272,433 L272,440 L277,440 L286,411 L288,402 L291,399 L298,399 L306,406 L312,411 L313,415 L310,421 L304,431 L299,440 L292,448 L285,459 L278,466 L257,470 L251,470 L246,465 L237,446 L229,430 L225,423 L225,416 L230,412 L237,411 L240,414 L246,433 L249,434 L251,433 L251,422 L247,393 L244,384 L237,384 L229,388 L211,388 L188,389 L160,389 L119,388 L96,388 L57,387 L43,386 L23,386 L-44,385 L-49,382 L-52,378 L-51,356 L-50,337 L-50,301 L-47,240 L-47,219 L-48,162 L-47,130 L-47,115 L-45,102 L-40,99 L-9,98 L93,98 L165,99 L237,99 L241,101 L243,105 L243,211 L242,220 L241,264 L242,288 L240,341 L240,355 L241,372 L248,372 L264,362 L278,354 L279,353 L287,353 L292,354 L293,335 L294,291 L294,265 L295,215 L295,183 L296,123 L297,71 L297,59 L298,53 L298,27 L296,23 L281,21 L266,21 L204,19 L194,20 L143,19 L76,19 L57,18 L40,19 L-24,19 L-43,18 L-70,19 L-107,19 L-114,22 L-116,26 L-117,32 L-119,62 L-120,96 L-121,173 L-123,221 L-123,241 L-124,270 L-127,279 L-125,283 L-124,291 L-124,312 L-126,384 L-127,459 L-127,491 L-129,557 L-129,591 L-130,624 L-130,641 L-131,648 L-131,678 L-132,685 L-132,724 L-133,758 L-134,771 L-135,801 L-135,837 L-136,848 L-135,855 L-129,857 L-121,858 L-78,858 L-75,859 L-13,860 L16,861 L99,861 L122,862 L275,862 L282,859 L284,850 L285,808 L287,788 L289,786 L295,786 L296,787 L297,802 L296,872 L293,877 L291,879 L286,880 L273,880 L254,879 L195,879 L171,878 L20,878 L-13,877 L-27,877 L-51,876 L-131,877 L-147,874 L-151,869 L-152,860 L-151,841 L-151,806 L-149,743 L-149,717 L-148,700 L-147,634 L-146,621 L-145,583 L-144,507 L-143,461 L-142,381 L-141,344 L-140,330 L-140,282 L-138,151 L-137,134 L-137,106 L-136,74 L-136,60 L-135,23 L-133,12 L-129,5 L-122,1 L-30,1 Z M49,103 L-8,104 L-21,104 L-30,106 L-33,111 L-34,139 L-34,189 L-35,212 L-35,226 L-36,245 L-36,278 L-38,349 L-38,359 L-36,364 L-34,365 L-10,367 L45,367 L108,368 L162,369 L182,370 L215,369 L220,367 L222,365 L223,349 L223,279 L224,214 L225,168 L225,108 L220,104 L189,103 Z " fill="#000000" transform="translate(182,29)"/>
<path d="M0,0 L10,0 L21,3 L29,8 L34,16 L35,30 L30,40 L26,45 L14,52 L3,52 L-7,47 L-14,39 L-18,29 L-18,22 L-13,10 L-9,5 Z M3,13 L-3,16 L-7,23 L-7,36 L-4,41 L1,44 L11,44 L18,40 L18,38 L20,38 L21,35 L21,21 L18,16 L12,13 Z " fill="#000000" transform="translate(95,423)"/>
<path d="M0,0 L13,1 L23,3 L29,6 L30,10 L27,13 L17,16 L0,24 L-12,27 L-20,26 L-22,23 L-21,16 L-16,8 L-7,2 Z " fill="#000000" transform="translate(381,495)"/>
<path d="M0,0 L8,0 L21,2 L41,2 L76,4 L93,3 L116,3 L149,4 L152,6 L151,10 L148,12 L142,13 L107,14 L101,13 L86,13 L60,14 L-1,14 L-12,15 L-16,19 L-17,57 L-18,118 L-19,155 L-20,179 L-20,223 L-21,251 L-21,270 L-20,287 L-20,310 L-15,312 L-3,313 L18,313 L44,314 L48,315 L64,315 L80,314 L86,313 L177,314 L232,314 L239,317 L244,322 L243,326 L234,329 L230,330 L188,331 L179,332 L173,331 L65,331 L6,332 L0,331 L-13,331 L-28,329 L-35,326 L-38,321 L-38,312 L-37,305 L-35,255 L-35,236 L-34,207 L-32,189 L-32,177 L-31,158 L-31,68 L-30,24 L-30,13 L-27,6 L-19,2 Z " fill="#000000" transform="translate(158,496)"/>
<path d="M0,0 L5,0 L6,1 L6,9 L3,21 L-5,39 L-6,45 L-4,51 L-1,51 L6,41 L13,37 L17,36 L25,36 L32,40 L33,45 L28,50 L17,58 L12,63 L6,63 L-1,56 L-5,55 L-8,64 L-11,69 L-11,74 L-6,75 L-3,74 L6,74 L10,78 L9,88 L3,99 L-2,107 L-10,118 L-14,121 L-19,119 L-20,99 L-24,98 L-26,103 L-26,132 L-23,135 L-17,135 L-5,129 L1,129 L4,133 L4,146 L0,160 L-7,171 L-13,178 L-13,186 L-7,194 L-1,194 L2,188 L5,177 L10,167 L13,165 L19,165 L25,175 L30,187 L31,205 L32,206 L39,205 L46,201 L57,199 L65,201 L75,207 L81,210 L87,209 L95,202 L105,196 L112,196 L115,199 L114,211 L109,225 L111,229 L118,228 L122,223 L124,210 L129,197 L135,188 L146,180 L156,175 L160,173 L161,170 L156,156 L155,152 L155,141 L159,130 L164,126 L169,127 L177,134 L182,142 L186,153 L188,162 L190,165 L194,165 L195,159 L197,147 L197,132 L192,129 L178,122 L165,111 L165,109 L161,107 L155,98 L151,90 L144,89 L128,96 L111,104 L104,107 L97,107 L94,105 L93,100 L95,81 L95,64 L88,64 L86,68 L78,84 L69,99 L64,106 L57,107 L49,97 L37,81 L32,76 L30,72 L31,63 L36,59 L48,53 L60,46 L63,43 L63,39 L54,37 L44,32 L41,27 L44,22 L52,18 L64,15 L70,17 L73,22 L73,31 L72,37 L78,37 L83,34 L82,19 L84,11 L89,7 L106,3 L115,2 L124,3 L129,1 L156,2 L175,12 L180,19 L180,21 L189,20 L196,17 L203,18 L211,24 L219,33 L223,43 L225,49 L225,73 L230,74 L234,72 L240,73 L244,79 L245,82 L245,92 L243,103 L235,119 L229,129 L221,136 L217,142 L213,146 L206,157 L205,163 L209,161 L217,151 L228,142 L241,136 L247,136 L249,137 L250,143 L246,154 L240,162 L230,172 L225,177 L220,181 L207,187 L197,191 L180,201 L176,205 L177,209 L182,208 L192,201 L217,192 L229,188 L236,188 L237,189 L236,196 L232,204 L221,217 L204,226 L198,228 L187,228 L183,227 L174,227 L166,231 L164,234 L165,240 L183,247 L188,250 L189,254 L185,258 L170,264 L166,265 L147,265 L137,262 L129,256 L124,252 L121,251 L109,251 L110,255 L120,262 L126,265 L133,271 L133,273 L135,273 L140,280 L141,285 L136,289 L132,290 L115,290 L98,284 L88,279 L79,270 L71,258 L68,255 L68,253 L59,252 L61,257 L69,268 L72,275 L74,285 L74,293 L71,296 L64,295 L48,287 L38,278 L36,274 L32,272 L26,264 L20,253 L14,249 L10,248 L12,254 L16,262 L18,265 L17,270 L16,271 L3,270 L-9,267 L-18,261 L-27,250 L-30,242 L-30,232 L-26,227 L-21,226 L-11,230 L-5,231 L-6,226 L-14,220 L-20,218 L-37,217 L-49,210 L-57,201 L-63,191 L-65,184 L-65,177 L-60,175 L-48,181 L-36,187 L-31,186 L-32,181 L-41,169 L-41,147 L-45,146 L-49,150 L-53,156 L-60,156 L-65,150 L-71,134 L-72,128 L-72,109 L-70,101 L-60,99 L-59,94 L-61,86 L-61,72 L-58,60 L-54,54 L-48,49 L-43,49 L-40,52 L-37,59 L-36,66 L-35,67 L-29,67 L-28,66 L-28,58 L-32,52 L-33,49 L-33,42 L-29,31 L-25,24 L-20,16 L-8,8 Z M125,30 L122,33 L124,37 L130,36 L129,31 Z M151,33 L145,36 L146,41 L155,49 L163,56 L167,62 L168,73 L172,78 L181,84 L187,93 L191,104 L194,110 L198,111 L201,109 L201,102 L196,88 L188,75 L178,63 L172,55 L170,49 L170,42 L162,35 L159,33 Z M191,56 L188,59 L191,69 L201,82 L209,89 L210,91 L209,100 L207,110 L207,116 L212,117 L216,108 L221,93 L221,84 L211,77 L200,66 L195,57 Z M149,69 L146,72 L147,79 L151,82 L156,81 L159,78 L160,72 L156,69 Z M167,178 L164,180 L161,197 L162,199 L168,199 L174,194 L178,189 L179,183 L175,178 Z M29,214 L26,218 L28,225 L40,231 L52,236 L65,236 L74,233 L74,229 L73,228 L54,229 L44,226 L39,221 L33,214 Z " fill="#000000" transform="translate(346,505)"/>
<path d="M0,0 L4,1 L5,4 L5,50 L2,59 L0,61 L-7,60 L-8,59 L-9,40 L-9,26 L-8,9 L-5,3 Z " fill="#000000" transform="translate(478,613)"/>
</svg>
