<?xml version="1.0" encoding="UTF-8"?>
<!-- Generator: visioncortex VTracer 0.6.12 -->
<svg version="1.1" xmlns="http://www.w3.org/2000/svg" width="1098" height="1128">
<path d="M0,0 L954,0 L955,1 L966,2 L993,2 L1013,3 L1047,3 L1053,5 L1087,5 L1087,1125 L1085,1128 L3,1128 L-6,1116 L-8,1113 L-8,1103 L-6,1097 L-6,1084 L-5,1073 L-5,935 L-4,926 L-4,654 L-5,636 L-11,632 L-11,630 L-5,626 L-4,625 L-3,601 L-3,489 L-2,417 L-2,378 L-1,288 L0,135 L-1,117 L-1,39 Z M17,3 L12,8 L10,24 L9,106 L8,146 L8,347 L7,398 L7,475 L8,477 L21,478 L24,479 L63,479 L92,480 L158,480 L183,481 L199,480 L214,465 L221,457 L226,452 L231,447 L238,440 L241,431 L244,426 L249,413 L253,407 L255,400 L258,391 L267,371 L272,358 L277,351 L280,341 L283,335 L287,325 L295,306 L297,299 L305,288 L316,280 L324,276 L330,273 L342,271 L370,271 L452,272 L471,273 L489,272 L503,273 L545,274 L568,274 L574,275 L650,275 L677,276 L738,276 L741,275 L741,268 L744,269 L747,274 L755,277 L766,279 L777,286 L784,292 L791,302 L798,313 L806,329 L818,358 L824,372 L831,387 L840,408 L847,424 L858,448 L865,458 L879,475 L887,484 L891,489 L940,489 L945,490 L954,489 L959,490 L1020,490 L1022,491 L1034,491 L1039,489 L1066,491 L1075,490 L1078,488 L1079,463 L1080,420 L1080,179 L1081,160 L1080,136 L1080,63 L1081,29 L1078,22 L1074,21 L1068,20 L1046,20 L1043,18 L1007,18 L1002,20 L997,19 L995,18 L988,18 L982,20 L976,20 L972,17 L952,18 L944,19 L940,16 L908,15 L873,15 L862,16 L847,16 L826,15 L806,15 L800,16 L792,16 L791,15 L740,13 L705,13 L684,14 L681,13 L669,12 L570,11 L540,11 L536,10 L496,9 L454,9 L380,8 L366,8 L334,7 L192,7 L164,6 L114,6 L97,5 L56,5 L48,4 L38,4 L33,3 Z M1070,12 L1070,15 L1074,15 L1074,12 Z M343,297 L331,301 L325,305 L319,312 L315,322 L307,338 L304,343 L302,353 L298,359 L293,371 L285,392 L281,400 L276,414 L271,426 L271,435 L275,439 L330,440 L377,440 L382,441 L528,442 L539,443 L629,443 L683,444 L705,444 L762,445 L820,445 L823,443 L824,435 L822,427 L814,407 L809,397 L804,385 L797,365 L786,341 L782,329 L779,323 L777,315 L770,307 L761,303 L741,303 L727,302 L718,301 L697,301 L678,300 L645,300 L578,299 L534,298 L455,298 L417,299 L399,297 Z M44,486 L40,488 L22,488 L15,489 L9,489 L7,491 L6,555 L7,595 L6,622 L8,627 L16,627 L23,626 L31,626 L37,627 L42,626 L77,626 L92,627 L104,626 L114,626 L126,627 L140,626 L169,627 L205,627 L245,628 L356,628 L358,629 L384,630 L421,630 L429,629 L438,631 L480,630 L486,629 L491,630 L515,631 L519,632 L526,632 L531,630 L546,630 L555,632 L565,633 L568,632 L603,632 L619,633 L690,633 L708,634 L725,633 L733,635 L740,635 L747,634 L767,634 L783,635 L838,636 L845,635 L853,635 L863,637 L884,636 L893,636 L902,637 L916,636 L933,638 L937,637 L963,637 L972,639 L984,638 L988,640 L994,640 L996,639 L1023,638 L1027,643 L1032,641 L1042,641 L1050,638 L1051,637 L1058,637 L1065,641 L1066,644 L1068,645 L1068,649 L1060,648 L1053,650 L1048,648 L1042,648 L1036,647 L1031,648 L1003,648 L941,647 L937,645 L917,647 L913,649 L911,673 L905,687 L899,696 L888,706 L881,710 L871,713 L854,714 L850,716 L788,715 L754,716 L744,717 L726,717 L703,718 L699,721 L694,720 L690,717 L628,717 L623,718 L615,718 L612,717 L594,716 L528,716 L523,715 L486,715 L482,716 L465,716 L444,715 L407,715 L392,714 L356,714 L340,713 L241,713 L220,709 L211,707 L201,701 L192,695 L187,690 L181,680 L176,663 L176,644 L177,638 L172,637 L125,636 L111,637 L102,636 L59,636 L12,635 L7,637 L6,665 L6,851 L5,875 L6,886 L5,934 L4,947 L4,1075 L5,1087 L5,1100 L7,1109 L14,1115 L49,1114 L68,1114 L84,1115 L113,1115 L116,1116 L145,1116 L226,1117 L328,1117 L332,1118 L368,1117 L373,1118 L390,1118 L398,1117 L421,1118 L439,1118 L446,1117 L464,1118 L492,1118 L504,1119 L542,1119 L567,1120 L582,1119 L611,1120 L644,1120 L666,1121 L741,1121 L749,1122 L754,1121 L766,1121 L776,1122 L912,1122 L927,1124 L934,1122 L944,1123 L1010,1123 L1048,1124 L1064,1124 L1071,1121 L1072,1120 L1074,1102 L1074,1070 L1075,1040 L1076,978 L1076,959 L1077,936 L1076,907 L1077,901 L1077,733 L1078,692 L1078,627 L1077,550 L1078,532 L1078,505 L1074,501 L1069,498 L1064,499 L1062,500 L1042,501 L1021,500 L1016,501 L1002,499 L986,500 L950,499 L900,499 L852,498 L830,498 L808,497 L799,498 L777,498 L772,497 L713,497 L626,495 L604,495 L594,494 L548,494 L517,493 L503,493 L480,492 L464,493 L446,493 L439,494 L425,494 L416,493 L413,494 L392,493 L384,494 L368,493 L364,492 L357,493 L349,492 L342,493 L338,492 L286,491 L230,491 L219,490 L192,490 L187,489 L93,489 L62,488 L53,488 Z M237,638 L227,639 L228,644 L234,653 L242,660 L251,666 L255,668 L284,668 L292,664 L301,658 L310,649 L314,644 L314,639 Z M785,645 L783,647 L784,652 L790,660 L793,663 L800,665 L805,670 L814,675 L832,675 L836,673 L844,671 L854,665 L864,653 L866,649 L865,647 L832,646 L816,646 L798,645 Z " fill="#000000" transform="translate(11,0)"/>
<path d="M0,0 L2,0 L2,4 L-1,3 Z " fill="#000000" transform="translate(552,623)"/>
<path d="M0,0 L23,1 L48,1 L66,2 L71,5 L72,7 L73,29 L72,39 L71,76 L71,116 L66,127 L58,134 L56,135 L25,136 L2,135 L-2,136 L-10,136 L-16,134 L-24,130 L-29,122 L-30,115 L-30,106 L-29,101 L-29,15 L-26,5 L-22,2 L-17,1 Z " fill="#000000" transform="translate(260,720)"/>
<path d="M0,0 L12,0 L43,1 L47,4 L49,17 L49,64 L48,82 L49,103 L49,115 L46,123 L37,132 L33,134 L-31,134 L-42,127 L-47,121 L-50,112 L-50,100 L-49,87 L-49,9 L-46,3 L-42,1 Z M-24,97 L-26,98 L-24,102 L-21,101 L-21,98 Z " fill="#000000" transform="translate(832,727)"/>
</svg>
