<?xml version="1.0" encoding="UTF-8"?>
<!-- Generator: visioncortex VTracer 0.6.12 -->
<svg version="1.1" xmlns="http://www.w3.org/2000/svg" width="1260" height="1206">
<path d="M0,0 L75,0 L83,1 L129,1 L152,2 L221,2 L254,3 L283,3 L294,4 L300,3 L323,3 L337,4 L343,5 L352,4 L368,4 L405,5 L450,5 L488,6 L554,7 L634,7 L661,8 L676,8 L695,9 L710,11 L724,15 L737,18 L738,19 L747,20 L760,26 L772,30 L785,36 L799,45 L808,51 L813,55 L814,57 L822,61 L829,67 L834,72 L842,81 L848,85 L859,99 L864,107 L872,117 L881,133 L889,148 L896,167 L901,183 L906,202 L909,229 L909,315 L908,327 L908,392 L906,435 L907,440 L906,583 L905,589 L905,676 L904,695 L904,761 L903,813 L903,855 L902,859 L902,868 L903,874 L901,893 L900,926 L897,943 L892,963 L888,977 L886,983 L878,999 L874,1009 L865,1024 L857,1037 L849,1047 L847,1047 L845,1051 L836,1062 L827,1071 L823,1074 L821,1074 L819,1078 L810,1084 L805,1089 L797,1096 L789,1101 L773,1109 L764,1114 L757,1117 L750,1120 L740,1122 L733,1125 L722,1128 L718,1130 L708,1132 L694,1133 L690,1134 L666,1135 L649,1134 L641,1135 L622,1133 L615,1129 L611,1133 L600,1134 L558,1133 L549,1133 L547,1132 L532,1133 L520,1133 L499,1132 L495,1133 L459,1132 L410,1131 L400,1130 L394,1131 L359,1131 L346,1130 L340,1129 L337,1130 L312,1130 L306,1129 L298,1130 L175,1130 L155,1129 L123,1129 L105,1128 L81,1128 L73,1127 L70,1128 L55,1128 L20,1126 L6,1126 L-1,1125 L-12,1126 L-32,1124 L-40,1122 L-48,1122 L-64,1116 L-78,1114 L-95,1105 L-100,1102 L-107,1100 L-125,1088 L-140,1079 L-147,1073 L-151,1070 L-151,1068 L-155,1066 L-160,1062 L-165,1057 L-178,1043 L-186,1032 L-191,1027 L-202,1009 L-213,989 L-218,977 L-221,970 L-228,948 L-232,931 L-233,917 L-234,914 L-236,886 L-237,864 L-236,854 L-236,839 L-235,814 L-236,803 L-235,799 L-235,702 L-234,694 L-234,683 L-233,676 L-233,595 L-232,567 L-231,536 L-230,530 L-230,492 L-231,472 L-230,452 L-229,401 L-228,346 L-227,319 L-227,256 L-226,252 L-225,215 L-223,202 L-222,194 L-216,170 L-214,166 L-212,158 L-208,150 L-206,142 L-202,135 L-199,128 L-194,119 L-190,113 L-186,106 L-176,93 L-170,85 L-154,68 L-145,59 L-136,52 L-128,47 L-118,39 L-101,30 L-89,23 L-77,19 L-67,14 L-60,11 L-48,9 L-44,7 L-20,2 Z M231,186 L204,187 L197,188 L192,192 L184,199 L180,209 L179,223 L178,261 L178,359 L177,389 L177,448 L176,485 L176,581 L175,589 L175,663 L174,702 L174,730 L173,807 L172,839 L170,855 L168,856 L155,857 L115,857 L35,856 L29,859 L25,867 L24,873 L25,880 L25,900 L29,908 L31,909 L43,909 L51,910 L68,910 L89,911 L102,911 L108,910 L118,911 L164,911 L178,912 L181,914 L187,913 L197,912 L253,912 L268,913 L371,913 L385,914 L427,914 L433,915 L441,914 L482,915 L505,915 L554,916 L569,917 L583,917 L596,915 L600,907 L600,873 L596,865 L587,863 L576,863 L554,862 L536,862 L520,861 L495,862 L466,860 L463,859 L461,853 L461,807 L463,788 L462,786 L462,765 L461,742 L461,714 L462,710 L462,680 L463,639 L463,607 L464,562 L464,521 L465,510 L466,507 L471,507 L473,510 L474,519 L474,552 L475,578 L475,597 L474,621 L474,727 L473,749 L473,766 L472,795 L475,799 L478,810 L482,820 L489,831 L496,838 L501,844 L520,853 L529,855 L537,854 L548,855 L564,848 L574,842 L581,835 L587,822 L591,801 L591,785 L586,762 L584,751 L575,725 L570,709 L562,689 L555,664 L552,655 L550,641 L548,635 L547,623 L547,478 L548,473 L548,442 L549,425 L548,422 L548,406 L547,396 L548,376 L548,356 L545,339 L538,325 L532,318 L524,311 L516,304 L508,297 L500,290 L496,288 L489,279 L475,270 L469,262 L467,250 L466,216 L462,205 L455,196 L443,191 L423,189 L390,189 L343,188 L312,188 L287,187 Z M776,235 L774,237 L775,241 L780,240 L779,236 Z " fill="#000000" transform="translate(273,37)"/>
<path d="M0,0 L41,0 L60,1 L64,0 L76,0 L91,1 L138,1 L173,3 L182,4 L190,10 L193,19 L193,149 L191,159 L185,167 L180,169 L167,169 L162,170 L130,170 L124,169 L69,169 L50,168 L28,168 L21,169 L12,168 L4,168 L-5,165 L-11,160 L-14,152 L-16,136 L-16,109 L-15,76 L-15,22 L-13,13 L-9,5 L-3,1 Z " fill="#000000" transform="translate(506,261)"/>
<path d="M0,0 L5,0 L9,4 L12,11 L12,57 L14,66 L17,69 L19,70 L42,71 L47,73 L50,78 L51,112 L50,140 L50,172 L49,179 L49,201 L48,225 L48,312 L49,329 L52,348 L54,353 L56,364 L63,381 L68,398 L74,414 L77,424 L87,454 L91,481 L89,500 L86,506 L79,512 L70,516 L64,516 L56,512 L43,500 L40,491 L37,485 L35,458 L35,382 L36,326 L36,311 L37,288 L37,181 L33,174 L29,170 L17,164 L2,162 L-3,157 L-4,148 L-4,74 L-3,46 L-2,36 L-2,3 Z " fill="#000000" transform="translate(741,345)"/>
</svg>
