<?xml version="1.0" encoding="UTF-8"?>
<!-- Generator: visioncortex VTracer 0.6.12 -->
<svg version="1.1" xmlns="http://www.w3.org/2000/svg" width="870" height="693">
<path d="M0,0 L8,1 L14,5 L23,18 L27,26 L32,33 L37,42 L39,46 L39,54 L36,61 L29,67 L19,73 L9,74 L2,71 L-8,70 L-12,71 L-16,93 L-20,99 L-27,105 L-34,106 L-45,101 L-47,100 L-56,100 L-60,104 L-62,117 L-69,128 L-75,135 L-85,143 L-101,154 L-108,158 L-118,165 L-127,171 L-133,175 L-143,182 L-153,188 L-161,194 L-174,201 L-179,205 L-193,214 L-205,222 L-218,231 L-228,237 L-238,244 L-260,258 L-272,267 L-288,277 L-299,284 L-308,290 L-323,299 L-335,307 L-346,314 L-356,320 L-369,329 L-378,335 L-392,344 L-404,351 L-421,363 L-434,371 L-447,379 L-463,392 L-466,395 L-467,404 L-461,415 L-453,428 L-452,437 L-454,445 L-454,458 L-448,468 L-442,471 L-425,472 L-420,478 L-419,480 L-419,486 L-423,496 L-423,503 L-420,511 L-417,513 L-408,513 L-405,512 L-398,512 L-393,515 L-388,524 L-389,528 L-398,535 L-409,542 L-422,551 L-431,556 L-451,569 L-466,579 L-483,590 L-494,597 L-508,606 L-519,613 L-525,617 L-536,623 L-542,626 L-548,626 L-553,620 L-553,613 L-548,604 L-545,591 L-548,584 L-552,581 L-566,578 L-569,575 L-569,568 L-567,562 L-568,556 L-574,544 L-577,539 L-589,538 L-601,544 L-607,544 L-615,537 L-625,522 L-630,513 L-636,504 L-646,489 L-655,476 L-661,465 L-672,449 L-680,438 L-690,423 L-698,410 L-703,404 L-706,394 L-700,379 L-696,362 L-697,356 L-701,350 L-704,349 L-713,349 L-722,350 L-725,349 L-726,342 L-723,326 L-723,319 L-727,315 L-740,316 L-746,315 L-750,316 L-757,316 L-762,311 L-763,310 L-763,304 L-756,297 L-751,294 L-749,294 L-748,291 L-741,286 L-729,280 L-723,275 L-707,266 L-693,258 L-684,252 L-669,243 L-660,237 L-652,236 L-650,237 L-644,237 L-641,231 L-639,226 L-625,215 L-618,208 L-611,204 L-603,204 L-599,208 L-595,215 L-594,219 L-594,244 L-592,247 L-579,247 L-571,252 L-570,254 L-570,262 L-574,269 L-576,274 L-576,282 L-572,286 L-567,288 L-555,290 L-546,292 L-538,301 L-530,313 L-525,318 L-518,326 L-513,329 L-506,328 L-497,322 L-487,315 L-476,308 L-462,299 L-452,293 L-439,285 L-424,275 L-413,268 L-403,262 L-394,256 L-390,253 L-381,248 L-368,239 L-353,230 L-344,224 L-336,217 L-321,208 L-311,202 L-306,198 L-293,190 L-282,183 L-269,174 L-249,161 L-236,153 L-228,148 L-221,144 L-210,136 L-207,133 L-201,130 L-190,123 L-180,116 L-170,109 L-160,103 L-149,95 L-140,89 L-127,81 L-117,74 L-105,67 L-95,68 L-84,72 L-79,71 L-76,70 L-74,66 L-69,48 L-65,40 L-58,34 L-48,29 L-42,28 L-29,33 L-22,33 L-18,30 L-17,24 L-17,17 L-14,10 L-6,2 Z M-507,571 L-509,573 L-509,582 L-507,586 L-502,585 L-499,581 L-499,576 L-504,571 Z " fill="#000000" transform="translate(799,35)"/>
<path d="M0,0 L3,0 L3,3 L0,2 Z " fill="#000000" transform="translate(747,477)"/>
</svg>
