<?xml version="1.0" encoding="UTF-8"?>
<!-- Generator: visioncortex VTracer 0.6.12 -->
<svg version="1.1" xmlns="http://www.w3.org/2000/svg" width="603" height="603">
<path d="M0,0 L7,1 L13,2 L29,3 L31,4 L45,6 L58,10 L74,16 L85,19 L98,27 L107,30 L117,34 L127,41 L144,51 L148,55 L148,57 L153,59 L162,66 L166,71 L172,75 L180,84 L185,89 L192,97 L196,101 L210,120 L216,129 L224,146 L228,151 L233,165 L238,173 L243,191 L247,202 L249,215 L252,230 L254,265 L254,280 L253,289 L252,300 L247,329 L244,339 L240,353 L235,365 L232,369 L230,378 L224,387 L219,400 L213,410 L203,423 L195,435 L182,449 L175,457 L166,465 L158,472 L151,478 L145,482 L137,488 L127,494 L122,498 L113,502 L94,511 L84,515 L74,519 L64,522 L56,525 L45,528 L42,529 L31,530 L25,532 L17,532 L6,534 L-25,534 L-31,533 L-51,532 L-66,528 L-82,526 L-93,522 L-110,516 L-142,501 L-156,492 L-164,487 L-175,479 L-188,468 L-193,463 L-203,454 L-212,443 L-213,440 L-217,438 L-226,427 L-232,418 L-240,407 L-252,384 L-263,361 L-265,352 L-270,334 L-274,318 L-278,298 L-280,262 L-278,233 L-276,224 L-275,214 L-271,199 L-265,179 L-260,167 L-253,150 L-245,136 L-237,122 L-229,110 L-221,100 L-210,87 L-208,87 L-206,83 L-201,78 L-184,62 L-175,55 L-165,48 L-159,43 L-153,40 L-145,35 L-122,24 L-113,20 L-105,17 L-92,13 L-81,9 L-70,7 L-59,4 L-37,2 L-33,1 L-9,1 Z M9,55 L5,59 L3,69 L-1,81 L-3,96 L-6,102 L-7,103 L-41,103 L-45,99 L-53,73 L-57,63 L-59,61 L-70,61 L-80,65 L-90,69 L-96,72 L-98,75 L-96,87 L-88,110 L-87,112 L-87,119 L-93,123 L-101,127 L-109,134 L-111,135 L-119,135 L-134,122 L-139,117 L-149,108 L-154,109 L-167,121 L-174,132 L-180,141 L-178,147 L-170,156 L-159,165 L-154,170 L-153,171 L-153,179 L-158,189 L-163,201 L-165,205 L-170,207 L-178,206 L-199,201 L-211,199 L-215,203 L-218,212 L-221,224 L-223,235 L-222,243 L-219,246 L-206,249 L-192,252 L-180,254 L-178,258 L-177,295 L-180,297 L-199,302 L-212,306 L-218,310 L-219,316 L-214,334 L-210,343 L-206,348 L-199,348 L-187,343 L-174,339 L-171,338 L-163,338 L-158,344 L-152,355 L-148,361 L-145,368 L-145,373 L-156,384 L-164,394 L-171,404 L-169,410 L-159,421 L-154,426 L-149,430 L-143,434 L-141,436 L-136,435 L-128,428 L-121,420 L-115,415 L-109,405 L-104,404 L-95,410 L-85,415 L-78,418 L-77,420 L-77,427 L-83,457 L-83,465 L-79,469 L-67,472 L-63,474 L-52,475 L-45,478 L-37,478 L-34,473 L-29,459 L-26,445 L-24,435 L-22,433 L8,433 L12,441 L16,455 L21,470 L26,475 L35,475 L39,473 L50,472 L64,465 L66,460 L63,448 L58,436 L56,424 L56,416 L62,414 L81,404 L87,399 L97,400 L107,410 L115,417 L123,426 L128,426 L141,414 L150,404 L154,397 L154,392 L145,382 L138,372 L130,365 L128,362 L128,353 L139,333 L144,330 L158,332 L162,334 L181,337 L186,336 L191,326 L196,308 L197,300 L197,291 L192,287 L176,283 L164,281 L155,278 L152,276 L152,246 L155,238 L162,234 L172,232 L180,229 L189,226 L193,221 L193,214 L187,194 L183,186 L180,182 L174,182 L164,186 L150,190 L147,192 L137,192 L132,188 L125,177 L119,167 L117,162 L117,155 L124,145 L137,131 L141,125 L141,120 L134,112 L125,105 L115,98 L110,95 L105,97 L93,109 L86,117 L80,124 L73,125 L60,120 L53,116 L51,116 L50,113 L46,110 L47,99 L51,80 L52,76 L52,67 L49,64 L34,59 L32,58 L14,56 Z " fill="#000000" transform="translate(317,35)"/>
<path d="M0,0 L15,1 L33,2 L37,4 L47,6 L54,9 L70,17 L81,24 L85,29 L91,33 L99,40 L111,56 L119,70 L125,84 L130,96 L132,105 L132,145 L130,156 L128,166 L122,181 L118,188 L111,199 L104,210 L94,219 L89,224 L78,233 L68,238 L58,243 L48,247 L35,251 L17,254 L6,254 L-16,251 L-26,248 L-35,246 L-40,243 L-48,240 L-65,230 L-74,223 L-81,216 L-86,210 L-91,206 L-97,197 L-101,192 L-109,175 L-114,162 L-118,145 L-119,133 L-119,123 L-117,102 L-112,84 L-107,74 L-103,65 L-97,56 L-90,47 L-86,41 L-80,36 L-75,31 L-67,24 L-53,15 L-37,8 L-30,6 L-24,4 Z " fill="#000000" transform="translate(297,175)"/>
</svg>
