<?xml version="1.0" encoding="UTF-8"?>
<!-- Generator: visioncortex VTracer 0.6.12 -->
<svg version="1.1" xmlns="http://www.w3.org/2000/svg" width="1116" height="1233">
<path d="M0,0 L145,0 L228,1 L274,1 L307,2 L399,2 L473,3 L504,3 L636,5 L664,5 L709,6 L798,7 L884,7 L915,8 L975,8 L1011,10 L1015,14 L1016,16 L1017,28 L1017,47 L1016,80 L1015,95 L1015,153 L1014,179 L1014,207 L1013,242 L1013,314 L1012,323 L1013,332 L1013,572 L1012,615 L1012,761 L1011,821 L1009,984 L1006,998 L1002,1001 L992,1002 L987,1004 L899,1004 L844,1003 L723,1003 L717,1002 L687,1002 L638,1003 L581,1002 L540,1002 L538,1001 L441,1001 L387,1000 L274,1000 L248,999 L210,999 L205,1000 L203,999 L132,999 L121,998 L45,998 L-16,997 L-27,995 L-30,993 L-31,990 L-31,923 L-29,858 L-29,796 L-28,673 L-28,522 L-27,516 L-27,507 L-28,495 L-28,254 L-27,246 L-27,221 L-26,140 L-27,133 L-26,53 L-26,8 L-24,3 L-20,1 L-3,1 Z M-5,10 L-10,14 L-12,21 L-13,84 L-13,170 L-14,224 L-14,282 L-15,336 L-14,389 L-14,521 L-15,540 L-14,592 L-15,663 L-15,752 L-17,900 L-17,966 L-16,984 L-12,987 L3,988 L47,988 L139,989 L233,989 L241,990 L358,990 L375,991 L492,991 L571,992 L610,992 L643,993 L683,993 L687,994 L741,994 L757,993 L763,994 L990,994 L995,991 L996,985 L996,928 L997,904 L997,846 L998,814 L999,715 L999,681 L1000,606 L1000,508 L999,492 L1000,473 L999,462 L1000,400 L1000,320 L999,301 L1001,216 L1002,124 L1002,80 L1003,76 L1002,27 L1000,22 L995,19 L954,19 L889,18 L868,18 L820,17 L786,17 L773,16 L769,17 L690,17 L684,16 L665,17 L661,16 L616,16 L573,15 L525,15 L512,14 L437,14 L396,13 L335,13 L305,12 L198,12 L146,11 L127,11 L118,10 L88,11 L53,11 L47,10 Z " fill="#000000" transform="translate(67,35)"/>
<path d="M0,0 L2,0 L2,2 L0,2 Z " fill="#000000" transform="translate(883,192)"/>
<path d="M0,0 L19,0 L38,4 L56,14 L68,25 L78,36 L86,43 L95,53 L100,57 L108,67 L114,70 L119,69 L127,62 L134,54 L159,29 L161,26 L163,26 L165,22 L177,11 L187,6 L196,3 L201,2 L226,1 L235,4 L245,6 L252,9 L264,18 L274,27 L282,38 L286,45 L289,54 L291,62 L292,65 L292,80 L290,95 L285,108 L279,118 L267,132 L253,141 L242,146 L230,149 L216,151 L198,151 L191,154 L192,158 L197,163 L202,170 L201,175 L200,176 L150,177 L149,181 L156,189 L167,202 L173,208 L173,210 L175,210 L180,218 L186,223 L191,229 L197,234 L201,240 L206,245 L215,255 L220,259 L225,264 L237,277 L243,277 L255,266 L262,260 L269,252 L270,251 L270,243 L261,233 L252,222 L236,206 L229,198 L221,190 L215,182 L214,178 L218,175 L319,175 L393,176 L397,180 L398,188 L398,206 L399,242 L399,342 L398,374 L397,377 L395,378 L377,378 L371,379 L271,378 L214,378 L175,377 L147,377 L144,374 L142,369 L142,215 L141,177 L137,169 L121,153 L115,152 L109,156 L98,168 L92,176 L90,182 L90,335 L89,373 L87,376 L79,377 L67,377 L55,376 L-15,376 L-164,375 L-167,373 L-168,363 L-168,182 L-166,176 L-162,174 L12,174 L16,176 L16,181 L5,193 L-10,209 L-18,217 L-24,225 L-32,232 L-40,241 L-41,247 L-29,260 L-24,265 L-15,274 L-11,277 L-5,277 L2,271 L8,263 L13,258 L23,249 L31,239 L36,234 L52,217 L56,212 L62,207 L69,199 L78,189 L83,181 L82,177 L66,176 L48,176 L42,175 L28,175 L27,170 L35,160 L38,157 L37,152 L34,150 L15,150 L2,149 L-15,145 L-25,140 L-40,129 L-51,118 L-62,95 L-65,83 L-65,67 L-61,51 L-56,39 L-50,31 L-44,23 L-40,18 L-33,14 L-25,9 L-10,2 Z M6,49 L-3,52 L-12,61 L-15,68 L-16,77 L-12,87 L-8,92 L2,98 L14,100 L37,101 L58,100 L65,98 L64,92 L60,87 L55,82 L39,66 L32,58 L21,51 L11,49 Z M214,49 L201,54 L193,62 L186,70 L182,75 L177,79 L172,87 L166,94 L166,98 L173,101 L213,101 L222,100 L233,96 L241,87 L243,84 L244,72 L238,60 L230,52 L225,50 Z M355,260 L352,263 L350,267 L351,271 L357,269 L360,266 L359,261 Z " fill="#000000" transform="translate(443,199)"/>
<path d="M0,0 L22,1 L37,1 L77,2 L94,2 L150,1 L176,2 L237,2 L248,3 L251,5 L252,11 L252,176 L251,200 L249,202 L151,202 L138,203 L113,202 L-1,202 L-4,199 L-5,94 L-4,6 L-2,1 Z " fill="#000000" transform="translate(280,623)"/>
<path d="M0,0 L147,0 L194,1 L235,1 L238,2 L241,13 L241,44 L242,50 L242,65 L241,70 L241,157 L240,198 L237,201 L145,201 L119,200 L106,200 L101,201 L89,201 L77,200 L-12,200 L-14,198 L-15,186 L-15,146 L-16,72 L-15,41 L-16,30 L-16,19 L-15,8 L-12,1 Z " fill="#000000" transform="translate(601,626)"/>
<path d="M0,0 L7,0 L21,7 L29,14 L34,23 L36,29 L37,44 L35,59 L28,69 L21,77 L9,84 L1,85 L-9,85 L-15,82 L-24,79 L-34,68 L-39,57 L-40,47 L-40,38 L-38,27 L-31,13 L-23,6 L-13,1 L-4,1 Z M-10,12 L-20,19 L-25,29 L-27,34 L-27,52 L-23,61 L-16,69 L-11,72 L-4,73 L4,73 L14,68 L21,58 L23,52 L24,45 L24,35 L20,23 L13,15 L7,12 Z " fill="#000000" transform="translate(186,1116)"/>
<path d="M0,0 L6,0 L9,3 L9,18 L6,26 L4,28 L-1,28 L-2,24 L1,18 L-1,12 L-3,10 L-3,3 Z " fill="#000000" transform="translate(241,1117)"/>
<path d="M0,0 L8,1 L11,4 L15,19 L17,33 L20,44 L22,52 L26,52 L31,36 L36,19 L38,16 L40,6 L42,2 L44,1 L51,1 L56,6 L59,17 L65,43 L68,53 L73,54 L77,38 L80,26 L83,15 L85,4 L89,1 L95,3 L96,4 L96,11 L94,15 L89,36 L85,49 L83,59 L77,78 L73,82 L66,82 L63,79 L58,59 L51,35 L49,26 L45,27 L41,38 L38,52 L30,79 L25,82 L18,80 L15,75 L11,59 L8,46 L3,25 L-3,4 L-2,1 Z " fill="#000000" transform="translate(42,1117)"/>
<path d="M0,0 L44,0 L48,4 L47,11 L40,19 L35,29 L29,41 L26,51 L23,57 L20,75 L16,80 L10,81 L6,77 L6,70 L9,63 L11,62 L10,54 L18,36 L23,28 L29,18 L28,14 L23,13 L0,13 L-3,11 L-4,4 Z M33,6 L33,9 L36,8 L36,6 Z " fill="#000000" transform="translate(271,1119)"/>
<path d="M0,0 L11,1 L20,7 L26,16 L27,19 L27,29 L23,38 L19,43 L9,51 L-2,58 L-8,65 L-7,68 L-1,69 L9,70 L13,69 L23,69 L26,72 L26,78 L24,80 L-23,81 L-26,77 L-24,67 L-18,58 L-10,50 L1,43 L10,35 L13,28 L12,20 L9,15 L4,12 L-4,13 L-8,16 L-12,28 L-17,31 L-22,30 L-24,27 L-24,20 L-18,9 L-11,3 Z " fill="#000000" transform="translate(354,1119)"/>
</svg>
