<?xml version="1.0" encoding="UTF-8"?>
<!-- Generator: visioncortex VTracer 0.6.12 -->
<svg version="1.1" xmlns="http://www.w3.org/2000/svg" width="351" height="963">
<path d="M0,0 L21,0 L40,5 L54,12 L57,15 L56,18 L43,20 L35,25 L27,25 L19,21 L9,21 L1,23 L-9,28 L-12,31 L-14,31 L-16,35 L-21,41 L-28,45 L-40,48 L-48,53 L-56,64 L-59,70 L-62,77 L-69,85 L-73,92 L-74,102 L-68,111 L-68,113 L-66,113 L-62,119 L-62,126 L-66,133 L-72,136 L-80,135 L-89,129 L-94,123 L-100,112 L-105,106 L-107,99 L-107,82 L-104,69 L-97,58 L-92,52 L-81,44 L-73,40 L-58,27 L-50,20 L-36,12 L-19,4 L-6,1 Z " fill="#000000" transform="translate(166,30)"/>
<path d="M0,0 L5,1 L20,10 L30,18 L33,20 L33,22 L35,22 L42,30 L47,37 L50,43 L51,48 L51,65 L47,77 L38,88 L26,94 L21,102 L14,115 L10,120 L3,129 L-5,136 L-14,142 L-23,148 L-33,152 L-49,156 L-69,157 L-87,154 L-99,149 L-110,142 L-121,134 L-123,131 L-122,125 L-118,118 L-115,110 L-115,97 L-118,88 L-125,79 L-125,71 L-117,66 L-112,61 L-111,48 L-106,42 L-98,39 L-85,37 L-80,34 L-73,20 L-66,16 L-59,13 L-50,14 L-39,19 L-30,18 L-22,13 L-16,13 L-7,20 L-5,24 L-3,34 L3,39 L18,43 L27,43 L28,42 L28,36 L24,32 L12,26 L6,14 L2,7 L-1,3 Z " fill="#000000" transform="translate(236,51)"/>
<path d="M0,0 L7,0 L22,4 L36,13 L46,17 L49,18 L70,18 L84,13 L97,5 L101,3 L110,2 L132,2 L144,4 L161,11 L172,18 L178,23 L183,31 L189,40 L195,57 L198,72 L199,85 L199,109 L195,113 L188,116 L187,121 L186,166 L186,324 L192,347 L197,363 L202,379 L212,410 L216,423 L216,430 L213,432 L190,433 L183,434 L161,434 L150,435 L145,436 L145,448 L141,496 L139,505 L138,523 L133,565 L128,609 L125,645 L123,657 L120,663 L117,665 L75,665 L71,661 L70,651 L70,599 L69,581 L68,515 L68,458 L67,436 L64,434 L58,434 L57,438 L58,494 L59,527 L59,651 L58,661 L54,665 L13,665 L10,662 L5,635 L2,617 L0,609 L-4,581 L-7,554 L-9,542 L-10,526 L-13,512 L-16,478 L-20,449 L-24,438 L-24,436 L-29,435 L-62,433 L-74,432 L-78,430 L-79,428 L-79,417 L-76,404 L-72,389 L-70,377 L-62,347 L-55,314 L-56,290 L-57,284 L-59,254 L-62,205 L-63,194 L-64,169 L-65,158 L-66,108 L-69,103 L-70,96 L-70,85 L-68,63 L-64,48 L-60,40 L-57,33 L-56,31 L-54,31 L-52,26 L-44,17 L-31,7 L-19,2 L-15,1 Z M6,13 L0,16 L-1,18 L-1,53 L-2,68 L-2,139 L1,146 L6,149 L28,150 L98,150 L119,149 L124,144 L127,119 L127,30 L126,20 L121,16 L102,14 L90,20 L84,25 L71,30 L59,30 L45,27 L33,22 L20,14 L17,13 Z M-25,14 L-36,21 L-45,32 L-53,46 L-57,59 L-59,70 L-60,82 L-60,96 L-58,102 L-54,105 L-50,106 L-26,106 L-20,103 L-18,98 L-17,74 L-16,45 L-16,27 L-17,16 L-19,14 Z M151,25 L147,27 L145,31 L144,40 L143,72 L143,97 L145,102 L148,103 L180,103 L185,100 L187,96 L187,77 L184,57 L180,45 L172,35 L166,29 L156,25 Z M8,175 L-1,176 L-7,180 L-10,187 L-17,216 L-20,225 L-24,244 L-30,267 L-36,293 L-40,316 L-44,330 L-49,351 L-53,365 L-59,390 L-62,409 L-62,417 L-59,420 L-53,421 L-15,422 L66,422 L89,423 L130,423 L186,422 L197,421 L201,418 L201,411 L193,389 L185,364 L178,344 L174,326 L170,316 L165,297 L163,292 L161,283 L156,268 L152,254 L149,241 L143,222 L139,206 L134,191 L129,181 L124,178 L114,176 L29,175 Z M11,525 L4,527 L2,530 L2,539 L6,579 L10,602 L12,617 L16,645 L19,654 L22,656 L41,656 L46,654 L48,652 L49,645 L49,547 L48,532 L46,527 L45,526 L33,525 Z M84,529 L81,531 L80,540 L80,584 L81,638 L82,650 L85,653 L99,654 L109,654 L115,652 L117,649 L119,630 L122,593 L124,566 L124,532 L119,529 Z " fill="#000000" transform="translate(109,231)"/>
</svg>
