<?xml version="1.0" encoding="UTF-8"?>
<!-- Generator: visioncortex VTracer 0.6.12 -->
<svg version="1.1" xmlns="http://www.w3.org/2000/svg" width="1056" height="1290">
<path d="M0,0 L4,1 L4,9 L1,24 L-3,33 L-10,42 L-12,42 L-14,46 L-21,52 L-26,57 L-33,63 L-43,69 L-59,77 L-77,83 L-80,86 L-88,90 L-90,90 L-92,94 L-92,101 L-88,107 L-82,112 L-77,117 L-67,126 L-60,134 L-49,143 L-44,148 L-34,157 L-26,164 L-21,169 L-11,178 L-6,182 L2,189 L12,198 L20,205 L25,210 L33,217 L44,227 L53,234 L62,244 L65,246 L65,248 L70,250 L81,261 L90,268 L96,273 L105,284 L108,291 L110,298 L109,310 L106,320 L99,332 L86,348 L75,359 L70,364 L66,369 L57,380 L50,388 L46,392 L37,403 L30,408 L26,409 L15,404 L6,402 L-20,402 L-54,407 L-68,411 L-81,419 L-92,426 L-99,433 L-102,436 L-108,443 L-113,448 L-118,453 L-127,463 L-135,473 L-140,481 L-145,489 L-153,500 L-159,511 L-168,528 L-174,540 L-177,543 L-179,553 L-183,563 L-184,570 L-188,579 L-192,590 L-195,601 L-197,611 L-201,624 L-203,637 L-207,652 L-208,664 L-211,675 L-215,675 L-217,666 L-218,635 L-217,623 L-213,592 L-207,566 L-203,551 L-201,543 L-195,527 L-184,502 L-177,491 L-169,478 L-160,466 L-151,455 L-145,447 L-138,439 L-131,432 L-126,427 L-115,419 L-107,413 L-102,410 L-91,403 L-83,398 L-76,394 L-73,392 L-57,388 L-51,386 L-34,385 L-7,385 L6,383 L20,381 L26,377 L28,377 L30,372 L38,364 L44,356 L52,347 L59,339 L64,332 L69,327 L79,318 L85,310 L88,306 L87,299 L82,294 L77,289 L66,279 L61,275 L56,269 L39,256 L26,243 L20,238 L16,234 L11,231 L2,221 L-5,214 L-15,206 L-25,196 L-36,187 L-46,178 L-57,169 L-59,165 L-63,163 L-76,151 L-85,144 L-89,139 L-97,132 L-102,128 L-113,119 L-124,110 L-132,103 L-136,98 L-144,91 L-154,78 L-165,70 L-173,64 L-183,58 L-190,54 L-205,51 L-218,49 L-231,47 L-245,48 L-253,52 L-252,66 L-245,81 L-236,92 L-228,101 L-228,103 L-224,105 L-215,111 L-210,116 L-205,119 L-198,123 L-188,127 L-183,131 L-182,138 L-187,153 L-191,158 L-198,167 L-204,176 L-213,186 L-221,193 L-238,210 L-253,220 L-266,225 L-281,233 L-290,236 L-299,240 L-306,241 L-311,243 L-317,245 L-336,251 L-345,253 L-350,255 L-365,258 L-381,264 L-398,273 L-405,278 L-411,281 L-414,284 L-423,289 L-430,296 L-438,303 L-445,309 L-452,317 L-459,324 L-467,336 L-474,345 L-481,358 L-488,369 L-492,377 L-497,390 L-501,401 L-505,414 L-508,423 L-512,434 L-515,445 L-519,465 L-522,486 L-524,509 L-524,536 L-521,568 L-520,571 L-518,586 L-512,604 L-509,615 L-505,626 L-501,641 L-495,661 L-488,672 L-480,688 L-468,708 L-465,712 L-458,728 L-448,747 L-444,753 L-440,763 L-435,771 L-431,782 L-424,804 L-421,820 L-418,831 L-416,841 L-415,845 L-415,858 L-419,865 L-423,866 L-424,865 L-428,841 L-433,822 L-437,809 L-445,793 L-448,785 L-462,761 L-470,746 L-479,734 L-487,718 L-493,709 L-499,697 L-512,675 L-518,664 L-522,656 L-526,646 L-533,628 L-538,611 L-544,585 L-546,567 L-547,564 L-549,541 L-550,521 L-550,486 L-547,463 L-545,454 L-544,441 L-541,424 L-537,407 L-531,390 L-527,382 L-522,372 L-518,364 L-515,356 L-511,351 L-506,342 L-498,331 L-488,317 L-479,307 L-459,287 L-454,282 L-444,274 L-438,269 L-421,259 L-405,251 L-396,246 L-391,243 L-374,237 L-365,233 L-351,229 L-333,225 L-332,224 L-323,222 L-311,219 L-306,216 L-293,213 L-282,209 L-270,204 L-256,196 L-242,187 L-237,182 L-224,170 L-214,160 L-209,150 L-209,145 L-213,139 L-224,132 L-233,122 L-241,110 L-248,101 L-258,82 L-264,66 L-268,56 L-271,42 L-271,29 L-266,25 L-257,22 L-246,20 L-238,18 L-215,18 L-194,23 L-180,31 L-173,34 L-168,38 L-154,49 L-144,60 L-139,70 L-137,71 L-128,70 L-122,67 L-117,62 L-107,54 L-94,48 L-88,45 L-69,42 L-59,39 L-49,37 L-37,32 L-21,24 L-11,15 L-2,1 Z " fill="#000000" transform="translate(793,37)"/>
<path d="M0,0 L7,0 L11,2 L16,12 L23,24 L23,35 L19,43 L11,49 L4,52 L-11,52 L-16,49 L-23,39 L-25,32 L-25,24 L-19,13 L-14,8 Z " fill="#000000" transform="translate(694,209)"/>
<path d="M0,0 L5,2 L9,12 L13,36 L15,71 L16,81 L15,104 L14,115 L13,118 L11,135 L5,160 L0,180 L-3,189 L-9,203 L-13,213 L-22,229 L-27,241 L-38,261 L-43,270 L-54,287 L-62,301 L-68,312 L-73,324 L-79,337 L-84,351 L-86,354 L-91,371 L-98,393 L-103,411 L-107,426 L-110,436 L-114,438 L-115,436 L-114,413 L-112,398 L-111,384 L-102,349 L-97,336 L-91,320 L-83,303 L-79,295 L-73,283 L-66,267 L-58,254 L-45,225 L-33,198 L-26,179 L-21,163 L-19,160 L-17,151 L-12,135 L-4,106 L-2,95 L-1,91 L0,78 L3,63 L3,40 L-2,15 L-5,10 L-5,4 Z " fill="#000000" transform="translate(741,490)"/>
<path d="M0,0 L5,1 L9,8 L11,14 L17,30 L24,60 L28,79 L31,100 L32,109 L35,125 L37,129 L41,129 L43,122 L44,104 L46,87 L52,81 L58,82 L63,87 L66,93 L68,105 L71,117 L73,130 L79,130 L82,110 L84,89 L85,63 L85,45 L87,42 L91,44 L95,55 L98,62 L104,77 L107,85 L112,90 L116,102 L119,120 L121,130 L128,130 L133,117 L138,106 L141,96 L146,85 L152,69 L153,67 L156,67 L157,74 L154,102 L156,143 L158,157 L160,167 L160,186 L161,197 L166,198 L173,189 L177,179 L181,171 L185,161 L187,154 L190,150 L193,143 L195,134 L200,120 L203,110 L208,84 L210,66 L211,60 L212,43 L216,42 L224,68 L228,82 L233,106 L238,123 L245,135 L248,147 L250,170 L252,177 L257,177 L263,165 L266,158 L272,148 L276,142 L283,132 L288,124 L293,123 L297,128 L299,138 L299,183 L300,185 L304,184 L310,174 L318,158 L325,145 L330,146 L333,154 L336,186 L338,191 L341,192 L344,190 L349,177 L352,169 L355,156 L356,147 L356,109 L359,106 L363,110 L368,122 L378,146 L381,155 L385,175 L389,174 L392,166 L396,152 L400,125 L400,88 L404,87 L406,89 L409,96 L416,107 L420,115 L422,134 L425,142 L430,140 L439,125 L446,117 L454,110 L465,98 L469,97 L470,101 L463,117 L461,125 L456,142 L454,152 L453,166 L452,174 L454,195 L458,195 L463,182 L466,167 L474,154 L483,141 L491,133 L496,134 L500,140 L503,150 L506,177 L510,185 L515,185 L518,184 L520,178 L528,162 L536,138 L539,126 L541,103 L546,102 L552,121 L556,137 L559,146 L561,164 L572,163 L576,172 L577,176 L576,192 L573,218 L570,236 L566,242 L552,242 L536,241 L524,242 L510,242 L488,243 L468,244 L455,243 L401,243 L397,242 L380,242 L364,243 L319,243 L316,244 L308,244 L303,243 L248,243 L238,244 L189,243 L150,244 L49,244 L36,241 L28,242 L24,244 L-52,245 L-79,245 L-141,244 L-147,240 L-149,230 L-149,213 L-151,196 L-152,173 L-152,157 L-153,151 L-154,135 L-161,103 L-162,101 L-162,87 L-157,86 L-145,95 L-138,101 L-133,105 L-127,113 L-121,121 L-115,130 L-106,140 L-102,140 L-99,130 L-98,125 L-98,110 L-100,85 L-104,62 L-108,51 L-111,46 L-110,41 L-105,43 L-96,57 L-88,73 L-84,80 L-80,90 L-69,111 L-62,128 L-59,132 L-54,131 L-52,121 L-52,105 L-53,91 L-55,73 L-55,60 L-51,59 L-44,65 L-39,75 L-34,89 L-29,109 L-27,114 L-25,123 L-19,137 L-18,141 L-12,141 L-10,130 L-6,114 L-2,81 L-1,67 L-1,40 L-2,30 L-2,3 Z " fill="#000000" transform="translate(327,875)"/>
<path d="M0,0 L4,0 L4,2 L0,2 Z " fill="#000000" transform="translate(289,1227)"/>
<path d="M0,0 L246,0 L246,7 L203,8 L51,8 L51,15 L48,16 L46,15 L47,8 L-132,9 L-332,9 L-385,10 L-810,10 L-810,3 L-757,3 L-752,2 L-489,2 L-284,1 L-189,1 Z " fill="#000000" transform="translate(810,1242)"/>
</svg>
