<?xml version="1.0" encoding="UTF-8"?>
<!-- Generator: visioncortex VTracer 0.6.12 -->
<svg version="1.1" xmlns="http://www.w3.org/2000/svg" width="1119" height="1125">
<path d="M0,0 L1119,0 L1119,1125 L0,1125 Z M674,205 L658,209 L648,215 L637,224 L630,234 L626,242 L623,253 L622,265 L624,279 L629,291 L639,305 L643,308 L645,308 L646,311 L663,319 L672,321 L689,321 L703,317 L715,310 L725,300 L732,289 L736,278 L738,265 L738,256 L734,241 L727,229 L718,219 L708,212 L696,207 L688,205 Z M667,351 L651,359 L624,375 L611,382 L600,389 L590,394 L568,407 L560,411 L540,423 L526,431 L503,444 L486,454 L465,466 L444,478 L442,481 L443,488 L451,501 L455,509 L461,519 L472,538 L480,551 L483,553 L489,552 L497,547 L517,536 L536,525 L559,512 L585,497 L600,488 L608,484 L614,480 L623,475 L627,472 L632,471 L632,595 L631,597 L598,597 L479,596 L474,600 L461,622 L449,642 L438,661 L431,675 L426,678 L426,684 L414,703 L400,728 L391,742 L383,755 L376,767 L369,778 L363,789 L349,812 L345,817 L310,817 L305,812 L297,805 L292,799 L293,790 L301,777 L310,761 L320,745 L328,731 L339,712 L352,690 L364,670 L375,651 L388,629 L395,617 L401,607 L405,599 L412,588 L419,576 L431,557 L439,541 L440,539 L440,532 L427,523 L414,516 L409,515 L405,519 L396,534 L383,556 L379,561 L365,586 L357,599 L349,613 L345,619 L339,630 L325,654 L317,668 L304,690 L294,706 L288,717 L282,727 L274,741 L266,754 L261,763 L261,765 L256,765 L232,741 L230,741 L228,737 L224,734 L219,735 L209,746 L204,751 L188,766 L168,786 L168,792 L176,802 L185,810 L192,818 L260,886 L265,890 L272,898 L277,902 L285,903 L473,903 L595,904 L636,904 L638,905 L641,927 L647,947 L655,963 L665,977 L673,986 L686,996 L702,1005 L710,1009 L726,1014 L738,1016 L762,1016 L778,1013 L795,1007 L812,998 L825,988 L839,974 L849,958 L855,946 L861,925 L863,909 L865,905 L954,904 L956,902 L957,883 L958,854 L958,751 L957,683 L954,679 L922,678 L888,678 L886,677 L887,671 L895,657 L900,650 L906,638 L910,631 L917,620 L923,609 L932,594 L939,581 L942,577 L948,566 L962,542 L971,527 L974,521 L974,515 L967,509 L966,506 L971,496 L983,475 L988,466 L993,466 L1006,474 L1019,482 L1022,484 L1027,483 L1043,456 L1045,452 L1044,448 L1040,444 L1029,438 L1014,429 L999,420 L980,409 L979,408 L974,408 L966,419 L957,435 L943,459 L938,467 L934,475 L929,483 L929,485 L923,485 L913,478 L902,473 L897,474 L890,484 L880,502 L873,514 L867,524 L862,533 L848,557 L836,578 L826,595 L815,614 L805,631 L794,650 L786,664 L778,677 L772,678 L723,677 L722,674 L722,404 L720,388 L715,373 L711,367 L703,359 L695,354 L684,351 Z M174,858 L164,860 L151,865 L141,871 L131,879 L121,890 L113,907 L108,923 L107,928 L107,949 L110,962 L118,978 L126,988 L132,995 L145,1005 L161,1012 L167,1014 L184,1016 L193,1016 L205,1014 L219,1009 L236,1000 L250,985 L258,972 L264,956 L266,948 L267,930 L264,913 L257,897 L245,881 L235,872 L224,866 L218,863 L209,860 L197,858 Z " fill="#000000" transform="translate(0,0)"/>
<path d="M0,0 L92,1 L94,2 L95,5 L95,140 L92,143 L-31,143 L-85,142 L-86,137 L-73,115 L-61,95 L-49,75 L-33,47 L-18,21 L-6,2 Z " fill="#000000" transform="translate(538,676)"/>
</svg>
