<?xml version="1.0" encoding="UTF-8"?>
<!-- Generator: visioncortex VTracer 0.6.12 -->
<svg version="1.1" xmlns="http://www.w3.org/2000/svg" width="1314" height="1266">
<path d="M0,0 L24,0 L64,1 L205,1 L214,2 L236,1 L256,1 L326,2 L465,2 L473,3 L489,1 L512,2 L574,2 L585,1 L622,2 L634,1 L641,2 L1153,2 L1158,5 L1160,18 L1159,47 L1159,97 L1160,115 L1159,163 L1160,169 L1159,205 L1159,251 L1160,287 L1161,294 L1160,298 L1159,312 L1159,358 L1160,470 L1160,854 L1161,883 L1161,992 L1160,1015 L1162,1041 L1162,1114 L1161,1147 L1156,1152 L1149,1153 L1110,1152 L1100,1152 L1091,1151 L1087,1152 L945,1152 L829,1151 L774,1151 L726,1150 L718,1149 L709,1150 L662,1150 L642,1149 L564,1149 L557,1148 L545,1148 L536,1149 L514,1148 L361,1148 L323,1147 L296,1147 L289,1146 L211,1146 L203,1145 L187,1146 L168,1146 L161,1145 L146,1146 L108,1145 L0,1143 L-5,1139 L-6,1129 L-6,6 L-2,1 Z M959,234 L954,236 L950,242 L939,276 L937,285 L930,308 L925,326 L921,341 L914,367 L909,380 L905,398 L903,402 L900,414 L897,423 L895,431 L888,455 L886,463 L879,487 L874,504 L867,526 L865,537 L859,555 L856,566 L851,587 L846,601 L844,610 L841,618 L838,629 L834,633 L832,634 L811,635 L763,634 L747,634 L696,633 L693,630 L692,619 L691,591 L689,579 L686,568 L682,556 L675,543 L667,532 L663,527 L658,522 L646,511 L634,503 L624,497 L614,493 L603,491 L597,490 L598,485 L614,479 L622,474 L633,466 L639,461 L646,451 L651,443 L657,431 L660,420 L661,411 L661,393 L660,382 L658,377 L656,369 L647,354 L637,340 L624,329 L605,320 L592,317 L584,316 L569,316 L554,319 L544,323 L530,331 L520,339 L513,347 L505,358 L498,371 L494,385 L493,396 L493,409 L496,425 L500,437 L505,446 L512,456 L519,463 L524,468 L534,475 L545,481 L551,483 L554,485 L554,490 L550,492 L541,494 L532,497 L509,510 L502,516 L497,521 L485,534 L476,548 L467,569 L464,580 L462,593 L461,627 L456,632 L428,632 L403,631 L400,630 L399,589 L397,580 L394,578 L389,579 L377,581 L370,584 L360,587 L355,589 L343,592 L323,597 L312,602 L301,604 L287,609 L262,616 L251,620 L242,622 L234,625 L209,633 L201,635 L183,642 L175,645 L162,653 L148,665 L143,670 L130,687 L123,701 L120,708 L117,720 L115,732 L115,751 L117,770 L121,784 L133,807 L144,821 L151,828 L156,832 L163,837 L168,836 L174,825 L178,812 L183,804 L187,796 L194,787 L205,775 L211,770 L218,764 L234,756 L247,750 L261,746 L277,744 L301,745 L310,746 L330,752 L349,762 L363,772 L370,779 L375,783 L383,794 L388,801 L397,820 L400,830 L404,855 L409,859 L417,860 L562,861 L627,861 L633,858 L635,852 L638,835 L642,824 L643,815 L651,801 L660,789 L672,776 L687,765 L708,755 L721,751 L732,749 L745,748 L758,748 L772,749 L793,755 L809,762 L824,773 L832,779 L842,789 L849,798 L852,802 L860,819 L865,834 L868,841 L870,843 L875,843 L886,835 L895,825 L906,812 L914,797 L918,788 L922,772 L924,755 L924,736 L921,721 L916,706 L905,687 L895,674 L890,669 L883,662 L875,656 L867,649 L866,646 L866,638 L872,618 L875,605 L881,586 L885,573 L889,555 L894,539 L901,513 L904,503 L910,479 L916,461 L920,446 L924,434 L927,422 L929,412 L936,390 L938,381 L943,363 L952,332 L956,317 L959,306 L965,286 L970,271 L974,265 L983,263 L1062,263 L1066,259 L1068,251 L1067,241 L1063,236 L1061,235 L1001,234 Z M286,772 L282,773 L268,774 L255,778 L238,787 L228,796 L219,804 L211,817 L204,834 L202,845 L202,871 L205,884 L211,899 L219,910 L231,923 L244,932 L256,938 L265,941 L279,943 L301,943 L313,939 L324,935 L335,929 L350,915 L357,907 L363,897 L369,881 L372,868 L372,845 L367,829 L363,819 L355,808 L347,798 L341,793 L333,788 L328,784 L319,780 L304,775 L294,773 Z M747,776 L730,779 L721,782 L712,786 L698,794 L681,811 L672,828 L669,836 L666,850 L666,874 L673,897 L682,912 L691,922 L696,927 L698,927 L698,929 L712,938 L727,944 L735,946 L746,947 L759,947 L770,946 L786,940 L800,933 L809,926 L820,914 L829,898 L833,888 L836,872 L836,857 L833,837 L824,818 L816,807 L809,800 L805,796 L792,787 L776,781 L771,779 L758,777 Z M621,1113 L619,1117 L620,1119 L625,1119 L626,1115 L624,1113 Z " fill="#000000" transform="translate(81,80)"/>
<path d="M0,0 L2,1 L3,7 L3,77 L2,83 L2,109 L0,110 Z " fill="#000000" transform="translate(0,85)"/>
<path d="M0,0 L2,1 L3,30 L2,37 L2,49 L3,57 L3,136 L2,177 L0,178 Z " fill="#000000" transform="translate(0,205)"/>
<path d="M0,0 L1,0 L1,5 L0,5 Z " fill="#000000" transform="translate(0,415)"/>
<path d="M0,0 L2,2 L2,11 L0,13 Z " fill="#000000" transform="translate(0,462)"/>
<path d="M0,0 L4,1 L4,14 L2,17 L-2,16 L-2,5 Z " fill="#000000" transform="translate(1283,590)"/>
<path d="M0,0 L1,0 L1,6 L-1,5 Z " fill="#000000" transform="translate(52,772)"/>
</svg>
