<?xml version="1.0" encoding="UTF-8"?>
<!-- Generator: visioncortex VTracer 0.6.12 -->
<svg version="1.1" xmlns="http://www.w3.org/2000/svg" width="1425" height="846">
<path d="M0,0 L4,1 L5,7 L3,14 L13,15 L48,16 L69,14 L87,14 L97,16 L100,23 L101,29 L103,58 L103,72 L102,84 L99,89 L95,90 L91,89 L74,91 L19,92 L9,94 L6,98 L6,130 L7,135 L6,156 L7,192 L9,198 L40,199 L47,198 L153,198 L170,197 L181,197 L189,196 L208,197 L213,196 L242,196 L247,197 L251,196 L277,194 L279,193 L298,194 L352,194 L359,193 L381,193 L390,192 L413,192 L423,191 L426,189 L432,189 L437,195 L437,224 L436,228 L437,250 L434,258 L430,261 L419,261 L402,262 L368,263 L346,263 L306,265 L262,264 L226,265 L176,265 L171,264 L167,266 L154,265 L85,265 L81,266 L62,265 L44,265 L-5,266 L-24,266 L-61,267 L-90,267 L-92,268 L-156,268 L-162,269 L-175,268 L-221,268 L-227,269 L-270,269 L-274,270 L-282,269 L-334,269 L-339,270 L-410,270 L-417,271 L-420,269 L-428,268 L-431,263 L-433,219 L-433,208 L-429,204 L-422,203 L-416,204 L-342,204 L-328,203 L-326,204 L-304,204 L-302,203 L-259,203 L-216,202 L-182,202 L-156,201 L-141,201 L-138,202 L-115,201 L-87,199 L-64,200 L-57,199 L-39,199 L-12,198 L-9,191 L-9,161 L-11,91 L-13,87 L-13,80 L-12,77 L-12,59 L-13,22 L-9,14 L-8,5 L-3,1 Z " fill="#000000" transform="translate(688,29)"/>
<path d="M0,0 L33,0 L45,5 L46,7 L46,21 L49,82 L49,97 L51,118 L52,122 L58,124 L72,123 L77,122 L86,122 L93,125 L96,132 L97,162 L97,171 L98,178 L99,225 L100,238 L101,265 L102,273 L104,310 L106,336 L108,340 L107,343 L107,370 L108,383 L109,412 L110,420 L112,472 L113,479 L113,488 L110,495 L109,496 L104,496 L100,491 L99,489 L98,442 L97,432 L95,389 L92,345 L92,331 L90,298 L89,271 L88,264 L86,222 L85,193 L84,188 L84,174 L83,163 L83,146 L79,137 L74,136 L54,137 L44,137 L41,132 L39,126 L36,102 L34,56 L33,44 L33,35 L31,18 L29,15 L9,15 L-56,18 L-65,18 L-73,21 L-75,27 L-75,47 L-73,80 L-72,85 L-72,98 L-74,108 L-76,110 L-137,113 L-144,111 L-149,112 L-154,117 L-155,119 L-155,145 L-152,166 L-153,231 L-152,244 L-151,286 L-151,313 L-150,318 L-149,390 L-149,422 L-148,447 L-147,463 L-146,482 L-140,487 L-127,487 L-124,486 L-116,486 L-108,488 L-105,490 L-67,489 L-57,488 L-37,487 L-32,486 L-29,487 L-20,487 L-15,486 L-9,487 L-4,486 L16,486 L54,484 L80,484 L92,485 L96,489 L95,492 L84,495 L77,498 L59,499 L56,500 L35,500 L9,501 L-2,501 L-25,502 L-49,502 L-66,504 L-105,504 L-107,505 L-130,505 L-148,507 L-151,509 L-157,508 L-163,507 L-191,508 L-195,507 L-200,508 L-249,510 L-257,509 L-264,510 L-281,511 L-303,511 L-306,512 L-328,512 L-338,513 L-372,513 L-388,514 L-438,514 L-465,515 L-472,513 L-519,513 L-523,508 L-525,481 L-525,455 L-527,408 L-528,389 L-528,368 L-529,344 L-529,330 L-530,322 L-531,305 L-532,291 L-534,285 L-551,284 L-582,285 L-605,285 L-610,287 L-611,292 L-611,314 L-610,341 L-609,352 L-608,386 L-606,409 L-606,421 L-604,477 L-603,492 L-603,511 L-605,515 L-618,517 L-631,516 L-636,519 L-645,519 L-652,525 L-659,525 L-667,521 L-678,519 L-691,520 L-742,520 L-748,521 L-807,521 L-823,522 L-828,523 L-832,522 L-848,523 L-871,523 L-878,524 L-887,523 L-894,524 L-982,524 L-1007,525 L-1023,524 L-1068,524 L-1098,525 L-1142,525 L-1146,526 L-1196,526 L-1220,528 L-1237,528 L-1244,524 L-1245,523 L-1245,516 L-1243,512 L-1243,479 L-1244,466 L-1244,450 L-1245,444 L-1246,413 L-1247,402 L-1248,393 L-1249,353 L-1251,324 L-1252,275 L-1254,254 L-1254,226 L-1244,219 L-1242,220 L-1241,223 L-1237,225 L-1228,224 L-1223,225 L-1204,225 L-1156,224 L-1155,223 L-1141,223 L-1138,220 L-1137,215 L-1138,165 L-1139,138 L-1139,127 L-1140,120 L-1140,109 L-1136,99 L-1135,95 L-1134,79 L-1130,76 L-1125,77 L-1123,78 L-1091,78 L-1084,77 L-1052,76 L-1034,76 L-1026,73 L-1024,71 L-1023,24 L-1021,22 L-1009,20 L-995,19 L-985,17 L-972,18 L-970,17 L-953,17 L-938,16 L-902,15 L-878,14 L-844,14 L-842,15 L-818,14 L-781,14 L-772,13 L-766,14 L-746,14 L-740,13 L-724,15 L-710,15 L-704,13 L-571,13 L-535,12 L-533,13 L-526,13 L-522,11 L-516,12 L-511,13 L-504,11 L-502,12 L-484,13 L-477,12 L-470,13 L-467,12 L-433,12 L-425,11 L-421,12 L-389,12 L-384,11 L-278,11 L-273,9 L-216,9 L-193,8 L-160,10 L-157,15 L-156,17 L-155,75 L-153,82 L-151,92 L-148,98 L-147,99 L-139,100 L-121,100 L-116,99 L-102,99 L-93,98 L-88,97 L-86,93 L-86,79 L-87,69 L-89,30 L-91,22 L-91,9 L-87,5 L-85,4 L-66,4 L-59,3 L-6,2 Z M-294,79 L-311,80 L-316,84 L-317,104 L-317,128 L-316,144 L-318,160 L-317,161 L-314,184 L-309,190 L-303,191 L-294,190 L-288,191 L-262,190 L-256,190 L-248,187 L-244,182 L-243,180 L-243,163 L-247,89 L-250,81 L-251,80 Z M-411,80 L-420,81 L-435,81 L-450,82 L-453,86 L-453,106 L-452,115 L-453,122 L-451,152 L-450,181 L-446,191 L-431,193 L-419,193 L-411,192 L-409,193 L-400,192 L-389,192 L-382,189 L-379,183 L-379,136 L-380,134 L-382,93 L-383,85 L-387,81 L-402,81 Z M-572,81 L-581,82 L-599,82 L-604,83 L-613,82 L-618,85 L-620,90 L-618,161 L-615,190 L-612,193 L-603,195 L-596,195 L-591,193 L-584,193 L-577,195 L-541,194 L-536,189 L-535,180 L-535,149 L-538,95 L-541,83 L-544,82 L-564,82 Z M-735,83 L-757,84 L-764,86 L-765,87 L-765,111 L-763,144 L-762,181 L-761,190 L-757,196 L-752,197 L-747,196 L-744,197 L-705,196 L-698,197 L-693,193 L-692,191 L-692,167 L-694,126 L-697,88 L-702,83 Z M-885,86 L-917,88 L-921,90 L-923,96 L-923,108 L-922,134 L-921,172 L-920,183 L-919,193 L-916,197 L-882,198 L-851,197 L-842,197 L-838,194 L-838,169 L-841,119 L-843,96 L-845,88 L-848,86 Z M-1046,88 L-1081,89 L-1090,90 L-1101,90 L-1107,91 L-1119,92 L-1123,93 L-1127,97 L-1127,124 L-1125,166 L-1124,196 L-1123,205 L-1123,229 L-1125,234 L-1137,234 L-1143,236 L-1166,236 L-1169,237 L-1194,237 L-1198,238 L-1214,238 L-1235,239 L-1240,242 L-1241,243 L-1241,278 L-1240,283 L-1238,337 L-1237,351 L-1236,386 L-1235,410 L-1234,413 L-1232,461 L-1231,467 L-1230,489 L-1227,506 L-1223,511 L-1220,512 L-1187,512 L-1181,511 L-1176,512 L-1171,511 L-1168,513 L-1151,513 L-1131,512 L-1123,512 L-1114,511 L-1106,512 L-1103,510 L-1097,511 L-1017,511 L-1012,508 L-1011,505 L-1011,463 L-1013,455 L-1013,425 L-1015,420 L-1013,401 L-1014,345 L-1015,341 L-1015,318 L-1016,311 L-1016,290 L-1017,260 L-1017,219 L-1019,187 L-1020,139 L-1020,111 L-1021,108 L-1022,91 L-1025,88 Z M-359,129 L-359,131 L-357,131 L-357,129 Z M-331,255 Z M-253,276 L-256,277 L-297,277 L-308,280 L-310,282 L-311,291 L-311,305 L-308,348 L-307,355 L-306,385 L-304,389 L-302,397 L-300,399 L-280,398 L-260,397 L-240,396 L-236,394 L-234,390 L-234,368 L-235,359 L-237,289 L-239,280 L-242,277 Z M-406,280 L-440,281 L-444,286 L-444,317 L-442,338 L-440,379 L-438,397 L-433,401 L-418,402 L-402,401 L-378,401 L-372,397 L-371,395 L-371,364 L-372,354 L-372,335 L-373,330 L-375,288 L-379,282 L-382,280 Z M-702,286 L-723,287 L-748,287 L-756,291 L-757,295 L-757,315 L-756,338 L-756,350 L-752,407 L-748,411 L-741,410 L-733,410 L-730,411 L-685,410 L-682,407 L-681,396 L-682,375 L-683,366 L-685,315 L-686,305 L-687,294 L-690,288 L-691,287 Z M-886,290 L-911,292 L-916,295 L-917,300 L-917,341 L-916,359 L-915,398 L-912,409 L-907,412 L-897,411 L-844,411 L-838,410 L-833,410 L-830,405 L-829,401 L-829,372 L-831,347 L-831,329 L-832,309 L-834,291 L-836,290 Z M-323,303 L-322,305 Z " fill="#000000" transform="translate(1281,292)"/>
<path d="M0,0 L4,0 L4,2 L1,3 L-1,1 Z " fill="#000000" transform="translate(871,684)"/>
</svg>
