<?xml version="1.0" encoding="UTF-8"?>
<!-- Generator: visioncortex VTracer 0.6.12 -->
<svg version="1.1" xmlns="http://www.w3.org/2000/svg" width="1056" height="1194">
<path d="M0,0 L411,0 L520,1 L724,1 L798,2 L947,2 L1016,3 L1016,153 L941,152 L921,152 L882,153 L879,162 L874,183 L868,209 L862,234 L856,260 L847,299 L844,311 L841,319 L839,320 L482,320 L407,319 L106,319 L105,324 L109,341 L116,364 L118,373 L125,397 L131,415 L134,426 L140,446 L151,482 L154,493 L157,504 L164,528 L169,544 L175,565 L182,588 L190,618 L194,632 L198,644 L201,657 L206,673 L211,690 L218,713 L225,738 L231,760 L237,781 L242,785 L427,785 L502,786 L702,786 L774,785 L777,773 L787,732 L795,696 L801,670 L806,649 L812,622 L816,608 L818,597 L822,580 L829,550 L835,526 L840,503 L850,461 L857,430 L863,403 L868,384 L873,362 L875,352 L879,335 L883,320 L892,282 L897,260 L903,236 L906,221 L912,199 L915,195 L920,194 L1000,195 L1014,195 L1016,196 L1016,1125 L945,1125 L745,1124 L489,1124 L382,1123 L298,1123 L80,1122 L-1,1121 L-4,1116 L-4,68 L-3,3 Z M676,101 L673,103 L673,108 L675,110 L680,109 L682,107 L681,102 Z M320,828 L308,830 L296,834 L287,838 L276,844 L267,851 L256,866 L250,876 L244,891 L240,910 L240,921 L242,936 L246,949 L256,968 L261,973 L271,984 L281,991 L300,999 L309,1001 L320,1003 L336,1003 L353,1000 L363,997 L375,991 L388,981 L396,972 L404,961 L408,953 L412,942 L414,931 L415,928 L416,910 L414,894 L408,878 L401,867 L394,857 L385,848 L371,839 L359,833 L350,830 L339,828 Z M682,829 L665,832 L645,840 L634,848 L626,855 L617,867 L608,883 L604,895 L602,913 L602,924 L606,943 L611,955 L621,970 L628,978 L639,987 L646,991 L654,996 L671,1002 L686,1005 L702,1004 L722,999 L738,991 L748,984 L757,974 L765,963 L774,944 L777,932 L778,925 L778,915 L777,901 L771,880 L766,871 L759,862 L754,858 L747,850 L733,840 L719,833 L699,829 Z " fill="#000000" transform="translate(40,36)"/>
<path d="M0,0 L52,0 L54,2 L56,53 L57,99 L54,105 L52,107 L3,107 L-66,106 L-69,102 L-72,91 L-76,58 L-78,40 L-81,15 L-81,3 L-80,2 L-55,1 L-38,1 Z " fill="#000000" transform="translate(465,395)"/>
<path d="M0,0 L101,0 L123,1 L125,4 L123,20 L118,38 L115,52 L109,77 L103,103 L99,108 L95,109 L38,108 L-12,108 L-16,104 L-14,79 L-10,46 L-6,13 L-4,3 Z " fill="#000000" transform="translate(742,397)"/>
<path d="M0,0 L133,0 L140,1 L142,5 L144,17 L147,45 L150,68 L153,93 L153,99 L151,102 L43,102 L27,101 L24,99 L20,88 L13,62 L7,38 L2,17 L-1,5 Z " fill="#000000" transform="translate(204,398)"/>
<path d="M0,0 L129,0 L130,1 L130,12 L128,29 L127,44 L124,64 L120,98 L118,105 L117,106 L28,106 L2,105 L-3,102 L-4,100 L-4,72 L-3,3 Z " fill="#000000" transform="translate(566,398)"/>
<path d="M0,0 L61,1 L100,1 L104,4 L108,28 L111,52 L114,75 L117,111 L116,114 L111,115 L41,114 L14,114 L9,109 L-1,76 L-6,58 L-12,36 L-16,19 L-18,13 L-19,5 L-17,1 Z " fill="#000000" transform="translate(258,530)"/>
<path d="M0,0 L87,1 L115,2 L117,6 L118,73 L118,90 L117,112 L115,114 L16,114 L11,112 L7,96 L0,43 L-2,31 L-4,9 L-4,3 Z " fill="#000000" transform="translate(404,532)"/>
<path d="M0,0 L14,0 L19,1 L110,2 L113,4 L114,7 L113,27 L110,46 L107,63 L104,85 L100,110 L97,113 L1,112 L-3,109 L-4,105 L-5,71 L-5,16 L-4,3 Z " fill="#000000" transform="translate(566,534)"/>
<path d="M0,0 L90,0 L109,1 L110,6 L108,19 L105,32 L99,48 L95,66 L92,83 L86,106 L83,109 L81,110 L46,111 L25,111 L-14,110 L-17,107 L-16,99 L-14,85 L-11,56 L-9,45 L-8,26 L-5,6 L-2,1 Z " fill="#000000" transform="translate(725,536)"/>
<path d="M0,0 L94,0 L98,4 L103,42 L109,84 L111,101 L111,110 L109,113 L105,114 L35,114 L27,112 L23,106 L16,79 L12,67 L8,50 L5,40 L-3,8 L-2,1 Z " fill="#000000" transform="translate(282,675)"/>
<path d="M0,0 L97,0 L100,2 L101,10 L103,86 L103,105 L100,111 L13,111 L10,108 L7,86 L2,46 L-2,8 L-2,2 Z " fill="#000000" transform="translate(421,677)"/>
<path d="M0,0 L49,0 L91,1 L93,3 L92,20 L88,57 L86,79 L84,92 L83,104 L80,110 L76,112 L-3,112 L-6,109 L-7,106 L-7,47 L-6,8 L-4,1 Z " fill="#000000" transform="translate(568,677)"/>
<path d="M0,0 L64,0 L86,1 L88,6 L83,31 L77,56 L72,80 L70,91 L65,107 L61,111 L-4,111 L-16,110 L-19,108 L-20,102 L-15,72 L-11,37 L-9,25 L-7,8 L-5,2 Z " fill="#000000" transform="translate(710,678)"/>
</svg>
