<?xml version="1.0" encoding="UTF-8"?>
<!-- Generator: visioncortex VTracer 0.6.12 -->
<svg version="1.1" xmlns="http://www.w3.org/2000/svg" width="1197" height="1206">
<path d="M0,0 L6,1 L27,1 L30,2 L45,2 L57,1 L77,2 L104,2 L107,3 L141,3 L156,4 L226,4 L234,5 L237,4 L261,4 L266,5 L272,5 L277,6 L279,5 L310,6 L316,7 L317,6 L339,6 L346,5 L362,6 L371,7 L400,6 L415,7 L425,6 L451,7 L454,8 L484,8 L490,9 L501,9 L507,8 L511,9 L525,9 L548,10 L561,10 L570,11 L624,11 L626,12 L634,12 L637,11 L645,11 L650,12 L676,14 L683,16 L690,16 L708,21 L721,25 L729,28 L739,31 L748,35 L759,42 L768,47 L782,55 L787,60 L796,68 L800,72 L806,75 L811,80 L819,88 L827,98 L835,109 L842,119 L851,132 L855,141 L858,148 L862,155 L868,172 L872,180 L877,203 L880,217 L881,231 L881,285 L879,289 L879,297 L881,307 L881,384 L880,405 L880,439 L879,464 L879,488 L878,504 L876,509 L877,513 L878,515 L878,594 L877,632 L876,671 L876,719 L874,787 L873,801 L875,808 L874,871 L873,894 L872,934 L869,947 L867,959 L864,968 L862,978 L853,999 L846,1016 L839,1027 L829,1043 L823,1051 L819,1053 L812,1061 L807,1066 L804,1067 L802,1071 L793,1080 L784,1087 L775,1094 L765,1101 L750,1110 L736,1116 L732,1119 L721,1123 L714,1126 L696,1131 L672,1135 L655,1136 L652,1137 L638,1137 L635,1138 L615,1138 L611,1137 L592,1137 L586,1136 L578,1137 L576,1136 L567,1136 L565,1137 L554,1137 L547,1136 L475,1135 L448,1135 L425,1134 L418,1132 L414,1134 L376,1134 L370,1133 L326,1133 L309,1132 L306,1130 L302,1132 L294,1132 L289,1131 L269,1132 L259,1132 L249,1131 L220,1131 L208,1129 L203,1131 L189,1131 L186,1130 L137,1130 L115,1129 L85,1129 L78,1128 L65,1128 L58,1129 L48,1127 L39,1127 L34,1126 L32,1127 L-8,1127 L-36,1125 L-38,1124 L-47,1124 L-57,1121 L-69,1119 L-89,1112 L-95,1110 L-122,1098 L-132,1091 L-141,1084 L-150,1079 L-157,1073 L-162,1068 L-171,1060 L-178,1054 L-183,1049 L-193,1038 L-203,1024 L-208,1016 L-216,1003 L-223,991 L-229,977 L-235,959 L-239,946 L-241,941 L-244,923 L-246,898 L-247,882 L-246,872 L-245,815 L-244,699 L-244,666 L-243,657 L-243,591 L-242,565 L-243,559 L-242,555 L-242,536 L-241,521 L-241,442 L-240,439 L-241,436 L-241,375 L-240,365 L-240,349 L-241,326 L-241,314 L-240,288 L-240,248 L-239,222 L-238,206 L-237,203 L-236,190 L-233,185 L-231,175 L-229,165 L-224,155 L-219,142 L-211,126 L-204,113 L-192,95 L-183,84 L-176,76 L-168,67 L-155,58 L-151,53 L-144,50 L-138,43 L-124,35 L-116,31 L-111,27 L-102,24 L-93,20 L-86,16 L-76,13 L-62,11 L-57,7 L-51,6 L-44,5 L-35,3 L-15,1 L-5,1 Z M218,225 L213,230 L211,238 L211,248 L210,260 L206,270 L201,275 L190,284 L180,292 L174,295 L168,300 L165,304 L160,307 L151,314 L145,318 L141,319 L139,324 L134,326 L132,327 L132,329 L128,331 L116,340 L108,346 L100,353 L98,360 L97,375 L97,397 L96,411 L95,478 L95,512 L94,608 L94,632 L93,639 L93,676 L91,793 L91,813 L93,838 L96,843 L98,844 L116,845 L135,845 L142,846 L148,845 L151,846 L195,846 L209,845 L219,846 L283,846 L299,847 L301,846 L335,845 L340,840 L342,834 L342,760 L343,751 L343,710 L344,704 L343,657 L344,636 L345,528 L345,478 L346,457 L345,423 L345,403 L346,398 L345,363 L342,354 L331,345 L321,338 L316,333 L308,327 L300,320 L296,315 L290,312 L275,300 L270,295 L263,289 L254,283 L249,278 L243,274 L239,268 L237,255 L236,236 L235,229 L232,226 Z M798,445 L797,447 L798,449 L802,448 L801,445 Z M551,477 L539,479 L522,480 L513,481 L505,482 L491,484 L485,485 L480,484 L474,488 L463,490 L461,491 L449,493 L434,498 L429,501 L419,503 L415,506 L403,511 L394,517 L385,521 L381,527 L372,536 L367,545 L362,555 L362,574 L365,589 L371,601 L378,614 L386,629 L389,638 L391,664 L389,674 L388,690 L386,700 L385,718 L383,728 L383,736 L382,738 L382,758 L379,779 L379,794 L377,801 L377,819 L378,830 L381,836 L388,843 L395,846 L408,849 L419,848 L427,849 L474,850 L483,850 L488,849 L502,850 L509,847 L510,842 L504,837 L495,831 L486,822 L481,817 L471,806 L465,798 L457,782 L453,771 L451,762 L448,754 L447,750 L447,732 L446,728 L446,714 L451,695 L456,686 L464,673 L475,662 L481,659 L493,652 L509,648 L529,648 L545,651 L552,650 L554,648 L554,641 L548,629 L541,620 L537,613 L522,604 L522,598 L525,592 L531,584 L538,585 L544,589 L554,596 L562,603 L570,613 L578,628 L580,631 L583,640 L586,646 L588,652 L593,656 L608,655 L614,653 L636,653 L647,655 L654,656 L666,662 L678,669 L685,677 L690,682 L697,694 L700,701 L702,711 L703,712 L704,724 L703,737 L702,745 L698,762 L694,776 L690,785 L680,801 L674,809 L668,814 L662,822 L654,830 L643,838 L635,842 L634,848 L636,850 L645,851 L651,852 L718,852 L727,850 L732,846 L740,842 L743,831 L745,821 L744,814 L742,776 L740,750 L739,715 L738,708 L737,684 L737,662 L736,649 L738,639 L743,623 L749,615 L755,605 L763,588 L766,575 L766,566 L760,550 L753,539 L740,526 L729,519 L714,510 L703,505 L696,503 L685,498 L674,495 L669,493 L659,491 L648,487 L638,486 L628,484 L607,481 L596,480 L594,479 L574,479 L566,478 L556,478 Z M-9,714 L-22,715 L-26,717 L-43,720 L-48,719 L-53,723 L-70,731 L-82,739 L-87,742 L-90,745 L-97,753 L-100,757 L-103,763 L-104,772 L-105,774 L-105,782 L-103,791 L-99,799 L-91,809 L-83,816 L-72,823 L-67,827 L-55,831 L-42,838 L-18,842 L-6,842 L7,841 L20,838 L21,837 L28,836 L37,829 L49,821 L56,813 L62,804 L68,788 L68,774 L67,765 L66,760 L60,753 L57,747 L47,736 L42,734 L40,730 L24,722 L9,717 L-2,716 Z M360,923 L359,928 L364,927 L363,923 Z " fill="#000000" transform="translate(283,35)"/>
</svg>
