<?xml version="1.0" encoding="UTF-8"?>
<!-- Generator: visioncortex VTracer 0.6.12 -->
<svg version="1.1" xmlns="http://www.w3.org/2000/svg" width="1017" height="1020">
<path d="M0,0 L581,0 L580,2 L577,3 L559,3 L518,4 L482,4 L402,5 L354,5 L344,6 L228,7 L196,7 L159,8 L85,9 L31,9 L13,11 L-3,15 L-19,21 L-35,29 L-43,34 L-51,40 L-62,50 L-71,61 L-77,70 L-83,79 L-90,94 L-97,122 L-98,132 L-100,133 L-100,83 L-90,65 L-80,52 L-71,42 L-55,27 L-49,23 L-39,16 L-21,8 L-6,2 Z " fill="#000000" transform="translate(100,0)"/>
<path d="M0,0 L28,0 L27,2 L20,2 L15,3 L6,3 L0,1 Z " fill="#000000" transform="translate(686,0)"/>
<path d="M0,0 L50,0 L49,2 L1,2 Z " fill="#000000" transform="translate(722,0)"/>
<path d="M0,0 L6,0 L5,2 L0,1 Z " fill="#000000" transform="translate(780,0)"/>
<path d="M0,0 L37,0 L37,2 L43,4 L55,11 L60,15 L69,22 L76,28 L78,33 L82,35 L91,45 L97,53 L101,61 L109,77 L115,94 L116,95 L116,811 L114,810 L113,768 L113,712 L112,617 L112,596 L111,522 L111,474 L110,373 L110,203 L109,196 L110,179 L109,164 L109,150 L106,114 L102,96 L91,70 L83,56 L76,47 L67,37 L60,30 L45,20 L28,11 L11,4 L2,3 L0,2 Z " fill="#000000" transform="translate(901,0)"/>
<path d="M0,0 L23,0 L32,1 L47,6 L62,16 L73,30 L80,46 L88,71 L93,90 L97,104 L108,137 L113,154 L117,165 L124,190 L126,201 L126,298 L125,341 L122,345 L118,346 L55,347 L47,347 L43,343 L41,336 L39,326 L33,308 L24,293 L19,287 L14,282 L4,273 L-10,265 L-25,259 L-35,257 L-64,257 L-82,261 L-93,266 L-99,269 L-109,276 L-120,285 L-126,293 L-134,305 L-140,316 L-144,330 L-146,341 L-149,348 L-154,351 L-185,351 L-235,352 L-310,353 L-354,354 L-383,354 L-403,355 L-436,355 L-465,356 L-478,355 L-481,350 L-485,330 L-492,313 L-501,299 L-506,293 L-511,288 L-522,278 L-541,269 L-553,265 L-563,263 L-586,263 L-596,265 L-607,268 L-623,275 L-635,283 L-647,294 L-658,308 L-667,326 L-670,338 L-673,355 L-677,359 L-691,359 L-718,360 L-733,360 L-745,359 L-751,360 L-758,357 L-760,352 L-761,332 L-761,316 L-762,285 L-762,231 L-763,153 L-764,90 L-765,77 L-763,60 L-758,45 L-750,34 L-742,25 L-729,17 L-715,11 L-708,10 L-665,9 L-515,9 L-474,8 L-440,8 L-425,7 L-342,6 L-306,5 L-271,5 L-245,4 L-155,2 L-115,1 Z M15,23 L10,27 L9,31 L9,144 L11,153 L16,157 L63,157 L84,156 L88,153 L89,144 L81,117 L75,98 L72,87 L68,74 L59,47 L52,36 L41,27 L32,23 Z M-67,24 L-126,25 L-159,25 L-177,27 L-181,29 L-183,33 L-184,39 L-184,81 L-183,89 L-183,147 L-181,156 L-177,159 L-174,160 L-81,159 L-33,158 L-20,157 L-15,153 L-14,150 L-13,100 L-14,33 L-17,27 L-20,25 Z M-320,28 L-346,29 L-359,31 L-362,36 L-363,44 L-363,122 L-361,156 L-360,159 L-354,162 L-322,162 L-263,161 L-210,160 L-205,156 L-203,149 L-203,38 L-206,30 L-210,28 Z M-438,31 L-497,32 L-521,32 L-528,33 L-541,33 L-545,36 L-547,46 L-547,124 L-546,152 L-544,161 L-542,163 L-446,164 L-396,162 L-389,160 L-385,154 L-385,105 L-386,48 L-388,35 L-393,31 Z M-650,32 L-665,33 L-692,33 L-703,35 L-714,39 L-724,47 L-731,57 L-734,63 L-736,74 L-736,125 L-735,159 L-731,164 L-724,166 L-683,166 L-616,165 L-581,164 L-570,163 L-567,158 L-566,137 L-567,51 L-568,39 L-572,34 L-574,33 L-587,33 L-592,32 Z " fill="#000000" transform="translate(828,59)"/>
<path d="M0,0 L2,1 L0,5 Z " fill="#000000" transform="translate(0,199)"/>
<path d="M0,0 L2,1 L2,18 L0,20 Z " fill="#000000" transform="translate(0,213)"/>
<path d="M0,0 L1,0 L2,5 L2,38 L3,72 L2,91 L0,93 Z " fill="#000000" transform="translate(0,237)"/>
<path d="M0,0 L2,2 L3,52 L3,77 L1,81 L0,81 Z " fill="#000000" transform="translate(0,331)"/>
<path d="M0,0 L21,0 L30,2 L43,7 L51,12 L62,21 L69,29 L74,36 L80,50 L83,62 L83,80 L82,91 L75,109 L67,122 L58,132 L40,144 L28,148 L18,150 L2,151 L-4,149 L-15,147 L-32,138 L-42,129 L-49,122 L-53,117 L-59,104 L-63,92 L-64,73 L-64,64 L-61,51 L-56,39 L-46,25 L-38,17 L-25,8 L-14,3 L-9,1 Z " fill="#000000" transform="translate(766,332)"/>
<path d="M0,0 L9,0 L21,2 L36,8 L46,15 L51,19 L59,26 L68,39 L72,47 L76,61 L77,75 L75,89 L70,106 L65,115 L54,128 L49,134 L38,141 L29,146 L20,149 L4,151 L-16,149 L-29,145 L-40,139 L-50,131 L-57,124 L-67,108 L-72,92 L-73,82 L-73,71 L-71,55 L-67,45 L-60,33 L-51,22 L-43,15 L-32,8 L-22,4 L-17,2 Z " fill="#000000" transform="translate(249,340)"/>
<path d="M0,0 L2,2 L3,10 L3,32 L2,49 L3,69 L3,136 L4,245 L4,421 L5,436 L5,453 L6,469 L7,490 L10,506 L19,530 L28,545 L36,556 L44,565 L52,572 L61,580 L71,586 L77,590 L88,594 L95,598 L103,600 L114,602 L116,605 L80,605 L66,597 L57,591 L46,583 L37,575 L32,570 L22,558 L15,548 L3,526 L2,520 L0,520 Z " fill="#000000" transform="translate(0,415)"/>
<path d="M0,0 L4,1 L8,5 L17,7 L18,6 L30,7 L47,8 L68,9 L76,16 L85,28 L94,39 L105,53 L114,64 L122,75 L129,82 L138,93 L147,105 L158,119 L165,127 L175,140 L188,154 L192,156 L235,156 L294,155 L344,155 L356,159 L369,166 L378,175 L386,186 L390,193 L393,204 L394,212 L394,274 L393,295 L389,298 L369,300 L342,300 L314,299 L311,296 L307,277 L302,263 L294,248 L284,236 L284,234 L280,232 L273,226 L264,220 L250,214 L236,210 L211,209 L193,212 L176,218 L161,228 L153,235 L142,246 L135,256 L128,270 L124,283 L122,298 L117,303 L66,304 L22,304 L8,305 L-15,305 L-40,306 L-145,307 L-158,307 L-196,308 L-208,308 L-212,304 L-217,282 L-223,266 L-230,254 L-234,249 L-241,241 L-249,234 L-257,228 L-263,225 L-265,223 L-274,221 L-294,215 L-303,214 L-317,214 L-341,220 L-355,227 L-369,236 L-382,248 L-392,261 L-400,277 L-403,287 L-405,303 L-408,309 L-409,310 L-416,311 L-484,311 L-491,310 L-494,304 L-495,295 L-495,224 L-493,212 L-487,197 L-479,187 L-470,178 L-453,169 L-443,166 L-441,165 L-334,164 L-322,164 L-314,162 L-310,158 L-304,142 L-295,120 L-292,111 L-290,102 L-280,77 L-277,70 L-274,61 L-268,45 L-260,24 L-256,16 L-253,13 L-249,12 L-168,11 L-88,10 L-79,9 L-71,10 L-46,9 L-28,9 L-6,8 L-3,5 Z M33,31 L24,32 L-22,33 L-54,33 L-63,35 L-67,40 L-67,125 L-66,152 L-64,157 L-60,160 L-1,160 L5,157 L8,151 L9,119 L11,117 L21,114 L24,109 L24,93 L23,85 L18,81 L6,80 L2,76 L2,64 L10,63 L27,63 L30,66 L31,77 L31,97 L33,111 L37,115 L40,116 L62,116 L66,120 L70,133 L75,138 L80,137 L83,130 L83,122 L84,120 L87,119 L87,149 L90,156 L95,159 L141,158 L150,156 L151,149 L137,130 L128,119 L118,106 L112,98 L107,93 L101,85 L90,71 L77,55 L67,41 L64,35 L59,33 L50,33 L42,31 Z M-119,33 L-143,34 L-164,34 L-186,35 L-194,38 L-198,43 L-203,55 L-206,64 L-220,100 L-227,118 L-230,127 L-233,133 L-236,142 L-239,152 L-239,159 L-236,162 L-129,162 L-101,161 L-93,159 L-90,155 L-89,72 L-90,45 L-91,38 L-95,34 Z " fill="#000000" transform="translate(561,579)"/>
<path d="M0,0 L23,0 L36,4 L49,11 L54,15 L62,22 L70,32 L78,48 L82,66 L81,86 L79,95 L74,108 L67,120 L61,127 L51,135 L41,141 L38,144 L28,146 L23,148 L6,149 L-11,147 L-21,143 L-27,140 L-38,133 L-49,123 L-58,107 L-62,97 L-64,90 L-65,72 L-63,56 L-60,46 L-53,33 L-42,21 L-35,15 L-24,8 L-11,3 L-6,1 Z " fill="#000000" transform="translate(769,807)"/>
<path d="M0,0 L25,0 L31,3 L40,6 L42,8 L49,10 L55,15 L63,22 L70,30 L77,41 L82,53 L84,64 L84,81 L82,91 L78,104 L70,118 L63,126 L56,132 L46,139 L38,143 L27,147 L17,148 L1,148 L-16,145 L-30,138 L-39,132 L-41,128 L-45,126 L-50,121 L-50,119 L-52,119 L-61,102 L-64,95 L-67,75 L-65,60 L-61,46 L-53,32 L-40,18 L-32,12 L-27,9 L-12,3 Z " fill="#000000" transform="translate(244,815)"/>
<path d="M0,0 L1,0 L1,7 L0,7 Z " fill="#000000" transform="translate(1016,823)"/>
<path d="M0,0 L1,0 L1,55 L-1,55 L-4,64 L-9,74 L-20,88 L-26,96 L-34,104 L-39,109 L-50,117 L-61,124 L-70,130 L-91,139 L-104,143 L-117,145 L-166,146 L-195,146 L-241,147 L-243,148 L-690,148 L-689,146 L-661,145 L-639,145 L-601,144 L-570,144 L-564,143 L-540,143 L-534,142 L-430,141 L-410,140 L-391,140 L-321,138 L-301,138 L-286,137 L-186,135 L-135,135 L-120,134 L-105,131 L-96,128 L-80,122 L-63,113 L-51,103 L-41,95 L-34,87 L-26,77 L-21,69 L-15,58 L-12,53 L-7,37 L-3,21 L-1,1 Z " fill="#000000" transform="translate(1016,872)"/>
<path d="M0,0 L4,0 L3,3 L0,3 Z " fill="#000000" transform="translate(31,913)"/>
<path d="M0,0 L7,0 L7,2 L0,2 Z " fill="#000000" transform="translate(312,1018)"/>
</svg>
