<?xml version="1.0" encoding="UTF-8"?>
<!-- Generator: visioncortex VTracer 0.6.12 -->
<svg version="1.1" xmlns="http://www.w3.org/2000/svg" width="1116" height="1128">
<path d="M0,0 L826,0 L824,2 L759,3 L632,3 L548,4 L518,4 L422,5 L360,5 L318,6 L188,6 L58,7 L10,7 L6,11 L5,23 L4,56 L4,464 L3,551 L3,722 L2,740 L0,742 Z " fill="#000000" transform="translate(0,0)"/>
<path d="M0,0 L18,0 L17,2 L8,2 L0,1 Z " fill="#000000" transform="translate(827,0)"/>
<path d="M0,0 L36,0 L35,2 L2,2 Z " fill="#000000" transform="translate(854,0)"/>
<path d="M0,0 L3,1 Z " fill="#000000" transform="translate(901,0)"/>
<path d="M0,0 L7,0 L7,1 L0,1 Z " fill="#000000" transform="translate(919,0)"/>
<path d="M0,0 L3,1 Z " fill="#000000" transform="translate(1013,0)"/>
<path d="M0,0 L2,0 L2,2 L0,2 Z " fill="#000000" transform="translate(1114,0)"/>
<path d="M0,0 L32,0 L69,3 L89,6 L102,10 L118,13 L128,16 L153,28 L166,36 L176,42 L181,47 L186,50 L195,58 L202,64 L202,66 L206,68 L219,81 L221,86 L225,88 L234,101 L237,106 L245,119 L253,135 L260,152 L262,157 L265,170 L268,180 L270,191 L272,208 L273,213 L273,246 L270,271 L264,296 L260,308 L255,322 L247,336 L242,346 L232,361 L222,374 L215,383 L203,396 L196,402 L188,409 L181,415 L171,422 L161,428 L143,438 L124,447 L116,449 L96,455 L80,457 L75,459 L38,462 L26,461 L-19,462 L-60,462 L-85,463 L-105,462 L-111,464 L-113,468 L-114,644 L-114,731 L-115,768 L-116,887 L-117,935 L-119,939 L-123,941 L-257,941 L-260,938 L-261,928 L-261,837 L-260,819 L-260,376 L-261,355 L-261,41 L-260,7 L-257,2 L-161,1 L-45,1 Z M-47,109 L-55,110 L-103,110 L-110,111 L-113,116 L-114,164 L-114,344 L-112,351 L-109,354 L-13,354 L13,353 L18,352 L31,351 L48,347 L71,336 L84,324 L93,315 L105,298 L111,287 L115,276 L117,273 L122,254 L124,233 L123,209 L118,194 L114,181 L107,167 L98,153 L90,144 L86,139 L75,130 L70,126 L59,120 L49,116 L41,113 L26,111 L19,110 L-2,109 Z " fill="#000000" transform="translate(366,93)"/>
<path d="M0,0 L5,1 L18,7 L32,12 L43,17 L59,23 L74,30 L88,35 L96,39 L116,46 L131,53 L142,57 L153,62 L163,65 L176,71 L189,75 L200,80 L206,83 L214,85 L220,88 L229,92 L240,96 L255,102 L273,109 L285,115 L292,121 L302,125 L326,127 L333,127 L340,126 L345,127 L365,127 L370,126 L416,126 L450,125 L462,123 L470,123 L477,125 L478,126 L477,136 L469,171 L460,202 L458,208 L456,219 L453,228 L448,233 L437,241 L424,247 L412,250 L401,250 L387,248 L376,243 L370,238 L362,233 L347,218 L331,209 L320,205 L314,204 L296,204 L280,208 L267,215 L255,224 L248,232 L232,245 L220,250 L206,253 L188,253 L171,248 L160,241 L152,234 L144,228 L135,220 L125,212 L109,207 L101,205 L83,204 L74,206 L60,211 L50,217 L35,231 L24,242 L12,248 L-4,253 L-18,254 L-26,254 L-42,250 L-52,245 L-66,234 L-70,229 L-75,225 L-75,223 L-79,221 L-92,212 L-100,208 L-111,205 L-139,205 L-149,208 L-154,211 L-161,214 L-172,222 L-181,222 L-204,210 L-216,201 L-222,197 L-233,188 L-246,177 L-256,168 L-267,154 L-280,137 L-289,120 L-293,115 L-297,105 L-302,93 L-304,89 L-322,83 L-325,80 L-325,74 L-323,72 L-318,73 L-304,77 L-296,78 L-291,79 L-280,80 L-256,80 L-231,81 L-214,81 L-204,82 L-199,81 L-76,81 L-46,80 L-40,77 L-34,64 L-30,59 L-22,43 L-18,36 L-14,26 L-6,9 L-2,1 Z M9,21 L3,26 L-5,39 L-14,59 L-20,73 L-23,77 L-25,88 L-22,94 L-11,107 L-7,111 L-3,109 L3,99 L12,84 L21,67 L25,59 L28,54 L32,44 L34,39 L34,33 L28,28 L20,25 L11,21 Z M51,38 L47,43 L40,55 L35,66 L27,82 L19,98 L13,111 L13,117 L18,120 L43,123 L61,124 L67,125 L108,125 L112,126 L178,128 L231,128 L254,127 L260,125 L259,121 L251,116 L227,106 L215,101 L206,98 L180,87 L171,84 L154,77 L138,71 L122,65 L113,61 L93,53 L83,49 L59,39 Z " fill="#000000" transform="translate(593,630)"/>
<path d="M0,0 L2,1 L2,12 L0,14 Z " fill="#000000" transform="translate(0,747)"/>
<path d="M0,0 L2,2 L2,91 L0,92 Z " fill="#000000" transform="translate(0,767)"/>
<path d="M0,0 L1,0 L1,5 L0,5 Z " fill="#000000" transform="translate(1115,803)"/>
<path d="M0,0 L1,0 L1,9 L-1,7 Z " fill="#000000" transform="translate(1115,830)"/>
<path d="M0,0 L1,0 L1,49 L-1,47 L-1,1 Z " fill="#000000" transform="translate(1115,849)"/>
<path d="M0,0 L1,0 L1,5 L0,5 Z " fill="#000000" transform="translate(0,863)"/>
<path d="M0,0 L13,0 L29,3 L45,11 L55,20 L71,37 L79,43 L89,47 L94,49 L107,51 L118,51 L128,49 L138,47 L153,39 L167,27 L169,25 L173,25 L174,30 L174,52 L172,62 L164,73 L156,81 L146,87 L136,92 L130,94 L113,96 L103,96 L88,91 L76,85 L66,78 L57,70 L50,62 L43,57 L30,51 L17,48 L-5,48 L-20,52 L-35,60 L-43,68 L-47,69 L-49,73 L-60,82 L-67,88 L-74,91 L-84,94 L-93,96 L-113,96 L-126,92 L-138,86 L-151,76 L-158,68 L-167,60 L-179,53 L-195,48 L-211,48 L-223,49 L-233,52 L-248,60 L-258,69 L-266,76 L-272,81 L-282,88 L-290,92 L-301,95 L-308,96 L-326,96 L-343,92 L-351,87 L-363,78 L-374,66 L-385,58 L-398,51 L-408,49 L-409,48 L-419,47 L-435,48 L-450,51 L-455,55 L-464,61 L-468,64 L-470,64 L-472,68 L-483,77 L-491,84 L-508,93 L-515,95 L-540,96 L-554,93 L-570,86 L-579,79 L-590,67 L-594,57 L-594,28 L-592,24 L-588,25 L-580,34 L-571,40 L-566,43 L-556,47 L-551,49 L-540,50 L-520,50 L-508,47 L-496,42 L-485,34 L-471,20 L-457,9 L-445,4 L-421,1 L-407,2 L-390,8 L-379,15 L-372,22 L-367,27 L-357,37 L-342,46 L-333,49 L-325,50 L-305,50 L-288,45 L-279,40 L-269,33 L-264,28 L-253,17 L-245,11 L-227,4 L-214,1 L-199,1 L-187,3 L-174,8 L-158,17 L-145,27 L-140,32 L-131,38 L-120,44 L-116,47 L-107,49 L-90,49 L-79,46 L-67,40 L-59,34 L-49,26 L-43,19 L-29,9 L-16,3 Z " fill="#000000" transform="translate(891,868)"/>
<path d="M0,0 L1,0 L1,223 L-131,223 L-130,221 L-120,220 L-7,220 L-4,219 L-3,215 L-2,9 L-1,1 Z " fill="#000000" transform="translate(1115,905)"/>
<path d="M0,0 L2,1 L1,4 Z " fill="#000000" transform="translate(0,908)"/>
<path d="M0,0 L12,0 L25,2 L39,7 L51,14 L66,28 L66,30 L69,31 L69,33 L72,34 L72,36 L78,38 L83,42 L91,46 L99,48 L112,50 L119,50 L139,45 L151,39 L159,33 L169,25 L176,18 L181,15 L185,11 L200,4 L217,0 L228,0 L248,4 L258,10 L267,16 L286,35 L303,45 L316,49 L333,50 L347,48 L356,44 L372,35 L376,33 L378,29 L385,22 L392,16 L403,8 L419,2 L431,0 L442,0 L457,3 L470,8 L480,15 L488,22 L499,34 L512,42 L517,45 L527,48 L540,50 L555,50 L564,48 L574,43 L580,40 L590,33 L597,26 L600,23 L603,24 L604,29 L604,46 L603,59 L600,67 L588,79 L579,86 L569,91 L562,92 L559,94 L545,95 L532,95 L517,90 L500,81 L496,76 L491,72 L486,67 L475,58 L457,49 L446,47 L427,47 L414,50 L400,57 L388,66 L384,68 L382,72 L373,79 L363,86 L349,92 L334,95 L323,95 L309,92 L299,88 L287,81 L274,69 L269,65 L264,60 L253,54 L242,49 L225,47 L214,47 L198,51 L190,55 L185,57 L170,70 L162,77 L155,82 L144,88 L135,92 L127,94 L112,95 L99,93 L87,90 L76,83 L71,79 L67,76 L67,74 L65,74 L60,69 L52,61 L43,55 L27,49 L11,47 L3,47 L-11,49 L-23,54 L-36,62 L-40,65 L-42,65 L-42,67 L-50,74 L-64,85 L-76,91 L-85,94 L-105,96 L-119,94 L-135,87 L-145,81 L-157,69 L-162,60 L-163,26 L-160,23 L-155,25 L-146,35 L-140,40 L-129,44 L-121,47 L-104,50 L-96,49 L-83,48 L-72,44 L-59,37 L-42,21 L-31,12 L-20,6 Z " fill="#000000" transform="translate(460,950)"/>
<path d="M0,0 L7,1 L8,3 L-6,3 L-5,1 Z " fill="#000000" transform="translate(873,1125)"/>
<path d="M0,0 L20,1 L21,3 L-4,3 L-3,1 Z " fill="#000000" transform="translate(960,1125)"/>
<path d="M0,0 L4,1 L4,2 L-1,2 Z " fill="#000000" transform="translate(807,1126)"/>
<path d="M0,0 L6,1 L6,2 L0,2 Z " fill="#000000" transform="translate(817,1126)"/>
<path d="M0,0 L7,1 L7,2 L-2,2 Z " fill="#000000" transform="translate(851,1126)"/>
<path d="M0,0 L5,1 L5,2 L-3,2 Z " fill="#000000" transform="translate(890,1126)"/>
<path d="M0,0 L24,0 L28,2 L-1,2 Z " fill="#000000" transform="translate(914,1126)"/>
<path d="M0,0 L7,0 L7,2 L-1,2 Z " fill="#000000" transform="translate(944,1126)"/>
</svg>
