<?xml version="1.0" encoding="UTF-8"?>
<!-- Generator: visioncortex VTracer 0.6.12 -->
<svg version="1.1" xmlns="http://www.w3.org/2000/svg" width="1137" height="1104">
<path d="M0,0 L870,0 L873,2 L883,4 L896,9 L911,17 L919,21 L929,28 L939,35 L948,42 L955,50 L960,55 L969,65 L975,73 L980,82 L986,91 L994,107 L996,116 L998,116 L998,831 L997,833 L997,854 L998,861 L997,862 L996,892 L996,921 L995,944 L992,964 L988,977 L983,995 L976,1010 L970,1021 L964,1031 L958,1039 L951,1048 L938,1062 L930,1069 L920,1078 L902,1089 L886,1097 L879,1101 L873,1102 L873,1104 L17,1104 L4,1099 L-5,1097 L-24,1089 L-39,1081 L-48,1075 L-59,1067 L-66,1060 L-74,1054 L-81,1046 L-86,1041 L-95,1030 L-104,1016 L-112,1001 L-118,987 L-124,966 L-126,957 L-129,927 L-129,901 L-128,860 L-127,706 L-126,682 L-126,662 L-125,614 L-124,537 L-123,500 L-123,481 L-122,433 L-122,369 L-121,314 L-120,308 L-121,300 L-120,272 L-120,245 L-119,215 L-119,199 L-118,154 L-116,144 L-115,134 L-113,129 L-111,121 L-106,107 L-99,91 L-92,79 L-88,72 L-79,59 L-70,49 L-65,44 L-60,38 L-46,27 L-37,20 L-30,15 L-20,11 L-13,6 L-2,2 L0,2 Z M57,22 L37,25 L18,31 L6,36 L-8,43 L-18,49 L-31,59 L-38,66 L-43,70 L-56,88 L-61,94 L-67,105 L-70,109 L-74,121 L-78,131 L-82,148 L-83,161 L-85,232 L-86,319 L-87,349 L-88,356 L-87,359 L-87,405 L-88,435 L-88,455 L-89,539 L-90,583 L-91,619 L-91,651 L-92,711 L-93,718 L-93,756 L-94,810 L-95,919 L-94,939 L-90,958 L-86,973 L-81,985 L-72,1002 L-66,1011 L-57,1021 L-46,1034 L-33,1044 L-24,1050 L-8,1058 L3,1063 L24,1069 L35,1071 L74,1073 L139,1074 L269,1075 L295,1076 L362,1076 L384,1077 L436,1077 L525,1078 L538,1078 L554,1079 L557,1078 L604,1078 L620,1079 L715,1080 L792,1081 L819,1080 L826,1078 L845,1075 L866,1068 L882,1060 L892,1054 L902,1047 L917,1033 L926,1023 L935,1012 L945,995 L951,980 L954,971 L956,966 L960,941 L962,885 L962,857 L963,795 L963,745 L964,738 L963,728 L964,719 L964,703 L965,668 L966,595 L966,582 L967,560 L968,500 L969,428 L970,385 L972,287 L973,251 L974,195 L974,175 L973,162 L967,134 L962,122 L958,113 L951,101 L948,98 L944,91 L933,78 L926,70 L917,63 L907,55 L896,49 L881,42 L870,37 L859,35 L858,34 L838,31 L813,30 L769,30 L750,29 L728,29 L663,28 L648,29 L642,28 L519,28 L516,27 L440,27 L375,26 L349,26 L337,25 L304,25 L297,24 L288,25 L242,24 L228,24 L223,25 L215,24 L132,23 L125,22 L101,23 L82,22 Z " fill="#000000" transform="translate(139,0)"/>
<path d="M0,0 L61,0 L101,1 L110,7 L114,12 L116,17 L116,24 L112,27 L32,27 L28,31 L28,38 L31,43 L71,44 L101,45 L110,50 L111,51 L111,56 L106,60 L92,63 L65,63 L42,62 L31,63 L28,68 L28,74 L30,76 L35,77 L61,78 L98,79 L104,81 L112,87 L110,92 L105,95 L98,97 L32,97 L28,101 L27,108 L28,112 L30,113 L87,115 L97,115 L107,119 L112,123 L111,128 L103,133 L85,135 L35,135 L27,137 L28,147 L32,148 L70,149 L91,149 L101,150 L111,156 L112,161 L109,164 L97,168 L79,169 L66,169 L56,168 L47,169 L30,169 L27,171 L27,178 L28,181 L31,183 L50,184 L82,184 L99,185 L107,189 L111,193 L109,198 L99,202 L46,203 L32,203 L28,204 L26,209 L27,214 L30,217 L97,218 L107,222 L112,227 L111,232 L99,238 L88,239 L79,237 L77,238 L32,239 L27,240 L27,247 L30,250 L39,251 L49,251 L54,252 L70,252 L96,253 L107,257 L111,260 L110,265 L102,270 L92,272 L77,273 L31,273 L26,278 L27,283 L31,285 L40,286 L95,287 L105,291 L111,296 L110,300 L102,305 L98,307 L77,308 L58,308 L30,309 L25,312 L26,319 L31,321 L45,321 L51,322 L93,322 L100,323 L109,328 L110,334 L105,338 L94,342 L29,342 L25,345 L25,356 L27,358 L42,359 L93,360 L102,363 L108,367 L108,372 L102,376 L99,377 L84,378 L74,379 L56,378 L37,378 L26,381 L25,386 L29,391 L32,392 L53,393 L86,393 L97,394 L107,399 L110,402 L109,407 L97,413 L88,414 L29,414 L25,416 L24,418 L24,425 L29,428 L36,429 L84,429 L98,431 L107,437 L108,442 L96,448 L82,449 L27,449 L23,450 L24,463 L74,463 L92,464 L101,467 L107,470 L108,476 L105,479 L97,482 L93,483 L79,484 L67,484 L68,498 L77,499 L90,499 L103,504 L107,509 L105,513 L95,517 L78,517 L76,518 L53,519 L26,519 L22,523 L23,530 L27,532 L42,533 L86,533 L98,535 L105,538 L108,542 L107,546 L104,549 L91,553 L83,553 L74,552 L58,553 L46,553 L30,552 L23,555 L22,560 L26,564 L28,565 L77,566 L91,566 L102,570 L106,575 L104,580 L91,584 L62,584 L25,585 L22,586 L22,596 L24,598 L34,600 L50,601 L90,602 L101,605 L106,609 L107,613 L104,617 L94,620 L85,621 L57,621 L54,622 L27,622 L23,625 L24,630 L28,634 L41,635 L93,636 L104,642 L105,643 L105,648 L100,652 L91,655 L78,656 L38,656 L26,657 L23,660 L24,666 L30,670 L85,671 L98,675 L104,679 L106,683 L104,687 L94,692 L85,693 L32,693 L24,696 L23,697 L23,702 L27,703 L30,701 L35,701 L38,704 L46,705 L50,704 L82,704 L105,705 L108,707 L109,714 L105,724 L101,729 L94,731 L46,731 L38,732 L30,731 L17,731 L14,730 L-10,730 L-21,727 L-25,723 L-29,715 L-30,709 L-30,671 L-29,623 L-29,574 L-28,556 L-28,453 L-27,394 L-26,358 L-25,328 L-25,177 L-24,144 L-24,115 L-23,102 L-23,34 L-21,17 L-16,8 L-9,3 Z M40,482 L30,485 L25,490 L26,496 L29,498 L40,498 L50,495 L57,489 L59,488 L59,484 L57,483 Z " fill="#000000" transform="translate(231,178)"/>
<path d="M0,0 L6,0 L15,11 L21,22 L25,27 L31,38 L38,47 L52,70 L60,81 L65,90 L72,100 L79,110 L87,124 L95,137 L102,147 L109,158 L118,173 L138,203 L148,218 L158,233 L168,248 L172,255 L178,263 L185,275 L192,285 L198,294 L202,302 L212,317 L223,332 L230,342 L233,344 L238,343 L239,342 L240,334 L247,332 L256,318 L262,310 L266,304 L273,295 L279,286 L286,275 L299,256 L310,241 L317,230 L324,220 L332,209 L340,198 L349,184 L359,169 L368,156 L376,145 L380,139 L383,129 L390,124 L397,114 L403,106 L410,95 L420,80 L428,69 L437,55 L444,45 L453,31 L459,22 L465,14 L473,3 L479,3 L488,8 L492,13 L495,18 L496,24 L496,34 L494,41 L490,49 L483,60 L477,71 L469,86 L462,96 L450,116 L442,130 L439,133 L436,140 L427,156 L416,173 L404,195 L393,214 L386,225 L379,236 L373,247 L364,263 L352,283 L339,305 L327,326 L322,334 L315,345 L306,361 L300,370 L294,381 L286,395 L282,402 L277,410 L277,416 L282,423 L286,431 L293,441 L300,452 L308,463 L314,473 L323,486 L329,497 L337,508 L344,519 L353,530 L354,531 L361,530 L371,529 L393,529 L414,534 L430,541 L446,552 L458,563 L469,576 L475,586 L479,597 L483,607 L486,617 L488,629 L488,647 L486,663 L483,677 L480,686 L472,700 L456,716 L448,721 L444,724 L427,729 L424,730 L409,730 L390,728 L380,726 L368,721 L352,713 L342,706 L330,695 L318,680 L312,668 L307,659 L300,636 L300,605 L302,598 L303,588 L310,572 L313,566 L318,557 L319,551 L315,541 L307,531 L300,519 L291,506 L282,493 L271,476 L259,458 L250,448 L243,443 L237,441 L227,442 L213,449 L198,471 L188,484 L181,495 L173,506 L166,517 L157,529 L151,539 L147,546 L146,553 L154,569 L159,579 L162,587 L164,600 L168,607 L166,610 L165,626 L160,649 L153,667 L142,685 L137,690 L132,696 L124,703 L111,712 L101,718 L89,722 L79,725 L69,727 L44,727 L29,724 L18,720 L7,713 L3,709 L-2,704 L-9,694 L-16,680 L-21,661 L-22,653 L-22,629 L-20,616 L-16,603 L-14,597 L-8,584 L-2,575 L6,565 L11,559 L22,550 L29,544 L35,541 L41,537 L54,532 L62,529 L85,525 L101,525 L103,526 L113,526 L116,523 L124,512 L132,501 L143,485 L151,474 L159,462 L166,452 L178,434 L187,420 L192,413 L192,406 L184,390 L172,368 L166,359 L158,343 L153,336 L146,322 L138,309 L127,289 L123,283 L117,271 L111,261 L105,250 L100,242 L95,232 L89,221 L82,209 L72,190 L62,173 L54,158 L48,148 L42,137 L29,112 L25,107 L20,97 L17,93 L10,79 L0,60 L-3,57 L-10,43 L-15,33 L-15,19 L-11,11 L-5,3 Z M230,396 L223,401 L221,406 L223,415 L229,420 L237,420 L245,413 L246,407 L244,402 L238,397 L236,396 Z M81,551 L68,553 L52,560 L42,566 L29,576 L18,590 L12,599 L6,613 L3,627 L3,655 L7,672 L15,686 L21,691 L29,697 L41,703 L57,706 L67,705 L76,702 L88,699 L93,695 L93,693 L98,691 L106,687 L119,674 L129,660 L135,647 L138,638 L140,628 L141,614 L138,594 L132,578 L125,569 L120,564 L109,558 L98,553 L88,551 Z M373,556 L363,559 L347,567 L341,572 L330,588 L325,603 L324,619 L326,633 L330,648 L334,658 L340,668 L347,676 L354,684 L367,694 L383,702 L392,705 L398,706 L415,706 L429,702 L441,695 L446,691 L454,680 L459,671 L462,663 L464,644 L462,624 L460,620 L458,612 L454,604 L451,597 L445,588 L434,577 L421,567 L409,561 L387,556 Z " fill="#000000" transform="translate(462,182)"/>
</svg>
