<?xml version="1.0" encoding="UTF-8"?>
<!-- Generator: visioncortex VTracer 0.6.12 -->
<svg version="1.1" xmlns="http://www.w3.org/2000/svg" width="1173" height="678">
<path d="M0,0 L33,1 L45,1 L57,5 L69,11 L80,20 L89,30 L92,35 L96,51 L97,67 L94,80 L89,91 L84,98 L83,105 L85,110 L91,121 L96,127 L95,133 L89,141 L79,150 L79,157 L85,165 L92,174 L93,177 L89,184 L77,196 L75,199 L75,204 L83,214 L87,220 L92,225 L92,232 L85,240 L83,240 L81,244 L77,248 L78,253 L83,259 L89,266 L92,268 L92,276 L82,287 L81,292 L76,296 L74,300 L75,307 L81,315 L88,324 L92,329 L91,334 L84,342 L76,351 L75,355 L81,366 L90,376 L92,380 L91,386 L84,394 L79,399 L73,406 L72,412 L80,422 L89,432 L92,437 L90,442 L83,452 L81,452 L79,456 L73,463 L74,471 L75,475 L79,477 L85,485 L90,490 L91,496 L88,501 L84,503 L82,507 L77,515 L74,518 L73,523 L76,529 L86,539 L88,545 L84,552 L75,561 L72,566 L73,573 L80,580 L84,588 L83,597 L72,607 L66,610 L52,610 L50,609 L28,608 L23,609 L-6,609 L-10,607 L-13,602 L-16,580 L-17,557 L-19,537 L-20,528 L-21,504 L-22,500 L-23,474 L-24,465 L-25,463 L-27,431 L-28,423 L-30,390 L-32,375 L-33,361 L-35,344 L-36,327 L-37,319 L-39,288 L-40,285 L-42,259 L-43,256 L-45,223 L-47,213 L-47,202 L-48,183 L-50,159 L-52,149 L-54,136 L-53,119 L-48,105 L-49,98 L-51,93 L-62,78 L-65,71 L-67,55 L-66,48 L-57,34 L-47,22 L-41,18 L-34,12 L-13,3 Z M12,31 L0,33 L-11,36 L-23,40 L-33,51 L-37,62 L-36,69 L-31,78 L-22,85 L-14,89 L-8,90 L10,90 L12,91 L34,91 L50,88 L59,82 L62,78 L66,68 L65,51 L58,41 L48,35 L33,31 Z " fill="#000000" transform="translate(322,35)"/>
<path d="M0,0 L5,2 L14,9 L17,14 L23,18 L25,21 L30,21 L39,8 L43,7 L51,13 L62,21 L66,22 L71,17 L80,7 L84,4 L91,4 L101,17 L108,18 L114,11 L119,4 L124,3 L137,18 L140,22 L146,21 L151,16 L158,10 L163,7 L168,7 L172,13 L173,44 L174,54 L173,58 L172,109 L171,125 L168,135 L164,138 L124,137 L98,136 L28,136 L20,135 L-23,136 L-33,135 L-40,135 L-44,133 L-47,124 L-47,88 L-46,85 L-45,66 L-45,15 L-43,8 L-39,5 L-31,7 L-23,14 L-20,19 L-15,19 L-13,13 L-9,7 L-3,1 Z " fill="#000000" transform="translate(965,50)"/>
<path d="M0,0 L8,0 L18,2 L27,5 L29,6 L39,7 L41,8 L50,9 L59,16 L66,20 L71,27 L71,62 L70,114 L70,128 L69,132 L69,154 L68,178 L64,182 L23,181 L6,179 L2,175 L-1,160 L-10,159 L-34,159 L-45,156 L-62,152 L-66,149 L-76,145 L-78,143 L-85,140 L-86,138 L-88,113 L-85,106 L-80,105 L-32,105 L-23,106 L-3,106 L3,105 L5,99 L5,67 L3,65 L-1,64 L-22,63 L-34,62 L-68,61 L-81,61 L-85,56 L-86,47 L-85,40 L-85,26 L-83,21 L-78,16 L-61,10 L-47,5 L-38,3 L-25,1 Z " fill="#000000" transform="translate(542,59)"/>
<path d="M0,0 L19,0 L24,4 L27,11 L29,13 L76,15 L113,16 L124,17 L134,20 L140,23 L148,26 L164,36 L181,53 L190,65 L193,72 L197,81 L201,91 L203,108 L203,117 L201,131 L197,141 L192,140 L189,135 L186,128 L177,114 L173,108 L167,104 L160,97 L154,92 L144,87 L129,82 L123,80 L112,80 L111,101 L111,224 L110,234 L111,245 L111,266 L112,318 L113,321 L115,348 L115,357 L117,379 L118,402 L119,415 L119,452 L117,490 L116,499 L112,507 L109,509 L84,510 L63,510 L58,508 L55,504 L53,471 L54,415 L54,393 L55,381 L56,378 L57,361 L59,351 L63,314 L64,303 L65,293 L65,240 L66,211 L66,131 L65,89 L64,82 L59,78 L28,78 L24,90 L19,93 L3,92 L-2,91 L-6,87 L-7,59 L-6,8 L-2,1 Z " fill="#000000" transform="translate(42,79)"/>
<path d="M0,0 L8,0 L11,1 L32,1 L43,2 L96,2 L98,3 L118,3 L126,4 L132,1 L140,2 L147,1 L152,3 L166,2 L172,3 L175,2 L182,2 L188,6 L191,12 L192,35 L191,58 L189,63 L188,73 L183,78 L169,82 L150,92 L142,98 L127,112 L118,121 L113,133 L110,138 L108,142 L107,152 L103,166 L102,171 L102,204 L104,210 L106,223 L113,245 L116,263 L119,278 L120,280 L122,295 L122,322 L121,336 L118,343 L114,358 L111,367 L100,387 L87,403 L78,409 L69,406 L57,392 L50,382 L44,372 L41,368 L34,350 L30,330 L31,320 L30,319 L30,306 L31,301 L33,280 L34,270 L42,253 L44,240 L51,222 L52,219 L53,208 L55,201 L58,172 L58,163 L53,137 L47,123 L37,108 L29,99 L7,87 L-5,85 L-11,83 L-18,83 L-24,78 L-26,72 L-26,40 L-24,26 L-23,7 L-20,2 L-12,2 Z " fill="#000000" transform="translate(943,196)"/>
<path d="M0,0 L24,1 L31,2 L38,3 L48,7 L57,9 L71,16 L79,20 L91,29 L98,35 L105,43 L108,46 L111,51 L118,62 L126,78 L131,91 L133,100 L135,114 L135,159 L134,172 L128,184 L127,193 L126,204 L126,220 L127,227 L126,231 L126,259 L125,267 L125,316 L124,339 L124,352 L125,372 L124,382 L124,410 L122,433 L117,438 L107,439 L12,439 L-81,437 L-102,437 L-111,434 L-114,430 L-114,413 L-113,371 L-112,364 L-113,358 L-113,332 L-112,305 L-111,221 L-112,208 L-113,202 L-112,183 L-119,166 L-119,143 L-116,138 L-114,136 L-113,113 L-109,95 L-107,83 L-103,73 L-98,63 L-90,50 L-81,39 L-76,34 L-63,23 L-58,20 L-54,17 L-49,15 L-43,11 L-30,6 L-21,3 L-20,2 L-9,2 Z M12,24 L-7,25 L-22,30 L-30,32 L-41,38 L-59,52 L-66,60 L-75,71 L-79,80 L-86,97 L-89,116 L-89,133 L-85,137 L-70,138 L-56,138 L-39,139 L12,139 L18,140 L75,140 L99,139 L106,138 L111,132 L111,104 L104,85 L96,70 L89,60 L78,48 L69,41 L60,36 L47,30 L34,26 Z M-63,230 L-67,232 L-69,241 L-71,251 L-71,319 L-68,324 L-63,327 L-29,327 L-21,328 L-19,327 L-5,326 L-4,327 L18,327 L30,329 L43,328 L53,329 L63,329 L68,328 L81,328 L86,325 L88,309 L88,248 L87,238 L83,233 L81,232 L45,230 Z " fill="#000000" transform="translate(776,205)"/>
<path d="M0,0 L17,0 L19,1 L53,1 L59,4 L61,9 L61,18 L59,22 L61,31 L63,33 L70,34 L72,36 L71,42 L62,44 L60,46 L61,51 L62,57 L59,65 L55,67 L48,67 L42,66 L37,68 L34,68 L34,70 L52,71 L56,75 L59,79 L62,87 L64,90 L68,111 L71,122 L72,131 L74,139 L78,166 L79,187 L80,198 L79,205 L78,215 L77,222 L77,234 L75,242 L74,257 L72,262 L70,274 L67,288 L58,313 L51,325 L45,330 L35,337 L26,338 L16,336 L8,330 L-2,322 L-5,315 L-9,308 L-14,296 L-17,287 L-20,271 L-24,255 L-26,230 L-27,200 L-27,168 L-24,147 L-20,130 L-14,111 L-9,94 L-4,82 L-2,73 L3,69 L5,69 L4,67 L-2,65 L-4,62 L-4,50 L0,47 L3,45 L-4,41 L-5,37 L-5,30 L-4,20 L-5,16 L-5,8 L-3,3 Z M23,141 L17,146 L16,154 L18,158 L21,160 L28,160 L32,158 L34,154 L34,147 L30,143 L27,141 Z M25,233 L19,237 L18,244 L22,249 L25,251 L30,250 L35,245 L36,240 L31,235 Z " fill="#000000" transform="translate(547,247)"/>
</svg>
