<?xml version="1.0" encoding="UTF-8"?>
<!-- Generator: visioncortex VTracer 0.6.12 -->
<svg version="1.1" xmlns="http://www.w3.org/2000/svg" width="1392" height="1080">
<path d="M0,0 L23,0 L26,1 L38,2 L52,8 L61,15 L68,23 L78,38 L83,46 L90,66 L91,69 L93,88 L92,100 L89,110 L87,120 L81,136 L76,149 L69,161 L61,168 L56,169 L51,164 L46,158 L41,153 L33,143 L29,136 L30,130 L34,123 L38,109 L42,95 L44,83 L44,72 L41,53 L38,39 L32,30 L25,22 L20,17 L14,13 L0,13 L-6,16 L-13,24 L-17,31 L-19,37 L-19,61 L-12,83 L-6,94 L1,106 L7,117 L12,126 L18,133 L25,144 L29,149 L38,162 L45,171 L55,186 L62,195 L69,206 L78,217 L84,225 L90,234 L94,240 L96,249 L99,252 L106,255 L113,266 L121,277 L131,291 L138,301 L142,307 L151,315 L153,323 L157,327 L162,336 L168,344 L174,353 L179,358 L188,372 L202,390 L204,394 L208,397 L211,403 L215,408 L218,413 L218,415 L221,416 L231,432 L232,436 L231,460 L228,499 L226,509 L226,545 L225,567 L223,584 L220,587 L215,586 L205,577 L195,569 L177,558 L166,551 L158,544 L145,536 L135,530 L112,516 L107,512 L97,505 L85,498 L72,489 L65,486 L60,478 L55,462 L52,448 L49,439 L47,430 L43,423 L41,413 L38,401 L34,391 L28,372 L23,355 L19,342 L14,325 L5,296 L4,295 L1,281 L-3,268 L-7,255 L-13,235 L-19,215 L-23,204 L-25,195 L-32,171 L-38,153 L-43,138 L-46,124 L-50,112 L-55,96 L-57,82 L-56,68 L-54,64 L-52,54 L-47,39 L-38,25 L-31,17 L-22,11 L-16,8 L-10,4 Z M-41,86 L-43,88 L-42,93 L-40,95 L-36,94 L-35,91 L-39,86 Z M31,300 L32,305 L36,306 L36,301 Z M50,355 L48,359 L50,363 L55,362 L54,357 Z M104,358 L103,359 L103,364 L108,365 L109,360 Z M161,360 Z M63,410 L61,414 L65,418 L69,418 L70,414 L67,410 Z M187,410 L186,415 L188,417 L192,416 L191,411 Z " fill="#000000" transform="translate(863,37)"/>
<path d="M0,0 L16,0 L36,4 L43,7 L51,10 L57,14 L62,17 L71,26 L79,44 L80,45 L82,57 L83,59 L83,95 L82,98 L80,128 L81,144 L84,158 L88,166 L95,175 L100,178 L114,178 L124,174 L137,165 L148,158 L160,150 L172,140 L177,137 L182,132 L198,122 L212,114 L222,110 L230,108 L232,107 L243,106 L252,106 L265,108 L274,112 L282,119 L288,127 L293,138 L296,151 L296,198 L299,209 L304,214 L314,214 L333,212 L343,210 L349,209 L364,209 L381,214 L396,223 L402,231 L403,232 L405,242 L404,253 L395,263 L391,267 L387,268 L385,273 L368,285 L364,287 L359,286 L360,282 L370,271 L376,263 L380,258 L380,249 L384,247 L383,240 L380,235 L371,231 L366,228 L354,229 L347,232 L341,234 L331,236 L317,239 L310,239 L298,237 L289,232 L282,225 L277,220 L268,207 L266,203 L264,191 L263,190 L263,180 L266,155 L269,146 L269,138 L265,128 L257,121 L254,120 L237,120 L224,125 L209,133 L201,138 L191,145 L180,152 L171,161 L160,168 L153,174 L145,178 L133,186 L121,191 L116,193 L102,193 L92,191 L84,185 L75,176 L67,163 L62,151 L59,135 L56,83 L53,59 L45,39 L38,31 L27,26 L20,24 L2,24 L-6,27 L-16,33 L-27,42 L-33,47 L-35,47 L-37,52 L-45,64 L-49,75 L-51,82 L-51,107 L-47,122 L-43,134 L-41,144 L-34,164 L-31,177 L-29,191 L-28,211 L-30,221 L-31,232 L-36,253 L-39,262 L-45,277 L-48,284 L-51,288 L-54,295 L-57,299 L-60,304 L-69,316 L-76,326 L-82,334 L-90,344 L-97,355 L-104,365 L-114,381 L-122,394 L-128,403 L-131,409 L-136,421 L-141,431 L-144,438 L-147,448 L-149,458 L-151,466 L-152,483 L-146,509 L-138,524 L-132,533 L-130,534 L-131,538 L-138,537 L-147,530 L-155,521 L-163,508 L-168,495 L-169,488 L-169,471 L-165,450 L-162,436 L-157,419 L-153,409 L-146,395 L-138,379 L-130,366 L-125,358 L-122,353 L-113,339 L-103,325 L-97,315 L-86,296 L-80,285 L-75,274 L-71,266 L-65,248 L-61,231 L-60,222 L-59,209 L-59,175 L-62,162 L-65,152 L-71,133 L-79,109 L-81,97 L-82,95 L-82,68 L-77,58 L-74,50 L-66,38 L-58,27 L-40,15 L-29,8 L-20,4 Z " fill="#000000" transform="translate(364,39)"/>
<path d="M0,0 L5,0 L7,3 L14,29 L19,44 L19,56 L16,66 L15,70 L14,83 L14,98 L17,115 L23,135 L29,146 L39,157 L47,164 L56,170 L61,178 L65,201 L67,207 L66,212 L64,214 L59,213 L52,207 L27,194 L15,183 L12,181 L12,179 L8,177 L4,173 L-7,159 L-13,150 L-21,134 L-23,129 L-25,120 L-27,110 L-28,102 L-29,91 L-29,77 L-26,57 L-23,45 L-18,32 L-16,26 L-12,18 L-9,15 L-3,4 Z " fill="#000000" transform="translate(833,259)"/>
<path d="M0,0 L4,2 L3,6 L-2,5 L-1,1 Z " fill="#000000" transform="translate(776,270)"/>
<path d="M0,0 L6,0 L7,5 L2,20 L-3,34 L-7,43 L-11,56 L-16,68 L-19,76 L-25,92 L-34,118 L-38,127 L-43,140 L-49,156 L-56,174 L-63,195 L-67,204 L-71,212 L-78,232 L-86,252 L-91,265 L-99,283 L-104,284 L-120,279 L-121,278 L-131,276 L-145,273 L-148,271 L-156,269 L-168,266 L-184,262 L-193,259 L-201,257 L-212,254 L-222,251 L-229,248 L-235,247 L-241,246 L-248,243 L-257,240 L-267,239 L-275,235 L-284,233 L-294,230 L-310,225 L-318,222 L-329,219 L-354,212 L-365,209 L-373,206 L-382,204 L-395,199 L-407,196 L-408,192 L-405,189 L-394,184 L-376,174 L-366,170 L-352,163 L-342,158 L-333,155 L-323,150 L-305,142 L-290,134 L-280,130 L-255,118 L-243,113 L-236,109 L-226,105 L-217,101 L-201,93 L-188,87 L-170,79 L-151,69 L-136,63 L-119,54 L-107,49 L-98,45 L-86,40 L-70,32 L-42,19 L-13,6 Z M-131,214 L-139,217 L-143,221 L-141,231 L-135,239 L-125,244 L-120,243 L-115,235 L-114,228 L-118,220 L-124,215 Z " fill="#000000" transform="translate(672,333)"/>
<path d="M0,0 L5,0 L16,12 L23,20 L33,33 L44,47 L52,58 L60,66 L64,72 L68,77 L77,88 L82,94 L87,99 L97,113 L104,121 L109,126 L116,136 L125,146 L131,154 L140,165 L147,173 L156,184 L162,192 L167,197 L175,207 L180,212 L185,219 L190,224 L196,232 L203,238 L212,250 L223,263 L230,272 L235,277 L239,283 L237,288 L231,293 L213,301 L204,305 L195,309 L172,320 L164,324 L157,327 L131,339 L115,347 L103,352 L80,363 L69,368 L61,372 L55,375 L48,378 L30,386 L15,394 L0,401 L-29,414 L-51,424 L-60,428 L-69,433 L-76,435 L-109,451 L-118,455 L-146,468 L-158,474 L-165,477 L-177,483 L-194,490 L-210,498 L-237,511 L-250,516 L-266,524 L-273,527 L-281,531 L-297,539 L-311,545 L-323,551 L-344,561 L-363,569 L-372,570 L-376,572 L-380,571 L-382,569 L-383,539 L-386,523 L-392,478 L-394,470 L-395,456 L-399,427 L-402,410 L-405,383 L-409,362 L-415,319 L-418,301 L-422,271 L-424,262 L-428,234 L-430,224 L-430,208 L-429,207 L-422,207 L-410,211 L-398,214 L-387,218 L-378,220 L-376,221 L-364,223 L-345,229 L-333,232 L-323,236 L-317,238 L-307,239 L-295,244 L-281,247 L-266,252 L-258,254 L-242,258 L-239,260 L-230,261 L-217,266 L-207,268 L-187,274 L-173,279 L-160,282 L-155,284 L-140,287 L-132,290 L-118,294 L-113,292 L-107,278 L-101,264 L-93,242 L-87,226 L-84,216 L-79,203 L-74,193 L-70,180 L-64,164 L-61,157 L-53,138 L-50,129 L-47,122 L-41,106 L-38,97 L-29,73 L-24,61 L-21,53 L-16,38 L-11,27 L-4,7 Z " fill="#000000" transform="translate(697,345)"/>
<path d="M0,0 L14,1 L35,1 L50,6 L59,8 L75,14 L91,22 L101,28 L107,32 L121,45 L128,54 L134,63 L139,72 L140,79 L142,82 L144,90 L147,102 L148,111 L149,142 L148,198 L146,214 L145,234 L143,239 L141,252 L137,268 L135,280 L130,306 L125,325 L124,344 L120,353 L116,368 L113,380 L104,392 L94,403 L89,408 L81,418 L74,425 L69,433 L61,440 L55,448 L47,455 L39,465 L35,471 L30,477 L20,484 L17,488 L12,487 L7,475 L3,461 L1,457 L-4,436 L-8,420 L-16,393 L-17,391 L-17,378 L-7,360 L3,342 L11,326 L15,320 L19,312 L28,297 L41,270 L48,258 L52,249 L60,233 L63,226 L65,220 L73,201 L77,195 L82,182 L86,173 L94,148 L98,139 L100,129 L100,111 L99,94 L93,76 L87,67 L78,57 L69,51 L50,42 L44,40 L22,38 L16,34 L9,24 L1,13 L-4,7 L-3,2 Z " fill="#000000" transform="translate(1061,397)"/>
<path d="M0,0 L68,0 L92,1 L113,0 L148,1 L209,1 L216,0 L220,1 L317,2 L373,3 L401,3 L489,4 L524,4 L570,5 L642,5 L756,6 L838,7 L926,8 L1011,9 L1079,9 L1237,11 L1280,11 L1346,12 L1349,14 L1348,18 L1341,19 L1287,19 L1199,18 L1150,18 L1103,17 L1072,17 L1039,16 L963,16 L885,15 L859,15 L854,14 L736,14 L708,13 L665,13 L603,12 L517,12 L490,11 L456,11 L386,10 L344,10 L206,9 L173,8 L171,9 L147,8 L136,9 L120,9 L118,8 L105,8 L88,9 L66,8 L59,7 L0,7 Z " fill="#000000" transform="translate(0,1029)"/>
<path d="M0,0 L38,0 L38,7 L1,7 L-2,5 Z " fill="#000000" transform="translate(1354,1041)"/>
</svg>
