<?xml version="1.0" encoding="UTF-8"?>
<!-- Generator: visioncortex VTracer 0.6.12 -->
<svg version="1.1" xmlns="http://www.w3.org/2000/svg" width="1080" height="996">
<path d="M0,0 L12,0 L12,192 L13,311 L13,485 L12,615 L10,683 L9,778 L9,953 L6,960 L2,962 L-4,961 L-103,960 L-186,959 L-239,959 L-272,958 L-401,957 L-458,956 L-501,956 L-529,955 L-754,954 L-801,953 L-834,953 L-915,952 L-1024,951 L-1047,950 L-1047,938 L-916,939 L-872,939 L-847,940 L-694,942 L-557,942 L-482,944 L-416,944 L-378,945 L-339,945 L-327,946 L-317,945 L-281,946 L-196,946 L-191,947 L-188,946 L-179,946 L-166,947 L-125,946 L-30,946 L-25,947 L-7,947 L-7,922 L-6,864 L-6,788 L-5,770 L-4,721 L-2,647 L-1,619 L0,506 L2,494 L0,489 L0,439 L1,326 L0,316 L0,229 L-1,127 L-1,2 Z " fill="#000000" transform="translate(1047,0)"/>
<path d="M0,0 L11,1 L26,8 L36,17 L46,27 L53,33 L60,41 L74,55 L79,60 L88,69 L93,74 L99,79 L106,87 L111,91 L118,99 L131,112 L136,117 L144,124 L151,132 L167,147 L172,152 L185,165 L192,173 L198,181 L201,186 L203,194 L203,211 L199,222 L191,233 L178,246 L172,253 L166,258 L161,263 L155,263 L144,254 L131,241 L131,239 L127,237 L85,195 L79,190 L74,185 L60,171 L55,166 L50,162 L43,154 L25,136 L17,129 L4,116 L-3,110 L-8,104 L-16,97 L-27,86 L-35,79 L-35,77 L-39,75 L-50,64 L-55,59 L-62,51 L-61,46 L-58,41 L-53,36 L-47,30 L-45,30 L-43,26 L-38,21 L-26,9 L-14,3 L-8,1 Z " fill="#000000" transform="translate(396,35)"/>
<path d="M0,0 L20,0 L25,3 L25,50 L23,52 L9,53 L-30,53 L-79,54 L-91,65 L-95,70 L-97,70 L-99,74 L-132,107 L-136,112 L-144,119 L-160,135 L-167,143 L-174,149 L-181,157 L-186,162 L-196,171 L-206,181 L-211,186 L-226,201 L-237,210 L-246,215 L-249,222 L-255,229 L-263,236 L-268,242 L-273,247 L-282,255 L-289,263 L-297,271 L-302,276 L-309,284 L-314,289 L-318,293 L-320,293 L-322,297 L-379,354 L-383,359 L-385,359 L-387,363 L-396,372 L-404,379 L-429,404 L-436,412 L-439,413 L-441,417 L-466,442 L-471,447 L-483,460 L-489,465 L-496,473 L-510,487 L-517,495 L-519,495 L-521,499 L-532,510 L-539,518 L-555,534 L-560,539 L-570,549 L-577,557 L-590,570 L-595,575 L-626,606 L-630,607 L-638,600 L-672,566 L-677,561 L-691,547 L-698,539 L-703,534 L-714,524 L-716,518 L-705,506 L-688,489 L-685,486 L-680,486 L-673,492 L-666,500 L-659,506 L-654,511 L-647,518 L-639,525 L-632,531 L-627,530 L-617,521 L-608,513 L-603,507 L-597,502 L-590,494 L-583,486 L-568,471 L-566,471 L-564,467 L-553,457 L-548,451 L-540,444 L-532,436 L-530,436 L-528,432 L-520,423 L-515,418 L-489,392 L-485,387 L-480,382 L-476,378 L-474,378 L-474,376 L-467,370 L-461,363 L-454,357 L-447,349 L-433,334 L-426,328 L-419,320 L-407,308 L-400,300 L-392,293 L-381,282 L-374,274 L-369,270 L-364,264 L-359,260 L-354,255 L-345,245 L-337,238 L-318,219 L-309,213 L-304,208 L-300,202 L-296,200 L-288,190 L-280,183 L-275,179 L-273,176 L-271,176 L-269,172 L-258,161 L-250,154 L-245,149 L-235,139 L-230,134 L-222,125 L-217,120 L-173,76 L-166,68 L-140,42 L-133,34 L-127,27 L-119,20 L-107,7 L-102,3 L-95,1 L-46,1 Z " fill="#000000" transform="translate(911,89)"/>
<path d="M0,0 L5,2 L9,8 L17,15 L41,39 L48,47 L79,78 L84,83 L95,94 L100,99 L111,109 L115,114 L120,119 L131,129 L136,134 L144,142 L149,146 L154,151 L168,165 L170,166 L170,168 L174,170 L187,183 L192,188 L195,192 L197,197 L205,201 L212,207 L217,211 L218,217 L211,225 L186,250 L179,258 L162,275 L158,280 L150,287 L126,311 L122,316 L117,320 L112,325 L105,332 L100,337 L54,383 L50,384 L42,377 L29,365 L21,358 L16,353 L7,344 L2,339 L-5,331 L-12,325 L-17,320 L-99,238 L-99,236 L-103,234 L-109,227 L-111,226 L-111,224 L-115,222 L-133,204 L-135,199 L-142,196 L-150,189 L-160,180 L-167,172 L-167,167 L-152,151 L-144,144 L-137,135 L-139,129 L-146,121 L-158,108 L-162,102 L-163,91 L-159,82 L-152,74 L-144,65 L-139,60 L-120,41 L-113,33 L-99,19 L-94,14 L-88,9 L-81,6 L-70,5 L-62,9 L-49,21 L-44,25 L-40,30 L-34,31 L-26,24 L-23,21 L-21,21 L-19,17 L-3,1 Z M-77,40 L-89,51 L-101,63 L-101,65 L-105,67 L-124,86 L-127,91 L-126,98 L-117,109 L-111,110 L-103,103 L-66,66 L-59,58 L-59,52 L-66,44 L-72,40 Z " fill="#000000" transform="translate(314,104)"/>
<path d="M0,0 L7,1 L13,6 L20,14 L31,22 L44,34 L49,39 L59,48 L64,54 L72,61 L114,103 L122,110 L136,124 L141,129 L146,134 L153,141 L161,148 L177,164 L182,169 L193,181 L202,192 L209,199 L216,207 L221,213 L220,218 L200,238 L193,246 L186,253 L170,261 L163,262 L152,262 L139,258 L128,250 L115,238 L105,229 L87,211 L79,204 L68,194 L68,192 L64,190 L48,174 L40,167 L5,132 L-3,125 L-7,120 L-15,113 L-23,105 L-30,97 L-39,88 L-44,78 L-46,71 L-47,56 L-44,46 L-38,36 L-27,24 L-13,11 L-8,9 L-2,9 L-3,3 Z " fill="#000000" transform="translate(123,295)"/>
<path d="M0,0 L19,1 L32,4 L51,13 L55,16 L57,22 L65,25 L73,34 L80,45 L86,61 L88,70 L88,98 L84,111 L76,127 L67,138 L59,146 L47,154 L33,160 L24,163 L17,164 L-3,164 L-17,161 L-30,156 L-40,150 L-51,141 L-59,133 L-66,122 L-71,113 L-75,99 L-77,86 L-77,74 L-74,57 L-70,47 L-66,39 L-58,29 L-48,18 L-35,10 L-21,4 L-8,1 Z M0,51 L-10,56 L-19,64 L-23,71 L-24,76 L-24,89 L-20,100 L-15,106 L-6,112 L3,115 L13,114 L22,111 L27,106 L32,101 L37,91 L37,75 L33,65 L23,55 L14,51 Z " fill="#000000" transform="translate(452,602)"/>
</svg>
