<?xml version="1.0" encoding="UTF-8"?>
<!-- Generator: visioncortex VTracer 0.6.12 -->
<svg version="1.1" xmlns="http://www.w3.org/2000/svg" width="1140" height="1131">
<path d="M0,0 L1140,0 L1140,1131 L0,1131 L0,1092 L2,1092 L1,1085 L0,1084 L0,1071 L1,1066 L1,1049 L2,1021 L1,1005 L0,1003 L0,992 L1,989 L1,981 L0,974 L0,303 L1,302 L1,297 L0,296 Z M785,16 L769,18 L761,22 L753,27 L744,33 L734,44 L726,56 L720,72 L720,97 L724,111 L728,120 L734,129 L743,139 L754,147 L770,154 L778,156 L803,156 L816,152 L830,145 L843,133 L850,124 L858,106 L860,94 L859,77 L857,67 L851,52 L844,42 L838,35 L824,25 L808,18 L796,16 Z M1068,28 L1069,34 L1071,34 L1071,29 Z M624,41 L611,46 L603,52 L598,57 L592,62 L592,64 L588,66 L582,73 L577,77 L570,85 L563,92 L556,100 L548,108 L541,116 L527,130 L520,138 L510,149 L505,154 L501,159 L493,166 L484,176 L479,181 L468,193 L461,201 L455,206 L447,217 L445,226 L445,237 L449,248 L458,258 L480,280 L482,280 L484,284 L499,298 L506,304 L511,310 L519,317 L530,328 L535,333 L542,340 L550,347 L559,355 L559,360 L551,365 L541,376 L537,381 L529,388 L519,398 L514,403 L505,413 L499,420 L491,427 L484,435 L476,442 L467,452 L453,467 L445,475 L438,483 L425,496 L418,504 L408,513 L406,517 L407,523 L412,529 L420,536 L443,559 L448,564 L452,566 L454,570 L463,578 L468,584 L476,591 L510,625 L515,630 L525,640 L529,641 L534,638 L564,608 L569,603 L574,597 L582,590 L591,580 L598,574 L603,569 L612,559 L617,554 L624,547 L631,539 L642,528 L649,520 L661,508 L666,503 L677,491 L684,482 L685,479 L690,480 L698,490 L703,495 L713,504 L726,517 L728,517 L730,521 L737,528 L744,534 L745,536 L747,536 L748,539 L756,546 L761,551 L779,569 L784,574 L799,588 L806,594 L813,602 L830,619 L838,626 L853,641 L855,641 L857,645 L865,652 L881,668 L889,675 L921,707 L929,714 L942,726 L950,731 L957,735 L970,736 L980,732 L992,721 L996,712 L997,707 L997,696 L994,688 L987,680 L979,672 L972,664 L967,659 L965,659 L963,655 L953,646 L946,640 L943,636 L941,636 L941,634 L939,634 L937,630 L929,623 L914,608 L909,603 L901,595 L893,588 L880,575 L872,568 L859,555 L851,548 L841,538 L836,533 L831,528 L821,519 L814,512 L807,506 L800,498 L792,491 L775,474 L767,467 L755,455 L747,448 L734,435 L726,428 L719,421 L711,414 L698,402 L692,395 L681,386 L674,378 L669,375 L657,363 L652,358 L626,332 L621,327 L613,320 L606,312 L597,303 L592,298 L569,275 L561,268 L549,256 L541,249 L530,238 L527,235 L528,231 L537,221 L542,216 L554,203 L554,201 L558,199 L565,191 L570,186 L576,179 L581,174 L591,164 L598,156 L613,140 L624,129 L631,121 L647,104 L657,93 L660,88 L662,77 L662,70 L657,56 L647,46 L639,42 L632,41 Z M760,267 L740,274 L730,280 L723,286 L717,294 L710,308 L706,326 L707,336 L708,347 L715,363 L727,378 L741,388 L758,394 L778,394 L790,391 L801,386 L811,378 L818,371 L825,359 L831,343 L831,315 L825,300 L817,289 L808,281 L804,277 L790,270 L779,267 Z M353,572 L345,579 L332,593 L325,602 L320,607 L298,629 L298,631 L294,633 L280,648 L275,652 L268,660 L263,665 L254,674 L247,682 L232,697 L225,705 L220,709 L214,719 L211,728 L212,741 L214,748 L220,758 L231,766 L240,770 L255,770 L264,766 L275,759 L282,752 L287,747 L295,738 L303,731 L310,723 L315,718 L330,703 L337,695 L356,676 L363,668 L380,651 L387,643 L399,631 L404,624 L403,618 L397,611 L389,604 L384,598 L376,591 L372,587 L367,582 L358,573 Z M428,646 L421,653 L414,661 L405,671 L400,676 L390,687 L385,691 L378,699 L354,723 L349,728 L334,744 L322,757 L313,766 L306,774 L298,782 L292,787 L285,795 L277,803 L272,808 L265,814 L256,825 L246,834 L238,844 L228,855 L220,862 L213,869 L206,877 L172,911 L165,919 L153,931 L146,939 L138,946 L131,954 L127,959 L119,966 L110,976 L98,988 L91,996 L81,1006 L76,1011 L72,1015 L69,1020 L69,1022 L67,1022 L62,1031 L60,1037 L60,1049 L64,1060 L71,1070 L80,1076 L86,1078 L98,1078 L106,1076 L115,1070 L128,1059 L133,1054 L145,1041 L158,1028 L162,1024 L167,1019 L176,1010 L181,1005 L192,993 L198,986 L206,979 L213,971 L220,964 L225,959 L234,949 L246,936 L251,931 L263,919 L263,917 L267,915 L278,903 L299,882 L299,880 L303,878 L309,871 L316,865 L323,857 L330,850 L332,845 L336,843 L345,834 L351,827 L356,822 L374,804 L379,799 L386,791 L394,784 L411,767 L418,759 L442,735 L449,727 L474,702 L478,696 L477,689 L473,684 L465,677 L459,672 L454,667 L449,662 L435,648 L432,646 Z " fill="#000000" transform="translate(0,0)"/>
<path d="M0,0 L20,0 L33,3 L42,9 L52,17 L60,28 L64,35 L67,44 L68,60 L66,72 L61,84 L53,95 L44,103 L29,111 L18,113 L6,113 L-10,109 L-22,102 L-32,93 L-39,83 L-44,70 L-45,63 L-45,47 L-40,32 L-32,18 L-25,11 L-18,6 Z " fill="#000000" transform="translate(779,30)"/>
</svg>
