<?xml version="1.0" encoding="UTF-8"?>
<!-- Generator: visioncortex VTracer 0.6.12 -->
<svg version="1.1" xmlns="http://www.w3.org/2000/svg" width="1095" height="1104">
<path d="M0,0 L1095,0 L1095,11 L1092,10 L1091,6 L1075,5 L1037,4 L78,4 L63,5 L14,5 L8,10 L6,20 L5,50 L4,69 L4,243 L3,486 L3,771 L2,799 L1,804 L0,804 Z " fill="#000000" transform="translate(0,0)"/>
<path d="M0,0 L1,0 L1,7 L-1,6 L-1,1 Z " fill="#000000" transform="translate(1094,138)"/>
<path d="M0,0 L1,0 L1,944 L-10,944 L-8,934 L-7,891 L-6,864 L-5,740 L-5,522 L-4,497 L-3,420 L-2,284 L-2,21 L-1,9 L-1,1 Z " fill="#000000" transform="translate(1094,160)"/>
<path d="M0,0 L10,0 L25,3 L40,8 L54,16 L59,20 L67,27 L74,35 L81,45 L87,58 L91,74 L93,82 L92,105 L88,121 L83,133 L74,147 L65,157 L57,164 L41,174 L31,178 L16,182 L2,183 L-12,182 L-32,177 L-51,167 L-65,155 L-75,144 L-84,127 L-87,119 L-90,102 L-90,81 L-86,63 L-81,51 L-72,37 L-62,25 L-53,18 L-38,9 L-28,5 L-19,2 Z M0,16 L-14,17 L-29,22 L-43,30 L-53,38 L-62,49 L-68,61 L-72,73 L-74,82 L-74,100 L-71,114 L-65,128 L-58,139 L-53,145 L-40,155 L-26,162 L-13,166 L1,167 L10,167 L27,163 L36,159 L45,154 L60,140 L66,132 L74,116 L77,104 L77,83 L74,68 L69,56 L66,51 L57,40 L49,32 L36,24 L25,19 L18,17 L10,16 Z " fill="#000000" transform="translate(555,178)"/>
<path d="M0,0 L29,0 L120,1 L178,1 L190,2 L222,2 L250,3 L309,4 L325,5 L327,7 L328,11 L328,40 L327,83 L324,88 L318,89 L238,88 L205,89 L203,93 L202,95 L200,160 L198,273 L197,311 L196,355 L196,419 L198,424 L208,425 L224,422 L240,418 L247,415 L260,411 L269,407 L283,402 L291,397 L307,389 L321,380 L334,371 L342,365 L354,355 L362,348 L364,348 L366,344 L376,334 L382,326 L390,317 L399,305 L407,294 L412,286 L419,285 L430,293 L443,301 L455,308 L466,315 L475,320 L483,326 L483,332 L471,351 L460,365 L451,376 L442,386 L428,401 L413,415 L405,422 L391,434 L382,440 L371,448 L357,457 L347,463 L324,475 L311,481 L301,485 L281,493 L263,499 L240,505 L221,509 L185,514 L122,514 L95,511 L61,504 L40,498 L9,487 L-9,479 L-25,471 L-46,460 L-55,454 L-73,442 L-81,436 L-94,426 L-102,419 L-115,407 L-123,399 L-131,392 L-138,384 L-147,374 L-156,362 L-165,350 L-180,327 L-181,319 L-178,316 L-170,312 L-156,304 L-137,294 L-129,289 L-115,281 L-114,280 L-107,281 L-100,293 L-94,301 L-82,317 L-70,331 L-60,341 L-55,346 L-41,359 L-29,368 L-17,377 L-3,386 L19,398 L41,408 L54,413 L67,417 L75,419 L98,424 L105,423 L108,419 L109,405 L110,370 L111,309 L112,272 L113,197 L114,143 L115,104 L113,91 L110,88 L106,87 L50,86 L-6,85 L-11,80 L-12,71 L-11,30 L-10,6 L-7,1 Z M225,9 Z M99,34 L97,37 L98,41 L100,43 L104,43 L106,38 L105,34 Z " fill="#000000" transform="translate(396,380)"/>
<path d="M0,0 L2,1 L0,2 Z " fill="#000000" transform="translate(387,685)"/>
<path d="M0,0 L2,2 L1,7 L0,7 Z " fill="#000000" transform="translate(0,805)"/>
<path d="M0,0 L2,2 L1,8 L0,8 Z " fill="#000000" transform="translate(0,820)"/>
<path d="M0,0 L2,3 L2,14 L0,16 Z " fill="#000000" transform="translate(0,857)"/>
<path d="M0,0 L2,2 L2,7 L0,7 Z " fill="#000000" transform="translate(0,916)"/>
<path d="M0,0 L2,1 L4,8 L14,10 L26,10 L27,12 L0,12 Z " fill="#000000" transform="translate(0,1092)"/>
<path d="M0,0 L6,0 L7,2 L-1,2 Z " fill="#000000" transform="translate(33,1102)"/>
<path d="M0,0 L27,0 L30,2 L-1,2 Z " fill="#000000" transform="translate(43,1102)"/>
<path d="M0,0 L24,1 L38,0 L57,1 L61,3 L-22,3 L-20,1 Z " fill="#000000" transform="translate(106,1101)"/>
<path d="M0,0 L23,0 L38,1 L47,1 L48,3 L-17,3 L-15,1 Z " fill="#000000" transform="translate(188,1101)"/>
<path d="M0,0 L22,1 L24,3 L-14,3 L-12,1 Z " fill="#000000" transform="translate(251,1101)"/>
<path d="M0,0 L37,0 L39,2 L-2,2 Z " fill="#000000" transform="translate(310,1102)"/>
<path d="M0,0 L4,1 Z " fill="#000000" transform="translate(75,1103)"/>
<path d="M0,0 L8,1 L8,2 L-4,2 Z " fill="#000000" transform="translate(288,1102)"/>
<path d="M0,0 L7,0 L7,1 L0,1 Z " fill="#000000" transform="translate(297,1103)"/>
<path d="M0,0 L4,2 L-3,2 Z " fill="#000000" transform="translate(359,1102)"/>
<path d="M0,0 L4,1 Z " fill="#000000" transform="translate(374,1103)"/>
</svg>
