<?xml version="1.0" encoding="UTF-8"?>
<!-- Generator: visioncortex VTracer 0.6.12 -->
<svg version="1.1" xmlns="http://www.w3.org/2000/svg" width="1086" height="966">
<path d="M0,0 L22,0 L32,2 L41,9 L46,12 L58,21 L64,28 L64,30 L68,32 L75,40 L82,48 L86,54 L96,65 L102,73 L110,81 L116,89 L124,98 L131,106 L133,111 L137,113 L143,121 L152,131 L161,142 L172,154 L179,163 L185,171 L192,179 L200,191 L199,196 L183,205 L171,210 L159,215 L149,220 L128,229 L121,232 L102,241 L95,244 L88,246 L69,256 L57,260 L41,268 L24,275 L8,283 L-7,289 L-12,292 L-20,295 L-30,300 L-39,303 L-55,311 L-64,315 L-75,320 L-89,327 L-91,329 L-101,331 L-117,338 L-127,343 L-130,345 L-139,348 L-148,352 L-156,356 L-162,356 L-164,354 L-167,340 L-169,321 L-171,306 L-173,295 L-176,270 L-179,258 L-182,234 L-188,191 L-191,177 L-193,152 L-195,140 L-195,119 L-190,102 L-184,92 L-180,87 L-167,77 L-160,74 L-152,73 L-136,73 L-129,74 L-128,75 L-118,77 L-104,86 L-94,94 L-87,99 L-80,102 L-68,103 L-54,99 L-46,93 L-42,88 L-39,83 L-36,69 L-35,32 L-31,22 L-25,13 L-19,6 L-10,1 Z " fill="#000000" transform="translate(290,35)"/>
<path d="M0,0 L12,0 L37,5 L57,16 L67,25 L77,33 L86,44 L93,53 L101,69 L106,79 L109,93 L111,105 L111,120 L109,135 L105,148 L97,164 L93,171 L88,176 L81,184 L72,192 L61,199 L49,204 L38,207 L27,208 L25,209 L10,208 L0,206 L-18,199 L-28,191 L-36,184 L-43,175 L-50,164 L-53,156 L-56,139 L-55,118 L-52,109 L-49,102 L-41,91 L-35,83 L-27,75 L-18,69 L-14,70 L-15,75 L-19,80 L-28,94 L-32,107 L-34,121 L-34,133 L-32,142 L-28,150 L-20,161 L-10,171 L4,177 L17,179 L33,179 L47,173 L57,167 L63,162 L69,153 L77,137 L81,120 L81,91 L77,77 L74,68 L70,60 L63,51 L54,39 L46,33 L39,28 L30,26 L29,25 L10,22 L1,22 L-10,23 L-27,28 L-39,33 L-50,40 L-62,49 L-73,60 L-82,74 L-88,89 L-93,101 L-98,120 L-100,143 L-100,160 L-97,184 L-93,199 L-88,211 L-76,231 L-60,248 L-55,253 L-52,255 L-52,257 L-48,259 L-43,264 L-31,275 L-23,281 L-8,292 L10,303 L33,315 L52,325 L73,336 L84,342 L98,350 L113,359 L122,364 L130,368 L136,370 L143,370 L149,367 L159,362 L180,352 L188,347 L205,338 L220,330 L231,324 L235,325 L238,328 L245,344 L245,351 L240,356 L230,362 L217,368 L198,378 L182,386 L176,390 L170,392 L154,400 L140,407 L135,410 L125,414 L115,419 L99,427 L72,441 L51,451 L42,455 L30,461 L15,469 L-1,476 L-15,484 L-30,492 L-43,498 L-61,506 L-70,511 L-79,515 L-93,522 L-100,525 L-116,533 L-139,545 L-155,553 L-165,558 L-172,561 L-177,564 L-197,574 L-207,579 L-217,584 L-233,592 L-252,601 L-274,613 L-286,618 L-290,622 L-299,626 L-304,625 L-315,610 L-316,605 L-312,600 L-300,595 L-283,586 L-277,583 L-268,578 L-249,568 L-233,560 L-229,557 L-230,546 L-226,545 L-223,548 L-221,548 L-222,508 L-223,476 L-223,464 L-219,460 L-203,452 L-187,444 L-177,438 L-161,430 L-142,421 L-132,414 L-118,407 L-99,397 L-83,389 L-70,381 L-54,373 L-32,361 L-11,349 L5,341 L17,334 L19,332 L19,327 L14,325 L6,320 L-5,314 L-9,310 L-23,303 L-31,297 L-39,291 L-46,285 L-58,276 L-64,271 L-69,266 L-75,259 L-80,255 L-86,247 L-90,243 L-96,234 L-104,217 L-108,207 L-115,188 L-117,173 L-118,162 L-118,130 L-116,107 L-112,91 L-108,82 L-105,73 L-95,54 L-81,39 L-70,29 L-63,23 L-55,19 L-38,9 L-30,6 L-22,4 L-10,1 Z M-110,445 Z " fill="#000000" transform="translate(809,99)"/>
<path d="M0,0 L5,0 L18,8 L28,13 L29,19 L25,27 L17,36 L15,36 L13,40 L6,48 L-5,57 L-12,63 L-14,63 L-16,67 L-24,73 L-30,76 L-38,82 L-44,86 L-55,92 L-63,98 L-66,100 L-73,102 L-92,112 L-109,120 L-125,128 L-140,135 L-159,145 L-174,152 L-183,156 L-196,162 L-203,165 L-219,173 L-231,179 L-246,186 L-255,190 L-265,195 L-275,200 L-302,212 L-317,219 L-338,229 L-345,232 L-355,237 L-368,242 L-379,246 L-393,251 L-402,254 L-432,264 L-442,267 L-448,268 L-456,271 L-472,274 L-481,274 L-493,276 L-495,277 L-524,278 L-546,276 L-558,275 L-562,274 L-565,271 L-566,269 L-566,258 L-561,243 L-555,240 L-538,242 L-531,243 L-506,243 L-480,240 L-468,236 L-467,234 L-467,219 L-470,200 L-472,187 L-471,179 L-466,175 L-456,171 L-444,165 L-432,160 L-424,156 L-405,147 L-376,135 L-363,128 L-355,125 L-347,121 L-334,116 L-304,103 L-292,97 L-279,92 L-264,85 L-253,80 L-245,77 L-215,63 L-197,55 L-187,51 L-175,45 L-158,38 L-141,30 L-131,26 L-121,22 L-104,14 L-103,13 L-98,13 L-89,24 L-81,32 L-73,43 L-64,53 L-62,55 L-54,54 L-46,47 L-35,38 L-27,32 L-13,18 L-6,8 Z " fill="#000000" transform="translate(601,227)"/>
<path d="M0,0 L4,1 L6,5 L7,29 L7,79 L6,132 L7,137 L8,153 L10,219 L11,305 L12,336 L14,360 L15,381 L17,390 L19,403 L21,412 L24,417 L31,430 L36,436 L47,443 L57,448 L67,450 L74,452 L81,454 L99,454 L150,453 L158,453 L160,456 L161,461 L161,474 L159,494 L155,496 L143,497 L118,497 L48,499 L4,499 L-18,500 L-37,500 L-53,501 L-75,501 L-102,502 L-144,503 L-168,503 L-176,500 L-178,470 L-178,460 L-177,459 L-154,458 L-133,458 L-114,457 L-96,455 L-81,451 L-74,448 L-60,439 L-53,432 L-49,426 L-43,416 L-41,411 L-38,397 L-38,250 L-39,198 L-39,170 L-40,160 L-40,119 L-41,29 L-39,22 L-30,18 L-16,11 L-3,2 Z " fill="#000000" transform="translate(331,429)"/>
<path d="M0,0 L3,1 L2,6 L-1,6 L-2,2 Z " fill="#000000" transform="translate(111,434)"/>
<path d="M0,0 L4,1 L5,2 L6,9 L7,46 L7,189 L8,231 L11,252 L17,260 L27,268 L47,275 L57,276 L81,276 L105,277 L112,280 L113,287 L115,316 L111,321 L81,322 L68,322 L65,323 L30,323 L24,324 L10,324 L-20,325 L-38,325 L-95,327 L-134,327 L-137,324 L-137,292 L-134,284 L-124,281 L-93,281 L-78,280 L-65,277 L-56,272 L-48,266 L-44,262 L-42,262 L-40,257 L-34,244 L-33,241 L-33,128 L-32,28 L-31,19 L-27,14 L-12,6 Z " fill="#000000" transform="translate(794,591)"/>
</svg>
