<?xml version="1.0" encoding="UTF-8"?>
<!-- Generator: visioncortex VTracer 0.6.12 -->
<svg version="1.1" xmlns="http://www.w3.org/2000/svg" width="1164" height="1302">
<path d="M0,0 L986,0 L989,2 L989,0 L1164,0 L1164,60 L1078,60 L1072,59 L1061,60 L627,60 L592,59 L332,59 L319,60 L314,58 L302,59 L297,58 L290,58 L284,59 L277,58 L266,59 L259,57 L207,58 L103,58 L54,57 L0,57 Z " fill="#000000" transform="translate(0,0)"/>
<path d="M0,0 L6,0 L11,5 L30,24 L35,28 L42,36 L65,59 L70,63 L75,68 L81,75 L89,82 L114,107 L122,114 L122,116 L125,117 L129,122 L134,127 L179,172 L184,177 L191,184 L196,188 L201,193 L210,204 L217,210 L224,218 L231,225 L236,230 L258,252 L263,257 L275,269 L280,274 L319,313 L324,318 L335,330 L398,393 L398,395 L402,397 L407,402 L418,414 L425,420 L432,429 L440,436 L440,438 L444,440 L452,448 L452,450 L456,452 L468,464 L475,472 L485,481 L485,483 L489,485 L494,491 L499,495 L504,501 L508,504 L508,506 L511,507 L518,515 L541,538 L548,546 L556,554 L556,560 L549,568 L523,594 L515,601 L503,614 L495,622 L487,629 L478,638 L473,643 L462,654 L455,662 L439,678 L434,683 L423,694 L418,700 L415,703 L413,703 L411,707 L371,747 L366,752 L361,757 L352,767 L266,853 L261,858 L254,865 L249,870 L241,879 L236,884 L226,894 L221,899 L216,904 L207,913 L200,921 L147,974 L142,979 L71,1050 L65,1057 L60,1062 L41,1081 L33,1088 L31,1091 L29,1091 L27,1095 L17,1104 L12,1109 L6,1116 L-1,1115 L-10,1105 L-22,1093 L-24,1092 L-24,1090 L-27,1089 L-33,1082 L-41,1075 L-42,1072 L-46,1070 L-53,1063 L-58,1058 L-73,1042 L-122,993 L-127,988 L-141,973 L-162,952 L-167,946 L-175,939 L-228,886 L-233,881 L-302,812 L-310,805 L-315,800 L-324,791 L-329,786 L-334,781 L-343,772 L-351,765 L-357,759 L-357,757 L-359,757 L-363,752 L-365,751 L-365,743 L-362,744 L-355,752 L-319,788 L-311,795 L-295,811 L-287,818 L-283,822 L-283,824 L-279,826 L-256,849 L-251,854 L-244,862 L-236,869 L-231,874 L-222,884 L-214,891 L-202,903 L-202,905 L-200,905 L-193,913 L-187,918 L-187,920 L-183,922 L-172,934 L-166,939 L-166,941 L-162,943 L-157,948 L-157,950 L-153,952 L-151,956 L-147,958 L-145,962 L-141,964 L-139,968 L-136,969 L-136,971 L-132,973 L-122,984 L-122,986 L-118,988 L-101,1005 L-96,1010 L-56,1050 L-49,1058 L-44,1063 L-34,1072 L-28,1079 L-20,1086 L0,1106 L4,1107 L12,1100 L28,1084 L30,1084 L32,1080 L35,1079 L37,1075 L49,1064 L53,1059 L61,1052 L71,1042 L76,1037 L144,969 L149,964 L164,949 L171,941 L179,934 L200,913 L209,902 L261,850 L262,848 L264,848 L266,844 L272,839 L279,831 L283,827 L285,827 L287,823 L357,753 L364,745 L369,740 L421,688 L428,680 L465,643 L470,638 L478,630 L480,630 L482,626 L492,617 L497,611 L499,611 L501,607 L520,588 L528,581 L546,563 L548,559 L547,554 L542,548 L536,543 L529,535 L522,528 L522,526 L518,524 L501,507 L501,505 L497,503 L490,496 L486,491 L481,486 L474,479 L466,472 L456,461 L450,456 L450,454 L447,453 L447,451 L444,450 L444,448 L440,446 L385,391 L378,383 L365,370 L358,362 L349,354 L344,349 L339,343 L331,336 L324,328 L300,304 L295,299 L276,280 L272,275 L264,268 L254,258 L247,250 L235,238 L230,233 L205,208 L201,203 L196,198 L155,157 L153,156 L153,154 L149,152 L147,148 L144,147 L137,139 L123,125 L118,121 L111,113 L99,101 L93,96 L88,91 L64,67 L59,62 L53,57 L53,55 L49,53 L44,48 L39,43 L6,10 L2,9 L-8,17 L-13,23 L-19,28 L-25,35 L-33,42 L-39,49 L-47,56 L-157,166 L-163,171 L-168,177 L-173,182 L-196,205 L-204,212 L-271,279 L-276,284 L-288,295 L-363,370 L-365,370 L-365,361 L-357,354 L-281,278 L-279,278 L-277,274 L-270,268 L-265,263 L-227,225 L-219,218 L-212,210 L-200,199 L-195,193 L-187,186 L-172,171 L-167,166 L-2,1 Z " fill="#000000" transform="translate(365,153)"/>
<path d="M0,0 L21,0 L34,4 L42,8 L47,11 L58,10 L84,4 L97,2 L102,0 L116,0 L125,4 L130,9 L134,15 L133,24 L130,30 L123,36 L109,41 L95,44 L70,49 L58,52 L54,56 L48,64 L38,74 L24,83 L8,88 L-11,91 L-17,93 L-29,95 L-68,103 L-77,104 L-81,106 L-90,107 L-103,110 L-114,112 L-119,114 L-133,116 L-151,120 L-163,122 L-179,125 L-189,127 L-195,129 L-208,131 L-229,135 L-252,139 L-258,141 L-274,144 L-299,149 L-326,155 L-345,158 L-361,161 L-386,166 L-398,169 L-408,171 L-424,173 L-441,173 L-447,169 L-452,162 L-456,151 L-460,128 L-460,114 L-457,102 L-453,96 L-444,90 L-435,87 L-423,85 L-398,80 L-379,76 L-357,72 L-317,64 L-299,60 L-283,57 L-255,51 L-241,49 L-193,39 L-168,34 L-153,31 L-144,29 L-131,26 L-111,23 L-106,21 L-96,20 L-91,18 L-80,16 L-75,15 L-54,11 L-44,9 L-15,3 Z " fill="#000000" transform="translate(470,444)"/>
<path d="M0,0 L1,0 L1,8 L-7,15 L-56,64 L-66,72 L-75,82 L-79,84 L-81,88 L-85,93 L-93,100 L-99,107 L-98,112 L-84,127 L-67,144 L-60,152 L-25,187 L-18,195 L-11,201 L-4,209 L1,213 L1,219 L-2,219 L-9,211 L-30,190 L-37,182 L-43,177 L-50,169 L-81,138 L-88,130 L-95,122 L-101,117 L-107,110 L-106,106 L-99,98 L-87,86 L-82,81 L-77,76 L-67,66 L-59,59 L-16,16 L-11,11 L-2,1 Z " fill="#000000" transform="translate(1163,600)"/>
<path d="M0,0 L2,0 L2,3 L0,3 Z " fill="#000000" transform="translate(952,673)"/>
<path d="M0,0 L11,0 L21,4 L25,9 L29,17 L30,21 L30,99 L25,107 L21,112 L15,116 L11,117 L2,117 L-6,114 L-6,3 Z M4,16 L1,22 L1,91 L3,99 L5,101 L10,100 L12,97 L13,55 L12,21 L9,16 Z " fill="#000000" transform="translate(6,677)"/>
<path d="M0,0 L12,0 L16,4 L21,19 L24,28 L27,39 L27,41 L31,41 L31,6 L33,1 L35,0 L44,0 L48,3 L49,8 L49,23 L50,56 L50,110 L46,114 L39,115 L34,112 L30,101 L23,80 L19,67 L15,66 L15,109 L12,114 L10,115 L0,115 L-2,112 L-3,95 L-3,3 Z " fill="#000000" transform="translate(46,677)"/>
<path d="M0,0 L30,0 L35,3 L35,12 L32,16 L23,16 L15,17 L14,18 L13,41 L14,46 L24,46 L28,49 L28,61 L24,64 L14,65 L13,73 L13,107 L10,114 L9,115 L-2,115 L-4,114 L-5,111 L-5,3 Z " fill="#000000" transform="translate(140,677)"/>
<path d="M0,0 L9,0 L12,1 L13,3 L14,58 L14,96 L17,99 L29,99 L34,101 L37,101 L40,84 L43,61 L47,36 L50,10 L53,2 L57,0 L70,0 L75,5 L80,36 L83,62 L85,72 L88,96 L88,114 L86,115 L74,115 L71,110 L69,95 L67,92 L60,92 L57,98 L55,112 L52,115 L-1,115 L-4,112 L-5,107 L-5,12 L-3,2 Z M61,55 L60,71 L62,73 L66,72 L67,71 L66,59 L64,55 Z " fill="#000000" transform="translate(185,677)"/>
<path d="M0,0 L12,0 L17,3 L20,15 L25,42 L25,44 L29,44 L34,15 L37,3 L40,1 L57,1 L59,4 L60,74 L60,101 L59,112 L56,115 L46,115 L43,112 L42,64 L41,64 L38,75 L36,92 L33,108 L30,114 L25,115 L23,114 L20,104 L17,83 L15,67 L12,68 L12,106 L10,114 L8,116 L-2,115 L-5,110 L-6,66 L-6,5 L-3,1 Z " fill="#000000" transform="translate(284,677)"/>
<path d="M0,0 L14,0 L18,2 L21,12 L23,24 L25,30 L27,43 L28,45 L30,45 L31,43 L34,23 L38,5 L42,0 L57,0 L61,3 L62,81 L61,112 L57,115 L48,115 L45,111 L45,66 L42,67 L38,87 L36,101 L33,113 L31,115 L26,114 L24,112 L22,105 L20,89 L18,76 L15,67 L13,69 L13,112 L10,115 L0,115 L-2,113 L-4,102 L-4,7 L-2,1 Z " fill="#000000" transform="translate(353,677)"/>
<path d="M0,0 L15,0 L18,5 L20,12 L22,29 L25,50 L27,64 L30,85 L32,100 L32,112 L29,115 L19,115 L15,111 L14,108 L12,93 L11,92 L2,92 L0,99 L-1,108 L-4,114 L-6,115 L-16,115 L-19,113 L-19,100 L-17,88 L-15,70 L-9,25 L-5,3 Z M6,54 L4,56 L3,71 L5,73 L9,72 L10,66 L9,56 Z " fill="#000000" transform="translate(439,677)"/>
<path d="M0,0 L23,0 L31,2 L37,6 L43,15 L44,22 L44,33 L42,45 L38,51 L38,56 L43,62 L46,76 L46,87 L43,101 L39,107 L29,113 L21,115 L2,115 L-2,111 L-3,64 L-3,14 L-2,2 Z M17,16 L16,17 L15,30 L15,43 L17,46 L23,45 L27,37 L27,24 L23,17 Z M18,63 L16,65 L15,93 L17,97 L24,97 L28,92 L28,73 L24,65 Z " fill="#000000" transform="translate(479,677)"/>
<path d="M0,0 L9,0 L13,5 L14,23 L14,96 L15,99 L31,99 L34,102 L34,112 L31,115 L-2,115 L-5,112 L-5,3 Z " fill="#000000" transform="translate(535,677)"/>
<path d="M0,0 L32,0 L36,3 L36,14 L33,17 L17,17 L14,21 L14,43 L17,46 L26,47 L29,51 L30,60 L27,64 L17,65 L15,66 L14,78 L14,97 L23,98 L32,98 L36,100 L37,102 L37,112 L33,115 L0,115 L-4,110 L-5,85 L-4,4 Z " fill="#000000" transform="translate(578,677)"/>
<path d="M0,0 L14,0 L23,6 L28,14 L30,20 L30,37 L26,40 L16,39 L13,35 L12,20 L9,16 L4,17 L2,23 L2,81 L3,97 L6,100 L10,99 L13,90 L12,72 L8,70 L6,66 L7,59 L10,56 L27,56 L30,59 L31,61 L31,100 L30,112 L27,115 L22,114 L19,111 L14,112 L6,116 L-1,116 L-9,111 L-13,104 L-16,93 L-16,20 L-12,9 L-8,4 Z " fill="#000000" transform="translate(673,677)"/>
<path d="M0,0 L16,0 L19,2 L21,8 L28,61 L30,74 L32,91 L35,111 L32,115 L19,115 L16,110 L13,93 L12,92 L5,92 L3,95 L0,113 L-3,115 L-15,115 L-17,113 L-17,101 L-13,71 L-11,55 L-9,39 L-5,9 L-3,2 Z M7,58 L5,65 L6,72 L9,73 L11,72 L12,67 L11,59 Z " fill="#000000" transform="translate(726,677)"/>
<path d="M0,0 L14,0 L22,5 L26,11 L28,24 L28,29 L24,32 L15,32 L12,29 L11,20 L8,16 L3,17 L1,22 L2,30 L5,39 L12,49 L19,59 L25,69 L28,76 L30,85 L29,96 L26,105 L18,113 L12,116 L-1,116 L-10,111 L-15,104 L-18,94 L-18,85 L-14,81 L-2,81 L0,84 L1,95 L4,99 L9,98 L11,93 L10,84 L7,76 L3,70 L-2,61 L-9,51 L-15,39 L-17,30 L-17,21 L-13,10 L-8,4 Z " fill="#000000" transform="translate(780,677)"/>
<path d="M0,0 L18,0 L20,4 L19,12 L13,15 L2,15 L-2,12 L-2,2 Z " fill="#000000" transform="translate(107,741)"/>
</svg>
