<?xml version="1.0" encoding="UTF-8"?>
<!-- Generator: visioncortex VTracer 0.6.12 -->
<svg version="1.1" xmlns="http://www.w3.org/2000/svg" width="1164" height="1344">
<path d="M0,0 L6,1 L13,9 L18,14 L28,24 L33,29 L82,78 L87,83 L92,89 L100,96 L125,121 L132,129 L139,135 L139,137 L143,139 L196,192 L203,200 L208,204 L217,215 L226,224 L231,229 L248,246 L252,251 L255,253 L255,255 L259,257 L265,264 L273,271 L287,285 L292,290 L297,296 L305,303 L323,321 L330,329 L336,334 L341,340 L346,345 L359,358 L364,363 L389,388 L394,393 L426,425 L431,429 L436,435 L444,442 L490,488 L495,493 L500,499 L505,503 L510,508 L553,551 L552,556 L547,561 L510,598 L505,603 L502,604 L500,608 L489,619 L487,619 L485,623 L430,678 L425,683 L340,768 L335,773 L319,789 L314,794 L283,825 L278,830 L268,840 L261,848 L256,852 L251,857 L247,862 L239,869 L235,874 L227,881 L214,894 L207,902 L202,907 L194,915 L190,920 L185,925 L175,934 L170,939 L166,944 L158,951 L151,959 L70,1040 L64,1047 L58,1052 L53,1057 L49,1062 L43,1067 L38,1072 L30,1081 L23,1087 L16,1095 L6,1105 L0,1106 L-7,1098 L-7,1096 L-11,1094 L-60,1045 L-65,1039 L-72,1033 L-79,1025 L-89,1015 L-97,1008 L-109,995 L-117,988 L-124,980 L-133,971 L-138,966 L-143,962 L-148,957 L-159,945 L-166,939 L-173,931 L-181,924 L-188,916 L-210,894 L-215,889 L-229,875 L-237,868 L-265,840 L-270,835 L-278,826 L-286,819 L-313,792 L-313,790 L-317,788 L-322,783 L-328,777 L-328,775 L-332,773 L-355,750 L-357,749 L-357,550 L1,550 L35,551 L468,551 L524,552 L523,547 L512,535 L511,532 L507,530 L493,516 L488,511 L480,504 L472,494 L465,488 L460,483 L451,473 L446,469 L439,461 L432,454 L427,449 L420,443 L415,437 L407,430 L400,423 L395,418 L390,412 L382,405 L357,380 L352,375 L344,366 L336,359 L320,342 L314,337 L307,329 L257,279 L253,274 L245,267 L240,262 L233,254 L230,252 L230,250 L226,248 L221,243 L212,233 L208,228 L203,223 L182,202 L177,197 L171,190 L165,185 L159,178 L153,173 L146,165 L118,137 L113,133 L106,125 L6,25 L2,24 L-6,31 L-10,36 L-15,41 L-27,52 L-78,103 L-80,103 L-82,107 L-123,148 L-131,155 L-137,162 L-145,169 L-191,215 L-197,222 L-203,227 L-205,231 L-199,231 L-189,236 L-183,235 L-166,232 L-142,227 L-108,220 L-91,216 L-75,213 L-70,211 L-50,208 L-47,206 L-40,207 L-31,210 L-23,216 L-18,225 L-18,239 L-24,248 L-31,252 L-39,254 L-55,258 L-65,260 L-79,264 L-89,266 L-113,273 L-123,275 L-150,282 L-159,284 L-169,287 L-175,291 L-181,301 L-188,302 L-192,297 L-195,289 L-200,268 L-205,245 L-206,242 L-206,232 L-212,235 L-221,246 L-227,251 L-231,256 L-233,256 L-235,260 L-279,304 L-284,309 L-291,316 L-299,323 L-306,331 L-341,366 L-346,371 L-353,377 L-356,380 L-357,380 L-357,356 L-349,349 L-283,283 L-278,278 L-247,247 L-243,242 L-238,237 L-232,233 L-225,224 L-217,217 L-212,212 L-203,203 L-198,198 L-184,183 L-179,178 L-174,173 L-172,173 L-170,169 L-155,155 L-142,142 L-137,137 L-101,101 L-94,95 L-87,87 L-78,78 L-70,71 L-65,66 L-58,58 L-53,53 L-45,45 L-40,40 L-27,27 L-22,22 L-17,17 L-9,10 L-2,3 Z M-50,215 L-79,221 L-88,222 L-92,224 L-115,228 L-136,233 L-157,237 L-164,239 L-180,242 L-190,244 L-193,247 L-192,253 L-188,256 L-153,257 L-95,257 L-80,255 L-51,248 L-33,242 L-27,237 L-26,227 L-29,220 L-33,216 L-36,215 Z M77,572 L67,575 L61,579 L56,587 L55,590 L55,606 L60,618 L68,629 L75,639 L80,646 L83,655 L83,663 L79,668 L74,668 L71,665 L68,653 L66,651 L57,651 L54,654 L54,667 L59,677 L65,682 L76,684 L86,682 L92,678 L96,673 L99,667 L99,649 L94,637 L88,628 L76,611 L72,602 L72,592 L75,588 L80,588 L83,593 L85,600 L88,603 L95,602 L98,598 L98,590 L95,581 L89,576 L84,573 Z M-219,574 L-227,577 L-234,584 L-237,590 L-239,599 L-239,655 L-237,670 L-231,679 L-227,682 L-222,684 L-208,684 L-199,677 L-195,671 L-193,664 L-193,649 L-197,645 L-205,645 L-208,646 L-210,664 L-213,669 L-220,668 L-221,666 L-222,649 L-222,610 L-221,593 L-218,589 L-213,589 L-210,593 L-208,608 L-203,612 L-197,611 L-193,606 L-195,589 L-200,580 L-205,576 L-215,574 Z M-163,574 L-172,578 L-179,585 L-183,599 L-183,662 L-180,674 L-175,680 L-166,685 L-156,686 L-148,683 L-141,678 L-137,670 L-135,657 L-135,618 L-136,600 L-139,588 L-144,580 L-152,575 L-156,574 Z M-118,574 L-121,577 L-122,580 L-123,621 L-122,678 L-117,683 L-108,682 L-105,679 L-105,640 L-99,640 L-98,650 L-94,666 L-91,680 L-84,683 L-77,682 L-75,680 L-75,672 L-83,635 L-82,629 L-78,622 L-76,616 L-75,602 L-78,588 L-84,580 L-89,576 L-98,574 Z M-59,574 L-62,576 L-63,579 L-63,677 L-61,681 L-56,683 L-49,682 L-47,680 L-46,675 L-45,640 L-40,641 L-38,653 L-34,669 L-32,679 L-29,682 L-19,682 L-16,679 L-17,671 L-23,640 L-24,630 L-20,623 L-17,616 L-16,604 L-19,589 L-24,581 L-31,576 L-40,574 Z M14,574 L5,577 L-2,585 L-5,593 L-6,600 L-6,662 L-4,670 L0,677 L7,683 L20,685 L26,684 L34,678 L39,670 L41,662 L41,604 L38,587 L32,579 L28,576 L21,574 Z M121,574 L117,576 L115,581 L115,656 L116,680 L120,683 L129,682 L131,680 L132,676 L132,580 L129,575 L127,574 Z M144,574 L141,577 L142,587 L147,618 L149,626 L151,639 L157,673 L160,681 L162,683 L172,682 L176,678 L180,659 L185,624 L190,586 L190,576 L187,574 L179,574 L175,578 L169,625 L169,627 L165,626 L161,601 L158,583 L155,576 L152,574 Z M228,574 L208,575 L205,580 L204,613 L205,679 L208,683 L240,683 L243,679 L243,673 L238,668 L230,668 L222,666 L221,664 L221,637 L233,635 L235,633 L235,622 L232,619 L222,617 L220,611 L220,595 L221,592 L226,590 L236,590 L242,587 L243,582 L241,576 L236,574 Z " fill="#000000" transform="translate(357,36)"/>
<path d="M0,0 L9,0 L26,3 L44,7 L53,9 L64,12 L80,15 L101,21 L130,27 L136,29 L145,29 L156,25 L162,26 L166,30 L167,38 L161,65 L157,77 L153,93 L147,100 L143,99 L135,89 L121,84 L94,76 L88,74 L76,71 L65,67 L56,65 L34,58 L16,53 L1,48 L-8,46 L-14,42 L-20,35 L-22,28 L-22,21 L-19,13 L-13,6 L-3,1 Z M-1,9 L-8,13 L-13,22 L-12,30 L-5,37 L8,42 L38,50 L45,52 L55,55 L64,56 L141,56 L150,53 L153,50 L154,42 L152,39 L137,38 L121,33 L109,30 L95,27 L72,23 L53,18 L18,10 L15,9 Z " fill="#000000" transform="translate(387,243)"/>
<path d="M0,0 L4,1 L7,5 L11,17 L16,29 L16,39 L13,46 L8,52 L8,61 L13,73 L15,75 L16,84 L14,93 L10,98 L4,101 L-4,102 L-11,98 L-15,91 L-15,81 L-11,71 L-5,59 L-6,54 L-10,50 L-13,47 L-16,39 L-15,29 L-7,12 L-4,4 Z M-3,25 L-6,30 L-4,35 L0,35 L1,33 L1,26 Z M-2,74 L-5,79 L-5,84 L0,83 L2,77 L0,74 Z " fill="#000000" transform="translate(549,331)"/>
<path d="M0,0 L5,1 L7,5 L9,20 L9,27 L6,35 L-2,42 L-8,54 L-13,58 L-19,62 L-20,65 L-21,77 L-25,84 L-30,88 L-32,88 L-33,91 L-36,93 L-41,92 L-42,91 L-41,84 L-35,75 L-35,62 L-32,57 L-23,51 L-19,44 L-18,37 L-10,29 L-6,25 L-5,23 L-5,11 L-3,3 Z " fill="#000000" transform="translate(613,333)"/>
<path d="M0,0 L8,0 L13,3 L17,9 L20,19 L27,22 L35,25 L42,33 L46,43 L48,52 L56,58 L62,62 L67,67 L68,72 L65,76 L60,76 L53,68 L49,65 L39,62 L34,58 L32,53 L32,44 L29,39 L24,36 L16,33 L8,24 L3,11 L-2,6 L-1,1 Z " fill="#000000" transform="translate(431,347)"/>
<path d="M0,0 L5,0 L10,6 L14,12 L19,18 L20,21 L20,30 L18,42 L9,46 L3,49 L-3,49 L-8,45 L-12,38 L-12,29 L-3,7 Z " fill="#000000" transform="translate(153,348)"/>
<path d="M0,0 L5,0 L12,9 L12,11 L16,13 L23,21 L27,35 L33,40 L38,50 L39,60 L36,62 L31,61 L26,53 L23,47 L23,45 L18,43 L15,41 L10,27 L5,22 L-1,14 L-2,4 Z " fill="#000000" transform="translate(478,357)"/>
<path d="M0,0 L5,2 L12,18 L12,25 L9,30 L-1,36 L-4,45 L-8,56 L-14,63 L-23,67 L-34,73 L-40,76 L-46,76 L-47,73 L-42,68 L-37,63 L-30,55 L-22,51 L-17,38 L-13,30 L-5,23 L-2,16 L-4,10 L-4,4 Z " fill="#000000" transform="translate(643,356)"/>
<path d="M0,0 L7,0 L8,5 L3,13 L2,18 L3,25 L1,33 L-3,36 L-15,41 L-17,45 L-16,54 L-15,64 L-18,71 L-31,79 L-35,88 L-38,91 L-43,90 L-44,85 L-40,74 L-36,69 L-28,62 L-28,52 L-29,50 L-29,42 L-23,34 L-12,26 L-9,10 L-5,3 Z " fill="#000000" transform="translate(248,378)"/>
<path d="M0,0 L5,2 L7,6 L7,14 L5,20 L5,28 L12,36 L13,39 L13,52 L14,55 L20,57 L26,61 L26,67 L23,73 L23,79 L27,84 L32,89 L32,97 L28,101 L23,99 L21,93 L14,88 L12,83 L12,65 L3,60 L0,55 L1,41 L-3,36 L-8,31 L-10,28 L-10,21 L-5,9 L-3,2 Z " fill="#000000" transform="translate(100,385)"/>
<path d="M0,0 L5,1 L6,6 L3,17 L3,23 L9,31 L12,38 L13,50 L18,55 L24,60 L30,71 L39,78 L38,83 L33,83 L23,78 L18,72 L14,66 L4,62 L0,57 L0,38 L-9,30 L-11,21 L-2,5 Z " fill="#000000" transform="translate(69,404)"/>
<path d="M0,0 L5,1 L6,2 L6,9 L1,20 L-1,33 L-4,40 L-8,47 L-10,61 L-14,67 L-19,66 L-20,63 L-19,60 L-19,44 L-16,37 L-12,29 L-9,13 L-2,2 Z " fill="#000000" transform="translate(207,406)"/>
<path d="M0,0 L5,1 L17,18 L20,28 L17,38 L13,44 L5,48 L-4,49 L-12,42 L-14,38 L-14,27 L-8,15 L-4,8 Z M-3,24 L-5,27 L-4,31 L0,31 L1,26 L0,24 Z " fill="#000000" transform="translate(154,413)"/>
<path d="M0,0 L24,1 L32,6 L39,13 L48,17 L53,19 L58,18 L65,13 L70,10 L78,3 L92,2 L111,2 L125,5 L143,13 L163,25 L174,29 L199,29 L213,30 L217,35 L216,41 L214,43 L169,43 L167,42 L159,42 L155,35 L150,32 L143,32 L138,26 L126,24 L118,17 L90,16 L81,16 L79,21 L73,25 L64,29 L60,32 L50,32 L39,26 L31,23 L24,15 L-14,15 L-16,16 L-16,18 L-9,20 L-6,26 L-4,27 L24,29 L28,28 L34,30 L40,29 L43,34 L53,36 L62,46 L72,60 L79,64 L84,69 L95,73 L94,79 L89,84 L79,84 L75,78 L64,74 L62,71 L62,68 L57,66 L47,51 L43,48 L36,48 L32,44 L22,42 L9,42 L0,41 L-29,40 L-88,40 L-87,49 L-84,51 L-62,51 L-47,52 L-24,52 L-11,51 L-7,47 L-2,48 L2,53 L2,58 L-4,65 L-7,66 L-24,65 L-119,64 L-124,67 L-126,73 L-122,77 L-119,78 L-9,78 L-5,81 L-6,87 L-9,91 L-15,92 L-29,91 L-104,91 L-109,94 L-110,98 L-109,102 L-101,104 L-25,105 L-3,105 L2,107 L5,110 L5,117 L4,118 L-30,118 L-33,117 L-77,117 L-81,118 L-80,122 L-74,125 L-65,124 L-63,126 L-54,126 L-48,128 L-41,129 L-31,129 L-20,128 L-15,125 L-11,126 L-9,128 L12,130 L18,126 L22,127 L24,130 L35,131 L58,130 L60,128 L65,128 L66,129 L77,129 L81,127 L92,127 L104,126 L111,127 L131,125 L136,123 L141,117 L151,115 L154,114 L156,110 L166,109 L204,108 L223,108 L228,113 L226,118 L220,120 L165,122 L155,125 L148,130 L132,135 L119,138 L114,139 L91,139 L-11,140 L-70,138 L-83,136 L-92,130 L-96,124 L-97,114 L-110,112 L-120,108 L-124,104 L-125,101 L-125,88 L-136,82 L-140,76 L-140,68 L-136,60 L-128,55 L-115,52 L-108,51 L-107,50 L-105,41 L-101,36 L-93,31 L-90,30 L-61,29 L-31,29 L-30,24 L-33,16 L-33,10 L-31,5 L-23,1 Z " fill="#000000" transform="translate(499,434)"/>
<path d="M0,0 Z " fill="#000000" transform="translate(604,455)"/>
<path d="M0,0 L2,0 L2,8 L-6,15 L-14,22 L-20,29 L-28,36 L-42,50 L-47,55 L-59,66 L-75,81 L-99,105 L-101,108 L-100,112 L-99,115 L-95,117 L-90,123 L-82,130 L-72,140 L-72,142 L-68,144 L-49,163 L-45,167 L-45,169 L-43,169 L-36,177 L-24,189 L-19,194 L-9,205 L-4,210 L2,215 L2,223 L-2,221 L-5,218 L-5,216 L-9,214 L-18,204 L-49,173 L-54,168 L-67,155 L-72,149 L-77,144 L-91,130 L-96,125 L-108,114 L-109,112 L-109,106 L-82,79 L-80,79 L-80,77 L-72,70 L-58,56 L-50,49 L-45,43 L-37,36 L-20,19 L-15,14 L-5,5 Z " fill="#000000" transform="translate(1162,484)"/>
<path d="M0,0 L86,0 L95,1 L107,7 L113,14 L122,19 L129,19 L134,18 L140,20 L147,20 L158,13 L166,9 L172,4 L192,0 L292,0 L296,2 L299,8 L299,45 L297,49 L290,52 L-20,52 L-20,1 Z " fill="#000000" transform="translate(20,494)"/>
<path d="M0,0 L6,1 L11,5 L13,13 L13,23 L9,32 L5,34 L0,33 L-2,29 L-2,4 Z " fill="#000000" transform="translate(253,624)"/>
<path d="M0,0 L5,1 L8,5 L9,72 L7,80 L3,83 L-2,82 L-5,77 L-6,69 L-6,34 L-5,6 L-3,2 Z " fill="#000000" transform="translate(373,624)"/>
<path d="M0,0 L5,1 L8,5 L9,22 L9,72 L7,79 L5,81 L-1,81 L-4,77 L-5,72 L-5,7 L-2,1 Z " fill="#000000" transform="translate(196,625)"/>
<path d="M0,0 L6,0 L11,5 L13,11 L13,22 L10,29 L7,33 L1,33 L-2,28 L-2,3 Z " fill="#000000" transform="translate(312,625)"/>
<path d="M0,0 L14,1 L52,1 L60,0 L126,0 L134,1 L163,0 L226,1 L312,1 L319,2 L464,2 L472,1 L475,2 L523,2 L525,0 L529,1 L535,3 L538,1 L543,2 L782,2 L865,3 L929,4 L972,4 L998,5 L1058,5 L1152,6 L1152,64 L1133,65 L1060,65 L1050,64 L966,64 L884,63 L840,63 L762,62 L596,62 L549,63 L518,63 L358,62 L314,62 L218,61 L100,61 L-12,60 L-12,2 L-1,1 Z " fill="#000000" transform="translate(12,1245)"/>
</svg>
