<?xml version="1.0" encoding="UTF-8"?>
<!-- Generator: visioncortex VTracer 0.6.12 -->
<svg version="1.1" xmlns="http://www.w3.org/2000/svg" width="1035" height="1320">
<path d="M0,0 L7,1 L59,1 L65,2 L109,2 L150,1 L153,2 L219,2 L226,1 L232,3 L258,2 L265,1 L267,2 L401,2 L455,3 L467,4 L470,2 L480,3 L710,3 L749,2 L752,3 L796,4 L843,3 L921,4 L948,4 L958,3 L969,4 L991,4 L996,11 L996,21 L995,22 L995,59 L990,62 L907,61 L812,61 L607,60 L164,60 L81,59 L0,59 Z " fill="#000000" transform="translate(0,6)"/>
<path d="M0,0 L5,3 L12,10 L20,17 L25,23 L31,27 L43,38 L48,46 L67,65 L75,72 L86,83 L89,85 L89,87 L92,88 L97,93 L106,102 L113,110 L135,132 L143,138 L173,168 L180,177 L189,185 L196,193 L205,202 L211,206 L218,213 L221,219 L230,229 L241,240 L246,245 L265,264 L265,266 L269,268 L278,278 L285,286 L309,310 L315,314 L320,318 L323,321 L332,332 L337,337 L362,362 L370,367 L379,375 L385,383 L394,390 L399,395 L401,397 L403,406 L410,413 L415,418 L426,429 L430,434 L435,439 L450,455 L470,475 L477,483 L488,494 L500,503 L507,511 L513,518 L521,525 L527,530 L534,538 L535,550 L537,555 L537,560 L533,562 L530,556 L529,549 L522,542 L516,533 L511,528 L492,509 L486,501 L469,484 L464,479 L456,470 L451,466 L444,458 L442,454 L438,452 L436,448 L434,448 L427,440 L421,433 L416,428 L409,422 L404,416 L394,410 L392,406 L388,404 L380,394 L367,381 L360,372 L352,365 L340,352 L334,347 L329,342 L321,333 L316,328 L310,319 L302,312 L301,309 L297,307 L292,301 L284,294 L268,277 L256,264 L226,234 L226,232 L222,230 L212,222 L203,212 L198,206 L190,199 L186,194 L181,189 L157,165 L152,160 L143,151 L134,140 L67,73 L59,66 L54,61 L45,53 L39,50 L31,40 L20,30 L14,23 L14,21 L10,19 L3,12 L-1,11 L-7,16 L-9,16 L-11,20 L-21,29 L-29,36 L-36,44 L-48,55 L-78,85 L-83,90 L-96,102 L-103,110 L-132,139 L-138,148 L-154,163 L-161,170 L-167,175 L-172,181 L-177,186 L-195,204 L-200,210 L-205,215 L-211,220 L-219,226 L-223,231 L-226,234 L-228,234 L-230,238 L-288,296 L-293,301 L-298,306 L-303,310 L-305,313 L-307,313 L-307,315 L-312,320 L-313,323 L-314,363 L-314,463 L-313,473 L-313,488 L-314,515 L-317,517 L-336,517 L-369,516 L-370,515 L-378,514 L-383,513 L-389,515 L-394,512 L-396,510 L-395,498 L-394,492 L-396,479 L-393,467 L-389,466 L-388,467 L-383,467 L-384,460 L-382,454 L-385,455 L-388,459 L-392,458 L-392,456 L-395,455 L-396,444 L-397,437 L-398,411 L-403,412 L-412,422 L-420,429 L-447,456 L-452,461 L-459,468 L-461,471 L-463,471 L-463,461 L-455,455 L-443,443 L-438,438 L-433,432 L-425,425 L-420,420 L-403,403 L-398,393 L-396,384 L-392,380 L-386,376 L-382,372 L-375,370 L-374,365 L-373,360 L-368,353 L-363,348 L-355,339 L-350,336 L-347,330 L-341,325 L-337,320 L-329,313 L-324,306 L-318,301 L-315,302 L-314,309 L-312,310 L-307,305 L-296,295 L-291,290 L-219,218 L-214,213 L-203,201 L-195,192 L-193,192 L-191,188 L-177,174 L-172,169 L-161,158 L-159,158 L-157,154 L-150,148 L-143,140 L-137,133 L-129,127 L-110,108 L-103,100 L-91,89 L-55,53 L-53,53 L-51,49 L-41,40 L-34,31 L-24,22 L-4,2 Z M-386,448 Z " fill="#000000" transform="translate(463,147)"/>
<path d="M0,0 L4,2 L5,33 L7,48 L14,66 L21,79 L28,89 L35,95 L37,94 L36,84 L39,80 L43,81 L44,84 L45,125 L47,137 L51,153 L51,178 L47,202 L46,219 L47,221 L53,220 L61,209 L67,192 L70,179 L71,170 L72,131 L73,130 L80,131 L87,136 L94,150 L99,163 L102,178 L103,211 L101,227 L94,257 L94,270 L98,271 L112,260 L118,255 L126,244 L133,235 L140,219 L142,208 L143,189 L145,187 L151,188 L159,195 L162,202 L163,207 L163,236 L161,251 L156,274 L151,295 L147,304 L143,323 L148,322 L155,313 L163,300 L169,287 L173,271 L175,269 L180,269 L183,273 L187,286 L188,292 L188,307 L186,330 L182,346 L177,362 L171,370 L165,381 L154,393 L145,404 L137,411 L126,418 L115,426 L105,432 L76,446 L61,451 L49,454 L48,450 L61,438 L68,430 L72,425 L79,415 L87,398 L90,382 L92,366 L94,341 L90,342 L85,351 L75,364 L73,364 L71,368 L68,369 L66,373 L58,380 L53,379 L54,373 L59,362 L61,354 L61,341 L58,332 L54,333 L47,344 L36,356 L29,357 L28,353 L34,333 L38,319 L40,303 L40,289 L35,270 L29,254 L21,242 L14,233 L10,230 L7,231 L7,243 L10,255 L18,277 L20,291 L20,304 L18,316 L14,325 L11,327 L5,326 L-4,314 L-10,298 L-12,291 L-13,278 L-17,278 L-20,289 L-21,295 L-21,318 L-17,345 L-15,351 L-13,361 L-10,371 L-8,380 L-8,387 L-9,389 L-14,389 L-24,375 L-28,362 L-38,337 L-43,324 L-50,315 L-54,315 L-55,317 L-55,333 L-51,351 L-50,366 L-54,368 L-64,362 L-73,358 L-81,358 L-86,359 L-85,365 L-79,373 L-68,384 L-61,392 L-48,408 L-36,424 L-33,431 L-27,439 L-26,442 L-21,444 L-13,448 L1,453 L3,455 L2,461 L-3,462 L-11,460 L-33,457 L-50,451 L-67,443 L-89,428 L-103,414 L-111,403 L-116,395 L-123,381 L-125,376 L-129,368 L-135,352 L-139,338 L-144,320 L-146,311 L-151,294 L-158,280 L-167,271 L-166,267 L-157,269 L-145,275 L-134,283 L-130,288 L-124,292 L-117,300 L-112,306 L-109,306 L-107,287 L-104,271 L-98,250 L-100,235 L-107,216 L-113,205 L-115,203 L-115,198 L-108,199 L-101,205 L-94,209 L-87,216 L-81,220 L-80,223 L-76,225 L-68,236 L-63,238 L-60,218 L-55,196 L-54,188 L-54,164 L-55,153 L-62,139 L-64,135 L-68,133 L-81,120 L-84,115 L-86,108 L-86,101 L-85,99 L-80,99 L-69,111 L-58,119 L-50,125 L-45,129 L-30,139 L-19,149 L-6,159 L-2,160 L-1,159 L-1,145 L-5,129 L-11,114 L-16,103 L-21,83 L-22,61 L-20,45 L-14,20 L-8,8 L-2,1 Z M19,143 L16,147 L14,165 L14,196 L17,203 L19,205 L25,205 L30,201 L34,195 L35,190 L35,181 L32,167 L22,144 Z M148,230 L145,233 L145,235 L150,235 L153,231 Z " fill="#000000" transform="translate(462,169)"/>
<path d="M0,0 L3,1 L2,3 L-1,3 Z " fill="#000000" transform="translate(502,231)"/>
<path d="M0,0 L5,1 L5,6 L0,7 L-1,6 L-1,1 Z " fill="#000000" transform="translate(650,422)"/>
<path d="M0,0 L5,2 L6,14 L2,15 L-2,11 L-2,9 L-5,9 L-4,3 Z " fill="#000000" transform="translate(856,574)"/>
<path d="M0,0 L2,4 L-1,4 Z " fill="#000000" transform="translate(71,607)"/>
<path d="M0,0 L4,1 L4,10 L13,16 L13,33 L11,44 L9,49 L4,47 L-1,44 L-8,41 L-7,37 L-1,37 L-2,25 L-4,19 L-10,17 L-9,13 L-5,12 L-2,13 L-4,8 L-5,6 L-2,1 Z " fill="#000000" transform="translate(848,610)"/>
<path d="M0,0 L12,0 L17,3 L62,3 L104,2 L108,1 L126,1 L129,6 L129,14 L126,20 L125,21 L10,22 L-35,22 L-126,23 L-156,23 L-158,21 L-159,9 L-158,6 L-152,4 L-102,4 L-33,2 L-3,1 Z " fill="#000000" transform="translate(491,642)"/>
<path d="M0,0 L9,0 L15,3 L22,10 L24,14 L25,25 L23,30 L17,32 L12,30 L8,17 L8,15 L1,15 L-2,19 L-2,32 L5,46 L16,62 L22,73 L25,82 L25,94 L24,101 L19,109 L13,114 L10,116 L-6,116 L-14,110 L-18,104 L-20,93 L-19,86 L-16,83 L-9,83 L-6,85 L-3,99 L0,102 L5,102 L8,99 L8,82 L1,68 L-5,60 L-11,50 L-18,35 L-18,19 L-14,9 L-5,2 Z " fill="#000000" transform="translate(669,685)"/>
<path d="M0,0 L19,0 L32,1 L34,4 L34,10 L31,14 L23,15 L13,16 L11,19 L11,46 L22,47 L25,49 L26,56 L24,62 L12,65 L11,66 L10,84 L9,110 L7,115 L-2,116 L-6,114 L-7,112 L-7,85 L-6,10 L-5,3 Z " fill="#000000" transform="translate(53,686)"/>
<path d="M0,0 L7,0 L10,3 L11,10 L10,89 L10,97 L13,100 L29,101 L31,103 L31,112 L28,116 L-1,116 L-6,114 L-7,112 L-7,58 L-6,5 L-2,1 Z " fill="#000000" transform="translate(105,686)"/>
<path d="M0,0 L15,0 L17,2 L19,10 L23,44 L28,78 L30,96 L31,101 L31,113 L29,115 L17,115 L14,106 L12,92 L4,91 L1,92 L-1,96 L-3,109 L-5,114 L-6,115 L-18,115 L-20,112 L-19,102 L-14,67 L-9,38 L-5,7 L-1,1 Z M5,48 L4,49 L2,63 L2,72 L4,75 L9,74 L10,73 L10,55 L8,49 Z " fill="#000000" transform="translate(167,686)"/>
<path d="M0,0 L10,0 L15,3 L18,12 L22,35 L24,48 L28,49 L30,38 L36,10 L39,2 L42,0 L52,0 L57,2 L58,4 L58,81 L57,111 L54,115 L49,116 L44,113 L43,112 L42,103 L43,70 L43,55 L42,53 L39,57 L37,72 L30,108 L28,114 L23,115 L20,108 L17,91 L14,70 L12,53 L9,54 L9,95 L8,113 L6,115 L-3,115 L-6,111 L-6,59 L-5,6 L-3,1 Z " fill="#000000" transform="translate(298,686)"/>
<path d="M0,0 L16,0 L19,5 L22,26 L25,51 L29,79 L30,93 L32,106 L31,113 L27,115 L20,115 L16,111 L13,93 L10,91 L3,91 L0,95 L-3,111 L-4,114 L-6,115 L-16,115 L-19,111 L-17,95 L-15,80 L-6,23 L-4,7 L-1,1 Z M5,48 L3,66 L3,72 L5,74 L10,74 L11,73 L11,52 L9,48 Z " fill="#000000" transform="translate(388,686)"/>
<path d="M0,0 L20,1 L28,3 L36,11 L39,20 L39,37 L36,46 L32,52 L33,58 L37,62 L40,72 L40,93 L36,104 L29,111 L24,114 L16,116 L-3,116 L-6,113 L-6,20 L-5,3 Z M14,14 L10,18 L10,45 L13,48 L19,47 L22,43 L24,36 L24,25 L21,18 L17,14 Z M13,62 L10,65 L9,86 L10,100 L11,101 L17,101 L22,97 L24,93 L25,87 L25,78 L23,70 L20,65 L16,62 Z " fill="#000000" transform="translate(440,685)"/>
<path d="M0,0 L9,0 L11,2 L12,99 L14,100 L27,100 L32,103 L32,112 L28,115 L3,115 L-4,113 L-5,112 L-5,32 L-4,4 Z " fill="#000000" transform="translate(499,686)"/>
<path d="M0,0 L33,0 L35,2 L35,12 L30,16 L15,16 L13,18 L13,45 L15,47 L25,48 L27,50 L27,60 L24,64 L15,64 L13,65 L12,68 L12,99 L31,100 L34,104 L35,109 L32,114 L28,115 L0,115 L-4,112 L-4,6 L-1,1 Z " fill="#000000" transform="translate(550,686)"/>
<path d="M0,0 L6,0 L11,4 L11,77 L10,111 L7,115 L-3,115 L-6,112 L-7,94 L-6,17 L-5,4 L-3,1 Z " fill="#000000" transform="translate(826,686)"/>
<path d="M0,0 L14,0 L25,1 L34,6 L40,13 L42,19 L43,28 L43,72 L42,91 L40,100 L34,109 L29,113 L24,115 L-1,115 L-4,110 L-4,28 L-3,5 Z M16,15 L14,16 L13,52 L13,99 L15,101 L21,100 L26,92 L26,22 L22,16 Z " fill="#000000" transform="translate(856,686)"/>
<path d="M0,0 L11,0 L15,2 L19,17 L22,32 L24,48 L28,48 L33,24 L37,5 L42,0 L53,0 L57,2 L58,4 L58,96 L57,111 L54,115 L46,115 L43,113 L42,104 L43,52 L41,51 L38,63 L36,77 L33,94 L29,113 L27,115 L22,114 L19,102 L16,85 L14,69 L12,54 L9,56 L9,94 L8,112 L6,115 L-4,115 L-6,110 L-6,41 L-5,3 Z " fill="#000000" transform="translate(218,686)"/>
<path d="M0,0 L15,0 L22,7 L26,14 L28,20 L29,53 L29,70 L28,93 L24,105 L18,112 L12,116 L2,116 L-6,113 L-11,109 L-15,101 L-17,94 L-17,28 L-15,18 L-11,8 L-4,2 Z M4,14 L1,17 L0,21 L-1,48 L-1,94 L2,101 L3,102 L9,102 L13,96 L14,24 L12,16 L9,14 Z " fill="#000000" transform="translate(725,687)"/>
<path d="M0,0 L11,0 L14,4 L14,98 L15,99 L31,100 L35,103 L35,111 L32,114 L0,114 L-3,111 L-4,101 L-3,76 L-3,37 L-2,4 Z " fill="#000000" transform="translate(772,687)"/>
<path d="M0,0 L5,1 L3,6 L-2,5 L-1,1 Z " fill="#000000" transform="translate(992,711)"/>
<path d="M0,0 L7,1 L8,6 L3,11 L1,11 L-1,16 L-5,21 L-13,27 L-21,37 L-29,44 L-36,52 L-46,60 L-47,62 L-49,62 L-51,66 L-65,80 L-70,85 L-104,119 L-111,127 L-118,134 L-123,139 L-133,149 L-139,161 L-149,170 L-151,174 L-161,181 L-167,186 L-173,193 L-181,200 L-199,218 L-204,222 L-211,230 L-219,237 L-224,242 L-236,253 L-248,266 L-260,279 L-267,286 L-275,293 L-282,301 L-294,313 L-296,313 L-298,317 L-306,325 L-308,325 L-310,329 L-317,335 L-320,339 L-322,346 L-332,353 L-334,360 L-342,363 L-347,368 L-354,375 L-359,380 L-365,385 L-374,396 L-388,408 L-397,418 L-404,425 L-412,432 L-417,437 L-419,437 L-419,439 L-427,446 L-432,452 L-434,452 L-434,454 L-442,461 L-447,467 L-449,467 L-451,471 L-458,478 L-463,483 L-468,488 L-475,495 L-482,503 L-490,510 L-493,517 L-496,526 L-504,536 L-514,544 L-518,545 L-518,547 L-529,555 L-530,556 L-536,556 L-550,543 L-550,539 L-545,540 L-541,545 L-535,546 L-526,535 L-515,524 L-509,516 L-507,513 L-505,513 L-503,509 L-500,506 L-502,489 L-507,481 L-509,472 L-511,469 L-511,465 L-505,466 L-505,460 L-506,458 L-510,456 L-511,452 L-509,445 L-512,436 L-513,431 L-508,427 L-506,417 L-504,414 L-505,409 L-509,408 L-510,415 L-516,414 L-516,403 L-513,400 L-511,400 L-513,395 L-509,393 L-506,387 L-502,383 L-503,378 L-504,377 L-504,370 L-507,369 L-508,361 L-514,360 L-514,355 L-512,353 L-506,351 L-507,340 L-508,334 L-513,329 L-511,323 L-507,320 L-507,314 L-503,312 L-503,302 L-505,295 L-510,294 L-507,284 L-506,278 L-504,271 L-498,266 L-493,267 L-492,269 L-492,362 L-493,369 L-493,413 L-494,462 L-494,501 L-489,502 L-487,498 L-472,483 L-467,478 L-413,424 L-406,418 L-402,412 L-394,405 L-389,399 L-384,394 L-373,383 L-372,381 L-370,381 L-368,377 L-354,363 L-349,358 L-340,348 L-334,341 L-329,338 L-325,331 L-316,327 L-314,324 L-312,324 L-310,320 L-304,315 L-297,307 L-292,303 L-291,301 L-289,301 L-287,297 L-280,291 L-275,286 L-270,280 L-262,273 L-253,263 L-246,255 L-240,249 L-238,249 L-236,245 L-228,237 L-226,237 L-224,233 L-215,224 L-208,216 L-191,199 L-186,194 L-177,184 L-172,179 L-160,167 L-155,160 L-153,155 L-146,152 L-142,146 L-141,140 L-133,141 L-125,133 L-120,128 L-110,118 L-103,110 L-71,78 L-69,75 L-67,75 L-67,73 L-62,68 L-57,63 L-55,63 L-53,59 L-42,48 L-36,40 L-31,34 L-23,27 L-13,16 L-7,9 L-5,9 L-3,5 Z " fill="#000000" transform="translate(993,731)"/>
<path d="M0,0 L3,0 L10,8 L24,22 L31,30 L48,47 L53,52 L59,58 L63,56 L64,43 L65,39 L63,35 L64,29 L65,24 L63,13 L63,4 L69,2 L109,4 L117,4 L126,3 L146,3 L148,5 L149,73 L148,86 L148,146 L151,155 L154,156 L161,164 L172,175 L172,177 L176,179 L187,191 L198,202 L199,206 L203,208 L208,213 L220,225 L219,229 L215,228 L212,225 L212,223 L208,221 L188,201 L184,196 L179,192 L179,190 L177,190 L170,181 L170,179 L165,177 L158,170 L158,168 L154,166 L138,150 L133,145 L115,127 L108,122 L107,118 L96,110 L96,108 L93,107 L89,101 L81,93 L76,88 L66,78 L58,66 L53,61 L35,43 L31,38 L26,33 L3,10 L0,7 Z " fill="#000000" transform="translate(0,816)"/>
<path d="M0,0 L5,1 L6,10 L7,12 L8,23 L4,29 L5,33 L6,40 L4,43 L-1,42 L-2,38 L-2,33 L-9,34 L-12,32 L-12,27 L-8,25 L-8,21 L-12,20 L-11,16 L-8,15 L-2,16 L-2,11 L-4,9 L-3,4 Z " fill="#000000" transform="translate(850,823)"/>
<path d="M0,0 L5,0 L5,17 L4,24 L5,33 L4,41 L2,43 L-3,42 L-5,23 L-6,20 L-3,15 L-4,10 L-5,5 Z " fill="#000000" transform="translate(318,1016)"/>
<path d="M0,0 L4,1 L9,6 L18,14 L23,19 L37,29 L45,39 L50,44 L66,59 L74,67 L79,73 L86,78 L89,82 L91,82 L90,76 L88,71 L89,66 L94,65 L96,68 L101,71 L99,87 L97,91 L102,100 L105,105 L105,107 L101,106 L96,102 L87,91 L80,85 L79,80 L74,78 L43,47 L36,39 L21,24 L13,17 L0,4 Z " fill="#000000" transform="translate(223,1048)"/>
<path d="M0,0 L3,0 L2,3 L0,2 Z " fill="#000000" transform="translate(291,1054)"/>
<path d="M0,0 L6,0 L10,7 L9,12 L6,12 L2,7 L-1,5 Z " fill="#000000" transform="translate(314,1069)"/>
<path d="M0,0 L4,1 L7,6 L7,25 L5,28 L1,29 L-3,19 L-2,3 Z " fill="#000000" transform="translate(317,1084)"/>
<path d="M0,0 L4,1 L3,4 L0,3 Z " fill="#000000" transform="translate(306,1104)"/>
<path d="M0,0 L5,1 L18,14 L21,17 L20,21 L15,18 L5,8 L5,6 L1,4 Z " fill="#000000" transform="translate(409,1236)"/>
</svg>
