<?xml version="1.0" encoding="UTF-8"?>
<!-- Generator: visioncortex VTracer 0.6.12 -->
<svg version="1.1" xmlns="http://www.w3.org/2000/svg" width="1083" height="1095">
<path d="M0,0 L8,0 L6,4 L-2,12 L-9,20 L-16,27 L-20,30 L-22,30 L-24,34 L-31,42 L-39,49 L-117,127 L-119,127 L-121,131 L-134,144 L-139,149 L-274,284 L-279,289 L-287,297 L-292,302 L-373,383 L-380,391 L-387,398 L-391,403 L-393,403 L-395,407 L-415,427 L-423,434 L-485,496 L-494,503 L-506,516 L-508,516 L-510,520 L-514,525 L-519,529 L-521,529 L-522,532 L-524,532 L-524,526 L-519,521 L-514,517 L-510,512 L-505,507 L-498,500 L-490,493 L-435,438 L-431,433 L-423,426 L-414,417 L-409,412 L-400,403 L-399,401 L-397,401 L-396,398 L-391,393 L-384,386 L-379,381 L-365,366 L-329,330 L-324,325 L-307,308 L-302,303 L-229,230 L-224,225 L-206,207 L-201,202 L-145,146 L-140,141 L-66,67 L-61,62 L-38,39 L-33,35 L-26,27 L-1,2 Z " fill="#000000" transform="translate(524,0)"/>
<path d="M0,0 L8,0 L15,8 L44,37 L52,44 L71,63 L79,70 L88,80 L93,85 L103,94 L110,102 L115,107 L190,182 L195,187 L205,197 L212,205 L220,212 L252,244 L253,248 L257,250 L262,255 L262,257 L266,259 L268,263 L272,265 L307,300 L307,302 L311,304 L325,318 L325,320 L329,322 L340,333 L344,338 L352,345 L355,348 L355,350 L359,352 L364,357 L367,360 L367,362 L371,364 L376,369 L376,371 L380,373 L389,383 L407,401 L409,402 L409,404 L413,406 L418,411 L421,414 L421,416 L423,416 L428,421 L430,425 L432,425 L437,430 L448,441 L454,448 L457,450 L457,452 L459,452 L466,460 L483,477 L488,482 L535,529 L537,530 L537,538 L533,536 L523,526 L519,521 L514,517 L509,512 L500,502 L495,498 L495,496 L491,494 L450,453 L443,445 L392,394 L387,389 L371,373 L366,368 L336,338 L331,334 L326,328 L321,324 L314,316 L246,248 L241,243 L227,228 L218,220 L214,215 L209,211 L202,203 L177,178 L172,173 L167,168 L167,166 L163,164 L150,151 L146,147 L146,145 L144,145 L139,139 L134,134 L129,130 L122,122 L104,104 L99,99 L89,89 L84,84 L72,73 L62,63 L62,61 L58,59 L42,43 L34,36 L0,2 Z " fill="#000000" transform="translate(546,0)"/>
<path d="M0,0 L5,1 L5,23 L6,40 L10,54 L15,66 L24,82 L30,92 L35,101 L39,111 L42,118 L46,129 L49,145 L50,148 L50,184 L45,214 L46,216 L51,215 L58,208 L64,198 L69,181 L71,167 L72,142 L70,126 L71,125 L76,125 L79,128 L86,132 L92,139 L95,146 L99,161 L102,178 L103,188 L103,201 L100,228 L96,240 L93,256 L93,266 L98,265 L112,254 L122,244 L130,233 L136,223 L139,216 L142,205 L143,194 L143,188 L146,186 L151,191 L157,202 L159,214 L159,234 L154,259 L151,269 L147,276 L143,291 L136,305 L136,321 L137,323 L141,322 L148,316 L158,302 L167,288 L169,281 L170,269 L171,267 L176,268 L177,271 L177,308 L176,321 L172,342 L167,356 L157,372 L152,380 L149,385 L129,405 L115,416 L110,421 L110,428 L107,430 L104,427 L103,424 L98,425 L90,430 L74,436 L66,439 L55,442 L51,444 L46,444 L47,439 L57,430 L62,425 L70,414 L78,403 L82,391 L88,368 L90,356 L90,334 L89,331 L85,332 L81,340 L73,352 L64,362 L57,370 L53,371 L52,366 L56,359 L60,350 L61,345 L61,336 L59,326 L58,324 L53,324 L51,329 L45,337 L38,343 L34,347 L30,346 L29,341 L34,328 L39,306 L40,299 L40,280 L34,258 L25,241 L15,227 L13,223 L8,223 L6,228 L6,244 L10,259 L16,277 L17,296 L14,313 L12,315 L7,315 L-1,306 L-4,299 L-9,277 L-11,267 L-16,268 L-21,274 L-23,279 L-24,289 L-24,298 L-20,334 L-17,346 L-11,367 L-10,374 L-15,375 L-18,371 L-26,353 L-34,334 L-38,324 L-49,304 L-52,301 L-57,301 L-57,328 L-54,341 L-54,351 L-60,351 L-68,347 L-78,345 L-85,345 L-88,348 L-86,354 L-69,371 L-62,379 L-53,392 L-44,407 L-36,423 L-29,431 L-20,437 L-8,441 L-6,445 L-8,447 L-23,446 L-39,444 L-60,436 L-70,430 L-79,423 L-88,416 L-95,409 L-100,404 L-110,391 L-116,380 L-121,372 L-125,359 L-132,342 L-138,322 L-142,301 L-145,288 L-149,277 L-156,266 L-159,263 L-164,260 L-163,257 L-156,258 L-142,266 L-133,272 L-123,280 L-115,290 L-112,294 L-112,296 L-108,295 L-106,277 L-100,248 L-98,244 L-97,238 L-97,225 L-101,212 L-108,197 L-112,192 L-111,187 L-105,190 L-94,198 L-84,206 L-77,214 L-73,219 L-69,226 L-67,230 L-63,229 L-62,228 L-59,212 L-54,188 L-52,173 L-52,153 L-53,142 L-59,131 L-68,120 L-78,110 L-82,104 L-83,94 L-79,93 L-75,98 L-70,104 L-62,111 L-42,123 L-34,130 L-26,137 L-20,142 L-15,147 L-15,149 L-11,151 L-6,157 L-1,158 L1,154 L2,138 L-3,122 L-8,111 L-15,92 L-18,79 L-19,72 L-19,46 L-16,31 L-10,14 L-4,5 Z M18,135 L16,137 L14,150 L11,163 L11,188 L15,198 L18,201 L25,202 L30,198 L34,190 L35,187 L35,172 L31,156 L22,136 Z " fill="#000000" transform="translate(535,15)"/>
<path d="M0,0 L34,1 L70,1 L138,2 L274,3 L277,6 L277,17 L274,22 L155,22 L80,21 L0,20 L-4,17 L-5,3 Z " fill="#000000" transform="translate(410,477)"/>
<path d="M0,0 L6,1 L12,4 L15,10 L19,33 L22,54 L24,71 L28,99 L28,112 L24,116 L19,117 L14,112 L12,103 L11,96 L8,93 L3,92 L-2,95 L-5,111 L-9,116 L-17,116 L-20,114 L-20,99 L-18,87 L-17,76 L-15,66 L-10,34 L-7,8 L-2,3 Z M4,49 L1,53 L1,75 L6,76 L9,71 L7,50 Z " fill="#000000" transform="translate(824,515)"/>
<path d="M0,0 L15,0 L18,5 L22,25 L30,83 L33,103 L33,112 L29,114 L20,113 L18,107 L15,91 L14,90 L5,90 L2,93 L0,109 L-3,114 L-8,115 L-15,112 L-16,106 L-15,101 L-14,87 L-12,77 L-11,64 L-9,51 L-3,6 L-1,1 Z M7,44 L5,49 L4,61 L4,71 L7,74 L11,73 L13,71 L13,61 L11,46 L10,44 Z " fill="#000000" transform="translate(494,517)"/>
<path d="M0,0 L23,0 L30,3 L37,9 L41,20 L42,30 L40,43 L35,52 L36,56 L41,63 L43,70 L43,95 L39,103 L33,110 L24,113 L3,114 L-1,111 L-2,107 L-3,17 L-2,2 Z M15,14 L13,16 L12,31 L13,45 L15,47 L20,46 L25,42 L27,36 L27,24 L25,17 L21,14 Z M17,61 L14,62 L13,64 L13,96 L14,98 L22,98 L27,93 L28,90 L28,69 L24,63 L21,61 Z " fill="#000000" transform="translate(542,517)"/>
<path d="M0,0 L8,0 L11,2 L12,34 L12,53 L13,92 L14,98 L17,99 L32,99 L34,101 L34,111 L29,114 L2,114 L-2,112 L-3,109 L-4,25 L-4,8 L-2,1 Z " fill="#000000" transform="translate(602,517)"/>
<path d="M0,0 L30,0 L33,1 L34,3 L34,13 L29,16 L16,16 L13,18 L12,34 L13,47 L25,47 L27,48 L28,52 L28,59 L25,63 L15,64 L13,68 L13,84 L14,97 L16,98 L33,99 L36,102 L36,110 L32,114 L1,114 L-2,111 L-3,69 L-3,3 Z " fill="#000000" transform="translate(650,517)"/>
<path d="M0,0 L13,0 L19,4 L25,11 L28,21 L28,34 L26,37 L19,38 L15,35 L13,19 L11,15 L5,14 L2,17 L1,19 L0,45 L0,89 L1,96 L6,100 L11,98 L13,94 L13,72 L7,67 L7,60 L8,57 L10,56 L24,56 L28,59 L29,63 L29,95 L28,110 L26,112 L21,111 L19,108 L14,109 L8,113 L-1,114 L-8,110 L-12,104 L-15,95 L-16,76 L-15,23 L-12,11 L-6,3 Z " fill="#000000" transform="translate(765,517)"/>
<path d="M0,0 L13,0 L17,2 L19,7 L25,49 L27,61 L32,93 L33,102 L33,112 L28,115 L21,113 L19,111 L16,94 L12,90 L5,91 L3,92 L1,100 L0,111 L-5,115 L-14,114 L-16,111 L-13,84 L-8,45 L-5,20 L-2,3 Z M7,45 L5,48 L4,71 L6,74 L12,73 L13,72 L13,61 L11,46 Z " fill="#000000" transform="translate(283,518)"/>
<path d="M0,0 L14,0 L18,4 L21,18 L25,35 L28,51 L31,50 L34,31 L39,4 L42,0 L56,0 L59,2 L60,9 L61,69 L61,110 L59,113 L51,114 L47,111 L46,49 L43,48 L38,86 L34,111 L31,114 L27,113 L21,86 L16,56 L14,49 L12,51 L12,112 L10,114 L4,114 L0,111 L-1,108 L-3,24 L-3,6 L-1,1 Z " fill="#000000" transform="translate(330,518)"/>
<path d="M0,0 L5,0 L8,3 L14,28 L18,50 L22,50 L27,20 L31,3 L33,1 L48,1 L50,3 L51,33 L52,92 L51,112 L48,114 L41,114 L38,110 L37,50 L34,49 L31,71 L27,96 L24,111 L23,113 L18,113 L15,104 L11,83 L7,55 L5,51 L3,51 L3,112 L1,114 L-7,114 L-10,111 L-11,82 L-11,3 L-9,1 Z " fill="#000000" transform="translate(415,517)"/>
<path d="M0,0 L7,0 L15,4 L19,8 L22,17 L22,26 L18,31 L12,30 L10,27 L8,18 L6,15 L1,14 L-2,17 L-4,26 L0,38 L6,48 L16,62 L22,75 L23,80 L23,96 L19,106 L14,112 L8,115 L-6,115 L-12,111 L-18,105 L-20,100 L-21,86 L-19,82 L-9,81 L-6,84 L-4,97 L0,100 L6,99 L8,94 L8,86 L5,76 L-6,59 L-13,48 L-17,39 L-19,32 L-19,20 L-16,11 L-10,4 L-5,1 Z " fill="#000000" transform="translate(881,518)"/>
<path d="M0,0 L32,0 L35,4 L35,11 L33,14 L30,15 L13,15 L13,34 L14,45 L24,46 L28,49 L28,59 L26,62 L16,63 L14,64 L13,74 L13,111 L10,114 L1,114 L-1,113 L-2,109 L-3,48 L-3,4 Z " fill="#000000" transform="translate(173,519)"/>
<path d="M0,0 L10,0 L12,2 L13,33 L14,91 L16,98 L33,99 L35,101 L35,112 L34,113 L19,114 L1,113 L-1,111 L-2,98 L-3,5 Z " fill="#000000" transform="translate(223,519)"/>
<path d="M0,0 L7,6 L28,27 L35,35 L43,43 L43,45 L47,47 L70,70 L77,78 L82,83 L129,130 L134,135 L146,147 L151,153 L151,155 L155,157 L157,161 L159,161 L166,169 L183,186 L187,191 L193,196 L200,204 L221,225 L221,227 L225,229 L243,247 L248,252 L255,260 L260,265 L277,282 L277,284 L280,285 L280,287 L284,289 L289,294 L289,296 L293,298 L299,305 L307,312 L314,320 L319,325 L342,348 L347,353 L361,368 L390,397 L397,405 L417,425 L424,433 L450,459 L457,467 L463,473 L463,475 L467,477 L480,490 L485,495 L496,507 L510,521 L515,526 L533,544 L533,546 L526,546 L519,538 L488,507 L488,505 L484,503 L469,487 L456,474 L449,466 L419,436 L413,429 L408,424 L392,408 L387,403 L386,400 L383,399 L383,397 L381,397 L374,389 L363,378 L358,373 L347,361 L342,356 L311,325 L306,320 L301,314 L296,310 L292,305 L289,303 L289,301 L287,301 L280,293 L242,255 L236,248 L231,243 L224,236 L218,231 L218,229 L214,227 L205,217 L184,196 L177,188 L150,161 L149,157 L145,155 L143,151 L140,150 L140,148 L138,148 L131,140 L124,133 L120,129 L120,127 L117,126 L112,121 L106,114 L101,109 L65,73 L58,65 L15,22 L8,14 L2,7 L0,6 Z " fill="#000000" transform="translate(0,549)"/>
<path d="M0,0 L2,0 L2,8 L-7,17 L-9,17 L-11,21 L-23,33 L-30,41 L-48,59 L-55,67 L-66,79 L-83,96 L-88,102 L-90,102 L-90,104 L-96,109 L-103,117 L-118,132 L-124,139 L-129,143 L-136,151 L-141,155 L-148,163 L-153,168 L-201,216 L-205,221 L-207,221 L-208,224 L-213,228 L-214,230 L-216,230 L-218,234 L-223,239 L-225,239 L-227,243 L-232,248 L-234,248 L-234,250 L-238,254 L-240,254 L-241,257 L-243,257 L-245,261 L-249,263 L-249,265 L-253,269 L-255,269 L-257,273 L-282,298 L-289,306 L-429,446 L-431,446 L-433,450 L-459,476 L-464,481 L-470,486 L-474,491 L-479,496 L-487,503 L-492,508 L-511,527 L-513,527 L-515,531 L-526,542 L-527,544 L-535,544 L-533,540 L-526,533 L-524,533 L-522,529 L-515,522 L-513,522 L-513,520 L-505,513 L-487,495 L-485,495 L-484,492 L-482,492 L-481,489 L-479,489 L-477,485 L-472,480 L-470,480 L-468,476 L-464,474 L-462,470 L-454,462 L-452,462 L-450,458 L-443,452 L-442,450 L-440,450 L-439,447 L-431,440 L-422,430 L-416,425 L-411,420 L-383,392 L-379,387 L-377,387 L-375,383 L-365,374 L-358,366 L-356,366 L-354,362 L-350,360 L-349,357 L-347,357 L-346,354 L-344,354 L-344,352 L-336,345 L-323,332 L-316,324 L-313,321 L-311,321 L-309,317 L-292,300 L-290,300 L-288,296 L-276,283 L-208,215 L-203,210 L-191,198 L-190,196 L-188,196 L-187,193 L-180,187 L-173,179 L-122,128 L-115,120 L-112,117 L-110,117 L-109,114 L-107,114 L-105,110 L-100,105 L-98,105 L-96,101 L-78,83 L-74,78 L-72,78 L-70,74 L-59,63 L-52,55 L-44,46 L-38,41 L-37,39 L-35,39 L-33,35 L-24,26 L-17,18 L-2,3 Z " fill="#000000" transform="translate(1081,551)"/>
</svg>
