<?xml version="1.0" encoding="UTF-8"?>
<!-- Generator: visioncortex VTracer 0.6.12 -->
<svg version="1.1" xmlns="http://www.w3.org/2000/svg" width="1119" height="1116">
<path d="M0,0 L131,0 L128,2 L103,3 L80,3 L37,5 L25,8 L5,13 L-12,20 L-24,27 L-31,31 L-41,40 L-49,47 L-56,53 L-64,64 L-70,72 L-76,82 L-87,107 L-92,129 L-94,140 L-95,159 L-97,165 L-98,165 L-98,99 L-93,87 L-87,77 L-81,66 L-74,56 L-66,46 L-61,41 L-48,28 L-37,20 L-28,14 L-12,6 Z " fill="#000000" transform="translate(98,0)"/>
<path d="M0,0 L14,0 L14,1 L0,1 Z " fill="#000000" transform="translate(231,0)"/>
<path d="M0,0 L9,0 L9,1 L0,1 Z " fill="#000000" transform="translate(254,0)"/>
<path d="M0,0 L35,0 L57,12 L71,22 L87,37 L97,49 L105,59 L112,71 L120,87 L125,100 L127,109 L128,110 L128,736 L127,736 L126,722 L125,656 L124,575 L123,501 L123,477 L122,410 L122,359 L121,296 L120,195 L120,173 L119,124 L116,118 L110,95 L100,74 L90,59 L81,48 L74,41 L72,40 L72,38 L69,37 L69,35 L64,33 L58,28 L48,21 L32,13 L17,6 L1,2 Z " fill="#000000" transform="translate(991,0)"/>
<path d="M0,0 L2,2 L2,12 L1,17 L0,17 Z " fill="#000000" transform="translate(0,177)"/>
<path d="M0,0 L2,4 L3,31 L3,111 L4,274 L4,368 L5,479 L5,625 L6,728 L6,766 L9,792 L14,811 L19,824 L27,840 L33,851 L41,862 L49,870 L50,874 L54,876 L65,885 L78,894 L94,902 L105,907 L112,909 L118,911 L125,913 L137,915 L138,917 L92,917 L79,910 L70,905 L53,893 L48,888 L41,882 L34,874 L23,861 L19,854 L13,844 L5,828 L1,815 L0,814 Z " fill="#000000" transform="translate(0,199)"/>
<path d="M0,0 L11,0 L27,3 L42,8 L52,14 L62,21 L72,31 L81,43 L89,60 L91,69 L89,72 L75,71 L57,69 L46,68 L29,65 L-2,62 L-8,61 L-16,61 L-26,67 L-31,75 L-34,84 L-34,94 L-29,104 L-25,109 L-14,116 L-2,122 L14,130 L31,139 L47,147 L56,152 L61,156 L60,161 L49,169 L36,175 L22,180 L5,182 L-10,182 L-25,178 L-37,173 L-50,165 L-57,160 L-64,152 L-71,145 L-81,127 L-86,112 L-87,100 L-87,85 L-85,70 L-79,54 L-73,43 L-65,33 L-56,24 L-51,19 L-40,11 L-26,5 L-17,2 Z " fill="#000000" transform="translate(142,364)"/>
<path d="M0,0 L274,0 L278,3 L278,11 L274,15 L254,16 L92,16 L-57,18 L-374,18 L-377,15 L-377,7 L-373,3 L-344,3 L-335,2 L-306,3 L-206,2 L-156,2 L-81,1 L-6,1 Z " fill="#000000" transform="translate(721,396)"/>
<path d="M0,0 L80,0 L85,3 L94,15 L107,38 L112,45 L114,46 L273,47 L307,47 L327,49 L344,55 L356,61 L365,67 L373,74 L379,79 L382,84 L387,89 L395,101 L399,107 L403,118 L405,126 L409,136 L411,147 L411,171 L409,187 L402,208 L393,224 L387,232 L375,245 L370,248 L365,253 L347,263 L331,269 L326,270 L312,271 L262,272 L237,272 L200,273 L196,274 L193,293 L191,295 L181,296 L172,296 L169,294 L168,291 L167,276 L162,273 L65,273 L-20,274 L-43,275 L-48,278 L-50,283 L-51,294 L-55,298 L-72,298 L-75,294 L-75,284 L-78,277 L-84,275 L-111,275 L-129,274 L-138,271 L-152,264 L-162,255 L-168,247 L-172,239 L-175,231 L-178,219 L-186,212 L-215,196 L-236,185 L-258,173 L-275,164 L-294,154 L-320,140 L-339,130 L-355,122 L-380,108 L-391,102 L-416,89 L-430,83 L-443,76 L-459,68 L-476,59 L-487,53 L-503,45 L-509,41 L-513,36 L-514,33 L-514,22 L-511,14 L-506,9 L-503,7 L-482,7 L-462,9 L-452,11 L-434,13 L-411,16 L-395,19 L-382,21 L-363,24 L-345,26 L-336,28 L-325,29 L-322,30 L-299,32 L-266,37 L-249,39 L-227,42 L-209,45 L-192,47 L-171,48 L-138,48 L-48,47 L-35,46 L-30,43 L-22,26 L-12,9 L-5,3 Z M337,64 L336,68 L341,69 L342,65 Z M149,68 L137,69 L133,72 L132,76 L132,140 L133,153 L135,157 L140,159 L149,160 L237,160 L244,158 L247,155 L248,151 L248,112 L247,75 L244,70 L239,68 Z M273,68 L268,72 L267,85 L267,138 L268,153 L271,158 L277,160 L316,160 L390,159 L395,157 L397,155 L397,146 L392,129 L388,120 L381,108 L371,96 L363,89 L356,83 L339,74 L324,69 L317,68 Z M-129,69 L-135,71 L-138,75 L-139,86 L-139,149 L-136,157 L-128,160 L-29,160 L-24,156 L-23,147 L-23,88 L-24,76 L-28,70 L-30,69 Z M55,68 L4,69 L-2,72 L-3,74 L-4,94 L-3,144 L-2,154 L1,158 L12,160 L103,160 L109,157 L110,156 L111,137 L110,97 L111,89 L108,73 L105,70 L102,69 Z " fill="#000000" transform="translate(631,427)"/>
<path d="M0,0 L12,0 L21,6 L26,14 L28,19 L28,29 L21,40 L16,44 L9,47 L-1,47 L-11,42 L-15,37 L-17,32 L-17,17 L-11,7 L-3,1 Z " fill="#000000" transform="translate(775,738)"/>
<path d="M0,0 L12,0 L20,5 L26,12 L28,16 L28,29 L24,37 L19,42 L10,47 L1,47 L-6,44 L-13,38 L-17,29 L-17,16 L-11,6 L-3,1 Z " fill="#000000" transform="translate(837,738)"/>
<path d="M0,0 L8,0 L16,4 L19,6 L19,8 L22,9 L25,15 L26,24 L23,35 L18,41 L9,46 L-4,46 L-14,40 L-18,34 L-19,31 L-19,17 L-13,7 L-3,1 Z " fill="#000000" transform="translate(564,740)"/>
<path d="M0,0 L2,0 L2,3 L0,3 Z " fill="#000000" transform="translate(850,864)"/>
<path d="M0,0 L1,0 L1,48 L-1,48 L-2,53 L-14,74 L-27,90 L-34,98 L-39,103 L-49,112 L-64,122 L-87,134 L-99,138 L-102,140 L-675,140 L-675,139 L-659,138 L-579,137 L-498,137 L-417,136 L-331,136 L-311,135 L-152,135 L-128,132 L-113,129 L-97,124 L-86,120 L-67,110 L-60,104 L-50,96 L-41,87 L-36,82 L-32,77 L-24,66 L-14,47 L-4,17 L-1,1 Z " fill="#000000" transform="translate(1118,976)"/>
</svg>
