<?xml version="1.0" encoding="UTF-8"?>
<!-- Generator: visioncortex VTracer 0.6.12 -->
<svg version="1.1" xmlns="http://www.w3.org/2000/svg" width="1194" height="1332">
<path d="M0,0 L1058,0 L1058,36 L1057,37 L1042,38 L974,38 L909,37 L845,37 L656,36 L586,36 L568,35 L537,36 L530,35 L424,35 L419,34 L416,35 L254,34 L202,34 L200,39 L195,38 L191,34 L168,33 L0,33 Z " fill="#000000" transform="translate(0,0)"/>
<path d="M0,0 L5,1 L120,1 L133,0 L146,1 L158,1 L171,2 L193,7 L212,14 L222,18 L232,24 L238,28 L250,37 L256,42 L261,47 L266,52 L280,67 L287,77 L295,91 L301,105 L304,113 L308,124 L313,148 L315,176 L315,259 L316,271 L316,374 L317,395 L317,452 L318,461 L317,468 L318,489 L317,523 L318,532 L319,576 L320,667 L320,702 L321,781 L321,870 L320,885 L317,901 L312,918 L306,932 L298,948 L291,959 L283,970 L275,980 L270,984 L266,990 L256,998 L247,1004 L236,1010 L217,1020 L209,1024 L201,1028 L187,1030 L170,1033 L162,1034 L129,1035 L6,1035 L-5,1036 L-33,1036 L-40,1037 L-43,1036 L-65,1036 L-78,1035 L-139,1035 L-155,1036 L-170,1036 L-173,1035 L-183,1035 L-190,1036 L-210,1036 L-217,1037 L-224,1036 L-234,1035 L-249,1035 L-256,1036 L-266,1035 L-273,1036 L-311,1035 L-317,1036 L-326,1035 L-372,1035 L-381,1036 L-408,1035 L-414,1036 L-422,1035 L-443,1035 L-458,1037 L-463,1036 L-464,1035 L-471,1035 L-476,1037 L-480,1035 L-490,1035 L-497,1038 L-502,1037 L-503,1036 L-522,1036 L-530,1035 L-536,1036 L-542,1035 L-566,1034 L-575,1031 L-582,1028 L-596,1025 L-605,1020 L-610,1018 L-618,1014 L-627,1009 L-632,1005 L-638,1002 L-641,997 L-655,986 L-662,980 L-666,974 L-671,969 L-678,956 L-683,949 L-689,935 L-695,923 L-697,913 L-699,909 L-704,882 L-705,814 L-705,786 L-706,662 L-706,530 L-707,493 L-707,160 L-705,152 L-704,140 L-702,136 L-700,126 L-694,109 L-691,102 L-681,83 L-672,71 L-662,59 L-657,54 L-654,53 L-652,49 L-640,38 L-628,30 L-607,18 L-598,15 L-588,11 L-579,9 L-567,6 L-558,5 L-536,4 L-495,4 L-441,3 L-423,3 L-416,4 L-383,3 L-371,4 L-368,3 L-184,3 L-171,2 L-158,3 L-154,2 L-69,2 L-37,1 L-4,1 Z M79,34 L71,35 L-8,35 L-26,36 L-30,35 L-36,36 L-41,35 L-48,36 L-69,36 L-74,35 L-82,35 L-88,37 L-99,37 L-106,35 L-113,36 L-151,36 L-157,37 L-165,36 L-180,37 L-190,37 L-196,38 L-198,37 L-208,36 L-213,35 L-215,37 L-233,36 L-240,37 L-259,37 L-272,36 L-277,37 L-279,36 L-285,36 L-289,38 L-305,38 L-314,37 L-330,37 L-343,36 L-356,38 L-401,37 L-415,38 L-417,37 L-534,37 L-541,40 L-544,38 L-550,39 L-563,41 L-576,43 L-582,46 L-590,48 L-604,55 L-607,58 L-615,62 L-622,68 L-632,73 L-638,80 L-644,88 L-650,96 L-655,105 L-659,111 L-664,122 L-668,132 L-671,140 L-674,155 L-676,171 L-676,270 L-675,274 L-675,396 L-674,465 L-674,766 L-673,813 L-673,836 L-672,857 L-672,869 L-671,888 L-664,911 L-653,934 L-646,944 L-640,952 L-627,965 L-620,970 L-615,975 L-610,978 L-593,987 L-585,992 L-564,998 L-548,1000 L-539,1001 L-497,1001 L-465,1002 L-446,1001 L-326,1001 L-271,1000 L-268,1001 L-257,1001 L-246,1000 L-237,1000 L-229,1001 L-189,1000 L-140,1001 L-2,1001 L75,1000 L127,1000 L161,999 L187,995 L202,989 L218,981 L228,975 L236,969 L243,962 L251,956 L256,950 L261,945 L267,936 L275,923 L281,910 L284,903 L288,886 L290,867 L290,806 L289,758 L289,694 L288,660 L287,550 L287,454 L286,451 L285,376 L285,310 L284,253 L284,194 L282,167 L282,156 L278,136 L273,120 L266,106 L260,99 L255,90 L248,82 L242,73 L235,69 L230,64 L224,59 L205,49 L201,46 L190,43 L184,42 L178,39 L167,37 L128,35 L87,35 Z " fill="#000000" transform="translate(743,124)"/>
<path d="M0,0 L3,0 L3,3 L0,3 Z " fill="#000000" transform="translate(579,240)"/>
<path d="M0,0 L5,1 L7,6 L10,22 L17,22 L23,20 L32,19 L64,18 L77,18 L85,17 L92,18 L115,18 L151,17 L280,17 L285,19 L286,20 L286,30 L283,35 L278,39 L267,41 L253,42 L251,43 L245,43 L241,42 L238,45 L233,44 L228,43 L217,42 L203,42 L197,45 L187,42 L166,43 L94,43 L92,45 L86,45 L85,44 L35,44 L12,42 L10,49 L9,67 L10,76 L13,79 L20,81 L23,80 L208,80 L223,82 L238,88 L252,96 L262,104 L269,112 L276,122 L282,133 L288,148 L290,157 L292,171 L292,237 L289,254 L285,266 L276,282 L271,287 L259,299 L248,307 L238,311 L232,314 L217,318 L211,319 L204,317 L199,318 L187,318 L178,319 L171,318 L129,318 L122,322 L116,321 L111,318 L60,318 L55,319 L-4,319 L-12,318 L-18,320 L-62,318 L-74,314 L-85,308 L-90,304 L-101,298 L-107,293 L-112,290 L-126,280 L-131,281 L-134,279 L-137,274 L-143,272 L-147,271 L-150,264 L-165,255 L-177,247 L-181,243 L-191,238 L-200,232 L-215,224 L-224,216 L-232,212 L-237,207 L-245,203 L-255,196 L-264,190 L-273,186 L-279,181 L-285,177 L-296,169 L-306,164 L-310,160 L-317,157 L-323,153 L-329,154 L-334,157 L-347,162 L-370,161 L-385,153 L-396,141 L-401,129 L-402,126 L-402,105 L-398,92 L-391,81 L-380,72 L-366,67 L-347,68 L-335,72 L-327,78 L-318,87 L-312,101 L-310,124 L-307,130 L-292,140 L-285,145 L-270,146 L-260,146 L-253,147 L-238,146 L-204,146 L-117,145 L-104,143 L-94,138 L-85,129 L-79,119 L-71,105 L-66,100 L-59,92 L-53,88 L-40,83 L-34,81 L-18,80 L-10,80 L-7,77 L-6,51 L-9,44 L-11,42 L-16,43 L-19,44 L-25,42 L-30,44 L-76,44 L-83,45 L-89,43 L-96,44 L-113,44 L-117,45 L-121,43 L-132,44 L-177,44 L-182,45 L-184,44 L-233,44 L-239,43 L-254,43 L-277,42 L-279,40 L-279,30 L-276,25 L-266,19 L-104,19 L-32,18 L-19,21 L-16,22 L-8,22 L-6,16 L-4,5 L-2,1 Z M-362,106 L-367,111 L-368,117 L-362,124 L-355,125 L-348,120 L-347,113 L-351,109 L-354,107 Z M-12,106 L-17,109 L-24,115 L-25,118 L-26,132 L-26,154 L-24,161 L-19,165 L-12,167 L-3,166 L43,166 L53,164 L57,159 L57,116 L53,110 L46,109 L43,107 L4,107 L1,106 Z M95,106 L86,109 L80,116 L79,125 L79,150 L81,160 L85,164 L91,166 L109,166 L114,169 L118,166 L147,166 L159,163 L163,159 L165,149 L165,129 L163,115 L158,109 L151,106 Z M196,107 L191,111 L187,118 L186,137 L187,160 L192,165 L207,165 L210,161 L213,160 L214,163 L216,164 L241,164 L246,161 L247,160 L247,151 L243,136 L235,122 L224,113 L209,107 Z " fill="#000000" transform="translate(597,433)"/>
<path d="M0,0 Z " fill="#000000" transform="translate(1158,499)"/>
<path d="M0,0 L2,1 L2,3 L-1,3 Z " fill="#000000" transform="translate(1011,712)"/>
<path d="M0,0 L8,1 L17,7 L21,14 L22,26 L20,36 L15,42 L8,48 L-2,47 L-11,44 L-17,37 L-20,28 L-19,18 L-14,8 L-8,3 L-5,1 Z " fill="#000000" transform="translate(604,773)"/>
<path d="M0,0 L7,0 L15,4 L20,9 L23,18 L24,26 L22,35 L18,42 L11,47 L2,47 L-5,45 L-13,39 L-17,32 L-17,15 L-12,6 L-10,4 L-3,2 Z M-5,4 L-6,10 L-1,10 L-1,6 Z " fill="#000000" transform="translate(772,773)"/>
<path d="M0,0 L5,1 L8,6 L6,15 L-2,35 L-7,52 L-11,62 L-16,79 L-22,84 L-27,85 L-33,82 L-36,76 L-39,67 L-45,50 L-47,41 L-54,26 L-57,18 L-59,10 L-58,3 L-56,1 L-50,1 L-45,7 L-42,17 L-37,31 L-33,41 L-29,55 L-28,59 L-24,58 L-22,53 L-18,40 L-11,17 L-8,8 L-2,1 Z " fill="#000000" transform="translate(255,1210)"/>
<path d="M0,0 L31,0 L40,1 L50,5 L57,11 L63,23 L64,45 L61,61 L55,71 L49,78 L41,82 L4,84 L-1,81 L-3,77 L-4,35 L-4,10 L-2,1 Z M17,14 L12,17 L10,24 L9,53 L10,64 L14,69 L17,70 L30,70 L38,68 L44,64 L48,57 L49,50 L49,32 L45,22 L41,17 L37,15 L18,14 Z " fill="#000000" transform="translate(126,1212)"/>
<path d="M0,0 L8,0 L13,4 L17,14 L19,22 L23,30 L29,46 L35,60 L38,69 L41,76 L40,82 L37,85 L30,84 L26,80 L19,62 L12,61 L-7,61 L-12,66 L-19,80 L-24,84 L-29,84 L-31,82 L-31,72 L-26,60 L-24,54 L-18,39 L-15,29 L-11,21 L-6,6 L-2,1 Z M2,26 L-4,40 L-4,45 L-2,47 L6,48 L11,45 L11,39 L9,35 L7,27 Z " fill="#000000" transform="translate(70,1213)"/>
</svg>
