<?xml version="1.0" encoding="UTF-8"?>
<!-- Generator: visioncortex VTracer 0.6.12 -->
<svg version="1.1" xmlns="http://www.w3.org/2000/svg" width="1164" height="1188">
<path d="M0,0 L254,0 L275,1 L321,0 L340,1 L395,1 L442,2 L481,2 L550,3 L591,3 L666,4 L689,5 L696,4 L713,4 L715,5 L742,5 L759,6 L786,5 L814,5 L891,6 L1087,6 L1087,1119 L1048,1119 L1028,1118 L912,1118 L894,1117 L870,1117 L868,1116 L855,1117 L811,1116 L735,1116 L728,1115 L726,1116 L683,1116 L612,1115 L558,1115 L530,1114 L520,1115 L502,1115 L496,1116 L483,1115 L445,1115 L436,1114 L395,1114 L378,1113 L370,1114 L350,1114 L315,1113 L197,1113 L169,1112 L138,1112 L133,1113 L130,1112 L101,1111 L49,1111 L47,1110 L40,1110 L34,1111 L9,1110 L-3,1110 L-7,1108 L-8,1105 L-8,681 L-7,615 L-8,589 L-7,569 L-7,441 L-6,375 L-7,341 L-6,299 L-6,123 L-5,31 L-4,7 L-2,1 Z M851,14 L850,19 L854,19 L853,15 Z M116,41 L98,44 L84,50 L72,59 L62,69 L56,79 L52,87 L49,99 L47,113 L46,189 L46,891 L47,930 L47,964 L46,981 L48,1010 L51,1024 L56,1036 L65,1049 L73,1056 L78,1061 L93,1068 L98,1070 L116,1073 L180,1074 L236,1074 L264,1075 L455,1075 L519,1076 L557,1075 L563,1076 L608,1075 L612,1076 L741,1076 L806,1077 L866,1077 L908,1078 L968,1079 L1000,1079 L1018,1076 L1030,1071 L1044,1063 L1057,1050 L1064,1038 L1069,1021 L1071,1003 L1072,946 L1072,922 L1073,837 L1074,805 L1074,743 L1075,715 L1075,661 L1076,597 L1075,578 L1076,537 L1076,454 L1077,417 L1077,297 L1078,210 L1078,108 L1074,92 L1067,79 L1061,71 L1056,66 L1046,58 L1036,52 L1026,50 L1014,47 L996,46 L942,46 L886,45 L780,45 L769,44 L634,44 L591,43 L511,43 L500,42 L409,42 L397,41 L391,43 L388,42 L330,41 Z " fill="#000000" transform="translate(77,37)"/>
<path d="M0,0 L6,0 L14,6 L21,5 L31,4 L36,5 L44,5 L50,4 L60,4 L74,3 L80,2 L82,4 L82,11 L78,12 L50,11 L35,14 L27,14 L20,13 L15,15 L11,18 L11,23 L17,25 L31,22 L71,21 L79,25 L88,33 L89,38 L85,38 L80,37 L79,40 L75,39 L70,35 L63,34 L54,34 L50,36 L49,38 L49,47 L51,56 L54,62 L59,65 L73,68 L84,69 L86,67 L88,57 L92,58 L95,62 L99,63 L99,53 L96,50 L94,47 L94,43 L98,44 L102,51 L102,54 L106,56 L110,60 L126,65 L135,68 L148,74 L157,79 L165,85 L173,94 L178,107 L178,119 L175,133 L171,143 L162,153 L146,160 L140,161 L133,161 L127,163 L122,162 L118,163 L98,164 L91,167 L87,173 L88,180 L90,187 L90,194 L88,200 L84,206 L79,209 L72,211 L66,210 L57,203 L55,200 L54,195 L54,187 L55,178 L52,171 L49,168 L38,168 L35,169 L17,169 L4,170 L-10,171 L-19,172 L-44,173 L-53,174 L-95,176 L-129,178 L-164,179 L-169,178 L-263,179 L-326,179 L-336,184 L-341,187 L-347,187 L-345,182 L-345,178 L-347,177 L-354,177 L-359,179 L-361,183 L-361,189 L-357,191 L-359,196 L-363,200 L-367,210 L-371,214 L-376,214 L-381,209 L-380,201 L-377,198 L-366,195 L-366,185 L-370,179 L-376,178 L-387,179 L-423,179 L-435,178 L-446,172 L-457,162 L-465,151 L-467,147 L-471,144 L-475,137 L-480,131 L-488,119 L-500,104 L-505,99 L-509,89 L-516,78 L-522,69 L-523,65 L-526,64 L-525,59 L-510,57 L-501,52 L-498,47 L-496,41 L-493,38 L-490,39 L-489,48 L-480,51 L-470,56 L-459,67 L-453,70 L-445,72 L-438,75 L-439,79 L-442,80 L-440,87 L-433,95 L-428,100 L-414,115 L-406,123 L-400,126 L-392,125 L-374,122 L-369,120 L-359,119 L-350,117 L-347,115 L-339,115 L-323,111 L-310,108 L-285,104 L-268,101 L-256,99 L-251,97 L-236,95 L-221,92 L-207,90 L-194,87 L-180,85 L-165,82 L-149,78 L-139,76 L-128,73 L-112,66 L-93,58 L-84,55 L-73,50 L-64,47 L-57,43 L-51,41 L-44,37 L-31,33 L-28,31 L-7,27 L-3,25 L-3,19 L-6,17 L-14,17 L-18,19 L-37,19 L-38,18 L-38,8 L-36,6 L-29,5 L-15,5 L-10,6 L-3,2 Z M18,100 L11,102 L8,106 L8,116 L12,122 L16,124 L22,123 L28,118 L30,113 L29,106 L26,101 L24,100 Z M-18,101 L-23,106 L-24,113 L-22,120 L-19,124 L-14,125 L-6,122 L-2,118 L-2,108 L-5,103 L-8,101 Z M-48,102 L-52,106 L-54,116 L-52,122 L-48,126 L-40,125 L-33,122 L-32,120 L-32,108 L-36,103 L-40,102 Z M-72,105 L-81,106 L-85,110 L-86,120 L-81,127 L-75,128 L-66,125 L-63,121 L-63,111 L-67,106 Z " fill="#000000" transform="translate(767,485)"/>
</svg>
