<?xml version="1.0" encoding="UTF-8"?>
<!-- Generator: visioncortex VTracer 0.6.12 -->
<svg version="1.1" xmlns="http://www.w3.org/2000/svg" width="1122" height="1113">
<path d="M0,0 L33,0 L30,3 L13,7 L-6,15 L-22,25 L-30,32 L-43,45 L-56,63 L-61,73 L-67,95 L-69,106 L-71,107 L-71,71 L-69,71 L-68,64 L-59,50 L-52,42 L-44,32 L-35,22 L-24,14 L-7,4 L-1,1 Z " fill="#000000" transform="translate(71,0)"/>
<path d="M0,0 L28,0 L28,2 L34,4 L44,10 L58,20 L65,27 L70,32 L79,42 L90,58 L93,62 L97,72 L102,82 L102,231 L100,230 L99,215 L99,163 L98,119 L94,96 L89,80 L77,58 L67,45 L60,37 L48,25 L38,18 L24,10 L18,7 L1,2 Z " fill="#000000" transform="translate(1020,0)"/>
<path d="M0,0 L1,0 L1,106 L-1,104 L-1,7 Z " fill="#000000" transform="translate(1121,255)"/>
<path d="M0,0 L261,0 L269,5 L273,10 L275,13 L276,24 L274,32 L270,38 L260,44 L258,45 L181,46 L101,46 L32,47 L-5,47 L-19,46 L-25,42 L-32,36 L-32,34 L-40,33 L-55,33 L-88,34 L-90,37 L-90,105 L-89,119 L-87,125 L67,125 L95,124 L127,127 L142,130 L161,138 L176,146 L189,155 L203,168 L210,176 L221,191 L225,199 L233,215 L240,230 L251,255 L261,280 L268,294 L276,314 L285,335 L290,351 L290,367 L287,379 L281,391 L275,398 L267,405 L253,412 L240,414 L214,415 L115,416 L69,416 L3,417 L-51,417 L-155,418 L-189,417 L-199,414 L-213,406 L-222,396 L-228,386 L-232,378 L-236,368 L-242,353 L-247,342 L-259,314 L-262,308 L-270,304 L-279,301 L-303,292 L-323,284 L-339,278 L-351,273 L-369,267 L-394,257 L-410,251 L-426,245 L-439,240 L-449,236 L-456,233 L-465,231 L-468,229 L-474,230 L-485,239 L-497,248 L-515,256 L-534,261 L-557,261 L-573,258 L-576,256 L-586,254 L-602,245 L-613,237 L-620,230 L-622,226 L-629,220 L-635,210 L-641,197 L-645,184 L-647,169 L-647,155 L-645,142 L-642,130 L-634,113 L-624,100 L-616,91 L-607,84 L-601,80 L-593,75 L-578,69 L-566,66 L-558,65 L-535,65 L-516,69 L-500,77 L-490,83 L-477,95 L-469,104 L-462,115 L-456,126 L-449,129 L-194,127 L-135,126 L-128,124 L-127,119 L-127,48 L-128,38 L-132,34 L-177,34 L-185,36 L-193,45 L-200,48 L-208,49 L-247,49 L-351,51 L-467,51 L-480,48 L-485,43 L-490,35 L-490,21 L-484,12 L-479,8 L-473,6 L-432,5 L-357,5 L-312,4 L-209,3 L-196,5 L-188,12 L-183,16 L-88,16 L-38,15 L-32,12 L-27,6 L-19,2 Z M-558,97 L-573,101 L-584,107 L-593,114 L-604,127 L-611,141 L-613,150 L-613,175 L-609,188 L-601,203 L-595,210 L-579,222 L-562,228 L-551,229 L-541,229 L-524,225 L-516,220 L-513,217 L-514,213 L-519,210 L-531,204 L-540,201 L-560,193 L-570,187 L-576,179 L-580,170 L-580,155 L-574,143 L-569,137 L-557,131 L-552,130 L-501,129 L-497,126 L-498,121 L-506,111 L-512,107 L-520,102 L-532,98 L-538,97 Z M41,160 L28,161 L23,163 L21,176 L21,215 L22,258 L23,272 L24,275 L29,278 L77,278 L92,277 L96,274 L97,271 L98,249 L98,188 L97,167 L94,161 L88,160 Z M-54,161 L-86,162 L-89,166 L-90,177 L-90,216 L-89,260 L-87,275 L-82,279 L-33,279 L-21,278 L-15,275 L-14,272 L-14,183 L-15,166 L-20,161 Z M136,167 L134,169 L133,175 L132,194 L133,209 L134,271 L136,275 L144,277 L190,277 L212,276 L215,273 L215,266 L210,254 L205,241 L198,226 L190,209 L180,195 L173,187 L165,181 L157,175 L147,169 L140,167 Z " fill="#000000" transform="translate(712,279)"/>
<path d="M0,0 L71,0 L89,5 L102,15 L110,24 L114,32 L117,41 L117,60 L112,75 L106,84 L95,94 L82,100 L71,102 L51,103 L-168,103 L-296,104 L-387,105 L-410,103 L-422,98 L-433,90 L-442,78 L-447,66 L-448,60 L-448,50 L-444,34 L-440,26 L-430,15 L-419,8 L-406,4 L-373,3 L-295,2 L-240,2 L-169,1 L-48,1 Z " fill="#000000" transform="translate(887,765)"/>
<path d="M0,0 L1,0 L2,9 L0,12 Z " fill="#000000" transform="translate(0,903)"/>
<path d="M0,0 L1,0 L2,15 L0,19 Z " fill="#000000" transform="translate(0,934)"/>
<path d="M0,0 L2,3 L4,24 L6,38 L12,58 L19,71 L25,81 L29,87 L36,97 L47,111 L54,116 L59,121 L69,128 L85,136 L101,142 L111,144 L113,146 L82,146 L82,144 L77,143 L62,134 L49,124 L41,117 L34,111 L23,96 L15,84 L12,80 L1,56 L0,55 Z " fill="#000000" transform="translate(0,967)"/>
<path d="M0,0 L1,0 L1,34 L-1,34 L-3,40 L-9,50 L-19,63 L-33,78 L-41,84 L-50,90 L-69,99 L-81,103 L-93,107 L-94,108 L-199,108 L-196,106 L-153,105 L-133,103 L-113,100 L-97,97 L-79,92 L-67,86 L-58,82 L-42,72 L-33,63 L-31,63 L-29,59 L-23,52 L-14,38 L-6,21 L-1,1 Z " fill="#000000" transform="translate(1121,1005)"/>
<path d="M0,0 L33,0 L39,1 L39,2 L-5,2 L-5,1 Z " fill="#000000" transform="translate(860,1111)"/>
<path d="M0,0 L17,0 L17,1 L0,1 Z " fill="#000000" transform="translate(823,1112)"/>
<path d="M0,0 L4,1 L4,2 L-4,2 Z " fill="#000000" transform="translate(908,1111)"/>
</svg>
