<?xml version="1.0" encoding="UTF-8"?>
<!-- Generator: visioncortex VTracer 0.6.12 -->
<svg version="1.1" xmlns="http://www.w3.org/2000/svg" width="1044" height="990">
<path d="M0,0 L1044,0 L1044,990 L0,990 Z M436,3 L428,5 L418,5 L415,4 L396,4 L361,5 L315,5 L310,6 L307,5 L274,5 L265,4 L243,5 L196,5 L160,4 L156,5 L129,5 L126,4 L96,4 L88,5 L86,4 L23,4 L10,6 L8,10 L6,32 L6,961 L7,978 L10,982 L22,982 L41,983 L75,983 L112,984 L116,983 L153,984 L243,984 L268,983 L282,984 L312,983 L317,984 L456,984 L494,985 L545,984 L679,985 L687,984 L705,985 L1034,985 L1036,980 L1037,970 L1038,933 L1038,831 L1039,638 L1039,524 L1040,438 L1040,321 L1041,289 L1041,15 L1037,9 L1031,6 L1016,5 L1012,3 L996,3 L976,4 L918,4 L911,5 L895,5 L890,4 L887,5 L874,5 L866,4 L850,4 L841,5 L796,6 L794,5 L700,5 L694,6 L675,5 L563,5 L553,4 L546,5 L536,5 L519,4 L508,5 L487,4 L451,4 Z " fill="#000000" transform="translate(0,0)"/>
<path d="M0,0 L13,0 L17,4 L19,10 L19,23 L15,29 L13,30 L4,30 L-10,33 L-40,37 L-43,38 L-73,40 L-83,42 L-93,42 L-103,45 L-137,48 L-150,49 L-153,50 L-173,52 L-187,54 L-200,55 L-212,57 L-222,58 L-224,59 L-241,61 L-250,63 L-262,63 L-276,64 L-282,66 L-293,68 L-302,68 L-311,71 L-324,71 L-334,73 L-339,78 L-342,82 L-342,131 L-338,139 L-333,147 L-330,162 L-328,168 L-321,168 L-308,163 L-296,158 L-269,152 L-242,151 L-224,152 L-201,152 L-188,156 L-184,160 L-183,164 L-183,176 L-186,185 L-194,190 L-206,195 L-215,202 L-219,207 L-222,212 L-222,219 L-188,218 L-180,218 L-177,217 L-165,216 L-114,214 L-67,211 L-62,210 L-40,209 L-19,207 L-3,206 L16,204 L52,202 L73,200 L86,196 L99,190 L100,183 L94,175 L86,166 L80,156 L77,150 L74,139 L73,131 L73,115 L74,102 L77,92 L84,78 L92,68 L101,58 L112,50 L126,43 L137,39 L153,39 L152,43 L139,47 L131,47 L119,53 L114,57 L107,61 L96,71 L90,80 L84,95 L81,106 L80,118 L80,129 L81,138 L88,155 L96,167 L103,175 L109,178 L114,177 L119,171 L128,157 L139,134 L145,123 L148,116 L153,111 L162,110 L168,113 L170,117 L169,134 L163,162 L160,182 L161,191 L165,193 L171,193 L178,192 L178,196 L172,199 L162,203 L157,208 L154,212 L148,232 L144,237 L135,241 L112,247 L104,250 L88,254 L78,257 L69,259 L55,262 L51,264 L37,267 L28,270 L5,275 L0,277 L-17,280 L-21,282 L-30,283 L-43,287 L-54,291 L-61,292 L-71,294 L-79,296 L-91,300 L-111,305 L-112,306 L-122,308 L-140,313 L-150,316 L-164,319 L-169,321 L-178,322 L-188,327 L-199,330 L-209,331 L-226,338 L-245,346 L-256,355 L-259,358 L-265,361 L-273,369 L-280,381 L-285,398 L-287,408 L-288,431 L-288,439 L-285,446 L-283,448 L-274,449 L-245,449 L-222,450 L-213,449 L-174,450 L-149,450 L-136,451 L-120,456 L-110,461 L-102,469 L-95,480 L-92,488 L-91,497 L-91,510 L-95,523 L-101,533 L-113,544 L-120,548 L-136,552 L-144,554 L-187,553 L-254,553 L-261,554 L-263,553 L-329,553 L-334,554 L-336,553 L-393,553 L-438,552 L-464,552 L-544,553 L-556,554 L-559,553 L-566,553 L-568,554 L-590,553 L-599,554 L-601,559 L-605,558 L-609,553 L-618,552 L-630,548 L-641,541 L-652,530 L-658,512 L-658,500 L-656,485 L-650,473 L-642,462 L-628,454 L-621,451 L-595,448 L-587,448 L-584,449 L-568,449 L-563,448 L-543,448 L-505,447 L-496,446 L-492,441 L-492,426 L-494,419 L-499,415 L-503,414 L-530,414 L-546,412 L-562,408 L-572,406 L-577,403 L-593,398 L-600,392 L-607,389 L-611,386 L-616,383 L-623,374 L-631,366 L-638,356 L-644,345 L-650,329 L-652,323 L-655,304 L-656,283 L-654,264 L-652,250 L-646,234 L-636,215 L-629,206 L-622,199 L-617,192 L-608,185 L-595,175 L-579,166 L-563,161 L-554,157 L-542,154 L-522,151 L-503,150 L-497,151 L-490,151 L-487,152 L-471,153 L-455,157 L-436,164 L-421,169 L-405,177 L-390,185 L-383,185 L-379,179 L-374,148 L-367,134 L-366,125 L-367,93 L-370,84 L-372,82 L-377,81 L-387,81 L-403,83 L-408,84 L-415,85 L-423,85 L-429,88 L-447,90 L-459,93 L-468,94 L-470,95 L-493,98 L-499,100 L-506,100 L-512,102 L-539,106 L-558,111 L-568,113 L-588,115 L-594,117 L-604,119 L-609,121 L-620,121 L-623,123 L-638,124 L-647,127 L-654,129 L-666,130 L-671,132 L-682,133 L-687,135 L-702,137 L-706,138 L-714,138 L-719,133 L-721,130 L-722,121 L-720,113 L-716,109 L-706,106 L-669,100 L-666,99 L-652,98 L-642,95 L-622,92 L-615,90 L-602,88 L-579,86 L-574,84 L-560,83 L-551,81 L-533,79 L-518,76 L-500,74 L-492,72 L-456,67 L-427,63 L-406,59 L-389,57 L-383,55 L-366,53 L-347,49 L-329,48 L-295,43 L-276,40 L-259,37 L-228,34 L-218,32 L-197,29 L-190,27 L-170,25 L-155,22 L-133,20 L-122,17 L-110,15 L-89,12 L-74,10 L-52,8 L-46,6 L-28,4 L-5,1 Z M-512,168 L-536,171 L-552,175 L-568,182 L-583,190 L-595,199 L-607,208 L-618,222 L-627,236 L-631,243 L-634,252 L-637,262 L-639,276 L-639,298 L-637,311 L-633,323 L-629,334 L-625,341 L-620,347 L-613,349 L-584,348 L-567,348 L-562,343 L-562,332 L-563,308 L-561,293 L-556,277 L-548,263 L-540,253 L-529,244 L-518,237 L-504,230 L-492,226 L-468,222 L-432,222 L-395,226 L-388,224 L-386,221 L-387,216 L-394,208 L-404,200 L-413,196 L-423,189 L-437,182 L-449,178 L-462,173 L-483,170 L-496,168 Z M-455,227 L-475,228 L-481,231 L-489,232 L-495,235 L-502,237 L-509,240 L-517,244 L-529,254 L-534,258 L-538,263 L-543,268 L-550,280 L-553,287 L-556,302 L-556,320 L-554,332 L-550,342 L-545,346 L-539,348 L-523,348 L-506,347 L-417,347 L-404,344 L-398,336 L-397,334 L-395,318 L-392,299 L-389,276 L-387,255 L-387,248 L-390,241 L-396,234 L-401,232 L-411,230 L-437,227 Z M-441,411 L-446,412 L-460,413 L-466,418 L-468,422 L-468,441 L-464,447 L-458,449 L-404,449 L-397,450 L-351,450 L-344,449 L-325,449 L-316,447 L-313,443 L-312,438 L-312,426 L-314,418 L-319,414 L-329,412 L-386,412 L-392,413 L-400,412 L-432,413 Z " fill="#000000" transform="translate(802,345)"/>
</svg>
