<?xml version="1.0" encoding="UTF-8"?>
<!-- Generator: visioncortex VTracer 0.6.12 -->
<svg version="1.1" xmlns="http://www.w3.org/2000/svg" width="1125" height="1104">
<path d="M0,0 L7,0 L5,7 L4,25 L4,62 L3,121 L3,197 L2,256 L2,270 L0,272 Z " fill="#000000" transform="translate(0,0)"/>
<path d="M0,0 L7,0 L6,3 L1,3 Z " fill="#000000" transform="translate(856,0)"/>
<path d="M0,0 L5,0 L5,1104 L-16,1104 L-15,1102 L-5,1100 L-2,1095 L-1,1046 L-1,923 L0,886 L0,799 L-1,788 L0,711 L-1,691 L0,677 L0,664 L-1,641 L-1,617 L0,555 L0,373 L1,205 L1,8 Z " fill="#000000" transform="translate(1120,0)"/>
<path d="M0,0 L2,2 L2,20 L0,20 Z " fill="#000000" transform="translate(0,278)"/>
<path d="M0,0 L34,0 L37,1 L47,1 L63,0 L78,1 L93,0 L159,1 L203,1 L214,3 L223,10 L229,13 L235,14 L257,14 L283,15 L303,15 L309,12 L311,12 L313,7 L319,2 L324,3 L331,12 L338,15 L409,15 L415,12 L425,5 L430,2 L466,1 L542,1 L559,2 L582,0 L608,1 L811,1 L822,2 L831,10 L833,15 L833,31 L829,39 L824,43 L819,45 L796,46 L780,45 L740,44 L733,45 L721,45 L698,44 L635,44 L618,45 L584,45 L562,46 L550,46 L535,44 L521,45 L515,44 L506,45 L472,45 L464,44 L458,45 L441,45 L429,43 L416,34 L412,32 L392,30 L382,31 L353,31 L338,32 L331,35 L329,45 L329,62 L328,86 L329,111 L332,124 L335,127 L361,128 L472,128 L486,129 L494,128 L600,128 L610,129 L623,129 L626,128 L697,129 L773,129 L792,128 L801,128 L810,127 L815,122 L823,106 L829,96 L838,86 L851,76 L866,69 L877,66 L890,65 L905,65 L922,70 L941,81 L951,89 L962,103 L970,120 L973,130 L974,139 L974,150 L973,165 L969,177 L965,186 L959,195 L953,202 L950,207 L933,219 L928,222 L919,225 L908,228 L896,229 L889,230 L869,226 L853,218 L843,212 L835,205 L827,194 L823,185 L818,177 L812,175 L795,177 L783,180 L755,183 L749,185 L735,186 L728,188 L715,190 L709,191 L689,192 L679,195 L668,196 L665,197 L651,198 L644,200 L622,202 L615,204 L596,206 L571,210 L559,212 L542,214 L530,218 L520,224 L511,231 L497,250 L488,265 L482,272 L474,286 L465,301 L457,314 L451,325 L447,331 L440,341 L435,348 L429,360 L423,368 L413,376 L407,380 L394,386 L339,387 L273,388 L188,389 L171,389 L141,387 L127,387 L113,388 L70,387 L54,384 L40,377 L32,371 L26,366 L18,355 L11,341 L9,335 L8,326 L8,311 L10,301 L18,279 L25,268 L32,258 L35,252 L41,245 L46,233 L54,222 L64,205 L71,194 L79,181 L85,172 L93,159 L101,149 L113,140 L128,132 L147,128 L197,128 L214,129 L218,128 L285,128 L303,127 L309,123 L311,117 L312,87 L312,40 L310,35 L305,31 L300,30 L280,30 L276,31 L239,31 L227,33 L217,41 L208,45 L87,45 L63,46 L35,45 L25,46 L-1,47 L-8,44 L-11,35 L-12,32 L-12,6 L-7,1 Z M890,80 L881,82 L879,83 L870,84 L856,92 L846,101 L839,112 L836,119 L836,124 L840,128 L849,130 L894,130 L907,133 L911,135 L914,139 L914,151 L910,157 L905,159 L884,163 L863,166 L851,167 L841,172 L840,174 L840,181 L845,190 L853,197 L857,202 L866,206 L873,209 L882,212 L907,211 L920,207 L934,200 L943,193 L951,181 L957,167 L960,154 L960,135 L957,126 L953,117 L946,106 L941,101 L933,92 L916,84 L903,81 Z M104,184 L96,187 L87,197 L81,209 L75,218 L68,230 L62,239 L55,250 L48,263 L43,272 L44,279 L49,283 L91,283 L103,284 L126,283 L161,283 L167,280 L171,273 L172,214 L171,193 L168,188 L164,185 L159,184 Z M222,183 L199,184 L192,188 L189,194 L188,238 L188,255 L189,274 L192,279 L194,281 L198,282 L224,283 L296,283 L305,281 L310,276 L311,272 L312,255 L312,195 L309,188 L304,185 L295,184 Z M346,183 L334,185 L330,190 L328,195 L328,228 L327,234 L327,247 L328,268 L330,277 L334,281 L346,283 L362,283 L394,282 L403,279 L411,277 L420,271 L426,265 L432,253 L435,243 L435,224 L432,214 L427,205 L424,198 L416,192 L407,187 L400,185 L372,183 Z M368,298 L365,301 L364,306 L368,308 L372,305 L372,299 Z " fill="#000000" transform="translate(105,295)"/>
<path d="M0,0 L2,1 L2,9 L0,11 Z " fill="#000000" transform="translate(0,313)"/>
<path d="M0,0 L2,4 L0,5 Z " fill="#000000" transform="translate(0,328)"/>
<path d="M0,0 L2,1 L1,6 L0,6 Z " fill="#000000" transform="translate(0,347)"/>
<path d="M0,0 L2,1 L2,47 L0,48 Z " fill="#000000" transform="translate(0,357)"/>
<path d="M0,0 L2,1 L1,6 L0,6 Z " fill="#000000" transform="translate(0,414)"/>
<path d="M0,0 L2,1 L1,4 Z " fill="#000000" transform="translate(0,429)"/>
<path d="M0,0 Z " fill="#000000" transform="translate(0,446)"/>
<path d="M0,0 Z " fill="#000000" transform="translate(0,457)"/>
<path d="M0,0 Z " fill="#000000" transform="translate(0,470)"/>
<path d="M0,0 L2,2 L0,4 Z " fill="#000000" transform="translate(0,526)"/>
<path d="M0,0 L1,0 L1,5 L0,5 Z " fill="#000000" transform="translate(0,588)"/>
<path d="M0,0 L15,0 L24,4 L32,11 L38,18 L41,26 L42,42 L39,53 L32,62 L26,67 L12,70 L9,71 L-2,71 L-16,64 L-23,55 L-27,42 L-27,25 L-21,14 L-10,5 Z " fill="#000000" transform="translate(211,727)"/>
<path d="M0,0 L13,2 L19,6 L29,15 L34,25 L36,37 L34,48 L28,60 L21,66 L11,70 L4,71 L-8,71 L-23,63 L-30,54 L-33,42 L-33,29 L-29,17 L-24,10 L-16,4 L-7,1 Z " fill="#000000" transform="translate(423,727)"/>
<path d="M0,0 L2,3 L2,18 L0,20 Z " fill="#000000" transform="translate(0,1048)"/>
<path d="M0,0 L2,2 L3,14 L4,18 L69,19 L425,19 L439,20 L441,19 L468,20 L472,19 L590,19 L597,20 L604,19 L622,19 L669,20 L670,22 L0,22 Z " fill="#000000" transform="translate(0,1082)"/>
<path d="M0,0 L27,0 L28,2 L-2,2 Z " fill="#000000" transform="translate(688,1102)"/>
<path d="M0,0 L13,0 L15,2 L-2,2 Z " fill="#000000" transform="translate(739,1102)"/>
<path d="M0,0 L7,0 L9,2 L-2,2 Z " fill="#000000" transform="translate(759,1102)"/>
<path d="M0,0 L16,0 L18,2 L-1,2 Z " fill="#000000" transform="translate(777,1102)"/>
<path d="M0,0 L41,1 L80,1 L87,2 L87,3 L-31,3 L-27,1 L-16,1 Z " fill="#000000" transform="translate(828,1101)"/>
<path d="M0,0 L12,0 L13,2 L-12,2 L-12,1 Z " fill="#000000" transform="translate(961,1102)"/>
<path d="M0,0 L7,0 L8,2 L-2,2 Z " fill="#000000" transform="translate(985,1102)"/>
<path d="M0,0 L30,0 L32,2 L-1,2 Z " fill="#000000" transform="translate(1046,1102)"/>
<path d="M0,0 L5,1 L5,2 L-2,2 Z " fill="#000000" transform="translate(1093,1102)"/>
<path d="M0,0 L4,1 Z " fill="#000000" transform="translate(676,1103)"/>
<path d="M0,0 L5,1 L5,2 L-5,2 L-5,1 Z " fill="#000000" transform="translate(923,1102)"/>
<path d="M0,0 L6,0 L6,1 L0,1 Z " fill="#000000" transform="translate(1011,1103)"/>
<path d="M0,0 L10,0 L10,1 L0,1 Z " fill="#000000" transform="translate(1031,1103)"/>
</svg>
