<?xml version="1.0" encoding="UTF-8"?>
<!-- Generator: visioncortex VTracer 0.6.12 -->
<svg version="1.1" xmlns="http://www.w3.org/2000/svg" width="1209" height="1263">
<path d="M0,0 L13,0 L45,1 L89,1 L130,2 L153,1 L172,2 L355,2 L377,3 L383,2 L395,3 L441,3 L498,4 L600,4 L622,5 L635,4 L677,5 L729,5 L750,7 L763,10 L775,15 L785,19 L800,27 L815,37 L829,50 L836,58 L847,72 L854,86 L859,96 L862,104 L864,112 L867,123 L869,141 L870,197 L870,339 L871,351 L871,871 L869,899 L865,924 L859,942 L855,951 L852,957 L842,972 L839,977 L827,990 L816,1000 L806,1006 L800,1012 L790,1016 L780,1021 L765,1026 L752,1030 L734,1033 L722,1032 L693,1032 L686,1031 L680,1033 L672,1032 L634,1032 L632,1033 L624,1033 L620,1031 L583,1031 L575,1030 L559,1030 L530,1031 L517,1031 L513,1030 L479,1030 L454,1031 L441,1030 L429,1031 L414,1030 L391,1030 L335,1031 L292,1030 L242,1030 L235,1031 L218,1030 L-12,1030 L-42,1026 L-52,1023 L-64,1019 L-76,1014 L-86,1008 L-97,1000 L-102,997 L-109,989 L-117,982 L-129,965 L-134,958 L-142,942 L-146,932 L-149,923 L-152,908 L-153,895 L-153,520 L-152,402 L-152,212 L-151,168 L-149,131 L-145,112 L-140,97 L-136,87 L-128,72 L-124,67 L-118,58 L-110,48 L-93,31 L-84,25 L-74,20 L-65,15 L-55,12 L-50,9 L-33,4 L-13,1 Z M26,16 L13,17 L6,18 L-17,19 L-45,25 L-53,28 L-64,31 L-71,37 L-79,42 L-90,51 L-97,57 L-106,68 L-116,81 L-125,98 L-129,108 L-134,127 L-137,146 L-138,173 L-138,354 L-139,512 L-139,533 L-140,608 L-140,896 L-132,924 L-129,933 L-124,943 L-112,962 L-106,969 L-98,976 L-90,984 L-80,991 L-70,997 L-58,1003 L-42,1009 L-34,1011 L-9,1013 L14,1014 L212,1014 L223,1015 L382,1015 L406,1014 L415,1015 L498,1015 L659,1016 L720,1016 L724,1015 L739,1015 L744,1013 L757,1011 L768,1007 L777,1004 L794,995 L805,987 L812,980 L817,976 L824,968 L831,960 L838,949 L847,930 L851,918 L853,913 L856,894 L857,850 L858,831 L858,814 L857,777 L858,763 L858,682 L857,650 L857,620 L856,510 L856,148 L854,132 L850,114 L840,90 L828,73 L820,63 L813,55 L806,51 L801,46 L792,40 L781,34 L770,28 L760,25 L747,23 L738,21 L725,20 L712,19 L694,19 L664,18 L642,18 L635,19 L631,18 L586,18 L571,17 L499,17 L496,16 L489,16 L486,17 L454,17 L448,18 L446,17 L378,17 L373,19 L369,17 L254,17 L245,18 L225,16 L157,16 L155,17 L132,16 L100,16 L92,17 L90,16 L80,16 L72,17 L63,16 L53,17 Z " fill="#000000" transform="translate(257,35)"/>
<path d="M0,0 L3,1 L2,3 L-1,2 Z " fill="#000000" transform="translate(36,102)"/>
<path d="M0,0 L17,1 L33,5 L41,8 L48,12 L59,20 L69,29 L76,39 L82,49 L86,60 L86,73 L87,74 L97,76 L104,77 L110,78 L123,80 L141,82 L143,83 L154,84 L158,86 L186,89 L195,91 L205,91 L218,94 L236,96 L239,97 L255,99 L273,102 L353,102 L358,103 L410,102 L415,97 L422,87 L426,80 L429,73 L437,62 L445,59 L450,59 L449,56 L442,56 L438,60 L434,59 L431,56 L419,55 L415,56 L412,55 L326,54 L322,56 L318,55 L316,54 L264,54 L262,56 L257,55 L250,54 L236,54 L221,55 L215,56 L208,54 L199,54 L190,53 L184,49 L184,37 L187,34 L203,33 L320,33 L327,34 L408,34 L429,33 L490,34 L559,34 L568,35 L688,35 L695,36 L737,36 L770,37 L773,40 L774,48 L771,57 L761,57 L760,58 L749,57 L742,56 L733,56 L728,57 L720,57 L718,56 L585,56 L577,55 L557,55 L551,56 L542,55 L529,55 L519,57 L502,57 L500,59 L516,61 L519,62 L523,67 L530,81 L535,88 L541,100 L546,103 L562,104 L636,104 L724,106 L741,109 L750,113 L759,117 L770,125 L778,131 L790,145 L796,154 L804,170 L807,181 L810,195 L811,203 L811,226 L808,242 L804,251 L799,265 L791,276 L779,289 L765,299 L749,308 L739,311 L738,312 L731,312 L728,313 L701,313 L696,312 L694,313 L664,313 L655,314 L648,313 L646,314 L620,316 L617,320 L615,329 L612,334 L607,335 L595,335 L591,331 L589,328 L587,318 L574,313 L535,313 L530,312 L528,313 L477,313 L470,314 L446,313 L424,313 L403,315 L398,320 L396,329 L389,335 L384,336 L376,333 L373,329 L370,319 L365,314 L323,312 L314,308 L304,302 L292,292 L283,276 L278,261 L273,256 L257,247 L246,240 L236,235 L226,229 L215,223 L204,217 L197,214 L187,208 L168,198 L161,197 L155,192 L141,183 L122,173 L99,160 L83,152 L68,144 L66,142 L61,143 L57,151 L46,160 L43,163 L35,163 L28,166 L17,169 L-9,169 L-21,167 L-33,160 L-40,156 L-51,148 L-61,138 L-67,128 L-72,117 L-77,96 L-76,77 L-72,59 L-68,48 L-59,33 L-44,18 L-31,10 L-14,3 Z M487,54 L483,56 L470,56 L469,60 L473,62 L480,60 L490,61 L493,60 L492,55 Z M-24,78 L-25,79 L-25,88 L-21,89 L-20,80 L-21,78 Z M359,127 L357,128 L326,128 L321,131 L319,134 L318,168 L318,188 L319,199 L323,202 L332,203 L355,203 L371,204 L414,204 L418,201 L420,188 L420,155 L419,137 L416,131 L415,130 L405,128 L367,128 Z M450,128 L444,130 L442,132 L441,173 L442,201 L445,204 L479,205 L535,204 L538,201 L539,197 L538,142 L536,133 L531,129 L495,128 L477,128 L473,129 Z M638,129 L630,130 L567,130 L562,135 L562,200 L565,204 L568,205 L626,206 L653,206 L660,203 L662,199 L662,152 L661,137 L658,132 L650,130 L645,131 Z M698,130 L697,131 L688,132 L684,137 L682,154 L682,168 L683,176 L683,199 L686,206 L699,207 L790,207 L794,203 L795,199 L791,184 L785,172 L775,158 L767,150 L758,146 L756,143 L748,140 L745,136 L736,134 L728,131 L711,130 L705,131 Z " fill="#000000" transform="translate(239,372)"/>
<path d="M0,0 L6,1 L17,8 L21,14 L22,18 L22,28 L21,36 L16,43 L7,48 L-5,49 L-11,46 L-16,41 L-21,35 L-21,20 L-15,8 L-5,1 Z " fill="#000000" transform="translate(621,712)"/>
<path d="M0,0 L10,1 L19,6 L25,17 L25,33 L20,41 L14,46 L6,48 L-1,48 L-10,44 L-15,39 L-17,35 L-18,22 L-16,14 L-7,4 Z " fill="#000000" transform="translate(809,713)"/>
<path d="M0,0 L10,0 L17,3 L23,7 L28,18 L29,29 L25,38 L20,43 L15,47 L12,48 L0,48 L-10,42 L-14,35 L-15,32 L-15,21 L-13,11 L-6,3 Z " fill="#000000" transform="translate(862,714)"/>
<path d="M0,0 L3,1 L1,5 L-3,7 Z " fill="#000000" transform="translate(876,1104)"/>
<path d="M0,0 L18,0 L41,2 L49,7 L56,13 L61,21 L63,28 L63,52 L61,61 L57,70 L47,80 L41,83 L20,84 L-2,84 L-5,81 L-6,78 L-6,62 L-5,46 L-4,16 L-3,3 Z M17,14 L12,17 L10,25 L9,43 L9,66 L14,70 L24,71 L37,69 L41,67 L47,58 L50,42 L51,36 L47,27 L41,19 L38,17 L29,14 Z " fill="#000000" transform="translate(105,1126)"/>
<path d="M0,0 L5,1 L6,2 L6,9 L-2,29 L-7,40 L-13,56 L-18,68 L-21,75 L-27,84 L-31,85 L-35,82 L-35,76 L-30,65 L-27,58 L-21,45 L-17,34 L-13,25 L-4,4 Z " fill="#000000" transform="translate(218,1127)"/>
<path d="M0,0 L46,0 L51,4 L50,11 L48,14 L28,15 L12,15 L10,17 L10,30 L13,33 L38,34 L42,35 L43,37 L43,44 L38,48 L11,48 L9,52 L7,76 L4,81 L2,83 L-4,82 L-6,80 L-7,71 L-5,51 L-6,47 L-6,34 L-5,12 L-3,2 Z " fill="#000000" transform="translate(252,1129)"/>
<path d="M0,0 L6,0 L10,6 L14,19 L20,50 L25,51 L28,39 L33,25 L38,8 L43,2 L50,2 L55,7 L56,8 L60,28 L62,32 L65,47 L66,53 L70,52 L74,38 L76,33 L78,24 L84,4 L89,1 L94,2 L96,4 L96,11 L89,36 L85,47 L79,70 L75,81 L71,84 L65,84 L59,79 L52,51 L48,31 L44,30 L36,55 L34,64 L28,80 L25,83 L17,83 L12,78 L7,56 L4,37 L-1,19 L-3,5 Z " fill="#000000" transform="translate(313,1131)"/>
<path d="M0,0 Z " fill="#000000" transform="translate(1174,1228)"/>
</svg>
