<?xml version="1.0" encoding="UTF-8"?>
<!-- Generator: visioncortex VTracer 0.6.12 -->
<svg version="1.1" xmlns="http://www.w3.org/2000/svg" width="543" height="579">
<path d="M0,0 L54,0 L66,3 L78,8 L90,14 L92,18 L98,22 L100,26 L104,28 L113,34 L123,39 L146,53 L154,59 L165,68 L177,81 L185,91 L194,108 L202,130 L204,135 L207,149 L210,165 L215,189 L215,196 L212,199 L182,201 L117,202 L63,205 L40,208 L12,210 L-31,215 L-43,216 L-49,218 L-63,219 L-67,220 L-92,222 L-107,225 L-124,227 L-145,231 L-153,231 L-156,228 L-157,226 L-160,201 L-160,178 L-158,156 L-156,140 L-153,125 L-146,105 L-142,97 L-138,87 L-133,80 L-130,74 L-120,63 L-116,57 L-111,52 L-97,38 L-86,31 L-78,26 L-62,18 L-48,12 L-33,7 L-24,4 L-9,1 Z M18,5 L-17,9 L-34,13 L-47,18 L-66,28 L-74,32 L-84,40 L-93,47 L-103,56 L-105,57 L-105,59 L-108,60 L-108,62 L-111,63 L-117,71 L-120,76 L-127,86 L-135,101 L-143,118 L-147,130 L-150,143 L-150,149 L-146,151 L-143,149 L-139,133 L-131,114 L-124,103 L-114,87 L-107,78 L-100,71 L-93,63 L-83,56 L-83,54 L-79,52 L-68,45 L-49,35 L-30,28 L-19,25 L-2,21 L15,19 L66,17 L67,12 L58,8 L33,5 Z M64,54 L65,59 L70,58 L69,54 Z " fill="#000000" transform="translate(244,29)"/>
<path d="M0,0 L32,1 L47,5 L62,10 L66,12 L75,13 L80,16 L80,18 L85,20 L89,23 L91,30 L91,35 L85,37 L67,37 L63,36 L50,36 L35,38 L29,41 L26,48 L24,68 L23,101 L30,129 L34,140 L37,153 L42,171 L41,178 L37,181 L-2,181 L-7,184 L-10,193 L-12,230 L-14,260 L-17,265 L-22,268 L-25,269 L-67,269 L-101,266 L-127,266 L-132,269 L-139,276 L-147,286 L-158,301 L-163,306 L-166,309 L-173,310 L-185,307 L-194,301 L-212,283 L-215,281 L-215,279 L-219,277 L-223,271 L-230,266 L-235,261 L-240,255 L-242,254 L-242,252 L-245,251 L-250,246 L-255,242 L-263,232 L-278,218 L-278,216 L-282,214 L-290,207 L-292,202 L-290,193 L-286,192 L-281,197 L-271,206 L-264,214 L-259,220 L-254,225 L-248,230 L-241,238 L-238,240 L-238,242 L-235,243 L-235,245 L-232,246 L-226,253 L-221,257 L-215,265 L-209,270 L-206,273 L-206,275 L-202,277 L-199,279 L-199,281 L-195,283 L-183,295 L-180,297 L-173,297 L-168,294 L-159,284 L-156,279 L-150,272 L-144,264 L-136,255 L-132,253 L-98,254 L-68,255 L-63,256 L-41,256 L-31,254 L-28,251 L-26,242 L-24,225 L-23,206 L-19,174 L-16,169 L-14,168 L19,167 L22,165 L23,160 L21,141 L17,123 L13,108 L10,88 L12,64 L12,47 L9,41 L6,39 L-12,39 L-51,42 L-84,43 L-105,45 L-110,46 L-133,48 L-149,50 L-165,51 L-178,54 L-212,58 L-223,60 L-238,62 L-262,67 L-281,71 L-298,76 L-301,80 L-303,96 L-304,111 L-306,170 L-309,182 L-314,183 L-316,180 L-316,171 L-317,157 L-316,125 L-316,97 L-317,84 L-319,81 L-330,81 L-354,85 L-367,88 L-382,91 L-386,92 L-393,92 L-395,90 L-394,84 L-384,74 L-375,63 L-365,53 L-357,46 L-344,35 L-335,31 L-308,26 L-280,22 L-241,18 L-236,17 L-213,16 L-186,12 L-172,11 L-168,10 L-121,7 L-82,4 L-38,1 L-8,1 Z " fill="#000000" transform="translate(426,242)"/>
</svg>
