<?xml version="1.0" encoding="UTF-8"?>
<!-- Generator: visioncortex VTracer 0.6.12 -->
<svg version="1.1" xmlns="http://www.w3.org/2000/svg" width="327" height="321">
<path d="M0,0 L6,0 L10,5 L19,29 L26,45 L29,54 L36,72 L42,83 L43,86 L53,88 L88,87 L139,87 L143,90 L142,96 L137,102 L131,106 L118,117 L106,126 L97,133 L84,143 L75,150 L73,150 L73,152 L68,157 L68,165 L76,185 L80,197 L85,207 L92,225 L97,237 L105,258 L105,264 L102,266 L97,265 L82,255 L79,253 L79,251 L74,249 L63,242 L54,236 L49,233 L49,231 L45,229 L30,219 L19,210 L12,206 L6,206 L-4,214 L-11,220 L-21,227 L-29,234 L-35,239 L-37,239 L-38,242 L-50,250 L-58,257 L-69,264 L-75,264 L-76,263 L-75,249 L-70,230 L-67,216 L-62,193 L-57,170 L-57,159 L-62,153 L-71,146 L-82,137 L-95,128 L-95,126 L-99,124 L-115,112 L-124,105 L-125,98 L-122,95 L-113,93 L-98,92 L-37,91 L-34,88 L-27,69 L-21,53 L-16,38 L-10,21 L-2,2 Z M43,98 L38,101 L30,115 L27,121 L29,125 L37,124 L61,116 L85,108 L97,102 L97,99 L96,98 Z M-41,100 L-70,102 L-78,103 L-79,107 L-71,111 L-42,120 L-21,126 L-14,126 L-13,122 L-21,113 L-29,103 L-33,100 Z M-10,149 L-31,157 L-42,161 L-46,165 L-52,189 L-55,203 L-57,216 L-59,221 L-58,226 L-53,225 L-45,215 L-39,205 L-31,194 L-23,181 L-19,176 L-19,174 L-17,174 L-9,161 L-5,155 L-5,150 Z M28,152 L26,155 L33,167 L40,175 L50,191 L57,201 L65,212 L69,218 L75,224 L79,224 L78,218 L73,203 L68,192 L63,178 L56,161 L46,156 L34,152 Z " fill="#000000" transform="translate(156,29)"/>
</svg>
