<?xml version="1.0" encoding="UTF-8"?>
<!-- Generator: visioncortex VTracer 0.6.12 -->
<svg version="1.1" xmlns="http://www.w3.org/2000/svg" width="1128" height="1230">
<path d="M0,0 L157,0 L198,1 L251,1 L308,2 L402,2 L442,3 L675,3 L690,4 L737,5 L790,5 L835,6 L907,6 L988,7 L1044,7 L1062,6 L1066,3 L1071,4 L1079,14 L1084,16 L1086,23 L1084,28 L1083,34 L1082,55 L1081,200 L1081,428 L1080,538 L1079,583 L1078,592 L1079,594 L1079,682 L1078,782 L1078,1136 L1081,1142 L1080,1146 L1073,1152 L1060,1161 L1057,1163 L1041,1162 L931,1162 L913,1161 L852,1161 L817,1160 L674,1160 L551,1159 L513,1159 L373,1158 L322,1158 L306,1157 L245,1158 L235,1159 L229,1158 L202,1157 L106,1156 L87,1157 L80,1158 L76,1157 L0,1156 L0,1141 L104,1142 L140,1142 L158,1141 L167,1142 L186,1142 L232,1143 L281,1142 L284,1143 L295,1143 L302,1146 L310,1146 L318,1143 L410,1143 L551,1144 L631,1144 L640,1145 L725,1145 L745,1146 L928,1146 L944,1147 L1031,1147 L1059,1146 L1064,1142 L1066,1137 L1067,1129 L1068,1070 L1068,1007 L1069,963 L1069,906 L1070,794 L1071,251 L1072,243 L1072,67 L1070,26 L1065,21 L1049,19 L981,19 L886,18 L829,18 L790,17 L736,17 L656,16 L529,16 L482,15 L414,15 L334,14 L59,14 L30,13 L18,13 L0,12 Z " fill="#000000" transform="translate(0,35)"/>
<path d="M0,0 L5,1 L4,6 L0,7 L-1,6 L-1,1 Z " fill="#000000" transform="translate(596,93)"/>
<path d="M0,0 L3,1 L-3,13 L-8,14 L-7,9 L-4,7 L-2,1 Z " fill="#000000" transform="translate(826,125)"/>
<path d="M0,0 L15,0 L30,4 L41,10 L51,19 L58,28 L62,36 L65,48 L65,71 L64,76 L64,86 L68,87 L74,85 L81,85 L88,91 L92,97 L96,105 L112,132 L122,152 L129,162 L142,185 L152,203 L162,220 L167,230 L178,248 L187,264 L193,276 L199,286 L205,297 L211,308 L219,322 L225,333 L233,347 L240,358 L247,372 L249,378 L249,550 L250,563 L254,573 L262,587 L269,600 L277,614 L288,634 L292,644 L304,664 L311,678 L324,700 L330,711 L338,725 L348,744 L350,754 L344,761 L334,767 L316,778 L304,785 L289,793 L283,791 L275,780 L263,758 L253,740 L244,725 L233,706 L227,694 L214,671 L209,663 L201,647 L195,637 L187,624 L181,612 L175,601 L171,594 L168,582 L167,566 L167,527 L161,529 L153,542 L146,554 L139,565 L133,575 L121,593 L113,606 L105,620 L91,644 L83,657 L74,672 L64,689 L50,713 L42,726 L32,743 L23,759 L14,773 L5,787 L0,791 L-6,790 L-22,782 L-42,771 L-61,759 L-63,756 L-63,747 L-54,731 L-45,715 L-40,708 L-36,700 L-28,686 L-20,673 L-11,658 L-1,640 L7,627 L15,613 L25,598 L33,583 L44,565 L50,554 L56,545 L59,539 L69,523 L76,512 L86,493 L92,485 L98,475 L104,463 L108,458 L111,452 L123,431 L131,418 L134,412 L134,404 L130,396 L124,394 L119,399 L110,410 L101,424 L92,435 L84,443 L66,453 L55,457 L43,460 L34,461 L25,461 L7,457 L1,453 L0,451 L0,444 L9,428 L20,409 L26,400 L32,389 L42,372 L54,352 L63,336 L74,317 L77,310 L77,301 L71,289 L65,279 L52,255 L44,241 L37,229 L33,219 L27,196 L26,182 L27,158 L31,144 L37,127 L41,118 L41,113 L40,112 L31,113 L22,115 L5,116 L-11,112 L-24,105 L-34,96 L-41,87 L-46,76 L-48,69 L-49,59 L-49,49 L-44,34 L-39,24 L-31,15 L-18,5 Z " fill="#000000" transform="translate(366,220)"/>
<path d="M0,0 L7,1 L14,10 L22,23 L29,37 L36,48 L49,71 L57,84 L65,98 L70,109 L76,125 L79,141 L79,165 L75,186 L70,200 L63,213 L56,223 L50,231 L48,231 L46,235 L33,246 L29,248 L23,247 L16,239 L10,230 L2,214 L-2,209 L-8,198 L-19,179 L-27,165 L-34,152 L-44,134 L-54,118 L-63,101 L-69,91 L-83,65 L-86,57 L-86,49 L-78,43 L-69,38 L-59,31 L-43,23 L-34,17 L-11,5 Z " fill="#000000" transform="translate(560,237)"/>
<path d="M0,0 L4,1 L4,8 L-1,9 L-2,8 L-2,2 Z " fill="#000000" transform="translate(188,586)"/>
</svg>
