<?xml version="1.0" encoding="UTF-8"?>
<!-- Generator: visioncortex VTracer 0.6.12 -->
<svg version="1.1" xmlns="http://www.w3.org/2000/svg" width="1086" height="1101">
<path d="M0,0 L20,0 L18,9 L13,20 L5,37 L0,42 Z " fill="#000000" transform="translate(0,0)"/>
<path d="M0,0 L34,0 L33,7 L30,19 L19,49 L11,64 L4,78 L-3,89 L-12,103 L-19,112 L-28,123 L-39,135 L-46,143 L-58,156 L-66,164 L-68,164 L-68,117 L-60,110 L-53,101 L-43,88 L-34,74 L-28,64 L-23,56 L-14,37 L-10,28 L-6,19 Z " fill="#000000" transform="translate(68,0)"/>
<path d="M0,0 L31,0 L29,15 L23,39 L17,56 L9,76 L1,91 L-5,103 L-14,117 L-23,130 L-30,139 L-41,152 L-50,163 L-64,178 L-79,193 L-84,198 L-93,208 L-98,212 L-103,217 L-112,226 L-117,231 L-127,240 L-132,245 L-143,254 L-147,255 L-147,220 L-141,216 L-129,204 L-124,199 L-117,193 L-113,188 L-105,181 L-88,164 L-79,153 L-72,145 L-63,134 L-55,125 L-48,116 L-42,107 L-39,101 L-33,91 L-27,83 L-19,64 L-8,35 L-3,17 Z " fill="#000000" transform="translate(147,0)"/>
<path d="M0,0 L34,0 L33,14 L32,25 L28,44 L24,59 L14,87 L4,109 L-2,119 L-11,133 L-18,143 L-25,153 L-32,163 L-41,173 L-45,179 L-53,187 L-60,195 L-70,206 L-77,214 L-84,220 L-89,226 L-91,226 L-93,230 L-99,237 L-107,244 L-118,255 L-123,260 L-135,271 L-140,275 L-145,280 L-157,292 L-165,299 L-170,303 L-175,308 L-186,318 L-197,327 L-204,334 L-212,341 L-220,349 L-223,350 L-223,311 L-213,302 L-203,294 L-190,282 L-178,271 L-167,262 L-162,257 L-156,252 L-155,250 L-153,250 L-151,246 L-141,237 L-136,232 L-125,221 L-120,216 L-113,208 L-98,192 L-89,183 L-82,175 L-73,164 L-71,161 L-69,161 L-67,156 L-62,150 L-49,133 L-34,110 L-26,95 L-15,68 L-9,52 L-5,34 L-3,27 Z " fill="#000000" transform="translate(223,0)"/>
<path d="M0,0 L38,0 L41,17 L45,23 L50,29 L52,42 L51,65 L49,73 L46,92 L46,94 L50,93 L53,82 L58,61 L61,33 L65,22 L72,14 L72,0 L114,0 L117,13 L122,45 L123,58 L123,76 L119,106 L115,117 L110,135 L106,144 L106,148 L108,148 L115,133 L120,121 L124,113 L129,114 L131,119 L136,118 L144,100 L148,80 L151,54 L151,36 L149,18 L147,5 L147,0 L187,0 L193,24 L195,34 L197,50 L198,78 L197,92 L197,106 L199,112 L199,126 L195,145 L191,154 L186,166 L177,182 L173,191 L167,196 L161,204 L154,214 L150,220 L143,227 L134,238 L125,248 L118,259 L108,267 L101,275 L90,287 L81,298 L79,301 L77,301 L75,305 L70,310 L58,321 L53,326 L37,341 L32,348 L24,355 L13,368 L8,373 L-5,386 L-12,394 L-19,401 L-26,405 L-33,404 L-38,403 L-44,407 L-51,415 L-59,425 L-71,439 L-81,452 L-84,456 L-86,456 L-88,460 L-95,468 L-104,479 L-113,489 L-124,503 L-133,514 L-143,525 L-152,536 L-161,547 L-175,564 L-182,573 L-189,582 L-196,590 L-203,600 L-213,613 L-220,621 L-226,629 L-235,641 L-241,649 L-249,659 L-256,670 L-262,677 L-270,688 L-277,699 L-289,716 L-297,728 L-300,729 L-300,654 L-293,646 L-289,640 L-279,627 L-268,616 L-262,608 L-255,601 L-250,595 L-239,586 L-234,581 L-223,570 L-215,560 L-204,547 L-195,536 L-187,528 L-180,518 L-168,504 L-157,491 L-146,479 L-137,467 L-132,462 L-123,451 L-113,441 L-107,433 L-99,424 L-92,416 L-83,406 L-68,390 L-58,379 L-56,374 L-56,366 L-59,358 L-58,351 L-55,345 L-37,327 L-28,320 L-12,303 L-1,291 L6,283 L7,280 L1,284 L-7,291 L-12,296 L-21,304 L-29,311 L-41,324 L-51,331 L-56,336 L-61,338 L-68,337 L-75,336 L-83,343 L-95,356 L-102,364 L-110,372 L-117,380 L-129,391 L-138,402 L-150,413 L-157,421 L-166,431 L-173,440 L-180,447 L-187,455 L-198,467 L-200,467 L-202,471 L-213,483 L-220,491 L-227,499 L-236,510 L-250,524 L-255,531 L-260,536 L-271,549 L-278,559 L-287,570 L-296,579 L-298,582 L-300,582 L-300,529 L-293,522 L-286,514 L-277,504 L-270,496 L-260,486 L-253,478 L-243,467 L-238,462 L-231,455 L-224,447 L-215,437 L-208,429 L-201,422 L-193,412 L-186,406 L-177,395 L-165,384 L-157,376 L-150,368 L-135,354 L-128,346 L-117,335 L-112,331 L-105,323 L-97,315 L-92,310 L-77,295 L-70,285 L-64,274 L-51,258 L-45,250 L-33,237 L-22,225 L-15,217 L-1,204 L6,198 L13,188 L14,179 L10,170 L10,160 L16,149 L16,145 L11,146 L10,147 L4,147 L-1,142 L-6,142 L-12,149 L-16,157 L-26,171 L-37,185 L-46,197 L-59,210 L-69,224 L-84,240 L-91,248 L-99,256 L-106,264 L-114,273 L-119,278 L-124,284 L-132,291 L-139,298 L-144,303 L-160,318 L-173,330 L-178,336 L-186,343 L-202,358 L-227,383 L-232,388 L-246,401 L-253,409 L-260,416 L-261,418 L-263,418 L-265,422 L-275,432 L-280,437 L-292,450 L-298,456 L-300,456 L-300,414 L-290,405 L-283,397 L-275,390 L-270,385 L-263,378 L-257,373 L-253,368 L-242,359 L-238,354 L-232,350 L-225,342 L-215,332 L-207,325 L-191,310 L-176,296 L-169,288 L-165,284 L-163,284 L-161,280 L-151,271 L-144,264 L-140,259 L-132,252 L-123,243 L-114,232 L-101,219 L-95,211 L-86,201 L-78,191 L-67,178 L-59,168 L-46,150 L-42,144 L-34,130 L-27,116 L-22,106 L-18,97 L-17,90 L-17,63 L-14,52 L-10,43 L-3,35 L-1,24 Z M43,101 L40,104 L41,109 L42,111 L46,112 L49,110 L48,104 Z M127,124 L125,128 L126,132 L131,132 L132,131 L132,125 Z M99,159 L93,166 L92,172 L94,173 L97,170 L101,163 L101,159 Z M134,194 L131,199 L132,203 L137,202 L138,195 Z M118,206 Z M128,207 L123,211 L123,224 L127,224 L135,219 L136,213 L131,207 Z M46,233 L36,243 L32,249 L23,260 L16,267 L14,273 L19,271 L26,265 L31,257 L38,249 L43,244 L49,236 L49,233 Z " fill="#000000" transform="translate(300,0)"/>
<path d="M0,0 L49,0 L52,10 L57,20 L60,29 L59,38 L58,41 L58,67 L62,85 L63,100 L63,114 L62,127 L55,150 L53,156 L55,155 L58,150 L64,139 L69,123 L71,110 L74,89 L78,81 L83,76 L85,72 L85,54 L83,46 L82,33 L79,14 L73,3 L73,0 L115,0 L121,13 L125,26 L128,37 L132,73 L134,100 L134,113 L133,124 L132,126 L130,144 L133,144 L140,123 L143,121 L153,121 L156,111 L159,102 L160,92 L161,63 L160,44 L157,24 L152,7 L151,0 L189,0 L194,12 L200,34 L202,44 L204,71 L203,102 L201,114 L199,134 L195,150 L191,167 L184,187 L177,203 L171,221 L168,230 L160,247 L153,257 L144,273 L132,290 L128,294 L124,293 L123,292 L118,292 L111,301 L105,312 L96,328 L93,335 L92,351 L87,361 L81,369 L70,383 L63,393 L54,404 L47,415 L38,427 L32,436 L24,447 L18,455 L15,460 L11,467 L8,472 L4,476 L2,481 L7,478 L13,469 L20,461 L28,450 L39,437 L50,423 L59,413 L62,407 L72,394 L77,389 L84,381 L90,373 L97,365 L105,359 L110,355 L117,343 L123,334 L126,318 L129,310 L136,297 L146,284 L154,273 L160,264 L166,257 L177,248 L181,243 L191,224 L195,215 L207,188 L215,169 L221,151 L229,121 L233,102 L235,81 L235,55 L232,28 L229,11 L226,2 L226,0 L263,0 L270,28 L274,55 L274,90 L272,119 L270,125 L266,150 L261,166 L256,183 L246,208 L239,228 L232,245 L227,254 L217,275 L209,291 L197,313 L188,329 L177,347 L171,355 L165,366 L154,383 L149,392 L139,409 L130,424 L126,435 L121,444 L114,457 L108,466 L101,480 L96,489 L93,496 L87,505 L87,510 L91,508 L96,499 L109,479 L116,467 L124,456 L135,436 L142,427 L154,408 L167,389 L175,378 L184,368 L192,356 L199,346 L208,332 L214,321 L222,308 L228,298 L232,290 L242,271 L248,260 L253,250 L261,234 L269,215 L274,204 L280,188 L288,168 L291,160 L294,152 L297,136 L304,106 L307,77 L306,43 L304,32 L299,11 L299,2 L300,0 L332,0 L336,4 L343,28 L346,46 L348,69 L348,104 L342,146 L337,171 L332,188 L325,209 L318,227 L313,239 L310,247 L305,259 L291,289 L277,316 L267,335 L255,358 L251,365 L248,370 L240,385 L235,394 L225,411 L215,430 L207,441 L201,451 L195,462 L188,480 L180,494 L174,505 L167,518 L159,532 L153,541 L147,552 L144,556 L142,561 L132,578 L124,594 L121,601 L126,598 L129,592 L140,575 L146,565 L155,551 L164,537 L173,523 L179,513 L185,504 L194,490 L203,482 L208,478 L215,466 L221,457 L229,443 L236,432 L245,417 L254,401 L260,391 L266,380 L273,367 L280,355 L288,339 L295,327 L303,311 L317,284 L323,272 L327,263 L337,242 L347,219 L356,194 L360,185 L367,164 L372,146 L377,128 L380,115 L384,84 L385,76 L385,52 L383,39 L381,22 L376,9 L377,2 L378,0 L390,0 L397,1 L399,0 L406,0 L406,2 L411,4 L414,13 L419,33 L422,59 L422,95 L420,118 L417,143 L412,168 L410,181 L401,207 L394,229 L387,248 L379,270 L373,285 L368,298 L360,314 L355,326 L346,346 L339,360 L332,376 L326,388 L316,409 L309,421 L301,438 L293,453 L285,467 L279,478 L270,494 L264,505 L253,525 L247,535 L239,557 L235,565 L226,585 L218,601 L214,609 L210,615 L206,625 L201,635 L200,639 L205,637 L212,623 L222,607 L230,592 L239,576 L250,558 L258,549 L267,534 L275,518 L283,504 L291,488 L300,471 L309,454 L317,438 L325,422 L332,408 L342,389 L346,381 L351,373 L359,356 L368,337 L374,325 L380,313 L384,304 L391,292 L396,279 L400,272 L403,265 L409,250 L416,236 L422,218 L428,206 L432,194 L440,172 L447,145 L451,132 L455,113 L458,92 L459,64 L458,54 L458,42 L456,31 L453,23 L450,10 L450,4 L452,0 L463,0 L463,2 L466,0 L483,0 L486,5 L490,21 L492,31 L495,60 L495,77 L496,92 L494,118 L492,131 L488,151 L482,177 L478,188 L470,212 L463,226 L460,238 L453,257 L447,272 L444,281 L435,303 L431,313 L427,321 L424,329 L419,342 L414,352 L410,362 L400,385 L393,400 L384,421 L377,438 L369,454 L360,473 L353,488 L344,509 L335,526 L328,542 L318,561 L314,573 L307,586 L303,594 L295,616 L284,646 L277,660 L271,677 L267,687 L263,700 L258,712 L252,728 L246,739 L242,749 L234,765 L230,771 L226,775 L221,775 L208,766 L203,766 L201,770 L190,800 L183,817 L181,826 L176,838 L167,865 L162,878 L159,889 L147,924 L142,942 L138,955 L135,959 L134,970 L130,981 L127,998 L121,1022 L115,1043 L108,1074 L106,1085 L102,1101 L50,1101 L54,1084 L57,1070 L58,1068 L58,1054 L50,1041 L47,1038 L43,1029 L44,1014 L49,998 L52,987 L57,960 L64,940 L66,930 L67,924 L63,925 L59,932 L52,933 L45,931 L40,936 L36,944 L32,957 L27,971 L23,985 L18,998 L16,1006 L10,1027 L6,1037 L2,1051 L-7,1083 L-11,1101 L-62,1101 L-59,1087 L-54,1070 L-49,1053 L-48,1051 L-46,1039 L-39,1021 L-33,1000 L-30,990 L-26,979 L-20,963 L-16,949 L-10,936 L-4,919 L-1,910 L-2,902 L-7,895 L-8,886 L-3,872 L1,862 L13,835 L24,812 L33,797 L42,777 L52,756 L63,731 L72,712 L80,696 L85,687 L94,670 L97,663 L103,653 L109,637 L111,628 L115,619 L116,612 L113,612 L105,623 L101,625 L94,622 L86,617 L81,618 L75,630 L67,652 L63,662 L57,683 L54,692 L49,707 L40,733 L33,751 L27,768 L20,793 L17,803 L13,812 L4,838 L0,849 L-4,862 L-13,881 L-20,887 L-27,887 L-35,883 L-40,881 L-46,881 L-50,886 L-57,901 L-64,921 L-68,933 L-73,944 L-85,976 L-91,994 L-95,1004 L-103,1027 L-109,1045 L-111,1049 L-113,1059 L-120,1082 L-125,1100 L-126,1101 L-178,1101 L-177,1095 L-172,1079 L-168,1067 L-160,1042 L-157,1031 L-154,1022 L-148,1006 L-137,976 L-130,956 L-117,925 L-112,913 L-107,903 L-102,890 L-96,875 L-96,869 L-100,863 L-101,856 L-100,847 L-104,848 L-110,858 L-114,861 L-123,861 L-135,855 L-140,854 L-144,856 L-156,881 L-163,898 L-170,913 L-176,927 L-188,956 L-193,970 L-198,980 L-203,993 L-209,1008 L-215,1026 L-221,1042 L-230,1069 L-236,1086 L-241,1101 L-294,1101 L-292,1091 L-290,1087 L-288,1079 L-283,1066 L-281,1064 L-279,1054 L-271,1030 L-267,1021 L-264,1010 L-257,995 L-248,974 L-240,954 L-236,944 L-230,929 L-225,919 L-215,897 L-207,881 L-199,864 L-193,853 L-186,838 L-180,824 L-174,811 L-174,800 L-175,793 L-172,787 L-168,783 L-169,779 L-172,772 L-179,765 L-181,761 L-181,750 L-176,731 L-174,718 L-179,717 L-187,731 L-192,738 L-198,750 L-211,772 L-223,795 L-228,803 L-236,819 L-246,838 L-256,856 L-264,872 L-272,888 L-279,900 L-283,910 L-287,920 L-295,937 L-300,946 L-304,958 L-308,966 L-312,976 L-314,984 L-319,991 L-327,1010 L-334,1026 L-344,1053 L-351,1071 L-355,1084 L-361,1101 L-413,1101 L-411,1095 L-406,1080 L-404,1077 L-399,1060 L-396,1056 L-391,1042 L-386,1030 L-382,1020 L-378,1009 L-369,988 L-359,967 L-351,951 L-344,937 L-336,920 L-328,906 L-318,889 L-306,869 L-297,854 L-292,844 L-289,839 L-281,828 L-270,810 L-260,795 L-251,779 L-245,769 L-244,762 L-250,764 L-257,771 L-263,775 L-274,783 L-288,792 L-304,801 L-328,810 L-337,813 L-346,818 L-354,830 L-362,846 L-365,852 L-371,860 L-381,881 L-384,885 L-392,901 L-405,926 L-413,942 L-427,972 L-432,982 L-440,999 L-448,1018 L-452,1027 L-456,1035 L-460,1045 L-464,1056 L-468,1065 L-470,1072 L-476,1085 L-480,1096 L-481,1101 L-520,1101 L-520,1062 L-516,1053 L-506,1034 L-502,1021 L-499,1015 L-494,1007 L-488,994 L-476,973 L-468,957 L-461,946 L-447,922 L-438,905 L-429,891 L-423,881 L-412,863 L-405,852 L-398,838 L-398,832 L-401,830 L-418,831 L-423,826 L-432,815 L-441,804 L-446,797 L-451,796 L-454,799 L-456,799 L-458,804 L-467,821 L-477,840 L-483,852 L-489,863 L-497,879 L-503,890 L-510,902 L-518,918 L-520,918 L-520,823 L-516,819 L-505,800 L-497,789 L-484,767 L-477,757 L-470,746 L-463,736 L-454,723 L-448,713 L-442,705 L-437,697 L-425,680 L-421,674 L-413,664 L-406,654 L-400,645 L-392,635 L-385,627 L-379,617 L-372,608 L-362,594 L-354,584 L-342,568 L-334,558 L-325,548 L-317,537 L-309,527 L-298,514 L-288,502 L-281,493 L-272,483 L-264,474 L-256,463 L-248,456 L-238,443 L-235,436 L-236,428 L-240,421 L-240,414 L-233,405 L-226,397 L-221,392 L-209,379 L-195,364 L-185,354 L-178,345 L-171,337 L-163,329 L-155,322 L-145,311 L-138,303 L-134,298 L-132,298 L-130,294 L-116,280 L-105,266 L-99,258 L-91,251 L-86,245 L-78,235 L-68,223 L-62,215 L-56,208 L-45,193 L-38,184 L-30,171 L-20,150 L-17,141 L-11,124 L-6,107 L2,93 L4,90 L7,65 L5,30 L3,16 L0,4 Z M27,196 L22,201 L11,215 L0,232 L-1,237 L4,236 L11,235 L22,242 L28,240 L39,226 L44,217 L44,210 L41,207 L32,203 L30,197 Z M101,207 L97,209 L89,211 L84,215 L76,231 L67,247 L58,260 L51,271 L50,280 L51,285 L51,292 L47,301 L40,310 L36,314 L36,316 L32,318 L23,329 L11,343 L2,354 L-7,365 L-19,381 L-24,386 L-37,400 L-43,409 L-51,419 L-60,429 L-73,447 L-84,460 L-94,473 L-102,483 L-114,499 L-118,504 L-127,515 L-128,518 L-138,518 L-140,517 L-147,517 L-152,520 L-156,526 L-164,537 L-176,554 L-191,576 L-199,587 L-210,606 L-217,617 L-229,634 L-235,643 L-245,657 L-258,678 L-268,695 L-271,704 L-271,710 L-270,712 L-265,713 L-252,707 L-243,704 L-227,696 L-219,690 L-208,682 L-198,673 L-191,665 L-185,654 L-176,639 L-167,623 L-163,617 L-155,601 L-149,589 L-143,563 L-132,542 L-121,524 L-114,514 L-102,497 L-99,493 L-96,488 L-88,478 L-78,466 L-69,453 L-60,442 L-51,431 L-42,421 L-30,405 L-21,394 L-12,383 L-3,372 L11,354 L21,341 L24,338 L31,330 L40,319 L40,317 L43,316 L49,308 L57,301 L67,295 L77,282 L90,263 L99,247 L101,244 L101,221 L105,212 L104,207 Z M-95,348 L-103,355 L-105,358 L-105,362 L-100,361 L-93,351 L-94,348 Z M-117,372 L-124,381 L-123,385 L-119,383 L-113,376 L-113,372 Z M-167,432 L-177,443 L-183,448 L-187,457 L-191,462 L-197,466 L-209,465 L-214,469 L-218,476 L-218,478 L-222,480 L-234,494 L-246,511 L-249,515 L-249,517 L-252,518 L-262,532 L-269,541 L-282,557 L-288,565 L-299,580 L-308,592 L-318,606 L-323,612 L-332,624 L-344,641 L-352,651 L-359,662 L-367,673 L-378,689 L-385,699 L-391,709 L-399,721 L-409,736 L-421,756 L-421,762 L-418,765 L-411,764 L-378,754 L-368,750 L-360,743 L-344,719 L-334,704 L-325,690 L-317,679 L-309,668 L-299,655 L-289,641 L-278,627 L-268,614 L-261,605 L-254,597 L-250,591 L-241,579 L-235,569 L-227,559 L-221,550 L-214,542 L-205,530 L-198,521 L-188,508 L-181,497 L-181,489 L-185,483 L-189,478 L-189,471 L-183,461 L-172,448 L-163,435 L-163,432 Z M-6,489 L-13,497 L-16,503 L-22,512 L-24,516 L-24,520 L-21,520 L-14,509 L-7,499 L-3,493 L-4,489 Z M-34,532 L-38,536 L-39,542 L-35,541 L-31,536 L-32,532 Z M-48,552 L-54,562 L-53,564 L-49,563 L-43,554 L-44,552 Z M53,565 L49,569 L44,575 L42,576 L28,575 L25,578 L14,605 L6,624 L-3,648 L-12,665 L-21,682 L-29,698 L-37,712 L-45,728 L-52,740 L-57,750 L-65,764 L-70,774 L-79,793 L-82,800 L-85,805 L-89,815 L-92,821 L-92,825 L-87,824 L-81,813 L-74,802 L-64,785 L-56,773 L-49,762 L-44,756 L-36,749 L-31,737 L-25,727 L-18,713 L-8,694 L2,675 L8,665 L16,649 L22,639 L28,628 L31,622 L37,612 L48,592 L53,576 L56,571 L56,566 Z M146,678 L141,684 L136,698 L128,719 L124,737 L119,750 L115,764 L109,780 L102,804 L97,822 L93,836 L90,846 L80,876 L74,894 L75,898 L79,897 L87,881 L95,866 L98,860 L109,849 L122,822 L128,810 L133,797 L141,781 L151,760 L159,744 L163,734 L166,727 L169,715 L170,706 L179,686 L178,683 L174,683 L168,692 L166,694 L161,693 L154,682 L149,678 Z M-140,708 L-146,717 L-154,729 L-157,736 L-167,752 L-171,761 L-171,766 L-166,767 L-163,764 L-155,748 L-152,742 L-142,723 L-137,712 L-137,708 Z M99,719 L96,723 L98,724 L102,721 L102,719 Z M106,720 L107,724 L110,729 L109,736 L105,739 L100,739 L97,731 L95,726 L91,727 L92,737 L96,739 L98,743 L105,744 L111,741 L117,732 L113,721 L112,720 Z " fill="#000000" transform="translate(520,0)"/>
<path d="M0,0 L7,0 L8,1 L17,1 L22,4 L26,9 L27,17 L29,17 L29,132 L26,141 L19,167 L17,178 L14,187 L9,202 L4,220 L-3,239 L-10,259 L-17,279 L-22,291 L-29,311 L-37,329 L-45,348 L-50,362 L-55,374 L-63,393 L-71,412 L-76,426 L-82,442 L-90,458 L-99,480 L-110,505 L-115,517 L-126,543 L-134,561 L-141,577 L-154,608 L-162,628 L-166,640 L-169,646 L-175,662 L-183,683 L-187,697 L-188,713 L-192,729 L-200,763 L-203,773 L-209,790 L-216,807 L-220,817 L-225,827 L-229,830 L-235,829 L-247,820 L-252,820 L-258,832 L-264,851 L-269,871 L-273,884 L-275,891 L-282,914 L-285,928 L-290,946 L-294,963 L-297,983 L-302,994 L-308,1019 L-312,1034 L-314,1048 L-318,1064 L-325,1096 L-326,1098 L-376,1098 L-375,1092 L-373,1080 L-372,1078 L-370,1061 L-366,1047 L-362,1030 L-359,1014 L-356,1006 L-350,979 L-345,963 L-339,940 L-333,920 L-326,896 L-313,856 L-309,842 L-304,829 L-296,805 L-295,801 L-295,793 L-300,782 L-299,773 L-293,757 L-278,726 L-271,710 L-266,700 L-261,688 L-249,660 L-238,635 L-232,627 L-225,622 L-219,612 L-203,578 L-193,555 L-188,543 L-177,520 L-166,497 L-162,488 L-154,470 L-146,455 L-135,432 L-128,417 L-124,407 L-121,402 L-113,388 L-105,371 L-98,356 L-92,342 L-88,335 L-85,327 L-79,316 L-72,302 L-67,290 L-61,277 L-58,267 L-52,257 L-47,244 L-44,235 L-37,217 L-31,201 L-27,188 L-21,166 L-17,155 L-14,146 L-10,129 L-7,113 L-3,82 L-2,50 L-3,35 L-7,14 L-8,7 L-6,3 Z M-364,1066 L-367,1070 L-363,1071 L-362,1067 Z " fill="#000000" transform="translate(1057,3)"/>
<path d="M0,0 L1,0 L1,83 L-1,83 L-2,90 L-10,107 L-23,139 L-29,157 L-32,164 L-39,184 L-43,192 L-48,206 L-54,223 L-61,240 L-64,247 L-71,269 L-77,285 L-83,300 L-91,324 L-94,331 L-96,340 L-103,357 L-112,384 L-123,417 L-126,427 L-135,454 L-141,474 L-149,502 L-152,512 L-157,532 L-157,543 L-155,552 L-156,562 L-160,578 L-165,603 L-172,627 L-175,637 L-179,644 L-184,645 L-188,642 L-188,640 L-193,638 L-197,635 L-202,637 L-207,651 L-209,665 L-213,681 L-218,705 L-226,745 L-229,759 L-231,772 L-235,795 L-237,807 L-238,818 L-241,827 L-242,838 L-243,841 L-294,841 L-291,820 L-289,811 L-287,798 L-284,784 L-281,768 L-276,743 L-270,714 L-264,690 L-262,679 L-257,661 L-251,639 L-248,629 L-245,617 L-241,603 L-241,594 L-245,582 L-245,573 L-242,561 L-239,552 L-233,540 L-228,525 L-226,517 L-217,497 L-213,489 L-210,482 L-207,476 L-202,471 L-197,461 L-187,432 L-180,415 L-174,399 L-167,380 L-160,361 L-155,350 L-150,337 L-138,307 L-127,281 L-122,269 L-115,252 L-111,245 L-108,238 L-104,226 L-99,216 L-92,199 L-87,187 L-77,165 L-73,156 L-65,138 L-61,129 L-54,117 L-47,100 L-39,84 L-26,56 L-19,41 L-14,29 L-7,13 L-1,1 Z " fill="#000000" transform="translate(1085,260)"/>
<path d="M0,0 L2,0 L2,115 L-1,121 L-10,151 L-18,175 L-28,211 L-33,226 L-37,241 L-40,252 L-42,260 L-48,281 L-53,299 L-58,321 L-63,340 L-68,363 L-73,388 L-76,397 L-82,427 L-87,449 L-88,456 L-88,464 L-86,471 L-76,489 L-73,500 L-73,509 L-76,522 L-76,528 L-73,529 L-71,523 L-64,515 L-60,507 L-56,486 L-53,465 L-51,454 L-49,448 L-47,438 L-44,422 L-40,403 L-38,399 L-36,385 L-33,377 L-26,348 L-23,339 L-21,330 L-17,316 L-14,304 L-8,287 L-4,270 L0,256 L2,256 L2,442 L0,446 L-3,462 L-5,471 L-8,492 L-12,519 L-15,545 L-18,573 L-19,586 L-21,597 L-25,655 L-26,662 L-73,662 L-72,644 L-71,629 L-69,624 L-67,592 L-66,585 L-66,571 L-70,565 L-75,560 L-75,534 L-79,534 L-80,538 L-84,548 L-86,550 L-94,550 L-100,546 L-110,540 L-115,541 L-117,544 L-121,567 L-123,579 L-127,605 L-130,629 L-132,649 L-133,662 L-183,662 L-182,645 L-180,634 L-179,617 L-176,605 L-174,592 L-167,549 L-162,522 L-160,515 L-158,499 L-161,491 L-167,482 L-168,471 L-166,456 L-164,450 L-162,440 L-155,419 L-149,401 L-143,392 L-138,387 L-133,379 L-128,361 L-122,340 L-118,324 L-111,300 L-99,264 L-90,239 L-86,228 L-82,214 L-77,198 L-70,180 L-59,150 L-55,137 L-52,128 L-44,109 L-39,95 L-34,82 L-29,70 L-25,60 L-18,42 L-10,24 L-5,11 L-1,1 Z M-108,342 L-108,347 L-107,348 L-100,348 L-102,344 L-105,342 Z " fill="#000000" transform="translate(1084,439)"/>
</svg>
