<?xml version="1.0" encoding="UTF-8"?>
<!-- Generator: visioncortex VTracer 0.6.12 -->
<svg version="1.1" xmlns="http://www.w3.org/2000/svg" width="786" height="834">
<path d="M0,0 L14,0 L25,1 L30,5 L32,9 L32,83 L31,144 L28,149 L27,150 L11,151 L6,148 L4,144 L2,115 L1,108 L-1,79 L-3,56 L-4,35 L-6,18 L-6,4 L-3,1 Z " fill="#000000" transform="translate(606,31)"/>
<path d="M0,0 L9,0 L15,4 L18,10 L21,21 L23,35 L28,62 L32,81 L34,95 L38,114 L42,141 L42,147 L37,152 L25,155 L20,155 L17,152 L11,131 L3,98 L-1,83 L-4,71 L-6,66 L-16,21 L-19,12 L-19,5 L-15,2 L-4,1 Z " fill="#000000" transform="translate(544,33)"/>
<path d="M0,0 L14,0 L26,6 L28,10 L26,20 L26,44 L24,52 L20,78 L17,91 L15,111 L10,138 L8,148 L3,149 L1,148 L-10,147 L-15,143 L-16,134 L-14,108 L-13,83 L-11,74 L-10,54 L-7,24 L-6,10 L-4,3 Z " fill="#000000" transform="translate(674,38)"/>
<path d="M0,0 L7,1 L10,6 L19,36 L24,56 L31,73 L37,91 L43,113 L53,138 L58,147 L58,151 L47,154 L42,156 L35,156 L31,152 L26,139 L21,129 L12,108 L6,92 L-2,74 L-8,59 L-15,43 L-22,25 L-24,18 L-24,11 L-20,7 L-8,2 Z " fill="#000000" transform="translate(480,44)"/>
<path d="M0,0 L10,1 L27,7 L31,11 L31,19 L25,38 L15,68 L12,78 L0,114 L-4,128 L-9,138 L-11,140 L-27,138 L-31,134 L-31,118 L-26,97 L-21,76 L-15,50 L-6,13 L-3,3 Z " fill="#000000" transform="translate(736,55)"/>
<path d="M0,0 L5,1 L10,7 L18,23 L24,36 L32,52 L39,65 L47,81 L55,97 L63,113 L68,121 L75,135 L76,141 L71,146 L62,149 L56,154 L52,153 L46,143 L42,135 L36,126 L28,112 L21,99 L11,81 L1,65 L-4,55 L-11,44 L-15,35 L-19,29 L-24,18 L-23,14 L-15,7 Z " fill="#000000" transform="translate(417,68)"/>
<path d="M0,0 L6,1 L13,11 L19,21 L33,40 L39,49 L47,61 L50,66 L53,72 L63,87 L70,99 L78,111 L86,124 L87,131 L84,134 L76,138 L73,140 L66,140 L58,131 L50,119 L43,109 L36,99 L23,81 L13,68 L5,57 L-3,46 L-11,35 L-19,24 L-21,21 L-21,14 L-14,8 L-5,2 Z " fill="#000000" transform="translate(364,101)"/>
<path d="M0,0 L5,1 L9,5 L16,15 L16,17 L19,18 L27,29 L33,33 L41,43 L46,47 L56,62 L66,72 L73,81 L83,92 L83,94 L86,95 L91,100 L99,113 L98,120 L89,127 L83,127 L77,123 L62,109 L56,102 L50,97 L45,92 L31,78 L26,73 L16,64 L9,54 L-1,43 L-12,35 L-18,31 L-20,27 L-20,20 L-16,13 L-5,4 Z " fill="#000000" transform="translate(315,138)"/>
<path d="M0,0 L5,2 L14,9 L19,14 L24,18 L29,23 L37,32 L40,34 L40,36 L44,38 L52,46 L57,51 L61,54 L61,56 L65,58 L71,63 L76,69 L84,76 L89,81 L96,87 L100,92 L102,93 L102,95 L106,97 L108,99 L108,105 L98,115 L95,118 L92,119 L85,115 L76,106 L65,97 L63,93 L59,91 L48,81 L34,70 L26,62 L21,59 L21,57 L17,55 L6,45 L-2,39 L-10,32 L-16,25 L-17,23 L-17,16 L-6,4 Z " fill="#000000" transform="translate(274,179)"/>
<path d="M0,0 L2,0 L2,192 L-1,191 L-10,176 L-14,175 L-18,177 L-20,184 L-15,193 L-7,207 L0,220 L2,221 L2,252 L-2,250 L-10,234 L-17,228 L-21,227 L-29,234 L-31,240 L-31,250 L-30,264 L-27,272 L-23,277 L-14,283 L-8,285 L2,285 L2,535 L-17,537 L-20,544 L-21,549 L-21,562 L-20,573 L-15,573 L-8,565 L0,558 L2,558 L2,587 L-3,592 L-10,599 L-15,601 L-30,602 L-39,600 L-43,596 L-44,594 L-45,565 L-48,553 L-48,545 L-47,543 L-46,532 L-46,517 L-51,519 L-56,520 L-62,521 L-64,527 L-65,562 L-65,590 L-66,598 L-71,601 L-84,601 L-104,600 L-107,596 L-107,462 L-108,423 L-110,414 L-123,406 L-129,402 L-140,395 L-152,384 L-159,376 L-166,365 L-173,351 L-176,342 L-181,335 L-185,321 L-188,302 L-188,283 L-186,265 L-182,249 L-179,243 L-176,234 L-169,220 L-164,208 L-160,194 L-164,193 L-174,200 L-179,206 L-184,211 L-191,221 L-198,236 L-201,244 L-205,255 L-210,282 L-211,292 L-211,312 L-210,326 L-205,345 L-200,358 L-193,372 L-185,386 L-177,395 L-171,403 L-164,409 L-160,414 L-150,422 L-140,429 L-138,433 L-138,613 L-141,624 L-145,628 L-174,627 L-204,628 L-236,627 L-254,627 L-263,626 L-272,627 L-286,627 L-303,626 L-420,626 L-428,625 L-446,625 L-454,620 L-464,621 L-472,622 L-478,620 L-484,621 L-488,624 L-492,623 L-497,619 L-503,620 L-511,626 L-516,625 L-520,622 L-527,623 L-529,625 L-535,625 L-539,622 L-548,618 L-553,620 L-558,621 L-561,619 L-561,606 L-558,574 L-554,541 L-550,520 L-548,506 L-547,493 L-543,481 L-535,445 L-530,426 L-527,412 L-521,394 L-514,375 L-504,348 L-492,321 L-487,313 L-476,293 L-468,274 L-461,260 L-452,248 L-442,230 L-437,222 L-429,209 L-418,195 L-406,181 L-398,171 L-393,166 L-386,160 L-384,160 L-382,156 L-372,147 L-368,142 L-352,130 L-344,123 L-333,115 L-327,111 L-314,102 L-302,94 L-295,90 L-285,85 L-269,77 L-248,68 L-224,59 L-215,56 L-188,54 L-146,53 L-139,54 L-114,55 L-97,58 L-91,60 L-81,62 L-71,67 L-63,70 L-57,73 L-50,76 L-43,75 L-31,55 L-21,37 L-10,17 L-5,10 Z M-471,585 L-471,587 L-469,587 L-469,585 Z " fill="#000000" transform="translate(784,154)"/>
<path d="M0,0 L6,1 L15,7 L19,12 L28,17 L28,19 L33,21 L43,29 L55,37 L66,46 L75,53 L84,59 L85,62 L89,64 L97,69 L107,77 L115,84 L116,91 L109,100 L105,104 L99,104 L87,96 L75,90 L69,85 L69,83 L65,81 L44,67 L29,56 L19,49 L-3,34 L-13,27 L-17,23 L-16,18 L-9,9 L-2,1 Z " fill="#000000" transform="translate(235,225)"/>
<path d="M0,0 L5,1 L16,8 L24,13 L30,17 L38,22 L49,29 L60,36 L73,45 L90,55 L103,63 L116,71 L122,75 L123,76 L123,82 L116,94 L113,99 L107,98 L94,90 L73,78 L56,69 L42,60 L34,56 L26,51 L16,46 L8,41 L2,38 L-11,30 L-15,26 L-14,19 L-3,2 Z " fill="#000000" transform="translate(201,270)"/>
<path d="M0,0 L9,2 L20,8 L28,14 L40,19 L59,28 L70,35 L78,39 L93,47 L106,55 L116,61 L127,68 L128,73 L120,88 L118,90 L113,89 L105,85 L98,81 L90,77 L81,74 L62,64 L50,59 L34,51 L21,45 L15,43 L0,35 L-11,30 L-15,27 L-16,23 L-5,3 Z " fill="#000000" transform="translate(170,322)"/>
<path d="M0,0 L7,0 L12,3 L25,8 L38,13 L65,24 L92,35 L109,44 L119,47 L136,55 L138,58 L137,63 L134,67 L129,79 L125,82 L118,81 L105,75 L92,71 L70,62 L54,56 L41,51 L27,43 L14,41 L7,38 L-10,33 L-13,30 L-12,24 L-9,19 L-3,3 Z " fill="#000000" transform="translate(139,377)"/>
<path d="M0,0 L8,0 L20,6 L37,12 L45,16 L63,21 L74,26 L83,28 L90,31 L112,36 L129,44 L138,48 L138,55 L130,74 L125,75 L112,69 L103,68 L93,64 L84,61 L68,57 L53,53 L45,50 L15,43 L4,39 L-9,35 L-13,31 L-14,25 L-13,16 L-6,6 L-2,1 Z " fill="#000000" transform="translate(116,436)"/>
<path d="M0,0 L7,0 L13,3 L23,5 L28,7 L40,9 L48,12 L62,14 L67,16 L78,18 L92,23 L94,25 L105,25 L112,28 L129,32 L142,36 L144,40 L143,46 L138,59 L135,62 L132,63 L121,63 L113,60 L102,58 L89,54 L77,52 L58,48 L41,44 L13,39 L-6,34 L-11,29 L-9,20 L-3,3 Z " fill="#000000" transform="translate(91,500)"/>
<path d="M0,0 L11,0 L19,3 L29,5 L31,6 L47,7 L64,11 L77,13 L99,16 L108,19 L120,20 L140,24 L146,27 L147,29 L147,48 L145,53 L139,56 L134,57 L125,57 L115,56 L113,55 L98,53 L86,50 L73,48 L59,43 L47,42 L36,40 L27,39 L22,37 L10,35 L4,34 L-5,33 L-9,29 L-9,18 L-2,2 Z " fill="#000000" transform="translate(72,562)"/>
<path d="M0,0 L7,0 L17,2 L25,3 L33,4 L55,6 L70,8 L99,11 L127,15 L145,17 L151,19 L152,24 L149,41 L144,47 L139,48 L130,46 L103,44 L97,43 L75,42 L61,41 L36,38 L21,37 L17,36 L-4,34 L-9,29 L-9,18 L-6,7 L-4,2 Z " fill="#000000" transform="translate(58,621)"/>
<path d="M0,0 L10,0 L25,1 L38,2 L48,2 L75,4 L136,8 L157,9 L159,12 L159,22 L157,35 L154,39 L141,41 L129,42 L106,41 L99,40 L90,43 L56,42 L51,40 L5,40 L-1,37 L-4,34 L-5,26 L-2,3 Z " fill="#000000" transform="translate(43,683)"/>
<path d="M0,0 L30,0 L40,1 L62,1 L108,2 L131,2 L147,4 L152,6 L153,8 L153,31 L150,35 L111,36 L64,36 L27,35 L15,35 L7,34 L-7,35 L-12,32 L-12,21 L-9,6 L-4,1 Z " fill="#000000" transform="translate(41,742)"/>
</svg>
