<?xml version="1.0" encoding="UTF-8"?>
<!-- Generator: visioncortex VTracer 0.6.12 -->
<svg version="1.1" xmlns="http://www.w3.org/2000/svg" width="1164" height="1233">
<path d="M0,0 L12,1 L17,2 L36,2 L42,3 L42,15 L5,16 L1,18 L-1,23 L-2,30 L-3,108 L-3,340 L-2,493 L-2,570 L-3,642 L-8,652 L-8,667 L-4,676 L-3,708 L-2,772 L-3,800 L-3,1113 L-2,1128 L1,1139 L6,1143 L42,1145 L42,1158 L11,1158 L2,1159 L-7,1146 L-13,1136 L-16,1129 L-16,976 L-17,949 L-17,915 L-16,904 L-16,817 L-15,752 L-13,746 L-13,733 L-15,721 L-16,682 L-17,669 L-19,666 L-19,655 L-16,650 L-15,624 L-15,581 L-13,572 L-13,566 L-15,562 L-15,494 L-14,437 L-15,430 L-14,427 L-13,388 L-13,240 L-12,84 L-13,24 L-16,19 L-15,13 L-5,4 Z " fill="#000000" transform="translate(1122,41)"/>
<path d="M0,0 L71,1 L105,2 L185,2 L253,3 L291,2 L410,3 L710,3 L759,4 L797,4 L873,5 L945,5 L955,4 L962,3 L970,13 L978,22 L977,33 L977,445 L978,478 L978,579 L977,619 L977,641 L974,650 L972,660 L972,671 L975,676 L976,687 L976,703 L977,714 L977,753 L978,765 L978,778 L977,783 L977,1045 L976,1055 L976,1107 L978,1131 L980,1141 L985,1146 L985,1149 L973,1155 L964,1160 L959,1163 L952,1161 L935,1160 L867,1159 L712,1159 L507,1158 L424,1158 L291,1157 L233,1157 L222,1156 L192,1157 L158,1157 L133,1156 L-39,1156 L-39,1142 L-6,1142 L6,1141 L57,1142 L87,1142 L129,1143 L145,1143 L176,1144 L223,1144 L308,1145 L671,1145 L696,1146 L880,1146 L889,1147 L942,1146 L953,1145 L959,1142 L962,1136 L963,1113 L963,1098 L964,1044 L964,1003 L963,969 L963,911 L964,882 L964,759 L967,747 L967,736 L966,733 L965,722 L964,686 L962,670 L956,667 L948,668 L878,668 L816,667 L754,667 L699,666 L683,667 L619,666 L613,667 L605,666 L578,667 L568,670 L551,680 L535,689 L513,702 L488,716 L475,723 L457,734 L448,739 L439,745 L421,755 L406,764 L391,773 L383,779 L381,784 L380,793 L379,844 L379,868 L378,880 L379,909 L378,976 L374,983 L371,984 L347,985 L304,984 L298,981 L297,980 L296,972 L296,805 L297,737 L300,730 L308,723 L324,715 L329,712 L343,704 L361,694 L377,684 L385,680 L400,671 L418,661 L430,653 L432,649 L431,644 L424,636 L410,622 L399,607 L394,597 L387,586 L380,579 L376,577 L367,575 L347,568 L336,560 L326,551 L316,536 L312,527 L308,512 L309,503 L313,500 L323,498 L329,496 L330,489 L323,473 L309,449 L303,439 L297,427 L291,418 L284,405 L277,394 L267,381 L262,376 L253,367 L240,357 L225,347 L212,341 L188,334 L177,331 L156,330 L92,330 L83,332 L81,334 L81,343 L89,359 L93,367 L93,377 L88,385 L81,399 L76,406 L70,417 L54,444 L48,455 L41,466 L34,477 L26,492 L18,505 L8,521 L4,526 L-4,542 L-12,555 L-19,566 L-24,576 L-29,583 L-35,594 L-37,597 L-39,597 L-39,576 L-34,568 L-29,559 L-22,549 L-11,529 L1,509 L9,496 L21,475 L26,467 L31,458 L43,438 L50,427 L55,418 L63,405 L69,394 L77,380 L78,377 L78,368 L73,356 L64,341 L58,329 L56,325 L56,319 L58,317 L65,316 L92,316 L167,317 L188,320 L200,323 L206,326 L214,328 L234,337 L244,344 L255,352 L268,364 L273,368 L283,381 L291,392 L300,408 L304,416 L309,424 L319,442 L326,453 L335,470 L344,484 L351,494 L356,498 L360,499 L396,500 L424,500 L446,499 L457,497 L460,490 L461,485 L462,425 L466,404 L470,391 L478,375 L486,362 L496,351 L504,344 L514,336 L519,332 L520,326 L517,324 L502,320 L492,315 L483,308 L474,298 L470,292 L466,282 L464,270 L464,255 L467,243 L475,229 L484,220 L495,213 L508,209 L517,208 L538,210 L551,217 L560,224 L570,238 L574,246 L577,260 L576,278 L571,291 L564,302 L556,312 L555,317 L557,318 L569,319 L574,323 L575,327 L575,461 L574,587 L575,643 L578,649 L581,651 L586,652 L628,653 L755,654 L784,655 L960,655 L963,653 L964,650 L964,633 L965,619 L965,500 L966,409 L967,347 L967,226 L968,83 L967,30 L964,21 L958,18 L924,16 L644,16 L536,15 L392,15 L346,14 L182,14 L156,13 L147,14 L62,13 L-29,13 L-39,12 L-39,2 L-35,1 L-18,1 Z M412,577 L405,580 L404,582 L405,591 L414,606 L426,620 L436,628 L443,633 L449,636 L455,636 L459,632 L461,624 L461,595 L459,582 L454,578 L447,577 Z " fill="#000000" transform="translate(39,36)"/>
<path d="M0,0 L7,0 L8,5 L3,10 L-11,19 L-21,25 L-38,34 L-51,42 L-61,47 L-68,47 L-68,27 L-64,29 L-56,30 L-39,22 L-28,16 L-14,7 Z " fill="#000000" transform="translate(68,714)"/>
</svg>
