<?xml version="1.0" encoding="UTF-8"?>
<!-- Generator: visioncortex VTracer 0.6.12 -->
<svg version="1.1" xmlns="http://www.w3.org/2000/svg" width="1116" height="1110">
<path d="M0,0 L51,0 L52,2 L68,10 L87,20 L100,26 L111,32 L128,41 L144,49 L160,57 L180,68 L196,75 L211,83 L222,88 L238,96 L253,104 L269,112 L286,120 L305,130 L341,148 L358,157 L365,160 L377,166 L393,174 L416,185 L426,191 L443,199 L454,205 L464,209 L487,221 L499,227 L516,235 L530,242 L547,250 L559,256 L572,262 L581,265 L582,236 L581,110 L580,56 L580,29 L579,0 L588,0 L588,1110 L-526,1110 L-527,1043 L-528,1041 L-528,1034 L-527,1025 L-528,1022 L-528,262 L-525,264 L-519,264 L-500,254 L-473,241 L-454,231 L-438,223 L-419,214 L-409,208 L-393,200 L-374,190 L-358,182 L-339,173 L-323,165 L-307,157 L-265,136 L-246,126 L-230,118 L-214,110 L-191,98 L-175,90 L-159,82 L-114,59 L-97,50 L-78,41 L-63,33 L-47,25 L-37,19 L-14,8 L-2,2 Z M24,52 L6,60 L-8,68 L-24,76 L-40,84 L-58,94 L-74,102 L-93,112 L-112,122 L-128,130 L-144,138 L-173,153 L-188,161 L-205,169 L-224,179 L-239,187 L-255,195 L-271,203 L-298,217 L-314,225 L-329,233 L-352,244 L-368,252 L-385,261 L-401,269 L-419,279 L-436,288 L-457,298 L-472,307 L-475,314 L-475,396 L-474,476 L-474,494 L-473,540 L-473,565 L-472,604 L-471,649 L-470,721 L-470,793 L-469,847 L-469,875 L-468,989 L-467,1048 L-466,1055 L-462,1058 L-459,1059 L-397,1059 L-208,1058 L-126,1058 L-108,1059 L-105,1058 L66,1058 L151,1057 L531,1057 L538,1055 L540,1051 L540,1032 L539,972 L539,930 L538,884 L538,821 L537,678 L536,623 L535,564 L534,512 L534,448 L533,376 L533,323 L532,310 L527,303 L511,295 L478,279 L462,271 L443,261 L427,253 L413,246 L397,238 L381,230 L360,220 L341,210 L325,202 L302,191 L283,181 L262,170 L250,164 L240,159 L224,151 L208,143 L185,131 L156,116 L140,108 L124,100 L112,93 L103,89 L84,80 L69,72 L53,64 L37,56 L30,52 Z " fill="#000000" transform="translate(528,0)"/>
<path d="M0,0 L217,0 L221,2 L223,7 L224,18 L224,76 L226,155 L226,215 L229,221 L281,221 L287,222 L310,223 L314,224 L317,223 L360,223 L398,224 L415,224 L448,225 L453,229 L454,231 L454,286 L455,375 L455,445 L453,450 L450,452 L368,451 L233,451 L229,455 L229,463 L228,471 L228,494 L229,528 L230,608 L230,659 L229,669 L225,672 L3,672 L1,670 L0,666 L-1,644 L-1,587 L-2,475 L-3,456 L-6,453 L-9,452 L-44,451 L-165,451 L-201,450 L-227,450 L-232,447 L-233,445 L-234,428 L-235,303 L-235,222 L-231,218 L-224,217 L-144,218 L-8,218 L-6,214 L-5,193 L-5,114 L-6,37 L-6,9 L-4,2 Z M177,12 L177,17 L180,20 L183,19 L183,13 L182,12 Z M215,30 L214,34 L218,35 L218,32 Z M260,248 L261,251 L263,250 L263,248 Z M304,269 L303,273 L305,275 L309,274 L308,269 Z M127,515 L125,517 L126,522 L130,521 L131,516 Z " fill="#000000" transform="translate(449,321)"/>
</svg>
