<?xml version="1.0" encoding="UTF-8"?>
<!-- Generator: visioncortex VTracer 0.6.12 -->
<svg version="1.1" xmlns="http://www.w3.org/2000/svg" width="1206" height="1200">
<path d="M0,0 L100,1 L121,0 L145,0 L186,1 L308,1 L503,2 L682,2 L685,3 L687,9 L688,34 L689,195 L690,234 L691,283 L692,384 L693,427 L694,441 L693,444 L695,616 L695,628 L697,650 L697,737 L698,844 L698,873 L700,954 L701,1116 L700,1123 L695,1127 L682,1128 L528,1128 L523,1127 L506,1128 L195,1128 L56,1129 L-19,1129 L-117,1130 L-193,1130 L-226,1131 L-323,1132 L-422,1132 L-425,1128 L-426,1123 L-427,1055 L-427,1037 L-428,1003 L-428,949 L-429,890 L-430,782 L-431,711 L-431,682 L-432,600 L-432,551 L-433,522 L-434,403 L-435,300 L-435,277 L-436,198 L-437,91 L-438,41 L-438,8 L-435,3 L-430,2 L-345,2 L-324,1 L-151,1 Z M152,7 L148,9 L149,13 L163,21 L184,31 L200,39 L211,45 L228,54 L244,62 L260,70 L280,81 L296,88 L311,96 L322,101 L338,109 L353,117 L369,125 L386,133 L405,143 L441,161 L458,170 L465,173 L477,179 L493,187 L516,198 L526,204 L543,212 L554,218 L564,222 L587,234 L599,240 L616,248 L630,255 L647,263 L663,271 L672,275 L676,277 L681,277 L682,275 L683,248 L682,122 L681,68 L681,41 L680,13 L678,9 L652,8 L569,8 L492,7 Z M-169,7 L-287,8 L-325,8 L-426,9 L-430,11 L-431,17 L-430,95 L-429,162 L-429,185 L-427,275 L-425,277 L-419,277 L-400,267 L-373,254 L-354,244 L-338,236 L-319,227 L-309,221 L-293,213 L-274,203 L-258,195 L-239,186 L-223,178 L-207,170 L-165,149 L-146,139 L-130,131 L-114,123 L-91,111 L-75,103 L-63,97 L-47,89 L-20,75 L-4,67 L12,59 L37,46 L53,38 L63,32 L86,21 L98,15 L103,10 L101,8 L96,7 Z M124,64 L106,72 L92,80 L76,88 L60,96 L42,106 L26,114 L7,124 L-12,134 L-28,142 L-44,150 L-73,165 L-88,173 L-105,181 L-124,191 L-144,201 L-166,213 L-182,221 L-205,232 L-223,242 L-239,250 L-258,259 L-277,269 L-288,275 L-304,283 L-321,292 L-336,300 L-357,310 L-372,319 L-375,326 L-375,408 L-374,488 L-374,506 L-373,552 L-373,577 L-372,616 L-371,661 L-370,734 L-370,806 L-369,873 L-368,1001 L-367,1060 L-366,1067 L-362,1070 L-359,1071 L-297,1071 L-108,1070 L-26,1070 L-8,1071 L-5,1070 L166,1070 L251,1069 L631,1069 L638,1067 L640,1063 L640,1044 L639,984 L639,942 L638,896 L638,833 L637,690 L636,635 L635,576 L634,524 L634,460 L633,388 L633,335 L632,322 L627,315 L611,307 L597,300 L575,290 L567,285 L551,277 L534,269 L520,261 L509,256 L493,248 L477,240 L460,232 L441,222 L425,214 L402,203 L383,193 L362,182 L350,176 L340,171 L330,166 L314,158 L302,152 L283,142 L256,128 L240,120 L224,112 L212,105 L203,101 L184,92 L169,84 L153,76 L137,68 L130,64 Z " fill="#000000" transform="translate(473,36)"/>
<path d="M0,0 L216,0 L221,2 L223,7 L224,18 L224,76 L226,155 L226,215 L229,221 L281,221 L287,222 L310,223 L314,224 L317,223 L360,223 L398,224 L415,224 L448,225 L453,229 L454,231 L454,286 L455,375 L455,445 L453,450 L450,452 L368,451 L233,451 L229,455 L229,463 L228,471 L228,494 L229,529 L230,659 L229,669 L225,672 L3,672 L1,670 L0,666 L-1,644 L-1,587 L-2,475 L-3,456 L-6,453 L-9,452 L-44,451 L-165,451 L-201,450 L-227,450 L-232,447 L-233,445 L-234,428 L-235,315 L-235,222 L-231,218 L-224,217 L-144,218 L-8,218 L-6,214 L-5,193 L-5,114 L-6,37 L-6,9 L-4,2 Z M177,12 L177,17 L180,20 L183,19 L183,13 L182,12 Z M215,30 L214,34 L218,35 L218,32 Z M260,248 L261,251 L263,250 L263,248 Z M304,269 L303,273 L305,275 L309,274 L308,269 Z M127,515 L125,517 L126,522 L130,521 L131,516 Z " fill="#000000" transform="translate(494,369)"/>
</svg>
