<?xml version="1.0" encoding="UTF-8"?>
<!-- Generator: visioncortex VTracer 0.6.12 -->
<svg version="1.1" xmlns="http://www.w3.org/2000/svg" width="1122" height="1104">
<path d="M0,0 L1121,0 L1121,18 L1119,18 L1115,14 L1106,12 L1075,12 L1007,10 L800,9 L755,9 L717,8 L592,8 L526,7 L457,7 L348,6 L310,6 L303,5 L194,5 L59,4 L24,4 L13,6 L10,11 L9,21 L8,313 L8,332 L7,347 L7,391 L6,494 L5,612 L5,640 L4,700 L4,725 L5,764 L4,773 L5,783 L4,792 L4,854 L3,883 L3,1086 L6,1092 L7,1093 L24,1093 L26,1094 L35,1094 L42,1093 L44,1094 L54,1094 L60,1095 L62,1094 L85,1094 L95,1096 L101,1095 L104,1094 L111,1095 L160,1095 L162,1094 L169,1094 L172,1096 L180,1095 L194,1094 L200,1093 L213,1096 L227,1095 L233,1095 L240,1094 L255,1096 L266,1097 L295,1097 L297,1096 L356,1097 L411,1097 L418,1096 L423,1097 L478,1097 L521,1098 L555,1098 L557,1097 L579,1098 L586,1097 L595,1098 L608,1095 L612,1096 L613,1097 L632,1097 L636,1099 L645,1098 L651,1097 L653,1098 L673,1099 L678,1097 L688,1097 L691,1099 L697,1099 L698,1098 L704,1098 L705,1099 L716,1098 L721,1099 L749,1099 L754,1100 L761,1099 L780,1098 L783,1099 L832,1099 L835,1100 L855,1100 L861,1099 L863,1100 L914,1100 L923,1101 L1052,1101 L1072,1102 L1080,1102 L1081,1104 L-1,1104 L-1,112 L1,107 L0,100 L-1,99 L-1,70 L0,66 L0,50 L-1,49 L0,28 L0,21 L-1,19 L-1,1 Z " fill="#000000" transform="translate(1,0)"/>
<path d="M0,0 L2,0 L2,11 L-1,8 Z " fill="#000000" transform="translate(1120,96)"/>
<path d="M0,0 L1,0 L1,26 L-1,24 L-2,15 L-1,2 Z " fill="#000000" transform="translate(1121,115)"/>
<path d="M0,0 L1,0 L1,961 L-14,961 L-12,957 L-8,951 L-8,922 L-10,919 L-9,913 L-8,911 L-8,847 L-7,792 L-7,773 L-8,766 L-7,763 L-7,710 L-6,688 L-7,675 L-6,651 L-5,531 L-5,433 L-4,398 L-3,240 L-2,111 L-3,108 L-2,82 L-2,38 L-1,32 L-2,28 L-2,6 Z " fill="#000000" transform="translate(1121,143)"/>
<path d="M0,0 L7,0 L22,8 L31,14 L41,19 L46,23 L57,29 L69,37 L69,39 L76,40 L83,45 L94,51 L113,62 L121,67 L127,69 L132,73 L145,81 L152,84 L157,88 L165,92 L174,98 L186,105 L202,113 L210,116 L214,121 L224,124 L227,129 L235,134 L236,135 L245,136 L249,140 L250,144 L255,146 L263,150 L266,153 L276,158 L282,162 L290,165 L291,168 L303,171 L311,178 L316,181 L325,187 L332,188 L337,194 L343,196 L351,201 L357,204 L359,207 L368,210 L374,215 L392,226 L398,231 L399,235 L399,755 L394,760 L388,759 L385,755 L384,653 L384,614 L383,609 L384,605 L384,373 L383,368 L384,367 L385,321 L385,255 L384,241 L377,233 L368,228 L357,221 L346,215 L335,208 L318,198 L293,184 L281,177 L267,169 L259,164 L240,153 L230,147 L220,140 L211,135 L187,121 L171,112 L161,106 L149,99 L132,89 L121,83 L103,72 L90,65 L79,58 L66,51 L42,37 L29,29 L22,25 L8,18 L3,17 L-9,22 L-25,31 L-34,36 L-48,44 L-63,53 L-75,60 L-85,65 L-99,73 L-115,82 L-126,88 L-143,98 L-165,110 L-177,117 L-200,130 L-215,138 L-226,145 L-242,153 L-253,160 L-259,163 L-267,168 L-273,171 L-287,179 L-308,191 L-324,200 L-342,210 L-355,218 L-366,224 L-374,229 L-377,230 L-379,236 L-380,253 L-380,303 L-381,322 L-381,338 L-380,355 L-381,477 L-381,583 L-382,746 L-384,752 L-390,754 L-394,752 L-395,750 L-396,734 L-396,508 L-395,389 L-395,231 L-392,224 L-387,219 L-378,215 L-376,211 L-362,206 L-353,200 L-348,196 L-339,193 L-336,191 L-334,185 L-327,186 L-324,183 L-316,179 L-313,175 L-303,173 L-300,170 L-295,167 L-287,160 L-279,158 L-273,155 L-270,152 L-265,151 L-259,146 L-246,140 L-235,132 L-230,130 L-214,121 L-210,118 L-201,115 L-192,107 L-180,101 L-179,99 L-165,94 L-159,90 L-146,83 L-135,77 L-132,74 L-120,69 L-106,61 L-99,56 L-90,52 L-72,42 L-64,37 L-53,31 L-42,25 L-32,19 L-22,13 L-18,10 L-11,7 Z " fill="#000000" transform="translate(554,167)"/>
<path d="M0,0 L7,1 L36,2 L50,2 L56,5 L57,94 L58,110 L67,114 L81,115 L84,114 L104,115 L109,114 L116,114 L120,115 L128,115 L136,116 L139,115 L147,115 L158,116 L168,116 L170,119 L170,218 L168,222 L166,223 L115,224 L70,224 L60,226 L57,231 L56,278 L54,280 L50,280 L53,285 L55,295 L56,297 L56,330 L54,335 L52,337 L-49,337 L-52,334 L-53,319 L-53,236 L-56,227 L-62,224 L-147,223 L-163,222 L-165,220 L-166,215 L-166,122 L-163,116 L-161,114 L-150,115 L-138,115 L-130,114 L-124,115 L-105,115 L-102,114 L-76,113 L-71,112 L-69,115 L-64,113 L-57,112 L-54,107 L-53,98 L-52,9 L-49,2 L-28,1 L-12,1 L-4,2 Z " fill="#000000" transform="translate(553,458)"/>
<path d="M0,0 L5,1 L6,3 L-9,3 L-8,1 Z " fill="#000000" transform="translate(1096,1101)"/>
</svg>
