<?xml version="1.0" encoding="UTF-8"?>
<!-- Generator: visioncortex VTracer 0.6.12 -->
<svg version="1.1" xmlns="http://www.w3.org/2000/svg" width="1323" height="1512">
<path d="M0,0 L164,0 L168,5 L169,9 L170,60 L170,115 L171,138 L171,175 L172,206 L172,232 L173,254 L173,308 L174,351 L174,374 L175,422 L175,498 L176,509 L176,554 L177,615 L177,674 L178,700 L179,751 L179,816 L180,973 L180,1006 L178,1014 L174,1016 L157,1016 L144,1015 L112,1015 L108,1016 L75,1015 L65,1016 L53,1017 L38,1017 L29,1016 L25,1017 L-45,1017 L-46,1016 L-54,1016 L-61,1017 L-108,1017 L-112,1018 L-191,1018 L-198,1017 L-215,1018 L-248,1019 L-250,1018 L-311,1018 L-313,1019 L-323,1018 L-366,1018 L-371,1020 L-409,1019 L-417,1018 L-421,1019 L-496,1019 L-528,1020 L-536,1019 L-591,1021 L-677,1021 L-683,1022 L-713,1021 L-718,1022 L-748,1022 L-771,1023 L-778,1022 L-798,1023 L-815,1022 L-820,1015 L-824,1016 L-827,1022 L-828,1023 L-837,1022 L-840,1018 L-841,1013 L-842,946 L-844,927 L-845,863 L-846,798 L-846,750 L-847,705 L-848,592 L-850,483 L-851,409 L-851,386 L-852,335 L-852,311 L-853,252 L-855,103 L-856,77 L-856,19 L-853,13 L-849,11 L-821,11 L-795,10 L-745,10 L-715,9 L-641,8 L-613,8 L-545,7 L-516,7 L-490,6 L-446,5 L-389,5 L-372,4 L-323,4 L-273,3 L-264,4 L-260,3 L-223,3 L-160,2 L-91,2 L-81,1 L-22,1 Z M-630,602 L-644,606 L-655,614 L-661,621 L-665,625 L-670,633 L-673,647 L-672,659 L-669,670 L-666,676 L-659,685 L-654,691 L-644,697 L-641,699 L-632,701 L-618,701 L-602,697 L-593,692 L-587,687 L-583,681 L-577,672 L-573,656 L-573,648 L-576,634 L-582,623 L-593,611 L-607,604 L-626,602 Z M-719,538 L-722,540 L-733,540 L-745,541 L-751,544 L-754,552 L-754,647 L-753,767 L-753,786 L-752,826 L-751,910 L-749,923 L-746,927 L-730,929 L-702,928 L-689,927 L-683,922 L-682,918 L-682,822 L-681,802 L-676,798 L-630,798 L-533,796 L-447,796 L-420,795 L-373,795 L-318,794 L-244,793 L-105,792 L-48,792 L-39,791 L12,791 L16,793 L18,802 L19,824 L20,896 L21,910 L24,916 L27,918 L42,919 L73,919 L84,916 L86,913 L87,908 L88,881 L87,836 L86,739 L86,673 L85,624 L83,603 L78,598 L76,597 L59,596 L50,597 L27,597 L21,600 L18,605 L17,610 L16,665 L10,666 L-5,666 L-20,664 L-42,662 L-47,660 L-58,660 L-66,658 L-72,656 L-82,655 L-95,651 L-103,650 L-119,645 L-135,639 L-147,634 L-164,628 L-166,627 L-175,626 L-183,623 L-197,621 L-212,619 L-241,620 L-252,621 L-273,628 L-291,635 L-308,639 L-329,641 L-341,640 L-356,638 L-372,635 L-386,630 L-404,624 L-426,618 L-434,616 L-449,614 L-462,611 L-476,610 L-485,609 L-504,614 L-515,622 L-520,627 L-527,634 L-534,650 L-535,653 L-536,721 L-539,724 L-551,726 L-624,726 L-651,727 L-677,727 L-681,724 L-683,708 L-684,666 L-684,631 L-685,578 L-686,550 L-689,544 L-693,541 L-715,539 Z " fill="#000000" transform="translate(1009,36)"/>
<path d="M0,0 L19,0 L30,1 L40,5 L45,11 L48,21 L48,28 L44,37 L36,44 L27,47 L4,48 L2,51 L1,74 L-1,79 L-7,79 L-10,73 L-11,30 L-10,3 L-7,1 Z M5,10 L2,13 L1,20 L1,28 L3,35 L5,37 L10,38 L24,37 L32,34 L36,28 L36,20 L31,11 L29,10 Z " fill="#000000" transform="translate(173,1130)"/>
<path d="M0,0 L13,0 L17,2 L31,1 L34,4 L35,53 L33,66 L28,75 L16,81 L-2,80 L-10,75 L-13,72 L-14,65 L-7,64 L1,70 L3,71 L15,71 L19,69 L22,65 L22,56 L16,57 L9,59 L0,58 L-11,51 L-16,43 L-17,38 L-17,20 L-11,8 L-4,2 Z M7,8 L1,11 L-6,19 L-7,22 L-7,37 L-3,45 L5,51 L14,50 L20,45 L23,39 L24,33 L24,23 L21,15 L14,9 Z " fill="#000000" transform="translate(250,1150)"/>
<path d="M0,0 L5,1 L50,0 L62,0 L68,1 L68,59 L61,60 L39,60 L-94,62 L-126,62 L-174,63 L-210,63 L-252,64 L-294,64 L-326,65 L-339,65 L-359,66 L-424,66 L-472,67 L-507,68 L-595,69 L-666,70 L-698,71 L-823,73 L-850,73 L-863,74 L-1007,76 L-1117,78 L-1138,78 L-1176,79 L-1217,80 L-1255,80 L-1255,22 L-1216,21 L-1191,20 L-1163,20 L-1088,18 L-1067,18 L-993,16 L-972,16 L-895,15 L-879,15 L-811,13 L-777,13 L-751,12 L-725,12 L-680,11 L-660,10 L-599,10 L-564,9 L-545,9 L-487,8 L-467,8 L-448,7 L-422,7 L-318,5 L-239,4 L-219,3 L-186,3 L-102,2 L-63,2 L-3,1 Z " fill="#000000" transform="translate(1255,1231)"/>
<path d="M0,0 Z " fill="#000000" transform="translate(292,1417)"/>
<path d="M0,0 L3,1 Z " fill="#000000" transform="translate(146,1477)"/>
</svg>
