<?xml version="1.0" encoding="UTF-8"?>
<!-- Generator: visioncortex VTracer 0.6.12 -->
<svg version="1.1" xmlns="http://www.w3.org/2000/svg" width="1140" height="1116">
<path d="M0,0 L1136,0 L1136,1021 L1135,1025 L1136,1026 L1136,1048 L1135,1055 L1135,1116 L-4,1116 L-4,401 L-3,391 L-2,326 L-2,288 L-1,174 L0,165 L0,118 L1,72 L1,9 Z M247,5 L242,7 L225,7 L204,6 L19,6 L16,9 L14,15 L13,71 L13,147 L12,156 L11,264 L11,306 L9,433 L8,475 L8,511 L7,591 L5,694 L5,715 L4,822 L3,859 L3,881 L2,946 L1,1021 L1,1100 L7,1105 L29,1106 L87,1106 L134,1107 L230,1107 L304,1108 L360,1108 L371,1109 L383,1108 L442,1109 L469,1109 L528,1110 L686,1110 L717,1111 L800,1112 L826,1113 L920,1113 L936,1114 L947,1113 L1012,1113 L1031,1114 L1113,1114 L1120,1111 L1121,1109 L1122,1100 L1123,1037 L1123,982 L1124,953 L1124,892 L1126,752 L1127,707 L1127,647 L1128,580 L1128,531 L1129,519 L1130,408 L1131,322 L1131,306 L1132,251 L1132,232 L1133,183 L1133,157 L1134,78 L1133,18 L1129,15 L1121,13 L945,13 L921,12 L919,11 L905,12 L851,12 L789,11 L726,11 L693,10 L655,10 L647,9 L618,10 L615,9 L578,9 L543,10 L519,10 L503,9 L457,9 L385,8 L333,8 L319,7 L259,7 Z " fill="#000000" transform="translate(4,0)"/>
<path d="M0,0 L8,0 L18,4 L27,11 L34,15 L49,23 L58,29 L68,34 L77,40 L98,51 L120,63 L133,71 L149,78 L162,86 L186,99 L209,112 L219,118 L232,125 L236,128 L249,133 L259,139 L264,142 L270,146 L281,152 L294,159 L304,165 L318,173 L330,179 L347,189 L362,197 L371,203 L384,210 L401,219 L408,224 L424,232 L435,238 L444,244 L455,250 L461,254 L472,260 L488,269 L499,275 L502,279 L502,287 L496,299 L492,303 L482,303 L478,301 L470,299 L462,295 L456,295 L453,298 L451,307 L450,330 L449,436 L448,467 L447,574 L446,653 L445,692 L443,738 L440,754 L434,758 L352,758 L348,757 L247,757 L206,756 L161,756 L105,755 L96,754 L92,755 L63,755 L34,754 L29,755 L10,755 L7,754 L-153,754 L-159,753 L-212,753 L-220,752 L-249,752 L-254,751 L-277,751 L-288,752 L-293,751 L-350,751 L-393,750 L-436,750 L-446,746 L-449,741 L-450,736 L-450,706 L-449,681 L-448,582 L-447,556 L-446,467 L-445,440 L-445,419 L-444,400 L-444,332 L-443,317 L-443,284 L-445,277 L-448,274 L-456,275 L-467,278 L-477,282 L-482,281 L-487,277 L-493,267 L-493,257 L-485,250 L-471,243 L-465,239 L-453,233 L-448,230 L-437,226 L-423,219 L-413,214 L-387,202 L-379,197 L-363,189 L-354,185 L-343,179 L-338,176 L-321,167 L-309,160 L-293,152 L-284,148 L-272,141 L-258,134 L-244,127 L-237,123 L-222,114 L-210,109 L-194,101 L-174,90 L-167,87 L-162,84 L-150,78 L-140,74 L-127,66 L-111,58 L-95,49 L-72,38 L-53,28 L-44,24 L-28,16 L-18,11 L-5,4 Z M7,42 L-3,45 L-24,55 L-39,62 L-47,67 L-59,72 L-67,76 L-73,78 L-77,81 L-91,88 L-104,95 L-114,101 L-128,107 L-139,113 L-156,121 L-170,129 L-183,134 L-200,143 L-210,148 L-215,152 L-232,159 L-248,168 L-275,181 L-285,187 L-301,195 L-317,203 L-331,209 L-335,212 L-351,220 L-364,226 L-381,235 L-387,239 L-394,242 L-403,248 L-406,251 L-409,316 L-410,501 L-412,575 L-412,696 L-410,705 L-405,709 L-398,711 L-384,712 L-343,713 L-328,713 L-288,712 L-283,709 L-280,705 L-279,698 L-279,633 L-278,619 L-277,584 L-277,553 L-275,542 L-270,536 L-265,533 L-256,534 L-249,537 L-245,542 L-241,556 L-236,561 L-234,562 L-222,564 L-193,564 L-190,563 L-178,563 L-169,564 L-120,564 L-105,562 L-102,561 L-82,561 L-77,560 L-48,560 L-42,558 L-25,558 L-5,557 L1,556 L21,555 L37,553 L48,552 L57,550 L75,550 L87,549 L94,547 L107,545 L115,542 L125,540 L130,536 L135,530 L148,527 L157,523 L174,519 L183,520 L189,522 L200,521 L207,518 L220,515 L232,510 L246,509 L258,507 L274,505 L288,505 L296,507 L303,512 L308,527 L316,534 L320,542 L321,546 L321,582 L320,597 L320,642 L319,663 L319,697 L320,709 L323,714 L330,717 L367,717 L396,716 L404,713 L406,710 L407,703 L408,656 L409,641 L409,624 L410,586 L410,549 L411,532 L411,492 L412,472 L412,398 L413,380 L413,342 L414,299 L414,276 L412,268 L406,261 L383,249 L370,242 L350,230 L339,223 L329,218 L313,209 L299,201 L286,194 L271,186 L260,180 L247,172 L229,162 L225,159 L211,152 L187,138 L179,135 L174,131 L147,117 L134,109 L112,97 L106,93 L100,89 L79,79 L65,71 L55,65 L40,57 L20,45 L13,42 Z M270,514 L257,516 L236,519 L226,523 L217,525 L201,533 L196,538 L194,542 L195,554 L198,560 L201,562 L209,562 L228,557 L249,547 L259,541 L279,530 L285,525 L286,518 L282,515 Z M170,529 L152,533 L140,537 L134,544 L134,553 L135,562 L135,597 L136,606 L136,634 L139,641 L144,644 L174,645 L180,645 L186,641 L188,635 L189,620 L189,598 L188,575 L185,539 L182,532 L176,529 Z M281,544 L264,554 L263,559 L264,560 L282,560 L287,555 L287,546 L285,544 Z M-163,654 L-182,655 L-211,655 L-237,656 L-243,661 L-244,670 L-245,702 L-242,709 L-240,711 L-230,713 L-170,713 L-160,714 L-39,714 L19,715 L25,716 L27,715 L117,715 L198,716 L266,716 L280,715 L284,711 L286,706 L286,677 L284,665 L279,660 L276,659 L234,659 L208,657 L136,657 L128,656 L2,656 L-56,655 L-143,655 Z " fill="#000000" transform="translate(571,219)"/>
<path d="M0,0 L3,1 L2,5 L-1,5 L-2,2 Z " fill="#000000" transform="translate(1106,773)"/>
</svg>
