<?xml version="1.0" encoding="UTF-8"?>
<!-- Generator: visioncortex VTracer 0.6.12 -->
<svg version="1.1" xmlns="http://www.w3.org/2000/svg" width="1014" height="999">
<path d="M0,0 L1013,0 L1014,4 L1014,999 L3,999 L2,934 L1,921 L0,919 Z M213,590 L200,594 L189,602 L183,608 L183,610 L181,610 L174,621 L171,634 L171,642 L175,658 L179,666 L190,679 L200,685 L203,687 L212,689 L226,689 L242,685 L251,680 L257,675 L261,669 L267,660 L271,644 L271,636 L268,622 L262,611 L251,599 L240,593 L231,591 Z M124,526 L122,528 L111,528 L99,529 L93,532 L90,540 L90,635 L91,756 L91,774 L92,815 L93,898 L94,909 L98,915 L114,917 L142,916 L155,915 L161,910 L162,906 L162,823 L163,790 L168,786 L214,786 L311,784 L397,784 L424,783 L471,783 L527,782 L600,781 L622,781 L740,780 L797,780 L805,779 L856,779 L860,781 L862,791 L863,811 L864,885 L865,898 L868,904 L871,906 L886,907 L917,907 L928,904 L931,897 L932,868 L931,823 L930,727 L930,660 L929,611 L927,591 L922,586 L920,585 L903,584 L894,585 L870,585 L864,589 L861,598 L860,653 L854,654 L839,654 L824,652 L802,650 L797,648 L787,648 L778,646 L772,644 L762,643 L749,639 L741,638 L728,634 L707,626 L694,621 L678,615 L669,614 L661,611 L647,609 L632,607 L603,608 L592,609 L571,616 L553,623 L536,627 L516,629 L493,627 L472,623 L458,618 L440,612 L431,609 L421,607 L410,604 L396,602 L382,599 L368,598 L359,597 L340,602 L329,610 L324,615 L317,622 L310,637 L309,641 L308,709 L305,712 L294,714 L220,714 L193,715 L167,715 L163,712 L161,696 L160,654 L160,618 L159,566 L158,538 L155,532 L151,529 L129,527 Z " fill="#000000" transform="translate(0,0)"/>
</svg>
