<?xml version="1.0" encoding="UTF-8"?>
<!-- Generator: visioncortex VTracer 0.6.12 -->
<svg version="1.1" xmlns="http://www.w3.org/2000/svg" width="1137" height="1110">
<path d="M0,0 L1135,0 L1135,938 L1134,943 L1135,960 L1135,971 L1134,974 L1134,981 L1135,983 L1134,1002 L1135,1011 L1134,1023 L1135,1025 L1135,1110 L-2,1110 L-2,99 L-1,93 L-1,32 L-2,27 L-1,26 L-1,13 L-2,8 Z M173,3 L135,4 L27,4 L19,6 L17,9 L16,15 L14,80 L14,102 L13,127 L12,213 L11,260 L11,276 L10,315 L9,437 L8,464 L8,497 L7,543 L6,640 L6,682 L5,716 L5,771 L4,853 L3,921 L1,1005 L1,1042 L2,1055 L2,1086 L3,1097 L6,1102 L10,1104 L80,1104 L184,1105 L193,1104 L230,1104 L312,1105 L384,1105 L394,1106 L401,1105 L455,1106 L471,1105 L477,1106 L684,1106 L739,1107 L768,1106 L996,1106 L1050,1107 L1117,1107 L1122,1101 L1122,953 L1123,913 L1124,842 L1125,811 L1125,771 L1126,713 L1127,461 L1128,389 L1130,205 L1130,192 L1131,173 L1132,124 L1132,43 L1131,39 L1129,17 L1125,8 L1122,6 L1099,6 L997,5 L964,4 L938,5 L930,4 L878,5 L853,5 L829,4 L795,4 L774,5 L765,4 L749,5 L714,5 L687,4 L653,5 L511,5 L503,4 L311,4 L265,3 L256,4 L249,3 L198,3 L192,4 Z " fill="#000000" transform="translate(2,0)"/>
<path d="M0,0 L25,0 L35,3 L42,6 L52,10 L63,21 L70,31 L77,41 L79,46 L81,58 L82,110 L84,131 L87,139 L94,143 L113,143 L152,142 L162,142 L166,141 L182,140 L192,139 L229,139 L258,138 L318,138 L331,136 L338,131 L340,131 L342,126 L343,123 L345,103 L346,72 L351,52 L359,40 L368,29 L379,19 L392,13 L399,12 L419,12 L440,18 L451,24 L460,30 L460,32 L464,34 L474,47 L479,58 L482,68 L483,90 L483,140 L482,179 L482,208 L480,254 L482,276 L483,295 L487,303 L495,313 L500,318 L508,327 L516,334 L522,342 L530,349 L541,358 L548,365 L559,373 L568,381 L578,388 L597,397 L609,402 L614,405 L630,411 L638,413 L658,420 L691,431 L701,434 L715,440 L735,447 L747,452 L761,460 L778,468 L788,474 L798,480 L806,486 L816,494 L822,498 L829,506 L839,515 L849,528 L857,538 L864,547 L871,560 L875,568 L879,578 L883,593 L884,600 L884,662 L883,669 L883,701 L884,707 L884,722 L883,728 L883,860 L881,883 L876,898 L874,906 L866,922 L862,929 L856,934 L849,942 L839,948 L829,952 L822,953 L805,953 L783,951 L767,943 L757,937 L750,930 L740,911 L737,900 L736,769 L733,755 L730,750 L721,747 L706,746 L664,746 L662,745 L576,745 L540,746 L533,746 L527,744 L503,745 L466,747 L458,750 L453,756 L451,761 L450,774 L450,808 L449,860 L448,876 L445,891 L440,903 L427,918 L418,927 L410,931 L398,937 L393,939 L376,940 L360,940 L345,938 L327,932 L320,927 L315,922 L306,914 L299,901 L295,887 L294,868 L294,746 L291,736 L284,729 L279,723 L262,710 L251,701 L245,697 L237,689 L231,686 L224,679 L214,671 L202,663 L192,655 L184,649 L170,640 L158,631 L153,626 L148,622 L142,618 L137,614 L134,611 L119,602 L109,596 L95,588 L90,585 L81,585 L77,592 L76,595 L75,630 L75,655 L74,680 L72,692 L63,708 L54,717 L39,726 L28,732 L14,736 L-12,736 L-27,732 L-37,726 L-50,714 L-55,706 L-61,693 L-63,680 L-65,651 L-64,525 L-64,488 L-63,484 L-62,451 L-62,418 L-61,364 L-61,323 L-60,319 L-60,253 L-59,238 L-60,226 L-60,117 L-59,74 L-58,54 L-53,38 L-44,24 L-38,17 L-27,8 L-16,3 Z M289,285 L283,286 L250,286 L224,289 L220,290 L205,291 L200,293 L191,295 L183,299 L175,301 L163,304 L148,312 L136,317 L115,328 L107,332 L98,339 L89,347 L88,355 L93,361 L109,372 L119,378 L130,384 L147,393 L157,399 L176,409 L182,412 L195,413 L211,407 L222,403 L229,400 L237,398 L246,395 L258,391 L275,388 L292,385 L306,381 L331,379 L343,377 L367,375 L394,375 L404,374 L453,376 L460,377 L476,377 L485,378 L491,374 L490,367 L481,357 L470,348 L463,341 L447,332 L436,324 L428,320 L412,312 L396,307 L389,304 L379,303 L367,298 L349,295 L336,292 L315,289 L304,285 Z M332,711 L333,714 L335,714 L334,711 Z " fill="#000000" transform="translate(160,69)"/>
</svg>
