<?xml version="1.0" encoding="UTF-8"?>
<!-- Generator: visioncortex VTracer 0.6.12 -->
<svg version="1.1" xmlns="http://www.w3.org/2000/svg" width="1146" height="1191">
<path d="M0,0 L132,0 L167,1 L241,0 L313,1 L418,1 L426,2 L436,1 L461,1 L532,2 L679,2 L682,3 L766,3 L862,4 L923,4 L962,5 L1002,5 L1029,6 L1029,1123 L985,1124 L980,1123 L846,1123 L837,1122 L830,1123 L828,1122 L788,1122 L746,1121 L709,1121 L697,1120 L694,1118 L689,1121 L605,1121 L597,1120 L586,1120 L578,1121 L492,1121 L484,1120 L446,1120 L417,1121 L411,1119 L404,1120 L389,1120 L363,1119 L311,1118 L285,1119 L268,1118 L194,1118 L182,1117 L175,1118 L164,1117 L97,1117 L36,1116 L1,1115 L-5,1114 L-7,1115 L-45,1115 L-48,1110 L-49,1043 L-49,792 L-48,569 L-49,539 L-49,383 L-48,211 L-47,205 L-48,201 L-47,117 L-47,102 L-46,70 L-46,51 L-45,4 L-43,2 L-19,2 L-17,1 L-3,1 Z M124,39 L121,40 L86,40 L80,41 L64,40 L48,41 L30,47 L16,56 L4,67 L0,72 L-6,85 L-9,96 L-11,124 L-12,196 L-12,546 L-11,598 L-11,675 L-10,707 L-11,741 L-10,769 L-10,985 L-9,1016 L-5,1033 L3,1048 L12,1059 L16,1064 L26,1069 L38,1075 L56,1078 L74,1079 L96,1079 L152,1080 L164,1080 L172,1081 L179,1080 L207,1080 L214,1081 L280,1081 L289,1082 L311,1081 L349,1081 L374,1082 L404,1081 L413,1082 L464,1082 L508,1083 L535,1082 L641,1082 L651,1081 L673,1081 L716,1082 L819,1082 L825,1083 L866,1083 L876,1082 L886,1083 L924,1083 L928,1084 L947,1084 L952,1082 L967,1079 L980,1074 L992,1067 L998,1060 L1003,1055 L1010,1046 L1017,1027 L1019,1012 L1020,999 L1020,832 L1021,622 L1021,582 L1022,494 L1022,424 L1023,259 L1023,181 L1022,159 L1022,117 L1019,98 L1015,88 L1006,73 L999,67 L994,62 L988,57 L980,53 L970,49 L954,47 L942,47 L931,46 L905,46 L900,47 L874,47 L871,46 L841,46 L811,45 L762,45 L760,44 L649,44 L642,43 L612,43 L601,44 L595,43 L590,44 L580,42 L574,43 L552,42 L405,42 L365,41 L359,40 L355,42 L347,42 L343,41 L284,41 L236,40 L134,40 L131,39 Z " fill="#000000" transform="translate(117,35)"/>
<path d="M0,0 L3,0 L3,3 L0,3 Z " fill="#000000" transform="translate(36,120)"/>
<path d="M0,0 L5,1 L18,11 L25,18 L38,28 L46,35 L51,40 L63,48 L73,57 L84,66 L97,77 L105,83 L110,88 L116,93 L122,97 L132,106 L144,115 L157,126 L166,133 L177,142 L189,151 L197,159 L205,165 L217,175 L225,182 L235,190 L241,193 L244,196 L244,198 L248,200 L256,207 L261,211 L274,221 L283,229 L291,235 L300,243 L311,252 L317,256 L328,265 L341,276 L344,281 L344,303 L345,362 L345,557 L346,618 L346,672 L345,688 L340,693 L334,694 L316,692 L278,692 L270,693 L266,692 L38,692 L34,691 L-87,691 L-122,690 L-162,690 L-168,691 L-175,689 L-187,689 L-196,690 L-201,689 L-214,690 L-247,689 L-314,689 L-321,688 L-330,688 L-334,684 L-335,654 L-335,475 L-336,405 L-336,282 L-333,274 L-327,267 L-321,263 L-313,256 L-301,247 L-291,238 L-282,232 L-277,227 L-266,218 L-264,218 L-262,214 L-252,206 L-239,195 L-226,185 L-218,178 L-206,169 L-203,168 L-201,164 L-192,157 L-178,145 L-169,138 L-167,138 L-167,136 L-159,130 L-146,119 L-137,111 L-129,105 L-121,98 L-111,91 L-104,85 L-93,76 L-82,67 L-69,57 L-60,49 L-49,40 L-38,31 L-28,23 L-18,15 L-7,6 Z M1,32 L-11,41 L-16,46 L-20,50 L-26,53 L-37,63 L-46,70 L-49,73 L-58,80 L-64,84 L-74,93 L-80,97 L-88,104 L-98,112 L-106,119 L-112,123 L-121,130 L-125,135 L-130,138 L-140,145 L-149,153 L-160,162 L-169,169 L-177,176 L-185,183 L-194,190 L-204,199 L-212,205 L-220,212 L-233,222 L-246,233 L-256,241 L-261,246 L-266,249 L-276,258 L-287,267 L-297,275 L-307,284 L-310,289 L-311,350 L-311,444 L-310,600 L-310,644 L-309,658 L-306,663 L-300,665 L-271,665 L-265,666 L-251,665 L-239,666 L-224,667 L-217,666 L-196,667 L-44,667 L14,668 L209,668 L230,669 L277,669 L312,668 L317,665 L319,658 L320,651 L320,340 L319,295 L316,286 L310,282 L302,274 L295,269 L291,265 L282,258 L272,250 L261,242 L254,236 L249,231 L238,223 L227,213 L216,206 L211,201 L200,192 L195,189 L189,181 L180,174 L171,167 L162,161 L156,154 L148,149 L144,144 L134,138 L122,127 L110,118 L105,113 L100,109 L95,106 L86,98 L78,91 L70,85 L58,74 L50,69 L42,62 L34,55 L30,50 L20,44 L12,37 L6,34 Z M-115,111 L-116,115 L-112,114 L-113,111 Z M-122,116 L-124,120 L-121,120 L-119,116 Z " fill="#000000" transform="translate(505,155)"/>
<path d="M0,0 L11,0 L16,5 L19,10 L21,15 L22,33 L21,51 L17,61 L14,66 L9,69 L2,69 L-5,65 L-9,59 L-11,47 L-11,24 L-9,10 L-5,4 Z M5,8 L1,10 L-1,18 L-2,30 L-2,41 L0,55 L3,60 L8,59 L11,50 L12,46 L12,28 L11,14 L9,9 Z " fill="#000000" transform="translate(420,525)"/>
<path d="M0,0 L21,0 L24,2 L23,7 L19,10 L17,10 L16,14 L15,53 L14,65 L12,68 L7,67 L6,65 L5,46 L5,18 L2,10 L-3,6 L-2,2 Z " fill="#000000" transform="translate(488,526)"/>
<path d="M0,0 L4,1 L5,4 L5,63 L3,67 L-2,67 L-5,61 L-6,42 L-9,39 L-13,41 L-15,61 L-17,67 L-20,68 L-23,66 L-24,63 L-25,33 L-25,16 L-24,3 L-22,1 L-17,2 L-16,3 L-13,24 L-11,26 L-6,25 L-5,8 L-2,1 Z " fill="#000000" transform="translate(365,526)"/>
<path d="M0,0 L14,0 L21,2 L20,7 L15,8 L9,10 L8,12 L8,23 L10,27 L16,31 L15,36 L9,40 L7,47 L8,56 L10,59 L20,61 L21,66 L19,68 L0,68 L-3,63 L-4,42 L-4,21 L-3,7 L-1,1 Z " fill="#000000" transform="translate(562,527)"/>
<path d="M0,0 L4,1 L5,2 L6,18 L7,52 L10,58 L19,60 L20,61 L20,66 L16,68 L3,68 L-2,65 L-4,60 L-4,25 L-3,4 Z " fill="#000000" transform="translate(640,528)"/>
<path d="M0,0 L9,1 L19,6 L25,14 L35,21 L42,29 L51,48 L52,56 L50,71 L46,83 L44,92 L37,108 L33,114 L25,130 L19,140 L12,151 L5,161 L-3,172 L-12,183 L-19,191 L-26,199 L-31,204 L-38,213 L-50,226 L-58,233 L-71,245 L-79,252 L-84,255 L-89,260 L-97,267 L-108,275 L-116,282 L-129,291 L-139,298 L-148,304 L-162,313 L-173,318 L-187,325 L-208,334 L-221,338 L-230,341 L-235,344 L-242,344 L-251,347 L-257,349 L-276,352 L-290,353 L-300,353 L-314,346 L-327,332 L-331,326 L-335,316 L-343,306 L-344,300 L-344,290 L-340,269 L-336,265 L-324,261 L-312,256 L-294,251 L-290,249 L-275,246 L-263,241 L-252,238 L-249,237 L-241,237 L-233,243 L-224,254 L-220,261 L-220,270 L-221,274 L-221,283 L-219,285 L-212,285 L-196,276 L-191,271 L-175,259 L-167,252 L-165,252 L-163,248 L-153,240 L-142,231 L-130,220 L-119,211 L-109,202 L-100,195 L-90,187 L-85,183 L-72,173 L-67,167 L-58,162 L-56,162 L-54,158 L-48,154 L-38,144 L-35,141 L-30,135 L-26,126 L-28,120 L-34,117 L-48,115 L-56,110 L-66,96 L-67,93 L-67,86 L-60,72 L-52,57 L-48,51 L-45,45 L-40,35 L-35,26 L-25,9 L-20,2 L-18,1 L-5,1 Z M-11,77 L-13,81 L-10,84 L-5,83 L-6,79 Z " fill="#000000" transform="translate(1030,710)"/>
<path d="M0,0 L7,0 L8,4 L4,9 L-3,9 L-5,5 L-3,1 Z " fill="#000000" transform="translate(847,1098)"/>
</svg>
