<?xml version="1.0" encoding="UTF-8"?>
<!-- Generator: visioncortex VTracer 0.6.12 -->
<svg version="1.1" xmlns="http://www.w3.org/2000/svg" width="990" height="999">
<path d="M0,0 L51,0 L48,3 L16,6 L-5,13 L-22,22 L-36,32 L-48,41 L-56,50 L-63,59 L-69,68 L-74,77 L-78,91 L-81,92 L-81,68 L-79,68 L-77,63 L-70,52 L-63,44 L-56,36 L-48,28 L-34,19 L-24,12 L-8,4 L-3,2 L0,2 Z " fill="#000000" transform="translate(81,0)"/>
<path d="M0,0 L21,0 L21,1 L14,2 L1,2 Z " fill="#000000" transform="translate(137,0)"/>
<path d="M0,0 L3,1 Z " fill="#000000" transform="translate(171,0)"/>
<path d="M0,0 L22,0 L33,8 L42,15 L51,24 L57,29 L62,34 L72,48 L77,58 L80,67 L80,90 L78,90 L74,75 L70,62 L60,44 L52,33 L45,26 L35,19 L25,12 L12,5 L1,2 Z " fill="#000000" transform="translate(910,0)"/>
<path d="M0,0 L21,1 L41,5 L51,8 L71,16 L81,21 L86,25 L101,35 L114,45 L121,52 L128,60 L134,67 L143,80 L153,98 L163,123 L167,143 L169,163 L169,174 L168,192 L166,207 L164,212 L162,220 L156,237 L148,255 L142,265 L132,279 L123,288 L116,296 L108,303 L99,310 L90,316 L86,319 L81,322 L67,329 L48,336 L41,338 L25,341 L12,342 L3,343 L-19,342 L-28,340 L-42,338 L-60,332 L-82,322 L-98,312 L-111,302 L-126,288 L-132,281 L-142,268 L-146,263 L-154,247 L-158,238 L-161,229 L-165,219 L-170,194 L-170,152 L-166,130 L-158,106 L-144,79 L-137,70 L-129,60 L-109,40 L-102,34 L-97,31 L-88,25 L-71,16 L-52,8 L-26,2 Z M-13,41 L-31,44 L-55,52 L-72,62 L-83,70 L-96,82 L-104,91 L-111,102 L-118,113 L-123,126 L-128,140 L-130,151 L-131,162 L-131,186 L-126,210 L-118,230 L-110,244 L-102,255 L-97,260 L-89,269 L-78,278 L-67,286 L-52,293 L-38,298 L-25,301 L-6,303 L4,303 L24,301 L42,296 L54,291 L68,284 L80,276 L85,270 L93,263 L101,255 L110,241 L118,227 L124,211 L129,190 L130,177 L130,164 L127,145 L124,133 L118,118 L106,95 L101,90 L92,80 L87,74 L82,69 L71,61 L55,52 L39,46 L26,43 L14,41 Z " fill="#000000" transform="translate(464,101)"/>
<path d="M0,0 L22,0 L39,5 L49,11 L59,18 L65,23 L74,36 L78,44 L82,60 L82,69 L80,83 L77,93 L69,104 L65,109 L51,120 L43,126 L34,135 L32,143 L31,157 L31,167 L29,174 L25,177 L-3,177 L-7,174 L-8,170 L-9,153 L-8,125 L-6,117 L-1,108 L13,97 L23,90 L32,83 L36,78 L39,71 L39,59 L35,51 L30,46 L21,42 L18,41 L0,41 L-9,45 L-17,51 L-22,61 L-25,87 L-28,90 L-34,91 L-59,91 L-64,87 L-64,67 L-61,52 L-57,42 L-50,29 L-36,14 L-20,4 L-11,1 Z " fill="#000000" transform="translate(454,158)"/>
<path d="M0,0 L29,0 L33,3 L34,10 L34,36 L30,41 L27,42 L-2,42 L-5,39 L-6,29 L-6,13 L-5,4 L-3,1 Z " fill="#000000" transform="translate(452,346)"/>
<path d="M0,0 L10,0 L20,2 L34,11 L38,17 L42,26 L44,32 L45,48 L46,120 L48,259 L50,264 L53,266 L81,266 L114,265 L206,264 L266,264 L274,263 L295,263 L307,262 L438,261 L480,261 L510,260 L513,259 L520,259 L522,260 L535,260 L556,259 L604,259 L628,258 L630,257 L631,249 L631,202 L630,137 L631,119 L633,110 L640,99 L651,90 L664,85 L676,86 L684,89 L693,95 L701,104 L704,111 L707,132 L707,159 L709,313 L710,363 L710,379 L708,384 L709,389 L710,391 L710,456 L708,459 L705,460 L639,461 L635,456 L634,413 L633,368 L631,354 L628,352 L603,352 L510,353 L467,354 L427,354 L418,355 L334,355 L282,356 L264,357 L207,357 L170,358 L149,358 L76,359 L58,359 L51,362 L49,372 L50,390 L50,464 L45,469 L-19,470 L-24,468 L-26,461 L-27,422 L-27,406 L-28,360 L-29,250 L-31,157 L-31,133 L-32,43 L-31,28 L-25,16 L-22,12 L-20,12 L-18,8 L-8,2 Z " fill="#000000" transform="translate(130,410)"/>
<path d="M0,0 L19,0 L25,3 L33,5 L46,12 L58,23 L66,34 L71,44 L75,55 L77,66 L78,68 L82,68 L84,62 L95,51 L101,48 L111,46 L120,47 L130,51 L137,57 L143,66 L146,75 L148,129 L148,173 L145,185 L142,192 L135,200 L123,206 L110,208 L84,208 L43,209 L-37,209 L-49,203 L-55,198 L-61,188 L-63,183 L-63,168 L-59,158 L-51,148 L-39,143 L-17,141 L-15,139 L-15,137 L-24,134 L-39,124 L-48,115 L-54,106 L-59,97 L-63,86 L-64,80 L-64,59 L-60,44 L-52,29 L-44,21 L-38,14 L-27,7 L-9,1 Z M74,88 L67,103 L59,114 L49,124 L38,131 L28,137 L28,140 L46,142 L57,142 L75,141 L79,138 L80,133 L80,108 L79,95 L78,88 Z " fill="#000000" transform="translate(250,455)"/>
<path d="M0,0 L109,0 L122,2 L139,10 L150,18 L158,28 L164,37 L169,50 L171,61 L172,114 L172,157 L170,160 L167,161 L118,162 L96,163 L56,163 L-18,164 L-54,164 L-125,165 L-143,166 L-156,166 L-166,165 L-169,162 L-171,153 L-172,86 L-173,31 L-172,7 L-169,3 L-127,2 L-106,2 L-65,1 Z M159,92 L159,96 L162,96 L162,92 Z " fill="#000000" transform="translate(576,497)"/>
<path d="M0,0 L2,2 L0,4 Z " fill="#000000" transform="translate(0,563)"/>
<path d="M0,0 L2,2 L2,14 L1,26 L0,26 Z " fill="#000000" transform="translate(0,574)"/>
<path d="M0,0 L1,0 L2,5 L2,33 L0,35 Z " fill="#000000" transform="translate(0,610)"/>
<path d="M0,0 L1,0 L1,5 L0,5 Z " fill="#000000" transform="translate(0,648)"/>
<path d="M0,0 L2,4 L0,8 Z " fill="#000000" transform="translate(0,659)"/>
<path d="M0,0 L2,2 L3,74 L3,104 L4,179 L8,214 L11,227 L18,247 L23,259 L32,273 L44,286 L56,295 L66,301 L76,306 L89,310 L90,312 L67,312 L52,303 L36,290 L24,278 L16,265 L12,258 L5,237 L2,226 L2,223 L0,223 Z " fill="#000000" transform="translate(0,687)"/>
<path d="M0,0 L3,0 L2,4 L-1,3 Z " fill="#000000" transform="translate(171,903)"/>
<path d="M0,0 L2,0 L2,20 L-4,29 L-12,40 L-27,55 L-41,65 L-60,76 L-74,81 L-75,82 L-313,82 L-311,80 L-278,79 L-221,79 L-148,78 L-104,77 L-86,75 L-65,69 L-45,58 L-34,50 L-17,33 L-12,26 L-8,19 L-5,15 Z " fill="#000000" transform="translate(988,917)"/>
<path d="M0,0 L6,0 L7,2 L-5,2 L-5,1 Z " fill="#000000" transform="translate(632,997)"/>
<path d="M0,0 L9,0 L11,2 L-2,2 Z " fill="#000000" transform="translate(661,997)"/>
<path d="M0,0 L6,0 L6,1 L0,1 Z " fill="#000000" transform="translate(521,998)"/>
<path d="M0,0 L5,1 L5,2 L-5,2 L-5,1 Z " fill="#000000" transform="translate(582,997)"/>
<path d="M0,0 L2,1 Z " fill="#000000" transform="translate(603,998)"/>
<path d="M0,0 L10,0 L10,1 L0,1 Z " fill="#000000" transform="translate(613,998)"/>
</svg>
