<?xml version="1.0" encoding="UTF-8"?>
<!-- Generator: visioncortex VTracer 0.6.12 -->
<svg version="1.1" xmlns="http://www.w3.org/2000/svg" width="888" height="1188">
<path d="M0,0 L32,1 L172,1 L289,2 L297,1 L443,1 L455,2 L570,2 L636,3 L665,3 L670,2 L678,2 L684,3 L713,3 L718,0 L721,2 L721,26 L720,42 L719,47 L716,90 L715,169 L714,230 L714,435 L713,490 L712,499 L713,503 L713,624 L712,687 L712,713 L711,736 L712,748 L712,812 L711,846 L712,877 L711,911 L711,1015 L710,1069 L709,1095 L708,1108 L702,1116 L700,1118 L677,1118 L658,1117 L642,1116 L615,1115 L528,1113 L453,1113 L408,1112 L382,1112 L376,1111 L369,1112 L351,1111 L326,1111 L319,1110 L294,1111 L270,1110 L196,1109 L128,1109 L120,1108 L117,1109 L103,1109 L94,1108 L89,1109 L54,1109 L41,1108 L-69,1108 L-79,1107 L-83,1110 L-88,1110 L-89,1109 L-89,1102 L-87,1096 L-86,1087 L-86,1033 L-85,1017 L-82,903 L-82,837 L-81,802 L-81,768 L-80,701 L-80,676 L-79,640 L-79,479 L-78,454 L-78,286 L-77,225 L-76,218 L-77,196 L-76,188 L-77,185 L-78,162 L-79,158 L-79,148 L-78,145 L-78,96 L-79,92 L-78,57 L-77,43 L-77,13 L-75,5 L-69,1 L-60,2 L-23,1 L-5,1 Z M322,288 L319,292 L250,292 L240,291 L225,291 L219,290 L154,290 L120,289 L89,289 L73,290 L67,293 L64,300 L63,392 L62,446 L63,474 L62,512 L62,593 L63,658 L62,674 L62,766 L61,795 L62,805 L65,810 L72,811 L79,810 L100,810 L115,811 L156,811 L159,812 L207,812 L246,813 L254,813 L257,815 L271,814 L309,814 L318,815 L342,815 L402,816 L461,816 L559,818 L567,813 L569,800 L570,786 L570,684 L571,667 L572,595 L573,589 L573,565 L572,558 L572,498 L573,477 L573,466 L574,449 L573,445 L572,413 L573,379 L572,369 L573,366 L573,311 L571,299 L567,296 L552,295 L505,295 L488,294 L458,294 L451,293 L444,294 L417,293 L391,293 L381,291 L373,291 L369,292 L327,292 L324,288 Z M-76,948 Z " fill="#000000" transform="translate(134,37)"/>
<path d="M0,0 L23,1 L39,3 L49,9 L54,14 L60,21 L64,30 L66,38 L67,56 L72,59 L85,61 L95,64 L140,69 L157,72 L179,78 L197,82 L215,89 L225,92 L232,95 L240,95 L253,87 L268,81 L278,77 L292,72 L300,71 L311,71 L325,74 L335,80 L341,88 L344,95 L344,157 L342,170 L339,173 L330,173 L326,168 L323,156 L322,155 L313,156 L305,159 L284,166 L263,174 L248,179 L232,185 L219,191 L216,198 L213,215 L209,219 L207,220 L199,220 L194,216 L192,211 L191,190 L189,185 L164,177 L141,171 L124,167 L109,163 L97,161 L77,154 L70,153 L59,153 L52,149 L43,146 L29,142 L21,140 L13,137 L1,135 L-2,133 L-12,131 L-31,125 L-47,121 L-59,121 L-63,139 L-67,146 L-73,147 L-78,142 L-78,102 L-77,97 L-75,54 L-70,43 L-66,36 L-57,26 L-48,19 L-30,9 L-16,4 Z M14,50 L-3,54 L-20,62 L-28,66 L-33,75 L-33,81 L-29,87 L-20,93 L-9,99 L0,100 L3,97 L3,86 L5,81 L13,74 L23,69 L31,67 L43,62 L46,59 L46,54 L41,50 Z M55,67 L43,70 L36,76 L29,79 L20,80 L16,84 L16,89 L23,97 L28,102 L33,105 L41,111 L49,114 L66,117 L77,121 L88,124 L106,128 L110,130 L126,133 L130,135 L139,137 L152,140 L161,143 L185,149 L195,152 L202,151 L206,142 L211,130 L216,121 L219,116 L219,110 L214,105 L195,96 L188,93 L180,91 L170,87 L153,83 L147,81 L139,80 L136,78 L105,73 L88,70 L75,69 L71,68 Z " fill="#000000" transform="translate(327,465)"/>
<path d="M0,0 L4,0 L3,3 L0,2 Z " fill="#000000" transform="translate(225,514)"/>
</svg>
