<?xml version="1.0" encoding="UTF-8"?>
<!-- Generator: visioncortex VTracer 0.6.12 -->
<svg version="1.1" xmlns="http://www.w3.org/2000/svg" width="717" height="840">
<path d="M0,0 L63,0 L69,9 L80,24 L89,35 L97,46 L105,57 L113,67 L123,81 L128,87 L140,103 L146,110 L151,116 L164,119 L177,121 L190,126 L196,128 L206,124 L215,122 L224,119 L240,118 L254,121 L265,125 L276,131 L284,137 L292,143 L299,153 L305,155 L312,155 L327,159 L339,164 L351,173 L357,178 L366,189 L371,199 L376,214 L378,229 L378,238 L376,252 L374,256 L372,264 L373,271 L382,281 L387,287 L394,297 L398,303 L403,316 L405,326 L405,346 L403,358 L397,371 L391,382 L376,398 L371,404 L370,434 L368,447 L363,460 L356,471 L341,486 L333,493 L328,510 L328,530 L329,583 L330,615 L331,630 L331,648 L332,674 L334,739 L335,759 L335,791 L332,794 L303,794 L286,795 L246,795 L242,791 L240,755 L240,740 L238,710 L236,650 L233,565 L233,510 L237,508 L242,513 L248,518 L258,523 L263,524 L282,524 L290,522 L299,517 L304,514 L312,501 L315,481 L320,476 L331,470 L341,460 L348,449 L352,437 L353,431 L353,418 L350,405 L347,397 L346,390 L360,383 L371,373 L378,362 L383,351 L383,326 L378,311 L371,300 L367,295 L356,288 L340,282 L338,280 L339,274 L348,261 L353,251 L357,232 L356,220 L349,203 L338,190 L327,181 L316,177 L309,175 L289,174 L281,164 L270,152 L261,147 L253,143 L243,141 L223,142 L209,147 L201,152 L195,151 L183,145 L176,142 L154,139 L147,139 L140,141 L127,143 L115,149 L107,155 L98,165 L91,176 L87,183 L84,192 L79,201 L69,207 L57,211 L46,217 L34,228 L27,238 L23,245 L20,254 L18,265 L18,287 L24,308 L31,320 L39,330 L50,338 L56,343 L54,349 L45,359 L39,369 L34,382 L32,389 L32,406 L33,415 L38,427 L46,441 L51,446 L51,448 L55,450 L68,458 L83,463 L102,464 L113,461 L118,462 L122,475 L124,482 L129,491 L136,501 L144,509 L155,515 L162,519 L168,521 L181,523 L186,527 L188,534 L189,546 L191,623 L193,675 L194,682 L196,721 L197,760 L198,793 L196,797 L184,796 L145,797 L122,798 L33,800 L7,801 L-6,801 L-27,802 L-54,802 L-115,804 L-160,805 L-190,806 L-204,806 L-208,807 L-218,807 L-221,805 L-223,790 L-224,763 L-224,742 L-225,735 L-226,682 L-227,668 L-228,621 L-229,595 L-230,577 L-231,522 L-232,496 L-233,482 L-233,466 L-234,444 L-235,403 L-237,385 L-240,379 L-253,367 L-254,365 L-254,359 L-248,351 L-242,343 L-238,336 L-233,331 L-228,325 L-224,317 L-216,306 L-206,291 L-200,283 L-194,274 L-185,263 L-179,253 L-172,244 L-162,230 L-156,222 L-150,213 L-140,201 L-135,192 L-127,181 L-119,170 L-108,154 L-101,144 L-93,133 L-85,122 L-76,108 L-72,104 L-69,98 L-57,83 L-49,70 L-42,61 L-34,50 L-25,37 L-20,29 L-16,24 L-8,13 L-4,8 Z M-57,318 L-65,320 L-82,320 L-111,321 L-122,322 L-124,324 L-125,329 L-125,359 L-124,375 L-123,423 L-121,446 L-119,451 L-113,453 L-101,453 L-86,452 L-67,452 L-30,450 L-11,450 L-8,446 L-7,425 L-8,390 L-9,366 L-10,355 L-11,332 L-13,322 L-17,318 Z M-30,548 L-38,549 L-54,549 L-91,551 L-114,553 L-117,556 L-118,560 L-118,585 L-116,636 L-116,660 L-114,680 L-111,684 L-105,685 L-60,684 L-41,684 L-29,683 L-9,683 L0,680 L1,679 L2,666 L1,616 L-1,584 L-2,559 L-4,550 L-5,549 Z " fill="#000000" transform="translate(284,0)"/>
</svg>
