<?xml version="1.0" encoding="UTF-8"?>
<!-- Generator: visioncortex VTracer 0.6.12 -->
<svg version="1.1" xmlns="http://www.w3.org/2000/svg" width="756" height="876">
<path d="M0,0 L6,2 L10,7 L15,10 L21,18 L44,41 L48,46 L53,51 L60,58 L65,63 L73,73 L75,77 L80,79 L94,94 L102,100 L112,112 L117,115 L123,124 L135,135 L142,143 L147,148 L151,153 L156,157 L161,162 L174,176 L178,181 L180,182 L180,184 L184,186 L190,193 L196,198 L196,200 L200,202 L205,207 L209,213 L209,215 L213,217 L217,221 L217,223 L219,223 L224,228 L240,245 L252,257 L259,263 L266,271 L274,280 L274,282 L278,284 L279,287 L283,289 L290,297 L300,307 L304,312 L309,317 L325,333 L330,339 L330,341 L334,343 L339,346 L343,351 L352,357 L354,365 L354,521 L353,613 L354,789 L353,802 L353,813 L349,819 L348,820 L314,819 L279,820 L231,820 L194,819 L171,820 L106,820 L59,819 L-59,819 L-85,818 L-126,818 L-143,819 L-158,819 L-171,818 L-198,819 L-282,819 L-288,818 L-297,818 L-301,819 L-309,818 L-342,818 L-344,814 L-345,796 L-344,789 L-344,691 L-345,655 L-345,633 L-346,624 L-346,393 L-345,369 L-345,355 L-341,349 L-335,341 L-330,336 L-321,328 L-316,323 L-307,313 L-302,307 L-297,305 L-295,301 L-287,292 L-285,292 L-285,290 L-280,286 L-277,280 L-270,274 L-263,265 L-255,258 L-251,253 L-245,248 L-238,240 L-233,235 L-231,235 L-229,231 L-219,221 L-212,213 L-201,202 L-197,197 L-192,192 L-186,187 L-182,182 L-174,175 L-167,167 L-162,161 L-156,156 L-149,148 L-141,141 L-136,135 L-129,130 L-128,128 L-126,128 L-124,124 L-110,109 L-108,109 L-107,106 L-100,100 L-95,94 L-93,94 L-91,90 L-82,82 L-78,77 L-73,73 L-68,67 L-65,64 L-63,64 L-62,61 L-57,56 L-51,51 L-44,42 L-39,37 L-24,23 L-17,16 L-15,16 L-13,12 L-2,1 Z M-36,234 L-41,238 L-50,252 L-56,262 L-55,267 L-47,267 L-42,265 L-27,263 L-23,261 L-10,260 L0,257 L10,256 L15,254 L31,251 L36,249 L36,243 L30,236 L27,234 Z M36,265 L26,268 L13,269 L-2,273 L-22,277 L-35,279 L-39,281 L-48,282 L-54,285 L-56,287 L-56,292 L-53,294 L-45,293 L-23,290 L-17,287 L1,285 L8,283 L17,282 L21,280 L39,278 L43,274 L43,267 L41,265 Z M34,294 L23,295 L20,296 L9,297 L-14,303 L-27,305 L-34,307 L-47,309 L-54,311 L-55,316 L-53,318 L-45,319 L-37,317 L-28,316 L-21,314 L0,311 L12,307 L22,307 L37,304 L42,301 L43,297 L41,294 Z M38,317 L27,318 L22,320 L6,322 L-4,325 L-21,327 L-27,329 L-41,331 L-53,334 L-55,336 L-55,343 L-53,345 L-45,344 L-42,343 L-26,341 L-6,337 L8,335 L11,334 L22,333 L26,331 L38,329 L43,325 L44,320 L39,317 Z M38,343 L29,345 L17,346 L14,348 L-1,350 L-26,355 L-44,360 L-52,361 L-56,363 L-58,371 L-60,380 L-74,387 L-84,391 L-92,396 L-99,399 L-114,409 L-114,411 L-119,413 L-125,417 L-127,421 L-131,423 L-141,434 L-141,436 L-144,437 L-151,446 L-157,455 L-165,469 L-169,475 L-173,486 L-180,506 L-184,526 L-185,536 L-185,568 L-182,589 L-177,608 L-173,621 L-169,629 L-162,643 L-154,656 L-143,670 L-132,683 L-127,688 L-116,697 L-106,705 L-94,713 L-88,716 L-81,719 L-71,724 L-68,727 L-53,731 L-44,734 L-32,736 L-20,739 L-3,740 L12,740 L16,739 L27,739 L40,737 L58,732 L66,730 L83,722 L94,714 L102,710 L112,701 L118,696 L118,694 L120,694 L124,689 L129,684 L134,679 L145,667 L153,653 L159,643 L170,616 L174,597 L177,582 L179,550 L175,524 L172,511 L163,486 L155,470 L150,461 L140,448 L132,437 L127,432 L119,423 L114,418 L100,408 L95,404 L72,391 L56,383 L48,379 L45,372 L44,353 L43,345 L41,343 Z " fill="#000000" transform="translate(376,30)"/>
</svg>
