<?xml version="1.0" encoding="UTF-8"?>
<!-- Generator: visioncortex VTracer 0.6.12 -->
<svg version="1.1" xmlns="http://www.w3.org/2000/svg" width="1047" height="729">
<path d="M0,0 L11,1 L11,117 L8,120 L-1,133 L-6,140 L-10,147 L-19,160 L-26,171 L-30,176 L-35,185 L-41,194 L-47,203 L-54,213 L-59,222 L-66,231 L-72,243 L-79,252 L-86,263 L-94,276 L-99,284 L-100,288 L-95,286 L-90,281 L-84,274 L-75,260 L-63,244 L-56,233 L-45,220 L-36,210 L-33,204 L-21,189 L-13,178 L-6,167 L1,157 L4,151 L9,146 L11,146 L11,700 L-611,700 L-609,696 L-605,690 L-603,685 L-597,675 L-593,664 L-591,654 L-590,630 L-592,621 L-594,607 L-599,594 L-604,587 L-607,582 L-618,569 L-624,560 L-624,553 L-616,537 L-610,525 L-606,513 L-604,495 L-605,470 L-609,456 L-612,447 L-616,439 L-625,427 L-630,422 L-638,413 L-652,404 L-671,396 L-684,394 L-716,394 L-725,398 L-728,400 L-737,403 L-742,407 L-753,414 L-762,422 L-769,431 L-775,440 L-783,457 L-789,474 L-794,479 L-806,485 L-816,482 L-835,479 L-849,479 L-861,481 L-873,486 L-878,491 L-884,496 L-891,511 L-894,527 L-893,537 L-890,552 L-887,561 L-883,569 L-880,576 L-872,585 L-866,593 L-864,596 L-865,601 L-891,602 L-907,605 L-919,611 L-925,615 L-935,624 L-941,632 L-945,640 L-948,649 L-948,659 L-945,677 L-939,689 L-930,698 L-930,700 L-965,700 L-968,693 L-975,679 L-976,671 L-976,646 L-973,632 L-967,618 L-959,608 L-953,600 L-944,593 L-937,587 L-926,583 L-906,579 L-905,575 L-912,561 L-917,549 L-918,541 L-918,526 L-917,522 L-916,501 L-910,485 L-905,475 L-906,468 L-910,462 L-915,450 L-919,440 L-922,425 L-923,397 L-919,380 L-915,367 L-911,358 L-903,342 L-894,331 L-887,322 L-877,314 L-867,306 L-851,298 L-845,295 L-833,292 L-830,289 L-829,254 L-826,234 L-821,224 L-816,211 L-808,200 L-802,191 L-793,180 L-786,174 L-780,170 L-775,167 L-768,165 L-764,160 L-752,155 L-740,151 L-728,149 L-723,146 L-722,144 L-721,120 L-722,52 L-722,38 L-723,17 L-720,11 L-719,10 L-712,9 L-661,9 L-650,8 L-628,8 L-613,7 L-529,7 L-523,9 L-519,7 L-499,6 L-484,7 L-474,6 L-422,6 L-417,7 L-409,6 L-397,6 L-374,5 L-345,5 L-338,6 L-322,4 L-243,4 L-220,3 L-194,3 L-149,2 L-121,2 L-94,1 L-66,1 Z M-105,25 L-106,26 L-106,31 L-101,30 L-102,25 Z M-736,175 L-751,181 L-762,187 L-776,197 L-779,202 L-784,206 L-793,219 L-799,231 L-803,244 L-806,260 L-806,277 L-804,298 L-803,307 L-806,309 L-828,314 L-840,319 L-853,328 L-862,334 L-874,345 L-880,353 L-887,364 L-895,380 L-898,395 L-899,409 L-899,420 L-897,438 L-893,448 L-890,453 L-884,456 L-874,455 L-861,451 L-852,449 L-845,449 L-842,450 L-830,450 L-818,455 L-813,455 L-809,450 L-805,442 L-802,435 L-794,421 L-785,407 L-778,400 L-772,396 L-764,389 L-756,385 L-749,380 L-736,375 L-725,371 L-720,367 L-718,362 L-717,335 L-714,332 L-664,332 L-626,331 L-610,331 L-602,330 L-562,330 L-553,329 L-455,329 L-438,328 L-427,328 L-422,329 L-412,328 L-390,328 L-383,326 L-380,327 L-357,327 L-352,328 L-343,327 L-310,327 L-306,326 L-264,326 L-199,325 L-169,325 L-135,324 L-119,323 L-113,322 L-109,316 L-109,305 L-114,302 L-127,302 L-145,303 L-191,303 L-260,304 L-298,304 L-320,306 L-324,307 L-352,308 L-373,308 L-378,306 L-411,306 L-418,307 L-428,307 L-437,306 L-457,306 L-474,307 L-512,308 L-545,308 L-573,309 L-619,309 L-635,310 L-714,310 L-716,305 L-717,299 L-718,272 L-719,205 L-719,188 L-722,176 L-723,175 Z M-175,426 L-192,427 L-205,427 L-219,428 L-224,431 L-226,440 L-226,497 L-225,523 L-222,530 L-218,533 L-215,534 L-182,534 L-176,535 L-126,533 L-114,532 L-107,531 L-104,528 L-103,524 L-103,474 L-104,440 L-107,429 L-114,426 Z M-476,430 L-496,431 L-505,434 L-506,435 L-508,461 L-508,478 L-507,508 L-505,528 L-500,533 L-492,536 L-438,536 L-396,537 L-384,535 L-380,529 L-379,523 L-379,483 L-378,472 L-379,438 L-382,432 L-384,430 Z " fill="#000000" transform="translate(1036,29)"/>
</svg>
