<?xml version="1.0" encoding="UTF-8"?>
<!-- Generator: visioncortex VTracer 0.6.12 -->
<svg version="1.1" xmlns="http://www.w3.org/2000/svg" width="477" height="777">
<path d="M0,0 L8,1 L18,5 L41,14 L53,19 L77,29 L89,35 L90,36 L100,38 L113,43 L123,46 L132,50 L149,57 L158,60 L162,63 L176,68 L186,71 L194,74 L209,79 L222,84 L223,89 L214,99 L206,107 L198,113 L193,119 L188,124 L183,129 L176,137 L170,142 L165,147 L161,149 L159,153 L149,163 L142,171 L133,179 L131,179 L129,183 L117,194 L110,202 L83,229 L78,234 L69,241 L62,240 L50,235 L37,230 L25,226 L18,224 L5,217 L-12,211 L-36,201 L-49,196 L-59,192 L-76,186 L-82,183 L-93,181 L-103,176 L-120,170 L-124,168 L-134,166 L-143,162 L-147,160 L-154,159 L-155,158 L-155,151 L-144,140 L-138,133 L-134,131 L-127,123 L-120,115 L-114,111 L-107,103 L-90,87 L-82,79 L-77,74 L-69,66 L-64,61 L-54,51 L-49,46 L-20,17 L-12,10 L-4,2 Z M-3,103 L-3,106 L2,108 L7,108 L5,104 L3,103 Z " fill="#000000" transform="translate(206,35)"/>
<path d="M0,0 L6,1 L9,13 L8,19 L2,28 L-6,35 L-14,44 L-22,51 L-33,64 L-45,77 L-55,87 L-62,95 L-77,109 L-86,120 L-90,125 L-91,127 L-91,139 L-90,158 L-90,252 L-89,284 L-89,306 L-90,320 L-94,325 L-102,332 L-111,341 L-116,346 L-138,368 L-140,368 L-142,372 L-151,381 L-155,387 L-163,394 L-174,406 L-188,420 L-192,424 L-195,427 L-200,432 L-205,439 L-213,446 L-221,455 L-226,460 L-228,460 L-230,464 L-234,468 L-236,472 L-242,473 L-243,472 L-244,427 L-244,271 L-245,224 L-244,201 L-244,187 L-242,182 L-238,179 L-231,178 L-211,177 L-193,175 L-184,175 L-181,174 L-168,173 L-162,166 L-154,159 L-149,154 L-142,146 L-137,141 L-129,133 L-124,129 L-114,116 L-105,107 L-99,102 L-94,97 L-85,87 L-80,82 L-75,78 L-70,71 L-62,64 L-57,59 L-55,59 L-53,55 L-48,49 L-40,42 L-34,35 L-29,30 L-19,21 L-12,13 L-9,9 L-7,9 L-5,5 Z " fill="#000000" transform="translate(432,143)"/>
<path d="M0,0 L6,0 L12,3 L20,5 L50,18 L59,21 L68,24 L82,28 L94,33 L103,37 L118,43 L125,46 L138,50 L147,55 L156,57 L171,63 L187,69 L195,73 L214,80 L224,83 L227,88 L227,101 L223,106 L172,110 L155,112 L139,113 L136,117 L135,126 L135,426 L137,441 L140,446 L147,452 L151,457 L158,462 L162,467 L171,473 L176,478 L184,485 L193,492 L197,496 L203,500 L208,504 L219,512 L224,518 L227,530 L225,543 L221,545 L206,539 L193,533 L179,529 L172,525 L157,520 L137,512 L124,508 L109,502 L106,500 L96,497 L82,491 L74,489 L66,485 L57,482 L38,475 L16,467 L8,464 L0,461 L-5,456 L-6,454 L-6,445 L-2,437 L7,435 L31,435 L50,434 L53,433 L88,432 L94,433 L97,431 L98,428 L99,413 L99,393 L98,372 L99,346 L99,238 L100,177 L99,139 L100,132 L100,122 L99,111 L96,104 L93,101 L88,99 L85,92 L76,85 L68,79 L63,74 L50,65 L42,58 L31,50 L20,41 L17,36 L6,30 L-4,21 L-5,18 L-5,5 Z " fill="#000000" transform="translate(43,200)"/>
<path d="M0,0 L5,0 L13,8 L19,11 L26,18 L38,27 L52,38 L60,44 L71,53 L81,61 L86,66 L86,72 L77,82 L71,87 L66,92 L62,97 L54,104 L44,113 L35,122 L30,127 L25,133 L15,141 L8,149 L-19,176 L-24,181 L-36,193 L-41,198 L-63,220 L-70,229 L-75,234 L-80,233 L-87,227 L-96,220 L-108,210 L-116,203 L-126,194 L-140,183 L-148,175 L-156,169 L-157,168 L-157,161 L-154,158 L-152,158 L-150,153 L-139,143 L-134,138 L-128,131 L-121,125 L-114,117 L-107,110 L-102,105 L-94,96 L-92,96 L-90,92 L-75,77 L-68,69 L-62,62 L-56,55 L-46,47 L-39,39 L-26,26 L-25,24 L-23,24 L-21,20 L-13,11 L-8,7 L-4,2 Z " fill="#000000" transform="translate(349,476)"/>
<path d="M0,0 L5,1 L7,4 L8,56 L8,81 L5,85 L-14,86 L-26,86 L-29,87 L-65,89 L-78,90 L-82,87 L-81,81 L-74,73 L-66,66 L-58,57 L-52,52 L-46,45 L-41,40 L-32,31 L-27,26 L-22,22 L-15,14 L-10,10 L-6,4 Z " fill="#000000" transform="translate(125,539)"/>
<path d="M0,0 L5,0 L8,5 L9,18 L6,23 L0,28 L-4,33 L-12,40 L-26,55 L-36,64 L-41,69 L-50,79 L-58,87 L-65,95 L-82,112 L-86,116 L-91,121 L-98,129 L-103,132 L-107,138 L-114,144 L-121,152 L-129,160 L-134,165 L-143,176 L-147,178 L-154,177 L-157,171 L-155,157 L-150,152 L-140,143 L-132,135 L-125,127 L-115,117 L-111,112 L-106,107 L-98,99 L-96,99 L-94,95 L-74,75 L-67,67 L-43,43 L-38,38 L-33,33 L-30,32 L-28,28 L-21,20 L-16,15 L-9,9 L-5,3 Z " fill="#000000" transform="translate(436,562)"/>
</svg>
