<?xml version="1.0" encoding="UTF-8"?>
<!-- Generator: visioncortex VTracer 0.6.12 -->
<svg version="1.1" xmlns="http://www.w3.org/2000/svg" width="1311" height="1236">
<path d="M0,0 L14,1 L18,7 L17,32 L18,38 L17,76 L17,134 L18,145 L18,202 L19,288 L18,307 L19,350 L19,376 L20,385 L20,432 L21,476 L21,554 L22,598 L22,677 L23,689 L23,751 L24,763 L24,902 L25,1010 L26,1020 L26,1094 L23,1099 L23,1106 L24,1107 L25,1119 L26,1122 L27,1135 L29,1146 L25,1150 L21,1151 L-27,1152 L-50,1153 L-98,1153 L-161,1154 L-189,1155 L-249,1155 L-282,1156 L-353,1157 L-381,1157 L-388,1158 L-506,1160 L-529,1161 L-541,1161 L-568,1162 L-657,1163 L-671,1164 L-697,1164 L-716,1165 L-729,1164 L-738,1165 L-756,1166 L-820,1166 L-848,1167 L-856,1166 L-859,1167 L-896,1167 L-925,1168 L-1012,1168 L-1025,1169 L-1118,1169 L-1121,1162 L-1121,1127 L-1122,1091 L-1122,1062 L-1124,960 L-1124,907 L-1125,848 L-1126,702 L-1128,610 L-1128,580 L-1129,477 L-1129,446 L-1130,381 L-1131,290 L-1131,265 L-1132,205 L-1132,179 L-1133,108 L-1133,32 L-1131,23 L-1129,22 L-1116,21 L-1061,20 L-1033,19 L-999,19 L-940,18 L-885,18 L-880,17 L-869,17 L-860,16 L-850,17 L-838,17 L-826,16 L-755,15 L-739,14 L-720,14 L-691,13 L-605,12 L-563,11 L-539,10 L-482,10 L-440,9 L-424,9 L-371,7 L-316,7 L-304,6 L-258,6 L-247,5 L-236,5 L-229,4 L-151,4 L-135,3 L-103,3 L-85,2 Z M-73,13 L-85,14 L-114,15 L-137,15 L-158,16 L-206,16 L-271,17 L-301,18 L-416,20 L-447,21 L-477,21 L-510,22 L-520,23 L-577,23 L-605,24 L-650,25 L-694,25 L-758,27 L-848,28 L-869,29 L-886,29 L-923,30 L-955,30 L-1030,32 L-1059,33 L-1115,33 L-1119,35 L-1120,40 L-1121,60 L-1121,158 L-1120,188 L-1120,259 L-1119,433 L-1118,512 L-1118,569 L-1117,581 L-1117,605 L-1115,732 L-1115,819 L-1114,842 L-1114,892 L-1113,941 L-1112,972 L-1113,1004 L-1112,1027 L-1111,1090 L-1111,1116 L-1112,1123 L-1111,1128 L-1110,1151 L-1106,1156 L-1096,1157 L-1045,1157 L-955,1156 L-932,1156 L-890,1155 L-862,1155 L-841,1154 L-789,1154 L-781,1153 L-745,1153 L-713,1152 L-685,1152 L-675,1151 L-640,1151 L-569,1150 L-542,1149 L-480,1148 L-435,1147 L-372,1146 L-337,1145 L-316,1145 L-273,1144 L-250,1144 L-210,1143 L-192,1143 L-122,1142 L-74,1142 L-7,1141 L11,1140 L15,1137 L16,1127 L14,1056 L14,1037 L13,1005 L12,863 L12,771 L11,754 L11,671 L10,621 L10,594 L9,518 L9,491 L8,445 L8,412 L7,353 L6,347 L7,341 L7,209 L6,154 L5,110 L5,30 L3,16 L0,13 Z " fill="#000000" transform="translate(1209,35)"/>
<path d="M0,0 L15,0 L23,1 L30,2 L37,5 L46,8 L59,19 L67,31 L73,43 L78,60 L80,70 L79,102 L76,118 L74,124 L71,138 L68,150 L68,160 L80,162 L96,168 L105,176 L105,178 L109,180 L117,192 L121,201 L124,214 L124,229 L122,242 L117,260 L108,277 L97,291 L84,307 L74,320 L64,331 L57,341 L56,344 L56,351 L64,373 L69,390 L75,410 L77,419 L84,428 L90,433 L105,440 L113,444 L123,449 L133,460 L155,466 L166,469 L182,472 L195,472 L215,475 L229,476 L244,478 L260,479 L266,480 L288,480 L292,479 L322,478 L325,481 L328,493 L331,521 L331,532 L327,535 L311,537 L273,537 L252,536 L231,532 L219,528 L203,521 L189,511 L179,503 L175,501 L165,499 L156,496 L140,492 L134,489 L128,490 L122,499 L116,500 L109,498 L93,497 L77,493 L65,490 L59,483 L54,478 L50,474 L38,471 L26,468 L20,465 L8,462 L-4,461 L-18,457 L-27,455 L-33,455 L-38,460 L-44,469 L-52,485 L-58,495 L-66,511 L-70,517 L-78,533 L-86,547 L-94,562 L-99,574 L-106,586 L-114,603 L-119,612 L-131,633 L-139,649 L-144,661 L-157,684 L-167,705 L-175,720 L-178,724 L-189,747 L-197,763 L-208,783 L-215,797 L-223,812 L-227,820 L-232,829 L-240,844 L-245,856 L-252,868 L-260,884 L-268,899 L-271,907 L-271,913 L-264,927 L-254,945 L-246,957 L-239,966 L-236,971 L-237,976 L-250,977 L-311,978 L-367,978 L-392,977 L-394,975 L-393,969 L-385,952 L-381,944 L-371,925 L-363,910 L-356,896 L-346,877 L-337,860 L-332,847 L-325,836 L-320,826 L-312,810 L-306,798 L-297,781 L-289,765 L-275,738 L-274,730 L-281,716 L-284,706 L-285,697 L-285,674 L-281,646 L-274,626 L-267,607 L-259,584 L-254,573 L-247,558 L-242,546 L-234,529 L-228,516 L-225,508 L-225,500 L-230,492 L-235,473 L-235,464 L-232,453 L-229,445 L-224,439 L-217,438 L-207,441 L-191,444 L-182,446 L-174,445 L-171,444 L-170,436 L-175,438 L-177,440 L-185,439 L-196,435 L-205,434 L-211,432 L-220,431 L-237,427 L-245,422 L-255,413 L-255,411 L-260,409 L-261,408 L-270,407 L-279,404 L-285,402 L-298,400 L-307,397 L-309,394 L-308,387 L-305,380 L-300,378 L-290,380 L-276,381 L-272,379 L-272,362 L-274,342 L-277,324 L-281,298 L-283,283 L-287,251 L-288,237 L-288,220 L-285,208 L-280,203 L-269,196 L-265,193 L-256,192 L-238,184 L-217,176 L-201,170 L-193,168 L-184,165 L-177,163 L-171,161 L-146,156 L-127,152 L-118,151 L-111,149 L-96,147 L-81,143 L-50,141 L-42,141 L-36,146 L-29,156 L-22,162 L-6,169 L6,172 L15,171 L18,170 L18,166 L-1,164 L-15,157 L-31,141 L-38,129 L-41,121 L-47,111 L-50,103 L-52,91 L-54,82 L-54,71 L-53,60 L-47,39 L-38,25 L-32,17 L-18,7 L-4,1 Z M-97,236 L-114,241 L-137,245 L-145,247 L-161,249 L-184,253 L-197,254 L-201,256 L-212,257 L-217,260 L-220,267 L-221,294 L-219,331 L-218,357 L-214,363 L-203,372 L-191,382 L-186,385 L-178,400 L-172,403 L-162,405 L-145,408 L-142,415 L-138,414 L-136,411 L-129,411 L-111,416 L-94,420 L-86,422 L-60,425 L-44,429 L-32,431 L-23,434 L-15,436 L-2,437 L5,439 L23,439 L25,436 L24,430 L12,402 L8,392 L8,386 L13,377 L18,364 L24,353 L31,338 L37,327 L45,311 L50,300 L49,296 L45,296 L33,319 L25,335 L17,351 L10,363 L7,372 L5,372 L-3,387 L-8,393 L-15,405 L-20,412 L-23,417 L-26,419 L-35,419 L-79,409 L-100,405 L-116,402 L-133,399 L-136,398 L-150,397 L-163,393 L-172,390 L-177,375 L-184,366 L-184,358 L-179,350 L-176,342 L-168,326 L-161,316 L-150,297 L-143,287 L-136,278 L-129,269 L-120,258 L-115,251 L-110,249 L-100,247 L-88,241 L-85,239 L-85,237 L-87,236 Z M1,351 L5,355 L7,354 L4,351 Z " fill="#000000" transform="translate(713,124)"/>
<path d="M0,0 L20,3 L24,5 L40,7 L49,11 L50,13 L49,29 L40,56 L32,71 L27,81 L20,93 L15,98 L9,97 L2,92 L-3,87 L-12,82 L-26,71 L-31,65 L-30,60 L-21,46 L-15,34 L-6,8 L-4,2 Z " fill="#000000" transform="translate(1145,491)"/>
<path d="M0,0 L6,0 L11,4 L18,12 L28,22 L36,29 L41,36 L40,41 L32,48 L26,49 L17,40 L5,24 L-5,12 L-5,5 Z " fill="#000000" transform="translate(1103,568)"/>
<path d="M0,0 L6,0 L10,4 L17,14 L25,23 L29,30 L34,38 L35,44 L30,49 L25,53 L20,52 L16,47 L12,39 L0,17 L-4,8 L-4,3 Z " fill="#000000" transform="translate(1079,585)"/>
<path d="M0,0 L7,0 L14,10 L20,25 L25,35 L28,42 L28,48 L23,53 L20,55 L9,57 L5,53 L1,39 L-4,12 L-4,4 Z " fill="#000000" transform="translate(1055,596)"/>
<path d="M0,0 L6,1 L13,10 L16,14 L16,16 L19,17 L28,30 L38,46 L46,57 L54,68 L60,79 L63,86 L72,102 L76,107 L85,121 L95,139 L100,148 L108,160 L117,179 L117,188 L111,203 L101,222 L93,238 L82,258 L75,274 L65,293 L60,305 L56,313 L46,336 L42,346 L41,350 L41,361 L47,375 L57,389 L63,398 L65,405 L64,407 L56,408 L-12,410 L-33,411 L-36,412 L-62,411 L-68,411 L-71,409 L-68,400 L-63,388 L-53,369 L-43,351 L-35,335 L-23,312 L-15,296 L-1,271 L6,255 L15,238 L24,222 L31,208 L31,204 L22,201 L13,199 L-3,194 L-10,189 L-22,183 L-32,174 L-40,166 L-48,155 L-54,147 L-59,137 L-62,131 L-61,123 L-59,114 L-52,99 L-46,83 L-37,69 L-33,59 L-23,40 L-17,29 L-7,10 L-2,1 Z " fill="#000000" transform="translate(678,601)"/>
<path d="M0,0 L9,1 L18,4 L28,13 L29,16 L29,26 L27,34 L23,42 L18,46 L12,48 L-2,48 L-7,45 L-14,36 L-15,33 L-15,22 L-13,14 L-8,6 L-2,1 Z " fill="#000000" transform="translate(197,872)"/>
<path d="M0,0 L2,0 L3,7 L0,10 Z " fill="#000000" transform="translate(0,975)"/>
<path d="M0,0 L2,1 L2,25 L0,28 Z " fill="#000000" transform="translate(0,993)"/>
<path d="M0,0 L12,1 L23,0 L128,0 L129,1 L128,8 L119,25 L115,28 L109,29 L47,30 L-37,30 L-39,28 L-38,23 L-34,14 L-32,7 L-29,3 L-26,2 L-5,1 Z " fill="#000000" transform="translate(624,1026)"/>
<path d="M0,0 L2,1 L2,10 L0,13 Z " fill="#000000" transform="translate(0,1029)"/>
<path d="M0,0 L1,0 L2,18 L0,19 Z " fill="#000000" transform="translate(0,1082)"/>
<path d="M0,0 L39,0 L84,1 L86,3 L86,10 L78,25 L73,29 L2,30 L-23,30 L-32,31 L-79,31 L-84,30 L-99,29 L-103,26 L-102,19 L-94,4 L-89,1 L-57,1 Z " fill="#000000" transform="translate(400,1118)"/>
<path d="M0,0 L2,2 L1,8 L0,8 Z " fill="#000000" transform="translate(0,1130)"/>
<path d="M0,0 L2,2 L2,14 L0,16 Z " fill="#000000" transform="translate(0,1164)"/>
<path d="M0,0 L2,1 L3,6 L3,14 L2,17 L0,17 Z " fill="#000000" transform="translate(0,1186)"/>
</svg>
