<?xml version="1.0" encoding="UTF-8"?>
<!-- Generator: visioncortex VTracer 0.6.12 -->
<svg version="1.1" xmlns="http://www.w3.org/2000/svg" width="1107" height="1227">
<path d="M0,0 L2,1 L2,5 L-1,5 Z " fill="#000000" transform="translate(649,35)"/>
<path d="M0,0 L9,1 L9,9 L7,10 L-5,10 L-13,11 L-35,11 L-62,12 L-101,12 L-110,14 L-124,13 L-153,14 L-177,14 L-240,15 L-256,15 L-268,16 L-293,17 L-367,17 L-382,18 L-390,18 L-397,19 L-401,18 L-419,19 L-444,19 L-466,20 L-540,21 L-584,22 L-606,22 L-706,24 L-757,25 L-861,27 L-876,27 L-911,28 L-984,29 L-1033,29 L-1049,30 L-1049,86 L-1047,139 L-1046,188 L-1045,232 L-1045,254 L-1044,290 L-1043,450 L-1043,539 L-1041,614 L-1041,640 L-1040,697 L-1039,772 L-1038,917 L-1037,1041 L-1037,1101 L-1035,1144 L-1034,1147 L-958,1147 L-951,1146 L-894,1145 L-876,1145 L-830,1144 L-792,1144 L-761,1143 L-752,1143 L-735,1142 L-672,1141 L-649,1141 L-562,1139 L-488,1138 L-461,1138 L-438,1137 L-391,1137 L-369,1136 L-330,1136 L-246,1134 L-203,1134 L-172,1133 L-103,1132 L-69,1132 L-54,1131 L-29,1131 L9,1130 L9,1138 L4,1139 L-18,1139 L-124,1141 L-196,1142 L-237,1143 L-274,1143 L-296,1144 L-317,1144 L-354,1145 L-383,1145 L-392,1146 L-448,1146 L-549,1148 L-638,1149 L-764,1152 L-794,1152 L-825,1153 L-837,1153 L-853,1154 L-892,1154 L-948,1155 L-977,1156 L-1041,1156 L-1045,1152 L-1046,1149 L-1047,1106 L-1048,1010 L-1048,948 L-1049,820 L-1049,761 L-1052,565 L-1052,540 L-1050,531 L-1052,526 L-1053,468 L-1054,339 L-1055,312 L-1055,284 L-1056,232 L-1057,165 L-1060,79 L-1061,36 L-1061,25 L-1058,20 L-1053,18 L-1005,19 L-921,18 L-869,17 L-792,16 L-762,16 L-735,15 L-721,15 L-645,13 L-600,13 L-576,12 L-498,11 L-465,10 L-460,9 L-396,9 L-308,7 L-258,7 L-251,6 L-227,6 L-217,5 L-187,5 L-165,4 L-106,4 L-92,3 L-47,2 L-37,1 L-6,1 Z " fill="#000000" transform="translate(1098,37)"/>
<path d="M0,0 L19,2 L32,7 L41,14 L50,24 L55,34 L59,52 L60,57 L60,70 L59,101 L58,121 L55,144 L52,154 L48,160 L40,171 L30,178 L22,182 L-16,181 L-31,178 L-42,172 L-52,164 L-58,156 L-62,147 L-65,132 L-66,129 L-68,111 L-70,95 L-69,57 L-67,43 L-63,33 L-57,23 L-52,16 L-44,10 L-39,6 L-23,1 Z " fill="#000000" transform="translate(789,253)"/>
<path d="M0,0 L14,0 L35,5 L48,12 L63,23 L72,30 L79,40 L88,56 L96,72 L100,78 L106,83 L120,89 L138,88 L160,82 L168,78 L182,74 L206,75 L223,84 L231,90 L244,103 L251,115 L258,126 L264,143 L271,158 L276,175 L282,190 L286,201 L289,210 L295,222 L300,234 L305,246 L309,258 L316,277 L321,294 L325,302 L331,319 L337,337 L337,346 L322,353 L314,357 L296,362 L284,368 L275,369 L270,362 L266,350 L260,335 L256,325 L253,318 L247,308 L238,287 L233,277 L223,258 L213,241 L206,233 L197,227 L194,226 L182,226 L175,230 L170,238 L168,245 L167,272 L165,282 L162,286 L152,287 L89,289 L68,290 L63,291 L45,292 L33,295 L23,300 L20,302 L13,301 L1,295 L-17,285 L-41,271 L-60,262 L-72,257 L-78,253 L-89,247 L-103,240 L-107,236 L-106,229 L-96,210 L-93,203 L-85,188 L-81,180 L-75,171 L-69,161 L-66,156 L-61,142 L-59,138 L-60,133 L-73,133 L-97,137 L-115,139 L-122,142 L-130,144 L-148,144 L-172,148 L-184,151 L-198,153 L-202,155 L-209,169 L-214,177 L-220,195 L-224,200 L-228,202 L-234,201 L-241,198 L-259,193 L-267,191 L-277,187 L-291,181 L-293,179 L-292,171 L-286,154 L-280,142 L-276,134 L-274,125 L-268,112 L-261,97 L-257,89 L-251,81 L-245,72 L-237,68 L-204,62 L-183,56 L-174,55 L-169,53 L-159,51 L-145,47 L-132,43 L-115,37 L-97,30 L-75,21 L-67,19 L-54,14 L-39,9 L-21,4 L-10,1 Z " fill="#000000" transform="translate(635,369)"/>
<path d="M0,0 L5,0 L9,4 L17,20 L26,36 L30,43 L33,50 L45,73 L51,85 L54,92 L58,99 L68,118 L72,124 L80,140 L86,152 L96,168 L99,173 L102,172 L106,161 L110,150 L115,138 L117,132 L123,131 L142,137 L159,142 L172,147 L188,152 L202,155 L218,161 L231,166 L245,171 L250,175 L249,184 L244,198 L240,211 L230,241 L224,260 L221,270 L219,289 L219,311 L221,320 L228,342 L228,350 L223,355 L216,361 L215,363 L215,369 L219,380 L234,408 L240,419 L249,436 L254,445 L262,461 L267,469 L275,485 L280,494 L287,508 L297,526 L303,536 L311,552 L319,567 L325,578 L331,587 L335,589 L427,589 L453,588 L470,588 L474,592 L480,606 L485,619 L492,636 L497,651 L496,658 L494,659 L482,659 L474,660 L400,661 L358,661 L292,663 L286,660 L278,644 L273,634 L271,629 L264,615 L260,608 L252,595 L244,578 L236,561 L230,550 L224,540 L213,517 L205,501 L196,485 L189,471 L184,461 L176,445 L168,430 L162,419 L157,411 L151,410 L138,417 L133,421 L127,421 L122,416 L115,409 L108,401 L101,392 L95,384 L79,360 L72,346 L69,333 L69,313 L71,305 L73,293 L77,283 L79,275 L83,260 L87,244 L87,234 L79,218 L72,204 L65,194 L57,178 L52,168 L48,158 L40,144 L32,128 L23,111 L17,100 L8,85 L1,69 L-9,50 L-17,34 L-24,20 L-24,13 L-16,8 L-7,4 Z " fill="#000000" transform="translate(165,423)"/>
<path d="M0,0 L19,0 L33,4 L52,14 L74,24 L84,30 L95,35 L111,44 L127,52 L142,60 L148,63 L158,71 L161,75 L161,78 L166,77 L173,69 L181,61 L193,56 L195,55 L261,55 L304,54 L330,54 L351,57 L361,58 L369,64 L379,73 L383,80 L386,90 L388,105 L390,143 L392,149 L396,150 L415,141 L430,135 L433,133 L448,129 L459,125 L470,120 L490,113 L506,106 L513,103 L522,103 L525,107 L532,126 L542,151 L547,166 L553,182 L558,194 L563,204 L573,223 L578,228 L581,232 L587,243 L588,247 L585,251 L558,250 L555,248 L549,248 L548,252 L554,268 L563,283 L573,297 L575,302 L570,308 L550,317 L540,322 L522,330 L506,336 L491,338 L476,338 L463,334 L454,324 L448,315 L442,301 L437,291 L427,270 L423,259 L414,237 L410,230 L406,220 L399,206 L396,199 L393,199 L392,208 L392,243 L393,296 L394,356 L395,400 L395,421 L394,446 L392,459 L387,462 L345,463 L312,463 L277,464 L264,464 L252,465 L243,464 L219,464 L214,465 L201,465 L194,459 L191,450 L185,437 L181,427 L171,405 L164,393 L159,381 L156,346 L156,324 L154,286 L154,263 L153,223 L151,186 L147,187 L139,203 L129,221 L121,239 L114,253 L106,269 L92,299 L84,315 L76,331 L66,352 L59,369 L52,380 L50,381 L36,381 L32,382 L19,382 L13,377 L6,363 L2,357 L-6,341 L-13,330 L-18,319 L-23,307 L-26,301 L-31,294 L-35,286 L-43,270 L-59,240 L-63,231 L-75,210 L-79,203 L-83,190 L-92,173 L-94,170 L-93,164 L-87,149 L-83,143 L-72,120 L-60,94 L-48,69 L-40,53 L-29,31 L-16,15 L-9,9 L-2,1 Z " fill="#000000" transform="translate(490,617)"/>
<path d="M0,0 L5,1 L13,19 L17,25 L21,36 L32,57 L40,73 L45,83 L50,93 L57,109 L66,124 L70,133 L73,139 L72,144 L67,143 L55,136 L46,131 L31,123 L20,117 L1,107 L-19,98 L-30,92 L-38,89 L-40,86 L-39,80 L-24,48 L-14,29 L-10,19 L-6,11 L-2,2 Z " fill="#000000" transform="translate(340,901)"/>
</svg>
