<?xml version="1.0" encoding="UTF-8"?>
<!-- Generator: visioncortex VTracer 0.6.12 -->
<svg version="1.1" xmlns="http://www.w3.org/2000/svg" width="4998" height="1332">
<path d="M0,0 L7,0 L9,1 L9,3 L139,2 L235,2 L242,0 L249,2 L279,2 L281,4 L281,54 L278,57 L120,57 L101,58 L-78,58 L-86,57 L-97,58 L-162,58 L-192,59 L-219,59 L-236,58 L-307,59 L-529,59 L-535,60 L-784,60 L-791,61 L-794,60 L-890,60 L-951,61 L-1025,61 L-1035,60 L-1039,61 L-1066,61 L-1083,60 L-1086,61 L-1139,61 L-1144,62 L-1153,61 L-1173,61 L-1218,62 L-1297,62 L-1302,63 L-1595,63 L-1693,64 L-1861,64 L-1931,65 L-1972,65 L-1980,64 L-1983,65 L-2146,65 L-2176,66 L-2394,66 L-2444,67 L-2512,67 L-2586,68 L-2605,68 L-2612,69 L-2619,68 L-2643,68 L-2648,67 L-2651,68 L-2667,68 L-2717,69 L-2758,68 L-2791,69 L-2858,69 L-2864,70 L-3045,70 L-3052,71 L-3056,70 L-3114,70 L-3260,71 L-3468,71 L-3509,72 L-3512,78 L-3516,76 L-3516,71 L-3529,72 L-3776,72 L-3864,73 L-3980,73 L-4087,74 L-4228,74 L-4343,75 L-4505,75 L-4566,76 L-4681,76 L-4681,20 L-4520,20 L-4404,19 L-4169,19 L-4133,18 L-3980,18 L-3879,17 L-3746,17 L-3579,16 L-3471,16 L-3336,15 L-3122,15 L-3029,14 L-2944,14 L-2844,13 L-2677,13 L-2597,12 L-2558,12 L-2402,11 L-2377,11 L-2280,10 L-2080,10 L-2044,9 L-2035,10 L-1935,9 L-1794,9 L-1719,8 L-1526,8 L-1515,7 L-1512,5 L-1507,6 L-1506,7 L-1488,8 L-1406,7 L-1253,7 L-1241,6 L-1238,2 L-1234,2 L-1230,7 L-1121,6 L-1067,6 L-1059,7 L-1051,6 L-1044,6 L-1039,4 L-1027,6 L-1003,6 L-973,5 L-968,6 L-892,5 L-769,5 L-524,4 L-412,4 L-312,3 L-20,3 L-6,1 Z " fill="#000000" transform="translate(4681,7)"/>
<path d="M0,0 L110,0 L137,2 L156,7 L168,12 L182,18 L195,26 L208,36 L218,45 L226,52 L232,60 L241,74 L244,79 L244,85 L249,90 L255,100 L262,122 L267,148 L268,152 L269,186 L269,982 L268,1004 L266,1013 L263,1030 L258,1044 L254,1054 L246,1070 L236,1084 L226,1098 L218,1106 L210,1113 L200,1120 L190,1127 L178,1134 L159,1142 L148,1145 L134,1147 L122,1149 L86,1151 L-99,1151 L-248,1152 L-470,1152 L-473,1150 L-479,1150 L-482,1152 L-728,1152 L-747,1149 L-754,1146 L-770,1142 L-789,1133 L-799,1127 L-809,1120 L-822,1109 L-827,1104 L-833,1099 L-843,1086 L-850,1075 L-858,1062 L-866,1043 L-870,1029 L-874,997 L-875,983 L-875,164 L-872,143 L-868,129 L-865,117 L-860,105 L-854,93 L-848,82 L-844,77 L-840,71 L-831,61 L-826,55 L-818,48 L-807,39 L-794,31 L-785,25 L-769,19 L-759,15 L-745,11 L-738,9 L-706,7 L-675,7 L-669,6 L-661,7 L-642,7 L-635,6 L-593,6 L-543,5 L-425,5 L-398,4 L-371,4 L-303,3 L-274,3 L-162,2 L-107,2 L-93,1 L-19,1 Z M119,11 L114,14 L-13,14 L-116,15 L-154,16 L-229,16 L-270,17 L-401,18 L-484,18 L-548,19 L-599,19 L-652,20 L-719,21 L-728,22 L-730,23 L-745,25 L-765,31 L-782,39 L-795,47 L-802,51 L-815,63 L-827,75 L-837,89 L-843,99 L-851,114 L-856,129 L-860,145 L-863,173 L-863,259 L-864,339 L-864,917 L-863,993 L-862,1007 L-859,1023 L-853,1043 L-844,1062 L-838,1071 L-834,1077 L-823,1090 L-815,1098 L-810,1103 L-801,1110 L-796,1113 L-786,1119 L-774,1125 L-759,1131 L-735,1137 L-709,1139 L-675,1140 L-635,1139 L-597,1139 L-521,1138 L-484,1139 L-482,1140 L-476,1140 L-475,1139 L-455,1138 L-424,1138 L-321,1139 L-296,1138 L-164,1138 L-79,1139 L52,1139 L86,1138 L117,1138 L131,1137 L154,1131 L170,1125 L188,1115 L200,1107 L207,1101 L212,1096 L221,1088 L229,1078 L233,1071 L237,1064 L245,1050 L252,1029 L256,1011 L259,978 L259,468 L258,302 L258,256 L259,241 L258,239 L258,208 L257,177 L256,156 L252,133 L249,122 L244,105 L236,91 L229,77 L218,63 L201,46 L186,36 L175,30 L166,26 L151,20 L141,17 L131,15 L123,11 Z " fill="#000000" transform="translate(977,147)"/>
<path d="M0,0 L10,1 L17,0 L58,1 L108,1 L121,2 L144,7 L156,10 L173,16 L196,29 L208,37 L209,40 L213,42 L220,48 L224,54 L231,60 L238,69 L247,82 L254,96 L260,110 L263,119 L266,130 L269,154 L269,502 L270,556 L270,610 L271,773 L272,853 L272,887 L271,913 L271,927 L272,930 L272,981 L269,1006 L265,1024 L260,1038 L255,1048 L248,1062 L242,1070 L231,1084 L217,1098 L204,1108 L195,1114 L183,1121 L173,1126 L158,1131 L139,1136 L122,1137 L119,1138 L76,1139 L28,1139 L-353,1140 L-594,1140 L-725,1141 L-742,1138 L-757,1134 L-776,1126 L-794,1116 L-805,1108 L-816,1099 L-831,1084 L-838,1075 L-844,1066 L-847,1061 L-855,1045 L-859,1035 L-863,1024 L-867,1001 L-868,956 L-866,942 L-867,933 L-868,923 L-868,167 L-865,138 L-862,122 L-857,108 L-853,99 L-844,82 L-837,72 L-830,64 L-823,55 L-813,45 L-807,41 L-799,34 L-788,27 L-773,19 L-761,14 L-748,10 L-720,5 L-697,3 L-610,3 L-565,2 L-158,2 L-157,7 L-163,14 L-165,15 L-199,16 L-205,15 L-438,15 L-454,16 L-519,15 L-522,12 L-526,13 L-528,15 L-617,16 L-690,16 L-726,18 L-750,24 L-768,31 L-785,40 L-795,46 L-809,58 L-817,66 L-826,77 L-837,94 L-841,103 L-847,117 L-853,139 L-855,158 L-855,520 L-856,726 L-856,946 L-857,989 L-855,1012 L-852,1019 L-847,1034 L-842,1046 L-833,1062 L-825,1073 L-818,1081 L-812,1088 L-805,1093 L-800,1098 L-795,1102 L-781,1110 L-767,1117 L-747,1124 L-726,1128 L-723,1129 L-663,1129 L-526,1128 L-485,1128 L-476,1129 L-473,1128 L-403,1128 L-315,1127 L-301,1127 L-293,1128 L-275,1127 L-22,1126 L102,1126 L126,1124 L141,1122 L153,1119 L172,1112 L195,1100 L203,1094 L211,1087 L216,1083 L222,1075 L227,1070 L236,1058 L244,1044 L251,1028 L256,1014 L259,998 L261,972 L261,776 L260,640 L260,514 L259,499 L258,350 L258,167 L257,143 L249,114 L245,104 L242,99 L236,87 L229,77 L222,68 L213,58 L208,53 L200,46 L180,34 L164,26 L150,22 L142,18 L131,17 L128,16 L108,15 L-14,15 L-90,14 L-119,15 L-130,14 L-142,15 L-144,14 L-143,5 L-140,2 L-128,1 L-8,1 Z " fill="#000000" transform="translate(3458,145)"/>
<path d="M0,0 L6,2 L7,4 L11,3 L14,0 L48,0 L51,1 L58,1 L61,0 L159,0 L172,2 L189,6 L201,11 L217,18 L227,24 L235,30 L241,34 L251,43 L256,48 L265,58 L275,72 L286,91 L291,105 L295,114 L298,123 L301,141 L301,468 L300,576 L300,775 L301,843 L300,874 L300,959 L298,996 L297,999 L296,1010 L290,1025 L286,1035 L279,1049 L267,1066 L260,1074 L246,1089 L240,1094 L235,1097 L227,1103 L219,1108 L191,1121 L173,1125 L167,1127 L148,1130 L121,1131 L35,1131 L-15,1132 L-144,1132 L-195,1133 L-239,1132 L-262,1132 L-288,1133 L-424,1133 L-446,1134 L-482,1134 L-554,1135 L-581,1135 L-671,1136 L-688,1135 L-716,1129 L-733,1123 L-745,1118 L-757,1112 L-769,1104 L-778,1096 L-788,1088 L-796,1080 L-805,1069 L-810,1061 L-814,1056 L-822,1040 L-826,1032 L-832,1015 L-835,992 L-835,838 L-836,654 L-837,582 L-838,430 L-840,287 L-841,266 L-840,250 L-840,158 L-838,142 L-833,115 L-825,98 L-818,84 L-812,75 L-806,67 L-799,59 L-790,48 L-782,42 L-769,32 L-759,26 L-743,18 L-728,12 L-711,8 L-699,6 L-667,4 L-639,4 L-530,3 L-469,3 L-441,2 L-349,2 L-258,1 L-184,1 L-175,2 L-152,1 L-49,1 Z M121,11 L113,12 L54,12 L14,13 L-4,13 L-17,12 L-53,13 L-62,12 L-81,13 L-146,13 L-180,14 L-250,14 L-273,15 L-316,15 L-334,14 L-345,15 L-357,14 L-360,15 L-444,15 L-451,16 L-476,15 L-497,16 L-559,16 L-609,17 L-616,16 L-628,16 L-641,17 L-668,17 L-690,18 L-711,20 L-732,27 L-750,35 L-764,43 L-776,53 L-784,60 L-791,67 L-802,81 L-814,102 L-818,110 L-824,126 L-827,139 L-828,153 L-829,158 L-830,173 L-831,273 L-830,338 L-830,392 L-829,437 L-828,561 L-827,652 L-827,702 L-826,795 L-826,974 L-825,993 L-821,1014 L-815,1030 L-810,1042 L-805,1051 L-800,1059 L-793,1067 L-788,1074 L-780,1081 L-767,1093 L-749,1103 L-733,1111 L-720,1115 L-700,1121 L-673,1124 L-662,1123 L-551,1123 L-511,1122 L-463,1122 L-309,1121 L-199,1121 L-181,1120 L4,1120 L16,1119 L131,1119 L142,1118 L149,1118 L165,1115 L181,1111 L197,1105 L213,1097 L219,1094 L230,1087 L240,1078 L246,1073 L254,1063 L260,1056 L266,1048 L272,1036 L277,1026 L282,1013 L286,994 L287,983 L287,941 L288,892 L288,788 L289,774 L289,762 L288,744 L288,606 L289,482 L289,184 L290,171 L291,163 L290,158 L289,143 L284,119 L277,102 L274,95 L267,83 L261,73 L257,68 L250,60 L243,52 L235,46 L228,40 L217,33 L201,24 L182,18 L170,15 L153,12 L132,11 Z " fill="#000000" transform="translate(4664,151)"/>
<path d="M0,0 L169,0 L215,1 L244,0 L277,1 L294,1 L357,0 L375,1 L497,1 L554,2 L571,3 L588,5 L606,11 L614,13 L627,19 L636,24 L651,34 L662,43 L671,51 L680,62 L689,74 L696,85 L703,99 L707,109 L712,123 L715,135 L718,161 L716,359 L716,427 L715,468 L715,529 L714,644 L713,777 L713,866 L712,873 L713,894 L713,964 L712,987 L710,1004 L707,1017 L702,1033 L698,1042 L690,1058 L682,1070 L678,1076 L673,1081 L668,1087 L660,1094 L650,1103 L638,1112 L621,1121 L601,1130 L588,1134 L572,1136 L570,1137 L557,1137 L540,1138 L-3,1138 L-14,1137 L-52,1138 L-224,1138 L-271,1136 L-279,1135 L-289,1134 L-303,1131 L-315,1126 L-324,1124 L-334,1118 L-345,1112 L-355,1106 L-366,1097 L-376,1088 L-382,1081 L-391,1070 L-399,1058 L-403,1050 L-411,1034 L-415,1025 L-421,997 L-423,965 L-423,937 L-422,869 L-422,799 L-421,623 L-421,595 L-420,528 L-420,497 L-419,395 L-419,280 L-418,158 L-413,122 L-411,117 L-409,109 L-400,89 L-394,78 L-387,68 L-377,55 L-367,45 L-359,38 L-347,29 L-336,22 L-320,14 L-309,10 L-302,7 L-284,3 L-274,2 L-209,2 L-174,1 L-7,1 Z M37,7 L29,14 L-241,14 L-271,15 L-294,18 L-304,22 L-317,27 L-333,35 L-346,43 L-355,50 L-360,55 L-369,65 L-378,76 L-384,85 L-391,97 L-395,105 L-401,120 L-406,145 L-407,154 L-409,196 L-409,252 L-410,344 L-410,429 L-411,661 L-411,751 L-412,957 L-411,986 L-406,1010 L-401,1026 L-397,1037 L-387,1055 L-375,1071 L-368,1079 L-363,1084 L-353,1092 L-345,1098 L-329,1108 L-304,1119 L-289,1121 L-280,1124 L-261,1125 L-255,1126 L-183,1127 L-163,1127 L-152,1126 L-48,1126 L113,1127 L420,1127 L446,1128 L508,1127 L561,1127 L593,1119 L598,1117 L607,1115 L626,1105 L644,1094 L651,1088 L656,1083 L665,1074 L673,1062 L680,1052 L684,1045 L690,1033 L697,1012 L700,996 L702,962 L702,880 L703,836 L703,686 L704,575 L705,380 L706,268 L706,167 L703,140 L697,117 L693,107 L685,91 L678,80 L668,67 L664,61 L655,54 L648,48 L642,44 L634,38 L619,30 L605,24 L592,20 L586,18 L572,16 L562,14 L538,14 L513,13 L403,12 L350,13 L279,14 L41,14 L39,7 Z " fill="#000000" transform="translate(1778,153)"/>
<path d="M0,0 L4,2 L3,6 L0,7 L-2,6 L-1,1 Z " fill="#000000" transform="translate(154,183)"/>
<path d="M0,0 L19,0 L30,4 L32,7 L32,16 L26,43 L18,74 L12,100 L5,128 L0,147 L-3,158 L-6,172 L-10,186 L-16,212 L-20,227 L-23,241 L-26,247 L-36,252 L-50,254 L-62,260 L-68,265 L-70,265 L-72,269 L-78,283 L-81,291 L-82,328 L-83,362 L-85,426 L-87,504 L-88,568 L-88,621 L-86,634 L-82,644 L-75,653 L-68,659 L-53,666 L-39,668 L-34,673 L-28,699 L-25,713 L-18,746 L-12,774 L-3,819 L3,847 L10,879 L15,907 L15,913 L11,918 L-3,922 L-21,921 L-34,919 L-42,917 L-45,916 L-56,915 L-68,909 L-77,905 L-92,897 L-109,885 L-125,872 L-133,865 L-138,855 L-145,832 L-148,816 L-151,807 L-155,788 L-159,774 L-162,758 L-169,722 L-172,707 L-178,669 L-183,632 L-186,607 L-189,562 L-190,544 L-190,430 L-189,416 L-188,386 L-184,344 L-181,318 L-176,288 L-171,257 L-165,232 L-163,219 L-159,207 L-156,191 L-150,167 L-146,151 L-144,142 L-141,130 L-132,101 L-126,80 L-120,63 L-115,53 L-105,45 L-92,36 L-84,30 L-77,26 L-63,18 L-53,15 L-40,9 L-28,6 L-23,4 L-13,2 Z " fill="#000000" transform="translate(706,261)"/>
<path d="M0,0 L5,2 L8,7 L14,18 L19,27 L23,37 L36,60 L48,85 L58,104 L69,124 L77,140 L89,163 L98,180 L103,190 L111,206 L121,224 L129,240 L137,255 L145,270 L153,286 L159,296 L166,312 L174,328 L176,333 L175,339 L158,348 L147,354 L137,360 L129,364 L110,374 L99,380 L92,384 L82,388 L66,397 L48,407 L39,411 L33,414 L23,411 L10,406 L-9,403 L-11,400 L-6,395 L18,383 L25,379 L41,370 L56,362 L66,355 L66,349 L62,335 L62,310 L65,296 L73,280 L82,269 L87,265 L93,261 L96,257 L96,250 L90,237 L86,230 L83,223 L72,203 L66,191 L56,172 L41,143 L32,126 L26,116 L23,113 L16,113 L6,117 L-3,118 L-19,118 L-28,117 L-40,112 L-49,107 L-58,100 L-67,91 L-72,84 L-79,83 L-102,94 L-112,100 L-123,106 L-139,114 L-155,122 L-171,130 L-195,143 L-217,155 L-234,163 L-244,169 L-258,176 L-280,188 L-309,203 L-315,207 L-325,212 L-348,225 L-363,233 L-379,241 L-407,256 L-418,262 L-430,269 L-444,276 L-450,280 L-462,286 L-478,294 L-489,301 L-508,311 L-527,321 L-542,330 L-555,337 L-571,345 L-579,349 L-589,355 L-611,367 L-627,376 L-643,384 L-664,395 L-671,398 L-680,404 L-682,404 L-683,413 L-679,428 L-678,437 L-678,447 L-680,459 L-685,474 L-692,485 L-701,495 L-705,500 L-712,505 L-713,512 L-705,529 L-699,540 L-694,550 L-686,565 L-680,577 L-670,596 L-663,610 L-658,618 L-647,641 L-640,651 L-633,650 L-628,648 L-614,645 L-597,645 L-581,648 L-572,653 L-559,662 L-552,669 L-545,679 L-543,680 L-535,680 L-512,668 L-494,658 L-484,652 L-466,642 L-454,636 L-435,626 L-415,615 L-400,607 L-389,601 L-373,593 L-357,584 L-335,572 L-325,567 L-310,558 L-291,548 L-268,536 L-247,524 L-231,516 L-220,510 L-204,501 L-190,494 L-184,490 L-175,486 L-155,475 L-139,467 L-129,462 L-117,455 L-114,453 L-110,454 L-111,460 L-117,473 L-121,485 L-124,496 L-129,500 L-145,509 L-161,517 L-172,523 L-191,533 L-207,541 L-222,549 L-228,552 L-234,556 L-250,564 L-255,568 L-267,573 L-281,581 L-306,595 L-315,600 L-337,613 L-346,617 L-355,622 L-367,629 L-388,639 L-411,652 L-433,664 L-443,669 L-466,682 L-491,695 L-507,704 L-526,714 L-540,721 L-548,726 L-563,734 L-587,748 L-603,756 L-616,763 L-621,763 L-624,760 L-633,741 L-637,734 L-645,720 L-653,704 L-661,689 L-667,679 L-675,663 L-683,647 L-699,617 L-707,601 L-718,580 L-725,566 L-734,550 L-744,532 L-752,516 L-760,500 L-770,482 L-776,470 L-782,460 L-786,451 L-793,437 L-794,434 L-794,427 L-777,417 L-761,409 L-748,402 L-736,395 L-720,387 L-712,382 L-696,374 L-679,365 L-670,359 L-654,351 L-637,342 L-626,336 L-598,322 L-592,318 L-584,314 L-576,309 L-552,296 L-541,290 L-525,281 L-509,273 L-495,265 L-483,259 L-471,252 L-455,244 L-439,235 L-424,227 L-405,217 L-391,209 L-372,199 L-356,190 L-342,183 L-331,177 L-315,168 L-310,165 L-303,161 L-283,150 L-275,146 L-262,139 L-243,129 L-227,120 L-212,113 L-202,107 L-188,100 L-169,90 L-142,76 L-128,68 L-119,63 L-106,56 L-90,48 L-73,39 L-63,34 L-57,30 L-40,22 L-30,16 L-14,8 Z " fill="#000000" transform="translate(3464,264)"/>
<path d="M0,0 L22,0 L26,2 L37,4 L42,7 L50,10 L59,17 L65,22 L73,32 L79,42 L85,56 L87,64 L87,73 L84,77 L59,78 L22,78 L-61,79 L-65,76 L-65,64 L-62,49 L-54,35 L-49,26 L-37,14 L-20,5 L-15,2 Z " fill="#000000" transform="translate(4487,268)"/>
<path d="M0,0 L8,0 L11,1 L22,2 L31,5 L46,8 L56,12 L62,19 L62,29 L54,63 L51,72 L47,93 L40,117 L37,130 L34,145 L32,151 L25,179 L22,193 L13,226 L8,240 L4,246 L-4,251 L-20,251 L-44,246 L-53,245 L-58,242 L-60,238 L-60,229 L-56,216 L-54,204 L-53,203 L-51,193 L-43,161 L-41,155 L-38,139 L-31,113 L-25,90 L-23,85 L-20,69 L-17,60 L-15,50 L-9,27 L-3,4 Z " fill="#000000" transform="translate(754,271)"/>
<path d="M0,0 L18,0 L25,3 L37,10 L46,22 L51,34 L52,48 L52,316 L55,331 L60,340 L66,347 L78,354 L88,356 L215,356 L220,361 L220,486 L221,501 L225,510 L230,518 L242,523 L245,524 L257,524 L267,521 L275,515 L280,510 L285,503 L290,498 L296,489 L301,484 L312,470 L323,458 L328,446 L335,442 L342,434 L347,428 L358,414 L369,402 L379,389 L391,378 L396,374 L412,365 L415,363 L433,360 L453,360 L465,362 L473,367 L477,372 L477,389 L469,407 L463,418 L455,432 L445,450 L440,459 L432,472 L424,486 L419,495 L415,501 L408,515 L400,528 L390,546 L375,572 L366,588 L358,601 L345,624 L338,635 L333,647 L323,668 L316,676 L313,682 L305,693 L302,699 L295,707 L291,717 L281,730 L274,738 L269,743 L266,744 L266,746 L256,754 L243,762 L226,770 L214,776 L206,783 L196,798 L188,813 L184,827 L182,842 L180,858 L179,876 L176,882 L174,883 L164,884 L-19,884 L-34,883 L-43,884 L-128,884 L-131,880 L-132,866 L-132,856 L-135,821 L-137,816 L-140,801 L-146,786 L-154,773 L-161,765 L-167,758 L-182,748 L-193,741 L-205,730 L-212,722 L-218,715 L-227,702 L-232,693 L-237,685 L-245,663 L-248,649 L-252,618 L-253,587 L-254,554 L-255,471 L-255,438 L-256,402 L-256,384 L-257,322 L-257,300 L-258,266 L-258,83 L-255,68 L-249,58 L-240,50 L-232,45 L-229,44 L-217,44 L-205,46 L-195,52 L-187,60 L-183,67 L-180,80 L-180,255 L-181,260 L-177,268 L-177,275 L-180,280 L-180,308 L-179,336 L-177,348 L-173,353 L-169,355 L-158,355 L-154,353 L-150,346 L-149,341 L-149,306 L-150,235 L-150,208 L-151,106 L-151,61 L-150,51 L-144,39 L-133,28 L-128,24 L-121,22 L-97,22 L-87,27 L-75,38 L-69,50 L-68,70 L-67,219 L-67,283 L-66,341 L-62,352 L-55,355 L-48,356 L-40,351 L-36,344 L-35,327 L-37,226 L-38,101 L-38,52 L-36,32 L-30,18 L-26,13 L-14,5 L-3,2 Z M-194,265 L-195,266 L-195,274 L-193,276 L-190,276 L-189,267 L-190,265 Z M-60,409 L-66,414 L-67,435 L-67,507 L-69,519 L-74,522 L-154,522 L-175,523 L-181,526 L-183,529 L-183,590 L-182,634 L-178,638 L-171,639 L-75,639 L-68,642 L-67,683 L-67,700 L-66,740 L-64,746 L-61,748 L49,748 L53,746 L55,741 L56,645 L58,639 L60,638 L98,638 L166,637 L169,635 L170,623 L170,535 L169,526 L166,523 L163,522 L58,522 L56,521 L55,501 L55,420 L52,411 L48,409 Z " fill="#000000" transform="translate(4335,290)"/>
<path d="M0,0 L4,1 L3,6 L-18,14 L-28,18 L-41,22 L-53,27 L-58,29 L-70,32 L-82,37 L-93,40 L-103,43 L-107,46 L-122,50 L-124,51 L-131,51 L-132,50 L-133,35 L-133,5 L-131,2 L-126,1 L-29,1 Z " fill="#000000" transform="translate(4556,363)"/>
<path d="M0,0 L6,0 L16,8 L26,15 L40,22 L53,26 L69,29 L90,28 L96,27 L99,29 L105,41 L117,63 L125,80 L137,102 L145,117 L149,125 L152,132 L152,137 L144,147 L140,152 L131,167 L126,181 L123,197 L123,230 L119,235 L108,241 L89,251 L56,268 L45,275 L24,285 L6,295 L-9,303 L-28,313 L-53,326 L-61,331 L-76,338 L-81,337 L-80,330 L-75,316 L-70,293 L-69,279 L-69,254 L-71,237 L-77,215 L-83,200 L-92,183 L-103,168 L-118,152 L-129,143 L-139,136 L-154,127 L-178,118 L-199,113 L-202,111 L-200,106 L-180,95 L-166,88 L-159,84 L-139,73 L-123,65 L-101,53 L-78,41 L-72,37 L-55,29 L-48,25 L-32,17 L-14,7 Z M-58,291 L-60,292 L-59,297 L-55,298 L-53,296 L-54,292 Z " fill="#000000" transform="translate(3377,377)"/>
<path d="M0,0 L8,0 L10,2 L11,25 L11,44 L8,51 L2,52 L-113,52 L-116,51 L-129,51 L-131,47 L-123,43 L-112,39 L-96,33 L-88,30 L-84,28 L-75,26 L-63,21 L-41,14 L-20,7 Z " fill="#000000" transform="translate(4564,389)"/>
<path d="M0,0 L94,0 L104,1 L117,0 L161,0 L172,1 L176,0 L211,0 L249,1 L322,1 L440,2 L462,2 L519,3 L543,2 L551,3 L601,3 L636,4 L702,5 L772,5 L833,6 L836,10 L837,25 L837,54 L836,194 L835,325 L833,459 L833,486 L832,514 L832,551 L831,639 L830,656 L828,659 L823,660 L664,660 L610,659 L563,659 L485,658 L317,658 L205,657 L158,657 L106,656 L97,655 L91,656 L-73,656 L-78,653 L-79,651 L-80,589 L-80,32 L-79,4 L-77,2 L-49,1 Z M25,70 L18,73 L-4,76 L-8,79 L-9,83 L-9,140 L-10,239 L-10,577 L-8,583 L-4,586 L22,586 L108,587 L179,588 L271,588 L296,589 L381,589 L514,590 L669,590 L737,591 L758,590 L763,586 L764,550 L764,494 L765,339 L765,194 L766,165 L765,81 L761,76 L754,75 L730,75 L651,74 L604,74 L562,73 L514,73 L497,74 L479,74 L462,73 L392,73 L344,72 L241,72 L213,71 L171,71 L34,70 Z " fill="#000000" transform="translate(1552,394)"/>
<path d="M0,0 L128,0 L129,4 L121,7 L111,11 L102,12 L94,16 L74,22 L65,25 L58,26 L53,29 L45,31 L32,35 L27,37 L19,39 L16,41 L8,43 L-1,44 L-3,40 L-3,3 Z " fill="#000000" transform="translate(4427,464)"/>
<path d="M0,0 L18,0 L21,2 L25,9 L27,10 L33,10 L38,5 L42,1 L46,0 L60,1 L64,5 L66,10 L76,10 L79,9 L81,5 L85,2 L88,1 L103,1 L108,6 L109,10 L118,11 L123,8 L126,3 L128,2 L143,1 L148,5 L148,16 L146,23 L142,26 L140,26 L138,31 L139,37 L141,40 L146,43 L147,44 L148,56 L147,66 L145,69 L140,72 L139,76 L141,83 L146,89 L147,91 L148,105 L146,112 L139,118 L138,124 L141,129 L146,133 L147,137 L147,150 L144,155 L139,160 L138,162 L138,168 L139,171 L144,173 L146,176 L147,189 L145,195 L140,197 L127,197 L122,192 L117,188 L111,188 L106,191 L102,196 L100,197 L85,198 L82,197 L79,193 L79,191 L75,189 L68,188 L62,193 L60,196 L57,197 L43,197 L38,194 L34,189 L32,188 L24,188 L18,195 L13,197 L-2,196 L-4,194 L-5,188 L-5,179 L-2,174 L4,170 L5,168 L5,162 L-2,154 L-5,150 L-5,135 L-2,130 L3,127 L4,125 L4,119 L-3,110 L-4,107 L-4,91 L4,81 L5,75 L2,70 L-4,63 L-4,45 L-1,42 L4,39 L4,29 L0,27 L-4,20 L-4,4 Z " fill="#000000" transform="translate(2143,488)"/>
<path d="M0,0 L5,2 L6,4 L6,45 L1,50 L-138,50 L-138,46 L-136,44 L-127,41 L-115,37 L-104,33 L-88,28 L-78,25 L-70,22 L-53,17 L-40,12 L-31,10 L-22,7 L-17,5 L-8,3 Z " fill="#000000" transform="translate(4569,487)"/>
<path d="M0,0 L18,0 L31,5 L44,8 L52,13 L64,25 L74,40 L80,49 L93,56 L99,66 L103,76 L104,81 L104,89 L103,96 L103,106 L107,113 L113,116 L124,118 L128,122 L129,124 L129,131 L127,136 L129,147 L131,157 L131,162 L127,165 L119,166 L119,182 L113,191 L106,200 L97,207 L87,214 L72,221 L61,225 L35,230 L26,230 L21,227 L19,225 L18,220 L18,208 L21,191 L21,178 L17,172 L10,165 L5,163 L-6,163 L-17,164 L-24,161 L-29,153 L-33,142 L-38,137 L-48,135 L-52,131 L-53,128 L-53,115 L-50,95 L-51,87 L-53,75 L-53,65 L-50,47 L-47,37 L-43,31 L-35,15 L-30,11 L-22,7 L-2,1 Z " fill="#000000" transform="translate(3127,540)"/>
<path d="M0,0 L65,0 L80,1 L144,1 L147,4 L148,14 L148,58 L146,63 L143,65 L3,65 L-2,62 L-3,59 L-4,34 L-4,17 L-3,4 Z " fill="#000000" transform="translate(4428,560)"/>
<path d="M0,0 L5,0 L5,6 L-1,21 L-6,41 L-9,62 L-9,77 L-8,94 L-4,113 L2,131 L7,142 L13,153 L22,166 L29,175 L38,185 L46,192 L55,199 L65,206 L84,216 L102,222 L120,227 L122,231 L117,235 L108,240 L89,250 L79,256 L56,268 L34,280 L15,291 L-1,299 L-18,308 L-27,313 L-37,319 L-53,327 L-69,335 L-78,341 L-85,340 L-94,332 L-105,324 L-118,319 L-134,315 L-144,314 L-161,314 L-172,315 L-177,309 L-186,293 L-197,270 L-203,259 L-209,248 L-219,229 L-227,213 L-229,208 L-228,203 L-224,198 L-214,184 L-206,166 L-203,154 L-202,147 L-202,112 L-198,108 L-172,94 L-150,82 L-129,71 L-119,65 L-100,55 L-94,51 L-88,48 L-72,40 L-61,34 L-35,20 L-17,10 L-6,4 Z " fill="#000000" transform="translate(3010,573)"/>
<path d="M0,0 L3,0 L2,3 L0,3 Z " fill="#000000" transform="translate(4882,672)"/>
<path d="M0,0 L26,0 L41,4 L58,12 L66,18 L77,27 L86,37 L94,49 L101,67 L104,79 L105,86 L105,103 L101,125 L92,144 L85,154 L75,165 L69,169 L60,176 L50,181 L33,187 L22,189 L0,189 L-10,187 L-14,185 L-22,183 L-32,179 L-41,173 L-52,166 L-61,156 L-69,144 L-73,138 L-79,122 L-83,105 L-83,85 L-81,71 L-73,51 L-65,38 L-54,26 L-45,18 L-27,8 L-21,5 Z M30,22 L25,25 L22,28 L21,45 L18,51 L12,52 L8,46 L5,41 L0,37 L-8,37 L-13,40 L-16,43 L-18,50 L-13,55 L-10,58 L-10,63 L-19,62 L-24,57 L-31,46 L-35,43 L-42,43 L-49,49 L-56,61 L-61,76 L-62,84 L-62,95 L-59,111 L-56,123 L-53,132 L-47,144 L-43,149 L-39,150 L-35,147 L-32,138 L-30,133 L-28,126 L-23,121 L-20,116 L-18,115 L0,115 L-2,121 L-7,126 L-8,132 L-1,135 L0,138 L-4,141 L-5,147 L-12,145 L-18,145 L-21,151 L-26,154 L-27,158 L-24,161 L-20,162 L-15,162 L-10,165 L-3,160 L4,159 L10,152 L20,152 L22,149 L23,138 L26,133 L31,132 L35,140 L36,141 L41,141 L44,137 L48,139 L52,141 L55,138 L55,136 L60,138 L62,140 L67,140 L72,134 L81,127 L84,125 L84,120 L79,116 L75,115 L70,118 L68,120 L60,119 L56,122 L52,122 L53,111 L51,108 L43,105 L42,104 L42,95 L45,91 L49,92 L57,101 L66,104 L76,113 L82,112 L85,107 L85,98 L83,85 L77,65 L71,54 L63,42 L59,40 L57,36 L50,30 L40,24 Z " fill="#000000" transform="translate(3437,679)"/>
<path d="M0,0 L122,0 L144,1 L285,1 L294,2 L302,2 L304,4 L304,45 L299,50 L209,49 L110,49 L28,48 L-4,47 L-7,42 L-7,5 L-3,1 Z " fill="#000000" transform="translate(1711,681)"/>
<path d="M0,0 L72,0 L89,1 L124,1 L169,0 L211,1 L228,1 L331,3 L335,6 L336,17 L336,33 L334,43 L331,46 L81,46 L6,45 L-1,44 L-4,40 L-5,27 L-4,4 Z " fill="#000000" transform="translate(1708,756)"/>
<path d="M0,0 L4,0 L4,3 L-1,2 Z " fill="#000000" transform="translate(3460,792)"/>
<path d="M0,0 L62,0 L152,1 L209,1 L249,2 L278,2 L317,3 L319,6 L319,45 L315,49 L251,49 L140,48 L100,48 L60,47 L8,47 L-4,46 L-6,43 L-6,6 L-3,1 Z " fill="#000000" transform="translate(1710,831)"/>
<path d="M0,0 L19,1 L37,6 L48,12 L61,22 L72,33 L81,50 L86,67 L86,97 L83,108 L76,125 L69,136 L60,145 L49,153 L33,161 L20,165 L12,167 L-7,167 L-23,162 L-35,156 L-45,150 L-55,142 L-65,128 L-70,117 L-75,101 L-76,97 L-76,73 L-73,59 L-66,42 L-59,32 L-52,23 L-42,15 L-34,10 L-24,5 L-12,1 Z M-2,17 L-13,19 L-24,25 L-33,36 L-36,43 L-37,56 L-33,69 L-28,81 L-22,88 L-24,93 L-31,102 L-36,111 L-39,115 L-42,124 L-42,136 L-35,144 L-23,151 L-13,155 L5,157 L15,156 L27,153 L44,145 L48,140 L47,131 L39,117 L33,109 L22,99 L22,96 L32,93 L35,91 L36,82 L30,72 L31,59 L27,51 L24,40 L20,32 L17,23 L11,18 L9,17 Z " fill="#000000" transform="translate(3140,889)"/>
<path d="M0,0 L12,1 L17,4 L21,17 L27,44 L34,82 L41,110 L43,122 L48,145 L52,165 L61,204 L65,222 L65,232 L61,239 L53,244 L42,247 L8,253 L3,252 L-1,247 L-6,227 L-9,212 L-15,184 L-21,155 L-25,137 L-31,109 L-39,67 L-41,61 L-44,44 L-49,21 L-49,10 L-47,7 L-41,5 L-30,4 L-19,3 L-12,2 L-4,1 Z " fill="#000000" transform="translate(735,921)"/>
<path d="M0,0 L19,0 L35,2 L59,11 L69,18 L78,24 L93,39 L103,54 L111,74 L115,92 L115,123 L110,143 L106,153 L99,166 L91,177 L82,186 L78,191 L72,195 L53,206 L35,213 L19,215 L-2,215 L-23,211 L-38,204 L-46,200 L-51,196 L-61,189 L-67,184 L-78,170 L-88,154 L-94,137 L-97,123 L-97,102 L-94,81 L-91,75 L-87,61 L-78,45 L-72,38 L-65,30 L-55,21 L-42,13 L-24,5 L-8,1 Z M0,9 L-16,13 L-22,17 L-33,28 L-34,30 L-33,50 L-43,76 L-47,82 L-49,86 L-52,87 L-52,89 L-55,90 L-59,96 L-59,101 L-54,107 L-54,122 L-57,135 L-56,143 L-52,148 L-44,152 L-34,156 L-31,157 L-31,188 L-32,196 L-30,198 L-23,198 L-8,191 L16,181 L35,175 L51,170 L56,165 L58,149 L65,138 L72,129 L77,122 L87,100 L90,88 L91,70 L88,57 L83,49 L70,34 L62,24 L54,20 L41,15 L26,12 L24,11 L10,11 Z " fill="#000000" transform="translate(3356,944)"/>
</svg>
