<?xml version="1.0" encoding="UTF-8"?>
<!-- Generator: visioncortex VTracer 0.6.12 -->
<svg version="1.1" xmlns="http://www.w3.org/2000/svg" width="4941" height="1257">
<path d="M0,0 L152,0 L168,1 L213,1 L221,0 L233,1 L439,1 L483,2 L561,2 L568,1 L608,2 L731,2 L784,3 L787,4 L802,5 L807,7 L819,9 L828,11 L837,14 L852,20 L874,32 L880,37 L888,43 L897,50 L912,65 L917,70 L924,79 L931,90 L937,100 L944,112 L950,128 L955,144 L957,151 L960,174 L961,193 L961,331 L960,388 L960,415 L959,530 L959,649 L958,652 L959,737 L958,763 L959,781 L958,793 L957,796 L958,799 L958,931 L957,984 L955,1003 L949,1027 L944,1041 L939,1051 L932,1065 L921,1081 L914,1090 L905,1101 L891,1114 L880,1121 L870,1130 L856,1138 L838,1146 L825,1151 L801,1157 L771,1159 L636,1159 L604,1158 L586,1157 L432,1157 L396,1156 L370,1156 L366,1155 L259,1155 L141,1153 L134,1152 L124,1153 L73,1153 L69,1152 L55,1152 L45,1153 L33,1152 L-10,1151 L-24,1149 L-40,1146 L-57,1142 L-66,1138 L-78,1132 L-98,1121 L-109,1113 L-117,1106 L-126,1098 L-134,1091 L-142,1082 L-150,1072 L-157,1062 L-163,1051 L-166,1045 L-168,1038 L-172,1032 L-178,1014 L-181,1004 L-182,993 L-184,985 L-185,973 L-185,935 L-184,852 L-184,705 L-182,510 L-181,300 L-181,257 L-180,198 L-179,165 L-174,141 L-171,131 L-162,108 L-156,97 L-152,90 L-145,80 L-137,70 L-126,57 L-113,44 L-104,38 L-91,29 L-81,23 L-62,14 L-53,11 L-39,6 L-21,2 Z M49,10 L48,11 L48,16 L50,18 L55,17 L54,12 L52,10 Z M125,30 L123,31 L95,32 L2,32 L-24,35 L-38,39 L-55,45 L-78,57 L-84,60 L-90,67 L-99,74 L-112,87 L-123,102 L-129,112 L-137,128 L-142,140 L-148,165 L-150,208 L-150,239 L-151,247 L-151,355 L-152,423 L-152,575 L-153,621 L-153,688 L-154,787 L-154,961 L-153,979 L-148,1005 L-144,1017 L-135,1037 L-127,1050 L-113,1068 L-101,1080 L-91,1088 L-80,1096 L-61,1106 L-47,1112 L-35,1115 L-21,1118 L-16,1119 L34,1121 L94,1121 L103,1122 L142,1121 L148,1122 L204,1122 L210,1123 L220,1122 L241,1122 L250,1123 L258,1122 L297,1123 L326,1123 L359,1124 L421,1124 L427,1125 L533,1125 L585,1126 L650,1126 L661,1127 L775,1127 L796,1124 L798,1123 L811,1121 L831,1113 L847,1105 L857,1099 L865,1093 L874,1086 L886,1074 L893,1065 L900,1056 L906,1045 L914,1029 L917,1022 L919,1014 L923,996 L925,982 L926,964 L926,936 L927,778 L927,706 L928,680 L927,641 L928,621 L928,579 L930,275 L930,247 L931,234 L931,196 L930,193 L928,167 L925,156 L922,144 L915,127 L912,120 L907,111 L900,101 L892,90 L886,83 L878,76 L871,68 L862,63 L854,57 L831,46 L822,42 L793,36 L773,35 L741,35 L606,34 L492,34 L456,33 L362,33 L306,32 L144,32 L130,31 Z " fill="#000000" transform="translate(220,37)"/>
<path d="M0,0 L80,0 L87,1 L98,0 L111,1 L155,1 L234,2 L240,3 L265,3 L276,2 L308,3 L383,4 L428,5 L525,5 L547,6 L581,6 L664,7 L687,7 L704,8 L753,8 L770,9 L793,10 L812,13 L835,19 L850,25 L869,35 L879,41 L889,49 L902,59 L905,62 L905,64 L909,66 L919,76 L929,89 L935,98 L946,117 L950,127 L953,133 L957,146 L961,162 L964,184 L965,217 L965,243 L964,267 L964,276 L963,283 L963,328 L962,345 L962,382 L961,444 L959,510 L959,545 L958,617 L957,641 L957,681 L956,695 L956,744 L955,825 L954,878 L952,981 L951,997 L945,1023 L942,1034 L937,1047 L933,1055 L928,1065 L918,1081 L911,1089 L904,1098 L897,1106 L889,1113 L878,1123 L868,1129 L857,1137 L842,1145 L819,1154 L796,1160 L783,1162 L686,1162 L641,1161 L527,1160 L498,1159 L493,1158 L483,1159 L444,1159 L436,1158 L387,1158 L304,1157 L228,1157 L176,1156 L136,1156 L7,1154 L-4,1154 L-40,1151 L-57,1147 L-72,1142 L-88,1135 L-100,1129 L-114,1119 L-119,1116 L-128,1108 L-136,1101 L-144,1094 L-153,1083 L-166,1066 L-175,1049 L-182,1034 L-187,1018 L-191,1005 L-193,989 L-194,984 L-194,924 L-193,891 L-192,859 L-191,773 L-190,741 L-189,703 L-188,657 L-188,615 L-187,596 L-186,549 L-186,528 L-185,463 L-184,444 L-184,424 L-183,400 L-183,375 L-182,279 L-182,236 L-181,228 L-181,198 L-180,174 L-178,157 L-175,144 L-174,143 L-172,134 L-166,117 L-162,109 L-159,102 L-154,93 L-148,83 L-141,74 L-132,63 L-112,43 L-102,36 L-83,24 L-67,16 L-51,9 L-25,3 L-12,1 Z M-4,32 L-23,35 L-33,38 L-46,42 L-59,48 L-76,57 L-87,65 L-100,76 L-112,88 L-120,99 L-124,104 L-132,119 L-136,127 L-143,146 L-146,156 L-149,176 L-150,227 L-150,243 L-151,287 L-151,307 L-152,340 L-153,422 L-154,437 L-156,552 L-156,576 L-157,603 L-158,618 L-158,656 L-159,718 L-159,735 L-160,785 L-160,797 L-161,830 L-163,915 L-163,937 L-164,944 L-163,950 L-163,979 L-160,1000 L-151,1027 L-139,1050 L-128,1064 L-116,1077 L-111,1082 L-103,1089 L-94,1095 L-85,1101 L-69,1109 L-62,1112 L-47,1116 L-39,1118 L-37,1119 L-23,1121 L17,1122 L56,1122 L66,1123 L83,1122 L97,1123 L134,1123 L137,1124 L267,1124 L275,1125 L353,1125 L405,1126 L435,1126 L454,1127 L463,1126 L492,1127 L519,1127 L573,1128 L626,1128 L665,1129 L724,1130 L777,1130 L784,1128 L795,1127 L811,1123 L826,1116 L842,1108 L852,1102 L863,1094 L879,1079 L888,1068 L892,1063 L904,1043 L912,1027 L915,1015 L916,1013 L920,985 L922,965 L923,896 L923,836 L924,812 L925,737 L925,708 L927,640 L928,587 L929,477 L929,440 L930,427 L930,409 L931,364 L931,344 L932,265 L933,231 L933,213 L932,185 L930,169 L924,149 L920,139 L912,121 L905,110 L896,100 L889,91 L885,86 L877,79 L867,71 L862,68 L858,65 L849,61 L834,53 L820,49 L816,47 L807,45 L803,44 L786,43 L781,42 L764,42 L749,41 L720,41 L677,40 L639,39 L603,39 L586,38 L547,38 L490,37 L420,37 L412,36 L364,36 L301,35 L281,35 L261,34 L196,34 L171,33 L139,33 L127,32 L110,32 L99,33 L85,32 Z " fill="#000000" transform="translate(1469,43)"/>
<path d="M0,0 L32,1 L155,1 L228,2 L243,3 L392,3 L409,4 L414,5 L420,4 L519,4 L549,5 L555,6 L558,5 L607,5 L707,6 L740,6 L771,7 L791,10 L812,15 L839,26 L855,35 L865,42 L873,48 L881,56 L889,62 L897,71 L904,79 L915,94 L921,105 L928,119 L932,129 L940,152 L942,165 L943,169 L944,185 L945,191 L945,243 L944,336 L944,914 L943,988 L938,1016 L934,1030 L930,1041 L926,1051 L920,1060 L914,1071 L907,1082 L896,1095 L891,1100 L875,1116 L862,1125 L854,1131 L838,1139 L827,1144 L812,1150 L793,1154 L787,1156 L770,1157 L766,1158 L748,1158 L741,1157 L734,1158 L723,1157 L690,1157 L657,1156 L583,1156 L513,1155 L493,1154 L491,1153 L485,1153 L483,1154 L461,1154 L437,1153 L425,1154 L417,1152 L415,1153 L319,1153 L240,1152 L163,1152 L151,1151 L92,1151 L88,1150 L12,1150 L-28,1149 L-31,1148 L-52,1146 L-79,1138 L-102,1128 L-110,1123 L-122,1116 L-132,1107 L-141,1101 L-153,1089 L-153,1087 L-156,1086 L-170,1067 L-177,1056 L-185,1040 L-191,1027 L-194,1018 L-200,992 L-201,983 L-201,877 L-200,800 L-199,757 L-199,715 L-198,686 L-197,509 L-197,274 L-196,248 L-196,186 L-194,155 L-190,140 L-182,116 L-174,101 L-169,89 L-163,82 L-154,69 L-144,57 L-136,50 L-126,41 L-108,28 L-92,20 L-83,15 L-75,12 L-69,9 L-53,6 L-47,4 L-36,3 L-29,1 L-15,1 Z M-29,33 L-40,36 L-49,38 L-62,43 L-74,46 L-83,52 L-94,58 L-107,68 L-117,77 L-123,82 L-131,93 L-141,107 L-149,123 L-155,136 L-159,148 L-164,173 L-165,249 L-165,472 L-166,573 L-167,591 L-167,692 L-168,812 L-169,853 L-170,956 L-170,970 L-168,988 L-164,1007 L-157,1025 L-150,1039 L-144,1050 L-135,1061 L-124,1073 L-116,1080 L-108,1087 L-100,1092 L-91,1098 L-70,1108 L-60,1112 L-49,1113 L-43,1116 L-31,1118 L-4,1119 L38,1119 L86,1120 L94,1119 L177,1120 L196,1120 L214,1121 L220,1122 L226,1120 L248,1120 L297,1121 L323,1122 L433,1122 L492,1123 L563,1124 L591,1125 L598,1124 L602,1125 L645,1125 L668,1126 L692,1126 L694,1127 L713,1127 L722,1126 L730,1127 L761,1127 L785,1124 L798,1121 L815,1115 L827,1110 L835,1105 L845,1098 L859,1087 L873,1073 L882,1062 L892,1047 L898,1035 L901,1026 L905,1015 L910,990 L912,976 L913,916 L913,340 L914,209 L913,181 L911,174 L909,160 L906,149 L900,134 L895,124 L893,122 L890,115 L886,110 L880,101 L869,88 L861,79 L852,72 L844,66 L835,61 L819,53 L798,45 L783,42 L766,40 L734,39 L686,39 L672,36 L669,38 L536,38 L498,36 L464,37 L419,35 L415,34 L413,35 L280,35 L240,33 L231,34 L183,34 L114,33 Z M865,1109 L865,1113 L868,1113 L867,1109 Z " fill="#000000" transform="translate(2726,57)"/>
<path d="M0,0 L97,0 L179,1 L196,1 L245,2 L314,1 L390,2 L485,2 L560,3 L592,3 L597,4 L604,3 L636,3 L645,4 L758,4 L790,5 L826,12 L848,21 L872,34 L888,46 L897,55 L903,60 L909,68 L920,80 L926,90 L929,96 L930,104 L935,108 L940,120 L945,129 L949,149 L951,164 L953,164 L955,185 L955,544 L954,604 L955,644 L954,698 L954,769 L953,816 L953,847 L952,854 L952,887 L951,908 L951,973 L948,992 L947,1003 L944,1015 L940,1025 L933,1045 L927,1055 L920,1069 L912,1079 L904,1089 L899,1096 L891,1103 L887,1107 L882,1110 L878,1115 L861,1125 L854,1129 L833,1138 L823,1142 L803,1147 L789,1148 L784,1149 L570,1149 L547,1148 L472,1148 L433,1147 L424,1148 L412,1147 L350,1147 L215,1146 L160,1145 L115,1145 L111,1144 L-4,1143 L-20,1141 L-34,1140 L-39,1138 L-57,1134 L-63,1131 L-74,1127 L-91,1119 L-106,1110 L-115,1103 L-127,1092 L-135,1085 L-139,1080 L-144,1075 L-155,1061 L-164,1047 L-173,1030 L-179,1013 L-185,990 L-188,966 L-188,845 L-187,796 L-186,659 L-186,607 L-185,552 L-185,515 L-184,385 L-184,316 L-183,194 L-182,166 L-179,147 L-174,131 L-169,118 L-164,106 L-156,92 L-150,83 L-147,80 L-145,75 L-133,61 L-123,51 L-116,45 L-108,39 L-103,36 L-96,30 L-82,22 L-67,15 L-60,12 L-50,9 L-40,6 L-19,2 L-5,1 Z M16,31 L-7,33 L-28,36 L-31,38 L-41,40 L-53,44 L-64,49 L-77,56 L-87,63 L-98,71 L-103,77 L-111,84 L-122,97 L-126,103 L-134,118 L-143,138 L-147,154 L-149,163 L-152,207 L-152,442 L-153,561 L-153,578 L-154,622 L-155,705 L-156,873 L-157,941 L-156,970 L-153,988 L-150,1003 L-147,1007 L-143,1018 L-135,1034 L-127,1046 L-115,1060 L-108,1068 L-100,1075 L-91,1082 L-73,1093 L-61,1099 L-45,1105 L-39,1107 L-29,1109 L-23,1111 L-6,1113 L-2,1115 L2,1113 L43,1113 L102,1114 L128,1114 L146,1115 L165,1115 L189,1116 L263,1116 L290,1117 L365,1117 L451,1118 L468,1118 L473,1119 L496,1118 L524,1118 L542,1119 L614,1119 L618,1122 L623,1119 L657,1119 L667,1120 L693,1120 L783,1119 L801,1117 L825,1109 L845,1100 L857,1092 L867,1084 L875,1077 L880,1072 L889,1062 L897,1051 L902,1043 L910,1027 L914,1016 L920,995 L923,979 L924,962 L924,778 L925,734 L925,630 L926,621 L926,476 L927,469 L927,243 L928,226 L927,185 L923,157 L920,145 L916,135 L911,123 L904,111 L893,95 L890,91 L888,91 L887,88 L885,88 L883,84 L875,75 L865,67 L851,58 L839,51 L824,45 L809,41 L805,39 L789,38 L773,36 L713,35 L684,35 L653,34 L607,34 L485,33 L237,33 L152,32 L33,32 Z " fill="#000000" transform="translate(3953,75)"/>
<path d="M0,0 L13,0 L27,4 L34,8 L44,17 L48,22 L53,33 L56,47 L55,66 L50,82 L44,91 L35,102 L30,106 L24,116 L23,120 L23,129 L27,142 L34,148 L46,155 L57,161 L69,170 L83,185 L89,195 L93,203 L97,212 L105,229 L111,246 L118,262 L123,275 L129,291 L133,300 L140,316 L143,325 L150,341 L156,357 L164,374 L167,381 L167,388 L164,396 L156,401 L149,401 L141,397 L136,391 L129,377 L117,348 L108,327 L97,298 L93,289 L84,267 L79,255 L73,241 L69,235 L65,235 L64,244 L64,327 L77,369 L83,385 L88,403 L96,428 L103,448 L111,473 L114,483 L117,491 L121,506 L128,529 L128,535 L126,537 L68,537 L45,538 L40,542 L37,566 L34,613 L30,675 L27,712 L26,736 L24,754 L23,763 L19,767 L-15,767 L-20,764 L-22,758 L-24,713 L-25,704 L-25,686 L-27,649 L-30,592 L-33,545 L-36,539 L-39,537 L-104,535 L-119,535 L-122,534 L-123,529 L-120,516 L-114,499 L-111,490 L-107,481 L-103,464 L-99,452 L-94,437 L-87,417 L-81,399 L-77,388 L-75,380 L-71,370 L-67,355 L-55,319 L-53,309 L-53,240 L-55,237 L-59,238 L-65,251 L-75,272 L-83,292 L-88,303 L-100,330 L-110,353 L-118,373 L-124,387 L-134,398 L-136,399 L-147,399 L-154,393 L-156,383 L-154,371 L-149,360 L-143,344 L-138,334 L-134,332 L-134,323 L-125,303 L-121,292 L-116,282 L-110,268 L-105,255 L-100,242 L-94,230 L-91,223 L-87,213 L-82,201 L-73,185 L-62,173 L-52,164 L-39,156 L-23,147 L-16,138 L-14,134 L-14,116 L-18,106 L-29,94 L-37,80 L-40,71 L-41,56 L-40,41 L-37,31 L-27,15 L-17,7 L-2,1 Z " fill="#000000" transform="translate(601,228)"/>
<path d="M0,0 L15,0 L28,5 L34,9 L44,18 L52,32 L55,44 L54,60 L51,73 L47,82 L37,96 L30,104 L26,111 L24,120 L24,128 L26,137 L32,146 L56,159 L65,166 L80,180 L86,189 L94,205 L100,218 L105,231 L111,247 L116,258 L122,274 L126,284 L139,314 L142,323 L149,339 L155,355 L163,374 L164,379 L164,386 L160,394 L155,398 L153,399 L144,399 L136,392 L129,378 L126,368 L121,358 L119,351 L112,337 L107,324 L103,314 L95,297 L90,285 L82,269 L78,262 L74,262 L73,269 L71,317 L70,383 L70,408 L69,441 L68,494 L67,526 L67,544 L66,556 L66,586 L65,636 L64,700 L62,760 L59,764 L11,764 L7,759 L6,723 L5,612 L4,586 L4,541 L3,504 L3,454 L2,441 L1,439 L-4,439 L-6,451 L-8,493 L-10,530 L-11,562 L-12,575 L-12,596 L-15,655 L-16,667 L-18,730 L-20,758 L-22,762 L-27,763 L-54,763 L-70,762 L-74,757 L-74,680 L-73,654 L-73,628 L-72,588 L-71,505 L-71,470 L-70,430 L-69,419 L-69,395 L-68,279 L-69,261 L-74,262 L-78,271 L-94,305 L-104,329 L-106,331 L-112,347 L-115,354 L-117,361 L-123,374 L-130,388 L-134,393 L-140,396 L-151,396 L-157,391 L-159,384 L-158,375 L-155,368 L-149,355 L-147,351 L-144,349 L-140,341 L-136,333 L-134,326 L-134,319 L-128,308 L-124,303 L-121,290 L-117,280 L-112,267 L-105,252 L-99,236 L-95,229 L-91,218 L-83,202 L-75,187 L-64,174 L-57,167 L-46,160 L-41,156 L-30,151 L-22,144 L-17,138 L-14,131 L-14,119 L-16,108 L-23,97 L-28,92 L-36,79 L-41,62 L-42,50 L-41,38 L-36,27 L-32,21 L-25,12 L-12,4 Z M49,291 L49,293 L53,293 L53,291 Z " fill="#000000" transform="translate(1637,243)"/>
<path d="M0,0 L14,1 L26,6 L36,13 L45,25 L49,34 L52,53 L49,74 L45,84 L38,94 L28,105 L23,114 L22,119 L22,131 L24,140 L33,149 L42,154 L58,163 L66,169 L73,177 L80,185 L88,199 L93,210 L96,222 L100,231 L106,245 L110,256 L121,282 L131,306 L139,325 L143,337 L148,347 L157,369 L160,379 L159,389 L155,395 L151,399 L148,400 L141,400 L134,396 L127,386 L121,372 L116,359 L106,333 L101,323 L97,315 L94,307 L92,299 L87,288 L84,278 L79,269 L77,262 L70,247 L64,235 L60,236 L59,242 L58,308 L60,321 L72,357 L83,395 L89,413 L94,429 L96,439 L100,452 L102,460 L108,477 L115,502 L118,509 L120,517 L123,527 L123,533 L121,535 L77,536 L39,536 L35,538 L33,543 L31,572 L29,587 L28,603 L27,609 L26,637 L22,682 L21,704 L17,757 L15,764 L11,767 L-21,767 L-26,765 L-28,752 L-29,739 L-30,703 L-32,673 L-33,642 L-35,616 L-37,560 L-39,541 L-43,536 L-49,535 L-79,535 L-99,534 L-125,533 L-128,531 L-128,523 L-124,512 L-112,477 L-106,460 L-101,446 L-95,428 L-87,406 L-79,383 L-70,356 L-59,323 L-58,296 L-58,250 L-59,233 L-63,233 L-70,245 L-75,258 L-83,276 L-88,286 L-94,300 L-102,319 L-109,334 L-114,346 L-121,362 L-126,372 L-134,389 L-138,394 L-143,397 L-156,397 L-162,390 L-164,386 L-164,379 L-155,358 L-150,347 L-147,340 L-140,324 L-131,303 L-127,294 L-113,263 L-111,261 L-106,245 L-101,235 L-97,225 L-92,213 L-83,197 L-77,186 L-68,175 L-56,165 L-46,158 L-30,150 L-21,144 L-17,137 L-15,133 L-15,116 L-19,108 L-30,96 L-35,90 L-38,82 L-42,76 L-44,69 L-45,53 L-45,45 L-43,35 L-38,23 L-29,13 L-22,7 L-13,3 L-9,1 Z " fill="#000000" transform="translate(2075,245)"/>
<path d="M0,0 L23,0 L42,3 L58,11 L66,17 L71,22 L80,37 L84,47 L85,51 L85,74 L81,83 L74,95 L65,104 L47,117 L42,122 L36,132 L33,144 L31,145 L9,145 L2,143 L1,141 L1,125 L4,114 L12,103 L21,94 L32,87 L40,80 L45,72 L47,64 L46,54 L43,47 L37,39 L27,34 L19,32 L10,32 L-1,34 L-9,39 L-14,44 L-19,52 L-23,64 L-25,65 L-52,64 L-56,60 L-55,50 L-52,40 L-45,26 L-32,13 L-22,7 L-11,2 Z " fill="#000000" transform="translate(3128,254)"/>
<path d="M0,0 L17,1 L29,7 L37,13 L44,21 L50,33 L52,41 L52,65 L47,80 L37,95 L29,102 L26,109 L24,119 L24,131 L28,141 L35,148 L49,155 L56,160 L59,163 L67,167 L79,180 L87,191 L92,201 L97,210 L102,225 L109,239 L114,251 L117,261 L120,266 L124,274 L128,285 L136,305 L142,319 L144,326 L152,342 L156,352 L161,363 L166,379 L166,387 L161,395 L156,399 L149,400 L143,397 L137,392 L128,372 L124,363 L122,355 L118,350 L114,338 L109,328 L100,307 L97,300 L88,283 L83,270 L79,263 L74,264 L73,313 L72,437 L72,458 L71,559 L70,670 L69,691 L69,724 L68,752 L66,757 L61,760 L17,760 L12,757 L11,752 L10,726 L9,652 L7,583 L6,504 L5,459 L3,441 L-1,441 L-3,455 L-4,491 L-6,552 L-7,573 L-8,614 L-10,648 L-11,692 L-13,717 L-14,747 L-16,757 L-19,759 L-55,759 L-60,758 L-65,759 L-69,757 L-70,744 L-70,658 L-69,637 L-69,586 L-68,452 L-68,388 L-67,375 L-67,323 L-68,274 L-69,264 L-73,264 L-79,277 L-84,288 L-91,306 L-96,318 L-100,327 L-106,343 L-112,356 L-116,366 L-121,377 L-125,387 L-131,395 L-136,400 L-135,405 L-131,410 L-129,417 L-127,432 L-124,436 L-111,438 L-102,443 L-97,450 L-95,455 L-94,496 L-95,603 L-96,631 L-100,640 L-109,646 L-120,648 L-154,648 L-173,647 L-181,643 L-187,635 L-188,633 L-189,621 L-189,555 L-188,471 L-187,456 L-184,448 L-174,439 L-171,438 L-159,438 L-154,433 L-153,431 L-152,415 L-149,407 L-147,404 L-148,399 L-153,394 L-156,389 L-158,385 L-157,377 L-152,365 L-141,338 L-136,326 L-132,316 L-126,304 L-121,291 L-114,276 L-106,256 L-102,247 L-98,237 L-93,228 L-90,219 L-88,211 L-80,195 L-75,187 L-65,175 L-58,167 L-45,158 L-28,149 L-18,139 L-16,132 L-16,114 L-22,102 L-31,92 L-36,84 L-41,73 L-44,56 L-44,42 L-41,30 L-36,23 L-33,18 L-24,9 L-16,4 L-9,1 Z " fill="#000000" transform="translate(2906,254)"/>
<path d="M0,0 L2,0 L2,2 L0,2 Z " fill="#000000" transform="translate(4750,313)"/>
<path d="M0,0 L11,0 L30,1 L33,5 L34,17 L33,33 L30,38 L29,39 L19,39 L11,38 L1,38 L-3,34 L-3,4 Z " fill="#000000" transform="translate(3130,419)"/>
<path d="M0,0 L12,0 L22,3 L34,11 L40,16 L45,24 L48,28 L53,37 L55,49 L55,58 L50,79 L41,95 L34,102 L29,111 L28,115 L28,126 L33,136 L40,144 L45,148 L51,160 L53,169 L54,187 L53,299 L53,350 L51,362 L47,373 L43,381 L39,387 L39,392 L46,395 L67,396 L72,399 L74,404 L74,447 L73,467 L73,547 L72,576 L69,587 L67,588 L58,587 L54,583 L53,581 L53,500 L54,440 L52,423 L48,420 L35,419 L-7,419 L-13,422 L-27,432 L-38,439 L-49,447 L-53,450 L-59,449 L-64,443 L-68,439 L-73,434 L-85,424 L-89,425 L-90,426 L-91,447 L-91,455 L-92,462 L-92,483 L-93,490 L-93,550 L-94,568 L-94,580 L-98,584 L-103,585 L-112,584 L-115,582 L-116,566 L-116,399 L-119,396 L-124,397 L-131,405 L-135,412 L-138,427 L-141,476 L-142,500 L-143,507 L-145,536 L-146,542 L-148,575 L-150,582 L-152,584 L-165,584 L-172,583 L-178,584 L-184,582 L-186,573 L-187,552 L-186,538 L-186,497 L-185,438 L-185,422 L-184,397 L-178,379 L-170,368 L-164,361 L-152,354 L-136,348 L-127,346 L-114,344 L-96,341 L-81,339 L-56,335 L-47,334 L-44,330 L-42,305 L-42,256 L-45,249 L-50,245 L-56,246 L-64,253 L-74,263 L-80,271 L-87,278 L-94,286 L-98,288 L-159,288 L-174,287 L-181,286 L-196,285 L-204,278 L-206,273 L-205,263 L-199,256 L-190,253 L-171,252 L-164,253 L-156,253 L-151,252 L-122,252 L-115,249 L-109,244 L-102,235 L-94,226 L-88,218 L-81,212 L-73,201 L-65,193 L-59,185 L-54,180 L-45,169 L-39,161 L-32,155 L-26,146 L-18,139 L-12,128 L-13,113 L-16,108 L-28,94 L-32,88 L-37,76 L-39,63 L-39,41 L-34,26 L-27,16 L-19,8 L-9,2 Z " fill="#000000" transform="translate(3406,432)"/>
<path d="M0,0 L27,0 L33,1 L43,0 L136,0 L165,1 L314,1 L331,2 L415,2 L479,3 L526,3 L534,4 L571,3 L589,4 L671,4 L678,5 L691,5 L704,6 L710,10 L713,14 L712,20 L708,24 L698,28 L695,33 L699,50 L703,67 L708,85 L711,98 L718,119 L722,123 L731,127 L741,134 L745,142 L747,147 L748,163 L748,198 L747,233 L745,239 L744,240 L720,241 L647,241 L643,243 L640,249 L636,262 L628,273 L617,282 L607,286 L599,288 L583,288 L580,286 L572,284 L562,278 L554,270 L548,261 L546,258 L542,245 L539,241 L472,239 L455,239 L399,238 L349,238 L287,237 L214,237 L210,239 L205,255 L199,266 L191,275 L178,282 L167,285 L149,285 L137,279 L129,273 L121,264 L117,259 L114,252 L110,238 L102,235 L43,235 L-2,234 L-14,232 L-16,228 L-16,47 L-15,19 L-11,9 L-4,2 Z M46,21 L38,23 L31,31 L30,33 L29,57 L29,88 L30,107 L35,114 L40,117 L98,118 L129,118 L138,120 L147,113 L150,108 L151,94 L151,40 L150,33 L143,25 L135,22 L101,21 Z M189,22 L181,25 L175,32 L174,35 L173,65 L173,106 L177,113 L181,117 L186,119 L236,120 L283,120 L289,116 L294,108 L295,101 L295,39 L292,31 L286,26 L281,24 L240,23 Z M326,24 L321,28 L317,34 L316,38 L316,108 L320,116 L326,120 L352,121 L428,121 L435,117 L438,113 L439,109 L439,37 L436,29 L431,25 L404,24 Z M486,25 L470,26 L465,31 L462,38 L462,110 L466,118 L476,122 L515,123 L571,123 L577,119 L582,111 L583,104 L583,49 L582,36 L578,29 L572,26 L556,25 Z M619,26 L611,30 L607,37 L606,41 L606,109 L609,116 L614,121 L618,123 L630,124 L688,123 L692,119 L691,108 L686,86 L679,64 L675,48 L672,38 L664,29 L660,27 L650,26 Z M159,209 L149,211 L143,214 L138,219 L133,231 L132,237 L133,246 L138,255 L142,260 L150,264 L158,266 L167,266 L177,260 L183,254 L187,244 L187,230 L183,220 L173,212 L164,209 Z M585,213 L573,219 L567,227 L564,236 L564,247 L569,257 L576,264 L581,267 L588,269 L595,268 L604,266 L612,261 L618,253 L620,249 L620,234 L615,224 L607,216 L601,213 Z " fill="#000000" transform="translate(3975,507)"/>
<path d="M0,0 L11,0 L16,4 L16,70 L17,86 L20,93 L30,95 L47,95 L78,96 L173,96 L180,99 L181,100 L181,117 L177,120 L152,121 L124,120 L79,120 L75,119 L22,119 L18,122 L17,126 L16,176 L15,259 L14,285 L14,315 L13,368 L12,376 L8,379 L5,380 L-2,380 L-7,375 L-8,369 L-8,277 L-7,214 L-6,104 L-6,84 L-5,76 L-6,72 L-6,52 L-4,4 Z " fill="#000000" transform="translate(3132,635)"/>
<path d="M0,0 L3,1 L2,4 L-1,4 Z " fill="#000000" transform="translate(2788,1106)"/>
</svg>
