<?xml version="1.0" encoding="UTF-8"?>
<!-- Generator: visioncortex VTracer 0.6.12 -->
<svg version="1.1" xmlns="http://www.w3.org/2000/svg" width="4962" height="1260">
<path d="M0,0 L11,0 L31,1 L199,1 L272,2 L306,2 L316,3 L517,3 L542,4 L608,4 L765,6 L802,6 L870,7 L971,8 L1038,9 L1050,9 L1055,10 L1149,10 L1155,13 L1156,14 L1155,72 L1154,96 L1154,114 L1153,149 L1152,181 L1150,291 L1149,297 L1149,324 L1148,337 L1148,363 L1147,423 L1146,433 L1146,451 L1145,479 L1144,542 L1143,572 L1143,594 L1141,635 L1141,664 L1140,691 L1138,806 L1137,830 L1137,843 L1136,868 L1135,914 L1135,930 L1134,962 L1133,1037 L1132,1076 L1132,1106 L1129,1122 L1127,1149 L1125,1154 L1123,1155 L1104,1155 L1098,1154 L1091,1155 L1027,1154 L985,1153 L957,1152 L893,1152 L843,1151 L800,1150 L729,1150 L700,1149 L683,1150 L669,1150 L645,1149 L640,1148 L538,1148 L459,1147 L424,1147 L399,1146 L368,1146 L357,1145 L353,1143 L347,1146 L329,1146 L304,1145 L246,1145 L220,1144 L177,1144 L155,1145 L95,1145 L88,1144 L76,1143 L62,1144 L41,1144 L23,1143 L-7,1144 L-15,1145 L-25,1145 L-27,1142 L-26,1087 L-25,1082 L-24,1038 L-23,941 L-22,929 L-21,900 L-20,837 L-19,825 L-19,807 L-18,768 L-17,686 L-15,611 L-14,556 L-13,517 L-12,490 L-11,418 L-10,386 L-8,260 L-6,189 L-6,169 L-5,142 L-5,107 L-4,98 L-4,29 L-3,3 Z M158,9 L155,10 L18,10 L13,12 L10,16 L9,24 L7,60 L7,78 L5,138 L3,232 L2,296 L1,326 L0,393 L-1,437 L-2,468 L-2,491 L-4,557 L-5,595 L-6,657 L-7,691 L-7,719 L-9,771 L-9,786 L-10,804 L-10,837 L-11,870 L-13,972 L-13,1006 L-14,1034 L-14,1128 L-10,1133 L11,1134 L74,1135 L92,1135 L107,1136 L207,1136 L269,1137 L315,1137 L349,1138 L442,1138 L449,1139 L546,1139 L572,1140 L612,1140 L665,1141 L676,1141 L694,1140 L701,1143 L708,1142 L808,1142 L927,1144 L930,1143 L938,1143 L944,1144 L954,1143 L966,1144 L993,1144 L1024,1145 L1064,1146 L1111,1146 L1117,1142 L1120,1134 L1122,1092 L1124,971 L1126,911 L1127,854 L1128,828 L1129,798 L1129,759 L1130,703 L1130,681 L1131,670 L1132,641 L1133,583 L1134,571 L1134,553 L1135,519 L1134,514 L1135,498 L1136,468 L1137,402 L1138,372 L1138,340 L1139,326 L1140,283 L1140,259 L1141,223 L1142,149 L1143,113 L1144,100 L1144,76 L1145,39 L1144,26 L1139,20 L1108,19 L1057,19 L1037,18 L1026,18 L1012,17 L1005,18 L995,18 L992,17 L942,17 L889,16 L869,16 L820,15 L752,15 L725,14 L681,14 L562,13 L519,13 L467,12 L440,12 L365,11 L297,11 L201,10 L168,10 Z " fill="#000000" transform="translate(62,37)"/>
<path d="M0,0 L8,0 L13,1 L38,2 L420,2 L480,3 L496,2 L528,3 L672,3 L797,4 L820,4 L916,5 L925,4 L933,4 L935,5 L961,6 L977,6 L999,5 L1008,4 L1019,5 L1133,6 L1142,9 L1145,12 L1145,114 L1144,132 L1144,170 L1143,213 L1142,339 L1141,377 L1141,421 L1140,478 L1140,506 L1139,614 L1138,631 L1137,670 L1137,719 L1136,814 L1136,846 L1135,895 L1134,969 L1133,1048 L1132,1102 L1132,1139 L1129,1143 L965,1143 L936,1142 L910,1142 L878,1141 L814,1141 L712,1140 L683,1140 L643,1139 L635,1140 L454,1140 L434,1139 L331,1139 L328,1140 L308,1140 L299,1139 L267,1139 L236,1138 L87,1137 L-2,1137 L-15,1139 L-19,1137 L-20,1135 L-20,1111 L-21,1106 L-21,1080 L-20,1018 L-20,993 L-19,927 L-18,911 L-18,832 L-17,820 L-17,792 L-16,715 L-15,677 L-14,579 L-12,457 L-11,432 L-11,324 L-10,281 L-10,258 L-9,214 L-9,181 L-8,98 L-7,5 L-4,1 Z M702,108 L693,109 L687,110 L671,117 L660,124 L649,132 L637,144 L631,152 L624,163 L616,167 L528,166 L523,167 L514,167 L501,166 L465,166 L458,165 L440,166 L426,166 L409,165 L388,166 L352,166 L336,169 L329,177 L322,191 L318,199 L318,212 L326,228 L331,234 L338,235 L343,230 L354,216 L356,214 L363,215 L369,223 L375,233 L379,237 L386,236 L394,226 L400,216 L402,214 L407,214 L415,223 L423,234 L427,237 L432,236 L438,229 L445,218 L451,213 L456,213 L463,223 L471,235 L474,237 L479,237 L487,228 L496,214 L502,213 L508,220 L516,236 L522,243 L528,246 L605,246 L617,247 L623,250 L630,260 L636,268 L645,278 L652,286 L667,295 L684,302 L692,304 L701,305 L724,305 L745,299 L757,294 L768,286 L783,272 L787,267 L796,252 L802,240 L806,220 L806,195 L803,178 L794,156 L784,142 L772,129 L757,119 L741,111 L724,108 Z M1090,225 L1090,227 L1092,227 L1092,225 Z M175,360 L163,362 L159,364 L157,371 L155,399 L155,437 L154,523 L154,548 L152,559 L152,568 L153,572 L153,711 L152,734 L152,770 L151,884 L151,968 L152,983 L156,989 L163,992 L202,993 L248,992 L251,993 L296,992 L481,992 L513,993 L534,992 L587,993 L718,993 L787,992 L812,993 L952,993 L960,986 L963,982 L965,973 L965,935 L966,879 L966,819 L967,810 L966,776 L967,754 L967,705 L968,651 L968,583 L969,559 L969,541 L970,517 L970,410 L971,386 L970,372 L967,366 L960,363 L852,363 L821,362 L765,361 L754,362 L749,361 L718,362 L690,361 L597,361 L586,360 L323,360 L253,361 L232,361 L214,360 L205,360 L200,361 Z " fill="#000000" transform="translate(1309,54)"/>
<path d="M0,0 L13,0 L17,1 L36,2 L38,1 L44,1 L46,2 L68,3 L135,4 L157,4 L169,5 L174,6 L189,5 L238,5 L241,6 L242,14 L241,15 L132,15 L97,14 L79,16 L76,20 L76,74 L78,90 L79,93 L79,142 L78,149 L78,183 L77,224 L77,267 L76,323 L76,363 L75,401 L74,487 L73,554 L72,578 L71,616 L71,667 L70,733 L70,765 L68,830 L67,887 L66,914 L66,937 L65,983 L64,1077 L63,1114 L68,1117 L74,1116 L76,1115 L76,1097 L78,1091 L79,1075 L80,1044 L80,1027 L81,1003 L82,942 L82,923 L83,911 L82,889 L83,881 L84,841 L85,774 L86,738 L86,722 L87,706 L88,615 L90,540 L91,499 L91,476 L93,394 L93,365 L94,314 L97,302 L102,297 L135,296 L161,295 L172,296 L171,300 L164,306 L162,306 L162,309 L167,307 L175,302 L178,295 L195,296 L220,296 L337,297 L384,297 L387,298 L408,298 L410,299 L468,299 L473,294 L475,289 L476,279 L476,256 L477,251 L477,209 L478,176 L479,168 L478,164 L478,137 L479,133 L481,107 L482,77 L483,73 L484,53 L485,48 L485,40 L484,32 L487,27 L489,25 L504,25 L508,28 L508,62 L505,82 L504,84 L503,97 L502,203 L502,231 L501,250 L501,263 L502,288 L504,296 L506,299 L512,301 L533,301 L578,300 L601,301 L614,302 L676,303 L695,303 L716,304 L765,304 L770,305 L792,305 L862,307 L871,308 L877,312 L878,316 L878,408 L877,484 L877,515 L874,659 L873,694 L873,712 L872,734 L872,746 L871,759 L871,786 L870,877 L869,910 L867,1018 L867,1046 L866,1081 L865,1096 L864,1116 L863,1126 L866,1129 L870,1130 L880,1130 L886,1128 L886,1120 L885,1113 L887,1030 L887,1010 L888,993 L889,976 L893,973 L897,971 L893,969 L890,968 L889,966 L889,896 L890,855 L890,794 L891,773 L891,732 L892,722 L893,697 L894,631 L895,601 L896,559 L896,502 L897,480 L898,474 L898,451 L900,383 L900,363 L901,332 L902,312 L903,209 L904,81 L905,69 L903,26 L888,25 L854,24 L838,23 L786,23 L746,22 L702,22 L684,21 L642,21 L613,20 L612,19 L592,20 L566,19 L517,19 L506,20 L494,20 L477,19 L426,18 L424,17 L400,17 L391,16 L388,17 L346,17 L306,16 L295,16 L288,15 L284,16 L251,16 L250,15 L250,8 L252,5 L267,5 L283,6 L373,6 L384,8 L386,7 L408,7 L411,9 L416,7 L464,8 L516,8 L547,9 L585,9 L604,10 L637,10 L690,11 L731,11 L791,12 L817,12 L861,13 L917,13 L924,14 L938,12 L954,12 L959,14 L1000,15 L1025,15 L1040,16 L1052,18 L1064,21 L1066,25 L1065,48 L1065,103 L1063,164 L1063,180 L1062,209 L1061,272 L1060,303 L1059,353 L1058,393 L1058,421 L1057,445 L1055,551 L1054,594 L1053,665 L1052,697 L1052,716 L1051,725 L1051,745 L1049,850 L1048,878 L1047,954 L1046,1001 L1045,1087 L1046,1114 L1046,1137 L1043,1140 L1041,1141 L1026,1141 L1023,1140 L955,1139 L914,1138 L827,1137 L809,1137 L788,1136 L722,1136 L671,1135 L655,1135 L621,1134 L613,1132 L611,1131 L577,1131 L560,1133 L517,1133 L419,1132 L385,1132 L366,1131 L356,1131 L354,1129 L348,1130 L282,1130 L242,1129 L150,1128 L122,1128 L14,1126 L-50,1126 L-73,1125 L-80,1124 L-93,1125 L-97,1123 L-99,1116 L-99,1080 L-98,1035 L-97,1016 L-96,948 L-95,879 L-93,834 L-92,770 L-92,748 L-91,713 L-90,675 L-89,618 L-87,538 L-86,467 L-85,445 L-82,302 L-81,272 L-81,230 L-80,182 L-80,168 L-79,150 L-78,87 L-77,63 L-77,10 L-75,4 L-71,2 L-58,1 L-49,2 L-39,1 L-19,1 L-11,2 L-3,2 Z M1022,21 L1022,23 L1025,23 L1025,21 Z M-60,46 L-68,49 L-70,56 L-66,62 L-58,63 L-53,59 L-53,53 L-56,52 L-58,59 L-64,60 L-64,51 L-59,50 L-56,50 L-57,46 Z M141,323 L125,326 L121,330 L119,355 L119,429 L118,454 L116,558 L115,576 L115,598 L114,673 L114,689 L113,713 L113,752 L111,842 L110,878 L110,911 L109,941 L108,1043 L108,1077 L110,1085 L116,1089 L125,1090 L249,1090 L254,1091 L285,1092 L414,1092 L434,1093 L491,1093 L545,1095 L553,1094 L585,1096 L625,1097 L643,1098 L678,1098 L709,1099 L723,1098 L740,1098 L758,1099 L803,1099 L817,1100 L828,1100 L836,1096 L840,1088 L841,1074 L842,1053 L842,1016 L844,920 L845,881 L845,835 L846,779 L847,753 L847,715 L848,704 L849,674 L849,647 L850,627 L851,571 L851,550 L852,518 L852,498 L854,448 L855,442 L855,343 L851,335 L848,333 L819,331 L695,329 L659,328 L594,328 L587,327 L569,327 L500,326 L476,326 L469,325 L438,325 L412,324 L406,325 L382,324 L372,325 L366,324 L339,324 L291,323 Z M13,390 L13,393 L16,393 L16,390 Z " fill="#000000" transform="translate(2633,72)"/>
<path d="M0,0 L75,1 L126,1 L245,2 L326,3 L530,5 L663,7 L697,7 L775,8 L809,9 L849,9 L954,10 L1010,11 L1085,11 L1114,12 L1134,15 L1137,18 L1138,42 L1140,53 L1140,73 L1139,130 L1138,150 L1136,239 L1134,343 L1133,413 L1132,440 L1130,561 L1129,578 L1129,602 L1128,643 L1127,698 L1126,743 L1124,843 L1123,875 L1123,906 L1122,925 L1121,994 L1120,1038 L1119,1115 L1118,1129 L1115,1136 L1113,1137 L1064,1136 L996,1135 L984,1136 L958,1135 L922,1134 L910,1134 L897,1132 L892,1134 L876,1134 L819,1133 L803,1132 L762,1132 L735,1131 L694,1131 L618,1130 L592,1129 L572,1129 L564,1128 L536,1129 L510,1129 L503,1128 L450,1128 L335,1127 L261,1126 L222,1125 L108,1125 L83,1124 L-27,1124 L-32,1120 L-33,1117 L-33,1090 L-32,1082 L-31,1016 L-31,962 L-30,919 L-29,906 L-29,886 L-28,816 L-26,744 L-26,715 L-25,642 L-25,609 L-24,591 L-22,490 L-21,441 L-21,418 L-20,405 L-20,388 L-18,315 L-17,269 L-15,159 L-14,92 L-14,8 L-12,2 L-10,1 Z M9,8 L2,11 L0,13 L-1,18 L-2,48 L-3,71 L-4,136 L-5,157 L-6,225 L-7,254 L-8,322 L-10,409 L-11,465 L-12,504 L-14,600 L-15,650 L-15,697 L-16,760 L-16,788 L-18,883 L-19,930 L-21,1031 L-22,1087 L-21,1111 L-15,1114 L16,1115 L114,1116 L129,1116 L159,1117 L234,1117 L275,1118 L314,1118 L359,1119 L447,1119 L488,1120 L514,1120 L574,1121 L661,1122 L729,1123 L756,1123 L833,1125 L860,1125 L966,1127 L1034,1127 L1080,1128 L1103,1127 L1106,1122 L1107,1114 L1108,1026 L1110,972 L1110,948 L1111,921 L1113,810 L1116,703 L1117,632 L1118,626 L1119,580 L1120,575 L1119,571 L1120,522 L1121,487 L1122,422 L1123,387 L1123,376 L1124,360 L1124,331 L1125,288 L1125,275 L1126,257 L1126,236 L1129,57 L1129,44 L1128,24 L1124,21 L1121,20 L1047,18 L1019,18 L1012,19 L988,19 L980,18 L934,18 L831,16 L775,16 L724,15 L649,14 L620,14 L531,13 L472,12 L383,12 L339,11 L287,11 L190,9 L118,9 L108,8 Z " fill="#000000" transform="translate(3788,91)"/>
<path d="M0,0 L15,0 L25,1 L60,3 L81,8 L85,10 L94,12 L106,16 L113,19 L129,27 L139,33 L149,40 L159,45 L164,49 L173,55 L185,67 L194,74 L198,79 L203,84 L215,98 L228,115 L236,128 L242,138 L250,155 L254,165 L257,171 L263,190 L269,217 L270,228 L271,231 L272,244 L272,274 L271,294 L268,313 L264,329 L259,346 L252,361 L248,369 L244,379 L237,391 L232,399 L228,401 L226,406 L217,417 L215,417 L213,421 L206,429 L198,436 L191,443 L181,451 L172,458 L158,467 L147,476 L138,481 L130,486 L117,493 L111,497 L105,500 L93,509 L79,521 L68,531 L59,542 L53,551 L45,565 L40,578 L35,603 L33,627 L30,711 L27,717 L22,720 L18,721 L-3,721 L-78,719 L-95,718 L-105,715 L-107,713 L-108,707 L-107,646 L-105,617 L-104,598 L-100,571 L-99,568 L-97,552 L-91,535 L-88,527 L-85,518 L-80,506 L-72,490 L-61,473 L-53,462 L-47,454 L-36,441 L-31,436 L-26,431 L-18,424 L-13,419 L-3,410 L7,403 L12,399 L20,395 L28,389 L38,382 L55,373 L66,366 L77,358 L85,352 L96,344 L111,330 L116,321 L121,312 L126,301 L129,288 L131,276 L132,270 L132,260 L130,238 L125,221 L120,209 L114,199 L107,190 L98,180 L91,172 L71,158 L60,153 L42,147 L4,145 L-7,147 L-28,153 L-42,160 L-52,167 L-62,174 L-70,182 L-79,193 L-85,202 L-90,210 L-99,237 L-102,250 L-104,256 L-104,269 L-108,277 L-110,278 L-168,277 L-177,277 L-181,276 L-200,276 L-230,275 L-236,272 L-240,265 L-240,250 L-236,214 L-230,194 L-224,174 L-218,159 L-210,142 L-204,131 L-195,115 L-186,102 L-179,94 L-169,84 L-161,73 L-153,65 L-143,59 L-131,48 L-119,41 L-109,34 L-97,29 L-85,23 L-73,18 L-67,15 L-58,13 L-45,8 L-28,5 L-15,2 Z M128,478 L128,482 L131,482 L130,478 Z " fill="#000000" transform="translate(428,109)"/>
<path d="M0,0 L18,0 L30,2 L41,8 L51,14 L59,21 L67,37 L73,51 L75,66 L75,79 L71,97 L63,113 L56,121 L49,127 L38,133 L29,137 L19,138 L-1,138 L-13,135 L-25,128 L-35,121 L-38,117 L-38,114 L-42,112 L-49,102 L-54,90 L-58,69 L-58,56 L-55,45 L-51,37 L-48,31 L-39,21 L-32,13 L-22,7 L-10,2 Z " fill="#000000" transform="translate(4092,169)"/>
<path d="M0,0 L18,0 L24,2 L32,7 L40,14 L46,23 L48,29 L48,40 L44,45 L38,44 L34,38 L30,30 L26,24 L12,19 L2,19 L-7,24 L-16,34 L-19,44 L-20,70 L-21,74 L-22,111 L-23,122 L-23,144 L-24,150 L-25,172 L-24,181 L-25,186 L-26,226 L-27,240 L-26,247 L-26,268 L-25,279 L-19,287 L-11,291 L-8,292 L2,292 L12,287 L19,277 L25,269 L32,270 L40,285 L48,292 L53,294 L61,294 L71,290 L78,283 L82,274 L88,270 L93,270 L96,274 L95,281 L93,291 L88,307 L78,341 L73,357 L70,369 L65,381 L58,407 L54,418 L49,436 L39,468 L34,486 L32,491 L30,500 L20,532 L16,546 L12,561 L8,572 L6,581 L2,596 L-7,623 L-11,640 L-16,652 L-19,663 L-24,683 L-31,705 L-36,722 L-43,744 L-45,754 L-47,811 L-48,830 L-49,848 L-51,853 L-57,855 L-62,852 L-63,850 L-63,837 L-62,810 L-61,804 L-60,782 L-61,747 L-64,728 L-68,715 L-70,703 L-71,701 L-72,689 L-74,683 L-77,667 L-82,641 L-86,625 L-87,615 L-89,612 L-93,593 L-96,581 L-102,555 L-104,544 L-110,519 L-113,508 L-114,496 L-119,480 L-121,468 L-125,453 L-127,443 L-133,411 L-137,395 L-140,382 L-142,369 L-146,356 L-148,345 L-154,317 L-158,300 L-160,288 L-164,273 L-164,266 L-159,263 L-152,265 L-148,270 L-144,280 L-135,286 L-128,289 L-120,288 L-111,283 L-105,274 L-101,268 L-97,265 L-92,265 L-87,271 L-84,279 L-82,285 L-76,287 L-70,290 L-58,288 L-52,285 L-45,274 L-42,263 L-41,256 L-40,211 L-39,187 L-38,146 L-36,129 L-36,95 L-34,50 L-33,33 L-29,20 L-23,12 L-14,5 L-5,1 Z M-109,301 L-118,304 L-131,306 L-136,309 L-138,317 L-136,336 L-130,360 L-127,373 L-126,375 L-125,384 L-123,388 L-119,413 L-115,426 L-112,444 L-109,456 L-107,465 L-102,485 L-100,495 L-95,512 L-92,528 L-90,532 L-88,541 L-85,544 L-80,543 L-80,516 L-82,500 L-84,468 L-87,434 L-88,425 L-91,388 L-94,347 L-97,318 L-100,306 L-105,302 Z M-72,305 L-80,310 L-82,315 L-81,338 L-80,360 L-78,371 L-76,396 L-75,405 L-74,437 L-70,469 L-69,486 L-67,499 L-64,523 L-61,528 L-57,528 L-54,523 L-53,518 L-52,489 L-51,482 L-50,456 L-49,432 L-48,424 L-49,405 L-48,396 L-47,379 L-46,350 L-45,328 L-45,318 L-48,309 L-52,306 L-62,305 Z M34,306 L29,311 L27,320 L23,340 L19,358 L17,373 L14,392 L11,409 L9,426 L4,450 L0,483 L-6,515 L-8,534 L-8,541 L-3,542 L1,538 L7,522 L11,507 L18,488 L22,473 L28,455 L34,434 L37,425 L41,411 L46,395 L48,388 L52,379 L57,358 L62,339 L67,326 L67,317 L61,310 L51,308 L41,306 Z M-21,308 L-26,311 L-29,317 L-31,341 L-33,401 L-33,418 L-34,430 L-35,455 L-35,542 L-31,544 L-27,538 L-23,523 L-20,505 L-18,484 L-15,477 L-12,460 L-10,446 L-8,441 L-5,419 L-2,400 L1,390 L3,374 L4,371 L6,353 L10,333 L10,317 L6,311 L5,310 Z " fill="#000000" transform="translate(992,227)"/>
<path d="M0,0 L13,0 L22,6 L27,14 L28,16 L28,30 L23,38 L17,43 L10,45 L0,45 L-10,40 L-14,35 L-16,29 L-16,19 L-12,9 L-4,2 Z " fill="#000000" transform="translate(2060,239)"/>
<path d="M0,0 L20,0 L34,1 L94,2 L103,3 L111,3 L119,5 L140,12 L150,18 L161,27 L168,34 L173,38 L179,47 L185,57 L192,71 L195,83 L198,105 L198,122 L197,180 L197,207 L196,223 L196,260 L193,291 L188,306 L184,316 L174,332 L170,339 L168,339 L166,343 L158,351 L153,355 L150,359 L141,364 L136,367 L130,367 L128,366 L128,335 L131,207 L132,137 L131,134 L129,133 L119,133 L117,135 L116,144 L114,199 L114,211 L113,237 L112,254 L111,335 L109,360 L106,367 L100,369 L57,370 L26,368 L-23,368 L-33,366 L-37,363 L-38,356 L-38,348 L-36,342 L-35,333 L-34,301 L-32,183 L-32,129 L-34,128 L-41,128 L-46,131 L-47,153 L-48,250 L-50,280 L-51,308 L-52,354 L-53,363 L-54,364 L-61,363 L-66,359 L-72,355 L-85,342 L-91,335 L-91,333 L-93,333 L-103,315 L-109,300 L-114,280 L-115,263 L-115,249 L-114,225 L-113,213 L-113,169 L-114,154 L-113,148 L-111,94 L-106,70 L-102,60 L-98,51 L-94,43 L-88,38 L-81,30 L-69,18 L-58,11 L-46,6 L-37,3 L-24,1 Z " fill="#000000" transform="translate(4055,353)"/>
<path d="M0,0 L24,0 L33,5 L44,13 L51,22 L55,30 L57,37 L58,38 L59,54 L57,64 L50,78 L40,89 L29,96 L16,99 L0,99 L-10,95 L-20,90 L-27,83 L-35,73 L-39,63 L-41,54 L-41,42 L-37,29 L-30,18 L-23,12 L-9,3 Z " fill="#000000" transform="translate(2942,432)"/>
<path d="M0,0 L19,1 L31,7 L39,13 L48,24 L52,35 L54,46 L54,56 L50,70 L40,84 L31,93 L16,99 L-3,99 L-15,95 L-20,91 L-29,84 L-36,75 L-41,65 L-43,60 L-44,46 L-40,30 L-31,17 L-26,12 L-23,9 L-8,2 Z " fill="#000000" transform="translate(3304,438)"/>
<path d="M0,0 L76,0 L92,2 L104,9 L109,13 L116,23 L121,34 L123,52 L124,74 L128,80 L138,82 L174,83 L193,83 L229,82 L257,83 L276,85 L297,94 L308,103 L319,115 L327,131 L331,140 L332,146 L333,168 L333,218 L332,264 L332,348 L331,385 L331,412 L330,435 L326,451 L320,464 L312,475 L308,480 L300,487 L290,493 L275,499 L271,501 L110,501 L92,502 L87,501 L-195,501 L-222,500 L-231,498 L-247,491 L-253,487 L-261,481 L-271,469 L-277,460 L-279,455 L-281,443 L-282,439 L-283,424 L-283,358 L-282,298 L-282,285 L-281,267 L-281,196 L-280,149 L-279,137 L-271,121 L-265,112 L-258,103 L-250,96 L-238,89 L-228,85 L-219,83 L-217,82 L-205,81 L-87,81 L-76,78 L-73,74 L-71,65 L-71,52 L-67,28 L-60,18 L-51,9 L-36,2 L-33,1 Z M-10,26 L-27,27 L-34,29 L-41,36 L-43,44 L-43,67 L-41,76 L-36,81 L-34,82 L21,83 L74,83 L86,82 L93,76 L95,58 L94,46 L93,39 L87,31 L76,27 L58,26 Z " fill="#000000" transform="translate(1845,494)"/>
<path d="M0,0 L54,1 L88,2 L106,6 L118,13 L130,24 L135,29 L141,36 L148,49 L153,65 L154,74 L154,126 L153,181 L152,208 L149,223 L140,244 L125,260 L116,267 L108,271 L96,274 L94,284 L93,310 L92,364 L91,404 L90,443 L90,474 L89,531 L89,540 L86,550 L79,559 L69,565 L56,565 L47,561 L35,550 L32,548 L27,548 L21,556 L13,562 L8,564 L-5,564 L-13,560 L-18,555 L-18,553 L-20,553 L-24,544 L-26,532 L-25,468 L-24,447 L-22,342 L-21,300 L-21,288 L-26,278 L-33,271 L-43,264 L-60,247 L-67,236 L-73,222 L-76,208 L-76,133 L-75,126 L-75,95 L-73,70 L-71,64 L-69,54 L-60,34 L-51,24 L-43,15 L-29,7 L-22,4 L-11,2 L-9,1 Z " fill="#000000" transform="translate(2908,564)"/>
<path d="M0,0 L20,0 L39,3 L58,11 L70,17 L75,22 L84,31 L86,36 L90,38 L95,44 L99,51 L102,56 L109,73 L113,92 L113,113 L110,128 L104,147 L95,164 L93,169 L93,176 L98,184 L106,191 L113,198 L122,209 L131,222 L139,238 L142,247 L146,258 L145,265 L142,266 L9,266 L-24,265 L-38,264 L-50,264 L-69,265 L-98,265 L-129,263 L-131,261 L-131,253 L-127,242 L-116,222 L-104,205 L-97,196 L-89,189 L-76,178 L-74,173 L-74,165 L-85,142 L-90,125 L-91,120 L-91,97 L-89,78 L-83,60 L-72,44 L-65,34 L-58,26 L-52,22 L-36,12 L-16,4 L-8,2 Z " fill="#000000" transform="translate(3295,569)"/>
<path d="M0,0 L10,1 L22,7 L31,14 L39,28 L42,37 L44,47 L45,61 L48,68 L59,73 L93,73 L117,74 L123,74 L129,79 L131,87 L131,108 L130,141 L129,159 L128,219 L127,226 L127,252 L126,266 L125,333 L124,349 L122,438 L119,447 L115,449 L78,449 L56,448 L13,448 L5,447 L-42,446 L-69,446 L-92,445 L-103,444 L-139,444 L-144,440 L-145,438 L-145,329 L-143,312 L-141,255 L-139,192 L-138,185 L-137,146 L-136,85 L-133,71 L-128,68 L-123,69 L-102,69 L-87,70 L-59,70 L-53,66 L-49,58 L-46,36 L-42,27 L-36,17 L-30,10 L-24,6 L-15,2 Z M-6,18 L-15,21 L-21,25 L-28,33 L-31,40 L-33,58 L-30,66 L-26,70 L-22,72 L-6,73 L17,73 L25,67 L27,62 L28,56 L28,45 L25,33 L15,22 L6,18 Z M-109,86 L-117,91 L-120,97 L-121,105 L-123,166 L-124,172 L-125,237 L-126,250 L-127,300 L-128,331 L-128,381 L-129,390 L-129,404 L-128,418 L-125,423 L-117,427 L-103,428 L-33,428 L-23,429 L8,429 L13,430 L52,430 L73,431 L87,433 L100,430 L105,420 L107,414 L108,354 L110,328 L110,299 L111,282 L111,244 L113,227 L114,174 L115,169 L115,112 L112,95 L107,91 L103,90 L61,89 L32,88 L-6,88 L-38,87 L-56,87 L-87,86 Z M-47,434 L-48,436 L-45,436 L-45,434 Z " fill="#000000" transform="translate(688,632)"/>
<path d="M0,0 L58,0 L63,3 L64,4 L64,24 L63,42 L62,89 L61,127 L60,181 L58,228 L57,263 L57,280 L56,286 L56,299 L55,325 L55,338 L54,360 L49,368 L43,373 L30,377 L21,377 L8,373 L2,369 L-6,358 L-9,351 L-11,344 L-11,284 L-10,268 L-9,236 L-9,193 L-8,128 L-7,117 L-7,82 L-6,38 L-5,12 L-3,2 Z " fill="#000000" transform="translate(4021,742)"/>
<path d="M0,0 L46,1 L53,3 L56,5 L57,23 L56,111 L55,143 L54,182 L54,238 L53,257 L53,315 L52,323 L51,344 L46,360 L39,368 L34,372 L26,376 L20,377 L11,377 L1,373 L-9,368 L-16,359 L-19,350 L-18,338 L-17,332 L-14,278 L-13,235 L-11,174 L-10,137 L-8,61 L-7,46 L-6,12 L-4,2 Z " fill="#000000" transform="translate(4112,743)"/>
<path d="M0,0 L39,0 L55,1 L59,4 L59,62 L57,136 L56,218 L55,249 L54,265 L51,274 L45,279 L41,281 L32,281 L20,274 L14,275 L7,280 L4,281 L-4,281 L-12,276 L-16,271 L-18,263 L-18,214 L-17,199 L-17,182 L-16,148 L-15,87 L-14,79 L-13,5 L-10,1 Z " fill="#000000" transform="translate(3279,852)"/>
<path d="M0,0 L14,0 L29,2 L39,5 L57,15 L69,24 L77,34 L86,49 L92,64 L94,71 L95,79 L95,96 L93,112 L88,125 L83,135 L74,148 L69,154 L57,163 L51,167 L36,174 L20,178 L-1,178 L-16,175 L-29,170 L-41,163 L-49,157 L-60,146 L-66,137 L-72,128 L-75,121 L-78,108 L-79,99 L-79,76 L-77,66 L-71,48 L-63,35 L-56,27 L-47,17 L-37,11 L-26,6 L-16,3 L-7,1 Z " fill="#000000" transform="translate(378,904)"/>
</svg>
