<?xml version="1.0" encoding="UTF-8"?>
<!-- Generator: visioncortex VTracer 0.6.12 -->
<svg version="1.1" xmlns="http://www.w3.org/2000/svg" width="4929" height="1230">
<path d="M0,0 L25,1 L159,1 L163,0 L187,0 L200,1 L216,0 L233,1 L241,0 L313,1 L319,2 L337,3 L351,6 L358,9 L371,14 L377,16 L391,24 L396,28 L409,38 L417,45 L425,52 L434,63 L443,75 L451,88 L459,108 L465,129 L468,145 L470,165 L470,221 L469,424 L469,536 L468,628 L468,744 L469,805 L469,983 L466,1006 L462,1024 L456,1040 L452,1050 L444,1066 L438,1075 L431,1084 L427,1090 L419,1097 L414,1102 L407,1108 L394,1118 L378,1128 L363,1135 L354,1139 L337,1143 L320,1145 L294,1146 L284,1145 L192,1146 L76,1146 L46,1147 L-21,1147 L-82,1148 L-153,1148 L-196,1149 L-243,1149 L-263,1150 L-346,1150 L-349,1151 L-398,1151 L-408,1152 L-422,1152 L-427,1151 L-528,1151 L-559,1147 L-574,1142 L-583,1138 L-599,1130 L-609,1123 L-618,1117 L-624,1112 L-624,1110 L-628,1108 L-638,1099 L-647,1088 L-654,1078 L-660,1069 L-668,1053 L-675,1032 L-679,1016 L-680,1000 L-681,994 L-682,905 L-682,588 L-681,501 L-681,385 L-680,371 L-679,363 L-680,357 L-680,163 L-679,142 L-676,126 L-671,110 L-665,97 L-661,87 L-654,76 L-645,65 L-634,52 L-625,43 L-611,32 L-598,23 L-589,19 L-565,9 L-554,6 L-535,3 L-479,3 L-419,2 L-226,2 L-221,1 L-195,2 L-132,1 L-4,1 Z M-286,14 L-295,15 L-346,15 L-375,16 L-379,15 L-393,15 L-413,16 L-499,16 L-517,15 L-539,17 L-551,19 L-562,22 L-582,30 L-605,44 L-614,51 L-619,55 L-624,60 L-634,72 L-644,85 L-651,97 L-658,112 L-662,126 L-666,144 L-668,157 L-668,433 L-669,523 L-669,647 L-668,685 L-668,705 L-669,744 L-669,779 L-668,829 L-668,984 L-666,1010 L-663,1027 L-657,1045 L-648,1064 L-642,1072 L-634,1084 L-625,1094 L-617,1101 L-610,1107 L-599,1115 L-593,1119 L-586,1122 L-581,1125 L-564,1131 L-553,1135 L-540,1137 L-532,1138 L-513,1139 L-497,1140 L-474,1140 L-373,1139 L-366,1140 L-363,1139 L-300,1139 L-296,1140 L-292,1139 L-255,1139 L-236,1138 L-215,1138 L-135,1137 L-93,1137 L-85,1136 L35,1136 L85,1135 L146,1135 L236,1134 L303,1134 L328,1132 L346,1128 L370,1118 L391,1106 L404,1095 L416,1083 L419,1080 L431,1064 L440,1048 L448,1028 L452,1012 L454,1000 L455,989 L455,428 L456,397 L455,395 L456,349 L456,170 L454,145 L449,121 L445,112 L440,100 L436,94 L433,86 L426,75 L419,67 L412,59 L405,52 L401,49 L399,49 L397,45 L388,39 L379,34 L363,26 L344,19 L323,15 L273,15 L263,14 L-215,14 L-217,15 Z M460,396 L459,399 L462,398 Z " fill="#000000" transform="translate(3207,36)"/>
<path d="M0,0 L18,1 L46,5 L61,10 L76,17 L94,27 L106,36 L121,50 L131,62 L138,71 L146,84 L154,100 L159,114 L164,139 L166,174 L167,243 L167,267 L168,341 L169,379 L170,426 L171,469 L171,512 L172,670 L173,751 L173,775 L174,865 L174,970 L172,998 L169,1008 L167,1022 L160,1040 L147,1063 L138,1074 L131,1082 L125,1090 L114,1099 L103,1107 L90,1115 L74,1123 L50,1131 L27,1135 L-236,1136 L-308,1137 L-355,1137 L-364,1139 L-369,1137 L-394,1137 L-456,1138 L-532,1138 L-629,1139 L-693,1140 L-758,1141 L-810,1141 L-825,1139 L-841,1136 L-866,1128 L-881,1120 L-890,1115 L-907,1103 L-914,1095 L-919,1090 L-931,1077 L-938,1066 L-944,1056 L-949,1046 L-953,1038 L-959,1017 L-962,996 L-963,900 L-964,775 L-964,756 L-965,746 L-965,643 L-966,458 L-966,343 L-967,263 L-967,179 L-965,147 L-963,131 L-958,116 L-950,96 L-946,90 L-940,79 L-933,69 L-926,60 L-921,55 L-907,41 L-894,32 L-886,26 L-869,18 L-860,14 L-848,10 L-824,6 L-795,3 L-587,3 L-573,2 L-338,2 L-271,1 L-68,1 Z M-270,10 L-365,11 L-448,12 L-493,12 L-533,13 L-629,13 L-731,14 L-792,15 L-822,17 L-852,24 L-875,34 L-883,39 L-890,43 L-905,56 L-916,66 L-922,74 L-930,85 L-936,95 L-947,120 L-952,142 L-954,153 L-955,170 L-956,176 L-956,217 L-955,342 L-955,374 L-954,477 L-954,582 L-953,689 L-953,838 L-952,963 L-952,979 L-950,999 L-944,1023 L-940,1035 L-937,1040 L-929,1056 L-924,1064 L-917,1074 L-908,1084 L-903,1089 L-892,1098 L-881,1106 L-865,1114 L-852,1120 L-839,1124 L-832,1126 L-820,1128 L-794,1130 L-774,1130 L-723,1129 L-586,1129 L-479,1128 L-370,1127 L-335,1127 L-204,1126 L-168,1126 L-151,1125 L10,1125 L15,1124 L29,1123 L52,1118 L73,1111 L94,1100 L101,1094 L111,1086 L119,1078 L125,1073 L135,1059 L141,1050 L150,1031 L159,1002 L163,976 L163,833 L160,673 L160,653 L158,507 L158,488 L157,423 L157,358 L156,308 L155,193 L154,137 L151,130 L145,108 L135,87 L123,69 L114,59 L109,54 L106,53 L106,51 L95,42 L82,33 L72,27 L51,18 L32,13 L16,11 L-2,10 Z " fill="#000000" transform="translate(4722,38)"/>
<path d="M0,0 L691,0 L752,1 L771,0 L782,1 L817,1 L843,3 L859,8 L879,15 L889,21 L899,26 L910,33 L920,42 L925,47 L930,52 L937,59 L943,67 L948,73 L954,82 L961,100 L965,109 L971,129 L975,158 L975,734 L974,763 L975,768 L974,799 L974,810 L975,817 L975,974 L974,1001 L971,1015 L969,1026 L965,1038 L958,1056 L956,1061 L946,1077 L939,1086 L932,1094 L922,1104 L911,1112 L906,1117 L883,1130 L867,1137 L850,1142 L844,1144 L829,1145 L816,1147 L720,1147 L672,1148 L650,1147 L531,1147 L452,1148 L310,1148 L266,1149 L260,1148 L240,1149 L-36,1149 L-55,1145 L-64,1142 L-83,1134 L-98,1126 L-107,1119 L-120,1109 L-127,1103 L-132,1098 L-142,1085 L-149,1074 L-155,1064 L-162,1050 L-168,1035 L-171,1021 L-174,1008 L-176,992 L-176,890 L-175,773 L-175,545 L-176,541 L-176,533 L-175,530 L-174,426 L-174,184 L-173,158 L-171,138 L-167,121 L-162,106 L-153,85 L-140,67 L-131,57 L-122,46 L-112,37 L-98,27 L-90,23 L-82,18 L-70,13 L-61,9 L-43,4 L-27,2 Z M267,10 L264,12 L58,12 L53,13 L44,12 L8,12 L2,13 L-17,13 L-39,16 L-66,25 L-80,31 L-94,40 L-106,49 L-128,71 L-134,80 L-138,85 L-141,92 L-147,104 L-153,120 L-156,131 L-160,157 L-161,174 L-162,273 L-162,507 L-163,533 L-163,955 L-162,996 L-159,1016 L-153,1037 L-146,1053 L-140,1065 L-133,1075 L-126,1084 L-117,1094 L-109,1102 L-96,1111 L-81,1120 L-62,1128 L-50,1132 L-45,1134 L-29,1136 L-7,1137 L55,1137 L81,1136 L103,1136 L113,1137 L123,1136 L214,1136 L249,1135 L264,1135 L270,1136 L325,1136 L338,1135 L364,1136 L413,1135 L777,1135 L819,1134 L835,1132 L848,1129 L858,1127 L867,1123 L873,1121 L889,1113 L895,1109 L900,1105 L906,1101 L919,1089 L932,1076 L939,1065 L948,1049 L951,1044 L957,1026 L961,998 L962,994 L962,882 L963,872 L962,842 L963,778 L963,263 L962,235 L962,154 L956,118 L951,104 L939,82 L931,72 L923,62 L911,50 L906,47 L901,42 L894,38 L894,31 L890,26 L888,26 L887,29 L888,34 L878,29 L868,24 L848,18 L835,15 L824,14 L794,13 L566,13 L499,12 L493,13 L278,13 L272,10 Z " fill="#000000" transform="translate(1467,42)"/>
<path d="M0,0 L22,1 L44,1 L113,2 L128,1 L174,2 L233,2 L240,3 L245,2 L344,2 L393,3 L510,3 L535,4 L617,4 L650,5 L774,5 L804,12 L823,19 L833,24 L848,34 L856,40 L870,52 L880,62 L883,68 L890,77 L902,99 L907,110 L911,121 L916,148 L918,181 L919,332 L919,808 L920,815 L921,927 L921,951 L922,957 L921,966 L920,993 L918,1010 L915,1022 L910,1038 L906,1048 L898,1063 L891,1073 L881,1086 L873,1096 L862,1105 L852,1113 L836,1122 L816,1131 L809,1134 L800,1136 L789,1139 L765,1141 L522,1141 L510,1140 L508,1137 L504,1138 L499,1141 L143,1141 L136,1140 L-61,1140 L-90,1137 L-102,1133 L-112,1129 L-133,1118 L-143,1111 L-152,1104 L-159,1097 L-164,1092 L-170,1087 L-184,1068 L-193,1051 L-198,1041 L-206,1017 L-210,993 L-211,988 L-211,920 L-210,864 L-210,166 L-209,146 L-206,125 L-199,104 L-194,93 L-188,81 L-182,72 L-173,61 L-164,50 L-151,38 L-146,35 L-141,30 L-136,27 L-125,20 L-115,15 L-96,8 L-77,4 L-75,3 L-45,1 L-20,1 Z M-44,12 L-73,14 L-91,18 L-109,25 L-121,30 L-133,38 L-146,48 L-155,56 L-155,58 L-159,60 L-168,71 L-178,86 L-183,95 L-190,112 L-192,118 L-196,134 L-199,162 L-200,182 L-200,584 L-199,702 L-199,871 L-200,914 L-200,951 L-199,985 L-196,1004 L-193,1018 L-189,1029 L-187,1036 L-180,1051 L-171,1066 L-163,1076 L-152,1089 L-141,1097 L-132,1104 L-123,1110 L-93,1123 L-84,1126 L-72,1128 L3,1129 L425,1129 L428,1130 L478,1129 L494,1130 L754,1130 L772,1129 L791,1126 L800,1125 L812,1120 L818,1118 L827,1114 L838,1108 L851,1099 L861,1092 L873,1080 L879,1071 L885,1062 L895,1045 L900,1032 L904,1017 L908,992 L908,980 L909,974 L908,960 L909,941 L908,896 L908,469 L907,388 L907,356 L906,255 L906,185 L905,154 L901,130 L897,118 L890,101 L884,91 L878,79 L869,68 L861,59 L853,52 L839,42 L828,35 L818,30 L806,25 L797,23 L784,19 L761,17 L753,16 L716,15 L653,15 L623,16 L522,16 L441,15 L388,15 L348,14 L240,14 L214,13 L143,13 L128,12 Z " fill="#000000" transform="translate(248,57)"/>
<path d="M0,0 L109,0 L118,1 L123,2 L135,6 L147,13 L156,20 L167,33 L173,47 L178,62 L181,72 L184,82 L194,112 L199,130 L208,159 L214,179 L221,204 L224,215 L225,225 L225,278 L224,346 L224,370 L223,382 L220,385 L216,386 L133,386 L130,383 L126,360 L121,345 L114,333 L107,321 L103,316 L95,309 L88,303 L83,300 L78,296 L67,291 L57,287 L44,285 L36,283 L13,284 L-5,287 L-17,292 L-37,303 L-49,314 L-57,323 L-66,336 L-74,352 L-78,367 L-80,381 L-82,386 L-85,388 L-169,388 L-220,389 L-446,389 L-449,384 L-453,365 L-458,349 L-462,341 L-467,333 L-472,324 L-479,317 L-484,312 L-493,304 L-504,297 L-516,291 L-536,286 L-545,285 L-562,284 L-575,286 L-588,289 L-603,295 L-618,304 L-631,315 L-641,326 L-648,337 L-654,346 L-660,364 L-663,378 L-664,387 L-666,390 L-669,391 L-721,391 L-728,390 L-752,391 L-758,387 L-760,383 L-761,310 L-761,219 L-762,143 L-762,71 L-760,56 L-756,45 L-748,32 L-744,27 L-736,20 L-725,12 L-717,8 L-704,4 L-692,3 L-605,3 L-550,4 L-402,4 L-350,3 L-258,2 L-187,2 L-155,1 L-148,2 L-115,1 L-72,1 Z M104,25 L98,28 L96,33 L95,102 L95,160 L97,170 L99,173 L117,174 L139,174 L178,173 L182,171 L183,164 L180,147 L173,125 L169,110 L165,95 L159,77 L157,68 L149,46 L146,43 L144,43 L142,38 L134,32 L121,27 L112,25 Z M-10,26 L-63,27 L-110,27 L-115,30 L-118,36 L-118,169 L-114,174 L-107,175 L-44,175 L-22,174 L4,175 L13,174 L53,174 L64,173 L67,172 L69,167 L71,120 L71,36 L69,31 L66,28 L62,27 L45,26 Z M-675,29 L-692,30 L-704,34 L-715,42 L-724,51 L-729,61 L-731,69 L-732,84 L-732,161 L-730,170 L-724,175 L-703,176 L-621,176 L-606,177 L-604,176 L-552,175 L-546,171 L-544,162 L-544,36 L-546,32 L-554,29 Z M-154,27 L-228,28 L-260,28 L-304,29 L-313,32 L-316,36 L-317,62 L-317,129 L-316,168 L-313,173 L-311,174 L-293,175 L-164,175 L-146,174 L-142,169 L-141,166 L-140,144 L-139,91 L-140,37 L-143,30 L-150,27 Z M-397,29 L-424,30 L-514,30 L-520,35 L-521,47 L-521,156 L-520,170 L-513,175 L-494,175 L-454,176 L-431,176 L-392,175 L-349,175 L-344,171 L-342,167 L-342,141 L-341,107 L-341,61 L-342,39 L-344,34 L-349,30 Z " fill="#000000" transform="translate(3373,116)"/>
<path d="M0,0 L3,1 L3,3 L0,3 Z " fill="#000000" transform="translate(2925,275)"/>
<path d="M0,0 Z " fill="#000000" transform="translate(2449,277)"/>
<path d="M0,0 L11,0 L27,3 L43,9 L60,19 L64,23 L64,25 L68,27 L76,36 L82,45 L89,61 L91,69 L89,72 L76,71 L47,68 L30,65 L-2,62 L-8,61 L-16,61 L-27,68 L-33,80 L-34,84 L-34,94 L-28,106 L-21,112 L-2,122 L13,130 L29,138 L45,146 L56,152 L61,156 L60,161 L49,169 L36,175 L22,180 L3,182 L-9,182 L-25,178 L-39,172 L-50,165 L-57,160 L-64,152 L-71,145 L-81,127 L-86,111 L-87,100 L-87,85 L-84,67 L-76,48 L-69,38 L-60,28 L-53,20 L-37,10 L-22,4 L-17,2 Z " fill="#000000" transform="translate(3907,415)"/>
<path d="M0,0 L13,0 L30,2 L37,5 L51,12 L58,18 L64,22 L72,31 L79,41 L85,54 L87,59 L89,73 L89,91 L85,111 L77,127 L73,133 L64,144 L57,150 L48,156 L42,160 L34,163 L29,165 L16,167 L-8,167 L-26,161 L-42,151 L-51,144 L-60,132 L-66,123 L-71,109 L-72,108 L-74,91 L-74,78 L-71,61 L-66,47 L-59,36 L-52,26 L-44,19 L-26,7 L-13,2 Z " fill="#000000" transform="translate(3390,418)"/>
<path d="M0,0 L19,0 L35,3 L46,7 L54,12 L60,15 L70,25 L76,30 L85,44 L91,59 L93,66 L94,77 L94,92 L92,102 L86,119 L79,131 L73,139 L69,143 L67,143 L67,145 L59,151 L45,160 L34,164 L16,166 L13,167 L2,167 L-7,166 L-22,161 L-31,156 L-40,150 L-45,146 L-50,143 L-54,137 L-62,126 L-69,111 L-72,101 L-73,83 L-71,67 L-68,56 L-60,39 L-54,32 L-48,24 L-37,15 L-23,7 L-5,1 Z " fill="#000000" transform="translate(2805,422)"/>
<path d="M0,0 L248,0 L327,1 L345,1 L380,2 L396,3 L410,7 L422,14 L432,23 L437,28 L443,35 L449,47 L453,59 L459,80 L466,99 L468,108 L474,126 L481,146 L486,163 L492,181 L495,192 L497,197 L501,214 L503,221 L505,237 L505,345 L504,388 L502,391 L486,392 L416,392 L411,389 L409,383 L407,370 L402,354 L394,338 L387,327 L382,321 L380,320 L380,318 L376,316 L371,310 L360,302 L349,296 L341,292 L330,288 L311,285 L291,285 L268,289 L252,296 L243,302 L233,310 L218,324 L205,346 L201,357 L197,372 L195,384 L193,389 L191,390 L48,390 L39,389 L32,390 L-21,390 L-37,391 L-50,390 L-60,390 L-68,391 L-75,390 L-154,391 L-173,390 L-176,387 L-178,369 L-184,349 L-192,333 L-196,327 L-207,314 L-220,303 L-230,297 L-238,292 L-257,286 L-267,284 L-290,283 L-301,285 L-316,289 L-332,296 L-343,303 L-358,317 L-365,325 L-373,337 L-379,350 L-382,356 L-386,374 L-388,387 L-390,390 L-393,391 L-419,392 L-458,391 L-477,391 L-480,387 L-481,366 L-481,295 L-482,245 L-483,85 L-482,64 L-478,51 L-471,37 L-464,28 L-459,22 L-446,13 L-439,9 L-430,6 L-426,4 L-414,3 L-372,2 L-340,2 L-315,1 L-86,1 Z M46,25 L30,26 L-32,26 L-42,28 L-44,30 L-45,35 L-46,80 L-46,165 L-43,172 L-40,173 L-17,173 L67,174 L124,173 L129,171 L131,169 L133,155 L133,32 L131,28 L127,26 L94,26 Z M179,25 L162,26 L157,29 L155,36 L154,62 L154,167 L157,172 L172,174 L240,174 L270,175 L330,175 L341,173 L344,169 L345,165 L346,131 L346,32 L341,27 L338,26 L276,25 Z M382,25 L373,28 L371,33 L370,41 L370,168 L376,175 L459,175 L463,171 L462,164 L456,143 L452,129 L446,110 L441,92 L434,70 L427,49 L419,39 L411,33 L399,27 Z M-352,27 L-375,28 L-399,28 L-416,29 L-424,33 L-432,36 L-442,45 L-449,55 L-452,61 L-453,67 L-454,91 L-454,165 L-451,172 L-447,175 L-331,175 L-305,174 L-282,175 L-273,171 L-271,167 L-270,127 L-270,37 L-272,30 L-277,27 Z M-211,26 L-236,27 L-243,29 L-247,34 L-248,39 L-248,166 L-246,171 L-241,173 L-210,174 L-80,174 L-74,171 L-72,167 L-71,149 L-70,45 L-71,33 L-75,28 L-77,27 L-106,26 L-160,26 L-198,27 Z " fill="#000000" transform="translate(1856,446)"/>
<path d="M0,0 L273,0 L277,3 L277,11 L273,15 L128,16 L89,16 L24,17 L-94,18 L-375,18 L-378,15 L-378,7 L-373,3 L-305,3 L-209,2 L-139,2 L-64,1 L-7,1 Z " fill="#000000" transform="translate(4487,447)"/>
<path d="M0,0 L22,0 L26,2 L27,4 L28,48 L31,53 L33,54 L67,55 L73,59 L77,65 L84,74 L95,88 L108,104 L118,117 L124,125 L131,134 L139,145 L146,153 L154,164 L163,176 L174,190 L181,200 L187,207 L193,216 L200,224 L208,226 L260,226 L285,227 L346,227 L348,228 L369,228 L379,229 L399,238 L409,245 L412,248 L412,250 L416,252 L422,260 L430,275 L434,291 L434,314 L433,383 L432,390 L427,394 L411,394 L342,392 L339,389 L336,373 L330,353 L321,334 L316,328 L310,320 L301,311 L291,304 L278,296 L264,291 L256,288 L237,286 L216,287 L200,290 L190,294 L175,301 L167,307 L156,316 L147,326 L140,335 L132,351 L128,362 L122,388 L121,390 L116,391 L52,390 L18,389 L9,390 L-5,389 L-101,389 L-231,388 L-238,387 L-246,387 L-248,382 L-250,367 L-252,358 L-258,341 L-263,331 L-270,321 L-275,314 L-280,309 L-285,304 L-293,298 L-302,292 L-318,284 L-337,279 L-343,278 L-366,278 L-391,284 L-407,292 L-417,298 L-428,307 L-433,311 L-437,317 L-444,325 L-452,339 L-457,352 L-461,368 L-463,380 L-467,385 L-506,386 L-553,385 L-556,380 L-556,316 L-555,286 L-552,270 L-547,257 L-538,245 L-530,238 L-526,234 L-512,226 L-499,222 L-495,221 L-407,221 L-359,220 L-354,215 L-347,198 L-343,186 L-338,175 L-332,160 L-326,144 L-320,129 L-314,113 L-311,107 L-308,98 L-305,92 L-303,86 L-298,72 L-292,58 L-287,52 L-279,51 L-191,52 L-152,53 L-92,53 L-87,54 L-51,53 L-36,54 L-11,54 L-8,50 L-6,40 L-5,11 L-4,2 Z M-220,77 L-226,81 L-232,93 L-237,106 L-243,123 L-248,135 L-253,148 L-259,163 L-263,174 L-271,194 L-278,214 L-277,220 L-275,222 L-250,223 L-209,223 L-204,222 L-199,224 L-114,223 L-109,218 L-108,162 L-108,127 L-107,106 L-108,85 L-110,80 L-112,79 L-126,78 L-174,77 Z M-79,79 L-83,83 L-84,87 L-85,117 L-85,216 L-82,222 L-78,224 L-6,224 L-2,220 L-1,218 L0,201 L1,180 L2,175 L13,175 L18,170 L19,154 L18,138 L13,134 L8,133 L-1,133 L-5,130 L-6,127 L-6,120 L-5,116 L-3,115 L22,115 L25,117 L26,167 L28,173 L31,175 L68,176 L81,176 L85,178 L86,180 L87,218 L90,224 L100,226 L159,226 L163,223 L162,216 L153,204 L146,195 L139,185 L129,172 L122,163 L110,147 L103,138 L95,129 L84,113 L78,106 L71,97 L64,87 L56,80 L1,79 Z " fill="#000000" transform="translate(667,461)"/>
<path d="M0,0 L80,0 L86,4 L92,12 L100,26 L107,38 L112,45 L114,46 L153,47 L306,47 L321,48 L336,52 L353,59 L364,66 L371,73 L378,78 L385,87 L393,98 L398,105 L403,118 L404,125 L408,133 L411,148 L411,170 L409,187 L402,208 L394,222 L387,232 L379,240 L375,245 L370,248 L365,253 L347,263 L331,269 L326,270 L310,271 L263,272 L237,272 L200,273 L196,274 L194,289 L192,294 L190,295 L173,296 L168,291 L167,276 L162,273 L64,273 L-21,274 L-44,275 L-49,279 L-51,294 L-56,298 L-71,298 L-75,294 L-75,283 L-77,278 L-82,275 L-109,275 L-128,274 L-136,272 L-152,264 L-162,255 L-169,244 L-173,238 L-178,219 L-180,215 L-184,213 L-202,203 L-221,193 L-245,180 L-267,168 L-275,164 L-297,152 L-309,146 L-328,136 L-347,126 L-358,120 L-380,108 L-408,93 L-428,84 L-443,76 L-462,66 L-487,53 L-503,45 L-508,42 L-513,36 L-514,32 L-514,22 L-511,15 L-508,10 L-502,7 L-482,7 L-462,9 L-453,11 L-439,12 L-411,16 L-398,19 L-382,21 L-363,24 L-342,27 L-322,30 L-300,32 L-271,36 L-255,38 L-228,42 L-209,45 L-193,47 L-172,48 L-110,48 L-47,47 L-35,46 L-30,43 L-22,27 L-12,9 L-5,3 Z M337,64 L336,68 L341,69 L342,65 Z M148,68 L137,69 L133,72 L132,76 L132,141 L133,153 L135,157 L139,159 L149,160 L198,160 L215,161 L238,160 L245,158 L247,156 L248,152 L248,102 L247,74 L243,69 L239,68 Z M273,68 L268,72 L267,84 L267,139 L268,153 L271,158 L277,160 L357,160 L391,159 L396,157 L397,155 L397,146 L392,128 L385,114 L375,101 L369,94 L367,94 L366,91 L356,83 L339,74 L324,69 L318,68 Z M-129,69 L-135,71 L-138,75 L-139,85 L-139,150 L-136,157 L-128,160 L-29,160 L-24,156 L-23,149 L-23,87 L-24,76 L-28,70 L-30,69 Z M55,68 L3,69 L-2,72 L-3,74 L-4,95 L-3,145 L-2,154 L1,158 L11,160 L103,160 L109,157 L110,156 L111,136 L110,101 L111,88 L109,75 L105,70 L102,69 L69,68 Z " fill="#000000" transform="translate(4396,478)"/>
<path d="M0,0 L6,1 L10,6 L11,12 L12,44 L13,52 L15,54 L23,55 L52,56 L60,64 L75,84 L83,93 L93,106 L101,116 L108,125 L116,136 L126,148 L135,160 L142,168 L149,178 L155,185 L164,197 L171,206 L176,210 L182,219 L187,222 L348,222 L361,224 L374,229 L385,236 L391,241 L398,249 L404,257 L411,274 L413,286 L412,369 L411,380 L408,383 L330,384 L322,382 L319,378 L316,360 L311,345 L305,331 L296,320 L292,314 L281,304 L273,298 L261,291 L241,283 L221,281 L201,282 L187,285 L167,293 L158,299 L144,308 L137,316 L128,327 L124,333 L114,355 L110,372 L108,382 L104,385 L83,386 L-183,386 L-240,387 L-254,387 L-259,384 L-260,381 L-262,366 L-267,350 L-272,337 L-278,328 L-286,317 L-301,302 L-311,296 L-327,288 L-347,282 L-364,280 L-378,281 L-404,287 L-421,295 L-430,301 L-440,309 L-446,314 L-454,324 L-461,335 L-465,341 L-471,358 L-474,370 L-476,382 L-480,386 L-511,387 L-568,386 L-572,382 L-573,374 L-573,291 L-570,277 L-565,264 L-556,250 L-546,241 L-533,232 L-517,226 L-508,225 L-503,224 L-374,224 L-369,221 L-362,205 L-356,189 L-348,170 L-344,159 L-341,156 L-339,147 L-335,137 L-332,128 L-328,118 L-320,98 L-317,89 L-311,75 L-307,63 L-303,58 L-300,57 L-274,56 L-167,56 L-162,58 L-157,57 L-155,56 L-70,56 L-42,55 L-33,55 L-26,53 L-24,51 L-23,5 L-21,1 Z M-215,82 L-231,83 L-238,85 L-243,93 L-248,107 L-255,125 L-261,141 L-266,155 L-271,165 L-274,174 L-277,181 L-281,194 L-285,204 L-288,213 L-288,221 L-284,224 L-190,225 L-175,224 L-136,224 L-126,223 L-123,218 L-121,208 L-121,96 L-124,86 L-126,84 L-131,83 L-144,83 L-166,82 Z M-51,82 L-92,83 L-97,88 L-98,111 L-98,199 L-96,220 L-93,223 L-73,224 L-29,224 L-19,223 L-16,220 L-15,210 L-14,183 L-12,177 L-11,176 L-1,175 L2,171 L3,163 L3,148 L1,139 L-4,136 L-17,136 L-21,131 L-21,119 L-18,116 L8,116 L10,118 L11,134 L12,167 L14,172 L18,175 L68,175 L70,176 L72,188 L72,201 L73,217 L76,222 L81,224 L124,224 L142,223 L144,221 L143,215 L133,200 L127,192 L120,183 L111,171 L103,161 L96,152 L92,146 L82,135 L78,129 L67,116 L55,99 L48,91 L43,85 L34,82 Z " fill="#000000" transform="translate(3181,644)"/>
<path d="M0,0 L18,0 L31,1 L50,9 L60,15 L65,18 L72,24 L83,38 L88,46 L94,62 L97,77 L97,89 L93,108 L87,123 L80,134 L65,150 L51,158 L32,165 L30,166 L16,167 L5,167 L-10,164 L-22,159 L-34,153 L-45,142 L-50,138 L-61,121 L-65,110 L-68,98 L-69,88 L-69,78 L-66,61 L-62,48 L-55,37 L-47,26 L-39,19 L-32,13 L-25,9 L-15,4 L-2,1 Z " fill="#000000" transform="translate(2144,752)"/>
<path d="M0,0 L14,0 L24,2 L32,5 L46,11 L56,18 L69,31 L75,40 L81,52 L85,66 L86,71 L86,95 L83,108 L80,117 L71,132 L59,145 L49,153 L44,157 L23,166 L10,168 L-7,168 L-18,164 L-26,162 L-40,155 L-46,151 L-57,140 L-63,133 L-69,122 L-73,113 L-76,101 L-77,82 L-75,67 L-72,55 L-66,41 L-54,25 L-40,14 L-28,7 L-12,2 Z " fill="#000000" transform="translate(1569,752)"/>
<path d="M0,0 L19,0 L32,4 L43,8 L58,18 L67,26 L77,40 L83,51 L88,70 L89,75 L88,93 L84,109 L77,125 L67,138 L56,148 L45,155 L30,161 L15,164 L-5,164 L-20,160 L-33,155 L-48,145 L-56,137 L-64,127 L-71,112 L-75,97 L-76,92 L-76,76 L-72,58 L-67,46 L-60,34 L-51,23 L-45,19 L-38,13 L-24,6 L-14,2 Z " fill="#000000" transform="translate(307,766)"/>
<path d="M0,0 L11,0 L28,3 L40,8 L56,18 L60,23 L66,28 L73,39 L79,49 L84,63 L86,74 L86,94 L83,107 L78,121 L72,132 L64,141 L55,148 L43,155 L39,158 L25,162 L15,164 L1,164 L-16,162 L-30,157 L-42,150 L-52,142 L-61,133 L-70,120 L-75,108 L-78,95 L-78,72 L-74,56 L-68,41 L-58,28 L-56,28 L-55,25 L-47,18 L-37,11 L-28,6 L-16,2 Z " fill="#000000" transform="translate(894,771)"/>
<path d="M0,0 L11,0 L21,7 L27,19 L27,28 L21,39 L13,45 L7,47 L-2,47 L-12,42 L-17,34 L-18,32 L-18,17 L-12,7 L-7,3 Z " fill="#000000" transform="translate(4541,789)"/>
<path d="M0,0 L11,0 L19,4 L26,12 L28,17 L28,28 L24,37 L17,43 L10,47 L2,47 L-4,45 L-10,41 L-16,32 L-17,29 L-17,17 L-12,7 L-3,1 Z " fill="#000000" transform="translate(4602,789)"/>
<path d="M0,0 L7,0 L14,3 L22,9 L25,15 L26,23 L23,35 L16,42 L8,46 L-4,46 L-15,39 L-19,31 L-19,17 L-13,7 Z " fill="#000000" transform="translate(4329,791)"/>
<path d="M0,0 Z " fill="#000000" transform="translate(4616,915)"/>
<path d="M0,0 L15,0 L32,1 L48,9 L59,16 L69,25 L81,42 L85,52 L89,66 L90,72 L90,94 L86,111 L80,122 L74,132 L63,144 L57,150 L47,155 L35,161 L18,165 L2,165 L-10,163 L-23,159 L-33,153 L-39,149 L-44,145 L-49,140 L-59,128 L-66,115 L-71,98 L-72,79 L-70,65 L-65,49 L-61,41 L-53,29 L-45,22 L-38,15 L-24,7 L-12,2 Z " fill="#000000" transform="translate(3386,947)"/>
<path d="M0,0 L16,0 L33,4 L49,12 L58,19 L68,28 L78,43 L83,54 L87,70 L87,94 L83,110 L79,119 L72,130 L67,137 L62,142 L50,152 L38,158 L29,161 L23,163 L8,165 L-11,164 L-22,160 L-31,157 L-43,151 L-57,139 L-66,128 L-71,119 L-75,112 L-79,99 L-80,85 L-78,66 L-73,51 L-67,40 L-60,31 L-52,22 L-42,14 L-31,8 L-28,6 L-19,3 L-9,1 Z " fill="#000000" transform="translate(2811,949)"/>
<path d="M0,0 L4,1 L4,6 L2,8 L-2,7 L-2,2 Z " fill="#000000" transform="translate(1232,1108)"/>
</svg>
