<?xml version="1.0" encoding="UTF-8"?>
<!-- Generator: visioncortex VTracer 0.6.12 -->
<svg version="1.1" xmlns="http://www.w3.org/2000/svg" width="3963" height="1248">
<path d="M0,0 L6,1 L10,3 L28,4 L119,3 L234,3 L242,4 L253,3 L384,4 L532,4 L574,5 L652,5 L671,4 L679,5 L733,4 L799,4 L852,5 L895,5 L942,4 L1009,5 L1032,5 L1039,6 L1047,5 L1051,6 L1155,6 L1158,10 L1158,20 L1157,25 L1156,45 L1155,132 L1153,245 L1152,323 L1151,368 L1150,416 L1149,488 L1148,524 L1147,614 L1146,692 L1143,871 L1142,914 L1142,954 L1141,1003 L1140,1083 L1140,1147 L1135,1152 L1113,1152 L1105,1153 L1097,1151 L1012,1151 L933,1150 L830,1150 L766,1149 L735,1149 L729,1148 L726,1149 L706,1150 L673,1149 L667,1148 L664,1149 L618,1149 L607,1150 L494,1149 L449,1149 L375,1148 L61,1148 L51,1147 L-12,1147 L-19,1146 L-23,1142 L-22,1129 L-20,1075 L-19,1017 L-18,919 L-18,908 L-17,889 L-17,841 L-16,786 L-15,697 L-15,660 L-14,595 L-13,547 L-12,448 L-11,443 L-11,404 L-10,372 L-8,208 L-8,183 L-7,141 L-6,63 L-6,23 L-7,18 L-7,9 L-4,2 Z M267,11 L256,15 L11,15 L7,19 L6,21 L5,40 L5,63 L4,82 L4,119 L3,135 L3,190 L2,249 L2,284 L1,323 L1,360 L0,382 L0,406 L-1,461 L-1,475 L-3,545 L-3,575 L-4,721 L-5,749 L-6,804 L-6,834 L-7,914 L-7,931 L-8,968 L-10,1096 L-10,1131 L-6,1135 L97,1136 L324,1136 L375,1137 L419,1136 L433,1137 L524,1137 L542,1138 L717,1138 L748,1137 L825,1138 L928,1139 L1124,1139 L1128,1134 L1129,1092 L1129,1049 L1130,1011 L1130,976 L1131,944 L1131,924 L1132,917 L1132,840 L1134,787 L1134,746 L1135,698 L1135,672 L1136,666 L1136,583 L1137,567 L1137,516 L1138,470 L1139,444 L1139,400 L1140,373 L1140,343 L1141,318 L1141,201 L1142,192 L1143,159 L1144,90 L1144,22 L1139,17 L1088,17 L1079,18 L1066,17 L1010,17 L935,16 L906,16 L889,17 L865,17 L848,16 L730,16 L722,15 L718,16 L698,15 L691,16 L464,16 L431,15 L423,16 L391,15 L276,15 L270,11 Z " fill="#000000" transform="translate(60,35)"/>
<path d="M0,0 L54,0 L64,1 L106,1 L158,2 L183,2 L233,3 L238,4 L242,3 L287,3 L377,5 L438,6 L450,7 L707,7 L734,8 L752,8 L796,9 L838,9 L852,10 L856,13 L861,13 L864,10 L894,10 L926,11 L983,11 L1008,12 L1057,13 L1124,13 L1131,11 L1137,14 L1139,19 L1141,43 L1140,90 L1139,116 L1139,127 L1138,136 L1138,190 L1137,207 L1133,382 L1133,397 L1132,447 L1131,465 L1131,482 L1130,516 L1130,533 L1129,569 L1128,594 L1128,608 L1127,626 L1123,793 L1122,843 L1121,862 L1120,913 L1119,918 L1117,1023 L1116,1065 L1115,1073 L1115,1092 L1114,1147 L1109,1153 L1104,1154 L1093,1153 L1084,1153 L1076,1154 L1069,1153 L1060,1154 L1040,1154 L1019,1153 L981,1153 L958,1152 L865,1151 L859,1150 L819,1150 L792,1149 L762,1148 L731,1148 L708,1147 L688,1147 L615,1146 L596,1146 L570,1145 L558,1145 L552,1144 L543,1145 L497,1145 L446,1143 L416,1143 L399,1142 L371,1142 L344,1141 L301,1141 L267,1140 L234,1139 L206,1139 L201,1138 L156,1138 L110,1137 L-28,1135 L-33,1130 L-32,1116 L-31,1095 L-29,1021 L-28,972 L-27,941 L-25,841 L-24,814 L-23,751 L-22,730 L-20,646 L-20,619 L-18,567 L-17,521 L-16,490 L-16,466 L-14,381 L-13,363 L-12,306 L-11,222 L-9,148 L-8,113 L-8,93 L-7,71 L-6,25 L-3,3 Z M14,12 L8,17 L7,34 L4,153 L3,219 L2,262 L1,284 L0,365 L-1,386 L-3,490 L-5,552 L-6,602 L-7,626 L-9,710 L-10,746 L-11,776 L-12,835 L-14,913 L-16,1003 L-17,1021 L-18,1079 L-19,1097 L-18,1116 L-14,1121 L-6,1122 L20,1122 L54,1123 L107,1124 L202,1125 L216,1125 L224,1126 L273,1126 L335,1128 L378,1128 L396,1129 L451,1130 L503,1131 L569,1131 L584,1132 L615,1132 L640,1133 L677,1133 L715,1134 L745,1134 L762,1135 L839,1137 L863,1137 L930,1139 L984,1139 L1034,1140 L1098,1140 L1101,1136 L1102,1115 L1105,990 L1106,965 L1106,943 L1107,935 L1107,918 L1108,882 L1108,859 L1110,789 L1111,757 L1112,711 L1113,691 L1114,638 L1116,539 L1117,519 L1117,498 L1119,413 L1120,394 L1120,370 L1121,328 L1122,308 L1123,259 L1124,176 L1125,146 L1125,122 L1126,103 L1127,57 L1126,33 L1122,29 L1093,29 L1052,27 L952,27 L929,26 L912,26 L876,25 L853,25 L825,24 L770,23 L694,21 L673,21 L628,20 L588,20 L582,21 L579,20 L536,20 L438,19 L418,18 L398,18 L387,17 L381,18 L372,17 L339,17 L334,14 L330,15 L328,16 L309,17 L268,16 L230,16 L227,15 L212,15 L197,14 L179,15 L163,15 L81,13 Z " fill="#000000" transform="translate(1319,52)"/>
<path d="M0,0 L71,0 L108,1 L121,0 L165,1 L179,1 L204,2 L294,3 L342,3 L346,4 L371,4 L408,5 L412,7 L419,5 L480,6 L535,6 L552,7 L576,7 L613,8 L642,8 L711,9 L789,9 L792,10 L808,10 L832,11 L896,11 L908,12 L985,12 L1002,13 L1004,12 L1025,13 L1068,14 L1089,14 L1107,13 L1112,18 L1112,27 L1111,30 L1110,83 L1109,155 L1108,177 L1107,221 L1106,250 L1106,274 L1105,278 L1104,304 L1103,371 L1103,389 L1102,423 L1101,469 L1101,520 L1100,613 L1099,640 L1098,704 L1097,781 L1096,812 L1096,854 L1095,882 L1095,896 L1094,906 L1094,919 L1093,931 L1092,959 L1092,997 L1091,1033 L1090,1045 L1091,1054 L1090,1077 L1090,1108 L1089,1131 L1086,1138 L1083,1140 L1076,1140 L1071,1138 L1054,1137 L996,1137 L974,1136 L924,1136 L866,1135 L829,1135 L728,1134 L662,1134 L643,1133 L622,1133 L585,1132 L498,1132 L452,1131 L414,1131 L354,1129 L302,1129 L263,1128 L196,1128 L157,1127 L130,1127 L111,1126 L48,1126 L-20,1125 L-35,1125 L-47,1127 L-51,1125 L-52,1123 L-52,1109 L-51,1100 L-50,1057 L-49,968 L-48,938 L-47,916 L-46,887 L-46,872 L-45,836 L-44,779 L-43,696 L-41,606 L-41,555 L-40,445 L-39,381 L-38,360 L-37,277 L-36,228 L-35,206 L-33,115 L-33,81 L-32,42 L-32,26 L-28,10 L-23,6 L-13,4 Z M-16,12 L-19,16 L-20,26 L-20,80 L-21,83 L-21,132 L-24,258 L-24,279 L-25,305 L-26,359 L-28,485 L-27,493 L-24,495 L-15,496 L-5,498 L61,498 L71,497 L96,497 L125,498 L130,500 L135,506 L136,559 L135,581 L136,584 L135,601 L134,629 L132,634 L123,636 L97,636 L60,634 L52,634 L50,635 L8,635 L-13,634 L-21,633 L-26,636 L-29,641 L-30,644 L-31,664 L-31,691 L-32,741 L-33,772 L-34,782 L-34,805 L-35,873 L-37,931 L-38,1057 L-39,1105 L-37,1110 L-34,1113 L5,1114 L31,1114 L60,1115 L129,1115 L188,1116 L278,1117 L321,1117 L369,1118 L408,1118 L411,1119 L489,1119 L517,1120 L580,1120 L622,1121 L707,1121 L714,1122 L747,1122 L778,1123 L886,1123 L892,1124 L952,1124 L980,1125 L1069,1125 L1075,1121 L1076,1119 L1077,1063 L1077,1015 L1079,1006 L1080,944 L1081,915 L1081,841 L1082,830 L1083,791 L1083,731 L1085,675 L1085,663 L1083,653 L1080,650 L1073,649 L1062,648 L1060,649 L1010,648 L1004,649 L967,649 L951,646 L945,642 L945,630 L950,626 L951,621 L944,612 L943,609 L943,596 L944,574 L945,513 L951,508 L956,507 L1079,507 L1084,503 L1087,496 L1088,467 L1088,440 L1089,370 L1089,348 L1090,345 L1091,290 L1091,261 L1092,215 L1093,202 L1092,194 L1092,138 L1093,133 L1093,111 L1094,91 L1096,84 L1097,61 L1097,33 L1092,27 L1062,26 L1041,26 L985,25 L959,25 L942,24 L877,24 L804,23 L777,23 L723,22 L658,21 L630,21 L574,20 L558,20 L507,19 L439,18 L394,18 L368,17 L338,17 L334,15 L323,16 L282,16 L274,15 L173,14 L114,13 L27,13 L15,12 Z M-23,509 L-26,511 L-27,514 L-27,539 L-25,542 L-20,541 L-13,533 L-5,520 L-5,514 L-10,510 Z M54,510 L48,513 L41,519 L34,531 L24,543 L21,549 L15,557 L3,573 L-5,584 L-14,596 L-20,604 L-24,611 L-24,618 L-21,621 L-12,622 L-2,620 L4,613 L13,601 L18,596 L23,589 L26,584 L34,574 L40,565 L45,556 L49,550 L59,536 L68,522 L69,515 L64,511 L62,510 Z M18,511 L9,517 L4,522 L-2,530 L-12,543 L-16,549 L-25,561 L-27,567 L-28,580 L-28,593 L-27,595 L-22,595 L-13,585 L-5,573 L3,562 L14,546 L26,530 L31,520 L31,514 L26,511 Z M88,513 L78,522 L74,528 L67,539 L63,544 L53,557 L44,573 L36,582 L30,591 L22,602 L14,612 L14,618 L20,623 L24,624 L36,621 L41,617 L50,606 L56,597 L59,593 L59,591 L61,591 L71,575 L78,564 L86,553 L94,543 L100,534 L107,522 L106,516 L101,513 Z M960,522 L954,526 L953,529 L953,538 L954,546 L958,548 L962,545 L966,538 L970,530 L969,524 L966,522 Z M992,522 L984,529 L980,535 L968,550 L961,561 L954,571 L952,577 L952,597 L954,603 L959,603 L967,595 L972,587 L979,576 L985,568 L992,558 L996,550 L1001,544 L1001,542 L1003,542 L1009,530 L1008,525 L1004,522 Z M1033,522 L1027,524 L1016,535 L1008,547 L1000,559 L994,568 L988,577 L978,593 L966,610 L958,623 L958,629 L963,632 L975,632 L983,627 L990,618 L1002,601 L1012,587 L1020,574 L1025,568 L1025,566 L1027,566 L1030,558 L1037,548 L1045,535 L1046,533 L1046,526 L1042,522 Z M1072,522 L1064,526 L1053,539 L1046,548 L1042,556 L1035,565 L1029,574 L1024,582 L1014,598 L1008,608 L1004,613 L1000,622 L1001,628 L1003,630 L1013,630 L1022,629 L1027,624 L1033,615 L1039,605 L1045,595 L1055,580 L1062,570 L1069,560 L1082,539 L1084,533 L1084,527 L1079,522 Z M117,526 L107,537 L99,549 L92,559 L84,569 L78,577 L67,593 L57,607 L54,613 L54,618 L57,621 L69,623 L77,620 L82,615 L90,605 L101,591 L111,576 L118,565 L122,560 L123,536 L122,528 L120,526 Z M1076,567 L1068,575 L1063,584 L1056,592 L1049,603 L1037,622 L1037,628 L1042,631 L1050,631 L1057,628 L1064,621 L1072,609 L1078,599 L1084,590 L1086,582 L1086,574 L1083,568 L1082,567 Z M115,585 L108,594 L104,599 L97,610 L96,617 L99,619 L112,621 L119,615 L121,605 L121,589 L119,585 Z M1077,618 L1073,622 L1073,629 L1077,631 L1081,629 L1082,627 L1082,619 Z " fill="#000000" transform="translate(2575,75)"/>
<path d="M0,0 L12,2 L147,2 L175,3 L175,17 L147,18 L53,17 L12,17 L7,20 L5,28 L3,113 L2,146 L1,238 L-1,305 L-1,344 L-2,378 L-3,390 L-2,396 L-3,430 L-3,451 L-4,502 L-5,568 L-7,632 L-8,715 L-9,751 L-10,782 L-10,808 L-11,858 L-11,874 L-13,956 L-14,1039 L-15,1078 L-15,1110 L-13,1114 L-8,1115 L41,1115 L78,1116 L89,1115 L94,1116 L150,1116 L170,1117 L175,1117 L175,1129 L104,1129 L96,1128 L-25,1128 L-30,1123 L-30,1114 L-29,1100 L-28,1054 L-28,1029 L-27,1004 L-26,927 L-25,906 L-24,867 L-24,836 L-20,629 L-19,563 L-18,545 L-18,519 L-17,462 L-17,433 L-15,377 L-15,358 L-14,297 L-14,287 L-13,266 L-13,251 L-12,216 L-11,145 L-9,58 L-9,22 L-10,15 L-7,6 L-3,1 Z " fill="#000000" transform="translate(3788,85)"/>
<path d="M0,0 L37,1 L128,2 L162,3 L166,8 L169,17 L174,38 L179,60 L182,72 L185,88 L188,101 L192,111 L196,118 L196,120 L200,121 L219,122 L230,123 L240,123 L247,126 L250,129 L251,150 L247,155 L243,157 L119,157 L111,158 L-121,158 L-125,159 L-128,168 L-129,181 L-131,220 L-131,276 L-128,283 L-123,286 L-115,286 L-111,285 L-98,284 L-94,283 L-73,281 L-61,279 L-48,278 L-30,275 L-5,272 L11,271 L20,269 L31,268 L40,266 L67,263 L72,262 L86,261 L98,261 L112,258 L125,257 L141,254 L152,253 L165,251 L183,250 L192,248 L222,246 L234,243 L254,243 L262,248 L268,257 L279,270 L285,278 L294,293 L301,303 L308,308 L319,308 L331,307 L340,303 L345,300 L350,301 L356,306 L359,307 L376,308 L404,308 L411,309 L415,308 L448,308 L455,310 L459,309 L469,309 L473,310 L488,311 L498,314 L508,320 L515,323 L524,327 L535,335 L540,339 L547,347 L555,363 L558,372 L559,378 L559,394 L554,410 L548,420 L540,429 L535,435 L525,443 L514,448 L492,453 L481,452 L474,449 L469,445 L467,441 L467,433 L469,428 L481,422 L509,414 L520,408 L524,403 L526,398 L527,390 L524,377 L518,369 L512,361 L506,354 L493,347 L484,346 L467,345 L452,343 L428,343 L415,344 L361,344 L353,349 L352,351 L350,373 L348,445 L348,463 L350,470 L358,477 L364,484 L373,495 L384,504 L392,510 L398,517 L403,521 L403,523 L407,525 L415,536 L417,540 L417,561 L416,574 L416,604 L415,643 L415,703 L414,717 L411,724 L408,726 L401,725 L397,724 L382,724 L373,723 L364,724 L320,724 L289,725 L272,725 L265,719 L263,711 L263,692 L264,655 L264,564 L265,551 L268,541 L275,530 L280,525 L292,514 L300,507 L306,503 L309,498 L317,492 L324,485 L329,480 L335,473 L338,465 L338,452 L339,416 L340,356 L337,348 L331,344 L302,344 L295,346 L292,347 L290,351 L283,361 L272,376 L264,388 L257,394 L247,399 L234,398 L224,398 L196,395 L171,394 L160,392 L122,388 L94,385 L86,385 L69,382 L59,380 L45,380 L26,379 L19,377 L-5,376 L-16,374 L-28,373 L-57,370 L-68,368 L-90,367 L-101,365 L-120,363 L-129,366 L-131,370 L-132,403 L-132,462 L-130,471 L-124,480 L-117,486 L-112,491 L-101,501 L-94,509 L-89,514 L-82,520 L-77,525 L-72,529 L-64,539 L-62,545 L-62,576 L-63,678 L-64,706 L-67,714 L-72,721 L-76,724 L-81,725 L-149,725 L-189,726 L-216,726 L-225,721 L-227,719 L-228,715 L-228,608 L-227,606 L-228,582 L-227,548 L-224,539 L-218,529 L-201,513 L-195,508 L-191,503 L-180,495 L-167,482 L-161,478 L-149,467 L-147,464 L-145,452 L-145,380 L-146,367 L-149,362 L-160,358 L-179,356 L-205,354 L-216,352 L-234,351 L-236,350 L-245,350 L-257,349 L-262,348 L-274,345 L-304,342 L-315,339 L-371,339 L-401,338 L-409,333 L-411,329 L-410,314 L-405,309 L-403,308 L-389,307 L-326,307 L-310,306 L-297,304 L-268,303 L-257,301 L-243,300 L-223,297 L-204,296 L-196,294 L-177,292 L-152,289 L-148,287 L-145,282 L-144,272 L-143,236 L-143,167 L-145,160 L-149,158 L-159,154 L-162,149 L-162,127 L-158,122 L-148,120 L-143,116 L-137,104 L-131,105 L-124,118 L-122,120 L-102,121 L-85,119 L-80,116 L-76,111 L-70,96 L-64,80 L-61,71 L-59,62 L-50,34 L-47,23 L-41,8 L-36,2 L-34,1 Z M-154,488 L-160,492 L-173,502 L-186,514 L-195,521 L-204,531 L-213,539 L-216,545 L-217,576 L-217,693 L-216,708 L-209,714 L-206,715 L-110,715 L-83,714 L-77,710 L-74,705 L-73,701 L-71,627 L-71,581 L-70,564 L-72,548 L-80,537 L-95,523 L-99,518 L-104,513 L-112,506 L-117,501 L-127,494 L-132,495 L-134,497 L-134,503 L-133,510 L-137,514 L-143,513 L-146,511 L-148,503 L-146,499 L-146,491 L-149,488 Z M329,496 L319,503 L313,510 L302,519 L294,527 L286,534 L278,543 L276,552 L275,570 L275,701 L277,708 L281,712 L290,713 L372,713 L393,712 L401,708 L405,700 L405,668 L406,611 L406,575 L407,546 L403,537 L396,531 L388,524 L379,515 L371,508 L364,504 L359,506 L353,515 L350,518 L344,518 L339,514 L337,506 L335,498 L332,496 Z " fill="#000000" transform="translate(558,143)"/>
<path d="M0,0 L24,1 L103,1 L115,0 L146,0 L151,2 L225,2 L230,3 L281,3 L288,5 L298,4 L400,4 L416,3 L440,3 L487,4 L494,3 L507,3 L512,4 L544,4 L572,5 L653,5 L675,6 L680,9 L683,18 L684,21 L684,50 L682,125 L682,194 L681,230 L681,262 L680,285 L681,295 L681,319 L680,346 L678,451 L677,464 L677,503 L676,543 L674,570 L674,577 L669,585 L665,586 L646,587 L629,587 L624,588 L523,587 L504,586 L476,586 L457,585 L434,586 L414,586 L408,584 L390,584 L368,583 L255,583 L237,581 L202,581 L168,580 L150,579 L136,579 L122,580 L92,579 L61,579 L36,578 L-9,577 L-18,572 L-21,566 L-22,552 L-22,489 L-21,479 L-20,443 L-20,410 L-19,401 L-19,368 L-18,317 L-18,303 L-17,283 L-16,187 L-16,131 L-15,76 L-13,47 L-12,14 L-8,4 Z M150,60 L145,61 L121,62 L100,62 L64,61 L57,61 L47,64 L43,73 L42,103 L41,126 L41,201 L40,207 L40,223 L38,328 L37,344 L38,359 L36,386 L36,408 L35,434 L34,483 L35,509 L39,515 L45,518 L69,519 L77,518 L106,518 L183,520 L193,521 L215,521 L218,522 L269,522 L274,523 L286,523 L297,522 L306,524 L410,524 L447,525 L465,524 L487,524 L492,525 L530,525 L537,524 L544,525 L607,525 L613,521 L616,518 L618,511 L618,483 L619,457 L620,452 L620,389 L621,375 L622,320 L622,269 L623,260 L623,216 L622,163 L622,141 L623,127 L623,98 L621,82 L617,74 L608,71 L580,69 L539,67 L517,68 L500,67 L463,66 L361,65 L311,65 L307,63 L275,64 L266,65 L257,64 L225,63 L194,63 L160,61 Z " fill="#000000" transform="translate(1545,228)"/>
<path d="M0,0 L6,1 L13,8 L20,16 L28,26 L33,30 L40,39 L45,44 L56,56 L64,65 L72,75 L74,78 L73,83 L69,85 L54,85 L48,90 L45,100 L45,128 L43,160 L43,181 L42,214 L42,230 L41,271 L42,284 L41,299 L41,314 L40,333 L37,460 L36,481 L36,504 L35,539 L35,552 L33,566 L31,572 L28,575 L26,576 L16,576 L13,575 L-3,575 L-13,574 L-25,574 L-37,575 L-47,575 L-57,571 L-61,567 L-61,527 L-59,452 L-59,424 L-58,387 L-57,377 L-57,331 L-56,309 L-55,238 L-54,231 L-54,175 L-52,137 L-52,116 L-51,104 L-51,93 L-54,87 L-61,81 L-67,80 L-75,81 L-78,78 L-77,71 L-70,63 L-65,58 L-60,53 L-51,44 L-37,33 L-30,27 L-23,19 L-9,5 L-3,1 Z M13,191 L11,193 L12,197 L17,197 L16,192 Z " fill="#000000" transform="translate(2833,307)"/>
<path d="M0,0 L25,1 L58,2 L72,4 L81,10 L85,16 L86,30 L89,47 L93,53 L99,57 L119,58 L128,59 L137,64 L140,72 L141,76 L142,105 L141,134 L140,145 L140,237 L141,248 L141,286 L140,293 L139,322 L138,331 L137,352 L136,358 L135,381 L132,386 L127,390 L114,395 L107,394 L98,391 L92,390 L61,390 L34,389 L-19,389 L-22,387 L-68,387 L-73,388 L-100,388 L-110,384 L-113,379 L-115,368 L-116,320 L-115,311 L-113,255 L-112,222 L-111,194 L-111,153 L-109,120 L-109,104 L-108,99 L-107,68 L-103,59 L-100,56 L-97,55 L-66,55 L-58,49 L-55,39 L-53,22 L-49,12 L-45,7 L-35,2 L-32,1 L-7,1 Z M0,38 L-12,41 L-17,46 L-17,51 L-11,56 L-1,58 L36,58 L46,57 L52,52 L51,46 L47,41 L41,39 Z " fill="#000000" transform="translate(1859,334)"/>
<path d="M0,0 L48,0 L57,2 L61,7 L62,9 L63,20 L63,38 L62,47 L62,88 L61,96 L61,151 L60,158 L58,248 L58,297 L56,317 L54,324 L51,327 L42,330 L9,330 L-11,326 L-23,320 L-28,315 L-34,308 L-38,299 L-41,286 L-41,218 L-39,199 L-39,152 L-38,113 L-37,92 L-37,78 L-36,46 L-34,34 L-29,20 L-22,10 L-18,6 Z M0,15 L0,19 L3,19 L2,15 Z " fill="#000000" transform="translate(1667,390)"/>
<path d="M0,0 L38,0 L55,2 L62,3 L76,15 L81,20 L86,28 L89,40 L89,232 L86,289 L83,301 L79,307 L75,315 L70,321 L63,327 L58,330 L49,332 L36,332 L25,331 L-5,330 L-12,326 L-14,322 L-14,204 L-13,177 L-13,139 L-12,111 L-13,103 L-13,69 L-12,42 L-12,17 L-10,7 L-5,2 Z " fill="#000000" transform="translate(2032,393)"/>
<path d="M0,0 L25,0 L65,1 L73,1 L81,6 L82,8 L82,121 L81,147 L82,155 L81,186 L81,207 L80,223 L81,246 L81,295 L80,306 L80,319 L79,332 L79,383 L77,456 L77,470 L80,475 L83,477 L96,479 L100,483 L100,490 L94,500 L81,512 L69,525 L62,533 L46,548 L38,555 L32,562 L26,563 L20,559 L15,555 L6,544 L-6,533 L-13,525 L-18,520 L-29,508 L-36,499 L-44,491 L-45,488 L-45,481 L-41,476 L-39,475 L-31,475 L-25,476 L-20,471 L-18,459 L-18,433 L-17,408 L-16,402 L-16,348 L-15,311 L-14,209 L-14,159 L-13,144 L-13,132 L-12,123 L-12,101 L-11,46 L-10,25 L-10,18 L-7,5 L-3,1 Z " fill="#000000" transform="translate(3365,398)"/>
<path d="M0,0 L56,1 L66,1 L74,0 L89,2 L119,2 L126,3 L137,3 L146,2 L160,2 L197,3 L228,3 L237,5 L238,6 L245,6 L249,4 L272,4 L276,5 L284,5 L287,4 L344,4 L353,8 L356,12 L357,17 L358,32 L358,61 L357,75 L357,129 L354,139 L350,144 L346,146 L333,148 L320,149 L300,149 L289,147 L275,148 L239,147 L234,146 L228,148 L213,148 L203,145 L190,145 L170,146 L164,140 L159,140 L154,144 L151,145 L146,144 L98,144 L95,145 L87,145 L83,144 L66,143 L18,143 L6,141 L-5,141 L-11,137 L-16,129 L-18,122 L-18,115 L-16,103 L-15,70 L-15,50 L-14,12 L-12,5 L-8,2 Z M4,16 L-2,23 L-2,36 L0,39 L5,38 L12,31 L15,25 L15,19 L12,16 Z M44,16 L32,19 L24,27 L19,32 L11,44 L2,60 L-2,66 L-4,73 L-5,99 L-3,103 L2,102 L9,95 L16,84 L22,75 L29,64 L38,53 L46,42 L53,32 L56,27 L56,20 L50,16 Z M123,18 L115,21 L107,28 L103,34 L98,39 L89,50 L85,56 L78,66 L72,74 L62,88 L56,97 L46,111 L43,117 L43,123 L48,126 L62,126 L70,122 L78,113 L83,108 L91,97 L95,90 L105,77 L112,66 L121,54 L135,35 L139,28 L138,21 L131,18 Z M77,19 L66,26 L56,37 L49,47 L43,57 L30,75 L19,89 L15,96 L5,110 L0,119 L0,124 L3,127 L13,127 L23,125 L28,122 L40,109 L48,98 L59,82 L69,67 L78,56 L84,46 L93,34 L96,27 L95,22 L93,19 Z M159,18 L154,21 L143,34 L130,52 L122,64 L110,80 L103,89 L93,104 L85,115 L83,122 L86,127 L94,129 L101,129 L113,126 L119,121 L126,110 L133,101 L140,92 L150,76 L160,63 L167,54 L177,39 L183,29 L183,23 L180,19 Z M207,19 L198,24 L185,37 L179,46 L171,57 L165,66 L159,74 L152,84 L139,102 L134,110 L129,119 L129,124 L134,128 L154,127 L162,123 L174,107 L183,92 L190,83 L193,78 L198,70 L213,50 L219,41 L225,33 L226,24 L221,20 L219,19 Z M254,20 L245,23 L237,29 L229,40 L220,51 L214,59 L206,70 L197,84 L188,96 L179,111 L175,116 L173,120 L173,125 L179,129 L200,129 L206,125 L216,111 L223,101 L229,93 L236,82 L243,72 L256,54 L264,43 L269,34 L272,29 L272,23 L269,20 Z M300,20 L291,24 L283,31 L274,41 L268,49 L259,61 L253,70 L241,87 L234,96 L227,107 L221,116 L219,120 L219,126 L222,130 L236,130 L244,127 L251,119 L257,109 L264,99 L277,82 L286,71 L290,64 L298,52 L306,41 L312,30 L312,24 L308,21 Z M334,22 L328,26 L324,31 L313,45 L307,52 L307,54 L305,54 L296,68 L286,80 L280,90 L274,98 L268,108 L260,119 L260,126 L265,130 L283,130 L291,125 L298,114 L307,104 L315,91 L323,78 L331,67 L338,60 L343,51 L345,42 L345,34 L343,25 L339,22 Z M336,76 L331,82 L323,93 L319,98 L312,109 L306,117 L303,123 L305,129 L307,130 L315,130 L324,127 L332,118 L341,104 L344,96 L344,87 L342,78 L339,76 Z " fill="#000000" transform="translate(2936,575)"/>
<path d="M0,0 L5,1 L9,6 L11,10 L14,24 L16,37 L20,49 L24,50 L27,44 L29,26 L31,10 L36,1 L44,0 L50,4 L54,9 L58,26 L59,37 L60,38 L65,38 L76,18 L82,14 L88,16 L92,21 L96,34 L97,42 L97,56 L96,87 L96,157 L97,165 L102,166 L107,155 L115,135 L123,119 L129,106 L133,100 L135,99 L141,99 L150,105 L153,110 L154,112 L154,124 L150,140 L144,167 L140,187 L135,206 L131,227 L127,239 L121,264 L115,289 L111,303 L110,313 L108,318 L106,327 L102,341 L100,354 L97,369 L96,389 L95,435 L93,444 L85,450 L80,455 L76,466 L71,472 L65,474 L-50,474 L-60,473 L-65,470 L-66,455 L-66,374 L-65,357 L-65,321 L-64,240 L-62,176 L-62,129 L-61,76 L-61,51 L-60,45 L-59,28 L-55,18 L-48,10 L-42,11 L-37,14 L-31,26 L-28,40 L-24,76 L-22,84 L-18,85 L-15,71 L-14,38 L-11,25 L-9,11 L-6,5 Z " fill="#000000" transform="translate(604,597)"/>
<path d="M0,0 L5,1 L6,2 L6,47 L5,66 L6,105 L6,141 L4,144 L-1,144 L-3,140 L-4,86 L-3,13 L-1,1 Z " fill="#000000" transform="translate(387,687)"/>
<path d="M0,0 L4,1 L7,10 L7,64 L8,117 L6,138 L4,141 L-1,140 L-2,133 L-2,113 L-3,89 L-3,27 L-2,3 Z " fill="#000000" transform="translate(931,689)"/>
<path d="M0,0 L5,1 L6,3 L6,84 L5,95 L6,116 L5,129 L3,133 L-2,132 L-3,131 L-3,25 L-1,2 Z " fill="#000000" transform="translate(450,695)"/>
<path d="M0,0 L4,1 L5,7 L5,100 L3,106 L-1,107 L-3,106 L-4,103 L-4,17 L-3,2 Z " fill="#000000" transform="translate(423,722)"/>
<path d="M0,0 L4,2 L6,20 L6,30 L5,40 L5,82 L3,85 L-2,84 L-3,83 L-4,62 L-3,11 L-1,1 Z " fill="#000000" transform="translate(894,742)"/>
<path d="M0,0 L3,1 L2,4 L-1,3 Z " fill="#000000" transform="translate(3052,821)"/>
<path d="M0,0 L28,2 L45,7 L59,15 L70,21 L79,29 L86,37 L95,49 L102,63 L104,66 L107,79 L110,103 L110,116 L106,137 L103,146 L97,159 L92,167 L89,173 L84,177 L79,182 L68,191 L53,201 L43,206 L31,208 L19,211 L7,213 L-12,210 L-20,207 L-31,204 L-41,197 L-49,192 L-65,179 L-76,163 L-85,151 L-92,146 L-95,145 L-112,143 L-118,140 L-127,133 L-131,132 L-176,131 L-192,131 L-195,130 L-209,130 L-215,131 L-227,131 L-233,127 L-240,121 L-248,118 L-254,119 L-268,125 L-277,129 L-288,131 L-296,130 L-305,123 L-309,121 L-317,122 L-327,126 L-335,128 L-341,130 L-349,129 L-358,124 L-371,112 L-376,108 L-379,104 L-379,94 L-370,81 L-365,75 L-360,70 L-354,66 L-348,64 L-329,65 L-323,64 L-291,65 L-245,66 L-236,67 L-217,67 L-196,68 L-156,68 L-132,67 L-104,68 L-92,68 L-84,62 L-69,40 L-61,32 L-56,26 L-43,17 L-29,9 L-19,5 Z M55,88 L49,91 L44,96 L41,102 L41,115 L48,122 L53,124 L66,124 L74,120 L78,115 L80,110 L79,101 L72,92 L65,88 Z " fill="#000000" transform="translate(2005,840)"/>
<path d="M0,0 L4,0 L4,5 L0,4 Z " fill="#000000" transform="translate(1132,967)"/>
<path d="M0,0 L4,1 L5,6 L4,7 L-1,7 L-1,1 Z " fill="#000000" transform="translate(3208,1177)"/>
</svg>
