<?xml version="1.0" encoding="UTF-8"?>
<!-- Generator: visioncortex VTracer 0.6.12 -->
<svg version="1.1" xmlns="http://www.w3.org/2000/svg" width="3630" height="1212">
<path d="M0,0 L44,0 L62,1 L65,2 L77,2 L82,4 L95,4 L115,7 L131,8 L168,18 L182,21 L196,27 L204,30 L214,33 L230,38 L236,41 L244,42 L251,46 L267,54 L275,59 L284,63 L292,68 L308,76 L319,82 L330,89 L338,94 L351,102 L365,112 L376,121 L377,125 L376,131 L385,133 L388,136 L394,140 L401,147 L407,150 L411,156 L422,162 L435,175 L442,183 L457,198 L465,209 L470,213 L477,224 L485,234 L494,246 L501,256 L507,267 L513,275 L525,296 L533,310 L541,327 L547,339 L557,363 L567,391 L574,409 L582,439 L588,461 L591,488 L595,526 L596,545 L596,605 L593,638 L588,675 L582,696 L576,722 L566,750 L562,766 L553,786 L543,809 L535,825 L522,849 L514,862 L507,873 L503,878 L495,890 L489,898 L481,908 L474,917 L465,929 L460,934 L453,942 L449,947 L444,952 L429,967 L424,972 L413,982 L402,991 L390,1002 L380,1009 L367,1019 L359,1025 L353,1029 L342,1036 L332,1043 L322,1049 L312,1054 L306,1058 L299,1061 L292,1065 L282,1070 L265,1078 L244,1086 L235,1090 L221,1095 L202,1102 L192,1105 L176,1109 L167,1112 L157,1114 L142,1117 L132,1119 L124,1121 L111,1122 L104,1123 L88,1125 L80,1126 L67,1127 L2,1127 L-26,1125 L-58,1121 L-66,1119 L-89,1115 L-103,1111 L-113,1109 L-127,1105 L-131,1103 L-143,1100 L-159,1095 L-169,1091 L-179,1086 L-189,1085 L-195,1080 L-211,1073 L-230,1063 L-242,1057 L-256,1049 L-264,1044 L-274,1037 L-282,1032 L-292,1025 L-300,1019 L-310,1012 L-316,1008 L-326,999 L-343,985 L-353,977 L-364,967 L-369,962 L-384,946 L-397,932 L-404,924 L-415,911 L-426,898 L-433,888 L-442,876 L-447,868 L-463,844 L-471,830 L-481,811 L-492,788 L-497,775 L-506,754 L-512,737 L-516,724 L-521,702 L-525,691 L-529,669 L-532,646 L-534,636 L-537,604 L-539,561 L-537,521 L-533,487 L-529,461 L-524,438 L-519,418 L-516,409 L-510,388 L-500,361 L-491,340 L-487,331 L-483,321 L-478,312 L-468,293 L-459,278 L-448,260 L-444,255 L-437,244 L-431,236 L-424,226 L-414,213 L-402,199 L-393,189 L-391,186 L-389,186 L-387,182 L-380,174 L-376,172 L-375,169 L-373,169 L-371,164 L-361,155 L-350,146 L-333,129 L-322,122 L-312,113 L-303,107 L-293,99 L-279,91 L-269,84 L-258,78 L-249,72 L-239,66 L-230,62 L-209,51 L-201,48 L-193,44 L-183,40 L-179,38 L-170,36 L-140,26 L-128,23 L-119,20 L-109,17 L-98,15 L-92,13 L-76,10 L-53,6 L-43,5 L-40,4 L-24,2 L-13,2 Z M48,157 L29,159 L14,164 L1,169 L-15,179 L-22,186 L-30,193 L-30,195 L-32,195 L-39,205 L-46,215 L-54,239 L-57,255 L-57,270 L-53,275 L-47,277 L-6,277 L2,273 L5,256 L9,243 L18,232 L29,223 L41,218 L60,218 L69,220 L79,225 L88,232 L94,240 L101,258 L101,273 L97,286 L92,296 L87,302 L82,307 L76,310 L55,316 L39,324 L29,330 L28,333 L24,335 L17,342 L11,352 L5,367 L2,383 L1,417 L1,428 L-2,435 L-8,440 L-22,448 L-39,457 L-59,468 L-67,473 L-85,483 L-91,487 L-103,492 L-117,501 L-133,510 L-146,518 L-154,522 L-170,531 L-182,538 L-198,546 L-213,555 L-232,566 L-246,573 L-257,580 L-265,584 L-275,590 L-289,598 L-301,605 L-318,614 L-332,622 L-351,632 L-364,640 L-375,646 L-385,653 L-395,661 L-406,672 L-415,686 L-419,699 L-420,706 L-420,718 L-416,738 L-410,748 L-403,757 L-398,762 L-388,769 L-380,773 L-374,775 L-372,776 L-353,777 L-257,777 L-245,778 L-179,778 L-172,777 L-161,777 L-143,778 L70,778 L79,777 L94,778 L100,779 L103,778 L123,778 L133,779 L146,779 L170,778 L176,777 L203,777 L209,779 L324,779 L332,778 L379,778 L412,779 L426,779 L442,774 L455,769 L464,762 L470,757 L474,751 L480,742 L485,728 L486,724 L486,702 L483,688 L477,676 L468,667 L461,659 L454,654 L448,651 L429,641 L419,635 L401,625 L381,614 L362,604 L346,594 L336,589 L319,579 L310,574 L290,563 L280,557 L263,548 L260,545 L246,538 L230,529 L222,525 L217,521 L206,515 L193,507 L175,497 L167,492 L148,482 L144,479 L133,473 L118,465 L101,455 L88,447 L80,443 L69,436 L63,432 L61,429 L61,409 L62,396 L67,383 L73,376 L88,368 L96,365 L108,360 L116,355 L122,351 L134,340 L141,332 L151,314 L156,303 L158,294 L160,278 L160,256 L157,236 L149,216 L142,206 L130,191 L122,184 L115,177 L105,170 L86,162 L76,160 L70,158 Z " fill="#000000" transform="translate(1785,43)"/>
<path d="M0,0 L21,1 L24,3 L24,9 L16,21 L7,32 L2,41 L-2,51 L-7,61 L-13,83 L-16,103 L-16,125 L-14,141 L-11,158 L-6,173 L1,187 L6,197 L14,208 L22,218 L33,232 L41,243 L51,260 L58,273 L65,294 L70,318 L71,331 L71,358 L69,374 L68,378 L68,393 L83,395 L90,395 L94,393 L98,383 L101,365 L102,343 L101,327 L99,307 L92,279 L88,268 L83,255 L75,240 L67,227 L59,216 L52,207 L39,191 L33,181 L27,171 L22,161 L16,142 L13,123 L13,105 L16,86 L23,67 L29,55 L40,40 L53,24 L67,7 L74,5 L89,8 L91,10 L91,16 L84,27 L78,35 L69,46 L60,56 L50,73 L45,87 L42,99 L41,108 L41,122 L45,142 L50,156 L58,169 L62,175 L62,177 L64,177 L73,188 L81,198 L85,204 L89,209 L98,224 L102,232 L112,251 L118,267 L124,288 L127,303 L129,318 L130,332 L130,359 L128,371 L128,391 L131,394 L138,395 L150,394 L155,392 L158,381 L160,357 L160,329 L156,292 L151,272 L145,253 L139,238 L132,221 L125,210 L122,204 L112,189 L102,175 L95,166 L88,158 L80,147 L75,137 L73,131 L71,119 L72,106 L76,93 L83,80 L94,67 L105,52 L111,45 L123,27 L128,18 L137,16 L146,19 L161,22 L178,28 L199,35 L215,41 L228,46 L238,51 L254,58 L275,68 L281,72 L289,76 L302,84 L309,88 L321,96 L332,104 L340,109 L358,123 L368,131 L379,140 L389,149 L393,154 L403,162 L419,178 L426,186 L436,197 L447,211 L454,219 L463,231 L472,243 L485,263 L492,274 L499,285 L509,303 L516,317 L529,345 L536,362 L547,392 L554,414 L562,446 L565,458 L567,471 L572,504 L575,536 L576,576 L576,589 L573,629 L568,666 L563,691 L561,695 L559,710 L556,720 L552,734 L546,752 L540,770 L535,782 L520,816 L515,826 L510,836 L502,851 L494,864 L484,880 L477,891 L468,903 L460,914 L449,928 L440,938 L431,949 L419,962 L409,972 L402,980 L389,992 L381,999 L371,1008 L363,1014 L352,1023 L342,1031 L321,1045 L311,1052 L301,1058 L281,1070 L265,1078 L251,1085 L244,1089 L235,1092 L221,1099 L209,1103 L206,1105 L193,1109 L180,1114 L164,1119 L146,1124 L133,1128 L105,1133 L92,1136 L81,1138 L65,1139 L61,1140 L34,1142 L28,1143 L-4,1143 L-34,1142 L-49,1141 L-52,1140 L-82,1138 L-88,1136 L-100,1135 L-103,1129 L-107,1132 L-115,1131 L-131,1127 L-140,1125 L-147,1123 L-154,1122 L-163,1119 L-183,1113 L-192,1109 L-207,1104 L-216,1100 L-245,1087 L-264,1078 L-280,1069 L-291,1062 L-297,1059 L-307,1053 L-317,1047 L-327,1040 L-338,1033 L-349,1024 L-357,1018 L-371,1007 L-376,1002 L-386,993 L-391,988 L-391,986 L-395,984 L-417,962 L-422,957 L-434,944 L-448,927 L-461,910 L-472,895 L-478,886 L-490,867 L-497,856 L-502,846 L-507,836 L-508,828 L-506,826 L-375,825 L-339,826 L-326,825 L-215,826 L-9,826 L32,825 L49,824 L71,821 L86,818 L104,813 L124,804 L141,794 L151,786 L159,779 L166,773 L172,765 L180,755 L189,740 L198,720 L201,712 L203,703 L207,683 L208,638 L208,513 L209,433 L207,422 L204,419 L143,418 L132,417 L128,418 L-72,418 L-103,419 L-107,423 L-108,426 L-109,464 L-109,524 L-110,665 L-113,686 L-119,700 L-125,709 L-133,715 L-144,722 L-157,725 L-165,726 L-182,726 L-190,727 L-323,727 L-327,726 L-383,727 L-413,726 L-461,727 L-538,727 L-542,724 L-549,725 L-553,720 L-559,694 L-561,684 L-566,657 L-569,629 L-571,594 L-571,553 L-570,543 L-569,517 L-567,508 L-566,492 L-564,485 L-560,462 L-557,450 L-554,433 L-549,418 L-546,409 L-545,402 L-543,399 L-539,385 L-534,373 L-528,357 L-522,342 L-514,326 L-506,310 L-496,291 L-487,278 L-479,265 L-466,246 L-454,230 L-445,218 L-433,204 L-431,200 L-426,195 L-416,185 L-409,177 L-384,152 L-373,143 L-368,138 L-359,131 L-349,122 L-337,113 L-321,102 L-308,93 L-296,86 L-288,81 L-264,68 L-254,63 L-238,55 L-225,49 L-205,41 L-183,32 L-166,26 L-155,23 L-134,17 L-124,16 L-122,19 L-124,30 L-130,49 L-133,63 L-136,82 L-138,120 L-137,139 L-132,173 L-127,191 L-122,207 L-117,221 L-113,230 L-104,246 L-100,254 L-89,271 L-79,284 L-71,294 L-62,305 L-54,318 L-49,331 L-48,351 L-51,363 L-59,380 L-64,387 L-64,392 L-61,394 L-52,395 L-36,395 L-30,392 L-25,384 L-20,372 L-17,361 L-16,353 L-16,338 L-18,322 L-24,306 L-31,292 L-41,279 L-48,271 L-56,262 L-65,249 L-69,242 L-77,229 L-85,213 L-92,194 L-96,181 L-100,165 L-104,136 L-104,98 L-101,71 L-95,49 L-91,36 L-87,27 L-80,11 L-76,7 L-69,5 L-53,4 L-51,6 L-52,13 L-60,31 L-65,43 L-71,63 L-75,80 L-77,102 L-77,136 L-73,161 L-67,183 L-61,199 L-55,213 L-48,223 L-42,233 L-35,243 L-27,251 L-21,259 L-12,270 L-5,278 L1,289 L4,300 L10,320 L12,339 L12,352 L9,369 L6,383 L6,391 L9,394 L23,395 L33,393 L35,388 L39,374 L41,359 L41,325 L36,301 L27,277 L20,265 L8,249 L1,240 L-6,229 L-14,220 L-20,210 L-25,202 L-32,188 L-37,175 L-42,157 L-45,142 L-47,122 L-46,95 L-41,71 L-35,51 L-30,41 L-23,27 L-14,12 L-7,4 Z M523,364 L522,368 L523,370 L528,370 L529,366 L528,364 Z M478,548 L478,552 L481,552 L481,548 Z M-342,587 L-346,590 L-346,593 L-339,595 L-335,592 L-335,588 Z " fill="#000000" transform="translate(584,35)"/>
<path d="M0,0 L15,0 L22,2 L40,1 L63,3 L67,4 L90,6 L100,10 L116,12 L140,18 L144,20 L158,23 L182,31 L191,34 L207,40 L225,48 L234,53 L248,59 L259,65 L264,68 L271,71 L286,80 L299,88 L304,92 L320,102 L330,110 L339,116 L344,119 L352,127 L360,134 L368,141 L379,152 L391,161 L398,169 L407,178 L412,183 L425,197 L434,208 L444,221 L450,229 L460,242 L463,249 L469,254 L477,268 L484,279 L491,293 L501,310 L508,325 L517,344 L520,351 L522,359 L529,373 L536,394 L541,410 L545,425 L553,459 L559,493 L562,529 L562,580 L561,586 L560,613 L558,634 L554,654 L552,669 L544,704 L536,731 L532,745 L526,754 L521,760 L520,771 L516,779 L514,781 L508,781 L498,771 L490,764 L476,749 L468,739 L463,734 L452,722 L444,713 L435,707 L430,708 L427,712 L426,720 L430,728 L441,740 L456,755 L465,766 L473,775 L482,786 L490,794 L495,799 L501,804 L502,806 L502,812 L496,824 L491,830 L485,831 L477,824 L463,810 L454,798 L448,791 L439,787 L434,789 L432,800 L436,809 L444,819 L451,826 L460,837 L467,846 L472,851 L474,856 L473,861 L465,874 L462,876 L455,876 L445,866 L443,865 L435,865 L431,869 L430,871 L430,879 L435,888 L442,897 L443,903 L437,912 L429,919 L422,919 L412,909 L403,898 L397,891 L395,886 L391,884 L383,873 L373,860 L366,851 L360,847 L355,847 L351,852 L352,859 L358,870 L365,878 L374,889 L384,902 L388,908 L397,919 L401,925 L406,931 L409,940 L405,946 L397,955 L391,958 L384,955 L375,945 L366,933 L359,925 L353,923 L347,924 L345,928 L345,938 L351,948 L365,966 L369,974 L368,981 L363,987 L352,995 L342,1003 L339,1003 L339,986 L332,975 L326,966 L322,961 L314,950 L306,939 L297,927 L286,911 L280,906 L276,904 L271,905 L268,910 L268,917 L273,927 L282,939 L292,954 L299,964 L305,973 L312,984 L320,994 L325,1000 L334,1000 L338,1004 L330,1012 L318,1020 L313,1024 L306,1025 L298,1018 L291,1008 L282,995 L276,987 L272,985 L266,985 L262,989 L262,998 L267,1008 L280,1028 L283,1034 L283,1040 L275,1047 L267,1051 L260,1055 L255,1055 L250,1047 L240,1032 L235,1024 L223,1005 L214,991 L206,978 L200,967 L193,961 L187,961 L183,964 L182,967 L182,975 L186,983 L193,993 L201,1006 L209,1020 L216,1031 L231,1056 L235,1062 L234,1067 L219,1074 L211,1075 L206,1072 L199,1062 L190,1048 L187,1045 L178,1045 L173,1051 L174,1059 L182,1075 L185,1081 L184,1087 L177,1090 L172,1092 L161,1093 L158,1092 L151,1083 L142,1068 L140,1061 L127,1040 L122,1030 L116,1021 L110,1017 L104,1019 L101,1020 L100,1023 L100,1030 L102,1037 L116,1061 L125,1077 L133,1092 L134,1100 L131,1103 L113,1107 L105,1106 L98,1105 L82,1113 L65,1115 L56,1115 L51,1110 L45,1101 L35,1082 L30,1077 L24,1076 L20,1078 L17,1085 L19,1095 L23,1104 L25,1108 L25,1115 L21,1118 L-16,1118 L-48,1116 L-79,1112 L-100,1108 L-111,1106 L-144,1098 L-159,1094 L-165,1091 L-174,1089 L-201,1078 L-209,1075 L-223,1069 L-233,1065 L-255,1054 L-266,1048 L-276,1043 L-294,1032 L-305,1025 L-314,1019 L-334,1005 L-348,994 L-361,983 L-371,975 L-379,967 L-387,960 L-399,948 L-405,941 L-410,937 L-417,929 L-428,916 L-439,903 L-450,889 L-460,875 L-474,854 L-481,842 L-489,829 L-497,813 L-506,796 L-511,782 L-521,761 L-527,745 L-535,721 L-543,691 L-548,671 L-552,645 L-554,635 L-556,614 L-558,591 L-559,555 L-557,518 L-554,484 L-551,461 L-546,441 L-541,416 L-535,397 L-530,382 L-526,369 L-518,347 L-512,332 L-508,324 L-504,311 L-501,308 L-496,295 L-490,287 L-485,275 L-481,270 L-472,257 L-466,246 L-459,236 L-455,230 L-447,221 L-443,215 L-431,200 L-424,192 L-417,185 L-411,177 L-406,172 L-392,158 L-387,155 L-375,155 L-356,161 L-346,166 L-333,177 L-325,184 L-312,199 L-306,206 L-296,222 L-285,237 L-278,247 L-274,254 L-273,259 L-277,267 L-287,278 L-298,292 L-307,305 L-313,314 L-324,332 L-328,340 L-333,352 L-343,376 L-348,393 L-352,407 L-356,428 L-359,457 L-360,478 L-360,490 L-358,517 L-356,532 L-353,544 L-352,553 L-347,569 L-337,599 L-330,612 L-324,614 L-317,613 L-311,608 L-301,602 L-291,594 L-272,582 L-262,575 L-247,564 L-236,557 L-218,543 L-207,537 L-202,533 L-190,525 L-179,514 L-169,509 L-158,502 L-152,498 L-147,495 L-143,489 L-135,483 L-120,474 L-106,466 L-97,458 L-89,452 L-81,447 L-76,442 L-67,436 L-61,432 L-52,425 L-46,421 L-41,418 L-33,411 L-26,407 L-18,401 L-10,396 L0,391 L10,383 L17,377 L30,368 L42,361 L54,352 L65,343 L72,336 L78,333 L87,327 L98,319 L111,309 L122,301 L132,294 L138,290 L147,282 L155,276 L161,271 L163,268 L162,260 L156,252 L142,241 L134,234 L126,228 L116,221 L96,210 L77,200 L66,195 L53,190 L35,184 L8,177 L-7,175 L-30,172 L-76,172 L-103,175 L-114,178 L-134,182 L-148,186 L-168,193 L-183,199 L-190,199 L-198,192 L-205,183 L-214,171 L-221,160 L-228,150 L-236,139 L-245,128 L-253,118 L-262,109 L-266,104 L-275,97 L-287,86 L-288,81 L-285,76 L-277,71 L-265,65 L-256,62 L-251,58 L-228,46 L-214,41 L-203,37 L-190,35 L-184,31 L-174,27 L-159,22 L-146,18 L-128,12 L-118,11 L-100,9 L-85,4 L-78,4 L-76,5 L-68,5 L-63,3 L-48,3 L-38,1 L-12,1 Z M-136,175 Z M326,201 L326,205 L330,204 L329,201 Z M109,352 L100,358 L99,364 L106,373 L115,383 L124,393 L131,401 L134,403 L141,403 L145,399 L146,392 L140,380 L126,365 L116,354 L112,352 Z M79,373 L71,378 L69,381 L70,388 L77,397 L82,401 L89,409 L99,420 L108,431 L119,444 L126,452 L138,467 L144,474 L151,475 L156,472 L157,470 L157,461 L151,453 L147,448 L144,445 L138,437 L129,427 L121,416 L109,403 L105,397 L100,392 L91,382 L85,375 Z M45,396 L39,403 L41,411 L51,424 L58,432 L66,443 L73,449 L79,449 L85,445 L86,436 L84,431 L72,417 L59,400 L54,396 Z M156,407 L151,411 L150,414 L150,421 L153,426 L160,434 L165,440 L170,444 L177,452 L185,461 L190,466 L195,473 L199,476 L201,476 L203,480 L210,488 L218,498 L222,501 L231,501 L235,497 L236,490 L234,484 L225,475 L219,468 L214,464 L207,455 L200,448 L193,440 L186,433 L178,423 L166,410 L161,407 Z M17,417 L9,423 L7,425 L8,432 L14,441 L23,452 L36,467 L44,478 L55,493 L67,509 L78,521 L86,523 L91,520 L94,515 L92,506 L79,489 L70,478 L57,461 L47,449 L38,438 L29,426 L25,420 L21,417 Z M-9,437 L-19,442 L-22,445 L-22,450 L-9,469 L-1,480 L6,487 L10,492 L12,493 L18,493 L24,488 L25,486 L24,477 L18,468 L8,455 L-2,442 L-7,437 Z M94,453 L89,459 L88,461 L88,469 L92,475 L97,480 L105,489 L112,497 L123,510 L129,518 L136,525 L142,534 L151,546 L157,549 L163,548 L167,544 L167,535 L160,525 L151,515 L145,507 L142,502 L132,489 L128,484 L119,473 L110,461 L105,455 L102,453 Z M-43,458 L-49,462 L-52,467 L-50,476 L-41,488 L-33,500 L-26,509 L-13,527 L-7,535 L3,549 L13,564 L18,568 L20,569 L26,569 L32,565 L34,560 L30,550 L21,536 L9,520 L-2,504 L-8,495 L-16,484 L-26,470 L-34,460 L-37,458 Z M167,479 L162,483 L161,485 L161,494 L164,499 L176,512 L185,522 L190,527 L198,535 L205,543 L216,556 L230,575 L236,579 L243,579 L248,574 L249,568 L246,561 L236,550 L229,542 L221,533 L213,523 L203,512 L196,504 L186,491 L179,483 L172,479 Z M-74,480 L-80,484 L-82,488 L-81,495 L-75,506 L-68,516 L-58,530 L-53,534 L-46,535 L-41,532 L-38,528 L-38,521 L-47,507 L-55,496 L-61,488 L-67,480 Z M31,496 L24,502 L23,509 L27,517 L41,536 L52,550 L60,560 L64,566 L74,580 L82,590 L87,595 L90,597 L97,597 L102,591 L102,583 L98,575 L91,566 L80,551 L71,541 L59,523 L49,510 L43,501 L38,497 Z M-104,501 L-112,507 L-115,513 L-113,519 L-103,535 L-94,549 L-88,558 L-82,568 L-73,582 L-66,592 L-60,603 L-54,611 L-49,614 L-43,613 L-38,610 L-36,606 L-36,598 L-43,586 L-56,567 L-64,556 L-71,545 L-80,532 L-88,520 L-92,513 L-98,504 L-103,501 Z M241,503 L237,507 L236,509 L236,517 L242,525 L252,536 L260,543 L266,550 L271,555 L283,569 L291,577 L297,585 L302,590 L306,596 L312,600 L322,600 L326,595 L327,591 L324,585 L312,571 L310,571 L308,567 L296,554 L291,549 L286,542 L281,538 L275,530 L271,525 L266,520 L255,508 L251,504 L249,503 Z M-135,524 L-140,526 L-143,529 L-144,534 L-141,541 L-133,557 L-121,575 L-117,578 L-110,577 L-106,572 L-107,563 L-114,550 L-120,541 L-126,530 L-131,525 Z M102,525 L96,528 L94,531 L94,540 L101,551 L112,564 L120,574 L127,583 L134,591 L141,601 L152,616 L159,623 L164,628 L169,630 L175,626 L177,623 L176,615 L167,602 L159,593 L148,578 L143,572 L139,564 L130,553 L120,540 L111,529 L104,525 Z M-163,543 L-171,549 L-173,553 L-172,559 L-164,574 L-158,586 L-150,600 L-142,614 L-133,629 L-125,645 L-119,653 L-114,655 L-108,654 L-105,651 L-102,646 L-103,637 L-109,626 L-116,615 L-125,601 L-134,585 L-149,558 L-154,549 L-159,544 Z M-35,543 L-39,548 L-40,553 L-34,565 L-22,582 L-11,599 L-5,608 L4,621 L10,631 L18,642 L22,645 L29,645 L35,640 L36,638 L36,630 L32,622 L23,611 L10,593 L0,578 L-7,566 L-14,556 L-20,547 L-25,543 Z M178,555 L173,559 L171,566 L173,573 L181,583 L190,592 L197,601 L206,611 L215,622 L225,635 L240,651 L248,653 L254,650 L256,646 L255,641 L249,632 L242,623 L228,608 L221,598 L211,587 L205,579 L197,569 L186,557 L182,555 Z M-195,566 L-200,569 L-204,574 L-203,582 L-193,601 L-190,608 L-183,620 L-178,624 L-172,625 L-164,621 L-163,619 L-163,612 L-167,602 L-180,579 L-188,568 L-192,566 Z M409,568 L409,579 L412,580 L415,577 L415,571 L412,568 Z M40,574 L34,578 L32,581 L32,589 L35,595 L47,612 L58,626 L68,640 L79,657 L89,671 L93,675 L96,676 L104,676 L109,672 L110,666 L107,659 L101,649 L95,641 L79,618 L73,609 L60,590 L50,577 L44,574 Z M258,585 L254,589 L253,598 L258,607 L276,625 L283,633 L294,646 L303,655 L310,664 L319,675 L323,678 L333,678 L337,673 L337,667 L331,657 L319,644 L313,637 L306,629 L297,619 L290,611 L279,599 L272,591 L266,585 Z M-99,586 L-105,589 L-106,591 L-106,599 L-100,611 L-89,629 L-80,645 L-75,653 L-65,671 L-59,680 L-51,692 L-46,695 L-39,694 L-34,689 L-34,679 L-37,673 L-47,658 L-58,640 L-62,633 L-68,624 L-77,609 L-80,603 L-88,593 L-92,588 Z M-227,588 L-233,592 L-235,595 L-234,603 L-228,615 L-223,625 L-215,641 L-207,656 L-196,680 L-186,698 L-180,703 L-170,701 L-167,697 L-167,689 L-172,679 L-181,664 L-191,645 L-201,623 L-208,609 L-213,599 L-220,589 Z M334,603 L329,608 L328,609 L328,617 L334,625 L342,634 L350,641 L359,651 L367,659 L374,667 L385,679 L390,685 L395,690 L404,700 L409,701 L416,697 L418,695 L418,687 L409,675 L398,663 L393,657 L388,653 L381,644 L376,639 L361,623 L354,615 L343,604 L341,603 Z M110,604 L104,608 L103,610 L103,617 L109,626 L115,634 L119,640 L127,650 L134,660 L141,669 L147,678 L155,688 L164,700 L172,706 L178,705 L181,700 L181,690 L177,684 L165,670 L158,660 L148,646 L143,639 L139,632 L127,616 L121,608 L113,604 Z M-32,619 L-37,622 L-39,626 L-39,633 L-31,648 L-25,656 L-20,665 L-11,679 L-6,686 L-2,693 L4,702 L14,718 L20,726 L25,730 L30,731 L36,728 L39,722 L38,713 L26,696 L19,685 L7,667 L-4,650 L-12,637 L-19,625 L-24,621 L-29,619 Z M-163,634 L-167,637 L-168,645 L-160,663 L-150,681 L-138,704 L-127,724 L-122,734 L-117,739 L-115,741 L-106,741 L-101,736 L-101,726 L-111,707 L-120,692 L-128,678 L-136,662 L-142,652 L-148,640 L-153,635 L-156,634 Z M187,636 L182,640 L181,648 L185,656 L193,667 L202,678 L209,688 L221,701 L225,707 L238,723 L242,728 L249,733 L255,733 L259,729 L260,722 L254,710 L244,698 L237,690 L229,679 L223,672 L210,655 L204,647 L197,639 L192,636 Z M42,651 L36,655 L35,656 L35,665 L38,671 L50,688 L60,702 L67,713 L73,722 L87,745 L96,754 L98,755 L105,755 L110,751 L111,749 L110,740 L103,730 L97,722 L82,699 L76,690 L64,672 L52,655 L44,651 Z M267,660 L261,665 L259,670 L260,677 L267,686 L277,696 L288,710 L299,723 L308,733 L321,750 L326,755 L328,756 L336,756 L340,753 L341,750 L341,743 L337,737 L329,728 L319,714 L312,706 L303,695 L294,684 L285,674 L279,664 L274,660 Z M-95,672 L-100,676 L-101,683 L-97,692 L-89,706 L-84,715 L-72,736 L-56,764 L-51,772 L-45,777 L-37,777 L-33,772 L-32,764 L-36,754 L-47,737 L-56,722 L-63,708 L-68,699 L-78,683 L-86,674 L-90,672 Z M346,682 L340,687 L340,698 L345,706 L354,715 L361,723 L375,738 L384,749 L386,749 L388,753 L399,766 L408,777 L412,780 L418,780 L424,775 L426,769 L421,759 L414,751 L409,746 L400,736 L395,730 L390,725 L377,709 L366,697 L358,687 L353,683 Z M120,687 L115,692 L115,704 L122,715 L129,725 L137,736 L143,747 L149,756 L158,768 L168,781 L174,784 L179,783 L184,778 L184,772 L173,754 L165,743 L156,731 L150,724 L145,715 L139,704 L131,693 L127,688 Z M-30,700 L-35,704 L-36,706 L-36,715 L-32,723 L-27,730 L-21,741 L-11,758 L-2,772 L10,792 L16,802 L22,807 L29,806 L34,800 L34,791 L18,764 L10,754 L6,745 L-1,735 L-10,718 L-16,709 L-22,702 L-26,700 Z M-166,714 L-171,719 L-171,727 L-167,737 L-163,745 L-160,751 L-156,757 L-147,777 L-134,802 L-126,818 L-120,826 L-115,828 L-109,827 L-105,820 L-106,811 L-114,794 L-120,785 L-126,773 L-136,755 L-146,734 L-151,724 L-154,718 L-158,714 Z M198,716 L193,719 L191,723 L191,729 L195,737 L205,751 L214,764 L221,775 L229,786 L242,803 L246,808 L250,811 L257,811 L261,809 L263,803 L260,794 L250,780 L242,770 L231,756 L224,747 L210,728 L202,717 Z M42,737 L36,742 L37,752 L45,766 L52,776 L64,795 L74,811 L81,821 L85,829 L93,839 L97,841 L103,841 L107,836 L108,828 L101,814 L90,797 L79,780 L69,766 L56,745 L50,738 L48,737 Z M269,739 L265,743 L264,752 L268,760 L277,771 L284,780 L293,791 L298,795 L305,803 L313,815 L321,823 L329,833 L332,835 L338,834 L341,830 L341,823 L339,818 L330,806 L326,801 L311,781 L304,774 L298,765 L290,756 L282,744 L279,741 L275,739 Z M-98,751 L-103,755 L-104,757 L-104,764 L-97,778 L-90,790 L-83,804 L-78,812 L-72,824 L-69,829 L-59,849 L-54,857 L-47,861 L-41,861 L-36,856 L-35,848 L-38,841 L-47,824 L-53,815 L-64,797 L-72,781 L-84,757 L-89,752 L-91,751 Z M116,762 L111,766 L111,774 L114,781 L121,792 L129,803 L135,812 L141,821 L144,828 L151,838 L161,854 L169,865 L173,868 L179,868 L184,864 L185,853 L181,845 L171,832 L162,818 L155,808 L149,800 L142,789 L133,774 L125,764 L121,762 Z M350,762 L345,766 L344,768 L344,775 L348,783 L364,800 L371,808 L380,818 L388,829 L402,847 L411,858 L417,862 L422,861 L425,859 L430,858 L430,849 L424,840 L416,830 L407,820 L401,812 L398,809 L396,809 L394,805 L385,794 L375,781 L366,770 L359,763 L357,762 Z M-29,783 L-35,787 L-36,790 L-36,798 L-33,805 L-23,822 L-15,835 L-9,846 L3,866 L14,886 L18,892 L21,895 L29,896 L34,893 L36,889 L36,881 L31,871 L23,859 L12,840 L0,821 L-10,802 L-16,793 L-19,788 L-24,784 Z M194,795 L189,800 L189,810 L193,817 L200,826 L206,836 L216,849 L223,860 L231,871 L243,887 L248,892 L251,894 L257,893 L262,889 L263,887 L263,879 L258,870 L250,859 L238,844 L231,833 L224,823 L218,815 L209,803 L202,795 Z M40,815 L34,819 L33,821 L33,828 L36,835 L47,853 L53,862 L64,880 L70,891 L76,901 L86,917 L93,923 L98,924 L104,920 L106,917 L106,907 L100,897 L89,881 L82,870 L79,864 L70,851 L62,838 L52,822 L44,815 Z M271,816 L266,820 L265,822 L265,833 L272,844 L278,851 L284,859 L294,872 L304,885 L312,896 L321,908 L327,916 L331,921 L333,922 L339,922 L345,918 L346,916 L346,907 L336,893 L321,873 L312,861 L299,844 L291,833 L284,823 L276,816 Z M-102,837 L-107,841 L-108,848 L-105,856 L-99,868 L-92,882 L-86,893 L-80,904 L-72,920 L-61,940 L-55,945 L-48,945 L-44,941 L-43,933 L-47,923 L-52,914 L-62,896 L-67,886 L-74,872 L-80,861 L-89,842 L-94,838 L-96,837 Z M114,848 L109,852 L108,859 L110,864 L120,880 L128,892 L135,902 L141,913 L146,922 L156,938 L161,947 L164,948 L164,950 L168,952 L174,952 L180,947 L181,938 L170,920 L162,909 L154,897 L143,881 L140,874 L131,861 L127,853 L122,849 L120,848 Z M-34,865 L-40,869 L-41,871 L-41,880 L-34,892 L-31,898 L-24,909 L-16,925 L-5,947 L2,958 L9,971 L16,975 L23,974 L27,969 L28,961 L21,947 L14,936 L9,928 L3,917 L-9,895 L-15,886 L-21,874 L-27,867 L-31,865 Z M192,875 L187,879 L186,882 L186,890 L194,902 L201,912 L211,928 L218,938 L229,956 L236,966 L245,977 L252,978 L259,975 L261,971 L259,961 L249,947 L239,932 L227,915 L219,904 L211,890 L204,880 L199,876 Z M35,900 L31,904 L31,914 L36,923 L47,943 L55,956 L63,970 L69,981 L75,992 L83,1004 L87,1008 L94,1008 L100,1004 L102,1000 L101,991 L85,963 L80,956 L75,947 L70,938 L60,923 L50,906 L44,900 Z M110,929 L105,934 L104,943 L110,955 L119,970 L125,980 L135,997 L141,1007 L144,1016 L156,1034 L161,1039 L163,1041 L171,1041 L176,1037 L177,1035 L177,1026 L173,1017 L165,1003 L161,998 L152,983 L143,969 L136,955 L129,945 L123,935 L118,930 Z M-41,956 L-46,962 L-45,971 L-37,988 L-27,1006 L-19,1022 L-7,1046 L-1,1056 L3,1061 L13,1063 L19,1059 L19,1049 L11,1033 L7,1025 L1,1016 L-3,1007 L-11,991 L-18,978 L-27,963 L-35,956 Z M31,983 L27,985 L24,992 L25,1000 L33,1014 L44,1035 L51,1047 L59,1063 L67,1079 L75,1092 L81,1098 L89,1098 L94,1095 L96,1086 L93,1075 L85,1061 L77,1049 L70,1035 L62,1021 L54,1007 L46,992 L43,987 L38,983 Z " fill="#000000" transform="translate(3035,51)"/>
<path d="M0,0 L8,0 L25,8 L39,17 L50,24 L58,28 L67,34 L67,36 L73,38 L90,46 L99,52 L116,61 L127,67 L132,71 L162,87 L169,91 L176,96 L187,102 L210,114 L220,121 L235,129 L241,133 L257,141 L265,147 L279,154 L289,161 L306,170 L317,177 L331,184 L340,190 L359,200 L368,205 L378,212 L383,216 L384,223 L381,226 L373,227 L292,227 L283,228 L247,227 L218,228 L175,228 L164,229 L155,228 L126,228 L59,227 L36,228 L23,228 L3,227 L-41,228 L-58,228 L-67,227 L-115,228 L-140,228 L-187,227 L-257,227 L-371,226 L-376,222 L-377,218 L-373,212 L-358,203 L-347,197 L-341,193 L-334,190 L-321,182 L-307,174 L-299,169 L-292,165 L-286,161 L-278,157 L-271,153 L-252,143 L-241,136 L-232,132 L-215,121 L-203,115 L-192,108 L-177,100 L-173,97 L-157,89 L-133,75 L-124,69 L-105,60 L-100,56 L-83,47 L-74,41 L-62,35 L-47,27 L-38,21 L-32,17 L-20,12 L-7,4 L-3,1 Z " fill="#000000" transform="translate(1815,533)"/>
</svg>
