<?xml version="1.0" encoding="UTF-8"?>
<!-- Generator: visioncortex VTracer 0.6.12 -->
<svg version="1.1" xmlns="http://www.w3.org/2000/svg" width="3690" height="1239">
<path d="M0,0 L40,0 L129,2 L215,3 L329,5 L460,7 L604,9 L624,9 L648,10 L669,10 L735,11 L776,12 L804,16 L817,20 L827,23 L845,31 L860,39 L877,51 L887,59 L898,69 L905,77 L913,86 L922,99 L927,108 L935,123 L943,143 L947,159 L950,173 L952,191 L952,235 L950,322 L949,402 L947,482 L946,574 L945,617 L943,767 L942,805 L940,940 L938,984 L936,1001 L933,1015 L927,1033 L920,1050 L908,1072 L897,1086 L888,1097 L874,1111 L868,1115 L854,1126 L843,1133 L827,1141 L809,1149 L785,1155 L761,1158 L723,1158 L668,1157 L633,1157 L553,1156 L460,1155 L314,1153 L189,1152 L127,1151 L96,1151 L-12,1149 L-45,1146 L-68,1140 L-87,1133 L-103,1125 L-113,1119 L-124,1112 L-137,1101 L-147,1092 L-158,1080 L-171,1062 L-179,1049 L-188,1030 L-194,1013 L-200,986 L-201,963 L-200,876 L-198,797 L-197,737 L-195,668 L-194,596 L-193,539 L-190,317 L-189,275 L-188,211 L-187,199 L-186,194 L-187,192 L-187,176 L-185,158 L-178,131 L-169,109 L-160,92 L-150,78 L-143,69 L-131,56 L-123,48 L-110,38 L-100,31 L-87,23 L-68,14 L-55,9 L-35,4 L-24,2 Z M-12,35 L-36,39 L-56,46 L-79,57 L-94,68 L-111,84 L-121,95 L-131,110 L-139,126 L-146,143 L-152,168 L-154,203 L-155,258 L-156,326 L-157,358 L-158,424 L-159,516 L-162,669 L-164,759 L-167,919 L-167,976 L-163,997 L-155,1021 L-146,1038 L-133,1057 L-120,1071 L-112,1078 L-97,1089 L-82,1098 L-57,1108 L-34,1113 L-25,1114 L33,1115 L103,1116 L207,1117 L260,1117 L292,1118 L381,1119 L491,1120 L600,1122 L680,1123 L737,1124 L757,1124 L783,1121 L803,1115 L821,1107 L837,1097 L851,1086 L867,1070 L877,1057 L883,1048 L890,1034 L895,1023 L898,1014 L902,998 L904,986 L906,965 L908,859 L909,818 L911,674 L912,628 L913,574 L914,473 L916,364 L917,289 L918,250 L918,191 L915,170 L910,150 L905,140 L901,130 L891,114 L882,102 L871,90 L864,83 L852,74 L839,66 L820,57 L804,51 L794,49 L791,48 L760,46 L714,45 L630,44 L564,43 L509,42 L419,41 L318,39 L187,37 L143,36 L57,35 Z " fill="#000000" transform="translate(1472,36)"/>
<path d="M0,0 L125,1 L218,2 L261,3 L365,4 L531,5 L590,6 L639,6 L723,7 L745,7 L775,8 L800,12 L820,18 L837,25 L854,34 L865,41 L869,45 L878,52 L888,61 L896,68 L905,79 L917,96 L928,117 L937,140 L942,161 L944,173 L945,186 L945,250 L944,334 L943,405 L941,587 L939,742 L939,764 L938,828 L937,923 L936,975 L932,1002 L928,1017 L921,1036 L913,1053 L903,1069 L893,1082 L878,1098 L871,1105 L863,1112 L853,1119 L844,1125 L828,1133 L809,1141 L797,1145 L777,1149 L753,1151 L710,1151 L654,1150 L584,1149 L450,1148 L375,1147 L326,1146 L152,1145 L118,1145 L-7,1144 L-25,1144 L-46,1142 L-63,1139 L-83,1133 L-107,1122 L-119,1115 L-130,1108 L-138,1101 L-147,1094 L-162,1079 L-172,1066 L-182,1051 L-191,1034 L-197,1021 L-203,1002 L-206,990 L-209,966 L-209,882 L-208,843 L-207,778 L-207,747 L-206,671 L-206,652 L-205,597 L-204,508 L-203,397 L-201,306 L-200,221 L-199,184 L-197,160 L-193,141 L-185,118 L-177,102 L-171,91 L-160,75 L-149,62 L-139,52 L-131,45 L-120,36 L-104,26 L-88,18 L-76,13 L-63,8 L-42,3 L-23,1 Z M-9,35 L-38,38 L-59,44 L-75,50 L-91,59 L-103,67 L-112,75 L-115,77 L-115,79 L-119,81 L-131,95 L-140,108 L-149,124 L-155,138 L-161,159 L-163,171 L-164,183 L-166,312 L-167,357 L-168,488 L-169,530 L-170,611 L-172,778 L-173,845 L-174,957 L-172,980 L-168,996 L-161,1017 L-150,1037 L-144,1045 L-141,1050 L-125,1067 L-116,1075 L-100,1086 L-86,1094 L-72,1100 L-53,1106 L-42,1108 L-31,1109 L70,1110 L172,1111 L246,1112 L300,1112 L477,1114 L541,1115 L708,1116 L755,1116 L772,1115 L791,1110 L799,1108 L825,1096 L837,1088 L850,1078 L863,1066 L869,1057 L878,1045 L887,1029 L895,1010 L900,991 L902,979 L903,961 L904,900 L905,779 L906,691 L907,643 L907,610 L908,528 L909,413 L911,265 L911,186 L908,165 L902,145 L897,133 L886,112 L877,101 L867,90 L861,82 L852,75 L842,68 L827,59 L805,50 L784,45 L759,43 L702,42 L625,41 L602,41 L501,40 L474,39 L209,37 L140,36 L74,35 Z " fill="#000000" transform="translate(2711,55)"/>
<path d="M0,0 L69,1 L107,2 L159,2 L205,3 L232,3 L275,4 L318,4 L325,5 L398,5 L449,6 L502,6 L505,5 L512,5 L517,6 L705,6 L721,7 L771,8 L788,11 L801,15 L811,17 L824,22 L839,30 L847,34 L857,41 L867,48 L876,55 L883,63 L888,68 L897,78 L903,86 L908,95 L914,104 L922,120 L926,131 L934,161 L936,176 L936,213 L934,217 L935,223 L935,299 L934,350 L929,604 L929,618 L928,652 L927,711 L926,798 L926,830 L925,846 L925,875 L924,905 L924,935 L923,957 L920,977 L916,990 L911,1008 L904,1023 L898,1034 L892,1044 L886,1052 L879,1061 L866,1075 L858,1082 L848,1091 L830,1102 L814,1110 L807,1114 L794,1118 L774,1124 L765,1126 L749,1127 L746,1128 L694,1129 L669,1128 L624,1128 L609,1127 L473,1126 L467,1125 L387,1125 L321,1124 L291,1124 L265,1123 L146,1123 L132,1122 L119,1122 L112,1121 L103,1123 L91,1123 L61,1122 L38,1122 L20,1121 L-15,1121 L-36,1119 L-39,1118 L-57,1116 L-68,1112 L-77,1110 L-89,1105 L-106,1097 L-120,1088 L-131,1080 L-138,1073 L-146,1067 L-153,1059 L-158,1054 L-167,1043 L-176,1029 L-184,1014 L-190,1000 L-196,979 L-198,970 L-201,940 L-201,914 L-200,873 L-199,719 L-198,695 L-198,675 L-197,627 L-196,550 L-195,513 L-195,494 L-194,446 L-193,327 L-192,321 L-193,313 L-192,294 L-192,258 L-191,228 L-191,212 L-190,167 L-188,157 L-187,147 L-185,142 L-183,134 L-178,120 L-171,104 L-164,92 L-160,85 L-151,72 L-142,62 L-137,57 L-132,51 L-118,40 L-109,33 L-102,28 L-92,24 L-85,19 L-62,10 L-40,4 L-23,1 Z M-15,35 L-35,38 L-54,44 L-66,49 L-80,56 L-90,62 L-103,72 L-110,79 L-115,83 L-128,101 L-133,107 L-139,118 L-142,122 L-146,134 L-150,144 L-154,161 L-155,174 L-157,245 L-158,332 L-159,362 L-160,369 L-159,372 L-159,418 L-160,448 L-160,468 L-161,551 L-162,596 L-163,632 L-163,663 L-164,724 L-165,731 L-165,769 L-166,823 L-167,932 L-166,952 L-162,971 L-158,986 L-153,998 L-143,1017 L-135,1028 L-128,1035 L-119,1046 L-105,1057 L-96,1063 L-80,1071 L-69,1076 L-48,1082 L-37,1084 L2,1086 L67,1087 L197,1088 L223,1089 L290,1089 L312,1090 L364,1090 L453,1091 L466,1091 L482,1092 L485,1091 L532,1091 L548,1092 L643,1093 L720,1094 L747,1093 L754,1091 L773,1088 L794,1081 L810,1073 L820,1067 L830,1060 L845,1046 L854,1036 L863,1025 L873,1008 L879,993 L882,984 L884,979 L888,954 L890,898 L890,871 L891,808 L891,758 L892,751 L891,741 L892,731 L892,716 L893,681 L894,608 L894,595 L895,573 L896,513 L897,441 L898,398 L900,300 L901,264 L902,208 L902,188 L901,175 L895,147 L890,135 L886,126 L879,114 L872,104 L863,93 L854,83 L845,76 L835,68 L824,62 L809,55 L798,50 L787,48 L786,47 L766,44 L741,43 L697,43 L678,42 L656,42 L591,41 L576,42 L570,41 L447,41 L444,40 L368,40 L303,39 L277,39 L265,38 L232,38 L225,37 L216,38 L170,37 L156,37 L151,38 L143,37 L61,36 L53,35 L29,36 L10,35 Z " fill="#000000" transform="translate(238,56)"/>
<path d="M0,0 L18,0 L33,4 L49,12 L63,24 L71,35 L76,45 L79,55 L81,68 L80,84 L78,93 L73,105 L67,115 L58,126 L44,136 L34,141 L29,143 L2,147 L-7,149 L-19,154 L-31,165 L-37,172 L-42,184 L-44,197 L-43,211 L-40,220 L-35,235 L-34,240 L-34,254 L-36,263 L-41,273 L-50,283 L-58,289 L-62,313 L-67,326 L-74,337 L-85,349 L-95,359 L-97,359 L-99,363 L-104,368 L-107,371 L-109,371 L-111,375 L-121,384 L-125,389 L-131,394 L-133,394 L-135,398 L-147,409 L-172,434 L-180,441 L-195,456 L-200,461 L-210,470 L-230,490 L-238,497 L-251,510 L-259,517 L-270,528 L-275,533 L-287,544 L-301,558 L-309,565 L-324,580 L-332,587 L-357,612 L-365,619 L-376,630 L-381,635 L-391,644 L-398,650 L-403,655 L-411,663 L-416,668 L-426,677 L-446,697 L-451,702 L-464,714 L-480,729 L-487,736 L-492,741 L-500,748 L-505,748 L-516,736 L-527,723 L-532,718 L-551,699 L-558,691 L-579,670 L-586,662 L-606,642 L-606,640 L-609,639 L-614,634 L-623,624 L-637,610 L-644,602 L-669,577 L-676,569 L-681,563 L-679,558 L-672,551 L-670,551 L-668,547 L-660,540 L-642,522 L-634,515 L-625,506 L-617,499 L-588,470 L-586,470 L-585,467 L-577,460 L-570,453 L-568,453 L-566,449 L-550,434 L-538,422 L-530,415 L-522,408 L-513,397 L-500,385 L-485,370 L-477,363 L-472,358 L-443,329 L-435,322 L-408,295 L-400,288 L-379,267 L-371,260 L-367,255 L-359,248 L-349,239 L-344,234 L-324,214 L-316,207 L-275,166 L-267,159 L-256,149 L-242,140 L-229,135 L-209,132 L-203,129 L-196,121 L-184,114 L-175,111 L-163,110 L-146,114 L-135,119 L-122,122 L-109,121 L-97,118 L-85,111 L-78,105 L-71,94 L-66,82 L-62,56 L-57,41 L-48,27 L-37,16 L-27,9 L-17,4 Z M-217,153 L-229,157 L-239,164 L-249,172 L-256,180 L-268,192 L-276,199 L-298,221 L-298,223 L-302,225 L-326,249 L-328,250 L-328,252 L-332,254 L-345,267 L-351,272 L-351,274 L-355,276 L-369,290 L-376,296 L-376,298 L-380,300 L-400,320 L-403,322 L-403,324 L-407,326 L-417,336 L-424,342 L-424,344 L-428,346 L-454,372 L-459,377 L-468,385 L-473,390 L-496,413 L-504,420 L-512,428 L-518,433 L-524,441 L-539,455 L-548,464 L-556,471 L-564,478 L-571,486 L-586,500 L-593,507 L-601,514 L-611,524 L-616,529 L-631,543 L-647,559 L-646,565 L-632,580 L-630,580 L-628,584 L-623,589 L-612,601 L-596,617 L-591,623 L-586,628 L-564,650 L-559,655 L-545,670 L-532,683 L-527,688 L-519,697 L-512,705 L-503,714 L-498,714 L-483,699 L-475,692 L-440,657 L-435,652 L-425,643 L-420,638 L-417,635 L-418,628 L-436,610 L-443,602 L-448,598 L-455,590 L-460,585 L-460,579 L-449,568 L-444,568 L-432,581 L-416,597 L-414,600 L-412,600 L-410,604 L-401,613 L-396,614 L-388,607 L-375,594 L-367,587 L-356,576 L-348,569 L-332,553 L-332,547 L-337,542 L-346,532 L-373,505 L-375,502 L-374,496 L-364,486 L-361,485 L-356,489 L-351,494 L-339,507 L-315,531 L-311,532 L-300,523 L-276,499 L-271,494 L-261,485 L-246,470 L-246,465 L-257,453 L-269,441 L-270,439 L-272,439 L-274,435 L-287,422 L-289,419 L-289,414 L-281,406 L-278,403 L-273,404 L-266,412 L-258,420 L-253,425 L-231,447 L-229,450 L-224,449 L-207,433 L-189,415 L-181,408 L-168,395 L-163,390 L-159,385 L-162,379 L-176,365 L-183,357 L-196,343 L-202,338 L-204,333 L-197,325 L-193,320 L-188,321 L-181,328 L-177,333 L-172,338 L-155,355 L-148,363 L-144,367 L-139,367 L-115,343 L-107,336 L-102,332 L-96,325 L-90,320 L-85,313 L-80,300 L-79,284 L-81,274 L-85,265 L-91,256 L-110,237 L-117,229 L-130,216 L-134,211 L-139,206 L-152,193 L-159,185 L-176,168 L-181,163 L-186,159 L-196,155 L-201,153 Z " fill="#000000" transform="translate(2150,240)"/>
<path d="M0,0 L61,0 L101,1 L110,7 L114,12 L116,17 L116,24 L112,27 L32,27 L28,31 L28,38 L31,43 L71,44 L101,45 L110,50 L111,51 L111,56 L106,60 L92,63 L65,63 L42,62 L31,63 L28,68 L28,74 L30,76 L35,77 L61,78 L98,79 L104,81 L112,87 L110,92 L105,95 L98,97 L32,97 L28,100 L27,108 L28,112 L30,113 L87,115 L97,115 L107,119 L112,123 L111,128 L103,133 L85,135 L35,135 L27,137 L28,147 L32,148 L70,149 L91,149 L101,150 L111,156 L112,161 L109,164 L97,168 L80,169 L66,169 L56,168 L47,169 L30,169 L27,171 L27,178 L28,181 L31,183 L50,184 L82,184 L99,185 L107,189 L111,193 L109,198 L99,202 L46,203 L32,203 L28,205 L26,209 L27,214 L30,217 L97,218 L107,222 L112,227 L111,232 L99,238 L88,239 L79,237 L77,238 L32,239 L28,240 L27,247 L30,250 L39,251 L49,251 L54,252 L70,252 L96,253 L107,257 L111,260 L110,265 L102,270 L92,272 L77,273 L31,273 L26,278 L27,283 L31,285 L40,286 L95,287 L105,291 L111,296 L110,300 L102,305 L98,307 L77,308 L58,308 L30,309 L25,312 L26,319 L31,321 L45,321 L51,322 L93,322 L100,323 L109,328 L110,334 L105,338 L94,342 L29,342 L25,345 L24,349 L25,356 L27,358 L42,359 L93,360 L102,363 L108,367 L108,372 L102,376 L99,377 L84,378 L75,379 L56,378 L37,378 L26,381 L25,386 L29,391 L32,392 L53,393 L86,393 L97,394 L107,399 L110,402 L109,407 L97,413 L88,414 L29,414 L25,416 L24,418 L24,425 L29,428 L36,429 L84,429 L98,431 L107,437 L108,442 L96,448 L82,449 L27,449 L23,450 L24,463 L74,463 L92,464 L101,467 L107,470 L108,476 L105,479 L97,482 L93,483 L79,484 L67,484 L68,498 L77,499 L90,499 L103,504 L107,509 L105,513 L95,517 L78,517 L76,518 L53,519 L26,519 L22,523 L23,530 L26,532 L42,533 L86,533 L98,535 L105,538 L108,542 L107,546 L104,549 L91,553 L83,553 L74,552 L58,553 L46,553 L30,552 L23,555 L22,560 L26,564 L28,565 L77,566 L91,566 L102,570 L106,575 L104,580 L91,584 L62,584 L25,585 L22,586 L22,596 L24,598 L34,600 L49,601 L90,602 L101,605 L106,609 L107,613 L104,617 L94,620 L85,621 L57,621 L54,622 L27,622 L23,625 L24,630 L28,634 L41,635 L93,636 L104,642 L105,643 L105,648 L100,652 L91,655 L78,656 L38,656 L26,657 L23,660 L24,666 L30,670 L85,671 L98,675 L104,679 L106,683 L104,687 L94,692 L85,693 L32,693 L24,696 L23,697 L23,702 L27,703 L30,701 L35,701 L38,704 L46,705 L50,704 L82,704 L105,705 L108,707 L109,714 L105,724 L101,729 L94,731 L46,731 L38,732 L30,731 L17,731 L14,730 L-10,730 L-21,727 L-25,723 L-29,715 L-30,709 L-30,672 L-29,623 L-29,574 L-28,556 L-28,453 L-27,394 L-26,358 L-25,328 L-25,177 L-24,144 L-24,115 L-23,102 L-23,34 L-21,17 L-16,8 L-9,3 Z M40,482 L30,485 L25,490 L26,496 L29,498 L40,498 L50,495 L57,489 L59,488 L59,484 L57,483 Z " fill="#000000" transform="translate(258,247)"/>
<path d="M0,0 L22,0 L32,4 L43,10 L53,18 L60,32 L62,49 L60,63 L56,74 L50,86 L40,96 L25,105 L9,113 L0,120 L-5,127 L-8,134 L-8,148 L-4,162 L-4,179 L-6,191 L-7,193 L-9,212 L-16,252 L-20,272 L-24,296 L-28,310 L-27,315 L-13,323 L7,334 L25,344 L32,348 L57,361 L69,371 L69,373 L73,375 L83,385 L85,386 L85,388 L89,390 L112,413 L119,419 L119,421 L123,423 L128,429 L135,434 L142,442 L157,456 L168,467 L173,472 L182,480 L189,488 L228,527 L235,533 L240,539 L248,546 L253,552 L258,556 L263,561 L268,566 L273,571 L279,576 L286,584 L302,600 L306,605 L311,606 L319,599 L328,590 L333,585 L338,580 L346,573 L351,567 L359,560 L368,551 L373,545 L378,546 L389,558 L389,564 L374,579 L366,586 L357,594 L352,599 L342,608 L313,637 L307,638 L289,620 L289,618 L283,617 L288,631 L288,648 L282,664 L276,672 L269,679 L253,687 L248,688 L229,688 L220,685 L210,680 L201,672 L194,662 L189,649 L189,628 L194,616 L201,607 L208,600 L218,594 L226,591 L234,590 L244,590 L253,592 L260,593 L258,589 L250,582 L241,572 L231,562 L225,557 L218,549 L210,541 L202,534 L133,465 L133,463 L129,461 L121,452 L116,447 L108,440 L104,435 L99,430 L84,415 L79,410 L72,402 L64,395 L57,388 L50,380 L44,375 L35,370 L28,365 L22,362 L8,352 L-10,341 L-19,335 L-28,329 L-32,330 L-35,344 L-37,359 L-37,371 L-34,383 L-29,399 L-25,412 L-19,432 L-14,448 L-2,484 L6,512 L7,554 L7,679 L5,684 L-44,684 L-47,680 L-48,613 L-48,589 L-49,534 L-54,519 L-59,502 L-65,483 L-72,461 L-74,453 L-80,433 L-83,423 L-86,411 L-92,390 L-98,374 L-102,373 L-107,381 L-116,398 L-123,415 L-131,431 L-136,443 L-143,458 L-154,481 L-162,497 L-169,512 L-177,531 L-185,547 L-193,564 L-200,578 L-207,595 L-215,610 L-219,620 L-227,636 L-238,662 L-243,674 L-249,675 L-264,673 L-292,672 L-294,671 L-295,667 L-291,655 L-284,640 L-272,612 L-262,589 L-257,576 L-249,557 L-244,546 L-238,530 L-228,506 L-221,490 L-211,466 L-205,452 L-198,435 L-194,426 L-187,411 L-180,391 L-172,374 L-167,362 L-160,348 L-156,338 L-152,326 L-143,301 L-133,273 L-129,260 L-121,240 L-114,219 L-108,203 L-100,181 L-93,160 L-86,145 L-82,139 L-70,130 L-54,122 L-45,116 L-38,109 L-34,100 L-34,83 L-36,71 L-36,45 L-32,30 L-28,21 L-18,10 Z M231,612 L220,618 L216,622 L211,634 L211,644 L214,653 L220,660 L231,666 L246,666 L256,660 L261,654 L264,649 L265,644 L265,633 L262,626 L255,618 L248,613 L245,612 Z " fill="#000000" transform="translate(3012,252)"/>
<path d="M0,0 L6,0 L15,11 L21,22 L25,27 L31,38 L38,47 L52,70 L60,81 L65,90 L72,100 L79,110 L87,124 L95,137 L102,147 L109,158 L118,173 L138,203 L148,218 L158,233 L167,247 L174,258 L178,263 L185,275 L192,285 L198,294 L202,302 L212,317 L223,332 L230,342 L233,344 L238,343 L239,342 L240,334 L247,332 L257,317 L263,308 L271,298 L278,287 L284,278 L299,256 L310,241 L317,230 L324,220 L332,209 L340,198 L349,184 L359,169 L368,156 L376,145 L380,139 L383,129 L390,124 L397,114 L403,106 L410,95 L420,80 L428,69 L437,55 L444,45 L453,31 L459,22 L465,14 L473,3 L479,3 L488,8 L492,13 L495,18 L496,25 L496,34 L494,41 L490,49 L483,60 L477,71 L469,86 L462,96 L450,116 L442,130 L439,133 L436,140 L427,156 L416,173 L404,195 L393,214 L386,225 L379,236 L373,247 L364,263 L352,283 L339,305 L327,326 L322,334 L315,345 L306,361 L300,370 L294,381 L286,395 L282,402 L277,410 L277,416 L282,423 L286,431 L293,441 L300,452 L308,463 L314,473 L323,486 L329,497 L337,508 L344,519 L353,530 L354,531 L361,530 L371,529 L392,529 L407,532 L417,535 L426,539 L436,545 L447,553 L457,562 L469,576 L475,586 L479,597 L483,607 L486,617 L488,629 L488,647 L486,663 L483,677 L480,686 L472,700 L456,716 L448,721 L444,724 L427,729 L424,730 L409,730 L390,728 L380,726 L368,721 L352,713 L342,706 L330,695 L318,680 L312,668 L307,659 L300,636 L300,605 L302,598 L303,588 L310,572 L313,566 L318,557 L319,551 L315,541 L307,531 L300,519 L291,506 L282,493 L271,476 L257,455 L248,446 L240,442 L232,441 L222,444 L213,449 L198,471 L188,484 L181,495 L173,506 L166,517 L157,529 L151,539 L147,546 L146,553 L154,569 L159,579 L162,587 L164,600 L168,607 L166,610 L165,626 L160,649 L153,667 L142,685 L137,690 L132,696 L124,703 L111,712 L101,718 L89,722 L79,725 L69,727 L44,727 L29,724 L18,720 L7,713 L3,709 L-2,704 L-9,694 L-16,680 L-21,661 L-22,653 L-22,629 L-20,616 L-16,603 L-14,597 L-8,584 L-2,575 L6,565 L11,559 L22,550 L29,544 L35,541 L41,537 L54,532 L62,529 L85,525 L101,525 L103,526 L113,526 L116,523 L124,512 L132,501 L143,485 L151,474 L159,462 L166,452 L176,437 L185,423 L192,413 L192,406 L184,390 L172,368 L166,359 L158,343 L153,336 L146,322 L138,309 L127,289 L123,283 L117,271 L111,261 L105,250 L100,242 L95,232 L89,221 L82,209 L72,190 L62,173 L54,158 L48,148 L42,137 L29,112 L25,107 L20,97 L17,93 L10,79 L0,60 L-3,57 L-10,43 L-15,33 L-15,19 L-11,11 L-5,3 Z M230,396 L223,401 L221,406 L223,415 L229,420 L237,420 L245,413 L246,408 L244,402 L238,397 L236,396 Z M81,551 L68,553 L52,560 L42,566 L29,576 L18,590 L12,599 L6,613 L3,627 L3,655 L7,672 L15,686 L21,691 L29,697 L41,703 L57,706 L67,705 L76,702 L88,699 L93,695 L93,693 L98,691 L106,687 L119,674 L129,660 L135,647 L138,638 L140,628 L141,614 L138,594 L132,578 L125,569 L120,564 L109,558 L98,553 L88,551 Z M373,556 L363,559 L347,567 L341,572 L330,588 L325,603 L324,620 L326,633 L330,648 L334,658 L340,668 L347,676 L354,684 L367,694 L383,702 L392,705 L398,706 L415,706 L429,702 L441,695 L446,691 L454,680 L459,671 L462,663 L464,644 L462,624 L460,620 L458,612 L454,604 L451,597 L445,588 L434,577 L421,567 L409,561 L387,556 Z " fill="#000000" transform="translate(489,251)"/>
<path d="M0,0 L16,0 L25,1 L35,5 L44,11 L55,22 L54,27 L42,39 L35,47 L30,51 L23,59 L12,70 L5,78 L0,82 L-7,90 L-19,103 L-28,112 L-35,120 L-43,128 L-50,136 L-64,151 L-69,156 L-78,166 L-96,184 L-100,188 L-104,187 L-116,174 L-122,167 L-127,153 L-128,141 L-124,125 L-117,111 L-103,96 L-90,83 L-89,81 L-87,81 L-85,77 L-78,70 L-72,62 L-66,57 L-59,49 L-47,37 L-42,32 L-33,22 L-28,17 L-20,9 L-9,3 Z " fill="#000000" transform="translate(3206,446)"/>
<path d="M0,0 L2,0 L1,2 Z " fill="#000000" transform="translate(3021,455)"/>
<path d="M0,0 L5,0 L16,12 L31,27 L37,28 L57,8 L68,2 L78,3 L89,10 L98,19 L106,26 L116,35 L124,42 L129,50 L129,67 L123,77 L111,91 L108,95 L109,100 L121,112 L126,117 L135,125 L136,130 L129,138 L118,150 L113,154 L106,162 L93,175 L86,183 L67,202 L63,207 L58,212 L40,230 L33,238 L-8,279 L-15,287 L-22,293 L-27,292 L-94,225 L-94,223 L-98,221 L-116,203 L-124,196 L-134,186 L-142,179 L-150,172 L-155,165 L-153,160 L-146,153 L-141,148 L-133,139 L-128,134 L-113,119 L-106,111 L-95,100 L-88,92 L-75,79 L-68,71 L-52,55 L-45,47 L-43,47 L-41,43 L-28,30 L-23,25 L-14,15 L-7,8 Z M71,21 L60,29 L51,40 L52,47 L60,54 L65,59 L79,73 L87,80 L91,84 L96,84 L107,70 L111,64 L112,55 L108,48 L101,42 L96,37 L89,30 L81,24 L76,21 Z " fill="#000000" transform="translate(3279,489)"/>
<path d="M0,0 L5,1 L14,12 L19,17 L26,27 L30,37 L30,54 L26,67 L16,81 L-21,118 L-23,118 L-25,122 L-40,137 L-47,145 L-55,153 L-60,159 L-65,164 L-74,173 L-82,179 L-103,191 L-115,192 L-125,191 L-134,187 L-143,182 L-143,180 L-147,178 L-155,171 L-158,167 L-157,162 L-149,154 L-143,149 L-139,144 L-134,139 L-127,131 L-121,126 L-114,118 L-103,107 L-98,102 L-85,89 L-76,78 L-66,69 L-57,59 L-50,52 L-48,52 L-46,48 L-38,40 L-29,29 L-17,17 L-11,12 L-2,1 Z " fill="#000000" transform="translate(3435,637)"/>
<path d="M0,0 L4,1 L8,4 L8,6 L3,4 Z " fill="#000000" transform="translate(2338,1159)"/>
<path d="M0,0 L4,0 L4,2 Z " fill="#000000" transform="translate(2351,1168)"/>
</svg>
