<?xml version="1.0" encoding="UTF-8"?>
<!-- Generator: visioncortex VTracer 0.6.12 -->
<svg version="1.1" xmlns="http://www.w3.org/2000/svg" width="3654" height="1245">
<path d="M0,0 L70,0 L98,1 L185,1 L202,2 L234,2 L238,3 L294,3 L371,4 L445,6 L448,8 L505,8 L548,7 L572,6 L654,8 L735,9 L752,10 L793,10 L849,11 L877,13 L905,15 L921,19 L935,25 L945,30 L959,40 L968,47 L975,55 L984,66 L992,80 L997,92 L1002,107 L1005,121 L1006,152 L1005,223 L1005,243 L1004,306 L1002,578 L1001,620 L1000,724 L999,830 L998,922 L997,976 L997,1030 L995,1039 L992,1054 L987,1068 L974,1089 L964,1102 L953,1113 L945,1119 L934,1126 L917,1134 L905,1138 L869,1138 L842,1137 L770,1137 L756,1135 L733,1135 L707,1136 L643,1136 L632,1134 L566,1134 L535,1132 L444,1132 L374,1131 L348,1131 L344,1130 L317,1130 L278,1129 L191,1128 L170,1127 L146,1127 L107,1126 L15,1125 L-13,1125 L-32,1122 L-50,1116 L-66,1108 L-80,1099 L-90,1090 L-102,1074 L-111,1061 L-119,1047 L-126,1025 L-127,1019 L-127,837 L-125,685 L-124,678 L-124,503 L-123,346 L-121,189 L-120,111 L-114,83 L-106,66 L-94,48 L-83,36 L-75,30 L-70,26 L-68,26 L-67,23 L-56,16 L-43,9 L-36,7 L-29,4 L-13,4 Z M-108,78 L-107,81 L-104,80 L-105,78 Z M171,223 L154,224 L137,228 L125,234 L113,241 L98,255 L91,263 L82,277 L78,289 L77,298 L76,300 L75,309 L75,327 L77,336 L79,349 L87,365 L95,377 L101,384 L109,391 L118,398 L137,407 L149,411 L164,411 L167,409 L168,406 L168,380 L165,375 L162,372 L147,367 L136,361 L128,354 L121,344 L117,334 L115,326 L115,313 L118,301 L122,292 L131,280 L140,273 L151,267 L160,265 L176,265 L189,269 L202,276 L209,282 L216,293 L220,302 L222,314 L222,323 L220,335 L212,364 L209,372 L197,415 L190,435 L185,440 L176,440 L171,439 L155,438 L143,438 L120,440 L102,444 L88,448 L78,452 L62,460 L51,466 L42,472 L32,479 L22,487 L14,495 L6,502 L-1,511 L-9,522 L-19,538 L-27,553 L-33,567 L-37,580 L-39,584 L-43,605 L-45,614 L-45,646 L-44,663 L-39,687 L-36,697 L-34,700 L-31,709 L-23,727 L-10,749 L0,762 L16,779 L30,791 L42,800 L60,811 L70,816 L89,825 L115,832 L125,834 L152,836 L163,836 L185,834 L198,831 L213,827 L223,824 L241,816 L257,807 L269,799 L279,790 L291,781 L296,777 L305,766 L313,757 L323,742 L330,731 L339,710 L345,694 L350,673 L351,666 L352,644 L352,623 L350,606 L344,581 L337,563 L333,553 L325,539 L320,530 L310,515 L294,498 L285,489 L277,482 L266,474 L256,468 L246,462 L237,457 L232,452 L232,442 L234,437 L238,421 L241,416 L247,415 L256,424 L264,434 L275,448 L280,452 L286,460 L297,472 L304,481 L316,495 L325,506 L334,516 L343,527 L355,540 L364,551 L376,565 L389,581 L398,591 L406,601 L415,611 L424,623 L425,626 L426,646 L430,658 L440,672 L449,678 L456,681 L478,681 L487,677 L495,671 L503,666 L509,664 L521,664 L526,666 L530,673 L533,686 L535,698 L538,708 L544,724 L552,740 L560,754 L571,770 L573,770 L575,774 L584,785 L591,791 L596,796 L606,804 L614,810 L631,821 L650,831 L664,836 L679,841 L698,845 L710,846 L753,846 L758,844 L775,841 L786,838 L800,832 L809,829 L836,815 L844,808 L857,798 L872,784 L881,773 L889,763 L898,748 L903,739 L912,718 L917,703 L920,689 L923,670 L923,636 L920,613 L915,592 L908,574 L899,554 L893,544 L887,535 L879,525 L872,516 L858,502 L853,497 L840,487 L831,481 L815,471 L796,462 L777,456 L759,452 L749,450 L732,449 L711,449 L685,453 L677,455 L659,461 L652,461 L647,458 L633,432 L622,413 L615,399 L605,381 L598,368 L592,358 L584,342 L577,329 L577,317 L582,300 L585,297 L596,293 L608,288 L618,282 L629,274 L637,264 L644,253 L648,243 L648,234 L644,231 L629,230 L478,227 L442,227 L439,228 L440,233 L445,237 L456,243 L474,253 L493,263 L524,279 L538,286 L542,293 L541,301 L536,319 L532,324 L529,325 L469,325 L429,324 L403,324 L280,322 L269,321 L265,315 L262,298 L258,284 L249,267 L245,261 L240,256 L234,249 L230,247 L225,242 L211,233 L200,228 L190,225 L178,223 Z M19,447 L19,450 L23,449 L22,447 Z M7,878 L4,881 L4,884 L9,882 L8,878 Z " fill="#000000" transform="translate(165,36)"/>
<path d="M0,0 L58,0 L137,1 L176,2 L324,4 L358,5 L395,6 L421,6 L463,7 L488,7 L502,8 L522,9 L563,9 L627,10 L673,11 L712,12 L729,12 L787,13 L848,14 L903,16 L925,17 L942,21 L960,29 L976,40 L979,43 L979,45 L984,47 L999,63 L1003,70 L1009,79 L1014,90 L1017,97 L1019,102 L1021,115 L1023,144 L1024,239 L1023,263 L1023,295 L1022,330 L1022,377 L1021,435 L1021,489 L1020,567 L1019,635 L1018,691 L1018,722 L1017,781 L1017,796 L1016,810 L1015,869 L1014,944 L1013,1016 L1012,1040 L1010,1055 L1003,1074 L995,1090 L982,1105 L972,1115 L962,1123 L944,1133 L936,1136 L918,1136 L887,1137 L872,1137 L862,1135 L796,1134 L790,1133 L634,1133 L631,1132 L619,1131 L617,1130 L578,1130 L556,1129 L515,1129 L509,1128 L397,1129 L390,1127 L378,1126 L329,1126 L317,1125 L249,1124 L176,1125 L162,1125 L153,1123 L119,1122 L77,1122 L66,1121 L-2,1120 L-48,1120 L-64,1111 L-72,1105 L-80,1099 L-90,1088 L-96,1080 L-104,1067 L-112,1049 L-115,1037 L-116,1022 L-115,832 L-115,671 L-113,569 L-113,537 L-112,449 L-112,415 L-111,392 L-111,365 L-110,272 L-110,234 L-109,120 L-108,107 L-102,84 L-99,74 L-89,57 L-85,51 L-79,43 L-74,39 L-67,31 L-62,27 L-57,22 L-46,15 L-36,9 L-21,3 L-14,1 Z M464,168 L428,169 L418,170 L408,170 L406,171 L376,175 L371,177 L356,180 L328,188 L319,191 L302,198 L289,203 L273,211 L251,223 L241,229 L224,241 L218,245 L203,256 L198,261 L185,272 L175,281 L161,295 L150,309 L141,319 L129,335 L116,355 L108,368 L100,384 L92,399 L86,414 L80,428 L73,448 L69,462 L65,477 L60,501 L56,532 L55,546 L54,584 L58,623 L63,654 L69,677 L80,710 L85,722 L92,738 L102,757 L109,771 L119,787 L126,798 L137,812 L143,820 L153,831 L160,839 L164,846 L180,861 L193,873 L204,882 L214,890 L225,898 L245,911 L256,917 L272,926 L287,934 L311,944 L323,948 L337,953 L355,958 L371,962 L394,967 L405,968 L408,969 L433,971 L483,971 L508,969 L526,966 L544,962 L565,957 L581,952 L593,948 L623,936 L650,922 L667,912 L677,905 L694,893 L705,884 L716,875 L727,866 L736,856 L745,847 L750,842 L761,830 L772,816 L782,802 L790,790 L800,774 L809,758 L812,751 L824,724 L833,701 L840,677 L844,662 L847,649 L850,627 L852,609 L853,601 L853,548 L848,507 L842,478 L834,450 L827,431 L821,415 L814,399 L810,392 L808,385 L795,362 L784,345 L775,333 L770,327 L762,316 L750,303 L743,295 L728,280 L721,274 L715,267 L705,259 L692,249 L684,243 L671,234 L659,227 L651,222 L633,212 L619,205 L612,202 L607,199 L586,192 L581,189 L567,185 L549,180 L508,172 L469,168 Z " fill="#000000" transform="translate(1378,53)"/>
<path d="M0,0 L45,0 L108,1 L201,2 L253,3 L610,6 L655,7 L660,10 L662,14 L661,23 L654,59 L648,86 L646,99 L640,124 L634,151 L632,161 L629,170 L623,205 L619,216 L613,248 L611,261 L607,274 L604,286 L602,300 L598,313 L595,326 L594,330 L593,343 L588,362 L584,382 L582,391 L579,403 L577,407 L575,425 L573,430 L569,453 L565,463 L560,491 L556,505 L554,514 L550,524 L545,538 L539,548 L536,555 L534,555 L532,560 L525,571 L518,579 L511,587 L503,595 L499,596 L497,601 L482,612 L471,619 L459,625 L446,631 L430,636 L418,639 L410,641 L399,642 L365,642 L342,638 L333,636 L320,631 L310,627 L293,622 L276,622 L268,624 L258,629 L253,633 L247,642 L241,653 L241,670 L246,683 L252,692 L252,694 L257,696 L263,700 L277,707 L286,711 L305,718 L321,722 L334,725 L363,728 L399,728 L420,726 L440,723 L454,719 L472,714 L484,709 L504,700 L509,697 L514,694 L522,689 L531,683 L538,679 L547,673 L551,668 L560,661 L573,649 L578,644 L582,638 L587,634 L593,626 L597,620 L601,616 L604,610 L608,605 L616,592 L620,584 L623,580 L630,563 L635,551 L639,538 L641,533 L646,509 L648,497 L651,487 L653,484 L657,460 L659,451 L663,433 L665,427 L667,415 L672,391 L674,384 L676,374 L678,362 L680,353 L685,331 L688,318 L691,302 L692,292 L694,289 L696,279 L699,265 L702,251 L705,233 L709,220 L712,203 L714,190 L718,180 L721,159 L725,140 L728,129 L732,105 L735,96 L736,87 L739,78 L741,65 L744,50 L746,38 L751,23 L753,13 L757,10 L763,8 L809,7 L881,8 L903,10 L923,15 L939,22 L957,33 L965,40 L972,47 L981,58 L989,70 L994,81 L995,108 L995,152 L994,189 L994,213 L993,311 L992,377 L991,402 L991,480 L990,514 L990,857 L989,867 L988,867 L988,948 L989,968 L988,974 L989,990 L990,1001 L988,1013 L987,1032 L986,1042 L982,1056 L977,1065 L970,1079 L968,1083 L964,1087 L958,1096 L950,1103 L945,1108 L939,1113 L934,1118 L924,1124 L917,1127 L892,1127 L879,1129 L855,1130 L838,1130 L758,1128 L632,1128 L619,1127 L605,1123 L595,1123 L582,1126 L573,1127 L557,1127 L543,1126 L472,1125 L461,1124 L394,1124 L377,1122 L291,1122 L281,1121 L191,1121 L111,1120 L80,1119 L20,1120 L-26,1118 L-37,1118 L-54,1116 L-66,1112 L-77,1105 L-93,1092 L-98,1087 L-106,1077 L-115,1065 L-122,1050 L-129,1029 L-131,1018 L-131,917 L-130,837 L-130,815 L-128,766 L-127,712 L-125,703 L-123,701 L-117,701 L-109,708 L-96,719 L-83,731 L-71,741 L-64,747 L-59,752 L-52,758 L-47,763 L-37,772 L-29,779 L-22,785 L-22,787 L-18,789 L-15,791 L-15,793 L-11,795 L4,809 L18,821 L27,829 L32,833 L35,836 L35,838 L39,839 L39,841 L43,843 L47,847 L52,850 L56,854 L56,856 L61,858 L73,867 L82,874 L94,883 L105,889 L120,899 L136,908 L150,916 L165,924 L179,930 L192,936 L208,942 L217,946 L230,950 L256,958 L265,961 L277,963 L307,968 L341,972 L357,973 L413,973 L436,971 L473,966 L507,958 L524,954 L533,951 L550,945 L570,938 L580,934 L591,929 L612,919 L626,912 L639,905 L652,897 L668,887 L678,879 L688,872 L700,863 L707,858 L712,853 L717,850 L719,850 L721,846 L727,841 L729,841 L731,837 L734,836 L736,832 L741,827 L747,820 L752,817 L756,811 L758,811 L759,808 L761,808 L763,804 L771,795 L773,795 L775,791 L780,784 L784,780 L791,770 L797,762 L801,755 L805,751 L812,739 L817,733 L822,723 L829,713 L836,699 L839,698 L841,687 L849,671 L849,650 L847,638 L842,626 L838,616 L830,605 L827,601 L822,598 L816,593 L806,588 L789,582 L782,581 L765,581 L755,583 L746,586 L736,591 L728,596 L726,596 L725,599 L723,599 L722,602 L720,602 L719,605 L717,605 L716,608 L713,611 L707,620 L704,626 L702,626 L700,632 L693,643 L685,655 L680,661 L676,667 L665,683 L660,689 L653,698 L648,702 L647,704 L645,704 L644,707 L642,707 L640,711 L631,721 L623,728 L610,739 L605,743 L603,743 L602,746 L593,752 L583,760 L573,766 L566,770 L558,776 L551,779 L537,786 L528,790 L514,796 L498,802 L491,805 L482,808 L473,810 L460,813 L434,818 L420,820 L406,821 L357,821 L325,817 L291,810 L268,803 L252,797 L224,785 L210,777 L196,768 L186,761 L170,751 L167,748 L167,746 L162,744 L147,732 L143,728 L138,724 L138,722 L135,721 L135,719 L131,718 L125,711 L117,705 L110,699 L105,694 L99,689 L94,685 L89,680 L84,675 L77,669 L72,664 L64,658 L59,653 L51,646 L48,642 L44,640 L44,638 L41,637 L37,632 L29,625 L29,623 L24,621 L18,616 L14,611 L9,606 L-2,598 L-7,592 L-15,586 L-19,582 L-25,577 L-30,572 L-36,567 L-40,563 L-45,559 L-50,554 L-65,541 L-70,535 L-78,529 L-90,518 L-90,516 L-94,514 L-100,509 L-105,504 L-116,495 L-120,491 L-122,484 L-122,452 L-123,428 L-122,414 L-121,347 L-121,328 L-120,298 L-119,272 L-118,218 L-118,206 L-117,179 L-116,168 L-117,160 L-117,148 L-115,136 L-116,126 L-115,122 L-114,106 L-109,82 L-106,81 L-105,76 L-101,68 L-96,58 L-88,47 L-84,42 L-79,40 L-77,35 L-72,31 L-70,31 L-68,27 L-63,23 L-56,19 L-51,16 L-42,11 L-33,8 L-23,5 L-12,2 Z M370,378 L356,381 L344,386 L332,392 L320,403 L312,410 L306,419 L298,435 L293,450 L291,467 L292,474 L295,487 L298,495 L303,508 L310,518 L315,525 L323,532 L328,536 L336,542 L351,548 L356,550 L371,553 L395,553 L408,550 L423,544 L434,537 L449,526 L456,515 L462,506 L465,499 L465,497 L468,496 L471,485 L471,451 L469,441 L461,424 L453,414 L449,408 L444,403 L439,397 L427,389 L415,383 L401,379 L395,378 Z " fill="#000000" transform="translate(2627,75)"/>
<path d="M0,0 L23,0 L37,1 L46,3 L66,5 L86,10 L102,15 L118,21 L139,30 L154,38 L168,46 L183,56 L192,63 L197,67 L205,74 L228,97 L237,108 L242,114 L250,124 L257,136 L261,141 L269,155 L277,172 L281,179 L285,190 L293,212 L295,221 L298,234 L302,254 L305,277 L305,305 L304,317 L304,325 L301,345 L298,360 L293,381 L290,391 L288,394 L284,407 L279,418 L269,439 L257,459 L249,471 L241,480 L230,494 L222,501 L216,508 L208,515 L198,524 L189,531 L180,537 L165,547 L150,556 L136,563 L115,572 L105,576 L91,579 L83,582 L72,584 L69,585 L58,586 L50,588 L32,590 L-6,590 L-39,586 L-41,585 L-51,584 L-54,582 L-76,577 L-93,570 L-106,565 L-123,557 L-146,544 L-158,536 L-169,528 L-183,517 L-209,491 L-217,481 L-224,473 L-228,467 L-236,457 L-247,439 L-255,422 L-262,407 L-268,394 L-275,368 L-278,356 L-282,335 L-283,327 L-283,257 L-277,227 L-272,209 L-267,194 L-262,182 L-258,173 L-250,156 L-239,137 L-232,126 L-221,112 L-212,101 L-204,93 L-197,85 L-187,75 L-174,65 L-163,56 L-151,48 L-135,38 L-125,32 L-112,26 L-105,23 L-93,18 L-71,11 L-60,8 L-50,6 L-47,5 L-32,3 L-13,1 Z M-7,105 L-32,109 L-51,115 L-60,118 L-71,123 L-87,131 L-105,143 L-115,152 L-126,162 L-133,170 L-141,179 L-151,193 L-161,211 L-169,229 L-174,246 L-177,259 L-180,280 L-180,299 L-178,325 L-172,351 L-170,354 L-167,363 L-161,377 L-151,395 L-144,405 L-136,415 L-121,431 L-113,439 L-105,445 L-97,452 L-83,461 L-60,472 L-41,478 L-17,484 L-10,485 L20,486 L33,485 L41,483 L53,482 L58,480 L71,477 L91,469 L99,465 L115,456 L120,452 L131,443 L144,432 L153,422 L163,409 L170,400 L173,395 L179,385 L188,364 L190,357 L194,345 L197,334 L200,311 L200,288 L198,270 L193,246 L189,235 L187,228 L183,218 L175,202 L165,187 L156,175 L144,162 L139,157 L134,152 L126,145 L115,137 L105,131 L88,122 L82,119 L61,112 L56,110 L38,107 L25,105 Z " fill="#000000" transform="translate(1822,328)"/>
<path d="M0,0 L36,0 L56,1 L187,3 L245,4 L250,7 L251,16 L247,32 L239,58 L234,79 L230,92 L228,100 L225,112 L218,135 L206,176 L199,203 L197,208 L195,217 L191,226 L189,229 L183,229 L171,216 L164,208 L157,200 L148,189 L139,179 L130,168 L125,162 L125,160 L121,158 L114,149 L101,134 L92,123 L87,118 L79,108 L71,99 L62,88 L50,74 L40,63 L31,52 L22,43 L16,35 L7,25 L-2,14 L-5,8 L-3,2 Z " fill="#000000" transform="translate(434,399)"/>
<path d="M0,0 L5,2 L11,11 L26,39 L34,54 L40,65 L44,72 L50,83 L53,89 L52,98 L47,103 L38,111 L30,118 L17,131 L9,141 L2,151 L-7,166 L-16,183 L-19,192 L-25,212 L-28,227 L-32,233 L-35,236 L-43,237 L-54,235 L-62,228 L-63,226 L-63,216 L-57,194 L-55,185 L-51,173 L-47,157 L-39,129 L-32,103 L-28,90 L-24,77 L-19,59 L-12,34 L-7,14 L-3,3 Z " fill="#000000" transform="translate(725,422)"/>
<path d="M0,0 L22,0 L29,3 L31,9 L29,19 L23,39 L17,57 L11,80 L6,97 L2,109 L-3,126 L-10,150 L-10,160 L-6,168 L-5,171 L-1,173 L3,175 L14,175 L22,170 L28,161 L33,147 L35,142 L39,125 L47,100 L57,65 L63,44 L66,35 L70,23 L75,18 L82,18 L93,25 L104,32 L116,43 L121,47 L128,55 L140,70 L144,76 L152,92 L159,108 L163,125 L165,135 L166,145 L166,169 L163,190 L159,205 L155,214 L148,230 L142,239 L138,246 L125,262 L109,278 L93,289 L79,297 L55,307 L30,312 L23,313 L-14,312 L-32,308 L-49,302 L-63,296 L-72,290 L-83,283 L-94,274 L-101,267 L-106,262 L-114,253 L-126,235 L-134,219 L-141,203 L-144,191 L-147,172 L-147,144 L-144,122 L-135,95 L-127,80 L-121,69 L-117,64 L-111,56 L-100,44 L-89,35 L-76,25 L-66,19 L-56,13 L-39,7 L-30,4 L-15,2 L-12,1 Z " fill="#000000" transform="translate(309,516)"/>
<path d="M0,0 L17,0 L40,2 L60,8 L73,13 L90,21 L108,33 L118,42 L123,47 L130,54 L140,67 L149,81 L157,97 L162,111 L167,132 L169,151 L169,168 L166,192 L160,210 L153,226 L147,237 L136,254 L131,260 L129,260 L127,264 L115,276 L104,284 L95,290 L79,299 L63,305 L40,311 L14,313 L-2,312 L-20,309 L-38,304 L-48,299 L-64,291 L-79,281 L-93,270 L-102,261 L-108,253 L-116,243 L-127,222 L-134,206 L-138,190 L-138,180 L-133,175 L-129,174 L-101,174 L-43,175 L-22,176 L16,176 L24,172 L30,165 L31,161 L31,151 L23,135 L15,121 L13,118 L11,111 L1,92 L-10,73 L-18,57 L-27,41 L-36,25 L-38,21 L-38,13 L-35,8 L-23,3 L-12,1 Z " fill="#000000" transform="translate(878,527)"/>
<path d="M0,0 L20,0 L33,2 L43,5 L58,13 L75,26 L82,35 L90,49 L96,62 L99,74 L99,99 L96,114 L88,131 L75,147 L65,156 L55,163 L40,171 L26,174 L17,175 L6,175 L-3,173 L-18,169 L-37,160 L-48,151 L-56,143 L-65,129 L-72,114 L-75,102 L-76,85 L-75,71 L-70,55 L-63,41 L-56,31 L-44,19 L-28,9 L-17,4 L-6,1 Z " fill="#000000" transform="translate(1821,536)"/>
<path d="M0,0 L6,0 L11,5 L17,14 L25,30 L37,52 L44,65 L54,83 L57,89 L57,98 L52,102 L41,103 L37,102 L-4,101 L-47,100 L-53,97 L-56,93 L-54,80 L-47,61 L-41,48 L-35,38 L-24,23 L-17,16 L-10,8 Z " fill="#000000" transform="translate(795,560)"/>
<path d="M0,0 L2,1 Z " fill="#000000" transform="translate(1541,736)"/>
</svg>
