<?xml version="1.0" encoding="UTF-8"?>
<!-- Generator: visioncortex VTracer 0.6.12 -->
<svg version="1.1" xmlns="http://www.w3.org/2000/svg" width="4914" height="1332">
<path d="M0,0 L87,0 L198,1 L207,2 L225,1 L242,2 L297,2 L362,3 L396,3 L399,5 L403,4 L426,3 L563,5 L655,5 L687,6 L725,6 L791,7 L802,9 L822,13 L838,18 L856,25 L871,33 L881,40 L895,49 L903,57 L911,64 L920,73 L926,82 L933,90 L944,108 L950,122 L956,135 L960,150 L962,161 L964,170 L966,191 L964,304 L963,407 L964,639 L963,841 L963,902 L962,965 L960,992 L951,1027 L946,1038 L942,1048 L932,1065 L924,1076 L911,1091 L901,1102 L897,1104 L892,1109 L883,1117 L873,1123 L862,1129 L854,1133 L839,1140 L821,1145 L809,1148 L793,1150 L773,1150 L767,1149 L755,1150 L679,1150 L668,1149 L661,1150 L638,1149 L596,1149 L562,1148 L494,1147 L446,1147 L439,1145 L414,1146 L403,1146 L393,1145 L360,1145 L316,1144 L233,1144 L222,1143 L167,1143 L132,1142 L50,1142 L-11,1141 L-26,1139 L-40,1137 L-58,1130 L-69,1126 L-85,1119 L-95,1112 L-109,1103 L-121,1092 L-129,1085 L-133,1080 L-138,1075 L-149,1062 L-158,1048 L-168,1029 L-174,1015 L-179,998 L-183,980 L-184,959 L-184,802 L-183,605 L-183,552 L-182,503 L-182,465 L-181,336 L-180,225 L-180,200 L-178,167 L-176,152 L-172,136 L-165,115 L-157,99 L-146,81 L-138,71 L-132,63 L-127,58 L-115,46 L-110,41 L-93,30 L-84,24 L-69,16 L-48,8 L-37,4 L-20,2 L-15,1 Z M54,30 L-4,31 L-23,34 L-38,38 L-53,43 L-67,50 L-83,60 L-93,68 L-105,79 L-114,89 L-124,104 L-133,120 L-138,131 L-142,145 L-144,150 L-147,167 L-148,181 L-149,220 L-149,292 L-150,360 L-151,598 L-152,624 L-152,758 L-153,786 L-153,962 L-151,980 L-147,997 L-143,1010 L-136,1025 L-130,1035 L-126,1042 L-119,1051 L-108,1063 L-103,1069 L-93,1077 L-83,1084 L-74,1090 L-58,1098 L-48,1102 L-34,1107 L-24,1109 L-11,1111 L9,1111 L52,1112 L102,1113 L128,1114 L142,1113 L151,1114 L217,1114 L282,1115 L318,1116 L394,1116 L403,1117 L496,1118 L533,1118 L550,1119 L589,1119 L615,1120 L650,1120 L750,1121 L785,1121 L807,1119 L824,1113 L834,1110 L846,1105 L858,1098 L869,1090 L877,1085 L881,1080 L889,1073 L897,1064 L904,1055 L910,1046 L921,1026 L925,1013 L930,997 L933,973 L934,777 L934,347 L935,330 L935,262 L936,207 L935,185 L932,163 L926,142 L919,128 L912,114 L901,98 L899,95 L897,95 L895,91 L886,82 L884,82 L884,80 L873,71 L859,61 L848,55 L827,46 L816,43 L802,40 L798,39 L781,38 L738,37 L703,37 L654,36 L590,36 L559,35 L518,35 L506,34 L452,34 L415,33 L362,33 L307,32 L245,32 L219,31 L168,31 L87,30 Z M-159,404 L-162,407 L-161,411 L-157,411 L-156,406 L-157,404 Z " fill="#000000" transform="translate(219,38)"/>
<path d="M0,0 L58,0 L163,1 L199,1 L204,2 L247,2 L264,3 L269,4 L272,3 L289,2 L372,3 L460,4 L467,3 L526,4 L543,4 L549,5 L552,4 L614,4 L621,5 L630,4 L654,4 L656,5 L715,5 L728,6 L743,5 L771,5 L790,6 L803,6 L815,8 L817,9 L830,11 L847,16 L863,22 L882,32 L892,38 L905,47 L918,59 L925,66 L932,74 L943,89 L956,111 L962,125 L969,145 L971,151 L974,169 L976,188 L976,268 L975,319 L975,346 L976,431 L976,448 L977,492 L978,706 L978,744 L977,821 L977,853 L976,895 L976,924 L975,944 L975,962 L974,981 L971,1000 L964,1024 L956,1046 L948,1060 L942,1069 L935,1079 L933,1079 L931,1083 L929,1086 L927,1086 L925,1091 L915,1101 L910,1106 L897,1117 L882,1126 L872,1132 L853,1141 L836,1147 L827,1148 L823,1150 L806,1153 L783,1154 L730,1154 L684,1153 L656,1153 L648,1152 L641,1153 L621,1152 L583,1152 L571,1151 L420,1150 L395,1150 L341,1149 L270,1149 L247,1148 L229,1149 L225,1148 L174,1148 L124,1147 L116,1146 L103,1147 L51,1147 L24,1146 L-5,1145 L-22,1143 L-35,1140 L-47,1137 L-67,1129 L-86,1120 L-96,1113 L-109,1103 L-114,1100 L-121,1092 L-130,1084 L-137,1076 L-146,1064 L-152,1056 L-163,1036 L-172,1014 L-174,1006 L-176,997 L-178,987 L-180,966 L-180,758 L-179,733 L-179,666 L-178,380 L-178,283 L-177,248 L-176,182 L-174,161 L-171,146 L-167,132 L-160,114 L-150,95 L-142,82 L-135,73 L-127,63 L-118,53 L-110,47 L-99,37 L-86,29 L-69,19 L-51,11 L-34,6 L-29,4 L-10,1 Z M140,28 L131,30 L69,30 L0,31 L-21,34 L-36,38 L-52,44 L-66,52 L-82,62 L-96,74 L-100,79 L-105,84 L-114,95 L-124,111 L-128,118 L-132,126 L-138,141 L-142,158 L-144,177 L-145,228 L-145,261 L-146,439 L-146,469 L-147,478 L-146,498 L-147,734 L-148,789 L-148,850 L-149,883 L-148,969 L-145,989 L-141,1004 L-135,1021 L-128,1035 L-114,1054 L-100,1069 L-92,1076 L-79,1086 L-63,1096 L-51,1102 L-41,1106 L-17,1112 L-14,1113 L11,1115 L48,1116 L87,1116 L133,1117 L214,1118 L282,1118 L289,1119 L394,1119 L433,1120 L567,1120 L572,1122 L575,1125 L580,1124 L583,1121 L665,1121 L683,1122 L745,1122 L755,1123 L776,1123 L801,1121 L816,1119 L837,1113 L852,1106 L859,1103 L870,1096 L882,1088 L892,1079 L905,1066 L917,1049 L929,1027 L934,1012 L938,1000 L941,982 L943,942 L944,895 L944,863 L945,859 L944,834 L945,769 L945,569 L946,563 L945,548 L945,230 L944,182 L941,162 L937,147 L930,129 L922,112 L918,106 L910,96 L899,84 L894,79 L884,70 L875,63 L868,58 L850,50 L835,44 L831,42 L815,40 L815,34 L810,34 L808,36 L790,36 L782,34 L777,31 L772,31 L773,36 L737,36 L705,35 L700,34 L685,34 L676,35 L668,34 L628,34 L598,33 L552,33 L549,32 L547,33 L446,33 L395,32 L361,32 L352,31 L224,31 L148,30 L144,28 Z " fill="#000000" transform="translate(1453,44)"/>
<path d="M0,0 L45,0 L181,1 L190,1 L194,0 L197,1 L263,2 L333,3 L384,4 L614,4 L666,5 L730,5 L739,6 L776,6 L791,7 L799,7 L828,13 L833,15 L842,17 L861,25 L874,32 L885,39 L890,43 L900,51 L908,58 L917,66 L930,83 L937,93 L946,108 L954,125 L962,149 L965,163 L967,176 L968,181 L968,616 L967,700 L968,740 L965,974 L963,992 L960,1008 L956,1023 L952,1034 L944,1050 L934,1066 L927,1076 L920,1085 L918,1085 L916,1089 L900,1105 L891,1112 L886,1115 L878,1121 L866,1129 L848,1137 L833,1141 L825,1144 L813,1147 L803,1149 L773,1151 L646,1150 L591,1149 L506,1149 L488,1148 L381,1148 L330,1147 L245,1146 L202,1146 L176,1145 L96,1145 L-16,1143 L-28,1141 L-33,1139 L-49,1136 L-66,1131 L-89,1120 L-104,1111 L-113,1104 L-124,1095 L-136,1084 L-140,1079 L-145,1074 L-153,1064 L-162,1050 L-169,1038 L-176,1023 L-183,1002 L-187,984 L-188,976 L-189,950 L-189,882 L-188,844 L-188,467 L-187,182 L-185,159 L-181,140 L-178,131 L-171,112 L-167,106 L-161,94 L-155,85 L-147,74 L-137,62 L-130,54 L-127,51 L-125,51 L-124,48 L-119,44 L-114,41 L-104,33 L-94,27 L-84,21 L-67,14 L-47,7 L-35,4 L-26,3 L-24,2 Z M-4,30 L-20,31 L-25,33 L-41,36 L-56,41 L-63,45 L-73,49 L-86,57 L-95,64 L-106,73 L-115,82 L-122,90 L-128,98 L-135,108 L-145,129 L-151,147 L-154,162 L-156,177 L-157,304 L-157,962 L-154,986 L-150,1002 L-142,1022 L-133,1038 L-123,1052 L-112,1064 L-100,1075 L-86,1086 L-72,1094 L-62,1099 L-52,1103 L-37,1108 L-25,1111 L-9,1113 L5,1114 L94,1114 L134,1115 L191,1115 L207,1116 L249,1116 L257,1117 L263,1116 L270,1117 L340,1117 L459,1118 L549,1118 L555,1119 L685,1119 L758,1120 L779,1120 L792,1119 L805,1117 L811,1115 L822,1113 L843,1104 L855,1098 L865,1092 L881,1080 L888,1072 L895,1066 L910,1046 L917,1034 L921,1024 L926,1011 L930,997 L932,985 L934,942 L934,872 L935,787 L935,699 L936,347 L936,186 L934,170 L931,157 L926,139 L922,129 L914,114 L907,104 L900,94 L895,89 L884,78 L879,73 L868,65 L853,55 L841,49 L824,43 L816,40 L803,37 L771,35 L696,35 L685,34 L654,34 L470,33 L445,33 L413,32 L397,33 L366,32 L324,32 L281,31 L235,31 L117,30 Z M175,1124 L175,1126 L178,1126 L178,1124 Z " fill="#000000" transform="translate(2698,56)"/>
<path d="M0,0 L53,0 L84,1 L256,1 L495,2 L718,2 L766,3 L802,9 L827,18 L838,24 L852,32 L862,39 L872,47 L889,64 L895,72 L902,82 L904,87 L907,88 L915,104 L922,120 L930,145 L934,169 L934,294 L933,473 L932,479 L932,492 L933,498 L933,606 L934,858 L934,947 L933,981 L930,1001 L923,1024 L918,1039 L914,1047 L909,1057 L899,1072 L891,1082 L885,1090 L878,1096 L874,1101 L868,1105 L864,1110 L855,1115 L844,1123 L826,1133 L806,1141 L786,1146 L771,1148 L751,1149 L727,1149 L717,1150 L707,1149 L648,1149 L468,1148 L445,1148 L400,1147 L152,1146 L108,1146 L-15,1145 L-41,1142 L-46,1140 L-62,1137 L-81,1130 L-97,1122 L-114,1112 L-124,1104 L-137,1092 L-144,1086 L-148,1081 L-153,1077 L-161,1066 L-168,1055 L-175,1044 L-182,1028 L-186,1018 L-187,1017 L-189,1008 L-193,996 L-195,981 L-196,978 L-197,960 L-197,826 L-196,675 L-195,564 L-195,188 L-193,162 L-191,150 L-186,131 L-181,119 L-177,108 L-168,91 L-161,82 L-155,73 L-143,59 L-131,47 L-121,39 L-111,32 L-100,25 L-85,17 L-66,10 L-56,7 L-39,3 L-23,1 Z M-18,32 L-33,34 L-51,38 L-67,44 L-84,52 L-95,59 L-105,67 L-116,76 L-127,88 L-135,98 L-145,113 L-150,126 L-154,135 L-161,163 L-163,177 L-164,219 L-164,508 L-165,551 L-164,606 L-165,703 L-165,746 L-166,827 L-166,961 L-164,979 L-160,997 L-156,1010 L-150,1024 L-138,1045 L-126,1059 L-113,1073 L-103,1081 L-88,1091 L-69,1101 L-61,1105 L-41,1110 L-29,1112 L-14,1113 L51,1114 L175,1114 L180,1115 L371,1115 L474,1116 L484,1117 L486,1121 L490,1119 L492,1116 L549,1117 L627,1117 L672,1118 L747,1118 L774,1116 L804,1109 L816,1103 L826,1098 L836,1091 L844,1086 L858,1074 L865,1066 L874,1056 L886,1037 L896,1014 L901,997 L905,970 L905,753 L906,709 L905,616 L905,491 L906,440 L905,391 L906,345 L906,184 L905,170 L901,151 L898,139 L886,113 L875,95 L867,87 L860,79 L848,68 L831,56 L822,50 L810,45 L800,42 L794,39 L771,35 L745,34 L662,34 L656,33 L653,34 L507,34 L469,33 L194,33 L185,32 L180,33 L164,32 L147,33 L135,32 L128,33 L125,32 Z " fill="#000000" transform="translate(3946,67)"/>
<path d="M0,0 L3,0 L2,3 L-1,2 Z " fill="#000000" transform="translate(1301,92)"/>
<path d="M0,0 L2,1 Z " fill="#000000" transform="translate(2854,232)"/>
<path d="M0,0 L5,1 L19,16 L36,32 L43,39 L50,47 L76,73 L83,79 L89,86 L97,93 L101,98 L106,103 L120,116 L124,114 L125,109 L124,97 L122,87 L126,86 L133,96 L139,107 L144,122 L148,145 L153,150 L157,155 L162,155 L165,150 L167,145 L169,129 L169,116 L166,95 L163,83 L161,79 L161,74 L164,73 L169,76 L187,94 L194,106 L199,118 L201,123 L203,134 L203,156 L200,170 L196,185 L196,193 L203,202 L213,211 L220,219 L225,224 L240,239 L244,242 L244,244 L246,244 L251,249 L258,257 L266,264 L268,268 L271,269 L278,277 L295,294 L301,299 L306,304 L311,309 L322,320 L328,321 L333,318 L343,309 L354,298 L359,293 L369,283 L371,280 L373,280 L375,276 L386,266 L390,261 L395,257 L400,252 L411,240 L419,234 L426,226 L434,217 L442,210 L456,196 L461,191 L470,181 L482,170 L486,165 L491,160 L498,153 L503,149 L510,141 L520,131 L527,123 L535,116 L544,106 L552,98 L554,98 L556,94 L566,85 L578,73 L582,68 L587,63 L597,54 L612,39 L617,34 L629,22 L634,17 L636,15 L640,15 L639,21 L631,35 L624,50 L623,54 L628,53 L638,45 L653,32 L657,29 L660,30 L659,34 L647,57 L646,59 L646,65 L655,65 L668,59 L677,56 L690,50 L694,51 L692,56 L685,63 L680,68 L674,75 L666,82 L652,97 L645,103 L638,111 L619,130 L614,135 L605,144 L600,149 L595,155 L590,160 L584,165 L577,173 L571,178 L566,183 L554,195 L549,200 L538,211 L532,219 L524,226 L519,230 L512,238 L505,246 L497,253 L473,277 L466,285 L460,290 L455,295 L450,301 L445,306 L442,307 L442,309 L437,313 L431,320 L430,324 L431,326 L446,327 L461,328 L539,328 L620,329 L630,331 L631,334 L631,415 L629,421 L627,422 L613,423 L558,423 L489,422 L461,422 L452,421 L450,422 L437,422 L430,425 L431,430 L437,435 L442,440 L453,452 L460,459 L460,461 L464,463 L491,490 L496,495 L576,575 L581,580 L612,611 L618,616 L627,627 L635,634 L645,643 L652,651 L668,667 L674,674 L679,678 L685,685 L690,690 L691,693 L688,694 L670,684 L656,676 L643,670 L637,669 L638,674 L652,693 L665,709 L666,710 L666,715 L660,714 L654,711 L649,711 L648,714 L653,739 L655,746 L652,748 L644,741 L599,696 L591,689 L570,668 L565,663 L558,655 L558,648 L550,648 L540,637 L532,630 L524,621 L517,615 L510,607 L502,600 L481,579 L476,574 L464,562 L459,557 L418,516 L413,511 L399,497 L394,493 L387,485 L351,449 L344,441 L336,434 L332,430 L324,429 L316,436 L308,443 L301,451 L289,462 L230,521 L226,526 L218,533 L208,543 L201,551 L186,566 L181,571 L176,576 L139,613 L131,620 L125,628 L115,638 L110,643 L97,656 L96,658 L94,658 L92,662 L87,666 L80,674 L70,683 L66,688 L58,695 L51,703 L49,703 L48,706 L40,713 L25,729 L9,745 L1,752 L-3,756 L-6,756 L-6,751 L1,740 L9,725 L16,714 L22,702 L25,696 L29,686 L29,684 L22,686 L5,696 L-6,702 L-15,707 L-17,709 L-22,709 L-22,705 L-17,700 L-11,691 L-10,686 L-16,687 L-29,694 L-32,696 L-36,696 L-35,691 L-16,672 L-9,664 L-2,657 L3,652 L12,642 L17,640 L19,636 L27,628 L33,621 L38,617 L43,612 L51,604 L55,599 L57,599 L59,595 L101,553 L106,548 L113,542 L116,539 L123,531 L134,518 L142,511 L178,475 L183,470 L198,455 L200,455 L202,451 L220,433 L224,427 L224,423 L217,421 L203,420 L118,420 L111,416 L110,401 L110,332 L113,327 L122,326 L207,326 L222,325 L221,318 L203,300 L203,298 L199,296 L191,288 L191,286 L187,284 L179,277 L172,269 L150,247 L145,244 L140,245 L133,252 L125,266 L117,282 L114,288 L109,287 L107,280 L106,272 L106,261 L108,245 L115,226 L117,219 L114,211 L111,209 L105,209 L101,214 L94,227 L91,236 L89,248 L89,271 L85,271 L81,261 L78,244 L78,218 L81,199 L84,189 L84,184 L80,183 L73,194 L67,211 L65,220 L64,229 L64,244 L68,264 L76,282 L75,287 L71,285 L65,277 L56,260 L51,247 L48,234 L48,206 L51,191 L59,173 L62,166 L61,158 L50,146 L45,141 L34,130 L29,125 L24,120 L16,111 L8,104 L3,99 L-3,92 L-8,87 L-8,85 L-12,83 L-16,78 L-24,71 L-30,65 L-29,60 L-24,62 L-19,66 L2,76 L7,77 L6,70 L2,61 L-5,49 L-9,40 L-14,31 L-17,26 L-16,23 L-12,24 L-2,33 L10,43 L16,50 L20,51 L20,45 L15,34 L10,23 L2,7 L0,4 Z M129,336 L122,340 L120,348 L120,404 L125,409 L135,410 L160,410 L191,411 L210,410 L240,410 L246,407 L259,395 L270,383 L274,376 L272,369 L257,353 L245,341 L236,337 L190,336 Z M416,339 L409,341 L406,343 L406,345 L402,347 L400,351 L396,353 L391,359 L386,364 L380,371 L380,378 L383,383 L388,388 L408,408 L416,411 L483,411 L488,409 L490,401 L490,344 L485,340 L483,339 Z M623,397 L621,399 L622,404 L627,402 L626,397 Z " fill="#000000" transform="translate(3996,273)"/>
<path d="M0,0 L108,0 L155,1 L164,4 L174,12 L180,22 L181,25 L182,37 L182,87 L183,99 L185,103 L187,104 L240,105 L254,105 L266,106 L270,110 L270,616 L267,621 L263,622 L19,622 L-92,621 L-112,621 L-116,619 L-118,614 L-119,603 L-119,415 L-118,352 L-118,331 L-117,249 L-118,239 L-116,112 L-113,105 L-107,103 L-36,104 L-27,101 L-25,98 L-24,93 L-23,28 L-20,17 L-12,7 L-4,2 Z M28,30 L17,34 L11,40 L9,50 L8,75 L9,98 L12,103 L17,104 L48,105 L143,105 L148,101 L149,97 L150,52 L145,40 L141,35 L131,31 L96,30 Z M118,525 L117,529 L121,529 L120,525 Z " fill="#000000" transform="translate(1778,309)"/>
<path d="M0,0 L54,0 L108,1 L146,1 L156,4 L164,10 L170,20 L173,31 L173,78 L174,99 L176,103 L184,105 L222,105 L262,106 L265,110 L266,116 L266,162 L267,196 L268,200 L276,202 L285,202 L299,204 L306,206 L315,206 L317,201 L318,124 L319,112 L321,108 L327,107 L342,107 L362,109 L382,113 L400,121 L414,129 L424,137 L431,146 L438,156 L442,163 L446,171 L451,188 L453,199 L453,362 L452,413 L453,469 L452,535 L448,553 L442,568 L433,583 L419,598 L410,606 L399,613 L389,618 L380,621 L368,624 L322,624 L318,621 L317,617 L316,539 L315,530 L311,526 L298,527 L282,529 L273,529 L267,533 L265,541 L264,618 L261,622 L255,623 L217,623 L184,622 L131,622 L90,621 L2,621 L-31,620 L-36,617 L-41,618 L-45,620 L-67,620 L-115,619 L-122,617 L-125,612 L-125,582 L-124,496 L-123,328 L-123,287 L-122,175 L-122,108 L-118,103 L-41,102 L-35,100 L-33,88 L-33,37 L-30,20 L-25,12 L-20,7 L-14,3 Z M18,30 L9,34 L3,40 L-1,49 L-2,73 L0,100 L4,103 L7,104 L22,104 L26,105 L137,105 L141,100 L142,72 L141,47 L137,39 L129,32 L122,30 Z M249,207 L230,210 L203,219 L196,224 L186,228 L176,236 L160,248 L149,260 L140,271 L133,282 L129,288 L122,303 L114,327 L111,344 L110,355 L110,367 L111,384 L115,403 L121,421 L125,432 L129,440 L134,449 L145,464 L152,472 L169,489 L179,495 L189,502 L202,509 L214,514 L227,519 L235,521 L244,522 L256,524 L280,525 L307,521 L322,516 L337,509 L354,500 L368,490 L383,476 L388,471 L396,461 L407,444 L417,422 L421,409 L425,393 L426,384 L426,355 L423,331 L418,316 L414,303 L405,286 L399,277 L391,266 L384,258 L373,247 L360,237 L351,231 L341,225 L322,216 L314,213 L297,209 L286,207 Z " fill="#000000" transform="translate(3015,321)"/>
<path d="M0,0 L3,0 L3,2 L-1,1 Z " fill="#000000" transform="translate(453,363)"/>
<path d="M0,0 L3,0 L3,3 L0,3 Z " fill="#000000" transform="translate(3682,411)"/>
<path d="M0,0 L23,0 L27,3 L28,6 L28,180 L27,326 L27,371 L26,409 L26,479 L25,509 L23,515 L20,517 L-19,517 L-34,514 L-43,512 L-54,505 L-66,498 L-74,490 L-79,486 L-86,478 L-95,466 L-102,450 L-105,441 L-107,427 L-108,414 L-107,294 L-106,177 L-106,121 L-105,85 L-101,70 L-97,61 L-90,47 L-82,36 L-72,26 L-64,20 L-51,12 L-41,7 L-29,3 L-16,1 Z " fill="#000000" transform="translate(1581,412)"/>
<path d="M0,0 L38,0 L51,1 L70,7 L80,12 L90,19 L102,30 L113,44 L120,56 L126,71 L129,89 L130,102 L130,393 L129,411 L128,423 L127,437 L117,462 L112,470 L102,483 L95,490 L90,495 L85,498 L74,506 L52,513 L38,515 L6,515 L-1,513 L-3,510 L-4,504 L-5,445 L-5,415 L-6,247 L-6,148 L-5,7 L-2,1 Z " fill="#000000" transform="translate(2102,417)"/>
<path d="M0,0 L38,0 L41,3 L42,5 L42,281 L41,350 L40,462 L39,503 L37,513 L32,516 L-6,515 L-27,510 L-37,505 L-44,502 L-57,492 L-64,485 L-69,481 L-75,472 L-86,455 L-92,435 L-94,411 L-94,109 L-93,89 L-89,67 L-85,58 L-79,46 L-69,33 L-64,29 L-60,24 L-47,15 L-31,7 L-21,3 Z M13,456 L13,459 L18,458 L17,456 Z M10,467 L11,471 L14,471 L14,467 Z " fill="#000000" transform="translate(2801,423)"/>
<path d="M0,0 L10,0 L18,1 L45,0 L61,2 L69,1 L180,1 L232,2 L271,2 L288,3 L411,3 L447,4 L487,5 L541,5 L584,6 L587,10 L587,62 L584,80 L580,94 L575,108 L564,128 L555,139 L540,155 L529,163 L516,172 L499,180 L485,185 L474,189 L471,193 L468,224 L466,235 L469,239 L476,240 L519,241 L536,242 L547,241 L556,242 L589,242 L601,243 L602,244 L602,250 L593,267 L581,284 L572,294 L552,314 L546,318 L532,328 L520,335 L504,343 L489,349 L475,353 L450,358 L447,361 L444,377 L439,380 L361,380 L341,379 L297,379 L238,378 L183,378 L121,377 L97,377 L53,376 L33,376 L22,375 L20,373 L17,358 L14,355 L7,352 L-5,350 L-23,346 L-51,334 L-65,325 L-74,320 L-82,314 L-95,303 L-100,298 L-108,291 L-120,278 L-134,257 L-142,241 L-142,236 L-141,235 L-9,235 L-5,233 L-4,228 L-6,211 L-6,122 L-5,28 L-5,11 L-3,1 Z M477,36 L472,41 L471,49 L470,134 L472,148 L474,151 L481,152 L493,148 L507,140 L520,129 L528,122 L538,109 L544,99 L549,86 L553,72 L554,69 L554,43 L549,37 L531,36 Z " fill="#000000" transform="translate(379,426)"/>
<path d="M0,0 L14,0 L22,2 L35,3 L56,10 L70,16 L86,26 L97,35 L107,44 L114,53 L123,66 L128,75 L136,92 L141,111 L142,113 L143,123 L143,152 L142,164 L138,178 L132,194 L126,206 L118,218 L112,225 L104,235 L96,243 L85,251 L69,260 L54,267 L38,272 L20,274 L-6,274 L-19,273 L-40,267 L-53,262 L-69,253 L-78,246 L-87,239 L-96,231 L-102,223 L-102,221 L-104,221 L-111,211 L-116,204 L-123,188 L-128,176 L-132,155 L-133,137 L-131,109 L-127,95 L-122,81 L-110,60 L-99,46 L-89,36 L-78,27 L-64,18 L-46,9 L-29,4 L-11,1 Z M-4,5 L-29,9 L-42,13 L-67,25 L-79,34 L-82,37 L-82,39 L-86,41 L-95,50 L-103,61 L-110,72 L-116,84 L-120,97 L-124,112 L-125,117 L-125,150 L-121,174 L-115,190 L-107,204 L-104,209 L-96,221 L-87,231 L-84,234 L-82,234 L-82,236 L-69,246 L-52,256 L-39,262 L-20,267 L-9,269 L22,269 L39,266 L55,261 L58,258 L66,256 L79,248 L88,242 L96,235 L96,233 L100,231 L108,222 L118,207 L124,197 L133,174 L136,156 L136,117 L132,99 L128,90 L124,79 L116,66 L108,54 L100,46 L95,40 L84,31 L69,21 L51,13 L43,10 L23,6 L10,5 Z " fill="#000000" transform="translate(3278,549)"/>
<path d="M0,0 Z " fill="#000000" transform="translate(3688,581)"/>
<path d="M0,0 L10,0 L13,4 L14,16 L14,65 L13,89 L11,92 L-1,92 L-4,89 L-5,87 L-6,35 L-5,5 Z " fill="#000000" transform="translate(4042,599)"/>
<path d="M0,0 L10,0 L14,2 L16,13 L15,86 L13,91 L10,93 L3,93 L-2,91 L-4,88 L-4,12 L-3,3 Z " fill="#000000" transform="translate(4075,599)"/>
<path d="M0,0 L11,0 L14,7 L14,85 L12,89 L8,91 L0,91 L-4,87 L-4,15 L-2,2 Z " fill="#000000" transform="translate(4009,600)"/>
<path d="M0,0 L14,0 L16,2 L15,8 L6,21 L2,27 L2,33 L10,34 L12,36 L11,40 L2,40 L-8,38 L-10,36 L-9,29 L1,16 L4,12 L5,5 L1,3 Z " fill="#000000" transform="translate(3246,611)"/>
<path d="M0,0 L3,1 L4,4 L4,29 L3,32 L-2,31 L-3,29 L-3,12 L-2,2 Z " fill="#000000" transform="translate(3312,615)"/>
<path d="M0,0 L4,1 L4,30 L2,32 L-2,31 L-2,4 Z " fill="#000000" transform="translate(3329,615)"/>
<path d="M0,0 L5,1 L9,7 L9,16 L6,22 L2,25 L-2,25 L0,19 L1,18 L1,8 L-1,4 Z " fill="#000000" transform="translate(3291,625)"/>
<path d="M0,0 L4,1 L4,17 L7,22 L6,25 L1,23 L-3,19 L-4,16 L-4,7 Z " fill="#000000" transform="translate(3276,626)"/>
<path d="M0,0 L29,2 L105,3 L125,4 L134,10 L136,14 L136,21 L131,31 L122,36 L117,37 L53,37 L40,36 L-3,36 L-12,35 L-22,36 L-43,35 L-57,35 L-80,36 L-94,35 L-104,28 L-107,22 L-107,15 L-103,7 L-95,2 L-88,1 L-61,1 L-53,2 L-24,1 Z " fill="#000000" transform="translate(3269,668)"/>
<path d="M0,0 L19,1 L25,5 L30,11 L31,15 L31,24 L29,30 L24,36 L18,39 L4,41 L-3,40 L-5,37 L-5,14 L-4,4 Z M6,5 L3,9 L3,32 L5,35 L13,36 L20,32 L24,24 L23,14 L19,8 L14,5 Z " fill="#000000" transform="translate(3183,715)"/>
<path d="M0,0 L5,1 L9,7 L10,17 L8,25 L5,27 L0,26 L0,22 L0,17 L-2,15 L-6,16 L-7,21 L-6,27 L-10,28 L-15,24 L-16,19 L-12,13 L-3,10 L-1,9 L-2,2 Z " fill="#000000" transform="translate(3310,728)"/>
<path d="M0,0 L5,1 L4,7 L2,12 L1,22 L-3,24 L-5,21 L-6,9 L-3,2 Z " fill="#000000" transform="translate(3333,729)"/>
<path d="M0,0 L4,1 L8,4 L9,8 L9,15 L5,16 L2,13 L0,7 L-1,1 Z " fill="#000000" transform="translate(3346,729)"/>
<path d="M0,0 L6,0 L13,6 L14,9 L14,16 L11,23 L8,25 L5,25 L6,21 L6,8 L3,4 L-2,3 L-5,7 L-7,7 L-7,16 L-3,24 L-4,27 L-8,26 L-14,19 L-14,7 L-10,2 Z " fill="#000000" transform="translate(3236,729)"/>
<path d="M0,0 L4,2 L4,19 L1,23 L-3,24 L-5,23 L-4,16 L-2,1 Z " fill="#000000" transform="translate(3281,731)"/>
<path d="M0,0 L5,2 L8,8 L8,14 L6,16 L-6,16 L-7,17 L-7,22 L-2,24 L1,22 L6,22 L4,27 L-11,27 L-16,21 L-17,14 L-15,5 L-12,2 L-7,3 L-6,10 L-2,10 L-1,6 L-2,1 Z " fill="#000000" transform="translate(3381,729)"/>
<path d="M0,0 L4,0 L5,3 L6,14 L7,16 L7,22 L2,21 L-2,15 L-2,2 Z " fill="#000000" transform="translate(3260,732)"/>
<path d="M0,0 L3,1 L4,7 L0,8 L-2,6 L-1,1 Z " fill="#000000" transform="translate(3351,746)"/>
<path d="M0,0 L2,0 L2,2 L0,2 Z " fill="#000000" transform="translate(1011,1297)"/>
<path d="M0,0 Z " fill="#000000" transform="translate(694,1306)"/>
</svg>
