<?xml version="1.0" encoding="UTF-8"?>
<!-- Generator: visioncortex VTracer 0.6.12 -->
<svg version="1.1" xmlns="http://www.w3.org/2000/svg" width="4947" height="1308">
<path d="M0,0 L72,0 L79,1 L167,1 L200,2 L213,2 L224,3 L356,3 L424,4 L426,9 L430,8 L434,4 L564,4 L584,6 L593,5 L663,5 L679,6 L767,6 L782,5 L794,5 L813,7 L837,12 L845,15 L854,18 L864,22 L885,32 L897,41 L903,45 L911,53 L915,58 L921,62 L933,76 L943,89 L949,98 L957,114 L961,123 L965,134 L970,151 L973,162 L975,179 L976,263 L975,335 L975,484 L974,704 L973,728 L974,733 L974,774 L973,840 L973,873 L972,953 L971,977 L967,998 L964,1011 L960,1020 L958,1028 L952,1041 L943,1057 L935,1068 L924,1082 L917,1090 L909,1097 L901,1103 L896,1108 L882,1118 L870,1124 L859,1130 L843,1136 L830,1140 L825,1142 L806,1145 L795,1146 L658,1146 L558,1145 L526,1145 L456,1144 L344,1144 L297,1143 L249,1143 L241,1142 L128,1142 L95,1141 L22,1141 L-1,1140 L-11,1139 L-23,1138 L-43,1133 L-49,1130 L-57,1128 L-70,1123 L-85,1116 L-91,1112 L-95,1109 L-101,1106 L-111,1098 L-119,1091 L-137,1073 L-150,1056 L-160,1040 L-165,1028 L-169,1020 L-172,1012 L-174,1003 L-178,989 L-181,972 L-181,801 L-180,792 L-181,789 L-180,744 L-180,706 L-179,687 L-179,536 L-178,421 L-177,349 L-177,309 L-176,261 L-176,224 L-175,177 L-172,155 L-168,138 L-162,120 L-154,102 L-148,94 L-146,92 L-144,86 L-137,76 L-128,65 L-117,53 L-109,45 L-99,37 L-89,30 L-81,25 L-71,20 L-66,17 L-57,13 L-48,10 L-37,7 L-29,4 L-10,1 Z M15,31 L-8,33 L-24,36 L-45,43 L-70,56 L-80,63 L-87,68 L-94,76 L-99,81 L-104,87 L-112,94 L-118,105 L-121,108 L-130,127 L-136,143 L-141,165 L-142,171 L-143,198 L-144,272 L-144,297 L-145,340 L-145,379 L-146,478 L-146,550 L-147,603 L-148,675 L-149,794 L-149,825 L-150,903 L-150,959 L-149,963 L-148,977 L-144,993 L-139,1009 L-132,1026 L-125,1037 L-115,1050 L-108,1058 L-102,1065 L-94,1072 L-83,1082 L-74,1087 L-70,1090 L-60,1094 L-43,1102 L-42,1103 L-22,1107 L-5,1110 L33,1110 L43,1111 L122,1111 L165,1112 L213,1112 L239,1113 L277,1113 L284,1114 L289,1113 L292,1114 L309,1114 L318,1113 L325,1114 L342,1114 L356,1113 L359,1114 L380,1114 L389,1115 L396,1114 L422,1114 L424,1116 L429,1115 L431,1114 L587,1115 L633,1115 L682,1116 L695,1115 L699,1116 L799,1116 L814,1113 L829,1109 L847,1104 L852,1100 L859,1096 L871,1089 L884,1078 L892,1071 L903,1060 L911,1049 L913,1044 L916,1043 L919,1037 L923,1031 L927,1022 L933,1005 L935,1001 L938,984 L940,963 L940,937 L941,849 L941,732 L942,600 L942,524 L943,467 L943,358 L944,286 L944,206 L943,178 L939,157 L934,138 L927,124 L923,116 L916,106 L912,100 L908,96 L899,85 L887,74 L872,63 L859,55 L846,49 L836,45 L822,41 L794,37 L740,36 L531,36 L511,35 L452,35 L387,34 L373,34 L368,31 L364,32 L361,34 L306,34 L197,33 L159,32 L131,32 L128,31 L84,32 L68,32 L43,31 Z M-161,857 L-161,859 L-159,859 L-159,857 Z " fill="#000000" transform="translate(217,38)"/>
<path d="M0,0 L23,0 L26,1 L33,1 L34,0 L50,0 L66,1 L157,1 L217,2 L274,2 L286,4 L291,2 L303,3 L314,2 L325,3 L360,3 L397,4 L679,4 L734,5 L757,8 L775,12 L793,19 L805,24 L821,33 L830,39 L840,47 L851,57 L859,64 L868,75 L876,85 L885,98 L889,106 L897,123 L903,141 L909,166 L911,204 L911,226 L910,266 L910,558 L909,924 L909,939 L908,976 L905,1005 L901,1018 L899,1026 L894,1040 L889,1050 L881,1066 L871,1080 L864,1089 L850,1104 L845,1108 L839,1115 L831,1121 L819,1129 L810,1135 L801,1139 L794,1143 L773,1152 L755,1157 L731,1160 L620,1160 L603,1159 L589,1160 L582,1159 L562,1159 L537,1158 L456,1157 L348,1155 L225,1153 L170,1153 L163,1152 L134,1152 L15,1151 L-21,1151 L-44,1150 L-69,1150 L-88,1148 L-89,1147 L-105,1144 L-124,1138 L-139,1132 L-153,1124 L-165,1117 L-172,1111 L-183,1103 L-200,1087 L-204,1082 L-213,1070 L-221,1059 L-228,1045 L-233,1034 L-238,1023 L-246,994 L-249,959 L-249,850 L-248,808 L-247,739 L-246,640 L-245,632 L-245,553 L-244,469 L-243,353 L-242,311 L-241,232 L-241,210 L-240,174 L-239,165 L-238,163 L-236,148 L-227,121 L-222,108 L-212,91 L-208,86 L-201,76 L-192,65 L-181,53 L-171,44 L-163,38 L-153,31 L-144,25 L-134,20 L-119,13 L-105,8 L-94,6 L-80,3 L-64,1 Z M-46,32 L-78,35 L-91,38 L-96,40 L-104,42 L-123,51 L-134,57 L-147,67 L-157,75 L-164,81 L-171,89 L-179,99 L-183,104 L-189,115 L-197,131 L-203,148 L-207,165 L-209,204 L-209,223 L-210,289 L-210,322 L-211,420 L-212,483 L-212,523 L-213,542 L-213,578 L-214,670 L-214,802 L-216,868 L-216,962 L-215,980 L-210,1006 L-204,1021 L-196,1036 L-192,1044 L-184,1056 L-179,1062 L-177,1062 L-175,1066 L-169,1073 L-161,1080 L-152,1087 L-138,1097 L-119,1106 L-101,1112 L-81,1117 L-57,1118 L-8,1119 L32,1119 L42,1120 L95,1120 L178,1121 L189,1122 L207,1122 L240,1123 L278,1123 L353,1124 L382,1124 L404,1125 L427,1125 L439,1126 L444,1125 L481,1125 L498,1126 L533,1126 L536,1127 L601,1127 L713,1128 L744,1125 L754,1123 L781,1114 L796,1106 L803,1101 L808,1098 L817,1091 L826,1083 L832,1078 L839,1069 L846,1060 L853,1049 L863,1030 L868,1017 L873,998 L875,976 L876,952 L877,940 L878,934 L877,932 L876,921 L876,796 L877,634 L877,481 L878,456 L878,334 L879,250 L879,208 L878,180 L876,163 L870,143 L863,126 L851,106 L843,95 L828,79 L814,68 L803,61 L795,56 L783,50 L775,48 L767,45 L754,41 L738,39 L735,38 L671,37 L612,37 L587,36 L521,36 L486,35 L395,35 L366,34 L277,34 L268,33 L263,34 L208,34 L143,33 L110,33 L94,32 Z " fill="#000000" transform="translate(1539,37)"/>
<path d="M0,0 L57,0 L67,1 L122,1 L143,2 L315,2 L382,3 L473,3 L503,4 L626,4 L634,5 L647,4 L751,4 L787,7 L798,9 L818,15 L837,22 L843,26 L852,31 L865,39 L873,45 L887,56 L899,68 L908,79 L917,93 L925,106 L932,121 L939,140 L943,155 L946,175 L947,214 L946,313 L945,336 L945,367 L944,436 L943,566 L943,584 L942,639 L942,667 L941,707 L941,733 L940,877 L939,953 L937,992 L933,1008 L929,1023 L923,1038 L921,1043 L913,1057 L904,1071 L894,1084 L886,1093 L878,1100 L869,1108 L861,1114 L846,1124 L830,1132 L819,1137 L812,1140 L788,1146 L766,1149 L654,1149 L611,1148 L536,1147 L443,1146 L407,1145 L356,1145 L293,1144 L216,1144 L146,1145 L128,1144 L54,1144 L-38,1142 L-58,1138 L-81,1130 L-94,1124 L-110,1116 L-119,1110 L-133,1099 L-145,1088 L-159,1073 L-165,1065 L-170,1058 L-175,1049 L-183,1033 L-191,1013 L-194,1004 L-196,994 L-199,977 L-200,968 L-200,896 L-199,867 L-199,842 L-198,794 L-197,682 L-195,533 L-195,406 L-194,175 L-190,147 L-186,135 L-184,127 L-177,109 L-169,94 L-160,79 L-150,67 L-141,56 L-130,46 L-119,37 L-110,31 L-93,21 L-73,12 L-60,8 L-55,6 L-37,3 L-24,1 Z M8,32 L-25,33 L-39,36 L-48,38 L-60,42 L-79,50 L-101,63 L-114,75 L-122,82 L-134,97 L-137,102 L-143,111 L-152,130 L-157,144 L-161,160 L-163,184 L-163,202 L-164,243 L-164,602 L-165,695 L-166,757 L-166,775 L-167,823 L-168,915 L-169,949 L-168,967 L-164,993 L-158,1011 L-150,1027 L-145,1036 L-138,1048 L-127,1061 L-122,1066 L-120,1072 L-111,1076 L-100,1084 L-91,1090 L-80,1096 L-70,1100 L-54,1106 L-39,1110 L-22,1111 L26,1111 L48,1112 L88,1112 L137,1113 L263,1113 L301,1114 L437,1114 L468,1115 L554,1116 L586,1116 L695,1117 L764,1117 L777,1115 L801,1109 L827,1097 L837,1091 L850,1081 L863,1069 L871,1060 L880,1048 L889,1033 L895,1019 L898,1012 L902,996 L904,987 L906,969 L907,907 L907,880 L908,722 L910,608 L910,577 L911,447 L912,407 L912,374 L913,314 L914,208 L914,195 L913,172 L907,147 L898,126 L889,109 L877,93 L872,87 L870,87 L870,85 L865,80 L855,71 L839,60 L823,51 L809,46 L783,39 L751,37 L722,36 L704,36 L696,35 L670,36 L575,35 L493,35 L488,34 L467,35 L448,34 L363,34 L304,33 L155,33 Z " fill="#000000" transform="translate(2720,57)"/>
<path d="M0,0 L55,0 L92,1 L182,2 L241,2 L279,3 L304,3 L330,4 L367,4 L391,5 L396,4 L431,5 L544,5 L564,6 L571,6 L575,7 L582,6 L630,6 L634,7 L683,8 L726,7 L786,7 L790,8 L815,10 L830,12 L850,19 L862,24 L883,35 L892,42 L902,50 L914,61 L919,68 L923,70 L933,84 L937,89 L942,99 L947,107 L953,123 L955,125 L958,134 L962,151 L964,157 L962,163 L964,163 L967,178 L968,210 L968,267 L969,342 L969,464 L970,484 L970,524 L971,531 L970,545 L970,648 L969,673 L969,729 L968,879 L967,950 L965,986 L962,1001 L956,1027 L950,1039 L946,1050 L941,1060 L935,1070 L934,1072 L932,1072 L930,1076 L924,1085 L920,1090 L913,1098 L906,1105 L899,1110 L898,1112 L896,1112 L895,1115 L886,1122 L864,1134 L852,1140 L843,1143 L839,1145 L822,1149 L820,1150 L808,1151 L805,1152 L769,1153 L715,1153 L659,1151 L640,1151 L625,1150 L508,1150 L432,1149 L421,1148 L341,1148 L197,1146 L170,1145 L152,1145 L108,1144 L13,1144 L-14,1143 L-35,1140 L-50,1136 L-66,1131 L-76,1127 L-88,1120 L-97,1115 L-102,1111 L-113,1104 L-121,1098 L-121,1096 L-123,1096 L-128,1090 L-136,1083 L-144,1075 L-148,1068 L-158,1055 L-171,1030 L-177,1014 L-183,989 L-185,973 L-186,942 L-185,888 L-184,804 L-184,769 L-183,656 L-182,568 L-181,519 L-181,435 L-180,325 L-180,232 L-178,171 L-175,151 L-171,135 L-166,122 L-164,115 L-156,99 L-149,87 L-140,75 L-135,69 L-128,61 L-112,45 L-100,37 L-89,28 L-64,15 L-49,9 L-40,7 L-27,3 L-16,1 Z M56,30 L9,31 L-1,32 L-14,33 L-38,39 L-50,43 L-67,51 L-78,58 L-87,64 L-95,71 L-100,76 L-111,87 L-119,97 L-130,117 L-135,126 L-138,135 L-143,149 L-146,168 L-147,180 L-148,256 L-148,292 L-149,341 L-149,375 L-150,455 L-150,530 L-151,625 L-151,645 L-153,778 L-153,810 L-154,944 L-154,965 L-152,984 L-146,1007 L-139,1023 L-131,1038 L-123,1049 L-114,1060 L-106,1069 L-98,1076 L-88,1083 L-79,1089 L-75,1092 L-56,1101 L-38,1107 L-27,1110 L-11,1112 L-7,1113 L56,1114 L82,1116 L172,1117 L179,1116 L197,1117 L262,1117 L343,1119 L359,1120 L460,1120 L497,1121 L527,1121 L553,1122 L583,1122 L636,1123 L722,1123 L802,1122 L809,1120 L819,1118 L831,1115 L850,1107 L866,1098 L878,1089 L883,1084 L895,1074 L900,1069 L910,1056 L919,1042 L924,1031 L930,1015 L934,1003 L937,984 L939,959 L939,899 L940,874 L940,816 L941,752 L941,720 L942,652 L943,629 L943,604 L942,598 L942,582 L943,571 L943,425 L942,381 L942,352 L943,337 L942,325 L942,282 L941,190 L937,160 L933,145 L925,126 L918,112 L913,106 L907,98 L898,86 L893,81 L880,70 L870,63 L859,56 L836,47 L820,42 L808,40 L805,39 L787,38 L750,38 L730,37 L714,37 L701,36 L542,35 L490,35 L412,34 L376,33 L316,33 L210,32 L157,31 L129,30 Z M955,643 Z M934,1032 L934,1035 L938,1036 L938,1032 Z " fill="#000000" transform="translate(3942,66)"/>
<path d="M0,0 Z " fill="#000000" transform="translate(289,207)"/>
<path d="M0,0 L12,0 L22,6 L29,14 L35,25 L41,40 L44,50 L50,75 L53,99 L55,119 L55,170 L54,185 L51,272 L51,279 L55,287 L69,295 L89,306 L99,312 L110,318 L123,326 L151,341 L156,345 L171,353 L182,359 L192,365 L213,376 L223,382 L233,388 L247,396 L260,403 L274,411 L281,416 L292,422 L306,431 L316,435 L327,442 L337,449 L339,454 L339,506 L338,538 L335,541 L327,539 L316,535 L309,532 L296,528 L280,522 L259,513 L243,508 L232,504 L213,497 L203,493 L197,491 L187,488 L169,481 L149,474 L131,467 L114,462 L96,455 L87,452 L74,447 L53,440 L48,440 L45,444 L44,456 L43,494 L42,503 L41,525 L40,563 L38,616 L39,625 L46,634 L56,644 L61,649 L69,657 L74,662 L78,667 L86,674 L90,679 L100,687 L109,697 L116,703 L122,710 L123,713 L124,741 L123,754 L121,757 L114,756 L104,752 L95,749 L86,745 L77,742 L72,740 L60,737 L52,733 L38,729 L19,721 L12,719 L10,718 L-1,718 L-16,724 L-27,727 L-35,730 L-46,734 L-55,737 L-75,744 L-82,746 L-99,752 L-108,756 L-114,756 L-116,752 L-116,721 L-114,705 L-84,675 L-76,668 L-63,655 L-58,650 L-53,645 L-45,638 L-40,632 L-33,626 L-30,621 L-29,616 L-29,602 L-31,531 L-32,512 L-33,474 L-34,453 L-36,437 L-50,439 L-61,444 L-70,447 L-85,452 L-96,457 L-112,462 L-119,464 L-132,469 L-146,473 L-163,479 L-181,486 L-202,492 L-217,497 L-238,505 L-258,512 L-265,514 L-276,518 L-298,526 L-303,528 L-312,530 L-324,535 L-328,536 L-332,532 L-332,465 L-331,451 L-327,446 L-312,437 L-301,431 L-286,423 L-279,419 L-269,412 L-246,400 L-226,389 L-214,382 L-192,370 L-170,358 L-160,351 L-149,346 L-132,336 L-118,329 L-111,324 L-104,321 L-94,314 L-85,310 L-74,305 L-67,299 L-53,291 L-42,284 L-40,280 L-41,239 L-42,198 L-43,165 L-43,127 L-40,91 L-37,74 L-32,52 L-24,32 L-19,20 L-11,9 L-6,4 Z M132,420 L131,422 L134,421 Z " fill="#000000" transform="translate(608,231)"/>
<path d="M0,0 L3,1 L7,10 L8,17 L9,127 L12,135 L17,138 L24,138 L29,133 L30,130 L31,42 L31,20 L34,8 L36,4 L40,3 L43,7 L45,13 L48,32 L51,58 L53,66 L56,118 L56,131 L54,152 L51,161 L46,173 L39,183 L33,190 L20,200 L6,207 L3,216 L2,279 L2,655 L1,715 L0,741 L-7,750 L-14,756 L-18,757 L-26,757 L-34,753 L-40,746 L-43,739 L-44,710 L-43,350 L-43,252 L-44,209 L-51,203 L-60,197 L-73,186 L-79,179 L-87,163 L-91,151 L-92,136 L-92,103 L-88,50 L-86,41 L-84,26 L-82,13 L-78,3 L-73,2 L-70,9 L-69,16 L-69,63 L-68,127 L-64,135 L-59,138 L-52,137 L-48,132 L-47,130 L-46,121 L-45,89 L-45,38 L-44,13 L-41,4 L-39,1 L-34,2 L-31,10 L-30,16 L-30,74 L-29,127 L-26,134 L-22,137 L-15,136 L-10,131 L-8,126 L-8,59 L-7,13 L-3,2 Z " fill="#000000" transform="translate(4237,264)"/>
<path d="M0,0 L5,0 L7,3 L8,11 L8,447 L7,474 L7,542 L6,719 L6,728 L4,740 L-1,750 L-9,756 L-13,758 L-20,758 L-30,753 L-36,743 L-38,735 L-38,658 L-37,481 L-37,446 L-38,429 L-41,424 L-47,423 L-64,422 L-72,416 L-73,414 L-73,247 L-72,77 L-69,62 L-65,52 L-59,40 L-53,31 L-46,22 L-36,14 L-27,8 L-12,2 L-2,1 Z " fill="#000000" transform="translate(4521,265)"/>
<path d="M0,0 L186,0 L274,1 L282,7 L282,9 L284,9 L294,22 L300,30 L312,44 L319,52 L328,63 L337,74 L344,82 L353,93 L363,104 L373,118 L376,120 L386,121 L408,122 L528,122 L536,127 L539,137 L539,157 L536,165 L531,173 L526,199 L520,225 L514,233 L507,237 L504,238 L448,238 L424,239 L421,242 L416,258 L412,268 L405,279 L396,289 L388,295 L374,302 L368,304 L346,306 L339,306 L323,302 L307,293 L300,287 L295,282 L288,272 L283,261 L278,243 L274,239 L272,238 L247,237 L226,237 L151,236 L42,236 L37,240 L31,260 L23,276 L12,288 L3,294 L-11,301 L-28,305 L-48,304 L-63,299 L-72,293 L-77,290 L-82,285 L-93,273 L-98,263 L-103,248 L-104,239 L-108,236 L-154,235 L-168,235 L-179,234 L-200,234 L-211,231 L-218,222 L-220,217 L-220,135 L-215,125 L-207,119 L-203,118 L-86,118 L-80,115 L-73,104 L-65,91 L-59,82 L-48,64 L-36,45 L-22,23 L-15,13 L-11,7 L-3,1 Z M49,19 L30,20 L22,24 L14,35 L6,64 L-2,94 L-4,99 L-6,109 L-6,115 L-3,118 L0,119 L32,120 L45,120 L61,121 L65,120 L135,121 L148,120 L154,117 L160,110 L161,104 L161,31 L154,23 L150,21 L135,20 L65,19 Z M201,21 L193,23 L187,28 L184,36 L183,46 L183,107 L186,114 L192,119 L203,121 L334,121 L338,118 L337,110 L326,97 L322,91 L315,83 L308,74 L299,64 L292,55 L283,43 L281,43 L279,39 L270,28 L258,22 L252,21 Z M179,123 L181,125 L181,123 Z M-36,199 L-52,204 L-60,210 L-65,216 L-68,221 L-70,229 L-70,245 L-66,256 L-61,263 L-55,268 L-43,273 L-30,274 L-18,270 L-10,264 L-4,257 L2,244 L2,228 L-4,214 L-12,206 L-16,202 L-23,201 L-30,199 Z M343,202 L335,204 L324,211 L317,220 L314,227 L313,241 L315,252 L318,258 L330,271 L343,275 L357,275 L371,268 L378,261 L383,252 L385,244 L385,231 L381,220 L377,214 L369,207 L361,203 L358,202 Z M291,248 Z " fill="#000000" transform="translate(2932,341)"/>
<path d="M0,0 L5,1 L7,9 L8,23 L10,26 L23,25 L30,23 L139,23 L146,24 L158,23 L170,25 L177,24 L192,24 L201,23 L212,24 L317,24 L323,26 L323,33 L319,40 L312,44 L288,45 L140,44 L79,43 L50,43 L26,41 L18,39 L11,39 L8,44 L8,87 L12,91 L20,91 L25,92 L90,92 L155,93 L185,93 L230,94 L256,98 L275,107 L288,116 L302,130 L308,138 L313,145 L320,162 L322,169 L325,181 L326,187 L326,258 L324,275 L321,287 L315,301 L307,313 L301,321 L290,330 L277,341 L260,349 L243,353 L136,353 L110,352 L79,352 L54,351 L-43,351 L-70,350 L-84,347 L-96,341 L-107,334 L-117,327 L-128,320 L-139,313 L-158,300 L-181,285 L-201,272 L-209,266 L-225,255 L-233,250 L-239,246 L-248,240 L-260,233 L-269,226 L-280,219 L-289,213 L-295,209 L-312,197 L-327,187 L-345,176 L-354,170 L-364,163 L-366,162 L-374,162 L-383,167 L-395,171 L-413,171 L-421,169 L-429,165 L-439,159 L-449,147 L-452,141 L-455,127 L-455,114 L-449,97 L-441,87 L-431,79 L-429,77 L-413,72 L-399,72 L-388,75 L-378,80 L-369,87 L-365,92 L-361,99 L-357,108 L-356,111 L-355,138 L-349,145 L-342,149 L-331,157 L-323,161 L-314,162 L-267,162 L-238,163 L-197,163 L-191,162 L-184,163 L-151,163 L-134,162 L-125,161 L-117,159 L-106,153 L-101,148 L-93,138 L-84,121 L-74,110 L-72,110 L-70,106 L-63,100 L-48,93 L-23,91 L-12,91 L-7,86 L-6,67 L-6,50 L-8,40 L-9,39 L-21,40 L-30,42 L-109,42 L-133,41 L-143,42 L-243,41 L-314,39 L-316,38 L-316,31 L-311,25 L-303,20 L-293,19 L-229,19 L-221,18 L-214,20 L-200,20 L-190,21 L-69,21 L-61,22 L-48,21 L-26,23 L-13,27 L-8,25 L-6,21 L-5,9 L-2,1 Z M242,105 L243,107 Z M-411,107 L-419,115 L-419,129 L-415,134 L-405,138 L-398,136 L-392,129 L-391,118 L-395,110 L-400,107 Z M-15,113 L-27,117 L-31,122 L-33,132 L-33,176 L-29,183 L-25,186 L-17,188 L11,189 L55,188 L63,182 L65,172 L66,166 L66,135 L64,123 L60,118 L50,114 Z M98,115 L90,122 L88,127 L87,144 L87,165 L88,178 L92,184 L98,188 L103,189 L131,189 L139,190 L171,190 L179,187 L184,182 L186,177 L187,161 L187,130 L185,123 L180,117 L175,115 Z M221,117 L215,120 L209,128 L208,133 L208,178 L210,187 L216,189 L229,190 L247,190 L253,191 L256,190 L275,189 L279,183 L280,172 L276,154 L271,144 L263,133 L250,123 L239,118 L232,117 Z " fill="#000000" transform="translate(1928,382)"/>
<path d="M0,0 Z " fill="#000000" transform="translate(469,404)"/>
<path d="M0,0 L8,0 L29,3 L44,8 L60,18 L67,23 L70,26 L70,28 L73,29 L83,42 L89,51 L94,60 L100,64 L165,64 L232,65 L355,65 L394,66 L400,69 L413,82 L418,87 L424,94 L423,100 L417,105 L402,113 L397,116 L392,119 L385,118 L376,111 L366,102 L360,102 L352,109 L341,119 L335,120 L327,113 L318,105 L309,104 L296,116 L291,118 L285,114 L274,103 L267,100 L260,104 L249,115 L241,119 L129,120 L126,123 L123,129 L120,131 L105,132 L96,133 L91,136 L85,146 L72,162 L60,173 L55,176 L47,181 L34,186 L30,188 L9,191 L-8,191 L-14,189 L-24,187 L-32,184 L-46,178 L-51,174 L-62,166 L-73,154 L-81,141 L-86,131 L-91,114 L-92,107 L-92,85 L-87,64 L-80,48 L-75,43 L-71,36 L-63,27 L-58,22 L-41,11 L-29,6 L-15,2 Z M-40,74 L-49,81 L-54,89 L-55,93 L-52,104 L-47,111 L-40,116 L-36,117 L-27,117 L-19,113 L-13,105 L-11,100 L-11,91 L-15,83 L-19,78 L-26,74 Z " fill="#000000" transform="translate(2921,721)"/>
<path d="M0,0 L11,0 L17,4 L24,10 L27,18 L27,26 L23,36 L15,43 L10,45 L-3,45 L-12,39 L-15,35 L-18,25 L-17,16 L-11,7 L-6,3 Z " fill="#000000" transform="translate(1926,765)"/>
<path d="M0,0 L9,0 L19,4 L24,9 L27,15 L28,19 L28,26 L24,37 L20,41 L13,45 L-2,45 L-8,41 L-16,32 L-17,28 L-17,16 L-10,5 Z " fill="#000000" transform="translate(2119,768)"/>
<path d="M0,0 L4,1 L4,3 L0,3 Z " fill="#000000" transform="translate(3264,1161)"/>
<path d="M0,0 L2,0 L2,2 L0,2 Z " fill="#000000" transform="translate(4844,1273)"/>
</svg>
