<?xml version="1.0" encoding="UTF-8"?>
<!-- Generator: visioncortex VTracer 0.6.12 -->
<svg version="1.1" xmlns="http://www.w3.org/2000/svg" width="1020" height="1011">
<path d="M0,0 L65,0 L65,2 L62,3 L43,4 L24,8 L8,13 L0,18 L-17,26 L-30,36 L-40,45 L-49,56 L-59,71 L-65,81 L-70,93 L-76,117 L-77,136 L-79,149 L-78,156 L-78,203 L-79,219 L-79,258 L-78,287 L-78,337 L-77,349 L-77,417 L-78,427 L-77,435 L-78,443 L-78,455 L-77,465 L-78,473 L-77,481 L-78,519 L-78,566 L-79,647 L-79,881 L-73,906 L-69,919 L-65,931 L-54,948 L-45,959 L-37,966 L-32,972 L-21,979 L-10,986 L5,994 L29,1001 L42,1004 L53,1004 L71,1005 L113,1005 L120,1006 L140,1006 L143,1005 L167,1006 L175,1005 L182,1007 L215,1006 L220,1007 L411,1007 L433,1008 L648,1008 L658,1009 L669,1008 L782,1008 L809,1005 L827,1001 L836,997 L847,993 L861,985 L868,978 L876,973 L885,964 L893,953 L897,949 L902,941 L908,929 L913,917 L917,904 L920,890 L921,882 L923,850 L925,848 L925,927 L922,930 L914,946 L908,956 L904,961 L898,969 L893,975 L885,981 L884,983 L882,983 L880,987 L869,995 L856,1003 L844,1009 L840,1011 L6,1011 L-1,1008 L-17,1000 L-33,990 L-43,981 L-48,976 L-57,966 L-64,958 L-75,941 L-79,932 L-87,913 L-91,893 L-91,572 L-90,567 L-91,538 L-91,465 L-90,458 L-91,413 L-90,409 L-90,357 L-91,320 L-91,152 L-90,146 L-88,116 L-83,93 L-78,80 L-69,63 L-64,54 L-56,43 L-47,34 L-42,29 L-34,21 L-26,16 L-18,11 L-4,3 L-1,2 Z " fill="#000000" transform="translate(95,0)"/>
<path d="M0,0 L7,0 L7,2 L0,2 Z " fill="#000000" transform="translate(167,0)"/>
<path d="M0,0 L22,0 L19,3 L9,3 L1,2 Z " fill="#000000" transform="translate(180,0)"/>
<path d="M0,0 L720,0 L720,2 L726,3 L742,9 L748,12 L756,17 L765,23 L773,29 L781,35 L788,44 L795,52 L801,61 L810,77 L814,83 L814,130 L812,129 L809,115 L807,103 L798,79 L786,62 L779,53 L777,49 L773,47 L763,37 L748,27 L739,22 L729,18 L723,15 L707,11 L694,9 L684,7 L655,7 L635,6 L613,7 L592,6 L452,6 L445,5 L440,6 L403,6 L373,5 L311,5 L301,4 L280,4 L256,5 L238,6 L227,6 L224,5 L184,5 L181,7 L178,7 L175,4 L131,4 L124,3 L102,4 L96,3 L87,4 L56,3 L6,3 L0,1 Z " fill="#000000" transform="translate(206,0)"/>
<path d="M0,0 L16,0 L29,3 L39,3 L49,6 L66,10 L75,13 L84,15 L91,19 L103,23 L109,28 L116,31 L126,38 L133,42 L138,44 L151,56 L159,61 L160,64 L164,66 L173,76 L182,85 L187,90 L191,95 L198,107 L205,114 L212,126 L218,137 L224,149 L234,174 L239,190 L242,200 L243,211 L245,217 L248,246 L248,281 L246,300 L241,322 L236,342 L228,362 L224,373 L215,389 L208,400 L205,405 L199,414 L187,427 L181,435 L171,445 L169,445 L167,449 L159,457 L146,466 L137,473 L120,483 L110,488 L104,491 L100,494 L83,500 L79,502 L70,504 L67,506 L55,508 L43,511 L25,513 L22,515 L0,515 L-23,514 L-43,511 L-59,508 L-69,504 L-77,502 L-92,497 L-114,487 L-120,484 L-129,478 L-135,474 L-144,468 L-155,459 L-169,447 L-181,434 L-190,423 L-199,412 L-208,398 L-214,387 L-217,383 L-221,373 L-227,360 L-232,348 L-234,340 L-241,321 L-243,310 L-244,306 L-246,280 L-247,275 L-247,255 L-245,216 L-242,197 L-238,186 L-234,171 L-227,155 L-219,138 L-212,125 L-208,120 L-200,104 L-191,93 L-181,81 L-176,76 L-161,61 L-150,53 L-140,45 L-136,41 L-131,37 L-115,29 L-104,22 L-96,20 L-84,14 L-78,12 L-65,8 L-63,7 L-50,5 L-37,2 L-23,1 Z M-10,22 L-27,26 L-42,35 L-49,40 L-58,53 L-64,65 L-67,81 L-67,92 L-65,105 L-62,115 L-59,118 L-54,128 L-48,135 L-42,139 L-28,148 L-20,150 L-16,152 L2,153 L18,149 L34,140 L43,132 L52,118 L57,104 L59,96 L59,80 L57,69 L53,58 L47,49 L39,39 L29,33 L16,25 L-1,22 Z M147,68 L138,75 L130,86 L123,93 L120,99 L119,102 L117,102 L113,108 L108,118 L104,124 L99,135 L94,145 L91,150 L86,162 L84,171 L82,177 L82,185 L89,193 L96,199 L100,206 L100,219 L96,229 L90,239 L82,246 L70,253 L68,256 L67,271 L67,298 L68,349 L70,359 L76,360 L81,355 L87,353 L97,353 L102,348 L105,340 L117,335 L122,329 L124,321 L130,318 L138,318 L142,315 L144,303 L154,301 L160,297 L163,290 L168,287 L177,283 L180,277 L182,268 L187,263 L189,257 L189,246 L193,237 L193,230 L190,223 L191,218 L195,211 L194,204 L192,201 L192,193 L196,188 L195,179 L191,175 L185,172 L184,168 L186,160 L186,150 L179,145 L180,136 L181,126 L178,120 L171,117 L170,110 L170,95 L166,90 L156,90 L156,73 L153,68 Z M-157,71 L-159,74 L-159,88 L-160,89 L-169,91 L-171,94 L-171,107 L-174,110 L-180,113 L-181,114 L-182,133 L-189,138 L-190,140 L-190,149 L-188,154 L-188,160 L-194,165 L-197,170 L-196,176 L-193,182 L-193,188 L-200,196 L-199,204 L-197,208 L-197,215 L-202,221 L-201,228 L-197,235 L-197,244 L-199,249 L-198,254 L-191,262 L-193,271 L-192,278 L-184,283 L-181,286 L-179,295 L-174,299 L-165,300 L-163,314 L-160,317 L-148,320 L-144,324 L-140,330 L-137,332 L-127,333 L-120,335 L-117,343 L-115,349 L-111,351 L-99,351 L-94,359 L-91,361 L-71,360 L-67,356 L-66,353 L-65,324 L-66,264 L-67,256 L-79,247 L-93,239 L-101,231 L-106,223 L-108,211 L-107,205 L-101,195 L-95,192 L-90,186 L-89,178 L-91,163 L-95,154 L-100,141 L-106,130 L-112,120 L-119,109 L-126,99 L-138,83 L-146,73 L-149,71 Z M-14,163 L-24,166 L-39,167 L-52,175 L-58,183 L-58,191 L-57,192 L-48,192 L-39,191 L-33,194 L-31,194 L-29,200 L-29,209 L-35,222 L-35,228 L-29,232 L-17,232 L14,233 L29,232 L32,230 L32,224 L30,221 L31,209 L26,199 L23,190 L15,174 L8,167 L3,164 L-5,163 Z M-41,237 L-54,238 L-58,240 L-60,245 L-60,345 L-57,358 L-52,365 L-47,365 L-45,358 L-44,354 L-44,319 L-43,295 L-41,289 L-35,288 L-33,299 L-33,349 L-32,373 L-27,378 L-22,378 L-19,375 L-18,353 L-18,300 L-16,289 L-10,289 L-9,306 L-9,372 L-7,387 L-3,392 L2,391 L5,388 L8,380 L8,343 L9,291 L11,289 L16,289 L17,298 L18,359 L18,373 L21,378 L23,379 L29,379 L32,375 L33,328 L33,305 L35,289 L41,290 L43,296 L44,351 L45,367 L47,370 L52,369 L57,364 L61,346 L61,267 L59,244 L55,240 L53,239 L34,238 L7,238 L-15,237 Z M-213,267 L-217,271 L-220,282 L-225,281 L-227,278 L-231,279 L-232,280 L-231,290 L-237,292 L-238,294 L-238,301 L-232,308 L-227,309 L-224,307 L-224,300 L-226,296 L-226,293 L-221,290 L-220,288 L-214,289 L-210,290 L-206,285 L-206,273 L-210,267 Z M-202,296 L-205,299 L-206,307 L-203,315 L-201,317 L-196,316 L-193,312 L-194,300 L-198,296 Z M170,309 L165,314 L158,323 L155,328 L152,328 L149,321 L143,322 L136,332 L131,340 L131,345 L133,348 L133,362 L129,378 L128,392 L139,401 L141,402 L148,402 L155,399 L165,393 L175,384 L188,375 L196,369 L199,368 L205,370 L210,365 L217,355 L218,351 L218,344 L211,343 L195,349 L191,352 L189,359 L175,371 L166,377 L165,374 L176,360 L182,355 L189,346 L194,342 L203,338 L206,335 L209,319 L209,312 L207,309 L202,310 L191,318 L183,324 L182,325 L183,335 L179,341 L172,349 L170,352 L166,353 L165,350 L170,345 L176,337 L176,312 L173,309 Z M-216,314 L-217,318 L-211,329 L-206,338 L-202,343 L-199,348 L-194,347 L-197,341 L-207,323 L-213,314 Z M-189,317 L-191,322 L-191,331 L-188,336 L-185,337 L-181,333 L-180,324 L-182,317 Z M-230,318 L-233,321 L-232,327 L-227,333 L-221,335 L-217,332 L-218,325 L-226,318 Z M-172,332 L-176,337 L-177,348 L-173,354 L-168,354 L-165,349 L-164,345 L-167,334 L-169,332 Z M-222,338 L-226,342 L-224,347 L-218,350 L-211,349 L-209,347 L-210,342 L-218,338 Z M-154,344 L-157,347 L-159,351 L-159,358 L-155,364 L-149,365 L-147,360 L-147,352 L-150,346 Z M-212,356 L-215,359 L-214,364 L-208,367 L-200,366 L-196,363 L-197,358 L-200,356 Z M-138,356 L-142,364 L-141,372 L-138,377 L-133,377 L-130,372 L-130,361 L-133,356 Z M-185,358 L-186,360 L-183,365 L-173,373 L-164,379 L-162,379 L-162,381 L-146,393 L-138,399 L-134,398 L-135,394 L-145,385 L-160,374 L-175,363 L-177,363 L-177,361 L-181,358 Z M-193,371 L-202,374 L-204,376 L-204,382 L-199,386 L-188,386 L-182,382 L-181,377 L-183,373 L-186,371 Z M-71,371 L-83,377 L-90,385 L-97,393 L-111,400 L-118,402 L-131,404 L-140,409 L-146,419 L-147,425 L-145,430 L-139,434 L-136,443 L-134,445 L-125,447 L-119,451 L-114,450 L-109,444 L-105,433 L-97,428 L-93,424 L-89,420 L-82,416 L-65,415 L-51,408 L-43,404 L-37,404 L-37,410 L-44,418 L-52,427 L-60,440 L-63,448 L-64,452 L-64,459 L-61,466 L-60,467 L-51,469 L-50,482 L-48,485 L-42,485 L-36,482 L-34,482 L-33,490 L-30,495 L-24,496 L-19,492 L-16,488 L-16,486 L-12,487 L-10,499 L-5,503 L1,504 L6,498 L9,490 L14,491 L18,494 L25,493 L28,489 L30,480 L35,481 L39,483 L44,482 L45,481 L46,469 L51,468 L54,470 L61,469 L63,467 L64,460 L60,447 L54,433 L47,423 L40,416 L35,411 L33,408 L33,403 L42,405 L53,412 L63,417 L77,417 L81,416 L88,416 L99,424 L103,426 L108,439 L111,446 L116,450 L121,448 L127,445 L136,442 L138,432 L144,430 L146,428 L145,421 L141,413 L133,404 L128,401 L113,400 L102,397 L100,393 L92,386 L83,379 L72,375 L67,374 L55,380 L47,385 L41,388 L30,390 L18,395 L8,402 L1,410 L-4,410 L-10,402 L-24,392 L-38,387 L-57,377 L-66,371 Z M-175,387 L-182,390 L-184,393 L-184,398 L-176,401 L-170,401 L-163,397 L-162,391 L-166,387 Z M-158,399 L-167,405 L-167,411 L-164,414 L-156,414 L-151,409 L-149,403 L-153,399 Z M95,431 L78,437 L76,440 L76,444 L83,446 L82,450 L77,456 L78,461 L82,463 L89,460 L87,468 L84,474 L84,480 L87,483 L92,482 L97,478 L104,475 L109,465 L110,461 L110,454 L106,448 L102,435 L100,432 Z M-102,444 L-106,447 L-108,460 L-105,475 L-102,479 L-97,478 L-94,473 L-94,465 L-97,451 L-99,445 Z " fill="#000000" transform="translate(511,37)"/>
<path d="M0,0 L15,3 L28,8 L35,14 L39,20 L43,24 L46,31 L48,37 L49,53 L48,64 L44,71 L38,80 L31,88 L19,95 L9,96 L8,97 L-3,97 L-16,93 L-24,88 L-34,79 L-38,69 L-42,61 L-43,55 L-43,44 L-41,34 L-36,22 L-30,14 L-14,3 L-5,2 Z " fill="#000000" transform="translate(504,76)"/>
<path d="M0,0 L1,0 L1,11 L-1,10 L-1,2 Z " fill="#000000" transform="translate(1019,221)"/>
<path d="M0,0 L1,0 L1,6 L0,6 Z " fill="#000000" transform="translate(1019,245)"/>
<path d="M0,0 L1,4 L-1,1 Z " fill="#000000" transform="translate(1019,340)"/>
<path d="M0,0 Z " fill="#000000" transform="translate(661,389)"/>
<path d="M0,0 L1,0 L1,15 L-1,14 L-1,1 Z " fill="#000000" transform="translate(1019,483)"/>
<path d="M0,0 L1,0 L1,7 L-1,6 L-1,1 Z " fill="#000000" transform="translate(1019,508)"/>
<path d="M0,0 Z " fill="#000000" transform="translate(1019,572)"/>
<path d="M0,0 L10,0 L20,2 L25,5 L27,10 L23,14 L7,26 L-3,33 L-19,43 L-22,45 L-26,44 L-28,42 L-28,30 L-25,20 L-19,11 L-9,3 Z " fill="#000000" transform="translate(545,595)"/>
<path d="M0,0 L7,0 L10,2 L12,7 L12,16 L4,32 L-14,45 L-23,50 L-29,59 L-32,72 L-33,87 L-34,92 L-34,113 L-30,114 L-14,105 L-4,97 L8,89 L20,81 L28,77 L35,71 L49,63 L56,57 L73,46 L82,40 L98,30 L104,28 L112,28 L117,30 L125,32 L132,42 L136,51 L141,57 L155,63 L163,72 L165,75 L165,87 L164,95 L164,106 L168,112 L182,120 L188,124 L191,128 L190,143 L189,146 L189,154 L193,162 L203,171 L205,176 L206,188 L203,199 L195,209 L182,220 L171,227 L157,236 L154,239 L147,244 L137,249 L132,253 L124,258 L111,267 L102,273 L97,277 L88,283 L72,293 L67,297 L42,310 L25,311 L13,311 L5,308 L-14,307 L-24,309 L-36,317 L-40,318 L-45,316 L-51,305 L-62,288 L-68,279 L-78,264 L-85,253 L-95,237 L-107,218 L-118,201 L-127,186 L-127,180 L-122,175 L-112,167 L-106,156 L-102,149 L-97,135 L-93,125 L-90,113 L-84,97 L-74,67 L-66,47 L-61,33 L-57,25 L-53,22 L-40,16 L-19,9 L-11,4 L-4,2 Z " fill="#000000" transform="translate(515,569)"/>
<path d="M0,0 L1,0 L1,5 L0,5 Z " fill="#000000" transform="translate(1019,624)"/>
<path d="M0,0 L5,1 L11,9 L18,19 L26,30 L33,44 L41,55 L47,65 L52,72 L57,82 L65,92 L68,98 L73,104 L78,114 L85,124 L91,133 L95,141 L99,147 L107,158 L112,168 L117,174 L117,181 L115,183 L83,184 L57,183 L50,175 L38,155 L31,145 L21,129 L15,120 L9,111 L-3,92 L-10,81 L-14,75 L-18,68 L-24,59 L-34,42 L-39,34 L-38,28 L-33,23 L-29,19 L-21,15 L-12,9 L-4,3 Z " fill="#000000" transform="translate(351,748)"/>
<path d="M0,0 Z " fill="#000000" transform="translate(1019,787)"/>
<path d="M0,0 L5,0 L12,10 L23,26 L27,34 L32,42 L39,52 L44,60 L52,71 L56,75 L64,91 L69,99 L75,109 L80,113 L85,125 L88,131 L88,138 L85,140 L35,140 L30,136 L22,123 L16,116 L13,110 L7,100 L-1,90 L-8,79 L-19,61 L-25,52 L-33,38 L-37,32 L-37,27 L-29,20 L-21,14 L-13,10 L-3,3 Z " fill="#000000" transform="translate(289,791)"/>
<path d="M0,0 L6,1 L11,6 L16,11 L24,18 L31,21 L38,23 L45,23 L57,19 L61,16 L67,17 L71,22 L75,28 L78,32 L80,38 L80,43 L72,50 L63,56 L50,64 L39,72 L29,78 L16,86 L1,96 L-19,108 L-23,111 L-28,110 L-36,99 L-40,89 L-37,82 L-28,73 L-23,61 L-22,53 L-25,40 L-31,28 L-30,22 L-21,15 L-10,9 L-4,2 Z " fill="#000000" transform="translate(690,810)"/>
<path d="M0,0 L5,0 L15,14 L19,20 L22,24 L28,36 L35,44 L39,52 L45,61 L51,69 L55,77 L62,90 L62,96 L59,98 L10,98 L-28,99 L-35,100 L-38,99 L-61,98 L-115,98 L-137,97 L-139,93 L-136,90 L-127,85 L-122,81 L-112,74 L-99,66 L-90,60 L-80,52 L-73,48 L-64,43 L-59,37 L-43,28 L-31,20 L-21,12 L-5,4 Z " fill="#000000" transform="translate(228,833)"/>
<path d="M0,0 L1,4 Z " fill="#000000" transform="translate(1019,838)"/>
<path d="M0,0 L5,1 L10,9 L11,16 L6,21 L-13,32 L-22,38 L-30,42 L-38,49 L-56,60 L-61,60 L-67,52 L-68,46 L-63,41 L-61,41 L-60,38 L-51,32 L-39,25 L-29,18 L-13,8 Z " fill="#000000" transform="translate(764,884)"/>
</svg>
