<?xml version="1.0" encoding="UTF-8"?>
<!-- Generator: visioncortex VTracer 0.6.12 -->
<svg version="1.1" xmlns="http://www.w3.org/2000/svg" width="1137" height="1107">
<path d="M0,0 L1137,0 L1137,1107 L0,1107 Z M818,88 L802,90 L790,94 L778,100 L768,107 L762,111 L754,121 L742,134 L736,144 L727,157 L722,166 L719,171 L714,181 L711,190 L708,195 L704,205 L699,218 L693,239 L689,253 L687,257 L685,265 L679,284 L675,293 L671,309 L667,316 L663,329 L659,338 L650,357 L642,373 L633,390 L627,399 L620,409 L616,415 L604,430 L597,438 L592,443 L592,445 L588,447 L585,450 L585,452 L581,454 L567,466 L553,475 L545,481 L545,483 L539,485 L528,494 L515,505 L505,517 L498,529 L492,545 L490,557 L490,566 L494,577 L501,585 L506,590 L519,603 L524,606 L530,613 L535,618 L548,631 L553,636 L560,643 L566,646 L583,646 L593,645 L602,641 L612,636 L620,630 L631,621 L642,609 L652,596 L659,584 L663,575 L671,562 L681,549 L689,540 L689,538 L693,536 L701,527 L707,523 L712,518 L722,510 L730,504 L754,488 L770,480 L785,472 L795,467 L805,462 L815,458 L823,454 L833,451 L858,441 L876,435 L888,431 L915,420 L932,411 L942,406 L952,399 L975,386 L987,376 L998,368 L1003,364 L1008,359 L1015,352 L1025,337 L1031,321 L1034,303 L1034,289 L1031,275 L1026,261 L1017,247 L1006,235 L999,229 L994,224 L983,212 L967,197 L955,186 L949,179 L941,172 L933,163 L923,155 L916,147 L911,141 L903,134 L892,123 L884,116 L877,109 L867,102 L857,96 L848,93 L833,89 L827,88 Z M226,339 L216,346 L209,354 L196,367 L191,372 L179,384 L174,388 L167,396 L151,412 L146,417 L137,426 L132,431 L124,440 L120,447 L121,452 L125,460 L129,465 L129,472 L123,480 L120,484 L118,489 L120,498 L123,507 L123,517 L120,530 L121,539 L129,549 L135,554 L140,559 L145,564 L156,575 L162,582 L170,589 L180,599 L185,604 L192,611 L200,618 L205,623 L228,646 L233,651 L244,661 L249,666 L254,671 L263,679 L268,685 L276,692 L293,709 L298,714 L307,722 L312,727 L347,762 L355,769 L363,777 L368,782 L401,815 L403,815 L405,819 L413,827 L418,832 L428,841 L440,853 L445,858 L451,862 L457,869 L459,869 L461,873 L474,886 L479,891 L506,918 L514,925 L518,929 L520,929 L520,931 L525,936 L533,944 L538,948 L539,950 L541,950 L541,952 L549,959 L556,968 L564,975 L574,984 L579,989 L588,997 L594,1004 L605,1012 L610,1013 L623,1009 L634,1009 L642,1011 L647,1013 L655,1012 L664,1005 L670,1000 L677,1001 L687,1008 L694,1010 L702,1006 L715,994 L720,987 L726,983 L734,974 L742,967 L749,960 L756,952 L762,947 L769,939 L774,935 L781,927 L788,919 L796,912 L800,907 L801,898 L798,892 L779,873 L772,865 L761,854 L756,850 L749,842 L741,835 L739,832 L737,832 L737,830 L731,825 L726,820 L720,814 L718,814 L716,810 L709,804 L702,796 L690,785 L685,781 L678,773 L667,762 L659,755 L637,733 L632,729 L627,724 L619,715 L611,708 L586,683 L578,676 L568,667 L563,662 L554,652 L550,646 L544,641 L539,636 L534,630 L527,625 L522,618 L513,611 L508,606 L485,583 L477,576 L465,564 L460,559 L444,544 L404,504 L396,497 L391,491 L386,486 L374,475 L365,466 L360,461 L350,452 L324,426 L320,421 L312,414 L302,404 L294,397 L280,383 L275,379 L268,371 L263,367 L258,362 L250,353 L245,349 L240,344 L233,339 Z M351,411 L348,415 L349,419 L354,420 L356,414 L354,411 Z M754,616 Z M964,692 L963,695 L966,695 L965,692 Z " fill="#000000" transform="translate(0,0)"/>
</svg>
