<?xml version="1.0" encoding="UTF-8"?>
<!-- Generator: visioncortex VTracer 0.6.12 -->
<svg version="1.1" xmlns="http://www.w3.org/2000/svg" width="1008" height="999">
<path d="M0,0 L994,0 L995,1 L1001,1 L1002,0 L1008,0 L1008,999 L0,999 Z M727,87 L712,91 L702,95 L691,102 L679,113 L672,121 L666,129 L660,138 L656,143 L648,156 L642,168 L638,178 L630,196 L623,221 L617,238 L614,246 L610,262 L603,277 L601,285 L597,292 L594,302 L590,310 L582,326 L570,348 L567,355 L561,362 L554,373 L547,383 L537,393 L531,401 L514,417 L505,424 L496,430 L482,439 L477,443 L467,450 L461,455 L457,459 L452,464 L446,475 L442,482 L439,491 L438,496 L438,512 L442,521 L452,532 L457,537 L466,547 L471,551 L478,559 L486,567 L491,572 L496,578 L503,582 L514,582 L522,580 L532,579 L540,575 L547,572 L556,564 L561,559 L571,549 L580,537 L593,513 L600,504 L609,492 L617,485 L626,475 L639,463 L650,456 L666,446 L678,440 L687,434 L703,426 L714,421 L727,417 L737,412 L749,407 L770,400 L779,395 L794,392 L808,386 L818,383 L832,375 L848,367 L859,361 L869,354 L881,346 L889,340 L897,333 L904,325 L914,312 L920,299 L923,283 L923,271 L919,251 L913,239 L906,229 L890,213 L882,203 L859,180 L854,175 L848,168 L843,163 L832,152 L824,145 L812,131 L802,122 L794,115 L785,104 L773,97 L763,92 L749,87 Z M204,303 L193,311 L189,316 L184,320 L177,328 L171,333 L164,341 L154,350 L148,355 L141,363 L129,374 L118,386 L112,392 L111,395 L111,403 L116,411 L116,422 L110,430 L108,432 L108,443 L110,447 L110,459 L107,474 L109,480 L119,491 L126,499 L132,506 L137,511 L141,515 L149,522 L152,527 L160,533 L162,536 L164,536 L166,540 L172,547 L177,551 L184,560 L188,562 L194,571 L204,579 L208,584 L215,590 L220,595 L227,603 L232,608 L240,615 L249,626 L256,632 L262,640 L274,648 L284,661 L297,673 L305,680 L311,688 L333,710 L338,715 L351,729 L356,734 L368,747 L374,751 L380,758 L385,763 L394,772 L399,777 L404,783 L410,787 L415,791 L417,791 L419,797 L428,807 L435,814 L440,819 L452,832 L457,836 L462,841 L466,846 L474,852 L483,863 L491,871 L502,880 L510,889 L515,893 L518,899 L523,904 L531,910 L535,912 L541,912 L552,908 L559,910 L564,912 L572,913 L580,909 L587,903 L590,901 L596,902 L602,907 L611,908 L618,906 L623,901 L631,895 L638,886 L648,878 L656,870 L660,864 L670,856 L678,849 L683,842 L689,838 L704,823 L707,818 L707,812 L703,806 L699,801 L693,796 L686,788 L678,780 L674,775 L667,769 L661,762 L656,757 L651,752 L649,752 L647,748 L640,742 L632,732 L624,726 L615,716 L607,708 L602,703 L595,695 L593,695 L591,691 L576,676 L569,668 L549,648 L542,640 L521,619 L514,611 L498,594 L493,589 L483,578 L478,572 L471,566 L464,558 L456,551 L451,546 L442,536 L438,531 L430,525 L425,520 L421,518 L419,514 L407,502 L402,497 L388,483 L381,475 L376,468 L368,462 L357,450 L349,444 L345,440 L341,434 L333,426 L331,426 L329,422 L310,403 L303,395 L296,387 L285,378 L275,367 L270,363 L263,355 L258,350 L245,338 L234,325 L230,319 L220,312 L212,305 L209,303 Z " fill="#000000" transform="translate(0,0)"/>
</svg>
