<?xml version="1.0" encoding="UTF-8"?>
<!-- Generator: visioncortex VTracer 0.6.12 -->
<svg version="1.1" xmlns="http://www.w3.org/2000/svg" width="1110" height="1104">
<path d="M0,0 L7,0 L4,10 L4,570 L5,629 L6,690 L5,745 L5,1009 L6,1031 L6,1072 L7,1089 L10,1096 L12,1097 L48,1098 L567,1098 L584,1099 L628,1098 L669,1098 L678,1099 L744,1098 L829,1099 L1026,1099 L1069,1100 L1103,1099 L1106,1097 L1109,1088 L1110,1088 L1110,1104 L3,1104 L0,1101 Z " fill="#000000" transform="translate(0,0)"/>
<path d="M0,0 L8,0 L4,2 Z " fill="#000000" transform="translate(1031,0)"/>
<path d="M0,0 L6,0 L6,10 L3,7 L1,2 Z " fill="#000000" transform="translate(1104,0)"/>
<path d="M0,0 Z " fill="#000000" transform="translate(1109,75)"/>
<path d="M0,0 L1,0 L1,13 L0,13 Z " fill="#000000" transform="translate(1109,133)"/>
<path d="M0,0 L5,1 L27,14 L45,24 L55,30 L72,40 L90,50 L100,56 L113,64 L125,71 L136,77 L159,90 L180,102 L193,110 L204,116 L211,120 L225,128 L241,137 L249,142 L256,146 L261,149 L284,162 L302,172 L313,179 L327,186 L330,188 L330,190 L339,193 L353,201 L369,211 L379,216 L392,224 L395,227 L396,251 L396,301 L397,418 L397,520 L398,654 L399,770 L399,789 L397,792 L391,792 L388,788 L387,780 L386,663 L386,572 L385,428 L385,381 L386,376 L385,375 L385,303 L384,237 L381,231 L369,224 L358,217 L348,212 L337,205 L326,199 L308,189 L287,177 L280,172 L276,168 L268,166 L259,160 L245,153 L233,146 L214,135 L201,128 L193,123 L184,117 L172,112 L167,108 L151,99 L135,90 L127,85 L118,80 L106,73 L99,69 L94,66 L71,53 L58,46 L48,40 L39,34 L25,27 L18,22 L8,17 L5,15 L-4,16 L-18,24 L-29,30 L-42,38 L-66,52 L-74,57 L-83,62 L-92,68 L-119,83 L-129,89 L-149,101 L-173,115 L-175,117 L-182,120 L-192,126 L-209,136 L-219,142 L-228,147 L-242,155 L-251,161 L-268,170 L-277,176 L-293,185 L-307,193 L-317,199 L-328,205 L-333,208 L-351,219 L-362,225 L-372,231 L-374,234 L-375,239 L-375,358 L-374,607 L-375,619 L-374,628 L-374,782 L-376,789 L-383,789 L-385,788 L-386,785 L-387,614 L-387,607 L-386,597 L-387,580 L-386,563 L-387,517 L-387,381 L-386,315 L-387,313 L-386,283 L-384,280 L-385,273 L-386,269 L-387,233 L-385,226 L-380,222 L-354,207 L-337,197 L-313,183 L-304,178 L-293,171 L-279,164 L-268,157 L-256,150 L-246,144 L-228,134 L-216,127 L-197,116 L-182,107 L-165,97 L-147,87 L-132,78 L-122,72 L-111,66 L-104,62 L-90,54 L-80,47 L-65,39 L-54,32 L-42,25 L-31,18 L-20,12 L-7,4 Z M393,648 L393,650 L395,649 Z " fill="#000000" transform="translate(544,138)"/>
<path d="M0,0 L1,0 L1,7 L-1,5 Z " fill="#000000" transform="translate(1109,151)"/>
<path d="M0,0 L1,0 L1,7 L-1,3 Z " fill="#000000" transform="translate(1109,166)"/>
<path d="M0,0 L1,0 L1,29 L-1,27 Z " fill="#000000" transform="translate(1109,182)"/>
<path d="M0,0 L1,0 L1,6 L0,6 Z " fill="#000000" transform="translate(1109,224)"/>
<path d="M0,0 Z " fill="#000000" transform="translate(1109,253)"/>
<path d="M0,0 L23,1 L34,4 L48,9 L57,15 L65,21 L75,30 L85,44 L91,56 L96,72 L97,78 L97,102 L93,118 L88,130 L80,144 L69,156 L60,163 L44,172 L40,174 L31,176 L19,179 L3,179 L-8,178 L-24,173 L-31,168 L-40,165 L-49,158 L-59,149 L-66,140 L-75,123 L-79,110 L-80,106 L-80,74 L-74,53 L-67,41 L-59,31 L-53,24 L-43,16 L-25,6 L-6,1 Z M-20,22 L-28,26 L-28,38 L-24,39 L-18,36 L-17,24 Z " fill="#000000" transform="translate(539,378)"/>
<path d="M0,0 L1,0 L1,6 L0,6 Z " fill="#000000" transform="translate(1109,484)"/>
<path d="M0,0 L1,0 L1,5 L-1,2 Z " fill="#000000" transform="translate(1109,505)"/>
<path d="M0,0 Z " fill="#000000" transform="translate(1109,616)"/>
<path d="M0,0 L18,0 L31,2 L41,5 L58,13 L67,20 L75,28 L82,37 L90,50 L95,62 L97,67 L99,82 L99,97 L97,111 L90,130 L82,142 L70,156 L62,163 L54,168 L37,175 L19,179 L0,178 L-18,174 L-37,165 L-50,155 L-59,145 L-66,135 L-71,125 L-75,114 L-78,98 L-78,81 L-75,64 L-71,53 L-64,41 L-55,29 L-48,22 L-36,13 L-26,8 L-14,3 Z " fill="#000000" transform="translate(389,636)"/>
<path d="M0,0 L24,0 L39,4 L48,8 L61,15 L74,26 L81,34 L93,53 L96,62 L99,74 L100,81 L100,101 L96,118 L90,133 L79,148 L68,159 L53,169 L32,177 L11,179 L-4,178 L-24,172 L-37,165 L-42,161 L-50,155 L-51,152 L-55,150 L-63,140 L-68,132 L-76,114 L-79,99 L-79,78 L-76,63 L-70,48 L-64,39 L-57,30 L-52,25 L-47,20 L-36,12 L-21,5 L-7,1 Z M50,84 L50,88 L54,88 L53,84 Z M32,114 L32,117 L35,118 L34,114 Z " fill="#000000" transform="translate(686,638)"/>
<path d="M0,0 L1,0 L1,5 L0,5 Z " fill="#000000" transform="translate(1109,710)"/>
<path d="M0,0 Z " fill="#000000" transform="translate(1109,733)"/>
<path d="M0,0 L1,0 L1,36 L0,36 L-1,29 L-1,3 Z " fill="#000000" transform="translate(1109,737)"/>
<path d="M0,0 L1,0 L1,5 L0,5 Z " fill="#000000" transform="translate(1109,782)"/>
<path d="M0,0 L1,0 L1,11 L-1,10 Z " fill="#000000" transform="translate(1109,797)"/>
<path d="M0,0 L1,0 L1,30 L-1,29 L-1,3 Z " fill="#000000" transform="translate(1109,815)"/>
<path d="M0,0 Z " fill="#000000" transform="translate(1109,854)"/>
<path d="M0,0 L1,0 L1,11 L-1,9 L-1,2 Z " fill="#000000" transform="translate(1109,857)"/>
<path d="M0,0 Z " fill="#000000" transform="translate(1109,876)"/>
<path d="M0,0 L1,0 L1,9 L-1,7 L-1,1 Z " fill="#000000" transform="translate(1109,907)"/>
<path d="M0,0 L3,1 L3,4 L-1,4 Z " fill="#000000" transform="translate(235,914)"/>
<path d="M0,0 L1,4 Z " fill="#000000" transform="translate(1109,941)"/>
<path d="M0,0 L1,0 L1,11 L0,11 Z " fill="#000000" transform="translate(1109,960)"/>
<path d="M0,0 L1,0 L1,10 L0,10 Z " fill="#000000" transform="translate(1109,980)"/>
<path d="M0,0 L1,0 L1,23 L-1,21 L-1,9 Z " fill="#000000" transform="translate(1109,1010)"/>
<path d="M0,0 Z " fill="#000000" transform="translate(1109,1041)"/>
<path d="M0,0 Z " fill="#000000" transform="translate(1109,1057)"/>
<path d="M0,0 L1,0 L1,6 L-1,2 Z " fill="#000000" transform="translate(1109,1079)"/>
</svg>
