<?xml version="1.0" encoding="UTF-8"?>
<!-- Generator: visioncortex VTracer 0.6.12 -->
<svg version="1.1" xmlns="http://www.w3.org/2000/svg" width="1110" height="1101">
<path d="M0,0 L727,0 L736,1 L751,1 L753,0 L774,0 L780,1 L782,0 L792,0 L799,2 L819,3 L876,3 L893,4 L902,5 L915,5 L921,4 L936,4 L942,5 L957,5 L988,3 L1002,4 L1007,5 L1044,6 L1073,8 L1078,9 L1090,9 L1095,8 L1106,8 L1106,26 L1098,26 L1082,24 L1065,24 L1036,23 L1010,23 L988,22 L952,21 L941,20 L904,19 L827,18 L746,18 L723,16 L626,16 L613,15 L597,15 L589,14 L529,13 L493,13 L447,12 L386,12 L381,11 L325,11 L315,10 L208,10 L191,9 L119,9 L115,8 L96,8 L94,7 L40,6 L19,6 L15,9 L13,23 L11,65 L11,139 L10,216 L10,288 L9,306 L8,383 L7,427 L6,446 L6,474 L5,517 L5,568 L4,607 L4,657 L3,674 L2,763 L1,862 L0,902 L0,1003 L-1,1032 L-1,1082 L0,1085 L5,1084 L8,1081 L13,1082 L17,1083 L20,1081 L53,1081 L60,1082 L80,1083 L130,1083 L144,1084 L149,1087 L150,1089 L154,1089 L158,1085 L234,1085 L236,1088 L235,1092 L241,1093 L243,1092 L242,1086 L243,1085 L263,1085 L270,1084 L276,1085 L318,1086 L367,1086 L370,1089 L369,1095 L374,1094 L376,1088 L377,1087 L394,1087 L398,1088 L404,1088 L407,1093 L410,1096 L415,1094 L415,1089 L416,1088 L435,1088 L443,1089 L444,1092 L444,1097 L449,1097 L450,1093 L448,1090 L453,1088 L483,1089 L485,1095 L488,1096 L488,1090 L489,1089 L552,1089 L555,1092 L556,1096 L558,1096 L561,1090 L575,1089 L595,1090 L634,1090 L637,1097 L641,1099 L641,1101 L340,1101 L338,1100 L318,1100 L317,1101 L304,1101 L302,1100 L248,1100 L179,1097 L121,1097 L102,1096 L8,1096 L-4,1095 L-4,322 L-3,319 L-3,305 L-4,298 L-2,293 L-2,280 L-3,265 L-4,261 L-2,248 L-2,207 L-3,177 L-1,144 L-1,5 Z M110,1085 L109,1086 L109,1091 L115,1092 L117,1090 L116,1086 Z M393,1091 L391,1094 L394,1096 L397,1094 L396,1091 Z " fill="#000000" transform="translate(4,0)"/>
<path d="M0,0 L7,1 L24,6 L33,11 L47,23 L57,39 L63,60 L64,76 L63,88 L57,104 L50,115 L42,124 L34,130 L20,138 L3,142 L-10,141 L-17,139 L-27,137 L-38,131 L-50,122 L-59,112 L-66,98 L-69,91 L-71,79 L-71,65 L-67,46 L-62,33 L-54,23 L-40,11 L-31,6 L-19,2 L-5,1 Z " fill="#000000" transform="translate(288,69)"/>
<path d="M0,0 L19,0 L46,1 L60,5 L76,9 L93,15 L114,27 L124,34 L135,42 L144,50 L151,58 L158,65 L164,73 L179,96 L190,119 L194,130 L197,141 L201,161 L203,174 L203,209 L202,222 L197,245 L190,264 L184,278 L176,292 L168,304 L154,319 L143,329 L130,339 L119,346 L103,355 L97,357 L97,359 L88,364 L76,372 L65,381 L60,386 L52,397 L45,409 L40,422 L36,442 L34,480 L34,514 L31,521 L27,524 L-2,524 L-43,523 L-67,522 L-73,518 L-74,506 L-74,476 L-73,453 L-72,425 L-69,408 L-66,391 L-63,381 L-55,364 L-48,349 L-41,341 L-35,333 L-29,325 L-23,317 L-15,310 L-9,302 L1,296 L14,286 L31,277 L41,270 L54,262 L65,254 L75,246 L87,232 L94,217 L95,208 L96,206 L96,186 L94,170 L91,164 L88,155 L82,145 L70,131 L55,121 L42,115 L26,112 L7,112 L-14,119 L-27,126 L-37,135 L-45,143 L-51,152 L-57,165 L-59,175 L-60,178 L-61,197 L-65,205 L-68,206 L-101,206 L-141,205 L-159,205 L-166,202 L-169,198 L-169,180 L-167,161 L-164,152 L-160,135 L-153,119 L-144,99 L-136,83 L-128,72 L-121,63 L-115,58 L-110,51 L-108,51 L-108,49 L-99,42 L-93,38 L-84,30 L-70,23 L-59,17 L-54,14 L-45,11 L-26,4 Z M14,19 L7,20 L-10,21 L-27,26 L-41,30 L-68,43 L-87,56 L-100,69 L-102,70 L-102,72 L-106,74 L-116,85 L-126,100 L-136,119 L-142,134 L-147,150 L-151,178 L-150,184 L-146,189 L-136,191 L-104,191 L-88,192 L-80,188 L-77,182 L-75,167 L-71,155 L-67,149 L-64,140 L-57,132 L-46,118 L-35,110 L-25,105 L-11,98 L-1,95 L20,93 L36,95 L58,102 L68,107 L78,116 L85,122 L97,139 L105,155 L108,162 L112,184 L112,203 L108,223 L99,243 L89,256 L74,269 L65,275 L59,279 L45,287 L31,296 L20,304 L12,310 L2,319 L-6,326 L-16,335 L-23,344 L-31,355 L-40,370 L-45,381 L-51,400 L-54,419 L-56,446 L-56,499 L-53,504 L-48,507 L-7,508 L8,508 L13,504 L17,496 L18,489 L18,460 L21,428 L24,415 L28,405 L41,382 L49,374 L54,369 L64,360 L73,354 L83,347 L99,339 L107,333 L123,324 L130,318 L135,313 L146,303 L150,299 L160,284 L166,274 L175,258 L183,235 L187,216 L188,214 L188,172 L184,154 L179,135 L174,125 L171,115 L162,101 L157,90 L149,83 L143,75 L132,64 L125,59 L120,54 L112,48 L97,40 L91,36 L80,32 L72,28 L54,23 L46,21 L28,19 Z " fill="#000000" transform="translate(547,75)"/>
<path d="M0,0 L1,0 L1,5 L0,5 Z " fill="#000000" transform="translate(1109,102)"/>
<path d="M0,0 L1,0 L1,687 L0,700 L1,710 L0,712 L-1,759 L-1,788 L-3,907 L-5,983 L-6,986 L-20,986 L-17,981 L-15,955 L-15,907 L-14,846 L-14,822 L-13,800 L-13,784 L-12,777 L-11,754 L-11,698 L-9,629 L-8,547 L-8,526 L-7,514 L-7,434 L-6,414 L-6,355 L-5,306 L-4,298 L-5,295 L-5,206 L-4,185 L-4,161 L-3,133 L-3,83 L-2,74 L-2,9 L-1,1 Z " fill="#000000" transform="translate(1109,115)"/>
<path d="M0,0 L21,1 L38,5 L53,13 L62,19 L71,28 L82,45 L86,53 L91,66 L93,84 L93,134 L96,143 L102,145 L120,146 L200,146 L210,147 L235,147 L239,152 L239,160 L237,168 L233,178 L230,182 L227,188 L215,201 L202,211 L195,215 L183,220 L173,222 L170,223 L150,224 L95,224 L93,229 L92,231 L90,281 L89,341 L88,353 L84,357 L78,358 L30,357 L-7,356 L-28,355 L-52,355 L-66,354 L-72,351 L-74,347 L-74,340 L-73,334 L-73,305 L-72,284 L-72,255 L-71,201 L-70,194 L-70,154 L-69,151 L-69,123 L-68,83 L-64,55 L-60,46 L-52,32 L-38,17 L-29,11 L-15,4 Z M67,43 L66,48 L71,49 L72,46 L70,43 Z M-54,73 L-56,75 L-56,84 L-51,85 L-50,84 L-50,74 Z M-37,211 L-38,214 L-35,216 L-33,215 L-33,211 Z M-58,257 L-59,258 L-59,268 L-56,269 L-53,267 L-53,259 L-55,257 Z " fill="#000000" transform="translate(194,233)"/>
<path d="M0,0 L13,0 L26,2 L32,3 L41,9 L51,15 L64,30 L68,38 L71,47 L74,59 L75,77 L74,88 L69,100 L59,116 L46,128 L30,136 L18,139 L3,139 L-11,137 L-24,132 L-39,122 L-49,111 L-57,95 L-61,84 L-61,58 L-54,42 L-48,28 L-41,19 L-26,9 L-12,2 Z M36,111 L34,113 L35,118 L40,117 L41,114 L39,111 Z " fill="#000000" transform="translate(898,248)"/>
<path d="M0,0 L20,0 L32,3 L44,8 L50,11 L58,17 L69,28 L75,37 L80,47 L83,57 L86,68 L88,85 L88,119 L87,171 L85,244 L84,286 L83,291 L84,293 L83,333 L82,364 L81,371 L77,375 L32,375 L-28,374 L-67,373 L-93,373 L-137,372 L-143,372 L-147,376 L-149,380 L-150,395 L-152,446 L-152,472 L-153,501 L-155,515 L-162,536 L-168,548 L-176,558 L-188,569 L-200,578 L-220,586 L-225,587 L-232,587 L-237,583 L-238,572 L-237,510 L-235,440 L-234,327 L-231,308 L-224,297 L-216,290 L-209,286 L-191,286 L-174,285 L-157,287 L-139,287 L-119,288 L-88,288 L-84,285 L-82,285 L-80,276 L-79,259 L-79,228 L-81,219 L-85,216 L-96,216 L-110,215 L-157,214 L-175,213 L-192,213 L-204,212 L-221,212 L-225,210 L-226,203 L-224,194 L-220,184 L-211,170 L-203,160 L-192,152 L-186,147 L-175,142 L-162,138 L-157,137 L-132,137 L-98,138 L-84,138 L-80,137 L-78,132 L-76,126 L-75,79 L-73,71 L-72,61 L-64,41 L-54,27 L-50,22 L-41,15 L-32,8 L-19,4 L-10,1 Z " fill="#000000" transform="translate(906,425)"/>
<path d="M0,0 L20,0 L64,1 L70,4 L73,12 L72,76 L71,111 L70,206 L69,237 L69,250 L68,279 L68,325 L66,392 L65,401 L62,404 L53,403 L41,399 L25,389 L18,383 L13,380 L6,372 L1,365 L-3,358 L-11,343 L-14,329 L-16,314 L-15,280 L-15,249 L-14,206 L-14,193 L-12,163 L-13,151 L-12,137 L-12,102 L-9,8 L-6,3 Z M41,15 L40,16 L41,25 L44,30 L48,29 L49,28 L48,18 L46,15 Z M53,71 L51,73 L52,80 L54,83 L59,82 L60,75 L55,71 Z " fill="#000000" transform="translate(167,599)"/>
<path d="M0,0 L13,0 L28,2 L38,5 L49,12 L58,20 L68,36 L73,48 L75,57 L75,79 L72,93 L64,109 L56,119 L41,130 L32,134 L16,138 L2,138 L-14,134 L-32,124 L-44,113 L-51,103 L-57,91 L-59,81 L-59,57 L-57,45 L-53,34 L-43,21 L-35,15 L-30,11 L-15,3 Z M2,17 L-9,20 L-17,24 L-27,31 L-36,43 L-41,55 L-42,60 L-42,74 L-39,89 L-34,99 L-29,104 L-20,112 L-9,117 L-3,119 L9,120 L18,121 L25,117 L37,113 L47,104 L56,91 L58,85 L59,75 L59,60 L55,48 L47,37 L44,32 L36,25 L28,21 L19,18 Z " fill="#000000" transform="translate(515,646)"/>
<path d="M0,0 L3,0 L2,4 L0,3 Z " fill="#000000" transform="translate(279,862)"/>
<path d="M0,0 L27,0 L39,1 L80,2 L89,1 L91,2 L93,11 L-1,11 L0,6 L-1,1 Z " fill="#000000" transform="translate(654,1090)"/>
<path d="M0,0 L18,1 L19,6 L20,10 L-2,10 L-4,4 L-6,2 Z " fill="#000000" transform="translate(758,1091)"/>
<path d="M0,0 L28,0 L55,1 L81,1 L112,2 L129,2 L139,1 L148,1 L166,2 L198,2 L220,3 L241,3 L272,4 L276,5 L294,6 L295,9 L182,9 L182,7 L179,9 L126,9 L125,7 L121,9 L59,9 L57,6 L52,6 L51,9 L-4,9 L-1,3 Z " fill="#000000" transform="translate(787,1092)"/>
</svg>
