<?xml version="1.0" encoding="UTF-8"?>
<!-- Generator: visioncortex VTracer 0.6.12 -->
<svg version="1.1" xmlns="http://www.w3.org/2000/svg" width="1074" height="1068">
<path d="M0,0 L230,0 L230,2 L247,6 L252,8 L263,10 L276,15 L285,17 L299,21 L306,24 L317,29 L325,31 L335,36 L345,41 L358,46 L368,53 L377,55 L387,61 L398,68 L409,74 L419,80 L435,91 L444,97 L452,105 L458,109 L470,119 L476,123 L476,125 L481,127 L490,135 L494,140 L502,147 L516,162 L525,171 L529,175 L540,189 L550,201 L554,205 L562,217 L571,227 L581,245 L588,256 L596,270 L601,277 L607,288 L611,297 L619,313 L623,323 L628,334 L634,348 L639,363 L643,374 L645,383 L650,401 L654,418 L655,419 L655,653 L653,653 L652,662 L645,686 L639,706 L634,719 L629,731 L622,750 L614,766 L604,787 L598,798 L591,810 L583,823 L575,834 L567,847 L560,857 L548,873 L541,881 L532,892 L523,903 L513,912 L506,920 L497,929 L489,936 L475,949 L458,962 L450,969 L440,976 L430,983 L422,989 L410,996 L400,1003 L371,1019 L354,1027 L343,1033 L330,1038 L317,1043 L301,1049 L283,1055 L266,1060 L248,1065 L239,1066 L239,1068 L-7,1068 L-7,1066 L-24,1064 L-36,1060 L-44,1058 L-57,1054 L-63,1051 L-76,1047 L-87,1042 L-100,1037 L-120,1028 L-136,1020 L-152,1012 L-162,1006 L-169,1002 L-185,992 L-193,987 L-197,983 L-203,979 L-213,972 L-221,966 L-232,957 L-241,950 L-252,940 L-260,933 L-267,925 L-275,918 L-282,910 L-289,904 L-296,895 L-301,890 L-310,880 L-320,867 L-332,850 L-340,838 L-348,827 L-355,816 L-363,801 L-368,794 L-373,782 L-381,766 L-389,749 L-395,733 L-397,728 L-398,720 L-401,716 L-411,686 L-416,665 L-418,652 L-419,651 L-419,423 L-417,419 L-414,403 L-411,388 L-406,372 L-399,354 L-397,346 L-391,331 L-386,319 L-379,308 L-376,298 L-368,281 L-361,270 L-351,251 L-344,241 L-338,231 L-331,224 L-324,214 L-321,209 L-318,204 L-313,199 L-307,190 L-300,182 L-293,173 L-289,168 L-281,161 L-273,152 L-267,147 L-263,141 L-258,137 L-253,132 L-248,127 L-237,118 L-231,114 L-226,108 L-216,102 L-210,97 L-208,97 L-207,94 L-196,86 L-185,78 L-171,69 L-162,63 L-154,58 L-143,54 L-135,50 L-110,39 L-100,35 L-90,30 L-75,25 L-61,18 L-53,17 L-48,13 L-38,10 L-26,8 L-21,5 L-7,2 L0,2 Z M-39,171 L-56,177 L-65,182 L-76,191 L-83,197 L-92,211 L-95,218 L-98,226 L-101,241 L-101,256 L-99,268 L-94,281 L-87,293 L-75,306 L-64,315 L-57,319 L-43,324 L-31,326 L-22,326 L-6,324 L8,320 L30,307 L37,298 L42,289 L47,283 L52,271 L54,257 L55,252 L55,244 L52,227 L45,209 L34,196 L25,187 L17,181 L1,174 L-9,171 Z M284,182 L263,185 L256,188 L246,191 L238,195 L228,197 L211,206 L204,210 L186,221 L179,227 L168,236 L161,242 L152,253 L145,260 L139,268 L132,278 L118,305 L109,328 L101,369 L100,377 L100,388 L102,400 L108,405 L112,406 L132,406 L138,407 L141,406 L158,406 L197,407 L209,404 L212,401 L214,383 L215,368 L218,355 L225,342 L232,333 L235,328 L242,321 L250,314 L260,308 L275,301 L290,297 L303,295 L314,295 L316,296 L326,296 L335,299 L354,308 L364,314 L374,323 L383,334 L391,345 L397,359 L401,371 L403,386 L403,398 L399,417 L392,434 L383,448 L374,458 L364,466 L348,474 L338,479 L332,482 L321,483 L294,492 L277,501 L264,510 L258,514 L240,532 L233,542 L225,556 L220,569 L215,582 L212,593 L209,605 L208,618 L206,687 L206,718 L209,723 L214,726 L234,727 L245,727 L250,726 L260,727 L267,726 L274,728 L310,729 L318,723 L319,721 L319,656 L321,642 L324,628 L332,612 L341,602 L349,594 L359,588 L371,584 L383,579 L406,569 L416,564 L426,557 L440,550 L454,538 L463,530 L469,522 L482,506 L492,489 L499,476 L504,463 L509,449 L511,435 L514,430 L516,409 L517,404 L517,376 L516,359 L509,331 L507,323 L498,303 L492,291 L486,281 L474,264 L462,251 L451,239 L443,232 L431,222 L418,214 L403,205 L390,198 L372,192 L363,189 L354,187 L345,185 L325,182 Z M-76,340 L-81,344 L-83,350 L-84,381 L-85,408 L-87,431 L-90,445 L-100,461 L-106,468 L-117,476 L-129,481 L-138,485 L-153,490 L-177,501 L-194,511 L-205,518 L-217,529 L-225,536 L-235,548 L-243,558 L-253,573 L-263,591 L-269,605 L-278,632 L-280,648 L-283,669 L-283,688 L-281,712 L-277,733 L-271,753 L-264,769 L-256,785 L-251,794 L-239,809 L-232,820 L-226,824 L-219,832 L-207,842 L-197,849 L-190,855 L-176,862 L-167,866 L-146,874 L-142,876 L-133,877 L-123,882 L-115,884 L-92,886 L-91,887 L-81,887 L-66,886 L-45,885 L-39,881 L-31,882 L-20,878 L-10,876 L4,870 L18,863 L22,860 L31,857 L37,852 L51,844 L65,834 L71,829 L78,821 L85,815 L89,809 L99,795 L107,782 L113,773 L121,756 L127,737 L130,728 L133,712 L134,697 L135,694 L135,671 L133,666 L129,663 L47,661 L30,660 L25,663 L22,667 L21,689 L17,705 L12,719 L4,733 L-9,748 L-22,758 L-39,767 L-56,772 L-77,773 L-85,773 L-91,771 L-100,769 L-116,763 L-129,756 L-142,744 L-150,735 L-157,724 L-162,712 L-165,699 L-167,689 L-167,673 L-165,661 L-160,644 L-153,630 L-144,619 L-140,613 L-131,607 L-123,601 L-115,596 L-100,590 L-93,586 L-84,585 L-71,582 L-60,578 L-44,570 L-33,563 L-24,555 L-22,552 L-15,548 L-3,536 L6,524 L10,518 L15,506 L18,498 L22,487 L24,478 L28,466 L30,443 L31,438 L32,396 L33,390 L33,349 L28,344 L20,342 L-32,341 L-45,341 Z M257,743 L248,744 L234,747 L223,753 L212,760 L204,767 L194,780 L188,793 L184,807 L183,820 L183,830 L186,841 L189,851 L197,863 L204,872 L210,876 L220,884 L234,891 L246,894 L263,894 L277,892 L289,888 L303,880 L314,871 L322,862 L328,849 L331,840 L333,836 L334,830 L334,806 L330,790 L323,776 L314,766 L309,761 L300,754 L283,747 L262,743 Z M-269,847 L-268,851 L-266,850 L-266,847 Z " fill="#000000" transform="translate(419,0)"/>
</svg>
