<?xml version="1.0" encoding="UTF-8"?>
<!-- Generator: visioncortex VTracer 0.6.12 -->
<svg version="1.1" xmlns="http://www.w3.org/2000/svg" width="1092" height="1260">
<path d="M0,0 L31,0 L35,5 L37,13 L38,61 L38,75 L41,138 L41,172 L42,216 L42,235 L43,248 L44,356 L44,387 L45,424 L45,467 L46,535 L47,628 L48,646 L48,777 L49,819 L49,850 L50,1002 L49,1011 L45,1016 L31,1016 L24,1017 L-15,1019 L-52,1019 L-55,1020 L-81,1020 L-88,1021 L-96,1020 L-120,1021 L-177,1021 L-180,1022 L-225,1023 L-240,1021 L-255,1020 L-260,1023 L-283,1023 L-292,1024 L-326,1024 L-352,1026 L-363,1026 L-373,1025 L-377,1026 L-441,1026 L-462,1027 L-503,1027 L-524,1028 L-535,1028 L-547,1029 L-598,1030 L-637,1031 L-670,1031 L-675,1030 L-742,1030 L-756,1031 L-776,1031 L-792,1030 L-801,1031 L-840,1031 L-856,1032 L-943,1032 L-957,1031 L-960,1027 L-962,1021 L-962,916 L-963,882 L-963,857 L-964,799 L-964,757 L-965,747 L-965,670 L-966,652 L-967,595 L-967,543 L-968,526 L-967,505 L-968,501 L-969,485 L-969,431 L-971,390 L-972,257 L-973,229 L-973,162 L-974,152 L-974,133 L-975,106 L-975,40 L-974,29 L-967,23 L-941,21 L-885,21 L-860,19 L-852,20 L-824,19 L-818,20 L-813,18 L-771,18 L-755,17 L-724,17 L-682,16 L-642,15 L-593,15 L-549,12 L-529,12 L-490,11 L-475,11 L-448,10 L-423,9 L-404,8 L-401,9 L-342,8 L-302,7 L-297,6 L-280,6 L-271,5 L-205,5 L-168,3 L-149,3 L-127,2 L-103,2 L-79,1 L-61,1 Z M-443,109 L-452,110 L-462,110 L-475,111 L-479,113 L-490,114 L-494,116 L-508,118 L-521,121 L-538,127 L-549,132 L-556,134 L-561,137 L-567,139 L-586,150 L-598,157 L-616,170 L-625,176 L-630,181 L-645,195 L-650,200 L-661,213 L-672,226 L-680,237 L-686,245 L-695,264 L-704,281 L-710,296 L-715,312 L-719,323 L-725,355 L-726,369 L-726,383 L-722,387 L-699,388 L-689,387 L-664,387 L-656,386 L-632,386 L-609,385 L-600,382 L-598,379 L-595,355 L-589,329 L-583,314 L-573,295 L-569,289 L-557,275 L-551,268 L-548,265 L-537,256 L-525,247 L-514,240 L-505,235 L-495,231 L-478,226 L-460,223 L-447,222 L-432,222 L-418,223 L-401,227 L-380,234 L-362,244 L-354,250 L-346,257 L-338,265 L-326,282 L-320,294 L-315,308 L-313,321 L-313,347 L-315,364 L-320,380 L-326,395 L-336,411 L-348,425 L-355,433 L-367,443 L-371,447 L-382,456 L-390,462 L-401,470 L-411,479 L-418,485 L-423,488 L-433,497 L-438,502 L-443,507 L-452,517 L-468,541 L-476,557 L-484,578 L-489,598 L-492,628 L-491,676 L-489,683 L-484,687 L-432,687 L-387,685 L-373,684 L-368,680 L-367,671 L-367,654 L-364,628 L-354,599 L-343,578 L-334,566 L-327,558 L-319,551 L-308,541 L-303,536 L-291,524 L-283,517 L-265,499 L-257,492 L-250,484 L-245,479 L-233,465 L-223,451 L-216,440 L-212,432 L-206,422 L-199,405 L-192,388 L-188,361 L-187,330 L-190,304 L-194,283 L-199,268 L-201,259 L-206,248 L-214,232 L-223,217 L-229,206 L-241,192 L-248,183 L-251,182 L-253,178 L-264,168 L-281,157 L-289,152 L-297,146 L-312,138 L-328,131 L-349,123 L-357,121 L-362,119 L-380,115 L-392,113 L-420,110 L-433,110 Z M-408,777 L-412,779 L-430,780 L-474,781 L-489,782 L-497,785 L-499,787 L-500,797 L-500,873 L-499,906 L-497,924 L-492,930 L-463,930 L-423,929 L-358,927 L-353,924 L-351,920 L-350,914 L-350,822 L-351,791 L-353,783 L-356,780 L-381,779 L-403,777 Z " fill="#000000" transform="translate(1010,36)"/>
<path d="M0,0 L10,2 L18,7 L22,12 L24,16 L24,32 L20,40 L9,47 L-1,49 L-19,50 L-20,51 L-22,77 L-25,82 L-30,82 L-33,79 L-34,74 L-35,50 L-35,12 L-36,6 L-32,1 Z M-17,11 L-21,14 L-22,20 L-22,30 L-20,36 L-17,38 L2,37 L10,32 L12,28 L11,20 L6,13 L-3,11 Z " fill="#000000" transform="translate(87,1124)"/>
<path d="M0,0 L12,0 L19,3 L24,1 L25,0 L30,0 L33,4 L34,14 L35,46 L34,64 L31,72 L27,77 L19,81 L13,83 L-1,83 L-10,79 L-16,73 L-16,67 L-10,65 L-4,67 L0,71 L4,72 L12,72 L18,69 L21,65 L21,59 L16,58 L9,61 L2,61 L-5,59 L-13,53 L-19,43 L-20,35 L-20,24 L-18,17 L-13,9 L-7,4 Z M4,10 L-2,14 L-6,19 L-8,25 L-8,35 L-5,44 L0,49 L2,51 L12,51 L20,44 L22,37 L22,26 L19,16 L14,12 L8,10 Z " fill="#000000" transform="translate(142,1143)"/>
</svg>
