<?xml version="1.0" encoding="UTF-8"?>
<!-- Generator: visioncortex VTracer 0.6.12 -->
<svg version="1.1" xmlns="http://www.w3.org/2000/svg" width="1014" height="1002">
<path d="M0,0 L7,0 L9,1 L17,1 L20,0 L25,1 L26,0 L57,0 L57,2 L63,0 L832,0 L832,280 L830,279 L829,275 L829,161 L828,13 L825,6 L818,5 L802,4 L769,4 L694,5 L687,4 L625,6 L605,5 L598,7 L549,6 L501,7 L489,7 L476,8 L464,8 L439,9 L399,10 L342,10 L333,11 L230,11 L220,12 L180,12 L164,13 L99,13 L84,14 L72,13 L44,14 L36,13 L25,13 L9,14 L-9,15 L-31,15 L-38,16 L-95,16 L-119,17 L-129,18 L-138,17 L-147,17 L-151,18 L-177,19 L-180,23 L-182,23 L-182,3 L-176,4 L-137,4 L-77,3 L-53,2 L-25,2 L-2,1 Z " fill="#000000" transform="translate(182,0)"/>
<path d="M0,0 L2,4 L1,12 L0,12 Z " fill="#000000" transform="translate(0,34)"/>
<path d="M0,0 L31,0 L51,3 L59,6 L71,9 L87,16 L97,20 L103,25 L109,29 L120,37 L128,41 L135,49 L140,54 L146,59 L152,67 L161,79 L172,96 L177,104 L180,113 L185,124 L187,133 L192,149 L194,158 L197,193 L197,220 L193,236 L188,252 L184,265 L178,281 L171,298 L168,305 L156,328 L147,345 L141,356 L134,369 L124,382 L118,391 L111,401 L103,414 L92,431 L84,442 L76,460 L69,474 L67,478 L63,500 L62,653 L59,662 L53,666 L38,667 L15,667 L-21,666 L-24,658 L-25,653 L-25,568 L-26,507 L-24,495 L-17,473 L-15,463 L-9,450 L-4,437 L10,414 L16,406 L22,394 L28,384 L35,373 L48,353 L56,341 L64,330 L74,314 L80,302 L88,291 L98,276 L104,265 L109,252 L111,244 L114,236 L118,215 L120,187 L118,166 L114,153 L106,138 L100,129 L93,121 L81,108 L68,98 L58,92 L56,91 L50,91 L48,96 L43,95 L45,89 L43,88 L32,88 L16,85 L6,86 L-9,89 L-18,90 L-36,98 L-45,103 L-50,108 L-61,119 L-68,128 L-72,134 L-79,154 L-83,167 L-87,194 L-91,202 L-99,207 L-110,207 L-113,208 L-144,208 L-156,207 L-162,203 L-165,195 L-166,188 L-166,169 L-164,149 L-159,134 L-156,121 L-148,105 L-137,84 L-128,73 L-120,61 L-110,51 L-105,46 L-95,37 L-80,27 L-63,18 L-50,13 L-38,8 L-19,4 L-2,1 Z " fill="#000000" transform="translate(493,48)"/>
<path d="M0,0 L2,1 L2,6 L0,7 Z " fill="#000000" transform="translate(0,51)"/>
<path d="M0,0 L2,0 L2,15 L0,16 Z " fill="#000000" transform="translate(0,64)"/>
<path d="M0,0 L2,1 L2,9 L0,11 Z " fill="#000000" transform="translate(0,91)"/>
<path d="M0,0 L2,2 L3,8 L3,186 L4,354 L4,432 L5,509 L5,581 L6,594 L6,678 L7,814 L7,873 L8,890 L11,897 L0,897 Z " fill="#000000" transform="translate(0,105)"/>
<path d="M0,0 L1,0 L1,38 L-1,37 L-1,1 Z " fill="#000000" transform="translate(1013,281)"/>
<path d="M0,0 L1,0 L1,26 L-1,22 L-1,1 Z " fill="#000000" transform="translate(1013,332)"/>
<path d="M0,0 L1,0 L1,18 L-1,17 L-1,2 Z " fill="#000000" transform="translate(1013,372)"/>
<path d="M0,0 Z " fill="#000000" transform="translate(1013,462)"/>
<path d="M0,0 L1,0 L1,14 L0,14 Z " fill="#000000" transform="translate(1013,477)"/>
<path d="M0,0 L1,4 Z " fill="#000000" transform="translate(1013,495)"/>
<path d="M0,0 L1,0 L1,8 L0,8 Z " fill="#000000" transform="translate(1013,500)"/>
<path d="M0,0 L1,0 L1,15 L-1,13 L-1,2 Z " fill="#000000" transform="translate(1013,518)"/>
<path d="M0,0 L15,0 L27,5 L41,17 L48,26 L55,38 L58,48 L58,65 L55,76 L50,86 L41,97 L37,102 L27,107 L14,112 L2,112 L-15,110 L-25,104 L-32,99 L-37,94 L-42,88 L-47,80 L-49,72 L-50,49 L-47,36 L-38,25 L-27,13 L-14,4 Z " fill="#000000" transform="translate(509,832)"/>
<path d="M0,0 L2,0 L2,13 L-4,13 L-9,12 L-10,13 L-24,13 L-25,12 L-34,12 L-35,13 L-84,13 L-89,12 L-91,13 L-769,13 L-768,11 L-762,10 L-725,10 L-692,9 L-623,8 L-599,7 L-560,8 L-554,7 L-539,7 L-531,8 L-522,7 L-446,7 L-422,6 L-387,6 L-365,5 L-339,5 L-320,4 L-311,5 L-221,3 L-181,3 L-176,2 L-40,2 L-2,1 Z " fill="#000000" transform="translate(1012,989)"/>
<path d="M0,0 L7,0 L8,2 L-1,2 Z " fill="#000000" transform="translate(140,1000)"/>
<path d="M0,0 L22,0 L23,2 L-1,2 Z " fill="#000000" transform="translate(172,1000)"/>
</svg>
