<?xml version="1.0" encoding="UTF-8"?>
<!-- Generator: visioncortex VTracer 0.6.12 -->
<svg version="1.1" xmlns="http://www.w3.org/2000/svg" width="996" height="1011">
<path d="M0,0 L418,0 L418,2 L410,3 L383,2 L353,3 L234,4 L164,5 L116,6 L39,7 L32,9 L23,9 L6,11 L-16,19 L-30,27 L-39,33 L-53,43 L-58,47 L-67,58 L-77,71 L-83,83 L-88,98 L-90,98 L-90,71 L-84,62 L-77,53 L-69,43 L-64,39 L-59,33 L-47,25 L-37,18 L-21,9 L-15,6 L-8,4 Z " fill="#000000" transform="translate(90,0)"/>
<path d="M0,0 L13,0 L11,2 L1,2 Z " fill="#000000" transform="translate(524,0)"/>
<path d="M0,0 L36,0 L36,2 L42,3 L54,10 L61,17 L69,24 L75,29 L82,37 L91,51 L97,62 L102,77 L103,79 L103,442 L102,442 L101,431 L101,415 L100,411 L100,354 L99,195 L98,104 L95,85 L91,75 L88,66 L82,54 L74,43 L65,32 L48,19 L37,12 L22,6 L2,2 Z " fill="#000000" transform="translate(893,0)"/>
<path d="M0,0 L5,1 L4,4 L0,4 Z " fill="#000000" transform="translate(283,57)"/>
<path d="M0,0 L14,0 L38,1 L61,3 L74,5 L96,9 L109,12 L132,19 L152,26 L172,34 L202,49 L209,53 L218,60 L224,63 L233,69 L242,76 L258,88 L265,93 L270,98 L277,104 L282,109 L286,114 L294,121 L301,129 L305,134 L312,142 L320,153 L328,164 L336,177 L342,186 L349,200 L359,219 L364,231 L369,241 L375,258 L381,279 L387,304 L390,320 L393,348 L394,370 L394,401 L390,440 L383,472 L375,499 L368,519 L361,534 L358,541 L354,550 L345,566 L335,583 L324,599 L318,607 L310,618 L298,631 L291,639 L269,661 L260,668 L250,676 L235,687 L216,700 L201,708 L190,714 L171,724 L156,730 L148,733 L135,738 L123,742 L109,746 L85,751 L68,754 L38,757 L11,758 L-16,756 L-26,756 L-46,752 L-65,748 L-75,746 L-99,739 L-124,730 L-137,724 L-151,718 L-163,711 L-173,706 L-189,696 L-204,686 L-216,677 L-227,668 L-236,660 L-244,653 L-253,645 L-257,640 L-262,635 L-269,627 L-279,616 L-286,607 L-294,595 L-304,581 L-311,569 L-322,549 L-327,539 L-331,529 L-339,510 L-348,483 L-355,455 L-360,424 L-362,393 L-362,375 L-360,339 L-358,325 L-355,306 L-351,289 L-347,274 L-342,258 L-336,241 L-332,231 L-328,223 L-324,213 L-315,196 L-303,176 L-294,163 L-287,153 L-275,139 L-268,129 L-251,112 L-246,106 L-235,97 L-222,85 L-211,77 L-204,71 L-186,60 L-176,53 L-164,47 L-145,37 L-129,30 L-121,26 L-106,21 L-90,16 L-80,13 L-61,8 L-24,2 Z M2,85 L-29,88 L-38,90 L-56,94 L-64,96 L-82,102 L-95,107 L-115,115 L-135,126 L-146,133 L-151,137 L-157,141 L-168,149 L-176,156 L-181,160 L-186,165 L-191,170 L-207,186 L-214,195 L-227,212 L-235,225 L-243,238 L-251,255 L-255,263 L-259,273 L-263,283 L-270,307 L-276,336 L-278,349 L-279,361 L-279,399 L-276,426 L-271,450 L-267,465 L-263,476 L-257,492 L-244,520 L-238,529 L-233,538 L-226,548 L-217,560 L-208,571 L-197,583 L-190,591 L-182,598 L-171,608 L-165,612 L-157,618 L-148,624 L-138,631 L-126,638 L-110,646 L-98,651 L-88,655 L-73,661 L-71,662 L-58,664 L-52,666 L-30,671 L-10,673 L-3,674 L38,674 L55,672 L58,671 L69,670 L85,666 L100,663 L108,660 L127,653 L157,639 L167,633 L182,624 L187,620 L199,612 L210,602 L218,595 L229,584 L233,579 L238,574 L245,567 L256,552 L270,531 L274,524 L282,509 L289,492 L293,483 L300,465 L302,455 L308,428 L311,401 L312,371 L309,339 L305,318 L301,301 L298,292 L296,284 L289,267 L286,260 L281,249 L272,232 L264,219 L258,210 L248,197 L240,187 L228,174 L213,159 L200,149 L190,141 L178,132 L164,124 L150,116 L134,109 L119,103 L107,99 L95,95 L81,92 L71,90 L69,89 L45,86 L21,85 Z M370,403 L370,406 L373,406 L372,403 Z " fill="#000000" transform="translate(483,121)"/>
<path d="M0,0 L34,0 L59,4 L73,8 L91,15 L108,24 L119,32 L132,42 L142,51 L149,59 L155,66 L163,79 L173,98 L179,120 L182,148 L181,163 L178,176 L174,192 L166,208 L162,214 L156,223 L147,233 L141,240 L130,249 L122,255 L108,265 L101,269 L95,274 L89,278 L83,283 L74,294 L71,299 L68,308 L66,328 L66,379 L64,384 L61,386 L47,387 L-14,387 L-16,385 L-17,381 L-18,336 L-18,294 L-16,268 L-11,255 L-5,245 L6,233 L21,222 L30,216 L51,203 L58,197 L68,190 L75,184 L85,170 L89,161 L91,150 L91,141 L89,127 L87,120 L80,108 L73,101 L58,92 L49,89 L32,85 L12,85 L-3,87 L-23,95 L-31,100 L-33,100 L-35,104 L-42,112 L-49,122 L-54,137 L-57,163 L-58,191 L-60,195 L-62,196 L-137,196 L-141,192 L-141,165 L-139,139 L-134,114 L-128,98 L-123,87 L-119,79 L-108,62 L-97,50 L-90,42 L-77,30 L-63,21 L-53,15 L-36,8 L-30,5 L-18,2 Z " fill="#000000" transform="translate(478,248)"/>
<path d="M0,0 L1,0 L1,40 L0,40 L-1,26 L-1,3 Z " fill="#000000" transform="translate(995,447)"/>
<path d="M0,0 Z " fill="#000000" transform="translate(0,457)"/>
<path d="M0,0 L2,1 L2,9 L0,12 Z " fill="#000000" transform="translate(0,467)"/>
<path d="M0,0 L2,4 L3,31 L3,78 L4,264 L4,304 L5,365 L7,394 L10,419 L17,445 L23,461 L32,477 L41,487 L41,489 L45,491 L54,499 L60,502 L65,506 L75,511 L90,516 L95,518 L105,519 L107,521 L70,521 L65,518 L52,510 L41,501 L35,496 L28,488 L20,477 L11,458 L5,440 L1,425 L0,424 Z " fill="#000000" transform="translate(0,490)"/>
<path d="M0,0 L1,0 L1,10 L-1,9 L-1,2 Z " fill="#000000" transform="translate(995,494)"/>
<path d="M0,0 L13,2 L15,10 L16,54 L16,82 L14,87 L8,88 L-25,89 L-60,89 L-65,86 L-66,85 L-67,76 L-67,4 L-64,2 L-38,1 L-20,1 Z " fill="#000000" transform="translate(529,666)"/>
<path d="M0,0 L2,0 L2,25 L-4,34 L-10,43 L-23,58 L-35,68 L-50,78 L-66,86 L-74,89 L-89,92 L-91,93 L-691,93 L-688,91 L-628,90 L-573,89 L-456,88 L-385,88 L-342,87 L-235,86 L-159,85 L-115,84 L-96,83 L-78,80 L-71,77 L-62,73 L-53,68 L-43,62 L-38,57 L-35,54 L-29,51 L-18,39 L-7,21 L-2,7 Z " fill="#000000" transform="translate(994,918)"/>
<path d="M0,0 L15,0 L18,2 L-3,2 Z " fill="#000000" transform="translate(264,1009)"/>
</svg>
