<?xml version="1.0" encoding="UTF-8"?>
<!-- Generator: visioncortex VTracer 0.6.12 -->
<svg version="1.1" xmlns="http://www.w3.org/2000/svg" width="1194" height="1215">
<path d="M0,0 L9,1 L30,0 L53,0 L56,1 L86,3 L112,10 L115,12 L124,14 L134,19 L145,23 L155,28 L160,31 L170,37 L176,41 L180,45 L188,49 L196,56 L202,59 L206,64 L213,70 L217,75 L222,80 L226,85 L230,89 L235,93 L243,108 L250,116 L261,137 L264,146 L271,161 L274,174 L277,183 L280,193 L282,208 L285,231 L285,248 L286,268 L286,319 L287,360 L288,377 L288,457 L289,470 L289,492 L290,563 L291,567 L291,634 L292,644 L292,665 L293,690 L293,713 L294,748 L294,769 L295,776 L296,803 L295,820 L296,908 L294,933 L291,951 L288,962 L283,978 L276,997 L265,1018 L259,1028 L250,1042 L244,1050 L237,1058 L229,1067 L227,1067 L225,1071 L217,1079 L215,1079 L213,1083 L204,1090 L197,1096 L184,1104 L173,1111 L166,1113 L161,1117 L135,1128 L123,1131 L116,1135 L100,1137 L98,1138 L71,1141 L44,1142 L21,1142 L15,1143 L10,1142 L7,1143 L-45,1143 L-55,1142 L-59,1143 L-108,1143 L-122,1144 L-251,1144 L-266,1145 L-279,1145 L-281,1142 L-281,1135 L-284,1134 L-287,1145 L-350,1146 L-368,1146 L-383,1147 L-388,1146 L-400,1146 L-419,1147 L-452,1147 L-511,1148 L-539,1147 L-549,1148 L-590,1147 L-598,1147 L-601,1146 L-611,1146 L-626,1143 L-637,1142 L-640,1140 L-658,1135 L-664,1133 L-671,1130 L-685,1124 L-703,1114 L-717,1106 L-726,1098 L-737,1090 L-743,1083 L-750,1075 L-756,1070 L-763,1061 L-768,1055 L-774,1047 L-779,1041 L-785,1029 L-791,1019 L-800,1000 L-804,987 L-808,979 L-812,963 L-817,934 L-818,930 L-819,914 L-821,842 L-821,810 L-822,723 L-823,718 L-822,697 L-823,671 L-824,612 L-825,592 L-825,507 L-826,450 L-828,331 L-829,319 L-829,238 L-827,214 L-825,207 L-823,195 L-818,179 L-814,167 L-811,157 L-804,145 L-800,135 L-794,126 L-785,111 L-779,103 L-774,95 L-764,86 L-755,76 L-747,69 L-740,63 L-729,54 L-716,46 L-708,41 L-692,33 L-683,28 L-675,25 L-667,21 L-654,20 L-648,16 L-635,15 L-626,12 L-618,12 L-609,11 L-594,11 L-580,10 L-575,9 L-563,10 L-552,9 L-549,10 L-498,10 L-484,8 L-468,9 L-458,8 L-449,7 L-445,8 L-431,9 L-407,9 L-403,7 L-389,7 L-387,6 L-381,6 L-379,7 L-369,8 L-341,8 L-324,9 L-318,7 L-306,7 L-267,5 L-258,6 L-234,5 L-223,5 L-220,4 L-210,4 L-208,6 L-200,5 L-195,4 L-155,3 L-140,3 L-136,1 L-129,2 L-118,3 L-89,3 L-81,2 L-71,2 L-68,3 L-59,3 L-54,1 L-37,2 L-6,2 Z M-287,209 L-297,210 L-310,212 L-328,216 L-343,220 L-358,225 L-378,234 L-390,240 L-397,244 L-407,251 L-421,260 L-426,265 L-433,270 L-436,273 L-444,280 L-455,290 L-464,301 L-470,309 L-480,323 L-486,333 L-493,344 L-503,368 L-513,399 L-516,412 L-520,432 L-520,457 L-517,465 L-512,468 L-492,468 L-489,469 L-482,469 L-476,467 L-454,467 L-439,468 L-419,468 L-406,467 L-401,469 L-384,468 L-378,464 L-376,462 L-373,446 L-371,442 L-369,434 L-363,416 L-354,402 L-346,392 L-341,387 L-330,378 L-323,376 L-318,370 L-304,365 L-294,360 L-284,361 L-281,359 L-270,358 L-257,358 L-253,360 L-241,361 L-218,372 L-211,377 L-203,380 L-196,388 L-186,400 L-182,404 L-173,420 L-168,438 L-165,449 L-165,472 L-166,483 L-172,503 L-177,513 L-184,524 L-189,529 L-196,537 L-207,546 L-215,553 L-224,559 L-237,567 L-257,578 L-267,585 L-279,592 L-286,599 L-297,608 L-308,617 L-312,623 L-322,634 L-331,651 L-335,661 L-340,690 L-341,727 L-341,771 L-340,779 L-335,783 L-324,785 L-322,786 L-295,786 L-289,785 L-281,785 L-279,786 L-241,786 L-236,788 L-228,789 L-223,791 L-216,786 L-204,786 L-198,782 L-197,780 L-196,766 L-195,727 L-195,719 L-192,707 L-187,697 L-182,690 L-172,682 L-162,672 L-153,666 L-143,659 L-139,656 L-130,652 L-120,645 L-110,638 L-102,631 L-96,627 L-89,619 L-81,614 L-76,609 L-66,599 L-62,594 L-59,589 L-54,583 L-46,573 L-38,561 L-32,548 L-27,534 L-23,518 L-20,501 L-18,487 L-18,457 L-20,426 L-24,403 L-29,389 L-32,379 L-36,366 L-40,359 L-43,352 L-48,342 L-52,335 L-58,326 L-62,318 L-73,305 L-82,293 L-89,286 L-95,279 L-100,274 L-110,265 L-117,259 L-132,249 L-140,245 L-145,241 L-156,235 L-161,232 L-175,227 L-184,224 L-193,220 L-214,215 L-215,214 L-233,211 L-252,210 Z M-317,823 L-334,824 L-339,827 L-340,830 L-341,858 L-341,886 L-340,901 L-341,912 L-341,955 L-338,964 L-333,966 L-325,968 L-319,968 L-318,967 L-298,967 L-291,968 L-235,968 L-228,967 L-221,968 L-217,967 L-203,966 L-198,963 L-196,944 L-196,831 L-198,826 L-200,824 L-207,823 L-248,823 L-255,824 L-291,823 Z " fill="#000000" transform="translate(866,35)"/>
</svg>
