<?xml version="1.0" encoding="UTF-8"?>
<!-- Generator: visioncortex VTracer 0.6.12 -->
<svg version="1.1" xmlns="http://www.w3.org/2000/svg" width="1140" height="1143">
<path d="M0,0 L309,0 L309,5 L305,7 L244,6 L165,4 L53,4 L20,6 L13,9 L11,16 L10,25 L9,83 L8,121 L7,196 L7,611 L4,754 L3,815 L2,843 L1,848 L0,848 Z " fill="#000000" transform="translate(0,0)"/>
<path d="M0,0 L826,0 L826,487 L824,487 L824,490 L826,490 L826,801 L825,803 L824,856 L823,964 L821,1020 L820,1106 L817,1143 L803,1143 L805,1138 L807,1128 L808,1109 L809,1067 L811,962 L811,924 L812,887 L813,806 L814,757 L817,753 L815,749 L814,747 L814,679 L815,655 L817,470 L819,350 L819,308 L820,181 L822,59 L822,42 L821,22 L819,15 L812,12 L727,10 L707,10 L668,9 L629,9 L550,10 L339,10 L270,9 L175,8 L124,8 L42,7 L2,6 L0,3 Z " fill="#000000" transform="translate(314,0)"/>
<path d="M0,0 L2,0 L1,5 L-7,16 L-14,26 L-23,38 L-26,43 L-36,57 L-49,76 L-57,87 L-65,98 L-73,109 L-85,126 L-99,145 L-111,162 L-121,176 L-131,189 L-137,198 L-139,203 L-139,210 L-135,214 L-113,223 L-76,235 L-71,237 L-63,239 L-53,243 L-36,248 L-19,254 L-14,258 L-12,261 L-9,272 L-4,299 L1,323 L8,357 L12,372 L14,382 L20,391 L25,394 L55,404 L64,408 L72,410 L96,419 L101,424 L102,428 L98,442 L94,453 L91,462 L79,498 L73,516 L70,525 L67,532 L62,549 L53,575 L47,593 L38,619 L31,640 L24,660 L17,681 L11,698 L2,725 L-4,742 L-7,752 L-15,771 L-19,773 L-28,771 L-50,763 L-65,758 L-80,753 L-105,745 L-117,741 L-144,732 L-162,726 L-183,719 L-206,711 L-244,698 L-280,686 L-307,677 L-330,671 L-337,671 L-357,680 L-365,685 L-376,691 L-393,700 L-412,711 L-430,721 L-440,727 L-451,733 L-468,742 L-487,752 L-501,761 L-504,765 L-504,773 L-498,784 L-486,801 L-476,816 L-474,821 L-478,825 L-491,824 L-527,819 L-530,818 L-554,815 L-570,811 L-573,809 L-573,792 L-569,767 L-565,746 L-561,721 L-558,709 L-553,708 L-546,717 L-536,730 L-526,744 L-520,752 L-513,756 L-509,755 L-501,750 L-494,744 L-486,737 L-479,730 L-470,723 L-465,718 L-459,713 L-454,708 L-443,697 L-435,690 L-423,679 L-421,679 L-419,675 L-412,667 L-405,662 L-401,656 L-401,649 L-406,644 L-422,638 L-433,634 L-458,625 L-488,615 L-503,610 L-524,603 L-550,594 L-569,587 L-578,584 L-611,573 L-640,563 L-658,557 L-671,552 L-675,547 L-675,540 L-671,529 L-665,513 L-658,491 L-650,468 L-642,444 L-635,424 L-628,405 L-621,384 L-611,355 L-602,330 L-598,320 L-595,311 L-583,276 L-576,255 L-569,235 L-562,214 L-558,204 L-554,199 L-545,200 L-536,204 L-527,206 L-517,210 L-477,223 L-469,223 L-460,218 L-447,207 L-433,196 L-420,184 L-412,177 L-400,166 L-389,157 L-379,148 L-371,141 L-364,138 L-355,140 L-345,144 L-332,148 L-321,152 L-287,164 L-265,171 L-229,183 L-216,188 L-205,191 L-196,193 L-187,192 L-178,185 L-167,173 L-151,157 L-144,149 L-126,131 L-119,123 L-112,116 L-107,111 L-93,96 L-88,91 L-79,82 L-72,74 L-59,61 L-52,53 L-43,43 L-38,38 L-28,28 L-21,20 L-16,15 L-2,1 Z M-365,150 L-371,153 L-385,164 L-399,176 L-409,185 L-416,190 L-421,195 L-434,207 L-442,214 L-452,223 L-460,230 L-464,233 L-471,233 L-487,227 L-503,222 L-517,217 L-535,211 L-544,210 L-549,213 L-553,218 L-560,236 L-570,264 L-581,297 L-591,325 L-597,340 L-603,358 L-607,371 L-616,397 L-624,419 L-631,442 L-636,454 L-646,485 L-649,494 L-655,510 L-660,523 L-662,531 L-661,539 L-657,544 L-652,547 L-631,554 L-599,565 L-575,573 L-557,579 L-538,586 L-522,591 L-511,595 L-502,598 L-495,601 L-477,606 L-459,613 L-437,620 L-427,624 L-408,631 L-389,637 L-382,637 L-372,632 L-362,624 L-357,619 L-346,608 L-338,601 L-326,590 L-312,577 L-308,571 L-308,565 L-310,562 L-316,560 L-363,557 L-415,555 L-441,553 L-488,551 L-510,550 L-520,548 L-519,543 L-508,530 L-482,504 L-475,496 L-446,467 L-439,459 L-424,444 L-417,436 L-405,423 L-400,418 L-400,416 L-397,415 L-390,407 L-380,397 L-376,392 L-371,387 L-357,373 L-350,365 L-330,345 L-323,337 L-311,325 L-304,317 L-297,311 L-290,303 L-273,286 L-266,278 L-259,270 L-253,265 L-247,258 L-241,253 L-234,245 L-225,235 L-220,231 L-211,220 L-205,213 L-204,206 L-209,200 L-221,195 L-244,187 L-253,184 L-265,181 L-279,175 L-297,169 L-319,162 L-343,154 L-356,150 Z M-151,222 L-160,228 L-173,246 L-180,256 L-191,271 L-195,277 L-202,286 L-212,301 L-220,311 L-229,324 L-240,338 L-252,355 L-262,369 L-272,383 L-284,400 L-291,410 L-301,425 L-310,437 L-324,458 L-325,465 L-323,470 L-315,475 L-301,481 L-260,495 L-241,502 L-233,504 L-224,508 L-209,513 L-185,521 L-174,525 L-155,532 L-140,537 L-128,542 L-122,544 L-124,549 L-134,556 L-145,562 L-166,574 L-174,578 L-187,586 L-217,602 L-239,614 L-244,618 L-260,626 L-272,633 L-283,639 L-290,643 L-302,650 L-306,654 L-307,660 L-302,666 L-285,673 L-267,679 L-258,682 L-225,693 L-200,701 L-188,706 L-155,717 L-140,722 L-111,732 L-101,736 L-87,740 L-74,745 L-66,747 L-52,752 L-43,755 L-37,757 L-25,757 L-19,750 L-13,735 L-4,708 L1,692 L5,682 L12,662 L21,636 L23,628 L30,609 L38,585 L42,574 L46,561 L56,532 L62,514 L66,503 L69,494 L75,476 L79,462 L82,453 L87,437 L86,429 L82,423 L71,418 L57,413 L37,406 L24,402 L12,398 L4,393 L1,387 L-4,364 L-11,335 L-17,306 L-22,285 L-26,270 L-30,264 L-35,260 L-53,253 L-86,242 L-102,236 L-113,232 L-126,228 L-139,223 Z " fill="#000000" transform="translate(834,125)"/>
<path d="M0,0 L2,0 L2,2 L0,2 Z " fill="#000000" transform="translate(1066,157)"/>
<path d="M0,0 L6,0 L19,5 L37,9 L48,14 L60,17 L65,20 L75,25 L83,31 L83,33 L77,33 L67,29 L49,23 L31,18 L2,7 L-1,4 Z " fill="#000000" transform="translate(357,411)"/>
<path d="M0,0 L6,1 L18,6 L27,8 L42,14 L59,19 L74,25 L80,28 L81,33 L75,32 L58,26 L36,19 L27,16 L15,13 L-1,6 L-2,3 Z " fill="#000000" transform="translate(335,450)"/>
<path d="M0,0 L6,1 L15,5 L23,9 L24,13 L17,12 L3,7 L-2,2 Z " fill="#000000" transform="translate(317,491)"/>
<path d="M0,0 L5,1 L15,5 L32,10 L47,16 L65,22 L74,25 L89,31 L90,35 L86,36 L54,25 L39,19 L25,15 L-1,6 L-2,2 Z " fill="#000000" transform="translate(641,507)"/>
<path d="M0,0 L7,1 L20,5 L25,10 L24,14 L19,14 L10,10 L-1,5 Z " fill="#000000" transform="translate(382,514)"/>
<path d="M0,0 L5,1 L23,7 L33,12 L34,14 L33,16 L25,15 L18,12 L-1,5 Z " fill="#000000" transform="translate(602,543)"/>
<path d="M0,0 L6,1 L18,5 L26,9 L42,14 L48,17 L47,21 L41,20 L20,13 L-1,4 Z " fill="#000000" transform="translate(790,560)"/>
<path d="M0,0 L5,0 L15,4 L26,8 L38,12 L48,17 L49,21 L44,21 L42,19 L28,15 L19,12 L2,5 L0,3 Z " fill="#000000" transform="translate(688,573)"/>
<path d="M0,0 L6,0 L12,3 L20,5 L30,9 L46,13 L50,16 L49,20 L44,24 L37,23 L24,17 L14,13 L9,10 L0,6 L-1,1 Z " fill="#000000" transform="translate(283,578)"/>
<path d="M0,0 L5,1 L25,8 L48,16 L68,24 L82,29 L87,32 L86,36 L80,35 L54,26 L43,21 L30,17 L15,12 L2,7 L-1,5 Z " fill="#000000" transform="translate(594,586)"/>
<path d="M0,0 L16,4 L23,7 L39,11 L43,13 L44,16 L42,18 L33,17 L14,11 L1,6 L-1,4 Z " fill="#000000" transform="translate(779,607)"/>
<path d="M0,0 L5,1 L11,4 L20,7 L43,14 L49,16 L65,21 L67,25 L66,27 L56,26 L43,22 L36,19 L26,16 L8,9 L-1,3 Z " fill="#000000" transform="translate(716,736)"/>
<path d="M0,0 L2,2 L3,18 L5,27 L10,30 L23,31 L139,33 L201,34 L327,35 L379,36 L404,36 L463,37 L533,38 L586,39 L645,40 L766,41 L811,42 L812,44 L122,44 L120,43 L92,43 L71,42 L45,42 L0,41 Z " fill="#000000" transform="translate(0,1099)"/>
<path d="M0,0 L2,1 Z " fill="#000000" transform="translate(842,1142)"/>
</svg>
