<?xml version="1.0" encoding="UTF-8"?>
<!-- Generator: visioncortex VTracer 0.6.12 -->
<svg version="1.1" xmlns="http://www.w3.org/2000/svg" width="1014" height="1005">
<path d="M0,0 L5,0 L10,2 L25,1 L27,0 L623,0 L620,3 L589,3 L543,4 L508,4 L468,5 L454,4 L442,5 L395,6 L368,6 L308,7 L269,7 L246,8 L226,8 L219,9 L190,10 L162,10 L140,11 L122,10 L113,12 L90,11 L82,12 L54,12 L32,13 L-30,13 L-45,14 L-54,13 L-67,13 L-123,15 L-182,16 L-207,16 L-250,17 L-259,18 L-271,19 L-273,30 L-273,47 L-272,68 L-271,151 L-271,224 L-270,246 L-269,299 L-268,384 L-267,430 L-267,471 L-266,501 L-266,530 L-265,575 L-267,579 L-273,580 L-270,586 L-266,590 L-265,594 L-264,633 L-263,677 L-263,698 L-261,828 L-260,874 L-260,915 L-259,997 L-257,1002 L-255,1005 L-272,1005 L-273,1003 L-274,994 L-274,944 L-275,920 L-275,875 L-276,795 L-276,773 L-277,747 L-278,741 L-277,739 L-277,714 L-278,704 L-278,581 L-276,581 L-276,579 L-278,579 L-278,6 L-205,5 L-150,4 L-112,4 L-107,3 L-67,3 L-45,2 L0,2 Z " fill="#000000" transform="translate(278,0)"/>
<path d="M0,0 L6,0 L5,2 L0,1 Z " fill="#000000" transform="translate(906,0)"/>
<path d="M0,0 L18,0 L19,21 L19,54 L21,177 L22,182 L22,917 L20,915 L19,906 L19,883 L18,767 L18,745 L17,719 L17,687 L15,590 L15,557 L14,546 L14,527 L13,478 L13,456 L12,412 L12,380 L11,307 L10,286 L10,267 L9,223 L9,199 L8,168 L8,149 L6,68 L6,38 L5,17 L3,4 L0,2 Z " fill="#000000" transform="translate(992,0)"/>
<path d="M0,0 L9,0 L25,3 L36,4 L49,7 L61,10 L72,14 L76,16 L85,18 L94,22 L116,32 L129,39 L135,43 L142,46 L153,53 L164,61 L174,68 L184,76 L198,86 L204,93 L212,100 L225,114 L231,122 L238,128 L245,139 L253,149 L261,161 L268,172 L278,190 L287,209 L292,222 L297,236 L302,254 L305,262 L311,296 L313,317 L314,323 L314,370 L311,398 L309,406 L307,419 L299,450 L289,477 L284,489 L276,505 L270,517 L263,528 L258,535 L254,542 L245,554 L240,561 L237,564 L231,573 L220,585 L213,594 L207,599 L203,603 L195,610 L189,614 L183,621 L172,629 L162,636 L145,647 L136,653 L117,662 L101,670 L85,677 L75,681 L67,683 L60,686 L47,689 L13,696 L10,697 L-14,699 L-17,700 L-30,701 L-59,700 L-68,700 L-73,699 L-80,699 L-82,698 L-100,696 L-106,694 L-122,691 L-131,688 L-140,686 L-150,683 L-159,680 L-174,674 L-190,667 L-202,661 L-209,657 L-227,647 L-236,640 L-252,630 L-256,625 L-265,618 L-277,607 L-285,600 L-297,588 L-304,580 L-312,572 L-319,561 L-329,548 L-337,536 L-343,525 L-349,515 L-357,500 L-362,489 L-373,462 L-378,444 L-382,430 L-386,410 L-391,379 L-392,338 L-391,316 L-389,298 L-386,280 L-383,269 L-381,257 L-370,224 L-362,204 L-355,188 L-352,184 L-348,175 L-338,158 L-329,145 L-321,135 L-317,129 L-314,128 L-312,123 L-302,112 L-295,104 L-287,97 L-281,90 L-272,83 L-261,74 L-250,64 L-240,57 L-231,51 L-219,44 L-207,36 L-188,27 L-181,25 L-169,19 L-149,13 L-137,9 L-124,6 L-108,3 L-88,2 L-87,5 L-101,13 L-108,18 L-114,21 L-121,29 L-129,36 L-135,44 L-139,49 L-147,63 L-153,75 L-157,86 L-159,95 L-161,112 L-161,134 L-158,149 L-152,166 L-143,183 L-132,198 L-122,208 L-117,213 L-111,218 L-98,226 L-84,232 L-81,235 L-65,238 L-52,240 L-36,240 L-19,239 L-6,236 L9,230 L24,222 L36,214 L47,204 L52,199 L59,189 L66,178 L70,170 L76,154 L80,136 L80,112 L79,99 L72,76 L64,59 L56,47 L44,33 L34,24 L19,13 L0,4 L-1,1 Z M-51,258 L-96,259 L-120,259 L-134,260 L-157,260 L-181,261 L-184,264 L-186,273 L-186,284 L-184,293 L-179,296 L-139,298 L-130,301 L-125,308 L-123,315 L-122,347 L-120,511 L-119,539 L-119,568 L-122,575 L-126,580 L-133,583 L-164,584 L-180,585 L-184,589 L-185,596 L-185,609 L-184,620 L-181,624 L-171,625 L-124,625 L-56,624 L-23,624 L27,623 L66,623 L73,622 L79,623 L83,622 L96,622 L121,621 L129,620 L133,616 L134,603 L133,589 L129,583 L126,581 L86,581 L78,579 L73,574 L70,565 L70,537 L69,525 L69,466 L68,316 L67,271 L66,262 L60,258 Z " fill="#000000" transform="translate(541,57)"/>
<path d="M0,0 L16,1 L19,5 L19,111 L16,119 L12,122 L-8,122 L-13,118 L-21,97 L-24,88 L-28,87 L-29,113 L-31,120 L-36,123 L-41,124 L-52,121 L-54,116 L-55,108 L-56,27 L-55,13 L-52,4 L-46,1 L-30,1 L-24,3 L-20,9 L-13,29 L-9,29 L-8,14 L-5,3 Z " fill="#000000" transform="translate(908,800)"/>
<path d="M0,0 L3,0 L3,3 L0,3 Z " fill="#000000" transform="translate(63,802)"/>
<path d="M0,0 L10,0 L21,4 L30,10 L37,18 L39,27 L40,68 L39,94 L36,105 L29,113 L22,119 L7,123 L-4,123 L-15,120 L-25,113 L-32,103 L-34,91 L-34,26 L-31,18 L-27,12 L-21,7 L-12,2 Z M0,23 L-6,28 L-7,31 L-7,82 L-4,94 L1,98 L7,97 L11,93 L12,89 L13,43 L10,27 L2,23 Z " fill="#000000" transform="translate(800,802)"/>
<path d="M0,0 L30,0 L35,6 L38,16 L41,31 L45,61 L50,91 L52,105 L52,122 L49,124 L36,124 L29,121 L23,111 L15,109 L9,110 L5,114 L-1,123 L-7,126 L-16,126 L-21,123 L-23,117 L-22,107 L-19,80 L-16,61 L-13,33 L-10,13 L-6,3 Z M13,59 L10,64 L9,79 L11,84 L16,85 L19,83 L19,65 L16,59 Z " fill="#000000" transform="translate(593,804)"/>
<path d="M0,0 L22,0 L31,1 L34,3 L36,15 L35,24 L33,26 L22,28 L19,30 L18,33 L17,117 L14,122 L11,124 L-6,123 L-9,120 L-10,117 L-11,87 L-11,63 L-12,37 L-15,30 L-25,28 L-31,27 L-34,23 L-34,6 L-30,2 L-28,1 Z " fill="#000000" transform="translate(679,803)"/>
<path d="M0,0 L8,0 L13,5 L14,8 L15,20 L15,111 L13,120 L9,123 L-6,123 L-12,120 L-14,111 L-15,9 L-12,3 L-10,1 Z " fill="#000000" transform="translate(738,803)"/>
<path d="M0,0 L22,0 L26,5 L27,11 L28,74 L28,115 L25,122 L23,123 L8,124 L3,121 L2,120 L0,109 L-1,94 L-5,95 L-10,113 L-14,121 L-18,124 L-24,123 L-28,118 L-33,102 L-36,93 L-36,91 L-40,92 L-41,113 L-43,122 L-46,125 L-60,125 L-65,122 L-67,119 L-68,88 L-68,62 L-69,36 L-68,7 L-66,3 L-56,1 L-46,1 L-38,2 L-34,6 L-31,13 L-27,26 L-24,38 L-19,37 L-16,28 L-8,6 L-4,1 Z " fill="#000000" transform="translate(529,806)"/>
<path d="M0,0 L38,0 L46,4 L55,13 L59,24 L59,53 L54,65 L55,70 L59,78 L60,84 L61,110 L59,119 L56,122 L40,123 L37,120 L35,115 L34,90 L31,85 L28,83 L21,84 L18,94 L17,117 L13,122 L11,123 L-4,124 L-7,120 L-8,117 L-10,82 L-10,6 L-7,2 Z M23,24 L18,27 L17,29 L17,51 L20,57 L28,58 L31,57 L33,54 L34,46 L34,32 L31,26 L28,24 Z " fill="#000000" transform="translate(385,809)"/>
<path d="M0,0 L19,1 L24,6 L29,19 L35,35 L36,42 L40,42 L42,24 L43,5 L45,2 L48,1 L63,1 L68,6 L69,63 L69,113 L68,121 L64,124 L50,124 L40,123 L35,118 L29,104 L26,97 L22,96 L21,118 L18,123 L14,125 L2,125 L-4,120 L-5,113 L-5,78 L-6,50 L-6,16 L-4,4 Z " fill="#000000" transform="translate(139,810)"/>
<path d="M0,0 L26,0 L43,1 L46,4 L48,9 L47,23 L42,26 L26,27 L22,30 L21,33 L21,47 L23,53 L26,54 L44,55 L48,58 L49,61 L49,73 L46,78 L43,80 L33,80 L24,82 L21,86 L20,95 L19,120 L16,123 L11,124 L3,124 L-4,122 L-5,121 L-7,92 L-7,23 L-6,6 L-4,2 Z " fill="#000000" transform="translate(230,810)"/>
<path d="M0,0 L16,0 L20,6 L21,18 L22,79 L21,115 L19,122 L13,124 L2,124 L-4,120 L-5,118 L-6,103 L-6,75 L-7,68 L-7,8 L-5,3 Z " fill="#000000" transform="translate(97,811)"/>
<path d="M0,0 L10,1 L14,0 L21,0 L29,3 L38,10 L45,21 L47,29 L48,64 L47,96 L43,107 L38,113 L30,119 L21,123 L4,123 L-5,121 L-16,114 L-21,107 L-24,94 L-25,75 L-25,25 L-22,15 L-15,7 L-4,1 Z M8,23 L2,28 L1,30 L1,88 L6,98 L8,99 L15,99 L21,94 L22,90 L22,51 L21,32 L17,25 L13,23 Z " fill="#000000" transform="translate(314,811)"/>
<path d="M0,0 L1,0 L1,12 L-1,8 L-1,2 Z " fill="#000000" transform="translate(1013,926)"/>
<path d="M0,0 L2,0 L2,23 L0,19 Z " fill="#000000" transform="translate(1012,947)"/>
<path d="M0,0 L1,0 L1,21 L-18,22 L-56,22 L-59,23 L-88,23 L-142,25 L-187,25 L-221,26 L-234,26 L-238,27 L-246,27 L-248,26 L-254,26 L-256,27 L-875,27 L-873,25 L-857,24 L-847,25 L-843,24 L-823,24 L-772,23 L-740,23 L-681,22 L-670,22 L-664,23 L-660,22 L-631,22 L-609,21 L-539,20 L-524,20 L-456,18 L-340,16 L-316,16 L-302,15 L-228,15 L-145,13 L-109,12 L-93,12 L-10,10 L-3,8 Z " fill="#000000" transform="translate(1013,978)"/>
<path d="M0,0 L5,0 L6,2 L0,2 Z " fill="#000000" transform="translate(97,1003)"/>
<path d="M0,0 L5,0 L5,1 L0,1 Z " fill="#000000" transform="translate(117,1004)"/>
<path d="M0,0 L4,1 Z " fill="#000000" transform="translate(130,1004)"/>
</svg>
