<?xml version="1.0" encoding="UTF-8"?>
<!-- Generator: visioncortex VTracer 0.6.12 -->
<svg version="1.1" xmlns="http://www.w3.org/2000/svg" width="1020" height="1017">
<path d="M0,0 L230,0 L241,4 L242,5 L251,7 L262,10 L274,13 L289,18 L307,25 L334,36 L353,46 L369,54 L377,58 L390,67 L405,76 L416,84 L424,90 L424,92 L429,94 L437,101 L447,109 L456,115 L466,125 L474,131 L479,138 L487,144 L492,149 L503,161 L510,170 L520,181 L526,189 L536,201 L545,215 L551,225 L561,240 L571,259 L577,270 L588,291 L594,307 L598,317 L604,332 L608,345 L608,353 L605,355 L604,358 L611,360 L614,365 L619,386 L621,392 L621,614 L619,614 L618,627 L613,642 L608,660 L602,679 L595,697 L591,708 L586,719 L578,736 L571,747 L566,758 L559,771 L554,779 L543,796 L536,806 L524,823 L515,834 L511,840 L506,846 L501,851 L494,859 L484,868 L477,876 L472,881 L465,889 L456,896 L445,905 L440,910 L429,918 L418,927 L406,935 L395,943 L384,950 L373,957 L365,961 L352,969 L340,974 L326,981 L314,986 L303,991 L291,995 L281,1000 L265,1005 L250,1009 L232,1014 L220,1016 L219,1017 L4,1017 L3,1016 L-13,1014 L-26,1010 L-40,1007 L-58,1002 L-66,998 L-74,995 L-87,991 L-101,985 L-119,977 L-127,973 L-134,969 L-150,961 L-165,953 L-175,946 L-186,939 L-194,933 L-200,929 L-211,920 L-217,916 L-228,908 L-236,901 L-236,899 L-240,897 L-250,887 L-258,880 L-274,864 L-274,862 L-278,860 L-289,847 L-296,839 L-304,828 L-313,817 L-322,804 L-328,795 L-334,786 L-342,772 L-348,760 L-360,738 L-363,733 L-366,726 L-369,721 L-373,708 L-377,698 L-384,677 L-387,671 L-391,657 L-393,652 L-395,640 L-398,629 L-399,628 L-399,397 L-395,388 L-390,365 L-380,335 L-376,327 L-370,311 L-360,288 L-352,275 L-344,259 L-337,246 L-332,236 L-326,228 L-320,218 L-312,208 L-306,198 L-297,187 L-286,173 L-274,159 L-266,150 L-256,142 L-250,134 L-242,127 L-234,120 L-222,109 L-213,102 L-201,93 L-188,83 L-180,78 L-166,68 L-146,57 L-127,47 L-117,42 L-103,35 L-85,27 L-77,24 L-60,19 L-53,16 L-41,13 L-25,8 L-18,6 L-9,3 L-1,1 Z M122,129 L84,130 L64,131 L48,133 L41,134 L36,136 L22,138 L8,142 L-20,151 L-41,160 L-60,170 L-81,181 L-85,184 L-92,184 L-95,192 L-106,200 L-121,214 L-128,220 L-139,234 L-149,247 L-159,265 L-163,271 L-169,284 L-175,301 L-180,312 L-186,336 L-188,357 L-188,383 L-184,388 L-179,390 L-107,390 L-70,389 L-53,388 L-50,385 L-47,370 L-44,354 L-40,340 L-33,324 L-29,318 L-19,304 L-10,295 L-5,290 L7,281 L30,269 L43,264 L56,260 L76,257 L107,257 L122,258 L129,261 L138,263 L161,273 L175,280 L184,287 L190,292 L198,299 L200,299 L200,301 L205,305 L211,313 L216,321 L224,338 L226,350 L226,367 L224,385 L214,415 L210,421 L207,427 L199,438 L191,447 L191,449 L187,451 L174,462 L166,468 L155,476 L145,483 L134,490 L121,498 L112,504 L101,512 L88,524 L79,533 L69,546 L57,565 L51,577 L46,591 L42,605 L39,625 L38,652 L38,685 L40,694 L43,697 L49,698 L94,698 L128,697 L157,697 L165,694 L168,691 L170,685 L170,658 L171,644 L174,627 L181,611 L187,602 L199,591 L207,585 L216,579 L224,573 L237,565 L246,559 L259,551 L268,547 L277,540 L295,529 L305,520 L313,514 L324,504 L331,495 L331,493 L335,491 L344,477 L351,467 L363,445 L369,430 L377,405 L380,388 L381,375 L381,346 L378,322 L371,295 L366,282 L359,267 L352,255 L343,241 L336,232 L323,219 L318,214 L307,203 L302,198 L293,192 L288,189 L283,185 L276,181 L266,174 L257,169 L242,161 L230,157 L215,150 L197,144 L185,141 L178,138 L167,136 L154,133 L142,132 L125,129 Z M552,748 L557,753 L561,751 L560,749 Z M72,777 L30,780 L25,785 L23,794 L23,810 L24,852 L24,883 L25,911 L27,920 L34,923 L42,924 L108,924 L146,923 L161,924 L173,921 L177,915 L178,902 L177,821 L175,785 L173,780 L169,777 Z " fill="#000000" transform="translate(399,0)"/>
</svg>
