<?xml version="1.0" encoding="UTF-8"?>
<!-- Generator: visioncortex VTracer 0.6.12 -->
<svg version="1.1" xmlns="http://www.w3.org/2000/svg" width="1005" height="993">
<path d="M0,0 L14,0 L18,1 L20,0 L700,0 L700,993 L644,993 L644,988 L645,987 L645,982 L642,979 L638,980 L629,988 L628,993 L-293,993 L-295,949 L-295,921 L-296,886 L-296,862 L-297,797 L-297,764 L-298,760 L-298,741 L-299,715 L-300,616 L-300,607 L-301,596 L-302,555 L-303,487 L-305,451 L-305,9 L-259,8 L-209,6 L-170,5 L-159,5 L-132,4 L-111,3 L-61,3 L-55,2 L-41,2 L-22,1 L-1,1 Z M554,30 L531,31 L505,31 L500,32 L431,32 L412,33 L365,33 L350,34 L294,35 L267,34 L258,35 L215,36 L208,37 L199,36 L177,36 L172,37 L143,37 L107,38 L67,39 L39,39 L8,40 L2,39 L-34,41 L-129,43 L-136,44 L-159,43 L-170,44 L-191,44 L-223,45 L-232,47 L-246,55 L-256,64 L-260,68 L-269,84 L-273,100 L-274,143 L-274,167 L-273,170 L-272,214 L-271,265 L-270,291 L-268,400 L-266,445 L-266,467 L-265,488 L-265,535 L-264,537 L-264,559 L-262,626 L-260,727 L-259,751 L-259,787 L-258,797 L-258,823 L-256,901 L-255,910 L-247,928 L-240,937 L-226,951 L-213,957 L-199,961 L-168,962 L-146,961 L-124,961 L-28,960 L55,959 L87,959 L90,958 L117,958 L220,957 L249,957 L279,956 L379,956 L401,955 L437,955 L451,954 L500,954 L561,953 L600,953 L615,950 L624,946 L635,940 L642,933 L647,929 L653,920 L658,910 L661,900 L662,891 L662,762 L661,731 L660,720 L660,641 L659,617 L659,572 L658,533 L658,484 L657,474 L657,435 L656,414 L656,354 L654,301 L654,232 L653,212 L652,128 L651,119 L650,96 L647,79 L643,66 L640,61 L632,49 L627,44 L613,35 L604,31 L602,30 Z " fill="#000000" transform="translate(305,0)"/>
<path d="M0,0 L21,0 L41,4 L56,9 L66,15 L73,19 L84,28 L90,37 L96,46 L102,57 L107,74 L108,80 L108,93 L105,110 L102,117 L96,128 L86,141 L81,145 L76,150 L68,156 L56,165 L48,172 L42,181 L40,185 L38,202 L34,206 L29,207 L6,207 L-9,206 L-15,202 L-16,201 L-16,177 L-13,164 L-7,153 L1,143 L9,137 L20,128 L34,116 L41,108 L46,98 L48,89 L47,78 L43,68 L34,58 L25,53 L16,50 L-5,50 L-18,54 L-28,61 L-35,68 L-40,78 L-45,94 L-48,97 L-85,98 L-94,97 L-98,93 L-99,90 L-99,83 L-96,72 L-93,61 L-85,45 L-76,34 L-71,28 L-65,24 L-56,17 L-42,9 L-25,4 L-13,1 Z " fill="#000000" transform="translate(511,110)"/>
<path d="M0,0 L15,0 L17,1 L29,1 L42,6 L51,12 L55,17 L61,29 L67,47 L68,52 L68,72 L66,84 L58,99 L50,107 L48,111 L49,119 L51,127 L64,151 L70,163 L74,168 L81,180 L88,194 L91,216 L93,278 L95,315 L96,339 L97,347 L97,363 L98,409 L101,481 L101,519 L98,524 L95,527 L90,529 L89,531 L89,656 L90,668 L90,728 L89,743 L84,748 L71,748 L46,749 L40,748 L31,749 L20,749 L9,748 L0,748 L-5,742 L-7,711 L-12,690 L-17,675 L-19,663 L-23,651 L-25,640 L-29,627 L-35,604 L-41,581 L-43,573 L-49,552 L-54,535 L-58,530 L-70,524 L-73,518 L-74,514 L-76,477 L-77,467 L-78,443 L-78,433 L-81,383 L-83,331 L-84,308 L-83,298 L-79,288 L-70,268 L-63,254 L-59,243 L-51,226 L-39,200 L-34,188 L-24,166 L-20,156 L-18,153 L-17,147 L-17,138 L-22,133 L-31,130 L-39,126 L-49,116 L-55,104 L-57,92 L-58,82 L-58,72 L-56,57 L-51,39 L-48,33 L-46,26 L-38,15 L-27,7 L-10,1 L-3,1 Z " fill="#000000" transform="translate(800,139)"/>
<path d="M0,0 L29,0 L37,4 L39,14 L40,38 L39,53 L34,58 L33,59 L-7,60 L-17,58 L-20,55 L-21,52 L-22,26 L-22,8 L-20,3 L-17,1 Z " fill="#000000" transform="translate(515,339)"/>
<path d="M0,0 L15,0 L39,7 L56,16 L64,24 L70,33 L78,54 L80,66 L81,86 L79,95 L74,109 L65,119 L57,123 L48,126 L42,135 L38,146 L34,157 L33,166 L39,176 L46,185 L57,199 L68,211 L78,219 L87,228 L92,233 L106,244 L118,255 L126,261 L145,267 L154,269 L167,274 L171,276 L184,279 L192,282 L206,287 L215,289 L233,295 L251,300 L271,304 L279,306 L291,306 L298,303 L316,299 L326,304 L335,313 L336,321 L333,329 L331,336 L332,343 L337,345 L379,345 L383,343 L384,341 L385,264 L389,259 L403,259 L407,264 L408,270 L409,327 L410,394 L410,446 L409,479 L405,486 L402,487 L394,487 L388,483 L387,478 L384,377 L380,371 L376,370 L300,370 L293,371 L283,370 L253,371 L249,369 L247,365 L245,353 L243,351 L236,350 L221,352 L209,361 L168,361 L161,360 L105,360 L89,350 L82,346 L67,335 L58,329 L52,324 L46,321 L41,321 L40,324 L39,338 L39,363 L40,366 L51,370 L60,371 L70,373 L81,376 L92,377 L111,381 L122,383 L142,388 L158,391 L177,396 L192,399 L201,402 L211,404 L215,406 L225,408 L232,413 L235,421 L237,438 L241,469 L241,485 L237,489 L219,490 L174,490 L169,485 L166,484 L149,484 L139,485 L127,491 L121,492 L113,491 L103,491 L96,492 L48,492 L22,493 L-15,493 L-21,494 L-50,493 L-60,488 L-72,477 L-81,470 L-88,464 L-94,455 L-102,429 L-104,416 L-104,385 L-103,359 L-102,355 L-101,335 L-100,331 L-98,308 L-95,290 L-93,281 L-89,263 L-87,252 L-83,235 L-76,211 L-71,198 L-67,186 L-59,167 L-47,153 L-37,143 L-30,135 L-24,128 L-23,122 L-25,119 L-36,117 L-47,113 L-54,105 L-60,97 L-63,87 L-63,78 L-57,62 L-54,52 L-51,47 L-48,38 L-37,22 L-23,9 L-11,3 Z " fill="#000000" transform="translate(209,401)"/>
<path d="M0,0 L3,0 L3,3 L-1,2 Z " fill="#000000" transform="translate(942,987)"/>
</svg>
