<?xml version="1.0" encoding="UTF-8"?>
<!-- Generator: visioncortex VTracer 0.6.12 -->
<svg version="1.1" xmlns="http://www.w3.org/2000/svg" width="1146" height="1110">
<path d="M0,0 L755,0 L752,2 L731,3 L722,2 L707,3 L658,3 L647,2 L635,3 L517,3 L405,4 L311,4 L306,5 L254,5 L230,6 L97,6 L51,7 L18,7 L4,10 L2,14 L0,14 Z " fill="#000000" transform="translate(0,0)"/>
<path d="M0,0 L33,0 L33,1 L3,2 Z " fill="#000000" transform="translate(761,0)"/>
<path d="M0,0 L15,0 L13,2 L1,2 Z " fill="#000000" transform="translate(807,0)"/>
<path d="M0,0 L8,0 L8,13 L3,11 Z " fill="#000000" transform="translate(1138,0)"/>
<path d="M0,0 L1,0 L1,723 L-1,722 L-2,677 L-2,608 L-3,351 L-3,3 Z " fill="#000000" transform="translate(1145,15)"/>
<path d="M0,0 L25,0 L49,3 L65,6 L72,7 L83,10 L107,18 L117,21 L138,31 L149,37 L159,43 L166,47 L181,60 L186,65 L197,75 L204,84 L211,92 L221,107 L227,116 L238,140 L241,150 L246,166 L251,193 L252,207 L252,233 L251,246 L247,268 L238,300 L231,315 L226,325 L221,334 L208,352 L204,358 L193,371 L186,380 L174,392 L166,398 L161,404 L156,408 L154,408 L153,411 L144,418 L129,432 L118,441 L105,453 L99,458 L94,463 L81,476 L76,481 L69,490 L61,506 L54,520 L47,535 L39,564 L36,578 L33,620 L30,624 L4,625 L-57,625 L-62,622 L-64,614 L-63,591 L-61,568 L-57,540 L-54,528 L-50,513 L-44,498 L-40,488 L-29,468 L-25,461 L-19,451 L-10,437 L3,420 L12,410 L19,402 L41,380 L49,374 L54,369 L61,362 L72,353 L76,351 L78,347 L88,338 L102,323 L109,315 L117,304 L126,289 L134,270 L139,253 L142,230 L142,215 L139,193 L133,172 L126,158 L116,144 L105,131 L96,122 L87,116 L79,111 L63,103 L54,100 L43,96 L27,92 L13,91 L10,90 L-12,90 L-29,92 L-50,97 L-63,102 L-75,107 L-80,111 L-94,120 L-102,127 L-115,141 L-126,157 L-135,172 L-141,187 L-144,195 L-146,204 L-152,230 L-154,249 L-156,263 L-157,273 L-160,278 L-164,279 L-227,279 L-258,278 L-262,273 L-262,250 L-259,226 L-255,207 L-252,194 L-246,174 L-243,166 L-238,153 L-231,139 L-224,127 L-218,116 L-212,108 L-201,94 L-194,86 L-187,78 L-180,70 L-172,64 L-163,56 L-154,49 L-145,43 L-136,37 L-120,29 L-115,26 L-108,24 L-97,19 L-87,16 L-83,14 L-75,12 L-50,6 L-34,3 L-19,1 Z " fill="#000000" transform="translate(784,145)"/>
<path d="M0,0 L33,0 L37,3 L38,9 L39,60 L39,103 L36,110 L27,111 L12,112 L-67,113 L-71,110 L-72,105 L-73,55 L-73,10 L-71,4 L-66,2 Z " fill="#000000" transform="translate(389,146)"/>
<path d="M0,0 L23,0 L27,4 L27,41 L24,72 L20,92 L17,105 L12,122 L4,140 L-4,156 L-9,164 L-14,173 L-20,182 L-25,191 L-34,201 L-42,212 L-49,219 L-58,230 L-63,235 L-73,244 L-78,249 L-87,258 L-95,265 L-107,276 L-120,288 L-122,288 L-124,292 L-134,302 L-143,313 L-149,322 L-155,331 L-164,350 L-170,369 L-173,382 L-174,395 L-174,416 L-173,428 L-171,434 L-169,444 L-163,459 L-158,469 L-150,481 L-140,493 L-135,497 L-131,502 L-119,511 L-100,521 L-85,527 L-74,530 L-69,532 L-44,536 L-21,536 L-7,535 L-1,533 L14,530 L27,526 L44,519 L54,512 L60,508 L68,501 L76,494 L88,479 L97,465 L103,453 L110,438 L115,422 L119,410 L122,392 L125,359 L127,347 L131,344 L161,343 L216,343 L228,344 L231,348 L231,377 L227,406 L223,427 L218,446 L215,452 L212,463 L204,480 L199,490 L197,495 L187,511 L181,518 L171,532 L155,549 L148,557 L140,564 L131,571 L122,577 L114,582 L105,588 L89,596 L82,599 L62,607 L36,615 L7,621 L-18,624 L-57,624 L-79,622 L-85,620 L-100,618 L-128,611 L-146,605 L-158,600 L-170,595 L-189,585 L-199,579 L-199,577 L-203,575 L-214,566 L-226,555 L-238,542 L-245,533 L-255,518 L-261,508 L-270,488 L-276,472 L-278,463 L-282,449 L-284,426 L-285,421 L-285,395 L-282,370 L-276,344 L-272,332 L-268,323 L-264,313 L-258,302 L-249,288 L-241,276 L-232,264 L-223,254 L-216,246 L-199,229 L-191,222 L-182,214 L-177,209 L-172,205 L-167,199 L-161,195 L-154,188 L-152,188 L-152,186 L-141,177 L-124,161 L-117,154 L-107,141 L-96,122 L-89,107 L-85,98 L-79,80 L-74,62 L-71,39 L-70,14 L-69,5 L-65,2 Z M0,43 L0,48 L3,48 L2,43 Z " fill="#000000" transform="translate(393,324)"/>
<path d="M0,0 L2,1 L0,5 Z " fill="#000000" transform="translate(0,388)"/>
<path d="M0,0 Z " fill="#000000" transform="translate(0,420)"/>
<path d="M0,0 L2,4 L1,9 L0,9 Z " fill="#000000" transform="translate(0,434)"/>
<path d="M0,0 L2,1 L2,11 L0,12 Z " fill="#000000" transform="translate(0,453)"/>
<path d="M0,0 L1,4 Z " fill="#000000" transform="translate(0,474)"/>
<path d="M0,0 Z " fill="#000000" transform="translate(0,488)"/>
<path d="M0,0 L2,2 L2,45 L0,47 Z " fill="#000000" transform="translate(0,494)"/>
<path d="M0,0 L1,0 L1,5 L0,5 Z " fill="#000000" transform="translate(0,549)"/>
<path d="M0,0 L4,1 L5,2 L5,9 L1,10 L-2,5 L-1,1 Z " fill="#000000" transform="translate(1011,554)"/>
<path d="M0,0 L2,1 L2,24 L3,54 L3,125 L4,354 L4,505 L5,528 L6,542 L8,549 L0,549 Z " fill="#000000" transform="translate(0,561)"/>
<path d="M0,0 L1,0 L1,9 L-1,7 L-1,1 Z " fill="#000000" transform="translate(1145,743)"/>
<path d="M0,0 L1,0 L1,15 L-1,13 Z " fill="#000000" transform="translate(1145,756)"/>
<path d="M0,0 L1,0 L1,125 L0,125 L-1,120 L-2,69 L-2,35 L-1,2 Z " fill="#000000" transform="translate(1145,778)"/>
<path d="M0,0 L59,0 L63,2 L65,6 L66,53 L65,101 L62,109 L56,111 L-41,111 L-44,109 L-45,106 L-46,92 L-45,7 L-42,1 L-19,1 L-15,4 L-12,2 Z " fill="#000000" transform="translate(758,838)"/>
<path d="M0,0 L4,0 L3,4 L-1,2 Z " fill="#000000" transform="translate(413,1002)"/>
<path d="M0,0 L1,0 L1,12 L-794,12 L-794,10 L-789,9 L-781,10 L-771,9 L-743,9 L-718,10 L-692,9 L-566,9 L-493,8 L-483,9 L-430,8 L-263,8 L-226,7 L-55,7 L-39,6 L-7,6 L-3,4 Z " fill="#000000" transform="translate(1145,1098)"/>
<path d="M0,0 L30,0 L32,1 L32,3 L-4,3 L-3,1 Z " fill="#000000" transform="translate(311,1107)"/>
<path d="M0,0 L6,1 L6,2 L-1,2 Z " fill="#000000" transform="translate(231,1108)"/>
<path d="M0,0 L5,1 L5,2 L-3,2 Z " fill="#000000" transform="translate(261,1108)"/>
<path d="M0,0 L27,0 L28,2 L-1,2 Z " fill="#000000" transform="translate(273,1108)"/>
<path d="M0,0 L2,1 Z " fill="#000000" transform="translate(241,1109)"/>
<path d="M0,0 L5,0 L5,1 L0,1 Z " fill="#000000" transform="translate(251,1109)"/>
</svg>
