<?xml version="1.0" encoding="UTF-8"?>
<!-- Generator: visioncortex VTracer 0.6.12 -->
<svg version="1.1" xmlns="http://www.w3.org/2000/svg" width="1389" height="1326">
<path d="M0,0 L1389,0 L1389,49 L1361,50 L1343,49 L955,49 L952,47 L946,47 L944,49 L464,49 L205,48 L200,47 L197,48 L14,48 L0,47 Z " fill="#000000" transform="translate(0,0)"/>
<path d="M0,0 L9,0 L17,1 L65,1 L150,2 L317,2 L368,3 L486,3 L511,4 L615,4 L646,5 L761,5 L833,6 L840,7 L851,6 L896,6 L939,7 L946,6 L951,7 L972,7 L1028,6 L1033,10 L1034,16 L1034,38 L1033,141 L1033,269 L1032,295 L1031,302 L1032,310 L1031,389 L1030,521 L1028,724 L1027,811 L1026,869 L1025,947 L1025,1014 L1020,1020 L1008,1021 L974,1020 L888,1020 L857,1019 L792,1019 L788,1018 L773,1018 L764,1019 L757,1018 L740,1018 L727,1019 L678,1019 L648,1018 L598,1018 L587,1017 L578,1017 L572,1018 L564,1017 L534,1017 L527,1018 L515,1017 L405,1017 L376,1016 L363,1016 L348,1017 L304,1016 L269,1016 L253,1015 L160,1015 L154,1014 L22,1014 L-2,1013 L-11,1013 L-14,1009 L-15,994 L-15,959 L-14,885 L-14,869 L-12,799 L-11,635 L-11,613 L-9,473 L-9,426 L-8,271 L-7,254 L-7,89 L-6,16 L-3,4 Z M13,12 L7,16 L5,22 L4,79 L4,275 L3,365 L3,397 L2,403 L2,451 L1,508 L0,677 L0,710 L-1,738 L-2,794 L-2,822 L-3,858 L-3,894 L-4,965 L-4,989 L-2,1000 L0,1002 L41,1003 L142,1003 L150,1004 L161,1003 L168,1004 L209,1003 L216,1004 L226,1003 L285,1003 L348,1004 L410,1004 L434,1005 L447,1004 L486,1005 L575,1006 L584,1007 L589,1008 L594,1006 L740,1006 L742,1007 L794,1007 L833,1008 L841,1007 L851,1008 L1005,1008 L1010,1005 L1012,1001 L1013,983 L1013,966 L1015,925 L1015,881 L1016,804 L1017,752 L1018,746 L1018,649 L1019,537 L1020,527 L1020,437 L1021,366 L1021,314 L1022,196 L1022,141 L1023,74 L1023,26 L1021,21 L1018,18 L958,18 L948,17 L914,18 L878,17 L729,17 L718,16 L667,16 L624,15 L515,15 L421,14 L399,15 L393,14 L306,14 L267,13 L240,13 L234,12 L229,13 L208,13 L196,14 L176,13 L125,13 L98,12 Z " fill="#000000" transform="translate(236,123)"/>
<path d="M0,0 L73,0 L90,1 L93,4 L94,11 L94,46 L93,94 L92,101 L85,104 L79,105 L7,105 L-3,102 L-6,99 L-6,18 L-5,7 L-2,1 Z " fill="#000000" transform="translate(531,276)"/>
<path d="M0,0 L19,0 L42,1 L63,6 L73,8 L79,9 L86,10 L90,13 L98,15 L126,27 L135,32 L145,38 L155,45 L166,53 L179,66 L186,74 L197,88 L206,103 L214,119 L219,130 L224,148 L227,164 L229,192 L229,215 L225,240 L222,253 L218,265 L213,280 L205,295 L198,306 L191,316 L183,327 L171,341 L160,352 L158,352 L156,356 L146,365 L138,372 L130,379 L122,386 L115,393 L110,396 L105,401 L90,415 L82,422 L75,429 L67,440 L61,449 L53,463 L50,471 L46,480 L42,490 L36,512 L33,534 L32,554 L30,561 L28,563 L17,564 L-17,565 L-33,565 L-39,564 L-50,564 L-55,561 L-56,558 L-56,526 L-54,510 L-50,487 L-48,479 L-46,471 L-43,461 L-38,447 L-34,438 L-26,422 L-16,405 L-10,395 L2,379 L11,369 L18,361 L27,353 L31,348 L41,340 L46,335 L53,328 L64,319 L74,309 L82,302 L92,292 L101,281 L108,271 L116,258 L123,239 L126,229 L129,207 L128,185 L123,164 L118,151 L109,137 L100,126 L91,116 L83,109 L73,103 L65,98 L60,95 L47,91 L31,86 L19,84 L6,83 L-10,83 L-21,84 L-41,89 L-51,93 L-57,96 L-66,99 L-77,108 L-87,116 L-94,123 L-101,131 L-108,141 L-118,157 L-122,167 L-124,170 L-128,184 L-131,194 L-134,205 L-139,245 L-141,252 L-143,254 L-160,255 L-195,255 L-201,254 L-205,255 L-213,255 L-224,254 L-230,254 L-234,250 L-235,246 L-235,232 L-233,210 L-227,181 L-225,176 L-223,168 L-218,151 L-213,141 L-207,127 L-200,113 L-190,98 L-180,85 L-168,71 L-163,66 L-156,59 L-146,51 L-136,43 L-119,32 L-111,28 L-95,20 L-82,15 L-74,12 L-56,7 L-42,4 L-30,3 L-21,1 Z " fill="#000000" transform="translate(935,281)"/>
<path d="M0,0 L3,1 L2,5 L-1,4 Z " fill="#000000" transform="translate(220,316)"/>
<path d="M0,0 L11,1 L19,0 L34,0 L50,1 L67,1 L74,4 L75,5 L76,20 L75,39 L71,70 L65,99 L60,110 L55,123 L47,139 L40,152 L32,163 L26,173 L22,177 L19,183 L10,193 L-1,206 L-20,225 L-28,231 L-40,241 L-48,248 L-62,261 L-68,266 L-74,274 L-79,278 L-85,287 L-91,297 L-97,307 L-104,325 L-109,345 L-110,351 L-110,378 L-107,392 L-101,412 L-95,420 L-90,429 L-82,439 L-73,449 L-64,456 L-58,461 L-39,470 L-19,476 L-11,478 L-8,479 L8,481 L28,481 L30,480 L49,477 L65,472 L82,464 L96,454 L108,443 L116,435 L128,417 L132,410 L137,401 L141,388 L144,381 L149,363 L152,344 L154,322 L157,314 L165,312 L187,312 L227,313 L246,314 L249,316 L250,319 L250,339 L249,355 L245,373 L237,406 L231,419 L227,430 L221,441 L213,456 L200,474 L191,484 L184,492 L172,504 L161,513 L149,522 L136,530 L119,538 L110,543 L100,546 L87,551 L72,555 L56,559 L40,561 L27,563 L1,563 L-19,562 L-41,559 L-49,556 L-62,553 L-76,549 L-83,546 L-102,539 L-118,531 L-129,524 L-134,520 L-143,514 L-158,500 L-164,493 L-169,488 L-179,475 L-188,461 L-193,451 L-197,440 L-201,431 L-206,412 L-208,402 L-210,394 L-211,379 L-211,353 L-209,339 L-204,313 L-198,294 L-193,284 L-188,271 L-178,256 L-172,248 L-165,238 L-160,232 L-153,224 L-143,213 L-135,206 L-127,198 L-116,189 L-111,185 L-106,180 L-98,173 L-87,164 L-77,155 L-75,155 L-75,153 L-67,146 L-62,142 L-55,134 L-46,124 L-40,115 L-37,109 L-28,92 L-22,76 L-18,60 L-14,42 L-12,25 L-11,7 L-9,2 Z " fill="#000000" transform="translate(540,438)"/>
<path d="M0,0 L7,0 L18,1 L64,1 L78,2 L81,5 L82,7 L82,64 L81,97 L76,102 L57,103 L9,104 L-6,104 L-16,102 L-19,99 L-19,23 L-18,8 L-15,3 L-14,2 L-3,1 Z " fill="#000000" transform="translate(889,901)"/>
<path d="M0,0 L29,1 L40,2 L48,7 L53,15 L54,22 L52,33 L47,41 L40,47 L23,49 L9,49 L7,51 L6,72 L4,78 L-1,79 L-4,76 L-5,73 L-5,34 L-4,4 Z M13,11 L8,16 L8,33 L12,38 L26,38 L36,36 L41,31 L41,19 L37,14 L32,12 L18,11 Z " fill="#000000" transform="translate(223,1207)"/>
<path d="M0,0 L6,0 L10,6 L12,17 L18,20 L20,25 L12,30 L10,35 L10,63 L17,68 L18,75 L15,78 L8,79 L0,75 L-4,66 L-5,30 L-10,27 L-10,21 L-7,18 L-5,17 L-3,4 Z " fill="#000000" transform="translate(406,1212)"/>
<path d="M0,0 L6,2 L10,4 L18,0 L24,0 L27,3 L26,10 L22,13 L15,16 L10,21 L8,28 L7,56 L4,60 L-1,60 L-4,56 L-5,48 L-5,6 L-2,1 Z " fill="#000000" transform="translate(363,1229)"/>
<path d="M0,0 L15,0 L25,4 L31,11 L36,21 L36,30 L33,42 L27,51 L22,57 L17,60 L10,62 L3,61 L-6,58 L-12,54 L-17,48 L-20,40 L-22,30 L-21,22 L-17,13 L-10,5 Z M4,9 L-4,14 L-7,17 L-10,30 L-8,40 L-2,49 L1,51 L13,51 L18,47 L23,37 L22,21 L16,12 L10,9 Z " fill="#000000" transform="translate(310,1230)"/>
</svg>
