<?xml version="1.0" encoding="UTF-8"?>
<!-- Generator: visioncortex VTracer 0.6.12 -->
<svg version="1.1" xmlns="http://www.w3.org/2000/svg" width="1119" height="1119">
<path d="M0,0 L231,0 L234,2 L243,4 L258,8 L279,13 L288,17 L301,21 L311,26 L321,28 L334,34 L345,38 L352,42 L362,46 L374,52 L378,55 L394,63 L408,71 L411,74 L416,77 L430,85 L442,95 L451,100 L462,108 L468,113 L479,122 L490,132 L498,139 L508,148 L513,153 L521,160 L528,168 L540,182 L549,191 L556,200 L565,212 L575,225 L581,234 L589,244 L597,258 L601,263 L607,275 L611,280 L617,291 L625,307 L628,314 L635,328 L641,342 L644,349 L650,365 L654,377 L660,398 L666,419 L670,434 L671,435 L671,506 L669,505 L664,466 L659,442 L654,419 L651,407 L640,375 L633,356 L626,341 L622,331 L618,322 L612,308 L603,292 L599,286 L594,276 L590,271 L586,264 L577,250 L570,240 L561,228 L553,217 L544,206 L533,194 L524,184 L515,173 L505,164 L486,145 L478,139 L473,134 L466,128 L457,121 L447,114 L432,104 L424,98 L405,86 L400,82 L384,74 L353,58 L347,55 L337,51 L320,43 L296,35 L292,33 L283,31 L279,29 L268,27 L253,22 L243,19 L233,19 L225,17 L213,15 L188,10 L173,9 L148,8 L136,7 L83,7 L79,8 L58,9 L50,11 L27,13 L3,17 L-15,21 L-37,26 L-52,31 L-62,33 L-68,36 L-81,40 L-93,45 L-102,48 L-120,56 L-136,64 L-145,69 L-155,73 L-166,80 L-186,93 L-208,106 L-218,114 L-232,125 L-245,136 L-254,143 L-264,152 L-269,157 L-275,162 L-279,167 L-284,172 L-302,190 L-309,198 L-317,207 L-323,215 L-332,226 L-344,242 L-352,254 L-359,265 L-365,274 L-370,283 L-383,306 L-392,323 L-399,340 L-402,345 L-408,361 L-415,379 L-426,412 L-430,429 L-433,440 L-438,465 L-442,490 L-446,526 L-448,527 L-448,442 L-445,433 L-443,427 L-441,416 L-437,404 L-435,394 L-431,385 L-426,368 L-421,355 L-418,345 L-415,340 L-411,330 L-405,317 L-399,305 L-393,295 L-385,278 L-376,264 L-372,258 L-364,245 L-356,235 L-344,217 L-333,204 L-326,196 L-318,186 L-311,178 L-302,168 L-297,163 L-284,151 L-272,139 L-264,132 L-250,120 L-238,112 L-229,104 L-220,98 L-215,94 L-210,91 L-200,84 L-197,81 L-187,76 L-171,66 L-150,55 L-134,47 L-116,39 L-100,32 L-93,29 L-72,21 L-59,17 L-48,14 L-40,11 L-26,7 L-14,4 L-1,1 Z " fill="#000000" transform="translate(448,0)"/>
<path d="M0,0 L35,0 L53,2 L68,3 L80,6 L90,8 L123,18 L138,24 L149,29 L161,35 L171,41 L179,46 L190,53 L201,62 L209,69 L215,73 L220,78 L225,82 L230,86 L234,92 L242,102 L253,116 L263,130 L272,145 L286,172 L292,187 L302,217 L307,237 L312,268 L312,277 L313,286 L313,299 L310,338 L307,358 L300,385 L290,414 L286,422 L280,434 L278,439 L266,459 L260,468 L246,487 L238,496 L231,504 L212,523 L196,535 L185,544 L172,554 L161,563 L146,574 L135,584 L130,589 L121,598 L115,608 L107,624 L101,646 L99,661 L99,700 L98,754 L98,788 L97,847 L95,853 L90,856 L-49,856 L-70,855 L-75,852 L-77,847 L-77,708 L-76,655 L-74,627 L-69,601 L-62,575 L-56,559 L-52,547 L-43,530 L-37,519 L-31,509 L-21,494 L-13,484 L-5,474 L5,463 L13,456 L23,447 L41,434 L49,429 L59,422 L69,415 L81,406 L91,399 L96,395 L98,395 L99,392 L104,390 L106,386 L110,384 L112,379 L119,371 L128,358 L133,348 L138,337 L143,318 L144,311 L144,285 L141,267 L136,249 L128,233 L120,220 L108,206 L107,203 L104,202 L99,197 L88,189 L67,177 L53,171 L44,170 L42,169 L24,167 L11,167 L-14,170 L-32,176 L-57,188 L-71,199 L-80,207 L-89,218 L-97,229 L-105,243 L-111,260 L-115,276 L-117,296 L-117,360 L-118,392 L-122,397 L-157,398 L-219,398 L-228,399 L-231,398 L-281,398 L-285,395 L-286,392 L-286,383 L-285,378 L-286,375 L-286,332 L-285,293 L-284,273 L-281,249 L-275,223 L-272,211 L-267,196 L-261,181 L-258,172 L-255,167 L-251,158 L-247,152 L-241,140 L-238,135 L-230,124 L-223,113 L-221,113 L-219,109 L-213,101 L-208,96 L-199,86 L-188,76 L-181,71 L-174,63 L-164,56 L-159,52 L-140,40 L-126,32 L-114,27 L-101,22 L-84,16 L-67,12 L-62,10 L-48,7 L-24,3 Z M231,125 L230,129 L235,130 L235,126 Z " fill="#000000" transform="translate(551,26)"/>
<path d="M0,0 L2,0 L2,67 L0,72 L-3,85 L-7,99 L-11,113 L-18,134 L-21,143 L-28,162 L-39,186 L-47,202 L-59,223 L-65,233 L-71,244 L-77,252 L-84,263 L-92,274 L-98,282 L-111,300 L-120,311 L-129,321 L-138,332 L-150,345 L-158,352 L-166,360 L-174,366 L-179,371 L-186,378 L-196,385 L-206,394 L-217,401 L-225,408 L-235,414 L-246,422 L-257,429 L-269,437 L-281,444 L-292,449 L-311,459 L-324,465 L-344,474 L-365,482 L-383,488 L-392,491 L-407,495 L-412,497 L-423,499 L-431,502 L-438,503 L-439,504 L-544,504 L-541,502 L-510,500 L-488,498 L-479,496 L-455,493 L-430,487 L-418,485 L-412,482 L-393,478 L-381,473 L-366,468 L-350,462 L-340,458 L-323,451 L-307,443 L-288,433 L-276,426 L-267,421 L-257,415 L-247,408 L-238,403 L-234,399 L-223,392 L-215,385 L-204,377 L-199,373 L-194,368 L-186,361 L-176,354 L-169,346 L-160,338 L-153,330 L-139,316 L-135,310 L-128,302 L-121,294 L-114,286 L-104,271 L-91,253 L-84,242 L-72,223 L-63,207 L-54,190 L-46,175 L-42,165 L-30,134 L-24,116 L-22,109 L-18,96 L-14,83 L-11,68 L-5,37 L-2,17 L-1,3 Z " fill="#000000" transform="translate(1117,615)"/>
<path d="M0,0 L2,0 L7,33 L9,47 L11,60 L15,73 L20,95 L25,111 L31,129 L38,147 L42,158 L48,170 L51,178 L60,195 L67,209 L75,222 L79,229 L86,239 L94,253 L102,264 L112,278 L123,291 L132,302 L141,312 L148,320 L156,328 L163,336 L170,343 L181,352 L198,368 L209,376 L219,384 L229,392 L238,398 L252,407 L261,413 L267,417 L271,420 L278,423 L300,435 L311,441 L331,450 L345,456 L358,461 L368,465 L378,469 L387,471 L411,478 L423,481 L428,483 L442,486 L453,487 L458,489 L465,490 L469,492 L483,492 L490,494 L528,497 L532,499 L432,499 L429,497 L402,491 L367,479 L358,476 L343,470 L332,466 L319,460 L303,452 L280,440 L272,436 L256,427 L245,419 L234,412 L223,404 L216,400 L204,390 L195,383 L183,372 L172,363 L152,343 L152,341 L148,339 L134,324 L123,312 L117,303 L112,298 L100,283 L94,274 L85,263 L76,248 L66,233 L63,226 L57,218 L52,205 L48,198 L40,182 L30,161 L28,154 L22,141 L17,124 L13,115 L9,101 L5,84 L1,70 L0,69 Z " fill="#000000" transform="translate(0,620)"/>
<path d="M0,0 L146,0 L164,1 L168,5 L169,7 L169,73 L168,111 L167,121 L162,125 L108,125 L12,124 L2,124 L-3,120 L-4,118 L-5,104 L-5,37 L-4,5 L-2,1 Z " fill="#000000" transform="translate(478,955)"/>
<path d="M0,0 L8,0 L9,2 L-3,2 Z " fill="#000000" transform="translate(540,1117)"/>
</svg>
