<?xml version="1.0" encoding="UTF-8"?>
<!-- Generator: visioncortex VTracer 0.6.12 -->
<svg version="1.1" xmlns="http://www.w3.org/2000/svg" width="666" height="780">
<path d="M0,0 L192,0 L209,1 L367,1 L374,4 L376,10 L377,20 L376,51 L376,99 L381,112 L387,122 L394,132 L397,138 L408,157 L411,160 L417,172 L426,184 L432,195 L440,209 L448,225 L453,236 L459,250 L468,271 L474,292 L478,311 L482,327 L483,339 L485,346 L486,373 L488,378 L487,384 L485,391 L483,412 L481,421 L479,437 L477,441 L473,468 L468,484 L464,499 L458,520 L451,548 L446,567 L442,580 L440,590 L433,614 L428,636 L425,645 L422,659 L418,674 L414,692 L407,714 L404,720 L400,723 L390,722 L362,721 L307,720 L275,720 L247,719 L213,720 L196,720 L186,719 L61,719 L51,718 L-20,718 L-37,717 L-42,713 L-49,698 L-53,683 L-57,664 L-62,643 L-68,622 L-74,596 L-78,582 L-81,568 L-89,537 L-91,531 L-93,522 L-101,489 L-105,475 L-109,457 L-112,447 L-116,420 L-119,396 L-120,387 L-121,365 L-121,339 L-117,316 L-113,295 L-109,280 L-105,267 L-93,238 L-88,226 L-80,211 L-72,194 L-64,180 L-56,164 L-49,149 L-43,138 L-37,126 L-34,122 L-27,105 L-22,95 L-20,70 L-20,8 L-18,4 L-14,2 Z M134,99 L125,101 L116,100 L22,100 L17,104 L11,115 L-1,137 L-7,149 L-13,160 L-19,170 L-28,186 L-34,197 L-42,214 L-48,225 L-56,241 L-64,257 L-70,272 L-77,294 L-81,309 L-86,332 L-88,349 L-89,351 L-88,364 L-89,388 L-87,411 L-83,432 L-75,470 L-71,482 L-69,495 L-64,511 L-60,526 L-51,563 L-44,587 L-35,626 L-26,664 L-21,678 L-16,683 L-4,685 L71,686 L106,686 L152,685 L171,686 L291,686 L372,685 L380,683 L383,680 L389,662 L397,631 L408,587 L414,566 L419,545 L422,534 L424,522 L437,481 L440,466 L445,447 L448,430 L450,422 L451,408 L453,400 L453,359 L449,329 L443,301 L437,282 L433,273 L425,254 L417,238 L407,218 L400,207 L391,194 L380,176 L372,165 L362,151 L354,137 L348,128 L342,117 L334,107 L330,104 L327,103 L275,101 L243,101 L185,100 L168,100 Z " fill="#000000" transform="translate(152,30)"/>
<path d="M0,0 L26,0 L71,1 L95,1 L110,2 L174,3 L224,5 L266,5 L328,3 L340,3 L344,5 L346,11 L345,44 L344,51 L344,98 L343,147 L343,197 L340,202 L337,203 L320,204 L313,205 L197,205 L85,204 L66,204 L21,203 L-3,203 L-7,199 L-8,196 L-8,133 L-7,55 L-7,10 L-4,3 Z " fill="#000000" transform="translate(167,323)"/>
</svg>
