<?xml version="1.0" encoding="UTF-8"?>
<!-- Generator: visioncortex VTracer 0.6.12 -->
<svg version="1.1" xmlns="http://www.w3.org/2000/svg" width="1206" height="675">
<path d="M0,0 L22,0 L44,7 L62,18 L76,31 L84,44 L90,58 L93,67 L94,73 L94,83 L92,97 L89,108 L81,123 L73,134 L68,139 L61,146 L52,152 L38,159 L19,162 L2,162 L-14,159 L-30,152 L-44,142 L-51,136 L-61,121 L-67,108 L-70,98 L-71,88 L-71,72 L-69,58 L-65,49 L-59,39 L-52,29 L-45,21 L-35,14 L-19,6 L-10,2 Z " fill="#000000" transform="translate(918,37)"/>
<path d="M0,0 L7,1 L13,9 L17,17 L24,30 L24,35 L16,43 L9,51 L-2,64 L-11,76 L-15,81 L-22,89 L-31,99 L-38,108 L-43,113 L-48,118 L-56,128 L-65,138 L-72,147 L-79,154 L-86,162 L-97,175 L-108,188 L-119,204 L-124,209 L-129,214 L-140,226 L-147,235 L-152,240 L-163,253 L-176,267 L-183,275 L-199,292 L-211,301 L-226,311 L-237,319 L-252,328 L-254,328 L-256,332 L-266,338 L-277,346 L-288,354 L-307,366 L-318,374 L-325,379 L-334,384 L-340,389 L-355,399 L-361,403 L-368,407 L-381,416 L-392,423 L-408,434 L-417,442 L-422,442 L-422,435 L-416,420 L-413,408 L-407,383 L-403,353 L-403,321 L-405,313 L-404,306 L-397,298 L-389,292 L-377,284 L-362,273 L-353,267 L-344,261 L-335,255 L-327,249 L-315,242 L-304,234 L-290,224 L-274,213 L-263,205 L-247,194 L-239,188 L-230,182 L-211,168 L-203,162 L-193,156 L-182,147 L-168,138 L-163,133 L-151,126 L-143,120 L-132,111 L-126,107 L-116,100 L-108,93 L-98,85 L-96,83 L-96,80 L-102,81 L-116,87 L-134,95 L-158,106 L-168,110 L-178,114 L-198,122 L-214,130 L-233,138 L-248,145 L-259,149 L-282,160 L-311,173 L-332,182 L-362,196 L-377,202 L-395,210 L-409,217 L-426,224 L-441,231 L-451,235 L-463,241 L-472,244 L-487,251 L-514,263 L-524,268 L-540,275 L-545,280 L-546,283 L-547,315 L-550,340 L-555,362 L-561,380 L-565,388 L-573,406 L-585,425 L-594,437 L-600,446 L-610,456 L-615,461 L-623,469 L-635,478 L-640,483 L-647,488 L-656,490 L-666,490 L-678,488 L-686,483 L-694,475 L-699,463 L-701,453 L-701,433 L-700,428 L-699,396 L-697,372 L-696,346 L-696,334 L-695,323 L-694,288 L-693,238 L-689,220 L-684,210 L-677,201 L-668,191 L-657,183 L-646,178 L-623,169 L-608,163 L-593,157 L-572,148 L-563,144 L-555,142 L-541,136 L-532,133 L-512,125 L-505,122 L-490,116 L-472,110 L-464,106 L-454,102 L-441,98 L-421,90 L-395,80 L-381,74 L-370,70 L-364,67 L-355,64 L-344,62 L-334,60 L-328,58 L-313,57 L-311,56 L-300,55 L-274,49 L-255,46 L-233,42 L-224,41 L-196,36 L-177,33 L-157,29 L-137,25 L-111,21 L-94,18 L-64,12 L-53,11 L-36,7 L-20,4 L-6,2 Z " fill="#000000" transform="translate(738,152)"/>
<path d="M0,0 L16,0 L30,1 L48,8 L59,15 L67,21 L74,29 L82,40 L88,52 L91,64 L91,75 L87,82 L74,87 L65,91 L48,97 L24,107 L4,115 L-9,120 L-24,126 L-38,131 L-45,129 L-52,121 L-59,109 L-64,95 L-65,85 L-65,67 L-62,52 L-56,40 L-46,27 L-43,26 L-41,22 L-34,15 L-24,9 L-10,4 Z " fill="#000000" transform="translate(209,153)"/>
<path d="M0,0 L10,2 L14,3 L18,1 L61,1 L145,2 L145,50 L5,50 L-1,48 L-4,42 L-4,4 Z " fill="#000000" transform="translate(1061,570)"/>
</svg>
