<?xml version="1.0" encoding="UTF-8"?>
<!-- Generator: visioncortex VTracer 0.6.12 -->
<svg version="1.1" xmlns="http://www.w3.org/2000/svg" width="1122" height="1119">
<path d="M0,0 L712,0 L728,1 L840,3 L882,4 L976,5 L1011,6 L1095,7 L1109,10 L1114,13 L1117,22 L1117,59 L1116,61 L1115,75 L1114,133 L1114,163 L1113,207 L1113,303 L1112,348 L1113,355 L1111,371 L1111,449 L1112,459 L1111,475 L1111,522 L1110,576 L1110,645 L1109,739 L1109,809 L1108,811 L1108,829 L1109,840 L1108,857 L1109,867 L1109,879 L1108,890 L1108,946 L1107,952 L1108,960 L1108,1063 L1107,1074 L1107,1085 L1108,1091 L1107,1095 L1107,1119 L531,1119 L522,1118 L498,1118 L461,1117 L377,1116 L324,1115 L299,1115 L281,1114 L255,1114 L110,1112 L84,1111 L31,1111 L-5,1110 L-5,67 L-4,64 L-4,33 L-3,9 Z M480,6 L476,9 L474,14 L475,20 L482,28 L489,29 L498,26 L500,24 L500,20 L485,20 L485,8 Z M498,13 L497,15 L499,19 L501,18 L500,13 Z M205,87 L196,89 L187,90 L172,95 L156,103 L146,109 L134,118 L130,123 L125,128 L119,135 L108,153 L103,162 L97,181 L95,193 L94,214 L95,227 L99,243 L104,258 L112,274 L122,288 L134,301 L142,308 L157,318 L176,327 L193,331 L208,333 L230,333 L248,330 L268,322 L280,316 L292,308 L302,299 L309,292 L319,279 L328,263 L336,242 L339,226 L339,197 L337,182 L330,162 L322,146 L312,131 L296,115 L287,108 L273,100 L263,95 L242,89 L225,87 Z M422,101 L414,103 L410,107 L409,127 L408,171 L408,217 L407,327 L407,422 L409,435 L413,447 L419,459 L432,476 L444,485 L457,493 L474,503 L487,511 L504,521 L514,527 L529,536 L544,545 L546,548 L549,573 L553,585 L560,601 L566,608 L573,616 L583,624 L603,636 L613,643 L628,652 L653,667 L654,669 L655,681 L655,856 L654,890 L651,903 L644,912 L631,919 L622,920 L542,920 L538,923 L537,926 L536,945 L536,1002 L538,1007 L543,1009 L595,1011 L609,1011 L680,1013 L711,1013 L805,1015 L859,1015 L864,1011 L866,1002 L866,942 L864,931 L859,927 L856,926 L794,924 L774,922 L758,914 L752,907 L748,896 L748,772 L749,721 L749,691 L750,671 L755,666 L782,652 L800,642 L815,634 L834,622 L844,613 L852,600 L856,594 L859,585 L861,572 L863,569 L865,553 L869,547 L880,541 L899,531 L906,527 L920,519 L932,513 L939,509 L948,503 L956,499 L956,497 L962,496 L974,488 L984,479 L990,469 L993,464 L996,461 L1002,439 L1004,429 L1005,414 L1005,324 L1006,304 L1006,182 L1005,172 L1006,150 L1006,124 L1004,118 L996,114 L989,112 L935,111 L904,110 L815,108 L733,106 L650,105 L577,103 L438,101 Z M326,132 L325,136 L330,135 L329,132 Z M105,335 L101,339 L100,342 L99,394 L98,426 L97,523 L96,619 L96,652 L98,662 L99,663 L106,662 L122,654 L139,645 L158,634 L180,622 L200,611 L210,605 L215,606 L229,614 L235,618 L240,622 L251,628 L262,635 L281,646 L293,654 L303,659 L318,668 L323,667 L325,665 L327,656 L328,620 L329,500 L329,481 L330,440 L330,348 L327,339 L322,340 L302,353 L286,362 L267,369 L250,374 L239,375 L236,376 L212,377 L196,375 L178,372 L161,367 L153,363 L146,360 L124,348 L109,336 Z M539,868 L542,875 L545,875 L543,869 Z " fill="#000000" transform="translate(5,0)"/>
<path d="M0,0 L47,0 L52,4 L51,138 L51,255 L50,257 L44,257 L35,251 L25,245 L12,237 L2,231 L-3,223 L-5,212 L-5,177 L-4,89 L-4,24 L-3,3 Z " fill="#000000" transform="translate(503,187)"/>
<path d="M0,0 L32,0 L41,2 L42,4 L43,13 L43,100 L42,134 L42,195 L41,201 L42,209 L41,224 L39,229 L34,234 L27,240 L7,251 L1,254 L-5,255 L-8,252 L-9,228 L-9,185 L-8,140 L-8,75 L-7,68 L-7,61 L-8,59 L-8,24 L-7,12 L-7,5 L-4,1 Z " fill="#000000" transform="translate(877,195)"/>
</svg>
