<?xml version="1.0" encoding="UTF-8"?>
<!-- Generator: visioncortex VTracer 0.6.12 -->
<svg version="1.1" xmlns="http://www.w3.org/2000/svg" width="1086" height="1110">
<path d="M0,0 L160,0 L160,2 L177,6 L187,10 L193,11 L213,11 L225,14 L246,19 L247,20 L256,22 L258,23 L271,25 L297,33 L315,37 L320,39 L331,41 L340,44 L359,49 L377,54 L381,60 L384,57 L389,58 L393,61 L403,61 L414,65 L428,69 L446,74 L470,81 L483,85 L489,89 L496,89 L523,98 L541,104 L562,110 L566,112 L575,114 L595,121 L608,126 L621,130 L639,137 L654,142 L672,149 L687,154 L691,155 L696,154 L698,158 L707,161 L716,164 L732,171 L737,173 L754,177 L761,180 L761,221 L750,218 L740,215 L728,209 L721,207 L709,201 L689,194 L678,190 L672,187 L663,184 L639,176 L622,169 L613,167 L587,157 L568,151 L559,148 L546,143 L536,140 L519,134 L500,128 L483,123 L469,118 L456,114 L443,109 L429,106 L418,102 L378,90 L365,86 L355,83 L340,79 L328,75 L315,73 L307,70 L294,66 L277,62 L250,55 L242,53 L231,50 L220,48 L216,46 L205,44 L194,40 L179,37 L147,30 L131,26 L100,20 L81,16 L57,12 L50,10 L37,9 L31,7 L3,3 L0,2 Z " fill="#000000" transform="translate(325,0)"/>
<path d="M0,0 L120,0 L129,4 L145,8 L151,11 L156,11 L159,8 L164,9 L166,15 L168,16 L180,18 L188,20 L193,23 L198,23 L201,26 L219,28 L224,33 L235,33 L240,38 L243,40 L254,40 L257,43 L265,46 L269,49 L279,52 L284,52 L286,56 L294,57 L306,62 L313,65 L328,69 L335,72 L348,76 L356,79 L377,87 L386,90 L395,94 L409,98 L419,103 L443,113 L453,117 L453,156 L448,155 L432,149 L421,144 L396,134 L380,128 L368,123 L346,115 L340,112 L330,109 L315,103 L306,100 L293,96 L270,87 L252,81 L240,76 L224,72 L217,69 L204,65 L187,59 L167,52 L159,50 L147,46 L142,44 L129,41 L120,37 L110,35 L97,30 L83,26 L71,22 L63,19 L36,12 L18,7 L1,2 Z " fill="#000000" transform="translate(633,0)"/>
<path d="M0,0 L111,0 L120,4 L147,13 L151,16 L158,16 L163,20 L170,21 L185,29 L194,32 L201,33 L206,38 L216,41 L221,44 L230,47 L235,50 L235,88 L228,87 L212,80 L203,77 L189,72 L183,69 L173,66 L163,61 L146,55 L140,52 L128,49 L120,45 L107,40 L98,37 L84,32 L75,29 L66,25 L57,23 L54,21 L46,19 L37,16 L29,12 L17,10 L14,7 L1,3 Z " fill="#000000" transform="translate(851,0)"/>
<path d="M0,0 L55,0 L55,24 L49,24 L38,19 L17,10 L4,5 L0,2 Z " fill="#000000" transform="translate(1031,0)"/>
<path d="M0,0 L55,1 L70,0 L74,1 L116,3 L125,4 L158,7 L186,9 L211,12 L219,14 L237,16 L251,18 L264,19 L271,21 L290,23 L304,26 L320,29 L343,32 L371,37 L398,42 L405,44 L417,45 L423,47 L440,50 L466,55 L487,60 L502,63 L518,67 L530,69 L546,73 L563,77 L579,81 L595,85 L607,88 L623,92 L636,95 L642,97 L652,99 L676,106 L692,110 L711,116 L723,119 L730,122 L742,125 L767,132 L778,135 L783,137 L800,141 L819,148 L837,153 L856,159 L860,161 L868,163 L876,166 L885,168 L903,175 L911,178 L920,180 L932,185 L940,187 L948,190 L961,194 L973,199 L983,201 L995,207 L1009,211 L1013,213 L1020,213 L1022,214 L1022,217 L1032,220 L1048,226 L1056,226 L1056,272 L1051,271 L1046,269 L1036,267 L1027,262 L1014,258 L992,249 L979,244 L963,238 L935,228 L920,223 L912,220 L899,216 L896,214 L887,212 L870,206 L850,199 L842,197 L830,192 L822,191 L821,196 L816,197 L815,192 L820,191 L820,189 L808,186 L777,175 L770,172 L763,171 L753,166 L740,162 L725,157 L717,154 L699,148 L680,143 L668,138 L659,135 L647,132 L637,130 L620,125 L608,123 L595,118 L564,109 L552,106 L543,104 L522,98 L507,94 L487,90 L475,87 L441,81 L423,77 L411,73 L400,71 L394,69 L382,69 L366,64 L354,62 L330,57 L305,53 L302,52 L286,50 L277,50 L258,48 L243,45 L241,44 L227,43 L224,42 L209,41 L195,39 L173,37 L162,35 L140,33 L131,32 L116,31 L69,30 L45,29 L-21,30 L-30,30 L-30,3 L-14,2 Z M678,113 L670,118 L671,121 L673,122 L681,122 L685,119 L684,114 Z " fill="#000000" transform="translate(30,15)"/>
<path d="M0,0 L33,0 L66,1 L73,2 L122,5 L169,9 L213,14 L216,15 L245,18 L270,22 L296,26 L316,30 L327,32 L351,36 L382,41 L402,45 L415,47 L435,51 L455,55 L473,59 L486,61 L503,65 L517,69 L532,72 L537,74 L546,76 L561,79 L566,81 L576,83 L588,87 L596,88 L605,91 L624,96 L640,100 L643,102 L660,106 L674,111 L684,113 L688,115 L700,117 L706,120 L726,125 L736,127 L738,129 L752,133 L770,138 L787,143 L806,148 L824,155 L834,157 L838,159 L847,161 L856,165 L864,166 L867,168 L878,171 L884,172 L899,179 L912,183 L922,186 L931,189 L940,192 L943,194 L956,196 L972,204 L989,210 L995,213 L1004,214 L1013,219 L1013,263 L1008,262 L995,257 L978,251 L970,247 L961,244 L945,238 L919,229 L889,219 L878,215 L865,211 L858,209 L851,206 L834,201 L807,192 L794,188 L786,185 L778,183 L758,177 L734,170 L724,167 L709,162 L688,156 L677,152 L659,148 L645,143 L634,141 L624,137 L610,133 L601,130 L592,127 L577,122 L569,120 L546,113 L524,108 L510,104 L500,102 L489,98 L475,95 L451,89 L429,85 L424,83 L411,82 L399,78 L387,75 L375,73 L360,70 L321,62 L306,59 L294,58 L284,55 L260,52 L253,50 L242,49 L225,46 L210,44 L198,43 L196,42 L153,38 L125,35 L91,33 L86,32 L48,30 L6,31 L-18,31 L-45,32 L-67,34 L-73,34 L-73,5 L-60,3 L-45,2 L-43,1 Z " fill="#000000" transform="translate(73,89)"/>
<path d="M0,0 L20,0 L30,2 L49,7 L66,10 L90,15 L109,20 L127,25 L135,27 L151,30 L159,32 L184,35 L195,38 L206,39 L209,40 L221,41 L246,42 L285,46 L308,48 L319,49 L337,51 L350,52 L362,55 L393,60 L410,63 L429,67 L445,69 L456,73 L467,74 L477,77 L483,78 L492,82 L509,86 L523,89 L532,92 L555,97 L571,102 L583,105 L589,108 L602,111 L618,116 L636,122 L657,128 L676,133 L697,140 L714,145 L723,147 L736,152 L748,155 L759,158 L763,160 L773,162 L783,166 L800,170 L812,175 L820,176 L830,181 L842,184 L850,187 L868,192 L875,194 L876,195 L887,197 L888,198 L899,199 L903,203 L910,205 L916,205 L933,214 L940,213 L949,218 L950,220 L954,218 L959,217 L961,222 L963,223 L973,224 L977,226 L977,274 L969,272 L959,268 L932,259 L919,255 L903,249 L894,247 L888,244 L879,242 L868,237 L866,234 L865,235 L858,235 L841,229 L832,227 L816,221 L800,216 L795,214 L778,210 L774,208 L765,206 L750,202 L742,199 L733,197 L722,193 L700,187 L683,183 L676,181 L667,179 L655,176 L640,172 L614,166 L607,164 L597,161 L585,158 L565,154 L549,151 L537,148 L526,146 L511,143 L496,140 L475,134 L450,130 L429,126 L414,123 L400,121 L367,115 L346,113 L329,109 L311,105 L295,102 L280,100 L262,98 L243,95 L213,93 L207,92 L187,92 L184,93 L183,95 L199,96 L203,97 L229,99 L242,102 L266,105 L276,107 L308,111 L321,112 L323,113 L330,113 L338,115 L348,116 L350,118 L364,120 L388,124 L405,128 L417,130 L424,132 L442,135 L448,137 L461,139 L474,142 L489,144 L499,147 L525,153 L546,158 L556,160 L574,165 L596,171 L614,177 L642,187 L668,197 L691,204 L703,209 L729,217 L747,223 L763,229 L771,231 L794,239 L801,240 L812,245 L822,247 L831,250 L838,253 L844,254 L847,253 L854,258 L864,260 L870,263 L885,267 L894,270 L903,272 L908,275 L915,277 L920,280 L929,280 L938,285 L945,287 L946,288 L956,290 L963,294 L970,296 L975,300 L977,301 L977,348 L971,346 L963,345 L960,342 L946,338 L940,335 L933,334 L929,331 L920,328 L912,326 L904,322 L896,320 L870,312 L853,307 L843,305 L834,301 L828,301 L817,296 L804,292 L783,287 L759,280 L733,274 L715,266 L701,256 L692,248 L678,238 L675,235 L654,227 L637,224 L630,223 L609,223 L588,228 L577,230 L547,228 L537,225 L527,223 L509,219 L505,217 L493,214 L483,212 L481,211 L466,209 L444,204 L428,201 L420,199 L408,197 L392,193 L378,190 L375,189 L349,186 L339,184 L329,183 L319,179 L311,177 L296,175 L278,171 L256,168 L235,166 L214,163 L201,162 L191,159 L175,158 L164,158 L162,157 L148,156 L146,158 L153,160 L174,163 L184,165 L208,168 L246,172 L276,177 L289,179 L301,180 L306,182 L331,185 L339,188 L350,189 L363,193 L375,196 L401,201 L425,206 L437,208 L450,212 L465,215 L496,222 L512,225 L527,229 L550,234 L558,237 L578,244 L594,251 L614,260 L627,265 L640,270 L653,275 L675,280 L723,283 L735,285 L751,291 L757,294 L767,298 L780,302 L798,310 L807,313 L819,316 L832,322 L848,327 L859,332 L875,337 L890,342 L903,347 L912,349 L915,351 L925,353 L927,355 L943,359 L954,363 L964,368 L971,371 L977,374 L977,413 L964,411 L949,405 L931,401 L920,397 L912,394 L902,392 L892,388 L883,386 L871,382 L849,377 L837,373 L817,369 L808,366 L793,362 L791,361 L779,359 L751,352 L742,350 L729,347 L716,344 L685,336 L675,333 L652,327 L648,325 L637,323 L622,319 L614,317 L602,314 L585,310 L562,305 L530,297 L512,292 L498,289 L482,286 L480,285 L460,282 L453,280 L442,279 L432,277 L423,277 L426,280 L441,283 L449,286 L462,288 L466,290 L475,292 L487,295 L498,297 L507,299 L523,303 L533,306 L544,308 L559,312 L575,316 L595,321 L606,326 L622,329 L627,331 L643,335 L654,338 L664,340 L677,343 L686,344 L703,350 L720,355 L738,360 L739,361 L750,363 L765,367 L788,373 L801,377 L814,381 L844,390 L853,393 L861,397 L868,397 L874,401 L889,406 L896,408 L912,414 L934,422 L944,425 L955,431 L966,435 L977,440 L977,490 L964,489 L954,486 L935,481 L924,477 L916,474 L908,473 L899,470 L882,465 L870,462 L850,455 L835,450 L812,444 L804,441 L782,435 L777,433 L767,431 L752,427 L744,424 L728,420 L712,417 L695,413 L680,410 L678,409 L665,407 L643,402 L632,399 L608,394 L596,390 L590,388 L578,386 L559,378 L549,372 L540,366 L523,358 L495,350 L466,344 L449,341 L433,337 L419,334 L400,330 L382,328 L364,324 L354,323 L348,321 L328,317 L304,312 L264,306 L255,304 L236,302 L212,299 L189,295 L147,292 L129,290 L104,290 L82,289 L14,289 L-9,290 L-22,290 L-25,291 L-57,294 L-70,296 L-77,297 L-103,299 L-109,300 L-109,272 L-93,269 L-91,268 L-51,263 L-45,262 L-38,262 L-35,261 L5,259 L59,258 L74,259 L81,259 L90,260 L98,259 L102,260 L133,261 L144,262 L156,262 L159,263 L177,265 L182,266 L198,267 L201,268 L221,270 L240,272 L252,273 L253,274 L280,277 L287,278 L300,279 L331,284 L342,285 L363,289 L379,291 L392,293 L405,294 L406,289 L400,281 L401,277 L405,276 L414,277 L413,274 L395,268 L387,265 L374,264 L357,261 L324,254 L320,252 L303,249 L298,247 L289,246 L277,242 L264,239 L255,236 L242,233 L227,229 L195,222 L182,220 L157,218 L153,217 L117,215 L111,214 L74,213 L69,212 L38,211 L-2,211 L-14,212 L-40,213 L-56,214 L-66,216 L-85,217 L-102,220 L-108,220 L-109,219 L-109,191 L-99,192 L-96,191 L-80,189 L-69,187 L-40,187 L-33,186 L-29,187 L1,187 L8,186 L28,188 L45,189 L58,190 L104,193 L123,195 L138,197 L140,196 L139,191 L131,187 L122,181 L106,174 L88,169 L70,168 L46,171 L42,172 L3,174 L-12,170 L-20,163 L-23,158 L-25,149 L-35,144 L-48,132 L-54,129 L-69,130 L-78,132 L-86,132 L-104,136 L-109,136 L-109,116 L-104,114 L-69,113 L-64,108 L-64,88 L-63,83 L-73,76 L-76,71 L-79,61 L-83,57 L-85,56 L-96,56 L-102,58 L-109,58 L-109,33 L-83,33 L-73,30 L-69,27 L-67,27 L-65,23 L-47,12 L-32,6 L-19,3 Z " fill="#000000" transform="translate(109,144)"/>
<path d="M0,0 L37,2 L46,2 L49,3 L68,3 L72,4 L83,4 L98,6 L134,9 L144,10 L161,11 L168,10 L171,13 L177,14 L190,14 L207,18 L220,18 L230,21 L236,21 L238,22 L250,23 L256,25 L265,25 L273,27 L286,29 L295,31 L308,32 L313,34 L334,36 L341,39 L369,42 L373,44 L382,46 L395,48 L410,51 L420,51 L425,54 L434,55 L446,58 L454,60 L485,67 L490,69 L503,71 L512,73 L517,73 L518,69 L519,64 L521,62 L530,63 L559,70 L584,77 L600,82 L608,84 L621,87 L639,92 L654,96 L677,102 L702,109 L726,115 L731,117 L739,119 L768,128 L783,132 L791,135 L800,137 L825,146 L845,153 L856,157 L877,165 L888,169 L897,174 L897,231 L881,227 L864,222 L847,217 L837,213 L826,210 L812,205 L788,198 L771,193 L735,182 L716,174 L707,172 L696,168 L679,163 L671,159 L655,153 L648,150 L639,147 L633,144 L626,142 L617,138 L607,135 L591,129 L574,124 L563,122 L559,120 L547,118 L542,116 L521,111 L505,107 L493,104 L475,99 L455,95 L449,93 L435,91 L413,86 L391,81 L382,79 L373,78 L352,73 L339,71 L335,69 L313,66 L297,63 L275,58 L251,54 L234,52 L213,48 L197,45 L182,44 L176,42 L158,40 L152,39 L130,38 L117,36 L71,33 L54,32 L11,30 L-49,29 L-76,29 L-99,30 L-109,32 L-127,34 L-154,40 L-157,41 L-157,48 L-154,54 L-138,70 L-128,78 L-120,82 L-105,82 L-80,80 L-57,79 L-37,79 L-34,78 L-2,78 L33,79 L47,79 L113,83 L186,90 L217,94 L238,97 L264,101 L294,106 L309,108 L326,111 L353,115 L368,118 L382,120 L395,123 L411,126 L442,132 L478,140 L493,144 L506,146 L519,150 L532,152 L545,156 L580,164 L607,171 L622,175 L662,185 L684,191 L694,194 L705,196 L721,196 L721,187 L722,185 L734,185 L743,188 L769,197 L780,201 L797,208 L807,212 L839,223 L852,227 L876,237 L889,242 L897,247 L897,313 L894,313 L895,318 L897,319 L897,382 L876,377 L871,375 L859,372 L844,368 L838,368 L839,371 L854,378 L867,382 L878,385 L878,387 L884,389 L889,392 L897,396 L897,456 L881,452 L872,449 L858,444 L848,441 L829,435 L805,428 L790,423 L782,421 L770,419 L761,416 L751,413 L739,409 L725,405 L715,403 L694,397 L679,393 L656,388 L633,381 L611,375 L592,370 L571,364 L551,358 L541,356 L536,354 L526,352 L505,345 L497,343 L474,337 L459,332 L444,328 L436,325 L425,323 L401,315 L372,308 L346,300 L332,298 L320,295 L301,292 L289,289 L271,286 L261,285 L253,283 L234,280 L199,276 L184,275 L168,273 L134,270 L125,269 L98,268 L77,267 L35,266 L-23,266 L-47,267 L-63,269 L-94,272 L-118,277 L-121,278 L-133,279 L-143,281 L-159,284 L-169,285 L-179,288 L-189,290 L-189,261 L-164,255 L-142,250 L-128,247 L-115,245 L-92,243 L-83,241 L-13,236 L73,236 L116,237 L122,238 L125,237 L124,232 L112,227 L108,224 L109,220 L112,219 L123,218 L124,216 L105,214 L92,212 L65,211 L62,210 L49,209 L34,204 L22,201 L7,197 L-7,194 L-23,190 L-40,187 L-55,187 L-75,189 L-90,190 L-126,195 L-134,196 L-145,199 L-161,200 L-181,204 L-189,205 L-189,180 L-174,176 L-142,170 L-132,168 L-130,167 L-116,166 L-100,163 L-94,159 L-94,154 L-100,146 L-101,138 L-110,136 L-119,133 L-127,126 L-139,117 L-152,117 L-177,121 L-180,122 L-189,122 L-189,95 L-171,91 L-166,88 L-166,80 L-179,57 L-186,45 L-189,43 L-189,16 L-184,14 L-173,13 L-169,11 L-142,8 L-117,4 L-107,4 L-104,3 L-59,1 L-39,1 Z M-49,107 L-52,108 L-67,109 L-69,114 L-65,119 L-55,126 L-51,134 L-50,135 L-21,137 L-3,143 L23,148 L36,151 L53,153 L77,158 L109,163 L147,167 L158,167 L173,169 L216,174 L232,176 L250,178 L283,183 L290,185 L309,187 L340,192 L354,194 L382,199 L417,205 L424,207 L438,209 L467,215 L478,217 L505,223 L515,225 L530,230 L544,233 L555,235 L583,242 L602,247 L614,250 L623,252 L637,256 L646,258 L660,262 L676,266 L694,271 L712,276 L731,281 L750,287 L767,292 L793,300 L808,305 L825,310 L842,312 L853,311 L858,309 L866,307 L867,306 L867,301 L858,290 L853,285 L844,281 L837,279 L830,275 L812,269 L799,265 L763,253 L742,247 L729,242 L712,238 L695,233 L681,229 L661,223 L652,221 L632,215 L620,213 L608,209 L600,207 L585,204 L569,199 L538,192 L525,188 L514,186 L501,182 L490,180 L471,175 L466,173 L456,171 L442,167 L427,164 L409,160 L407,159 L391,157 L373,153 L342,147 L328,144 L315,142 L289,137 L255,132 L226,126 L205,124 L197,122 L179,120 L159,117 L125,114 L118,113 L88,111 L82,110 L46,109 L0,107 Z M281,216 L281,221 L293,226 L305,229 L318,233 L324,237 L329,245 L341,248 L372,253 L386,256 L406,260 L423,264 L437,267 L446,270 L472,277 L493,283 L514,289 L526,293 L540,297 L549,299 L565,304 L584,309 L608,316 L619,319 L642,326 L650,328 L672,334 L696,341 L704,343 L715,347 L727,350 L734,351 L740,354 L755,358 L757,359 L774,360 L799,358 L800,357 L800,350 L797,340 L792,336 L784,332 L772,329 L762,325 L750,322 L745,320 L733,318 L716,312 L690,304 L660,296 L649,294 L640,291 L623,286 L600,281 L579,275 L567,272 L558,270 L534,264 L518,260 L502,256 L474,250 L455,245 L431,241 L422,238 L401,235 L394,233 L365,228 L352,225 L331,222 L309,219 L296,217 Z " fill="#000000" transform="translate(189,481)"/>
<path d="M0,0 L68,0 L81,1 L132,3 L156,5 L178,6 L193,8 L217,10 L244,13 L247,14 L261,15 L277,17 L298,20 L308,21 L315,22 L317,23 L349,27 L369,30 L381,33 L412,37 L423,40 L439,42 L444,44 L457,45 L467,48 L483,50 L498,55 L521,59 L537,63 L555,67 L570,69 L594,76 L609,79 L637,85 L642,87 L652,88 L658,91 L674,95 L692,100 L701,101 L704,103 L716,106 L727,109 L740,113 L755,117 L771,122 L792,128 L803,131 L811,134 L820,136 L821,137 L829,138 L839,143 L852,147 L876,155 L878,156 L878,196 L869,193 L853,187 L843,184 L835,181 L822,177 L806,172 L796,168 L773,161 L772,160 L763,158 L751,154 L743,152 L725,147 L714,143 L690,137 L666,130 L654,127 L649,125 L634,122 L611,115 L588,110 L582,108 L573,107 L560,103 L540,99 L532,96 L499,89 L484,85 L473,83 L471,82 L460,81 L454,79 L441,77 L424,73 L414,72 L405,70 L377,65 L366,64 L353,61 L325,57 L305,54 L292,53 L280,50 L256,47 L243,45 L231,44 L220,42 L206,41 L202,40 L187,39 L177,37 L146,35 L139,35 L135,34 L112,32 L101,32 L95,31 L65,30 L-19,30 L-36,31 L-55,33 L-77,35 L-108,39 L-134,43 L-144,44 L-155,48 L-168,49 L-173,51 L-189,55 L-204,59 L-208,59 L-208,28 L-199,24 L-186,22 L-176,19 L-171,17 L-164,17 L-148,14 L-133,11 L-129,10 L-111,8 L-96,6 L-82,5 L-77,4 L-34,1 Z " fill="#000000" transform="translate(208,801)"/>
<path d="M0,0 L59,0 L95,1 L102,1 L107,2 L150,4 L170,6 L197,7 L200,8 L250,12 L285,17 L303,19 L306,20 L324,22 L357,27 L372,29 L400,33 L409,34 L422,37 L440,40 L454,42 L460,43 L461,44 L470,44 L477,47 L492,50 L495,51 L506,52 L511,54 L523,56 L546,61 L555,63 L565,64 L569,66 L586,69 L598,71 L602,73 L612,75 L633,81 L650,83 L660,87 L671,90 L686,92 L691,95 L707,100 L717,102 L738,108 L747,111 L756,112 L762,115 L772,117 L788,121 L803,127 L804,128 L815,130 L824,134 L826,135 L835,136 L840,139 L850,141 L850,180 L846,179 L842,177 L831,175 L820,170 L798,163 L791,160 L773,155 L755,149 L737,144 L721,139 L712,138 L702,134 L680,129 L676,127 L660,124 L647,120 L626,115 L610,112 L604,110 L592,108 L581,104 L569,102 L553,98 L542,96 L515,90 L487,84 L471,81 L455,78 L444,75 L424,72 L414,70 L394,67 L373,63 L354,61 L345,59 L327,57 L309,54 L296,52 L286,51 L278,50 L268,48 L241,45 L236,44 L206,42 L195,40 L146,37 L129,35 L86,33 L80,32 L6,32 L1,27 L-1,32 L-21,33 L-31,34 L-56,35 L-77,37 L-81,38 L-96,39 L-119,42 L-125,44 L-150,47 L-170,51 L-196,57 L-211,61 L-227,66 L-236,67 L-236,36 L-226,32 L-210,29 L-198,25 L-187,23 L-172,19 L-140,14 L-125,11 L-116,11 L-109,9 L-85,6 L-45,3 L-42,2 Z " fill="#000000" transform="translate(236,887)"/>
<path d="M0,0 L25,0 L52,1 L69,1 L100,2 L118,4 L133,4 L154,6 L168,7 L183,9 L203,11 L207,12 L224,13 L233,15 L250,16 L262,18 L297,22 L307,24 L350,29 L366,31 L378,34 L393,36 L404,39 L425,42 L448,46 L459,48 L471,51 L480,53 L492,55 L528,63 L547,67 L558,69 L563,71 L578,74 L591,77 L602,79 L613,82 L622,84 L638,88 L642,90 L652,92 L658,94 L665,94 L670,96 L680,98 L685,100 L690,99 L693,102 L709,106 L723,110 L734,112 L742,115 L752,116 L758,120 L775,125 L775,136 L684,136 L684,134 L672,132 L660,128 L643,124 L632,120 L616,117 L600,113 L570,106 L564,104 L555,103 L538,98 L513,93 L486,88 L471,85 L444,80 L439,78 L415,74 L396,71 L390,68 L375,67 L359,64 L346,62 L332,59 L309,57 L297,54 L286,54 L281,52 L263,51 L215,45 L212,44 L184,42 L179,41 L119,37 L115,36 L56,33 L37,32 L-48,32 L-111,35 L-128,37 L-150,39 L-160,41 L-174,42 L-181,44 L-195,46 L-210,47 L-226,51 L-238,53 L-243,55 L-256,57 L-264,60 L-276,64 L-297,69 L-307,72 L-311,73 L-311,43 L-301,39 L-287,36 L-283,34 L-274,33 L-270,31 L-255,28 L-246,25 L-224,21 L-219,19 L-179,13 L-153,9 L-129,6 L-110,5 L-93,3 L-62,1 Z " fill="#000000" transform="translate(311,974)"/>
<path d="M0,0 L99,0 L108,1 L151,2 L202,6 L221,7 L234,9 L275,13 L279,14 L292,15 L305,17 L325,19 L340,21 L350,23 L375,26 L393,29 L406,31 L423,34 L438,35 L443,37 L462,39 L469,41 L484,42 L487,44 L507,48 L514,50 L526,52 L538,55 L538,57 L358,57 L351,55 L335,53 L316,51 L292,47 L268,45 L250,42 L222,40 L211,39 L193,37 L182,37 L169,36 L162,36 L151,34 L121,33 L99,32 L91,31 L10,30 L-66,33 L-87,34 L-93,35 L-110,36 L-134,40 L-147,42 L-162,43 L-166,45 L-183,48 L-202,50 L-210,53 L-232,56 L-233,57 L-316,57 L-316,52 L-295,45 L-283,42 L-273,38 L-263,36 L-256,33 L-236,29 L-215,24 L-203,22 L-195,20 L-159,14 L-129,10 L-113,8 L-102,6 L-75,4 L-69,3 Z " fill="#000000" transform="translate(316,1053)"/>
</svg>
