<?xml version="1.0" encoding="UTF-8"?>
<!-- Generator: visioncortex VTracer 0.6.12 -->
<svg version="1.1" xmlns="http://www.w3.org/2000/svg" width="1035" height="882">
<path d="M0,0 L7,0 L20,4 L34,15 L39,19 L47,30 L54,37 L59,42 L64,44 L75,43 L88,40 L95,41 L103,41 L114,40 L129,41 L138,45 L148,49 L158,56 L170,68 L178,83 L183,88 L191,99 L198,108 L208,117 L214,128 L214,138 L210,145 L201,155 L198,157 L191,159 L170,158 L162,158 L159,159 L148,160 L147,161 L132,161 L111,163 L107,167 L106,169 L104,183 L102,191 L99,211 L96,223 L84,248 L77,259 L65,276 L57,286 L52,290 L47,295 L39,302 L32,312 L24,323 L18,331 L8,342 L3,347 L-6,357 L-9,361 L-10,366 L-8,373 L4,386 L7,389 L7,391 L12,393 L20,403 L30,412 L45,423 L50,429 L56,434 L62,444 L65,450 L66,455 L66,463 L63,476 L57,487 L51,495 L45,503 L39,508 L28,511 L19,509 L14,505 L12,492 L14,485 L21,476 L27,467 L27,461 L22,459 L16,454 L-3,445 L-11,440 L-22,434 L-26,431 L-34,427 L-42,423 L-50,418 L-57,417 L-62,418 L-64,422 L-72,434 L-75,441 L-84,458 L-91,468 L-100,487 L-103,498 L-105,522 L-113,548 L-121,564 L-130,581 L-142,597 L-150,605 L-155,610 L-165,619 L-173,626 L-179,631 L-192,638 L-208,646 L-234,657 L-240,666 L-242,678 L-244,690 L-246,725 L-246,750 L-243,756 L-240,758 L-223,759 L-213,761 L-202,762 L-180,764 L-148,764 L-127,765 L-122,767 L-111,767 L-101,770 L-85,771 L-66,778 L-57,779 L-52,782 L-35,788 L-27,793 L-19,797 L-10,803 L-3,810 L-1,813 L-1,820 L-7,823 L-17,825 L-48,825 L-61,824 L-76,824 L-81,825 L-86,824 L-106,823 L-119,822 L-162,822 L-173,821 L-188,821 L-196,819 L-258,820 L-306,820 L-317,819 L-324,815 L-326,810 L-325,797 L-324,785 L-321,772 L-318,733 L-317,705 L-317,679 L-322,664 L-327,659 L-340,656 L-347,659 L-353,673 L-359,695 L-368,715 L-376,731 L-387,747 L-400,762 L-411,774 L-413,774 L-415,778 L-425,785 L-440,795 L-459,804 L-468,807 L-484,809 L-491,810 L-547,810 L-578,809 L-595,808 L-618,808 L-633,807 L-641,807 L-645,806 L-660,806 L-673,805 L-698,805 L-713,803 L-723,800 L-740,797 L-761,793 L-764,790 L-764,785 L-755,775 L-753,775 L-752,772 L-749,769 L-747,769 L-746,766 L-719,751 L-712,748 L-703,745 L-689,742 L-687,741 L-669,739 L-650,735 L-628,733 L-625,732 L-609,732 L-597,731 L-585,731 L-543,729 L-532,727 L-513,728 L-505,726 L-489,725 L-477,721 L-463,715 L-453,706 L-452,704 L-450,704 L-448,700 L-437,683 L-433,670 L-430,645 L-429,638 L-430,605 L-432,570 L-434,496 L-435,484 L-434,468 L-433,434 L-431,418 L-428,395 L-424,381 L-421,371 L-408,343 L-405,337 L-397,327 L-393,322 L-388,317 L-374,303 L-359,294 L-350,288 L-342,283 L-328,277 L-319,275 L-303,269 L-284,265 L-279,263 L-264,262 L-257,262 L-254,261 L-242,260 L-240,259 L-226,258 L-214,255 L-197,253 L-187,250 L-179,250 L-175,248 L-164,246 L-151,242 L-140,238 L-136,236 L-128,234 L-111,225 L-101,216 L-89,209 L-77,201 L-70,199 L-63,194 L-56,194 L-49,192 L-30,190 L-24,189 L-3,192 L2,195 L9,193 L13,188 L16,182 L24,150 L27,134 L28,119 L28,92 L23,79 L13,67 L5,53 L-3,37 L-7,24 L-7,8 L-4,2 Z M130,85 L128,87 L129,92 L134,96 L139,97 L141,94 L140,89 L136,85 Z M-310,738 L-310,740 L-308,740 L-308,738 Z " fill="#000000" transform="translate(793,30)"/>
</svg>
