<?xml version="1.0" encoding="UTF-8"?>
<!-- Generator: visioncortex VTracer 0.6.12 -->
<svg version="1.1" xmlns="http://www.w3.org/2000/svg" width="1107" height="1107">
<path d="M0,0 L1107,0 L1107,1107 L0,1107 Z M564,100 L546,103 L529,109 L515,117 L501,128 L490,140 L483,150 L476,164 L471,179 L468,197 L468,216 L470,228 L475,245 L483,261 L493,274 L498,280 L506,287 L516,294 L526,300 L539,306 L551,309 L571,311 L580,311 L596,308 L610,304 L626,296 L636,289 L644,282 L653,273 L665,256 L674,234 L677,221 L678,205 L678,197 L674,175 L668,160 L663,150 L654,138 L648,131 L640,124 L629,116 L614,108 L600,103 L590,101 L579,100 Z M724,336 L709,340 L697,346 L685,356 L678,365 L672,379 L670,387 L670,406 L673,417 L677,426 L683,435 L691,444 L717,458 L733,465 L761,478 L776,485 L791,492 L824,507 L848,518 L861,521 L871,521 L884,519 L896,514 L904,509 L913,501 L921,490 L926,477 L927,471 L927,452 L923,438 L917,428 L910,419 L898,410 L869,395 L850,386 L836,379 L821,372 L798,361 L766,345 L754,340 L739,336 Z M560,339 L547,343 L537,348 L529,354 L525,360 L516,373 L506,390 L496,407 L486,424 L480,433 L475,442 L471,448 L465,459 L459,469 L454,478 L443,496 L430,517 L419,535 L412,546 L399,567 L393,577 L386,591 L384,599 L384,617 L388,631 L395,643 L400,649 L408,656 L417,661 L429,666 L444,667 L559,668 L637,669 L701,669 L712,666 L722,660 L730,654 L737,646 L741,640 L746,628 L748,619 L748,604 L746,593 L741,580 L732,565 L718,540 L708,522 L697,503 L687,485 L676,467 L659,438 L647,416 L639,401 L631,388 L626,378 L618,364 L611,355 L603,348 L591,342 L586,340 L580,339 Z M390,341 L372,343 L368,344 L355,345 L334,348 L286,354 L263,357 L245,361 L235,364 L224,370 L213,379 L206,389 L201,399 L198,412 L198,428 L201,441 L206,451 L216,464 L225,471 L236,477 L250,480 L259,480 L268,478 L291,476 L313,473 L347,469 L368,467 L378,466 L398,463 L416,462 L428,458 L436,454 L445,447 L452,440 L459,428 L463,417 L465,409 L465,391 L461,378 L455,366 L444,354 L434,347 L424,343 L418,341 Z M94,355 L92,357 L92,360 L96,361 L98,360 L98,356 Z M463,687 L454,688 L445,691 L429,699 L418,710 L409,725 L403,735 L396,746 L388,759 L380,772 L371,787 L364,801 L356,813 L350,812 L339,805 L323,797 L312,794 L290,794 L278,798 L264,806 L257,812 L249,823 L244,833 L240,847 L240,864 L242,873 L245,882 L252,894 L260,902 L274,911 L291,921 L302,928 L317,937 L334,947 L350,956 L366,962 L370,963 L386,963 L396,960 L406,956 L417,946 L426,934 L435,919 L450,894 L464,870 L471,859 L477,848 L483,839 L488,830 L495,818 L508,796 L515,785 L525,767 L527,761 L528,754 L528,739 L525,726 L517,712 L511,705 L503,698 L487,690 L473,687 Z M646,688 L629,693 L618,700 L605,712 L600,719 L594,734 L592,745 L592,755 L597,774 L606,788 L611,794 L619,801 L629,811 L637,818 L651,832 L659,839 L665,844 L669,849 L677,856 L693,872 L694,878 L673,899 L667,908 L662,918 L659,931 L658,938 L660,953 L666,969 L673,978 L678,984 L688,991 L702,998 L719,1000 L732,999 L742,996 L754,989 L769,975 L776,968 L783,960 L788,954 L795,948 L802,940 L826,916 L834,905 L839,894 L842,878 L841,862 L838,851 L832,840 L826,832 L812,817 L790,795 L785,790 L779,785 L772,777 L730,735 L725,730 L706,711 L692,700 L681,693 L662,688 Z M901,910 L902,917 L905,919 L906,918 L906,911 Z " fill="#000000" transform="translate(0,0)"/>
</svg>
