<?xml version="1.0" encoding="UTF-8"?>
<!-- Generator: visioncortex VTracer 0.6.12 -->
<svg version="1.1" xmlns="http://www.w3.org/2000/svg" width="1134" height="1110">
<path d="M0,0 L1132,0 L1132,86 L1133,154 L1133,163 L1134,168 L1134,179 L1133,189 L1134,195 L1134,1110 L0,1110 Z M688,44 L683,47 L676,58 L668,72 L661,83 L657,91 L651,100 L644,113 L636,127 L628,140 L624,148 L618,158 L609,174 L602,185 L596,197 L591,205 L580,224 L574,238 L569,245 L562,259 L557,266 L550,280 L543,290 L537,302 L529,316 L518,336 L512,345 L505,358 L499,367 L493,379 L485,392 L479,402 L476,409 L469,420 L457,441 L448,457 L440,471 L431,487 L427,493 L421,504 L415,515 L409,526 L403,536 L398,545 L398,554 L403,559 L416,567 L420,571 L419,576 L415,583 L410,592 L406,598 L400,610 L391,625 L389,630 L390,637 L404,646 L431,661 L448,671 L459,677 L465,677 L470,672 L480,656 L484,649 L492,635 L500,622 L503,618 L508,619 L514,623 L526,629 L533,628 L539,620 L550,601 L556,590 L561,582 L574,560 L582,544 L588,533 L592,526 L599,526 L609,532 L634,545 L651,555 L662,561 L672,568 L682,574 L688,579 L693,583 L695,583 L697,587 L704,593 L710,601 L715,606 L722,616 L733,637 L739,652 L745,674 L748,691 L749,703 L749,738 L747,758 L744,774 L737,797 L727,818 L714,837 L704,848 L699,853 L686,864 L671,874 L656,881 L638,888 L628,890 L622,892 L599,895 L596,896 L569,898 L565,899 L515,900 L395,900 L390,904 L389,907 L388,979 L383,981 L360,981 L274,982 L253,982 L221,983 L218,985 L216,992 L216,1051 L217,1067 L221,1072 L226,1073 L402,1073 L579,1072 L617,1072 L807,1071 L896,1071 L910,1070 L915,1067 L917,1061 L917,1034 L916,989 L912,982 L908,980 L872,980 L863,979 L853,980 L677,980 L648,979 L649,977 L667,973 L683,967 L694,963 L706,958 L724,948 L734,941 L746,933 L755,925 L760,920 L770,911 L777,904 L784,896 L793,884 L807,862 L813,851 L822,832 L833,799 L840,767 L842,754 L843,741 L843,695 L839,669 L834,645 L827,621 L822,610 L814,592 L806,577 L797,563 L785,547 L774,534 L767,526 L759,519 L752,512 L739,502 L727,493 L714,485 L702,477 L692,472 L674,462 L655,451 L645,445 L644,444 L644,437 L655,418 L663,404 L675,383 L681,373 L687,362 L696,346 L701,339 L707,327 L721,303 L731,285 L739,271 L743,264 L746,259 L753,247 L762,230 L768,220 L776,206 L786,188 L790,182 L796,171 L803,159 L812,143 L818,132 L821,127 L821,121 L816,115 L795,103 L771,89 L758,81 L749,76 L726,63 L710,54 L693,45 Z M67,302 L67,309 L66,311 L70,309 L72,307 L72,302 Z M65,312 Z M235,638 L229,643 L219,659 L214,672 L216,678 L221,682 L242,694 L259,704 L274,712 L297,725 L325,740 L335,746 L343,750 L353,756 L372,766 L388,775 L410,787 L432,799 L446,807 L457,813 L473,822 L487,830 L506,840 L511,843 L518,843 L523,839 L529,829 L538,812 L538,804 L530,797 L507,785 L485,772 L473,766 L457,757 L428,741 L418,735 L407,729 L393,721 L383,716 L368,708 L358,702 L329,687 L322,682 L306,674 L285,662 L264,651 L242,639 Z " fill="#000000" transform="translate(0,0)"/>
</svg>
