<?xml version="1.0" encoding="UTF-8"?>
<!-- Generator: visioncortex VTracer 0.6.12 -->
<svg version="1.1" xmlns="http://www.w3.org/2000/svg" width="765" height="702">
<path d="M0,0 L37,0 L46,4 L52,8 L61,21 L65,37 L65,57 L66,70 L67,110 L66,158 L67,189 L67,241 L68,341 L68,415 L69,449 L65,452 L38,451 L19,451 L-4,452 L-40,451 L-58,451 L-81,452 L-85,457 L-93,473 L-96,481 L-101,494 L-105,500 L-109,508 L-115,524 L-121,538 L-129,556 L-136,571 L-140,582 L-144,590 L-149,604 L-154,616 L-158,625 L-162,629 L-193,630 L-314,630 L-330,631 L-375,631 L-402,632 L-408,631 L-411,632 L-455,632 L-494,633 L-516,633 L-551,634 L-604,634 L-621,633 L-625,629 L-626,623 L-626,596 L-622,587 L-617,573 L-612,563 L-610,557 L-606,548 L-601,535 L-596,522 L-591,512 L-585,496 L-579,482 L-575,470 L-570,459 L-566,446 L-561,440 L-559,430 L-554,416 L-550,407 L-547,397 L-540,383 L-532,362 L-528,353 L-524,340 L-520,332 L-515,318 L-509,302 L-505,293 L-498,276 L-494,263 L-486,244 L-480,227 L-477,222 L-473,209 L-468,199 L-464,187 L-462,184 L-458,171 L-450,154 L-446,142 L-441,131 L-438,122 L-431,104 L-428,96 L-427,88 L-431,82 L-439,75 L-446,68 L-451,56 L-452,52 L-452,43 L-449,29 L-443,19 L-438,14 L-429,8 L-422,4 L-414,2 L-403,2 L-396,1 L-394,2 L-140,2 L-130,1 L-30,1 Z M-206,9 L-210,11 L-217,10 L-396,10 L-424,13 L-432,17 L-440,27 L-443,32 L-445,51 L-442,60 L-436,70 L-428,75 L-419,78 L-411,81 L-396,81 L-390,83 L-385,81 L-303,81 L-217,80 L-199,79 L-192,80 L-128,80 L-110,79 L-41,79 L-32,78 L-17,78 L-11,79 L-5,77 L-4,75 L-4,68 L-7,61 L-10,46 L-10,36 L-5,23 L-2,18 L-2,12 L-4,10 L-25,9 L-116,9 L-186,10 L-193,9 Z M-125,85 L-184,86 L-259,86 L-263,87 L-410,87 L-417,92 L-421,102 L-429,122 L-437,142 L-444,160 L-448,169 L-455,186 L-460,201 L-464,210 L-465,215 L-465,223 L-463,225 L-450,226 L-400,226 L-393,227 L-370,226 L-211,226 L-204,225 L-45,225 L-40,223 L-28,223 L-23,218 L-16,202 L-12,193 L-4,173 L1,161 L6,148 L11,136 L15,127 L25,102 L28,93 L26,88 L23,86 L8,85 Z M-216,230 L-224,239 L-224,244 L-221,246 L-214,245 L-210,244 L-210,239 L-213,235 L-212,231 Z M-370,231 L-374,238 L-375,248 L-370,250 L-367,247 L-362,245 L-359,232 L-360,231 Z M-288,231 L-295,232 L-300,232 L-304,238 L-304,243 L-301,244 L-295,243 L-293,244 L-286,244 L-283,242 L-282,235 L-285,231 Z M-150,232 L-150,236 L-146,240 L-141,240 L-141,235 L-147,232 Z M-444,237 L-449,242 L-454,245 L-456,254 L-463,255 L-477,256 L-483,260 L-487,268 L-492,280 L-499,301 L-505,315 L-508,324 L-513,336 L-515,339 L-518,348 L-522,361 L-527,371 L-533,389 L-532,394 L-528,397 L-474,397 L-469,392 L-463,377 L-461,374 L-458,365 L-453,353 L-448,338 L-443,328 L-437,311 L-431,297 L-426,284 L-419,267 L-419,259 L-422,255 L-442,255 L-445,254 L-442,245 L-439,240 L-440,237 Z M-77,241 L-81,244 L-81,248 L-75,249 L-72,245 L-73,241 Z M-102,252 L-109,256 L-115,265 L-121,280 L-128,295 L-134,312 L-142,330 L-154,358 L-162,378 L-166,388 L-165,393 L-162,396 L-110,396 L-96,393 L-89,379 L-80,357 L-76,347 L-72,338 L-56,301 L-52,289 L-48,281 L-41,262 L-41,257 L-43,255 L-52,253 L-55,254 L-57,253 L-83,253 L-92,252 Z M-132,253 L-172,254 L-180,256 L-184,261 L-191,277 L-197,293 L-207,318 L-212,329 L-221,351 L-226,362 L-234,383 L-236,386 L-236,393 L-232,396 L-179,396 L-174,392 L-165,373 L-160,361 L-156,352 L-145,325 L-140,315 L-135,302 L-132,295 L-123,275 L-120,266 L-118,257 L-120,254 Z M-396,255 L-406,256 L-411,260 L-415,270 L-423,291 L-429,307 L-431,310 L-434,319 L-439,331 L-443,341 L-447,353 L-449,356 L-453,369 L-458,380 L-461,391 L-458,396 L-454,397 L-404,397 L-395,396 L-392,391 L-387,380 L-379,360 L-374,348 L-370,336 L-366,329 L-361,314 L-358,305 L-353,295 L-350,286 L-345,274 L-341,264 L-342,258 L-345,255 Z M-226,253 L-234,254 L-248,254 L-254,256 L-259,266 L-264,279 L-269,289 L-272,298 L-275,303 L-276,308 L-280,310 L-278,302 L-273,288 L-269,281 L-264,266 L-263,264 L-263,258 L-266,255 L-273,254 L-328,255 L-334,259 L-338,270 L-344,282 L-347,291 L-353,307 L-357,317 L-364,332 L-367,341 L-371,352 L-377,364 L-382,379 L-385,389 L-385,394 L-383,396 L-366,397 L-366,403 L-368,408 L-367,413 L-365,417 L-368,421 L-367,425 L-358,426 L-353,423 L-351,418 L-352,412 L-354,410 L-354,403 L-357,401 L-357,398 L-353,397 L-345,398 L-342,397 L-320,396 L-313,386 L-303,363 L-292,336 L-289,333 L-288,338 L-292,347 L-296,357 L-300,366 L-303,376 L-307,384 L-308,393 L-305,396 L-289,398 L-283,398 L-281,396 L-256,396 L-249,394 L-244,389 L-238,379 L-234,367 L-228,352 L-224,344 L-217,326 L-212,316 L-208,305 L-203,293 L-198,282 L-192,265 L-192,256 L-196,254 L-217,254 Z M-439,405 L-445,412 L-448,421 L-445,424 L-440,421 L-435,418 L-434,416 L-434,406 Z M-224,405 L-227,410 L-226,415 L-220,415 L-213,421 L-208,420 L-208,415 L-211,412 L-216,409 L-219,405 Z M-152,408 L-155,411 L-156,422 L-154,423 L-147,423 L-141,419 L-141,418 L-148,416 L-149,409 Z M-137,413 L-140,418 L-134,416 L-135,413 Z M-289,414 L-292,416 L-298,417 L-299,420 L-297,423 L-293,424 L-286,421 L-283,417 L-284,414 Z M-515,415 L-523,420 L-522,425 L-518,426 L-512,423 L-511,416 Z M-188,427 L-188,436 L-192,448 L-195,452 L-199,464 L-205,476 L-212,491 L-216,503 L-221,513 L-226,526 L-232,537 L-237,551 L-242,561 L-244,567 L-251,584 L-253,590 L-252,596 L-249,598 L-216,598 L-184,597 L-180,593 L-170,572 L-165,559 L-159,545 L-152,530 L-148,520 L-144,511 L-139,499 L-135,490 L-128,473 L-123,460 L-117,445 L-115,439 L-116,432 L-121,431 L-166,430 L-178,430 L-185,431 L-186,427 Z M-282,430 L-324,431 L-328,433 L-333,445 L-342,468 L-346,477 L-350,485 L-352,491 L-356,501 L-360,512 L-362,514 L-365,523 L-371,537 L-377,553 L-380,558 L-384,571 L-389,581 L-391,590 L-392,597 L-389,599 L-365,599 L-357,600 L-336,598 L-330,594 L-326,585 L-320,571 L-316,561 L-311,551 L-306,538 L-302,530 L-298,518 L-293,508 L-287,495 L-281,479 L-275,465 L-270,454 L-266,444 L-264,438 L-264,433 L-267,431 Z M-213,429 L-230,430 L-251,431 L-256,434 L-262,447 L-265,455 L-271,468 L-279,489 L-284,500 L-291,517 L-296,527 L-299,536 L-305,549 L-309,559 L-313,568 L-321,588 L-323,591 L-322,597 L-316,599 L-285,599 L-265,597 L-260,591 L-257,584 L-252,573 L-242,549 L-234,533 L-228,518 L-224,510 L-219,497 L-216,491 L-211,479 L-206,469 L-195,442 L-194,433 L-196,431 Z M-548,432 L-553,438 L-558,451 L-560,455 L-559,463 L-555,467 L-555,472 L-564,471 L-568,475 L-572,483 L-576,495 L-580,504 L-585,518 L-589,527 L-597,548 L-602,558 L-606,568 L-611,581 L-614,590 L-614,596 L-610,599 L-600,600 L-572,600 L-561,599 L-555,596 L-555,594 L-551,592 L-544,578 L-542,575 L-539,566 L-533,552 L-529,542 L-527,539 L-524,529 L-520,520 L-512,501 L-507,488 L-502,476 L-495,460 L-491,450 L-488,440 L-489,434 L-491,432 Z M-382,430 L-400,431 L-405,436 L-410,449 L-410,451 L-413,450 L-412,439 L-411,434 L-414,431 L-438,431 L-476,432 L-481,437 L-489,457 L-491,460 L-495,473 L-499,482 L-506,499 L-510,511 L-514,520 L-518,526 L-520,536 L-524,545 L-527,550 L-532,564 L-536,573 L-538,579 L-542,589 L-542,597 L-539,600 L-480,600 L-474,595 L-469,583 L-465,575 L-460,561 L-454,546 L-449,534 L-444,522 L-432,493 L-423,471 L-419,469 L-420,476 L-424,484 L-429,498 L-431,501 L-434,510 L-438,518 L-444,535 L-449,546 L-460,572 L-464,582 L-467,591 L-466,597 L-461,599 L-450,600 L-432,600 L-421,599 L-405,599 L-400,594 L-396,586 L-393,578 L-389,570 L-383,554 L-377,541 L-372,528 L-367,515 L-363,506 L-356,492 L-351,479 L-340,451 L-337,444 L-335,438 L-335,433 L-337,431 L-356,431 L-361,430 L-370,431 L-375,430 Z " fill="#000000" transform="translate(662,36)"/>
<path d="M0,0 L3,1 L1,10 L-2,16 L-6,18 L-7,14 L-4,5 Z " fill="#000000" transform="translate(380,349)"/>
<path d="M0,0 L2,1 L2,6 L-1,7 L-2,2 Z " fill="#000000" transform="translate(244,496)"/>
<path d="M0,0 L4,1 L4,6 L-1,7 L-2,2 Z " fill="#000000" transform="translate(119,548)"/>
</svg>
