<?xml version="1.0" encoding="UTF-8"?>
<!-- Generator: visioncortex VTracer 0.6.12 -->
<svg version="1.1" xmlns="http://www.w3.org/2000/svg" width="1113" height="1242">
<path d="M0,0 L17,0 L26,3 L29,6 L28,43 L27,53 L28,84 L28,203 L27,262 L28,307 L28,381 L27,410 L28,429 L28,496 L29,550 L29,608 L30,667 L30,698 L29,705 L30,713 L30,883 L31,930 L31,1024 L29,1029 L26,1032 L-196,1032 L-199,1033 L-225,1033 L-240,1034 L-313,1034 L-367,1035 L-412,1035 L-428,1036 L-452,1036 L-461,1035 L-469,1036 L-532,1037 L-583,1037 L-639,1038 L-673,1038 L-703,1039 L-723,1038 L-734,1039 L-847,1040 L-905,1041 L-953,1041 L-1004,1043 L-1008,1039 L-1008,1012 L-1007,1004 L-1008,996 L-1008,797 L-1009,720 L-1009,585 L-1007,581 L-1009,573 L-1010,516 L-1010,443 L-1011,361 L-1011,310 L-1012,176 L-1012,125 L-1014,30 L-1014,19 L-1010,14 L-1003,12 L-996,13 L-993,14 L-944,12 L-892,13 L-889,12 L-869,11 L-849,11 L-845,10 L-824,11 L-813,10 L-793,10 L-739,8 L-705,8 L-685,7 L-649,7 L-644,6 L-635,7 L-629,6 L-614,7 L-604,6 L-541,5 L-488,5 L-476,4 L-467,5 L-415,4 L-406,3 L-386,4 L-375,3 L-357,4 L-349,3 L-345,4 L-340,2 L-298,2 L-289,1 L-285,2 L-237,2 L-215,1 L-212,2 L-204,2 L-194,1 L-191,2 L-172,1 L-28,1 Z M-48,10 L-52,12 L-80,12 L-83,13 L-119,12 L-172,12 L-181,13 L-242,13 L-249,12 L-257,13 L-287,13 L-322,14 L-357,14 L-363,15 L-377,14 L-380,15 L-409,15 L-456,16 L-493,16 L-582,17 L-599,17 L-609,18 L-650,19 L-687,19 L-714,20 L-789,20 L-810,21 L-828,20 L-838,21 L-885,22 L-895,23 L-910,22 L-913,23 L-931,23 L-956,24 L-988,24 L-999,26 L-1001,28 L-1002,56 L-1001,66 L-1001,93 L-1002,126 L-1002,145 L-1001,193 L-1001,250 L-1002,254 L-1001,270 L-1000,281 L-1001,296 L-999,436 L-999,471 L-998,486 L-995,492 L-991,494 L-961,494 L-852,493 L-828,492 L-786,492 L-746,491 L-709,491 L-701,490 L-671,490 L-661,489 L-623,489 L-616,487 L-612,489 L-509,489 L-494,488 L-450,488 L-422,487 L-385,487 L-340,488 L-334,489 L-332,488 L-323,488 L-311,487 L-267,487 L-261,488 L-257,487 L-231,486 L-211,486 L-184,487 L-61,487 L-36,486 L-7,486 L-5,487 L10,486 L15,482 L16,480 L17,464 L17,385 L16,364 L16,210 L15,75 L15,36 L14,18 L10,14 L5,13 L-32,13 L-43,12 Z M-387,544 L-391,546 L-405,546 L-409,547 L-444,548 L-503,548 L-509,547 L-515,549 L-547,549 L-563,548 L-595,550 L-607,549 L-611,550 L-661,550 L-668,549 L-675,550 L-739,551 L-766,550 L-769,551 L-803,551 L-821,552 L-888,552 L-918,553 L-922,552 L-929,552 L-931,553 L-943,555 L-947,559 L-948,567 L-948,655 L-947,713 L-947,777 L-946,817 L-947,844 L-947,893 L-946,914 L-946,967 L-944,977 L-940,980 L-936,981 L-895,981 L-865,980 L-853,980 L-836,979 L-831,977 L-824,977 L-818,979 L-804,980 L-772,979 L-763,980 L-759,979 L-700,978 L-656,978 L-638,977 L-623,977 L-589,976 L-473,976 L-462,975 L-351,974 L-317,973 L-286,969 L-241,969 L-228,970 L-208,970 L-194,968 L-158,968 L-148,972 L-143,973 L-139,972 L-109,972 L-100,971 L-37,971 L-29,967 L-27,958 L-27,831 L-28,818 L-28,735 L-29,704 L-29,627 L-30,555 L-32,547 L-37,544 L-66,544 L-127,545 L-204,544 L-211,545 L-278,545 L-286,546 L-303,545 L-320,546 L-342,546 L-346,545 L-353,545 L-361,547 L-365,546 L-381,545 Z " fill="#000000" transform="translate(1050,37)"/>
<path d="M0,0 L21,0 L24,2 L35,2 L52,7 L61,11 L70,15 L85,25 L95,33 L110,46 L122,55 L132,63 L137,67 L151,72 L158,75 L165,77 L188,79 L207,78 L235,78 L274,77 L324,77 L326,76 L350,76 L406,75 L430,75 L445,79 L453,83 L462,89 L470,96 L475,102 L476,112 L471,121 L456,135 L447,143 L444,145 L441,150 L437,152 L429,151 L414,144 L406,144 L396,149 L388,154 L378,156 L371,153 L352,153 L342,148 L333,142 L329,139 L315,139 L300,148 L298,149 L290,149 L280,146 L273,146 L256,154 L247,151 L235,147 L228,147 L214,155 L209,159 L198,166 L190,174 L184,191 L176,197 L164,197 L148,189 L141,185 L133,184 L123,187 L113,196 L105,203 L98,211 L87,220 L75,231 L66,237 L58,242 L46,247 L43,249 L34,252 L25,255 L5,257 L-19,256 L-35,253 L-49,247 L-58,241 L-74,231 L-82,222 L-82,220 L-86,218 L-92,211 L-99,201 L-104,191 L-109,182 L-115,163 L-118,152 L-119,137 L-119,118 L-118,105 L-114,88 L-108,74 L-101,61 L-91,49 L-82,38 L-73,31 L-69,26 L-58,20 L-50,15 L-42,11 L-38,9 L-30,7 L-21,4 Z M-57,96 L-69,101 L-74,106 L-79,111 L-83,119 L-84,127 L-83,138 L-78,148 L-66,157 L-55,161 L-42,160 L-29,154 L-23,147 L-18,137 L-17,133 L-17,121 L-22,109 L-27,104 L-33,98 L-44,96 Z " fill="#000000" transform="translate(370,165)"/>
<path d="M0,0 L34,0 L40,2 L43,7 L44,16 L44,28 L45,39 L48,45 L52,47 L213,47 L240,46 L262,47 L271,51 L275,58 L276,65 L277,94 L277,185 L278,204 L278,242 L277,250 L277,276 L278,293 L277,314 L278,354 L275,371 L271,377 L265,380 L248,382 L235,382 L229,381 L223,382 L206,383 L104,383 L69,384 L-32,384 L-37,385 L-53,384 L-57,385 L-83,385 L-112,386 L-120,387 L-142,386 L-168,386 L-175,385 L-185,386 L-217,387 L-281,387 L-293,385 L-298,381 L-302,373 L-304,362 L-304,259 L-305,80 L-301,62 L-297,57 L-290,53 L-253,52 L-218,52 L-172,51 L-151,51 L-146,50 L-87,49 L-80,46 L-78,42 L-77,36 L-76,9 L-73,4 L-70,2 L-60,1 L-2,1 Z M-17,21 L-53,22 L-61,25 L-64,28 L-65,31 L-65,41 L-62,46 L-58,49 L-24,50 L-9,49 L5,49 L17,50 L29,46 L32,42 L33,39 L33,31 L30,24 L24,21 Z " fill="#000000" transform="translate(574,604)"/>
<path d="M0,0 L6,2 L8,5 L7,18 L2,28 L-3,31 L-6,28 L-4,23 L-3,22 L-3,16 L-6,12 L-6,4 L-3,1 Z " fill="#000000" transform="translate(127,1125)"/>
<path d="M0,0 L11,0 L15,5 L20,15 L24,22 L24,24 L31,24 L36,19 L41,14 L45,5 L53,0 L58,0 L59,6 L53,15 L45,26 L38,37 L38,42 L42,47 L50,60 L54,65 L57,71 L61,76 L59,81 L50,81 L43,75 L31,55 L26,54 L20,62 L14,71 L10,77 L2,81 L-2,80 L-3,75 L4,65 L10,57 L18,45 L19,36 L10,22 L6,17 L-1,6 L-1,1 Z " fill="#000000" transform="translate(47,1128)"/>
<path d="M0,0 L15,0 L25,6 L29,13 L29,20 L28,21 L23,21 L16,13 L12,11 L3,11 L-3,15 L-6,19 L-7,29 L-3,31 L3,28 L15,28 L23,32 L29,39 L31,43 L32,55 L30,65 L26,71 L21,76 L19,80 L-1,80 L-11,75 L-15,70 L-20,59 L-22,49 L-22,38 L-20,23 L-16,15 L-13,10 L-7,3 Z M1,38 L-5,42 L-8,47 L-9,56 L-6,64 L-1,69 L6,72 L11,71 L16,65 L19,62 L20,59 L20,52 L16,42 L12,38 Z " fill="#000000" transform="translate(170,1129)"/>
<path d="M0,0 L32,0 L34,3 L34,10 L31,15 L24,23 L16,38 L11,53 L7,67 L5,76 L1,80 L-5,80 L-7,77 L-8,67 L-3,49 L5,33 L11,25 L13,20 L14,14 L8,13 L-15,12 L-17,10 L-17,3 L-14,1 Z " fill="#000000" transform="translate(231,1129)"/>
</svg>
