<?xml version="1.0" encoding="UTF-8"?>
<!-- Generator: visioncortex VTracer 0.6.12 -->
<svg version="1.1" xmlns="http://www.w3.org/2000/svg" width="1314" height="1335">
<path d="M0,0 L405,0 L405,48 L369,49 L324,50 L302,51 L249,51 L208,52 L186,52 L115,54 L49,55 L27,56 L6,56 L-73,58 L-101,58 L-103,59 L-127,59 L-236,61 L-250,61 L-272,62 L-302,62 L-423,64 L-449,64 L-460,65 L-512,65 L-542,66 L-585,66 L-704,67 L-800,67 L-817,68 L-837,68 L-863,69 L-886,69 L-909,68 L-909,13 L-863,12 L-844,12 L-791,11 L-786,9 L-785,8 L-780,8 L-775,11 L-708,11 L-679,10 L-674,11 L-643,11 L-520,10 L-478,9 L-399,8 L-368,8 L-272,6 L-200,5 L-115,3 L-43,2 L-5,1 Z " fill="#000000" transform="translate(909,0)"/>
<path d="M0,0 L89,0 L113,1 L123,4 L124,6 L125,17 L125,93 L126,109 L127,157 L127,175 L126,192 L127,195 L128,212 L128,266 L129,288 L130,336 L131,461 L130,478 L129,483 L130,485 L131,515 L131,537 L132,571 L132,606 L133,659 L133,753 L134,806 L134,832 L135,870 L135,939 L134,943 L134,950 L136,954 L136,1016 L132,1021 L119,1023 L100,1023 L95,1024 L91,1023 L67,1023 L34,1024 L-29,1024 L-107,1026 L-139,1026 L-156,1025 L-158,1026 L-174,1026 L-178,1027 L-199,1027 L-202,1025 L-207,1026 L-208,1027 L-222,1028 L-227,1029 L-242,1028 L-247,1027 L-249,1028 L-258,1029 L-304,1029 L-333,1030 L-357,1030 L-449,1031 L-469,1030 L-472,1032 L-478,1031 L-536,1032 L-585,1033 L-608,1033 L-631,1034 L-635,1033 L-700,1034 L-723,1035 L-749,1035 L-752,1036 L-793,1036 L-864,1037 L-871,1036 L-886,1036 L-890,1031 L-890,967 L-891,941 L-892,894 L-893,875 L-893,619 L-894,575 L-895,520 L-895,457 L-894,454 L-894,445 L-896,438 L-896,353 L-897,283 L-898,240 L-899,222 L-899,163 L-900,111 L-900,95 L-901,72 L-902,29 L-901,20 L-896,16 L-863,15 L-843,15 L-809,14 L-774,14 L-759,13 L-735,13 L-726,12 L-718,13 L-685,13 L-681,12 L-652,12 L-650,11 L-616,11 L-603,10 L-552,9 L-526,9 L-518,8 L-471,8 L-460,7 L-450,8 L-448,7 L-384,7 L-361,6 L-311,6 L-299,5 L-243,5 L-234,4 L-207,3 L-179,3 L-142,2 L-124,3 L-84,1 L-57,1 Z M17,10 L10,12 L2,11 L-35,12 L-91,13 L-112,13 L-126,14 L-207,14 L-212,15 L-235,15 L-248,16 L-307,16 L-312,17 L-370,17 L-383,18 L-429,18 L-492,19 L-516,19 L-524,20 L-583,21 L-595,21 L-619,22 L-656,23 L-666,22 L-675,23 L-715,23 L-726,24 L-795,25 L-824,25 L-833,26 L-884,27 L-888,30 L-889,37 L-889,64 L-888,126 L-888,145 L-887,173 L-887,200 L-886,226 L-886,251 L-885,324 L-885,358 L-884,397 L-884,477 L-883,534 L-883,581 L-882,600 L-882,817 L-881,836 L-879,924 L-878,1018 L-875,1024 L-871,1027 L-866,1026 L-849,1025 L-805,1025 L-753,1024 L-727,1022 L-651,1022 L-581,1021 L-556,1021 L-508,1020 L-490,1019 L-482,1021 L-479,1020 L-437,1020 L-430,1019 L-408,1019 L-352,1018 L-323,1019 L-310,1018 L-262,1017 L-260,1018 L-251,1017 L-233,1017 L-206,1016 L-199,1017 L-191,1016 L-177,1015 L-75,1015 L-68,1016 L-62,1016 L-53,1018 L-47,1018 L-43,1014 L-8,1013 L8,1013 L20,1012 L28,1013 L81,1012 L118,1012 L123,1008 L124,1006 L124,922 L123,913 L123,895 L122,858 L122,824 L121,789 L121,683 L120,663 L120,621 L119,569 L119,539 L118,461 L118,440 L116,309 L115,185 L113,135 L113,95 L112,52 L111,35 L111,19 L107,13 L103,11 L89,10 L69,11 L24,11 Z " fill="#000000" transform="translate(1040,116)"/>
<path d="M0,0 L36,0 L52,1 L56,5 L59,13 L60,39 L62,56 L62,78 L64,123 L65,127 L66,166 L67,185 L68,190 L68,224 L69,261 L70,288 L70,301 L71,337 L73,407 L75,461 L75,531 L72,537 L66,541 L22,542 L-70,542 L-115,543 L-188,543 L-218,544 L-290,544 L-299,545 L-316,544 L-344,545 L-402,545 L-414,546 L-441,546 L-480,545 L-482,546 L-519,547 L-529,546 L-551,547 L-559,546 L-563,547 L-611,547 L-615,542 L-616,540 L-617,515 L-618,504 L-617,491 L-619,482 L-619,444 L-620,424 L-621,394 L-621,354 L-623,325 L-623,317 L-624,312 L-624,289 L-625,276 L-625,243 L-624,238 L-625,234 L-625,213 L-623,204 L-624,197 L-625,192 L-625,173 L-626,150 L-628,113 L-629,102 L-629,92 L-628,80 L-628,68 L-630,44 L-629,22 L-626,15 L-623,13 L-617,12 L-601,11 L-579,11 L-557,10 L-548,11 L-537,10 L-521,10 L-515,9 L-485,9 L-476,8 L-422,8 L-398,7 L-389,8 L-380,6 L-344,6 L-320,5 L-252,5 L-234,4 L-228,3 L-180,3 L-126,4 L-79,3 L-69,2 L-43,1 Z M-106,43 L-140,44 L-196,44 L-205,45 L-244,45 L-247,46 L-281,46 L-308,47 L-365,47 L-369,48 L-420,48 L-438,49 L-494,50 L-534,50 L-563,51 L-577,52 L-583,56 L-586,62 L-587,78 L-586,104 L-586,126 L-585,135 L-585,166 L-584,176 L-583,222 L-582,293 L-582,303 L-581,317 L-580,348 L-580,376 L-579,418 L-578,438 L-577,477 L-575,494 L-573,502 L-569,506 L-563,508 L-544,507 L-518,508 L-509,507 L-496,507 L-491,506 L-431,506 L-421,505 L-365,505 L-312,504 L-304,505 L-294,504 L-282,504 L-274,503 L-209,502 L-175,502 L-164,501 L-118,501 L-98,500 L-88,501 L-55,501 L-38,500 L-14,500 L24,499 L29,494 L30,492 L31,473 L31,455 L29,409 L28,394 L28,375 L27,365 L26,297 L25,261 L24,245 L22,132 L21,128 L19,85 L18,81 L17,62 L14,48 L10,44 L3,43 Z " fill="#000000" transform="translate(937,284)"/>
<path d="M0,0 L25,0 L34,1 L40,5 L44,12 L46,32 L46,42 L49,50 L58,53 L94,53 L107,56 L111,62 L112,69 L111,79 L113,174 L113,206 L114,252 L115,300 L115,336 L114,363 L108,370 L106,371 L92,372 L32,371 L28,370 L22,372 L11,373 L-12,372 L-61,373 L-117,373 L-132,372 L-137,367 L-139,358 L-141,293 L-141,211 L-142,149 L-142,73 L-141,63 L-137,59 L-133,58 L-114,57 L-107,57 L-105,56 L-90,55 L-86,52 L-84,34 L-83,16 L-80,10 L-76,6 L-68,3 L-31,1 L-11,1 Z M-2,23 L-47,24 L-57,26 L-61,34 L-60,48 L-57,53 L-49,55 L-38,56 L-27,56 L-12,55 L1,55 L3,54 L15,54 L19,51 L20,48 L20,29 L15,25 L10,23 Z " fill="#000000" transform="translate(673,371)"/>
<path d="M0,0 L24,1 L33,2 L44,9 L50,14 L56,24 L59,34 L60,60 L60,77 L61,133 L62,136 L62,158 L63,162 L63,206 L64,214 L64,276 L61,293 L56,302 L52,307 L45,312 L37,315 L26,316 L22,318 L-30,318 L-36,316 L-39,311 L-40,308 L-41,282 L-42,257 L-43,210 L-43,163 L-44,138 L-43,116 L-44,82 L-44,28 L-43,12 L-40,5 L-34,1 L-24,2 L-21,1 L-4,1 Z " fill="#000000" transform="translate(847,423)"/>
<path d="M0,0 L7,1 L12,5 L14,13 L15,24 L15,45 L16,66 L16,88 L17,105 L17,129 L18,147 L18,185 L19,236 L19,293 L18,304 L15,311 L10,315 L-49,315 L-59,313 L-71,305 L-79,296 L-82,287 L-84,269 L-85,217 L-86,196 L-86,155 L-87,144 L-87,107 L-88,63 L-88,45 L-86,30 L-82,21 L-70,9 L-62,5 L-52,2 L-32,1 L-8,1 Z " fill="#000000" transform="translate(495,429)"/>
<path d="M0,0 L14,0 L30,2 L42,5 L55,12 L64,17 L72,24 L81,36 L87,44 L92,53 L97,72 L98,90 L96,107 L92,117 L84,132 L75,143 L67,150 L57,156 L43,163 L32,166 L13,169 L-13,165 L-25,160 L-37,155 L-44,148 L-52,141 L-56,136 L-62,129 L-67,126 L-79,124 L-88,124 L-97,117 L-103,112 L-110,110 L-134,110 L-144,111 L-157,118 L-163,118 L-169,114 L-177,107 L-182,104 L-187,103 L-194,107 L-205,115 L-217,121 L-224,120 L-237,110 L-239,109 L-250,109 L-261,115 L-269,120 L-276,121 L-286,115 L-302,103 L-310,95 L-312,92 L-312,83 L-301,69 L-292,60 L-287,58 L-270,57 L-266,56 L-182,56 L-98,54 L-85,53 L-78,53 L-72,50 L-64,39 L-58,31 L-45,18 L-35,12 L-24,7 L-13,3 Z M59,67 L50,72 L46,77 L45,79 L45,89 L50,97 L59,101 L68,101 L75,97 L78,92 L79,88 L79,81 L76,74 L67,68 Z " fill="#000000" transform="translate(768,884)"/>
<path d="M0,0 L15,0 L22,3 L30,10 L32,13 L33,21 L31,24 L24,24 L19,18 L15,13 L10,11 L-4,11 L-10,16 L-11,18 L-11,25 L-9,29 L3,34 L14,35 L30,42 L37,50 L38,52 L38,63 L31,74 L26,78 L17,82 L-5,82 L-15,78 L-23,71 L-25,68 L-26,63 L-26,55 L-23,53 L-18,54 L-15,58 L-11,66 L-2,71 L14,71 L20,68 L22,65 L22,54 L17,49 L2,45 L-15,40 L-18,38 L-18,36 L-22,34 L-24,31 L-24,19 L-22,13 L-16,5 L-8,1 Z " fill="#000000" transform="translate(187,1219)"/>
<path d="M0,0 L38,0 L47,4 L54,11 L56,17 L56,29 L52,37 L44,44 L36,47 L13,48 L10,51 L8,77 L5,80 L0,80 L-3,77 L-4,53 L-5,7 L-2,1 Z M19,10 L12,11 L9,15 L8,29 L10,35 L11,36 L32,36 L40,31 L42,26 L41,18 L38,13 L36,11 Z " fill="#000000" transform="translate(242,1219)"/>
</svg>
