<?xml version="1.0" encoding="UTF-8"?>
<!-- Generator: visioncortex VTracer 0.6.12 -->
<svg version="1.1" xmlns="http://www.w3.org/2000/svg" width="1197" height="1248">
<path d="M0,0 L53,0 L69,2 L78,6 L95,10 L104,14 L119,23 L129,30 L140,39 L146,47 L151,51 L157,59 L164,69 L168,77 L176,93 L180,105 L184,124 L186,138 L187,207 L189,276 L190,295 L190,323 L192,391 L193,449 L194,472 L196,562 L196,588 L197,615 L197,641 L199,700 L199,735 L200,745 L201,799 L202,823 L202,875 L201,897 L198,918 L191,939 L185,952 L177,966 L168,978 L158,989 L153,994 L141,1004 L128,1012 L119,1017 L106,1022 L100,1025 L91,1027 L71,1030 L65,1032 L40,1032 L-5,1033 L-62,1034 L-85,1034 L-111,1035 L-141,1035 L-179,1036 L-198,1037 L-266,1037 L-291,1038 L-334,1038 L-339,1037 L-342,1038 L-363,1039 L-372,1038 L-383,1039 L-400,1039 L-402,1040 L-463,1040 L-495,1041 L-555,1041 L-557,1042 L-575,1042 L-595,1043 L-613,1043 L-621,1044 L-629,1043 L-643,1044 L-653,1044 L-669,1045 L-673,1044 L-696,1042 L-711,1040 L-718,1037 L-734,1031 L-753,1021 L-761,1014 L-772,1006 L-777,1001 L-783,996 L-789,986 L-795,977 L-801,967 L-808,953 L-812,940 L-814,934 L-818,912 L-819,871 L-820,824 L-822,777 L-824,681 L-825,668 L-827,597 L-828,572 L-829,525 L-829,469 L-831,428 L-832,340 L-833,329 L-833,296 L-834,286 L-835,215 L-835,164 L-833,146 L-831,130 L-825,109 L-816,92 L-808,79 L-800,68 L-795,63 L-787,54 L-777,46 L-768,40 L-756,35 L-751,31 L-733,24 L-721,21 L-719,20 L-710,19 L-701,17 L-660,17 L-655,16 L-623,16 L-572,15 L-563,15 L-559,16 L-556,14 L-542,14 L-538,15 L-535,14 L-504,14 L-501,13 L-488,13 L-474,12 L-421,11 L-406,11 L-401,10 L-346,9 L-316,8 L-298,8 L-279,7 L-224,6 L-176,5 L-164,4 L-144,4 L-138,3 L-108,3 L-79,2 L-50,2 Z M14,12 L6,13 L-15,13 L-41,14 L-75,14 L-109,15 L-141,16 L-167,16 L-190,17 L-214,17 L-218,18 L-256,18 L-259,19 L-273,19 L-311,20 L-328,21 L-364,22 L-383,22 L-388,23 L-425,23 L-449,24 L-456,25 L-474,25 L-483,24 L-510,25 L-528,25 L-541,26 L-566,26 L-614,28 L-631,27 L-635,28 L-659,28 L-688,29 L-691,30 L-714,32 L-727,36 L-738,38 L-746,43 L-757,49 L-768,55 L-778,64 L-785,70 L-794,81 L-802,92 L-807,100 L-816,120 L-821,137 L-824,154 L-825,171 L-825,241 L-824,263 L-824,280 L-823,303 L-821,388 L-820,412 L-819,461 L-818,490 L-817,505 L-816,560 L-815,588 L-815,600 L-814,626 L-813,682 L-812,710 L-811,724 L-811,756 L-810,799 L-809,825 L-809,853 L-807,916 L-801,939 L-797,950 L-788,967 L-780,978 L-769,991 L-754,1004 L-744,1011 L-739,1015 L-715,1026 L-708,1028 L-691,1032 L-681,1032 L-676,1033 L-558,1033 L-549,1032 L-531,1032 L-524,1031 L-412,1031 L-409,1029 L-400,1030 L-392,1029 L-366,1029 L-307,1028 L-298,1027 L-270,1027 L-196,1025 L-146,1023 L-138,1024 L-124,1023 L-76,1023 L-67,1022 L-50,1022 L-10,1021 L13,1020 L32,1020 L39,1022 L46,1020 L65,1019 L82,1016 L100,1011 L118,1003 L129,997 L140,989 L148,982 L156,973 L162,969 L168,959 L172,954 L182,933 L188,915 L191,901 L192,879 L192,846 L191,817 L190,770 L188,686 L187,666 L187,635 L186,622 L186,587 L185,559 L185,536 L184,528 L183,483 L183,457 L182,443 L182,422 L181,401 L180,334 L180,285 L179,263 L177,172 L176,146 L174,126 L168,106 L164,94 L154,78 L148,67 L134,52 L121,40 L108,32 L93,24 L73,17 L64,15 L35,13 L23,13 Z " fill="#000000" transform="translate(963,37)"/>
<path d="M0,0 L18,2 L25,5 L35,6 L43,10 L53,14 L64,21 L71,27 L79,34 L83,39 L88,43 L98,59 L105,71 L107,72 L135,71 L176,70 L184,69 L193,70 L206,68 L218,68 L225,67 L266,66 L274,65 L295,65 L306,64 L337,63 L350,62 L359,63 L366,69 L374,82 L380,91 L385,99 L386,102 L386,109 L377,126 L371,138 L367,144 L360,145 L348,145 L338,143 L332,135 L327,125 L323,122 L315,122 L309,129 L306,138 L302,144 L294,148 L287,147 L281,144 L276,135 L272,124 L269,122 L263,122 L257,127 L255,133 L253,143 L248,147 L243,150 L234,150 L226,143 L222,130 L219,126 L211,125 L207,127 L204,132 L200,143 L194,150 L188,152 L155,153 L139,154 L121,155 L110,156 L106,160 L98,176 L92,185 L85,194 L80,199 L74,207 L64,214 L53,221 L43,227 L32,232 L19,235 L17,236 L-5,237 L-26,234 L-40,230 L-43,228 L-52,226 L-63,220 L-70,214 L-75,211 L-84,203 L-91,195 L-98,189 L-102,181 L-108,172 L-113,162 L-114,153 L-116,149 L-118,136 L-119,121 L-117,95 L-111,71 L-104,58 L-97,46 L-88,36 L-83,31 L-71,20 L-60,13 L-41,5 L-24,2 L-18,1 Z " fill="#000000" transform="translate(500,154)"/>
<path d="M0,0 L1,2 L-1,1 Z " fill="#000000" transform="translate(1012,315)"/>
<path d="M0,0 L57,0 L62,3 L64,7 L66,16 L66,44 L67,63 L68,106 L70,145 L71,152 L70,159 L71,200 L72,240 L73,270 L73,323 L74,331 L76,377 L76,446 L77,460 L77,506 L73,510 L64,511 L43,512 L-25,514 L-87,515 L-184,518 L-253,519 L-339,521 L-377,522 L-407,522 L-431,523 L-443,523 L-466,524 L-477,525 L-481,524 L-546,526 L-572,527 L-596,527 L-619,528 L-624,522 L-626,469 L-627,414 L-628,397 L-629,343 L-630,323 L-631,284 L-632,254 L-632,231 L-633,227 L-635,167 L-636,152 L-639,38 L-639,24 L-635,17 L-634,16 L-621,15 L-604,15 L-570,14 L-532,14 L-521,13 L-470,12 L-452,12 L-440,11 L-380,10 L-349,9 L-320,9 L-312,8 L-287,8 L-282,7 L-256,6 L-234,5 L-226,6 L-215,5 L-208,6 L-203,5 L-185,4 L-177,3 L-174,4 L-162,4 L-142,3 L-117,3 L-100,2 L-51,2 L-45,1 Z M-84,40 L-87,42 L-106,42 L-111,43 L-136,44 L-148,44 L-153,43 L-162,44 L-213,45 L-223,46 L-244,46 L-249,45 L-253,47 L-291,48 L-337,49 L-391,51 L-418,51 L-487,53 L-513,53 L-558,55 L-575,55 L-593,57 L-595,59 L-596,67 L-596,92 L-595,116 L-595,136 L-593,201 L-592,215 L-592,234 L-591,259 L-590,303 L-589,328 L-588,381 L-587,397 L-585,476 L-583,486 L-578,489 L-568,488 L-562,489 L-550,488 L-484,487 L-474,486 L-466,486 L-459,485 L-453,486 L-444,485 L-412,484 L-374,483 L-349,482 L-329,482 L-309,481 L-256,480 L-238,480 L-205,478 L-166,478 L-146,477 L-113,477 L-105,476 L-57,475 L-24,475 L-7,474 L26,474 L36,471 L38,467 L38,431 L36,388 L35,333 L35,316 L34,301 L32,230 L31,205 L30,187 L29,155 L28,105 L27,62 L26,49 L23,43 L19,41 L-37,41 L-78,42 L-81,40 Z " fill="#000000" transform="translate(924,444)"/>
<path d="M0,0 L4,1 L3,5 L0,5 Z " fill="#000000" transform="translate(782,517)"/>
<path d="M0,0 L32,0 L42,1 L52,4 L62,14 L65,22 L69,41 L70,46 L79,47 L123,47 L126,51 L127,73 L129,109 L130,167 L131,181 L133,264 L134,305 L134,321 L132,326 L128,328 L122,328 L120,329 L61,331 L2,332 L-17,333 L-94,334 L-99,331 L-100,329 L-102,308 L-102,290 L-103,253 L-103,244 L-104,234 L-104,207 L-105,198 L-105,149 L-106,143 L-108,94 L-108,61 L-106,55 L-101,53 L-89,53 L-84,52 L-73,52 L-71,51 L-59,51 L-55,47 L-54,31 L-50,20 L-42,9 L-38,5 L-29,3 L-4,2 Z M-14,21 L-24,26 L-27,29 L-28,32 L-28,46 L-23,50 L-18,51 L0,51 L5,50 L37,49 L44,46 L45,40 L42,28 L37,24 L34,23 L20,22 L18,21 Z M-90,251 L-91,255 L-87,255 L-87,251 Z M-89,311 L-88,315 L-86,313 L-87,311 Z " fill="#000000" transform="translate(630,534)"/>
<path d="M0,0 L4,1 L3,4 L-1,3 Z " fill="#000000" transform="translate(36,564)"/>
<path d="M0,0 L17,0 L25,2 L35,7 L43,13 L49,21 L53,30 L56,51 L57,89 L57,102 L58,110 L59,144 L60,165 L60,179 L61,212 L61,250 L57,261 L51,269 L44,277 L38,280 L32,283 L21,283 L18,284 L7,284 L2,280 L0,251 L-1,213 L-2,202 L-2,191 L-3,166 L-5,100 L-7,60 L-8,27 L-9,14 L-8,5 L-5,1 Z M33,92 L33,95 L36,95 L36,92 Z M15,104 L12,106 L13,110 L18,109 L17,105 Z M43,153 L41,157 L42,159 L46,158 L46,154 Z " fill="#000000" transform="translate(783,578)"/>
<path d="M0,0 L17,1 L21,4 L22,7 L23,20 L24,60 L25,85 L26,106 L28,188 L29,194 L29,214 L30,250 L30,272 L28,279 L24,282 L7,282 L-8,279 L-14,275 L-21,269 L-28,257 L-31,248 L-32,233 L-33,187 L-36,91 L-36,74 L-37,59 L-37,30 L-33,18 L-26,10 L-18,6 L-9,1 Z " fill="#000000" transform="translate(481,587)"/>
<path d="M0,0 L4,2 L3,10 L0,17 L-4,30 L-9,40 L-11,47 L-14,54 L-17,64 L-24,81 L-28,85 L-32,83 L-31,73 L-26,58 L-23,53 L-19,43 L-13,32 L-13,25 L-8,13 L-4,2 Z " fill="#000000" transform="translate(271,1129)"/>
<path d="M0,0 L5,3 L4,10 L2,12 L-3,13 L-11,12 L-30,13 L-34,15 L-35,17 L-35,30 L-31,34 L-5,34 L-1,39 L-2,44 L-5,46 L-33,46 L-35,48 L-36,58 L-37,60 L-37,67 L-36,70 L-36,78 L-41,82 L-46,80 L-48,77 L-49,6 L-47,2 L-45,1 Z " fill="#000000" transform="translate(348,1130)"/>
<path d="M0,0 L5,2 L5,9 L0,32 L-3,39 L-8,60 L-11,74 L-15,81 L-17,82 L-23,82 L-27,79 L-32,61 L-36,50 L-40,30 L-41,26 L-46,26 L-50,43 L-52,48 L-55,60 L-57,66 L-59,76 L-62,82 L-68,83 L-72,79 L-76,69 L-79,55 L-85,33 L-87,28 L-89,16 L-91,6 L-87,2 L-82,3 L-79,7 L-75,21 L-71,41 L-68,54 L-64,55 L-62,47 L-56,27 L-51,6 L-46,2 L-39,2 L-36,5 L-31,25 L-27,37 L-23,55 L-18,56 L-15,43 L-13,36 L-10,23 L-7,6 L-3,1 Z " fill="#000000" transform="translate(453,1129)"/>
<path d="M0,0 L35,0 L39,2 L38,10 L39,13 L43,12 L45,5 L50,4 L57,12 L62,21 L64,34 L62,55 L57,67 L51,75 L39,81 L31,82 L1,82 L-2,79 L-2,68 L-3,45 L-3,5 Z M19,12 L11,14 L9,20 L9,61 L12,68 L14,70 L35,70 L43,66 L49,57 L50,53 L51,36 L49,26 L44,18 L39,14 L25,12 Z " fill="#000000" transform="translate(157,1133)"/>
</svg>
