<?xml version="1.0" encoding="UTF-8"?>
<!-- Generator: visioncortex VTracer 0.6.12 -->
<svg version="1.1" xmlns="http://www.w3.org/2000/svg" width="510" height="717">
<path d="M0,0 L17,0 L25,1 L53,2 L85,5 L93,6 L103,6 L113,7 L127,7 L132,11 L131,18 L125,29 L117,40 L104,58 L90,79 L80,95 L71,108 L66,116 L57,128 L50,138 L42,149 L38,157 L27,172 L21,180 L14,189 L9,198 L3,207 L-4,218 L-10,226 L-15,236 L-15,242 L-12,244 L0,244 L33,240 L57,238 L68,236 L106,233 L128,232 L149,229 L168,229 L178,228 L193,229 L198,230 L201,234 L200,241 L190,254 L184,262 L172,279 L166,288 L158,298 L149,313 L138,328 L130,340 L123,350 L117,359 L112,367 L108,373 L101,383 L90,400 L83,409 L76,419 L65,435 L59,445 L53,453 L41,469 L33,479 L26,489 L18,500 L11,510 L2,522 L-8,537 L-17,551 L-18,553 L-18,561 L-13,566 L-2,573 L5,579 L4,585 L-1,589 L-9,593 L-23,600 L-39,608 L-47,613 L-57,617 L-64,621 L-74,625 L-82,630 L-95,636 L-104,640 L-121,649 L-132,655 L-142,660 L-149,660 L-153,655 L-156,643 L-157,552 L-157,494 L-158,488 L-154,484 L-145,486 L-127,497 L-122,496 L-116,491 L-105,477 L-98,468 L-92,459 L-82,446 L-73,434 L-67,426 L-60,416 L-50,402 L-42,391 L-32,377 L-29,373 L-28,363 L-29,361 L-36,360 L-69,363 L-82,364 L-85,365 L-110,367 L-123,368 L-140,369 L-151,371 L-201,374 L-207,376 L-221,377 L-232,379 L-247,381 L-251,378 L-251,370 L-246,359 L-242,353 L-234,342 L-228,334 L-219,320 L-211,309 L-202,295 L-194,284 L-184,268 L-178,260 L-172,250 L-165,239 L-156,226 L-145,207 L-136,196 L-129,186 L-121,173 L-109,156 L-105,151 L-100,142 L-93,132 L-85,120 L-75,106 L-67,93 L-53,72 L-47,64 L-40,54 L-33,44 L-26,34 L-22,29 L-14,18 L-4,3 Z " fill="#000000" transform="translate(282,31)"/>
</svg>
