<?xml version="1.0" encoding="UTF-8"?>
<!-- Generator: visioncortex VTracer 0.6.12 -->
<svg version="1.1" xmlns="http://www.w3.org/2000/svg" width="1134" height="1146">
<path d="M0,0 L638,0 L640,1 L648,1 L656,0 L659,1 L683,2 L756,3 L841,5 L906,6 L929,7 L978,8 L1017,8 L1050,9 L1078,9 L1085,10 L1117,11 L1117,459 L1114,542 L1112,553 L1112,562 L1113,565 L1113,610 L1109,771 L1109,784 L1108,820 L1106,888 L1105,957 L1103,1010 L1102,1069 L1101,1087 L1100,1128 L1099,1146 L508,1146 L506,1145 L498,1145 L490,1146 L480,1144 L452,1144 L416,1143 L391,1143 L302,1141 L254,1140 L200,1139 L164,1139 L158,1138 L123,1138 L83,1137 L0,1135 L-17,1134 L-17,679 L-16,671 L-14,574 L-13,540 L-13,521 L-12,503 L-10,411 L-9,389 L-8,334 L-7,297 L-5,179 L-5,165 L-4,136 L-2,34 L-1,10 Z M308,106 L301,109 L299,112 L297,160 L295,229 L294,279 L292,339 L290,356 L285,377 L273,404 L266,415 L257,428 L250,437 L240,447 L234,452 L227,461 L223,466 L217,475 L209,494 L206,505 L204,530 L203,572 L202,593 L201,645 L200,665 L200,684 L197,828 L196,865 L195,923 L194,959 L194,981 L196,997 L201,1007 L206,1013 L220,1021 L229,1023 L251,1023 L411,1026 L423,1026 L435,1021 L442,1016 L449,1006 L453,996 L454,981 L455,925 L457,856 L460,730 L461,670 L463,599 L464,530 L463,513 L459,496 L452,479 L443,464 L431,450 L427,445 L418,433 L410,419 L401,399 L392,373 L389,355 L387,330 L388,287 L389,237 L391,166 L391,114 L388,109 L386,108 L360,107 Z M769,116 L766,118 L764,129 L762,184 L760,250 L759,285 L755,320 L751,341 L747,364 L745,369 L743,379 L739,393 L736,405 L733,412 L728,430 L716,463 L711,477 L703,497 L697,511 L691,523 L684,542 L681,553 L677,563 L672,587 L668,607 L664,638 L662,672 L660,755 L658,817 L657,855 L656,883 L655,917 L655,936 L654,1000 L658,1010 L665,1020 L673,1026 L678,1029 L688,1032 L724,1033 L785,1034 L821,1035 L872,1035 L887,1029 L897,1020 L904,1006 L907,991 L910,869 L911,815 L913,744 L913,658 L910,609 L908,599 L906,583 L903,565 L901,556 L898,543 L891,523 L882,499 L876,479 L871,458 L866,439 L863,428 L861,419 L857,402 L852,377 L847,345 L844,318 L842,288 L842,271 L844,187 L844,164 L845,122 L842,117 L803,116 Z M5,191 L5,197 L9,196 L8,191 Z " fill="#000000" transform="translate(17,0)"/>
</svg>
