<?xml version="1.0" encoding="UTF-8"?>
<!-- Generator: visioncortex VTracer 0.6.12 -->
<svg version="1.1" xmlns="http://www.w3.org/2000/svg" width="1128" height="1158">
<path d="M0,0 L1126,0 L1126,12 L1119,8 L1114,7 L1034,6 L886,6 L843,5 L744,5 L726,4 L692,4 L673,5 L654,4 L520,4 L398,3 L41,3 L10,4 L2,8 L-2,10 L-2,2 Z " fill="#000000" transform="translate(2,0)"/>
<path d="M0,0 L92,0 L100,2 L103,7 L104,13 L104,74 L102,87 L92,94 L88,99 L87,134 L87,179 L88,252 L92,259 L100,264 L116,273 L129,284 L137,292 L142,297 L149,306 L157,320 L165,340 L168,351 L170,367 L171,408 L171,525 L172,751 L172,812 L170,828 L166,832 L-70,832 L-75,829 L-78,825 L-79,816 L-80,549 L-79,516 L-80,440 L-80,374 L-78,353 L-71,330 L-61,310 L-54,300 L-42,286 L-31,277 L-21,270 L-5,261 L2,255 L3,248 L4,222 L4,114 L2,97 L-4,92 L-9,89 L-12,84 L-12,8 L-9,3 L-7,1 Z M91,495 L91,499 L95,499 L96,497 L95,495 Z " fill="#000000" transform="translate(504,155)"/>
<path d="M0,0 L1,0 L1,9 L0,9 Z " fill="#000000" transform="translate(1127,1087)"/>
<path d="M0,0 L1,0 L1,52 L-931,52 L-941,51 L-944,52 L-974,52 L-990,51 L-1006,51 L-1008,52 L-1018,52 L-1022,51 L-1033,51 L-1037,52 L-1049,52 L-1050,51 L-1056,51 L-1057,52 L-1070,52 L-1073,51 L-1080,51 L-1082,52 L-1127,52 L-1127,36 L-1123,37 L-1116,40 L-1071,41 L-1032,40 L-944,42 L-893,41 L-845,41 L-833,42 L-610,42 L-532,41 L-495,42 L-362,42 L-333,43 L-316,44 L-288,43 L-237,44 L-175,44 L-123,45 L-96,45 L-13,44 L-6,42 L-3,37 L-2,25 L-1,1 Z " fill="#000000" transform="translate(1127,1106)"/>
</svg>
