<?xml version="1.0" encoding="UTF-8"?>
<!-- Generator: visioncortex VTracer 0.6.12 -->
<svg version="1.1" xmlns="http://www.w3.org/2000/svg" width="1032" height="1035">
<path d="M0,0 L669,0 L668,2 L651,3 L640,3 L633,2 L630,3 L543,4 L494,5 L458,5 L455,6 L432,6 L413,7 L403,6 L387,7 L353,7 L337,8 L291,8 L237,9 L227,10 L133,10 L119,11 L69,11 L44,12 L22,12 L-4,13 L-10,14 L-61,14 L-86,15 L-103,15 L-125,16 L-127,18 L-128,37 L-127,149 L-127,187 L-126,201 L-125,262 L-124,351 L-124,379 L-123,399 L-122,451 L-121,536 L-121,556 L-119,632 L-117,809 L-117,868 L-116,887 L-115,968 L-115,992 L-114,1005 L-111,1010 L-92,1011 L-34,1010 L-9,1010 L3,1009 L23,1009 L73,1008 L109,1008 L124,1007 L172,1007 L230,1005 L291,1005 L357,1004 L385,1004 L407,1003 L456,1003 L489,1002 L510,1002 L519,1001 L527,1002 L554,1001 L607,1000 L629,1000 L690,999 L722,998 L801,998 L816,997 L876,997 L892,996 L897,994 L899,975 L900,970 L901,970 L901,1008 L815,1008 L810,1007 L808,1008 L798,1008 L781,1009 L734,1009 L715,1010 L680,1010 L657,1011 L599,1011 L551,1012 L540,1012 L526,1013 L402,1015 L334,1015 L318,1016 L272,1016 L266,1017 L242,1017 L190,1018 L162,1018 L127,1019 L119,1020 L117,1019 L98,1019 L49,1020 L32,1020 L-8,1021 L-24,1021 L-34,1022 L-42,1021 L-45,1022 L-122,1022 L-126,1018 L-126,924 L-127,890 L-127,844 L-128,792 L-129,718 L-129,687 L-131,651 L-131,2 L-124,3 L-92,3 L-59,2 L-13,2 Z " fill="#000000" transform="translate(131,0)"/>
<path d="M0,0 L14,0 L14,38 L15,52 L15,82 L16,148 L17,201 L17,217 L18,218 L18,224 L17,226 L18,238 L18,949 L16,948 L15,935 L14,842 L13,770 L13,715 L12,701 L11,590 L11,567 L9,508 L9,461 L8,420 L8,364 L7,317 L6,292 L6,243 L5,180 L4,98 L4,63 L3,41 L2,4 Z " fill="#000000" transform="translate(1014,0)"/>
<path d="M0,0 L49,1 L54,6 L63,36 L65,46 L68,57 L72,68 L76,89 L80,99 L84,105 L86,106 L98,107 L128,108 L132,113 L133,133 L131,137 L127,139 L100,139 L97,140 L53,140 L10,142 L-8,142 L-61,143 L-91,144 L-138,144 L-171,145 L-197,146 L-201,150 L-203,160 L-203,239 L-201,251 L-199,255 L-192,258 L-185,257 L-180,256 L-169,255 L-158,253 L-140,251 L-126,248 L-113,246 L-104,246 L-99,244 L-91,243 L-78,242 L-76,241 L-63,239 L-43,237 L-35,234 L-23,234 L-19,232 L3,231 L8,229 L31,226 L44,225 L50,223 L62,223 L73,221 L75,220 L95,219 L102,217 L119,215 L131,213 L140,214 L145,219 L157,232 L157,234 L159,234 L171,251 L178,262 L186,269 L188,270 L208,270 L218,266 L222,264 L227,265 L234,269 L245,269 L264,270 L270,269 L281,270 L289,269 L318,268 L354,271 L365,276 L385,285 L390,290 L398,295 L398,297 L402,299 L408,308 L414,324 L415,332 L415,344 L413,352 L409,361 L400,373 L395,379 L385,387 L376,392 L363,395 L357,397 L345,396 L336,390 L334,383 L336,376 L340,372 L357,366 L371,362 L382,355 L386,350 L386,339 L383,329 L376,319 L368,310 L368,308 L362,306 L351,302 L343,301 L326,301 L319,300 L310,300 L302,301 L281,301 L237,302 L230,307 L229,311 L228,355 L228,404 L230,413 L235,418 L238,421 L238,423 L242,425 L251,436 L263,446 L277,457 L287,468 L291,475 L292,504 L294,612 L294,627 L292,638 L289,642 L274,641 L257,641 L248,642 L238,641 L205,643 L189,643 L167,644 L161,639 L159,635 L158,559 L157,538 L157,527 L156,513 L156,496 L159,479 L164,470 L166,470 L166,468 L174,461 L187,448 L195,441 L203,434 L210,426 L212,426 L214,422 L218,415 L219,365 L218,312 L215,306 L209,302 L198,302 L179,304 L174,308 L165,322 L158,332 L151,343 L141,351 L138,352 L119,352 L105,351 L91,351 L88,350 L64,349 L52,347 L16,345 L9,344 L-14,342 L-25,340 L-58,338 L-65,338 L-70,337 L-90,336 L-94,335 L-102,335 L-121,332 L-137,331 L-141,330 L-177,328 L-184,327 L-196,328 L-199,330 L-200,333 L-200,359 L-198,406 L-197,419 L-193,428 L-186,435 L-175,444 L-167,451 L-167,453 L-163,455 L-154,465 L-146,472 L-136,482 L-134,488 L-133,503 L-133,535 L-132,543 L-132,633 L-138,644 L-143,648 L-145,649 L-169,650 L-185,650 L-258,653 L-270,652 L-276,648 L-278,644 L-279,633 L-280,582 L-281,560 L-281,530 L-282,525 L-282,489 L-277,479 L-272,473 L-264,466 L-254,457 L-246,450 L-237,441 L-229,434 L-222,428 L-217,423 L-214,420 L-211,409 L-211,364 L-212,344 L-214,331 L-218,326 L-223,323 L-232,322 L-257,321 L-268,320 L-274,319 L-283,318 L-305,317 L-307,316 L-317,316 L-327,314 L-333,313 L-350,312 L-357,310 L-377,308 L-391,309 L-399,310 L-430,309 L-445,308 L-450,305 L-451,303 L-452,290 L-449,285 L-447,283 L-424,281 L-390,280 L-364,279 L-358,277 L-350,277 L-347,276 L-319,274 L-295,271 L-283,269 L-256,266 L-220,260 L-217,258 L-215,253 L-214,232 L-215,217 L-215,202 L-217,152 L-218,149 L-233,141 L-235,130 L-235,123 L-232,116 L-227,112 L-219,109 L-215,104 L-212,98 L-207,98 L-202,107 L-195,110 L-175,110 L-163,108 L-158,103 L-151,83 L-146,66 L-141,48 L-137,32 L-129,8 L-125,4 L-120,1 L-29,1 Z M-218,439 L-228,445 L-237,453 L-245,460 L-254,468 L-260,475 L-268,482 L-272,489 L-272,562 L-271,578 L-270,616 L-269,632 L-266,639 L-260,642 L-235,642 L-198,641 L-185,641 L-150,640 L-145,638 L-142,635 L-141,632 L-140,615 L-140,548 L-141,519 L-142,494 L-145,487 L-152,479 L-163,470 L-171,463 L-176,458 L-186,448 L-194,443 L-199,445 L-198,455 L-201,460 L-206,461 L-210,457 L-211,451 L-210,444 L-214,439 Z M210,439 L202,445 L190,458 L181,465 L169,478 L167,483 L166,490 L166,507 L169,617 L171,627 L176,632 L179,633 L228,633 L239,632 L247,633 L251,632 L265,631 L274,631 L280,628 L283,624 L284,620 L284,545 L285,537 L283,517 L283,502 L282,480 L279,473 L271,468 L264,460 L256,453 L246,445 L240,445 L233,456 L229,458 L224,457 L221,454 L219,443 L215,439 Z " fill="#000000" transform="translate(537,86)"/>
<path d="M0,0 L7,1 L12,5 L16,11 L20,31 L26,32 L30,22 L34,15 L37,12 L43,12 L50,20 L52,26 L54,43 L54,75 L55,90 L56,138 L58,145 L62,144 L66,134 L74,112 L78,106 L85,90 L90,87 L97,88 L103,93 L106,97 L106,112 L102,129 L100,147 L96,161 L93,175 L90,191 L87,205 L81,229 L77,253 L74,263 L71,282 L67,300 L63,322 L62,325 L61,392 L58,397 L52,402 L50,402 L48,407 L43,417 L39,421 L36,422 L-29,424 L-76,424 L-80,421 L-81,418 L-82,399 L-82,350 L-83,346 L-84,297 L-84,270 L-85,235 L-85,135 L-86,122 L-86,105 L-87,77 L-87,43 L-86,27 L-84,19 L-77,11 L-72,10 L-65,16 L-61,24 L-58,37 L-54,67 L-52,74 L-48,74 L-47,66 L-47,36 L-45,29 L-43,13 L-39,5 L-34,1 L-30,2 L-25,8 L-22,16 L-18,32 L-16,41 L-11,42 L-9,36 L-8,16 L-6,8 L-3,2 Z M8,49 L0,57 L-2,63 L-1,68 L4,67 L7,63 L10,56 L13,52 L12,49 Z " fill="#000000" transform="translate(530,490)"/>
<path d="M0,0 L5,1 L6,3 L7,23 L7,51 L8,56 L9,88 L9,117 L7,124 L3,125 L1,120 L-1,85 L-2,38 L-2,3 Z " fill="#000000" transform="translate(790,568)"/>
<path d="M0,0 L4,1 L6,5 L8,93 L9,101 L9,125 L6,129 L2,128 L1,127 L0,118 L-2,61 L-2,49 L-3,17 L-2,3 Z " fill="#000000" transform="translate(306,574)"/>
<path d="M0,0 L4,1 L6,6 L6,16 L7,29 L8,84 L8,117 L4,119 L1,117 L-1,68 L-1,40 L-2,13 L-1,1 Z " fill="#000000" transform="translate(362,581)"/>
<path d="M0,0 L5,1 L6,16 L8,85 L6,94 L1,94 L-1,87 L-2,49 L-2,2 Z " fill="#000000" transform="translate(338,606)"/>
<path d="M0,0 L4,0 L5,2 L6,14 L6,44 L7,56 L7,73 L4,77 L0,76 L-1,74 L-2,63 L-2,2 Z " fill="#000000" transform="translate(758,615)"/>
<path d="M0,0 L1,0 L1,14 L-1,13 L-1,2 Z " fill="#000000" transform="translate(1031,951)"/>
</svg>
