<?xml version="1.0" encoding="UTF-8"?>
<!-- Generator: visioncortex VTracer 0.6.12 -->
<svg version="1.1" xmlns="http://www.w3.org/2000/svg" width="1023" height="1008">
<path d="M0,0 L959,0 L961,1 L998,1 L1000,0 L1007,0 L1007,2 L1014,3 L1014,744 L1013,750 L1013,779 L1012,804 L1011,859 L1010,895 L1009,916 L1009,973 L1007,1008 L305,1008 L299,1006 L299,1008 L261,1008 L255,1006 L255,1008 L206,1008 L205,1007 L198,1007 L193,1008 L192,1007 L184,1006 L184,1008 L178,1008 L177,1007 L165,1006 L107,1005 L85,1006 L82,1005 L60,1005 L51,1003 L3,1003 L-9,1002 L-9,412 L-8,409 L-7,381 L-7,358 L-6,315 L-6,277 L-5,265 L-4,213 L-4,187 L-3,130 L-2,96 L-1,87 L-1,50 Z M108,94 L102,99 L101,102 L99,129 L99,152 L98,181 L97,268 L96,295 L95,357 L94,388 L91,522 L90,574 L89,641 L88,679 L87,711 L85,810 L83,889 L84,909 L88,914 L104,916 L135,916 L144,917 L151,916 L177,917 L221,918 L250,918 L299,919 L311,919 L316,921 L342,920 L357,920 L362,921 L365,919 L382,921 L391,921 L397,920 L401,921 L423,921 L443,922 L459,922 L463,923 L465,922 L488,922 L491,923 L502,923 L507,924 L511,923 L545,923 L562,924 L569,923 L580,924 L591,924 L608,925 L672,925 L690,926 L695,925 L705,925 L710,926 L751,926 L768,927 L865,928 L881,928 L896,929 L907,929 L913,925 L915,916 L916,893 L917,856 L917,844 L918,811 L919,764 L920,741 L920,704 L922,617 L922,585 L924,512 L924,492 L925,442 L926,422 L926,401 L927,364 L928,301 L929,278 L930,243 L930,210 L931,151 L932,125 L931,114 L928,109 L925,107 L918,106 L894,107 L891,106 L877,106 L871,107 L868,106 L839,106 L835,105 L767,105 L735,104 L725,104 L723,105 L709,104 L699,103 L662,103 L660,102 L566,101 L562,100 L508,100 L501,99 L489,100 L482,99 L428,98 L356,98 L348,99 L345,98 L328,97 L303,97 L284,96 L273,97 L259,94 L254,96 L188,96 L179,95 L131,95 L127,94 Z M997,825 L993,829 L990,835 L991,840 L995,839 L999,830 L998,825 Z " fill="#000000" transform="translate(9,0)"/>
<path d="M0,0 L41,1 L56,1 L86,2 L95,1 L102,2 L174,2 L191,3 L213,3 L239,4 L301,5 L313,5 L333,6 L384,6 L390,7 L436,7 L446,8 L455,9 L566,9 L600,10 L674,10 L681,11 L740,11 L764,12 L768,15 L769,19 L769,49 L768,122 L766,180 L765,226 L765,248 L764,264 L763,321 L763,345 L762,365 L762,410 L761,416 L760,468 L760,497 L758,552 L757,570 L757,628 L756,685 L754,757 L753,774 L751,781 L746,784 L696,784 L661,783 L609,783 L604,782 L569,782 L555,781 L526,781 L513,780 L438,780 L433,779 L428,780 L415,778 L349,778 L346,777 L284,777 L271,776 L229,775 L206,775 L194,774 L189,775 L88,775 L77,774 L32,774 L13,773 L2,773 L-19,771 L-22,768 L-22,720 L-21,664 L-20,640 L-20,621 L-18,529 L-17,518 L-17,496 L-16,450 L-15,376 L-14,371 L-14,304 L-13,293 L-12,240 L-12,220 L-11,176 L-11,157 L-10,138 L-10,109 L-9,38 L-7,8 L-4,2 Z M315,193 L297,199 L291,203 L281,212 L275,223 L273,229 L271,245 L271,271 L269,286 L263,289 L222,289 L127,288 L115,288 L102,290 L92,293 L81,300 L70,311 L63,325 L61,340 L61,351 L60,366 L59,441 L58,469 L58,483 L57,506 L56,568 L55,584 L55,602 L54,619 L54,680 L58,691 L68,705 L72,710 L89,718 L101,721 L124,721 L162,722 L170,722 L179,723 L235,723 L286,724 L294,725 L295,726 L341,726 L405,727 L432,727 L441,728 L498,728 L517,729 L546,729 L631,730 L638,729 L649,725 L657,720 L665,713 L672,704 L675,698 L678,685 L679,664 L680,658 L680,625 L681,612 L681,594 L683,504 L683,492 L684,471 L684,337 L681,327 L676,317 L667,307 L659,302 L652,299 L645,297 L634,296 L606,296 L603,295 L596,295 L590,296 L586,295 L568,295 L560,294 L533,295 L521,294 L494,293 L490,292 L484,293 L481,287 L480,238 L477,227 L472,217 L464,208 L454,201 L440,196 L428,196 L415,195 L387,195 L386,196 L379,195 L353,194 L342,194 L338,193 L325,194 L322,193 Z " fill="#000000" transform="translate(144,117)"/>
<path d="M0,0 L45,1 L79,1 L93,2 L95,5 L96,24 L95,46 L91,52 L76,53 L47,53 L28,52 L15,52 L-1,51 L-5,47 L-6,44 L-6,16 L-4,3 Z " fill="#000000" transform="translate(475,356)"/>
<path d="M0,0 L25,1 L31,2 L38,5 L50,7 L65,15 L80,29 L84,37 L88,42 L93,56 L96,68 L96,81 L94,96 L89,108 L83,116 L72,129 L62,136 L47,146 L37,156 L31,169 L29,178 L24,182 L7,183 L-7,182 L-12,177 L-12,167 L-11,156 L-7,144 L-1,133 L9,124 L19,116 L27,110 L38,101 L44,94 L47,86 L48,69 L42,58 L36,51 L27,45 L17,42 L-3,42 L-13,45 L-22,50 L-27,54 L-34,65 L-40,81 L-43,83 L-75,82 L-80,77 L-80,66 L-75,50 L-70,40 L-64,32 L-60,27 L-52,20 L-42,13 L-30,7 L-22,8 L-17,3 L-7,1 Z " fill="#000000" transform="translate(506,494)"/>
<path d="M0,0 L33,0 L40,1 L44,2 L46,7 L46,21 L45,41 L43,46 L39,49 L27,48 L18,49 L2,49 L-1,47 L-3,39 L-2,9 L-1,1 Z " fill="#000000" transform="translate(493,701)"/>
<path d="M0,0 L3,1 L3,3 L0,3 Z " fill="#000000" transform="translate(615,912)"/>
</svg>
