<?xml version="1.0" encoding="UTF-8"?>
<!-- Generator: visioncortex VTracer 0.6.12 -->
<svg version="1.1" xmlns="http://www.w3.org/2000/svg" width="1005" height="1023">
<path d="M0,0 L1003,0 L1003,1010 L996,1015 L977,1015 L967,1016 L965,1015 L924,1015 L908,1014 L877,1015 L839,1014 L760,1014 L756,1013 L720,1013 L711,1012 L698,1012 L693,1011 L684,1012 L616,1012 L610,1013 L608,1012 L583,1011 L528,1011 L513,1010 L434,1010 L427,1009 L420,1010 L413,1009 L406,1010 L361,1009 L296,1009 L275,1008 L151,1008 L136,1007 L91,1007 L70,1006 L4,1006 L-2,1004 L-2,5 Z M414,180 L397,185 L382,194 L372,202 L362,215 L355,229 L352,236 L350,253 L348,299 L344,303 L341,304 L316,304 L306,303 L296,303 L290,304 L238,304 L228,305 L226,306 L211,308 L206,310 L197,312 L186,317 L179,320 L165,328 L160,332 L154,336 L142,347 L133,354 L127,363 L117,376 L111,387 L104,401 L97,428 L94,447 L94,460 L93,484 L92,544 L89,773 L89,848 L94,853 L98,855 L181,856 L223,857 L242,857 L250,858 L266,857 L298,858 L327,858 L334,859 L498,859 L514,861 L520,860 L582,861 L595,861 L604,862 L678,862 L695,863 L718,863 L740,864 L765,864 L773,865 L776,864 L829,864 L846,865 L852,866 L855,865 L887,865 L896,864 L900,859 L902,789 L903,736 L904,719 L903,708 L903,677 L904,671 L905,602 L905,537 L906,508 L905,499 L906,495 L907,471 L907,451 L906,439 L902,423 L901,417 L896,406 L888,386 L881,378 L869,362 L864,357 L860,352 L852,345 L847,341 L837,335 L824,327 L807,319 L806,318 L795,317 L788,314 L777,313 L766,310 L754,309 L689,308 L671,308 L661,306 L658,301 L657,292 L657,250 L653,232 L641,211 L630,199 L620,192 L604,185 L599,183 L572,181 L546,180 Z " fill="#000000" transform="translate(2,0)"/>
<path d="M0,0 L7,0 L14,1 L20,0 L77,1 L103,1 L107,2 L169,2 L174,5 L177,16 L176,43 L176,66 L174,77 L168,82 L143,82 L135,83 L128,83 L122,84 L108,83 L66,82 L60,83 L54,81 L6,81 L-17,80 L-22,77 L-23,76 L-24,68 L-24,52 L-23,13 L-21,3 L-18,1 Z " fill="#000000" transform="translate(428,226)"/>
<path d="M0,0 L41,0 L54,2 L72,7 L82,12 L98,20 L104,24 L109,27 L114,32 L118,37 L125,43 L131,52 L134,57 L139,62 L145,75 L148,85 L152,97 L154,108 L155,117 L155,147 L151,164 L148,174 L136,197 L129,207 L122,215 L115,222 L107,227 L97,235 L85,242 L65,250 L56,255 L52,262 L51,276 L51,303 L50,318 L50,326 L46,332 L39,335 L30,337 L31,340 L44,345 L53,352 L61,359 L71,374 L75,384 L77,391 L78,405 L77,422 L71,437 L67,443 L63,447 L60,452 L48,463 L36,469 L30,471 L28,472 L16,473 L-1,472 L-13,468 L-21,463 L-29,457 L-37,449 L-43,441 L-48,427 L-50,421 L-50,395 L-45,379 L-35,363 L-25,353 L-14,345 L1,339 L8,339 L12,338 L11,336 L8,335 L-3,335 L-15,333 L-20,329 L-21,312 L-21,298 L-20,285 L-20,241 L-19,186 L-14,177 L-12,176 L38,176 L48,173 L62,166 L70,159 L78,146 L80,136 L80,123 L75,107 L67,97 L60,91 L53,86 L44,83 L37,81 L11,81 L5,80 L-3,80 L-6,82 L-14,83 L-20,87 L-26,89 L-28,93 L-33,97 L-41,111 L-44,122 L-45,133 L-46,172 L-50,178 L-55,179 L-88,179 L-113,178 L-118,174 L-120,166 L-119,116 L-115,99 L-113,88 L-102,65 L-95,54 L-88,45 L-80,35 L-71,28 L-64,22 L-51,15 L-46,12 L-36,8 L-21,3 Z M21,336 L21,340 L24,339 L23,336 Z M-18,417 L-19,421 L-15,422 L-14,418 Z " fill="#000000" transform="translate(484,338)"/>
<path d="M0,0 L4,1 L4,3 L-1,3 Z " fill="#000000" transform="translate(978,1020)"/>
</svg>
