<?xml version="1.0" encoding="UTF-8"?>
<!-- Generator: visioncortex VTracer 0.6.12 -->
<svg version="1.1" xmlns="http://www.w3.org/2000/svg" width="1209" height="1311">
<path d="M0,0 L64,0 L66,1 L77,2 L92,7 L99,10 L112,15 L117,19 L128,26 L142,38 L149,46 L159,57 L167,69 L173,79 L177,88 L183,102 L188,127 L190,138 L191,153 L192,188 L193,280 L194,331 L196,460 L196,474 L197,503 L197,540 L198,559 L200,681 L201,708 L201,728 L202,781 L202,800 L203,864 L203,894 L201,910 L197,924 L189,944 L177,966 L170,974 L162,984 L157,988 L152,993 L145,998 L141,1002 L132,1007 L126,1011 L116,1015 L103,1021 L82,1026 L80,1027 L65,1028 L44,1029 L5,1029 L-4,1030 L-24,1030 L-50,1031 L-83,1032 L-141,1032 L-158,1033 L-182,1034 L-229,1034 L-232,1035 L-252,1035 L-276,1036 L-282,1035 L-288,1036 L-295,1035 L-298,1036 L-339,1036 L-376,1037 L-400,1037 L-407,1038 L-460,1038 L-468,1039 L-502,1039 L-512,1040 L-520,1039 L-552,1039 L-588,1040 L-658,1041 L-689,1041 L-708,1038 L-713,1035 L-722,1034 L-737,1026 L-751,1019 L-761,1011 L-770,1006 L-781,995 L-789,985 L-796,976 L-803,964 L-807,956 L-810,947 L-813,941 L-816,929 L-819,912 L-821,881 L-822,833 L-823,760 L-823,747 L-824,739 L-824,706 L-826,583 L-827,536 L-828,467 L-830,370 L-829,356 L-830,345 L-832,290 L-832,252 L-834,197 L-834,149 L-832,142 L-829,126 L-826,119 L-822,105 L-815,93 L-810,84 L-803,75 L-796,66 L-791,63 L-786,55 L-781,52 L-779,52 L-777,48 L-773,44 L-764,39 L-752,32 L-740,27 L-735,25 L-728,24 L-726,22 L-716,20 L-711,18 L-704,17 L-671,16 L-637,16 L-627,15 L-610,15 L-592,14 L-582,14 L-563,13 L-535,13 L-505,12 L-476,12 L-471,14 L-465,12 L-458,12 L-451,11 L-420,10 L-393,10 L-365,9 L-325,8 L-291,7 L-269,7 L-248,6 L-210,6 L-200,5 L-151,4 L-131,4 L-119,3 L-18,1 Z M34,12 L32,13 L17,14 L-34,14 L-68,15 L-75,14 L-81,16 L-111,16 L-160,17 L-186,18 L-203,18 L-212,19 L-285,20 L-290,21 L-312,21 L-317,22 L-326,21 L-339,22 L-397,23 L-427,23 L-446,24 L-465,24 L-483,25 L-528,26 L-566,26 L-574,27 L-596,27 L-602,28 L-605,27 L-615,27 L-623,28 L-667,28 L-674,29 L-694,29 L-718,33 L-736,38 L-751,45 L-766,54 L-769,57 L-769,59 L-776,61 L-786,71 L-791,78 L-795,82 L-805,98 L-810,108 L-816,122 L-818,133 L-821,147 L-822,159 L-822,189 L-821,231 L-821,251 L-820,282 L-820,351 L-819,370 L-818,422 L-817,455 L-816,541 L-815,574 L-815,614 L-814,652 L-813,717 L-812,743 L-812,771 L-810,829 L-810,862 L-808,912 L-806,921 L-800,941 L-791,961 L-787,969 L-777,982 L-767,992 L-762,997 L-757,1001 L-745,1009 L-737,1014 L-724,1020 L-700,1027 L-684,1029 L-674,1030 L-611,1029 L-590,1029 L-548,1028 L-532,1028 L-512,1027 L-496,1027 L-470,1026 L-435,1026 L-398,1025 L-347,1024 L-290,1023 L-231,1022 L-212,1022 L-180,1021 L-156,1021 L-124,1020 L-21,1019 L0,1019 L35,1017 L61,1017 L80,1016 L88,1013 L100,1010 L113,1005 L120,1001 L130,996 L136,991 L143,988 L150,980 L159,971 L165,962 L170,956 L174,948 L182,932 L186,920 L189,909 L191,891 L192,886 L192,811 L191,792 L191,748 L190,712 L188,585 L187,577 L187,508 L186,487 L186,472 L184,399 L183,299 L182,268 L181,261 L181,231 L180,201 L180,180 L179,150 L177,130 L171,106 L169,102 L167,94 L160,82 L155,73 L145,59 L136,48 L126,41 L116,33 L106,28 L98,24 L87,20 L76,16 L65,14 L44,13 Z " fill="#000000" transform="translate(870,37)"/>
<path d="M0,0 L12,0 L17,5 L19,11 L25,49 L27,65 L28,75 L28,84 L24,89 L13,93 L-4,95 L-16,98 L-32,100 L-40,100 L-46,102 L-67,104 L-80,107 L-96,110 L-115,111 L-118,107 L-123,88 L-125,78 L-128,74 L-137,73 L-158,76 L-167,78 L-187,82 L-199,83 L-210,86 L-220,88 L-224,90 L-225,92 L-225,108 L-223,125 L-220,132 L-215,136 L-206,138 L-192,137 L-167,137 L-154,139 L-149,144 L-148,146 L-148,156 L-152,161 L-162,163 L-176,163 L-191,164 L-228,165 L-238,165 L-242,166 L-276,166 L-292,167 L-316,167 L-350,168 L-356,169 L-363,168 L-377,169 L-407,170 L-461,170 L-510,171 L-516,166 L-516,154 L-513,149 L-509,147 L-502,146 L-480,146 L-471,145 L-456,145 L-446,141 L-442,133 L-439,115 L-437,90 L-433,57 L-429,47 L-427,44 L-410,41 L-391,41 L-363,40 L-351,40 L-345,39 L-310,39 L-306,38 L-247,38 L-238,42 L-235,46 L-231,63 L-229,73 L-225,76 L-214,76 L-193,73 L-183,71 L-176,71 L-164,68 L-146,66 L-138,63 L-130,61 L-129,58 L-129,30 L-126,23 L-118,19 L-101,17 L-92,15 L-90,14 L-73,12 L-66,10 L-37,7 L-21,5 L-15,5 L-12,3 Z M-5,12 L-19,14 L-34,15 L-38,16 L-51,17 L-56,19 L-71,21 L-84,23 L-106,26 L-115,29 L-119,33 L-120,41 L-117,54 L-114,57 L-112,58 L-105,58 L-96,55 L-92,53 L-85,54 L-81,59 L-81,67 L-84,72 L-91,73 L-98,68 L-108,69 L-114,73 L-114,86 L-113,96 L-110,102 L-103,103 L-100,102 L-89,101 L-72,98 L-63,96 L-35,92 L-30,91 L-14,90 L-2,87 L12,85 L18,81 L19,79 L18,63 L14,31 L11,19 L7,14 L1,12 Z " fill="#000000" transform="translate(852,169)"/>
<path d="M0,0 L19,0 L24,3 L36,15 L46,28 L51,34 L59,39 L67,41 L80,42 L84,41 L91,41 L99,42 L106,41 L122,41 L156,40 L183,40 L214,39 L278,39 L289,42 L301,53 L307,62 L311,72 L311,88 L308,100 L304,108 L294,119 L290,123 L282,127 L275,127 L272,124 L271,116 L279,106 L288,95 L290,86 L288,74 L283,66 L275,60 L274,59 L248,58 L238,58 L231,59 L228,65 L228,86 L229,125 L230,134 L231,174 L233,181 L238,184 L249,186 L268,186 L272,190 L273,193 L274,215 L275,265 L275,324 L273,330 L265,334 L230,334 L226,335 L193,335 L188,331 L186,325 L186,311 L185,289 L184,238 L184,198 L188,189 L192,187 L216,186 L221,183 L222,182 L223,171 L222,137 L221,131 L220,87 L218,67 L214,61 L210,59 L180,60 L171,59 L159,60 L120,61 L113,62 L100,62 L91,61 L74,62 L62,64 L57,68 L52,78 L47,86 L41,98 L34,107 L30,109 L15,109 L9,108 L-7,108 L-19,106 L-48,104 L-72,103 L-85,101 L-101,101 L-110,99 L-121,99 L-123,98 L-144,98 L-155,96 L-174,95 L-179,94 L-224,91 L-267,88 L-293,86 L-298,85 L-307,84 L-347,82 L-350,81 L-371,80 L-413,76 L-434,75 L-435,74 L-456,73 L-485,74 L-535,74 L-538,72 L-538,65 L-531,61 L-520,60 L-513,58 L-450,58 L-446,57 L-427,55 L-424,54 L-410,53 L-406,51 L-391,50 L-362,46 L-348,45 L-341,43 L-325,41 L-321,40 L-295,38 L-285,36 L-266,34 L-258,33 L-252,33 L-236,29 L-213,26 L-204,26 L-183,23 L-180,22 L-167,21 L-164,20 L-150,19 L-134,17 L-131,16 L-114,15 L-99,12 L-84,11 L-81,10 L-52,7 L-40,5 L-17,3 Z M200,194 L194,197 L192,199 L191,204 L191,221 L193,305 L194,323 L198,328 L235,328 L263,327 L267,323 L268,320 L268,270 L267,243 L266,222 L266,204 L264,197 L259,194 L239,194 L233,198 L232,201 L232,208 L236,217 L237,226 L234,231 L229,234 L224,233 L219,228 L219,221 L224,207 L224,201 L220,196 L213,194 Z " fill="#000000" transform="translate(661,374)"/>
<path d="M0,0 L33,0 L39,4 L42,13 L43,26 L43,33 L46,48 L51,51 L61,52 L83,51 L99,53 L104,58 L106,71 L107,83 L108,126 L109,139 L110,177 L110,196 L111,232 L112,282 L112,302 L113,325 L113,377 L111,384 L107,387 L102,388 L54,389 L17,390 L-28,390 L-43,391 L-62,391 L-83,392 L-102,393 L-119,393 L-145,392 L-151,389 L-153,386 L-154,379 L-154,367 L-155,346 L-155,330 L-157,299 L-157,256 L-158,226 L-158,206 L-160,140 L-160,67 L-156,61 L-153,59 L-143,57 L-114,57 L-98,54 L-95,50 L-93,42 L-93,21 L-91,10 L-87,6 L-80,4 L-63,3 L-59,1 L-35,1 Z M-9,20 L-44,21 L-66,23 L-71,26 L-73,30 L-73,40 L-71,48 L-66,54 L-64,55 L-34,55 L-30,53 L-25,53 L-22,55 L-5,55 L17,53 L21,51 L24,45 L25,32 L22,23 L13,20 Z M-99,130 L-101,131 L-114,132 L-117,135 L-121,150 L-120,168 L-120,232 L-118,264 L-115,274 L-110,277 L-98,278 L-59,278 L-55,276 L-48,274 L-41,266 L-41,213 L-42,167 L-43,149 L-45,140 L-49,135 L-53,133 L-68,130 Z " fill="#000000" transform="translate(559,557)"/>
<path d="M0,0 L6,0 L10,3 L27,3 L38,6 L48,12 L51,17 L55,33 L56,86 L57,104 L57,122 L58,153 L58,182 L59,190 L59,211 L60,223 L60,307 L57,321 L49,330 L37,336 L28,337 L18,337 L14,338 L-35,338 L-40,336 L-43,331 L-45,320 L-46,297 L-46,283 L-48,239 L-49,146 L-50,130 L-50,103 L-51,88 L-52,16 L-49,8 L-46,5 L-43,4 L-11,2 L-2,1 Z " fill="#000000" transform="translate(744,605)"/>
<path d="M0,0 L36,0 L43,9 L45,67 L46,122 L47,143 L47,174 L49,276 L49,293 L50,320 L47,329 L42,333 L38,334 L6,335 L-27,335 L-41,328 L-48,320 L-52,311 L-53,297 L-53,269 L-55,232 L-55,179 L-56,139 L-57,123 L-57,102 L-58,75 L-58,28 L-55,18 L-51,12 L-43,5 L-31,2 L-29,1 L-14,1 Z " fill="#000000" transform="translate(330,617)"/>
<path d="M0,0 L7,1 L13,10 L14,12 L14,18 L11,21 L6,21 L0,16 L-3,10 L-3,3 Z " fill="#000000" transform="translate(472,718)"/>
<path d="M0,0 L6,1 L9,4 L13,16 L20,33 L23,42 L33,68 L35,75 L34,80 L30,82 L26,81 L23,77 L16,61 L13,58 L8,57 L-14,58 L-18,63 L-26,79 L-33,80 L-36,77 L-34,68 L-27,54 L-24,44 L-20,36 L-16,23 L-12,15 L-8,4 L-5,1 Z M-2,23 L-4,25 L-6,30 L-10,39 L-10,44 L-6,47 L5,47 L8,45 L8,37 L3,24 Z " fill="#000000" transform="translate(106,1128)"/>
<path d="M0,0 L38,1 L55,1 L59,4 L58,9 L54,13 L37,13 L34,19 L33,71 L31,78 L30,79 L24,79 L21,75 L19,17 L18,14 L15,13 L-1,12 L-4,9 L-4,2 Z " fill="#000000" transform="translate(154,1128)"/>
<path d="M0,0 L6,0 L10,4 L15,19 L19,28 L28,54 L32,62 L35,71 L35,80 L34,81 L27,81 L23,78 L18,66 L16,59 L8,57 L-11,57 L-16,62 L-23,76 L-27,80 L-34,79 L-35,74 L-29,58 L-16,27 L-10,11 L-6,2 Z M-2,23 L-7,31 L-9,43 L-5,47 L7,47 L10,44 L10,38 L7,30 L4,24 L3,23 Z " fill="#000000" transform="translate(253,1129)"/>
<path d="M0,0 L54,0 L54,41 L-1155,41 L-1155,13 L-1088,12 L-1057,12 L-1018,11 L-851,10 L-740,9 L-647,8 L-626,8 L-536,7 L-518,7 L-405,5 L-371,5 L-316,4 L-285,4 L-185,3 L-144,2 L-111,2 L-59,1 L-38,1 Z " fill="#000000" transform="translate(1155,1270)"/>
</svg>
