<?xml version="1.0" encoding="UTF-8"?>
<!-- Generator: visioncortex VTracer 0.6.12 -->
<svg version="1.1" xmlns="http://www.w3.org/2000/svg" width="1014" height="1008">
<path d="M0,0 L10,0 L13,1 L15,0 L577,0 L576,2 L573,3 L548,3 L525,4 L413,4 L408,6 L406,5 L392,6 L323,7 L277,8 L243,8 L219,9 L176,9 L142,10 L84,11 L68,11 L33,12 L-18,12 L-20,13 L-50,13 L-84,14 L-104,14 L-117,15 L-160,16 L-201,16 L-208,17 L-221,17 L-236,18 L-253,18 L-254,22 L-256,22 L-256,5 L-219,5 L-170,4 L-149,3 L-125,3 L-87,2 L-67,2 L-58,1 L-35,2 L-32,1 L-1,1 Z " fill="#000000" transform="translate(256,0)"/>
<path d="M0,0 L61,0 L60,2 L54,3 L10,3 L1,2 Z " fill="#000000" transform="translate(837,0)"/>
<path d="M0,0 L11,0 L10,2 L2,2 Z " fill="#000000" transform="translate(904,0)"/>
<path d="M0,0 L8,0 L6,2 L0,1 Z " fill="#000000" transform="translate(923,0)"/>
<path d="M0,0 L30,0 L27,2 L2,2 Z " fill="#000000" transform="translate(935,0)"/>
<path d="M0,0 L5,0 L5,1 L0,1 Z " fill="#000000" transform="translate(978,0)"/>
<path d="M0,0 L26,0 L25,5 L25,23 L26,25 L26,1003 L24,1004 L7,1005 L-32,1005 L-68,1006 L-73,1008 L-78,1005 L-99,1006 L-151,1006 L-180,1007 L-184,1008 L-189,1006 L-189,1008 L-201,1007 L-202,1008 L-801,1008 L-800,1006 L-791,1005 L-740,1005 L-686,1004 L-631,1003 L-599,1003 L-591,1002 L-526,1002 L-517,1001 L-458,1001 L-432,1000 L-408,1000 L-363,999 L-305,998 L-291,998 L-284,997 L-249,997 L-197,996 L-171,996 L-129,995 L-82,995 L-56,994 L-47,995 L-9,995 L-2,994 L15,993 L19,992 L21,982 L21,969 L20,943 L19,873 L19,815 L18,787 L18,735 L16,647 L16,625 L15,597 L16,586 L15,577 L15,516 L14,511 L13,408 L12,347 L12,334 L11,310 L12,300 L11,289 L10,211 L9,156 L8,141 L7,51 L6,15 L4,4 L0,2 Z " fill="#000000" transform="translate(988,0)"/>
<path d="M0,0 L2,1 L3,33 L4,133 L4,197 L5,243 L5,324 L6,345 L6,373 L7,406 L8,463 L8,502 L10,627 L10,689 L11,729 L11,758 L12,785 L12,799 L13,824 L13,842 L15,852 L0,852 L0,838 L1,833 L0,831 Z " fill="#000000" transform="translate(0,156)"/>
<path d="M0,0 L10,0 L16,3 L19,8 L21,20 L24,46 L26,53 L28,73 L31,79 L38,81 L44,82 L52,82 L54,81 L61,81 L68,82 L76,81 L86,82 L89,85 L90,88 L90,95 L87,98 L82,99 L57,100 L35,101 L25,101 L22,102 L8,102 L-42,104 L-89,105 L-91,106 L-149,106 L-156,107 L-162,106 L-179,109 L-182,115 L-182,127 L-180,160 L-179,162 L-162,162 L-150,160 L-138,158 L-108,155 L-101,153 L-79,151 L-75,150 L-62,149 L-49,147 L-41,147 L-21,144 L-18,143 L11,140 L29,137 L54,135 L58,134 L66,134 L74,141 L85,154 L94,165 L99,168 L113,168 L121,166 L127,167 L134,168 L144,167 L197,167 L211,166 L259,166 L272,167 L281,172 L287,177 L296,190 L298,197 L298,205 L296,215 L290,225 L283,231 L273,235 L266,236 L258,236 L253,231 L255,224 L259,221 L271,219 L279,213 L281,209 L281,197 L276,188 L268,182 L259,180 L215,180 L193,181 L180,180 L170,181 L154,181 L147,183 L132,183 L129,185 L129,233 L130,248 L132,252 L140,256 L159,264 L177,270 L182,275 L184,283 L185,293 L187,346 L188,362 L188,380 L189,430 L186,436 L176,438 L171,437 L129,437 L118,439 L75,439 L73,436 L71,385 L71,280 L78,273 L94,267 L113,257 L119,254 L121,254 L123,238 L124,230 L122,222 L120,186 L115,184 L109,183 L101,184 L91,193 L85,202 L81,207 L74,216 L69,219 L63,220 L50,220 L36,219 L3,218 L-6,217 L-22,215 L-35,215 L-37,214 L-50,214 L-60,212 L-90,210 L-121,207 L-157,205 L-174,205 L-179,207 L-180,212 L-180,241 L-179,256 L-177,261 L-161,269 L-151,273 L-143,276 L-133,279 L-127,285 L-126,292 L-124,349 L-124,364 L-125,399 L-124,410 L-125,433 L-127,441 L-132,444 L-147,444 L-188,446 L-206,446 L-213,447 L-230,446 L-234,443 L-236,434 L-236,417 L-237,377 L-239,328 L-239,292 L-236,286 L-231,282 L-220,277 L-195,265 L-189,262 L-187,257 L-187,221 L-188,208 L-191,203 L-203,204 L-207,202 L-226,200 L-246,199 L-266,197 L-296,195 L-347,195 L-354,196 L-380,196 L-386,194 L-388,192 L-387,187 L-386,186 L-365,184 L-351,183 L-315,182 L-299,181 L-287,179 L-272,177 L-260,175 L-253,173 L-228,170 L-190,164 L-189,163 L-188,145 L-189,122 L-190,112 L-192,109 L-199,106 L-201,102 L-200,93 L-195,88 L-188,85 L-183,85 L-174,88 L-166,87 L-150,87 L-143,84 L-140,72 L-138,46 L-134,22 L-132,12 L-127,7 L-125,6 L-97,4 L-84,4 L-43,2 L-18,1 L-5,1 Z M115,264 L107,267 L97,272 L83,279 L79,284 L78,287 L78,336 L80,398 L80,422 L84,430 L102,431 L127,430 L153,430 L173,429 L178,426 L179,424 L179,374 L178,310 L177,291 L175,281 L170,277 L150,269 L141,266 L133,266 L131,268 L131,275 L133,277 L133,287 L126,288 L123,285 L124,277 L124,266 L122,264 Z M-194,274 L-201,278 L-210,282 L-216,286 L-225,290 L-230,298 L-230,329 L-229,377 L-229,424 L-227,434 L-224,438 L-220,439 L-200,439 L-191,438 L-160,437 L-137,435 L-134,432 L-133,427 L-133,371 L-134,296 L-137,290 L-144,285 L-156,280 L-165,278 L-168,276 L-175,276 L-177,280 L-176,283 L-176,290 L-178,293 L-187,294 L-187,279 L-192,274 Z " fill="#000000" transform="translate(526,216)"/>
<path d="M0,0 L5,1 L8,5 L12,21 L12,32 L14,46 L15,68 L17,75 L19,76 L20,15 L23,8 L27,4 L32,5 L36,10 L39,20 L41,46 L42,53 L45,102 L47,117 L48,136 L52,136 L58,120 L60,112 L68,97 L74,92 L79,93 L82,97 L82,104 L80,113 L79,124 L76,137 L74,150 L70,171 L66,197 L61,222 L58,243 L55,259 L56,280 L57,304 L57,326 L54,331 L48,334 L29,334 L3,335 L-9,336 L-11,335 L-33,336 L-49,336 L-61,334 L-64,330 L-65,318 L-66,282 L-66,267 L-67,228 L-67,40 L-66,19 L-64,12 L-61,9 L-56,9 L-51,14 L-49,22 L-45,77 L-43,87 L-41,87 L-39,73 L-37,15 L-34,5 L-30,1 L-24,1 L-20,6 L-17,14 L-14,62 L-13,65 L-10,66 L-10,35 L-9,25 L-8,13 L-6,5 Z " fill="#000000" transform="translate(493,458)"/>
<path d="M0,0 L4,1 L5,31 L6,46 L6,68 L7,88 L5,91 L1,90 L0,67 L-1,20 L-2,2 Z " fill="#000000" transform="translate(674,528)"/>
<path d="M0,0 L4,1 L5,3 L5,29 L6,52 L6,78 L5,80 L1,79 L0,62 L-1,51 L-1,2 Z " fill="#000000" transform="translate(364,536)"/>
<path d="M0,0 L4,1 L5,17 L5,55 L4,65 L1,66 L-1,57 L-1,1 Z " fill="#000000" transform="translate(326,549)"/>
<path d="M0,0 L4,1 L5,14 L5,53 L1,55 L-1,52 L-2,17 L-1,1 Z " fill="#000000" transform="translate(345,562)"/>
<path d="M0,0 L2,1 L2,14 L3,28 L2,30 L-2,29 L-2,14 L-1,11 L-2,9 L-2,2 Z " fill="#000000" transform="translate(651,575)"/>
<path d="M0,0 L3,0 L3,4 L0,5 L-1,1 Z " fill="#000000" transform="translate(17,737)"/>
<path d="M0,0 L20,0 L21,2 L-1,2 Z " fill="#000000" transform="translate(159,1006)"/>
</svg>
