<?xml version="1.0" encoding="UTF-8"?>
<!-- Generator: visioncortex VTracer 0.6.12 -->
<svg version="1.1" xmlns="http://www.w3.org/2000/svg" width="1125" height="1137">
<path d="M0,0 L897,0 L899,2 L910,6 L925,14 L935,21 L946,28 L956,37 L975,56 L988,74 L995,85 L1002,99 L1007,111 L1008,112 L1008,1024 L1005,1029 L999,1042 L993,1053 L981,1070 L973,1080 L961,1093 L951,1102 L938,1112 L927,1119 L905,1131 L894,1135 L892,1135 L892,1137 L2,1137 L0,1135 L-16,1130 L-22,1126 L-38,1118 L-49,1111 L-60,1103 L-74,1091 L-87,1077 L-97,1063 L-106,1049 L-114,1034 L-115,1029 L-117,1029 L-117,114 L-112,104 L-104,88 L-100,80 L-88,63 L-73,47 L-68,42 L-61,35 L-50,27 L-37,17 L-20,9 L-4,2 Z M711,20 L693,21 L457,21 L390,22 L317,21 L214,22 L151,22 L85,23 L79,21 L72,23 L59,23 L36,24 L29,27 L13,31 L-3,36 L-19,45 L-35,56 L-50,69 L-59,79 L-71,95 L-81,113 L-92,140 L-96,163 L-97,175 L-98,237 L-98,362 L-97,385 L-97,500 L-98,574 L-98,860 L-99,899 L-98,914 L-98,937 L-97,972 L-95,986 L-91,1000 L-89,1009 L-80,1029 L-74,1039 L-68,1047 L-60,1058 L-55,1064 L-47,1071 L-39,1078 L-26,1087 L-13,1095 L3,1102 L24,1109 L26,1110 L38,1111 L40,1112 L71,1113 L633,1113 L678,1114 L684,1115 L686,1114 L839,1113 L852,1112 L865,1109 L881,1105 L898,1097 L913,1089 L924,1081 L934,1072 L942,1065 L952,1054 L962,1039 L969,1027 L975,1015 L981,994 L984,979 L987,956 L987,879 L988,749 L988,279 L987,168 L984,146 L979,131 L976,122 L971,110 L967,104 L962,95 L955,86 L951,79 L946,73 L938,66 L928,56 L917,48 L910,44 L895,36 L885,32 L872,27 L859,24 L841,22 L837,21 L802,21 Z " fill="#000000" transform="translate(117,0)"/>
<path d="M0,0 L5,0 L6,2 L3,6 L-3,9 L-15,21 L-18,29 L-19,41 L-17,53 L-9,63 L-2,68 L2,70 L1,75 L-10,83 L-15,91 L-18,100 L-18,113 L-14,123 L-10,128 L-5,133 L3,138 L2,142 L-4,146 L-9,151 L-11,156 L-9,159 L18,161 L26,160 L40,161 L196,161 L217,163 L236,169 L250,178 L258,186 L266,196 L272,211 L275,227 L275,240 L271,256 L264,270 L257,279 L249,286 L241,292 L227,299 L217,301 L201,301 L195,296 L194,289 L199,283 L212,280 L224,277 L238,269 L248,256 L253,243 L254,235 L254,224 L250,210 L240,196 L227,187 L214,183 L114,183 L108,188 L108,338 L109,347 L112,350 L129,354 L159,368 L167,375 L175,382 L185,393 L191,401 L197,413 L203,431 L204,442 L204,554 L205,620 L204,644 L204,746 L203,766 L200,769 L196,770 L28,770 L-6,769 L-10,765 L-11,752 L-11,590 L-10,449 L-5,427 L3,407 L12,394 L21,384 L27,377 L37,369 L46,363 L60,358 L69,354 L81,350 L84,346 L85,343 L86,276 L86,211 L85,188 L82,184 L79,183 L65,182 L52,182 L44,183 L38,182 L8,182 L-9,183 L-13,185 L-12,192 L-8,197 L1,203 L3,204 L2,209 L-8,216 L-14,223 L-18,231 L-19,235 L-19,243 L-17,251 L-11,261 L-4,267 L3,271 L2,276 L-9,283 L-15,291 L-18,299 L-18,313 L-13,325 L-7,332 L4,338 L6,342 L1,343 L-7,339 L-26,332 L-38,329 L-54,323 L-62,321 L-71,317 L-84,313 L-98,307 L-115,302 L-128,297 L-138,294 L-149,289 L-162,285 L-181,278 L-193,274 L-200,271 L-213,267 L-226,262 L-239,258 L-255,252 L-266,249 L-276,245 L-293,239 L-312,232 L-325,228 L-330,226 L-337,224 L-353,218 L-362,216 L-374,211 L-385,207 L-393,203 L-394,200 L-393,195 L-397,196 L-401,200 L-410,198 L-437,189 L-450,184 L-454,183 L-481,183 L-491,179 L-493,177 L-493,170 L-488,165 L-483,164 L-452,163 L-434,158 L-425,154 L-415,151 L-400,145 L-389,141 L-380,138 L-358,130 L-329,120 L-326,118 L-317,115 L-297,108 L-279,101 L-267,97 L-258,94 L-243,89 L-233,85 L-220,80 L-202,74 L-195,71 L-178,65 L-167,60 L-146,53 L-136,50 L-126,45 L-116,42 L-101,36 L-93,34 L-76,27 L-60,22 L-46,17 L-29,11 L-23,8 L-15,6 L-1,1 Z M94,390 L81,397 L75,409 L75,417 L81,428 L87,432 L97,435 L104,434 L113,428 L118,420 L119,415 L119,406 L111,395 L103,390 Z M92,506 L82,508 L72,511 L59,518 L47,529 L42,537 L38,547 L38,560 L41,563 L44,564 L62,565 L67,562 L71,556 L74,549 L81,541 L89,538 L105,538 L112,542 L118,549 L119,553 L119,564 L116,570 L108,578 L96,587 L87,599 L83,611 L83,621 L87,627 L91,629 L103,629 L113,627 L118,613 L125,605 L133,599 L144,590 L152,579 L156,569 L157,556 L154,544 L146,528 L131,514 L118,509 L99,506 Z M91,641 L86,643 L81,649 L81,669 L84,675 L86,676 L112,676 L116,672 L118,659 L117,649 L114,644 L112,642 Z " fill="#000000" transform="translate(667,183)"/>
<path d="M0,0 L2,1 L1,4 L-2,3 L-2,1 Z " fill="#000000" transform="translate(187,596)"/>
<path d="M0,0 L3,1 L3,3 L0,3 Z " fill="#000000" transform="translate(558,888)"/>
</svg>
