<?xml version="1.0" encoding="UTF-8"?>
<!-- Generator: visioncortex VTracer 0.6.12 -->
<svg version="1.1" xmlns="http://www.w3.org/2000/svg" width="1107" height="1245">
<path d="M0,0 L62,0 L80,1 L92,4 L97,6 L108,8 L122,13 L133,19 L140,24 L145,27 L154,34 L162,41 L168,48 L173,53 L182,65 L191,81 L199,99 L201,108 L204,120 L206,141 L206,179 L207,206 L208,216 L208,256 L209,320 L211,371 L212,421 L213,451 L213,477 L214,504 L215,568 L216,603 L216,629 L217,654 L217,673 L219,764 L220,809 L220,876 L217,899 L215,903 L212,915 L201,938 L197,944 L188,956 L179,966 L173,973 L170,976 L165,979 L158,985 L148,991 L138,997 L133,1000 L120,1004 L107,1008 L93,1011 L63,1013 L45,1013 L40,1014 L30,1013 L25,1014 L-30,1014 L-37,1013 L-41,1015 L-107,1015 L-130,1016 L-151,1016 L-180,1017 L-194,1018 L-208,1017 L-214,1018 L-224,1018 L-231,1017 L-233,1018 L-382,1018 L-391,1019 L-404,1019 L-441,1020 L-460,1021 L-496,1021 L-527,1022 L-542,1023 L-548,1022 L-551,1023 L-569,1023 L-589,1024 L-626,1024 L-644,1025 L-671,1025 L-681,1023 L-696,1021 L-710,1017 L-717,1013 L-727,1009 L-738,1003 L-746,998 L-757,989 L-762,983 L-768,979 L-774,971 L-780,963 L-791,944 L-794,939 L-800,921 L-803,905 L-805,885 L-806,864 L-805,818 L-806,811 L-806,795 L-807,772 L-808,714 L-810,664 L-811,625 L-811,610 L-812,603 L-813,517 L-814,469 L-814,447 L-815,398 L-816,370 L-816,281 L-817,274 L-818,246 L-816,243 L-817,236 L-818,232 L-818,152 L-816,145 L-815,131 L-813,127 L-811,117 L-806,104 L-801,94 L-795,83 L-788,72 L-783,67 L-776,59 L-768,51 L-759,45 L-757,45 L-756,42 L-747,37 L-738,31 L-731,28 L-723,26 L-716,22 L-697,17 L-695,16 L-677,16 L-674,15 L-646,14 L-635,15 L-620,14 L-597,14 L-554,12 L-527,12 L-467,10 L-428,10 L-400,9 L-322,8 L-307,7 L-266,7 L-255,6 L-211,5 L-206,6 L-187,5 L-128,4 L-101,3 L-16,1 Z M33,13 L24,14 L1,15 L-24,15 L-29,14 L-33,15 L-70,16 L-110,16 L-141,17 L-155,18 L-187,18 L-194,19 L-247,19 L-267,20 L-275,19 L-288,21 L-379,21 L-402,22 L-416,22 L-453,24 L-466,23 L-486,23 L-492,24 L-542,25 L-615,27 L-639,27 L-648,28 L-658,27 L-667,28 L-675,29 L-678,30 L-699,31 L-708,35 L-724,40 L-740,48 L-749,54 L-760,62 L-760,64 L-764,66 L-779,82 L-788,98 L-797,115 L-802,131 L-804,141 L-806,152 L-807,167 L-806,269 L-804,344 L-801,472 L-800,535 L-799,557 L-799,571 L-798,597 L-797,671 L-796,708 L-796,728 L-795,764 L-794,839 L-794,868 L-791,904 L-787,921 L-781,935 L-773,950 L-764,962 L-757,969 L-750,977 L-739,986 L-731,991 L-727,994 L-720,997 L-706,1003 L-698,1005 L-687,1009 L-676,1011 L-664,1011 L-660,1012 L-625,1012 L-535,1010 L-509,1010 L-465,1009 L-435,1008 L-406,1008 L-402,1009 L-395,1008 L-390,1009 L-388,1008 L-361,1007 L-317,1007 L-310,1006 L-263,1005 L-232,1004 L-161,1003 L-120,1002 L-99,1002 L-65,1001 L-39,1001 L25,1000 L61,999 L89,997 L111,992 L120,989 L132,984 L147,976 L152,972 L163,964 L175,953 L185,940 L193,927 L199,915 L204,899 L207,884 L209,860 L209,834 L208,785 L207,753 L207,724 L206,707 L206,685 L205,646 L205,621 L204,587 L202,456 L202,442 L201,425 L201,400 L200,379 L200,353 L199,329 L199,270 L197,260 L197,235 L196,180 L195,149 L193,126 L190,116 L186,103 L183,95 L175,79 L166,67 L156,55 L153,50 L143,44 L130,34 L120,28 L110,24 L102,22 L95,19 L85,16 L63,14 Z " fill="#000000" transform="translate(854,35)"/>
<path d="M0,0 L32,1 L37,2 L58,4 L65,7 L75,9 L80,11 L88,13 L104,21 L117,29 L128,37 L138,46 L142,51 L146,55 L153,64 L159,73 L167,89 L173,108 L175,117 L176,131 L176,152 L174,166 L169,180 L161,196 L151,211 L146,217 L141,221 L136,227 L127,234 L123,239 L112,246 L101,255 L92,261 L84,268 L74,278 L67,289 L64,296 L62,303 L59,327 L56,330 L53,331 L24,332 L14,331 L-6,331 L-15,328 L-16,326 L-17,308 L-14,276 L-10,268 L-8,259 L-2,249 L8,235 L13,230 L21,223 L33,214 L43,207 L54,198 L60,194 L77,177 L87,161 L90,145 L90,136 L88,124 L84,111 L77,101 L71,93 L63,87 L54,82 L48,79 L32,75 L20,73 L11,74 L-7,74 L-17,76 L-34,84 L-47,94 L-52,100 L-54,100 L-56,105 L-59,109 L-66,128 L-70,142 L-72,148 L-77,152 L-85,154 L-90,152 L-109,153 L-142,153 L-147,150 L-147,133 L-145,119 L-141,107 L-139,98 L-127,72 L-119,61 L-113,53 L-106,48 L-102,43 L-97,38 L-92,33 L-82,25 L-66,17 L-56,12 L-39,7 L-34,5 L-24,3 L-3,1 Z " fill="#000000" transform="translate(533,91)"/>
<path d="M0,0 L5,2 L6,4 L7,21 L7,73 L3,78 L0,79 L-62,79 L-67,75 L-68,70 L-69,52 L-69,8 L-66,3 L-57,1 Z " fill="#000000" transform="translate(587,466)"/>
<path d="M0,0 L9,0 L16,6 L20,16 L21,23 L22,48 L23,59 L25,114 L26,126 L29,131 L34,131 L40,90 L42,70 L44,54 L46,27 L51,17 L58,10 L68,10 L76,15 L78,19 L79,27 L79,45 L78,80 L77,87 L76,112 L75,141 L74,145 L74,171 L76,175 L81,175 L88,169 L93,160 L100,152 L106,143 L116,130 L120,124 L125,118 L134,112 L142,112 L148,115 L153,120 L156,130 L155,136 L145,159 L142,163 L138,173 L130,189 L124,200 L119,213 L113,223 L108,235 L100,251 L93,267 L89,275 L85,284 L78,298 L72,310 L67,314 L51,315 L-34,315 L-82,316 L-85,311 L-87,299 L-89,280 L-94,237 L-97,210 L-97,203 L-98,201 L-101,175 L-102,170 L-103,150 L-105,137 L-110,87 L-111,83 L-111,61 L-105,54 L-96,53 L-90,58 L-87,65 L-85,74 L-83,80 L-81,94 L-78,106 L-76,117 L-73,132 L-71,139 L-66,139 L-65,136 L-66,105 L-67,88 L-67,70 L-69,40 L-65,27 L-60,22 L-55,20 L-47,21 L-40,26 L-36,34 L-36,45 L-33,69 L-31,93 L-27,126 L-25,132 L-23,133 L-15,133 L-12,119 L-12,18 L-9,7 L-5,2 Z M-4,167 L-8,172 L-9,174 L-9,230 L-8,242 L-3,248 L2,248 L5,245 L6,242 L7,224 L6,180 L4,169 L2,167 Z M34,174 L31,177 L29,188 L23,230 L22,236 L23,244 L28,248 L33,247 L36,244 L39,232 L42,208 L43,192 L44,181 L42,176 L39,174 Z M-40,175 L-43,177 L-44,181 L-44,208 L-43,212 L-41,232 L-40,240 L-36,246 L-34,248 L-29,247 L-26,243 L-25,237 L-25,226 L-26,222 L-29,187 L-31,179 L-37,175 Z " fill="#000000" transform="translate(774,487)"/>
<path d="M0,0 L48,0 L75,1 L89,2 L97,2 L121,5 L145,7 L158,10 L166,15 L169,20 L172,28 L175,47 L177,52 L180,67 L184,80 L190,106 L194,119 L200,126 L217,131 L256,136 L275,139 L281,146 L284,155 L285,159 L285,167 L283,174 L278,178 L270,179 L237,180 L214,181 L196,181 L157,182 L149,182 L139,183 L94,184 L68,184 L64,185 L42,185 L35,186 L23,185 L13,186 L-2,186 L-29,187 L-55,187 L-116,188 L-126,188 L-130,189 L-143,189 L-154,187 L-158,183 L-159,174 L-155,164 L-147,159 L-131,153 L-111,145 L-89,136 L-80,133 L-73,125 L-65,112 L-63,108 L-61,101 L-53,83 L-46,69 L-42,59 L-27,24 L-21,12 L-18,7 L-10,1 Z " fill="#000000" transform="translate(278,629)"/>
<path d="M0,0 L18,0 L28,3 L43,8 L51,12 L60,18 L69,25 L77,33 L81,39 L90,52 L93,61 L99,79 L102,97 L101,111 L99,127 L95,136 L87,152 L78,164 L73,168 L68,174 L55,182 L43,189 L31,193 L19,195 L7,196 L-45,197 L-112,197 L-114,194 L-114,156 L-112,154 L-93,153 L-59,153 L-49,152 L-3,152 L19,149 L33,142 L45,132 L49,124 L52,117 L54,107 L55,100 L52,85 L48,74 L42,64 L35,57 L22,48 L12,47 L7,45 L-5,43 L-13,39 L-19,31 L-21,26 L-20,17 L-16,8 L-11,3 L-7,1 Z " fill="#000000" transform="translate(912,739)"/>
<path d="M0,0 L7,1 L11,6 L16,11 L22,18 L40,31 L51,35 L59,38 L79,42 L95,42 L97,44 L100,56 L99,82 L97,86 L89,89 L71,90 L60,93 L55,96 L47,98 L41,102 L36,105 L31,109 L20,118 L13,126 L8,132 L4,134 L-59,132 L-71,132 L-75,133 L-78,131 L-106,130 L-110,129 L-123,129 L-161,127 L-173,127 L-223,125 L-243,125 L-248,124 L-301,122 L-324,122 L-327,121 L-338,120 L-368,119 L-380,118 L-394,117 L-427,116 L-433,114 L-436,110 L-437,106 L-437,46 L-432,41 L-423,40 L-414,39 L-386,37 L-381,36 L-348,34 L-343,32 L-323,31 L-294,28 L-275,27 L-268,26 L-263,25 L-255,25 L-241,23 L-234,23 L-220,21 L-191,18 L-182,18 L-166,16 L-152,16 L-145,14 L-127,13 L-123,12 L-108,11 L-103,10 L-87,9 L-83,8 L-59,6 L-55,5 L-41,5 L-29,4 L-26,3 L-14,2 L-11,1 Z M-261,83 L-262,84 L-262,89 L-257,88 L-258,83 Z " fill="#000000" transform="translate(671,850)"/>
<path d="M0,0 L5,0 L6,1 L7,30 L7,55 L4,58 L0,57 L-5,51 L-16,42 L-30,40 L-42,41 L-87,41 L-90,39 L-91,34 L-91,26 L-89,21 L-85,20 L-70,20 L-34,18 L-21,17 L-13,14 L-8,10 Z " fill="#000000" transform="translate(210,898)"/>
<path d="M0,0 L4,1 L6,8 L-1,36 L-6,55 L-8,64 L-12,79 L-15,82 L-21,82 L-26,79 L-29,70 L-33,59 L-36,47 L-38,43 L-41,29 L-45,29 L-51,48 L-55,64 L-57,70 L-59,78 L-63,83 L-72,82 L-76,72 L-78,61 L-82,50 L-84,42 L-90,18 L-92,9 L-90,4 L-83,3 L-80,9 L-75,31 L-73,35 L-72,45 L-68,54 L-64,55 L-61,43 L-58,33 L-54,16 L-51,7 L-46,3 L-41,2 L-36,5 L-30,25 L-25,43 L-22,52 L-22,55 L-18,54 L-14,42 L-8,10 L-5,3 Z " fill="#000000" transform="translate(346,1123)"/>
<path d="M0,0 L6,0 L8,4 L3,17 L0,25 L-7,44 L-15,66 L-19,75 L-23,84 L-29,83 L-30,77 L-25,64 L-17,43 L-13,32 L-7,17 L-3,4 Z " fill="#000000" transform="translate(159,1127)"/>
<path d="M0,0 L14,0 L16,2 L15,9 L11,12 L-3,12 L-15,13 L-24,12 L-26,21 L-25,31 L-21,34 L7,34 L9,37 L8,43 L4,45 L-14,45 L-21,46 L-24,47 L-25,55 L-25,76 L-28,81 L-32,82 L-37,78 L-38,57 L-38,6 L-33,1 L-4,1 Z " fill="#000000" transform="translate(229,1126)"/>
<path d="M0,0 L35,0 L44,3 L54,9 L60,20 L62,28 L63,44 L59,61 L54,69 L49,75 L40,80 L22,81 L18,82 L0,82 L-3,80 L-4,70 L-5,34 L-5,5 Z M14,12 L9,17 L8,22 L8,64 L10,68 L17,70 L37,69 L44,63 L47,58 L50,46 L49,31 L45,21 L36,13 L27,12 Z " fill="#000000" transform="translate(49,1131)"/>
</svg>
