<?xml version="1.0" encoding="UTF-8"?>
<!-- Generator: visioncortex VTracer 0.6.12 -->
<svg version="1.1" xmlns="http://www.w3.org/2000/svg" width="1041" height="1221">
<path d="M0,0 L93,1 L368,1 L378,0 L387,1 L665,1 L670,4 L671,5 L672,81 L672,298 L673,348 L673,512 L674,540 L673,543 L674,567 L674,755 L673,793 L674,807 L674,818 L673,826 L674,830 L674,1001 L671,1007 L666,1009 L542,1009 L510,1008 L493,1009 L475,1009 L472,1008 L395,1008 L382,1007 L379,1008 L326,1009 L318,1008 L307,1008 L288,1007 L285,1008 L204,1006 L196,1007 L190,1006 L182,1007 L152,1006 L133,1006 L128,1007 L118,1006 L103,1006 L95,1007 L18,1007 L13,1006 L-11,1007 L-28,1006 L-61,1006 L-79,1007 L-187,1007 L-206,1008 L-233,1006 L-237,1008 L-252,1008 L-255,1007 L-288,1008 L-299,1007 L-301,1008 L-317,1009 L-324,1008 L-331,1007 L-334,1006 L-334,2 L-314,1 L-286,1 L-275,2 L-265,2 L-255,1 L-243,1 L-236,2 L-219,2 L-217,1 L-146,1 L-141,2 L-136,1 L-15,1 Z M-88,26 L-119,28 L-260,28 L-265,27 L-271,28 L-306,29 L-313,32 L-316,36 L-316,51 L-315,58 L-316,128 L-315,190 L-315,259 L-314,273 L-315,285 L-314,300 L-313,335 L-313,662 L-312,726 L-312,810 L-311,837 L-312,849 L-311,888 L-311,968 L-310,980 L-305,983 L-302,984 L-280,985 L-99,985 L-95,984 L-29,985 L49,985 L53,984 L310,984 L344,985 L352,984 L375,983 L410,984 L476,984 L521,983 L531,984 L609,984 L614,983 L640,982 L645,977 L646,972 L647,930 L647,855 L646,824 L646,645 L645,596 L646,592 L645,522 L645,489 L646,460 L645,448 L645,385 L644,344 L644,276 L643,201 L643,102 L642,78 L643,41 L641,32 L635,28 L625,27 L614,27 L601,28 L575,27 L517,28 L497,27 L270,27 L263,26 L254,27 L235,28 L231,27 L217,27 L185,28 L160,27 L60,27 L38,26 L28,27 L16,27 L-7,26 L-31,26 L-57,27 L-65,27 L-72,26 Z " fill="#000000" transform="translate(334,35)"/>
<path d="M0,0 L23,1 L54,2 L75,5 L89,8 L98,14 L102,19 L107,32 L115,75 L116,77 L116,92 L111,95 L85,94 L80,89 L75,61 L73,50 L60,48 L42,48 L27,47 L17,48 L-39,48 L-45,51 L-47,54 L-52,89 L-56,94 L-58,95 L-81,95 L-87,92 L-88,90 L-88,76 L-86,68 L-84,52 L-81,35 L-77,24 L-70,15 L-60,9 L-44,4 L-39,3 L-5,1 Z " fill="#000000" transform="translate(487,253)"/>
<path d="M0,0 L18,1 L23,7 L24,17 L24,118 L25,159 L26,199 L25,271 L25,510 L21,515 L19,516 L-29,516 L-53,517 L-67,515 L-71,517 L-85,516 L-111,516 L-123,514 L-126,512 L-135,510 L-149,497 L-156,486 L-158,481 L-160,466 L-161,463 L-161,344 L-162,139 L-162,45 L-160,34 L-154,22 L-145,12 L-127,2 L-115,1 L-42,1 Z " fill="#000000" transform="translate(278,365)"/>
<path d="M0,0 L74,0 L180,1 L287,1 L299,3 L303,9 L304,93 L304,148 L305,232 L304,244 L304,272 L305,333 L305,400 L306,415 L306,444 L305,470 L305,511 L302,516 L297,518 L280,518 L271,517 L258,518 L257,517 L238,516 L231,517 L187,517 L171,516 L128,516 L83,515 L41,516 L-10,515 L-15,511 L-16,507 L-16,196 L-17,142 L-17,107 L-16,59 L-17,24 L-16,8 L-13,3 L-10,1 Z M90,271 L89,275 L93,275 L92,271 Z " fill="#000000" transform="translate(360,366)"/>
<path d="M0,0 L114,0 L134,2 L150,10 L154,15 L159,20 L162,24 L167,37 L169,46 L169,127 L170,146 L170,337 L171,440 L171,462 L168,483 L164,493 L158,501 L150,508 L143,512 L131,516 L78,516 L71,515 L64,516 L48,515 L40,516 L9,516 L-1,515 L-9,515 L-12,510 L-13,501 L-13,390 L-14,253 L-14,156 L-15,121 L-15,9 L-12,2 L-5,1 Z " fill="#000000" transform="translate(718,367)"/>
<path d="M0,0 L6,1 L32,1 L57,2 L59,4 L59,9 L54,13 L52,14 L38,14 L35,17 L34,49 L34,71 L32,78 L28,81 L22,80 L21,79 L21,49 L22,34 L20,15 L13,13 L-1,12 L-4,7 L-3,2 Z " fill="#000000" transform="translate(8,1105)"/>
<path d="M0,0 L10,0 L15,5 L20,21 L23,29 L25,38 L29,47 L32,54 L36,64 L39,72 L39,78 L36,81 L29,81 L25,75 L22,66 L20,59 L18,57 L-10,57 L-13,60 L-21,78 L-25,80 L-31,80 L-33,76 L-27,60 L-22,48 L-18,40 L-14,27 L-9,19 L-5,7 L-1,1 Z M2,21 L-3,33 L-4,36 L-4,43 L-1,46 L2,47 L11,47 L13,45 L13,38 L9,26 L6,21 Z " fill="#000000" transform="translate(104,1108)"/>
</svg>
