<?xml version="1.0" encoding="UTF-8"?>
<!-- Generator: visioncortex VTracer 0.6.12 -->
<svg version="1.1" xmlns="http://www.w3.org/2000/svg" width="1020" height="1002">
<path d="M0,0 L383,0 L384,1 L398,0 L409,0 L424,2 L427,0 L459,0 L460,1 L467,1 L472,0 L478,2 L482,0 L491,1 L492,0 L497,0 L498,1 L508,1 L509,0 L536,0 L551,1 L553,0 L559,0 L564,1 L568,0 L570,1 L585,2 L590,0 L595,1 L625,1 L626,0 L632,0 L633,1 L707,2 L842,2 L866,3 L1009,3 L1020,5 L1020,1002 L0,1002 L0,957 L2,958 L3,988 L4,992 L14,993 L121,994 L131,994 L140,995 L166,994 L185,994 L249,996 L306,996 L316,994 L318,995 L464,996 L491,996 L508,997 L554,997 L676,998 L732,998 L840,999 L918,998 L983,999 L1007,999 L1010,997 L1011,976 L1011,961 L1012,935 L1012,906 L1013,866 L1013,806 L1014,640 L1014,568 L1015,550 L1014,540 L1015,479 L1015,466 L1016,439 L1016,267 L1017,49 L1016,18 L1013,14 L993,13 L890,13 L874,14 L827,14 L818,13 L801,13 L791,14 L755,14 L753,13 L727,13 L718,14 L694,14 L686,13 L655,13 L646,14 L632,13 L610,14 L595,13 L454,13 L422,12 L418,10 L413,11 L407,12 L403,11 L360,12 L287,12 L285,11 L274,12 L249,11 L211,11 L153,10 L147,11 L131,11 L128,10 L101,10 L74,11 L32,11 L30,10 L15,10 L9,12 L9,38 L8,47 L8,89 L7,116 L7,232 L8,241 L7,243 L6,264 L6,347 L5,390 L5,404 L6,422 L6,519 L5,532 L5,586 L4,594 L5,616 L5,654 L4,708 L4,811 L3,907 L3,949 L1,954 L0,954 Z " fill="#000000" transform="translate(0,0)"/>
<path d="M0,0 L25,0 L51,7 L66,15 L75,22 L83,29 L92,38 L98,46 L106,60 L110,70 L112,75 L115,90 L115,117 L111,134 L105,151 L94,169 L85,179 L78,186 L72,190 L57,200 L41,206 L25,211 L21,217 L20,224 L20,249 L19,256 L19,274 L18,293 L19,310 L19,353 L18,461 L18,525 L19,551 L18,563 L18,667 L19,698 L21,703 L22,706 L30,708 L68,709 L78,709 L87,710 L102,709 L115,709 L133,710 L152,710 L179,709 L187,710 L192,709 L201,711 L204,709 L215,709 L222,708 L248,708 L265,709 L278,709 L285,707 L291,707 L295,709 L320,710 L361,710 L394,711 L552,711 L558,712 L567,711 L585,711 L592,712 L601,711 L612,711 L626,712 L631,711 L663,712 L702,712 L719,713 L724,716 L726,719 L726,732 L722,737 L714,739 L703,739 L675,738 L662,739 L660,738 L651,738 L644,739 L638,738 L564,738 L559,737 L551,737 L547,738 L447,737 L315,737 L286,736 L246,737 L222,738 L207,736 L85,736 L80,735 L59,735 L18,734 L-2,734 L-17,735 L-45,735 L-50,734 L-77,734 L-86,733 L-91,728 L-92,726 L-92,716 L-88,711 L-84,709 L-56,708 L-22,709 L-7,708 L-3,703 L-1,694 L0,683 L0,604 L1,449 L1,396 L2,391 L1,366 L1,227 L0,212 L-4,210 L-11,207 L-20,205 L-35,199 L-47,192 L-57,184 L-71,170 L-81,154 L-84,149 L-89,137 L-91,128 L-92,126 L-94,107 L-93,90 L-87,65 L-79,49 L-68,36 L-59,25 L-49,18 L-41,14 L-36,10 L-16,3 L-10,1 Z M-4,18 L-18,22 L-33,30 L-48,41 L-59,53 L-65,63 L-71,76 L-74,88 L-75,98 L-75,117 L-72,129 L-66,144 L-60,153 L-57,159 L-49,167 L-38,176 L-31,182 L-11,190 L-1,192 L19,192 L36,190 L53,182 L57,179 L63,176 L79,161 L88,146 L93,133 L97,117 L97,98 L95,88 L93,76 L88,64 L82,55 L70,41 L62,34 L51,27 L41,22 L25,18 Z " fill="#000000" transform="translate(194,77)"/>
<path d="M0,0 L5,1 L10,6 L18,17 L23,27 L31,41 L36,48 L40,56 L46,69 L47,75 L43,80 L37,80 L30,73 L27,69 L24,59 L15,47 L9,37 L4,27 L-3,17 L-6,9 L-5,4 Z " fill="#000000" transform="translate(201,170)"/>
<path d="M0,0 L64,1 L98,1 L106,3 L118,9 L126,18 L131,30 L133,68 L137,77 L139,78 L166,79 L217,79 L230,80 L239,79 L258,79 L275,81 L289,85 L306,94 L315,102 L322,111 L330,125 L334,138 L336,159 L335,175 L336,190 L336,295 L335,320 L336,328 L335,346 L335,412 L333,428 L329,440 L320,457 L308,468 L298,476 L289,480 L278,482 L270,485 L145,485 L113,484 L104,484 L94,483 L43,483 L28,484 L14,483 L-35,484 L-119,483 L-151,484 L-160,483 L-181,483 L-196,481 L-208,478 L-224,470 L-234,462 L-239,457 L-246,448 L-253,437 L-258,419 L-259,410 L-259,160 L-258,138 L-251,119 L-248,113 L-238,101 L-233,95 L-227,91 L-217,84 L-205,80 L-188,78 L-80,78 L-63,77 L-58,72 L-56,51 L-55,31 L-51,20 L-46,14 L-42,9 L-30,3 L-21,1 Z M17,30 L-9,31 L-19,35 L-24,41 L-26,47 L-26,60 L-24,73 L-20,78 L-15,80 L2,81 L10,80 L21,81 L75,81 L94,79 L99,75 L101,70 L102,61 L102,48 L99,40 L95,35 L88,31 Z " fill="#000000" transform="translate(585,290)"/>
<path d="M0,0 Z " fill="#000000" transform="translate(727,916)"/>
</svg>
