<?xml version="1.0" encoding="UTF-8"?>
<!-- Generator: visioncortex VTracer 0.6.12 -->
<svg version="1.1" xmlns="http://www.w3.org/2000/svg" width="627" height="516">
<path d="M0,0 L74,1 L84,0 L97,5 L103,10 L112,25 L114,52 L116,59 L121,61 L226,61 L243,62 L251,66 L258,68 L262,71 L274,77 L284,84 L289,89 L294,94 L301,103 L309,119 L312,128 L315,141 L315,164 L314,172 L315,175 L316,226 L316,355 L313,376 L307,394 L303,401 L295,413 L281,427 L272,433 L258,440 L253,442 L246,444 L229,445 L119,445 L80,446 L74,445 L58,445 L52,446 L47,445 L-64,445 L-65,446 L-77,446 L-84,445 L-157,445 L-166,444 L-169,442 L-181,442 L-186,439 L-193,437 L-204,431 L-209,427 L-217,421 L-223,413 L-232,400 L-237,391 L-241,376 L-242,369 L-243,343 L-243,330 L-244,310 L-243,246 L-244,223 L-244,142 L-242,132 L-239,122 L-232,105 L-220,91 L-218,91 L-218,89 L-211,83 L-203,77 L-192,72 L-188,70 L-179,68 L-176,66 L-166,65 L-137,64 L-132,65 L-120,65 L-94,64 L-85,65 L-82,64 L-51,63 L-47,61 L-45,54 L-43,31 L-41,23 L-38,17 L-31,9 L-20,3 Z M8,36 L-3,37 L-6,39 L-9,49 L-9,56 L-6,61 L-4,63 L27,64 L59,63 L70,63 L76,61 L78,58 L78,43 L76,39 L67,36 Z M-35,101 L-44,102 L-102,102 L-108,103 L-114,103 L-117,108 L-118,113 L-118,276 L-117,392 L-115,404 L-110,406 L7,406 L47,405 L106,405 L183,403 L187,401 L189,388 L189,319 L190,290 L189,215 L189,156 L188,121 L188,108 L185,103 L176,101 L158,101 L148,102 L118,102 L115,103 L113,108 L113,121 L114,135 L120,143 L122,143 L124,147 L131,155 L138,162 L147,173 L151,179 L152,182 L152,216 L153,237 L153,295 L152,309 L149,312 L147,313 L73,314 L65,313 L62,314 L53,314 L45,312 L43,306 L43,181 L48,172 L57,162 L66,152 L73,145 L78,137 L79,123 L79,109 L76,104 L70,102 L40,102 L33,103 L23,102 L-21,102 L-25,101 Z M232,102 L226,106 L225,112 L225,143 L226,163 L225,175 L226,204 L226,350 L227,395 L230,401 L235,403 L249,403 L255,399 L266,391 L273,379 L277,369 L279,344 L279,189 L278,151 L276,139 L272,128 L266,119 L257,110 L241,102 Z M-167,103 L-187,111 L-193,119 L-200,127 L-206,137 L-207,151 L-206,254 L-206,346 L-204,371 L-200,381 L-196,387 L-182,401 L-172,405 L-163,408 L-159,407 L-156,394 L-155,328 L-155,307 L-154,258 L-154,137 L-155,119 L-155,109 L-160,104 Z M85,171 L81,175 L82,182 L86,187 L91,190 L99,190 L107,187 L111,182 L112,174 L109,171 Z " fill="#000000" transform="translate(279,36)"/>
</svg>
