<?xml version="1.0" encoding="UTF-8"?>
<!-- Generator: visioncortex VTracer 0.6.12 -->
<svg version="1.1" xmlns="http://www.w3.org/2000/svg" width="1146" height="1347">
<path d="M0,0 L11,1 L25,1 L28,4 L28,32 L27,52 L24,56 L13,57 L-39,57 L-73,58 L-134,58 L-137,60 L-143,59 L-148,58 L-227,58 L-274,59 L-328,59 L-338,61 L-341,63 L-345,62 L-347,60 L-554,60 L-703,61 L-764,61 L-809,62 L-895,62 L-987,64 L-992,63 L-1060,64 L-1084,64 L-1084,9 L-891,7 L-851,7 L-806,6 L-779,6 L-760,5 L-537,5 L-505,4 L-340,4 L-276,3 L-259,3 L-251,2 L-99,2 L-39,1 L-3,1 Z " fill="#000000" transform="translate(1084,36)"/>
<path d="M0,0 L6,1 L10,3 L13,9 L13,28 L12,63 L13,95 L13,167 L14,375 L14,399 L15,449 L15,475 L16,504 L15,513 L16,523 L16,545 L17,583 L17,717 L18,776 L18,805 L19,874 L19,937 L20,998 L18,1005 L17,1006 L11,1006 L4,1005 L-11,1006 L-42,1006 L-46,1003 L-51,1003 L-55,1006 L-85,1007 L-92,1006 L-101,1007 L-109,1006 L-155,1007 L-184,1007 L-198,1008 L-216,1008 L-220,1007 L-225,1009 L-239,1008 L-254,1008 L-293,1009 L-342,1009 L-359,1010 L-379,1010 L-385,1011 L-411,1010 L-441,1010 L-449,1011 L-509,1011 L-519,1012 L-569,1012 L-578,1011 L-587,1012 L-663,1012 L-688,1013 L-822,1013 L-835,1014 L-846,1014 L-856,1013 L-880,1013 L-889,1014 L-927,1014 L-933,1015 L-948,1015 L-950,1014 L-956,1014 L-963,1015 L-979,1015 L-983,1012 L-984,1009 L-984,962 L-985,954 L-984,924 L-984,662 L-985,556 L-985,527 L-986,483 L-986,454 L-985,434 L-986,415 L-986,338 L-987,208 L-987,155 L-989,42 L-987,30 L-987,19 L-985,13 L-983,12 L-964,11 L-895,11 L-890,10 L-819,10 L-809,9 L-780,9 L-760,8 L-755,9 L-727,9 L-728,13 L-729,15 L-712,15 L-701,14 L-688,14 L-683,10 L-670,11 L-667,13 L-657,12 L-648,7 L-557,7 L-518,6 L-399,6 L-395,10 L-392,10 L-389,6 L-355,5 L-315,5 L-307,4 L-219,4 L-215,7 L-211,6 L-208,4 L-165,3 L-137,3 L-131,2 L-124,3 L-110,2 L-47,2 L-13,1 Z M-42,13 L-44,14 L-58,15 L-67,14 L-74,15 L-116,15 L-128,14 L-160,16 L-173,15 L-184,15 L-200,16 L-270,16 L-322,17 L-348,18 L-355,17 L-358,18 L-408,18 L-414,19 L-533,19 L-540,20 L-545,19 L-564,19 L-579,20 L-640,20 L-671,21 L-694,20 L-719,21 L-787,21 L-825,22 L-845,22 L-854,23 L-922,23 L-954,24 L-969,24 L-973,26 L-976,33 L-977,58 L-976,117 L-977,160 L-976,187 L-976,258 L-975,273 L-975,465 L-974,560 L-974,591 L-973,733 L-973,989 L-971,999 L-967,1001 L-949,1002 L-943,1001 L-815,1001 L-802,1000 L-586,1000 L-546,999 L-481,999 L-465,1000 L-457,999 L-439,999 L-427,998 L-377,998 L-354,997 L-349,996 L-345,997 L-304,997 L-280,996 L-219,996 L-213,995 L-209,996 L-185,995 L-156,995 L-53,994 L0,994 L6,991 L7,989 L8,912 L7,898 L7,756 L6,691 L6,593 L5,559 L5,494 L4,486 L4,417 L3,384 L3,328 L2,242 L2,222 L4,220 L4,217 L2,217 L1,157 L0,55 L-2,21 L-5,16 L-12,14 L-35,14 Z " fill="#000000" transform="translate(1085,161)"/>
<path d="M0,0 L9,1 L13,5 L18,8 L28,17 L44,29 L53,36 L60,42 L66,47 L68,51 L68,58 L64,68 L65,81 L65,92 L61,103 L57,109 L51,118 L42,129 L33,141 L27,149 L14,167 L7,176 L6,179 L6,186 L14,195 L18,204 L20,210 L20,227 L16,237 L5,252 L-4,265 L-11,274 L-18,285 L-16,291 L-15,294 L-10,296 L-6,299 L-6,301 L-2,303 L3,307 L9,311 L20,320 L31,329 L41,337 L52,345 L54,348 L61,352 L69,358 L77,364 L87,372 L96,379 L96,381 L100,383 L110,390 L117,396 L128,411 L132,423 L133,429 L133,447 L130,457 L124,471 L115,481 L104,495 L97,504 L93,509 L87,516 L80,527 L73,534 L66,544 L56,557 L53,563 L48,567 L43,577 L37,581 L27,594 L19,604 L9,617 L3,624 L-4,634 L-13,644 L-22,656 L-29,664 L-36,675 L-47,688 L-54,697 L-64,710 L-73,718 L-87,725 L-96,727 L-113,727 L-128,723 L-136,718 L-146,710 L-157,703 L-167,694 L-176,687 L-181,683 L-190,677 L-199,670 L-208,663 L-223,651 L-232,645 L-240,638 L-252,629 L-260,623 L-265,620 L-270,615 L-280,607 L-290,599 L-301,592 L-312,583 L-326,572 L-338,562 L-355,549 L-360,545 L-365,542 L-368,539 L-374,535 L-378,530 L-390,522 L-400,515 L-411,506 L-421,499 L-424,496 L-432,490 L-440,484 L-444,479 L-451,475 L-456,470 L-461,467 L-467,462 L-473,458 L-482,451 L-495,441 L-503,434 L-508,431 L-518,423 L-521,420 L-529,414 L-535,409 L-545,403 L-556,395 L-562,391 L-575,379 L-583,373 L-593,365 L-599,357 L-602,350 L-605,338 L-605,318 L-601,305 L-597,297 L-589,287 L-579,272 L-567,259 L-560,249 L-557,244 L-546,231 L-538,220 L-530,211 L-526,205 L-518,195 L-514,189 L-508,182 L-504,176 L-495,165 L-485,152 L-476,140 L-467,129 L-459,118 L-455,112 L-451,107 L-444,99 L-437,90 L-428,78 L-425,73 L-416,63 L-412,57 L-403,48 L-388,39 L-382,37 L-367,36 L-353,37 L-343,41 L-332,48 L-328,53 L-322,57 L-322,59 L-317,61 L-303,72 L-292,80 L-287,84 L-287,86 L-283,88 L-275,97 L-258,106 L-246,117 L-240,121 L-230,128 L-224,133 L-215,139 L-211,143 L-204,147 L-196,147 L-191,142 L-184,134 L-174,121 L-166,111 L-160,103 L-152,97 L-142,92 L-134,90 L-127,90 L-115,94 L-108,98 L-101,97 L-94,89 L-93,82 L-99,81 L-105,84 L-116,86 L-123,85 L-130,77 L-130,68 L-127,62 L-119,55 L-99,44 L-80,34 L-59,22 L-43,14 L-41,13 L-32,12 L-30,11 L-15,11 L-6,5 Z M-136,153 L-141,156 L-149,165 L-157,178 L-157,185 L-147,193 L-142,197 L-131,204 L-126,209 L-116,217 L-108,222 L-101,229 L-91,235 L-77,246 L-69,252 L-60,255 L-54,251 L-45,240 L-39,231 L-40,226 L-45,223 L-51,219 L-54,214 L-56,209 L-60,205 L-69,204 L-78,197 L-81,193 L-84,188 L-86,186 L-98,183 L-103,180 L-109,169 L-113,166 L-123,164 L-130,158 L-135,153 Z M-280,186 L-288,188 L-296,198 L-301,202 L-308,211 L-315,220 L-323,230 L-331,241 L-338,252 L-345,260 L-357,276 L-366,288 L-369,294 L-367,299 L-360,306 L-356,309 L-354,309 L-353,312 L-345,317 L-332,327 L-326,334 L-317,340 L-305,350 L-296,355 L-291,355 L-281,346 L-275,337 L-266,326 L-261,319 L-257,315 L-254,310 L-249,305 L-237,289 L-225,276 L-220,267 L-211,256 L-207,248 L-207,241 L-210,229 L-212,219 L-217,197 L-221,189 L-227,186 Z M-442,194 L-442,197 L-440,197 L-440,194 Z " fill="#000000" transform="translate(823,263)"/>
<path d="M0,0 L56,0 L66,2 L76,10 L82,17 L86,26 L87,32 L87,48 L81,59 L75,66 L67,70 L57,74 L32,75 L19,74 L16,75 L-35,75 L-60,76 L-138,76 L-146,77 L-170,77 L-177,78 L-179,77 L-191,77 L-196,78 L-275,78 L-352,79 L-359,78 L-364,79 L-392,79 L-401,78 L-420,78 L-431,79 L-438,80 L-440,79 L-452,79 L-456,80 L-482,80 L-497,79 L-506,80 L-535,80 L-539,79 L-564,80 L-583,81 L-589,80 L-594,81 L-602,81 L-616,80 L-625,81 L-711,81 L-713,80 L-714,75 L-713,66 L-714,18 L-711,9 L-710,8 L-692,6 L-635,6 L-613,5 L-608,6 L-600,6 L-590,5 L-456,5 L-371,4 L-319,4 L-290,3 L-230,3 L-200,2 L-146,2 L-63,1 L-55,2 L-51,1 L-21,1 Z " fill="#000000" transform="translate(871,1011)"/>
<path d="M0,0 L7,1 L12,7 L17,21 L22,32 L25,41 L36,69 L36,78 L34,80 L28,80 L24,74 L19,61 L15,57 L-8,57 L-15,61 L-19,70 L-21,76 L-26,81 L-32,80 L-33,79 L-32,69 L-28,58 L-25,50 L-18,35 L-13,21 L-8,7 L-4,2 Z M0,23 L-5,30 L-7,36 L-7,43 L-3,47 L8,47 L11,42 L9,33 L6,25 L4,23 Z " fill="#000000" transform="translate(290,1231)"/>
<path d="M0,0 L7,2 L11,7 L17,23 L21,32 L27,48 L31,58 L34,64 L37,74 L36,79 L33,81 L26,80 L17,59 L15,57 L-1,57 L-12,58 L-16,63 L-21,76 L-25,81 L-32,81 L-34,78 L-33,71 L-22,43 L-15,25 L-11,11 L-6,3 L-4,1 Z M-1,23 L-5,31 L-7,37 L-7,45 L-6,46 L7,47 L10,44 L9,34 L4,24 Z " fill="#000000" transform="translate(212,1232)"/>
<path d="M0,0 L38,0 L45,2 L54,11 L55,14 L55,26 L51,33 L53,39 L58,45 L59,47 L59,60 L54,70 L45,77 L41,79 L33,79 L24,77 L21,79 L7,79 L1,80 L-2,78 L-3,75 L-4,28 L-4,6 L-1,1 Z M23,9 L13,10 L9,15 L10,23 L10,30 L13,33 L18,34 L30,33 L39,30 L43,26 L43,16 L36,10 Z M15,42 L10,45 L9,48 L9,64 L13,68 L20,69 L39,68 L45,63 L47,58 L47,52 L42,44 L41,43 L26,42 Z " fill="#000000" transform="translate(109,1235)"/>
<path d="M0,0 L3,0 L3,2 L0,2 Z " fill="#000000" transform="translate(171,1278)"/>
</svg>
