<?xml version="1.0" encoding="UTF-8"?>
<!-- Generator: visioncortex VTracer 0.6.12 -->
<svg version="1.1" xmlns="http://www.w3.org/2000/svg" width="1002" height="996">
<path d="M0,0 L18,0 L27,1 L90,1 L91,0 L102,0 L104,1 L117,1 L118,0 L126,0 L129,1 L147,2 L193,2 L199,1 L211,2 L274,2 L362,3 L373,2 L415,3 L640,3 L643,4 L643,996 L65,996 L64,994 L56,994 L56,996 L-359,996 L-359,988 L-356,987 L-342,987 L-314,988 L-244,988 L-225,989 L-207,989 L-180,988 L-168,987 L48,987 L62,989 L64,988 L78,987 L81,989 L87,988 L88,987 L133,988 L136,987 L168,987 L178,988 L265,988 L274,987 L292,988 L447,988 L458,989 L465,988 L523,988 L529,987 L561,988 L627,988 L630,987 L632,980 L633,867 L633,854 L632,846 L632,779 L633,770 L633,690 L634,680 L633,659 L633,498 L634,421 L634,408 L635,384 L634,381 L633,292 L633,18 L629,14 L624,13 L596,13 L591,12 L575,13 L555,12 L428,12 L421,13 L410,12 L396,12 L373,11 L331,11 L290,12 L209,11 L203,10 L197,11 L186,11 L179,12 L171,11 L14,11 L-5,10 L-35,10 L-136,11 L-281,12 L-300,13 L-355,13 L-359,11 L-359,6 L-355,4 L-346,3 L-200,2 L-117,1 L-24,1 L-20,2 L-5,1 Z " fill="#000000" transform="translate(359,0)"/>
<path d="M0,0 L108,0 L137,1 L145,4 L155,12 L161,22 L162,25 L163,57 L163,76 L164,94 L166,97 L175,98 L262,99 L313,99 L329,100 L346,103 L363,109 L374,115 L386,123 L390,127 L398,134 L410,149 L418,163 L425,179 L428,193 L429,201 L430,242 L430,482 L428,504 L426,508 L424,515 L419,530 L411,542 L403,551 L399,556 L394,561 L386,567 L380,567 L378,572 L374,575 L368,577 L364,581 L345,587 L332,589 L326,590 L261,590 L259,589 L145,589 L139,588 L130,589 L119,589 L113,590 L89,589 L-34,589 L-44,588 L-47,589 L-98,589 L-110,590 L-201,590 L-217,587 L-240,578 L-249,572 L-254,569 L-268,556 L-274,549 L-280,539 L-285,534 L-288,525 L-292,512 L-294,508 L-295,498 L-296,495 L-296,467 L-297,444 L-296,377 L-296,211 L-293,187 L-288,170 L-283,157 L-276,146 L-272,141 L-269,138 L-265,132 L-254,124 L-252,121 L-246,118 L-242,114 L-226,106 L-215,102 L-206,100 L-184,98 L-88,98 L-40,97 L-36,95 L-34,81 L-33,44 L-33,35 L-31,22 L-27,14 L-21,7 L-11,2 Z M39,30 L36,31 L13,32 L5,36 L0,42 L-2,46 L-3,67 L-2,94 L1,97 L4,98 L24,99 L123,99 L130,95 L132,85 L132,76 L131,71 L132,68 L132,49 L129,40 L122,33 L99,31 L46,31 Z M396,540 L395,543 L398,543 L397,540 Z " fill="#000000" transform="translate(421,192)"/>
</svg>
