<?xml version="1.0" encoding="UTF-8"?>
<!-- Generator: visioncortex VTracer 0.6.12 -->
<svg version="1.1" xmlns="http://www.w3.org/2000/svg" width="1107" height="1233">
<path d="M0,0 L68,0 L83,2 L88,3 L95,5 L108,9 L112,13 L120,15 L133,22 L143,29 L151,36 L159,42 L164,47 L168,54 L176,65 L184,78 L191,93 L195,106 L198,119 L200,140 L202,202 L204,343 L205,440 L206,446 L206,493 L207,564 L208,603 L208,654 L209,710 L210,801 L211,850 L211,904 L206,926 L201,937 L197,947 L195,949 L192,956 L184,968 L175,978 L169,985 L161,992 L156,996 L145,1004 L137,1009 L122,1016 L110,1020 L98,1024 L79,1026 L62,1026 L49,1027 L36,1027 L10,1028 L-66,1028 L-73,1029 L-107,1030 L-145,1030 L-195,1031 L-221,1031 L-253,1032 L-306,1033 L-347,1033 L-356,1034 L-397,1034 L-402,1035 L-409,1034 L-437,1035 L-459,1035 L-489,1036 L-515,1036 L-520,1037 L-572,1037 L-581,1036 L-594,1037 L-654,1037 L-661,1038 L-672,1038 L-693,1036 L-710,1032 L-720,1029 L-730,1025 L-734,1022 L-742,1018 L-750,1013 L-759,1006 L-759,1004 L-764,1002 L-771,995 L-776,990 L-787,977 L-793,968 L-797,960 L-802,950 L-808,934 L-811,919 L-813,905 L-814,900 L-815,884 L-815,865 L-816,798 L-816,786 L-817,764 L-817,686 L-818,651 L-818,615 L-819,574 L-819,541 L-821,417 L-821,392 L-822,356 L-822,338 L-823,324 L-824,257 L-825,182 L-826,176 L-826,167 L-823,144 L-821,138 L-820,129 L-813,110 L-806,92 L-800,84 L-795,75 L-790,69 L-785,64 L-772,51 L-758,41 L-748,34 L-729,25 L-707,18 L-697,18 L-673,16 L-631,16 L-564,14 L-538,14 L-527,13 L-487,12 L-458,12 L-431,11 L-420,11 L-400,10 L-372,10 L-343,9 L-331,8 L-301,8 L-292,7 L-235,6 L-195,5 L-177,5 L-169,4 L-143,4 L-73,2 L-56,1 Z M-11,13 L-31,14 L-73,14 L-101,15 L-107,14 L-109,15 L-185,17 L-213,18 L-275,19 L-284,20 L-288,19 L-296,19 L-299,20 L-315,20 L-325,21 L-362,21 L-380,22 L-426,23 L-458,24 L-469,24 L-481,25 L-538,26 L-546,25 L-556,26 L-563,27 L-571,27 L-579,28 L-631,28 L-643,29 L-646,28 L-653,28 L-662,29 L-676,29 L-680,30 L-692,30 L-700,31 L-707,33 L-717,36 L-729,40 L-749,51 L-760,59 L-765,62 L-772,70 L-778,77 L-789,91 L-793,96 L-799,108 L-803,118 L-808,134 L-811,149 L-811,232 L-810,336 L-809,359 L-807,497 L-806,531 L-806,547 L-805,564 L-804,571 L-805,578 L-805,632 L-804,689 L-802,854 L-801,897 L-798,921 L-793,935 L-789,945 L-781,960 L-775,969 L-766,980 L-758,988 L-750,995 L-744,1000 L-737,1005 L-729,1008 L-709,1017 L-692,1021 L-682,1022 L-576,1022 L-465,1021 L-450,1021 L-432,1020 L-394,1020 L-351,1019 L-297,1019 L-265,1018 L-237,1018 L-202,1017 L-189,1018 L-187,1017 L-149,1016 L-116,1016 L-93,1015 L-82,1016 L-61,1015 L-4,1014 L37,1013 L72,1013 L89,1011 L109,1006 L126,999 L136,993 L151,983 L158,977 L163,972 L170,964 L179,951 L187,938 L194,921 L197,909 L200,890 L200,866 L199,848 L198,793 L198,770 L197,671 L196,601 L196,571 L195,559 L194,451 L193,397 L192,372 L192,336 L191,285 L192,268 L191,264 L190,237 L188,141 L186,120 L181,103 L176,90 L170,79 L166,75 L163,69 L153,58 L150,53 L144,49 L138,42 L120,31 L111,26 L107,23 L89,18 L86,16 L76,14 L60,14 L56,13 Z " fill="#000000" transform="translate(862,38)"/>
<path d="M0,0 L42,0 L68,1 L69,2 L68,9 L57,22 L47,33 L40,41 L30,53 L21,64 L16,70 L11,75 L-1,89 L-9,97 L-16,105 L-24,115 L-38,130 L-47,140 L-53,140 L-57,135 L-64,130 L-69,130 L-80,141 L-88,151 L-94,162 L-102,177 L-112,195 L-118,206 L-124,213 L-132,220 L-134,223 L-134,237 L-133,244 L-136,265 L-141,279 L-147,296 L-152,310 L-152,320 L-146,324 L-134,328 L-119,333 L-99,341 L-93,344 L-90,347 L-89,353 L-92,360 L-97,377 L-104,395 L-108,408 L-113,421 L-116,430 L-121,445 L-128,464 L-132,478 L-136,487 L-139,497 L-146,518 L-153,538 L-156,545 L-158,553 L-167,577 L-170,587 L-178,607 L-181,615 L-184,621 L-188,634 L-193,646 L-197,655 L-201,666 L-204,676 L-212,692 L-217,708 L-222,721 L-227,733 L-232,747 L-235,756 L-239,765 L-242,774 L-245,780 L-249,794 L-256,812 L-263,831 L-270,851 L-274,857 L-280,858 L-287,855 L-313,846 L-330,840 L-349,833 L-361,829 L-367,827 L-374,824 L-383,821 L-397,816 L-408,812 L-426,806 L-433,803 L-450,798 L-455,795 L-465,792 L-481,786 L-491,782 L-501,778 L-518,773 L-530,768 L-541,764 L-545,762 L-558,759 L-568,755 L-575,752 L-584,749 L-601,743 L-607,740 L-616,737 L-625,733 L-628,731 L-629,725 L-626,716 L-622,707 L-620,699 L-615,685 L-612,677 L-608,667 L-602,651 L-596,635 L-592,626 L-590,618 L-585,605 L-581,595 L-575,578 L-568,561 L-566,553 L-562,544 L-554,517 L-545,490 L-540,477 L-533,456 L-529,445 L-519,416 L-514,403 L-511,393 L-507,380 L-502,370 L-493,343 L-487,329 L-481,312 L-474,291 L-469,278 L-461,255 L-454,237 L-451,227 L-446,217 L-439,216 L-436,218 L-423,222 L-411,226 L-391,233 L-383,237 L-377,237 L-373,236 L-371,231 L-367,221 L-359,200 L-353,183 L-346,169 L-337,160 L-325,154 L-318,152 L-311,153 L-307,151 L-302,152 L-287,157 L-267,164 L-260,163 L-249,157 L-244,152 L-238,141 L-231,128 L-228,122 L-229,116 L-230,113 L-248,113 L-261,118 L-272,127 L-281,134 L-285,137 L-293,137 L-298,132 L-300,126 L-298,117 L-289,107 L-278,93 L-270,86 L-266,82 L-262,80 L-250,77 L-227,70 L-218,68 L-191,67 L-174,66 L-169,63 L-160,54 L-158,51 L-158,46 L-163,40 L-163,38 L-165,38 L-166,31 L-158,20 L-149,9 L-143,6 L-135,5 L-124,5 L-115,4 L-65,3 Z M-319,192 L-323,198 L-330,214 L-340,244 L-343,252 L-343,350 L-346,354 L-354,355 L-365,355 L-374,359 L-376,362 L-377,382 L-377,396 L-376,399 L-375,423 L-375,443 L-374,476 L-372,498 L-370,501 L-363,502 L-357,501 L-306,501 L-283,500 L-276,497 L-274,492 L-274,480 L-275,456 L-276,426 L-276,395 L-277,362 L-279,356 L-283,353 L-307,353 L-311,350 L-312,345 L-312,266 L-309,265 L-281,275 L-266,280 L-253,285 L-243,289 L-218,298 L-205,303 L-191,306 L-187,304 L-183,295 L-177,277 L-174,268 L-175,262 L-181,261 L-188,264 L-210,264 L-218,262 L-228,258 L-247,251 L-255,246 L-274,239 L-283,235 L-300,226 L-307,218 L-311,210 L-313,196 L-316,192 Z " fill="#000000" transform="translate(894,102)"/>
<path d="M0,0 L16,0 L28,2 L44,8 L57,13 L68,17 L80,22 L82,24 L81,37 L78,45 L75,54 L70,65 L63,86 L61,90 L59,97 L53,115 L47,131 L40,151 L35,166 L31,176 L28,185 L23,200 L18,213 L15,222 L7,242 L3,256 L-5,276 L-12,298 L-17,312 L-21,325 L-28,344 L-36,369 L-40,381 L-44,392 L-49,406 L-56,423 L-59,432 L-65,448 L-71,464 L-77,479 L-82,491 L-86,502 L-90,515 L-95,527 L-100,536 L-106,537 L-117,532 L-128,529 L-145,522 L-155,518 L-165,514 L-166,511 L-171,509 L-179,501 L-189,485 L-192,476 L-193,467 L-193,448 L-191,440 L-186,425 L-183,418 L-177,403 L-175,399 L-173,392 L-169,381 L-163,363 L-157,345 L-155,337 L-149,321 L-143,301 L-136,285 L-129,262 L-124,249 L-121,240 L-114,220 L-107,201 L-103,192 L-98,175 L-93,161 L-88,149 L-86,140 L-82,129 L-78,116 L-73,103 L-68,87 L-64,78 L-60,65 L-56,54 L-52,45 L-49,36 L-43,26 L-34,16 L-26,10 L-15,4 Z M-59,378 L-60,379 L-60,385 L-55,386 L-54,385 L-54,379 Z " fill="#000000" transform="translate(318,277)"/>
<path d="M0,0 L7,0 L22,6 L28,9 L37,12 L52,18 L61,21 L67,26 L72,31 L79,39 L87,52 L90,62 L92,74 L92,91 L88,109 L83,122 L77,141 L70,160 L67,170 L62,181 L57,198 L46,228 L42,238 L38,247 L32,265 L25,283 L21,296 L13,315 L9,327 L5,336 L-1,353 L-6,367 L-9,374 L-14,387 L-17,393 L-19,401 L-22,411 L-25,418 L-34,441 L-37,450 L-41,460 L-44,469 L-55,497 L-60,505 L-68,516 L-76,523 L-92,532 L-106,535 L-117,535 L-131,534 L-138,531 L-156,524 L-165,522 L-183,514 L-186,509 L-183,497 L-179,489 L-176,478 L-169,458 L-163,443 L-153,414 L-147,398 L-141,381 L-136,369 L-127,345 L-122,332 L-120,326 L-116,316 L-105,288 L-102,281 L-98,271 L-94,260 L-89,247 L-85,236 L-80,222 L-76,212 L-69,192 L-64,179 L-61,170 L-56,154 L-51,141 L-41,111 L-34,94 L-30,80 L-25,66 L-20,52 L-17,44 L-7,17 L-1,2 Z " fill="#000000" transform="translate(855,467)"/>
<path d="M0,0 L10,2 L16,6 L23,12 L28,23 L29,30 L29,38 L25,49 L19,58 L11,63 L3,65 L-8,64 L-18,59 L-25,51 L-28,44 L-29,39 L-29,28 L-26,18 L-20,8 L-11,2 Z " fill="#000000" transform="translate(570,521)"/>
<path d="M0,0 L36,1 L47,5 L54,10 L60,18 L63,29 L63,52 L60,63 L53,72 L48,78 L37,82 L26,82 L20,83 L0,81 L-3,78 L-3,4 Z M17,12 L11,15 L10,16 L9,25 L8,53 L9,65 L12,70 L16,71 L33,72 L43,66 L48,59 L51,43 L51,31 L46,21 L39,15 L33,13 Z " fill="#000000" transform="translate(75,1116)"/>
<path d="M0,0 L5,0 L7,4 L4,12 L-1,25 L-5,34 L-9,45 L-14,57 L-17,65 L-21,75 L-24,81 L-25,82 L-30,82 L-31,81 L-31,74 L-26,63 L-24,57 L-19,44 L-15,34 L-10,22 L-6,14 L-3,4 Z " fill="#000000" transform="translate(187,1116)"/>
<path d="M0,0 L42,0 L44,3 L43,9 L40,12 L5,12 L4,13 L4,28 L5,33 L10,34 L34,33 L37,36 L36,43 L31,45 L5,45 L3,49 L2,77 L-1,80 L-6,80 L-9,77 L-9,18 L-8,4 Z " fill="#000000" transform="translate(227,1117)"/>
<path d="M0,0 L4,1 L7,4 L10,13 L14,33 L18,50 L20,54 L23,53 L27,42 L29,35 L35,15 L37,5 L41,2 L49,2 L52,5 L59,30 L64,48 L65,55 L69,55 L75,32 L78,22 L81,7 L84,2 L88,0 L93,1 L94,2 L94,9 L92,13 L90,23 L85,41 L80,60 L78,68 L72,80 L65,82 L60,76 L58,70 L56,58 L52,50 L47,26 L46,24 L42,23 L40,33 L35,48 L32,62 L27,78 L21,82 L16,81 L13,79 L8,56 L5,43 L1,29 L-1,19 L-4,9 L-4,3 Z " fill="#000000" transform="translate(284,1117)"/>
</svg>
