<?xml version="1.0" encoding="UTF-8"?>
<!-- Generator: visioncortex VTracer 0.6.12 -->
<svg version="1.1" xmlns="http://www.w3.org/2000/svg" width="1035" height="1014">
<path d="M0,0 L426,0 L427,5 L427,36 L428,50 L429,145 L430,179 L430,215 L431,225 L431,259 L432,308 L433,315 L433,389 L434,391 L436,463 L436,487 L437,495 L438,585 L439,632 L440,646 L441,738 L442,794 L443,805 L443,864 L444,874 L446,886 L446,899 L445,901 L445,909 L446,910 L446,1001 L443,1002 L433,1002 L415,1001 L399,1002 L361,1003 L306,1003 L303,1004 L281,1005 L265,1005 L237,1006 L221,1006 L202,1007 L182,1008 L171,1007 L167,1008 L131,1009 L109,1009 L-1,1011 L-48,1012 L-63,1013 L-64,1014 L-382,1014 L-381,1011 L-365,1010 L-337,1010 L-320,1009 L-303,1009 L-294,1010 L-282,1008 L-234,1008 L-224,1007 L-190,1007 L-150,1005 L-127,1005 L-124,1004 L-101,1004 L-93,1003 L-88,1005 L-84,1003 L-65,1003 L-34,1002 L-21,1001 L-1,1001 L55,999 L71,999 L125,998 L145,998 L194,996 L217,996 L251,995 L280,995 L313,993 L345,993 L352,992 L406,990 L432,989 L434,985 L434,877 L433,856 L433,849 L434,840 L432,830 L432,809 L433,795 L432,791 L431,776 L429,686 L429,648 L428,625 L427,571 L426,522 L426,493 L425,486 L424,411 L422,360 L423,343 L422,337 L422,296 L421,281 L421,264 L420,258 L418,176 L418,165 L417,147 L417,107 L416,86 L416,70 L417,63 L416,58 L415,27 L415,15 L412,5 L411,4 L394,3 L358,3 L322,4 L306,4 L269,6 L248,6 L220,7 L201,7 L182,8 L100,10 L85,10 L57,11 L31,11 L22,12 L-19,13 L-51,13 L-90,15 L-121,15 L-140,16 L-180,16 L-235,18 L-261,18 L-300,19 L-312,19 L-326,20 L-365,20 L-370,21 L-396,21 L-418,22 L-444,22 L-457,23 L-475,23 L-492,24 L-517,24 L-562,25 L-582,26 L-585,29 L-585,97 L-584,113 L-583,148 L-582,202 L-582,233 L-583,234 L-589,234 L-589,14 L-540,14 L-532,13 L-501,12 L-436,11 L-345,9 L-318,8 L-261,7 L-233,6 L-214,6 L-176,5 L-131,4 L-108,3 L-43,2 L-22,2 L-2,1 Z " fill="#000000" transform="translate(589,0)"/>
<path d="M0,0 L32,0 L36,3 L37,25 L37,39 L38,71 L38,106 L39,154 L39,241 L41,265 L42,284 L43,319 L44,332 L44,360 L46,398 L47,433 L48,461 L49,522 L46,529 L45,530 L35,530 L28,531 L4,531 L1,532 L-17,532 L-39,533 L-98,534 L-111,534 L-148,536 L-190,536 L-208,537 L-229,537 L-248,538 L-265,538 L-292,539 L-350,540 L-384,541 L-407,542 L-414,541 L-417,542 L-432,542 L-465,543 L-479,544 L-494,544 L-564,546 L-581,546 L-622,547 L-629,547 L-634,546 L-638,547 L-659,548 L-683,548 L-687,542 L-688,514 L-688,499 L-689,481 L-690,476 L-690,452 L-691,409 L-693,368 L-694,338 L-695,314 L-695,306 L-696,301 L-699,263 L-699,151 L-701,114 L-701,96 L-702,85 L-703,58 L-703,23 L-700,18 L-699,17 L-639,16 L-616,15 L-580,15 L-571,16 L-561,16 L-557,15 L-531,15 L-527,14 L-492,13 L-480,13 L-463,11 L-440,11 L-424,10 L-382,9 L-363,9 L-347,8 L-329,8 L-319,7 L-276,7 L-272,6 L-250,5 L-190,5 L-129,3 L-88,2 L-68,2 L-36,1 L-8,1 Z M-46,22 L-53,23 L-110,23 L-136,24 L-150,24 L-190,26 L-215,27 L-229,27 L-235,28 L-251,28 L-281,29 L-292,29 L-301,30 L-317,30 L-358,31 L-386,32 L-447,33 L-470,33 L-508,34 L-535,34 L-572,35 L-577,36 L-589,36 L-601,37 L-622,38 L-648,39 L-654,40 L-657,43 L-652,52 L-647,57 L-641,61 L-630,72 L-624,80 L-618,84 L-613,89 L-604,96 L-599,101 L-594,106 L-577,122 L-566,132 L-561,137 L-546,151 L-539,157 L-534,162 L-532,162 L-531,165 L-529,165 L-527,169 L-519,175 L-515,180 L-506,186 L-501,192 L-490,201 L-478,213 L-467,222 L-456,233 L-451,238 L-444,242 L-439,247 L-426,259 L-421,264 L-411,272 L-406,277 L-395,286 L-385,295 L-373,306 L-368,310 L-362,317 L-357,320 L-352,325 L-341,334 L-334,341 L-327,342 L-322,339 L-315,332 L-307,325 L-302,320 L-290,307 L-271,288 L-266,282 L-258,276 L-251,267 L-241,257 L-234,249 L-224,241 L-220,236 L-212,229 L-199,216 L-191,209 L-181,200 L-170,189 L-163,183 L-158,177 L-152,173 L-145,165 L-137,158 L-129,150 L-121,143 L-116,138 L-96,118 L-88,111 L-88,109 L-84,107 L-79,102 L-74,97 L-61,85 L-53,78 L-46,70 L-41,66 L-34,58 L-17,42 L-8,33 L-5,28 L-6,24 L-13,22 Z M11,41 L0,50 L-3,53 L-3,55 L-7,57 L-39,89 L-46,95 L-51,101 L-53,102 L-53,104 L-56,105 L-61,110 L-61,112 L-65,114 L-67,118 L-70,119 L-75,124 L-83,131 L-88,136 L-91,139 L-91,141 L-95,143 L-110,157 L-122,169 L-132,177 L-139,185 L-156,201 L-168,212 L-179,221 L-190,233 L-198,241 L-203,245 L-210,253 L-218,261 L-222,267 L-221,273 L-216,278 L-208,286 L-201,292 L-196,297 L-191,302 L-186,306 L-182,311 L-176,315 L-168,323 L-160,330 L-148,341 L-136,353 L-129,357 L-123,364 L-117,368 L-102,382 L-97,387 L-89,394 L-79,402 L-72,409 L-66,414 L-61,419 L-53,426 L-43,435 L-41,435 L-39,439 L-26,451 L-15,460 L-6,469 L2,476 L14,487 L23,494 L29,494 L30,492 L30,445 L29,426 L29,404 L27,366 L27,346 L26,341 L24,298 L22,278 L21,243 L21,236 L20,231 L20,205 L21,198 L20,179 L19,132 L19,107 L18,53 L15,43 Z M-678,62 L-681,65 L-681,126 L-680,191 L-680,207 L-682,211 L-681,222 L-680,255 L-679,264 L-677,312 L-676,318 L-674,375 L-672,405 L-672,441 L-671,444 L-668,501 L-666,506 L-661,507 L-654,500 L-646,493 L-644,489 L-641,488 L-634,480 L-618,465 L-611,457 L-605,452 L-605,450 L-603,450 L-596,442 L-587,433 L-582,429 L-577,422 L-570,417 L-563,409 L-546,392 L-541,387 L-519,365 L-514,360 L-507,353 L-502,347 L-497,342 L-490,334 L-485,329 L-483,325 L-479,323 L-471,314 L-465,309 L-458,301 L-453,295 L-448,290 L-438,280 L-438,273 L-449,261 L-455,257 L-462,251 L-473,242 L-483,233 L-488,229 L-493,224 L-503,216 L-513,205 L-521,199 L-534,187 L-544,179 L-551,171 L-565,159 L-579,146 L-587,139 L-597,129 L-602,124 L-612,116 L-619,110 L-627,103 L-633,98 L-638,93 L-650,82 L-658,75 L-671,63 Z M-242,286 L-249,292 L-253,297 L-259,301 L-267,311 L-272,315 L-277,320 L-284,328 L-292,335 L-297,341 L-297,343 L-301,345 L-302,348 L-306,350 L-324,368 L-330,368 L-338,361 L-342,356 L-348,352 L-356,344 L-361,339 L-364,335 L-373,330 L-380,323 L-387,318 L-392,313 L-395,312 L-395,310 L-403,303 L-413,294 L-418,291 L-424,292 L-428,297 L-436,304 L-448,317 L-476,345 L-481,350 L-489,358 L-496,366 L-504,374 L-509,379 L-514,385 L-522,391 L-529,399 L-540,411 L-552,423 L-556,428 L-561,432 L-563,436 L-571,442 L-578,450 L-587,460 L-592,465 L-604,476 L-609,482 L-615,487 L-620,492 L-628,502 L-635,508 L-641,517 L-644,520 L-644,525 L-641,527 L-591,527 L-574,526 L-500,525 L-461,525 L-454,524 L-421,524 L-413,523 L-370,522 L-330,521 L-302,521 L-298,520 L-241,519 L-213,518 L-200,517 L-167,517 L-139,516 L-109,516 L-84,515 L-36,515 L-26,513 L1,513 L8,510 L9,507 L3,499 L-7,490 L-17,481 L-29,470 L-44,457 L-51,450 L-56,446 L-58,446 L-58,444 L-66,437 L-72,432 L-80,425 L-90,416 L-95,411 L-100,408 L-105,403 L-110,399 L-115,393 L-123,386 L-138,373 L-151,361 L-162,351 L-173,342 L-185,331 L-193,324 L-203,315 L-207,310 L-221,299 L-228,293 L-236,287 Z " fill="#000000" transform="translate(843,235)"/>
<path d="M0,0 L7,1 L9,4 L10,88 L11,129 L12,157 L13,239 L14,288 L15,313 L16,383 L17,425 L17,476 L18,506 L18,522 L19,561 L19,596 L18,609 L20,614 L20,636 L21,654 L22,719 L23,727 L23,754 L25,770 L26,774 L10,774 L9,725 L9,683 L8,644 L8,614 L7,574 L7,553 L6,543 L5,480 L5,458 L4,431 L3,387 L2,313 L1,283 L0,272 L0,237 L1,232 L0,231 Z " fill="#000000" transform="translate(0,240)"/>
<path d="M0,0 L78,0 L79,3 L-4,3 L-3,1 Z " fill="#000000" transform="translate(122,1011)"/>
<path d="M0,0 L6,0 L7,2 L0,2 Z " fill="#000000" transform="translate(106,1012)"/>
</svg>
