<?xml version="1.0" encoding="UTF-8"?>
<!-- Generator: visioncortex VTracer 0.6.12 -->
<svg version="1.1" xmlns="http://www.w3.org/2000/svg" width="1104" height="1095">
<path d="M0,0 L206,0 L209,2 L229,4 L238,8 L249,10 L267,15 L277,18 L295,24 L302,28 L318,33 L328,37 L336,42 L345,46 L352,49 L359,53 L372,58 L387,67 L400,75 L407,81 L415,84 L419,89 L428,95 L432,98 L439,102 L451,111 L456,116 L461,121 L474,131 L478,135 L483,140 L491,147 L496,152 L507,165 L513,169 L523,182 L529,190 L535,197 L539,201 L549,215 L557,226 L561,233 L569,244 L575,253 L580,262 L586,272 L592,283 L599,295 L604,305 L611,320 L616,333 L620,341 L625,356 L629,365 L634,379 L639,396 L643,413 L647,426 L649,440 L650,441 L650,652 L647,659 L642,681 L639,695 L631,719 L626,733 L622,747 L617,758 L612,770 L609,777 L601,793 L596,805 L591,812 L583,828 L576,839 L568,850 L563,858 L549,877 L542,887 L532,900 L526,908 L518,915 L509,926 L504,931 L497,938 L491,946 L483,953 L473,963 L462,970 L457,975 L443,986 L430,996 L422,1002 L409,1010 L398,1018 L376,1031 L368,1036 L354,1044 L340,1049 L324,1057 L315,1062 L295,1069 L287,1072 L276,1076 L263,1080 L244,1086 L229,1090 L220,1092 L211,1093 L209,1095 L-26,1095 L-26,1093 L-41,1091 L-73,1082 L-92,1076 L-102,1072 L-111,1069 L-131,1060 L-146,1054 L-166,1044 L-179,1037 L-185,1033 L-196,1027 L-207,1021 L-222,1010 L-232,1004 L-243,995 L-256,986 L-270,975 L-277,969 L-285,962 L-300,948 L-306,942 L-306,940 L-310,938 L-322,925 L-331,916 L-334,911 L-339,906 L-352,890 L-359,880 L-368,868 L-377,854 L-386,839 L-394,826 L-407,803 L-412,794 L-416,783 L-421,773 L-428,757 L-436,735 L-445,709 L-451,685 L-453,676 L-454,675 L-454,442 L-452,437 L-449,423 L-442,397 L-438,386 L-434,376 L-431,365 L-421,341 L-417,331 L-411,319 L-401,300 L-395,288 L-392,281 L-386,272 L-380,260 L-371,248 L-361,233 L-353,222 L-349,217 L-347,217 L-345,209 L-338,201 L-333,197 L-329,189 L-320,180 L-314,176 L-308,164 L-300,160 L-296,155 L-291,150 L-287,148 L-281,141 L-276,136 L-268,131 L-266,131 L-265,126 L-257,120 L-249,113 L-244,107 L-231,98 L-221,94 L-213,88 L-207,83 L-202,80 L-197,75 L-187,71 L-179,65 L-173,63 L-164,58 L-155,53 L-131,42 L-117,37 L-107,33 L-97,29 L-78,22 L-57,15 L-37,9 L-28,6 L-15,5 L-1,1 Z M146,86 L142,89 L142,92 L147,91 L148,86 Z M-12,226 L-15,229 L-14,231 L-10,229 Z M-224,281 L-251,282 L-253,284 L-252,290 L-245,298 L-237,305 L-226,314 L-221,319 L-208,331 L-193,346 L-185,353 L-178,360 L-170,367 L-151,386 L-143,393 L-139,395 L-137,399 L-129,406 L-120,415 L-112,422 L-96,438 L-88,445 L-77,456 L-69,463 L-59,473 L-53,476 L-42,488 L-38,490 L-31,498 L-20,509 L-12,516 L-7,520 L-2,526 L5,532 L10,537 L19,545 L24,550 L32,558 L40,565 L50,575 L55,580 L66,590 L77,598 L87,604 L96,606 L110,606 L113,604 L121,602 L129,593 L135,589 L145,580 L152,574 L157,569 L161,564 L162,560 L168,558 L177,551 L183,544 L193,538 L201,530 L206,525 L210,520 L219,515 L223,509 L229,505 L235,497 L242,494 L247,488 L254,485 L259,478 L266,475 L271,470 L280,459 L282,457 L289,455 L296,448 L299,443 L307,437 L315,427 L321,424 L325,421 L331,418 L339,410 L344,406 L349,401 L353,396 L363,390 L368,385 L375,377 L380,372 L390,365 L401,355 L407,350 L411,343 L418,341 L422,334 L427,329 L439,317 L447,311 L454,304 L459,299 L465,294 L466,289 L462,285 L409,285 L402,284 L381,284 L374,285 L345,284 L266,283 L257,284 L221,283 L177,283 L170,282 L165,283 L154,283 L131,282 L123,283 L40,282 L9,282 L-31,283 L-123,283 L-126,282 Z M-273,300 L-275,307 L-276,317 L-275,327 L-275,340 L-279,453 L-282,622 L-282,642 L-283,680 L-284,697 L-284,722 L-285,738 L-285,793 L-283,798 L-279,801 L-274,801 L-264,793 L-254,784 L-248,780 L-235,769 L-227,762 L-214,751 L-208,746 L-200,739 L-189,729 L-180,722 L-177,717 L-171,713 L-162,703 L-155,699 L-152,696 L-150,690 L-143,685 L-136,682 L-123,671 L-110,659 L-106,654 L-95,646 L-90,641 L-80,632 L-75,628 L-72,623 L-62,617 L-57,612 L-48,603 L-38,595 L-33,590 L-27,583 L-17,576 L-1,560 L-1,554 L-6,546 L-15,537 L-23,531 L-27,526 L-35,519 L-44,510 L-52,503 L-62,493 L-73,484 L-84,472 L-94,463 L-111,446 L-121,438 L-125,433 L-136,424 L-144,415 L-152,408 L-162,399 L-174,389 L-181,381 L-193,370 L-203,361 L-208,356 L-222,343 L-227,338 L-236,330 L-241,325 L-251,317 L-258,309 L-263,303 L-268,300 Z M481,311 L468,321 L460,327 L445,341 L439,345 L431,351 L426,356 L419,363 L417,364 L417,366 L413,368 L399,380 L392,386 L392,388 L389,389 L389,391 L385,393 L375,401 L367,407 L360,414 L360,416 L356,418 L346,427 L339,433 L329,441 L318,452 L308,460 L296,471 L288,478 L278,486 L278,488 L274,490 L263,499 L253,507 L243,516 L235,523 L231,527 L231,529 L226,531 L222,536 L210,545 L206,551 L207,559 L216,569 L226,579 L228,579 L230,583 L233,586 L241,593 L247,598 L253,602 L256,607 L267,616 L276,626 L284,633 L297,645 L304,653 L318,667 L326,673 L331,679 L339,685 L345,693 L356,702 L373,719 L382,726 L390,733 L397,741 L407,750 L417,759 L429,770 L443,784 L454,793 L465,803 L471,807 L476,805 L479,789 L479,765 L478,742 L477,739 L477,730 L479,714 L481,631 L481,616 L480,608 L482,604 L483,581 L483,492 L484,486 L485,444 L485,408 L487,319 L485,312 Z M180,572 L169,581 L154,595 L141,605 L133,612 L121,620 L115,623 L105,625 L96,625 L82,622 L66,612 L53,602 L48,598 L41,590 L27,578 L21,573 L14,573 L5,580 L-5,586 L-11,593 L-11,595 L-15,597 L-28,608 L-36,615 L-51,629 L-62,638 L-75,651 L-83,657 L-94,667 L-102,673 L-112,682 L-123,691 L-131,699 L-142,708 L-150,715 L-161,724 L-170,732 L-178,739 L-188,749 L-202,760 L-210,766 L-210,768 L-214,770 L-222,777 L-230,784 L-244,796 L-253,806 L-259,811 L-259,817 L-254,822 L-239,822 L-232,820 L-227,822 L-216,822 L-214,820 L-208,820 L-204,822 L-171,822 L-167,823 L-128,823 L-118,824 L-57,824 L-27,825 L19,825 L43,824 L79,825 L102,825 L127,827 L134,826 L157,825 L167,826 L252,826 L260,825 L295,825 L299,826 L310,826 L317,825 L352,825 L372,826 L386,825 L408,825 L438,823 L446,821 L448,819 L447,814 L443,808 L434,801 L429,797 L426,792 L415,784 L409,777 L398,768 L390,761 L383,753 L373,744 L366,738 L361,733 L356,728 L351,724 L346,719 L342,715 L340,715 L338,711 L333,709 L333,707 L325,700 L318,694 L311,686 L299,676 L291,666 L280,657 L274,650 L267,645 L261,637 L249,625 L244,623 L242,619 L230,608 L222,599 L208,589 L205,583 L200,578 L191,572 Z M231,1074 L226,1078 L227,1083 L232,1082 L236,1077 L235,1074 Z " fill="#000000" transform="translate(454,0)"/>
</svg>
