<?xml version="1.0" encoding="UTF-8"?>
<!-- Generator: visioncortex VTracer 0.6.12 -->
<svg version="1.1" xmlns="http://www.w3.org/2000/svg" width="1026" height="1008">
<path d="M0,0 L18,0 L24,1 L26,0 L442,0 L442,2 L440,3 L425,3 L414,4 L404,3 L376,4 L346,4 L323,5 L280,5 L248,7 L198,7 L185,8 L164,8 L155,9 L116,9 L79,10 L24,11 L4,11 L-30,12 L-73,12 L-147,14 L-157,14 L-162,15 L-185,15 L-218,16 L-230,17 L-233,20 L-234,20 L-234,6 L-208,5 L-178,5 L-165,3 L-142,4 L-123,3 L-72,3 L-62,2 L-23,2 L-8,1 L-2,1 Z " fill="#000000" transform="translate(234,0)"/>
<path d="M0,0 L27,0 L26,2 L0,2 Z " fill="#000000" transform="translate(683,0)"/>
<path d="M0,0 L18,0 L17,2 L1,2 Z " fill="#000000" transform="translate(714,0)"/>
<path d="M0,0 L18,0 L17,2 L0,2 Z " fill="#000000" transform="translate(761,0)"/>
<path d="M0,0 L12,0 L12,869 L10,866 L9,808 L9,718 L8,657 L8,637 L7,618 L6,584 L6,551 L7,538 L7,523 L6,500 L6,460 L5,398 L5,355 L4,311 L4,245 L3,224 L3,190 L2,85 L2,46 Z " fill="#000000" transform="translate(1014,0)"/>
<path d="M0,0 L2,1 L3,8 L1,13 L0,13 Z " fill="#000000" transform="translate(0,109)"/>
<path d="M0,0 Z " fill="#000000" transform="translate(0,123)"/>
<path d="M0,0 L1,0 L1,8 L0,8 Z " fill="#000000" transform="translate(0,137)"/>
<path d="M0,0 L2,2 L2,21 L3,47 L1,51 L0,51 Z " fill="#000000" transform="translate(0,152)"/>
<path d="M0,0 L2,1 L3,4 L4,148 L5,185 L5,223 L6,263 L6,297 L7,380 L7,469 L8,483 L8,508 L9,601 L9,638 L10,705 L10,762 L11,794 L12,800 L0,800 L1,790 L0,789 Z " fill="#000000" transform="translate(0,208)"/>
<path d="M0,0 L66,0 L72,5 L73,15 L73,41 L74,63 L74,98 L75,116 L77,289 L78,328 L78,378 L79,415 L79,560 L78,568 L73,573 L63,573 L60,574 L40,574 L-28,575 L-80,576 L-179,577 L-193,578 L-218,578 L-237,579 L-289,579 L-347,580 L-351,581 L-391,581 L-466,582 L-513,582 L-517,583 L-555,583 L-593,584 L-600,583 L-608,583 L-611,584 L-665,584 L-671,580 L-672,576 L-672,529 L-673,519 L-673,451 L-674,414 L-674,350 L-675,331 L-675,300 L-674,295 L-674,286 L-675,280 L-675,257 L-672,254 L-670,254 L-674,250 L-675,243 L-676,120 L-676,46 L-678,20 L-674,13 L-671,12 L-622,10 L-554,10 L-549,9 L-542,9 L-534,8 L-506,9 L-483,8 L-410,7 L-378,6 L-250,4 L-208,4 L-195,3 L-168,3 L-147,2 L-137,3 L-125,3 L-118,2 L-50,1 Z M-91,29 L-95,30 L-113,30 L-158,31 L-208,32 L-239,32 L-249,33 L-302,33 L-313,34 L-371,34 L-382,35 L-415,35 L-430,36 L-436,35 L-449,35 L-460,36 L-497,36 L-538,37 L-566,37 L-621,38 L-634,40 L-638,43 L-638,48 L-631,57 L-626,63 L-617,70 L-610,78 L-597,92 L-587,100 L-580,108 L-576,113 L-567,120 L-563,126 L-557,131 L-550,139 L-539,150 L-534,153 L-527,161 L-522,165 L-520,165 L-518,169 L-509,178 L-504,183 L-495,192 L-490,196 L-483,204 L-475,213 L-469,217 L-459,227 L-455,233 L-451,238 L-443,243 L-429,257 L-423,262 L-416,270 L-408,279 L-400,286 L-391,294 L-387,299 L-376,308 L-371,313 L-369,313 L-367,317 L-359,325 L-351,332 L-345,340 L-339,347 L-331,354 L-318,367 L-311,375 L-304,380 L-297,381 L-292,378 L-285,372 L-285,370 L-283,370 L-279,364 L-273,359 L-268,354 L-261,344 L-250,335 L-238,322 L-232,315 L-225,309 L-218,301 L-213,296 L-202,287 L-198,281 L-189,271 L-176,258 L-171,253 L-164,245 L-149,231 L-144,226 L-128,209 L-121,202 L-115,195 L-109,190 L-102,182 L-94,175 L-85,164 L-82,162 L-82,160 L-78,158 L-62,141 L-54,134 L-47,126 L-38,116 L-31,107 L-23,100 L-8,85 L-3,79 L5,72 L12,63 L12,61 L17,59 L27,49 L33,40 L33,33 L30,30 L21,29 L-27,29 L-33,30 L-51,30 L-61,29 Z M38,76 L28,84 L23,89 L13,100 L7,105 L1,113 L-8,122 L-13,127 L-24,140 L-32,147 L-39,154 L-44,159 L-54,169 L-61,177 L-71,187 L-78,195 L-86,202 L-94,212 L-106,223 L-118,236 L-125,244 L-133,251 L-135,255 L-137,255 L-137,257 L-141,259 L-144,261 L-147,266 L-152,270 L-159,278 L-166,287 L-167,294 L-164,300 L-145,319 L-137,326 L-93,370 L-85,377 L-77,385 L-75,385 L-73,389 L-66,396 L-59,404 L-50,412 L-48,412 L-46,416 L-42,421 L-34,428 L-21,440 L0,461 L5,465 L14,476 L24,485 L30,489 L35,495 L42,500 L47,498 L50,492 L51,486 L51,287 L50,240 L50,162 L49,139 L48,100 L46,81 L43,76 Z M-644,86 L-648,90 L-649,97 L-649,207 L-648,219 L-648,376 L-647,407 L-647,451 L-646,467 L-646,480 L-645,503 L-641,511 L-635,510 L-628,504 L-623,499 L-613,489 L-607,482 L-599,475 L-588,463 L-582,458 L-574,448 L-564,439 L-557,430 L-531,404 L-523,397 L-516,389 L-511,384 L-505,377 L-498,371 L-493,366 L-483,356 L-479,350 L-471,343 L-464,335 L-457,327 L-448,320 L-437,308 L-432,302 L-431,294 L-435,286 L-443,278 L-448,273 L-453,268 L-459,261 L-470,252 L-477,245 L-479,245 L-481,240 L-494,226 L-500,222 L-506,215 L-514,208 L-518,203 L-526,196 L-533,189 L-541,182 L-549,174 L-556,166 L-564,159 L-571,151 L-585,138 L-590,133 L-599,125 L-606,117 L-611,111 L-619,104 L-629,96 L-639,87 Z M-191,316 L-199,320 L-204,324 L-209,331 L-217,338 L-220,341 L-220,343 L-224,345 L-236,358 L-251,373 L-256,378 L-261,383 L-272,394 L-277,399 L-287,410 L-292,415 L-296,417 L-302,417 L-310,410 L-315,405 L-324,397 L-328,392 L-336,385 L-351,369 L-365,355 L-370,350 L-380,341 L-387,333 L-400,321 L-403,319 L-410,319 L-416,323 L-433,340 L-440,348 L-453,361 L-459,368 L-467,375 L-472,380 L-481,391 L-489,398 L-505,415 L-523,433 L-528,438 L-535,445 L-540,450 L-550,460 L-557,468 L-562,473 L-567,477 L-576,488 L-602,514 L-609,522 L-613,527 L-621,534 L-630,545 L-631,547 L-631,553 L-629,555 L-617,557 L-568,557 L-553,556 L-522,556 L-501,555 L-470,554 L-428,554 L-416,552 L-397,553 L-368,552 L-320,551 L-296,552 L-283,551 L-248,551 L-221,550 L-157,549 L-83,547 L-56,547 L-47,548 L-32,548 L-26,547 L1,548 L6,547 L28,547 L36,544 L38,539 L35,533 L26,523 L13,510 L6,502 L-4,491 L-13,484 L-18,477 L-24,473 L-28,468 L-37,461 L-48,449 L-53,444 L-68,430 L-85,413 L-93,406 L-106,393 L-109,390 L-113,385 L-119,381 L-124,375 L-132,368 L-139,361 L-141,361 L-143,357 L-148,352 L-159,341 L-167,334 L-183,318 L-187,316 Z " fill="#000000" transform="translate(810,208)"/>
<path d="M0,0 L1,0 L1,9 L0,9 Z " fill="#000000" transform="translate(1025,892)"/>
<path d="M0,0 L2,0 L2,13 L-6,14 L-76,14 L-85,15 L-105,15 L-119,16 L-123,14 L-131,15 L-163,16 L-262,16 L-270,17 L-334,17 L-366,18 L-367,19 L-378,19 L-379,18 L-385,18 L-386,19 L-865,19 L-864,17 L-780,15 L-758,15 L-673,13 L-640,12 L-573,12 L-531,11 L-505,11 L-480,10 L-452,10 L-382,9 L-357,8 L-315,8 L-309,7 L-293,8 L-277,8 L-275,7 L-263,8 L-256,7 L-252,8 L-247,7 L-216,7 L-192,6 L-108,5 L-67,4 L-14,4 L-4,3 Z " fill="#000000" transform="translate(1024,989)"/>
<path d="M0,0 L5,0 L6,2 L-1,2 Z " fill="#000000" transform="translate(147,1006)"/>
</svg>
