<?xml version="1.0" encoding="UTF-8"?>
<!-- Generator: visioncortex VTracer 0.6.12 -->
<svg version="1.1" xmlns="http://www.w3.org/2000/svg" width="1164" height="1350">
<path d="M0,0 L43,0 L43,55 L2,55 L-16,56 L-119,58 L-184,59 L-191,60 L-213,60 L-245,61 L-247,60 L-247,53 L-250,53 L-252,62 L-257,65 L-261,63 L-262,61 L-262,52 L-265,53 L-266,60 L-267,61 L-443,64 L-509,65 L-635,67 L-654,67 L-843,70 L-961,72 L-993,72 L-1039,73 L-1121,74 L-1121,19 L-945,16 L-827,15 L-810,15 L-802,14 L-772,14 L-643,12 L-538,10 L-397,8 L-344,7 L-329,7 L-276,6 L-232,5 L-95,2 L-78,2 Z " fill="#000000" transform="translate(1121,32)"/>
<path d="M0,0 L41,0 L41,11 L13,11 L6,12 L-101,13 L-110,14 L-200,15 L-226,16 L-247,16 L-258,17 L-305,17 L-313,18 L-361,18 L-366,19 L-412,19 L-479,21 L-509,21 L-581,22 L-599,23 L-753,26 L-780,26 L-791,27 L-817,27 L-900,29 L-923,30 L-934,30 L-948,31 L-952,34 L-952,116 L-951,184 L-951,258 L-950,289 L-949,371 L-948,464 L-947,548 L-946,601 L-945,691 L-943,819 L-943,849 L-942,916 L-942,944 L-940,1091 L-939,1137 L-936,1142 L-931,1143 L-827,1141 L-777,1140 L-758,1140 L-755,1143 L-751,1141 L-750,1140 L-725,1139 L-678,1138 L-657,1138 L-647,1137 L-623,1137 L-541,1135 L-500,1135 L-479,1136 L-460,1135 L-457,1134 L-429,1134 L-407,1133 L-383,1133 L-357,1132 L-321,1131 L-260,1130 L-216,1130 L-193,1129 L-163,1129 L-148,1128 L-132,1129 L-35,1128 L17,1127 L41,1127 L41,1137 L36,1138 L-3,1139 L-24,1138 L-44,1139 L-70,1139 L-85,1140 L-167,1140 L-180,1141 L-219,1141 L-226,1138 L-232,1141 L-237,1142 L-250,1142 L-258,1141 L-294,1141 L-296,1142 L-314,1143 L-362,1144 L-372,1145 L-408,1145 L-411,1144 L-422,1144 L-425,1145 L-439,1146 L-492,1146 L-560,1147 L-578,1147 L-593,1148 L-622,1149 L-657,1149 L-663,1150 L-708,1150 L-739,1151 L-775,1151 L-778,1152 L-827,1152 L-838,1153 L-891,1154 L-935,1154 L-947,1156 L-951,1153 L-952,1103 L-953,1018 L-953,991 L-955,907 L-956,793 L-957,726 L-958,695 L-958,659 L-960,509 L-960,490 L-961,451 L-961,415 L-962,338 L-963,319 L-962,299 L-963,295 L-963,230 L-964,169 L-964,122 L-965,103 L-965,82 L-966,31 L-964,21 L-962,20 L-934,18 L-912,17 L-890,17 L-869,16 L-806,15 L-706,13 L-695,13 L-687,12 L-664,12 L-607,11 L-562,10 L-532,9 L-493,8 L-470,8 L-440,7 L-379,6 L-345,5 L-264,5 L-252,4 L-235,4 L-205,3 L-106,2 L-71,1 L-45,1 Z " fill="#000000" transform="translate(1123,156)"/>
<path d="M0,0 L50,0 L52,2 L53,21 L55,202 L57,325 L58,435 L59,508 L59,541 L60,600 L61,674 L62,718 L62,738 L63,777 L64,885 L65,921 L67,1047 L67,1086 L68,1109 L68,1120 L66,1134 L64,1136 L34,1137 L0,1137 L0,1126 L6,1125 L39,1125 L52,1124 L55,1119 L55,1086 L54,1074 L54,1035 L52,902 L51,856 L50,743 L49,676 L48,601 L47,547 L46,458 L45,412 L45,388 L44,313 L43,262 L43,235 L42,169 L42,145 L40,75 L40,52 L39,28 L36,15 L32,13 L22,12 L0,12 Z " fill="#000000" transform="translate(0,181)"/>
<path d="M0,0 L5,1 L8,4 L10,15 L10,100 L12,295 L12,370 L14,517 L14,547 L11,552 L3,554 L-23,554 L-116,555 L-142,555 L-232,556 L-275,557 L-303,558 L-355,558 L-364,559 L-398,559 L-428,560 L-516,560 L-516,557 L-480,556 L-427,554 L-367,553 L-349,553 L-304,552 L-270,551 L-193,550 L-168,550 L-96,548 L-55,548 L2,547 L4,547 L6,536 L6,465 L4,252 L4,213 L3,132 L2,92 L1,16 L-1,9 L-6,7 L-57,7 L-60,8 L-68,8 L-76,7 L-89,8 L-170,9 L-183,9 L-207,10 L-235,11 L-263,10 L-268,11 L-290,11 L-324,12 L-368,12 L-390,13 L-400,14 L-456,14 L-506,15 L-563,17 L-583,17 L-631,18 L-658,19 L-688,19 L-694,20 L-740,21 L-768,21 L-816,22 L-834,23 L-837,25 L-838,28 L-838,56 L-837,144 L-836,170 L-836,198 L-835,235 L-834,271 L-833,336 L-833,362 L-832,381 L-832,401 L-831,436 L-831,467 L-828,554 L-828,557 L-817,559 L-663,558 L-645,558 L-627,557 L-607,557 L-536,556 L-530,558 L-530,560 L-534,561 L-580,561 L-612,563 L-651,563 L-736,564 L-792,565 L-827,565 L-834,563 L-836,560 L-837,533 L-837,510 L-838,483 L-838,450 L-840,321 L-840,302 L-841,272 L-841,237 L-842,195 L-843,145 L-844,116 L-846,59 L-847,37 L-847,27 L-844,18 L-843,17 L-832,16 L-813,16 L-763,15 L-735,15 L-705,14 L-689,13 L-638,13 L-605,12 L-580,11 L-476,10 L-460,10 L-453,11 L-448,9 L-402,9 L-388,8 L-336,7 L-299,6 L-257,6 L-213,4 L-178,4 L-102,2 L-54,2 L-47,1 L-3,1 Z " fill="#000000" transform="translate(1141,457)"/>
<path d="M0,0 L65,0 L69,4 L71,11 L72,118 L69,125 L60,127 L54,126 L-30,126 L-32,124 L-33,120 L-34,100 L-35,11 L-33,2 L-31,1 Z M4,6 L-23,7 L-27,11 L-28,14 L-28,47 L-27,100 L-26,117 L-23,121 L32,121 L60,120 L64,118 L65,115 L65,24 L64,13 L61,7 L54,6 Z " fill="#000000" transform="translate(1018,521)"/>
<path d="M0,0 L11,0 L15,4 L17,13 L18,26 L19,119 L17,124 L11,126 L-12,126 L-60,127 L-82,126 L-85,122 L-87,114 L-88,33 L-88,9 L-83,4 L-81,3 L-59,2 L-38,2 L-25,1 L-4,1 Z M-6,7 L-43,8 L-56,8 L-77,9 L-80,11 L-81,14 L-81,92 L-80,113 L-78,119 L-72,121 L3,120 L10,117 L11,112 L11,67 L10,20 L8,10 L4,7 Z " fill="#000000" transform="translate(936,522)"/>
<path d="M0,0 L8,0 L11,2 L13,11 L13,17 L10,20 L8,21 L-24,21 L-137,23 L-204,25 L-242,26 L-285,27 L-312,28 L-319,27 L-324,28 L-340,28 L-362,27 L-365,23 L-366,20 L-366,12 L-364,8 L-362,7 L-338,7 L-317,6 L-258,5 L-228,5 L-179,4 L-135,3 L-96,2 L-76,2 L-53,1 L-27,1 Z " fill="#000000" transform="translate(850,738)"/>
<path d="M0,0 L15,0 L18,5 L18,12 L16,18 L12,20 L-18,21 L-46,21 L-62,22 L-97,23 L-150,24 L-174,25 L-183,26 L-193,25 L-226,26 L-254,26 L-271,27 L-304,28 L-356,29 L-361,24 L-361,11 L-357,7 L-313,6 L-280,6 L-263,5 L-219,5 L-184,4 L-123,3 L-88,2 L-33,1 Z " fill="#000000" transform="translate(847,800)"/>
<path d="M0,0 L3,1 L0,2 Z " fill="#000000" transform="translate(639,829)"/>
<path d="M0,0 L25,0 L28,4 L27,17 L24,21 L20,22 L-58,23 L-102,24 L-127,24 L-191,25 L-238,25 L-241,21 L-241,10 L-238,6 L-235,5 L-184,4 L-122,3 L-51,2 Z " fill="#000000" transform="translate(728,867)"/>
<path d="M0,0 L4,0 L3,5 L-1,4 Z " fill="#000000" transform="translate(1055,1182)"/>
</svg>
