<?xml version="1.0" encoding="UTF-8"?>
<!-- Generator: visioncortex VTracer 0.6.12 -->
<svg version="1.1" xmlns="http://www.w3.org/2000/svg" width="1152" height="1134">
<path d="M0,0 L1152,0 L1152,1134 L0,1134 Z M1146,57 L1146,60 L1149,59 L1148,57 Z M155,229 L130,231 L127,233 L128,238 L135,246 L146,255 L153,262 L161,268 L164,271 L166,271 L167,274 L178,283 L191,295 L205,306 L209,311 L222,321 L230,329 L240,337 L255,350 L264,358 L269,360 L271,364 L283,375 L294,384 L303,391 L311,398 L316,403 L322,407 L329,415 L339,422 L353,435 L361,442 L369,448 L377,455 L384,462 L391,468 L396,472 L401,477 L409,483 L424,497 L433,504 L444,514 L458,525 L470,536 L480,544 L487,550 L492,555 L500,562 L509,569 L521,580 L532,589 L539,596 L547,602 L559,613 L572,623 L578,622 L588,614 L599,605 L612,594 L622,585 L630,578 L635,574 L640,569 L649,562 L660,552 L665,547 L667,542 L676,539 L687,530 L701,519 L706,514 L715,506 L715,504 L719,502 L732,492 L742,483 L753,474 L761,467 L769,460 L780,451 L789,444 L793,440 L793,438 L797,436 L805,429 L815,420 L823,414 L834,404 L845,395 L855,387 L867,376 L875,369 L886,360 L899,349 L907,342 L914,335 L925,326 L933,320 L938,315 L951,304 L962,295 L971,286 L981,278 L992,268 L1006,258 L1022,242 L1028,237 L1028,232 L1024,230 L925,230 L919,231 L913,229 L904,229 L899,230 L671,230 L662,231 L658,230 L572,229 L253,229 L214,230 L176,229 Z M1032,309 L1021,317 L1010,326 L1001,334 L990,343 L978,354 L964,365 L953,376 L945,382 L937,388 L932,393 L920,404 L912,410 L907,415 L898,422 L886,432 L875,441 L863,451 L863,453 L859,455 L844,468 L836,475 L826,483 L812,495 L803,502 L790,514 L781,521 L771,530 L759,539 L748,549 L739,556 L734,561 L724,569 L724,571 L720,573 L712,580 L702,588 L690,599 L685,605 L686,610 L689,615 L699,623 L710,633 L720,641 L730,650 L739,657 L746,663 L754,670 L767,681 L775,688 L782,694 L790,701 L803,712 L814,721 L828,734 L836,741 L849,752 L859,760 L872,772 L880,779 L895,792 L903,799 L913,807 L918,812 L931,823 L944,834 L955,843 L968,854 L979,863 L993,875 L998,880 L1006,887 L1015,895 L1017,895 L1019,899 L1028,905 L1029,906 L1034,906 L1036,901 L1037,845 L1037,793 L1038,786 L1038,661 L1039,579 L1038,569 L1039,516 L1039,314 L1037,309 Z M119,310 L117,312 L116,323 L115,356 L114,418 L114,451 L113,588 L113,646 L112,669 L111,758 L111,899 L113,903 L119,903 L129,895 L137,888 L145,881 L154,873 L162,866 L172,857 L178,853 L191,841 L199,834 L208,827 L221,816 L234,805 L243,797 L251,790 L259,784 L264,779 L276,768 L284,762 L294,753 L305,744 L312,737 L326,726 L341,713 L349,706 L357,699 L366,692 L374,685 L377,682 L385,675 L395,666 L405,658 L410,653 L418,647 L423,642 L431,635 L442,626 L452,617 L460,610 L461,605 L458,600 L450,592 L442,586 L437,581 L428,574 L423,569 L409,557 L401,549 L393,543 L383,535 L369,522 L358,514 L355,510 L353,510 L353,508 L343,502 L333,492 L332,490 L330,490 L329,487 L321,482 L316,476 L310,473 L304,466 L296,460 L289,453 L284,450 L279,445 L274,441 L269,435 L258,427 L253,423 L248,418 L240,411 L234,407 L224,398 L218,393 L213,388 L200,376 L189,367 L179,358 L172,351 L161,342 L144,328 L134,320 L126,313 L122,310 Z M631,649 L621,656 L608,667 L601,673 L601,675 L597,677 L588,685 L578,693 L574,695 L569,694 L563,690 L554,680 L542,669 L534,663 L526,656 L518,650 L510,650 L504,654 L494,664 L481,674 L477,679 L468,685 L454,697 L444,706 L439,711 L429,720 L418,729 L405,741 L394,750 L382,761 L372,768 L364,775 L354,784 L345,792 L334,801 L327,807 L322,812 L312,820 L301,829 L291,837 L278,847 L264,860 L255,867 L246,875 L242,879 L231,888 L220,897 L212,905 L212,910 L214,912 L248,913 L526,913 L668,912 L927,912 L930,909 L929,905 L904,880 L893,872 L878,858 L870,851 L857,840 L849,833 L838,824 L831,818 L823,811 L808,797 L798,790 L792,783 L784,777 L772,766 L764,759 L760,757 L753,749 L743,741 L732,732 L726,727 L721,722 L705,707 L695,699 L683,688 L674,681 L661,668 L653,662 L643,653 L637,649 Z M84,893 L77,894 L73,899 L72,907 L76,913 L80,915 L88,915 L93,912 L96,907 L96,901 L89,893 Z M670,1064 L669,1069 L671,1071 L675,1071 L676,1067 L674,1064 Z " fill="#000000" transform="translate(0,0)"/>
<path d="M0,0 L21,0 L89,1 L215,1 L222,2 L226,6 L227,10 L226,29 L221,34 L214,35 L6,35 L-7,33 L-11,29 L-11,8 L-7,2 Z " fill="#000000" transform="translate(458,316)"/>
<path d="M0,0 L55,0 L126,1 L132,5 L134,12 L134,20 L132,30 L126,35 L44,35 L35,38 L33,41 L32,54 L32,101 L31,141 L28,146 L24,148 L4,148 L-1,145 L-2,140 L-1,131 L-1,42 L-4,36 L-6,35 L-98,35 L-103,30 L-103,7 L-98,2 L-97,1 L-35,1 Z " fill="#000000" transform="translate(550,374)"/>
<path d="M0,0 L5,2 L8,7 L9,12 L5,17 L-3,16 L-7,9 L-6,4 L-3,1 Z " fill="#000000" transform="translate(83,896)"/>
</svg>
