<?xml version="1.0" encoding="UTF-8"?>
<!-- Generator: visioncortex VTracer 0.6.12 -->
<svg version="1.1" xmlns="http://www.w3.org/2000/svg" width="1023" height="1011">
<path d="M0,0 L12,0 L13,1 L21,1 L22,0 L603,0 L604,3 L605,31 L606,92 L607,99 L609,170 L609,197 L610,224 L611,228 L611,1002 L573,1002 L566,1000 L559,1001 L556,1002 L541,1002 L535,1003 L477,1003 L476,1004 L463,1004 L457,1003 L455,1004 L444,1004 L439,1005 L405,1005 L396,1006 L362,1006 L347,1007 L312,1007 L291,1008 L268,1008 L207,1009 L203,1011 L202,1010 L189,1010 L186,1011 L167,1011 L166,1010 L156,1010 L155,1011 L-397,1011 L-398,1001 L-399,974 L-400,956 L-401,905 L-402,895 L-402,862 L-403,852 L-404,827 L-404,799 L-405,786 L-405,754 L-406,750 L-407,700 L-408,689 L-408,651 L-409,641 L-410,583 L-411,554 L-412,552 L-412,11 L-404,12 L-398,10 L-384,10 L-380,9 L-321,8 L-288,8 L-232,6 L-188,6 L-184,5 L-137,5 L-128,4 L-110,4 L-102,3 L-69,3 L-43,2 L-6,2 Z M435,13 L432,16 L432,23 L435,26 L441,25 L442,24 L442,15 L439,13 Z M-338,187 L-341,190 L-339,197 L-335,197 L-333,191 L-334,188 Z M448,201 L439,202 L416,202 L407,203 L348,203 L338,204 L285,204 L268,205 L263,206 L256,205 L254,206 L172,207 L165,208 L150,208 L140,209 L112,209 L61,211 L11,212 L3,211 L1,212 L-61,214 L-101,214 L-113,216 L-121,215 L-129,215 L-133,216 L-165,217 L-195,217 L-213,218 L-221,219 L-236,218 L-257,218 L-285,220 L-297,221 L-299,222 L-298,227 L-289,236 L-279,244 L-268,253 L-260,260 L-257,261 L-257,263 L-247,271 L-239,278 L-237,278 L-235,282 L-225,290 L-218,297 L-210,303 L-202,310 L-186,323 L-175,331 L-164,341 L-153,350 L-142,359 L-134,366 L-123,375 L-119,380 L-111,387 L-97,397 L-92,402 L-87,405 L-80,412 L-72,418 L-63,426 L-49,437 L-40,444 L-28,455 L-19,461 L-14,466 L-2,476 L7,483 L15,490 L24,496 L31,503 L41,511 L49,517 L60,525 L70,534 L79,541 L92,551 L105,561 L110,561 L119,555 L125,548 L135,540 L143,534 L148,528 L151,526 L151,524 L155,522 L169,511 L176,503 L187,494 L200,482 L205,477 L221,462 L230,454 L235,449 L251,434 L262,425 L269,418 L277,411 L283,406 L288,403 L295,395 L303,388 L308,383 L318,374 L332,361 L337,358 L344,350 L353,343 L358,338 L363,332 L372,325 L385,313 L395,304 L404,297 L408,292 L419,283 L431,271 L439,264 L452,252 L459,244 L466,238 L469,232 L477,225 L482,220 L494,208 L493,204 L484,201 L467,202 Z M501,270 L491,277 L485,282 L474,291 L467,299 L453,309 L448,314 L438,324 L433,329 L421,340 L412,347 L397,361 L386,372 L378,378 L366,390 L358,397 L351,403 L343,410 L331,421 L319,432 L312,439 L303,445 L299,450 L291,457 L281,467 L273,474 L261,485 L253,492 L244,501 L236,508 L229,515 L221,522 L210,532 L205,537 L203,539 L203,545 L213,555 L224,564 L232,571 L242,579 L251,587 L264,597 L272,605 L278,609 L285,614 L290,619 L304,631 L316,639 L325,647 L330,652 L335,656 L340,661 L350,669 L358,676 L363,680 L368,685 L376,691 L381,696 L390,703 L395,708 L404,715 L413,722 L418,727 L426,733 L429,736 L431,736 L433,740 L441,746 L446,749 L454,756 L459,759 L466,767 L478,773 L491,785 L498,791 L500,791 L501,794 L510,800 L514,801 L517,798 L518,782 L518,693 L517,674 L517,628 L516,621 L515,578 L515,549 L514,497 L513,470 L513,439 L512,404 L512,353 L511,332 L510,323 L509,284 L508,273 L505,270 Z M-303,288 L-305,290 L-306,294 L-305,324 L-306,336 L-306,352 L-305,355 L-304,454 L-303,493 L-302,495 L-302,518 L-301,600 L-300,622 L-299,641 L-298,703 L-297,730 L-297,740 L-296,748 L-295,787 L-294,807 L-293,816 L-290,819 L-283,815 L-276,808 L-270,804 L-260,795 L-252,788 L-242,780 L-235,775 L-231,768 L-222,761 L-212,752 L-204,747 L-196,738 L-191,733 L-183,727 L-176,720 L-168,713 L-158,703 L-148,695 L-137,685 L-132,680 L-125,673 L-119,668 L-113,661 L-102,652 L-89,639 L-82,633 L-77,628 L-72,625 L-65,619 L-59,612 L-48,603 L-40,597 L-35,591 L-27,587 L-19,577 L-19,575 L-14,573 L-9,568 L-2,560 L6,553 L8,550 L8,545 L1,538 L-7,531 L-17,523 L-28,514 L-38,505 L-51,495 L-58,489 L-65,483 L-70,480 L-78,472 L-92,461 L-105,450 L-113,443 L-117,439 L-119,439 L-121,434 L-122,432 L-133,426 L-143,418 L-148,413 L-154,408 L-165,399 L-173,392 L-182,385 L-187,381 L-195,374 L-209,363 L-221,352 L-230,345 L-240,337 L-245,332 L-255,324 L-265,315 L-276,308 L-288,297 L-300,288 Z M-312,521 L-318,530 L-321,535 L-321,542 L-316,543 L-310,534 L-307,527 L-308,521 Z M159,580 L153,584 L138,597 L125,608 L117,616 L111,620 L105,620 L99,615 L88,607 L74,596 L64,587 L56,583 L51,584 L45,587 L40,592 L27,605 L19,611 L12,617 L7,622 L2,627 L-6,634 L-11,639 L-15,644 L-24,651 L-34,660 L-44,666 L-55,678 L-66,689 L-77,698 L-81,703 L-91,711 L-95,716 L-105,724 L-111,731 L-119,737 L-125,744 L-130,749 L-142,759 L-147,764 L-158,773 L-162,778 L-170,785 L-177,792 L-182,797 L-198,810 L-204,816 L-203,821 L-202,822 L-183,822 L-155,821 L-153,822 L-137,822 L-130,821 L-40,820 L-36,821 L-31,819 L5,819 L11,818 L21,819 L26,818 L43,818 L55,817 L67,817 L72,818 L74,817 L81,817 L85,818 L88,817 L104,816 L124,816 L133,815 L149,815 L164,814 L181,814 L196,813 L202,814 L222,814 L225,812 L238,812 L271,811 L283,811 L290,810 L304,810 L310,811 L325,809 L357,809 L369,808 L376,809 L421,806 L425,804 L424,800 L417,792 L411,788 L406,783 L397,776 L390,770 L383,762 L374,755 L363,746 L352,737 L343,728 L334,721 L328,714 L321,710 L317,705 L309,699 L298,690 L287,682 L282,677 L275,672 L270,667 L265,662 L260,658 L251,652 L243,645 L238,640 L230,633 L226,629 L220,626 L213,620 L208,615 L203,611 L195,605 L178,591 L171,585 L165,580 Z M440,829 L440,831 L442,831 L442,829 Z M246,937 L245,942 L248,945 L251,944 L251,939 L249,937 Z " fill="#000000" transform="translate(412,0)"/>
<path d="M0,0 L40,0 L44,2 L46,9 L46,16 L44,22 L41,25 L27,27 L6,28 L-9,28 L-49,29 L-57,30 L-141,31 L-152,31 L-155,28 L-156,25 L-156,16 L-154,7 L-150,4 L-140,5 L-134,3 L-114,3 L-83,2 L-66,2 L-64,1 L-44,1 L-39,2 L-36,1 Z " fill="#000000" transform="translate(568,284)"/>
<path d="M0,0 L84,0 L87,2 L88,13 L88,19 L84,25 L82,26 L51,27 L44,28 L28,28 L7,29 L2,32 L0,46 L0,80 L1,93 L0,122 L-4,127 L-11,128 L-19,126 L-21,122 L-21,111 L-22,96 L-22,87 L-23,80 L-24,47 L-25,34 L-27,31 L-45,31 L-73,30 L-82,31 L-100,31 L-111,30 L-113,27 L-114,16 L-113,8 L-110,6 L-101,5 L-99,4 L-78,3 L-44,3 L-41,2 L-25,2 Z " fill="#000000" transform="translate(527,335)"/>
</svg>
