<?xml version="1.0" encoding="UTF-8"?>
<!-- Generator: visioncortex VTracer 0.6.12 -->
<svg version="1.1" xmlns="http://www.w3.org/2000/svg" width="1125" height="1248">
<path d="M0,0 L32,0 L36,3 L37,8 L37,81 L38,143 L39,177 L40,274 L43,382 L43,414 L45,479 L45,516 L46,532 L44,536 L45,541 L46,543 L47,581 L48,618 L49,653 L50,719 L51,738 L53,846 L54,863 L55,909 L56,927 L56,947 L57,984 L57,1009 L53,1013 L38,1014 L-7,1015 L-10,1016 L-59,1016 L-87,1017 L-96,1018 L-131,1018 L-140,1019 L-239,1021 L-262,1022 L-308,1022 L-343,1023 L-350,1022 L-356,1023 L-374,1024 L-383,1023 L-389,1024 L-419,1025 L-427,1024 L-431,1025 L-450,1025 L-473,1026 L-484,1025 L-514,1026 L-566,1027 L-574,1026 L-580,1027 L-611,1028 L-632,1028 L-641,1029 L-662,1029 L-691,1030 L-721,1030 L-807,1032 L-810,1028 L-811,1023 L-810,1021 L-800,1022 L-796,1020 L-767,1020 L-747,1019 L-678,1018 L-647,1018 L-632,1017 L-583,1016 L-520,1015 L-492,1014 L-466,1014 L-458,1013 L-448,1013 L-443,1014 L-424,1013 L-376,1012 L-322,1011 L-296,1010 L-230,1009 L-208,1009 L-139,1007 L-132,1008 L-126,1007 L-106,1007 L-77,1006 L-70,1006 L-66,1005 L-51,1005 L-34,1004 L-13,1003 L5,1003 L37,1002 L41,1000 L43,987 L43,979 L42,974 L42,959 L41,926 L41,884 L40,871 L40,841 L39,834 L39,814 L38,766 L38,731 L37,716 L37,661 L36,659 L35,601 L34,572 L34,539 L33,523 L29,369 L28,300 L27,280 L27,268 L28,266 L28,255 L26,216 L25,163 L25,142 L24,126 L24,108 L22,25 L20,15 L15,14 L10,15 L5,13 L-31,13 L-59,14 L-107,15 L-109,16 L-154,16 L-161,17 L-167,16 L-170,17 L-231,18 L-254,19 L-295,19 L-323,20 L-324,19 L-331,20 L-350,20 L-370,21 L-377,22 L-398,22 L-404,21 L-416,22 L-462,23 L-506,24 L-524,24 L-528,25 L-565,25 L-569,26 L-600,26 L-644,27 L-662,27 L-663,28 L-680,28 L-688,29 L-692,28 L-716,28 L-718,29 L-741,29 L-754,30 L-774,30 L-781,31 L-791,30 L-796,31 L-811,31 L-837,32 L-865,32 L-949,34 L-977,36 L-979,42 L-979,159 L-978,168 L-979,197 L-978,201 L-977,264 L-975,307 L-974,352 L-974,374 L-973,390 L-972,401 L-972,464 L-971,473 L-971,519 L-970,535 L-970,549 L-969,556 L-968,626 L-967,654 L-967,684 L-966,689 L-965,775 L-965,829 L-964,849 L-963,853 L-963,889 L-962,930 L-960,983 L-959,1019 L-956,1024 L-935,1024 L-920,1023 L-915,1024 L-911,1023 L-879,1023 L-872,1024 L-869,1022 L-854,1023 L-851,1022 L-817,1021 L-815,1024 L-815,1031 L-817,1032 L-850,1032 L-852,1031 L-858,1031 L-862,1033 L-872,1033 L-877,1032 L-884,1033 L-907,1034 L-954,1035 L-963,1037 L-970,1036 L-973,1033 L-975,1029 L-976,969 L-977,948 L-977,901 L-978,874 L-981,706 L-983,639 L-983,624 L-984,601 L-984,573 L-983,571 L-978,569 L-982,567 L-984,565 L-986,508 L-986,494 L-988,423 L-988,394 L-990,321 L-990,291 L-987,289 L-988,285 L-990,284 L-990,277 L-991,274 L-991,255 L-992,228 L-992,203 L-993,176 L-993,127 L-994,114 L-994,89 L-995,85 L-996,67 L-997,39 L-998,32 L-994,23 L-987,22 L-947,22 L-904,21 L-901,20 L-852,20 L-796,17 L-773,17 L-757,16 L-750,15 L-742,16 L-721,16 L-718,18 L-713,17 L-684,15 L-678,16 L-665,14 L-652,15 L-646,16 L-643,14 L-604,14 L-579,13 L-542,12 L-513,11 L-454,11 L-447,10 L-437,12 L-433,10 L-416,10 L-408,9 L-370,10 L-364,9 L-362,10 L-356,10 L-354,9 L-329,9 L-325,10 L-323,8 L-296,8 L-291,10 L-289,8 L-279,6 L-275,7 L-265,7 L-255,6 L-239,6 L-234,5 L-216,6 L-211,5 L-188,4 L-159,4 L-149,5 L-126,5 L-117,3 L-104,3 L-92,2 L-61,2 L-23,1 Z " fill="#000000" transform="translate(1035,37)"/>
<path d="M0,0 L33,0 L35,1 L35,6 L21,20 L11,28 L6,33 L-4,42 L-18,55 L-23,60 L-36,70 L-41,75 L-50,82 L-53,87 L-63,95 L-75,106 L-82,111 L-89,119 L-98,127 L-103,131 L-108,136 L-116,143 L-123,150 L-131,157 L-139,164 L-149,172 L-157,179 L-168,190 L-174,193 L-183,203 L-191,210 L-207,223 L-215,230 L-223,237 L-227,241 L-229,241 L-231,245 L-237,249 L-244,257 L-258,269 L-265,276 L-273,283 L-282,290 L-290,297 L-302,308 L-310,315 L-318,321 L-331,333 L-336,337 L-340,342 L-346,345 L-355,355 L-367,365 L-372,366 L-386,355 L-397,347 L-408,337 L-418,331 L-428,322 L-438,315 L-450,304 L-461,296 L-468,290 L-479,281 L-488,274 L-499,265 L-507,259 L-521,247 L-531,239 L-543,231 L-553,221 L-561,217 L-570,208 L-580,201 L-587,195 L-597,187 L-602,183 L-614,174 L-625,166 L-637,155 L-648,147 L-661,137 L-669,129 L-682,119 L-692,112 L-695,109 L-695,107 L-699,105 L-711,96 L-722,87 L-730,80 L-746,68 L-753,62 L-762,55 L-772,46 L-780,40 L-791,30 L-796,25 L-794,21 L-788,19 L-763,19 L-736,18 L-726,18 L-714,17 L-706,18 L-693,16 L-679,16 L-673,13 L-663,14 L-655,15 L-646,16 L-610,16 L-594,15 L-585,16 L-565,15 L-561,14 L-519,14 L-507,13 L-473,13 L-469,14 L-463,13 L-434,13 L-410,12 L-389,12 L-361,11 L-345,12 L-329,10 L-276,10 L-249,9 L-230,9 L-224,8 L-215,8 L-212,7 L-190,7 L-153,6 L-143,6 L-124,5 L-110,5 L-108,4 L-97,4 L-80,3 L-66,3 L-9,1 Z M-456,49 L-458,52 L-458,58 L-454,59 L-451,56 L-452,49 Z M-300,59 L-302,60 L-349,61 L-374,62 L-398,62 L-426,63 L-460,63 L-479,65 L-482,68 L-483,71 L-483,88 L-480,95 L-470,95 L-462,96 L-444,96 L-439,95 L-391,95 L-387,94 L-368,93 L-365,94 L-347,94 L-337,93 L-330,94 L-327,93 L-307,93 L-288,92 L-284,93 L-275,90 L-272,86 L-271,83 L-272,69 L-275,62 L-281,60 L-292,60 L-294,59 Z M-324,121 L-328,122 L-352,122 L-383,123 L-453,124 L-472,126 L-479,129 L-481,131 L-481,148 L-480,153 L-474,156 L-437,156 L-417,155 L-399,155 L-395,156 L-393,160 L-392,178 L-391,244 L-389,262 L-387,265 L-363,265 L-359,263 L-356,253 L-356,237 L-357,225 L-357,159 L-354,155 L-336,154 L-298,154 L-287,152 L-275,151 L-271,148 L-270,133 L-272,126 L-276,123 L-279,122 Z " fill="#000000" transform="translate(937,242)"/>
<path d="M0,0 L4,2 L7,40 L8,92 L8,108 L10,122 L10,163 L6,165 L5,168 L10,173 L11,214 L11,246 L10,250 L12,254 L13,286 L14,339 L15,377 L16,395 L16,434 L18,523 L17,531 L12,532 L3,525 L-5,519 L-10,514 L-18,508 L-32,497 L-45,486 L-56,478 L-66,470 L-79,459 L-88,453 L-92,449 L-101,442 L-115,431 L-121,426 L-129,420 L-142,409 L-151,402 L-160,395 L-171,387 L-179,379 L-185,375 L-194,368 L-204,360 L-218,349 L-226,343 L-236,335 L-246,327 L-254,321 L-254,319 L-258,317 L-268,309 L-277,302 L-287,293 L-293,289 L-304,280 L-305,278 L-305,272 L-298,264 L-287,255 L-280,248 L-269,239 L-255,226 L-250,221 L-243,215 L-238,210 L-228,201 L-221,197 L-214,189 L-206,182 L-190,169 L-174,154 L-166,147 L-150,132 L-141,125 L-132,117 L-127,115 L-125,111 L-117,103 L-106,94 L-99,87 L-91,80 L-82,73 L-68,59 L-66,59 L-64,55 L-54,46 L-46,40 L-39,36 L-32,28 L-25,21 L-17,14 L-9,8 L-4,3 Z " fill="#000000" transform="translate(977,315)"/>
<path d="M0,0 L6,1 L11,7 L17,11 L25,17 L37,26 L46,33 L54,40 L66,50 L75,57 L91,69 L98,75 L106,81 L115,87 L125,91 L128,96 L136,98 L140,103 L146,111 L154,119 L162,126 L169,133 L169,135 L175,137 L180,142 L190,149 L199,155 L204,160 L212,166 L216,170 L223,175 L228,180 L233,184 L239,188 L249,197 L256,201 L270,213 L278,219 L287,226 L300,236 L312,247 L322,256 L323,263 L317,270 L307,278 L300,285 L292,292 L282,300 L277,305 L267,314 L259,321 L248,330 L240,338 L232,343 L228,348 L223,352 L221,352 L219,356 L212,362 L207,367 L198,374 L183,388 L175,395 L166,403 L164,403 L162,407 L148,418 L140,425 L132,432 L125,439 L117,446 L105,455 L98,463 L90,469 L78,481 L70,487 L65,492 L50,505 L40,512 L35,518 L24,525 L18,530 L13,530 L12,529 L12,521 L10,517 L10,503 L11,500 L11,491 L10,488 L9,454 L8,445 L7,422 L7,387 L5,305 L4,292 L3,247 L3,220 L2,195 L1,156 L0,107 L-2,56 L-2,3 Z " fill="#000000" transform="translate(137,336)"/>
<path d="M0,0 L6,0 L15,6 L28,17 L38,25 L48,33 L57,39 L69,49 L80,58 L91,67 L96,72 L107,79 L112,84 L112,86 L116,88 L128,97 L137,104 L142,108 L148,112 L153,117 L159,122 L166,127 L166,129 L171,131 L184,142 L198,153 L208,162 L214,166 L226,175 L234,182 L244,190 L253,197 L264,206 L265,209 L269,211 L283,222 L282,226 L281,227 L273,227 L262,228 L235,229 L217,230 L163,231 L141,232 L121,232 L107,233 L65,233 L59,234 L38,234 L36,235 L13,235 L5,236 L-16,236 L-68,237 L-94,238 L-97,237 L-107,237 L-117,238 L-137,238 L-167,239 L-231,240 L-275,241 L-304,241 L-310,242 L-366,243 L-383,243 L-386,242 L-385,237 L-376,229 L-370,224 L-365,218 L-357,211 L-343,197 L-336,188 L-324,181 L-314,173 L-306,166 L-293,153 L-284,146 L-277,140 L-271,136 L-266,130 L-255,121 L-248,115 L-244,113 L-237,105 L-224,93 L-219,89 L-215,84 L-208,80 L-203,75 L-199,70 L-189,62 L-181,54 L-169,45 L-167,45 L-166,42 L-158,35 L-149,28 L-144,22 L-134,15 L-130,10 L-122,4 L-115,3 L-107,11 L-97,17 L-91,22 L-86,25 L-75,34 L-62,43 L-58,45 L-51,45 L-37,33 L-27,25 L-21,18 L-16,13 L-7,7 L-2,2 Z " fill="#000000" transform="translate(624,628)"/>
<path d="M0,0 L18,0 L32,7 L39,13 L45,25 L47,34 L47,47 L44,58 L39,67 L31,77 L20,83 L1,83 L-9,80 L-17,75 L-24,65 L-28,55 L-30,46 L-30,36 L-26,21 L-18,10 L-7,3 Z M9,11 L-1,12 L-9,18 L-15,26 L-17,32 L-17,49 L-14,60 L-7,69 L4,72 L15,73 L23,69 L30,61 L33,55 L35,40 L34,32 L30,22 L25,17 L22,14 Z " fill="#000000" transform="translate(195,1132)"/>
<path d="M0,0 L6,1 L8,7 L8,18 L5,24 L2,27 L-2,26 L-1,15 L-3,12 L-3,4 Z " fill="#000000" transform="translate(261,1132)"/>
<path d="M0,0 L8,0 L20,6 L26,14 L27,24 L25,33 L21,39 L13,48 L7,51 L-3,59 L-6,62 L-6,66 L2,68 L22,67 L26,69 L27,76 L23,80 L12,79 L5,78 L2,80 L-22,80 L-25,77 L-24,70 L-22,63 L-13,52 L-4,45 L8,37 L12,32 L13,29 L13,19 L9,12 L7,11 L0,11 L-7,15 L-11,23 L-14,28 L-18,31 L-23,29 L-24,25 L-21,13 L-17,7 L-9,2 Z " fill="#000000" transform="translate(373,1133)"/>
<path d="M0,0 L6,1 L10,7 L13,21 L19,46 L21,54 L26,53 L30,37 L34,25 L39,4 L42,1 L50,0 L52,1 L55,8 L57,20 L61,30 L65,48 L68,54 L72,55 L75,39 L81,19 L84,4 L88,0 L92,1 L94,3 L94,10 L92,16 L90,26 L83,50 L80,62 L76,77 L74,80 L65,81 L61,72 L56,52 L49,28 L48,24 L44,23 L41,35 L36,53 L32,67 L30,75 L26,80 L24,81 L18,81 L16,79 L11,59 L8,47 L4,33 L0,20 L-3,9 L-3,2 Z " fill="#000000" transform="translate(62,1134)"/>
<path d="M0,0 L7,0 L11,3 L10,9 L1,26 L-4,34 L-9,45 L-13,50 L-13,60 L-17,78 L-20,80 L-27,79 L-29,76 L-29,69 L-24,50 L-19,37 L-12,27 L-7,17 L-8,14 L-10,13 L-23,13 L-28,12 L-35,13 L-39,9 L-38,2 L-37,1 Z " fill="#000000" transform="translate(326,1133)"/>
</svg>
