<?xml version="1.0" encoding="UTF-8"?>
<!-- Generator: visioncortex VTracer 0.6.12 -->
<svg version="1.1" xmlns="http://www.w3.org/2000/svg" width="1146" height="1110">
<path d="M0,0 L22,0 L20,5 L19,14 L17,103 L15,173 L14,419 L13,495 L12,600 L11,686 L11,705 L10,730 L10,778 L9,801 L9,827 L8,875 L8,1006 L7,1061 L7,1099 L9,1104 L12,1106 L71,1106 L288,1107 L309,1108 L310,1110 L-10,1110 L-11,1103 L-10,1047 L-10,1020 L-8,935 L-7,829 L-6,766 L-5,741 L-5,690 L-4,593 L-4,552 L-3,467 L-2,412 L-1,403 L-2,395 L-1,250 L1,95 L1,32 Z " fill="#000000" transform="translate(13,0)"/>
<path d="M0,0 L2,1 Z " fill="#000000" transform="translate(265,0)"/>
<path d="M0,0 L6,0 L6,1 L0,1 Z " fill="#000000" transform="translate(298,0)"/>
<path d="M0,0 L7,0 L7,1 L0,1 Z " fill="#000000" transform="translate(333,0)"/>
<path d="M0,0 L18,0 L17,2 L2,2 Z " fill="#000000" transform="translate(361,0)"/>
<path d="M0,0 L755,0 L755,668 L754,670 L755,672 L755,844 L754,848 L754,855 L755,859 L755,869 L754,878 L755,880 L755,887 L754,889 L753,931 L753,984 L752,1110 L736,1110 L737,1095 L737,977 L738,963 L739,953 L739,882 L740,807 L740,772 L742,631 L743,511 L744,465 L744,418 L745,380 L745,357 L747,195 L748,145 L748,12 L745,7 L716,6 L665,6 L653,5 L611,5 L596,6 L580,6 L538,5 L533,6 L510,4 L501,4 L491,5 L481,5 L470,4 L284,4 L153,3 L78,3 L47,2 L6,2 L0,1 Z " fill="#000000" transform="translate(391,0)"/>
<path d="M0,0 L131,0 L180,1 L235,1 L261,2 L265,4 L271,4 L274,2 L395,2 L399,3 L490,3 L519,4 L610,4 L614,3 L876,3 L886,2 L892,3 L912,3 L914,5 L913,9 L908,13 L900,20 L888,30 L883,35 L868,49 L858,58 L853,63 L841,72 L831,81 L821,89 L812,97 L804,104 L789,117 L781,124 L772,131 L763,138 L756,144 L751,150 L742,157 L732,165 L723,173 L721,173 L719,177 L703,190 L693,199 L682,207 L673,215 L665,222 L657,229 L647,237 L636,246 L627,254 L616,263 L607,271 L599,278 L591,284 L580,294 L571,300 L566,305 L556,314 L544,323 L535,331 L529,336 L525,341 L516,346 L511,352 L500,360 L489,370 L481,376 L471,385 L458,395 L452,396 L441,388 L426,375 L415,366 L410,361 L406,359 L401,353 L393,346 L377,333 L366,323 L349,310 L340,301 L329,292 L319,284 L311,277 L303,270 L293,261 L285,254 L274,245 L273,242 L268,240 L260,233 L248,222 L239,215 L234,210 L227,204 L227,202 L223,200 L210,189 L197,178 L186,168 L180,164 L180,162 L176,160 L171,155 L160,146 L153,140 L153,138 L149,136 L135,124 L124,115 L114,107 L109,102 L103,98 L98,93 L90,85 L82,79 L68,66 L60,59 L50,51 L45,47 L40,42 L33,36 L27,31 L20,23 L14,19 L-1,5 Z M354,56 L343,58 L340,62 L339,65 L339,85 L341,91 L348,94 L393,94 L405,95 L431,94 L438,95 L468,95 L481,96 L498,95 L564,95 L571,93 L574,87 L575,83 L575,66 L571,60 L567,58 L533,57 L504,57 L433,56 Z M346,125 L341,128 L339,131 L338,146 L340,157 L342,160 L354,162 L394,163 L420,163 L433,164 L436,170 L436,256 L437,280 L442,286 L452,287 L462,287 L470,285 L473,279 L474,272 L474,235 L475,213 L476,170 L478,165 L480,164 L508,164 L566,163 L572,159 L574,155 L574,136 L571,129 L568,127 L558,126 L487,125 Z " fill="#000000" transform="translate(124,218)"/>
<path d="M0,0 L5,3 L17,14 L24,20 L27,22 L27,24 L31,26 L40,33 L51,43 L65,54 L73,62 L79,66 L90,76 L98,83 L108,92 L122,103 L130,111 L138,117 L152,129 L162,138 L167,142 L172,147 L180,153 L193,165 L207,176 L215,183 L223,190 L235,200 L243,207 L249,214 L254,219 L264,227 L274,235 L284,244 L297,255 L297,257 L303,259 L313,268 L324,277 L331,284 L337,289 L342,294 L345,297 L345,302 L337,312 L328,318 L319,326 L309,334 L300,342 L289,351 L279,360 L270,367 L262,374 L256,378 L244,390 L236,396 L230,400 L225,405 L217,412 L209,419 L197,429 L189,436 L180,443 L172,450 L164,457 L154,465 L145,471 L140,477 L126,488 L112,499 L102,508 L87,521 L76,530 L63,541 L50,551 L48,551 L46,555 L32,566 L19,577 L8,586 L-1,593 L-6,592 L-7,591 L-7,445 L-6,371 L-6,295 L-5,168 L-5,102 L-4,27 L-3,8 L-1,1 Z " fill="#000000" transform="translate(115,299)"/>
<path d="M0,0 L4,1 L5,2 L5,33 L6,99 L6,152 L5,218 L4,227 L4,253 L3,269 L4,280 L4,309 L2,459 L2,510 L1,561 L0,588 L-2,593 L-7,592 L-18,582 L-29,573 L-35,567 L-35,565 L-39,563 L-47,556 L-60,545 L-74,533 L-85,524 L-93,517 L-102,509 L-110,502 L-122,493 L-137,479 L-145,473 L-156,464 L-164,458 L-164,456 L-168,454 L-180,443 L-191,435 L-198,428 L-201,426 L-201,424 L-205,422 L-212,416 L-223,407 L-233,398 L-241,391 L-252,382 L-262,373 L-267,369 L-275,362 L-285,353 L-293,347 L-304,337 L-313,330 L-318,325 L-332,313 L-342,305 L-345,300 L-345,295 L-338,288 L-329,281 L-324,276 L-314,267 L-303,258 L-293,249 L-285,243 L-275,234 L-264,225 L-257,219 L-250,213 L-245,208 L-232,198 L-222,189 L-208,178 L-201,171 L-191,163 L-178,152 L-167,143 L-152,130 L-149,129 L-147,125 L-137,117 L-126,108 L-113,97 L-102,88 L-97,84 L-89,77 L-78,67 L-67,58 L-60,52 L-52,45 L-42,37 L-37,32 L-23,20 L-12,10 L-7,7 L-2,1 Z " fill="#000000" transform="translate(1042,301)"/>
<path d="M0,0 L6,0 L19,10 L29,19 L37,25 L49,36 L61,45 L66,49 L73,50 L82,44 L94,34 L105,25 L116,16 L121,11 L135,0 L142,0 L153,9 L158,14 L171,25 L178,32 L188,40 L198,47 L203,52 L211,59 L222,68 L237,81 L246,89 L257,98 L267,107 L276,114 L281,119 L292,127 L292,129 L296,131 L301,136 L314,146 L324,154 L329,159 L343,172 L354,180 L364,190 L376,199 L389,211 L400,220 L411,229 L423,240 L437,252 L438,257 L437,258 L417,259 L235,260 L206,259 L204,258 L198,258 L196,259 L169,260 L144,260 L38,259 L-41,259 L-52,258 L-267,258 L-299,257 L-301,253 L-296,248 L-287,240 L-279,234 L-264,221 L-254,213 L-244,204 L-235,197 L-221,185 L-211,177 L-209,177 L-207,173 L-198,165 L-190,158 L-185,154 L-176,147 L-162,135 L-155,129 L-144,120 L-132,109 L-124,102 L-114,93 L-109,89 L-98,81 L-93,75 L-79,65 L-75,60 L-66,54 L-52,42 L-42,34 L-35,28 L-21,17 L-14,10 L-2,1 Z " fill="#000000" transform="translate(507,641)"/>
<path d="M0,0 L7,0 L9,2 L-2,2 Z " fill="#000000" transform="translate(335,1108)"/>
<path d="M0,0 L34,0 L35,2 L-1,2 Z " fill="#000000" transform="translate(352,1108)"/>
<path d="M0,0 L27,0 L29,2 L-1,2 Z " fill="#000000" transform="translate(401,1108)"/>
<path d="M0,0 L16,0 L23,1 L23,2 L-2,2 Z " fill="#000000" transform="translate(436,1108)"/>
<path d="M0,0 Z " fill="#000000" transform="translate(493,1109)"/>
<path d="M0,0 L2,1 Z " fill="#000000" transform="translate(516,1109)"/>
<path d="M0,0 L6,0 L6,1 L0,1 Z " fill="#000000" transform="translate(549,1109)"/>
</svg>
