<?xml version="1.0" encoding="UTF-8"?>
<!-- Generator: visioncortex VTracer 0.6.12 -->
<svg version="1.1" xmlns="http://www.w3.org/2000/svg" width="1032" height="993">
<path d="M0,0 L472,0 L473,5 L477,4 L478,0 L590,0 L590,32 L592,130 L593,171 L593,195 L596,311 L598,395 L598,428 L599,457 L599,481 L600,516 L602,578 L602,596 L604,662 L605,732 L606,761 L607,762 L607,984 L600,987 L577,987 L505,988 L482,989 L474,990 L440,990 L376,991 L355,991 L322,993 L284,993 L283,992 L277,992 L276,993 L-416,993 L-417,977 L-418,971 L-419,954 L-420,890 L-422,816 L-423,756 L-424,719 L-425,715 L-425,707 L-423,707 L-424,692 L-425,691 L-425,9 L-419,8 L-385,7 L-379,5 L-365,7 L-344,7 L-319,6 L-248,6 L-236,4 L-231,3 L-227,5 L-192,5 L-167,4 L-102,3 L-78,2 L-26,2 L-2,1 Z M274,151 L265,154 L257,157 L247,160 L231,165 L217,169 L209,173 L199,176 L189,180 L185,182 L178,183 L166,188 L149,194 L137,199 L131,199 L122,204 L102,212 L89,217 L80,220 L71,223 L56,227 L44,233 L27,238 L19,242 L10,245 L-4,250 L-14,252 L-18,255 L-29,260 L-38,261 L-48,266 L-54,268 L-63,272 L-72,275 L-79,278 L-86,279 L-90,282 L-102,286 L-114,291 L-124,293 L-132,297 L-145,298 L-151,303 L-164,308 L-186,315 L-204,321 L-213,325 L-218,327 L-227,329 L-232,332 L-245,336 L-261,342 L-268,344 L-280,350 L-287,352 L-292,355 L-294,361 L-292,372 L-289,382 L-285,392 L-282,403 L-275,422 L-265,451 L-261,465 L-261,471 L-266,474 L-296,474 L-330,475 L-340,476 L-345,479 L-347,482 L-348,491 L-348,505 L-347,524 L-346,535 L-347,545 L-347,588 L-345,652 L-344,695 L-344,726 L-342,745 L-340,750 L-335,753 L-326,753 L-313,754 L-258,754 L-196,753 L-156,753 L-151,754 L-144,753 L-130,753 L-115,752 L-83,751 L-53,751 L-48,752 L-44,751 L-13,751 L-11,750 L10,750 L16,749 L25,749 L37,750 L43,749 L79,749 L85,748 L101,749 L104,748 L112,748 L123,749 L126,748 L138,748 L143,747 L176,746 L193,745 L201,746 L248,746 L274,745 L297,745 L373,744 L382,743 L385,744 L415,744 L424,743 L463,743 L467,742 L488,742 L509,741 L514,739 L520,723 L520,643 L519,616 L519,570 L518,561 L517,503 L517,481 L514,468 L511,465 L501,463 L485,462 L482,463 L454,463 L445,464 L425,464 L395,463 L389,458 L385,448 L379,433 L374,416 L367,396 L358,372 L350,348 L346,334 L342,325 L337,312 L331,292 L327,282 L324,272 L318,255 L313,240 L308,224 L299,199 L295,191 L291,178 L285,161 L278,152 Z M-133,870 L-134,871 L-134,879 L-130,876 L-129,870 Z " fill="#000000" transform="translate(425,0)"/>
<path d="M0,0 L5,1 L5,7 L-3,18 L-8,24 L-13,29 L-18,35 L-24,43 L-32,54 L-39,62 L-48,73 L-56,84 L-62,92 L-69,98 L-74,107 L-81,114 L-89,125 L-96,133 L-101,138 L-112,153 L-122,166 L-129,174 L-136,183 L-146,196 L-155,207 L-162,215 L-168,219 L-178,219 L-190,216 L-199,215 L-206,213 L-216,211 L-231,208 L-244,206 L-262,202 L-283,197 L-298,195 L-303,193 L-320,190 L-333,187 L-342,185 L-345,184 L-356,183 L-381,177 L-405,171 L-425,168 L-428,166 L-437,165 L-439,163 L-438,159 L-426,153 L-405,146 L-401,144 L-394,142 L-387,140 L-369,133 L-357,130 L-350,126 L-344,124 L-331,119 L-319,115 L-309,112 L-292,105 L-284,103 L-270,97 L-261,95 L-246,87 L-231,82 L-213,76 L-204,74 L-197,70 L-182,65 L-174,63 L-156,56 L-146,52 L-141,50 L-134,49 L-130,46 L-118,43 L-107,39 L-89,32 L-73,26 L-55,20 L-45,16 L-36,12 L-26,9 L-17,6 Z " fill="#000000" transform="translate(655,231)"/>
<path d="M0,0 L5,1 L10,11 L15,22 L18,32 L22,43 L25,48 L29,64 L34,77 L39,88 L43,101 L47,109 L50,125 L53,130 L58,144 L65,163 L72,184 L74,187 L79,205 L81,215 L87,227 L91,239 L94,248 L94,255 L90,260 L81,263 L70,267 L55,274 L37,279 L28,283 L15,288 L-2,293 L-10,297 L-20,300 L-37,306 L-55,312 L-64,315 L-70,318 L-81,321 L-96,327 L-112,332 L-128,338 L-140,343 L-161,350 L-179,357 L-195,362 L-206,366 L-216,370 L-233,375 L-241,378 L-252,382 L-261,383 L-289,384 L-305,383 L-323,384 L-352,384 L-359,385 L-372,384 L-378,381 L-382,375 L-387,360 L-392,347 L-396,335 L-403,317 L-408,298 L-413,288 L-418,276 L-421,267 L-425,255 L-428,248 L-431,235 L-436,225 L-438,217 L-441,207 L-445,199 L-450,182 L-454,170 L-453,165 L-450,161 L-441,161 L-425,165 L-411,168 L-399,170 L-383,174 L-366,176 L-355,179 L-339,182 L-328,186 L-319,187 L-317,188 L-303,190 L-283,194 L-272,197 L-271,198 L-245,201 L-238,203 L-232,204 L-218,208 L-204,210 L-199,212 L-190,212 L-186,213 L-176,213 L-166,200 L-160,193 L-155,188 L-151,184 L-146,176 L-144,176 L-142,172 L-134,162 L-126,153 L-119,142 L-111,134 L-105,126 L-93,113 L-86,103 L-81,97 L-77,93 L-73,87 L-71,87 L-69,82 L-61,74 L-55,64 L-51,60 L-49,60 L-47,56 L-36,42 L-29,34 L-17,22 L-12,13 L-5,6 Z " fill="#000000" transform="translate(688,305)"/>
<path d="M0,0 L26,0 L31,4 L33,11 L34,43 L34,85 L35,98 L35,129 L34,151 L30,156 L27,157 L-13,157 L-19,156 L-22,157 L-46,157 L-50,158 L-66,158 L-76,159 L-86,158 L-88,159 L-120,159 L-161,160 L-173,159 L-200,159 L-201,154 L-192,150 L-179,146 L-161,138 L-145,133 L-144,132 L-135,131 L-126,127 L-118,124 L-105,119 L-88,113 L-69,106 L-60,104 L-57,102 L-45,99 L-34,94 L-20,90 L-13,87 L-8,85 L2,83 L10,79 L12,76 L12,66 L4,44 L-4,20 L-7,11 L-7,4 L-4,1 Z " fill="#000000" transform="translate(848,525)"/>
<path d="M0,0 L31,0 L35,5 L43,26 L45,32 L51,49 L55,58 L58,68 L62,78 L69,98 L73,111 L80,130 L83,140 L81,153 L79,154 L56,155 L-12,155 L-16,149 L-17,46 L-18,10 L-15,3 L-13,1 L-4,1 Z " fill="#000000" transform="translate(157,536)"/>
</svg>
