<?xml version="1.0" encoding="UTF-8"?>
<!-- Generator: visioncortex VTracer 0.6.12 -->
<svg version="1.1" xmlns="http://www.w3.org/2000/svg" width="582" height="942">
<path d="M0,0 L13,0 L35,3 L52,6 L60,10 L66,15 L75,29 L82,41 L87,50 L92,54 L94,55 L107,54 L114,52 L130,50 L139,50 L146,53 L148,57 L148,65 L144,69 L137,69 L134,71 L101,76 L94,81 L92,107 L90,119 L85,131 L78,142 L70,150 L60,157 L49,162 L38,165 L12,165 L-4,161 L-17,154 L-32,140 L-40,127 L-46,113 L-50,104 L-51,102 L-60,100 L-78,103 L-93,104 L-98,101 L-101,98 L-100,92 L-96,87 L-68,81 L-57,80 L-51,78 L-48,63 L-45,34 L-39,25 L-27,14 L-10,4 Z M55,82 L42,85 L29,86 L17,88 L-5,91 L-21,95 L-25,99 L-26,108 L-23,118 L-14,132 L-9,137 L-4,141 L11,147 L15,148 L25,148 L41,145 L51,140 L65,126 L73,110 L73,95 L71,87 L67,82 Z " fill="#000000" transform="translate(275,29)"/>
<path d="M0,0 L8,0 L23,3 L38,11 L47,18 L57,27 L63,35 L73,48 L79,56 L86,67 L92,79 L98,96 L101,108 L103,123 L105,152 L103,157 L102,160 L105,164 L106,171 L106,185 L104,230 L103,236 L103,255 L105,282 L106,289 L107,303 L110,331 L112,337 L114,358 L119,380 L127,407 L139,443 L150,472 L155,490 L163,514 L171,540 L180,560 L186,576 L195,597 L199,604 L202,611 L215,628 L218,631 L221,632 L241,632 L270,627 L293,627 L298,630 L301,635 L300,644 L297,649 L293,654 L282,662 L264,673 L253,681 L242,688 L226,697 L220,700 L205,711 L195,716 L185,719 L177,719 L166,713 L160,705 L157,700 L155,695 L147,683 L139,666 L131,650 L127,641 L119,625 L112,610 L106,598 L97,581 L91,572 L83,556 L74,539 L62,519 L55,507 L50,498 L42,485 L37,473 L25,451 L19,443 L12,440 L4,444 L-3,453 L-7,458 L-15,469 L-24,481 L-35,495 L-43,506 L-55,522 L-61,529 L-68,537 L-75,546 L-88,562 L-95,571 L-103,583 L-109,591 L-120,608 L-129,621 L-137,634 L-139,639 L-138,647 L-129,659 L-124,664 L-111,676 L-102,684 L-91,692 L-87,698 L-86,703 L-88,710 L-94,715 L-104,715 L-117,711 L-133,707 L-160,696 L-180,687 L-200,677 L-210,671 L-213,666 L-221,665 L-224,661 L-225,643 L-223,625 L-220,618 L-210,603 L-200,588 L-189,570 L-183,560 L-176,548 L-166,533 L-161,525 L-155,513 L-145,496 L-137,483 L-130,471 L-118,450 L-112,438 L-103,419 L-97,409 L-89,393 L-82,381 L-76,364 L-71,354 L-70,347 L-77,336 L-82,326 L-85,315 L-88,286 L-88,272 L-85,238 L-82,213 L-75,185 L-70,164 L-63,139 L-60,131 L-56,119 L-49,100 L-44,87 L-40,78 L-33,61 L-27,47 L-18,30 L-8,9 L-3,2 Z M11,27 L6,32 L2,38 L1,42 L1,49 L5,54 L16,60 L21,64 L28,68 L38,76 L47,82 L57,90 L64,95 L69,93 L69,85 L65,74 L59,65 L51,53 L43,42 L32,33 L24,28 L20,27 Z M-33,132 L-37,134 L-40,138 L-43,147 L-46,156 L-51,177 L-54,184 L-58,204 L-57,211 L-55,211 L-55,213 L-59,215 L-62,227 L-65,254 L-66,290 L-64,308 L-61,319 L-57,324 L-50,325 L-42,319 L-37,306 L-31,280 L-27,261 L-24,245 L-19,228 L-15,212 L-3,176 L4,157 L4,150 L1,145 L-7,139 L-22,133 L-26,132 Z M3,247 L-2,252 L-3,255 L-3,266 L3,270 L40,271 L64,271 L75,270 L79,266 L79,257 L75,253 L66,250 L42,247 Z M-73,415 L-78,419 L-92,444 L-102,466 L-108,476 L-114,486 L-117,493 L-117,501 L-112,507 L-103,513 L-94,520 L-85,521 L-79,518 L-70,507 L-61,495 L-54,484 L-45,473 L-37,461 L-30,452 L-28,447 L-28,440 L-35,432 L-42,426 L-63,417 L-67,415 Z M93,419 L81,422 L62,429 L51,433 L48,438 L49,447 L53,457 L61,473 L69,489 L80,510 L86,521 L92,530 L98,537 L100,538 L107,538 L117,533 L125,530 L135,524 L138,520 L139,511 L135,495 L129,476 L123,459 L117,444 L112,432 L107,422 L102,419 Z " fill="#000000" transform="translate(254,197)"/>
</svg>
