<?xml version="1.0" encoding="UTF-8"?>
<!-- Generator: visioncortex VTracer 0.6.12 -->
<svg version="1.1" xmlns="http://www.w3.org/2000/svg" width="951" height="1245">
<path d="M0,0 L10,1 L28,9 L36,13 L48,17 L55,20 L62,23 L91,37 L106,43 L113,47 L115,50 L114,59 L111,69 L108,77 L108,85 L113,89 L127,97 L130,101 L129,106 L125,110 L119,111 L111,109 L103,109 L99,113 L95,122 L89,131 L80,143 L62,155 L47,161 L40,162 L19,162 L2,157 L-12,149 L-25,138 L-32,128 L-36,119 L-40,109 L-41,101 L-41,80 L-37,64 L-36,62 L-36,52 L-41,48 L-51,42 L-56,37 L-56,27 L-53,23 L-47,23 L-38,29 L-28,33 L-22,32 L-18,29 L-16,20 L-10,10 L-8,10 L-6,5 Z M-17,62 L-22,66 L-26,77 L-27,84 L-27,99 L-23,114 L-16,125 L-11,129 L-7,134 L7,142 L19,146 L38,146 L52,142 L63,136 L73,128 L81,117 L83,112 L82,107 L74,100 L53,89 L43,84 L19,73 L-2,65 L-10,62 Z " fill="#000000" transform="translate(192,57)"/>
<path d="M0,0 L6,1 L11,6 L16,16 L24,40 L32,78 L36,96 L38,122 L39,144 L43,196 L43,210 L44,236 L44,245 L45,256 L45,273 L46,279 L48,335 L52,385 L57,411 L60,427 L64,449 L68,469 L73,495 L76,510 L82,549 L83,552 L85,570 L91,601 L93,610 L95,626 L100,652 L103,674 L105,680 L107,696 L109,707 L115,743 L117,753 L121,769 L126,793 L129,806 L129,832 L127,860 L125,906 L124,918 L122,971 L119,979 L114,981 L94,981 L72,977 L62,976 L58,974 L55,962 L49,936 L46,920 L42,904 L37,883 L33,870 L24,828 L20,812 L16,795 L10,772 L5,754 L1,734 L-5,715 L-10,687 L-15,669 L-18,651 L-23,651 L-26,658 L-31,671 L-35,682 L-40,700 L-42,708 L-46,718 L-50,734 L-52,744 L-56,761 L-60,774 L-65,793 L-68,807 L-71,815 L-73,826 L-80,854 L-85,869 L-93,900 L-96,908 L-102,933 L-104,942 L-107,949 L-112,966 L-114,978 L-119,984 L-121,985 L-179,984 L-195,981 L-201,978 L-203,976 L-203,967 L-198,944 L-192,907 L-187,883 L-184,867 L-180,846 L-178,829 L-175,813 L-172,793 L-167,762 L-159,727 L-154,694 L-151,681 L-145,649 L-143,639 L-139,621 L-135,598 L-132,583 L-130,571 L-127,557 L-122,519 L-117,495 L-115,485 L-111,451 L-112,440 L-117,409 L-118,393 L-119,363 L-121,339 L-122,313 L-123,237 L-121,210 L-115,176 L-110,151 L-103,122 L-95,101 L-86,82 L-79,72 L-68,56 L-62,48 L-60,48 L-60,46 L-55,41 L-50,36 L-42,27 L-32,19 L-24,13 L-14,6 Z M-73,474 L-76,478 L-78,484 L-81,505 L-82,516 L-83,519 L-84,535 L-84,547 L-82,555 L-79,561 L-69,568 L-55,574 L-44,576 L-35,576 L-24,572 L-17,564 L-15,556 L-18,553 L-31,551 L-37,547 L-39,534 L-39,527 L-34,513 L-31,504 L-32,496 L-42,487 L-53,479 L-65,474 Z " fill="#000000" transform="translate(256,223)"/>
<path d="M0,0 L21,0 L38,5 L50,12 L63,26 L70,36 L74,44 L81,67 L81,78 L78,93 L74,105 L66,119 L59,128 L55,131 L53,131 L53,133 L43,139 L33,144 L25,147 L18,148 L0,148 L-16,144 L-28,139 L-39,131 L-47,124 L-58,101 L-61,90 L-62,77 L-61,64 L-57,48 L-53,38 L-50,31 L-43,23 L-35,16 L-20,6 L-13,3 Z M-15,40 L-34,43 L-40,47 L-44,53 L-47,68 L-47,83 L-44,95 L-39,107 L-30,118 L-20,124 L-10,129 L1,132 L18,131 L31,127 L42,121 L49,115 L58,103 L62,95 L63,86 L60,83 L58,82 L26,81 L17,75 L8,70 L4,67 L1,66 L-12,65 L-15,64 L-14,55 L-9,44 L-13,40 Z " fill="#000000" transform="translate(707,297)"/>
<path d="M0,0 L9,0 L20,7 L24,12 L31,23 L41,39 L46,47 L54,63 L60,80 L65,94 L72,125 L75,141 L78,150 L81,164 L83,172 L86,199 L88,222 L90,236 L92,270 L94,291 L96,346 L95,400 L93,444 L90,474 L88,487 L87,490 L79,493 L45,495 L25,495 L-5,497 L-14,498 L-39,498 L-42,499 L-44,508 L-46,554 L-48,635 L-49,646 L-49,661 L-50,686 L-51,739 L-52,767 L-53,780 L-56,786 L-58,787 L-67,787 L-76,786 L-141,785 L-174,784 L-249,783 L-273,782 L-276,780 L-276,775 L-269,768 L-263,766 L-199,766 L-168,767 L-153,767 L-142,768 L-76,768 L-72,766 L-70,762 L-69,743 L-67,671 L-65,601 L-62,539 L-60,484 L-58,400 L-57,369 L-57,355 L-58,340 L-61,336 L-70,335 L-122,335 L-243,334 L-344,333 L-351,336 L-353,340 L-354,367 L-355,428 L-356,456 L-357,537 L-359,693 L-360,731 L-360,757 L-358,762 L-353,764 L-315,765 L-310,770 L-310,778 L-313,781 L-322,782 L-367,782 L-373,779 L-376,774 L-379,763 L-379,745 L-378,699 L-377,676 L-376,670 L-376,618 L-374,534 L-374,521 L-373,499 L-373,449 L-371,384 L-370,321 L-365,316 L-354,315 L-338,316 L-273,316 L-248,317 L-229,317 L-220,316 L-218,315 L-219,308 L-226,294 L-228,286 L-227,275 L-222,260 L-212,243 L-201,233 L-191,229 L-183,227 L-176,227 L-162,232 L-157,235 L-149,234 L-138,229 L-110,224 L-102,220 L-99,219 L-96,210 L-89,178 L-86,165 L-82,150 L-73,119 L-69,109 L-65,97 L-59,82 L-54,72 L-47,58 L-39,44 L-32,34 L-26,25 L-17,14 L-7,3 Z M-182,245 L-194,251 L-203,262 L-207,272 L-209,281 L-207,291 L-203,298 L-201,298 L-201,300 L-196,302 L-183,304 L-174,304 L-171,301 L-170,294 L-168,273 L-165,264 L-164,254 L-169,247 L-174,245 Z " fill="#000000" transform="translate(772,430)"/>
<path d="M0,0 L6,0 L11,4 L12,7 L12,20 L7,57 L5,66 L3,94 L0,129 L-1,136 L-4,187 L-7,198 L-7,220 L-8,226 L-10,280 L-11,294 L-13,351 L-14,374 L-16,419 L-17,428 L-20,526 L-23,591 L-25,610 L-27,614 L-29,615 L-38,615 L-42,611 L-43,609 L-44,595 L-44,573 L-43,568 L-40,508 L-40,489 L-38,414 L-37,396 L-37,377 L-36,357 L-36,348 L-34,333 L-33,312 L-32,290 L-31,274 L-29,257 L-25,191 L-22,158 L-20,124 L-18,99 L-16,84 L-14,61 L-10,33 L-8,17 L-6,8 Z " fill="#000000" transform="translate(911,598)"/>
<path d="M0,0 L37,1 L89,2 L174,2 L177,4 L176,11 L171,18 L169,19 L16,19 L12,23 L11,68 L10,85 L10,106 L8,196 L6,277 L4,311 L2,317 L-6,327 L-12,328 L-13,326 L-13,290 L-12,268 L-11,214 L-11,156 L-9,142 L-9,101 L-8,91 L-8,61 L-7,20 L-4,3 Z " fill="#000000" transform="translate(467,804)"/>
</svg>
