<?xml version="1.0" encoding="UTF-8"?>
<!-- Generator: visioncortex VTracer 0.6.12 -->
<svg version="1.1" xmlns="http://www.w3.org/2000/svg" width="588" height="1269">
<path d="M0,0 L8,0 L16,4 L25,12 L32,23 L39,38 L45,58 L49,86 L50,99 L50,126 L47,139 L44,149 L44,156 L49,161 L60,169 L71,176 L82,185 L92,193 L92,195 L94,195 L101,206 L104,211 L124,218 L135,226 L139,231 L149,247 L155,260 L164,292 L168,305 L175,329 L181,346 L190,375 L195,388 L198,398 L202,408 L208,426 L215,448 L219,465 L220,477 L220,495 L216,512 L208,527 L196,539 L180,547 L159,554 L153,555 L142,555 L133,553 L129,548 L126,539 L122,522 L121,518 L119,519 L119,531 L124,563 L128,584 L131,606 L132,630 L135,665 L134,675 L130,680 L128,681 L110,682 L103,684 L100,691 L97,721 L94,744 L94,759 L91,784 L90,797 L90,821 L91,828 L91,837 L87,845 L81,855 L81,864 L89,882 L88,891 L84,900 L79,907 L78,910 L78,935 L75,941 L70,945 L44,949 L13,951 L-25,951 L-30,947 L-31,945 L-32,935 L-33,810 L-33,754 L-34,732 L-34,712 L-35,693 L-37,684 L-39,682 L-47,682 L-49,686 L-50,698 L-50,735 L-49,817 L-49,935 L-50,945 L-54,949 L-57,950 L-101,950 L-140,944 L-153,942 L-164,939 L-167,936 L-168,932 L-167,913 L-173,896 L-178,885 L-178,876 L-174,867 L-172,859 L-172,851 L-179,836 L-180,826 L-177,815 L-176,799 L-181,761 L-183,733 L-186,705 L-188,687 L-190,682 L-193,680 L-199,679 L-224,679 L-233,676 L-236,674 L-237,668 L-236,636 L-233,610 L-231,600 L-229,584 L-224,563 L-221,544 L-221,542 L-228,544 L-233,547 L-254,547 L-272,541 L-283,535 L-293,526 L-304,512 L-311,492 L-313,482 L-312,454 L-309,436 L-305,424 L-301,410 L-293,391 L-287,378 L-280,363 L-274,348 L-266,332 L-262,323 L-257,311 L-249,295 L-244,283 L-237,269 L-231,254 L-227,246 L-224,239 L-219,231 L-211,223 L-200,216 L-186,212 L-181,207 L-178,201 L-168,192 L-162,188 L-154,181 L-143,173 L-134,166 L-125,158 L-119,154 L-115,150 L-114,143 L-121,123 L-125,113 L-128,101 L-130,86 L-131,72 L-131,58 L-127,44 L-122,32 L-115,26 L-106,23 L-92,20 L-82,14 L-64,6 L-50,3 L-39,2 L-11,3 Z M-31,67 L-55,72 L-70,78 L-82,85 L-88,92 L-91,99 L-93,110 L-92,126 L-87,140 L-79,152 L-64,163 L-53,168 L-36,171 L-24,170 L-12,167 L0,161 L10,153 L19,140 L23,131 L25,117 L25,109 L22,97 L16,83 L4,71 L-8,67 Z M-97,175 L-105,179 L-115,187 L-129,196 L-136,202 L-143,210 L-145,213 L-145,222 L-141,231 L-131,242 L-121,250 L-100,264 L-87,270 L-70,272 L-56,269 L-47,265 L-35,254 L-28,242 L-27,239 L-27,232 L-30,226 L-46,209 L-58,196 L-67,190 L-83,182 L-92,176 Z M16,181 L6,186 L-4,191 L-13,195 L-15,197 L-14,202 L-6,212 L0,219 L2,219 L2,221 L10,228 L19,237 L23,242 L31,249 L37,253 L40,254 L50,254 L59,251 L68,245 L74,236 L76,230 L75,223 L68,215 L56,205 L45,197 L32,186 L22,181 Z M18,425 L11,431 L11,439 L17,444 L24,445 L29,442 L31,438 L30,431 L25,426 Z M-88,427 L-95,430 L-98,435 L-97,441 L-92,447 L-90,448 L-84,448 L-78,444 L-76,438 L-79,432 L-83,428 Z M101,445 L99,450 L104,470 L107,479 L109,486 L112,487 L114,486 L113,474 L107,449 L104,445 Z M-201,477 L-205,482 L-216,512 L-216,519 L-212,518 L-209,513 L-207,504 L-199,485 L-198,478 Z M24,548 L18,553 L16,558 L17,566 L22,572 L24,573 L33,573 L39,568 L40,561 L37,554 L29,548 Z M-92,553 L-96,557 L-97,566 L-93,571 L-89,573 L-82,572 L-78,568 L-78,561 L-81,556 L-87,553 Z " fill="#000000" transform="translate(342,29)"/>
<path d="M0,0 L12,0 L17,1 L33,2 L44,4 L90,7 L96,10 L98,12 L100,21 L103,69 L103,92 L98,105 L98,115 L104,128 L105,131 L105,144 L102,152 L99,157 L99,167 L105,180 L105,197 L103,208 L100,211 L96,212 L61,212 L2,211 L-57,209 L-65,206 L-67,203 L-68,198 L-68,185 L-65,174 L-60,167 L-58,167 L-58,165 L-50,159 L-38,157 L-9,157 L1,154 L2,148 L-1,139 L-1,130 L3,124 L9,119 L10,112 L1,101 L-1,79 L-4,49 L-6,24 L-6,5 L-2,1 Z " fill="#000000" transform="translate(192,983)"/>
<path d="M0,0 L19,0 L24,3 L25,5 L25,15 L23,39 L19,73 L15,100 L8,111 L4,119 L6,126 L17,134 L20,138 L22,155 L26,156 L65,158 L83,164 L90,169 L98,180 L101,194 L101,202 L97,209 L95,210 L-2,210 L-58,209 L-63,205 L-67,192 L-69,182 L-75,169 L-75,159 L-70,147 L-68,143 L-68,127 L-72,119 L-76,113 L-77,109 L-77,101 L-74,91 L-74,80 L-76,57 L-75,14 L-72,6 L-66,3 L-31,2 Z " fill="#000000" transform="translate(389,987)"/>
</svg>
