<?xml version="1.0" encoding="UTF-8"?>
<!-- Generator: visioncortex VTracer 0.6.12 -->
<svg version="1.1" xmlns="http://www.w3.org/2000/svg" width="456" height="1071">
<path d="M0,0 L12,0 L21,2 L36,6 L49,13 L49,15 L52,16 L61,29 L70,43 L75,61 L75,83 L71,97 L63,111 L56,120 L52,124 L50,124 L49,127 L30,138 L21,141 L10,143 L-3,143 L-15,141 L-31,133 L-42,126 L-50,118 L-59,104 L-62,99 L-65,75 L-64,61 L-61,49 L-53,33 L-40,18 L-27,9 L-14,3 Z M-26,38 L-32,42 L-36,49 L-43,61 L-46,73 L-45,84 L-42,94 L-36,105 L-30,112 L-19,119 L-11,123 L0,125 L15,125 L28,120 L36,115 L46,105 L54,89 L55,85 L55,70 L52,63 L46,60 L22,54 L6,47 L-5,43 L-15,39 L-18,38 Z " fill="#000000" transform="translate(217,31)"/>
<path d="M0,0 L10,0 L19,1 L73,4 L89,10 L105,17 L116,26 L123,35 L129,44 L133,59 L135,73 L136,89 L137,122 L137,140 L135,193 L135,213 L131,253 L130,282 L127,303 L123,341 L123,367 L124,380 L124,391 L123,409 L120,425 L116,439 L111,452 L103,468 L98,481 L98,493 L100,506 L100,523 L103,556 L108,579 L109,594 L116,629 L118,650 L125,685 L128,699 L133,724 L135,740 L140,766 L145,788 L149,806 L154,831 L155,842 L156,850 L153,852 L127,854 L102,853 L51,853 L47,849 L40,820 L36,806 L29,780 L24,760 L19,745 L13,719 L8,697 L0,673 L-3,661 L-5,656 L-7,646 L-12,630 L-17,609 L-23,590 L-27,571 L-29,564 L-31,549 L-35,533 L-38,519 L-40,506 L-44,487 L-49,485 L-52,486 L-56,496 L-61,523 L-67,543 L-73,566 L-76,575 L-80,593 L-85,609 L-90,623 L-93,641 L-98,663 L-101,678 L-109,706 L-113,723 L-115,731 L-117,744 L-122,763 L-132,803 L-136,816 L-144,847 L-146,851 L-152,854 L-196,855 L-218,855 L-240,854 L-244,850 L-244,809 L-237,756 L-234,745 L-234,728 L-228,682 L-224,660 L-224,653 L-217,614 L-215,591 L-213,580 L-211,557 L-207,535 L-202,507 L-202,489 L-210,472 L-217,452 L-222,428 L-223,421 L-225,363 L-226,350 L-230,330 L-231,314 L-234,298 L-236,246 L-237,227 L-238,172 L-237,150 L-236,109 L-233,87 L-229,68 L-224,50 L-217,29 L-213,23 L-205,16 L-190,9 L-175,6 L-152,3 L-111,3 L-86,10 L-74,16 L-59,19 L-48,19 L-37,13 L-17,2 L-14,1 Z M26,22 L21,25 L18,29 L17,35 L16,51 L16,70 L17,82 L16,89 L16,130 L17,154 L20,166 L22,183 L22,193 L25,215 L28,235 L37,266 L40,277 L43,280 L48,279 L48,254 L54,187 L58,158 L60,140 L63,121 L64,109 L66,104 L69,104 L71,114 L71,159 L69,224 L67,257 L67,299 L66,310 L66,335 L71,343 L78,348 L88,350 L97,350 L101,346 L105,326 L109,306 L109,291 L112,259 L113,223 L115,197 L116,169 L117,162 L118,101 L117,79 L113,59 L105,46 L99,39 L89,32 L76,28 L52,24 L34,22 Z M-174,23 L-185,26 L-194,33 L-201,42 L-204,47 L-210,68 L-214,73 L-217,86 L-225,90 L-224,95 L-221,100 L-215,110 L-214,113 L-214,204 L-212,261 L-210,291 L-207,330 L-207,343 L-205,352 L-200,357 L-185,360 L-176,360 L-171,357 L-169,349 L-167,332 L-167,305 L-169,291 L-172,255 L-174,232 L-175,227 L-177,192 L-181,153 L-181,131 L-178,133 L-175,145 L-170,172 L-168,184 L-164,207 L-160,222 L-158,241 L-155,256 L-153,258 L-148,257 L-146,251 L-144,242 L-142,217 L-141,213 L-140,191 L-139,169 L-138,153 L-138,133 L-137,116 L-137,71 L-136,68 L-137,37 L-138,34 L-140,34 L-141,31 L-148,26 L-162,23 Z M-22,32 L-38,40 L-44,44 L-47,45 L-63,45 L-79,39 L-90,35 L-96,36 L-99,39 L-99,84 L-96,89 L-90,91 L-81,91 L-50,89 L-37,87 L-15,86 L-11,83 L-10,67 L-10,35 L-12,32 Z M90,378 L85,380 L84,382 L84,404 L87,421 L88,432 L91,438 L95,439 L98,436 L102,422 L104,409 L104,389 L102,382 L98,379 Z M-203,385 L-206,389 L-204,418 L-201,448 L-198,457 L-193,458 L-191,456 L-188,433 L-183,401 L-183,394 L-185,388 L-188,386 L-193,385 Z " fill="#000000" transform="translate(274,189)"/>
</svg>
