<?xml version="1.0" encoding="UTF-8"?>
<!-- Generator: visioncortex VTracer 0.6.12 -->
<svg version="1.1" xmlns="http://www.w3.org/2000/svg" width="498" height="1170">
<path d="M0,0 L14,1 L35,7 L46,13 L58,23 L65,31 L72,40 L79,54 L83,70 L84,74 L84,87 L83,103 L79,118 L75,126 L75,133 L79,137 L102,150 L116,158 L129,166 L139,171 L148,170 L158,162 L174,147 L186,137 L194,130 L199,125 L211,114 L218,107 L220,106 L226,106 L232,110 L242,120 L244,124 L242,134 L237,142 L225,175 L221,185 L213,205 L206,222 L202,231 L199,239 L193,252 L186,272 L180,286 L174,301 L170,316 L166,325 L166,334 L164,349 L160,365 L155,381 L153,385 L152,403 L149,414 L141,427 L131,442 L120,458 L117,466 L116,475 L119,491 L124,506 L128,526 L132,539 L135,550 L137,560 L142,583 L151,615 L156,631 L159,641 L166,668 L169,685 L174,714 L179,730 L181,739 L184,748 L187,762 L191,782 L194,799 L195,811 L196,849 L198,867 L198,881 L199,907 L199,928 L201,968 L202,979 L203,1025 L204,1032 L204,1046 L203,1049 L203,1058 L205,1066 L212,1074 L217,1081 L225,1088 L225,1090 L228,1091 L233,1096 L241,1107 L241,1112 L239,1113 L207,1113 L188,1111 L179,1107 L162,1100 L157,1097 L152,1098 L150,1107 L145,1110 L113,1108 L108,1103 L104,1087 L99,1057 L97,1032 L94,1007 L92,998 L88,967 L83,932 L81,925 L77,892 L72,865 L66,829 L64,814 L61,799 L57,786 L53,774 L47,758 L40,744 L33,730 L31,722 L26,722 L24,732 L24,744 L22,762 L20,815 L20,835 L18,879 L15,925 L15,943 L12,963 L11,998 L10,1005 L10,1017 L8,1066 L7,1079 L5,1095 L2,1100 L-7,1101 L-94,1101 L-98,1099 L-101,1087 L-102,1063 L-103,1037 L-107,986 L-108,976 L-109,953 L-110,939 L-110,871 L-111,868 L-111,781 L-112,751 L-111,736 L-112,712 L-113,698 L-114,671 L-115,658 L-116,632 L-117,620 L-118,555 L-119,538 L-120,530 L-120,519 L-123,510 L-124,509 L-150,509 L-160,506 L-171,500 L-180,493 L-187,484 L-195,470 L-196,464 L-196,444 L-195,419 L-194,409 L-194,373 L-195,361 L-195,324 L-197,278 L-198,272 L-198,251 L-195,221 L-190,200 L-185,191 L-176,181 L-169,177 L-153,169 L-144,168 L-102,167 L-78,169 L-61,172 L-48,178 L-42,177 L-38,169 L-38,161 L-54,149 L-63,139 L-72,126 L-76,116 L-80,103 L-81,92 L-81,83 L-79,65 L-75,53 L-71,47 L-67,37 L-57,25 L-55,25 L-53,21 L-46,15 L-25,5 Z M12,36 L9,40 L8,46 L5,49 L0,50 L-6,50 L-16,61 L-19,63 L-37,64 L-47,69 L-61,84 L-63,88 L-63,98 L-58,113 L-52,124 L-45,133 L-37,140 L-34,142 L-27,142 L-24,137 L-14,113 L-6,99 L-4,95 L1,94 L13,100 L17,103 L27,108 L35,113 L44,118 L49,121 L56,121 L62,114 L66,97 L66,79 L62,63 L57,53 L49,46 L36,41 L19,36 Z M4,122 L0,127 L-9,151 L-14,161 L-18,170 L-22,183 L-32,208 L-35,217 L-40,226 L-45,240 L-49,250 L-51,256 L-51,262 L-46,267 L-37,273 L-22,282 L-10,289 L-4,292 L2,296 L13,302 L17,304 L26,303 L35,297 L49,288 L55,284 L59,283 L77,283 L90,286 L92,287 L100,287 L105,279 L112,262 L117,248 L122,238 L127,224 L134,208 L135,204 L135,197 L131,192 L110,180 L97,172 L86,166 L75,160 L61,151 L53,145 L30,134 L9,122 Z M203,154 L192,163 L175,179 L166,188 L159,199 L152,215 L148,224 L140,244 L133,263 L128,274 L120,293 L118,298 L119,303 L122,304 L128,300 L137,292 L141,287 L147,283 L147,281 L149,281 L153,277 L161,270 L165,265 L169,255 L181,226 L189,206 L193,197 L199,179 L204,166 L207,159 L206,154 Z M79,295 L57,297 L48,300 L39,306 L26,319 L21,320 L17,319 L7,319 L5,322 L6,329 L11,339 L19,350 L27,358 L36,363 L48,363 L66,356 L74,350 L81,344 L87,332 L90,323 L90,305 L86,297 Z M140,313 L130,317 L122,323 L116,332 L107,349 L104,358 L108,363 L121,371 L127,374 L136,374 L143,366 L147,358 L151,342 L152,332 L152,317 L149,313 Z " fill="#000000" transform="translate(227,30)"/>
</svg>
