<?xml version="1.0" encoding="UTF-8"?>
<!-- Generator: visioncortex VTracer 0.6.12 -->
<svg version="1.1" xmlns="http://www.w3.org/2000/svg" width="888" height="1275">
<path d="M0,0 L18,0 L31,4 L44,9 L51,15 L58,23 L66,32 L74,46 L78,56 L81,75 L78,96 L74,109 L63,128 L53,137 L39,147 L20,154 L12,155 L-2,155 L-15,153 L-31,147 L-41,141 L-46,136 L-55,125 L-62,114 L-68,99 L-70,87 L-70,68 L-67,55 L-62,44 L-53,29 L-43,18 L-33,11 L-18,4 Z M-27,33 L-32,36 L-39,44 L-43,50 L-48,66 L-49,73 L-47,78 L-41,80 L-30,77 L-21,77 L-13,81 L-8,88 L-7,98 L-9,108 L-13,119 L-13,126 L-8,131 L-6,132 L15,132 L25,129 L35,124 L42,118 L51,106 L56,94 L57,89 L57,78 L53,72 L40,70 L22,68 L12,64 L2,58 L-8,49 L-16,38 L-23,33 Z " fill="#000000" transform="translate(278,29)"/>
<path d="M0,0 L15,1 L24,2 L52,2 L73,3 L112,4 L122,6 L127,10 L128,15 L125,22 L120,25 L112,26 L99,26 L56,24 L6,22 L-7,21 L-14,16 L-15,7 L-10,2 Z " fill="#000000" transform="translate(57,88)"/>
<path d="M0,0 L15,0 L20,4 L20,11 L15,16 L6,18 L-26,20 L-79,25 L-104,25 L-109,22 L-110,17 L-107,11 L-101,8 L-97,7 L-34,3 L-16,2 Z " fill="#000000" transform="translate(160,130)"/>
<path d="M0,0 L10,0 L15,3 L16,12 L11,17 L-1,21 L-24,25 L-44,28 L-57,31 L-74,34 L-96,39 L-110,42 L-120,42 L-125,37 L-124,30 L-118,25 L-94,19 L-84,16 L-43,9 L-25,4 L-7,2 Z " fill="#000000" transform="translate(176,163)"/>
<path d="M0,0 L22,0 L45,2 L59,5 L69,11 L79,23 L83,29 L89,36 L89,38 L98,38 L107,29 L118,14 L122,11 L138,11 L168,7 L174,6 L189,6 L211,9 L229,14 L244,19 L258,28 L268,35 L276,44 L280,50 L288,68 L290,73 L293,88 L294,99 L295,131 L298,167 L299,186 L301,200 L301,229 L300,281 L297,304 L292,318 L288,335 L285,340 L277,347 L264,353 L261,354 L243,353 L237,354 L237,370 L244,400 L246,410 L248,423 L253,454 L254,458 L256,482 L256,490 L260,517 L263,540 L264,544 L268,588 L271,614 L273,627 L276,666 L279,691 L283,723 L285,743 L289,760 L292,787 L296,808 L299,829 L301,852 L303,861 L307,887 L310,893 L313,908 L319,927 L323,937 L322,943 L317,947 L306,948 L250,948 L229,949 L206,948 L200,945 L195,936 L191,920 L187,897 L183,877 L178,856 L174,844 L170,826 L167,809 L161,784 L157,769 L152,759 L149,745 L147,730 L144,714 L142,701 L139,688 L135,678 L126,645 L121,628 L117,616 L110,583 L105,565 L102,555 L96,537 L92,522 L88,513 L83,513 L79,528 L71,564 L67,575 L65,587 L60,604 L55,623 L53,638 L49,654 L47,665 L41,686 L36,703 L33,712 L31,720 L27,731 L23,754 L16,782 L4,830 L-2,850 L-7,868 L-11,890 L-15,902 L-17,911 L-22,923 L-28,940 L-34,947 L-36,948 L-57,948 L-108,949 L-140,949 L-145,945 L-146,942 L-146,926 L-144,911 L-142,900 L-137,870 L-132,849 L-126,816 L-124,810 L-121,796 L-115,770 L-111,750 L-105,714 L-100,684 L-95,645 L-92,629 L-87,601 L-85,595 L-82,574 L-80,565 L-77,539 L-71,511 L-66,491 L-58,461 L-53,438 L-50,418 L-43,379 L-42,372 L-42,361 L-45,348 L-51,333 L-62,308 L-66,303 L-71,301 L-88,302 L-98,297 L-100,293 L-103,292 L-109,283 L-109,281 L-118,278 L-131,274 L-143,267 L-154,259 L-157,255 L-157,253 L-159,253 L-166,241 L-169,234 L-173,215 L-173,204 L-168,185 L-161,170 L-153,155 L-147,146 L-142,142 L-140,137 L-141,127 L-147,101 L-152,81 L-157,63 L-160,52 L-160,40 L-157,35 L-153,32 L-144,29 L-113,26 L-89,25 L-83,22 L-72,13 L-48,5 L-33,2 L-7,1 Z M-10,44 L-40,46 L-71,46 L-86,45 L-102,45 L-114,47 L-116,48 L-131,48 L-135,51 L-135,64 L-130,82 L-126,98 L-121,116 L-114,143 L-110,159 L-106,168 L-100,172 L-90,172 L-77,170 L-72,168 L-65,168 L-59,171 L-58,172 L-58,185 L-61,199 L-65,216 L-71,235 L-76,247 L-82,264 L-82,274 L-79,277 L-76,278 L-43,278 L-12,277 L-5,276 L41,276 L59,272 L62,269 L63,263 L60,253 L55,247 L36,238 L24,227 L15,216 L1,191 L-1,185 L-1,178 L2,172 L11,166 L26,162 L42,162 L47,160 L49,157 L49,143 L45,117 L42,86 L39,57 L36,50 L31,46 L2,45 Z M81,151 L78,154 L77,166 L73,174 L68,178 L59,180 L32,177 L24,176 L20,178 L19,184 L27,200 L33,208 L43,216 L61,224 L73,228 L85,230 L93,230 L99,225 L104,217 L106,211 L106,188 L102,168 L98,159 L88,151 Z M-138,169 L-142,172 L-149,187 L-151,196 L-151,220 L-147,230 L-137,244 L-128,252 L-124,254 L-117,254 L-112,250 L-107,245 L-97,239 L-92,233 L-88,225 L-85,213 L-83,201 L-83,193 L-87,188 L-97,187 L-125,185 L-129,184 L-132,171 Z " fill="#000000" transform="translate(203,195)"/>
<path d="M0,0 L7,0 L16,1 L24,1 L31,2 L52,1 L54,5 L52,7 L47,6 L43,5 L38,12 L36,13 L10,13 L-6,14 L-109,14 L-112,15 L-160,14 L-168,16 L-185,15 L-260,15 L-321,16 L-385,16 L-553,17 L-661,17 L-778,18 L-787,17 L-789,16 L-807,16 L-807,8 L-623,6 L-471,6 L-469,7 L-459,7 L-449,8 L-438,6 L-435,8 L-411,8 L-403,6 L-396,7 L-394,8 L-368,8 L-363,7 L-361,8 L-331,8 L-326,7 L-315,7 L-313,8 L-307,8 L-302,7 L-296,8 L-246,8 L-242,5 L-234,6 L-229,7 L-222,6 L-215,6 L-205,5 L-199,7 L-158,7 L-151,6 L-138,6 L-131,7 L-110,4 L-105,8 L-98,7 L-93,5 L-86,3 L-73,2 L-58,2 L-54,5 L-36,1 L-26,3 L-24,2 L-14,2 L-12,3 L-6,3 Z " fill="#000000" transform="translate(807,1241)"/>
</svg>
