<?xml version="1.0" encoding="UTF-8"?>
<!-- Generator: visioncortex VTracer 0.6.12 -->
<svg version="1.1" xmlns="http://www.w3.org/2000/svg" width="1089" height="1269">
<path d="M0,0 L10,1 L20,4 L32,11 L40,19 L52,39 L58,62 L62,77 L62,100 L59,116 L51,139 L39,160 L34,166 L31,169 L29,169 L27,173 L19,179 L7,185 L2,186 L-13,186 L-24,182 L-37,174 L-49,160 L-57,148 L-62,139 L-66,130 L-71,116 L-76,112 L-85,113 L-93,117 L-99,117 L-104,113 L-103,106 L-97,101 L-91,98 L-88,97 L-88,95 L-86,95 L-84,91 L-81,80 L-78,68 L-71,54 L-62,40 L-55,31 L-47,24 L-33,14 L-16,6 L-5,2 Z M26,63 L11,68 L-5,76 L-26,85 L-40,93 L-48,97 L-51,100 L-51,108 L-48,120 L-43,132 L-34,148 L-26,157 L-15,164 L-2,166 L9,163 L21,152 L29,142 L37,124 L41,114 L42,109 L42,82 L39,72 L34,65 L30,63 Z " fill="#000000" transform="translate(567,33)"/>
<path d="M0,0 L45,1 L57,4 L63,7 L71,15 L76,23 L80,38 L81,55 L82,103 L83,135 L83,171 L84,196 L87,310 L88,380 L86,401 L80,428 L76,439 L72,449 L62,468 L55,479 L54,482 L54,497 L57,528 L60,548 L63,575 L65,587 L67,611 L69,627 L70,640 L74,661 L77,684 L79,707 L81,718 L83,738 L87,768 L90,798 L92,817 L95,838 L98,861 L101,892 L101,902 L98,909 L92,913 L84,914 L53,915 L-24,915 L-31,912 L-34,909 L-36,903 L-39,882 L-45,819 L-46,813 L-47,793 L-49,783 L-50,764 L-53,744 L-57,701 L-59,685 L-61,667 L-63,642 L-65,630 L-69,593 L-71,578 L-73,573 L-77,575 L-81,622 L-90,750 L-91,762 L-92,787 L-95,825 L-96,832 L-97,863 L-99,882 L-100,899 L-102,907 L-106,913 L-112,916 L-120,917 L-216,917 L-228,915 L-233,912 L-236,908 L-235,882 L-232,853 L-229,811 L-227,794 L-224,749 L-221,721 L-215,654 L-213,620 L-210,594 L-208,569 L-206,544 L-204,518 L-204,496 L-206,489 L-213,478 L-224,462 L-232,447 L-238,433 L-244,415 L-247,401 L-250,372 L-251,360 L-252,309 L-254,246 L-255,207 L-255,190 L-256,161 L-258,58 L-258,42 L-254,26 L-249,16 L-241,9 L-230,4 L-221,2 L-159,2 L-152,5 L-145,11 L-141,17 L-132,31 L-117,55 L-112,63 L-102,79 L-94,90 L-89,95 L-82,94 L-74,84 L-67,72 L-63,61 L-57,52 L-50,42 L-38,21 L-27,5 L-23,2 L-20,1 Z M47,375 L42,378 L39,383 L39,390 L40,393 L42,417 L45,431 L48,434 L53,433 L57,426 L61,412 L64,388 L62,380 L57,376 L55,375 Z M-214,377 L-220,380 L-224,391 L-224,400 L-221,414 L-216,426 L-212,436 L-207,443 L-202,444 L-199,441 L-197,432 L-195,404 L-195,386 L-199,380 L-206,377 Z " fill="#000000" transform="translate(653,236)"/>
<path d="M0,0 L37,0 L37,6 L-19,7 L-132,8 L-186,8 L-285,9 L-307,9 L-340,10 L-458,11 L-489,11 L-685,13 L-712,13 L-811,14 L-920,15 L-1016,16 L-1023,15 L-1023,11 L-1022,10 L-995,9 L-909,8 L-874,8 L-822,7 L-766,7 L-722,6 L-694,6 L-604,5 L-557,5 L-524,4 L-492,4 L-236,2 L-138,1 Z " fill="#000000" transform="translate(1052,1226)"/>
</svg>
