<?xml version="1.0" encoding="UTF-8"?>
<!-- Generator: visioncortex VTracer 0.6.12 -->
<svg version="1.1" xmlns="http://www.w3.org/2000/svg" width="1158" height="1230">
<path d="M0,0 L19,0 L33,3 L48,11 L62,23 L67,28 L77,42 L82,50 L84,61 L84,79 L81,95 L77,105 L70,117 L58,130 L51,136 L33,146 L11,150 L1,150 L-20,145 L-28,142 L-41,132 L-52,121 L-62,104 L-66,89 L-66,68 L-63,54 L-59,43 L-55,35 L-44,22 L-36,14 L-23,6 L-15,2 Z M-7,32 L-12,34 L-30,34 L-37,38 L-46,51 L-50,66 L-50,81 L-48,92 L-40,109 L-32,117 L-30,117 L-30,119 L-22,125 L-9,131 L1,133 L18,133 L29,130 L45,122 L56,111 L62,101 L66,93 L68,82 L68,68 L65,54 L58,41 L53,37 L50,36 L32,35 L9,32 Z " fill="#000000" transform="translate(395,29)"/>
<path d="M0,0 L7,0 L14,3 L14,9 L5,20 L2,31 L0,45 L0,62 L-2,85 L-1,106 L-1,172 L1,194 L3,203 L7,206 L23,213 L34,220 L48,230 L60,242 L73,262 L77,270 L83,295 L84,305 L84,323 L79,344 L74,356 L64,373 L55,383 L50,389 L39,398 L26,406 L11,413 L4,416 L3,419 L19,420 L49,420 L85,417 L116,416 L130,418 L133,422 L131,436 L127,439 L116,439 L110,437 L101,437 L87,438 L76,438 L57,440 L43,441 L-16,441 L-65,438 L-92,435 L-139,432 L-153,430 L-196,428 L-223,428 L-228,431 L-229,434 L-229,452 L-227,464 L-226,479 L-226,500 L-227,523 L-227,550 L-225,586 L-224,592 L-224,633 L-226,658 L-226,818 L-225,862 L-224,866 L-223,887 L-220,902 L-215,903 L-206,903 L-202,899 L-199,886 L-194,853 L-190,830 L-186,791 L-184,780 L-184,771 L-180,742 L-176,718 L-170,688 L-166,661 L-163,644 L-160,621 L-156,602 L-151,563 L-148,547 L-145,526 L-142,517 L-141,499 L-138,494 L-131,491 L-104,489 L-99,488 L-83,488 L-67,487 L-43,487 L-7,488 L31,489 L46,490 L86,490 L110,489 L114,488 L128,488 L131,491 L131,506 L127,509 L109,511 L53,511 L11,509 L2,508 L-18,508 L-29,507 L-70,506 L-107,507 L-123,510 L-127,512 L-129,517 L-133,531 L-137,560 L-139,570 L-141,599 L-147,634 L-150,653 L-152,670 L-153,673 L-155,694 L-157,704 L-159,717 L-162,731 L-166,758 L-168,778 L-169,796 L-173,827 L-177,856 L-179,882 L-180,908 L-183,914 L-192,920 L-197,922 L-214,923 L-229,923 L-235,920 L-238,917 L-243,902 L-245,854 L-245,837 L-244,821 L-244,795 L-243,761 L-243,697 L-242,659 L-239,625 L-239,600 L-241,584 L-242,562 L-242,544 L-240,505 L-240,482 L-241,469 L-241,448 L-238,417 L-233,412 L-227,409 L-203,407 L-151,408 L-131,410 L-82,414 L-72,414 L-70,413 L-72,409 L-82,403 L-96,393 L-101,389 L-107,382 L-107,380 L-109,380 L-116,370 L-124,355 L-129,341 L-132,333 L-137,330 L-149,327 L-156,325 L-166,325 L-171,330 L-179,346 L-180,348 L-180,354 L-174,359 L-156,370 L-143,375 L-132,382 L-130,386 L-131,392 L-136,396 L-143,396 L-154,392 L-160,388 L-163,385 L-163,383 L-172,382 L-181,376 L-194,367 L-210,359 L-212,358 L-212,356 L-217,354 L-227,347 L-238,340 L-247,333 L-258,326 L-271,316 L-284,306 L-292,299 L-300,292 L-312,281 L-347,246 L-354,236 L-358,229 L-363,229 L-364,230 L-366,251 L-368,266 L-369,300 L-367,362 L-365,377 L-362,433 L-361,440 L-360,463 L-356,507 L-352,531 L-345,582 L-342,603 L-339,616 L-337,634 L-333,658 L-329,678 L-326,690 L-324,702 L-323,704 L-321,725 L-318,739 L-315,755 L-312,781 L-308,801 L-306,818 L-304,826 L-299,848 L-295,866 L-293,876 L-288,888 L-287,896 L-286,910 L-288,912 L-322,912 L-339,911 L-402,911 L-405,907 L-412,883 L-421,837 L-427,806 L-429,796 L-434,775 L-440,751 L-442,750 L-494,748 L-514,746 L-522,744 L-544,743 L-549,746 L-556,767 L-563,791 L-567,809 L-570,826 L-575,848 L-577,856 L-581,876 L-585,897 L-588,902 L-594,904 L-606,905 L-626,905 L-655,906 L-682,905 L-687,903 L-688,901 L-688,887 L-682,844 L-679,823 L-675,800 L-673,786 L-670,774 L-666,749 L-662,729 L-657,700 L-649,661 L-648,658 L-646,642 L-642,628 L-638,605 L-633,577 L-631,562 L-630,559 L-628,542 L-625,521 L-623,514 L-620,496 L-619,478 L-617,463 L-614,435 L-612,417 L-613,410 L-620,401 L-628,391 L-636,375 L-644,360 L-651,344 L-656,332 L-664,311 L-668,300 L-672,273 L-674,267 L-676,250 L-677,231 L-679,221 L-680,210 L-680,182 L-679,158 L-673,122 L-669,103 L-666,83 L-662,70 L-659,62 L-653,52 L-639,37 L-628,30 L-618,25 L-598,18 L-583,13 L-563,9 L-520,5 L-506,5 L-497,7 L-483,14 L-469,24 L-463,24 L-448,10 L-444,5 L-436,1 L-412,2 L-391,6 L-374,11 L-353,16 L-338,20 L-330,25 L-325,30 L-312,43 L-301,59 L-295,75 L-289,89 L-278,122 L-272,147 L-269,161 L-264,178 L-259,190 L-254,201 L-242,224 L-237,234 L-231,244 L-221,255 L-213,265 L-205,275 L-194,286 L-178,298 L-154,305 L-137,309 L-135,308 L-133,293 L-126,271 L-121,259 L-115,249 L-105,238 L-100,232 L-90,224 L-77,215 L-61,208 L-46,203 L-44,200 L-43,195 L-43,161 L-41,136 L-39,76 L-39,30 L-41,21 L-49,14 L-50,8 L-47,3 L-43,1 L-32,2 L-11,2 Z M-20,22 L-24,26 L-25,62 L-25,116 L-26,126 L-26,218 L-44,222 L-61,227 L-72,234 L-85,243 L-93,251 L-99,259 L-105,269 L-110,280 L-113,290 L-114,305 L-110,309 L-96,310 L-43,311 L-32,310 L38,310 L62,307 L65,304 L64,288 L59,272 L51,259 L43,249 L32,238 L24,233 L8,225 L-5,220 L-7,214 L-11,181 L-11,135 L-9,116 L-10,92 L-10,79 L-9,67 L-10,38 L-11,28 L-14,23 Z M-430,20 L-438,26 L-442,29 L-442,31 L-445,32 L-452,40 L-458,47 L-460,48 L-468,48 L-472,46 L-479,37 L-486,30 L-498,24 L-512,24 L-530,26 L-555,28 L-571,32 L-583,34 L-605,44 L-617,49 L-629,57 L-638,67 L-645,82 L-649,92 L-651,109 L-657,136 L-661,151 L-662,176 L-664,202 L-664,211 L-662,226 L-660,254 L-656,270 L-653,291 L-649,305 L-641,328 L-635,340 L-631,351 L-626,359 L-618,375 L-610,388 L-598,400 L-582,412 L-571,418 L-566,416 L-556,403 L-556,401 L-552,399 L-539,388 L-538,383 L-542,376 L-554,361 L-561,351 L-572,333 L-581,317 L-588,295 L-594,249 L-597,230 L-599,194 L-600,181 L-598,177 L-590,177 L-587,187 L-585,215 L-583,234 L-579,258 L-575,288 L-570,301 L-566,313 L-559,323 L-553,333 L-547,342 L-535,359 L-528,366 L-521,374 L-511,384 L-495,392 L-484,396 L-474,399 L-466,404 L-464,404 L-462,408 L-461,410 L-460,425 L-456,428 L-440,430 L-431,435 L-423,444 L-422,448 L-427,461 L-430,468 L-435,472 L-446,477 L-457,480 L-472,481 L-488,479 L-516,471 L-532,464 L-547,455 L-555,448 L-572,439 L-578,436 L-580,436 L-580,434 L-588,429 L-593,430 L-596,437 L-599,456 L-601,468 L-603,494 L-607,516 L-609,534 L-613,551 L-617,572 L-618,583 L-621,593 L-623,607 L-625,615 L-625,627 L-627,637 L-632,657 L-635,674 L-638,685 L-638,698 L-633,704 L-610,710 L-592,713 L-579,717 L-561,721 L-557,722 L-532,724 L-512,727 L-490,728 L-480,729 L-445,729 L-436,727 L-415,727 L-392,725 L-370,722 L-353,719 L-342,717 L-340,716 L-340,705 L-342,697 L-345,674 L-349,654 L-355,617 L-358,604 L-362,570 L-366,541 L-370,521 L-372,503 L-374,485 L-376,447 L-378,425 L-380,395 L-384,356 L-384,286 L-383,263 L-381,238 L-379,221 L-377,203 L-370,173 L-367,167 L-361,166 L-358,169 L-357,171 L-358,186 L-351,211 L-345,222 L-337,232 L-328,242 L-317,254 L-305,266 L-297,273 L-293,275 L-292,278 L-280,287 L-267,297 L-257,304 L-244,314 L-234,321 L-219,331 L-207,338 L-200,338 L-195,333 L-189,325 L-188,316 L-212,292 L-214,292 L-216,288 L-223,280 L-234,266 L-240,261 L-249,247 L-257,231 L-265,215 L-275,191 L-282,173 L-286,157 L-289,141 L-294,119 L-302,97 L-308,82 L-314,67 L-327,50 L-335,42 L-347,36 L-392,25 L-412,21 L-421,20 Z M-521,401 L-529,408 L-536,414 L-544,424 L-545,427 L-545,434 L-538,442 L-527,449 L-505,457 L-494,459 L-485,462 L-461,462 L-449,457 L-443,452 L-444,447 L-445,446 L-460,446 L-471,440 L-479,433 L-481,428 L-483,416 L-491,411 L-508,404 L-515,401 Z " fill="#000000" transform="translate(870,189)"/>
<path d="M0,0 L84,0 L498,2 L575,3 L692,3 L954,6 L1009,7 L1014,8 L1025,8 L1029,10 L1027,15 L1036,14 L1037,10 L1041,7 L1053,8 L1052,11 L1046,13 L1045,15 L1061,15 L1059,12 L1060,8 L1066,8 L1069,10 L1067,14 L1069,15 L1099,15 L1093,14 L1077,14 L1073,12 L1074,8 L1121,8 L1121,22 L1097,22 L1021,21 L1018,18 L1020,15 L1014,15 L1017,18 L1014,21 L992,21 L941,20 L914,20 L814,18 L790,18 L787,15 L786,13 L781,12 L705,12 L593,11 L552,11 L448,10 L385,10 L214,9 L-3,8 L-6,6 L-5,2 Z M1112,14 Z " fill="#000000" transform="translate(37,1181)"/>
</svg>
