<?xml version="1.0" encoding="UTF-8"?>
<!-- Generator: visioncortex VTracer 0.6.12 -->
<svg version="1.1" xmlns="http://www.w3.org/2000/svg" width="519" height="1089">
<path d="M0,0 L16,2 L31,8 L42,15 L50,22 L59,34 L64,44 L68,56 L70,68 L70,77 L67,94 L59,110 L53,119 L46,126 L36,133 L24,139 L12,142 L-10,142 L-26,137 L-38,131 L-51,120 L-58,112 L-68,94 L-70,85 L-70,56 L-64,39 L-57,28 L-48,18 L-42,13 L-25,4 Z M-25,26 L-33,31 L-40,38 L-46,47 L-50,58 L-51,63 L-51,76 L-49,88 L-42,101 L-34,110 L-23,117 L-15,121 L-2,123 L5,123 L18,120 L29,114 L39,105 L43,100 L49,85 L50,79 L50,62 L45,49 L39,41 L35,39 L19,36 L-1,31 L-11,27 L-15,26 Z " fill="#000000" transform="translate(303,30)"/>
<path d="M0,0 L26,0 L42,1 L52,6 L61,16 L68,29 L72,40 L76,56 L83,89 L84,110 L84,215 L85,227 L85,264 L86,270 L96,272 L112,271 L119,265 L123,266 L127,271 L129,272 L155,271 L158,268 L158,108 L161,72 L167,47 L178,21 L186,6 L191,2 L193,1 L274,1 L285,4 L296,11 L300,16 L307,30 L308,42 L308,129 L309,211 L309,307 L308,382 L306,388 L304,406 L298,424 L292,434 L284,444 L278,451 L266,458 L256,465 L253,470 L252,478 L251,492 L248,539 L245,597 L241,673 L237,739 L235,768 L233,778 L231,782 L229,783 L209,784 L205,787 L202,810 L201,815 L203,823 L213,827 L240,834 L252,840 L259,847 L264,857 L264,865 L261,868 L189,868 L147,867 L143,863 L142,859 L142,826 L143,797 L142,787 L140,784 L131,782 L127,778 L126,774 L126,700 L127,581 L127,446 L125,443 L118,443 L117,444 L116,451 L115,621 L115,686 L114,746 L113,777 L110,781 L98,783 L96,785 L95,829 L95,855 L93,864 L89,867 L51,867 L-3,866 L-11,865 L-14,866 L-27,866 L-32,863 L-33,862 L-33,851 L-30,843 L-26,840 L-13,835 L7,829 L19,827 L33,821 L36,820 L37,810 L34,784 L19,782 L14,778 L12,772 L11,745 L11,726 L12,719 L10,714 L7,667 L4,617 L3,588 L2,582 L-1,524 L-2,507 L-4,474 L-6,463 L-11,458 L-22,450 L-30,444 L-37,437 L-44,426 L-49,418 L-53,404 L-55,397 L-56,388 L-56,44 L-54,32 L-49,18 L-43,10 L-35,6 L-22,3 L-13,1 Z M-31,384 L-35,387 L-34,400 L-29,414 L-22,423 L-13,431 L-6,436 L0,447 L5,456 L16,476 L20,480 L22,480 L23,478 L23,432 L22,422 L16,411 L10,407 L2,406 L-7,406 L-8,390 L-12,385 L-15,384 Z M265,383 L259,385 L257,389 L256,410 L255,419 L255,434 L258,436 L263,435 L272,429 L275,426 L280,415 L284,403 L286,395 L286,388 L283,385 L280,384 Z " fill="#000000" transform="translate(183,186)"/>
<path d="M0,0 L10,2 L26,10 L35,16 L37,23 L34,30 L26,43 L21,48 L10,49 L7,47 L7,38 L3,33 L-3,33 L-6,44 L-10,55 L-13,57 L-19,56 L-30,49 L-35,46 L-37,43 L-36,38 L-22,20 L-21,18 L-19,18 L-17,13 L-12,7 L-3,1 Z " fill="#000000" transform="translate(305,190)"/>
<path d="M0,0 L5,0 L5,3 L2,4 L0,3 Z " fill="#000000" transform="translate(30,198)"/>
<path d="M0,0 L5,2 L11,10 L11,16 L8,20 L3,21 L-4,18 L-7,14 L-7,6 L-3,1 Z " fill="#000000" transform="translate(303,284)"/>
<path d="M0,0 L6,0 L12,5 L13,7 L13,15 L10,20 L7,22 L0,21 L-3,18 L-4,15 L-4,6 Z " fill="#000000" transform="translate(299,364)"/>
</svg>
