<?xml version="1.0" encoding="UTF-8"?>
<!-- Generator: visioncortex VTracer 0.6.12 -->
<svg version="1.1" xmlns="http://www.w3.org/2000/svg" width="1179" height="882">
<path d="M0,0 L20,0 L33,3 L51,13 L61,22 L69,33 L74,43 L78,55 L78,74 L76,84 L70,100 L63,109 L55,116 L50,121 L34,129 L22,133 L16,134 L6,134 L-12,131 L-28,123 L-37,116 L-47,105 L-53,95 L-57,85 L-59,75 L-59,60 L-56,46 L-48,31 L-40,20 L-35,15 L-25,8 L-9,2 Z M31,34 L23,41 L16,49 L10,60 L9,61 L-13,63 L-28,66 L-33,70 L-32,78 L-24,94 L-17,101 L-5,107 L9,109 L21,108 L30,105 L40,97 L45,93 L49,91 L52,78 L52,60 L48,48 L40,37 L37,34 Z " fill="#000000" transform="translate(463,29)"/>
<path d="M0,0 L13,0 L15,2 L14,7 L7,18 L0,29 L-5,39 L-19,61 L-26,71 L-34,83 L-43,98 L-50,110 L-56,119 L-59,126 L-58,132 L-54,137 L-53,143 L-58,152 L-66,165 L-73,177 L-81,190 L-87,203 L-86,208 L-84,209 L-69,210 L50,210 L70,209 L101,209 L107,212 L110,224 L110,256 L109,273 L108,315 L108,333 L107,367 L106,391 L105,423 L105,481 L104,530 L104,560 L103,571 L101,630 L98,634 L90,636 L59,637 L-14,635 L-118,636 L-145,636 L-175,637 L-298,637 L-305,634 L-306,632 L-306,583 L-305,575 L-305,522 L-304,404 L-306,397 L-307,395 L-316,394 L-370,394 L-378,397 L-383,407 L-390,410 L-435,410 L-457,411 L-463,410 L-472,413 L-476,415 L-478,419 L-479,445 L-474,450 L-464,454 L-447,459 L-431,466 L-409,478 L-391,491 L-381,500 L-375,507 L-369,512 L-360,523 L-353,532 L-345,544 L-333,570 L-327,588 L-323,606 L-323,633 L-326,637 L-329,638 L-365,638 L-372,634 L-376,620 L-379,604 L-381,599 L-384,587 L-392,569 L-402,554 L-406,550 L-406,548 L-410,546 L-418,536 L-427,528 L-438,520 L-464,508 L-477,504 L-491,501 L-498,500 L-517,499 L-536,501 L-542,503 L-557,506 L-578,515 L-590,522 L-597,527 L-598,529 L-600,529 L-602,533 L-607,537 L-615,543 L-624,553 L-633,567 L-642,582 L-648,602 L-652,625 L-658,638 L-659,639 L-682,640 L-699,639 L-703,636 L-703,627 L-702,616 L-696,590 L-689,568 L-683,554 L-679,545 L-673,536 L-665,525 L-658,518 L-651,508 L-643,502 L-638,497 L-629,490 L-619,482 L-608,476 L-581,463 L-563,457 L-555,453 L-536,449 L-532,446 L-530,431 L-531,417 L-532,413 L-543,411 L-624,411 L-629,409 L-633,404 L-639,384 L-645,366 L-651,346 L-661,310 L-665,299 L-670,283 L-675,265 L-682,242 L-690,216 L-695,199 L-703,177 L-706,166 L-705,161 L-702,158 L-683,152 L-678,154 L-674,160 L-669,177 L-662,198 L-657,213 L-653,226 L-646,247 L-643,258 L-637,274 L-629,300 L-619,332 L-610,358 L-605,370 L-600,374 L-592,374 L-589,373 L-588,359 L-587,354 L-587,342 L-585,308 L-580,270 L-570,226 L-561,199 L-550,171 L-541,152 L-537,142 L-526,125 L-520,116 L-516,108 L-507,97 L-497,84 L-485,70 L-478,63 L-477,61 L-475,61 L-474,58 L-472,58 L-470,54 L-462,47 L-456,43 L-447,35 L-436,28 L-434,27 L-428,27 L-417,33 L-399,45 L-369,65 L-359,72 L-348,79 L-332,90 L-323,96 L-309,106 L-300,111 L-292,117 L-280,124 L-271,130 L-261,135 L-240,136 L-214,136 L-206,134 L-200,127 L-189,112 L-182,101 L-172,87 L-166,78 L-158,66 L-151,56 L-146,48 L-141,39 L-133,28 L-127,19 L-124,16 L-106,12 L-75,8 L-72,7 L-47,5 L-36,3 L-14,2 Z M-50,27 L-102,34 L-112,37 L-118,44 L-125,55 L-133,66 L-141,78 L-150,91 L-154,98 L-161,108 L-168,119 L-171,123 L-174,132 L-171,136 L-162,137 L-150,137 L-138,134 L-123,129 L-97,119 L-85,113 L-77,105 L-64,84 L-57,74 L-49,61 L-45,56 L-33,36 L-31,31 L-34,27 Z M-88,134 L-97,137 L-124,149 L-132,153 L-134,161 L-135,169 L-135,202 L-133,209 L-129,211 L-117,210 L-109,203 L-105,197 L-99,189 L-92,177 L-86,168 L-75,149 L-76,142 L-81,136 Z M-357,183 L-362,186 L-373,198 L-377,204 L-385,217 L-391,243 L-393,252 L-393,261 L-390,264 L-387,265 L-310,265 L-305,263 L-303,260 L-303,222 L-305,215 L-318,205 L-339,191 L-354,183 Z " fill="#000000" transform="translate(806,108)"/>
<path d="M0,0 L12,1 L21,0 L30,1 L43,1 L44,6 L42,8 L-30,8 L-61,9 L-168,9 L-216,10 L-243,11 L-252,10 L-259,12 L-267,12 L-273,15 L-283,14 L-293,14 L-302,12 L-308,12 L-312,15 L-318,14 L-329,14 L-338,15 L-346,16 L-457,18 L-607,20 L-629,21 L-684,21 L-726,22 L-743,22 L-796,23 L-830,23 L-869,24 L-958,25 L-1050,26 L-1122,26 L-1123,25 L-1123,11 L-1121,10 L-1103,9 L-1076,9 L-1056,11 L-1044,10 L-940,10 L-929,9 L-827,9 L-819,8 L-810,10 L-806,9 L-755,8 L-750,7 L-709,8 L-678,7 L-661,7 L-641,6 L-576,6 L-543,5 L-510,6 L-476,6 L-462,4 L-345,4 L-331,3 L-192,3 L-176,2 L-64,2 L-21,1 Z M-1061,14 L-1064,16 L-1064,18 L-1056,18 L-1056,15 Z M-1041,15 L-1044,16 L-1043,19 L-1033,19 L-1031,18 L-1032,15 Z M-960,15 L-960,17 L-951,16 L-951,15 Z M-918,15 L-914,17 L-909,16 L-909,15 Z M-1115,17 L-1114,19 L-1109,18 L-1109,17 Z M-1022,17 Z " fill="#000000" transform="translate(1132,829)"/>
</svg>
