<?xml version="1.0" encoding="UTF-8"?>
<!-- Generator: visioncortex VTracer 0.6.12 -->
<svg version="1.1" xmlns="http://www.w3.org/2000/svg" width="456" height="1152">
<path d="M0,0 L19,0 L35,4 L48,9 L58,15 L69,25 L74,31 L74,33 L76,33 L82,43 L88,61 L90,72 L90,91 L86,107 L79,121 L76,126 L74,126 L72,130 L65,138 L62,139 L60,143 L51,149 L42,154 L20,159 L4,159 L-13,155 L-29,147 L-39,140 L-50,129 L-58,116 L-62,108 L-67,93 L-68,77 L-65,58 L-61,46 L-52,30 L-50,30 L-48,26 L-40,19 L-26,9 L-6,1 Z M-3,29 L-15,33 L-26,41 L-33,49 L-38,60 L-40,65 L-41,81 L-40,90 L-32,106 L-25,115 L-14,124 L0,129 L13,131 L28,129 L44,121 L51,114 L58,103 L62,87 L62,76 L58,60 L51,49 L46,44 L36,36 L24,30 L19,29 Z " fill="#000000" transform="translate(216,31)"/>
<path d="M0,0 L81,0 L90,3 L95,7 L102,18 L106,22 L113,21 L121,7 L126,2 L131,0 L180,1 L252,2 L269,4 L278,7 L287,14 L295,24 L298,32 L300,41 L302,66 L301,115 L301,138 L302,239 L305,333 L305,371 L303,401 L299,414 L294,426 L288,438 L281,448 L279,448 L278,451 L276,451 L274,455 L260,466 L257,469 L256,472 L256,595 L257,622 L257,686 L258,721 L258,903 L256,910 L253,913 L250,914 L204,915 L143,915 L138,911 L137,909 L137,860 L136,767 L136,746 L134,669 L133,610 L132,602 L132,581 L131,558 L129,488 L127,459 L124,455 L120,454 L112,454 L105,457 L104,467 L105,517 L106,530 L107,569 L108,588 L108,604 L109,643 L110,659 L111,728 L112,842 L112,907 L109,913 L106,915 L95,916 L-10,916 L-15,912 L-16,895 L-17,814 L-17,800 L-18,769 L-19,756 L-19,725 L-21,689 L-22,664 L-26,567 L-27,549 L-30,481 L-32,468 L-37,466 L-51,459 L-60,452 L-70,443 L-77,432 L-81,423 L-86,406 L-89,382 L-90,346 L-91,284 L-92,184 L-93,165 L-93,108 L-94,73 L-94,49 L-91,33 L-87,25 L-80,15 L-69,7 L-58,3 L-44,1 Z M-45,23 L-54,25 L-63,32 L-69,42 L-70,48 L-70,70 L-69,87 L-68,118 L-67,162 L-67,292 L-66,340 L-64,354 L-61,358 L-55,360 L-39,360 L-35,357 L-33,347 L-31,334 L-29,309 L-26,285 L-25,277 L-24,257 L-22,245 L-19,198 L-16,171 L-13,113 L-10,86 L-7,50 L-7,28 L-12,24 L-31,23 Z M37,23 L34,25 L34,34 L36,46 L42,71 L47,77 L53,79 L77,80 L93,80 L118,79 L163,79 L169,75 L173,63 L177,39 L177,28 L174,25 L171,24 L157,23 L144,23 L136,25 L129,31 L123,41 L114,53 L111,56 L104,56 L99,52 L92,42 L82,28 L75,24 L54,23 Z M229,26 L222,29 L221,31 L221,52 L226,94 L229,119 L231,144 L233,163 L237,202 L239,219 L241,238 L248,292 L250,307 L254,343 L257,357 L261,362 L264,363 L273,363 L278,360 L280,354 L280,327 L279,266 L278,175 L278,124 L277,104 L277,56 L275,43 L270,33 L263,28 L251,26 Z M-60,385 L-65,389 L-65,400 L-60,418 L-54,426 L-46,433 L-40,436 L-35,436 L-33,434 L-33,404 L-35,391 L-40,386 L-42,385 Z M263,388 L258,391 L256,400 L255,424 L255,432 L258,435 L263,435 L272,426 L277,413 L279,403 L279,392 L275,389 L272,388 Z " fill="#000000" transform="translate(125,208)"/>
</svg>
