<?xml version="1.0" encoding="UTF-8"?>
<!-- Generator: visioncortex VTracer 0.6.12 -->
<svg version="1.1" xmlns="http://www.w3.org/2000/svg" width="1176" height="1245">
<path d="M0,0 L16,0 L29,1 L32,5 L34,21 L33,41 L31,57 L29,67 L26,76 L22,87 L17,114 L11,129 L5,139 L-7,154 L-12,159 L-20,166 L-35,175 L-57,181 L-65,182 L-82,182 L-106,176 L-118,169 L-132,157 L-141,143 L-148,129 L-154,103 L-154,91 L-151,75 L-147,63 L-148,57 L-157,53 L-176,49 L-182,44 L-186,37 L-187,30 L-187,17 L-184,10 L-178,7 L-164,5 L-149,5 L-122,4 L-111,4 L-101,3 L-82,3 L-42,2 L-29,1 Z M-72,21 L-145,23 L-163,25 L-165,27 L-164,31 L-158,34 L-140,37 L-133,40 L-106,44 L-85,49 L-58,54 L-42,58 L-22,62 L1,65 L6,62 L10,52 L14,34 L14,25 L12,22 L8,21 Z M-119,63 L-125,68 L-129,78 L-133,90 L-134,95 L-134,115 L-129,130 L-124,135 L-119,140 L-111,147 L-98,155 L-88,159 L-75,160 L-65,160 L-50,157 L-40,153 L-32,147 L-20,135 L-15,126 L-11,117 L-9,103 L-9,89 L-15,84 L-45,76 L-79,69 L-91,67 L-100,64 L-106,63 Z " fill="#000000" transform="translate(591,30)"/>
<path d="M0,0 L37,0 L45,3 L55,11 L64,21 L72,28 L80,38 L88,51 L97,70 L103,80 L109,101 L111,107 L114,117 L118,129 L122,149 L124,164 L127,178 L132,227 L134,281 L132,325 L129,357 L127,368 L128,377 L131,379 L141,381 L146,385 L146,395 L136,410 L127,426 L118,437 L114,445 L114,453 L118,467 L118,478 L113,487 L106,498 L99,508 L95,518 L90,527 L88,532 L88,543 L91,555 L94,576 L100,610 L102,620 L105,643 L108,657 L110,671 L114,693 L116,707 L120,728 L125,751 L129,776 L131,788 L133,792 L136,813 L140,831 L142,845 L144,855 L151,892 L151,900 L149,903 L146,904 L126,906 L103,909 L89,910 L76,910 L66,909 L49,909 L26,912 L-2,912 L-10,910 L-14,902 L-17,879 L-22,857 L-28,823 L-31,806 L-36,782 L-40,757 L-45,727 L-48,716 L-52,688 L-56,669 L-60,641 L-64,618 L-67,604 L-70,584 L-71,582 L-76,582 L-80,599 L-85,623 L-90,646 L-96,675 L-98,683 L-100,697 L-104,712 L-107,730 L-112,755 L-116,774 L-120,790 L-125,815 L-127,828 L-131,849 L-131,859 L-134,863 L-137,874 L-139,890 L-142,903 L-145,905 L-168,905 L-205,904 L-255,904 L-284,903 L-296,900 L-297,899 L-296,886 L-294,874 L-287,834 L-281,808 L-279,794 L-274,768 L-271,754 L-269,742 L-265,724 L-263,718 L-260,697 L-253,660 L-250,643 L-245,617 L-240,593 L-236,574 L-234,562 L-234,552 L-242,536 L-250,526 L-257,515 L-263,503 L-265,495 L-265,482 L-260,471 L-260,464 L-265,452 L-273,438 L-282,424 L-290,411 L-295,401 L-294,394 L-290,392 L-277,389 L-275,388 L-274,380 L-278,357 L-280,339 L-282,333 L-284,307 L-286,281 L-287,255 L-287,235 L-285,203 L-284,192 L-279,154 L-275,136 L-267,108 L-261,93 L-256,79 L-253,74 L-245,58 L-233,38 L-222,22 L-212,9 L-206,4 L-198,3 L-173,2 L-136,2 L-129,5 L-120,12 L-112,18 L-106,27 L-99,34 L-91,41 L-87,46 L-79,52 L-73,51 L-67,47 L-59,40 L-54,35 L-39,25 L-33,20 L-28,17 L-15,8 L-6,1 Z M13,21 L8,25 L6,32 L7,65 L7,142 L6,149 L2,152 L-10,153 L-57,153 L-109,155 L-128,155 L-144,156 L-153,152 L-154,151 L-155,133 L-156,82 L-157,66 L-157,41 L-159,28 L-162,25 L-164,24 L-179,24 L-184,27 L-186,29 L-187,51 L-187,68 L-186,89 L-187,111 L-186,160 L-186,205 L-185,247 L-185,304 L-184,337 L-185,363 L-188,387 L-193,408 L-195,420 L-199,439 L-203,466 L-206,480 L-209,500 L-213,518 L-216,541 L-221,569 L-224,588 L-231,619 L-237,650 L-239,659 L-242,680 L-246,699 L-251,725 L-256,755 L-263,789 L-272,831 L-275,851 L-277,857 L-280,871 L-281,886 L-279,890 L-275,891 L-227,892 L-172,891 L-159,891 L-154,888 L-151,877 L-145,846 L-141,822 L-139,816 L-135,794 L-133,784 L-127,757 L-124,740 L-116,697 L-111,673 L-105,645 L-98,608 L-95,589 L-92,578 L-89,561 L-85,545 L-81,535 L-77,523 L-75,521 L-68,522 L-65,526 L-61,540 L-55,574 L-53,588 L-50,604 L-46,628 L-42,656 L-39,668 L-35,692 L-31,710 L-28,727 L-23,756 L-15,799 L-12,815 L-4,858 L1,883 L4,889 L8,891 L36,891 L114,888 L129,887 L132,884 L132,875 L129,858 L127,845 L123,823 L120,810 L116,790 L113,779 L110,756 L107,740 L101,706 L97,691 L93,667 L88,640 L84,621 L82,606 L77,582 L71,545 L68,532 L65,514 L57,476 L54,462 L52,449 L44,401 L40,383 L35,344 L34,306 L33,266 L32,243 L32,220 L31,173 L30,150 L30,113 L28,37 L27,28 L23,22 L21,21 Z M-136,28 L-140,32 L-141,39 L-137,47 L-128,50 L-117,53 L-110,52 L-109,48 L-115,40 L-127,30 L-131,28 Z M47,33 L44,36 L46,49 L47,110 L47,180 L48,245 L48,331 L51,345 L53,357 L57,375 L61,381 L66,383 L95,382 L102,378 L104,373 L106,344 L108,334 L109,324 L109,311 L111,294 L112,269 L112,247 L108,207 L106,193 L105,180 L103,175 L102,156 L97,140 L90,118 L85,102 L79,88 L73,72 L68,59 L60,46 L53,35 Z M-210,35 L-214,39 L-218,45 L-226,46 L-229,50 L-230,63 L-235,73 L-241,87 L-248,107 L-255,131 L-258,142 L-263,175 L-267,200 L-269,217 L-270,245 L-270,262 L-267,290 L-267,314 L-264,346 L-259,376 L-257,385 L-253,390 L-250,391 L-236,391 L-232,390 L-213,390 L-205,388 L-202,384 L-199,370 L-198,365 L-198,344 L-199,295 L-200,194 L-200,177 L-201,129 L-202,59 L-203,41 L-205,36 Z M-19,35 L-36,47 L-39,50 L-38,54 L-31,54 L-24,51 L-15,49 L-12,46 L-12,36 L-13,35 Z M-21,68 L-34,71 L-41,74 L-59,76 L-66,79 L-83,80 L-106,74 L-124,71 L-135,71 L-139,75 L-140,100 L-140,121 L-138,133 L-133,138 L-123,139 L-52,137 L-18,135 L-12,133 L-10,130 L-9,113 L-9,87 L-10,74 L-13,68 Z M73,400 L66,403 L64,407 L65,424 L67,436 L68,445 L70,452 L73,468 L78,493 L80,496 L85,496 L89,491 L94,481 L97,476 L97,463 L95,453 L95,443 L99,432 L110,412 L113,407 L112,403 L109,401 L101,400 Z M-240,406 L-253,407 L-265,411 L-267,413 L-267,418 L-256,434 L-245,455 L-243,461 L-243,469 L-247,480 L-252,489 L-252,495 L-246,505 L-238,515 L-234,520 L-229,521 L-226,519 L-220,491 L-217,474 L-213,452 L-210,431 L-207,415 L-208,410 L-212,407 L-217,406 Z " fill="#000000" transform="translate(617,222)"/>
<path d="M0,0 L88,0 L88,8 L-35,8 L-97,9 L-114,9 L-120,7 L-126,9 L-207,9 L-261,10 L-308,10 L-411,11 L-601,12 L-691,13 L-798,13 L-829,14 L-954,15 L-989,15 L-995,13 L-994,10 L-990,8 L-915,8 L-898,7 L-831,6 L-805,6 L-799,9 L-794,8 L-790,6 L-693,5 L-598,5 L-517,4 L-390,3 L-345,3 L-251,2 L-197,3 L-171,2 L-123,2 L-119,3 L-116,2 L-99,1 L-7,1 Z " fill="#000000" transform="translate(1088,1205)"/>
<path d="M0,0 L7,1 L7,5 L5,6 L-51,8 L-53,6 L-52,1 Z " fill="#000000" transform="translate(62,1213)"/>
<path d="M0,0 L8,1 L9,3 L-1,2 Z " fill="#000000" transform="translate(79,1215)"/>
</svg>
