<?xml version="1.0" encoding="UTF-8"?>
<!-- Generator: visioncortex VTracer 0.6.12 -->
<svg version="1.1" xmlns="http://www.w3.org/2000/svg" width="480" height="1170">
<path d="M0,0 L5,1 L6,5 L2,33 L-2,60 L-2,74 L2,83 L5,104 L2,126 L-2,136 L-8,147 L-14,156 L-22,163 L-32,170 L-44,176 L-62,181 L-83,181 L-94,179 L-103,175 L-111,172 L-120,166 L-130,156 L-142,138 L-150,123 L-159,124 L-182,132 L-188,133 L-193,130 L-193,119 L-191,106 L-188,93 L-186,77 L-183,63 L-180,57 L-169,50 L-160,46 L-150,43 L-120,33 L-105,27 L-97,25 L-77,17 L-65,13 L-59,10 L-51,8 L-45,6 L-26,4 L-23,3 L-3,1 Z M-38,80 L-51,85 L-62,89 L-78,94 L-84,97 L-97,101 L-110,106 L-120,110 L-121,112 L-121,121 L-118,129 L-109,140 L-104,146 L-92,152 L-85,155 L-62,155 L-49,151 L-38,143 L-31,136 L-25,125 L-21,106 L-22,94 L-26,85 L-31,80 Z " fill="#000000" transform="translate(340,31)"/>
<path d="M0,0 L6,1 L17,7 L28,13 L37,20 L42,24 L53,33 L62,40 L75,53 L78,57 L78,59 L82,61 L94,72 L102,81 L109,92 L116,103 L120,108 L131,129 L137,147 L142,170 L144,178 L147,198 L148,214 L149,251 L151,256 L155,259 L178,261 L186,262 L196,262 L202,259 L204,255 L205,248 L206,229 L208,215 L210,189 L212,163 L215,150 L219,147 L237,149 L259,153 L268,154 L274,158 L276,161 L276,178 L273,210 L272,227 L271,233 L271,256 L276,267 L277,276 L277,300 L275,312 L270,327 L268,336 L264,345 L259,358 L255,405 L253,419 L251,452 L248,469 L245,473 L239,474 L227,471 L214,469 L193,464 L190,461 L188,456 L188,445 L190,427 L191,408 L194,380 L194,369 L191,365 L180,363 L150,362 L145,365 L144,367 L144,376 L148,393 L152,408 L155,420 L158,435 L162,451 L165,465 L169,483 L173,498 L177,514 L180,529 L183,541 L187,558 L190,568 L196,596 L200,612 L205,635 L209,650 L214,671 L219,689 L222,700 L223,707 L225,714 L229,731 L233,745 L236,756 L238,765 L243,788 L245,791 L247,808 L250,816 L253,834 L258,852 L261,867 L264,876 L266,883 L269,895 L271,908 L273,913 L277,933 L280,942 L281,954 L278,959 L264,960 L227,960 L223,959 L186,959 L172,958 L164,958 L158,955 L154,949 L151,939 L146,921 L142,903 L140,901 L138,887 L133,870 L130,851 L126,838 L123,822 L118,804 L113,788 L112,785 L107,784 L89,783 L22,783 L16,786 L12,796 L10,806 L6,818 L2,838 L-3,854 L-5,866 L-9,882 L-13,901 L-15,907 L-16,917 L-18,923 L-22,943 L-26,951 L-32,955 L-53,955 L-65,954 L-83,954 L-99,953 L-134,953 L-139,950 L-141,945 L-139,932 L-134,911 L-130,894 L-125,876 L-121,858 L-119,850 L-117,841 L-113,827 L-109,810 L-106,794 L-106,786 L-107,782 L-116,780 L-132,779 L-136,776 L-137,766 L-136,755 L-134,747 L-133,734 L-130,718 L-127,691 L-125,683 L-124,672 L-122,664 L-120,648 L-118,628 L-116,620 L-113,596 L-112,581 L-110,570 L-109,557 L-107,544 L-106,533 L-104,529 L-102,513 L-99,500 L-95,460 L-92,439 L-90,424 L-86,398 L-81,356 L-79,335 L-77,323 L-75,307 L-72,289 L-69,272 L-65,246 L-63,233 L-60,214 L-57,188 L-54,170 L-53,160 L-53,149 L-62,139 L-65,136 L-65,134 L-69,132 L-78,122 L-85,114 L-86,108 L-81,99 L-72,89 L-64,79 L-56,68 L-46,55 L-37,44 L-31,36 L-22,26 L-15,16 L-6,5 Z M233,163 L229,167 L227,176 L221,240 L221,252 L225,255 L232,254 L234,253 L250,252 L254,249 L257,232 L258,209 L260,201 L261,186 L261,174 L258,167 L247,164 Z M231,269 L222,272 L218,278 L217,294 L215,307 L214,323 L213,327 L213,342 L216,348 L223,349 L235,346 L249,340 L256,332 L261,318 L263,306 L264,298 L264,276 L261,271 L258,269 Z M235,359 L225,361 L214,364 L211,370 L209,383 L204,441 L204,448 L208,452 L215,455 L229,457 L235,452 L238,440 L240,416 L242,389 L243,378 L243,364 L241,360 Z M1,534 L0,539 L3,542 L7,541 L7,537 L4,534 Z M48,682 L46,685 L47,690 L52,691 L54,686 L52,682 Z " fill="#000000" transform="translate(172,182)"/>
<path d="M0,0 L4,1 L5,6 L1,7 L-1,6 L-1,1 Z " fill="#000000" transform="translate(244,219)"/>
<path d="M0,0 L4,1 L4,4 L-1,3 Z " fill="#000000" transform="translate(73,320)"/>
</svg>
