<?xml version="1.0" encoding="UTF-8"?>
<!-- Generator: visioncortex VTracer 0.6.12 -->
<svg version="1.1" xmlns="http://www.w3.org/2000/svg" width="813" height="1296">
<path d="M0,0 L3,1 L2,5 L-1,4 Z " fill="#000000" transform="translate(525,8)"/>
<path d="M0,0 L11,0 L20,2 L27,3 L43,11 L54,19 L65,33 L73,49 L75,56 L76,64 L76,80 L72,107 L68,122 L59,139 L55,146 L47,157 L36,169 L31,172 L21,177 L11,179 L1,179 L-12,175 L-25,168 L-32,161 L-40,150 L-48,137 L-57,118 L-61,104 L-64,88 L-65,79 L-65,61 L-62,50 L-57,37 L-49,25 L-43,18 L-29,8 L-12,2 Z M0,22 L-14,26 L-22,30 L-31,38 L-38,48 L-42,57 L-43,62 L-44,79 L-41,99 L-35,119 L-27,133 L-20,143 L-12,150 L-3,156 L3,158 L10,158 L22,153 L30,145 L36,136 L46,118 L52,97 L54,83 L54,66 L50,52 L46,44 L36,33 L26,27 L17,24 Z " fill="#000000" transform="translate(597,63)"/>
<path d="M0,0 L25,1 L49,1 L64,5 L76,11 L81,15 L90,22 L98,35 L103,47 L105,60 L106,81 L105,208 L104,288 L103,331 L103,380 L99,403 L93,427 L88,437 L81,451 L75,461 L67,472 L61,480 L57,490 L58,513 L62,553 L64,570 L65,586 L66,589 L69,618 L72,643 L74,666 L77,695 L83,753 L84,757 L86,785 L89,810 L95,867 L97,882 L99,900 L100,904 L101,925 L98,930 L95,932 L-10,932 L-35,931 L-39,929 L-42,920 L-43,909 L-44,886 L-47,858 L-51,819 L-54,785 L-57,752 L-58,747 L-63,690 L-66,663 L-68,637 L-71,607 L-75,569 L-77,546 L-79,530 L-83,530 L-86,560 L-89,594 L-91,609 L-93,637 L-95,663 L-97,677 L-100,717 L-106,774 L-108,806 L-113,861 L-114,881 L-116,898 L-118,918 L-121,927 L-127,929 L-158,930 L-205,929 L-254,929 L-258,927 L-259,925 L-259,911 L-256,890 L-253,858 L-251,843 L-250,828 L-248,813 L-245,787 L-244,780 L-243,761 L-241,745 L-237,709 L-235,686 L-229,631 L-228,615 L-226,600 L-225,584 L-223,573 L-219,531 L-216,508 L-215,491 L-218,482 L-227,471 L-232,462 L-238,454 L-246,439 L-252,423 L-256,412 L-261,387 L-263,369 L-262,311 L-262,268 L-261,197 L-261,54 L-257,40 L-249,27 L-238,14 L-222,6 L-205,1 L-142,1 L-137,6 L-130,17 L-125,24 L-117,40 L-109,53 L-103,63 L-99,69 L-96,76 L-89,87 L-84,96 L-81,100 L-76,100 L-69,90 L-61,77 L-50,58 L-41,43 L-32,27 L-24,14 L-16,3 L-12,1 Z M-186,20 L-206,21 L-218,25 L-226,31 L-233,39 L-238,49 L-239,54 L-239,297 L-237,302 L-234,304 L-224,306 L-209,306 L-201,305 L-199,302 L-198,283 L-198,164 L-197,148 L-193,147 L-181,147 L-177,148 L-176,161 L-176,260 L-173,269 L-168,271 L-161,271 L-153,272 L-89,272 L6,273 L16,272 L20,268 L21,246 L21,200 L22,153 L26,150 L41,150 L44,157 L45,257 L44,286 L44,300 L47,306 L50,308 L77,308 L82,303 L83,301 L84,270 L84,209 L85,140 L85,109 L84,63 L82,53 L79,45 L72,35 L65,29 L59,26 L49,23 L42,22 L2,21 L-5,24 L-9,28 L-18,44 L-24,54 L-29,63 L-45,90 L-55,108 L-63,121 L-66,127 L-75,141 L-80,142 L-86,134 L-94,121 L-106,100 L-114,86 L-122,73 L-130,60 L-138,45 L-148,28 L-154,21 L-162,20 Z M-169,292 L-173,294 L-175,300 L-173,305 L-172,306 L-97,306 L-93,307 L-39,307 L-21,308 L13,308 L18,305 L19,298 L13,294 L-17,293 L-76,292 Z M-232,326 L-237,329 L-239,336 L-236,341 L-232,343 L-212,343 L-203,342 L-199,337 L-199,331 L-204,326 Z M51,331 L47,333 L46,335 L46,343 L51,346 L77,346 L81,343 L81,335 L77,332 Z M-235,363 L-239,367 L-240,370 L-240,384 L-238,396 L-233,415 L-229,424 L-226,433 L-218,447 L-216,449 L-211,448 L-208,438 L-205,408 L-202,376 L-202,369 L-206,364 L-209,363 Z M52,367 L46,369 L44,373 L44,382 L47,407 L49,431 L51,447 L53,450 L58,449 L65,438 L73,419 L77,406 L81,386 L81,372 L77,368 Z " fill="#000000" transform="translate(681,253)"/>
<path d="M0,0 L334,0 L356,1 L585,1 L690,2 L793,2 L803,3 L803,27 L0,27 L-1,26 L-1,1 Z " fill="#000000" transform="translate(10,1266)"/>
</svg>
