<?xml version="1.0" encoding="UTF-8"?>
<!-- Generator: visioncortex VTracer 0.6.12 -->
<svg version="1.1" xmlns="http://www.w3.org/2000/svg" width="423" height="1074">
<path d="M0,0 L12,1 L32,5 L44,12 L51,17 L51,19 L54,20 L54,22 L56,22 L63,31 L72,51 L75,60 L76,67 L76,77 L75,87 L74,95 L70,105 L63,118 L49,133 L36,143 L23,148 L7,151 L6,154 L48,154 L89,155 L102,157 L116,158 L137,162 L150,167 L150,169 L154,171 L161,178 L165,184 L175,207 L179,227 L181,248 L183,269 L184,299 L184,441 L185,477 L183,516 L181,540 L177,556 L169,574 L165,581 L161,588 L154,596 L146,606 L138,614 L133,624 L131,634 L129,678 L128,696 L127,746 L125,759 L124,778 L122,816 L122,829 L121,838 L121,862 L120,874 L119,900 L118,910 L118,920 L114,945 L113,966 L110,983 L107,988 L95,990 L85,991 L24,991 L13,988 L8,984 L6,980 L5,962 L3,954 L3,923 L4,917 L5,864 L5,759 L6,717 L6,681 L7,651 L7,611 L6,591 L3,582 L-3,582 L-8,590 L-9,604 L-10,637 L-10,736 L-11,789 L-11,855 L-12,972 L-13,983 L-16,989 L-19,991 L-119,991 L-124,987 L-127,979 L-128,973 L-128,885 L-129,861 L-130,847 L-129,840 L-129,784 L-130,723 L-133,612 L-135,603 L-141,596 L-149,589 L-154,583 L-160,575 L-168,562 L-175,544 L-180,524 L-182,498 L-181,413 L-181,341 L-180,310 L-180,242 L-177,213 L-171,197 L-161,184 L-156,178 L-154,178 L-152,174 L-145,168 L-140,163 L-131,158 L-116,154 L-17,154 L-10,153 L-11,151 L-26,146 L-38,140 L-48,133 L-48,131 L-52,129 L-61,118 L-67,105 L-72,86 L-72,67 L-66,44 L-60,34 L-51,23 L-38,13 L-30,8 L-14,2 Z M-5,28 L-14,31 L-27,38 L-36,48 L-42,56 L-45,67 L-45,85 L-41,97 L-35,106 L-25,115 L-13,121 L-10,122 L12,122 L23,118 L34,110 L41,101 L46,91 L49,81 L48,67 L45,57 L38,46 L29,37 L20,32 L14,29 L4,28 Z M-2,220 L-7,224 L-13,234 L-21,245 L-28,259 L-36,274 L-42,283 L-51,286 L-104,287 L-138,288 L-141,290 L-140,296 L-137,304 L-129,318 L-122,328 L-110,348 L-104,357 L-97,368 L-96,371 L-96,378 L-103,390 L-111,408 L-115,413 L-125,435 L-134,446 L-141,459 L-140,464 L-138,466 L-132,467 L-58,468 L-38,468 L-34,469 L-32,473 L-19,493 L-13,503 L-9,510 L0,521 L7,532 L8,533 L14,533 L19,524 L26,512 L34,496 L39,487 L47,474 L48,470 L58,467 L107,465 L141,465 L144,463 L143,455 L139,447 L132,439 L125,425 L119,411 L112,401 L109,395 L102,381 L102,372 L110,356 L114,349 L120,338 L125,332 L133,314 L140,303 L145,293 L145,288 L142,286 L116,287 L107,285 L47,286 L42,283 L35,275 L26,256 L18,245 L10,234 L4,223 L1,220 Z M-147,525 L-152,528 L-153,529 L-153,536 L-150,547 L-143,559 L-140,561 L-136,560 L-135,559 L-134,539 L-136,529 L-139,526 Z M141,528 L136,533 L134,542 L134,572 L139,574 L143,570 L150,559 L153,552 L152,542 L150,533 L145,528 Z " fill="#000000" transform="translate(212,30)"/>
<path d="M0,0 L6,1 L16,15 L22,25 L22,30 L20,32 L-12,31 L-16,29 L-16,23 L-8,9 L-4,2 Z " fill="#000000" transform="translate(210,285)"/>
<path d="M0,0 L28,2 L34,6 L41,16 L46,26 L49,31 L57,44 L60,48 L65,57 L70,67 L70,77 L57,101 L50,115 L40,132 L35,137 L31,139 L-29,139 L-36,136 L-44,126 L-53,112 L-58,103 L-66,92 L-73,78 L-77,71 L-76,62 L-66,43 L-62,38 L-58,29 L-50,16 L-47,11 L-40,3 L-37,2 L-18,1 Z " fill="#000000" transform="translate(218,337)"/>
<path d="M0,0 L38,0 L43,3 L43,10 L37,23 L29,37 L25,42 L19,43 L14,38 L0,13 L-3,7 L-2,2 Z " fill="#000000" transform="translate(107,339)"/>
<path d="M0,0 L8,1 L13,5 L13,12 L5,29 L-4,45 L-5,46 L-11,46 L-16,41 L-22,31 L-31,16 L-34,10 L-34,4 L-30,1 Z " fill="#000000" transform="translate(309,338)"/>
<path d="M0,0 L5,1 L9,6 L15,16 L22,26 L29,39 L30,46 L27,49 L25,50 L-20,50 L-24,48 L-25,46 L-25,38 L-18,27 L-9,11 L-5,6 L-2,1 Z " fill="#000000" transform="translate(128,427)"/>
<path d="M0,0 L5,0 L10,6 L19,19 L26,36 L24,40 L20,42 L11,43 L-13,44 L-20,41 L-21,39 L-21,33 L-16,23 L-8,9 L-2,1 Z " fill="#000000" transform="translate(299,432)"/>
<path d="M0,0 L26,0 L31,3 L31,10 L27,19 L20,31 L14,32 L9,29 L1,18 L-4,8 L-3,2 Z " fill="#000000" transform="translate(206,496)"/>
</svg>
