<?xml version="1.0" encoding="UTF-8"?>
<!-- Generator: visioncortex VTracer 0.6.12 -->
<svg version="1.1" xmlns="http://www.w3.org/2000/svg" width="591" height="1095">
<path d="M0,0 L23,3 L35,7 L51,16 L61,25 L71,37 L78,51 L82,65 L83,72 L83,87 L80,101 L75,114 L67,127 L63,132 L52,141 L38,150 L21,156 L9,157 L-2,157 L-17,154 L-29,149 L-34,145 L-36,141 L-45,138 L-53,131 L-62,118 L-69,103 L-72,90 L-72,70 L-66,48 L-59,36 L-49,24 L-35,13 L-29,9 L-14,2 Z M-36,33 L-43,40 L-50,49 L-56,64 L-58,76 L-58,87 L-56,97 L-51,110 L-44,120 L-35,131 L-18,139 L-4,142 L6,142 L19,140 L27,137 L42,129 L47,124 L55,115 L61,105 L64,96 L65,88 L65,73 L62,61 L58,55 L52,52 L43,52 L28,49 L13,45 L-5,43 L-20,37 L-27,33 Z " fill="#000000" transform="translate(292,31)"/>
<path d="M0,0 L5,2 L6,4 L8,56 L12,62 L26,70 L31,74 L36,79 L47,90 L54,101 L60,112 L70,130 L73,137 L77,148 L81,166 L87,190 L94,210 L96,215 L100,232 L107,259 L107,278 L103,291 L98,296 L92,300 L84,302 L72,303 L56,303 L46,300 L24,291 L17,287 L10,288 L2,295 L-12,303 L-24,311 L-30,316 L-33,332 L-36,353 L-38,370 L-42,388 L-44,395 L-45,408 L-45,428 L-41,453 L-37,467 L-30,511 L-28,522 L-24,544 L-17,575 L-9,608 L0,647 L7,673 L15,708 L21,734 L24,745 L28,761 L37,799 L39,807 L47,844 L52,864 L56,879 L61,895 L62,904 L59,908 L54,909 L-32,908 L-38,904 L-43,893 L-49,878 L-54,865 L-62,843 L-66,833 L-70,819 L-76,802 L-84,782 L-88,766 L-93,755 L-100,735 L-106,719 L-112,702 L-117,687 L-127,657 L-132,641 L-140,611 L-145,596 L-151,574 L-153,570 L-158,570 L-161,577 L-166,596 L-176,631 L-179,644 L-182,650 L-186,666 L-191,680 L-194,692 L-201,710 L-207,731 L-225,784 L-230,803 L-233,813 L-238,829 L-242,839 L-248,856 L-250,866 L-256,891 L-261,907 L-265,911 L-270,912 L-302,913 L-349,913 L-356,911 L-358,906 L-355,887 L-350,866 L-347,845 L-345,833 L-343,826 L-339,806 L-333,775 L-327,749 L-321,716 L-319,707 L-317,694 L-312,672 L-304,638 L-297,608 L-292,587 L-283,545 L-277,519 L-275,508 L-273,483 L-269,466 L-268,463 L-268,446 L-270,436 L-273,430 L-275,410 L-277,394 L-280,383 L-285,359 L-288,349 L-290,336 L-293,326 L-297,320 L-314,310 L-323,304 L-327,299 L-336,299 L-350,304 L-365,308 L-381,311 L-402,311 L-414,307 L-420,302 L-423,295 L-425,286 L-427,268 L-426,245 L-419,215 L-415,200 L-409,181 L-401,159 L-396,145 L-391,134 L-384,118 L-373,98 L-367,86 L-360,75 L-353,63 L-342,51 L-332,44 L-326,39 L-321,29 L-316,26 L-306,28 L-294,34 L-286,39 L-274,43 L-243,43 L-238,44 L-196,46 L-186,55 L-172,66 L-167,68 L-158,68 L-151,63 L-144,55 L-136,48 L-128,45 L-68,43 L-56,37 L-48,31 L-36,23 L-25,16 L-8,5 L-3,1 Z M-26,41 L-40,50 L-48,56 L-57,62 L-71,70 L-81,77 L-92,84 L-106,93 L-114,98 L-114,100 L-119,102 L-131,110 L-148,122 L-151,125 L-153,130 L-154,137 L-155,227 L-155,259 L-154,350 L-151,356 L-144,357 L-129,351 L-119,345 L-106,337 L-89,327 L-76,319 L-54,304 L-39,294 L-26,285 L-17,277 L-14,270 L-13,209 L-15,200 L-25,192 L-35,184 L-44,174 L-50,165 L-54,152 L-56,122 L-54,111 L-50,107 L-42,107 L-29,111 L-24,113 L-18,113 L-15,110 L-14,103 L-15,46 L-18,41 Z M-302,53 L-304,55 L-305,64 L-306,88 L-306,107 L-304,115 L-300,118 L-283,118 L-278,120 L-275,125 L-274,137 L-274,165 L-276,174 L-280,187 L-288,203 L-296,213 L-304,223 L-307,232 L-307,259 L-306,271 L-307,277 L-313,279 L-313,280 L-308,281 L-305,292 L-300,297 L-278,309 L-262,318 L-258,321 L-246,326 L-238,331 L-222,339 L-204,349 L-188,359 L-183,361 L-176,361 L-173,357 L-171,347 L-170,214 L-170,150 L-171,127 L-178,119 L-186,114 L-198,108 L-213,98 L-228,90 L-247,80 L-259,73 L-270,67 L-286,59 L-297,53 Z M3,118 L-1,120 L-7,131 L-14,132 L-28,125 L-35,125 L-38,130 L-38,139 L-35,154 L-29,169 L-24,175 L-14,182 L-6,188 L0,188 L8,182 L11,175 L14,164 L15,152 L15,137 L13,129 L9,121 L5,118 Z M-332,124 L-339,132 L-343,143 L-344,148 L-344,170 L-342,180 L-337,192 L-331,201 L-327,206 L-325,207 L-319,207 L-310,200 L-303,192 L-296,184 L-291,172 L-289,158 L-289,140 L-292,134 L-293,133 L-302,132 L-309,132 L-321,128 L-327,124 Z " fill="#000000" transform="translate(458,156)"/>
</svg>
