<?xml version="1.0" encoding="UTF-8"?>
<!-- Generator: visioncortex VTracer 0.6.12 -->
<svg version="1.1" xmlns="http://www.w3.org/2000/svg" width="843" height="858">
<path d="M0,0 L23,0 L36,4 L50,11 L62,20 L70,30 L76,39 L83,60 L83,84 L80,96 L76,107 L73,111 L68,120 L59,130 L40,143 L24,148 L19,149 L-7,149 L-20,145 L-37,135 L-47,126 L-56,114 L-62,102 L-66,86 L-67,79 L-66,61 L-59,41 L-53,31 L-44,21 L-35,14 L-21,6 Z M0,19 L-7,21 L-10,24 L-9,29 L-4,38 L6,47 L7,50 L7,59 L4,66 L1,78 L-4,83 L-20,85 L-32,88 L-38,92 L-42,97 L-41,105 L-37,111 L-35,111 L-35,113 L-24,122 L-19,126 L-4,131 L20,131 L31,127 L39,123 L48,116 L49,113 L51,113 L58,103 L64,90 L65,85 L65,61 L62,51 L57,41 L46,30 L37,24 L25,20 L19,19 Z " fill="#000000" transform="translate(253,32)"/>
<path d="M0,0 L7,1 L20,14 L20,16 L22,16 L29,24 L43,38 L50,46 L62,59 L67,64 L76,74 L84,82 L89,87 L98,98 L110,110 L110,112 L113,113 L113,115 L117,117 L127,124 L132,133 L141,143 L149,151 L157,158 L162,168 L160,178 L155,188 L150,200 L144,213 L130,244 L124,260 L117,277 L109,295 L100,316 L93,331 L82,359 L76,371 L72,375 L70,386 L59,413 L51,433 L45,445 L42,455 L37,467 L32,471 L24,473 L5,470 L-6,470 L-10,474 L-9,483 L-5,496 L2,516 L5,524 L12,545 L16,554 L19,563 L28,589 L35,607 L42,628 L49,643 L55,664 L61,679 L65,690 L73,714 L81,733 L88,742 L96,748 L107,755 L118,762 L130,770 L145,780 L159,788 L165,794 L164,799 L159,801 L123,800 L83,798 L45,797 L30,796 L-15,795 L-25,790 L-33,775 L-39,761 L-49,742 L-58,722 L-66,706 L-68,700 L-77,699 L-79,705 L-81,712 L-84,729 L-93,781 L-96,787 L-100,790 L-103,791 L-121,791 L-127,788 L-130,783 L-130,771 L-129,746 L-131,736 L-135,733 L-148,731 L-194,729 L-271,727 L-297,726 L-303,725 L-307,726 L-323,726 L-327,725 L-363,724 L-419,723 L-460,721 L-475,722 L-484,724 L-487,727 L-489,732 L-490,742 L-491,765 L-494,774 L-500,779 L-525,779 L-534,778 L-538,775 L-538,754 L-537,749 L-536,710 L-539,685 L-541,673 L-544,647 L-548,625 L-551,598 L-556,567 L-557,553 L-562,525 L-564,507 L-567,492 L-570,464 L-574,440 L-577,413 L-581,392 L-584,367 L-588,341 L-592,315 L-595,296 L-596,284 L-596,251 L-595,234 L-592,217 L-587,200 L-580,188 L-571,178 L-563,171 L-548,163 L-537,159 L-518,159 L-501,164 L-487,172 L-475,180 L-469,184 L-464,186 L-458,186 L-452,182 L-446,175 L-439,167 L-436,166 L-422,166 L-405,170 L-393,174 L-380,179 L-358,191 L-346,201 L-331,212 L-331,214 L-327,216 L-315,230 L-307,238 L-300,246 L-296,248 L-284,248 L-267,243 L-241,235 L-217,228 L-201,223 L-191,219 L-183,210 L-174,196 L-165,187 L-162,179 L-159,156 L-156,135 L-151,110 L-148,107 L-145,106 L-135,106 L-104,112 L-88,115 L-73,116 L-66,113 L-58,101 L-52,90 L-39,67 L-32,53 L-26,41 L-20,29 L-16,21 L-9,10 L-2,1 Z M1,37 L-2,41 L-8,52 L-14,63 L-22,77 L-30,92 L-35,104 L-39,115 L-40,120 L-35,124 L-20,128 L-7,130 L27,136 L51,140 L64,142 L93,147 L103,147 L105,145 L104,141 L97,133 L88,124 L81,116 L74,109 L73,107 L71,107 L69,103 L60,93 L55,86 L50,81 L44,76 L37,68 L9,40 L6,37 Z M-124,127 L-129,130 L-131,133 L-134,162 L-137,176 L-138,192 L-135,198 L-128,205 L-123,212 L-119,225 L-118,232 L-118,245 L-121,259 L-130,274 L-140,283 L-157,293 L-162,299 L-171,320 L-177,335 L-179,343 L-178,349 L-174,351 L-168,352 L-110,354 L-53,357 L-39,358 L-29,362 L-26,365 L-23,373 L-23,382 L-27,405 L-28,407 L-29,419 L-29,431 L-26,438 L-22,441 L9,447 L21,447 L24,444 L35,423 L39,411 L47,393 L55,374 L70,341 L75,329 L80,319 L88,298 L96,278 L100,270 L106,254 L114,234 L121,218 L126,202 L130,193 L135,177 L134,172 L126,168 L105,164 L87,160 L56,155 L40,153 L24,150 L-26,142 L-57,137 L-71,135 L-88,132 L-109,129 Z M-150,207 L-160,210 L-170,216 L-175,224 L-176,236 L-172,256 L-169,271 L-164,276 L-156,276 L-146,270 L-140,265 L-135,259 L-131,248 L-130,242 L-130,233 L-133,220 L-137,212 L-144,208 Z M-202,302 L-221,311 L-230,315 L-247,324 L-251,328 L-251,336 L-247,344 L-242,347 L-231,349 L-213,349 L-208,344 L-202,332 L-196,316 L-193,308 L-194,303 L-196,302 Z " fill="#000000" transform="translate(627,30)"/>
</svg>
