<?xml version="1.0" encoding="UTF-8"?>
<!-- Generator: visioncortex VTracer 0.6.12 -->
<svg version="1.1" xmlns="http://www.w3.org/2000/svg" width="798" height="1182">
<path d="M0,0 L8,0 L22,7 L34,18 L43,35 L45,36 L53,36 L70,29 L80,25 L86,23 L93,23 L99,30 L103,42 L103,50 L100,55 L94,59 L76,67 L74,67 L72,76 L76,90 L79,105 L79,114 L73,139 L69,148 L60,168 L56,173 L51,177 L49,180 L47,180 L47,182 L37,189 L14,200 L-4,203 L-22,203 L-44,197 L-55,191 L-60,188 L-64,183 L-72,176 L-80,167 L-89,155 L-96,144 L-98,143 L-107,144 L-119,149 L-137,155 L-145,155 L-151,152 L-156,146 L-158,140 L-158,133 L-153,124 L-147,120 L-130,114 L-120,110 L-112,104 L-112,97 L-122,79 L-124,75 L-124,64 L-117,58 L-101,50 L-89,45 L-72,37 L-61,30 L-55,26 L-44,20 L-33,13 L-20,7 L-9,2 Z M30,85 L20,89 L-1,98 L-22,107 L-41,115 L-51,120 L-60,126 L-62,131 L-61,139 L-55,149 L-51,155 L-41,162 L-28,169 L-24,170 L-1,170 L11,167 L21,161 L27,157 L36,144 L41,134 L45,116 L44,102 L41,90 L36,86 Z " fill="#000000" transform="translate(416,29)"/>
<path d="M0,0 L30,0 L64,2 L78,4 L83,9 L84,18 L85,56 L86,87 L86,151 L88,232 L89,257 L90,267 L91,304 L92,311 L93,357 L93,370 L95,387 L97,431 L99,441 L99,450 L95,453 L88,454 L79,454 L67,456 L62,453 L61,449 L59,449 L55,455 L11,457 L-5,457 L-8,458 L-67,458 L-72,455 L-73,454 L-73,403 L-74,394 L-74,374 L-76,356 L-78,347 L-79,344 L-88,346 L-97,353 L-111,361 L-120,369 L-134,378 L-145,385 L-160,392 L-168,391 L-173,386 L-176,381 L-178,372 L-183,367 L-188,363 L-204,351 L-217,343 L-223,342 L-225,342 L-227,348 L-231,371 L-238,401 L-241,411 L-246,420 L-251,445 L-249,460 L-245,472 L-240,484 L-235,496 L-230,509 L-226,517 L-218,537 L-207,559 L-202,572 L-198,578 L-193,590 L-187,605 L-181,620 L-171,644 L-167,650 L-158,675 L-152,691 L-147,699 L-143,713 L-135,726 L-128,743 L-118,762 L-115,770 L-107,783 L-101,800 L-92,820 L-86,832 L-83,840 L-75,855 L-65,879 L-60,887 L-56,896 L-52,904 L-44,924 L-37,938 L-31,950 L-26,962 L-21,974 L-16,981 L-11,993 L-8,999 L-8,1005 L-10,1007 L-65,1007 L-76,1008 L-85,1005 L-87,1002 L-88,996 L-92,996 L-92,1004 L-95,1006 L-114,1006 L-180,1004 L-185,1002 L-188,995 L-197,974 L-201,965 L-209,949 L-213,939 L-220,925 L-224,913 L-236,889 L-245,866 L-251,856 L-256,841 L-259,834 L-267,818 L-272,808 L-276,799 L-281,787 L-289,771 L-297,755 L-307,734 L-316,714 L-329,688 L-333,678 L-337,676 L-342,681 L-346,698 L-354,722 L-356,730 L-362,748 L-368,767 L-377,797 L-381,811 L-385,827 L-390,842 L-401,878 L-404,889 L-411,911 L-416,931 L-423,954 L-427,968 L-432,989 L-435,996 L-436,1007 L-439,1010 L-450,1011 L-476,1012 L-521,1015 L-544,1016 L-564,1018 L-599,1020 L-612,1021 L-614,1018 L-611,1012 L-608,1000 L-604,988 L-600,972 L-596,961 L-593,953 L-590,941 L-586,931 L-581,912 L-575,894 L-571,883 L-568,869 L-564,856 L-561,846 L-557,834 L-553,817 L-545,791 L-537,764 L-533,751 L-527,732 L-518,702 L-511,677 L-505,658 L-500,638 L-495,619 L-490,604 L-486,589 L-479,569 L-472,541 L-467,529 L-463,511 L-457,492 L-450,468 L-443,444 L-439,429 L-432,407 L-429,394 L-427,383 L-420,358 L-410,327 L-404,304 L-401,297 L-398,285 L-394,273 L-391,259 L-385,241 L-378,216 L-372,191 L-366,176 L-360,164 L-355,151 L-345,132 L-337,118 L-330,108 L-326,105 L-319,106 L-311,113 L-307,118 L-299,125 L-288,135 L-279,142 L-274,147 L-267,154 L-253,165 L-240,176 L-232,184 L-223,190 L-214,199 L-205,206 L-194,216 L-183,224 L-175,231 L-175,233 L-170,235 L-157,246 L-148,250 L-140,249 L-125,239 L-109,230 L-100,223 L-86,213 L-82,208 L-82,198 L-87,193 L-97,186 L-103,182 L-113,175 L-127,168 L-134,168 L-138,172 L-145,185 L-150,186 L-167,181 L-172,178 L-173,176 L-173,150 L-175,144 L-185,143 L-196,143 L-199,140 L-198,124 L-193,111 L-188,101 L-182,89 L-179,86 L-172,86 L-165,92 L-159,101 L-159,103 L-153,103 L-151,102 L-150,85 L-145,73 L-141,69 L-131,69 L-121,72 L-116,77 L-115,82 L-117,94 L-123,113 L-124,122 L-122,126 L-110,132 L-97,137 L-91,140 L-85,140 L-83,137 L-83,95 L-85,61 L-85,42 L-87,14 L-84,5 L-80,2 L-77,1 L-17,1 Z " fill="#000000" transform="translate(671,135)"/>
<path d="M0,0 L3,0 L3,3 L-1,2 Z " fill="#000000" transform="translate(31,616)"/>
</svg>
