<?xml version="1.0" encoding="UTF-8"?>
<!-- Generator: visioncortex VTracer 0.6.12 -->
<svg version="1.1" xmlns="http://www.w3.org/2000/svg" width="534" height="1245">
<path d="M0,0 L8,0 L12,3 L17,35 L21,53 L24,55 L33,55 L45,52 L53,52 L57,57 L58,69 L54,73 L33,78 L29,81 L28,112 L24,128 L16,144 L7,155 L2,160 L-6,166 L-22,174 L-38,177 L-60,177 L-73,173 L-83,169 L-94,162 L-106,151 L-112,143 L-120,126 L-126,111 L-131,108 L-139,108 L-143,109 L-151,109 L-155,107 L-157,102 L-157,91 L-152,87 L-135,82 L-133,80 L-134,69 L-138,43 L-137,30 L-132,25 L-124,22 L-104,19 L-85,15 L-76,13 L-63,11 L-46,8 L-35,6 L-17,4 Z M-6,84 L-29,87 L-54,92 L-75,96 L-97,101 L-101,105 L-100,113 L-96,126 L-90,134 L-82,143 L-70,150 L-58,154 L-52,155 L-43,155 L-28,152 L-16,146 L-3,133 L3,124 L7,111 L8,107 L8,96 L6,87 L3,84 Z " fill="#000000" transform="translate(335,47)"/>
<path d="M0,0 L80,0 L110,1 L124,4 L133,7 L142,13 L146,19 L152,34 L156,48 L158,63 L161,84 L162,100 L165,126 L167,136 L171,179 L176,208 L177,227 L180,250 L179,260 L169,279 L164,287 L160,295 L157,300 L146,324 L138,338 L130,354 L122,369 L116,385 L110,394 L106,403 L101,416 L95,425 L90,433 L86,442 L84,454 L84,487 L82,513 L81,519 L79,544 L77,567 L76,589 L74,608 L73,622 L72,652 L69,700 L65,743 L64,767 L63,774 L62,792 L60,805 L58,832 L56,852 L56,871 L54,881 L52,912 L50,935 L50,949 L53,959 L57,969 L57,976 L53,979 L50,980 L40,980 L36,979 L8,979 L3,980 L-21,980 L-39,978 L-51,976 L-54,973 L-58,957 L-58,946 L-57,939 L-55,906 L-53,841 L-53,706 L-52,667 L-52,514 L-53,512 L-58,513 L-66,526 L-72,539 L-76,548 L-80,560 L-84,571 L-93,592 L-97,600 L-102,615 L-109,633 L-113,644 L-118,655 L-120,663 L-125,676 L-130,688 L-134,703 L-138,719 L-143,743 L-145,750 L-147,763 L-151,776 L-156,802 L-162,822 L-164,835 L-166,844 L-169,868 L-172,884 L-174,901 L-175,916 L-176,921 L-177,935 L-178,940 L-179,956 L-182,969 L-184,972 L-192,973 L-277,971 L-282,970 L-296,969 L-299,966 L-297,961 L-283,947 L-277,942 L-275,942 L-272,931 L-271,907 L-269,891 L-267,864 L-264,825 L-262,803 L-261,796 L-260,774 L-255,735 L-251,701 L-249,676 L-246,660 L-245,646 L-241,627 L-239,606 L-238,601 L-237,585 L-232,555 L-229,536 L-225,524 L-222,508 L-218,489 L-218,480 L-225,464 L-230,445 L-236,424 L-237,405 L-237,324 L-236,287 L-235,233 L-235,207 L-234,190 L-233,85 L-232,71 L-231,66 L-229,42 L-225,27 L-220,17 L-216,12 L-204,6 L-196,4 L-175,2 L-110,2 L-77,4 L-72,8 L-61,30 L-57,42 L-54,50 L-49,62 L-42,75 L-38,76 L-34,72 L-20,44 L-8,16 L-5,5 Z M-203,237 L-204,242 L-203,243 L-198,243 L-199,239 Z M-120,266 L-124,270 L-123,274 L-116,280 L-114,281 L-108,281 L-105,278 L-105,272 L-110,268 L-114,266 Z M-95,277 L-98,281 L-96,288 L-92,291 L-83,291 L-81,288 L-82,282 L-86,278 Z M-68,284 L-72,288 L-72,295 L-67,299 L-61,300 L-56,296 L-57,289 L-62,285 Z M15,283 L10,286 L10,291 L12,293 L19,293 L22,290 L22,285 Z M-40,289 L-45,292 L-46,299 L-43,303 L-40,304 L-32,304 L-29,301 L-29,295 L-34,290 Z M-16,289 L-20,292 L-20,298 L-17,301 L-10,302 L-5,300 L-4,298 L-4,292 L-7,289 Z M-211,398 L-216,401 L-217,402 L-217,416 L-215,437 L-212,441 L-207,440 L-203,430 L-196,406 L-197,401 L-204,398 Z " fill="#000000" transform="translate(327,238)"/>
</svg>
