<?xml version="1.0" encoding="UTF-8"?>
<!-- Generator: visioncortex VTracer 0.6.12 -->
<svg version="1.1" xmlns="http://www.w3.org/2000/svg" width="1179" height="1299">
<path d="M0,0 L17,1 L32,5 L49,13 L61,22 L66,27 L67,30 L70,31 L76,42 L82,52 L87,64 L89,66 L96,66 L109,60 L120,55 L125,57 L127,62 L125,66 L121,70 L118,76 L112,81 L93,92 L89,98 L84,115 L78,129 L71,139 L69,142 L67,142 L65,146 L57,154 L40,165 L26,171 L17,173 L-11,173 L-23,170 L-35,165 L-50,156 L-54,153 L-54,151 L-58,149 L-66,140 L-75,126 L-84,106 L-90,102 L-105,98 L-113,96 L-119,95 L-130,95 L-132,97 L-133,104 L-134,125 L-137,140 L-141,149 L-147,158 L-150,162 L-152,162 L-154,166 L-162,173 L-170,179 L-174,183 L-173,186 L-167,185 L-143,174 L-109,163 L-95,160 L-91,159 L-83,159 L-75,166 L-63,188 L-56,201 L-50,210 L-44,221 L-38,232 L-32,241 L-32,243 L-24,244 L-16,230 L-12,219 L-10,211 L-1,205 L4,208 L15,229 L24,244 L28,245 L33,241 L38,232 L48,214 L53,202 L62,185 L65,179 L71,169 L76,166 L84,166 L112,172 L131,177 L141,181 L154,186 L170,196 L178,203 L183,208 L191,218 L195,226 L204,253 L208,266 L217,295 L221,308 L227,324 L229,326 L235,326 L244,322 L253,324 L265,332 L273,336 L280,336 L283,333 L287,322 L293,307 L293,303 L283,299 L273,290 L272,288 L272,282 L275,279 L279,270 L277,265 L265,259 L260,256 L259,251 L265,242 L273,232 L282,221 L286,216 L288,216 L290,212 L295,207 L300,208 L305,216 L310,226 L315,227 L322,219 L324,219 L324,217 L330,216 L339,223 L342,227 L342,233 L335,245 L335,252 L346,262 L350,268 L352,276 L352,284 L349,293 L344,298 L334,304 L326,316 L315,339 L311,347 L311,354 L315,360 L323,367 L331,378 L334,387 L335,395 L334,404 L329,413 L324,417 L310,424 L307,431 L304,444 L297,451 L290,455 L282,464 L273,465 L263,465 L259,467 L257,471 L258,477 L265,489 L268,498 L271,515 L270,526 L268,529 L262,530 L250,524 L230,512 L220,507 L209,500 L191,490 L182,484 L167,476 L163,472 L165,467 L171,461 L172,455 L166,438 L157,417 L147,394 L144,388 L137,387 L135,402 L131,419 L131,432 L137,450 L142,468 L150,493 L158,520 L167,547 L174,550 L180,551 L228,551 L285,550 L324,550 L332,551 L346,550 L386,549 L424,549 L451,552 L455,556 L457,561 L456,622 L455,668 L455,792 L454,876 L453,890 L453,905 L454,909 L454,990 L453,1009 L453,1061 L447,1086 L444,1096 L441,1098 L422,1099 L350,1099 L334,1100 L273,1100 L268,1099 L246,1100 L198,1100 L27,1099 L14,1100 L-3,1100 L-22,1099 L-75,1099 L-85,1097 L-87,1095 L-88,1089 L-88,973 L-87,924 L-87,751 L-88,748 L-93,749 L-100,768 L-108,785 L-115,799 L-118,806 L-123,818 L-132,838 L-136,847 L-141,859 L-154,889 L-159,900 L-163,910 L-167,918 L-175,935 L-180,947 L-192,973 L-201,993 L-208,1007 L-213,1020 L-218,1032 L-228,1051 L-236,1071 L-244,1087 L-247,1093 L-251,1096 L-269,1097 L-309,1097 L-337,1096 L-348,1095 L-352,1092 L-353,1089 L-353,1081 L-348,1060 L-345,1052 L-341,1039 L-337,1029 L-335,1019 L-332,1011 L-325,990 L-320,973 L-315,957 L-308,934 L-301,911 L-299,896 L-297,887 L-292,879 L-287,864 L-282,849 L-276,827 L-270,808 L-264,788 L-258,767 L-250,743 L-247,731 L-240,709 L-238,700 L-230,675 L-223,652 L-223,641 L-233,627 L-238,618 L-243,606 L-246,589 L-247,573 L-245,552 L-242,537 L-238,528 L-234,515 L-229,504 L-225,490 L-219,473 L-209,445 L-206,436 L-202,424 L-195,405 L-188,385 L-179,358 L-174,343 L-168,327 L-165,318 L-164,312 L-164,304 L-165,303 L-175,303 L-190,305 L-219,310 L-263,317 L-278,319 L-289,321 L-310,321 L-326,317 L-339,310 L-351,301 L-358,292 L-363,283 L-366,275 L-367,246 L-362,233 L-355,222 L-352,219 L-350,219 L-350,217 L-341,210 L-339,210 L-339,208 L-319,197 L-307,190 L-296,184 L-281,176 L-267,168 L-247,156 L-231,147 L-221,141 L-210,135 L-206,130 L-205,126 L-203,57 L-200,46 L-195,41 L-184,37 L-146,25 L-121,17 L-110,14 L-104,15 L-102,18 L-102,31 L-103,34 L-103,44 L-101,46 L-94,46 L-76,42 L-68,35 L-62,28 L-54,21 L-45,14 L-29,6 L-18,2 Z M-1,23 L-14,25 L-33,34 L-46,45 L-54,57 L-59,70 L-61,84 L-61,94 L-57,109 L-53,118 L-43,131 L-32,139 L-16,147 L-2,150 L8,150 L25,145 L35,140 L45,131 L50,126 L54,121 L56,114 L55,111 L48,111 L34,117 L27,117 L24,115 L24,109 L25,105 L29,103 L43,96 L53,90 L61,84 L63,81 L62,70 L59,61 L53,50 L45,41 L35,33 L25,27 L10,23 Z M-128,33 L-153,40 L-170,45 L-186,51 L-189,56 L-190,60 L-191,105 L-191,161 L-188,166 L-186,167 L-180,167 L-167,157 L-162,153 L-158,148 L-150,129 L-148,120 L-147,90 L-146,77 L-142,71 L-132,60 L-121,43 L-120,35 L-123,33 Z M242,337 L237,340 L228,352 L223,363 L222,367 L222,375 L226,387 L229,390 L234,389 L239,383 L241,378 L243,367 L250,356 L253,350 L253,342 L249,338 Z M269,352 L263,355 L255,364 L250,372 L248,384 L240,401 L234,418 L235,426 L240,434 L248,440 L264,448 L271,450 L279,446 L289,436 L295,418 L301,411 L309,407 L314,404 L318,396 L318,387 L312,376 L305,369 L297,363 L288,357 L274,352 Z " fill="#000000" transform="translate(430,58)"/>
<path d="M0,0 L46,0 L47,1 L47,6 L46,7 L24,8 L-41,8 L-137,9 L-267,10 L-290,10 L-354,11 L-386,11 L-508,12 L-630,13 L-655,13 L-725,14 L-915,16 L-954,16 L-1118,18 L-1120,17 L-1120,11 L-1119,10 L-920,8 L-895,8 L-816,7 L-682,6 L-477,4 L-456,4 L-358,3 L-321,3 L-272,2 L-229,2 L-116,1 Z " fill="#000000" transform="translate(1129,1240)"/>
</svg>
