<?xml version="1.0" encoding="UTF-8"?>
<!-- Generator: visioncortex VTracer 0.6.12 -->
<svg version="1.1" xmlns="http://www.w3.org/2000/svg" width="1062" height="1002">
<path d="M0,0 L4,2 L3,10 L0,11 L-1,9 L-1,1 Z " fill="#000000" transform="translate(628,35)"/>
<path d="M0,0 L8,0 L10,3 L9,17 L6,34 L5,36 L5,47 L9,56 L14,60 L23,80 L32,90 L39,104 L46,115 L56,130 L71,154 L82,173 L92,189 L99,199 L101,204 L101,213 L96,221 L88,229 L83,234 L78,239 L66,253 L59,261 L51,268 L46,273 L42,275 L34,275 L26,271 L20,267 L13,263 L2,254 L-6,247 L-14,242 L-22,236 L-29,232 L-41,233 L-45,236 L-47,236 L-49,240 L-57,256 L-63,275 L-68,295 L-70,307 L-73,323 L-76,335 L-79,350 L-82,362 L-88,380 L-93,395 L-95,399 L-97,407 L-106,428 L-116,444 L-127,463 L-132,472 L-135,476 L-137,476 L-139,480 L-146,486 L-153,497 L-157,504 L-159,517 L-160,532 L-162,548 L-164,562 L-166,593 L-165,602 L-166,607 L-167,641 L-169,681 L-169,741 L-170,748 L-168,755 L-168,765 L-171,778 L-171,791 L-166,803 L-157,816 L-153,825 L-147,834 L-146,842 L-151,847 L-157,849 L-177,849 L-199,850 L-205,848 L-222,848 L-239,846 L-245,843 L-249,838 L-259,822 L-264,818 L-267,813 L-273,809 L-276,805 L-276,789 L-274,785 L-271,764 L-269,753 L-265,733 L-259,694 L-256,678 L-252,648 L-249,633 L-247,629 L-245,611 L-244,603 L-246,591 L-249,584 L-255,570 L-259,558 L-267,543 L-276,535 L-277,533 L-286,534 L-301,537 L-314,539 L-345,542 L-349,544 L-392,546 L-418,545 L-450,545 L-470,543 L-475,541 L-489,539 L-497,536 L-511,534 L-526,529 L-543,523 L-547,521 L-554,521 L-564,524 L-572,529 L-579,535 L-591,541 L-602,546 L-615,555 L-634,564 L-644,568 L-662,574 L-677,578 L-686,580 L-704,582 L-706,583 L-715,584 L-723,588 L-727,596 L-729,617 L-731,625 L-732,638 L-733,641 L-734,666 L-736,691 L-738,706 L-739,719 L-738,725 L-740,749 L-741,769 L-741,785 L-739,797 L-733,809 L-729,815 L-724,827 L-721,831 L-719,837 L-719,846 L-725,850 L-744,852 L-748,851 L-788,851 L-792,852 L-802,849 L-807,845 L-815,827 L-822,816 L-829,809 L-836,801 L-849,793 L-854,790 L-860,789 L-862,785 L-861,769 L-856,754 L-853,744 L-851,734 L-847,718 L-842,699 L-840,687 L-837,678 L-828,644 L-826,637 L-825,628 L-822,620 L-818,602 L-813,585 L-810,575 L-807,556 L-801,533 L-798,519 L-794,513 L-781,509 L-772,504 L-762,496 L-754,489 L-750,483 L-747,479 L-742,467 L-740,456 L-740,446 L-742,442 L-752,439 L-772,437 L-790,435 L-806,431 L-814,429 L-819,424 L-819,407 L-816,387 L-809,369 L-801,347 L-787,323 L-777,308 L-768,297 L-755,282 L-748,274 L-739,268 L-727,259 L-715,251 L-702,245 L-692,240 L-679,236 L-668,232 L-649,229 L-634,227 L-600,226 L-593,227 L-575,228 L-569,230 L-553,232 L-538,236 L-529,238 L-513,242 L-500,245 L-471,247 L-402,247 L-388,244 L-369,243 L-363,241 L-346,238 L-331,232 L-314,226 L-307,223 L-297,217 L-288,213 L-277,205 L-268,198 L-263,188 L-258,172 L-254,161 L-251,151 L-245,138 L-242,130 L-232,112 L-226,103 L-218,92 L-211,85 L-205,77 L-192,65 L-179,55 L-174,51 L-158,42 L-143,34 L-131,30 L-127,28 L-111,27 L-103,25 L-92,25 L-63,27 L-40,27 L-34,23 L-25,18 L-14,9 Z M-4,120 L-8,124 L-8,129 L-3,132 L1,129 L1,123 L-2,120 Z M-206,123 L-208,126 L-207,128 L-202,127 L-204,123 Z " fill="#000000" transform="translate(927,116)"/>
<path d="M0,0 L3,2 L8,14 L11,25 L12,37 L7,50 L2,56 L0,56 Z " fill="#000000" transform="translate(0,156)"/>
</svg>
