<?xml version="1.0" encoding="UTF-8"?>
<!-- Generator: visioncortex VTracer 0.6.12 -->
<svg version="1.1" xmlns="http://www.w3.org/2000/svg" width="807" height="846">
<path d="M0,0 L6,2 L13,10 L20,20 L29,29 L36,37 L42,44 L49,52 L61,64 L67,72 L78,84 L84,92 L95,104 L102,112 L111,122 L121,133 L130,144 L135,149 L141,157 L150,166 L156,174 L164,185 L175,197 L183,207 L193,217 L202,228 L211,238 L217,246 L226,256 L231,262 L235,266 L245,279 L252,285 L261,296 L268,305 L270,314 L263,322 L253,328 L244,332 L231,338 L215,346 L187,361 L177,366 L166,371 L161,374 L158,377 L146,382 L133,389 L123,393 L103,404 L93,408 L81,416 L70,421 L62,425 L52,430 L41,434 L19,444 L12,450 L1,455 L-10,459 L-26,468 L-36,474 L-46,478 L-56,483 L-61,488 L-69,492 L-79,492 L-91,479 L-96,474 L-105,464 L-116,451 L-125,437 L-132,429 L-140,418 L-147,410 L-154,402 L-160,394 L-171,381 L-185,363 L-191,355 L-199,345 L-213,326 L-222,315 L-232,303 L-240,292 L-248,282 L-252,278 L-260,267 L-271,255 L-277,247 L-290,230 L-302,216 L-308,207 L-318,192 L-328,180 L-332,173 L-333,162 L-330,157 L-314,147 L-293,137 L-286,134 L-269,125 L-256,120 L-240,112 L-224,104 L-212,99 L-193,89 L-181,83 L-168,78 L-152,70 L-141,64 L-133,60 L-118,54 L-109,49 L-99,45 L-82,37 L-69,30 L-62,28 L-54,24 L-38,16 L-23,9 L-12,4 Z M6,84 L-5,88 L-39,104 L-53,111 L-63,115 L-73,121 L-93,130 L-109,138 L-125,146 L-136,152 L-145,156 L-159,163 L-170,169 L-192,180 L-201,184 L-211,190 L-229,198 L-237,205 L-238,211 L-232,223 L-220,237 L-210,251 L-206,257 L-201,263 L-197,265 L-190,264 L-184,261 L-178,259 L-165,253 L-144,243 L-141,240 L-127,233 L-120,229 L-110,224 L-99,218 L-69,204 L-53,196 L-45,192 L-29,184 L-13,176 L-4,171 L1,168 L10,165 L17,161 L47,145 L52,140 L52,133 L45,122 L35,110 L31,105 L26,100 L17,89 L11,85 Z M52,202 L33,212 L23,216 L14,220 L-2,229 L-19,237 L-38,247 L-48,252 L-69,262 L-88,272 L-102,280 L-121,290 L-123,294 L-122,301 L-117,306 L-108,306 L-100,302 L-84,294 L-75,290 L-66,285 L-58,282 L-41,273 L-23,265 L-9,257 L-1,253 L11,247 L27,239 L50,227 L60,221 L66,217 L67,207 L63,202 Z M102,256 L94,258 L78,266 L64,274 L41,285 L26,293 L22,298 L22,300 L12,300 L-4,308 L-12,312 L-26,320 L-39,325 L-48,331 L-57,335 L-61,338 L-72,342 L-80,349 L-80,355 L-74,364 L-69,368 L-63,369 L-47,361 L-39,357 L-31,353 L-21,348 L-12,344 L-5,340 L13,332 L24,325 L41,317 L57,309 L74,300 L90,292 L105,285 L114,279 L118,275 L118,268 L112,260 L108,257 Z " fill="#000000" transform="translate(389,34)"/>
<path d="M0,0 L6,1 L17,13 L26,25 L31,30 L39,39 L43,45 L52,55 L59,66 L64,72 L76,88 L85,98 L93,108 L97,114 L105,124 L112,132 L119,140 L129,155 L134,160 L137,165 L145,175 L153,185 L159,194 L164,199 L175,212 L180,218 L184,224 L194,236 L203,248 L214,260 L217,265 L223,270 L228,279 L240,293 L252,306 L259,316 L264,331 L265,346 L265,399 L264,413 L261,424 L256,425 L252,420 L244,413 L234,401 L225,390 L222,387 L222,385 L218,383 L212,375 L205,366 L200,360 L195,356 L187,344 L178,332 L164,317 L156,307 L147,297 L142,288 L133,278 L124,266 L116,256 L102,239 L94,228 L86,220 L80,212 L70,199 L61,187 L54,178 L43,165 L39,159 L38,156 L34,154 L28,147 L22,138 L18,133 L10,122 L2,109 L-2,101 L-3,86 L-4,40 L-5,28 L-5,17 L-3,4 Z " fill="#000000" transform="translate(41,211)"/>
<path d="M0,0 L6,0 L12,6 L14,14 L15,53 L15,66 L21,78 L30,88 L37,96 L46,106 L49,111 L54,116 L65,130 L77,143 L82,147 L92,160 L96,165 L96,167 L99,168 L106,176 L113,185 L115,194 L115,210 L116,217 L116,242 L117,262 L117,277 L114,283 L94,294 L80,301 L75,304 L60,312 L51,316 L35,324 L20,332 L10,336 L4,341 L-5,345 L-18,352 L-20,354 L-31,358 L-40,363 L-50,367 L-72,379 L-80,384 L-92,390 L-96,393 L-106,397 L-113,402 L-120,405 L-130,411 L-151,421 L-160,427 L-170,431 L-192,444 L-200,449 L-204,451 L-211,450 L-220,442 L-227,434 L-235,425 L-243,414 L-254,402 L-262,392 L-269,384 L-277,374 L-289,361 L-295,353 L-302,343 L-306,339 L-306,337 L-308,337 L-315,329 L-326,317 L-340,299 L-344,294 L-348,286 L-351,283 L-351,278 L-346,277 L-342,280 L-342,282 L-338,284 L-328,296 L-321,304 L-314,312 L-307,320 L-297,331 L-293,338 L-287,343 L-280,352 L-271,362 L-261,375 L-253,384 L-244,395 L-234,407 L-229,412 L-222,419 L-217,419 L-215,412 L-214,397 L-215,379 L-219,359 L-223,353 L-232,342 L-240,332 L-244,328 L-248,321 L-257,312 L-264,302 L-275,291 L-282,282 L-292,270 L-301,259 L-310,249 L-319,238 L-330,227 L-337,215 L-338,211 L-339,192 L-338,178 L-334,171 L-326,166 L-312,158 L-285,145 L-270,137 L-247,124 L-228,115 L-210,105 L-200,99 L-189,94 L-173,87 L-156,78 L-135,68 L-122,60 L-113,57 L-108,53 L-92,45 L-77,36 L-68,33 L-56,28 L-45,23 L-36,18 L-26,13 L-15,7 Z M-9,18 L-15,22 L-16,24 L-16,33 L-9,43 L-5,46 L0,44 L2,35 L1,23 L-4,18 Z M-39,35 L-56,43 L-60,49 L-59,56 L-51,67 L-46,73 L-38,83 L-31,92 L-29,92 L-27,96 L-20,105 L-16,110 L-7,121 L0,130 L13,143 L20,151 L29,162 L38,173 L46,184 L58,197 L66,205 L69,207 L76,207 L87,203 L97,196 L98,194 L98,186 L91,176 L84,168 L77,160 L70,153 L59,139 L52,132 L45,124 L35,112 L30,107 L22,96 L16,88 L7,77 L-1,70 L-6,65 L-17,52 L-23,44 L-31,37 L-36,35 Z M-130,89 L-139,92 L-150,98 L-158,107 L-162,118 L-163,119 L-163,138 L-158,147 L-155,150 L-148,150 L-131,144 L-127,143 L-110,143 L-97,147 L-90,146 L-85,136 L-85,121 L-92,107 L-99,99 L-104,95 L-117,90 Z M-263,151 L-278,156 L-297,166 L-308,172 L-313,177 L-314,179 L-314,191 L-310,202 L-303,211 L-294,217 L-285,220 L-282,222 L-271,222 L-262,220 L-251,214 L-243,206 L-238,197 L-236,189 L-236,178 L-240,167 L-245,159 L-253,153 L-257,151 Z M-127,154 L-140,159 L-147,166 L-154,180 L-155,188 L-153,194 L-145,207 L-142,216 L-138,224 L-132,229 L-123,232 L-107,232 L-95,226 L-90,221 L-84,213 L-81,203 L-80,198 L-80,184 L-83,176 L-91,165 L-102,157 L-115,154 Z M-33,159 L-43,161 L-52,167 L-57,172 L-63,181 L-66,188 L-67,194 L-67,202 L-63,214 L-53,228 L-45,233 L-36,237 L-22,237 L-7,230 L2,222 L6,216 L10,213 L11,208 L10,188 L3,174 L-1,169 L-10,163 L-19,160 Z M-200,191 L-210,195 L-220,204 L-227,218 L-228,221 L-228,236 L-225,246 L-218,256 L-212,261 L-203,267 L-193,269 L-181,269 L-172,267 L-164,261 L-159,257 L-155,251 L-150,237 L-150,228 L-155,211 L-164,201 L-172,195 L-180,191 Z M93,210 L78,218 L74,221 L58,229 L34,240 L25,245 L18,248 L14,251 L8,254 L4,257 L-6,261 L-15,265 L-25,271 L-32,275 L-48,281 L-63,290 L-79,298 L-84,301 L-100,309 L-116,317 L-122,320 L-128,322 L-140,329 L-149,333 L-166,342 L-171,345 L-183,352 L-190,355 L-199,361 L-202,366 L-203,381 L-203,406 L-201,423 L-197,428 L-188,427 L-171,418 L-157,412 L-150,408 L-129,397 L-115,390 L-99,382 L-87,375 L-76,371 L-53,358 L-36,350 L-27,344 L-14,339 L-3,332 L6,328 L22,320 L33,313 L48,306 L71,295 L87,287 L101,279 L106,272 L107,263 L107,220 L105,214 L102,210 Z M-277,252 L-282,256 L-281,263 L-275,272 L-273,272 L-271,276 L-263,286 L-251,299 L-246,303 L-240,302 L-238,292 L-239,281 L-244,269 L-255,258 L-263,254 L-272,252 Z M-162,275 L-174,278 L-184,284 L-193,294 L-197,303 L-199,314 L-199,322 L-194,333 L-190,337 L-182,337 L-177,334 L-169,332 L-150,322 L-134,313 L-129,308 L-127,306 L-127,298 L-129,293 L-139,283 L-149,278 L-159,275 Z " fill="#000000" transform="translate(658,363)"/>
</svg>
