<?xml version="1.0" encoding="UTF-8"?>
<!-- Generator: visioncortex VTracer 0.6.12 -->
<svg version="1.1" xmlns="http://www.w3.org/2000/svg" width="1206" height="1206">
<path d="M0,0 L18,0 L37,1 L65,1 L75,2 L127,2 L132,3 L136,2 L207,2 L216,3 L248,4 L257,3 L270,4 L279,4 L286,5 L291,3 L304,4 L309,5 L322,4 L388,4 L431,5 L452,5 L463,6 L491,6 L501,5 L522,6 L528,7 L554,7 L594,8 L601,7 L629,8 L649,8 L654,9 L685,10 L694,11 L712,13 L717,15 L727,17 L744,22 L755,26 L773,33 L794,45 L808,55 L816,62 L827,71 L832,76 L836,81 L843,89 L852,100 L856,106 L863,114 L871,129 L881,148 L888,167 L891,179 L895,187 L897,202 L900,217 L902,237 L901,275 L900,298 L900,327 L899,347 L899,406 L898,429 L897,473 L896,497 L896,532 L895,556 L895,581 L893,690 L893,709 L892,724 L892,760 L891,767 L891,779 L890,803 L890,846 L888,885 L885,936 L881,957 L877,973 L869,994 L862,1010 L855,1018 L850,1030 L843,1038 L834,1053 L829,1057 L826,1059 L823,1066 L816,1072 L814,1072 L813,1075 L805,1081 L791,1094 L775,1103 L770,1107 L754,1115 L739,1122 L731,1125 L719,1128 L707,1133 L696,1135 L679,1136 L674,1131 L670,1131 L668,1135 L664,1138 L609,1138 L603,1137 L600,1138 L568,1138 L556,1136 L552,1137 L540,1137 L533,1136 L452,1136 L441,1135 L388,1134 L374,1134 L364,1133 L340,1134 L320,1133 L312,1132 L272,1132 L235,1131 L219,1132 L201,1131 L153,1131 L145,1130 L114,1130 L107,1129 L84,1129 L79,1127 L76,1129 L55,1129 L48,1128 L34,1128 L26,1129 L16,1127 L13,1128 L-12,1127 L-24,1127 L-39,1125 L-41,1124 L-55,1122 L-75,1116 L-80,1113 L-89,1111 L-99,1107 L-112,1100 L-132,1088 L-142,1081 L-145,1078 L-154,1072 L-159,1067 L-176,1050 L-176,1048 L-178,1048 L-182,1042 L-186,1038 L-186,1036 L-190,1034 L-193,1028 L-201,1017 L-209,1002 L-215,987 L-220,978 L-226,962 L-229,952 L-231,941 L-233,932 L-235,914 L-236,905 L-236,889 L-235,863 L-235,844 L-234,825 L-234,811 L-233,789 L-232,733 L-232,708 L-230,680 L-230,661 L-229,592 L-228,558 L-227,502 L-227,485 L-226,470 L-225,440 L-225,388 L-224,359 L-224,345 L-223,316 L-224,313 L-224,301 L-223,294 L-222,228 L-220,200 L-215,177 L-209,163 L-207,154 L-203,143 L-199,133 L-191,117 L-185,108 L-179,99 L-172,90 L-168,85 L-161,77 L-152,67 L-144,60 L-134,53 L-127,47 L-110,35 L-96,27 L-89,23 L-79,20 L-65,13 L-49,10 L-44,7 L-34,5 L-30,4 L-12,2 Z M377,145 L372,149 L371,152 L371,163 L375,199 L378,229 L379,242 L378,251 L369,258 L358,266 L340,276 L333,275 L327,273 L320,272 L311,268 L303,264 L296,261 L293,255 L293,243 L291,237 L288,216 L286,197 L284,182 L281,165 L276,159 L270,159 L257,166 L248,173 L241,181 L230,191 L222,202 L215,213 L205,235 L202,242 L200,254 L200,279 L203,294 L210,310 L214,316 L218,323 L225,330 L231,334 L239,342 L247,346 L252,350 L257,353 L263,361 L269,366 L273,371 L279,385 L281,402 L281,453 L280,493 L279,505 L279,544 L278,579 L278,608 L277,638 L276,647 L276,696 L274,746 L274,768 L273,797 L273,811 L272,822 L272,852 L270,907 L270,959 L273,968 L280,979 L283,982 L297,987 L313,989 L328,989 L336,988 L350,988 L360,984 L365,981 L373,971 L376,963 L377,951 L378,924 L379,916 L378,913 L378,890 L379,877 L379,834 L380,830 L380,805 L381,780 L381,760 L382,751 L382,706 L383,698 L383,668 L384,655 L385,614 L386,601 L386,537 L388,504 L388,449 L389,418 L391,401 L392,389 L396,377 L402,366 L411,356 L421,344 L430,337 L440,328 L445,323 L456,312 L459,305 L463,299 L470,283 L474,265 L474,242 L472,229 L468,219 L464,209 L458,202 L454,194 L446,187 L439,179 L431,172 L421,165 L411,159 L401,152 L386,145 Z M-124,662 L-122,664 L-122,662 Z M207,1085 L207,1089 L211,1088 L210,1085 Z M212,1108 L208,1112 L205,1117 L205,1121 L209,1120 L214,1115 L215,1114 L215,1109 Z " fill="#000000" transform="translate(271,36)"/>
</svg>
