<?xml version="1.0" encoding="UTF-8"?>
<!-- Generator: visioncortex VTracer 0.6.12 -->
<svg version="1.1" xmlns="http://www.w3.org/2000/svg" width="1125" height="1110">
<path d="M0,0 L1125,0 L1125,1110 L1093,1110 L1095,1108 L1109,1106 L1111,1084 L1112,1056 L1113,931 L1113,751 L1114,681 L1114,624 L1116,483 L1116,349 L1117,310 L1118,191 L1117,162 L1118,137 L1118,22 L1116,11 L1112,9 L1055,9 L988,8 L927,8 L924,7 L917,7 L915,8 L832,8 L804,7 L744,8 L677,7 L572,7 L427,6 L370,6 L250,5 L99,5 L93,4 L15,5 L12,8 L10,15 L9,136 L9,232 L8,274 L8,348 L7,408 L6,645 L6,744 L4,806 L2,813 L0,813 Z " fill="#000000" transform="translate(0,0)"/>
<path d="M0,0 L21,0 L37,6 L45,11 L55,21 L63,35 L66,47 L66,64 L63,76 L59,84 L53,92 L43,102 L35,107 L22,112 L22,116 L35,122 L44,128 L52,135 L59,145 L63,153 L66,168 L66,259 L65,337 L65,413 L64,520 L64,694 L63,796 L61,800 L55,801 L-5,801 L-17,800 L-19,797 L-19,528 L-20,516 L-25,518 L-37,538 L-41,544 L-47,555 L-57,571 L-64,583 L-72,597 L-77,607 L-78,739 L-79,796 L-83,800 L-144,800 L-160,799 L-162,796 L-162,734 L-161,721 L-161,666 L-160,629 L-157,622 L-159,616 L-160,614 L-160,582 L-157,576 L-147,560 L-141,548 L-133,534 L-126,523 L-120,511 L-114,502 L-109,494 L-103,483 L-98,475 L-89,459 L-80,444 L-66,420 L-61,411 L-51,394 L-46,385 L-45,307 L-45,162 L-41,150 L-32,136 L-25,129 L-16,123 L-3,117 L0,117 L-2,112 L-21,102 L-31,93 L-39,81 L-43,70 L-45,57 L-44,47 L-41,34 L-35,24 L-27,14 L-13,5 Z M-11,778 L-10,780 Z " fill="#000000" transform="translate(570,147)"/>
<path d="M0,0 L4,2 L4,85 L3,92 L0,93 Z " fill="#000000" transform="translate(0,818)"/>
<path d="M0,0 L3,1 L4,12 L4,48 L3,114 L2,117 L0,117 Z " fill="#000000" transform="translate(0,917)"/>
<path d="M0,0 L2,0 L3,2 L4,57 L7,62 L8,63 L20,64 L53,64 L146,65 L225,64 L229,67 L234,66 L235,65 L352,65 L386,66 L623,66 L782,67 L913,67 L1087,68 L1091,70 L1091,71 L0,71 Z " fill="#000000" transform="translate(0,1039)"/>
<path d="M0,0 L2,1 Z " fill="#000000" transform="translate(851,1087)"/>
</svg>
