<?xml version="1.0" encoding="UTF-8"?>
<!-- Generator: visioncortex VTracer 0.6.12 -->
<svg version="1.1" xmlns="http://www.w3.org/2000/svg" width="1023" height="1164">
<path d="M0,0 L16,0 L31,3 L47,11 L58,20 L65,27 L71,36 L78,56 L80,68 L79,84 L75,99 L67,114 L58,124 L49,132 L36,138 L21,143 L7,146 L-4,146 L-22,140 L-32,134 L-37,131 L-40,129 L-40,127 L-43,126 L-53,113 L-59,100 L-62,90 L-63,82 L-63,61 L-59,46 L-52,32 L-44,22 L-37,16 L-25,8 L-11,2 Z M37,33 L30,37 L26,42 L21,56 L16,76 L12,81 L5,85 L-18,88 L-28,91 L-33,96 L-35,99 L-35,106 L-27,114 L-17,120 L-9,124 L2,126 L19,126 L32,121 L43,114 L48,109 L55,103 L62,91 L64,84 L65,66 L62,54 L54,39 L48,34 Z " fill="#000000" transform="translate(393,31)"/>
<path d="M0,0 L6,0 L12,4 L23,15 L23,17 L26,18 L26,20 L29,21 L29,23 L32,24 L40,36 L47,46 L55,59 L65,78 L72,95 L77,107 L80,119 L82,131 L83,143 L83,212 L79,240 L68,281 L62,297 L55,322 L46,346 L39,365 L31,382 L27,393 L19,409 L8,429 L-3,447 L-11,463 L-17,472 L-26,489 L-32,498 L-36,507 L-38,513 L-40,527 L-45,540 L-48,571 L-49,588 L-49,609 L-51,623 L-52,645 L-54,672 L-55,679 L-56,701 L-57,727 L-58,738 L-59,762 L-63,812 L-64,839 L-65,849 L-65,857 L-66,863 L-68,912 L-68,940 L-65,946 L-47,958 L-32,968 L-14,979 L-4,988 L2,993 L2,998 L-2,1000 L-22,1001 L-115,1002 L-194,1002 L-199,998 L-202,983 L-205,943 L-208,881 L-209,875 L-210,852 L-213,824 L-214,791 L-216,771 L-217,764 L-219,711 L-220,707 L-222,674 L-225,624 L-228,584 L-230,553 L-233,532 L-236,523 L-251,510 L-260,503 L-263,497 L-268,492 L-269,489 L-269,481 L-262,462 L-257,450 L-252,438 L-247,426 L-241,411 L-236,399 L-228,380 L-221,363 L-214,348 L-204,322 L-197,303 L-192,288 L-180,261 L-169,236 L-162,224 L-154,207 L-150,200 L-145,186 L-134,165 L-128,155 L-124,147 L-113,130 L-103,116 L-95,105 L-82,87 L-73,75 L-62,60 L-53,51 L-49,45 L-41,38 L-30,28 L-23,20 L-12,11 L-4,2 Z " fill="#000000" transform="translate(300,134)"/>
<path d="M0,0 L43,0 L43,15 L32,16 L-33,19 L-39,20 L-83,21 L-95,21 L-112,23 L-130,27 L-140,31 L-143,35 L-144,40 L-143,41 L-114,41 L-75,38 L-53,36 L12,34 L31,33 L43,33 L43,48 L-9,52 L-35,53 L-78,54 L-105,57 L-111,61 L-113,63 L-114,78 L-118,93 L-122,111 L-127,130 L-132,141 L-138,153 L-148,168 L-157,182 L-167,197 L-175,209 L-181,218 L-183,219 L-192,218 L-197,214 L-199,207 L-196,200 L-181,178 L-174,168 L-161,145 L-158,139 L-158,133 L-160,131 L-165,130 L-182,130 L-187,125 L-188,122 L-188,110 L-185,104 L-181,102 L-170,101 L-151,101 L-140,99 L-134,95 L-131,90 L-127,72 L-128,67 L-132,64 L-138,62 L-166,61 L-170,58 L-170,49 L-166,38 L-160,27 L-155,22 L-153,22 L-152,19 L-145,14 L-139,12 L-122,9 L-62,4 L-38,2 L-5,1 Z " fill="#000000" transform="translate(980,174)"/>
<path d="M0,0 L30,0 L40,3 L52,9 L62,17 L68,21 L75,31 L84,52 L86,58 L87,65 L87,87 L83,101 L74,120 L64,131 L54,138 L36,148 L33,149 L34,154 L41,157 L61,162 L75,165 L78,166 L90,167 L98,170 L132,177 L146,182 L168,187 L183,191 L208,197 L218,198 L221,195 L222,171 L224,161 L227,156 L226,147 L216,132 L215,129 L211,127 L193,119 L190,115 L190,109 L194,104 L208,93 L216,86 L221,83 L226,78 L236,70 L247,62 L256,53 L269,43 L280,35 L295,22 L307,12 L313,8 L319,4 L327,4 L330,8 L328,14 L323,20 L312,29 L308,35 L303,39 L298,44 L288,52 L278,62 L270,73 L270,80 L275,82 L294,92 L301,100 L307,110 L310,117 L312,147 L317,158 L319,171 L321,188 L322,207 L323,211 L324,227 L327,231 L327,233 L333,235 L341,235 L346,233 L349,233 L349,254 L336,253 L329,256 L327,260 L327,309 L322,319 L318,324 L307,330 L304,331 L286,331 L267,329 L247,326 L229,323 L222,321 L207,319 L170,311 L151,305 L119,297 L109,294 L103,297 L101,302 L98,314 L93,332 L88,351 L84,365 L84,377 L88,381 L92,382 L125,382 L190,380 L213,379 L290,377 L349,375 L349,406 L318,407 L303,407 L248,409 L238,410 L181,412 L175,413 L143,414 L87,415 L77,417 L75,421 L76,428 L81,430 L98,433 L122,436 L133,438 L152,440 L156,441 L175,442 L195,445 L210,447 L248,450 L259,454 L265,458 L268,465 L269,484 L267,498 L265,519 L264,539 L261,562 L255,635 L253,661 L252,667 L249,708 L247,725 L245,750 L243,769 L241,806 L242,816 L245,822 L255,832 L263,838 L268,843 L277,851 L286,858 L297,866 L303,871 L307,878 L306,883 L300,885 L141,885 L80,886 L40,885 L7,885 L-28,882 L-56,882 L-60,878 L-60,865 L-59,860 L-59,807 L-58,576 L-59,572 L-61,571 L-79,571 L-87,572 L-110,572 L-132,573 L-209,573 L-239,572 L-259,572 L-268,574 L-273,577 L-275,583 L-276,592 L-276,853 L-279,881 L-282,887 L-285,889 L-296,890 L-303,887 L-306,883 L-307,878 L-307,853 L-306,794 L-305,779 L-304,672 L-303,588 L-303,533 L-302,482 L-302,471 L-301,453 L-301,402 L-302,379 L-302,356 L-301,338 L-301,269 L-299,254 L-295,250 L-285,247 L-273,246 L-242,245 L-184,244 L-176,242 L-170,238 L-166,227 L-155,200 L-144,183 L-137,176 L-131,168 L-123,161 L-115,154 L-107,150 L-97,148 L-89,147 L-69,146 L-39,146 L-20,148 L-16,147 L-15,143 L-20,141 L-30,134 L-37,126 L-43,119 L-51,104 L-55,90 L-57,75 L-57,63 L-52,44 L-46,33 L-37,21 L-27,11 L-11,3 Z M63,58 L58,63 L50,71 L48,84 L43,89 L33,96 L29,100 L24,110 L21,122 L24,125 L33,124 L49,116 L60,106 L65,98 L70,86 L71,69 L69,60 L67,58 Z M243,95 L236,99 L230,107 L228,112 L228,118 L233,126 L241,130 L247,137 L250,142 L252,143 L264,142 L284,138 L289,132 L289,120 L287,111 L282,106 L273,100 L249,95 Z M-128,276 L-176,277 L-181,278 L-199,279 L-206,280 L-231,280 L-260,281 L-269,284 L-271,287 L-272,325 L-270,338 L-265,342 L-262,343 L-224,343 L-131,341 L-91,341 L-87,340 L-74,340 L-68,343 L-65,349 L-64,355 L-63,402 L-62,423 L-62,506 L-61,524 L-61,559 L-59,566 L-56,568 L-48,570 L-45,574 L-43,582 L-41,637 L-41,682 L-42,753 L-41,772 L-42,814 L-41,831 L-39,836 L-37,836 L-34,829 L-32,811 L-29,767 L-27,747 L-23,693 L-19,639 L-19,615 L-18,603 L-18,581 L-20,574 L-24,571 L-34,568 L-37,563 L-38,558 L-39,530 L-40,462 L-40,444 L-42,422 L-42,410 L-43,378 L-44,358 L-44,346 L-43,326 L-44,294 L-46,281 L-49,279 L-57,278 L-86,277 L-102,276 Z M-212,375 L-250,377 L-265,379 L-271,382 L-273,386 L-274,398 L-274,419 L-275,468 L-275,525 L-272,532 L-268,534 L-260,535 L-246,535 L-230,534 L-225,530 L-223,526 L-218,504 L-216,489 L-213,475 L-206,435 L-204,425 L-201,408 L-199,385 L-201,378 L-203,376 Z M-26,557 L-26,559 L-24,559 L-24,557 Z M121,567 L108,568 L102,573 L99,583 L96,604 L96,614 L94,631 L91,673 L90,696 L89,701 L87,730 L86,740 L85,764 L84,772 L82,807 L82,823 L85,830 L90,836 L104,845 L110,845 L113,842 L116,827 L119,794 L121,779 L122,759 L126,719 L129,688 L132,659 L135,612 L136,605 L137,578 L134,571 L128,568 Z " fill="#000000" transform="translate(674,239)"/>
</svg>
