<?xml version="1.0" encoding="UTF-8"?>
<!-- Generator: visioncortex VTracer 0.6.12 -->
<svg version="1.1" xmlns="http://www.w3.org/2000/svg" width="1110" height="1245">
<path d="M0,0 L15,1 L18,7 L18,22 L17,54 L17,105 L18,133 L18,261 L19,307 L19,382 L20,406 L20,429 L21,493 L22,554 L21,574 L22,581 L23,619 L23,669 L24,729 L24,799 L25,824 L25,877 L26,940 L26,951 L27,974 L27,1004 L24,1010 L21,1011 L5,1012 L-33,1012 L-40,1011 L-43,1012 L-55,1012 L-78,1013 L-147,1013 L-196,1014 L-254,1014 L-266,1015 L-267,1016 L-286,1017 L-318,1017 L-351,1018 L-406,1018 L-413,1017 L-416,1018 L-443,1018 L-481,1019 L-529,1019 L-541,1020 L-562,1019 L-627,1019 L-651,1020 L-660,1019 L-708,1020 L-727,1019 L-755,1020 L-821,1021 L-835,1021 L-866,1022 L-898,1022 L-963,1023 L-998,1022 L-1001,1019 L-1002,1012 L-1002,894 L-1003,864 L-1003,799 L-1004,759 L-1004,727 L-1005,627 L-1005,603 L-1006,523 L-1006,497 L-1007,466 L-1006,454 L-1007,449 L-1008,354 L-1008,329 L-1010,231 L-1009,211 L-1009,194 L-1010,174 L-1010,125 L-1011,44 L-1011,14 L-1006,9 L-996,10 L-984,11 L-942,11 L-850,10 L-830,10 L-752,9 L-729,8 L-692,8 L-634,7 L-537,7 L-524,6 L-482,6 L-464,5 L-369,5 L-219,3 L-194,3 L-134,2 L-13,2 Z M-14,9 L-16,10 L-41,11 L-73,11 L-80,10 L-82,11 L-136,11 L-145,12 L-172,11 L-175,12 L-206,12 L-217,13 L-226,12 L-253,12 L-267,13 L-376,13 L-385,14 L-415,14 L-462,15 L-501,15 L-505,16 L-584,16 L-688,17 L-727,17 L-735,18 L-801,18 L-835,20 L-863,19 L-898,21 L-900,20 L-958,20 L-980,21 L-995,23 L-998,26 L-999,29 L-1000,63 L-1001,77 L-1000,111 L-1000,150 L-999,167 L-999,178 L-1000,197 L-999,237 L-999,315 L-998,368 L-998,417 L-997,431 L-997,459 L-996,533 L-996,590 L-995,668 L-995,699 L-994,733 L-994,767 L-993,817 L-993,844 L-992,931 L-991,964 L-991,995 L-989,1008 L-985,1012 L-965,1013 L-891,1013 L-827,1012 L-811,1012 L-781,1011 L-739,1011 L-679,1010 L-622,1009 L-588,1009 L-550,1008 L-522,1008 L-517,1009 L-472,1008 L-441,1008 L-399,1007 L-396,1006 L-368,1006 L-359,1005 L-350,1007 L-344,1006 L-292,1007 L-285,1006 L-279,1007 L-260,1007 L-230,1005 L-185,1005 L-147,1004 L-89,1004 L-66,1003 L-13,1003 L-8,1002 L8,1002 L14,997 L15,990 L15,952 L14,876 L14,817 L13,702 L13,650 L12,599 L11,561 L11,501 L10,406 L10,367 L9,332 L9,313 L8,280 L7,135 L6,86 L6,54 L4,19 L0,12 L-1,11 L-9,10 Z " fill="#000000" transform="translate(1049,37)"/>
<path d="M0,0 L20,1 L34,6 L46,12 L62,29 L72,48 L74,54 L75,63 L75,78 L74,90 L68,106 L60,120 L52,128 L44,134 L40,137 L33,140 L28,143 L17,147 L15,148 L1,149 L-4,146 L-18,143 L-28,140 L-33,135 L-43,126 L-52,118 L-56,111 L-64,97 L-66,85 L-66,60 L-63,48 L-53,29 L-44,18 L-31,9 L-22,5 L-14,3 L-13,2 Z " fill="#000000" transform="translate(550,118)"/>
<path d="M0,0 L7,0 L9,1 L21,2 L36,5 L53,11 L65,17 L73,22 L82,27 L91,34 L95,38 L106,47 L106,49 L108,49 L115,57 L122,66 L130,79 L139,100 L146,124 L148,136 L148,161 L149,174 L149,191 L150,233 L150,249 L149,254 L149,264 L150,275 L150,343 L147,348 L145,350 L113,351 L109,353 L107,358 L107,366 L112,407 L114,417 L116,439 L120,463 L122,487 L125,509 L127,517 L129,535 L131,556 L132,559 L136,592 L139,615 L141,633 L144,650 L147,674 L149,705 L152,725 L153,738 L150,743 L148,744 L128,744 L121,745 L119,744 L109,743 L88,743 L84,744 L69,744 L63,745 L57,738 L54,729 L49,693 L47,685 L45,667 L41,642 L37,623 L37,612 L33,592 L31,577 L26,552 L23,532 L21,517 L18,504 L16,492 L15,489 L13,472 L12,469 L11,458 L9,455 L5,456 L1,477 L-5,516 L-8,534 L-9,548 L-11,557 L-16,593 L-18,607 L-20,625 L-23,638 L-24,653 L-26,661 L-28,680 L-30,693 L-32,711 L-36,735 L-40,743 L-45,746 L-51,745 L-54,744 L-60,746 L-83,746 L-90,745 L-97,746 L-108,746 L-125,744 L-129,741 L-130,738 L-129,711 L-127,702 L-126,678 L-124,669 L-123,635 L-121,628 L-119,596 L-118,591 L-116,561 L-112,532 L-109,498 L-107,468 L-104,442 L-102,419 L-100,411 L-99,388 L-96,366 L-98,357 L-100,354 L-128,353 L-133,351 L-140,349 L-142,343 L-143,333 L-144,283 L-145,230 L-146,187 L-146,138 L-144,120 L-136,94 L-124,71 L-120,64 L-114,56 L-103,45 L-97,38 L-87,30 L-73,20 L-65,16 L-56,13 L-48,8 L-24,2 Z " fill="#000000" transform="translate(558,277)"/>
<path d="M0,0 L4,0 L3,3 L-1,2 Z " fill="#000000" transform="translate(730,882)"/>
<path d="M0,0 L16,0 L28,5 L35,11 L36,13 L36,25 L35,26 L30,26 L22,15 L16,12 L4,11 L-8,17 L-12,24 L-15,33 L-16,42 L-14,57 L-7,67 L3,72 L13,71 L20,69 L28,60 L32,51 L33,50 L39,50 L41,53 L40,60 L38,67 L34,73 L23,81 L18,83 L-2,83 L-15,77 L-22,69 L-25,62 L-28,50 L-28,33 L-26,24 L-23,18 L-16,9 L-12,5 Z " fill="#000000" transform="translate(243,1126)"/>
<path d="M0,0 L8,1 L13,6 L17,16 L20,25 L25,37 L30,50 L33,59 L40,75 L39,80 L38,81 L29,81 L26,76 L20,60 L17,57 L-9,57 L-14,61 L-18,74 L-21,79 L-23,81 L-30,81 L-32,76 L-25,60 L-21,47 L-17,38 L-13,28 L-8,13 L-4,4 Z M1,20 L-4,32 L-6,36 L-6,45 L3,48 L11,46 L12,44 L12,35 L6,21 Z " fill="#000000" transform="translate(324,1128)"/>
<path d="M0,0 L36,0 L49,5 L57,13 L62,26 L63,31 L63,48 L59,62 L53,71 L47,76 L39,80 L0,81 L-3,78 L-3,3 Z M11,10 L8,14 L8,35 L7,43 L9,66 L14,70 L32,70 L42,65 L48,55 L51,45 L51,34 L48,23 L41,14 L37,12 L18,10 Z " fill="#000000" transform="translate(138,1129)"/>
<path d="M0,0 L8,1 L11,6 L14,15 L18,25 L22,33 L24,40 L28,50 L36,72 L37,79 L30,80 L26,78 L21,64 L18,58 L16,57 L-10,57 L-15,62 L-20,77 L-25,81 L-30,81 L-32,79 L-32,72 L-26,56 L-22,47 L-16,32 L-12,23 L-7,6 L-3,1 Z M0,20 L-4,27 L-7,36 L-7,45 L-4,47 L6,47 L11,45 L11,37 L8,31 L6,22 L4,20 Z " fill="#000000" transform="translate(83,1130)"/>
</svg>
