<?xml version="1.0" encoding="UTF-8"?>
<!-- Generator: visioncortex VTracer 0.6.12 -->
<svg version="1.1" xmlns="http://www.w3.org/2000/svg" width="1314" height="1353">
<path d="M0,0 L5,1 L8,5 L10,20 L11,23 L12,40 L12,66 L13,97 L13,176 L14,199 L14,307 L13,314 L14,317 L15,363 L16,490 L17,514 L18,646 L19,734 L20,776 L21,898 L21,929 L22,943 L22,971 L23,1005 L24,1027 L22,1030 L14,1032 L7,1031 L-44,1031 L-67,1032 L-115,1032 L-156,1033 L-175,1034 L-185,1034 L-189,1032 L-192,1034 L-214,1033 L-225,1034 L-233,1033 L-237,1034 L-246,1034 L-257,1033 L-261,1034 L-282,1035 L-291,1034 L-397,1036 L-445,1036 L-471,1037 L-486,1037 L-530,1039 L-614,1039 L-705,1041 L-790,1041 L-799,1042 L-811,1041 L-822,1042 L-860,1043 L-896,1043 L-931,1044 L-1009,1044 L-1015,1040 L-1016,1036 L-1018,978 L-1018,935 L-1019,855 L-1019,791 L-1020,763 L-1020,730 L-1021,691 L-1022,587 L-1023,518 L-1024,480 L-1025,384 L-1025,353 L-1026,328 L-1026,278 L-1029,146 L-1029,133 L-1030,118 L-1030,99 L-1031,54 L-1032,28 L-1030,20 L-1028,19 L-1019,20 L-930,20 L-894,19 L-808,16 L-776,16 L-770,15 L-763,21 L-760,21 L-758,15 L-741,15 L-736,14 L-708,14 L-683,13 L-624,12 L-581,12 L-544,11 L-507,10 L-454,10 L-423,9 L-362,9 L-334,8 L-303,8 L-290,7 L-198,7 L-165,6 L-148,6 L-133,5 L-95,5 L-66,3 L-27,3 L-16,2 L-4,2 Z M-26,14 L-52,15 L-98,16 L-106,15 L-113,16 L-135,16 L-147,17 L-167,17 L-230,18 L-240,20 L-243,24 L-244,28 L-245,50 L-244,159 L-243,205 L-243,232 L-242,242 L-242,264 L-241,309 L-241,354 L-239,458 L-238,536 L-238,578 L-237,592 L-237,620 L-236,680 L-236,708 L-235,753 L-235,792 L-234,850 L-233,870 L-233,910 L-232,964 L-231,985 L-231,1001 L-228,1017 L-224,1021 L-220,1022 L-210,1022 L-201,1023 L-138,1022 L-116,1021 L-88,1020 L-51,1020 L-45,1019 L-14,1019 L6,1018 L10,1013 L11,998 L11,951 L10,905 L10,885 L11,878 L10,858 L10,830 L9,800 L9,774 L8,719 L8,622 L6,465 L5,334 L4,283 L4,238 L3,231 L3,206 L2,163 L2,101 L1,36 L0,20 L-4,15 L-6,14 Z M-834,27 L-876,29 L-925,30 L-968,31 L-1013,32 L-1018,35 L-1019,46 L-1019,60 L-1018,92 L-1018,115 L-1016,169 L-1016,232 L-1015,298 L-1013,441 L-1012,568 L-1011,600 L-1011,642 L-1010,676 L-1010,705 L-1009,797 L-1008,862 L-1007,918 L-1006,996 L-1005,1019 L-1003,1029 L-999,1032 L-972,1033 L-942,1033 L-918,1032 L-906,1033 L-891,1032 L-868,1032 L-807,1030 L-777,1030 L-761,1029 L-757,1025 L-754,1016 L-753,973 L-754,930 L-754,910 L-755,889 L-755,839 L-756,812 L-757,761 L-757,744 L-758,698 L-758,662 L-759,648 L-760,560 L-761,520 L-761,491 L-762,443 L-763,313 L-764,284 L-764,273 L-765,250 L-765,229 L-766,149 L-767,97 L-768,88 L-768,38 L-770,30 L-775,27 Z M-756,69 L-762,77 L-763,80 L-763,89 L-758,88 L-756,86 L-749,84 L-750,77 L-754,69 Z M-403,68 L-407,70 L-498,71 L-550,71 L-596,72 L-602,71 L-605,72 L-673,72 L-696,73 L-710,74 L-715,77 L-717,85 L-717,108 L-715,227 L-715,252 L-714,291 L-713,305 L-714,314 L-713,327 L-712,399 L-712,425 L-711,469 L-711,506 L-710,520 L-709,639 L-707,761 L-706,858 L-705,905 L-705,937 L-704,944 L-703,962 L-701,967 L-696,971 L-693,972 L-650,973 L-585,972 L-449,972 L-421,971 L-367,971 L-344,970 L-338,971 L-293,971 L-286,968 L-283,965 L-282,960 L-282,918 L-281,914 L-281,905 L-282,900 L-283,841 L-285,784 L-286,671 L-287,597 L-287,586 L-288,575 L-288,553 L-289,464 L-289,428 L-290,410 L-290,375 L-292,279 L-292,237 L-293,213 L-293,191 L-294,160 L-294,103 L-295,83 L-297,74 L-302,70 L-304,69 L-365,69 L-371,70 L-373,69 L-398,69 Z " fill="#000000" transform="translate(1165,36)"/>
<path d="M0,0 L11,0 L26,4 L40,14 L46,23 L52,35 L54,42 L54,73 L50,85 L44,95 L39,100 L30,107 L18,112 L15,113 L2,113 L-8,111 L-21,103 L-30,93 L-37,78 L-39,72 L-40,65 L-40,45 L-36,30 L-30,19 L-20,8 L-8,2 Z " fill="#000000" transform="translate(654,166)"/>
<path d="M0,0 L57,0 L73,4 L80,7 L86,10 L101,24 L108,34 L111,38 L115,50 L118,66 L120,91 L122,219 L123,269 L123,339 L118,344 L116,345 L81,346 L76,342 L74,332 L73,303 L71,180 L69,103 L68,88 L63,88 L62,91 L62,125 L63,129 L64,210 L66,289 L66,373 L67,435 L67,456 L68,510 L69,533 L69,559 L70,635 L70,661 L68,666 L63,670 L50,671 L16,672 L11,669 L8,663 L6,637 L5,558 L4,519 L3,488 L3,465 L2,392 L1,355 L-4,355 L-5,363 L-5,376 L-4,398 L-4,424 L-3,432 L-3,571 L-2,586 L-2,615 L-1,642 L-1,656 L-3,668 L-7,671 L-21,672 L-54,672 L-61,669 L-63,666 L-64,652 L-64,631 L-65,576 L-66,560 L-66,532 L-67,499 L-68,421 L-69,392 L-70,341 L-71,332 L-72,297 L-72,260 L-73,213 L-73,179 L-74,162 L-75,112 L-76,90 L-81,91 L-82,92 L-82,114 L-81,141 L-81,178 L-80,194 L-79,247 L-78,283 L-78,302 L-79,345 L-82,349 L-85,350 L-120,350 L-125,345 L-126,342 L-128,256 L-128,233 L-129,219 L-130,167 L-131,118 L-131,72 L-128,55 L-123,43 L-116,32 L-107,21 L-90,9 L-75,4 L-50,2 L-27,1 Z " fill="#000000" transform="translate(672,288)"/>
<path d="M0,0 L7,0 L11,6 L11,17 L7,26 L4,29 L-1,29 L-3,27 L-2,22 L1,19 L0,14 L-3,10 L-3,4 Z " fill="#000000" transform="translate(228,1139)"/>
<path d="M0,0 L7,1 L12,7 L21,21 L25,26 L30,25 L40,10 L46,2 L49,1 L56,1 L57,2 L56,9 L47,23 L41,32 L39,36 L39,46 L47,59 L54,69 L60,77 L59,82 L48,82 L40,71 L33,60 L29,55 L24,55 L14,71 L7,81 L2,83 L-3,81 L-4,76 L5,64 L11,55 L16,46 L17,38 L10,27 L0,13 L-4,7 L-3,2 Z " fill="#000000" transform="translate(154,1140)"/>
<path d="M0,0 L10,0 L19,4 L26,12 L27,20 L26,21 L20,21 L15,15 L6,11 L-3,13 L-6,16 L-9,24 L-10,31 L-4,30 L3,28 L11,28 L19,32 L27,41 L29,44 L31,54 L30,63 L27,70 L19,78 L8,82 L1,82 L-11,77 L-18,69 L-22,61 L-24,49 L-24,40 L-22,25 L-18,14 L-9,4 Z M1,38 L-6,42 L-10,48 L-10,59 L-5,68 L1,71 L9,70 L16,64 L18,57 L18,50 L15,43 L9,38 Z " fill="#000000" transform="translate(277,1140)"/>
<path d="M0,0 L10,0 L13,3 L13,12 L4,24 L-4,38 L-9,53 L-11,58 L-14,75 L-18,81 L-24,80 L-27,77 L-26,62 L-22,50 L-16,37 L-7,23 L-6,15 L-7,14 L-34,13 L-38,9 L-37,4 L-32,1 L-14,1 Z " fill="#000000" transform="translate(356,1139)"/>
<path d="M0,0 L28,1 L28,55 L-108,56 L-165,57 L-225,58 L-272,58 L-393,59 L-430,60 L-509,61 L-587,62 L-626,62 L-668,63 L-748,64 L-876,65 L-911,66 L-977,67 L-992,67 L-1008,69 L-1012,68 L-1106,68 L-1206,69 L-1248,70 L-1286,70 L-1286,15 L-1262,15 L-1146,13 L-1118,13 L-1025,12 L-998,12 L-937,11 L-872,10 L-837,10 L-752,9 L-667,8 L-601,7 L-496,6 L-441,5 L-389,4 L-224,3 L-157,2 L-115,1 Z " fill="#000000" transform="translate(1286,1280)"/>
</svg>
