<?xml version="1.0" encoding="UTF-8"?>
<!-- Generator: visioncortex VTracer 0.6.12 -->
<svg version="1.1" xmlns="http://www.w3.org/2000/svg" width="2469" height="1356">
<path d="M0,0 L68,0 L87,3 L101,7 L114,12 L134,24 L149,38 L159,49 L170,70 L178,91 L183,114 L186,147 L187,152 L188,315 L188,452 L189,493 L189,514 L190,578 L191,724 L193,851 L193,895 L190,923 L186,940 L181,953 L174,963 L168,972 L160,982 L150,993 L139,1000 L128,1008 L114,1016 L94,1024 L80,1027 L57,1029 L-20,1030 L-39,1030 L-72,1031 L-155,1031 L-184,1032 L-232,1032 L-300,1033 L-344,1033 L-404,1034 L-522,1035 L-605,1036 L-627,1036 L-674,1035 L-680,1036 L-693,1036 L-714,1034 L-725,1032 L-745,1028 L-762,1022 L-775,1013 L-785,1005 L-793,998 L-802,988 L-811,973 L-818,960 L-821,947 L-824,936 L-827,923 L-828,772 L-828,644 L-829,561 L-829,499 L-830,449 L-830,352 L-831,272 L-832,194 L-832,142 L-830,111 L-826,95 L-821,81 L-812,65 L-804,54 L-789,39 L-779,32 L-771,27 L-754,18 L-729,11 L-712,9 L-598,8 L-577,8 L-481,6 L-352,6 L-283,5 L-253,5 L-224,4 L-167,3 L-123,3 L-72,2 L-49,2 L-45,1 L-24,1 Z M7,9 L-16,10 L-50,10 L-76,11 L-117,11 L-179,13 L-195,12 L-201,13 L-305,14 L-378,15 L-408,15 L-429,16 L-488,16 L-549,17 L-634,17 L-688,18 L-705,19 L-716,20 L-729,21 L-745,25 L-759,31 L-772,39 L-784,48 L-794,57 L-802,67 L-810,80 L-815,90 L-818,99 L-821,113 L-822,131 L-823,136 L-823,217 L-822,290 L-821,457 L-821,498 L-820,628 L-820,646 L-819,684 L-819,802 L-818,923 L-815,940 L-812,952 L-811,959 L-804,967 L-801,973 L-792,985 L-782,996 L-768,1007 L-754,1015 L-740,1020 L-726,1023 L-706,1026 L-686,1028 L-599,1027 L-550,1027 L-439,1026 L-394,1026 L-391,1025 L-362,1025 L-283,1024 L-190,1023 L-134,1022 L-106,1022 L-45,1021 L51,1020 L68,1018 L83,1017 L106,1009 L116,1003 L125,998 L134,992 L142,985 L151,978 L161,966 L168,955 L174,943 L180,925 L182,914 L184,886 L184,848 L183,752 L183,733 L182,680 L181,567 L181,544 L180,435 L179,354 L178,172 L178,160 L175,128 L171,103 L165,83 L160,70 L154,59 L147,50 L138,40 L127,31 L114,23 L104,18 L85,12 L61,9 Z " fill="#000000" transform="translate(965,36)"/>
<path d="M0,0 L21,0 L38,6 L51,13 L61,23 L67,31 L75,47 L78,63 L77,80 L74,90 L68,104 L59,115 L49,124 L40,130 L29,135 L10,138 L-5,137 L-16,134 L-29,127 L-40,118 L-42,114 L-45,113 L-53,100 L-57,91 L-60,77 L-60,63 L-57,48 L-49,32 L-43,24 L-40,23 L-39,20 L-26,10 L-12,3 Z " fill="#000000" transform="translate(627,126)"/>
<path d="M0,0 L67,0 L81,1 L95,5 L107,10 L118,17 L130,27 L142,43 L146,51 L151,65 L154,80 L155,111 L156,206 L156,223 L155,235 L156,240 L156,304 L153,316 L150,322 L144,329 L135,333 L131,334 L119,334 L105,327 L100,320 L97,312 L96,303 L95,182 L95,121 L93,111 L92,110 L83,110 L80,113 L79,120 L80,422 L80,471 L81,643 L79,663 L73,673 L63,683 L53,688 L49,689 L31,689 L15,680 L7,670 L4,665 L1,655 L0,574 L0,431 L-1,359 L-2,340 L-3,337 L-10,336 L-16,339 L-16,529 L-15,640 L-17,660 L-22,672 L-32,683 L-40,688 L-50,691 L-63,691 L-73,687 L-83,680 L-88,674 L-93,663 L-95,651 L-95,597 L-97,324 L-98,277 L-98,207 L-99,117 L-103,113 L-110,113 L-113,116 L-114,118 L-114,308 L-116,318 L-121,328 L-128,334 L-136,337 L-153,337 L-162,331 L-167,326 L-171,312 L-172,302 L-172,216 L-173,155 L-172,80 L-168,64 L-164,53 L-157,41 L-146,28 L-138,21 L-127,14 L-115,8 L-99,4 L-67,1 Z " fill="#000000" transform="translate(647,281)"/>
<path d="M0,0 L4,1 L3,5 L-1,4 Z " fill="#000000" transform="translate(2144,455)"/>
<path d="M0,0 L5,2 L6,18 L7,50 L9,53 L16,55 L17,56 L17,63 L9,66 L7,83 L5,85 L-1,85 L-4,83 L-5,75 L-5,67 L-8,65 L-15,66 L-36,66 L-38,65 L-39,60 L-37,51 L-29,40 L-22,29 L-12,14 L-5,3 Z M-9,27 L-21,46 L-22,48 L-22,54 L-20,55 L-8,55 L-5,53 L-4,29 L-6,27 Z " fill="#000000" transform="translate(574,1128)"/>
<path d="M0,0 L7,0 L10,2 L11,12 L9,24 L5,30 L1,33 L-4,32 L-4,27 L1,21 L1,15 L-3,13 L-4,6 L-2,1 Z " fill="#000000" transform="translate(451,1130)"/>
<path d="M0,0 L7,0 L10,4 L10,10 L6,15 L-12,14 L-15,16 L-16,23 L-14,76 L-13,83 L-17,86 L-26,86 L-29,84 L-30,40 L-30,30 L-31,17 L-35,15 L-53,16 L-57,12 L-57,5 L-54,1 L-12,1 Z " fill="#000000" transform="translate(427,1130)"/>
<path d="M0,0 L18,0 L31,5 L39,13 L45,23 L48,33 L48,53 L45,63 L39,73 L29,81 L19,86 L1,86 L-9,83 L-19,74 L-25,65 L-29,53 L-29,35 L-26,23 L-19,11 L-12,5 Z M8,11 L-1,13 L-9,19 L-15,28 L-17,38 L-17,48 L-14,60 L-10,66 L-5,70 L1,74 L12,75 L19,73 L25,70 L31,63 L35,53 L36,49 L36,39 L33,26 L26,17 L22,14 L12,11 Z " fill="#000000" transform="translate(315,1132)"/>
<path d="M0,0 L8,0 L10,1 L10,13 L6,19 L2,24 L-6,40 L-12,55 L-15,68 L-16,80 L-20,84 L-28,83 L-30,81 L-30,71 L-25,52 L-17,34 L-7,19 L-7,15 L-22,15 L-38,16 L-42,13 L-42,4 L-40,1 Z " fill="#000000" transform="translate(518,1131)"/>
<path d="M0,0 L39,0 L45,2 L55,8 L61,15 L64,20 L67,36 L67,47 L64,62 L57,73 L50,79 L45,82 L24,83 L2,83 L-1,78 L-1,65 L-2,41 L-2,2 Z M15,11 L11,15 L10,22 L12,69 L14,71 L34,71 L41,70 L49,63 L52,57 L54,47 L54,39 L52,28 L46,17 L36,12 L24,12 Z " fill="#000000" transform="translate(206,1133)"/>
<path d="M0,0 L77,0 L79,2 L80,26 L80,54 L78,56 L27,57 L21,58 L11,56 L3,57 L-257,58 L-332,59 L-352,59 L-364,60 L-390,60 L-405,58 L-415,58 L-420,59 L-437,59 L-442,60 L-463,60 L-468,59 L-498,59 L-548,58 L-564,59 L-609,59 L-630,60 L-653,60 L-665,62 L-668,60 L-676,61 L-679,62 L-686,62 L-692,60 L-699,61 L-717,60 L-757,61 L-783,62 L-813,63 L-837,63 L-889,64 L-960,64 L-967,66 L-974,64 L-1001,65 L-1070,66 L-1097,66 L-1192,67 L-1207,67 L-1254,68 L-1290,67 L-1294,68 L-1367,69 L-1412,70 L-1501,70 L-1560,71 L-1593,71 L-1617,72 L-1683,72 L-1813,74 L-1836,74 L-1902,75 L-2105,77 L-2154,77 L-2282,78 L-2357,78 L-2357,24 L-2309,23 L-2285,23 L-2232,22 L-2142,22 L-2101,21 L-1957,20 L-1911,19 L-1876,19 L-1787,18 L-1676,17 L-1519,15 L-1400,14 L-1379,14 L-1307,13 L-1278,12 L-1236,12 L-1162,11 L-1129,11 L-1041,10 L-987,9 L-882,8 L-844,7 L-638,4 L-590,4 L-477,3 L-232,3 L-123,2 L-69,1 L-8,1 Z " fill="#000000" transform="translate(2357,1260)"/>
<path d="M0,0 L2,0 L2,2 L0,2 Z " fill="#000000" transform="translate(1977,1345)"/>
</svg>
