<?xml version="1.0" encoding="UTF-8"?>
<!-- Generator: visioncortex VTracer 0.6.12 -->
<svg version="1.1" xmlns="http://www.w3.org/2000/svg" width="1110" height="1122">
<path d="M0,0 L1077,0 L1080,1 L1091,1 L1099,0 L1104,1 L1104,833 L1103,836 L1102,883 L1101,958 L1100,998 L1100,1034 L1099,1094 L1098,1122 L184,1122 L180,1121 L177,1122 L167,1122 L160,1121 L156,1122 L154,1121 L58,1119 L29,1119 L-6,1118 L-6,344 L-5,333 L-3,206 L-2,123 L-1,93 L0,12 Z M275,216 L251,218 L238,220 L221,225 L205,232 L189,240 L180,246 L169,254 L157,264 L152,269 L145,276 L137,287 L130,297 L123,309 L114,329 L108,347 L105,362 L104,374 L103,415 L101,525 L101,547 L99,626 L97,711 L96,789 L95,845 L95,874 L96,882 L100,884 L114,885 L180,886 L213,887 L263,887 L268,883 L269,878 L270,833 L271,748 L272,701 L273,662 L274,595 L275,568 L276,507 L277,450 L279,448 L327,448 L330,450 L331,453 L331,496 L330,516 L329,594 L329,603 L328,613 L326,729 L324,824 L323,904 L322,950 L322,1012 L326,1015 L346,1016 L405,1017 L427,1017 L579,1019 L626,1020 L721,1021 L755,1022 L772,1021 L776,1018 L777,1007 L778,923 L779,872 L780,790 L783,682 L784,588 L785,568 L787,459 L788,454 L837,455 L839,458 L839,478 L838,487 L838,509 L836,617 L836,639 L835,677 L835,697 L834,716 L833,779 L832,803 L831,842 L831,890 L835,894 L864,895 L917,896 L996,897 L1002,896 L1005,891 L1006,871 L1008,812 L1009,753 L1010,704 L1011,664 L1012,587 L1013,546 L1013,522 L1014,468 L1015,410 L1015,387 L1012,365 L1009,350 L999,323 L989,305 L978,289 L963,273 L956,265 L950,261 L934,250 L922,243 L911,238 L892,231 L881,228 L865,225 L851,224 L816,224 L793,223 L761,223 L702,222 L677,222 L563,221 L540,221 L471,219 L379,218 L354,218 L313,217 Z M99,895 L95,899 L94,907 L93,955 L93,1008 L97,1012 L110,1011 L116,1013 L182,1014 L263,1014 L265,1011 L266,1003 L267,978 L267,901 L263,897 L191,896 L139,895 Z M835,905 L831,909 L829,1006 L830,1018 L833,1022 L838,1023 L884,1024 L911,1024 L975,1025 L997,1025 L1002,1022 L1003,1020 L1004,1007 L1005,957 L1005,919 L1003,909 L1000,907 L985,906 L964,906 L891,905 Z " fill="#000000" transform="translate(6,0)"/>
<path d="M0,0 L96,1 L113,1 L128,2 L130,4 L129,10 L117,35 L109,52 L102,68 L95,83 L88,97 L82,99 L50,98 L36,98 L32,93 L25,75 L20,63 L14,47 L6,29 L1,15 L-3,7 L-3,2 Z " fill="#000000" transform="translate(504,236)"/>
<path d="M0,0 L35,0 L52,1 L54,4 L57,19 L59,35 L65,72 L69,91 L71,107 L75,127 L77,141 L82,171 L85,190 L88,206 L94,242 L101,283 L108,323 L113,354 L117,375 L123,411 L125,426 L126,429 L126,445 L120,455 L110,469 L99,486 L90,499 L79,516 L71,527 L62,540 L55,550 L44,566 L37,577 L31,585 L23,596 L20,603 L16,604 L9,594 L-3,574 L-11,562 L-18,552 L-22,545 L-28,536 L-35,525 L-43,512 L-53,497 L-66,477 L-76,461 L-81,454 L-85,447 L-92,436 L-92,429 L-87,406 L-85,398 L-79,370 L-75,350 L-71,333 L-68,317 L-63,292 L-58,268 L-56,258 L-52,241 L-47,215 L-38,174 L-35,159 L-29,131 L-25,111 L-17,72 L-14,59 L-11,42 L-3,3 Z " fill="#000000" transform="translate(540,350)"/>
<path d="M0,0 L7,1 L12,6 L11,15 L6,19 L0,18 L-5,14 L-6,12 L-6,6 L-1,1 Z " fill="#000000" transform="translate(250,978)"/>
<path d="M0,0 L7,1 L12,6 L11,15 L7,18 L0,18 L-5,14 L-6,12 L-6,6 L-2,1 Z " fill="#000000" transform="translate(853,986)"/>
</svg>
