<?xml version="1.0" encoding="UTF-8"?>
<!-- Generator: visioncortex VTracer 0.6.12 -->
<svg version="1.1" xmlns="http://www.w3.org/2000/svg" width="1149" height="1248">
<path d="M0,0 L20,0 L62,3 L71,5 L93,8 L105,11 L116,12 L120,14 L136,18 L152,22 L176,30 L187,35 L195,37 L212,44 L228,52 L247,61 L258,67 L267,73 L275,77 L284,84 L296,91 L301,95 L311,101 L322,110 L333,118 L348,132 L355,138 L360,143 L375,159 L380,164 L391,176 L401,189 L406,194 L413,204 L421,215 L431,230 L443,249 L450,260 L458,276 L466,292 L469,299 L475,313 L481,328 L487,342 L491,356 L495,367 L500,386 L502,392 L504,402 L508,421 L510,436 L512,448 L515,479 L516,509 L516,531 L514,559 L511,585 L507,601 L505,618 L501,633 L495,657 L484,690 L473,716 L469,726 L463,738 L454,755 L449,761 L439,782 L432,792 L426,802 L418,813 L412,821 L405,829 L401,833 L394,843 L389,849 L384,853 L377,861 L368,872 L359,881 L354,886 L344,895 L333,904 L318,915 L311,921 L301,928 L291,936 L282,941 L271,949 L260,955 L246,963 L232,970 L222,975 L212,979 L194,987 L188,989 L166,997 L145,1003 L128,1008 L119,1010 L103,1014 L94,1015 L88,1016 L86,1017 L74,1019 L51,1021 L49,1022 L22,1022 L9,1025 L3,1024 L-9,1023 L-18,1024 L-42,1022 L-46,1021 L-55,1020 L-58,1019 L-75,1018 L-88,1016 L-102,1012 L-126,1006 L-142,1002 L-146,1000 L-153,999 L-155,997 L-164,995 L-175,990 L-194,983 L-211,975 L-213,973 L-221,970 L-237,962 L-253,953 L-261,949 L-271,942 L-285,932 L-297,924 L-304,918 L-315,910 L-318,907 L-329,900 L-341,889 L-348,881 L-364,864 L-370,859 L-379,848 L-389,838 L-395,830 L-403,820 L-413,807 L-422,793 L-425,787 L-432,774 L-438,766 L-450,745 L-454,736 L-464,714 L-467,706 L-471,698 L-475,688 L-481,672 L-485,662 L-489,645 L-491,641 L-492,631 L-494,626 L-497,610 L-500,598 L-501,584 L-503,575 L-505,552 L-506,546 L-507,515 L-506,480 L-505,465 L-502,444 L-499,424 L-494,397 L-490,387 L-487,371 L-482,354 L-476,338 L-474,335 L-472,327 L-469,321 L-467,318 L-464,307 L-458,295 L-452,281 L-447,273 L-440,259 L-434,250 L-428,238 L-419,225 L-413,217 L-403,203 L-391,187 L-379,173 L-372,166 L-365,158 L-357,150 L-350,142 L-345,140 L-343,136 L-333,127 L-328,122 L-318,114 L-310,108 L-291,94 L-281,87 L-275,83 L-266,77 L-248,67 L-245,64 L-227,56 L-211,48 L-192,39 L-180,34 L-162,28 L-152,25 L-136,20 L-133,18 L-125,18 L-122,16 L-112,14 L-103,11 L-85,8 L-74,7 L-71,5 L-63,4 L-45,2 Z M-4,12 L-23,13 L-27,14 L-36,14 L-47,16 L-69,18 L-90,22 L-105,24 L-110,26 L-122,28 L-136,33 L-142,35 L-152,37 L-160,41 L-178,47 L-199,56 L-215,63 L-237,75 L-251,83 L-262,90 L-271,97 L-285,105 L-293,111 L-302,117 L-313,126 L-324,135 L-329,141 L-337,148 L-347,157 L-357,167 L-362,172 L-369,180 L-378,190 L-388,203 L-398,215 L-404,225 L-406,230 L-410,234 L-419,248 L-430,266 L-437,278 L-441,290 L-446,297 L-454,315 L-457,323 L-461,331 L-466,346 L-473,367 L-475,374 L-479,390 L-483,410 L-485,417 L-489,445 L-491,457 L-493,482 L-493,542 L-490,573 L-489,578 L-488,593 L-483,610 L-480,626 L-477,634 L-473,650 L-467,668 L-463,684 L-457,701 L-450,715 L-443,732 L-437,743 L-431,754 L-423,769 L-420,772 L-414,783 L-405,796 L-395,810 L-387,821 L-375,834 L-369,842 L-364,847 L-356,855 L-349,863 L-339,872 L-331,878 L-324,886 L-315,893 L-308,900 L-293,911 L-282,919 L-267,929 L-256,936 L-251,939 L-242,945 L-232,951 L-216,959 L-201,966 L-180,975 L-177,977 L-164,981 L-145,987 L-120,994 L-102,998 L-92,999 L-86,1002 L-60,1006 L-17,1010 L-10,1011 L25,1011 L29,1010 L58,1008 L83,1005 L92,1003 L111,1000 L128,995 L140,992 L152,989 L163,985 L171,982 L179,980 L190,975 L210,967 L226,959 L234,955 L246,949 L255,943 L271,934 L282,926 L288,923 L296,917 L304,911 L321,898 L334,887 L349,873 L362,861 L371,851 L386,835 L391,830 L401,816 L407,808 L415,797 L422,786 L429,776 L433,768 L441,755 L445,747 L453,733 L460,718 L464,708 L469,697 L475,679 L481,662 L488,636 L495,607 L498,589 L500,579 L502,562 L503,534 L504,528 L504,491 L502,464 L499,442 L493,406 L491,401 L489,389 L485,376 L483,367 L478,353 L470,331 L464,318 L460,308 L452,291 L449,283 L440,268 L433,254 L427,245 L423,239 L413,225 L405,213 L397,203 L392,196 L390,196 L388,192 L377,179 L373,174 L371,174 L370,171 L365,167 L358,159 L348,151 L342,144 L334,137 L319,124 L313,119 L301,110 L287,100 L276,93 L262,84 L258,81 L247,75 L234,68 L218,60 L204,54 L194,50 L191,48 L182,45 L168,40 L159,37 L142,32 L120,26 L99,21 L83,19 L66,16 L63,15 L29,13 L21,12 Z " fill="#000000" transform="translate(599,36)"/>
<path d="M0,0 L12,0 L27,3 L41,11 L53,22 L59,29 L65,40 L68,50 L69,66 L68,77 L63,90 L58,100 L52,108 L44,115 L35,122 L29,126 L30,130 L44,134 L77,141 L96,145 L112,148 L114,149 L126,151 L138,154 L150,157 L153,160 L155,165 L160,186 L164,200 L168,225 L172,241 L175,254 L178,269 L182,283 L184,294 L187,307 L191,322 L195,344 L199,359 L203,379 L207,395 L213,421 L218,442 L220,454 L223,471 L225,479 L226,487 L223,490 L210,491 L205,490 L202,491 L177,492 L173,488 L170,480 L167,470 L164,461 L160,444 L155,431 L151,414 L147,401 L144,392 L140,382 L136,365 L131,349 L126,332 L123,324 L120,312 L119,309 L114,311 L113,320 L112,322 L110,346 L108,362 L105,384 L105,398 L107,408 L108,419 L113,437 L117,461 L121,482 L124,499 L126,508 L128,517 L130,530 L136,556 L141,582 L148,619 L151,636 L155,653 L158,669 L159,681 L161,687 L163,700 L169,728 L172,747 L178,774 L181,792 L186,817 L191,839 L193,854 L190,858 L161,860 L144,861 L116,861 L113,858 L107,837 L105,825 L101,812 L98,800 L96,790 L93,778 L89,766 L86,748 L81,729 L76,708 L74,697 L71,689 L70,680 L68,676 L67,665 L64,657 L60,641 L56,623 L49,597 L45,578 L42,566 L35,541 L32,526 L28,514 L24,513 L23,514 L20,538 L18,548 L13,581 L11,591 L8,612 L4,638 L0,664 L-2,682 L-6,704 L-11,740 L-21,805 L-26,839 L-29,863 L-32,867 L-37,869 L-83,870 L-106,870 L-108,867 L-108,856 L-105,830 L-105,818 L-103,803 L-98,753 L-97,734 L-95,728 L-92,688 L-88,651 L-86,633 L-84,608 L-82,587 L-80,571 L-78,554 L-77,547 L-76,529 L-74,516 L-73,496 L-69,464 L-67,443 L-65,420 L-64,410 L-64,396 L-69,369 L-73,353 L-75,341 L-78,326 L-80,316 L-85,316 L-86,325 L-90,341 L-92,354 L-99,386 L-102,401 L-107,425 L-109,438 L-113,457 L-116,469 L-119,485 L-122,498 L-127,503 L-135,504 L-172,505 L-174,502 L-174,489 L-173,484 L-172,469 L-170,456 L-166,427 L-163,400 L-161,389 L-160,377 L-159,374 L-157,352 L-155,342 L-144,257 L-143,253 L-141,233 L-136,194 L-133,175 L-130,170 L-127,168 L-110,163 L-84,155 L-60,147 L-51,145 L-40,142 L-31,139 L-20,135 L-13,133 L-12,128 L-18,126 L-29,120 L-41,110 L-49,99 L-55,87 L-58,76 L-58,50 L-52,35 L-44,25 L-39,18 L-26,8 L-13,3 Z " fill="#000000" transform="translate(574,93)"/>
<path d="M0,0 L2,0 L2,2 L0,2 Z " fill="#000000" transform="translate(36,694)"/>
<path d="M0,0 L6,1 L6,10 L1,22 L-5,39 L-11,52 L-16,67 L-21,80 L-24,84 L-30,83 L-31,78 L-25,63 L-21,51 L-17,44 L-14,34 L-11,25 L-3,4 Z " fill="#000000" transform="translate(219,1128)"/>
<path d="M0,0 L8,1 L21,5 L28,12 L31,19 L31,25 L29,27 L24,27 L17,19 L12,14 L8,12 L-3,12 L-10,16 L-12,16 L-13,26 L-9,31 L0,34 L12,36 L28,44 L34,52 L36,62 L34,69 L27,78 L19,83 L9,85 L-5,84 L-17,80 L-22,76 L-26,70 L-28,64 L-28,56 L-27,55 L-20,56 L-14,65 L-7,71 L-2,73 L7,73 L15,71 L20,66 L21,64 L21,57 L17,52 L2,46 L0,45 L-10,44 L-20,38 L-25,31 L-25,20 L-21,11 L-15,5 L-8,2 Z " fill="#000000" transform="translate(136,1129)"/>
<path d="M0,0 L6,1 L11,6 L23,33 L28,46 L33,60 L39,75 L38,81 L36,82 L30,82 L26,79 L23,70 L22,63 L17,57 L-6,57 L-12,60 L-16,67 L-19,77 L-23,82 L-29,83 L-32,80 L-31,69 L-26,59 L-22,46 L-20,43 L-18,36 L-13,25 L-7,9 L-2,1 Z M2,21 L-1,23 L-6,39 L-5,44 L0,47 L7,47 L12,43 L11,34 L8,28 L6,23 Z " fill="#000000" transform="translate(346,1129)"/>
<path d="M0,0 L32,0 L34,4 L33,10 L31,11 L12,12 L9,17 L9,77 L6,80 L0,80 L-3,78 L-4,14 L-5,13 L-17,12 L-27,13 L-30,9 L-30,4 L-27,1 L-11,1 Z " fill="#000000" transform="translate(273,1130)"/>
</svg>
