<?xml version="1.0" encoding="UTF-8"?>
<!-- Generator: visioncortex VTracer 0.6.12 -->
<svg version="1.1" xmlns="http://www.w3.org/2000/svg" width="1107" height="1251">
<path d="M0,0 L49,0 L64,3 L80,9 L96,17 L107,25 L113,28 L119,34 L126,38 L139,53 L149,66 L154,73 L159,84 L163,91 L165,100 L169,113 L171,129 L172,167 L172,186 L174,271 L174,313 L173,322 L174,325 L175,353 L175,416 L176,498 L176,547 L177,560 L178,610 L178,681 L179,719 L180,773 L180,789 L181,808 L180,815 L181,852 L180,888 L178,904 L173,920 L169,932 L165,940 L156,953 L149,963 L142,971 L136,978 L126,986 L121,990 L111,997 L96,1005 L86,1010 L75,1012 L57,1016 L42,1018 L23,1019 L-21,1019 L-82,1020 L-103,1020 L-119,1021 L-124,1020 L-126,1021 L-155,1021 L-196,1022 L-200,1021 L-203,1022 L-303,1023 L-354,1023 L-389,1024 L-412,1024 L-420,1025 L-425,1024 L-432,1025 L-459,1025 L-483,1026 L-496,1026 L-510,1025 L-514,1026 L-530,1026 L-607,1028 L-652,1028 L-665,1029 L-691,1029 L-693,1030 L-699,1030 L-701,1029 L-712,1028 L-720,1025 L-729,1023 L-738,1022 L-754,1016 L-763,1012 L-783,1000 L-794,991 L-802,984 L-813,971 L-820,961 L-829,946 L-833,939 L-839,923 L-841,915 L-843,890 L-843,850 L-844,821 L-844,785 L-845,753 L-846,652 L-847,619 L-847,596 L-848,592 L-849,521 L-851,465 L-852,414 L-854,351 L-854,321 L-856,270 L-856,230 L-857,204 L-857,147 L-855,134 L-854,120 L-850,108 L-842,90 L-834,77 L-829,72 L-824,64 L-820,58 L-813,53 L-808,47 L-794,37 L-789,34 L-777,27 L-763,20 L-744,15 L-736,13 L-713,11 L-681,11 L-676,10 L-641,10 L-628,9 L-622,10 L-609,9 L-582,9 L-563,8 L-494,7 L-472,6 L-448,6 L-435,7 L-432,5 L-421,6 L-406,6 L-392,5 L-360,5 L-338,4 L-324,5 L-302,4 L-250,4 L-244,3 L-200,3 L-160,2 L-150,3 L-130,2 L-75,1 L-55,2 L-50,1 L-15,1 Z M8,10 L-67,11 L-101,12 L-108,13 L-112,12 L-150,12 L-199,13 L-271,13 L-273,14 L-300,14 L-330,16 L-373,16 L-411,17 L-430,17 L-433,13 L-436,13 L-438,17 L-442,18 L-489,18 L-540,19 L-623,20 L-671,21 L-709,21 L-723,23 L-737,24 L-754,29 L-766,33 L-777,39 L-784,38 L-787,44 L-795,51 L-805,59 L-814,68 L-824,81 L-831,92 L-836,102 L-840,112 L-845,127 L-846,140 L-847,144 L-848,179 L-846,282 L-844,399 L-843,429 L-843,451 L-842,489 L-841,529 L-840,548 L-838,655 L-837,676 L-836,742 L-836,772 L-835,783 L-834,822 L-835,830 L-834,855 L-835,872 L-834,892 L-832,907 L-826,928 L-818,945 L-810,959 L-797,975 L-792,981 L-782,989 L-772,995 L-763,1001 L-751,1006 L-744,1009 L-731,1012 L-723,1015 L-698,1017 L-675,1017 L-577,1016 L-565,1016 L-554,1015 L-526,1015 L-498,1014 L-428,1013 L-387,1013 L-352,1012 L-327,1012 L-307,1013 L-295,1011 L-201,1010 L-170,1010 L-138,1009 L-76,1009 L-33,1008 L19,1008 L49,1006 L61,1004 L77,1000 L86,996 L91,994 L111,983 L124,973 L135,962 L141,954 L149,944 L154,936 L161,920 L165,907 L169,888 L169,835 L168,802 L168,762 L167,715 L167,658 L166,607 L166,569 L165,516 L165,487 L164,458 L164,363 L163,296 L163,274 L162,226 L163,204 L162,200 L161,182 L161,138 L160,123 L154,102 L152,98 L150,90 L141,73 L134,63 L131,59 L128,54 L119,48 L109,38 L98,30 L92,27 L86,23 L71,17 L59,14 L43,11 L40,10 Z " fill="#000000" transform="translate(893,37)"/>
<path d="M0,0 L18,0 L36,6 L48,10 L57,16 L67,23 L77,32 L84,43 L88,48 L92,57 L95,69 L97,72 L99,83 L98,109 L90,132 L86,138 L80,147 L71,155 L63,162 L59,166 L58,177 L59,189 L63,197 L67,199 L75,199 L78,200 L124,201 L150,202 L161,204 L166,208 L172,220 L177,233 L181,244 L185,253 L191,270 L195,280 L199,289 L201,297 L208,313 L213,325 L224,353 L231,372 L236,385 L240,393 L244,404 L247,413 L256,434 L265,458 L271,473 L276,487 L281,499 L284,506 L287,518 L292,526 L297,541 L300,549 L302,559 L300,564 L299,565 L287,565 L274,566 L246,566 L243,567 L229,566 L223,564 L217,555 L205,527 L201,517 L197,504 L192,492 L187,482 L184,472 L180,462 L176,450 L170,437 L165,423 L157,404 L153,393 L146,378 L142,367 L138,358 L133,350 L131,349 L128,352 L123,368 L119,385 L116,393 L113,408 L113,419 L117,435 L124,453 L128,465 L132,475 L137,487 L143,505 L147,514 L153,530 L156,539 L160,547 L168,571 L178,598 L183,612 L187,620 L193,641 L199,654 L203,667 L209,682 L213,694 L220,712 L225,727 L232,744 L237,759 L242,771 L245,780 L249,790 L253,803 L256,809 L258,817 L265,834 L270,850 L273,856 L282,883 L283,885 L283,895 L279,898 L276,899 L238,898 L235,899 L208,900 L191,899 L186,896 L180,889 L176,879 L169,864 L164,851 L158,833 L154,824 L150,814 L145,804 L142,794 L135,776 L132,769 L122,746 L116,730 L106,706 L100,691 L96,681 L92,670 L81,643 L77,632 L73,623 L68,610 L60,594 L55,586 L50,587 L44,602 L40,616 L36,627 L30,647 L24,668 L20,678 L12,709 L8,719 L6,728 L5,730 L4,740 L-3,757 L-9,777 L-15,797 L-18,808 L-22,818 L-25,832 L-32,857 L-36,869 L-40,881 L-42,890 L-46,898 L-54,903 L-71,904 L-88,904 L-91,905 L-128,905 L-139,904 L-143,902 L-144,893 L-139,868 L-135,852 L-131,842 L-131,833 L-125,809 L-120,791 L-116,771 L-108,740 L-104,724 L-100,708 L-95,687 L-91,672 L-88,655 L-84,640 L-78,615 L-73,594 L-69,580 L-67,571 L-60,544 L-54,518 L-50,498 L-45,481 L-40,460 L-36,445 L-33,441 L-34,424 L-37,415 L-42,397 L-49,380 L-53,370 L-59,358 L-63,348 L-67,347 L-71,356 L-73,359 L-75,371 L-79,385 L-82,394 L-87,419 L-90,429 L-92,434 L-94,445 L-97,461 L-102,476 L-105,494 L-114,530 L-122,563 L-128,571 L-132,573 L-150,574 L-199,574 L-203,572 L-205,569 L-204,558 L-200,538 L-196,521 L-192,507 L-187,486 L-182,463 L-177,445 L-171,418 L-168,402 L-166,397 L-163,380 L-157,355 L-154,341 L-151,332 L-147,312 L-143,295 L-140,285 L-136,266 L-132,247 L-125,219 L-121,209 L-116,205 L-106,203 L-102,202 L-88,202 L-84,201 L-68,201 L-63,200 L-36,200 L-25,199 L-20,197 L-17,192 L-18,178 L-21,171 L-31,164 L-40,160 L-50,151 L-58,144 L-65,135 L-70,127 L-75,116 L-80,99 L-80,75 L-76,57 L-70,42 L-62,31 L-47,16 L-35,9 L-28,6 L-19,3 L-12,1 Z " fill="#000000" transform="translate(500,99)"/>
<path d="M0,0 L7,0 L12,5 L21,30 L29,50 L32,57 L38,70 L39,79 L34,83 L29,82 L25,76 L21,64 L18,59 L-2,58 L-12,60 L-15,64 L-19,75 L-21,81 L-22,82 L-29,82 L-32,79 L-31,71 L-29,69 L-25,55 L-20,45 L-14,29 L-5,4 Z M2,22 L-2,27 L-6,36 L-7,43 L-4,47 L10,48 L13,41 L7,24 L5,22 Z " fill="#000000" transform="translate(232,1133)"/>
<path d="M0,0 L57,0 L60,4 L59,10 L52,11 L39,12 L36,14 L35,21 L35,77 L33,80 L28,81 L23,77 L22,16 L20,13 L16,12 L2,12 L-3,9 L-4,3 Z " fill="#000000" transform="translate(133,1134)"/>
<path d="M0,0 L10,0 L14,7 L20,24 L29,46 L38,66 L41,74 L41,79 L36,82 L29,78 L23,65 L21,59 L17,57 L-6,57 L-11,60 L-15,67 L-19,78 L-23,81 L-30,80 L-31,75 L-28,65 L-24,56 L-18,40 L-14,31 L-9,16 L-4,3 Z M3,20 L0,24 L-4,33 L-5,45 L-2,47 L10,47 L14,44 L13,35 L7,21 Z " fill="#000000" transform="translate(82,1136)"/>
</svg>
