<?xml version="1.0" encoding="UTF-8"?>
<!-- Generator: visioncortex VTracer 0.6.12 -->
<svg version="1.1" xmlns="http://www.w3.org/2000/svg" width="1116" height="1113">
<path d="M0,0 L1116,0 L1116,1113 L0,1113 Z M328,100 L315,103 L299,111 L288,121 L281,132 L277,140 L274,150 L273,157 L273,167 L275,179 L280,191 L286,201 L294,210 L308,219 L324,224 L337,225 L353,223 L369,215 L378,208 L386,199 L393,187 L396,178 L397,171 L397,153 L394,141 L387,127 L378,117 L371,111 L361,105 L350,101 L343,100 Z M258,275 L237,276 L221,281 L209,286 L198,294 L189,302 L180,314 L174,327 L169,344 L168,351 L166,409 L165,455 L164,602 L164,643 L166,648 L188,649 L245,649 L247,647 L249,584 L249,498 L250,371 L251,359 L253,358 L284,358 L287,361 L288,375 L289,439 L290,460 L291,522 L291,558 L286,575 L278,602 L274,615 L267,637 L262,652 L254,678 L250,691 L243,713 L238,730 L231,753 L222,782 L208,827 L205,837 L196,866 L193,876 L186,900 L180,918 L175,935 L171,946 L165,967 L163,973 L163,978 L167,981 L179,985 L188,988 L202,992 L220,997 L232,1001 L234,1002 L240,1002 L243,999 L249,980 L253,965 L263,929 L268,911 L274,889 L281,862 L288,838 L296,808 L303,782 L309,760 L319,722 L326,698 L329,685 L330,683 L333,682 L336,698 L346,740 L350,754 L357,785 L362,805 L375,858 L379,874 L386,903 L393,934 L399,956 L406,986 L410,1001 L412,1003 L423,1001 L442,996 L469,989 L486,984 L488,981 L487,972 L485,959 L473,917 L463,880 L456,854 L451,836 L446,818 L439,793 L431,763 L424,739 L416,709 L410,688 L405,669 L397,640 L389,613 L379,577 L375,561 L375,521 L376,448 L378,369 L379,361 L382,359 L415,360 L417,363 L417,403 L416,610 L416,648 L418,651 L442,652 L492,653 L495,650 L496,617 L497,545 L498,490 L499,411 L499,383 L498,349 L493,330 L487,318 L484,311 L477,303 L472,297 L458,287 L443,280 L427,277 L418,276 L379,276 Z M759,338 L747,341 L731,349 L722,357 L715,368 L710,380 L708,392 L709,405 L712,417 L718,427 L724,435 L736,444 L750,450 L758,451 L773,451 L788,447 L800,440 L807,434 L815,424 L819,416 L822,405 L822,388 L820,379 L815,367 L811,361 L802,351 L794,345 L778,339 L772,338 Z M869,428 L868,429 L868,436 L872,437 L873,431 L872,428 Z M727,484 L721,488 L684,525 L679,530 L666,542 L662,547 L655,553 L650,558 L643,566 L635,573 L622,586 L617,591 L577,631 L576,633 L576,639 L587,652 L596,662 L600,667 L603,671 L605,671 L607,675 L621,690 L625,689 L639,674 L650,662 L659,652 L675,635 L686,623 L693,615 L706,601 L713,593 L722,583 L726,579 L728,579 L728,719 L721,737 L716,749 L704,778 L692,808 L686,823 L681,835 L670,862 L664,877 L657,894 L652,908 L648,917 L637,943 L633,952 L628,965 L622,980 L623,985 L636,990 L645,993 L661,998 L678,1003 L687,1006 L692,1006 L695,1001 L701,986 L706,971 L713,953 L724,923 L729,911 L733,898 L739,883 L746,863 L757,833 L763,816 L767,816 L771,832 L777,848 L784,868 L788,878 L794,895 L800,911 L810,940 L816,957 L819,962 L824,979 L832,1001 L835,1005 L845,1004 L879,996 L898,991 L909,988 L911,986 L911,980 L906,968 L893,937 L886,922 L879,904 L875,896 L866,875 L861,863 L848,833 L839,812 L834,800 L825,779 L814,754 L803,728 L799,719 L799,682 L800,580 L804,579 L806,583 L818,597 L831,612 L844,627 L860,644 L869,655 L882,669 L891,680 L897,687 L902,687 L911,677 L913,673 L917,671 L933,654 L947,640 L949,637 L949,632 L930,613 L923,605 L914,596 L909,591 L877,559 L869,552 L830,513 L826,508 L820,503 L815,498 L802,485 L800,484 Z M986,680 L983,682 L983,684 L990,685 L994,688 L993,695 L988,703 L992,704 L996,702 L999,696 L1001,691 L995,683 Z M978,683 L975,686 L974,697 L978,697 L980,688 L982,686 L982,683 Z M566,1002 L566,1005 L570,1005 L570,1002 Z " fill="#000000" transform="translate(0,0)"/>
<path d="M0,0 L3,1 L2,4 L-2,3 Z " fill="#000000" transform="translate(439,617)"/>
</svg>
