<?xml version="1.0" encoding="UTF-8"?>
<!-- Generator: visioncortex VTracer 0.6.12 -->
<svg version="1.1" xmlns="http://www.w3.org/2000/svg" width="1113" height="1116">
<path d="M0,0 L1113,0 L1113,1116 L0,1116 Z M559,102 L553,114 L549,127 L545,144 L538,169 L531,195 L527,211 L523,226 L522,229 L521,240 L516,256 L514,265 L510,278 L507,290 L502,311 L497,327 L493,327 L484,316 L471,303 L464,295 L455,286 L448,277 L446,277 L444,273 L432,261 L425,253 L413,241 L406,233 L399,226 L392,218 L383,208 L367,191 L358,182 L351,174 L339,162 L334,161 L333,162 L333,172 L340,199 L346,220 L355,253 L362,277 L367,296 L374,320 L379,337 L387,367 L391,382 L391,388 L382,387 L369,383 L354,378 L337,373 L316,366 L291,359 L278,354 L269,352 L244,344 L207,333 L198,330 L190,328 L174,324 L171,323 L163,323 L162,324 L162,329 L171,339 L176,343 L183,351 L191,359 L196,365 L204,372 L208,377 L216,384 L227,395 L235,402 L243,410 L245,410 L247,414 L262,428 L271,437 L279,444 L313,478 L321,485 L327,492 L326,496 L321,498 L304,502 L277,508 L272,510 L244,516 L228,520 L209,525 L196,528 L170,534 L159,537 L150,539 L129,544 L109,549 L104,553 L103,556 L107,561 L116,563 L130,567 L152,573 L163,575 L171,578 L181,580 L197,584 L223,591 L233,593 L247,597 L256,599 L280,605 L295,609 L302,610 L307,612 L316,614 L325,617 L325,621 L315,632 L310,635 L303,643 L296,650 L290,655 L285,660 L272,673 L267,677 L262,682 L257,687 L247,696 L247,698 L243,700 L234,709 L229,713 L224,718 L203,739 L195,746 L191,751 L184,756 L177,764 L171,769 L166,774 L160,781 L160,786 L165,788 L203,778 L239,767 L257,762 L273,757 L281,755 L311,745 L323,742 L354,733 L372,728 L381,725 L386,724 L387,729 L385,737 L377,764 L372,782 L369,791 L362,816 L357,831 L352,850 L347,867 L340,891 L336,902 L331,922 L325,943 L325,950 L330,952 L341,943 L347,938 L354,930 L362,922 L367,917 L382,902 L387,897 L393,890 L400,884 L404,879 L409,875 L416,867 L427,856 L434,848 L443,840 L448,835 L455,827 L462,821 L469,813 L490,792 L492,789 L496,789 L501,807 L505,821 L508,835 L512,844 L514,859 L520,883 L523,899 L529,922 L533,937 L540,966 L545,985 L548,994 L550,1003 L553,1009 L556,1011 L561,1007 L568,982 L575,954 L585,915 L589,899 L594,880 L598,865 L605,835 L613,805 L616,791 L621,790 L626,796 L628,796 L630,800 L637,807 L642,813 L647,818 L672,843 L677,847 L684,856 L698,870 L701,874 L703,874 L705,878 L732,905 L739,913 L744,918 L780,954 L784,955 L786,954 L787,948 L781,923 L769,879 L765,866 L757,838 L751,817 L743,787 L736,763 L729,738 L727,727 L734,727 L748,732 L757,734 L778,740 L797,746 L809,749 L832,756 L856,763 L870,767 L886,772 L896,775 L911,780 L927,784 L931,786 L945,789 L951,789 L953,787 L952,782 L947,775 L941,770 L935,763 L928,757 L923,752 L901,730 L895,725 L889,718 L881,711 L875,706 L871,701 L863,694 L850,681 L842,674 L833,665 L825,658 L817,650 L812,645 L792,625 L790,624 L791,619 L812,614 L846,606 L862,602 L890,595 L899,594 L910,590 L924,587 L939,583 L970,576 L975,574 L992,570 L1003,567 L1013,563 L1014,562 L1014,557 L1010,554 L991,548 L960,540 L944,537 L918,530 L909,528 L892,523 L872,519 L855,514 L842,511 L827,507 L802,501 L797,499 L789,498 L791,492 L796,487 L809,474 L817,467 L833,452 L838,447 L853,433 L861,425 L869,418 L876,411 L884,404 L894,394 L896,393 L896,391 L900,389 L909,380 L917,373 L944,346 L949,341 L956,333 L955,328 L949,327 L935,331 L926,333 L905,339 L881,346 L870,349 L855,354 L844,356 L833,360 L815,365 L800,370 L789,372 L774,377 L757,382 L734,388 L729,388 L730,378 L735,364 L740,347 L748,321 L755,299 L767,258 L774,236 L779,219 L787,193 L794,166 L793,161 L792,160 L787,160 L780,167 L772,174 L758,188 L753,193 L719,227 L714,232 L705,242 L696,251 L688,258 L679,267 L672,275 L655,292 L650,297 L642,306 L634,313 L629,318 L622,326 L618,326 L616,321 L613,307 L604,268 L601,254 L596,233 L592,217 L588,196 L585,187 L578,154 L572,130 L566,107 L562,102 Z M793,148 L792,153 L796,152 L794,148 Z " fill="#000000" transform="translate(0,0)"/>
</svg>
