<?xml version="1.0" encoding="UTF-8"?>
<!-- Generator: visioncortex VTracer 0.6.12 -->
<svg version="1.1" xmlns="http://www.w3.org/2000/svg" width="372" height="648">
<path d="M0,0 L35,3 L47,6 L67,8 L94,16 L110,24 L119,29 L125,34 L128,39 L128,50 L124,59 L120,64 L110,68 L103,71 L95,75 L88,77 L71,80 L67,83 L57,84 L54,87 L41,87 L38,89 L28,89 L22,92 L10,91 L6,93 L-2,93 L-5,95 L-9,94 L-12,92 L-19,92 L-20,93 L-28,93 L-33,92 L-52,92 L-58,93 L-62,91 L-65,93 L-71,92 L-74,90 L-86,88 L-95,85 L-111,81 L-118,77 L-134,71 L-142,67 L-149,59 L-151,56 L-150,46 L-144,37 L-141,34 L-136,31 L-117,21 L-106,15 L-93,12 L-89,10 L-75,7 L-58,5 L-50,3 L-38,1 L-15,1 Z " fill="#000000" transform="translate(196,35)"/>
<path d="M0,0 L5,1 L8,6 L9,13 L9,26 L10,54 L11,63 L11,72 L8,89 L9,103 L11,106 L11,113 L12,116 L19,121 L18,127 L11,133 L2,138 L-1,141 L-11,143 L-16,145 L-20,148 L-31,150 L-38,154 L-44,154 L-49,153 L-54,158 L-59,160 L-64,161 L-69,160 L-71,162 L-76,162 L-78,160 L-83,161 L-87,164 L-95,166 L-104,165 L-115,166 L-116,167 L-124,167 L-130,165 L-137,166 L-140,168 L-147,168 L-152,165 L-158,166 L-163,167 L-166,164 L-185,162 L-195,161 L-227,155 L-237,151 L-256,146 L-267,142 L-277,138 L-282,133 L-281,127 L-276,123 L-275,113 L-276,98 L-276,85 L-274,66 L-274,54 L-276,45 L-276,33 L-277,25 L-277,15 L-276,6 L-274,3 L-269,4 L-258,11 L-245,17 L-236,19 L-227,23 L-215,25 L-203,29 L-187,31 L-170,33 L-140,34 L-133,33 L-118,33 L-98,31 L-87,27 L-73,26 L-61,23 L-44,20 L-34,16 L-27,14 L-18,10 Z " fill="#000000" transform="translate(317,114)"/>
<path d="M0,0 L6,0 L10,5 L11,39 L12,57 L13,66 L12,88 L13,96 L12,111 L15,118 L20,123 L21,124 L21,132 L13,138 L-1,145 L-7,150 L-10,154 L-15,153 L-18,152 L-28,158 L-36,160 L-50,160 L-58,163 L-70,165 L-75,169 L-84,171 L-91,170 L-96,169 L-98,171 L-106,171 L-111,173 L-128,173 L-134,174 L-136,172 L-141,172 L-144,175 L-148,174 L-151,171 L-158,170 L-162,172 L-169,172 L-171,170 L-188,167 L-202,165 L-214,162 L-230,159 L-244,155 L-249,153 L-258,151 L-275,142 L-278,139 L-278,132 L-273,126 L-272,123 L-272,84 L-273,21 L-273,7 L-271,5 L-264,6 L-251,11 L-241,15 L-227,20 L-219,22 L-204,26 L-187,28 L-183,29 L-170,30 L-168,31 L-121,31 L-110,30 L-107,29 L-94,28 L-90,27 L-74,26 L-64,23 L-63,22 L-51,20 L-37,15 L-28,13 L-19,9 L-11,5 Z " fill="#000000" transform="translate(317,276)"/>
<path d="M0,0 L6,0 L9,5 L10,33 L11,85 L10,111 L8,121 L1,132 L-5,139 L-11,142 L-16,146 L-24,150 L-29,153 L-35,154 L-37,158 L-46,161 L-56,163 L-66,168 L-89,171 L-96,172 L-133,174 L-142,174 L-146,172 L-157,172 L-160,174 L-169,174 L-178,169 L-189,169 L-194,166 L-205,164 L-217,161 L-230,156 L-236,152 L-248,146 L-253,142 L-261,135 L-267,127 L-270,117 L-272,91 L-272,80 L-271,69 L-272,40 L-273,31 L-273,11 L-270,8 L-259,10 L-236,19 L-232,21 L-223,22 L-210,26 L-200,27 L-191,30 L-174,32 L-148,33 L-123,33 L-119,32 L-97,31 L-90,29 L-74,27 L-56,22 L-20,10 L-3,3 Z " fill="#000000" transform="translate(321,441)"/>
</svg>
