<?xml version="1.0" encoding="UTF-8"?>
<!-- Generator: visioncortex VTracer 0.6.12 -->
<svg version="1.1" xmlns="http://www.w3.org/2000/svg" width="639" height="531">
<path d="M0,0 L9,1 L25,9 L34,16 L53,26 L61,32 L71,37 L83,43 L89,47 L97,51 L110,59 L131,70 L138,76 L153,86 L159,89 L161,91 L161,98 L156,103 L140,118 L135,123 L116,137 L114,138 L104,138 L86,127 L77,121 L69,116 L55,108 L47,102 L38,96 L27,90 L19,84 L9,77 L-2,71 L-10,65 L-20,59 L-29,52 L-37,46 L-42,42 L-43,35 L-40,30 L-33,24 L-22,15 L-14,8 Z " fill="#000000" transform="translate(408,36)"/>
<path d="M0,0 L7,1 L25,12 L34,17 L40,22 L55,30 L65,37 L79,46 L94,55 L106,61 L112,66 L128,74 L136,79 L141,83 L152,89 L155,93 L155,100 L152,105 L150,106 L144,106 L135,101 L122,92 L99,79 L91,74 L77,67 L63,58 L52,51 L40,42 L25,32 L16,25 L4,17 L-1,12 L-3,10 L-3,3 Z " fill="#000000" transform="translate(348,92)"/>
<path d="M0,0 L8,1 L19,8 L35,16 L47,24 L58,31 L67,37 L75,41 L81,46 L93,53 L109,63 L117,67 L122,71 L131,77 L136,81 L148,87 L158,94 L159,98 L156,107 L146,121 L141,124 L139,127 L132,131 L124,138 L122,139 L114,139 L108,136 L99,130 L83,120 L73,113 L62,107 L48,98 L37,92 L26,85 L12,75 L0,69 L-9,62 L-14,58 L-23,53 L-31,46 L-40,39 L-40,33 L-35,27 L-24,18 L-12,9 L-4,2 Z " fill="#000000" transform="translate(310,109)"/>
<path d="M0,0 L5,0 L10,5 L18,21 L24,36 L27,44 L27,53 L19,62 L11,69 L1,77 L-11,87 L-16,90 L-18,90 L-20,94 L-31,103 L-41,112 L-48,117 L-53,122 L-64,130 L-72,137 L-81,144 L-83,144 L-83,146 L-91,153 L-102,161 L-111,169 L-121,177 L-125,181 L-127,181 L-129,185 L-137,191 L-147,199 L-155,205 L-166,214 L-171,217 L-175,222 L-191,234 L-200,242 L-210,249 L-212,249 L-214,253 L-224,262 L-237,273 L-247,280 L-250,283 L-255,286 L-266,294 L-277,303 L-288,313 L-299,322 L-306,329 L-312,333 L-320,339 L-329,347 L-335,348 L-340,344 L-342,339 L-345,323 L-350,301 L-350,288 L-343,280 L-338,274 L-329,267 L-325,265 L-325,263 L-314,256 L-307,250 L-298,243 L-292,239 L-285,233 L-280,230 L-272,230 L-269,232 L-259,234 L-251,236 L-246,233 L-245,230 L-245,216 L-243,202 L-238,194 L-225,182 L-221,178 L-214,175 L-210,170 L-201,163 L-189,155 L-179,146 L-170,147 L-162,149 L-154,149 L-151,148 L-148,141 L-146,128 L-141,116 L-136,111 L-126,103 L-113,91 L-104,85 L-99,81 L-95,76 L-85,72 L-68,73 L-65,69 L-63,60 L-55,45 L-48,38 L-46,38 L-44,34 L-38,30 L-33,25 L-31,25 L-30,22 L-16,12 L-5,4 Z " fill="#000000" transform="translate(579,142)"/>
<path d="M0,0 L6,2 L31,15 L36,19 L41,22 L57,32 L70,40 L80,47 L93,55 L100,61 L107,65 L116,70 L133,80 L142,86 L153,93 L158,99 L159,106 L157,110 L150,111 L144,107 L144,105 L139,103 L124,93 L111,84 L100,77 L94,73 L75,62 L64,54 L47,43 L33,35 L27,30 L16,24 L11,20 L2,14 L-3,8 L-4,4 Z " fill="#000000" transform="translate(256,163)"/>
<path d="M0,0 L12,0 L20,4 L29,10 L41,17 L47,20 L52,24 L67,33 L79,41 L87,45 L96,52 L105,58 L115,63 L129,73 L144,81 L158,91 L166,97 L166,105 L159,113 L145,125 L138,130 L133,135 L122,144 L113,149 L107,150 L97,144 L86,136 L72,128 L67,125 L54,117 L41,108 L27,99 L22,95 L16,91 L5,83 L-6,76 L-18,67 L-30,59 L-44,47 L-47,43 L-46,38 L-40,31 L-35,26 L-27,20 L-17,14 L-8,7 L-3,2 Z " fill="#000000" transform="translate(218,180)"/>
<path d="M0,0 L7,1 L17,9 L30,16 L38,22 L43,25 L51,31 L57,35 L64,39 L73,45 L78,49 L88,55 L96,60 L106,67 L115,72 L125,81 L137,87 L144,92 L144,94 L150,96 L158,102 L164,107 L166,111 L166,117 L164,121 L162,122 L154,122 L138,116 L128,109 L113,99 L103,92 L91,84 L78,75 L68,69 L58,62 L48,56 L39,50 L28,42 L23,38 L14,32 L9,27 L0,21 L-6,14 L-6,8 L-2,2 Z " fill="#000000" transform="translate(153,236)"/>
<path d="M0,0 L7,1 L19,7 L29,13 L46,25 L56,32 L67,39 L73,44 L82,50 L92,57 L108,69 L123,77 L127,81 L132,84 L142,92 L154,100 L160,107 L160,113 L154,121 L143,130 L132,140 L121,149 L116,153 L106,159 L97,158 L88,152 L75,142 L67,136 L56,130 L47,124 L34,114 L26,109 L15,101 L4,94 L-5,87 L-18,78 L-28,72 L-37,66 L-52,55 L-55,47 L-53,42 L-48,37 L-42,32 L-34,25 L-26,19 L-17,13 L-6,4 Z " fill="#000000" transform="translate(118,258)"/>
<path d="M0,0 L14,7 L24,15 L33,20 L42,26 L49,30 L69,44 L78,51 L91,59 L101,65 L112,73 L128,85 L135,91 L141,95 L152,104 L162,111 L167,120 L172,142 L176,162 L176,173 L174,177 L167,178 L152,169 L141,162 L130,154 L120,148 L109,138 L103,134 L89,123 L78,116 L68,110 L57,102 L45,95 L34,88 L27,82 L22,78 L22,76 L16,74 L6,67 L-1,59 L-10,51 L-13,46 L-13,38 L-8,13 L-5,4 L-2,1 Z " fill="#000000" transform="translate(49,321)"/>
</svg>
