<?xml version="1.0" encoding="UTF-8"?>
<!-- Generator: visioncortex VTracer 0.6.12 -->
<svg version="1.1" xmlns="http://www.w3.org/2000/svg" width="651" height="849">
<path d="M0,0 L45,1 L54,0 L67,1 L83,2 L145,2 L174,3 L184,4 L244,4 L274,5 L281,5 L285,7 L286,9 L287,18 L287,66 L286,78 L286,98 L285,109 L285,127 L282,231 L281,240 L281,259 L280,327 L280,350 L275,360 L266,371 L260,379 L253,389 L245,399 L238,410 L231,419 L228,426 L221,435 L217,443 L215,452 L214,472 L213,503 L211,570 L211,583 L210,593 L210,606 L209,633 L208,703 L206,714 L205,738 L202,741 L197,739 L185,730 L174,724 L163,717 L143,705 L123,693 L110,685 L87,672 L72,665 L68,663 L61,663 L56,668 L53,677 L49,682 L47,682 L45,686 L37,702 L29,716 L21,732 L17,739 L14,744 L5,756 L-2,769 L-9,779 L-11,780 L-126,781 L-261,781 L-278,779 L-295,775 L-297,772 L-291,763 L-283,748 L-273,731 L-269,723 L-267,720 L-264,710 L-260,706 L-258,706 L-255,697 L-249,688 L-244,678 L-240,671 L-235,659 L-233,650 L-233,389 L-234,364 L-235,355 L-234,333 L-229,318 L-225,304 L-223,296 L-216,272 L-211,253 L-204,229 L-200,212 L-197,205 L-193,194 L-190,189 L-187,187 L-137,187 L-131,184 L-122,172 L-114,160 L-108,152 L-103,143 L-94,131 L-88,123 L-81,113 L-70,97 L-64,88 L-59,80 L-56,75 L-52,69 L-47,63 L-43,57 L-39,52 L-33,42 L-27,33 L-21,24 L-8,6 L-3,1 Z M17,30 L9,36 L1,47 L-6,55 L-13,66 L-22,80 L-29,88 L-33,94 L-38,102 L-43,107 L-51,120 L-61,134 L-69,146 L-79,161 L-89,176 L-92,182 L-91,187 L-89,188 L-78,189 L-19,189 L40,190 L62,191 L77,191 L89,192 L108,192 L107,199 L104,210 L102,220 L96,236 L93,246 L90,253 L85,269 L85,274 L89,274 L95,266 L99,261 L107,251 L114,241 L120,233 L127,221 L138,203 L143,199 L147,191 L158,178 L169,162 L176,152 L184,141 L187,136 L200,118 L206,109 L210,101 L218,91 L226,81 L232,72 L244,58 L252,47 L257,38 L257,34 L255,33 L202,32 L164,32 L144,31 L67,31 L63,30 Z M-169,218 L-173,227 L-179,242 L-183,256 L-187,272 L-193,294 L-197,306 L-200,320 L-200,330 L-198,331 L-187,332 L-157,332 L-154,334 L-150,333 L-131,333 L-127,332 L-120,332 L-114,333 L-98,333 L-86,332 L-70,332 L-64,330 L-61,332 L-30,331 L-21,332 L-15,331 L-7,333 L6,332 L12,333 L32,332 L35,327 L41,314 L48,291 L51,283 L59,257 L64,244 L66,236 L67,234 L67,223 L64,221 L33,220 L-3,220 L-27,219 L-55,219 L-119,218 Z M227,269 L226,273 L230,274 L230,270 Z M-197,360 L-202,364 L-203,368 L-204,389 L-205,398 L-205,451 L-206,481 L-205,520 L-205,558 L-206,596 L-205,616 L-204,626 L-202,630 L-200,631 L-188,632 L-184,634 L-160,634 L-142,635 L-140,634 L-91,634 L-88,635 L-75,635 L-68,634 L-55,635 L-30,635 L-20,636 L-1,636 L2,634 L14,635 L28,635 L30,632 L31,627 L32,555 L32,502 L33,488 L32,446 L33,436 L33,368 L30,361 L28,360 Z M65,366 L64,373 L61,446 L61,507 L60,534 L60,578 L59,587 L59,606 L60,619 L65,623 L75,629 L89,637 L99,641 L104,646 L115,653 L129,661 L134,666 L143,670 L149,675 L160,681 L163,684 L170,687 L173,689 L178,688 L180,682 L182,604 L182,593 L183,566 L184,556 L184,515 L185,466 L185,441 L183,433 L178,429 L163,420 L150,412 L140,406 L121,395 L102,384 L93,378 L73,367 L72,366 Z M-138,664 L-189,665 L-203,666 L-207,671 L-215,683 L-224,702 L-227,706 L-232,717 L-238,727 L-242,736 L-246,749 L-244,751 L-193,753 L-100,753 L-52,754 L-44,753 L-33,755 L-26,753 L-21,747 L-16,737 L-8,724 L-4,715 L4,704 L15,683 L21,672 L21,667 L19,665 L-17,665 L-70,664 L-74,666 L-85,665 L-114,664 Z " fill="#000000" transform="translate(332,36)"/>
<path d="M0,0 L4,1 L5,5 L1,12 L-2,15 L-7,15 L-8,14 L-8,7 Z " fill="#000000" transform="translate(539,118)"/>
</svg>
