<?xml version="1.0" encoding="UTF-8"?>
<!-- Generator: visioncortex VTracer 0.6.12 -->
<svg version="1.1" xmlns="http://www.w3.org/2000/svg" width="1095" height="531">
<path d="M0,0 L31,0 L45,1 L52,0 L78,1 L85,0 L107,0 L112,6 L113,9 L114,30 L118,35 L120,36 L176,36 L181,39 L182,40 L181,54 L177,65 L173,75 L170,84 L164,96 L157,115 L152,127 L150,133 L145,145 L141,157 L135,174 L126,195 L121,209 L117,219 L115,220 L91,221 L66,222 L43,222 L27,223 L-14,224 L-66,224 L-97,225 L-104,225 L-110,228 L-120,235 L-127,243 L-135,249 L-142,257 L-165,280 L-172,288 L-184,299 L-189,304 L-198,312 L-217,323 L-219,325 L-234,325 L-239,326 L-263,326 L-283,327 L-310,327 L-327,328 L-346,327 L-352,328 L-414,328 L-417,329 L-469,329 L-481,330 L-483,329 L-497,328 L-505,321 L-506,297 L-506,258 L-508,120 L-508,92 L-509,73 L-509,23 L-507,14 L-503,10 L-482,8 L-458,8 L-456,9 L-444,8 L-432,10 L-418,18 L-411,22 L-409,26 L-403,28 L-396,37 L-390,46 L-387,51 L-382,52 L-375,48 L-371,45 L-352,42 L-340,39 L-300,39 L-296,37 L-284,39 L-277,38 L-272,34 L-271,32 L-269,11 L-265,6 L-255,4 L-216,4 L-213,3 L-186,4 L-172,4 L-170,3 L-150,4 L-142,3 L-132,4 L-127,5 L-124,3 L-110,3 L-106,2 L-96,2 L-93,3 L-79,3 L-71,2 L-58,2 L-33,1 L-25,2 L-16,1 Z M-6,41 L-10,42 L-23,42 L-31,43 L-112,43 L-138,44 L-169,44 L-172,45 L-226,46 L-232,50 L-233,53 L-234,65 L-234,99 L-233,110 L-230,116 L-225,116 L-210,108 L-204,104 L-193,101 L-180,99 L-163,98 L-160,100 L-152,100 L-145,105 L-137,109 L-131,118 L-128,127 L-127,133 L-127,144 L-130,157 L-137,168 L-146,178 L-145,183 L-144,184 L-99,184 L-96,183 L-88,183 L-86,184 L-79,184 L-72,183 L-35,183 L-12,182 L-5,183 L3,182 L15,183 L21,182 L63,181 L69,178 L75,178 L78,173 L80,160 L80,72 L78,55 L77,45 L72,42 L62,41 L50,41 L27,42 L13,42 Z M-454,46 L-455,47 L-469,47 L-473,50 L-474,54 L-475,78 L-475,113 L-474,119 L-474,131 L-475,140 L-474,146 L-474,176 L-473,239 L-473,274 L-472,284 L-469,289 L-463,290 L-443,290 L-419,289 L-415,285 L-413,276 L-413,247 L-414,242 L-414,166 L-415,119 L-415,104 L-416,79 L-419,70 L-427,59 L-435,52 L-448,46 Z M-350,75 L-361,81 L-367,86 L-374,94 L-380,100 L-381,104 L-381,117 L-379,133 L-375,137 L-362,137 L-357,132 L-354,120 L-347,108 L-343,101 L-343,77 Z M128,76 L117,78 L113,83 L112,101 L114,119 L116,121 L121,120 L124,115 L132,90 L133,87 L133,79 L132,77 Z M-282,77 L-293,79 L-299,83 L-300,87 L-295,90 L-288,91 L-276,91 L-272,87 L-272,81 L-276,77 Z M-288,130 L-298,132 L-305,132 L-311,134 L-307,138 L-300,140 L-294,143 L-289,144 L-282,150 L-275,150 L-271,147 L-270,139 L-272,132 L-278,130 Z M-181,133 L-192,137 L-205,148 L-212,156 L-222,165 L-229,173 L-237,180 L-242,185 L-251,196 L-264,207 L-269,208 L-275,200 L-293,187 L-307,181 L-314,178 L-332,176 L-336,175 L-353,175 L-358,176 L-366,175 L-373,175 L-379,180 L-380,183 L-380,276 L-376,286 L-371,289 L-319,289 L-317,288 L-306,288 L-301,287 L-287,287 L-280,288 L-275,287 L-264,287 L-251,289 L-238,287 L-226,285 L-220,281 L-219,278 L-215,276 L-207,268 L-202,263 L-197,259 L-190,249 L-180,240 L-171,229 L-172,225 L-176,223 L-191,225 L-197,228 L-205,235 L-210,240 L-215,244 L-219,249 L-224,254 L-233,262 L-236,263 L-245,263 L-251,260 L-255,253 L-256,250 L-256,243 L-250,231 L-245,223 L-240,219 L-233,211 L-226,203 L-219,199 L-216,195 L-216,193 L-212,191 L-205,184 L-200,178 L-189,169 L-177,155 L-167,147 L-166,144 L-166,137 L-170,134 L-174,133 Z " fill="#000000" transform="translate(545,35)"/>
<path d="M0,0 L6,0 L12,6 L16,15 L20,22 L31,42 L35,49 L39,51 L75,51 L82,59 L83,63 L80,69 L76,72 L66,74 L40,74 L35,79 L31,84 L25,95 L19,105 L12,119 L6,127 L2,128 L-6,126 L-9,122 L-9,115 L-3,105 L2,93 L4,85 L7,80 L5,75 L0,74 L-20,74 L-23,75 L-30,86 L-36,93 L-43,94 L-45,91 L-44,81 L-40,65 L-41,57 L-45,45 L-44,38 L-42,34 L-37,34 L-26,49 L-23,52 L-17,52 L-10,53 L3,51 L5,49 L5,34 L1,25 L-3,10 L-3,3 Z " fill="#000000" transform="translate(528,86)"/>
<path d="M0,0 L12,1 L17,1 L21,6 L23,11 L23,45 L24,59 L25,64 L24,67 L24,123 L25,148 L26,159 L25,166 L25,192 L24,201 L25,283 L24,293 L24,313 L19,317 L12,320 L-43,320 L-54,315 L-65,311 L-77,301 L-84,295 L-88,289 L-96,279 L-99,275 L-104,276 L-113,284 L-119,286 L-135,288 L-175,289 L-179,287 L-189,287 L-204,289 L-210,292 L-212,295 L-213,301 L-213,314 L-215,320 L-217,322 L-232,323 L-257,323 L-262,324 L-281,324 L-298,325 L-310,325 L-317,324 L-321,326 L-349,326 L-353,328 L-364,327 L-381,327 L-388,328 L-416,327 L-439,327 L-442,328 L-449,328 L-452,327 L-480,327 L-482,328 L-506,328 L-537,329 L-550,329 L-560,330 L-566,331 L-569,330 L-591,329 L-594,325 L-595,322 L-595,299 L-596,205 L-597,193 L-597,169 L-598,143 L-598,118 L-595,109 L-591,106 L-570,105 L-564,104 L-559,105 L-522,105 L-506,104 L-485,104 L-480,103 L-477,104 L-469,104 L-462,102 L-450,103 L-438,103 L-434,101 L-429,101 L-426,103 L-419,103 L-417,102 L-399,102 L-397,101 L-374,102 L-366,96 L-336,66 L-331,62 L-324,54 L-319,48 L-309,40 L-306,35 L-299,31 L-294,25 L-283,18 L-276,13 L-263,8 L-251,5 L-229,4 L-222,4 L-220,3 L-213,3 L-211,4 L-182,4 L-176,3 L-174,4 L-166,4 L-153,3 L-143,4 L-134,2 L-130,3 L-108,4 L-103,2 L-49,2 L-36,1 L-28,2 L-20,2 L-15,1 L-5,2 Z M-118,40 L-204,41 L-224,41 L-232,42 L-240,41 L-250,42 L-265,50 L-273,58 L-278,63 L-282,68 L-291,74 L-298,83 L-304,88 L-311,96 L-313,98 L-313,103 L-304,105 L-297,106 L-287,102 L-276,94 L-269,86 L-264,81 L-257,75 L-252,70 L-245,66 L-239,66 L-231,71 L-227,78 L-227,90 L-233,102 L-241,109 L-247,116 L-255,123 L-270,139 L-275,143 L-282,151 L-291,160 L-299,170 L-304,174 L-311,182 L-316,187 L-316,193 L-313,196 L-306,197 L-290,191 L-281,184 L-275,179 L-274,174 L-269,172 L-263,165 L-255,159 L-248,151 L-236,140 L-230,135 L-221,124 L-219,122 L-212,123 L-203,133 L-192,143 L-183,147 L-175,151 L-169,153 L-149,154 L-139,155 L-136,154 L-108,154 L-105,150 L-103,137 L-103,61 L-104,48 L-107,42 L-116,40 Z M-27,39 L-35,40 L-56,40 L-66,42 L-69,47 L-68,84 L-68,141 L-66,252 L-63,261 L-57,270 L-53,275 L-41,281 L-32,283 L-21,283 L-13,280 L-10,275 L-10,91 L-11,62 L-12,49 L-14,43 L-20,39 Z M-382,143 L-394,144 L-452,145 L-470,146 L-495,146 L-501,145 L-526,147 L-552,147 L-561,150 L-564,161 L-563,198 L-563,272 L-561,285 L-558,289 L-543,290 L-531,288 L-517,289 L-511,290 L-502,288 L-484,288 L-478,287 L-471,288 L-462,287 L-447,287 L-439,288 L-423,285 L-419,287 L-408,287 L-405,286 L-373,286 L-353,285 L-339,285 L-336,286 L-327,286 L-321,284 L-316,286 L-306,286 L-304,285 L-285,284 L-266,284 L-256,283 L-249,277 L-248,269 L-248,223 L-249,212 L-251,209 L-256,210 L-267,219 L-276,224 L-291,230 L-297,231 L-320,231 L-331,228 L-341,223 L-346,219 L-352,210 L-356,198 L-357,190 L-353,175 L-346,164 L-340,157 L-339,153 L-335,151 L-335,146 L-339,143 Z M-212,176 L-214,180 L-214,191 L-212,196 L-206,200 L-186,200 L-178,199 L-167,197 L-166,193 L-167,192 L-178,190 L-194,183 L-207,176 Z M-119,192 L-125,195 L-127,198 L-129,208 L-132,214 L-139,224 L-141,227 L-141,237 L-139,249 L-137,251 L-126,251 L-111,243 L-103,234 L-103,197 L-107,193 L-114,193 Z M-207,236 L-213,239 L-214,246 L-212,251 L-206,254 L-191,254 L-189,253 L-180,253 L-174,249 L-173,244 L-176,239 L-183,236 Z " fill="#000000" transform="translate(1036,166)"/>
<path d="M0,0 L8,0 L11,2 L15,14 L16,17 L20,19 L34,26 L38,31 L41,38 L40,44 L37,47 L28,49 L23,44 L19,40 L15,41 L15,48 L17,50 L30,51 L37,56 L43,66 L45,74 L45,82 L43,90 L38,97 L24,104 L17,106 L15,108 L13,121 L9,125 L2,126 L-1,124 L-4,110 L-5,106 L-11,105 L-25,97 L-31,89 L-32,86 L-32,79 L-28,75 L-24,73 L-17,74 L-11,82 L-6,83 L-5,82 L-5,73 L-13,71 L-23,66 L-29,59 L-33,51 L-31,35 L-25,27 L-16,21 L-9,20 L-5,13 L-4,5 Z M-10,41 L-11,44 L-7,46 L-5,45 L-6,41 Z M17,75 L15,77 L15,84 L19,86 L23,84 L23,77 L21,75 Z " fill="#000000" transform="translate(547,321)"/>
</svg>
