<?xml version="1.0" encoding="UTF-8"?>
<!-- Generator: visioncortex VTracer 0.6.12 -->
<svg version="1.1" xmlns="http://www.w3.org/2000/svg" width="735" height="564">
<path d="M0,0 L20,2 L30,10 L39,19 L43,32 L44,40 L44,59 L47,67 L56,73 L73,81 L83,89 L95,98 L99,103 L104,107 L113,118 L120,127 L126,137 L134,153 L141,167 L146,179 L150,187 L155,203 L159,212 L164,233 L164,246 L161,260 L157,268 L157,277 L162,281 L181,281 L199,279 L207,275 L206,269 L198,257 L197,254 L197,247 L203,240 L266,240 L283,239 L303,236 L322,236 L332,238 L337,243 L339,245 L339,253 L330,267 L319,281 L311,286 L294,286 L274,288 L250,294 L234,301 L224,308 L213,317 L206,325 L197,336 L187,359 L183,375 L182,377 L180,400 L181,408 L180,434 L177,439 L173,442 L143,444 L-9,444 L-34,445 L-53,447 L-62,447 L-70,445 L-75,442 L-78,431 L-80,412 L-80,398 L-85,376 L-90,360 L-97,347 L-107,334 L-112,329 L-119,322 L-119,320 L-123,318 L-133,311 L-152,301 L-161,294 L-163,290 L-166,289 L-178,289 L-187,291 L-194,291 L-199,287 L-201,282 L-201,236 L-196,231 L-195,230 L-187,231 L-175,236 L-161,247 L-156,250 L-151,249 L-146,242 L-140,230 L-130,223 L-114,218 L-104,214 L-92,211 L-83,207 L-60,196 L-46,189 L-36,184 L-30,177 L-23,161 L-17,152 L-11,138 L-6,130 L0,115 L5,104 L5,98 L0,93 L-19,84 L-25,79 L-30,72 L-34,59 L-36,48 L-36,35 L-32,23 L-27,14 L-21,7 L-13,3 L-3,1 Z M22,171 L10,182 L2,192 L-7,200 L-12,205 L-25,217 L-39,224 L-52,229 L-62,233 L-77,237 L-92,242 L-105,246 L-114,252 L-117,256 L-117,263 L-114,267 L-101,270 L-82,273 L-68,274 L-62,276 L-50,278 L-34,281 L-14,286 L-2,286 L4,282 L13,272 L23,263 L33,257 L48,245 L53,242 L53,240 L57,238 L64,232 L67,228 L67,221 L60,207 L54,199 L47,188 L42,180 L37,175 L30,171 Z M75,319 L67,322 L63,326 L63,333 L67,346 L75,367 L83,386 L88,396 L92,399 L97,399 L103,392 L105,388 L105,361 L104,337 L101,328 L95,323 L85,319 Z M-24,344 L-36,348 L-43,353 L-45,358 L-45,365 L-41,376 L-33,391 L-25,401 L-18,409 L-9,419 L-3,423 L6,423 L10,418 L13,413 L23,408 L27,404 L28,397 L25,390 L19,375 L14,364 L6,352 L1,347 L-3,345 Z " fill="#000000" transform="translate(318,36)"/>
<path d="M0,0 L28,0 L41,3 L52,7 L65,14 L76,22 L89,34 L97,44 L104,55 L111,74 L114,86 L115,104 L112,119 L109,130 L103,142 L97,152 L85,166 L75,174 L65,180 L58,183 L45,186 L29,188 L12,188 L-4,184 L-13,182 L-29,174 L-42,163 L-50,156 L-57,147 L-66,133 L-70,125 L-75,104 L-76,101 L-76,94 L-75,87 L-75,77 L-71,62 L-63,46 L-56,36 L-47,26 L-36,18 L-26,12 L-16,6 Z M14,38 L0,42 L-8,46 L-22,57 L-28,64 L-32,72 L-34,78 L-35,86 L-35,106 L-30,118 L-27,124 L-17,137 L-6,145 L11,152 L30,152 L40,149 L54,141 L62,133 L67,128 L75,112 L76,109 L76,96 L73,82 L70,72 L66,63 L58,53 L50,48 L31,38 Z " fill="#000000" transform="translate(586,336)"/>
<path d="M0,0 L22,0 L36,3 L49,7 L64,15 L74,23 L84,32 L92,42 L100,55 L103,62 L107,78 L108,84 L108,94 L106,109 L101,127 L93,143 L87,151 L76,163 L62,173 L48,180 L26,186 L12,186 L-1,185 L-17,180 L-23,177 L-38,169 L-49,160 L-54,156 L-64,143 L-72,128 L-77,112 L-79,102 L-79,90 L-77,71 L-70,50 L-61,38 L-54,28 L-44,19 L-28,11 L-14,4 Z M3,36 L-12,40 L-18,44 L-23,48 L-31,55 L-38,66 L-42,76 L-44,86 L-44,95 L-40,112 L-32,127 L-26,134 L-24,134 L-24,136 L-12,145 L2,151 L15,151 L27,149 L40,144 L49,139 L57,130 L65,116 L70,102 L70,84 L64,68 L56,55 L51,50 L44,44 L34,39 L25,36 Z " fill="#000000" transform="translate(116,345)"/>
</svg>
