<?xml version="1.0" encoding="UTF-8"?>
<!-- Generator: visioncortex VTracer 0.6.12 -->
<svg version="1.1" xmlns="http://www.w3.org/2000/svg" width="1104" height="1110">
<path d="M0,0 L1100,0 L1100,1074 L1099,1080 L1098,1110 L-4,1110 L-4,155 L-3,148 L-3,130 L-2,89 L-1,9 Z M83,218 L82,222 L86,222 L85,218 Z M586,230 L583,232 L584,236 L626,278 L631,283 L640,293 L654,308 L659,315 L659,317 L653,316 L620,303 L600,295 L584,289 L556,278 L535,270 L517,263 L498,256 L489,252 L472,246 L450,237 L446,235 L441,236 L440,237 L440,246 L444,267 L452,291 L462,310 L470,321 L482,335 L491,342 L504,350 L522,358 L534,361 L538,363 L549,364 L556,366 L584,369 L623,369 L625,371 L619,375 L595,386 L573,397 L561,404 L547,411 L536,418 L524,426 L512,435 L504,441 L493,450 L480,461 L473,470 L464,479 L457,487 L447,499 L435,515 L425,530 L412,551 L403,567 L395,581 L388,598 L384,607 L376,628 L368,652 L359,682 L353,711 L350,730 L348,751 L347,779 L348,810 L351,830 L356,857 L362,878 L366,889 L376,908 L386,926 L396,943 L408,960 L417,972 L431,987 L444,999 L450,1003 L449,1007 L432,1009 L413,1010 L389,1010 L361,1007 L344,1004 L334,1000 L325,998 L304,988 L292,981 L285,977 L275,970 L264,962 L253,953 L243,944 L225,926 L214,912 L207,904 L200,894 L194,886 L182,867 L174,853 L165,834 L156,812 L148,786 L144,772 L140,755 L137,729 L135,713 L134,678 L136,646 L142,605 L147,580 L153,556 L159,540 L169,514 L178,493 L188,474 L195,461 L204,447 L211,436 L218,426 L228,413 L229,408 L226,405 L219,409 L207,424 L195,441 L180,465 L171,481 L161,503 L150,529 L146,539 L143,548 L141,557 L137,572 L131,596 L127,619 L123,652 L122,664 L121,704 L121,724 L123,748 L128,781 L135,808 L144,835 L155,861 L167,883 L175,897 L184,910 L196,926 L205,936 L211,944 L216,949 L235,968 L246,977 L259,988 L269,995 L280,1002 L296,1010 L306,1015 L318,1019 L330,1023 L364,1031 L386,1034 L419,1035 L445,1034 L474,1031 L479,1030 L490,1030 L498,1035 L529,1036 L554,1036 L576,1037 L650,1038 L731,1039 L754,1039 L845,1040 L848,1038 L847,1034 L841,1026 L831,1018 L816,1010 L796,1003 L786,1001 L767,1000 L738,1002 L699,1005 L696,1005 L697,999 L700,998 L707,990 L720,976 L734,957 L741,947 L752,926 L760,910 L768,891 L771,882 L776,867 L784,831 L788,812 L791,788 L796,727 L799,703 L800,700 L802,699 L876,700 L884,701 L886,700 L885,696 L853,679 L832,668 L818,660 L816,660 L817,657 L833,657 L882,658 L885,655 L877,649 L856,636 L832,622 L822,616 L819,613 L819,605 L826,580 L829,569 L832,561 L842,536 L850,520 L858,504 L865,492 L876,474 L882,466 L885,461 L897,445 L904,438 L911,430 L922,418 L929,411 L929,409 L934,409 L934,425 L932,448 L931,473 L929,494 L929,519 L933,520 L935,518 L938,481 L939,451 L941,428 L943,428 L946,450 L948,469 L951,490 L954,511 L957,520 L961,519 L962,515 L960,505 L958,489 L955,469 L952,446 L949,426 L948,423 L947,412 L947,400 L950,394 L963,382 L967,376 L968,367 L965,361 L960,356 L949,352 L937,351 L928,344 L916,333 L901,320 L891,310 L883,303 L873,294 L866,287 L858,280 L849,271 L838,262 L833,258 L829,254 L825,254 L826,259 L837,268 L842,273 L850,281 L852,281 L852,283 L860,290 L871,301 L876,305 L881,310 L898,326 L899,328 L893,327 L876,317 L858,306 L846,299 L833,291 L813,279 L802,272 L797,271 L797,276 L816,288 L832,298 L845,306 L858,314 L868,320 L887,331 L904,341 L915,348 L915,351 L840,350 L770,348 L733,347 L731,345 L729,334 L725,289 L721,271 L713,255 L702,244 L686,237 L670,234 L656,233 L652,232 L635,231 Z M257,873 L257,875 L260,875 L260,873 Z M360,902 L359,906 L364,907 L365,903 Z " fill="#000000" transform="translate(4,0)"/>
<path d="M0,0 L10,0 L21,6 L26,13 L28,18 L28,30 L23,39 L15,45 L10,47 L1,47 L-7,44 L-13,39 L-17,31 L-18,28 L-18,19 L-14,10 L-9,4 Z " fill="#000000" transform="translate(760,379)"/>
<path d="M0,0 L3,1 L1,5 L-2,4 Z " fill="#000000" transform="translate(668,710)"/>
</svg>
