<?xml version="1.0" encoding="UTF-8"?>
<!-- Generator: visioncortex VTracer 0.6.12 -->
<svg version="1.1" xmlns="http://www.w3.org/2000/svg" width="1062" height="744">
<path d="M0,0 L20,0 L43,4 L58,10 L76,21 L89,32 L89,34 L93,36 L100,44 L107,54 L113,65 L117,80 L121,100 L123,117 L122,124 L119,128 L115,143 L107,159 L100,170 L93,177 L83,190 L79,191 L77,195 L75,198 L75,209 L79,233 L81,245 L82,253 L79,262 L74,263 L50,261 L34,261 L31,259 L25,260 L23,261 L23,269 L25,276 L26,285 L30,301 L34,322 L33,329 L28,332 L-5,331 L-13,330 L-36,330 L-44,331 L-46,336 L-46,345 L-45,350 L-44,370 L-43,376 L-42,394 L-41,398 L-41,416 L-47,421 L-102,421 L-106,424 L-107,432 L-104,461 L-103,476 L-102,481 L-102,495 L-106,500 L-113,501 L-153,501 L-172,504 L-175,505 L-176,509 L-176,579 L-178,585 L-179,586 L-195,586 L-204,584 L-236,582 L-245,583 L-248,589 L-248,638 L-250,648 L-253,652 L-256,653 L-282,653 L-305,651 L-314,649 L-340,649 L-348,651 L-357,650 L-366,644 L-376,635 L-389,625 L-405,610 L-410,605 L-415,601 L-420,596 L-433,584 L-435,580 L-435,573 L-428,563 L-420,552 L-415,546 L-412,540 L-405,530 L-403,530 L-401,526 L-391,511 L-382,499 L-376,491 L-369,482 L-362,474 L-354,463 L-347,453 L-336,438 L-323,420 L-317,413 L-311,402 L-304,394 L-297,385 L-292,379 L-285,366 L-279,361 L-272,351 L-262,338 L-258,332 L-247,319 L-235,302 L-228,291 L-221,284 L-213,271 L-203,258 L-195,247 L-192,241 L-185,235 L-179,225 L-170,214 L-163,206 L-159,198 L-154,194 L-150,186 L-143,178 L-131,162 L-128,158 L-124,150 L-118,145 L-111,134 L-105,127 L-96,114 L-94,111 L-93,89 L-90,72 L-85,59 L-79,48 L-75,43 L-67,32 L-54,22 L-45,16 L-24,5 Z M8,68 L-7,74 L-17,83 L-24,94 L-24,106 L-19,121 L-8,133 L0,140 L10,146 L19,149 L27,148 L36,145 L43,139 L47,133 L49,118 L51,111 L51,99 L48,88 L39,78 L30,72 L17,68 Z " fill="#000000" transform="translate(543,30)"/>
<path d="M0,0 L5,0 L9,5 L12,15 L15,29 L15,40 L9,43 L3,42 L-2,37 L-3,36 L-13,37 L-31,43 L-51,48 L-60,51 L-68,53 L-89,59 L-99,63 L-104,64 L-113,64 L-116,60 L-117,55 L-113,50 L-100,45 L-80,39 L-73,37 L-64,34 L-55,31 L-43,28 L-28,24 L-12,18 L-9,14 L-5,5 Z " fill="#000000" transform="translate(364,54)"/>
<path d="M0,0 L10,0 L25,5 L30,8 L31,12 L28,19 L20,24 L13,38 L9,53 L4,65 L-6,92 L-13,111 L-19,126 L-24,130 L-29,130 L-32,126 L-33,120 L-29,107 L-22,89 L-15,68 L-9,52 L-6,41 L-2,32 L1,24 L1,14 L-2,13 L-5,7 L-3,2 Z " fill="#000000" transform="translate(936,99)"/>
<path d="M0,0 L10,0 L14,3 L14,11 L7,19 L6,23 L11,35 L16,43 L20,53 L29,67 L34,77 L40,91 L49,107 L54,115 L58,123 L61,133 L61,140 L57,144 L52,144 L47,140 L39,127 L35,119 L31,112 L27,103 L19,89 L15,83 L12,76 L9,71 L0,54 L-5,44 L-11,33 L-15,30 L-26,32 L-32,32 L-36,29 L-35,22 L-30,18 L-16,10 L-4,3 Z " fill="#000000" transform="translate(67,102)"/>
<path d="M0,0 L7,0 L12,4 L13,6 L13,12 L9,18 L10,24 L16,33 L23,47 L23,49 L25,49 L33,64 L39,72 L45,84 L55,101 L65,118 L70,126 L72,131 L71,136 L66,139 L60,140 L55,137 L49,127 L43,116 L37,106 L30,92 L21,79 L18,74 L14,69 L6,54 L-3,37 L-8,31 L-24,31 L-29,29 L-31,27 L-31,21 L-21,12 L-14,8 L-3,1 Z " fill="#000000" transform="translate(138,148)"/>
<path d="M0,0 L6,0 L15,7 L26,16 L30,21 L30,28 L26,32 L20,31 L19,30 L12,31 L-1,50 L-12,62 L-20,75 L-24,80 L-26,80 L-28,84 L-37,96 L-45,104 L-51,112 L-55,114 L-59,113 L-61,111 L-61,104 L-55,95 L-51,90 L-43,79 L-33,65 L-27,55 L-19,45 L-9,28 L-4,22 L-3,20 L-3,14 L-5,7 L-2,1 Z " fill="#000000" transform="translate(961,174)"/>
<path d="M0,0 L5,0 L16,8 L31,21 L32,23 L33,36 L40,44 L49,49 L60,61 L71,70 L81,79 L90,90 L96,99 L102,111 L107,121 L108,124 L108,142 L106,154 L102,165 L95,179 L88,188 L83,189 L81,187 L80,179 L79,152 L75,148 L65,143 L57,139 L54,136 L54,134 L51,133 L49,130 L44,130 L35,140 L29,149 L19,161 L10,172 L-1,186 L-6,193 L-11,198 L-18,208 L-26,217 L-32,225 L-43,239 L-52,250 L-59,259 L-72,277 L-74,277 L-76,281 L-80,287 L-89,297 L-93,305 L-99,312 L-103,316 L-112,327 L-123,342 L-130,350 L-139,362 L-148,373 L-156,384 L-165,394 L-172,404 L-181,416 L-188,424 L-194,432 L-202,442 L-212,455 L-222,468 L-231,479 L-233,479 L-235,484 L-245,497 L-252,503 L-259,503 L-269,495 L-273,490 L-281,484 L-291,476 L-300,468 L-301,461 L-298,456 L-291,448 L-283,437 L-277,432 L-271,424 L-263,416 L-256,408 L-248,400 L-241,391 L-232,381 L-221,367 L-213,360 L-205,350 L-195,339 L-186,328 L-176,317 L-173,312 L-171,307 L-161,300 L-154,292 L-149,287 L-141,277 L-131,265 L-127,260 L-125,260 L-123,256 L-116,248 L-105,236 L-98,228 L-91,220 L-83,212 L-78,204 L-66,191 L-57,181 L-50,173 L-41,163 L-34,155 L-29,149 L-20,138 L-13,131 L-6,123 L1,115 L8,105 L8,99 L6,95 L2,93 L-8,87 L-13,88 L-21,93 L-26,92 L-31,87 L-48,70 L-50,67 L-50,61 L-41,48 L-38,44 L-36,44 L-34,40 L-27,31 L-21,23 L-10,12 L-4,2 Z " fill="#000000" transform="translate(736,204)"/>
<path d="M0,0 L6,0 L11,8 L17,23 L17,29 L12,34 L6,34 L1,30 L-5,31 L-16,38 L-25,43 L-33,49 L-44,55 L-54,62 L-63,68 L-70,71 L-78,70 L-81,67 L-80,63 L-78,59 L-65,50 L-43,37 L-32,31 L-22,24 L-16,20 L-13,17 L-11,17 L-9,11 L-1,1 Z " fill="#000000" transform="translate(1013,212)"/>
<path d="M0,0 L9,1 L24,5 L35,9 L41,11 L44,14 L45,21 L42,26 L41,27 L33,27 L28,32 L24,39 L19,49 L9,78 L5,87 L0,100 L-3,106 L-5,116 L-8,121 L-12,133 L-17,142 L-23,147 L-29,146 L-32,141 L-31,132 L-24,112 L-21,106 L-17,93 L-13,84 L-10,75 L-6,63 L-2,52 L1,44 L6,33 L7,22 L6,18 L-4,13 L-5,4 Z " fill="#000000" transform="translate(94,316)"/>
<path d="M0,0 L7,1 L16,6 L27,15 L27,17 L29,17 L31,21 L30,26 L26,30 L18,30 L13,33 L4,44 L-7,59 L-15,70 L-19,75 L-25,83 L-39,101 L-45,109 L-56,122 L-61,126 L-66,127 L-71,124 L-72,117 L-66,108 L-54,92 L-45,80 L-38,71 L-34,66 L-21,48 L-18,42 L-8,31 L-3,23 L-2,18 L-6,10 L-5,3 Z " fill="#000000" transform="translate(989,432)"/>
<path d="M0,0 L6,0 L11,5 L11,12 L5,19 L4,25 L3,46 L3,58 L4,79 L4,151 L1,155 L-8,155 L-12,151 L-13,145 L-14,115 L-14,80 L-16,30 L-17,19 L-23,12 L-23,6 L-19,2 Z " fill="#000000" transform="translate(867,562)"/>
<path d="M0,0 L6,1 L9,7 L9,20 L18,34 L24,42 L34,57 L34,59 L36,59 L43,70 L43,72 L45,72 L52,82 L59,92 L65,102 L66,104 L66,111 L62,114 L55,114 L50,109 L44,102 L37,92 L30,83 L24,73 L18,65 L11,55 L4,45 L-2,34 L-2,32 L-7,30 L-7,28 L-17,26 L-22,21 L-21,15 L-15,8 L-9,4 Z " fill="#000000" transform="translate(775,569)"/>
<path d="M0,0 L8,2 L14,5 L21,8 L23,11 L22,18 L18,22 L11,24 L9,29 L5,42 L2,60 L-5,89 L-9,103 L-12,114 L-16,122 L-21,123 L-26,121 L-28,118 L-28,106 L-26,96 L-21,73 L-17,62 L-10,31 L-9,25 L-9,17 L-14,12 L-14,6 L-10,2 Z " fill="#000000" transform="translate(908,583)"/>
</svg>
