<?xml version="1.0" encoding="UTF-8"?>
<!-- Generator: visioncortex VTracer 0.6.12 -->
<svg version="1.1" xmlns="http://www.w3.org/2000/svg" width="1161" height="1161">
<path d="M0,0 L14,0 L13,3 L11,3 L10,16 L9,63 L8,143 L7,178 L7,201 L6,247 L6,275 L5,311 L5,375 L4,480 L2,612 L1,692 L0,732 L0,753 L-1,777 L-1,790 L0,801 L-1,806 L-3,923 L-4,942 L-4,974 L-5,1026 L-6,1084 L-6,1093 L-4,1100 L-6,1106 L-7,1117 L-9,1119 L-9,614 L-8,606 L-6,485 L-6,455 L-5,344 L-5,296 L-4,266 L-4,240 L-3,189 L-2,84 L-1,10 Z " fill="#000000" transform="translate(9,0)"/>
<path d="M0,0 L741,0 L742,1 L747,1 L748,0 L756,0 L757,1 L762,1 L763,0 L779,0 L781,1 L787,1 L788,0 L796,0 L799,2 L861,2 L940,3 L955,4 L982,3 L988,5 L1038,4 L1107,6 L1113,7 L1113,23 L1110,20 L1106,16 L1075,16 L1035,15 L1007,15 L992,14 L985,15 L974,14 L943,14 L919,13 L917,14 L891,13 L852,13 L820,12 L776,12 L753,11 L722,11 L687,10 L648,10 L617,9 L565,9 L543,8 L435,7 L401,7 L336,6 L295,6 L250,5 L191,4 L155,4 L83,3 L48,2 L31,3 L4,3 L0,1 Z " fill="#000000" transform="translate(48,0)"/>
<path d="M0,0 L7,0 L21,8 L35,17 L49,24 L66,35 L75,40 L80,44 L98,54 L112,62 L118,69 L118,111 L116,212 L116,288 L123,288 L140,280 L151,273 L168,264 L173,260 L189,252 L199,246 L213,239 L224,232 L238,224 L257,213 L274,205 L285,198 L292,194 L308,185 L315,185 L325,191 L335,197 L347,204 L361,212 L374,220 L390,229 L405,239 L412,243 L423,250 L426,253 L427,256 L427,310 L426,321 L426,342 L424,389 L416,394 L400,403 L396,406 L380,414 L362,424 L347,432 L338,438 L326,444 L316,450 L304,456 L296,461 L282,469 L269,477 L253,485 L242,492 L235,496 L235,501 L246,509 L261,518 L278,528 L295,538 L307,546 L326,557 L337,563 L356,574 L375,585 L386,592 L399,600 L407,605 L418,611 L421,620 L421,695 L420,741 L417,747 L401,757 L388,764 L380,769 L362,779 L350,786 L336,794 L324,800 L307,810 L300,809 L295,805 L277,795 L269,790 L244,775 L226,765 L218,759 L207,753 L198,747 L187,741 L172,733 L163,727 L152,721 L144,716 L135,711 L117,701 L112,702 L111,708 L110,741 L109,853 L108,873 L108,904 L107,920 L102,926 L80,938 L63,947 L50,955 L39,961 L23,970 L18,974 L2,982 L-8,988 L-14,988 L-25,982 L-35,975 L-50,966 L-61,959 L-78,949 L-98,937 L-112,929 L-123,921 L-124,919 L-124,848 L-123,771 L-123,707 L-125,701 L-131,701 L-141,707 L-160,717 L-175,725 L-185,731 L-200,740 L-208,744 L-231,757 L-256,771 L-272,780 L-291,790 L-309,801 L-315,804 L-320,804 L-333,796 L-355,783 L-367,776 L-385,765 L-400,756 L-415,746 L-429,737 L-431,735 L-432,698 L-431,620 L-430,606 L-426,601 L-415,594 L-402,587 L-386,578 L-376,572 L-358,562 L-348,556 L-331,547 L-316,538 L-293,525 L-274,514 L-248,499 L-242,495 L-240,495 L-241,489 L-258,478 L-273,469 L-284,462 L-298,454 L-315,443 L-327,436 L-337,429 L-348,423 L-364,414 L-379,404 L-396,394 L-418,381 L-426,376 L-428,372 L-429,298 L-428,246 L-424,240 L-413,233 L-392,221 L-379,214 L-373,210 L-366,207 L-353,199 L-335,189 L-319,181 L-313,178 L-307,179 L-293,188 L-282,194 L-268,202 L-245,216 L-223,229 L-205,240 L-192,247 L-184,252 L-168,261 L-149,273 L-128,285 L-125,287 L-120,287 L-118,281 L-117,261 L-117,247 L-116,212 L-116,167 L-115,136 L-114,76 L-111,67 L-107,62 L-87,51 L-70,41 L-47,28 L-30,18 L-22,13 L-15,8 L-13,5 L-6,4 Z " fill="#000000" transform="translate(584,81)"/>
<path d="M0,0 L1,0 L1,634 L0,640 L1,642 L1,651 L0,657 L-1,718 L-2,816 L-3,866 L-3,899 L-4,905 L-4,953 L-5,993 L-5,1025 L-6,1044 L-6,1068 L-18,1068 L-16,1051 L-16,1007 L-15,982 L-15,961 L-14,925 L-13,905 L-13,881 L-12,783 L-11,745 L-11,716 L-9,654 L-9,606 L-8,535 L-7,495 L-6,442 L-6,380 L-5,306 L-5,259 L-4,241 L-4,175 L-2,46 L-2,17 L-1,1 Z " fill="#000000" transform="translate(1160,93)"/>
<path d="M0,0 L4,2 L10,4 L24,4 L53,5 L112,6 L157,7 L200,8 L299,9 L329,10 L370,10 L378,11 L422,11 L453,12 L457,13 L460,12 L534,12 L599,13 L609,14 L690,14 L745,15 L785,16 L793,17 L803,16 L839,17 L881,17 L905,18 L917,17 L925,19 L940,18 L950,19 L986,19 L987,21 L336,21 L335,20 L316,21 L313,20 L293,19 L239,19 L141,17 L94,17 L19,15 L0,15 Z " fill="#000000" transform="translate(0,1140)"/>
</svg>
