<?xml version="1.0" encoding="UTF-8"?>
<!-- Generator: visioncortex VTracer 0.6.12 -->
<svg version="1.1" xmlns="http://www.w3.org/2000/svg" width="1110" height="1056">
<path d="M0,0 L7,0 L31,13 L40,17 L55,27 L73,38 L83,45 L91,49 L91,51 L95,53 L111,61 L124,69 L140,79 L155,88 L167,95 L175,102 L192,112 L208,120 L217,127 L235,137 L252,147 L267,157 L278,163 L290,170 L308,181 L321,189 L334,196 L342,202 L360,212 L376,222 L386,228 L400,237 L418,247 L427,253 L441,262 L451,269 L461,275 L466,280 L466,286 L461,296 L456,306 L449,317 L439,333 L434,342 L425,357 L421,363 L414,377 L405,389 L401,397 L397,402 L387,420 L378,434 L370,448 L364,459 L356,472 L347,487 L338,501 L330,514 L327,519 L315,539 L302,560 L294,574 L281,596 L274,610 L274,616 L280,626 L288,635 L292,645 L296,660 L296,679 L294,688 L289,700 L283,708 L271,719 L260,727 L250,733 L235,738 L229,739 L214,739 L202,735 L196,735 L193,739 L189,747 L181,758 L172,772 L164,784 L156,795 L151,807 L143,818 L134,833 L127,844 L121,854 L115,862 L107,874 L100,885 L95,894 L90,901 L88,902 L72,901 L52,899 L38,897 L33,891 L18,882 L15,880 L10,881 L5,889 L0,892 L-9,892 L-19,890 L-39,888 L-50,886 L-70,884 L-74,883 L-93,882 L-105,881 L-113,880 L-123,878 L-140,876 L-179,872 L-204,869 L-222,868 L-227,866 L-230,862 L-230,853 L-228,831 L-225,793 L-224,786 L-223,768 L-222,761 L-221,735 L-234,725 L-248,718 L-256,712 L-276,700 L-290,691 L-306,681 L-317,674 L-324,670 L-344,658 L-349,654 L-354,649 L-366,640 L-374,633 L-375,627 L-369,616 L-361,603 L-351,588 L-345,577 L-337,564 L-331,556 L-328,549 L-322,540 L-317,531 L-312,524 L-307,514 L-301,505 L-294,492 L-285,478 L-276,463 L-264,443 L-256,430 L-248,416 L-244,409 L-244,401 L-248,393 L-251,383 L-253,378 L-254,371 L-254,352 L-251,336 L-243,321 L-239,312 L-234,308 L-224,302 L-219,299 L-209,296 L-200,290 L-190,287 L-174,284 L-168,280 L-163,273 L-159,265 L-152,254 L-149,250 L-143,238 L-136,228 L-132,220 L-126,211 L-116,193 L-110,184 L-101,168 L-96,160 L-85,141 L-79,132 L-72,116 L-66,107 L-58,96 L-50,80 L-41,65 L-37,60 L-31,48 L-18,26 L-9,12 L-3,3 Z M12,28 L7,33 L3,40 L0,46 L-8,57 L-19,76 L-23,81 L-31,95 L-34,100 L-34,106 L-30,110 L-10,122 L0,129 L18,139 L27,145 L35,151 L46,157 L57,164 L71,173 L79,178 L95,188 L101,189 L105,187 L110,188 L114,194 L123,200 L128,208 L141,217 L159,227 L170,234 L180,240 L195,250 L213,260 L223,267 L241,278 L259,288 L262,289 L262,291 L273,297 L279,301 L284,306 L307,319 L317,325 L332,334 L336,338 L345,341 L357,349 L366,353 L376,360 L382,363 L390,363 L394,358 L400,346 L409,332 L418,319 L425,307 L435,290 L435,285 L430,280 L411,268 L402,262 L387,256 L380,253 L375,246 L361,238 L346,228 L328,217 L318,211 L307,204 L297,198 L290,194 L281,188 L262,177 L254,171 L243,164 L225,154 L220,150 L204,140 L190,132 L177,125 L154,112 L140,104 L127,96 L117,88 L101,78 L83,67 L70,59 L58,52 L44,43 L30,35 L18,28 Z M-41,115 L-45,120 L-53,131 L-61,145 L-66,154 L-71,166 L-68,171 L-63,176 L-59,180 L-49,183 L-36,190 L-26,197 L-10,207 L3,215 L22,225 L31,232 L42,238 L52,244 L64,251 L89,266 L103,275 L112,281 L133,292 L142,298 L162,309 L172,315 L180,321 L191,327 L210,338 L219,344 L229,350 L249,363 L259,369 L270,377 L285,386 L292,392 L306,400 L321,406 L331,410 L349,421 L356,420 L362,411 L364,404 L359,403 L355,402 L345,385 L340,384 L337,387 L334,392 L327,392 L325,387 L322,384 L313,380 L301,374 L286,364 L273,354 L272,350 L275,347 L282,344 L283,339 L280,337 L274,337 L267,343 L267,345 L258,345 L253,342 L251,339 L252,335 L256,331 L259,324 L258,319 L254,318 L249,323 L247,333 L247,335 L238,333 L220,321 L219,316 L220,312 L220,300 L232,301 L240,301 L249,307 L257,314 L262,317 L274,323 L284,331 L289,335 L292,341 L293,342 L302,344 L312,349 L315,355 L317,361 L318,362 L323,362 L327,358 L333,359 L340,372 L341,373 L346,373 L347,372 L353,372 L359,380 L362,385 L363,391 L363,401 L367,401 L371,397 L380,381 L381,375 L376,370 L363,362 L354,357 L345,351 L329,341 L309,329 L292,318 L276,309 L268,306 L261,300 L245,290 L234,282 L226,277 L219,273 L214,269 L196,258 L182,250 L171,242 L154,231 L136,221 L121,211 L114,206 L98,198 L89,192 L71,182 L53,171 L40,164 L30,158 L10,146 L2,139 L-2,138 L-3,135 L-17,126 L-25,119 L-30,116 L-33,115 Z M-78,180 L-83,184 L-95,204 L-100,214 L-108,225 L-116,239 L-123,252 L-127,257 L-137,275 L-144,286 L-154,304 L-160,313 L-166,322 L-171,330 L-174,337 L-174,344 L-170,354 L-163,365 L-157,375 L-154,382 L-147,392 L-142,401 L-140,403 L-135,402 L-132,398 L-125,399 L-115,406 L-98,416 L-75,430 L-65,437 L-60,442 L-59,445 L-60,447 L-66,447 L-81,437 L-94,429 L-112,418 L-122,412 L-129,408 L-135,408 L-133,414 L-125,425 L-120,433 L-116,439 L-111,444 L-104,450 L-99,449 L-97,447 L-90,448 L-80,454 L-75,457 L-72,461 L-72,466 L-79,466 L-90,459 L-94,458 L-96,459 L-95,463 L-88,471 L-79,481 L-72,490 L-68,493 L-66,493 L-64,498 L-58,503 L-53,509 L-43,517 L-35,524 L-27,531 L-18,538 L-13,541 L-2,551 L9,558 L16,564 L30,572 L46,583 L62,592 L70,597 L87,606 L106,615 L118,621 L135,628 L153,635 L174,641 L183,644 L201,648 L207,651 L214,651 L219,647 L229,632 L238,617 L249,599 L258,582 L265,572 L272,559 L276,554 L282,545 L286,537 L292,528 L298,517 L307,502 L316,488 L325,472 L332,461 L338,451 L343,443 L344,435 L340,430 L326,422 L311,413 L301,406 L295,402 L277,392 L264,384 L251,376 L242,371 L236,371 L231,376 L223,388 L219,394 L213,406 L204,418 L198,429 L189,443 L182,454 L178,462 L174,467 L168,478 L159,491 L149,507 L144,514 L138,525 L126,545 L119,556 L106,577 L99,587 L93,587 L92,583 L98,572 L105,561 L111,552 L126,528 L132,518 L138,509 L147,495 L154,484 L160,475 L167,463 L179,443 L185,433 L194,419 L203,404 L212,389 L217,379 L225,368 L226,364 L221,358 L208,350 L187,338 L169,327 L160,321 L150,316 L133,305 L123,299 L109,291 L99,284 L86,277 L70,267 L62,263 L46,253 L24,240 L8,230 L-11,219 L-32,206 L-41,200 L-47,199 L-46,203 L-38,210 L-33,216 L-19,225 L-4,235 L6,242 L21,250 L35,259 L46,266 L52,269 L62,271 L60,276 L57,286 L53,288 L48,297 L44,307 L39,316 L32,325 L25,336 L18,342 L10,342 L-6,332 L-22,324 L-31,319 L-39,312 L-57,301 L-72,291 L-86,283 L-93,279 L-99,276 L-103,269 L-103,263 L-97,255 L-89,241 L-81,228 L-73,215 L-68,205 L-64,199 L-56,194 L-58,190 L-69,183 L-73,180 Z M-49,239 L-57,246 L-64,256 L-66,261 L-66,276 L-64,279 L-61,280 L-47,280 L-30,282 L-17,284 L-13,288 L-17,306 L-17,313 L-15,315 L-10,314 L0,301 L12,296 L17,291 L16,284 L10,275 L6,262 L1,254 L-4,247 L-6,243 L-12,242 L-20,252 L-21,259 L-11,267 L-6,273 L-5,276 L-6,278 L-11,277 L-17,273 L-22,268 L-43,268 L-46,269 L-53,269 L-54,266 L-51,261 L-46,256 L-39,248 L-39,242 L-42,239 Z M-192,298 L-197,301 L-204,311 L-204,313 L-206,313 L-210,318 L-218,325 L-225,335 L-229,343 L-234,355 L-236,367 L-235,376 L-231,382 L-229,384 L-223,384 L-216,376 L-210,367 L-200,352 L-192,331 L-184,315 L-184,303 L-188,299 Z M-227,428 L-233,433 L-240,446 L-247,457 L-254,467 L-260,478 L-270,493 L-278,503 L-285,512 L-291,523 L-298,533 L-305,544 L-310,554 L-319,565 L-326,580 L-333,594 L-339,602 L-344,612 L-347,620 L-347,626 L-342,630 L-327,638 L-313,646 L-302,654 L-288,662 L-278,668 L-261,679 L-250,686 L-239,692 L-227,701 L-221,708 L-216,709 L-213,707 L-211,694 L-210,691 L-208,671 L-204,646 L-200,633 L-199,621 L-196,613 L-193,593 L-185,555 L-184,546 L-184,539 L-181,533 L-177,510 L-177,504 L-178,503 L-186,503 L-184,495 L-185,488 L-191,479 L-196,471 L-203,461 L-209,449 L-217,440 L-219,433 L-223,429 Z M259,633 L256,636 L247,637 L241,641 L230,654 L219,668 L213,676 L205,690 L205,702 L209,708 L214,713 L223,714 L232,714 L246,711 L256,707 L264,701 L272,691 L277,681 L280,673 L279,663 L272,649 L268,636 L265,633 Z M74,685 L70,690 L60,720 L46,757 L42,773 L36,786 L33,795 L31,800 L27,816 L25,825 L19,843 L16,851 L15,863 L18,865 L24,862 L31,863 L49,874 L58,880 L64,884 L72,884 L78,877 L89,859 L98,845 L105,833 L111,823 L115,817 L123,801 L130,790 L143,768 L148,761 L152,753 L158,744 L165,732 L170,726 L170,720 L166,717 L136,708 L115,700 L103,695 L91,690 L81,685 Z " fill="#000000" transform="translate(463,31)"/>
<path d="M0,0 L6,1 L16,8 L25,13 L36,20 L50,30 L59,38 L82,53 L90,60 L92,62 L91,67 L87,78 L81,90 L74,100 L67,112 L63,116 L57,117 L49,113 L37,104 L20,94 L1,82 L-15,73 L-20,69 L-34,63 L-35,57 L-24,41 L-19,29 L-11,18 L-2,1 Z M8,20 L3,23 L-7,37 L-13,47 L-14,54 L-10,60 L1,68 L11,74 L24,83 L47,96 L55,100 L61,98 L73,81 L75,75 L73,71 L74,63 L70,56 L48,42 L34,34 L25,28 L15,21 Z " fill="#000000" transform="translate(474,77)"/>
<path d="M0,0 L6,0 L23,12 L26,15 L25,23 L22,31 L20,36 L13,36 L-2,26 L-10,21 L-10,16 L-2,1 Z " fill="#000000" transform="translate(438,178)"/>
<path d="M0,0 L9,0 L14,2 L40,8 L43,12 L40,36 L39,38 L34,39 L31,38 L28,30 L23,31 L19,35 L4,34 L-4,31 L-6,28 L-6,17 L-3,2 Z " fill="#000000" transform="translate(598,186)"/>
<path d="M0,0 L10,1 L16,4 L20,8 L24,18 L31,26 L41,25 L49,32 L58,40 L64,48 L63,53 L56,63 L54,71 L48,71 L37,61 L32,56 L22,47 L12,41 L-6,31 L-8,28 L-6,19 L-4,13 L-3,3 Z " fill="#000000" transform="translate(655,199)"/>
<path d="M0,0 L5,1 L10,10 L11,11 L19,11 L26,15 L34,21 L41,24 L46,29 L51,32 L58,41 L70,43 L78,50 L83,56 L88,68 L88,70 L93,70 L94,66 L94,59 L100,60 L109,69 L115,78 L122,79 L128,78 L144,88 L153,94 L162,98 L174,106 L179,109 L185,116 L190,121 L192,122 L191,128 L188,132 L186,141 L181,143 L170,137 L161,131 L154,125 L142,122 L124,111 L118,106 L98,95 L90,89 L77,81 L59,70 L58,69 L58,62 L52,64 L46,63 L35,56 L34,55 L34,47 L35,42 L35,34 L33,32 L28,33 L23,37 L20,43 L19,44 L13,44 L1,36 L-6,30 L-12,26 L-14,24 L-13,19 L-7,9 L-3,3 Z M158,106 L156,110 L157,115 L162,114 L164,111 L163,107 Z " fill="#000000" transform="translate(484,200)"/>
<path d="M0,0 L5,2 L7,9 L7,16 L1,21 L-8,27 L-13,26 L-14,20 L-6,10 L-1,1 Z " fill="#000000" transform="translate(732,259)"/>
<path d="M0,0 L6,0 L14,7 L24,14 L29,21 L39,23 L48,28 L58,36 L78,49 L96,57 L103,61 L104,66 L96,79 L89,89 L84,98 L78,106 L72,115 L68,117 L62,116 L51,109 L51,107 L49,107 L48,105 L36,100 L12,86 L-4,77 L-12,72 L-24,64 L-32,58 L-34,55 L-34,49 L-32,45 L-27,41 L-20,29 L-13,19 L-5,5 Z M0,20 L-5,26 L-10,35 L-15,42 L-16,52 L-11,58 L0,65 L10,69 L20,76 L34,89 L46,95 L60,98 L66,98 L69,95 L67,87 L73,85 L82,74 L82,67 L77,62 L67,55 L57,47 L46,40 L32,32 L26,28 L14,22 L7,20 Z " fill="#000000" transform="translate(778,261)"/>
<path d="M0,0 L7,1 L17,9 L26,14 L45,26 L53,31 L71,42 L87,51 L103,60 L115,68 L116,72 L112,76 L106,75 L90,65 L74,56 L64,49 L55,44 L44,37 L37,31 L37,29 L26,26 L14,19 L0,10 L-2,8 L-2,2 Z " fill="#000000" transform="translate(345,318)"/>
<path d="M0,0 L6,1 L19,11 L38,22 L52,31 L65,38 L79,47 L92,55 L102,61 L114,68 L126,76 L127,82 L122,86 L116,84 L101,75 L96,71 L88,66 L72,57 L65,52 L58,48 L50,43 L32,32 L21,25 L-1,12 L-4,9 L-3,3 Z " fill="#000000" transform="translate(542,323)"/>
<path d="M0,0 L6,1 L15,7 L25,13 L38,21 L50,28 L60,35 L75,43 L83,48 L95,55 L106,62 L109,65 L108,71 L102,72 L93,66 L85,62 L74,55 L59,46 L45,37 L29,27 L11,16 L0,10 L-3,7 L-2,1 Z " fill="#000000" transform="translate(334,340)"/>
<path d="M0,0 L7,0 L15,6 L27,13 L37,20 L49,26 L57,31 L66,36 L88,49 L97,56 L112,64 L123,70 L127,74 L126,80 L120,81 L97,68 L97,66 L92,64 L79,56 L72,52 L55,42 L52,39 L42,35 L37,32 L36,26 L28,26 L16,19 L1,10 L-2,6 L-1,1 Z " fill="#000000" transform="translate(529,344)"/>
<path d="M0,0 L6,0 L19,8 L35,18 L52,29 L63,35 L75,44 L88,51 L96,56 L103,60 L104,67 L101,69 L96,68 L83,61 L72,53 L58,45 L48,38 L30,27 L25,23 L17,19 L1,9 L-1,7 L-1,1 Z " fill="#000000" transform="translate(321,364)"/>
<path d="M0,0 L6,2 L23,12 L37,21 L52,29 L60,34 L75,43 L84,48 L100,57 L116,67 L119,70 L119,75 L116,77 L110,76 L102,70 L92,65 L84,60 L73,54 L63,48 L40,35 L32,30 L21,24 L12,19 L3,13 L-3,10 L-5,5 Z " fill="#000000" transform="translate(518,368)"/>
<path d="M0,0 L6,2 L10,6 L21,12 L31,18 L39,22 L49,29 L58,34 L78,46 L94,56 L103,62 L105,67 L102,71 L95,70 L85,63 L74,56 L65,50 L45,39 L36,33 L24,26 L8,16 L-3,9 L-3,2 Z " fill="#000000" transform="translate(310,383)"/>
<path d="M0,0 L29,0 L42,4 L52,8 L68,18 L71,21 L71,23 L75,25 L83,36 L88,44 L94,58 L96,70 L96,100 L106,104 L108,107 L107,112 L102,113 L97,109 L92,109 L88,115 L87,121 L92,128 L91,133 L84,132 L79,131 L74,135 L73,137 L71,137 L69,141 L70,146 L76,154 L76,159 L75,160 L69,160 L63,155 L60,150 L54,151 L40,158 L27,162 L21,166 L12,164 L-1,159 L-19,153 L-35,143 L-50,128 L-61,106 L-64,93 L-65,87 L-65,70 L-63,57 L-59,46 L-50,31 L-46,26 L-44,26 L-43,23 L-32,14 L-16,5 Z " fill="#000000" transform="translate(492,407)"/>
<path d="M0,0 L6,0 L32,15 L51,27 L63,34 L75,42 L77,44 L76,50 L74,51 L68,51 L52,41 L38,32 L16,19 L2,10 L-2,5 Z " fill="#000000" transform="translate(703,425)"/>
<path d="M0,0 L6,1 L15,7 L28,15 L40,22 L54,31 L70,41 L72,44 L71,49 L66,51 L59,47 L49,40 L38,34 L30,29 L8,16 L-2,8 L-3,7 L-3,2 Z " fill="#000000" transform="translate(695,442)"/>
<path d="M0,0 L7,0 L24,12 L29,16 L30,21 L28,23 L22,22 L4,11 L4,9 L0,7 L-1,2 Z " fill="#000000" transform="translate(594,446)"/>
<path d="M0,0 L6,0 L26,12 L37,19 L43,23 L51,27 L61,33 L71,40 L74,43 L73,48 L72,49 L65,48 L48,38 L30,27 L10,15 L1,10 L-2,7 L-2,2 Z " fill="#000000" transform="translate(678,467)"/>
<path d="M0,0 L5,1 L11,5 L14,9 L13,14 L9,15 L0,10 L-3,6 L-2,1 Z " fill="#000000" transform="translate(598,481)"/>
<path d="M0,0 L5,1 L16,7 L33,17 L42,23 L56,31 L69,39 L74,42 L75,48 L73,50 L66,49 L50,39 L34,30 L26,25 L10,16 L0,10 L-3,6 L-2,1 Z " fill="#000000" transform="translate(664,488)"/>
<path d="M0,0 L7,3 L17,12 L19,18 L18,19 L11,18 L-3,8 L-3,2 Z " fill="#000000" transform="translate(237,491)"/>
<path d="M0,0 L6,1 L16,8 L20,11 L30,16 L42,24 L50,30 L51,31 L51,36 L50,37 L44,37 L31,29 L26,25 L16,20 L3,11 L-2,8 L-3,2 Z " fill="#000000" transform="translate(224,512)"/>
<path d="M0,0 L8,1 L22,11 L30,15 L40,22 L51,28 L60,34 L73,41 L75,44 L74,49 L72,50 L66,50 L55,42 L37,32 L29,27 L10,16 L0,10 L-3,6 L-2,1 Z " fill="#000000" transform="translate(649,512)"/>
<path d="M0,0 L5,1 L14,8 L28,16 L42,26 L45,29 L44,34 L39,35 L33,31 L17,21 L6,14 L-3,7 L-4,4 Z " fill="#000000" transform="translate(213,533)"/>
<path d="M0,0 L6,0 L19,8 L31,14 L39,20 L48,25 L69,37 L76,43 L75,49 L73,51 L67,50 L64,48 L64,46 L59,44 L49,38 L39,32 L30,27 L22,22 L5,12 L-2,6 L-1,1 Z " fill="#000000" transform="translate(634,535)"/>
<path d="M0,0 L6,2 L13,7 L21,11 L29,16 L43,24 L55,31 L63,37 L73,42 L76,46 L75,50 L74,51 L67,51 L49,40 L39,34 L19,22 L7,16 L-1,10 L-4,7 L-3,2 Z " fill="#000000" transform="translate(622,554)"/>
<path d="M0,0 L5,1 L18,9 L32,18 L52,30 L62,37 L63,41 L62,43 L58,44 L44,37 L34,30 L19,21 L6,13 L-2,7 L-3,2 Z " fill="#000000" transform="translate(198,559)"/>
<path d="M0,0 L6,1 L14,8 L17,13 L15,16 L9,16 L0,10 L-3,7 L-2,1 Z " fill="#000000" transform="translate(533,571)"/>
<path d="M0,0 L7,0 L22,10 L27,16 L25,21 L19,20 L2,10 L-2,4 Z " fill="#000000" transform="translate(502,580)"/>
<path d="M0,0 L6,0 L19,8 L31,15 L49,26 L57,30 L62,34 L69,37 L75,43 L75,48 L74,49 L67,49 L56,42 L34,29 L18,20 L5,12 L-2,7 L-3,3 Z " fill="#000000" transform="translate(604,582)"/>
<path d="M0,0 L5,0 L15,7 L26,13 L40,22 L54,30 L64,36 L69,40 L70,46 L69,47 L62,47 L39,32 L27,25 L12,16 L3,10 L-1,6 L-1,1 Z " fill="#000000" transform="translate(182,585)"/>
<path d="M0,0 L5,1 L18,10 L18,12 L22,14 L35,21 L46,28 L65,39 L74,46 L75,50 L72,53 L67,53 L55,45 L40,36 L17,22 L3,13 L-3,8 L-2,1 Z " fill="#000000" transform="translate(590,604)"/>
<path d="M0,0 L6,0 L14,6 L24,11 L34,18 L40,22 L47,26 L59,34 L67,38 L80,46 L86,51 L86,56 L83,58 L78,57 L68,50 L59,45 L48,38 L31,27 L17,18 L7,13 L-1,6 L-1,1 Z " fill="#000000" transform="translate(165,615)"/>
<path d="M0,0 L5,0 L15,7 L30,16 L34,21 L33,26 L27,27 L8,15 L1,11 L-2,7 L-2,2 Z " fill="#000000" transform="translate(577,623)"/>
<path d="M0,0 L7,1 L20,10 L30,15 L37,21 L56,32 L78,46 L87,52 L87,57 L86,58 L80,58 L71,52 L59,45 L38,32 L20,21 L9,14 L1,9 L-3,5 Z " fill="#000000" transform="translate(151,639)"/>
<path d="M0,0 L7,3 L23,13 L35,16 L42,25 L55,34 L56,40 L54,42 L49,41 L33,31 L12,18 L-1,10 L-3,8 L-3,2 Z " fill="#000000" transform="translate(550,728)"/>
<path d="M0,0 L6,1 L16,8 L29,16 L38,22 L48,28 L52,32 L51,37 L46,38 L37,33 L28,27 L15,19 L2,11 L-3,5 L-2,1 Z " fill="#000000" transform="translate(538,754)"/>
<path d="M0,0 L6,0 L30,14 L46,24 L51,28 L52,32 L49,35 L43,34 L33,28 L20,20 L9,13 L2,9 L-1,6 Z " fill="#000000" transform="translate(526,782)"/>
<path d="M0,0 L6,2 L22,12 L38,21 L47,27 L52,31 L53,37 L51,39 L46,39 L36,32 L21,23 L10,16 L-1,9 L-3,7 L-3,2 Z " fill="#000000" transform="translate(515,811)"/>
<path d="M0,0 L5,1 L9,5 L19,9 L24,12 L32,17 L41,23 L44,27 L43,31 L42,32 L35,31 L18,20 L2,11 L-3,6 L-2,2 Z " fill="#000000" transform="translate(503,842)"/>
<path d="M0,0 L7,1 L19,7 L31,16 L35,20 L35,25 L34,26 L27,26 L18,20 L2,10 L-2,6 L-1,1 Z " fill="#000000" transform="translate(495,875)"/>
<path d="M0,0 L8,1 L10,2 L9,5 L3,6 L-3,4 L-3,2 Z " fill="#000000" transform="translate(1073,1012)"/>
<path d="M0,0 L20,1 L29,0 L63,0 L67,4 L66,5 L50,6 L24,6 L17,5 L4,7 L-4,6 L-10,5 L-19,5 L-26,8 L-75,8 L-92,7 L-142,8 L-158,9 L-161,7 L-159,3 L-152,2 L-130,1 L-115,3 L-113,2 L-89,1 L-36,1 L-32,3 L-20,2 L-12,1 L-4,1 Z " fill="#000000" transform="translate(999,1012)"/>
<path d="M0,0 L23,0 L29,1 L35,0 L111,0 L112,2 L103,6 L78,7 L43,6 L23,6 L13,7 L-10,7 L-39,8 L-54,8 L-58,9 L-96,8 L-122,9 L-130,8 L-177,8 L-188,9 L-262,10 L-289,10 L-299,11 L-367,11 L-417,12 L-461,13 L-495,13 L-578,14 L-633,14 L-655,13 L-662,14 L-673,15 L-682,13 L-697,13 L-699,14 L-711,14 L-713,12 L-713,7 L-708,5 L-690,5 L-683,6 L-625,5 L-598,5 L-590,3 L-583,4 L-500,4 L-494,3 L-393,3 L-299,2 L-276,2 L-164,1 L-37,1 Z " fill="#000000" transform="translate(722,1015)"/>
</svg>
