<?xml version="1.0" encoding="UTF-8"?>
<!-- Generator: visioncortex VTracer 0.6.12 -->
<svg version="1.1" xmlns="http://www.w3.org/2000/svg" width="699" height="948">
<path d="M0,0 L6,0 L10,2 L36,4 L77,3 L90,4 L94,6 L109,6 L112,9 L113,12 L114,80 L114,123 L115,133 L115,228 L116,266 L116,298 L117,408 L117,463 L118,590 L118,602 L117,613 L117,621 L116,628 L117,635 L115,658 L116,662 L117,675 L119,682 L120,713 L120,740 L116,743 L82,744 L79,743 L-30,743 L-45,744 L-51,743 L-72,744 L-118,743 L-122,747 L-123,751 L-123,879 L-126,881 L-145,880 L-154,879 L-162,875 L-173,871 L-180,868 L-191,863 L-204,858 L-214,854 L-227,849 L-245,842 L-254,838 L-270,832 L-279,828 L-288,824 L-309,817 L-329,808 L-341,805 L-353,799 L-362,795 L-373,791 L-392,784 L-397,780 L-414,770 L-423,769 L-429,766 L-439,762 L-454,756 L-469,751 L-477,747 L-488,743 L-496,737 L-505,731 L-506,728 L-506,665 L-507,635 L-507,611 L-508,589 L-508,464 L-507,458 L-508,456 L-508,433 L-506,430 L-506,425 L-509,420 L-509,398 L-510,388 L-511,317 L-511,282 L-508,268 L-506,257 L-503,253 L-490,251 L-488,250 L-477,249 L-465,247 L-447,244 L-445,243 L-444,239 L-444,204 L-445,182 L-445,154 L-446,49 L-446,33 L-445,30 L-445,17 L-443,12 L-441,10 L-419,8 L-330,8 L-281,7 L-193,7 L-131,6 L-69,6 L-54,5 L-38,5 L-8,4 L-3,2 Z M20,19 L15,21 L-3,21 L-10,20 L-16,21 L-75,21 L-83,20 L-89,21 L-180,21 L-188,20 L-191,21 L-211,22 L-255,22 L-272,23 L-284,23 L-297,22 L-306,22 L-307,23 L-347,23 L-356,24 L-364,23 L-409,23 L-424,24 L-428,29 L-429,38 L-430,54 L-430,76 L-429,98 L-427,104 L-424,105 L-414,105 L-394,107 L-358,107 L-349,108 L-339,107 L-75,107 L-72,105 L-60,106 L-46,105 L-23,105 L-9,104 L-6,98 L-4,98 L-2,103 L-1,104 L35,104 L59,103 L61,101 L66,101 L69,103 L87,103 L92,100 L93,84 L93,60 L94,53 L93,43 L92,33 L89,23 L83,19 L64,20 L40,20 L34,21 Z M-328,115 L-331,116 L-353,116 L-403,117 L-422,117 L-426,119 L-429,130 L-428,163 L-428,185 L-427,195 L-427,234 L-424,239 L-423,240 L-413,240 L-382,234 L-372,232 L-350,229 L-345,227 L-324,224 L-312,223 L-297,219 L-280,217 L-272,216 L-271,221 L-268,222 L-266,221 L-265,215 L-262,214 L-252,213 L-231,210 L-218,207 L-213,206 L-211,207 L-210,210 L-209,221 L-208,254 L-204,258 L-199,257 L-196,254 L-196,252 L-191,255 L-189,260 L-184,259 L-179,250 L-178,249 L-155,248 L-140,248 L-131,249 L-123,248 L-117,249 L-104,248 L-89,248 L-88,253 L-105,254 L-129,255 L-139,256 L-171,255 L-174,257 L-176,273 L-176,309 L-174,313 L-154,317 L-152,318 L-150,329 L-150,338 L-151,347 L-151,370 L-147,374 L-132,380 L-129,382 L-119,382 L-120,387 L-124,389 L-125,394 L-124,401 L-124,433 L-125,535 L-125,658 L-126,673 L-125,681 L-125,709 L-124,720 L-121,724 L-111,725 L-62,725 L-58,720 L-59,646 L-59,608 L-60,565 L-60,512 L-61,488 L-62,426 L-62,409 L-63,396 L-63,382 L-64,350 L-65,344 L-64,330 L-64,290 L-65,275 L-66,229 L-67,213 L-69,211 L-147,211 L-151,213 L-155,213 L-158,208 L-161,207 L-160,203 L-154,203 L-152,205 L-141,204 L-102,204 L-86,203 L-71,203 L-69,200 L-64,200 L-60,203 L-14,203 L14,202 L61,202 L90,201 L94,197 L95,194 L94,154 L94,132 L92,119 L88,115 L11,115 L-33,116 L-35,115 L-81,115 L-85,116 L-101,116 L-142,115 L-165,116 L-202,115 L-293,115 L-309,116 L-320,116 Z M79,207 L75,209 L63,210 L54,209 L36,210 L-17,210 L-53,211 L-57,215 L-57,308 L-56,333 L-55,348 L-56,375 L-55,423 L-55,463 L-54,477 L-54,511 L-53,525 L-52,638 L-52,653 L-51,692 L-51,713 L-49,723 L-48,724 L39,724 L93,723 L99,723 L101,720 L101,684 L100,641 L100,600 L102,579 L101,505 L99,482 L99,440 L98,380 L98,362 L97,335 L97,293 L96,284 L96,269 L97,263 L97,249 L96,243 L95,215 L93,211 Z M-232,226 L-251,229 L-267,231 L-291,235 L-293,236 L-311,238 L-330,241 L-337,243 L-352,244 L-358,246 L-363,247 L-371,248 L-391,252 L-400,252 L-406,251 L-411,254 L-410,259 L-381,260 L-340,260 L-330,259 L-245,259 L-233,258 L-228,258 L-225,254 L-224,247 L-224,234 L-227,226 Z M-401,273 L-404,276 L-402,278 L-391,280 L-383,282 L-371,284 L-345,286 L-331,289 L-301,293 L-295,295 L-263,299 L-257,301 L-245,303 L-242,304 L-224,306 L-200,310 L-193,310 L-191,304 L-190,282 L-193,277 L-195,275 L-218,274 L-246,275 L-270,275 L-279,276 L-360,276 L-376,274 L-385,274 Z M-489,286 L-492,290 L-493,304 L-493,401 L-492,451 L-490,582 L-490,614 L-489,624 L-488,699 L-487,720 L-471,728 L-465,731 L-456,733 L-440,741 L-431,745 L-420,751 L-411,753 L-399,759 L-391,763 L-382,766 L-358,776 L-344,783 L-331,787 L-317,793 L-305,798 L-296,801 L-292,804 L-283,806 L-272,811 L-265,814 L-252,818 L-231,827 L-221,831 L-209,836 L-204,839 L-191,844 L-164,853 L-161,855 L-153,857 L-148,857 L-146,855 L-146,848 L-145,845 L-144,753 L-144,551 L-143,516 L-143,404 L-145,397 L-149,394 L-165,388 L-177,385 L-192,379 L-200,378 L-206,375 L-237,366 L-251,361 L-260,359 L-278,352 L-287,350 L-299,345 L-306,343 L-310,342 L-327,336 L-351,329 L-367,324 L-376,321 L-391,316 L-399,313 L-407,311 L-418,307 L-428,305 L-437,301 L-450,297 L-458,295 L-464,292 L-474,290 L-483,287 L-484,286 Z M-378,299 L-377,303 L-374,304 L-367,304 L-367,301 L-369,299 Z M-362,302 L-362,306 L-351,310 L-336,314 L-329,317 L-312,322 L-306,324 L-296,326 L-287,330 L-275,333 L-260,339 L-249,342 L-238,345 L-229,348 L-200,358 L-185,362 L-173,366 L-169,365 L-168,362 L-167,342 L-169,334 L-178,331 L-209,326 L-224,324 L-238,321 L-252,319 L-258,317 L-283,314 L-299,311 L-306,311 L-308,310 L-317,309 L-321,307 L-336,306 L-348,304 L-357,303 Z " fill="#000000" transform="translate(547,35)"/>
<path d="M0,0 L5,1 L16,4 L18,12 L17,21 L16,23 L11,24 L-6,24 L-10,20 L-9,14 L-12,10 L-18,10 L-18,21 L-22,24 L-28,23 L-33,19 L-36,19 L-38,23 L-48,26 L-61,27 L-67,15 L-66,10 L-58,7 L-46,4 L-38,4 L-31,2 L-17,2 L-12,5 L-5,4 Z M-37,9 L-38,13 L-37,15 L-34,15 L-33,11 L-34,9 Z " fill="#000000" transform="translate(388,72)"/>
<path d="M0,0 L22,0 L24,2 L25,7 L26,48 L22,52 L-26,52 L-58,51 L-78,53 L-83,50 L-84,41 L-84,34 L-85,26 L-84,9 L-82,4 L-80,2 L-57,1 L-4,1 Z M-23,10 L-35,11 L-69,11 L-74,16 L-75,22 L-75,30 L-73,40 L-67,43 L-3,43 L10,42 L15,38 L15,22 L14,14 L12,12 L-14,10 Z " fill="#000000" transform="translate(589,75)"/>
<path d="M0,0 L7,0 L10,3 L10,32 L8,51 L5,54 L-51,55 L-78,55 L-81,49 L-82,6 L-79,3 L-11,2 L-2,1 Z M-40,9 L-46,11 L-63,11 L-67,13 L-68,16 L-68,23 L-64,28 L-64,35 L-69,40 L-68,44 L-67,45 L-53,46 L-45,46 L-37,47 L-35,46 L-4,45 L0,41 L1,24 L-1,12 L-3,11 L-19,10 L-35,10 Z " fill="#000000" transform="translate(214,75)"/>
<path d="M0,0 L18,6 L25,11 L29,17 L38,17 L44,22 L45,29 L43,31 L36,30 L18,24 L5,20 L-2,18 L-4,14 L-1,9 L-2,2 Z " fill="#000000" transform="translate(422,79)"/>
<path d="M0,0 L6,1 L12,13 L11,18 L-5,26 L-11,25 L-18,21 L-17,14 L-10,7 L-6,3 Z " fill="#000000" transform="translate(302,87)"/>
<path d="M0,0 L5,1 L10,7 L9,12 L4,11 L-1,7 L-2,3 Z " fill="#000000" transform="translate(265,112)"/>
<path d="M0,0 L4,2 L3,7 L-3,9 L-5,5 Z " fill="#000000" transform="translate(480,125)"/>
<path d="M0,0 L15,0 L27,2 L44,4 L67,4 L80,3 L83,4 L87,11 L93,12 L98,2 L116,1 L123,4 L125,6 L127,15 L130,28 L130,34 L128,36 L101,37 L98,36 L68,35 L58,33 L24,32 L3,33 L0,28 L-1,25 L-1,1 Z " fill="#000000" transform="translate(136,178)"/>
<path d="M0,0 L43,0 L45,1 L45,5 L40,6 L44,26 L45,27 L45,32 L44,33 L28,34 L17,34 L13,30 L10,8 L6,4 L-1,3 Z " fill="#000000" transform="translate(266,180)"/>
<path d="M0,0 L40,0 L47,3 L63,3 L66,6 L64,11 L68,16 L74,27 L73,32 L71,34 L35,34 L1,35 L-3,31 L-6,25 L-9,13 L-14,6 L-13,2 L-12,1 Z " fill="#000000" transform="translate(335,179)"/>
<path d="M0,0 L10,0 L21,1 L25,5 L27,18 L27,25 L24,28 L3,29 L-5,30 L-43,30 L-54,31 L-69,31 L-81,33 L-97,33 L-101,29 L-103,19 L-106,13 L-113,10 L-115,6 L-104,3 L-93,2 L-77,2 L-74,4 L-69,4 L-68,3 L-41,3 L-32,6 L-31,3 L-29,2 L-4,1 Z M-70,10 L-71,11 L-71,20 L-69,22 L-65,21 L-65,14 L-68,10 Z " fill="#000000" transform="translate(518,178)"/>
<path d="M0,0 L4,1 L9,8 L10,24 L9,26 L-11,25 L-14,22 L-17,17 L-17,14 L-19,14 L-20,22 L-23,25 L-43,26 L-45,22 L-47,14 L-47,4 L-46,3 L-4,3 Z " fill="#000000" transform="translate(605,179)"/>
<path d="M0,0 L23,1 L32,0 L44,1 L46,2 L58,3 L61,6 L59,10 L-11,10 L-37,11 L-65,11 L-69,8 L-68,2 L-67,1 Z " fill="#000000" transform="translate(199,239)"/>
<path d="M0,0 L52,0 L60,1 L61,2 L61,7 L57,9 L39,9 L33,8 L23,8 L20,9 L2,9 L-4,8 L-19,9 L-46,10 L-49,7 L-48,3 L-39,1 Z " fill="#000000" transform="translate(560,261)"/>
<path d="M0,0 L25,1 L29,5 L27,9 L-18,9 L-22,11 L-28,11 L-32,9 L-54,9 L-61,8 L-63,4 L-59,1 L-27,1 Z " fill="#000000" transform="translate(430,262)"/>
<path d="M0,0 L68,0 L70,2 L69,7 L67,9 L33,9 L27,8 L25,9 L-32,9 L-39,10 L-41,7 L-40,2 L-39,1 L-4,1 Z " fill="#000000" transform="translate(553,282)"/>
<path d="M0,0 L37,0 L40,3 L39,8 L38,9 L-68,9 L-69,8 L-69,3 L-67,1 Z " fill="#000000" transform="translate(582,310)"/>
<path d="M0,0 L73,0 L77,3 L76,8 L71,9 L59,8 L53,9 L-2,9 L-4,7 L-3,2 Z " fill="#000000" transform="translate(385,314)"/>
<path d="M0,0 L14,1 L71,1 L74,2 L75,7 L71,10 L40,10 L13,9 L9,10 L1,10 L-3,7 L-3,2 Z " fill="#000000" transform="translate(387,337)"/>
<path d="M0,0 L105,0 L107,1 L108,5 L105,9 L75,9 L-1,8 L-3,5 L-2,1 Z " fill="#000000" transform="translate(515,337)"/>
<path d="M0,0 L25,1 L70,1 L97,2 L98,7 L96,9 L90,10 L82,10 L76,8 L74,9 L-9,10 L-14,9 L-15,3 L-11,1 Z " fill="#000000" transform="translate(525,363)"/>
<path d="M0,0 L4,1 L8,11 L14,27 L16,34 L17,35 L18,42 L20,45 L23,46 L21,22 L19,10 L18,9 L18,4 L21,3 L32,8 L38,11 L42,16 L46,25 L50,25 L52,20 L54,18 L61,18 L73,25 L80,28 L83,32 L87,47 L92,48 L98,39 L105,35 L110,36 L112,41 L112,57 L111,66 L111,76 L116,79 L129,80 L131,79 L131,72 L126,55 L122,47 L120,44 L121,40 L130,43 L156,52 L159,56 L159,58 L164,57 L169,56 L184,61 L194,65 L203,67 L225,76 L232,79 L235,84 L239,98 L241,118 L244,122 L250,122 L252,95 L253,88 L257,86 L262,89 L268,91 L272,102 L274,112 L275,115 L278,152 L278,161 L275,170 L270,172 L264,171 L258,168 L251,165 L250,164 L250,154 L249,142 L245,139 L239,139 L232,143 L225,142 L219,139 L212,140 L210,149 L205,151 L188,146 L173,141 L170,137 L169,130 L164,127 L161,136 L158,138 L152,137 L145,133 L132,129 L129,126 L129,119 L133,111 L133,96 L117,92 L110,91 L109,96 L112,113 L114,118 L113,122 L107,121 L98,118 L88,116 L79,113 L73,110 L71,108 L68,92 L67,72 L66,67 L64,33 L60,32 L57,44 L57,63 L59,67 L60,80 L57,99 L56,101 L50,101 L49,100 L39,99 L28,94 L19,91 L10,87 L5,71 L2,53 L-1,26 L-1,1 Z " fill="#000000" transform="translate(82,363)"/>
<path d="M0,0 L21,1 L27,0 L34,1 L57,0 L87,1 L106,1 L109,3 L108,8 L107,9 L33,9 L25,10 L-2,9 L-3,3 Z " fill="#000000" transform="translate(515,390)"/>
<path d="M0,0 L49,0 L51,2 L50,7 L46,8 L-1,8 L-4,6 L-3,1 Z " fill="#000000" transform="translate(409,392)"/>
<path d="M0,0 L5,0 L8,2 L45,2 L61,1 L86,1 L91,3 L96,0 L101,0 L104,5 L105,11 L105,24 L104,28 L104,139 L105,148 L101,152 L72,152 L17,151 L-1,151 L-3,149 L-3,5 Z M52,20 L39,23 L37,25 L37,30 L40,32 L45,31 L61,25 L70,25 L70,21 L64,20 Z M68,46 L63,48 L46,52 L40,57 L40,63 L43,73 L46,96 L51,97 L54,93 L53,77 L51,68 L47,62 L47,58 L53,58 L60,64 L68,68 L73,68 L75,65 L76,52 L74,47 Z M6,79 L4,82 L4,120 L5,138 L7,141 L13,140 L25,136 L37,135 L39,131 L33,128 L19,126 L13,123 L11,119 L11,108 L9,80 Z M67,110 L55,119 L52,123 L52,132 L53,133 L69,133 L71,131 L72,113 L69,110 Z " fill="#000000" transform="translate(518,410)"/>
<path d="M0,0 L19,0 L22,3 L21,7 L20,8 L11,8 L1,7 L-1,5 Z " fill="#000000" transform="translate(439,418)"/>
<path d="M0,0 L7,0 L18,3 L19,7 L16,9 L0,8 L-2,6 L-1,1 Z " fill="#000000" transform="translate(442,439)"/>
<path d="M0,0 L10,1 L18,1 L20,3 L19,7 L18,8 L-1,8 L-3,6 L-2,2 Z " fill="#000000" transform="translate(443,458)"/>
<path d="M0,0 L11,0 L20,2 L22,3 L22,8 L17,10 L11,8 L1,6 L-1,2 Z " fill="#000000" transform="translate(441,480)"/>
<path d="M0,0 L4,1 L7,9 L27,15 L43,21 L52,24 L64,29 L67,31 L83,35 L95,40 L114,46 L120,49 L128,51 L147,58 L165,64 L172,67 L193,73 L200,75 L206,78 L218,80 L227,86 L236,89 L263,98 L267,104 L268,107 L267,139 L265,273 L265,345 L263,354 L257,354 L247,349 L234,345 L216,337 L208,334 L199,331 L185,325 L176,322 L161,316 L152,314 L142,310 L137,307 L129,305 L117,299 L99,293 L96,291 L88,290 L80,286 L65,281 L59,277 L42,271 L35,267 L25,261 L15,254 L5,250 L-1,248 L-2,247 L-2,222 L-3,214 L-1,193 L-2,163 L-4,155 L-4,145 L-2,137 L-1,98 L-2,88 L-2,34 L-3,4 L-2,1 Z M40,46 L38,47 L39,60 L41,65 L46,64 L48,50 L46,47 Z M119,55 L118,59 L124,64 L133,65 L134,61 L122,55 Z M173,92 L171,94 L172,98 L178,106 L183,111 L189,120 L193,125 L200,135 L206,144 L211,143 L210,120 L205,103 L201,98 L193,95 L179,92 Z M243,98 L241,101 L245,105 L249,107 L253,122 L255,132 L256,142 L259,142 L261,137 L261,122 L260,105 L257,102 L247,99 Z M118,130 L116,132 L119,162 L124,163 L124,150 L122,143 L121,131 Z M121,169 L120,170 L121,189 L124,190 L126,188 L127,177 L124,169 Z M173,194 L171,196 L171,204 L178,234 L183,240 L197,246 L209,250 L213,249 L214,246 L214,226 L212,218 L200,209 L192,204 L179,195 L178,194 Z M98,205 L95,207 L96,214 L100,217 L115,221 L123,222 L126,219 L124,212 L107,208 Z M88,242 L84,246 L83,253 L87,257 L98,262 L108,264 L113,266 L124,266 L127,262 L125,257 L119,254 L116,251 L96,244 L93,242 Z M198,287 L195,289 L195,296 L197,303 L203,307 L206,308 L225,308 L226,307 L226,290 L219,287 Z M248,335 L245,337 L246,341 L252,345 L256,344 L256,338 L253,335 Z " fill="#000000" transform="translate(92,481)"/>
<path d="M0,0 L14,0 L15,5 L13,7 L5,8 L-7,7 L-8,3 L-7,1 Z " fill="#000000" transform="translate(448,500)"/>
<path d="M0,0 L15,0 L20,2 L21,4 L17,8 L0,8 L-3,6 L-2,1 Z " fill="#000000" transform="translate(442,526)"/>
<path d="M0,0 L18,0 L22,2 L21,7 L16,8 L1,8 L-2,6 L-2,1 Z " fill="#000000" transform="translate(440,550)"/>
<path d="M0,0 L22,0 L24,2 L23,6 L22,7 L0,8 L-2,6 L-2,1 Z " fill="#000000" transform="translate(440,569)"/>
<path d="M0,0 L55,0 L67,1 L71,2 L78,1 L83,4 L84,9 L82,11 L65,9 L7,9 L-21,10 L-28,11 L-30,9 L-29,3 L-26,1 L-15,1 L-8,2 Z " fill="#000000" transform="translate(544,573)"/>
<path d="M0,0 L108,0 L110,2 L109,7 L108,8 L20,8 L11,7 L9,8 L0,8 L-2,6 L-1,1 Z " fill="#000000" transform="translate(518,596)"/>
<path d="M0,0 L19,0 L23,3 L22,8 L20,9 L-1,8 L-4,6 L-3,2 Z " fill="#000000" transform="translate(442,597)"/>
<path d="M0,0 L26,0 L59,1 L68,0 L102,0 L105,2 L105,8 L98,9 L53,9 L41,8 L28,8 L19,9 L2,8 L-3,6 L-2,1 Z " fill="#000000" transform="translate(521,618)"/>
<path d="M0,0 L24,0 L26,2 L25,7 L19,8 L3,8 L-2,5 L-1,1 Z " fill="#000000" transform="translate(440,623)"/>
<path d="M0,0 L10,1 L19,0 L58,0 L66,1 L68,3 L67,8 L66,9 L52,9 L39,8 L-3,8 L-11,9 L-32,8 L-38,9 L-40,7 L-39,2 L-38,1 Z " fill="#000000" transform="translate(558,641)"/>
<path d="M0,0 L15,0 L16,5 L14,7 L-11,7 L-12,2 L-11,1 Z " fill="#000000" transform="translate(450,645)"/>
<path d="M0,0 L20,0 L28,1 L62,1 L63,2 L63,7 L62,8 L-24,8 L-27,9 L-42,9 L-45,6 L-44,2 L-42,1 L-6,1 Z " fill="#000000" transform="translate(562,662)"/>
<path d="M0,0 L24,0 L26,2 L25,7 L24,8 L-1,8 L-3,7 L-2,2 Z " fill="#000000" transform="translate(441,666)"/>
<path d="M0,0 L102,0 L105,2 L105,7 L102,9 L89,8 L30,8 L23,7 L17,8 L0,8 L-4,6 L-3,2 Z " fill="#000000" transform="translate(520,684)"/>
<path d="M0,0 L25,0 L27,4 L25,7 L-1,8 L-3,6 L-2,2 Z " fill="#000000" transform="translate(440,689)"/>
<path d="M0,0 L85,0 L96,1 L105,0 L108,3 L107,7 L104,8 L-1,8 L-3,6 L-2,2 Z " fill="#000000" transform="translate(517,705)"/>
<path d="M0,0 L16,1 L27,1 L30,5 L28,10 L20,10 L17,9 L-1,7 L-2,2 Z " fill="#000000" transform="translate(439,708)"/>
<path d="M0,0 L22,0 L23,6 L21,8 L-13,8 L-18,9 L-90,9 L-91,5 L-89,2 L-67,1 L-2,1 Z " fill="#000000" transform="translate(602,726)"/>
<path d="M0,0 L20,0 L30,1 L32,5 L31,7 L28,8 L5,8 L-4,7 L-4,2 Z " fill="#000000" transform="translate(439,731)"/>
</svg>
