<?xml version="1.0" encoding="UTF-8"?>
<!-- Generator: visioncortex VTracer 0.6.12 -->
<svg version="1.1" xmlns="http://www.w3.org/2000/svg" width="1170" height="1323">
<path d="M0,0 L13,1 L13,56 L-20,56 L-30,57 L-38,56 L-541,56 L-712,57 L-745,57 L-748,62 L-752,62 L-754,58 L-759,57 L-873,58 L-974,58 L-1000,59 L-1157,59 L-1157,4 L-1005,3 L-805,2 L-617,1 L-6,1 Z " fill="#000000" transform="translate(1157,19)"/>
<path d="M0,0 L5,1 L54,2 L630,2 L720,3 L833,3 L978,2 L1015,2 L1019,7 L1021,16 L1022,38 L1022,178 L1023,293 L1023,373 L1024,417 L1024,465 L1025,625 L1025,794 L1026,885 L1026,909 L1027,985 L1027,1014 L1025,1017 L1009,1018 L902,1019 L861,1018 L757,1018 L737,1017 L697,1018 L662,1018 L620,1019 L611,1018 L184,1018 L132,1017 L128,1018 L84,1018 L38,1019 L12,1018 L3,1016 L-2,1011 L-5,1002 L-5,1 Z M49,15 L33,16 L25,17 L12,16 L5,19 L3,23 L2,29 L2,156 L3,193 L3,217 L4,317 L4,354 L5,378 L4,389 L5,400 L5,448 L6,490 L6,577 L7,897 L7,925 L8,958 L8,978 L9,995 L11,1002 L14,1004 L54,1005 L677,1005 L758,1006 L764,1005 L776,1006 L987,1006 L1008,1005 L1012,1001 L1014,989 L1014,722 L1013,697 L1014,689 L1014,625 L1013,609 L1013,543 L1012,441 L1012,417 L1011,329 L1011,253 L1010,213 L1009,34 L1007,18 L1003,16 L991,15 L918,15 L909,16 L888,15 L823,16 L697,16 L675,15 L646,15 L636,16 L614,15 L541,15 L536,16 L533,15 L503,15 L436,16 L386,16 L306,15 L302,16 L287,16 L258,15 L229,16 L208,15 L196,15 L174,16 L153,15 Z " fill="#000000" transform="translate(5,127)"/>
<path d="M0,0 L16,0 L60,2 L65,4 L87,6 L112,12 L129,16 L169,29 L178,35 L185,36 L200,43 L217,52 L231,59 L248,69 L263,79 L276,88 L288,97 L297,105 L306,112 L306,114 L310,116 L318,123 L335,140 L342,148 L350,157 L355,162 L365,174 L376,189 L385,202 L395,217 L406,237 L414,252 L421,267 L431,291 L436,306 L445,335 L451,362 L456,394 L458,415 L459,432 L459,458 L456,497 L452,527 L446,553 L444,557 L441,573 L435,592 L430,609 L419,635 L415,643 L407,659 L401,670 L385,696 L381,701 L375,711 L368,720 L359,731 L348,743 L341,752 L330,764 L323,771 L321,771 L319,775 L303,788 L298,793 L288,801 L278,809 L262,819 L245,830 L238,835 L231,838 L198,855 L178,863 L157,871 L127,879 L108,884 L94,887 L80,889 L75,890 L57,891 L53,892 L22,893 L-4,893 L-29,891 L-38,890 L-61,886 L-88,880 L-104,877 L-125,870 L-138,865 L-146,863 L-162,856 L-178,849 L-201,837 L-217,827 L-226,821 L-236,815 L-250,805 L-261,797 L-269,790 L-279,782 L-292,770 L-301,762 L-308,754 L-314,747 L-319,742 L-325,735 L-330,730 L-340,717 L-350,703 L-359,689 L-364,683 L-370,672 L-374,665 L-384,647 L-389,637 L-397,619 L-404,599 L-409,586 L-414,568 L-421,544 L-423,533 L-427,511 L-431,470 L-431,426 L-430,406 L-427,378 L-423,358 L-421,345 L-419,339 L-417,330 L-414,318 L-405,291 L-398,275 L-395,266 L-388,250 L-379,233 L-372,221 L-368,215 L-364,207 L-357,197 L-346,181 L-334,164 L-324,154 L-315,143 L-306,134 L-301,129 L-287,115 L-279,108 L-267,97 L-252,86 L-240,78 L-230,71 L-223,67 L-212,60 L-194,50 L-178,42 L-170,38 L-158,34 L-150,30 L-139,26 L-117,18 L-95,13 L-91,11 L-74,8 L-72,7 L-49,4 L-18,1 Z M-9,10 L-45,13 L-74,17 L-106,25 L-113,28 L-122,31 L-131,33 L-159,44 L-174,51 L-186,57 L-202,65 L-216,73 L-224,79 L-235,86 L-248,96 L-262,106 L-271,115 L-279,122 L-289,130 L-294,135 L-303,145 L-313,155 L-319,163 L-329,174 L-336,185 L-343,193 L-347,201 L-353,209 L-358,218 L-367,232 L-372,241 L-382,260 L-391,282 L-397,298 L-403,317 L-407,333 L-409,337 L-418,384 L-421,413 L-422,434 L-421,480 L-417,512 L-414,530 L-408,555 L-399,586 L-387,617 L-382,630 L-373,647 L-363,665 L-355,678 L-348,690 L-340,701 L-331,712 L-324,722 L-314,733 L-307,741 L-292,757 L-283,766 L-272,775 L-260,786 L-251,792 L-241,800 L-231,807 L-218,815 L-213,818 L-203,824 L-192,831 L-173,841 L-159,848 L-146,853 L-137,856 L-129,860 L-112,865 L-96,869 L-89,872 L-74,874 L-61,877 L-42,880 L-23,883 L-6,884 L28,884 L54,883 L78,881 L108,874 L133,869 L146,865 L168,858 L186,851 L198,845 L219,835 L231,829 L240,823 L253,815 L265,807 L274,800 L291,787 L299,780 L307,774 L319,762 L324,757 L336,745 L343,737 L354,724 L368,706 L375,695 L384,681 L391,670 L398,658 L408,637 L412,629 L415,621 L423,600 L431,576 L435,558 L440,541 L443,526 L448,486 L448,476 L449,458 L449,427 L448,413 L445,390 L441,365 L435,342 L430,321 L422,297 L418,287 L413,275 L403,254 L396,243 L388,227 L382,217 L376,207 L371,201 L363,189 L354,178 L350,172 L341,162 L333,152 L328,147 L312,131 L305,126 L300,120 L295,117 L290,111 L282,105 L266,93 L251,83 L235,73 L210,59 L194,51 L177,43 L165,38 L159,36 L140,30 L122,25 L112,22 L90,17 L78,15 L70,14 L47,11 L34,10 Z " fill="#000000" transform="translate(499,196)"/>
<path d="M0,0 L117,0 L212,1 L296,1 L308,2 L346,2 L362,3 L375,8 L386,15 L398,27 L405,39 L408,48 L410,65 L408,76 L405,87 L398,100 L394,105 L389,110 L382,116 L370,122 L361,125 L324,126 L285,126 L274,125 L163,125 L146,124 L65,125 L-60,125 L-154,126 L-190,126 L-215,125 L-227,121 L-236,116 L-245,109 L-250,103 L-256,94 L-261,82 L-263,70 L-262,51 L-260,43 L-253,29 L-244,19 L-237,12 L-223,5 L-211,2 L-102,1 L-77,1 Z " fill="#000000" transform="translate(447,571)"/>
<path d="M0,0 L2,2 L-1,2 Z " fill="#000000" transform="translate(72,771)"/>
<path d="M0,0 L6,0 L6,4 L1,4 Z " fill="#000000" transform="translate(447,1095)"/>
<path d="M0,0 L3,1 L2,3 L0,3 Z " fill="#000000" transform="translate(469,1098)"/>
<path d="M0,0 L6,1 L11,6 L19,28 L26,45 L31,58 L37,74 L38,81 L35,84 L29,84 L24,79 L19,67 L16,62 L15,61 L6,60 L-11,60 L-15,64 L-21,79 L-24,82 L-33,82 L-34,81 L-34,75 L-29,62 L-24,50 L-15,25 L-9,9 L-5,3 Z M0,24 L-6,36 L-7,44 L-5,47 L0,48 L7,47 L10,43 L7,32 L4,25 Z " fill="#000000" transform="translate(109,1207)"/>
<path d="M0,0 L8,2 L11,7 L14,17 L19,27 L22,34 L25,43 L33,63 L37,75 L36,82 L32,84 L26,83 L23,79 L20,69 L17,61 L15,60 L-10,59 L-15,64 L-20,78 L-24,83 L-29,84 L-34,81 L-35,76 L-31,64 L-25,51 L-21,41 L-14,22 L-8,5 L-4,1 Z M-1,24 L-6,34 L-8,43 L-4,47 L6,47 L9,43 L8,35 L4,25 Z " fill="#000000" transform="translate(188,1207)"/>
<path d="M0,0 L36,0 L46,4 L52,9 L55,16 L56,26 L52,34 L52,40 L58,47 L60,50 L61,58 L58,68 L51,77 L44,81 L-1,81 L-4,77 L-4,9 L-2,2 Z M14,10 L10,12 L9,14 L9,30 L12,33 L36,33 L41,29 L44,22 L42,15 L38,12 L30,10 Z M14,44 L10,47 L9,50 L9,65 L14,69 L35,69 L43,66 L47,61 L47,52 L43,47 L36,44 Z " fill="#000000" transform="translate(6,1209)"/>
</svg>
