<?xml version="1.0" encoding="UTF-8"?>
<!-- Generator: visioncortex VTracer 0.6.12 -->
<svg version="1.1" xmlns="http://www.w3.org/2000/svg" width="1161" height="1329">
<path d="M0,0 L41,0 L57,1 L73,1 L99,2 L139,2 L163,3 L220,3 L235,4 L291,5 L439,7 L456,7 L498,8 L559,9 L596,10 L599,12 L603,11 L608,10 L632,11 L661,11 L688,12 L718,12 L794,14 L818,14 L902,15 L948,15 L958,16 L974,16 L1025,17 L1044,17 L1082,18 L1089,19 L1095,23 L1096,34 L1095,100 L1095,118 L1094,173 L1093,209 L1092,357 L1092,384 L1091,516 L1089,685 L1088,752 L1088,777 L1087,841 L1087,864 L1086,956 L1085,1008 L1083,1018 L1081,1020 L1076,1019 L1064,1008 L1056,1001 L1044,991 L1036,984 L1025,975 L1020,970 L1007,959 L997,950 L987,941 L974,930 L964,921 L956,915 L951,910 L943,903 L935,896 L923,886 L912,877 L904,869 L893,860 L880,848 L869,839 L859,830 L849,822 L841,815 L827,802 L818,795 L806,784 L800,780 L800,778 L796,776 L784,765 L776,759 L765,749 L754,740 L742,730 L738,725 L736,718 L732,669 L730,636 L727,601 L725,561 L724,549 L724,530 L730,520 L743,504 L756,487 L766,474 L773,465 L779,459 L785,459 L808,473 L818,480 L827,485 L835,492 L844,494 L849,490 L858,474 L869,454 L877,438 L886,421 L894,405 L894,398 L887,392 L876,386 L859,376 L841,365 L819,353 L806,345 L790,336 L782,331 L764,321 L746,310 L739,306 L734,298 L727,269 L722,250 L722,248 L716,249 L702,267 L694,278 L685,290 L671,309 L658,326 L648,339 L638,352 L631,362 L625,372 L617,382 L607,395 L596,410 L586,423 L575,437 L570,441 L559,444 L521,448 L484,452 L439,457 L431,457 L426,454 L417,447 L407,438 L393,426 L380,415 L366,403 L350,390 L340,381 L332,374 L319,363 L305,351 L297,344 L287,336 L277,327 L268,320 L259,311 L248,302 L241,295 L230,286 L226,283 L226,281 L222,279 L210,268 L201,261 L186,247 L176,239 L166,230 L152,218 L142,209 L132,200 L122,192 L111,182 L103,175 L89,163 L78,154 L70,146 L59,137 L44,124 L34,115 L23,106 L16,99 L7,92 L0,86 Z M278,162 L278,166 L282,167 L281,163 Z " fill="#000000" transform="translate(0,36)"/>
<path d="M0,0 L4,2 L15,12 L23,19 L34,28 L44,37 L54,45 L55,48 L59,50 L67,57 L77,66 L88,75 L100,86 L114,97 L122,105 L131,112 L139,119 L151,130 L159,137 L176,151 L185,159 L193,166 L202,174 L215,184 L227,195 L240,207 L251,216 L262,227 L262,232 L257,235 L233,238 L214,239 L205,233 L193,222 L183,214 L169,201 L160,194 L149,184 L138,175 L128,167 L122,166 L114,173 L102,187 L92,198 L84,209 L83,214 L87,220 L95,227 L107,237 L115,244 L130,257 L141,266 L151,274 L158,280 L163,285 L174,294 L187,306 L191,312 L191,334 L189,407 L188,427 L186,503 L186,516 L184,560 L182,625 L182,634 L184,642 L268,644 L275,641 L278,633 L282,544 L284,507 L286,461 L288,436 L292,431 L294,430 L346,429 L382,428 L407,427 L434,427 L461,426 L494,426 L505,433 L512,440 L523,449 L533,458 L539,461 L542,466 L553,475 L560,480 L565,486 L573,492 L580,498 L580,500 L584,502 L592,509 L602,518 L613,527 L623,536 L631,543 L646,557 L649,563 L654,622 L655,638 L657,646 L659,648 L670,649 L683,650 L713,650 L718,651 L755,652 L764,658 L772,666 L783,675 L791,682 L799,689 L811,699 L811,701 L815,703 L829,715 L841,726 L851,734 L863,745 L872,752 L882,760 L887,765 L895,772 L905,781 L915,789 L928,801 L939,810 L952,821 L960,828 L971,837 L979,844 L987,852 L998,861 L1008,870 L1023,883 L1034,893 L1047,903 L1055,911 L1066,920 L1078,932 L1079,937 L1077,940 L1061,941 L994,940 L888,938 L795,937 L746,936 L713,935 L689,935 L611,934 L577,933 L551,933 L533,932 L493,932 L416,931 L358,930 L199,928 L161,928 L124,927 L0,925 Z " fill="#000000" transform="translate(0,278)"/>
<path d="M0,0 L3,0 L3,3 L0,3 Z " fill="#000000" transform="translate(207,870)"/>
<path d="M0,0 L45,1 L75,1 L99,2 L117,2 L123,1 L128,2 L162,2 L169,1 L172,2 L236,3 L265,3 L283,4 L345,4 L406,5 L459,5 L464,4 L466,5 L570,7 L595,7 L666,8 L737,9 L776,10 L796,10 L802,11 L810,10 L862,11 L891,11 L936,12 L961,12 L1005,14 L1013,13 L1053,14 L1089,14 L1110,15 L1149,15 L1161,16 L1161,36 L0,36 Z " fill="#000000" transform="translate(0,1293)"/>
</svg>
