<?xml version="1.0" encoding="UTF-8"?>
<!-- Generator: visioncortex VTracer 0.6.12 -->
<svg version="1.1" xmlns="http://www.w3.org/2000/svg" width="1104" height="1128">
<path d="M0,0 L238,0 L238,2 L254,5 L279,11 L290,15 L311,22 L318,24 L328,29 L341,34 L357,41 L379,53 L393,60 L406,67 L410,71 L417,75 L433,85 L444,93 L455,101 L468,111 L476,118 L486,126 L494,133 L508,145 L516,153 L523,161 L534,173 L541,180 L549,190 L555,198 L559,203 L559,205 L562,206 L574,222 L580,231 L588,242 L594,252 L597,258 L601,263 L607,272 L616,287 L635,326 L640,340 L645,350 L648,359 L654,374 L659,391 L663,402 L669,426 L673,446 L673,450 L675,450 L675,681 L670,698 L668,708 L661,733 L659,741 L654,757 L651,762 L647,775 L642,788 L632,809 L625,823 L615,844 L611,851 L601,867 L595,878 L589,886 L583,895 L572,910 L568,915 L562,923 L553,933 L544,944 L535,954 L520,970 L506,984 L498,991 L490,999 L473,1011 L471,1011 L470,1014 L465,1019 L455,1026 L445,1034 L439,1039 L422,1049 L415,1053 L403,1062 L386,1071 L374,1077 L367,1080 L344,1091 L336,1095 L318,1102 L298,1109 L283,1114 L253,1122 L243,1125 L230,1127 L228,1128 L18,1128 L18,1126 L5,1124 L-10,1121 L-15,1119 L-31,1116 L-43,1111 L-58,1106 L-71,1102 L-82,1097 L-94,1092 L-105,1086 L-115,1083 L-130,1075 L-137,1070 L-153,1062 L-169,1053 L-180,1045 L-194,1035 L-204,1029 L-209,1024 L-217,1018 L-224,1011 L-235,1003 L-240,998 L-248,992 L-261,980 L-267,975 L-272,969 L-279,963 L-286,955 L-291,950 L-297,942 L-302,938 L-312,924 L-320,914 L-330,900 L-338,890 L-345,878 L-354,864 L-360,854 L-369,838 L-372,834 L-383,811 L-389,798 L-396,782 L-401,767 L-403,760 L-411,740 L-418,714 L-421,706 L-425,687 L-428,676 L-429,675 L-429,454 L-427,449 L-425,436 L-421,417 L-414,393 L-404,364 L-400,355 L-397,345 L-387,321 L-379,305 L-372,291 L-368,283 L-354,259 L-346,246 L-340,238 L-330,222 L-321,211 L-312,200 L-301,186 L-294,177 L-287,169 L-282,164 L-275,158 L-268,150 L-257,139 L-246,130 L-231,117 L-221,109 L-211,101 L-203,94 L-188,85 L-185,82 L-169,72 L-160,66 L-150,60 L-134,52 L-120,45 L-104,38 L-96,33 L-83,28 L-74,24 L-65,22 L-49,15 L-41,13 L-31,9 L-9,4 Z M100,66 L81,68 L63,69 L41,73 L10,79 L-3,82 L-24,88 L-39,94 L-50,98 L-70,106 L-82,112 L-100,120 L-114,128 L-129,137 L-138,143 L-148,150 L-159,158 L-165,162 L-173,169 L-183,176 L-191,183 L-196,186 L-208,198 L-215,206 L-232,223 L-237,228 L-248,240 L-254,248 L-261,257 L-269,269 L-273,274 L-280,285 L-286,293 L-289,296 L-294,298 L-294,305 L-308,331 L-313,344 L-321,360 L-326,372 L-330,380 L-338,405 L-345,425 L-351,452 L-354,463 L-356,477 L-359,503 L-361,518 L-363,563 L-362,600 L-361,605 L-360,620 L-355,647 L-353,660 L-347,685 L-344,696 L-340,709 L-338,718 L-330,739 L-324,755 L-316,773 L-308,790 L-299,805 L-295,814 L-291,821 L-281,838 L-277,843 L-270,852 L-259,867 L-252,876 L-244,886 L-237,894 L-235,894 L-233,898 L-219,913 L-214,919 L-208,924 L-203,929 L-193,938 L-181,948 L-167,959 L-151,972 L-134,982 L-124,989 L-108,997 L-94,1005 L-78,1012 L-64,1019 L-52,1024 L-40,1029 L-26,1033 L-17,1038 L1,1042 L16,1046 L18,1047 L30,1049 L36,1050 L45,1051 L50,1053 L76,1055 L91,1057 L103,1057 L117,1058 L134,1058 L161,1057 L175,1055 L198,1053 L203,1051 L214,1050 L231,1046 L241,1044 L264,1038 L288,1029 L300,1026 L314,1019 L327,1014 L346,1004 L356,999 L367,993 L379,985 L393,976 L402,970 L411,963 L421,956 L428,949 L434,945 L444,936 L452,929 L459,922 L467,915 L477,904 L482,899 L488,893 L491,888 L501,877 L509,864 L514,860 L521,851 L527,842 L533,831 L544,814 L549,804 L556,790 L564,775 L570,761 L574,751 L579,738 L586,719 L590,704 L596,685 L601,659 L605,635 L608,609 L608,592 L609,588 L610,569 L610,552 L609,525 L607,513 L605,494 L602,476 L597,447 L592,433 L585,407 L579,392 L573,376 L568,365 L562,351 L557,340 L552,331 L539,307 L532,296 L530,292 L528,292 L526,287 L522,281 L516,272 L508,262 L501,252 L494,244 L487,236 L478,226 L471,217 L453,199 L442,190 L434,183 L426,176 L422,172 L413,165 L407,161 L392,150 L386,146 L377,140 L371,136 L354,126 L337,117 L319,109 L303,102 L289,97 L278,93 L260,87 L252,85 L234,80 L223,77 L213,76 L204,73 L186,70 L164,68 L158,67 L150,67 L146,66 Z " fill="#000000" transform="translate(429,0)"/>
<path d="M0,0 L15,0 L30,2 L37,5 L49,16 L55,23 L60,37 L61,40 L62,58 L62,158 L61,238 L61,328 L60,350 L60,436 L62,449 L67,449 L69,446 L70,417 L70,325 L71,301 L72,233 L75,228 L72,225 L72,182 L73,120 L74,98 L79,77 L86,63 L92,56 L101,49 L112,44 L125,42 L136,43 L152,48 L166,58 L173,69 L176,79 L178,92 L178,195 L177,247 L177,487 L176,500 L176,540 L177,573 L176,577 L176,585 L178,588 L182,588 L183,585 L184,554 L185,466 L186,427 L190,401 L196,385 L205,369 L212,360 L223,352 L238,343 L244,341 L254,339 L261,338 L272,337 L280,336 L286,339 L289,347 L289,430 L288,488 L288,510 L287,537 L288,567 L287,578 L286,622 L284,653 L280,688 L275,711 L271,727 L266,740 L258,756 L250,771 L241,785 L234,795 L223,808 L218,814 L216,814 L214,818 L205,826 L201,831 L193,838 L186,844 L170,856 L168,856 L168,858 L156,866 L147,871 L136,878 L120,886 L101,893 L73,902 L63,905 L40,908 L20,911 L-5,910 L-10,909 L-21,909 L-32,907 L-51,904 L-66,900 L-87,894 L-100,889 L-115,882 L-131,874 L-143,867 L-156,859 L-165,852 L-179,840 L-198,821 L-205,812 L-214,802 L-218,796 L-227,784 L-235,769 L-242,757 L-253,732 L-259,713 L-264,698 L-269,676 L-273,642 L-275,611 L-275,487 L-274,437 L-274,390 L-273,306 L-272,288 L-268,273 L-262,260 L-253,249 L-244,244 L-234,239 L-220,238 L-207,239 L-190,248 L-182,257 L-176,266 L-173,275 L-171,297 L-170,301 L-170,432 L-169,442 L-167,445 L-162,445 L-160,439 L-160,409 L-159,396 L-159,358 L-158,281 L-157,264 L-157,230 L-156,183 L-155,105 L-153,84 L-151,72 L-147,63 L-141,54 L-130,44 L-119,39 L-91,39 L-79,44 L-66,54 L-60,64 L-56,75 L-54,93 L-54,108 L-55,130 L-54,191 L-55,234 L-55,252 L-54,267 L-55,280 L-55,336 L-56,375 L-56,438 L-54,447 L-52,449 L-47,448 L-45,445 L-44,419 L-44,371 L-43,338 L-44,330 L-43,282 L-43,253 L-41,169 L-41,98 L-39,50 L-36,36 L-32,24 L-24,13 L-14,6 L-3,1 Z M87,224 L87,228 L92,228 L92,224 Z M-238,576 Z " fill="#000000" transform="translate(545,100)"/>
</svg>
