<?xml version="1.0" encoding="UTF-8"?>
<!-- Generator: visioncortex VTracer 0.6.12 -->
<svg version="1.1" xmlns="http://www.w3.org/2000/svg" width="1131" height="1146">
<path d="M0,0 L333,0 L338,1 L341,0 L348,0 L349,1 L425,2 L756,2 L812,3 L832,6 L851,12 L867,18 L883,25 L898,34 L909,42 L919,50 L935,65 L947,79 L957,94 L967,112 L970,121 L975,134 L976,135 L976,1034 L974,1034 L972,1042 L961,1063 L953,1074 L947,1083 L939,1093 L934,1098 L920,1112 L908,1121 L891,1132 L870,1142 L861,1145 L860,1146 L-26,1146 L-26,1144 L-36,1142 L-54,1135 L-75,1124 L-91,1113 L-101,1105 L-111,1096 L-122,1085 L-130,1075 L-140,1060 L-146,1050 L-153,1034 L-155,1032 L-155,120 L-152,115 L-148,106 L-141,92 L-134,81 L-123,67 L-112,55 L-102,45 L-94,39 L-83,31 L-66,21 L-52,15 L-37,9 L-13,3 Z M23,35 L5,36 L-12,39 L-33,46 L-52,55 L-67,65 L-77,73 L-89,84 L-97,93 L-108,108 L-116,123 L-123,140 L-128,155 L-133,185 L-133,862 L-132,957 L-130,975 L-127,990 L-124,1001 L-119,1013 L-112,1028 L-103,1043 L-95,1053 L-86,1063 L-79,1071 L-65,1082 L-56,1089 L-38,1099 L-28,1103 L-19,1107 L3,1113 L35,1116 L162,1117 L386,1118 L601,1118 L725,1119 L799,1118 L821,1114 L840,1109 L857,1101 L869,1094 L877,1087 L885,1080 L893,1073 L909,1057 L917,1046 L925,1035 L934,1020 L939,1010 L943,998 L948,973 L949,959 L950,912 L950,273 L951,263 L951,203 L949,179 L945,161 L941,149 L936,136 L927,119 L917,105 L906,92 L898,84 L893,79 L885,73 L875,66 L862,58 L848,51 L824,43 L807,40 L791,39 L754,39 L652,38 L590,38 L515,37 L473,37 L374,36 L264,36 L189,35 Z " fill="#000000" transform="translate(155,0)"/>
<path d="M0,0 L2,1 L0,2 Z " fill="#000000" transform="translate(1015,0)"/>
<path d="M0,0 L55,0 L91,4 L115,9 L133,14 L149,18 L157,21 L174,27 L206,41 L230,54 L243,62 L259,72 L264,76 L270,80 L287,93 L298,102 L310,113 L331,134 L340,145 L348,155 L357,167 L364,175 L375,192 L385,207 L394,223 L403,240 L412,261 L418,278 L426,313 L430,330 L435,364 L437,383 L438,400 L438,439 L434,470 L430,493 L424,519 L416,546 L408,567 L395,595 L387,611 L379,624 L369,640 L361,651 L352,663 L345,672 L337,681 L329,691 L324,695 L317,703 L304,715 L297,723 L293,725 L292,728 L279,738 L273,742 L262,752 L245,763 L229,772 L210,782 L190,791 L178,796 L164,800 L154,804 L140,809 L130,811 L115,813 L99,816 L81,818 L65,821 L55,822 L2,822 L-22,819 L-43,814 L-52,813 L-67,809 L-92,803 L-101,799 L-108,797 L-116,794 L-133,788 L-150,781 L-169,771 L-179,764 L-193,755 L-210,743 L-223,733 L-228,729 L-232,726 L-232,724 L-236,722 L-244,716 L-254,706 L-259,701 L-264,697 L-271,689 L-282,677 L-289,669 L-298,657 L-304,649 L-313,637 L-319,627 L-325,617 L-336,598 L-339,591 L-346,577 L-357,551 L-363,534 L-367,520 L-373,494 L-378,467 L-381,437 L-381,383 L-378,350 L-372,320 L-366,295 L-359,275 L-354,261 L-344,237 L-333,215 L-322,196 L-309,176 L-301,165 L-292,153 L-284,144 L-278,136 L-273,132 L-266,124 L-245,103 L-240,99 L-238,99 L-236,95 L-226,87 L-216,78 L-203,69 L-187,60 L-174,52 L-149,39 L-124,28 L-110,23 L-82,14 L-62,9 L-48,6 L-31,3 Z M-335,348 L-336,349 L-337,371 L-336,411 L-336,462 L-335,468 L-331,470 L-307,471 L-166,473 L-134,473 L-86,474 L29,475 L70,475 L121,476 L241,477 L378,477 L390,476 L393,474 L394,465 L395,416 L394,376 L393,358 L391,354 L385,353 L357,352 L223,352 L183,351 L164,351 L89,350 L43,350 L-44,349 L-192,348 Z " fill="#000000" transform="translate(537,165)"/>
</svg>
