<?xml version="1.0" encoding="UTF-8"?>
<!-- Generator: visioncortex VTracer 0.6.12 -->
<svg version="1.1" xmlns="http://www.w3.org/2000/svg" width="1161" height="1317">
<path d="M0,0 L47,0 L82,2 L103,4 L111,6 L131,8 L146,12 L155,13 L160,15 L177,18 L188,22 L200,25 L209,28 L222,33 L227,36 L235,38 L248,44 L262,50 L274,56 L290,64 L309,74 L320,81 L331,87 L345,96 L352,102 L363,110 L371,116 L379,123 L387,129 L400,140 L412,151 L442,181 L451,193 L453,194 L453,445 L414,445 L372,446 L353,446 L343,447 L334,446 L306,446 L257,447 L254,448 L174,448 L140,449 L77,449 L72,450 L25,450 L21,449 L16,451 L1,451 L-29,452 L-74,452 L-115,453 L-126,453 L-132,454 L-142,452 L-146,453 L-175,454 L-190,455 L-205,455 L-211,456 L-250,456 L-299,457 L-322,457 L-328,456 L-332,458 L-338,457 L-342,457 L-353,458 L-375,458 L-392,459 L-410,459 L-414,460 L-459,461 L-467,466 L-468,470 L-469,491 L-468,497 L-466,587 L-464,662 L-463,675 L-461,681 L-457,682 L-394,682 L-350,681 L-320,681 L-312,680 L-269,679 L-222,678 L-201,678 L-140,676 L-86,675 L-49,674 L-15,674 L-13,673 L11,673 L53,672 L85,672 L96,671 L125,670 L168,669 L204,669 L233,668 L249,668 L301,667 L347,667 L415,665 L449,665 L453,666 L453,933 L445,940 L440,945 L436,950 L430,955 L423,963 L416,970 L412,974 L401,983 L391,992 L381,1000 L375,1004 L368,1010 L358,1018 L345,1027 L333,1034 L328,1037 L316,1045 L313,1048 L299,1055 L284,1063 L276,1068 L266,1071 L251,1078 L238,1084 L229,1087 L217,1092 L208,1094 L199,1097 L183,1102 L173,1105 L161,1107 L157,1109 L133,1113 L118,1115 L114,1116 L100,1117 L89,1120 L79,1121 L74,1122 L51,1122 L49,1123 L7,1123 L-18,1122 L-22,1121 L-44,1119 L-59,1117 L-67,1116 L-86,1112 L-88,1111 L-99,1110 L-109,1106 L-121,1104 L-134,1100 L-143,1098 L-175,1087 L-192,1079 L-203,1075 L-218,1068 L-227,1064 L-244,1056 L-254,1049 L-264,1044 L-282,1033 L-295,1024 L-305,1018 L-312,1011 L-324,1004 L-329,1000 L-329,998 L-333,996 L-341,989 L-349,982 L-359,974 L-366,966 L-379,954 L-386,946 L-401,930 L-409,920 L-417,911 L-424,901 L-431,893 L-440,880 L-445,872 L-448,867 L-459,851 L-466,837 L-472,825 L-477,817 L-490,789 L-494,780 L-498,772 L-505,752 L-508,743 L-513,729 L-517,716 L-522,697 L-526,677 L-530,662 L-532,650 L-533,636 L-535,623 L-537,606 L-538,586 L-538,525 L-535,491 L-529,454 L-526,443 L-524,431 L-521,416 L-515,398 L-509,377 L-499,353 L-496,344 L-483,314 L-472,294 L-465,280 L-459,271 L-453,260 L-443,246 L-439,240 L-436,235 L-428,225 L-419,213 L-410,203 L-399,189 L-390,178 L-384,173 L-377,165 L-368,155 L-358,146 L-350,139 L-333,125 L-325,118 L-315,111 L-308,105 L-297,97 L-290,93 L-274,83 L-265,77 L-250,69 L-234,60 L-218,52 L-206,47 L-193,41 L-183,38 L-174,34 L-163,30 L-155,28 L-144,23 L-131,20 L-115,16 L-103,13 L-91,10 L-65,5 L-46,3 L-38,3 L-18,1 Z M62,301 L61,303 L66,303 L66,301 Z M-448,391 L-449,395 L-445,398 L-440,397 L-439,395 L-442,391 Z M-71,972 L-79,974 L-83,982 L-82,990 L-77,994 L-75,997 L-69,997 L-60,992 L-57,987 L-56,980 L-61,973 L-67,972 Z " fill="#000000" transform="translate(708,35)"/>
<path d="M0,0 L18,1 L25,3 L27,8 L28,29 L29,43 L29,90 L30,98 L31,166 L32,207 L32,235 L33,250 L34,329 L34,409 L35,431 L36,436 L36,472 L37,518 L38,544 L39,624 L40,654 L41,684 L41,720 L43,764 L43,800 L44,820 L44,837 L45,856 L45,876 L46,943 L47,982 L48,1010 L49,1047 L49,1063 L50,1078 L50,1115 L47,1121 L43,1124 L39,1125 L14,1126 L-21,1126 L-21,2 Z " fill="#000000" transform="translate(21,51)"/>
<path d="M0,0 L6,0 L11,4 L12,8 L9,13 L6,16 L-1,17 L-5,12 L-4,5 Z " fill="#000000" transform="translate(635,1010)"/>
<path d="M0,0 L13,1 L43,0 L89,0 L89,54 L78,55 L60,55 L-19,57 L-62,58 L-118,59 L-147,60 L-203,61 L-320,64 L-429,66 L-430,67 L-1072,67 L-1072,26 L-1061,25 L-1026,24 L-1008,24 L-955,23 L-912,22 L-815,20 L-798,19 L-772,19 L-692,17 L-687,16 L-678,17 L-637,16 L-574,15 L-507,13 L-449,12 L-388,10 L-372,10 L-275,8 L-209,6 L-142,5 L-122,4 L-65,3 L-36,2 L-26,2 L-10,1 L-3,1 Z " fill="#000000" transform="translate(1072,1250)"/>
</svg>
