<?xml version="1.0" encoding="UTF-8"?>
<!-- Generator: visioncortex VTracer 0.6.12 -->
<svg version="1.1" xmlns="http://www.w3.org/2000/svg" width="1134" height="1119">
<path d="M0,0 L8,0 L22,4 L33,12 L41,21 L45,32 L47,47 L49,145 L49,171 L50,252 L51,336 L53,417 L54,427 L57,432 L69,432 L72,428 L73,417 L73,395 L72,354 L72,321 L71,297 L70,176 L70,142 L69,123 L71,107 L77,93 L86,83 L96,77 L106,73 L125,73 L138,77 L149,86 L156,95 L159,103 L161,114 L163,169 L163,217 L164,261 L164,315 L165,388 L165,404 L166,458 L166,492 L167,499 L167,544 L169,579 L171,590 L175,599 L181,608 L190,616 L202,620 L217,619 L225,616 L233,611 L235,611 L235,609 L240,605 L246,597 L250,593 L253,587 L260,577 L274,556 L283,543 L287,537 L297,522 L308,507 L323,483 L334,468 L345,454 L350,447 L358,440 L363,435 L379,427 L388,424 L409,423 L424,425 L434,428 L448,435 L460,443 L467,449 L468,451 L468,458 L461,472 L453,483 L447,491 L444,496 L437,505 L431,514 L424,524 L417,535 L410,545 L400,560 L393,570 L385,582 L381,589 L371,603 L364,613 L355,626 L346,640 L340,648 L337,653 L330,662 L320,676 L314,686 L305,699 L296,712 L288,724 L277,739 L273,745 L261,762 L252,775 L247,784 L242,790 L233,803 L225,816 L220,822 L217,828 L209,839 L199,854 L190,868 L182,879 L176,888 L169,896 L164,900 L156,902 L-129,902 L-141,903 L-154,902 L-193,903 L-239,903 L-254,901 L-258,896 L-259,894 L-260,870 L-260,729 L-261,659 L-261,640 L-262,581 L-263,450 L-264,355 L-265,314 L-266,224 L-266,173 L-265,153 L-259,143 L-252,135 L-242,128 L-229,124 L-213,124 L-198,130 L-186,141 L-180,151 L-178,160 L-176,182 L-174,295 L-173,337 L-172,390 L-172,407 L-171,429 L-166,434 L-156,434 L-152,433 L-151,428 L-151,347 L-152,277 L-153,237 L-153,217 L-154,191 L-154,77 L-150,65 L-143,55 L-135,49 L-124,43 L-112,41 L-101,42 L-93,44 L-85,48 L-73,59 L-67,72 L-65,83 L-64,99 L-63,184 L-62,246 L-61,296 L-60,373 L-60,395 L-59,427 L-57,432 L-54,433 L-43,433 L-39,432 L-38,426 L-38,379 L-40,301 L-41,191 L-41,135 L-42,119 L-42,80 L-43,47 L-40,30 L-36,21 L-29,13 L-19,5 L-10,1 Z " fill="#000000" transform="translate(490,107)"/>
<path d="M0,0 L1,4 Z " fill="#000000" transform="translate(0,355)"/>
<path d="M0,0 L2,1 L1,6 L0,6 Z " fill="#000000" transform="translate(0,367)"/>
<path d="M0,0 L2,3 L3,25 L3,67 L5,477 L5,533 L6,566 L6,733 L0,733 Z " fill="#000000" transform="translate(0,386)"/>
<path d="M0,0 L7,0 L8,2 L-1,2 Z " fill="#000000" transform="translate(1099,1117)"/>
<path d="M0,0 L6,0 L6,1 L0,1 Z " fill="#000000" transform="translate(1128,1118)"/>
</svg>
