<?xml version="1.0" encoding="UTF-8"?>
<!-- Generator: visioncortex VTracer 0.6.12 -->
<svg version="1.1" xmlns="http://www.w3.org/2000/svg" width="984" height="978">
<path d="M0,0 L62,0 L61,2 L35,6 L8,11 L-6,15 L-15,16 L-27,20 L-33,22 L-51,28 L-62,32 L-91,44 L-105,51 L-121,59 L-129,63 L-136,67 L-152,77 L-162,84 L-172,90 L-186,101 L-202,114 L-211,121 L-223,133 L-231,140 L-250,159 L-258,169 L-265,176 L-274,188 L-282,198 L-288,207 L-296,218 L-302,228 L-307,236 L-313,246 L-321,261 L-329,277 L-340,301 L-343,308 L-346,317 L-351,330 L-355,338 L-359,353 L-364,371 L-366,381 L-370,397 L-373,414 L-374,426 L-377,453 L-378,469 L-380,470 L-380,386 L-378,380 L-370,348 L-362,322 L-350,293 L-345,281 L-337,265 L-329,248 L-320,233 L-315,225 L-297,198 L-289,188 L-281,178 L-278,173 L-276,173 L-274,168 L-270,163 L-265,158 L-260,152 L-255,148 L-248,140 L-242,135 L-237,129 L-229,122 L-219,113 L-207,102 L-199,96 L-189,89 L-176,79 L-158,68 L-149,62 L-137,56 L-131,52 L-123,52 L-120,46 L-92,31 L-75,24 L-66,21 L-54,17 L-49,15 L-41,13 L-27,8 L-12,4 L-2,2 Z " fill="#000000" transform="translate(380,0)"/>
<path d="M0,0 L9,0 L9,1 L0,1 Z " fill="#000000" transform="translate(445,0)"/>
<path d="M0,0 L73,0 L82,4 L84,5 L93,6 L96,8 L106,10 L115,13 L124,15 L134,19 L144,22 L154,26 L161,30 L171,34 L190,42 L198,47 L209,53 L231,65 L241,72 L259,84 L270,91 L285,104 L290,108 L298,115 L301,117 L301,119 L305,121 L314,131 L319,136 L334,151 L337,156 L342,159 L349,170 L355,177 L363,187 L375,203 L381,212 L391,228 L396,237 L405,251 L411,262 L423,287 L430,304 L436,320 L442,337 L451,370 L451,376 L453,376 L453,449 L451,447 L450,442 L449,421 L447,413 L446,402 L444,395 L442,383 L434,354 L429,338 L422,318 L411,291 L403,274 L398,265 L384,239 L379,230 L370,218 L364,210 L358,200 L354,196 L353,189 L352,184 L347,182 L342,185 L334,192 L327,200 L318,210 L307,220 L300,228 L292,236 L284,243 L280,248 L275,252 L268,260 L261,267 L256,272 L252,277 L250,277 L248,281 L238,290 L234,295 L229,300 L222,306 L220,306 L218,310 L199,329 L194,334 L182,347 L175,354 L167,361 L148,380 L144,385 L136,392 L121,406 L118,410 L118,422 L121,433 L125,454 L130,479 L138,515 L145,548 L145,556 L143,559 L136,561 L107,561 L97,560 L92,555 L82,529 L79,519 L72,502 L69,493 L62,475 L60,473 L55,474 L52,480 L52,495 L54,510 L56,538 L57,543 L59,569 L61,587 L62,600 L63,604 L67,645 L68,660 L69,665 L71,692 L72,695 L74,725 L80,780 L82,805 L84,821 L87,857 L88,865 L89,885 L90,891 L90,911 L87,913 L72,914 L59,914 L35,913 L25,913 L20,908 L18,904 L14,878 L9,849 L4,816 L1,803 L-4,770 L-11,727 L-15,705 L-17,690 L-21,667 L-22,655 L-26,637 L-29,618 L-33,593 L-35,584 L-38,583 L-41,593 L-44,610 L-48,636 L-50,644 L-52,656 L-58,691 L-63,722 L-66,740 L-73,780 L-75,796 L-79,817 L-85,853 L-90,878 L-93,899 L-97,909 L-99,911 L-137,911 L-157,910 L-162,909 L-165,906 L-166,902 L-165,878 L-163,862 L-161,834 L-159,818 L-157,802 L-153,750 L-150,726 L-147,688 L-148,677 L-152,676 L-164,687 L-169,692 L-178,702 L-188,711 L-195,719 L-202,727 L-210,733 L-222,746 L-227,751 L-236,759 L-241,766 L-249,773 L-255,780 L-263,787 L-270,794 L-275,799 L-285,808 L-290,813 L-295,817 L-302,825 L-316,840 L-325,849 L-330,854 L-337,862 L-338,864 L-338,875 L-334,877 L-322,887 L-311,894 L-300,901 L-290,907 L-285,911 L-274,917 L-265,922 L-258,926 L-251,929 L-235,937 L-221,943 L-211,946 L-202,949 L-193,953 L-181,956 L-163,962 L-145,966 L-143,968 L-131,968 L-120,973 L-111,972 L-102,974 L-82,976 L-81,978 L-147,978 L-150,976 L-163,974 L-173,970 L-185,967 L-191,965 L-198,962 L-204,961 L-214,956 L-223,954 L-230,949 L-239,947 L-251,941 L-264,935 L-277,928 L-282,925 L-292,921 L-307,911 L-315,906 L-326,898 L-340,888 L-349,882 L-352,878 L-354,871 L-363,870 L-373,862 L-381,854 L-389,848 L-396,839 L-401,835 L-410,824 L-417,817 L-422,812 L-431,801 L-433,798 L-433,795 L-430,794 L-430,789 L-435,792 L-438,792 L-445,782 L-455,769 L-464,754 L-471,743 L-476,734 L-488,712 L-497,692 L-503,679 L-508,666 L-510,663 L-513,651 L-519,634 L-525,614 L-527,605 L-530,592 L-531,591 L-531,515 L-529,516 L-528,520 L-526,547 L-522,573 L-514,608 L-510,621 L-508,630 L-503,645 L-496,664 L-489,679 L-484,691 L-480,699 L-472,715 L-465,727 L-460,737 L-456,742 L-450,753 L-444,761 L-433,776 L-428,780 L-422,779 L-413,772 L-403,763 L-395,756 L-386,746 L-381,742 L-376,736 L-374,736 L-372,732 L-363,723 L-356,715 L-346,706 L-340,701 L-331,690 L-321,680 L-311,672 L-305,665 L-301,660 L-296,656 L-292,651 L-284,644 L-279,639 L-269,630 L-262,621 L-259,620 L-257,616 L-251,611 L-243,607 L-239,599 L-233,594 L-228,590 L-221,582 L-214,574 L-210,566 L-211,562 L-216,559 L-218,557 L-218,549 L-213,524 L-208,501 L-202,469 L-199,456 L-196,438 L-190,409 L-188,398 L-179,357 L-176,342 L-173,321 L-168,296 L-166,290 L-164,277 L-158,249 L-155,228 L-152,220 L-148,215 L-138,212 L-135,210 L-126,209 L-119,206 L-90,197 L-78,192 L-66,188 L-64,186 L-65,181 L-75,176 L-87,167 L-94,159 L-101,152 L-109,135 L-111,130 L-113,118 L-113,104 L-111,89 L-103,73 L-97,64 L-85,51 L-69,42 L-59,38 L-47,35 L-45,34 L-37,34 L-18,37 L-2,43 L14,55 L24,66 L32,80 L37,98 L37,119 L35,132 L29,147 L17,163 L7,172 L-7,180 L-11,183 L-11,188 L-3,190 L14,196 L34,203 L50,209 L57,210 L72,218 L76,228 L83,259 L87,266 L91,267 L96,262 L102,257 L107,251 L115,244 L122,236 L130,229 L137,221 L143,216 L149,209 L151,209 L152,206 L158,201 L165,193 L177,182 L183,175 L191,168 L197,161 L199,161 L201,157 L205,152 L209,149 L211,149 L213,145 L220,137 L231,126 L237,121 L244,113 L253,104 L255,101 L255,97 L244,90 L229,79 L223,75 L211,68 L193,58 L181,52 L170,46 L155,40 L135,31 L122,27 L107,22 L95,18 L91,16 L77,14 L72,12 L61,10 L50,8 L39,6 L28,5 L25,4 L2,2 Z M-128,443 L-132,446 L-136,463 L-142,482 L-145,496 L-144,500 L-140,501 L-130,490 L-126,481 L-126,468 L-125,445 Z " fill="#000000" transform="translate(531,0)"/>
<path d="M0,0 L1,0 L1,5 L0,5 Z " fill="#000000" transform="translate(0,500)"/>
<path d="M0,0 L2,0 L2,66 L-1,73 L-5,90 L-12,112 L-19,132 L-26,149 L-29,154 L-34,168 L-45,189 L-50,199 L-54,204 L-58,212 L-67,225 L-72,234 L-79,244 L-92,261 L-104,275 L-114,288 L-119,293 L-126,300 L-132,308 L-140,315 L-152,326 L-161,335 L-172,343 L-179,349 L-191,358 L-205,368 L-216,375 L-231,384 L-241,391 L-257,399 L-266,404 L-279,409 L-286,413 L-295,416 L-304,420 L-313,424 L-325,428 L-338,433 L-345,435 L-356,438 L-361,440 L-372,442 L-381,443 L-381,445 L-446,445 L-446,443 L-443,442 L-426,441 L-410,438 L-397,436 L-368,429 L-362,427 L-350,425 L-335,419 L-328,416 L-317,413 L-308,409 L-294,405 L-279,397 L-262,389 L-243,379 L-235,373 L-227,369 L-216,360 L-205,354 L-195,346 L-187,340 L-171,328 L-160,318 L-158,318 L-156,314 L-152,312 L-150,308 L-135,294 L-127,284 L-120,277 L-111,266 L-103,256 L-96,247 L-89,237 L-81,225 L-73,215 L-68,207 L-62,196 L-56,187 L-51,174 L-45,164 L-41,155 L-35,140 L-30,126 L-25,114 L-16,86 L-12,69 L-9,57 L-5,36 L-2,18 Z " fill="#000000" transform="translate(982,533)"/>
</svg>
