<?xml version="1.0" encoding="UTF-8"?>
<!-- Generator: visioncortex VTracer 0.6.12 -->
<svg version="1.1" xmlns="http://www.w3.org/2000/svg" width="1020" height="990">
<path d="M0,0 L1020,0 L1020,927 L1019,929 L1019,966 L1017,990 L0,990 Z M30,2 L17,3 L13,8 L12,48 L12,103 L11,198 L11,232 L10,277 L10,314 L9,348 L9,414 L8,521 L7,581 L7,622 L6,643 L5,724 L3,818 L3,977 L7,981 L13,982 L119,982 L127,983 L136,982 L146,982 L149,983 L333,983 L395,984 L525,984 L565,985 L649,985 L651,986 L877,986 L924,987 L998,987 L1004,982 L1005,979 L1006,922 L1006,901 L1007,895 L1007,860 L1008,808 L1009,695 L1010,666 L1011,604 L1011,562 L1012,488 L1012,460 L1013,416 L1013,329 L1014,322 L1014,276 L1016,97 L1016,38 L1017,23 L1015,11 L1011,7 L1007,6 L898,6 L867,5 L651,5 L607,4 L517,4 L511,3 L508,4 L391,4 L350,3 L343,4 L336,3 L223,3 L146,2 L130,3 Z " fill="#000000" transform="translate(0,0)"/>
<path d="M0,0 L57,0 L76,1 L119,7 L148,14 L165,18 L181,24 L196,29 L208,34 L220,39 L232,45 L251,54 L262,61 L273,67 L283,74 L293,81 L301,88 L311,95 L324,106 L339,120 L349,128 L352,135 L360,139 L367,147 L375,158 L384,169 L391,178 L394,183 L400,191 L408,204 L416,217 L427,237 L435,253 L447,283 L458,315 L465,346 L470,373 L472,392 L473,408 L473,463 L472,467 L470,493 L464,524 L458,551 L453,563 L448,581 L439,602 L432,617 L420,642 L414,651 L404,668 L395,681 L391,687 L383,698 L370,713 L356,728 L342,743 L333,752 L328,757 L315,768 L305,775 L297,782 L286,789 L277,796 L264,804 L253,811 L240,818 L224,826 L200,837 L189,841 L172,847 L171,848 L161,850 L142,856 L116,862 L99,865 L40,869 L10,869 L-8,867 L-26,865 L-29,864 L-45,862 L-64,859 L-77,855 L-84,852 L-94,850 L-118,843 L-126,839 L-137,834 L-148,830 L-164,822 L-174,817 L-192,806 L-202,800 L-216,790 L-231,780 L-242,771 L-256,758 L-266,750 L-271,744 L-279,737 L-289,727 L-294,720 L-299,715 L-309,702 L-319,689 L-324,681 L-328,677 L-335,667 L-343,654 L-347,646 L-355,630 L-361,618 L-367,604 L-370,598 L-373,589 L-378,577 L-385,557 L-389,540 L-393,524 L-398,496 L-400,478 L-402,435 L-402,420 L-401,403 L-399,381 L-392,341 L-389,333 L-386,321 L-380,302 L-375,284 L-367,266 L-358,244 L-352,233 L-343,217 L-334,203 L-324,187 L-317,178 L-307,165 L-297,154 L-290,146 L-282,136 L-267,122 L-260,115 L-254,110 L-249,105 L-237,96 L-229,89 L-223,85 L-214,79 L-209,74 L-198,68 L-189,62 L-181,58 L-170,51 L-157,44 L-147,40 L-134,34 L-122,29 L-116,27 L-106,23 L-94,19 L-82,16 L-79,14 L-66,12 L-51,8 L-40,7 L-20,3 L-18,2 L-3,1 Z M-337,346 L-346,348 L-354,354 L-359,365 L-361,372 L-362,384 L-360,407 L-361,462 L-361,501 L-359,505 L-353,509 L-306,510 L-260,510 L-240,509 L-150,509 L-139,510 L-21,510 L-12,511 L31,510 L65,511 L387,511 L393,513 L413,510 L423,505 L427,498 L428,494 L428,364 L424,358 L419,353 L413,350 L377,349 L273,349 L230,348 L218,347 L202,348 L45,348 L36,347 L8,347 L1,348 L-18,347 L-109,347 L-199,346 Z " fill="#000000" transform="translate(475,70)"/>
<path d="M0,0 L3,1 L3,5 L-1,4 Z " fill="#000000" transform="translate(287,504)"/>
<path d="M0,0 L5,0 L5,2 L-4,7 L-6,7 L-5,3 Z " fill="#000000" transform="translate(17,771)"/>
</svg>
