<?xml version="1.0" encoding="UTF-8"?>
<!-- Generator: visioncortex VTracer 0.6.12 -->
<svg version="1.1" xmlns="http://www.w3.org/2000/svg" width="1125" height="1116">
<path d="M0,0 L28,0 L38,4 L50,10 L58,16 L67,27 L75,44 L78,55 L78,81 L74,92 L69,102 L64,110 L57,116 L53,120 L44,126 L26,132 L22,133 L14,133 L-1,130 L-12,126 L-24,119 L-33,110 L-39,102 L-43,94 L-46,88 L-48,79 L-48,52 L-45,42 L-38,26 L-26,13 L-20,9 L-9,3 Z " fill="#000000" transform="translate(555,95)"/>
<path d="M0,0 L2,0 L1,4 L-1,3 Z " fill="#000000" transform="translate(888,126)"/>
<path d="M0,0 L392,0 L392,2 L402,4 L417,4 L420,3 L440,1 L441,0 L449,0 L450,1 L457,1 L458,0 L504,0 L505,1 L516,2 L564,3 L576,2 L622,2 L671,3 L827,3 L831,4 L855,3 L865,4 L906,4 L911,5 L945,6 L950,5 L993,5 L1011,6 L1049,7 L1066,7 L1077,8 L1103,8 L1107,6 L1111,6 L1111,44 L1109,42 L1109,35 L1106,30 L1101,28 L1049,27 L1042,26 L1002,26 L993,25 L983,27 L960,27 L945,25 L919,26 L908,27 L865,27 L853,26 L812,26 L797,25 L743,25 L722,24 L685,24 L641,23 L594,23 L576,22 L562,22 L556,24 L549,24 L542,21 L535,21 L533,22 L512,22 L508,21 L494,21 L490,20 L481,20 L470,21 L434,20 L426,16 L411,18 L402,22 L397,23 L398,15 L386,16 L384,15 L378,15 L370,19 L335,19 L328,18 L266,18 L258,17 L216,17 L200,16 L188,16 L177,15 L129,16 L45,15 L18,15 L13,19 L12,27 L10,63 L10,102 L8,166 L8,193 L7,238 L6,264 L7,291 L7,309 L5,363 L5,376 L6,383 L6,397 L5,427 L5,464 L10,467 L11,470 L15,469 L19,466 L38,466 L45,467 L66,468 L79,469 L84,468 L99,467 L112,467 L138,468 L160,470 L171,468 L191,468 L207,469 L218,470 L231,469 L235,470 L275,470 L284,469 L317,471 L365,471 L372,472 L387,472 L390,468 L391,456 L392,425 L393,409 L393,361 L394,344 L397,333 L402,324 L405,317 L410,311 L418,304 L426,295 L431,290 L437,287 L454,281 L470,275 L492,274 L522,276 L570,276 L618,278 L636,278 L659,286 L665,291 L673,295 L681,300 L692,309 L698,316 L704,327 L709,340 L711,352 L711,434 L712,476 L713,478 L757,478 L764,480 L776,479 L811,479 L818,481 L824,481 L825,480 L858,480 L868,481 L903,481 L909,482 L930,482 L935,481 L943,482 L972,482 L979,484 L1003,484 L1010,483 L1037,485 L1040,484 L1047,484 L1049,485 L1095,485 L1098,484 L1099,458 L1099,432 L1100,416 L1099,412 L1099,392 L1101,379 L1101,371 L1100,361 L1101,344 L1102,289 L1101,280 L1103,267 L1104,259 L1104,239 L1103,222 L1104,208 L1105,148 L1105,102 L1104,98 L1105,83 L1107,71 L1108,50 L1111,47 L1111,622 L1110,628 L1110,636 L1111,639 L1110,645 L1110,689 L1109,704 L1108,807 L1106,873 L1106,1023 L1105,1089 L1104,1116 L1082,1116 L1088,1109 L1089,1102 L1089,1079 L1088,1065 L1088,1047 L1089,1030 L1090,1000 L1089,983 L1091,962 L1092,931 L1091,926 L1092,891 L1091,882 L1092,866 L1093,822 L1093,769 L1095,742 L1095,725 L1094,720 L1094,707 L1095,675 L1095,655 L1092,654 L1062,654 L1058,653 L1051,653 L1044,654 L1019,652 L975,652 L945,651 L923,651 L896,650 L885,651 L882,650 L867,650 L849,649 L819,649 L773,647 L748,648 L745,647 L728,646 L720,646 L716,645 L704,645 L694,649 L683,656 L666,664 L656,668 L645,667 L642,661 L640,654 L639,644 L634,646 L632,651 L631,661 L627,667 L618,669 L607,669 L583,668 L504,668 L498,666 L497,664 L498,662 L498,656 L494,651 L488,648 L482,650 L478,653 L476,664 L472,665 L469,661 L468,643 L464,641 L461,641 L459,661 L455,665 L453,666 L444,665 L435,662 L417,654 L405,647 L400,641 L398,640 L375,639 L349,638 L342,638 L340,637 L322,637 L312,639 L287,637 L285,635 L283,631 L281,631 L280,636 L279,637 L202,636 L199,635 L186,635 L177,634 L150,633 L111,633 L85,632 L60,632 L49,630 L26,631 L14,631 L8,632 L5,631 L2,634 L1,706 L0,723 L0,773 L-1,832 L-2,876 L-2,922 L-3,934 L-3,949 L1,966 L-2,977 L-3,990 L-3,1019 L-4,1028 L-4,1050 L-5,1069 L-5,1093 L-3,1099 L-2,1100 L7,1100 L21,1098 L40,1098 L58,1099 L84,1099 L113,1101 L170,1101 L180,1102 L234,1103 L279,1104 L312,1105 L340,1105 L371,1106 L375,1104 L385,1105 L398,1106 L434,1106 L453,1107 L522,1108 L557,1109 L626,1109 L645,1110 L660,1110 L695,1109 L737,1110 L752,1111 L788,1110 L853,1111 L893,1112 L908,1112 L913,1111 L975,1111 L978,1112 L988,1112 L1001,1111 L1017,1111 L1045,1113 L1057,1113 L1063,1114 L1080,1114 L1081,1116 L8,1116 L6,1115 L-9,1114 L-14,1112 L-14,763 L-13,762 L-13,744 L-14,741 L-14,733 L-13,732 L-12,694 L-11,684 L-11,591 L-10,584 L-10,542 L-11,530 L-10,523 L-9,506 L-9,476 L-10,470 L-9,467 L-9,443 L-8,413 L-8,343 L-7,313 L-6,299 L-7,218 L-7,198 L-6,160 L-6,116 L-5,58 L-4,23 L0,16 Z M467,378 L468,380 Z M636,385 L634,388 L634,432 L637,435 L640,435 L641,433 L641,390 L639,385 Z M466,386 L463,397 L464,443 L466,447 L470,446 L472,442 L472,416 L471,389 L469,386 Z M635,443 L634,444 L633,457 L633,476 L635,478 L642,477 L643,472 L642,469 L640,444 Z M467,458 L464,460 L463,463 L463,471 L468,475 L469,479 L474,480 L475,477 L471,474 L471,461 L468,458 Z M13,473 L5,477 L4,480 L3,522 L2,538 L2,563 L3,590 L2,601 L3,617 L4,618 L31,621 L40,620 L61,620 L68,619 L78,622 L84,621 L125,621 L128,620 L135,620 L138,622 L147,623 L152,625 L159,624 L165,625 L169,623 L191,623 L225,624 L258,624 L287,625 L301,624 L317,626 L326,627 L373,627 L383,628 L425,628 L432,629 L464,629 L474,630 L540,630 L551,632 L569,632 L602,631 L606,633 L655,633 L661,630 L666,631 L667,632 L675,633 L746,635 L774,636 L802,636 L806,637 L858,637 L874,638 L876,639 L883,639 L891,638 L920,639 L934,640 L967,640 L975,641 L1016,641 L1019,642 L1048,642 L1049,643 L1072,642 L1079,643 L1080,644 L1080,650 L1084,651 L1087,651 L1091,651 L1095,642 L1096,623 L1096,600 L1097,543 L1098,499 L1094,496 L1073,495 L1056,495 L1052,497 L1045,496 L1028,495 L1022,494 L988,494 L979,493 L914,493 L909,492 L892,493 L887,492 L855,492 L815,491 L792,491 L768,490 L745,490 L707,489 L619,488 L607,487 L598,488 L591,487 L588,486 L495,486 L471,485 L432,485 L403,484 L388,483 L379,484 L377,483 L316,482 L306,481 L289,482 L273,481 L248,481 L242,480 L172,480 L128,479 L108,478 L94,478 L82,477 L37,476 L17,475 Z M10,624 L9,628 L14,627 L13,624 Z M151,627 L151,630 L154,629 L153,627 Z " fill="#000000" transform="translate(14,0)"/>
<path d="M0,0 L4,1 L4,4 L0,3 Z " fill="#000000" transform="translate(435,502)"/>
<path d="M0,0 L4,1 L6,4 L6,11 L3,16 L-2,17 L-5,13 L-5,6 L-2,1 Z " fill="#000000" transform="translate(501,651)"/>
<path d="M0,0 L6,2 L10,7 L11,26 L10,82 L11,99 L10,110 L10,131 L11,152 L15,152 L17,101 L15,98 L16,91 L17,89 L18,74 L18,36 L20,10 L22,5 L28,2 L63,2 L75,3 L87,3 L92,6 L95,10 L96,17 L96,30 L95,65 L95,109 L94,174 L93,200 L92,255 L87,272 L80,281 L71,288 L62,290 L41,290 L37,292 L33,303 L30,306 L23,306 L20,304 L19,295 L22,288 L26,283 L25,277 L19,268 L16,261 L14,251 L14,230 L15,202 L14,196 L15,195 L15,177 L14,175 L10,175 L9,184 L10,194 L11,197 L9,200 L8,236 L6,280 L5,318 L4,334 L0,349 L-6,360 L-12,365 L-26,372 L-38,372 L-55,363 L-63,357 L-69,350 L-72,343 L-73,335 L-72,309 L-72,286 L-70,268 L-71,259 L-71,248 L-70,240 L-69,228 L-69,201 L-68,178 L-68,163 L-67,155 L-67,145 L-68,134 L-68,107 L-67,99 L-67,61 L-66,50 L-66,32 L-65,10 L-62,4 L-56,1 L-8,1 Z M10,156 L8,159 L9,167 L11,170 L15,169 L16,167 L16,157 L15,156 Z " fill="#000000" transform="translate(548,675)"/>
<path d="M0,0 L4,0 L3,5 L-1,4 Z " fill="#000000" transform="translate(344,1066)"/>
</svg>
