<?xml version="1.0" encoding="UTF-8"?>
<!-- Generator: visioncortex VTracer 0.6.12 -->
<svg version="1.1" xmlns="http://www.w3.org/2000/svg" width="1137" height="1110">
<path d="M0,0 L1137,0 L1137,13 L1133,11 L1120,10 L1071,10 L960,9 L819,9 L760,8 L597,8 L578,7 L526,7 L415,6 L406,5 L395,6 L352,6 L278,5 L44,5 L32,4 L19,5 L16,8 L14,17 L14,41 L12,217 L12,239 L11,317 L11,333 L10,395 L10,469 L9,548 L9,725 L8,779 L6,935 L6,951 L5,979 L4,1077 L5,1095 L7,1100 L12,1101 L39,1101 L44,1102 L97,1102 L106,1103 L194,1103 L247,1104 L311,1103 L343,1104 L414,1104 L465,1105 L534,1105 L560,1106 L681,1106 L711,1107 L745,1107 L783,1108 L792,1107 L793,1110 L0,1110 L0,86 L1,80 L0,62 L0,47 L1,43 L1,12 L0,8 Z " fill="#000000" transform="translate(0,0)"/>
<path d="M0,0 L42,0 L60,1 L81,2 L95,4 L128,9 L141,13 L154,15 L164,19 L184,23 L206,32 L227,39 L240,45 L260,54 L268,58 L279,64 L292,71 L303,78 L312,84 L322,90 L327,94 L341,103 L352,113 L360,118 L365,123 L373,130 L379,135 L382,139 L387,142 L395,150 L400,154 L407,162 L411,167 L418,175 L427,186 L436,197 L447,212 L455,223 L467,242 L476,256 L481,265 L491,284 L498,301 L503,317 L508,328 L516,349 L521,365 L527,385 L532,408 L534,416 L539,450 L540,460 L541,504 L541,547 L540,560 L538,571 L531,614 L528,624 L523,642 L518,658 L513,675 L507,691 L498,711 L494,721 L490,729 L482,745 L473,762 L461,780 L451,795 L442,808 L435,816 L422,832 L415,840 L406,850 L400,857 L389,866 L377,878 L369,885 L360,893 L349,901 L336,911 L321,922 L310,929 L301,935 L292,940 L286,944 L273,950 L266,953 L257,959 L244,964 L227,972 L224,974 L215,977 L207,980 L178,989 L172,992 L159,994 L149,997 L144,999 L133,1000 L116,1004 L104,1006 L101,1007 L86,1008 L82,1009 L65,1010 L0,1010 L-37,1006 L-57,1002 L-72,1000 L-85,997 L-106,990 L-116,989 L-121,986 L-144,979 L-164,971 L-174,967 L-190,960 L-204,953 L-209,949 L-225,941 L-243,931 L-249,927 L-254,923 L-261,919 L-276,909 L-287,900 L-298,890 L-306,884 L-310,880 L-319,873 L-327,864 L-336,857 L-345,847 L-349,842 L-354,837 L-363,826 L-373,815 L-386,795 L-393,787 L-404,769 L-408,765 L-416,749 L-423,735 L-430,721 L-435,711 L-440,699 L-443,693 L-447,682 L-450,676 L-453,663 L-456,656 L-460,640 L-463,632 L-468,610 L-471,592 L-472,581 L-474,571 L-476,545 L-477,538 L-478,520 L-478,479 L-477,457 L-474,433 L-472,427 L-470,408 L-465,391 L-460,370 L-454,352 L-452,344 L-444,320 L-441,307 L-436,301 L-426,282 L-422,273 L-418,265 L-407,247 L-400,236 L-394,227 L-388,218 L-383,210 L-376,200 L-369,192 L-360,180 L-351,169 L-342,160 L-340,156 L-335,151 L-330,147 L-328,147 L-327,144 L-322,139 L-311,130 L-301,121 L-287,110 L-273,99 L-264,93 L-255,85 L-240,76 L-221,65 L-202,55 L-193,50 L-168,40 L-154,33 L-126,23 L-110,19 L-94,14 L-78,11 L-59,7 L-47,6 L-35,3 L-28,2 Z M232,188 L228,193 L223,200 L224,204 L229,203 L236,193 L236,188 Z M-445,407 L-455,412 L-459,420 L-463,437 L-466,474 L-468,514 L-468,521 L-467,525 L-465,549 L-460,579 L-456,589 L-451,593 L-409,594 L-375,593 L-367,595 L-348,594 L-344,593 L-320,594 L-287,593 L-274,594 L-263,594 L-240,593 L-236,594 L-130,594 L-127,595 L-117,595 L-100,594 L-87,595 L-58,595 L-28,596 L57,596 L64,595 L68,596 L105,597 L123,596 L128,595 L154,595 L177,597 L181,596 L211,596 L221,598 L229,598 L235,597 L305,596 L404,596 L411,597 L433,596 L512,596 L519,590 L522,579 L525,560 L526,550 L527,521 L527,480 L526,477 L525,454 L523,441 L519,421 L513,414 L505,412 L496,413 L462,413 L442,412 L328,412 L293,411 L261,411 L237,410 L211,411 L190,410 L15,410 L10,411 L3,409 L-123,409 L-130,408 L-165,409 L-225,409 L-234,408 L-322,408 L-369,407 Z " fill="#000000" transform="translate(534,55)"/>
<path d="M0,0 Z " fill="#000000" transform="translate(1136,146)"/>
<path d="M0,0 L4,0 L3,4 L0,3 Z " fill="#000000" transform="translate(962,162)"/>
<path d="M0,0 L1,0 L1,910 L-12,910 L-10,899 L-10,872 L-9,808 L-9,780 L-8,769 L-9,749 L-7,674 L-6,591 L-6,526 L-5,253 L-4,204 L-4,126 L-3,84 L-2,32 L-1,12 L-1,2 Z " fill="#000000" transform="translate(1136,200)"/>
<path d="M0,0 L10,0 L12,2 L-1,2 Z " fill="#000000" transform="translate(808,1108)"/>
<path d="M0,0 L14,0 L16,2 L-2,2 Z " fill="#000000" transform="translate(843,1108)"/>
<path d="M0,0 L7,1 L7,2 L-2,2 Z " fill="#000000" transform="translate(877,1108)"/>
<path d="M0,0 Z " fill="#000000" transform="translate(868,1109)"/>
<path d="M0,0 L5,0 L5,1 L0,1 Z " fill="#000000" transform="translate(903,1109)"/>
</svg>
