<?xml version="1.0" encoding="UTF-8"?>
<!-- Generator: visioncortex VTracer 0.6.12 -->
<svg version="1.1" xmlns="http://www.w3.org/2000/svg" width="723" height="726">
<path d="M0,0 L189,0 L193,3 L198,4 L202,3 L207,8 L211,9 L215,7 L224,14 L230,13 L239,19 L244,19 L250,22 L255,27 L267,30 L275,37 L283,41 L286,40 L294,46 L299,51 L306,56 L311,57 L319,62 L324,67 L332,74 L332,77 L336,78 L343,86 L353,92 L360,100 L364,105 L367,106 L368,110 L373,115 L378,120 L380,124 L384,126 L386,130 L390,132 L390,134 L394,136 L402,147 L403,152 L403,154 L405,154 L407,159 L413,164 L414,168 L417,169 L418,176 L420,176 L420,183 L424,185 L429,193 L431,202 L436,207 L437,208 L437,214 L439,214 L439,221 L443,223 L445,230 L444,234 L448,239 L451,242 L450,246 L448,247 L448,249 L453,254 L455,256 L455,265 L458,267 L458,458 L454,462 L455,470 L449,477 L450,484 L445,490 L446,498 L444,499 L442,504 L439,506 L439,512 L433,522 L430,525 L428,537 L424,539 L422,543 L420,544 L421,549 L414,558 L410,563 L409,566 L405,568 L404,570 L406,570 L406,573 L402,575 L401,580 L398,585 L392,590 L387,595 L383,600 L377,605 L376,611 L370,613 L368,619 L359,627 L354,632 L345,641 L344,645 L337,647 L328,654 L321,662 L308,671 L303,674 L296,677 L288,684 L284,687 L274,690 L266,696 L263,698 L254,700 L246,705 L245,707 L236,707 L230,712 L221,713 L215,717 L203,720 L201,722 L195,721 L189,724 L188,726 L183,726 L182,724 L180,724 L179,726 L11,726 L10,724 L6,723 L6,726 L2,725 L2,723 L-3,721 L-6,720 L-10,722 L-19,716 L-27,717 L-31,712 L-36,711 L-39,713 L-47,706 L-51,705 L-59,704 L-64,699 L-66,697 L-73,697 L-87,687 L-97,684 L-103,680 L-110,672 L-115,670 L-123,665 L-132,659 L-142,650 L-148,645 L-155,637 L-162,631 L-167,625 L-172,622 L-173,619 L-181,612 L-188,604 L-195,598 L-196,594 L-200,592 L-205,587 L-205,583 L-208,582 L-212,570 L-219,564 L-226,554 L-226,547 L-231,542 L-236,536 L-235,529 L-238,528 L-240,523 L-244,519 L-246,516 L-245,509 L-252,501 L-252,495 L-254,490 L-257,488 L-259,481 L-259,475 L-261,473 L-261,466 L-262,461 L-265,461 L-265,455 L-265,451 L-265,273 L-263,271 L-265,270 L-265,264 L-263,263 L-260,258 L-258,258 L-258,255 L-261,254 L-260,249 L-258,248 L-255,243 L-254,241 L-256,240 L-256,235 L-252,230 L-250,229 L-251,223 L-247,218 L-245,215 L-244,206 L-241,201 L-237,197 L-235,197 L-235,188 L-231,182 L-229,182 L-227,177 L-225,176 L-225,171 L-222,170 L-223,166 L-219,161 L-212,153 L-207,148 L-205,142 L-202,135 L-197,130 L-193,125 L-191,124 L-189,120 L-182,114 L-178,110 L-173,105 L-165,96 L-157,89 L-152,84 L-147,78 L-141,74 L-132,66 L-130,63 L-125,60 L-113,57 L-111,53 L-101,44 L-96,41 L-91,40 L-85,37 L-77,30 L-73,29 L-66,27 L-59,22 L-51,21 L-45,16 L-40,13 L-32,14 L-30,10 L-23,8 L-17,9 L-16,6 L-12,4 L-1,3 Z M93,58 L51,62 L47,63 L42,62 L35,66 L28,65 L25,68 L16,68 L13,70 L13,72 L2,73 L-5,77 L-14,78 L-19,82 L-25,84 L-30,84 L-36,91 L-45,93 L-49,94 L-54,98 L-59,103 L-66,106 L-78,112 L-84,120 L-88,122 L-89,125 L-93,127 L-96,131 L-95,136 L-88,144 L-83,149 L-75,156 L-68,164 L-61,170 L-55,177 L-51,180 L-50,183 L-54,184 L-54,188 L-57,189 L-63,196 L-63,200 L-65,200 L-65,204 L-68,205 L-74,212 L-74,216 L-78,217 L-79,219 L-83,219 L-87,212 L-92,208 L-93,206 L-95,206 L-97,202 L-105,193 L-107,193 L-107,191 L-113,187 L-117,185 L-118,181 L-126,174 L-132,170 L-136,171 L-141,176 L-146,182 L-151,185 L-152,188 L-155,191 L-157,197 L-157,201 L-160,202 L-162,207 L-169,213 L-173,220 L-172,225 L-178,232 L-180,237 L-182,244 L-187,250 L-187,258 L-191,264 L-192,267 L-191,273 L-194,278 L-197,280 L-195,287 L-198,290 L-198,293 L-202,295 L-200,297 L-199,303 L-202,304 L-200,310 L-202,312 L-203,322 L-203,326 L-207,327 L-208,329 L-204,332 L-204,335 L-207,338 L-205,342 L-206,346 L-207,348 L-206,354 L-206,363 L-207,368 L-206,383 L-207,387 L-204,390 L-206,394 L-205,399 L-203,399 L-205,406 L-203,409 L-202,421 L-199,422 L-199,427 L-201,427 L-200,432 L-196,438 L-197,444 L-194,447 L-193,458 L-190,459 L-188,464 L-187,468 L-188,473 L-182,480 L-182,488 L-177,493 L-173,499 L-173,507 L-170,508 L-168,512 L-164,517 L-161,526 L-155,535 L-150,540 L-146,542 L-144,546 L-142,546 L-140,551 L-132,562 L-129,568 L-121,575 L-114,583 L-104,590 L-95,597 L-82,607 L-71,617 L-57,623 L-54,624 L-54,626 L-48,630 L-37,634 L-29,640 L-20,642 L-11,647 L-4,648 L2,653 L7,653 L11,652 L17,656 L19,658 L22,656 L25,656 L29,660 L32,658 L36,659 L40,661 L41,663 L45,662 L45,660 L50,660 L51,665 L55,664 L56,662 L60,664 L65,665 L70,664 L74,666 L82,665 L84,667 L89,666 L92,666 L97,667 L99,665 L107,666 L112,665 L120,665 L126,664 L132,663 L142,661 L150,661 L155,658 L161,659 L165,656 L172,656 L180,653 L189,651 L193,649 L201,648 L206,645 L207,643 L213,640 L220,640 L228,634 L233,632 L240,630 L247,623 L259,618 L265,614 L273,607 L278,602 L278,600 L282,598 L286,593 L284,589 L277,581 L269,574 L264,569 L259,564 L252,556 L247,551 L244,547 L218,548 L191,549 L159,551 L105,554 L85,555 L58,556 L51,557 L23,558 L14,559 L3,566 L-1,567 L-18,567 L-30,561 L-39,550 L-42,542 L-42,527 L-37,515 L-29,507 L-21,503 L-14,501 L-2,501 L11,506 L25,506 L68,504 L87,503 L136,501 L143,500 L156,500 L161,499 L174,499 L190,498 L191,494 L177,480 L169,473 L162,465 L155,459 L148,451 L140,444 L136,438 L125,427 L120,422 L119,420 L114,420 L111,426 L107,431 L100,439 L99,442 L96,443 L96,445 L92,447 L83,455 L69,465 L55,473 L46,477 L44,478 L38,478 L36,467 L35,450 L35,428 L45,421 L56,413 L65,404 L75,391 L82,377 L87,362 L90,348 L91,338 L91,326 L90,324 L89,311 L82,292 L78,281 L74,275 L68,264 L61,253 L51,239 L43,228 L29,210 L21,199 L18,184 L17,154 L15,123 L13,77 L17,77 L23,89 L30,103 L38,118 L44,128 L49,137 L57,150 L69,171 L81,191 L93,212 L100,223 L104,230 L115,248 L119,256 L125,266 L131,279 L136,296 L138,314 L139,317 L140,335 L139,352 L138,356 L137,377 L140,377 L143,376 L144,380 L148,382 L149,386 L151,388 L154,393 L160,396 L164,401 L166,401 L167,405 L174,410 L181,418 L193,430 L195,430 L197,435 L205,443 L207,443 L209,447 L217,454 L219,454 L220,457 L223,458 L226,464 L234,471 L239,476 L247,483 L252,493 L257,492 L260,493 L279,493 L314,492 L329,492 L331,493 L333,523 L334,529 L334,537 L331,542 L328,543 L314,544 L313,546 L318,551 L322,554 L328,553 L332,548 L340,541 L349,531 L351,526 L352,525 L352,520 L354,520 L358,512 L363,507 L364,504 L363,502 L366,502 L366,494 L369,493 L369,490 L372,489 L376,476 L379,471 L379,469 L381,469 L380,463 L383,460 L386,455 L385,447 L388,445 L388,440 L391,439 L389,432 L392,431 L393,420 L396,415 L394,413 L394,408 L397,407 L397,391 L400,382 L399,375 L399,367 L401,362 L398,358 L400,355 L399,345 L398,338 L396,334 L398,331 L397,327 L395,326 L397,319 L394,318 L394,312 L397,311 L396,308 L393,308 L393,299 L391,294 L390,289 L392,288 L391,284 L386,279 L386,274 L386,270 L381,264 L382,256 L379,255 L377,250 L375,246 L377,242 L374,240 L373,236 L368,231 L367,226 L367,222 L360,216 L357,210 L358,204 L354,205 L354,199 L348,194 L339,183 L335,177 L333,176 L333,171 L330,171 L330,166 L327,164 L325,160 L321,158 L317,151 L311,147 L305,140 L303,140 L301,136 L290,127 L286,123 L281,123 L279,120 L275,119 L274,117 L269,114 L264,110 L259,104 L246,100 L235,90 L228,91 L219,84 L217,83 L208,82 L204,77 L202,76 L193,75 L188,72 L179,71 L172,66 L168,68 L164,67 L163,65 L155,66 L149,62 L140,62 L117,59 Z M404,166 L404,168 L406,168 L406,166 Z M-231,190 Z M435,214 Z M-249,237 L-249,239 L-247,239 L-247,237 Z M-255,251 L-255,253 L-253,253 L-253,251 Z M386,252 L387,255 L389,255 L388,252 Z M-255,260 L-254,264 L-253,260 Z M-208,299 L-208,301 L-206,301 L-206,299 Z M136,383 L137,387 L140,387 L140,384 Z M133,389 L132,393 L135,393 L134,389 Z M-256,481 Z M280,546 L279,549 L283,549 L282,546 Z M288,546 L288,549 L292,550 L293,546 Z M251,547 L252,550 L255,549 L254,547 Z M261,547 L260,549 L262,549 Z M285,601 L286,603 Z M32,661 Z M176,665 L177,669 L180,668 L180,666 Z M198,670 L197,673 L200,672 L200,670 Z " fill="#000000" transform="translate(265,0)"/>
<path d="M0,0 L5,1 L6,2 L6,15 L9,63 L9,89 L7,93 L5,93 L4,97 L0,98 L-1,102 L3,101 L5,97 L9,93 L13,94 L22,104 L29,112 L33,114 L39,123 L46,129 L53,137 L58,142 L61,147 L65,149 L65,151 L69,153 L83,166 L88,171 L89,174 L93,176 L95,177 L97,181 L99,189 L100,203 L99,206 L99,212 L98,217 L99,221 L97,224 L96,235 L92,237 L93,244 L89,243 L84,238 L76,231 L67,220 L57,210 L57,208 L52,206 L48,202 L46,198 L42,196 L37,190 L37,188 L33,186 L28,182 L21,174 L13,166 L8,161 L-2,150 L-10,144 L-17,136 L-21,132 L-21,130 L-26,130 L-28,135 L-37,154 L-41,165 L-44,178 L-45,201 L-43,219 L-40,230 L-35,241 L-28,255 L-20,265 L-13,273 L-2,282 L12,291 L19,294 L22,297 L24,309 L25,337 L25,346 L23,348 L16,347 L-3,340 L-18,332 L-27,326 L-32,323 L-32,321 L-36,319 L-49,309 L-53,304 L-58,300 L-64,292 L-73,279 L-79,269 L-83,260 L-88,249 L-93,231 L-96,212 L-96,181 L-93,162 L-89,148 L-85,137 L-76,116 L-66,98 L-58,87 L-51,78 L-45,69 L-43,69 L-41,65 L-39,62 L-37,62 L-35,57 L-26,47 L-18,35 L-11,23 L-4,9 Z M10,99 L10,101 L12,101 L12,99 Z M-3,103 Z M87,232 L87,235 L89,235 L88,232 Z " fill="#000000" transform="translate(249,133)"/>
<path d="M0,0 Z " fill="#000000" transform="translate(656,424)"/>
</svg>
