<?xml version="1.0" encoding="UTF-8"?>
<!-- Generator: visioncortex VTracer 0.6.12 -->
<svg version="1.1" xmlns="http://www.w3.org/2000/svg" width="1107" height="1116">
<path d="M0,0 L225,0 L226,2 L228,2 L229,0 L235,0 L238,3 L243,4 L248,3 L250,6 L257,6 L266,10 L272,10 L278,14 L284,13 L293,19 L299,18 L303,23 L310,24 L315,25 L321,30 L328,29 L337,36 L346,37 L351,42 L353,44 L361,44 L369,49 L372,53 L372,55 L381,55 L386,58 L396,66 L399,67 L404,67 L407,70 L411,72 L418,80 L421,83 L428,82 L432,86 L440,92 L445,97 L449,100 L450,103 L455,104 L455,106 L462,108 L463,111 L468,112 L468,114 L473,116 L480,124 L488,131 L492,136 L495,139 L500,144 L502,148 L507,149 L508,151 L511,152 L516,157 L518,162 L525,167 L526,171 L530,172 L534,178 L536,181 L539,182 L541,187 L544,188 L551,196 L556,201 L559,204 L559,206 L563,208 L571,219 L572,223 L574,224 L576,230 L583,237 L583,239 L587,240 L588,245 L590,245 L593,252 L593,257 L598,262 L604,269 L605,276 L607,276 L609,282 L615,289 L617,294 L618,301 L625,308 L627,313 L627,320 L630,322 L633,327 L636,339 L640,344 L641,350 L642,355 L646,360 L646,368 L649,370 L652,376 L653,385 L656,390 L656,398 L659,403 L659,412 L663,416 L665,428 L665,436 L668,445 L669,450 L669,666 L667,666 L669,674 L667,677 L665,690 L664,691 L663,700 L660,706 L660,713 L656,720 L656,727 L655,729 L653,729 L652,741 L648,747 L646,757 L643,762 L642,768 L640,772 L638,776 L635,778 L634,788 L628,798 L628,804 L624,809 L621,811 L618,823 L612,830 L609,837 L607,844 L603,849 L601,849 L599,854 L595,863 L591,868 L588,873 L584,877 L582,877 L581,881 L579,883 L577,889 L575,889 L574,894 L565,906 L559,911 L557,915 L553,917 L551,921 L549,922 L547,927 L545,927 L544,932 L541,932 L540,937 L536,942 L531,947 L527,949 L526,953 L521,958 L511,968 L506,973 L503,976 L500,977 L497,981 L494,982 L492,986 L487,986 L487,988 L482,991 L477,995 L469,1001 L460,1011 L454,1016 L449,1020 L446,1021 L445,1023 L434,1028 L426,1034 L421,1039 L416,1042 L410,1042 L400,1050 L399,1053 L393,1056 L386,1057 L381,1059 L379,1063 L373,1067 L369,1066 L367,1065 L363,1069 L358,1074 L351,1076 L347,1076 L342,1081 L336,1085 L327,1085 L321,1090 L313,1090 L310,1093 L307,1095 L299,1094 L292,1101 L288,1099 L284,1098 L279,1104 L271,1103 L269,1107 L262,1108 L258,1107 L254,1110 L246,1110 L239,1114 L232,1114 L231,1116 L7,1116 L6,1114 L-1,1114 L-10,1113 L-15,1111 L-21,1109 L-25,1110 L-29,1106 L-36,1107 L-42,1103 L-46,1102 L-52,1101 L-58,1097 L-65,1096 L-70,1094 L-74,1093 L-77,1094 L-85,1088 L-86,1087 L-93,1087 L-98,1085 L-103,1080 L-107,1078 L-112,1079 L-118,1074 L-128,1071 L-132,1070 L-133,1067 L-139,1063 L-144,1061 L-150,1061 L-157,1054 L-157,1052 L-161,1051 L-165,1050 L-167,1051 L-176,1045 L-182,1038 L-188,1035 L-193,1034 L-198,1030 L-204,1026 L-204,1024 L-209,1022 L-214,1016 L-214,1014 L-226,1011 L-238,1001 L-243,998 L-249,991 L-254,986 L-259,981 L-262,978 L-262,976 L-266,974 L-274,967 L-277,964 L-284,956 L-285,952 L-290,950 L-296,943 L-301,938 L-309,931 L-310,927 L-314,926 L-319,920 L-324,915 L-328,911 L-332,903 L-332,901 L-335,899 L-334,895 L-338,895 L-340,888 L-348,881 L-355,873 L-358,867 L-359,864 L-358,861 L-362,859 L-367,853 L-371,842 L-374,834 L-380,829 L-383,824 L-382,818 L-386,813 L-391,808 L-394,803 L-395,800 L-395,793 L-399,791 L-402,786 L-402,778 L-404,774 L-408,772 L-407,767 L-406,765 L-409,764 L-410,760 L-413,757 L-414,745 L-418,743 L-419,733 L-425,724 L-424,717 L-427,714 L-426,707 L-430,701 L-430,693 L-435,686 L-434,679 L-437,677 L-436,672 L-436,668 L-436,665 L-438,665 L-438,447 L-433,440 L-435,438 L-435,434 L-433,433 L-430,427 L-432,421 L-429,418 L-428,410 L-424,405 L-424,400 L-424,396 L-420,390 L-419,387 L-418,378 L-413,372 L-416,371 L-415,366 L-410,360 L-411,353 L-405,346 L-403,336 L-397,327 L-394,324 L-396,324 L-396,319 L-390,311 L-389,306 L-386,299 L-383,294 L-379,293 L-378,288 L-375,280 L-372,275 L-367,268 L-363,258 L-359,252 L-354,246 L-352,245 L-349,240 L-349,235 L-346,232 L-343,227 L-341,223 L-333,216 L-329,212 L-328,207 L-324,205 L-323,200 L-321,200 L-320,195 L-313,189 L-309,183 L-300,173 L-295,169 L-290,163 L-285,158 L-279,153 L-274,148 L-268,141 L-263,136 L-256,130 L-252,126 L-250,126 L-249,123 L-242,117 L-235,112 L-233,109 L-227,110 L-227,106 L-221,106 L-219,102 L-213,97 L-209,92 L-207,92 L-206,89 L-200,86 L-194,86 L-195,83 L-188,81 L-182,74 L-177,70 L-171,70 L-171,67 L-162,64 L-155,58 L-142,53 L-133,46 L-125,45 L-120,43 L-119,40 L-114,36 L-110,37 L-106,38 L-99,31 L-95,28 L-88,30 L-83,25 L-80,22 L-76,23 L-73,24 L-71,21 L-66,18 L-60,19 L-51,12 L-48,13 L-48,15 L-39,10 L-34,9 L-30,9 L-28,7 L-20,6 L-16,5 L-14,3 L-5,3 Z M351,91 L351,93 L354,92 Z M130,96 L129,100 L124,98 L120,98 L120,100 L115,99 L111,97 L110,98 L105,98 L101,98 L97,100 L94,97 L87,99 L81,99 L75,102 L67,102 L64,104 L62,102 L57,102 L54,104 L47,103 L42,106 L33,106 L29,107 L24,107 L21,109 L11,110 L9,114 L4,112 L1,110 L-6,117 L-15,116 L-19,120 L-29,122 L-36,126 L-42,125 L-48,130 L-48,132 L-56,131 L-64,137 L-71,141 L-75,139 L-80,144 L-89,150 L-94,149 L-104,157 L-110,160 L-118,162 L-124,169 L-130,173 L-135,175 L-138,178 L-143,180 L-148,183 L-155,190 L-157,191 L-158,194 L-162,196 L-167,201 L-175,210 L-174,214 L-167,223 L-164,225 L-162,229 L-155,235 L-151,242 L-145,245 L-139,252 L-131,259 L-126,264 L-121,268 L-114,276 L-107,283 L-102,288 L-92,296 L-85,305 L-78,311 L-73,316 L-63,326 L-57,333 L-54,333 L-54,263 L-55,252 L-55,199 L-53,194 L-46,192 L4,190 L45,189 L82,188 L99,187 L148,186 L197,185 L215,186 L236,190 L249,194 L262,199 L275,204 L292,215 L299,219 L310,227 L319,234 L325,239 L333,246 L343,256 L352,267 L359,277 L367,290 L374,302 L384,324 L391,349 L394,368 L395,375 L396,392 L396,409 L394,427 L392,444 L388,459 L383,476 L376,491 L371,503 L367,509 L362,518 L352,532 L339,548 L334,552 L327,560 L321,565 L316,570 L305,578 L291,587 L276,596 L260,603 L244,609 L234,612 L231,615 L231,620 L237,624 L242,625 L242,628 L247,633 L250,634 L250,638 L255,641 L260,644 L263,649 L264,653 L270,655 L277,661 L281,668 L284,671 L288,673 L291,677 L293,677 L294,681 L298,682 L299,688 L305,692 L307,692 L308,695 L313,699 L318,704 L326,711 L335,719 L338,724 L345,729 L347,729 L348,732 L353,737 L359,743 L361,743 L363,747 L371,754 L376,761 L381,765 L385,770 L393,777 L398,781 L400,785 L408,792 L410,792 L412,796 L417,801 L428,811 L430,814 L432,814 L434,818 L437,820 L439,825 L443,828 L447,828 L449,833 L454,838 L458,841 L467,842 L472,839 L481,831 L487,823 L489,819 L493,818 L500,807 L502,801 L504,795 L508,793 L512,788 L514,778 L520,771 L522,770 L526,757 L530,751 L533,747 L535,739 L538,733 L540,732 L539,726 L545,717 L545,711 L548,705 L550,701 L551,694 L554,690 L556,677 L559,674 L558,667 L560,663 L561,653 L564,650 L563,643 L565,641 L566,629 L569,626 L568,618 L569,614 L568,610 L570,608 L569,601 L570,599 L571,577 L574,573 L571,570 L571,567 L574,565 L572,561 L571,559 L574,555 L574,553 L571,551 L572,547 L574,546 L573,543 L571,543 L571,526 L570,523 L570,513 L571,511 L568,507 L570,502 L567,498 L568,490 L564,483 L565,477 L563,474 L564,466 L562,464 L560,457 L560,452 L558,450 L558,444 L554,436 L555,430 L549,422 L550,414 L548,414 L546,408 L545,404 L545,399 L540,393 L541,386 L537,382 L532,374 L531,370 L531,366 L527,360 L525,359 L522,346 L517,341 L515,341 L513,331 L512,326 L505,320 L501,315 L497,308 L497,304 L494,303 L494,298 L487,292 L481,285 L477,280 L470,272 L468,266 L465,265 L464,261 L461,258 L455,250 L448,244 L443,239 L436,231 L431,226 L426,221 L421,216 L419,216 L418,213 L413,208 L408,206 L407,204 L403,203 L400,199 L391,194 L382,187 L377,182 L372,177 L367,174 L364,175 L352,166 L346,159 L342,159 L342,161 L332,154 L325,149 L316,148 L308,140 L299,139 L290,133 L285,132 L280,131 L276,126 L273,126 L273,128 L268,127 L260,120 L253,123 L252,120 L247,116 L239,117 L233,112 L229,113 L229,115 L224,113 L222,111 L213,110 L210,108 L200,106 L192,106 L186,103 L182,103 L178,104 L176,101 L171,102 L168,102 L163,100 L159,101 L153,99 L146,100 L143,98 L139,99 L136,100 L131,96 Z M-233,115 Z M-237,272 L-244,278 L-249,283 L-253,287 L-254,290 L-257,291 L-258,295 L-261,297 L-262,304 L-266,309 L-269,312 L-276,320 L-276,326 L-279,332 L-279,334 L-282,335 L-287,340 L-286,345 L-290,345 L-289,351 L-292,353 L-294,357 L-296,358 L-296,364 L-298,364 L-298,370 L-303,375 L-305,378 L-305,384 L-308,390 L-311,393 L-311,398 L-314,406 L-316,412 L-317,419 L-320,421 L-322,433 L-325,435 L-325,442 L-328,448 L-329,452 L-328,457 L-331,464 L-331,471 L-333,473 L-333,481 L-335,484 L-336,494 L-339,499 L-337,501 L-338,506 L-339,510 L-337,510 L-338,515 L-339,516 L-340,539 L-340,547 L-341,555 L-340,563 L-339,581 L-340,587 L-339,590 L-340,595 L-338,598 L-339,605 L-337,607 L-337,611 L-339,612 L-337,616 L-336,624 L-334,630 L-334,635 L-334,639 L-332,639 L-334,647 L-331,650 L-330,662 L-327,663 L-327,669 L-329,669 L-328,673 L-324,679 L-325,684 L-325,687 L-321,691 L-320,693 L-318,693 L-320,701 L-317,704 L-314,710 L-316,714 L-312,716 L-311,720 L-310,721 L-310,726 L-310,730 L-305,735 L-303,735 L-302,741 L-301,744 L-301,749 L-298,750 L-296,755 L-294,755 L-292,764 L-292,768 L-287,773 L-284,778 L-282,787 L-280,787 L-278,791 L-274,795 L-271,799 L-269,804 L-268,807 L-267,811 L-259,820 L-254,825 L-248,833 L-245,838 L-244,844 L-239,849 L-234,855 L-226,862 L-221,868 L-217,869 L-215,873 L-212,876 L-207,881 L-198,890 L-195,893 L-190,898 L-188,898 L-187,902 L-179,909 L-173,916 L-162,923 L-156,925 L-148,931 L-141,938 L-136,943 L-132,944 L-127,945 L-122,948 L-119,951 L-117,951 L-115,955 L-109,960 L-103,959 L-90,969 L-85,968 L-85,970 L-77,974 L-73,977 L-61,980 L-57,984 L-52,984 L-43,989 L-39,992 L-36,992 L-36,990 L-27,995 L-23,997 L-19,995 L-11,1001 L-4,1000 L-2,1003 L5,1002 L11,1005 L15,1007 L21,1006 L25,1009 L35,1010 L40,1011 L44,1009 L47,1012 L59,1013 L60,1016 L69,1015 L71,1017 L75,1016 L77,1014 L81,1016 L88,1016 L92,1017 L93,1016 L98,1016 L99,1017 L105,1017 L108,1017 L111,1018 L114,1016 L122,1017 L126,1017 L131,1018 L136,1017 L150,1017 L152,1015 L159,1016 L165,1013 L175,1014 L195,1010 L207,1008 L209,1007 L218,1006 L221,1004 L230,1003 L235,1001 L240,1002 L247,997 L256,997 L261,992 L261,990 L266,993 L271,992 L274,989 L280,985 L287,984 L288,981 L297,979 L302,980 L304,976 L309,972 L315,970 L321,969 L332,960 L339,961 L347,953 L352,948 L362,944 L372,939 L379,931 L386,926 L393,922 L398,917 L400,916 L401,913 L404,910 L407,904 L407,901 L405,900 L402,894 L400,888 L392,881 L387,876 L383,874 L380,869 L378,868 L377,865 L373,864 L371,858 L367,854 L364,853 L361,848 L356,844 L353,839 L350,839 L350,835 L343,836 L343,831 L338,825 L335,824 L334,821 L326,814 L323,811 L321,811 L319,806 L316,803 L311,798 L306,793 L300,789 L295,783 L291,781 L286,776 L280,767 L275,764 L273,764 L272,759 L263,752 L258,746 L254,744 L252,740 L248,739 L246,734 L244,734 L242,730 L240,730 L239,725 L230,719 L222,710 L220,710 L219,707 L211,700 L209,697 L201,693 L197,687 L190,681 L185,674 L181,672 L177,668 L175,668 L174,665 L169,660 L161,650 L155,646 L151,642 L146,637 L141,632 L133,625 L131,622 L126,621 L81,621 L71,623 L66,626 L65,632 L67,723 L70,846 L71,862 L72,921 L72,956 L70,959 L40,960 L23,960 L-1,961 L-34,961 L-37,958 L-38,953 L-39,931 L-41,857 L-41,843 L-42,828 L-42,809 L-43,776 L-44,757 L-44,735 L-45,722 L-45,706 L-46,663 L-46,635 L-47,618 L-47,591 L-48,551 L-49,499 L-51,449 L-53,439 L-55,435 L-60,432 L-65,427 L-70,422 L-76,417 L-81,412 L-86,406 L-88,406 L-90,402 L-93,399 L-98,394 L-102,392 L-103,388 L-106,387 L-109,383 L-112,383 L-113,378 L-118,377 L-120,374 L-122,374 L-123,369 L-129,364 L-131,364 L-133,358 L-136,358 L-137,354 L-140,353 L-142,349 L-152,341 L-155,341 L-157,335 L-160,335 L-160,331 L-165,331 L-166,326 L-169,325 L-171,322 L-175,322 L-177,317 L-187,308 L-193,303 L-195,302 L-196,298 L-200,297 L-202,294 L-206,292 L-211,287 L-224,275 L-228,272 Z M484,280 Z M141,298 L133,299 L91,300 L64,301 L60,305 L59,312 L59,351 L60,365 L60,398 L61,432 L61,450 L63,456 L71,460 L74,464 L76,464 L77,468 L85,474 L92,482 L98,488 L100,488 L102,492 L107,497 L109,497 L109,501 L105,502 L101,499 L99,501 L94,500 L90,500 L86,501 L81,500 L77,502 L75,502 L74,499 L68,499 L69,494 L65,493 L63,495 L64,504 L68,507 L79,508 L122,508 L161,507 L184,506 L201,504 L215,500 L236,490 L245,483 L251,478 L258,470 L265,461 L273,448 L276,441 L278,434 L282,414 L283,396 L282,383 L280,379 L278,364 L268,345 L260,333 L248,321 L237,314 L229,309 L223,306 L217,304 L209,301 L193,298 Z M-386,316 Z M-57,339 L-57,342 L-54,341 L-55,339 Z M-57,388 L-57,390 L-55,390 L-55,388 Z M-57,398 L-57,401 L-55,401 L-55,398 Z M-56,426 L-57,428 L-55,428 Z M-428,445 Z M64,458 L63,462 L66,463 L65,458 Z M65,464 L65,468 L69,468 L69,465 Z M67,475 Z M139,622 L139,625 L141,625 L141,622 Z M363,754 Z M314,973 Z M295,982 Z M20,1106 L19,1109 L22,1108 L22,1106 Z " fill="#000000" transform="translate(438,0)"/>
<path d="M0,0 L8,0 L10,4 L14,3 L16,0 L23,0 L23,7 L20,12 L30,15 L31,19 L29,21 L20,22 L24,29 L23,34 L18,35 L13,30 L10,29 L8,35 L2,36 L-1,33 L1,27 L3,22 L-7,21 L-8,20 L-8,15 L-7,14 L2,13 L2,8 L0,5 Z " fill="#000000" transform="translate(1068,0)"/>
<path d="M0,0 L3,1 L3,3 L-1,3 Z " fill="#000000" transform="translate(285,792)"/>
</svg>
