<?xml version="1.0" encoding="UTF-8"?>
<!-- Generator: visioncortex VTracer 0.6.12 -->
<svg version="1.1" xmlns="http://www.w3.org/2000/svg" width="924" height="945">
<path d="M0,0 L668,0 L668,2 L677,5 L689,10 L702,17 L713,24 L724,32 L732,39 L739,40 L743,39 L742,42 L739,42 L742,47 L752,58 L761,69 L768,79 L776,91 L784,107 L791,123 L794,130 L794,825 L791,830 L781,851 L772,866 L761,882 L755,889 L753,889 L751,893 L738,906 L727,915 L716,922 L705,930 L685,939 L676,944 L675,945 L-6,945 L-8,943 L-18,939 L-27,935 L-42,926 L-53,918 L-61,912 L-66,909 L-71,904 L-77,899 L-85,889 L-90,884 L-99,872 L-109,857 L-118,841 L-124,825 L-128,812 L-130,809 L-130,129 L-125,117 L-119,104 L-115,94 L-108,84 L-99,70 L-90,59 L-71,40 L-61,32 L-52,26 L-38,16 L-30,12 L-16,7 L-8,3 Z M383,137 L365,138 L279,138 L231,139 L224,138 L220,140 L205,139 L45,139 L41,142 L40,145 L40,204 L45,209 L59,210 L87,210 L113,212 L125,216 L129,219 L135,219 L141,217 L136,221 L136,225 L139,230 L143,241 L145,251 L146,333 L146,458 L147,581 L151,585 L156,580 L172,564 L177,559 L193,543 L193,541 L197,539 L204,532 L211,524 L218,517 L225,509 L233,502 L237,497 L242,493 L249,485 L271,463 L278,455 L289,444 L294,439 L301,431 L306,426 L309,421 L307,417 L278,416 L276,412 L275,342 L275,212 L278,209 L359,208 L379,208 L405,209 L420,211 L423,213 L433,215 L447,220 L460,227 L470,235 L477,243 L483,243 L487,239 L487,237 L491,235 L503,222 L512,213 L519,205 L524,201 L531,193 L540,184 L547,176 L553,169 L553,164 L550,161 L541,157 L536,155 L528,153 L517,149 L507,147 L494,145 L484,143 L479,142 L461,141 L460,140 L451,140 L447,139 L431,138 L406,138 L400,137 L397,142 L392,143 L394,139 L388,137 Z M627,266 L615,278 L607,285 L599,294 L594,299 L582,311 L578,315 L573,320 L565,329 L557,336 L552,343 L547,346 L542,353 L534,360 L529,365 L521,374 L516,379 L499,396 L492,404 L473,423 L466,431 L459,437 L452,445 L442,455 L438,459 L433,464 L424,475 L419,481 L420,486 L421,487 L469,486 L482,484 L499,483 L519,479 L543,470 L555,465 L564,460 L572,454 L585,444 L592,437 L597,432 L604,424 L611,414 L619,401 L626,387 L632,369 L635,357 L638,338 L639,328 L639,305 L637,286 L634,271 L631,266 Z M774,470 L772,471 L772,474 L776,473 L775,470 Z M-58,630 L-59,633 L-56,633 L-55,630 Z M269,639 L265,644 L260,649 L256,653 L256,655 L252,657 L237,673 L227,683 L220,691 L209,702 L204,707 L195,718 L187,725 L180,733 L175,738 L171,743 L163,750 L156,758 L151,763 L146,769 L141,774 L133,782 L123,795 L123,798 L126,799 L165,800 L193,800 L241,799 L264,799 L267,800 L328,800 L361,799 L381,799 L385,796 L386,793 L386,730 L383,726 L366,726 L332,725 L313,725 L298,721 L289,715 L282,706 L278,693 L276,682 L275,649 L274,641 L272,639 Z " fill="#000000" transform="translate(130,0)"/>
</svg>
