<?xml version="1.0" encoding="UTF-8"?>
<!-- Generator: visioncortex VTracer 0.6.12 -->
<svg version="1.1" xmlns="http://www.w3.org/2000/svg" width="1104" height="1227">
<path d="M0,0 L10,0 L17,2 L19,4 L19,12 L18,18 L17,70 L17,97 L16,142 L16,644 L15,833 L14,905 L15,940 L15,997 L14,1010 L11,1014 L2,1014 L-7,1013 L-58,1013 L-106,1012 L-113,1013 L-294,1013 L-301,1012 L-310,1013 L-362,1013 L-398,1012 L-408,1013 L-452,1012 L-511,1013 L-780,1013 L-800,1012 L-813,1011 L-815,1012 L-997,1012 L-1004,1014 L-1013,1014 L-1017,1011 L-1018,999 L-1018,774 L-1017,671 L-1017,467 L-1018,300 L-1018,13 L-1016,8 L-1012,6 L-1003,4 L-986,3 L-829,3 L-805,4 L-800,3 L-498,3 L-477,2 L-138,2 L-101,1 L-27,1 Z M-884,11 L-889,14 L-914,15 L-964,15 L-967,20 L-970,19 L-973,15 L-998,15 L-1002,19 L-1003,33 L-1003,51 L-1004,110 L-1005,139 L-1005,426 L-1004,433 L-1004,552 L-1003,645 L-1003,664 L-1004,697 L-1004,722 L-1005,752 L-1005,852 L-1004,906 L-1003,933 L-1003,973 L-1002,997 L-1000,1000 L-992,1001 L-976,1002 L-928,1002 L-915,1003 L-906,1002 L-828,1002 L-775,1001 L-742,1002 L-737,1001 L-728,1002 L-630,1002 L-624,1003 L-613,1002 L-584,1002 L-487,1001 L-482,1002 L-465,1001 L-401,1001 L-392,1002 L-389,1001 L-375,1001 L-368,1002 L-365,1001 L-289,1001 L-187,1002 L-140,1002 L-71,1001 L-9,1001 L0,999 L2,995 L2,752 L3,690 L3,22 L0,16 L-10,14 L-196,14 L-227,13 L-253,13 L-343,14 L-502,14 L-553,15 L-642,14 L-787,14 L-793,13 L-796,14 L-845,15 L-864,14 L-875,15 L-880,11 Z " fill="#000000" transform="translate(1053,35)"/>
<path d="M0,0 L3,0 L2,3 L0,3 Z " fill="#000000" transform="translate(451,55)"/>
<path d="M0,0 L9,0 L19,1 L35,1 L75,7 L99,12 L104,14 L114,16 L126,20 L142,24 L154,29 L163,32 L173,37 L181,41 L191,45 L207,53 L223,62 L236,69 L248,77 L253,80 L266,91 L273,97 L281,104 L293,113 L300,120 L306,125 L312,132 L312,134 L316,136 L328,148 L335,157 L346,171 L358,187 L368,202 L378,217 L390,238 L394,247 L400,261 L409,280 L411,286 L415,296 L418,305 L423,323 L428,348 L430,357 L434,386 L436,403 L436,463 L432,498 L429,518 L425,536 L423,547 L417,566 L411,583 L407,594 L404,598 L401,608 L392,627 L387,637 L383,644 L380,651 L376,658 L368,671 L365,676 L359,686 L347,702 L343,708 L329,722 L322,731 L311,743 L295,759 L293,759 L292,762 L281,771 L271,780 L264,784 L259,789 L250,795 L239,803 L223,812 L215,817 L201,825 L185,833 L169,840 L155,846 L144,850 L138,853 L131,855 L121,857 L109,861 L96,863 L85,866 L74,868 L67,868 L51,872 L44,873 L-30,873 L-45,872 L-63,869 L-66,868 L-82,866 L-95,864 L-97,863 L-109,861 L-128,856 L-134,853 L-148,849 L-158,845 L-173,839 L-185,834 L-194,830 L-208,822 L-217,816 L-233,807 L-242,801 L-255,793 L-265,785 L-274,779 L-287,769 L-297,761 L-305,752 L-311,747 L-311,745 L-315,743 L-322,736 L-329,726 L-334,721 L-341,712 L-351,699 L-362,685 L-368,676 L-373,667 L-378,659 L-385,647 L-391,637 L-402,613 L-406,605 L-410,596 L-414,583 L-419,564 L-424,548 L-429,529 L-436,490 L-438,462 L-439,455 L-439,435 L-438,400 L-437,386 L-433,361 L-425,325 L-422,314 L-420,311 L-418,301 L-415,291 L-408,275 L-403,261 L-394,242 L-384,223 L-378,214 L-373,204 L-364,192 L-352,175 L-343,164 L-336,156 L-329,147 L-318,135 L-314,131 L-312,131 L-310,126 L-302,119 L-292,109 L-283,102 L-273,94 L-261,85 L-252,78 L-243,72 L-232,65 L-209,52 L-194,44 L-169,34 L-155,27 L-145,25 L-133,20 L-117,16 L-89,9 L-79,7 L-60,4 L-28,1 Z M-4,90 L-17,91 L-26,92 L-55,95 L-71,99 L-85,102 L-100,107 L-117,112 L-131,118 L-144,123 L-173,138 L-178,141 L-189,148 L-201,157 L-212,166 L-222,175 L-233,184 L-241,192 L-246,197 L-255,206 L-260,211 L-266,219 L-273,228 L-278,235 L-281,240 L-287,248 L-294,261 L-306,282 L-311,293 L-315,303 L-320,315 L-324,325 L-329,340 L-336,366 L-338,377 L-341,392 L-342,433 L-341,468 L-340,472 L-339,489 L-335,509 L-329,534 L-321,559 L-312,579 L-307,590 L-298,607 L-292,616 L-285,627 L-283,627 L-281,632 L-277,636 L-270,635 L-262,628 L-252,619 L-243,610 L-236,604 L-230,597 L-222,590 L-215,582 L-195,562 L-191,559 L-191,557 L-187,555 L-185,551 L-183,551 L-179,547 L-174,542 L-158,526 L-157,519 L-160,517 L-173,516 L-188,516 L-205,515 L-220,514 L-225,509 L-228,503 L-228,491 L-227,487 L-227,477 L-228,473 L-228,462 L-225,456 L-223,454 L-161,454 L-131,455 L-123,454 L-88,455 L-78,450 L-44,416 L-39,411 L-34,406 L-21,394 L-16,388 L-8,381 L7,367 L13,362 L17,356 L26,349 L29,344 L37,337 L46,329 L50,324 L58,317 L75,300 L83,293 L95,280 L103,274 L123,254 L128,249 L138,240 L143,235 L160,219 L166,214 L173,206 L182,196 L193,187 L202,178 L209,169 L208,160 L200,153 L194,149 L189,146 L179,139 L156,127 L147,123 L130,115 L90,102 L78,99 L66,97 L65,96 L48,94 L45,93 Z M275,236 L266,242 L261,247 L256,252 L251,257 L246,260 L242,265 L237,270 L229,277 L225,281 L218,289 L210,296 L199,308 L187,319 L182,324 L171,336 L160,345 L143,362 L135,369 L119,385 L111,392 L103,399 L96,407 L77,426 L69,433 L62,440 L56,444 L51,452 L41,462 L36,467 L27,476 L27,478 L32,477 L45,464 L54,459 L57,458 L82,457 L127,459 L184,459 L259,461 L281,461 L291,462 L294,465 L295,470 L295,507 L293,520 L291,523 L277,524 L245,523 L199,523 L190,522 L140,522 L137,523 L124,523 L105,521 L52,520 L48,519 L41,519 L34,520 L31,519 L15,520 L11,519 L-3,518 L-6,511 L-9,510 L-13,513 L-13,515 L-17,517 L-22,522 L-29,529 L-34,534 L-42,541 L-47,546 L-57,556 L-65,563 L-70,568 L-95,593 L-103,600 L-108,605 L-115,611 L-122,619 L-138,635 L-143,639 L-148,644 L-175,671 L-180,676 L-186,682 L-186,684 L-191,686 L-199,695 L-204,700 L-206,702 L-206,710 L-198,718 L-187,724 L-179,730 L-166,737 L-160,742 L-151,745 L-135,753 L-129,756 L-118,759 L-111,762 L-99,765 L-92,768 L-82,770 L-67,773 L-65,774 L-52,776 L-40,776 L-36,777 L-22,778 L-19,779 L12,779 L17,778 L37,777 L62,773 L75,771 L83,768 L95,765 L108,761 L125,755 L134,751 L153,742 L158,739 L165,736 L168,733 L176,729 L185,723 L196,716 L207,708 L216,701 L222,697 L226,692 L234,685 L246,673 L253,665 L264,654 L270,646 L274,641 L278,635 L286,625 L295,610 L298,603 L304,593 L312,577 L321,557 L329,536 L337,504 L343,461 L344,449 L344,422 L342,394 L339,375 L336,359 L330,337 L325,320 L315,296 L309,281 L302,269 L292,253 L286,244 L281,237 Z M24,480 L19,484 L20,487 L24,486 L25,480 Z " fill="#000000" transform="translate(557,108)"/>
<path d="M0,0 L5,0 L12,9 L16,22 L21,40 L23,62 L23,74 L21,92 L18,101 L14,115 L6,133 L-4,148 L-11,157 L-17,164 L-22,169 L-30,176 L-40,184 L-51,192 L-62,197 L-74,202 L-89,206 L-91,207 L-120,210 L-133,214 L-150,223 L-152,223 L-154,228 L-158,230 L-160,234 L-165,238 L-171,249 L-176,256 L-178,264 L-182,278 L-182,298 L-181,307 L-184,312 L-191,313 L-195,309 L-198,300 L-198,280 L-194,262 L-187,245 L-179,232 L-172,223 L-161,214 L-154,208 L-144,202 L-129,196 L-102,193 L-96,191 L-87,190 L-78,187 L-71,184 L-64,180 L-54,176 L-44,169 L-32,158 L-24,151 L-14,138 L-7,127 L-4,123 L-1,113 L4,100 L8,77 L8,48 L4,29 L-1,14 L-3,10 L-3,4 Z " fill="#000000" transform="translate(501,240)"/>
<path d="M0,0 L6,2 L12,11 L17,23 L21,39 L23,59 L23,67 L21,84 L19,89 L18,96 L13,107 L9,118 L1,131 L-8,143 L-20,155 L-28,161 L-39,168 L-55,176 L-64,180 L-85,184 L-96,185 L-105,188 L-115,190 L-131,198 L-145,207 L-158,219 L-167,231 L-173,242 L-178,257 L-180,267 L-182,276 L-182,303 L-185,308 L-192,309 L-197,306 L-198,304 L-200,285 L-198,262 L-192,242 L-187,233 L-184,226 L-179,218 L-177,218 L-175,214 L-168,204 L-157,195 L-145,185 L-132,178 L-125,174 L-112,170 L-103,169 L-99,167 L-84,165 L-77,164 L-57,157 L-43,149 L-33,142 L-25,134 L-18,125 L-7,109 L-1,96 L2,84 L4,74 L5,65 L4,49 L1,33 L-5,16 L-7,11 L-7,5 L-3,1 Z " fill="#000000" transform="translate(480,244)"/>
<path d="M0,0 L6,1 L11,6 L17,18 L19,23 L22,40 L22,66 L18,83 L15,91 L9,103 L1,114 L-6,122 L-14,129 L-21,135 L-28,139 L-40,144 L-55,149 L-73,151 L-80,153 L-89,155 L-97,158 L-105,160 L-117,167 L-126,172 L-139,182 L-150,193 L-157,202 L-163,210 L-172,227 L-178,244 L-181,263 L-182,295 L-187,300 L-193,298 L-196,294 L-197,291 L-197,264 L-194,245 L-185,218 L-181,210 L-171,195 L-164,186 L-157,178 L-149,171 L-142,164 L-132,158 L-117,149 L-105,143 L-84,137 L-73,135 L-55,133 L-45,129 L-29,121 L-17,111 L-10,103 L-1,89 L4,75 L6,68 L7,43 L3,25 L-3,12 L-4,7 L-2,2 Z " fill="#000000" transform="translate(455,253)"/>
<path d="M0,0 L5,1 L6,2 L7,17 L9,22 L10,32 L8,38 L7,58 L5,60 L-1,60 L-6,54 L-7,45 L-5,37 L-4,34 L-4,24 L-6,20 L-6,5 Z " fill="#000000" transform="translate(264,560)"/>
<path d="M0,0 L5,1 L7,3 L7,16 L9,25 L9,32 L7,36 L7,59 L4,62 L-2,61 L-7,55 L-7,36 L-6,33 L-6,26 L-7,22 L-7,7 L-2,1 Z " fill="#000000" transform="translate(289,560)"/>
<path d="M0,0 L6,0 L10,5 L10,19 L12,27 L11,37 L10,40 L10,47 L12,53 L11,60 L8,62 L1,61 L-6,47 L-6,38 L-4,31 L-5,18 L-5,8 L-1,1 Z " fill="#000000" transform="translate(310,561)"/>
<path d="M0,0 L7,0 L12,3 L20,25 L27,43 L32,56 L39,76 L37,81 L32,82 L27,77 L22,64 L19,59 L13,57 L-10,57 L-14,62 L-20,78 L-23,80 L-30,80 L-33,78 L-32,73 L-25,58 L-19,42 L-15,32 L-10,21 L-4,3 Z M2,21 L-1,26 L-6,38 L-6,44 L-5,46 L6,48 L11,46 L13,44 L12,35 L8,24 L5,21 Z " fill="#000000" transform="translate(144,1112)"/>
<path d="M0,0 L6,0 L11,3 L14,8 L19,25 L23,33 L27,46 L36,68 L37,78 L35,81 L29,81 L25,76 L20,61 L17,58 L9,57 L-10,57 L-14,61 L-21,78 L-23,80 L-30,80 L-32,78 L-31,70 L-24,53 L-20,45 L-12,25 L-9,16 L-6,7 L-2,1 Z M0,22 L-5,34 L-7,39 L-6,45 L-3,47 L11,46 L12,45 L12,37 L7,25 L4,22 Z " fill="#000000" transform="translate(223,1112)"/>
<path d="M0,0 L35,0 L45,4 L52,10 L54,16 L54,26 L51,32 L50,33 L50,39 L56,46 L58,51 L58,60 L54,69 L49,74 L42,78 L32,78 L27,77 L24,78 L-1,79 L-4,76 L-5,67 L-4,43 L-4,19 L-3,4 Z M11,9 L7,13 L7,27 L10,32 L12,34 L33,34 L41,30 L44,24 L44,17 L39,11 L34,9 Z M15,41 L10,43 L8,45 L7,49 L7,62 L10,68 L24,69 L38,69 L44,64 L46,61 L46,50 L42,45 L35,42 Z " fill="#000000" transform="translate(44,1113)"/>
</svg>
