<?xml version="1.0" encoding="UTF-8"?>
<!-- Generator: visioncortex VTracer 0.6.12 -->
<svg version="1.1" xmlns="http://www.w3.org/2000/svg" width="1122" height="1230">
<path d="M0,0 L152,1 L168,0 L181,0 L186,3 L188,8 L187,53 L187,351 L188,392 L188,421 L189,496 L189,737 L188,747 L188,806 L189,816 L188,830 L188,863 L189,881 L189,1001 L186,1009 L183,1012 L154,1014 L131,1013 L129,1014 L48,1014 L34,1013 L-22,1014 L-74,1014 L-98,1015 L-128,1014 L-387,1014 L-418,1015 L-470,1015 L-478,1014 L-524,1015 L-668,1015 L-702,1016 L-806,1016 L-842,1017 L-848,1018 L-858,1018 L-862,1014 L-862,923 L-863,907 L-863,884 L-864,827 L-863,740 L-863,407 L-864,311 L-864,290 L-863,278 L-864,275 L-864,50 L-863,44 L-864,40 L-864,15 L-861,9 L-856,7 L-822,6 L-763,6 L-714,5 L-678,5 L-664,4 L-614,4 L-481,3 L-353,3 L-326,2 L-128,2 L-80,1 L-15,1 Z M-414,8 L-414,11 L-412,10 L-412,8 Z M-6,13 L-48,14 L-96,14 L-107,15 L-127,15 L-155,14 L-304,14 L-367,15 L-499,15 L-648,16 L-737,16 L-743,17 L-797,17 L-830,18 L-847,18 L-852,22 L-853,25 L-853,211 L-854,275 L-853,287 L-852,522 L-852,739 L-853,825 L-853,871 L-851,1001 L-848,1006 L-817,1007 L-707,1006 L-619,1005 L-553,1005 L-546,1004 L-542,1005 L-527,1005 L-505,1004 L-357,1004 L-272,1003 L-145,1003 L-115,1004 L-93,1003 L144,1003 L171,1002 L177,999 L178,989 L178,880 L177,775 L177,470 L176,372 L176,237 L175,218 L176,148 L176,81 L177,62 L175,22 L173,16 L170,13 Z " fill="#000000" transform="translate(900,35)"/>
<path d="M0,0 L5,1 L5,3 L1,4 Z " fill="#000000" transform="translate(780,60)"/>
<path d="M0,0 L36,0 L67,1 L89,3 L124,9 L137,12 L153,15 L162,19 L175,23 L186,27 L214,38 L229,46 L245,54 L257,60 L265,65 L277,72 L289,80 L304,91 L311,97 L322,105 L338,120 L345,126 L350,131 L358,139 L362,145 L374,157 L378,163 L389,176 L398,188 L405,198 L414,212 L420,222 L427,233 L435,249 L443,266 L452,287 L455,294 L458,303 L461,312 L463,320 L470,343 L476,374 L479,394 L482,430 L482,472 L479,501 L475,520 L473,537 L466,565 L462,576 L460,584 L449,615 L445,624 L434,647 L426,660 L423,665 L417,676 L411,685 L407,692 L397,706 L390,716 L381,727 L372,738 L360,750 L353,759 L342,770 L336,774 L331,779 L321,788 L315,792 L305,800 L290,810 L281,816 L270,823 L264,827 L252,834 L247,838 L235,843 L219,851 L207,856 L188,863 L167,870 L154,874 L141,877 L126,881 L105,885 L81,888 L68,890 L44,891 L9,891 L-11,890 L-16,889 L-48,886 L-61,883 L-75,881 L-90,876 L-99,874 L-109,871 L-126,865 L-135,861 L-152,854 L-161,850 L-177,842 L-193,834 L-206,826 L-216,820 L-227,813 L-239,805 L-252,794 L-263,786 L-273,777 L-283,769 L-288,764 L-296,753 L-306,743 L-313,735 L-323,724 L-329,715 L-339,702 L-347,691 L-357,675 L-363,663 L-370,651 L-374,641 L-382,625 L-388,610 L-392,600 L-400,578 L-402,569 L-406,556 L-408,548 L-410,538 L-412,531 L-416,502 L-418,488 L-420,439 L-417,397 L-416,393 L-415,379 L-412,368 L-409,349 L-407,344 L-405,334 L-397,306 L-392,294 L-387,280 L-383,272 L-378,260 L-374,253 L-371,246 L-363,230 L-354,214 L-350,209 L-344,200 L-336,188 L-329,179 L-320,169 L-314,160 L-306,152 L-297,141 L-290,134 L-282,124 L-274,118 L-257,102 L-249,96 L-240,88 L-231,82 L-215,71 L-210,69 L-210,67 L-187,55 L-180,50 L-162,42 L-147,35 L-125,26 L-118,23 L-104,19 L-81,13 L-77,11 L-67,9 L-44,5 L-32,4 L-29,3 L-8,1 Z M-3,110 L-8,112 L-17,112 L-40,116 L-55,120 L-75,126 L-92,132 L-107,138 L-123,146 L-135,152 L-146,159 L-156,166 L-158,168 L-158,174 L-152,181 L-147,186 L-142,191 L-127,206 L-119,213 L-114,218 L-79,253 L-74,259 L-69,264 L-63,269 L-59,274 L-51,281 L-42,290 L-37,295 L-26,306 L-18,313 L-8,323 L-2,324 L3,312 L10,297 L16,287 L24,277 L31,270 L37,261 L41,256 L44,249 L45,238 L43,225 L36,214 L30,207 L20,200 L15,197 L-7,195 L-18,198 L-26,205 L-28,209 L-28,220 L-22,229 L-17,233 L-11,238 L-12,245 L-17,246 L-27,241 L-32,235 L-36,227 L-38,220 L-38,213 L-36,204 L-28,193 L-24,189 L-18,186 L0,182 L10,183 L20,186 L30,192 L36,196 L43,204 L49,213 L53,223 L56,235 L56,244 L54,254 L49,264 L43,275 L35,285 L23,301 L17,315 L15,333 L15,343 L23,353 L35,365 L43,372 L53,382 L58,387 L73,403 L91,421 L99,427 L106,426 L114,419 L122,411 L129,405 L134,400 L142,392 L150,385 L159,375 L167,368 L180,356 L188,348 L194,344 L198,340 L203,341 L213,349 L233,369 L241,376 L247,383 L248,391 L241,400 L233,407 L228,412 L213,426 L201,437 L194,445 L189,450 L166,473 L161,478 L158,483 L160,488 L171,500 L180,509 L188,516 L196,525 L203,531 L208,536 L220,549 L225,553 L229,558 L237,565 L250,577 L273,600 L281,607 L308,634 L313,635 L318,630 L323,624 L329,613 L339,596 L343,588 L347,580 L352,567 L356,557 L359,548 L360,538 L365,523 L366,512 L368,505 L369,493 L371,487 L372,469 L372,430 L371,411 L369,400 L367,385 L365,373 L361,360 L358,345 L351,328 L346,313 L338,297 L329,280 L321,267 L318,261 L311,253 L301,239 L292,229 L288,223 L275,210 L270,205 L262,197 L254,191 L245,183 L236,177 L225,169 L216,163 L201,154 L181,143 L165,135 L140,127 L130,124 L112,119 L102,117 L100,116 L78,113 L69,111 L56,110 Z M-243,245 L-249,252 L-261,268 L-271,285 L-276,295 L-280,302 L-285,315 L-289,324 L-292,336 L-298,351 L-303,370 L-306,386 L-310,412 L-311,432 L-311,472 L-307,499 L-303,522 L-299,535 L-297,545 L-295,551 L-292,561 L-287,574 L-282,588 L-272,607 L-268,614 L-259,630 L-251,641 L-244,650 L-236,661 L-226,673 L-220,680 L-212,687 L-205,694 L-200,699 L-191,707 L-183,713 L-169,723 L-156,732 L-137,743 L-119,753 L-111,757 L-101,760 L-85,767 L-67,772 L-52,776 L-45,778 L-17,782 L-16,783 L19,785 L40,785 L57,784 L78,782 L80,781 L100,778 L129,771 L135,768 L152,763 L167,757 L178,753 L188,747 L204,739 L219,729 L228,723 L235,716 L234,711 L227,703 L222,697 L217,694 L213,688 L208,683 L197,672 L192,667 L168,643 L166,643 L164,639 L156,632 L147,622 L142,617 L129,605 L124,599 L116,592 L108,584 L100,577 L94,570 L83,561 L76,560 L65,570 L60,579 L60,581 L51,584 L39,595 L31,602 L22,611 L14,618 L-5,637 L-8,639 L-8,641 L-12,643 L-19,650 L-24,656 L-34,664 L-39,665 L-43,663 L-49,654 L-54,651 L-59,646 L-64,641 L-75,629 L-81,625 L-84,621 L-84,612 L-76,605 L-72,599 L-64,592 L-57,585 L-55,580 L-56,568 L-58,552 L-58,532 L-54,508 L-48,496 L-39,483 L-34,477 L-29,464 L-29,453 L-33,447 L-38,441 L-43,436 L-75,404 L-83,397 L-92,387 L-97,382 L-108,371 L-116,364 L-127,353 L-132,349 L-139,341 L-154,327 L-166,315 L-171,310 L-181,300 L-188,292 L-196,285 L-230,251 L-237,245 Z M200,362 L192,368 L180,380 L172,387 L161,397 L157,402 L149,409 L134,424 L126,431 L118,441 L119,448 L124,454 L132,461 L141,470 L148,470 L156,464 L160,460 L160,458 L164,456 L170,449 L178,442 L185,434 L193,427 L198,422 L206,414 L211,409 L223,398 L228,391 L228,384 L219,374 L213,369 L208,364 L205,362 Z M-12,472 L-16,477 L-22,487 L-32,498 L-37,506 L-40,513 L-43,526 L-43,556 L-40,563 L-35,564 L-25,556 L-14,544 L-6,537 L2,529 L8,524 L15,516 L22,508 L22,501 L18,495 L10,489 L5,483 L-3,476 L-8,472 Z M37,519 L31,523 L23,531 L15,538 L7,546 L-1,553 L-6,559 L-11,564 L-12,570 L-8,576 L6,590 L8,590 L10,594 L13,596 L20,596 L25,590 L33,583 L47,569 L52,565 L57,559 L64,553 L65,551 L65,545 L56,534 L43,521 Z " fill="#000000" transform="translate(529,97)"/>
<path d="M0,0 L16,0 L27,4 L37,12 L41,20 L41,27 L37,29 L31,28 L28,25 L25,19 L20,15 L17,13 L2,13 L-5,17 L-10,23 L-15,35 L-15,44 L-13,56 L-9,64 L0,70 L7,72 L16,71 L21,68 L24,65 L26,65 L29,55 L33,50 L40,50 L43,53 L42,63 L38,70 L27,81 L18,84 L-1,84 L-11,81 L-21,72 L-27,60 L-29,50 L-28,35 L-22,16 L-13,6 L-3,1 Z " fill="#000000" transform="translate(139,1113)"/>
<path d="M0,0 L55,0 L60,4 L60,10 L57,12 L41,12 L36,13 L35,23 L35,50 L34,78 L30,82 L23,82 L21,79 L22,34 L21,25 L16,16 L16,14 L6,13 L-2,12 L-4,9 L-4,3 Z " fill="#000000" transform="translate(40,1115)"/>
</svg>
