<?xml version="1.0" encoding="UTF-8"?>
<!-- Generator: visioncortex VTracer 0.6.12 -->
<svg version="1.1" xmlns="http://www.w3.org/2000/svg" width="1131" height="1128">
<path d="M0,0 L210,0 L209,2 L71,4 L6,5 L0,4 Z " fill="#000000" transform="translate(0,0)"/>
<path d="M0,0 L202,0 L204,10 L207,18 L210,28 L212,31 L216,44 L220,56 L229,82 L242,118 L251,144 L255,157 L260,170 L268,194 L281,230 L293,266 L299,282 L303,295 L308,307 L311,316 L318,336 L322,347 L333,359 L339,367 L344,377 L347,389 L348,401 L348,416 L352,432 L356,442 L360,455 L368,475 L376,498 L380,509 L383,518 L388,534 L395,553 L399,566 L403,577 L410,596 L415,611 L424,638 L433,662 L439,680 L443,690 L447,703 L452,716 L459,736 L466,757 L472,774 L475,782 L479,793 L482,805 L492,834 L495,840 L499,852 L507,876 L514,894 L521,914 L526,928 L527,929 L529,938 L533,946 L538,961 L544,977 L552,1000 L562,1029 L568,1045 L571,1055 L575,1065 L581,1081 L588,1101 L592,1110 L593,1111 L593,1128 L93,1128 L97,1126 L130,1126 L155,1125 L313,1124 L383,1123 L386,1120 L384,1112 L377,1095 L373,1081 L365,1060 L360,1044 L354,1027 L350,1016 L346,1002 L340,986 L335,973 L331,959 L325,943 L315,914 L311,905 L309,897 L305,886 L302,877 L287,833 L283,825 L282,824 L193,824 L189,827 L188,836 L188,995 L185,1003 L181,1005 L174,1004 L170,1001 L169,996 L169,883 L168,808 L166,798 L163,796 L147,796 L145,799 L144,816 L144,999 L141,1004 L138,1005 L97,1006 L71,1005 L67,1000 L66,887 L66,816 L65,769 L65,752 L66,726 L69,721 L71,719 L99,718 L159,718 L200,717 L221,716 L223,713 L223,648 L213,619 L203,590 L199,577 L193,561 L186,540 L179,520 L175,507 L162,470 L156,452 L149,432 L142,412 L126,365 L117,340 L114,330 L104,301 L102,295 L95,274 L92,265 L86,249 L81,235 L78,225 L73,212 L61,176 L54,155 L42,120 L34,96 L28,80 L20,59 L15,42 L11,31 L8,22 L0,4 Z M386,815 L386,818 L390,818 L389,815 Z M462,827 L462,831 L464,830 L463,827 Z M447,933 L447,935 L450,935 L450,933 Z " fill="#000000" transform="translate(538,0)"/>
<path d="M0,0 L6,0 L6,499 L5,499 L4,489 L3,429 L2,117 L1,37 Z " fill="#000000" transform="translate(1125,0)"/>
<path d="M0,0 L15,0 L30,4 L39,9 L49,18 L54,24 L62,40 L65,51 L66,62 L66,72 L64,85 L59,98 L52,109 L44,118 L35,124 L24,129 L19,131 L-4,131 L-20,124 L-31,115 L-40,105 L-47,89 L-51,74 L-51,52 L-48,39 L-42,27 L-36,19 L-29,12 L-15,4 Z " fill="#000000" transform="translate(349,106)"/>
<path d="M0,0 L24,0 L75,1 L92,6 L106,14 L116,22 L127,35 L133,45 L138,58 L142,78 L143,99 L143,136 L144,248 L144,325 L145,351 L145,374 L144,391 L141,396 L139,397 L92,398 L87,396 L84,391 L83,382 L82,338 L81,102 L76,101 L75,102 L74,130 L75,220 L76,258 L76,309 L77,443 L77,464 L78,511 L78,548 L79,608 L80,733 L80,752 L78,759 L75,761 L62,762 L8,763 L4,760 L1,748 L1,682 L0,499 L0,473 L-1,443 L-1,408 L-2,403 L-5,403 L-6,405 L-6,470 L-5,526 L-5,759 L-12,763 L-75,763 L-80,760 L-82,756 L-83,748 L-84,642 L-84,616 L-85,520 L-86,459 L-87,311 L-87,247 L-88,177 L-88,138 L-89,101 L-93,102 L-94,104 L-94,210 L-93,293 L-93,316 L-92,337 L-92,386 L-95,396 L-97,398 L-104,399 L-146,399 L-152,395 L-153,389 L-154,362 L-154,307 L-155,279 L-156,96 L-155,78 L-151,60 L-146,48 L-140,38 L-131,27 L-123,20 L-115,14 L-102,7 L-93,4 L-79,1 Z M-103,105 L-104,111 L-103,114 L-100,113 L-100,106 Z M53,227 L54,230 L54,227 Z " fill="#000000" transform="translate(365,248)"/>
<path d="M0,0 Z " fill="#000000" transform="translate(1130,505)"/>
<path d="M0,0 L1,0 L1,5 L0,5 Z " fill="#000000" transform="translate(1130,523)"/>
<path d="M0,0 L1,4 L-1,3 Z " fill="#000000" transform="translate(1130,535)"/>
<path d="M0,0 L1,0 L2,7 L3,66 L3,191 L0,191 Z " fill="#000000" transform="translate(0,937)"/>
<path d="M0,0 L7,1 L8,3 L-3,3 L-3,1 Z " fill="#000000" transform="translate(616,1125)"/>
<path d="M0,0 L4,1 Z " fill="#000000" transform="translate(604,1127)"/>
</svg>
