<?xml version="1.0" encoding="UTF-8"?>
<!-- Generator: visioncortex VTracer 0.6.12 -->
<svg version="1.1" xmlns="http://www.w3.org/2000/svg" width="1104" height="1275">
<path d="M0,0 L4,0 L5,4 L1,5 Z " fill="#000000" transform="translate(559,37)"/>
<path d="M0,0 L239,0 L245,1 L306,1 L324,0 L328,4 L329,12 L329,94 L328,227 L328,296 L327,333 L327,467 L328,585 L328,640 L327,682 L327,931 L326,1003 L322,1008 L316,1009 L248,1009 L236,1008 L226,1009 L83,1009 L60,1008 L43,1008 L38,1007 L18,1009 L15,1012 L13,1015 L8,1015 L5,1010 L4,1004 L1,1004 L1,1011 L-3,1012 L-5,1008 L-30,1008 L-53,1009 L-188,1009 L-195,1008 L-211,1009 L-509,1009 L-589,1010 L-604,1009 L-618,1009 L-624,1008 L-626,1009 L-698,1009 L-703,1005 L-704,882 L-703,672 L-703,638 L-702,501 L-702,303 L-701,95 L-701,10 L-699,5 L-693,2 L-622,1 L-580,1 L-568,2 L-559,1 L-35,1 Z M-240,182 L-260,185 L-272,188 L-279,191 L-291,194 L-308,200 L-336,210 L-349,217 L-366,226 L-378,234 L-385,238 L-394,246 L-405,254 L-415,262 L-428,274 L-439,286 L-452,301 L-457,307 L-462,312 L-470,323 L-480,339 L-487,350 L-491,357 L-495,366 L-501,378 L-506,390 L-512,406 L-518,427 L-522,443 L-526,466 L-527,483 L-528,487 L-529,506 L-529,525 L-526,557 L-522,582 L-520,588 L-517,604 L-514,614 L-506,637 L-503,642 L-498,655 L-493,667 L-485,682 L-476,697 L-470,705 L-465,710 L-461,711 L-455,708 L-450,703 L-443,696 L-437,689 L-432,684 L-415,667 L-409,662 L-400,651 L-390,641 L-384,633 L-384,628 L-391,626 L-410,626 L-418,624 L-422,620 L-427,610 L-432,611 L-432,622 L-434,624 L-441,624 L-447,619 L-449,609 L-447,599 L-448,586 L-450,582 L-451,575 L-455,574 L-457,577 L-455,587 L-455,598 L-457,604 L-457,614 L-455,618 L-456,623 L-457,624 L-465,624 L-470,620 L-472,614 L-471,594 L-473,588 L-473,580 L-471,569 L-471,560 L-472,544 L-470,537 L-468,534 L-461,533 L-458,534 L-457,540 L-457,552 L-453,560 L-451,564 L-449,564 L-449,554 L-450,546 L-447,537 L-444,534 L-437,533 L-433,536 L-433,551 L-430,558 L-427,559 L-426,556 L-427,543 L-422,535 L-417,533 L-341,533 L-291,532 L-283,530 L-273,521 L-263,512 L-255,505 L-244,493 L-239,487 L-231,480 L-219,467 L-211,460 L-206,455 L-196,444 L-188,437 L-181,430 L-179,426 L-173,422 L-165,412 L-154,401 L-154,399 L-150,397 L-139,385 L-127,373 L-122,368 L-117,364 L-113,360 L-113,358 L-109,356 L-109,354 L-107,354 L-102,349 L-88,334 L-68,314 L-61,306 L-52,298 L-45,289 L-40,285 L-35,280 L-27,271 L-22,266 L-12,256 L-7,249 L-6,243 L-13,235 L-18,231 L-30,224 L-36,221 L-41,217 L-72,206 L-81,203 L-95,197 L-101,194 L-113,191 L-123,187 L-136,184 L-150,184 L-160,186 L-166,186 L-169,184 L-195,183 L-207,182 L-212,183 L-227,183 Z M70,323 L63,329 L58,335 L50,341 L45,347 L37,354 L30,362 L22,369 L10,382 L2,391 L-3,396 L-15,408 L-23,415 L-38,431 L-45,438 L-50,443 L-64,457 L-71,465 L-78,471 L-85,479 L-93,487 L-98,491 L-99,495 L-103,497 L-108,503 L-116,510 L-124,520 L-127,524 L-127,529 L-123,532 L-53,533 L-11,532 L20,533 L50,533 L80,534 L91,535 L95,537 L96,540 L97,553 L97,612 L94,623 L93,624 L85,625 L-32,625 L-75,624 L-109,624 L-197,625 L-215,625 L-226,626 L-234,631 L-247,644 L-252,648 L-259,656 L-265,661 L-270,666 L-286,683 L-292,690 L-300,697 L-325,722 L-332,730 L-343,741 L-349,748 L-354,753 L-363,762 L-368,767 L-377,777 L-384,785 L-385,790 L-381,796 L-376,800 L-365,807 L-343,819 L-335,823 L-321,829 L-311,833 L-291,840 L-282,843 L-268,846 L-255,849 L-239,851 L-226,853 L-203,855 L-171,854 L-153,852 L-137,850 L-130,848 L-121,847 L-116,845 L-99,841 L-85,837 L-72,832 L-55,825 L-48,821 L-40,819 L-37,816 L-22,808 L-12,801 L1,792 L11,784 L17,780 L22,775 L35,764 L42,756 L53,746 L61,736 L68,727 L75,718 L79,714 L83,707 L93,692 L101,676 L113,649 L119,632 L124,617 L129,599 L132,585 L133,573 L135,562 L135,554 L137,537 L137,515 L136,490 L133,465 L130,449 L125,427 L118,406 L114,393 L105,376 L100,363 L93,348 L81,330 L74,323 Z M-614,487 L-614,492 L-610,492 L-610,487 Z M-432,579 L-432,582 L-428,582 L-428,579 Z " fill="#000000" transform="translate(742,86)"/>
<path d="M0,0 L5,1 L8,5 L13,16 L18,31 L21,43 L23,60 L23,75 L21,93 L15,118 L10,130 L4,141 L-2,152 L-11,163 L-22,176 L-32,185 L-42,193 L-63,203 L-68,206 L-87,211 L-107,215 L-122,217 L-129,220 L-139,225 L-144,228 L-155,237 L-163,248 L-170,258 L-176,274 L-178,284 L-178,319 L-182,323 L-188,323 L-194,319 L-198,318 L-204,322 L-212,322 L-216,319 L-219,307 L-222,306 L-224,317 L-229,322 L-235,321 L-240,316 L-241,308 L-241,281 L-237,258 L-232,243 L-226,230 L-221,221 L-214,210 L-203,197 L-187,182 L-180,176 L-173,172 L-163,166 L-148,160 L-135,155 L-123,153 L-110,151 L-101,149 L-89,144 L-81,140 L-68,130 L-61,124 L-52,111 L-46,99 L-42,80 L-41,68 L-42,51 L-46,38 L-52,26 L-53,20 L-49,15 L-42,14 L-36,18 L-32,19 L-32,12 L-27,7 L-23,5 L-17,6 L-11,13 L-5,25 L-3,29 L-1,36 L2,35 L1,30 L-2,25 L-5,14 L-6,12 L-6,4 L-3,1 Z M-165,188 L-172,192 L-180,199 L-180,202 L-175,201 L-165,194 L-161,190 L-161,188 Z M-186,206 L-193,212 L-199,222 L-199,224 L-195,222 L-190,217 L-185,211 L-184,206 Z M-201,226 L-207,231 L-215,247 L-216,252 L-212,253 L-206,242 L-200,230 Z M-221,275 Z M-221,277 L-223,281 L-223,288 L-222,290 L-219,289 L-219,278 Z " fill="#000000" transform="translate(486,291)"/>
<path d="M0,0 L5,1 L8,4 L10,22 L12,27 L12,41 L10,46 L10,52 L12,56 L12,70 L10,74 L10,90 L7,93 L1,93 L-3,89 L-5,84 L-5,63 L-7,53 L-7,45 L-4,34 L-6,23 L-7,19 L-7,9 L-3,2 Z " fill="#000000" transform="translate(252,618)"/>
<path d="M0,0 L18,0 L31,7 L37,14 L37,25 L35,27 L30,27 L22,16 L12,12 L2,13 L-6,17 L-11,22 L-15,32 L-16,36 L-16,48 L-12,61 L-9,66 L0,71 L14,71 L23,66 L28,58 L31,51 L40,51 L41,58 L36,68 L31,76 L25,81 L15,84 L0,84 L-14,78 L-20,73 L-25,65 L-29,50 L-29,38 L-26,23 L-19,12 L-9,3 Z " fill="#000000" transform="translate(230,1158)"/>
<path d="M0,0 L6,1 L9,5 L12,14 L16,24 L21,39 L27,54 L32,70 L34,75 L33,80 L32,81 L25,81 L22,76 L17,62 L12,58 L9,57 L-13,57 L-18,59 L-21,70 L-26,79 L-28,81 L-34,80 L-36,78 L-35,72 L-27,54 L-25,51 L-22,42 L-16,28 L-10,12 L-5,2 Z M-2,21 L-5,24 L-8,34 L-10,39 L-10,45 L-8,47 L8,47 L10,45 L9,36 L5,27 L2,21 Z " fill="#000000" transform="translate(72,1159)"/>
<path d="M0,0 L15,1 L30,1 L41,3 L50,9 L54,13 L58,21 L61,36 L61,44 L57,62 L53,68 L45,77 L36,81 L-3,82 L-6,79 L-7,55 L-6,18 L-5,3 Z M15,11 L8,14 L6,19 L5,25 L5,67 L9,70 L18,71 L30,71 L38,66 L44,59 L46,56 L48,48 L48,33 L45,22 L37,14 L35,13 Z " fill="#000000" transform="translate(128,1159)"/>
<path d="M0,0 L7,1 L10,5 L17,25 L24,45 L29,57 L33,67 L36,78 L33,82 L25,82 L22,80 L20,69 L16,61 L13,58 L-14,58 L-18,62 L-24,79 L-26,81 L-34,81 L-36,79 L-35,72 L-32,67 L-29,58 L-25,50 L-20,36 L-13,18 L-8,5 L-3,1 Z M-1,22 L-6,30 L-9,39 L-8,46 L-6,47 L6,47 L9,45 L9,38 L3,23 Z " fill="#000000" transform="translate(315,1161)"/>
</svg>
