<?xml version="1.0" encoding="UTF-8"?>
<!-- Generator: visioncortex VTracer 0.6.12 -->
<svg version="1.1" xmlns="http://www.w3.org/2000/svg" width="1146" height="1110">
<path d="M0,0 L4,0 L3,5 L1,11 L0,11 Z " fill="#000000" transform="translate(0,0)"/>
<path d="M0,0 L10,0 L6,2 L1,2 Z " fill="#000000" transform="translate(511,0)"/>
<path d="M0,0 L3,1 Z " fill="#000000" transform="translate(527,0)"/>
<path d="M0,0 L6,0 L6,138 L4,136 L4,102 L3,88 L3,23 L2,6 Z " fill="#000000" transform="translate(1140,0)"/>
<path d="M0,0 L56,0 L62,5 L64,11 L66,23 L70,35 L81,56 L92,68 L101,78 L111,92 L117,102 L121,108 L130,127 L133,136 L139,157 L142,188 L142,252 L139,260 L133,262 L117,262 L99,263 L93,262 L69,263 L-10,263 L-16,265 L-40,265 L-45,269 L-46,271 L-47,290 L-47,346 L-46,365 L-46,439 L-33,439 L-31,442 L-21,440 L-11,440 L-9,442 L-4,441 L-1,439 L4,440 L8,441 L14,440 L15,441 L15,448 L14,449 L9,449 L7,447 L3,448 L0,450 L-6,450 L-9,447 L-14,449 L-15,450 L-20,450 L-23,447 L-30,448 L-33,450 L-91,450 L-96,449 L-98,450 L-134,450 L-136,445 L-134,442 L-134,428 L-135,411 L-136,371 L-137,355 L-137,328 L-138,277 L-141,269 L-142,268 L-149,268 L-152,271 L-153,274 L-154,299 L-153,344 L-152,364 L-152,421 L-151,435 L-149,439 L-141,440 L-139,444 L-142,449 L-148,450 L-168,450 L-192,449 L-198,450 L-235,450 L-240,449 L-247,449 L-249,450 L-275,450 L-351,451 L-360,449 L-363,450 L-377,450 L-392,451 L-412,451 L-431,450 L-436,449 L-442,450 L-509,450 L-514,449 L-516,450 L-523,450 L-528,448 L-535,448 L-538,450 L-555,450 L-582,449 L-609,449 L-625,448 L-637,448 L-643,449 L-645,448 L-671,448 L-709,450 L-714,450 L-719,449 L-722,449 L-722,438 L-714,438 L-712,439 L-691,439 L-687,437 L-681,438 L-664,438 L-661,437 L-594,437 L-573,436 L-565,435 L-561,436 L-543,436 L-541,435 L-533,435 L-529,436 L-513,436 L-500,435 L-494,436 L-487,435 L-482,436 L-477,433 L-457,434 L-456,389 L-456,360 L-457,287 L-457,240 L-456,182 L-454,169 L-450,159 L-441,149 L-432,143 L-423,138 L-406,138 L-394,143 L-388,147 L-379,156 L-371,170 L-368,182 L-367,199 L-365,371 L-364,437 L-355,442 L-351,442 L-350,431 L-351,413 L-351,359 L-352,347 L-352,278 L-353,222 L-353,188 L-352,153 L-352,131 L-350,117 L-343,100 L-338,94 L-329,87 L-320,84 L-310,82 L-297,83 L-285,89 L-270,104 L-267,108 L-262,126 L-262,159 L-261,190 L-261,222 L-260,273 L-259,324 L-257,347 L-257,360 L-258,379 L-257,395 L-257,439 L-248,438 L-246,440 L-242,440 L-242,417 L-243,385 L-243,309 L-244,272 L-245,246 L-245,71 L-242,50 L-236,40 L-228,32 L-214,24 L-205,22 L-195,22 L-176,30 L-166,39 L-160,49 L-157,59 L-155,78 L-154,147 L-154,162 L-152,180 L-148,184 L-141,182 L-138,173 L-138,157 L-139,147 L-139,138 L-136,118 L-133,111 L-130,105 L-118,91 L-112,87 L-104,83 L-88,83 L-73,89 L-65,97 L-58,106 L-53,116 L-50,130 L-50,150 L-49,160 L-48,180 L-44,185 L-40,187 L-13,187 L7,186 L9,187 L57,187 L64,184 L66,180 L66,170 L64,160 L59,148 L51,134 L42,124 L35,116 L30,109 L25,104 L18,93 L9,77 L2,63 L-4,45 L-7,32 L-9,19 L-9,8 L-6,2 Z M11,14 L10,15 L10,26 L13,43 L20,59 L27,73 L32,83 L43,97 L54,109 L64,122 L68,129 L74,138 L81,157 L85,173 L88,177 L92,176 L93,175 L93,167 L90,155 L84,136 L74,119 L70,114 L64,105 L55,98 L44,84 L35,70 L31,62 L27,50 L23,40 L16,15 Z M39,14 L37,16 L38,26 L43,43 L50,59 L56,69 L64,80 L72,90 L77,95 L81,100 L89,111 L96,121 L101,133 L105,143 L109,156 L112,172 L116,180 L121,179 L122,177 L122,163 L120,153 L116,140 L114,132 L104,114 L96,100 L86,87 L84,87 L82,83 L77,76 L69,69 L65,64 L59,53 L53,41 L48,26 L44,16 L43,14 Z M-194,207 L-214,208 L-220,212 L-223,217 L-223,233 L-220,240 L-215,243 L-201,245 L-156,244 L-145,243 L-140,239 L-137,231 L-137,217 L-142,210 L-152,207 Z M26,206 L-2,207 L-9,208 L-12,207 L-39,207 L-45,211 L-49,221 L-49,229 L-47,238 L-40,243 L-22,244 L35,244 L60,243 L65,240 L69,232 L69,221 L67,212 L59,207 Z M117,215 L115,218 L115,230 L118,235 L122,234 L124,230 L124,221 L122,216 Z M90,218 L88,220 L89,227 L93,227 L94,225 L94,219 Z " fill="#000000" transform="translate(722,18)"/>
<path d="M0,0 L1,0 L1,16 L0,16 L-1,4 Z " fill="#000000" transform="translate(1145,143)"/>
<path d="M0,0 L1,0 L1,74 L-1,73 L-2,64 L-2,47 L-1,18 L-1,4 Z " fill="#000000" transform="translate(1145,160)"/>
<path d="M0,0 L4,1 L3,5 L-1,4 Z " fill="#000000" transform="translate(239,225)"/>
<path d="M0,0 L1,0 L1,544 L0,544 L-1,539 L-1,410 L-2,384 L-3,381 L-7,379 L-6,374 L-2,367 L-1,360 L-2,352 L-2,213 L-1,206 L-2,167 L-2,14 L-1,1 Z " fill="#000000" transform="translate(1145,244)"/>
<path d="M0,0 L10,1 L38,9 L50,15 L58,21 L60,26 L59,33 L53,41 L43,51 L35,61 L26,68 L22,74 L16,80 L16,84 L23,87 L33,87 L36,85 L43,85 L48,87 L55,88 L57,92 L54,96 L46,95 L38,96 L31,95 L27,94 L24,96 L7,97 L3,96 L-19,96 L-24,97 L-32,96 L-35,97 L-51,96 L-63,97 L-128,97 L-133,94 L-138,93 L-145,96 L-161,97 L-163,96 L-162,91 L-157,86 L-147,86 L-146,87 L-131,88 L-124,79 L-113,70 L-96,53 L-89,45 L-84,40 L-77,33 L-75,33 L-75,31 L-64,22 L-57,16 L-40,9 L-29,4 L-18,2 L-4,1 Z " fill="#000000" transform="translate(905,371)"/>
<path d="M0,0 L21,0 L26,4 L25,8 L20,11 L14,10 L-3,10 L-5,8 L-13,9 L-12,4 L-7,1 Z " fill="#000000" transform="translate(979,457)"/>
<path d="M0,0 L4,1 L6,4 L5,9 L3,11 L-13,11 L-16,10 L-23,10 L-31,12 L-36,11 L-37,7 L-33,1 L-26,1 L-22,2 L-10,2 L-7,4 L-3,3 Z " fill="#000000" transform="translate(1045,456)"/>
<path d="M0,0 L5,0 L7,4 L7,9 L1,11 L-4,10 L-3,4 Z " fill="#000000" transform="translate(1086,457)"/>
<path d="M0,0 L4,1 L6,6 L-4,10 L-9,7 L-9,4 Z " fill="#000000" transform="translate(1062,458)"/>
<path d="M0,0 L6,0 L8,5 L4,10 L-3,9 L-4,4 Z " fill="#000000" transform="translate(1126,458)"/>
<path d="M0,0 L5,0 L11,2 L12,5 L7,9 L1,10 L-2,9 Z " fill="#000000" transform="translate(1104,459)"/>
<path d="M0,0 L2,1 L1,7 L-4,8 L-5,4 Z " fill="#000000" transform="translate(1075,460)"/>
<path d="M0,0 L13,1 L63,2 L77,1 L88,1 L94,3 L97,1 L109,1 L113,2 L131,2 L146,1 L151,4 L152,8 L147,12 L127,11 L123,10 L120,12 L115,11 L114,9 L110,10 L108,12 L89,11 L79,11 L76,12 L68,12 L66,10 L58,10 L57,11 L42,12 L35,13 L24,12 L21,10 L15,11 L1,12 L-3,9 L-3,3 Z " fill="#000000" transform="translate(948,612)"/>
<path d="M0,0 L12,1 L28,0 L33,1 L55,1 L70,0 L78,1 L109,2 L131,2 L152,1 L179,1 L193,2 L206,1 L216,1 L228,2 L246,1 L269,1 L276,0 L279,1 L305,1 L324,0 L353,1 L360,2 L376,2 L382,3 L392,2 L453,2 L471,1 L494,1 L511,2 L513,1 L523,1 L527,3 L537,3 L548,4 L553,1 L653,1 L658,3 L668,2 L707,1 L736,1 L742,4 L752,1 L770,2 L775,3 L777,2 L803,2 L816,1 L832,1 L845,2 L855,1 L866,0 L870,1 L884,1 L888,0 L903,0 L907,4 L906,9 L900,11 L881,12 L872,11 L854,11 L852,12 L844,12 L839,10 L833,11 L832,12 L803,12 L800,9 L793,11 L784,11 L777,12 L774,11 L757,12 L751,13 L745,10 L740,11 L738,12 L728,13 L713,29 L709,34 L701,41 L693,51 L684,61 L677,72 L667,89 L658,108 L651,132 L649,141 L648,151 L649,282 L649,459 L651,464 L651,474 L647,476 L473,476 L470,475 L437,475 L431,474 L385,473 L327,471 L323,466 L319,450 L319,294 L318,254 L316,241 L309,215 L300,194 L288,174 L279,163 L270,154 L266,148 L266,146 L262,144 L252,130 L247,121 L242,107 L236,89 L234,78 L234,39 L233,12 L196,12 L187,11 L185,12 L139,12 L135,11 L128,13 L125,10 L107,12 L77,12 L66,13 L50,12 L33,12 L31,13 L21,13 L11,12 L-16,12 L-19,10 L-20,7 L-22,6 L-22,3 L-20,2 Z " fill="#000000" transform="translate(33,612)"/>
<path d="M0,0 L4,1 L8,4 L8,9 L6,11 L-1,11 L-2,8 L-2,2 Z " fill="#000000" transform="translate(1120,613)"/>
<path d="M0,0 L4,1 L8,5 L7,8 L1,9 L-1,7 L-1,1 Z " fill="#000000" transform="translate(1107,614)"/>
<path d="M0,0 L1,0 L1,13 L-1,11 L-1,1 Z " fill="#000000" transform="translate(1145,800)"/>
<path d="M0,0 L1,0 L1,9 L-1,7 Z " fill="#000000" transform="translate(1145,816)"/>
<path d="M0,0 L1,0 L1,7 L-1,5 Z " fill="#000000" transform="translate(1145,835)"/>
<path d="M0,0 L1,0 L1,12 L-1,9 Z " fill="#000000" transform="translate(1145,852)"/>
<path d="M0,0 L1,0 L1,10 L0,10 L-1,1 Z " fill="#000000" transform="translate(1145,870)"/>
<path d="M0,0 L1,0 L1,13 L-1,10 Z " fill="#000000" transform="translate(1145,895)"/>
<path d="M0,0 L3,1 L0,2 Z " fill="#000000" transform="translate(129,912)"/>
<path d="M0,0 L1,0 L1,10 L-1,9 L-1,2 Z " fill="#000000" transform="translate(1145,928)"/>
<path d="M0,0 L1,0 L1,8 L-1,7 Z " fill="#000000" transform="translate(1145,945)"/>
<path d="M0,0 Z " fill="#000000" transform="translate(1145,966)"/>
<path d="M0,0 L1,0 L1,6 L-1,5 Z " fill="#000000" transform="translate(1145,993)"/>
<path d="M0,0 L1,4 Z " fill="#000000" transform="translate(1145,1005)"/>
<path d="M0,0 L1,0 L1,29 L0,29 L-1,6 Z " fill="#000000" transform="translate(1145,1025)"/>
<path d="M0,0 L2,0 L1,3 L-1,1 Z " fill="#000000" transform="translate(901,1038)"/>
<path d="M0,0 L1,0 L1,9 L-1,6 L-1,1 Z " fill="#000000" transform="translate(1145,1062)"/>
<path d="M0,0 L1,0 L1,31 L-4,31 L-2,19 L-1,2 Z " fill="#000000" transform="translate(1145,1079)"/>
<path d="M0,0 L3,1 L4,3 L9,4 L28,4 L34,5 L41,4 L64,4 L76,5 L141,5 L142,7 L0,7 Z " fill="#000000" transform="translate(0,1103)"/>
<path d="M0,0 L7,1 L8,3 L-3,3 Z " fill="#000000" transform="translate(153,1107)"/>
<path d="M0,0 L10,1 L12,3 L-4,3 L-3,1 Z " fill="#000000" transform="translate(227,1107)"/>
<path d="M0,0 L23,0 L42,1 L110,1 L111,3 L-4,3 L-3,1 Z " fill="#000000" transform="translate(318,1107)"/>
<path d="M0,0 L9,0 L13,2 L13,3 L-2,3 L-2,1 Z " fill="#000000" transform="translate(631,1107)"/>
<path d="M0,0 L13,0 L15,2 L-1,2 Z " fill="#000000" transform="translate(167,1108)"/>
<path d="M0,0 L9,0 L10,2 L-1,2 Z " fill="#000000" transform="translate(187,1108)"/>
<path d="M0,0 L26,1 L30,3 L-26,3 L-23,1 Z " fill="#000000" transform="translate(267,1107)"/>
<path d="M0,0 L14,0 L15,2 L-10,2 L-10,1 Z " fill="#000000" transform="translate(446,1108)"/>
<path d="M0,0 L18,0 L20,2 L-2,2 Z " fill="#000000" transform="translate(514,1108)"/>
<path d="M0,0 L7,1 L7,2 L-2,2 Z " fill="#000000" transform="translate(612,1108)"/>
<path d="M0,0 L5,0 L5,1 L0,1 Z " fill="#000000" transform="translate(472,1109)"/>
<path d="M0,0 L4,1 Z " fill="#000000" transform="translate(484,1109)"/>
<path d="M0,0 L7,0 L7,1 L0,1 Z " fill="#000000" transform="translate(649,1109)"/>
<path d="M0,0 L5,0 L5,1 L0,1 Z " fill="#000000" transform="translate(673,1109)"/>
</svg>
