<?xml version="1.0" encoding="UTF-8"?>
<!-- Generator: visioncortex VTracer 0.6.12 -->
<svg version="1.1" xmlns="http://www.w3.org/2000/svg" width="1014" height="984">
<path d="M0,0 L1014,0 L1014,984 L0,984 Z M480,150 L477,151 L460,153 L451,155 L438,157 L426,159 L415,163 L403,166 L387,172 L377,176 L364,181 L357,185 L344,190 L334,197 L320,205 L315,209 L309,213 L303,218 L304,224 L308,230 L324,247 L338,261 L343,266 L347,272 L352,277 L359,283 L366,291 L370,296 L378,303 L386,311 L392,318 L397,323 L407,333 L414,341 L425,352 L430,357 L439,366 L443,371 L448,376 L471,399 L478,408 L481,411 L483,411 L485,415 L494,423 L499,428 L508,439 L514,440 L519,437 L527,429 L534,423 L534,421 L538,419 L549,408 L549,406 L553,404 L558,399 L565,391 L576,382 L583,374 L588,369 L599,359 L606,351 L617,340 L622,336 L627,330 L632,325 L638,320 L645,312 L664,293 L668,288 L677,281 L684,273 L692,264 L697,259 L709,248 L716,247 L724,251 L730,258 L738,265 L748,276 L757,290 L756,299 L729,326 L726,329 L719,337 L666,390 L661,396 L653,403 L645,411 L638,419 L631,425 L626,430 L621,436 L613,443 L612,446 L608,448 L588,468 L581,476 L571,485 L567,491 L567,498 L575,507 L582,516 L585,517 L587,521 L600,534 L607,542 L620,555 L627,563 L637,573 L644,581 L650,587 L652,587 L654,591 L662,600 L670,607 L678,616 L685,624 L692,630 L699,638 L708,648 L715,656 L720,661 L736,678 L753,695 L760,703 L765,708 L777,720 L782,725 L783,726 L788,726 L795,719 L803,708 L807,703 L822,680 L828,670 L836,654 L847,629 L852,616 L854,609 L861,584 L864,569 L866,561 L869,541 L870,527 L870,477 L868,460 L864,432 L859,413 L851,387 L843,367 L838,357 L831,341 L825,330 L818,318 L805,299 L797,289 L789,279 L778,266 L758,246 L750,239 L737,228 L728,221 L717,213 L707,205 L692,197 L685,192 L678,189 L669,183 L666,180 L656,179 L644,174 L636,172 L628,168 L613,163 L600,159 L598,158 L577,155 L565,152 L562,151 L556,152 L552,151 L536,150 Z M717,261 L712,265 L705,273 L679,299 L675,304 L667,311 L657,321 L649,328 L642,336 L636,341 L629,349 L616,362 L615,364 L614,373 L609,372 L606,369 L601,369 L589,380 L562,407 L556,412 L547,423 L539,431 L533,436 L526,444 L523,448 L524,454 L526,458 L531,463 L543,474 L547,477 L551,476 L556,471 L567,463 L571,457 L582,447 L587,441 L593,437 L601,427 L607,423 L613,415 L621,408 L630,397 L629,388 L637,385 L645,378 L653,370 L658,364 L664,360 L674,350 L679,344 L686,338 L692,330 L699,324 L706,316 L714,309 L720,302 L725,297 L736,284 L738,281 L737,276 L730,267 L727,264 L725,264 L725,262 L723,261 Z M236,281 L231,285 L217,304 L210,314 L198,334 L192,346 L184,362 L178,377 L169,404 L163,426 L159,447 L156,470 L155,511 L157,542 L160,565 L165,588 L167,593 L169,602 L175,620 L180,634 L184,644 L189,654 L196,668 L203,681 L212,695 L223,711 L233,723 L241,733 L252,746 L257,751 L269,763 L280,772 L291,781 L302,789 L312,796 L323,803 L342,814 L347,817 L365,825 L387,834 L400,838 L404,840 L414,841 L427,846 L437,847 L441,849 L461,852 L486,856 L494,855 L538,855 L566,852 L571,850 L587,848 L602,844 L620,840 L625,837 L638,833 L648,829 L659,825 L678,816 L686,813 L692,808 L709,799 L717,792 L721,788 L720,781 L711,771 L700,759 L696,754 L691,749 L677,735 L670,727 L657,714 L650,706 L642,697 L635,689 L621,675 L619,672 L617,672 L615,668 L610,664 L603,656 L591,644 L584,636 L579,631 L571,623 L564,615 L553,603 L541,590 L536,585 L531,581 L524,573 L516,566 L509,558 L503,556 L496,559 L492,564 L484,571 L478,576 L473,581 L463,592 L458,597 L446,607 L442,612 L442,614 L440,614 L435,619 L431,623 L431,625 L427,627 L416,638 L410,643 L403,651 L397,656 L391,663 L383,670 L369,684 L363,689 L358,694 L350,701 L342,708 L335,716 L324,727 L319,731 L314,737 L305,742 L299,742 L290,737 L281,730 L275,722 L268,715 L263,705 L263,699 L267,693 L272,692 L274,701 L285,713 L291,721 L294,726 L299,728 L302,725 L301,716 L301,705 L305,706 L310,711 L313,709 L314,700 L318,699 L324,700 L331,692 L335,691 L341,691 L342,689 L342,672 L346,671 L350,674 L354,674 L352,670 L342,663 L332,658 L326,649 L319,641 L320,636 L325,631 L330,625 L338,618 L345,611 L352,603 L367,589 L376,581 L381,575 L386,571 L389,567 L389,565 L394,563 L401,555 L406,550 L408,546 L412,544 L428,528 L433,523 L440,516 L447,510 L451,502 L450,497 L443,489 L431,476 L420,465 L415,458 L409,454 L403,446 L395,439 L380,423 L372,414 L367,409 L362,403 L354,396 L342,384 L335,376 L318,359 L313,354 L299,339 L264,304 L259,299 L250,289 L245,284 L241,281 Z M460,510 L452,517 L442,526 L423,545 L418,550 L411,556 L404,564 L393,574 L386,582 L374,593 L348,619 L343,627 L344,634 L346,640 L353,643 L358,654 L361,656 L369,656 L383,648 L387,642 L392,637 L401,627 L406,622 L418,608 L428,601 L437,589 L443,584 L447,579 L455,573 L462,565 L467,560 L473,553 L480,547 L485,539 L485,534 L476,524 L466,513 Z M850,816 L849,819 L852,819 L851,816 Z " fill="#000000" transform="translate(0,0)"/>
<path d="M0,0 L4,1 L8,12 L11,21 L20,40 L23,54 L23,76 L16,97 L9,112 L4,126 L1,139 L-3,148 L-9,158 L-11,164 L-12,174 L-17,179 L-19,178 L-19,165 L-18,162 L-18,143 L-20,125 L-23,111 L-24,101 L-24,92 L-19,71 L-15,61 L-12,52 L-11,49 L-11,26 L-17,19 L-22,14 L-20,11 L-15,12 L-5,17 L-1,22 L-1,37 L-5,56 L-8,69 L-11,90 L-12,147 L-8,146 L-6,135 L-4,115 L-4,97 L0,67 L6,49 L7,47 L7,35 L5,29 L3,20 L1,13 L-1,2 Z M10,73 L7,82 L7,91 L11,91 L13,79 L13,74 Z " fill="#000000" transform="translate(292,462)"/>
<path d="M0,0 L4,0 L3,5 L-1,4 Z " fill="#000000" transform="translate(309,648)"/>
<path d="M0,0 L4,1 L1,10 L0,11 L-5,11 L-6,9 L-3,3 Z " fill="#000000" transform="translate(298,661)"/>
<path d="M0,0 L4,1 L6,3 L6,7 L-1,11 L-5,11 L-6,7 Z " fill="#000000" transform="translate(281,678)"/>
<path d="M0,0 L4,1 L4,9 L0,10 L-2,7 L-2,2 Z " fill="#000000" transform="translate(320,686)"/>
</svg>
