<?xml version="1.0" encoding="UTF-8"?>
<!-- Generator: visioncortex VTracer 0.6.12 -->
<svg version="1.1" xmlns="http://www.w3.org/2000/svg" width="1140" height="1134">
<path d="M0,0 L332,0 L336,1 L349,1 L354,0 L368,1 L501,1 L511,0 L532,0 L535,1 L560,2 L1035,2 L1112,3 L1140,3 L1140,12 L1136,11 L1020,10 L985,11 L978,10 L737,10 L552,9 L500,9 L399,8 L298,8 L203,7 L199,9 L199,16 L205,32 L212,53 L217,68 L227,98 L235,122 L245,151 L249,161 L254,179 L263,206 L272,233 L281,259 L283,267 L300,264 L309,263 L407,263 L451,264 L465,267 L477,271 L485,275 L498,286 L504,293 L509,298 L517,314 L520,323 L523,335 L525,349 L525,619 L524,650 L522,657 L518,660 L469,660 L465,658 L462,650 L462,525 L463,426 L463,371 L461,364 L458,364 L457,366 L456,701 L456,777 L457,787 L462,800 L466,813 L472,831 L478,848 L483,862 L486,871 L491,887 L503,922 L513,950 L519,969 L522,976 L526,989 L536,1018 L543,1037 L548,1052 L557,1079 L561,1087 L564,1096 L566,1105 L570,1115 L573,1124 L574,1127 L574,1134 L369,1134 L363,1117 L359,1104 L355,1093 L346,1066 L340,1048 L334,1030 L332,1024 L300,1023 L294,1019 L293,1016 L292,999 L292,911 L287,888 L282,876 L277,859 L270,839 L266,826 L261,813 L258,804 L256,796 L249,776 L245,763 L237,741 L233,728 L225,704 L216,677 L210,658 L199,626 L195,614 L193,608 L186,587 L178,563 L172,545 L168,535 L163,518 L156,500 L152,486 L144,464 L137,442 L129,418 L122,398 L120,394 L118,386 L110,362 L98,326 L93,313 L88,296 L82,279 L71,246 L61,216 L55,199 L47,173 L41,158 L30,124 L20,95 L16,83 L13,73 L10,72 L9,220 L9,430 L8,560 L8,1130 L9,1134 L0,1134 L0,229 L1,222 L0,221 L0,198 L1,193 L0,191 L0,179 L1,171 L1,50 L0,46 Z M153,398 L150,401 L150,406 L153,406 L156,402 L156,398 Z M344,433 L345,438 L349,439 L349,435 Z M305,689 L304,692 L307,692 L307,689 Z M372,846 L371,851 L375,850 L375,847 Z M366,856 L364,857 L364,861 L369,860 L369,857 Z " fill="#000000" transform="translate(0,0)"/>
<path d="M0,0 L8,1 L17,3 L29,9 L38,16 L47,26 L53,38 L56,49 L57,57 L57,79 L55,89 L47,105 L41,113 L34,120 L25,126 L10,132 L-10,132 L-25,127 L-38,119 L-43,114 L-50,105 L-55,96 L-57,86 L-60,71 L-60,56 L-58,44 L-56,40 L-54,32 L-48,22 L-38,12 L-28,6 L-14,2 Z " fill="#000000" transform="translate(376,120)"/>
<path d="M0,0 L2,0 L2,2 L0,2 Z " fill="#000000" transform="translate(832,222)"/>
<path d="M0,0 L17,0 L26,2 L43,11 L54,22 L61,33 L64,42 L67,56 L67,79 L63,94 L56,108 L51,113 L47,118 L38,124 L24,130 L20,131 L1,131 L-8,130 L-23,122 L-35,112 L-42,101 L-47,89 L-49,77 L-50,74 L-50,58 L-47,42 L-43,33 L-37,23 L-28,13 L-20,7 L-9,2 Z " fill="#000000" transform="translate(836,359)"/>
<path d="M0,0 L26,1 L40,4 L54,11 L63,20 L69,31 L73,43 L74,51 L75,77 L74,244 L74,303 L75,307 L96,309 L100,312 L101,315 L101,456 L100,510 L99,520 L96,524 L87,525 L83,523 L81,519 L82,412 L82,357 L81,348 L78,345 L10,344 L-25,343 L-50,343 L-59,342 L-92,343 L-96,344 L-97,359 L-97,380 L-98,384 L-98,421 L-99,510 L-101,520 L-107,523 L-113,522 L-117,518 L-118,514 L-118,478 L-117,402 L-117,348 L-118,319 L-120,315 L-122,314 L-136,314 L-139,317 L-140,325 L-141,373 L-141,421 L-142,507 L-143,517 L-147,522 L-198,522 L-215,521 L-220,516 L-220,420 L-219,315 L-218,246 L-216,239 L-209,235 L-149,236 L-99,236 L-63,235 L-61,228 L-60,223 L-60,207 L-59,159 L-58,53 L-55,36 L-49,24 L-41,15 L-32,9 L-24,5 L-13,2 Z M-46,109 L-46,114 L-43,114 L-44,109 Z M-99,263 L-100,268 L-96,269 L-92,266 L-93,263 Z " fill="#000000" transform="translate(835,499)"/>
<path d="M0,0 L2,1 Z " fill="#000000" transform="translate(603,538)"/>
</svg>
