<?xml version="1.0" encoding="UTF-8"?>
<!-- Generator: visioncortex VTracer 0.6.12 -->
<svg version="1.1" xmlns="http://www.w3.org/2000/svg" width="1209" height="1326">
<path d="M0,0 L161,0 L456,1 L584,1 L779,2 L856,2 L863,1 L865,2 L901,3 L1027,2 L1150,2 L1158,3 L1158,57 L1140,58 L762,58 L698,57 L362,57 L307,56 L-51,56 L-51,1 Z " fill="#000000" transform="translate(51,23)"/>
<path d="M0,0 L5,1 L117,1 L135,3 L137,4 L154,6 L161,9 L173,12 L189,19 L196,22 L214,32 L225,40 L233,47 L239,51 L244,51 L248,50 L247,53 L244,53 L247,58 L257,69 L266,80 L273,90 L281,102 L289,118 L296,134 L302,152 L307,177 L309,195 L309,326 L310,423 L310,484 L311,515 L311,780 L308,801 L304,817 L298,837 L291,851 L283,867 L277,877 L266,893 L251,909 L243,917 L232,926 L221,933 L210,941 L197,947 L186,952 L178,956 L166,959 L153,963 L129,967 L112,968 L61,968 L52,967 L39,968 L29,967 L1,968 L-179,968 L-186,967 L-264,966 L-287,967 L-366,967 L-375,968 L-387,967 L-399,967 L-414,968 L-442,968 L-460,966 L-467,964 L-480,962 L-483,960 L-500,956 L-528,943 L-543,933 L-556,923 L-562,919 L-569,912 L-574,907 L-580,900 L-585,895 L-594,883 L-604,868 L-613,852 L-619,836 L-624,821 L-627,810 L-629,802 L-631,791 L-633,757 L-633,526 L-634,451 L-634,348 L-635,312 L-635,236 L-634,193 L-631,164 L-623,135 L-618,123 L-614,115 L-610,105 L-604,96 L-594,81 L-585,70 L-566,51 L-556,43 L-547,37 L-533,27 L-525,23 L-511,18 L-503,14 L-484,8 L-474,6 L-471,5 L-452,3 L-410,3 L-376,2 L-373,3 L-281,3 L-201,2 L-186,2 L-168,3 L-130,2 L-66,2 L-60,3 L-58,2 L-39,2 L-3,1 Z M-112,148 L-130,149 L-215,149 L-264,150 L-271,149 L-275,151 L-288,150 L-450,150 L-454,153 L-455,156 L-455,215 L-450,220 L-436,221 L-408,221 L-382,223 L-370,227 L-366,230 L-360,230 L-353,227 L-356,230 L-360,233 L-358,238 L-354,247 L-352,252 L-350,262 L-349,344 L-349,468 L-348,592 L-344,596 L-339,591 L-323,575 L-318,570 L-302,554 L-302,552 L-298,550 L-295,547 L-295,545 L-292,544 L-285,536 L-277,528 L-270,520 L-262,513 L-258,508 L-253,504 L-246,496 L-231,481 L-231,479 L-227,477 L-215,464 L-207,456 L-203,451 L-197,446 L-193,440 L-188,436 L-186,430 L-188,428 L-217,427 L-219,423 L-220,352 L-220,223 L-217,220 L-137,219 L-116,219 L-90,220 L-75,222 L-72,224 L-62,226 L-48,231 L-33,239 L-25,246 L-18,254 L-12,254 L-7,248 L-1,243 L6,235 L17,224 L24,216 L29,212 L36,204 L45,195 L52,187 L58,180 L58,175 L55,172 L46,168 L41,166 L33,164 L22,160 L12,158 L1,157 L-4,155 L-16,153 L-34,152 L-35,151 L-45,151 L-49,150 L-64,149 L-89,149 L-95,148 L-98,153 L-103,154 L-101,150 L-107,148 Z M132,277 L120,289 L112,296 L104,305 L99,310 L86,323 L83,326 L78,331 L70,340 L62,347 L57,354 L52,357 L47,364 L39,371 L34,376 L26,385 L21,390 L17,395 L9,402 L-6,418 L-22,434 L-29,442 L-36,448 L-43,456 L-53,466 L-57,470 L-62,475 L-71,486 L-76,492 L-75,497 L-70,498 L-33,497 L-20,496 L-10,495 L4,494 L11,492 L24,490 L48,481 L60,476 L69,471 L77,465 L90,455 L97,448 L102,443 L112,431 L124,412 L131,398 L137,380 L140,368 L144,339 L144,316 L142,297 L139,282 L136,277 Z M279,481 L277,482 L277,485 L281,484 L280,481 Z M-553,641 L-554,644 L-551,644 L-551,641 Z M-226,650 L-231,656 L-236,661 L-239,664 L-239,666 L-243,668 L-257,683 L-268,694 L-275,702 L-286,713 L-291,718 L-300,729 L-308,736 L-315,744 L-319,749 L-327,756 L-339,769 L-344,774 L-349,780 L-354,785 L-362,793 L-372,806 L-372,809 L-369,810 L-336,811 L-302,811 L-254,810 L-230,810 L-227,811 L-168,811 L-133,810 L-114,810 L-110,807 L-109,804 L-109,741 L-112,737 L-129,737 L-164,736 L-182,736 L-194,733 L-205,727 L-211,720 L-215,712 L-219,693 L-220,660 L-221,652 L-223,650 Z " fill="#000000" transform="translate(718,181)"/>
<path d="M0,0 L15,0 L25,3 L32,8 L37,16 L38,25 L34,28 L28,27 L23,21 L22,16 L17,14 L11,12 L1,14 L-5,18 L-6,20 L-6,26 L-2,30 L6,34 L17,36 L33,43 L40,52 L41,54 L41,66 L33,77 L25,82 L16,85 L3,85 L-6,82 L-17,76 L-22,68 L-23,65 L-23,57 L-20,54 L-15,54 L-10,59 L-7,66 L-3,70 L6,72 L14,72 L20,70 L25,65 L25,56 L24,52 L16,50 L3,46 L-5,44 L-13,40 L-19,33 L-20,29 L-20,18 L-18,13 L-13,6 Z " fill="#000000" transform="translate(259,1209)"/>
<path d="M0,0 L8,1 L14,8 L20,18 L30,34 L37,46 L42,53 L46,54 L47,8 L50,2 L51,1 L57,1 L60,5 L60,46 L59,80 L58,82 L49,83 L44,80 L30,58 L28,54 L28,47 L25,44 L20,41 L13,32 L13,30 L9,30 L8,77 L6,81 L4,82 L-2,82 L-6,77 L-6,46 L-5,17 L-5,8 L-3,1 Z " fill="#000000" transform="translate(88,1211)"/>
<path d="M0,0 L9,1 L26,1 L36,5 L41,10 L45,18 L45,32 L39,41 L30,48 L23,49 L5,49 L0,51 L-1,53 L-2,74 L-4,80 L-5,81 L-11,81 L-14,77 L-15,72 L-14,20 L-12,15 L-12,2 L-11,1 Z M3,11 L-1,15 L-2,18 L-2,34 L0,37 L23,37 L30,32 L32,28 L31,18 L27,13 L22,11 Z " fill="#000000" transform="translate(180,1211)"/>
</svg>
