<?xml version="1.0" encoding="UTF-8"?>
<!-- Generator: visioncortex VTracer 0.6.12 -->
<svg version="1.1" xmlns="http://www.w3.org/2000/svg" width="1164" height="1221">
<path d="M0,0 L40,0 L110,1 L197,1 L323,2 L435,2 L477,3 L487,2 L521,3 L615,3 L621,4 L705,4 L732,5 L743,5 L751,6 L854,6 L931,7 L931,1149 L929,1149 L928,1152 L926,1153 L905,1153 L898,1152 L889,1153 L847,1153 L833,1152 L785,1152 L771,1153 L756,1152 L750,1153 L748,1152 L740,1152 L733,1154 L730,1153 L704,1152 L686,1152 L667,1153 L615,1153 L595,1152 L561,1152 L554,1151 L457,1151 L440,1150 L435,1149 L431,1150 L341,1150 L336,1151 L330,1150 L256,1150 L216,1149 L208,1150 L203,1149 L198,1150 L196,1149 L150,1149 L148,1148 L-81,1148 L-95,1147 L-166,1147 L-172,1145 L-175,1141 L-175,1111 L-176,1096 L-176,1084 L-175,1070 L-175,940 L-174,909 L-175,862 L-175,815 L-173,750 L-173,452 L-172,441 L-172,382 L-171,307 L-171,286 L-170,221 L-170,183 L-169,175 L-169,128 L-168,44 L-167,11 L-164,2 L-158,1 L-103,1 Z M390,170 L374,171 L358,172 L342,174 L330,175 L308,180 L298,183 L287,185 L278,189 L268,191 L247,199 L237,204 L224,209 L209,217 L204,220 L195,225 L182,232 L173,239 L164,245 L156,252 L151,255 L141,264 L133,271 L127,276 L122,281 L118,286 L110,293 L107,296 L107,298 L103,300 L92,313 L80,329 L73,339 L65,349 L59,359 L53,369 L41,391 L34,407 L28,419 L23,432 L19,445 L13,462 L12,471 L8,484 L4,502 L2,517 L-1,559 L-1,594 L2,619 L2,631 L5,646 L8,658 L12,673 L14,684 L20,702 L24,711 L27,720 L36,740 L44,756 L54,775 L64,790 L74,803 L78,804 L90,797 L107,781 L119,770 L127,763 L136,755 L136,753 L140,751 L159,732 L167,725 L175,718 L182,710 L192,701 L200,694 L207,687 L212,683 L212,681 L216,679 L221,674 L231,665 L244,653 L252,646 L258,639 L272,628 L277,623 L281,618 L285,616 L289,611 L297,604 L310,591 L318,584 L325,577 L328,572 L327,566 L316,553 L311,548 L302,539 L297,534 L290,526 L288,526 L288,524 L280,517 L276,512 L268,505 L257,493 L245,481 L240,477 L233,469 L227,464 L222,459 L216,452 L208,445 L197,433 L189,426 L180,416 L146,382 L139,374 L131,367 L122,358 L115,349 L114,344 L118,336 L125,327 L132,319 L137,314 L151,303 L160,297 L167,298 L176,306 L180,311 L185,316 L193,323 L200,331 L209,341 L217,348 L224,356 L232,363 L237,370 L246,377 L251,382 L265,397 L270,402 L282,413 L289,421 L302,434 L307,438 L314,446 L320,453 L328,460 L330,460 L332,464 L357,489 L362,496 L368,500 L372,506 L381,514 L383,515 L390,515 L393,513 L393,511 L397,509 L407,501 L412,495 L420,488 L427,481 L432,476 L441,467 L452,458 L464,446 L472,439 L480,432 L489,421 L497,414 L505,407 L513,400 L517,395 L528,386 L540,373 L548,366 L558,357 L565,351 L570,345 L578,339 L593,324 L601,317 L622,296 L630,289 L635,284 L646,274 L648,270 L647,264 L640,256 L631,249 L627,245 L621,242 L616,238 L610,235 L602,229 L597,226 L584,218 L577,214 L569,211 L552,202 L540,198 L528,193 L518,189 L497,184 L486,180 L467,177 L464,176 L453,175 L444,173 L412,170 L402,171 L400,170 Z M145,315 L135,323 L128,331 L126,335 L126,342 L133,350 L143,360 L150,368 L168,386 L175,394 L180,399 L190,409 L197,417 L204,424 L211,430 L218,438 L235,454 L240,458 L247,460 L245,465 L245,473 L248,478 L253,482 L258,487 L271,500 L278,508 L281,511 L283,511 L283,513 L285,513 L287,517 L322,552 L327,557 L333,562 L340,562 L354,551 L359,546 L366,539 L369,534 L369,528 L361,518 L358,513 L351,507 L347,505 L338,493 L331,489 L326,481 L318,475 L313,471 L306,461 L302,459 L294,449 L288,444 L281,438 L271,435 L268,434 L266,430 L263,425 L257,420 L251,413 L243,406 L234,396 L224,387 L219,380 L211,373 L199,362 L194,357 L188,352 L184,346 L173,336 L168,331 L155,319 L152,316 Z M708,338 L703,343 L698,346 L693,352 L688,355 L674,369 L666,376 L655,386 L650,391 L647,394 L639,400 L626,414 L618,421 L606,432 L604,436 L600,438 L590,447 L585,452 L572,464 L567,468 L563,473 L557,477 L553,481 L553,483 L549,485 L544,490 L528,505 L516,516 L506,526 L498,533 L488,542 L484,546 L483,549 L472,558 L467,564 L459,571 L452,578 L452,585 L463,597 L470,605 L475,610 L483,619 L490,627 L499,637 L520,658 L525,663 L530,668 L535,673 L547,685 L554,693 L568,707 L573,710 L577,716 L585,723 L591,731 L603,744 L615,757 L620,763 L629,770 L635,778 L640,782 L647,790 L654,800 L655,803 L655,811 L648,822 L641,829 L632,835 L628,841 L614,848 L609,846 L608,841 L613,839 L621,835 L629,826 L643,815 L645,812 L645,805 L642,803 L634,804 L627,805 L625,804 L626,790 L622,789 L616,790 L616,783 L613,778 L606,772 L606,765 L601,760 L596,758 L589,749 L586,742 L583,741 L580,743 L577,748 L573,753 L569,762 L563,771 L552,779 L547,784 L541,784 L533,775 L528,770 L525,767 L523,767 L521,763 L510,752 L502,745 L497,740 L485,726 L472,712 L468,707 L460,701 L453,693 L443,683 L434,672 L422,661 L413,651 L406,645 L401,640 L395,637 L389,637 L383,642 L378,647 L372,651 L367,656 L357,666 L349,673 L344,678 L336,686 L331,690 L326,695 L314,706 L306,713 L291,728 L283,735 L274,743 L270,748 L262,755 L253,763 L248,768 L242,773 L238,778 L231,783 L225,790 L217,797 L212,803 L204,810 L194,819 L177,835 L171,840 L166,845 L149,862 L144,867 L142,871 L142,876 L147,882 L161,893 L170,900 L181,907 L194,915 L212,925 L229,933 L243,940 L249,942 L260,946 L266,949 L274,951 L291,956 L302,959 L315,961 L321,963 L352,967 L380,969 L409,969 L414,968 L430,968 L444,967 L455,964 L467,963 L478,960 L487,958 L500,955 L509,952 L514,950 L522,948 L534,944 L545,939 L554,936 L569,929 L581,923 L594,915 L608,907 L618,899 L626,895 L630,891 L636,887 L646,879 L657,870 L661,865 L669,858 L674,854 L678,848 L684,843 L691,835 L700,823 L710,811 L721,796 L729,783 L740,765 L748,750 L753,739 L758,728 L763,717 L767,704 L769,699 L771,690 L776,676 L781,658 L784,640 L788,610 L790,587 L790,567 L789,533 L786,516 L783,495 L779,479 L777,468 L769,443 L762,423 L758,414 L755,407 L745,385 L742,380 L730,358 L723,349 L719,343 L712,338 Z M432,599 L424,604 L414,614 L406,621 L402,627 L403,633 L409,640 L414,645 L424,655 L429,660 L436,668 L441,673 L461,693 L468,701 L481,714 L483,714 L485,718 L490,724 L495,729 L502,737 L507,741 L512,748 L520,754 L529,763 L536,764 L541,761 L547,759 L552,751 L552,749 L560,747 L564,743 L565,740 L565,730 L562,723 L556,716 L552,711 L547,706 L538,700 L533,694 L528,689 L520,682 L512,675 L505,667 L498,658 L492,654 L488,650 L486,650 L484,646 L471,631 L469,631 L467,627 L459,619 L451,614 L446,607 L437,600 Z M485,984 L484,987 L485,989 L490,988 L489,984 Z " fill="#000000" transform="translate(233,35)"/>
<path d="M0,0 L4,1 L5,6 L0,7 L-1,6 L-1,1 Z " fill="#000000" transform="translate(817,788)"/>
<path d="M0,0 L18,1 L34,5 L35,10 L30,12 L25,9 L5,9 L7,13 L22,17 L34,18 L43,19 L45,18 L46,12 L52,13 L63,19 L73,24 L72,26 L59,27 L40,27 L38,26 L23,25 L11,23 L5,20 L-6,18 L-11,15 L-18,14 L-19,13 L-24,13 L-26,15 L-36,17 L-41,17 L-41,14 L-25,6 L-20,4 L-12,2 Z " fill="#000000" transform="translate(646,826)"/>
<path d="M0,0 L4,0 L3,3 L0,2 Z " fill="#000000" transform="translate(785,831)"/>
<path d="M0,0 L4,2 L2,6 L-1,5 Z " fill="#000000" transform="translate(727,850)"/>
<path d="M0,0 L13,0 L15,4 L12,6 L3,7 L-4,11 L-8,10 L-7,5 L-2,1 Z " fill="#000000" transform="translate(607,853)"/>
<path d="M0,0 L13,2 L16,3 L71,6 L76,5 L79,7 L77,11 L70,11 L64,13 L54,14 L52,15 L36,15 L23,13 L11,9 L-1,4 L-2,1 Z " fill="#000000" transform="translate(648,860)"/>
<path d="M0,0 L5,0 L5,5 L0,4 Z " fill="#000000" transform="translate(753,864)"/>
</svg>
