<?xml version="1.0" encoding="UTF-8"?>
<!-- Generator: visioncortex VTracer 0.6.12 -->
<svg version="1.1" xmlns="http://www.w3.org/2000/svg" width="1011" height="981">
<path d="M0,0 L66,0 L72,5 L76,10 L88,19 L96,26 L103,34 L109,39 L114,44 L132,62 L137,67 L143,72 L148,78 L157,85 L164,92 L172,99 L172,101 L176,103 L184,110 L191,118 L206,132 L214,140 L222,146 L229,154 L239,163 L249,172 L255,179 L261,186 L269,193 L275,200 L283,206 L290,214 L305,228 L320,242 L328,249 L335,255 L342,263 L356,277 L364,284 L371,289 L375,294 L380,299 L390,308 L403,320 L411,327 L417,334 L425,341 L432,348 L438,353 L442,358 L450,365 L460,375 L467,380 L472,385 L479,392 L486,398 L491,404 L499,411 L503,416 L511,422 L515,427 L523,434 L535,446 L544,453 L551,461 L559,468 L571,479 L578,487 L586,494 L602,509 L618,524 L628,533 L639,544 L644,549 L652,556 L657,561 L666,569 L671,574 L698,601 L706,608 L714,616 L722,623 L728,630 L736,637 L751,651 L758,658 L766,665 L773,671 L773,673 L777,675 L798,696 L803,701 L816,713 L825,722 L833,729 L838,734 L850,746 L850,748 L854,750 L861,756 L868,764 L878,773 L893,788 L901,795 L906,802 L911,806 L916,811 L935,830 L943,837 L948,842 L956,850 L964,857 L969,862 L976,869 L981,874 L988,881 L992,885 L999,891 L1004,896 L1011,902 L1011,981 L901,981 L894,973 L893,970 L889,968 L880,958 L867,946 L860,938 L853,931 L845,924 L811,890 L803,883 L776,856 L771,851 L760,840 L752,833 L740,822 L730,811 L722,804 L715,798 L715,796 L711,794 L701,783 L695,778 L687,776 L681,771 L676,766 L669,759 L664,754 L657,747 L653,744 L653,742 L649,740 L639,731 L634,726 L629,721 L614,706 L609,702 L604,696 L597,690 L592,685 L580,673 L575,663 L575,661 L571,659 L559,647 L554,642 L546,634 L541,629 L531,620 L518,613 L512,609 L505,601 L501,597 L501,595 L496,593 L493,590 L489,582 L480,574 L475,568 L467,561 L457,551 L452,546 L440,534 L432,527 L421,516 L421,514 L417,512 L401,497 L401,495 L397,493 L389,486 L373,470 L365,463 L346,444 L339,438 L335,433 L327,427 L319,419 L314,415 L307,407 L302,401 L291,393 L265,367 L257,360 L246,348 L237,339 L229,332 L224,327 L224,325 L221,324 L221,322 L217,320 L209,313 L205,308 L196,301 L191,296 L183,288 L176,282 L176,280 L172,278 L147,253 L139,246 L122,230 L114,224 L107,216 L85,194 L77,187 L65,174 L55,165 L39,150 L31,142 L23,135 L3,115 L0,113 Z " fill="#000000" transform="translate(0,0)"/>
<path d="M0,0 L910,0 L910,876 L906,874 L901,869 L892,859 L884,852 L869,837 L863,832 L858,827 L850,819 L845,814 L838,808 L833,802 L831,801 L831,799 L827,797 L820,791 L816,785 L810,781 L802,773 L795,765 L782,752 L777,747 L760,730 L752,723 L737,709 L729,702 L722,694 L714,687 L703,676 L695,669 L686,661 L682,656 L674,649 L669,644 L662,637 L654,630 L647,623 L640,617 L635,612 L630,608 L623,600 L616,594 L612,585 L613,578 L624,570 L636,562 L646,555 L661,545 L675,536 L689,526 L699,519 L711,511 L722,505 L726,501 L740,492 L748,486 L754,482 L764,475 L775,468 L784,462 L795,454 L803,447 L804,446 L804,437 L799,428 L792,417 L783,403 L775,392 L771,387 L771,385 L765,383 L759,386 L748,394 L733,404 L724,410 L715,417 L706,422 L698,428 L692,431 L685,437 L674,444 L663,451 L658,455 L647,462 L632,473 L623,479 L613,486 L604,492 L596,498 L589,502 L572,514 L561,521 L555,526 L547,527 L539,520 L531,512 L523,505 L521,499 L510,493 L504,485 L493,476 L484,466 L480,462 L480,460 L475,458 L467,449 L460,445 L454,436 L434,416 L426,409 L405,388 L397,381 L384,369 L378,363 L378,356 L390,337 L394,329 L401,314 L408,295 L412,282 L415,267 L417,254 L417,230 L415,212 L410,188 L404,171 L399,158 L397,155 L394,154 L397,164 L402,189 L403,193 L405,229 L403,253 L399,275 L395,290 L392,298 L387,311 L377,335 L370,344 L366,349 L361,348 L355,340 L349,335 L348,331 L355,317 L363,301 L370,281 L374,266 L377,247 L378,232 L378,220 L377,204 L373,182 L370,171 L362,149 L351,128 L341,114 L334,106 L328,97 L319,88 L311,81 L307,79 L308,84 L318,94 L325,103 L330,112 L335,120 L343,135 L348,147 L352,157 L354,166 L360,187 L362,202 L364,227 L363,243 L360,260 L357,271 L355,282 L346,304 L338,319 L337,320 L332,320 L327,315 L317,305 L316,300 L323,286 L330,267 L334,246 L335,233 L335,219 L334,208 L331,209 L329,215 L327,233 L323,251 L317,268 L309,284 L305,290 L300,290 L291,282 L284,274 L277,267 L269,260 L262,253 L254,246 L245,236 L237,229 L229,222 L221,214 L213,207 L201,195 L201,193 L197,191 L185,179 L177,172 L168,163 L163,159 L159,154 L154,150 L147,142 L134,129 L128,124 L123,119 L116,111 L108,104 L95,92 L87,85 L80,77 L68,66 L58,56 L47,47 L36,35 L31,32 L26,26 L21,21 L12,12 L2,4 Z M761,274 L759,280 L760,284 L765,285 L767,282 L766,275 Z " fill="#000000" transform="translate(101,0)"/>
<path d="M0,0 L3,1 L8,6 L20,17 L26,22 L32,29 L40,36 L45,40 L50,46 L58,53 L58,55 L62,57 L69,64 L74,69 L85,78 L97,90 L105,97 L119,111 L127,118 L144,135 L149,140 L163,154 L176,164 L183,172 L199,188 L207,195 L228,216 L234,221 L238,226 L246,233 L255,241 L262,250 L269,257 L277,264 L284,273 L285,277 L281,288 L274,298 L268,315 L262,337 L260,352 L256,369 L256,390 L259,406 L261,410 L261,413 L263,413 L264,364 L267,358 L270,343 L275,327 L282,313 L286,303 L296,287 L301,287 L309,296 L315,301 L314,308 L309,320 L304,331 L298,352 L295,364 L291,389 L291,417 L293,439 L299,458 L306,472 L310,485 L315,494 L318,501 L320,508 L323,515 L326,515 L326,508 L323,500 L318,480 L314,463 L309,450 L304,425 L303,405 L303,390 L306,368 L311,355 L320,328 L326,316 L331,315 L343,328 L349,335 L345,353 L345,358 L347,358 L353,346 L355,344 L361,345 L370,353 L375,358 L381,363 L386,369 L394,376 L401,384 L411,393 L415,397 L415,399 L419,401 L428,410 L433,414 L440,422 L448,429 L458,439 L468,447 L468,449 L472,451 L502,481 L503,485 L499,490 L486,498 L475,506 L467,511 L464,514 L456,518 L449,524 L439,530 L422,542 L411,549 L397,559 L386,567 L380,571 L358,586 L351,591 L349,597 L359,615 L370,631 L377,642 L384,652 L389,654 L404,645 L412,639 L422,633 L428,628 L436,624 L443,618 L455,611 L466,602 L474,597 L483,591 L495,583 L505,576 L522,565 L530,559 L541,552 L552,544 L558,539 L564,540 L573,549 L578,554 L590,566 L595,570 L599,575 L607,582 L616,591 L624,598 L633,608 L644,617 L657,630 L665,637 L674,647 L679,651 L684,656 L693,666 L701,673 L710,682 L715,687 L720,692 L728,700 L733,705 L739,710 L743,715 L751,722 L759,729 L766,737 L774,744 L782,753 L787,757 L791,762 L799,769 L820,790 L828,797 L835,804 L842,812 L852,821 L867,836 L867,838 L0,838 Z M326,608 L313,616 L303,623 L294,629 L285,637 L280,644 L280,650 L288,666 L294,676 L304,689 L308,695 L312,700 L314,701 L323,700 L332,695 L346,685 L358,677 L366,671 L371,667 L370,660 L362,648 L356,639 L346,624 L337,612 L332,608 Z M511,669 Z M511,763 L510,767 L515,766 L515,763 Z " fill="#000000" transform="translate(0,143)"/>
</svg>
