<?xml version="1.0" encoding="UTF-8"?>
<!-- Generator: visioncortex VTracer 0.6.12 -->
<svg version="1.1" xmlns="http://www.w3.org/2000/svg" width="1104" height="1254">
<path d="M0,0 L1,4 L-2,4 Z " fill="#000000" transform="translate(338,35)"/>
<path d="M0,0 L5,2 L6,13 L5,187 L5,419 L4,538 L3,586 L3,807 L2,860 L2,893 L-3,894 L-12,884 L-14,880 L-18,878 L-25,870 L-33,863 L-48,848 L-54,843 L-54,841 L-58,839 L-75,822 L-80,817 L-95,803 L-99,799 L-103,795 L-111,788 L-125,773 L-135,763 L-140,758 L-157,741 L-165,734 L-180,720 L-188,713 L-195,705 L-203,698 L-209,693 L-214,687 L-222,680 L-231,672 L-235,667 L-243,660 L-248,655 L-254,650 L-259,645 L-270,634 L-277,628 L-282,623 L-287,619 L-294,611 L-301,605 L-305,596 L-305,590 L-296,583 L-281,573 L-271,566 L-262,560 L-244,548 L-238,544 L-224,534 L-206,522 L-197,517 L-195,517 L-194,514 L-176,502 L-167,496 L-159,490 L-144,480 L-134,474 L-129,470 L-121,464 L-113,457 L-113,448 L-118,439 L-125,428 L-134,414 L-141,405 L-145,399 L-146,396 L-152,394 L-158,397 L-169,405 L-184,415 L-193,421 L-202,428 L-211,433 L-219,439 L-225,442 L-232,448 L-243,455 L-254,462 L-262,468 L-271,474 L-291,488 L-300,494 L-310,501 L-321,509 L-328,513 L-345,525 L-356,532 L-362,537 L-370,538 L-378,531 L-389,521 L-394,516 L-396,510 L-407,504 L-413,496 L-424,487 L-429,482 L-433,477 L-437,473 L-437,471 L-442,469 L-450,460 L-457,456 L-463,447 L-470,441 L-477,433 L-494,417 L-512,399 L-520,392 L-532,381 L-539,374 L-539,367 L-527,348 L-524,341 L-521,336 L-514,320 L-505,293 L-502,277 L-500,264 L-500,241 L-502,223 L-507,199 L-513,182 L-518,169 L-520,166 L-523,165 L-520,175 L-518,185 L-514,204 L-512,240 L-514,264 L-518,286 L-521,298 L-525,309 L-529,321 L-535,334 L-541,348 L-551,360 L-556,359 L-562,351 L-568,346 L-569,341 L-561,326 L-554,312 L-547,292 L-543,277 L-540,257 L-539,231 L-540,215 L-544,193 L-547,182 L-555,160 L-563,144 L-573,129 L-582,118 L-590,107 L-597,100 L-605,93 L-609,91 L-608,96 L-598,106 L-591,116 L-583,129 L-574,146 L-569,157 L-565,168 L-563,177 L-557,198 L-555,212 L-553,237 L-554,254 L-557,271 L-560,282 L-563,296 L-571,315 L-579,330 L-580,331 L-585,331 L-590,326 L-596,321 L-601,315 L-600,309 L-594,297 L-587,278 L-583,257 L-582,244 L-582,230 L-583,219 L-586,220 L-588,226 L-589,240 L-594,262 L-600,279 L-608,295 L-612,301 L-617,301 L-627,292 L-634,284 L-651,268 L-664,256 L-671,248 L-680,240 L-688,233 L-696,225 L-704,218 L-716,206 L-716,204 L-720,202 L-726,197 L-732,190 L-740,183 L-749,174 L-754,170 L-759,165 L-774,149 L-783,140 L-789,135 L-794,130 L-801,122 L-809,115 L-822,103 L-830,96 L-837,88 L-849,77 L-859,67 L-870,58 L-881,46 L-886,43 L-891,37 L-896,32 L-904,24 L-915,15 L-921,9 L-921,5 L-919,4 L-875,3 L-869,4 L-867,3 L-827,3 L-802,2 L-790,3 L-755,3 L-701,2 L-677,3 L-641,3 L-576,2 L-40,2 L-9,1 Z M-156,285 L-157,286 L-157,295 L-152,296 L-150,293 L-151,287 L-153,285 Z " fill="#000000" transform="translate(1066,67)"/>
<path d="M0,0 L19,0 L26,3 L39,13 L43,17 L43,19 L47,21 L55,27 L63,34 L70,42 L76,47 L81,52 L99,70 L104,75 L111,81 L115,86 L124,93 L131,100 L139,107 L146,114 L151,118 L158,126 L171,138 L181,148 L189,154 L196,162 L206,171 L216,180 L222,187 L228,194 L236,201 L242,208 L251,215 L256,221 L264,228 L271,235 L276,240 L286,249 L296,258 L302,263 L309,271 L323,285 L331,292 L338,297 L343,302 L348,308 L356,315 L370,328 L378,335 L384,342 L392,349 L399,356 L405,361 L409,366 L417,373 L427,383 L434,388 L439,393 L446,400 L453,406 L458,412 L466,419 L469,422 L469,424 L473,426 L478,430 L482,435 L490,442 L502,454 L511,461 L518,469 L526,476 L538,487 L544,493 L544,495 L548,497 L558,507 L566,514 L573,521 L581,528 L597,543 L606,552 L611,557 L619,564 L624,569 L633,577 L638,582 L665,609 L673,616 L680,623 L688,630 L695,638 L703,645 L718,659 L725,666 L733,673 L748,687 L757,696 L762,701 L768,706 L773,712 L781,719 L792,730 L800,737 L805,742 L817,754 L817,756 L821,758 L828,764 L835,772 L845,781 L860,796 L868,803 L873,810 L878,814 L883,819 L890,826 L895,831 L900,836 L912,847 L917,852 L931,865 L936,870 L943,877 L948,882 L955,889 L959,893 L966,899 L971,904 L983,915 L987,918 L987,999 L983,1001 L975,1001 L973,1000 L958,999 L882,1000 L874,996 L869,990 L862,982 L860,978 L856,976 L847,966 L834,954 L827,946 L810,930 L778,898 L770,891 L762,883 L757,878 L743,864 L738,859 L730,852 L725,847 L717,839 L709,832 L701,824 L696,819 L687,810 L679,803 L672,796 L668,791 L662,786 L654,784 L648,779 L643,774 L625,756 L620,752 L620,750 L616,748 L606,739 L601,734 L596,729 L582,715 L576,710 L571,704 L564,698 L559,693 L547,681 L542,671 L542,669 L538,667 L526,655 L521,650 L515,645 L508,637 L498,628 L485,621 L479,617 L472,609 L460,598 L457,592 L451,585 L446,580 L433,568 L424,559 L419,555 L412,547 L396,532 L388,524 L388,522 L384,520 L368,505 L353,491 L340,478 L332,471 L313,452 L305,445 L300,440 L290,431 L280,422 L271,411 L269,410 L269,408 L265,406 L257,400 L232,375 L224,368 L213,356 L205,348 L197,341 L188,332 L188,330 L184,328 L176,321 L172,316 L163,309 L158,304 L150,296 L142,289 L114,261 L106,254 L90,239 L80,231 L73,223 L52,202 L44,195 L32,182 L22,173 L6,158 L-1,151 L-9,144 L-29,124 L-36,118 L-39,113 L-39,9 L-34,2 L-32,1 Z " fill="#000000" transform="translate(81,70)"/>
<path d="M0,0 L4,1 L9,7 L14,10 L14,12 L18,14 L27,22 L34,30 L45,40 L50,45 L63,57 L74,68 L74,70 L79,72 L86,79 L94,86 L101,93 L109,100 L123,114 L131,121 L148,138 L153,143 L167,157 L179,166 L188,176 L202,190 L210,197 L232,219 L239,225 L244,230 L252,238 L259,244 L266,253 L273,260 L281,267 L288,276 L289,281 L285,291 L278,301 L272,318 L266,341 L264,355 L260,372 L260,392 L263,408 L265,413 L265,416 L267,416 L268,367 L271,360 L274,346 L278,332 L281,326 L285,319 L290,306 L298,292 L303,289 L308,294 L319,304 L318,311 L313,323 L308,334 L303,351 L300,364 L296,385 L295,392 L295,420 L297,442 L303,461 L310,475 L314,487 L319,497 L322,504 L324,511 L326,518 L330,518 L330,511 L327,504 L322,483 L318,466 L313,453 L308,429 L307,408 L307,392 L310,371 L318,349 L323,333 L329,320 L331,318 L336,319 L347,331 L353,338 L349,356 L349,361 L351,361 L357,349 L359,347 L365,348 L374,356 L379,361 L385,366 L390,372 L398,379 L405,387 L413,394 L419,400 L419,402 L423,404 L432,413 L437,417 L444,425 L452,432 L462,442 L472,450 L494,472 L499,477 L506,484 L507,488 L503,493 L493,499 L491,499 L491,501 L477,510 L471,514 L468,517 L460,521 L452,528 L444,532 L431,542 L415,552 L401,562 L390,570 L384,574 L362,589 L355,594 L353,600 L363,618 L374,634 L381,645 L388,655 L395,656 L414,644 L419,640 L427,635 L432,631 L440,627 L447,621 L457,615 L465,609 L474,603 L482,597 L493,590 L501,584 L511,578 L526,568 L534,562 L545,555 L556,547 L562,542 L568,543 L577,552 L582,557 L594,569 L600,574 L605,579 L620,594 L628,601 L637,611 L648,620 L660,632 L668,639 L678,650 L684,655 L689,660 L697,669 L705,676 L712,683 L714,684 L714,686 L717,687 L721,693 L729,700 L736,706 L740,711 L745,716 L755,725 L763,732 L770,740 L778,747 L779,750 L781,750 L786,756 L791,760 L795,765 L803,772 L824,793 L832,800 L839,807 L846,815 L854,822 L875,843 L877,846 L877,850 L856,851 L799,851 L757,852 L749,851 L708,852 L622,851 L612,853 L601,853 L598,852 L525,852 L520,853 L510,852 L501,851 L493,852 L215,852 L188,853 L185,852 L169,852 L164,851 L161,852 L128,853 L120,852 L98,852 L96,853 L68,853 L50,852 L21,852 L19,851 L-3,851 L-7,846 L-7,838 L-6,833 L-6,754 L-5,616 L-5,597 L-4,529 L-4,467 L-5,455 L-4,452 L-4,316 L-5,310 L-4,303 L-3,189 L-3,24 L-2,2 Z M330,611 L317,619 L307,626 L297,633 L289,640 L284,647 L284,653 L292,669 L299,680 L308,692 L312,698 L316,703 L323,704 L333,700 L347,690 L363,679 L374,671 L375,670 L374,663 L366,651 L360,642 L350,627 L341,615 L336,611 Z M515,672 Z M515,766 L515,770 L519,769 L519,766 Z " fill="#000000" transform="translate(44,218)"/>
<path d="M0,0 L36,1 L46,6 L50,11 L54,18 L54,27 L52,35 L45,43 L36,47 L9,48 L7,54 L6,77 L4,79 L-2,79 L-4,77 L-4,5 Z M12,10 L8,15 L7,30 L9,35 L13,38 L32,37 L39,34 L42,29 L43,27 L43,20 L38,13 L28,10 Z " fill="#000000" transform="translate(46,1136)"/>
<path d="M0,0 L5,2 L7,5 L8,15 L16,20 L17,25 L13,29 L8,32 L7,59 L9,64 L15,67 L16,69 L16,76 L14,78 L3,78 L-2,75 L-5,71 L-6,68 L-7,31 L-13,24 L-11,19 L-7,14 L-5,4 Z " fill="#000000" transform="translate(233,1140)"/>
<path d="M0,0 L13,0 L24,4 L32,13 L36,22 L36,34 L34,42 L28,53 L24,55 L24,57 L20,60 L16,61 L3,61 L-6,59 L-14,53 L-19,44 L-20,38 L-20,24 L-17,15 L-11,7 L-2,1 Z M5,9 L-3,14 L-7,19 L-9,30 L-8,38 L-5,45 L2,51 L14,51 L21,44 L24,37 L25,29 L22,18 L18,13 L10,9 Z " fill="#000000" transform="translate(133,1158)"/>
<path d="M0,0 L5,0 L10,4 L17,1 L18,0 L25,0 L27,2 L26,9 L16,14 L10,21 L8,53 L7,58 L5,60 L-2,59 L-3,57 L-3,3 Z " fill="#000000" transform="translate(186,1158)"/>
</svg>
