<?xml version="1.0" encoding="UTF-8"?>
<!-- Generator: visioncortex VTracer 0.6.12 -->
<svg version="1.1" xmlns="http://www.w3.org/2000/svg" width="441" height="1062">
<path d="M0,0 L19,0 L34,4 L46,9 L55,15 L62,21 L71,33 L77,42 L80,49 L83,63 L84,73 L84,83 L78,105 L67,124 L60,131 L51,138 L39,144 L12,153 L4,151 L-10,149 L-18,145 L-28,140 L-39,132 L-48,123 L-58,106 L-62,94 L-64,73 L-63,58 L-58,38 L-51,28 L-36,13 L-24,6 L-13,2 Z M6,53 L-4,65 L-9,69 L-14,74 L-27,81 L-34,87 L-33,96 L-27,105 L-18,114 L-10,118 L2,122 L16,121 L29,117 L38,111 L45,104 L50,95 L49,88 L44,83 L31,74 L18,61 L13,54 Z " fill="#000000" transform="translate(200,29)"/>
<path d="M0,0 L29,1 L35,4 L44,11 L62,11 L77,1 L80,0 L160,0 L179,2 L195,10 L204,17 L212,28 L216,39 L220,60 L224,84 L225,100 L225,134 L227,179 L227,216 L228,259 L228,277 L229,325 L229,356 L226,385 L222,409 L218,419 L208,439 L204,444 L203,446 L203,456 L208,480 L211,490 L215,505 L219,519 L222,535 L226,546 L231,563 L236,584 L243,608 L249,634 L254,650 L255,656 L255,664 L252,669 L249,671 L206,672 L142,673 L135,676 L132,683 L129,699 L128,709 L126,719 L122,752 L117,778 L113,805 L108,820 L103,825 L102,826 L69,826 L63,825 L32,825 L26,822 L23,817 L18,792 L12,757 L7,732 L5,718 L1,691 L-2,680 L-6,676 L-28,675 L-110,675 L-124,673 L-128,670 L-128,662 L-119,629 L-113,601 L-111,590 L-108,582 L-105,563 L-101,551 L-94,518 L-91,506 L-86,481 L-80,453 L-80,442 L-91,432 L-97,428 L-104,419 L-114,405 L-120,392 L-122,383 L-124,360 L-125,254 L-125,214 L-126,192 L-127,141 L-127,110 L-128,93 L-126,68 L-123,50 L-120,40 L-114,26 L-107,17 L-94,9 L-84,4 L-81,3 L-61,2 L-35,1 L-10,1 Z M61,92 L45,93 L38,96 L36,99 L35,115 L35,149 L28,150 L17,150 L13,151 L-17,152 L-27,153 L-33,158 L-33,175 L-30,185 L-27,187 L-5,188 L24,188 L33,191 L35,194 L36,199 L37,235 L38,259 L38,309 L39,346 L43,355 L45,356 L75,356 L80,353 L82,343 L82,268 L81,233 L81,193 L86,188 L95,187 L129,186 L141,184 L147,180 L149,173 L150,163 L149,155 L145,151 L138,150 L99,150 L89,148 L83,145 L80,140 L79,138 L78,106 L76,98 L71,93 Z M186,371 L183,373 L183,387 L188,407 L191,410 L195,409 L199,400 L204,387 L204,376 L200,372 L197,371 Z M-90,375 L-95,378 L-96,380 L-96,388 L-91,401 L-81,414 L-79,415 L-73,415 L-70,410 L-65,388 L-65,381 L-70,376 L-72,375 Z " fill="#000000" transform="translate(158,189)"/>
</svg>
