<?xml version="1.0" encoding="UTF-8"?>
<!-- Generator: visioncortex VTracer 0.6.12 -->
<svg version="1.1" xmlns="http://www.w3.org/2000/svg" width="1116" height="1110">
<path d="M0,0 L1115,0 L1115,45 L1116,52 L1115,54 L1115,77 L1116,87 L1116,97 L1115,100 L1115,111 L1116,127 L1116,1110 L0,1110 Z M137,113 L128,115 L118,121 L108,130 L102,139 L99,149 L99,167 L104,179 L110,189 L121,201 L126,206 L129,207 L131,211 L139,219 L148,232 L153,246 L156,262 L156,274 L152,298 L145,314 L137,326 L129,338 L123,351 L120,362 L120,382 L124,396 L129,407 L135,415 L145,425 L150,430 L157,437 L162,442 L176,456 L192,464 L202,466 L213,467 L228,465 L238,461 L249,455 L261,444 L266,439 L281,424 L281,422 L284,421 L289,416 L320,385 L324,380 L332,373 L375,330 L380,325 L389,317 L396,309 L413,292 L418,287 L428,277 L428,275 L432,273 L434,269 L438,267 L448,256 L448,254 L450,254 L457,240 L460,227 L460,215 L459,204 L454,191 L447,181 L436,171 L431,166 L407,142 L396,133 L382,126 L368,123 L346,123 L331,129 L321,136 L309,148 L293,158 L279,164 L263,167 L244,167 L228,162 L215,154 L202,143 L191,134 L175,123 L169,119 L158,114 L148,113 Z M490,258 L474,264 L464,271 L464,273 L460,275 L444,291 L436,298 L427,308 L383,352 L378,357 L370,364 L363,372 L357,377 L357,379 L353,381 L345,389 L345,391 L341,393 L336,397 L329,405 L316,418 L311,423 L304,430 L299,435 L289,445 L284,449 L277,457 L270,463 L263,471 L255,482 L252,491 L251,499 L251,514 L254,524 L260,536 L269,547 L280,559 L284,564 L292,571 L299,578 L303,582 L308,587 L322,601 L327,605 L332,610 L344,622 L349,627 L355,632 L360,638 L365,643 L368,646 L370,646 L372,650 L380,657 L387,663 L392,668 L417,693 L422,698 L429,705 L436,711 L442,718 L450,725 L473,748 L478,753 L485,759 L492,767 L500,774 L511,784 L517,792 L530,804 L532,804 L534,808 L538,813 L546,820 L553,826 L557,831 L564,837 L571,845 L581,854 L600,873 L605,877 L612,885 L629,901 L638,909 L642,914 L650,921 L667,938 L675,945 L688,958 L693,963 L702,971 L707,976 L718,988 L721,989 L723,993 L736,1004 L741,1008 L757,1014 L770,1015 L781,1015 L796,1011 L808,1004 L822,993 L823,990 L827,988 L852,963 L857,958 L863,953 L868,948 L872,943 L877,938 L887,929 L892,924 L900,916 L905,911 L918,899 L925,891 L930,886 L938,879 L945,871 L952,865 L959,857 L967,849 L972,844 L983,833 L988,828 L995,821 L1002,812 L1007,807 L1014,798 L1019,783 L1020,778 L1020,764 L1017,750 L1014,742 L1008,733 L1002,725 L995,717 L961,683 L953,676 L940,663 L935,658 L914,637 L906,630 L897,621 L892,616 L862,586 L857,582 L854,578 L852,578 L850,574 L840,565 L837,562 L835,562 L833,558 L820,545 L812,538 L805,530 L797,523 L786,512 L782,507 L771,498 L766,492 L759,486 L755,481 L748,475 L746,475 L744,471 L739,466 L737,466 L736,463 L731,458 L721,448 L713,441 L697,425 L689,418 L684,412 L676,405 L649,378 L643,373 L638,368 L631,360 L623,353 L599,329 L591,322 L581,312 L576,307 L569,299 L561,292 L554,285 L549,280 L536,268 L526,262 L515,258 Z M78,715 L78,717 L80,717 L80,715 Z M133,1081 Z " fill="#000000" transform="translate(0,0)"/>
<path d="M0,0 L14,0 L30,8 L41,19 L46,24 L51,29 L67,44 L73,49 L80,57 L91,67 L96,73 L101,77 L105,82 L113,89 L137,113 L142,118 L154,129 L157,132 L157,134 L161,136 L192,167 L197,172 L205,180 L211,185 L216,190 L218,194 L220,194 L225,200 L233,207 L238,212 L265,239 L270,244 L309,283 L310,287 L303,289 L125,289 L87,290 L31,290 L22,287 L10,274 L-2,263 L-11,254 L-17,247 L-25,240 L-29,235 L-37,228 L-45,220 L-51,215 L-56,210 L-61,206 L-66,201 L-72,194 L-80,187 L-81,184 L-85,182 L-93,175 L-99,168 L-103,165 L-103,163 L-107,161 L-120,148 L-125,143 L-128,139 L-130,132 L-130,125 L-127,118 L-118,108 L-111,100 L-101,89 L-96,84 L-87,75 L-82,70 L-75,64 L-71,59 L-69,59 L-67,55 L-57,46 L-50,38 L-42,31 L-22,11 L-14,5 L-5,1 Z " fill="#000000" transform="translate(494,375)"/>
</svg>
