<?xml version="1.0" encoding="UTF-8"?>
<!-- Generator: visioncortex VTracer 0.6.12 -->
<svg version="1.1" xmlns="http://www.w3.org/2000/svg" width="1080" height="1308">
<path d="M0,0 L9,1 L31,10 L47,15 L80,28 L91,32 L107,38 L131,46 L135,48 L137,51 L138,59 L134,74 L128,90 L122,102 L116,124 L111,141 L106,151 L100,159 L93,167 L84,175 L73,182 L60,187 L48,190 L35,190 L19,188 L1,181 L-10,174 L-21,165 L-30,154 L-37,143 L-42,131 L-45,107 L-45,94 L-40,78 L-32,62 L-21,39 L-17,30 L-12,20 L-6,6 L-2,1 Z M15,25 L10,28 L5,39 L2,50 L3,55 L9,60 L24,66 L39,70 L52,75 L62,78 L74,83 L95,92 L101,93 L106,90 L110,84 L113,74 L115,68 L115,63 L109,58 L90,50 L72,44 L57,38 L21,26 Z M-3,79 L-9,84 L-13,92 L-14,101 L-10,105 L-7,106 L11,106 L44,107 L64,107 L68,105 L66,101 L41,92 L19,84 L3,79 Z M9,125 L-7,126 L-10,128 L-10,133 L-2,144 L2,149 L9,155 L20,159 L33,162 L47,161 L62,155 L73,147 L79,140 L81,136 L81,130 L78,127 L75,126 Z " fill="#000000" transform="translate(866,29)"/>
<path d="M0,0 L7,0 L23,6 L50,16 L76,25 L94,32 L111,38 L131,46 L136,49 L137,52 L137,60 L133,70 L128,82 L126,88 L125,113 L121,127 L117,136 L111,148 L102,158 L97,163 L88,170 L76,177 L56,183 L49,184 L32,184 L20,181 L1,174 L-11,165 L-11,163 L-16,161 L-25,150 L-30,141 L-34,133 L-37,123 L-40,107 L-40,96 L-38,82 L-30,60 L-24,48 L-11,19 L-6,7 L-2,1 Z M14,23 L9,25 L5,31 L2,43 L2,50 L7,54 L20,59 L32,63 L41,65 L52,70 L78,80 L91,85 L100,87 L105,82 L112,68 L113,61 L108,56 L97,51 L71,42 L51,35 L39,30 L28,27 L19,23 Z M2,72 L-5,78 L-9,89 L-9,95 L-6,98 L0,99 L18,100 L32,100 L37,99 L46,99 L52,100 L69,100 L71,99 L70,94 L46,85 L14,73 L10,72 Z M2,116 L-5,119 L-7,121 L-5,130 L1,138 L10,146 L25,153 L34,154 L53,154 L65,150 L76,143 L81,138 L88,129 L89,127 L89,120 L85,118 L69,117 L21,116 Z " fill="#000000" transform="translate(684,31)"/>
<path d="M0,0 L8,1 L36,13 L57,22 L81,32 L96,38 L113,45 L125,49 L137,55 L139,59 L138,68 L129,90 L123,102 L117,116 L108,137 L102,149 L93,161 L83,170 L67,181 L47,187 L42,188 L24,188 L3,183 L-14,174 L-25,165 L-34,155 L-40,145 L-45,131 L-48,120 L-48,93 L-45,81 L-39,68 L-31,53 L-27,43 L-23,34 L-14,17 L-10,10 L-4,2 Z M11,24 L6,29 L0,38 L-4,48 L-4,57 L-1,60 L8,64 L28,71 L45,79 L61,85 L86,94 L95,98 L103,98 L108,92 L114,80 L116,74 L116,69 L110,64 L85,53 L75,49 L63,44 L37,33 L17,25 Z M-6,76 L-11,79 L-17,88 L-19,93 L-19,101 L-15,105 L37,107 L47,107 L58,106 L61,104 L59,100 L48,95 L30,88 L19,83 L-1,76 Z M-6,123 L-14,126 L-15,132 L-8,142 L-4,147 L4,153 L15,158 L24,160 L39,160 L47,158 L56,154 L68,147 L76,137 L78,133 L78,127 L72,124 L47,123 Z " fill="#000000" transform="translate(395,35)"/>
<path d="M0,0 L38,0 L93,2 L101,6 L103,10 L104,31 L102,97 L101,165 L100,199 L98,285 L97,348 L96,412 L96,522 L97,535 L103,566 L108,591 L114,624 L118,644 L124,675 L128,695 L136,737 L141,759 L145,778 L148,794 L152,815 L157,831 L160,848 L163,859 L167,879 L172,903 L178,931 L181,944 L183,958 L188,979 L191,993 L191,1007 L187,1011 L179,1012 L90,1011 L51,1010 L32,1008 L22,1010 L-17,1009 L-24,1008 L-46,1008 L-53,1004 L-56,999 L-59,989 L-64,980 L-75,952 L-80,941 L-85,928 L-92,910 L-99,893 L-104,881 L-110,864 L-116,851 L-120,840 L-127,822 L-133,812 L-138,809 L-161,808 L-169,811 L-172,817 L-175,826 L-183,846 L-189,864 L-194,880 L-197,888 L-197,899 L-189,920 L-183,935 L-176,951 L-170,967 L-164,981 L-161,991 L-158,1001 L-160,1006 L-169,1007 L-206,1005 L-224,1006 L-415,1006 L-421,1003 L-423,999 L-422,989 L-414,965 L-408,951 L-402,932 L-392,900 L-388,889 L-387,886 L-387,877 L-391,866 L-397,849 L-402,837 L-408,821 L-413,809 L-418,804 L-420,803 L-438,802 L-453,802 L-478,801 L-507,801 L-513,804 L-521,820 L-528,839 L-535,856 L-542,876 L-550,896 L-555,909 L-561,925 L-564,936 L-568,948 L-575,967 L-579,976 L-583,987 L-589,999 L-593,1002 L-599,1003 L-708,1002 L-717,1003 L-741,1000 L-751,998 L-753,996 L-754,987 L-751,976 L-748,960 L-745,951 L-734,923 L-729,911 L-719,887 L-712,868 L-703,845 L-697,829 L-692,817 L-684,796 L-677,781 L-670,758 L-662,740 L-654,719 L-651,712 L-645,695 L-640,685 L-632,664 L-624,643 L-613,617 L-605,596 L-600,584 L-597,574 L-592,564 L-584,545 L-577,529 L-570,512 L-567,505 L-563,496 L-561,484 L-561,458 L-560,411 L-560,360 L-562,353 L-565,352 L-585,351 L-605,352 L-610,356 L-610,420 L-613,426 L-617,429 L-644,430 L-651,432 L-653,436 L-653,491 L-654,517 L-653,552 L-653,576 L-657,580 L-659,581 L-714,581 L-719,579 L-722,576 L-725,566 L-739,564 L-752,563 L-757,560 L-759,556 L-759,537 L-757,512 L-757,502 L-759,498 L-763,496 L-772,495 L-789,495 L-796,499 L-803,498 L-807,492 L-808,488 L-808,478 L-803,445 L-802,439 L-802,430 L-806,427 L-824,422 L-828,418 L-829,415 L-829,401 L-823,354 L-817,315 L-812,295 L-806,277 L-800,266 L-792,256 L-779,236 L-769,226 L-767,226 L-767,224 L-758,218 L-754,217 L-738,217 L-721,223 L-713,223 L-702,216 L-695,210 L-683,204 L-674,201 L-661,201 L-645,206 L-629,216 L-626,218 L-626,220 L-622,222 L-613,230 L-606,238 L-600,243 L-593,244 L-573,244 L-561,243 L-558,236 L-557,228 L-555,182 L-554,158 L-547,129 L-536,106 L-530,98 L-522,87 L-515,79 L-507,72 L-500,66 L-487,56 L-484,53 L-482,41 L-482,22 L-479,12 L-475,9 L-447,7 L-426,7 L-383,8 L-366,8 L-359,10 L-356,14 L-355,22 L-355,43 L-359,169 L-360,193 L-360,208 L-361,228 L-361,249 L-363,352 L-363,396 L-364,413 L-364,478 L-363,494 L-354,518 L-349,531 L-344,543 L-339,558 L-330,578 L-325,591 L-318,607 L-313,620 L-310,626 L-307,638 L-302,639 L-298,635 L-292,621 L-288,611 L-284,599 L-276,580 L-273,571 L-265,548 L-264,544 L-263,498 L-262,477 L-262,451 L-260,363 L-260,341 L-259,334 L-258,277 L-257,209 L-256,176 L-254,157 L-247,128 L-241,110 L-233,97 L-226,87 L-218,77 L-206,66 L-193,56 L-187,52 L-184,47 L-182,31 L-179,9 L-175,3 L-174,2 L-108,2 L-101,3 L-75,4 L-65,5 L-60,11 L-59,17 L-59,96 L-52,94 L-45,85 L-38,77 L-30,70 L-15,55 L-9,43 L-7,25 L-7,9 L-4,2 Z M-151,28 L-156,30 L-160,34 L-161,38 L-162,62 L-166,69 L-173,75 L-185,82 L-197,93 L-205,102 L-213,116 L-219,129 L-222,138 L-225,150 L-227,158 L-230,180 L-232,227 L-232,261 L-233,277 L-233,311 L-234,332 L-235,427 L-236,472 L-236,532 L-235,538 L-235,554 L-241,570 L-250,594 L-256,610 L-259,618 L-264,629 L-271,649 L-277,664 L-283,683 L-283,692 L-278,707 L-274,715 L-269,729 L-264,741 L-260,751 L-255,763 L-252,769 L-246,772 L-219,773 L-107,775 L-38,776 L-5,776 L0,774 L1,773 L1,766 L-3,752 L-11,732 L-18,712 L-24,695 L-29,683 L-35,667 L-41,652 L-47,636 L-53,620 L-61,600 L-65,587 L-68,582 L-72,569 L-80,549 L-86,531 L-91,521 L-92,517 L-91,426 L-91,287 L-90,228 L-90,201 L-89,142 L-89,106 L-88,71 L-89,37 L-92,32 L-94,30 L-99,29 Z M37,27 L21,28 L17,33 L16,37 L15,54 L13,64 L4,74 L0,77 L0,79 L-4,81 L-10,86 L-17,94 L-24,103 L-32,114 L-42,131 L-48,140 L-59,174 L-62,191 L-64,235 L-66,341 L-66,359 L-67,423 L-68,461 L-67,504 L-65,516 L-59,533 L-55,542 L-46,567 L-37,591 L-29,612 L-21,634 L-17,645 L-9,666 L-4,678 L6,704 L14,725 L23,749 L27,758 L31,769 L35,775 L44,778 L85,779 L108,779 L112,777 L114,772 L113,763 L106,727 L101,702 L99,687 L97,680 L95,668 L92,655 L89,635 L87,626 L84,604 L81,588 L75,560 L70,536 L70,508 L71,492 L71,464 L72,413 L72,358 L74,285 L75,234 L76,171 L77,127 L78,108 L78,84 L79,41 L78,34 L72,29 Z M-447,31 L-454,34 L-456,38 L-459,66 L-466,75 L-477,82 L-488,92 L-496,99 L-501,105 L-501,107 L-503,107 L-509,115 L-516,126 L-521,136 L-526,150 L-527,153 L-528,176 L-528,205 L-523,206 L-519,202 L-513,191 L-506,181 L-498,170 L-489,160 L-484,155 L-476,147 L-471,143 L-465,144 L-463,150 L-468,162 L-477,178 L-485,191 L-490,201 L-493,206 L-496,213 L-504,227 L-511,241 L-522,257 L-528,265 L-531,267 L-538,268 L-565,268 L-601,269 L-675,269 L-681,277 L-687,293 L-690,307 L-689,320 L-684,324 L-507,324 L-498,321 L-492,314 L-486,304 L-478,288 L-473,280 L-465,264 L-454,245 L-444,226 L-435,210 L-421,185 L-418,181 L-413,181 L-412,182 L-412,199 L-417,224 L-423,235 L-431,250 L-437,261 L-445,278 L-453,292 L-461,307 L-465,317 L-473,328 L-479,339 L-486,348 L-488,349 L-507,350 L-516,350 L-526,351 L-531,355 L-533,371 L-534,412 L-534,458 L-536,505 L-539,514 L-551,539 L-556,551 L-561,562 L-565,575 L-569,584 L-578,607 L-588,631 L-596,650 L-607,679 L-611,688 L-623,717 L-629,732 L-635,748 L-638,756 L-638,762 L-633,765 L-555,767 L-485,768 L-383,770 L-369,770 L-335,771 L-287,771 L-284,769 L-284,762 L-290,747 L-294,737 L-298,730 L-302,720 L-310,706 L-314,690 L-321,673 L-328,654 L-333,642 L-340,628 L-347,608 L-353,595 L-360,577 L-368,556 L-375,538 L-381,523 L-386,513 L-392,497 L-393,480 L-392,467 L-391,421 L-391,409 L-390,395 L-390,373 L-389,316 L-389,287 L-388,246 L-387,181 L-386,158 L-385,77 L-384,35 L-388,32 L-402,31 Z M-664,220 L-674,224 L-687,233 L-688,240 L-684,243 L-678,244 L-640,245 L-632,242 L-631,238 L-635,233 L-648,223 L-658,220 Z M-750,233 L-760,241 L-769,251 L-777,265 L-782,273 L-794,299 L-796,312 L-800,329 L-803,355 L-807,390 L-807,406 L-802,407 L-799,404 L-798,401 L-795,362 L-791,329 L-790,323 L-784,323 L-780,327 L-779,330 L-779,350 L-781,372 L-785,412 L-787,435 L-789,450 L-789,469 L-785,473 L-771,476 L-760,477 L-755,475 L-753,472 L-750,444 L-747,411 L-745,396 L-743,393 L-737,394 L-735,398 L-735,438 L-737,457 L-739,484 L-741,505 L-742,536 L-742,542 L-739,545 L-736,546 L-728,546 L-723,543 L-721,536 L-720,467 L-719,423 L-718,401 L-716,397 L-709,398 L-705,402 L-704,406 L-704,438 L-705,463 L-705,497 L-706,534 L-705,557 L-704,560 L-701,562 L-690,563 L-678,561 L-676,559 L-675,554 L-674,531 L-674,507 L-673,413 L-673,400 L-672,379 L-669,372 L-660,371 L-655,373 L-653,379 L-653,407 L-648,412 L-639,413 L-629,413 L-626,411 L-626,398 L-629,359 L-632,354 L-636,352 L-650,351 L-676,352 L-682,356 L-683,358 L-683,368 L-682,373 L-682,388 L-683,399 L-686,406 L-692,407 L-697,402 L-698,399 L-700,368 L-703,353 L-708,331 L-708,311 L-705,299 L-703,286 L-701,277 L-701,271 L-704,269 L-711,269 L-719,273 L-722,275 L-722,277 L-726,279 L-733,289 L-742,308 L-748,333 L-750,342 L-752,357 L-757,382 L-762,404 L-762,406 L-768,405 L-769,403 L-769,389 L-768,386 L-766,369 L-764,358 L-761,338 L-758,317 L-754,301 L-750,291 L-745,283 L-736,272 L-728,262 L-711,254 L-710,253 L-710,248 L-718,243 L-731,238 L-741,233 Z M-645,798 L-653,800 L-657,805 L-664,820 L-668,832 L-674,847 L-683,871 L-691,892 L-696,903 L-701,918 L-704,928 L-709,940 L-717,961 L-716,967 L-711,970 L-668,971 L-624,972 L-618,969 L-612,961 L-602,936 L-599,930 L-595,918 L-590,907 L-585,895 L-580,882 L-574,869 L-567,851 L-558,825 L-552,809 L-552,802 L-555,800 L-560,799 L-626,798 Z M-379,803 L-383,807 L-382,816 L-377,831 L-370,847 L-362,866 L-353,889 L-348,899 L-344,907 L-341,916 L-336,928 L-326,951 L-321,964 L-317,970 L-311,973 L-274,974 L-229,974 L-205,973 L-203,971 L-204,960 L-212,940 L-218,925 L-225,908 L-229,898 L-235,884 L-241,867 L-245,857 L-254,836 L-258,824 L-265,812 L-268,807 L-271,805 L-281,804 L-369,803 Z M-228,806 L-233,811 L-231,821 L-225,836 L-222,842 L-220,848 L-214,849 L-210,843 L-204,827 L-201,817 L-201,809 L-207,806 Z M-79,809 L-90,810 L-94,814 L-93,821 L-86,839 L-77,860 L-69,879 L-58,907 L-52,920 L-48,933 L-42,946 L-35,962 L-32,968 L-27,971 L12,973 L72,975 L77,972 L78,971 L78,965 L73,953 L67,937 L60,918 L49,890 L45,879 L40,868 L33,847 L26,830 L21,817 L17,813 L8,811 L-24,810 L-68,810 Z M58,813 L53,816 L52,817 L53,826 L58,839 L64,855 L71,873 L75,884 L82,902 L86,914 L89,923 L95,939 L99,947 L103,959 L108,969 L114,974 L123,976 L147,975 L152,972 L151,956 L149,944 L144,920 L140,898 L134,872 L132,857 L128,840 L126,828 L122,818 L119,815 L108,814 L78,814 L75,813 Z M-372,929 L-375,934 L-385,963 L-385,968 L-380,972 L-356,972 L-352,969 L-352,962 L-357,950 L-366,929 Z " fill="#000000" transform="translate(859,225)"/>
</svg>
