<?xml version="1.0" encoding="UTF-8"?>
<!-- Generator: visioncortex VTracer 0.6.12 -->
<svg version="1.1" xmlns="http://www.w3.org/2000/svg" width="1140" height="1170">
<path d="M0,0 L766,0 L772,1 L833,2 L866,2 L935,3 L996,3 L1131,4 L1137,5 L1137,1170 L427,1170 L425,1169 L411,1168 L364,1168 L258,1166 L226,1166 L174,1165 L145,1165 L103,1164 L76,1164 L6,1162 L-3,1161 L-3,70 L-2,68 L-1,24 Z M526,180 L515,181 L503,184 L487,192 L476,200 L468,208 L461,218 L453,234 L450,248 L450,274 L454,287 L458,296 L465,308 L476,320 L488,329 L503,336 L515,339 L534,340 L550,337 L560,333 L572,327 L585,315 L595,303 L600,293 L605,278 L606,271 L606,250 L603,236 L597,221 L590,211 L581,201 L574,195 L561,187 L550,183 L536,180 Z M648,289 L642,292 L632,301 L616,316 L608,323 L603,328 L596,335 L589,340 L585,345 L580,350 L575,354 L570,359 L565,365 L557,372 L548,381 L543,386 L530,397 L519,408 L511,415 L504,421 L499,426 L491,434 L485,439 L480,444 L471,453 L463,460 L446,476 L441,481 L431,490 L420,502 L416,509 L405,517 L404,522 L410,531 L422,545 L434,559 L440,566 L447,567 L463,552 L470,546 L475,541 L486,530 L494,523 L504,512 L502,505 L511,504 L517,500 L528,490 L536,483 L546,473 L546,471 L550,469 L555,465 L559,460 L564,456 L569,451 L583,437 L592,430 L597,431 L613,446 L630,462 L641,473 L646,478 L656,487 L663,493 L667,498 L674,504 L679,509 L690,521 L698,528 L701,531 L703,531 L705,536 L707,539 L707,554 L704,573 L702,591 L696,632 L694,648 L691,670 L687,697 L683,729 L682,733 L682,746 L689,750 L719,750 L736,751 L737,755 L737,862 L736,929 L736,1006 L740,1011 L758,1012 L802,1012 L806,1009 L807,1003 L808,962 L808,919 L809,889 L810,796 L811,762 L814,753 L823,752 L840,753 L843,755 L844,758 L844,799 L843,826 L843,888 L842,959 L842,991 L843,1009 L847,1012 L850,1013 L873,1013 L877,1014 L907,1014 L912,1010 L913,1006 L914,985 L915,948 L915,884 L917,767 L918,757 L919,755 L922,754 L983,754 L987,752 L988,746 L986,736 L977,709 L968,682 L962,667 L955,653 L951,642 L943,627 L935,611 L927,594 L923,587 L915,572 L908,561 L902,551 L895,539 L888,528 L881,518 L878,513 L867,498 L855,482 L846,470 L839,461 L828,448 L820,438 L814,431 L807,423 L802,418 L786,401 L776,391 L769,383 L761,376 L751,367 L744,360 L734,352 L720,340 L714,336 L703,326 L695,320 L685,313 L674,304 L658,294 L649,289 Z M559,505 L551,512 L544,518 L544,520 L541,521 L534,530 L526,536 L521,540 L514,548 L506,556 L498,566 L492,576 L488,589 L487,602 L490,615 L496,627 L500,635 L499,640 L491,639 L482,638 L444,638 L427,639 L411,642 L403,642 L401,641 L397,624 L393,594 L392,586 L390,573 L385,567 L374,567 L369,574 L365,588 L361,598 L357,612 L352,625 L349,636 L343,654 L340,662 L337,683 L337,700 L340,716 L345,726 L353,735 L363,742 L373,747 L385,750 L410,753 L420,752 L430,753 L469,750 L484,748 L514,743 L527,740 L541,734 L550,730 L561,723 L573,711 L579,702 L584,691 L587,680 L587,662 L585,648 L576,627 L565,612 L556,602 L544,587 L542,583 L542,577 L549,566 L564,543 L570,534 L576,524 L575,516 L564,505 Z M245,579 L239,581 L231,582 L217,589 L209,595 L202,601 L195,610 L189,621 L184,638 L183,649 L184,661 L187,673 L195,689 L206,701 L214,708 L230,716 L235,718 L242,719 L262,719 L271,718 L287,711 L297,704 L302,700 L310,690 L318,676 L321,667 L322,658 L322,640 L318,624 L309,608 L300,597 L290,590 L280,584 L268,580 L262,579 Z M186,729 L184,732 L183,740 L183,770 L184,781 L184,796 L187,801 L197,807 L207,810 L226,818 L253,827 L256,829 L274,832 L288,836 L321,842 L336,844 L347,846 L371,848 L377,849 L428,851 L463,849 L496,846 L509,844 L521,842 L524,841 L535,840 L541,838 L566,833 L587,827 L600,822 L617,817 L632,811 L637,806 L638,799 L639,751 L638,742 L636,738 L632,737 L606,747 L594,752 L585,755 L578,756 L575,758 L563,761 L549,765 L539,767 L529,769 L514,773 L501,774 L496,776 L468,779 L426,781 L401,781 L379,780 L346,776 L333,773 L322,772 L306,768 L292,765 L266,758 L253,754 L231,746 L211,738 L197,731 L192,729 Z M19,806 L18,810 L19,811 L21,820 L25,819 L27,815 L20,806 Z M542,984 L542,986 L544,986 L544,984 Z M156,1012 L156,1015 L159,1014 L158,1012 Z " fill="#000000" transform="translate(3,0)"/>
<path d="M0,0 L8,0 L9,2 L-1,3 L-2,1 Z " fill="#000000" transform="translate(433,501)"/>
<path d="M0,0 L4,3 L0,4 Z " fill="#000000" transform="translate(458,502)"/>
<path d="M0,0 L13,1 L15,3 L14,7 L9,5 L-1,4 L-2,1 Z " fill="#000000" transform="translate(466,503)"/>
</svg>
