<?xml version="1.0" encoding="UTF-8"?>
<!-- Generator: visioncortex VTracer 0.6.12 -->
<svg version="1.1" xmlns="http://www.w3.org/2000/svg" width="1125" height="1122">
<path d="M0,0 L4,1 L2,2 Z " fill="#000000" transform="translate(32,0)"/>
<path d="M0,0 L35,0 L33,2 L22,3 L1,2 Z " fill="#000000" transform="translate(43,0)"/>
<path d="M0,0 L3,1 Z " fill="#000000" transform="translate(95,0)"/>
<path d="M0,0 L6,0 L6,1 L0,1 Z " fill="#000000" transform="translate(111,0)"/>
<path d="M0,0 L9,0 L9,1 L0,1 Z " fill="#000000" transform="translate(343,0)"/>
<path d="M0,0 L7,0 L4,2 Z " fill="#000000" transform="translate(362,0)"/>
<path d="M0,0 L29,0 L28,2 L2,2 Z " fill="#000000" transform="translate(371,0)"/>
<path d="M0,0 L23,0 L21,2 L2,2 Z " fill="#000000" transform="translate(406,0)"/>
<path d="M0,0 L3,1 Z " fill="#000000" transform="translate(435,0)"/>
<path d="M0,0 L6,0 L6,1 L0,1 Z " fill="#000000" transform="translate(439,0)"/>
<path d="M0,0 L8,0 L8,2 L2,2 Z " fill="#000000" transform="translate(454,0)"/>
<path d="M0,0 L12,0 L12,2 L7,6 L7,15 L9,24 L11,57 L11,67 L10,79 L11,89 L10,104 L9,110 L9,375 L10,468 L10,711 L11,732 L10,742 L10,783 L9,800 L8,871 L8,888 L7,914 L9,950 L9,1053 L8,1057 L7,1094 L7,1110 L12,1115 L50,1115 L61,1116 L79,1116 L105,1117 L148,1118 L155,1117 L190,1117 L225,1118 L258,1117 L268,1118 L565,1118 L640,1119 L1099,1119 L1109,1117 L1112,1115 L1113,1112 L1113,1036 L1114,1004 L1115,988 L1115,973 L1114,945 L1114,914 L1113,901 L1112,897 L1113,881 L1114,874 L1115,846 L1115,818 L1116,790 L1115,765 L1114,755 L1114,710 L1115,682 L1115,572 L1117,560 L1116,558 L1116,495 L1115,481 L1115,449 L1114,440 L1116,428 L1115,401 L1115,252 L1113,245 L1114,186 L1113,180 L1113,172 L1114,169 L1114,52 L1116,30 L1115,16 L1113,11 L1102,8 L1075,8 L1064,7 L1050,7 L1044,6 L1012,6 L977,5 L795,5 L790,4 L752,4 L622,3 L505,3 L492,2 L491,0 L1125,0 L1125,538 L1123,539 L1123,544 L1125,545 L1125,686 L1121,687 L1123,691 L1125,692 L1125,1122 L0,1122 L0,272 L2,272 L2,267 L0,267 L0,231 L2,231 L2,228 L0,228 Z " fill="#000000" transform="translate(0,0)"/>
<path d="M0,0 L5,2 L8,7 L7,18 L5,34 L4,38 L4,52 L14,68 L19,83 L20,92 L17,108 L13,117 L7,126 L-5,139 L-19,147 L-27,151 L-36,153 L-54,154 L-70,150 L-80,145 L-88,139 L-94,132 L-98,128 L-107,109 L-109,95 L-109,83 L-105,67 L-99,55 L-97,42 L-97,16 L-98,7 L-96,3 L-91,2 L-55,3 L-16,3 L-3,1 Z M-78,13 L-85,17 L-86,20 L-86,34 L-83,39 L-79,42 L-17,42 L-12,39 L-9,34 L-8,25 L-11,16 L-16,13 Z " fill="#000000" transform="translate(890,120)"/>
<path d="M0,0 L20,0 L35,2 L54,8 L66,12 L80,20 L94,30 L101,36 L106,41 L112,48 L123,63 L132,80 L136,91 L139,98 L142,120 L142,141 L139,161 L135,174 L131,183 L122,199 L114,209 L110,215 L110,222 L114,227 L122,234 L138,247 L146,254 L154,264 L161,276 L167,284 L176,301 L180,314 L185,326 L187,332 L187,340 L181,344 L153,345 L136,344 L-59,344 L-84,343 L-168,342 L-170,340 L-171,328 L-163,305 L-158,292 L-153,285 L-147,274 L-139,264 L-130,253 L-125,247 L-117,240 L-108,232 L-97,224 L-94,220 L-94,214 L-100,205 L-105,196 L-109,189 L-114,179 L-119,164 L-123,145 L-123,116 L-120,99 L-116,89 L-112,79 L-103,62 L-91,46 L-79,33 L-68,24 L-57,17 L-36,7 L-11,1 Z M-56,87 L-59,89 L-61,100 L-61,150 L-62,169 L-62,194 L-60,199 L-58,201 L-53,201 L-50,197 L-49,193 L-49,167 L-48,158 L-48,119 L-49,113 L-49,91 L-52,87 Z M69,89 L66,94 L65,112 L65,136 L63,149 L64,165 L64,181 L65,197 L68,201 L73,201 L76,197 L77,192 L78,169 L78,95 L76,90 L75,89 Z M-1,204 L-17,205 L-31,208 L-49,214 L-58,219 L-61,222 L-62,225 L-63,243 L-62,255 L-63,286 L-64,305 L-61,313 L-55,317 L-50,318 L-29,318 L-4,319 L30,319 L58,318 L71,317 L76,312 L77,295 L77,227 L74,220 L67,215 L51,210 L42,207 L29,206 L20,204 Z M-118,257 L-119,258 L-119,263 L-117,265 L-113,264 L-114,258 Z " fill="#000000" transform="translate(832,322)"/>
<path d="M0,0 L22,1 L33,6 L40,10 L52,21 L57,25 L65,41 L68,55 L68,73 L64,85 L55,100 L46,110 L42,121 L43,131 L48,139 L53,143 L60,147 L71,150 L87,155 L100,163 L109,170 L114,183 L116,189 L117,208 L117,293 L116,319 L112,337 L105,354 L98,360 L85,369 L73,375 L70,381 L69,390 L70,408 L71,416 L71,435 L70,448 L70,509 L67,519 L63,525 L54,534 L46,538 L42,539 L21,539 L7,533 L6,530 L3,529 L-4,529 L-18,538 L-21,539 L-35,540 L-45,538 L-55,531 L-60,527 L-63,522 L-68,509 L-70,495 L-70,389 L-69,381 L-72,374 L-86,366 L-96,356 L-101,351 L-106,343 L-112,325 L-113,317 L-113,203 L-111,194 L-108,182 L-102,172 L-92,162 L-75,153 L-61,148 L-45,140 L-40,137 L-35,130 L-34,121 L-37,113 L-44,102 L-51,92 L-56,80 L-58,69 L-58,55 L-55,42 L-46,25 L-38,16 L-25,7 L-12,2 Z M-2,12 L-15,15 L-22,19 L-37,34 L-42,47 L-43,52 L-43,74 L-39,86 L-35,94 L-23,109 L-19,120 L-20,132 L-24,140 L-26,144 L-30,146 L-39,152 L-59,158 L-74,165 L-81,168 L-91,178 L-97,189 L-99,201 L-101,233 L-101,276 L-102,287 L-102,299 L-101,320 L-98,332 L-93,344 L-86,352 L-78,358 L-71,358 L-68,353 L-67,332 L-67,229 L-64,222 L-62,221 L-53,221 L-53,237 L-54,244 L-54,257 L-55,267 L-56,339 L-57,342 L-57,508 L-53,519 L-51,523 L-39,530 L-29,530 L-17,524 L-12,518 L-8,509 L-6,498 L-6,462 L-5,417 L-5,386 L-4,354 L-4,332 L-2,322 L1,319 L6,319 L9,324 L8,375 L6,426 L6,454 L5,502 L8,514 L11,521 L16,526 L22,530 L33,530 L43,527 L51,520 L55,514 L57,508 L58,498 L58,452 L59,321 L59,292 L60,228 L61,223 L70,224 L71,228 L70,268 L69,314 L69,346 L71,356 L73,358 L78,359 L86,355 L97,344 L102,334 L104,327 L105,315 L105,240 L106,209 L103,188 L97,178 L88,168 L71,160 L63,158 L54,154 L39,146 L30,135 L28,129 L28,120 L30,111 L42,92 L47,86 L51,78 L53,68 L53,57 L49,43 L43,31 L36,23 L26,16 L15,12 Z " fill="#000000" transform="translate(235,503)"/>
<path d="M0,0 L19,0 L35,7 L43,12 L49,17 L57,27 L65,43 L67,51 L67,65 L65,79 L59,91 L52,100 L46,107 L43,116 L43,130 L48,139 L60,146 L92,157 L101,163 L111,172 L115,180 L119,196 L119,208 L118,226 L119,252 L119,276 L118,286 L118,298 L117,311 L117,321 L112,339 L107,349 L100,358 L91,364 L81,370 L76,373 L74,373 L71,383 L70,394 L70,415 L71,427 L70,453 L70,498 L69,511 L64,524 L61,527 L59,527 L57,531 L52,535 L38,540 L25,540 L15,536 L2,528 L-4,528 L-14,535 L-19,538 L-23,539 L-40,538 L-48,535 L-59,526 L-66,515 L-68,502 L-68,427 L-67,401 L-68,381 L-71,373 L-77,369 L-83,366 L-94,357 L-104,344 L-110,327 L-111,316 L-111,240 L-110,196 L-108,186 L-101,172 L-95,165 L-84,157 L-69,150 L-53,145 L-39,137 L-34,130 L-33,127 L-33,117 L-36,109 L-43,99 L-52,86 L-56,75 L-57,68 L-57,58 L-53,40 L-46,27 L-37,17 L-25,8 L-14,3 Z M1,10 L-11,13 L-21,18 L-29,24 L-35,33 L-40,43 L-43,52 L-44,65 L-42,76 L-38,86 L-32,94 L-23,108 L-19,116 L-19,131 L-23,137 L-32,147 L-43,152 L-56,157 L-66,160 L-80,167 L-86,174 L-93,180 L-95,185 L-97,195 L-100,209 L-100,320 L-96,334 L-90,346 L-81,355 L-76,358 L-71,357 L-68,353 L-67,350 L-66,338 L-65,252 L-64,226 L-62,222 L-56,221 L-53,223 L-52,229 L-52,239 L-54,256 L-54,286 L-55,292 L-56,331 L-56,364 L-57,440 L-58,470 L-58,498 L-57,508 L-54,516 L-49,523 L-42,528 L-31,530 L-23,528 L-14,522 L-7,511 L-5,506 L-4,474 L-4,453 L-3,398 L-3,381 L-2,351 L-2,326 L0,321 L2,320 L8,320 L9,321 L9,335 L8,344 L7,390 L7,419 L6,451 L6,495 L7,509 L11,519 L18,527 L28,531 L38,529 L46,525 L53,516 L56,509 L57,504 L58,482 L59,394 L59,374 L60,323 L60,305 L61,274 L60,231 L62,223 L68,223 L70,227 L70,310 L69,327 L68,330 L68,353 L73,358 L80,358 L88,353 L89,350 L92,349 L92,347 L94,347 L99,340 L103,332 L105,321 L106,299 L106,193 L102,184 L96,174 L86,166 L63,156 L50,152 L41,146 L35,141 L30,130 L29,126 L29,119 L34,105 L45,91 L51,79 L54,68 L54,57 L52,45 L47,35 L39,24 L29,16 L16,11 L10,10 Z " fill="#000000" transform="translate(486,504)"/>
<path d="M0,0 L82,0 L90,5 L91,8 L91,86 L90,134 L90,182 L89,189 L89,248 L88,270 L87,323 L86,326 L86,347 L82,355 L77,360 L68,363 L56,361 L49,355 L43,343 L40,340 L35,341 L31,346 L28,354 L24,359 L17,362 L6,362 L-4,356 L-8,350 L-10,342 L-10,314 L-9,235 L-8,187 L-8,155 L-7,108 L-6,10 L-2,1 Z M18,23 L19,27 L22,27 L22,23 Z M55,300 L53,301 L54,306 L59,305 L58,301 Z " fill="#000000" transform="translate(796,681)"/>
</svg>
