<?xml version="1.0" encoding="UTF-8"?>
<!-- Generator: visioncortex VTracer 0.6.12 -->
<svg version="1.1" xmlns="http://www.w3.org/2000/svg" width="1119" height="1110">
<path d="M0,0 L1119,0 L1119,1110 L0,1110 Z M358,106 L346,107 L339,111 L337,123 L338,215 L341,222 L347,226 L374,227 L394,227 L397,222 L400,213 L404,211 L464,211 L481,212 L494,218 L500,223 L506,233 L512,248 L519,263 L529,286 L533,303 L533,333 L532,373 L532,431 L531,478 L530,578 L522,603 L514,638 L510,665 L507,698 L506,735 L507,777 L509,805 L510,835 L510,860 L509,886 L505,930 L500,969 L496,995 L489,1041 L491,1048 L496,1053 L500,1054 L540,1055 L619,1055 L624,1052 L628,1045 L629,1041 L625,1006 L622,983 L620,961 L618,936 L616,916 L614,875 L614,832 L616,791 L618,769 L618,702 L615,663 L610,631 L601,593 L597,578 L596,569 L598,348 L599,309 L604,286 L609,271 L614,259 L619,247 L623,238 L630,226 L640,213 L649,205 L665,197 L671,196 L691,195 L700,196 L712,200 L725,206 L733,211 L742,218 L749,225 L760,239 L768,254 L773,267 L777,286 L781,292 L784,294 L790,293 L796,286 L795,277 L786,251 L779,235 L770,216 L764,206 L754,191 L742,175 L735,168 L731,162 L726,157 L709,140 L695,129 L675,117 L661,112 L648,108 L567,107 L507,106 L496,108 L485,115 L476,123 L474,124 L430,124 L402,123 L399,119 L397,110 L394,107 L369,106 Z M59,200 L57,201 L56,209 L60,211 L64,204 L63,200 Z M78,439 L78,445 L80,449 L80,455 L77,458 L77,461 L82,459 L85,452 L85,446 L82,439 Z M62,443 L59,447 L59,454 L61,459 L65,460 L65,443 Z M501,622 Z M987,947 L986,950 L987,952 L990,951 L989,947 Z M250,1056 L249,1061 L251,1063 L255,1062 L256,1058 L255,1056 Z " fill="#000000" transform="translate(0,0)"/>
</svg>
