<?xml version="1.0" encoding="UTF-8"?>
<!-- Generator: visioncortex VTracer 0.6.12 -->
<svg version="1.1" xmlns="http://www.w3.org/2000/svg" width="447" height="1266">
<path d="M0,0 L13,1 L26,3 L34,5 L46,7 L67,15 L83,23 L90,29 L99,36 L112,49 L120,63 L122,71 L121,92 L117,100 L111,108 L97,122 L86,130 L81,136 L77,152 L71,167 L64,176 L58,183 L47,191 L27,199 L21,200 L6,200 L-9,197 L-21,192 L-32,184 L-39,178 L-39,176 L-41,176 L-51,159 L-56,144 L-56,115 L-63,104 L-70,97 L-79,82 L-85,73 L-88,63 L-88,46 L-86,39 L-80,31 L-78,31 L-77,28 L-75,28 L-74,25 L-72,25 L-71,22 L-57,13 L-46,9 L-27,3 L-16,1 Z M13,15 L7,18 L2,23 L0,27 L0,38 L5,46 L11,51 L21,54 L27,54 L35,49 L39,43 L40,35 L38,26 L30,17 L24,15 Z M-21,66 L-39,68 L-44,70 L-46,77 L-46,87 L-44,89 L-13,91 L12,93 L42,98 L65,105 L72,104 L75,97 L75,91 L72,86 L56,78 L35,72 L15,68 L1,66 Z M-39,115 L-41,116 L-43,124 L-43,137 L-40,151 L-31,166 L-26,171 L-19,177 L-8,183 L6,186 L19,186 L31,183 L45,176 L46,173 L49,172 L60,158 L63,151 L64,143 L64,132 L63,131 L56,131 L50,133 L37,135 L24,135 L9,133 L1,130 L-15,125 L-31,117 L-34,115 Z " fill="#000000" transform="translate(211,30)"/>
<path d="M0,0 L5,1 L14,11 L16,16 L22,18 L43,20 L60,23 L88,27 L121,31 L137,35 L143,44 L145,57 L148,66 L148,80 L152,110 L153,118 L154,138 L155,147 L157,188 L157,228 L156,274 L156,287 L154,303 L152,336 L152,350 L150,360 L148,388 L145,414 L141,420 L135,423 L133,423 L137,440 L141,452 L141,465 L135,481 L128,501 L124,510 L116,531 L110,538 L100,541 L100,552 L97,588 L97,605 L93,671 L93,681 L91,714 L90,734 L89,769 L87,794 L86,820 L84,848 L83,852 L81,903 L80,910 L78,970 L76,979 L72,981 L14,980 L-19,979 L-23,977 L-24,975 L-25,827 L-26,792 L-26,663 L-27,546 L-31,536 L-33,535 L-39,535 L-45,539 L-47,544 L-47,636 L-46,657 L-45,672 L-45,855 L-44,970 L-46,976 L-48,978 L-78,978 L-114,977 L-138,977 L-143,975 L-145,967 L-149,894 L-151,844 L-153,811 L-155,788 L-156,768 L-156,758 L-159,719 L-159,709 L-161,695 L-162,660 L-164,620 L-166,596 L-167,567 L-169,540 L-172,532 L-179,527 L-189,511 L-197,498 L-206,483 L-212,472 L-215,467 L-215,459 L-210,446 L-207,440 L-206,428 L-218,425 L-222,422 L-224,416 L-227,386 L-230,329 L-231,289 L-231,231 L-229,186 L-229,169 L-226,131 L-223,100 L-220,83 L-217,70 L-215,57 L-210,40 L-205,37 L-185,34 L-153,28 L-137,24 L-114,20 L-106,16 L-97,10 L-87,3 L-85,2 L-77,2 L-66,10 L-56,18 L-44,27 L-38,27 L-26,19 L-15,10 L-8,5 L-6,5 L-6,3 Z M-84,18 L-92,24 L-99,30 L-100,35 L-90,50 L-78,69 L-66,87 L-60,87 L-57,79 L-56,70 L-61,60 L-61,49 L-58,40 L-59,34 L-69,25 L-79,18 Z M-5,20 L-16,29 L-26,36 L-31,41 L-31,66 L-32,69 L-33,88 L-38,99 L-46,115 L-54,133 L-59,146 L-60,147 L-66,147 L-74,142 L-76,143 L-68,152 L-63,157 L-61,161 L-61,181 L-60,223 L-60,265 L-57,270 L-53,269 L-52,267 L-53,221 L-53,181 L-51,171 L-47,165 L-37,158 L-31,153 L-30,148 L-36,149 L-46,157 L-51,157 L-52,156 L-51,144 L-43,125 L-34,106 L-30,97 L-24,87 L-18,77 L-10,64 L-2,50 L6,38 L10,29 L4,21 L2,20 Z M55,78 L42,90 L32,98 L22,105 L13,113 L3,119 L-8,128 L-14,135 L-20,138 L-28,144 L-29,148 L-23,147 L-15,140 L-10,135 L-1,129 L10,119 L18,113 L18,111 L23,109 L39,97 L39,95 L43,93 L51,87 L58,81 L59,78 Z M-152,81 L-151,85 L-140,94 L-130,102 L-128,104 L-124,104 L-125,99 L-140,87 L-147,81 Z M-96,126 L-94,130 L-89,134 L-85,135 L-87,130 Z M-83,136 L-82,140 L-77,141 L-79,137 Z M-42,178 L-44,180 L-44,186 L-40,189 L-35,188 L-33,186 L-33,180 L-36,178 Z M-41,221 L-42,222 L-42,227 L-38,230 L-33,228 L-32,225 L-35,221 Z M-41,260 L-42,266 L-37,270 L-32,268 L-31,265 L-33,261 L-35,260 Z M-150,276 L-154,279 L-155,282 L-155,308 L-150,312 L-148,313 L-97,315 L-81,315 L-74,312 L-73,311 L-73,286 L-75,280 L-78,279 L-102,277 L-123,277 L-134,276 Z M-18,281 L-21,284 L-20,297 L-19,310 L-18,315 L-15,317 L-9,318 L51,320 L76,320 L81,315 L82,308 L82,289 L80,285 L72,283 L34,282 L9,281 Z M-58,328 L-59,330 L-59,451 L-57,456 L-53,455 L-52,453 L-51,435 L-51,330 L-53,328 Z M108,425 L106,432 L103,463 L101,498 L100,511 L104,513 L109,505 L117,485 L125,460 L124,450 L115,426 L114,425 Z M-183,426 L-186,428 L-191,441 L-194,452 L-196,457 L-196,466 L-191,476 L-178,499 L-173,502 L-170,499 L-174,433 L-176,427 Z " fill="#000000" transform="translate(262,227)"/>
</svg>
