<?xml version="1.0" encoding="UTF-8"?>
<!-- Generator: visioncortex VTracer 0.6.12 -->
<svg version="1.1" xmlns="http://www.w3.org/2000/svg" width="1140" height="1143">
<path d="M0,0 L62,0 L61,3 L59,4 L37,5 L0,5 Z " fill="#000000" transform="translate(0,0)"/>
<path d="M0,0 L271,0 L270,2 L229,3 L142,4 L4,4 L0,2 Z " fill="#000000" transform="translate(69,0)"/>
<path d="M0,0 L7,0 L7,1 L0,1 Z " fill="#000000" transform="translate(346,0)"/>
<path d="M0,0 L5,0 L5,310 L3,307 L2,249 L1,46 Z " fill="#000000" transform="translate(1135,0)"/>
<path d="M0,0 L87,0 L91,4 L92,92 L92,126 L94,226 L94,283 L95,428 L95,467 L94,508 L90,512 L10,512 L-190,515 L-225,515 L-261,516 L-303,516 L-365,517 L-391,517 L-537,519 L-586,519 L-593,520 L-647,520 L-703,521 L-733,521 L-800,522 L-845,522 L-853,523 L-854,525 L-854,591 L-853,772 L-852,842 L-851,900 L-850,958 L-851,973 L-857,975 L-886,974 L-896,973 L-898,969 L-898,803 L-899,774 L-899,735 L-900,660 L-900,617 L-901,585 L-901,534 L-902,488 L-902,453 L-903,335 L-903,288 L-904,206 L-905,164 L-905,14 L-898,11 L-866,11 L-841,10 L-718,9 L-648,8 L-475,6 L-458,6 L-419,5 L-398,5 L-343,4 L-236,3 L-207,3 L-190,2 L-172,2 L-101,1 Z M42,29 L3,30 L-96,31 L-142,32 L-165,32 L-203,33 L-311,34 L-334,34 L-343,35 L-388,35 L-435,36 L-571,38 L-610,38 L-645,39 L-782,39 L-840,40 L-856,40 L-858,43 L-858,146 L-857,327 L-857,427 L-856,483 L-854,489 L-852,491 L-761,490 L-717,490 L-664,489 L-589,488 L-498,487 L-444,487 L-394,486 L-353,486 L-337,485 L-195,484 L-123,483 L-103,483 L-52,482 L59,481 L63,479 L64,477 L64,441 L63,389 L63,358 L62,306 L61,143 L60,69 L59,31 L58,30 Z " fill="#000000" transform="translate(974,92)"/>
<path d="M0,0 L20,0 L37,4 L54,12 L65,21 L72,28 L79,38 L86,51 L91,70 L91,88 L89,103 L80,124 L68,138 L63,143 L52,152 L45,156 L42,153 L42,146 L46,134 L50,130 L58,119 L64,110 L70,93 L70,75 L66,58 L60,45 L52,35 L41,28 L33,24 L18,21 L-9,22 L-18,27 L-25,30 L-34,37 L-42,47 L-51,68 L-51,92 L-49,100 L-44,112 L-39,120 L-39,122 L-35,124 L-28,131 L-12,139 L4,143 L17,142 L23,125 L31,111 L37,103 L42,98 L55,87 L61,85 L64,88 L64,96 L61,104 L55,114 L48,122 L43,131 L39,141 L37,150 L39,173 L43,183 L50,195 L58,204 L69,211 L78,215 L90,218 L107,218 L119,214 L129,209 L138,202 L146,193 L151,185 L156,169 L156,163 L161,157 L156,155 L146,149 L134,138 L127,130 L119,116 L117,111 L118,107 L124,108 L133,114 L143,123 L150,126 L155,132 L174,141 L182,143 L196,144 L200,146 L201,150 L200,162 L198,164 L186,164 L176,163 L179,170 L177,179 L171,194 L163,207 L154,217 L146,224 L135,231 L131,234 L122,236 L120,237 L103,239 L89,239 L77,237 L61,230 L52,225 L39,214 L31,204 L23,190 L20,183 L18,173 L15,164 L-4,163 L-11,161 L-20,158 L-36,150 L-50,138 L-60,124 L-67,110 L-70,97 L-71,89 L-71,77 L-70,65 L-68,60 L-66,52 L-60,40 L-51,27 L-44,20 L-33,12 L-29,9 L-16,4 L-7,1 Z M163,159 L164,162 L170,163 L170,160 Z " fill="#000000" transform="translate(388,240)"/>
<path d="M0,0 L17,1 L29,4 L43,9 L54,16 L62,23 L67,28 L73,35 L81,48 L85,61 L87,69 L87,94 L83,109 L78,121 L69,135 L62,143 L46,154 L36,159 L28,162 L7,165 L0,164 L-16,161 L-31,156 L-41,150 L-53,140 L-61,130 L-66,123 L-70,114 L-69,109 L-68,108 L-60,108 L-63,105 L-75,101 L-77,100 L-95,99 L-96,98 L-97,85 L-99,86 L-101,95 L-103,107 L-108,121 L-114,131 L-120,139 L-128,147 L-139,155 L-148,154 L-148,169 L-145,182 L-138,196 L-128,207 L-128,209 L-123,211 L-117,215 L-101,221 L-82,222 L-70,220 L-58,215 L-46,207 L-35,193 L-31,185 L-28,176 L-26,166 L-23,163 L-17,164 L-7,166 L-6,173 L-10,188 L-15,199 L-21,209 L-33,223 L-46,233 L-67,241 L-70,242 L-82,243 L-97,243 L-114,239 L-128,233 L-139,225 L-151,213 L-159,201 L-165,188 L-168,164 L-167,151 L-165,136 L-158,121 L-152,112 L-145,103 L-137,96 L-132,92 L-129,93 L-129,103 L-135,119 L-139,125 L-142,132 L-143,134 L-143,141 L-139,137 L-135,126 L-127,110 L-122,98 L-121,92 L-121,77 L-124,65 L-130,51 L-139,40 L-145,35 L-154,29 L-165,25 L-176,23 L-184,23 L-202,27 L-212,32 L-222,40 L-229,47 L-236,59 L-239,67 L-241,77 L-244,80 L-253,78 L-259,73 L-259,65 L-256,53 L-246,37 L-235,25 L-227,18 L-210,9 L-198,5 L-182,3 L-168,4 L-149,10 L-139,15 L-131,21 L-121,30 L-115,37 L-108,49 L-103,63 L-99,81 L-95,80 L-93,79 L-82,79 L-64,81 L-55,86 L-48,89 L-37,96 L-24,109 L-15,123 L-13,131 L-13,136 L-18,137 L-32,128 L-38,123 L-36,127 L-27,134 L-17,139 L-8,142 L-2,143 L18,143 L28,140 L42,132 L54,121 L62,108 L66,92 L66,73 L64,64 L61,55 L55,45 L48,37 L40,31 L29,25 L17,22 L-7,22 L-20,27 L-33,35 L-38,40 L-40,40 L-42,45 L-47,52 L-52,64 L-55,76 L-58,79 L-68,78 L-74,75 L-74,67 L-71,55 L-63,39 L-57,31 L-48,21 L-34,11 L-21,5 Z " fill="#000000" transform="translate(762,237)"/>
<path d="M0,0 L1,0 L1,13 L0,13 Z " fill="#000000" transform="translate(1139,311)"/>
<path d="M0,0 L12,2 L30,8 L40,13 L47,17 L56,24 L66,36 L72,46 L76,55 L76,60 L74,61 L68,61 L56,52 L49,49 L42,41 L33,33 L20,26 L11,23 L-2,21 L-4,19 L-4,4 Z " fill="#000000" transform="translate(487,314)"/>
<path d="M0,0 L2,2 L2,10 L0,10 Z " fill="#000000" transform="translate(0,574)"/>
<path d="M0,0 L2,2 L2,13 L3,27 L3,77 L4,329 L5,460 L5,497 L6,547 L0,547 Z " fill="#000000" transform="translate(0,596)"/>
<path d="M0,0 L5,1 L8,10 L21,27 L30,39 L38,50 L47,62 L58,76 L65,86 L74,96 L81,107 L87,114 L95,125 L105,138 L115,152 L129,170 L140,184 L146,191 L147,194 L148,226 L148,311 L149,352 L149,372 L145,376 L31,376 L-106,377 L-126,378 L-131,375 L-133,372 L-133,317 L-134,240 L-134,208 L-135,196 L-126,182 L-122,179 L-118,170 L-108,156 L-97,140 L-90,130 L-80,115 L-72,104 L-68,98 L-62,90 L-52,75 L-37,53 L-24,34 L-15,21 L-7,9 Z M25,200 L-38,201 L-41,203 L-42,208 L-42,274 L-41,289 L-38,292 L45,292 L49,288 L49,203 L46,201 Z " fill="#000000" transform="translate(901,680)"/>
<path d="M0,0 L5,1 L15,17 L24,28 L36,45 L47,59 L56,70 L64,81 L72,91 L79,101 L91,117 L97,125 L105,136 L112,145 L119,154 L131,170 L144,187 L148,194 L149,274 L149,312 L150,343 L150,365 L148,373 L145,375 L70,375 L-16,376 L-126,377 L-132,375 L-133,373 L-133,286 L-134,222 L-134,197 L-126,183 L-115,167 L-106,154 L-98,142 L-86,125 L-75,109 L-65,94 L-57,83 L-45,65 L-36,52 L-26,37 L-19,27 L-12,18 L-4,6 L-1,1 Z M-9,199 L-36,200 L-39,203 L-41,238 L-41,257 L-40,265 L-39,288 L-36,291 L-9,291 L51,290 L53,288 L54,283 L54,202 L53,199 Z " fill="#000000" transform="translate(600,684)"/>
<path d="M0,0 L3,1 L13,14 L19,22 L28,34 L37,45 L47,59 L57,72 L64,81 L64,83 L66,83 L76,97 L85,109 L98,126 L105,135 L112,145 L125,162 L133,173 L140,183 L144,192 L143,212 L143,252 L144,319 L144,370 L141,374 L122,373 L91,374 L-7,376 L-118,377 L-130,376 L-135,371 L-135,332 L-136,197 L-133,190 L-120,173 L-111,161 L-101,146 L-91,131 L-82,118 L-75,107 L-68,97 L-64,91 L-57,81 L-43,60 L-32,44 L-25,35 L-20,26 L-10,13 L-2,1 Z M19,196 L-14,198 L-41,199 L-43,201 L-43,220 L-42,288 L-40,290 L-16,290 L-12,288 L-5,289 L5,290 L22,290 L47,289 L48,287 L48,200 L46,197 L42,196 Z " fill="#000000" transform="translate(303,689)"/>
<path d="M0,0 L2,1 L2,3 L0,3 Z " fill="#000000" transform="translate(517,791)"/>
<path d="M0,0 L26,1 L26,8 L-43,8 L-161,9 L-225,10 L-236,11 L-743,11 L-739,9 L-680,8 L-556,7 L-519,7 L-421,6 L-399,5 L-379,5 L-331,4 L-294,4 L-179,2 L-68,1 Z " fill="#000000" transform="translate(1114,1132)"/>
<path d="M0,0 L7,0 L10,2 L-7,2 L-7,1 Z " fill="#000000" transform="translate(334,1141)"/>
<path d="M0,0 L8,0 L12,2 L-2,2 Z " fill="#000000" transform="translate(350,1141)"/>
<path d="M0,0 Z " fill="#000000" transform="translate(367,1142)"/>
</svg>
