<?xml version="1.0" encoding="UTF-8"?>
<!-- Generator: visioncortex VTracer 0.6.12 -->
<svg version="1.1" xmlns="http://www.w3.org/2000/svg" width="1128" height="1125">
<path d="M0,0 L1029,0 L1036,2 L1048,3 L1067,3 L1072,5 L1104,4 L1113,2 L1125,2 L1125,676 L1124,677 L1124,713 L1123,732 L1123,811 L1122,843 L1122,903 L1121,933 L1120,946 L1120,974 L1119,1019 L1118,1028 L1118,1060 L1117,1083 L1118,1113 L1121,1119 L1125,1122 L1125,1125 L929,1125 L924,1124 L920,1125 L900,1125 L900,1123 L814,1123 L810,1122 L783,1122 L768,1121 L764,1122 L742,1122 L735,1123 L724,1122 L629,1122 L613,1121 L570,1121 L562,1122 L540,1121 L529,1122 L513,1121 L490,1121 L439,1120 L429,1120 L419,1119 L373,1119 L344,1118 L297,1118 L292,1117 L217,1116 L151,1116 L133,1114 L49,1112 L36,1111 L13,1111 L0,1113 L-3,1112 L-3,1052 L-1,1052 L-2,1048 L-2,1041 L-3,1040 L-3,811 L-1,811 L-1,801 L-3,798 L-3,361 L-1,361 L0,164 L0,137 L1,134 L0,107 L0,86 L2,79 L1,71 L1,41 L0,37 L0,30 L1,21 L0,14 Z M941,10 L939,11 L939,15 L943,16 L945,15 L944,11 Z M57,99 L51,104 L45,108 L26,107 L20,106 L16,108 L15,110 L13,140 L13,179 L12,192 L11,267 L10,277 L10,345 L9,354 L9,400 L8,469 L8,499 L7,532 L7,570 L6,614 L6,650 L5,799 L5,812 L4,824 L5,862 L4,878 L3,937 L4,948 L3,963 L3,1074 L2,1087 L4,1095 L11,1101 L14,1103 L18,1103 L20,1095 L24,1094 L31,1094 L44,1098 L79,1097 L84,1098 L121,1098 L137,1097 L144,1098 L190,1098 L203,1099 L206,1100 L315,1100 L340,1102 L344,1101 L376,1101 L391,1104 L398,1103 L401,1102 L431,1102 L434,1103 L450,1103 L488,1102 L520,1103 L529,1102 L599,1102 L620,1103 L623,1104 L653,1104 L656,1103 L671,1102 L687,1104 L695,1102 L713,1103 L720,1104 L736,1102 L744,1103 L754,1105 L774,1105 L779,1106 L787,1106 L793,1105 L802,1105 L810,1106 L826,1106 L836,1105 L845,1105 L854,1107 L927,1107 L938,1106 L972,1106 L974,1105 L994,1105 L996,1106 L1026,1108 L1053,1108 L1058,1109 L1066,1109 L1082,1111 L1093,1111 L1101,1104 L1101,1089 L1100,1081 L1100,1061 L1101,1053 L1100,1047 L1101,1011 L1102,984 L1103,973 L1103,953 L1102,946 L1106,934 L1107,926 L1107,917 L1106,915 L1106,894 L1107,887 L1106,853 L1107,850 L1108,812 L1108,799 L1107,774 L1108,771 L1108,758 L1109,744 L1108,740 L1108,665 L1110,654 L1110,642 L1109,628 L1110,605 L1111,586 L1112,580 L1111,578 L1110,564 L1110,547 L1111,538 L1111,528 L1112,522 L1111,518 L1111,501 L1112,487 L1112,444 L1113,414 L1113,400 L1114,385 L1112,373 L1113,348 L1114,304 L1113,292 L1114,281 L1115,265 L1116,235 L1115,209 L1115,191 L1114,184 L1114,160 L1116,155 L1117,137 L1115,128 L1111,125 L1101,123 L1088,121 L1076,120 L1066,117 L964,117 L874,116 L859,116 L842,117 L821,114 L795,114 L760,116 L733,116 L716,115 L649,115 L629,114 L507,113 L453,113 L443,112 L434,113 L391,113 L386,112 L361,112 L331,111 L324,109 L318,106 L300,104 L292,102 L279,101 L273,99 L267,99 L261,101 L208,101 L203,104 L178,105 L175,106 L157,107 L135,107 L113,105 L81,104 L69,103 L63,103 L58,99 Z M1111,867 L1110,872 L1112,875 L1115,875 L1116,868 Z M1106,1095 L1105,1099 L1109,1101 L1110,1100 L1110,1095 Z " fill="#000000" transform="translate(3,0)"/>
<path d="M0,0 L27,0 L42,2 L47,4 L61,7 L84,18 L94,24 L102,31 L110,38 L118,47 L125,53 L137,69 L145,88 L152,105 L155,115 L159,139 L162,144 L171,146 L178,146 L181,142 L184,134 L188,114 L192,101 L196,90 L201,79 L206,73 L210,63 L218,54 L224,46 L237,34 L245,30 L253,23 L261,18 L276,11 L285,8 L298,4 L308,3 L310,2 L325,1 L351,3 L365,5 L382,12 L393,18 L414,30 L428,44 L439,58 L445,66 L455,84 L463,104 L466,116 L468,125 L470,139 L473,147 L478,151 L490,151 L492,147 L495,137 L497,125 L499,120 L501,111 L504,101 L508,93 L512,83 L523,64 L532,54 L536,49 L544,42 L551,36 L556,32 L558,29 L574,21 L582,17 L593,13 L622,6 L631,5 L659,5 L664,7 L674,9 L687,13 L693,15 L709,23 L723,31 L733,40 L742,46 L749,53 L756,63 L762,74 L767,80 L773,91 L777,103 L782,120 L785,141 L785,172 L777,202 L770,219 L760,236 L753,246 L744,256 L742,256 L740,260 L731,268 L729,268 L727,272 L716,279 L696,290 L679,296 L667,299 L652,301 L630,303 L626,307 L624,317 L620,337 L614,354 L611,361 L606,370 L596,384 L586,397 L578,406 L573,411 L567,416 L551,424 L541,430 L528,436 L511,441 L495,444 L478,444 L457,443 L441,439 L427,434 L416,428 L408,423 L398,417 L389,411 L382,404 L375,398 L365,385 L359,375 L356,369 L350,357 L346,348 L341,330 L339,314 L336,304 L332,300 L322,299 L317,301 L313,308 L308,333 L303,346 L298,359 L291,371 L287,378 L280,388 L278,388 L276,392 L270,399 L259,408 L245,419 L240,423 L230,427 L218,433 L203,437 L193,439 L183,440 L157,440 L137,437 L124,434 L117,431 L101,423 L92,417 L84,411 L73,402 L59,388 L52,379 L47,372 L42,363 L37,355 L29,331 L27,308 L22,299 L18,297 L-4,295 L-25,290 L-38,284 L-49,279 L-60,273 L-72,263 L-83,254 L-92,243 L-100,234 L-106,225 L-111,216 L-116,207 L-120,195 L-123,183 L-125,170 L-125,125 L-119,99 L-114,90 L-112,79 L-107,72 L-102,63 L-93,51 L-88,46 L-80,37 L-69,29 L-64,24 L-56,19 L-40,11 L-24,5 L-8,2 Z M0,30 L-15,34 L-27,37 L-49,49 L-58,56 L-71,68 L-78,77 L-85,88 L-93,104 L-98,120 L-100,135 L-100,164 L-97,181 L-87,205 L-80,216 L-72,226 L-68,231 L-64,233 L-57,241 L-42,251 L-25,259 L-9,264 L-5,266 L15,269 L23,269 L29,264 L34,248 L37,235 L41,228 L44,220 L51,208 L61,194 L74,182 L82,175 L93,169 L109,161 L122,157 L130,151 L132,147 L132,134 L130,122 L126,112 L122,99 L116,88 L109,76 L100,65 L94,60 L88,53 L70,42 L55,36 L44,32 L32,30 Z M319,31 L306,33 L288,37 L277,43 L267,47 L260,53 L251,59 L246,63 L239,71 L229,84 L226,88 L218,105 L212,121 L210,134 L210,144 L213,153 L218,157 L240,166 L254,174 L263,181 L281,199 L288,211 L295,223 L300,235 L304,245 L309,261 L314,269 L319,271 L332,271 L338,268 L344,260 L348,247 L353,237 L357,225 L368,209 L377,197 L378,194 L382,192 L392,182 L407,173 L420,165 L438,158 L443,153 L445,147 L444,134 L439,114 L434,100 L426,85 L417,71 L400,54 L390,47 L374,39 L359,34 L343,31 Z M628,35 L614,38 L597,43 L576,53 L563,64 L551,75 L543,84 L536,96 L532,103 L524,123 L522,136 L522,151 L525,159 L536,164 L544,166 L554,171 L564,178 L573,185 L583,194 L592,205 L602,218 L608,228 L613,237 L618,254 L622,266 L625,271 L632,274 L650,273 L669,269 L683,264 L690,262 L700,256 L713,247 L721,240 L733,227 L747,205 L750,198 L753,188 L755,179 L756,168 L758,162 L758,143 L754,120 L745,97 L733,79 L725,70 L720,65 L711,57 L701,50 L693,46 L674,39 L666,37 L650,35 Z M165,175 L160,177 L155,183 L152,190 L148,204 L138,225 L128,239 L119,250 L109,260 L96,270 L87,276 L75,283 L59,290 L53,299 L53,318 L61,343 L67,353 L79,369 L85,376 L93,383 L100,390 L114,398 L121,401 L138,405 L148,408 L165,408 L174,411 L179,409 L183,405 L207,403 L215,399 L228,394 L240,385 L250,377 L255,373 L262,365 L269,355 L273,348 L279,339 L284,327 L287,314 L287,297 L282,290 L269,284 L262,281 L246,271 L228,257 L221,249 L214,241 L204,227 L191,199 L186,183 L181,177 L175,175 Z M474,179 L468,183 L464,191 L459,207 L454,219 L447,230 L441,239 L432,250 L424,259 L416,266 L411,270 L400,277 L390,283 L379,287 L369,292 L365,297 L364,310 L366,323 L369,335 L376,352 L382,361 L390,372 L395,377 L404,385 L408,389 L422,399 L430,403 L439,406 L440,407 L450,409 L458,412 L469,414 L476,413 L479,410 L483,411 L486,413 L497,413 L505,408 L516,407 L529,403 L543,395 L553,388 L561,382 L566,376 L571,371 L575,366 L579,362 L585,351 L590,342 L596,323 L598,314 L598,301 L595,296 L585,290 L568,282 L558,275 L552,271 L541,262 L535,257 L528,249 L521,240 L516,233 L512,225 L508,216 L504,208 L500,194 L496,185 L491,180 L489,179 Z M115,188 L103,195 L96,201 L85,210 L80,216 L70,229 L65,237 L62,244 L62,256 L65,257 L77,251 L90,241 L100,233 L108,223 L115,213 L120,201 L122,198 L122,191 L117,188 Z M222,191 L221,192 L221,203 L232,222 L241,232 L248,240 L255,246 L268,254 L275,254 L276,253 L276,246 L273,239 L265,225 L256,214 L245,203 L234,195 L229,191 Z M423,193 L412,202 L400,213 L392,220 L384,231 L376,247 L376,253 L379,257 L384,256 L396,249 L409,237 L418,228 L426,215 L430,210 L434,201 L433,196 L430,193 Z M533,194 L531,196 L532,205 L535,211 L538,215 L542,224 L548,232 L553,239 L558,244 L566,250 L582,260 L587,259 L589,256 L587,247 L583,238 L576,225 L568,217 L560,210 L549,201 L538,194 Z " fill="#000000" transform="translate(232,208)"/>
</svg>
