<?xml version="1.0" encoding="UTF-8"?>
<!-- Generator: visioncortex VTracer 0.6.12 -->
<svg version="1.1" xmlns="http://www.w3.org/2000/svg" width="537" height="1026">
<path d="M0,0 L17,1 L20,5 L23,13 L24,47 L26,53 L34,57 L41,56 L48,55 L54,57 L59,56 L76,56 L80,58 L81,60 L81,88 L77,92 L70,95 L49,95 L34,97 L30,100 L27,108 L26,140 L26,151 L28,178 L28,191 L24,199 L22,200 L7,201 L0,202 L-3,199 L-5,178 L-5,149 L-6,144 L-6,134 L-5,123 L-5,114 L-7,101 L-12,96 L-28,96 L-53,95 L-58,92 L-59,89 L-59,65 L-57,61 L-45,57 L-25,57 L-9,54 L-8,49 L-9,32 L-9,17 L-10,9 L-6,3 Z " fill="#000000" transform="translate(262,29)"/>
<path d="M0,0 L16,0 L29,1 L33,5 L36,11 L37,23 L44,44 L54,66 L60,74 L63,80 L73,95 L81,105 L87,113 L95,121 L102,129 L111,140 L115,146 L120,150 L125,156 L130,160 L135,165 L141,170 L146,175 L156,185 L161,190 L166,194 L171,199 L181,209 L186,214 L199,227 L208,240 L218,253 L222,259 L227,269 L232,278 L237,288 L241,305 L243,311 L246,329 L245,346 L243,362 L238,380 L233,390 L228,400 L221,410 L213,421 L207,428 L196,436 L185,445 L177,451 L168,456 L154,464 L145,466 L135,469 L106,471 L94,470 L89,471 L59,471 L19,472 L-78,472 L-84,473 L-93,473 L-107,472 L-119,472 L-122,471 L-142,469 L-155,466 L-165,463 L-177,458 L-182,452 L-193,445 L-205,432 L-210,428 L-219,412 L-223,402 L-231,378 L-235,360 L-235,337 L-234,324 L-231,309 L-229,304 L-225,288 L-219,272 L-210,256 L-203,247 L-199,239 L-187,223 L-176,211 L-161,197 L-150,186 L-142,179 L-134,171 L-129,167 L-127,167 L-125,163 L-116,157 L-106,149 L-99,143 L-88,135 L-74,121 L-66,114 L-57,104 L-51,95 L-41,84 L-37,78 L-32,72 L-25,61 L-21,54 L-16,46 L-9,28 L-4,17 L-3,5 Z M33,68 L30,72 L28,83 L24,99 L16,117 L7,131 L-5,147 L-12,155 L-21,163 L-26,166 L-33,174 L-46,184 L-56,194 L-72,204 L-81,212 L-89,217 L-96,223 L-106,229 L-118,239 L-124,243 L-137,254 L-145,260 L-158,272 L-165,278 L-174,289 L-182,296 L-192,309 L-198,318 L-205,329 L-211,338 L-215,348 L-217,360 L-217,378 L-213,390 L-207,401 L-199,411 L-194,410 L-191,403 L-186,387 L-180,376 L-175,367 L-165,353 L-157,345 L-152,339 L-141,330 L-134,323 L-124,316 L-114,309 L-107,303 L-101,299 L-87,289 L-80,285 L-71,279 L-55,269 L-51,265 L-32,254 L-27,250 L-17,245 L-5,237 L6,229 L18,220 L29,210 L36,205 L42,198 L47,193 L55,184 L63,170 L68,162 L71,153 L73,137 L73,125 L68,112 L61,104 L55,95 L51,88 L43,74 L38,68 Z M137,193 L132,198 L128,214 L125,226 L118,240 L113,250 L106,261 L100,268 L92,275 L82,286 L71,294 L67,298 L58,304 L52,309 L42,315 L30,323 L20,330 L5,338 L-7,344 L-17,348 L-30,357 L-44,368 L-47,370 L-47,372 L-51,374 L-56,379 L-70,390 L-81,401 L-88,411 L-91,421 L-91,430 L-88,439 L-79,449 L-69,454 L-63,457 L-54,458 L-46,460 L-10,461 L11,460 L16,458 L18,456 L18,438 L22,422 L31,411 L43,397 L48,392 L58,383 L68,376 L76,369 L86,362 L97,353 L112,343 L123,334 L128,328 L139,320 L151,310 L158,304 L167,293 L176,279 L181,265 L183,254 L183,241 L179,228 L175,223 L170,218 L157,205 L147,198 L141,194 Z M220,349 L211,356 L204,364 L195,374 L190,379 L184,383 L179,388 L178,391 L174,393 L167,399 L162,402 L155,409 L149,413 L144,420 L144,422 L140,424 L132,433 L128,442 L128,452 L134,456 L143,456 L165,448 L178,439 L186,432 L197,421 L207,408 L214,398 L219,388 L222,380 L226,362 L225,353 L222,349 Z " fill="#000000" transform="translate(264,252)"/>
<path d="M0,0 L65,0 L71,1 L74,0 L89,0 L94,1 L103,0 L109,1 L136,0 L145,1 L148,4 L150,16 L151,36 L151,77 L152,116 L153,121 L153,149 L154,207 L154,235 L152,239 L145,242 L139,243 L87,243 L29,242 L18,243 L7,243 L-18,241 L-26,243 L-121,243 L-161,244 L-190,244 L-194,242 L-196,235 L-196,189 L-197,172 L-196,159 L-197,150 L-197,122 L-198,69 L-199,30 L-199,10 L-196,5 L-191,2 L-161,2 L-115,1 L-25,1 Z " fill="#000000" transform="translate(300,754)"/>
</svg>
