<?xml version="1.0" encoding="UTF-8"?>
<!-- Generator: visioncortex VTracer 0.6.12 -->
<svg version="1.1" xmlns="http://www.w3.org/2000/svg" width="858" height="696">
<path d="M0,0 L7,0 L12,6 L15,21 L23,93 L24,97 L26,118 L28,131 L32,169 L34,190 L36,199 L38,222 L40,240 L44,271 L47,290 L50,315 L55,359 L57,373 L58,390 L62,421 L63,424 L65,446 L68,469 L73,504 L76,531 L76,539 L72,547 L64,552 L63,556 L62,569 L56,574 L47,577 L38,581 L36,584 L36,600 L33,607 L28,611 L22,613 L-10,613 L-16,614 L-94,614 L-102,615 L-175,616 L-219,617 L-331,619 L-359,619 L-419,620 L-443,620 L-466,621 L-515,622 L-591,622 L-626,623 L-657,623 L-668,622 L-674,619 L-679,613 L-681,599 L-682,576 L-683,560 L-686,510 L-688,481 L-690,461 L-691,437 L-692,431 L-695,375 L-696,370 L-698,335 L-699,330 L-700,298 L-702,279 L-705,240 L-707,205 L-712,125 L-713,113 L-711,103 L-707,100 L-697,99 L-694,96 L-694,70 L-692,63 L-689,60 L-682,59 L-676,59 L-674,57 L-673,39 L-669,34 L-663,33 L-657,33 L-655,30 L-654,10 L-649,6 L-642,6 L-625,10 L-613,13 L-595,18 L-574,23 L-564,26 L-555,28 L-544,31 L-542,32 L-530,34 L-517,37 L-507,40 L-502,42 L-481,46 L-470,49 L-463,51 L-457,53 L-433,57 L-421,62 L-407,65 L-389,70 L-382,72 L-368,75 L-351,79 L-341,82 L-332,84 L-316,84 L-302,81 L-280,76 L-263,71 L-253,69 L-250,67 L-238,65 L-217,59 L-196,54 L-184,51 L-173,49 L-160,45 L-152,43 L-134,38 L-122,35 L-117,33 L-96,28 L-77,23 L-63,19 L-33,11 L-30,9 L-19,7 L-3,2 Z M-636,21 L-641,26 L-641,39 L-640,43 L-638,76 L-637,80 L-635,112 L-634,115 L-632,141 L-631,148 L-630,172 L-627,209 L-625,222 L-624,250 L-622,264 L-620,292 L-619,297 L-617,337 L-614,367 L-612,384 L-609,433 L-607,449 L-605,475 L-600,539 L-596,549 L-591,552 L-579,554 L-577,555 L-566,556 L-560,558 L-533,562 L-467,572 L-450,574 L-439,576 L-426,578 L-414,580 L-406,581 L-397,583 L-384,585 L-371,587 L-351,590 L-331,593 L-328,594 L-310,596 L-298,598 L-287,599 L-282,596 L-281,593 L-281,571 L-283,549 L-287,515 L-290,486 L-291,469 L-293,456 L-295,434 L-296,431 L-299,402 L-302,373 L-305,339 L-307,324 L-308,307 L-311,283 L-315,239 L-317,222 L-319,201 L-320,196 L-321,182 L-323,170 L-325,145 L-329,114 L-330,103 L-335,96 L-350,91 L-376,85 L-397,80 L-430,72 L-446,68 L-470,61 L-481,58 L-494,55 L-503,52 L-517,49 L-519,48 L-534,46 L-551,41 L-568,37 L-574,35 L-584,33 L-604,27 L-622,23 L-629,21 Z M-149,53 L-172,59 L-186,62 L-202,66 L-218,70 L-243,77 L-252,79 L-263,82 L-275,85 L-300,92 L-310,95 L-315,99 L-316,108 L-312,145 L-311,162 L-309,178 L-308,192 L-305,216 L-301,250 L-300,267 L-299,270 L-297,299 L-295,308 L-293,334 L-289,372 L-288,386 L-286,397 L-282,445 L-278,472 L-275,508 L-272,533 L-270,560 L-266,589 L-262,599 L-258,601 L-229,596 L-217,593 L-200,590 L-170,584 L-164,582 L-140,578 L-111,572 L-81,566 L-69,564 L-64,562 L-52,560 L-24,554 L7,547 L22,543 L35,541 L41,539 L54,535 L57,532 L57,516 L55,503 L53,473 L51,460 L47,422 L44,397 L43,392 L42,373 L40,363 L39,348 L37,333 L35,311 L34,307 L32,281 L30,267 L26,233 L23,208 L20,194 L14,190 L3,192 L-20,196 L-28,199 L-35,199 L-55,204 L-65,206 L-77,209 L-89,211 L-109,216 L-115,215 L-119,212 L-122,203 L-125,176 L-129,141 L-135,78 L-138,58 L-142,53 Z " fill="#000000" transform="translate(750,36)"/>
<path d="M0,0 L7,1 L17,3 L35,9 L51,13 L79,21 L95,25 L114,31 L139,37 L155,41 L176,47 L178,48 L187,49 L196,52 L206,54 L220,57 L232,60 L237,64 L236,70 L234,72 L225,72 L216,70 L202,66 L191,63 L177,60 L151,53 L145,51 L130,48 L117,44 L103,40 L87,36 L72,33 L64,30 L52,27 L42,25 L27,21 L19,19 L-1,13 L-6,9 L-7,5 L-3,1 Z " fill="#000000" transform="translate(154,100)"/>
<path d="M0,0 L7,0 L18,4 L33,8 L53,13 L60,14 L65,17 L74,19 L90,23 L107,27 L137,35 L147,37 L162,41 L170,44 L183,46 L192,49 L193,50 L202,51 L223,57 L231,61 L233,65 L230,69 L223,70 L204,66 L192,62 L174,58 L160,54 L146,50 L133,47 L113,41 L100,38 L98,37 L86,35 L62,28 L31,21 L22,18 L14,16 L1,12 L-4,8 L-4,3 Z " fill="#000000" transform="translate(154,132)"/>
<path d="M0,0 L9,0 L11,2 L11,7 L5,11 L-17,16 L-20,18 L-32,20 L-44,23 L-63,27 L-75,30 L-85,30 L-88,28 L-88,23 L-85,20 L-79,18 L-48,12 L-45,10 L-30,8 L-13,3 L-3,1 Z " fill="#000000" transform="translate(577,141)"/>
<path d="M0,0 L5,2 L6,7 L3,10 L-7,14 L-19,17 L-37,21 L-61,26 L-73,29 L-85,31 L-92,31 L-95,29 L-95,24 L-89,20 L-74,17 L-58,13 L-37,8 L-25,6 L-7,1 Z " fill="#000000" transform="translate(585,172)"/>
<path d="M0,0 L9,0 L18,3 L39,7 L49,11 L61,13 L71,16 L83,19 L93,21 L98,24 L99,25 L99,31 L95,34 L88,35 L66,29 L61,27 L49,25 L45,23 L36,22 L30,19 L10,15 L-2,10 L-4,5 Z " fill="#000000" transform="translate(157,185)"/>
<path d="M0,0 L7,1 L9,3 L8,9 L3,13 L-2,15 L-15,17 L-21,19 L-32,21 L-49,25 L-62,27 L-67,29 L-81,31 L-88,31 L-91,28 L-90,23 L-85,20 L-57,14 L-40,10 L-29,8 L-23,6 L-13,4 Z " fill="#000000" transform="translate(586,209)"/>
<path d="M0,0 L8,0 L20,3 L34,6 L54,11 L69,15 L79,17 L90,21 L93,25 L92,29 L89,31 L77,31 L63,28 L59,26 L47,24 L27,19 L10,14 L2,12 L-4,9 L-5,4 Z " fill="#000000" transform="translate(163,221)"/>
<path d="M0,0 L7,1 L9,4 L8,9 L3,12 L-13,16 L-24,18 L-36,20 L-52,25 L-76,29 L-83,29 L-88,26 L-87,21 L-85,19 L-70,15 L-42,10 L-20,4 Z " fill="#000000" transform="translate(587,245)"/>
<path d="M0,0 L16,2 L30,5 L42,8 L54,10 L64,13 L84,17 L93,20 L96,23 L96,28 L90,32 L80,31 L76,29 L53,24 L28,19 L23,17 L4,14 L-4,10 L-5,5 Z " fill="#000000" transform="translate(163,257)"/>
<path d="M0,0 L13,0 L21,2 L29,8 L36,16 L40,24 L45,37 L48,57 L48,73 L44,89 L36,108 L29,115 L18,120 L7,120 L-2,118 L-10,113 L-17,105 L-21,98 L-26,85 L-30,72 L-31,63 L-31,54 L-30,43 L-26,26 L-23,19 L-17,12 L-13,6 L-8,3 Z " fill="#000000" transform="translate(336,263)"/>
<path d="M0,0 L5,1 L9,6 L11,13 L13,34 L15,50 L16,64 L17,67 L18,83 L21,104 L22,107 L22,115 L18,121 L13,122 L8,118 L6,110 L1,58 L-2,36 L-4,15 L-4,5 Z " fill="#000000" transform="translate(724,264)"/>
<path d="M0,0 L9,1 L10,7 L5,11 L0,13 L-9,15 L-22,17 L-32,20 L-51,23 L-73,28 L-83,30 L-89,30 L-92,27 L-91,23 L-86,19 L-76,16 L-60,13 L-48,10 L-37,8 L-25,5 L-9,2 Z " fill="#000000" transform="translate(593,278)"/>
<path d="M0,0 L9,0 L12,3 L11,8 L6,11 L1,13 L-21,18 L-23,19 L-35,21 L-50,25 L-70,28 L-76,28 L-79,25 L-78,20 L-73,17 L-41,8 L-22,5 L-8,1 Z " fill="#000000" transform="translate(586,311)"/>
<path d="M0,0 L9,1 L11,6 L8,11 L0,14 L-17,18 L-27,20 L-42,23 L-57,27 L-83,32 L-88,30 L-88,24 L-84,20 L-80,18 L-68,16 L-58,13 L-46,10 L-33,8 L-18,5 L-13,3 L-3,1 Z " fill="#000000" transform="translate(596,339)"/>
<path d="M0,0 L11,0 L21,3 L51,8 L67,12 L69,13 L86,15 L91,17 L96,23 L98,29 L100,44 L103,77 L105,114 L108,143 L110,152 L111,175 L111,192 L107,196 L100,197 L84,194 L68,192 L56,192 L46,189 L31,187 L16,184 L8,180 L5,171 L0,103 L-1,99 L-3,68 L-5,50 L-5,41 L-7,24 L-7,12 L-5,3 Z " fill="#000000" transform="translate(169,373)"/>
<path d="M0,0 L6,1 L9,6 L6,11 L-6,16 L-31,21 L-38,23 L-65,28 L-77,31 L-79,32 L-86,32 L-89,29 L-88,24 L-82,19 L-77,17 L-53,12 L-38,9 L-22,5 L-13,2 Z " fill="#000000" transform="translate(601,373)"/>
<path d="M0,0 L4,1 L5,5 L13,6 L15,9 L14,15 L6,19 L-7,23 L-26,27 L-32,28 L-40,29 L-56,33 L-64,35 L-80,37 L-85,34 L-84,29 L-80,25 L-58,19 L-44,17 L-31,13 L-19,11 L-3,7 L-1,1 Z " fill="#000000" transform="translate(601,397)"/>
<path d="M0,0 L5,1 L10,4 L14,13 L16,29 L19,60 L21,68 L22,82 L22,97 L19,102 L9,107 L1,109 L-11,111 L-27,115 L-44,117 L-53,120 L-62,121 L-68,123 L-78,125 L-91,128 L-119,135 L-134,138 L-136,139 L-148,140 L-167,145 L-185,149 L-200,153 L-206,153 L-212,148 L-214,138 L-216,129 L-217,114 L-218,111 L-221,80 L-223,69 L-223,60 L-221,54 L-216,50 L-190,44 L-157,37 L-132,31 L-118,28 L-102,24 L-81,19 L-68,17 L-53,13 L-44,10 L-35,8 L-30,6 L-22,5 L-18,3 L-4,1 Z " fill="#000000" transform="translate(738,408)"/>
<path d="M0,0 L39,6 L60,9 L67,11 L82,12 L92,15 L96,18 L95,24 L90,26 L81,26 L63,23 L24,18 L18,16 L1,14 L-5,10 L-7,8 L-6,4 Z " fill="#000000" transform="translate(323,516)"/>
<path d="M0,0 L5,1 L4,5 L-1,4 Z " fill="#000000" transform="translate(683,659)"/>
</svg>
