<?xml version="1.0" encoding="UTF-8"?>
<!-- Generator: visioncortex VTracer 0.6.12 -->
<svg version="1.1" xmlns="http://www.w3.org/2000/svg" width="1011" height="765">
<path d="M0,0 L7,0 L10,2 L18,1 L25,0 L33,0 L44,2 L54,4 L61,7 L75,14 L85,20 L95,25 L101,30 L123,38 L129,41 L146,46 L156,48 L161,47 L176,47 L183,48 L207,48 L219,49 L222,53 L223,86 L224,174 L224,226 L225,275 L225,314 L226,370 L226,388 L228,393 L229,394 L229,399 L226,404 L226,490 L227,505 L227,606 L225,614 L221,616 L202,614 L192,612 L176,606 L168,602 L145,591 L132,583 L122,576 L106,568 L89,560 L77,554 L65,549 L50,545 L40,541 L33,540 L2,540 L-14,544 L-27,550 L-34,553 L-44,559 L-58,571 L-64,576 L-68,581 L-73,585 L-83,598 L-89,607 L-94,606 L-94,509 L-95,423 L-95,313 L-96,248 L-96,182 L-97,164 L-96,108 L-91,92 L-87,79 L-79,63 L-69,44 L-63,36 L-51,25 L-41,16 L-34,12 L-25,8 L-11,2 Z " fill="#000000" transform="translate(618,29)"/>
<path d="M0,0 L37,0 L70,6 L75,8 L84,8 L94,14 L109,20 L127,31 L138,38 L146,45 L152,52 L154,61 L155,181 L156,196 L156,369 L157,422 L157,465 L158,494 L158,536 L157,623 L157,634 L153,634 L140,619 L130,608 L119,599 L109,592 L102,589 L89,584 L76,582 L61,582 L50,581 L18,581 L-7,580 L-20,580 L-37,581 L-59,581 L-71,582 L-79,581 L-91,581 L-98,582 L-108,581 L-120,582 L-130,582 L-136,581 L-192,581 L-223,582 L-244,582 L-248,579 L-253,580 L-259,584 L-265,584 L-269,581 L-271,571 L-271,407 L-272,359 L-272,222 L-271,161 L-272,156 L-273,132 L-273,110 L-272,40 L-271,17 L-266,7 L-259,4 L-231,4 L-202,3 L-108,3 L-100,2 L-77,2 L-38,1 L-7,1 Z M116,214 L115,218 L119,218 L118,214 Z M-186,426 L-188,428 L-188,436 L-185,442 L-180,441 L-177,437 L-177,431 L-184,426 Z M-76,426 L-78,428 L-78,434 L-74,435 L-71,432 L-73,427 Z " fill="#000000" transform="translate(348,72)"/>
<path d="M0,0 L66,0 L69,4 L69,293 L68,313 L68,571 L65,580 L73,580 L75,577 L77,540 L77,523 L78,507 L78,486 L79,477 L79,374 L80,354 L80,267 L81,187 L81,126 L82,57 L84,4 L88,0 L93,1 L95,6 L96,20 L96,54 L95,63 L95,108 L94,173 L94,295 L93,301 L93,330 L92,337 L93,341 L93,444 L92,513 L92,538 L91,547 L91,583 L92,590 L89,593 L76,596 L67,596 L60,595 L37,594 L31,595 L-13,595 L-52,596 L-62,596 L-66,598 L-69,603 L-73,601 L-75,597 L-86,596 L-103,596 L-110,595 L-112,596 L-141,597 L-179,596 L-192,597 L-235,597 L-242,596 L-244,597 L-272,598 L-303,598 L-309,602 L-320,614 L-324,620 L-331,630 L-335,636 L-337,638 L-342,637 L-343,633 L-341,627 L-335,615 L-329,607 L-315,595 L-306,589 L-293,585 L-276,586 L-268,587 L-262,585 L-250,585 L-248,586 L-228,587 L-211,587 L-207,586 L-101,586 L-77,585 L-66,584 L-55,585 L-44,585 L-42,584 L11,584 L59,582 L60,578 L56,576 L38,574 L29,575 L26,574 L19,574 L15,575 L-8,575 L-12,571 L-14,558 L-14,522 L-15,519 L-16,485 L-16,396 L-17,381 L-18,320 L-18,213 L-19,120 L-20,81 L-20,14 L-19,6 L-14,2 L-11,1 Z " fill="#000000" transform="translate(876,76)"/>
<path d="M0,0 L5,1 L6,3 L6,35 L7,43 L7,168 L8,231 L8,298 L7,326 L7,435 L6,451 L7,499 L6,537 L5,551 L6,559 L5,575 L5,617 L2,622 L0,623 L-7,623 L-19,621 L-26,623 L-31,622 L-34,623 L-55,623 L-57,622 L-78,623 L-105,623 L-116,624 L-126,623 L-135,623 L-144,622 L-148,621 L-151,623 L-186,623 L-209,624 L-265,624 L-283,625 L-308,625 L-322,624 L-376,625 L-397,627 L-410,632 L-415,636 L-421,646 L-424,653 L-427,657 L-430,658 L-458,660 L-488,660 L-491,657 L-495,658 L-496,659 L-518,661 L-525,662 L-530,657 L-535,649 L-538,648 L-543,643 L-553,635 L-563,629 L-573,626 L-583,624 L-607,624 L-615,623 L-630,623 L-636,624 L-649,624 L-655,623 L-680,625 L-690,623 L-697,624 L-819,624 L-833,623 L-839,624 L-857,625 L-877,625 L-882,624 L-887,626 L-893,626 L-897,621 L-895,617 L-892,615 L-870,613 L-857,614 L-810,614 L-800,613 L-733,613 L-707,614 L-705,615 L-699,615 L-696,613 L-630,613 L-584,612 L-581,614 L-564,614 L-554,618 L-545,623 L-538,630 L-538,632 L-532,634 L-524,640 L-518,648 L-515,651 L-491,651 L-487,649 L-477,650 L-474,649 L-455,649 L-445,647 L-435,646 L-432,643 L-423,629 L-415,622 L-399,616 L-377,615 L-327,615 L-324,617 L-324,619 L-319,617 L-317,615 L-262,615 L-256,614 L-191,614 L-181,612 L-178,613 L-109,613 L-34,612 L-27,613 L-12,611 L-9,610 L-8,603 L-8,552 L-6,477 L-6,123 L-7,117 L-6,75 L-6,16 L-4,3 Z " fill="#000000" transform="translate(986,76)"/>
<path d="M0,0 L4,2 L7,10 L9,22 L9,54 L10,112 L11,160 L11,246 L12,257 L12,276 L11,320 L11,423 L12,450 L11,483 L12,490 L12,535 L13,566 L13,580 L15,601 L17,606 L24,609 L29,610 L38,610 L48,609 L59,608 L62,611 L61,616 L56,620 L34,620 L31,617 L30,614 L26,613 L24,618 L21,621 L7,619 L3,615 L2,613 L2,595 L3,591 L3,582 L2,578 L0,534 L0,387 L-1,370 L-1,341 L-2,283 L-2,142 L-3,91 L-4,66 L-3,39 L-3,3 Z " fill="#000000" transform="translate(26,82)"/>
<path d="M0,0 L5,1 L7,8 L7,36 L6,82 L7,122 L7,277 L6,300 L7,352 L7,397 L8,419 L9,480 L10,486 L10,559 L11,574 L13,581 L22,584 L26,586 L33,586 L42,583 L89,583 L95,582 L98,584 L106,583 L125,582 L176,582 L194,581 L220,581 L235,582 L243,581 L300,581 L302,580 L330,579 L352,579 L365,581 L367,582 L377,583 L393,591 L402,597 L410,603 L420,611 L428,622 L429,629 L426,632 L421,631 L414,623 L413,620 L407,618 L399,609 L386,601 L374,595 L371,593 L350,590 L337,590 L310,591 L274,591 L265,592 L136,592 L133,593 L98,592 L96,593 L75,593 L66,594 L59,593 L41,594 L15,594 L13,595 L4,595 L0,590 L-1,574 L-2,564 L-2,539 L-3,517 L-3,488 L-4,411 L-4,355 L-5,351 L-5,332 L-6,276 L-5,252 L-5,139 L-6,76 L-6,52 L-4,5 L-2,1 Z " fill="#000000" transform="translate(57,84)"/>
<path d="M0,0 L18,1 L28,3 L39,7 L50,11 L62,17 L73,23 L79,26 L98,36 L110,43 L123,52 L138,59 L153,64 L154,67 L153,68 L132,69 L-8,69 L-13,70 L-27,70 L-34,69 L-55,70 L-65,74 L-76,80 L-86,86 L-92,93 L-95,94 L-97,90 L-94,80 L-89,64 L-81,51 L-73,39 L-66,33 L-64,33 L-63,30 L-61,30 L-60,27 L-48,18 L-37,12 L-25,6 L-15,3 L-5,2 Z " fill="#000000" transform="translate(629,583)"/>
</svg>
