<?xml version="1.0" encoding="UTF-8"?>
<!-- Generator: visioncortex VTracer 0.6.12 -->
<svg version="1.1" xmlns="http://www.w3.org/2000/svg" width="1272" height="840">
<path d="M0,0 L14,0 L22,2 L38,4 L47,7 L52,9 L67,12 L79,18 L87,22 L98,26 L103,29 L108,34 L122,42 L123,45 L128,47 L140,61 L147,69 L151,74 L156,82 L164,92 L170,103 L176,113 L181,123 L186,133 L192,139 L195,150 L200,161 L204,171 L211,183 L218,196 L223,205 L233,218 L242,229 L251,236 L255,241 L261,245 L264,248 L277,253 L289,258 L294,261 L295,265 L289,275 L279,288 L272,296 L266,304 L256,317 L247,328 L241,337 L232,347 L226,355 L219,364 L211,374 L204,385 L195,395 L186,407 L177,418 L170,427 L157,443 L145,460 L138,468 L131,476 L123,486 L116,496 L110,503 L100,517 L91,527 L78,546 L66,561 L53,578 L45,588 L40,596 L36,598 L30,598 L16,589 L2,582 L-6,575 L-14,568 L-23,559 L-30,551 L-35,546 L-41,547 L-51,558 L-58,567 L-71,582 L-80,592 L-87,601 L-93,609 L-99,619 L-112,634 L-122,647 L-131,657 L-137,666 L-148,680 L-162,695 L-173,704 L-182,714 L-190,720 L-200,729 L-213,739 L-224,746 L-234,751 L-241,755 L-251,758 L-260,761 L-273,765 L-281,767 L-291,769 L-308,771 L-328,771 L-358,767 L-367,764 L-375,761 L-383,759 L-397,753 L-416,743 L-431,733 L-439,726 L-446,720 L-453,712 L-462,702 L-466,698 L-472,690 L-476,683 L-481,675 L-486,665 L-491,654 L-494,644 L-499,631 L-502,618 L-505,595 L-505,565 L-504,560 L-503,546 L-498,533 L-488,504 L-483,494 L-478,487 L-473,477 L-465,467 L-456,457 L-449,449 L-444,444 L-435,434 L-426,423 L-420,416 L-415,411 L-405,399 L-396,388 L-386,377 L-377,366 L-366,352 L-357,342 L-349,330 L-342,323 L-335,315 L-324,302 L-320,297 L-314,289 L-307,281 L-299,270 L-292,262 L-285,255 L-279,246 L-270,236 L-258,221 L-250,210 L-245,206 L-237,195 L-230,187 L-228,187 L-226,182 L-218,173 L-210,163 L-203,154 L-197,147 L-191,139 L-188,134 L-178,125 L-171,114 L-167,110 L-160,102 L-150,91 L-143,83 L-136,73 L-129,65 L-121,55 L-113,47 L-109,41 L-99,30 L-89,25 L-80,21 L-70,15 L-61,14 L-54,10 L-28,4 L-6,1 Z M-7,36 L-15,38 L-31,38 L-41,40 L-50,43 L-60,45 L-76,54 L-87,61 L-94,68 L-101,79 L-111,90 L-121,103 L-130,114 L-136,121 L-143,130 L-148,135 L-157,146 L-164,154 L-172,164 L-179,172 L-183,178 L-188,183 L-199,196 L-206,205 L-211,211 L-220,222 L-227,230 L-236,240 L-247,254 L-255,263 L-264,274 L-273,284 L-286,302 L-293,310 L-301,320 L-310,330 L-314,334 L-314,336 L-318,338 L-328,348 L-336,359 L-340,364 L-339,369 L-334,369 L-324,364 L-314,360 L-303,355 L-294,352 L-285,351 L-283,350 L-268,348 L-212,348 L-193,350 L-177,354 L-166,358 L-144,366 L-132,372 L-124,374 L-117,381 L-108,387 L-99,394 L-95,399 L-90,404 L-83,413 L-77,420 L-71,428 L-63,442 L-55,458 L-48,472 L-40,485 L-32,497 L-29,502 L-26,505 L-22,514 L-15,523 L-8,530 L-3,535 L8,545 L12,549 L24,556 L30,557 L42,546 L49,536 L53,530 L59,522 L64,517 L72,507 L80,496 L89,486 L97,475 L105,466 L110,458 L121,445 L128,437 L132,430 L139,421 L145,413 L152,405 L158,396 L165,388 L171,380 L175,375 L182,366 L192,355 L201,343 L209,332 L216,324 L226,311 L234,301 L240,292 L246,284 L253,276 L253,271 L240,258 L229,250 L221,243 L215,234 L208,226 L203,221 L198,214 L194,207 L187,196 L180,183 L177,174 L169,158 L161,142 L155,130 L147,120 L142,111 L130,97 L123,89 L118,84 L110,76 L104,72 L94,63 L80,55 L67,49 L52,43 L43,41 L40,39 L16,36 Z M-250,378 L-265,379 L-267,380 L-278,380 L-288,382 L-297,385 L-311,390 L-314,393 L-313,396 L-304,398 L-296,398 L-265,405 L-252,409 L-245,413 L-238,415 L-230,420 L-222,423 L-215,429 L-203,438 L-195,444 L-185,453 L-176,465 L-170,472 L-163,481 L-158,488 L-154,498 L-149,505 L-141,526 L-138,537 L-134,557 L-132,589 L-133,605 L-131,607 L-127,606 L-122,600 L-116,595 L-108,584 L-104,579 L-97,569 L-95,565 L-88,559 L-84,551 L-84,549 L-79,547 L-70,535 L-63,526 L-58,518 L-57,513 L-62,500 L-69,489 L-72,482 L-78,473 L-82,466 L-87,460 L-91,453 L-96,446 L-100,439 L-108,431 L-115,422 L-123,414 L-139,404 L-152,396 L-162,393 L-174,388 L-188,385 L-197,381 L-212,379 L-234,378 Z M-336,425 L-341,429 L-347,427 L-353,428 L-365,431 L-379,436 L-398,446 L-406,450 L-417,458 L-423,462 L-431,470 L-440,477 L-449,490 L-454,498 L-461,509 L-467,525 L-470,534 L-475,547 L-478,565 L-478,602 L-476,610 L-474,624 L-470,635 L-468,642 L-464,647 L-460,648 L-452,644 L-451,637 L-456,626 L-458,616 L-462,595 L-462,569 L-457,543 L-450,523 L-441,506 L-433,494 L-416,477 L-402,466 L-395,462 L-390,458 L-382,455 L-372,450 L-363,448 L-347,444 L-329,442 L-321,441 L-297,442 L-292,444 L-278,447 L-266,451 L-257,455 L-251,458 L-246,462 L-239,465 L-228,474 L-223,476 L-221,480 L-209,491 L-203,499 L-197,509 L-193,515 L-188,527 L-185,536 L-180,548 L-176,575 L-176,588 L-179,615 L-184,631 L-191,649 L-199,663 L-203,670 L-203,672 L-207,674 L-216,684 L-224,692 L-235,700 L-241,704 L-257,713 L-267,718 L-282,722 L-299,726 L-313,727 L-324,727 L-340,725 L-358,722 L-376,715 L-390,708 L-402,700 L-414,690 L-419,685 L-432,672 L-440,659 L-447,653 L-449,653 L-450,650 L-454,650 L-458,658 L-457,664 L-453,672 L-442,685 L-438,690 L-434,694 L-427,703 L-416,710 L-411,715 L-399,721 L-391,726 L-379,732 L-368,736 L-356,739 L-351,741 L-319,743 L-317,744 L-306,743 L-290,741 L-283,741 L-276,738 L-265,735 L-255,732 L-243,725 L-229,717 L-216,707 L-211,703 L-206,698 L-201,693 L-192,683 L-186,674 L-181,667 L-176,658 L-169,644 L-164,627 L-161,616 L-158,593 L-158,573 L-160,558 L-162,552 L-164,541 L-170,524 L-177,510 L-184,496 L-191,487 L-200,477 L-207,469 L-214,463 L-222,456 L-231,450 L-249,440 L-259,435 L-277,429 L-285,427 L-300,425 Z M-325,462 L-344,465 L-351,468 L-362,470 L-380,478 L-391,486 L-397,491 L-405,498 L-413,506 L-422,517 L-428,527 L-432,537 L-438,555 L-439,559 L-440,575 L-440,586 L-439,602 L-435,619 L-432,628 L-428,638 L-421,652 L-414,659 L-410,665 L-405,671 L-395,679 L-386,684 L-384,684 L-384,686 L-377,691 L-359,698 L-352,701 L-344,703 L-334,704 L-332,705 L-308,705 L-301,704 L-291,703 L-281,700 L-273,697 L-262,693 L-251,686 L-241,678 L-233,671 L-225,662 L-220,658 L-217,653 L-215,648 L-211,644 L-205,631 L-203,622 L-199,612 L-197,596 L-197,578 L-199,560 L-202,549 L-207,536 L-210,528 L-219,515 L-225,506 L-234,496 L-243,488 L-253,481 L-269,473 L-285,467 L-300,463 L-314,462 Z " fill="#000000" transform="translate(676,36)"/>
<path d="M0,0 L7,1 L14,6 L21,10 L28,15 L38,19 L52,26 L56,30 L64,35 L71,42 L84,47 L92,54 L103,61 L118,71 L131,79 L140,84 L148,91 L166,99 L171,102 L182,112 L181,119 L177,126 L169,143 L161,161 L154,170 L150,172 L145,171 L123,159 L108,151 L86,139 L78,135 L73,136 L69,141 L61,157 L57,166 L53,174 L48,183 L40,193 L32,209 L28,216 L24,223 L15,238 L10,246 L7,254 L-6,277 L-15,291 L-22,304 L-32,323 L-38,333 L-44,343 L-49,352 L-55,362 L-63,378 L-71,391 L-79,408 L-88,422 L-96,439 L-103,452 L-111,465 L-118,477 L-123,487 L-134,506 L-144,522 L-151,535 L-159,549 L-166,562 L-173,575 L-180,586 L-184,594 L-190,604 L-200,623 L-206,632 L-210,639 L-217,651 L-223,663 L-227,665 L-233,664 L-238,658 L-251,651 L-265,641 L-271,637 L-273,630 L-270,621 L-264,611 L-253,592 L-246,580 L-241,574 L-237,564 L-227,549 L-221,536 L-215,527 L-205,512 L-202,507 L-199,500 L-193,492 L-187,481 L-178,465 L-176,465 L-174,459 L-166,445 L-160,436 L-152,423 L-145,412 L-140,401 L-132,387 L-120,368 L-115,360 L-111,351 L-100,334 L-90,317 L-85,310 L-83,304 L-77,295 L-68,278 L-61,267 L-55,255 L-49,247 L-41,231 L-32,216 L-28,211 L-22,200 L-18,192 L-14,185 L-7,175 L-1,163 L5,155 L13,139 L16,133 L26,118 L29,109 L26,104 L9,94 L-1,88 L-15,79 L-24,74 L-34,68 L-40,64 L-43,60 L-42,54 L-36,46 L-28,37 L-24,31 L-19,24 L-14,15 L-7,8 L-2,1 Z " fill="#000000" transform="translate(1056,83)"/>
<path d="M0,0 L14,0 L26,1 L41,7 L64,19 L69,23 L83,33 L95,41 L100,46 L106,49 L113,55 L124,64 L133,73 L144,81 L151,89 L158,96 L165,105 L169,109 L173,115 L179,124 L186,136 L191,143 L195,156 L196,162 L196,180 L188,200 L182,207 L167,217 L160,219 L141,221 L132,220 L118,216 L108,213 L100,207 L89,201 L69,189 L64,185 L59,184 L53,187 L47,192 L45,192 L45,194 L37,201 L31,208 L25,213 L23,213 L21,217 L15,224 L10,229 L3,236 L-1,239 L-3,239 L-5,243 L-19,258 L-30,268 L-34,273 L-39,278 L-49,288 L-54,293 L-60,299 L-64,301 L-69,307 L-77,314 L-102,339 L-110,346 L-119,355 L-125,363 L-131,367 L-135,373 L-139,376 L-144,376 L-146,374 L-146,365 L-143,357 L-137,349 L-132,338 L-122,327 L-111,309 L-103,298 L-99,293 L-90,279 L-86,274 L-83,269 L-77,262 L-73,255 L-66,247 L-60,237 L-56,232 L-50,223 L-42,207 L-35,197 L-29,189 L-23,180 L-17,172 L-10,161 L-3,151 L1,145 L2,136 L-4,127 L-11,119 L-19,108 L-24,103 L-28,96 L-34,85 L-37,78 L-40,70 L-43,56 L-43,34 L-38,24 L-30,13 L-17,5 L-10,2 Z " fill="#000000" transform="translate(184,85)"/>
<path d="M0,0 L28,1 L34,2 L40,2 L43,4 L53,6 L69,15 L74,19 L85,26 L90,31 L97,39 L110,55 L114,66 L119,78 L122,94 L122,129 L115,150 L109,162 L101,175 L92,186 L84,194 L68,204 L61,208 L51,212 L34,217 L4,218 L-16,214 L-22,213 L-29,209 L-41,203 L-50,197 L-65,183 L-72,175 L-81,161 L-85,154 L-91,136 L-94,122 L-94,93 L-90,78 L-86,70 L-83,61 L-79,50 L-72,43 L-70,40 L-68,40 L-66,36 L-56,24 L-48,18 L-36,11 L-29,8 L-23,5 L-12,3 Z M1,26 L-23,34 L-33,41 L-41,47 L-51,57 L-61,76 L-66,89 L-68,94 L-70,115 L-67,132 L-62,145 L-55,156 L-47,166 L-38,175 L-28,181 L-17,188 L-8,187 L-3,191 L6,193 L21,192 L36,190 L51,185 L59,180 L64,177 L71,170 L79,163 L85,155 L91,146 L97,126 L98,120 L98,97 L94,82 L86,66 L83,61 L77,53 L67,44 L57,38 L47,32 L25,26 Z " fill="#000000" transform="translate(343,511)"/>
<path d="M0,0 L21,3 L34,7 L43,12 L54,22 L59,25 L66,36 L73,54 L74,71 L72,86 L69,95 L63,107 L53,118 L50,121 L37,129 L22,135 L-1,135 L-13,132 L-25,127 L-36,119 L-47,107 L-54,88 L-56,83 L-58,69 L-57,54 L-53,44 L-51,41 L-48,30 L-40,19 L-36,17 L-34,13 L-29,9 L-10,2 Z M-3,30 L-12,34 L-23,43 L-30,54 L-32,62 L-32,71 L-28,84 L-22,94 L-15,101 L-7,105 L6,108 L17,106 L32,100 L41,90 L45,81 L45,66 L42,51 L38,43 L31,37 L23,32 L7,30 Z " fill="#000000" transform="translate(350,552)"/>
<path d="M0,0 L12,0 L20,4 L28,9 L32,20 L32,32 L28,40 L23,46 L15,50 L0,50 L-9,44 L-17,35 L-19,28 L-19,18 L-15,8 L-9,3 Z M2,13 L-4,19 L-5,24 L0,34 L2,36 L12,35 L17,30 L18,28 L18,21 L14,15 L8,13 Z " fill="#000000" transform="translate(350,595)"/>
</svg>
