<?xml version="1.0" encoding="UTF-8"?>
<!-- Generator: visioncortex VTracer 0.6.12 -->
<svg version="1.1" xmlns="http://www.w3.org/2000/svg" width="1017" height="942">
<path d="M0,0 L19,0 L38,3 L54,6 L78,14 L96,22 L106,29 L117,37 L133,50 L144,59 L156,70 L166,78 L175,88 L182,96 L194,109 L205,120 L210,125 L220,134 L220,136 L224,138 L232,146 L240,152 L240,154 L244,156 L255,166 L264,172 L277,181 L294,193 L307,201 L321,209 L332,215 L341,219 L352,224 L369,231 L381,234 L396,239 L402,241 L426,245 L440,249 L457,251 L469,251 L469,220 L467,165 L466,108 L465,89 L465,78 L468,72 L480,64 L490,58 L499,53 L509,47 L522,38 L533,32 L538,29 L547,26 L563,18 L571,15 L590,11 L621,11 L648,13 L653,15 L663,17 L682,26 L687,30 L700,40 L705,46 L710,49 L718,62 L725,76 L728,82 L729,87 L731,128 L732,226 L733,272 L733,282 L734,302 L734,325 L735,398 L737,442 L738,499 L738,537 L739,567 L740,646 L740,667 L739,688 L738,692 L737,711 L730,725 L726,732 L722,742 L719,747 L711,758 L708,762 L705,769 L693,785 L683,797 L677,804 L675,804 L673,808 L662,819 L648,829 L638,835 L622,843 L605,851 L591,857 L583,859 L569,863 L556,865 L539,867 L533,869 L502,870 L469,869 L462,867 L446,865 L439,864 L433,863 L414,857 L404,855 L398,852 L390,850 L381,846 L375,844 L365,840 L355,834 L342,829 L319,816 L312,812 L301,805 L294,801 L282,792 L269,780 L258,769 L252,765 L250,761 L246,759 L232,744 L225,738 L219,733 L217,730 L213,730 L210,736 L208,744 L202,758 L198,764 L193,773 L185,785 L177,795 L170,804 L155,819 L147,825 L138,833 L131,837 L121,844 L102,854 L92,858 L79,863 L66,867 L45,871 L20,873 L6,873 L-22,870 L-39,866 L-54,862 L-74,854 L-96,842 L-106,836 L-107,834 L-114,830 L-124,821 L-132,814 L-143,803 L-149,795 L-157,785 L-166,774 L-171,764 L-178,752 L-184,736 L-190,718 L-193,706 L-197,679 L-198,662 L-198,636 L-199,629 L-199,605 L-200,547 L-201,500 L-202,473 L-203,416 L-204,393 L-205,356 L-207,275 L-208,255 L-209,212 L-209,184 L-204,177 L-201,161 L-197,147 L-193,133 L-188,124 L-185,117 L-179,106 L-168,90 L-162,83 L-158,77 L-150,67 L-145,62 L-133,51 L-123,42 L-117,39 L-111,35 L-107,32 L-101,29 L-92,23 L-81,19 L-70,13 L-53,8 L-43,5 L-34,4 L-32,3 L-16,1 Z M-8,26 L-23,28 L-39,31 L-57,36 L-72,42 L-82,47 L-98,56 L-117,70 L-127,80 L-132,85 L-139,92 L-146,101 L-151,108 L-155,115 L-164,132 L-169,142 L-178,172 L-181,192 L-181,237 L-177,257 L-171,277 L-167,284 L-164,291 L-156,307 L-147,321 L-140,330 L-128,343 L-119,351 L-117,351 L-115,355 L-105,362 L-99,366 L-89,372 L-76,379 L-72,382 L-63,384 L-55,388 L-35,393 L-28,395 L5,398 L19,397 L42,394 L51,392 L54,390 L68,387 L78,383 L95,375 L103,369 L111,365 L122,357 L136,344 L141,340 L150,329 L159,317 L168,302 L173,293 L179,276 L182,269 L188,247 L190,236 L190,229 L191,226 L191,200 L187,172 L184,160 L180,150 L175,136 L168,122 L163,112 L156,102 L147,91 L144,87 L142,87 L140,83 L137,82 L135,78 L127,68 L116,60 L111,56 L97,49 L92,46 L76,40 L69,37 L54,32 L32,27 L23,27 L19,26 Z M211,161 L209,163 L210,172 L212,181 L216,184 L220,186 L223,191 L224,196 L215,194 L214,216 L216,322 L217,340 L218,406 L220,462 L220,476 L221,501 L221,521 L223,584 L224,592 L229,593 L234,594 L243,604 L244,609 L238,607 L230,599 L228,596 L224,597 L224,640 L225,668 L224,672 L223,696 L230,707 L239,718 L247,725 L254,733 L262,741 L268,746 L273,751 L281,758 L286,763 L291,767 L296,769 L298,773 L306,779 L317,785 L325,790 L334,795 L345,802 L357,808 L365,812 L369,815 L387,823 L396,826 L432,838 L442,840 L462,845 L476,846 L500,846 L522,844 L524,843 L538,842 L553,839 L564,836 L585,830 L595,826 L615,819 L625,813 L630,810 L641,801 L647,797 L656,788 L660,781 L660,777 L657,776 L658,771 L664,764 L667,764 L666,769 L662,774 L662,776 L667,775 L672,770 L680,759 L685,750 L692,739 L700,723 L710,704 L715,694 L716,690 L717,667 L717,611 L716,529 L715,500 L715,478 L713,418 L711,415 L706,416 L698,421 L695,421 L695,417 L711,408 L713,404 L712,385 L709,382 L699,382 L699,378 L709,376 L711,373 L711,293 L710,269 L710,233 L709,196 L707,169 L704,168 L701,171 L698,178 L692,187 L684,200 L678,208 L667,217 L662,222 L652,230 L639,240 L623,249 L616,254 L601,259 L584,267 L563,273 L552,275 L536,278 L522,279 L507,279 L480,278 L461,276 L440,274 L438,273 L418,270 L410,268 L397,266 L388,263 L374,259 L370,257 L363,255 L350,250 L336,243 L327,239 L319,234 L302,226 L295,221 L281,214 L276,210 L270,207 L262,201 L257,197 L243,188 L236,180 L225,171 L217,164 L214,161 Z M722,205 L721,208 L722,210 L725,210 L725,205 Z M189,317 L185,321 L176,332 L163,348 L154,358 L150,363 L144,367 L137,374 L129,379 L125,383 L110,392 L95,400 L85,404 L76,408 L67,411 L59,413 L57,414 L45,416 L38,418 L11,420 L-7,420 L-32,418 L-50,413 L-59,411 L-69,407 L-83,402 L-99,394 L-107,389 L-118,382 L-127,375 L-133,371 L-138,366 L-154,351 L-159,345 L-162,340 L-171,328 L-174,325 L-178,326 L-178,374 L-177,392 L-177,424 L-176,458 L-175,511 L-175,527 L-174,541 L-174,576 L-172,657 L-170,670 L-169,688 L-167,694 L-165,707 L-159,727 L-151,745 L-142,761 L-134,772 L-125,783 L-113,796 L-104,804 L-90,814 L-81,819 L-68,828 L-51,835 L-33,840 L-25,843 L-2,846 L33,846 L49,843 L63,840 L76,836 L86,833 L105,823 L118,815 L130,806 L135,801 L149,788 L158,777 L167,766 L173,756 L179,745 L185,732 L188,725 L192,711 L194,705 L196,695 L199,678 L201,664 L202,628 L203,617 L203,591 L201,568 L199,512 L198,489 L197,440 L195,390 L194,352 L194,336 L193,332 L192,318 Z " fill="#000000" transform="translate(244,37)"/>
<path d="M0,0 L10,1 L29,1 L42,2 L48,4 L59,6 L69,9 L85,15 L95,21 L101,25 L117,36 L128,45 L133,49 L140,57 L152,71 L162,87 L173,107 L176,116 L179,123 L182,137 L185,150 L186,166 L186,190 L184,205 L179,228 L173,244 L167,256 L161,267 L149,284 L142,291 L135,299 L131,303 L129,303 L127,307 L120,314 L102,325 L83,335 L73,339 L64,342 L52,345 L37,348 L2,349 L-24,346 L-36,342 L-45,339 L-55,336 L-66,330 L-73,327 L-82,321 L-88,317 L-104,305 L-119,290 L-130,276 L-131,273 L-133,273 L-141,259 L-145,252 L-149,242 L-153,229 L-158,213 L-161,194 L-162,183 L-162,172 L-160,146 L-156,130 L-153,123 L-151,114 L-145,99 L-138,86 L-132,77 L-128,71 L-116,57 L-109,49 L-98,40 L-91,34 L-75,24 L-58,15 L-48,11 L-39,8 L-30,6 L-25,4 L-18,2 L-2,1 Z M5,34 L-15,36 L-24,39 L-36,42 L-44,46 L-55,51 L-71,61 L-82,70 L-87,75 L-95,83 L-105,96 L-114,113 L-118,120 L-120,128 L-123,134 L-126,149 L-127,152 L-128,166 L-128,182 L-125,206 L-123,216 L-120,225 L-112,242 L-106,251 L-96,265 L-84,278 L-76,285 L-66,293 L-61,297 L-38,308 L-29,311 L-19,313 L-5,316 L4,317 L34,317 L44,314 L61,310 L81,301 L94,293 L109,282 L116,275 L121,270 L131,257 L134,253 L142,237 L147,227 L151,217 L154,206 L157,172 L158,166 L158,157 L156,153 L154,140 L150,131 L145,120 L140,111 L136,105 L130,95 L123,86 L118,81 L105,68 L99,64 L95,59 L86,54 L77,49 L70,46 L61,42 L46,38 L26,34 Z " fill="#000000" transform="translate(235,73)"/>
<path d="M0,0 L2,0 L2,2 L-1,1 Z " fill="#000000" transform="translate(707,102)"/>
<path d="M0,0 L16,1 L33,4 L41,8 L48,10 L57,14 L68,21 L75,25 L89,37 L93,42 L96,48 L104,54 L109,60 L118,77 L124,92 L128,112 L129,125 L129,136 L127,160 L125,164 L123,173 L115,194 L107,205 L101,213 L91,225 L80,234 L72,242 L55,250 L46,253 L39,257 L24,259 L12,261 L-12,261 L-25,259 L-43,254 L-55,249 L-67,243 L-78,235 L-87,228 L-95,220 L-102,211 L-108,203 L-119,185 L-125,169 L-128,158 L-130,142 L-130,123 L-128,107 L-124,93 L-121,82 L-113,66 L-106,55 L-101,50 L-94,39 L-81,28 L-75,24 L-72,21 L-56,13 L-49,10 L-40,6 L-31,4 L-19,1 L-9,1 Z M-7,40 L-28,44 L-41,49 L-55,58 L-64,65 L-71,73 L-79,85 L-86,99 L-89,110 L-91,121 L-91,144 L-88,156 L-85,166 L-79,178 L-73,186 L-61,199 L-53,206 L-39,214 L-30,218 L-25,220 L-9,223 L4,224 L21,222 L32,220 L35,217 L44,213 L54,207 L54,205 L59,203 L70,192 L77,187 L87,169 L91,157 L94,140 L93,118 L89,109 L87,100 L83,90 L74,76 L60,61 L54,57 L48,53 L31,45 L21,42 L12,40 Z " fill="#000000" transform="translate(248,117)"/>
<path d="M0,0 L11,0 L27,2 L42,7 L51,12 L62,19 L74,31 L83,46 L87,55 L92,79 L92,92 L88,108 L85,118 L79,128 L73,137 L69,142 L55,153 L39,161 L22,165 L3,165 L-9,164 L-23,159 L-37,151 L-50,140 L-61,126 L-67,115 L-72,94 L-73,80 L-69,59 L-64,47 L-57,35 L-48,25 L-43,20 L-34,13 L-30,10 L-19,5 Z M7,35 L-9,39 L-19,45 L-25,50 L-31,57 L-37,72 L-38,79 L-37,96 L-32,108 L-26,116 L-21,122 L-10,129 L-3,132 L14,133 L23,132 L34,127 L43,121 L48,115 L55,102 L58,97 L58,78 L55,68 L47,54 L37,44 L28,39 L21,36 L16,35 Z " fill="#000000" transform="translate(238,165)"/>
<path d="M0,0 L12,0 L20,1 L27,7 L35,14 L40,22 L43,29 L43,47 L40,56 L34,64 L26,71 L19,75 L8,76 L3,77 L-10,73 L-19,67 L-26,59 L-32,45 L-32,33 L-29,23 L-22,13 L-14,6 L-3,1 Z " fill="#000000" transform="translate(242,210)"/>
<path d="M0,0 L5,2 L15,9 L21,16 L20,20 L17,21 L8,15 L-2,9 L-4,7 L-3,2 Z " fill="#000000" transform="translate(502,245)"/>
<path d="M0,0 L3,1 L2,6 L0,8 L-5,8 L-4,3 Z " fill="#000000" transform="translate(939,249)"/>
<path d="M0,0 L5,1 L15,10 L24,15 L29,20 L27,24 L23,23 L13,17 L4,12 L-1,8 L-2,3 Z " fill="#000000" transform="translate(478,254)"/>
<path d="M0,0 L5,0 L4,5 L0,9 L-7,13 L-10,15 L-14,14 L-13,9 L-1,1 Z " fill="#000000" transform="translate(925,273)"/>
<path d="M0,0 L5,1 L23,11 L28,14 L27,19 L23,18 L18,17 L11,14 L-1,8 L-2,7 L-2,1 Z " fill="#000000" transform="translate(530,280)"/>
<path d="M0,0 L5,1 L13,7 L19,11 L20,14 L18,16 L14,15 L6,10 L-1,6 L-2,2 Z " fill="#000000" transform="translate(476,285)"/>
<path d="M0,0 L5,2 L11,7 L11,12 L6,12 L-3,6 L-2,1 Z " fill="#000000" transform="translate(508,291)"/>
<path d="M0,0 L7,1 L16,4 L20,7 L21,11 L20,13 L13,12 L-1,8 L-4,6 L-2,1 Z " fill="#000000" transform="translate(571,293)"/>
<path d="M0,0 L3,1 L3,7 L-5,11 L-12,12 L-14,10 L-13,6 L-3,2 Z " fill="#000000" transform="translate(879,299)"/>
<path d="M0,0 L3,0 L4,3 L1,6 L-7,11 L-12,11 L-12,7 L-3,2 Z " fill="#000000" transform="translate(928,307)"/>
<path d="M0,0 L5,1 L19,9 L23,11 L23,15 L18,16 L2,8 L-2,4 Z " fill="#000000" transform="translate(513,308)"/>
<path d="M0,0 L5,2 L16,5 L20,9 L19,14 L6,11 L-2,8 L-3,3 Z " fill="#000000" transform="translate(623,309)"/>
<path d="M0,0 L5,1 L4,5 L-2,10 L-13,14 L-20,13 L-21,8 L-19,6 L-11,7 Z " fill="#000000" transform="translate(885,311)"/>
<path d="M0,0 L5,2 L15,8 L14,12 L11,13 L2,9 L-2,7 L-3,2 Z " fill="#000000" transform="translate(480,317)"/>
<path d="M0,0 L5,1 L9,3 L16,5 L17,6 L17,11 L14,12 L3,11 L-3,6 L-2,1 Z " fill="#000000" transform="translate(571,318)"/>
<path d="M0,0 L4,1 L5,4 L1,8 L-11,12 L-16,14 L-20,10 L-18,6 L-9,5 Z " fill="#000000" transform="translate(834,320)"/>
<path d="M0,0 L8,1 L13,3 L14,7 L11,10 L5,10 L-1,7 L-2,2 Z " fill="#000000" transform="translate(611,324)"/>
<path d="M0,0 L4,1 L3,5 L-4,10 L-10,13 L-14,12 L-15,10 L-13,7 L-1,1 Z " fill="#000000" transform="translate(900,329)"/>
<path d="M0,0 L8,1 L21,8 L22,11 L21,13 L15,13 L-1,6 L-1,1 Z " fill="#000000" transform="translate(539,332)"/>
<path d="M0,0 L6,1 L24,1 L27,3 L26,8 L4,10 L-2,6 L-1,1 Z " fill="#000000" transform="translate(691,332)"/>
<path d="M0,0 L3,1 L2,5 L-5,10 L-10,13 L-16,13 L-17,8 L-7,4 Z " fill="#000000" transform="translate(852,338)"/>
<path d="M0,0 L5,0 L6,4 L5,6 L-8,9 L-14,9 L-17,4 L-14,1 Z " fill="#000000" transform="translate(759,339)"/>
<path d="M0,0 L4,2 L3,7 L-2,11 L-5,10 L-6,7 Z " fill="#000000" transform="translate(937,340)"/>
<path d="M0,0 L5,1 L13,5 L20,8 L21,12 L20,13 L13,13 L4,10 L-1,6 Z " fill="#000000" transform="translate(522,342)"/>
<path d="M0,0 L3,0 L3,6 L-2,9 L-6,10 L-13,10 L-17,6 L-17,3 L-15,2 L-4,2 Z " fill="#000000" transform="translate(804,342)"/>
<path d="M0,0 L7,0 L19,3 L21,5 L20,10 L6,9 L-2,6 L-1,1 Z " fill="#000000" transform="translate(669,345)"/>
<path d="M0,0 L7,1 L12,6 L11,10 L8,11 L4,9 L4,7 L0,5 L-1,1 Z " fill="#000000" transform="translate(471,348)"/>
<path d="M0,0 L6,1 L12,4 L17,6 L17,10 L15,12 L6,11 L0,8 L-2,6 L-1,1 Z " fill="#000000" transform="translate(595,348)"/>
<path d="M0,0 L6,1 L15,4 L24,9 L24,13 L20,14 L0,8 L-2,6 L-1,1 Z " fill="#000000" transform="translate(640,351)"/>
<path d="M0,0 L4,1 L3,5 L-13,14 L-19,17 L-24,16 L-23,12 L-7,4 Z " fill="#000000" transform="translate(859,352)"/>
<path d="M0,0 L5,1 L13,7 L14,10 L13,12 L7,12 L-2,6 L-1,1 Z " fill="#000000" transform="translate(494,354)"/>
<path d="M0,0 L6,0 L7,5 L4,8 L-5,10 L-10,10 L-12,6 L-10,4 L-1,1 Z " fill="#000000" transform="translate(735,358)"/>
<path d="M0,0 L2,0 L0,5 L-4,9 L-6,9 L-6,11 L-15,16 L-20,19 L-24,18 L-24,14 L-8,6 Z " fill="#000000" transform="translate(909,361)"/>
<path d="M0,0 L5,1 L3,6 L-6,10 L-19,11 L-21,7 L-18,4 L-5,3 Z " fill="#000000" transform="translate(799,365)"/>
<path d="M0,0 L5,1 L19,8 L20,11 L18,13 L12,12 L2,8 L-1,5 Z " fill="#000000" transform="translate(575,366)"/>
<path d="M0,0 L4,1 L3,5 L-3,10 L-7,9 L-6,4 Z " fill="#000000" transform="translate(942,370)"/>
<path d="M0,0 L8,4 L10,6 L10,10 L2,10 L-2,7 L-2,1 Z " fill="#000000" transform="translate(470,371)"/>
<path d="M0,0 L12,0 L13,4 L7,7 L0,7 L-2,3 Z " fill="#000000" transform="translate(690,374)"/>
<path d="M0,0 L6,1 L19,8 L20,12 L19,14 L14,14 L1,6 L0,5 Z " fill="#000000" transform="translate(546,376)"/>
<path d="M0,0 L7,0 L12,2 L32,5 L34,6 L34,9 L9,9 L2,8 L-1,5 Z " fill="#000000" transform="translate(627,378)"/>
<path d="M0,0 L5,0 L10,6 L18,10 L18,15 L13,16 L2,8 L-1,4 Z " fill="#000000" transform="translate(513,380)"/>
<path d="M0,0 L4,1 L5,4 L0,9 L-6,11 L-13,11 L-14,6 L-13,5 L-3,3 Z " fill="#000000" transform="translate(853,382)"/>
<path d="M0,0 L5,1 L6,5 L4,7 L-17,7 L-19,3 L-17,1 Z " fill="#000000" transform="translate(759,391)"/>
<path d="M0,0 L3,1 L1,7 L-8,15 L-13,15 L-14,12 L-10,8 L-2,2 Z " fill="#000000" transform="translate(938,392)"/>
<path d="M0,0 L5,2 L8,5 L11,7 L11,12 L5,12 L-1,7 L-1,1 Z " fill="#000000" transform="translate(490,393)"/>
<path d="M0,0 L3,1 L2,7 L-5,13 L-9,15 L-15,15 L-16,11 L-6,6 L-2,1 Z " fill="#000000" transform="translate(904,394)"/>
<path d="M0,0 L3,1 L2,6 L-4,9 L-16,9 L-17,4 L-14,2 L-3,1 Z " fill="#000000" transform="translate(819,396)"/>
<path d="M0,0 L9,1 L19,6 L28,9 L27,13 L26,14 L20,14 L3,7 L-1,3 Z " fill="#000000" transform="translate(595,401)"/>
<path d="M0,0 L5,1 L16,8 L21,11 L22,15 L21,16 L14,15 L3,9 L-1,5 Z " fill="#000000" transform="translate(541,402)"/>
<path d="M0,0 L5,0 L6,5 L5,6 L0,6 L-1,1 Z " fill="#000000" transform="translate(646,405)"/>
<path d="M0,0 L10,1 L16,0 L23,3 L27,9 L26,11 L9,10 L-1,6 L-2,2 Z " fill="#000000" transform="translate(690,410)"/>
<path d="M0,0 L4,0 L5,3 L1,7 L-10,13 L-15,14 L-16,9 L-9,5 Z " fill="#000000" transform="translate(860,414)"/>
<path d="M0,0 L5,1 L10,5 L14,8 L14,12 L10,13 L0,7 L-1,1 Z " fill="#000000" transform="translate(477,417)"/>
<path d="M0,0 L6,0 L18,6 L25,9 L24,14 L17,13 L2,7 L-1,5 Z " fill="#000000" transform="translate(634,420)"/>
<path d="M0,0 L12,3 L25,5 L32,7 L32,12 L31,13 L18,12 L13,10 L-1,9 L-3,7 L-3,2 Z " fill="#000000" transform="translate(743,420)"/>
<path d="M0,0 L23,0 L25,1 L24,6 L22,7 L7,9 L-1,6 L-1,1 Z " fill="#000000" transform="translate(799,420)"/>
<path d="M0,0 L6,1 L9,3 L9,8 L3,7 L0,5 Z " fill="#000000" transform="translate(537,421)"/>
<path d="M0,0 L4,1 L2,6 L-8,12 L-13,14 L-18,13 L-19,9 L-16,6 L-6,4 Z " fill="#000000" transform="translate(882,429)"/>
<path d="M0,0 L6,0 L17,9 L19,10 L18,14 L13,13 L-1,6 L-1,1 Z " fill="#000000" transform="translate(501,431)"/>
<path d="M0,0 L6,0 L5,4 L-5,12 L-11,15 L-15,14 L-16,9 L-7,5 Z " fill="#000000" transform="translate(914,432)"/>
<path d="M0,0 L5,0 L10,3 L18,4 L20,8 L17,10 L5,9 L0,6 L-1,2 Z " fill="#000000" transform="translate(588,433)"/>
<path d="M0,0 L5,0 L6,4 L1,4 Z " fill="#000000" transform="translate(687,433)"/>
<path d="M0,0 L12,6 L17,10 L18,14 L13,13 L0,6 L-1,1 Z " fill="#000000" transform="translate(577,438)"/>
<path d="M0,0 L4,1 L9,3 L27,5 L26,10 L20,11 L6,10 L-1,7 L-2,2 Z " fill="#000000" transform="translate(725,438)"/>
<path d="M0,0 L6,1 L19,8 L20,13 L15,14 L7,10 L-2,8 L-3,7 L-3,2 Z " fill="#000000" transform="translate(630,439)"/>
<path d="M0,0 L5,0 L6,3 L11,5 L14,8 L13,11 L4,8 L-1,3 Z " fill="#000000" transform="translate(540,446)"/>
<path d="M0,0 L5,1 L10,6 L18,11 L18,15 L15,16 L5,12 L0,8 Z " fill="#000000" transform="translate(474,450)"/>
<path d="M0,0 L5,1 L14,3 L18,6 L18,10 L13,11 L0,7 L-2,5 L-2,1 Z " fill="#000000" transform="translate(669,450)"/>
<path d="M0,0 L5,1 L5,6 L-3,9 L-17,9 L-20,6 L-19,2 L-2,1 Z " fill="#000000" transform="translate(833,450)"/>
<path d="M0,0 L5,1 L13,3 L23,5 L24,9 L23,10 L5,10 L-2,7 L-3,3 Z " fill="#000000" transform="translate(765,456)"/>
<path d="M0,0 L5,1 L10,4 L13,6 L13,10 L11,11 L5,11 L-1,7 L-2,3 Z " fill="#000000" transform="translate(622,457)"/>
<path d="M0,0 L5,0 L13,5 L20,9 L21,10 L21,15 L16,15 L0,6 L-1,1 Z " fill="#000000" transform="translate(501,459)"/>
<path d="M0,0 L5,0 L6,3 L2,8 L-7,12 L-12,13 L-13,8 L-9,5 L-1,1 Z " fill="#000000" transform="translate(861,460)"/>
<path d="M0,0 L5,1 L4,6 L-7,13 L-14,16 L-19,16 L-21,14 L-20,10 L-15,8 L-6,5 Z " fill="#000000" transform="translate(898,465)"/>
<path d="M0,0 L5,1 L4,6 L-1,8 L-3,4 Z " fill="#000000" transform="translate(916,467)"/>
<path d="M0,0 L7,0 L17,6 L18,10 L14,11 L-1,6 L-2,2 Z " fill="#000000" transform="translate(645,471)"/>
<path d="M0,0 L6,1 L12,5 L13,8 L11,11 L4,10 L-1,6 L-1,1 Z " fill="#000000" transform="translate(685,475)"/>
<path d="M0,0 L7,4 L16,11 L18,13 L18,17 L12,16 L2,9 L-3,4 L-2,1 Z " fill="#000000" transform="translate(547,476)"/>
<path d="M0,0 L6,1 L15,7 L17,10 L13,14 L4,11 L-1,7 L-2,2 Z " fill="#000000" transform="translate(610,478)"/>
<path d="M0,0 L9,1 L18,3 L29,4 L29,7 L28,8 L9,8 L0,5 L-1,1 Z " fill="#000000" transform="translate(718,479)"/>
<path d="M0,0 L5,3 L4,7 L1,8 L-2,5 L-1,1 Z " fill="#000000" transform="translate(478,480)"/>
<path d="M0,0 L3,1 L2,8 L-2,12 L-7,12 L-6,5 Z " fill="#000000" transform="translate(934,480)"/>
<path d="M0,0 L5,1 L16,8 L18,10 L17,14 L16,15 L11,15 L2,10 L-3,5 L-1,1 Z " fill="#000000" transform="translate(579,483)"/>
<path d="M0,0 L28,0 L29,4 L25,7 L15,8 L1,8 L-2,5 L-1,1 Z " fill="#000000" transform="translate(807,486)"/>
<path d="M0,0 L14,1 L18,4 L18,8 L-2,8 L-3,7 L-3,2 Z " fill="#000000" transform="translate(771,487)"/>
<path d="M0,0 L6,1 L13,5 L12,9 L3,8 L-1,5 Z " fill="#000000" transform="translate(514,493)"/>
<path d="M0,0 L7,1 L12,4 L12,9 L7,10 L0,7 L-1,3 Z " fill="#000000" transform="translate(666,495)"/>
<path d="M0,0 L5,1 L4,5 L-7,14 L-15,20 L-20,20 L-21,17 L-16,11 L-9,7 L-1,1 Z " fill="#000000" transform="translate(897,496)"/>
<path d="M0,0 L6,2 L15,9 L15,13 L10,14 L3,10 L-2,6 L-1,1 Z " fill="#000000" transform="translate(496,500)"/>
<path d="M0,0 L4,1 L3,7 L-3,16 L-6,19 L-11,18 L-10,13 L-4,8 L-1,1 Z " fill="#000000" transform="translate(941,501)"/>
<path d="M0,0 L5,1 L9,5 L23,12 L31,15 L32,18 L31,20 L24,20 L11,16 L0,9 L-1,8 L-1,1 Z " fill="#000000" transform="translate(625,504)"/>
<path d="M0,0 L10,0 L12,2 L12,5 L7,6 L1,4 Z " fill="#000000" transform="translate(717,504)"/>
<path d="M0,0 L5,1 L11,6 L16,11 L18,12 L18,15 L13,14 L2,8 L-1,6 L-1,1 Z " fill="#000000" transform="translate(549,507)"/>
<path d="M0,0 L5,1 L10,4 L26,5 L28,6 L27,11 L15,12 L-1,12 L-3,10 L-3,3 Z " fill="#000000" transform="translate(786,507)"/>
<path d="M0,0 L6,2 L5,7 L3,8 L-14,10 L-20,10 L-22,6 L-20,3 L-5,1 Z " fill="#000000" transform="translate(864,508)"/>
<path d="M0,0 L5,1 L8,5 L8,10 L4,11 L0,8 L-1,1 Z " fill="#000000" transform="translate(477,511)"/>
<path d="M0,0 L5,1 L11,6 L12,12 L7,13 L-2,7 L-2,1 Z " fill="#000000" transform="translate(590,513)"/>
<path d="M0,0 L9,2 L22,3 L24,7 L21,9 L1,7 L-2,5 L-1,1 Z " fill="#000000" transform="translate(736,519)"/>
<path d="M0,0 L4,1 L5,5 L-1,9 L-10,10 L-13,7 L-8,2 Z " fill="#000000" transform="translate(904,519)"/>
<path d="M0,0 L5,0 L12,6 L23,13 L26,16 L25,21 L20,20 L11,14 L-1,5 Z " fill="#000000" transform="translate(683,524)"/>
<path d="M0,0 L7,1 L17,6 L21,10 L21,13 L15,14 L5,8 L0,5 L-1,1 Z " fill="#000000" transform="translate(540,530)"/>
<path d="M0,0 L6,2 L5,6 L-10,10 L-16,12 L-21,12 L-22,11 L-22,6 L-15,3 Z " fill="#000000" transform="translate(846,532)"/>
<path d="M0,0 L3,1 L2,6 L-6,16 L-10,19 L-14,19 L-15,15 L-10,10 L-4,5 Z " fill="#000000" transform="translate(936,533)"/>
<path d="M0,0 L5,2 L9,5 L16,8 L17,11 L15,14 L6,13 L0,9 L-2,7 L-2,1 Z " fill="#000000" transform="translate(632,535)"/>
<path d="M0,0 L5,0 L16,8 L18,10 L17,15 L12,15 L10,11 L6,9 L0,4 L-1,1 Z " fill="#000000" transform="translate(508,537)"/>
<path d="M0,0 L4,1 L14,10 L13,15 L8,14 L2,10 L-3,5 L-1,1 Z " fill="#000000" transform="translate(480,540)"/>
<path d="M0,0 L5,0 L14,6 L20,11 L19,15 L15,16 L1,8 L-1,2 Z " fill="#000000" transform="translate(599,540)"/>
<path d="M0,0 L16,0 L15,5 L9,7 L2,6 L0,4 Z " fill="#000000" transform="translate(784,543)"/>
<path d="M0,0 L6,0 L7,3 L3,7 L-3,8 L-4,3 Z " fill="#000000" transform="translate(865,543)"/>
<path d="M0,0 L7,1 L23,3 L25,7 L24,8 L4,9 L-1,6 L-2,2 Z " fill="#000000" transform="translate(732,544)"/>
<path d="M0,0 L3,0 L4,3 L0,7 L-15,17 L-23,23 L-27,22 L-28,18 L-24,14 L-18,11 L-10,5 L-4,2 Z " fill="#000000" transform="translate(902,544)"/>
<path d="M0,0 L7,1 L22,8 L23,13 L14,12 L1,8 L-2,5 Z " fill="#000000" transform="translate(677,550)"/>
<path d="M0,0 L5,0 L6,3 L3,7 L-4,10 L-13,12 L-16,10 L-14,6 L-4,3 Z " fill="#000000" transform="translate(815,557)"/>
<path d="M0,0 L7,2 L20,14 L21,19 L19,21 L15,20 L7,12 L-1,5 Z " fill="#000000" transform="translate(574,559)"/>
<path d="M0,0 L5,1 L4,7 L2,10 L-3,10 L-4,9 L-4,4 Z " fill="#000000" transform="translate(945,561)"/>
<path d="M0,0 L5,1 L15,7 L21,10 L21,15 L16,16 L2,8 L-1,5 Z " fill="#000000" transform="translate(546,564)"/>
<path d="M0,0 L5,1 L21,1 L22,5 L18,7 L11,8 L0,8 L-3,5 Z " fill="#000000" transform="translate(749,567)"/>
<path d="M0,0 L3,1 L2,6 L-7,10 L-17,12 L-19,7 L-17,4 L-4,2 Z " fill="#000000" transform="translate(861,566)"/>
<path d="M0,0 L4,1 L2,6 L-3,10 L-7,9 L-6,4 Z " fill="#000000" transform="translate(920,572)"/>
<path d="M0,0 L5,1 L21,11 L27,14 L27,18 L21,20 L12,15 L3,9 L-1,5 Z " fill="#000000" transform="translate(653,573)"/>
<path d="M0,0 L6,0 L21,4 L33,7 L36,9 L35,14 L30,13 L16,10 L14,9 L3,8 L-2,5 L-1,1 Z " fill="#000000" transform="translate(695,574)"/>
<path d="M0,0 L6,0 L15,8 L14,13 L8,12 L0,5 L-1,2 Z " fill="#000000" transform="translate(516,575)"/>
<path d="M0,0 L5,0 L12,5 L13,8 L10,11 L5,9 L-1,4 Z " fill="#000000" transform="translate(490,576)"/>
<path d="M0,0 L6,1 L15,6 L17,8 L16,13 L11,13 L0,6 L-1,1 Z " fill="#000000" transform="translate(631,586)"/>
<path d="M0,0 L4,0 L5,4 L3,6 L-15,10 L-18,8 L-17,4 L-12,2 Z " fill="#000000" transform="translate(821,589)"/>
<path d="M0,0 L5,0 L5,7 L-1,14 L-6,14 L-5,8 Z " fill="#000000" transform="translate(901,589)"/>
<path d="M0,0 L5,0 L6,5 L1,7 L-13,10 L-18,9 L-19,5 L-16,2 L-4,2 Z " fill="#000000" transform="translate(764,594)"/>
<path d="M0,0 L5,1 L3,5 L-2,9 L-7,9 L-7,4 Z " fill="#000000" transform="translate(852,594)"/>
<path d="M0,0 L5,1 L17,15 L19,20 L18,22 L13,22 L6,14 L-2,4 Z " fill="#000000" transform="translate(476,596)"/>
<path d="M0,0 L4,1 L3,6 L-1,11 L-5,10 L-4,5 Z " fill="#000000" transform="translate(920,596)"/>
<path d="M0,0 L6,1 L7,8 L3,9 L-1,5 Z " fill="#000000" transform="translate(513,598)"/>
<path d="M0,0 L4,1 L3,6 L-8,20 L-11,23 L-16,23 L-17,19 L-12,14 L-4,5 Z " fill="#000000" transform="translate(870,599)"/>
<path d="M0,0 L5,0 L11,5 L10,10 L5,9 L0,4 L-1,1 Z " fill="#000000" transform="translate(574,600)"/>
<path d="M0,0 L8,1 L12,3 L24,5 L26,7 L25,11 L15,11 L0,7 L-2,2 Z " fill="#000000" transform="translate(700,602)"/>
<path d="M0,0 L5,1 L10,7 L12,12 L10,14 L6,13 L0,6 L-1,1 Z " fill="#000000" transform="translate(614,605)"/>
<path d="M0,0 L2,1 L1,6 L-3,9 L-15,13 L-18,11 L-17,7 L-15,5 L-6,3 Z " fill="#000000" transform="translate(819,607)"/>
<path d="M0,0 L5,1 L13,8 L14,13 L10,15 L1,8 L-3,5 L-2,1 Z " fill="#000000" transform="translate(528,610)"/>
<path d="M0,0 L5,1 L3,6 L-1,13 L-5,12 L-4,6 Z " fill="#000000" transform="translate(940,610)"/>
<path d="M0,0 L6,1 L19,4 L20,9 L19,10 L10,9 L0,7 L-1,6 L-1,1 Z " fill="#000000" transform="translate(757,617)"/>
<path d="M0,0 L5,2 L6,6 L10,8 L17,13 L19,16 L18,21 L15,22 L7,15 L-1,7 L-2,3 Z " fill="#000000" transform="translate(598,624)"/>
<path d="M0,0 L6,1 L15,2 L20,2 L22,4 L21,8 L17,10 L9,9 L2,7 L-1,4 Z " fill="#000000" transform="translate(675,624)"/>
<path d="M0,0 L5,0 L14,10 L19,15 L20,20 L16,21 L7,14 L-1,6 L-1,1 Z " fill="#000000" transform="translate(520,626)"/>
<path d="M0,0 L3,1 L1,9 L-9,18 L-13,17 L-12,12 L-8,8 L-6,8 L-4,4 Z " fill="#000000" transform="translate(872,630)"/>
<path d="M0,0 L5,1 L16,11 L15,16 L9,14 L0,6 L-1,2 Z " fill="#000000" transform="translate(567,631)"/>
<path d="M0,0 L5,1 L16,10 L15,15 L10,14 L0,8 L-2,5 L-1,1 Z " fill="#000000" transform="translate(643,633)"/>
<path d="M0,0 L4,0 L3,5 L-7,15 L-13,17 L-16,15 L-14,10 Z " fill="#000000" transform="translate(815,638)"/>
<path d="M0,0 L4,2 L2,8 L-4,16 L-7,20 L-11,19 L-9,14 L-2,1 Z " fill="#000000" transform="translate(920,640)"/>
<path d="M0,0 L4,1 L4,6 L-3,14 L-6,13 L-5,7 Z " fill="#000000" transform="translate(893,641)"/>
<path d="M0,0 L4,2 L11,11 L18,18 L17,22 L12,23 L7,18 L-2,7 L-3,2 Z " fill="#000000" transform="translate(516,645)"/>
<path d="M0,0 L5,1 L5,7 L-4,10 L-22,10 L-23,6 L-21,4 L-10,2 L-3,2 Z " fill="#000000" transform="translate(769,647)"/>
<path d="M0,0 L12,0 L16,4 L14,8 L13,9 L6,9 L1,7 L-1,5 Z " fill="#000000" transform="translate(704,648)"/>
<path d="M0,0 L5,0 L4,4 L-1,8 L-12,14 L-22,18 L-29,18 L-30,13 L-23,11 L-8,5 Z " fill="#000000" transform="translate(831,654)"/>
<path d="M0,0 L4,1 L3,9 L-5,20 L-9,21 L-10,20 L-10,14 L-2,2 Z " fill="#000000" transform="translate(936,654)"/>
<path d="M0,0 L5,3 L13,7 L20,10 L21,14 L19,17 L12,16 L-1,8 L-2,1 Z " fill="#000000" transform="translate(640,659)"/>
<path d="M0,0 L9,3 L17,3 L22,6 L21,11 L20,12 L7,12 L-1,8 L-3,6 L-2,1 Z " fill="#000000" transform="translate(677,660)"/>
<path d="M0,0 L5,2 L13,7 L12,12 L7,11 L-1,6 L-2,2 Z " fill="#000000" transform="translate(610,663)"/>
<path d="M0,0 L5,1 L10,7 L9,10 L6,11 L1,8 L-2,3 Z " fill="#000000" transform="translate(565,665)"/>
<path d="M0,0 L5,1 L11,9 L19,19 L19,24 L15,25 L10,20 L4,12 L-1,6 L-1,1 Z " fill="#000000" transform="translate(499,666)"/>
<path d="M0,0 L4,1 L5,4 L1,8 L-8,10 L-16,10 L-18,8 L-17,3 L-4,2 Z " fill="#000000" transform="translate(759,668)"/>
<path d="M0,0 L5,1 L15,10 L15,15 L14,16 L9,16 L1,9 L-2,7 L-2,2 Z " fill="#000000" transform="translate(476,670)"/>
<path d="M0,0 L5,2 L7,7 L4,10 L0,9 L-2,6 L-1,1 Z " fill="#000000" transform="translate(532,679)"/>
<path d="M0,0 L3,1 L2,6 L-8,15 L-19,21 L-24,21 L-25,16 L-20,12 L-6,5 L-2,1 Z " fill="#000000" transform="translate(827,679)"/>
<path d="M0,0 L4,0 L3,5 L-4,11 L-8,10 L-8,7 Z " fill="#000000" transform="translate(857,680)"/>
<path d="M0,0 L5,1 L10,5 L16,9 L17,13 L15,15 L11,14 L2,7 L-1,4 Z " fill="#000000" transform="translate(559,681)"/>
<path d="M0,0 L4,1 L2,7 L-3,12 L-7,13 L-6,8 Z " fill="#000000" transform="translate(889,681)"/>
<path d="M0,0 L7,1 L18,2 L24,3 L25,8 L23,10 L4,10 L-2,7 L-3,3 Z " fill="#000000" transform="translate(706,683)"/>
<path d="M0,0 L5,1 L10,6 L11,10 L10,11 L5,11 L0,7 L-1,1 Z " fill="#000000" transform="translate(592,686)"/>
<path d="M0,0 L4,2 L3,7 L-5,10 L-19,10 L-22,7 L-20,3 L-4,2 Z " fill="#000000" transform="translate(780,692)"/>
<path d="M0,0 L4,1 L3,7 L0,12 L-2,14 L-6,13 L-5,7 L-1,1 Z " fill="#000000" transform="translate(937,693)"/>
<path d="M0,0 L5,1 L11,5 L11,9 L4,8 L-1,4 Z " fill="#000000" transform="translate(658,694)"/>
<path d="M0,0 L5,1 L5,6 L-1,14 L-8,20 L-12,20 L-13,17 L-10,12 L-4,7 Z " fill="#000000" transform="translate(912,694)"/>
<path d="M0,0 L2,0 L1,5 L-2,7 L-3,2 Z " fill="#000000" transform="translate(879,695)"/>
<path d="M0,0 L5,1 L14,11 L20,18 L19,22 L14,21 L5,11 L0,6 L-1,1 Z " fill="#000000" transform="translate(547,702)"/>
<path d="M0,0 L5,1 L12,9 L17,14 L18,17 L17,19 L11,19 L8,16 L8,14 L4,12 L-1,7 L-2,2 Z " fill="#000000" transform="translate(513,704)"/>
<path d="M0,0 L6,1 L13,6 L11,10 L5,8 L0,5 Z " fill="#000000" transform="translate(630,706)"/>
<path d="M0,0 L5,1 L15,4 L16,8 L15,9 L3,8 L-3,4 L-2,1 Z " fill="#000000" transform="translate(695,706)"/>
<path d="M0,0 L4,0 L3,5 L-9,17 L-14,17 L-13,13 L-11,13 L-9,9 Z " fill="#000000" transform="translate(847,712)"/>
<path d="M0,0 L5,0 L14,11 L15,15 L13,17 L8,16 L0,7 L-1,1 Z " fill="#000000" transform="translate(487,713)"/>
<path d="M0,0 L4,0 L3,5 L-5,9 L-12,10 L-10,5 Z " fill="#000000" transform="translate(811,715)"/>
<path d="M0,0 L5,0 L14,7 L13,12 L8,11 L-1,4 Z " fill="#000000" transform="translate(592,716)"/>
<path d="M0,0 L12,1 L14,4 L10,7 L1,6 L-2,4 Z " fill="#000000" transform="translate(743,721)"/>
<path d="M0,0 L5,1 L14,8 L13,12 L8,11 L0,5 Z " fill="#000000" transform="translate(629,726)"/>
<path d="M0,0 L9,1 L15,3 L16,7 L15,8 L7,8 L-1,5 L-1,1 Z " fill="#000000" transform="translate(701,727)"/>
<path d="M0,0 L7,1 L22,9 L22,13 L19,14 L2,7 L-1,4 Z " fill="#000000" transform="translate(661,729)"/>
<path d="M0,0 L5,1 L5,5 L-3,11 L-8,11 L-8,7 Z " fill="#000000" transform="translate(883,730)"/>
<path d="M0,0 L5,1 L4,7 L-1,16 L-5,16 L-6,12 Z " fill="#000000" transform="translate(912,731)"/>
<path d="M0,0 L5,1 L6,2 L7,11 L12,17 L16,21 L15,25 L10,25 L-1,16 L-7,12 L-8,7 L-4,2 Z " fill="#000000" transform="translate(554,735)"/>
<path d="M0,0 L4,1 L4,5 L-1,7 L-12,8 L-13,3 L-12,2 Z " fill="#000000" transform="translate(787,738)"/>
<path d="M0,0 L4,1 L14,9 L20,14 L19,19 L14,17 L4,10 L-1,5 Z " fill="#000000" transform="translate(586,740)"/>
<path d="M0,0 L5,1 L12,8 L17,12 L17,17 L12,18 L4,11 L-1,6 L-2,2 Z " fill="#000000" transform="translate(518,741)"/>
<path d="M0,0 L5,1 L15,12 L15,16 L9,17 L-1,7 L-2,2 Z " fill="#000000" transform="translate(491,745)"/>
<path d="M0,0 L4,2 L0,7 L-7,10 L-14,14 L-17,14 L-15,10 L-4,3 Z " fill="#000000" transform="translate(833,746)"/>
<path d="M0,0 L5,1 L7,2 L15,2 L18,3 L17,8 L5,8 L-1,6 L-2,2 Z " fill="#000000" transform="translate(731,749)"/>
<path d="M0,0 L4,1 L5,5 L1,6 L-1,5 Z " fill="#000000" transform="translate(665,757)"/>
<path d="M0,0 L4,0 L3,5 L-2,9 L-9,13 L-13,12 L-12,7 L-3,2 Z " fill="#000000" transform="translate(859,757)"/>
<path d="M0,0 L7,1 L19,7 L20,12 L13,11 L1,6 L-1,4 Z " fill="#000000" transform="translate(699,758)"/>
<path d="M0,0 L4,1 L2,6 L-5,17 L-9,16 L-8,10 Z " fill="#000000" transform="translate(917,763)"/>
<path d="M0,0 L6,3 L12,7 L22,12 L20,16 L14,15 L-1,7 L-3,3 Z " fill="#000000" transform="translate(629,763)"/>
<path d="M0,0 L5,0 L4,5 L-5,15 L-9,15 L-8,9 Z " fill="#000000" transform="translate(887,765)"/>
<path d="M0,0 L14,0 L13,5 L-2,6 L-3,2 Z " fill="#000000" transform="translate(772,768)"/>
<path d="M0,0 L4,1 L13,8 L18,12 L17,16 L11,16 L8,13 L0,9 L-1,7 L-1,1 Z " fill="#000000" transform="translate(594,771)"/>
<path d="M0,0 L5,2 L5,4 L9,6 L19,15 L18,19 L15,20 L4,12 L-2,7 L-2,1 Z " fill="#000000" transform="translate(557,772)"/>
<path d="M0,0 L5,1 L10,8 L15,13 L16,18 L12,20 L4,13 L-2,6 L-1,1 Z " fill="#000000" transform="translate(529,776)"/>
<path d="M0,0 L5,0 L6,4 L4,7 L-8,12 L-13,15 L-18,15 L-19,11 Z " fill="#000000" transform="translate(826,779)"/>
<path d="M0,0 L7,1 L17,6 L17,10 L9,9 L1,5 Z " fill="#000000" transform="translate(671,780)"/>
<path d="M0,0 L7,1 L19,3 L21,7 L19,10 L12,11 L-1,7 L-2,3 Z " fill="#000000" transform="translate(717,785)"/>
<path d="M0,0 L17,0 L20,3 L19,8 L17,11 L11,12 L-5,12 L-8,10 L-7,4 Z " fill="#000000" transform="translate(771,788)"/>
<path d="M0,0 L5,0 L4,5 L-4,11 L-9,11 L-10,7 Z " fill="#000000" transform="translate(855,791)"/>
<path d="M0,0 L5,2 L14,8 L17,9 L18,13 L16,15 L11,14 L1,8 L-2,5 L-1,1 Z " fill="#000000" transform="translate(636,792)"/>
<path d="M0,0 L5,2 L15,8 L17,10 L16,14 L11,15 L-2,6 L-3,3 Z " fill="#000000" transform="translate(601,801)"/>
<path d="M0,0 L2,1 L0,5 L-4,9 L-9,9 L-7,5 Z " fill="#000000" transform="translate(883,801)"/>
<path d="M0,0 L6,1 L16,5 L21,8 L20,13 L14,12 L6,9 L0,6 L-1,1 Z " fill="#000000" transform="translate(678,804)"/>
<path d="M0,0 L3,0 L4,3 L0,8 L-5,10 L-13,10 L-15,6 L-13,4 L-5,3 Z " fill="#000000" transform="translate(825,807)"/>
<path d="M0,0 Z " fill="#000000" transform="translate(303,810)"/>
<path d="M0,0 L4,1 L9,5 L15,9 L18,12 L18,16 L14,17 L0,8 L-3,5 L-2,1 Z " fill="#000000" transform="translate(570,810)"/>
<path d="M0,0 L6,0 L13,2 L16,3 L17,7 L15,9 L8,8 L-1,6 L-2,2 Z " fill="#000000" transform="translate(726,813)"/>
<path d="M0,0 L3,0 L4,4 L-8,10 L-12,9 L-13,6 L-11,3 L-1,1 Z " fill="#000000" transform="translate(777,817)"/>
<path d="M0,0 L5,0 L15,5 L20,8 L19,12 L13,12 L0,6 L-1,1 Z " fill="#000000" transform="translate(642,822)"/>
<path d="M0,0 L7,0 L6,4 L3,6 L-3,6 L-3,2 Z " fill="#000000" transform="translate(836,828)"/>
<path d="M0,0 L5,0 L4,5 L-5,11 L-9,11 L-8,6 Z " fill="#000000" transform="translate(869,835)"/>
<path d="M0,0 L6,1 L18,8 L18,12 L13,13 L3,8 L-1,6 L-2,2 Z " fill="#000000" transform="translate(616,836)"/>
<path d="M0,0 L7,1 L14,4 L13,9 L7,9 L-2,5 Z " fill="#000000" transform="translate(693,837)"/>
<path d="M0,0 L5,0 L5,4 L-5,8 L-9,7 L-9,3 Z " fill="#000000" transform="translate(788,841)"/>
<path d="M0,0 L5,1 L5,5 L3,6 L-8,6 L-10,5 L-9,1 Z " fill="#000000" transform="translate(744,844)"/>
<path d="M0,0 L6,0 L20,6 L21,10 L20,11 L13,10 L3,8 L-1,5 Z " fill="#000000" transform="translate(663,853)"/>
<path d="M0,0 L5,0 L6,3 L4,6 L-9,10 L-16,10 L-16,6 L-10,3 L-2,1 Z " fill="#000000" transform="translate(820,855)"/>
<path d="M0,0 L14,1 L19,3 L18,7 L1,6 L-1,4 Z " fill="#000000" transform="translate(716,867)"/>
<path d="M0,0 L4,1 L5,3 L1,7 L-9,9 L-14,9 L-15,4 L-8,1 Z " fill="#000000" transform="translate(772,866)"/>
</svg>
