<?xml version="1.0" encoding="UTF-8"?>
<!-- Generator: visioncortex VTracer 0.6.12 -->
<svg version="1.1" xmlns="http://www.w3.org/2000/svg" width="1164" height="1212">
<path d="M0,0 L23,0 L27,2 L35,1 L35,22 L27,25 L24,28 L22,36 L21,50 L20,79 L19,84 L17,146 L17,223 L16,232 L15,234 L16,279 L15,293 L14,333 L15,364 L14,383 L15,427 L14,443 L14,579 L13,630 L13,655 L12,678 L11,730 L12,738 L11,854 L10,893 L10,920 L9,970 L9,985 L8,992 L7,1041 L6,1054 L6,1072 L7,1091 L9,1097 L12,1099 L35,1099 L35,1120 L9,1121 L-12,1121 L-18,1118 L-20,1111 L-22,1106 L-22,1078 L-20,1064 L-19,1035 L-19,1018 L-17,1003 L-17,975 L-15,917 L-14,912 L-14,814 L-12,768 L-12,749 L-11,735 L-12,727 L-11,648 L-10,550 L-10,459 L-9,438 L-9,382 L-8,329 L-8,176 L-7,149 L-7,22 L-10,8 L-10,3 L-8,1 Z " fill="#000000" transform="translate(1129,35)"/>
<path d="M0,0 L2,1 L2,3 L-1,3 Z " fill="#000000" transform="translate(442,42)"/>
<path d="M0,0 L2,1 L2,3 L-1,3 Z " fill="#000000" transform="translate(451,42)"/>
<path d="M0,0 L2,0 L2,2 L0,2 Z " fill="#000000" transform="translate(493,46)"/>
<path d="M0,0 L5,2 L9,1 L13,0 L18,2 L22,0 L24,1 L39,2 L49,3 L55,3 L61,4 L68,5 L75,5 L80,7 L94,8 L99,8 L100,11 L112,12 L119,14 L136,16 L142,19 L149,19 L152,21 L163,23 L167,25 L175,25 L183,30 L189,29 L190,32 L195,34 L201,38 L209,38 L213,41 L218,43 L226,45 L231,48 L242,51 L249,56 L262,60 L267,64 L274,65 L282,71 L294,77 L301,80 L305,83 L306,86 L312,88 L316,91 L324,95 L331,98 L336,103 L347,110 L352,115 L357,115 L360,115 L361,118 L369,125 L370,128 L375,131 L385,139 L390,144 L395,148 L400,153 L409,161 L414,167 L415,169 L419,171 L424,176 L429,181 L429,183 L434,185 L441,192 L443,193 L446,198 L448,200 L448,203 L452,204 L454,207 L458,209 L462,213 L462,219 L466,221 L476,234 L481,239 L485,244 L488,250 L490,251 L492,257 L499,266 L499,275 L506,273 L506,281 L512,286 L514,296 L519,302 L522,307 L524,312 L530,322 L533,325 L534,332 L536,337 L541,342 L542,346 L541,351 L544,356 L544,358 L546,358 L549,372 L557,385 L558,386 L560,401 L562,401 L566,415 L569,415 L569,417 L567,417 L572,430 L572,436 L574,438 L575,447 L578,459 L580,462 L580,470 L583,476 L584,485 L585,488 L585,494 L587,501 L588,516 L590,521 L588,524 L589,530 L589,536 L591,540 L590,545 L591,550 L591,556 L592,560 L591,564 L592,568 L590,570 L590,575 L592,578 L590,585 L593,586 L592,588 L590,588 L591,598 L590,603 L590,611 L589,617 L590,621 L588,633 L586,644 L585,656 L581,671 L581,679 L579,682 L576,697 L574,702 L572,710 L568,724 L567,728 L568,731 L565,736 L561,746 L559,753 L556,760 L553,769 L548,781 L545,788 L538,802 L532,813 L527,824 L523,832 L517,841 L513,849 L505,862 L498,873 L492,881 L485,891 L478,901 L472,909 L459,924 L451,933 L444,941 L436,949 L433,954 L428,959 L424,961 L421,961 L420,966 L415,972 L410,975 L405,981 L396,988 L389,996 L382,999 L375,1007 L367,1013 L354,1023 L345,1029 L339,1034 L322,1044 L317,1048 L308,1053 L300,1057 L293,1061 L286,1064 L281,1068 L270,1072 L256,1079 L248,1082 L232,1089 L225,1091 L218,1095 L209,1097 L197,1102 L194,1104 L184,1104 L179,1107 L171,1109 L166,1111 L157,1113 L148,1114 L143,1116 L133,1118 L118,1121 L115,1122 L99,1124 L80,1126 L73,1127 L65,1126 L59,1129 L53,1130 L44,1129 L40,1130 L0,1130 L-11,1129 L-26,1129 L-43,1126 L-53,1126 L-71,1123 L-81,1122 L-86,1120 L-97,1119 L-108,1116 L-124,1113 L-135,1109 L-151,1106 L-154,1104 L-163,1102 L-170,1099 L-187,1094 L-200,1090 L-203,1087 L-216,1081 L-226,1077 L-242,1070 L-247,1067 L-254,1062 L-266,1058 L-271,1054 L-278,1051 L-282,1047 L-292,1042 L-301,1035 L-315,1026 L-326,1018 L-331,1015 L-342,1005 L-352,998 L-364,987 L-372,981 L-380,974 L-385,968 L-390,963 L-399,955 L-406,947 L-411,942 L-417,935 L-421,929 L-426,924 L-426,648 L-424,649 L-422,661 L-419,664 L-420,671 L-416,685 L-414,687 L-413,696 L-409,701 L-409,708 L-405,714 L-403,716 L-403,723 L-399,729 L-397,734 L-394,736 L-393,743 L-391,748 L-389,749 L-387,756 L-386,762 L-383,763 L-381,768 L-377,777 L-371,784 L-368,787 L-367,792 L-361,802 L-361,804 L-358,805 L-355,810 L-353,811 L-351,819 L-344,827 L-333,839 L-332,843 L-328,844 L-326,850 L-324,854 L-319,854 L-317,859 L-311,867 L-311,869 L-306,871 L-295,883 L-290,888 L-277,899 L-272,904 L-266,908 L-261,912 L-261,914 L-256,916 L-254,918 L-244,922 L-239,927 L-231,934 L-226,937 L-220,938 L-220,941 L-214,941 L-209,946 L-200,951 L-197,951 L-196,953 L-189,955 L-185,959 L-178,962 L-171,964 L-163,970 L-159,971 L-158,967 L-156,971 L-148,975 L-148,977 L-138,979 L-131,982 L-121,983 L-115,987 L-109,985 L-107,989 L-101,991 L-94,990 L-89,993 L-79,994 L-78,995 L-73,995 L-72,993 L-68,995 L-68,998 L-55,998 L-53,1000 L-48,1000 L-48,998 L-44,999 L-39,1001 L-25,1002 L-20,1003 L-16,1004 L-14,1002 L-10,1003 L-5,1004 L-1,1003 L4,1004 L6,1001 L14,1002 L18,1001 L23,1002 L24,1001 L37,1001 L39,1003 L48,1002 L69,999 L92,997 L104,994 L105,993 L121,991 L136,986 L151,983 L158,979 L170,977 L188,970 L198,966 L210,961 L217,956 L229,951 L238,946 L245,943 L258,933 L268,928 L276,922 L280,920 L281,916 L283,915 L283,911 L279,908 L279,906 L275,904 L269,897 L266,893 L266,890 L261,888 L256,884 L256,880 L254,880 L245,869 L244,866 L241,865 L238,860 L233,855 L224,847 L219,842 L215,838 L209,831 L202,825 L201,820 L197,819 L191,812 L183,806 L179,800 L174,795 L172,790 L170,790 L170,787 L167,786 L164,780 L158,775 L154,770 L148,766 L144,761 L140,757 L140,755 L137,755 L135,751 L124,742 L124,740 L122,740 L121,737 L113,731 L99,712 L94,706 L94,704 L90,702 L88,698 L84,696 L76,689 L66,678 L61,674 L58,668 L53,663 L48,660 L40,650 L37,647 L35,641 L30,636 L19,626 L15,620 L12,617 L8,610 L-7,596 L-18,585 L-22,577 L-29,573 L-42,559 L-50,549 L-52,543 L-58,538 L-63,535 L-70,529 L-75,524 L-82,516 L-82,514 L-84,514 L-88,509 L-93,506 L-97,499 L-101,494 L-107,490 L-114,481 L-123,472 L-125,471 L-125,469 L-129,467 L-136,459 L-136,457 L-140,455 L-145,450 L-150,445 L-153,442 L-155,438 L-160,433 L-169,422 L-177,414 L-184,405 L-196,394 L-200,389 L-205,385 L-210,380 L-219,371 L-219,369 L-223,367 L-228,363 L-233,358 L-239,352 L-239,350 L-242,349 L-244,343 L-252,339 L-253,335 L-257,335 L-260,328 L-273,312 L-278,307 L-285,300 L-293,293 L-298,287 L-302,285 L-307,280 L-309,276 L-311,276 L-314,271 L-319,271 L-326,276 L-332,285 L-343,297 L-350,308 L-357,316 L-361,322 L-365,331 L-377,348 L-382,359 L-390,373 L-393,383 L-398,391 L-400,398 L-406,411 L-408,418 L-412,431 L-416,438 L-416,444 L-419,448 L-420,461 L-423,470 L-424,474 L-426,474 L-426,205 L-421,203 L-419,199 L-411,188 L-403,181 L-388,165 L-379,157 L-373,150 L-368,145 L-363,140 L-361,140 L-359,136 L-352,130 L-350,130 L-350,127 L-345,125 L-344,120 L-342,121 L-342,124 L-336,121 L-328,114 L-325,110 L-322,109 L-321,107 L-315,105 L-309,101 L-302,95 L-293,93 L-292,90 L-293,86 L-287,86 L-279,81 L-275,77 L-269,75 L-261,71 L-253,65 L-250,66 L-243,62 L-238,59 L-228,55 L-223,55 L-222,52 L-213,50 L-209,46 L-196,43 L-194,39 L-180,38 L-179,35 L-172,34 L-164,29 L-156,28 L-151,24 L-142,23 L-138,19 L-131,19 L-122,17 L-115,16 L-112,13 L-110,16 L-105,14 L-104,12 L-89,11 L-88,8 L-88,11 L-82,9 L-78,7 L-56,6 L-49,5 L-45,9 L-39,4 L-35,2 L-26,2 L-24,6 L-19,5 L-17,3 L-9,1 L-2,1 Z M-34,124 L-43,127 L-55,128 L-61,128 L-65,131 L-80,132 L-90,136 L-107,140 L-111,142 L-121,144 L-134,148 L-140,151 L-149,154 L-163,160 L-175,165 L-191,173 L-212,184 L-224,192 L-235,199 L-238,204 L-236,209 L-232,214 L-225,222 L-206,241 L-201,246 L-193,256 L-189,259 L-187,259 L-185,264 L-173,277 L-166,285 L-157,293 L-150,301 L-139,313 L-135,314 L-133,318 L-124,328 L-119,334 L-112,340 L-109,344 L-107,344 L-106,347 L-101,352 L-96,357 L-92,364 L-89,364 L-88,368 L-82,371 L-79,373 L-77,377 L-72,379 L-67,384 L-64,386 L-61,391 L-56,394 L-52,400 L-49,400 L-48,405 L-44,406 L-43,410 L-41,410 L-39,415 L-35,415 L-33,422 L-26,430 L-24,430 L-22,435 L-17,441 L-13,443 L-8,451 L-3,450 L1,449 L7,454 L7,463 L10,464 L12,468 L21,476 L23,479 L25,479 L27,483 L32,489 L34,489 L35,492 L42,497 L48,507 L52,509 L54,514 L60,518 L63,525 L77,539 L79,539 L80,542 L86,546 L99,559 L102,562 L104,562 L105,566 L108,568 L111,573 L116,578 L123,584 L126,587 L131,596 L136,600 L141,605 L146,612 L154,619 L162,628 L168,633 L173,639 L176,642 L182,646 L186,651 L191,656 L199,665 L203,671 L208,675 L211,682 L215,686 L220,689 L228,699 L232,703 L240,710 L242,710 L244,714 L249,719 L257,726 L263,733 L270,739 L272,739 L274,743 L282,752 L288,756 L291,760 L296,769 L298,769 L299,773 L302,773 L304,777 L310,780 L314,788 L321,794 L323,797 L325,797 L327,802 L331,804 L333,809 L335,809 L337,813 L341,813 L343,818 L346,820 L347,824 L354,829 L357,836 L361,839 L366,837 L369,834 L369,832 L373,830 L381,819 L384,815 L386,810 L388,809 L389,803 L392,802 L393,799 L397,795 L399,791 L404,786 L406,780 L407,776 L408,773 L410,772 L413,767 L415,764 L416,757 L420,755 L422,748 L426,742 L426,736 L429,731 L432,724 L434,715 L438,712 L444,693 L445,686 L448,680 L449,679 L452,659 L455,655 L456,643 L458,638 L457,634 L459,632 L461,617 L460,609 L462,607 L464,578 L463,560 L462,556 L462,543 L461,530 L461,525 L459,523 L458,514 L458,508 L456,503 L456,495 L454,484 L453,483 L453,476 L449,468 L446,467 L445,461 L442,455 L441,451 L440,446 L437,440 L435,440 L434,415 L431,407 L427,402 L425,400 L424,393 L418,382 L415,374 L410,368 L407,359 L402,350 L400,350 L399,344 L397,342 L398,335 L389,332 L388,328 L385,326 L383,322 L379,321 L380,316 L374,307 L369,303 L362,294 L359,292 L357,288 L351,283 L348,278 L343,274 L339,268 L334,263 L332,263 L331,259 L324,253 L322,250 L317,247 L314,246 L312,242 L308,238 L296,230 L290,223 L278,216 L269,208 L259,201 L250,197 L241,191 L232,186 L226,184 L208,173 L201,171 L195,168 L186,165 L180,162 L169,159 L161,154 L153,152 L143,148 L133,146 L128,144 L116,141 L109,140 L105,138 L95,137 L92,135 L79,133 L69,130 L56,128 L51,128 L47,129 L28,127 L19,125 L18,126 L9,125 L4,126 L1,124 L-18,124 L-21,125 L-28,125 Z M-415,396 L-414,398 L-412,398 L-412,396 Z M385,977 L384,982 L388,981 L387,977 Z M92,1009 L87,1011 L88,1016 L92,1020 L97,1020 L97,1011 L96,1009 Z M169,1071 L169,1074 L173,1074 L173,1071 Z " fill="#000000" transform="translate(426,48)"/>
<path d="M0,0 L2,0 L2,2 L0,2 Z " fill="#000000" transform="translate(294,61)"/>
<path d="M0,0 L2,0 L1,3 Z " fill="#000000" transform="translate(609,71)"/>
<path d="M0,0 L2,1 L2,3 L-1,3 Z " fill="#000000" transform="translate(241,77)"/>
<path d="M0,0 L3,0 L3,3 L0,3 Z " fill="#000000" transform="translate(222,87)"/>
<path d="M0,0 L3,1 L0,2 Z " fill="#000000" transform="translate(662,94)"/>
<path d="M0,0 L2,1 Z " fill="#000000" transform="translate(672,94)"/>
<path d="M0,0 L2,0 L2,2 L0,2 Z " fill="#000000" transform="translate(180,103)"/>
<path d="M0,0 L2,0 L2,2 L0,2 Z " fill="#000000" transform="translate(691,103)"/>
<path d="M0,0 L2,0 L2,2 L0,2 Z " fill="#000000" transform="translate(175,108)"/>
<path d="M0,0 Z " fill="#000000" transform="translate(711,112)"/>
<path d="M0,0 L2,0 L1,3 Z " fill="#000000" transform="translate(156,118)"/>
<path d="M0,0 Z " fill="#000000" transform="translate(142,124)"/>
<path d="M0,0 L2,1 Z " fill="#000000" transform="translate(739,130)"/>
<path d="M0,0 L2,0 L2,3 L0,3 Z " fill="#000000" transform="translate(114,143)"/>
<path d="M0,0 L2,0 L2,2 L0,2 Z " fill="#000000" transform="translate(765,144)"/>
<path d="M0,0 Z " fill="#000000" transform="translate(109,148)"/>
<path d="M0,0 L2,0 L2,2 L0,2 Z " fill="#000000" transform="translate(769,148)"/>
<path d="M0,0 Z " fill="#000000" transform="translate(775,154)"/>
<path d="M0,0 Z " fill="#000000" transform="translate(814,181)"/>
<path d="M0,0 L2,1 L2,3 L0,3 Z " fill="#000000" transform="translate(823,189)"/>
<path d="M0,0 L0,3 Z " fill="#000000" transform="translate(49,193)"/>
<path d="M0,0 L2,1 Z " fill="#000000" transform="translate(43,199)"/>
<path d="M0,0 L2,0 L1,2 Z " fill="#000000" transform="translate(833,199)"/>
<path d="M0,0 L2,1 L0,2 Z " fill="#000000" transform="translate(34,208)"/>
<path d="M0,0 L2,2 L0,3 Z " fill="#000000" transform="translate(844,208)"/>
<path d="M0,0 Z " fill="#000000" transform="translate(853,217)"/>
<path d="M0,0 Z " fill="#000000" transform="translate(859,223)"/>
<path d="M0,0 L2,1 Z " fill="#000000" transform="translate(862,228)"/>
<path d="M0,0 Z " fill="#000000" transform="translate(0,244)"/>
<path d="M0,0 Z " fill="#000000" transform="translate(958,363)"/>
<path d="M0,0 Z " fill="#000000" transform="translate(505,420)"/>
<path d="M0,0 Z " fill="#000000" transform="translate(406,475)"/>
<path d="M0,0 Z " fill="#000000" transform="translate(412,481)"/>
<path d="M0,0 L2,0 L2,3 L0,3 Z " fill="#000000" transform="translate(0,529)"/>
<path d="M0,0 L2,1 L3,4 L8,4 L9,1 L11,1 L11,5 L26,4 L33,6 L35,13 L35,26 L34,30 L35,35 L34,36 L34,41 L36,44 L34,50 L35,54 L34,55 L34,61 L35,63 L34,70 L35,74 L34,79 L35,83 L34,84 L34,92 L33,105 L33,151 L34,155 L31,157 L33,162 L33,165 L31,171 L34,172 L33,174 L31,174 L32,183 L31,189 L31,237 L28,243 L17,245 L-3,244 L-12,243 L-15,240 L-16,238 L-16,136 L-15,120 L-15,87 L-13,13 L-10,6 L-8,4 L-2,2 Z M-5,117 L-5,120 L-1,120 L-1,117 Z " fill="#000000" transform="translate(268,651)"/>
<path d="M0,0 Z " fill="#000000" transform="translate(301,655)"/>
<path d="M0,0 L2,1 L0,2 Z " fill="#000000" transform="translate(0,688)"/>
<path d="M0,0 L2,0 L2,3 L0,3 Z " fill="#000000" transform="translate(82,867)"/>
<path d="M0,0 Z " fill="#000000" transform="translate(790,876)"/>
<path d="M0,0 L2,1 Z " fill="#000000" transform="translate(127,919)"/>
<path d="M0,0 L2,1 Z " fill="#000000" transform="translate(136,928)"/>
<path d="M0,0 L2,2 L0,2 Z " fill="#000000" transform="translate(142,933)"/>
<path d="M0,0 L2,2 L0,2 Z " fill="#000000" transform="translate(151,942)"/>
<path d="M0,0 Z " fill="#000000" transform="translate(196,975)"/>
<path d="M0,0 Z " fill="#000000" transform="translate(200,979)"/>
<path d="M0,0 L2,0 L2,3 L0,3 Z " fill="#000000" transform="translate(244,1001)"/>
<path d="M0,0 L2,2 L0,3 Z " fill="#000000" transform="translate(283,1020)"/>
<path d="M0,0 L3,0 L2,4 L0,3 Z " fill="#000000" transform="translate(297,1024)"/>
<path d="M0,0 L2,0 L2,2 L0,2 Z " fill="#000000" transform="translate(312,1029)"/>
<path d="M0,0 L2,1 L0,2 Z " fill="#000000" transform="translate(327,1033)"/>
<path d="M0,0 L2,0 L2,2 L0,2 Z " fill="#000000" transform="translate(340,1039)"/>
<path d="M0,0 Z " fill="#000000" transform="translate(365,1042)"/>
<path d="M0,0 Z " fill="#000000" transform="translate(409,1045)"/>
</svg>
