<?xml version="1.0" encoding="UTF-8"?>
<!-- Generator: visioncortex VTracer 0.6.12 -->
<svg version="1.1" xmlns="http://www.w3.org/2000/svg" width="1308" height="1368">
<path d="M0,0 L3,1 L7,5 L467,4 L569,4 L638,5 L638,59 L553,60 L267,60 L262,59 L257,60 L133,60 L10,61 L-170,61 L-300,62 L-368,62 L-525,63 L-670,63 L-670,8 L-632,7 L-450,7 L-354,6 L-320,6 L-159,5 L-67,5 L-4,4 Z " fill="#000000" transform="translate(670,37)"/>
<path d="M0,0 L8,1 L48,1 L61,2 L67,3 L75,2 L82,4 L93,4 L104,7 L123,10 L126,12 L141,14 L150,16 L162,19 L175,23 L191,29 L196,31 L204,33 L208,36 L217,38 L222,42 L232,44 L243,50 L253,54 L266,62 L283,70 L288,73 L293,77 L299,81 L311,89 L315,92 L320,94 L328,101 L334,105 L342,112 L346,116 L357,125 L366,132 L374,140 L379,144 L382,147 L388,151 L393,159 L398,164 L403,169 L413,183 L418,188 L423,193 L431,207 L438,215 L444,223 L451,233 L458,244 L465,258 L470,266 L478,282 L484,294 L489,306 L493,316 L496,321 L500,334 L503,339 L510,365 L512,370 L516,387 L520,400 L524,433 L526,442 L528,471 L528,480 L529,486 L529,538 L528,543 L527,563 L525,571 L523,589 L519,607 L516,621 L512,635 L510,639 L508,649 L502,669 L500,679 L496,688 L492,700 L488,707 L479,726 L473,737 L469,746 L461,760 L454,770 L448,782 L443,787 L436,798 L432,802 L428,809 L420,819 L415,827 L410,829 L408,833 L401,842 L387,857 L372,873 L367,877 L363,879 L358,884 L351,891 L343,898 L334,904 L328,910 L322,913 L315,920 L300,928 L290,935 L279,941 L274,945 L264,950 L252,957 L241,961 L233,966 L225,969 L212,975 L196,980 L190,983 L183,984 L181,986 L166,990 L159,993 L147,995 L140,998 L128,1000 L126,1001 L110,1003 L98,1006 L84,1007 L81,1008 L72,1008 L58,1010 L44,1010 L42,1011 L26,1010 L0,1009 L-12,1008 L-17,1007 L-29,1007 L-40,1005 L-54,1004 L-56,1003 L-71,1002 L-74,1000 L-82,998 L-87,996 L-99,994 L-108,992 L-111,990 L-119,988 L-123,985 L-130,985 L-137,982 L-146,979 L-158,974 L-167,970 L-188,961 L-197,956 L-206,953 L-211,950 L-219,947 L-224,943 L-231,939 L-242,933 L-254,924 L-263,918 L-276,909 L-282,905 L-290,898 L-296,894 L-300,889 L-305,884 L-318,873 L-323,868 L-328,864 L-333,858 L-339,853 L-343,847 L-353,838 L-359,830 L-368,820 L-375,811 L-381,807 L-386,793 L-392,786 L-399,775 L-407,762 L-414,750 L-424,731 L-432,713 L-436,706 L-439,699 L-445,683 L-449,672 L-451,668 L-454,655 L-457,648 L-461,632 L-464,617 L-466,612 L-469,595 L-475,545 L-477,502 L-476,485 L-474,463 L-473,452 L-472,438 L-467,415 L-465,400 L-462,386 L-457,369 L-452,355 L-449,345 L-447,336 L-439,316 L-434,305 L-427,288 L-419,272 L-411,259 L-401,242 L-391,227 L-386,219 L-376,206 L-369,196 L-358,183 L-353,176 L-348,172 L-344,166 L-334,155 L-329,150 L-321,143 L-315,136 L-309,132 L-303,127 L-298,121 L-292,117 L-286,112 L-283,109 L-279,107 L-275,100 L-266,96 L-254,89 L-245,83 L-237,77 L-223,69 L-215,64 L-201,57 L-194,53 L-187,50 L-174,43 L-169,39 L-162,38 L-155,34 L-149,34 L-126,25 L-113,21 L-103,20 L-94,16 L-83,14 L-73,10 L-61,9 L-45,6 L-35,4 L-15,3 L-4,2 Z M-3,14 L-6,17 L-23,17 L-25,18 L-37,19 L-40,21 L-53,21 L-81,27 L-102,32 L-114,36 L-123,39 L-130,40 L-149,48 L-158,53 L-165,55 L-176,59 L-193,68 L-204,74 L-211,79 L-219,82 L-231,89 L-240,93 L-248,100 L-253,104 L-260,108 L-264,112 L-272,117 L-277,122 L-289,131 L-296,139 L-302,143 L-307,148 L-319,159 L-339,179 L-343,185 L-350,193 L-359,204 L-372,221 L-379,232 L-383,239 L-388,245 L-392,251 L-398,260 L-406,276 L-414,292 L-420,305 L-422,310 L-429,324 L-434,336 L-436,340 L-438,351 L-448,380 L-453,403 L-455,412 L-456,413 L-457,425 L-459,430 L-460,439 L-461,464 L-463,481 L-463,535 L-460,573 L-455,600 L-453,613 L-447,637 L-444,648 L-440,658 L-432,682 L-426,699 L-415,722 L-407,737 L-400,751 L-395,758 L-390,768 L-383,779 L-369,798 L-364,806 L-359,811 L-348,825 L-345,830 L-338,836 L-333,842 L-328,846 L-323,851 L-321,854 L-319,854 L-317,858 L-312,863 L-307,867 L-302,873 L-292,881 L-286,886 L-281,891 L-276,894 L-266,901 L-258,907 L-250,912 L-238,921 L-221,930 L-212,936 L-198,943 L-186,949 L-162,960 L-145,966 L-138,969 L-116,976 L-113,978 L-103,979 L-99,981 L-86,984 L-63,988 L-56,990 L-39,992 L-33,994 L-20,994 L-4,996 L55,996 L71,994 L94,992 L96,991 L107,990 L109,989 L121,987 L122,984 L140,984 L154,979 L165,976 L169,974 L177,972 L180,970 L190,968 L199,964 L216,958 L227,952 L234,949 L250,942 L261,935 L264,932 L272,930 L286,922 L296,915 L302,911 L312,904 L317,901 L319,898 L328,893 L334,888 L339,883 L344,879 L355,870 L366,859 L374,852 L378,847 L383,844 L390,835 L398,827 L403,822 L410,812 L421,798 L425,792 L432,784 L437,774 L440,770 L445,760 L449,756 L455,745 L464,728 L472,710 L477,697 L479,695 L484,679 L491,670 L492,659 L496,650 L500,638 L503,625 L505,613 L506,611 L508,599 L510,594 L513,578 L514,565 L516,554 L518,525 L518,500 L517,489 L516,463 L513,430 L509,412 L506,399 L500,374 L496,359 L489,338 L485,329 L477,309 L471,296 L467,287 L461,277 L457,268 L447,251 L438,235 L432,227 L424,217 L420,211 L412,201 L400,185 L386,170 L379,162 L371,154 L363,147 L358,142 L352,135 L341,128 L334,120 L326,114 L318,109 L308,102 L294,91 L268,77 L260,72 L252,68 L249,65 L238,61 L229,56 L221,54 L217,51 L207,47 L195,44 L187,39 L178,38 L171,35 L161,34 L156,30 L149,29 L141,28 L125,22 L112,22 L102,20 L98,19 L68,17 L59,15 L3,15 Z " fill="#000000" transform="translate(631,168)"/>
<path d="M0,0 L2,2 L0,2 Z " fill="#000000" transform="translate(882,178)"/>
<path d="M0,0 L7,2 L25,3 L26,4 L43,6 L61,12 L71,14 L81,19 L88,22 L93,26 L107,33 L111,38 L119,42 L125,47 L130,52 L141,61 L150,71 L155,78 L160,83 L167,94 L171,101 L176,110 L183,122 L190,141 L196,165 L198,176 L199,190 L200,193 L200,201 L199,209 L199,222 L197,243 L191,259 L186,276 L185,285 L181,290 L179,290 L177,295 L170,308 L162,320 L150,336 L140,346 L135,351 L130,355 L125,361 L110,371 L99,378 L90,384 L75,390 L57,397 L47,400 L43,402 L30,403 L22,406 L-2,406 L-14,407 L-34,407 L-50,408 L-56,409 L-58,407 L-69,408 L-75,407 L-83,410 L-84,412 L-85,421 L-85,451 L-84,454 L-84,484 L-85,497 L-85,510 L-84,529 L-85,544 L-85,569 L-83,579 L-82,584 L-85,595 L-85,652 L-87,656 L-91,657 L-102,656 L-111,657 L-117,655 L-121,657 L-161,657 L-164,659 L-170,658 L-199,657 L-218,658 L-219,656 L-219,531 L-220,396 L-220,369 L-219,333 L-221,257 L-220,253 L-220,94 L-221,61 L-220,55 L-220,5 L-217,3 L-203,2 L-195,1 L-191,3 L-184,3 L-178,2 L-173,4 L-166,4 L-162,3 L-137,3 L-102,2 L-97,1 L-85,1 L-82,2 L-15,2 Z M-82,120 L-87,125 L-87,150 L-88,215 L-87,225 L-85,242 L-84,247 L-86,255 L-86,282 L-82,286 L-71,287 L-38,287 L-28,286 L-19,287 L-7,285 L9,281 L23,274 L28,270 L34,266 L41,260 L44,255 L47,252 L52,242 L57,234 L60,228 L64,206 L61,185 L58,176 L54,164 L45,151 L38,143 L30,136 L23,130 L-2,122 L-16,120 Z " fill="#000000" transform="translate(852,348)"/>
<path d="M0,0 L6,0 L10,4 L13,11 L15,18 L19,24 L25,39 L31,50 L35,60 L45,62 L51,62 L55,60 L63,59 L70,60 L73,56 L78,58 L82,60 L89,62 L97,61 L129,61 L134,66 L135,68 L135,128 L132,134 L131,135 L108,135 L104,131 L99,119 L94,109 L85,99 L79,95 L72,92 L63,89 L47,89 L43,91 L34,93 L24,100 L17,108 L12,114 L9,121 L7,132 L7,141 L5,144 L2,145 L-12,146 L-14,148 L-21,147 L-25,145 L-38,145 L-59,146 L-63,145 L-84,145 L-88,143 L-97,144 L-99,141 L-102,121 L-107,111 L-114,103 L-114,101 L-119,99 L-128,93 L-141,90 L-150,90 L-162,92 L-171,95 L-176,98 L-184,106 L-189,113 L-194,129 L-197,134 L-199,135 L-226,136 L-235,137 L-243,135 L-245,133 L-246,127 L-247,108 L-248,99 L-246,87 L-246,70 L-244,64 L-239,63 L-200,63 L-173,62 L-169,59 L-166,52 L-161,49 L-149,36 L-147,36 L-145,32 L-137,21 L-128,11 L-121,3 L-114,1 L-52,1 L-45,2 L-38,1 Z " fill="#000000" transform="translate(476,584)"/>
<path d="M0,0 L18,0 L27,5 L36,12 L41,19 L45,28 L47,35 L47,47 L41,62 L34,70 L28,75 L19,79 L12,80 L2,80 L-9,76 L-18,70 L-25,63 L-30,52 L-31,49 L-32,34 L-29,22 L-21,12 L-16,7 L-12,4 L-3,1 Z " fill="#000000" transform="translate(524,680)"/>
<path d="M0,0 L15,0 L24,3 L32,8 L36,12 L36,14 L40,16 L45,25 L47,31 L47,49 L43,59 L32,71 L29,74 L18,79 L6,79 L-3,78 L-12,74 L-18,70 L-27,59 L-30,53 L-31,40 L-31,29 L-23,14 L-14,6 L-2,1 Z " fill="#000000" transform="translate(322,681)"/>
<path d="M0,0 L5,0 L7,4 L6,11 L0,23 L-4,35 L-9,44 L-11,52 L-15,62 L-17,70 L-24,83 L-28,84 L-31,82 L-31,76 L-27,68 L-24,60 L-21,54 L-20,53 L-18,44 L-15,38 L-12,29 L-6,12 L-2,3 Z " fill="#000000" transform="translate(274,1251)"/>
<path d="M0,0 L16,0 L27,1 L54,1 L56,3 L56,10 L54,12 L47,12 L41,13 L33,13 L32,19 L31,44 L31,76 L27,80 L22,79 L19,74 L19,22 L17,15 L16,14 L1,13 L-4,13 L-7,10 L-6,4 L-3,1 Z " fill="#000000" transform="translate(305,1252)"/>
<path d="M0,0 L7,1 L11,6 L15,14 L19,23 L23,34 L26,43 L32,56 L35,65 L38,78 L36,81 L32,82 L27,79 L22,69 L18,60 L14,58 L-10,58 L-14,62 L-20,77 L-24,80 L-30,81 L-32,79 L-31,72 L-29,67 L-26,58 L-20,43 L-15,30 L-10,14 L-5,5 Z M0,22 L-4,31 L-6,39 L-6,44 L-3,47 L11,47 L13,45 L12,37 L9,30 L7,23 Z " fill="#000000" transform="translate(400,1252)"/>
<path d="M0,0 L10,1 L20,4 L27,12 L29,16 L29,23 L26,26 L21,26 L14,16 L4,11 L-6,12 L-11,15 L-15,20 L-15,28 L-10,31 L-3,34 L9,35 L18,40 L23,42 L31,49 L34,59 L33,66 L27,74 L18,82 L16,83 L4,83 L-3,84 L-16,80 L-26,73 L-29,68 L-30,59 L-27,54 L-21,55 L-16,63 L-9,70 L-1,72 L6,72 L15,69 L19,64 L19,57 L17,52 L8,49 L-8,45 L-15,42 L-25,34 L-28,22 L-24,12 L-17,5 L-12,2 Z " fill="#000000" transform="translate(193,1252)"/>
</svg>
