<?xml version="1.0" encoding="UTF-8"?>
<!-- Generator: visioncortex VTracer 0.6.12 -->
<svg version="1.1" xmlns="http://www.w3.org/2000/svg" width="1122" height="1128">
<path d="M0,0 L6,0 L8,1 L37,0 L765,0 L767,59 L768,126 L769,172 L769,205 L770,242 L770,266 L772,356 L772,390 L774,424 L774,1125 L749,1126 L725,1127 L719,1128 L715,1127 L707,1127 L703,1128 L-342,1128 L-343,1125 L-345,1059 L-345,1005 L-346,963 L-346,943 L-347,885 L-348,883 L-348,7 L-335,6 L-271,5 L-203,5 L-189,4 L-122,4 L-109,3 L-47,2 L-21,2 L-2,1 Z M171,115 L49,117 L32,117 L23,116 L1,117 L-35,118 L-40,121 L-41,127 L-41,189 L-40,263 L-38,494 L-37,545 L-36,669 L-36,697 L-35,731 L-34,813 L-33,866 L-32,959 L-31,1005 L-30,1014 L-27,1017 L27,1018 L71,1017 L94,1016 L101,1014 L102,1012 L102,925 L101,865 L101,853 L102,827 L100,795 L100,753 L99,665 L99,629 L100,624 L126,624 L190,623 L262,621 L289,617 L319,607 L328,604 L361,588 L370,582 L381,575 L391,567 L399,560 L407,553 L418,541 L424,536 L432,525 L439,516 L448,503 L454,493 L462,478 L468,463 L472,454 L477,439 L482,416 L486,397 L486,348 L483,326 L479,306 L476,296 L472,283 L464,263 L456,247 L450,237 L440,222 L432,211 L421,197 L416,193 L411,188 L407,183 L399,176 L390,168 L376,158 L366,151 L356,145 L340,137 L325,131 L315,127 L294,121 L269,116 L261,115 Z M713,904 L711,905 L712,910 L716,909 L716,905 Z M482,1112 L470,1114 L470,1118 L482,1116 L488,1116 L488,1112 Z " fill="#000000" transform="translate(348,0)"/>
<path d="M0,0 L49,0 L61,2 L71,4 L82,7 L93,11 L110,21 L124,32 L127,35 L127,37 L131,39 L140,51 L148,64 L154,77 L158,92 L161,114 L160,134 L157,150 L154,159 L148,173 L138,189 L126,203 L120,208 L115,213 L106,219 L95,226 L73,234 L60,237 L46,238 L15,238 L-24,239 L-89,239 L-93,235 L-94,218 L-95,159 L-95,135 L-96,78 L-96,7 L-94,3 L-87,1 L-6,1 Z " fill="#000000" transform="translate(538,249)"/>
</svg>
