<?xml version="1.0" encoding="UTF-8"?>
<!-- Generator: visioncortex VTracer 0.6.12 -->
<svg version="1.1" xmlns="http://www.w3.org/2000/svg" width="1107" height="1119">
<path d="M0,0 L31,1 L63,3 L75,5 L78,6 L96,8 L108,11 L121,13 L143,18 L160,23 L165,25 L172,27 L190,33 L208,39 L216,43 L228,47 L244,55 L267,66 L277,72 L301,86 L309,91 L317,96 L328,104 L342,114 L353,121 L361,128 L369,135 L383,147 L391,154 L403,165 L410,173 L423,186 L434,200 L442,208 L450,219 L458,230 L465,240 L478,258 L484,268 L491,279 L498,291 L502,301 L510,314 L516,326 L520,335 L522,341 L530,360 L536,376 L541,389 L543,397 L547,408 L549,415 L552,426 L554,439 L557,446 L557,543 L555,541 L554,520 L552,505 L550,483 L544,445 L538,424 L535,411 L529,394 L521,370 L517,361 L512,346 L508,341 L503,329 L499,320 L489,301 L481,286 L475,277 L467,264 L459,253 L445,232 L437,222 L430,214 L423,205 L418,200 L409,190 L395,175 L383,163 L381,162 L381,160 L377,158 L370,153 L363,145 L352,136 L343,129 L332,121 L324,115 L311,106 L298,98 L286,91 L276,85 L263,77 L244,67 L231,62 L214,54 L193,47 L184,44 L167,38 L129,27 L88,20 L81,18 L64,17 L54,15 L24,13 L-6,13 L-35,14 L-56,16 L-69,18 L-87,20 L-101,23 L-109,24 L-113,26 L-129,29 L-150,35 L-168,40 L-188,47 L-210,55 L-221,60 L-237,67 L-258,77 L-263,80 L-277,89 L-287,94 L-298,102 L-308,109 L-323,118 L-334,127 L-347,138 L-355,144 L-367,155 L-373,160 L-381,167 L-396,182 L-403,191 L-409,198 L-411,198 L-413,203 L-419,208 L-431,224 L-436,228 L-443,240 L-450,249 L-457,260 L-467,276 L-474,287 L-480,299 L-492,321 L-501,342 L-504,347 L-508,359 L-512,368 L-519,389 L-525,407 L-532,434 L-534,441 L-537,455 L-540,478 L-543,500 L-545,522 L-545,583 L-543,623 L-540,639 L-538,657 L-530,691 L-526,705 L-522,720 L-517,735 L-511,751 L-508,758 L-506,765 L-502,773 L-500,781 L-496,787 L-491,800 L-484,810 L-481,818 L-472,832 L-468,840 L-461,851 L-452,865 L-446,875 L-435,889 L-429,896 L-418,910 L-411,917 L-402,928 L-392,939 L-387,943 L-382,948 L-359,971 L-353,975 L-343,984 L-326,996 L-321,1000 L-313,1006 L-302,1014 L-288,1022 L-279,1028 L-269,1034 L-253,1043 L-237,1051 L-221,1059 L-204,1066 L-193,1070 L-173,1078 L-160,1082 L-144,1087 L-135,1089 L-121,1093 L-110,1096 L-99,1097 L-89,1099 L-61,1104 L-23,1107 L-21,1109 L-114,1109 L-117,1107 L-132,1104 L-150,1098 L-170,1093 L-185,1087 L-202,1081 L-222,1072 L-237,1066 L-249,1059 L-261,1054 L-278,1044 L-288,1038 L-298,1032 L-308,1025 L-317,1019 L-325,1014 L-330,1009 L-339,1003 L-345,999 L-349,995 L-355,991 L-360,986 L-365,982 L-371,975 L-377,971 L-394,955 L-399,949 L-404,945 L-411,937 L-418,929 L-418,927 L-421,926 L-430,915 L-437,906 L-444,898 L-447,893 L-447,891 L-449,891 L-457,880 L-461,873 L-472,859 L-477,850 L-485,837 L-494,820 L-497,814 L-500,810 L-506,794 L-512,783 L-516,774 L-520,765 L-526,749 L-529,743 L-534,725 L-537,716 L-541,704 L-543,694 L-546,683 L-549,670 L-550,669 L-550,448 L-548,444 L-546,430 L-543,418 L-538,401 L-535,391 L-531,382 L-527,371 L-525,362 L-518,345 L-512,332 L-508,322 L-503,312 L-496,298 L-491,288 L-486,280 L-480,268 L-473,258 L-470,253 L-463,243 L-457,235 L-447,221 L-437,208 L-428,198 L-419,187 L-403,170 L-397,163 L-389,156 L-382,149 L-371,140 L-360,130 L-352,123 L-347,121 L-347,119 L-336,111 L-317,98 L-312,95 L-302,88 L-283,77 L-275,72 L-258,63 L-243,56 L-232,50 L-223,47 L-207,40 L-193,34 L-179,29 L-171,27 L-162,24 L-144,19 L-128,15 L-120,13 L-110,12 L-95,8 L-81,6 L-69,4 L-44,2 L-31,2 L-29,3 L-15,2 Z M-304,1020 L-303,1024 L-301,1024 L-301,1020 Z " fill="#000000" transform="translate(550,10)"/>
<path d="M0,0 L86,1 L141,1 L212,2 L254,2 L278,5 L301,10 L327,19 L352,31 L358,35 L367,41 L377,48 L389,57 L398,66 L406,73 L414,83 L421,91 L437,115 L448,136 L455,155 L461,175 L466,202 L467,234 L464,266 L459,287 L451,311 L437,339 L428,352 L421,363 L413,371 L407,380 L403,383 L401,383 L399,387 L388,397 L386,397 L384,401 L376,407 L361,416 L356,420 L346,425 L332,432 L315,438 L291,445 L282,447 L246,450 L208,450 L154,451 L149,454 L148,456 L147,489 L148,518 L147,560 L147,672 L148,700 L147,722 L143,727 L112,728 L72,727 L67,726 L64,727 L1,727 L-2,724 L-3,718 L-4,491 L-4,402 L-5,283 L-5,18 L-4,4 Z M85,35 L83,38 L85,40 L89,40 L88,35 Z M200,94 L201,96 Z M161,131 L150,132 L146,136 L145,173 L145,262 L146,311 L150,316 L156,318 L232,318 L244,316 L260,311 L271,305 L283,296 L292,288 L298,280 L303,272 L308,263 L314,243 L315,238 L315,215 L311,195 L308,188 L300,174 L289,159 L281,153 L271,145 L261,140 L249,135 L239,133 L236,132 L204,131 Z M101,207 Z M432,221 L434,224 L437,224 L437,221 Z M391,271 L392,273 L395,272 Z M133,283 L133,285 L136,285 L136,283 Z M245,407 L242,409 L242,414 L247,420 L253,420 L255,417 L251,409 L249,407 Z M99,690 L98,692 L107,694 L104,691 Z " fill="#000000" transform="translate(528,210)"/>
<path d="M0,0 L38,1 L43,6 L47,13 L51,23 L59,39 L65,52 L73,67 L75,68 L167,69 L179,70 L182,73 L183,79 L183,140 L181,147 L180,148 L153,148 L149,144 L142,123 L129,109 L121,104 L109,99 L103,98 L86,98 L77,100 L67,104 L54,115 L50,120 L43,134 L40,154 L36,158 L-65,158 L-71,159 L-76,157 L-78,154 L-81,135 L-85,124 L-88,121 L-93,112 L-102,106 L-116,98 L-126,97 L-128,96 L-137,96 L-155,100 L-164,106 L-170,110 L-174,115 L-177,117 L-183,129 L-187,143 L-191,146 L-203,147 L-230,147 L-240,146 L-242,144 L-243,140 L-243,70 L-238,67 L-164,68 L-158,65 L-155,64 L-153,60 L-146,52 L-134,39 L-126,28 L-124,28 L-122,24 L-118,19 L-116,19 L-114,15 L-106,5 L-101,1 L-3,1 Z M-52,23 L-52,26 L-49,25 L-50,23 Z " fill="#000000" transform="translate(316,469)"/>
<path d="M0,0 L17,1 L33,9 L42,18 L46,25 L48,32 L50,38 L50,46 L45,64 L38,73 L28,82 L20,86 L4,88 L-8,86 L-22,78 L-31,67 L-36,55 L-37,51 L-37,34 L-32,21 L-26,13 L-16,6 L-7,2 Z " fill="#000000" transform="translate(179,574)"/>
<path d="M0,0 L14,2 L24,7 L32,13 L40,23 L43,33 L44,37 L44,53 L40,64 L34,73 L28,80 L13,87 L10,88 L-5,88 L-13,86 L-21,82 L-33,71 L-38,63 L-42,49 L-42,37 L-38,24 L-30,13 L-22,7 L-12,2 Z M11,42 L10,43 L10,48 L15,51 L16,47 L15,43 Z " fill="#000000" transform="translate(410,575)"/>
<path d="M0,0 L1,0 L1,104 L-4,122 L-5,123 L-14,125 L-12,127 L-6,129 L-6,134 L-9,142 L-15,163 L-20,176 L-22,183 L-27,195 L-35,215 L-43,231 L-49,245 L-61,265 L-67,274 L-73,286 L-81,297 L-89,309 L-99,323 L-108,334 L-117,345 L-122,350 L-128,358 L-133,363 L-137,368 L-145,375 L-150,381 L-152,381 L-154,385 L-163,394 L-171,401 L-176,406 L-188,417 L-197,423 L-203,428 L-214,437 L-225,444 L-230,448 L-241,455 L-258,466 L-277,477 L-293,486 L-320,499 L-333,505 L-353,513 L-363,516 L-371,519 L-383,523 L-387,525 L-413,531 L-417,533 L-426,533 L-426,535 L-523,535 L-521,533 L-494,531 L-490,530 L-476,529 L-460,526 L-440,522 L-438,521 L-425,519 L-408,515 L-399,512 L-390,510 L-370,503 L-360,499 L-349,496 L-330,487 L-320,483 L-308,477 L-296,471 L-280,463 L-262,453 L-249,445 L-239,438 L-228,430 L-223,427 L-218,423 L-212,419 L-205,413 L-194,404 L-185,396 L-177,389 L-172,384 L-163,376 L-158,372 L-151,364 L-147,359 L-142,355 L-133,344 L-125,334 L-116,323 L-107,312 L-96,296 L-89,285 L-80,271 L-69,253 L-63,243 L-57,230 L-49,212 L-41,195 L-36,182 L-31,168 L-23,144 L-17,122 L-14,110 L-12,99 L-9,87 L-5,62 L-2,31 L-1,9 Z " fill="#000000" transform="translate(1106,584)"/>
</svg>
