<?xml version="1.0" encoding="UTF-8"?>
<!-- Generator: visioncortex VTracer 0.6.12 -->
<svg version="1.1" xmlns="http://www.w3.org/2000/svg" width="1017" height="1005">
<path d="M0,0 L802,0 L807,2 L807,0 L846,0 L851,1 L852,0 L890,0 L894,0 L912,0 L913,2 L917,2 L918,0 L923,1 L928,2 L933,0 L941,0 L942,1 L950,2 L968,2 L968,0 L978,0 L979,1 L986,1 L990,0 L1000,2 L1000,1005 L-16,1005 L-17,1004 L-17,921 L-16,920 L-15,900 L-15,861 L-16,850 L-17,849 L-17,844 L-15,841 L-14,797 L-13,752 L-13,723 L-14,716 L-12,709 L-12,690 L-11,639 L-10,635 L-11,609 L-10,566 L-10,507 L-8,478 L-9,468 L-8,438 L-8,399 L-7,378 L-7,354 L-6,349 L-6,298 L-5,255 L-6,238 L-5,211 L-5,169 L-4,156 L-4,131 L-3,128 L-2,104 L-2,39 L-1,32 L-2,29 L-2,22 L0,18 Z M386,95 L380,96 L360,97 L353,99 L349,101 L343,101 L341,97 L337,98 L336,99 L331,99 L329,97 L317,97 L313,98 L306,97 L273,97 L270,96 L239,96 L233,101 L232,110 L231,130 L231,178 L229,230 L228,320 L229,348 L230,353 L228,366 L228,378 L227,396 L227,434 L226,459 L226,614 L225,649 L224,668 L224,682 L225,690 L225,718 L223,733 L223,798 L224,828 L223,830 L222,853 L223,916 L225,925 L227,927 L234,929 L254,929 L259,930 L275,928 L280,930 L294,929 L299,928 L328,928 L332,930 L357,929 L362,925 L363,922 L364,906 L364,889 L365,839 L365,766 L367,754 L366,722 L367,716 L367,673 L368,647 L372,644 L401,645 L407,644 L410,645 L448,645 L454,644 L458,646 L484,646 L498,647 L504,645 L510,646 L516,645 L577,645 L607,641 L612,639 L619,639 L623,637 L633,635 L639,634 L645,634 L647,630 L659,627 L669,623 L680,618 L688,614 L694,612 L696,607 L704,605 L718,597 L727,589 L733,585 L740,577 L750,569 L757,561 L763,557 L767,551 L775,541 L777,537 L782,532 L789,522 L792,519 L796,510 L799,506 L803,499 L808,489 L813,478 L817,469 L820,462 L822,454 L829,430 L830,421 L832,416 L833,404 L834,402 L835,385 L835,361 L833,335 L832,314 L828,305 L825,294 L821,284 L818,277 L814,264 L811,257 L808,248 L800,232 L791,220 L788,214 L781,205 L777,201 L774,195 L768,190 L761,182 L753,175 L749,169 L738,161 L728,152 L717,144 L710,141 L706,136 L690,128 L681,123 L675,121 L652,110 L640,107 L635,104 L617,102 L609,100 L600,101 L593,98 L565,98 L550,96 L394,96 L392,95 Z " fill="#000000" transform="translate(17,0)"/>
<path d="M0,0 L46,1 L54,1 L58,2 L90,2 L124,3 L149,3 L156,5 L167,4 L177,6 L184,6 L189,8 L198,10 L213,16 L230,24 L240,32 L245,35 L256,45 L267,59 L271,64 L280,77 L285,94 L289,105 L292,117 L293,128 L293,142 L291,161 L289,173 L285,182 L280,196 L275,204 L268,215 L259,226 L251,233 L235,248 L230,254 L221,256 L213,261 L204,265 L190,268 L174,272 L160,274 L143,274 L134,275 L111,275 L108,277 L97,275 L90,274 L79,274 L76,276 L69,275 L66,274 L45,274 L38,273 L32,274 L-24,274 L-29,270 L-31,264 L-31,248 L-30,226 L-31,219 L-30,204 L-30,172 L-29,154 L-29,104 L-28,75 L-28,25 L-26,5 L-22,1 L-3,1 Z M36,15 L37,22 L41,23 L42,19 L39,15 Z " fill="#000000" transform="translate(416,231)"/>
</svg>
