<?xml version="1.0" encoding="UTF-8"?>
<!-- Generator: visioncortex VTracer 0.6.12 -->
<svg version="1.1" xmlns="http://www.w3.org/2000/svg" width="1065" height="1218">
<path d="M0,0 L57,0 L63,1 L85,1 L106,0 L136,0 L161,1 L173,0 L242,0 L261,1 L280,0 L327,0 L332,5 L336,4 L338,1 L348,1 L351,0 L359,0 L363,2 L372,1 L406,1 L411,2 L435,2 L446,1 L484,1 L489,2 L492,1 L509,1 L556,2 L564,0 L567,3 L572,3 L573,2 L593,3 L614,5 L624,7 L637,8 L641,10 L649,15 L657,18 L664,20 L673,25 L682,29 L693,36 L704,44 L704,46 L708,48 L718,55 L720,59 L726,61 L734,71 L743,82 L751,92 L757,101 L766,116 L769,121 L771,128 L775,140 L781,152 L784,162 L787,179 L789,193 L790,198 L791,222 L791,250 L792,258 L791,269 L791,350 L792,364 L791,369 L791,738 L790,753 L791,792 L790,815 L788,823 L787,836 L783,851 L776,869 L772,879 L768,886 L765,894 L762,901 L760,907 L755,910 L750,918 L744,923 L736,934 L725,946 L720,950 L716,951 L710,959 L698,968 L685,975 L680,979 L668,984 L661,988 L647,992 L640,995 L632,997 L623,1000 L607,1001 L601,1002 L592,1004 L578,1004 L563,1003 L554,1002 L553,1003 L396,1003 L392,1005 L386,1004 L347,1004 L346,1006 L341,1005 L338,1003 L332,1003 L326,1005 L322,1003 L298,1004 L286,1003 L282,1005 L276,1004 L60,1004 L51,1003 L34,1004 L9,1004 L-4,1003 L-9,1001 L-20,1001 L-27,998 L-38,997 L-47,994 L-61,990 L-77,982 L-91,975 L-99,969 L-105,965 L-110,961 L-125,950 L-129,944 L-137,938 L-145,928 L-151,919 L-151,917 L-156,915 L-163,905 L-167,899 L-173,886 L-176,878 L-179,873 L-185,855 L-187,847 L-191,834 L-194,809 L-194,697 L-195,608 L-194,576 L-195,500 L-195,390 L-194,376 L-195,349 L-195,253 L-194,188 L-192,180 L-191,169 L-186,152 L-182,139 L-175,123 L-169,113 L-163,100 L-156,89 L-147,79 L-140,69 L-129,59 L-124,54 L-113,44 L-100,35 L-91,29 L-85,27 L-83,27 L-81,23 L-69,18 L-61,16 L-52,12 L-43,9 L-33,7 L-22,3 L-3,2 Z M27,148 L20,152 L14,149 L0,149 L-3,153 L-4,157 L-5,180 L-4,183 L-5,209 L-4,223 L1,226 L14,227 L34,226 L44,227 L60,226 L70,227 L83,231 L91,236 L98,242 L105,258 L108,275 L108,333 L107,347 L107,503 L106,528 L107,531 L107,555 L106,595 L105,638 L106,643 L106,706 L102,737 L94,753 L89,758 L84,763 L78,765 L68,767 L42,766 L14,767 L-1,767 L-5,770 L-8,792 L-8,811 L-7,815 L-7,823 L-8,828 L-8,838 L-5,844 L-3,845 L9,845 L16,846 L41,846 L58,845 L67,845 L75,844 L85,846 L94,845 L113,846 L154,845 L170,845 L175,844 L191,846 L199,845 L257,845 L263,846 L265,845 L324,845 L356,844 L361,840 L362,833 L362,784 L361,768 L360,767 L352,766 L332,766 L321,765 L296,766 L281,764 L274,763 L263,759 L254,753 L249,744 L245,735 L243,721 L242,702 L243,671 L243,564 L244,547 L243,543 L244,525 L247,520 L253,519 L262,520 L282,520 L286,521 L290,519 L305,518 L314,519 L324,518 L332,520 L335,519 L375,519 L381,518 L395,518 L404,519 L410,518 L438,517 L444,516 L451,517 L458,516 L462,515 L476,514 L483,512 L492,512 L495,510 L505,508 L509,506 L516,504 L527,499 L536,496 L551,487 L560,481 L571,472 L580,462 L586,455 L599,438 L601,436 L604,427 L609,420 L615,404 L618,395 L622,384 L624,376 L626,358 L626,345 L627,327 L624,295 L618,276 L614,266 L612,259 L608,253 L605,245 L596,231 L582,212 L577,207 L570,200 L560,192 L551,184 L546,181 L541,179 L532,175 L518,168 L510,166 L506,163 L497,162 L487,158 L486,157 L467,155 L465,154 L453,154 L448,152 L429,150 L419,150 L416,148 L369,148 L363,149 L357,148 L352,150 L345,149 L329,148 L323,149 L293,148 L237,148 L235,149 L226,149 L223,148 L211,148 L205,149 L195,148 L191,149 L178,149 L170,150 L166,149 L140,148 L137,151 L132,150 L126,149 L121,153 L115,152 L111,150 L91,148 L54,148 L44,149 Z M-119,937 L-119,942 L-115,941 L-116,937 Z M271,971 L270,975 L274,976 L274,971 Z " fill="#000000" transform="translate(239,35)"/>
<path d="M0,0 L13,1 L20,2 L40,2 L49,5 L59,7 L68,11 L78,17 L79,18 L86,19 L94,26 L97,28 L97,30 L100,31 L110,44 L114,52 L119,60 L123,72 L126,91 L126,129 L123,145 L117,161 L111,172 L104,182 L100,187 L95,192 L90,196 L82,202 L73,207 L68,210 L52,215 L43,216 L31,219 L15,220 L1,220 L-25,221 L-32,220 L-42,220 L-51,219 L-72,221 L-94,220 L-104,218 L-106,214 L-106,105 L-105,91 L-106,52 L-106,30 L-105,11 L-102,6 L-98,4 L-84,3 L-76,3 L-65,1 L-56,1 L-44,3 L-18,3 L-10,2 L-4,2 Z " fill="#000000" transform="translate(588,257)"/>
<path d="M0,0 L16,3 L22,6 L29,14 L30,23 L27,25 L22,24 L13,14 L3,9 L-4,10 L-13,15 L-14,18 L-14,25 L-8,32 L5,36 L14,37 L24,42 L31,48 L34,55 L33,64 L26,76 L18,80 L13,82 L-4,82 L-18,78 L-23,73 L-28,65 L-29,58 L-26,55 L-22,56 L-19,59 L-15,66 L-9,70 L-1,73 L9,73 L16,70 L19,67 L20,65 L19,55 L18,52 L11,47 L-11,41 L-18,39 L-24,31 L-25,29 L-25,19 L-22,11 L-14,4 Z " fill="#000000" transform="translate(218,1103)"/>
<path d="M0,0 L8,0 L13,5 L19,14 L22,19 L27,27 L31,32 L37,42 L45,53 L48,53 L49,43 L49,28 L50,19 L49,16 L49,8 L52,1 L53,0 L58,0 L60,2 L61,18 L61,34 L60,72 L57,78 L49,78 L44,73 L39,65 L36,59 L29,50 L26,44 L18,33 L15,28 L12,27 L10,28 L9,70 L5,77 L-1,78 L-3,76 L-3,3 Z " fill="#000000" transform="translate(39,1107)"/>
<path d="M0,0 L34,0 L44,5 L48,9 L51,15 L51,23 L49,32 L44,39 L37,43 L33,45 L25,46 L20,47 L14,45 L8,45 L5,51 L4,63 L4,71 L1,77 L-4,77 L-6,74 L-7,66 L-7,23 L-6,3 Z M11,7 L6,11 L5,14 L5,32 L8,36 L28,36 L36,32 L39,29 L40,19 L36,12 L31,9 L27,8 Z " fill="#000000" transform="translate(126,1107)"/>
</svg>
