<?xml version="1.0" encoding="UTF-8"?>
<!-- Generator: visioncortex VTracer 0.6.12 -->
<svg version="1.1" xmlns="http://www.w3.org/2000/svg" width="1458" height="1329">
<path d="M0,0 L119,0 L130,1 L174,0 L189,1 L216,1 L218,3 L219,53 L217,56 L94,56 L69,55 L28,56 L6,55 L-61,56 L-358,56 L-445,57 L-663,57 L-734,58 L-798,58 L-805,59 L-810,58 L-867,58 L-916,59 L-925,58 L-972,58 L-1009,59 L-1019,58 L-1046,59 L-1198,59 L-1198,4 L-1151,4 L-1024,3 L-914,3 L-626,2 L-503,2 L-495,1 L-491,2 L-446,2 L-361,1 L-188,1 Z " fill="#000000" transform="translate(1198,36)"/>
<path d="M0,0 L12,2 L41,2 L69,3 L70,4 L81,3 L84,2 L95,2 L99,3 L107,3 L114,2 L115,1 L120,1 L123,4 L130,3 L228,3 L233,4 L236,2 L244,3 L271,3 L278,5 L283,2 L288,3 L289,4 L311,4 L322,3 L327,2 L329,4 L334,4 L338,3 L343,2 L345,1 L348,3 L368,5 L385,5 L392,4 L405,5 L407,4 L413,4 L414,5 L442,5 L444,4 L475,5 L502,5 L555,6 L567,5 L577,6 L585,5 L599,6 L621,6 L630,5 L632,6 L655,6 L658,7 L660,6 L668,6 L678,7 L681,6 L697,6 L723,5 L725,6 L748,9 L755,9 L767,14 L776,17 L788,23 L793,25 L798,28 L804,31 L811,38 L820,44 L825,50 L830,54 L838,65 L839,68 L844,73 L853,88 L859,104 L862,112 L867,135 L868,234 L868,305 L867,311 L868,316 L868,388 L869,422 L868,485 L868,586 L869,592 L867,599 L868,606 L868,741 L869,749 L868,754 L867,801 L868,815 L868,830 L867,834 L867,870 L866,886 L867,897 L862,915 L857,937 L851,948 L845,960 L832,978 L825,986 L818,993 L810,1000 L801,1007 L792,1013 L782,1017 L777,1020 L768,1023 L761,1025 L754,1028 L742,1029 L733,1031 L732,1032 L721,1031 L700,1031 L694,1032 L655,1032 L644,1031 L636,1032 L628,1032 L619,1031 L611,1032 L608,1031 L571,1032 L549,1031 L544,1030 L539,1032 L460,1032 L453,1031 L437,1032 L317,1032 L313,1030 L303,1031 L297,1031 L295,1032 L226,1032 L222,1031 L202,1031 L192,1028 L178,1029 L172,1031 L163,1031 L160,1030 L147,1030 L144,1031 L124,1031 L120,1032 L116,1031 L107,1031 L95,1032 L89,1031 L55,1031 L52,1032 L36,1031 L29,1031 L24,1032 L20,1031 L12,1031 L4,1030 L-22,1030 L-32,1029 L-38,1027 L-51,1025 L-71,1018 L-77,1015 L-82,1013 L-87,1008 L-96,1003 L-105,996 L-114,988 L-120,980 L-128,973 L-133,963 L-137,959 L-141,951 L-146,943 L-151,926 L-152,924 L-153,913 L-155,906 L-155,831 L-156,821 L-156,648 L-155,565 L-155,427 L-154,389 L-155,375 L-154,353 L-154,337 L-155,329 L-155,311 L-156,306 L-154,299 L-154,268 L-155,265 L-155,253 L-154,239 L-154,197 L-153,187 L-154,175 L-154,158 L-153,152 L-152,124 L-148,109 L-144,99 L-141,90 L-131,71 L-120,57 L-115,52 L-108,43 L-94,32 L-84,24 L-65,14 L-56,10 L-50,8 L-44,7 L-28,5 L-24,3 L-18,2 L-3,2 Z M80,13 L70,15 L-8,15 L-32,18 L-48,23 L-66,30 L-87,43 L-95,50 L-98,53 L-106,60 L-115,69 L-122,82 L-125,85 L-130,98 L-133,103 L-135,115 L-138,124 L-140,130 L-143,162 L-143,208 L-144,322 L-144,561 L-145,568 L-144,644 L-145,654 L-145,677 L-144,688 L-144,732 L-145,744 L-145,797 L-146,825 L-146,864 L-145,893 L-143,908 L-141,910 L-139,920 L-135,931 L-133,939 L-125,952 L-119,962 L-112,969 L-108,974 L-103,979 L-97,986 L-90,990 L-88,993 L-79,998 L-66,1005 L-59,1008 L-49,1013 L-40,1015 L-31,1016 L-19,1017 L-17,1016 L-11,1016 L-10,1017 L3,1018 L9,1019 L18,1020 L24,1018 L37,1019 L68,1019 L72,1020 L100,1019 L107,1018 L115,1020 L163,1020 L170,1019 L172,1020 L185,1020 L195,1021 L200,1020 L213,1021 L224,1019 L234,1020 L279,1020 L287,1021 L306,1020 L373,1020 L379,1022 L390,1020 L405,1020 L411,1021 L412,1020 L480,1020 L491,1019 L492,1020 L499,1020 L503,1019 L528,1019 L533,1020 L680,1020 L690,1019 L727,1018 L735,1017 L747,1017 L752,1014 L760,1013 L772,1007 L780,1004 L788,998 L798,992 L803,987 L807,982 L815,977 L821,970 L826,965 L830,958 L834,953 L840,941 L849,916 L853,896 L853,882 L851,879 L852,874 L854,863 L855,846 L855,557 L854,553 L855,519 L854,507 L854,466 L855,456 L854,434 L855,411 L854,396 L854,371 L855,347 L855,145 L854,141 L852,122 L846,104 L838,88 L834,80 L827,72 L820,63 L812,54 L804,48 L799,44 L786,36 L770,28 L747,21 L723,19 L722,18 L644,18 L623,17 L573,17 L565,18 L563,22 L559,21 L555,17 L548,17 L539,16 L523,17 L517,18 L515,16 L507,17 L497,17 L496,16 L483,17 L480,16 L465,16 L449,15 L420,16 L389,16 L388,17 L374,16 L355,16 L352,17 L340,17 L327,16 L292,17 L232,17 L230,16 L222,16 L213,17 L198,15 L190,15 L183,16 L177,15 L120,15 L86,14 Z " fill="#000000" transform="translate(557,150)"/>
<path d="M0,0 L22,1 L48,1 L50,2 L50,15 L51,29 L51,152 L52,380 L52,641 L53,655 L52,665 L52,769 L53,798 L52,815 L52,1017 L50,1021 L44,1025 L-42,1025 L-55,1026 L-58,1025 L-78,1025 L-88,1026 L-90,1027 L-96,1027 L-102,1025 L-112,1026 L-117,1024 L-117,1013 L-106,1014 L-83,1014 L-79,1016 L-74,1015 L-68,1014 L-62,1015 L-40,1014 L-33,1014 L-27,1013 L-18,1014 L-5,1014 L3,1013 L23,1014 L31,1013 L39,1013 L42,1009 L43,1004 L43,978 L44,955 L43,952 L43,898 L42,867 L42,784 L41,775 L41,762 L42,752 L42,639 L43,633 L42,629 L41,608 L41,521 L43,505 L42,493 L42,375 L41,327 L41,315 L40,303 L39,297 L40,295 L41,266 L41,32 L39,13 L32,12 L25,13 L18,11 L9,13 L-74,13 L-93,14 L-98,13 L-117,13 L-117,2 L-69,2 L-54,1 L-46,2 L-43,1 L-8,1 Z " fill="#000000" transform="translate(117,161)"/>
<path d="M0,0 L14,0 L23,2 L30,2 L35,3 L55,3 L62,1 L67,2 L74,3 L87,2 L93,1 L96,3 L138,3 L154,1 L160,0 L167,3 L174,3 L179,2 L183,3 L198,4 L204,5 L217,8 L234,10 L244,15 L259,17 L273,22 L278,25 L285,25 L294,31 L303,35 L313,42 L326,50 L337,57 L342,61 L347,67 L355,74 L361,85 L365,90 L369,94 L377,111 L383,120 L386,126 L389,135 L395,151 L400,178 L403,185 L405,214 L406,217 L405,220 L405,251 L404,282 L402,291 L399,315 L397,320 L395,335 L391,348 L384,373 L380,384 L376,390 L370,405 L363,415 L361,420 L354,427 L351,430 L345,439 L339,447 L337,453 L330,455 L321,462 L317,468 L314,475 L311,475 L309,473 L304,474 L299,477 L296,484 L294,486 L289,486 L285,485 L282,488 L280,492 L271,492 L258,498 L248,501 L232,505 L223,508 L214,509 L209,510 L205,512 L193,513 L188,515 L180,515 L176,517 L158,517 L150,519 L138,520 L117,520 L91,518 L81,520 L74,520 L73,519 L65,520 L42,520 L36,519 L34,520 L9,521 L0,524 L-2,532 L-1,548 L0,553 L-1,559 L-1,572 L-3,583 L-3,622 L-2,628 L-3,632 L-3,673 L-1,677 L-3,681 L-4,724 L-5,731 L-10,735 L-12,736 L-39,737 L-55,736 L-65,737 L-71,738 L-74,737 L-135,737 L-180,736 L-185,731 L-187,727 L-185,689 L-184,672 L-185,632 L-184,613 L-184,591 L-183,587 L-184,571 L-184,470 L-183,456 L-183,430 L-182,413 L-183,407 L-183,363 L-182,357 L-182,347 L-183,343 L-182,305 L-182,210 L-181,178 L-181,108 L-180,104 L-179,51 L-180,45 L-179,22 L-178,11 L-172,6 L-164,3 L-141,3 L-134,2 L-126,2 L-123,4 L-116,3 L-100,3 L-96,1 L-90,2 L-85,3 L-66,2 L-64,3 L-21,3 L-19,2 L-12,2 L-10,1 Z M15,151 L11,153 L4,154 L0,163 L-2,210 L-3,222 L-2,224 L-2,255 L-3,261 L-3,338 L-2,341 L-1,357 L3,363 L11,366 L20,368 L26,367 L27,366 L44,367 L66,367 L73,366 L82,367 L87,366 L98,366 L112,367 L116,365 L127,366 L148,363 L157,360 L169,358 L176,354 L183,353 L187,350 L193,347 L203,338 L208,333 L220,320 L225,311 L230,302 L233,292 L235,275 L235,253 L232,233 L228,224 L226,215 L221,203 L215,192 L207,181 L197,173 L192,168 L180,162 L166,158 L145,154 L132,153 L119,153 L100,151 L60,151 L54,152 L51,151 L43,151 L40,152 L22,152 Z " fill="#000000" transform="translate(847,302)"/>
<path d="M0,0 L5,1 L5,12 L1,22 L-2,31 L-6,36 L-9,45 L-11,53 L-15,62 L-18,71 L-25,82 L-26,83 L-31,83 L-32,77 L-30,70 L-26,59 L-22,49 L-14,31 L-11,24 L-9,17 L-4,5 Z " fill="#000000" transform="translate(862,1211)"/>
<path d="M0,0 L19,0 L22,2 L35,1 L46,4 L56,12 L60,17 L63,26 L63,56 L57,68 L46,80 L40,82 L8,83 L7,82 L-1,82 L-4,79 L-5,77 L-5,13 L-6,9 L-2,1 Z M15,13 L10,17 L8,30 L8,51 L7,61 L10,69 L15,71 L31,71 L44,64 L48,54 L49,43 L48,27 L43,18 L30,13 Z " fill="#000000" transform="translate(750,1212)"/>
<path d="M0,0 L9,0 L15,1 L17,0 L45,1 L49,5 L47,11 L43,13 L28,13 L25,15 L18,14 L12,13 L9,16 L9,33 L23,33 L38,34 L41,36 L41,44 L37,46 L18,46 L12,45 L7,51 L7,61 L8,67 L6,78 L3,81 L-3,81 L-6,77 L-6,64 L-5,51 L-6,47 L-6,25 L-7,14 L-4,2 Z " fill="#000000" transform="translate(898,1212)"/>
<path d="M0,0 L4,1 L10,0 L17,13 L21,26 L28,45 L32,55 L35,64 L38,74 L38,79 L37,80 L30,80 L26,75 L21,61 L18,57 L11,56 L-4,56 L-11,57 L-20,74 L-25,78 L-30,79 L-31,78 L-30,68 L-27,62 L-23,54 L-16,34 L-12,24 L-8,16 L-5,7 L-2,2 Z M3,20 L-1,26 L-5,37 L-5,43 L-2,47 L9,47 L14,42 L10,28 L7,21 Z " fill="#000000" transform="translate(436,1213)"/>
<path d="M0,0 L23,1 L37,1 L43,0 L49,1 L56,2 L57,3 L57,9 L55,11 L45,12 L37,12 L34,14 L32,27 L32,43 L31,72 L29,77 L28,78 L22,78 L20,73 L19,59 L20,54 L20,16 L17,13 L-2,11 L-5,8 L-5,3 Z " fill="#000000" transform="translate(489,1213)"/>
<path d="M0,0 L5,1 L10,11 L12,21 L15,33 L18,45 L21,53 L24,52 L26,41 L30,34 L34,14 L37,5 L41,2 L51,1 L53,4 L57,19 L60,29 L63,44 L67,53 L70,54 L72,44 L79,15 L84,3 L87,1 L93,1 L94,2 L94,13 L92,23 L90,29 L86,37 L83,53 L80,63 L76,76 L72,81 L63,81 L56,78 L55,75 L54,61 L53,54 L49,46 L48,33 L44,33 L38,47 L34,62 L31,71 L27,79 L25,81 L15,81 L13,79 L11,69 L6,52 L3,41 L1,31 L-2,16 L-4,10 L-3,3 Z " fill="#000000" transform="translate(959,1212)"/>
<path d="M0,0 L8,0 L13,5 L18,20 L22,29 L26,43 L34,63 L37,73 L37,78 L34,80 L29,80 L24,71 L20,60 L17,57 L14,56 L-10,56 L-16,65 L-21,75 L-27,79 L-32,78 L-32,71 L-28,63 L-21,46 L-17,36 L-13,29 L-8,13 L-1,1 Z M2,21 L-1,24 L-5,34 L-6,42 L-4,46 L11,46 L13,44 L13,37 L10,30 L6,22 Z " fill="#000000" transform="translate(584,1214)"/>
</svg>
