<?xml version="1.0" encoding="UTF-8"?>
<!-- Generator: visioncortex VTracer 0.6.12 -->
<svg version="1.1" xmlns="http://www.w3.org/2000/svg" width="1110" height="1239">
<path d="M0,0 L15,1 L31,1 L35,2 L42,1 L58,2 L120,2 L136,3 L159,3 L179,2 L183,1 L186,2 L200,2 L207,1 L214,1 L218,3 L287,3 L290,4 L298,4 L303,2 L307,4 L370,4 L378,5 L385,4 L390,3 L414,5 L429,5 L432,7 L437,6 L440,5 L505,5 L512,6 L535,5 L538,4 L545,4 L548,5 L578,5 L593,6 L616,5 L636,5 L638,6 L654,6 L669,11 L679,16 L690,20 L701,27 L708,35 L723,51 L732,62 L737,70 L742,75 L743,76 L745,85 L749,98 L751,107 L751,136 L750,190 L751,201 L750,218 L750,313 L749,323 L750,335 L750,391 L749,402 L750,405 L750,448 L749,457 L750,462 L750,519 L751,523 L751,531 L750,543 L750,558 L751,575 L750,580 L750,589 L751,595 L749,618 L749,627 L752,637 L752,645 L751,648 L750,665 L750,680 L751,685 L750,703 L749,712 L749,728 L750,740 L750,750 L749,757 L748,859 L747,899 L745,917 L740,931 L738,938 L730,954 L719,972 L711,978 L707,980 L703,985 L692,993 L681,1001 L669,1004 L658,1008 L635,1010 L630,1012 L610,1010 L592,1010 L578,1009 L547,1009 L541,1010 L514,1010 L507,1011 L497,1009 L490,1010 L487,1012 L461,1009 L355,1009 L350,1010 L313,1010 L310,1012 L305,1012 L303,1010 L223,1010 L216,1012 L210,1012 L208,1010 L173,1009 L166,1010 L160,1009 L144,1011 L132,1010 L20,1010 L7,1009 L-17,1010 L-59,1010 L-75,1009 L-83,1010 L-92,1009 L-98,1008 L-108,1011 L-115,1009 L-130,1009 L-133,1012 L-138,1012 L-140,1009 L-147,1008 L-154,1008 L-163,1003 L-174,1003 L-180,996 L-194,991 L-202,982 L-206,979 L-206,977 L-210,975 L-217,967 L-223,963 L-227,955 L-234,951 L-234,944 L-235,940 L-238,939 L-239,937 L-241,921 L-244,911 L-245,900 L-246,869 L-246,846 L-245,830 L-245,744 L-246,726 L-245,712 L-245,437 L-246,420 L-245,402 L-245,383 L-246,363 L-245,350 L-245,295 L-246,272 L-246,255 L-245,252 L-245,242 L-246,238 L-246,231 L-245,226 L-244,178 L-243,158 L-243,137 L-241,96 L-237,83 L-232,70 L-226,58 L-218,51 L-214,50 L-209,50 L-204,42 L-200,41 L-198,37 L-194,27 L-183,19 L-175,17 L-165,10 L-157,6 L-149,4 L-135,3 L-126,1 L-114,1 L-105,2 L-90,2 L-88,1 L-44,1 L-30,2 L-22,1 L-13,1 L-4,2 Z M-126,56 L-141,57 L-156,63 L-163,69 L-166,74 L-174,81 L-178,87 L-182,96 L-185,107 L-187,110 L-188,130 L-188,145 L-189,177 L-189,214 L-190,242 L-190,442 L-191,460 L-191,642 L-190,647 L-191,693 L-191,885 L-190,900 L-187,913 L-181,924 L-173,934 L-168,939 L-150,950 L-141,953 L-131,954 L-113,954 L-110,953 L-88,954 L-81,955 L-77,954 L-61,955 L-48,955 L-42,957 L-35,956 L-33,955 L78,955 L85,956 L108,956 L112,955 L135,955 L139,956 L162,956 L169,955 L179,957 L215,957 L233,956 L286,956 L297,957 L563,957 L579,958 L637,957 L654,953 L664,949 L676,938 L681,933 L688,923 L693,906 L695,886 L695,663 L696,643 L696,571 L695,561 L696,557 L696,444 L695,410 L696,403 L696,357 L695,330 L696,328 L696,149 L697,138 L695,127 L692,105 L689,95 L682,84 L671,73 L654,63 L644,61 L628,60 L595,60 L587,59 L584,60 L565,59 L518,60 L489,59 L487,60 L468,59 L461,60 L436,59 L403,59 L400,58 L379,58 L375,57 L357,58 L325,57 L228,57 L215,58 L200,58 L197,57 L170,57 L164,56 L151,57 L116,57 L83,56 L24,56 L19,57 L6,57 L-5,56 L-39,56 L-58,57 L-67,56 L-93,56 L-98,59 L-108,56 Z " fill="#000000" transform="translate(325,36)"/>
<path d="M0,0 L5,1 L6,2 L22,2 L39,3 L45,0 L50,1 L55,2 L93,2 L99,5 L103,3 L119,2 L124,5 L129,4 L131,3 L149,3 L162,4 L166,3 L211,3 L216,5 L221,5 L223,3 L281,3 L287,4 L302,4 L315,5 L317,4 L337,4 L343,5 L352,4 L354,5 L369,4 L376,3 L377,4 L387,4 L399,5 L426,5 L433,4 L449,5 L470,5 L473,4 L481,4 L485,5 L541,6 L603,6 L616,7 L636,7 L657,8 L659,7 L739,7 L752,9 L763,15 L776,26 L783,37 L785,48 L786,62 L786,80 L785,102 L785,202 L784,222 L785,226 L785,356 L784,366 L784,650 L783,664 L783,725 L781,728 L782,732 L783,733 L783,815 L781,834 L776,847 L769,854 L764,859 L758,864 L745,869 L742,870 L696,871 L661,871 L621,869 L614,870 L528,870 L521,871 L515,870 L425,870 L403,871 L380,871 L362,870 L328,870 L316,871 L286,871 L283,872 L276,872 L272,871 L247,871 L244,873 L225,872 L220,870 L181,870 L150,871 L147,870 L76,870 L75,869 L61,869 L49,872 L44,871 L42,870 L19,869 L9,869 L7,870 L-8,870 L-16,871 L-28,868 L-40,866 L-55,858 L-65,847 L-69,839 L-72,827 L-73,812 L-73,780 L-72,711 L-73,656 L-73,636 L-74,622 L-73,614 L-73,588 L-77,586 L-79,583 L-74,581 L-73,572 L-73,541 L-74,535 L-74,505 L-73,491 L-73,446 L-72,390 L-72,228 L-74,223 L-74,214 L-72,205 L-72,179 L-73,168 L-72,160 L-71,114 L-70,102 L-71,73 L-70,53 L-68,40 L-63,28 L-56,18 L-45,10 L-37,6 L-27,4 L-22,3 L-3,2 Z M261,78 L257,82 L255,89 L255,152 L254,157 L254,285 L255,292 L255,304 L254,325 L254,392 L255,400 L254,403 L253,434 L254,442 L254,455 L258,463 L260,465 L279,465 L306,466 L317,465 L323,461 L325,454 L325,437 L326,411 L326,398 L327,388 L326,385 L326,328 L328,319 L332,316 L345,315 L385,315 L393,314 L400,314 L405,313 L416,313 L419,314 L428,314 L431,313 L450,312 L464,308 L474,306 L488,299 L495,293 L506,286 L509,282 L509,280 L514,278 L521,270 L529,257 L536,244 L539,240 L544,224 L545,213 L545,182 L542,166 L537,153 L530,136 L522,125 L518,120 L512,113 L507,108 L503,103 L491,95 L483,90 L474,88 L467,84 L448,80 L441,79 L414,78 L409,79 L393,78 L371,78 L363,79 L356,79 L349,80 L343,78 Z M756,495 L757,498 L759,498 L758,495 Z M127,534 L114,535 L111,537 L106,536 L101,535 L98,537 L77,535 L57,535 L44,537 L40,542 L40,559 L43,564 L52,566 L59,565 L61,564 L67,564 L71,566 L80,566 L86,567 L167,567 L180,565 L189,566 L196,567 L234,567 L243,566 L244,567 L285,567 L287,568 L309,567 L393,567 L407,566 L414,568 L452,567 L457,566 L468,568 L499,567 L566,568 L575,568 L582,569 L605,569 L612,568 L651,568 L666,567 L671,559 L671,544 L668,539 L667,538 L656,537 L632,536 L537,536 L521,537 L517,535 L509,535 L505,537 L499,536 L477,535 L462,535 L437,536 L429,535 L351,535 L344,536 L330,536 L323,535 L317,535 L310,534 L305,535 L288,534 L281,535 L262,536 L258,534 L248,535 L244,538 L239,537 L238,536 L229,535 L189,535 L182,534 L168,534 L159,536 L153,537 L150,534 L145,535 L143,537 L137,537 L132,534 Z M254,636 L233,637 L223,642 L211,653 L206,658 L194,669 L187,677 L184,680 L184,682 L180,684 L173,690 L166,698 L157,708 L152,715 L152,721 L156,727 L165,737 L170,742 L175,747 L187,760 L191,765 L196,770 L206,779 L212,784 L219,792 L228,799 L231,800 L247,800 L255,799 L258,796 L257,791 L249,780 L241,774 L227,760 L223,758 L219,752 L213,745 L212,738 L216,736 L261,734 L264,735 L297,736 L307,740 L311,745 L318,753 L326,758 L331,764 L336,769 L343,778 L353,786 L362,793 L374,800 L379,802 L400,801 L480,801 L491,794 L495,790 L503,783 L509,776 L515,768 L515,766 L519,764 L524,760 L529,755 L536,747 L540,741 L548,735 L554,728 L556,724 L556,716 L553,709 L544,698 L539,693 L529,685 L527,685 L525,680 L518,672 L509,664 L503,656 L501,656 L499,652 L491,644 L482,638 L469,638 L456,639 L453,641 L453,646 L461,653 L467,663 L476,671 L483,679 L493,689 L498,696 L497,701 L495,702 L469,703 L461,703 L455,704 L417,703 L410,703 L401,697 L392,688 L386,680 L379,671 L372,665 L367,662 L363,656 L358,651 L356,651 L354,647 L338,639 L332,636 L323,637 L314,637 L309,636 L297,636 L283,637 Z M13,730 L13,733 L16,732 L15,730 Z " fill="#000000" transform="translate(221,105)"/>
<path d="M0,0 L23,2 L27,4 L35,4 L47,7 L59,12 L69,21 L77,31 L81,43 L83,54 L83,71 L77,87 L71,96 L64,104 L58,108 L50,112 L44,116 L29,118 L18,120 L11,121 L-49,121 L-54,118 L-55,115 L-56,100 L-57,62 L-56,49 L-56,12 L-53,5 L-50,2 L-38,1 L-8,1 Z " fill="#000000" transform="translate(603,241)"/>
<path d="M0,0 Z " fill="#000000" transform="translate(37,738)"/>
<path d="M0,0 L48,0 L70,2 L78,8 L85,14 L92,22 L97,27 L108,39 L114,44 L119,50 L129,58 L140,65 L154,67 L168,67 L172,68 L233,68 L239,71 L239,77 L232,87 L222,95 L215,101 L210,104 L201,105 L162,105 L154,106 L149,105 L128,105 L119,101 L110,95 L103,85 L98,82 L91,74 L82,66 L75,58 L66,50 L61,45 L47,38 L21,38 L-16,37 L-21,38 L-32,38 L-38,37 L-44,37 L-47,35 L-46,28 L-40,21 L-35,16 L-27,6 L-20,2 L-16,1 Z " fill="#000000" transform="translate(480,771)"/>
<path d="M0,0 L7,1 L10,6 L16,16 L22,26 L30,39 L40,53 L44,52 L45,40 L45,15 L46,5 L49,1 L55,1 L57,3 L57,35 L56,44 L56,66 L54,78 L49,81 L44,80 L36,70 L31,60 L22,46 L15,36 L11,28 L7,26 L6,28 L6,44 L5,71 L2,78 L-4,79 L-6,76 L-6,14 L-3,2 Z " fill="#000000" transform="translate(72,1124)"/>
<path d="M0,0 L7,0 L14,1 L21,1 L34,3 L40,7 L45,15 L46,27 L43,36 L41,39 L42,47 L45,56 L46,71 L47,79 L44,82 L38,82 L34,79 L33,76 L32,62 L29,53 L25,49 L14,49 L8,50 L1,49 L-1,57 L-2,77 L-5,83 L-10,83 L-15,77 L-16,58 L-15,27 L-16,16 L-15,6 L-11,1 Z M4,12 L0,14 L-2,21 L-2,28 L0,34 L4,37 L13,38 L22,38 L33,30 L33,20 L28,14 L12,13 Z " fill="#000000" transform="translate(162,1123)"/>
<path d="M0,0 L37,0 L47,3 L54,11 L55,13 L55,23 L51,28 L50,37 L50,46 L53,52 L55,68 L57,75 L56,81 L51,81 L45,77 L41,54 L38,49 L29,46 L18,47 L17,48 L9,49 L8,50 L6,77 L2,80 L-3,78 L-6,70 L-5,50 L-4,13 L-3,4 Z M16,9 L9,14 L7,19 L7,31 L11,36 L23,37 L34,37 L39,34 L43,29 L44,20 L40,14 L35,11 L23,9 Z " fill="#000000" transform="translate(231,1125)"/>
</svg>
