<?xml version="1.0" encoding="UTF-8"?>
<!-- Generator: visioncortex VTracer 0.6.12 -->
<svg version="1.1" xmlns="http://www.w3.org/2000/svg" width="1110" height="1068">
<path d="M0,0 L341,0 L341,2 L353,3 L368,7 L381,10 L390,13 L405,20 L423,24 L428,29 L440,35 L447,38 L458,44 L467,50 L482,58 L492,66 L505,75 L517,84 L529,93 L543,107 L551,114 L562,127 L567,132 L579,146 L589,158 L604,180 L610,189 L620,207 L623,212 L631,227 L640,246 L649,270 L654,285 L659,301 L661,306 L664,320 L667,337 L671,367 L672,375 L673,399 L673,435 L671,451 L670,465 L665,490 L663,501 L658,519 L654,531 L645,557 L636,578 L629,590 L625,598 L615,617 L608,627 L601,638 L593,649 L590,653 L588,653 L586,658 L576,669 L568,679 L563,683 L556,691 L549,698 L541,705 L530,715 L521,722 L509,732 L499,739 L485,748 L464,760 L431,777 L424,781 L421,787 L420,836 L420,866 L419,929 L418,1040 L415,1045 L410,1048 L405,1050 L399,1049 L397,1045 L396,1019 L396,874 L397,789 L398,776 L401,769 L409,764 L422,760 L434,753 L450,746 L460,739 L471,733 L478,727 L485,724 L492,718 L505,708 L510,704 L521,696 L528,688 L535,683 L542,674 L548,670 L553,664 L562,653 L565,652 L567,647 L576,636 L580,630 L588,618 L592,613 L598,602 L606,588 L617,565 L622,555 L629,538 L632,527 L636,516 L638,507 L642,491 L646,471 L648,459 L651,424 L651,390 L648,353 L644,328 L637,298 L632,282 L625,264 L621,253 L617,245 L612,233 L600,210 L591,196 L584,185 L576,174 L568,163 L560,153 L550,142 L543,134 L536,127 L528,120 L515,107 L502,97 L489,87 L471,75 L461,69 L447,61 L431,53 L418,46 L410,43 L391,36 L381,31 L372,29 L359,25 L339,20 L325,18 L308,15 L292,13 L270,12 L202,12 L163,11 L23,11 L-10,10 L-11,6 L-6,3 Z " fill="#000000" transform="translate(335,0)"/>
<path d="M0,0 L20,0 L30,1 L37,0 L43,2 L128,2 L138,3 L222,3 L235,4 L321,4 L350,5 L354,6 L377,7 L384,9 L396,11 L416,15 L420,17 L431,19 L449,24 L454,27 L462,30 L469,33 L478,36 L501,48 L507,51 L534,67 L543,74 L552,81 L561,88 L570,95 L570,97 L574,99 L580,104 L585,108 L589,114 L596,120 L602,128 L610,136 L614,142 L621,149 L627,158 L631,163 L634,169 L643,183 L649,194 L661,215 L669,235 L674,246 L678,258 L681,263 L686,284 L689,299 L694,333 L696,351 L697,370 L694,418 L687,454 L681,476 L675,493 L670,505 L662,523 L658,533 L647,553 L641,561 L637,568 L629,580 L620,592 L612,601 L608,608 L601,614 L594,622 L589,627 L574,641 L563,650 L547,663 L536,670 L527,676 L518,682 L509,686 L489,697 L474,703 L458,710 L451,713 L446,718 L445,720 L444,734 L444,780 L442,969 L441,1019 L438,1026 L435,1028 L424,1028 L421,1025 L420,1019 L420,816 L421,746 L421,709 L424,701 L432,697 L448,692 L462,685 L472,681 L477,678 L482,673 L492,671 L506,663 L522,655 L535,645 L546,636 L557,627 L564,621 L569,616 L574,611 L576,611 L578,607 L587,597 L594,589 L602,579 L610,569 L622,551 L630,539 L638,523 L645,508 L650,498 L655,484 L663,459 L666,445 L669,431 L673,400 L674,381 L674,367 L672,334 L669,313 L665,292 L656,260 L647,236 L635,210 L628,198 L624,191 L619,185 L615,177 L607,166 L599,156 L595,150 L582,135 L574,127 L569,122 L563,117 L559,112 L551,105 L543,100 L533,92 L525,86 L515,79 L504,72 L486,62 L470,54 L460,51 L446,44 L417,35 L403,32 L392,30 L382,28 L378,27 L345,25 L319,24 L313,25 L245,24 L212,24 L179,23 L56,23 L-10,22 L-24,23 L-28,27 L-30,78 L-33,83 L-34,87 L-31,92 L-30,101 L-30,146 L-31,203 L-31,270 L-32,330 L-32,390 L-33,465 L-33,549 L-34,582 L-35,727 L-35,755 L-36,811 L-37,933 L-40,938 L-45,937 L-53,932 L-59,925 L-60,916 L-60,806 L-59,726 L-59,659 L-57,582 L-57,423 L-56,358 L-55,327 L-55,285 L-54,235 L-53,105 L-52,87 L-52,47 L-50,35 L-45,29 L-40,25 L-33,21 L-25,16 L-18,12 L-6,3 Z " fill="#000000" transform="translate(266,35)"/>
<path d="M0,0 L9,5 L20,12 L35,22 L47,30 L57,37 L65,43 L77,53 L85,60 L97,71 L105,78 L118,91 L120,95 L128,101 L134,109 L141,120 L149,131 L153,139 L160,151 L168,167 L176,182 L178,188 L183,199 L188,211 L197,238 L206,272 L208,283 L210,293 L213,313 L217,355 L218,387 L214,428 L209,460 L204,479 L200,495 L193,518 L188,532 L184,543 L175,560 L171,570 L161,589 L152,604 L141,621 L132,633 L126,642 L117,653 L105,669 L75,699 L67,706 L60,712 L52,719 L41,728 L31,735 L18,745 L1,756 L-14,764 L-25,771 L-34,777 L-36,781 L-37,787 L-38,809 L-38,887 L-39,896 L-39,931 L-40,982 L-43,989 L-48,993 L-54,996 L-60,995 L-62,992 L-64,981 L-63,945 L-62,916 L-63,894 L-62,874 L-62,809 L-61,770 L-58,765 L-49,758 L-32,749 L-23,745 L-13,738 L-2,731 L9,723 L18,717 L27,710 L35,704 L44,697 L60,682 L66,675 L74,668 L85,655 L94,644 L105,631 L112,621 L118,613 L132,591 L142,575 L150,557 L156,544 L164,526 L170,510 L177,489 L181,474 L183,463 L185,454 L189,435 L193,397 L193,347 L188,296 L181,264 L175,243 L171,230 L167,220 L163,207 L154,188 L144,169 L140,160 L125,135 L117,122 L111,115 L104,104 L95,93 L88,85 L87,82 L83,80 L83,78 L80,77 L73,68 L68,64 L64,58 L53,49 L48,43 L37,34 L24,23 L14,16 L2,7 L-1,4 Z " fill="#000000" transform="translate(841,36)"/>
<path d="M0,0 L96,0 L101,1 L193,1 L215,2 L309,2 L333,3 L343,3 L348,4 L371,6 L405,12 L423,17 L433,21 L444,24 L453,30 L466,35 L485,45 L501,55 L511,61 L520,68 L528,74 L541,85 L551,94 L558,101 L567,112 L579,126 L587,137 L598,154 L605,165 L616,188 L623,200 L628,216 L635,235 L640,256 L641,259 L643,274 L644,278 L646,309 L646,346 L642,381 L634,411 L628,429 L624,437 L619,450 L611,466 L601,484 L594,494 L585,507 L578,516 L567,530 L551,547 L540,558 L528,567 L519,574 L493,591 L482,598 L473,602 L448,614 L427,622 L411,626 L399,629 L396,632 L393,644 L393,754 L392,890 L391,908 L391,937 L390,976 L389,984 L370,984 L369,975 L369,966 L370,947 L369,922 L370,910 L369,873 L369,844 L370,833 L370,737 L371,622 L374,614 L377,612 L394,608 L399,605 L409,605 L414,602 L429,599 L445,591 L457,586 L473,578 L484,571 L495,565 L507,555 L518,548 L526,540 L534,533 L541,525 L549,517 L553,511 L558,506 L569,491 L580,475 L586,464 L591,454 L601,435 L607,418 L611,404 L614,395 L619,374 L624,334 L624,317 L623,310 L622,291 L620,280 L618,265 L613,244 L609,231 L604,215 L595,195 L590,185 L580,167 L571,153 L565,144 L558,136 L547,122 L542,118 L535,110 L528,103 L520,96 L504,83 L491,74 L476,65 L454,53 L440,46 L427,41 L423,39 L413,37 L398,33 L392,31 L369,27 L355,25 L327,24 L284,24 L179,23 L156,23 L141,22 L24,22 L19,26 L18,28 L17,37 L15,184 L14,347 L14,370 L13,415 L12,538 L12,592 L11,718 L10,788 L10,816 L9,910 L7,917 L5,919 L-2,918 L-8,914 L-12,908 L-13,904 L-14,873 L-13,734 L-12,711 L-12,659 L-11,595 L-11,499 L-10,416 L-10,332 L-9,317 L-8,274 L-7,152 L-6,72 L-5,54 L-5,17 L-4,4 Z " fill="#000000" transform="translate(268,84)"/>
<path d="M0,0 L4,1 L6,4 L6,101 L5,142 L5,179 L4,232 L4,288 L3,375 L3,405 L2,506 L1,566 L0,742 L-1,820 L-2,837 L-6,841 L-13,837 L-20,831 L-24,825 L-24,715 L-23,666 L-21,502 L-21,305 L-20,298 L-19,260 L-19,200 L-18,96 L-17,37 L-16,20 L-13,13 L-5,6 L-2,1 Z " fill="#000000" transform="translate(183,95)"/>
<path d="M0,0 L25,0 L100,1 L109,2 L113,1 L162,1 L198,2 L222,2 L230,3 L290,3 L307,5 L320,8 L330,10 L346,13 L360,18 L368,20 L390,29 L400,36 L418,46 L433,57 L441,64 L449,69 L454,74 L463,84 L471,91 L479,99 L485,107 L493,118 L505,137 L511,148 L521,167 L527,183 L530,192 L535,211 L537,219 L540,235 L542,252 L542,292 L539,321 L535,338 L529,357 L525,370 L520,381 L512,398 L503,413 L494,428 L488,435 L487,437 L485,437 L483,441 L473,454 L462,465 L460,465 L459,468 L454,471 L444,481 L435,488 L424,496 L411,504 L402,509 L375,523 L351,531 L330,537 L315,540 L300,542 L293,545 L291,547 L290,557 L289,600 L289,670 L288,785 L286,928 L285,937 L266,937 L265,929 L265,791 L266,755 L268,752 L268,747 L266,745 L266,651 L267,594 L267,572 L268,531 L270,526 L273,524 L297,522 L301,520 L310,520 L319,517 L329,517 L337,515 L343,512 L352,510 L364,505 L382,498 L390,494 L394,490 L400,487 L408,482 L418,476 L429,467 L437,460 L444,452 L448,447 L455,442 L457,439 L459,439 L461,435 L472,422 L480,411 L485,402 L490,394 L499,375 L503,365 L507,352 L512,338 L516,320 L520,294 L520,262 L518,239 L511,206 L508,197 L501,178 L494,163 L491,158 L488,151 L478,135 L469,123 L458,109 L435,86 L426,79 L416,71 L404,63 L392,56 L388,53 L374,46 L371,44 L358,40 L345,34 L333,31 L327,31 L325,33 L321,33 L318,28 L313,26 L288,23 L265,22 L221,22 L120,21 L16,21 L9,23 L7,38 L5,153 L5,215 L4,293 L3,334 L3,369 L2,474 L2,587 L1,615 L1,659 L0,719 L0,755 L-1,889 L-4,895 L-6,897 L-11,896 L-19,891 L-23,886 L-23,820 L-22,735 L-21,696 L-21,678 L-22,670 L-22,644 L-21,633 L-21,518 L-20,504 L-20,413 L-19,331 L-19,289 L-18,224 L-17,174 L-16,112 L-15,54 L-13,6 L-8,1 Z M-7,522 L-6,526 L-4,525 L-5,522 Z " fill="#000000" transform="translate(325,131)"/>
<path d="M0,0 L5,1 L6,2 L7,55 L6,181 L5,206 L5,262 L4,377 L3,428 L3,496 L2,558 L2,604 L1,704 L0,743 L-3,748 L-8,748 L-16,740 L-23,729 L-24,727 L-24,666 L-23,636 L-22,568 L-22,538 L-21,494 L-21,336 L-20,256 L-20,226 L-19,186 L-18,35 L-16,20 L-13,15 L-2,1 Z " fill="#000000" transform="translate(135,141)"/>
<path d="M0,0 L63,0 L77,1 L191,1 L204,2 L234,2 L255,3 L278,7 L285,8 L291,10 L300,12 L310,16 L326,22 L344,32 L360,43 L373,54 L381,60 L391,69 L398,76 L409,90 L415,97 L423,110 L427,118 L433,128 L440,143 L450,173 L454,197 L455,210 L455,245 L452,269 L444,297 L436,317 L428,333 L423,342 L414,355 L405,366 L399,374 L394,379 L389,385 L378,394 L367,403 L359,409 L351,414 L338,422 L323,430 L314,433 L303,437 L287,442 L277,444 L262,447 L229,450 L210,450 L206,451 L204,458 L203,505 L202,680 L202,722 L201,796 L201,817 L200,846 L200,872 L199,889 L178,889 L178,781 L179,686 L179,564 L180,486 L180,440 L182,432 L186,428 L201,427 L206,426 L209,427 L244,427 L258,425 L271,424 L284,420 L292,418 L304,414 L312,409 L324,405 L334,398 L339,394 L349,389 L360,380 L367,375 L374,367 L380,360 L387,354 L399,337 L412,314 L421,294 L425,280 L429,264 L431,250 L432,246 L432,207 L427,181 L422,163 L418,152 L413,140 L407,128 L398,114 L391,104 L382,94 L375,85 L367,77 L357,69 L351,64 L346,59 L329,49 L318,43 L309,38 L294,34 L290,32 L280,30 L268,27 L256,25 L230,23 L88,23 L59,22 L33,22 L19,23 L16,26 L15,28 L14,37 L13,121 L13,180 L12,192 L12,271 L11,333 L10,566 L9,635 L8,792 L7,861 L3,867 L-6,866 L-13,862 L-15,858 L-15,662 L-14,498 L-13,416 L-13,354 L-12,343 L-13,306 L-12,279 L-11,154 L-10,120 L-9,84 L-9,27 L-8,6 L-4,1 Z " fill="#000000" transform="translate(365,179)"/>
<path d="M0,0 L4,1 L6,4 L6,58 L5,143 L3,370 L3,412 L2,441 L2,499 L1,513 L1,543 L2,561 L2,574 L1,599 L1,625 L-1,628 L-7,627 L-11,622 L-18,610 L-22,600 L-23,558 L-22,545 L-21,479 L-20,460 L-20,449 L-21,444 L-21,371 L-20,351 L-19,245 L-19,70 L-18,29 L-14,19 L-10,14 L-2,2 Z " fill="#000000" transform="translate(87,201)"/>
<path d="M0,0 L52,1 L91,1 L162,2 L168,3 L194,3 L226,7 L233,10 L243,11 L258,19 L274,27 L284,33 L300,45 L307,53 L312,58 L319,66 L327,76 L334,86 L342,102 L347,112 L355,135 L358,150 L359,168 L359,197 L355,219 L350,236 L342,255 L336,265 L328,279 L320,289 L306,304 L299,312 L283,324 L276,329 L268,333 L266,335 L255,339 L239,345 L224,350 L212,353 L184,355 L124,355 L119,357 L114,356 L111,359 L110,361 L109,375 L108,408 L107,423 L106,462 L104,478 L104,540 L106,550 L106,687 L105,714 L104,760 L103,842 L81,842 L80,837 L80,827 L81,820 L80,787 L81,772 L81,582 L78,567 L76,564 L62,564 L59,576 L58,599 L58,623 L57,713 L56,756 L56,775 L55,837 L54,842 L33,842 L31,838 L31,820 L32,804 L31,791 L31,749 L32,738 L31,684 L31,666 L32,652 L32,624 L33,616 L32,600 L32,587 L29,572 L27,567 L14,567 L11,574 L10,580 L9,619 L9,649 L8,690 L8,741 L7,798 L7,827 L4,833 L1,835 L-8,834 L-13,831 L-16,822 L-15,643 L-15,442 L-14,407 L-14,353 L-13,292 L-13,247 L-12,219 L-12,185 L-11,98 L-11,80 L-10,71 L-10,44 L-9,8 L-3,1 Z M164,35 L163,40 L166,44 L171,43 L170,37 L168,35 Z M121,118 L114,120 L111,125 L110,128 L109,150 L109,226 L112,233 L120,236 L194,236 L206,230 L218,223 L225,217 L235,203 L238,194 L240,184 L240,174 L236,158 L232,148 L222,137 L217,132 L212,128 L202,122 L189,119 L152,119 Z M22,284 L21,288 L26,294 L28,293 L28,287 L25,284 Z " fill="#000000" transform="translate(413,226)"/>
<path d="M0,0 L3,1 L0,2 Z " fill="#000000" transform="translate(27,261)"/>
<path d="M0,0 L5,1 L6,8 L5,40 L3,255 L3,304 L1,418 L0,462 L-5,463 L-8,458 L-16,442 L-21,428 L-23,419 L-24,366 L-24,327 L-22,283 L-22,216 L-21,47 L-17,35 L-6,9 Z " fill="#000000" transform="translate(42,282)"/>
<path d="M0,0 L5,1 L10,11 L17,32 L20,41 L24,53 L29,71 L31,82 L31,133 L28,164 L23,196 L17,226 L10,253 L5,264 L-2,284 L-7,297 L-14,313 L-19,322 L-23,332 L-29,343 L-46,371 L-50,377 L-60,392 L-73,409 L-80,417 L-87,425 L-98,439 L-107,449 L-112,453 L-117,458 L-137,478 L-146,485 L-157,495 L-172,505 L-181,512 L-197,522 L-202,526 L-207,529 L-219,537 L-222,544 L-223,548 L-224,637 L-224,651 L-225,685 L-225,694 L-229,700 L-234,704 L-237,706 L-242,706 L-245,703 L-246,698 L-247,678 L-247,627 L-246,595 L-246,535 L-244,529 L-240,523 L-219,511 L-206,503 L-190,493 L-177,483 L-166,474 L-159,467 L-149,459 L-132,442 L-124,435 L-114,422 L-106,415 L-102,410 L-99,405 L-90,395 L-81,384 L-67,363 L-57,349 L-50,335 L-42,319 L-36,307 L-32,295 L-27,285 L-22,274 L-17,260 L-13,252 L-11,243 L-7,229 L0,200 L5,176 L10,123 L10,99 L8,59 L6,38 L3,25 L0,7 Z " fill="#000000" transform="translate(1073,302)"/>
<path d="M0,0 L1,0 L1,63 L-6,77 L-10,85 L-14,95 L-24,114 L-31,126 L-42,143 L-52,159 L-66,178 L-72,185 L-82,198 L-97,214 L-108,228 L-123,242 L-126,243 L-127,246 L-132,251 L-144,262 L-155,270 L-166,280 L-176,287 L-185,293 L-196,302 L-207,309 L-211,315 L-212,327 L-212,349 L-213,380 L-213,399 L-215,416 L-224,424 L-231,424 L-234,420 L-235,390 L-236,380 L-235,357 L-234,307 L-231,300 L-215,289 L-201,279 L-192,274 L-184,267 L-176,261 L-172,259 L-170,255 L-160,247 L-146,236 L-141,231 L-132,222 L-125,213 L-118,206 L-113,201 L-105,191 L-96,183 L-89,172 L-82,164 L-74,153 L-65,141 L-61,133 L-55,125 L-49,113 L-42,103 L-31,80 L-24,64 L-19,55 L-16,45 L-10,28 L-5,14 L-1,1 Z " fill="#000000" transform="translate(1109,554)"/>
<path d="M0,0 L4,1 L3,9 L-6,29 L-12,41 L-23,61 L-28,70 L-33,76 L-44,85 L-51,93 L-59,100 L-65,106 L-67,106 L-67,108 L-78,117 L-88,126 L-99,135 L-108,141 L-123,152 L-129,164 L-130,171 L-130,191 L-133,198 L-141,206 L-144,208 L-149,208 L-150,207 L-153,181 L-153,151 L-149,145 L-140,139 L-133,135 L-126,130 L-124,130 L-124,128 L-116,122 L-112,118 L-107,115 L-94,104 L-79,91 L-66,78 L-64,78 L-62,74 L-52,58 L-42,52 L-37,47 L-28,37 L-21,28 L-11,15 L-4,5 Z " fill="#000000" transform="translate(1074,734)"/>
</svg>
