<?xml version="1.0" encoding="UTF-8"?>
<!-- Generator: visioncortex VTracer 0.6.12 -->
<svg version="1.1" xmlns="http://www.w3.org/2000/svg" width="1104" height="1092">
<path d="M0,0 L4,1 L7,1 L22,0 L39,0 L45,1 L51,0 L64,1 L69,0 L73,2 L79,1 L91,2 L95,0 L100,1 L101,5 L103,5 L104,1 L109,2 L109,4 L113,3 L118,2 L122,3 L124,1 L131,2 L136,1 L140,4 L145,4 L145,636 L137,636 L137,641 L145,640 L145,1063 L142,1063 L142,1065 L145,1065 L145,1090 L142,1090 L142,1088 L135,1088 L135,1090 L112,1090 L108,1088 L108,1090 L103,1090 L103,1086 L101,1087 L100,1090 L82,1090 L82,1088 L79,1090 L75,1090 L75,1088 L72,1090 L67,1090 L67,1088 L61,1088 L61,1090 L55,1090 L53,1090 L46,1090 L45,1088 L43,1088 L42,1090 L37,1090 L36,1086 L31,1087 L26,1089 L25,1090 L19,1090 L17,1088 L12,1088 L11,1090 L8,1090 L6,1087 L-17,1087 L-24,1089 L-29,1088 L-30,1087 L-36,1087 L-37,1090 L-48,1090 L-48,1088 L-55,1089 L-59,1090 L-64,1088 L-73,1087 L-80,1088 L-82,1088 L-83,1090 L-159,1090 L-163,1090 L-169,1090 L-173,1090 L-207,1090 L-207,1088 L-211,1090 L-265,1090 L-268,1088 L-268,1090 L-284,1090 L-286,1090 L-294,1090 L-295,1088 L-298,1088 L-299,1090 L-304,1090 L-305,1087 L-311,1088 L-316,1087 L-318,1090 L-511,1090 L-511,1088 L-514,1090 L-608,1090 L-610,1090 L-959,1090 L-959,535 L-959,533 L-959,525 L-959,523 L-959,517 L-957,516 L-957,514 L-959,513 L-959,497 L-959,495 L-959,488 L-957,488 L-957,485 L-959,485 L-959,478 L-957,478 L-957,476 L-959,476 L-959,470 L-959,466 L-959,460 L-957,457 L-959,457 L-959,450 L-956,447 L-959,447 L-959,441 L-953,436 L-954,432 L-959,427 L-959,422 L-955,421 L-956,419 L-959,418 L-959,403 L-956,403 L-957,400 L-959,399 L-959,393 L-957,392 L-957,390 L-959,389 L-959,384 L-956,383 L-957,380 L-959,379 L-959,375 L-956,375 L-957,371 L-959,370 L-959,365 L-957,364 L-957,361 L-959,360 L-958,356 L-956,353 L-956,351 L-959,350 L-959,347 L-956,345 L-955,342 L-959,341 L-959,337 L-956,335 L-955,332 L-959,331 L-959,328 L-956,326 L-955,323 L-959,322 L-959,319 L-955,316 L-955,314 L-958,312 L-957,307 L-955,307 L-958,302 L-958,299 L-956,297 L-957,293 L-958,290 L-955,287 L-956,283 L-956,279 L-957,271 L-955,267 L-959,263 L-956,260 L-957,252 L-955,250 L-956,242 L-954,237 L-957,236 L-956,231 L-953,230 L-953,227 L-956,226 L-955,218 L-956,215 L-953,212 L-955,207 L-955,193 L-954,190 L-956,185 L-952,184 L-953,180 L-956,178 L-955,174 L-953,174 L-956,169 L-955,164 L-953,163 L-953,161 L-955,160 L-954,151 L-956,147 L-954,145 L-955,140 L-956,138 L-953,135 L-954,131 L-956,128 L-953,125 L-954,122 L-956,121 L-956,118 L-953,116 L-952,113 L-956,112 L-955,108 L-951,104 L-955,102 L-956,98 L-956,81 L-952,77 L-951,74 L-955,73 L-954,69 L-952,68 L-952,65 L-954,64 L-953,59 L-953,55 L-955,52 L-951,46 L-954,45 L-953,40 L-951,39 L-953,35 L-954,32 L-951,31 L-954,25 L-955,24 L-955,12 L-956,8 L-952,8 L-943,7 L-926,7 L-921,8 L-912,8 L-906,7 L-904,9 L-893,8 L-889,7 L-886,10 L-878,9 L-869,8 L-867,10 L-863,9 L-859,9 L-850,7 L-846,6 L-846,8 L-839,6 L-836,5 L-836,8 L-823,7 L-820,5 L-815,6 L-810,9 L-801,7 L-800,5 L-797,5 L-796,9 L-788,10 L-781,9 L-773,10 L-769,12 L-764,8 L-760,7 L-753,6 L-749,5 L-744,7 L-741,6 L-739,7 L-727,7 L-725,5 L-719,5 L-718,7 L-707,7 L-704,5 L-695,6 L-692,6 L-688,7 L-683,6 L-653,6 L-648,7 L-644,6 L-640,7 L-636,5 L-629,6 L-614,6 L-608,7 L-599,6 L-595,4 L-589,5 L-585,7 L-564,7 L-557,6 L-532,7 L-527,3 L-518,5 L-508,6 L-506,7 L-497,7 L-487,5 L-481,6 L-474,5 L-470,8 L-465,7 L-461,4 L-410,4 L-404,5 L-401,4 L-363,4 L-347,5 L-336,5 L-329,2 L-316,3 L-312,6 L-305,5 L-270,5 L-260,3 L-256,1 L-243,1 L-237,2 L-233,1 L-231,3 L-221,2 L-214,1 L-209,3 L-175,3 L-164,4 L-157,6 L-147,3 L-141,4 L-138,3 L-107,3 L-103,4 L-98,3 L-94,4 L-91,2 L-81,2 L-77,4 L-71,3 L-66,4 L-62,3 L-55,4 L-36,4 L-31,3 L-24,4 L-20,1 L-13,2 L-5,2 Z M116,7 L116,9 L118,8 Z M49,8 Z M-144,11 Z M61,11 Z M-943,18 L-944,20 L-942,20 Z M-31,20 Z M33,30 L32,33 L35,33 L35,30 Z M-808,34 L-811,37 L-811,40 L-806,38 L-805,35 Z M-2,43 L-1,45 L1,45 L1,43 Z M-523,64 L-526,67 L-525,70 L-519,71 L-517,67 L-520,64 Z M-947,71 Z M-897,89 L-899,92 L-898,93 L-893,93 L-893,89 Z M-920,99 L-920,101 L-918,101 L-918,99 Z M-368,101 Z M-924,103 L-924,106 L-921,106 L-921,103 Z M-420,106 L-421,108 L-419,108 Z M-275,107 L-277,110 L-275,112 L-271,111 L-273,107 Z M-382,108 L-383,110 L-381,110 Z M-391,116 L-392,119 L-388,118 L-389,116 Z M-336,117 L-335,119 L-334,117 Z M-940,119 L-940,122 L-937,121 L-938,119 Z M-404,124 L-403,127 L-400,127 L-400,125 Z M-356,125 L-355,128 L-353,126 Z M89,126 L89,129 L92,129 L92,126 Z M14,127 L15,129 Z M-550,128 L-550,131 L-543,132 L-542,128 Z M-39,129 L-40,131 L-37,130 Z M-295,130 L-296,133 L-293,133 L-293,130 Z M-897,139 Z M-346,137 L-352,141 L-356,143 L-357,139 L-361,141 L-364,143 L-371,142 L-382,139 L-406,139 L-409,141 L-419,140 L-448,140 L-452,140 L-455,139 L-457,140 L-476,140 L-479,141 L-487,138 L-491,139 L-496,139 L-499,141 L-504,140 L-513,140 L-521,141 L-530,141 L-530,139 L-532,138 L-544,138 L-547,140 L-550,138 L-554,139 L-556,140 L-562,138 L-567,139 L-578,140 L-583,139 L-586,141 L-585,145 L-583,146 L-583,150 L-587,152 L-582,159 L-585,161 L-584,165 L-581,166 L-581,169 L-585,170 L-584,175 L-584,178 L-587,181 L-585,185 L-583,185 L-586,190 L-585,193 L-582,194 L-582,198 L-585,200 L-585,203 L-583,204 L-583,208 L-585,209 L-584,217 L-585,221 L-584,226 L-586,228 L-585,236 L-587,237 L-586,241 L-585,246 L-586,249 L-585,255 L-587,258 L-584,262 L-583,265 L-587,266 L-585,270 L-583,274 L-586,275 L-585,283 L-588,286 L-588,288 L-584,289 L-586,294 L-588,297 L-585,300 L-586,306 L-585,312 L-587,316 L-585,318 L-586,323 L-586,327 L-585,331 L-587,333 L-587,336 L-585,337 L-586,344 L-585,350 L-586,355 L-586,359 L-588,361 L-588,364 L-585,367 L-585,370 L-588,371 L-587,375 L-585,376 L-587,380 L-588,384 L-585,387 L-588,390 L-587,394 L-587,398 L-588,402 L-586,404 L-586,408 L-588,409 L-588,412 L-585,415 L-586,418 L-588,419 L-587,423 L-585,426 L-587,430 L-586,435 L-588,437 L-587,442 L-587,445 L-589,449 L-585,452 L-587,457 L-586,465 L-588,467 L-588,470 L-586,471 L-586,484 L-587,489 L-586,493 L-589,494 L-588,498 L-586,502 L-588,504 L-587,510 L-590,514 L-588,518 L-586,518 L-589,523 L-588,528 L-587,531 L-589,534 L-588,538 L-585,544 L-586,553 L-588,553 L-590,565 L-587,568 L-587,571 L-589,573 L-588,579 L-590,581 L-589,585 L-588,589 L-589,593 L-588,597 L-592,600 L-590,604 L-590,608 L-588,613 L-589,617 L-590,622 L-589,627 L-591,631 L-589,633 L-590,640 L-588,645 L-593,648 L-591,651 L-588,652 L-587,655 L-591,656 L-590,661 L-587,664 L-592,666 L-591,670 L-589,671 L-589,673 L-592,675 L-592,678 L-588,679 L-589,684 L-592,686 L-591,690 L-589,691 L-590,698 L-589,703 L-590,708 L-589,713 L-591,717 L-589,720 L-589,722 L-592,723 L-593,726 L-589,728 L-587,736 L-590,741 L-594,743 L-594,746 L-590,748 L-591,751 L-593,752 L-592,757 L-590,757 L-593,761 L-592,765 L-591,770 L-594,774 L-592,777 L-593,784 L-591,786 L-590,790 L-593,791 L-591,796 L-591,807 L-592,813 L-590,814 L-589,819 L-591,822 L-591,831 L-590,836 L-592,841 L-590,846 L-589,850 L-591,855 L-594,857 L-593,862 L-592,864 L-595,868 L-594,871 L-592,872 L-593,875 L-596,877 L-596,880 L-592,881 L-592,885 L-596,887 L-594,891 L-593,895 L-596,896 L-594,900 L-592,904 L-596,906 L-596,909 L-592,910 L-592,915 L-594,915 L-593,919 L-592,923 L-600,930 L-599,934 L-597,934 L-597,937 L-601,939 L-600,942 L-597,944 L-598,948 L-598,952 L-596,958 L-594,958 L-595,967 L-594,968 L-587,967 L-583,964 L-579,963 L-577,967 L-570,968 L-564,967 L-550,968 L-545,964 L-541,965 L-537,967 L-536,964 L-528,966 L-523,962 L-512,959 L-511,954 L-512,950 L-509,948 L-509,944 L-512,941 L-509,939 L-510,935 L-512,935 L-511,930 L-509,926 L-512,925 L-511,920 L-508,919 L-510,915 L-511,911 L-509,908 L-512,904 L-510,900 L-509,896 L-511,892 L-509,887 L-511,883 L-510,877 L-512,872 L-511,863 L-510,859 L-511,854 L-508,852 L-509,848 L-511,845 L-508,842 L-508,839 L-511,836 L-508,832 L-510,828 L-511,826 L-509,823 L-509,820 L-511,820 L-509,814 L-508,810 L-511,809 L-511,806 L-507,802 L-511,797 L-508,794 L-509,790 L-510,789 L-511,779 L-509,773 L-510,768 L-507,766 L-509,759 L-509,757 L-506,756 L-507,753 L-509,752 L-509,748 L-506,747 L-506,744 L-508,743 L-507,734 L-508,733 L-508,728 L-508,724 L-508,720 L-505,716 L-508,712 L-507,707 L-509,705 L-509,701 L-506,699 L-507,695 L-507,691 L-507,687 L-508,681 L-507,677 L-508,670 L-508,664 L-506,661 L-507,653 L-505,651 L-505,647 L-508,644 L-505,642 L-506,637 L-506,633 L-506,624 L-505,620 L-507,618 L-507,613 L-506,611 L-508,605 L-506,603 L-507,596 L-505,595 L-506,590 L-507,587 L-504,585 L-506,581 L-508,578 L-503,575 L-504,571 L-506,571 L-505,565 L-505,562 L-507,561 L-507,556 L-501,558 L-497,559 L-492,554 L-487,553 L-484,554 L-482,552 L-477,553 L-474,554 L-450,554 L-447,555 L-443,553 L-426,554 L-422,553 L-417,554 L-411,554 L-407,555 L-401,554 L-397,555 L-393,554 L-391,555 L-382,555 L-378,556 L-373,555 L-367,554 L-359,551 L-359,553 L-347,553 L-342,556 L-332,555 L-330,552 L-323,555 L-316,554 L-311,553 L-309,554 L-302,551 L-291,551 L-286,552 L-281,553 L-275,554 L-264,552 L-260,554 L-250,554 L-247,556 L-241,555 L-237,551 L-234,550 L-233,553 L-230,553 L-229,551 L-224,550 L-222,554 L-216,551 L-210,552 L-198,550 L-196,549 L-196,547 L-191,547 L-187,548 L-180,542 L-175,540 L-166,538 L-160,532 L-161,524 L-157,522 L-147,510 L-147,508 L-143,506 L-140,504 L-141,495 L-135,489 L-136,485 L-138,481 L-134,479 L-135,475 L-137,473 L-134,470 L-133,459 L-136,456 L-134,451 L-135,447 L-136,443 L-130,438 L-129,434 L-132,432 L-130,427 L-131,419 L-129,418 L-130,413 L-132,413 L-132,406 L-133,405 L-134,394 L-134,386 L-134,382 L-136,377 L-133,375 L-134,371 L-136,368 L-133,365 L-133,362 L-136,360 L-136,358 L-133,356 L-134,352 L-136,351 L-135,347 L-134,343 L-136,343 L-136,337 L-133,336 L-134,332 L-136,329 L-133,327 L-133,323 L-136,320 L-133,318 L-133,314 L-136,311 L-132,307 L-133,304 L-135,302 L-133,299 L-134,295 L-135,290 L-133,289 L-134,284 L-135,281 L-132,278 L-135,274 L-135,272 L-132,270 L-134,266 L-133,261 L-133,257 L-135,254 L-132,251 L-134,247 L-133,238 L-135,233 L-136,228 L-134,223 L-134,218 L-137,213 L-137,206 L-139,203 L-139,199 L-136,197 L-138,193 L-143,188 L-143,185 L-141,184 L-142,180 L-145,175 L-145,167 L-153,158 L-158,153 L-165,148 L-176,145 L-186,146 L-189,140 L-195,140 L-198,141 L-203,140 L-209,141 L-218,141 L-227,140 L-233,139 L-242,141 L-250,140 L-264,138 L-274,139 L-299,139 L-308,140 L-327,138 L-332,141 L-337,141 L-342,137 Z M64,140 L63,144 L68,143 L69,140 Z M-784,159 L-784,162 L-780,161 L-781,159 Z M-615,159 L-616,162 L-613,161 L-613,159 Z M-923,161 L-922,164 L-919,163 L-919,161 Z M32,165 L31,167 L35,166 Z M69,175 L69,178 L72,177 L72,175 Z M124,176 L123,179 L126,179 L126,176 Z M-897,185 L-897,187 L-894,186 Z M122,189 L122,192 L124,192 L123,189 Z M-931,214 L-930,216 Z M-134,220 Z M-936,229 L-940,232 L-938,236 L-933,237 L-930,233 L-933,229 Z M99,233 Z M-945,240 L-948,242 L-947,246 L-944,248 L-942,247 L-943,241 Z M98,278 Z M-798,283 L-799,285 L-796,285 L-796,283 Z M140,314 Z M-649,319 L-648,321 Z M116,328 Z M-645,343 L-645,345 L-642,345 L-642,343 Z M-608,343 L-608,345 L-606,345 L-606,343 Z M-124,352 L-124,355 L-120,354 L-120,352 Z M111,352 L109,354 L110,358 L113,360 L117,359 L118,354 L116,352 Z M-741,359 Z M-121,380 L-124,383 L-120,383 Z M-780,382 L-783,383 L-782,387 L-777,386 L-779,382 Z M-680,395 L-681,397 L-679,397 Z M-851,400 L-852,403 L-849,403 L-849,400 Z M-675,400 L-676,402 L-673,402 L-673,400 Z M-57,402 Z M-652,413 L-653,415 L-650,414 Z M-656,417 L-657,420 L-654,420 L-654,417 Z M-668,466 L-667,470 L-664,469 L-664,466 Z M-762,489 L-763,492 L-761,492 Z M-642,499 L-643,501 L-640,501 L-640,499 Z M-84,503 Z M-596,538 L-596,540 L-594,540 L-594,538 Z M131,547 L131,550 L135,549 L135,547 Z M-847,565 Z M-772,578 Z M-356,578 L-356,581 L-354,579 Z M-807,591 L-806,593 Z M-704,596 Z M-847,613 L-850,616 L-848,620 L-844,621 L-840,618 L-841,614 Z M-833,638 L-836,639 L-836,643 L-829,644 L-827,640 L-830,638 Z M-62,668 Z M-838,678 L-837,681 L-837,678 Z M-684,679 L-684,681 L-682,681 L-682,679 Z M-861,693 Z M-767,700 L-773,703 L-772,707 L-768,709 L-765,705 L-766,700 Z M-315,701 L-318,703 L-317,707 L-312,708 L-309,705 L-311,701 Z M-278,712 Z M-291,723 Z M-84,724 L-87,727 L-83,728 L-81,724 Z M-772,739 L-773,742 L-769,741 L-769,739 Z M-767,741 L-767,743 L-765,743 L-765,741 Z M-643,764 L-642,766 Z M-331,770 Z M-499,775 L-499,777 L-497,777 L-497,775 Z M-955,793 Z M128,794 L128,797 L130,797 L129,794 Z M-783,805 L-783,809 L-779,808 L-780,805 Z M-194,836 Z M-128,848 L-130,851 L-127,854 L-123,853 L-121,849 L-122,848 Z M131,848 Z M-383,858 L-383,862 L-380,860 L-380,858 Z M35,869 L32,871 L33,874 L37,874 L38,871 Z M-896,873 L-896,875 L-893,875 L-893,873 Z M-440,875 Z M-262,889 L-261,893 L-259,890 Z M-382,893 Z M-215,900 L-214,902 Z M-12,923 L-13,926 L-9,926 L-10,923 Z M-480,935 L-480,939 L-475,940 L-472,938 L-473,935 Z M-432,955 L-433,958 L-431,961 L-426,960 L-426,956 L-427,955 Z M15,972 Z M15,981 L14,983 L17,982 Z M24,990 L20,994 L20,997 L22,997 L23,995 L27,994 L26,990 Z M9,1016 Z M98,1024 L98,1027 L100,1027 L100,1024 Z M-96,1027 L-96,1030 L-94,1032 L-93,1030 L-94,1027 Z M-779,1029 L-780,1031 L-778,1031 Z M20,1032 L19,1037 L23,1037 L23,1032 Z M138,1036 Z M-927,1042 Z M-112,1043 L-111,1046 L-108,1045 L-109,1043 Z M0,1045 L1,1048 L5,1049 L4,1045 Z M-886,1047 L-886,1049 L-884,1049 L-884,1047 Z M-182,1052 Z M-904,1056 L-903,1059 L-901,1057 Z M-14,1056 L-15,1059 L-12,1058 L-12,1056 Z M-203,1061 L-206,1065 L-206,1068 L-204,1069 L-197,1069 L-196,1068 L-196,1063 L-198,1061 Z M-679,1063 L-677,1065 L-677,1063 Z M-921,1063 L-925,1065 L-924,1067 L-920,1066 L-919,1063 Z M-901,1065 L-901,1067 L-899,1067 L-899,1065 Z M-710,1067 L-712,1068 L-711,1072 L-707,1073 L-706,1069 Z M-265,1068 Z M-756,1072 L-756,1074 L-754,1073 Z M-248,1072 L-250,1073 L-250,1076 L-243,1075 L-244,1072 Z M-67,1072 Z M38,1072 L39,1074 L40,1072 Z M-350,1073 L-352,1076 L-349,1079 L-344,1080 L-342,1076 L-348,1073 Z M-105,1073 L-105,1075 L-103,1075 L-103,1073 Z M-826,1075 L-827,1077 L-824,1077 L-824,1075 Z M-933,1076 Z M-742,1076 Z M-35,1076 Z M-862,1081 Z M-651,1082 L-652,1084 L-649,1084 L-649,1082 Z M104,1082 L105,1084 Z M-780,1083 L-782,1086 L-778,1084 Z M-615,1084 L-614,1087 L-610,1088 L-611,1084 Z M-867,1085 L-867,1087 L-865,1087 L-865,1085 Z " fill="#000000" transform="translate(959,2)"/>
<path d="M0,0 L4,1 L8,2 L21,1 L26,2 L35,3 L41,2 L53,4 L59,5 L64,5 L66,2 L70,3 L75,7 L112,7 L119,8 L126,8 L131,7 L136,8 L146,6 L151,5 L155,4 L158,5 L161,3 L166,3 L171,6 L180,8 L185,8 L192,5 L206,5 L210,2 L214,3 L219,4 L223,5 L227,7 L229,4 L234,5 L235,8 L249,8 L252,8 L256,9 L263,15 L269,14 L270,17 L274,19 L276,22 L272,24 L274,28 L281,36 L278,39 L279,43 L280,47 L278,48 L279,52 L281,56 L283,66 L285,70 L283,72 L284,76 L285,79 L283,82 L284,86 L284,90 L281,94 L285,96 L285,100 L283,101 L284,105 L285,109 L282,111 L284,115 L284,119 L282,120 L282,123 L285,125 L284,129 L282,129 L282,133 L285,136 L283,139 L284,146 L281,150 L285,155 L287,158 L287,161 L285,162 L283,170 L284,176 L280,178 L282,182 L282,186 L281,190 L283,191 L282,195 L281,198 L283,200 L283,206 L280,208 L281,214 L280,215 L280,220 L280,224 L280,228 L282,229 L281,234 L279,234 L278,238 L276,242 L277,247 L275,249 L273,255 L266,267 L255,271 L245,271 L240,272 L240,274 L234,274 L230,276 L220,275 L216,276 L213,275 L207,276 L192,275 L183,277 L174,277 L168,275 L162,276 L158,279 L143,280 L127,280 L122,278 L120,279 L96,279 L90,277 L85,278 L77,279 L72,278 L55,279 L44,278 L39,279 L31,279 L24,278 L19,278 L14,273 L6,274 L3,271 L1,265 L1,254 L2,249 L0,248 L1,244 L2,241 L0,239 L0,234 L1,232 L0,230 L0,224 L2,224 L2,222 L0,222 L-1,218 L2,215 L3,212 L0,211 L1,206 L1,202 L2,193 L-1,191 L0,187 L2,183 L-1,180 L1,177 L0,169 L1,164 L0,160 L2,158 L1,153 L0,151 L1,149 L3,149 L1,144 L1,140 L3,138 L3,135 L0,132 L2,130 L2,127 L-1,124 L0,121 L3,119 L4,116 L0,115 L1,112 L3,111 L2,107 L0,102 L1,99 L-4,91 L-2,86 L-1,84 L-2,80 L0,75 L0,59 L1,49 L1,36 L0,29 L0,20 L3,13 L1,12 L-1,6 L-1,1 Z M251,77 L250,79 L252,79 Z M101,89 Z M249,162 L249,164 L252,163 Z M251,171 L252,175 L255,175 L254,171 Z M29,220 L32,223 L33,220 Z " fill="#000000" transform="translate(459,205)"/>
</svg>
