<?xml version="1.0" encoding="UTF-8"?>
<!-- Generator: visioncortex VTracer 0.6.12 -->
<svg version="1.1" xmlns="http://www.w3.org/2000/svg" width="1128" height="1113">
<path d="M0,0 L23,0 L26,3 L29,0 L150,0 L151,1 L169,2 L171,3 L171,5 L183,6 L190,8 L207,10 L213,13 L220,13 L223,15 L234,17 L238,19 L246,19 L254,24 L260,23 L261,26 L266,28 L272,32 L280,32 L284,35 L289,37 L297,39 L302,42 L313,45 L320,50 L334,55 L340,59 L347,61 L358,68 L371,73 L376,77 L377,80 L383,82 L387,85 L395,89 L402,92 L407,97 L418,104 L423,109 L431,109 L433,113 L440,119 L441,122 L446,125 L456,133 L461,138 L466,142 L471,147 L480,155 L485,161 L486,163 L490,165 L495,170 L500,175 L500,177 L505,179 L512,186 L514,187 L517,192 L519,194 L519,197 L523,198 L525,201 L529,203 L533,207 L533,213 L537,215 L547,228 L552,233 L556,238 L559,244 L561,245 L563,251 L569,258 L570,267 L570,269 L577,267 L576,272 L579,277 L583,280 L585,290 L590,296 L593,301 L595,306 L601,316 L604,319 L605,326 L607,331 L612,336 L613,340 L612,345 L615,350 L615,352 L617,352 L620,366 L628,379 L629,380 L631,395 L633,395 L636,404 L636,410 L640,409 L640,411 L638,411 L643,424 L643,430 L645,432 L646,441 L649,453 L651,456 L651,466 L653,466 L653,664 L652,665 L652,670 L653,673 L650,676 L647,691 L645,696 L643,704 L639,718 L638,723 L638,726 L633,736 L631,746 L628,751 L625,761 L621,769 L617,781 L612,789 L607,800 L600,812 L596,823 L587,837 L584,843 L576,856 L569,867 L563,875 L556,885 L549,895 L543,903 L530,918 L522,927 L515,935 L507,943 L504,948 L499,953 L495,955 L492,955 L491,960 L486,966 L481,969 L476,975 L467,982 L460,990 L452,994 L446,1001 L441,1003 L441,1005 L430,1013 L422,1019 L416,1023 L410,1028 L393,1038 L388,1042 L379,1047 L371,1051 L364,1055 L357,1058 L352,1062 L341,1066 L329,1072 L319,1076 L303,1083 L296,1085 L289,1089 L280,1091 L268,1096 L265,1098 L255,1098 L250,1101 L242,1103 L237,1105 L228,1107 L219,1108 L214,1110 L204,1111 L204,1113 L-28,1113 L-37,1110 L-53,1107 L-64,1103 L-80,1100 L-83,1098 L-92,1096 L-99,1093 L-116,1088 L-129,1084 L-132,1081 L-145,1075 L-155,1071 L-171,1064 L-176,1061 L-183,1056 L-195,1052 L-200,1048 L-207,1045 L-211,1041 L-221,1036 L-230,1029 L-244,1020 L-255,1012 L-260,1009 L-271,999 L-281,992 L-293,981 L-306,971 L-313,964 L-316,959 L-325,952 L-336,940 L-341,935 L-346,929 L-350,923 L-355,918 L-363,908 L-376,892 L-381,883 L-384,881 L-387,875 L-391,870 L-397,860 L-400,854 L-406,847 L-415,830 L-418,821 L-421,818 L-425,810 L-427,804 L-430,801 L-434,791 L-436,785 L-439,782 L-444,770 L-448,760 L-450,752 L-454,745 L-456,736 L-460,728 L-463,721 L-470,693 L-472,685 L-475,677 L-475,445 L-473,444 L-471,436 L-470,423 L-467,418 L-467,409 L-466,407 L-464,407 L-462,402 L-461,397 L-462,393 L-458,386 L-457,379 L-455,377 L-452,370 L-452,364 L-450,364 L-448,359 L-446,357 L-445,348 L-443,344 L-439,336 L-435,325 L-432,321 L-430,317 L-428,309 L-424,304 L-421,297 L-419,291 L-417,287 L-413,285 L-411,280 L-403,268 L-399,258 L-389,244 L-386,239 L-381,234 L-381,228 L-375,223 L-372,218 L-367,213 L-359,205 L-352,197 L-350,197 L-348,193 L-340,182 L-332,175 L-317,159 L-308,151 L-302,144 L-297,139 L-292,134 L-290,134 L-288,130 L-281,124 L-279,124 L-279,121 L-273,118 L-273,114 L-271,115 L-271,118 L-265,115 L-257,108 L-254,104 L-251,103 L-250,101 L-244,99 L-238,95 L-231,89 L-222,87 L-221,84 L-222,80 L-216,80 L-208,75 L-204,71 L-198,69 L-190,65 L-182,59 L-179,60 L-172,56 L-167,53 L-157,49 L-152,49 L-151,46 L-142,44 L-138,40 L-125,37 L-123,33 L-109,32 L-108,29 L-101,28 L-93,23 L-85,22 L-80,18 L-71,17 L-67,13 L-59,13 L-58,12 L-44,10 L-41,7 L-39,10 L-34,8 L-33,6 L-20,5 L-17,4 L-12,4 L-10,2 L-1,1 Z M37,118 L28,121 L16,122 L10,122 L6,125 L-9,126 L-19,130 L-36,134 L-40,136 L-50,138 L-63,142 L-69,145 L-78,148 L-92,154 L-104,159 L-120,167 L-141,178 L-152,185 L-161,191 L-166,195 L-167,199 L-164,204 L-157,213 L-135,235 L-130,240 L-122,250 L-118,253 L-116,253 L-114,258 L-103,270 L-94,280 L-86,287 L-79,295 L-68,307 L-64,308 L-62,312 L-53,322 L-48,328 L-41,334 L-38,338 L-36,338 L-35,341 L-30,346 L-25,351 L-21,358 L-18,358 L-17,362 L-12,363 L-12,365 L-8,367 L-6,371 L-1,373 L4,378 L7,380 L10,385 L15,388 L19,394 L22,394 L23,399 L28,400 L28,404 L30,404 L32,409 L36,409 L37,414 L40,419 L45,424 L47,424 L49,429 L54,435 L58,437 L63,445 L68,444 L72,443 L78,448 L78,457 L81,458 L83,462 L92,470 L94,473 L96,473 L98,477 L107,487 L113,491 L118,500 L121,503 L123,503 L125,508 L131,512 L134,519 L148,533 L150,533 L151,536 L157,540 L170,553 L173,556 L175,556 L176,560 L179,562 L182,567 L187,572 L193,577 L197,581 L202,590 L207,594 L212,599 L217,606 L225,613 L233,622 L239,627 L244,633 L247,636 L253,640 L257,645 L262,650 L267,655 L274,665 L279,669 L282,676 L286,680 L291,683 L299,693 L303,697 L311,704 L313,704 L315,708 L320,713 L328,720 L334,727 L341,733 L343,733 L345,737 L353,746 L357,748 L361,752 L364,758 L367,763 L369,763 L370,767 L373,767 L375,771 L378,773 L381,773 L383,779 L390,787 L394,791 L396,791 L398,796 L404,803 L406,803 L408,807 L412,807 L414,812 L417,814 L418,818 L425,823 L428,830 L432,833 L437,831 L440,828 L440,826 L444,824 L452,813 L455,809 L457,804 L459,803 L460,797 L463,796 L464,793 L468,789 L470,785 L475,780 L477,774 L478,769 L478,767 L481,766 L484,761 L486,758 L487,751 L491,749 L493,742 L497,736 L497,730 L500,725 L503,718 L504,714 L505,708 L509,706 L515,687 L516,680 L519,674 L520,673 L523,653 L526,649 L527,637 L529,632 L528,628 L530,626 L532,611 L531,603 L533,601 L535,572 L534,554 L533,550 L533,537 L532,524 L532,519 L530,517 L529,508 L529,502 L527,497 L527,489 L525,478 L524,477 L524,469 L522,467 L520,462 L517,461 L516,455 L513,449 L512,445 L511,440 L508,434 L506,434 L505,409 L502,401 L498,396 L496,394 L495,387 L489,376 L486,368 L481,362 L478,353 L473,344 L471,344 L470,338 L468,336 L469,329 L460,326 L459,322 L456,320 L454,316 L450,315 L451,310 L445,301 L441,297 L439,297 L437,293 L432,287 L430,286 L428,282 L426,282 L425,279 L422,277 L419,272 L414,268 L410,262 L405,257 L403,257 L402,253 L395,247 L393,244 L388,241 L381,233 L367,224 L361,217 L349,210 L340,202 L330,195 L321,191 L312,185 L303,180 L297,178 L279,167 L272,165 L266,162 L257,159 L251,156 L240,153 L232,148 L224,146 L214,142 L206,141 L199,138 L188,135 L180,134 L176,132 L166,131 L163,129 L150,127 L140,124 L127,122 L122,122 L118,123 L104,121 L96,120 L90,119 L89,120 L80,119 L75,120 L72,118 L53,118 L50,119 L43,119 Z M-248,264 L-256,270 L-262,279 L-273,291 L-280,302 L-287,310 L-291,316 L-295,325 L-307,342 L-312,353 L-320,367 L-323,377 L-328,385 L-330,392 L-336,405 L-338,412 L-342,425 L-346,432 L-346,438 L-349,442 L-350,455 L-353,463 L-355,473 L-354,478 L-357,481 L-359,503 L-360,504 L-361,521 L-363,528 L-362,537 L-362,546 L-363,551 L-364,559 L-362,564 L-363,570 L-362,575 L-362,589 L-361,594 L-361,599 L-360,603 L-359,616 L-358,624 L-357,627 L-356,632 L-355,633 L-355,640 L-352,655 L-349,658 L-350,665 L-346,679 L-344,681 L-343,691 L-339,695 L-339,702 L-335,708 L-333,713 L-332,719 L-328,724 L-326,729 L-324,730 L-323,737 L-320,743 L-318,743 L-318,749 L-315,756 L-313,757 L-309,768 L-301,778 L-299,781 L-297,781 L-298,785 L-295,790 L-290,798 L-287,801 L-284,805 L-282,805 L-283,809 L-278,817 L-263,833 L-261,837 L-258,838 L-256,844 L-253,848 L-249,850 L-241,861 L-237,865 L-232,870 L-224,878 L-219,883 L-207,893 L-202,898 L-194,904 L-188,909 L-183,913 L-173,917 L-168,922 L-160,929 L-152,933 L-150,934 L-149,935 L-143,935 L-141,939 L-132,945 L-126,947 L-120,949 L-118,949 L-116,953 L-107,957 L-100,959 L-92,965 L-88,965 L-87,962 L-85,966 L-78,969 L-75,972 L-62,976 L-60,977 L-50,977 L-50,979 L-43,982 L-38,980 L-34,984 L-30,986 L-23,985 L-18,988 L-8,989 L-7,990 L-2,990 L-1,987 L2,989 L3,992 L8,993 L16,993 L18,995 L23,994 L23,992 L30,996 L46,997 L51,998 L55,999 L57,997 L61,998 L66,999 L70,998 L75,999 L77,995 L80,997 L89,996 L94,997 L95,996 L108,996 L110,998 L119,997 L140,994 L163,992 L175,989 L176,988 L192,986 L207,981 L222,978 L229,974 L241,972 L259,965 L269,961 L281,956 L288,951 L300,946 L309,941 L316,938 L329,928 L339,923 L347,917 L351,914 L352,911 L355,909 L354,904 L346,897 L341,891 L337,884 L328,878 L326,873 L319,866 L315,860 L311,856 L309,853 L307,853 L305,849 L296,841 L291,836 L288,835 L286,830 L282,828 L280,824 L274,819 L272,814 L268,813 L266,809 L258,802 L254,798 L248,790 L244,786 L243,784 L241,784 L241,781 L239,780 L236,774 L231,769 L229,769 L228,766 L226,766 L225,763 L220,760 L215,754 L213,754 L211,749 L208,749 L207,745 L196,736 L195,734 L193,734 L192,730 L184,724 L174,710 L166,700 L161,695 L156,690 L146,681 L137,671 L132,666 L129,661 L124,656 L119,653 L112,644 L109,643 L107,635 L104,634 L102,630 L91,620 L87,614 L84,611 L80,604 L67,592 L62,587 L57,582 L53,577 L50,571 L41,565 L30,553 L22,543 L21,537 L13,531 L8,528 L1,522 L-4,517 L-11,508 L-13,508 L-15,504 L-21,500 L-25,493 L-30,487 L-35,484 L-42,475 L-55,462 L-60,457 L-65,451 L-70,447 L-72,447 L-74,443 L-78,441 L-80,437 L-84,431 L-89,426 L-97,416 L-105,408 L-112,399 L-125,387 L-129,382 L-134,377 L-147,365 L-152,360 L-155,357 L-157,357 L-159,353 L-167,346 L-170,343 L-172,337 L-176,334 L-180,333 L-182,329 L-186,329 L-187,323 L-201,306 L-206,301 L-214,293 L-221,287 L-227,280 L-231,279 L-233,275 L-238,270 L-240,270 L-242,265 L-243,264 Z M-344,390 L-344,392 L-341,392 L-341,390 Z M456,971 L455,976 L459,975 L458,971 Z M163,1003 L158,1005 L159,1010 L163,1014 L168,1014 L168,1005 L167,1003 Z M240,1065 L240,1068 L244,1068 L244,1065 Z " fill="#000000" transform="translate(475,0)"/>
<path d="M0,0 L2,0 L2,2 L0,2 Z " fill="#000000" transform="translate(414,7)"/>
<path d="M0,0 L2,0 L1,3 Z " fill="#000000" transform="translate(729,17)"/>
<path d="M0,0 L2,1 L2,3 L-1,3 Z " fill="#000000" transform="translate(361,23)"/>
<path d="M0,0 L3,0 L3,3 L0,3 Z " fill="#000000" transform="translate(342,33)"/>
<path d="M0,0 L3,1 L0,2 Z " fill="#000000" transform="translate(782,40)"/>
<path d="M0,0 L2,1 Z " fill="#000000" transform="translate(792,40)"/>
<path d="M0,0 L2,0 L2,2 L0,2 Z " fill="#000000" transform="translate(300,49)"/>
<path d="M0,0 L2,0 L2,2 L0,2 Z " fill="#000000" transform="translate(811,49)"/>
<path d="M0,0 L2,0 L2,2 L0,2 Z " fill="#000000" transform="translate(295,54)"/>
<path d="M0,0 Z " fill="#000000" transform="translate(831,58)"/>
<path d="M0,0 L2,0 L1,3 Z " fill="#000000" transform="translate(276,64)"/>
<path d="M0,0 Z " fill="#000000" transform="translate(262,70)"/>
<path d="M0,0 L2,1 Z " fill="#000000" transform="translate(859,76)"/>
<path d="M0,0 L1,3 L-1,3 Z " fill="#000000" transform="translate(235,89)"/>
<path d="M0,0 L2,0 L2,2 L0,2 Z " fill="#000000" transform="translate(885,90)"/>
<path d="M0,0 Z " fill="#000000" transform="translate(229,94)"/>
<path d="M0,0 L2,0 L2,2 L0,2 Z " fill="#000000" transform="translate(889,94)"/>
<path d="M0,0 Z " fill="#000000" transform="translate(895,100)"/>
<path d="M0,0 Z " fill="#000000" transform="translate(934,127)"/>
<path d="M0,0 L2,1 L2,3 L0,3 Z " fill="#000000" transform="translate(943,135)"/>
<path d="M0,0 L0,3 Z " fill="#000000" transform="translate(169,139)"/>
<path d="M0,0 L2,1 Z " fill="#000000" transform="translate(163,145)"/>
<path d="M0,0 L2,0 L1,2 Z " fill="#000000" transform="translate(953,145)"/>
<path d="M0,0 L2,1 L0,2 Z " fill="#000000" transform="translate(154,154)"/>
<path d="M0,0 L2,2 L0,3 Z " fill="#000000" transform="translate(964,154)"/>
<path d="M0,0 Z " fill="#000000" transform="translate(973,163)"/>
<path d="M0,0 Z " fill="#000000" transform="translate(979,169)"/>
<path d="M0,0 L2,1 Z " fill="#000000" transform="translate(982,174)"/>
<path d="M0,0 L2,0 L2,3 L-1,2 Z " fill="#000000" transform="translate(85,237)"/>
<path d="M0,0 Z " fill="#000000" transform="translate(1078,310)"/>
<path d="M0,0 Z " fill="#000000" transform="translate(625,366)"/>
<path d="M0,0 Z " fill="#000000" transform="translate(526,421)"/>
<path d="M0,0 Z " fill="#000000" transform="translate(532,427)"/>
<path d="M0,0 L2,1 L3,4 L8,4 L9,1 L11,1 L11,5 L26,4 L33,6 L35,13 L35,26 L34,30 L35,35 L34,36 L34,41 L36,44 L34,50 L35,54 L34,55 L34,61 L35,63 L34,70 L35,74 L34,79 L35,83 L34,84 L34,92 L33,105 L33,151 L34,155 L31,157 L33,162 L33,165 L31,171 L34,172 L33,174 L31,174 L32,182 L31,189 L31,237 L28,243 L17,245 L-3,244 L-12,243 L-16,238 L-16,136 L-15,119 L-14,52 L-13,13 L-10,6 L-8,4 L-2,2 Z M-5,117 L-5,120 L-1,120 L-1,117 Z " fill="#000000" transform="translate(388,597)"/>
<path d="M0,0 Z " fill="#000000" transform="translate(421,601)"/>
<path d="M0,0 L2,0 L1,3 Z " fill="#000000" transform="translate(202,813)"/>
<path d="M0,0 Z " fill="#000000" transform="translate(910,822)"/>
<path d="M0,0 L2,1 Z " fill="#000000" transform="translate(247,865)"/>
<path d="M0,0 L2,1 Z " fill="#000000" transform="translate(256,874)"/>
<path d="M0,0 L2,2 L0,2 Z " fill="#000000" transform="translate(262,879)"/>
<path d="M0,0 L2,2 L0,2 Z " fill="#000000" transform="translate(271,888)"/>
<path d="M0,0 Z " fill="#000000" transform="translate(316,921)"/>
<path d="M0,0 Z " fill="#000000" transform="translate(320,925)"/>
<path d="M0,0 L2,0 L2,3 L0,3 Z " fill="#000000" transform="translate(364,947)"/>
<path d="M0,0 L2,2 L0,3 Z " fill="#000000" transform="translate(403,966)"/>
<path d="M0,0 L3,0 L2,4 L0,3 Z " fill="#000000" transform="translate(417,970)"/>
<path d="M0,0 L2,0 L2,2 L0,2 Z " fill="#000000" transform="translate(432,975)"/>
<path d="M0,0 L2,1 Z " fill="#000000" transform="translate(447,979)"/>
<path d="M0,0 Z " fill="#000000" transform="translate(460,986)"/>
<path d="M0,0 Z " fill="#000000" transform="translate(485,988)"/>
<path d="M0,0 Z " fill="#000000" transform="translate(529,991)"/>
</svg>
