<?xml version="1.0" encoding="UTF-8"?>
<!-- Generator: visioncortex VTracer 0.6.12 -->
<svg version="1.1" xmlns="http://www.w3.org/2000/svg" width="1107" height="1206">
<path d="M0,0 L25,2 L55,4 L70,6 L85,8 L90,10 L105,11 L109,13 L125,15 L141,19 L150,22 L158,25 L168,27 L177,31 L186,34 L192,37 L201,39 L216,45 L228,51 L237,54 L282,77 L294,84 L299,88 L310,94 L319,100 L326,104 L334,110 L340,114 L351,124 L353,127 L353,130 L362,133 L376,145 L387,154 L396,162 L396,164 L400,166 L415,181 L419,187 L435,204 L444,214 L450,222 L450,224 L454,226 L463,238 L471,249 L477,261 L485,272 L490,282 L498,295 L506,310 L512,321 L516,328 L525,349 L530,358 L535,373 L539,383 L548,413 L552,424 L554,432 L556,445 L560,462 L563,477 L566,493 L567,500 L567,510 L569,519 L568,526 L566,528 L568,538 L570,547 L569,589 L568,611 L566,624 L564,649 L561,662 L560,664 L559,675 L556,692 L550,713 L545,730 L543,738 L537,757 L532,772 L523,792 L519,803 L513,813 L509,824 L504,834 L495,853 L489,863 L485,869 L478,879 L471,886 L466,896 L454,910 L447,920 L439,930 L430,939 L424,949 L419,954 L404,970 L396,979 L388,986 L378,996 L372,1000 L367,1004 L359,1010 L350,1017 L343,1016 L341,1023 L336,1027 L328,1030 L322,1037 L313,1039 L309,1045 L303,1049 L294,1055 L284,1062 L273,1066 L265,1071 L255,1075 L244,1081 L239,1083 L232,1080 L230,1087 L221,1091 L212,1094 L206,1095 L197,1101 L194,1103 L185,1106 L177,1107 L174,1109 L165,1112 L157,1114 L148,1118 L138,1118 L120,1124 L110,1126 L109,1127 L104,1127 L99,1126 L96,1129 L88,1130 L81,1130 L76,1129 L73,1131 L65,1133 L56,1132 L52,1134 L33,1136 L-36,1136 L-39,1134 L-58,1133 L-63,1131 L-69,1132 L-75,1130 L-87,1129 L-90,1128 L-92,1125 L-102,1125 L-119,1121 L-131,1119 L-138,1116 L-154,1113 L-162,1110 L-170,1107 L-183,1103 L-201,1096 L-211,1093 L-224,1085 L-234,1082 L-247,1075 L-256,1072 L-267,1066 L-267,1064 L-272,1062 L-284,1057 L-294,1049 L-310,1039 L-315,1035 L-323,1031 L-334,1024 L-341,1019 L-342,1014 L-349,1014 L-357,1006 L-365,1000 L-374,993 L-387,981 L-395,974 L-405,964 L-409,959 L-416,953 L-420,947 L-426,943 L-432,935 L-437,931 L-443,923 L-449,916 L-455,907 L-462,899 L-466,893 L-471,885 L-480,869 L-489,858 L-496,847 L-500,837 L-504,829 L-505,828 L-505,300 L-503,300 L-501,295 L-493,279 L-485,266 L-482,262 L-478,254 L-473,248 L-468,240 L-459,227 L-455,222 L-450,220 L-448,214 L-444,208 L-440,204 L-433,196 L-427,188 L-419,178 L-410,171 L-404,164 L-399,161 L-392,153 L-384,145 L-376,138 L-367,132 L-356,124 L-352,120 L-339,110 L-329,103 L-321,100 L-319,95 L-318,94 L-311,93 L-308,88 L-304,85 L-299,86 L-296,87 L-295,80 L-278,71 L-274,68 L-265,65 L-255,59 L-243,54 L-236,50 L-226,48 L-218,43 L-215,41 L-209,39 L-198,34 L-190,32 L-183,28 L-174,26 L-164,23 L-154,21 L-149,18 L-139,18 L-132,15 L-125,13 L-114,11 L-103,8 L-89,8 L-79,5 L-63,3 L-55,4 L-51,2 L-38,2 L-26,1 Z M29,134 L23,137 L19,136 L-29,136 L-40,138 L-72,140 L-76,144 L-89,147 L-93,150 L-107,150 L-113,154 L-113,156 L-118,157 L-134,158 L-136,163 L-143,164 L-144,167 L-156,167 L-162,170 L-166,174 L-177,176 L-179,179 L-190,183 L-201,191 L-216,194 L-229,203 L-234,205 L-236,209 L-242,211 L-245,216 L-251,220 L-257,224 L-265,231 L-264,240 L-263,247 L-257,251 L-255,255 L-249,258 L-246,263 L-244,270 L-240,271 L-238,276 L-232,279 L-230,283 L-227,284 L-224,289 L-219,291 L-218,295 L-213,299 L-208,300 L-207,305 L-199,316 L-194,321 L-190,326 L-181,329 L-174,336 L-169,341 L-166,344 L-158,348 L-154,356 L-149,359 L-146,362 L-140,367 L-138,367 L-136,372 L-133,375 L-128,381 L-122,386 L-117,387 L-115,392 L-111,394 L-109,399 L-103,403 L-101,407 L-96,409 L-94,413 L-87,419 L-84,423 L-80,424 L-74,431 L-72,442 L-67,445 L-63,450 L-55,457 L-50,459 L-48,464 L-43,469 L-41,473 L-36,474 L-34,479 L-30,481 L-27,486 L-21,490 L-13,497 L-6,505 L-3,509 L4,510 L5,514 L7,516 L10,516 L11,520 L16,524 L20,530 L24,531 L26,535 L28,538 L30,538 L30,540 L35,545 L42,550 L43,552 L49,555 L52,560 L55,563 L59,567 L64,572 L66,572 L66,574 L71,577 L75,582 L79,583 L82,588 L86,590 L91,595 L96,597 L98,602 L105,607 L109,612 L111,612 L112,618 L115,622 L117,622 L118,625 L123,629 L127,633 L130,634 L135,639 L141,646 L146,651 L155,659 L159,663 L161,663 L162,668 L165,670 L168,670 L169,674 L175,677 L177,682 L181,684 L183,688 L191,695 L198,703 L201,706 L205,708 L210,713 L212,714 L213,718 L220,720 L221,725 L229,731 L236,738 L241,743 L244,748 L247,750 L250,750 L251,755 L257,758 L262,763 L267,770 L271,772 L273,776 L279,780 L282,781 L284,786 L288,791 L295,794 L300,799 L305,804 L308,807 L310,807 L311,811 L317,816 L322,822 L327,827 L331,830 L334,830 L336,835 L340,837 L342,842 L348,843 L355,835 L355,831 L359,829 L364,822 L366,818 L370,816 L376,807 L376,804 L380,802 L383,797 L385,790 L390,786 L392,777 L397,772 L399,769 L400,759 L404,752 L406,751 L409,738 L413,736 L415,732 L416,725 L420,721 L420,714 L424,705 L428,688 L432,682 L433,673 L434,668 L435,660 L436,659 L438,650 L440,644 L442,633 L445,605 L446,591 L447,584 L447,564 L448,553 L445,539 L445,526 L443,516 L442,504 L440,500 L438,481 L434,473 L434,464 L429,452 L428,451 L428,444 L426,437 L424,433 L420,421 L418,421 L417,416 L414,408 L410,400 L410,395 L407,391 L404,386 L402,380 L400,379 L397,371 L393,366 L391,358 L389,357 L383,346 L381,345 L378,338 L374,337 L373,331 L369,326 L367,321 L362,317 L360,311 L356,309 L355,303 L350,298 L344,290 L335,279 L330,274 L321,264 L319,264 L317,260 L311,253 L307,251 L304,245 L298,244 L297,239 L291,238 L290,233 L280,225 L278,223 L272,221 L267,216 L262,213 L259,209 L252,208 L251,204 L244,199 L239,198 L238,195 L224,191 L221,186 L220,184 L199,183 L197,179 L193,176 L185,174 L180,168 L172,167 L165,163 L138,158 L123,152 L114,150 L101,146 L95,146 L89,143 L74,141 L57,140 L37,138 L33,138 L32,135 Z M-354,321 L-357,323 L-358,330 L-363,334 L-369,344 L-374,351 L-378,355 L-382,364 L-385,367 L-387,371 L-387,376 L-389,376 L-395,384 L-398,397 L-402,405 L-405,412 L-407,419 L-412,428 L-414,437 L-416,442 L-418,447 L-419,453 L-421,456 L-423,476 L-426,486 L-428,498 L-432,523 L-434,541 L-434,558 L-437,572 L-437,577 L-438,582 L-438,601 L-437,613 L-434,617 L-432,617 L-435,628 L-433,631 L-434,634 L-433,649 L-431,651 L-429,659 L-428,671 L-426,682 L-423,687 L-423,704 L-418,713 L-416,723 L-413,727 L-410,735 L-408,735 L-407,740 L-406,742 L-405,747 L-402,753 L-397,760 L-395,768 L-389,776 L-387,783 L-381,792 L-376,798 L-374,803 L-372,804 L-369,811 L-363,820 L-361,824 L-357,825 L-356,831 L-351,834 L-350,840 L-345,846 L-342,848 L-338,848 L-338,853 L-333,856 L-331,861 L-326,862 L-324,867 L-321,868 L-319,874 L-312,876 L-311,880 L-306,884 L-304,888 L-298,892 L-294,897 L-288,900 L-285,905 L-280,906 L-275,912 L-269,916 L-264,920 L-255,927 L-249,930 L-244,934 L-240,938 L-237,941 L-227,943 L-221,948 L-215,949 L-213,953 L-201,958 L-192,964 L-182,967 L-177,972 L-165,974 L-149,982 L-144,983 L-138,984 L-133,987 L-121,990 L-108,994 L-100,996 L-92,999 L-85,999 L-71,1002 L-59,1005 L-48,1007 L-29,1008 L-23,1009 L0,1010 L9,1009 L17,1010 L31,1008 L51,1007 L54,1004 L60,1003 L71,1003 L83,1002 L92,998 L111,997 L118,993 L128,990 L132,988 L148,984 L154,981 L162,979 L171,975 L183,970 L192,966 L192,964 L204,962 L210,957 L217,954 L227,949 L231,945 L236,942 L238,940 L245,938 L246,934 L255,932 L259,928 L264,923 L267,920 L267,915 L261,913 L261,908 L259,906 L255,906 L254,901 L249,898 L246,893 L236,889 L231,883 L229,879 L222,877 L221,871 L215,867 L209,860 L206,857 L204,857 L202,852 L195,847 L192,847 L190,841 L185,840 L182,835 L178,833 L175,828 L171,826 L167,820 L159,812 L155,810 L152,805 L148,804 L146,798 L141,796 L139,791 L135,789 L132,784 L126,781 L121,775 L116,772 L114,769 L108,766 L96,753 L91,750 L88,746 L82,745 L81,741 L71,733 L67,729 L64,729 L63,725 L57,722 L52,717 L47,714 L44,710 L37,709 L37,704 L30,696 L25,693 L20,688 L17,685 L12,679 L8,678 L6,672 L1,666 L-3,664 L-7,664 L-8,660 L-14,657 L-19,649 L-20,645 L-26,643 L-27,639 L-35,633 L-43,623 L-49,618 L-54,613 L-60,608 L-66,605 L-78,592 L-81,589 L-86,583 L-92,578 L-97,577 L-98,573 L-103,570 L-108,564 L-112,560 L-119,552 L-124,548 L-128,542 L-134,540 L-135,536 L-140,534 L-142,529 L-146,527 L-148,522 L-153,520 L-155,515 L-159,513 L-161,509 L-168,504 L-177,493 L-185,484 L-191,480 L-193,478 L-198,478 L-199,472 L-204,468 L-207,464 L-212,463 L-213,459 L-224,447 L-233,440 L-236,439 L-238,433 L-242,431 L-245,427 L-248,426 L-250,421 L-256,417 L-260,412 L-270,404 L-274,402 L-279,397 L-282,397 L-281,393 L-286,390 L-288,390 L-290,384 L-298,379 L-303,374 L-307,369 L-313,367 L-315,362 L-319,358 L-322,354 L-324,354 L-324,352 L-326,352 L-327,348 L-333,344 L-340,336 L-342,336 L-344,332 L-349,326 L-351,322 Z M419,740 L418,745 L422,746 L424,744 L423,740 Z M408,753 L408,760 L412,760 L411,753 Z M-382,968 L-383,972 L-379,971 L-380,968 Z M272,1009 L270,1011 L271,1015 L275,1016 L277,1014 L276,1010 Z " fill="#000000" transform="translate(505,37)"/>
</svg>
