<?xml version="1.0" encoding="UTF-8"?>
<!-- Generator: visioncortex VTracer 0.6.12 -->
<svg version="1.1" xmlns="http://www.w3.org/2000/svg" width="1071" height="1209">
<path d="M0,0 Z " fill="#000000" transform="translate(508,37)"/>
<path d="M0,0 L62,0 L81,1 L86,1 L89,5 L99,6 L121,7 L135,10 L154,14 L168,17 L180,20 L185,24 L190,26 L202,27 L210,32 L216,35 L216,37 L229,39 L234,43 L242,45 L259,53 L274,60 L278,64 L284,66 L291,67 L292,70 L298,73 L302,77 L311,79 L312,82 L319,86 L324,88 L332,94 L335,97 L340,100 L344,104 L351,105 L354,110 L359,112 L364,117 L371,119 L373,124 L379,126 L380,131 L386,132 L390,136 L393,138 L395,143 L401,146 L406,151 L411,154 L415,160 L416,163 L420,165 L427,172 L432,177 L436,181 L441,186 L443,190 L447,192 L448,196 L455,199 L458,206 L465,215 L469,219 L471,223 L475,227 L478,234 L483,240 L483,244 L489,245 L491,253 L496,258 L499,265 L501,267 L503,272 L509,279 L511,287 L512,291 L516,292 L519,299 L523,305 L525,312 L530,319 L532,327 L533,331 L537,333 L538,339 L542,349 L545,354 L547,362 L550,371 L553,376 L554,385 L557,388 L561,406 L564,418 L565,419 L567,434 L570,444 L572,446 L574,455 L575,470 L579,494 L580,505 L581,530 L583,558 L582,581 L581,616 L579,620 L577,636 L575,659 L570,676 L568,691 L567,695 L566,700 L562,712 L559,717 L557,725 L555,738 L551,745 L549,752 L544,766 L542,773 L539,779 L536,787 L531,795 L528,801 L526,803 L521,819 L517,823 L514,828 L508,840 L504,845 L497,855 L494,862 L486,874 L480,883 L473,893 L470,896 L468,902 L463,907 L458,911 L454,917 L445,929 L440,935 L432,942 L423,952 L410,964 L408,970 L401,973 L394,982 L386,988 L379,994 L377,994 L375,998 L370,1003 L367,1006 L362,1009 L358,1012 L353,1013 L350,1012 L348,1013 L348,1019 L343,1024 L332,1030 L327,1034 L323,1036 L320,1040 L312,1044 L301,1052 L289,1059 L285,1062 L278,1061 L275,1066 L265,1071 L259,1075 L247,1080 L242,1083 L236,1086 L234,1088 L227,1089 L215,1095 L205,1098 L198,1101 L191,1103 L186,1103 L181,1107 L170,1110 L164,1113 L155,1114 L148,1117 L139,1120 L118,1123 L111,1125 L96,1125 L90,1128 L65,1131 L62,1132 L43,1132 L38,1134 L22,1133 L1,1133 L-30,1132 L-43,1130 L-72,1127 L-76,1126 L-91,1125 L-95,1122 L-102,1122 L-111,1120 L-114,1118 L-126,1116 L-133,1113 L-142,1113 L-150,1110 L-160,1107 L-167,1103 L-183,1099 L-197,1094 L-210,1089 L-217,1086 L-222,1082 L-230,1081 L-238,1076 L-246,1072 L-253,1068 L-262,1065 L-268,1062 L-275,1055 L-285,1052 L-292,1047 L-299,1043 L-304,1040 L-312,1035 L-324,1026 L-329,1022 L-335,1018 L-336,1015 L-340,1013 L-344,1007 L-349,1005 L-357,999 L-360,996 L-365,993 L-372,986 L-381,979 L-385,973 L-392,967 L-400,961 L-408,950 L-414,943 L-420,936 L-425,931 L-433,921 L-439,916 L-446,906 L-454,895 L-455,894 L-455,253 L-453,251 L-452,244 L-448,242 L-446,237 L-440,235 L-437,226 L-432,223 L-433,216 L-427,215 L-426,210 L-421,207 L-418,201 L-413,196 L-410,193 L-408,193 L-406,189 L-403,184 L-397,180 L-392,175 L-387,170 L-381,163 L-375,158 L-370,153 L-365,148 L-359,141 L-351,140 L-350,135 L-344,134 L-340,134 L-340,128 L-332,125 L-330,119 L-326,118 L-324,114 L-316,111 L-310,106 L-304,103 L-299,99 L-297,96 L-292,98 L-287,100 L-288,93 L-285,88 L-274,84 L-271,80 L-261,75 L-258,72 L-249,71 L-246,69 L-244,65 L-236,64 L-235,61 L-226,57 L-212,54 L-204,48 L-199,45 L-192,44 L-190,39 L-179,37 L-174,36 L-170,32 L-165,32 L-162,30 L-155,29 L-147,24 L-135,22 L-131,19 L-117,16 L-106,15 L-97,12 L-93,10 L-56,6 L-49,4 L-43,3 L-30,1 L-20,2 L-9,3 Z M5,139 L-14,140 L-22,143 L-30,143 L-32,144 L-50,145 L-64,148 L-68,151 L-85,153 L-90,153 L-95,158 L-108,161 L-112,163 L-112,165 L-120,166 L-129,168 L-135,172 L-144,175 L-148,178 L-158,179 L-163,181 L-168,186 L-186,190 L-190,194 L-195,197 L-196,201 L-201,202 L-209,206 L-218,209 L-221,213 L-221,215 L-224,216 L-225,220 L-225,228 L-221,233 L-217,234 L-217,238 L-208,241 L-206,241 L-204,246 L-196,253 L-194,255 L-192,260 L-188,264 L-183,269 L-179,274 L-175,275 L-173,282 L-169,287 L-167,288 L-165,293 L-160,295 L-158,300 L-153,301 L-151,307 L-146,310 L-144,314 L-139,315 L-138,320 L-133,322 L-131,327 L-126,328 L-124,333 L-120,336 L-117,341 L-112,342 L-111,346 L-108,348 L-105,348 L-104,353 L-98,356 L-96,360 L-93,363 L-91,368 L-86,372 L-81,377 L-72,387 L-64,389 L-63,394 L-55,403 L-43,412 L-36,414 L-34,419 L-30,421 L-28,425 L-22,429 L-18,434 L-14,436 L-9,441 L-1,448 L4,453 L12,462 L19,468 L23,469 L25,474 L36,482 L41,490 L49,496 L57,506 L62,511 L66,514 L68,520 L73,522 L74,526 L78,528 L79,533 L84,538 L90,542 L92,542 L94,548 L99,550 L101,554 L107,555 L109,560 L114,567 L116,573 L120,573 L121,579 L126,580 L128,586 L131,588 L135,588 L136,592 L141,595 L144,600 L147,601 L151,606 L155,607 L157,612 L161,614 L163,619 L169,622 L174,627 L179,632 L182,635 L187,640 L189,640 L191,647 L194,648 L197,653 L204,654 L205,658 L214,664 L217,667 L221,669 L224,676 L228,681 L230,686 L231,687 L237,687 L237,693 L242,697 L245,701 L250,703 L254,707 L259,712 L262,714 L264,720 L270,721 L271,725 L280,727 L283,734 L286,740 L290,742 L293,747 L298,752 L299,754 L303,754 L305,759 L310,762 L313,769 L318,774 L320,779 L326,781 L327,786 L330,789 L333,796 L338,801 L346,808 L355,814 L360,816 L361,822 L361,829 L365,829 L370,824 L372,820 L372,813 L378,811 L386,800 L388,794 L391,791 L392,786 L396,785 L400,778 L401,773 L406,766 L408,759 L412,756 L415,746 L420,739 L421,735 L420,731 L424,729 L427,725 L428,718 L429,711 L432,711 L433,707 L432,705 L434,705 L437,694 L439,690 L441,681 L440,678 L444,670 L446,657 L447,644 L451,636 L453,614 L453,603 L454,599 L453,597 L454,594 L453,591 L455,588 L455,579 L455,575 L456,573 L456,551 L455,543 L456,534 L454,524 L453,512 L451,494 L451,485 L447,476 L445,464 L444,463 L443,452 L438,442 L436,427 L433,421 L429,414 L429,409 L425,403 L421,389 L418,387 L414,375 L410,369 L408,369 L408,362 L402,354 L401,348 L396,343 L389,334 L386,328 L384,328 L382,323 L377,318 L374,315 L372,310 L368,308 L365,303 L361,299 L357,291 L352,289 L351,285 L343,279 L339,274 L336,269 L332,267 L327,262 L324,261 L320,256 L316,255 L314,251 L308,244 L305,242 L298,241 L297,237 L289,232 L279,225 L276,222 L270,220 L259,211 L256,208 L251,207 L250,204 L241,200 L236,195 L231,193 L229,189 L218,187 L210,183 L198,179 L195,177 L182,175 L165,167 L161,164 L144,162 L128,157 L111,154 L101,150 L94,148 L89,147 L88,148 L81,148 L68,144 L67,143 L47,143 L37,142 L31,143 L18,140 Z M419,203 L419,207 L421,206 L420,203 Z M-316,304 L-321,307 L-326,314 L-326,316 L-329,317 L-332,323 L-336,325 L-337,331 L-341,333 L-343,338 L-347,343 L-349,347 L-351,354 L-352,358 L-355,359 L-357,365 L-361,367 L-364,374 L-369,380 L-371,387 L-374,391 L-377,401 L-381,407 L-384,420 L-388,427 L-389,434 L-394,441 L-396,456 L-398,463 L-397,470 L-401,475 L-403,487 L-405,496 L-408,508 L-410,529 L-413,535 L-413,562 L-414,576 L-412,588 L-413,600 L-411,609 L-410,611 L-410,619 L-408,629 L-407,642 L-408,646 L-407,649 L-407,660 L-404,674 L-401,680 L-398,699 L-396,702 L-394,709 L-390,719 L-387,731 L-381,742 L-379,742 L-378,749 L-373,755 L-371,763 L-370,768 L-367,769 L-366,774 L-361,782 L-359,783 L-357,791 L-352,796 L-350,804 L-343,811 L-340,816 L-338,816 L-338,822 L-333,828 L-331,828 L-329,835 L-325,838 L-323,843 L-319,848 L-314,853 L-306,862 L-301,864 L-294,872 L-286,881 L-282,882 L-280,887 L-274,891 L-270,891 L-268,895 L-265,898 L-263,902 L-258,907 L-248,916 L-241,920 L-233,924 L-229,929 L-220,931 L-214,937 L-212,941 L-208,942 L-206,946 L-199,951 L-189,952 L-187,956 L-183,960 L-179,964 L-171,965 L-167,969 L-158,972 L-154,976 L-143,975 L-138,978 L-131,983 L-124,985 L-123,988 L-112,990 L-109,993 L-88,996 L-81,999 L-80,1000 L-70,1000 L-63,1003 L-44,1003 L-41,1007 L-33,1006 L-27,1007 L-22,1006 L-19,1007 L11,1008 L16,1009 L42,1009 L60,1007 L70,1007 L79,1006 L84,1003 L113,999 L125,994 L139,993 L152,986 L163,983 L167,980 L182,976 L183,973 L193,971 L199,966 L212,964 L215,959 L231,952 L236,947 L236,945 L244,943 L252,937 L259,933 L266,928 L268,925 L273,922 L276,919 L284,912 L286,909 L285,900 L280,896 L277,891 L273,890 L271,884 L266,882 L264,878 L259,876 L257,871 L251,870 L250,864 L246,862 L244,857 L238,856 L238,851 L232,849 L231,844 L226,840 L222,836 L219,835 L217,830 L212,828 L209,824 L204,823 L203,817 L201,812 L195,807 L192,802 L177,787 L172,782 L166,777 L162,771 L155,767 L150,760 L145,757 L141,751 L133,745 L129,739 L121,732 L115,724 L103,713 L87,696 L80,690 L75,683 L67,679 L61,675 L57,671 L54,668 L52,665 L47,664 L46,659 L40,655 L38,651 L33,646 L28,643 L26,643 L26,639 L20,636 L17,631 L13,627 L11,624 L6,623 L4,619 L0,616 L-2,610 L-8,610 L-9,604 L-12,601 L-17,596 L-19,595 L-22,590 L-27,589 L-28,584 L-34,583 L-35,578 L-46,566 L-58,553 L-63,548 L-68,542 L-74,538 L-80,529 L-88,521 L-99,512 L-111,500 L-115,495 L-126,486 L-133,478 L-144,466 L-155,457 L-163,446 L-170,441 L-180,438 L-182,433 L-186,430 L-189,425 L-193,424 L-195,419 L-200,416 L-202,412 L-207,410 L-209,405 L-213,403 L-215,398 L-220,396 L-221,392 L-225,390 L-229,384 L-234,379 L-242,372 L-247,370 L-249,365 L-253,363 L-256,358 L-260,355 L-262,355 L-264,351 L-267,348 L-269,344 L-273,342 L-276,337 L-280,336 L-284,330 L-287,327 L-289,323 L-294,321 L-297,316 L-301,315 L-303,311 L-307,309 L-309,305 Z " fill="#000000" transform="translate(455,43)"/>
<path d="M0,0 L2,1 Z " fill="#000000" transform="translate(594,49)"/>
<path d="M0,0 L3,0 L3,2 L0,2 Z " fill="#000000" transform="translate(297,66)"/>
<path d="M0,0 L3,1 L0,2 Z " fill="#000000" transform="translate(277,73)"/>
<path d="M0,0 Z " fill="#000000" transform="translate(184,115)"/>
<path d="M0,0 L3,1 L2,3 L-1,2 Z " fill="#000000" transform="translate(415,267)"/>
<path d="M0,0 Z " fill="#000000" transform="translate(274,298)"/>
<path d="M0,0 L1,2 L-1,1 Z " fill="#000000" transform="translate(274,303)"/>
<path d="M0,0 L6,0 L8,4 L8,8 L3,10 L-1,6 Z " fill="#000000" transform="translate(415,336)"/>
<path d="M0,0 Z " fill="#000000" transform="translate(659,352)"/>
<path d="M0,0 L2,0 L2,2 L0,2 Z " fill="#000000" transform="translate(513,490)"/>
<path d="M0,0 L2,1 Z " fill="#000000" transform="translate(655,610)"/>
<path d="M0,0 L3,1 L0,2 Z " fill="#000000" transform="translate(420,639)"/>
<path d="M0,0 L2,2 L0,2 Z " fill="#000000" transform="translate(426,645)"/>
<path d="M0,0 L2,1 Z " fill="#000000" transform="translate(516,739)"/>
<path d="M0,0 L2,1 Z " fill="#000000" transform="translate(516,745)"/>
</svg>
