<?xml version="1.0" encoding="UTF-8"?>
<!-- Generator: visioncortex VTracer 0.6.12 -->
<svg version="1.1" xmlns="http://www.w3.org/2000/svg" width="1134" height="1098">
<path d="M0,0 L15,0 L13,14 L12,126 L13,151 L12,168 L12,299 L11,422 L11,624 L10,880 L10,1086 L12,1094 L14,1095 L64,1096 L65,1098 L-5,1098 L-3,1091 L-2,1039 L-2,1001 L-3,968 L-2,884 L-2,751 L-1,706 L-1,373 L0,365 L-1,317 L0,203 Z " fill="#000000" transform="translate(5,0)"/>
<path d="M0,0 L4,1 Z " fill="#000000" transform="translate(422,0)"/>
<path d="M0,0 L3,1 Z " fill="#000000" transform="translate(471,0)"/>
<path d="M0,0 L15,0 L11,2 L4,2 Z " fill="#000000" transform="translate(505,0)"/>
<path d="M0,0 L2,1 Z " fill="#000000" transform="translate(749,0)"/>
<path d="M0,0 L6,0 L5,2 L0,1 Z " fill="#000000" transform="translate(1002,0)"/>
<path d="M0,0 L8,0 L6,2 L1,2 Z " fill="#000000" transform="translate(1093,0)"/>
<path d="M0,0 L24,0 L24,7 L19,3 L11,2 L2,2 Z " fill="#000000" transform="translate(1110,0)"/>
<path d="M0,0 L40,0 L58,2 L77,5 L107,12 L118,16 L129,19 L144,25 L154,29 L176,41 L188,48 L195,54 L196,61 L195,81 L193,114 L191,139 L189,172 L188,185 L187,211 L186,228 L180,318 L176,378 L175,399 L173,426 L171,461 L170,472 L169,497 L168,505 L165,560 L163,585 L158,663 L157,687 L155,720 L154,746 L152,768 L152,796 L155,798 L170,799 L188,799 L192,803 L193,805 L193,830 L191,839 L188,842 L-63,842 L-104,843 L-180,842 L-228,841 L-256,842 L-258,841 L-321,840 L-765,840 L-807,839 L-810,835 L-810,804 L-806,800 L-797,799 L-743,799 L-709,800 L-606,799 L-546,799 L-426,800 L-343,800 L-190,801 L-135,801 L-117,800 L-115,793 L-115,784 L-117,769 L-121,722 L-124,699 L-128,658 L-129,642 L-133,606 L-137,570 L-139,546 L-141,525 L-143,510 L-145,488 L-149,454 L-156,386 L-158,373 L-160,352 L-161,347 L-162,329 L-164,316 L-166,292 L-168,278 L-172,235 L-176,200 L-178,177 L-181,149 L-185,109 L-188,85 L-188,76 L-181,68 L-171,60 L-161,54 L-151,47 L-142,42 L-123,32 L-103,23 L-92,19 L-82,16 L-79,14 L-63,10 L-59,8 L-46,6 L-30,3 L-27,2 Z M15,48 L0,49 L-5,50 L-25,51 L-48,56 L-53,58 L-62,60 L-77,65 L-99,74 L-109,79 L-119,85 L-133,93 L-139,98 L-145,102 L-148,108 L-147,129 L-144,156 L-143,170 L-141,184 L-138,215 L-134,266 L-132,280 L-130,303 L-125,349 L-123,363 L-121,387 L-119,402 L-115,439 L-112,462 L-108,497 L-106,513 L-103,519 L-102,520 L-94,521 L78,521 L128,520 L133,517 L135,508 L136,484 L137,470 L140,386 L142,328 L144,274 L145,238 L148,175 L149,133 L150,101 L149,86 L144,81 L133,74 L121,69 L113,66 L98,60 L78,55 L61,52 L50,50 Z " fill="#000000" transform="translate(890,118)"/>
<path d="M0,0 L1,0 L1,105 L0,105 L-1,94 L-1,1 Z " fill="#000000" transform="translate(1133,160)"/>
<path d="M0,0 L23,0 L44,2 L64,6 L85,12 L100,18 L112,23 L123,29 L131,34 L132,39 L129,50 L127,52 L122,51 L113,45 L97,37 L81,30 L68,26 L52,22 L28,19 L-13,19 L-45,24 L-71,33 L-92,43 L-103,50 L-115,58 L-129,70 L-133,71 L-138,66 L-142,61 L-140,56 L-130,47 L-122,41 L-112,34 L-93,23 L-74,15 L-53,8 L-36,4 L-15,1 Z " fill="#000000" transform="translate(897,208)"/>
<path d="M0,0 L1,0 L1,12 L-1,12 L-1,4 Z " fill="#000000" transform="translate(1133,278)"/>
<path d="M0,0 L7,2 L10,5 L18,42 L22,59 L25,73 L32,106 L33,114 L31,116 L-28,116 L-30,115 L-29,101 L-21,67 L-17,51 L-9,19 L-5,3 Z " fill="#000000" transform="translate(815,283)"/>
<path d="M0,0 L1,0 L1,47 L-1,46 L-2,27 L-2,7 Z " fill="#000000" transform="translate(1133,303)"/>
<path d="M0,0 L1,0 L1,738 L-4,738 L-3,733 L-3,587 L-2,299 L-2,7 Z " fill="#000000" transform="translate(1133,360)"/>
<path d="M0,0 L59,0 L74,1 L76,3 L78,24 L82,27 L99,28 L111,27 L201,28 L204,36 L203,71 L203,195 L202,396 L199,400 L147,401 L2,401 L-25,400 L-119,400 L-123,397 L-124,391 L-124,35 L-122,28 L-118,26 L-8,27 L-4,26 L-2,2 Z M11,5 L6,8 L5,13 L5,24 L8,27 L21,28 L65,28 L69,24 L69,10 L67,7 L55,5 Z M-40,86 L-52,89 L-62,98 L-67,108 L-67,124 L-65,131 L-55,142 L-47,146 L-41,147 L-32,147 L-23,144 L-14,137 L-9,127 L-8,123 L-8,111 L-11,102 L-17,94 L-22,90 L-28,87 Z M192,190 L192,193 L194,193 L194,190 Z M103,229 L93,247 L86,263 L80,275 L80,282 L84,286 L94,294 L105,301 L115,308 L120,307 L120,297 L116,272 L110,236 L108,229 Z " fill="#000000" transform="translate(354,494)"/>
<path d="M0,0 L60,0 L72,4 L81,9 L88,16 L94,25 L97,37 L97,61 L96,145 L96,192 L95,293 L95,335 L92,349 L87,357 L79,366 L63,374 L21,374 L-2,373 L-5,370 L-5,181 L-4,12 L-3,3 Z " fill="#000000" transform="translate(584,520)"/>
<path d="M0,0 L44,0 L54,1 L58,4 L59,25 L59,335 L58,368 L55,371 L-1,371 L-15,368 L-22,364 L-27,359 L-33,351 L-37,343 L-38,340 L-38,258 L-37,157 L-35,29 L-29,17 L-21,9 L-10,3 Z " fill="#000000" transform="translate(152,522)"/>
<path d="M0,0 L3,1 L3,2 L-2,2 Z " fill="#000000" transform="translate(84,1096)"/>
<path d="M0,0 L3,2 L-1,1 Z " fill="#000000" transform="translate(111,1096)"/>
</svg>
