<?xml version="1.0" encoding="UTF-8"?>
<!-- Generator: visioncortex VTracer 0.6.12 -->
<svg version="1.1" xmlns="http://www.w3.org/2000/svg" width="1146" height="1158">
<path d="M0,0 L81,0 L83,2 L84,8 L85,60 L86,130 L87,241 L88,313 L89,362 L90,459 L92,585 L93,686 L94,759 L95,816 L96,898 L96,916 L97,973 L98,1036 L98,1103 L95,1106 L-36,1107 L-138,1108 L-145,1107 L-203,1108 L-289,1109 L-318,1109 L-436,1111 L-463,1111 L-522,1112 L-590,1112 L-679,1114 L-786,1115 L-858,1116 L-886,1116 L-963,1117 L-998,1117 L-1002,1114 L-1003,1110 L-1004,1040 L-1005,970 L-1006,923 L-1006,895 L-1007,769 L-1008,676 L-1009,609 L-1010,503 L-1010,478 L-1011,392 L-1012,331 L-1013,183 L-1013,17 L-1011,13 L-1009,12 L-930,11 L-875,10 L-744,9 L-678,9 L-674,8 L-550,6 L-455,5 L-325,3 L-248,2 L-174,1 L-120,1 Z M-73,43 L-176,44 L-324,46 L-422,48 L-531,49 L-642,51 L-686,52 L-705,52 L-784,54 L-902,55 L-919,59 L-935,67 L-945,75 L-954,84 L-962,97 L-967,110 L-970,126 L-970,257 L-969,319 L-969,357 L-968,431 L-967,554 L-966,616 L-965,693 L-964,804 L-963,897 L-962,951 L-961,1007 L-957,1024 L-953,1033 L-948,1042 L-940,1052 L-929,1061 L-913,1069 L-903,1072 L-899,1073 L-878,1074 L-812,1073 L-723,1072 L-639,1070 L-555,1069 L-544,1069 L-520,1068 L-494,1068 L-392,1066 L-358,1066 L-309,1065 L-244,1064 L-41,1062 L-14,1061 L0,1059 L12,1054 L26,1044 L32,1039 L39,1031 L44,1024 L50,1011 L53,999 L54,992 L54,903 L52,699 L52,674 L51,637 L51,613 L50,502 L48,372 L47,278 L47,251 L46,184 L46,149 L44,107 L38,87 L29,73 L18,61 L7,52 L-5,47 L-14,44 L-21,43 Z " fill="#000000" transform="translate(1030,11)"/>
<path d="M0,0 L18,0 L40,3 L62,8 L83,20 L96,33 L102,43 L107,54 L112,69 L112,93 L108,111 L102,126 L94,141 L86,152 L77,163 L67,174 L65,174 L63,178 L54,189 L49,198 L45,209 L44,212 L43,231 L39,234 L-14,235 L-18,232 L-18,201 L-14,186 L-8,174 L0,163 L22,141 L30,131 L41,113 L46,100 L47,96 L47,82 L43,73 L39,68 L31,64 L18,61 L-4,61 L-22,65 L-34,72 L-45,89 L-52,110 L-56,114 L-108,114 L-110,112 L-111,102 L-110,88 L-105,72 L-97,55 L-85,39 L-72,26 L-53,14 L-38,8 L-29,5 L-8,1 Z " fill="#000000" transform="translate(566,160)"/>
<path d="M0,0 L5,2 L7,4 L7,55 L2,60 L-50,60 L-53,57 L-54,53 L-54,7 L-51,2 L-49,1 Z " fill="#000000" transform="translate(602,417)"/>
<path d="M0,0 L6,1 L7,2 L6,9 L-2,25 L-10,41 L-15,52 L-21,65 L-23,72 L-33,91 L-39,103 L-45,115 L-48,125 L-51,142 L-45,141 L-33,136 L-22,132 L-12,128 L-7,125 L-4,118 L4,88 L7,83 L11,80 L18,81 L24,89 L28,95 L32,95 L34,91 L44,79 L46,79 L48,75 L55,66 L59,63 L64,63 L66,65 L65,74 L60,85 L54,102 L55,116 L51,123 L47,128 L46,131 L45,154 L40,159 L34,159 L26,152 L24,150 L19,151 L12,157 L1,164 L-13,173 L-27,182 L-60,197 L-66,200 L-69,206 L-71,214 L-72,217 L-72,224 L-67,245 L-59,265 L-54,276 L-54,284 L-56,287 L-63,288 L-72,282 L-82,273 L-90,266 L-106,253 L-114,247 L-125,238 L-134,231 L-141,230 L-154,234 L-180,242 L-197,246 L-201,248 L-203,257 L-206,260 L-213,259 L-216,252 L-224,252 L-236,255 L-253,256 L-260,254 L-270,246 L-273,241 L-273,235 L-267,227 L-257,219 L-250,210 L-242,203 L-231,198 L-192,186 L-181,182 L-167,177 L-156,174 L-129,165 L-124,160 L-110,142 L-103,133 L-93,119 L-81,103 L-69,86 L-59,73 L-55,67 L-45,53 L-38,44 L-30,33 L-23,23 L-16,12 L-9,4 Z " fill="#000000" transform="translate(418,439)"/>
<path d="M0,0 L16,0 L33,4 L38,9 L39,14 L33,26 L21,40 L10,49 L-4,57 L-20,65 L-46,79 L-65,89 L-67,92 L-70,113 L-73,159 L-74,177 L-79,181 L-81,182 L-88,182 L-93,176 L-99,164 L-105,149 L-112,136 L-117,131 L-133,123 L-146,127 L-160,132 L-177,137 L-196,143 L-225,151 L-229,160 L-231,170 L-235,174 L-240,173 L-253,164 L-259,160 L-267,159 L-276,160 L-281,155 L-285,147 L-285,145 L-295,142 L-321,131 L-329,127 L-330,123 L-327,119 L-304,120 L-283,122 L-276,122 L-274,121 L-275,111 L-276,99 L-271,94 L-270,93 L-263,94 L-253,100 L-241,108 L-233,113 L-227,111 L-211,103 L-195,95 L-190,92 L-190,89 L-203,84 L-219,77 L-236,72 L-252,68 L-265,64 L-273,62 L-313,51 L-326,47 L-332,44 L-333,38 L-328,33 L-323,29 L-316,27 L-306,27 L-283,31 L-259,35 L-237,38 L-204,43 L-180,47 L-161,50 L-128,54 L-119,55 L-105,48 L-87,40 L-73,33 L-61,28 L-46,21 L-28,13 L-12,5 L-4,1 Z " fill="#000000" transform="translate(986,516)"/>
<path d="M0,0 L26,0 L41,3 L56,9 L70,17 L81,26 L93,38 L100,49 L106,61 L112,79 L114,99 L113,115 L109,133 L103,147 L96,158 L88,168 L80,176 L66,186 L50,194 L35,199 L23,201 L4,201 L-16,197 L-33,190 L-45,183 L-56,174 L-68,161 L-76,149 L-81,139 L-86,124 L-88,113 L-88,89 L-86,75 L-83,67 L-76,51 L-68,39 L-55,25 L-46,18 L-37,12 L-19,4 Z M2,12 L-12,15 L-22,19 L-38,27 L-51,39 L-59,48 L-68,62 L-73,76 L-76,94 L-76,107 L-73,123 L-70,133 L-64,146 L-57,155 L-48,165 L-36,175 L-15,185 L4,189 L21,189 L37,186 L53,180 L65,173 L71,168 L75,165 L75,163 L79,161 L89,147 L94,140 L100,122 L103,103 L102,92 L99,76 L93,61 L87,51 L79,41 L69,31 L60,25 L54,22 L39,15 L21,12 Z " fill="#000000" transform="translate(569,720)"/>
<path d="M0,0 L6,0 L9,4 L9,29 L5,32 L-1,31 L-2,29 L-2,2 Z " fill="#000000" transform="translate(577,735)"/>
<path d="M0,0 L4,1 L3,4 L-1,3 Z " fill="#000000" transform="translate(945,737)"/>
<path d="M0,0 L6,0 L10,4 L7,13 L2,21 L-1,25 L-6,23 L-9,20 L-8,14 Z " fill="#000000" transform="translate(616,745)"/>
<path d="M0,0 L5,0 L15,17 L13,22 L8,24 L3,18 L-4,8 L-3,3 Z " fill="#000000" transform="translate(539,747)"/>
<path d="M0,0 L4,0 L4,5 L-2,11 L-3,14 L2,12 L7,8 L12,10 L13,17 L8,21 L-2,28 L-7,27 L-9,24 L-9,21 L-14,22 L-24,31 L-36,40 L-41,44 L-47,49 L-47,54 L-39,58 L-40,65 L-46,65 L-51,61 L-53,60 L-61,60 L-67,64 L-72,69 L-76,67 L-76,62 L-70,57 L-69,52 L-83,44 L-94,45 L-99,41 L-103,32 L-102,27 L-97,25 L-88,25 L-83,30 L-79,37 L-62,46 L-57,46 L-44,35 L-31,24 L-23,18 L-10,8 Z " fill="#000000" transform="translate(642,766)"/>
<path d="M0,0 L5,1 L19,9 L19,15 L16,19 L11,18 L3,13 L-2,11 L-3,4 Z " fill="#000000" transform="translate(510,777)"/>
<path d="M0,0 L8,0 L11,4 L10,9 L7,12 L-16,12 L-18,11 L-19,4 L-17,1 Z " fill="#000000" transform="translate(655,813)"/>
<path d="M0,0 L5,2 L6,3 L6,9 L3,12 L-21,12 L-23,10 L-23,4 L-19,1 Z " fill="#000000" transform="translate(521,815)"/>
<path d="M0,0 L5,0 L16,7 L20,10 L19,15 L17,18 L12,18 L-1,10 L-3,8 L-2,2 Z " fill="#000000" transform="translate(636,846)"/>
<path d="M0,0 L5,2 L7,6 L6,11 L1,14 L-10,21 L-14,19 L-16,13 L-13,8 L-5,4 Z " fill="#000000" transform="translate(525,848)"/>
<path d="M0,0 L4,2 L14,17 L12,22 L10,24 L5,24 L-1,15 L-5,9 L-5,4 Z " fill="#000000" transform="translate(616,869)"/>
<path d="M0,0 L5,0 L8,4 L6,11 L0,22 L-5,24 L-9,20 L-8,12 L-3,4 Z " fill="#000000" transform="translate(548,872)"/>
<path d="M0,0 L5,3 L5,28 L2,31 L-3,31 L-6,28 L-6,6 L-3,1 Z " fill="#000000" transform="translate(583,874)"/>
<path d="M0,0 L3,1 L2,4 L-1,4 Z " fill="#000000" transform="translate(499,1048)"/>
</svg>
