<?xml version="1.0" encoding="UTF-8"?>
<!-- Generator: visioncortex VTracer 0.6.12 -->
<svg version="1.1" xmlns="http://www.w3.org/2000/svg" width="855" height="849">
<path d="M0,0 L6,1 L8,3 L9,15 L10,85 L10,111 L11,165 L11,193 L12,221 L14,289 L13,299 L14,302 L14,324 L16,387 L16,413 L17,444 L17,485 L19,503 L19,546 L20,572 L20,608 L21,621 L22,671 L23,690 L24,737 L25,774 L23,776 L11,777 L-31,778 L-63,778 L-111,779 L-149,780 L-223,781 L-244,782 L-275,782 L-377,784 L-413,784 L-449,785 L-500,786 L-518,787 L-572,787 L-574,788 L-650,789 L-685,791 L-754,791 L-756,789 L-758,701 L-758,664 L-759,657 L-759,638 L-760,599 L-761,573 L-762,521 L-763,491 L-763,470 L-764,450 L-764,419 L-766,369 L-767,331 L-767,294 L-769,259 L-769,218 L-770,164 L-772,107 L-774,28 L-774,16 L-772,14 L-766,13 L-685,13 L-671,12 L-604,11 L-539,10 L-486,10 L-423,8 L-362,8 L-356,7 L-314,7 L-308,6 L-269,6 L-233,5 L-182,4 L-152,4 L-119,3 L-88,3 L-73,2 Z M-88,94 L-111,98 L-125,103 L-139,110 L-149,116 L-164,129 L-172,136 L-178,142 L-190,141 L-210,136 L-238,136 L-255,141 L-274,150 L-285,157 L-295,166 L-306,175 L-314,182 L-326,191 L-337,200 L-351,211 L-362,218 L-374,225 L-374,227 L-379,229 L-391,236 L-400,241 L-422,253 L-440,261 L-457,267 L-473,273 L-496,279 L-505,281 L-520,286 L-536,293 L-544,297 L-555,304 L-566,311 L-577,319 L-582,325 L-590,332 L-602,343 L-602,345 L-604,345 L-611,355 L-618,365 L-630,385 L-634,394 L-639,405 L-647,432 L-651,453 L-652,468 L-652,493 L-650,511 L-646,529 L-642,545 L-634,567 L-621,590 L-612,602 L-605,612 L-591,626 L-586,631 L-579,639 L-571,645 L-569,645 L-569,647 L-553,657 L-532,669 L-512,676 L-492,682 L-470,686 L-445,687 L-415,685 L-398,681 L-384,678 L-367,673 L-350,665 L-334,656 L-328,651 L-317,644 L-306,634 L-298,627 L-289,617 L-280,607 L-280,605 L-278,605 L-271,595 L-263,582 L-256,575 L-249,560 L-242,540 L-238,523 L-234,496 L-230,469 L-228,462 L-226,446 L-224,441 L-221,429 L-218,417 L-215,409 L-210,396 L-202,380 L-195,366 L-185,348 L-180,338 L-172,327 L-167,320 L-163,313 L-156,305 L-149,295 L-142,281 L-135,259 L-132,236 L-131,218 L-134,206 L-138,194 L-146,177 L-155,166 L-162,159 L-161,152 L-154,144 L-135,137 L-120,132 L-106,130 L-92,130 L-75,131 L-60,134 L-56,135 L-47,135 L-41,117 L-39,105 L-41,101 L-56,95 L-69,94 Z " fill="#000000" transform="translate(804,29)"/>
</svg>
