<?xml version="1.0" encoding="UTF-8"?>
<!-- Generator: visioncortex VTracer 0.6.12 -->
<svg version="1.1" xmlns="http://www.w3.org/2000/svg" width="570" height="1311">
<path d="M0,0 L17,1 L43,1 L67,2 L77,4 L91,12 L100,20 L103,24 L103,36 L99,44 L90,55 L91,63 L95,74 L96,78 L105,81 L123,85 L146,91 L161,95 L176,100 L182,105 L188,118 L188,126 L183,131 L168,137 L157,137 L146,133 L134,127 L127,126 L125,127 L124,136 L126,154 L132,170 L136,176 L143,176 L166,163 L182,155 L192,150 L217,142 L239,135 L269,130 L287,128 L300,128 L316,130 L327,134 L329,138 L328,147 L326,158 L325,160 L325,173 L329,183 L330,187 L335,187 L336,182 L335,171 L337,163 L341,157 L342,156 L349,157 L357,165 L367,183 L374,194 L378,207 L380,218 L387,227 L401,241 L408,251 L409,254 L412,255 L417,263 L421,271 L426,279 L432,291 L440,316 L445,339 L447,361 L446,391 L441,416 L433,440 L430,447 L422,463 L413,477 L406,487 L398,497 L390,506 L385,510 L381,515 L377,518 L375,518 L374,521 L363,528 L358,532 L339,542 L331,546 L326,547 L300,547 L220,548 L179,548 L167,543 L148,533 L139,526 L127,517 L122,512 L110,501 L102,492 L95,481 L92,478 L92,476 L90,476 L86,470 L78,454 L69,433 L66,424 L65,423 L59,423 L49,431 L35,434 L27,433 L25,430 L25,421 L31,404 L34,377 L35,342 L41,313 L49,287 L57,271 L63,261 L71,247 L77,238 L86,228 L95,217 L107,204 L108,202 L108,192 L106,188 L101,187 L90,196 L85,201 L78,207 L71,215 L60,229 L54,238 L45,252 L41,259 L37,264 L33,272 L28,278 L21,288 L14,297 L4,310 L0,312 L-2,317 L-6,321 L-10,328 L-15,333 L-22,344 L-30,354 L-37,363 L-48,372 L-56,380 L-65,384 L-65,350 L-57,343 L-49,335 L-39,322 L-29,310 L-21,296 L-10,282 L1,267 L7,258 L13,246 L19,238 L27,222 L32,210 L33,204 L33,193 L29,192 L-11,190 L-28,190 L-37,191 L-56,191 L-65,190 L-65,106 L-64,105 L-22,103 L44,103 L57,106 L71,106 L73,103 L71,93 L67,82 L59,66 L51,61 L45,59 L38,58 L22,58 L-13,61 L-39,65 L-62,71 L-65,71 L-65,42 L-39,40 L-29,37 L-28,36 L-29,28 L-30,26 L-30,18 L-27,10 L-21,5 L-7,1 Z M47,24 L27,26 L23,28 L24,31 L43,32 L53,35 L63,35 L70,32 L72,28 L69,25 L66,24 Z M252,211 L227,213 L201,220 L185,227 L177,231 L170,236 L168,240 L168,247 L174,259 L179,265 L183,273 L191,285 L199,294 L205,303 L207,306 L209,306 L211,310 L215,315 L222,323 L234,337 L240,341 L267,341 L275,332 L285,317 L293,306 L303,291 L312,277 L321,264 L330,250 L334,240 L333,234 L328,230 L318,225 L303,219 L278,213 L266,211 Z M351,249 L346,252 L346,254 L343,255 L337,264 L328,277 L322,286 L311,303 L304,312 L291,332 L282,345 L279,352 L279,369 L276,382 L272,388 L264,394 L258,396 L246,396 L237,392 L228,385 L221,383 L201,382 L164,381 L146,380 L136,380 L128,379 L113,379 L101,381 L99,383 L98,388 L99,399 L103,417 L112,437 L118,449 L128,464 L136,474 L141,481 L149,488 L156,494 L163,498 L168,504 L179,511 L191,516 L197,519 L215,523 L237,527 L249,528 L262,528 L297,521 L315,515 L331,507 L350,494 L359,486 L364,481 L373,471 L385,453 L394,437 L399,426 L403,415 L408,393 L409,381 L409,357 L407,340 L403,324 L394,299 L388,290 L381,279 L377,272 L371,264 L366,259 L362,254 L356,250 Z M139,264 L131,271 L125,278 L117,290 L110,304 L105,314 L101,327 L98,343 L98,354 L102,358 L119,361 L166,362 L176,363 L212,363 L217,360 L216,355 L215,353 L213,353 L212,350 L210,350 L208,346 L201,339 L194,330 L192,330 L190,326 L185,320 L183,320 L181,316 L174,305 L168,296 L159,283 L155,276 L153,276 L151,271 L146,265 Z " fill="#000000" transform="translate(65,29)"/>
<path d="M0,0 L6,0 L9,3 L11,8 L11,13 L6,17 L5,23 L5,39 L4,53 L0,56 L-15,57 L-45,58 L-58,59 L-131,62 L-154,64 L-171,64 L-177,65 L-200,66 L-223,67 L-262,68 L-293,70 L-316,70 L-387,72 L-440,73 L-483,74 L-488,67 L-489,42 L-491,40 L-491,16 L-490,14 L-421,13 L-356,13 L-354,12 L-327,12 L-264,10 L-207,9 L-149,7 L-134,6 L-100,5 L-94,4 L-63,3 L-29,1 Z " fill="#000000" transform="translate(533,1210)"/>
</svg>
