<?xml version="1.0" encoding="UTF-8"?>
<!-- Generator: visioncortex VTracer 0.6.12 -->
<svg version="1.1" xmlns="http://www.w3.org/2000/svg" width="1311" height="684">
<path d="M0,0 L15,0 L29,7 L39,19 L42,26 L43,31 L43,41 L40,51 L33,62 L25,68 L15,72 L9,74 L2,74 L4,79 L7,84 L7,91 L3,104 L-6,131 L-15,158 L-19,172 L-23,185 L-22,191 L-20,192 L-10,192 L-3,190 L-1,184 L8,169 L16,153 L23,141 L30,131 L41,117 L49,107 L58,97 L70,87 L80,81 L92,76 L100,69 L107,61 L115,51 L120,50 L123,53 L122,61 L122,74 L128,79 L141,86 L152,94 L162,102 L170,108 L179,115 L183,117 L186,120 L186,122 L191,124 L202,134 L203,143 L198,152 L191,165 L187,168 L178,167 L147,161 L134,159 L121,159 L118,163 L113,184 L110,202 L99,261 L96,270 L92,272 L-289,272 L-293,270 L-294,268 L-294,257 L-290,239 L-283,225 L-276,216 L-271,212 L-266,207 L-257,200 L-235,191 L-223,189 L-130,189 L-126,187 L-121,177 L-113,160 L-103,141 L-98,128 L-89,113 L-84,103 L-76,88 L-69,80 L-61,74 L-51,69 L-41,67 L-33,67 L-26,68 L-18,68 L-20,64 L-24,58 L-28,50 L-31,36 L-30,25 L-22,11 L-12,4 L-5,1 Z " fill="#000000" transform="translate(340,35)"/>
<path d="M0,0 L19,0 L23,4 L24,10 L25,42 L25,73 L23,80 L29,81 L61,81 L70,83 L74,87 L83,101 L92,115 L101,128 L105,133 L109,135 L181,135 L186,133 L188,129 L189,115 L194,113 L202,120 L209,130 L213,138 L216,140 L376,140 L452,139 L457,142 L458,146 L456,148 L430,148 L382,149 L360,150 L294,152 L242,153 L219,155 L214,158 L209,167 L201,178 L197,181 L192,181 L190,175 L189,166 L187,163 L182,162 L162,168 L146,173 L136,176 L126,179 L102,187 L91,187 L74,178 L62,173 L56,175 L53,184 L47,215 L43,230 L41,244 L36,266 L31,270 L-16,271 L-36,272 L-64,272 L-68,269 L-70,248 L-72,219 L-74,198 L-75,173 L-76,152 L-78,148 L-80,147 L-89,148 L-112,155 L-130,159 L-141,159 L-147,155 L-151,149 L-152,146 L-152,136 L-149,126 L-140,114 L-134,109 L-125,98 L-120,92 L-112,85 L-105,77 L-85,57 L-84,55 L-82,55 L-80,51 L-70,40 L-65,35 L-63,34 L-56,34 L-48,40 L-43,44 L-41,47 L-42,53 L-46,60 L-54,71 L-58,77 L-58,81 L-56,82 L-12,82 L-2,81 L-7,76 L-9,53 L-9,5 L-5,1 Z " fill="#000000" transform="translate(752,36)"/>
<path d="M0,0 L7,0 L16,7 L23,17 L27,26 L28,31 L27,46 L24,56 L17,66 L9,74 L7,75 L1,75 L-1,73 L-3,21 L-3,7 L-1,1 Z " fill="#000000" transform="translate(795,38)"/>
<path d="M0,0 L9,1 L22,6 L30,10 L50,18 L80,31 L86,34 L88,36 L87,41 L79,45 L66,49 L46,57 L39,56 L20,44 L7,36 L-2,36 L-16,44 L-27,50 L-47,62 L-53,65 L-61,64 L-67,61 L-70,58 L-68,53 L-49,39 L-40,31 L-31,24 L-20,16 L-8,5 Z " fill="#000000" transform="translate(1072,376)"/>
<path d="M0,0 L15,0 L27,6 L34,15 L38,25 L38,38 L31,52 L21,60 L15,62 L-1,62 L-11,55 L-19,45 L-22,34 L-22,27 L-19,18 L-15,13 L-12,7 Z " fill="#000000" transform="translate(1238,394)"/>
<path d="M0,0 L11,0 L21,3 L30,8 L37,15 L42,24 L45,34 L45,48 L42,60 L35,70 L29,75 L20,79 L10,82 L7,82 L8,85 L21,83 L35,76 L42,70 L49,62 L51,61 L76,59 L96,59 L102,58 L178,55 L196,54 L202,52 L204,47 L212,31 L216,28 L249,26 L294,25 L299,28 L300,33 L299,36 L290,39 L268,43 L264,47 L262,58 L257,61 L246,62 L241,65 L234,78 L226,83 L191,92 L175,96 L151,102 L138,106 L116,111 L104,115 L88,119 L73,123 L69,125 L67,129 L66,139 L66,169 L68,239 L67,256 L62,260 L-27,263 L-59,264 L-67,259 L-71,254 L-79,247 L-86,241 L-90,236 L-98,229 L-107,219 L-112,215 L-117,210 L-123,205 L-128,200 L-137,191 L-142,187 L-149,179 L-157,172 L-163,164 L-164,158 L-157,150 L-147,141 L-137,131 L-126,122 L-114,111 L-107,105 L-101,100 L-99,100 L-98,97 L-90,90 L-75,76 L-59,66 L-55,65 L-36,65 L-28,72 L-23,76 L-17,77 L-20,72 L-27,63 L-32,52 L-34,47 L-34,38 L-32,28 L-24,13 L-13,5 L-4,1 Z M-83,151 L-94,157 L-99,161 L-100,168 L-94,178 L-84,193 L-80,195 L-77,204 L-73,207 L-69,206 L-70,188 L-74,165 L-77,152 Z " fill="#000000" transform="translate(201,381)"/>
<path d="M0,0 L8,0 L20,6 L25,12 L28,19 L29,24 L28,37 L26,44 L24,57 L18,83 L17,95 L17,98 L36,100 L56,100 L62,99 L94,99 L96,102 L95,109 L93,114 L90,117 L74,121 L47,125 L45,126 L31,127 L23,129 L3,132 L-14,135 L-21,135 L-24,132 L-26,112 L-27,86 L-29,61 L-32,56 L-46,53 L-51,48 L-55,43 L-56,35 L-52,26 L-47,21 L-24,10 L-4,1 Z " fill="#000000" transform="translate(1169,438)"/>
<path d="M0,0 L9,1 L32,11 L48,18 L77,30 L98,39 L123,49 L140,56 L145,59 L153,62 L156,66 L155,74 L152,85 L148,89 L138,88 L129,86 L114,81 L96,77 L80,73 L61,68 L52,67 L31,67 L16,71 L8,75 L1,80 L-3,85 L-7,89 L-11,97 L-23,115 L-27,122 L-27,126 L-20,127 L-14,124 L-6,109 L5,100 L16,95 L22,94 L32,94 L42,97 L53,104 L62,114 L65,119 L67,128 L67,143 L63,154 L55,165 L50,169 L42,174 L34,174 L22,168 L15,163 L4,148 L0,147 L-3,149 L-7,156 L-11,161 L-19,168 L-31,175 L-39,177 L-52,178 L-68,174 L-80,167 L-89,158 L-95,148 L-100,147 L-104,152 L-110,160 L-119,168 L-131,175 L-138,177 L-152,178 L-168,174 L-180,167 L-187,160 L-193,152 L-197,146 L-202,147 L-205,152 L-209,157 L-214,162 L-224,169 L-234,174 L-247,176 L-260,175 L-275,169 L-286,160 L-289,156 L-289,149 L-284,146 L-259,139 L-246,136 L-223,129 L-214,127 L-209,125 L-201,123 L-180,117 L-168,113 L-155,110 L-139,105 L-126,102 L-105,95 L-101,92 L-100,88 L-95,84 L-90,76 L-87,70 L-76,59 L-69,51 L-64,46 L-54,38 L-52,38 L-52,36 L-38,25 L-27,17 L-19,11 L-12,7 L-10,7 L-10,5 L-3,1 Z " fill="#000000" transform="translate(693,462)"/>
<path d="M0,0 L6,0 L11,5 L22,18 L29,26 L36,35 L40,37 L47,36 L55,31 L66,26 L82,18 L86,19 L88,22 L88,32 L83,60 L80,74 L75,101 L71,109 L63,115 L59,116 L52,116 L33,109 L20,105 L16,103 L7,101 L-5,97 L-19,92 L-28,89 L-38,86 L-45,86 L-68,95 L-75,98 L-80,101 L-88,104 L-100,110 L-110,114 L-143,129 L-166,139 L-174,142 L-186,147 L-193,151 L-198,151 L-200,148 L-198,132 L-196,127 L-191,123 L-178,115 L-171,111 L-161,104 L-153,100 L-145,94 L-133,87 L-126,83 L-106,70 L-97,63 L-93,58 L-88,48 L-85,45 L-72,46 L-60,40 L-48,31 L-41,27 L-31,20 L-22,14 L-12,9 L-7,5 L-2,2 Z " fill="#000000" transform="translate(1010,499)"/>
</svg>
