<?xml version="1.0" encoding="UTF-8"?>
<!-- Generator: visioncortex VTracer 0.6.12 -->
<svg version="1.1" xmlns="http://www.w3.org/2000/svg" width="1086" height="1095">
<path d="M0,0 L954,0 L973,10 L977,14 L982,17 L991,24 L1001,36 L1009,49 L1015,61 L1018,66 L1018,1034 L1016,1034 L1014,1042 L1006,1055 L1000,1063 L994,1070 L989,1076 L981,1083 L972,1091 L963,1093 L963,1095 L-6,1095 L-15,1091 L-30,1083 L-41,1076 L-53,1065 L-61,1055 L-68,1045 L-68,87 L-66,87 L-64,77 L-59,62 L-50,46 L-43,36 L-34,25 L-24,16 L-7,5 L-2,2 L0,2 Z M80,80 L42,81 L34,84 L26,89 L19,99 L16,105 L15,125 L13,272 L13,354 L17,364 L24,372 L34,378 L39,376 L42,372 L46,354 L50,328 L56,304 L59,293 L64,282 L69,266 L77,248 L90,223 L96,213 L105,199 L115,185 L122,175 L129,167 L142,152 L152,142 L157,142 L158,143 L158,151 L154,162 L148,173 L148,179 L152,183 L169,191 L177,196 L196,205 L212,213 L225,219 L236,223 L246,229 L269,241 L274,246 L274,257 L269,275 L266,281 L263,284 L256,285 L250,286 L244,290 L236,299 L228,310 L217,320 L206,326 L203,329 L194,334 L184,340 L174,345 L169,350 L169,376 L170,378 L179,380 L268,380 L287,378 L297,373 L303,368 L308,358 L310,350 L311,311 L311,258 L312,237 L312,114 L309,100 L306,95 L299,87 L287,81 L268,80 L174,81 Z M671,81 L662,85 L654,92 L649,101 L646,113 L646,306 L647,353 L650,365 L655,372 L664,378 L669,381 L673,382 L846,382 L885,381 L900,382 L911,381 L922,379 L931,373 L939,363 L941,354 L942,349 L942,308 L941,247 L941,114 L939,103 L933,93 L926,87 L918,83 L905,81 Z M175,285 L169,289 L169,332 L172,334 L178,334 L189,327 L197,322 L204,318 L217,308 L226,300 L230,293 L229,288 L225,285 Z M397,398 L353,399 L345,402 L337,408 L331,415 L328,420 L325,434 L325,604 L328,614 L334,623 L340,628 L348,632 L358,634 L375,629 L382,623 L393,609 L401,604 L410,600 L424,600 L435,605 L442,611 L449,620 L456,627 L466,632 L481,632 L489,629 L495,625 L502,619 L511,608 L524,601 L531,600 L540,600 L551,604 L559,611 L565,620 L570,625 L582,632 L585,633 L602,633 L613,627 L619,620 L625,608 L627,592 L627,515 L628,464 L627,454 L627,435 L625,420 L618,409 L611,403 L601,399 L590,398 L421,398 L408,399 Z M419,617 L408,618 L399,622 L393,626 L387,634 L387,636 L383,638 L378,643 L371,647 L363,648 L349,648 L339,644 L334,640 L329,641 L329,648 L335,657 L341,663 L353,667 L370,666 L378,661 L388,652 L395,644 L408,636 L425,636 L437,642 L444,648 L451,656 L459,663 L469,668 L483,667 L492,663 L499,657 L504,650 L508,646 L512,641 L522,635 L526,634 L540,634 L549,638 L557,643 L568,656 L576,663 L585,667 L599,667 L609,663 L615,659 L621,651 L624,645 L623,639 L617,639 L609,646 L601,649 L585,649 L573,643 L563,634 L558,627 L550,621 L538,617 L524,618 L518,620 L508,628 L501,635 L496,640 L489,646 L479,650 L469,650 L456,645 L448,638 L440,627 L430,620 Z M528,650 L519,653 L510,659 L501,669 L494,677 L483,682 L469,683 L457,678 L449,671 L440,661 L430,654 L425,652 L410,651 L401,655 L393,661 L386,668 L379,676 L371,680 L355,682 L346,680 L335,673 L333,671 L328,672 L328,679 L333,688 L341,696 L352,701 L368,701 L378,696 L390,682 L399,674 L407,670 L413,669 L425,669 L432,672 L443,680 L448,687 L453,692 L462,698 L471,701 L485,700 L494,695 L499,691 L506,683 L510,677 L524,669 L527,668 L541,668 L550,672 L558,677 L567,688 L576,696 L587,700 L597,700 L606,698 L615,692 L622,683 L625,673 L622,669 L617,671 L612,676 L607,679 L599,682 L586,682 L576,678 L568,672 L556,659 L547,653 L540,650 Z M527,682 L512,691 L510,694 L511,699 L513,700 L552,700 L555,698 L555,693 L547,686 L542,684 L532,682 Z M410,684 L400,688 L394,693 L395,698 L398,700 L405,701 L435,701 L439,698 L439,693 L434,689 L425,684 Z M144,717 L140,722 L141,734 L143,746 L146,756 L148,759 L153,759 L157,754 L163,746 L170,736 L176,727 L177,719 L175,717 Z M42,716 L28,720 L21,726 L18,729 L13,736 L11,750 L11,940 L10,953 L11,986 L14,996 L17,1002 L26,1010 L32,1014 L37,1015 L130,1016 L191,1016 L255,1017 L278,1017 L289,1014 L299,1005 L304,999 L307,989 L308,912 L308,749 L306,739 L301,729 L293,722 L283,717 L252,716 L210,716 L198,717 L191,722 L184,732 L170,750 L165,759 L157,770 L154,774 L152,782 L153,791 L158,816 L162,835 L164,847 L168,862 L169,872 L173,879 L178,882 L189,884 L198,888 L206,895 L208,895 L210,899 L213,905 L213,915 L197,920 L188,923 L185,926 L184,933 L188,953 L192,971 L192,980 L189,984 L180,983 L177,973 L176,971 L174,958 L170,940 L169,932 L165,929 L159,928 L144,932 L137,931 L134,929 L133,926 L133,917 L136,908 L142,898 L150,889 L158,883 L160,880 L160,872 L156,851 L154,842 L150,825 L144,799 L143,798 L138,798 L130,807 L121,820 L120,826 L123,833 L129,846 L129,866 L124,878 L117,880 L108,875 L99,869 L96,867 L91,868 L86,873 L75,888 L66,900 L59,909 L57,911 L52,910 L49,908 L49,899 L55,891 L63,880 L74,865 L77,859 L76,852 L67,844 L58,838 L56,836 L56,828 L64,821 L72,817 L83,815 L92,815 L99,817 L107,817 L113,813 L119,806 L123,799 L130,790 L136,780 L137,776 L137,765 L134,748 L130,729 L126,720 L122,717 L119,716 Z M703,717 L668,718 L660,720 L650,727 L644,737 L642,748 L642,788 L641,812 L641,881 L640,913 L640,992 L644,1003 L650,1011 L660,1017 L667,1018 L723,1018 L739,1019 L813,1018 L876,1019 L917,1018 L927,1014 L934,1007 L939,998 L940,996 L940,882 L941,773 L940,744 L936,732 L929,724 L924,720 L919,718 L910,717 L872,717 L864,721 L859,727 L851,738 L847,742 L841,751 L832,762 L822,775 L817,783 L815,788 L811,796 L809,804 L809,823 L812,830 L816,836 L819,843 L825,853 L833,869 L841,883 L849,894 L855,901 L866,909 L877,915 L883,920 L887,928 L886,936 L881,940 L871,945 L868,948 L868,965 L863,966 L858,956 L854,951 L848,950 L843,955 L840,964 L835,963 L832,951 L829,947 L822,947 L817,952 L814,957 L809,964 L805,964 L805,955 L808,950 L809,949 L809,941 L805,936 L793,930 L785,923 L780,920 L775,915 L763,904 L752,895 L740,886 L730,879 L712,867 L707,863 L701,853 L699,846 L700,837 L703,827 L718,805 L729,796 L734,791 L741,780 L747,770 L754,759 L763,743 L769,730 L771,725 L770,720 L768,718 L759,717 Z " fill="#000000" transform="translate(68,0)"/>
<path d="M0,0 L26,0 L41,4 L55,9 L71,18 L71,20 L76,22 L84,29 L91,37 L97,45 L105,58 L110,67 L115,87 L117,100 L117,116 L115,133 L109,149 L101,165 L94,175 L87,184 L79,191 L67,200 L57,205 L48,208 L41,211 L30,214 L20,215 L9,215 L-12,213 L-30,206 L-52,194 L-70,176 L-78,165 L-84,154 L-88,144 L-92,133 L-94,117 L-94,101 L-92,83 L-89,71 L-81,55 L-74,44 L-65,33 L-54,23 L-41,14 L-30,9 L-18,4 Z M-1,30 L-15,34 L-30,42 L-36,47 L-41,52 L-46,56 L-52,65 L-60,81 L-64,95 L-65,112 L-61,133 L-55,145 L-44,161 L-34,170 L-21,178 L-15,181 L-1,185 L15,186 L26,185 L42,180 L48,175 L55,171 L63,165 L71,157 L79,144 L84,130 L86,120 L87,110 L87,100 L83,83 L78,71 L71,61 L62,51 L54,43 L38,35 L28,31 L25,30 Z " fill="#000000" transform="translate(851,123)"/>
<path d="M0,0 L13,0 L26,3 L37,10 L43,15 L51,26 L56,38 L58,50 L57,62 L53,74 L44,88 L33,97 L20,102 L14,103 L4,103 L-8,101 L-23,93 L-31,84 L-38,75 L-42,62 L-42,42 L-37,27 L-30,18 L-22,10 L-16,6 L-6,1 Z M2,30 L-4,33 L-9,38 L-12,44 L-13,48 L-13,57 L-8,67 L-3,71 L5,74 L14,73 L25,66 L28,59 L29,56 L29,48 L27,41 L21,34 L13,30 Z " fill="#000000" transform="translate(855,179)"/>
<path d="M0,0 L10,0 L23,7 L33,14 L47,26 L51,30 L51,32 L54,33 L65,47 L69,52 L79,65 L84,74 L92,90 L95,99 L95,116 L88,128 L79,136 L69,139 L58,139 L47,135 L41,131 L33,118 L24,102 L16,86 L8,72 L-1,61 L-4,59 L-10,60 L-19,65 L-27,73 L-32,82 L-32,96 L-31,104 L-35,114 L-39,120 L-42,125 L-47,129 L-52,129 L-56,124 L-61,124 L-69,135 L-75,141 L-84,141 L-93,135 L-100,126 L-100,111 L-91,92 L-84,82 L-72,65 L-61,52 L-50,40 L-43,33 L-38,28 L-27,18 L-17,10 L-12,6 Z " fill="#000000" transform="translate(541,435)"/>
</svg>
