<?xml version="1.0" encoding="UTF-8"?>
<!-- Generator: visioncortex VTracer 0.6.12 -->
<svg version="1.1" xmlns="http://www.w3.org/2000/svg" width="675" height="1041">
<path d="M0,0 L12,0 L23,4 L32,10 L40,19 L46,31 L48,38 L47,54 L44,63 L38,71 L31,79 L13,89 L7,91 L-4,90 L-12,87 L-18,83 L-23,80 L-27,75 L-33,60 L-36,49 L-36,35 L-32,25 L-25,15 L-23,12 L-21,12 L-21,10 L-11,4 L-5,1 Z M2,20 L-7,23 L-12,29 L-16,39 L-16,51 L-10,60 L-2,65 L2,66 L14,66 L22,61 L28,53 L29,50 L29,39 L24,29 L16,23 L6,20 Z " fill="#000000" transform="translate(469,31)"/>
<path d="M0,0 L20,0 L28,3 L33,7 L40,18 L40,20 L42,20 L51,32 L61,40 L66,39 L69,32 L76,15 L83,9 L85,8 L99,8 L118,13 L130,19 L139,29 L145,40 L148,48 L150,63 L150,154 L153,164 L158,167 L171,170 L182,176 L190,184 L194,194 L197,207 L196,221 L195,234 L196,245 L196,318 L195,362 L194,370 L197,377 L205,387 L215,399 L218,407 L217,412 L214,415 L206,416 L199,414 L179,412 L168,409 L160,409 L158,411 L159,418 L161,425 L161,431 L157,435 L150,435 L128,430 L112,425 L84,419 L64,412 L60,407 L60,400 L61,393 L60,348 L60,300 L61,262 L61,236 L59,228 L51,223 L33,218 L21,216 L2,214 L-17,211 L-27,210 L-33,206 L-38,199 L-39,194 L-40,177 L-41,153 L-42,127 L-42,55 L-36,29 L-30,18 L-24,10 L-13,3 Z M89,151 L79,155 L75,159 L76,165 L81,168 L95,171 L107,171 L112,169 L115,165 L114,159 L111,156 L99,151 Z " fill="#000000" transform="translate(424,126)"/>
<path d="M0,0 L11,0 L16,5 L17,7 L17,73 L16,99 L16,177 L15,232 L16,271 L14,289 L10,294 L8,295 L-3,295 L-9,291 L-11,286 L-11,260 L-10,231 L-11,224 L-11,207 L-12,205 L-17,206 L-25,214 L-42,226 L-51,235 L-59,242 L-63,244 L-63,246 L-74,255 L-79,259 L-81,259 L-81,261 L-92,270 L-102,279 L-110,286 L-123,297 L-136,307 L-152,322 L-162,332 L-170,338 L-180,347 L-191,356 L-203,365 L-204,367 L-206,367 L-208,371 L-216,378 L-218,378 L-220,382 L-228,389 L-238,399 L-249,408 L-257,415 L-266,423 L-274,430 L-282,436 L-289,445 L-288,450 L-273,452 L-257,452 L-245,455 L-242,458 L-242,478 L-243,490 L-247,496 L-255,498 L-308,498 L-317,495 L-320,486 L-319,449 L-315,440 L-305,430 L-297,424 L-292,420 L-280,411 L-278,408 L-276,408 L-276,406 L-268,399 L-258,391 L-247,380 L-236,371 L-223,361 L-216,354 L-207,347 L-200,341 L-192,334 L-186,327 L-177,320 L-171,313 L-161,306 L-156,301 L-148,294 L-131,280 L-122,272 L-111,263 L-101,253 L-90,244 L-87,243 L-85,239 L-73,228 L-63,219 L-56,214 L-54,214 L-52,210 L-44,203 L-32,193 L-27,191 L-19,191 L-13,194 L-10,192 L-8,129 L-8,67 L-7,46 L-8,13 L-5,3 Z " fill="#000000" transform="translate(352,190)"/>
<path d="M0,0 L35,0 L35,19 L3,19 L-2,17 L-5,13 L-5,4 Z " fill="#000000" transform="translate(640,340)"/>
<path d="M0,0 L13,0 L29,2 L42,7 L56,14 L69,26 L77,35 L85,48 L91,64 L92,72 L92,89 L89,111 L84,125 L74,141 L70,145 L68,145 L66,149 L55,157 L45,163 L28,169 L20,171 L-7,171 L-24,165 L-35,159 L-44,152 L-50,146 L-50,144 L-52,144 L-63,130 L-68,123 L-73,109 L-76,98 L-76,78 L-74,66 L-68,47 L-62,37 L-53,27 L-48,22 L-37,13 L-27,8 L-6,1 Z " fill="#000000" transform="translate(201,589)"/>
<path d="M0,0 L6,0 L6,170 L-13,170 L-33,163 L-41,158 L-54,146 L-63,135 L-67,130 L-74,115 L-79,99 L-80,82 L-76,62 L-70,46 L-63,35 L-52,23 L-44,17 L-36,11 L-27,6 L-17,3 Z " fill="#000000" transform="translate(669,588)"/>
<path d="M0,0 L47,0 L103,1 L117,1 L152,2 L214,2 L232,3 L239,4 L243,9 L243,23 L242,37 L239,44 L235,46 L226,47 L184,46 L158,45 L114,46 L86,45 L-1,45 L-10,42 L-13,37 L-15,16 L-16,6 L-14,2 L-12,1 Z " fill="#000000" transform="translate(324,645)"/>
<path d="M0,0 L21,0 L62,1 L149,1 L153,2 L168,3 L182,7 L191,12 L200,22 L207,38 L211,53 L215,66 L215,142 L214,212 L215,224 L213,237 L211,241 L207,243 L176,243 L166,244 L40,241 L-56,241 L-97,240 L-149,240 L-152,241 L-162,241 L-169,235 L-171,231 L-171,216 L-172,195 L-172,181 L-170,154 L-169,103 L-168,82 L-163,48 L-158,34 L-149,22 L-136,12 L-122,5 L-118,4 L-100,3 L-94,1 L-26,1 Z " fill="#000000" transform="translate(201,770)"/>
<path d="M0,0 L115,0 L115,239 L108,240 L89,241 L56,241 L43,242 L36,240 L-16,239 L-40,240 L-65,239 L-70,234 L-71,231 L-72,203 L-71,191 L-71,98 L-69,52 L-64,36 L-55,26 L-48,18 L-46,18 L-44,14 L-34,7 L-21,2 L-16,1 Z " fill="#000000" transform="translate(560,773)"/>
</svg>
