<?xml version="1.0" encoding="UTF-8"?>
<!-- Generator: visioncortex VTracer 0.6.12 -->
<svg version="1.1" xmlns="http://www.w3.org/2000/svg" width="1128" height="1128">
<path d="M0,0 L1128,0 L1128,906 L1126,905 L1125,890 L1124,699 L1123,597 L1123,565 L1122,549 L1122,258 L1123,217 L1123,154 L1124,125 L1124,10 L1121,4 L1118,3 L1065,3 L1018,4 L998,5 L993,6 L957,5 L926,6 L822,6 L818,7 L800,6 L783,7 L656,7 L622,8 L557,8 L524,9 L317,9 L284,8 L272,9 L157,9 L152,8 L109,8 L106,9 L0,9 Z " fill="#000000" transform="translate(0,0)"/>
<path d="M0,0 L27,1 L42,3 L63,10 L80,18 L90,25 L99,31 L103,35 L111,42 L122,53 L130,63 L136,71 L144,87 L149,98 L156,114 L163,131 L173,150 L179,158 L185,163 L196,169 L204,169 L217,166 L229,163 L238,160 L247,159 L275,159 L291,163 L301,165 L315,171 L323,174 L333,181 L346,190 L354,196 L378,220 L383,227 L388,232 L398,242 L405,250 L416,262 L423,270 L438,286 L452,301 L464,315 L472,323 L477,328 L486,338 L495,349 L506,359 L515,370 L530,386 L537,394 L542,399 L553,412 L561,420 L568,428 L577,437 L584,445 L587,451 L588,476 L588,518 L589,556 L589,821 L587,833 L583,835 L516,839 L438,842 L434,843 L405,843 L397,844 L394,842 L393,836 L397,793 L397,776 L399,756 L400,724 L400,704 L398,675 L395,659 L392,647 L386,628 L381,613 L375,604 L367,591 L359,579 L354,573 L354,571 L352,571 L343,560 L332,547 L325,538 L317,527 L308,516 L299,506 L292,497 L284,487 L277,478 L265,464 L258,455 L249,444 L244,441 L239,442 L232,451 L218,468 L209,478 L202,487 L195,495 L186,506 L176,518 L172,525 L164,535 L157,544 L150,552 L146,558 L141,564 L135,572 L128,580 L116,596 L107,607 L98,617 L92,625 L87,633 L78,640 L76,641 L63,640 L45,635 L27,624 L14,613 L3,599 L-2,588 L-8,571 L-11,560 L-14,540 L-15,526 L-16,474 L-16,450 L-17,422 L-17,378 L-18,328 L-22,320 L-27,315 L-34,310 L-39,305 L-56,293 L-64,286 L-78,276 L-87,268 L-98,259 L-109,247 L-116,236 L-126,223 L-131,217 L-135,209 L-139,201 L-140,196 L-138,193 L-133,193 L-120,201 L-104,209 L-82,221 L-74,226 L-58,234 L-39,245 L-23,253 L-4,263 L12,272 L26,278 L31,281 L34,284 L38,300 L42,318 L50,357 L53,371 L57,391 L63,420 L69,444 L74,467 L78,477 L82,476 L91,462 L97,451 L102,441 L106,432 L113,416 L118,402 L123,389 L132,355 L137,333 L140,317 L144,304 L146,294 L149,282 L149,274 L148,271 L143,269 L138,268 L120,279 L109,282 L94,282 L78,279 L63,274 L49,268 L33,262 L22,256 L17,253 L7,249 L-12,238 L-22,232 L-33,225 L-39,220 L-46,216 L-52,211 L-60,204 L-70,196 L-77,190 L-81,184 L-89,175 L-101,154 L-107,136 L-110,112 L-109,96 L-104,79 L-95,62 L-85,49 L-78,40 L-72,33 L-63,26 L-55,20 L-44,14 L-34,9 L-19,4 L-8,1 Z " fill="#000000" transform="translate(473,210)"/>
<path d="M0,0 L2,1 L1,18 L0,18 Z " fill="#000000" transform="translate(0,718)"/>
<path d="M0,0 L2,2 L2,21 L0,23 Z " fill="#000000" transform="translate(0,759)"/>
<path d="M0,0 L2,1 L2,49 L0,50 Z " fill="#000000" transform="translate(0,795)"/>
<path d="M0,0 L2,2 L3,16 L3,151 L0,153 Z " fill="#000000" transform="translate(0,847)"/>
<path d="M0,0 L33,0 L37,2 L39,12 L38,24 L35,28 L32,29 L10,30 L-1,33 L-13,39 L-26,52 L-34,64 L-40,73 L-46,87 L-50,92 L-58,108 L-67,125 L-75,140 L-84,157 L-90,165 L-97,172 L-113,182 L-125,186 L-189,188 L-237,190 L-277,191 L-305,191 L-357,190 L-381,189 L-421,188 L-474,188 L-486,187 L-497,183 L-510,174 L-519,165 L-528,152 L-540,130 L-551,107 L-561,88 L-571,69 L-580,57 L-592,46 L-599,41 L-611,36 L-620,35 L-625,33 L-641,34 L-645,32 L-646,30 L-646,9 L-643,5 L-596,5 L-584,4 L-521,4 L-504,3 L-463,3 L-454,2 L-439,3 L-376,4 L-334,6 L-254,6 L-212,4 L-201,4 L-178,3 L-139,2 L-104,2 L-92,1 L-70,1 Z " fill="#000000" transform="translate(729,872)"/>
<path d="M0,0 L1,0 L1,39 L-1,37 L-1,1 Z " fill="#000000" transform="translate(1127,909)"/>
<path d="M0,0 L3,2 L4,89 L5,122 L6,127 L0,127 Z " fill="#000000" transform="translate(0,1001)"/>
<path d="M0,0 L1,0 L1,15 L-378,15 L-377,13 L-374,12 L-328,11 L-318,11 L-311,10 L-283,10 L-257,9 L-243,8 L-234,9 L-220,8 L-173,8 L-167,7 L-121,7 L-64,6 L-10,6 L-3,4 Z " fill="#000000" transform="translate(1127,1113)"/>
<path d="M0,0 L42,0 L47,2 L47,3 L-4,3 L-3,1 Z " fill="#000000" transform="translate(698,1125)"/>
<path d="M0,0 L6,0 L6,2 L0,2 Z " fill="#000000" transform="translate(674,1126)"/>
<path d="M0,0 L3,1 Z " fill="#000000" transform="translate(647,1127)"/>
</svg>
