<?xml version="1.0" encoding="UTF-8"?>
<!-- Generator: visioncortex VTracer 0.6.12 -->
<svg version="1.1" xmlns="http://www.w3.org/2000/svg" width="429" height="1074">
<path d="M0,0 L16,0 L31,4 L45,11 L56,20 L66,32 L70,38 L75,49 L79,65 L78,86 L73,105 L67,116 L60,126 L47,137 L30,146 L21,149 L11,151 L11,155 L14,156 L23,156 L29,154 L35,154 L41,156 L80,157 L103,156 L117,157 L132,161 L140,166 L149,176 L159,187 L164,199 L168,221 L169,227 L171,299 L172,329 L171,352 L171,508 L167,542 L164,563 L160,576 L152,592 L142,606 L136,613 L135,616 L135,626 L136,640 L140,656 L143,673 L148,701 L151,716 L153,723 L154,735 L156,741 L160,766 L164,782 L169,806 L172,813 L175,833 L175,841 L173,845 L170,847 L157,849 L125,848 L110,848 L99,849 L81,847 L74,847 L60,849 L57,859 L52,875 L47,897 L40,925 L37,937 L32,962 L27,975 L21,982 L12,985 L-50,985 L-55,982 L-60,975 L-65,957 L-67,947 L-70,933 L-74,902 L-77,879 L-80,860 L-83,848 L-87,845 L-97,844 L-177,844 L-191,842 L-197,838 L-198,837 L-198,826 L-194,809 L-189,794 L-184,776 L-180,759 L-174,736 L-168,714 L-161,687 L-156,668 L-148,638 L-143,619 L-143,610 L-159,594 L-168,578 L-174,566 L-178,556 L-182,538 L-187,514 L-188,507 L-188,464 L-187,457 L-186,423 L-186,393 L-185,376 L-184,313 L-183,263 L-181,254 L-180,223 L-175,200 L-170,186 L-165,177 L-156,168 L-145,162 L-119,155 L-42,155 L-31,156 L-12,156 L-9,155 L-10,151 L-27,144 L-35,141 L-45,133 L-52,126 L-61,113 L-68,97 L-71,84 L-71,62 L-68,50 L-60,36 L-49,22 L-39,13 L-25,5 Z M5,49 L-1,53 L-1,55 L-5,57 L-15,66 L-32,77 L-38,82 L-40,86 L-40,94 L-34,106 L-27,113 L-16,120 L-5,123 L8,124 L24,119 L29,115 L35,112 L44,103 L48,94 L48,88 L43,83 L32,76 L20,65 L13,56 L10,51 L8,49 Z M-4,221 L-8,226 L-17,242 L-26,259 L-34,275 L-43,289 L-50,293 L-73,294 L-87,294 L-109,293 L-139,294 L-142,296 L-141,303 L-134,315 L-130,324 L-124,334 L-114,349 L-100,372 L-98,378 L-99,386 L-103,394 L-110,407 L-118,420 L-127,436 L-137,452 L-141,462 L-141,468 L-137,471 L-70,471 L-46,472 L-40,475 L-32,486 L-28,494 L-21,506 L-17,511 L-11,520 L-5,527 L-3,531 L0,533 L6,532 L12,523 L20,507 L29,491 L38,476 L43,471 L46,470 L104,471 L120,471 L137,470 L141,467 L140,461 L134,450 L129,443 L123,431 L116,420 L111,412 L103,396 L96,384 L95,381 L95,370 L102,359 L105,353 L113,340 L120,324 L128,311 L132,302 L131,297 L129,295 L115,294 L60,294 L48,293 L42,289 L34,276 L20,251 L12,237 L6,227 L2,221 Z M-153,530 L-157,534 L-157,543 L-154,551 L-150,561 L-141,573 L-139,574 L-133,574 L-130,571 L-123,542 L-123,534 L-126,531 L-134,530 Z M125,533 L120,535 L119,536 L119,548 L121,562 L124,569 L130,569 L135,561 L141,547 L142,544 L142,536 L138,533 Z " fill="#000000" transform="translate(227,30)"/>
<path d="M0,0 L6,0 L11,5 L16,11 L22,25 L22,31 L19,34 L15,35 L-8,35 L-15,32 L-16,31 L-15,21 L-7,9 Z " fill="#000000" transform="translate(223,290)"/>
<path d="M0,0 L7,1 L15,5 L17,7 L17,13 L13,23 L7,32 L4,37 L3,38 L-3,38 L-11,29 L-20,15 L-21,13 L-21,4 L-19,2 L-11,1 L-4,1 Z " fill="#000000" transform="translate(308,341)"/>
<path d="M0,0 L11,1 L46,2 L53,6 L59,14 L64,26 L69,35 L78,51 L83,60 L82,68 L74,84 L64,102 L54,120 L48,130 L43,137 L37,140 L14,141 L0,143 L-15,140 L-22,136 L-34,117 L-43,102 L-49,92 L-56,81 L-59,73 L-59,66 L-55,56 L-46,39 L-37,24 L-28,11 L-23,4 L-18,2 Z " fill="#000000" transform="translate(213,342)"/>
<path d="M0,0 L26,0 L31,2 L33,4 L33,11 L29,21 L23,30 L16,41 L11,44 L6,42 L-1,33 L-8,21 L-14,9 L-13,4 L-8,1 Z " fill="#000000" transform="translate(131,344)"/>
<path d="M0,0 L6,0 L14,10 L23,26 L29,37 L30,39 L30,46 L26,50 L15,51 L-16,52 L-21,49 L-23,47 L-23,39 L-10,14 L-3,4 Z " fill="#000000" transform="translate(306,432)"/>
<path d="M0,0 L7,1 L14,11 L20,20 L30,38 L30,43 L25,47 L21,48 L7,48 L-6,47 L-15,47 L-21,44 L-22,42 L-21,33 L-17,27 L-9,11 L-2,1 Z " fill="#000000" transform="translate(139,434)"/>
<path d="M0,0 L19,0 L24,3 L24,11 L16,23 L14,25 L7,25 L-2,13 L-3,10 L-3,2 Z " fill="#000000" transform="translate(214,501)"/>
</svg>
