<?xml version="1.0" encoding="UTF-8"?>
<!-- Generator: visioncortex VTracer 0.6.12 -->
<svg version="1.1" xmlns="http://www.w3.org/2000/svg" width="972" height="1347">
<path d="M0,0 L18,1 L61,1 L156,2 L292,2 L401,3 L578,3 L700,4 L744,4 L866,5 L930,5 L934,6 L934,60 L706,60 L565,59 L396,59 L362,58 L209,58 L174,57 L94,57 L86,56 L67,57 L-2,57 L-38,56 L-38,1 Z " fill="#000000" transform="translate(38,9)"/>
<path d="M0,0 L101,0 L188,1 L305,1 L311,2 L344,1 L395,1 L445,2 L704,2 L710,3 L728,2 L728,55 L727,56 L720,57 L697,57 L688,58 L683,57 L614,56 L578,56 L551,55 L472,55 L457,54 L420,54 L414,53 L413,54 L376,53 L283,53 L276,52 L262,52 L258,50 L253,51 L250,52 L220,52 L213,51 L210,52 L194,52 L183,53 L168,53 L166,52 L48,52 L46,51 L20,52 L3,53 L-6,54 L-16,59 L-23,63 L-31,70 L-41,83 L-48,98 L-50,118 L-52,182 L-52,228 L-53,245 L-54,329 L-55,407 L-55,464 L-56,470 L-56,478 L-55,481 L-55,501 L-56,553 L-56,605 L-57,684 L-57,718 L-58,777 L-58,856 L-59,930 L-56,942 L-52,952 L-49,955 L-45,962 L-38,970 L-22,979 L-15,983 L-6,984 L-4,985 L20,985 L37,986 L45,987 L74,987 L80,988 L83,987 L111,987 L118,988 L147,987 L166,988 L178,988 L185,987 L187,988 L220,988 L253,989 L261,988 L272,989 L546,989 L549,990 L562,990 L576,989 L583,990 L657,990 L702,989 L707,990 L728,991 L728,1043 L667,1043 L616,1042 L607,1043 L601,1042 L565,1042 L557,1041 L488,1041 L470,1040 L330,1040 L320,1039 L310,1040 L295,1039 L241,1039 L196,1038 L174,1038 L161,1037 L94,1037 L77,1036 L73,1035 L71,1036 L36,1037 L26,1036 L-50,1035 L-83,1034 L-97,1034 L-100,1031 L-100,956 L-99,950 L-100,919 L-99,887 L-98,817 L-98,783 L-97,741 L-97,712 L-96,678 L-97,664 L-96,657 L-95,635 L-95,580 L-94,558 L-95,533 L-94,480 L-94,408 L-93,376 L-93,323 L-92,307 L-92,158 L-91,76 L-90,57 L-90,26 L-89,8 L-87,2 L-86,1 L-26,1 Z M-70,705 L-71,707 L-70,709 L-67,708 L-67,705 Z " fill="#000000" transform="translate(244,145)"/>
<path d="M0,0 L7,0 L19,3 L30,12 L37,22 L42,32 L44,40 L44,70 L41,76 L32,84 L28,94 L28,105 L32,115 L39,121 L53,127 L62,129 L86,140 L97,147 L104,154 L110,166 L113,182 L117,200 L120,217 L124,242 L126,257 L128,263 L130,274 L133,288 L136,322 L139,378 L139,393 L134,407 L129,441 L124,447 L114,455 L110,458 L106,457 L106,448 L108,438 L103,439 L100,443 L95,443 L94,438 L96,416 L99,403 L99,389 L94,364 L92,348 L88,319 L85,305 L84,292 L82,289 L80,277 L75,277 L76,297 L78,331 L80,351 L81,354 L82,365 L83,368 L84,382 L87,399 L89,413 L88,422 L84,431 L83,438 L82,469 L82,483 L81,501 L81,519 L80,544 L80,571 L79,585 L78,629 L76,715 L75,742 L77,752 L81,759 L92,768 L103,779 L104,785 L94,789 L83,787 L59,781 L47,779 L35,776 L29,772 L27,764 L27,754 L24,746 L22,727 L20,678 L19,671 L19,656 L18,629 L17,616 L16,583 L15,578 L14,563 L13,561 L12,548 L10,541 L5,508 L1,488 L-1,482 L-4,483 L-6,493 L-10,518 L-12,523 L-16,549 L-19,565 L-23,581 L-23,598 L-25,614 L-30,681 L-32,707 L-33,712 L-34,739 L-36,748 L-38,758 L-40,771 L-44,774 L-57,778 L-63,780 L-82,781 L-98,784 L-106,784 L-115,780 L-115,775 L-108,768 L-99,762 L-91,754 L-88,749 L-87,710 L-87,517 L-88,477 L-89,430 L-92,421 L-93,413 L-90,397 L-88,385 L-85,361 L-83,346 L-79,312 L-78,293 L-77,271 L-81,271 L-83,277 L-85,288 L-92,322 L-94,334 L-100,360 L-101,373 L-104,392 L-103,401 L-98,424 L-98,434 L-99,437 L-104,438 L-106,436 L-111,435 L-109,443 L-109,452 L-114,455 L-119,452 L-127,446 L-133,437 L-136,406 L-139,396 L-142,388 L-143,379 L-140,348 L-138,321 L-137,318 L-135,288 L-133,277 L-129,261 L-126,247 L-125,241 L-124,234 L-117,202 L-111,172 L-107,159 L-102,150 L-95,143 L-77,135 L-65,131 L-62,129 L-56,127 L-44,124 L-31,117 L-24,107 L-23,104 L-23,94 L-29,82 L-29,80 L-33,78 L-38,70 L-39,48 L-36,28 L-28,15 L-19,6 L-7,1 Z M2,82 L3,86 L6,86 L6,82 Z M-66,183 L-66,187 L-62,187 L-63,183 Z " fill="#000000" transform="translate(657,297)"/>
<path d="M0,0 L6,0 L9,3 L9,78 L5,82 L-1,83 L-5,79 L-5,66 L-4,56 L-5,52 L-5,17 L-4,6 L-1,1 Z " fill="#000000" transform="translate(144,1230)"/>
<path d="M0,0 L13,0 L22,1 L31,6 L40,16 L41,25 L40,27 L34,28 L29,23 L28,19 L26,19 L22,15 L18,13 L1,13 L-7,19 L-11,24 L-13,31 L-14,48 L-11,59 L-8,65 L-4,68 L4,71 L14,71 L24,66 L28,61 L32,53 L35,50 L40,50 L42,53 L41,64 L36,72 L33,73 L31,77 L20,83 L4,83 L-8,80 L-16,75 L-23,65 L-27,49 L-27,34 L-24,24 L-18,12 L-10,4 Z " fill="#000000" transform="translate(199,1230)"/>
<path d="M0,0 L17,0 L29,2 L37,8 L44,17 L48,24 L50,39 L49,50 L44,64 L40,71 L22,82 L16,83 L2,83 L-10,78 L-15,74 L-21,66 L-25,58 L-27,45 L-26,31 L-22,19 L-16,10 L-7,3 Z M11,9 L-1,13 L-7,18 L-12,25 L-14,33 L-15,47 L-12,57 L-5,66 L1,71 L19,71 L23,69 L27,64 L32,59 L35,51 L36,45 L36,34 L34,24 L29,17 L22,12 L16,9 Z " fill="#000000" transform="translate(357,1232)"/>
<path d="M0,0 L8,0 L13,4 L17,14 L27,44 L32,54 L37,70 L40,79 L36,82 L28,81 L25,75 L20,60 L20,58 L2,57 L-6,57 L-11,59 L-19,75 L-23,81 L-31,81 L-33,78 L-32,72 L-26,59 L-22,48 L-13,28 L-6,9 L-1,1 Z M2,22 L-3,32 L-5,39 L-4,45 L-1,46 L10,46 L12,44 L12,35 L7,23 Z " fill="#000000" transform="translate(282,1233)"/>
</svg>
