<?xml version="1.0" encoding="UTF-8"?>
<!-- Generator: visioncortex VTracer 0.6.12 -->
<svg version="1.1" xmlns="http://www.w3.org/2000/svg" width="432" height="1077">
<path d="M0,0 L9,0 L36,14 L40,19 L47,28 L52,39 L54,44 L56,55 L56,74 L54,89 L50,105 L43,121 L33,137 L24,148 L17,154 L7,159 L-4,161 L-14,160 L-26,155 L-34,148 L-41,141 L-52,123 L-59,107 L-65,85 L-66,73 L-66,57 L-62,40 L-58,31 L-52,21 L-46,16 L-41,11 L-34,6 L-18,1 Z M-7,29 L-11,33 L-12,46 L-15,51 L-27,56 L-35,60 L-39,65 L-39,74 L-37,86 L-33,103 L-30,108 L-27,116 L-18,127 L-10,133 L-2,133 L6,127 L15,117 L22,103 L26,93 L30,75 L30,67 L27,62 L19,58 L6,53 L3,52 L0,32 L-3,29 Z " fill="#000000" transform="translate(265,30)"/>
<path d="M0,0 L5,1 L6,5 L4,7 L-1,7 L-3,3 Z " fill="#000000" transform="translate(98,147)"/>
<path d="M0,0 L56,0 L132,3 L205,4 L222,7 L230,11 L240,18 L246,25 L250,34 L253,49 L252,65 L252,171 L250,219 L250,250 L251,257 L250,262 L250,298 L247,332 L244,340 L240,356 L232,373 L228,380 L220,392 L218,395 L216,395 L215,398 L211,401 L202,401 L193,395 L185,390 L180,387 L178,381 L178,313 L176,297 L170,282 L163,271 L151,259 L140,252 L129,248 L114,245 L96,244 L63,244 L55,242 L53,239 L54,232 L62,219 L67,209 L72,195 L76,177 L76,148 L72,134 L65,120 L62,117 L62,115 L60,115 L53,107 L39,98 L29,94 L19,92 L8,92 L-4,94 L-16,99 L-27,106 L-32,109 L-37,109 L-40,106 L-41,94 L-41,69 L-40,39 L-36,26 L-29,15 L-20,7 L-12,3 Z M212,309 L210,311 L208,334 L209,343 L213,343 L217,335 L219,322 L220,312 L218,309 Z " fill="#000000" transform="translate(152,201)"/>
<path d="M0,0 L9,1 L24,5 L32,10 L37,15 L44,23 L48,31 L52,42 L54,53 L54,72 L50,88 L47,98 L41,110 L33,121 L27,129 L22,134 L14,138 L3,141 L-5,140 L-15,138 L-23,134 L-32,126 L-41,113 L-49,97 L-53,83 L-55,70 L-55,52 L-54,40 L-50,29 L-41,16 L-32,8 L-23,3 L-13,1 Z M-8,58 L-19,59 L-26,59 L-29,62 L-30,69 L-26,89 L-16,108 L-8,115 L-6,116 L3,116 L12,108 L19,98 L26,84 L29,74 L29,65 L24,60 L14,58 Z " fill="#000000" transform="translate(166,306)"/>
<path d="M0,0 L32,0 L59,1 L79,1 L134,2 L147,2 L151,5 L152,9 L149,14 L139,30 L135,43 L134,54 L133,121 L130,127 L125,131 L113,138 L104,146 L97,158 L95,158 L93,164 L90,182 L88,281 L87,285 L87,293 L88,301 L88,320 L90,335 L96,356 L102,368 L107,378 L108,385 L105,398 L102,408 L99,423 L92,456 L89,464 L89,485 L95,489 L127,489 L134,492 L137,495 L139,511 L140,525 L146,553 L151,579 L150,586 L144,589 L87,589 L72,588 L26,588 L3,587 L-1,583 L-2,554 L-2,524 L-1,471 L0,463 L1,407 L1,332 L-2,325 L-8,317 L-15,306 L-20,298 L-29,278 L-34,256 L-35,248 L-35,211 L-34,123 L-33,92 L-33,76 L-32,34 L-29,24 L-21,11 L-11,4 Z M-3,237 L-6,240 L-5,254 L-2,263 L1,264 L3,259 L3,239 L1,237 Z " fill="#000000" transform="translate(66,456)"/>
<path d="M0,0 L10,1 L30,9 L37,16 L42,21 L48,28 L52,40 L54,54 L54,85 L53,120 L51,125 L48,127 L-9,127 L-50,125 L-54,122 L-55,77 L-54,43 L-49,30 L-44,22 L-36,13 L-27,7 L-9,1 Z M-19,59 L-23,61 L-25,69 L-24,78 L-22,87 L-17,97 L-9,106 L-5,108 L3,108 L13,100 L17,95 L22,84 L24,75 L24,64 L20,60 L17,59 Z " fill="#000000" transform="translate(265,460)"/>
<path d="M0,0 L57,0 L73,1 L110,1 L135,2 L151,10 L156,15 L161,23 L165,36 L166,49 L166,76 L165,95 L165,151 L164,173 L161,190 L155,208 L147,222 L144,226 L143,232 L146,253 L149,274 L152,283 L156,303 L158,315 L160,321 L160,330 L156,334 L143,335 L127,335 L117,336 L113,337 L112,343 L112,351 L106,383 L103,401 L98,422 L92,439 L86,445 L83,446 L45,446 L38,442 L35,436 L29,418 L24,396 L21,377 L19,356 L17,335 L9,333 L0,333 L-9,332 L-19,332 L-28,330 L-30,327 L-30,319 L-26,302 L-24,293 L-21,284 L-19,272 L-12,246 L-9,228 L-13,219 L-20,208 L-25,193 L-27,182 L-28,171 L-28,61 L-27,33 L-22,19 L-14,8 L-4,2 Z " fill="#000000" transform="translate(194,600)"/>
</svg>
