<?xml version="1.0" encoding="UTF-8"?>
<!-- Generator: visioncortex VTracer 0.6.12 -->
<svg version="1.1" xmlns="http://www.w3.org/2000/svg" width="870" height="1182">
<path d="M0,0 L9,3 L23,12 L33,21 L39,29 L43,39 L46,49 L50,63 L56,75 L67,85 L73,89 L74,92 L78,94 L92,105 L104,116 L112,123 L120,130 L130,137 L138,145 L150,153 L156,160 L165,166 L173,173 L183,181 L193,190 L201,197 L209,203 L214,208 L227,219 L237,228 L251,238 L259,245 L259,247 L263,249 L274,258 L286,267 L294,274 L302,281 L305,287 L304,296 L300,306 L294,317 L292,327 L292,337 L294,348 L298,356 L309,367 L319,371 L326,373 L334,373 L344,370 L355,364 L363,357 L367,352 L373,352 L383,360 L393,368 L401,375 L408,382 L415,392 L421,397 L427,405 L436,415 L446,428 L451,434 L456,439 L468,453 L478,464 L484,472 L491,480 L498,488 L506,495 L510,501 L517,509 L521,515 L529,522 L536,531 L541,536 L553,550 L560,558 L565,562 L571,570 L575,575 L584,586 L596,599 L602,604 L614,605 L631,610 L641,617 L652,624 L661,637 L665,642 L674,662 L674,672 L672,674 L660,674 L651,673 L647,675 L647,688 L649,697 L648,724 L645,731 L642,733 L632,733 L619,730 L603,725 L593,720 L584,713 L574,702 L568,694 L564,689 L555,670 L546,660 L536,648 L530,643 L524,635 L519,630 L505,616 L500,611 L497,608 L497,606 L493,604 L488,600 L481,592 L452,563 L448,560 L448,558 L446,558 L439,550 L433,545 L426,537 L411,522 L406,517 L398,510 L389,510 L366,521 L347,531 L338,535 L318,547 L302,554 L291,560 L281,565 L273,570 L271,570 L271,579 L276,588 L283,598 L290,606 L295,614 L304,625 L308,632 L315,642 L322,653 L332,669 L339,681 L345,688 L349,696 L355,703 L362,714 L367,722 L378,737 L382,743 L386,750 L384,756 L376,761 L364,767 L350,776 L347,780 L348,790 L353,803 L358,815 L360,823 L364,832 L369,847 L376,865 L381,879 L385,888 L391,903 L397,921 L404,937 L414,963 L421,978 L426,995 L430,1003 L437,1023 L442,1032 L446,1045 L451,1059 L456,1069 L462,1085 L467,1096 L472,1110 L471,1116 L466,1119 L419,1122 L411,1123 L404,1120 L398,1112 L393,1103 L383,1084 L374,1069 L369,1059 L358,1040 L350,1026 L340,1007 L335,1000 L329,989 L321,974 L316,966 L309,953 L303,944 L295,928 L291,922 L286,913 L280,902 L272,889 L266,877 L262,871 L259,866 L247,846 L241,841 L234,841 L227,844 L218,844 L210,836 L202,820 L190,799 L184,787 L178,779 L171,769 L168,768 L165,771 L160,780 L152,795 L148,805 L143,813 L137,828 L131,840 L126,844 L118,845 L105,840 L97,839 L92,842 L85,852 L79,863 L76,868 L62,893 L50,915 L44,925 L35,941 L28,955 L21,967 L16,977 L11,985 L-1,1006 L-7,1016 L-12,1026 L-19,1038 L-22,1044 L-29,1055 L-37,1071 L-43,1081 L-54,1101 L-60,1110 L-65,1115 L-67,1116 L-83,1118 L-108,1118 L-119,1117 L-135,1115 L-138,1111 L-137,1102 L-133,1095 L-124,1072 L-120,1063 L-108,1032 L-101,1014 L-94,995 L-87,979 L-78,952 L-73,939 L-68,927 L-65,920 L-61,909 L-56,896 L-49,876 L-45,866 L-40,854 L-33,837 L-26,817 L-22,807 L-20,799 L-21,790 L-26,786 L-38,780 L-49,777 L-52,774 L-53,766 L-46,756 L-40,744 L-31,732 L-26,724 L-23,721 L-18,712 L-14,707 L-8,697 L-2,689 L7,675 L11,670 L14,663 L20,655 L26,647 L35,633 L44,621 L51,610 L59,599 L66,589 L71,581 L72,566 L82,552 L89,536 L95,523 L99,511 L103,505 L111,486 L118,471 L122,459 L130,444 L135,430 L141,418 L145,406 L152,392 L161,373 L164,363 L167,357 L170,347 L175,335 L180,325 L184,310 L183,301 L176,292 L171,286 L163,280 L155,273 L148,265 L141,258 L133,251 L122,240 L115,232 L113,228 L109,226 L99,217 L95,212 L90,207 L85,202 L77,195 L70,187 L61,178 L56,174 L49,166 L36,153 L31,148 L20,138 L13,130 L8,123 L0,117 L-6,112 L-23,106 L-38,98 L-46,90 L-53,82 L-58,76 L-63,64 L-65,55 L-70,48 L-73,35 L-73,24 L-68,20 L-61,18 L-55,18 L-44,14 L-31,14 L-22,16 L-16,16 L-13,15 L-11,11 L-7,5 Z M10,21 L5,26 L0,34 L-7,35 L-19,32 L-32,30 L-48,30 L-53,33 L-54,36 L-54,54 L-48,66 L-41,75 L-33,82 L-23,89 L-7,97 L11,101 L18,107 L25,116 L32,121 L40,131 L45,136 L53,142 L58,148 L66,155 L71,160 L82,172 L90,179 L104,194 L112,201 L119,208 L127,214 L131,219 L139,226 L154,241 L159,246 L169,256 L177,263 L189,275 L195,282 L200,286 L206,290 L209,295 L211,302 L211,313 L208,324 L203,336 L195,354 L188,369 L182,385 L176,399 L170,413 L165,424 L157,440 L153,451 L143,475 L133,493 L130,503 L120,525 L116,536 L113,545 L110,552 L110,558 L114,562 L121,564 L142,565 L189,565 L200,566 L212,566 L231,565 L237,563 L247,561 L258,555 L268,547 L282,538 L292,533 L311,523 L334,511 L357,499 L365,494 L374,491 L382,487 L396,481 L403,482 L409,485 L418,497 L424,502 L426,502 L428,506 L457,535 L464,543 L469,547 L473,552 L478,556 L485,564 L496,573 L503,582 L511,590 L518,596 L524,603 L532,610 L554,632 L559,637 L564,643 L570,660 L576,672 L584,684 L600,700 L606,704 L611,707 L621,712 L625,713 L630,710 L632,708 L632,694 L628,667 L627,663 L627,654 L630,652 L637,651 L638,648 L630,633 L624,630 L613,627 L597,626 L586,622 L579,615 L575,609 L564,597 L559,589 L553,584 L549,578 L541,570 L533,560 L526,553 L519,545 L510,535 L504,526 L491,512 L484,503 L478,498 L470,488 L455,472 L449,463 L439,453 L430,442 L423,435 L415,425 L403,412 L397,405 L395,405 L393,401 L381,388 L376,385 L370,385 L354,393 L344,396 L339,397 L320,397 L310,393 L296,386 L291,382 L282,371 L274,357 L271,345 L269,331 L271,314 L276,302 L277,301 L277,293 L271,285 L266,280 L250,267 L243,261 L233,253 L223,244 L211,234 L205,227 L194,218 L187,212 L179,206 L170,198 L160,190 L152,183 L146,176 L137,171 L123,159 L117,154 L112,149 L99,138 L92,132 L84,125 L74,117 L61,105 L53,99 L45,93 L39,85 L37,81 L32,53 L28,41 L21,28 L14,22 Z M315,798 L305,800 L299,804 L290,807 L277,816 L271,820 L266,824 L265,826 L265,833 L270,844 L276,856 L280,862 L284,869 L289,877 L293,886 L303,901 L309,912 L317,928 L325,942 L337,963 L341,968 L347,979 L355,994 L363,1007 L369,1018 L373,1026 L377,1032 L381,1040 L387,1050 L391,1056 L397,1068 L409,1089 L413,1098 L419,1102 L426,1103 L434,1103 L439,1099 L439,1092 L433,1077 L427,1059 L422,1049 L417,1034 L410,1015 L402,995 L393,971 L387,956 L377,930 L371,916 L363,894 L355,874 L347,855 L343,844 L332,818 L329,811 L324,802 L319,798 Z M8,804 L4,809 L1,814 L-2,822 L-6,831 L-13,849 L-21,869 L-29,889 L-37,911 L-45,931 L-52,948 L-57,962 L-63,978 L-69,993 L-75,1008 L-78,1018 L-85,1033 L-88,1044 L-95,1059 L-97,1063 L-99,1071 L-103,1082 L-105,1093 L-101,1097 L-98,1098 L-85,1098 L-78,1095 L-71,1087 L-56,1060 L-50,1050 L-42,1034 L-37,1025 L-31,1015 L-27,1007 L-23,1002 L-17,991 L-12,983 L-4,967 L6,949 L18,926 L21,921 L28,908 L40,886 L52,864 L57,852 L64,843 L66,832 L65,825 L51,817 L43,816 L41,813 L28,807 L15,804 Z " fill="#000000" transform="translate(168,31)"/>
<path d="M0,0 L21,1 L27,4 L35,6 L41,10 L46,13 L51,18 L58,25 L62,31 L68,34 L83,36 L97,43 L104,50 L111,58 L118,68 L122,81 L123,87 L123,108 L121,117 L116,127 L109,136 L101,143 L82,145 L71,151 L63,158 L58,161 L48,165 L32,168 L23,168 L12,167 L-4,161 L-17,153 L-24,145 L-34,132 L-39,124 L-44,110 L-44,75 L-48,62 L-49,57 L-49,45 L-47,35 L-41,25 L-31,14 L-21,7 L-9,1 Z M-11,71 L-18,77 L-20,84 L-21,91 L-21,104 L-18,116 L-13,125 L-2,136 L10,143 L22,146 L35,146 L47,142 L56,136 L61,130 L63,126 L62,120 L55,106 L48,94 L42,77 L39,72 L22,71 L14,73 L2,72 L-3,71 Z " fill="#000000" transform="translate(542,193)"/>
</svg>
