<?xml version="1.0" encoding="UTF-8"?>
<!-- Generator: visioncortex VTracer 0.6.12 -->
<svg version="1.1" xmlns="http://www.w3.org/2000/svg" width="1155" height="1227">
<path d="M0,0 L7,2 L40,2 L46,3 L51,1 L56,2 L58,3 L99,3 L133,4 L194,5 L229,5 L271,6 L284,6 L311,7 L354,7 L409,8 L419,9 L425,8 L540,8 L559,9 L625,9 L668,10 L737,10 L771,11 L803,11 L820,10 L842,10 L850,11 L875,11 L879,16 L880,25 L880,128 L881,132 L890,134 L889,138 L885,140 L881,148 L880,166 L880,210 L879,218 L879,232 L880,262 L880,302 L878,312 L879,323 L879,421 L878,445 L878,509 L877,524 L877,613 L876,649 L875,726 L875,745 L874,780 L874,894 L873,1001 L873,1032 L871,1045 L868,1047 L807,1047 L800,1048 L798,1047 L781,1047 L776,1046 L763,1046 L758,1045 L756,1046 L695,1047 L616,1045 L528,1045 L526,1044 L429,1044 L389,1043 L340,1043 L285,1042 L240,1042 L235,1043 L193,1042 L180,1042 L167,1043 L163,1042 L123,1042 L59,1041 L17,1041 L10,1042 L8,1041 L-32,1040 L-93,1040 L-110,1039 L-130,1039 L-142,1038 L-146,1039 L-158,1039 L-173,1038 L-177,1035 L-178,1030 L-179,1008 L-178,1000 L-178,941 L-177,923 L-177,841 L-176,738 L-175,685 L-175,640 L-174,634 L-175,630 L-175,586 L-173,427 L-173,381 L-172,294 L-172,244 L-171,188 L-172,166 L-171,153 L-171,42 L-170,31 L-170,7 L-166,2 L-160,1 L-50,1 L-32,2 L-25,3 L-17,1 L-4,1 Z M353,84 L339,88 L326,92 L318,97 L311,102 L304,112 L299,117 L295,126 L290,142 L289,158 L292,174 L302,192 L312,203 L322,210 L338,218 L353,221 L367,221 L375,219 L378,217 L388,214 L396,208 L402,204 L409,198 L416,188 L422,176 L426,160 L425,141 L421,128 L410,108 L401,101 L383,89 L375,87 L373,86 Z M271,242 L248,243 L241,246 L239,247 L227,249 L213,257 L200,267 L191,277 L184,287 L181,293 L176,306 L173,322 L172,354 L172,424 L171,452 L171,511 L173,529 L176,535 L179,547 L183,552 L187,559 L191,565 L196,570 L204,578 L210,581 L215,584 L226,590 L237,594 L251,596 L256,601 L256,632 L254,732 L254,742 L253,751 L254,758 L253,832 L252,916 L252,985 L255,993 L260,996 L275,997 L294,997 L304,998 L319,997 L322,998 L329,998 L336,993 L337,990 L338,976 L339,921 L339,883 L340,782 L340,759 L342,662 L344,603 L346,600 L358,600 L360,604 L360,653 L359,672 L360,679 L359,716 L359,795 L358,893 L357,908 L357,967 L358,990 L361,995 L364,997 L381,998 L434,998 L439,995 L442,986 L442,975 L443,958 L443,919 L444,898 L444,863 L445,784 L445,762 L446,729 L446,681 L447,646 L447,618 L448,604 L450,600 L459,597 L476,594 L492,586 L506,577 L511,573 L521,560 L527,551 L533,533 L535,525 L536,510 L536,485 L537,480 L537,449 L538,401 L538,377 L537,356 L537,322 L533,307 L528,294 L523,286 L520,281 L514,273 L509,268 L504,264 L499,259 L493,255 L475,248 L467,246 L441,244 L432,243 L391,243 L358,242 Z M828,917 L828,920 L831,919 L830,917 Z " fill="#000000" transform="translate(231,37)"/>
<path d="M0,0 L6,1 L11,5 L20,24 L23,27 L28,27 L34,19 L41,9 L45,4 L49,2 L55,2 L57,3 L56,8 L50,18 L47,21 L43,28 L38,33 L35,40 L36,46 L41,56 L47,63 L52,72 L56,76 L57,82 L56,84 L49,84 L42,81 L38,75 L31,61 L26,55 L21,55 L17,61 L11,69 L8,74 L4,80 L2,81 L-6,81 L-9,77 L-5,71 L3,62 L10,51 L15,43 L15,37 L3,16 L-3,6 L-2,1 Z " fill="#000000" transform="translate(46,1106)"/>
<path d="M0,0 L6,2 L7,4 L6,18 L2,26 L-5,27 L-4,21 L-3,19 L-3,13 L-5,9 L-5,3 Z " fill="#000000" transform="translate(123,1109)"/>
<path d="M0,0 L20,1 L43,2 L45,4 L45,11 L35,25 L25,40 L20,51 L15,72 L12,79 L11,80 L4,80 L1,76 L3,65 L10,47 L20,30 L27,19 L26,14 L18,12 L1,12 L-5,9 L-5,3 Z " fill="#000000" transform="translate(153,1111)"/>
<path d="M0,0 L7,1 L18,4 L25,12 L29,23 L29,49 L26,69 L19,77 L12,82 L0,82 L-9,80 L-17,75 L-21,68 L-24,54 L-24,34 L-21,25 L-19,16 L-13,7 L-7,3 Z M2,10 L-4,13 L-10,22 L-12,31 L-12,54 L-9,63 L-5,69 L-2,71 L4,71 L12,67 L15,61 L17,50 L17,22 L14,15 L7,10 Z " fill="#000000" transform="translate(230,1113)"/>
</svg>
