<?xml version="1.0" encoding="UTF-8"?>
<!-- Generator: visioncortex VTracer 0.6.12 -->
<svg version="1.1" xmlns="http://www.w3.org/2000/svg" width="1119" height="1227">
<path d="M0,0 L7,1 L129,1 L157,2 L170,1 L172,2 L242,2 L248,3 L353,3 L365,2 L372,4 L420,5 L566,5 L655,6 L687,6 L718,7 L773,7 L782,8 L787,7 L792,8 L811,8 L835,9 L910,9 L923,8 L935,9 L1004,9 L1008,13 L1009,26 L1009,89 L1008,119 L1008,140 L1007,221 L1006,271 L1005,281 L1005,328 L1004,343 L1003,424 L1002,489 L1001,541 L1001,576 L1000,639 L999,650 L999,705 L998,738 L998,775 L997,779 L997,823 L996,855 L995,900 L995,925 L994,948 L994,997 L995,1000 L995,1007 L994,1010 L989,1013 L983,1012 L981,1010 L972,1009 L962,1009 L948,1012 L883,1011 L860,1011 L834,1012 L812,1011 L790,1011 L780,1010 L756,1011 L715,1010 L698,1009 L615,1009 L602,1008 L583,1008 L576,1007 L543,1007 L508,1006 L493,1007 L465,1007 L453,1006 L442,1006 L430,1007 L426,1011 L423,1011 L421,1007 L412,1006 L379,1006 L344,1005 L340,1006 L318,1006 L279,1005 L275,1004 L273,1005 L212,1005 L199,1003 L184,1004 L176,1004 L174,1003 L83,1003 L72,1004 L66,1003 L43,1003 L24,1002 L-35,1003 L-41,1000 L-42,994 L-40,984 L-40,943 L-39,884 L-39,855 L-38,772 L-37,753 L-37,735 L-36,708 L-35,650 L-35,620 L-34,613 L-34,599 L-33,578 L-34,573 L-33,512 L-33,455 L-31,440 L-31,387 L-30,335 L-30,288 L-28,231 L-27,144 L-26,130 L-26,60 L-25,34 L-25,6 L-21,2 Z M271,9 L267,13 L268,16 L273,17 L276,14 L274,9 Z M484,134 L470,135 L460,140 L451,144 L446,149 L439,155 L432,167 L429,174 L426,187 L426,205 L431,220 L437,231 L446,241 L456,248 L463,252 L473,254 L488,254 L505,251 L517,244 L529,233 L534,225 L540,210 L542,203 L542,181 L538,167 L530,156 L519,145 L507,137 L498,134 Z M477,272 L463,273 L452,276 L434,281 L428,285 L418,294 L408,296 L393,308 L384,319 L376,328 L367,342 L366,348 L362,350 L354,365 L350,372 L344,382 L341,387 L328,411 L320,424 L315,436 L307,449 L299,463 L292,474 L285,488 L284,497 L289,502 L301,511 L308,515 L318,520 L325,519 L328,515 L329,511 L333,507 L346,485 L351,477 L357,466 L365,452 L378,429 L386,413 L398,392 L406,379 L412,378 L413,379 L413,474 L412,480 L412,536 L411,550 L411,616 L410,681 L410,751 L409,787 L409,803 L408,846 L408,868 L411,874 L413,875 L436,876 L452,876 L457,873 L460,868 L461,860 L461,827 L462,759 L463,696 L463,637 L465,599 L466,595 L471,592 L484,592 L492,595 L495,604 L494,706 L494,736 L493,787 L493,863 L495,873 L498,876 L536,877 L544,875 L547,868 L549,843 L548,793 L549,736 L549,691 L550,669 L550,629 L552,613 L551,608 L551,550 L552,541 L552,490 L553,405 L554,394 L554,384 L555,379 L561,380 L563,385 L568,395 L574,404 L582,422 L587,427 L589,434 L596,446 L600,453 L610,472 L620,491 L624,497 L628,505 L636,518 L642,522 L649,520 L657,516 L662,513 L670,510 L679,503 L681,500 L681,488 L676,483 L671,471 L666,464 L658,448 L651,434 L646,427 L640,416 L632,400 L629,397 L623,383 L615,368 L607,353 L601,341 L594,331 L583,318 L578,310 L572,306 L562,297 L556,293 L544,285 L535,282 L531,279 L519,278 L510,274 L508,273 L489,272 Z M568,762 L569,764 Z M987,819 L987,821 L989,820 Z M891,1002 L891,1004 L893,1004 L893,1002 Z " fill="#000000" transform="translate(78,36)"/>
<path d="M0,0 L47,0 L50,3 L50,9 L45,14 L15,12 L10,15 L8,19 L8,33 L13,34 L21,34 L31,33 L40,36 L41,37 L41,44 L40,45 L8,45 L6,57 L5,74 L3,79 L-2,81 L-6,77 L-6,59 L-4,10 L-3,2 Z " fill="#000000" transform="translate(122,1107)"/>
<path d="M0,0 L8,0 L11,4 L12,31 L14,32 L22,26 L30,18 L40,10 L44,5 L48,1 L60,0 L61,1 L61,6 L53,15 L44,22 L35,32 L34,36 L40,48 L48,58 L54,68 L60,76 L61,81 L59,83 L49,83 L44,78 L40,74 L35,64 L26,50 L24,46 L19,45 L13,50 L10,56 L9,78 L5,82 L-1,82 L-4,78 L-4,58 L-3,45 L-2,39 L-3,32 L-3,11 L-1,1 Z " fill="#000000" transform="translate(39,1107)"/>
<path d="M0,0 L5,2 L7,5 L7,49 L6,56 L6,78 L3,83 L-1,85 L-7,84 L-9,80 L-9,58 L-8,17 L-7,5 L-4,1 Z " fill="#000000" transform="translate(272,1109)"/>
<path d="M0,0 L9,0 L13,4 L15,9 L17,18 L23,33 L28,52 L30,55 L34,68 L37,78 L34,82 L28,81 L24,78 L18,61 L17,59 L11,57 L-10,57 L-15,62 L-22,78 L-25,81 L-32,80 L-34,75 L-27,57 L-23,49 L-16,35 L-13,26 L-5,5 Z M1,22 L-6,36 L-6,44 L-5,46 L10,46 L12,44 L11,36 L8,25 L6,22 Z " fill="#000000" transform="translate(210,1111)"/>
</svg>
