<?xml version="1.0" encoding="UTF-8"?>
<!-- Generator: visioncortex VTracer 0.6.12 -->
<svg version="1.1" xmlns="http://www.w3.org/2000/svg" width="519" height="1221">
<path d="M0,0 L20,0 L34,3 L50,10 L61,17 L68,23 L73,27 L82,40 L89,51 L93,64 L95,75 L95,101 L92,112 L90,115 L87,124 L79,136 L72,144 L67,149 L57,156 L40,164 L21,168 L-4,167 L-14,164 L-35,152 L-42,145 L-49,139 L-55,130 L-61,121 L-67,106 L-70,95 L-70,73 L-67,58 L-61,43 L-55,33 L-50,28 L-43,20 L-35,14 L-26,8 L-11,2 Z M45,26 L33,37 L27,47 L25,65 L20,75 L12,82 L-9,87 L-25,95 L-34,104 L-38,112 L-39,115 L-39,126 L-36,132 L-26,141 L-11,149 L4,153 L15,153 L28,152 L43,147 L54,140 L62,132 L67,128 L73,120 L78,107 L80,99 L81,90 L81,76 L79,65 L73,51 L66,41 L58,32 L54,29 L52,29 L52,27 Z " fill="#000000" transform="translate(241,31)"/>
<path d="M0,0 L5,2 L16,11 L33,27 L43,37 L50,45 L59,55 L69,68 L83,90 L88,98 L98,119 L105,134 L112,153 L114,161 L116,257 L116,274 L117,282 L118,331 L120,391 L121,412 L122,473 L123,486 L124,513 L125,559 L128,570 L132,578 L136,585 L144,601 L153,618 L158,628 L168,647 L177,663 L185,679 L193,692 L204,715 L218,742 L218,748 L211,752 L187,765 L173,773 L168,778 L166,781 L166,788 L172,796 L176,803 L180,810 L183,817 L188,827 L196,843 L207,863 L211,869 L218,885 L224,895 L232,911 L240,927 L247,941 L255,955 L263,973 L267,980 L266,985 L257,986 L229,986 L197,985 L191,981 L186,975 L178,959 L171,947 L163,931 L155,916 L149,905 L143,894 L137,883 L128,867 L122,855 L117,848 L111,833 L109,824 L105,815 L103,814 L96,814 L87,816 L80,816 L75,811 L71,803 L65,793 L57,778 L50,766 L43,752 L35,739 L27,728 L22,728 L19,732 L12,746 L5,761 L1,772 L-9,795 L-13,805 L-15,807 L-23,806 L-29,803 L-41,803 L-41,805 L-43,805 L-46,816 L-54,840 L-59,853 L-65,866 L-74,887 L-78,898 L-83,908 L-87,918 L-92,927 L-95,937 L-98,942 L-102,953 L-107,963 L-110,972 L-114,982 L-119,987 L-120,988 L-164,988 L-191,987 L-195,983 L-195,977 L-191,968 L-187,960 L-183,948 L-175,933 L-173,927 L-159,894 L-154,884 L-150,874 L-145,864 L-140,852 L-134,837 L-130,830 L-125,817 L-120,803 L-114,792 L-110,788 L-108,779 L-108,773 L-109,770 L-113,768 L-129,760 L-162,745 L-166,740 L-165,729 L-160,720 L-155,710 L-154,702 L-158,698 L-167,698 L-174,695 L-177,690 L-178,660 L-179,609 L-181,569 L-182,488 L-179,483 L-130,483 L-124,481 L-122,478 L-119,467 L-114,457 L-108,450 L-104,444 L-98,437 L-88,429 L-77,423 L-74,415 L-75,380 L-75,355 L-76,299 L-77,251 L-79,149 L-79,106 L-75,90 L-70,77 L-64,63 L-58,52 L-51,41 L-41,29 L-36,24 L-26,14 L-15,7 L-7,2 Z M-13,166 L-16,170 L-16,215 L-15,230 L-14,315 L-13,334 L-13,360 L-12,388 L-13,404 L-15,406 L-55,406 L-60,410 L-62,422 L-62,453 L-60,463 L-52,466 L-37,466 L-5,465 L-1,462 L2,448 L3,440 L3,296 L1,276 L0,251 L0,182 L-1,169 L-5,166 Z M10,441 L7,449 L5,468 L2,473 L-7,475 L-64,474 L-69,471 L-71,464 L-71,456 L-73,451 L-74,450 L-79,450 L-89,459 L-96,469 L-98,474 L-97,480 L-94,482 L-77,483 L-74,482 L-57,482 L-52,481 L19,481 L40,480 L42,478 L42,470 L40,464 L34,455 L30,452 L28,452 L26,448 L17,443 L14,441 Z M42,494 L8,495 L-75,496 L-129,496 L-160,498 L-164,500 L-166,504 L-166,517 L-165,533 L-163,540 L-157,544 L-127,544 L-90,542 L-67,542 L-10,541 L35,541 L38,540 L50,540 L54,539 L73,539 L86,540 L106,539 L112,537 L114,533 L115,522 L115,505 L114,497 L112,495 L53,495 Z M47,550 L19,551 L-61,552 L-121,553 L-138,553 L-146,555 L-160,554 L-163,557 L-164,560 L-165,572 L-165,587 L-163,623 L-163,648 L-164,671 L-162,681 L-158,685 L-155,686 L-100,686 L-72,688 L-61,687 L-29,688 L10,688 L111,686 L116,683 L119,680 L120,671 L120,649 L119,599 L117,557 L114,552 L113,551 L99,550 Z " fill="#000000" transform="translate(225,206)"/>
<path d="M0,0 L2,0 L1,2 Z " fill="#000000" transform="translate(471,661)"/>
</svg>
