<?xml version="1.0" encoding="UTF-8"?>
<!-- Generator: visioncortex VTracer 0.6.12 -->
<svg version="1.1" xmlns="http://www.w3.org/2000/svg" width="1263" height="1059">
<path d="M0,0 L11,0 L30,4 L37,6 L52,8 L58,13 L65,24 L79,43 L83,52 L87,57 L89,58 L96,58 L112,52 L145,44 L158,44 L189,48 L204,53 L220,60 L230,66 L244,75 L256,83 L274,95 L283,102 L291,109 L300,117 L313,127 L321,132 L334,143 L342,149 L351,156 L362,165 L376,177 L384,184 L402,202 L414,218 L418,222 L425,231 L435,244 L443,257 L450,269 L454,274 L460,290 L463,302 L471,327 L479,355 L486,375 L489,388 L496,410 L503,436 L507,450 L517,483 L519,487 L523,504 L530,527 L534,539 L539,559 L547,585 L552,602 L556,613 L560,626 L567,649 L573,667 L579,688 L585,707 L589,718 L595,744 L599,757 L606,779 L609,792 L614,808 L623,838 L626,850 L632,870 L635,890 L633,895 L631,896 L597,896 L587,895 L564,895 L498,894 L472,894 L427,895 L399,898 L395,899 L348,899 L321,897 L258,897 L139,896 L114,897 L1,897 L-8,895 L-11,892 L-10,887 L-5,875 L1,858 L9,834 L15,813 L20,799 L33,759 L36,750 L38,737 L43,727 L51,703 L57,687 L64,664 L68,653 L79,616 L84,600 L90,584 L94,566 L99,553 L107,527 L110,515 L118,493 L123,477 L128,461 L134,437 L142,414 L146,395 L153,370 L157,357 L164,338 L168,322 L175,297 L178,285 L178,275 L171,271 L146,268 L127,262 L113,254 L101,244 L93,244 L87,249 L77,264 L69,277 L58,294 L51,305 L45,315 L38,325 L27,345 L21,354 L9,372 L1,383 L-5,387 L-19,388 L-24,391 L-26,391 L-29,403 L-31,482 L-33,521 L-34,529 L-33,536 L-33,567 L-34,586 L-34,604 L-35,626 L-35,643 L-36,662 L-37,672 L-38,776 L-40,797 L-41,822 L-42,826 L-42,855 L-43,866 L-43,884 L-47,889 L-58,891 L-69,890 L-74,887 L-77,879 L-78,852 L-77,798 L-76,781 L-76,740 L-77,691 L-76,666 L-76,608 L-75,590 L-75,565 L-74,526 L-73,513 L-71,439 L-70,426 L-70,411 L-72,396 L-74,392 L-92,386 L-95,383 L-94,375 L-89,365 L-82,354 L-75,343 L-68,331 L-62,321 L-55,311 L-47,300 L-39,286 L-30,272 L-20,257 L-13,245 L-4,232 L0,224 L6,213 L14,200 L23,180 L24,171 L18,169 L-8,167 L-27,161 L-38,155 L-52,146 L-56,144 L-65,145 L-79,156 L-87,163 L-91,166 L-93,166 L-93,168 L-102,174 L-109,174 L-112,170 L-114,157 L-115,137 L-114,122 L-110,109 L-101,85 L-91,67 L-86,57 L-80,49 L-74,40 L-69,36 L-65,31 L-54,22 L-47,16 L-31,8 L-23,5 L-6,1 Z M16,19 L-13,26 L-29,31 L-43,40 L-57,51 L-62,55 L-62,57 L-65,58 L-71,67 L-73,72 L-82,79 L-90,94 L-98,117 L-98,132 L-95,139 L-88,140 L-77,133 L-68,124 L-61,116 L-57,113 L-57,111 L-52,109 L-42,100 L-32,90 L-24,83 L-12,69 L3,55 L4,52 L6,52 L13,44 L22,35 L25,30 L25,23 L22,20 Z M304,268 L278,269 L225,269 L210,271 L205,276 L199,288 L195,302 L190,316 L186,331 L182,342 L177,357 L172,373 L167,388 L156,421 L152,437 L150,441 L146,457 L144,460 L142,475 L138,486 L135,499 L132,505 L127,520 L123,535 L118,552 L110,576 L103,600 L101,610 L99,620 L100,626 L105,631 L114,633 L161,634 L290,634 L307,632 L312,627 L316,618 L318,601 L319,575 L320,563 L321,537 L322,525 L323,483 L327,373 L329,291 L327,279 L324,273 L320,270 L307,268 Z M-52,745 L-53,748 L-49,748 L-50,745 Z " fill="#000000" transform="translate(403,31)"/>
<path d="M0,0 L291,0 L294,4 L292,7 L289,8 L-422,8 L-431,9 L-504,9 L-691,10 L-736,10 L-854,11 L-933,11 L-934,10 L-934,5 L-933,4 L-864,3 L-727,2 L-555,1 L-505,1 Z " fill="#000000" transform="translate(943,1021)"/>
</svg>
