<?xml version="1.0" encoding="UTF-8"?>
<!-- Generator: visioncortex VTracer 0.6.12 -->
<svg version="1.1" xmlns="http://www.w3.org/2000/svg" width="1125" height="1119">
<path d="M0,0 L1125,0 L1125,1119 L53,1119 L49,1118 L30,1118 L0,1116 Z M828,99 L815,104 L809,109 L802,119 L800,128 L801,142 L805,150 L813,159 L823,164 L835,165 L847,162 L854,158 L862,147 L864,143 L865,136 L865,125 L862,117 L852,105 L839,100 Z M286,101 L272,106 L266,110 L259,122 L257,130 L257,138 L259,147 L265,156 L275,164 L285,167 L297,166 L308,162 L314,157 L321,145 L322,142 L322,129 L319,119 L315,113 L306,105 L299,102 Z M561,109 L550,110 L537,114 L526,121 L517,131 L511,139 L505,151 L501,166 L501,178 L504,194 L512,210 L523,222 L529,227 L538,232 L554,237 L575,236 L586,233 L600,226 L612,215 L620,204 L627,185 L627,164 L624,151 L620,143 L614,134 L607,126 L599,120 L589,114 L581,111 L570,109 Z M866,175 L850,181 L831,188 L818,193 L805,198 L794,202 L768,211 L751,218 L728,226 L711,233 L693,239 L684,242 L659,252 L635,261 L625,265 L616,268 L607,271 L596,275 L582,281 L567,286 L559,286 L549,282 L540,280 L522,273 L507,267 L499,265 L488,261 L461,252 L428,241 L411,235 L393,229 L373,222 L361,218 L346,213 L324,205 L311,201 L281,190 L269,186 L261,184 L254,182 L249,188 L246,197 L240,213 L235,229 L229,245 L225,261 L228,266 L239,270 L261,278 L280,285 L303,293 L323,300 L346,308 L364,315 L379,320 L405,329 L422,335 L441,342 L459,348 L466,351 L476,354 L489,358 L498,362 L515,368 L517,374 L517,414 L516,490 L515,537 L511,553 L505,578 L499,602 L494,625 L491,635 L481,675 L476,697 L471,715 L468,729 L461,759 L453,790 L449,806 L444,826 L441,840 L435,862 L430,884 L416,941 L411,960 L404,991 L399,1013 L400,1018 L410,1022 L445,1031 L458,1035 L467,1037 L469,1038 L475,1038 L478,1033 L481,1025 L483,1015 L486,1002 L488,991 L495,958 L500,937 L505,913 L512,883 L518,856 L523,831 L525,821 L527,808 L531,790 L533,779 L537,764 L541,744 L545,725 L547,720 L553,688 L557,668 L559,661 L562,661 L565,680 L575,724 L580,748 L584,764 L588,787 L593,807 L598,832 L606,869 L612,896 L623,946 L626,958 L631,982 L634,995 L641,1025 L644,1037 L648,1040 L655,1039 L674,1035 L684,1032 L719,1023 L725,1019 L725,1009 L720,991 L716,974 L707,937 L702,919 L695,891 L690,869 L687,859 L683,842 L679,827 L674,807 L668,783 L664,767 L658,743 L656,734 L643,682 L641,674 L638,662 L630,630 L623,601 L616,572 L611,551 L610,548 L609,472 L608,394 L608,374 L610,370 L622,365 L629,362 L638,359 L656,352 L679,344 L691,339 L707,333 L724,327 L728,324 L737,322 L752,316 L772,309 L782,305 L812,294 L825,289 L841,283 L866,274 L885,267 L899,261 L902,257 L899,246 L889,219 L884,206 L874,180 L869,175 Z M898,287 L889,290 L881,295 L875,303 L871,311 L870,322 L874,335 L880,343 L886,348 L896,352 L910,352 L920,348 L929,340 L935,327 L935,311 L931,302 L923,293 L910,287 Z M218,294 L205,302 L198,310 L195,315 L194,320 L194,334 L197,343 L206,354 L219,360 L229,360 L238,358 L248,352 L255,342 L258,336 L258,319 L254,310 L247,302 L237,296 L230,294 Z " fill="#000000" transform="translate(0,0)"/>
<path d="M0,0 L2,1 L2,6 L-2,5 L-1,1 Z " fill="#000000" transform="translate(463,923)"/>
</svg>
