<?xml version="1.0" encoding="UTF-8"?>
<!-- Generator: visioncortex VTracer 0.6.12 -->
<svg version="1.1" xmlns="http://www.w3.org/2000/svg" width="1125" height="1110">
<path d="M0,0 L1114,0 L1113,5 L1085,4 L344,4 L241,3 L11,4 L9,6 L7,21 L7,64 L6,400 L7,812 L7,1097 L10,1102 L16,1104 L409,1104 L495,1105 L537,1104 L616,1104 L623,1105 L627,1104 L649,1104 L662,1105 L933,1105 L940,1106 L942,1105 L973,1105 L981,1106 L1046,1106 L1069,1107 L1111,1105 L1115,1101 L1116,1099 L1117,1076 L1117,568 L1118,475 L1118,440 L1119,432 L1118,430 L1118,14 L1122,13 L1125,16 L1125,1110 L0,1110 Z " fill="#000000" transform="translate(0,0)"/>
<path d="M0,0 L103,0 L184,1 L234,1 L331,2 L413,2 L437,3 L438,4 L438,14 L434,17 L368,17 L363,19 L362,20 L363,27 L374,48 L386,68 L399,91 L411,111 L416,121 L423,132 L434,152 L439,158 L439,160 L443,161 L566,162 L605,163 L607,168 L606,175 L605,176 L479,176 L455,177 L453,180 L454,186 L465,206 L471,216 L477,226 L489,247 L503,271 L511,285 L520,301 L526,311 L534,325 L541,337 L547,348 L547,353 L543,355 L464,354 L456,344 L450,333 L437,311 L424,288 L417,276 L409,262 L402,251 L396,240 L386,222 L379,210 L371,196 L365,185 L359,177 L355,176 L281,175 L230,175 L133,174 L80,174 L72,176 L66,184 L51,210 L45,219 L36,235 L25,254 L16,268 L12,275 L3,290 L-3,300 L-12,316 L-19,327 L-29,345 L-34,352 L-39,354 L-118,353 L-119,348 L-111,334 L-99,313 L-84,288 L-77,277 L-72,268 L-63,253 L-53,234 L-43,217 L-30,195 L-23,181 L-23,177 L-26,175 L-40,174 L-176,173 L-178,169 L-178,162 L-175,159 L-139,159 L-95,160 L-90,159 L-13,159 L-7,156 L-1,146 L8,131 L16,117 L26,101 L38,80 L44,70 L57,48 L66,32 L71,24 L71,18 L66,15 L-2,14 L-4,11 L-4,2 Z M289,84 L287,85 L287,89 L291,90 L292,86 Z M244,98 L119,99 L113,103 L105,115 L99,126 L87,147 L85,152 L86,158 L89,160 L101,161 L341,161 L345,159 L346,152 L342,144 L333,128 L321,108 L315,101 L311,100 L282,99 L257,99 Z M487,311 L486,315 L491,316 L492,312 Z " fill="#000000" transform="translate(351,586)"/>
</svg>
