<?xml version="1.0" encoding="UTF-8"?>
<!-- Generator: visioncortex VTracer 0.6.12 -->
<svg version="1.1" xmlns="http://www.w3.org/2000/svg" width="771" height="1092">
<path d="M0,0 L771,0 L771,1092 L0,1092 Z M85,192 L81,196 L82,205 L88,210 L95,210 L98,207 L98,201 L94,195 L90,192 Z M31,260 L31,264 L35,264 L35,261 Z M178,291 L140,292 L135,297 L133,318 L133,412 L132,467 L132,690 L131,698 L132,796 L134,804 L138,809 L154,810 L232,811 L251,811 L279,812 L299,812 L317,813 L320,814 L327,814 L331,813 L440,813 L443,812 L451,812 L462,813 L541,814 L615,814 L629,813 L633,811 L637,801 L640,797 L638,792 L633,789 L634,783 L636,779 L637,738 L637,681 L636,651 L636,637 L637,612 L637,526 L636,442 L636,300 L633,296 L621,294 L594,294 L589,295 L481,294 L349,294 L334,293 L258,293 L232,292 L187,292 Z M639,477 L638,480 L641,482 L643,478 Z " fill="#000000" transform="translate(0,0)"/>
<path d="M0,0 L5,0 L7,3 L11,17 L16,31 L22,43 L30,59 L36,70 L45,83 L53,95 L65,109 L73,117 L79,124 L79,130 L73,132 L69,130 L65,130 L65,135 L68,140 L68,143 L72,145 L75,148 L78,154 L89,164 L99,171 L109,177 L116,180 L116,185 L113,188 L94,193 L73,196 L70,199 L69,208 L69,222 L71,241 L77,271 L81,286 L85,298 L89,300 L107,300 L112,303 L112,308 L110,310 L45,310 L34,311 L-37,311 L-81,312 L-159,312 L-162,310 L-167,311 L-169,312 L-185,313 L-189,311 L-190,307 L-184,303 L-127,302 L-124,300 L-122,290 L-122,281 L-124,272 L-127,270 L-142,268 L-147,263 L-147,249 L-143,245 L-76,245 L-72,250 L-72,261 L-75,267 L-79,269 L-95,270 L-98,274 L-98,296 L-95,301 L-90,302 L22,301 L29,300 L31,299 L34,287 L35,271 L35,236 L34,223 L33,221 L28,222 L16,232 L-1,244 L-10,250 L-26,256 L-32,256 L-34,253 L-33,244 L-28,231 L-24,217 L-16,199 L-9,174 L-7,167 L-7,150 L-11,151 L-17,156 L-21,157 L-24,155 L-24,146 L-17,122 L-15,112 L-10,81 L-7,59 L-6,32 L-3,8 Z " fill="#000000" transform="translate(447,423)"/>
</svg>
