<?xml version="1.0" encoding="UTF-8"?>
<!-- Generator: visioncortex VTracer 0.6.12 -->
<svg version="1.1" xmlns="http://www.w3.org/2000/svg" width="1143" height="1191">
<path d="M0,0 L814,0 L818,2 L917,3 L971,3 L990,4 L1115,6 L1137,7 L1137,717 L1136,721 L1135,768 L1135,787 L1133,921 L1132,1023 L1131,1089 L1131,1120 L1130,1170 L1128,1177 L1125,1180 L1082,1180 L999,1179 L935,1178 L891,1177 L807,1176 L697,1175 L668,1175 L596,1174 L486,1172 L378,1171 L290,1170 L241,1170 L149,1169 L97,1168 L80,1168 L1,1166 L-6,1165 L-6,294 L-5,285 L-3,138 L-2,83 L-1,74 L-1,53 Z M452,58 L450,60 L450,67 L453,73 L457,74 L459,72 L459,64 L456,59 Z M550,286 L536,288 L522,294 L516,298 L507,305 L498,315 L490,328 L485,343 L483,355 L483,371 L486,385 L494,403 L505,416 L517,426 L529,432 L538,435 L555,437 L571,435 L580,432 L590,428 L600,421 L612,410 L618,401 L624,389 L628,375 L629,361 L627,344 L624,334 L616,318 L605,305 L600,301 L591,295 L578,289 L570,287 L561,286 Z M645,330 Z M667,354 L658,371 L651,383 L643,401 L635,417 L626,437 L618,452 L615,459 L611,467 L604,483 L596,499 L590,511 L583,526 L571,550 L567,558 L563,570 L554,587 L550,596 L540,618 L538,627 L542,632 L559,641 L569,647 L571,648 L577,648 L582,642 L590,625 L599,608 L604,596 L612,580 L620,564 L636,529 L644,513 L652,497 L657,489 L658,488 L665,488 L687,499 L706,509 L722,517 L749,531 L759,537 L782,549 L785,552 L785,560 L777,576 L764,604 L756,619 L751,631 L748,642 L747,654 L751,667 L755,675 L764,685 L778,693 L787,696 L812,698 L880,699 L969,699 L973,695 L974,690 L974,644 L971,639 L969,638 L898,636 L878,636 L850,635 L841,634 L840,629 L853,601 L861,585 L867,574 L871,564 L881,543 L889,527 L893,516 L894,511 L894,492 L891,482 L885,471 L878,464 L870,458 L841,442 L824,434 L808,425 L793,417 L785,413 L769,405 L757,398 L745,392 L736,387 L720,379 L709,373 L696,366 L688,363 L671,354 Z M234,490 L227,498 L218,517 L208,536 L202,548 L198,552 L193,554 L177,554 L172,559 L171,565 L171,619 L176,623 L178,624 L196,625 L197,626 L197,633 L195,644 L196,656 L199,663 L204,671 L212,677 L222,680 L234,680 L241,677 L250,670 L257,659 L258,655 L258,637 L257,628 L257,626 L303,626 L403,628 L412,629 L412,636 L409,647 L409,655 L412,665 L417,673 L424,679 L432,683 L437,684 L446,684 L456,681 L466,672 L470,666 L473,655 L473,648 L470,635 L471,630 L473,629 L494,628 L498,625 L499,622 L500,604 L500,568 L497,560 L494,559 L471,558 L424,558 L371,557 L323,556 L314,554 L312,550 L311,497 L308,491 L293,490 Z M376,1018 L375,1019 L376,1030 L377,1032 L382,1032 L383,1025 L380,1018 Z " fill="#000000" transform="translate(6,0)"/>
</svg>
