<?xml version="1.0" encoding="UTF-8"?>
<!-- Generator: visioncortex VTracer 0.6.12 -->
<svg version="1.1" xmlns="http://www.w3.org/2000/svg" width="1140" height="1134">
<path d="M0,0 L16,0 L13,6 L11,22 L11,43 L10,58 L7,174 L7,187 L6,202 L5,250 L5,288 L3,396 L3,409 L2,415 L2,444 L1,502 L1,526 L-1,604 L-2,680 L-3,706 L-3,758 L-4,799 L-4,869 L-5,992 L-6,1005 L-8,1006 L-8,247 L-7,239 L-8,235 L-7,232 L-6,188 L-4,103 L-2,30 L-1,3 Z " fill="#000000" transform="translate(8,0)"/>
<path d="M0,0 L19,0 L19,1 L13,2 L4,2 Z " fill="#000000" transform="translate(156,0)"/>
<path d="M0,0 L2,1 Z " fill="#000000" transform="translate(193,0)"/>
<path d="M0,0 L8,0 L8,1 L0,1 Z " fill="#000000" transform="translate(197,0)"/>
<path d="M0,0 L11,0 L8,2 L2,2 Z " fill="#000000" transform="translate(213,0)"/>
<path d="M0,0 L914,0 L914,435 L913,441 L914,448 L913,450 L912,460 L912,494 L908,744 L908,765 L906,809 L906,856 L905,966 L904,1020 L904,1048 L903,1072 L903,1109 L905,1134 L882,1134 L885,1131 L887,1131 L889,1124 L890,1017 L891,997 L890,982 L891,974 L891,947 L892,918 L892,859 L893,806 L893,785 L894,765 L895,684 L896,620 L897,594 L897,562 L898,517 L899,425 L900,413 L900,394 L901,363 L901,337 L902,275 L903,254 L904,190 L905,147 L906,117 L906,106 L907,86 L907,16 L904,9 L903,8 L864,8 L834,7 L805,7 L797,6 L788,7 L735,7 L674,6 L540,6 L508,4 L502,5 L494,4 L451,4 L360,3 L63,3 L25,2 L3,2 Z " fill="#000000" transform="translate(226,0)"/>
<path d="M0,0 L3,0 L2,3 L0,2 Z " fill="#000000" transform="translate(498,26)"/>
<path d="M0,0 L2,0 L2,4 L-1,3 Z " fill="#000000" transform="translate(1105,165)"/>
<path d="M0,0 L14,2 L23,6 L33,14 L41,21 L46,30 L50,41 L52,53 L62,60 L68,63 L81,65 L83,66 L93,67 L106,72 L117,73 L122,75 L133,77 L138,80 L148,82 L153,85 L166,86 L183,92 L193,95 L204,100 L210,103 L214,108 L217,115 L222,123 L225,132 L225,142 L218,165 L213,181 L207,191 L201,203 L196,211 L186,234 L180,245 L173,260 L166,281 L165,302 L173,326 L177,336 L183,353 L192,369 L196,377 L197,383 L194,389 L190,392 L183,396 L172,403 L156,411 L140,420 L130,426 L121,432 L116,431 L116,423 L121,406 L127,394 L128,391 L128,381 L125,372 L117,356 L106,337 L101,329 L97,315 L97,291 L99,272 L105,252 L109,239 L112,222 L114,206 L115,203 L115,188 L113,173 L108,160 L103,150 L97,143 L87,135 L82,134 L83,140 L87,145 L92,150 L96,162 L99,175 L101,191 L100,208 L93,236 L88,252 L85,259 L77,265 L58,274 L52,276 L47,279 L38,282 L29,286 L24,286 L23,282 L26,272 L32,257 L38,235 L41,228 L43,218 L44,195 L44,180 L43,162 L38,133 L34,123 L33,122 L27,122 L14,128 L8,130 L1,131 L-18,130 L-34,120 L-42,113 L-49,98 L-52,84 L-52,46 L-50,37 L-46,27 L-37,15 L-27,8 L-20,4 L-10,1 Z " fill="#000000" transform="translate(801,260)"/>
<path d="M0,0 L5,5 L11,14 L20,40 L20,48 L15,52 L-1,59 L-7,64 L-19,68 L-23,72 L-33,74 L-45,81 L-50,82 L-52,80 L-51,74 L-47,69 L-43,53 L-35,38 L-30,24 L-24,12 L-16,7 Z " fill="#000000" transform="translate(1030,467)"/>
<path d="M0,0 L12,0 L29,4 L35,8 L43,16 L48,19 L55,29 L61,37 L70,57 L71,61 L71,76 L66,94 L62,102 L50,116 L41,123 L34,126 L31,131 L41,144 L47,151 L55,158 L63,171 L69,179 L73,185 L79,193 L90,210 L99,219 L106,227 L114,234 L118,239 L131,247 L133,249 L132,253 L116,261 L93,273 L84,278 L77,277 L68,266 L57,254 L50,243 L44,234 L37,223 L31,214 L28,209 L22,197 L17,191 L14,191 L13,193 L13,205 L16,214 L20,221 L28,235 L34,244 L45,258 L55,271 L68,285 L73,290 L82,300 L90,309 L101,318 L112,328 L117,333 L124,341 L132,347 L143,357 L151,362 L156,367 L156,369 L160,371 L169,377 L189,380 L197,381 L209,385 L210,391 L204,401 L192,400 L173,410 L164,414 L153,421 L147,423 L137,425 L130,431 L125,430 L114,418 L104,407 L93,398 L86,391 L72,381 L54,369 L44,362 L33,356 L24,349 L19,344 L0,333 L-8,333 L-13,328 L-19,328 L-33,334 L-40,337 L-54,341 L-62,340 L-67,334 L-74,322 L-77,313 L-82,292 L-85,279 L-86,246 L-85,242 L-83,220 L-77,198 L-75,189 L-67,173 L-61,163 L-55,150 L-48,141 L-45,134 L-33,124 L-24,111 L-23,103 L-33,92 L-40,79 L-47,68 L-49,60 L-49,48 L-47,39 L-41,28 L-38,23 L-25,10 L-9,2 Z " fill="#000000" transform="translate(188,525)"/>
<path d="M0,0 L4,1 L5,6 L3,14 L3,23 L6,34 L11,41 L11,53 L6,58 L-6,64 L-14,68 L-22,72 L-43,81 L-55,87 L-57,89 L-71,94 L-87,101 L-95,105 L-105,109 L-117,115 L-129,120 L-135,123 L-141,127 L-148,129 L-160,135 L-169,139 L-179,144 L-188,147 L-211,157 L-216,161 L-234,168 L-250,176 L-270,185 L-279,189 L-285,192 L-289,197 L-291,225 L-291,249 L-289,252 L-278,255 L-269,255 L-265,259 L-265,338 L-266,398 L-269,407 L-272,411 L-340,411 L-345,408 L-346,407 L-346,381 L-345,330 L-344,261 L-341,256 L-340,255 L-327,253 L-322,250 L-321,244 L-320,221 L-321,212 L-326,211 L-338,216 L-345,220 L-353,222 L-361,226 L-373,231 L-382,234 L-386,237 L-398,242 L-409,248 L-419,252 L-430,257 L-440,261 L-451,266 L-475,277 L-485,281 L-487,283 L-497,287 L-507,291 L-517,297 L-532,302 L-542,307 L-550,310 L-551,311 L-557,311 L-567,302 L-574,295 L-574,293 L-578,291 L-579,288 L-583,286 L-590,280 L-590,274 L-580,268 L-568,262 L-564,258 L-545,251 L-537,247 L-521,242 L-505,234 L-496,230 L-489,227 L-480,223 L-463,216 L-447,208 L-427,199 L-404,188 L-383,178 L-360,168 L-346,161 L-334,156 L-305,142 L-282,132 L-265,124 L-255,120 L-246,115 L-239,112 L-223,104 L-208,97 L-200,93 L-193,91 L-187,87 L-166,78 L-155,72 L-145,68 L-132,62 L-118,56 L-106,50 L-90,42 L-72,34 L-58,27 L-39,18 L-32,15 L-22,9 L-13,6 Z " fill="#000000" transform="translate(875,539)"/>
<path d="M0,0 L10,0 L25,7 L33,10 L43,16 L48,20 L57,26 L58,30 L49,36 L31,44 L25,47 L18,50 L8,55 L-1,57 L-8,61 L-24,68 L-36,75 L-49,80 L-55,80 L-61,71 L-67,61 L-70,51 L-74,43 L-73,36 L-66,32 L-45,23 L-31,15 L-19,10 L-4,4 Z " fill="#000000" transform="translate(157,867)"/>
<path d="M0,0 L1,0 L2,7 L2,18 L0,20 Z " fill="#000000" transform="translate(0,1018)"/>
<path d="M0,0 L5,2 L15,3 L51,3 L59,4 L110,5 L189,5 L224,6 L325,6 L347,7 L421,8 L449,8 L516,9 L575,9 L638,10 L663,11 L723,11 L821,12 L888,12 L899,13 L946,13 L948,15 L0,15 Z " fill="#000000" transform="translate(0,1119)"/>
<path d="M0,0 L6,1 L7,3 L-4,3 L-3,1 Z " fill="#000000" transform="translate(1022,1131)"/>
<path d="M0,0 L12,0 L13,2 L-3,2 Z " fill="#000000" transform="translate(955,1132)"/>
<path d="M0,0 L7,0 L8,2 L-3,2 Z " fill="#000000" transform="translate(978,1132)"/>
<path d="M0,0 L7,0 L8,2 L-1,2 Z " fill="#000000" transform="translate(995,1132)"/>
<path d="M0,0 L4,1 Z " fill="#000000" transform="translate(1013,1133)"/>
</svg>
