<?xml version="1.0" encoding="UTF-8"?>
<!-- Generator: visioncortex VTracer 0.6.12 -->
<svg version="1.1" xmlns="http://www.w3.org/2000/svg" width="1128" height="1122">
<path d="M0,0 L8,0 L8,1 L0,1 Z " fill="#000000" transform="translate(259,0)"/>
<path d="M0,0 L9,0 L8,2 L2,2 Z " fill="#000000" transform="translate(270,0)"/>
<path d="M0,0 L16,0 L14,2 L3,2 Z " fill="#000000" transform="translate(345,0)"/>
<path d="M0,0 L12,0 L12,2 L9,4 L8,8 L9,31 L10,61 L12,87 L10,114 L10,134 L11,154 L10,160 L9,184 L8,192 L9,201 L9,252 L10,280 L7,309 L7,323 L8,339 L9,385 L9,415 L8,430 L8,474 L9,496 L10,512 L9,532 L9,649 L8,678 L8,717 L10,760 L9,786 L8,796 L7,822 L9,834 L10,851 L9,867 L7,885 L7,912 L9,939 L9,964 L14,980 L14,984 L9,988 L8,990 L8,1014 L6,1079 L6,1102 L10,1106 L17,1107 L34,1107 L48,1106 L87,1107 L165,1107 L203,1108 L276,1108 L304,1109 L494,1109 L592,1110 L692,1110 L703,1111 L789,1111 L816,1112 L871,1112 L975,1113 L1045,1113 L1087,1114 L1107,1113 L1112,1111 L1114,1106 L1114,1030 L1115,1018 L1115,979 L1114,975 L1115,948 L1116,933 L1115,907 L1115,808 L1117,797 L1116,766 L1116,737 L1118,728 L1117,664 L1118,641 L1117,629 L1118,620 L1116,573 L1116,551 L1117,546 L1117,528 L1116,503 L1117,497 L1117,482 L1116,472 L1116,436 L1118,385 L1116,365 L1116,356 L1117,340 L1117,310 L1118,266 L1118,229 L1117,173 L1118,166 L1117,160 L1117,122 L1116,118 L1116,106 L1117,99 L1117,73 L1118,69 L1118,61 L1117,50 L1118,46 L1118,23 L1117,13 L1115,10 L1106,8 L1103,6 L1097,6 L1095,7 L1039,7 L1021,6 L979,6 L898,5 L842,4 L612,4 L455,3 L428,3 L373,2 L364,2 L362,0 L1128,0 L1128,14 L1126,14 L1128,18 L1128,205 L1128,207 L1128,404 L1126,405 L1126,408 L1128,409 L1128,1122 L920,1122 L920,1120 L912,1120 L912,1122 L871,1122 L870,1121 L864,1121 L863,1122 L834,1122 L832,1121 L798,1121 L773,1120 L652,1120 L568,1119 L458,1119 L447,1118 L438,1118 L434,1119 L381,1119 L336,1118 L299,1118 L269,1117 L246,1117 L238,1118 L189,1118 L161,1117 L152,1116 L143,1116 L140,1117 L52,1117 L21,1116 L0,1116 L0,562 L3,559 L2,556 L0,555 L0,355 L0,351 Z " fill="#000000" transform="translate(0,0)"/>
<path d="M0,0 L23,0 L37,2 L58,7 L67,12 L78,16 L94,25 L104,32 L112,39 L120,47 L128,58 L138,70 L143,80 L146,83 L152,101 L155,107 L160,138 L160,161 L158,172 L156,185 L150,203 L140,224 L128,242 L121,250 L113,259 L102,267 L100,267 L98,271 L92,275 L81,282 L65,290 L52,293 L45,296 L24,299 L-12,299 L-34,294 L-54,287 L-64,281 L-79,272 L-89,263 L-97,257 L-106,247 L-113,238 L-120,228 L-128,212 L-132,204 L-136,191 L-139,179 L-141,167 L-142,148 L-141,126 L-134,101 L-125,81 L-120,72 L-112,61 L-103,49 L-97,42 L-88,35 L-79,27 L-62,16 L-50,11 L-35,6 L-23,2 Z M7,9 L-10,10 L-19,13 L-31,16 L-39,21 L-38,28 L-32,33 L-18,41 L-7,50 L2,56 L5,57 L14,57 L39,50 L57,47 L73,46 L82,43 L84,41 L83,34 L76,28 L66,22 L51,16 L39,13 L28,11 Z M2,62 L-11,66 L-26,75 L-43,87 L-52,94 L-57,99 L-68,109 L-77,120 L-86,130 L-95,141 L-99,150 L-107,167 L-111,174 L-117,186 L-119,199 L-117,209 L-111,221 L-104,230 L-93,244 L-80,257 L-72,264 L-63,270 L-51,275 L-43,280 L-21,287 L-10,289 L15,289 L37,286 L46,283 L53,282 L59,278 L66,275 L75,270 L79,264 L81,252 L82,239 L82,212 L80,190 L75,165 L69,149 L65,138 L62,132 L55,120 L49,108 L42,98 L33,85 L21,72 L12,64 L8,62 Z M-104,117 L-106,120 L-105,124 L-102,125 L-99,122 L-100,117 Z M71,121 L69,124 L70,131 L72,133 L76,132 L77,131 L77,125 L75,121 Z M-129,147 L-130,151 L-127,154 L-123,152 L-124,147 Z M83,148 L81,151 L82,153 L86,152 L85,148 Z " fill="#000000" transform="translate(726,335)"/>
<path d="M0,0 L34,2 L43,4 L55,5 L75,13 L82,15 L92,19 L108,27 L125,37 L135,44 L146,52 L156,61 L161,66 L163,70 L166,71 L171,77 L175,81 L182,92 L189,102 L196,112 L208,135 L212,145 L216,153 L220,167 L223,180 L227,203 L228,212 L228,238 L225,269 L220,288 L213,309 L206,324 L199,335 L196,342 L189,352 L183,362 L175,372 L166,381 L161,388 L152,395 L145,402 L136,408 L125,416 L108,425 L103,428 L94,428 L87,436 L77,440 L69,442 L59,445 L43,449 L13,452 L-22,452 L-40,449 L-56,445 L-66,442 L-82,436 L-93,431 L-112,422 L-122,415 L-128,411 L-144,399 L-152,391 L-161,384 L-170,373 L-174,367 L-182,357 L-190,343 L-198,332 L-204,320 L-215,287 L-219,273 L-221,255 L-222,251 L-223,231 L-223,215 L-221,204 L-221,195 L-219,180 L-213,159 L-209,150 L-203,132 L-199,124 L-190,108 L-182,96 L-173,84 L-162,71 L-154,63 L-146,56 L-144,56 L-142,52 L-134,46 L-125,39 L-114,32 L-98,24 L-81,16 L-70,12 L-63,11 L-47,5 L-29,2 Z M0,11 L-34,14 L-53,18 L-72,25 L-81,30 L-84,34 L-84,39 L-77,45 L-67,50 L-58,56 L-44,63 L-35,70 L-30,74 L-19,81 L-6,92 L0,95 L8,95 L25,89 L42,84 L74,78 L82,77 L98,76 L111,76 L137,75 L141,73 L141,66 L132,56 L118,46 L107,39 L90,30 L73,24 L50,17 L31,13 L10,11 Z M64,92 L62,95 L64,97 L68,96 L67,92 Z M-6,100 L-17,104 L-36,114 L-52,123 L-57,127 L-65,133 L-77,145 L-88,152 L-120,184 L-131,198 L-137,207 L-147,221 L-152,231 L-159,241 L-167,257 L-174,273 L-181,294 L-184,301 L-187,311 L-186,321 L-176,340 L-168,351 L-164,357 L-153,370 L-146,378 L-138,386 L-130,393 L-117,404 L-102,413 L-87,422 L-68,429 L-61,433 L-54,433 L-45,437 L-30,439 L-15,441 L14,441 L32,439 L44,436 L63,431 L76,427 L88,421 L94,418 L99,408 L102,393 L105,371 L106,365 L106,313 L104,295 L99,267 L95,250 L84,217 L77,201 L68,182 L62,173 L48,150 L37,136 L28,125 L17,112 L12,107 L5,101 L2,100 Z M190,311 L190,314 L195,313 L194,311 Z M116,392 L112,396 L111,403 L113,405 L119,404 L120,403 L120,393 Z " fill="#000000" transform="translate(411,559)"/>
</svg>
