<?xml version="1.0" encoding="UTF-8"?>
<!-- Generator: visioncortex VTracer 0.6.12 -->
<svg version="1.1" xmlns="http://www.w3.org/2000/svg" width="1038" height="1296">
<path d="M0,0 L141,0 L203,1 L352,1 L498,2 L584,3 L686,3 L863,4 L961,4 L1006,5 L1013,7 L1011,11 L1001,14 L999,19 L997,61 L994,63 L968,64 L955,64 L948,65 L901,64 L850,65 L730,65 L708,66 L674,65 L631,65 L581,64 L449,64 L439,63 L425,63 L417,64 L408,63 L337,63 L279,62 L211,62 L31,60 L10,60 L0,59 Z " fill="#000000" transform="translate(0,22)"/>
<path d="M0,0 L47,0 L52,4 L53,6 L53,32 L51,55 L50,77 L49,83 L47,122 L46,139 L43,203 L42,236 L40,262 L39,294 L40,303 L45,308 L50,310 L81,311 L93,312 L140,313 L162,314 L181,317 L204,327 L230,338 L260,353 L276,361 L295,370 L298,371 L305,371 L312,362 L320,351 L324,347 L326,346 L338,346 L350,352 L355,358 L356,360 L356,366 L346,385 L346,392 L351,397 L368,406 L395,418 L407,424 L419,429 L425,429 L430,424 L435,414 L444,404 L453,397 L465,390 L472,387 L481,386 L506,385 L520,384 L554,382 L563,381 L593,381 L627,383 L642,384 L654,389 L662,396 L669,405 L676,420 L683,454 L684,477 L686,486 L687,497 L688,521 L688,624 L686,656 L684,674 L680,740 L678,769 L674,801 L673,821 L668,852 L665,871 L660,895 L657,909 L651,932 L648,944 L643,961 L635,977 L626,992 L619,999 L607,1005 L599,1008 L597,1009 L439,1009 L433,1005 L418,998 L404,987 L400,982 L395,971 L391,959 L385,958 L379,967 L374,976 L365,987 L363,987 L361,991 L352,1001 L347,1005 L339,1009 L263,1009 L254,1002 L245,995 L239,987 L229,974 L221,963 L221,961 L215,961 L213,963 L209,978 L207,987 L197,1002 L191,1007 L187,1009 L176,1009 L174,1008 L146,1007 L128,1005 L108,1005 L91,1004 L55,1003 L47,999 L39,993 L32,985 L26,977 L20,965 L16,954 L11,933 L7,906 L6,902 L2,841 L2,727 L1,711 L1,699 L0,690 L-1,686 L-7,685 L-39,684 L-56,684 L-61,687 L-62,690 L-62,706 L-61,720 L-61,779 L-60,809 L-61,838 L-63,851 L-67,891 L-72,921 L-75,937 L-85,967 L-90,978 L-95,988 L-102,991 L-113,992 L-162,992 L-183,991 L-190,988 L-196,984 L-204,974 L-211,958 L-217,935 L-219,925 L-221,897 L-222,893 L-225,841 L-225,784 L-222,741 L-220,720 L-214,689 L-211,677 L-207,654 L-203,637 L-201,626 L-195,612 L-188,597 L-186,588 L-184,556 L-182,518 L-181,490 L-179,462 L-177,407 L-174,351 L-171,336 L-165,326 L-156,317 L-147,311 L-136,308 L-126,307 L-103,307 L-80,308 L-63,309 L-32,309 L-25,307 L-22,300 L-20,280 L-19,245 L-17,213 L-15,160 L-11,77 L-10,51 L-7,6 L-3,1 Z M180,353 L177,355 L179,383 L180,398 L181,402 L181,422 L180,474 L179,504 L176,536 L174,574 L172,617 L172,650 L174,655 L178,658 L183,659 L197,660 L218,660 L225,654 L232,642 L234,638 L236,638 L245,623 L255,612 L257,611 L257,609 L261,607 L275,599 L281,597 L299,595 L351,594 L363,597 L375,601 L382,602 L386,598 L389,582 L396,537 L403,509 L408,492 L414,474 L414,465 L407,457 L392,449 L380,444 L368,438 L349,429 L338,425 L322,417 L311,412 L294,405 L282,399 L262,391 L241,381 L226,376 L203,364 L189,358 L182,353 Z M628,402 L620,406 L611,418 L605,432 L601,441 L593,463 L588,482 L587,493 L582,510 L577,541 L572,570 L568,597 L565,635 L563,658 L560,683 L559,699 L559,750 L558,773 L558,806 L559,818 L560,855 L562,868 L565,899 L569,920 L571,939 L575,954 L582,969 L592,977 L600,977 L605,972 L613,956 L618,940 L623,925 L626,914 L631,882 L634,859 L636,852 L637,833 L641,804 L643,777 L647,742 L649,721 L652,678 L653,671 L654,650 L655,547 L655,531 L654,489 L652,459 L650,440 L647,430 L644,416 L640,408 L635,403 Z M338,614 L330,618 L326,623 L313,652 L306,670 L302,681 L296,707 L293,719 L290,735 L288,749 L288,765 L286,793 L285,815 L285,835 L287,852 L288,868 L289,872 L291,902 L295,920 L297,933 L303,956 L309,971 L317,981 L326,986 L333,986 L340,983 L345,978 L351,971 L356,963 L363,946 L367,937 L371,924 L377,893 L382,869 L384,844 L387,780 L387,727 L386,708 L386,689 L384,677 L383,662 L379,645 L371,628 L365,620 L360,616 L354,614 Z M-131,680 L-137,683 L-141,689 L-143,701 L-145,720 L-147,740 L-150,769 L-152,799 L-153,808 L-153,887 L-150,911 L-144,939 L-135,958 L-130,970 L-124,975 L-116,975 L-108,969 L-102,959 L-94,938 L-91,921 L-87,899 L-85,877 L-84,870 L-82,843 L-80,799 L-79,787 L-79,728 L-81,716 L-82,699 L-85,687 L-91,682 L-112,680 Z M149,689 L144,692 L141,699 L140,724 L140,750 L138,773 L138,850 L140,885 L142,902 L146,942 L154,966 L160,978 L168,985 L176,985 L188,976 L195,966 L198,957 L203,935 L206,926 L207,919 L207,910 L205,900 L203,875 L202,871 L200,841 L200,818 L201,798 L203,782 L204,747 L207,734 L212,709 L212,693 L209,691 L199,690 L165,689 Z " fill="#000000" transform="translate(290,287)"/>
<path d="M0,0 L24,1 L50,5 L71,12 L84,21 L93,26 L105,35 L118,46 L129,58 L135,67 L143,83 L149,95 L156,114 L157,124 L152,128 L144,131 L138,131 L133,126 L125,110 L118,93 L109,80 L103,71 L97,66 L90,58 L76,47 L67,42 L57,36 L40,28 L28,26 L13,24 L2,24 L-17,29 L-33,37 L-42,44 L-49,51 L-57,66 L-61,79 L-63,94 L-67,98 L-73,98 L-85,92 L-89,87 L-89,73 L-87,64 L-81,52 L-72,39 L-61,28 L-56,23 L-52,21 L-50,17 L-41,11 L-16,3 Z " fill="#000000" transform="translate(611,523)"/>
</svg>
