<?xml version="1.0" encoding="UTF-8"?>
<!-- Generator: visioncortex VTracer 0.6.12 -->
<svg version="1.1" xmlns="http://www.w3.org/2000/svg" width="681" height="690">
<path d="M0,0 L8,0 L13,3 L19,8 L23,13 L23,24 L18,31 L10,38 L-1,49 L-9,56 L-22,69 L-30,76 L-37,83 L-42,89 L-50,95 L-55,100 L-57,100 L-59,104 L-66,113 L-68,116 L-67,125 L-58,139 L-54,144 L-48,147 L-39,146 L-25,139 L-20,134 L-5,108 L-1,100 L7,89 L16,77 L26,67 L33,59 L42,51 L59,40 L71,34 L96,23 L118,17 L131,12 L150,10 L193,10 L217,14 L234,19 L257,30 L261,35 L261,42 L252,59 L243,71 L237,79 L227,92 L225,92 L223,96 L209,109 L201,116 L187,127 L169,138 L152,147 L142,153 L130,157 L117,162 L102,166 L84,171 L63,174 L49,176 L24,175 L11,173 L-9,171 L-23,171 L-26,176 L-25,182 L-19,192 L-14,196 L-2,198 L26,199 L41,202 L50,205 L67,210 L85,218 L98,225 L111,233 L125,242 L141,257 L150,266 L157,275 L166,286 L173,297 L179,308 L185,318 L191,334 L196,351 L201,368 L204,399 L204,432 L202,454 L198,471 L192,487 L189,498 L182,514 L172,532 L161,548 L159,548 L159,550 L155,554 L149,563 L147,563 L145,567 L137,574 L132,579 L124,586 L110,595 L101,601 L84,611 L68,620 L48,626 L33,629 L10,629 L-1,632 L-13,632 L-25,630 L-54,629 L-74,624 L-82,620 L-103,613 L-113,607 L-125,597 L-139,588 L-145,581 L-153,574 L-160,566 L-165,561 L-171,554 L-175,548 L-183,538 L-190,526 L-197,509 L-204,497 L-208,481 L-211,466 L-214,446 L-216,436 L-216,420 L-215,393 L-210,368 L-206,354 L-201,339 L-197,329 L-189,314 L-183,306 L-178,294 L-170,283 L-158,269 L-153,264 L-145,257 L-140,252 L-126,240 L-116,234 L-106,227 L-85,216 L-63,207 L-59,202 L-59,196 L-67,182 L-79,167 L-88,155 L-94,150 L-101,149 L-109,154 L-119,164 L-121,164 L-121,166 L-132,175 L-151,194 L-159,201 L-167,209 L-169,212 L-171,212 L-172,215 L-174,215 L-176,219 L-186,227 L-193,235 L-215,257 L-220,262 L-227,269 L-237,275 L-246,275 L-252,271 L-256,265 L-257,257 L-253,249 L-244,238 L-237,231 L-235,231 L-234,228 L-226,221 L-218,214 L-216,211 L-214,211 L-212,207 L-208,205 L-207,202 L-199,195 L-186,181 L-184,181 L-182,177 L-172,169 L-165,160 L-160,155 L-154,151 L-147,143 L-139,136 L-132,128 L-115,112 L-108,103 L-97,94 L-93,89 L-85,83 L-78,75 L-73,73 L-71,69 L-52,50 L-47,46 L-45,43 L-43,43 L-42,40 L-34,33 L-23,21 L-19,19 L-18,16 L-10,9 L-3,2 Z M-60,267 L-75,269 L-93,277 L-105,286 L-109,289 L-109,291 L-113,293 L-113,295 L-117,297 L-123,302 L-130,310 L-133,314 L-133,316 L-136,317 L-144,329 L-151,343 L-157,359 L-161,372 L-163,383 L-164,396 L-164,430 L-162,444 L-157,462 L-149,482 L-143,491 L-136,501 L-127,512 L-120,517 L-114,518 L-111,515 L-112,507 L-116,494 L-117,477 L-118,472 L-117,459 L-115,441 L-112,432 L-108,418 L-103,405 L-99,396 L-93,387 L-90,385 L-90,383 L-87,382 L-80,374 L-72,364 L-68,360 L-56,351 L-47,343 L-42,338 L-37,334 L-31,326 L-25,298 L-26,287 L-35,275 L-48,267 Z " fill="#000000" transform="translate(287,30)"/>
<path d="M0,0 L4,0 L4,3 L0,3 Z " fill="#000000" transform="translate(649,179)"/>
</svg>
