<?xml version="1.0" encoding="UTF-8"?>
<!-- Generator: visioncortex VTracer 0.6.12 -->
<svg version="1.1" xmlns="http://www.w3.org/2000/svg" width="1098" height="1080">
<path d="M0,0 L1098,0 L1098,1080 L1088,1080 L1089,1072 L1091,1067 L1091,1058 L1090,1054 L1088,1024 L1087,1013 L1088,943 L1088,923 L1089,898 L1089,809 L1090,794 L1090,772 L1089,752 L1090,748 L1090,638 L1091,624 L1091,610 L1090,599 L1091,596 L1091,479 L1090,474 L1090,467 L1091,464 L1091,426 L1090,402 L1089,392 L1090,386 L1090,318 L1091,291 L1090,282 L1091,274 L1090,235 L1089,226 L1089,180 L1090,153 L1091,149 L1091,130 L1090,127 L1085,126 L1059,126 L1047,124 L1021,122 L997,122 L934,121 L875,121 L867,120 L737,120 L721,119 L714,118 L710,119 L543,119 L528,118 L402,118 L362,119 L358,118 L54,118 L46,117 L42,119 L37,124 L14,124 L8,128 L7,131 L8,164 L9,184 L9,257 L8,303 L8,325 L7,371 L8,383 L7,393 L7,456 L8,463 L7,466 L7,668 L6,719 L6,774 L5,811 L5,835 L6,844 L5,889 L3,926 L0,928 Z " fill="#000000" transform="translate(0,0)"/>
<path d="M0,0 L3,1 L2,5 L-1,4 Z " fill="#000000" transform="translate(1018,335)"/>
<path d="M0,0 L9,0 L18,3 L25,8 L30,13 L37,19 L46,30 L53,35 L57,41 L62,45 L69,54 L80,65 L87,73 L94,80 L99,85 L111,95 L115,101 L124,113 L133,121 L137,127 L143,132 L150,140 L154,145 L157,153 L160,156 L170,156 L183,153 L189,153 L194,157 L194,163 L190,167 L167,170 L154,175 L138,183 L122,191 L104,199 L88,202 L79,203 L53,203 L32,198 L9,189 L-3,183 L-15,178 L-29,171 L-42,167 L-52,167 L-55,166 L-67,166 L-85,170 L-95,174 L-111,181 L-121,187 L-135,193 L-153,199 L-175,202 L-191,202 L-211,198 L-223,194 L-249,182 L-270,172 L-282,167 L-295,164 L-318,164 L-334,169 L-357,179 L-378,189 L-393,195 L-418,200 L-445,200 L-470,194 L-481,189 L-507,177 L-532,167 L-547,164 L-570,165 L-582,169 L-590,171 L-598,175 L-614,183 L-626,189 L-643,196 L-655,199 L-668,201 L-691,201 L-709,198 L-729,190 L-748,180 L-758,175 L-775,168 L-792,163 L-805,160 L-808,157 L-809,153 L-806,146 L-805,145 L-799,145 L-792,148 L-784,149 L-772,152 L-762,157 L-745,164 L-731,172 L-721,177 L-710,182 L-700,186 L-689,187 L-668,187 L-651,184 L-642,181 L-619,171 L-600,162 L-592,158 L-577,153 L-565,150 L-542,150 L-532,151 L-526,154 L-517,157 L-507,162 L-500,161 L-481,152 L-466,149 L-457,148 L-392,148 L-362,149 L-337,149 L-288,150 L-188,150 L-169,146 L-155,141 L-138,131 L-130,123 L-124,118 L-117,109 L-112,104 L-98,90 L-93,85 L-86,77 L-81,72 L-74,66 L-67,58 L-59,50 L-54,44 L-49,40 L-42,32 L-32,22 L-27,17 L-16,7 L-4,1 Z M35,43 L34,44 L34,49 L39,51 L41,47 L39,43 Z M0,76 L-8,82 L-38,112 L-45,121 L-57,134 L-63,143 L-63,149 L-62,151 L-59,152 L-48,153 L-26,159 L10,176 L27,183 L41,188 L54,191 L78,191 L89,190 L101,186 L109,184 L125,176 L136,170 L140,166 L139,161 L137,160 L118,158 L101,155 L88,150 L80,146 L69,138 L52,121 L45,113 L36,104 L29,96 L26,95 L26,93 L21,88 L11,78 L8,76 Z " fill="#000000" transform="translate(851,578)"/>
<path d="M0,0 L2,2 L-1,1 Z " fill="#000000" transform="translate(30,603)"/>
<path d="M0,0 L24,0 L34,3 L45,8 L53,15 L61,25 L65,32 L68,41 L69,58 L64,76 L58,87 L53,93 L45,100 L35,106 L30,109 L18,112 L8,112 L-1,110 L-11,105 L-23,96 L-34,85 L-39,73 L-42,61 L-42,52 L-40,37 L-31,21 L-27,16 L-25,16 L-23,12 L-19,8 L-9,3 Z " fill="#000000" transform="translate(617,609)"/>
<path d="M0,0 L9,0 L27,4 L38,9 L48,13 L64,22 L74,26 L79,30 L90,34 L109,38 L126,39 L149,36 L167,30 L177,26 L190,19 L206,11 L223,6 L238,2 L254,2 L265,3 L286,10 L316,24 L340,35 L356,38 L367,39 L379,39 L390,38 L408,33 L424,27 L438,20 L454,13 L466,7 L482,3 L499,2 L519,6 L526,9 L535,12 L547,18 L562,26 L583,35 L603,40 L610,41 L628,41 L643,39 L656,35 L672,29 L688,21 L703,14 L715,9 L728,5 L753,5 L766,8 L777,12 L801,23 L822,33 L843,40 L854,42 L886,42 L896,39 L907,37 L923,29 L942,20 L958,12 L968,9 L984,6 L990,5 L995,10 L995,17 L992,20 L973,22 L957,27 L945,32 L920,45 L912,49 L903,52 L883,56 L866,56 L850,55 L836,51 L821,46 L791,32 L770,23 L759,20 L756,19 L732,19 L719,22 L703,28 L687,36 L671,44 L656,49 L652,51 L636,54 L606,54 L589,51 L573,44 L560,39 L541,29 L529,24 L513,18 L507,17 L485,17 L459,25 L446,31 L428,39 L412,46 L403,49 L382,52 L357,52 L339,48 L321,42 L306,34 L297,30 L285,25 L270,19 L265,17 L252,16 L238,16 L228,19 L219,21 L199,29 L174,42 L165,46 L151,50 L134,53 L115,53 L102,51 L87,47 L69,40 L47,28 L28,19 L16,15 L4,13 L-2,9 L-3,4 Z " fill="#000000" transform="translate(49,776)"/>
<path d="M0,0 L17,2 L26,5 L36,8 L61,20 L76,28 L80,31 L87,34 L108,39 L132,40 L151,37 L167,32 L189,22 L201,15 L210,12 L220,8 L229,5 L246,2 L257,3 L273,6 L287,11 L296,15 L309,21 L321,26 L327,30 L340,35 L358,40 L366,41 L390,40 L395,38 L409,35 L435,23 L448,17 L461,12 L474,7 L486,4 L504,4 L515,6 L535,13 L547,19 L554,23 L569,31 L594,40 L603,42 L617,43 L634,43 L650,40 L670,32 L688,24 L704,16 L712,12 L731,7 L751,6 L779,13 L796,21 L808,28 L829,36 L837,40 L857,45 L871,45 L891,43 L904,40 L910,37 L920,33 L924,30 L933,26 L949,17 L967,11 L988,8 L994,12 L994,18 L990,21 L970,24 L961,28 L944,35 L934,41 L913,51 L897,55 L884,58 L852,57 L843,55 L827,50 L815,45 L799,38 L789,32 L773,25 L760,21 L730,21 L713,26 L692,36 L676,44 L660,50 L639,55 L634,56 L605,56 L599,54 L589,52 L573,46 L547,34 L535,27 L520,21 L502,18 L493,18 L482,19 L470,23 L454,29 L434,39 L419,46 L411,49 L384,54 L365,54 L354,53 L329,46 L311,38 L296,30 L289,27 L273,21 L259,17 L247,17 L234,18 L214,24 L198,32 L181,41 L168,47 L146,53 L140,54 L112,54 L100,52 L86,48 L74,43 L49,30 L33,22 L13,16 L0,15 L-4,12 L-5,4 L-3,1 Z " fill="#000000" transform="translate(48,826)"/>
<path d="M0,0 L15,3 L27,5 L37,8 L58,18 L69,24 L88,33 L107,39 L117,40 L132,40 L150,39 L166,33 L190,23 L206,15 L222,8 L234,5 L236,4 L265,4 L294,13 L309,21 L330,31 L339,34 L350,38 L360,40 L376,41 L396,39 L411,35 L423,30 L449,18 L476,7 L491,4 L501,4 L514,6 L530,11 L542,16 L558,24 L568,29 L584,36 L597,40 L616,43 L642,42 L658,37 L678,30 L705,17 L718,11 L733,8 L735,7 L754,7 L767,10 L772,12 L780,14 L798,22 L810,28 L827,36 L846,43 L862,46 L886,45 L907,41 L923,34 L939,26 L957,16 L967,13 L979,11 L993,11 L997,16 L996,20 L993,23 L984,23 L961,29 L940,40 L924,48 L913,53 L895,58 L885,59 L860,59 L847,56 L836,54 L827,50 L817,46 L802,38 L793,34 L783,29 L768,24 L754,21 L737,21 L720,25 L707,30 L688,39 L672,47 L650,54 L639,56 L601,56 L579,48 L548,34 L532,26 L520,21 L504,18 L493,18 L472,23 L451,32 L441,36 L427,43 L415,48 L400,52 L384,54 L363,54 L343,50 L332,46 L317,40 L294,28 L282,24 L271,19 L256,17 L245,17 L227,21 L214,26 L200,32 L184,40 L171,47 L147,53 L138,55 L117,55 L106,53 L97,52 L75,43 L52,31 L36,23 L26,19 L17,17 L4,15 L-2,12 L-4,9 L-4,3 Z " fill="#000000" transform="translate(46,875)"/>
<path d="M0,0 L4,2 L5,10 L5,21 L4,31 L4,78 L5,91 L5,117 L4,129 L4,140 L9,146 L12,147 L33,148 L56,148 L61,150 L61,151 L0,151 Z " fill="#000000" transform="translate(0,929)"/>
<path d="M0,0 L11,0 L32,5 L56,16 L75,26 L90,33 L105,37 L115,38 L136,38 L147,37 L161,33 L176,27 L193,18 L205,13 L218,8 L233,3 L251,1 L265,2 L286,9 L302,16 L327,28 L344,35 L355,38 L391,38 L410,34 L425,27 L443,19 L463,10 L483,3 L502,2 L513,3 L533,10 L547,17 L557,22 L573,30 L588,36 L613,41 L624,41 L640,40 L664,33 L687,23 L703,15 L714,10 L724,7 L734,5 L755,5 L773,9 L782,13 L795,18 L809,26 L829,35 L837,38 L846,40 L853,42 L864,43 L876,43 L895,41 L906,38 L915,35 L923,31 L942,21 L958,13 L973,9 L991,8 L994,10 L994,17 L990,20 L973,23 L957,28 L934,40 L924,45 L908,51 L893,55 L868,57 L858,56 L842,53 L822,46 L795,33 L777,25 L765,21 L752,19 L736,19 L722,22 L710,26 L701,30 L675,43 L659,49 L640,54 L615,55 L600,53 L579,47 L554,35 L540,28 L525,21 L510,17 L490,17 L478,19 L459,26 L444,33 L428,40 L418,45 L402,49 L386,52 L365,52 L350,50 L331,45 L310,35 L295,28 L270,18 L255,16 L240,16 L227,19 L207,26 L189,36 L177,41 L169,45 L153,50 L141,52 L110,52 L89,47 L75,42 L60,34 L51,29 L39,24 L25,18 L13,15 L2,13 L-2,9 L-2,2 Z " fill="#000000" transform="translate(47,927)"/>
<path d="M0,0 L10,0 L27,4 L36,8 L44,15 L54,15 L70,24 L79,29 L94,34 L101,36 L121,38 L130,38 L133,37 L145,36 L155,33 L171,27 L200,13 L215,7 L224,4 L232,2 L235,1 L261,1 L280,6 L290,11 L303,17 L327,28 L337,33 L348,36 L363,38 L381,38 L388,37 L395,36 L412,31 L444,16 L460,9 L483,2 L500,1 L517,4 L537,12 L544,16 L552,20 L568,28 L588,36 L595,38 L609,40 L632,40 L639,38 L650,36 L662,32 L688,20 L709,10 L724,5 L728,4 L750,3 L773,9 L792,17 L808,25 L825,33 L837,37 L846,40 L861,42 L886,41 L908,35 L915,33 L922,28 L938,20 L957,11 L969,8 L986,5 L992,8 L992,14 L987,19 L973,20 L964,23 L954,27 L942,33 L930,40 L921,44 L912,48 L902,52 L895,54 L877,55 L872,54 L856,54 L853,53 L836,51 L812,41 L802,37 L786,29 L774,23 L761,19 L748,17 L736,17 L733,18 L722,19 L702,27 L690,33 L670,42 L655,49 L648,52 L643,53 L609,53 L596,51 L579,47 L564,40 L548,32 L524,21 L511,17 L494,16 L479,17 L466,21 L453,27 L432,36 L422,42 L416,45 L400,50 L392,51 L346,51 L332,46 L310,36 L294,28 L283,23 L275,21 L263,16 L259,15 L243,15 L228,17 L212,22 L195,31 L176,40 L158,48 L147,50 L132,50 L130,46 L124,46 L120,49 L95,49 L79,44 L60,36 L54,32 L31,21 L11,15 L-1,13 L-5,9 L-5,3 Z " fill="#000000" transform="translate(49,977)"/>
<path d="M0,0 L9,0 L11,2 L-2,2 Z " fill="#000000" transform="translate(65,1078)"/>
<path d="M0,0 L5,0 L5,1 L0,1 Z " fill="#000000" transform="translate(80,1079)"/>
<path d="M0,0 L3,1 Z " fill="#000000" transform="translate(94,1079)"/>
</svg>
