<?xml version="1.0" encoding="UTF-8"?>
<!-- Generator: visioncortex VTracer 0.6.12 -->
<svg version="1.1" xmlns="http://www.w3.org/2000/svg" width="1131" height="1128">
<path d="M0,0 L872,0 L875,2 L891,6 L912,15 L927,23 L938,30 L942,34 L956,45 L971,59 L981,72 L990,85 L1001,106 L1006,118 L1007,119 L1007,983 L1004,994 L1001,1006 L994,1025 L986,1042 L976,1058 L966,1071 L951,1087 L944,1094 L936,1101 L926,1108 L917,1114 L901,1122 L889,1128 L8,1128 L8,1126 L-4,1124 L-24,1116 L-43,1106 L-54,1099 L-68,1088 L-78,1079 L-88,1069 L-99,1055 L-109,1040 L-118,1023 L-124,1011 L-124,145 L-118,124 L-112,107 L-104,91 L-99,82 L-87,64 L-76,51 L-66,41 L-58,34 L-47,25 L-31,15 L-15,7 L-3,2 L0,2 Z M64,24 L35,27 L14,33 L-2,39 L-18,48 L-30,56 L-39,64 L-42,66 L-42,68 L-46,70 L-58,84 L-67,97 L-76,113 L-82,127 L-87,143 L-90,160 L-91,172 L-93,300 L-94,346 L-95,466 L-97,588 L-98,695 L-100,834 L-101,946 L-99,970 L-96,983 L-88,1006 L-77,1026 L-69,1038 L-62,1045 L-55,1053 L-48,1060 L-36,1069 L-22,1078 L-6,1086 L10,1092 L20,1095 L41,1098 L143,1099 L245,1100 L319,1101 L372,1101 L550,1103 L614,1104 L780,1105 L828,1105 L845,1104 L870,1098 L898,1085 L910,1077 L923,1067 L936,1055 L942,1046 L951,1034 L960,1018 L968,999 L973,980 L975,968 L976,950 L977,889 L978,789 L979,680 L980,631 L980,599 L981,517 L982,402 L984,255 L984,175 L981,154 L975,134 L970,122 L959,101 L950,90 L941,80 L934,71 L917,58 L900,48 L890,44 L878,39 L857,34 L832,32 L775,31 L698,30 L575,29 L548,28 L282,26 L213,25 L148,24 Z " fill="#000000" transform="translate(124,0)"/>
<path d="M0,0 L22,0 L32,4 L43,10 L52,17 L60,32 L62,49 L60,63 L56,74 L50,86 L40,96 L25,105 L9,113 L0,120 L-5,127 L-8,135 L-8,148 L-4,163 L-4,179 L-6,191 L-7,193 L-9,212 L-16,252 L-20,272 L-24,296 L-28,310 L-27,315 L-13,323 L7,334 L23,343 L32,348 L57,361 L68,370 L73,375 L83,385 L85,386 L85,388 L89,390 L112,413 L119,419 L119,421 L123,423 L128,429 L135,434 L142,442 L157,456 L168,467 L173,472 L180,479 L185,484 L228,527 L235,533 L240,539 L248,546 L253,552 L258,556 L263,561 L268,566 L273,571 L279,576 L286,584 L302,600 L306,605 L311,606 L319,599 L328,590 L336,583 L340,578 L346,573 L351,567 L359,560 L368,551 L373,545 L378,546 L389,558 L389,564 L381,572 L379,572 L377,576 L364,588 L355,595 L351,600 L343,607 L339,611 L337,611 L335,615 L313,637 L307,638 L289,620 L289,618 L283,617 L288,631 L288,648 L282,664 L276,672 L269,679 L253,687 L248,688 L229,688 L220,685 L210,680 L202,673 L194,662 L189,649 L189,628 L193,618 L200,608 L208,600 L218,594 L226,591 L234,590 L244,590 L253,592 L260,593 L258,589 L251,583 L251,581 L249,581 L242,573 L230,561 L225,557 L218,549 L210,541 L202,534 L133,465 L133,463 L129,461 L121,452 L116,447 L108,440 L104,435 L99,430 L84,415 L79,410 L71,401 L63,394 L47,377 L35,370 L28,365 L22,362 L8,352 L-10,341 L-19,335 L-28,329 L-32,330 L-35,344 L-37,359 L-37,371 L-31,394 L-27,405 L-24,414 L-22,423 L-14,448 L-2,484 L6,512 L7,554 L7,677 L5,684 L-44,684 L-47,680 L-48,588 L-49,534 L-54,519 L-59,501 L-63,490 L-68,473 L-72,461 L-74,453 L-80,432 L-84,421 L-86,411 L-92,390 L-98,374 L-102,373 L-107,381 L-116,398 L-123,415 L-131,431 L-136,443 L-143,458 L-154,481 L-162,497 L-169,512 L-177,531 L-185,547 L-193,564 L-200,578 L-207,595 L-215,610 L-219,620 L-227,636 L-238,662 L-243,674 L-249,675 L-264,673 L-292,672 L-294,671 L-295,667 L-291,655 L-286,645 L-280,631 L-269,605 L-262,589 L-257,576 L-249,557 L-244,546 L-238,530 L-228,506 L-221,490 L-211,466 L-205,452 L-198,435 L-194,426 L-187,411 L-180,391 L-172,374 L-167,362 L-160,348 L-156,338 L-152,326 L-143,301 L-133,273 L-129,260 L-121,240 L-114,219 L-108,203 L-100,181 L-93,160 L-86,145 L-82,139 L-70,130 L-54,122 L-45,116 L-38,109 L-34,101 L-34,83 L-36,71 L-36,45 L-32,30 L-28,21 L-18,10 Z M231,612 L220,618 L216,622 L211,634 L211,644 L214,653 L220,660 L231,666 L246,666 L256,660 L261,654 L264,649 L265,644 L265,633 L262,625 L253,616 L245,612 Z " fill="#000000" transform="translate(498,186)"/>
<path d="M0,0 L16,0 L25,1 L35,5 L44,11 L55,22 L54,27 L42,39 L35,47 L30,51 L23,59 L12,70 L6,77 L0,82 L-7,90 L-19,103 L-28,112 L-35,120 L-43,128 L-50,136 L-65,152 L-80,168 L-97,185 L-100,188 L-104,187 L-116,174 L-122,167 L-127,153 L-128,141 L-124,125 L-117,111 L-103,96 L-88,81 L-81,73 L-72,62 L-66,57 L-59,49 L-47,37 L-42,32 L-33,22 L-28,17 L-20,9 L-9,3 Z " fill="#000000" transform="translate(692,380)"/>
<path d="M0,0 L2,0 L1,2 Z " fill="#000000" transform="translate(507,389)"/>
<path d="M0,0 L5,0 L16,12 L31,27 L37,28 L57,8 L65,3 L78,3 L89,10 L98,19 L106,26 L116,35 L124,42 L129,50 L129,67 L123,77 L111,91 L108,95 L109,100 L121,112 L126,117 L135,125 L136,130 L129,138 L118,150 L113,154 L106,162 L92,176 L85,184 L67,202 L63,207 L58,212 L55,213 L53,217 L39,231 L32,239 L-8,279 L-15,287 L-22,293 L-27,292 L-94,225 L-94,223 L-98,221 L-117,202 L-125,195 L-134,186 L-138,183 L-138,181 L-142,179 L-150,172 L-155,165 L-153,160 L-143,151 L-136,143 L-131,138 L-120,126 L-112,118 L-105,110 L-95,100 L-88,92 L-75,79 L-68,71 L-52,55 L-45,47 L-43,47 L-41,43 L-28,30 L-23,25 L-14,15 L-7,8 Z M71,21 L60,29 L51,40 L52,47 L60,54 L65,59 L79,73 L87,80 L91,84 L96,84 L107,70 L111,64 L112,55 L108,48 L101,42 L96,37 L89,30 L78,22 Z " fill="#000000" transform="translate(765,423)"/>
<path d="M0,0 L5,1 L14,12 L19,17 L25,26 L29,34 L30,38 L30,54 L26,67 L16,81 L-21,118 L-23,118 L-25,122 L-40,137 L-47,145 L-55,153 L-60,159 L-65,164 L-74,173 L-82,179 L-103,191 L-125,191 L-134,187 L-142,182 L-155,171 L-158,167 L-157,162 L-149,154 L-143,149 L-139,144 L-134,139 L-127,131 L-121,126 L-114,118 L-103,107 L-98,102 L-85,89 L-76,78 L-66,69 L-57,59 L-50,52 L-48,52 L-46,48 L-38,40 L-29,29 L-17,17 L-11,12 L-2,1 Z " fill="#000000" transform="translate(921,571)"/>
</svg>
