<?xml version="1.0" encoding="UTF-8"?>
<!-- Generator: visioncortex VTracer 0.6.12 -->
<svg version="1.1" xmlns="http://www.w3.org/2000/svg" width="615" height="393">
<path d="M0,0 L13,1 L20,5 L39,15 L42,16 L43,13 L46,14 L45,17 L42,17 L46,23 L55,33 L59,40 L62,40 L63,38 L69,38 L73,43 L69,45 L63,44 L66,47 L91,47 L90,41 L92,39 L97,40 L97,44 L94,46 L187,46 L198,49 L209,49 L217,40 L224,32 L233,21 L241,11 L245,6 L252,2 L256,1 L263,1 L270,7 L274,15 L273,32 L271,35 L269,41 L262,49 L257,54 L251,64 L244,73 L238,81 L229,89 L224,95 L214,101 L205,108 L202,110 L191,112 L172,112 L169,110 L164,111 L161,112 L154,112 L147,110 L136,111 L124,111 L118,110 L115,112 L109,111 L99,111 L89,108 L79,108 L69,113 L66,112 L65,106 L60,108 L59,110 L52,111 L45,111 L42,108 L38,109 L31,111 L20,111 L10,112 L5,109 L0,110 L-2,111 L-9,111 L-12,108 L-17,111 L-31,111 L-40,108 L-43,110 L-57,111 L-60,109 L-64,110 L-66,111 L-81,111 L-86,109 L-91,112 L-98,112 L-106,110 L-125,111 L-127,110 L-134,110 L-142,112 L-146,111 L-196,110 L-199,107 L-203,103 L-216,94 L-225,87 L-236,79 L-248,68 L-255,60 L-261,53 L-267,44 L-273,35 L-273,24 L-269,18 L-262,12 L-254,13 L-244,19 L-234,31 L-227,39 L-221,47 L-209,58 L-203,62 L-197,61 L-193,55 L-190,50 L-187,48 L-170,47 L-148,48 L-109,47 L-70,47 L-64,45 L-59,40 L-53,29 L-43,16 L-30,8 L-25,5 L-11,1 Z M-3,18 L-15,21 L-23,28 L-28,32 L-28,37 L-22,42 L-22,44 L-29,45 L-28,47 L-7,48 L4,49 L28,48 L32,46 L33,44 L33,33 L28,28 L22,28 L21,23 L14,18 Z " fill="#000000" transform="translate(309,37)"/>
<path d="M0,0 L3,2 L1,6 L-2,5 L-1,1 Z " fill="#000000" transform="translate(421,76)"/>
<path d="M0,0 L4,1 L4,3 L-1,2 Z " fill="#000000" transform="translate(335,159)"/>
<path d="M0,0 L1,2 L-1,1 Z " fill="#000000" transform="translate(457,159)"/>
<path d="M0,0 L16,1 L160,1 L165,2 L182,2 L232,1 L319,0 L324,2 L328,7 L328,9 L334,10 L335,15 L334,27 L336,32 L336,41 L334,46 L335,53 L337,60 L337,67 L333,72 L336,76 L336,83 L334,86 L335,91 L336,92 L337,105 L336,111 L336,130 L334,141 L331,150 L329,160 L323,169 L316,178 L301,187 L290,190 L279,192 L275,194 L262,194 L237,195 L213,194 L204,193 L195,189 L193,194 L189,195 L186,192 L178,190 L165,189 L162,195 L158,194 L156,191 L156,188 L151,190 L149,195 L139,194 L94,194 L90,195 L72,195 L69,196 L51,196 L28,195 L26,193 L20,194 L14,195 L0,196 L-2,195 L-11,194 L-14,191 L-21,190 L-24,188 L-29,188 L-31,190 L-36,189 L-37,183 L-47,180 L-53,176 L-60,170 L-66,162 L-72,148 L-75,136 L-75,81 L-74,67 L-74,51 L-73,45 L-72,15 L-68,6 L-65,3 L-61,2 L-35,2 L-29,3 L-17,3 L-11,1 Z " fill="#000000" transform="translate(180,164)"/>
</svg>
