<?xml version="1.0" encoding="UTF-8"?>
<!-- Generator: visioncortex VTracer 0.6.12 -->
<svg version="1.1" xmlns="http://www.w3.org/2000/svg" width="612" height="399">
<path d="M0,0 L36,1 L61,5 L65,7 L76,8 L87,12 L113,19 L129,27 L143,35 L153,43 L163,48 L172,49 L185,49 L201,48 L215,48 L225,49 L244,53 L268,60 L280,66 L288,70 L293,72 L304,82 L309,88 L314,93 L320,101 L327,111 L335,127 L339,138 L342,152 L343,161 L343,175 L342,196 L338,210 L332,227 L324,240 L316,250 L310,259 L295,273 L288,278 L265,286 L255,291 L236,294 L224,294 L212,295 L184,295 L164,292 L154,291 L134,292 L117,292 L95,295 L83,299 L64,303 L43,311 L21,316 L-2,323 L-19,326 L-29,328 L-46,328 L-65,325 L-77,324 L-86,320 L-101,312 L-112,306 L-120,299 L-127,291 L-138,274 L-145,261 L-153,254 L-164,247 L-176,236 L-184,227 L-192,211 L-196,200 L-198,195 L-200,186 L-202,182 L-201,155 L-198,137 L-194,119 L-186,99 L-178,83 L-171,73 L-163,62 L-148,47 L-131,35 L-125,31 L-111,25 L-97,17 L-84,13 L-79,11 L-61,7 L-52,6 L-42,4 L-15,1 Z M93,65 L82,66 L76,69 L71,75 L71,82 L74,88 L83,94 L94,99 L103,99 L111,95 L116,87 L116,80 L112,73 L106,68 L97,65 Z M-108,194 L-116,201 L-120,209 L-123,215 L-131,219 L-137,222 L-138,224 L-138,230 L-133,234 L-127,236 L-114,236 L-103,232 L-96,224 L-92,216 L-92,205 L-95,198 L-101,194 Z " fill="#000000" transform="translate(237,37)"/>
</svg>
