<?xml version="1.0" encoding="UTF-8"?>
<!-- Generator: visioncortex VTracer 0.6.12 -->
<svg version="1.1" xmlns="http://www.w3.org/2000/svg" width="1107" height="1095">
<path d="M0,0 L860,0 L862,1 L871,2 L871,0 L979,0 L984,2 L984,0 L1001,0 L1002,1 L1021,2 L1025,3 L1028,2 L1069,3 L1084,4 L1107,4 L1107,19 L1070,18 L1036,18 L1012,17 L999,15 L970,16 L936,15 L897,15 L883,13 L878,15 L873,14 L871,13 L849,12 L824,12 L790,13 L763,12 L751,12 L739,11 L710,10 L645,10 L586,9 L568,9 L548,8 L545,7 L529,7 L506,6 L468,7 L416,7 L373,6 L343,6 L318,5 L236,5 L215,4 L118,4 L97,5 L85,5 L78,4 L21,4 L14,8 L13,10 L13,46 L12,88 L11,103 L11,130 L10,156 L9,257 L8,290 L8,330 L7,433 L7,458 L5,665 L5,697 L4,745 L4,822 L3,894 L3,929 L2,958 L0,961 L0,68 L2,68 L1,57 L0,56 Z M1069,8 L1069,11 L1072,11 L1072,8 Z " fill="#000000" transform="translate(0,0)"/>
<path d="M0,0 L1,0 L1,60 L-1,56 L-2,51 L-2,23 L-1,1 Z " fill="#000000" transform="translate(1106,278)"/>
<path d="M0,0 Z " fill="#000000" transform="translate(1106,339)"/>
<path d="M0,0 L1,0 L1,711 L-1,718 L-1,728 L1,731 L1,734 L-17,734 L-12,728 L-10,723 L-10,710 L-11,706 L-11,675 L-10,663 L-10,640 L-9,630 L-8,576 L-7,546 L-7,518 L-6,417 L-5,296 L-6,264 L-5,248 L-5,227 L-3,165 L-4,147 L-4,134 L-3,124 L-3,99 L-2,5 Z " fill="#000000" transform="translate(1106,361)"/>
<path d="M0,0 L24,1 L38,6 L50,13 L54,19 L59,24 L63,29 L70,39 L78,55 L83,69 L86,83 L87,94 L87,115 L83,139 L77,157 L70,171 L66,177 L58,187 L49,194 L43,197 L29,204 L18,207 L-3,207 L-20,202 L-33,196 L-40,192 L-44,193 L-47,198 L-48,218 L-48,233 L-45,243 L-26,246 L-17,250 L-14,254 L-13,257 L-13,264 L-17,269 L-24,273 L-33,274 L-67,274 L-70,273 L-98,272 L-107,269 L-111,264 L-113,260 L-113,251 L-109,246 L-104,244 L-87,244 L-82,241 L-78,235 L-77,224 L-76,114 L-75,107 L-75,94 L-74,69 L-74,43 L-78,36 L-82,33 L-107,30 L-112,23 L-113,14 L-111,9 L-104,5 L-98,3 L-59,3 L-50,9 L-45,16 L-41,18 L-35,17 L-21,7 L-9,2 Z M3,31 L-7,33 L-23,41 L-31,49 L-40,65 L-45,80 L-48,99 L-48,113 L-46,131 L-43,144 L-33,162 L-23,172 L-11,178 L-2,180 L12,180 L26,176 L37,169 L44,161 L50,152 L58,130 L59,126 L60,113 L60,96 L61,86 L56,69 L51,60 L48,53 L42,45 L36,40 L21,32 L16,31 Z M-60,137 L-59,141 L-56,141 L-56,137 Z " fill="#000000" transform="translate(214,439)"/>
<path d="M0,0 L20,1 L32,5 L45,10 L56,17 L65,25 L72,37 L78,47 L84,61 L87,75 L89,91 L89,106 L86,111 L82,113 L74,114 L4,113 L-37,113 L-42,115 L-44,118 L-43,134 L-39,148 L-31,164 L-22,173 L-10,180 L-1,184 L10,183 L19,183 L30,179 L35,176 L41,172 L46,167 L48,167 L50,163 L58,151 L66,146 L72,147 L78,151 L81,158 L78,170 L71,181 L63,191 L53,200 L34,210 L20,213 L-1,213 L-14,210 L-33,201 L-46,189 L-53,181 L-60,170 L-65,157 L-69,146 L-72,134 L-73,96 L-71,80 L-68,64 L-64,53 L-57,43 L-51,34 L-43,23 L-35,16 L-25,10 L-6,1 Z M1,31 L-13,36 L-23,43 L-32,51 L-39,65 L-40,69 L-40,79 L-35,84 L-32,85 L-8,87 L51,86 L56,83 L59,78 L59,69 L53,53 L43,43 L29,35 L20,32 Z " fill="#000000" transform="translate(570,441)"/>
<path d="M0,0 L9,1 L21,6 L29,12 L35,19 L43,34 L45,40 L45,56 L41,65 L36,70 L28,75 L13,76 L5,72 L-2,63 L-3,60 L-4,40 L-9,35 L-16,36 L-21,39 L-28,44 L-33,49 L-40,55 L-46,62 L-54,69 L-60,78 L-61,81 L-63,151 L-63,161 L-61,175 L-58,179 L-46,181 L-35,182 L-29,186 L-26,191 L-27,199 L-29,204 L-33,207 L-36,208 L-50,209 L-79,209 L-99,208 L-118,208 L-124,204 L-128,198 L-128,189 L-123,183 L-117,180 L-100,180 L-95,177 L-93,175 L-91,146 L-90,72 L-90,47 L-94,37 L-99,35 L-117,33 L-124,29 L-128,22 L-128,12 L-122,5 L-115,3 L-103,3 L-72,5 L-65,8 L-62,13 L-60,22 L-58,26 L-52,27 L-41,19 L-35,12 L-19,2 L-16,1 Z " fill="#000000" transform="translate(446,441)"/>
<path d="M0,0 L16,0 L30,2 L39,6 L49,12 L51,16 L55,18 L60,20 L67,20 L70,10 L74,5 L80,1 L87,2 L94,10 L95,15 L95,59 L94,68 L89,75 L84,78 L78,78 L70,72 L64,61 L49,46 L30,36 L19,33 L-1,33 L-8,36 L-13,40 L-16,45 L-17,49 L-17,63 L-14,70 L-9,74 L5,81 L13,84 L23,86 L48,91 L55,93 L66,95 L80,101 L90,111 L97,122 L102,134 L103,150 L101,164 L96,177 L89,189 L84,194 L78,200 L69,205 L58,210 L44,212 L31,212 L17,209 L4,204 L-12,196 L-16,194 L-22,194 L-26,198 L-32,206 L-38,209 L-44,209 L-51,205 L-53,202 L-54,197 L-54,169 L-53,137 L-49,131 L-44,128 L-37,129 L-32,132 L-28,137 L-22,149 L-7,164 L6,173 L19,179 L29,182 L40,182 L52,180 L62,175 L67,169 L71,162 L72,158 L72,138 L69,132 L57,122 L48,119 L30,114 L18,112 L-6,107 L-16,103 L-29,96 L-39,85 L-46,71 L-47,67 L-47,48 L-43,33 L-39,24 L-34,17 L-18,5 L-5,1 Z " fill="#000000" transform="translate(737,445)"/>
<path d="M0,0 L21,0 L38,5 L46,9 L56,16 L60,18 L68,18 L72,14 L77,4 L80,2 L88,2 L93,5 L96,10 L96,63 L93,70 L88,74 L79,74 L73,70 L67,61 L59,53 L54,48 L44,40 L34,35 L18,30 L16,29 L6,29 L-4,32 L-10,37 L-14,43 L-16,54 L-14,63 L-8,72 L4,78 L20,83 L39,87 L58,92 L67,95 L80,101 L92,111 L98,120 L103,134 L104,142 L104,156 L99,171 L92,184 L83,194 L78,198 L64,205 L46,210 L27,210 L11,207 L-5,199 L-17,192 L-23,192 L-27,197 L-31,204 L-36,208 L-41,209 L-49,206 L-52,203 L-53,198 L-55,173 L-55,149 L-52,133 L-44,127 L-39,126 L-34,128 L-28,135 L-20,151 L-9,163 L2,171 L19,179 L29,181 L44,182 L54,179 L62,174 L64,174 L66,170 L70,166 L73,160 L75,141 L69,129 L64,125 L53,119 L24,112 L15,110 L6,108 L-9,104 L-25,96 L-35,88 L-40,80 L-45,70 L-46,66 L-47,50 L-45,42 L-39,27 L-32,18 L-23,10 L-13,4 Z M86,136 L86,139 L91,138 L90,136 Z M89,143 L86,150 L86,156 L88,159 L92,158 L94,153 L94,145 L92,143 Z M50,191 L50,195 L54,196 L55,192 Z " fill="#000000" transform="translate(916,449)"/>
<path d="M0,0 L2,2 L0,2 Z " fill="#000000" transform="translate(729,861)"/>
<path d="M0,0 L1,0 L2,5 L2,40 L0,42 Z " fill="#000000" transform="translate(0,976)"/>
<path d="M0,0 L2,0 L4,4 L10,6 L38,6 L82,8 L136,8 L155,9 L197,9 L211,10 L235,10 L266,11 L336,11 L362,12 L398,12 L468,13 L482,14 L603,13 L624,14 L670,14 L681,15 L748,15 L753,16 L762,16 L766,15 L783,15 L841,17 L1018,17 L1024,18 L1073,20 L1076,23 L368,23 L367,22 L350,22 L329,21 L225,21 L216,20 L150,20 L82,19 L74,18 L60,19 L0,19 Z " fill="#000000" transform="translate(0,1072)"/>
</svg>
