<?xml version="1.0" encoding="UTF-8"?>
<!-- Generator: visioncortex VTracer 0.6.12 -->
<svg version="1.1" xmlns="http://www.w3.org/2000/svg" width="1656" height="1494">
<path d="M0,0 L5,1 L7,5 L1,3 Z " fill="#000000" transform="translate(891,36)"/>
<path d="M0,0 L7,1 L9,4 L10,10 L10,63 L9,129 L9,140 L11,150 L15,152 L35,153 L43,152 L125,152 L127,150 L128,146 L129,8 L132,4 L139,5 L143,13 L144,38 L143,103 L142,212 L144,263 L144,332 L149,334 L149,337 L146,339 L144,367 L144,493 L145,507 L145,759 L144,778 L146,798 L148,840 L148,866 L147,874 L148,908 L148,965 L149,993 L149,1032 L150,1039 L150,1082 L149,1125 L149,1194 L148,1204 L146,1206 L139,1206 L136,1203 L136,1177 L135,1165 L136,1147 L136,1094 L137,1060 L136,1032 L136,1018 L135,998 L132,995 L130,994 L110,993 L59,994 L53,995 L53,1010 L55,1019 L57,1034 L61,1048 L66,1071 L70,1082 L74,1097 L80,1119 L85,1135 L87,1145 L90,1153 L90,1162 L85,1166 L83,1167 L41,1167 L23,1169 L20,1170 L18,1176 L16,1204 L13,1206 L-2,1205 L-4,1204 L-5,1201 L-5,1181 L-7,1172 L-8,1171 L-23,1170 L-29,1168 L-35,1168 L-37,1169 L-46,1168 L-56,1166 L-62,1163 L-64,1160 L-66,1145 L-68,1140 L-70,1132 L-72,1122 L-75,1107 L-77,1102 L-79,1091 L-86,1070 L-91,1055 L-96,1038 L-101,1019 L-106,1002 L-109,995 L-111,994 L-129,994 L-134,992 L-142,995 L-151,995 L-153,1002 L-153,1040 L-152,1059 L-152,1116 L-153,1127 L-154,1175 L-154,1205 L-156,1207 L-163,1207 L-167,1204 L-168,1181 L-168,1017 L-169,1000 L-171,996 L-193,996 L-197,998 L-201,1010 L-205,1032 L-208,1046 L-210,1059 L-216,1079 L-223,1110 L-226,1136 L-231,1157 L-234,1172 L-238,1176 L-262,1176 L-293,1174 L-295,1177 L-296,1192 L-296,1200 L-298,1204 L-305,1205 L-314,1203 L-316,1201 L-318,1178 L-321,1174 L-350,1174 L-388,1175 L-397,1174 L-401,1170 L-401,1158 L-398,1139 L-393,1133 L-390,1122 L-388,1105 L-383,1085 L-382,1083 L-380,1063 L-374,1037 L-373,1034 L-371,1018 L-368,1005 L-368,998 L-369,996 L-432,996 L-457,997 L-458,998 L-460,1029 L-460,1191 L-462,1199 L-464,1201 L-471,1201 L-475,1199 L-475,1191 L-474,1187 L-474,1035 L-475,1019 L-475,998 L-476,995 L-476,987 L-473,971 L-473,924 L-474,914 L-474,884 L-475,864 L-475,794 L-476,787 L-476,778 L-474,765 L-474,546 L-473,526 L-473,368 L-472,354 L-474,344 L-473,338 L-471,335 L-472,280 L-471,254 L-471,60 L-472,33 L-472,19 L-469,13 L-462,9 L-456,11 L-455,12 L-454,29 L-455,120 L-454,146 L-447,148 L-417,149 L-400,149 L-352,150 L-343,149 L-319,149 L-317,147 L-316,121 L-316,47 L-318,26 L-317,13 L-313,7 L-305,4 L-298,5 L-295,10 L-295,48 L-294,52 L-294,145 L-293,149 L-275,151 L-268,150 L-267,149 L-263,123 L-262,120 L-262,103 L-268,94 L-272,79 L-278,69 L-280,61 L-277,50 L-272,46 L-253,38 L-237,33 L-229,31 L-225,28 L-199,25 L-187,21 L-170,18 L-160,17 L-132,16 L-121,14 L-111,15 L-102,18 L-96,21 L-92,28 L-91,33 L-91,43 L-93,51 L-97,62 L-100,85 L-104,95 L-104,105 L-102,110 L-96,114 L-92,124 L-88,149 L-88,151 L-72,151 L-58,150 L-49,151 L-15,151 L-13,146 L-13,96 L-14,71 L-14,3 L-13,2 Z M-133,44 L-137,47 L-138,59 L-141,67 L-143,74 L-143,81 L-139,83 L-131,80 L-122,57 L-121,47 L-123,44 Z M-168,48 L-173,51 L-174,52 L-174,60 L-173,67 L-173,82 L-171,84 L-166,83 L-163,78 L-161,72 L-160,58 L-161,50 L-163,48 Z M-207,56 L-210,59 L-209,67 L-203,86 L-202,87 L-197,87 L-195,84 L-195,77 L-196,74 L-198,58 L-200,56 Z M-241,65 L-248,71 L-247,79 L-240,93 L-236,97 L-229,97 L-226,94 L-227,85 L-234,68 L-237,65 Z M-146,102 L-149,105 L-150,107 L-151,119 L-151,149 L-147,153 L-132,153 L-128,151 L-116,150 L-114,146 L-115,137 L-118,125 L-122,116 L-128,107 L-133,104 L-140,102 Z M-173,103 L-193,106 L-220,114 L-233,121 L-236,124 L-239,132 L-239,149 L-235,152 L-168,152 L-165,148 L-165,107 L-169,103 Z M-454,162 L-455,163 L-456,172 L-456,195 L-457,236 L-457,329 L-454,334 L-448,335 L-417,334 L-412,335 L-399,335 L-377,336 L-372,332 L-370,325 L-367,300 L-364,287 L-357,279 L-347,273 L-338,267 L-334,262 L-324,255 L-316,248 L-315,246 L-315,180 L-316,166 L-320,163 L-367,162 Z M-272,163 L-292,164 L-294,166 L-295,177 L-295,195 L-294,233 L-289,235 L-282,232 L-271,226 L-253,220 L-239,220 L-236,218 L-238,213 L-245,204 L-252,193 L-256,186 L-261,170 L-265,165 Z M-232,165 L-233,166 L-233,174 L-227,185 L-223,192 L-212,199 L-204,204 L-199,207 L-189,208 L-181,212 L-176,213 L-167,210 L-165,206 L-165,182 L-166,168 L-168,165 Z M-148,165 L-150,167 L-151,179 L-151,201 L-149,203 L-144,202 L-132,193 L-122,179 L-119,173 L-119,166 L-120,165 Z M-88,165 L-93,170 L-99,185 L-109,203 L-116,211 L-116,213 L-120,215 L-120,217 L-115,215 L-107,214 L-95,220 L-63,227 L-43,233 L-30,240 L-21,245 L-17,248 L-13,247 L-11,245 L-11,180 L-12,168 L-17,165 Z M120,165 L117,166 L86,166 L67,167 L50,166 L21,166 L12,167 L10,169 L9,173 L8,210 L8,243 L9,262 L11,270 L18,279 L24,298 L29,320 L32,330 L36,334 L89,334 L126,333 L128,331 L129,326 L129,310 L130,267 L130,173 L128,166 L127,165 Z M-124,218 L-131,222 L-135,225 L-149,232 L-151,234 L-151,260 L-146,261 L-140,251 L-132,240 L-125,230 L-121,220 L-121,218 Z M-214,231 L-215,234 L-205,249 L-193,263 L-185,271 L-177,281 L-172,286 L-167,285 L-165,251 L-165,242 L-169,237 L-190,236 L-205,233 L-209,231 Z M-111,241 L-113,243 L-113,246 L-108,245 L-108,241 Z M-103,249 L-111,256 L-115,261 L-117,265 L-117,270 L-114,272 L-99,272 L-92,273 L-45,273 L-41,271 L-42,266 L-56,258 L-77,252 L-97,249 Z M-248,251 L-258,255 L-268,259 L-277,266 L-276,270 L-231,270 L-230,269 L-231,262 L-240,252 L-242,251 Z M-32,273 L-35,277 L-35,294 L-39,312 L-88,312 L-92,315 L-96,313 L-97,312 L-122,310 L-133,310 L-148,311 L-151,316 L-151,331 L-148,335 L-99,336 L-95,332 L-94,328 L-91,328 L-88,335 L-86,336 L-44,335 L-39,332 L-37,323 L-34,321 L-15,320 L-12,318 L-11,315 L-11,298 L-12,288 L-16,282 L-27,273 Z M-328,295 L-333,300 L-338,306 L-339,314 L-337,318 L-317,318 L-316,313 L-321,302 L-324,295 Z M-233,310 L-250,311 L-292,311 L-295,314 L-295,329 L-293,333 L-288,334 L-252,335 L-172,335 L-168,331 L-171,320 L-175,315 L-179,313 L-189,311 L-207,310 L-218,310 L-226,311 Z M42,357 L37,362 L37,377 L39,392 L40,407 L40,463 L42,485 L42,509 L43,541 L45,543 L126,543 L128,541 L129,537 L130,514 L129,451 L129,368 L126,358 L124,357 Z M-404,359 L-424,360 L-442,361 L-454,362 L-457,370 L-458,393 L-459,462 L-459,502 L-460,540 L-458,543 L-433,543 L-428,545 L-393,546 L-372,546 L-368,543 L-368,530 L-371,493 L-373,474 L-375,425 L-375,361 L-376,360 Z M-322,361 L-327,365 L-335,365 L-340,368 L-342,372 L-342,381 L-343,391 L-340,396 L-334,397 L-318,397 L-315,394 L-315,368 L-318,362 Z M8,378 L7,379 L7,392 L9,397 L14,398 L16,396 L16,389 L13,379 Z M-238,383 L-292,384 L-294,386 L-294,395 L-287,400 L-285,407 L-280,409 L-265,410 L-179,410 L-170,409 L-167,406 L-167,386 L-170,384 Z M-18,367 L-22,372 L-25,383 L-28,385 L-42,385 L-52,384 L-86,384 L-90,385 L-93,384 L-148,384 L-151,387 L-152,399 L-150,408 L-148,409 L-88,409 L-64,410 L-59,409 L-42,409 L-39,407 L-39,398 L-32,396 L-19,394 L-13,392 L-11,387 L-12,370 L-15,367 Z M14,438 L11,442 L10,450 L10,463 L13,467 L18,466 L23,449 L23,442 L20,438 Z M-24,439 L-33,440 L-37,444 L-40,461 L-61,461 L-81,460 L-107,460 L-115,459 L-148,460 L-151,463 L-152,466 L-152,483 L-148,486 L-101,486 L-75,487 L-56,487 L-48,486 L-47,485 L-45,469 L-42,466 L-31,466 L-15,465 L-12,463 L-11,460 L-11,443 L-14,439 Z M-336,443 L-340,445 L-341,447 L-341,459 L-339,465 L-334,466 L-316,466 L-314,464 L-314,447 L-316,444 Z M-288,459 L-292,463 L-289,467 L-280,468 L-278,480 L-274,483 L-271,484 L-235,484 L-230,485 L-216,485 L-179,486 L-173,486 L-168,483 L-167,481 L-167,463 L-171,459 L-185,460 L-214,459 L-221,460 L-227,459 Z M-321,509 L-335,510 L-338,513 L-337,526 L-334,532 L-317,531 L-314,527 L-314,513 L-316,510 Z M14,511 L11,514 L10,518 L10,526 L15,530 L20,528 L24,521 L23,516 L18,511 Z M-290,511 L-293,513 L-293,528 L-291,531 L-278,531 L-272,530 L-268,535 L-265,540 L-208,540 L-183,539 L-174,539 L-168,535 L-169,530 L-171,528 L-180,526 L-184,525 L-263,525 L-272,527 L-277,524 L-279,524 L-281,520 L-286,512 Z M-52,515 L-56,523 L-62,524 L-86,524 L-89,525 L-104,526 L-113,527 L-144,527 L-150,530 L-151,531 L-151,536 L-144,539 L-126,540 L-115,539 L-93,538 L-77,537 L-73,536 L-66,536 L-61,539 L-54,538 L-44,531 L-40,530 L-15,530 L-11,527 L-11,520 L-14,517 L-16,516 Z M-52,553 L-56,557 L-59,569 L-64,575 L-74,579 L-107,579 L-117,580 L-150,580 L-154,585 L-155,590 L-155,601 L-153,606 L-150,608 L-128,608 L-75,609 L-60,608 L-56,609 L-41,609 L-34,607 L-13,607 L-10,605 L-11,582 L-14,579 L-45,578 L-47,575 L-49,555 Z M44,554 L42,557 L40,572 L38,593 L36,599 L33,613 L33,635 L27,645 L19,659 L15,667 L13,670 L12,692 L12,711 L14,720 L14,771 L16,777 L17,778 L27,779 L127,779 L131,776 L132,771 L132,712 L131,685 L131,654 L130,622 L130,574 L129,558 L126,555 L76,554 Z M-403,555 L-453,556 L-458,559 L-460,569 L-460,619 L-461,763 L-460,773 L-457,776 L-450,777 L-329,777 L-326,772 L-322,743 L-317,730 L-316,723 L-316,708 L-320,703 L-323,701 L-327,692 L-334,682 L-342,665 L-346,654 L-350,640 L-353,631 L-355,624 L-356,609 L-359,596 L-361,580 L-364,562 L-367,557 L-368,556 Z M-322,577 L-329,580 L-331,585 L-331,594 L-323,600 L-318,600 L-315,596 L-315,580 L-319,577 Z M-267,576 L-270,578 L-291,579 L-293,581 L-293,600 L-290,603 L-277,604 L-269,608 L-262,607 L-248,607 L-216,608 L-180,608 L-169,607 L-166,602 L-167,586 L-169,581 L-176,579 L-258,579 L-264,576 Z M11,579 L9,581 L8,598 L11,603 L15,602 L18,591 L18,584 L15,579 Z M-323,626 L-326,633 L-326,644 L-322,655 L-320,657 L-316,656 L-315,655 L-315,644 L-317,630 L-320,626 Z M-18,639 L-26,640 L-32,640 L-35,645 L-34,658 L-30,674 L-26,684 L-21,683 L-17,678 L-11,664 L-9,658 L-9,644 L-12,639 Z M-267,651 L-270,655 L-272,671 L-272,680 L-267,683 L-240,682 L-218,682 L-199,683 L-175,683 L-169,681 L-167,679 L-167,658 L-169,654 L-182,653 L-201,653 Z M-128,651 L-133,652 L-148,652 L-153,655 L-155,665 L-155,680 L-152,683 L-128,683 L-62,684 L-59,681 L-60,673 L-62,657 L-64,652 L-71,651 L-81,651 L-90,653 L-95,651 Z M-12,713 L-13,714 L-13,719 L-10,721 L-8,718 L-9,713 Z M-282,731 L-287,736 L-290,749 L-290,758 L-289,759 L-272,759 L-270,760 L-257,761 L-176,762 L-172,758 L-167,747 L-167,740 L-169,733 L-171,732 L-193,732 L-260,731 Z M-150,731 L-154,733 L-155,740 L-153,744 L-147,749 L-141,764 L-136,766 L-118,765 L-100,765 L-42,764 L-39,760 L-40,752 L-42,744 L-46,736 L-51,732 L-80,732 L-115,731 Z M-458,798 L-460,801 L-461,814 L-461,938 L-463,942 L-462,947 L-461,968 L-459,981 L-456,984 L-452,985 L-379,985 L-367,984 L-363,980 L-358,954 L-355,928 L-353,923 L-352,907 L-348,892 L-343,864 L-340,851 L-337,842 L-334,825 L-332,814 L-332,803 L-335,800 L-337,799 L-363,798 Z M18,799 L15,802 L14,810 L14,854 L16,880 L24,916 L32,945 L39,964 L43,974 L48,981 L68,982 L115,983 L131,983 L135,979 L135,937 L134,909 L134,827 L135,823 L134,821 L132,803 L128,800 L25,800 Z M-291,806 L-295,809 L-295,832 L-292,836 L-278,837 L-228,838 L-208,839 L-200,841 L-195,843 L-191,839 L-187,828 L-185,819 L-185,811 L-187,809 L-195,807 Z M-124,807 L-127,810 L-126,818 L-123,827 L-121,835 L-118,840 L-109,841 L-63,842 L-25,844 L-21,841 L-22,833 L-24,821 L-29,811 L-31,809 L-54,808 L-97,808 Z M-152,846 L-155,849 L-155,963 L-154,977 L-151,983 L-136,984 L-114,984 L-111,981 L-111,972 L-113,959 L-118,943 L-123,928 L-127,916 L-129,907 L-134,895 L-138,880 L-143,864 L-145,859 L-147,850 L-151,846 Z M-291,879 L-295,883 L-295,904 L-291,908 L-259,909 L-218,911 L-211,911 L-209,909 L-204,889 L-203,884 L-204,882 L-227,880 L-247,880 L-276,879 Z M-100,885 L-104,889 L-99,909 L-97,912 L-82,913 L-39,914 L-28,915 L-11,915 L-6,911 L-6,903 L-8,890 L-10,888 L-31,886 L-77,885 Z M-320,893 L-321,894 L-321,900 L-317,900 L-316,899 L-316,894 Z M-172,895 L-174,899 L-177,916 L-179,920 L-183,938 L-185,943 L-187,951 L-188,953 L-189,962 L-192,973 L-192,980 L-190,983 L-176,984 L-170,982 L-168,979 L-168,896 Z M-328,957 L-333,960 L-335,968 L-335,983 L-333,985 L-322,985 L-317,980 L-317,965 L-319,959 L-323,957 Z M-279,958 L-292,959 L-295,962 L-295,980 L-292,984 L-285,985 L-227,985 L-224,983 L-222,977 L-221,965 L-225,961 L-235,960 L-265,959 Z M-80,963 L-82,965 L-81,971 L-79,980 L-76,983 L-63,984 L-57,983 L-10,983 L-6,980 L-6,967 L-10,964 L-47,963 Z M-59,1032 L-62,1035 L-62,1043 L-60,1048 L-58,1059 L-55,1062 L-53,1063 L-9,1064 L-5,1060 L-5,1036 L-9,1032 Z M21,1032 L16,1037 L16,1060 L19,1063 L32,1063 L35,1061 L34,1051 L32,1046 L30,1036 L26,1032 Z M-333,1035 L-344,1038 L-347,1043 L-348,1058 L-349,1063 L-347,1065 L-341,1064 L-318,1062 L-315,1057 L-314,1047 L-316,1037 L-318,1035 Z M-291,1035 L-294,1038 L-296,1048 L-296,1058 L-294,1062 L-284,1064 L-258,1064 L-247,1060 L-241,1056 L-239,1053 L-238,1038 L-240,1036 L-245,1035 Z M-356,1110 L-361,1114 L-364,1120 L-364,1140 L-361,1142 L-322,1142 L-317,1139 L-316,1127 L-316,1114 L-319,1111 L-324,1110 Z M-282,1110 L-292,1111 L-295,1114 L-295,1139 L-291,1143 L-268,1142 L-261,1141 L-258,1137 L-254,1124 L-254,1114 L-257,1111 L-260,1110 Z M-36,1111 L-40,1114 L-39,1125 L-35,1136 L-31,1140 L-23,1141 L-10,1141 L-6,1139 L-5,1137 L-5,1116 L-9,1112 L-21,1112 L-26,1111 Z M21,1112 L17,1114 L16,1121 L17,1136 L20,1140 L32,1140 L52,1138 L55,1136 L55,1126 L51,1115 L48,1113 L41,1112 Z " fill="#000000" transform="translate(851,129)"/>
<path d="M0,0 L8,0 L8,4 L3,3 Z " fill="#000000" transform="translate(514,508)"/>
<path d="M0,0 L3,1 L3,4 L-1,3 Z " fill="#000000" transform="translate(1035,1097)"/>
<path d="M0,0 L2,0 L2,3 L-1,3 Z " fill="#000000" transform="translate(84,1144)"/>
<path d="M0,0 L3,1 L0,2 Z " fill="#000000" transform="translate(1569,1369)"/>
<path d="M0,0 L2,1 L0,2 Z " fill="#000000" transform="translate(822,1384)"/>
<path d="M0,0 L14,0 L35,1 L35,57 L-47,59 L-106,59 L-114,60 L-167,60 L-317,62 L-335,62 L-373,63 L-457,64 L-471,64 L-504,65 L-537,65 L-561,66 L-584,66 L-638,67 L-702,67 L-714,68 L-728,69 L-736,70 L-739,68 L-779,69 L-812,70 L-912,70 L-922,71 L-932,70 L-943,71 L-988,71 L-994,70 L-997,71 L-1071,72 L-1112,73 L-1213,73 L-1230,74 L-1239,73 L-1259,74 L-1282,74 L-1375,75 L-1381,75 L-1387,74 L-1404,75 L-1468,75 L-1490,76 L-1621,76 L-1621,20 L-1617,19 L-1557,19 L-1491,18 L-1385,18 L-1378,17 L-1324,17 L-1290,16 L-1268,16 L-1177,15 L-1118,14 L-1085,14 L-1033,13 L-960,13 L-931,12 L-891,12 L-800,11 L-710,10 L-649,9 L-609,9 L-548,8 L-513,7 L-461,7 L-427,6 L-365,5 L-340,5 L-272,4 L-216,4 L-199,3 L-121,2 L-109,2 L-95,1 L-16,1 Z " fill="#000000" transform="translate(1621,1386)"/>
</svg>
