<?xml version="1.0" encoding="UTF-8"?>
<!-- Generator: visioncortex VTracer 0.6.12 -->
<svg version="1.1" xmlns="http://www.w3.org/2000/svg" width="1110" height="1128">
<path d="M0,0 L1108,0 L1108,910 L1107,915 L1106,1025 L1106,1053 L1105,1123 L1104,1128 L-2,1128 L-2,4 Z M521,104 L503,105 L500,107 L491,109 L477,114 L460,123 L447,134 L441,139 L430,153 L422,166 L414,184 L410,198 L408,217 L406,224 L392,231 L385,230 L375,223 L365,218 L357,212 L347,213 L337,210 L331,209 L308,209 L287,213 L281,216 L271,219 L254,227 L249,231 L238,240 L228,251 L219,264 L211,279 L205,297 L202,312 L201,329 L203,348 L208,366 L213,377 L221,392 L231,405 L236,410 L250,422 L255,426 L255,435 L254,441 L254,457 L258,478 L264,496 L271,509 L280,521 L291,533 L296,539 L297,562 L296,593 L296,648 L295,696 L295,749 L294,867 L294,880 L293,911 L293,975 L296,987 L300,995 L309,1004 L323,1011 L332,1013 L409,1013 L585,1014 L718,1014 L729,1010 L738,1004 L746,995 L750,986 L752,980 L755,947 L757,922 L759,920 L772,919 L825,919 L845,917 L858,913 L875,904 L882,898 L889,890 L897,880 L904,865 L908,848 L909,832 L910,774 L910,664 L911,593 L911,562 L908,543 L901,529 L895,519 L881,504 L868,496 L857,491 L851,489 L833,486 L792,486 L789,485 L788,482 L791,469 L792,459 L792,437 L794,432 L803,426 L813,418 L823,408 L830,398 L836,388 L844,371 L849,352 L851,340 L851,319 L847,301 L841,283 L832,266 L820,250 L811,241 L797,231 L791,228 L778,221 L762,216 L746,213 L721,213 L705,216 L684,223 L666,234 L659,233 L651,226 L643,222 L641,218 L640,201 L636,185 L633,175 L629,166 L624,157 L619,151 L615,144 L607,137 L595,126 L584,119 L573,113 L558,108 L539,104 Z " fill="#000000" transform="translate(2,0)"/>
<path d="M0,0 L8,0 L18,3 L26,7 L35,16 L39,24 L40,28 L40,38 L33,42 L23,46 L13,52 L5,58 L0,57 L-6,51 L-17,45 L-31,38 L-33,36 L-33,29 L-30,20 L-24,12 L-17,6 L-7,1 Z " fill="#000000" transform="translate(524,184)"/>
<path d="M0,0 L14,0 L24,4 L27,8 L25,20 L23,25 L21,42 L18,48 L-3,59 L-12,66 L-17,66 L-22,62 L-28,51 L-30,44 L-31,35 L-29,23 L-22,12 L-14,6 L-6,2 Z " fill="#000000" transform="translate(314,288)"/>
<path d="M0,0 L10,0 L19,3 L27,7 L36,16 L40,23 L42,32 L42,41 L39,52 L30,64 L28,66 L23,66 L15,57 L2,49 L-11,43 L-13,37 L-15,16 L-15,6 L-12,3 Z " fill="#000000" transform="translate(731,294)"/>
<path d="M0,0 L15,0 L25,4 L34,11 L41,21 L43,27 L43,38 L39,42 L28,46 L16,52 L6,60 L1,59 L-1,55 L-5,53 L-15,46 L-29,39 L-30,36 L-30,28 L-27,19 L-18,8 L-10,3 Z " fill="#000000" transform="translate(446,297)"/>
<path d="M0,0 L15,0 L25,3 L34,10 L40,17 L44,26 L45,30 L45,39 L41,43 L25,51 L16,56 L11,60 L5,61 L1,56 L-10,48 L-20,42 L-27,39 L-29,36 L-29,28 L-26,19 L-18,9 L-7,2 Z " fill="#000000" transform="translate(594,298)"/>
<path d="M0,0 L18,0 L28,4 L36,10 L43,20 L47,31 L47,39 L44,50 L39,58 L32,66 L22,71 L15,73 L4,73 L-7,69 L-16,63 L-23,54 L-26,45 L-27,41 L-27,29 L-23,18 L-14,8 L-3,1 Z " fill="#000000" transform="translate(364,410)"/>
<path d="M0,0 L9,0 L20,3 L31,11 L38,21 L41,29 L41,39 L37,51 L30,62 L22,68 L14,71 L7,73 L-6,72 L-13,69 L-22,63 L-28,56 L-33,44 L-34,39 L-31,22 L-25,13 L-18,6 L-10,2 Z " fill="#000000" transform="translate(523,411)"/>
<path d="M0,0 L12,0 L24,7 L31,13 L38,27 L38,43 L35,52 L28,63 L15,71 L5,73 L-5,73 L-17,69 L-27,59 L-33,48 L-34,44 L-34,30 L-30,19 L-23,10 L-15,4 L-7,1 Z " fill="#000000" transform="translate(676,411)"/>
<path d="M0,0 L47,0 L56,3 L59,6 L60,9 L61,30 L60,107 L59,134 L59,151 L57,246 L55,259 L50,264 L47,265 L18,266 L-12,265 L-14,262 L-14,206 L-13,133 L-12,97 L-11,36 L-10,3 L-8,1 Z " fill="#000000" transform="translate(770,571)"/>
</svg>
