<?xml version="1.0" encoding="UTF-8"?>
<!-- Generator: visioncortex VTracer 0.6.12 -->
<svg version="1.1" xmlns="http://www.w3.org/2000/svg" width="891" height="777">
<path d="M0,0 L15,0 L18,2 L27,4 L36,10 L42,17 L47,22 L57,38 L60,40 L109,44 L119,46 L134,51 L143,55 L146,57 L146,59 L151,61 L157,65 L161,70 L166,74 L178,95 L184,113 L185,121 L185,144 L181,161 L175,173 L169,183 L163,191 L156,198 L145,207 L131,214 L117,220 L98,225 L86,226 L71,226 L55,227 L50,228 L37,226 L33,228 L11,228 L8,230 L7,238 L7,250 L6,259 L7,270 L8,294 L12,297 L23,298 L33,298 L43,297 L46,298 L57,298 L63,297 L67,298 L108,298 L124,300 L138,304 L147,307 L161,315 L166,319 L175,330 L181,342 L185,352 L187,359 L187,382 L183,397 L179,410 L173,419 L164,429 L151,437 L134,444 L126,446 L111,450 L106,451 L83,452 L81,453 L53,454 L12,454 L9,460 L8,482 L9,520 L12,523 L20,524 L111,524 L118,525 L142,525 L157,530 L168,537 L173,542 L179,549 L185,562 L187,567 L188,576 L188,595 L184,606 L178,616 L171,625 L165,630 L156,633 L152,636 L138,638 L128,640 L99,641 L94,640 L85,641 L15,641 L11,643 L10,645 L10,657 L8,667 L9,676 L9,696 L7,702 L5,703 L-37,703 L-46,700 L-54,696 L-56,690 L-56,667 L-57,658 L-60,654 L-69,653 L-152,653 L-166,654 L-218,654 L-274,655 L-281,656 L-288,656 L-295,657 L-298,656 L-306,656 L-310,657 L-328,657 L-331,656 L-342,656 L-346,657 L-376,656 L-402,657 L-455,657 L-474,658 L-495,658 L-533,659 L-552,659 L-561,661 L-561,694 L-562,706 L-564,708 L-593,708 L-613,709 L-627,709 L-630,706 L-631,693 L-631,581 L-630,572 L-631,567 L-631,474 L-632,394 L-632,359 L-633,328 L-633,255 L-634,217 L-634,186 L-632,173 L-625,162 L-617,156 L-600,155 L-596,153 L-526,153 L-519,152 L-499,153 L-443,152 L-335,152 L-330,151 L-285,152 L-241,151 L-234,150 L-227,152 L-214,150 L-205,150 L-197,151 L-181,150 L-20,150 L-7,153 L1,159 L4,166 L5,180 L8,191 L21,193 L29,193 L38,192 L79,192 L98,191 L110,189 L122,184 L129,178 L136,172 L144,161 L147,156 L150,147 L152,137 L152,122 L147,107 L141,97 L132,87 L132,85 L127,83 L114,77 L102,74 L65,72 L59,71 L54,75 L48,86 L41,94 L28,103 L17,107 L8,110 L1,109 L-2,104 L-2,92 L-3,86 L-11,85 L-54,85 L-56,83 L-57,77 L-57,64 L-54,62 L-45,62 L-41,61 L-33,61 L-26,62 L-15,61 L-9,62 L-4,57 L-4,52 L-9,49 L-55,49 L-59,45 L-59,28 L-57,26 L-48,26 L-41,25 L-38,26 L-16,26 L-6,25 L-3,19 L-2,3 Z M100,57 L97,60 L97,63 L102,63 L105,60 L105,57 Z M-71,195 L-108,198 L-129,201 L-146,207 L-153,215 L-161,217 L-172,230 L-178,244 L-179,255 L-179,277 L-175,290 L-165,308 L-160,314 L-147,324 L-138,327 L-134,329 L-126,330 L-117,332 L-84,333 L-74,333 L-38,331 L-9,331 L-2,328 L-1,326 L-1,311 L-4,306 L-8,305 L-39,305 L-102,306 L-109,304 L-124,302 L-134,296 L-142,288 L-145,285 L-149,275 L-149,257 L-144,244 L-133,232 L-111,223 L-101,222 L-78,221 L-21,221 L-4,219 L-2,218 L-1,215 L-1,203 L-3,196 L-9,195 Z M-418,213 L-422,217 L-424,232 L-424,350 L-423,423 L-422,448 L-419,454 L-416,455 L-409,452 L-408,450 L-408,270 L-409,227 L-410,216 L-413,213 Z M-440,215 L-447,218 L-449,226 L-450,253 L-449,373 L-449,445 L-447,450 L-438,453 L-433,452 L-431,449 L-431,352 L-432,260 L-433,229 L-434,218 L-439,215 Z M-397,216 L-399,219 L-401,241 L-401,448 L-398,451 L-390,451 L-384,448 L-383,446 L-383,280 L-385,225 L-387,218 L-390,216 Z M-465,222 L-473,226 L-477,232 L-477,308 L-476,437 L-469,445 L-459,447 L-456,444 L-456,369 L-457,336 L-458,251 L-458,232 L-461,223 Z M-371,225 L-374,228 L-374,244 L-375,258 L-375,420 L-374,440 L-372,443 L-367,443 L-360,438 L-358,430 L-358,412 L-359,350 L-359,260 L-360,234 L-364,228 L-368,225 Z M-493,239 L-501,246 L-502,248 L-502,312 L-501,354 L-499,421 L-496,428 L-490,433 L-485,433 L-483,431 L-483,389 L-484,297 L-485,272 L-485,255 L-486,242 L-489,239 Z M-345,242 L-349,245 L-350,255 L-350,400 L-349,418 L-347,426 L-341,426 L-333,415 L-333,268 L-335,252 L-341,244 Z M-516,262 L-520,267 L-523,276 L-523,328 L-522,356 L-521,398 L-517,406 L-514,410 L-509,409 L-507,406 L-507,378 L-508,358 L-509,297 L-510,271 L-511,263 Z M-322,270 L-324,271 L-325,274 L-325,281 L-324,291 L-325,294 L-325,393 L-324,398 L-318,397 L-311,382 L-309,377 L-308,366 L-308,310 L-309,293 L-312,284 L-318,273 Z M-537,309 L-539,312 L-541,328 L-541,350 L-538,363 L-535,369 L-532,368 L-531,366 L-531,326 L-533,310 Z M79,334 L76,335 L33,335 L11,336 L7,340 L6,370 L7,400 L8,414 L12,418 L43,420 L61,419 L68,420 L73,418 L90,418 L93,417 L106,416 L108,415 L117,414 L133,406 L141,399 L145,393 L148,382 L148,365 L144,353 L137,345 L126,338 L119,336 L107,334 Z M-228,348 L-230,350 L-230,354 L-226,355 L-224,354 L-224,349 Z M-64,421 L-85,422 L-87,423 L-105,425 L-117,427 L-127,431 L-137,435 L-147,442 L-158,453 L-169,474 L-173,490 L-173,505 L-169,523 L-165,532 L-156,543 L-151,548 L-145,552 L-135,558 L-118,561 L-22,561 L-14,562 L-8,561 L-2,561 L0,558 L1,553 L1,541 L-1,534 L-5,531 L-38,531 L-61,532 L-66,531 L-96,531 L-116,530 L-132,522 L-136,519 L-141,508 L-142,504 L-142,492 L-140,483 L-133,469 L-124,459 L-112,453 L-99,452 L-90,450 L-64,448 L-43,447 L-35,448 L-14,447 L-2,447 L1,444 L1,428 L-2,423 L-4,421 Z M-487,536 L-497,538 L-503,541 L-512,548 L-519,559 L-521,571 L-521,579 L-517,589 L-511,597 L-501,604 L-496,606 L-472,606 L-464,601 L-456,594 L-452,587 L-450,580 L-450,562 L-455,552 L-463,543 L-469,540 L-475,537 L-480,536 Z M-319,537 L-328,538 L-341,543 L-349,552 L-354,559 L-356,564 L-356,582 L-352,592 L-342,603 L-331,607 L-324,609 L-314,609 L-300,603 L-292,596 L-285,582 L-284,577 L-284,568 L-288,555 L-295,547 L-304,541 L-313,538 Z M48,562 L10,564 L7,569 L8,600 L11,605 L25,606 L32,608 L39,606 L123,606 L135,605 L145,599 L148,594 L149,589 L149,579 L147,574 L142,569 L134,566 L125,564 L116,563 L56,563 Z " fill="#000000" transform="translate(671,36)"/>
</svg>
