<?xml version="1.0" encoding="UTF-8"?>
<!-- Generator: visioncortex VTracer 0.6.12 -->
<svg version="1.1" xmlns="http://www.w3.org/2000/svg" width="624" height="444">
<path d="M0,0 L4,1 L3,5 L-1,4 Z " fill="#000000" transform="translate(251,37)"/>
<path d="M0,0 L5,1 L4,4 L1,4 Z " fill="#000000" transform="translate(289,37)"/>
<path d="M0,0 L2,2 L-1,1 Z " fill="#000000" transform="translate(314,39)"/>
<path d="M0,0 L11,0 L14,3 L13,5 L7,6 L3,5 L1,6 L2,7 L24,6 L48,6 L49,2 L52,2 L52,7 L93,7 L104,6 L106,1 L110,1 L110,7 L119,7 L120,2 L124,2 L126,7 L182,7 L183,2 L188,3 L189,6 L194,7 L368,7 L369,2 L374,3 L374,7 L383,7 L384,2 L389,2 L390,7 L399,9 L412,16 L419,24 L422,34 L423,41 L424,71 L425,83 L426,109 L427,119 L427,129 L428,136 L429,151 L430,169 L428,180 L429,209 L431,214 L431,222 L432,225 L432,247 L434,253 L434,261 L433,267 L434,269 L434,279 L433,286 L434,289 L435,311 L433,318 L434,329 L430,335 L426,337 L420,337 L414,341 L409,344 L403,353 L399,363 L392,369 L383,374 L373,373 L303,373 L294,372 L288,372 L286,368 L281,370 L280,371 L260,373 L214,373 L205,374 L202,373 L174,373 L172,372 L162,372 L155,373 L142,372 L108,372 L96,373 L86,373 L69,372 L66,374 L48,373 L45,374 L34,374 L27,372 L21,373 L13,374 L9,373 L-9,372 L-53,372 L-64,371 L-71,371 L-82,361 L-84,346 L-86,339 L-91,336 L-112,334 L-118,332 L-119,330 L-120,313 L-118,246 L-116,205 L-115,126 L-114,119 L-114,101 L-113,76 L-112,28 L-108,18 L-105,13 L-94,6 L-92,5 L-72,5 L-47,6 L-34,6 L-22,4 L-19,5 L-5,6 L-3,2 Z M223,74 L218,76 L213,77 L211,79 L188,78 L178,78 L176,77 L158,77 L152,78 L148,77 L137,77 L133,78 L118,77 L107,76 L76,77 L66,78 L61,75 L43,76 L25,77 L10,77 L-3,75 L-5,76 L-31,77 L-34,79 L-35,88 L-39,96 L-38,105 L-38,115 L-39,118 L-39,147 L-40,153 L-39,156 L-39,173 L-40,176 L-39,196 L-39,208 L-42,217 L-43,229 L-43,247 L-39,256 L-36,265 L-33,273 L-27,276 L-26,277 L-14,277 L-12,274 L-5,276 L31,278 L94,278 L151,279 L156,278 L175,278 L189,279 L332,279 L341,278 L349,272 L353,265 L354,102 L355,93 L353,83 L347,80 L341,78 L339,74 L334,74 L332,77 L312,76 L289,77 L282,78 L267,76 L261,77 L256,78 L252,77 L245,78 L239,77 L232,76 Z " fill="#000000" transform="translate(157,37)"/>
<path d="M0,0 L14,0 L28,1 L63,2 L68,5 L70,9 L71,16 L71,26 L67,30 L60,31 L56,33 L43,34 L36,35 L26,32 L22,32 L17,34 L13,32 L11,29 L-1,28 L-4,24 L-6,18 L-6,11 L-3,2 Z " fill="#000000" transform="translate(139,263)"/>
<path d="M0,0 L18,0 L25,2 L29,9 L29,23 L26,28 L20,30 L3,31 L-5,24 L-6,22 L-6,7 L-3,2 Z " fill="#000000" transform="translate(236,265)"/>
<path d="M0,0 L30,0 L35,5 L37,9 L37,24 L34,27 L26,29 L21,30 L17,29 L12,30 L10,29 L0,28 L-6,24 L-6,12 L-4,4 Z " fill="#000000" transform="translate(291,266)"/>
<path d="M0,0 L17,1 L23,8 L24,12 L24,19 L22,26 L10,33 L6,32 L3,29 L-3,30 L-9,31 L-17,27 L-20,24 L-21,19 L-21,5 L-17,1 Z " fill="#000000" transform="translate(368,266)"/>
<path d="M0,0 L29,0 L36,1 L41,2 L46,5 L48,7 L50,15 L50,21 L46,27 L39,30 L14,30 L6,29 L1,30 L-5,31 L-7,30 L-23,29 L-27,25 L-28,22 L-28,9 L-25,2 Z " fill="#000000" transform="translate(438,266)"/>
</svg>
