<?xml version="1.0" encoding="UTF-8"?>
<!-- Generator: visioncortex VTracer 0.6.12 -->
<svg version="1.1" xmlns="http://www.w3.org/2000/svg" width="1137" height="1104">
<path d="M0,0 L7,0 L6,149 L6,219 L5,226 L5,260 L4,321 L3,437 L2,477 L2,524 L1,603 L1,677 L0,710 L-3,911 L-3,936 L-4,956 L-4,965 L-6,967 L-6,193 L-5,188 L-6,185 L-6,176 L-5,175 L-4,115 L-3,26 L-1,6 Z " fill="#000000" transform="translate(6,0)"/>
<path d="M0,0 L13,0 L12,2 L1,2 Z " fill="#000000" transform="translate(311,0)"/>
<path d="M0,0 L18,0 L17,2 L1,2 Z " fill="#000000" transform="translate(331,0)"/>
<path d="M0,0 L19,0 L15,2 L1,2 Z " fill="#000000" transform="translate(355,0)"/>
<path d="M0,0 L22,0 L21,2 L2,2 Z " fill="#000000" transform="translate(377,0)"/>
<path d="M0,0 L19,0 L19,2 L1,2 Z " fill="#000000" transform="translate(410,0)"/>
<path d="M0,0 L701,0 L701,8 L697,6 L691,5 L631,5 L569,4 L527,4 L434,3 L330,4 L295,4 L257,3 L4,3 L0,2 Z " fill="#000000" transform="translate(436,0)"/>
<path d="M0,0 L7,0 L11,4 L10,11 L2,25 L-3,33 L-6,37 L-8,47 L-16,63 L-21,75 L-24,82 L-34,100 L-38,109 L-43,121 L-53,140 L-59,153 L-70,178 L-78,194 L-81,201 L-81,207 L-80,211 L-75,213 L-50,213 L-32,214 L4,214 L15,216 L23,222 L29,230 L34,241 L42,248 L49,250 L61,251 L83,251 L107,252 L117,254 L129,259 L139,268 L146,278 L150,291 L152,306 L154,337 L156,379 L158,396 L162,452 L163,469 L164,475 L166,509 L168,536 L169,556 L170,562 L171,590 L171,628 L170,742 L168,816 L167,857 L161,883 L154,898 L147,909 L138,919 L126,929 L112,935 L100,940 L97,941 L75,943 L69,946 L66,952 L64,971 L63,993 L60,998 L57,1000 L48,999 L41,996 L38,993 L37,990 L37,952 L33,946 L29,944 L18,943 L-10,943 L-29,945 L-31,944 L-52,944 L-61,943 L-218,943 L-237,942 L-251,944 L-256,946 L-258,951 L-259,964 L-259,976 L-261,992 L-264,997 L-268,999 L-278,998 L-283,995 L-286,992 L-287,989 L-287,959 L-289,949 L-293,944 L-302,942 L-306,941 L-320,940 L-332,936 L-343,930 L-357,919 L-367,910 L-373,900 L-379,890 L-385,875 L-386,868 L-387,849 L-387,812 L-386,714 L-385,699 L-385,620 L-384,572 L-380,531 L-378,499 L-376,477 L-375,473 L-374,450 L-373,440 L-372,433 L-371,410 L-370,394 L-368,379 L-367,362 L-365,344 L-363,317 L-362,306 L-361,294 L-358,282 L-352,272 L-343,262 L-329,254 L-315,251 L-261,250 L-253,245 L-246,238 L-239,227 L-235,222 L-225,216 L-212,214 L-149,214 L-130,213 L-129,210 L-129,201 L-138,180 L-142,169 L-150,153 L-158,136 L-167,116 L-175,100 L-179,90 L-186,76 L-190,67 L-201,44 L-206,33 L-211,23 L-216,14 L-219,9 L-219,4 L-215,1 L-209,3 L-205,8 L-197,24 L-191,35 L-187,40 L-178,59 L-171,74 L-165,87 L-161,96 L-156,105 L-151,118 L-146,126 L-142,135 L-136,148 L-129,163 L-125,172 L-120,185 L-115,193 L-110,201 L-104,201 L-98,196 L-92,186 L-81,162 L-71,143 L-59,117 L-53,105 L-45,89 L-37,73 L-31,61 L-26,49 L-18,33 L-9,13 L-5,4 Z M-171,278 L-190,279 L-239,279 L-249,280 L-263,287 L-269,294 L-275,304 L-277,309 L-277,325 L-273,335 L-264,346 L-252,352 L-239,353 L-224,354 L-191,353 L-181,354 L-146,354 L-139,353 L-120,354 L-28,354 L30,355 L43,352 L55,346 L63,336 L67,325 L68,316 L65,300 L59,292 L55,287 L48,283 L34,279 L-11,279 L-17,278 L-68,279 L-97,278 Z M-241,379 L-244,380 L-320,380 L-334,381 L-340,386 L-342,391 L-344,411 L-346,428 L-351,497 L-352,501 L-353,524 L-357,564 L-356,573 L-353,579 L-346,582 L-330,582 L-282,583 L-135,583 L-125,582 L-119,578 L-116,575 L-114,554 L-114,389 L-118,383 L-121,381 L-138,380 L-201,380 L-210,379 Z M-47,379 L-66,380 L-86,380 L-94,383 L-97,387 L-99,393 L-100,456 L-100,571 L-96,579 L-90,582 L-85,583 L12,583 L35,584 L83,584 L128,585 L139,583 L143,578 L146,564 L145,551 L144,547 L143,521 L140,484 L135,409 L133,394 L129,386 L124,382 L119,381 L16,381 L-37,380 Z M-115,646 L-125,649 L-135,656 L-144,667 L-148,678 L-148,693 L-145,703 L-139,712 L-135,717 L-121,724 L-112,726 L-99,725 L-87,719 L-77,710 L-72,699 L-69,688 L-70,675 L-78,659 L-83,655 L-87,650 L-102,646 Z M-170,789 L-179,792 L-183,796 L-184,800 L-185,860 L-184,882 L-179,888 L-108,889 L-44,889 L-38,885 L-36,882 L-36,870 L-38,867 L-43,868 L-47,873 L-50,876 L-58,878 L-127,877 L-167,877 L-172,874 L-174,870 L-175,863 L-175,826 L-174,808 L-170,802 L-165,800 L-96,800 L-87,799 L-78,800 L-52,801 L-46,806 L-44,812 L-44,827 L-45,834 L-45,854 L-43,858 L-39,859 L-37,858 L-35,850 L-35,797 L-40,792 L-53,790 L-104,790 Z " fill="#000000" transform="translate(667,45)"/>
<path d="M0,0 L1,4 Z " fill="#000000" transform="translate(1136,113)"/>
<path d="M0,0 L1,0 L1,6 L-1,5 Z " fill="#000000" transform="translate(1136,120)"/>
<path d="M0,0 L1,0 L1,973 L-12,973 L-11,967 L-10,948 L-9,888 L-9,784 L-8,717 L-8,656 L-7,623 L-7,579 L-6,531 L-6,476 L-5,443 L-4,441 L-5,432 L-5,349 L-4,310 L-4,244 L-3,171 L-3,103 L-2,45 L-1,8 L-1,1 Z " fill="#000000" transform="translate(1136,131)"/>
<path d="M0,0 L5,0 L10,4 L10,9 L5,12 L0,17 L-1,20 L-2,48 L-5,51 L-8,50 L-10,44 L-11,37 L-11,21 L-13,14 L-20,9 L-21,5 L-19,2 L-8,2 Z " fill="#000000" transform="translate(479,333)"/>
<path d="M0,0 L16,0 L26,5 L30,10 L30,20 L29,23 L29,35 L30,40 L30,48 L27,51 L23,50 L17,37 L12,34 L7,35 L3,41 L1,49 L-4,50 L-6,45 L-7,17 L-5,5 Z M10,11 L7,15 L8,19 L11,21 L16,20 L17,14 L14,11 Z " fill="#000000" transform="translate(509,334)"/>
<path d="M0,0 L7,1 L11,6 L15,17 L19,25 L24,25 L29,19 L33,8 L40,0 L45,1 L48,6 L48,46 L44,48 L41,43 L38,38 L33,39 L24,49 L20,50 L14,45 L10,38 L6,37 L4,44 L0,48 L-4,47 L-6,43 L-6,19 L-5,7 L-2,1 Z " fill="#000000" transform="translate(615,337)"/>
<path d="M0,0 L5,3 L9,10 L16,25 L21,37 L22,47 L21,48 L16,48 L12,43 L12,41 L5,39 L-6,39 L-13,43 L-17,48 L-22,47 L-23,42 L-15,22 L-9,10 L-4,2 Z " fill="#000000" transform="translate(575,337)"/>
<path d="M0,0 Z " fill="#000000" transform="translate(0,1017)"/>
<path d="M0,0 L2,4 L0,5 Z " fill="#000000" transform="translate(0,1040)"/>
<path d="M0,0 L5,4 L12,5 L25,6 L148,6 L242,7 L295,7 L311,8 L314,10 L0,10 Z " fill="#000000" transform="translate(0,1094)"/>
<path d="M0,0 L16,2 L16,3 L-29,3 L-27,1 Z " fill="#000000" transform="translate(349,1101)"/>
<path d="M0,0 L34,1 L54,1 L56,3 L-12,3 L-11,1 Z " fill="#000000" transform="translate(382,1101)"/>
<path d="M0,0 L17,0 L18,2 L-2,2 Z " fill="#000000" transform="translate(443,1102)"/>
<path d="M0,0 L15,0 L15,2 L-1,2 Z " fill="#000000" transform="translate(467,1102)"/>
<path d="M0,0 L10,0 L13,2 L-1,2 Z " fill="#000000" transform="translate(490,1102)"/>
<path d="M0,0 L6,0 L8,2 L-1,2 Z " fill="#000000" transform="translate(513,1102)"/>
<path d="M0,0 L73,0 L76,1 L76,3 L-45,3 L-43,1 Z " fill="#000000" transform="translate(573,1101)"/>
<path d="M0,0 L5,0 L6,2 L-2,2 Z " fill="#000000" transform="translate(655,1102)"/>
<path d="M0,0 L9,0 L9,1 L0,1 Z " fill="#000000" transform="translate(669,1103)"/>
<path d="M0,0 Z " fill="#000000" transform="translate(710,1103)"/>
<path d="M0,0 L3,1 Z " fill="#000000" transform="translate(720,1103)"/>
<path d="M0,0 L7,0 L7,1 L0,1 Z " fill="#000000" transform="translate(727,1103)"/>
<path d="M0,0 L3,1 Z " fill="#000000" transform="translate(745,1103)"/>
</svg>
