<?xml version="1.0" encoding="UTF-8"?>
<!-- Generator: visioncortex VTracer 0.6.12 -->
<svg version="1.1" xmlns="http://www.w3.org/2000/svg" width="1116" height="1128">
<path d="M0,0 L655,0 L654,2 L608,3 L570,3 L391,4 L350,4 L338,5 L289,5 L281,6 L266,7 L203,8 L116,8 L100,9 L72,9 L34,10 L14,11 L-4,14 L-23,19 L-31,23 L-45,31 L-61,43 L-68,51 L-77,61 L-86,75 L-92,86 L-97,102 L-100,120 L-102,121 L-102,82 L-100,80 L-96,70 L-90,62 L-83,52 L-74,42 L-69,37 L-57,27 L-46,20 L-41,16 L-34,13 L-22,7 L-14,4 L-1,1 Z " fill="#000000" transform="translate(102,0)"/>
<path d="M0,0 Z " fill="#000000" transform="translate(805,0)"/>
<path d="M0,0 L4,1 Z " fill="#000000" transform="translate(838,0)"/>
<path d="M0,0 L45,0 L45,2 L53,4 L66,12 L77,20 L94,37 L101,45 L106,53 L115,69 L122,89 L127,105 L128,116 L130,116 L130,542 L128,542 L128,523 L127,512 L126,320 L125,250 L125,182 L122,146 L119,118 L116,103 L110,85 L104,70 L95,53 L84,40 L77,33 L68,27 L57,19 L41,11 L33,8 L24,6 L23,5 L7,3 L1,2 Z " fill="#000000" transform="translate(986,0)"/>
<path d="M0,0 L11,1 L23,7 L31,18 L34,26 L34,37 L31,47 L23,58 L11,64 L-3,65 L-18,57 L-23,51 L-28,41 L-29,35 L-29,27 L-25,17 L-21,11 L-12,3 Z " fill="#000000" transform="translate(503,126)"/>
<path d="M0,0 L11,1 L21,6 L29,14 L34,26 L34,38 L31,48 L25,56 L19,61 L15,63 L6,65 L-3,65 L-15,60 L-23,53 L-29,43 L-30,29 L-28,21 L-24,13 L-15,5 L-7,1 Z " fill="#000000" transform="translate(590,125)"/>
<path d="M0,0 L76,0 L122,1 L135,3 L153,8 L172,17 L178,22 L183,25 L192,33 L199,41 L208,53 L216,68 L222,86 L225,103 L226,124 L227,186 L227,230 L228,340 L229,473 L229,530 L226,549 L222,563 L218,572 L207,591 L198,600 L191,608 L176,619 L157,629 L148,632 L145,633 L145,641 L156,658 L159,661 L163,669 L172,682 L178,691 L186,702 L200,723 L208,734 L217,747 L220,752 L228,763 L237,776 L242,785 L253,800 L262,814 L270,825 L272,829 L271,835 L266,836 L204,837 L199,835 L192,827 L181,811 L173,800 L163,785 L155,774 L148,762 L138,750 L127,732 L119,721 L109,707 L103,698 L26,697 L21,698 L-87,698 L-163,699 L-167,701 L-179,718 L-187,730 L-197,745 L-215,772 L-223,784 L-233,799 L-240,810 L-253,829 L-260,838 L-261,839 L-270,840 L-326,840 L-332,841 L-335,838 L-334,833 L-329,824 L-321,812 L-308,793 L-299,779 L-289,764 L-282,753 L-276,744 L-270,735 L-262,724 L-259,719 L-253,710 L-239,688 L-232,677 L-224,666 L-215,651 L-211,645 L-210,636 L-220,633 L-233,627 L-243,622 L-257,611 L-262,606 L-274,593 L-281,582 L-288,568 L-291,561 L-294,548 L-296,529 L-297,506 L-298,376 L-298,348 L-299,268 L-299,219 L-300,154 L-300,108 L-297,89 L-294,78 L-289,68 L-284,58 L-280,52 L-273,43 L-266,35 L-258,28 L-248,20 L-239,15 L-227,10 L-223,8 L-215,6 L-213,5 L-199,3 L-186,2 L-143,1 L-133,2 L-108,1 L-24,1 Z M-13,25 L-98,26 L-106,30 L-111,36 L-114,42 L-114,73 L-112,82 L-109,89 L-104,93 L-94,96 L-71,96 L22,95 L30,91 L36,85 L39,74 L38,49 L36,37 L32,30 L24,26 L13,25 Z M72,117 L13,118 L-68,118 L-92,119 L-178,119 L-192,120 L-205,125 L-216,134 L-224,143 L-228,150 L-231,160 L-232,173 L-232,238 L-231,264 L-228,277 L-223,286 L-215,295 L-210,299 L-198,305 L-178,308 L-117,308 L-82,307 L-23,307 L31,306 L112,306 L124,304 L136,299 L147,291 L153,284 L159,273 L162,261 L162,190 L161,167 L159,151 L153,140 L141,127 L133,122 L127,119 L119,117 Z M104,476 L96,479 L84,485 L76,492 L68,505 L66,510 L64,519 L64,532 L67,544 L74,556 L82,564 L93,571 L99,574 L115,576 L126,575 L140,569 L149,562 L155,555 L161,545 L163,537 L164,519 L161,507 L156,497 L148,488 L139,482 L128,477 L122,476 Z M-182,478 L-195,480 L-204,484 L-213,490 L-223,502 L-228,513 L-230,526 L-229,538 L-225,551 L-219,560 L-211,568 L-199,575 L-189,578 L-171,578 L-158,573 L-147,566 L-137,555 L-133,546 L-130,534 L-130,521 L-134,508 L-142,495 L-150,488 L-160,482 L-165,480 L-176,478 Z " fill="#000000" transform="translate(588,202)"/>
<path d="M0,0 L1,0 L1,27 L0,27 L-1,17 L-1,2 Z " fill="#000000" transform="translate(1115,549)"/>
<path d="M0,0 Z " fill="#000000" transform="translate(0,556)"/>
<path d="M0,0 L2,1 L0,5 Z " fill="#000000" transform="translate(0,572)"/>
<path d="M0,0 L2,1 L2,6 L0,7 Z " fill="#000000" transform="translate(0,581)"/>
<path d="M0,0 L2,2 L2,21 L0,22 Z " fill="#000000" transform="translate(0,608)"/>
<path d="M0,0 L3,3 L3,27 L4,151 L4,373 L7,392 L9,397 L13,413 L18,423 L23,432 L31,443 L43,456 L48,461 L56,468 L74,479 L90,485 L101,488 L115,490 L115,492 L78,492 L78,490 L71,489 L59,482 L46,471 L38,465 L30,458 L22,447 L15,437 L10,428 L3,413 L2,405 L0,405 Z " fill="#000000" transform="translate(0,636)"/>
<path d="M0,0 L1,0 L1,32 L-7,45 L-13,54 L-24,67 L-31,76 L-44,86 L-63,99 L-79,107 L-94,113 L-96,115 L-359,115 L-359,114 L-346,113 L-326,113 L-243,112 L-140,111 L-112,108 L-100,105 L-87,100 L-71,92 L-65,89 L-62,86 L-54,81 L-46,75 L-42,73 L-35,65 L-28,57 L-18,43 L-9,27 L-6,19 L-3,10 L-1,1 Z " fill="#000000" transform="translate(1115,1013)"/>
<path d="M0,0 L1,3 L-1,3 Z " fill="#000000" transform="translate(979,1114)"/>
<path d="M0,0 L4,1 L4,2 L-1,2 Z " fill="#000000" transform="translate(672,1126)"/>
<path d="M0,0 L13,0 L15,2 L-1,2 Z " fill="#000000" transform="translate(739,1126)"/>
</svg>
