<?xml version="1.0" encoding="UTF-8"?>
<!-- Generator: visioncortex VTracer 0.6.12 -->
<svg version="1.1" xmlns="http://www.w3.org/2000/svg" width="1092" height="1203">
<path d="M0,0 L62,0 L66,4 L67,6 L68,23 L68,49 L67,60 L69,162 L69,186 L70,220 L70,237 L71,288 L71,329 L72,358 L72,418 L73,464 L74,546 L75,605 L75,681 L76,692 L77,754 L77,817 L78,836 L78,860 L79,913 L80,952 L80,978 L79,983 L80,988 L81,1027 L81,1118 L79,1121 L76,1122 L32,1122 L23,1123 L-17,1123 L-56,1124 L-108,1124 L-124,1125 L-148,1125 L-156,1126 L-168,1125 L-212,1126 L-239,1126 L-255,1127 L-340,1127 L-360,1128 L-455,1128 L-466,1129 L-493,1129 L-512,1130 L-551,1130 L-603,1131 L-674,1131 L-691,1132 L-722,1132 L-781,1133 L-823,1133 L-973,1135 L-979,1135 L-979,23 L-974,22 L-975,18 L-979,17 L-979,15 L-971,14 L-882,13 L-846,13 L-819,12 L-802,12 L-794,11 L-717,11 L-689,10 L-649,10 L-630,9 L-573,9 L-529,8 L-459,7 L-435,6 L-426,7 L-408,6 L-388,6 L-377,5 L-274,4 L-261,4 L-247,3 L-222,3 L-119,1 L-103,2 L-73,1 L-46,1 Z M-837,125 L-838,126 L-838,132 L-833,133 L-832,132 L-832,126 Z M-479,125 L-488,131 L-492,136 L-493,139 L-493,151 L-490,156 L-483,162 L-481,163 L-470,163 L-461,157 L-456,149 L-455,140 L-458,133 L-465,126 L-467,125 Z M-529,126 L-539,129 L-547,137 L-549,145 L-548,153 L-544,160 L-535,165 L-528,166 L-521,163 L-516,159 L-510,150 L-510,141 L-513,134 L-520,128 L-525,126 Z M-502,176 L-508,177 L-538,179 L-557,181 L-570,183 L-575,185 L-585,187 L-596,188 L-600,190 L-614,193 L-629,197 L-643,201 L-661,207 L-676,213 L-692,220 L-700,227 L-702,231 L-703,271 L-703,320 L-706,325 L-720,336 L-727,341 L-731,347 L-733,354 L-733,381 L-732,471 L-731,495 L-731,575 L-730,621 L-729,647 L-726,654 L-716,667 L-705,678 L-697,688 L-686,700 L-679,709 L-673,714 L-669,715 L-667,721 L-656,735 L-654,742 L-653,810 L-655,817 L-658,819 L-678,821 L-684,826 L-685,828 L-685,858 L-681,862 L-678,863 L-656,864 L-653,868 L-653,886 L-656,890 L-660,891 L-675,892 L-681,895 L-684,898 L-685,901 L-685,922 L-683,930 L-680,933 L-677,934 L-656,935 L-653,937 L-652,940 L-652,957 L-656,961 L-676,963 L-681,966 L-683,969 L-684,974 L-684,988 L-683,999 L-678,1004 L-675,1005 L-657,1005 L-651,1008 L-650,1013 L-649,1027 L-646,1035 L-641,1038 L-618,1037 L-613,1034 L-610,1028 L-609,1015 L-606,1006 L-602,1004 L-564,1004 L-509,1003 L-480,1002 L-445,1001 L-378,1001 L-373,1002 L-371,1026 L-369,1031 L-364,1034 L-337,1033 L-332,1028 L-331,1026 L-329,1005 L-326,1000 L-321,999 L-302,998 L-296,993 L-295,991 L-295,967 L-297,960 L-302,957 L-307,956 L-328,955 L-330,949 L-330,936 L-327,929 L-312,929 L-302,927 L-297,923 L-295,914 L-295,904 L-297,892 L-302,887 L-306,886 L-329,885 L-331,869 L-330,860 L-326,857 L-312,857 L-302,855 L-297,850 L-297,828 L-299,818 L-301,815 L-306,814 L-327,813 L-331,809 L-333,795 L-333,771 L-334,756 L-334,740 L-332,728 L-324,718 L-315,709 L-310,704 L-303,697 L-296,689 L-284,677 L-277,669 L-267,657 L-264,650 L-263,646 L-263,537 L-264,509 L-264,479 L-265,392 L-266,346 L-269,336 L-274,330 L-287,321 L-298,314 L-303,308 L-304,301 L-305,281 L-306,238 L-307,220 L-311,213 L-317,209 L-339,202 L-353,197 L-362,195 L-374,191 L-389,188 L-398,187 L-403,185 L-420,182 L-435,180 L-467,177 Z " fill="#000000" transform="translate(979,37)"/>
<path d="M0,0 L14,0 L38,3 L59,6 L69,9 L79,11 L84,13 L93,14 L99,18 L102,25 L102,58 L100,63 L89,62 L74,58 L68,56 L52,53 L42,52 L29,48 L20,48 L10,47 L3,45 L-3,44 L-5,40 L-5,6 L-2,1 Z " fill="#000000" transform="translate(512,256)"/>
<path d="M0,0 L8,0 L11,3 L12,6 L12,42 L7,46 L2,48 L-15,50 L-33,54 L-59,61 L-73,64 L-81,68 L-89,71 L-94,70 L-97,65 L-98,61 L-98,32 L-96,23 L-88,19 L-72,14 L-44,7 L-31,4 L-14,2 Z " fill="#000000" transform="translate(435,257)"/>
<path d="M0,0 L10,0 L23,1 L33,5 L43,11 L46,14 L46,16 L48,16 L54,25 L60,37 L61,46 L61,56 L57,72 L50,83 L40,92 L31,98 L22,100 L5,101 L-4,99 L-16,94 L-29,82 L-36,71 L-40,60 L-40,41 L-35,28 L-28,16 L-17,7 L-4,1 Z " fill="#000000" transform="translate(469,344)"/>
<path d="M0,0 L51,0 L55,4 L56,7 L58,46 L60,51 L70,52 L74,55 L75,61 L75,74 L72,79 L70,80 L56,81 L27,81 L22,82 L-21,82 L-33,83 L-51,83 L-80,84 L-126,84 L-133,85 L-157,85 L-161,82 L-163,73 L-162,61 L-159,57 L-149,54 L-146,50 L-144,30 L-144,12 L-141,5 L-138,3 L-105,3 L-101,2 L-77,2 Z " fill="#000000" transform="translate(529,771)"/>
<path d="M0,0 L33,0 L37,4 L38,6 L38,20 L36,26 L32,29 L13,29 L-50,30 L-78,31 L-100,31 L-115,32 L-134,32 L-161,33 L-192,33 L-198,29 L-199,28 L-199,11 L-196,6 L-190,4 L-126,2 L-101,2 L-70,1 Z " fill="#000000" transform="translate(567,895)"/>
<path d="M0,0 L16,1 L27,2 L31,1 L42,1 L45,4 L46,7 L46,21 L42,27 L33,28 L7,29 L-15,29 L-31,30 L-73,30 L-146,32 L-183,32 L-190,29 L-191,27 L-191,10 L-186,5 L-164,4 L-159,3 L-90,3 L-75,2 L-26,1 Z " fill="#000000" transform="translate(560,966)"/>
</svg>
