<?xml version="1.0" encoding="UTF-8"?>
<!-- Generator: visioncortex VTracer 0.6.12 -->
<svg version="1.1" xmlns="http://www.w3.org/2000/svg" width="1134" height="1110">
<path d="M0,0 L1134,0 L1134,913 L1133,930 L1133,941 L1134,950 L1133,953 L1133,980 L1134,990 L1133,996 L1133,1026 L1134,1028 L1133,1040 L1134,1046 L1134,1110 L0,1110 Z M20,3 L15,8 L13,43 L12,96 L11,170 L10,195 L10,212 L9,261 L8,404 L7,478 L7,515 L6,540 L6,586 L5,703 L5,731 L3,836 L3,872 L2,953 L2,1050 L3,1095 L6,1098 L15,1100 L47,1101 L154,1101 L161,1102 L233,1102 L267,1103 L280,1103 L293,1104 L301,1103 L401,1103 L415,1104 L440,1104 L452,1103 L457,1104 L577,1104 L585,1103 L610,1104 L659,1104 L728,1105 L852,1105 L874,1106 L1027,1106 L1032,1107 L1040,1106 L1108,1106 L1115,1102 L1117,1095 L1117,944 L1119,872 L1120,822 L1120,798 L1121,751 L1121,732 L1122,659 L1123,527 L1123,499 L1124,433 L1124,380 L1125,359 L1125,325 L1126,227 L1128,110 L1129,17 L1126,10 L1124,8 L1076,6 L1068,7 L1021,7 L1013,6 L966,7 L916,7 L906,6 L764,6 L618,5 L429,5 L417,4 L412,3 L399,5 L362,5 L333,4 L326,4 L320,3 L287,4 L252,3 Z " fill="#000000" transform="translate(0,0)"/>
<path d="M0,0 L7,1 L129,1 L136,2 L158,3 L170,9 L177,16 L186,28 L188,38 L188,72 L186,83 L179,94 L174,97 L163,98 L135,98 L118,99 L112,101 L112,108 L118,112 L133,116 L164,122 L179,128 L199,135 L234,151 L245,159 L251,163 L258,167 L262,172 L263,175 L264,186 L265,215 L265,288 L264,298 L264,441 L262,454 L259,460 L256,463 L242,463 L235,467 L228,466 L194,466 L191,467 L150,466 L138,467 L116,467 L77,466 L63,466 L53,467 L42,465 L32,466 L24,467 L19,465 L9,466 L-6,465 L-10,466 L-27,467 L-33,468 L-50,466 L-69,466 L-74,465 L-85,465 L-91,464 L-110,465 L-116,464 L-164,464 L-179,461 L-184,457 L-186,452 L-186,429 L-187,418 L-187,396 L-188,372 L-188,189 L-186,176 L-183,171 L-174,165 L-159,156 L-143,148 L-126,139 L-114,134 L-99,128 L-85,122 L-58,116 L-48,114 L-36,109 L-36,103 L-40,100 L-46,99 L-74,98 L-85,97 L-95,93 L-102,87 L-105,80 L-106,74 L-106,64 L-107,48 L-106,31 L-102,21 L-97,16 L-95,16 L-93,12 L-85,5 L-81,3 L-73,2 L-3,1 Z M-69,21 L-80,22 L-86,22 L-91,25 L-94,32 L-94,66 L-90,78 L-83,85 L-81,86 L-72,86 L-63,87 L-37,87 L-26,86 L-3,86 L13,79 L23,75 L43,73 L53,75 L69,83 L80,87 L84,88 L100,88 L115,87 L118,88 L159,88 L168,85 L173,78 L174,74 L174,41 L171,28 L167,23 L160,22 L146,21 L123,22 L32,22 L-17,21 L-31,22 L-43,22 L-53,21 L-60,22 Z M34,91 L18,96 L9,102 L1,110 L-2,116 L-5,131 L-4,145 L1,158 L11,167 L21,173 L30,177 L41,177 L53,174 L63,169 L73,160 L79,149 L82,135 L81,125 L77,116 L70,107 L65,101 L56,95 L49,92 L40,92 L39,91 Z M-127,194 L-142,197 L-149,205 L-151,210 L-152,297 L-147,310 L-141,314 L-134,317 L-95,317 L-88,318 L-74,318 L-49,317 L-20,318 L-4,318 L10,316 L16,309 L19,301 L21,269 L20,253 L20,227 L19,209 L13,201 L6,198 L-7,196 L-41,195 L-60,194 Z M88,195 L70,199 L65,203 L60,211 L60,233 L59,267 L59,296 L61,307 L66,314 L72,317 L77,318 L128,318 L134,319 L143,318 L147,319 L167,319 L176,318 L196,318 L199,319 L206,319 L216,315 L221,310 L224,302 L226,285 L226,218 L224,207 L218,199 L214,197 L191,196 L160,195 Z M-96,356 L-109,363 L-119,371 L-125,380 L-128,392 L-128,403 L-125,415 L-119,424 L-112,431 L-103,436 L-97,439 L-90,441 L-74,440 L-62,435 L-55,429 L-47,418 L-44,408 L-43,396 L-46,385 L-52,373 L-61,365 L-75,358 L-90,356 Z M158,358 L141,363 L133,368 L121,381 L118,394 L119,412 L126,426 L134,434 L147,441 L173,441 L187,434 L195,425 L199,418 L202,409 L202,394 L199,384 L192,373 L182,365 L177,362 L164,358 Z " fill="#000000" transform="translate(326,157)"/>
<path d="M0,0 L15,0 L25,4 L31,8 L35,14 L38,23 L39,32 L35,45 L27,56 L22,59 L10,61 L-5,60 L-15,51 L-19,43 L-20,39 L-20,22 L-16,14 L-7,4 Z " fill="#000000" transform="translate(355,261)"/>
<path d="M0,0 L9,0 L22,7 L28,14 L31,21 L31,37 L27,46 L20,54 L12,60 L-10,60 L-21,53 L-26,46 L-28,37 L-28,25 L-24,14 L-17,6 L-9,2 Z " fill="#000000" transform="translate(239,525)"/>
<path d="M0,0 L12,1 L22,8 L27,12 L30,17 L33,29 L31,43 L26,52 L20,57 L12,61 L0,63 L-6,63 L-16,57 L-24,48 L-28,40 L-28,28 L-26,20 L-20,11 L-12,4 L-6,1 Z " fill="#000000" transform="translate(483,526)"/>
<path d="M0,0 L20,1 L44,2 L49,1 L66,1 L76,2 L90,2 L94,1 L103,1 L105,2 L171,2 L189,1 L193,2 L267,2 L299,4 L305,7 L309,13 L310,18 L310,55 L307,65 L300,72 L292,77 L281,84 L270,93 L265,99 L264,103 L267,113 L269,117 L269,125 L265,138 L260,148 L252,158 L244,165 L234,173 L223,181 L216,185 L212,190 L210,196 L210,216 L214,222 L217,223 L235,223 L260,225 L269,224 L312,224 L325,222 L328,213 L330,195 L330,169 L329,152 L329,101 L330,87 L334,78 L339,75 L367,74 L375,74 L384,73 L418,74 L585,74 L619,75 L654,75 L679,76 L689,75 L723,75 L730,76 L749,76 L755,81 L758,96 L758,193 L759,214 L759,250 L758,269 L754,275 L749,277 L700,278 L674,278 L671,279 L657,279 L652,278 L556,278 L512,279 L498,279 L486,278 L462,279 L451,278 L414,278 L411,279 L373,278 L364,277 L277,278 L247,277 L241,278 L211,278 L142,277 L83,277 L51,276 L46,275 L44,277 L9,277 L-5,276 L-22,276 L-33,277 L-49,276 L-59,275 L-78,276 L-126,276 L-138,274 L-144,270 L-146,267 L-148,253 L-148,233 L-144,225 L-138,224 L-77,222 L-73,223 L-49,223 L-37,222 L-32,218 L-30,211 L-30,196 L-34,188 L-50,180 L-66,171 L-72,166 L-80,160 L-86,152 L-95,141 L-98,132 L-99,127 L-99,116 L-95,107 L-93,103 L-94,96 L-98,91 L-110,85 L-114,81 L-124,76 L-134,67 L-138,59 L-139,55 L-141,28 L-139,13 L-135,6 L-129,3 L-111,3 L-107,2 L-43,2 L-9,1 Z M-45,16 L-54,18 L-63,24 L-70,32 L-74,45 L-74,56 L-70,69 L-65,77 L-59,82 L-49,87 L-30,87 L-23,84 L-10,72 L-7,65 L-6,59 L-6,43 L-10,33 L-12,30 L-14,30 L-16,26 L-25,19 L-32,16 Z M199,16 L189,20 L180,27 L174,39 L172,45 L172,55 L174,64 L179,73 L190,84 L201,88 L211,87 L227,82 L234,75 L238,66 L241,56 L240,42 L235,32 L228,25 L213,16 Z M85,50 L80,54 L78,58 L78,92 L81,97 L85,99 L90,98 L95,93 L95,61 L92,52 L89,50 Z M608,107 L607,111 L611,111 L611,107 Z M31,157 L22,161 L18,166 L11,178 L3,185 L-2,191 L-4,197 L-4,210 L-1,219 L4,223 L46,224 L155,224 L170,223 L176,220 L179,216 L179,197 L176,191 L166,183 L161,179 L156,171 L154,166 L150,161 L147,159 L141,158 L116,158 L92,157 Z M-81,268 L-82,270 L-78,269 Z " fill="#000000" transform="translate(280,629)"/>
</svg>
