<?xml version="1.0" encoding="UTF-8"?>
<!-- Generator: visioncortex VTracer 0.6.12 -->
<svg version="1.1" xmlns="http://www.w3.org/2000/svg" width="1137" height="1143">
<path d="M0,0 L804,0 L804,1125 L768,1126 L706,1126 L648,1127 L572,1129 L501,1129 L493,1130 L418,1130 L380,1131 L367,1132 L282,1132 L264,1133 L176,1133 L122,1134 L97,1134 L35,1135 L-41,1135 L-97,1136 L-168,1136 L-235,1137 L-292,1137 L-307,1138 L-328,1137 L-333,1134 L-333,1127 L-332,1126 L-332,1084 L-333,1067 L-333,5 L-319,4 L-304,4 L-268,3 L-133,3 L-64,2 L-20,1 L-3,1 Z M-17,179 L-24,182 L-42,193 L-52,200 L-62,206 L-77,216 L-96,228 L-104,235 L-105,242 L-99,246 L-85,250 L-65,256 L-34,265 L-19,270 L-11,272 L12,279 L25,283 L46,289 L57,293 L67,295 L93,303 L115,309 L128,313 L154,320 L170,325 L170,330 L166,331 L157,336 L145,344 L133,350 L125,356 L116,361 L103,369 L86,379 L77,384 L71,387 L65,392 L56,397 L45,404 L27,414 L23,417 L12,423 L7,426 L-9,435 L-18,441 L-33,450 L-46,458 L-55,463 L-66,469 L-74,474 L-82,478 L-95,486 L-106,493 L-112,496 L-125,504 L-140,513 L-151,520 L-164,527 L-167,530 L-173,533 L-183,539 L-197,547 L-216,558 L-225,566 L-225,575 L-214,595 L-205,610 L-202,616 L-198,622 L-192,633 L-188,639 L-185,641 L-180,641 L-168,634 L-161,630 L-137,616 L-123,608 L-107,599 L-91,590 L-77,582 L-68,576 L-57,570 L-43,562 L-28,553 L-8,542 L16,528 L21,525 L35,517 L46,510 L57,504 L63,500 L73,495 L83,489 L100,479 L120,467 L141,455 L150,450 L169,440 L181,433 L190,427 L195,423 L209,415 L213,412 L217,412 L213,434 L210,446 L201,482 L196,506 L193,518 L191,528 L189,536 L188,547 L182,570 L177,592 L174,604 L172,614 L167,638 L161,663 L158,676 L155,689 L154,693 L154,703 L155,704 L162,703 L184,691 L189,688 L192,685 L220,670 L230,664 L248,654 L254,645 L258,630 L265,598 L270,577 L277,546 L282,524 L287,503 L293,477 L298,455 L303,435 L306,421 L313,390 L320,362 L326,334 L335,295 L336,290 L336,281 L330,277 L319,273 L300,268 L277,261 L256,255 L239,250 L228,247 L207,242 L200,239 L191,237 L178,232 L168,230 L162,228 L154,227 L146,224 L118,216 L93,209 L71,203 L62,200 L42,194 L36,192 L30,191 L11,185 L-6,180 Z M661,497 L650,503 L639,510 L617,523 L601,532 L584,542 L573,549 L555,559 L538,569 L519,580 L502,590 L493,595 L487,599 L479,603 L466,611 L458,615 L450,620 L436,629 L422,636 L412,643 L400,650 L389,657 L377,663 L350,679 L338,686 L321,696 L305,705 L292,713 L275,723 L259,732 L239,743 L219,755 L200,766 L190,772 L181,778 L172,784 L158,791 L147,798 L125,810 L112,818 L102,824 L91,830 L87,833 L78,838 L61,847 L56,851 L45,857 L29,866 L18,872 L2,881 L-5,886 L-19,893 L-35,903 L-54,914 L-60,917 L-69,923 L-84,931 L-103,942 L-115,949 L-123,954 L-131,958 L-136,962 L-147,968 L-162,976 L-169,981 L-178,986 L-181,990 L-181,996 L-173,1013 L-165,1024 L-161,1028 L-156,1028 L-139,1019 L-126,1011 L-109,1001 L-105,998 L-96,994 L-79,984 L-69,978 L-52,968 L-36,959 L-9,943 L-2,939 L12,931 L16,928 L26,923 L40,915 L57,905 L67,899 L89,887 L103,879 L122,868 L137,859 L143,856 L167,842 L177,836 L187,830 L203,820 L217,812 L223,808 L234,802 L245,796 L254,790 L265,784 L275,778 L285,772 L301,763 L315,755 L331,745 L342,739 L355,732 L375,720 L389,712 L397,707 L412,699 L425,691 L435,685 L448,678 L457,672 L468,666 L480,659 L500,647 L520,636 L543,622 L556,614 L566,609 L593,593 L597,590 L607,585 L617,579 L631,571 L645,563 L658,555 L672,547 L678,543 L686,537 L687,535 L687,529 L677,510 L669,498 L668,497 Z " fill="#000000" transform="translate(333,0)"/>
</svg>
