<?xml version="1.0" encoding="UTF-8"?>
<!-- Generator: visioncortex VTracer 0.6.12 -->
<svg version="1.1" xmlns="http://www.w3.org/2000/svg" width="576" height="534">
<path d="M0,0 L7,0 L16,1 L29,1 L54,0 L110,0 L133,1 L138,7 L138,15 L134,19 L131,20 L122,20 L116,23 L109,21 L54,21 L47,22 L45,21 L5,21 L-3,22 L-13,21 L-19,25 L-24,24 L-26,22 L-42,22 L-46,23 L-51,22 L-70,22 L-102,21 L-122,21 L-131,22 L-136,22 L-141,27 L-148,26 L-155,24 L-158,23 L-182,23 L-192,24 L-195,22 L-203,23 L-236,23 L-244,22 L-250,24 L-258,23 L-263,24 L-285,23 L-290,26 L-295,25 L-306,25 L-311,26 L-318,25 L-334,25 L-341,24 L-343,25 L-361,24 L-366,21 L-369,18 L-369,7 L-364,3 L-357,2 L-291,1 L-13,1 Z " fill="#000000" transform="translate(405,37)"/>
<path d="M0,0 L24,0 L33,1 L39,4 L43,9 L45,23 L45,34 L46,43 L46,73 L42,78 L33,80 L27,85 L21,87 L5,87 L1,83 L0,81 L-4,82 L-6,84 L-10,83 L-14,79 L-19,81 L-22,85 L-31,85 L-38,86 L-40,82 L-42,81 L-48,81 L-52,83 L-63,81 L-67,80 L-69,86 L-74,87 L-79,82 L-83,83 L-85,86 L-90,86 L-92,81 L-104,81 L-104,83 L-101,84 L-102,87 L-108,87 L-109,82 L-118,81 L-127,81 L-128,86 L-131,88 L-136,88 L-139,83 L-142,82 L-151,83 L-153,87 L-159,88 L-167,85 L-178,85 L-184,82 L-200,82 L-202,84 L-206,83 L-207,82 L-215,82 L-223,88 L-229,89 L-228,84 L-226,84 L-227,82 L-242,82 L-246,84 L-252,83 L-258,82 L-266,83 L-277,81 L-283,77 L-285,69 L-286,50 L-286,18 L-284,5 L-280,2 L-224,1 L-142,2 L-131,1 L-9,1 Z M-18,19 L-29,23 L-34,27 L-38,37 L-40,43 L-37,53 L-32,59 L-24,63 L-16,63 L-7,59 L-2,52 L0,46 L0,34 L-4,26 L-9,22 L-15,19 Z M-124,22 L-130,25 L-132,30 L-136,32 L-139,40 L-139,49 L-135,58 L-131,63 L-126,66 L-120,67 L-111,65 L-102,58 L-98,49 L-98,38 L-103,29 L-110,23 L-113,22 Z M-218,24 L-225,26 L-236,38 L-236,52 L-230,62 L-221,68 L-212,68 L-206,65 L-198,57 L-195,49 L-195,41 L-201,30 L-204,27 L-214,24 Z M9,82 Z " fill="#000000" transform="translate(407,72)"/>
<path d="M0,0 L28,1 L72,1 L102,0 L146,0 L158,1 L162,6 L164,13 L165,27 L165,64 L166,78 L166,98 L167,101 L167,120 L166,123 L166,138 L167,145 L167,154 L166,160 L166,189 L167,194 L167,219 L168,253 L167,256 L168,298 L167,325 L163,331 L160,333 L149,332 L143,327 L142,324 L140,292 L138,283 L135,279 L96,279 L95,280 L86,280 L76,282 L70,283 L65,280 L60,281 L54,283 L49,280 L38,281 L18,281 L11,282 L-7,281 L-17,283 L-40,282 L-61,281 L-72,281 L-74,282 L-87,282 L-91,284 L-96,283 L-101,282 L-106,285 L-114,284 L-116,282 L-122,282 L-127,285 L-132,288 L-135,292 L-136,327 L-138,332 L-143,335 L-157,335 L-163,330 L-165,321 L-166,309 L-166,251 L-167,130 L-167,106 L-168,78 L-167,49 L-167,14 L-166,6 L-160,3 L-155,2 L-52,2 L-24,1 L-6,1 Z M96,60 L93,63 L90,64 L63,65 L58,66 L49,66 L40,65 L22,65 L0,66 L-3,67 L-11,67 L-14,66 L-23,66 L-27,69 L-32,68 L-35,66 L-51,67 L-53,66 L-64,66 L-71,67 L-82,66 L-85,68 L-94,69 L-103,74 L-106,77 L-109,87 L-109,187 L-108,215 L-106,228 L-103,233 L-103,239 L-101,242 L-80,243 L-4,241 L100,241 L107,239 L112,233 L113,230 L114,196 L113,107 L112,76 L109,67 L102,63 L100,60 Z " fill="#000000" transform="translate(289,166)"/>
<path d="M0,0 L29,0 L48,1 L52,0 L142,0 L162,1 L167,6 L169,13 L170,29 L171,121 L168,128 L165,131 L155,133 L137,134 L126,134 L120,133 L116,135 L82,134 L75,138 L63,137 L59,135 L53,136 L43,136 L40,135 L33,135 L25,136 L20,134 L6,135 L-3,132 L-7,127 L-9,78 L-9,17 L-7,5 L-3,1 Z M81,15 L49,16 L44,21 L43,25 L43,36 L46,39 L70,40 L91,39 L111,39 L116,36 L118,33 L119,22 L116,17 L113,15 Z " fill="#000000" transform="translate(211,253)"/>
</svg>
