<?xml version="1.0" encoding="UTF-8"?>
<!-- Generator: visioncortex VTracer 0.6.12 -->
<svg version="1.1" xmlns="http://www.w3.org/2000/svg" width="990" height="987">
<path d="M0,0 L86,0 L85,2 L57,4 L42,6 L36,8 L22,10 L3,14 L-9,18 L-27,22 L-31,24 L-40,26 L-53,31 L-73,39 L-78,42 L-95,48 L-104,54 L-113,57 L-132,68 L-149,78 L-159,85 L-169,92 L-175,96 L-188,107 L-198,115 L-205,121 L-216,130 L-227,141 L-232,146 L-242,157 L-247,161 L-253,169 L-259,176 L-268,187 L-273,194 L-275,194 L-277,198 L-284,209 L-291,218 L-301,235 L-306,244 L-313,256 L-321,273 L-328,287 L-333,299 L-340,317 L-345,333 L-351,353 L-355,365 L-358,378 L-364,406 L-366,421 L-367,424 L-370,456 L-371,483 L-371,504 L-370,526 L-367,559 L-363,585 L-355,623 L-349,643 L-345,653 L-341,666 L-334,686 L-329,697 L-326,704 L-318,720 L-313,730 L-307,742 L-301,752 L-292,765 L-287,775 L-281,782 L-275,790 L-264,804 L-256,814 L-247,824 L-237,835 L-232,840 L-227,845 L-222,850 L-215,858 L-207,864 L-193,876 L-184,883 L-179,887 L-160,901 L-149,908 L-141,913 L-121,924 L-99,936 L-83,944 L-70,949 L-59,954 L-45,959 L-30,964 L-21,967 L-11,969 L-4,972 L7,974 L12,976 L28,978 L34,980 L50,982 L71,984 L84,985 L85,987 L6,987 L6,985 L-2,985 L-17,980 L-29,977 L-51,969 L-75,961 L-84,956 L-91,953 L-116,940 L-126,936 L-134,930 L-143,925 L-154,919 L-158,916 L-163,913 L-166,910 L-173,907 L-183,899 L-198,888 L-203,884 L-209,877 L-217,871 L-225,863 L-233,856 L-248,841 L-255,833 L-264,823 L-273,812 L-284,798 L-296,781 L-306,766 L-311,758 L-321,740 L-331,719 L-337,709 L-345,689 L-349,680 L-359,652 L-363,639 L-366,627 L-370,612 L-374,591 L-376,585 L-376,403 L-373,391 L-368,367 L-362,344 L-357,328 L-355,322 L-352,317 L-348,304 L-341,290 L-339,285 L-336,275 L-330,263 L-324,252 L-316,236 L-311,227 L-305,218 L-295,203 L-287,191 L-279,181 L-270,170 L-262,160 L-255,152 L-246,142 L-239,135 L-234,130 L-224,120 L-216,113 L-208,106 L-197,97 L-183,86 L-169,76 L-160,70 L-145,60 L-128,51 L-124,48 L-108,40 L-84,29 L-73,24 L-60,19 L-50,15 L-34,10 L-22,6 L-13,4 L-4,2 L0,2 Z " fill="#000000" transform="translate(376,0)"/>
<path d="M0,0 L80,0 L89,3 L102,7 L114,10 L122,13 L130,15 L142,19 L158,26 L171,31 L187,39 L206,48 L224,58 L242,69 L253,77 L266,86 L277,95 L286,102 L297,111 L308,121 L316,128 L334,146 L339,151 L350,163 L357,172 L365,182 L377,198 L384,209 L391,219 L401,235 L406,245 L409,252 L415,262 L423,280 L428,290 L436,309 L445,334 L447,342 L452,356 L457,375 L460,384 L462,399 L463,400 L463,587 L461,592 L457,612 L450,637 L446,648 L442,663 L437,672 L433,685 L418,718 L407,739 L404,746 L390,768 L380,782 L369,798 L361,806 L353,818 L338,834 L334,839 L329,844 L309,864 L295,875 L283,886 L271,895 L257,906 L249,912 L243,915 L234,921 L227,925 L219,930 L205,937 L196,942 L189,945 L179,951 L164,958 L144,966 L129,972 L122,974 L112,978 L97,981 L91,984 L79,986 L78,987 L-6,987 L-5,985 L28,983 L45,980 L74,974 L91,970 L102,966 L111,964 L131,957 L141,953 L152,950 L168,942 L179,937 L191,931 L207,923 L216,918 L226,912 L236,906 L244,900 L254,893 L263,886 L271,880 L284,870 L290,866 L296,859 L301,855 L303,855 L305,851 L310,846 L318,838 L323,834 L330,826 L339,816 L350,802 L360,789 L368,779 L377,764 L382,758 L388,746 L396,732 L402,720 L410,704 L417,689 L423,673 L429,659 L433,645 L437,634 L445,603 L447,597 L455,544 L457,517 L458,512 L458,498 L457,492 L456,459 L455,445 L454,440 L453,424 L448,399 L443,376 L440,362 L434,344 L425,317 L420,305 L414,291 L409,281 L405,271 L398,257 L391,245 L383,231 L374,217 L361,198 L353,189 L347,181 L339,171 L332,162 L327,158 L320,150 L308,138 L303,133 L290,122 L282,114 L271,106 L264,100 L252,91 L239,82 L232,78 L220,70 L209,64 L195,57 L179,49 L168,44 L152,37 L146,35 L133,29 L124,26 L109,22 L83,14 L55,9 L44,7 L24,4 L1,2 Z " fill="#000000" transform="translate(527,0)"/>
<path d="M0,0 L58,0 L79,1 L104,1 L158,2 L164,5 L170,3 L200,3 L218,4 L222,7 L223,11 L223,282 L224,285 L231,286 L254,286 L285,287 L313,287 L323,288 L373,288 L379,289 L400,289 L480,291 L497,292 L502,295 L503,297 L504,306 L504,369 L503,431 L503,479 L501,520 L498,524 L492,525 L453,525 L371,524 L347,523 L316,523 L297,522 L227,522 L222,525 L220,525 L218,537 L217,569 L216,671 L215,699 L215,732 L214,757 L213,791 L212,802 L208,806 L193,806 L177,805 L120,804 L71,805 L63,805 L58,804 L7,804 L1,805 L-1,804 L-14,803 L-19,800 L-21,798 L-21,727 L-20,702 L-20,669 L-19,638 L-18,546 L-19,521 L-22,519 L-34,519 L-56,518 L-97,518 L-133,517 L-137,516 L-212,516 L-258,515 L-271,515 L-289,514 L-293,512 L-295,509 L-296,493 L-296,357 L-295,303 L-294,286 L-290,281 L-249,280 L-238,280 L-230,279 L-224,280 L-179,281 L-87,281 L-57,282 L-28,282 L-16,280 L-14,268 L-12,207 L-10,106 L-10,83 L-9,27 L-7,6 L-5,2 Z " fill="#000000" transform="translate(402,97)"/>
</svg>
