<?xml version="1.0" encoding="UTF-8"?>
<!-- Generator: visioncortex VTracer 0.6.12 -->
<svg version="1.1" xmlns="http://www.w3.org/2000/svg" width="1023" height="1032">
<path d="M0,0 L8,0 L13,1 L64,2 L86,3 L130,3 L170,4 L184,4 L223,5 L314,6 L321,5 L340,6 L365,6 L371,5 L375,7 L411,8 L491,9 L570,10 L595,11 L638,11 L733,12 L737,13 L760,15 L773,20 L787,24 L795,29 L804,34 L813,40 L822,46 L827,52 L834,58 L842,68 L851,80 L859,96 L864,105 L864,903 L862,911 L857,938 L848,959 L845,965 L841,970 L836,979 L829,988 L827,988 L825,992 L810,1007 L796,1016 L791,1020 L775,1028 L774,1029 L-46,1029 L-47,1028 L-58,1026 L-62,1024 L-72,1023 L-80,1019 L-92,1014 L-107,1004 L-119,995 L-129,987 L-138,976 L-144,969 L-152,957 L-156,951 L-157,945 L-159,945 L-159,901 L-157,901 L-152,923 L-144,943 L-136,956 L-124,972 L-112,984 L-104,990 L-93,997 L-82,1003 L-75,1007 L-59,1012 L-47,1015 L-26,1017 L-17,1018 L34,1018 L63,1019 L79,1019 L131,1020 L193,1020 L209,1021 L214,1022 L216,1021 L237,1021 L259,1022 L302,1022 L313,1023 L405,1023 L456,1024 L519,1024 L529,1025 L566,1025 L648,1026 L709,1026 L731,1025 L750,1021 L765,1016 L772,1013 L789,1004 L800,995 L808,988 L821,975 L827,967 L833,956 L838,945 L844,930 L850,904 L852,866 L852,826 L853,809 L854,723 L854,611 L855,490 L856,430 L856,385 L857,344 L858,260 L858,215 L859,202 L859,148 L856,132 L850,110 L846,101 L840,90 L836,83 L829,75 L818,63 L806,53 L800,49 L794,46 L787,40 L775,35 L774,34 L765,33 L762,31 L752,30 L743,27 L734,27 L721,25 L694,25 L692,24 L625,24 L596,23 L570,23 L554,22 L449,21 L428,21 L418,20 L377,20 L375,21 L358,21 L353,20 L313,20 L309,19 L236,19 L194,18 L174,18 L154,17 L134,17 L130,19 L126,18 L122,16 L38,16 L36,17 L22,16 L-28,16 L-35,18 L-46,20 L-71,28 L-86,37 L-98,44 L-104,51 L-113,58 L-117,64 L-122,70 L-128,78 L-134,89 L-140,102 L-143,112 L-144,121 L-146,124 L-149,142 L-150,158 L-151,218 L-152,248 L-153,364 L-154,421 L-155,486 L-156,633 L-157,653 L-159,653 L-159,114 L-157,109 L-153,96 L-145,81 L-139,70 L-131,59 L-123,49 L-114,39 L-98,28 L-90,22 L-71,13 L-65,10 L-56,7 L-38,3 L-24,1 Z " fill="#000000" transform="translate(159,3)"/>
<path d="M0,0 L86,0 L127,1 L184,1 L190,2 L209,1 L245,2 L254,4 L258,10 L259,13 L260,31 L260,248 L261,273 L263,279 L269,282 L274,283 L285,283 L289,284 L310,284 L318,285 L336,284 L352,285 L404,285 L437,286 L510,286 L527,287 L532,290 L535,295 L537,303 L537,327 L538,371 L537,395 L536,530 L536,552 L533,559 L530,562 L521,564 L507,565 L500,563 L491,564 L451,563 L420,563 L411,564 L389,563 L352,563 L301,562 L285,562 L277,563 L268,563 L263,569 L261,604 L261,725 L262,766 L262,799 L261,830 L259,839 L253,844 L248,845 L212,845 L110,844 L95,843 L89,844 L71,843 L31,843 L3,842 L-6,841 L-12,834 L-14,825 L-15,797 L-15,620 L-16,581 L-17,568 L-19,563 L-23,560 L-42,557 L-81,556 L-120,556 L-128,555 L-214,556 L-227,555 L-247,555 L-276,553 L-284,549 L-287,537 L-288,493 L-288,405 L-289,396 L-289,347 L-288,319 L-288,296 L-287,286 L-283,280 L-280,278 L-257,277 L-246,278 L-235,279 L-138,279 L-98,280 L-83,279 L-74,281 L-55,281 L-48,282 L-38,281 L-27,281 L-20,278 L-18,276 L-17,270 L-17,256 L-16,251 L-16,172 L-15,111 L-15,99 L-16,76 L-15,60 L-15,28 L-14,11 L-11,4 L-7,1 Z M-149,337 L-150,341 L-146,340 L-147,337 Z " fill="#000000" transform="translate(389,104)"/>
<path d="M0,0 L2,1 L2,22 L0,23 Z " fill="#000000" transform="translate(0,660)"/>
<path d="M0,0 L1,0 L1,7 L0,7 Z " fill="#000000" transform="translate(0,693)"/>
</svg>
