<?xml version="1.0" encoding="UTF-8"?>
<!-- Generator: visioncortex VTracer 0.6.12 -->
<svg version="1.1" xmlns="http://www.w3.org/2000/svg" width="651" height="1041">
<path d="M0,0 L4,1 L3,6 L-2,9 L-2,3 Z " fill="#000000" transform="translate(610,31)"/>
<path d="M0,0 L7,1 L15,7 L36,19 L43,24 L52,28 L61,28 L70,23 L80,18 L90,15 L101,10 L111,11 L130,19 L141,25 L151,32 L166,39 L173,43 L184,56 L190,61 L193,65 L193,70 L189,71 L176,63 L170,59 L165,56 L145,44 L125,33 L115,26 L107,23 L97,24 L92,28 L84,33 L80,37 L80,43 L86,50 L96,56 L115,67 L119,70 L126,73 L129,79 L131,95 L131,135 L132,153 L136,162 L144,162 L152,158 L166,151 L177,143 L185,138 L193,133 L202,127 L211,122 L227,114 L234,114 L244,123 L250,131 L257,139 L260,148 L261,151 L262,216 L262,285 L263,302 L263,318 L264,332 L264,413 L265,437 L264,449 L265,471 L266,525 L266,565 L268,603 L268,637 L264,645 L259,650 L252,660 L244,668 L228,676 L220,678 L210,679 L193,679 L175,677 L155,669 L143,662 L133,651 L133,649 L131,649 L125,632 L124,606 L122,596 L121,594 L115,595 L107,599 L102,603 L99,613 L98,632 L97,667 L97,716 L94,742 L91,747 L85,754 L81,758 L65,767 L57,770 L48,774 L26,781 L-2,781 L-13,780 L-20,777 L-29,773 L-42,765 L-50,758 L-59,751 L-62,747 L-65,739 L-67,721 L-70,710 L-81,702 L-86,702 L-89,706 L-90,709 L-91,725 L-92,757 L-93,822 L-93,849 L-105,863 L-113,872 L-124,879 L-137,884 L-150,883 L-152,888 L-154,890 L-163,893 L-196,893 L-212,891 L-229,884 L-244,875 L-259,865 L-272,852 L-275,846 L-277,839 L-275,806 L-274,769 L-274,745 L-273,711 L-272,652 L-271,609 L-274,600 L-279,592 L-282,582 L-290,576 L-301,569 L-317,560 L-324,554 L-327,547 L-327,418 L-326,412 L-327,398 L-327,366 L-323,336 L-324,325 L-322,315 L-318,309 L-308,302 L-300,298 L-290,292 L-278,286 L-258,274 L-242,264 L-236,260 L-227,254 L-215,247 L-212,244 L-210,235 L-210,202 L-208,194 L-203,189 L-193,182 L-185,178 L-179,174 L-170,170 L-163,165 L-157,162 L-152,157 L-151,153 L-150,93 L-144,86 L-134,81 L-129,76 L-112,65 L-97,56 L-92,52 L-76,45 L-71,40 L-62,35 L-53,29 L-46,26 L-35,19 L-23,12 L-14,6 L-5,1 Z M-10,18 L-20,24 L-25,28 L-37,35 L-50,43 L-63,51 L-70,56 L-82,62 L-95,70 L-109,79 L-115,83 L-118,86 L-118,94 L-110,100 L-99,107 L-91,112 L-85,115 L-74,123 L-69,126 L-55,134 L-46,140 L-35,146 L-24,153 L-9,158 L-2,158 L13,151 L23,146 L30,140 L47,131 L53,128 L68,118 L79,112 L96,102 L107,95 L109,92 L109,85 L104,80 L93,73 L82,66 L72,62 L65,55 L53,49 L45,43 L29,35 L23,30 L14,26 L6,20 L2,18 Z M-133,106 L-137,111 L-138,117 L-138,152 L-132,159 L-116,169 L-106,175 L-90,184 L-80,191 L-62,202 L-40,215 L-31,221 L-25,224 L-19,224 L-16,221 L-14,214 L-14,183 L-17,173 L-29,164 L-45,155 L-57,148 L-64,143 L-80,135 L-93,127 L-108,118 L-118,112 L-126,107 Z M-145,170 L-153,173 L-177,187 L-183,191 L-188,197 L-186,204 L-178,211 L-167,219 L-153,227 L-139,236 L-122,247 L-108,255 L-97,261 L-89,266 L-75,274 L-62,281 L-55,281 L-39,273 L-33,270 L-19,261 L-16,256 L-16,248 L-19,243 L-26,237 L-36,230 L-49,223 L-65,213 L-83,202 L-93,196 L-113,184 L-136,171 Z M194,209 L188,213 L184,220 L182,249 L182,269 L181,277 L181,301 L177,303 L175,297 L174,275 L170,269 L164,270 L163,273 L159,275 L150,286 L145,294 L140,305 L136,321 L135,326 L135,344 L137,354 L138,370 L138,381 L137,384 L137,474 L138,486 L136,497 L136,543 L135,558 L136,616 L139,628 L148,639 L159,651 L170,658 L183,662 L185,663 L196,663 L200,660 L202,655 L207,656 L212,658 L217,655 L220,652 L220,647 L217,644 L218,638 L219,632 L218,617 L214,606 L213,597 L214,590 L215,582 L224,574 L226,571 L225,566 L219,562 L217,562 L217,555 L224,552 L225,550 L225,542 L219,535 L220,528 L223,523 L221,513 L220,508 L222,502 L222,485 L225,479 L224,472 L220,468 L221,462 L224,453 L223,447 L220,445 L221,440 L226,435 L225,428 L218,421 L219,416 L221,414 L221,407 L216,397 L218,390 L219,389 L219,367 L212,364 L211,362 L211,351 L213,345 L212,337 L205,325 L201,320 L200,318 L200,312 L206,300 L205,294 L204,292 L204,284 L205,281 L205,273 L202,266 L201,256 L208,247 L209,231 L206,222 L204,213 L200,209 Z M-191,225 L-195,229 L-196,235 L-198,280 L-198,385 L-200,397 L-202,398 L-209,398 L-226,389 L-236,382 L-250,375 L-260,368 L-270,363 L-280,357 L-293,350 L-296,347 L-302,344 L-307,345 L-312,349 L-313,355 L-313,405 L-314,438 L-314,525 L-312,541 L-308,547 L-299,554 L-289,560 L-282,563 L-277,562 L-273,552 L-268,535 L-263,523 L-256,512 L-248,504 L-241,496 L-233,489 L-224,483 L-219,479 L-209,475 L-205,468 L-204,463 L-203,437 L-201,426 L-196,421 L-187,419 L-176,419 L-169,422 L-160,431 L-158,435 L-155,464 L-146,479 L-142,484 L-133,489 L-126,495 L-122,499 L-115,507 L-108,517 L-102,527 L-94,546 L-91,554 L-88,574 L-87,589 L-87,612 L-89,657 L-89,672 L-86,680 L-80,685 L-76,687 L-70,686 L-68,685 L-67,681 L-66,642 L-65,540 L-66,484 L-65,471 L-65,454 L-66,450 L-66,362 L-67,310 L-71,300 L-77,291 L-84,285 L-99,277 L-115,267 L-127,260 L-140,252 L-142,252 L-143,249 L-163,238 L-171,233 L-184,225 Z M-220,270 L-230,276 L-245,286 L-269,299 L-283,308 L-289,312 L-297,316 L-301,321 L-300,328 L-288,337 L-277,344 L-271,348 L-265,351 L-255,357 L-250,361 L-234,369 L-223,376 L-217,376 L-212,370 L-211,368 L-210,356 L-210,285 L-212,275 L-217,270 Z M16,310 L7,315 L4,318 L3,321 L2,383 L2,402 L-3,401 L-6,393 L-7,381 L-11,376 L-17,376 L-28,383 L-38,392 L-43,399 L-50,414 L-53,426 L-54,439 L-55,466 L-52,484 L-52,503 L-53,513 L-52,521 L-53,528 L-53,537 L-52,547 L-52,615 L-53,646 L-53,733 L-50,738 L-43,746 L-30,756 L-14,764 L-2,768 L5,768 L14,764 L30,763 L35,762 L36,758 L34,754 L28,751 L29,746 L34,741 L34,730 L35,720 L31,715 L30,709 L32,702 L37,698 L38,693 L32,685 L29,677 L26,672 L27,664 L29,660 L28,654 L27,652 L27,640 L24,633 L24,626 L32,622 L34,618 L33,615 L33,606 L35,600 L35,593 L31,588 L32,582 L35,581 L41,582 L44,578 L43,573 L38,572 L35,574 L29,573 L25,571 L25,566 L26,565 L26,553 L27,550 L27,542 L23,532 L22,526 L22,517 L25,511 L28,507 L27,502 L22,494 L23,486 L27,481 L35,474 L37,472 L37,466 L32,462 L26,459 L27,454 L30,452 L29,446 L27,442 L28,418 L29,406 L26,397 L23,393 L25,374 L26,370 L26,360 L24,354 L28,345 L28,318 L25,313 L21,310 Z M-191,430 L-195,435 L-196,438 L-196,475 L-199,480 L-200,483 L-205,485 L-211,489 L-219,493 L-230,503 L-235,508 L-244,519 L-249,531 L-253,544 L-255,552 L-257,570 L-258,574 L-260,638 L-261,663 L-261,701 L-262,710 L-262,772 L-263,790 L-263,821 L-261,840 L-257,850 L-250,859 L-244,865 L-242,865 L-241,868 L-239,868 L-238,871 L-223,880 L-208,884 L-200,885 L-189,885 L-181,882 L-177,870 L-173,867 L-165,863 L-163,860 L-163,855 L-170,849 L-172,849 L-173,846 L-175,846 L-174,840 L-169,837 L-168,831 L-171,826 L-173,823 L-173,801 L-170,795 L-172,789 L-178,783 L-177,776 L-173,773 L-168,770 L-168,764 L-176,758 L-177,757 L-177,752 L-174,751 L-168,751 L-165,747 L-166,742 L-171,738 L-173,738 L-173,732 L-166,730 L-165,725 L-169,720 L-175,716 L-175,694 L-173,691 L-173,686 L-178,682 L-179,677 L-176,666 L-174,664 L-165,662 L-163,657 L-165,651 L-165,638 L-161,629 L-163,625 L-164,615 L-166,613 L-173,612 L-174,607 L-166,595 L-163,585 L-162,583 L-162,575 L-168,570 L-172,556 L-178,548 L-180,535 L-184,531 L-190,531 L-185,523 L-180,522 L-177,525 L-173,524 L-172,517 L-174,513 L-174,507 L-171,503 L-171,495 L-175,487 L-176,483 L-176,475 L-174,471 L-174,463 L-175,455 L-173,447 L-173,442 L-181,432 L-184,430 Z M224,590 L221,594 L222,598 L225,599 L228,596 L227,591 Z " fill="#000000" transform="translate(357,109)"/>
</svg>
