<?xml version="1.0" encoding="UTF-8"?>
<!-- Generator: visioncortex VTracer 0.6.12 -->
<svg version="1.1" xmlns="http://www.w3.org/2000/svg" width="1125" height="1119">
<path d="M0,0 L1125,0 L1125,1119 L1114,1119 L1114,1117 L1119,1114 L1120,1111 L1121,1074 L1121,499 L1122,366 L1121,22 L1120,7 L1115,3 L991,4 L947,3 L938,4 L796,4 L769,5 L739,5 L736,4 L655,4 L647,5 L606,4 L586,5 L565,4 L543,4 L540,5 L274,5 L265,4 L259,5 L190,5 L171,6 L119,6 L48,5 L41,6 L17,6 L10,8 L8,13 L7,51 L6,149 L7,402 L6,524 L5,630 L5,714 L6,774 L6,970 L5,1066 L6,1112 L7,1115 L14,1117 L14,1119 L0,1119 Z " fill="#000000" transform="translate(0,0)"/>
<path d="M0,0 L52,1 L75,3 L81,4 L92,4 L100,7 L131,12 L139,15 L156,19 L166,23 L178,26 L198,34 L211,39 L221,43 L231,48 L247,56 L263,65 L274,71 L286,79 L299,88 L310,96 L315,100 L321,104 L321,106 L325,108 L336,117 L344,124 L344,126 L348,128 L356,135 L370,149 L379,160 L386,167 L394,178 L401,187 L407,192 L413,201 L424,216 L428,224 L434,233 L438,241 L443,249 L449,259 L452,266 L460,282 L465,293 L472,314 L477,327 L481,343 L485,358 L487,368 L491,387 L494,407 L495,421 L497,434 L497,477 L495,498 L494,515 L490,541 L487,554 L486,556 L484,570 L481,581 L478,592 L471,613 L465,629 L461,639 L452,659 L443,675 L435,689 L428,700 L422,711 L417,718 L413,725 L406,733 L400,742 L392,751 L384,761 L374,772 L368,779 L363,783 L356,791 L344,802 L336,808 L331,813 L320,822 L309,830 L296,840 L291,843 L281,849 L274,854 L265,859 L255,865 L239,873 L227,879 L216,884 L209,887 L182,898 L172,901 L158,906 L141,911 L131,912 L121,915 L105,918 L92,920 L79,921 L76,923 L41,925 L1,925 L-18,924 L-22,923 L-43,921 L-55,920 L-57,919 L-66,918 L-68,917 L-81,915 L-98,911 L-111,907 L-121,904 L-131,901 L-140,898 L-150,894 L-157,892 L-171,886 L-180,882 L-201,872 L-221,861 L-239,850 L-248,844 L-258,838 L-266,832 L-272,828 L-277,823 L-289,814 L-295,809 L-300,804 L-309,796 L-317,789 L-324,782 L-329,777 L-338,767 L-345,759 L-355,747 L-366,732 L-372,724 L-379,714 L-386,704 L-395,689 L-406,668 L-409,661 L-418,641 L-427,621 L-432,606 L-436,593 L-440,575 L-443,566 L-448,541 L-450,527 L-451,521 L-453,491 L-453,455 L-450,414 L-447,394 L-445,378 L-440,359 L-437,348 L-435,338 L-431,327 L-428,317 L-420,297 L-413,279 L-404,262 L-396,246 L-389,234 L-385,227 L-378,216 L-360,189 L-346,174 L-334,158 L-329,154 L-322,146 L-313,137 L-306,129 L-298,122 L-286,111 L-278,105 L-270,99 L-264,95 L-259,91 L-249,84 L-242,79 L-236,76 L-227,69 L-211,61 L-194,52 L-180,45 L-168,40 L-146,31 L-131,25 L-115,20 L-103,17 L-85,13 L-80,11 L-65,9 L-48,5 L-24,3 L-15,1 L-4,1 Z M-3,41 L-8,42 L-24,43 L-27,44 L-38,44 L-62,48 L-75,50 L-79,52 L-88,54 L-91,56 L-108,59 L-116,63 L-126,66 L-138,71 L-154,77 L-170,85 L-178,89 L-193,97 L-205,103 L-218,112 L-230,120 L-243,129 L-248,133 L-254,137 L-259,142 L-267,149 L-277,158 L-281,163 L-286,168 L-296,177 L-307,189 L-316,200 L-322,207 L-334,223 L-340,232 L-345,240 L-355,255 L-369,282 L-376,297 L-381,309 L-384,316 L-388,329 L-392,339 L-403,382 L-406,400 L-411,441 L-411,490 L-408,527 L-401,560 L-391,595 L-387,607 L-380,625 L-373,641 L-369,649 L-360,666 L-350,682 L-346,687 L-342,694 L-331,710 L-323,720 L-314,732 L-302,745 L-297,752 L-289,759 L-277,769 L-273,774 L-262,783 L-252,792 L-244,797 L-239,801 L-233,805 L-222,813 L-211,819 L-191,831 L-177,839 L-168,843 L-154,849 L-131,858 L-119,862 L-109,866 L-98,868 L-87,871 L-82,873 L-69,876 L-56,878 L-45,880 L-29,881 L-22,883 L22,885 L33,884 L59,884 L70,882 L90,880 L99,878 L103,878 L105,881 L109,880 L112,876 L126,872 L136,870 L138,869 L147,868 L154,865 L167,861 L186,853 L199,848 L215,841 L227,834 L236,830 L249,822 L258,817 L266,812 L282,800 L294,791 L304,782 L317,772 L321,767 L329,761 L336,753 L341,748 L345,743 L345,741 L350,739 L359,727 L368,717 L374,708 L382,698 L388,688 L399,671 L405,659 L410,651 L415,639 L422,624 L428,609 L438,580 L444,551 L447,540 L450,523 L451,520 L454,490 L454,445 L452,439 L452,419 L451,405 L446,375 L440,354 L433,331 L428,318 L422,301 L414,285 L411,280 L407,270 L401,259 L393,246 L386,235 L380,227 L372,216 L360,201 L350,188 L335,173 L330,168 L323,161 L318,157 L313,152 L307,147 L302,141 L289,131 L275,121 L258,109 L240,99 L231,94 L216,86 L196,77 L183,72 L176,68 L165,65 L161,62 L152,60 L144,57 L131,54 L129,53 L119,52 L109,49 L93,47 L86,45 L66,43 L62,42 L29,41 L26,42 L19,42 L15,41 Z " fill="#000000" transform="translate(541,88)"/>
<path d="M0,0 L14,0 L27,4 L38,11 L45,20 L50,29 L53,42 L53,713 L50,722 L43,731 L33,735 L20,734 L13,730 L6,722 L3,712 L2,682 L2,629 L1,576 L1,444 L0,432 L-3,427 L-8,425 L-37,424 L-42,419 L-43,411 L-43,300 L-42,242 L-42,204 L-41,140 L-41,126 L-42,86 L-41,51 L-39,34 L-34,21 L-30,16 L-21,9 L-17,5 L-5,1 Z " fill="#000000" transform="translate(646,188)"/>
<path d="M0,0 L6,1 L11,7 L12,12 L13,38 L14,45 L14,66 L15,103 L16,128 L19,134 L24,135 L27,127 L28,123 L29,18 L31,8 L34,2 L38,1 L42,5 L44,12 L47,39 L51,90 L54,113 L57,154 L58,157 L59,168 L59,197 L55,213 L44,232 L36,240 L32,245 L19,254 L13,258 L9,265 L8,269 L7,295 L7,367 L6,416 L7,542 L7,620 L8,666 L8,702 L5,718 L-1,726 L-11,731 L-22,732 L-34,726 L-40,719 L-43,708 L-44,650 L-44,552 L-45,543 L-45,278 L-47,261 L-51,257 L-69,245 L-79,235 L-85,225 L-91,213 L-94,205 L-95,197 L-95,171 L-93,136 L-92,129 L-90,98 L-87,54 L-85,35 L-83,11 L-80,4 L-75,1 L-71,5 L-70,8 L-68,36 L-68,60 L-69,67 L-68,69 L-67,88 L-66,129 L-62,136 L-57,136 L-54,128 L-52,58 L-51,23 L-49,7 L-44,2 L-43,1 L-36,1 L-31,9 L-29,46 L-27,104 L-26,121 L-24,134 L-21,137 L-15,136 L-12,129 L-11,121 L-10,46 L-9,14 L-6,6 L-2,1 Z M-9,535 L-9,539 L-7,539 L-8,535 Z " fill="#000000" transform="translate(469,191)"/>
<path d="M0,0 L2,2 L0,2 Z " fill="#000000" transform="translate(410,537)"/>
<path d="M0,0 L5,0 L6,2 L-1,2 Z " fill="#000000" transform="translate(99,1117)"/>
<path d="M0,0 L6,0 L7,2 L-2,2 Z " fill="#000000" transform="translate(138,1117)"/>
<path d="M0,0 L5,0 L6,2 L-1,2 Z " fill="#000000" transform="translate(153,1117)"/>
<path d="M0,0 L34,0 L35,2 L-1,2 Z " fill="#000000" transform="translate(192,1117)"/>
<path d="M0,0 L11,0 L16,1 L16,2 L-2,2 Z " fill="#000000" transform="translate(241,1117)"/>
<path d="M0,0 L8,1 L8,2 L-3,2 Z " fill="#000000" transform="translate(266,1117)"/>
<path d="M0,0 L8,0 L9,2 L-1,2 Z " fill="#000000" transform="translate(287,1117)"/>
<path d="M0,0 L13,0 L16,2 L-1,2 Z " fill="#000000" transform="translate(301,1117)"/>
<path d="M0,0 L3,1 L3,2 L-2,2 Z " fill="#000000" transform="translate(352,1117)"/>
<path d="M0,0 L12,0 L13,2 L-1,2 Z " fill="#000000" transform="translate(395,1117)"/>
<path d="M0,0 L10,0 L12,2 L-1,2 Z " fill="#000000" transform="translate(457,1117)"/>
<path d="M0,0 L9,0 L9,2 L-1,2 Z " fill="#000000" transform="translate(513,1117)"/>
<path d="M0,0 L5,1 L5,2 L-2,2 Z " fill="#000000" transform="translate(570,1117)"/>
<path d="M0,0 L4,1 Z " fill="#000000" transform="translate(113,1118)"/>
<path d="M0,0 L2,1 Z " fill="#000000" transform="translate(128,1118)"/>
<path d="M0,0 L5,1 L5,2 L-3,2 Z " fill="#000000" transform="translate(179,1117)"/>
<path d="M0,0 L5,0 L5,1 L0,1 Z " fill="#000000" transform="translate(477,1118)"/>
<path d="M0,0 L3,1 Z " fill="#000000" transform="translate(759,1118)"/>
<path d="M0,0 L4,1 Z " fill="#000000" transform="translate(816,1118)"/>
<path d="M0,0 L2,1 Z " fill="#000000" transform="translate(906,1118)"/>
<path d="M0,0 L5,0 L5,1 L0,1 Z " fill="#000000" transform="translate(929,1118)"/>
<path d="M0,0 L3,1 Z " fill="#000000" transform="translate(955,1118)"/>
<path d="M0,0 L2,1 Z " fill="#000000" transform="translate(1106,1118)"/>
</svg>
