<?xml version="1.0" encoding="UTF-8"?>
<!-- Generator: visioncortex VTracer 0.6.12 -->
<svg version="1.1" xmlns="http://www.w3.org/2000/svg" width="624" height="636">
<path d="M0,0 L7,1 L17,7 L28,15 L41,27 L51,36 L66,50 L71,54 L77,61 L82,66 L88,73 L96,80 L101,85 L108,93 L116,100 L125,110 L132,116 L132,118 L136,120 L140,125 L148,132 L176,160 L178,164 L178,172 L173,186 L172,196 L176,210 L182,218 L189,227 L205,242 L214,248 L221,248 L228,244 L238,233 L245,225 L254,215 L261,207 L266,203 L271,197 L277,192 L284,184 L293,174 L298,170 L303,165 L312,155 L318,147 L324,140 L329,135 L336,129 L345,118 L359,103 L367,94 L369,94 L371,90 L380,80 L388,69 L399,56 L407,47 L414,39 L421,30 L426,25 L436,13 L444,6 L449,2 L453,0 L459,0 L467,4 L473,11 L476,19 L476,39 L472,57 L466,77 L456,98 L452,105 L442,121 L433,133 L426,143 L415,156 L407,166 L401,174 L393,184 L386,192 L376,203 L367,214 L360,222 L354,227 L345,239 L337,248 L332,253 L325,261 L313,274 L305,284 L300,289 L296,294 L294,294 L292,298 L285,306 L284,313 L288,319 L293,324 L299,328 L310,338 L320,345 L333,356 L342,363 L355,374 L365,382 L377,391 L389,401 L400,410 L405,414 L414,421 L423,428 L430,436 L437,441 L443,448 L451,454 L454,459 L460,463 L467,472 L471,479 L477,488 L490,515 L491,519 L491,530 L488,539 L484,544 L476,548 L466,548 L453,545 L446,541 L436,538 L430,534 L418,526 L408,518 L392,503 L384,494 L380,489 L372,482 L367,477 L355,464 L348,456 L337,443 L330,435 L319,421 L312,414 L302,401 L291,388 L285,381 L279,373 L265,358 L252,345 L246,341 L232,338 L216,339 L210,343 L207,347 L206,357 L200,369 L193,377 L186,385 L176,396 L169,405 L164,411 L162,411 L160,415 L156,420 L150,425 L142,435 L135,444 L130,448 L123,456 L110,470 L101,481 L92,490 L84,500 L66,518 L59,526 L54,531 L37,548 L32,553 L22,562 L15,566 L6,567 L-4,562 L-14,553 L-26,541 L-29,539 L-29,537 L-31,537 L-34,532 L-35,527 L-35,517 L-29,508 L-19,497 L-12,489 L10,467 L15,461 L23,454 L40,437 L47,429 L54,421 L63,419 L65,419 L64,412 L69,406 L71,406 L73,402 L78,397 L92,382 L99,374 L105,369 L111,362 L116,357 L124,350 L133,339 L141,332 L148,325 L153,320 L161,315 L166,313 L175,311 L179,310 L181,306 L184,297 L187,288 L190,282 L190,276 L183,269 L179,263 L163,247 L157,243 L145,237 L132,236 L123,239 L108,245 L102,244 L99,242 L99,240 L95,238 L86,229 L78,222 L68,212 L60,205 L45,190 L40,185 L26,171 L20,167 L16,162 L8,155 L6,151 L2,149 L-7,140 L-12,135 L-25,123 L-30,118 L-39,108 L-47,101 L-55,91 L-63,76 L-63,70 L-61,68 L-56,68 L-43,76 L-33,86 L-25,92 L-20,97 L-8,109 L-8,111 L-5,112 L-2,117 L6,124 L16,134 L20,139 L20,141 L24,143 L29,147 L36,155 L54,173 L60,174 L62,174 L62,167 L59,161 L54,156 L46,146 L41,142 L41,140 L37,138 L33,133 L25,126 L15,117 L8,111 L2,104 L-4,99 L-9,94 L-22,81 L-31,70 L-37,62 L-43,52 L-44,47 L-41,44 L-36,45 L-19,56 L-15,61 L-10,65 L-5,70 L4,79 L9,84 L14,88 L21,96 L39,114 L45,121 L49,125 L54,130 L59,135 L68,143 L78,151 L84,150 L85,149 L84,142 L77,133 L65,120 L60,115 L34,89 L29,85 L24,79 L16,72 L3,59 L3,57 L-1,55 L-9,47 L-14,42 L-20,34 L-22,30 L-22,23 L-19,20 L-13,20 L-4,26 L6,35 L13,42 L20,47 L27,55 L41,70 L66,95 L71,100 L84,113 L84,115 L88,117 L97,125 L101,129 L106,128 L105,120 L92,104 L83,95 L78,89 L70,82 L66,77 L61,73 L61,71 L57,69 L49,62 L38,51 L33,46 L28,42 L23,37 L16,30 L9,22 L5,16 L-1,8 L-1,1 Z " fill="#000000" transform="translate(100,37)"/>
</svg>
