<?xml version="1.0" encoding="UTF-8"?>
<!-- Generator: visioncortex VTracer 0.6.12 -->
<svg version="1.1" xmlns="http://www.w3.org/2000/svg" width="1152" height="1122">
<path d="M0,0 L15,0 L10,5 L9,56 L9,83 L8,136 L8,188 L7,255 L7,280 L5,398 L5,435 L4,471 L4,532 L3,568 L3,604 L2,684 L1,746 L1,780 L0,850 L-1,887 L0,903 L-1,942 L-3,943 L-3,67 L-2,60 L-3,56 L-3,23 L-2,20 Z " fill="#000000" transform="translate(3,0)"/>
<path d="M0,0 L6,0 L5,2 L0,1 Z " fill="#000000" transform="translate(151,0)"/>
<path d="M0,0 L10,0 L10,1 L0,1 Z " fill="#000000" transform="translate(171,0)"/>
<path d="M0,0 L61,0 L58,2 L8,3 L1,2 Z " fill="#000000" transform="translate(208,0)"/>
<path d="M0,0 L20,0 L16,2 L3,2 Z " fill="#000000" transform="translate(270,0)"/>
<path d="M0,0 L850,0 L850,23 L848,19 L846,11 L839,9 L816,8 L807,9 L791,8 L743,8 L724,7 L699,7 L684,6 L675,7 L504,7 L447,6 L390,6 L357,5 L279,5 L257,4 L249,5 L226,4 L73,3 L42,3 L2,2 Z " fill="#000000" transform="translate(302,0)"/>
<path d="M0,0 L18,0 L30,3 L41,11 L63,33 L68,38 L81,49 L87,56 L95,63 L102,70 L108,74 L114,82 L119,88 L127,95 L136,106 L142,110 L149,117 L154,122 L162,129 L168,137 L177,144 L179,148 L183,150 L187,156 L193,161 L197,166 L202,170 L206,174 L214,181 L227,193 L239,204 L244,210 L244,212 L248,214 L255,222 L262,228 L269,236 L275,243 L280,246 L290,256 L298,263 L308,273 L314,278 L322,288 L334,299 L341,307 L346,312 L359,324 L368,333 L376,340 L389,353 L395,358 L400,363 L410,374 L417,380 L424,388 L434,401 L438,409 L442,415 L450,433 L455,443 L460,444 L471,440 L481,434 L487,430 L501,421 L512,414 L523,405 L533,397 L543,389 L555,377 L563,370 L573,361 L581,354 L591,345 L596,340 L607,331 L614,323 L619,318 L628,308 L634,298 L640,284 L642,272 L641,264 L640,261 L638,239 L639,224 L645,203 L654,189 L658,184 L661,179 L686,154 L694,147 L697,146 L699,142 L704,137 L716,126 L722,122 L730,115 L734,112 L736,112 L736,110 L747,102 L759,93 L772,83 L781,77 L786,72 L792,68 L803,60 L812,53 L814,53 L815,50 L825,44 L835,37 L845,30 L863,19 L877,11 L882,12 L881,19 L872,29 L858,43 L853,48 L841,61 L826,75 L814,86 L809,91 L797,103 L789,110 L783,117 L779,119 L772,127 L764,136 L762,136 L760,140 L752,146 L742,155 L737,160 L720,177 L716,179 L713,184 L714,188 L718,187 L733,177 L744,168 L759,155 L770,145 L778,138 L786,131 L788,131 L790,127 L804,114 L818,103 L820,103 L822,99 L837,87 L845,80 L857,69 L866,62 L875,54 L886,45 L896,36 L903,32 L908,32 L911,39 L908,47 L902,54 L895,59 L888,67 L880,74 L875,80 L870,85 L863,93 L855,103 L848,109 L840,119 L831,127 L829,127 L827,131 L820,139 L813,147 L797,163 L793,168 L785,175 L773,188 L768,193 L758,203 L751,212 L748,215 L747,219 L748,221 L753,221 L767,211 L777,201 L785,194 L798,182 L808,172 L814,165 L825,156 L832,149 L839,141 L851,129 L859,122 L868,114 L875,106 L883,98 L891,91 L901,82 L911,73 L920,66 L925,60 L929,57 L934,57 L936,60 L936,67 L926,81 L920,88 L913,96 L906,104 L899,112 L889,123 L882,132 L869,145 L865,151 L856,159 L847,170 L838,179 L832,187 L824,194 L815,205 L812,206 L810,210 L803,219 L793,229 L786,237 L782,239 L780,243 L776,249 L775,255 L781,255 L787,251 L797,241 L802,236 L810,229 L817,221 L828,210 L835,202 L840,197 L847,190 L854,182 L857,181 L859,177 L864,172 L873,163 L880,155 L885,150 L894,140 L899,135 L913,120 L926,106 L931,101 L936,96 L949,83 L954,83 L955,85 L955,91 L949,98 L946,103 L940,111 L931,125 L923,136 L916,145 L910,153 L904,161 L896,172 L884,189 L878,196 L872,204 L863,214 L852,229 L841,240 L832,252 L824,260 L818,268 L811,275 L803,282 L794,291 L782,300 L767,308 L756,315 L740,319 L734,320 L722,320 L717,319 L684,319 L670,323 L661,327 L652,333 L644,339 L631,349 L627,354 L614,364 L609,370 L604,374 L597,382 L586,392 L580,400 L571,410 L564,418 L556,427 L554,427 L552,431 L545,439 L536,449 L526,466 L519,477 L519,487 L523,493 L531,500 L541,511 L548,520 L556,527 L566,537 L574,544 L581,552 L586,557 L600,571 L605,575 L610,580 L618,587 L623,592 L634,605 L638,608 L638,610 L642,612 L649,619 L656,627 L661,632 L673,644 L679,651 L684,656 L689,660 L696,668 L705,679 L710,684 L717,691 L727,704 L739,717 L743,722 L743,724 L747,726 L756,738 L767,750 L779,764 L788,775 L797,785 L803,793 L811,802 L820,814 L831,828 L841,839 L851,852 L857,859 L865,870 L877,884 L886,895 L895,907 L895,909 L899,911 L907,921 L914,930 L921,938 L928,947 L936,958 L935,966 L929,975 L921,982 L909,993 L899,1003 L892,1008 L886,1007 L878,1002 L868,995 L859,986 L851,981 L844,975 L833,966 L823,957 L810,947 L805,942 L793,931 L791,930 L791,928 L787,926 L778,918 L773,913 L773,911 L769,909 L755,895 L747,888 L743,883 L737,879 L732,874 L722,865 L715,859 L710,854 L700,845 L695,840 L688,832 L680,825 L673,819 L666,811 L643,788 L638,783 L632,775 L617,760 L610,751 L603,745 L596,737 L581,721 L572,711 L569,707 L569,705 L565,703 L558,696 L551,688 L542,678 L536,670 L525,658 L515,645 L506,635 L500,624 L490,613 L483,602 L479,597 L468,581 L465,572 L459,572 L454,576 L447,584 L439,593 L435,598 L433,598 L431,602 L400,633 L393,641 L385,649 L377,656 L355,678 L350,683 L337,694 L329,702 L321,709 L307,723 L299,730 L289,741 L281,747 L265,762 L256,770 L249,776 L243,783 L236,788 L231,793 L225,798 L221,803 L213,810 L202,820 L198,824 L193,829 L181,839 L170,848 L165,853 L160,859 L158,859 L157,862 L149,868 L136,880 L125,889 L113,900 L100,913 L92,920 L78,931 L69,941 L61,947 L56,952 L45,964 L31,975 L22,984 L17,987 L11,988 L3,984 L-6,977 L-17,966 L-23,961 L-28,956 L-33,952 L-38,945 L-37,939 L-30,929 L-23,920 L-16,913 L-9,905 L0,895 L9,884 L16,877 L25,866 L34,856 L39,851 L48,840 L54,832 L62,822 L70,815 L75,811 L81,803 L89,796 L96,788 L102,780 L113,769 L122,758 L131,750 L137,741 L142,736 L152,726 L159,718 L166,711 L173,703 L183,694 L192,683 L211,664 L216,659 L223,651 L227,647 L229,647 L231,643 L236,638 L238,638 L240,634 L257,617 L262,612 L275,600 L279,595 L284,590 L294,581 L299,575 L304,570 L316,558 L323,550 L333,541 L337,537 L348,528 L353,524 L358,518 L364,513 L369,507 L380,498 L383,494 L383,488 L373,480 L357,471 L342,461 L328,449 L320,442 L312,432 L302,425 L297,421 L291,413 L285,408 L280,403 L266,389 L262,385 L257,380 L249,372 L244,367 L229,351 L213,335 L205,328 L195,319 L190,317 L185,321 L181,319 L180,318 L180,312 L182,309 L181,305 L173,298 L173,296 L169,294 L164,289 L158,284 L151,276 L144,269 L139,265 L134,260 L126,250 L118,243 L113,238 L104,230 L97,221 L92,216 L83,207 L77,203 L68,192 L58,184 L47,170 L35,157 L22,142 L16,135 L7,124 L-3,109 L-11,89 L-17,73 L-21,56 L-23,41 L-22,25 L-20,16 L-12,7 L-5,2 Z " fill="#000000" transform="translate(129,63)"/>
<path d="M0,0 L1,0 L1,18 L-1,16 L-1,1 Z " fill="#000000" transform="translate(1151,72)"/>
<path d="M0,0 L1,0 L1,1029 L-13,1029 L-10,1023 L-9,1006 L-10,931 L-10,893 L-9,827 L-9,683 L-8,609 L-7,567 L-6,463 L-5,353 L-4,283 L-3,235 L-3,168 L-2,84 L-2,58 L-1,2 Z " fill="#000000" transform="translate(1151,93)"/>
<path d="M0,0 L2,0 L2,2 L0,2 Z " fill="#000000" transform="translate(894,484)"/>
<path d="M0,0 L3,1 L0,2 Z " fill="#000000" transform="translate(385,921)"/>
<path d="M0,0 L5,2 L17,3 L98,3 L197,4 L320,5 L370,5 L384,6 L437,6 L493,7 L583,7 L607,8 L689,8 L724,9 L725,11 L0,11 Z " fill="#000000" transform="translate(0,1111)"/>
<path d="M0,0 L10,0 L10,2 L0,2 Z " fill="#000000" transform="translate(737,1120)"/>
<path d="M0,0 L9,1 L9,2 L-2,2 Z " fill="#000000" transform="translate(755,1120)"/>
<path d="M0,0 L3,1 L-1,2 Z " fill="#000000" transform="translate(841,1120)"/>
<path d="M0,0 L6,0 L6,1 L0,1 Z " fill="#000000" transform="translate(800,1121)"/>
</svg>
