<?xml version="1.0" encoding="UTF-8"?>
<!-- Generator: visioncortex VTracer 0.6.12 -->
<svg version="1.1" xmlns="http://www.w3.org/2000/svg" width="1128" height="1125">
<path d="M0,0 L516,0 L517,49 L518,61 L518,116 L519,146 L519,211 L520,232 L520,268 L521,282 L521,304 L522,331 L523,405 L524,451 L525,452 L525,460 L524,464 L524,473 L525,475 L525,1107 L521,1108 L477,1109 L457,1110 L389,1111 L379,1113 L361,1112 L319,1113 L305,1114 L265,1114 L234,1115 L226,1116 L207,1115 L196,1116 L172,1117 L166,1118 L163,1117 L119,1118 L80,1119 L30,1120 L14,1120 L5,1121 L1,1120 L-8,1120 L-12,1121 L-35,1122 L-57,1122 L-119,1123 L-137,1124 L-138,1125 L-147,1125 L-161,1123 L-161,1125 L-596,1125 L-597,1120 L-598,1082 L-598,1040 L-599,1029 L-599,994 L-600,988 L-599,967 L-599,952 L-600,939 L-600,894 L-601,815 L-603,807 L-603,773 L-602,771 L-603,757 L-602,755 L-602,746 L-603,744 L-603,13 L-598,11 L-532,11 L-513,10 L-497,10 L-492,11 L-445,11 L-436,10 L-376,9 L-369,10 L-358,9 L-305,8 L-281,7 L-247,7 L-233,8 L-221,6 L-198,6 L-179,5 L-124,5 L-109,4 L-95,4 L-36,2 L-6,1 Z M225,60 L189,63 L174,68 L162,72 L154,77 L147,81 L136,89 L129,95 L124,100 L117,107 L111,115 L105,125 L99,139 L93,154 L91,166 L90,187 L90,210 L91,256 L92,266 L93,319 L94,353 L95,443 L96,490 L96,510 L97,553 L99,584 L103,596 L109,604 L116,610 L128,615 L153,615 L169,616 L172,623 L170,649 L170,666 L168,676 L166,711 L166,724 L164,750 L161,802 L159,828 L159,839 L154,892 L154,920 L150,969 L149,989 L148,1000 L148,1030 L150,1035 L153,1038 L166,1040 L206,1039 L226,1038 L246,1038 L252,1033 L255,1025 L255,1011 L254,968 L254,950 L253,921 L252,912 L251,879 L251,861 L252,820 L251,812 L251,797 L250,774 L249,715 L249,691 L248,681 L248,660 L245,535 L244,511 L244,473 L243,416 L243,391 L242,382 L242,363 L240,284 L240,237 L237,83 L235,67 L230,61 Z M-83,94 L-92,95 L-98,100 L-99,102 L-100,137 L-101,160 L-101,169 L-102,175 L-102,190 L-103,230 L-104,237 L-104,298 L-105,343 L-106,355 L-109,360 L-117,361 L-126,361 L-129,362 L-136,362 L-139,361 L-142,348 L-143,338 L-144,308 L-146,291 L-146,267 L-149,231 L-150,199 L-152,170 L-153,137 L-156,104 L-158,100 L-164,96 L-180,96 L-188,100 L-191,107 L-192,111 L-192,144 L-193,206 L-193,232 L-194,265 L-195,299 L-195,326 L-196,357 L-199,362 L-227,363 L-231,360 L-233,350 L-235,301 L-236,265 L-239,215 L-241,182 L-243,131 L-245,112 L-247,102 L-251,99 L-272,99 L-277,104 L-279,115 L-280,152 L-280,175 L-282,263 L-282,307 L-283,348 L-284,361 L-287,364 L-296,365 L-314,365 L-318,361 L-320,357 L-323,309 L-326,254 L-327,221 L-328,214 L-330,177 L-333,135 L-335,113 L-338,105 L-344,100 L-358,100 L-365,103 L-369,110 L-370,139 L-371,146 L-373,199 L-374,213 L-376,271 L-377,294 L-378,303 L-379,342 L-377,375 L-372,400 L-365,418 L-359,430 L-350,444 L-341,456 L-337,461 L-332,466 L-317,480 L-310,486 L-303,490 L-296,495 L-283,501 L-272,506 L-263,508 L-257,511 L-248,513 L-244,517 L-243,521 L-244,593 L-245,604 L-247,698 L-249,752 L-250,809 L-252,869 L-253,926 L-253,944 L-254,976 L-254,1042 L-251,1048 L-248,1050 L-239,1051 L-216,1051 L-163,1049 L-149,1047 L-145,1043 L-144,1040 L-144,1012 L-146,984 L-147,962 L-149,943 L-151,892 L-152,882 L-154,846 L-157,814 L-159,770 L-161,750 L-162,722 L-165,680 L-166,669 L-166,660 L-168,638 L-170,607 L-172,568 L-173,564 L-174,545 L-174,520 L-172,513 L-163,509 L-156,506 L-147,504 L-131,495 L-123,489 L-112,483 L-96,468 L-87,460 L-78,448 L-69,435 L-60,415 L-54,401 L-51,390 L-48,371 L-47,361 L-47,341 L-48,312 L-50,299 L-54,244 L-55,223 L-56,216 L-57,197 L-59,174 L-60,152 L-62,143 L-64,103 L-67,97 L-71,94 Z M-571,370 L-572,374 L-568,373 L-568,370 Z M-575,377 L-576,381 L-566,386 L-564,382 L-572,377 Z " fill="#000000" transform="translate(603,0)"/>
</svg>
