<?xml version="1.0" encoding="UTF-8"?>
<!-- Generator: visioncortex VTracer 0.6.12 -->
<svg version="1.1" xmlns="http://www.w3.org/2000/svg" width="1140" height="1146">
<path d="M0,0 L29,0 L28,2 L18,3 L13,7 L12,17 L10,72 L10,109 L9,178 L7,258 L6,320 L5,341 L4,404 L3,481 L1,573 L0,658 L-2,762 L-2,794 L-3,886 L-5,892 L-6,892 L-6,255 L-5,245 L-4,169 L-3,114 L-3,98 L-1,16 Z " fill="#000000" transform="translate(6,0)"/>
<path d="M0,0 L2,1 Z " fill="#000000" transform="translate(201,0)"/>
<path d="M0,0 L13,0 L13,1 L0,1 Z " fill="#000000" transform="translate(226,0)"/>
<path d="M0,0 L893,0 L893,11 L889,9 L866,8 L831,7 L759,6 L737,6 L655,5 L418,4 L137,3 L86,2 L21,2 L0,1 Z " fill="#000000" transform="translate(247,0)"/>
<path d="M0,0 L9,0 L19,2 L28,7 L36,13 L42,18 L50,28 L59,44 L67,69 L70,75 L77,79 L80,80 L88,80 L108,73 L117,72 L134,74 L148,81 L158,92 L162,104 L163,116 L161,128 L159,133 L159,143 L165,147 L199,160 L212,165 L220,170 L225,176 L231,187 L237,197 L244,212 L247,224 L254,233 L263,243 L272,258 L278,269 L284,281 L290,291 L304,314 L318,338 L331,362 L341,378 L349,393 L354,402 L362,416 L369,428 L373,435 L381,449 L387,460 L402,486 L408,497 L418,513 L424,524 L431,536 L437,548 L442,555 L446,563 L457,582 L466,597 L470,604 L476,614 L482,626 L490,640 L496,650 L506,667 L514,682 L514,689 L509,693 L496,700 L483,708 L469,715 L445,729 L428,739 L412,748 L393,759 L376,769 L355,781 L337,791 L317,802 L312,803 L307,799 L300,786 L295,778 L286,762 L276,744 L270,734 L256,710 L245,691 L237,678 L233,670 L220,648 L215,643 L211,636 L209,628 L195,603 L182,580 L176,569 L165,552 L154,529 L142,509 L129,486 L122,473 L119,469 L113,457 L100,435 L86,411 L81,402 L75,392 L71,384 L65,374 L53,353 L43,335 L35,321 L21,297 L17,287 L17,229 L15,222 L6,218 L-1,215 L-11,208 L-19,195 L-22,184 L-22,171 L-19,159 L-13,149 L-7,141 L2,132 L6,125 L6,113 L3,108 L-6,99 L-11,94 L-20,83 L-28,66 L-31,56 L-32,47 L-32,36 L-30,24 L-24,14 L-18,7 L-8,1 Z M133,154 L110,167 L92,178 L79,186 L68,192 L46,205 L36,212 L33,216 L31,228 L30,239 L29,267 L29,287 L34,299 L44,316 L54,333 L58,341 L62,348 L74,369 L86,390 L95,406 L101,416 L107,428 L119,448 L129,466 L137,481 L143,491 L155,511 L159,519 L164,529 L173,544 L184,563 L187,568 L201,592 L210,608 L216,618 L223,630 L227,638 L233,648 L239,657 L244,667 L251,678 L260,694 L265,703 L275,720 L281,729 L293,751 L300,762 L306,773 L314,784 L321,785 L337,777 L354,767 L376,755 L389,747 L400,741 L415,732 L421,729 L435,721 L458,708 L470,701 L485,692 L494,686 L496,682 L495,674 L483,651 L479,645 L474,636 L468,626 L462,615 L452,597 L446,587 L435,567 L429,557 L413,529 L404,514 L397,502 L386,483 L376,465 L368,452 L364,444 L358,435 L352,424 L340,403 L327,380 L319,366 L313,356 L305,342 L299,331 L285,307 L276,292 L268,278 L260,265 L253,253 L240,230 L228,210 L223,201 L211,181 L200,175 L184,169 L169,163 L153,157 L145,154 Z " fill="#000000" transform="translate(301,185)"/>
<path d="M0,0 L1,0 L1,10 L0,10 L-1,3 Z " fill="#000000" transform="translate(1139,241)"/>
<path d="M0,0 L1,0 L1,447 L0,453 L-2,573 L-4,681 L-5,749 L-5,776 L-6,856 L-7,884 L-8,888 L-22,888 L-21,885 L-18,882 L-17,876 L-16,860 L-15,730 L-14,649 L-13,624 L-11,499 L-6,260 L-5,204 L-3,114 L-2,47 L-1,2 Z " fill="#000000" transform="translate(1139,258)"/>
<path d="M0,0 L11,3 L58,5 L94,7 L201,10 L275,11 L317,13 L386,14 L437,15 L547,17 L563,17 L641,19 L714,20 L737,20 L786,21 L1008,23 L1040,24 L1043,26 L434,26 L432,25 L410,24 L394,24 L258,21 L227,20 L202,20 L184,19 L148,18 L110,17 L0,16 Z " fill="#000000" transform="translate(0,1120)"/>
<path d="M0,0 L4,1 L4,2 L-2,2 Z " fill="#000000" transform="translate(1091,1144)"/>
<path d="M0,0 L9,0 L9,1 L0,1 Z " fill="#000000" transform="translate(1047,1145)"/>
<path d="M0,0 L9,0 L9,1 L0,1 Z " fill="#000000" transform="translate(1063,1145)"/>
</svg>
