<?xml version="1.0" encoding="UTF-8"?>
<!-- Generator: visioncortex VTracer 0.6.12 -->
<svg version="1.1" xmlns="http://www.w3.org/2000/svg" width="1110" height="1236">
<path d="M0,0 L26,0 L45,1 L60,1 L79,0 L89,1 L108,0 L132,0 L137,1 L192,1 L200,2 L203,6 L204,70 L204,111 L205,154 L206,225 L206,308 L207,354 L207,444 L208,461 L208,552 L209,570 L209,603 L210,674 L210,725 L209,738 L210,750 L210,840 L211,872 L211,889 L212,912 L211,929 L212,963 L212,1018 L208,1026 L206,1027 L195,1027 L186,1028 L175,1027 L121,1027 L77,1026 L27,1026 L-7,1025 L-53,1026 L-73,1025 L-311,1025 L-317,1024 L-327,1025 L-334,1024 L-338,1025 L-355,1025 L-371,1024 L-392,1024 L-399,1023 L-403,1024 L-418,1024 L-432,1025 L-499,1024 L-819,1024 L-823,1021 L-824,1018 L-825,1002 L-825,956 L-826,930 L-826,850 L-827,814 L-828,791 L-828,781 L-829,767 L-830,670 L-830,366 L-829,342 L-830,205 L-829,163 L-829,35 L-828,12 L-821,8 L-791,7 L-782,8 L-768,7 L-724,7 L-721,6 L-696,7 L-692,6 L-674,6 L-666,5 L-660,6 L-645,5 L-596,5 L-568,4 L-541,4 L-449,3 L-440,2 L-434,3 L-420,3 L-386,2 L-376,3 L-374,2 L-330,3 L-322,2 L-237,2 L-229,3 L-225,2 L-177,1 L-117,1 L-108,2 L-84,1 L-17,1 Z M-51,39 L-63,40 L-139,40 L-185,41 L-190,40 L-242,41 L-248,42 L-260,41 L-314,41 L-322,42 L-413,42 L-456,43 L-556,43 L-578,44 L-601,44 L-610,43 L-635,44 L-659,44 L-668,45 L-689,45 L-695,44 L-706,46 L-730,46 L-743,50 L-754,56 L-767,69 L-773,79 L-778,88 L-781,104 L-782,117 L-783,179 L-783,410 L-784,419 L-783,432 L-783,581 L-782,606 L-783,622 L-783,723 L-782,734 L-783,738 L-783,901 L-782,923 L-780,932 L-776,942 L-771,951 L-764,960 L-758,964 L-755,969 L-753,971 L-743,975 L-734,978 L-719,982 L-581,982 L-577,983 L-555,982 L-548,983 L-537,983 L-532,982 L-528,983 L-351,983 L-341,982 L-339,983 L-305,983 L-285,984 L-228,984 L-211,983 L-206,982 L-204,983 L-147,984 L-128,983 L-82,984 L-69,983 L-43,983 L31,984 L89,984 L102,982 L115,981 L127,977 L136,970 L145,962 L153,951 L158,941 L161,932 L164,911 L162,847 L161,730 L160,651 L159,639 L159,584 L158,496 L158,441 L157,392 L156,363 L156,295 L155,223 L155,202 L154,175 L155,171 L155,164 L154,154 L153,113 L152,94 L148,82 L143,72 L135,60 L123,49 L106,41 L96,39 L-2,39 L-11,40 L-22,39 Z " fill="#000000" transform="translate(865,37)"/>
<path d="M0,0 L16,0 L26,4 L37,14 L42,25 L45,34 L45,62 L40,67 L33,77 L31,82 L33,92 L40,100 L47,104 L60,109 L73,113 L90,120 L99,131 L102,138 L105,150 L107,155 L110,174 L113,187 L117,208 L119,220 L123,239 L125,254 L127,286 L129,305 L130,331 L126,340 L125,352 L123,363 L122,370 L116,378 L107,385 L102,384 L101,382 L101,372 L93,372 L92,370 L92,356 L95,336 L94,324 L92,311 L87,282 L86,280 L84,264 L81,251 L80,242 L77,243 L78,269 L79,285 L82,299 L87,334 L89,349 L85,363 L84,369 L84,628 L87,635 L94,642 L102,647 L109,656 L107,660 L102,662 L95,662 L80,660 L63,655 L55,654 L47,651 L44,648 L40,629 L38,622 L36,585 L33,548 L32,542 L31,508 L29,492 L27,478 L26,476 L24,460 L20,440 L19,428 L17,424 L15,412 L12,411 L9,420 L5,451 L3,461 L0,484 L-2,512 L-3,525 L-4,553 L-6,586 L-7,616 L-10,634 L-11,647 L-14,653 L-32,657 L-48,660 L-56,662 L-67,663 L-75,660 L-76,656 L-69,648 L-55,635 L-53,625 L-55,569 L-56,514 L-58,453 L-59,422 L-59,407 L-60,380 L-62,362 L-64,356 L-64,344 L-63,341 L-61,320 L-57,290 L-56,283 L-55,259 L-55,240 L-57,239 L-60,250 L-62,264 L-65,283 L-69,304 L-72,326 L-72,338 L-70,344 L-67,366 L-70,371 L-76,372 L-76,382 L-78,385 L-83,385 L-88,381 L-94,376 L-98,369 L-98,361 L-101,344 L-103,337 L-106,332 L-106,310 L-105,305 L-103,267 L-101,238 L-97,222 L-96,214 L-93,198 L-89,177 L-87,163 L-83,145 L-81,138 L-75,127 L-70,123 L-59,117 L-56,115 L-43,111 L-36,108 L-30,106 L-20,102 L-16,97 L-13,91 L-13,79 L-18,69 L-25,61 L-26,53 L-26,35 L-24,26 L-20,16 L-11,6 L-5,3 Z " fill="#000000" transform="translate(760,255)"/>
<path d="M0,0 L30,0 L34,2 L35,5 L35,42 L36,57 L36,209 L37,223 L37,328 L38,340 L38,390 L39,530 L39,603 L40,636 L40,651 L39,659 L36,662 L10,663 L5,661 L2,658 L1,641 L1,623 L0,563 L0,546 L-1,499 L-2,408 L-2,368 L-3,295 L-3,196 L-4,161 L-4,130 L-3,121 L-4,116 L-4,6 Z " fill="#000000" transform="translate(520,258)"/>
<path d="M0,0 L7,0 L17,2 L28,9 L36,21 L37,22 L37,31 L40,34 L41,46 L39,60 L34,71 L24,82 L23,89 L27,95 L40,103 L57,111 L63,115 L68,118 L71,123 L75,134 L79,156 L83,186 L86,200 L88,217 L92,247 L93,258 L92,314 L88,326 L88,354 L84,363 L81,369 L71,375 L70,377 L70,401 L71,415 L69,421 L67,422 L53,423 L50,426 L48,434 L47,444 L47,465 L49,490 L49,501 L46,524 L42,540 L37,561 L35,566 L34,574 L34,592 L36,602 L40,619 L40,631 L36,636 L33,637 L21,637 L14,631 L11,621 L10,614 L10,587 L12,581 L12,553 L10,540 L9,529 L7,519 L5,496 L6,475 L6,445 L4,433 L2,431 L0,431 L-2,450 L-3,460 L0,486 L0,514 L-4,538 L-5,554 L-6,566 L-5,580 L-3,586 L-3,620 L-5,630 L-10,635 L-16,637 L-25,637 L-31,633 L-33,631 L-33,622 L-28,601 L-26,585 L-27,570 L-34,545 L-36,535 L-40,519 L-41,513 L-42,485 L-41,455 L-42,440 L-45,426 L-48,423 L-60,422 L-65,417 L-65,381 L-66,375 L-70,373 L-77,367 L-84,353 L-84,336 L-85,322 L-89,314 L-89,250 L-86,223 L-83,202 L-81,191 L-79,174 L-75,147 L-73,134 L-70,126 L-67,120 L-59,113 L-44,106 L-32,99 L-24,95 L-21,91 L-22,84 L-34,70 L-39,59 L-40,56 L-40,39 L-37,27 L-33,17 L-22,5 L-16,2 Z M15,27 L13,29 L13,32 L17,33 L19,32 L18,27 Z M-47,208 L-50,211 L-53,235 L-55,254 L-56,258 L-57,275 L-59,284 L-60,298 L-63,320 L-63,325 L-58,326 L-56,321 L-54,306 L-51,286 L-50,283 L-48,266 L-45,252 L-39,240 L-38,231 L-42,215 L-45,208 Z M47,213 L43,221 L42,227 L42,237 L45,246 L48,254 L50,264 L53,280 L55,297 L57,303 L60,319 L64,321 L65,316 L64,307 L62,298 L61,283 L59,276 L58,259 L57,257 L56,242 L53,226 L52,216 L50,213 Z " fill="#000000" transform="translate(314,283)"/>
<path d="M0,0 L12,0 L22,2 L32,10 L38,19 L38,26 L36,28 L29,28 L22,20 L22,18 L17,16 L14,14 L0,14 L-8,18 L-14,26 L-17,41 L-15,58 L-7,69 L0,72 L13,72 L19,69 L25,62 L30,52 L31,51 L36,51 L39,55 L38,65 L33,73 L24,81 L18,84 L12,85 L-7,84 L-17,79 L-24,71 L-28,63 L-31,50 L-31,36 L-26,21 L-20,12 L-11,3 L-6,1 Z " fill="#000000" transform="translate(100,1118)"/>
<path d="M0,0 L11,0 L20,2 L29,6 L38,17 L43,26 L45,43 L43,55 L36,69 L29,77 L16,84 L7,85 L-2,85 L-12,82 L-23,73 L-28,66 L-32,56 L-33,46 L-33,36 L-31,27 L-24,13 L-17,7 L-9,3 Z M0,12 L-7,15 L-14,21 L-17,27 L-19,38 L-19,52 L-15,60 L-12,66 L-5,70 L7,73 L13,72 L24,64 L28,57 L31,44 L30,34 L26,22 L19,14 L14,12 Z " fill="#000000" transform="translate(260,1118)"/>
<path d="M0,0 L6,0 L10,3 L11,8 L11,75 L9,82 L6,83 L-1,83 L-3,81 L-4,76 L-5,41 L-4,4 Z " fill="#000000" transform="translate(41,1120)"/>
<path d="M0,0 L7,2 L13,9 L21,33 L24,42 L29,53 L37,76 L36,81 L33,83 L27,82 L22,73 L18,63 L18,61 L8,59 L-10,59 L-14,63 L-18,72 L-23,82 L-25,83 L-32,83 L-35,79 L-32,67 L-24,52 L-23,45 L-18,35 L-11,15 L-7,6 L-3,1 Z M0,24 L-2,26 L-7,41 L-6,44 L-1,47 L5,47 L9,43 L8,34 L5,26 Z " fill="#000000" transform="translate(182,1120)"/>
</svg>
