<?xml version="1.0" encoding="UTF-8"?>
<!-- Generator: visioncortex VTracer 0.6.12 -->
<svg version="1.1" xmlns="http://www.w3.org/2000/svg" width="1164" height="1239">
<path d="M0,0 L70,0 L137,1 L144,0 L228,1 L640,1 L649,2 L885,2 L985,3 L1069,3 L1074,6 L1075,8 L1075,306 L1074,357 L1074,603 L1073,681 L1073,769 L1072,833 L1070,836 L1071,843 L1072,845 L1072,959 L1071,1066 L1070,1113 L1068,1120 L1066,1121 L988,1121 L973,1120 L910,1121 L805,1121 L755,1120 L574,1119 L550,1120 L517,1119 L434,1119 L428,1120 L422,1119 L393,1119 L361,1118 L347,1119 L305,1118 L299,1117 L295,1118 L186,1118 L176,1117 L60,1117 L-55,1116 L-64,1114 L-66,1110 L-67,1076 L-67,929 L-66,815 L-66,729 L-67,681 L-67,639 L-68,600 L-68,507 L-67,480 L-67,433 L-66,361 L-66,303 L-65,114 L-65,51 L-64,16 L-63,5 L-60,2 L-57,1 Z M273,39 L262,40 L204,40 L169,41 L53,41 L43,43 L36,46 L24,52 L11,63 L3,73 L-5,87 L-8,95 L-10,114 L-10,584 L-9,637 L-9,709 L-8,751 L-8,945 L-7,957 L-7,1007 L-4,1025 L1,1037 L8,1048 L19,1060 L28,1066 L35,1070 L50,1075 L58,1077 L89,1077 L110,1076 L163,1077 L182,1077 L230,1076 L272,1077 L305,1077 L344,1076 L415,1076 L496,1077 L501,1076 L685,1076 L708,1077 L733,1077 L804,1078 L839,1079 L859,1078 L864,1079 L881,1080 L951,1080 L965,1078 L987,1068 L1002,1054 L1010,1042 L1014,1032 L1017,1018 L1018,1010 L1019,966 L1019,938 L1020,856 L1020,833 L1021,773 L1021,701 L1022,495 L1022,141 L1021,100 L1018,91 L1014,79 L1010,74 L1006,68 L999,61 L994,56 L977,46 L967,42 L954,40 L942,41 L894,41 L886,40 L762,40 L751,39 L728,40 L624,40 L616,39 L604,40 L359,40 L324,41 L316,40 L284,40 L281,39 Z M1032,155 L1027,159 L1027,164 L1032,165 L1036,160 L1035,156 Z " fill="#000000" transform="translate(77,36)"/>
<path d="M0,0 L9,0 L15,3 L27,14 L38,27 L43,34 L48,39 L60,53 L71,65 L81,76 L87,84 L94,92 L99,97 L110,108 L115,114 L120,119 L131,129 L137,137 L145,144 L150,150 L158,156 L166,164 L171,168 L176,173 L192,188 L208,201 L216,208 L223,215 L232,222 L242,231 L247,236 L262,249 L270,257 L281,266 L286,270 L292,277 L299,283 L304,288 L321,304 L334,315 L339,320 L349,329 L356,335 L362,336 L370,329 L379,318 L384,309 L391,302 L401,295 L407,290 L417,283 L426,278 L431,273 L444,263 L450,259 L453,256 L459,253 L463,248 L474,239 L485,226 L489,219 L492,210 L495,185 L498,172 L506,156 L515,145 L524,135 L535,123 L540,118 L549,108 L560,96 L565,91 L575,81 L577,81 L579,76 L601,54 L608,45 L613,41 L620,33 L635,17 L642,9 L646,9 L645,15 L641,21 L636,26 L627,36 L619,46 L612,54 L605,62 L597,73 L581,90 L578,93 L576,93 L574,98 L565,108 L560,113 L551,123 L543,132 L539,137 L535,141 L532,147 L532,153 L534,156 L541,155 L550,147 L559,136 L564,131 L578,116 L587,105 L611,81 L618,73 L627,63 L634,55 L641,47 L651,38 L660,30 L661,34 L658,39 L653,44 L645,53 L637,64 L630,72 L622,82 L616,90 L611,95 L602,106 L597,111 L588,121 L579,132 L568,144 L557,158 L552,164 L553,171 L555,173 L560,172 L569,165 L578,155 L580,152 L582,152 L584,148 L589,143 L602,129 L611,117 L613,117 L615,113 L635,93 L642,85 L648,80 L655,72 L669,57 L674,52 L678,53 L676,58 L668,68 L661,77 L656,81 L650,89 L638,103 L625,117 L619,125 L612,133 L607,138 L601,145 L593,155 L583,166 L575,176 L572,179 L571,188 L574,191 L581,188 L591,179 L598,172 L605,164 L610,159 L620,149 L627,141 L636,130 L645,121 L650,116 L655,109 L663,103 L670,95 L679,85 L685,78 L690,73 L697,65 L701,64 L702,67 L698,73 L688,85 L679,96 L672,104 L663,115 L654,126 L641,140 L635,148 L626,159 L619,167 L614,172 L608,179 L603,183 L601,183 L599,188 L591,197 L586,201 L579,209 L568,219 L560,223 L552,226 L535,229 L514,233 L501,240 L491,251 L489,251 L487,256 L478,266 L472,275 L463,291 L456,302 L451,311 L444,324 L437,334 L430,345 L422,351 L416,353 L414,357 L407,364 L404,369 L404,376 L411,386 L419,393 L426,399 L433,409 L442,419 L453,428 L462,438 L470,445 L485,458 L492,465 L501,472 L507,479 L518,488 L528,497 L536,504 L545,512 L556,521 L565,530 L573,537 L583,543 L588,548 L598,556 L609,565 L619,573 L629,582 L637,589 L650,601 L660,610 L668,617 L673,622 L673,624 L677,626 L684,633 L691,641 L699,650 L710,668 L719,687 L723,702 L724,715 L724,726 L719,731 L717,732 L703,732 L687,730 L676,726 L666,722 L655,716 L645,709 L634,701 L628,696 L624,691 L616,684 L604,672 L597,664 L593,659 L588,654 L577,642 L568,630 L559,619 L549,608 L538,594 L527,581 L519,571 L514,565 L511,559 L506,556 L497,547 L492,542 L485,534 L472,520 L465,512 L455,502 L450,497 L447,494 L447,492 L443,490 L432,478 L422,468 L414,461 L406,455 L397,454 L389,457 L381,465 L378,467 L370,466 L360,459 L348,449 L344,446 L338,446 L325,459 L316,471 L311,476 L303,486 L294,497 L285,509 L280,514 L269,527 L265,533 L258,540 L251,550 L246,555 L239,563 L231,573 L218,589 L209,600 L202,608 L197,614 L190,622 L181,632 L177,638 L164,654 L156,664 L147,674 L141,681 L136,686 L129,694 L115,705 L108,711 L92,719 L77,724 L70,726 L52,727 L46,724 L43,719 L43,700 L45,689 L50,675 L59,659 L67,648 L74,639 L86,625 L100,610 L104,605 L112,598 L119,591 L124,586 L132,577 L136,573 L144,566 L159,550 L168,541 L173,536 L185,525 L207,503 L214,495 L222,488 L227,482 L235,475 L243,465 L251,458 L257,451 L262,446 L271,437 L275,432 L283,425 L295,412 L295,405 L292,400 L284,393 L269,379 L252,362 L245,356 L238,348 L228,339 L223,334 L199,310 L199,308 L195,306 L179,289 L174,284 L173,281 L169,279 L165,273 L160,268 L154,261 L148,256 L139,245 L126,231 L122,225 L115,218 L104,204 L93,192 L87,184 L78,174 L70,163 L62,155 L53,143 L49,138 L45,132 L38,124 L26,108 L14,92 L4,79 L1,74 L-8,59 L-13,48 L-16,37 L-16,25 L-13,15 L-5,4 Z " fill="#000000" transform="translate(199,236)"/>
<path d="M0,0 L4,1 L3,5 L-1,4 Z " fill="#000000" transform="translate(839,1202)"/>
</svg>
