<?xml version="1.0" encoding="UTF-8"?>
<!-- Generator: visioncortex VTracer 0.6.12 -->
<svg version="1.1" xmlns="http://www.w3.org/2000/svg" width="1128" height="1122">
<path d="M0,0 L592,0 L591,2 L573,3 L444,3 L363,4 L266,4 L230,5 L153,6 L110,6 L58,7 L9,7 L4,10 L2,17 L0,18 Z " fill="#000000" transform="translate(0,0)"/>
<path d="M0,0 L19,0 L17,2 L2,2 Z " fill="#000000" transform="translate(599,0)"/>
<path d="M0,0 L13,0 L11,2 L3,2 Z " fill="#000000" transform="translate(627,0)"/>
<path d="M0,0 L5,0 L4,2 L0,1 Z " fill="#000000" transform="translate(733,0)"/>
<path d="M0,0 L3,1 Z " fill="#000000" transform="translate(778,0)"/>
<path d="M0,0 L6,0 L3,2 Z " fill="#000000" transform="translate(899,0)"/>
<path d="M0,0 L7,0 L7,1 L0,1 Z " fill="#000000" transform="translate(924,0)"/>
<path d="M0,0 L6,0 L6,1 L0,1 Z " fill="#000000" transform="translate(940,0)"/>
<path d="M0,0 L8,0 L8,643 L7,643 L6,636 L5,589 L5,443 L4,184 L4,10 L2,4 Z " fill="#000000" transform="translate(1120,0)"/>
<path d="M0,0 Z " fill="#000000" transform="translate(0,31)"/>
<path d="M0,0 L6,1 L8,8 L9,130 L9,369 L10,428 L11,567 L11,619 L12,761 L12,946 L10,952 L9,953 L-44,954 L-49,951 L-50,948 L-51,888 L-51,835 L-52,778 L-52,743 L-53,599 L-54,496 L-57,489 L-64,486 L-74,487 L-92,486 L-96,482 L-97,441 L-97,409 L-98,359 L-98,107 L-96,86 L-92,70 L-84,54 L-78,44 L-71,36 L-64,28 L-53,19 L-35,9 L-23,4 L-10,3 Z " fill="#000000" transform="translate(785,68)"/>
<path d="M0,0 L4,1 L9,7 L11,11 L12,163 L15,174 L18,177 L24,176 L27,173 L28,170 L29,153 L29,14 L33,5 L38,0 L43,1 L47,7 L48,12 L49,98 L49,158 L51,173 L53,176 L60,176 L64,172 L66,161 L67,11 L69,6 L74,0 L79,1 L86,9 L87,20 L88,85 L88,182 L86,204 L82,217 L76,229 L65,242 L60,248 L53,253 L51,256 L50,288 L50,421 L51,897 L49,903 L46,905 L-4,906 L-8,902 L-9,899 L-10,859 L-10,707 L-11,483 L-11,450 L-12,315 L-12,265 L-15,254 L-28,242 L-36,232 L-40,224 L-42,217 L-46,208 L-47,202 L-47,159 L-48,78 L-47,12 L-44,6 L-40,1 L-35,1 L-28,7 L-26,12 L-25,21 L-25,132 L-24,169 L-22,174 L-18,177 L-13,177 L-9,171 L-8,168 L-7,10 L-3,2 Z " fill="#000000" transform="translate(400,120)"/>
<path d="M0,0 L1,4 Z " fill="#000000" transform="translate(0,467)"/>
<path d="M0,0 L2,1 L1,6 L0,6 Z " fill="#000000" transform="translate(0,482)"/>
<path d="M0,0 L2,3 L1,10 L0,10 Z " fill="#000000" transform="translate(0,567)"/>
<path d="M0,0 L1,0 L1,10 L0,10 Z " fill="#000000" transform="translate(0,607)"/>
<path d="M0,0 L2,2 L1,9 L0,9 Z " fill="#000000" transform="translate(0,626)"/>
<path d="M0,0 L1,0 L3,12 L3,27 L2,48 L2,103 L3,125 L3,227 L4,446 L5,463 L7,469 L9,470 L258,470 L264,471 L267,470 L329,469 L517,469 L572,468 L623,468 L626,469 L628,468 L1005,468 L1066,467 L1113,467 L1123,466 L1128,464 L1128,475 L1121,474 L1070,474 L1017,475 L866,475 L852,474 L828,475 L763,475 L754,474 L750,475 L736,475 L709,474 L704,473 L701,474 L668,474 L637,475 L628,474 L624,474 L620,475 L617,474 L593,475 L552,475 L506,476 L499,475 L443,475 L439,473 L433,474 L431,475 L384,476 L215,476 L182,477 L154,476 L98,477 L20,477 L7,478 L0,479 Z " fill="#000000" transform="translate(0,641)"/>
</svg>
