<?xml version="1.0" encoding="UTF-8"?>
<!-- Generator: visioncortex VTracer 0.6.12 -->
<svg version="1.1" xmlns="http://www.w3.org/2000/svg" width="1107" height="555">
<path d="M0,0 L8,0 L28,2 L38,6 L49,13 L54,21 L62,36 L64,41 L64,52 L61,55 L57,56 L-20,57 L-113,57 L-127,58 L-250,58 L-271,56 L-280,54 L-281,47 L-277,39 L-271,32 L-269,32 L-268,29 L-260,22 L-249,14 L-228,7 L-212,7 L-197,10 L-187,14 L-176,20 L-170,25 L-162,25 L-152,17 L-143,11 L-128,6 L-118,3 L-109,2 L-99,2 L-84,4 L-70,9 L-59,16 L-49,25 L-44,26 L-38,23 L-29,12 L-23,8 L-14,4 L-4,3 Z " fill="#000000" transform="translate(297,29)"/>
<path d="M0,0 L9,0 L14,4 L16,10 L17,73 L18,89 L21,95 L19,99 L17,100 L7,101 L-83,103 L-91,101 L-94,96 L-95,89 L-95,7 L-92,3 L-88,2 L-66,1 L-21,1 Z " fill="#000000" transform="translate(1015,59)"/>
<path d="M0,0 L65,0 L70,3 L73,10 L74,33 L74,88 L71,96 L68,99 L60,101 L8,101 L-37,102 L-54,102 L-60,100 L-63,96 L-64,87 L-65,47 L-65,26 L-64,9 L-61,4 L-54,1 L-7,1 Z " fill="#000000" transform="translate(836,62)"/>
<path d="M0,0 L8,0 L14,4 L15,6 L16,21 L16,38 L17,83 L15,94 L10,99 L-7,101 L-32,102 L-100,102 L-104,99 L-105,96 L-106,64 L-107,43 L-107,25 L-106,8 L-104,4 L-99,2 L-80,1 L-42,1 Z " fill="#000000" transform="translate(745,64)"/>
<path d="M0,0 L23,0 L28,3 L30,6 L32,26 L33,64 L33,86 L31,96 L26,100 L23,101 L-74,103 L-89,103 L-93,100 L-94,79 L-94,13 L-93,6 L-88,2 L-62,1 L-33,1 Z " fill="#000000" transform="translate(596,67)"/>
<path d="M0,0 L98,0 L103,4 L105,20 L105,46 L104,66 L105,100 L106,143 L107,159 L109,167 L113,169 L121,170 L154,170 L159,169 L205,167 L213,167 L218,169 L221,176 L222,181 L223,198 L220,203 L216,205 L199,208 L196,211 L194,222 L194,243 L195,259 L195,268 L197,278 L200,281 L203,282 L240,282 L246,281 L248,270 L248,217 L250,212 L254,209 L259,208 L270,208 L284,207 L328,206 L347,206 L369,207 L374,211 L375,213 L376,238 L377,274 L379,277 L384,276 L385,272 L385,212 L388,207 L390,206 L402,205 L432,204 L468,204 L485,203 L498,203 L503,206 L506,212 L506,250 L507,274 L510,279 L514,281 L519,280 L520,275 L519,234 L519,214 L520,207 L523,204 L532,202 L565,201 L609,201 L617,200 L645,200 L651,203 L654,210 L655,273 L658,280 L665,280 L668,277 L666,232 L667,204 L670,201 L673,200 L685,199 L701,199 L708,198 L771,198 L777,203 L778,230 L778,255 L780,272 L783,277 L851,277 L851,351 L844,357 L837,365 L830,372 L823,380 L820,381 L818,386 L809,396 L802,405 L796,410 L789,419 L784,422 L780,423 L731,423 L667,424 L646,424 L612,425 L570,425 L533,426 L517,426 L512,427 L506,426 L441,427 L369,428 L322,429 L225,430 L183,431 L151,431 L84,432 L38,433 L-34,433 L-39,430 L-47,422 L-51,417 L-56,412 L-60,409 L-60,407 L-64,405 L-71,397 L-77,392 L-84,384 L-88,379 L-96,372 L-111,357 L-119,350 L-124,344 L-132,337 L-141,329 L-148,321 L-160,309 L-168,302 L-170,299 L-170,293 L-165,289 L-120,288 L-114,285 L-112,281 L-112,246 L-113,222 L-115,215 L-117,213 L-122,212 L-152,210 L-161,207 L-164,204 L-165,201 L-165,183 L-163,177 L-160,174 L-156,173 L-128,173 L-31,172 L-9,170 L-6,168 L-4,156 L-4,124 L-5,107 L-6,29 L-6,11 L-3,2 Z M41,225 L36,228 L34,233 L34,249 L37,254 L39,256 L43,257 L57,257 L70,256 L77,253 L80,249 L81,240 L78,227 L74,225 Z M140,416 Z " fill="#000000" transform="translate(256,95)"/>
<path d="M0,0 L17,1 L21,6 L22,21 L23,68 L23,92 L22,102 L18,106 L10,107 L-61,108 L-81,108 L-86,105 L-88,99 L-89,72 L-89,8 L-87,4 L-82,2 L-76,1 L-31,1 Z " fill="#000000" transform="translate(1010,173)"/>
<path d="M0,0 L76,0 L81,2 L84,5 L85,12 L86,82 L84,97 L81,103 L77,105 L64,106 L4,107 L-44,107 L-49,104 L-51,98 L-52,41 L-52,16 L-51,6 L-48,2 L-45,1 Z " fill="#000000" transform="translate(825,176)"/>
<path d="M0,0 L50,1 L53,2 L56,9 L57,13 L58,42 L58,92 L57,101 L52,106 L50,107 L18,108 L-10,109 L-58,109 L-63,105 L-64,84 L-64,13 L-62,6 L-58,3 L-37,1 L-6,1 Z " fill="#000000" transform="translate(704,177)"/>
<path d="M0,0 L49,0 L54,4 L56,9 L57,51 L57,96 L55,103 L50,106 L45,107 L-7,108 L-64,108 L-68,105 L-70,97 L-70,9 L-67,4 L-62,2 L-38,1 L-20,1 Z " fill="#000000" transform="translate(573,181)"/>
</svg>
