<?xml version="1.0" encoding="UTF-8"?>
<!-- Generator: visioncortex VTracer 0.6.12 -->
<svg version="1.1" xmlns="http://www.w3.org/2000/svg" width="1104" height="1107">
<path d="M0,0 L233,0 L235,2 L248,3 L255,6 L259,8 L268,9 L272,11 L281,13 L299,19 L307,22 L314,23 L319,25 L325,27 L329,30 L347,35 L354,40 L374,49 L386,54 L394,60 L415,71 L423,75 L428,80 L433,83 L437,86 L444,90 L456,99 L464,105 L475,115 L483,120 L488,125 L493,131 L499,134 L512,148 L517,151 L524,159 L535,171 L547,185 L559,201 L564,207 L568,211 L574,220 L578,225 L578,227 L582,229 L594,244 L600,254 L606,265 L612,275 L619,289 L625,297 L630,308 L634,320 L641,334 L646,347 L652,363 L657,379 L660,387 L663,402 L667,415 L669,419 L671,431 L673,434 L673,673 L670,676 L663,703 L659,719 L655,729 L650,749 L645,760 L637,781 L629,797 L621,812 L614,826 L607,838 L600,849 L592,863 L588,868 L584,875 L582,875 L580,880 L573,891 L563,902 L556,910 L547,922 L539,931 L531,938 L525,945 L520,951 L515,956 L509,966 L504,969 L497,973 L484,985 L465,999 L455,1007 L444,1014 L434,1022 L421,1030 L411,1036 L398,1044 L390,1048 L374,1056 L364,1062 L356,1064 L336,1073 L323,1079 L306,1085 L291,1091 L277,1094 L266,1098 L242,1104 L232,1106 L231,1107 L-1,1107 L-10,1104 L-24,1101 L-31,1098 L-39,1095 L-53,1092 L-73,1084 L-77,1081 L-86,1080 L-93,1077 L-103,1073 L-109,1069 L-119,1066 L-133,1059 L-138,1056 L-144,1052 L-153,1049 L-166,1041 L-178,1034 L-187,1028 L-192,1025 L-203,1017 L-208,1014 L-215,1009 L-217,1006 L-223,1003 L-237,991 L-248,982 L-249,979 L-252,978 L-252,976 L-257,974 L-265,967 L-273,960 L-285,948 L-290,943 L-294,939 L-294,937 L-298,935 L-306,925 L-316,912 L-324,903 L-333,890 L-344,876 L-350,867 L-356,858 L-361,848 L-367,839 L-371,831 L-377,822 L-383,810 L-387,802 L-391,793 L-400,773 L-405,758 L-408,753 L-415,734 L-417,722 L-420,715 L-425,697 L-428,684 L-430,672 L-431,671 L-431,428 L-429,423 L-427,412 L-424,400 L-421,391 L-416,372 L-413,363 L-407,347 L-404,343 L-396,321 L-385,298 L-378,286 L-370,269 L-364,261 L-361,255 L-354,246 L-350,239 L-344,230 L-342,230 L-340,225 L-331,213 L-322,201 L-313,190 L-307,182 L-305,182 L-303,177 L-293,167 L-286,159 L-265,138 L-254,129 L-245,122 L-239,117 L-231,110 L-225,105 L-211,94 L-202,87 L-186,76 L-176,71 L-163,63 L-145,52 L-130,45 L-113,37 L-105,33 L-85,25 L-65,18 L-44,11 L-16,4 L-8,4 L-1,1 Z M98,114 L86,115 L83,116 L67,117 L55,119 L40,120 L31,123 L17,126 L1,129 L-12,133 L-23,137 L-32,140 L-45,144 L-55,149 L-74,157 L-81,161 L-95,168 L-105,175 L-115,180 L-126,188 L-133,194 L-149,204 L-154,209 L-164,217 L-172,224 L-179,231 L-184,235 L-191,243 L-196,248 L-196,250 L-200,252 L-207,260 L-215,268 L-223,279 L-233,292 L-240,301 L-250,316 L-254,321 L-264,339 L-272,352 L-276,362 L-281,372 L-285,382 L-287,385 L-291,398 L-298,419 L-301,430 L-307,453 L-309,463 L-312,481 L-314,489 L-314,498 L-316,514 L-316,532 L-317,543 L-317,580 L-315,592 L-313,608 L-310,632 L-305,658 L-302,668 L-296,692 L-292,700 L-289,712 L-279,734 L-272,749 L-264,766 L-260,773 L-253,784 L-244,798 L-237,808 L-226,824 L-223,830 L-212,842 L-207,848 L-200,854 L-189,868 L-181,874 L-168,886 L-158,894 L-147,903 L-141,906 L-134,912 L-123,920 L-119,924 L-106,931 L-97,937 L-90,940 L-83,942 L-74,948 L-63,953 L-53,959 L-36,964 L-13,972 L9,978 L15,978 L20,981 L33,984 L37,985 L45,985 L50,987 L79,990 L108,992 L113,993 L121,992 L130,993 L138,990 L159,990 L166,989 L172,989 L177,985 L183,985 L188,987 L198,985 L210,982 L220,980 L225,978 L235,976 L239,974 L251,971 L261,967 L269,963 L282,961 L292,957 L304,953 L309,948 L319,944 L333,938 L343,931 L352,925 L360,919 L365,916 L374,910 L383,904 L396,893 L405,886 L419,874 L428,865 L434,861 L438,855 L443,850 L459,834 L463,830 L473,817 L481,805 L488,796 L494,784 L499,778 L509,761 L517,746 L522,733 L525,728 L534,702 L540,685 L542,680 L547,659 L552,638 L555,616 L557,607 L560,572 L560,527 L556,491 L552,467 L548,448 L541,426 L535,406 L530,392 L527,386 L524,374 L518,362 L514,356 L510,346 L506,338 L502,330 L495,320 L486,306 L480,297 L470,287 L467,281 L462,276 L458,272 L453,265 L445,258 L438,250 L421,234 L416,230 L411,224 L405,219 L398,211 L390,204 L381,199 L370,192 L359,184 L343,174 L337,171 L329,166 L318,160 L305,154 L292,149 L276,141 L273,139 L251,134 L240,129 L215,124 L212,123 L197,122 L187,118 L144,114 Z M534,899 L532,902 L533,910 L538,910 L539,906 L536,899 Z M-140,928 L-141,929 L-141,935 L-137,936 L-135,935 L-135,930 L-137,928 Z M-83,1054 L-85,1059 L-81,1058 L-80,1054 Z " fill="#000000" transform="translate(431,0)"/>
<path d="M0,0 L51,0 L57,5 L58,12 L53,17 L47,18 L40,17 L23,19 L16,20 L13,23 L12,32 L14,36 L24,38 L42,38 L52,42 L54,46 L52,51 L47,54 L24,55 L18,55 L13,59 L12,62 L12,74 L16,78 L51,79 L58,82 L60,84 L60,91 L55,95 L47,96 L38,96 L26,97 L4,96 L-3,95 L-7,90 L-8,87 L-10,55 L-9,35 L-9,12 L-6,4 Z " fill="#000000" transform="translate(774,366)"/>
<path d="M0,0 L15,0 L22,3 L28,5 L36,10 L41,12 L45,20 L51,31 L53,40 L54,59 L49,70 L45,80 L38,89 L29,95 L12,101 L-2,99 L-14,95 L-20,91 L-27,84 L-32,76 L-37,64 L-38,48 L-36,35 L-31,23 L-23,12 L-15,6 L-8,2 Z M6,18 L-2,21 L-11,28 L-16,36 L-18,53 L-16,64 L-10,74 L-1,81 L4,82 L11,82 L18,79 L27,72 L31,65 L34,54 L33,40 L29,30 L22,23 L12,18 Z " fill="#000000" transform="translate(436,367)"/>
<path d="M0,0 L10,0 L15,3 L24,17 L27,22 L27,24 L29,24 L35,34 L40,40 L44,41 L48,37 L50,7 L54,1 L59,0 L64,3 L68,9 L69,43 L69,57 L68,79 L66,89 L62,93 L60,94 L53,94 L46,88 L39,76 L32,67 L29,60 L21,50 L19,47 L15,47 L13,68 L13,86 L10,92 L5,96 L-2,95 L-5,88 L-8,76 L-7,69 L-6,42 L-7,35 L-6,34 L-7,27 L-7,16 L-5,4 Z M43,44 L43,47 L46,48 L46,44 Z " fill="#000000" transform="translate(682,367)"/>
<path d="M0,0 L13,0 L19,4 L22,9 L25,22 L29,24 L30,35 L32,37 L37,54 L39,61 L43,69 L46,79 L46,90 L43,94 L35,95 L30,92 L23,82 L14,78 L-4,79 L-9,82 L-17,92 L-19,94 L-28,95 L-31,92 L-32,84 L-29,72 L-24,59 L-20,46 L-18,42 L-16,35 L-9,13 L-7,6 Z M6,31 L4,32 L-1,48 L-1,54 L3,59 L10,60 L14,58 L16,51 L13,42 L11,34 Z " fill="#000000" transform="translate(620,368)"/>
<path d="M0,0 L16,0 L30,1 L41,5 L51,13 L58,24 L63,33 L64,44 L64,57 L61,67 L53,82 L45,89 L37,93 L25,96 L-11,96 L-16,92 L-17,90 L-18,78 L-18,25 L-19,14 L-16,4 L-11,1 Z M11,18 L6,20 L1,26 L0,28 L0,57 L2,74 L7,79 L13,80 L25,78 L34,73 L39,67 L42,61 L43,55 L43,40 L40,31 L33,23 L27,20 L17,18 Z " fill="#000000" transform="translate(328,369)"/>
<path d="M0,0 L9,3 L12,6 L15,15 L16,19 L15,21 L13,21 L14,34 L13,45 L13,58 L15,67 L18,72 L24,75 L25,76 L38,75 L43,75 L48,69 L51,62 L51,43 L48,39 L50,35 L51,34 L50,24 L52,6 L56,1 L62,0 L67,2 L70,7 L71,16 L71,58 L69,72 L65,82 L56,91 L48,95 L45,96 L28,97 L14,94 L5,89 L-2,82 L-6,73 L-7,59 L-8,53 L-7,24 L-6,19 L-5,5 Z " fill="#000000" transform="translate(506,369)"/>
<path d="M0,0 L6,1 L157,1 L159,0 L165,0 L166,1 L194,1 L198,0 L205,0 L208,1 L235,2 L265,1 L274,2 L299,2 L304,1 L312,2 L326,2 L345,7 L355,14 L364,22 L370,30 L376,39 L379,46 L381,56 L382,72 L381,80 L376,90 L374,97 L367,105 L363,112 L351,122 L343,127 L330,132 L272,132 L264,133 L255,132 L201,132 L166,133 L159,132 L121,133 L116,132 L104,133 L65,133 L63,134 L50,133 L37,134 L24,133 L-12,134 L-104,134 L-108,133 L-128,132 L-134,131 L-144,130 L-159,125 L-170,116 L-175,111 L-181,102 L-187,91 L-191,76 L-191,67 L-189,55 L-186,43 L-180,31 L-169,19 L-164,14 L-159,11 L-151,8 L-141,4 L-137,3 L-116,2 L-99,1 L-13,1 Z " fill="#000000" transform="translate(477,505)"/>
<path d="M0,0 L10,1 L24,5 L36,14 L44,25 L48,34 L50,52 L47,68 L43,77 L35,88 L28,94 L16,101 L2,102 L-14,98 L-27,90 L-33,82 L-37,76 L-40,69 L-41,57 L-41,39 L-38,32 L-34,24 L-26,13 L-17,5 L-7,1 Z M-4,20 L-12,25 L-18,34 L-22,48 L-21,61 L-17,72 L-11,79 L-2,83 L10,83 L20,76 L26,67 L28,61 L29,44 L26,34 L18,23 L12,20 Z " fill="#000000" transform="translate(550,676)"/>
<path d="M0,0 L24,0 L27,1 L39,1 L46,4 L48,8 L49,18 L45,24 L35,35 L23,51 L15,62 L9,70 L8,77 L21,80 L31,79 L43,81 L46,85 L46,92 L41,96 L39,97 L-17,97 L-25,93 L-26,91 L-25,81 L-15,68 L-6,56 L5,42 L9,38 L16,27 L16,22 L13,20 L8,19 L-11,18 L-18,15 L-20,12 L-19,5 L-15,1 L-7,1 Z " fill="#000000" transform="translate(451,678)"/>
<path d="M0,0 L7,0 L12,5 L14,10 L13,31 L13,66 L16,76 L21,78 L44,80 L48,84 L48,90 L44,95 L18,97 L10,96 L0,95 L-4,93 L-7,88 L-8,54 L-7,21 L-6,6 L-4,2 Z " fill="#000000" transform="translate(616,679)"/>
<path d="M0,0 L6,0 L10,5 L11,9 L11,70 L14,76 L18,78 L37,79 L44,81 L46,83 L46,91 L43,94 L39,95 L14,96 L6,95 L-4,94 L-8,89 L-9,86 L-9,26 L-8,12 L-5,4 Z " fill="#000000" transform="translate(686,680)"/>
<path d="M0,0 L3,1 L2,4 L0,4 Z " fill="#000000" transform="translate(662,715)"/>
</svg>
