<?xml version="1.0" encoding="UTF-8"?>
<!-- Generator: visioncortex VTracer 0.6.12 -->
<svg version="1.1" xmlns="http://www.w3.org/2000/svg" width="1104" height="978">
<path d="M0,0 L1036,0 L1036,2 L1041,4 L1050,12 L1053,15 L1053,99 L1051,99 L1049,105 L1041,119 L1036,127 L1028,143 L1022,154 L1014,169 L1008,179 L1000,193 L994,203 L987,217 L978,233 L973,242 L970,249 L956,274 L948,287 L939,303 L931,316 L928,324 L916,347 L913,350 L905,366 L899,377 L895,382 L893,389 L886,400 L879,411 L872,424 L868,431 L862,441 L856,449 L852,457 L846,469 L840,477 L837,483 L829,496 L821,512 L813,526 L809,535 L798,556 L793,562 L786,576 L783,581 L777,591 L769,606 L765,614 L761,619 L754,631 L748,642 L742,651 L737,661 L730,673 L722,689 L716,699 L710,710 L706,715 L696,734 L688,746 L685,752 L682,757 L677,768 L667,784 L663,792 L655,806 L650,815 L644,825 L636,840 L627,855 L621,865 L616,874 L611,883 L605,894 L597,909 L593,914 L587,926 L578,941 L570,953 L559,966 L549,973 L543,976 L542,978 L468,978 L463,973 L453,966 L445,956 L442,953 L438,945 L431,934 L427,926 L423,920 L417,912 L412,902 L407,894 L404,888 L400,883 L395,874 L388,863 L383,854 L378,846 L373,838 L363,822 L354,807 L349,798 L341,785 L336,775 L333,771 L330,765 L319,746 L316,741 L308,729 L303,721 L295,705 L286,691 L279,679 L273,667 L267,658 L261,646 L258,642 L255,636 L246,622 L238,608 L229,591 L225,585 L219,574 L208,556 L204,551 L199,541 L185,517 L176,501 L164,481 L160,472 L149,451 L143,442 L136,430 L126,413 L117,399 L111,388 L105,379 L99,368 L96,365 L91,356 L82,342 L75,331 L67,315 L57,297 L51,289 L45,279 L38,268 L32,259 L26,249 L20,242 L16,231 L6,215 L0,206 L-14,182 L-26,161 L-37,142 L-44,129 L-49,120 L-51,117 L-51,30 L-38,16 L-25,8 L-5,1 Z M138,62 L137,68 L141,66 L141,62 Z M906,89 L904,90 L882,90 L850,91 L844,93 L833,91 L825,92 L819,93 L815,91 L806,92 L783,91 L762,92 L754,93 L736,92 L683,92 L628,93 L610,93 L602,92 L594,93 L590,91 L586,92 L581,93 L523,93 L503,94 L440,94 L419,95 L396,95 L388,96 L313,96 L310,97 L298,95 L263,96 L253,97 L167,96 L158,97 L151,96 L139,97 L125,96 L110,96 L101,97 L81,97 L67,98 L62,101 L61,102 L61,108 L66,118 L71,125 L78,139 L91,161 L98,172 L103,182 L112,196 L118,207 L127,221 L135,234 L142,245 L150,258 L156,269 L161,276 L165,286 L174,299 L178,307 L186,321 L193,333 L200,343 L205,355 L210,361 L218,374 L231,396 L244,418 L249,426 L259,444 L265,454 L271,464 L277,474 L284,485 L288,493 L300,513 L303,518 L312,534 L322,551 L335,572 L346,591 L353,603 L359,613 L367,627 L372,636 L379,646 L387,660 L395,675 L398,682 L404,689 L410,701 L416,709 L421,718 L431,733 L441,752 L446,758 L452,770 L462,786 L468,796 L474,807 L483,821 L489,832 L496,843 L501,849 L504,851 L510,850 L518,839 L528,823 L534,812 L540,801 L548,787 L551,781 L561,765 L569,751 L572,745 L578,735 L584,724 L595,706 L603,693 L607,686 L612,678 L616,670 L623,658 L626,652 L633,641 L640,627 L648,614 L652,607 L661,590 L669,580 L673,571 L678,563 L681,556 L689,544 L697,530 L703,518 L707,513 L712,503 L717,495 L724,481 L731,470 L739,455 L744,447 L747,440 L754,430 L763,414 L774,396 L777,389 L783,379 L791,363 L798,353 L804,342 L810,331 L813,324 L820,311 L827,299 L833,287 L839,276 L843,271 L849,259 L853,249 L860,239 L867,225 L879,203 L884,195 L894,178 L899,168 L907,153 L912,145 L917,135 L927,117 L932,105 L933,102 L933,94 L928,91 L915,90 Z M410,870 L410,872 L413,871 Z " fill="#000000" transform="translate(51,0)"/>
<path d="M0,0 L3,1 L2,3 L0,3 Z " fill="#000000" transform="translate(988,741)"/>
</svg>
