<?xml version="1.0" encoding="UTF-8"?>
<!-- Generator: visioncortex VTracer 0.6.12 -->
<svg version="1.1" xmlns="http://www.w3.org/2000/svg" width="1155" height="1116">
<path d="M0,0 L70,0 L69,3 L61,3 L56,5 L48,4 L41,6 L35,6 L33,7 L24,8 L15,11 L10,14 L9,15 L-1,17 L-5,21 L-13,22 L-15,28 L-22,33 L-27,38 L-32,37 L-39,28 L-37,23 L-32,22 L-30,27 L-22,26 L-21,20 L-27,19 L-27,16 L-17,9 L-6,3 L0,2 Z " fill="#000000" transform="translate(74,0)"/>
<path d="M0,0 L8,0 L6,4 L1,3 Z " fill="#000000" transform="translate(151,0)"/>
<path d="M0,0 L34,0 L33,3 L24,2 L21,4 L3,4 L0,1 Z " fill="#000000" transform="translate(163,0)"/>
<path d="M0,0 L7,0 L7,3 L3,4 L0,2 Z " fill="#000000" transform="translate(203,0)"/>
<path d="M0,0 L23,0 L21,3 L1,3 Z " fill="#000000" transform="translate(216,0)"/>
<path d="M0,0 L9,0 L8,3 L1,2 Z " fill="#000000" transform="translate(240,0)"/>
<path d="M0,0 L7,0 L6,3 L1,3 Z " fill="#000000" transform="translate(256,0)"/>
<path d="M0,0 L33,0 L32,3 L24,3 L16,4 L2,4 Z " fill="#000000" transform="translate(267,0)"/>
<path d="M0,0 L8,0 L7,3 L2,4 Z " fill="#000000" transform="translate(307,0)"/>
<path d="M0,0 L36,0 L35,3 L30,4 L25,2 L22,4 L9,4 L5,5 Z " fill="#000000" transform="translate(318,0)"/>
<path d="M0,0 L7,0 L6,3 L0,3 Z " fill="#000000" transform="translate(360,0)"/>
<path d="M0,0 L34,0 L32,4 L23,3 L17,4 L2,4 L0,3 Z " fill="#000000" transform="translate(372,0)"/>
<path d="M0,0 L34,0 L32,4 L3,4 L0,2 Z " fill="#000000" transform="translate(423,0)"/>
<path d="M0,0 L34,0 L33,3 L1,3 Z " fill="#000000" transform="translate(474,0)"/>
<path d="M0,0 L35,0 L34,3 L28,4 L22,3 L15,4 L8,3 L2,3 Z " fill="#000000" transform="translate(526,0)"/>
<path d="M0,0 L2,1 Z " fill="#000000" transform="translate(568,0)"/>
<path d="M0,0 L7,0 L5,4 L0,3 Z " fill="#000000" transform="translate(579,0)"/>
<path d="M0,0 L23,0 L19,4 L9,3 L2,4 Z " fill="#000000" transform="translate(591,0)"/>
<path d="M0,0 L6,0 L5,2 L0,1 Z " fill="#000000" transform="translate(618,0)"/>
<path d="M0,0 L35,0 L35,2 L30,4 L13,3 L9,2 L6,4 L1,4 Z " fill="#000000" transform="translate(632,0)"/>
<path d="M0,0 L7,0 L6,2 L1,2 Z " fill="#000000" transform="translate(670,0)"/>
<path d="M0,0 L6,0 L5,4 L0,3 Z " fill="#000000" transform="translate(684,0)"/>
<path d="M0,0 L33,0 L32,2 L24,2 L22,3 L12,3 L3,4 L0,2 Z " fill="#000000" transform="translate(695,0)"/>
<path d="M0,0 L6,0 L5,3 L0,2 Z " fill="#000000" transform="translate(736,0)"/>
<path d="M0,0 L32,0 L31,3 L26,3 L22,2 L20,4 L9,3 L0,3 Z " fill="#000000" transform="translate(748,0)"/>
<path d="M0,0 L5,0 L4,3 L1,3 Z " fill="#000000" transform="translate(788,0)"/>
<path d="M0,0 L22,0 L21,3 L15,4 L10,3 L5,4 L0,2 Z " fill="#000000" transform="translate(799,0)"/>
<path d="M0,0 L8,0 L7,3 L1,3 Z " fill="#000000" transform="translate(825,0)"/>
<path d="M0,0 Z " fill="#000000" transform="translate(841,0)"/>
<path d="M0,0 L23,0 L20,3 L14,3 L10,2 L8,3 L1,3 Z " fill="#000000" transform="translate(852,0)"/>
<path d="M0,0 L7,0 L5,3 L0,2 Z " fill="#000000" transform="translate(878,0)"/>
<path d="M0,0 L9,0 L9,2 L7,3 L1,3 Z " fill="#000000" transform="translate(904,0)"/>
<path d="M0,0 L23,0 L23,2 L17,3 L10,2 L4,3 L0,1 Z " fill="#000000" transform="translate(915,0)"/>
<path d="M0,0 L24,0 L22,3 L1,3 Z " fill="#000000" transform="translate(955,0)"/>
<path d="M0,0 L11,0 L10,2 L2,3 L0,2 Z " fill="#000000" transform="translate(981,0)"/>
<path d="M0,0 L65,0 L75,5 L80,10 L81,16 L86,15 L90,14 L94,17 L94,25 L99,21 L104,23 L108,29 L112,34 L113,38 L118,41 L120,45 L125,49 L128,59 L131,61 L134,74 L134,79 L130,80 L125,77 L128,91 L129,98 L129,106 L130,108 L134,107 L135,105 L131,97 L131,93 L130,84 L135,83 L140,86 L143,98 L139,103 L141,107 L143,109 L143,119 L144,121 L144,151 L141,154 L135,156 L134,153 L131,155 L130,162 L135,159 L139,158 L143,161 L143,167 L142,171 L145,176 L144,198 L144,203 L139,207 L140,211 L143,214 L143,223 L145,227 L144,255 L141,258 L137,259 L136,263 L141,265 L143,269 L143,276 L144,283 L144,306 L139,311 L139,315 L142,319 L144,334 L144,360 L140,363 L138,363 L142,373 L143,390 L143,400 L142,404 L143,411 L139,415 L141,429 L143,432 L143,452 L142,457 L142,464 L141,465 L141,480 L143,485 L143,503 L142,509 L142,515 L138,516 L139,522 L140,524 L141,533 L143,536 L143,565 L138,569 L139,574 L141,577 L141,584 L143,588 L143,604 L142,612 L142,617 L137,622 L140,627 L141,637 L143,640 L143,656 L141,663 L141,669 L138,672 L139,677 L141,680 L141,690 L142,692 L142,704 L141,716 L141,722 L138,726 L140,731 L141,738 L142,743 L142,761 L139,764 L141,768 L140,775 L138,777 L139,782 L141,793 L142,808 L139,815 L137,818 L140,820 L140,825 L137,829 L139,834 L140,836 L140,864 L136,869 L140,873 L138,878 L138,884 L139,886 L140,896 L140,916 L137,919 L138,924 L139,928 L137,931 L139,948 L140,950 L140,967 L137,970 L138,974 L139,979 L136,982 L136,987 L138,990 L140,999 L140,1008 L138,1018 L135,1022 L134,1034 L131,1037 L131,1043 L126,1049 L125,1058 L120,1063 L117,1065 L114,1074 L107,1080 L103,1084 L98,1086 L97,1093 L94,1096 L86,1098 L82,1102 L75,1101 L75,1099 L72,1099 L75,1103 L75,1109 L70,1112 L64,1116 L6,1116 L7,1113 L17,1114 L24,1111 L40,1109 L52,1103 L61,1099 L67,1095 L72,1092 L77,1087 L82,1083 L88,1076 L92,1072 L94,1072 L96,1066 L99,1060 L104,1059 L104,1066 L107,1066 L109,1060 L115,1056 L119,1045 L122,1042 L121,1038 L117,1036 L113,1049 L107,1057 L104,1058 L105,1052 L108,1042 L102,1045 L100,1054 L97,1058 L90,1060 L90,1068 L87,1072 L79,1073 L78,1080 L73,1081 L69,1077 L70,1080 L72,1082 L70,1088 L69,1089 L60,1091 L56,1095 L48,1095 L45,1098 L36,1098 L33,1101 L23,1102 L20,1104 L-3,1104 L-9,1105 L-14,1101 L-19,1102 L-20,1103 L-30,1103 L-38,1104 L-43,1104 L-48,1105 L-63,1104 L-68,1100 L-72,1103 L-81,1103 L-88,1104 L-94,1103 L-102,1104 L-108,1103 L-109,1104 L-116,1104 L-120,1101 L-134,1102 L-142,1103 L-159,1103 L-167,1104 L-174,1100 L-186,1101 L-188,1102 L-199,1102 L-206,1103 L-220,1103 L-223,1099 L-229,1100 L-232,1101 L-238,1100 L-240,1102 L-246,1102 L-250,1101 L-253,1103 L-260,1102 L-264,1101 L-271,1102 L-274,1099 L-284,1100 L-290,1100 L-295,1103 L-299,1102 L-310,1102 L-315,1101 L-318,1103 L-324,1102 L-326,1098 L-331,1099 L-337,1100 L-342,1100 L-345,1102 L-363,1102 L-368,1100 L-371,1102 L-376,1101 L-378,1098 L-383,1098 L-386,1100 L-396,1100 L-401,1104 L-406,1104 L-409,1102 L-416,1100 L-421,1098 L-423,1102 L-427,1101 L-431,1097 L-435,1098 L-436,1099 L-446,1100 L-448,1101 L-454,1101 L-459,1100 L-461,1101 L-468,1101 L-470,1098 L-474,1099 L-478,1101 L-484,1096 L-489,1099 L-507,1100 L-517,1101 L-521,1096 L-525,1096 L-527,1100 L-533,1099 L-534,1096 L-539,1097 L-542,1099 L-564,1099 L-569,1100 L-571,1099 L-573,1094 L-576,1095 L-579,1099 L-584,1097 L-589,1096 L-591,1098 L-608,1099 L-621,1099 L-625,1095 L-629,1096 L-633,1098 L-635,1096 L-640,1096 L-642,1098 L-666,1098 L-673,1099 L-676,1095 L-692,1096 L-696,1098 L-712,1098 L-718,1097 L-724,1098 L-729,1095 L-743,1095 L-747,1097 L-763,1097 L-768,1096 L-772,1098 L-776,1097 L-779,1094 L-790,1095 L-796,1094 L-802,1097 L-809,1096 L-814,1097 L-821,1096 L-827,1098 L-831,1095 L-831,1093 L-836,1094 L-841,1096 L-847,1094 L-851,1096 L-868,1097 L-875,1096 L-879,1097 L-884,1092 L-890,1094 L-891,1095 L-905,1094 L-914,1090 L-923,1089 L-933,1085 L-941,1080 L-950,1077 L-957,1070 L-962,1065 L-970,1058 L-977,1050 L-984,1037 L-988,1027 L-990,1018 L-993,1004 L-996,994 L-996,988 L-995,982 L-995,967 L-996,964 L-1000,964 L-1001,967 L-1000,969 L-1000,975 L-1002,978 L-1002,995 L-1000,998 L-1000,1007 L-998,1018 L-996,1021 L-996,1028 L-991,1036 L-990,1044 L-987,1045 L-986,1050 L-988,1055 L-981,1057 L-979,1062 L-974,1065 L-971,1070 L-969,1076 L-962,1078 L-957,1082 L-953,1084 L-951,1088 L-945,1088 L-940,1092 L-939,1094 L-931,1095 L-926,1101 L-917,1100 L-915,1102 L-907,1102 L-902,1105 L-896,1105 L-894,1104 L-878,1105 L-871,1104 L-865,1107 L-857,1103 L-850,1106 L-844,1106 L-839,1103 L-835,1104 L-832,1106 L-824,1105 L-823,1104 L-818,1104 L-814,1107 L-807,1106 L-804,1104 L-799,1105 L-796,1107 L-782,1106 L-780,1107 L-773,1107 L-769,1105 L-764,1106 L-762,1107 L-753,1107 L-747,1106 L-744,1107 L-735,1107 L-731,1106 L-725,1108 L-712,1107 L-695,1108 L-657,1109 L-649,1108 L-642,1109 L-633,1108 L-614,1108 L-612,1109 L-605,1109 L-597,1108 L-594,1109 L-587,1109 L-585,1108 L-576,1108 L-575,1109 L-569,1109 L-564,1107 L-561,1109 L-552,1109 L-550,1107 L-545,1108 L-542,1110 L-536,1110 L-533,1108 L-528,1108 L-524,1110 L-516,1109 L-511,1108 L-507,1110 L-500,1110 L-498,1109 L-491,1109 L-484,1110 L-479,1108 L-473,1109 L-470,1111 L-465,1110 L-462,1108 L-456,1109 L-453,1112 L-447,1111 L-445,1109 L-439,1109 L-436,1111 L-430,1111 L-425,1109 L-421,1110 L-418,1112 L-412,1112 L-407,1109 L-402,1111 L-401,1112 L-392,1111 L-387,1110 L-378,1112 L-373,1109 L-369,1110 L-366,1112 L-255,1112 L-246,1113 L-236,1112 L-227,1113 L-224,1112 L-217,1112 L-210,1113 L-198,1113 L-195,1116 L-763,1116 L-763,1114 L-768,1114 L-768,1116 L-813,1116 L-815,1114 L-818,1114 L-819,1116 L-865,1116 L-866,1113 L-871,1113 L-871,1116 L-904,1116 L-906,1114 L-920,1112 L-937,1107 L-952,1101 L-965,1092 L-970,1087 L-978,1082 L-979,1078 L-983,1076 L-984,1070 L-982,1063 L-988,1063 L-989,1068 L-993,1066 L-998,1058 L-999,1050 L-1003,1045 L-1006,1043 L-1005,1038 L-1004,1037 L-1004,1030 L-1006,1028 L-1006,932 L-1003,933 L-1002,942 L-1001,944 L-998,944 L-997,935 L-997,923 L-994,912 L-998,907 L-996,899 L-995,894 L-995,873 L-994,865 L-995,860 L-994,855 L-994,844 L-996,834 L-997,824 L-998,822 L-1006,822 L-1006,467 L-1004,467 L-1004,464 L-1006,464 L-1006,322 L-1001,321 L-997,324 L-998,329 L-999,335 L-995,337 L-996,344 L-992,343 L-993,335 L-994,331 L-992,328 L-992,318 L-993,316 L-998,316 L-1004,319 L-1006,319 L-1006,307 L-1004,302 L-1006,302 L-1006,271 L-1003,270 L-1003,268 L-998,269 L-996,271 L-997,278 L-999,281 L-995,287 L-995,295 L-992,296 L-992,290 L-993,284 L-992,274 L-993,270 L-992,264 L-1001,266 L-1006,264 L-1006,251 L-1004,244 L-1006,244 L-1006,233 L-1004,233 L-1004,229 L-1006,229 L-1006,217 L-1002,213 L-1004,209 L-1006,208 L-1006,196 L-1005,192 L-1006,191 L-1006,179 L-1004,179 L-1004,176 L-1006,176 L-1006,164 L-1002,161 L-1002,157 L-1006,156 L-1006,144 L-1004,144 L-1004,139 L-1006,138 L-1006,128 L-1003,125 L-1004,122 L-1006,121 L-1006,111 L-1002,109 L-1002,104 L-1006,101 L-1006,96 L-1001,91 L-998,85 L-995,83 L-996,78 L-1001,71 L-999,66 L-992,65 L-990,59 L-985,55 L-982,50 L-975,44 L-972,37 L-968,38 L-967,40 L-967,47 L-975,54 L-977,63 L-984,69 L-985,72 L-985,81 L-989,84 L-991,84 L-991,107 L-995,113 L-994,120 L-998,125 L-992,130 L-989,129 L-988,109 L-987,104 L-986,101 L-985,87 L-979,80 L-977,71 L-972,62 L-965,53 L-958,42 L-947,33 L-935,27 L-931,24 L-923,24 L-918,19 L-905,14 L-896,15 L-891,12 L-885,12 L-879,15 L-875,14 L-869,11 L-865,14 L-858,14 L-855,12 L-850,12 L-848,14 L-840,14 L-838,12 L-832,12 L-828,15 L-822,14 L-818,11 L-813,12 L-813,14 L-805,14 L-801,11 L-796,12 L-791,15 L-786,13 L-781,11 L-774,16 L-770,15 L-768,12 L-761,12 L-758,14 L-752,14 L-747,11 L-742,13 L-741,14 L-734,14 L-730,11 L-725,13 L-723,16 L-718,15 L-712,10 L-707,12 L-705,14 L-698,13 L-697,12 L-690,12 L-685,15 L-680,13 L-676,11 L-669,16 L-664,14 L-661,11 L-656,11 L-652,14 L-646,14 L-644,12 L-637,12 L-635,14 L-628,14 L-624,10 L-619,12 L-616,16 L-612,15 L-608,11 L-602,11 L-598,14 L-593,14 L-589,10 L-584,12 L-582,14 L-576,14 L-572,11 L-568,12 L-563,15 L-558,13 L-556,11 L-551,12 L-548,14 L-541,14 L-538,11 L-533,11 L-530,14 L-523,13 L-519,10 L-515,11 L-512,14 L-506,14 L-503,11 L-497,12 L-495,14 L-488,14 L-485,11 L-479,12 L-477,14 L-471,13 L-467,11 L-462,12 L-460,14 L-453,14 L-449,11 L-444,12 L-442,14 L-436,14 L-432,11 L-426,12 L-423,14 L-417,13 L-414,11 L-408,12 L-402,15 L-399,15 L-396,11 L-391,12 L-390,15 L-380,13 L-378,11 L-374,12 L-372,13 L-363,13 L-356,12 L-352,14 L-316,14 L-312,13 L-306,15 L-303,14 L-268,14 L-262,13 L-251,14 L-240,14 L-232,15 L-227,13 L-221,13 L-214,14 L-211,13 L-188,13 L-186,14 L-177,13 L-171,12 L-167,13 L-160,13 L-154,12 L-150,13 L-142,13 L-135,12 L-131,14 L-124,13 L-123,12 L-116,13 L-107,13 L-100,12 L-90,14 L-85,11 L-80,12 L-77,14 L-72,14 L-67,11 L-61,13 L-57,14 L-51,11 L-45,12 L-38,14 L-33,11 L-27,11 L-24,14 L-18,13 L-16,11 L-9,12 L-8,13 L-2,13 L2,11 L8,11 L14,14 L18,13 L22,9 L26,10 L31,16 L36,14 L40,13 L44,15 L45,17 L53,19 L58,24 L67,24 L69,30 L77,29 L81,35 L89,41 L93,45 L98,50 L101,55 L104,58 L106,67 L109,75 L114,80 L116,83 L119,94 L117,98 L121,103 L120,114 L119,125 L124,129 L125,104 L121,86 L119,82 L118,73 L111,59 L106,51 L104,46 L99,41 L93,34 L89,30 L81,23 L68,15 L56,10 L40,5 L34,4 L11,3 L3,4 L0,2 Z M110,45 L109,48 L112,53 L116,52 L116,46 L115,45 Z M132,118 L131,119 L131,124 L134,124 L134,119 Z M122,131 L119,134 L120,138 L124,139 L125,133 L124,131 Z M-992,133 L-994,135 L-993,141 L-989,142 L-987,137 L-991,133 Z M132,134 L129,139 L130,144 L135,143 L135,135 Z M122,147 L121,148 L121,158 L119,159 L119,169 L116,172 L117,178 L120,181 L119,188 L123,187 L124,182 L125,148 Z M-993,150 L-992,158 L-994,159 L-994,161 L-997,162 L-996,166 L-995,171 L-998,174 L-997,180 L-996,186 L-996,192 L-992,196 L-990,195 L-990,181 L-989,178 L-988,166 L-989,154 L-988,151 Z M132,168 L129,172 L130,177 L133,177 L134,175 L134,169 Z M131,184 L129,185 L130,194 L133,196 L136,194 L135,187 L133,184 Z M-604,195 L-608,197 L-615,197 L-619,199 L-630,199 L-632,200 L-638,200 L-642,199 L-649,200 L-652,197 L-663,197 L-667,196 L-674,200 L-688,200 L-695,199 L-700,200 L-704,196 L-708,197 L-709,198 L-710,206 L-716,210 L-716,212 L-711,215 L-712,219 L-714,224 L-711,229 L-710,246 L-710,257 L-714,260 L-717,261 L-716,264 L-712,266 L-713,277 L-711,281 L-711,289 L-710,297 L-710,309 L-714,313 L-713,317 L-710,318 L-713,327 L-711,338 L-710,341 L-710,348 L-711,354 L-710,361 L-716,365 L-716,368 L-712,370 L-712,384 L-710,400 L-711,405 L-710,412 L-715,417 L-715,420 L-712,421 L-712,442 L-710,447 L-711,458 L-710,465 L-714,470 L-712,474 L-712,496 L-710,499 L-710,505 L-711,509 L-710,511 L-710,518 L-713,521 L-712,529 L-712,547 L-710,550 L-711,562 L-710,568 L-712,572 L-712,581 L-713,584 L-712,593 L-712,599 L-710,605 L-711,614 L-712,621 L-713,626 L-712,631 L-714,633 L-714,638 L-713,639 L-712,653 L-710,657 L-711,671 L-712,673 L-712,684 L-714,687 L-712,703 L-710,707 L-711,717 L-711,724 L-717,727 L-717,730 L-712,732 L-713,737 L-715,740 L-714,744 L-713,746 L-712,755 L-712,767 L-711,776 L-718,779 L-717,782 L-712,784 L-713,796 L-712,808 L-711,813 L-711,827 L-714,830 L-718,832 L-716,834 L-712,835 L-713,848 L-712,858 L-710,862 L-711,867 L-711,878 L-715,883 L-715,885 L-712,886 L-712,909 L-710,912 L-711,924 L-710,934 L-706,936 L-695,936 L-693,935 L-687,935 L-683,938 L-678,937 L-675,935 L-669,935 L-667,937 L-660,937 L-657,935 L-650,936 L-642,936 L-641,935 L-634,935 L-630,938 L-625,937 L-621,935 L-616,936 L-614,937 L-605,936 L-597,935 L-593,930 L-593,921 L-591,907 L-594,901 L-594,893 L-593,890 L-593,880 L-592,876 L-593,867 L-593,854 L-591,840 L-591,835 L-592,834 L-592,820 L-593,812 L-592,811 L-592,801 L-593,792 L-594,785 L-592,780 L-593,777 L-594,768 L-593,753 L-593,742 L-592,735 L-593,724 L-593,688 L-591,683 L-592,671 L-591,664 L-594,661 L-594,651 L-593,650 L-593,639 L-594,634 L-593,627 L-592,616 L-591,611 L-584,607 L-571,605 L-570,606 L-550,607 L-507,606 L-499,607 L-491,606 L-484,607 L-479,606 L-455,606 L-452,607 L-445,607 L-438,606 L-432,607 L-410,607 L-408,606 L-401,606 L-400,607 L-392,607 L-385,606 L-379,607 L-374,606 L-348,606 L-340,607 L-336,605 L-330,606 L-324,607 L-315,604 L-307,611 L-299,618 L-300,622 L-305,627 L-301,632 L-301,640 L-299,643 L-298,660 L-299,667 L-299,674 L-303,678 L-302,682 L-299,694 L-298,727 L-302,729 L-302,733 L-298,749 L-298,764 L-299,777 L-303,782 L-302,786 L-299,794 L-299,808 L-298,817 L-299,822 L-299,830 L-301,833 L-300,845 L-299,848 L-299,881 L-302,886 L-300,898 L-298,907 L-299,912 L-299,935 L-296,938 L-290,939 L-287,937 L-272,939 L-219,939 L-217,940 L-210,940 L-208,939 L-202,939 L-195,940 L-183,937 L-178,933 L-178,926 L-179,919 L-179,908 L-177,903 L-179,892 L-178,883 L-179,876 L-178,863 L-178,825 L-179,818 L-179,798 L-178,783 L-177,780 L-177,772 L-178,769 L-179,749 L-179,729 L-178,726 L-179,712 L-178,702 L-179,698 L-179,690 L-178,688 L-178,676 L-177,674 L-177,667 L-178,665 L-178,644 L-179,625 L-178,619 L-179,614 L-178,603 L-178,585 L-177,584 L-177,578 L-179,575 L-179,569 L-178,567 L-178,540 L-177,519 L-176,514 L-178,512 L-178,497 L-179,484 L-177,482 L-176,476 L-176,463 L-178,460 L-177,424 L-179,423 L-178,418 L-176,416 L-176,411 L-178,408 L-177,396 L-178,382 L-176,375 L-178,367 L-177,359 L-177,347 L-178,342 L-178,329 L-179,326 L-179,286 L-178,269 L-179,264 L-177,254 L-178,226 L-176,220 L-178,211 L-180,204 L-183,198 L-187,196 L-191,198 L-202,198 L-209,199 L-212,197 L-217,198 L-221,199 L-230,196 L-236,195 L-242,198 L-248,198 L-253,197 L-258,199 L-268,198 L-273,199 L-275,198 L-284,197 L-290,195 L-299,200 L-299,207 L-302,210 L-301,215 L-299,218 L-299,227 L-298,233 L-299,248 L-301,250 L-300,254 L-299,255 L-299,260 L-303,264 L-301,268 L-299,273 L-299,301 L-302,303 L-301,306 L-299,307 L-300,312 L-303,317 L-300,322 L-298,353 L-304,355 L-301,358 L-299,358 L-299,364 L-303,369 L-301,374 L-299,384 L-299,404 L-303,408 L-303,410 L-299,411 L-300,416 L-302,419 L-301,426 L-299,435 L-299,457 L-302,458 L-302,461 L-299,463 L-300,469 L-302,472 L-301,482 L-300,488 L-299,489 L-300,503 L-302,506 L-310,508 L-321,507 L-328,507 L-329,506 L-339,507 L-346,506 L-350,508 L-367,508 L-374,507 L-378,508 L-385,504 L-390,507 L-399,506 L-403,508 L-419,508 L-426,507 L-432,508 L-434,504 L-439,505 L-440,506 L-451,506 L-455,508 L-471,508 L-476,506 L-480,509 L-484,508 L-487,504 L-491,505 L-492,506 L-503,506 L-508,508 L-538,508 L-540,504 L-545,505 L-550,506 L-554,505 L-559,508 L-568,507 L-569,508 L-576,507 L-578,504 L-589,502 L-591,501 L-592,491 L-592,480 L-591,475 L-593,471 L-592,465 L-592,374 L-593,367 L-592,347 L-593,339 L-592,324 L-591,319 L-592,318 L-592,296 L-593,291 L-592,284 L-593,278 L-593,258 L-592,257 L-592,238 L-591,234 L-593,225 L-592,211 L-596,203 L-601,196 Z M-993,198 L-995,200 L-995,212 L-997,214 L-996,223 L-999,228 L-997,233 L-992,234 L-991,233 L-990,215 L-989,207 L-992,198 Z M116,212 L114,214 L115,218 L120,217 L122,213 L121,212 Z M117,224 L118,229 L121,231 L123,226 L122,224 Z M-994,242 L-992,244 L-992,242 Z M132,246 L130,248 L130,252 L134,250 L135,246 Z M119,261 L115,265 L116,278 L119,283 L122,283 L123,280 L123,264 L122,261 Z M130,284 L128,287 L129,292 L134,291 L133,285 Z M119,288 L118,293 L122,294 L123,289 Z M134,297 L128,302 L129,307 L133,305 L137,300 L136,297 Z M119,315 L116,318 L116,326 L118,340 L118,346 L122,346 L123,343 L123,319 L121,315 Z M131,336 L129,338 L130,344 L134,344 L134,337 Z M-982,339 L-983,342 L-978,342 L-979,339 Z M-976,343 L-974,348 L-974,356 L-970,352 L-970,346 L-973,343 Z M-990,346 L-991,352 L-989,353 L-987,346 Z M132,353 L130,354 L130,356 L134,356 L134,353 Z M119,354 L118,358 L118,367 L116,372 L116,382 L118,388 L118,393 L117,396 L121,400 L123,390 L123,360 L121,354 Z M-996,357 L-996,360 L-994,360 L-994,357 Z M-983,359 L-982,361 L-981,359 Z M-993,366 L-1002,369 L-1003,374 L-999,378 L-1000,386 L-998,388 L-994,387 L-991,383 L-990,375 L-988,373 L-989,367 Z M129,374 L128,379 L132,380 L133,376 Z M-995,390 L-996,396 L-993,397 L-990,395 L-991,390 Z M129,390 L128,391 L129,398 L133,398 L134,391 Z M-994,399 L-993,404 L-989,406 L-988,401 L-990,399 Z M-997,409 L-997,411 L-994,410 Z M-995,412 L-998,421 L-1001,422 L-1000,437 L-995,445 L-991,444 L-991,432 L-992,427 L-990,422 L-991,414 Z M128,412 L129,415 L131,414 L131,412 Z M119,419 L117,420 L116,423 L116,435 L118,439 L118,450 L122,449 L122,420 Z M129,427 Z M130,443 L128,446 L128,451 L132,451 L134,449 L134,444 Z M-994,454 L-1001,462 L-1000,465 L-997,468 L-1001,473 L-1000,489 L-997,493 L-994,493 L-993,487 L-993,468 L-991,459 L-991,454 Z M128,463 L129,468 L131,467 L131,463 Z M119,470 L118,475 L122,475 L121,470 Z M129,480 L129,484 L131,484 L131,480 Z M118,481 L116,483 L117,488 L121,489 L122,488 L122,482 Z M130,496 L128,498 L128,504 L132,504 L134,501 L133,497 Z M-996,500 L-996,504 L-994,504 L-995,500 Z M-998,512 L-1000,515 L-997,519 L-994,518 L-994,513 Z M129,517 L130,519 Z M-999,522 L-1001,523 L-1000,537 L-1000,542 L-996,544 L-994,543 L-994,523 Z M120,522 L118,526 L119,528 L122,528 L123,524 Z M129,532 L129,536 L132,535 L131,532 Z M117,533 L116,534 L116,540 L121,541 L122,535 L121,533 Z M129,548 L128,553 L132,555 L133,554 L133,549 Z M-998,564 L-999,569 L-1000,573 L-1001,579 L-1000,587 L-1000,593 L-996,594 L-994,591 L-994,565 Z M128,569 L129,573 L131,572 L131,569 Z M118,574 L116,576 L115,591 L117,594 L121,593 L122,591 L122,577 L120,574 Z M129,584 L128,589 L131,589 L132,585 Z M117,600 L118,605 L121,606 L122,601 Z M129,601 L128,602 L128,607 L130,609 L133,609 L134,603 L132,601 Z M-998,602 L-999,603 L-999,614 L-1000,616 L-1001,625 L-1003,627 L-1002,631 L-1000,634 L-1000,646 L-995,647 L-993,642 L-994,626 L-994,612 L-993,609 L-995,602 Z M119,610 L117,615 L121,616 L122,611 Z M128,618 L127,623 L129,626 L131,626 L132,621 L130,618 Z M118,624 L114,627 L115,632 L115,642 L117,646 L117,662 L115,668 L117,671 L116,676 L113,678 L114,685 L115,687 L116,696 L117,698 L121,698 L122,692 L122,659 L123,645 L122,627 L120,624 Z M129,637 L128,638 L128,644 L131,645 L132,638 Z M-997,652 L-999,654 L-999,659 L-995,660 L-994,652 Z M-873,652 Z M128,652 L127,664 L131,664 L134,660 L133,653 Z M-582,663 L-581,665 Z M-999,666 L-1000,667 L-1000,675 L-1003,679 L-1002,684 L-999,689 L-1001,693 L-1000,698 L-998,701 L-993,700 L-995,693 L-995,688 L-994,687 L-994,670 L-996,666 Z M110,667 Z M129,673 L127,677 L128,682 L131,681 L132,675 L131,673 Z M128,688 L127,689 L127,699 L131,699 L131,688 Z M118,703 L117,704 L117,709 L121,709 L120,704 Z M129,705 L127,710 L127,716 L132,717 L134,714 L133,707 Z M-998,709 L-1000,717 L-1000,724 L-999,728 L-1003,731 L-1003,736 L-999,740 L-995,738 L-994,737 L-994,710 Z M117,728 L113,732 L115,745 L117,750 L121,749 L121,731 L118,728 Z M-1000,744 L-1001,748 L-999,757 L-1000,758 L-1001,769 L-1003,771 L-1004,787 L-1001,790 L-1000,811 L-998,814 L-992,816 L-992,805 L-993,803 L-995,757 L-994,755 L-994,745 L-995,744 Z M128,749 L126,754 L127,758 L131,757 L132,751 L131,749 Z M117,757 Z M132,764 L127,769 L126,774 L129,773 L130,769 L135,767 L137,766 L137,764 Z M116,780 L114,784 L115,794 L116,798 L119,798 L120,796 L120,780 Z M128,792 L128,794 L130,794 L130,792 Z M126,803 L125,805 L125,811 L129,812 L131,810 L131,804 Z M126,821 L125,822 L125,827 L129,827 L130,826 L130,821 Z M110,823 Z M117,832 L114,837 L114,846 L116,851 L120,851 L120,833 Z M126,840 L125,846 L129,847 L130,842 Z M128,855 L125,858 L125,864 L130,863 L132,859 L132,855 Z M125,877 L124,881 L129,882 L128,877 Z M115,888 L113,898 L116,903 L119,902 L119,889 Z M127,893 L125,895 L125,900 L129,900 L130,899 L130,894 Z M128,908 L125,910 L126,915 L131,914 L131,909 Z M116,924 L117,927 L118,924 Z M126,927 L125,928 L125,933 L128,933 L129,928 Z M116,935 L114,939 L113,945 L113,953 L114,954 L119,954 L119,936 Z M126,945 L125,946 L125,953 L129,952 L130,946 Z M-999,948 L-1001,951 L-1000,958 L-996,958 L-995,957 L-995,950 Z M126,962 L124,965 L124,971 L128,972 L131,967 L130,962 Z M117,964 Z M116,974 L115,975 L116,983 L113,987 L113,1004 L118,1005 L119,1003 L119,974 Z M125,979 L124,983 L125,986 L129,986 L127,979 Z M126,997 L125,998 L125,1003 L129,1003 L130,999 L129,997 Z M124,1013 L122,1014 L121,1023 L119,1027 L119,1032 L122,1033 L125,1031 L127,1023 L128,1014 Z M114,1016 L112,1023 L107,1028 L108,1033 L109,1035 L114,1034 L116,1020 L117,1016 Z M-459,1092 L-460,1094 L-457,1093 Z M63,1103 L61,1104 L62,1108 L66,1107 L67,1103 Z " fill="#000000" transform="translate(1006,0)"/>
<path d="M0,0 L3,2 L2,6 L-3,7 L-2,2 Z " fill="#000000" transform="translate(28,31)"/>
<path d="M0,0 L4,1 L3,6 L-1,4 Z " fill="#000000" transform="translate(300,742)"/>
<path d="M0,0 L5,1 L4,13 L6,15 L6,45 L2,48 L0,48 Z " fill="#000000" transform="translate(0,827)"/>
<path d="M0,0 L3,1 L4,12 L6,15 L5,24 L7,27 L6,43 L2,50 L0,50 Z " fill="#000000" transform="translate(0,879)"/>
<path d="M0,0 L9,1 L11,4 L-5,4 L-3,1 Z " fill="#000000" transform="translate(818,1112)"/>
<path d="M0,0 L7,1 L9,2 L9,4 L-6,4 L-3,1 Z " fill="#000000" transform="translate(837,1112)"/>
<path d="M0,0 L6,1 L7,4 L-6,4 L-5,2 Z " fill="#000000" transform="translate(890,1112)"/>
<path d="M0,0 L7,0 L9,1 L9,3 L-2,3 L-2,1 Z " fill="#000000" transform="translate(852,1113)"/>
<path d="M0,0 L7,0 L8,3 L-2,3 L-2,1 Z " fill="#000000" transform="translate(870,1113)"/>
<path d="M0,0 L7,0 L8,3 L-2,3 Z " fill="#000000" transform="translate(906,1113)"/>
<path d="M0,0 L6,0 L7,3 L-2,3 Z " fill="#000000" transform="translate(924,1113)"/>
<path d="M0,0 L7,0 L9,1 L9,3 L-2,3 L-2,1 Z " fill="#000000" transform="translate(941,1113)"/>
<path d="M0,0 L6,1 L6,3 L-2,3 L-2,1 Z " fill="#000000" transform="translate(960,1113)"/>
<path d="M0,0 L6,0 L8,3 L-1,3 Z " fill="#000000" transform="translate(977,1113)"/>
<path d="M0,0 L5,0 L7,3 L-1,3 Z " fill="#000000" transform="translate(995,1113)"/>
</svg>
