<?xml version="1.0" encoding="UTF-8"?>
<!-- Generator: visioncortex VTracer 0.6.12 -->
<svg version="1.1" xmlns="http://www.w3.org/2000/svg" width="1161" height="1215">
<path d="M0,0 L5,1 L7,2 L31,1 L38,0 L43,2 L84,3 L97,6 L114,6 L118,8 L128,8 L132,10 L148,13 L171,18 L184,21 L188,23 L196,23 L202,27 L210,29 L220,32 L234,37 L240,39 L250,39 L253,44 L265,50 L275,54 L291,61 L310,71 L315,73 L328,81 L338,86 L338,244 L334,242 L329,237 L319,229 L314,226 L310,222 L310,220 L306,218 L295,210 L282,202 L275,198 L270,194 L254,186 L243,179 L230,174 L220,168 L209,163 L187,156 L179,153 L171,150 L162,149 L157,146 L147,145 L136,141 L112,137 L108,136 L93,135 L84,133 L51,131 L22,131 L18,132 L-4,133 L-35,136 L-51,141 L-68,144 L-85,148 L-101,154 L-111,159 L-122,162 L-128,166 L-140,171 L-155,179 L-164,184 L-176,190 L-192,201 L-200,207 L-208,214 L-213,218 L-219,222 L-231,233 L-231,239 L-226,247 L-224,248 L-224,250 L-221,251 L-214,259 L-208,264 L-201,272 L-189,283 L-177,295 L-172,301 L-164,308 L-161,310 L-161,312 L-157,314 L-152,318 L-147,323 L-135,334 L-131,338 L-123,344 L-118,349 L-115,350 L-112,340 L-109,335 L-107,329 L-102,324 L-93,314 L-88,309 L-77,302 L-60,290 L-55,286 L-39,278 L-30,273 L-21,269 L-7,263 L7,259 L12,256 L25,253 L41,251 L74,251 L99,253 L122,258 L141,264 L160,272 L176,280 L186,285 L192,290 L201,295 L206,299 L210,304 L221,313 L231,324 L235,329 L242,335 L251,348 L258,359 L266,375 L271,390 L275,398 L279,411 L282,428 L285,438 L288,450 L289,462 L290,465 L290,490 L292,506 L293,509 L296,551 L297,581 L298,584 L298,598 L297,610 L297,660 L298,665 L299,698 L298,708 L300,714 L299,724 L294,731 L293,737 L297,739 L302,744 L313,754 L321,761 L332,772 L338,776 L338,1073 L326,1079 L319,1084 L309,1089 L302,1093 L292,1097 L279,1103 L263,1109 L248,1115 L236,1119 L217,1124 L213,1126 L203,1128 L180,1133 L175,1135 L155,1137 L146,1140 L137,1142 L131,1144 L105,1144 L101,1145 L86,1145 L79,1146 L25,1146 L12,1144 L-6,1143 L-9,1142 L-20,1141 L-23,1140 L-39,1138 L-53,1135 L-61,1132 L-73,1130 L-86,1127 L-99,1124 L-126,1115 L-147,1107 L-158,1102 L-167,1099 L-176,1095 L-183,1093 L-192,1087 L-208,1078 L-216,1073 L-221,1069 L-235,1062 L-246,1055 L-263,1044 L-271,1039 L-281,1031 L-291,1023 L-299,1017 L-314,1003 L-331,986 L-339,979 L-349,970 L-356,963 L-363,955 L-370,949 L-377,938 L-386,928 L-400,909 L-407,900 L-413,893 L-420,881 L-426,872 L-432,862 L-438,851 L-446,837 L-450,828 L-458,811 L-463,801 L-466,791 L-471,779 L-475,764 L-479,757 L-483,739 L-486,733 L-489,719 L-492,706 L-496,693 L-500,666 L-504,639 L-505,627 L-506,624 L-508,597 L-509,583 L-509,542 L-508,535 L-507,516 L-505,499 L-504,481 L-502,471 L-500,458 L-495,440 L-491,422 L-488,413 L-482,391 L-478,378 L-474,368 L-472,360 L-461,332 L-449,307 L-445,298 L-435,280 L-429,271 L-423,260 L-417,251 L-411,243 L-407,237 L-401,228 L-395,220 L-390,214 L-378,198 L-370,190 L-363,182 L-360,181 L-358,177 L-349,166 L-338,156 L-333,151 L-320,138 L-311,131 L-306,127 L-302,123 L-296,118 L-294,118 L-292,114 L-284,108 L-278,103 L-266,97 L-261,92 L-251,87 L-242,80 L-226,70 L-210,62 L-198,55 L-190,52 L-180,46 L-173,43 L-166,39 L-157,37 L-141,30 L-132,28 L-117,23 L-113,21 L-101,19 L-90,16 L-78,12 L-60,10 L-48,7 L-38,7 L-29,5 L-12,4 L-3,2 Z M-311,323 L-315,328 L-323,342 L-329,352 L-335,364 L-339,370 L-348,390 L-354,405 L-360,421 L-364,437 L-368,448 L-371,462 L-375,476 L-378,495 L-379,508 L-381,514 L-383,550 L-383,594 L-382,599 L-381,619 L-376,656 L-372,671 L-366,702 L-357,730 L-351,743 L-346,757 L-337,774 L-327,793 L-320,805 L-313,816 L-305,827 L-296,839 L-291,847 L-284,854 L-279,861 L-274,866 L-267,873 L-260,882 L-253,890 L-245,897 L-232,908 L-222,916 L-217,921 L-209,927 L-204,931 L-198,934 L-191,940 L-183,946 L-174,952 L-169,955 L-158,962 L-148,967 L-141,972 L-134,975 L-113,985 L-104,988 L-90,995 L-80,997 L-68,1002 L-56,1005 L-46,1007 L-41,1009 L-26,1011 L-19,1014 L-9,1014 L12,1018 L27,1019 L35,1019 L46,1020 L61,1020 L73,1019 L83,1019 L90,1018 L105,1018 L120,1015 L132,1013 L143,1013 L149,1009 L160,1008 L172,1005 L189,1000 L193,998 L201,996 L204,994 L214,992 L222,988 L247,978 L261,971 L282,958 L295,950 L304,944 L313,937 L323,931 L328,927 L332,921 L332,915 L325,907 L319,902 L314,897 L305,889 L297,882 L290,876 L285,871 L275,862 L266,852 L261,846 L249,837 L243,830 L236,826 L230,819 L222,813 L219,810 L214,810 L206,819 L198,825 L187,835 L179,840 L174,838 L173,833 L173,796 L172,768 L169,762 L158,751 L147,742 L142,736 L134,729 L120,715 L114,713 L112,708 L104,700 L96,693 L83,682 L67,667 L58,658 L56,658 L54,654 L37,638 L30,631 L27,627 L22,624 L14,617 L9,612 L1,605 L-7,598 L-15,590 L-22,584 L-25,585 L-26,642 L-27,653 L-26,659 L-25,703 L-25,734 L-22,749 L-15,757 L-7,761 L-6,766 L-11,774 L-18,782 L-26,789 L-33,795 L-44,804 L-53,812 L-55,817 L-58,818 L-58,820 L-60,820 L-67,828 L-76,833 L-81,839 L-89,843 L-95,843 L-109,832 L-118,823 L-128,815 L-136,808 L-142,801 L-150,794 L-172,772 L-175,767 L-174,760 L-167,757 L-159,753 L-157,750 L-157,677 L-156,663 L-156,640 L-157,632 L-157,604 L-158,565 L-158,485 L-159,462 L-162,457 L-167,452 L-175,445 L-180,440 L-188,433 L-198,424 L-209,413 L-213,408 L-218,405 L-224,398 L-229,393 L-240,383 L-248,376 L-258,364 L-260,364 L-260,362 L-274,351 L-278,346 L-286,340 L-291,334 L-302,325 L-305,323 Z M43,375 L31,378 L15,386 L5,390 L-2,394 L-9,405 L-15,412 L-19,421 L-28,430 L-28,435 L-20,444 L-12,451 L-5,459 L6,468 L12,473 L17,479 L23,483 L29,490 L39,498 L47,507 L52,511 L57,516 L68,526 L74,531 L79,536 L91,547 L99,555 L110,564 L118,573 L126,578 L133,587 L138,589 L141,594 L149,601 L159,610 L163,610 L165,597 L165,538 L164,523 L164,487 L161,474 L159,461 L155,451 L152,441 L148,430 L143,421 L137,412 L134,407 L126,399 L115,392 L100,384 L87,380 L74,376 L65,375 Z M-112,587 L-114,589 L-113,594 L-109,595 L-107,591 L-109,587 Z " fill="#000000" transform="translate(823,36)"/>
<path d="M0,0 L4,1 L11,9 L16,12 L25,23 L28,24 L32,29 L38,33 L47,44 L52,49 L64,62 L68,68 L73,72 L77,78 L77,80 L80,81 L80,83 L84,85 L90,95 L92,99 L94,99 L101,109 L104,111 L111,125 L118,134 L122,142 L128,151 L132,159 L139,170 L144,182 L149,191 L156,208 L161,216 L171,245 L176,259 L184,282 L189,306 L195,331 L198,347 L201,366 L203,398 L206,431 L206,469 L204,496 L202,518 L199,531 L196,549 L192,563 L184,593 L180,605 L178,614 L171,632 L164,651 L160,661 L153,676 L145,693 L140,702 L136,710 L123,731 L114,746 L105,761 L99,768 L92,780 L80,792 L71,804 L60,817 L51,825 L46,831 L38,838 L35,839 L33,843 L24,849 L21,854 L16,859 L7,865 L2,870 L0,870 L0,689 L2,689 L4,685 L10,674 L16,665 L22,654 L31,638 L37,628 L43,614 L46,610 L50,598 L55,583 L60,570 L63,558 L68,542 L72,525 L74,514 L75,512 L77,493 L79,484 L82,448 L82,430 L80,402 L75,369 L68,331 L61,299 L54,282 L49,270 L40,251 L37,240 L34,239 L29,230 L26,221 L20,211 L8,190 L2,181 L0,180 Z " fill="#000000" transform="translate(0,179)"/>
</svg>
