<?xml version="1.0" encoding="UTF-8"?>
<!-- Generator: visioncortex VTracer 0.6.12 -->
<svg version="1.1" xmlns="http://www.w3.org/2000/svg" width="903" height="1197">
<path d="M0,0 L58,0 L92,3 L115,6 L149,12 L176,19 L197,26 L210,30 L228,37 L245,43 L258,48 L267,53 L279,59 L295,67 L305,73 L316,79 L335,90 L349,99 L349,101 L352,102 L352,258 L348,257 L343,252 L341,248 L339,248 L339,246 L335,245 L331,240 L325,236 L314,227 L307,221 L307,219 L302,217 L297,213 L278,200 L269,194 L263,189 L247,181 L231,173 L207,162 L195,157 L182,152 L174,148 L161,144 L136,138 L105,132 L62,127 L17,127 L-22,130 L-44,133 L-75,140 L-87,143 L-120,154 L-132,159 L-142,164 L-162,172 L-170,177 L-183,185 L-188,191 L-211,203 L-220,210 L-233,219 L-241,225 L-243,225 L-244,228 L-251,234 L-253,234 L-254,237 L-258,239 L-266,249 L-273,257 L-283,266 L-289,273 L-298,284 L-306,294 L-315,307 L-324,320 L-332,334 L-336,342 L-341,348 L-346,361 L-353,371 L-358,386 L-360,389 L-361,396 L-364,403 L-370,419 L-374,429 L-378,446 L-379,453 L-381,457 L-382,464 L-385,473 L-388,496 L-390,513 L-391,540 L-391,579 L-388,619 L-384,650 L-376,675 L-373,687 L-370,696 L-368,705 L-360,725 L-352,740 L-347,753 L-342,763 L-338,771 L-333,780 L-326,790 L-317,804 L-307,819 L-300,828 L-300,831 L-298,831 L-289,842 L-283,846 L-276,857 L-262,872 L-255,880 L-246,887 L-241,891 L-237,896 L-235,897 L-235,899 L-229,901 L-222,908 L-214,915 L-208,918 L-208,920 L-204,922 L-193,929 L-183,935 L-169,942 L-159,949 L-143,957 L-123,966 L-104,974 L-75,984 L-51,990 L-37,993 L-25,994 L-7,998 L15,1000 L59,1000 L89,998 L104,996 L123,995 L142,992 L162,986 L179,982 L208,973 L234,961 L250,953 L266,945 L273,941 L275,941 L275,939 L285,933 L290,929 L297,924 L306,919 L319,910 L324,904 L331,899 L333,899 L333,897 L338,892 L342,890 L342,888 L350,882 L352,882 L352,1037 L345,1041 L342,1044 L335,1048 L327,1053 L303,1066 L287,1074 L256,1088 L232,1097 L204,1105 L180,1112 L155,1117 L138,1121 L119,1123 L87,1126 L77,1127 L53,1127 L41,1126 L0,1125 L-21,1124 L-43,1121 L-66,1116 L-88,1111 L-103,1106 L-133,1096 L-153,1089 L-173,1080 L-201,1067 L-217,1059 L-234,1050 L-247,1041 L-262,1031 L-274,1021 L-280,1018 L-280,1016 L-284,1014 L-294,1007 L-301,1002 L-308,994 L-314,990 L-325,981 L-334,972 L-339,967 L-343,962 L-348,957 L-357,950 L-364,942 L-369,937 L-375,928 L-382,920 L-387,915 L-393,907 L-397,900 L-402,895 L-415,877 L-418,872 L-424,863 L-429,854 L-434,848 L-439,838 L-442,836 L-446,826 L-451,818 L-455,813 L-460,798 L-465,791 L-470,777 L-472,774 L-472,767 L-474,767 L-480,755 L-482,745 L-484,742 L-485,735 L-490,723 L-493,708 L-496,704 L-502,679 L-504,671 L-505,658 L-507,653 L-510,639 L-511,624 L-513,604 L-514,582 L-514,517 L-512,492 L-511,487 L-510,470 L-506,451 L-505,441 L-502,434 L-500,423 L-495,402 L-492,392 L-490,387 L-487,372 L-484,369 L-481,357 L-476,344 L-470,331 L-465,317 L-461,312 L-458,302 L-449,285 L-441,270 L-436,264 L-433,259 L-430,254 L-426,246 L-421,237 L-418,236 L-416,231 L-405,215 L-400,209 L-398,209 L-396,204 L-388,193 L-381,185 L-379,185 L-378,182 L-376,182 L-375,179 L-373,179 L-371,175 L-366,170 L-364,170 L-362,166 L-354,156 L-345,149 L-343,149 L-341,144 L-330,134 L-322,127 L-314,119 L-301,110 L-293,104 L-282,97 L-267,88 L-258,80 L-242,72 L-232,66 L-225,62 L-206,53 L-190,46 L-182,42 L-173,38 L-160,33 L-150,29 L-137,25 L-116,19 L-96,14 L-70,9 L-39,4 L-13,1 Z " fill="#000000" transform="translate(551,38)"/>
<path d="M0,0 L12,0 L18,5 L20,13 L20,20 L18,27 L19,36 L22,43 L25,48 L25,57 L29,61 L38,62 L43,59 L49,48 L54,44 L59,41 L61,41 L61,39 L67,35 L69,32 L75,29 L84,28 L104,28 L123,26 L131,28 L139,32 L149,41 L163,46 L177,50 L183,55 L188,60 L193,68 L198,73 L200,78 L206,83 L217,90 L222,95 L224,101 L225,113 L225,138 L222,155 L219,159 L212,161 L190,163 L183,167 L180,188 L175,199 L167,210 L157,218 L146,223 L139,224 L126,224 L113,221 L102,214 L93,205 L93,203 L91,203 L87,196 L82,180 L80,168 L69,164 L42,164 L22,165 L12,167 L7,169 L6,174 L8,182 L8,191 L4,207 L-3,215 L-13,221 L-17,223 L-30,224 L-42,220 L-51,214 L-56,209 L-60,200 L-62,192 L-62,181 L-59,173 L-59,168 L-65,164 L-70,162 L-83,162 L-88,165 L-87,173 L-86,176 L-86,188 L-93,205 L-99,216 L-103,219 L-115,218 L-116,217 L-115,208 L-110,200 L-109,197 L-109,182 L-112,180 L-120,180 L-127,182 L-130,186 L-134,194 L-137,204 L-140,205 L-142,211 L-146,217 L-156,219 L-160,217 L-161,216 L-161,209 L-157,200 L-153,189 L-149,176 L-147,169 L-147,162 L-145,157 L-148,154 L-161,153 L-170,155 L-191,155 L-198,153 L-214,153 L-219,156 L-220,159 L-220,171 L-219,181 L-219,198 L-218,209 L-218,218 L-221,222 L-234,222 L-236,219 L-237,210 L-242,208 L-257,203 L-264,197 L-270,190 L-274,184 L-281,178 L-283,173 L-283,168 L-279,161 L-273,153 L-269,148 L-263,137 L-263,111 L-264,104 L-263,100 L-267,89 L-267,86 L-271,84 L-276,82 L-288,83 L-298,88 L-307,94 L-317,94 L-322,92 L-322,83 L-315,72 L-309,57 L-302,48 L-300,48 L-298,42 L-291,30 L-288,18 L-279,15 L-274,15 L-263,27 L-263,29 L-258,31 L-243,39 L-236,47 L-222,58 L-216,63 L-209,71 L-202,79 L-197,82 L-186,84 L-169,83 L-144,80 L-132,78 L-121,78 L-111,80 L-102,85 L-95,90 L-84,94 L-78,96 L-76,97 L-68,97 L-59,95 L-54,93 L-53,90 L-45,84 L-37,80 L-35,75 L-53,71 L-62,68 L-66,63 L-65,59 L-60,55 L-50,53 L-34,51 L-24,49 L-18,46 L-13,41 L-8,36 L-7,26 L-9,20 L-9,6 L-6,2 Z " fill="#000000" transform="translate(664,530)"/>
</svg>
