<?xml version="1.0" encoding="UTF-8"?>
<!-- Generator: visioncortex VTracer 0.6.12 -->
<svg version="1.1" xmlns="http://www.w3.org/2000/svg" width="1164" height="1062">
<path d="M0,0 L20,0 L34,3 L44,7 L58,17 L67,27 L71,31 L76,41 L84,51 L90,63 L99,77 L108,91 L114,102 L121,114 L124,118 L128,128 L134,135 L140,147 L145,155 L149,165 L154,173 L161,185 L163,189 L165,189 L173,207 L176,210 L178,216 L180,216 L188,231 L190,234 L194,247 L200,254 L205,264 L209,271 L217,287 L221,291 L223,298 L225,298 L231,308 L237,318 L240,324 L245,331 L249,338 L256,346 L260,353 L264,363 L271,379 L274,381 L279,391 L285,402 L295,419 L296,420 L296,627 L292,625 L288,618 L284,606 L279,599 L276,596 L273,586 L270,585 L262,569 L256,561 L252,554 L249,547 L246,545 L242,535 L237,526 L234,523 L230,513 L225,507 L218,494 L214,489 L206,472 L201,465 L195,453 L192,448 L186,437 L171,414 L165,400 L161,396 L157,389 L154,382 L150,378 L144,361 L138,351 L133,340 L130,331 L125,326 L119,318 L111,302 L108,297 L108,295 L104,293 L98,283 L88,265 L85,259 L81,252 L72,236 L66,224 L60,215 L54,203 L54,201 L52,201 L46,186 L39,176 L33,165 L33,163 L30,162 L26,155 L22,149 L18,146 L4,145 L-6,148 L-8,154 L-14,163 L-18,172 L-20,172 L-22,177 L-30,188 L-35,199 L-41,210 L-47,218 L-51,228 L-55,232 L-62,246 L-65,247 L-67,252 L-74,266 L-79,274 L-82,282 L-87,291 L-89,292 L-93,301 L-99,311 L-101,312 L-105,321 L-112,332 L-117,342 L-119,342 L-121,347 L-127,357 L-129,362 L-133,366 L-137,376 L-142,382 L-151,396 L-154,406 L-160,415 L-164,423 L-170,435 L-173,436 L-175,442 L-181,451 L-185,458 L-188,466 L-193,471 L-200,488 L-201,490 L-203,490 L-205,495 L-211,505 L-213,510 L-217,514 L-223,528 L-229,535 L-234,547 L-236,547 L-238,552 L-248,568 L-253,578 L-262,597 L-269,606 L-275,619 L-278,627 L-286,638 L-296,656 L-303,667 L-309,678 L-316,688 L-319,693 L-321,699 L-323,699 L-326,708 L-331,717 L-335,724 L-342,736 L-351,751 L-355,759 L-358,762 L-361,770 L-365,775 L-373,791 L-379,798 L-384,810 L-388,816 L-396,831 L-401,839 L-405,846 L-411,854 L-419,869 L-422,874 L-425,884 L-424,888 L-416,891 L-340,891 L-273,889 L-109,888 L4,887 L29,887 L94,888 L161,888 L239,889 L296,889 L296,991 L269,991 L107,989 L-20,988 L-128,989 L-151,990 L-206,990 L-324,991 L-405,992 L-480,991 L-500,990 L-512,986 L-523,980 L-536,968 L-540,963 L-541,960 L-545,956 L-550,940 L-551,939 L-551,909 L-547,896 L-543,888 L-538,880 L-533,870 L-528,861 L-527,859 L-525,859 L-522,850 L-519,849 L-517,844 L-509,830 L-504,822 L-494,807 L-485,790 L-479,780 L-475,771 L-469,761 L-461,750 L-459,750 L-458,747 L-456,747 L-455,744 L-453,744 L-452,733 L-447,724 L-441,714 L-437,706 L-428,690 L-424,682 L-420,676 L-414,664 L-408,654 L-400,639 L-396,633 L-392,625 L-384,614 L-379,604 L-373,594 L-370,588 L-365,582 L-361,573 L-353,560 L-347,548 L-343,543 L-338,533 L-329,519 L-324,509 L-318,501 L-311,487 L-309,487 L-307,481 L-301,471 L-294,456 L-287,445 L-284,437 L-280,433 L-276,428 L-272,416 L-269,412 L-267,412 L-264,403 L-258,394 L-252,382 L-250,377 L-248,374 L-246,374 L-244,369 L-236,354 L-232,349 L-228,341 L-225,336 L-220,327 L-215,317 L-207,306 L-203,300 L-201,300 L-198,288 L-192,280 L-180,259 L-174,247 L-169,240 L-164,228 L-159,224 L-151,208 L-147,198 L-139,184 L-135,177 L-129,167 L-124,158 L-120,151 L-116,147 L-112,138 L-109,131 L-99,115 L-95,109 L-93,109 L-92,103 L-89,97 L-87,96 L-83,89 L-77,78 L-73,73 L-70,66 L-68,59 L-65,54 L-61,50 L-51,34 L-47,27 L-41,20 L-36,15 L-27,9 L-18,5 L-7,1 Z " fill="#000000" transform="translate(868,37)"/>
<path d="M0,0 L16,0 L24,4 L31,11 L36,16 L41,23 L46,28 L51,35 L56,40 L58,45 L58,51 L55,57 L47,64 L41,69 L33,76 L20,87 L16,90 L14,90 L12,94 L11,96 L6,99 L2,104 L-2,105 L-4,109 L-10,114 L-14,118 L-25,127 L-32,134 L-41,141 L-47,147 L-49,147 L-51,151 L-57,155 L-66,164 L-72,168 L-77,173 L-85,180 L-98,192 L-103,197 L-106,198 L-108,202 L-118,210 L-122,214 L-130,221 L-139,228 L-144,233 L-152,240 L-159,246 L-164,251 L-172,258 L-179,264 L-181,264 L-182,267 L-190,274 L-196,279 L-201,284 L-211,292 L-220,302 L-224,311 L-225,319 L-224,333 L-224,359 L-223,367 L-222,389 L-220,391 L-216,392 L-198,392 L-192,389 L-187,388 L-172,388 L-158,393 L-155,397 L-157,399 L-166,400 L-183,399 L-192,402 L-192,404 L-188,406 L-174,407 L-160,406 L-151,407 L-143,412 L-135,413 L-126,412 L-106,411 L-97,409 L-92,407 L-84,405 L-77,401 L-76,399 L-74,399 L-72,395 L-64,390 L-53,387 L-41,387 L-28,391 L-23,396 L-22,401 L-19,404 L-7,410 L6,411 L17,411 L36,409 L45,406 L54,402 L57,399 L58,393 L62,390 L68,388 L84,387 L94,388 L102,391 L105,393 L105,398 L102,400 L63,400 L63,403 L74,405 L77,406 L98,406 L121,403 L125,401 L136,399 L138,398 L140,380 L141,372 L141,305 L145,300 L156,297 L165,296 L215,296 L233,298 L242,300 L251,305 L258,318 L261,320 L261,471 L159,471 L139,467 L124,462 L104,460 L95,460 L89,461 L65,461 L49,462 L31,464 L13,465 L5,463 L-17,461 L-32,461 L-40,462 L-54,462 L-72,461 L-94,462 L-105,465 L-117,465 L-127,463 L-136,460 L-166,460 L-171,461 L-202,463 L-218,465 L-245,467 L-364,467 L-394,466 L-404,463 L-406,461 L-406,456 L-400,446 L-392,430 L-389,426 L-383,414 L-377,404 L-366,384 L-362,377 L-360,372 L-355,364 L-352,357 L-350,357 L-349,352 L-346,347 L-341,339 L-336,329 L-333,325 L-329,315 L-323,307 L-319,300 L-307,296 L-294,295 L-264,294 L-251,292 L-246,289 L-247,284 L-249,280 L-254,275 L-260,267 L-265,262 L-269,257 L-271,247 L-266,238 L-262,235 L-260,235 L-258,231 L-251,224 L-243,217 L-233,208 L-227,203 L-223,198 L-215,191 L-208,185 L-206,185 L-206,183 L-202,179 L-200,179 L-200,177 L-194,173 L-186,166 L-181,159 L-170,150 L-165,146 L-157,139 L-144,127 L-134,119 L-127,113 L-123,108 L-115,101 L-113,101 L-113,99 L-105,92 L-93,81 L-83,74 L-78,69 L-73,64 L-68,59 L-61,52 L-53,45 L-47,41 L-42,36 L-37,30 L-32,26 L-30,23 L-28,23 L-28,21 L-22,17 L-9,5 L-7,5 L-7,3 Z M-47,400 L-55,401 L-55,405 L-53,406 L-39,406 L-35,405 L-36,402 L-43,400 Z M-183,419 L-193,421 L-198,426 L-198,428 L-189,430 L-157,429 L-148,428 L-143,430 L-134,429 L-128,432 L-111,433 L-102,432 L-100,431 L-99,427 L-105,425 L-112,424 L-130,424 L-134,425 L-144,425 L-151,422 L-165,420 Z M-54,421 L-61,422 L-61,426 L-52,429 L-38,429 L-34,428 L-31,429 L-24,427 L-21,426 L-22,423 L-29,423 L-38,421 Z M74,421 L62,423 L63,425 L74,428 L90,428 L97,425 L96,422 L93,421 Z M2,423 L-18,425 L-19,428 L-11,432 L-3,434 L28,432 L36,430 L42,430 L46,426 L43,425 L39,426 L25,423 Z M-185,440 L-194,442 L-196,446 L-191,449 L-148,449 L-134,454 L-102,454 L-95,452 L-95,448 L-104,445 L-110,444 L-145,444 L-159,442 L-161,441 Z M-58,441 L-65,444 L-65,446 L-59,449 L-53,450 L-18,450 L-6,453 L5,454 L26,454 L41,451 L42,448 L28,444 L22,443 L-18,443 L-35,441 Z M90,440 L71,441 L62,444 L62,446 L74,449 L85,450 L94,450 L99,449 L112,449 L112,446 L105,442 Z " fill="#000000" transform="translate(903,428)"/>
<path d="M0,0 L5,5 L13,21 L17,28 L17,30 L20,31 L30,50 L36,61 L47,80 L53,89 L61,105 L65,111 L68,116 L72,126 L81,142 L86,150 L90,159 L92,164 L95,165 L99,174 L101,181 L103,181 L106,189 L112,197 L118,207 L122,217 L126,222 L130,229 L133,237 L134,241 L138,243 L142,252 L144,259 L148,261 L152,269 L155,279 L157,279 L162,289 L167,298 L171,302 L175,311 L182,321 L190,334 L196,346 L199,356 L203,362 L205,368 L205,379 L206,388 L203,405 L202,407 L200,407 L199,412 L195,422 L191,428 L186,431 L182,438 L168,447 L150,453 L122,455 L70,456 L38,455 L0,455 L0,354 L9,354 L13,353 L31,354 L62,354 L79,353 L84,350 L84,343 L76,327 L70,317 L65,303 L56,290 L48,274 L43,265 L40,259 L34,250 L28,240 L23,231 L16,221 L9,207 L5,199 L2,195 L2,193 L0,193 Z " fill="#000000" transform="translate(0,569)"/>
</svg>
