<?xml version="1.0" encoding="UTF-8"?>
<!-- Generator: visioncortex VTracer 0.6.12 -->
<svg version="1.1" xmlns="http://www.w3.org/2000/svg" width="1164" height="924">
<path d="M0,0 L5,0 L14,7 L28,14 L28,99 L25,105 L22,113 L16,122 L11,128 L12,133 L25,141 L28,142 L28,207 L23,205 L13,200 L3,195 L-4,193 L-8,189 L-19,184 L-32,178 L-41,174 L-48,170 L-56,168 L-61,163 L-63,160 L-65,149 L-68,142 L-70,132 L-79,103 L-83,86 L-84,65 L-85,55 L-80,48 L-74,44 L-57,35 L-51,32 L-35,24 L-10,12 L-5,9 L-3,7 L-1,1 Z " fill="#000000" transform="translate(1136,25)"/>
<path d="M0,0 L8,1 L23,7 L35,12 L43,16 L55,21 L68,26 L80,32 L87,34 L93,38 L97,45 L95,58 L92,74 L89,82 L86,96 L81,110 L78,125 L73,140 L67,149 L62,154 L47,162 L43,165 L30,170 L11,179 L1,184 L-8,189 L-18,193 L-35,202 L-44,207 L-54,212 L-61,216 L-75,221 L-86,227 L-91,230 L-108,238 L-120,244 L-126,247 L-135,251 L-141,254 L-147,258 L-162,263 L-167,267 L-178,271 L-186,275 L-192,278 L-201,280 L-217,289 L-244,302 L-257,309 L-263,314 L-265,318 L-264,324 L-254,331 L-239,339 L-230,343 L-216,350 L-201,356 L-191,362 L-175,370 L-165,374 L-148,382 L-136,388 L-128,391 L-123,395 L-109,400 L-99,405 L-79,414 L-67,420 L-57,424 L-49,428 L-33,436 L-21,442 L-12,445 L-7,449 L7,456 L17,459 L26,465 L35,468 L41,472 L62,482 L72,492 L79,509 L82,518 L84,529 L88,538 L91,553 L97,575 L99,584 L101,589 L99,592 L90,595 L81,601 L72,605 L56,613 L49,616 L42,621 L32,624 L23,630 L14,633 L12,638 L7,637 L3,636 L-5,636 L-15,632 L-25,628 L-30,625 L-38,623 L-46,618 L-64,610 L-72,606 L-77,603 L-87,600 L-99,594 L-110,588 L-118,584 L-133,578 L-145,573 L-162,567 L-176,560 L-187,555 L-201,549 L-211,543 L-222,540 L-232,534 L-243,530 L-247,529 L-247,527 L-252,525 L-259,522 L-265,520 L-275,514 L-285,509 L-297,504 L-309,498 L-325,490 L-344,482 L-356,477 L-368,469 L-375,467 L-381,463 L-395,457 L-403,452 L-420,445 L-424,442 L-434,438 L-443,434 L-453,430 L-457,427 L-471,422 L-483,422 L-505,431 L-521,439 L-534,444 L-550,452 L-558,456 L-563,459 L-572,461 L-586,469 L-605,478 L-615,483 L-631,491 L-642,497 L-655,504 L-662,506 L-678,514 L-694,522 L-700,524 L-708,528 L-716,532 L-721,535 L-731,539 L-744,545 L-752,550 L-756,555 L-769,559 L-772,561 L-782,563 L-797,570 L-807,575 L-812,577 L-828,585 L-841,590 L-857,598 L-862,602 L-872,606 L-878,610 L-881,610 L-881,554 L-872,548 L-853,540 L-846,536 L-831,528 L-821,523 L-807,516 L-802,513 L-799,509 L-799,483 L-800,480 L-801,446 L-802,445 L-809,446 L-816,451 L-835,459 L-845,463 L-862,472 L-872,476 L-881,480 L-881,419 L-870,415 L-865,412 L-853,405 L-838,399 L-826,394 L-823,391 L-807,383 L-798,379 L-780,369 L-772,365 L-763,362 L-749,355 L-741,351 L-713,338 L-703,333 L-696,327 L-695,320 L-699,314 L-705,310 L-716,304 L-723,301 L-727,298 L-743,290 L-759,282 L-767,278 L-773,274 L-784,270 L-794,265 L-804,259 L-812,256 L-823,251 L-833,248 L-839,244 L-849,240 L-864,232 L-881,224 L-881,164 L-864,170 L-854,174 L-841,181 L-833,184 L-822,189 L-817,191 L-811,190 L-810,188 L-809,156 L-808,149 L-808,135 L-811,128 L-816,124 L-829,116 L-838,112 L-843,109 L-858,104 L-872,97 L-881,93 L-881,34 L-876,35 L-870,38 L-864,40 L-854,45 L-848,49 L-840,52 L-831,57 L-816,63 L-810,67 L-793,75 L-787,79 L-776,83 L-767,86 L-757,92 L-741,100 L-732,105 L-724,107 L-716,111 L-707,115 L-704,118 L-686,124 L-670,132 L-659,138 L-654,141 L-624,154 L-617,158 L-604,163 L-595,168 L-565,181 L-560,185 L-555,187 L-540,194 L-528,199 L-514,206 L-504,210 L-494,215 L-484,220 L-469,221 L-463,218 L-452,214 L-436,206 L-426,201 L-420,199 L-415,193 L-399,186 L-394,183 L-387,179 L-384,177 L-376,175 L-364,168 L-355,164 L-346,161 L-334,155 L-325,150 L-314,146 L-304,141 L-294,137 L-286,132 L-274,126 L-261,121 L-245,113 L-235,108 L-225,104 L-216,99 L-200,91 L-184,83 L-160,72 L-149,67 L-142,66 L-134,59 L-125,55 L-106,46 L-94,41 L-85,36 L-78,33 L-62,25 L-48,18 L-41,15 L-33,13 L-22,6 L-9,1 Z M-58,50 L-61,55 L-59,60 L-55,61 L-51,57 L-52,52 L-55,50 Z M-58,83 L-72,90 L-91,99 L-101,102 L-111,106 L-127,114 L-141,122 L-152,127 L-154,131 L-154,191 L-151,197 L-147,198 L-137,192 L-126,188 L-110,180 L-97,175 L-92,173 L-81,166 L-63,158 L-49,151 L-45,147 L-44,142 L-45,94 L-49,85 L-52,83 Z M-732,108 L-732,110 L-729,110 L-729,108 Z M-250,173 L-256,177 L-265,181 L-282,189 L-303,198 L-319,206 L-325,208 L-331,212 L-342,218 L-345,223 L-347,227 L-346,245 L-344,277 L-342,288 L-340,290 L-335,289 L-322,283 L-310,278 L-304,274 L-295,271 L-289,267 L-270,258 L-260,254 L-253,247 L-243,240 L-239,234 L-238,213 L-237,208 L-237,200 L-239,181 L-242,175 L-245,173 Z M-707,177 L-711,181 L-713,190 L-713,240 L-710,245 L-703,249 L-696,252 L-688,258 L-686,259 L-675,260 L-663,267 L-652,271 L-643,274 L-638,277 L-631,280 L-624,285 L-612,290 L-606,291 L-604,289 L-603,276 L-603,242 L-604,229 L-607,224 L-612,220 L-628,212 L-638,210 L-642,207 L-649,205 L-659,199 L-664,195 L-674,192 L-681,186 L-694,181 L-702,177 Z M-437,266 L-449,272 L-452,274 L-461,277 L-469,281 L-479,282 L-495,275 L-505,270 L-512,268 L-517,269 L-519,272 L-521,292 L-520,300 L-520,376 L-517,380 L-512,379 L-508,376 L-496,370 L-490,366 L-479,363 L-470,363 L-455,367 L-439,375 L-432,374 L-430,368 L-429,348 L-430,344 L-430,293 L-431,268 L-433,266 Z M-613,350 L-629,358 L-645,368 L-671,380 L-676,385 L-686,389 L-694,395 L-702,400 L-706,406 L-709,423 L-709,434 L-708,439 L-706,461 L-703,466 L-696,466 L-686,461 L-676,455 L-667,451 L-658,445 L-643,438 L-633,433 L-623,429 L-612,424 L-607,421 L-604,418 L-603,415 L-602,396 L-603,388 L-603,368 L-604,361 L-605,352 L-606,350 Z M-338,351 L-342,355 L-343,359 L-343,420 L-336,426 L-328,429 L-321,430 L-314,433 L-301,437 L-290,444 L-277,448 L-264,454 L-254,458 L-243,463 L-238,461 L-237,450 L-237,403 L-240,397 L-245,393 L-265,386 L-282,377 L-297,369 L-309,364 L-312,362 L-324,359 L-335,352 Z M-154,443 L-156,445 L-158,457 L-158,503 L-151,511 L-136,519 L-125,523 L-113,528 L-106,531 L-99,534 L-83,542 L-67,550 L-54,556 L-45,558 L-42,554 L-38,514 L-39,494 L-46,488 L-62,480 L-67,477 L-76,474 L-86,469 L-95,465 L-99,462 L-111,458 L-120,455 L-130,451 L-144,444 L-147,443 Z M-847,571 L-847,575 L-844,575 L-844,571 Z " fill="#000000" transform="translate(881,183)"/>
<path d="M0,0 Z " fill="#000000" transform="translate(688,478)"/>
<path d="M0,0 L3,0 L3,59 L-2,63 L-2,68 L1,73 L1,75 L3,75 L3,188 L-1,190 L-14,189 L-37,179 L-51,173 L-62,169 L-77,161 L-90,155 L-100,154 L-104,150 L-100,134 L-93,100 L-89,85 L-85,70 L-83,60 L-80,52 L-74,41 L-69,37 L-53,29 L-36,19 L-24,13 L-13,7 Z " fill="#000000" transform="translate(1161,494)"/>
<path d="M0,0 L2,0 L2,192 L-4,192 L-9,183 L-12,181 L-19,180 L-29,175 L-48,166 L-56,164 L-66,158 L-72,154 L-84,148 L-94,143 L-96,141 L-95,134 L-92,128 L-90,113 L-86,104 L-84,94 L-80,81 L-75,67 L-72,57 L-68,41 L-63,32 L-57,27 L-51,24 L-41,22 L-35,19 L-27,14 L-14,7 L-9,4 Z " fill="#000000" transform="translate(1162,717)"/>
</svg>
