<?xml version="1.0" encoding="UTF-8"?>
<!-- Generator: visioncortex VTracer 0.6.12 -->
<svg version="1.1" xmlns="http://www.w3.org/2000/svg" width="1110" height="993">
<path d="M0,0 L78,0 L83,5 L92,13 L101,27 L105,35 L111,44 L119,56 L123,63 L126,67 L130,75 L137,85 L145,101 L149,106 L159,124 L162,129 L170,140 L179,156 L187,169 L193,181 L199,188 L203,196 L211,209 L219,223 L225,234 L233,245 L237,251 L242,259 L245,264 L248,272 L254,281 L258,288 L263,297 L267,302 L272,311 L282,330 L293,349 L299,358 L305,366 L309,376 L319,395 L326,407 L332,416 L340,427 L346,438 L352,447 L359,460 L365,470 L371,481 L382,499 L386,505 L391,514 L395,519 L404,536 L410,544 L415,553 L419,559 L424,569 L430,579 L438,593 L452,617 L462,633 L465,637 L470,647 L478,658 L482,666 L488,674 L493,684 L503,701 L507,706 L511,716 L517,725 L525,738 L532,749 L538,759 L547,775 L552,783 L563,803 L569,812 L574,820 L579,826 L587,842 L593,850 L601,865 L605,871 L605,951 L603,951 L601,956 L595,966 L585,973 L577,977 L569,982 L559,984 L554,986 L511,987 L499,988 L493,989 L490,988 L437,988 L418,989 L415,990 L382,990 L366,991 L305,991 L294,992 L293,993 L-481,993 L-488,987 L-493,980 L-497,976 L-503,969 L-505,968 L-505,890 L-500,883 L-492,867 L-485,858 L-482,855 L-478,843 L-469,827 L-464,820 L-460,812 L-450,794 L-446,786 L-440,777 L-437,771 L-432,764 L-428,755 L-421,743 L-414,730 L-407,718 L-403,708 L-395,695 L-387,679 L-383,673 L-378,663 L-370,648 L-365,641 L-361,633 L-351,614 L-343,601 L-331,578 L-325,568 L-315,550 L-308,537 L-296,515 L-287,499 L-283,494 L-275,478 L-269,469 L-261,452 L-251,436 L-247,426 L-242,419 L-237,410 L-230,397 L-227,390 L-224,386 L-221,379 L-212,366 L-197,339 L-188,324 L-182,314 L-178,304 L-169,289 L-161,274 L-156,265 L-152,260 L-147,248 L-143,242 L-139,234 L-135,225 L-125,208 L-119,200 L-111,182 L-105,173 L-101,166 L-95,158 L-90,145 L-83,135 L-78,125 L-74,119 L-66,103 L-61,95 L-56,87 L-52,80 L-40,60 L-36,51 L-32,44 L-29,39 L-22,28 L-16,17 L-7,5 L-1,2 Z M39,128 L34,131 L28,138 L21,148 L13,164 L8,172 L0,188 L-7,202 L-13,211 L-19,222 L-30,244 L-34,250 L-37,254 L-41,263 L-46,271 L-50,279 L-57,290 L-67,309 L-73,318 L-81,335 L-86,344 L-97,362 L-101,369 L-113,391 L-120,404 L-126,415 L-131,421 L-140,437 L-143,443 L-150,456 L-155,465 L-161,477 L-168,487 L-176,503 L-179,508 L-183,517 L-190,529 L-196,540 L-202,551 L-207,560 L-214,570 L-221,583 L-229,599 L-233,607 L-243,624 L-252,639 L-257,648 L-265,663 L-268,670 L-279,687 L-287,703 L-301,728 L-308,739 L-316,753 L-319,759 L-322,762 L-324,769 L-338,793 L-343,803 L-349,812 L-349,814 L-354,816 L-357,825 L-365,841 L-373,853 L-379,865 L-385,875 L-392,890 L-391,897 L-388,900 L-385,901 L-333,901 L-263,899 L-249,898 L-201,897 L-160,897 L-136,896 L-109,895 L-87,895 L-57,894 L-53,895 L-6,894 L26,894 L34,893 L73,893 L95,892 L103,893 L107,892 L116,892 L122,893 L127,892 L201,891 L208,892 L210,891 L226,890 L243,890 L250,891 L256,890 L299,889 L342,889 L357,888 L393,887 L410,888 L421,887 L436,887 L451,886 L478,886 L486,883 L488,880 L487,872 L481,862 L468,839 L461,828 L456,821 L452,812 L447,804 L444,799 L434,781 L428,772 L421,762 L418,756 L408,738 L402,728 L389,706 L383,696 L376,685 L368,672 L363,664 L360,658 L356,653 L349,639 L342,628 L336,618 L332,610 L325,599 L315,583 L311,574 L305,565 L299,554 L292,542 L282,526 L272,507 L267,500 L262,491 L255,480 L250,470 L246,464 L238,448 L232,439 L226,427 L219,417 L216,411 L213,407 L209,399 L199,383 L196,377 L189,367 L181,352 L177,346 L173,335 L168,332 L159,315 L150,302 L145,293 L138,283 L133,274 L123,257 L117,247 L108,232 L102,222 L97,215 L93,205 L88,199 L81,188 L76,181 L69,167 L60,153 L55,144 L50,137 L46,128 Z M-91,950 L-90,955 L-88,954 L-88,950 Z M297,975 L295,978 L296,983 L301,982 L303,980 L302,975 Z " fill="#000000" transform="translate(505,0)"/>
<path d="M0,0 L13,0 L18,3 L20,5 L20,13 L18,15 L18,23 L23,25 L44,37 L55,44 L69,51 L75,55 L77,58 L76,64 L70,69 L66,71 L59,79 L55,83 L56,87 L58,88 L95,89 L118,88 L126,89 L213,89 L226,88 L236,89 L240,88 L277,88 L290,89 L297,88 L326,88 L339,90 L345,92 L355,94 L357,95 L369,97 L377,100 L380,103 L381,108 L382,138 L381,163 L382,184 L383,212 L385,216 L389,218 L405,217 L412,218 L414,221 L413,228 L406,231 L393,232 L389,235 L384,236 L377,236 L374,235 L353,234 L348,236 L348,242 L353,244 L372,244 L379,245 L394,244 L408,245 L428,245 L444,246 L445,247 L445,252 L443,254 L434,255 L432,256 L354,256 L326,257 L276,257 L257,258 L160,258 L106,259 L19,259 L16,260 L-7,261 L-135,261 L-141,258 L-140,254 L-125,251 L-120,249 L-112,249 L-105,250 L-87,249 L-83,248 L-82,243 L-83,241 L-88,240 L-114,242 L-121,241 L-127,237 L-128,232 L-126,230 L-116,229 L-109,227 L-107,221 L-104,191 L-104,176 L-102,167 L-101,139 L-99,135 L-99,121 L-93,109 L-85,102 L-83,101 L-61,101 L-44,100 L-37,98 L-38,94 L-48,85 L-59,77 L-72,67 L-73,65 L-73,57 L-68,53 L-58,48 L-44,40 L-36,35 L-20,27 L-15,23 L-10,19 L-10,8 L-5,2 Z M-12,33 L-29,44 L-41,50 L-50,56 L-53,60 L-52,65 L-41,75 L-33,81 L-23,90 L-15,96 L-5,101 L8,102 L17,97 L27,89 L34,83 L53,70 L60,64 L61,59 L60,55 L51,52 L45,48 L40,45 L35,42 L25,38 L19,35 L14,34 L10,35 L-1,35 L-6,33 Z M268,111 L262,115 L260,118 L260,206 L261,214 L266,217 L273,218 L283,218 L291,214 L293,206 L293,169 L292,122 L289,114 L284,112 Z M306,111 L300,116 L299,118 L299,209 L303,214 L307,216 L327,216 L332,212 L333,187 L332,117 L328,112 L326,111 Z M-47,112 L-52,115 L-53,118 L-53,210 L-51,217 L-46,222 L-24,223 L-19,220 L-17,215 L-16,201 L-16,166 L-17,134 L-18,131 L-19,119 L-22,114 L-27,112 Z M211,111 L194,112 L187,113 L179,113 L176,115 L174,125 L174,161 L176,168 L180,171 L211,171 L246,170 L251,166 L253,160 L254,126 L251,116 L247,113 L238,111 L229,112 Z M155,112 L86,114 L81,119 L79,141 L80,163 L82,168 L86,171 L106,171 L123,172 L143,172 L161,171 L166,168 L167,166 L168,148 L168,124 L166,116 L161,112 Z M25,114 L20,115 L6,115 L-1,118 L-4,121 L-5,125 L-5,161 L-3,168 L4,171 L68,171 L73,167 L74,165 L74,122 L71,117 L66,115 L57,114 Z M365,121 L345,122 L341,124 L339,129 L338,142 L339,162 L343,168 L349,169 L371,168 L374,163 L374,126 L370,122 Z M-86,123 L-91,128 L-94,144 L-94,166 L-89,170 L-80,172 L-66,171 L-62,167 L-61,165 L-61,131 L-65,125 L-69,123 Z M35,234 L32,235 L14,237 L11,241 L11,246 L15,249 L66,249 L70,248 L77,248 L79,249 L104,249 L129,248 L151,248 L184,247 L193,246 L225,246 L231,247 L239,247 L244,244 L245,239 L241,236 L232,234 L194,234 L186,235 L128,234 L113,235 L101,235 L95,234 L76,235 L56,235 L50,234 Z M288,235 L282,237 L281,238 L281,243 L286,246 L308,246 L311,245 L312,238 L309,236 L296,235 Z M-41,237 L-46,242 L-45,248 L-43,249 L-26,250 L-22,247 L-22,241 L-27,237 Z " fill="#000000" transform="translate(418,555)"/>
</svg>
