<?xml version="1.0" encoding="UTF-8"?>
<!-- Generator: visioncortex VTracer 0.6.12 -->
<svg version="1.1" xmlns="http://www.w3.org/2000/svg" width="1161" height="1200">
<path d="M0,0 L12,0 L13,1 L30,1 L33,3 L44,2 L49,3 L55,2 L65,7 L79,9 L82,7 L86,8 L89,11 L97,11 L106,15 L115,16 L116,17 L124,18 L126,20 L135,20 L138,23 L139,25 L147,25 L159,31 L169,32 L176,37 L196,45 L205,48 L210,50 L218,55 L228,59 L232,62 L243,66 L260,76 L265,80 L266,85 L268,86 L268,231 L264,230 L255,222 L249,218 L245,214 L226,201 L222,198 L214,194 L205,188 L190,179 L181,174 L171,170 L156,162 L139,156 L128,151 L110,145 L102,143 L90,138 L79,137 L60,133 L49,130 L30,128 L18,126 L2,125 L-33,126 L-40,127 L-58,127 L-65,129 L-82,130 L-87,132 L-97,132 L-109,134 L-129,137 L-139,141 L-150,145 L-162,148 L-174,153 L-191,159 L-207,167 L-227,177 L-235,182 L-244,186 L-256,194 L-267,202 L-275,207 L-286,216 L-295,223 L-305,231 L-311,239 L-319,245 L-330,257 L-338,265 L-340,265 L-342,269 L-350,279 L-363,295 L-372,308 L-379,319 L-391,336 L-398,348 L-403,358 L-413,377 L-417,389 L-421,396 L-427,411 L-434,432 L-436,443 L-443,466 L-446,485 L-448,505 L-450,517 L-451,523 L-451,544 L-452,557 L-452,568 L-451,572 L-449,604 L-446,624 L-443,635 L-441,646 L-438,662 L-433,678 L-429,692 L-423,708 L-420,716 L-418,719 L-415,728 L-407,747 L-397,765 L-394,772 L-386,786 L-378,797 L-374,802 L-365,816 L-356,827 L-347,838 L-340,846 L-327,859 L-322,865 L-322,867 L-318,869 L-313,874 L-313,876 L-309,878 L-302,884 L-294,891 L-287,897 L-278,903 L-268,911 L-258,919 L-249,925 L-237,932 L-225,940 L-216,945 L-208,949 L-197,955 L-181,962 L-169,967 L-157,972 L-145,978 L-136,980 L-122,985 L-107,987 L-91,992 L-81,994 L-63,996 L-60,997 L-46,998 L-45,999 L-5,1001 L23,1001 L27,1000 L38,1000 L45,998 L63,997 L68,995 L85,993 L94,990 L103,989 L109,987 L120,985 L125,982 L147,977 L152,974 L161,971 L171,966 L184,961 L191,956 L205,949 L215,944 L222,940 L231,932 L239,928 L250,920 L259,913 L265,909 L268,908 L268,1061 L261,1064 L251,1070 L237,1077 L226,1081 L212,1088 L204,1090 L192,1095 L171,1103 L156,1107 L141,1111 L116,1116 L106,1119 L103,1120 L89,1121 L84,1124 L82,1126 L75,1126 L69,1124 L65,1125 L47,1127 L31,1128 L20,1129 L9,1128 L-15,1128 L-22,1127 L-34,1127 L-37,1126 L-54,1126 L-60,1124 L-82,1122 L-84,1121 L-101,1119 L-131,1112 L-145,1108 L-157,1105 L-168,1102 L-171,1100 L-180,1098 L-190,1094 L-203,1089 L-208,1086 L-217,1083 L-233,1076 L-241,1072 L-258,1065 L-264,1061 L-275,1054 L-294,1043 L-305,1036 L-318,1027 L-329,1020 L-339,1011 L-355,1000 L-365,991 L-376,982 L-384,976 L-395,964 L-405,955 L-412,947 L-420,940 L-430,931 L-437,923 L-442,918 L-452,906 L-454,901 L-458,899 L-466,888 L-472,880 L-478,871 L-481,868 L-485,861 L-495,845 L-498,839 L-502,834 L-507,827 L-509,820 L-513,812 L-516,808 L-521,796 L-527,784 L-532,772 L-535,765 L-541,750 L-544,741 L-550,722 L-554,708 L-561,685 L-564,669 L-567,660 L-570,642 L-571,640 L-572,622 L-574,609 L-576,586 L-577,535 L-573,490 L-571,476 L-570,463 L-568,458 L-562,426 L-558,412 L-553,394 L-551,389 L-549,379 L-545,369 L-542,363 L-540,354 L-534,338 L-530,332 L-525,321 L-520,312 L-512,296 L-504,280 L-497,269 L-487,253 L-480,241 L-477,240 L-475,236 L-463,219 L-456,210 L-454,210 L-452,205 L-442,194 L-435,186 L-429,178 L-424,174 L-422,171 L-420,171 L-418,167 L-412,162 L-407,157 L-399,150 L-392,142 L-379,131 L-371,125 L-367,123 L-363,118 L-355,113 L-352,108 L-344,105 L-340,103 L-338,99 L-328,94 L-312,83 L-296,74 L-288,69 L-272,61 L-261,54 L-253,51 L-244,47 L-237,45 L-226,40 L-217,36 L-211,32 L-208,30 L-187,27 L-183,22 L-172,15 L-168,16 L-166,19 L-161,18 L-160,17 L-147,16 L-142,13 L-134,12 L-128,10 L-118,10 L-101,7 L-92,5 L-84,6 L-81,3 L-67,2 L-58,1 L-54,2 L-37,3 L-26,3 L-14,2 L-11,1 Z M-197,968 L-198,970 L-197,972 L-194,972 L-194,968 Z " fill="#000000" transform="translate(893,37)"/>
<path d="M0,0 L5,5 L17,15 L17,17 L21,19 L34,30 L44,40 L44,42 L49,44 L56,53 L62,57 L65,62 L65,64 L69,66 L75,74 L84,84 L93,94 L98,101 L103,106 L109,116 L110,120 L114,122 L122,133 L126,138 L131,146 L134,155 L137,156 L141,165 L147,175 L155,191 L155,194 L158,195 L166,211 L172,222 L176,237 L179,242 L182,254 L184,261 L189,276 L191,279 L194,290 L196,299 L199,311 L203,323 L205,332 L208,357 L210,369 L212,374 L214,396 L215,414 L215,464 L211,502 L210,503 L208,524 L204,544 L202,559 L199,572 L197,579 L194,595 L190,608 L186,616 L182,632 L178,643 L174,651 L168,671 L166,674 L164,674 L163,681 L157,692 L155,692 L152,702 L143,718 L137,730 L132,736 L125,750 L116,761 L112,762 L110,771 L109,773 L107,773 L105,777 L100,782 L95,791 L91,796 L89,796 L87,800 L82,805 L73,817 L68,822 L62,829 L54,836 L49,842 L38,851 L33,855 L28,861 L21,867 L19,867 L18,870 L16,870 L15,873 L9,877 L7,879 L4,879 L3,882 L0,883 L0,707 L6,702 L11,693 L19,682 L25,672 L31,662 L45,636 L49,626 L53,616 L60,601 L66,581 L70,572 L77,542 L81,527 L84,505 L87,488 L89,456 L89,428 L87,395 L84,374 L81,359 L78,343 L73,327 L70,313 L61,288 L57,277 L53,268 L48,257 L45,251 L36,234 L31,225 L25,217 L19,205 L11,194 L6,188 L2,181 L0,180 Z " fill="#000000" transform="translate(0,149)"/>
<path d="M0,0 L11,2 L19,9 L25,16 L26,22 L23,27 L21,28 L12,27 L4,21 L-2,20 L-22,27 L-48,36 L-52,39 L-54,44 L-53,53 L-45,63 L-41,68 L-39,73 L-38,84 L-38,90 L-32,98 L-20,107 L-9,115 L-2,121 L7,127 L11,130 L16,133 L24,140 L31,144 L39,154 L42,159 L45,180 L51,191 L58,202 L66,209 L75,217 L83,221 L96,225 L103,226 L124,226 L135,219 L140,214 L143,211 L149,203 L155,193 L158,186 L166,170 L170,162 L177,148 L185,132 L190,118 L195,108 L197,100 L194,95 L186,90 L178,84 L162,75 L159,71 L160,65 L165,63 L191,61 L212,61 L240,62 L244,66 L244,78 L237,87 L230,93 L226,102 L226,110 L229,119 L234,131 L239,142 L251,168 L254,171 L254,173 L263,173 L273,171 L276,170 L289,169 L306,169 L325,170 L339,174 L353,181 L360,184 L364,186 L364,247 L361,246 L354,238 L343,231 L327,223 L320,219 L311,217 L286,217 L276,220 L273,224 L274,231 L281,247 L289,263 L297,268 L307,270 L315,274 L322,283 L330,287 L338,288 L347,287 L361,288 L364,289 L364,297 L331,297 L325,300 L313,312 L304,315 L293,314 L285,311 L269,312 L271,317 L274,321 L273,328 L264,332 L247,331 L238,331 L233,334 L234,341 L243,352 L251,360 L261,367 L273,373 L289,377 L291,378 L312,378 L335,373 L346,367 L352,362 L357,359 L362,352 L364,352 L364,400 L349,407 L325,415 L297,416 L278,413 L263,409 L249,403 L243,399 L238,396 L228,389 L219,382 L215,377 L208,371 L197,354 L190,340 L185,327 L180,324 L148,322 L120,321 L98,321 L93,325 L90,333 L90,343 L95,348 L97,350 L96,355 L92,357 L70,357 L62,354 L61,350 L64,347 L72,344 L75,341 L78,331 L78,318 L74,316 L67,308 L61,298 L58,289 L58,276 L61,267 L61,259 L55,252 L49,248 L37,237 L29,229 L19,221 L8,213 L-5,202 L-12,194 L-24,183 L-32,178 L-42,169 L-48,165 L-54,161 L-59,162 L-59,169 L-54,174 L-44,181 L-30,190 L-22,198 L-22,200 L-18,202 L-11,211 L-4,221 L2,233 L5,237 L13,262 L15,276 L15,301 L13,323 L10,330 L7,337 L0,342 L-7,351 L-12,361 L-26,376 L-31,380 L-40,387 L-48,393 L-57,397 L-66,401 L-82,407 L-93,409 L-106,410 L-115,411 L-128,410 L-131,408 L-147,404 L-163,398 L-174,392 L-185,384 L-195,375 L-206,363 L-218,346 L-223,336 L-229,321 L-233,303 L-233,272 L-230,259 L-228,251 L-224,239 L-221,233 L-219,217 L-215,209 L-207,202 L-202,196 L-188,185 L-179,178 L-167,172 L-163,169 L-150,166 L-145,164 L-131,161 L-88,161 L-84,157 L-80,145 L-79,136 L-82,133 L-101,128 L-106,123 L-107,121 L-107,108 L-106,93 L-108,87 L-110,87 L-112,84 L-112,79 L-109,77 L-100,77 L-95,79 L-81,80 L-74,84 L-62,85 L-61,83 L-61,72 L-65,66 L-71,59 L-74,54 L-75,42 L-73,32 L-70,27 L-62,22 L-52,17 L-34,11 L-26,10 L-23,8 L-15,6 Z M203,141 L197,149 L193,160 L185,176 L174,197 L166,213 L160,224 L156,238 L157,244 L165,248 L172,248 L180,249 L185,244 L193,229 L197,223 L207,210 L211,205 L222,196 L228,189 L229,183 L221,165 L218,161 L214,151 L208,142 Z M-115,206 L-139,209 L-158,219 L-166,225 L-167,227 L-167,234 L-163,240 L-146,257 L-141,262 L-131,270 L-128,272 L-122,272 L-115,262 L-110,251 L-105,234 L-102,219 L-102,211 L-107,206 Z M-75,218 L-80,226 L-84,235 L-90,256 L-93,268 L-97,278 L-98,287 L-94,292 L-87,293 L-73,293 L-55,294 L-40,293 L-33,292 L-30,288 L-30,279 L-33,262 L-38,250 L-44,240 L-56,227 L-67,220 L-70,218 Z M250,232 L244,236 L237,244 L233,250 L234,254 L239,258 L259,261 L266,261 L267,260 L267,254 L263,246 L259,236 L255,232 Z M-180,244 L-187,252 L-192,262 L-195,274 L-195,292 L-192,311 L-181,336 L-178,337 L-176,341 L-171,345 L-166,353 L-155,359 L-136,368 L-118,371 L-106,371 L-91,369 L-76,363 L-60,353 L-50,345 L-44,341 L-41,334 L-36,323 L-33,315 L-33,306 L-37,302 L-41,301 L-60,300 L-88,300 L-103,301 L-113,306 L-122,306 L-131,302 L-135,295 L-138,279 L-147,268 L-160,257 L-166,252 L-170,246 L-173,244 Z " fill="#000000" transform="translate(797,385)"/>
</svg>
