<?xml version="1.0" encoding="UTF-8"?>
<!-- Generator: visioncortex VTracer 0.6.12 -->
<svg version="1.1" xmlns="http://www.w3.org/2000/svg" width="1014" height="1071">
<path d="M0,0 L20,0 L32,2 L41,5 L53,10 L65,21 L65,23 L70,25 L75,34 L81,43 L91,59 L97,69 L102,78 L109,88 L116,102 L121,109 L126,118 L137,136 L146,151 L160,175 L165,184 L171,193 L178,205 L184,215 L190,227 L197,236 L203,248 L209,256 L219,274 L223,280 L226,287 L230,292 L238,308 L245,319 L252,330 L255,334 L258,340 L266,354 L271,361 L275,370 L284,384 L292,398 L298,407 L306,422 L312,431 L320,446 L326,455 L335,471 L343,484 L349,494 L357,511 L364,520 L371,534 L383,555 L390,565 L396,577 L400,583 L406,595 L410,600 L414,607 L421,619 L426,629 L432,638 L440,652 L447,663 L452,673 L455,678 L463,692 L471,705 L476,715 L483,726 L496,749 L500,756 L503,761 L512,776 L524,797 L531,809 L541,826 L549,839 L553,844 L558,853 L566,867 L578,887 L583,898 L584,903 L584,916 L588,927 L588,937 L579,958 L575,962 L571,970 L560,981 L554,984 L551,987 L537,993 L527,996 L518,995 L512,997 L497,998 L419,998 L414,999 L410,998 L382,998 L375,999 L372,997 L362,998 L358,997 L355,999 L331,999 L327,997 L322,998 L321,999 L297,1000 L271,1000 L253,1002 L232,1000 L164,1001 L136,1000 L120,1000 L116,1002 L107,1001 L81,1002 L74,1001 L57,1002 L24,1002 L20,1001 L-13,1001 L-19,1002 L-32,1001 L-48,1001 L-53,1002 L-180,1002 L-205,1003 L-309,1003 L-318,1002 L-376,1002 L-385,1003 L-392,1002 L-392,903 L-388,902 L-369,902 L-364,901 L-355,901 L-346,902 L-339,903 L-328,901 L-269,901 L-247,900 L-228,901 L-215,902 L-200,901 L-178,901 L-156,900 L-150,901 L-141,900 L-124,900 L-110,901 L-102,900 L-91,901 L-83,900 L35,900 L56,899 L127,899 L134,898 L144,899 L212,899 L214,898 L251,899 L259,898 L306,898 L312,899 L319,898 L330,898 L332,899 L375,899 L387,898 L395,897 L400,898 L408,898 L410,897 L450,897 L458,895 L458,886 L455,878 L452,872 L448,866 L445,859 L433,838 L424,824 L421,821 L416,812 L409,799 L405,792 L400,784 L387,762 L380,750 L373,740 L368,730 L364,725 L361,720 L358,712 L352,703 L349,698 L346,691 L341,682 L334,672 L326,656 L320,646 L313,636 L308,626 L302,618 L297,610 L293,603 L289,597 L281,581 L277,575 L275,570 L268,558 L263,550 L256,538 L253,532 L247,523 L244,518 L241,510 L229,492 L225,485 L214,467 L204,452 L196,436 L189,425 L184,415 L180,410 L173,398 L165,385 L158,371 L147,352 L143,347 L134,330 L127,319 L121,311 L117,303 L111,292 L104,283 L101,275 L94,263 L91,258 L86,250 L82,244 L74,230 L70,222 L67,219 L61,207 L57,202 L52,192 L43,176 L37,166 L31,158 L27,150 L23,145 L21,144 L20,137 L16,136 L9,139 L7,145 L4,149 L2,154 L0,154 L-2,162 L-9,171 L-14,181 L-19,189 L-27,205 L-30,211 L-37,221 L-40,226 L-44,236 L-50,245 L-59,262 L-62,266 L-68,281 L-73,287 L-78,299 L-90,317 L-92,322 L-101,338 L-105,345 L-109,352 L-117,366 L-124,380 L-130,391 L-139,405 L-146,419 L-154,433 L-158,443 L-161,448 L-166,456 L-176,475 L-184,489 L-191,503 L-199,517 L-207,533 L-210,539 L-214,546 L-217,553 L-224,564 L-229,572 L-233,582 L-237,590 L-240,594 L-243,601 L-255,622 L-264,638 L-268,644 L-274,656 L-280,666 L-286,678 L-296,696 L-298,698 L-300,705 L-309,719 L-313,727 L-320,742 L-324,749 L-327,756 L-331,763 L-338,774 L-343,782 L-349,794 L-352,799 L-362,818 L-370,833 L-373,836 L-378,848 L-385,860 L-390,870 L-392,870 L-392,662 L-389,658 L-385,648 L-381,641 L-377,634 L-369,621 L-363,612 L-360,605 L-357,601 L-353,593 L-345,580 L-342,574 L-337,566 L-331,554 L-321,536 L-316,526 L-312,521 L-304,505 L-300,499 L-293,485 L-285,469 L-281,463 L-273,447 L-268,438 L-260,424 L-256,418 L-252,407 L-246,399 L-242,392 L-234,375 L-228,366 L-220,349 L-214,338 L-210,332 L-206,325 L-198,309 L-191,298 L-185,284 L-179,277 L-173,264 L-169,255 L-162,244 L-159,240 L-155,230 L-150,224 L-145,212 L-135,194 L-123,174 L-119,166 L-114,154 L-105,139 L-97,125 L-89,112 L-85,106 L-82,98 L-78,92 L-74,84 L-70,75 L-63,63 L-57,51 L-53,44 L-42,26 L-35,19 L-25,11 L-22,9 L-13,6 L-4,2 Z M393,617 L392,621 L403,621 L402,617 Z M359,699 L360,703 L364,704 L363,700 Z M-262,943 L-263,946 L-260,945 Z M-257,955 L-256,960 L-252,961 L-250,960 L-252,956 Z M-232,962 L-232,966 L-228,970 L-224,970 L-225,965 L-228,962 Z " fill="#000000" transform="translate(392,36)"/>
<path d="M0,0 L7,1 L16,8 L25,19 L31,23 L40,34 L52,47 L63,58 L71,65 L79,77 L80,83 L81,122 L81,185 L84,196 L87,199 L103,201 L184,201 L191,206 L194,216 L193,252 L191,262 L183,265 L161,267 L155,268 L134,268 L128,269 L93,269 L84,274 L80,280 L79,340 L78,344 L78,353 L79,361 L80,423 L80,444 L78,453 L74,458 L67,458 L59,453 L54,450 L49,444 L41,437 L37,432 L32,427 L25,421 L20,416 L15,412 L12,409 L3,406 L-4,406 L-12,410 L-20,417 L-26,421 L-31,429 L-46,445 L-54,452 L-61,459 L-69,465 L-75,465 L-77,463 L-80,454 L-81,389 L-81,337 L-82,287 L-85,275 L-94,271 L-96,270 L-106,270 L-111,269 L-126,269 L-132,270 L-135,269 L-149,268 L-180,269 L-190,265 L-196,257 L-195,248 L-196,236 L-196,218 L-193,210 L-189,205 L-182,203 L-170,202 L-134,202 L-124,201 L-103,201 L-92,200 L-87,195 L-84,190 L-82,171 L-82,100 L-79,81 L-74,71 L-64,61 L-57,53 L-52,49 L-45,41 L-40,37 L-32,27 L-22,18 L-10,6 Z " fill="#000000" transform="translate(443,399)"/>
</svg>
