<?xml version="1.0" encoding="UTF-8"?>
<!-- Generator: visioncortex VTracer 0.6.12 -->
<svg version="1.1" xmlns="http://www.w3.org/2000/svg" width="1143" height="1140">
<path d="M0,0 L22,0 L22,2 L11,6 L-4,15 L-14,26 L-24,45 L-26,62 L-27,97 L-27,131 L-28,219 L-28,253 L-29,257 L-29,263 L-31,265 L-31,38 L-24,25 L-17,15 L-7,6 L-2,2 L0,2 Z " fill="#000000" transform="translate(31,0)"/>
<path d="M0,0 L6,0 L6,1 L0,1 Z " fill="#000000" transform="translate(363,0)"/>
<path d="M0,0 L6,0 L5,2 L0,1 Z " fill="#000000" transform="translate(378,0)"/>
<path d="M0,0 L10,0 L10,1 L0,1 Z " fill="#000000" transform="translate(393,0)"/>
<path d="M0,0 L2,1 Z " fill="#000000" transform="translate(424,0)"/>
<path d="M0,0 L13,0 L11,2 L3,2 Z " fill="#000000" transform="translate(434,0)"/>
<path d="M0,0 L11,0 L9,2 L2,2 Z " fill="#000000" transform="translate(450,0)"/>
<path d="M0,0 L635,0 L640,3 L652,9 L664,17 L674,28 L677,31 L677,46 L674,45 L668,34 L659,23 L645,14 L634,10 L621,7 L595,7 L480,6 L379,6 L359,5 L355,4 L210,4 L114,3 L16,3 L1,2 Z " fill="#000000" transform="translate(466,0)"/>
<path d="M0,0 L61,0 L107,1 L113,2 L122,3 L136,4 L144,6 L160,8 L187,15 L204,19 L225,26 L226,27 L235,29 L250,35 L259,38 L270,43 L283,48 L293,53 L305,58 L310,61 L324,69 L338,76 L348,83 L361,90 L369,96 L375,99 L386,108 L392,112 L403,120 L414,129 L422,136 L433,145 L442,153 L447,158 L466,177 L474,187 L479,191 L485,200 L494,210 L505,224 L512,234 L524,251 L534,266 L544,283 L553,299 L559,309 L562,314 L566,324 L571,334 L574,341 L584,365 L592,386 L594,394 L600,414 L607,438 L609,450 L611,454 L613,455 L613,686 L611,686 L609,698 L605,714 L603,723 L595,751 L592,759 L589,768 L582,785 L579,794 L573,807 L560,835 L552,851 L545,861 L539,873 L533,882 L530,887 L518,903 L512,912 L502,925 L490,939 L480,951 L473,959 L470,963 L468,963 L466,967 L453,980 L446,988 L438,995 L427,1004 L415,1014 L410,1019 L395,1030 L386,1037 L372,1047 L350,1061 L341,1067 L330,1073 L314,1081 L308,1085 L292,1093 L268,1103 L255,1108 L241,1114 L228,1118 L215,1123 L197,1128 L196,1129 L-100,1129 L-108,1125 L-132,1118 L-147,1112 L-168,1105 L-183,1098 L-202,1090 L-209,1085 L-227,1077 L-248,1065 L-261,1057 L-277,1046 L-287,1039 L-297,1032 L-307,1024 L-320,1014 L-325,1010 L-329,1006 L-339,998 L-344,994 L-350,987 L-358,980 L-363,975 L-374,964 L-379,957 L-386,951 L-394,941 L-403,930 L-414,916 L-426,900 L-435,886 L-445,870 L-451,860 L-461,843 L-467,831 L-473,819 L-479,806 L-491,778 L-496,764 L-503,743 L-506,734 L-509,719 L-514,703 L-518,684 L-520,671 L-523,656 L-526,629 L-525,540 L-524,493 L-520,473 L-517,455 L-512,434 L-507,417 L-505,410 L-500,394 L-498,390 L-496,381 L-490,365 L-485,352 L-477,336 L-467,314 L-462,306 L-456,294 L-449,282 L-437,262 L-431,254 L-427,248 L-417,233 L-405,217 L-400,211 L-396,210 L-395,204 L-388,197 L-381,188 L-376,186 L-374,181 L-367,173 L-339,145 L-326,135 L-315,125 L-305,118 L-293,109 L-283,101 L-271,94 L-259,86 L-251,80 L-229,68 L-217,61 L-205,56 L-191,49 L-183,46 L-168,40 L-163,37 L-150,33 L-128,25 L-118,22 L-109,19 L-100,17 L-84,13 L-75,11 L-60,7 L-47,5 L-42,4 L-28,3 L-16,1 Z M114,203 L114,207 L119,207 L118,203 Z M-120,239 L-130,241 L-143,248 L-150,252 L-156,260 L-161,267 L-164,276 L-167,294 L-167,340 L-164,354 L-159,367 L-152,376 L-145,383 L-137,388 L-124,392 L-112,393 L-100,390 L-90,385 L-79,376 L-73,368 L-68,359 L-63,338 L-62,328 L-62,298 L-65,284 L-69,270 L-75,258 L-84,249 L-91,245 L-101,240 L-111,239 Z M-302,240 L-306,244 L-308,260 L-307,349 L-308,358 L-308,378 L-307,386 L-303,390 L-298,391 L-259,391 L-250,389 L-238,384 L-228,377 L-219,367 L-215,359 L-209,343 L-206,327 L-206,302 L-209,290 L-212,279 L-220,264 L-229,254 L-238,247 L-250,242 L-257,241 L-289,240 L-295,241 Z M219,242 L206,245 L197,251 L185,262 L178,276 L175,286 L173,298 L172,309 L172,338 L175,353 L179,365 L187,378 L193,385 L209,394 L218,395 L231,395 L242,393 L253,387 L260,381 L268,371 L273,360 L277,339 L278,326 L278,311 L277,296 L273,277 L267,265 L258,254 L248,247 L233,242 Z M35,245 L31,249 L30,284 L30,390 L34,394 L48,394 L52,389 L53,302 L58,302 L65,314 L71,326 L75,332 L80,342 L88,356 L95,368 L107,390 L112,394 L129,394 L132,391 L133,381 L133,255 L132,248 L123,245 L116,245 L111,249 L110,284 L109,338 L103,336 L97,324 L89,311 L85,303 L78,293 L74,284 L67,273 L59,257 L55,252 L52,247 L49,245 Z M320,247 L315,250 L314,251 L314,261 L318,265 L333,265 L345,266 L346,267 L347,275 L347,388 L349,394 L350,395 L365,395 L369,393 L370,385 L370,325 L371,270 L375,266 L402,265 L404,262 L404,253 L401,248 L382,247 Z M11,410 L12,413 L14,412 L14,410 Z M-397,471 L-440,472 L-444,476 L-445,478 L-451,520 L-454,567 L-454,598 L-452,632 L-450,640 L-449,654 L-445,663 L-440,665 L-419,665 L-388,666 L-374,666 L-344,667 L-257,667 L-132,668 L48,668 L87,669 L182,669 L191,670 L199,669 L206,670 L240,670 L304,671 L376,671 L460,672 L479,671 L492,672 L512,672 L525,673 L534,671 L536,668 L538,652 L541,627 L543,598 L543,553 L541,523 L537,494 L533,481 L530,478 L526,477 L462,477 L419,476 L310,476 L186,474 L20,474 L16,471 L7,473 L-148,473 L-168,472 L-241,471 Z M-322,700 L-321,703 Z M-258,745 L-271,746 L-274,749 L-275,752 L-275,890 L-271,894 L-257,895 L-186,895 L-183,891 L-183,878 L-187,874 L-222,873 L-246,873 L-250,871 L-252,865 L-252,835 L-250,830 L-246,828 L-213,828 L-208,826 L-207,824 L-208,810 L-212,807 L-227,806 L-251,805 L-252,800 L-252,774 L-250,767 L-246,766 L-226,767 L-189,766 L-187,761 L-187,749 L-189,746 L-197,745 Z M-135,746 L-137,748 L-139,759 L-140,789 L-140,891 L-135,894 L-122,895 L-119,892 L-118,886 L-118,839 L-117,807 L-116,805 L-111,806 L-104,820 L-98,829 L-93,836 L-90,844 L-82,857 L-74,872 L-69,880 L-63,891 L-58,895 L-42,895 L-38,891 L-37,773 L-38,749 L-41,746 L-54,746 L-59,749 L-60,764 L-60,831 L-62,839 L-67,838 L-72,828 L-80,813 L-87,801 L-101,777 L-111,758 L-118,749 L-121,747 L-126,746 Z M140,747 L138,752 L137,762 L137,790 L136,827 L136,892 L139,895 L142,896 L175,897 L194,897 L206,898 L220,897 L227,894 L228,887 L227,879 L224,876 L168,875 L161,873 L159,865 L159,839 L161,832 L164,830 L201,830 L203,827 L204,815 L201,810 L198,809 L162,807 L160,804 L160,774 L162,769 L166,767 L172,768 L196,769 L218,769 L223,766 L224,765 L224,751 L219,748 L158,747 Z M8,748 L5,751 L4,754 L4,762 L8,766 L34,767 L37,770 L38,777 L37,788 L37,892 L38,894 L51,896 L58,895 L60,889 L61,860 L61,810 L62,771 L66,767 L93,767 L96,762 L96,753 L91,749 L85,748 L70,749 L66,748 Z M309,749 L299,750 L280,750 L277,753 L276,765 L275,808 L275,823 L274,848 L273,890 L275,897 L279,899 L293,899 L296,895 L297,875 L298,838 L302,834 L327,835 L329,841 L336,858 L340,871 L345,883 L350,897 L353,899 L369,900 L372,899 L373,895 L369,882 L365,873 L354,840 L352,836 L353,829 L369,813 L374,800 L375,786 L371,774 L365,765 L357,757 L344,751 L321,750 Z M25,784 L24,787 L27,787 L27,784 Z " fill="#000000" transform="translate(530,11)"/>
<path d="M0,0 L2,3 L1,9 L0,9 Z " fill="#000000" transform="translate(0,268)"/>
<path d="M0,0 L16,0 L23,3 L30,10 L34,17 L38,32 L39,47 L39,60 L38,73 L34,89 L30,98 L21,106 L14,110 L2,110 L-6,106 L-11,102 L-18,88 L-21,75 L-22,65 L-22,43 L-19,24 L-15,14 L-10,6 Z " fill="#000000" transform="translate(406,272)"/>
<path d="M0,0 L17,0 L27,2 L36,8 L41,13 L47,26 L51,42 L52,58 L49,74 L46,85 L40,95 L32,102 L18,107 L0,107 L-5,104 L-6,95 L-6,15 L-5,4 Z " fill="#000000" transform="translate(250,273)"/>
<path d="M0,0 L13,4 L20,11 L24,21 L28,41 L29,59 L27,74 L25,86 L19,101 L10,109 L6,111 L-10,111 L-21,104 L-26,97 L-31,80 L-32,72 L-32,45 L-30,30 L-26,18 L-21,9 L-14,3 L-9,1 Z " fill="#000000" transform="translate(757,273)"/>
<path d="M0,0 L31,0 L39,2 L46,8 L50,18 L50,25 L46,33 L39,39 L34,41 L0,41 L-4,37 L-4,6 L-1,1 Z " fill="#000000" transform="translate(832,782)"/>
<path d="M0,0 L2,0 L2,22 L-1,25 L-9,36 L-14,42 L-23,48 L-24,50 L-39,50 L-39,48 L-27,42 L-17,33 L-11,26 L-7,19 L-2,7 Z " fill="#000000" transform="translate(1141,1090)"/>
<path d="M0,0 L4,4 L10,14 L19,24 L28,30 L40,36 L45,38 L71,41 L71,42 L30,42 L21,36 L13,30 L3,20 L0,16 Z " fill="#000000" transform="translate(0,1098)"/>
<path d="M0,0 L9,0 L9,2 L-2,2 Z " fill="#000000" transform="translate(78,1138)"/>
<path d="M0,0 L11,0 L12,2 L-1,2 Z " fill="#000000" transform="translate(94,1138)"/>
</svg>
