<?xml version="1.0" encoding="UTF-8"?>
<!-- Generator: visioncortex VTracer 0.6.12 -->
<svg version="1.1" xmlns="http://www.w3.org/2000/svg" width="1164" height="1206">
<path d="M0,0 L7,4 L12,3 L16,1 L23,2 L24,3 L29,3 L32,1 L38,1 L42,4 L48,4 L51,1 L56,1 L60,4 L65,4 L70,1 L76,3 L81,4 L87,0 L92,0 L95,4 L100,4 L104,1 L109,1 L113,4 L118,4 L122,1 L128,2 L131,4 L136,4 L140,1 L145,2 L147,4 L153,4 L158,0 L162,1 L165,4 L172,3 L175,1 L182,2 L185,4 L190,3 L192,1 L198,1 L203,5 L208,3 L211,1 L216,2 L218,4 L224,3 L230,1 L237,4 L244,3 L249,1 L253,4 L259,4 L265,0 L270,1 L271,3 L276,4 L281,1 L287,2 L288,3 L288,14 L280,13 L273,14 L268,13 L266,14 L259,14 L255,11 L249,12 L246,12 L242,11 L238,14 L227,13 L224,15 L215,14 L210,15 L204,12 L199,13 L196,14 L194,13 L194,11 L187,12 L185,14 L177,13 L174,15 L163,14 L155,14 L152,11 L149,11 L147,14 L142,13 L140,11 L135,12 L133,13 L125,13 L123,14 L112,14 L110,15 L104,15 L100,12 L97,12 L95,15 L90,14 L88,11 L84,12 L83,13 L73,13 L69,15 L60,14 L51,14 L47,13 L44,15 L39,15 L37,12 L31,12 L24,13 L19,13 L14,15 L12,14 L-1,15 L-4,12 L-8,13 L-10,15 L-14,14 L-16,12 L-22,12 L-25,13 L-32,12 L-37,15 L-46,14 L-53,15 L-60,14 L-66,14 L-69,12 L-85,12 L-88,14 L-110,14 L-116,15 L-121,12 L-136,12 L-139,15 L-168,15 L-172,12 L-187,12 L-190,15 L-200,14 L-206,15 L-220,15 L-223,12 L-227,13 L-228,14 L-233,14 L-235,12 L-240,13 L-243,15 L-248,14 L-251,13 L-254,15 L-267,15 L-271,16 L-278,12 L-282,15 L-286,14 L-289,11 L-294,13 L-295,14 L-303,14 L-311,15 L-325,15 L-327,12 L-331,11 L-332,14 L-337,14 L-340,11 L-345,13 L-350,14 L-356,13 L-358,14 L-377,14 L-379,12 L-384,13 L-388,15 L-392,12 L-397,13 L-403,14 L-406,13 L-410,15 L-428,15 L-433,11 L-437,15 L-442,14 L-444,12 L-449,12 L-451,14 L-460,14 L-464,16 L-472,15 L-476,17 L-484,17 L-498,20 L-508,23 L-511,26 L-521,27 L-522,30 L-525,32 L-533,33 L-535,39 L-541,43 L-545,48 L-551,49 L-559,40 L-557,34 L-552,33 L-547,38 L-542,37 L-541,31 L-547,30 L-547,27 L-537,20 L-521,12 L-511,8 L-499,6 L-495,4 L-484,3 L-482,4 L-472,4 L-469,2 L-464,3 L-463,4 L-448,3 L-446,4 L-403,3 L-400,4 L-383,4 L-377,5 L-374,4 L-356,4 L-354,3 L-339,4 L-332,3 L-329,5 L-320,3 L-304,3 L-296,2 L-293,4 L-287,4 L-280,3 L-276,5 L-269,4 L-266,2 L-260,3 L-243,3 L-234,4 L-232,2 L-226,2 L-223,4 L-217,4 L-214,2 L-207,3 L-200,4 L-197,2 L-181,3 L-177,1 L-172,2 L-170,4 L-163,3 L-162,2 L-156,2 L-152,4 L-147,3 L-143,1 L-137,2 L-135,3 L-129,3 L-127,2 L-120,2 L-118,4 L-113,4 L-109,1 L-104,1 L-100,4 L-94,3 L-91,1 L-85,1 L-82,3 L-76,2 L-75,1 L-69,1 L-65,4 L-58,4 L-58,2 L-51,1 L-47,4 L-42,4 L-38,1 L-33,1 L-31,3 L-25,3 L-20,1 L-14,1 L-11,4 L-5,4 Z " fill="#000000" transform="translate(876,37)"/>
<path d="M0,0 L5,1 L8,4 L15,3 L21,1 L29,5 L37,1 L44,6 L49,4 L52,1 L57,1 L61,4 L67,4 L69,2 L76,2 L78,4 L85,4 L89,0 L94,2 L97,6 L101,5 L105,1 L111,1 L115,4 L121,3 L124,0 L129,2 L131,4 L137,4 L141,1 L145,2 L147,4 L154,4 L157,1 L163,2 L165,4 L171,4 L175,1 L180,1 L183,4 L190,3 L194,0 L198,1 L201,4 L207,4 L212,0 L217,3 L218,4 L225,4 L228,1 L234,2 L236,4 L242,3 L246,1 L252,2 L254,4 L260,4 L264,1 L269,2 L272,4 L277,4 L281,1 L286,1 L290,4 L297,2 L303,1 L311,5 L314,5 L317,1 L322,2 L324,4 L331,4 L335,1 L340,2 L341,3 L350,3 L357,2 L358,3 L369,4 L383,4 L389,3 L397,4 L401,3 L407,5 L409,4 L445,4 L451,3 L473,4 L481,5 L485,3 L492,3 L499,4 L502,3 L525,3 L527,4 L536,3 L542,2 L552,3 L560,2 L563,3 L571,3 L578,2 L582,4 L589,4 L589,1091 L576,1093 L554,1093 L546,1094 L541,1091 L527,1091 L526,1092 L514,1092 L513,1093 L493,1093 L490,1089 L484,1090 L481,1091 L475,1090 L473,1092 L467,1092 L464,1091 L460,1093 L453,1092 L449,1091 L442,1092 L439,1089 L428,1090 L423,1090 L419,1093 L408,1092 L402,1092 L398,1091 L395,1093 L389,1092 L387,1088 L382,1089 L376,1090 L371,1090 L368,1092 L350,1092 L346,1090 L342,1092 L337,1091 L335,1088 L330,1088 L327,1090 L317,1090 L312,1094 L307,1094 L304,1092 L297,1090 L292,1088 L290,1092 L286,1091 L282,1087 L277,1089 L267,1090 L266,1091 L259,1091 L255,1090 L252,1091 L245,1091 L243,1088 L239,1089 L235,1091 L231,1087 L226,1087 L224,1089 L206,1090 L196,1091 L192,1087 L192,1085 L188,1085 L186,1090 L180,1089 L176,1086 L171,1089 L149,1089 L143,1090 L140,1084 L137,1085 L135,1089 L130,1088 L127,1086 L123,1087 L122,1088 L105,1089 L92,1089 L88,1085 L84,1086 L80,1088 L78,1086 L73,1086 L71,1088 L47,1088 L40,1089 L37,1086 L37,1084 L21,1086 L18,1088 L1,1088 L-5,1087 L-11,1088 L-16,1085 L-30,1085 L-34,1087 L-50,1087 L-55,1086 L-59,1088 L-63,1087 L-66,1084 L-77,1085 L-83,1084 L-88,1087 L-96,1086 L-101,1087 L-108,1086 L-114,1088 L-119,1084 L-124,1085 L-128,1086 L-134,1084 L-138,1086 L-155,1087 L-162,1086 L-166,1087 L-171,1082 L-176,1084 L-183,1085 L-188,1084 L-196,1083 L-201,1080 L-211,1079 L-220,1075 L-228,1070 L-237,1067 L-246,1059 L-251,1053 L-257,1048 L-264,1040 L-271,1027 L-275,1017 L-277,1008 L-282,987 L-283,984 L-283,977 L-282,972 L-282,957 L-283,954 L-287,954 L-287,965 L-290,971 L-289,985 L-287,988 L-287,997 L-285,1008 L-283,1011 L-282,1020 L-278,1026 L-277,1034 L-274,1035 L-273,1040 L-275,1045 L-267,1047 L-266,1052 L-261,1055 L-258,1060 L-256,1066 L-249,1068 L-244,1072 L-240,1074 L-238,1078 L-231,1078 L-227,1082 L-227,1084 L-218,1085 L-213,1091 L-204,1090 L-201,1092 L-194,1092 L-189,1095 L-183,1095 L-181,1094 L-165,1095 L-158,1094 L-152,1097 L-145,1093 L-140,1094 L-136,1096 L-129,1095 L-127,1093 L-122,1094 L-119,1096 L-111,1095 L-110,1094 L-105,1094 L-101,1097 L-94,1096 L-91,1094 L-86,1095 L-83,1097 L-69,1096 L-60,1097 L-56,1095 L-51,1096 L-49,1097 L-40,1097 L-34,1096 L-31,1097 L-22,1097 L-18,1096 L-12,1098 L2,1097 L18,1098 L56,1099 L58,1098 L70,1099 L80,1098 L99,1098 L101,1099 L108,1099 L116,1098 L119,1099 L126,1099 L128,1098 L137,1098 L138,1099 L144,1099 L149,1097 L152,1099 L161,1099 L163,1097 L169,1098 L171,1100 L177,1100 L180,1098 L187,1099 L194,1100 L199,1098 L204,1099 L206,1100 L213,1100 L219,1098 L224,1100 L231,1099 L238,1098 L243,1101 L248,1100 L251,1098 L257,1099 L261,1102 L265,1101 L268,1099 L274,1099 L277,1101 L283,1101 L288,1099 L293,1100 L295,1102 L301,1102 L306,1099 L311,1101 L312,1102 L318,1102 L322,1100 L329,1101 L335,1102 L339,1099 L344,1100 L347,1102 L371,1102 L377,1101 L382,1102 L390,1102 L395,1101 L403,1102 L458,1102 L461,1103 L468,1103 L477,1102 L486,1103 L489,1102 L496,1102 L503,1103 L511,1102 L520,1104 L525,1102 L532,1102 L536,1104 L541,1103 L548,1102 L553,1104 L566,1103 L568,1104 L575,1104 L581,1102 L589,1105 L589,1113 L581,1117 L564,1115 L561,1113 L556,1114 L552,1114 L546,1113 L543,1115 L537,1115 L532,1114 L530,1115 L513,1115 L511,1114 L501,1114 L498,1112 L493,1113 L490,1115 L481,1114 L480,1115 L462,1115 L457,1113 L448,1112 L443,1111 L438,1115 L434,1114 L433,1113 L427,1113 L426,1114 L409,1114 L399,1112 L391,1111 L386,1114 L377,1113 L370,1114 L366,1113 L359,1114 L353,1111 L343,1112 L336,1111 L333,1113 L317,1113 L311,1112 L306,1114 L302,1110 L291,1111 L290,1110 L285,1110 L280,1114 L273,1112 L270,1114 L264,1113 L259,1111 L257,1113 L252,1113 L249,1108 L244,1109 L243,1110 L232,1110 L227,1113 L219,1112 L212,1112 L209,1109 L206,1113 L201,1112 L197,1108 L192,1109 L185,1110 L180,1111 L174,1112 L167,1111 L161,1112 L157,1108 L155,1108 L153,1112 L148,1111 L145,1108 L141,1109 L137,1110 L131,1110 L124,1111 L118,1110 L110,1111 L107,1108 L104,1108 L102,1111 L96,1110 L95,1109 L78,1110 L74,1111 L58,1111 L55,1108 L51,1109 L50,1110 L44,1110 L42,1109 L27,1109 L25,1110 L6,1110 L2,1106 L-3,1107 L-10,1108 L-20,1109 L-26,1108 L-27,1109 L-40,1109 L-45,1110 L-50,1105 L-55,1105 L-56,1106 L-65,1107 L-72,1108 L-82,1109 L-96,1109 L-102,1104 L-106,1105 L-107,1106 L-117,1106 L-120,1108 L-128,1107 L-131,1109 L-136,1109 L-140,1106 L-145,1108 L-150,1108 L-153,1103 L-157,1104 L-159,1106 L-169,1106 L-171,1107 L-190,1106 L-193,1104 L-207,1102 L-225,1097 L-237,1092 L-248,1085 L-252,1082 L-252,1080 L-256,1078 L-265,1072 L-266,1068 L-270,1066 L-271,1060 L-269,1053 L-275,1052 L-275,1058 L-279,1057 L-285,1048 L-286,1040 L-290,1035 L-293,1032 L-291,1027 L-291,1020 L-293,1018 L-294,1009 L-299,1006 L-299,1000 L-297,997 L-298,992 L-301,988 L-300,982 L-298,979 L-299,973 L-300,966 L-294,959 L-294,957 L-301,954 L-302,950 L-299,946 L-299,939 L-301,936 L-300,930 L-299,924 L-301,919 L-300,913 L-296,910 L-294,910 L-294,905 L-301,901 L-301,896 L-297,893 L-298,887 L-301,884 L-300,877 L-297,874 L-297,869 L-302,866 L-302,861 L-295,857 L-294,854 L-299,848 L-299,842 L-298,841 L-298,833 L-300,827 L-295,818 L-290,817 L-288,818 L-289,830 L-287,832 L-287,854 L-286,859 L-288,863 L-292,866 L-293,869 L-290,870 L-289,881 L-287,884 L-288,893 L-286,895 L-287,912 L-291,919 L-289,932 L-288,934 L-285,934 L-284,926 L-284,913 L-282,907 L-282,900 L-285,897 L-283,889 L-282,885 L-282,862 L-281,856 L-282,850 L-281,845 L-281,834 L-283,824 L-284,812 L-290,812 L-296,815 L-299,814 L-299,808 L-296,805 L-296,799 L-300,795 L-300,791 L-297,788 L-297,780 L-300,776 L-298,771 L-295,761 L-299,758 L-297,754 L-295,754 L-296,747 L-299,742 L-298,738 L-297,736 L-297,725 L-298,720 L-296,711 L-294,707 L-295,700 L-296,699 L-296,684 L-297,676 L-297,660 L-294,651 L-295,647 L-297,644 L-295,633 L-297,629 L-297,605 L-294,601 L-295,594 L-297,592 L-296,580 L-298,575 L-297,568 L-296,560 L-299,557 L-297,551 L-294,548 L-293,544 L-298,540 L-299,537 L-297,533 L-295,533 L-296,525 L-299,521 L-298,517 L-295,511 L-295,506 L-297,506 L-299,501 L-294,496 L-294,489 L-299,487 L-298,482 L-295,477 L-296,473 L-298,469 L-297,464 L-292,457 L-291,454 L-298,453 L-299,448 L-294,444 L-293,440 L-297,435 L-296,428 L-295,427 L-295,420 L-299,416 L-297,411 L-294,407 L-293,401 L-297,399 L-296,393 L-294,391 L-294,385 L-297,380 L-295,375 L-294,373 L-294,365 L-296,363 L-295,357 L-292,347 L-297,346 L-297,341 L-294,339 L-294,331 L-297,328 L-296,323 L-295,322 L-293,313 L-291,311 L-286,312 L-284,314 L-285,319 L-286,325 L-282,327 L-283,334 L-279,333 L-280,325 L-281,321 L-279,318 L-279,308 L-280,306 L-286,307 L-290,309 L-294,308 L-295,306 L-292,296 L-294,279 L-293,271 L-293,262 L-288,257 L-283,261 L-284,268 L-285,273 L-282,276 L-282,285 L-279,286 L-279,280 L-280,274 L-279,264 L-280,260 L-279,254 L-288,256 L-293,253 L-294,245 L-292,240 L-293,233 L-294,227 L-292,223 L-293,218 L-295,214 L-294,209 L-289,203 L-291,199 L-295,195 L-292,185 L-293,180 L-294,179 L-293,170 L-292,167 L-295,162 L-294,155 L-289,151 L-291,147 L-295,145 L-296,140 L-291,132 L-291,129 L-296,127 L-295,121 L-291,117 L-292,111 L-295,108 L-294,103 L-289,99 L-289,94 L-293,89 L-291,85 L-285,75 L-282,73 L-283,68 L-288,61 L-286,56 L-279,56 L-277,49 L-272,44 L-269,39 L-263,35 L-259,27 L-255,28 L-254,30 L-254,37 L-259,42 L-262,44 L-263,52 L-271,59 L-272,62 L-272,71 L-276,74 L-278,74 L-278,97 L-282,103 L-281,110 L-285,115 L-279,120 L-276,119 L-275,100 L-275,95 L-273,90 L-272,77 L-266,70 L-264,61 L-259,52 L-252,43 L-246,33 L-236,24 L-222,17 L-218,14 L-210,14 L-205,9 L-193,4 L-183,5 L-178,2 L-172,2 L-166,5 L-162,4 L-158,1 L-153,3 L-152,4 L-145,4 L-142,2 L-137,2 L-135,4 L-127,4 L-122,1 L-115,5 L-109,4 L-105,1 L-100,2 L-100,4 L-92,4 L-88,1 L-83,2 L-78,5 L-73,3 L-68,1 L-61,6 L-57,5 L-55,2 L-48,2 L-45,4 L-39,4 L-35,1 L-30,2 L-28,4 L-21,4 L-17,1 L-12,3 L-10,6 L-5,5 Z M-279,123 L-281,125 L-280,131 L-276,132 L-274,128 L-276,124 Z M-280,140 L-279,145 L-277,146 L-275,141 Z M-278,147 L-284,152 L-283,156 L-282,161 L-285,164 L-284,170 L-283,176 L-282,183 L-279,186 L-277,185 L-277,170 L-276,168 L-276,147 Z M109,185 L105,187 L98,187 L91,190 L83,189 L81,190 L75,190 L71,189 L64,190 L61,187 L50,187 L46,186 L40,190 L25,190 L18,189 L12,190 L9,186 L5,187 L4,188 L3,196 L-3,200 L-3,202 L2,205 L1,210 L-1,214 L2,219 L3,227 L3,249 L-3,251 L-3,254 L2,255 L1,261 L0,267 L2,271 L2,279 L3,287 L3,299 L-1,304 L1,308 L3,308 L0,317 L2,328 L3,331 L3,338 L2,344 L3,351 L-3,355 L-3,358 L1,360 L2,363 L1,366 L2,384 L3,391 L2,394 L3,403 L-2,407 L-1,410 L1,411 L2,435 L3,441 L2,448 L3,455 L-1,460 L1,464 L1,486 L3,489 L2,499 L3,501 L3,508 L0,512 L1,519 L1,536 L3,540 L2,551 L3,558 L1,562 L1,589 L3,592 L2,604 L1,611 L0,615 L1,623 L-1,623 L-1,628 L0,629 L1,643 L3,647 L2,661 L1,663 L1,674 L-1,677 L0,682 L1,688 L2,695 L3,701 L2,707 L2,714 L-4,717 L-4,720 L2,721 L-2,731 L0,735 L2,760 L2,766 L-5,769 L-4,772 L1,774 L0,786 L1,798 L2,804 L2,817 L-1,820 L-4,821 L-4,823 L1,825 L0,838 L1,848 L3,852 L2,864 L1,870 L-2,873 L-2,875 L1,876 L1,899 L3,902 L2,914 L3,924 L7,926 L18,926 L20,925 L26,925 L30,928 L35,927 L38,925 L44,925 L47,927 L53,927 L56,925 L63,926 L71,926 L72,925 L79,925 L83,928 L88,927 L92,925 L97,926 L99,927 L108,926 L116,925 L120,920 L120,911 L122,897 L119,891 L119,883 L120,880 L120,869 L121,866 L119,847 L122,830 L122,825 L121,824 L121,810 L119,804 L121,801 L121,792 L120,782 L119,775 L121,771 L120,766 L119,757 L120,743 L120,732 L121,725 L120,720 L120,678 L122,673 L120,663 L122,658 L121,653 L119,653 L119,641 L120,639 L120,629 L119,623 L120,619 L121,606 L122,601 L129,597 L142,595 L143,596 L162,597 L207,596 L214,597 L222,596 L228,597 L234,596 L258,596 L261,597 L268,597 L275,596 L281,597 L303,597 L305,596 L312,596 L313,597 L321,597 L328,596 L333,597 L339,596 L365,596 L373,597 L377,595 L383,596 L389,597 L398,594 L406,601 L414,608 L413,612 L409,615 L410,620 L412,622 L412,629 L414,633 L415,650 L414,657 L414,664 L410,668 L411,672 L414,684 L415,717 L411,719 L410,721 L413,730 L415,742 L415,754 L414,767 L410,773 L413,782 L414,784 L414,798 L415,800 L415,807 L414,812 L414,820 L412,823 L413,835 L414,838 L414,872 L411,877 L413,888 L415,893 L414,902 L414,924 L417,928 L422,929 L426,927 L431,928 L441,929 L494,929 L496,930 L503,930 L505,929 L511,929 L518,930 L530,927 L535,923 L535,916 L534,909 L534,898 L536,890 L534,882 L534,865 L535,853 L534,846 L535,839 L535,815 L534,808 L534,788 L535,772 L536,770 L536,762 L535,759 L534,738 L534,719 L535,716 L535,709 L534,701 L535,692 L534,689 L534,680 L535,678 L535,666 L536,657 L535,655 L535,634 L534,615 L535,609 L534,604 L535,593 L535,575 L536,574 L536,568 L534,565 L534,559 L535,557 L535,512 L537,507 L536,503 L535,502 L535,487 L534,482 L534,474 L536,472 L537,466 L537,453 L535,451 L535,439 L536,415 L534,413 L535,408 L537,406 L537,401 L535,398 L536,387 L535,372 L537,365 L535,356 L536,349 L536,338 L535,332 L535,319 L534,316 L534,276 L535,259 L534,254 L536,244 L535,216 L536,208 L534,195 L529,187 L526,186 L522,188 L512,188 L504,189 L501,187 L496,188 L491,189 L483,186 L474,186 L471,188 L465,188 L460,187 L455,189 L445,188 L440,189 L438,188 L428,187 L423,185 L414,190 L414,197 L411,200 L412,205 L414,208 L414,217 L415,224 L414,238 L412,240 L413,244 L414,245 L414,250 L410,254 L412,258 L414,264 L415,288 L413,292 L411,293 L412,296 L414,297 L413,302 L410,307 L413,312 L414,322 L414,343 L410,345 L410,347 L414,348 L414,354 L410,359 L413,369 L414,373 L415,391 L414,396 L410,398 L411,400 L414,401 L413,406 L411,409 L412,416 L414,425 L414,447 L411,448 L411,451 L414,453 L413,459 L411,462 L412,475 L414,479 L413,493 L411,496 L403,498 L392,497 L387,498 L384,496 L373,497 L367,496 L363,498 L353,498 L349,499 L344,497 L335,498 L328,494 L323,497 L314,496 L310,498 L294,498 L287,497 L281,498 L278,494 L274,495 L273,496 L262,496 L258,498 L242,498 L237,496 L233,499 L229,498 L226,494 L222,495 L221,496 L210,496 L205,498 L175,498 L173,494 L168,495 L163,496 L159,495 L154,498 L146,497 L139,498 L135,494 L126,493 L122,491 L121,481 L121,470 L122,466 L120,461 L121,455 L121,364 L120,357 L121,338 L120,329 L121,308 L121,286 L120,281 L121,274 L120,268 L120,248 L121,247 L121,228 L122,224 L120,218 L121,201 L117,193 L112,186 Z M-281,189 L-282,194 L-282,202 L-284,204 L-283,213 L-286,218 L-284,223 L-279,224 L-278,223 L-277,205 L-276,197 L-278,189 Z M-280,232 L-279,234 Z M-269,329 L-270,332 L-265,332 L-266,329 Z M-262,333 L-261,341 L-261,345 L-259,345 L-257,342 L-257,336 Z M-277,336 L-277,342 L-275,339 L-275,336 Z M-283,347 L-283,350 L-281,350 L-281,347 Z M-270,349 Z M-280,356 L-289,359 L-290,364 L-286,368 L-287,376 L-285,378 L-281,377 L-278,373 L-277,365 L-275,363 L-276,357 Z M-282,380 L-283,386 L-280,387 L-277,385 L-278,380 Z M-280,389 L-281,393 L-278,396 L-276,396 L-275,392 L-277,389 Z M-284,399 L-284,401 L-281,400 Z M-282,402 L-285,411 L-288,412 L-287,427 L-282,435 L-278,434 L-278,422 L-280,416 L-278,416 L-277,412 L-278,404 Z M-280,444 L-285,449 L-288,452 L-287,455 L-284,458 L-283,460 L-287,462 L-288,466 L-287,475 L-286,481 L-284,483 L-281,483 L-280,477 L-280,458 L-278,449 L-278,444 Z M-284,491 L-283,494 L-281,493 L-281,491 Z M-285,502 L-287,505 L-284,509 L-281,508 L-281,503 Z M-286,512 L-288,514 L-287,527 L-287,532 L-283,534 L-281,533 L-281,513 Z M-285,554 L-286,559 L-287,563 L-288,569 L-287,577 L-287,583 L-283,584 L-281,581 L-281,555 Z M-284,592 L-286,593 L-286,604 L-287,606 L-288,615 L-290,617 L-289,621 L-287,624 L-287,636 L-282,637 L-280,632 L-281,616 L-281,594 L-282,592 Z M-284,642 L-286,644 L-286,649 L-282,650 L-281,643 Z M-160,642 Z M131,653 L132,655 Z M-286,656 L-287,663 L-289,668 L-290,673 L-286,678 L-288,685 L-285,691 L-280,690 L-283,679 L-281,676 L-281,660 L-283,656 Z M-285,699 L-287,708 L-286,718 L-290,721 L-289,727 L-286,730 L-282,728 L-281,727 L-281,700 Z M-287,734 L-288,737 L-286,743 L-288,759 L-290,761 L-291,777 L-288,780 L-287,801 L-284,804 L-279,806 L-280,798 L-279,795 L-280,793 L-281,774 L-282,765 L-282,747 L-281,745 L-281,735 L-282,734 Z M-286,938 L-288,941 L-287,948 L-283,948 L-282,947 L-282,940 Z M254,1082 L253,1084 L256,1083 Z " fill="#000000" transform="translate(575,58)"/>
<path d="M0,0 L3,2 L2,6 L-3,7 L-2,2 Z " fill="#000000" transform="translate(310,79)"/>
<path d="M0,0 L4,2 L20,17 L25,22 L40,37 L48,44 L56,52 L58,53 L58,55 L61,56 L61,58 L64,59 L64,61 L68,63 L77,73 L88,83 L88,85 L91,86 L91,88 L95,90 L106,100 L112,107 L120,114 L132,125 L144,136 L149,140 L159,154 L162,160 L165,171 L165,182 L162,195 L154,210 L144,221 L139,225 L132,233 L127,239 L122,244 L115,251 L114,253 L112,253 L110,257 L101,266 L96,271 L82,286 L77,291 L72,297 L70,297 L68,302 L58,312 L51,320 L37,335 L26,346 L19,354 L4,369 L3,371 L0,371 L0,364 L3,363 L3,361 L5,361 L7,357 L14,349 L19,344 L32,331 L39,323 L53,308 L62,298 L76,283 L83,275 L87,270 L94,264 L101,256 L117,239 L127,229 L134,221 L145,210 L149,205 L155,193 L157,184 L157,173 L154,160 L145,146 L129,130 L121,123 L111,114 L106,109 L96,100 L83,87 L75,80 L59,63 L53,58 L53,56 L48,54 L41,46 L33,39 L25,31 L17,24 L6,13 L0,8 Z " fill="#000000" transform="translate(0,439)"/>
<path d="M0,0 L5,2 L14,11 L22,18 L34,30 L44,38 L61,55 L66,60 L79,73 L79,75 L83,77 L88,82 L101,94 L118,110 L125,117 L133,124 L138,128 L144,138 L147,148 L147,166 L141,177 L130,189 L115,204 L108,212 L103,214 L101,219 L92,230 L87,235 L81,240 L78,245 L71,251 L67,257 L56,268 L49,276 L44,282 L39,286 L34,291 L28,298 L23,303 L11,316 L4,324 L0,326 L0,293 L5,288 L11,281 L17,276 L25,266 L33,259 L40,252 L47,244 L50,243 L52,239 L57,234 L63,227 L68,222 L75,214 L83,205 L88,200 L102,185 L113,174 L122,163 L123,159 L123,151 L122,144 L118,142 L113,137 L105,129 L97,122 L95,118 L91,116 L84,110 L80,105 L69,96 L68,92 L64,90 L62,86 L58,84 L51,78 L50,74 L45,72 L41,66 L33,60 L23,51 L7,36 L0,31 Z " fill="#000000" transform="translate(0,463)"/>
<path d="M0,0 L4,1 L3,6 L-1,4 Z " fill="#000000" transform="translate(582,790)"/>
<path d="M0,0 L5,1 L5,3 L0,3 Z " fill="#000000" transform="translate(23,815)"/>
</svg>
