<?xml version="1.0" encoding="UTF-8"?>
<!-- Generator: visioncortex VTracer 0.6.12 -->
<svg version="1.1" xmlns="http://www.w3.org/2000/svg" width="1107" height="1116">
<path d="M0,0 L208,0 L215,3 L251,11 L273,18 L283,21 L302,29 L313,33 L329,41 L344,47 L352,52 L371,61 L382,67 L389,72 L397,76 L404,82 L424,94 L431,98 L436,103 L447,111 L452,117 L464,125 L475,135 L479,139 L484,144 L489,149 L489,151 L493,152 L497,157 L503,161 L512,172 L517,177 L529,190 L533,196 L538,200 L542,206 L545,209 L545,211 L549,213 L555,223 L557,227 L559,227 L565,236 L569,239 L576,253 L584,264 L588,271 L595,283 L600,292 L605,301 L612,315 L617,326 L622,337 L627,347 L636,373 L641,387 L649,410 L654,434 L657,446 L659,456 L660,457 L660,682 L657,691 L651,714 L645,733 L643,742 L632,771 L627,783 L622,796 L618,805 L608,824 L604,833 L593,851 L581,871 L575,881 L568,891 L561,901 L556,909 L545,920 L537,931 L530,939 L523,947 L516,953 L511,959 L503,966 L500,967 L498,971 L489,977 L486,982 L481,987 L472,993 L465,1000 L451,1011 L446,1015 L440,1023 L432,1027 L430,1027 L428,1031 L410,1041 L400,1048 L379,1059 L361,1069 L345,1077 L336,1080 L326,1085 L321,1088 L310,1091 L302,1095 L285,1100 L274,1104 L258,1108 L253,1110 L230,1114 L225,1116 L-4,1116 L-4,1114 L-19,1113 L-31,1110 L-34,1108 L-47,1106 L-68,1099 L-77,1097 L-91,1092 L-107,1086 L-117,1081 L-129,1077 L-134,1073 L-145,1069 L-153,1065 L-158,1062 L-163,1059 L-171,1054 L-182,1048 L-188,1044 L-199,1036 L-209,1030 L-221,1021 L-230,1015 L-237,1009 L-248,1001 L-255,995 L-266,986 L-276,977 L-281,972 L-288,967 L-294,960 L-300,955 L-309,944 L-315,937 L-326,923 L-335,913 L-343,902 L-348,896 L-352,890 L-362,875 L-368,866 L-373,858 L-376,853 L-381,845 L-386,836 L-395,819 L-404,803 L-407,794 L-415,779 L-424,754 L-433,727 L-439,707 L-441,698 L-444,690 L-446,678 L-447,677 L-447,448 L-445,443 L-441,426 L-439,416 L-436,408 L-434,399 L-431,389 L-427,378 L-419,354 L-415,346 L-404,320 L-398,308 L-388,289 L-379,273 L-368,256 L-362,247 L-356,235 L-349,227 L-344,219 L-341,218 L-339,213 L-326,197 L-319,188 L-313,181 L-311,181 L-309,177 L-299,166 L-292,158 L-284,150 L-277,141 L-266,132 L-259,125 L-253,121 L-247,114 L-238,108 L-233,106 L-232,103 L-228,100 L-226,100 L-226,98 L-212,89 L-202,83 L-195,77 L-180,68 L-171,63 L-155,55 L-148,50 L-129,42 L-116,36 L-104,31 L-93,27 L-58,15 L-38,9 L-35,7 L-5,2 Z M88,117 L64,118 L34,122 L7,128 L-13,134 L-28,138 L-38,142 L-51,146 L-79,159 L-92,164 L-100,169 L-116,177 L-133,187 L-140,193 L-139,202 L-136,206 L-134,206 L-132,211 L-121,224 L-114,232 L-105,242 L-95,255 L-92,256 L-90,262 L-86,266 L-85,269 L-83,269 L-82,272 L-80,272 L-79,275 L-77,275 L-75,280 L-70,286 L-68,286 L-66,290 L-61,298 L-54,304 L-49,311 L-45,315 L-43,319 L-35,326 L-32,332 L-25,338 L-17,349 L-11,356 L-7,362 L-4,365 L-2,365 L0,369 L5,373 L11,383 L14,386 L16,386 L18,390 L22,396 L33,408 L45,424 L53,433 L55,433 L57,438 L67,449 L71,455 L76,460 L82,467 L89,475 L95,483 L101,490 L103,490 L105,494 L110,503 L114,506 L116,506 L116,508 L118,508 L120,512 L122,515 L124,515 L126,519 L134,530 L136,530 L138,534 L148,545 L152,551 L160,559 L166,568 L169,569 L171,573 L175,578 L180,584 L182,584 L182,586 L186,590 L196,603 L197,605 L199,605 L200,608 L205,613 L213,623 L216,626 L217,629 L224,635 L227,635 L226,629 L222,620 L219,612 L216,589 L215,570 L215,559 L212,507 L207,488 L203,472 L199,467 L189,459 L176,452 L152,448 L136,446 L114,446 L97,445 L76,442 L72,438 L68,434 L62,430 L54,419 L46,409 L41,404 L37,398 L32,394 L25,386 L16,376 L14,376 L11,367 L4,358 L-1,353 L-2,349 L-1,347 L19,347 L103,351 L123,353 L149,355 L196,357 L212,359 L227,364 L247,368 L269,382 L276,389 L284,395 L293,409 L298,413 L306,429 L308,440 L312,451 L318,478 L319,502 L320,538 L320,614 L321,627 L320,650 L322,675 L322,689 L323,722 L324,737 L323,739 L316,739 L310,728 L305,721 L300,718 L298,718 L298,716 L296,716 L294,712 L290,711 L291,716 L295,718 L296,723 L302,731 L305,734 L307,734 L308,737 L310,737 L310,739 L314,740 L316,747 L323,755 L332,767 L334,767 L336,772 L346,782 L353,790 L364,803 L371,812 L376,817 L385,827 L391,835 L398,842 L408,855 L412,860 L418,863 L419,865 L425,865 L432,859 L437,854 L442,849 L450,838 L452,833 L456,831 L461,825 L464,819 L469,814 L473,808 L476,802 L482,793 L488,782 L501,759 L506,749 L510,741 L513,734 L517,724 L521,711 L526,698 L529,686 L534,670 L538,653 L540,641 L541,639 L543,621 L545,612 L548,576 L548,558 L546,529 L542,504 L537,475 L532,449 L527,427 L520,410 L515,398 L506,379 L502,369 L497,361 L495,358 L492,349 L488,343 L482,332 L473,316 L469,310 L467,310 L465,306 L452,289 L445,277 L436,267 L432,263 L425,255 L419,248 L410,241 L394,226 L380,215 L373,209 L365,203 L356,196 L345,189 L338,185 L328,179 L322,176 L311,169 L301,165 L290,158 L265,148 L242,139 L223,134 L212,130 L200,127 L184,124 L172,121 L140,118 L121,117 Z M-221,269 L-226,272 L-231,280 L-241,292 L-247,300 L-253,309 L-261,322 L-266,330 L-271,339 L-277,349 L-283,359 L-287,369 L-295,385 L-302,401 L-306,414 L-310,425 L-315,442 L-318,456 L-320,461 L-323,480 L-326,497 L-329,520 L-331,545 L-331,572 L-328,610 L-326,626 L-321,653 L-313,685 L-306,705 L-303,715 L-296,733 L-289,747 L-281,764 L-272,778 L-266,788 L-262,796 L-255,807 L-248,816 L-239,827 L-228,841 L-219,851 L-208,865 L-201,873 L-194,881 L-181,892 L-173,898 L-164,906 L-153,915 L-145,921 L-132,928 L-121,935 L-110,942 L-97,950 L-82,957 L-72,961 L-53,969 L-48,972 L-39,974 L-26,979 L-16,982 L-6,984 L3,987 L13,990 L23,991 L24,992 L35,993 L41,995 L61,997 L64,998 L84,998 L86,999 L122,999 L128,998 L160,997 L176,994 L181,993 L192,993 L195,991 L208,988 L219,987 L224,985 L234,984 L242,980 L250,978 L256,975 L269,971 L286,963 L296,961 L312,952 L327,944 L332,938 L331,933 L326,925 L312,917 L306,912 L301,910 L299,906 L292,900 L280,892 L277,887 L268,881 L259,882 L247,890 L233,897 L226,903 L219,904 L218,844 L217,794 L214,788 L203,774 L195,764 L188,755 L183,750 L179,744 L172,737 L166,729 L157,718 L153,714 L149,708 L140,696 L128,683 L120,673 L114,665 L104,655 L97,646 L87,634 L85,631 L83,631 L81,627 L75,620 L70,613 L68,613 L66,608 L57,598 L48,587 L41,579 L34,570 L28,563 L26,563 L24,558 L17,549 L16,547 L14,547 L12,543 L4,532 L-3,526 L-9,517 L-14,512 L-16,512 L-18,508 L-25,500 L-29,493 L-34,488 L-43,476 L-54,464 L-62,454 L-64,454 L-66,450 L-71,443 L-79,440 L-106,439 L-112,438 L-195,438 L-199,440 L-206,440 L-212,436 L-215,431 L-223,424 L-233,412 L-234,410 L-236,410 L-238,406 L-251,393 L-256,389 L-259,384 L-259,379 L-250,375 L-241,368 L-229,355 L-224,350 L-218,345 L-214,341 L-209,339 L-163,339 L-161,337 L-161,332 L-171,320 L-176,313 L-178,313 L-179,310 L-181,310 L-183,306 L-187,301 L-194,293 L-201,285 L-208,277 L-214,270 Z M269,688 L274,694 L277,694 L276,689 Z " fill="#000000" transform="translate(447,0)"/>
</svg>
