<?xml version="1.0" encoding="UTF-8"?>
<!-- Generator: visioncortex VTracer 0.6.12 -->
<svg version="1.1" xmlns="http://www.w3.org/2000/svg" width="987" height="1191">
<path d="M0,0 L12,0 L13,3 L2,6 L-1,4 Z " fill="#000000" transform="translate(192,36)"/>
<path d="M0,0 L12,1 L43,1 L59,0 L61,1 L136,1 L141,3 L168,2 L181,2 L184,1 L222,2 L245,2 L276,0 L283,1 L327,0 L356,0 L381,2 L391,7 L396,13 L400,18 L411,26 L412,29 L417,31 L433,47 L439,52 L449,54 L456,62 L458,71 L466,73 L476,83 L486,96 L498,107 L501,110 L507,114 L515,124 L522,132 L527,137 L536,145 L543,153 L557,164 L572,179 L583,187 L589,192 L599,199 L613,213 L617,216 L617,218 L622,220 L627,226 L632,231 L645,243 L653,250 L665,263 L670,268 L684,281 L695,290 L708,297 L713,302 L721,313 L725,319 L728,336 L728,361 L726,369 L726,379 L729,386 L728,393 L726,396 L725,404 L725,443 L726,455 L727,481 L727,533 L729,569 L729,643 L730,673 L730,698 L731,715 L731,747 L735,751 L734,757 L732,761 L729,775 L725,782 L717,792 L713,798 L704,804 L699,810 L691,817 L684,824 L677,832 L661,848 L654,856 L645,867 L633,880 L626,888 L618,897 L613,902 L593,922 L584,933 L577,941 L570,948 L565,952 L556,963 L549,971 L544,976 L537,983 L530,991 L521,1002 L512,1012 L505,1018 L498,1026 L493,1032 L488,1036 L480,1046 L469,1058 L462,1066 L450,1078 L443,1086 L431,1099 L421,1107 L419,1108 L394,1108 L391,1110 L379,1112 L337,1112 L329,1113 L210,1113 L193,1114 L189,1112 L183,1113 L92,1114 L58,1114 L40,1115 L10,1115 L5,1114 L-13,1114 L-28,1115 L-33,1116 L-40,1116 L-45,1114 L-52,1114 L-57,1115 L-63,1111 L-68,1105 L-77,1100 L-84,1095 L-91,1086 L-105,1071 L-110,1066 L-119,1055 L-129,1046 L-137,1038 L-144,1029 L-151,1023 L-157,1016 L-156,1010 L-164,1010 L-169,1006 L-172,1002 L-172,1000 L-177,998 L-185,990 L-187,986 L-193,982 L-200,975 L-205,967 L-211,963 L-218,956 L-220,955 L-220,917 L-216,919 L-201,934 L-196,939 L-186,951 L-182,957 L-173,965 L-169,971 L-161,977 L-151,987 L-147,993 L-139,999 L-134,1004 L-121,1016 L-116,1021 L-108,1029 L-104,1034 L-96,1040 L-89,1048 L-84,1054 L-79,1058 L-72,1066 L-60,1077 L-60,1079 L-56,1081 L-54,1085 L-49,1087 L-42,1091 L-34,1092 L-28,1090 L43,1090 L53,1089 L110,1087 L114,1088 L281,1088 L286,1087 L310,1086 L317,1085 L326,1086 L331,1085 L345,1086 L364,1085 L395,1085 L402,1089 L407,1085 L413,1077 L421,1069 L429,1062 L438,1052 L447,1042 L457,1033 L464,1025 L469,1019 L474,1014 L482,1006 L487,999 L493,995 L499,987 L503,983 L505,983 L507,979 L517,969 L524,960 L533,949 L554,928 L562,918 L571,909 L578,901 L586,893 L592,883 L594,877 L602,874 L611,864 L617,857 L619,857 L621,853 L633,840 L639,832 L644,827 L646,827 L648,823 L657,813 L669,800 L676,792 L682,785 L690,778 L694,773 L699,763 L703,754 L703,736 L702,731 L702,702 L703,693 L701,667 L701,604 L700,595 L699,555 L700,548 L699,527 L698,518 L698,475 L695,466 L696,460 L697,458 L697,449 L696,440 L697,426 L697,352 L696,347 L695,333 L691,326 L678,316 L673,313 L669,307 L666,304 L664,300 L658,296 L649,289 L645,283 L637,276 L626,265 L620,262 L617,256 L609,247 L604,244 L596,238 L591,232 L583,225 L576,217 L568,210 L559,202 L552,198 L537,184 L524,172 L519,167 L517,163 L512,161 L501,150 L494,144 L489,139 L482,134 L475,126 L467,119 L459,112 L454,107 L446,100 L434,89 L412,67 L403,60 L396,52 L388,46 L382,39 L376,34 L373,31 L369,29 L359,28 L336,28 L324,29 L294,29 L256,30 L209,30 L147,31 L102,31 L53,33 L33,33 L20,34 L-17,34 L-31,37 L-37,40 L-46,43 L-51,46 L-59,52 L-63,58 L-68,63 L-72,66 L-80,69 L-85,74 L-94,85 L-101,93 L-109,100 L-117,108 L-121,110 L-126,116 L-136,123 L-143,129 L-147,135 L-152,140 L-161,149 L-167,156 L-175,163 L-181,170 L-187,175 L-189,175 L-191,179 L-199,189 L-205,193 L-209,199 L-214,203 L-217,208 L-220,208 L-220,171 L-215,167 L-208,159 L-195,147 L-177,129 L-172,124 L-163,114 L-153,104 L-148,99 L-132,84 L-128,78 L-123,73 L-116,66 L-111,61 L-97,46 L-85,34 L-80,29 L-73,20 L-64,12 L-55,6 L-45,5 L-42,3 L-6,2 Z " fill="#000000" transform="translate(220,42)"/>
<path d="M0,0 L33,2 L58,2 L80,1 L104,2 L144,2 L158,1 L242,1 L249,0 L327,0 L344,1 L352,7 L363,18 L371,25 L396,50 L406,58 L413,66 L416,71 L426,79 L435,88 L442,96 L455,107 L463,113 L469,120 L476,128 L487,137 L493,142 L493,144 L497,146 L502,151 L502,153 L506,155 L524,173 L529,177 L534,182 L544,191 L553,200 L563,207 L566,212 L576,220 L584,227 L591,234 L602,243 L608,251 L616,259 L620,264 L620,266 L623,267 L627,273 L628,282 L628,354 L630,358 L629,366 L629,380 L628,389 L629,399 L629,424 L630,426 L630,438 L629,442 L629,449 L630,454 L630,493 L631,519 L631,631 L632,659 L628,667 L619,677 L610,688 L602,696 L596,701 L589,709 L577,722 L570,730 L562,739 L557,744 L546,756 L544,760 L537,766 L532,772 L526,777 L520,785 L511,793 L504,801 L496,811 L488,818 L472,835 L466,840 L459,848 L448,860 L437,873 L432,879 L427,885 L421,890 L417,896 L415,896 L413,900 L403,909 L399,914 L392,920 L385,928 L377,937 L375,937 L373,941 L367,946 L354,947 L339,947 L313,948 L308,951 L302,951 L298,949 L281,948 L268,949 L224,949 L99,951 L65,952 L-30,952 L-37,946 L-37,944 L-41,942 L-50,932 L-55,927 L-63,920 L-70,914 L-77,905 L-85,899 L-90,893 L-98,886 L-107,876 L-120,863 L-125,858 L-132,851 L-135,847 L-135,845 L-139,843 L-143,838 L-154,829 L-163,820 L-163,818 L-167,816 L-177,807 L-181,802 L-181,800 L-186,798 L-194,788 L-201,782 L-208,774 L-221,761 L-224,756 L-228,754 L-228,194 L-220,187 L-206,174 L-199,166 L-194,162 L-185,151 L-176,143 L-170,136 L-162,129 L-151,117 L-143,110 L-128,95 L-121,87 L-116,81 L-105,72 L-98,64 L-90,57 L-80,47 L-76,42 L-70,37 L-63,28 L-55,20 L-44,11 L-35,3 L-22,1 L-5,1 Z M-200,211 L-205,214 L-204,221 L-201,227 L-194,229 L-192,228 L-193,221 L-195,211 Z M-180,234 L-185,238 L-184,241 L-178,245 L-173,245 L-174,241 L-176,239 L-176,234 Z M250,378 L231,381 L214,389 L199,402 L189,413 L183,426 L177,444 L175,459 L174,474 L174,501 L178,520 L183,537 L187,546 L194,556 L197,561 L205,567 L211,574 L224,580 L239,584 L262,585 L278,583 L291,578 L306,569 L317,557 L324,545 L329,533 L332,524 L335,507 L336,484 L334,458 L332,445 L326,427 L320,413 L313,405 L306,397 L295,389 L281,382 L273,380 L271,379 Z M396,379 L390,383 L389,387 L388,401 L388,451 L389,464 L389,497 L390,543 L390,570 L394,576 L402,579 L409,580 L422,577 L425,571 L426,564 L427,507 L431,504 L442,501 L453,501 L456,500 L469,500 L484,498 L497,493 L505,488 L513,481 L520,471 L525,459 L527,452 L528,448 L527,434 L522,411 L516,402 L507,392 L502,388 L493,384 L475,379 Z M10,382 L-2,384 L-9,393 L-12,401 L-12,411 L-8,415 L28,414 L35,416 L38,420 L39,431 L40,472 L40,535 L41,545 L42,569 L44,579 L47,583 L50,584 L65,584 L74,582 L77,571 L78,544 L78,492 L77,473 L77,442 L76,430 L80,417 L84,414 L96,414 L103,413 L127,412 L131,408 L132,406 L132,393 L129,385 L126,383 L108,382 L79,382 L71,383 L55,382 Z M-126,382 L-141,384 L-155,389 L-163,393 L-174,401 L-179,407 L-186,421 L-189,435 L-189,452 L-185,467 L-182,474 L-173,484 L-157,493 L-142,499 L-126,503 L-110,508 L-100,514 L-94,523 L-93,527 L-93,536 L-94,543 L-102,553 L-113,558 L-121,560 L-127,560 L-142,555 L-152,546 L-158,536 L-161,532 L-169,531 L-184,535 L-191,540 L-190,550 L-186,560 L-180,568 L-173,576 L-158,584 L-146,588 L-123,589 L-104,588 L-95,584 L-85,580 L-79,575 L-71,568 L-64,559 L-59,545 L-57,539 L-57,515 L-61,504 L-66,494 L-76,483 L-91,475 L-98,472 L-106,470 L-118,467 L-136,461 L-144,457 L-149,453 L-153,442 L-153,430 L-150,423 L-145,418 L-136,413 L-120,412 L-115,413 L-112,417 L-104,419 L-98,429 L-94,436 L-90,438 L-82,437 L-69,433 L-66,429 L-67,417 L-75,403 L-83,395 L-99,386 L-109,383 L-116,383 Z M552,450 L551,454 L556,453 L555,450 Z " fill="#000000" transform="translate(228,125)"/>
<path d="M0,0 L18,1 L27,6 L34,12 L43,25 L47,37 L49,42 L52,55 L52,90 L51,93 L49,109 L45,125 L39,135 L32,143 L22,149 L13,152 L3,152 L-9,148 L-20,140 L-25,131 L-29,124 L-34,107 L-35,105 L-36,94 L-36,81 L-37,65 L-34,44 L-30,28 L-24,17 L-18,10 L-10,3 Z " fill="#000000" transform="translate(476,532)"/>
<path d="M0,0 L12,1 L22,5 L31,15 L34,20 L35,32 L34,42 L27,55 L19,61 L10,64 L1,65 L-23,65 L-29,63 L-33,57 L-34,17 L-32,5 L-28,2 L-24,1 Z M14,53 L15,55 Z " fill="#000000" transform="translate(686,533)"/>
</svg>
