<?xml version="1.0" encoding="UTF-8"?>
<!-- Generator: visioncortex VTracer 0.6.12 -->
<svg version="1.1" xmlns="http://www.w3.org/2000/svg" width="1089" height="1257">
<path d="M0,0 L6,0 L12,8 L18,12 L29,23 L37,30 L44,37 L51,45 L66,59 L88,81 L92,86 L100,93 L107,101 L115,108 L128,121 L133,126 L140,133 L145,138 L150,143 L150,145 L154,147 L160,154 L168,161 L175,168 L183,175 L198,189 L203,194 L212,204 L217,210 L225,217 L240,232 L244,237 L252,244 L259,251 L267,258 L271,263 L276,268 L285,276 L293,283 L303,295 L311,302 L322,313 L328,320 L334,325 L339,330 L347,338 L353,342 L357,348 L362,352 L367,357 L372,362 L383,373 L391,380 L396,385 L406,395 L411,400 L424,412 L436,425 L444,432 L456,444 L463,452 L469,457 L474,462 L481,468 L488,476 L495,482 L502,490 L509,496 L513,501 L522,508 L526,514 L533,520 L540,528 L550,537 L565,551 L570,556 L573,559 L573,561 L577,563 L585,571 L595,579 L603,590 L608,596 L608,603 L595,613 L587,620 L581,625 L574,633 L559,647 L553,655 L548,659 L542,663 L529,676 L521,683 L512,692 L507,697 L501,704 L493,711 L487,718 L479,725 L467,736 L462,741 L446,757 L441,761 L434,769 L411,792 L406,797 L382,821 L377,826 L369,834 L364,839 L361,842 L359,842 L357,846 L347,855 L340,863 L331,874 L322,881 L317,886 L309,895 L307,895 L305,899 L296,908 L294,908 L292,912 L288,917 L283,921 L278,926 L273,931 L260,943 L254,950 L249,955 L244,960 L242,960 L240,964 L232,972 L227,977 L220,985 L209,994 L202,1003 L198,1008 L193,1013 L187,1017 L180,1025 L175,1030 L163,1042 L158,1043 L156,1049 L143,1062 L141,1062 L139,1066 L132,1073 L128,1078 L123,1082 L118,1087 L107,1099 L102,1104 L91,1115 L82,1126 L75,1132 L68,1140 L42,1166 L37,1172 L29,1179 L21,1186 L16,1188 L10,1188 L0,1182 L-8,1172 L-16,1165 L-24,1157 L-31,1149 L-36,1143 L-44,1136 L-53,1127 L-58,1122 L-63,1118 L-70,1110 L-83,1098 L-92,1088 L-101,1079 L-112,1070 L-117,1064 L-117,1062 L-121,1060 L-126,1055 L-132,1050 L-137,1045 L-146,1036 L-151,1031 L-158,1025 L-158,1023 L-162,1021 L-174,1009 L-181,1003 L-188,995 L-198,985 L-203,981 L-210,973 L-249,934 L-254,929 L-266,917 L-266,915 L-270,913 L-295,888 L-303,881 L-312,872 L-312,870 L-316,868 L-331,853 L-338,845 L-356,827 L-362,819 L-367,816 L-375,807 L-383,800 L-391,792 L-394,788 L-394,786 L-398,784 L-407,775 L-415,768 L-445,738 L-448,736 L-448,698 L-444,700 L-436,711 L-423,724 L-418,729 L-413,733 L-406,741 L-398,750 L-391,756 L-386,761 L-371,777 L-362,787 L-360,788 L-360,790 L-358,790 L-352,798 L-345,804 L-337,811 L-329,819 L-324,824 L-320,829 L-312,836 L-304,844 L-290,855 L-280,865 L-273,874 L-269,879 L-261,886 L-253,893 L-248,897 L-245,903 L-238,909 L-235,914 L-228,920 L-221,928 L-212,936 L-204,943 L-197,952 L-191,956 L-187,962 L-179,968 L-173,975 L-165,981 L-164,984 L-160,986 L-149,998 L-145,1004 L-145,1006 L-141,1008 L-131,1014 L-128,1022 L-120,1029 L-115,1034 L-107,1042 L-100,1048 L-95,1054 L-89,1058 L-86,1063 L-76,1068 L-74,1074 L-68,1081 L-68,1083 L-64,1085 L-59,1090 L-52,1096 L-47,1101 L-43,1107 L-36,1112 L-36,1114 L-32,1116 L-24,1123 L-10,1137 L-6,1142 L2,1149 L6,1153 L10,1151 L13,1146 L13,1136 L19,1133 L31,1132 L38,1126 L40,1126 L42,1122 L52,1112 L59,1104 L70,1095 L79,1085 L92,1073 L97,1068 L105,1060 L109,1055 L117,1048 L125,1041 L131,1034 L137,1029 L144,1021 L147,1020 L149,1016 L156,1008 L166,998 L170,992 L179,986 L193,973 L200,965 L221,944 L223,944 L225,940 L230,934 L238,927 L256,909 L261,904 L269,897 L276,889 L284,881 L291,873 L305,858 L317,847 L332,831 L345,818 L352,812 L359,804 L370,794 L375,789 L382,782 L387,777 L398,766 L400,766 L402,762 L409,755 L414,749 L422,742 L432,732 L437,727 L460,704 L465,699 L472,693 L479,685 L500,664 L502,664 L504,660 L511,652 L519,645 L524,640 L532,632 L537,627 L550,614 L556,606 L562,600 L563,591 L554,581 L529,556 L521,549 L476,504 L471,499 L462,491 L457,485 L449,478 L442,470 L439,467 L439,465 L435,463 L425,454 L417,446 L409,439 L403,432 L398,428 L391,420 L386,415 L375,404 L367,397 L360,389 L353,384 L346,376 L337,367 L332,362 L323,353 L318,348 L307,336 L301,332 L296,327 L292,321 L287,316 L277,307 L265,296 L265,294 L261,292 L230,261 L225,256 L215,246 L209,241 L201,231 L193,224 L164,195 L156,188 L149,181 L144,176 L137,169 L132,164 L122,154 L114,147 L105,137 L100,132 L94,126 L94,124 L90,122 L83,116 L78,111 L63,97 L55,90 L48,83 L41,78 L34,70 L27,63 L19,56 L8,45 L3,42 L-2,43 L-15,55 L-19,60 L-27,67 L-36,76 L-41,81 L-60,100 L-67,108 L-79,122 L-88,132 L-90,132 L-92,136 L-102,146 L-104,149 L-111,152 L-120,160 L-125,166 L-130,171 L-138,179 L-143,183 L-145,186 L-147,186 L-149,190 L-156,198 L-162,203 L-168,210 L-176,217 L-185,228 L-189,234 L-195,239 L-203,243 L-212,253 L-222,264 L-229,272 L-242,283 L-250,291 L-258,298 L-265,306 L-267,306 L-269,310 L-276,317 L-284,324 L-299,340 L-307,347 L-314,353 L-322,363 L-329,371 L-337,378 L-353,394 L-357,399 L-362,404 L-369,411 L-376,419 L-389,431 L-397,440 L-403,443 L-407,451 L-413,458 L-423,464 L-430,472 L-432,472 L-434,476 L-438,482 L-446,490 L-448,490 L-448,453 L-440,446 L-433,438 L-428,436 L-426,432 L-422,427 L-416,422 L-409,414 L-404,409 L-394,399 L-389,394 L-382,387 L-377,382 L-366,371 L-361,366 L-355,359 L-348,351 L-341,345 L-334,337 L-329,332 L-323,327 L-316,319 L-307,312 L-301,304 L-296,301 L-294,297 L-285,290 L-272,276 L-265,268 L-256,259 L-248,252 L-240,243 L-232,236 L-223,228 L-216,219 L-206,209 L-197,198 L-189,191 L-187,191 L-185,187 L-179,182 L-172,173 L-164,166 L-153,155 L-148,150 L-141,143 L-133,136 L-121,122 L-113,114 L-108,109 L-98,99 L-90,92 L-76,77 L-67,67 L-62,62 L-57,58 L-50,50 L-37,38 L-25,27 L-19,19 L-10,9 L-4,5 Z " fill="#000000" transform="translate(448,37)"/>
<path d="M0,0 L7,1 L16,12 L21,16 L29,26 L37,33 L44,39 L48,44 L56,49 L60,54 L71,63 L83,74 L91,81 L91,83 L95,85 L100,89 L105,94 L113,102 L118,107 L123,113 L128,118 L135,124 L141,131 L149,137 L160,149 L166,154 L170,159 L175,164 L190,179 L196,184 L201,189 L210,197 L217,206 L223,211 L223,213 L227,215 L236,224 L241,229 L248,237 L253,241 L258,246 L268,257 L273,262 L279,267 L284,272 L291,281 L296,286 L306,295 L320,310 L326,315 L331,320 L341,329 L349,337 L354,342 L358,346 L358,348 L362,350 L366,354 L372,357 L379,365 L386,374 L397,383 L403,387 L410,394 L411,401 L405,408 L398,414 L391,422 L379,433 L374,438 L364,448 L354,455 L352,455 L350,460 L341,469 L334,477 L326,484 L322,488 L314,495 L305,503 L298,511 L289,520 L285,527 L276,534 L267,543 L262,548 L253,556 L248,561 L239,571 L230,581 L222,588 L213,599 L205,606 L198,614 L176,636 L169,644 L154,658 L149,664 L144,667 L139,668 L137,675 L126,687 L118,692 L112,700 L107,705 L102,710 L95,709 L90,708 L88,711 L88,717 L83,721 L80,723 L81,731 L76,736 L71,742 L65,747 L58,755 L46,768 L39,773 L35,778 L30,781 L25,785 L19,790 L16,801 L11,806 L1,805 L-9,797 L-14,792 L-26,780 L-33,772 L-40,764 L-40,762 L-45,760 L-55,749 L-61,745 L-67,738 L-70,736 L-70,734 L-74,732 L-110,696 L-116,691 L-116,685 L-122,685 L-127,680 L-136,670 L-143,665 L-150,657 L-160,648 L-165,643 L-195,613 L-200,608 L-205,603 L-221,588 L-244,565 L-249,559 L-257,552 L-292,517 L-296,513 L-302,508 L-302,506 L-306,504 L-313,496 L-360,449 L-367,441 L-377,432 L-385,424 L-394,417 L-398,413 L-399,411 L-399,402 L-388,389 L-384,387 L-382,383 L-373,375 L-366,367 L-360,362 L-354,355 L-348,351 L-342,344 L-333,337 L-317,322 L-310,314 L-305,307 L-297,300 L-284,288 L-273,277 L-268,272 L-248,252 L-241,244 L-238,243 L-236,239 L-232,234 L-224,227 L-219,221 L-208,212 L-195,199 L-190,194 L-186,189 L-181,184 L-172,175 L-167,170 L-160,164 L-151,153 L-142,144 L-136,139 L-129,131 L-115,118 L-110,113 L-96,98 L-85,87 L-78,79 L-73,73 L-65,66 L-52,53 L-47,48 L-40,42 L-35,37 L-22,24 L-16,16 L-9,8 L-2,1 Z M4,42 L-8,48 L-18,57 L-29,66 L-37,75 L-42,79 L-47,86 L-57,94 L-72,110 L-80,117 L-88,125 L-96,135 L-108,146 L-115,152 L-122,160 L-130,167 L-150,187 L-158,194 L-187,223 L-194,231 L-199,236 L-206,244 L-214,251 L-224,261 L-231,269 L-234,272 L-236,276 L-244,283 L-253,291 L-258,296 L-265,303 L-272,311 L-279,318 L-283,324 L-290,332 L-295,337 L-306,348 L-311,353 L-323,365 L-331,372 L-345,387 L-351,391 L-360,402 L-361,405 L-361,413 L-357,418 L-353,420 L-350,425 L-342,432 L-337,436 L-332,441 L-325,449 L-317,453 L-313,459 L-303,468 L-297,475 L-289,482 L-275,496 L-266,503 L-260,510 L-255,515 L-247,523 L-242,528 L-230,540 L-225,545 L-214,557 L-203,568 L-198,574 L-192,579 L-187,585 L-179,592 L-173,598 L-171,598 L-169,602 L-153,617 L-145,625 L-138,633 L-127,643 L-123,648 L-113,656 L-109,661 L-100,668 L-93,676 L-68,701 L-61,707 L-54,715 L-43,727 L-37,735 L-31,740 L-22,751 L-14,758 L-9,761 L-5,769 L-3,771 L7,774 L8,775 L13,775 L15,772 L15,765 L18,760 L29,747 L37,741 L44,731 L58,720 L71,707 L80,700 L86,695 L91,689 L95,687 L101,679 L109,672 L115,665 L123,658 L127,652 L134,645 L134,643 L138,641 L145,632 L156,623 L171,607 L178,600 L183,595 L185,594 L185,592 L189,590 L196,582 L202,575 L210,568 L221,557 L228,549 L237,541 L244,533 L254,523 L259,518 L269,508 L276,502 L283,494 L290,487 L290,485 L294,483 L306,471 L311,465 L319,458 L324,453 L329,449 L336,441 L346,432 L351,427 L359,420 L367,413 L374,405 L374,398 L369,394 L364,392 L353,379 L342,367 L333,358 L319,347 L306,335 L295,321 L288,313 L279,302 L274,297 L272,297 L270,293 L264,286 L259,281 L249,271 L241,264 L238,259 L230,252 L224,245 L216,238 L205,227 L200,222 L196,217 L187,210 L178,199 L173,194 L162,185 L154,175 L148,172 L141,163 L133,154 L127,152 L126,149 L124,149 L122,145 L115,138 L109,134 L102,125 L91,114 L82,108 L75,103 L73,103 L71,97 L64,90 L62,90 L60,86 L53,79 L42,70 L37,66 L32,61 L26,56 L19,48 L12,43 Z " fill="#000000" transform="translate(453,230)"/>
<path d="M0,0 Z " fill="#000000" transform="translate(574,769)"/>
</svg>
