<?xml version="1.0" encoding="UTF-8"?>
<!-- Generator: visioncortex VTracer 0.6.12 -->
<svg version="1.1" xmlns="http://www.w3.org/2000/svg" width="900" height="1194">
<path d="M0,0 L70,0 L94,4 L133,9 L166,14 L181,20 L208,28 L225,33 L240,39 L248,43 L264,49 L284,57 L303,66 L311,72 L317,77 L322,81 L324,82 L324,237 L320,236 L313,229 L313,227 L308,225 L307,222 L303,220 L301,216 L297,214 L293,212 L289,208 L284,205 L277,200 L277,198 L272,196 L256,186 L242,178 L231,172 L206,160 L187,153 L167,146 L143,139 L125,135 L106,132 L83,129 L55,127 L31,126 L13,126 L-19,128 L-49,131 L-64,134 L-103,144 L-123,151 L-139,157 L-160,166 L-175,173 L-187,179 L-197,185 L-203,188 L-213,195 L-227,204 L-238,212 L-254,224 L-267,236 L-276,243 L-286,252 L-290,257 L-292,257 L-294,261 L-296,264 L-298,264 L-300,268 L-310,279 L-320,292 L-326,301 L-328,301 L-330,305 L-342,320 L-346,327 L-351,335 L-358,346 L-368,365 L-370,365 L-373,374 L-378,384 L-383,397 L-385,403 L-387,412 L-391,417 L-395,428 L-398,441 L-400,444 L-404,461 L-408,475 L-411,489 L-412,497 L-414,512 L-415,516 L-416,539 L-416,592 L-415,598 L-414,622 L-409,648 L-408,659 L-402,678 L-400,688 L-397,693 L-390,718 L-385,727 L-381,739 L-373,755 L-370,762 L-370,765 L-368,765 L-356,785 L-350,796 L-340,812 L-333,821 L-324,834 L-319,841 L-316,844 L-316,846 L-314,846 L-305,857 L-295,867 L-288,875 L-278,884 L-269,891 L-265,894 L-265,896 L-262,897 L-262,899 L-258,901 L-251,906 L-251,908 L-246,910 L-241,914 L-214,932 L-199,941 L-183,949 L-166,959 L-155,964 L-135,971 L-104,981 L-79,987 L-50,993 L-22,997 L-12,998 L55,998 L86,995 L117,989 L135,985 L156,978 L178,970 L191,965 L205,959 L218,952 L233,944 L244,938 L255,931 L269,923 L276,918 L281,915 L286,910 L292,906 L308,893 L310,893 L310,891 L321,882 L324,881 L324,1036 L304,1048 L290,1055 L284,1059 L273,1065 L256,1073 L240,1079 L218,1089 L198,1096 L174,1103 L151,1110 L114,1118 L78,1123 L37,1126 L-9,1126 L-49,1122 L-85,1116 L-105,1112 L-123,1107 L-146,1101 L-168,1093 L-197,1081 L-225,1069 L-241,1061 L-262,1049 L-278,1040 L-293,1030 L-301,1023 L-315,1013 L-326,1005 L-335,998 L-335,996 L-339,994 L-349,985 L-360,976 L-370,967 L-376,962 L-383,954 L-388,949 L-395,943 L-401,934 L-407,929 L-414,921 L-422,910 L-434,894 L-438,887 L-446,876 L-454,864 L-460,852 L-466,843 L-472,834 L-476,826 L-482,812 L-482,810 L-484,810 L-489,797 L-496,785 L-499,776 L-506,757 L-516,729 L-519,718 L-522,707 L-525,700 L-526,697 L-528,682 L-530,673 L-532,657 L-538,624 L-540,575 L-541,561 L-539,545 L-539,531 L-538,514 L-535,499 L-533,480 L-530,466 L-528,451 L-525,443 L-523,431 L-521,426 L-519,413 L-517,408 L-515,398 L-513,395 L-511,388 L-509,382 L-505,369 L-498,354 L-495,344 L-493,341 L-491,341 L-490,336 L-486,327 L-481,316 L-471,297 L-464,287 L-456,273 L-450,264 L-448,257 L-443,252 L-440,248 L-439,245 L-434,240 L-429,231 L-420,221 L-411,210 L-403,198 L-398,194 L-393,189 L-386,182 L-379,173 L-377,173 L-375,169 L-368,164 L-361,156 L-352,146 L-344,140 L-334,130 L-319,121 L-313,116 L-311,116 L-310,113 L-298,105 L-295,104 L-295,102 L-290,98 L-277,89 L-263,81 L-254,76 L-234,64 L-200,48 L-187,43 L-179,39 L-162,33 L-144,27 L-130,23 L-98,14 L-65,7 L-34,3 Z " fill="#000000" transform="translate(576,35)"/>
<path d="M0,0 L21,0 L39,1 L57,4 L66,8 L70,10 L73,16 L71,21 L63,24 L49,23 L38,20 L17,16 L5,16 L-4,17 L-12,22 L-13,24 L-9,29 L6,38 L9,42 L9,51 L2,57 L0,62 L-5,63 L-8,54 L-15,45 L-24,37 L-29,33 L-32,26 L-32,19 L-29,12 L-18,5 L-9,2 Z " fill="#000000" transform="translate(517,424)"/>
<path d="M0,0 L18,0 L40,4 L67,6 L73,11 L72,17 L66,24 L53,30 L39,34 L30,39 L26,46 L22,54 L21,65 L27,82 L34,95 L36,100 L39,108 L39,110 L41,110 L46,119 L53,124 L57,125 L97,126 L118,131 L134,139 L145,146 L155,154 L164,163 L167,172 L166,177 L162,176 L161,174 L155,172 L149,168 L137,158 L125,151 L117,147 L98,142 L81,142 L68,145 L63,147 L63,155 L67,163 L73,179 L78,189 L85,200 L90,206 L92,207 L92,209 L96,211 L101,216 L102,226 L101,235 L97,241 L91,244 L76,244 L67,240 L55,237 L21,236 L8,238 L1,241 L-3,249 L-3,261 L-2,259 L3,260 L7,270 L8,275 L11,274 L16,283 L26,292 L30,296 L42,305 L57,312 L68,315 L76,316 L99,316 L118,311 L137,302 L142,297 L150,290 L156,282 L158,281 L166,265 L170,255 L172,227 L172,219 L170,206 L170,202 L168,202 L164,192 L165,188 L169,185 L175,186 L180,190 L181,195 L182,195 L184,205 L187,210 L187,245 L185,254 L183,258 L182,264 L180,265 L178,275 L174,283 L170,288 L168,288 L167,293 L161,300 L159,300 L158,303 L156,303 L154,307 L146,312 L141,317 L131,322 L120,327 L101,332 L75,332 L56,328 L35,319 L25,312 L13,301 L8,294 L3,290 L0,287 L-5,274 L-9,265 L-10,255 L-13,251 L-17,243 L-24,240 L-35,240 L-42,243 L-43,245 L-45,245 L-47,250 L-58,264 L-61,270 L-65,271 L-76,269 L-91,262 L-99,258 L-108,251 L-110,248 L-109,241 L-107,239 L-98,240 L-95,238 L-99,236 L-103,237 L-106,238 L-109,231 L-117,226 L-118,224 L-119,204 L-121,198 L-125,196 L-132,188 L-136,183 L-144,176 L-156,163 L-169,150 L-174,145 L-178,140 L-183,135 L-190,129 L-193,128 L-207,128 L-210,131 L-210,141 L-203,151 L-193,163 L-191,168 L-189,171 L-186,180 L-184,187 L-181,190 L-180,194 L-180,203 L-183,205 L-189,200 L-195,188 L-198,185 L-200,180 L-204,175 L-211,171 L-227,172 L-231,175 L-234,183 L-241,193 L-247,203 L-250,206 L-252,206 L-253,210 L-259,217 L-264,222 L-267,225 L-275,227 L-282,227 L-286,223 L-285,218 L-276,210 L-267,203 L-263,201 L-259,196 L-256,189 L-253,188 L-251,183 L-243,167 L-241,164 L-240,159 L-240,150 L-245,145 L-249,142 L-257,139 L-272,137 L-291,138 L-302,140 L-314,144 L-325,150 L-337,159 L-339,159 L-340,162 L-345,167 L-350,168 L-353,175 L-358,180 L-361,179 L-363,175 L-362,170 L-354,154 L-342,141 L-333,135 L-325,131 L-316,127 L-305,123 L-290,120 L-267,120 L-241,124 L-232,123 L-225,120 L-218,106 L-217,96 L-214,92 L-210,90 L-210,77 L-204,59 L-201,53 L-192,50 L-187,54 L-172,59 L-127,61 L-16,61 L-3,58 L3,53 L8,44 L13,36 L14,33 L14,24 L4,21 L-11,16 L-18,12 L-18,7 L-9,2 Z M-178,77 L-187,79 L-198,84 L-201,88 L-200,93 L-198,96 L-196,96 L-194,102 L-185,111 L-180,116 L-171,126 L-164,134 L-157,140 L-152,146 L-147,151 L-145,151 L-143,156 L-133,165 L-128,170 L-118,179 L-102,180 L-100,179 L-82,180 L-67,180 L-59,176 L-54,170 L-51,158 L-47,154 L-43,146 L-33,133 L-29,123 L-26,115 L-21,106 L-21,104 L-19,104 L-18,97 L-14,90 L-15,83 L-19,80 L-34,77 Z M12,97 L-2,98 L-11,115 L-17,124 L-21,130 L-23,133 L-25,142 L-30,154 L-37,165 L-41,175 L-45,183 L-48,189 L-48,197 L-40,213 L-32,217 L-21,216 L-16,213 L-12,204 L-9,192 L-9,189 L-7,189 L-4,178 L2,169 L10,159 L18,151 L23,146 L32,138 L31,129 L27,116 L23,114 L21,105 L17,98 Z M32,161 L24,166 L17,174 L12,179 L5,189 L0,210 L1,214 L6,218 L14,220 L42,221 L57,219 L65,215 L67,212 L67,202 L61,186 L59,181 L57,181 L55,175 L49,164 L46,162 Z M-88,237 L-88,240 L-85,241 L-84,237 Z " fill="#000000" transform="translate(707,446)"/>
<path d="M0,0 L13,1 L18,6 L16,11 L14,13 L4,13 L-2,11 L-7,6 L-5,2 Z " fill="#000000" transform="translate(598,598)"/>
<path d="M0,0 L3,1 L2,7 L0,3 Z " fill="#000000" transform="translate(340,630)"/>
<path d="M0,0 L1,0 L1,8 L0,13 L-1,13 L-1,1 Z " fill="#000000" transform="translate(525,673)"/>
<path d="M0,0 L3,0 L2,3 L0,2 Z " fill="#000000" transform="translate(339,694)"/>
<path d="M0,0 L6,0 L11,4 L15,8 L17,17 L23,20 L32,30 L38,34 L41,37 L50,42 L58,46 L68,49 L85,51 L101,51 L117,48 L128,44 L140,37 L151,29 L156,24 L158,24 L160,19 L168,10 L172,2 L176,0 L181,0 L183,4 L178,18 L175,27 L171,31 L164,39 L160,44 L150,51 L135,60 L121,65 L103,68 L80,68 L65,65 L53,61 L43,56 L29,46 L16,34 L16,32 L12,30 L5,17 L1,11 L-1,5 Z " fill="#000000" transform="translate(339,704)"/>
<path d="M0,0 L5,1 L13,5 L18,11 L16,15 L12,17 L-1,17 L-7,14 L-9,10 L-6,5 L-2,3 L-2,1 Z " fill="#000000" transform="translate(643,724)"/>
</svg>
