<?xml version="1.0" encoding="UTF-8"?>
<!-- Generator: visioncortex VTracer 0.6.12 -->
<svg version="1.1" xmlns="http://www.w3.org/2000/svg" width="1128" height="1122">
<path d="M0,0 L9,0 L4,5 L-6,14 L-14,23 L-22,30 L-34,43 L-41,49 L-46,54 L-55,64 L-62,70 L-69,78 L-83,92 L-88,97 L-95,105 L-103,112 L-110,120 L-118,127 L-145,154 L-152,162 L-192,202 L-194,202 L-195,205 L-197,205 L-198,208 L-206,215 L-216,226 L-224,232 L-231,240 L-243,252 L-248,256 L-255,264 L-270,278 L-281,289 L-286,294 L-293,301 L-297,306 L-305,313 L-316,324 L-321,330 L-329,337 L-347,355 L-352,360 L-381,389 L-386,394 L-390,399 L-395,403 L-400,408 L-408,417 L-416,424 L-423,432 L-428,437 L-433,442 L-446,454 L-453,462 L-461,470 L-469,477 L-486,494 L-491,499 L-499,507 L-504,512 L-524,532 L-529,540 L-531,540 L-531,530 L-523,523 L-506,506 L-501,501 L-491,491 L-483,484 L-478,478 L-470,471 L-430,431 L-428,431 L-426,427 L-416,417 L-411,412 L-397,398 L-392,393 L-358,359 L-353,354 L-348,350 L-341,342 L-335,337 L-330,332 L-323,324 L-318,319 L-311,312 L-303,305 L-298,299 L-292,294 L-287,289 L-276,278 L-271,272 L-263,265 L-257,258 L-249,251 L-242,243 L-237,238 L-227,229 L-221,224 L-214,216 L-209,212 L-202,204 L-198,200 L-196,200 L-194,196 L-185,188 L-180,183 L-174,176 L-172,176 L-172,174 L-164,167 L-159,161 L-154,157 L-150,152 L-145,147 L-138,140 L-133,134 L-128,129 L-123,124 L-115,116 L-109,111 L-105,106 L-99,101 L-94,96 L-88,89 L-83,84 L-67,68 L-59,61 L-50,51 L-48,51 L-46,47 L-37,39 L-32,34 L-18,19 L-10,11 L-3,3 Z " fill="#000000" transform="translate(531,0)"/>
<path d="M0,0 L8,0 L13,5 L24,16 L33,27 L37,31 L37,34 L33,33 L22,23 L22,21 L18,19 L13,13 L5,6 L0,2 Z " fill="#000000" transform="translate(592,0)"/>
<path d="M0,0 L15,0 L22,2 L32,8 L39,15 L44,20 L54,29 L60,36 L68,43 L73,48 L92,67 L97,72 L131,106 L135,111 L143,118 L155,129 L161,136 L166,141 L177,151 L182,157 L187,162 L200,175 L204,178 L204,180 L207,181 L214,189 L229,203 L234,209 L242,216 L282,256 L287,261 L298,271 L298,273 L302,275 L307,281 L315,288 L322,296 L334,307 L339,312 L351,324 L356,329 L370,342 L377,350 L405,378 L413,385 L426,398 L431,403 L444,416 L449,421 L459,432 L467,439 L475,448 L482,456 L488,461 L495,469 L509,483 L517,490 L520,493 L520,495 L524,497 L529,502 L540,513 L545,518 L556,529 L561,536 L564,543 L565,548 L565,562 L563,570 L556,582 L515,623 L511,626 L509,626 L507,630 L501,637 L496,642 L485,654 L477,661 L470,670 L465,675 L458,681 L452,688 L447,693 L434,705 L427,713 L422,718 L409,731 L404,736 L399,742 L391,749 L378,762 L376,762 L374,766 L369,771 L359,780 L354,785 L345,795 L337,803 L332,808 L328,813 L320,820 L316,825 L308,832 L299,840 L292,848 L284,856 L276,863 L266,873 L264,876 L262,876 L261,879 L253,886 L244,896 L229,911 L221,918 L214,926 L209,931 L205,935 L203,935 L201,939 L188,951 L181,959 L177,963 L173,967 L164,972 L162,972 L161,977 L150,987 L145,992 L131,1005 L124,1013 L114,1022 L107,1030 L101,1035 L94,1043 L86,1050 L80,1057 L72,1064 L59,1077 L52,1085 L48,1089 L46,1089 L44,1093 L39,1098 L31,1106 L20,1111 L4,1113 L-11,1108 L-19,1102 L-26,1096 L-33,1088 L-42,1079 L-47,1074 L-62,1060 L-76,1045 L-79,1042 L-79,1040 L-83,1038 L-93,1029 L-104,1018 L-109,1013 L-114,1008 L-122,1000 L-127,995 L-135,987 L-143,980 L-151,970 L-161,966 L-164,961 L-169,956 L-174,952 L-181,944 L-211,914 L-216,909 L-221,905 L-228,897 L-239,887 L-239,885 L-243,883 L-250,876 L-255,871 L-265,860 L-273,853 L-280,846 L-280,844 L-284,842 L-291,836 L-298,828 L-304,823 L-311,815 L-322,804 L-327,799 L-347,779 L-352,774 L-361,765 L-369,758 L-376,751 L-376,749 L-380,747 L-390,737 L-395,733 L-402,725 L-413,714 L-418,709 L-423,704 L-431,696 L-436,692 L-436,690 L-440,688 L-451,677 L-456,672 L-461,667 L-468,660 L-476,653 L-481,648 L-493,635 L-499,630 L-503,625 L-509,620 L-514,615 L-523,606 L-527,601 L-535,594 L-546,582 L-551,570 L-553,563 L-552,548 L-545,536 L-533,522 L-521,511 L-439,429 L-431,422 L-424,414 L-414,405 L-410,400 L-402,393 L-394,384 L-389,379 L-385,375 L-383,375 L-381,371 L-374,365 L-370,360 L-365,356 L-360,351 L-349,340 L-342,332 L-326,317 L-317,308 L-312,303 L-307,297 L-299,290 L-255,246 L-253,246 L-251,242 L-246,237 L-234,225 L-232,225 L-230,221 L-213,204 L-211,204 L-209,200 L-199,190 L-191,183 L-187,178 L-182,173 L-176,168 L-169,159 L-160,151 L-156,146 L-154,146 L-153,143 L-148,138 L-144,136 L-142,132 L-135,126 L-128,118 L-118,109 L-110,101 L-105,96 L-101,91 L-93,84 L-82,73 L-75,65 L-61,52 L-56,47 L-44,35 L-37,27 L-32,22 L-20,11 L-9,3 Z M8,22 L-2,26 L-10,33 L-17,39 L-21,44 L-26,48 L-33,56 L-44,66 L-51,74 L-68,91 L-73,96 L-81,105 L-88,111 L-95,119 L-104,127 L-109,132 L-121,144 L-128,152 L-135,160 L-143,167 L-149,174 L-157,181 L-166,189 L-173,197 L-182,207 L-195,220 L-197,221 L-197,223 L-201,225 L-210,235 L-218,242 L-227,252 L-234,258 L-239,263 L-246,270 L-246,272 L-250,274 L-256,279 L-263,287 L-284,308 L-288,311 L-288,313 L-292,315 L-301,325 L-311,334 L-316,339 L-323,347 L-328,352 L-331,355 L-331,357 L-335,359 L-357,381 L-362,386 L-374,398 L-378,403 L-386,410 L-396,420 L-401,425 L-411,435 L-416,440 L-424,448 L-429,453 L-456,480 L-461,485 L-493,517 L-500,525 L-510,535 L-518,542 L-527,553 L-528,555 L-528,562 L-525,570 L-517,578 L-512,583 L-503,592 L-498,597 L-491,605 L-483,612 L-470,625 L-462,632 L-456,639 L-451,644 L-443,651 L-438,657 L-436,657 L-436,659 L-430,664 L-425,669 L-411,684 L-401,693 L-377,717 L-372,722 L-365,728 L-360,734 L-355,739 L-343,751 L-341,751 L-339,755 L-329,764 L-322,772 L-314,779 L-308,784 L-302,792 L-299,795 L-297,795 L-296,798 L-288,805 L-270,823 L-265,828 L-256,836 L-250,843 L-245,848 L-235,858 L-227,865 L-220,873 L-212,880 L-207,886 L-201,891 L-197,896 L-191,900 L-184,909 L-176,916 L-166,927 L-158,934 L-150,943 L-144,948 L-137,956 L-130,962 L-129,969 L-133,970 L-139,970 L-138,973 L-129,976 L-117,975 L-111,979 L-78,1012 L-70,1019 L-57,1032 L-52,1037 L-12,1077 L-7,1082 L-1,1087 L3,1089 L10,1090 L20,1085 L34,1070 L49,1055 L54,1050 L61,1043 L68,1037 L75,1029 L80,1024 L89,1016 L94,1011 L99,1006 L105,999 L112,993 L117,988 L124,981 L134,978 L140,973 L143,964 L179,928 L187,921 L197,910 L202,905 L211,897 L216,892 L226,882 L233,874 L238,869 L239,866 L243,864 L252,855 L257,850 L267,841 L272,836 L279,829 L279,827 L283,825 L290,817 L297,811 L302,805 L307,800 L314,793 L321,787 L328,779 L337,771 L342,766 L349,759 L355,752 L360,748 L365,743 L371,736 L379,729 L386,722 L391,717 L396,711 L404,704 L409,698 L417,691 L422,686 L422,684 L426,682 L434,673 L442,666 L451,656 L456,651 L461,646 L474,633 L479,626 L487,619 L488,616 L492,614 L502,604 L507,599 L533,573 L539,566 L542,557 L542,551 L537,543 L532,538 L524,531 L517,523 L495,501 L490,497 L487,493 L485,493 L483,489 L475,481 L468,473 L419,424 L414,419 L395,400 L390,395 L382,388 L378,383 L370,376 L354,359 L347,353 L342,348 L333,339 L331,339 L329,335 L298,304 L293,299 L282,288 L280,288 L278,284 L270,277 L269,275 L267,275 L265,271 L260,266 L255,261 L246,253 L241,248 L213,220 L206,212 L196,203 L183,190 L175,183 L168,176 L161,168 L156,163 L143,152 L136,144 L105,113 L103,113 L101,109 L96,104 L93,103 L91,99 L74,82 L66,75 L61,70 L51,59 L49,59 L47,55 L31,39 L23,32 L18,27 L10,22 Z M-150,154 L-153,157 L-152,161 L-151,162 L-143,161 L-142,157 L-145,154 Z M147,970 L144,972 L145,976 L151,976 L154,973 L159,972 L156,970 Z " fill="#000000" transform="translate(558,5)"/>
<path d="M0,0 L5,2 L11,10 L19,17 L26,23 L33,31 L38,35 L45,43 L50,48 L63,61 L68,66 L75,73 L77,74 L77,76 L81,78 L90,88 L96,92 L103,100 L117,114 L122,119 L147,144 L150,146 L150,148 L153,149 L153,151 L157,153 L183,179 L183,181 L187,183 L217,213 L225,220 L231,227 L239,234 L246,241 L249,244 L249,246 L253,248 L265,261 L273,268 L300,295 L307,303 L319,314 L333,328 L338,333 L345,340 L350,345 L363,358 L371,365 L378,373 L383,378 L392,386 L400,396 L414,410 L414,412 L418,414 L427,423 L432,427 L439,435 L454,450 L462,457 L488,483 L488,492 L483,487 L476,480 L469,472 L447,450 L439,443 L439,441 L435,439 L427,431 L427,429 L424,428 L424,426 L421,425 L421,423 L418,422 L418,420 L415,419 L415,417 L411,415 L394,398 L394,396 L392,396 L388,390 L380,383 L376,378 L371,374 L365,367 L360,363 L355,357 L347,350 L329,332 L324,327 L313,316 L308,311 L298,301 L293,296 L268,271 L260,264 L256,259 L248,252 L207,211 L202,206 L181,185 L173,178 L166,170 L156,160 L151,155 L148,153 L148,151 L144,149 L85,90 L80,85 L70,76 L50,56 L43,48 L34,39 L28,34 L23,29 L11,16 L3,9 L-1,4 Z " fill="#000000" transform="translate(640,43)"/>
<path d="M0,0 L5,1 L11,8 L18,19 L24,28 L33,42 L48,65 L52,71 L60,82 L73,100 L82,113 L86,119 L93,128 L100,138 L113,157 L122,169 L130,181 L143,200 L149,208 L156,218 L164,230 L166,236 L166,244 L163,252 L157,259 L150,262 L136,262 L125,259 L120,257 L104,253 L96,250 L80,246 L70,244 L68,244 L66,249 L63,254 L63,288 L64,302 L72,334 L78,350 L86,366 L94,380 L101,392 L109,408 L119,422 L123,429 L133,442 L144,457 L153,469 L161,478 L170,489 L184,503 L191,511 L199,519 L206,527 L214,536 L214,542 L205,552 L197,558 L185,568 L174,577 L160,589 L152,596 L147,597 L142,592 L131,580 L122,570 L118,564 L106,551 L95,537 L87,527 L78,516 L69,502 L66,502 L65,504 L64,548 L65,559 L66,614 L65,660 L60,664 L-7,665 L-20,666 L-32,666 L-44,667 L-51,665 L-53,658 L-53,539 L-52,527 L-53,519 L-53,325 L-54,250 L-56,245 L-59,243 L-65,244 L-91,251 L-109,256 L-123,260 L-131,262 L-148,262 L-156,255 L-159,250 L-160,246 L-160,235 L-152,221 L-141,206 L-134,195 L-129,189 L-123,179 L-113,165 L-106,154 L-99,144 L-91,132 L-85,124 L-78,113 L-70,101 L-63,91 L-59,85 L-55,80 L-48,68 L-40,59 L-33,47 L-23,33 L-16,22 L-10,14 Z M30,110 L29,114 L32,113 L31,110 Z " fill="#000000" transform="translate(559,209)"/>
<path d="M0,0 Z " fill="#000000" transform="translate(280,380)"/>
<path d="M0,0 L2,0 L2,10 L-6,17 L-9,21 L-11,21 L-12,24 L-20,31 L-26,38 L-33,44 L-37,49 L-45,56 L-57,68 L-64,76 L-84,96 L-89,101 L-97,110 L-102,115 L-108,120 L-111,122 L-114,127 L-121,134 L-128,140 L-135,148 L-140,153 L-145,159 L-153,166 L-180,193 L-185,198 L-189,203 L-197,210 L-205,218 L-210,223 L-223,237 L-231,244 L-235,249 L-237,249 L-237,251 L-245,258 L-267,280 L-268,282 L-270,282 L-272,286 L-279,292 L-286,300 L-288,300 L-289,303 L-291,303 L-293,307 L-298,312 L-300,312 L-302,316 L-307,321 L-316,330 L-318,330 L-320,334 L-330,343 L-331,345 L-333,345 L-335,349 L-345,358 L-346,360 L-348,360 L-349,363 L-351,363 L-353,367 L-360,374 L-368,381 L-373,387 L-378,390 L-381,390 L-380,385 L-366,371 L-361,366 L-347,352 L-342,347 L-339,346 L-337,342 L-330,335 L-322,328 L-317,322 L-309,315 L-301,307 L-294,299 L-284,289 L-279,285 L-274,280 L-265,270 L-257,262 L-255,262 L-253,258 L-246,251 L-241,246 L-236,242 L-230,235 L-228,235 L-227,232 L-222,227 L-211,216 L-206,211 L-198,203 L-193,198 L-188,194 L-181,186 L-176,181 L-164,170 L-158,163 L-152,158 L-147,153 L-132,137 L-116,121 L-113,120 L-109,114 L-103,108 L-101,108 L-99,104 L-85,89 L-78,83 L-71,75 L-59,63 L-58,61 L-56,61 L-55,58 L-53,58 L-51,54 L-44,48 L-40,43 L-35,38 L-28,31 L-26,31 L-24,27 L-20,25 L-18,21 L-13,16 L-4,7 Z " fill="#000000" transform="translate(1126,586)"/>
<path d="M0,0 L4,4 L13,15 L21,23 L26,28 L34,35 L37,38 L37,40 L41,42 L48,49 L53,54 L64,66 L71,73 L76,78 L83,86 L94,95 L99,100 L120,121 L128,128 L140,140 L145,146 L153,153 L169,169 L174,174 L180,179 L187,187 L195,194 L199,199 L207,206 L212,211 L238,237 L238,239 L242,241 L253,252 L258,257 L275,274 L277,275 L277,277 L281,279 L288,287 L293,292 L298,297 L322,321 L328,326 L332,331 L334,332 L334,334 L337,335 L337,337 L340,338 L340,340 L344,342 L361,359 L361,361 L365,363 L383,381 L382,385 L377,383 L371,377 L371,375 L369,375 L362,367 L348,354 L344,349 L339,344 L329,335 L329,333 L325,331 L314,320 L314,318 L310,316 L297,303 L292,298 L254,260 L249,255 L244,251 L239,246 L235,241 L227,234 L223,229 L215,222 L212,219 L212,217 L208,215 L201,207 L199,206 L199,204 L195,202 L155,162 L150,158 L146,153 L141,148 L134,142 L129,137 L122,129 L117,124 L100,108 L99,105 L96,104 L91,99 L86,93 L78,86 L71,80 L64,72 L53,62 L48,57 L35,44 L30,39 L29,36 L25,34 L20,28 L14,24 L9,18 L1,11 L0,10 Z " fill="#000000" transform="translate(0,589)"/>
<path d="M0,0 L2,0 L2,3 L-1,4 L-1,1 Z " fill="#000000" transform="translate(336,810)"/>
<path d="M0,0 L2,0 L1,5 L-9,15 L-11,15 L-13,19 L-18,24 L-21,27 L-23,27 L-25,31 L-29,33 L-31,37 L-40,45 L-47,53 L-50,54 L-51,57 L-53,57 L-55,61 L-62,67 L-69,75 L-75,81 L-77,81 L-79,85 L-91,96 L-95,101 L-100,105 L-105,110 L-119,125 L-128,135 L-136,141 L-137,143 L-145,143 L-145,141 L-137,135 L-122,120 L-118,115 L-113,110 L-76,73 L-68,66 L-61,58 L-56,54 L-49,46 L-40,38 L-33,30 L-26,24 L-19,16 L-13,10 L-11,10 L-10,7 Z " fill="#000000" transform="translate(738,979)"/>
<path d="M0,0 L5,1 L13,10 L21,17 L29,24 L36,32 L41,37 L46,41 L51,46 L62,57 L62,59 L66,61 L74,69 L74,71 L78,73 L100,95 L105,100 L138,133 L146,139 L146,141 L139,141 L129,132 L129,130 L125,128 L123,124 L119,122 L117,118 L115,118 L110,113 L108,109 L106,109 L99,101 L94,96 L81,83 L75,78 L71,73 L63,66 L40,43 L34,38 L32,34 L24,27 L13,16 L8,11 L0,4 L-1,1 Z " fill="#000000" transform="translate(392,981)"/>
</svg>
