<?xml version="1.0" encoding="UTF-8"?>
<!-- Generator: visioncortex VTracer 0.6.12 -->
<svg version="1.1" xmlns="http://www.w3.org/2000/svg" width="1113" height="1095">
<path d="M0,0 L240,0 L245,3 L262,6 L276,10 L293,16 L302,19 L321,27 L333,31 L352,39 L366,47 L375,51 L397,63 L413,72 L424,80 L434,86 L445,94 L456,102 L462,106 L467,110 L472,115 L480,121 L488,128 L493,133 L503,143 L503,145 L507,147 L515,154 L520,160 L526,164 L532,172 L539,179 L545,187 L553,197 L558,202 L562,207 L569,218 L577,228 L585,241 L593,252 L600,265 L608,279 L614,289 L621,306 L627,316 L633,331 L641,346 L647,361 L651,370 L658,392 L661,404 L665,417 L669,433 L670,434 L670,660 L668,660 L666,675 L662,688 L658,704 L651,724 L646,739 L641,750 L638,759 L629,778 L626,786 L618,802 L612,812 L609,818 L601,832 L594,843 L587,854 L581,863 L574,872 L562,888 L551,901 L543,912 L538,917 L531,925 L528,930 L524,932 L517,940 L503,952 L486,968 L476,975 L465,985 L459,989 L452,995 L444,1001 L436,1006 L424,1013 L414,1020 L403,1027 L390,1034 L374,1043 L362,1050 L349,1055 L341,1059 L328,1063 L318,1068 L308,1072 L298,1075 L285,1078 L282,1080 L273,1083 L265,1085 L258,1089 L237,1092 L232,1093 L231,1095 L-13,1095 L-20,1092 L-44,1087 L-49,1085 L-57,1083 L-64,1080 L-77,1075 L-96,1071 L-102,1067 L-111,1065 L-118,1062 L-129,1059 L-137,1054 L-141,1051 L-148,1048 L-154,1046 L-175,1035 L-182,1031 L-191,1024 L-202,1018 L-210,1012 L-219,1005 L-225,1000 L-230,997 L-235,993 L-243,988 L-250,981 L-262,972 L-266,967 L-275,961 L-279,955 L-286,949 L-291,944 L-296,938 L-304,931 L-312,921 L-312,919 L-316,917 L-324,907 L-332,898 L-336,892 L-345,882 L-350,874 L-360,863 L-369,846 L-375,837 L-386,817 L-392,805 L-401,788 L-408,772 L-415,756 L-422,735 L-426,727 L-430,711 L-433,698 L-439,678 L-442,666 L-443,665 L-443,445 L-441,445 L-439,433 L-436,416 L-429,395 L-426,383 L-420,367 L-413,347 L-409,338 L-402,322 L-396,308 L-391,298 L-387,290 L-382,281 L-376,270 L-369,260 L-363,250 L-355,238 L-345,224 L-338,213 L-328,201 L-320,191 L-315,186 L-306,176 L-297,166 L-288,155 L-278,146 L-269,136 L-263,132 L-257,127 L-252,122 L-245,116 L-231,105 L-226,101 L-211,91 L-203,85 L-196,81 L-192,77 L-178,69 L-167,62 L-157,57 L-147,52 L-131,44 L-123,39 L-103,31 L-93,26 L-80,22 L-71,18 L-59,16 L-48,12 L-40,10 L-29,7 L-14,3 L-1,1 Z M127,72 L126,74 L129,74 L129,72 Z M111,110 L95,111 L58,116 L46,116 L38,119 L27,121 L26,122 L15,123 L10,125 L3,126 L-9,130 L-20,134 L-34,139 L-52,144 L-69,152 L-79,156 L-99,166 L-118,177 L-134,187 L-143,194 L-152,201 L-163,209 L-172,216 L-180,224 L-191,233 L-205,248 L-221,265 L-232,279 L-243,293 L-249,301 L-252,308 L-259,316 L-264,325 L-271,335 L-275,343 L-280,356 L-284,363 L-287,372 L-291,379 L-298,397 L-304,414 L-312,439 L-319,467 L-320,469 L-322,483 L-327,509 L-328,558 L-329,562 L-329,571 L-327,588 L-323,622 L-320,637 L-319,646 L-315,660 L-312,669 L-308,686 L-301,703 L-298,713 L-289,733 L-281,749 L-276,758 L-274,764 L-267,775 L-263,783 L-252,798 L-246,806 L-243,812 L-236,819 L-228,829 L-217,842 L-208,851 L-201,859 L-195,864 L-190,870 L-182,877 L-173,884 L-162,893 L-158,898 L-155,901 L-152,905 L-144,906 L-133,914 L-124,920 L-112,927 L-103,933 L-94,938 L-78,946 L-70,950 L-60,954 L-43,959 L-33,963 L-25,965 L-15,968 L-3,971 L10,974 L12,975 L27,977 L46,980 L61,984 L92,985 L139,985 L169,981 L192,979 L215,974 L231,970 L245,966 L254,963 L266,959 L279,953 L288,950 L301,945 L309,940 L316,936 L335,926 L347,919 L356,914 L365,907 L372,902 L377,897 L387,890 L400,879 L408,873 L417,863 L429,855 L436,846 L444,838 L450,829 L455,824 L463,814 L466,811 L469,806 L478,794 L482,789 L492,771 L498,762 L508,745 L518,723 L523,713 L528,698 L532,687 L537,672 L540,659 L543,649 L546,634 L550,614 L553,589 L554,559 L554,531 L557,525 L556,517 L553,510 L549,479 L544,454 L542,449 L538,432 L533,416 L525,393 L519,378 L515,372 L508,355 L503,347 L500,342 L498,337 L490,326 L487,321 L476,302 L466,289 L456,275 L445,262 L440,260 L438,255 L427,243 L415,231 L413,231 L411,227 L399,216 L395,212 L381,202 L377,198 L366,189 L353,181 L345,176 L339,172 L325,165 L318,161 L309,157 L303,152 L293,148 L286,146 L283,143 L264,137 L261,135 L253,133 L243,129 L231,126 L221,124 L219,123 L210,122 L205,120 L199,120 L191,117 L173,115 L160,112 L149,114 L143,114 L142,113 L116,110 Z M394,187 L395,190 L397,189 L397,187 Z M403,897 L403,900 L407,899 L407,897 Z M413,902 L413,906 L417,904 L417,902 Z " fill="#000000" transform="translate(443,0)"/>
</svg>
