<?xml version="1.0" encoding="UTF-8"?>
<!-- Generator: visioncortex VTracer 0.6.12 -->
<svg version="1.1" xmlns="http://www.w3.org/2000/svg" width="993" height="1200">
<path d="M0,0 L22,0 L43,2 L51,3 L67,5 L70,6 L84,7 L87,8 L101,9 L118,12 L123,15 L130,15 L144,19 L150,22 L158,23 L165,26 L175,29 L181,32 L198,38 L218,47 L232,54 L254,64 L270,73 L276,77 L288,84 L295,88 L304,94 L315,102 L320,106 L332,114 L341,122 L347,126 L352,131 L360,138 L376,153 L390,167 L394,173 L403,183 L410,191 L418,202 L423,208 L434,222 L444,235 L452,246 L456,251 L466,269 L474,282 L479,292 L482,299 L488,308 L496,324 L501,336 L505,345 L512,362 L517,375 L521,385 L526,404 L532,424 L536,443 L538,455 L540,464 L543,482 L546,503 L547,506 L549,533 L549,601 L547,624 L542,660 L540,665 L539,679 L532,710 L526,731 L522,744 L516,759 L511,775 L507,784 L500,800 L495,812 L490,825 L482,841 L470,862 L462,874 L457,883 L452,892 L439,906 L430,919 L419,932 L408,945 L402,952 L397,957 L387,967 L383,968 L381,973 L374,981 L364,990 L356,997 L351,1001 L346,1006 L340,1010 L335,1015 L324,1022 L312,1031 L291,1045 L282,1050 L269,1058 L260,1064 L250,1068 L244,1072 L226,1080 L208,1088 L190,1095 L184,1097 L174,1101 L156,1107 L133,1114 L117,1117 L106,1120 L94,1121 L89,1123 L77,1125 L61,1128 L34,1131 L30,1132 L6,1133 L-41,1133 L-60,1131 L-65,1130 L-82,1129 L-108,1125 L-124,1121 L-136,1120 L-150,1115 L-162,1112 L-172,1109 L-179,1107 L-186,1103 L-202,1099 L-210,1095 L-216,1092 L-225,1089 L-234,1085 L-244,1080 L-253,1076 L-269,1068 L-282,1060 L-290,1056 L-298,1051 L-307,1045 L-318,1038 L-323,1034 L-330,1030 L-336,1025 L-348,1017 L-353,1012 L-353,1010 L-359,1008 L-362,1006 L-362,1004 L-366,1002 L-372,997 L-378,993 L-380,989 L-384,987 L-394,978 L-399,973 L-407,965 L-412,961 L-412,743 L-409,744 L-402,761 L-397,771 L-389,787 L-385,795 L-378,802 L-369,818 L-362,828 L-353,839 L-349,844 L-343,855 L-327,871 L-319,877 L-308,888 L-305,891 L-300,895 L-300,897 L-295,899 L-289,904 L-284,910 L-276,916 L-265,925 L-254,932 L-244,939 L-228,948 L-216,955 L-194,967 L-184,971 L-175,975 L-164,979 L-134,989 L-122,991 L-116,994 L-101,997 L-96,999 L-82,1001 L-80,1002 L-55,1005 L-41,1006 L-35,1007 L-4,1006 L10,1006 L26,1005 L33,1005 L43,1003 L70,1000 L90,995 L100,994 L108,991 L115,988 L117,987 L131,985 L166,970 L176,966 L186,960 L198,954 L220,941 L233,933 L246,924 L253,920 L258,915 L272,904 L280,898 L301,877 L306,872 L312,865 L317,860 L325,852 L331,844 L341,830 L351,817 L363,798 L373,780 L381,764 L388,750 L393,737 L400,716 L409,686 L414,667 L419,638 L421,622 L422,610 L424,603 L424,588 L426,575 L426,565 L425,564 L424,551 L424,535 L423,517 L419,496 L418,484 L414,469 L411,453 L408,446 L406,434 L401,423 L394,400 L383,377 L380,372 L377,365 L370,352 L363,338 L359,333 L354,324 L348,315 L340,304 L334,294 L327,287 L323,281 L316,272 L305,260 L301,256 L301,254 L297,252 L291,245 L284,240 L277,232 L268,224 L262,220 L251,212 L240,204 L229,196 L218,188 L210,185 L207,182 L197,177 L181,168 L163,160 L155,156 L147,153 L137,149 L127,147 L118,143 L107,141 L102,139 L91,137 L81,134 L64,132 L54,130 L52,129 L34,127 L0,126 L-21,126 L-38,127 L-41,128 L-62,130 L-69,131 L-92,135 L-108,138 L-113,140 L-125,142 L-130,145 L-142,148 L-157,154 L-166,156 L-173,160 L-180,163 L-190,167 L-198,171 L-204,175 L-220,182 L-227,188 L-239,194 L-251,201 L-260,208 L-264,211 L-269,214 L-274,218 L-284,226 L-289,231 L-301,240 L-308,248 L-320,261 L-327,270 L-332,275 L-340,285 L-349,296 L-359,309 L-367,321 L-371,328 L-383,348 L-395,369 L-399,376 L-405,392 L-410,404 L-412,404 L-412,174 L-407,169 L-394,157 L-387,151 L-382,149 L-380,145 L-366,134 L-359,127 L-349,120 L-342,114 L-331,106 L-324,100 L-313,93 L-302,85 L-275,71 L-267,66 L-259,62 L-253,59 L-245,56 L-231,49 L-217,43 L-207,39 L-189,32 L-173,26 L-156,22 L-140,17 L-127,15 L-121,15 L-115,12 L-106,10 L-90,8 L-70,6 L-65,4 L-54,3 L-46,2 L-28,2 L-20,1 Z M-63,73 L-65,76 L-64,81 L-60,82 L-57,79 L-58,74 Z M433,559 L430,562 L431,565 L436,564 L436,560 Z M491,592 L491,594 L493,594 L493,592 Z " fill="#000000" transform="translate(412,35)"/>
<path d="M0,0 L5,1 L13,8 L17,11 L20,16 L27,21 L34,29 L42,40 L50,47 L57,55 L68,66 L72,72 L79,79 L83,85 L85,89 L89,91 L98,98 L100,102 L100,107 L94,111 L55,113 L54,116 L53,134 L53,149 L54,165 L55,190 L54,222 L54,256 L55,279 L54,432 L55,452 L55,479 L54,485 L55,494 L55,531 L56,544 L56,567 L54,576 L51,579 L15,581 L3,581 L-5,582 L-35,579 L-40,576 L-43,563 L-44,552 L-44,519 L-45,486 L-45,220 L-46,184 L-46,152 L-47,127 L-48,115 L-52,112 L-77,112 L-84,110 L-88,104 L-88,96 L-82,88 L-70,74 L-62,67 L-57,61 L-52,56 L-38,41 L-27,29 L-19,18 L-14,13 L-10,8 L-8,8 L-6,4 Z " fill="#000000" transform="translate(592,315)"/>
<path d="M0,0 L45,0 L71,1 L77,6 L79,9 L79,16 L78,27 L79,30 L79,47 L77,67 L77,96 L73,129 L73,155 L72,159 L71,184 L70,251 L70,264 L69,278 L69,310 L68,320 L69,367 L68,403 L68,426 L71,443 L80,450 L116,451 L123,453 L139,454 L145,458 L144,465 L128,481 L120,485 L115,492 L114,498 L107,497 L98,505 L93,508 L86,515 L78,521 L69,528 L61,536 L53,542 L43,548 L38,552 L33,557 L23,565 L15,569 L7,578 L-4,578 L-16,570 L-28,561 L-38,554 L-54,541 L-67,531 L-80,521 L-91,513 L-107,501 L-113,497 L-123,489 L-126,485 L-139,479 L-153,474 L-154,473 L-153,455 L-149,451 L-143,449 L-128,450 L-121,449 L-87,448 L-79,446 L-76,438 L-75,411 L-75,390 L-74,357 L-73,309 L-73,189 L-72,139 L-72,87 L-71,37 L-70,33 L-70,17 L-71,10 L-68,5 L-61,2 L-44,1 Z " fill="#000000" transform="translate(215,329)"/>
</svg>
