<?xml version="1.0" encoding="UTF-8"?>
<!-- Generator: visioncortex VTracer 0.6.12 -->
<svg version="1.1" xmlns="http://www.w3.org/2000/svg" width="1164" height="1071">
<path d="M0,0 L10,0 L28,4 L49,16 L58,27 L68,42 L73,50 L76,56 L83,67 L87,73 L90,79 L97,89 L101,95 L109,111 L115,120 L120,128 L126,138 L135,154 L139,161 L143,167 L149,177 L153,183 L159,195 L169,211 L175,222 L182,233 L190,247 L198,260 L204,270 L217,294 L220,299 L232,318 L238,329 L242,335 L246,341 L254,357 L263,373 L270,385 L274,395 L279,402 L282,408 L286,414 L289,420 L293,425 L296,431 L302,442 L309,453 L314,462 L320,470 L331,490 L336,498 L344,511 L348,516 L352,528 L360,539 L366,550 L373,559 L377,568 L386,583 L393,594 L397,605 L403,613 L406,617 L413,631 L417,636 L421,646 L429,659 L435,669 L441,681 L444,684 L449,694 L453,700 L456,707 L465,720 L468,726 L474,735 L481,751 L486,756 L490,763 L497,776 L501,781 L506,791 L510,799 L513,805 L516,808 L520,817 L526,826 L531,833 L537,845 L545,858 L551,868 L561,886 L567,901 L570,912 L570,929 L567,950 L560,963 L552,974 L543,981 L538,985 L533,988 L523,993 L514,995 L496,995 L492,997 L480,997 L474,996 L469,997 L456,997 L453,998 L427,999 L418,998 L416,999 L400,1000 L396,997 L392,998 L390,999 L365,999 L354,1000 L302,1000 L290,1001 L284,999 L275,1000 L270,1001 L250,1000 L230,1000 L226,999 L223,1000 L200,1000 L194,1001 L158,1001 L143,1000 L115,1000 L112,1001 L105,1001 L103,1000 L75,1000 L73,1001 L54,1000 L29,1001 L-70,1001 L-87,1000 L-106,1000 L-135,1001 L-138,1002 L-148,1002 L-164,1001 L-204,1001 L-213,1002 L-221,1001 L-223,1002 L-239,1002 L-262,1003 L-292,1002 L-295,1003 L-315,1004 L-332,1004 L-357,1005 L-357,905 L-347,905 L-345,906 L-339,906 L-337,905 L-324,905 L-314,904 L-282,904 L-264,903 L-252,903 L-247,902 L-245,908 L-240,906 L-235,902 L-222,902 L-212,903 L-197,903 L-183,905 L-177,905 L-174,902 L-158,901 L-143,901 L-137,902 L-123,902 L-120,901 L-67,901 L-59,902 L-40,902 L-33,903 L-20,901 L9,900 L77,900 L84,901 L105,900 L109,901 L168,900 L199,899 L205,898 L209,900 L223,900 L241,899 L253,899 L256,904 L259,904 L262,900 L282,898 L358,898 L371,897 L433,897 L441,894 L442,892 L442,884 L436,871 L426,856 L423,849 L417,840 L414,833 L408,824 L405,818 L402,815 L395,801 L390,795 L384,783 L379,774 L373,764 L370,758 L363,747 L357,736 L349,723 L341,710 L336,704 L330,690 L328,687 L326,681 L320,674 L312,660 L305,651 L303,646 L299,641 L291,624 L285,613 L277,601 L273,596 L271,589 L268,585 L265,576 L259,567 L249,551 L241,535 L235,528 L228,514 L219,500 L213,489 L209,479 L200,463 L194,454 L190,449 L187,441 L181,432 L177,426 L172,416 L164,403 L156,387 L150,380 L146,372 L140,360 L136,355 L130,344 L126,340 L124,333 L118,324 L112,317 L107,308 L104,300 L95,289 L91,279 L82,265 L75,254 L71,245 L66,238 L62,230 L56,221 L49,210 L40,195 L32,182 L28,173 L22,169 L19,162 L15,157 L12,150 L7,144 L2,143 L-6,150 L-13,160 L-21,175 L-26,183 L-32,193 L-35,200 L-40,212 L-47,220 L-52,231 L-57,239 L-63,250 L-74,268 L-79,277 L-86,290 L-90,297 L-95,306 L-100,314 L-107,324 L-111,332 L-116,339 L-120,349 L-125,356 L-130,367 L-134,372 L-142,385 L-147,394 L-150,396 L-153,405 L-162,421 L-168,431 L-177,447 L-184,457 L-189,467 L-198,483 L-206,497 L-210,504 L-219,520 L-226,531 L-233,542 L-241,558 L-247,568 L-255,582 L-265,600 L-272,612 L-277,621 L-285,635 L-291,644 L-297,658 L-305,669 L-311,680 L-322,699 L-327,709 L-334,719 L-341,731 L-345,739 L-351,750 L-356,757 L-357,757 L-357,560 L-355,560 L-353,554 L-341,532 L-335,522 L-325,505 L-317,490 L-313,484 L-309,477 L-304,469 L-297,455 L-289,444 L-283,432 L-278,424 L-273,414 L-267,403 L-258,387 L-252,377 L-248,372 L-243,362 L-240,357 L-228,335 L-220,323 L-213,309 L-202,291 L-196,279 L-190,270 L-184,258 L-178,249 L-172,237 L-166,227 L-158,212 L-154,208 L-151,199 L-144,188 L-135,172 L-132,168 L-130,168 L-127,158 L-117,141 L-108,126 L-102,116 L-100,114 L-97,107 L-91,96 L-85,87 L-82,81 L-77,73 L-72,63 L-63,50 L-56,36 L-47,24 L-39,16 L-26,7 L-12,1 Z M134,240 L132,241 L133,251 L138,251 L139,250 L139,243 L136,240 Z M390,627 L388,630 L391,633 L394,632 L393,627 Z M114,908 L114,910 L117,909 Z M490,971 L490,975 L492,975 L492,971 Z " fill="#000000" transform="translate(357,35)"/>
<path d="M0,0 L9,0 L22,4 L32,11 L40,19 L44,27 L48,43 L49,52 L50,80 L48,100 L48,134 L46,150 L44,163 L43,176 L40,190 L38,214 L37,220 L36,236 L32,256 L29,277 L24,293 L22,301 L18,315 L14,321 L9,325 L2,324 L-2,317 L-4,312 L-5,298 L-10,282 L-12,272 L-15,257 L-19,235 L-21,218 L-25,192 L-27,178 L-29,158 L-30,153 L-30,139 L-32,125 L-33,106 L-34,101 L-34,41 L-31,27 L-26,18 L-21,12 L-15,8 L-6,2 Z " fill="#000000" transform="translate(346,396)"/>
<path d="M0,0 L1,0 L1,211 L-3,220 L-2,225 L1,227 L1,329 L-26,330 L-33,331 L-43,330 L-60,330 L-76,327 L-91,320 L-99,315 L-109,308 L-116,301 L-124,288 L-129,277 L-131,271 L-131,256 L-130,253 L-129,237 L-125,227 L-115,208 L-108,197 L-100,181 L-91,165 L-84,152 L-78,143 L-73,133 L-66,121 L-58,105 L-51,91 L-45,83 L-37,67 L-29,54 L-19,36 L-13,25 L-3,6 L-1,1 Z " fill="#000000" transform="translate(1163,699)"/>
<path d="M0,0 L10,0 L19,4 L27,10 L33,17 L36,25 L36,37 L32,45 L26,52 L17,57 L13,58 L-2,57 L-15,50 L-21,40 L-23,34 L-23,23 L-17,11 L-10,5 L-4,1 Z " fill="#000000" transform="translate(345,804)"/>
</svg>
