<?xml version="1.0" encoding="UTF-8"?>
<!-- Generator: visioncortex VTracer 0.6.12 -->
<svg version="1.1" xmlns="http://www.w3.org/2000/svg" width="1110" height="978">
<path d="M0,0 L71,0 L83,9 L90,16 L95,21 L105,37 L110,46 L114,52 L121,68 L128,77 L132,83 L136,89 L139,99 L143,106 L148,113 L152,122 L155,125 L158,131 L161,136 L164,144 L168,148 L175,162 L179,168 L186,184 L189,187 L198,203 L203,211 L212,226 L217,236 L223,243 L229,259 L237,272 L247,291 L252,299 L262,318 L264,323 L266,323 L273,335 L278,345 L281,349 L286,359 L291,368 L294,376 L297,379 L304,393 L312,407 L317,415 L324,429 L324,431 L326,431 L330,441 L334,449 L341,459 L349,475 L359,494 L364,500 L368,508 L375,520 L383,536 L390,548 L397,562 L403,573 L408,579 L413,590 L421,604 L426,614 L433,628 L436,633 L439,636 L443,645 L447,651 L452,659 L457,669 L464,679 L468,689 L474,700 L482,712 L488,724 L495,734 L499,744 L501,749 L503,749 L506,758 L511,767 L515,773 L525,797 L525,800 L528,801 L533,811 L540,822 L546,831 L553,845 L558,853 L564,865 L567,868 L573,881 L578,892 L578,896 L580,896 L580,931 L574,941 L570,951 L566,956 L564,956 L563,959 L561,959 L559,963 L551,970 L545,974 L537,978 L-491,978 L-491,976 L-501,973 L-510,967 L-515,962 L-520,958 L-526,949 L-526,946 L-530,945 L-530,876 L-526,871 L-522,863 L-518,856 L-514,850 L-507,836 L-503,832 L-498,822 L-496,822 L-495,818 L-493,818 L-492,812 L-486,801 L-482,796 L-477,786 L-470,778 L-466,767 L-461,762 L-458,755 L-453,747 L-448,739 L-444,732 L-438,722 L-432,712 L-428,708 L-425,699 L-421,697 L-419,692 L-414,682 L-410,677 L-402,662 L-395,650 L-386,636 L-380,626 L-374,617 L-370,608 L-366,601 L-364,601 L-361,591 L-357,586 L-355,586 L-353,581 L-346,569 L-340,562 L-336,552 L-327,537 L-321,527 L-314,516 L-310,509 L-303,497 L-300,492 L-294,481 L-292,481 L-290,476 L-284,464 L-280,458 L-272,445 L-265,433 L-260,423 L-254,415 L-249,403 L-241,392 L-238,384 L-232,376 L-225,362 L-223,362 L-221,358 L-214,344 L-210,339 L-199,319 L-195,312 L-189,305 L-181,289 L-176,279 L-174,274 L-172,274 L-170,269 L-165,260 L-158,250 L-154,240 L-151,232 L-144,226 L-132,207 L-127,197 L-121,185 L-117,180 L-108,165 L-105,162 L-101,153 L-97,145 L-93,140 L-88,130 L-84,123 L-82,123 L-80,117 L-73,106 L-68,97 L-66,91 L-61,85 L-52,70 L-45,56 L-39,48 L-34,35 L-29,30 L-22,20 L-12,8 L-2,2 Z M26,136 L21,140 L17,150 L7,163 L4,169 L-1,175 L-11,194 L-15,199 L-19,208 L-24,215 L-28,224 L-34,234 L-38,242 L-43,248 L-51,262 L-55,269 L-62,282 L-66,286 L-71,298 L-80,308 L-87,314 L-89,318 L-91,328 L-100,343 L-109,359 L-112,362 L-112,364 L-114,364 L-120,373 L-124,383 L-135,404 L-139,409 L-143,416 L-150,428 L-157,439 L-160,448 L-163,449 L-167,459 L-174,467 L-180,479 L-186,488 L-197,507 L-202,515 L-202,517 L-204,517 L-213,533 L-223,551 L-226,554 L-231,565 L-238,577 L-243,588 L-248,593 L-254,604 L-256,606 L-258,611 L-264,620 L-268,628 L-273,636 L-279,646 L-283,651 L-286,659 L-291,664 L-297,676 L-298,679 L-301,682 L-307,691 L-311,698 L-318,710 L-319,713 L-321,713 L-328,727 L-333,731 L-338,743 L-342,748 L-350,764 L-352,768 L-357,773 L-363,784 L-367,791 L-372,799 L-373,804 L-377,806 L-383,817 L-390,826 L-394,835 L-400,845 L-406,855 L-409,860 L-415,872 L-414,877 L-412,879 L-397,882 L-387,883 L-309,884 L-17,884 L291,883 L371,883 L431,882 L445,880 L453,876 L452,869 L446,855 L441,847 L437,836 L433,830 L427,818 L421,808 L417,800 L414,795 L411,794 L408,785 L403,775 L397,768 L393,757 L391,755 L389,750 L385,741 L383,736 L378,734 L375,724 L367,710 L362,698 L360,698 L358,693 L348,679 L338,660 L336,660 L334,654 L329,644 L319,625 L312,614 L306,600 L300,592 L292,579 L288,569 L284,562 L282,562 L280,557 L272,542 L270,541 L263,525 L257,516 L254,507 L248,500 L242,488 L240,488 L238,484 L233,472 L228,467 L226,462 L222,454 L218,447 L210,431 L203,421 L199,412 L193,403 L185,387 L177,372 L174,367 L166,353 L160,343 L154,333 L148,321 L146,314 L140,307 L136,299 L134,292 L129,286 L125,279 L118,268 L113,254 L109,250 L105,240 L98,228 L94,220 L90,211 L84,202 L77,191 L68,172 L63,166 L59,158 L55,150 L50,141 L43,136 Z " fill="#000000" transform="translate(530,0)"/>
<path d="M0,0 L7,1 L17,3 L25,6 L31,14 L35,23 L37,36 L41,43 L41,48 L35,56 L34,59 L34,67 L37,77 L40,80 L55,87 L82,96 L97,106 L103,111 L107,115 L112,120 L120,128 L122,133 L126,135 L133,143 L140,151 L144,156 L151,168 L154,171 L157,177 L171,199 L177,210 L179,216 L179,227 L178,241 L178,259 L176,267 L173,296 L169,307 L165,313 L160,317 L153,320 L120,321 L111,324 L107,340 L109,346 L114,360 L119,368 L125,380 L128,388 L131,391 L137,402 L143,411 L150,425 L153,430 L160,441 L164,446 L170,448 L180,448 L181,447 L188,446 L192,443 L198,441 L211,440 L223,442 L229,445 L236,447 L238,450 L234,453 L221,457 L218,458 L204,458 L190,456 L176,456 L175,457 L175,467 L179,474 L179,477 L183,479 L191,493 L197,502 L206,517 L210,523 L214,532 L217,548 L218,553 L218,563 L214,567 L203,572 L187,576 L164,579 L155,581 L139,581 L130,579 L127,576 L127,567 L135,560 L140,557 L142,557 L143,554 L145,554 L146,544 L143,533 L137,522 L131,515 L124,503 L121,499 L116,487 L112,483 L108,474 L100,462 L94,451 L89,446 L89,438 L86,434 L84,429 L78,422 L73,414 L69,412 L54,411 L49,414 L47,414 L44,424 L39,430 L38,435 L45,439 L66,442 L73,443 L76,446 L74,451 L67,454 L63,455 L53,455 L45,454 L33,455 L24,459 L19,464 L13,475 L11,481 L2,498 L-1,504 L-6,512 L-10,522 L-16,530 L-21,541 L-29,554 L-34,559 L-40,564 L-43,567 L-47,569 L-62,569 L-72,564 L-78,559 L-85,555 L-100,550 L-108,546 L-113,542 L-113,540 L-115,540 L-121,531 L-123,522 L-122,519 L-116,516 L-109,515 L-92,514 L-82,512 L-76,509 L-70,501 L-68,501 L-66,496 L-61,488 L-59,488 L-57,482 L-51,472 L-48,467 L-48,462 L-60,452 L-60,446 L-49,440 L-35,436 L-30,432 L-24,415 L-22,406 L-19,396 L-16,385 L-13,376 L-11,371 L-9,363 L-5,355 L-3,352 L0,340 L6,330 L9,322 L9,306 L5,299 L2,290 L-3,269 L-5,264 L-10,242 L-13,233 L-16,226 L-17,220 L-21,218 L-24,221 L-27,220 L-27,218 L-32,219 L-34,227 L-41,237 L-44,242 L-49,247 L-56,253 L-72,261 L-88,269 L-104,275 L-120,276 L-129,275 L-139,272 L-149,266 L-154,261 L-155,260 L-154,252 L-148,242 L-146,242 L-146,240 L-140,237 L-116,233 L-108,230 L-100,223 L-89,215 L-80,209 L-73,203 L-69,197 L-65,191 L-59,168 L-52,150 L-48,140 L-43,128 L-36,116 L-28,110 L-17,103 L-15,100 L-14,94 L-17,93 L-21,88 L-33,82 L-38,78 L-41,57 L-45,48 L-49,43 L-48,38 L-35,27 L-32,20 L-29,9 L-19,3 Z M87,195 L82,201 L82,221 L85,227 L87,235 L91,248 L93,255 L99,266 L102,274 L105,283 L107,288 L116,292 L120,296 L125,296 L130,294 L131,291 L132,262 L129,255 L128,250 L127,227 L118,211 L111,203 L109,200 L103,197 L101,195 L93,195 L90,195 Z " fill="#000000" transform="translate(546,248)"/>
<path d="M0,0 L20,0 L31,2 L35,4 L35,6 L37,6 L37,13 L30,17 L13,19 L-1,18 L-11,14 L-12,12 L-12,5 L-11,3 L-3,1 Z " fill="#000000" transform="translate(291,685)"/>
<path d="M0,0 L9,0 L20,3 L25,6 L25,12 L17,17 L4,18 L-6,16 L-13,13 L-15,6 L-11,3 Z " fill="#000000" transform="translate(370,686)"/>
<path d="M0,0 L15,0 L25,2 L31,5 L34,9 L34,11 L32,11 L32,13 L29,15 L21,17 L7,18 L-5,16 L-14,12 L-16,7 L-11,3 L-6,1 Z " fill="#000000" transform="translate(432,687)"/>
<path d="M0,0 L12,0 L23,3 L29,7 L30,12 L21,18 L-3,18 L-15,15 L-26,10 L-25,7 L-18,5 L-5,1 Z " fill="#000000" transform="translate(818,688)"/>
<path d="M0,0 L23,0 L29,4 L33,5 L33,12 L23,16 L1,17 L-11,14 L-11,5 L-8,2 Z " fill="#000000" transform="translate(212,839)"/>
<path d="M0,0 L14,0 L30,2 L39,7 L39,11 L28,16 L16,17 L-1,16 L-11,12 L-11,6 L-3,1 Z " fill="#000000" transform="translate(281,839)"/>
<path d="M0,0 L17,1 L32,4 L36,8 L35,13 L32,15 L24,17 L-8,17 L-19,13 L-21,11 L-21,6 L-17,3 L-11,1 Z " fill="#000000" transform="translate(365,839)"/>
<path d="M0,0 L13,0 L27,2 L33,5 L35,7 L34,11 L32,13 L19,16 L-2,16 L-13,13 L-17,10 L-16,5 L-11,2 Z " fill="#000000" transform="translate(440,840)"/>
<path d="M0,0 L15,0 L24,2 L32,5 L33,10 L29,13 L22,15 L7,16 L-5,14 L-13,11 L-14,6 L-10,3 Z " fill="#000000" transform="translate(517,841)"/>
<path d="M0,0 L21,0 L33,3 L36,6 L35,11 L27,15 L19,16 L6,16 L-6,13 L-12,10 L-13,6 L-10,3 Z " fill="#000000" transform="translate(589,842)"/>
<path d="M0,0 L22,0 L39,5 L41,9 L39,11 L24,16 L8,17 L-8,14 L-14,11 L-15,6 L-11,3 Z " fill="#000000" transform="translate(666,842)"/>
<path d="M0,0 L17,0 L31,3 L36,7 L35,11 L27,15 L19,17 L0,17 L-12,14 L-16,12 L-26,11 L-29,8 L-27,6 L-15,4 Z " fill="#000000" transform="translate(739,842)"/>
<path d="M0,0 L30,0 L42,3 L46,6 L46,12 L44,14 L29,17 L19,18 L0,18 L-9,17 L-17,13 L-19,11 L-18,6 L-10,2 Z " fill="#000000" transform="translate(893,842)"/>
<path d="M0,0 L13,0 L26,3 L34,7 L34,10 L27,14 L11,17 L-5,16 L-18,12 L-24,8 L-23,5 L-13,1 Z " fill="#000000" transform="translate(817,843)"/>
</svg>
