<?xml version="1.0" encoding="UTF-8"?>
<!-- Generator: visioncortex VTracer 0.6.12 -->
<svg version="1.1" xmlns="http://www.w3.org/2000/svg" width="1164" height="1242">
<path d="M0,0 L5,0 L9,5 L17,11 L22,16 L29,24 L37,31 L44,37 L51,45 L58,51 L65,59 L71,67 L78,74 L83,79 L86,85 L98,97 L106,104 L110,110 L118,117 L130,130 L137,138 L145,145 L150,150 L157,158 L162,163 L171,171 L175,177 L193,195 L200,203 L211,214 L218,222 L233,238 L239,245 L246,251 L253,259 L272,278 L279,286 L293,300 L300,308 L309,317 L316,325 L324,334 L329,339 L341,350 L347,357 L355,364 L365,372 L373,378 L379,385 L385,394 L393,404 L398,409 L401,414 L408,418 L409,426 L415,428 L418,431 L418,433 L422,435 L428,442 L434,446 L438,450 L444,454 L453,466 L478,491 L483,498 L491,505 L501,515 L510,522 L519,533 L527,543 L539,557 L548,562 L554,567 L560,575 L563,584 L567,590 L567,596 L559,604 L553,609 L548,614 L538,623 L531,629 L529,629 L527,633 L513,648 L506,656 L498,660 L495,663 L493,663 L491,667 L478,678 L471,685 L469,685 L467,689 L453,704 L445,711 L433,723 L429,727 L424,732 L417,737 L415,737 L413,741 L405,749 L394,758 L384,767 L379,772 L376,773 L371,779 L369,779 L367,783 L362,788 L358,792 L353,797 L341,809 L330,818 L321,827 L319,827 L317,831 L300,848 L295,852 L288,860 L271,877 L263,884 L253,892 L237,908 L235,908 L233,912 L226,920 L218,927 L209,936 L202,941 L197,946 L188,955 L180,962 L173,969 L165,976 L160,981 L158,981 L157,984 L149,991 L144,996 L132,1009 L124,1016 L119,1021 L115,1026 L107,1032 L100,1039 L92,1046 L81,1058 L73,1066 L67,1070 L60,1078 L47,1090 L39,1097 L32,1106 L23,1113 L19,1118 L14,1123 L6,1132 L-4,1140 L-9,1145 L-11,1145 L-12,1148 L-14,1148 L-16,1152 L-19,1157 L-28,1163 L-35,1168 L-37,1173 L-39,1175 L-45,1174 L-50,1166 L-53,1159 L-55,1155 L-59,1153 L-64,1148 L-69,1143 L-76,1133 L-85,1124 L-96,1115 L-100,1110 L-105,1105 L-116,1093 L-125,1082 L-130,1077 L-138,1070 L-145,1061 L-150,1055 L-158,1048 L-169,1036 L-173,1031 L-180,1025 L-185,1020 L-192,1013 L-200,1003 L-208,996 L-217,986 L-227,976 L-233,972 L-239,963 L-244,957 L-248,952 L-258,945 L-269,932 L-275,927 L-282,917 L-287,913 L-296,902 L-308,891 L-316,883 L-322,875 L-327,871 L-327,869 L-331,867 L-342,856 L-347,851 L-355,844 L-364,835 L-368,830 L-376,823 L-376,821 L-380,819 L-391,809 L-399,802 L-402,800 L-402,756 L-389,757 L-381,757 L-378,761 L-375,768 L-375,773 L-377,776 L-376,783 L-367,793 L-364,795 L-360,794 L-350,785 L-345,780 L-343,780 L-343,778 L-338,773 L-333,768 L-318,754 L-308,746 L-297,734 L-290,726 L-283,721 L-282,718 L-285,712 L-294,702 L-299,698 L-306,690 L-318,676 L-322,673 L-322,671 L-326,669 L-342,654 L-350,645 L-355,640 L-364,629 L-376,617 L-385,605 L-385,597 L-380,592 L-376,590 L-374,586 L-362,574 L-354,567 L-346,559 L-339,551 L-326,539 L-319,531 L-311,525 L-304,517 L-294,508 L-289,504 L-284,498 L-276,491 L-267,482 L-261,478 L-258,475 L-253,470 L-244,461 L-236,454 L-224,442 L-219,437 L-209,428 L-207,428 L-205,424 L-199,419 L-192,411 L-181,400 L-176,395 L-164,384 L-155,375 L-147,368 L-133,356 L-124,347 L-122,344 L-120,344 L-118,340 L-116,340 L-116,338 L-105,329 L-93,318 L-86,313 L-82,307 L-75,303 L-68,295 L-64,290 L-62,290 L-60,286 L-46,273 L-40,269 L-37,264 L-29,258 L-24,254 L-20,253 L-18,249 L-8,241 L8,225 L14,224 L23,231 L47,255 L52,260 L59,267 L59,269 L63,271 L70,279 L73,282 L78,285 L84,290 L85,294 L89,296 L103,310 L112,321 L118,327 L125,327 L137,315 L145,309 L153,302 L157,297 L167,289 L172,283 L182,276 L187,271 L192,266 L197,261 L201,254 L202,249 L199,243 L189,235 L184,230 L184,228 L180,226 L175,221 L169,213 L160,204 L156,199 L151,194 L143,187 L139,182 L134,177 L128,170 L121,164 L115,156 L107,149 L92,133 L83,124 L76,116 L71,111 L59,99 L52,94 L43,83 L38,78 L25,65 L20,58 L12,53 L5,44 L4,43 L-2,43 L-10,48 L-17,56 L-30,68 L-38,76 L-43,83 L-49,87 L-56,95 L-67,104 L-76,114 L-82,121 L-87,126 L-95,135 L-105,143 L-112,150 L-118,155 L-122,160 L-127,165 L-132,170 L-138,177 L-146,184 L-158,195 L-164,202 L-173,209 L-184,218 L-192,225 L-197,230 L-201,235 L-206,239 L-211,246 L-215,249 L-218,254 L-227,261 L-229,261 L-229,263 L-235,267 L-242,277 L-247,283 L-255,290 L-263,297 L-268,302 L-287,321 L-298,330 L-306,338 L-311,343 L-325,357 L-333,364 L-344,375 L-351,383 L-362,395 L-373,407 L-381,414 L-388,421 L-396,428 L-398,428 L-400,432 L-402,432 L-402,395 L-397,392 L-381,377 L-352,348 L-344,341 L-334,332 L-329,327 L-314,313 L-304,303 L-296,296 L-285,285 L-277,278 L-268,270 L-263,265 L-253,256 L-238,241 L-231,233 L-216,219 L-208,211 L-201,203 L-193,195 L-191,195 L-189,191 L-176,176 L-164,165 L-157,155 L-151,151 L-144,143 L-128,127 L-121,119 L-116,113 L-110,110 L-104,102 L-96,95 L-84,81 L-70,67 L-62,60 L-52,51 L-46,44 L-38,37 L-33,33 L-29,28 L-24,23 L-14,13 L-6,6 L-2,1 Z M10,252 L4,256 L-5,263 L-10,268 L-17,276 L-22,281 L-28,284 L-35,292 L-43,300 L-48,305 L-61,316 L-64,319 L-64,321 L-69,323 L-80,334 L-88,341 L-98,349 L-103,354 L-110,362 L-112,363 L-112,365 L-116,367 L-129,380 L-134,385 L-151,401 L-162,412 L-167,417 L-174,423 L-174,425 L-178,427 L-178,429 L-182,431 L-192,442 L-197,447 L-212,462 L-222,469 L-227,474 L-232,479 L-237,484 L-247,493 L-254,501 L-262,508 L-276,522 L-281,525 L-285,529 L-290,534 L-304,546 L-309,550 L-316,558 L-322,565 L-330,571 L-336,576 L-340,585 L-351,593 L-357,600 L-357,605 L-352,610 L-347,612 L-339,622 L-331,630 L-326,634 L-322,639 L-320,639 L-318,643 L-312,648 L-306,655 L-302,663 L-292,670 L-287,675 L-281,684 L-272,694 L-266,698 L-261,697 L-250,686 L-242,679 L-232,669 L-224,662 L-217,654 L-209,647 L-202,641 L-195,633 L-179,618 L-171,611 L-164,603 L-154,593 L-146,586 L-137,579 L-126,567 L-125,564 L-121,562 L-111,553 L-99,541 L-91,534 L-84,527 L-77,519 L-66,509 L-61,504 L-46,490 L-41,485 L-28,473 L-19,467 L-7,454 L-3,449 L5,442 L11,437 L16,431 L24,425 L24,423 L28,421 L39,409 L48,400 L53,395 L63,384 L74,375 L83,365 L93,355 L98,348 L97,342 L93,334 L83,325 L73,313 L68,308 L58,299 L51,289 L43,282 L39,279 L37,279 L35,275 L24,261 L18,254 L14,252 Z M181,387 L181,389 L183,389 L183,387 Z M345,400 L340,404 L333,408 L328,412 L323,417 L314,426 L310,431 L296,441 L286,452 L281,457 L274,462 L270,467 L265,472 L266,479 L275,492 L282,499 L284,502 L286,502 L286,504 L295,511 L305,521 L314,532 L323,543 L331,550 L340,561 L344,563 L351,571 L356,576 L364,583 L366,584 L367,592 L362,597 L356,603 L356,605 L352,607 L341,614 L337,619 L330,624 L322,635 L315,642 L305,650 L300,655 L295,659 L291,663 L283,670 L273,679 L259,692 L254,697 L250,702 L245,707 L232,719 L224,726 L219,731 L208,740 L202,747 L194,754 L175,773 L166,780 L161,785 L154,791 L146,798 L139,805 L131,812 L123,821 L118,826 L96,848 L88,855 L74,870 L67,877 L59,884 L49,894 L44,899 L35,906 L28,913 L23,918 L10,930 L0,939 L-5,943 L-11,952 L-16,957 L-26,966 L-31,969 L-38,968 L-44,963 L-48,958 L-53,955 L-59,948 L-64,943 L-75,931 L-80,926 L-87,918 L-95,911 L-104,900 L-113,890 L-118,885 L-125,878 L-130,873 L-135,869 L-142,861 L-146,858 L-153,859 L-161,868 L-170,875 L-175,880 L-184,887 L-191,894 L-196,900 L-204,907 L-210,916 L-219,926 L-224,931 L-225,932 L-224,939 L-214,950 L-206,957 L-192,972 L-184,981 L-171,991 L-162,998 L-155,1007 L-147,1015 L-142,1021 L-137,1026 L-130,1035 L-125,1040 L-115,1049 L-110,1054 L-99,1065 L-91,1075 L-83,1082 L-74,1092 L-66,1102 L-55,1116 L-48,1122 L-42,1129 L-36,1130 L-25,1121 L-18,1116 L-11,1108 L-3,1102 L-3,1100 L1,1098 L13,1088 L18,1083 L24,1076 L28,1070 L37,1063 L48,1052 L55,1044 L70,1030 L77,1025 L84,1017 L93,1007 L98,1002 L109,993 L117,986 L129,977 L138,967 L148,956 L159,947 L168,936 L176,928 L183,922 L188,916 L196,909 L212,893 L220,888 L229,880 L234,875 L245,866 L252,858 L263,846 L273,837 L281,830 L288,822 L296,816 L305,806 L312,801 L315,796 L324,790 L329,785 L338,775 L348,765 L356,758 L363,750 L371,743 L380,735 L387,727 L393,722 L400,714 L408,707 L413,702 L428,688 L439,677 L447,670 L456,661 L458,660 L458,658 L462,656 L466,652 L477,643 L486,635 L494,625 L505,616 L516,605 L530,596 L533,590 L531,583 L522,575 L516,568 L509,564 L503,555 L493,546 L489,541 L485,539 L478,531 L474,526 L465,519 L457,509 L452,505 L445,497 L434,485 L430,481 L424,479 L422,473 L416,466 L411,461 L402,451 L395,446 L389,439 L384,434 L372,423 L367,417 L360,412 L353,404 L349,400 Z M245,492 L231,498 L216,514 L212,519 L201,528 L196,533 L189,541 L187,542 L187,544 L183,546 L178,552 L170,558 L163,565 L155,572 L144,583 L139,590 L131,596 L118,608 L113,613 L106,619 L101,624 L91,634 L85,639 L80,644 L76,649 L69,654 L62,662 L53,672 L45,679 L33,690 L20,701 L13,708 L8,713 L1,720 L-5,724 L-16,734 L-27,749 L-27,751 L-34,753 L-46,764 L-58,776 L-66,783 L-73,789 L-77,793 L-86,800 L-93,808 L-99,815 L-111,824 L-120,832 L-125,839 L-123,845 L-117,850 L-112,856 L-106,860 L-104,864 L-96,871 L-87,879 L-80,887 L-71,894 L-58,907 L-53,912 L-47,919 L-45,919 L-45,921 L-37,928 L-29,928 L-23,923 L-17,919 L-6,909 L2,902 L16,889 L24,882 L36,871 L40,866 L48,859 L58,850 L68,842 L81,830 L86,825 L91,821 L99,814 L104,808 L112,801 L119,794 L124,789 L132,781 L140,774 L155,760 L165,751 L174,743 L180,739 L195,723 L203,717 L211,707 L219,702 L223,697 L231,690 L243,678 L250,670 L257,662 L262,657 L272,648 L276,643 L284,636 L293,627 L299,619 L311,612 L318,606 L326,599 L333,592 L336,588 L336,582 L328,573 L317,564 L306,550 L296,541 L289,533 L281,524 L277,518 L272,513 L259,501 L254,495 L247,492 Z M-262,907 L-265,910 L-264,914 L-258,913 L-258,908 Z " fill="#000000" transform="translate(402,35)"/>
<path d="M0,0 L2,0 L2,664 L-1,663 L-8,652 L-13,645 L-17,638 L-23,629 L-32,612 L-40,596 L-47,582 L-52,573 L-55,564 L-60,551 L-64,546 L-71,521 L-77,506 L-83,487 L-90,461 L-93,440 L-95,434 L-100,402 L-102,383 L-102,372 L-103,367 L-103,345 L-104,341 L-104,307 L-102,284 L-101,267 L-98,251 L-96,235 L-94,225 L-88,197 L-79,167 L-67,130 L-63,119 L-51,91 L-45,82 L-42,72 L-34,56 L-29,48 L-26,40 L-23,35 L-12,17 L-6,9 Z " fill="#000000" transform="translate(1162,272)"/>
<path d="M0,0 L2,0 L2,2 L-1,1 Z " fill="#000000" transform="translate(639,897)"/>
<path d="M0,0 L0,3 Z " fill="#000000" transform="translate(682,917)"/>
</svg>
