<?xml version="1.0" encoding="UTF-8"?>
<!-- Generator: visioncortex VTracer 0.6.12 -->
<svg version="1.1" xmlns="http://www.w3.org/2000/svg" width="1101" height="984">
<path d="M0,0 L81,0 L86,5 L93,12 L98,19 L101,24 L108,35 L113,43 L116,48 L128,69 L137,85 L142,97 L151,111 L161,127 L169,142 L179,157 L188,174 L195,184 L199,192 L205,201 L208,207 L217,221 L225,236 L231,246 L241,263 L247,273 L258,291 L264,302 L269,310 L273,318 L279,327 L285,338 L294,353 L301,363 L308,374 L316,390 L325,405 L335,420 L342,434 L348,442 L358,458 L362,463 L369,477 L372,482 L378,494 L383,500 L388,510 L392,514 L396,523 L405,537 L414,553 L420,562 L428,578 L439,595 L445,607 L455,623 L455,626 L459,628 L467,643 L476,658 L481,668 L485,674 L488,681 L497,695 L504,709 L510,716 L519,732 L524,740 L528,747 L533,756 L543,772 L551,786 L555,794 L560,802 L564,809 L573,823 L580,836 L585,845 L592,856 L597,865 L602,872 L602,951 L599,954 L594,961 L586,967 L582,972 L573,977 L565,980 L559,983 L552,983 L551,984 L-477,984 L-492,971 L-497,965 L-497,963 L-499,963 L-499,878 L-497,878 L-495,871 L-487,857 L-481,847 L-472,831 L-463,816 L-454,800 L-448,789 L-439,774 L-433,764 L-422,746 L-410,724 L-401,710 L-394,697 L-389,689 L-385,679 L-380,673 L-375,663 L-371,657 L-368,650 L-364,645 L-352,622 L-344,607 L-338,599 L-332,589 L-326,578 L-318,564 L-310,551 L-302,537 L-298,529 L-293,523 L-288,511 L-280,497 L-276,489 L-267,474 L-259,458 L-250,442 L-245,434 L-239,423 L-235,418 L-231,409 L-217,383 L-209,369 L-203,358 L-197,349 L-191,337 L-188,333 L-180,317 L-171,301 L-164,288 L-155,272 L-150,261 L-144,251 L-137,239 L-130,225 L-122,210 L-115,196 L-111,191 L-108,184 L-103,176 L-95,160 L-80,134 L-74,122 L-64,103 L-59,95 L-54,86 L-46,70 L-44,68 L-41,61 L-32,44 L-26,37 L-17,21 L-13,14 L-1,2 Z M36,128 L28,137 L21,149 L11,168 L6,178 L2,184 L-4,198 L-18,222 L-24,234 L-30,245 L-38,260 L-42,269 L-52,286 L-57,295 L-67,313 L-70,318 L-73,325 L-79,337 L-83,344 L-88,352 L-95,366 L-105,382 L-111,390 L-116,403 L-123,415 L-129,424 L-132,433 L-136,439 L-140,446 L-147,460 L-157,477 L-163,489 L-169,498 L-176,512 L-182,521 L-190,537 L-200,554 L-208,568 L-220,590 L-228,606 L-234,613 L-242,629 L-252,646 L-261,662 L-267,670 L-271,679 L-277,689 L-282,699 L-288,709 L-293,718 L-299,730 L-307,743 L-317,761 L-320,766 L-323,770 L-328,780 L-334,788 L-341,802 L-348,814 L-351,821 L-360,835 L-372,855 L-379,867 L-383,877 L-387,884 L-387,888 L-381,890 L-366,891 L-347,891 L-344,892 L-337,892 L-333,891 L-272,890 L-265,891 L-231,890 L-173,890 L-169,889 L-107,889 L-82,888 L19,888 L61,887 L66,886 L74,887 L103,887 L134,886 L164,885 L252,885 L262,886 L293,886 L306,885 L315,886 L324,885 L475,885 L479,889 L484,883 L488,879 L487,871 L476,850 L469,837 L454,812 L446,799 L438,784 L431,773 L423,763 L417,751 L411,739 L401,724 L394,713 L390,704 L381,689 L378,685 L375,678 L372,674 L368,664 L363,656 L356,642 L352,638 L344,622 L338,612 L333,605 L329,598 L321,587 L315,575 L305,559 L303,556 L301,550 L296,544 L289,531 L284,523 L280,516 L274,506 L264,491 L257,479 L253,472 L247,460 L242,451 L236,442 L231,433 L224,423 L217,412 L206,394 L197,379 L194,374 L185,358 L178,347 L174,342 L164,321 L160,316 L151,301 L147,296 L138,281 L132,273 L127,263 L120,253 L113,240 L104,227 L96,212 L91,203 L81,188 L76,178 L71,172 L67,163 L61,152 L57,146 L53,138 L45,129 L43,128 Z " fill="#000000" transform="translate(499,0)"/>
<path d="M0,0 L3,1 L2,5 L-2,4 L-2,1 Z " fill="#000000" transform="translate(1050,189)"/>
<path d="M0,0 L5,1 L11,10 L15,16 L23,30 L34,50 L40,55 L43,56 L60,56 L65,50 L69,41 L80,23 L86,15 L90,12 L96,13 L103,22 L111,35 L119,48 L124,58 L136,80 L140,89 L144,102 L145,109 L142,113 L132,116 L128,120 L127,125 L127,164 L126,224 L126,277 L130,285 L136,286 L152,288 L155,291 L156,298 L156,326 L154,338 L150,343 L147,344 L133,344 L126,348 L123,374 L118,379 L107,378 L101,380 L64,380 L62,378 L60,365 L59,349 L55,344 L53,343 L35,344 L31,349 L30,351 L29,368 L27,377 L26,379 L22,380 L-13,381 L-20,380 L-27,380 L-30,377 L-31,368 L-32,347 L-34,344 L-39,343 L-50,343 L-54,345 L-57,352 L-58,363 L-61,376 L-66,381 L-94,380 L-117,381 L-121,377 L-122,356 L-125,345 L-128,343 L-145,343 L-150,347 L-152,355 L-153,373 L-155,378 L-157,379 L-175,379 L-202,381 L-213,380 L-216,378 L-217,375 L-218,350 L-221,343 L-225,341 L-238,342 L-242,346 L-243,348 L-244,375 L-249,380 L-269,380 L-281,378 L-300,379 L-304,377 L-305,375 L-306,345 L-309,342 L-311,341 L-327,339 L-333,336 L-335,330 L-335,318 L-334,297 L-332,289 L-328,285 L-326,284 L-311,283 L-307,282 L-305,267 L-305,134 L-306,116 L-314,112 L-321,111 L-324,108 L-323,101 L-315,87 L-310,75 L-302,60 L-296,50 L-286,32 L-275,14 L-274,13 L-267,14 L-255,30 L-247,46 L-245,51 L-240,53 L-230,55 L-219,55 L-214,50 L-209,43 L-205,33 L-195,18 L-188,8 L-185,6 L-180,7 L-174,15 L-165,32 L-157,45 L-151,54 L-146,56 L-130,57 L-123,55 L-113,39 L-108,28 L-98,11 L-92,4 L-84,2 L-78,7 L-70,20 L-62,38 L-55,48 L-51,54 L-45,56 L-37,56 L-31,52 L-27,43 L-20,29 L-15,21 L-8,9 Z M-237,112 L-242,116 L-244,121 L-244,271 L-242,281 L-240,284 L-222,284 L-218,280 L-217,278 L-216,260 L-216,190 L-215,181 L-216,140 L-217,121 L-222,113 L-224,112 Z M-141,113 L-147,116 L-150,120 L-151,125 L-152,153 L-152,202 L-151,280 L-146,285 L-143,286 L-127,286 L-122,281 L-121,278 L-120,226 L-120,205 L-121,139 L-123,134 L-121,125 L-122,118 L-125,115 L-128,113 Z M-48,113 L-54,116 L-57,120 L-58,127 L-58,279 L-55,284 L-53,286 L-38,286 L-33,282 L-31,275 L-30,261 L-30,124 L-32,117 L-36,114 Z M41,114 L32,116 L30,123 L29,209 L30,243 L30,260 L31,279 L36,284 L40,286 L55,285 L60,282 L62,278 L63,272 L62,158 L62,132 L60,120 L55,115 L49,114 Z " fill="#000000" transform="translate(652,488)"/>
</svg>
