<?xml version="1.0" encoding="UTF-8"?>
<!-- Generator: visioncortex VTracer 0.6.12 -->
<svg version="1.1" xmlns="http://www.w3.org/2000/svg" width="1161" height="1200">
<path d="M0,0 L25,0 L34,3 L44,10 L57,21 L75,39 L83,46 L88,50 L93,55 L107,69 L110,71 L110,73 L114,75 L124,84 L129,89 L144,104 L152,111 L164,122 L168,127 L174,131 L174,133 L178,135 L187,144 L195,151 L200,155 L200,157 L204,159 L221,176 L227,181 L232,186 L245,199 L253,206 L266,218 L266,220 L270,222 L282,234 L290,241 L299,250 L307,257 L315,265 L320,270 L333,282 L346,294 L361,309 L369,316 L376,321 L376,329 L372,327 L364,320 L359,315 L342,299 L336,294 L332,289 L324,282 L303,261 L295,254 L291,251 L291,249 L289,249 L284,244 L279,240 L274,235 L254,215 L249,210 L239,201 L234,197 L234,195 L230,193 L221,184 L213,177 L195,159 L186,152 L176,142 L168,135 L161,129 L154,121 L144,112 L129,98 L122,91 L114,84 L106,76 L98,69 L84,56 L76,49 L62,36 L54,29 L40,16 L31,10 L23,7 L0,7 L-9,10 L-19,17 L-29,26 L-36,33 L-43,41 L-57,55 L-61,60 L-66,65 L-82,81 L-89,89 L-97,97 L-102,102 L-116,117 L-121,123 L-126,128 L-139,141 L-146,149 L-151,154 L-164,169 L-175,180 L-182,188 L-189,195 L-196,203 L-202,210 L-207,214 L-211,219 L-216,224 L-224,232 L-231,240 L-237,246 L-239,246 L-239,248 L-244,252 L-251,260 L-262,272 L-277,288 L-286,297 L-291,302 L-300,312 L-310,322 L-317,330 L-321,335 L-326,340 L-342,356 L-347,362 L-352,367 L-364,380 L-367,381 L-369,385 L-373,390 L-378,395 L-388,405 L-395,413 L-401,420 L-403,420 L-404,423 L-406,423 L-408,427 L-415,434 L-422,442 L-433,453 L-440,461 L-445,466 L-460,482 L-471,494 L-480,503 L-487,511 L-498,523 L-514,540 L-525,553 L-532,565 L-534,572 L-534,583 L-532,596 L-526,608 L-526,610 L-523,611 L-516,620 L-508,627 L-503,632 L-494,640 L-489,645 L-482,651 L-477,656 L-464,669 L-454,677 L-454,679 L-452,679 L-447,684 L-440,690 L-435,695 L-416,714 L-408,721 L-403,726 L-388,740 L-375,752 L-368,759 L-363,764 L-351,775 L-338,787 L-330,795 L-322,802 L-317,807 L-307,816 L-301,821 L-301,823 L-296,825 L-290,832 L-282,839 L-267,854 L-259,861 L-250,870 L-247,872 L-247,874 L-243,876 L-231,888 L-223,895 L-207,910 L-198,919 L-190,926 L-181,934 L-176,939 L-166,948 L-155,959 L-150,964 L-136,978 L-130,983 L-130,985 L-126,987 L-116,997 L-114,998 L-114,1000 L-110,1002 L-102,1010 L-94,1017 L-91,1019 L-91,1021 L-89,1021 L-82,1030 L-76,1034 L-60,1050 L-49,1059 L-39,1069 L-31,1076 L-21,1085 L-6,1099 L6,1111 L16,1117 L27,1121 L43,1122 L53,1119 L66,1112 L73,1105 L75,1105 L77,1101 L84,1094 L91,1086 L105,1072 L111,1064 L119,1057 L126,1049 L137,1037 L153,1021 L157,1016 L161,1012 L168,1004 L179,992 L184,987 L190,980 L195,976 L202,968 L209,961 L216,953 L225,943 L233,936 L240,928 L255,913 L262,905 L273,893 L276,892 L278,888 L283,883 L291,874 L295,870 L302,862 L312,852 L319,844 L326,837 L333,829 L354,808 L361,800 L368,793 L374,786 L376,786 L376,794 L368,801 L361,809 L354,816 L352,819 L350,819 L350,821 L345,826 L341,831 L336,835 L327,846 L317,855 L310,863 L300,874 L295,879 L286,889 L275,900 L268,908 L257,920 L245,932 L238,940 L227,951 L220,959 L215,964 L210,969 L205,975 L203,975 L201,979 L189,991 L184,996 L175,1006 L163,1019 L148,1035 L134,1050 L125,1059 L118,1067 L103,1083 L99,1088 L93,1093 L86,1101 L76,1112 L63,1122 L48,1128 L36,1129 L29,1128 L21,1127 L4,1118 L-7,1107 L-15,1100 L-22,1093 L-30,1086 L-38,1078 L-46,1071 L-54,1063 L-62,1056 L-74,1045 L-90,1030 L-97,1023 L-105,1016 L-105,1014 L-109,1012 L-114,1008 L-119,1003 L-127,995 L-135,988 L-145,978 L-153,971 L-161,962 L-169,955 L-176,948 L-184,941 L-196,929 L-207,920 L-213,914 L-213,912 L-216,911 L-216,909 L-220,907 L-229,898 L-234,893 L-244,884 L-249,879 L-255,873 L-260,870 L-264,865 L-270,860 L-270,858 L-274,856 L-283,847 L-291,840 L-301,831 L-303,826 L-308,824 L-318,814 L-324,809 L-324,807 L-328,805 L-341,793 L-350,785 L-355,780 L-365,771 L-370,766 L-372,762 L-376,760 L-391,746 L-397,741 L-402,736 L-412,726 L-420,719 L-426,713 L-426,711 L-430,709 L-446,694 L-459,682 L-468,673 L-476,666 L-484,658 L-492,651 L-500,644 L-505,639 L-513,632 L-513,630 L-516,629 L-516,627 L-520,625 L-530,615 L-536,606 L-540,595 L-541,583 L-541,572 L-537,561 L-530,549 L-521,538 L-516,532 L-511,527 L-507,525 L-505,520 L-500,515 L-495,511 L-488,503 L-479,493 L-464,477 L-460,472 L-458,472 L-456,468 L-450,461 L-444,456 L-437,448 L-433,443 L-428,438 L-417,427 L-410,419 L-400,409 L-393,401 L-386,394 L-379,386 L-363,370 L-359,365 L-354,361 L-345,350 L-340,345 L-324,328 L-314,318 L-307,310 L-297,300 L-296,298 L-294,298 L-292,294 L-280,282 L-273,274 L-261,262 L-254,254 L-243,242 L-240,241 L-238,237 L-222,221 L-217,216 L-212,211 L-201,199 L-192,190 L-185,182 L-178,175 L-171,167 L-160,155 L-153,147 L-141,134 L-136,128 L-128,121 L-119,111 L-114,106 L-107,98 L-94,85 L-89,80 L-78,68 L-71,60 L-57,46 L-50,38 L-36,24 L-29,16 L-20,9 L-9,2 Z " fill="#000000" transform="translate(785,37)"/>
<path d="M0,0 L14,0 L26,5 L34,11 L43,19 L43,21 L47,23 L55,31 L63,38 L75,49 L83,56 L90,64 L95,68 L100,73 L109,82 L117,89 L129,100 L138,109 L143,114 L153,123 L170,139 L178,146 L194,162 L203,169 L210,177 L216,184 L222,188 L227,193 L237,202 L243,207 L247,212 L255,219 L263,228 L274,237 L281,245 L294,256 L299,261 L311,273 L316,278 L328,289 L339,299 L339,301 L343,303 L352,311 L356,316 L364,323 L371,329 L371,360 L367,358 L364,356 L364,354 L360,352 L353,345 L348,340 L338,331 L326,319 L318,312 L313,307 L300,295 L292,287 L292,285 L288,283 L278,273 L270,266 L260,257 L250,248 L250,246 L246,244 L234,232 L229,228 L222,220 L209,209 L204,204 L187,188 L179,180 L171,173 L160,162 L152,155 L145,147 L137,141 L120,124 L112,117 L105,111 L100,106 L95,101 L86,93 L81,88 L65,73 L60,68 L49,57 L38,48 L22,33 L12,25 L7,24 L0,26 L-9,32 L-16,40 L-28,52 L-33,57 L-43,68 L-51,75 L-60,85 L-65,89 L-74,100 L-82,109 L-87,114 L-103,131 L-113,142 L-121,149 L-131,160 L-138,168 L-145,174 L-152,182 L-161,193 L-165,198 L-170,203 L-173,206 L-175,206 L-177,210 L-184,218 L-189,223 L-205,240 L-210,246 L-218,253 L-227,264 L-233,268 L-243,281 L-267,305 L-274,313 L-287,326 L-291,331 L-296,336 L-301,340 L-307,348 L-323,364 L-330,372 L-340,382 L-347,390 L-363,406 L-370,414 L-377,421 L-382,427 L-387,432 L-401,446 L-408,454 L-419,467 L-427,474 L-434,482 L-446,494 L-451,500 L-453,500 L-455,505 L-460,510 L-467,516 L-474,524 L-484,535 L-489,540 L-492,541 L-494,546 L-501,554 L-505,562 L-505,570 L-498,581 L-492,585 L-485,593 L-477,600 L-470,607 L-462,614 L-451,625 L-443,632 L-435,640 L-427,647 L-426,650 L-423,651 L-419,656 L-408,665 L-398,674 L-398,676 L-394,678 L-384,688 L-379,692 L-374,697 L-367,704 L-360,709 L-354,716 L-349,721 L-337,732 L-332,737 L-325,743 L-320,748 L-310,757 L-305,762 L-295,772 L-284,781 L-280,786 L-272,792 L-258,806 L-251,812 L-246,817 L-239,825 L-228,834 L-223,839 L-209,853 L-201,860 L-191,870 L-183,877 L-178,882 L-165,894 L-159,899 L-154,905 L-154,907 L-150,909 L-143,916 L-135,923 L-122,935 L-112,944 L-107,949 L-95,960 L-85,970 L-77,977 L-64,989 L-57,996 L-57,998 L-52,1000 L-45,1006 L-45,1008 L-41,1010 L-22,1029 L-14,1036 L-1,1048 L7,1055 L12,1060 L17,1064 L22,1069 L27,1072 L32,1073 L41,1072 L62,1051 L67,1046 L78,1033 L84,1027 L86,1027 L88,1022 L100,1010 L106,1003 L111,998 L118,991 L122,985 L130,978 L144,963 L152,953 L157,949 L164,941 L179,925 L193,911 L198,906 L209,893 L217,886 L228,874 L235,866 L244,857 L249,852 L261,839 L273,827 L282,816 L307,791 L314,783 L319,778 L331,766 L336,760 L341,755 L345,751 L350,745 L352,745 L354,740 L359,735 L364,730 L369,726 L371,726 L371,757 L363,764 L351,777 L343,785 L334,796 L329,801 L312,818 L305,826 L292,839 L285,847 L279,854 L273,859 L264,870 L255,879 L249,886 L247,886 L245,890 L238,897 L230,907 L222,914 L210,926 L205,931 L193,945 L179,959 L171,969 L166,974 L157,984 L149,991 L145,996 L140,1000 L134,1008 L129,1013 L124,1019 L120,1020 L118,1025 L112,1032 L107,1037 L102,1042 L86,1059 L66,1079 L59,1087 L54,1091 L40,1096 L23,1096 L16,1093 L6,1087 L-9,1073 L-24,1059 L-39,1045 L-48,1036 L-56,1029 L-64,1022 L-69,1017 L-84,1003 L-90,998 L-95,993 L-107,981 L-112,976 L-126,964 L-134,956 L-134,954 L-139,952 L-146,945 L-146,943 L-151,941 L-160,932 L-167,924 L-175,917 L-183,910 L-201,892 L-209,885 L-221,874 L-231,864 L-239,857 L-242,854 L-242,852 L-246,850 L-256,841 L-266,832 L-273,825 L-281,818 L-290,809 L-295,805 L-300,800 L-311,789 L-319,782 L-329,773 L-341,762 L-341,760 L-345,758 L-361,743 L-373,732 L-377,727 L-385,720 L-396,709 L-404,702 L-413,693 L-421,686 L-431,676 L-439,669 L-462,646 L-473,637 L-483,627 L-491,620 L-495,615 L-506,606 L-517,594 L-525,586 L-529,576 L-530,571 L-530,561 L-528,553 L-521,540 L-509,528 L-502,520 L-497,514 L-492,509 L-484,501 L-478,494 L-473,490 L-464,479 L-452,467 L-447,462 L-439,453 L-434,448 L-423,436 L-417,429 L-411,424 L-404,416 L-399,410 L-394,405 L-387,397 L-380,391 L-374,384 L-369,379 L-359,369 L-354,364 L-348,356 L-340,349 L-331,339 L-327,337 L-325,333 L-320,328 L-309,316 L-302,309 L-295,301 L-290,297 L-284,289 L-279,284 L-273,277 L-268,273 L-261,265 L-257,261 L-255,261 L-253,256 L-250,253 L-248,253 L-246,249 L-230,232 L-221,222 L-218,219 L-216,219 L-214,215 L-209,210 L-200,200 L-188,188 L-181,180 L-175,175 L-166,164 L-163,161 L-157,153 L-138,134 L-131,126 L-126,122 L-119,114 L-104,98 L-93,86 L-88,81 L-83,76 L-65,58 L-58,50 L-47,39 L-38,28 L-30,21 L-21,10 L-11,3 Z " fill="#000000" transform="translate(790,52)"/>
<path d="M0,0 L4,1 L4,7 L2,9 L-2,8 L-2,3 Z " fill="#000000" transform="translate(221,230)"/>
<path d="M0,0 L5,1 L6,5 L7,20 L11,32 L15,41 L18,41 L21,24 L26,16 L30,15 L33,18 L34,47 L38,56 L43,64 L46,67 L46,69 L52,69 L56,60 L59,45 L61,39 L65,40 L68,47 L69,52 L69,59 L65,71 L58,87 L53,100 L50,110 L50,115 L56,114 L65,114 L67,116 L66,126 L60,134 L57,140 L47,143 L46,145 L46,155 L47,169 L47,182 L46,195 L47,208 L51,233 L54,249 L63,268 L71,278 L82,290 L87,295 L103,303 L119,311 L136,320 L143,324 L154,330 L167,335 L197,340 L210,343 L222,349 L232,358 L236,363 L242,364 L253,358 L262,352 L269,346 L274,336 L276,323 L276,316 L277,314 L283,314 L291,323 L295,333 L296,336 L296,348 L292,356 L284,364 L274,369 L263,371 L253,376 L251,376 L253,386 L255,390 L257,406 L255,419 L252,431 L250,453 L253,470 L257,479 L265,489 L277,502 L290,518 L294,524 L297,529 L298,534 L298,555 L299,569 L304,596 L310,605 L319,611 L322,619 L321,635 L320,636 L315,636 L304,628 L294,617 L289,612 L283,607 L278,598 L274,571 L272,561 L270,551 L267,542 L261,530 L250,517 L240,508 L232,502 L224,498 L219,495 L212,490 L205,486 L200,483 L185,473 L174,464 L165,449 L160,437 L157,431 L149,424 L133,419 L125,416 L109,411 L81,404 L73,401 L65,401 L55,398 L32,395 L13,390 L-4,381 L-7,379 L-25,374 L-36,370 L-49,362 L-58,355 L-72,348 L-80,343 L-85,343 L-84,353 L-82,365 L-81,367 L-79,388 L-74,396 L-65,406 L-64,408 L-64,416 L-66,428 L-70,429 L-72,428 L-76,421 L-85,412 L-92,404 L-102,396 L-103,376 L-104,371 L-104,360 L-108,351 L-112,341 L-118,334 L-124,323 L-123,316 L-119,308 L-113,303 L-101,303 L-80,306 L-62,310 L-43,318 L-39,318 L-35,293 L-27,270 L-22,260 L-19,251 L-17,242 L-17,235 L-19,220 L-19,184 L-20,179 L-24,177 L-37,173 L-50,170 L-58,165 L-60,161 L-62,153 L-66,148 L-68,142 L-67,137 L-65,135 L-40,134 L-36,132 L-24,130 L-14,124 L6,124 L22,122 L28,118 L33,113 L37,100 L34,90 L28,81 L21,73 L12,67 L-10,58 L-15,52 L-22,46 L-27,38 L-29,28 L-29,21 L-26,17 L-22,18 L-18,25 L-14,35 L-7,43 L-3,44 L-4,36 L-6,26 L-6,13 L-4,6 Z " fill="#000000" transform="translate(702,237)"/>
<path d="M0,0 Z " fill="#000000" transform="translate(910,442)"/>
<path d="M0,0 L4,2 L14,12 L16,13 L16,15 L20,17 L29,26 L37,33 L52,47 L59,54 L67,61 L84,77 L88,80 L88,82 L92,84 L105,96 L111,104 L117,121 L117,134 L114,149 L107,162 L98,172 L82,188 L75,196 L67,204 L62,209 L46,226 L31,242 L19,255 L4,270 L2,273 L0,273 L0,264 L8,257 L9,255 L11,255 L11,253 L15,249 L17,249 L19,245 L35,228 L44,219 L51,211 L71,191 L78,183 L81,180 L83,180 L85,176 L92,169 L101,158 L106,149 L109,137 L109,124 L104,107 L97,98 L80,82 L74,77 L74,75 L70,73 L62,65 L51,56 L50,53 L48,53 L43,48 L27,32 L19,25 L5,12 L3,11 L3,9 L0,8 Z " fill="#000000" transform="translate(0,443)"/>
<path d="M0,0 L4,2 L14,11 L21,17 L26,22 L35,30 L40,35 L45,40 L57,51 L66,60 L73,65 L80,73 L88,80 L94,87 L100,99 L101,103 L101,114 L98,125 L91,135 L79,148 L68,159 L62,166 L57,171 L53,176 L48,181 L44,183 L42,187 L38,192 L30,199 L23,207 L7,224 L3,229 L0,229 L0,197 L5,190 L11,186 L14,183 L17,178 L28,167 L32,162 L37,157 L45,148 L47,148 L49,144 L57,136 L62,131 L69,123 L73,119 L75,114 L75,104 L72,99 L63,89 L59,85 L50,78 L45,74 L43,69 L38,67 L28,58 L21,50 L9,40 L4,35 L0,30 Z " fill="#000000" transform="translate(0,464)"/>
</svg>
