<?xml version="1.0" encoding="UTF-8"?>
<!-- Generator: visioncortex VTracer 0.6.12 -->
<svg version="1.1" xmlns="http://www.w3.org/2000/svg" width="909" height="1074">
<path d="M0,0 L13,0 L24,1 L43,10 L49,15 L55,19 L55,21 L59,23 L66,33 L71,45 L76,49 L88,70 L92,76 L97,86 L108,106 L112,117 L119,127 L126,138 L130,147 L139,162 L145,173 L150,180 L156,192 L162,201 L170,215 L174,222 L181,234 L189,247 L194,255 L200,267 L204,272 L210,282 L220,301 L230,317 L237,331 L246,347 L251,354 L257,365 L265,380 L277,400 L287,417 L296,433 L303,443 L307,452 L320,473 L323,477 L323,668 L321,668 L313,654 L306,643 L300,633 L295,619 L289,614 L280,597 L275,589 L271,581 L263,568 L249,544 L243,534 L236,523 L233,516 L225,503 L218,492 L215,486 L209,476 L201,460 L195,451 L183,431 L176,421 L172,415 L165,401 L159,392 L150,378 L143,366 L139,358 L133,348 L130,341 L121,327 L117,319 L104,298 L96,285 L90,276 L86,268 L76,252 L69,241 L63,230 L54,213 L49,205 L42,191 L38,186 L32,175 L23,161 L19,151 L19,149 L15,147 L12,144 L12,142 L4,141 L-3,149 L-10,161 L-19,176 L-25,188 L-29,194 L-37,210 L-43,219 L-49,233 L-53,242 L-57,248 L-63,260 L-69,270 L-76,283 L-82,294 L-90,308 L-98,324 L-105,336 L-109,343 L-118,359 L-126,374 L-135,387 L-140,397 L-147,406 L-150,415 L-158,431 L-165,442 L-169,449 L-174,459 L-181,469 L-189,485 L-198,500 L-203,508 L-209,522 L-213,527 L-218,537 L-225,549 L-228,555 L-234,564 L-241,576 L-249,590 L-258,605 L-266,621 L-274,632 L-280,642 L-284,648 L-291,662 L-298,672 L-306,686 L-310,694 L-317,704 L-329,726 L-338,740 L-350,762 L-361,780 L-366,788 L-369,793 L-371,798 L-378,807 L-381,814 L-390,828 L-395,838 L-399,844 L-407,857 L-413,869 L-421,885 L-423,889 L-423,896 L-416,898 L-407,900 L-302,900 L-298,899 L-290,900 L-261,901 L-248,901 L-234,900 L-213,901 L-208,902 L-202,901 L-35,901 L-32,904 L-32,909 L-29,909 L-27,902 L-26,901 L33,901 L48,902 L60,901 L68,902 L111,901 L156,901 L163,902 L168,901 L178,901 L183,902 L217,903 L319,903 L323,904 L323,1004 L297,1004 L290,1003 L282,1004 L270,1003 L266,1004 L244,1003 L219,1002 L208,1003 L205,998 L200,1002 L184,1003 L117,1003 L108,1004 L87,1004 L84,1003 L43,1004 L15,1004 L6,1005 L-11,1005 L-27,1004 L-55,1004 L-86,1003 L-90,1004 L-116,1003 L-124,1004 L-198,1004 L-215,1003 L-229,1004 L-232,1002 L-237,1002 L-238,1003 L-247,1003 L-249,1004 L-264,1003 L-379,1003 L-418,1002 L-477,1002 L-497,1000 L-507,996 L-510,994 L-518,992 L-526,986 L-533,979 L-533,977 L-535,977 L-542,967 L-547,959 L-550,948 L-551,941 L-551,918 L-549,905 L-537,880 L-533,874 L-528,865 L-518,849 L-514,842 L-507,830 L-505,827 L-502,827 L-501,834 L-498,831 L-498,828 L-501,826 L-500,819 L-493,806 L-488,799 L-484,792 L-479,784 L-472,772 L-469,767 L-457,746 L-451,735 L-447,727 L-441,718 L-434,707 L-429,698 L-421,685 L-413,671 L-409,664 L-405,656 L-395,641 L-386,625 L-383,619 L-377,612 L-371,601 L-362,584 L-356,575 L-348,561 L-341,551 L-338,545 L-334,539 L-331,533 L-327,528 L-323,518 L-317,508 L-309,496 L-305,489 L-297,473 L-289,462 L-285,454 L-276,437 L-272,431 L-267,421 L-262,411 L-256,403 L-248,387 L-237,369 L-233,361 L-230,355 L-222,344 L-215,329 L-209,317 L-207,311 L-197,294 L-191,285 L-185,273 L-180,263 L-176,258 L-168,242 L-161,231 L-158,224 L-153,215 L-149,209 L-146,202 L-135,184 L-120,156 L-111,139 L-106,131 L-98,117 L-92,106 L-89,102 L-87,95 L-83,89 L-71,67 L-61,50 L-55,41 L-50,32 L-37,17 L-27,10 L-15,4 Z M40,81 L38,83 L39,88 L44,87 L44,82 Z M-57,150 L-57,154 L-53,153 L-54,150 Z M-502,844 L-505,852 L-504,857 L-500,857 L-498,851 L-498,844 Z " fill="#000000" transform="translate(586,35)"/>
<path d="M0,0 L4,1 L5,4 L3,7 L-2,6 L-1,1 Z " fill="#000000" transform="translate(868,315)"/>
<path d="M0,0 L9,0 L26,5 L38,11 L54,20 L68,30 L78,39 L86,45 L97,52 L102,57 L109,58 L121,56 L134,53 L144,49 L161,45 L174,40 L191,35 L216,29 L219,27 L228,26 L239,22 L252,19 L263,15 L275,12 L289,8 L295,7 L311,11 L321,18 L334,26 L340,30 L341,34 L338,36 L329,38 L313,46 L304,50 L298,53 L288,60 L280,63 L268,70 L258,75 L244,82 L236,86 L222,93 L213,99 L202,110 L194,122 L193,128 L195,133 L201,140 L208,145 L213,151 L221,158 L225,163 L236,172 L239,175 L239,177 L243,179 L252,188 L260,195 L263,198 L263,200 L267,202 L274,208 L276,209 L285,209 L302,204 L317,201 L326,200 L332,205 L332,211 L328,217 L319,222 L316,225 L316,234 L319,240 L327,246 L330,250 L329,257 L324,265 L323,266 L311,266 L303,260 L299,257 L292,257 L287,263 L283,273 L274,297 L272,299 L267,298 L256,288 L254,278 L255,261 L255,241 L251,231 L241,224 L225,216 L215,209 L208,205 L197,197 L185,189 L174,179 L161,170 L155,170 L150,175 L139,188 L132,199 L128,209 L126,217 L122,230 L120,240 L117,253 L113,262 L107,284 L104,296 L100,309 L96,327 L93,333 L88,334 L77,327 L68,320 L61,314 L58,305 L58,297 L59,293 L60,274 L61,266 L62,243 L64,225 L64,213 L66,201 L67,167 L69,154 L72,111 L72,101 L66,93 L56,83 L43,74 L32,66 L24,58 L19,53 L10,43 L4,33 L-2,25 L-7,14 L-8,9 L-6,4 Z " fill="#000000" transform="translate(437,536)"/>
<path d="M0,0 L1,3 L-1,4 Z " fill="#000000" transform="translate(746,610)"/>
</svg>
