<?xml version="1.0" encoding="UTF-8"?>
<!-- Generator: visioncortex VTracer 0.6.12 -->
<svg version="1.1" xmlns="http://www.w3.org/2000/svg" width="1086" height="1233">
<path d="M0,0 L13,0 L22,2 L32,7 L41,15 L48,23 L53,28 L60,34 L65,39 L72,47 L79,53 L84,58 L95,69 L95,71 L99,73 L106,80 L111,85 L120,94 L127,102 L135,109 L166,140 L171,145 L183,157 L188,162 L204,177 L213,186 L221,193 L237,209 L242,214 L265,237 L272,243 L277,248 L290,261 L298,268 L304,275 L309,279 L314,284 L319,290 L325,295 L328,298 L328,300 L332,302 L357,327 L362,331 L367,336 L368,339 L372,341 L417,386 L423,391 L427,397 L437,407 L442,412 L451,420 L456,425 L472,441 L472,443 L477,445 L477,477 L473,475 L465,467 L459,462 L454,456 L447,450 L442,445 L430,433 L425,428 L419,420 L411,413 L404,406 L404,404 L400,402 L390,391 L382,384 L351,353 L346,348 L337,339 L332,334 L319,322 L311,314 L308,311 L303,306 L295,299 L288,291 L272,276 L267,270 L260,265 L253,257 L245,250 L236,240 L228,233 L223,228 L217,223 L210,215 L183,188 L175,181 L163,169 L156,163 L152,158 L144,151 L142,147 L138,145 L130,137 L126,132 L118,125 L113,120 L108,115 L102,110 L97,105 L74,82 L69,78 L62,70 L59,67 L59,65 L55,63 L28,36 L23,31 L14,25 L11,24 L4,24 L-4,28 L-10,35 L-18,42 L-27,52 L-29,52 L-31,56 L-39,63 L-46,71 L-65,90 L-73,97 L-78,102 L-84,109 L-92,116 L-98,123 L-104,128 L-110,135 L-115,140 L-126,151 L-133,157 L-140,165 L-146,170 L-151,175 L-157,182 L-162,186 L-169,194 L-177,201 L-184,209 L-191,216 L-196,221 L-201,226 L-208,233 L-216,240 L-221,246 L-225,249 L-228,254 L-248,274 L-253,279 L-262,289 L-268,294 L-275,302 L-280,307 L-289,317 L-307,335 L-312,340 L-323,351 L-327,356 L-329,356 L-331,360 L-339,368 L-347,375 L-354,383 L-394,423 L-401,431 L-406,436 L-431,461 L-436,465 L-443,473 L-452,482 L-456,487 L-461,492 L-469,500 L-474,505 L-481,513 L-489,520 L-495,527 L-500,532 L-503,533 L-505,537 L-542,574 L-548,582 L-549,590 L-547,598 L-540,607 L-533,613 L-526,621 L-518,629 L-513,634 L-506,640 L-506,642 L-502,644 L-500,648 L-496,650 L-477,669 L-472,674 L-467,679 L-457,688 L-445,700 L-439,705 L-432,713 L-422,722 L-416,727 L-409,735 L-401,742 L-381,762 L-373,769 L-362,780 L-357,784 L-350,792 L-338,804 L-330,811 L-326,815 L-326,817 L-322,819 L-315,825 L-310,830 L-301,840 L-293,847 L-286,855 L-278,862 L-247,893 L-243,898 L-235,905 L-228,911 L-221,920 L-203,938 L-195,945 L-181,959 L-180,964 L-181,968 L-170,968 L-164,972 L-159,978 L-151,985 L-145,991 L-145,993 L-141,995 L-130,1006 L-125,1011 L-113,1023 L-108,1028 L-102,1033 L-97,1038 L-85,1050 L-77,1057 L-46,1088 L-38,1095 L-26,1107 L-21,1111 L-21,1113 L-17,1115 L-8,1124 L0,1131 L7,1137 L14,1139 L22,1139 L28,1135 L33,1129 L41,1122 L44,1121 L46,1117 L55,1107 L62,1101 L69,1093 L79,1083 L84,1078 L88,1076 L90,1072 L93,1068 L95,1068 L97,1064 L103,1059 L107,1053 L115,1047 L122,1039 L130,1030 L135,1025 L148,1012 L153,1007 L161,998 L166,993 L171,988 L179,980 L186,972 L194,965 L200,964 L204,965 L204,957 L212,949 L217,944 L228,932 L233,927 L240,920 L245,915 L265,895 L272,887 L278,882 L285,874 L290,869 L299,860 L306,852 L309,849 L311,849 L313,845 L320,838 L325,833 L339,819 L343,815 L345,815 L347,811 L375,783 L381,775 L389,768 L399,758 L404,753 L414,743 L419,737 L422,734 L429,726 L440,715 L445,709 L451,704 L455,699 L457,699 L459,695 L467,688 L475,679 L477,679 L477,710 L472,714 L465,722 L443,744 L439,749 L431,756 L424,764 L417,772 L414,776 L412,776 L410,780 L405,785 L399,791 L397,791 L395,795 L388,801 L381,809 L373,816 L368,821 L357,833 L348,843 L343,848 L335,855 L328,863 L324,868 L318,873 L313,878 L306,884 L300,892 L292,899 L283,909 L265,927 L258,935 L236,957 L226,961 L224,967 L210,981 L205,985 L198,993 L193,998 L184,1008 L166,1026 L159,1034 L128,1065 L121,1073 L111,1083 L106,1088 L101,1094 L99,1094 L97,1098 L88,1107 L81,1115 L54,1142 L47,1150 L42,1154 L38,1158 L28,1163 L15,1164 L2,1162 L-8,1156 L-19,1145 L-24,1140 L-29,1135 L-29,1133 L-33,1131 L-45,1120 L-53,1113 L-63,1103 L-71,1096 L-76,1091 L-84,1082 L-90,1077 L-95,1072 L-100,1067 L-110,1057 L-115,1052 L-120,1047 L-133,1034 L-138,1029 L-150,1018 L-164,1004 L-172,997 L-177,993 L-184,985 L-188,980 L-199,971 L-204,964 L-213,959 L-223,949 L-229,942 L-234,937 L-245,926 L-250,921 L-259,912 L-267,905 L-278,893 L-286,886 L-291,882 L-296,877 L-310,863 L-315,858 L-328,846 L-353,821 L-361,814 L-374,801 L-381,795 L-388,787 L-396,779 L-401,775 L-401,773 L-405,771 L-410,766 L-415,761 L-425,752 L-466,711 L-466,709 L-470,707 L-483,695 L-498,680 L-503,675 L-509,670 L-516,662 L-524,655 L-534,646 L-534,644 L-538,642 L-548,631 L-556,624 L-564,616 L-570,607 L-573,598 L-574,586 L-571,577 L-565,565 L-553,552 L-547,547 L-540,539 L-536,537 L-534,533 L-502,501 L-495,493 L-487,485 L-482,480 L-472,470 L-467,464 L-459,457 L-453,450 L-448,445 L-445,444 L-443,440 L-407,404 L-400,396 L-388,385 L-381,377 L-363,359 L-358,354 L-349,344 L-340,335 L-335,330 L-317,312 L-315,312 L-313,308 L-274,269 L-269,264 L-258,252 L-253,247 L-251,247 L-249,243 L-227,221 L-220,212 L-216,210 L-214,206 L-211,205 L-209,201 L-172,164 L-167,159 L-159,151 L-154,146 L-145,138 L-136,127 L-126,119 L-119,111 L-111,102 L-106,97 L-98,89 L-93,84 L-86,78 L-81,72 L-79,72 L-77,68 L-51,42 L-44,34 L-31,22 L-16,7 L-6,2 Z M212,960 L211,964 L214,963 L213,960 Z M-192,963 L-194,966 L-192,968 L-187,967 L-186,965 L-187,963 Z " fill="#000000" transform="translate(609,35)"/>
<path d="M0,0 L5,1 L10,5 L11,9 L15,11 L41,37 L47,42 L54,50 L56,54 L60,56 L192,188 L196,195 L197,199 L197,212 L192,221 L188,226 L180,230 L165,230 L152,227 L137,225 L126,222 L100,217 L87,214 L79,214 L78,217 L78,295 L76,302 L75,303 L59,304 L26,304 L18,303 L9,303 L4,304 L-67,304 L-71,302 L-72,294 L-72,264 L-73,218 L-75,212 L-85,213 L-98,216 L-118,219 L-147,224 L-160,226 L-169,226 L-178,223 L-184,218 L-188,212 L-190,203 L-189,192 L-186,187 L-175,176 L-170,171 L-133,134 L-129,129 L-121,122 L-112,112 L-106,107 L-101,102 L-81,82 L-76,77 L-69,71 L-62,62 L-43,43 L-38,38 L-28,27 L-20,20 L-9,9 L-2,1 Z " fill="#000000" transform="translate(614,116)"/>
<path d="M0,0 L25,0 L28,3 L26,12 L24,20 L11,58 L8,67 L4,71 L-1,71 L-4,66 L-4,30 L-3,3 Z " fill="#000000" transform="translate(914,450)"/>
<path d="M0,0 L25,0 L28,3 L27,13 L22,26 L18,39 L13,52 L7,69 L4,71 L-2,70 L-4,68 L-5,63 L-5,41 L-4,8 L-2,1 Z " fill="#000000" transform="translate(951,450)"/>
<path d="M0,0 L9,1 L10,2 L10,11 L2,36 L-6,63 L-9,70 L-13,73 L-19,71 L-20,69 L-20,4 L-17,1 Z " fill="#000000" transform="translate(599,455)"/>
<path d="M0,0 L14,0 L34,4 L48,11 L58,17 L67,24 L76,35 L83,44 L88,58 L90,68 L90,82 L88,94 L84,106 L77,122 L69,133 L62,141 L54,149 L43,158 L30,168 L20,176 L12,183 L-1,195 L-11,208 L-20,222 L-29,238 L-32,246 L-31,251 L-4,252 L82,252 L104,253 L108,256 L108,282 L107,298 L104,301 L32,301 L-27,300 L-32,299 L-35,300 L-79,300 L-86,299 L-89,296 L-89,278 L-88,264 L-84,246 L-81,236 L-78,229 L-71,214 L-66,205 L-58,192 L-54,186 L-45,174 L-34,162 L-26,153 L-21,150 L-16,145 L-11,140 L-9,140 L-7,136 L5,127 L15,119 L20,115 L25,110 L33,101 L38,91 L40,85 L41,73 L36,63 L28,56 L16,50 L13,49 L0,49 L-10,53 L-15,58 L-23,68 L-26,72 L-33,71 L-42,67 L-57,60 L-64,56 L-66,54 L-65,46 L-60,37 L-48,23 L-43,19 L-35,13 L-21,6 L-13,3 L-4,2 Z " fill="#000000" transform="translate(481,462)"/>
<path d="M0,0 L38,0 L43,3 L45,8 L45,39 L46,72 L48,293 L45,298 L44,299 L6,299 L1,296 L-1,237 L-3,118 L-3,68 L-5,57 L-11,54 L-22,53 L-25,49 L-24,39 L-15,28 L-9,19 L-6,10 L-4,3 Z " fill="#000000" transform="translate(317,464)"/>
<path d="M0,0 L5,0 L12,7 L19,15 L30,28 L32,31 L31,36 L27,41 L19,47 L10,56 L4,63 L-2,71 L-11,84 L-19,95 L-27,111 L-32,123 L-32,130 L-25,129 L-18,127 L-7,126 L7,127 L23,131 L38,138 L49,145 L60,156 L66,164 L74,180 L78,191 L81,213 L80,225 L77,239 L72,252 L64,264 L54,275 L49,280 L38,289 L23,296 L16,299 L-3,301 L-25,299 L-43,291 L-56,283 L-63,276 L-68,271 L-76,261 L-82,250 L-88,234 L-91,221 L-93,209 L-93,169 L-91,158 L-90,147 L-86,131 L-84,124 L-77,103 L-67,84 L-64,77 L-57,66 L-47,51 L-36,36 L-27,25 L-7,5 Z M-6,174 L-19,177 L-33,185 L-38,189 L-44,198 L-45,207 L-43,222 L-37,233 L-31,241 L-23,248 L-13,252 L4,252 L11,249 L20,242 L24,237 L30,229 L33,217 L32,204 L27,192 L18,182 L8,176 Z " fill="#000000" transform="translate(864,469)"/>
<path d="M0,0 L110,0 L113,5 L113,43 L111,47 L109,48 L-1,48 L-4,44 L-4,5 L-2,1 Z " fill="#000000" transform="translate(593,606)"/>
<path d="M0,0 L25,0 L28,3 L30,7 L31,90 L34,93 L46,91 L76,86 L103,80 L107,79 L130,79 L139,83 L145,91 L149,100 L149,108 L145,117 L137,125 L131,132 L126,134 L124,138 L117,146 L112,151 L86,177 L82,182 L78,185 L67,185 L68,192 L61,200 L50,211 L43,219 L34,228 L29,233 L19,244 L14,249 L-2,265 L-7,270 L-20,283 L-27,291 L-32,296 L-42,306 L-47,305 L-57,295 L-64,287 L-69,283 L-76,275 L-81,270 L-88,263 L-96,256 L-107,245 L-112,240 L-123,230 L-130,222 L-147,206 L-158,195 L-160,190 L-162,188 L-170,185 L-203,152 L-208,147 L-239,116 L-243,107 L-243,95 L-238,86 L-233,81 L-226,76 L-221,75 L-208,77 L-204,78 L-185,80 L-170,84 L-161,85 L-156,87 L-144,89 L-139,91 L-124,92 L-122,88 L-122,12 L-119,3 L-118,2 L-97,2 L-95,1 L-47,1 Z M-41,184 L-46,188 L-44,192 L-43,193 L-38,193 L-35,190 L-36,185 Z M53,184 L52,188 L56,189 L59,187 L59,184 Z M-26,185 L-28,186 L-27,191 L-25,192 L-18,192 L-11,190 L-11,187 L-17,185 Z M-91,186 L-92,191 L-88,193 L-84,190 L-84,187 Z M-137,187 L-137,192 L-130,194 L-128,197 L-124,198 L-118,193 L-115,191 L-116,187 L-120,188 L-124,188 L-131,188 L-132,187 Z M-75,187 L-75,191 L-72,190 L-73,187 Z M7,187 L7,191 L13,190 L13,187 Z M-148,187 L-155,189 L-153,193 L-147,193 L-144,190 L-144,187 Z " fill="#000000" transform="translate(666,809)"/>
</svg>
