<?xml version="1.0" encoding="UTF-8"?>
<!-- Generator: visioncortex VTracer 0.6.12 -->
<svg version="1.1" xmlns="http://www.w3.org/2000/svg" width="1107" height="975">
<path d="M0,0 L72,0 L77,5 L87,12 L97,25 L101,31 L108,42 L116,56 L124,67 L137,90 L142,98 L148,109 L161,131 L168,145 L173,153 L177,161 L184,172 L189,181 L194,189 L201,202 L205,208 L209,217 L213,224 L217,234 L221,239 L227,251 L233,260 L241,276 L250,292 L262,312 L268,321 L275,332 L282,346 L287,353 L289,358 L301,378 L309,393 L312,398 L317,406 L322,415 L335,438 L342,448 L351,465 L359,479 L365,490 L373,505 L382,520 L386,528 L388,535 L397,551 L400,556 L412,577 L419,587 L423,595 L427,602 L433,612 L439,624 L452,647 L457,659 L464,668 L471,682 L476,690 L483,704 L488,712 L494,724 L504,742 L509,751 L512,758 L522,772 L529,786 L537,801 L545,816 L553,828 L562,844 L568,856 L573,863 L577,871 L578,872 L578,953 L573,958 L564,967 L556,973 L555,975 L-510,975 L-518,968 L-522,966 L-527,957 L-529,955 L-529,880 L-522,870 L-507,844 L-503,841 L-498,830 L-497,826 L-492,822 L-485,811 L-481,806 L-473,790 L-463,773 L-454,757 L-449,749 L-439,734 L-429,715 L-421,702 L-417,694 L-413,687 L-404,672 L-396,659 L-392,650 L-383,636 L-373,618 L-364,603 L-356,590 L-350,578 L-345,573 L-337,557 L-330,547 L-324,535 L-312,515 L-302,498 L-297,490 L-294,484 L-290,478 L-286,471 L-280,463 L-275,451 L-269,442 L-264,432 L-256,416 L-246,398 L-239,388 L-231,375 L-225,363 L-219,353 L-203,327 L-194,311 L-181,289 L-176,282 L-170,271 L-161,256 L-153,243 L-145,227 L-137,214 L-131,205 L-126,195 L-117,185 L-114,175 L-106,161 L-100,152 L-86,129 L-80,117 L-77,113 L-72,103 L-58,81 L-53,73 L-47,61 L-41,53 L-35,41 L-26,26 L-15,13 L-7,5 Z M32,122 L28,126 L24,132 L17,142 L6,161 L3,165 L-3,177 L-13,193 L-21,207 L-26,215 L-30,222 L-39,239 L-45,247 L-51,256 L-55,265 L-61,275 L-68,289 L-77,303 L-86,318 L-92,328 L-102,346 L-109,359 L-117,370 L-122,380 L-135,400 L-143,416 L-150,426 L-154,434 L-160,443 L-166,457 L-174,469 L-179,476 L-182,483 L-185,488 L-193,501 L-196,507 L-203,519 L-208,526 L-213,536 L-220,546 L-230,563 L-237,577 L-240,583 L-247,594 L-250,600 L-261,617 L-265,628 L-273,641 L-282,656 L-288,666 L-296,680 L-304,693 L-318,718 L-327,735 L-331,742 L-339,755 L-349,772 L-353,779 L-361,793 L-365,798 L-371,808 L-383,829 L-390,842 L-400,858 L-406,867 L-409,876 L-409,884 L-404,888 L-386,889 L-351,889 L-346,892 L-337,891 L-333,889 L-314,888 L-307,887 L-299,888 L-286,887 L-266,887 L-226,885 L-167,885 L-162,884 L-121,884 L-104,885 L-99,884 L-61,884 L-46,883 L-43,884 L-14,884 L6,885 L10,884 L40,883 L49,884 L78,884 L88,883 L94,884 L171,884 L212,885 L250,885 L274,886 L375,886 L385,887 L433,888 L443,888 L458,886 L462,884 L463,882 L463,874 L458,862 L452,851 L444,839 L440,831 L428,809 L419,795 L411,781 L403,765 L397,755 L391,743 L382,726 L378,721 L372,707 L369,704 L361,688 L355,680 L348,668 L344,660 L336,647 L332,639 L326,629 L318,613 L313,605 L309,597 L306,593 L302,585 L294,572 L286,556 L279,546 L274,537 L268,529 L264,520 L254,502 L248,491 L239,475 L234,466 L229,458 L217,435 L212,427 L204,412 L199,403 L188,386 L183,374 L175,361 L167,345 L158,330 L153,321 L144,304 L139,294 L135,289 L130,279 L124,270 L116,257 L108,241 L103,233 L97,221 L91,212 L85,200 L80,191 L75,182 L69,172 L63,163 L60,156 L49,139 L42,128 L37,122 Z " fill="#000000" transform="translate(529,0)"/>
<path d="M0,0 L3,1 L2,5 L0,5 L-1,2 Z " fill="#000000" transform="translate(729,51)"/>
<path d="M0,0 Z " fill="#000000" transform="translate(163,217)"/>
<path d="M0,0 L14,1 L24,1 L46,0 L51,3 L52,6 L53,17 L53,62 L54,88 L54,124 L52,160 L49,165 L35,180 L27,190 L15,204 L11,209 L8,216 L7,252 L7,278 L8,362 L8,376 L9,385 L8,411 L9,421 L9,444 L7,453 L3,456 L-5,457 L-40,457 L-51,454 L-52,451 L-52,428 L-53,417 L-53,371 L-54,330 L-54,307 L-55,303 L-55,290 L-52,284 L-54,278 L-55,277 L-55,191 L-50,181 L-37,167 L-33,161 L-19,146 L-15,140 L-8,133 L-5,126 L-4,111 L-5,105 L-5,62 L-4,47 L-4,35 L-6,22 L-5,3 Z " fill="#000000" transform="translate(458,370)"/>
<path d="M0,0 L8,0 L14,4 L17,11 L17,56 L18,75 L18,93 L19,116 L23,125 L31,133 L38,142 L49,152 L54,157 L61,164 L67,171 L74,176 L78,182 L84,187 L86,190 L87,243 L87,270 L88,289 L88,348 L89,355 L89,375 L90,389 L90,411 L89,421 L92,431 L91,452 L88,457 L85,459 L64,459 L54,458 L40,458 L35,455 L32,449 L32,433 L30,362 L30,313 L29,299 L29,259 L28,224 L22,213 L11,204 L2,194 L-5,186 L-29,162 L-36,153 L-37,151 L-38,139 L-38,76 L-39,64 L-40,23 L-39,11 L-36,5 L-27,1 L-3,1 Z " fill="#000000" transform="translate(622,369)"/>
</svg>
