<?xml version="1.0" encoding="UTF-8"?>
<!-- Generator: visioncortex VTracer 0.6.12 -->
<svg version="1.1" xmlns="http://www.w3.org/2000/svg" width="1110" height="1098">
<path d="M0,0 L9,0 L8,3 L0,10 L-3,13 L-5,13 L-7,17 L-19,29 L-26,37 L-44,55 L-49,60 L-63,75 L-70,82 L-72,85 L-74,85 L-75,88 L-77,88 L-79,92 L-104,117 L-110,124 L-115,129 L-122,136 L-124,139 L-126,139 L-126,141 L-131,146 L-149,164 L-156,172 L-165,182 L-172,190 L-182,200 L-183,202 L-185,202 L-185,204 L-190,209 L-206,225 L-207,227 L-209,227 L-211,231 L-221,240 L-224,241 L-226,240 L-225,236 L-223,236 L-222,233 L-220,233 L-219,230 L-217,230 L-216,227 L-214,227 L-213,224 L-211,224 L-209,220 L-202,213 L-197,208 L-192,203 L-185,196 L-178,188 L-167,176 L-160,168 L-154,161 L-149,156 L-144,151 L-130,137 L-123,129 L-115,122 L-108,114 L-99,104 L-86,91 L-85,89 L-83,89 L-82,86 L-77,81 L-59,63 L-52,55 L-38,41 L-31,33 L-22,24 L-16,17 L-14,17 L-12,13 L-6,6 L-1,2 Z " fill="#000000" transform="translate(504,0)"/>
<path d="M0,0 L8,0 L13,5 L18,10 L32,23 L37,29 L45,36 L58,49 L66,56 L77,66 L80,69 L80,71 L84,73 L92,80 L105,92 L113,100 L119,105 L119,107 L123,109 L132,118 L140,125 L141,128 L145,130 L155,139 L160,144 L174,157 L177,159 L177,161 L181,163 L196,178 L204,185 L219,200 L227,207 L237,216 L244,223 L247,225 L247,227 L251,229 L264,242 L272,249 L277,254 L288,265 L299,274 L304,279 L321,296 L329,303 L341,314 L357,329 L370,341 L378,348 L378,350 L380,350 L384,355 L395,364 L400,369 L405,374 L416,384 L423,392 L430,399 L438,406 L448,416 L456,423 L463,430 L471,437 L486,451 L493,458 L501,465 L516,479 L522,484 L522,486 L526,488 L539,500 L539,510 L536,509 L532,503 L525,496 L517,489 L501,474 L490,464 L484,459 L484,457 L482,457 L477,452 L462,437 L454,430 L439,416 L431,409 L420,398 L415,393 L408,385 L400,378 L388,367 L385,364 L385,362 L381,360 L370,349 L362,342 L350,331 L341,322 L333,315 L325,307 L320,303 L315,298 L299,283 L298,280 L294,278 L286,271 L286,269 L282,267 L275,261 L269,254 L258,245 L253,240 L253,238 L249,236 L239,226 L234,221 L223,211 L215,204 L205,194 L202,192 L202,190 L198,188 L180,170 L172,163 L156,148 L151,143 L141,134 L124,118 L114,108 L106,101 L99,94 L91,87 L85,82 L85,80 L81,78 L72,69 L64,62 L49,48 L37,37 L11,11 L0,2 Z " fill="#000000" transform="translate(571,0)"/>
<path d="M0,0 L19,0 L33,6 L57,30 L62,35 L67,40 L78,50 L88,58 L95,66 L105,75 L122,91 L137,105 L152,119 L160,126 L170,135 L175,140 L188,153 L196,160 L206,169 L228,191 L236,197 L241,202 L241,204 L245,206 L245,208 L249,210 L254,214 L259,219 L271,230 L275,235 L280,238 L285,244 L293,251 L297,256 L305,263 L320,277 L335,291 L350,305 L356,310 L361,315 L376,330 L384,337 L395,347 L400,352 L412,363 L421,372 L429,379 L437,387 L445,394 L454,403 L460,410 L468,417 L477,426 L485,433 L493,440 L498,445 L507,453 L512,458 L517,463 L529,474 L537,482 L545,488 L552,496 L562,504 L568,513 L572,522 L573,526 L573,537 L570,548 L563,558 L551,571 L540,582 L534,589 L529,594 L525,599 L520,604 L516,606 L514,610 L510,615 L503,621 L496,629 L489,636 L482,644 L463,663 L456,671 L447,681 L436,693 L431,699 L429,699 L427,703 L401,729 L394,737 L384,747 L382,750 L380,750 L378,754 L371,762 L362,770 L355,778 L344,789 L337,797 L322,812 L315,820 L295,840 L288,848 L281,856 L277,860 L275,860 L273,864 L257,880 L250,888 L242,896 L235,904 L224,916 L214,926 L207,934 L196,945 L191,950 L182,960 L180,960 L178,964 L171,972 L162,981 L157,986 L146,997 L139,1005 L127,1017 L120,1025 L116,1030 L108,1037 L94,1052 L83,1064 L76,1072 L63,1084 L50,1090 L38,1091 L26,1088 L16,1083 L11,1079 L6,1074 L-1,1068 L-2,1064 L-7,1062 L-20,1050 L-31,1041 L-48,1025 L-55,1019 L-63,1012 L-80,995 L-91,986 L-104,973 L-113,966 L-118,960 L-126,953 L-140,940 L-148,933 L-157,924 L-163,920 L-165,915 L-170,913 L-180,904 L-185,898 L-193,891 L-198,885 L-206,878 L-224,860 L-230,856 L-241,845 L-249,838 L-265,823 L-276,812 L-284,806 L-289,801 L-295,796 L-300,791 L-317,775 L-329,764 L-340,753 L-345,749 L-350,744 L-360,735 L-364,730 L-372,723 L-380,715 L-388,708 L-398,698 L-406,691 L-418,680 L-418,678 L-422,676 L-429,670 L-434,665 L-454,645 L-462,638 L-472,628 L-477,623 L-491,611 L-500,602 L-508,595 L-520,584 L-525,575 L-528,567 L-529,563 L-529,554 L-526,544 L-522,536 L-510,523 L-504,516 L-498,511 L-493,506 L-484,496 L-472,484 L-466,477 L-461,472 L-452,463 L-447,458 L-438,448 L-423,433 L-416,425 L-407,416 L-400,408 L-388,396 L-386,393 L-384,393 L-382,389 L-375,383 L-368,375 L-354,361 L-347,353 L-338,344 L-331,336 L-327,331 L-319,324 L-311,315 L-309,315 L-308,312 L-306,312 L-304,308 L-299,303 L-282,286 L-277,281 L-270,273 L-262,266 L-253,255 L-248,251 L-241,243 L-231,233 L-226,228 L-218,219 L-212,214 L-205,206 L-198,200 L-191,191 L-180,179 L-176,174 L-171,169 L-163,160 L-156,154 L-149,146 L-141,137 L-136,132 L-129,125 L-128,123 L-126,123 L-124,119 L-104,99 L-97,91 L-88,81 L-80,74 L-71,65 L-66,60 L-57,50 L-52,45 L-40,32 L-35,27 L-24,15 L-19,10 L-14,6 L-4,1 Z M5,24 L0,26 L-10,35 L-17,42 L-17,44 L-19,44 L-26,52 L-53,79 L-58,84 L-70,97 L-79,107 L-104,132 L-111,140 L-120,149 L-125,154 L-132,161 L-139,169 L-155,185 L-162,193 L-173,205 L-182,214 L-187,219 L-195,228 L-202,236 L-211,245 L-216,250 L-227,262 L-239,274 L-244,279 L-249,284 L-260,297 L-265,302 L-274,311 L-279,316 L-290,328 L-305,343 L-308,346 L-311,349 L-318,357 L-327,366 L-332,372 L-337,376 L-344,384 L-351,392 L-356,396 L-363,404 L-377,418 L-384,426 L-389,431 L-396,439 L-402,444 L-406,448 L-411,453 L-421,464 L-426,469 L-437,481 L-442,486 L-455,500 L-460,505 L-470,516 L-475,521 L-480,526 L-485,531 L-501,548 L-504,554 L-505,562 L-501,570 L-491,580 L-483,587 L-474,594 L-467,602 L-462,606 L-456,613 L-447,620 L-443,625 L-435,632 L-430,638 L-421,645 L-415,652 L-405,660 L-400,665 L-393,671 L-389,676 L-384,681 L-372,692 L-360,703 L-352,710 L-342,720 L-337,725 L-325,736 L-314,745 L-300,759 L-295,762 L-289,769 L-287,769 L-285,773 L-275,782 L-265,792 L-261,794 L-257,799 L-249,806 L-246,809 L-244,809 L-242,813 L-231,822 L-226,827 L-216,836 L-207,846 L-199,852 L-186,866 L-178,873 L-173,877 L-169,882 L-161,889 L-153,896 L-148,901 L-143,905 L-138,910 L-133,916 L-128,921 L-115,932 L-102,944 L-97,948 L-93,953 L-85,960 L-82,961 L-81,964 L-74,970 L-71,973 L-63,980 L-55,988 L-47,995 L-36,1005 L-29,1011 L-24,1013 L-21,1018 L-10,1029 L-2,1036 L12,1049 L20,1056 L30,1065 L37,1068 L44,1068 L53,1062 L64,1050 L75,1039 L75,1037 L79,1035 L86,1027 L95,1019 L97,1015 L103,1010 L110,1001 L118,994 L125,987 L132,979 L145,966 L150,961 L159,951 L173,936 L181,928 L188,920 L191,917 L191,915 L195,913 L202,905 L207,900 L221,885 L225,880 L230,875 L235,870 L242,863 L249,855 L254,850 L259,844 L264,839 L274,829 L279,824 L282,820 L282,818 L286,816 L294,809 L301,801 L317,784 L320,779 L319,773 L322,770 L331,769 L341,759 L348,751 L351,748 L351,746 L355,744 L364,735 L371,727 L380,718 L385,713 L401,696 L406,690 L411,685 L417,678 L422,674 L429,666 L442,653 L449,645 L454,640 L461,632 L470,622 L475,617 L479,613 L487,606 L490,601 L501,590 L506,585 L517,572 L522,567 L529,560 L534,555 L541,547 L546,542 L548,537 L548,527 L545,522 L536,512 L531,507 L523,501 L518,497 L512,490 L501,481 L494,473 L482,463 L477,458 L471,451 L460,442 L455,438 L452,432 L447,427 L439,421 L423,406 L411,394 L406,389 L401,385 L396,380 L381,366 L375,360 L373,360 L371,356 L364,351 L359,346 L351,339 L345,331 L334,323 L327,314 L317,307 L310,299 L298,288 L283,274 L274,265 L266,258 L258,250 L250,243 L238,231 L230,224 L218,212 L213,207 L205,201 L188,185 L183,180 L173,170 L165,163 L154,152 L146,146 L141,141 L131,131 L126,126 L116,117 L108,110 L98,100 L92,95 L87,90 L80,83 L73,78 L66,70 L53,59 L48,55 L44,50 L36,43 L20,28 L13,24 Z " fill="#000000" transform="translate(533,2)"/>
<path d="M0,0 L5,2 L6,8 L4,10 L-1,9 L-2,4 Z " fill="#000000" transform="translate(955,135)"/>
<path d="M0,0 L7,1 L19,7 L29,12 L35,19 L41,32 L45,42 L49,48 L50,49 L56,49 L64,43 L69,40 L74,40 L76,44 L72,53 L64,62 L52,68 L42,69 L41,82 L45,89 L49,94 L58,108 L66,121 L68,125 L68,138 L66,150 L63,169 L60,190 L62,203 L64,213 L69,223 L71,228 L73,237 L78,238 L92,231 L98,231 L100,234 L100,247 L98,251 L91,254 L90,256 L90,262 L96,260 L103,261 L115,267 L116,269 L117,279 L124,284 L130,283 L131,282 L136,282 L146,289 L149,293 L150,304 L154,309 L156,310 L168,311 L173,316 L179,328 L176,337 L177,342 L178,346 L188,346 L191,349 L197,362 L196,369 L191,376 L192,390 L198,392 L203,397 L203,412 L199,418 L195,424 L195,433 L201,441 L202,447 L200,456 L198,460 L188,464 L185,468 L182,479 L185,485 L185,491 L179,501 L177,502 L165,503 L159,510 L159,522 L157,529 L150,535 L141,535 L139,534 L133,534 L126,540 L125,542 L124,552 L118,557 L110,561 L105,560 L100,556 L97,555 L87,558 L85,561 L83,569 L80,572 L75,574 L67,574 L62,571 L58,566 L55,565 L46,565 L39,574 L37,575 L27,575 L19,570 L15,565 L8,562 L3,561 L-5,568 L-14,567 L-23,562 L-25,559 L-26,552 L-31,548 L-35,547 L-41,551 L-47,551 L-54,547 L-58,542 L-59,533 L-63,527 L-67,524 L-81,523 L-87,516 L-90,511 L-89,499 L-96,490 L-106,488 L-110,484 L-115,469 L-177,469 L-179,470 L-214,471 L-224,467 L-232,460 L-242,453 L-249,452 L-289,453 L-294,453 L-296,455 L-296,458 L-287,464 L-276,473 L-268,483 L-261,494 L-258,502 L-255,513 L-255,528 L-258,543 L-264,557 L-273,568 L-277,573 L-285,578 L-290,582 L-298,587 L-311,590 L-317,592 L-330,592 L-343,589 L-364,580 L-375,572 L-382,565 L-386,559 L-390,550 L-394,543 L-397,531 L-397,521 L-394,502 L-386,486 L-377,475 L-369,469 L-367,469 L-365,465 L-356,459 L-341,454 L-339,450 L-343,437 L-351,421 L-357,408 L-361,398 L-365,390 L-369,381 L-377,365 L-381,356 L-388,342 L-394,326 L-403,309 L-408,297 L-409,293 L-403,284 L-398,279 L-390,270 L-386,268 L-356,266 L-329,265 L-327,260 L-327,235 L-326,210 L-323,207 L-304,206 L-299,211 L-298,236 L-298,249 L-297,263 L-279,263 L-227,260 L-152,257 L-140,257 L-137,259 L-132,258 L-122,247 L-119,242 L-111,232 L-108,225 L-109,220 L-119,213 L-124,210 L-133,204 L-136,199 L-135,193 L-130,188 L-124,187 L-117,191 L-108,198 L-103,199 L-96,194 L-93,193 L-77,191 L-66,189 L-42,188 L-31,186 L-29,180 L-27,159 L-24,146 L-16,130 L-10,121 L-1,115 L1,106 L-3,102 L-9,99 L-13,94 L-20,79 L-23,69 L-27,60 L-34,60 L-36,61 L-48,61 L-52,59 L-52,52 L-43,44 L-35,41 L-28,39 L-24,35 L-19,23 L-14,13 L-12,8 L-4,1 Z M-73,216 L-75,217 L-74,222 L-65,228 L-57,234 L-51,240 L-51,247 L-56,252 L-63,252 L-77,243 L-83,238 L-89,238 L-98,249 L-106,260 L-109,265 L-108,270 L-99,274 L-82,281 L-62,288 L-54,288 L-44,280 L-32,269 L-27,264 L-23,255 L-23,249 L-27,245 L-29,235 L-26,223 L-28,221 L-46,221 L-58,222 L-67,220 L-72,216 Z " fill="#000000" transform="translate(649,181)"/>
<path d="M0,0 L3,0 L2,5 L-7,15 L-15,25 L-24,34 L-29,39 L-40,50 L-45,55 L-56,67 L-83,94 L-84,96 L-86,96 L-88,100 L-90,103 L-92,103 L-94,107 L-111,124 L-113,124 L-115,128 L-122,136 L-130,143 L-137,151 L-145,159 L-152,167 L-163,178 L-170,186 L-184,200 L-188,205 L-194,210 L-201,218 L-217,234 L-224,242 L-232,250 L-239,258 L-243,263 L-251,270 L-265,284 L-269,289 L-271,293 L-273,293 L-273,283 L-241,251 L-234,243 L-225,233 L-220,228 L-215,224 L-208,216 L-191,199 L-184,191 L-179,186 L-173,181 L-164,170 L-157,164 L-150,156 L-145,150 L-140,145 L-124,129 L-118,122 L-110,115 L-105,110 L-100,103 L-95,99 L-88,91 L-76,78 L-68,71 L-61,63 L-56,58 L-51,53 L-49,53 L-47,48 L-38,40 L-31,32 L-24,24 L-18,19 L-11,11 Z " fill="#000000" transform="translate(273,243)"/>
<path d="M0,0 L2,0 L2,11 L-6,18 L-21,33 L-28,41 L-36,49 L-41,54 L-57,71 L-72,87 L-84,100 L-99,115 L-103,120 L-105,120 L-107,124 L-116,133 L-122,141 L-138,158 L-152,172 L-159,180 L-179,200 L-186,208 L-195,218 L-200,222 L-207,230 L-215,239 L-221,244 L-228,252 L-245,269 L-250,275 L-254,279 L-259,284 L-273,299 L-288,315 L-303,330 L-310,338 L-321,350 L-330,359 L-336,366 L-341,371 L-351,381 L-358,389 L-373,404 L-378,409 L-389,421 L-403,436 L-418,452 L-424,459 L-431,465 L-433,468 L-435,468 L-436,471 L-441,476 L-449,484 L-456,492 L-461,497 L-468,504 L-475,512 L-484,522 L-486,522 L-488,526 L-499,537 L-501,537 L-501,539 L-510,539 L-509,536 L-504,533 L-497,526 L-492,521 L-487,515 L-482,511 L-475,503 L-469,496 L-467,496 L-465,492 L-450,477 L-445,471 L-443,471 L-441,467 L-427,453 L-420,445 L-411,436 L-402,425 L-382,405 L-375,397 L-363,385 L-356,377 L-336,357 L-329,349 L-322,342 L-315,334 L-305,324 L-298,316 L-291,309 L-284,301 L-268,284 L-263,279 L-252,267 L-243,258 L-236,250 L-234,250 L-232,246 L-212,226 L-206,219 L-201,214 L-194,207 L-187,199 L-176,187 L-149,160 L-142,152 L-131,141 L-124,133 L-115,123 L-112,119 L-110,119 L-108,115 L-95,102 L-91,97 L-89,97 L-88,94 L-86,94 L-84,90 L-68,73 L-59,64 L-52,56 L-32,36 L-25,28 L-22,25 L-20,25 L-18,21 L-4,6 Z " fill="#000000" transform="translate(1108,559)"/>
<path d="M0,0 L3,1 L7,8 L14,15 L22,22 L35,34 L43,42 L54,51 L60,58 L68,65 L77,74 L85,81 L100,95 L107,102 L112,106 L117,111 L128,122 L136,129 L146,139 L154,146 L161,153 L169,160 L178,169 L186,176 L196,186 L204,193 L217,205 L223,210 L228,215 L244,230 L259,244 L259,246 L263,248 L275,259 L280,263 L280,265 L284,267 L293,276 L301,283 L315,296 L315,298 L319,300 L329,309 L348,328 L353,333 L366,345 L380,358 L388,365 L400,376 L415,390 L423,397 L431,405 L438,410 L445,418 L457,429 L463,434 L463,436 L467,438 L476,446 L476,448 L480,450 L490,459 L506,474 L517,483 L523,490 L534,499 L544,508 L548,510 L548,512 L539,512 L539,510 L535,508 L527,501 L518,492 L510,486 L497,474 L492,469 L480,458 L469,448 L461,441 L449,429 L441,422 L434,415 L424,407 L419,402 L407,390 L399,383 L385,370 L374,361 L374,359 L370,357 L362,350 L362,348 L358,346 L347,336 L340,328 L331,319 L326,314 L311,300 L306,296 L302,292 L294,285 L284,276 L279,271 L263,256 L260,254 L260,252 L256,250 L244,238 L233,229 L229,224 L218,215 L209,206 L201,199 L194,192 L186,185 L178,177 L170,170 L161,162 L157,157 L149,150 L138,140 L133,135 L118,120 L113,116 L108,111 L100,104 L90,94 L85,89 L75,80 L65,71 L58,64 L53,60 L49,55 L38,46 L22,30 L20,29 L20,27 L18,27 L13,22 L4,13 L0,10 Z " fill="#000000" transform="translate(0,586)"/>
</svg>
