<?xml version="1.0" encoding="UTF-8"?>
<!-- Generator: visioncortex VTracer 0.6.12 -->
<svg version="1.1" xmlns="http://www.w3.org/2000/svg" width="1134" height="1137">
<path d="M0,0 L4,1 L9,5 L17,7 L22,12 L29,16 L36,19 L45,27 L49,31 L55,34 L60,40 L74,47 L88,58 L96,64 L107,71 L115,77 L118,80 L118,82 L120,82 L125,89 L132,94 L136,100 L147,106 L150,110 L150,120 L147,125 L142,130 L137,135 L126,148 L123,151 L120,159 L116,162 L114,162 L112,167 L109,168 L108,173 L103,178 L100,179 L98,183 L96,184 L92,191 L85,198 L82,205 L78,211 L75,214 L68,222 L62,228 L62,233 L53,238 L44,253 L40,254 L38,259 L36,259 L34,264 L31,267 L25,274 L19,279 L17,286 L12,291 L6,293 L4,298 L-1,302 L-5,310 L-8,311 L-9,315 L-15,320 L-22,328 L-28,335 L-30,341 L-33,344 L-35,348 L-39,353 L-41,353 L-43,357 L-50,364 L-57,374 L-59,381 L-63,386 L-68,390 L-75,400 L-77,405 L-82,407 L-84,413 L-87,416 L-94,424 L-104,435 L-107,438 L-109,438 L-111,442 L-117,451 L-119,456 L-130,468 L-135,473 L-145,482 L-152,490 L-159,498 L-165,506 L-171,511 L-171,516 L-175,518 L-176,521 L-180,523 L-186,531 L-191,536 L-198,543 L-207,554 L-213,562 L-215,562 L-216,569 L-220,573 L-222,573 L-224,578 L-228,587 L-232,592 L-234,592 L-235,597 L-243,604 L-248,611 L-254,615 L-259,620 L-265,626 L-267,626 L-269,631 L-278,643 L-280,648 L-285,655 L-287,655 L-289,659 L-302,674 L-305,681 L-308,682 L-309,686 L-314,691 L-318,696 L-323,701 L-337,716 L-343,726 L-347,730 L-348,734 L-355,740 L-360,750 L-363,751 L-364,756 L-371,767 L-377,771 L-380,772 L-382,777 L-384,777 L-386,782 L-392,787 L-398,795 L-401,800 L-407,803 L-411,813 L-421,821 L-427,830 L-429,830 L-431,835 L-439,842 L-442,843 L-444,850 L-448,855 L-450,856 L-453,861 L-456,865 L-458,865 L-460,871 L-467,877 L-471,883 L-477,888 L-482,896 L-487,898 L-492,908 L-495,913 L-499,914 L-501,919 L-504,924 L-510,929 L-514,934 L-517,944 L-524,950 L-527,953 L-536,964 L-539,968 L-542,973 L-548,981 L-559,993 L-567,996 L-570,998 L-575,997 L-581,994 L-584,989 L-591,986 L-592,982 L-595,981 L-596,979 L-601,976 L-604,973 L-614,965 L-619,961 L-625,953 L-631,946 L-636,942 L-641,937 L-649,931 L-660,917 L-665,913 L-672,905 L-678,901 L-687,889 L-692,884 L-702,875 L-704,872 L-703,868 L-694,859 L-689,854 L-680,844 L-676,836 L-673,833 L-669,832 L-667,826 L-660,820 L-658,817 L-656,817 L-656,815 L-654,815 L-652,811 L-645,803 L-642,796 L-637,791 L-635,791 L-633,787 L-627,779 L-624,774 L-613,763 L-608,758 L-602,750 L-595,738 L-590,732 L-585,727 L-578,720 L-573,711 L-570,710 L-568,706 L-566,701 L-558,694 L-557,690 L-552,685 L-545,677 L-539,670 L-534,665 L-530,660 L-525,655 L-521,647 L-519,647 L-517,642 L-510,636 L-503,628 L-499,624 L-491,614 L-486,609 L-479,601 L-472,592 L-464,581 L-455,571 L-451,566 L-450,559 L-443,552 L-440,547 L-435,542 L-424,528 L-420,521 L-416,515 L-408,508 L-403,502 L-398,500 L-396,496 L-389,489 L-384,482 L-381,480 L-378,473 L-367,462 L-360,451 L-353,444 L-350,437 L-344,427 L-339,425 L-337,421 L-330,415 L-323,407 L-314,396 L-310,389 L-309,384 L-305,384 L-303,379 L-298,374 L-290,366 L-284,359 L-281,356 L-275,348 L-273,341 L-270,340 L-268,336 L-261,328 L-256,323 L-252,318 L-248,314 L-245,309 L-243,309 L-242,305 L-240,305 L-239,300 L-235,299 L-234,295 L-230,289 L-227,288 L-218,276 L-212,268 L-209,261 L-205,260 L-204,257 L-202,256 L-199,250 L-193,245 L-188,238 L-183,233 L-179,228 L-178,225 L-176,224 L-174,218 L-171,213 L-168,212 L-165,207 L-159,202 L-153,193 L-150,191 L-147,184 L-145,181 L-143,181 L-141,176 L-138,175 L-136,171 L-129,165 L-124,157 L-119,154 L-117,154 L-115,149 L-110,140 L-108,139 L-105,134 L-103,134 L-101,129 L-98,129 L-96,122 L-91,116 L-86,111 L-82,105 L-74,96 L-69,88 L-62,80 L-60,80 L-58,76 L-49,67 L-46,60 L-43,59 L-44,55 L-35,44 L-30,39 L-23,31 L-20,24 L-14,13 L-12,13 L-10,8 L-8,4 Z M-139,195 L-140,199 L-136,200 L-134,196 Z M-193,367 L-193,369 L-190,369 L-190,367 Z M-175,375 L-177,378 L-176,382 L-171,381 L-170,377 L-172,375 Z M-177,384 L-177,387 L-174,386 L-174,384 Z M-252,526 L-253,529 L-252,531 L-247,530 L-248,526 Z M-282,604 L-283,605 L-283,610 L-278,609 L-278,605 Z M-585,835 Z " fill="#000000" transform="translate(829,54)"/>
<path d="M0,0 L2,2 L-1,3 Z " fill="#000000" transform="translate(574,366)"/>
<path d="M0,0 L2,1 Z " fill="#000000" transform="translate(564,376)"/>
<path d="M0,0 L2,0 L2,2 L-1,1 Z " fill="#000000" transform="translate(559,381)"/>
<path d="M0,0 Z " fill="#000000" transform="translate(550,400)"/>
<path d="M0,0 L1,2 L-1,1 Z " fill="#000000" transform="translate(535,414)"/>
<path d="M0,0 L2,1 Z " fill="#000000" transform="translate(525,424)"/>
<path d="M0,0 L3,0 L3,2 L0,3 Z " fill="#000000" transform="translate(769,442)"/>
<path d="M0,0 L2,1 Z " fill="#000000" transform="translate(505,451)"/>
<path d="M0,0 L3,0 L2,3 L-1,2 Z " fill="#000000" transform="translate(490,465)"/>
<path d="M0,0 Z " fill="#000000" transform="translate(481,475)"/>
<path d="M0,0 L3,1 L2,3 L0,3 Z " fill="#000000" transform="translate(768,546)"/>
<path d="M0,0 Z " fill="#000000" transform="translate(369,612)"/>
<path d="M0,0 L2,0 L2,3 L-1,3 Z " fill="#000000" transform="translate(694,645)"/>
<path d="M0,0 L2,0 L2,3 L-1,2 Z " fill="#000000" transform="translate(694,655)"/>
<path d="M0,0 L3,1 Z " fill="#000000" transform="translate(852,664)"/>
<path d="M0,0 L2,0 L2,2 L0,2 Z " fill="#000000" transform="translate(663,760)"/>
<path d="M0,0 L3,1 L3,4 L0,4 Z " fill="#000000" transform="translate(114,922)"/>
</svg>
