<?xml version="1.0" encoding="UTF-8"?>
<!-- Generator: visioncortex VTracer 0.6.12 -->
<svg version="1.1" xmlns="http://www.w3.org/2000/svg" width="984" height="1071">
<path d="M0,0 L9,0 L15,3 L23,3 L39,11 L47,18 L55,25 L62,33 L69,47 L75,56 L86,74 L91,84 L100,98 L104,104 L110,115 L113,119 L121,135 L128,147 L133,155 L137,163 L143,172 L152,187 L158,197 L164,207 L173,222 L185,242 L191,252 L196,257 L201,267 L207,278 L212,286 L216,294 L223,305 L229,314 L239,332 L246,342 L250,351 L254,356 L267,378 L269,384 L271,384 L280,401 L283,407 L287,413 L291,420 L299,434 L310,453 L317,464 L325,476 L331,487 L337,497 L341,504 L350,521 L355,527 L359,536 L364,544 L370,553 L381,572 L387,582 L395,597 L401,606 L407,616 L410,621 L414,631 L419,636 L429,654 L433,659 L439,671 L449,687 L453,693 L456,698 L463,710 L468,720 L472,724 L476,732 L484,747 L488,752 L492,760 L496,764 L500,772 L505,780 L509,788 L514,796 L518,803 L524,815 L529,821 L534,831 L540,840 L547,851 L553,862 L558,872 L565,882 L571,894 L576,906 L577,909 L578,922 L578,933 L577,943 L569,959 L563,967 L556,975 L539,985 L532,988 L515,991 L490,992 L470,992 L461,993 L420,993 L413,992 L411,993 L402,993 L400,994 L376,994 L373,993 L350,994 L344,995 L279,995 L265,996 L257,995 L254,996 L219,997 L202,997 L183,998 L107,998 L93,997 L90,998 L16,998 L-1,999 L-28,999 L-84,1000 L-90,999 L-96,1000 L-163,1000 L-171,999 L-180,1000 L-211,1000 L-213,1001 L-235,1001 L-251,1000 L-272,1001 L-279,1000 L-282,1001 L-308,1001 L-325,1002 L-332,1001 L-334,1002 L-340,1002 L-347,1001 L-354,1002 L-370,1002 L-374,1000 L-374,902 L-370,901 L-264,901 L-251,900 L-218,900 L-208,901 L-195,901 L-184,900 L-178,901 L-160,900 L-112,900 L-109,899 L-14,899 L-3,898 L-1,899 L6,899 L13,898 L22,898 L31,897 L37,898 L98,898 L128,897 L198,897 L210,896 L219,897 L221,896 L239,895 L276,895 L285,894 L335,894 L342,893 L347,894 L361,894 L375,893 L398,893 L408,892 L434,891 L444,888 L444,879 L440,867 L431,851 L420,832 L415,824 L408,814 L396,794 L391,786 L385,777 L380,766 L370,750 L365,741 L361,736 L358,730 L352,722 L346,708 L337,695 L334,688 L323,672 L315,658 L310,652 L305,640 L298,629 L295,623 L288,613 L284,604 L280,598 L276,587 L264,570 L261,564 L255,555 L246,539 L240,528 L234,518 L227,507 L218,491 L211,480 L208,473 L202,465 L196,455 L193,449 L190,446 L184,435 L178,426 L174,420 L170,412 L166,406 L164,401 L159,395 L154,385 L150,381 L145,371 L142,365 L140,360 L135,354 L132,346 L124,335 L118,325 L113,318 L110,312 L106,306 L103,299 L99,293 L95,286 L90,280 L82,264 L76,254 L70,244 L67,240 L61,228 L55,219 L49,208 L41,194 L38,191 L35,183 L29,176 L26,169 L19,157 L16,151 L11,146 L8,139 L2,140 L1,137 L-3,136 L-8,143 L-11,146 L-16,158 L-22,165 L-26,175 L-36,192 L-46,211 L-51,219 L-55,225 L-60,237 L-64,243 L-68,251 L-78,269 L-81,272 L-84,282 L-87,288 L-93,295 L-103,315 L-108,323 L-114,334 L-120,343 L-131,363 L-135,372 L-141,381 L-146,391 L-154,404 L-160,416 L-166,427 L-177,446 L-187,462 L-192,472 L-200,483 L-207,497 L-213,507 L-216,511 L-224,527 L-234,545 L-239,554 L-247,567 L-253,577 L-256,584 L-260,591 L-270,608 L-274,614 L-284,635 L-289,643 L-298,657 L-307,674 L-311,682 L-317,690 L-324,704 L-331,715 L-334,721 L-337,725 L-345,741 L-353,754 L-361,769 L-365,777 L-367,780 L-369,786 L-372,791 L-374,791 L-374,587 L-370,581 L-367,572 L-359,559 L-348,540 L-336,518 L-330,509 L-320,489 L-314,481 L-305,465 L-297,452 L-292,444 L-284,424 L-279,421 L-275,413 L-267,400 L-263,393 L-256,380 L-252,375 L-244,359 L-234,342 L-225,326 L-221,318 L-212,302 L-206,291 L-199,278 L-195,272 L-189,261 L-183,252 L-180,244 L-175,236 L-172,230 L-166,219 L-162,214 L-159,206 L-153,197 L-148,185 L-143,176 L-137,165 L-131,156 L-123,139 L-115,126 L-110,116 L-106,111 L-100,99 L-96,93 L-93,89 L-89,78 L-84,72 L-74,54 L-66,43 L-62,36 L-52,23 L-48,19 L-40,15 L-37,11 L-23,4 L-13,2 Z M-91,116 L-90,121 L-88,123 L-85,123 L-85,117 Z M-279,443 L-284,451 L-286,457 L-290,466 L-290,469 L-286,468 L-280,456 L-275,448 L-275,443 Z M-6,906 L-6,909 L-3,908 L-4,906 Z " fill="#000000" transform="translate(374,35)"/>
<path d="M0,0 L4,1 L12,7 L20,16 L24,21 L24,23 L28,25 L40,37 L48,44 L57,53 L62,58 L68,65 L76,72 L91,88 L98,92 L105,89 L113,83 L133,63 L135,63 L137,59 L147,50 L153,43 L161,36 L168,28 L184,16 L193,5 L199,5 L204,10 L212,20 L224,31 L231,39 L243,51 L246,58 L246,67 L241,73 L236,78 L232,80 L231,83 L221,90 L214,95 L207,103 L198,110 L193,115 L186,122 L176,130 L172,135 L168,137 L162,145 L162,154 L166,160 L174,170 L179,175 L222,218 L229,226 L238,233 L246,240 L256,251 L260,257 L260,263 L255,268 L245,276 L240,281 L233,289 L228,294 L221,300 L213,307 L207,309 L201,309 L193,302 L185,293 L179,289 L172,282 L164,275 L159,270 L149,260 L141,250 L128,237 L123,232 L115,224 L113,220 L104,214 L97,211 L90,212 L84,214 L83,217 L75,224 L68,231 L63,236 L54,244 L49,247 L44,252 L40,256 L37,259 L28,266 L21,274 L13,280 L5,287 L0,292 L-5,297 L-14,302 L-16,306 L-20,307 L-31,300 L-37,295 L-42,287 L-51,277 L-56,274 L-62,265 L-68,257 L-72,250 L-71,247 L-60,239 L-44,226 L-36,219 L-23,207 L-14,200 L-4,190 L0,186 L11,177 L25,165 L33,157 L36,151 L36,145 L33,142 L30,137 L12,119 L4,112 L-21,87 L-26,83 L-31,78 L-36,72 L-41,67 L-46,62 L-52,55 L-51,51 L-37,41 L-23,27 L-19,26 L-17,21 L-13,16 L-10,11 L-8,11 L-6,7 Z " fill="#000000" transform="translate(286,543)"/>
</svg>
