<?xml version="1.0" encoding="UTF-8"?>
<!-- Generator: visioncortex VTracer 0.6.12 -->
<svg version="1.1" xmlns="http://www.w3.org/2000/svg" width="1005" height="1191">
<path d="M0,0 L16,0 L32,3 L42,9 L54,19 L59,24 L72,36 L77,42 L85,49 L98,62 L106,69 L117,79 L120,82 L120,84 L124,86 L132,93 L145,105 L153,113 L159,118 L159,120 L163,122 L172,131 L180,138 L181,141 L185,143 L195,152 L200,157 L214,170 L217,172 L217,174 L221,176 L236,191 L244,198 L259,213 L267,220 L277,229 L284,236 L287,238 L287,240 L291,242 L304,255 L312,262 L317,267 L328,278 L339,287 L344,292 L361,309 L369,316 L381,327 L397,342 L410,354 L418,361 L418,363 L420,363 L424,368 L426,369 L426,376 L421,373 L410,362 L402,355 L390,344 L381,335 L373,328 L365,320 L360,316 L355,311 L339,296 L338,293 L334,291 L326,284 L326,282 L322,280 L315,274 L309,267 L298,258 L293,253 L293,251 L289,249 L279,239 L274,234 L263,224 L255,217 L245,207 L242,205 L242,203 L238,201 L220,183 L212,176 L196,161 L191,156 L181,147 L164,131 L154,121 L146,114 L139,107 L131,100 L125,95 L125,93 L121,91 L112,82 L104,75 L89,61 L77,50 L51,24 L40,15 L30,9 L19,6 L5,6 L-7,9 L-20,16 L-30,26 L-32,26 L-34,30 L-46,42 L-53,50 L-71,68 L-76,73 L-90,88 L-97,95 L-99,98 L-101,98 L-102,101 L-104,101 L-106,105 L-131,130 L-137,137 L-142,142 L-149,149 L-151,152 L-153,152 L-153,154 L-158,159 L-176,177 L-183,185 L-192,195 L-199,203 L-209,213 L-210,215 L-212,215 L-212,217 L-217,222 L-233,238 L-234,240 L-236,240 L-238,244 L-248,253 L-251,254 L-253,253 L-252,249 L-250,249 L-249,246 L-247,246 L-246,243 L-244,243 L-243,240 L-241,240 L-240,237 L-238,237 L-236,233 L-229,226 L-224,221 L-219,216 L-212,209 L-205,201 L-194,189 L-187,181 L-181,174 L-176,169 L-171,164 L-157,150 L-150,142 L-142,135 L-135,127 L-126,117 L-113,104 L-112,102 L-110,102 L-109,99 L-104,94 L-86,76 L-79,68 L-65,54 L-58,46 L-49,37 L-43,30 L-41,30 L-39,26 L-33,19 L-25,12 L-18,7 L-10,3 L-2,1 Z " fill="#000000" transform="translate(579,35)"/>
<path d="M0,0 L20,0 L34,7 L57,30 L62,35 L67,40 L78,50 L88,58 L95,66 L105,75 L122,91 L137,105 L152,119 L160,126 L170,135 L175,140 L188,153 L196,160 L206,169 L228,191 L236,197 L241,202 L241,204 L245,206 L245,208 L249,210 L254,214 L259,219 L271,230 L275,235 L280,238 L285,244 L293,251 L297,256 L305,263 L320,277 L336,292 L349,304 L356,310 L361,315 L376,330 L384,337 L395,347 L400,352 L415,366 L421,372 L424,373 L424,406 L420,404 L411,395 L406,390 L401,386 L396,381 L381,367 L373,360 L368,355 L363,351 L363,349 L359,347 L350,339 L345,333 L345,331 L341,329 L333,323 L326,314 L316,307 L309,299 L299,290 L283,275 L274,266 L266,259 L258,251 L250,244 L238,232 L230,225 L218,213 L213,209 L210,206 L202,199 L189,187 L183,182 L176,174 L163,162 L154,153 L145,146 L140,141 L131,132 L126,128 L120,121 L111,114 L98,101 L91,95 L86,90 L77,82 L72,78 L72,76 L68,74 L64,69 L54,61 L47,55 L42,50 L31,39 L23,32 L15,26 L13,25 L5,25 L0,27 L-10,36 L-17,44 L-19,44 L-21,48 L-53,80 L-58,85 L-69,97 L-78,107 L-84,113 L-86,113 L-88,117 L-103,132 L-110,140 L-119,149 L-124,154 L-131,161 L-138,169 L-154,185 L-161,193 L-172,205 L-181,214 L-186,219 L-194,228 L-201,236 L-210,245 L-214,250 L-219,255 L-238,274 L-243,279 L-247,284 L-252,289 L-259,297 L-264,302 L-274,312 L-279,317 L-288,327 L-304,343 L-308,347 L-310,347 L-312,352 L-326,366 L-332,373 L-337,378 L-349,390 L-354,395 L-363,405 L-376,418 L-383,426 L-388,431 L-396,440 L-401,444 L-406,449 L-411,454 L-420,464 L-425,469 L-431,476 L-433,476 L-435,480 L-440,485 L-455,501 L-460,506 L-470,517 L-475,522 L-478,523 L-480,528 L-490,537 L-497,545 L-502,551 L-504,562 L-500,570 L-491,579 L-483,586 L-473,594 L-466,602 L-461,606 L-456,612 L-446,620 L-441,625 L-432,634 L-427,639 L-418,647 L-413,652 L-404,660 L-399,665 L-392,671 L-387,676 L-382,682 L-374,689 L-360,702 L-352,709 L-342,719 L-337,724 L-325,735 L-314,744 L-300,758 L-294,762 L-289,768 L-281,775 L-265,791 L-260,794 L-255,799 L-246,808 L-241,813 L-230,822 L-225,827 L-217,834 L-209,842 L-204,847 L-196,854 L-186,865 L-178,872 L-172,877 L-167,882 L-155,894 L-147,901 L-142,905 L-137,910 L-133,915 L-128,919 L-123,924 L-112,934 L-104,941 L-96,948 L-91,953 L-84,960 L-76,967 L-71,972 L-63,979 L-55,987 L-47,994 L-35,1005 L-29,1010 L-23,1013 L-20,1018 L-10,1028 L-2,1035 L12,1048 L20,1055 L30,1064 L37,1067 L44,1067 L53,1061 L62,1051 L74,1039 L81,1031 L89,1023 L94,1019 L97,1014 L102,1010 L110,1000 L118,993 L134,976 L144,966 L149,961 L158,951 L172,936 L180,928 L185,923 L191,915 L198,909 L204,901 L210,896 L217,888 L225,879 L230,874 L234,872 L236,868 L244,859 L251,853 L258,844 L261,843 L263,839 L273,829 L278,824 L282,818 L293,809 L300,801 L307,793 L309,793 L311,789 L318,782 L319,778 L318,773 L322,769 L331,768 L340,759 L347,751 L351,746 L359,739 L367,730 L369,730 L371,726 L379,718 L384,713 L400,696 L405,690 L410,685 L417,677 L422,672 L424,672 L424,707 L420,708 L418,712 L401,729 L394,737 L384,747 L382,750 L380,750 L378,754 L371,762 L362,770 L355,778 L344,789 L337,797 L322,812 L315,820 L295,840 L288,848 L281,856 L277,860 L275,860 L273,864 L257,880 L250,888 L242,896 L235,904 L224,916 L213,927 L206,935 L196,945 L191,950 L182,960 L180,960 L178,964 L171,972 L167,974 L165,978 L161,983 L153,990 L146,997 L139,1005 L127,1017 L120,1025 L116,1030 L108,1037 L94,1052 L83,1064 L76,1072 L63,1084 L50,1090 L38,1091 L26,1088 L18,1084 L12,1080 L7,1075 L-1,1068 L-2,1064 L-7,1062 L-20,1050 L-31,1041 L-48,1025 L-56,1018 L-64,1011 L-80,995 L-91,986 L-104,973 L-113,966 L-118,960 L-126,953 L-140,940 L-148,933 L-158,923 L-163,920 L-165,915 L-170,913 L-180,904 L-185,898 L-193,891 L-198,885 L-206,878 L-224,860 L-230,856 L-241,845 L-249,838 L-265,823 L-276,812 L-284,806 L-289,801 L-295,796 L-300,791 L-317,775 L-329,764 L-340,753 L-345,749 L-350,744 L-360,735 L-364,730 L-372,723 L-380,715 L-388,708 L-398,698 L-406,691 L-418,680 L-418,678 L-422,676 L-429,670 L-434,665 L-454,645 L-462,638 L-472,628 L-477,623 L-491,611 L-500,602 L-508,595 L-520,584 L-525,575 L-528,567 L-529,563 L-529,554 L-526,544 L-522,536 L-510,523 L-504,516 L-498,511 L-493,506 L-484,496 L-472,484 L-466,477 L-461,472 L-452,463 L-447,458 L-438,448 L-423,433 L-416,425 L-407,416 L-400,408 L-388,396 L-386,393 L-384,393 L-382,389 L-375,383 L-368,375 L-354,361 L-347,353 L-338,344 L-331,336 L-327,331 L-319,324 L-311,315 L-309,315 L-308,312 L-306,312 L-304,308 L-299,303 L-282,286 L-277,281 L-270,273 L-262,266 L-253,255 L-248,251 L-241,243 L-231,233 L-226,228 L-218,219 L-212,214 L-205,206 L-198,200 L-191,191 L-180,179 L-176,174 L-171,169 L-163,160 L-156,154 L-149,146 L-141,137 L-136,132 L-129,125 L-128,123 L-126,123 L-124,119 L-104,99 L-97,91 L-88,81 L-80,74 L-71,65 L-66,60 L-57,50 L-52,45 L-40,32 L-35,27 L-24,15 L-19,10 L-14,6 L-4,1 Z " fill="#000000" transform="translate(581,50)"/>
<path d="M0,0 L2,0 L2,10 L-1,9 L-1,1 Z " fill="#000000" transform="translate(1003,183)"/>
<path d="M0,0 L7,1 L19,7 L29,12 L35,19 L41,32 L45,42 L49,48 L50,49 L56,49 L61,45 L69,40 L74,40 L76,44 L72,53 L64,62 L52,68 L42,69 L41,82 L45,89 L49,94 L58,108 L66,121 L68,125 L68,138 L66,150 L64,165 L61,181 L60,190 L62,203 L64,213 L69,223 L71,228 L73,237 L78,238 L92,231 L98,231 L100,234 L100,247 L98,251 L91,254 L90,256 L90,262 L96,260 L103,261 L115,267 L116,269 L117,279 L124,284 L130,283 L131,282 L136,282 L146,289 L149,293 L150,304 L154,309 L156,310 L168,311 L174,318 L179,328 L176,337 L177,342 L178,346 L188,346 L191,349 L197,362 L196,369 L191,376 L192,390 L198,392 L203,397 L203,412 L199,418 L195,424 L195,433 L201,441 L202,447 L200,456 L198,460 L188,464 L185,468 L182,479 L185,486 L184,493 L179,501 L177,502 L165,503 L159,510 L159,522 L157,529 L150,535 L141,535 L140,534 L133,534 L126,540 L125,542 L124,552 L118,557 L110,561 L105,560 L100,556 L97,555 L87,558 L85,561 L83,569 L80,572 L75,574 L67,574 L62,571 L58,566 L55,565 L46,565 L39,574 L37,575 L27,575 L19,570 L15,565 L8,562 L3,561 L-5,568 L-14,567 L-23,562 L-25,559 L-26,552 L-31,548 L-35,547 L-41,551 L-47,551 L-54,547 L-58,542 L-59,533 L-63,527 L-67,524 L-81,523 L-87,516 L-90,511 L-89,499 L-96,490 L-106,488 L-110,484 L-115,469 L-177,469 L-179,470 L-214,471 L-224,467 L-232,460 L-242,453 L-249,452 L-289,453 L-294,453 L-296,455 L-295,459 L-287,464 L-276,473 L-268,483 L-261,494 L-258,502 L-255,513 L-255,528 L-258,543 L-263,555 L-272,567 L-277,573 L-285,578 L-290,582 L-298,587 L-311,590 L-317,592 L-330,592 L-343,589 L-364,580 L-375,572 L-382,565 L-387,556 L-390,550 L-394,543 L-397,531 L-397,521 L-394,502 L-386,486 L-377,475 L-369,469 L-367,469 L-365,465 L-356,459 L-341,454 L-339,450 L-343,437 L-351,421 L-357,408 L-361,398 L-365,390 L-369,381 L-377,365 L-381,356 L-388,342 L-394,326 L-403,309 L-408,297 L-409,293 L-403,284 L-398,279 L-390,270 L-386,268 L-356,266 L-329,265 L-327,260 L-327,235 L-326,210 L-323,207 L-304,206 L-299,211 L-298,236 L-298,249 L-297,263 L-279,263 L-227,260 L-151,257 L-140,257 L-137,259 L-132,258 L-122,247 L-119,242 L-111,232 L-108,225 L-109,220 L-119,213 L-124,210 L-133,204 L-136,199 L-135,193 L-130,188 L-124,187 L-117,191 L-108,198 L-103,199 L-96,194 L-93,193 L-77,191 L-66,189 L-42,188 L-31,186 L-29,180 L-27,159 L-24,146 L-16,130 L-10,121 L-1,115 L1,106 L-3,102 L-9,99 L-13,94 L-20,79 L-23,69 L-27,60 L-34,60 L-36,61 L-48,61 L-52,59 L-52,52 L-43,44 L-35,41 L-28,39 L-24,35 L-19,23 L-14,13 L-12,8 L-4,1 Z M-73,216 L-75,217 L-74,222 L-65,228 L-57,234 L-51,240 L-51,247 L-56,252 L-63,252 L-77,243 L-83,238 L-89,238 L-98,249 L-106,260 L-109,265 L-108,270 L-99,274 L-82,281 L-62,288 L-54,288 L-44,280 L-32,269 L-27,264 L-23,255 L-23,249 L-27,245 L-29,235 L-26,223 L-28,221 L-46,221 L-58,222 L-66,220 Z " fill="#000000" transform="translate(697,229)"/>
<path d="M0,0 L3,0 L2,5 L-7,15 L-15,25 L-24,34 L-29,39 L-40,50 L-45,55 L-56,67 L-83,94 L-84,96 L-86,96 L-88,100 L-90,103 L-92,103 L-94,107 L-111,124 L-113,124 L-115,128 L-122,136 L-130,143 L-137,151 L-145,159 L-152,167 L-163,178 L-170,186 L-184,200 L-188,205 L-194,210 L-201,218 L-217,234 L-224,242 L-232,250 L-239,258 L-243,263 L-251,270 L-265,284 L-269,289 L-276,303 L-278,314 L-278,324 L-276,335 L-270,345 L-263,354 L-248,368 L-240,375 L-230,385 L-219,394 L-214,400 L-206,407 L-196,417 L-188,424 L-173,438 L-166,445 L-161,449 L-156,454 L-145,465 L-137,472 L-127,482 L-119,489 L-112,496 L-104,503 L-95,512 L-87,519 L-77,529 L-69,536 L-56,548 L-50,553 L-45,558 L-29,573 L-14,587 L-14,589 L-10,591 L2,602 L7,606 L7,608 L11,610 L20,619 L28,626 L42,639 L42,641 L46,643 L56,652 L75,671 L80,676 L93,688 L107,701 L115,708 L127,719 L142,733 L150,740 L158,748 L165,753 L172,761 L184,772 L190,777 L190,779 L194,781 L203,789 L203,791 L207,793 L217,802 L233,817 L244,826 L250,833 L261,842 L271,851 L284,857 L300,860 L312,858 L321,855 L330,850 L338,842 L343,837 L348,831 L353,827 L360,819 L366,812 L368,812 L370,808 L385,793 L390,787 L392,787 L394,783 L408,769 L415,761 L424,752 L433,741 L453,721 L460,713 L472,701 L479,693 L499,673 L506,665 L513,658 L520,650 L530,640 L537,632 L544,625 L551,617 L567,600 L572,595 L583,583 L592,574 L599,566 L601,566 L603,562 L623,542 L629,535 L634,530 L641,523 L648,515 L659,503 L680,482 L681,480 L684,480 L684,488 L679,493 L656,516 L649,524 L640,534 L635,538 L628,546 L620,555 L614,560 L607,568 L590,585 L585,591 L581,595 L576,600 L562,615 L547,631 L532,646 L525,654 L514,666 L505,675 L499,682 L494,687 L484,697 L477,705 L462,720 L457,725 L446,737 L432,752 L417,768 L411,775 L404,781 L402,784 L400,784 L399,787 L394,792 L386,800 L379,808 L374,813 L367,820 L360,828 L351,838 L349,838 L347,842 L336,853 L334,853 L334,855 L328,859 L311,865 L296,866 L283,864 L269,857 L256,846 L245,835 L237,829 L224,817 L219,812 L207,801 L196,791 L188,784 L176,772 L168,765 L161,758 L151,750 L146,745 L134,733 L126,726 L112,713 L101,704 L101,702 L97,700 L89,693 L89,691 L85,689 L74,679 L67,671 L58,662 L53,657 L38,643 L33,639 L29,635 L21,628 L11,619 L6,614 L-10,599 L-13,597 L-13,595 L-17,593 L-29,581 L-40,572 L-44,567 L-55,558 L-64,549 L-72,542 L-80,534 L-88,527 L-95,520 L-103,513 L-113,504 L-113,502 L-115,502 L-120,497 L-127,490 L-135,483 L-140,478 L-155,463 L-160,459 L-165,454 L-173,447 L-183,437 L-188,432 L-198,423 L-208,414 L-215,407 L-220,403 L-224,398 L-235,389 L-251,373 L-253,372 L-253,370 L-255,370 L-260,365 L-269,356 L-274,351 L-280,339 L-283,335 L-285,325 L-284,306 L-279,293 L-271,281 L-241,251 L-234,243 L-225,233 L-220,228 L-215,224 L-208,216 L-191,199 L-184,191 L-179,186 L-173,181 L-164,170 L-157,164 L-150,156 L-145,150 L-140,145 L-124,129 L-118,122 L-110,115 L-105,110 L-100,103 L-95,99 L-88,91 L-76,78 L-68,71 L-61,63 L-56,58 L-51,53 L-49,53 L-47,48 L-38,40 L-31,32 L-24,24 L-18,19 L-11,11 Z " fill="#000000" transform="translate(321,291)"/>
</svg>
