<?xml version="1.0" encoding="UTF-8"?>
<!-- Generator: visioncortex VTracer 0.6.12 -->
<svg version="1.1" xmlns="http://www.w3.org/2000/svg" width="1107" height="984">
<path d="M0,0 L79,0 L80,2 L88,6 L94,14 L98,21 L104,30 L112,43 L120,57 L126,66 L135,83 L140,91 L148,107 L160,126 L170,144 L178,158 L188,174 L192,182 L196,188 L200,196 L206,206 L210,212 L213,218 L216,223 L225,240 L230,246 L239,263 L245,274 L250,281 L256,292 L262,302 L274,324 L287,347 L298,366 L303,376 L311,392 L315,399 L322,413 L327,421 L331,429 L338,437 L343,447 L348,454 L353,466 L360,476 L367,490 L372,499 L378,510 L385,520 L393,536 L401,549 L409,564 L413,569 L417,580 L422,586 L425,593 L430,602 L437,612 L441,621 L449,634 L455,646 L455,653 L461,659 L464,664 L465,667 L468,668 L472,676 L475,687 L478,690 L483,701 L486,704 L492,715 L495,719 L495,721 L497,721 L501,729 L504,738 L507,739 L514,753 L519,760 L527,776 L531,781 L535,791 L540,796 L544,804 L543,813 L545,816 L551,819 L557,828 L558,834 L561,835 L567,845 L570,852 L572,853 L580,870 L585,877 L589,885 L589,957 L581,967 L579,967 L577,971 L572,977 L566,981 L563,984 L-485,984 L-490,981 L-495,978 L-506,971 L-515,960 L-516,956 L-518,956 L-518,879 L-509,868 L-503,857 L-498,850 L-490,833 L-480,818 L-472,804 L-468,799 L-465,792 L-460,784 L-454,772 L-450,767 L-444,757 L-440,749 L-433,738 L-427,726 L-421,722 L-418,712 L-413,702 L-409,697 L-404,687 L-397,675 L-392,667 L-384,654 L-377,640 L-370,627 L-366,622 L-362,613 L-354,601 L-348,590 L-345,586 L-340,577 L-328,556 L-318,537 L-315,533 L-309,522 L-306,518 L-301,508 L-294,497 L-289,488 L-281,473 L-273,461 L-268,453 L-263,443 L-256,430 L-249,420 L-246,413 L-243,409 L-238,400 L-230,386 L-223,375 L-219,369 L-209,350 L-202,339 L-196,329 L-192,321 L-189,318 L-184,308 L-180,303 L-175,290 L-171,286 L-167,276 L-158,262 L-150,249 L-144,238 L-136,222 L-128,208 L-121,198 L-117,191 L-114,183 L-106,172 L-98,157 L-93,149 L-89,143 L-86,140 L-82,130 L-70,109 L-64,99 L-58,91 L-51,77 L-42,63 L-34,49 L-27,37 L-24,31 L-18,22 L-8,8 L-1,2 Z M37,129 L28,136 L23,146 L19,152 L15,160 L8,172 L4,178 L-4,194 L-7,200 L-13,210 L-23,228 L-26,232 L-32,243 L-41,258 L-47,267 L-55,283 L-68,304 L-74,315 L-80,323 L-87,337 L-92,345 L-101,359 L-105,367 L-112,379 L-118,389 L-127,404 L-131,410 L-135,418 L-141,426 L-145,435 L-152,447 L-155,453 L-161,462 L-170,477 L-179,497 L-185,506 L-195,523 L-200,531 L-207,545 L-217,562 L-224,572 L-232,588 L-239,601 L-242,604 L-246,612 L-249,617 L-259,636 L-269,652 L-274,661 L-278,669 L-284,678 L-287,684 L-293,694 L-304,712 L-311,725 L-317,734 L-322,744 L-334,765 L-338,771 L-341,775 L-347,786 L-355,799 L-362,811 L-368,822 L-374,829 L-379,839 L-383,844 L-393,863 L-401,876 L-402,879 L-402,886 L-398,891 L-383,892 L-376,893 L-347,892 L-331,893 L-304,893 L-297,894 L-291,892 L-249,892 L-224,891 L-213,892 L-189,891 L-175,892 L-51,892 L-44,891 L-39,892 L-8,893 L-1,894 L11,893 L67,892 L84,892 L90,893 L126,893 L150,894 L156,893 L164,894 L168,892 L176,893 L180,894 L183,893 L196,893 L224,892 L269,894 L298,894 L317,893 L357,894 L436,893 L459,893 L469,892 L473,889 L472,878 L469,870 L462,859 L455,845 L446,829 L440,819 L435,811 L432,804 L426,796 L419,782 L414,774 L410,766 L405,760 L400,748 L397,742 L391,734 L388,728 L382,718 L374,701 L368,691 L359,676 L356,671 L354,671 L352,665 L345,651 L342,647 L337,638 L331,629 L323,611 L316,602 L313,596 L309,590 L304,578 L294,562 L290,553 L287,547 L279,536 L271,520 L268,514 L264,509 L257,495 L251,486 L246,477 L242,471 L235,457 L231,452 L223,436 L218,429 L210,413 L200,394 L196,388 L189,377 L179,358 L173,347 L166,336 L161,326 L155,317 L151,310 L147,305 L141,293 L131,276 L126,268 L120,257 L114,247 L106,234 L96,216 L90,205 L84,194 L78,185 L73,176 L67,165 L61,154 L48,135 L41,129 Z M316,529 L316,531 L321,533 L328,541 L331,540 L330,535 L326,530 L324,529 Z M309,533 L307,535 L307,540 L312,539 L312,533 Z M311,546 L311,549 L313,550 L320,550 L321,547 L319,546 Z M282,966 L281,969 L286,968 L286,966 Z M414,974 L415,976 Z M274,977 L273,981 L276,981 L276,977 Z " fill="#000000" transform="translate(518,0)"/>
<path d="M0,0 L6,0 L14,4 L22,9 L38,17 L46,22 L61,31 L77,39 L91,47 L100,52 L107,56 L124,64 L140,72 L166,84 L172,88 L188,96 L196,101 L218,113 L228,117 L239,123 L248,130 L264,139 L275,151 L286,169 L289,182 L290,185 L289,208 L285,224 L280,233 L272,248 L263,259 L252,266 L242,273 L236,275 L220,277 L217,279 L203,281 L192,281 L176,282 L145,284 L105,285 L69,287 L46,287 L34,286 L24,284 L15,288 L11,289 L10,292 L14,294 L21,300 L29,304 L38,307 L48,313 L63,319 L67,322 L78,328 L108,344 L122,352 L145,363 L152,367 L167,375 L183,385 L191,395 L192,396 L191,403 L185,415 L173,437 L167,448 L161,459 L154,471 L153,472 L147,472 L128,462 L120,458 L110,453 L94,445 L78,437 L68,431 L60,428 L44,419 L28,411 L6,403 L0,399 L-6,394 L-22,387 L-31,381 L-40,375 L-50,371 L-59,367 L-65,364 L-74,357 L-90,349 L-101,343 L-106,339 L-115,333 L-124,326 L-129,320 L-132,315 L-138,307 L-139,303 L-141,303 L-147,294 L-149,282 L-149,266 L-145,253 L-143,243 L-139,235 L-130,221 L-125,216 L-119,211 L-107,206 L-95,201 L-79,198 L-63,195 L42,191 L76,189 L115,188 L131,187 L136,184 L136,177 L133,171 L119,162 L100,152 L88,147 L78,141 L64,135 L54,131 L42,125 L32,117 L12,107 L2,102 L-14,94 L-23,91 L-38,83 L-40,81 L-39,73 L-27,51 L-19,35 L-11,21 L-8,14 L-2,2 Z " fill="#000000" transform="translate(471,391)"/>
</svg>
