<?xml version="1.0" encoding="UTF-8"?>
<!-- Generator: visioncortex VTracer 0.6.12 -->
<svg version="1.1" xmlns="http://www.w3.org/2000/svg" width="1059" height="1086">
<path d="M0,0 L25,0 L25,6 L2,6 L-1,5 Z " fill="#000000" transform="translate(1034,37)"/>
<path d="M0,0 L15,1 L16,5 L11,6 L-70,8 L-93,8 L-150,9 L-170,9 L-193,10 L-222,10 L-267,11 L-325,12 L-384,12 L-455,14 L-484,14 L-554,15 L-604,15 L-618,16 L-663,16 L-699,17 L-716,17 L-763,18 L-783,18 L-861,20 L-876,21 L-902,21 L-923,24 L-937,31 L-950,41 L-958,52 L-963,62 L-966,72 L-966,96 L-963,108 L-957,120 L-951,130 L-945,139 L-937,153 L-932,160 L-927,170 L-920,180 L-914,191 L-908,201 L-899,216 L-893,226 L-884,240 L-878,251 L-872,261 L-862,277 L-852,293 L-842,310 L-833,324 L-829,331 L-821,343 L-816,352 L-809,363 L-804,373 L-798,383 L-791,393 L-785,404 L-775,420 L-768,431 L-761,442 L-756,451 L-747,466 L-736,484 L-725,502 L-719,513 L-708,530 L-701,541 L-695,552 L-685,568 L-676,583 L-668,597 L-664,604 L-659,613 L-655,618 L-648,632 L-636,652 L-629,663 L-624,672 L-613,690 L-606,701 L-597,717 L-590,727 L-585,736 L-573,756 L-572,762 L-568,764 L-561,775 L-549,795 L-538,813 L-531,824 L-520,842 L-513,853 L-504,868 L-495,883 L-484,901 L-476,913 L-472,920 L-467,927 L-463,935 L-457,944 L-445,964 L-437,977 L-429,988 L-419,996 L-403,1004 L-397,1006 L-390,1007 L-370,1007 L-355,1003 L-344,997 L-333,988 L-324,976 L-315,961 L-309,950 L-304,941 L-298,930 L-292,920 L-287,910 L-281,900 L-273,886 L-267,875 L-254,853 L-249,845 L-243,834 L-234,818 L-228,807 L-215,785 L-204,766 L-199,757 L-191,742 L-184,730 L-175,714 L-170,705 L-165,697 L-159,686 L-144,661 L-139,651 L-130,635 L-120,617 L-109,598 L-98,579 L-88,562 L-81,550 L-75,539 L-64,519 L-60,513 L-53,499 L-48,492 L-42,480 L-36,470 L-30,460 L-24,449 L-18,439 L-14,431 L-7,419 L-4,411 L1,402 L8,390 L15,377 L18,373 L26,357 L33,346 L39,335 L47,321 L49,321 L49,334 L43,343 L36,355 L24,377 L17,388 L13,396 L5,410 L-3,426 L-7,434 L-11,441 L-19,455 L-25,466 L-35,484 L-45,501 L-53,516 L-60,528 L-66,539 L-75,554 L-81,565 L-89,579 L-94,586 L-101,600 L-106,608 L-110,616 L-117,627 L-122,637 L-131,653 L-140,669 L-151,688 L-155,695 L-168,718 L-178,736 L-182,743 L-188,753 L-192,761 L-199,772 L-204,781 L-210,792 L-217,803 L-224,817 L-233,832 L-240,844 L-247,856 L-253,867 L-261,881 L-265,887 L-271,899 L-279,912 L-286,926 L-291,934 L-299,948 L-304,956 L-310,968 L-315,976 L-321,985 L-333,998 L-341,1004 L-354,1011 L-366,1014 L-376,1015 L-388,1015 L-403,1012 L-416,1006 L-426,1000 L-437,990 L-446,976 L-450,970 L-454,963 L-467,942 L-479,922 L-490,905 L-499,889 L-508,875 L-514,865 L-521,853 L-530,840 L-533,834 L-537,827 L-544,816 L-561,788 L-572,769 L-574,765 L-574,762 L-578,760 L-585,749 L-592,737 L-606,714 L-614,702 L-620,691 L-630,675 L-638,662 L-644,652 L-650,642 L-657,629 L-660,624 L-665,615 L-671,605 L-682,587 L-690,573 L-696,564 L-709,543 L-717,529 L-722,522 L-727,513 L-733,503 L-740,492 L-746,483 L-750,475 L-758,463 L-763,454 L-773,437 L-777,430 L-782,423 L-787,414 L-800,394 L-812,373 L-822,356 L-831,341 L-837,331 L-842,325 L-847,315 L-861,292 L-868,281 L-876,268 L-884,256 L-890,245 L-896,235 L-901,226 L-909,213 L-918,199 L-925,187 L-934,172 L-945,154 L-952,142 L-962,127 L-970,111 L-974,98 L-974,73 L-971,62 L-963,46 L-956,37 L-949,30 L-933,20 L-922,16 L-911,14 L-877,13 L-829,12 L-780,11 L-677,10 L-647,9 L-614,9 L-605,8 L-593,9 L-496,7 L-427,7 L-396,6 L-358,6 L-345,5 L-319,5 L-183,3 L-179,4 L-175,3 L-131,2 L-106,2 L-97,1 L-18,1 Z " fill="#000000" transform="translate(1010,37)"/>
<path d="M0,0 L30,0 L30,256 L24,265 L19,275 L13,285 L7,295 L-1,311 L-9,324 L-19,342 L-27,358 L-35,372 L-40,382 L-48,396 L-55,409 L-67,431 L-71,438 L-76,447 L-83,459 L-89,470 L-98,486 L-101,492 L-110,506 L-116,518 L-125,532 L-130,542 L-138,555 L-142,563 L-151,579 L-157,589 L-160,596 L-166,605 L-175,622 L-185,639 L-194,655 L-200,666 L-209,681 L-215,692 L-224,708 L-231,722 L-238,733 L-246,748 L-257,768 L-261,775 L-268,787 L-271,793 L-277,802 L-283,814 L-292,829 L-303,849 L-308,856 L-316,872 L-328,891 L-334,903 L-344,919 L-349,929 L-358,944 L-362,949 L-369,957 L-381,964 L-390,966 L-409,966 L-422,961 L-433,952 L-440,942 L-446,932 L-454,919 L-457,914 L-465,900 L-471,891 L-481,874 L-486,866 L-490,859 L-503,838 L-509,828 L-516,817 L-529,796 L-534,789 L-538,781 L-546,769 L-551,760 L-558,750 L-562,742 L-571,728 L-575,720 L-582,710 L-588,699 L-594,690 L-600,679 L-607,668 L-614,657 L-620,647 L-632,627 L-643,609 L-650,598 L-658,584 L-663,576 L-672,561 L-675,554 L-686,536 L-701,513 L-707,503 L-712,494 L-719,482 L-729,465 L-738,451 L-746,437 L-756,421 L-760,414 L-771,396 L-774,390 L-780,381 L-784,374 L-789,366 L-799,349 L-807,336 L-811,329 L-822,311 L-830,298 L-836,288 L-841,280 L-847,271 L-856,255 L-862,246 L-867,239 L-873,228 L-879,219 L-882,213 L-891,198 L-897,189 L-905,175 L-917,156 L-926,141 L-934,127 L-951,101 L-959,87 L-964,76 L-966,70 L-967,55 L-963,39 L-958,31 L-955,30 L-953,26 L-943,18 L-934,14 L-890,14 L-871,13 L-807,13 L-768,12 L-746,12 L-737,11 L-688,11 L-649,10 L-614,10 L-576,9 L-555,8 L-520,8 L-462,7 L-425,7 L-419,6 L-384,6 L-361,5 L-315,5 L-233,4 L-190,4 L-187,3 L-121,2 L-98,2 L-29,1 Z M-723,14 L-727,18 L-726,21 L-720,20 L-717,17 L-717,14 Z M-238,181 L-275,182 L-326,182 L-369,183 L-394,184 L-477,185 L-526,186 L-557,187 L-590,187 L-629,189 L-643,196 L-654,209 L-657,220 L-657,237 L-653,246 L-645,260 L-638,271 L-624,295 L-614,312 L-607,323 L-595,342 L-590,351 L-583,361 L-578,371 L-574,376 L-569,386 L-563,395 L-556,407 L-547,421 L-543,428 L-534,444 L-528,453 L-520,466 L-515,475 L-508,486 L-502,497 L-493,512 L-483,528 L-476,540 L-467,553 L-458,569 L-449,584 L-444,591 L-440,598 L-434,606 L-431,611 L-424,613 L-416,617 L-408,619 L-397,619 L-388,616 L-375,608 L-369,600 L-362,589 L-347,562 L-335,541 L-330,533 L-324,522 L-310,497 L-300,479 L-294,469 L-287,455 L-280,444 L-269,424 L-264,417 L-260,409 L-253,396 L-247,385 L-238,370 L-226,348 L-215,328 L-208,318 L-200,302 L-195,294 L-189,283 L-181,269 L-172,252 L-164,237 L-162,231 L-161,224 L-161,215 L-164,205 L-170,195 L-180,186 L-189,182 L-194,181 Z " fill="#000000" transform="translate(1029,61)"/>
<path d="M0,0 L28,0 L38,4 L47,13 L51,19 L55,37 L55,67 L53,79 L50,88 L44,97 L30,106 L0,106 L-3,103 L-4,101 L-5,79 L-6,14 L-5,5 Z M16,18 L13,21 L13,62 L14,82 L16,87 L17,88 L26,88 L32,84 L36,77 L37,72 L37,40 L36,30 L31,22 L27,18 Z " fill="#000000" transform="translate(722,305)"/>
<path d="M0,0 L7,1 L11,5 L12,16 L13,87 L16,89 L42,89 L48,92 L50,96 L50,103 L47,106 L43,107 L-1,108 L-4,106 L-6,100 L-7,12 L-6,4 L-3,1 Z " fill="#000000" transform="translate(651,307)"/>
<path d="M0,0 L33,0 L39,4 L40,13 L38,17 L29,19 L8,20 L4,22 L4,35 L6,39 L10,40 L18,40 L23,44 L24,47 L24,54 L21,59 L19,60 L6,61 L5,62 L5,85 L7,88 L36,88 L42,91 L43,93 L43,102 L39,106 L32,107 L-10,107 L-14,104 L-15,82 L-16,26 L-16,7 L-13,2 L-11,1 Z " fill="#000000" transform="translate(587,309)"/>
<path d="M0,0 L6,1 L9,5 L10,8 L10,100 L7,106 L1,108 L-6,106 L-8,103 L-9,22 L-8,5 L-4,1 Z " fill="#000000" transform="translate(539,310)"/>
<path d="M0,0 L9,0 L13,4 L12,12 L4,29 L-1,41 L-6,52 L-8,60 L-9,71 L-9,99 L-12,106 L-16,108 L-24,107 L-27,103 L-28,76 L-28,61 L-33,48 L-40,33 L-48,15 L-51,10 L-51,4 L-49,1 L-35,1 L-31,7 L-22,26 L-21,30 L-17,30 L-13,20 L-4,3 Z " fill="#000000" transform="translate(502,311)"/>
</svg>
