<?xml version="1.0" encoding="UTF-8"?>
<!-- Generator: visioncortex VTracer 0.6.12 -->
<svg version="1.1" xmlns="http://www.w3.org/2000/svg" width="1122" height="993">
<path d="M0,0 L60,0 L76,12 L81,18 L86,23 L89,28 L95,39 L98,44 L105,56 L114,73 L119,80 L126,94 L134,109 L140,116 L144,126 L152,140 L157,149 L160,152 L165,164 L167,168 L171,172 L179,188 L183,193 L185,202 L187,202 L190,207 L193,211 L200,225 L206,233 L213,247 L215,253 L217,253 L224,267 L228,272 L232,281 L238,290 L242,299 L245,303 L245,305 L248,306 L254,318 L256,321 L257,327 L261,331 L263,338 L265,338 L275,356 L279,363 L282,367 L287,377 L287,379 L289,379 L300,398 L305,407 L311,419 L316,427 L320,434 L326,443 L331,456 L336,464 L342,474 L347,482 L351,490 L353,494 L356,497 L362,508 L365,515 L369,520 L373,526 L381,541 L385,550 L388,554 L392,562 L395,566 L395,568 L397,568 L402,578 L405,584 L410,591 L417,607 L419,611 L421,611 L425,619 L431,629 L438,643 L447,658 L452,665 L452,667 L454,667 L461,681 L466,689 L476,706 L480,717 L488,728 L493,738 L498,744 L504,758 L512,771 L519,788 L526,798 L531,808 L539,822 L544,830 L551,841 L555,854 L557,859 L559,859 L566,872 L569,876 L569,878 L571,878 L579,895 L584,905 L586,913 L586,945 L581,957 L574,968 L566,977 L553,986 L547,989 L536,993 L-451,993 L-458,992 L-467,991 L-483,988 L-499,980 L-508,974 L-515,966 L-520,961 L-527,950 L-530,940 L-531,939 L-531,897 L-524,883 L-521,879 L-517,869 L-511,859 L-507,854 L-501,843 L-496,833 L-492,825 L-489,822 L-484,810 L-479,803 L-473,792 L-465,779 L-458,767 L-454,757 L-447,747 L-444,742 L-441,735 L-440,733 L-438,733 L-436,727 L-430,717 L-421,701 L-418,695 L-412,685 L-406,673 L-400,663 L-395,655 L-392,650 L-385,638 L-383,638 L-380,629 L-375,622 L-369,608 L-362,598 L-357,592 L-351,581 L-342,564 L-339,558 L-334,550 L-326,536 L-322,528 L-317,523 L-310,509 L-304,502 L-299,494 L-296,487 L-288,473 L-282,466 L-277,452 L-271,445 L-266,435 L-263,433 L-258,421 L-249,407 L-245,400 L-241,394 L-237,386 L-231,378 L-228,371 L-219,357 L-211,342 L-209,342 L-207,337 L-202,324 L-196,316 L-190,306 L-183,292 L-181,287 L-179,287 L-178,283 L-176,283 L-174,277 L-170,269 L-165,263 L-160,252 L-153,242 L-146,228 L-141,223 L-132,203 L-127,191 L-125,191 L-124,187 L-122,187 L-119,177 L-115,169 L-108,158 L-101,148 L-97,138 L-91,128 L-82,112 L-75,100 L-72,94 L-66,86 L-61,76 L-56,68 L-51,59 L-49,55 L-47,55 L-45,50 L-41,43 L-31,28 L-26,22 L-18,12 L-7,4 L-1,1 Z M18,138 L10,146 L5,155 L-2,167 L-6,174 L-9,179 L-15,189 L-22,203 L-24,208 L-26,209 L-26,211 L-28,211 L-41,236 L-48,247 L-55,260 L-58,268 L-62,272 L-68,284 L-74,291 L-78,301 L-83,307 L-90,321 L-94,326 L-102,342 L-107,350 L-112,359 L-116,365 L-122,377 L-122,379 L-125,380 L-131,392 L-131,395 L-133,395 L-140,409 L-143,415 L-146,418 L-153,432 L-163,448 L-169,457 L-174,466 L-178,470 L-186,489 L-191,495 L-198,508 L-202,514 L-206,522 L-211,530 L-216,540 L-222,548 L-229,561 L-230,564 L-232,564 L-240,580 L-245,587 L-249,596 L-254,602 L-258,612 L-264,622 L-270,632 L-277,644 L-282,654 L-286,659 L-289,665 L-293,673 L-293,675 L-295,675 L-303,690 L-308,697 L-314,710 L-314,712 L-317,713 L-317,715 L-319,715 L-325,729 L-332,737 L-335,748 L-338,749 L-342,758 L-348,769 L-352,773 L-357,785 L-362,790 L-370,806 L-377,817 L-383,831 L-386,835 L-390,842 L-398,855 L-401,861 L-401,863 L-403,863 L-407,870 L-410,878 L-410,884 L-407,888 L-399,891 L-391,892 L-357,893 L-311,893 L-223,894 L-132,894 L-80,895 L-30,896 L39,896 L109,897 L144,898 L176,897 L358,896 L411,896 L434,895 L449,893 L460,889 L463,886 L463,879 L454,862 L446,850 L442,840 L435,829 L429,820 L427,815 L425,815 L423,809 L417,800 L414,796 L410,784 L402,771 L396,760 L394,760 L392,754 L387,744 L383,742 L381,735 L373,720 L361,699 L355,688 L351,684 L342,668 L338,661 L334,650 L332,650 L330,645 L325,636 L317,623 L313,616 L311,614 L309,608 L303,598 L297,589 L289,571 L285,568 L277,552 L269,538 L265,530 L262,525 L256,515 L250,506 L243,494 L235,479 L231,473 L228,468 L225,463 L220,453 L216,448 L211,438 L206,430 L205,428 L203,428 L201,423 L193,407 L190,403 L188,403 L185,393 L177,382 L172,370 L168,365 L165,360 L160,348 L158,348 L156,341 L151,331 L144,321 L136,306 L130,295 L125,287 L118,275 L111,263 L107,254 L102,245 L97,238 L94,231 L87,220 L83,211 L82,209 L80,209 L79,205 L75,200 L70,190 L67,185 L62,172 L53,156 L46,144 L44,142 L37,139 L35,138 Z " fill="#000000" transform="translate(531,0)"/>
<path d="M0,0 L15,0 L24,1 L31,7 L29,12 L26,16 L19,31 L17,40 L15,43 L10,46 L2,61 L-2,62 L-4,66 L-6,78 L-12,86 L-13,91 L-15,102 L-18,106 L-23,108 L-26,115 L-30,120 L-37,120 L-44,121 L-50,118 L-51,115 L-47,105 L-39,93 L-34,80 L-30,77 L-25,67 L-20,57 L-16,54 L-12,41 L-9,36 L-8,29 L-10,23 L-17,18 L-20,15 L-21,10 L-16,6 Z " fill="#000000" transform="translate(466,403)"/>
<path d="M0,0 L13,1 L25,6 L35,15 L37,20 L37,28 L39,37 L40,39 L40,47 L37,54 L27,58 L23,60 L16,59 L15,58 L16,51 L20,42 L23,39 L24,34 L26,38 L29,38 L30,36 L30,27 L26,28 L23,30 L17,28 L0,28 L-2,30 L-11,33 L-14,38 L-16,45 L-22,56 L-26,63 L-28,69 L-32,74 L-37,85 L-41,90 L-46,93 L-51,105 L-58,103 L-65,98 L-66,96 L-66,88 L-57,69 L-53,63 L-47,60 L-44,48 L-41,45 L-39,45 L-37,40 L-33,33 L-30,28 L-26,16 L-23,11 L-21,11 L-21,9 L-11,3 Z " fill="#000000" transform="translate(529,431)"/>
<path d="M0,0 L11,0 L18,1 L22,6 L20,12 L16,17 L12,21 L5,30 L2,31 L0,34 L-2,41 L-5,43 L-7,53 L-9,56 L-6,58 L-6,60 L-4,60 L-1,64 L-1,69 L-3,71 L-13,72 L-21,72 L-30,69 L-31,65 L-22,58 L-18,54 L-16,54 L-15,44 L-10,39 L-7,29 L-6,18 L-8,11 L-9,10 L-9,5 Z " fill="#000000" transform="translate(635,475)"/>
<path d="M0,0 L2,0 L3,12 L0,19 L-3,22 L-6,31 L-16,45 L-19,52 L-22,53 L-24,61 L-31,70 L-36,74 L-42,77 L-47,78 L-61,78 L-69,76 L-75,72 L-83,65 L-85,61 L-85,56 L-78,53 L-59,53 L-54,54 L-47,52 L-42,52 L-41,49 L-37,46 L-33,35 L-31,32 L-29,32 L-27,27 L-26,20 L-17,10 L-14,9 L-9,2 L-5,7 L-3,7 Z " fill="#000000" transform="translate(552,492)"/>
<path d="M0,0 L14,1 L21,4 L33,12 L49,21 L57,26 L65,30 L85,41 L97,48 L109,55 L124,64 L140,72 L149,77 L163,85 L172,89 L179,91 L192,93 L192,95 L194,95 L197,102 L207,109 L213,112 L228,122 L238,128 L259,138 L273,146 L285,153 L298,161 L308,166 L317,172 L324,175 L342,186 L359,195 L370,202 L381,208 L391,213 L401,219 L420,229 L425,233 L441,241 L448,245 L459,251 L468,257 L476,261 L490,269 L498,274 L510,281 L518,285 L531,292 L545,301 L561,309 L561,311 L566,313 L576,318 L578,323 L570,327 L564,328 L511,328 L461,327 L375,326 L347,325 L225,323 L206,322 L170,321 L108,320 L72,319 L-91,317 L-161,315 L-175,314 L-184,312 L-189,308 L-189,302 L-181,286 L-176,280 L-167,266 L-162,256 L-156,248 L-150,236 L-144,228 L-138,217 L-135,214 L-129,202 L-121,192 L-115,180 L-106,163 L-100,156 L-96,146 L-89,137 L-85,128 L-83,125 L-81,125 L-79,119 L-73,110 L-69,104 L-62,90 L-58,84 L-53,74 L-50,69 L-47,66 L-41,55 L-37,47 L-30,37 L-24,28 L-20,18 L-10,4 Z " fill="#000000" transform="translate(370,539)"/>
<path d="M0,0 L3,1 L3,3 L0,2 Z " fill="#000000" transform="translate(465,540)"/>
<path d="M0,0 L16,1 L21,4 L20,8 L11,15 L8,15 L7,23 L5,29 L0,32 L-1,31 L-2,15 L-5,9 L-6,5 Z " fill="#000000" transform="translate(669,595)"/>
<path d="M0,0 L10,0 L16,4 L19,8 L18,14 L14,16 L-5,15 L-10,12 L-8,7 L-3,4 Z " fill="#000000" transform="translate(650,650)"/>
</svg>
