<?xml version="1.0" encoding="UTF-8"?>
<!-- Generator: visioncortex VTracer 0.6.12 -->
<svg version="1.1" xmlns="http://www.w3.org/2000/svg" width="837" height="957">
<path d="M0,0 L121,1 L182,1 L194,2 L206,2 L225,3 L251,3 L269,4 L421,4 L426,5 L539,5 L582,6 L660,6 L694,7 L804,7 L837,8 L837,18 L758,18 L726,17 L701,17 L636,16 L622,16 L619,13 L615,12 L613,16 L459,16 L454,15 L313,14 L215,13 L206,12 L101,12 L80,11 L14,11 L0,10 Z " fill="#000000" transform="translate(0,35)"/>
<path d="M0,0 L1,3 L-1,3 Z " fill="#000000" transform="translate(448,146)"/>
<path d="M0,0 L10,0 L24,2 L42,6 L57,14 L64,17 L77,28 L77,30 L81,32 L89,42 L94,46 L97,52 L101,59 L106,68 L108,77 L110,83 L112,99 L112,111 L110,118 L108,124 L106,141 L100,144 L100,153 L95,159 L92,166 L88,168 L80,178 L72,186 L57,196 L42,203 L35,205 L26,206 L19,208 L-8,208 L-21,205 L-33,201 L-50,192 L-61,183 L-69,176 L-81,159 L-88,146 L-95,142 L-107,141 L-123,141 L-150,140 L-181,139 L-188,134 L-196,121 L-200,112 L-200,110 L-206,110 L-217,118 L-223,127 L-229,132 L-234,130 L-244,111 L-245,108 L-252,109 L-259,115 L-267,130 L-272,134 L-276,132 L-281,124 L-284,117 L-290,107 L-293,105 L-297,106 L-302,110 L-304,110 L-306,115 L-314,126 L-317,130 L-321,129 L-324,124 L-331,111 L-336,106 L-342,107 L-351,116 L-354,125 L-360,130 L-364,128 L-371,117 L-379,99 L-381,96 L-380,89 L-371,74 L-364,62 L-357,55 L-333,55 L-325,56 L-292,56 L-271,57 L-245,57 L-220,58 L-177,59 L-154,59 L-141,60 L-91,60 L-85,55 L-77,43 L-71,35 L-63,28 L-55,21 L-45,14 L-27,6 L-22,4 L-10,1 Z M4,144 L-3,145 L-11,150 L-16,158 L-18,168 L-17,177 L-13,185 L-6,192 L3,194 L11,194 L21,189 L27,182 L30,171 L29,162 L25,154 L21,149 L11,144 Z " fill="#000000" transform="translate(530,209)"/>
<path d="M0,0 L7,0 L12,5 L13,10 L9,15 L3,18 L-3,16 L-6,11 L-5,4 Z " fill="#000000" transform="translate(530,435)"/>
<path d="M0,0 L10,0 L16,7 L15,11 L10,17 L1,18 L-4,13 L-3,4 Z " fill="#000000" transform="translate(528,464)"/>
<path d="M0,0 L6,1 L11,5 L12,11 L4,17 L-2,18 L-7,15 L-8,13 L-8,6 L-3,1 Z " fill="#000000" transform="translate(530,494)"/>
<path d="M0,0 L8,0 L13,3 L15,9 L11,14 L6,17 L-1,16 L-5,12 L-5,5 Z " fill="#000000" transform="translate(527,524)"/>
<path d="M0,0 L6,1 L11,6 L10,13 L7,17 L0,18 L-6,14 L-8,11 L-7,5 Z " fill="#000000" transform="translate(529,552)"/>
<path d="M0,0 L5,1 L10,6 L11,11 L6,17 L0,18 L-6,15 L-8,10 L-7,4 Z " fill="#000000" transform="translate(529,580)"/>
<path d="M0,0 L9,0 L25,2 L50,8 L71,16 L82,22 L94,30 L95,33 L99,35 L107,42 L112,47 L119,54 L124,60 L127,65 L130,68 L134,75 L138,81 L144,96 L147,105 L151,112 L152,121 L156,132 L156,168 L152,189 L149,195 L149,202 L145,210 L140,223 L134,232 L128,239 L124,245 L116,256 L107,265 L102,267 L100,271 L91,278 L81,285 L66,293 L56,298 L48,300 L39,303 L17,308 L8,308 L-1,309 L-21,308 L-28,306 L-41,304 L-63,296 L-72,290 L-80,286 L-89,279 L-93,274 L-101,268 L-112,257 L-122,244 L-128,235 L-133,226 L-137,219 L-141,206 L-146,189 L-149,170 L-149,139 L-144,114 L-140,101 L-134,86 L-125,70 L-116,58 L-105,46 L-93,34 L-78,24 L-67,17 L-53,10 L-34,4 L-22,2 L-19,1 Z M94,236 Z M93,237 Z " fill="#000000" transform="translate(524,614)"/>
</svg>
