<?xml version="1.0" encoding="UTF-8"?>
<!-- Generator: visioncortex VTracer 0.6.12 -->
<svg version="1.1" xmlns="http://www.w3.org/2000/svg" width="1122" height="1296">
<path d="M0,0 L23,0 L25,4 L24,14 L18,29 L14,41 L14,47 L18,52 L38,63 L47,69 L49,72 L49,77 L46,79 L17,79 L12,80 L12,100 L10,119 L5,132 L0,144 L-4,150 L-11,158 L-22,166 L-38,175 L-48,179 L-68,181 L-77,181 L-90,179 L-106,172 L-117,164 L-130,152 L-138,143 L-147,127 L-152,115 L-153,102 L-154,78 L-156,66 L-166,52 L-170,47 L-174,38 L-173,34 L-165,29 L-155,29 L-132,25 L-117,22 L-93,18 L-82,15 L-69,13 L-47,8 L-31,6 L-14,3 L-1,1 Z M-103,76 L-117,79 L-126,80 L-131,85 L-132,89 L-132,111 L-128,123 L-123,133 L-114,144 L-105,151 L-98,155 L-87,160 L-77,162 L-60,162 L-47,158 L-35,152 L-24,143 L-15,131 L-10,119 L-7,105 L-7,94 L-9,85 L-12,79 L-15,77 L-92,77 Z " fill="#000000" transform="translate(679,0)"/>
<path d="M0,0 L20,0 L57,9 L73,18 L85,24 L96,31 L108,41 L116,48 L131,64 L140,77 L151,97 L155,105 L161,120 L165,136 L168,155 L169,178 L167,200 L166,207 L166,223 L169,232 L176,243 L183,252 L191,263 L203,279 L209,289 L213,294 L221,304 L232,318 L238,326 L246,336 L256,349 L263,360 L274,376 L279,385 L279,387 L281,387 L285,394 L290,404 L297,414 L302,426 L308,444 L311,457 L310,469 L306,478 L302,483 L293,488 L290,489 L271,489 L262,486 L245,475 L237,464 L228,454 L220,447 L206,432 L206,430 L204,430 L197,422 L188,413 L183,408 L169,387 L161,377 L150,363 L148,359 L142,359 L141,360 L141,370 L150,387 L159,406 L166,420 L173,430 L177,443 L179,448 L181,456 L186,466 L194,482 L193,487 L186,492 L187,501 L191,509 L202,533 L207,544 L213,559 L221,575 L234,604 L242,620 L250,636 L255,648 L267,673 L275,691 L284,708 L288,718 L296,734 L302,747 L307,757 L311,766 L318,781 L323,793 L333,812 L340,828 L350,847 L354,856 L362,873 L372,892 L378,907 L387,923 L392,932 L396,937 L398,941 L398,947 L394,953 L387,959 L378,964 L362,972 L347,980 L330,988 L322,989 L316,985 L311,975 L306,967 L292,943 L278,916 L272,906 L268,899 L256,878 L251,870 L245,859 L233,836 L226,825 L213,801 L207,791 L203,781 L197,771 L188,754 L182,744 L170,722 L164,712 L157,701 L149,685 L137,665 L132,655 L126,645 L118,629 L112,621 L104,605 L95,590 L85,569 L78,559 L74,551 L73,550 L67,550 L63,556 L59,564 L52,574 L44,587 L36,601 L30,612 L17,634 L8,650 L2,660 L-2,666 L-7,676 L-19,695 L-27,710 L-30,714 L-36,725 L-48,745 L-58,763 L-67,777 L-78,795 L-85,809 L-93,822 L-98,831 L-108,848 L-115,860 L-123,873 L-130,887 L-134,892 L-139,902 L-145,911 L-153,925 L-166,947 L-172,956 L-175,962 L-182,972 L-187,978 L-189,979 L-197,979 L-205,975 L-216,968 L-224,963 L-234,955 L-246,950 L-265,938 L-273,934 L-277,927 L-276,920 L-266,905 L-255,884 L-251,874 L-248,868 L-242,859 L-236,847 L-231,835 L-224,825 L-213,802 L-201,780 L-192,763 L-183,744 L-175,728 L-164,708 L-153,685 L-147,673 L-141,661 L-131,643 L-120,620 L-115,610 L-111,601 L-106,591 L-102,583 L-94,567 L-88,556 L-78,535 L-70,519 L-60,497 L-59,491 L-60,488 L-63,487 L-70,487 L-71,486 L-70,478 L-67,471 L-54,447 L-52,443 L-52,440 L-56,441 L-62,448 L-64,454 L-67,459 L-69,459 L-71,463 L-76,471 L-78,471 L-80,475 L-85,480 L-89,483 L-91,483 L-91,485 L-99,491 L-116,499 L-127,502 L-140,502 L-147,498 L-156,491 L-159,486 L-160,476 L-157,469 L-148,454 L-143,442 L-137,430 L-130,416 L-127,408 L-126,398 L-125,363 L-124,209 L-122,201 L-114,185 L-107,175 L-101,163 L-92,150 L-86,139 L-78,123 L-72,114 L-66,103 L-57,89 L-53,84 L-48,74 L-40,61 L-28,41 L-16,22 L-11,14 L-5,2 Z M-16,203 L-22,211 L-34,228 L-39,238 L-40,293 L-40,361 L-39,388 L-41,396 L-43,409 L-49,423 L-49,429 L-45,429 L-39,419 L-33,406 L-27,394 L-21,384 L-17,374 L-12,365 L-11,360 L-10,340 L-8,335 L-2,332 L6,331 L112,332 L121,330 L122,325 L118,319 L111,310 L104,301 L99,298 L95,297 L70,296 L59,295 L24,295 L16,294 L3,294 L-6,295 L-8,294 L-10,286 L-10,206 L-12,203 Z M251,375 L237,383 L227,393 L221,397 L213,404 L211,408 L212,414 L220,423 L223,429 L228,434 L236,442 L245,449 L255,460 L269,468 L279,473 L285,473 L293,466 L296,463 L296,452 L293,440 L290,433 L286,423 L283,418 L280,409 L276,403 L271,394 L260,377 L257,375 Z M-96,405 L-103,408 L-111,419 L-115,429 L-123,445 L-128,457 L-135,467 L-139,475 L-139,480 L-135,483 L-121,483 L-104,474 L-93,465 L-93,463 L-89,461 L-81,452 L-75,443 L-67,427 L-63,413 L-64,408 L-68,406 L-78,405 Z M-42,686 L-44,687 L-44,690 L-40,689 L-41,686 Z " fill="#000000" transform="translate(542,190)"/>
<path d="M0,0 L23,0 L25,1 L34,0 L110,0 L261,1 L293,2 L415,2 L565,4 L663,5 L701,5 L756,6 L839,7 L901,8 L1009,9 L1016,10 L1062,10 L1064,11 L1064,17 L1061,18 L1017,17 L984,17 L901,16 L852,15 L770,14 L733,14 L594,12 L507,11 L409,10 L379,10 L340,9 L332,8 L319,9 L285,9 L63,7 L3,6 L-2,4 Z " fill="#000000" transform="translate(31,1253)"/>
</svg>
