<?xml version="1.0" encoding="UTF-8"?>
<!-- Generator: visioncortex VTracer 0.6.12 -->
<svg version="1.1" xmlns="http://www.w3.org/2000/svg" width="813" height="696">
<path d="M0,0 L7,0 L10,2 L13,14 L15,27 L17,49 L19,62 L21,87 L25,123 L28,150 L30,156 L35,164 L42,176 L49,187 L55,196 L63,209 L70,219 L78,232 L85,242 L94,255 L101,266 L108,277 L116,290 L123,301 L131,312 L138,322 L148,337 L159,353 L166,363 L176,380 L180,385 L187,396 L197,411 L203,419 L214,437 L218,443 L222,444 L227,441 L229,441 L231,436 L240,419 L244,410 L248,407 L254,405 L262,404 L307,404 L316,403 L364,402 L414,402 L461,401 L518,401 L522,405 L522,412 L520,423 L516,457 L512,474 L506,509 L502,531 L495,574 L491,599 L489,617 L486,627 L483,630 L478,631 L470,629 L221,632 L-5,636 L-26,636 L-43,637 L-77,638 L-123,638 L-129,635 L-130,634 L-137,634 L-143,637 L-152,639 L-159,639 L-162,638 L-171,638 L-176,639 L-200,640 L-265,640 L-265,414 L-253,413 L-213,412 L-192,411 L-164,411 L-159,416 L-154,432 L-144,445 L-138,450 L-132,449 L-124,434 L-113,411 L-103,392 L-97,380 L-89,364 L-83,352 L-75,336 L-68,322 L-58,303 L-46,278 L-38,262 L-30,246 L-22,230 L-19,223 L-11,209 L-6,197 L2,181 L9,164 L9,152 L3,93 L-2,50 L-6,17 L-6,5 L-3,1 Z M34,192 L33,193 L34,207 L35,215 L35,224 L37,241 L40,285 L46,336 L51,379 L52,396 L53,400 L54,418 L56,432 L58,452 L60,461 L63,466 L64,467 L88,468 L133,466 L182,466 L198,464 L208,460 L210,456 L204,444 L195,431 L185,416 L177,404 L164,384 L154,368 L140,347 L132,333 L124,323 L114,308 L108,299 L103,291 L99,284 L90,272 L83,260 L74,248 L70,240 L65,234 L62,228 L55,218 L44,201 L38,192 Z M9,194 L6,198 L-2,214 L-11,231 L-14,239 L-22,255 L-28,267 L-34,279 L-41,294 L-48,311 L-56,325 L-61,334 L-64,341 L-70,353 L-78,369 L-85,383 L-93,399 L-102,416 L-109,430 L-118,447 L-122,457 L-122,463 L-116,468 L-107,470 L-36,470 L7,469 L32,468 L38,466 L39,464 L39,441 L37,417 L36,393 L35,388 L33,355 L31,335 L28,314 L23,266 L20,234 L17,218 L16,198 L14,194 Z M-234,447 L-239,451 L-238,455 L-236,457 L-229,457 L-226,454 L-227,449 L-230,447 Z " fill="#000000" transform="translate(265,29)"/>
</svg>
