<?xml version="1.0" encoding="UTF-8"?>
<!-- Generator: visioncortex VTracer 0.6.12 -->
<svg version="1.1" xmlns="http://www.w3.org/2000/svg" width="405" height="1149">
<path d="M0,0 L17,0 L38,4 L46,8 L49,12 L49,22 L45,41 L48,48 L56,54 L56,56 L60,58 L69,68 L75,80 L80,92 L83,105 L83,123 L79,139 L76,147 L68,159 L61,166 L56,171 L43,179 L27,185 L20,186 L3,186 L-12,183 L-28,175 L-38,169 L-48,158 L-55,147 L-61,132 L-64,112 L-65,105 L-72,97 L-86,88 L-92,83 L-94,80 L-94,71 L-88,57 L-82,47 L-69,32 L-60,24 L-51,18 L-40,11 L-15,2 L-12,1 Z M9,19 L-8,20 L-24,25 L-40,33 L-54,43 L-64,54 L-73,68 L-72,75 L-65,81 L-58,81 L-52,74 L-45,64 L-39,57 L-37,56 L-37,54 L-33,52 L-13,41 L3,38 L20,37 L25,32 L25,23 L22,20 L18,19 Z M3,61 L-7,64 L-21,71 L-28,78 L-34,86 L-39,98 L-40,102 L-41,117 L-38,131 L-32,142 L-23,152 L-18,156 L-10,160 L2,164 L13,165 L27,162 L37,158 L49,147 L57,136 L60,128 L61,124 L61,108 L59,97 L51,81 L44,74 L36,68 L26,63 L17,61 Z " fill="#000000" transform="translate(188,29)"/>
<path d="M0,0 L62,0 L76,2 L84,7 L88,14 L92,27 L93,38 L93,75 L96,148 L96,193 L97,217 L97,290 L93,310 L90,320 L82,333 L79,338 L76,345 L70,348 L43,348 L39,349 L39,351 L42,352 L69,352 L76,355 L78,359 L79,372 L79,386 L76,410 L71,422 L63,437 L51,451 L43,461 L41,465 L42,484 L43,494 L44,518 L47,546 L51,593 L57,664 L58,673 L59,694 L63,734 L67,786 L70,822 L74,859 L75,873 L75,884 L72,887 L61,889 L-51,889 L-56,884 L-57,876 L-58,805 L-58,729 L-59,689 L-59,658 L-60,615 L-61,519 L-61,487 L-62,417 L-64,406 L-66,402 L-73,401 L-76,403 L-79,413 L-80,441 L-79,566 L-79,605 L-78,642 L-78,882 L-82,887 L-88,889 L-96,890 L-176,890 L-203,889 L-210,887 L-213,882 L-212,851 L-208,784 L-203,695 L-201,664 L-196,563 L-193,513 L-191,475 L-191,465 L-194,460 L-205,452 L-210,448 L-216,440 L-222,427 L-226,413 L-227,405 L-229,376 L-229,360 L-227,355 L-220,353 L-213,353 L-208,352 L-194,352 L-195,350 L-218,349 L-226,347 L-233,339 L-239,330 L-244,317 L-246,309 L-248,281 L-248,184 L-249,158 L-249,138 L-250,94 L-251,38 L-248,26 L-243,17 L-237,10 L-229,6 L-222,4 L-208,3 L-149,2 L-130,2 L-125,5 L-115,19 L-106,31 L-96,45 L-90,53 L-83,62 L-82,64 L-75,64 L-69,55 L-60,41 L-52,27 L-47,20 L-41,9 L-38,4 L-33,1 Z M-27,84 L-32,87 L-31,90 L-29,91 L10,90 L13,88 L12,84 Z M40,389 L36,393 L35,396 L36,409 L38,424 L39,425 L44,425 L49,419 L54,409 L56,394 L52,390 L49,389 Z M-202,391 L-206,394 L-206,403 L-203,418 L-199,426 L-194,430 L-189,428 L-188,421 L-188,395 L-192,391 Z " fill="#000000" transform="translate(280,225)"/>
</svg>
