<?xml version="1.0" encoding="UTF-8"?>
<!-- Generator: visioncortex VTracer 0.6.12 -->
<svg version="1.1" xmlns="http://www.w3.org/2000/svg" width="429" height="1080">
<path d="M0,0 L8,0 L16,4 L21,8 L29,24 L34,36 L34,38 L43,38 L60,29 L66,30 L72,35 L73,37 L73,44 L68,50 L57,58 L51,62 L50,64 L51,83 L51,98 L47,114 L41,126 L32,137 L24,144 L15,150 L4,154 L-8,155 L-25,155 L-35,152 L-47,146 L-57,139 L-65,131 L-73,118 L-77,109 L-79,102 L-81,100 L-109,99 L-117,96 L-118,88 L-115,82 L-112,79 L-106,77 L-91,74 L-89,72 L-89,64 L-94,51 L-95,47 L-95,39 L-91,31 L-85,24 L-71,17 L-55,10 L-39,6 L-8,1 Z M-9,23 L-25,26 L-61,37 L-68,39 L-73,45 L-72,53 L-69,65 L-65,70 L-57,70 L-45,67 L-18,58 L3,54 L13,49 L15,44 L12,34 L8,26 L3,23 Z M12,73 L-28,83 L-44,88 L-51,90 L-54,94 L-53,101 L-47,114 L-40,122 L-31,128 L-20,131 L-6,131 L5,128 L16,120 L23,111 L27,100 L28,93 L27,82 L23,74 L21,73 Z " fill="#000000" transform="translate(236,29)"/>
<path d="M0,0 L43,0 L72,1 L78,4 L84,15 L88,25 L90,32 L94,33 L97,30 L100,21 L102,13 L107,12 L112,15 L120,22 L120,24 L122,24 L128,33 L135,33 L138,23 L143,7 L149,2 L151,1 L179,1 L197,2 L220,2 L241,4 L257,13 L264,22 L269,35 L273,58 L275,76 L276,91 L276,142 L275,166 L274,174 L274,226 L273,237 L273,257 L271,274 L270,310 L268,313 L269,318 L270,320 L270,330 L265,360 L264,393 L261,402 L257,419 L252,439 L248,449 L237,463 L231,470 L229,475 L230,490 L235,525 L237,541 L239,546 L241,564 L245,592 L249,609 L250,621 L254,642 L260,684 L263,696 L266,718 L270,741 L274,764 L275,766 L278,788 L282,807 L287,834 L287,845 L283,850 L281,851 L175,851 L167,848 L163,844 L162,842 L161,828 L158,811 L151,769 L147,747 L142,717 L138,697 L131,660 L128,643 L124,624 L122,614 L119,598 L115,572 L111,556 L107,536 L105,525 L103,522 L98,523 L95,544 L91,564 L89,577 L87,589 L83,616 L79,637 L74,669 L70,689 L68,705 L66,714 L63,740 L58,767 L56,784 L53,805 L51,815 L48,835 L44,844 L39,847 L35,848 L17,848 L7,847 L-24,847 L-39,846 L-62,846 L-78,845 L-85,843 L-87,841 L-87,833 L-84,822 L-75,762 L-72,745 L-66,703 L-63,676 L-55,626 L-51,606 L-47,580 L-45,560 L-44,557 L-41,532 L-39,522 L-37,505 L-35,487 L-35,476 L-43,466 L-52,450 L-58,433 L-63,408 L-63,390 L-62,380 L-63,369 L-64,339 L-62,293 L-61,278 L-61,254 L-59,235 L-59,221 L-58,210 L-57,142 L-57,116 L-56,84 L-55,66 L-54,55 L-51,37 L-45,21 L-40,16 L-33,10 L-22,5 L-9,1 Z M2,21 L-10,24 L-18,28 L-23,33 L-26,37 L-30,49 L-33,67 L-33,85 L-34,95 L-36,180 L-37,187 L-38,237 L-38,264 L-39,294 L-39,317 L-40,325 L-40,376 L-37,382 L-32,384 L-25,385 L0,385 L29,386 L129,386 L144,387 L234,387 L239,384 L242,373 L246,343 L246,303 L247,289 L247,271 L248,261 L249,221 L250,155 L252,120 L252,80 L247,42 L243,32 L239,28 L219,25 L186,24 L165,24 L160,28 L152,47 L142,82 L135,103 L129,119 L126,129 L120,139 L115,143 L108,143 L103,139 L97,126 L92,110 L85,89 L78,70 L72,52 L67,39 L62,30 L55,24 L50,22 L19,21 Z M222,409 L219,412 L219,421 L221,431 L222,432 L229,431 L234,422 L235,412 L231,409 Z M-31,411 L-34,414 L-34,424 L-32,429 L-28,430 L-26,428 L-25,412 Z " fill="#000000" transform="translate(116,187)"/>
<path d="M0,0 L13,0 L18,5 L19,12 L16,20 L10,25 L3,25 L-3,20 L-5,16 L-5,6 Z " fill="#000000" transform="translate(158,406)"/>
<path d="M0,0 L10,0 L14,4 L15,6 L15,15 L11,22 L6,25 L-1,25 L-6,21 L-8,18 L-8,7 L-6,3 Z " fill="#000000" transform="translate(270,409)"/>
<path d="M0,0 L9,2 L13,7 L12,16 L7,22 L3,24 L-4,23 L-9,18 L-11,13 L-11,7 L-7,2 Z " fill="#000000" transform="translate(275,484)"/>
<path d="M0,0 L9,1 L13,5 L14,11 L11,19 L7,23 L-2,24 L-9,20 L-11,17 L-11,6 L-7,2 Z " fill="#000000" transform="translate(166,485)"/>
</svg>
