<?xml version="1.0" encoding="UTF-8"?>
<!-- Generator: visioncortex VTracer 0.6.12 -->
<svg version="1.1" xmlns="http://www.w3.org/2000/svg" width="690" height="1344">
<path d="M0,0 L7,0 L7,2 L12,4 L17,10 L18,13 L18,21 L17,28 L20,33 L32,49 L39,59 L51,75 L60,89 L70,104 L80,117 L86,124 L92,124 L101,120 L118,116 L148,116 L164,121 L178,127 L188,135 L193,140 L202,150 L221,164 L226,170 L227,175 L222,181 L212,187 L211,188 L212,197 L214,211 L214,237 L210,250 L205,258 L201,272 L201,280 L207,292 L215,303 L222,317 L225,325 L230,328 L237,331 L247,334 L272,345 L288,357 L294,364 L297,371 L297,398 L300,405 L308,415 L312,420 L318,429 L327,439 L334,447 L339,453 L339,455 L341,455 L350,467 L359,477 L359,479 L363,481 L372,491 L378,500 L383,505 L399,522 L405,529 L410,533 L418,545 L425,554 L425,560 L418,568 L410,576 L403,582 L396,596 L389,610 L379,623 L368,634 L357,643 L347,649 L342,652 L332,655 L271,653 L253,650 L246,651 L244,653 L240,684 L240,692 L246,717 L253,743 L259,763 L261,772 L264,782 L266,787 L268,800 L280,843 L285,859 L289,874 L300,911 L307,936 L314,958 L318,972 L322,985 L328,993 L333,1000 L335,1008 L334,1018 L328,1026 L322,1031 L317,1034 L315,1037 L316,1044 L321,1049 L339,1052 L353,1059 L360,1066 L363,1073 L361,1080 L350,1093 L345,1098 L337,1108 L329,1115 L317,1127 L309,1134 L302,1141 L287,1151 L274,1157 L271,1158 L262,1158 L252,1152 L246,1136 L235,1103 L231,1091 L228,1088 L209,1088 L200,1083 L195,1076 L193,1060 L190,1046 L183,1027 L176,1003 L172,992 L163,965 L155,940 L148,919 L135,881 L131,870 L125,850 L120,840 L111,812 L106,811 L100,824 L94,841 L88,854 L81,873 L69,902 L63,919 L59,929 L55,941 L44,968 L36,988 L31,1000 L23,1021 L17,1036 L12,1048 L8,1060 L-3,1087 L-18,1124 L-26,1145 L-36,1171 L-39,1180 L-43,1196 L-46,1212 L-51,1218 L-58,1221 L-69,1221 L-85,1215 L-94,1215 L-98,1220 L-105,1236 L-120,1267 L-124,1276 L-131,1282 L-137,1284 L-154,1284 L-174,1280 L-188,1275 L-200,1267 L-208,1258 L-209,1255 L-209,1248 L-204,1236 L-199,1228 L-193,1214 L-190,1209 L-185,1196 L-184,1194 L-184,1186 L-189,1181 L-201,1174 L-205,1169 L-207,1165 L-207,1155 L-198,1142 L-195,1141 L-195,1139 L-188,1133 L-176,1107 L-170,1092 L-163,1072 L-158,1060 L-151,1040 L-143,1020 L-137,1002 L-132,988 L-128,975 L-125,970 L-122,960 L-117,947 L-113,938 L-107,920 L-93,886 L-88,873 L-83,858 L-71,827 L-63,803 L-58,790 L-59,782 L-64,772 L-68,754 L-68,732 L-66,695 L-63,661 L-61,630 L-58,596 L-57,589 L-54,547 L-53,533 L-53,523 L-51,498 L-49,483 L-49,461 L-48,442 L-47,436 L-46,419 L-44,404 L-44,374 L-42,353 L-40,341 L-36,335 L-26,329 L-13,325 L3,321 L16,319 L39,315 L55,313 L74,309 L88,302 L102,299 L119,297 L121,295 L109,290 L95,283 L84,274 L79,269 L70,259 L63,247 L58,230 L57,207 L56,197 L48,191 L47,188 L44,187 L41,183 L41,178 L49,173 L56,167 L62,155 L61,146 L51,131 L39,114 L32,106 L27,97 L15,81 L11,76 L1,61 L-9,47 L-16,37 L-21,29 L-24,20 L-23,15 L-12,7 L-3,2 L0,2 Z M179,195 L166,198 L153,199 L150,200 L149,202 L149,209 L154,219 L160,228 L164,233 L170,241 L178,252 L182,254 L186,252 L193,239 L196,232 L197,226 L197,209 L193,198 L190,195 Z M81,200 L76,203 L74,207 L73,218 L76,230 L80,242 L87,253 L97,263 L104,268 L118,275 L130,278 L144,278 L150,276 L152,272 L143,256 L134,245 L128,236 L120,226 L112,215 L103,205 L97,202 Z M157,293 L148,295 L147,300 L149,303 L159,303 L162,305 L166,304 L167,303 L167,297 L162,293 Z M151,314 L151,316 L153,315 Z M291,507 L288,509 L285,546 L285,554 L288,559 L294,562 L306,564 L326,565 L328,564 L327,558 L319,545 L312,535 L307,527 L296,509 Z M379,565 L356,576 L351,581 L347,589 L345,599 L344,629 L346,631 L351,630 L356,625 L359,622 L359,620 L363,618 L374,606 L380,598 L390,576 L390,567 L388,565 Z M9,607 L5,611 L5,619 L11,623 L33,626 L54,627 L58,628 L75,629 L81,630 L112,632 L148,635 L156,634 L162,627 L167,624 L175,623 L183,623 L187,621 L186,619 L183,618 L130,615 L116,613 L78,611 L60,609 L34,607 Z M192,620 L192,622 L196,624 L208,624 L208,621 L206,620 Z M178,638 L174,642 L171,662 L171,669 L176,674 L184,675 L212,677 L223,677 L226,673 L227,670 L228,659 L228,648 L225,643 L223,641 L199,638 Z M-44,721 L-49,723 L-52,727 L-53,740 L-52,753 L-50,756 L-45,756 L-41,747 L-34,730 L-34,725 L-37,722 Z " fill="#000000" transform="translate(239,0)"/>
<path d="M0,0 L136,1 L145,0 L292,0 L301,1 L330,0 L471,0 L473,1 L480,1 L488,0 L506,1 L509,0 L528,1 L533,2 L537,0 L549,0 L558,1 L561,0 L586,0 L586,6 L555,6 L547,7 L531,6 L526,7 L504,6 L496,7 L80,7 L-82,8 L-104,7 L-104,1 Z " fill="#000000" transform="translate(104,1323)"/>
</svg>
