<?xml version="1.0" encoding="UTF-8"?>
<!-- Generator: visioncortex VTracer 0.6.12 -->
<svg version="1.1" xmlns="http://www.w3.org/2000/svg" width="894" height="1251">
<path d="M0,0 L26,1 L37,2 L43,5 L46,9 L48,17 L51,38 L55,47 L58,49 L68,49 L74,47 L81,47 L86,50 L88,55 L88,61 L84,67 L81,68 L65,70 L59,73 L56,80 L57,95 L53,114 L49,124 L40,137 L34,143 L32,143 L30,147 L12,157 L0,161 L-8,165 L-24,164 L-39,160 L-53,153 L-58,149 L-61,146 L-66,142 L-66,140 L-70,138 L-77,129 L-83,117 L-86,107 L-89,91 L-92,88 L-101,88 L-110,91 L-116,91 L-122,86 L-124,82 L-124,76 L-120,71 L-115,69 L-94,68 L-89,66 L-88,65 L-88,20 L-86,15 L-79,9 L-73,6 L-63,5 L-35,4 Z M25,74 L19,75 L-32,78 L-53,81 L-68,85 L-73,90 L-73,100 L-69,114 L-63,124 L-54,134 L-43,142 L-37,146 L-26,148 L-19,149 L-7,149 L8,145 L19,139 L28,131 L37,118 L42,105 L43,100 L43,85 L40,76 L35,74 Z " fill="#000000" transform="translate(288,27)"/>
<path d="M0,0 L7,0 L25,12 L25,14 L27,14 L31,19 L31,21 L35,23 L43,31 L48,36 L55,45 L66,66 L71,81 L78,114 L80,132 L81,148 L83,166 L84,188 L86,190 L91,189 L99,180 L108,169 L115,162 L126,153 L131,147 L136,130 L142,114 L145,105 L148,90 L156,81 L163,80 L167,81 L209,85 L216,87 L241,89 L272,93 L286,94 L291,97 L294,104 L293,112 L288,128 L280,153 L277,167 L273,184 L269,196 L264,202 L251,203 L213,202 L194,201 L184,203 L171,213 L168,216 L166,216 L166,218 L155,227 L152,231 L148,256 L145,265 L140,270 L130,277 L115,283 L105,287 L101,290 L96,302 L91,307 L81,315 L77,320 L74,336 L73,343 L72,367 L70,399 L68,411 L66,432 L63,457 L61,473 L60,496 L62,517 L65,533 L68,554 L72,578 L75,590 L80,631 L83,647 L85,659 L87,675 L94,712 L99,742 L103,762 L107,777 L113,814 L116,836 L119,854 L121,867 L127,903 L129,916 L132,933 L136,954 L139,971 L143,998 L143,1005 L140,1008 L137,1009 L52,1009 L46,1006 L44,1002 L37,966 L31,939 L25,905 L18,881 L12,853 L6,827 L4,821 L1,806 L-3,790 L-6,767 L-10,752 L-14,732 L-18,701 L-21,693 L-25,692 L-27,707 L-29,730 L-31,741 L-33,763 L-39,799 L-44,820 L-47,852 L-49,866 L-50,881 L-53,888 L-55,910 L-57,924 L-59,935 L-61,952 L-64,976 L-68,1002 L-70,1006 L-76,1008 L-129,1008 L-153,1007 L-162,1004 L-164,1001 L-164,989 L-160,958 L-158,937 L-155,912 L-152,879 L-150,866 L-149,853 L-145,830 L-139,769 L-135,707 L-133,691 L-131,668 L-128,637 L-125,612 L-123,582 L-120,545 L-118,528 L-119,515 L-122,510 L-126,508 L-140,505 L-145,502 L-146,497 L-143,478 L-138,458 L-132,422 L-128,396 L-125,380 L-121,355 L-121,347 L-129,342 L-145,336 L-150,333 L-150,307 L-144,279 L-140,263 L-135,252 L-130,239 L-126,228 L-122,216 L-117,204 L-107,178 L-100,167 L-89,144 L-80,128 L-73,112 L-67,102 L-63,96 L-56,82 L-49,72 L-35,47 L-27,36 L-8,8 Z M168,102 L163,105 L158,116 L154,126 L154,132 L157,134 L174,134 L179,137 L182,141 L184,147 L183,156 L173,170 L170,175 L171,180 L173,181 L200,182 L206,183 L232,184 L250,183 L256,178 L258,173 L262,156 L265,148 L271,125 L271,116 L266,113 L226,107 L189,103 Z M162,147 L153,151 L142,158 L132,167 L119,179 L103,196 L91,212 L85,220 L81,226 L75,234 L75,241 L78,251 L86,267 L89,270 L91,271 L108,270 L120,268 L131,262 L135,257 L137,239 L136,224 L132,218 L132,209 L138,198 L143,189 L151,179 L159,168 L169,155 L170,149 L167,147 Z M154,202 Z " fill="#000000" transform="translate(193,170)"/>
<path d="M0,0 L13,0 L31,4 L46,13 L54,20 L60,25 L69,38 L74,50 L77,59 L79,70 L78,90 L71,111 L65,120 L57,130 L48,138 L35,145 L20,150 L9,151 L-12,149 L-28,143 L-38,138 L-54,123 L-61,111 L-66,99 L-70,82 L-72,75 L-71,63 L-65,45 L-57,37 L-49,26 L-40,18 L-36,14 L-24,7 L-9,2 Z M-14,50 L-17,51 L-46,51 L-50,55 L-53,62 L-54,67 L-53,85 L-47,100 L-41,110 L-35,118 L-27,124 L-21,128 L-8,132 L14,132 L27,129 L38,123 L45,117 L54,104 L57,98 L56,93 L52,90 L36,88 L20,80 L18,79 L1,77 L-4,72 L-4,52 L-6,50 Z " fill="#000000" transform="translate(655,295)"/>
<path d="M0,0 L10,0 L17,4 L27,15 L37,33 L44,44 L52,64 L56,72 L61,87 L70,116 L75,137 L81,161 L84,174 L90,204 L95,240 L97,264 L99,299 L100,329 L100,412 L107,412 L110,409 L111,404 L111,365 L113,303 L118,261 L120,229 L123,188 L128,148 L131,128 L134,120 L136,118 L142,118 L147,121 L149,125 L149,133 L146,153 L144,173 L141,199 L138,246 L137,250 L136,270 L133,288 L130,332 L129,340 L129,364 L130,385 L131,468 L132,478 L132,633 L131,665 L130,687 L130,740 L128,744 L126,745 L120,745 L116,743 L114,739 L113,723 L114,693 L113,678 L113,608 L112,500 L112,432 L108,421 L102,419 L99,421 L98,427 L96,454 L93,460 L89,463 L56,463 L50,465 L39,466 L-36,466 L-42,468 L-44,473 L-44,624 L-43,648 L-43,744 L-46,747 L-53,748 L-87,747 L-144,747 L-220,745 L-276,745 L-299,746 L-317,748 L-344,750 L-350,751 L-362,751 L-367,749 L-370,746 L-371,741 L-371,733 L-369,723 L-369,578 L-368,504 L-368,479 L-369,385 L-368,342 L-368,314 L-367,300 L-368,294 L-368,286 L-365,283 L-358,281 L-341,280 L-310,279 L-281,279 L-241,278 L-157,278 L-155,277 L-156,272 L-166,261 L-173,253 L-182,246 L-196,235 L-205,226 L-211,222 L-218,214 L-228,206 L-233,201 L-233,199 L-237,197 L-244,190 L-259,180 L-268,173 L-269,166 L-265,158 L-265,152 L-274,148 L-291,140 L-305,130 L-310,125 L-320,115 L-324,111 L-331,103 L-337,96 L-340,91 L-346,73 L-347,58 L-345,53 L-343,52 L-334,53 L-329,57 L-315,66 L-303,73 L-295,78 L-289,77 L-287,74 L-285,67 L-283,55 L-280,52 L-274,52 L-269,58 L-265,65 L-259,74 L-251,85 L-244,94 L-230,107 L-224,107 L-217,100 L-213,98 L-206,98 L-192,107 L-184,115 L-176,122 L-171,128 L-161,136 L-149,147 L-148,150 L-146,150 L-141,156 L-131,164 L-127,169 L-120,175 L-115,181 L-115,183 L-111,185 L-104,186 L-100,168 L-94,152 L-87,138 L-84,126 L-71,96 L-65,85 L-57,72 L-52,66 L-46,54 L-36,38 L-30,29 L-21,17 L-16,12 L-14,12 L-12,8 L-3,1 Z M-319,87 L-318,91 L-309,102 L-299,112 L-288,121 L-281,126 L-272,131 L-266,134 L-257,137 L-252,140 L-245,137 L-239,129 L-239,122 L-266,95 L-271,94 L-277,101 L-288,101 L-298,96 L-313,87 Z M-336,295 L-347,296 L-352,301 L-352,322 L-353,335 L-353,627 L-352,652 L-352,682 L-351,729 L-348,734 L-347,735 L-331,736 L-280,737 L-265,737 L-258,738 L-203,738 L-165,739 L-131,739 L-84,740 L-66,739 L-63,734 L-62,686 L-62,593 L-63,568 L-62,537 L-63,453 L-63,408 L-64,382 L-66,357 L-65,350 L-65,318 L-66,304 L-69,298 L-71,297 L-131,296 L-148,296 L-170,295 Z " fill="#000000" transform="translate(717,433)"/>
<path d="M0,0 L108,0 L114,2 L116,5 L115,11 L111,17 L109,18 L34,18 L-52,19 L-57,21 L-58,23 L-59,33 L-59,152 L-58,273 L-58,334 L-61,342 L-63,342 L-65,347 L-69,350 L-74,348 L-75,347 L-76,310 L-76,218 L-77,122 L-77,55 L-78,38 L-78,7 L-75,4 L-67,2 L-61,1 Z " fill="#000000" transform="translate(488,767)"/>
</svg>
