<?xml version="1.0" encoding="UTF-8"?>
<!-- Generator: visioncortex VTracer 0.6.12 -->
<svg version="1.1" xmlns="http://www.w3.org/2000/svg" width="711" height="648">
<path d="M0,0 L5,0 L8,3 L9,6 L10,25 L13,30 L17,32 L25,31 L37,27 L48,24 L56,21 L74,18 L84,15 L95,13 L108,13 L112,16 L111,28 L105,42 L105,50 L113,55 L143,55 L157,56 L172,60 L187,64 L199,68 L204,72 L205,75 L201,82 L190,95 L187,100 L188,106 L190,109 L208,117 L226,127 L238,132 L251,143 L261,151 L269,158 L270,162 L268,166 L259,171 L247,176 L243,180 L243,188 L245,193 L253,200 L264,210 L270,218 L278,231 L286,240 L292,249 L297,261 L297,267 L293,269 L272,269 L266,272 L264,276 L265,285 L270,296 L279,325 L280,336 L283,345 L284,358 L284,370 L282,376 L279,377 L261,369 L250,368 L244,373 L241,380 L240,416 L237,445 L232,459 L231,466 L228,469 L224,468 L214,459 L209,454 L203,451 L197,452 L192,456 L188,466 L183,478 L173,496 L165,509 L155,523 L150,530 L146,531 L141,526 L134,512 L129,508 L123,509 L115,516 L106,526 L98,532 L90,540 L76,549 L60,561 L52,565 L43,569 L36,569 L33,560 L32,543 L28,535 L22,532 L13,533 L0,538 L-16,543 L-37,548 L-51,549 L-55,550 L-72,550 L-75,545 L-71,528 L-70,525 L-70,513 L-72,509 L-77,507 L-80,506 L-109,505 L-131,503 L-145,499 L-160,494 L-162,492 L-162,486 L-155,476 L-154,473 L-154,464 L-161,456 L-178,447 L-194,439 L-203,433 L-213,425 L-221,418 L-229,412 L-234,407 L-233,401 L-222,395 L-217,391 L-215,387 L-215,376 L-220,368 L-232,352 L-240,340 L-246,329 L-254,315 L-260,303 L-260,297 L-255,293 L-242,293 L-235,290 L-232,285 L-232,276 L-235,262 L-236,257 L-236,251 L-239,247 L-243,232 L-243,221 L-246,207 L-246,181 L-241,180 L-227,185 L-224,187 L-217,186 L-211,182 L-207,174 L-204,143 L-198,114 L-192,98 L-189,94 L-182,95 L-175,101 L-170,104 L-163,104 L-155,98 L-147,88 L-140,76 L-136,66 L-129,56 L-118,43 L-110,32 L-103,23 L-98,24 L-92,36 L-87,48 L-82,52 L-75,52 L-63,46 L-56,40 L-50,31 L-47,26 L-29,16 L-21,10 L-11,5 L-4,2 Z M11,238 L2,240 L-8,244 L-17,251 L-21,256 L-27,265 L-30,273 L-31,285 L-27,304 L-21,313 L-11,324 L2,330 L17,333 L25,332 L39,328 L45,325 L53,316 L61,303 L64,294 L64,277 L62,269 L57,257 L52,251 L41,243 L32,239 L25,238 Z " fill="#000000" transform="translate(297,46)"/>
<path d="M0,0 L1,2 L-1,1 Z " fill="#000000" transform="translate(639,312)"/>
</svg>
