<?xml version="1.0" encoding="UTF-8"?>
<!-- Generator: visioncortex VTracer 0.6.12 -->
<svg version="1.1" xmlns="http://www.w3.org/2000/svg" width="678" height="876">
<path d="M0,0 L40,0 L65,1 L143,2 L186,3 L206,3 L232,4 L259,4 L374,6 L460,7 L492,8 L501,9 L509,8 L511,9 L596,9 L601,12 L600,28 L600,38 L599,55 L598,100 L598,115 L596,181 L594,254 L594,269 L593,295 L591,461 L590,511 L590,534 L589,589 L588,619 L585,770 L584,813 L581,817 L578,818 L554,819 L544,818 L470,816 L447,815 L406,815 L317,813 L236,812 L114,809 L103,808 L57,808 L-16,806 L-20,803 L-21,799 L-21,763 L-20,692 L-19,660 L-19,623 L-18,569 L-17,550 L-16,486 L-15,454 L-15,435 L-13,339 L-13,319 L-11,242 L-10,190 L-9,168 L-8,116 L-6,39 L-6,19 L-8,13 L-10,9 L-7,4 Z M125,75 L122,78 L121,82 L120,125 L120,143 L121,151 L115,150 L109,141 L103,133 L101,133 L99,129 L90,118 L81,107 L73,98 L67,99 L57,109 L57,115 L63,124 L72,135 L81,146 L88,154 L94,162 L102,171 L109,180 L113,186 L114,191 L101,192 L51,192 L49,195 L49,204 L52,209 L59,210 L122,211 L183,212 L204,212 L209,209 L210,197 L209,195 L206,194 L160,193 L146,192 L147,186 L160,173 L169,162 L178,153 L182,148 L186,144 L193,136 L203,124 L204,117 L199,112 L193,107 L188,107 L179,115 L170,126 L160,135 L155,140 L150,147 L144,148 L144,105 L145,87 L143,78 L141,76 L135,75 Z M442,87 L439,89 L438,98 L436,102 L434,119 L433,139 L434,157 L428,156 L420,145 L409,130 L401,120 L391,107 L385,99 L382,97 L377,98 L364,107 L361,111 L363,117 L375,133 L385,144 L392,154 L401,165 L410,176 L421,188 L424,193 L424,197 L377,197 L373,201 L373,212 L378,215 L405,215 L418,216 L458,216 L469,218 L504,217 L508,216 L517,216 L524,217 L527,215 L528,211 L528,204 L524,200 L458,198 L458,192 L466,184 L470,179 L470,177 L474,175 L482,165 L482,163 L486,161 L494,153 L494,151 L497,150 L500,146 L503,137 L511,134 L519,124 L524,118 L527,113 L526,108 L519,100 L517,99 L511,99 L500,112 L496,116 L496,118 L492,120 L484,130 L484,132 L480,134 L473,144 L466,149 L460,158 L456,159 L456,133 L457,109 L456,104 L456,90 L454,87 Z M282,251 L277,253 L276,254 L275,295 L274,316 L274,335 L268,333 L260,322 L249,310 L241,299 L231,288 L224,280 L218,281 L208,289 L205,294 L210,302 L221,315 L227,323 L237,334 L243,342 L245,345 L247,345 L249,349 L257,359 L259,359 L261,363 L265,368 L265,371 L263,372 L222,372 L211,373 L209,375 L209,390 L213,393 L217,394 L329,396 L365,396 L369,393 L369,381 L366,378 L342,377 L308,376 L307,375 L307,369 L318,357 L320,352 L324,350 L331,342 L338,333 L340,328 L344,326 L349,321 L359,309 L362,305 L362,303 L364,303 L368,296 L367,289 L355,281 L349,282 L340,292 L334,300 L329,304 L322,313 L319,316 L319,318 L315,320 L313,325 L305,327 L305,285 L306,266 L305,255 L301,251 Z M120,444 L116,447 L115,459 L113,521 L107,520 L105,516 L93,500 L81,486 L71,473 L64,465 L58,466 L45,476 L46,482 L55,493 L63,503 L71,513 L74,514 L76,518 L84,529 L92,538 L100,548 L107,558 L107,561 L46,561 L42,564 L41,579 L46,582 L60,583 L84,583 L165,585 L199,585 L203,583 L204,580 L204,565 L200,563 L163,562 L143,560 L144,555 L149,550 L161,537 L170,526 L179,516 L186,508 L197,495 L200,491 L200,489 L202,489 L207,482 L206,477 L202,472 L197,467 L193,464 L187,465 L178,475 L172,483 L167,488 L157,499 L157,501 L155,501 L147,511 L143,517 L138,517 L137,500 L137,447 L134,445 Z M435,454 L430,457 L428,500 L428,512 L429,521 L425,522 L423,522 L421,517 L417,511 L410,503 L409,501 L407,501 L406,498 L404,498 L402,494 L392,481 L381,468 L378,465 L372,466 L361,474 L359,476 L360,481 L371,494 L383,510 L388,514 L396,525 L405,536 L412,544 L421,556 L425,562 L425,565 L420,566 L386,565 L368,565 L365,567 L365,582 L368,587 L370,588 L410,589 L473,590 L515,590 L520,585 L520,570 L518,568 L510,567 L458,566 L455,565 L455,559 L457,559 L464,550 L469,546 L476,538 L482,531 L482,529 L485,528 L485,526 L487,526 L494,517 L501,510 L511,495 L517,487 L520,483 L519,477 L512,469 L508,467 L503,468 L493,478 L484,489 L472,502 L461,516 L457,521 L454,521 L453,507 L453,458 L450,454 Z M277,630 L275,632 L274,636 L273,655 L272,698 L270,713 L265,712 L254,699 L247,690 L238,679 L229,667 L225,663 L216,651 L210,650 L200,656 L196,660 L197,666 L208,679 L215,688 L225,700 L231,708 L240,720 L247,729 L252,738 L254,742 L254,745 L247,746 L206,746 L201,751 L202,764 L207,767 L247,768 L282,768 L359,769 L362,766 L363,762 L363,752 L359,748 L323,747 L301,747 L301,743 L311,732 L311,730 L315,728 L326,716 L336,705 L343,697 L352,687 L356,682 L361,677 L365,672 L365,666 L358,660 L356,660 L354,656 L350,653 L345,654 L338,661 L334,666 L329,671 L321,681 L316,687 L314,688 L314,690 L310,692 L300,705 L295,706 L296,657 L296,639 L294,632 L292,630 Z " fill="#000000" transform="translate(51,31)"/>
</svg>
