<?xml version="1.0" encoding="UTF-8"?>
<!-- Generator: visioncortex VTracer 0.6.12 -->
<svg version="1.1" xmlns="http://www.w3.org/2000/svg" width="663" height="729">
<path d="M0,0 L7,0 L16,3 L24,8 L31,7 L37,3 L40,2 L54,2 L65,9 L71,16 L73,17 L79,17 L91,10 L106,6 L115,6 L119,9 L119,15 L114,21 L109,26 L103,31 L94,35 L87,38 L83,42 L81,48 L79,57 L74,70 L75,77 L81,98 L89,121 L93,132 L94,144 L90,154 L86,159 L78,165 L65,171 L53,170 L48,167 L42,167 L41,187 L38,202 L35,207 L30,211 L29,216 L32,219 L44,225 L48,232 L51,238 L51,256 L46,271 L46,279 L51,294 L51,306 L48,319 L42,329 L35,335 L27,339 L25,339 L23,346 L23,364 L19,373 L13,383 L13,397 L16,411 L14,424 L6,437 L3,443 L1,455 L-5,465 L-12,471 L-20,477 L-24,487 L-28,498 L-35,507 L-44,513 L-47,519 L-48,532 L-47,594 L-47,618 L-46,623 L-46,642 L-49,650 L-51,652 L-65,653 L-78,652 L-84,652 L-88,648 L-89,640 L-89,560 L-90,549 L-92,530 L-97,525 L-102,524 L-111,524 L-113,527 L-114,535 L-114,616 L-115,645 L-119,653 L-127,658 L-132,657 L-141,653 L-152,652 L-154,650 L-156,642 L-156,546 L-157,528 L-160,519 L-167,507 L-169,499 L-169,487 L-167,474 L-170,468 L-175,462 L-178,456 L-179,451 L-179,441 L-178,437 L-178,426 L-195,424 L-205,419 L-216,410 L-223,410 L-228,413 L-236,416 L-249,416 L-262,412 L-267,414 L-271,419 L-276,426 L-279,445 L-285,455 L-290,459 L-297,463 L-298,470 L-297,478 L-297,490 L-301,500 L-309,509 L-315,513 L-317,520 L-316,537 L-313,559 L-310,579 L-308,596 L-307,601 L-306,617 L-304,624 L-302,640 L-302,646 L-305,650 L-310,652 L-333,652 L-339,649 L-343,641 L-344,627 L-346,619 L-348,597 L-351,574 L-353,557 L-354,548 L-359,507 L-360,502 L-360,482 L-365,475 L-370,464 L-370,456 L-367,442 L-366,440 L-366,429 L-369,424 L-374,424 L-379,428 L-386,432 L-389,440 L-389,458 L-395,470 L-398,483 L-404,493 L-408,499 L-409,506 L-408,600 L-407,641 L-410,649 L-412,651 L-425,652 L-436,651 L-438,652 L-444,652 L-446,649 L-447,591 L-447,577 L-446,542 L-447,520 L-447,486 L-446,483 L-446,475 L-450,469 L-458,463 L-461,455 L-463,449 L-464,422 L-471,413 L-474,404 L-474,392 L-471,381 L-472,374 L-475,366 L-476,360 L-476,349 L-472,340 L-471,338 L-471,331 L-476,318 L-476,297 L-473,290 L-466,279 L-465,273 L-469,260 L-469,245 L-462,232 L-454,222 L-452,206 L-448,199 L-441,194 L-427,192 L-423,189 L-421,181 L-417,171 L-408,164 L-400,160 L-386,161 L-383,163 L-376,163 L-372,159 L-368,151 L-359,146 L-345,146 L-333,152 L-327,155 L-322,150 L-314,143 L-309,140 L-294,139 L-286,141 L-279,148 L-279,150 L-271,151 L-266,147 L-255,143 L-252,142 L-240,142 L-230,146 L-226,151 L-220,152 L-206,146 L-190,145 L-181,149 L-172,156 L-168,161 L-162,162 L-153,151 L-141,145 L-132,143 L-125,143 L-112,150 L-106,150 L-103,130 L-97,122 L-91,117 L-77,111 L-75,109 L-74,87 L-73,78 L-67,68 L-68,63 L-73,60 L-83,58 L-92,54 L-96,50 L-96,45 L-87,41 L-58,41 L-53,39 L-50,30 L-43,22 L-34,16 L-21,14 L-16,9 L-10,4 L-3,1 Z " fill="#000000" transform="translate(511,37)"/>
</svg>
