<?xml version="1.0" encoding="UTF-8"?>
<!-- Generator: visioncortex VTracer 0.6.12 -->
<svg version="1.1" xmlns="http://www.w3.org/2000/svg" width="651" height="489">
<path d="M0,0 L9,1 L17,6 L27,7 L39,1 L66,1 L76,8 L82,10 L86,15 L97,24 L104,32 L111,43 L114,50 L120,60 L121,61 L122,68 L127,74 L130,83 L130,93 L126,102 L121,107 L118,109 L104,108 L89,107 L81,103 L73,101 L64,95 L56,95 L46,100 L41,106 L39,129 L36,136 L30,141 L26,146 L15,150 L11,153 L10,174 L3,191 L0,194 L-9,198 L-22,204 L-24,209 L-26,222 L-31,234 L-40,239 L-43,242 L-57,247 L-67,248 L-71,251 L-73,260 L-75,275 L-75,291 L-77,368 L-78,396 L-79,399 L-80,412 L-83,417 L-89,420 L-99,421 L-104,417 L-105,397 L-106,392 L-107,376 L-108,331 L-109,327 L-109,310 L-110,304 L-110,294 L-109,292 L-109,284 L-111,268 L-114,260 L-119,262 L-125,265 L-130,269 L-139,272 L-154,273 L-165,270 L-166,269 L-173,268 L-182,258 L-186,257 L-195,262 L-198,265 L-205,268 L-214,270 L-223,269 L-236,268 L-241,264 L-245,259 L-256,253 L-262,255 L-275,264 L-277,265 L-291,265 L-296,266 L-305,266 L-317,259 L-324,251 L-324,249 L-332,247 L-340,251 L-346,258 L-354,264 L-367,277 L-371,279 L-375,284 L-387,292 L-391,298 L-398,304 L-403,307 L-404,318 L-405,325 L-405,376 L-406,383 L-404,388 L-405,409 L-406,417 L-411,421 L-413,422 L-422,421 L-428,418 L-430,413 L-430,391 L-429,388 L-429,346 L-430,338 L-431,319 L-429,314 L-431,309 L-429,287 L-424,282 L-420,274 L-417,269 L-415,263 L-408,252 L-405,244 L-405,238 L-406,237 L-417,235 L-430,228 L-440,218 L-445,205 L-447,202 L-449,181 L-450,162 L-450,138 L-451,128 L-450,125 L-449,106 L-444,91 L-441,78 L-436,69 L-426,57 L-412,49 L-402,48 L-397,50 L-390,50 L-382,54 L-374,54 L-360,46 L-347,42 L-326,43 L-316,48 L-308,51 L-304,54 L-298,54 L-292,49 L-276,43 L-271,40 L-265,39 L-250,39 L-245,42 L-236,44 L-226,51 L-219,51 L-210,44 L-200,40 L-185,40 L-183,42 L-173,43 L-162,48 L-155,52 L-151,54 L-136,46 L-132,43 L-127,41 L-121,41 L-119,40 L-104,40 L-94,45 L-83,49 L-78,50 L-75,47 L-73,40 L-64,30 L-58,24 L-48,21 L-37,22 L-29,23 L-21,16 L-16,8 L-6,2 Z " fill="#000000" transform="translate(488,35)"/>
</svg>
