<?xml version="1.0" encoding="UTF-8"?>
<!-- Generator: visioncortex VTracer 0.6.12 -->
<svg version="1.1" xmlns="http://www.w3.org/2000/svg" width="747" height="906">
<path d="M0,0 L24,1 L39,5 L48,9 L60,16 L76,31 L84,41 L92,58 L100,86 L103,106 L106,124 L107,138 L111,139 L124,140 L134,145 L142,152 L148,157 L148,159 L152,161 L162,171 L170,178 L177,186 L179,187 L179,189 L182,190 L182,192 L185,193 L185,195 L187,195 L191,201 L196,206 L203,214 L209,222 L217,232 L228,246 L237,258 L242,266 L250,277 L256,286 L265,300 L272,311 L285,333 L295,350 L302,364 L309,380 L315,393 L318,402 L323,413 L329,426 L333,436 L337,444 L343,462 L348,477 L351,485 L357,505 L362,519 L364,526 L364,543 L361,569 L358,600 L355,628 L350,682 L347,710 L345,723 L342,744 L340,756 L338,764 L334,787 L330,817 L327,831 L322,836 L267,836 L262,837 L245,837 L222,840 L188,841 L129,842 L-1,846 L-49,848 L-91,848 L-94,845 L-94,810 L-97,768 L-101,736 L-104,720 L-106,707 L-111,691 L-118,666 L-123,652 L-129,636 L-132,628 L-141,603 L-147,583 L-152,571 L-159,552 L-166,538 L-172,523 L-178,510 L-186,495 L-191,481 L-196,469 L-207,451 L-213,439 L-222,423 L-234,404 L-244,392 L-251,383 L-264,367 L-274,356 L-279,351 L-295,335 L-304,324 L-308,317 L-308,315 L-310,315 L-316,305 L-323,289 L-325,283 L-326,276 L-326,244 L-324,235 L-322,223 L-317,198 L-311,181 L-305,164 L-301,154 L-294,138 L-290,133 L-286,124 L-280,115 L-270,101 L-255,85 L-243,75 L-233,71 L-225,67 L-215,62 L-203,62 L-201,61 L-178,62 L-148,68 L-121,78 L-112,81 L-94,89 L-69,101 L-53,109 L-35,117 L-30,117 L-30,100 L-32,58 L-32,25 L-28,19 L-23,11 L-8,3 Z M-233,87 L-241,93 L-247,97 L-254,105 L-260,112 L-265,117 L-275,133 L-283,150 L-291,167 L-299,191 L-304,213 L-307,232 L-310,252 L-309,277 L-307,287 L-303,294 L-299,298 L-295,305 L-288,313 L-278,326 L-270,334 L-268,337 L-266,337 L-264,341 L-254,352 L-248,360 L-237,373 L-230,384 L-223,395 L-216,406 L-205,424 L-197,438 L-185,461 L-177,477 L-168,493 L-163,504 L-153,525 L-148,537 L-143,548 L-136,565 L-130,583 L-124,599 L-118,615 L-115,619 L-112,618 L-112,607 L-115,586 L-117,573 L-123,537 L-127,515 L-134,478 L-138,453 L-144,423 L-149,398 L-152,380 L-154,370 L-156,355 L-158,349 L-161,333 L-168,301 L-170,290 L-172,280 L-174,273 L-176,258 L-183,226 L-189,202 L-193,182 L-196,167 L-200,158 L-204,146 L-216,113 L-226,90 L-229,87 Z M110,153 L76,154 L46,154 L37,155 L35,159 L40,163 L53,172 L61,177 L68,183 L74,187 L86,197 L99,206 L111,216 L116,219 L121,218 L122,215 L121,187 L119,158 L116,154 Z " fill="#000000" transform="translate(357,31)"/>
<path d="M0,0 L6,2 L13,13 L19,30 L19,47 L14,57 L9,62 L2,63 L-3,60 L-9,47 L-10,32 L-7,17 L-5,12 L-3,2 Z " fill="#000000" transform="translate(98,204)"/>
</svg>
