<?xml version="1.0" encoding="UTF-8"?>
<!-- Generator: visioncortex VTracer 0.6.12 -->
<svg version="1.1" xmlns="http://www.w3.org/2000/svg" width="1140" height="1149">
<path d="M0,0 L409,0 L419,1 L446,2 L499,3 L566,5 L626,6 L691,8 L766,10 L793,11 L808,11 L857,13 L947,15 L1105,19 L1124,20 L1124,433 L1123,435 L1119,558 L1117,610 L1117,655 L1115,677 L1116,687 L1115,697 L1114,741 L1114,765 L1113,776 L1113,807 L1112,823 L1111,827 L1111,894 L1110,905 L1110,955 L1111,961 L1109,965 L1108,1001 L1106,1040 L1105,1118 L1103,1149 L657,1149 L630,1147 L559,1146 L488,1144 L427,1143 L316,1140 L273,1139 L253,1138 L230,1138 L208,1137 L79,1134 L-16,1131 L-16,621 L-15,617 L-14,577 L-12,494 L-10,392 L-9,367 L-8,312 L-7,253 L-6,216 L-5,200 L-5,184 L-2,67 L-1,20 Z M452,24 L450,26 L451,31 L455,32 L457,30 L457,25 Z M379,41 L376,43 L377,46 L384,45 L384,42 Z M993,132 L985,136 L973,145 L963,153 L955,157 L947,163 L937,170 L920,182 L906,191 L893,200 L879,209 L873,214 L864,219 L850,228 L839,235 L833,239 L828,242 L823,245 L823,247 L817,249 L808,255 L790,266 L777,274 L761,284 L738,297 L724,305 L705,316 L689,324 L688,325 L680,325 L676,320 L671,315 L666,311 L661,307 L656,302 L652,297 L644,290 L641,289 L639,285 L628,276 L620,271 L614,272 L598,282 L597,288 L603,296 L607,299 L609,299 L611,303 L620,311 L622,314 L624,314 L625,317 L630,322 L639,329 L643,335 L650,341 L651,346 L645,348 L622,360 L606,368 L589,376 L573,384 L547,396 L532,404 L516,412 L502,419 L484,427 L477,430 L450,435 L432,437 L407,438 L370,437 L359,436 L344,436 L330,441 L321,445 L305,451 L292,456 L271,465 L262,469 L252,472 L238,478 L222,482 L209,486 L197,490 L186,494 L177,497 L160,503 L136,514 L130,518 L116,527 L111,532 L103,542 L98,550 L96,559 L97,564 L102,567 L131,568 L144,568 L185,570 L228,571 L275,573 L316,574 L339,575 L378,576 L400,576 L422,569 L438,561 L461,550 L478,542 L493,534 L509,526 L526,517 L542,509 L553,503 L562,497 L578,487 L596,476 L606,469 L629,455 L639,448 L653,440 L664,432 L674,427 L681,421 L697,411 L710,402 L721,395 L741,384 L753,378 L768,371 L781,366 L815,360 L824,360 L826,378 L831,409 L836,451 L838,469 L840,477 L842,494 L848,545 L852,574 L855,583 L857,585 L865,587 L900,588 L908,586 L912,578 L918,554 L921,541 L925,525 L928,515 L932,497 L936,481 L940,466 L946,440 L951,422 L956,400 L961,382 L966,359 L967,353 L971,351 L985,333 L997,312 L1005,298 L1011,282 L1016,268 L1020,250 L1022,227 L1022,208 L1020,190 L1016,170 L1010,153 L1004,139 L999,133 Z M80,365 L79,366 L80,374 L81,376 L86,376 L87,371 L85,366 Z M973,705 L961,710 L952,713 L943,715 L932,719 L889,733 L873,738 L844,748 L832,752 L820,755 L800,761 L789,765 L774,769 L755,775 L725,783 L712,787 L696,791 L679,794 L661,797 L626,797 L603,794 L586,790 L564,783 L553,781 L544,784 L534,790 L515,800 L497,810 L469,825 L447,837 L423,850 L400,862 L384,868 L366,874 L346,878 L322,880 L296,880 L284,879 L252,880 L231,883 L216,887 L200,891 L189,895 L173,901 L157,909 L141,920 L131,927 L123,934 L102,955 L92,970 L81,994 L76,1009 L74,1018 L76,1022 L78,1023 L90,1024 L150,1026 L246,1029 L347,1032 L394,1033 L485,1036 L523,1037 L546,1037 L556,1033 L572,1024 L586,1016 L607,1004 L630,991 L648,981 L661,973 L664,972 L703,972 L714,973 L715,974 L715,1037 L719,1041 L727,1042 L793,1044 L918,1047 L967,1047 L972,1042 L975,991 L978,981 L985,967 L989,955 L994,942 L1002,911 L1005,896 L1007,875 L1008,871 L1009,847 L1008,811 L1004,778 L997,746 L989,722 L983,708 L979,705 Z " fill="#000000" transform="translate(16,0)"/>
</svg>
