<?xml version="1.0" encoding="UTF-8"?>
<!-- Generator: visioncortex VTracer 0.6.12 -->
<svg version="1.1" xmlns="http://www.w3.org/2000/svg" width="1137" height="1140">
<path d="M0,0 L499,0 L500,7 L503,71 L504,102 L505,118 L506,148 L508,268 L510,372 L511,532 L512,547 L512,1069 L510,1069 L509,1057 L508,974 L507,920 L506,898 L503,750 L502,680 L500,629 L500,609 L499,553 L498,386 L496,255 L495,207 L494,167 L493,115 L491,77 L490,31 L489,15 L487,6 L484,4 L405,4 L303,7 L206,9 L164,10 L155,11 L125,11 L34,13 L-25,15 L-75,16 L-146,18 L-226,20 L-282,22 L-301,22 L-384,25 L-421,26 L-426,27 L-453,27 L-476,28 L-512,28 L-521,29 L-523,30 L-530,30 L-536,28 L-603,32 L-606,34 L-617,33 L-625,37 L-625,20 L-611,18 L-590,17 L-497,14 L-478,14 L-413,12 L-395,12 L-330,10 L-308,9 L-220,7 L-203,6 L-147,5 L-97,3 L-43,2 L-11,1 Z " fill="#000000" transform="translate(625,0)"/>
<path d="M0,0 L1,0 L1,6 L0,6 Z " fill="#000000" transform="translate(0,214)"/>
<path d="M0,0 L9,1 L23,7 L36,12 L52,18 L78,28 L103,37 L126,46 L158,58 L173,63 L185,68 L200,74 L216,80 L234,87 L250,93 L268,100 L285,106 L302,113 L323,120 L326,122 L336,125 L346,129 L379,142 L409,153 L425,159 L444,166 L469,176 L489,183 L498,188 L500,190 L500,197 L494,215 L488,230 L482,246 L476,260 L473,270 L470,273 L463,273 L447,267 L437,263 L421,257 L408,252 L398,248 L385,243 L369,237 L360,234 L341,226 L321,219 L314,216 L297,209 L281,203 L260,195 L251,191 L232,184 L216,178 L188,167 L171,161 L163,157 L155,155 L143,150 L134,147 L115,139 L101,134 L78,125 L62,119 L41,111 L21,103 L7,98 L-7,92 L-14,89 L-27,84 L-30,81 L-29,70 L-24,58 L-17,38 L-10,20 L-4,5 Z M303,124 L301,129 L301,135 L303,137 L309,137 L313,134 L311,128 L308,125 Z " fill="#000000" transform="translate(527,234)"/>
<path d="M0,0 L10,3 L31,12 L33,14 L33,20 L26,31 L19,41 L10,53 L2,65 L-8,79 L-21,97 L-29,108 L-33,114 L-42,124 L-43,125 L-64,125 L-66,123 L-68,116 L-68,93 L-66,84 L-56,71 L-46,58 L-38,46 L-24,28 L-18,20 L-7,6 Z " fill="#000000" transform="translate(510,336)"/>
<path d="M0,0 L7,0 L21,5 L31,9 L39,13 L40,20 L31,37 L23,51 L17,59 L10,73 L0,90 L-12,110 L-20,122 L-24,123 L-29,118 L-34,112 L-39,107 L-42,106 L-65,105 L-66,104 L-66,97 L-56,81 L-46,66 L-38,55 L-31,44 L-21,29 L-17,24 L-13,17 L-6,7 Z " fill="#000000" transform="translate(556,356)"/>
<path d="M0,0 L8,0 L27,8 L30,11 L30,18 L17,47 L13,55 L9,65 L5,75 L2,79 L-4,94 L-9,103 L-20,127 L-26,135 L-36,137 L-46,138 L-55,138 L-61,133 L-70,119 L-70,113 L-61,97 L-50,80 L-43,69 L-38,61 L-33,52 L-21,33 L-12,18 L-3,3 Z " fill="#000000" transform="translate(613,378)"/>
<path d="M0,0 L10,2 L22,7 L34,13 L35,20 L31,32 L25,47 L15,72 L6,96 L-1,113 L-5,123 L-8,129 L-13,131 L-18,126 L-25,118 L-30,115 L-46,116 L-51,113 L-51,107 L-42,88 L-38,80 L-34,70 L-29,60 L-24,47 L-17,32 L-10,16 L-3,3 Z " fill="#000000" transform="translate(661,395)"/>
<path d="M0,0 L6,0 L22,6 L34,12 L35,13 L35,21 L28,42 L20,68 L9,98 L4,113 L1,125 L-6,141 L-9,144 L-30,150 L-36,150 L-44,143 L-52,131 L-52,124 L-47,111 L-43,100 L-39,91 L-28,64 L-20,45 L-15,31 L-9,16 L-3,2 Z " fill="#000000" transform="translate(715,417)"/>
<path d="M0,0 L10,3 L22,8 L32,13 L35,18 L34,25 L29,46 L22,72 L14,102 L10,116 L4,133 L-1,133 L-6,128 L-15,119 L-27,119 L-34,120 L-38,116 L-37,107 L-33,94 L-26,70 L-20,52 L-12,25 L-6,7 L-3,1 Z " fill="#000000" transform="translate(769,437)"/>
<path d="M0,0 L7,1 L21,6 L37,14 L38,16 L38,24 L33,53 L27,83 L23,107 L19,126 L17,139 L14,147 L10,150 L-5,154 L-10,155 L-17,155 L-22,151 L-33,135 L-34,132 L-34,124 L-30,106 L-23,79 L-18,58 L-14,42 L-9,23 L-5,6 L-2,1 Z " fill="#000000" transform="translate(817,457)"/>
<path d="M0,0 L6,0 L11,3 L21,6 L36,13 L38,16 L38,30 L35,52 L33,68 L31,87 L27,113 L25,130 L22,139 L19,140 L8,131 L1,125 L-5,125 L-12,126 L-22,124 L-23,122 L-23,114 L-19,89 L-13,55 L-7,20 L-5,8 Z " fill="#000000" transform="translate(869,477)"/>
<path d="M0,0 L9,1 L27,8 L34,13 L35,21 L33,82 L31,122 L27,130 L18,140 L9,150 L3,150 L-7,141 L-13,133 L-14,131 L-14,111 L-11,84 L-7,40 L-4,11 L-2,2 Z " fill="#000000" transform="translate(923,498)"/>
<path d="M0,0 L4,1 L24,12 L40,21 L61,32 L69,37 L69,44 L59,63 L49,81 L44,91 L40,96 L39,106 L42,109 L51,112 L58,111 L68,93 L81,69 L91,53 L98,50 L114,58 L129,66 L130,70 L126,81 L116,100 L110,111 L106,119 L106,126 L111,127 L116,129 L122,128 L125,127 L127,122 L137,105 L144,91 L151,80 L154,77 L162,78 L178,83 L187,87 L189,90 L188,96 L173,124 L169,133 L170,138 L171,139 L188,140 L193,135 L200,124 L206,113 L212,103 L216,96 L220,93 L233,94 L265,98 L305,98 L322,97 L340,94 L351,90 L367,87 L387,87 L401,89 L417,95 L428,102 L436,109 L443,117 L448,123 L456,139 L460,148 L465,166 L467,181 L468,210 L473,215 L477,223 L483,241 L483,252 L470,257 L451,262 L437,266 L428,268 L426,269 L417,270 L413,272 L399,274 L376,279 L369,279 L349,283 L332,285 L330,286 L305,289 L282,292 L275,293 L256,294 L242,296 L205,299 L180,300 L153,302 L123,303 L91,304 L54,305 L22,302 L-5,297 L-16,295 L-29,293 L-33,291 L-45,289 L-73,283 L-81,283 L-85,286 L-87,298 L-91,304 L-162,304 L-204,303 L-212,302 L-237,302 L-288,300 L-294,300 L-299,299 L-323,299 L-331,298 L-351,297 L-356,295 L-359,292 L-360,289 L-360,264 L-358,249 L-355,243 L-357,237 L-363,228 L-369,216 L-375,198 L-378,184 L-380,160 L-380,138 L-375,106 L-369,83 L-357,55 L-351,44 L-345,33 L-341,27 L-338,25 L-332,25 L-323,31 L-315,35 L-299,43 L-282,52 L-269,57 L-259,61 L-246,65 L-228,69 L-222,71 L-205,74 L-188,76 L-166,77 L-142,77 L-128,76 L-103,71 L-91,68 L-74,62 L-48,49 L-37,41 L-27,32 L-16,21 L-4,4 Z M30,103 L30,105 L32,105 L32,103 Z M377,117 L373,120 L372,126 L376,131 L388,134 L397,136 L407,139 L413,138 L416,134 L416,128 L413,125 L401,120 L387,117 Z M-332,131 L-335,135 L-337,146 L-338,162 L-336,180 L-332,188 L-327,187 L-324,184 L-324,134 L-327,131 Z M28,131 L21,134 L18,137 L18,149 L20,152 L22,152 L22,154 L27,156 L34,155 L39,150 L40,141 L37,135 L32,131 Z M93,150 L87,154 L84,160 L86,169 L91,173 L96,174 L103,172 L107,167 L108,160 L103,152 L99,150 Z M161,163 L156,165 L152,170 L151,177 L154,183 L160,187 L168,186 L172,184 L175,178 L175,171 L172,166 L165,163 Z M465,218 L464,219 L455,221 L455,224 L459,225 L470,222 L471,219 L470,218 Z M442,223 L438,226 L439,227 L446,227 L447,225 L446,223 Z M431,226 L416,227 L414,228 L388,231 L359,235 L343,236 L327,238 L304,240 L301,241 L277,242 L256,244 L206,247 L160,249 L144,250 L80,252 L67,253 L-2,254 L-33,255 L-167,255 L-298,252 L-335,250 L-350,251 L-350,255 L-348,256 L-324,256 L-289,258 L-277,258 L-229,260 L-193,261 L-175,262 L-61,264 L45,263 L96,262 L122,261 L169,259 L226,256 L298,250 L336,245 L351,243 L381,239 L397,236 L421,232 L434,228 L435,226 Z " fill="#000000" transform="translate(498,739)"/>
<path d="M0,0 L2,0 L2,13 L0,12 Z " fill="#000000" transform="translate(1135,1075)"/>
<path d="M0,0 L2,2 L3,24 L4,117 L5,179 L7,250 L7,265 L8,300 L9,317 L10,390 L11,425 L12,438 L15,528 L16,587 L17,618 L17,637 L18,671 L19,733 L20,751 L21,797 L22,878 L24,902 L26,909 L27,910 L73,910 L117,908 L198,906 L233,905 L313,904 L350,903 L403,902 L424,902 L498,901 L527,900 L556,899 L609,898 L719,895 L746,895 L800,894 L971,889 L1012,888 L1040,887 L1059,886 L1097,885 L1107,884 L1119,884 L1123,887 L1131,882 L1133,882 L1135,871 L1137,871 L1137,895 L1129,896 L1123,894 L1119,897 L1107,897 L1092,899 L1013,901 L933,904 L919,904 L900,905 L825,907 L798,908 L765,908 L695,909 L669,910 L625,911 L544,913 L542,914 L536,914 L535,913 L527,913 L526,914 L11,914 L9,901 L8,829 L7,782 L6,771 L6,751 L3,622 L2,552 L1,517 L0,514 Z " fill="#000000" transform="translate(0,226)"/>
</svg>
