<?xml version="1.0" encoding="UTF-8"?>
<!-- Generator: visioncortex VTracer 0.6.12 -->
<svg version="1.1" xmlns="http://www.w3.org/2000/svg" width="1095" height="1098">
<path d="M0,0 L92,0 L91,2 L52,5 L34,7 L22,9 L8,12 L-4,14 L-19,18 L-29,20 L-43,24 L-57,29 L-67,32 L-75,36 L-89,41 L-103,46 L-112,51 L-122,55 L-132,60 L-153,70 L-167,78 L-172,82 L-183,89 L-198,99 L-210,108 L-219,114 L-228,121 L-239,130 L-252,142 L-260,149 L-269,157 L-271,157 L-273,162 L-281,170 L-286,175 L-296,186 L-303,194 L-312,205 L-321,216 L-331,229 L-337,239 L-349,257 L-361,277 L-369,293 L-377,307 L-381,317 L-389,333 L-394,344 L-397,352 L-406,377 L-412,398 L-417,416 L-421,436 L-424,451 L-428,466 L-431,490 L-433,512 L-435,515 L-435,421 L-433,421 L-431,411 L-426,390 L-421,379 L-416,362 L-411,348 L-406,336 L-399,320 L-389,301 L-385,291 L-381,286 L-375,275 L-362,252 L-355,242 L-351,236 L-342,223 L-333,211 L-330,206 L-328,206 L-326,202 L-318,192 L-304,177 L-295,166 L-288,158 L-281,152 L-278,151 L-274,145 L-265,137 L-261,133 L-253,126 L-239,114 L-231,108 L-226,106 L-224,102 L-211,93 L-205,90 L-197,84 L-181,74 L-167,65 L-159,61 L-153,57 L-137,49 L-121,41 L-111,37 L-99,32 L-81,25 L-72,22 L-63,18 L-47,14 L-38,10 L-22,6 L-12,4 L-1,1 Z " fill="#000000" transform="translate(435,0)"/>
<path d="M0,0 L92,0 L96,2 L105,4 L126,9 L151,17 L160,20 L171,24 L182,29 L193,33 L207,39 L217,43 L231,50 L236,53 L240,56 L247,59 L263,68 L273,74 L282,80 L289,84 L298,91 L310,99 L321,107 L327,112 L338,121 L353,134 L366,146 L371,151 L386,166 L390,171 L395,175 L401,183 L405,188 L411,193 L417,202 L426,213 L434,224 L441,235 L447,246 L454,256 L457,262 L463,273 L467,278 L475,294 L483,310 L491,329 L499,347 L502,356 L506,369 L509,374 L513,390 L515,395 L517,403 L522,424 L524,427 L524,500 L522,499 L518,465 L512,437 L509,419 L504,403 L499,386 L496,376 L489,356 L486,347 L483,342 L480,334 L472,318 L465,302 L457,286 L455,282 L455,277 L449,274 L444,264 L439,254 L432,244 L425,233 L416,221 L409,212 L400,202 L389,188 L381,179 L374,173 L367,165 L352,149 L342,141 L338,136 L329,129 L319,121 L310,114 L300,106 L289,98 L275,89 L265,83 L252,75 L239,67 L226,61 L215,55 L190,44 L166,35 L157,32 L144,27 L105,17 L85,12 L76,10 L50,6 L40,6 L34,4 L5,3 L0,1 Z " fill="#000000" transform="translate(571,0)"/>
<path d="M0,0 L11,0 L29,5 L48,11 L58,14 L62,16 L73,18 L81,21 L90,24 L100,26 L115,31 L140,39 L156,44 L165,46 L166,51 L160,53 L143,58 L128,61 L119,62 L110,56 L101,53 L92,51 L77,51 L65,54 L57,58 L48,64 L38,74 L35,79 L33,81 L28,80 L22,75 L11,71 L-3,71 L-15,76 L-21,81 L-26,80 L-32,71 L-40,61 L-55,52 L-60,50 L-78,47 L-86,48 L-99,51 L-111,58 L-112,59 L-123,58 L-146,51 L-159,47 L-161,43 L-157,40 L-148,37 L-134,34 L-111,28 L-99,25 L-94,23 L-79,20 L-54,14 L-38,9 L-28,7 L-10,3 Z " fill="#000000" transform="translate(539,395)"/>
<path d="M0,0 L9,1 L18,3 L29,6 L36,9 L53,13 L79,21 L88,25 L89,44 L97,58 L102,63 L102,67 L91,71 L63,78 L37,85 L18,90 L9,92 L2,94 L0,104 L-1,123 L-2,213 L-3,247 L-4,269 L-4,289 L-5,313 L-7,315 L-14,314 L-28,310 L-38,307 L-48,305 L-58,301 L-67,299 L-82,294 L-88,292 L-95,292 L-103,288 L-108,286 L-116,284 L-139,277 L-156,272 L-170,268 L-177,264 L-178,263 L-178,215 L-177,182 L-176,98 L-175,62 L-175,54 L-173,45 L-164,41 L-149,38 L-139,35 L-113,28 L-97,24 L-86,21 L-64,17 L-51,12 L-27,7 L-9,2 Z " fill="#000000" transform="translate(311,453)"/>
<path d="M0,0 L8,1 L20,5 L33,8 L53,15 L66,19 L82,23 L102,29 L112,32 L134,39 L143,41 L146,43 L160,46 L167,49 L177,51 L183,54 L186,57 L185,120 L185,145 L184,187 L183,252 L182,268 L179,273 L174,276 L158,279 L133,286 L112,291 L89,297 L72,301 L57,305 L40,309 L36,311 L26,313 L13,317 L8,317 L6,315 L5,308 L6,259 L6,237 L7,156 L8,106 L5,97 L-2,94 L-15,91 L-25,87 L-41,83 L-54,79 L-68,75 L-85,70 L-92,67 L-93,64 L-86,56 L-81,47 L-79,29 L-79,23 L-74,19 L-57,15 L-48,12 L-36,9 L-23,6 L-7,2 Z " fill="#000000" transform="translate(764,460)"/>
<path d="M0,0 L8,1 L23,6 L24,10 L15,12 L6,11 L-1,4 Z " fill="#000000" transform="translate(452,494)"/>
<path d="M0,0 L5,1 L5,6 L-4,14 L-9,15 L-19,11 L-20,7 L-11,4 L-2,1 Z " fill="#000000" transform="translate(623,495)"/>
<path d="M0,0 Z " fill="#000000" transform="translate(0,516)"/>
<path d="M0,0 L4,2 L3,7 L-7,25 L-14,36 L-16,43 L-15,47 L-10,48 L24,48 L30,44 L38,32 L42,27 L48,16 L55,5 L59,4 L64,12 L69,22 L74,31 L84,47 L93,50 L113,51 L122,49 L123,48 L123,41 L114,22 L108,10 L110,6 L119,7 L142,14 L151,16 L157,19 L166,21 L185,27 L200,31 L211,35 L231,40 L235,44 L236,48 L236,90 L235,112 L235,153 L234,185 L233,232 L232,257 L228,261 L221,264 L194,270 L185,273 L173,276 L162,279 L152,281 L138,285 L133,287 L119,290 L109,293 L93,297 L68,303 L57,306 L55,307 L47,307 L32,302 L13,297 L6,294 L-4,292 L-19,287 L-27,285 L-37,281 L-62,274 L-83,268 L-103,263 L-111,260 L-126,255 L-131,251 L-131,192 L-130,162 L-130,139 L-129,120 L-129,79 L-128,50 L-128,40 L-125,34 L-118,30 L-113,28 L-102,26 L-66,17 L-40,11 L-30,8 L-19,5 L-7,3 Z " fill="#000000" transform="translate(485,530)"/>
<path d="M0,0 L2,1 L2,11 L3,18 L4,35 L8,60 L13,87 L17,106 L23,127 L26,135 L29,145 L35,162 L39,172 L43,182 L53,206 L59,216 L63,225 L72,241 L78,251 L83,260 L92,274 L99,284 L111,300 L119,311 L125,320 L132,327 L135,331 L135,333 L139,335 L153,350 L166,363 L174,370 L182,378 L193,387 L200,394 L209,401 L225,413 L225,415 L230,417 L235,421 L250,431 L256,435 L265,440 L271,444 L282,450 L286,453 L293,456 L309,464 L316,468 L324,471 L329,474 L338,477 L353,483 L362,486 L374,491 L389,496 L415,503 L425,505 L433,507 L443,509 L463,513 L498,517 L510,518 L512,520 L435,520 L434,519 L417,517 L410,514 L398,511 L383,507 L372,504 L356,498 L348,495 L318,482 L302,474 L281,464 L274,460 L259,451 L243,441 L238,437 L229,432 L219,425 L206,415 L197,408 L184,397 L171,385 L163,378 L143,358 L138,353 L130,344 L123,336 L115,326 L105,315 L98,304 L90,294 L78,276 L69,262 L58,243 L52,232 L43,215 L31,188 L27,180 L22,165 L9,127 L2,99 L0,91 Z " fill="#000000" transform="translate(0,578)"/>
<path d="M0,0 Z " fill="#000000" transform="translate(1094,602)"/>
<path d="M0,0 L1,0 L1,66 L0,68 L-1,77 L-4,87 L-9,103 L-17,129 L-26,153 L-31,164 L-34,173 L-40,183 L-44,193 L-53,210 L-60,221 L-69,237 L-79,254 L-85,265 L-92,273 L-103,288 L-109,296 L-117,305 L-124,313 L-131,322 L-142,333 L-147,338 L-154,345 L-162,352 L-175,365 L-183,370 L-191,378 L-206,389 L-210,393 L-221,400 L-229,406 L-238,412 L-246,418 L-265,429 L-276,435 L-297,446 L-312,453 L-327,459 L-341,465 L-355,469 L-360,472 L-380,479 L-400,485 L-415,488 L-430,490 L-430,492 L-500,492 L-500,490 L-478,488 L-466,486 L-451,484 L-436,482 L-418,477 L-407,475 L-400,472 L-390,470 L-380,467 L-371,464 L-362,461 L-346,455 L-337,451 L-325,446 L-295,432 L-283,426 L-277,423 L-272,419 L-259,412 L-245,403 L-230,393 L-222,387 L-211,378 L-205,374 L-191,362 L-178,351 L-170,344 L-144,318 L-138,310 L-133,306 L-125,296 L-117,287 L-110,278 L-103,268 L-99,263 L-94,254 L-87,245 L-81,235 L-77,227 L-70,216 L-66,208 L-59,194 L-51,178 L-44,164 L-41,155 L-37,147 L-31,130 L-26,118 L-22,103 L-16,86 L-9,51 L-3,17 L-2,5 Z " fill="#000000" transform="translate(1094,606)"/>
<path d="M0,0 Z " fill="#000000" transform="translate(513,1097)"/>
<path d="M0,0 L2,1 Z " fill="#000000" transform="translate(587,1097)"/>
</svg>
