<?xml version="1.0" encoding="UTF-8"?>
<!-- Generator: visioncortex VTracer 0.6.12 -->
<svg version="1.1" xmlns="http://www.w3.org/2000/svg" width="1143" height="1095">
<path d="M0,0 L8,0 L7,66 L6,271 L5,302 L5,434 L6,499 L6,900 L5,915 L4,1046 L5,1073 L5,1082 L7,1091 L11,1095 L0,1095 Z " fill="#000000" transform="translate(0,0)"/>
<path d="M0,0 L8,0 L8,1095 L-1,1095 L0,1089 L-1,1036 L0,999 L0,948 L1,895 L1,256 L3,137 L3,18 L2,4 Z " fill="#000000" transform="translate(1135,0)"/>
<path d="M0,0 L16,1 L32,5 L46,9 L54,15 L64,22 L75,34 L83,47 L90,68 L91,75 L91,87 L90,98 L86,111 L80,123 L74,131 L65,141 L57,148 L38,159 L21,163 L10,165 L-4,165 L-19,166 L-22,167 L-23,171 L-17,180 L-11,187 L-10,191 L-12,193 L-27,194 L-67,194 L-70,195 L-71,200 L-64,211 L-56,219 L-51,224 L-43,233 L-43,235 L-39,237 L-34,244 L-29,249 L-18,260 L-12,267 L-7,272 L8,287 L14,294 L21,300 L26,305 L31,309 L37,308 L45,302 L63,284 L68,279 L69,272 L65,264 L55,254 L47,244 L40,238 L33,230 L28,225 L28,223 L24,221 L12,208 L6,201 L7,196 L205,196 L208,199 L209,201 L210,213 L211,325 L211,413 L208,418 L207,419 L192,419 L175,420 L-57,420 L-72,419 L-75,417 L-76,395 L-76,302 L-77,288 L-77,208 L-80,191 L-82,186 L-86,184 L-91,178 L-99,171 L-103,168 L-109,168 L-119,176 L-128,187 L-134,195 L-136,201 L-137,208 L-137,269 L-136,398 L-137,416 L-140,420 L-170,419 L-202,420 L-250,420 L-263,419 L-288,419 L-383,420 L-418,419 L-420,417 L-421,371 L-421,312 L-422,221 L-422,205 L-419,198 L-414,197 L-309,197 L-221,196 L-219,200 L-228,209 L-237,220 L-244,228 L-252,235 L-260,244 L-266,251 L-271,256 L-279,264 L-283,271 L-282,278 L-273,288 L-263,298 L-255,305 L-248,311 L-242,310 L-237,307 L-230,299 L-217,286 L-210,278 L-201,268 L-192,259 L-183,248 L-167,232 L-161,224 L-150,212 L-144,204 L-143,202 L-143,196 L-145,195 L-183,195 L-187,194 L-203,194 L-206,191 L-200,183 L-193,174 L-193,168 L-196,166 L-223,166 L-248,161 L-263,155 L-278,145 L-288,136 L-294,128 L-302,114 L-306,102 L-308,86 L-308,77 L-304,57 L-296,41 L-288,30 L-280,21 L-264,11 L-245,3 L-238,1 L-220,1 L-203,3 L-191,7 L-178,14 L-166,23 L-158,31 L-151,39 L-146,44 L-135,56 L-129,61 L-122,69 L-115,76 L-110,80 L-105,79 L-93,68 L-84,59 L-77,51 L-68,42 L-61,34 L-54,26 L-44,18 L-30,9 L-25,6 Z M-201,14 L-202,19 L-201,22 L-198,22 L-197,17 L-199,14 Z M4,52 L-4,55 L-14,61 L-29,77 L-41,90 L-47,97 L-53,105 L-52,110 L-50,112 L-31,113 L-1,113 L16,111 L26,106 L34,96 L38,83 L36,73 L31,63 L24,57 L15,53 L11,52 Z M-232,54 L-240,59 L-246,62 L-250,67 L-254,76 L-255,86 L-252,97 L-244,107 L-234,112 L-224,114 L-200,114 L-166,113 L-162,111 L-162,105 L-168,97 L-183,81 L-192,71 L-199,65 L-203,60 L-214,54 Z M-386,266 L-386,270 L-381,270 L-381,267 Z " fill="#000000" transform="translate(675,168)"/>
<path d="M0,0 L10,0 L19,1 L197,1 L264,0 L272,2 L278,2 L280,4 L281,9 L281,48 L282,82 L282,182 L281,221 L277,224 L234,224 L213,225 L196,224 L0,224 L-2,221 L-2,179 L-3,170 L-3,3 Z " fill="#000000" transform="translate(258,645)"/>
<path d="M0,0 L20,1 L25,10 L30,11 L30,3 L32,1 L99,0 L262,0 L267,3 L268,7 L269,48 L270,52 L270,71 L269,76 L269,218 L267,223 L265,225 L87,225 L64,224 L-13,224 L-16,222 L-17,219 L-18,197 L-18,6 L-15,2 Z M13,195 L10,198 L10,201 L16,202 L18,201 L17,197 Z M-6,216 L-6,218 L-3,217 Z " fill="#000000" transform="translate(618,645)"/>
</svg>
