<?xml version="1.0" encoding="UTF-8"?>
<!-- Generator: visioncortex VTracer 0.6.12 -->
<svg version="1.1" xmlns="http://www.w3.org/2000/svg" width="1128" height="1122">
<path d="M0,0 L236,0 L238,2 L249,4 L264,8 L285,13 L302,18 L320,25 L330,29 L339,32 L367,45 L383,53 L393,59 L407,66 L416,72 L426,78 L447,92 L463,104 L475,113 L484,120 L492,126 L504,137 L513,144 L520,152 L536,168 L536,170 L540,172 L542,176 L546,178 L552,186 L560,194 L566,202 L574,213 L583,224 L590,234 L599,247 L609,263 L618,280 L624,291 L632,304 L638,318 L643,328 L647,337 L651,347 L655,357 L658,366 L664,384 L670,402 L676,425 L678,434 L679,435 L679,680 L677,680 L676,690 L671,708 L666,727 L659,747 L650,772 L642,790 L636,803 L632,810 L629,818 L619,836 L614,844 L609,853 L602,864 L594,877 L587,887 L577,901 L571,909 L561,922 L554,929 L547,937 L538,947 L526,961 L521,966 L510,975 L505,980 L498,987 L488,995 L477,1004 L467,1012 L457,1020 L445,1028 L435,1035 L426,1041 L413,1049 L402,1056 L388,1063 L383,1066 L368,1074 L342,1086 L321,1095 L298,1103 L279,1110 L265,1114 L258,1116 L248,1117 L244,1119 L234,1121 L233,1122 L-10,1122 L-16,1120 L-37,1115 L-55,1110 L-62,1107 L-72,1104 L-76,1102 L-84,1100 L-108,1090 L-116,1086 L-122,1083 L-126,1081 L-133,1079 L-152,1069 L-166,1062 L-175,1056 L-193,1046 L-200,1042 L-211,1034 L-221,1027 L-237,1015 L-243,1010 L-247,1006 L-254,1002 L-265,992 L-276,983 L-293,966 L-299,961 L-306,953 L-314,945 L-321,937 L-332,924 L-340,914 L-351,899 L-362,883 L-370,871 L-379,857 L-385,845 L-393,832 L-405,809 L-411,796 L-418,776 L-425,759 L-429,746 L-434,733 L-438,716 L-443,700 L-448,678 L-449,677 L-449,450 L-447,446 L-443,428 L-441,422 L-439,412 L-436,402 L-430,385 L-426,374 L-422,361 L-414,342 L-412,333 L-404,317 L-394,297 L-381,274 L-374,262 L-366,250 L-360,241 L-348,225 L-341,216 L-334,207 L-326,197 L-318,189 L-309,178 L-297,166 L-290,158 L-278,147 L-267,136 L-257,128 L-244,118 L-233,109 L-219,99 L-208,91 L-190,80 L-181,74 L-165,65 L-153,58 L-134,48 L-121,42 L-111,38 L-93,30 L-70,22 L-52,15 L-43,12 L-25,7 L-13,5 L-1,1 Z M116,211 L101,217 L84,224 L68,232 L65,236 L66,243 L70,253 L78,267 L84,281 L90,290 L95,302 L101,315 L110,339 L114,349 L116,354 L119,356 L124,355 L133,339 L141,323 L147,319 L149,310 L155,299 L166,280 L172,271 L176,264 L187,244 L186,238 L181,234 L159,224 L135,214 L124,211 Z M17,251 L4,256 L-8,260 L-21,267 L-23,272 L-19,276 L-13,281 L3,289 L13,295 L18,298 L34,308 L43,313 L52,319 L59,323 L63,321 L62,316 L56,305 L50,296 L42,278 L32,259 L27,253 L23,251 Z M231,257 L224,261 L214,275 L207,285 L194,302 L188,310 L183,318 L183,323 L186,324 L205,314 L220,305 L228,301 L242,294 L248,289 L263,283 L268,277 L266,272 L258,267 L244,261 L233,257 Z M-76,294 L-79,298 L-79,305 L-74,317 L-63,330 L-53,338 L-45,343 L-33,348 L-8,353 L5,355 L40,355 L41,351 L33,346 L15,338 L6,334 L-15,324 L-22,320 L-39,311 L-54,303 L-66,297 L-71,294 Z M322,298 L306,305 L292,312 L280,317 L270,323 L258,328 L248,333 L231,340 L219,345 L212,349 L211,354 L213,356 L231,357 L275,357 L284,356 L300,348 L310,341 L318,331 L322,325 L325,318 L327,309 L327,302 L323,298 Z M-126,307 L-140,313 L-149,316 L-161,321 L-181,329 L-190,332 L-216,342 L-219,344 L-228,347 L-246,354 L-251,360 L-253,371 L-254,385 L-255,433 L-256,487 L-256,510 L-257,540 L-258,623 L-260,711 L-260,753 L-256,759 L-240,769 L-231,773 L-215,782 L-191,795 L-177,803 L-161,811 L-145,820 L-126,830 L-124,832 L-116,835 L-107,840 L-101,842 L-95,841 L-92,835 L-91,804 L-90,782 L-88,648 L-87,624 L-87,589 L-86,540 L-84,458 L-82,448 L-66,439 L-49,431 L-37,425 L-15,415 L-8,412 L1,409 L13,405 L32,397 L39,394 L41,392 L40,388 L29,387 L-18,385 L-37,383 L-52,380 L-75,369 L-85,361 L-96,350 L-98,346 L-103,341 L-109,331 L-114,318 L-119,309 L-123,307 Z M369,315 L364,319 L357,335 L351,346 L343,356 L329,370 L313,380 L295,387 L285,389 L274,390 L248,390 L231,389 L206,385 L200,386 L199,390 L205,395 L235,409 L245,415 L248,417 L257,420 L264,424 L285,435 L295,440 L312,450 L314,450 L315,454 L315,547 L313,612 L313,645 L311,740 L310,800 L310,838 L312,845 L317,847 L330,842 L346,834 L362,826 L378,818 L394,810 L410,802 L426,794 L442,786 L467,773 L477,766 L480,759 L481,749 L482,638 L483,613 L483,579 L484,535 L485,454 L486,386 L486,370 L483,363 L475,357 L469,354 L460,351 L444,344 L425,336 L413,331 L394,323 L380,317 L373,315 Z M118,405 L110,414 L97,433 L84,452 L77,460 L67,474 L59,484 L50,495 L43,505 L32,519 L22,531 L12,544 L3,554 L1,556 L-4,555 L-11,547 L-19,540 L-24,533 L-23,528 L-15,517 L-7,508 L0,499 L0,497 L2,497 L12,484 L20,474 L28,465 L33,460 L40,453 L47,445 L54,437 L58,432 L58,427 L53,426 L39,433 L22,441 L1,450 L-9,455 L-25,463 L-39,470 L-43,475 L-44,479 L-45,496 L-46,559 L-47,596 L-48,670 L-50,754 L-51,817 L-52,858 L-50,869 L-45,873 L-27,883 L-13,891 L-7,894 L0,898 L29,913 L47,924 L58,930 L74,938 L90,946 L104,954 L114,952 L126,946 L136,942 L158,930 L174,922 L191,914 L210,904 L227,895 L238,889 L248,883 L262,876 L268,869 L269,865 L271,780 L272,719 L273,713 L272,709 L273,644 L274,607 L275,532 L276,508 L275,500 L275,486 L274,477 L269,472 L261,467 L252,463 L235,454 L224,447 L201,436 L191,430 L185,425 L178,420 L176,420 L175,417 L170,417 L171,422 L181,435 L189,446 L196,457 L200,464 L208,474 L215,484 L226,500 L232,508 L237,518 L240,521 L243,527 L249,534 L251,538 L251,544 L244,552 L236,560 L229,566 L224,565 L216,554 L200,531 L188,513 L180,501 L173,490 L169,485 L159,470 L149,454 L137,434 L127,413 L122,406 Z M-346,483 L-352,487 L-352,490 L-348,489 L-343,487 L-341,487 L-341,494 L-346,496 L-351,495 L-351,498 L-342,500 L-337,497 L-335,494 L-336,487 L-341,483 Z M560,521 L556,523 L557,526 L564,526 L565,521 Z M-157,1045 L-158,1046 L-158,1051 L-153,1050 L-152,1047 L-153,1045 Z " fill="#000000" transform="translate(449,0)"/>
</svg>
