<?xml version="1.0" encoding="UTF-8"?>
<!-- Generator: visioncortex VTracer 0.6.12 -->
<svg version="1.1" xmlns="http://www.w3.org/2000/svg" width="1125" height="1128">
<path d="M0,0 L498,0 L496,2 L489,3 L481,2 L428,3 L359,3 L257,4 L82,4 L39,6 L16,8 L3,11 L-14,18 L-30,27 L-41,36 L-50,43 L-60,54 L-73,74 L-79,87 L-84,105 L-86,106 L-86,75 L-72,51 L-60,38 L-52,31 L-42,22 L-30,15 L-26,12 L-10,4 Z " fill="#000000" transform="translate(86,0)"/>
<path d="M0,0 L7,0 L5,2 L0,1 Z " fill="#000000" transform="translate(590,0)"/>
<path d="M0,0 L5,0 L5,1 L0,1 Z " fill="#000000" transform="translate(618,0)"/>
<path d="M0,0 L3,1 Z " fill="#000000" transform="translate(628,0)"/>
<path d="M0,0 Z " fill="#000000" transform="translate(656,0)"/>
<path d="M0,0 L40,0 L40,2 L49,5 L65,15 L73,22 L81,29 L87,35 L87,37 L89,37 L95,45 L101,55 L108,71 L113,83 L118,102 L122,118 L122,745 L120,744 L119,739 L119,711 L118,642 L117,501 L116,457 L116,419 L115,296 L115,255 L114,223 L114,172 L111,131 L108,112 L103,91 L99,80 L92,63 L87,54 L77,41 L67,31 L58,24 L46,16 L33,10 L20,6 L16,4 L1,2 Z " fill="#000000" transform="translate(1003,0)"/>
<path d="M0,0 L6,1 L9,4 L15,22 L19,32 L23,45 L27,55 L33,73 L37,81 L40,88 L44,88 L46,79 L49,72 L59,42 L63,31 L66,19 L72,3 L74,1 L83,1 L111,9 L121,13 L131,16 L136,19 L136,27 L131,41 L124,67 L119,80 L115,98 L114,104 L120,104 L134,94 L145,86 L157,77 L162,74 L172,66 L176,67 L181,72 L193,87 L205,103 L213,114 L214,121 L205,129 L193,138 L180,148 L166,159 L155,168 L153,170 L152,175 L194,176 L215,176 L219,179 L220,182 L221,265 L222,360 L223,395 L224,545 L225,638 L226,676 L226,751 L224,755 L217,757 L169,757 L161,756 L159,757 L113,758 L96,758 L63,759 L-124,759 L-127,755 L-128,752 L-129,701 L-130,618 L-130,548 L-131,534 L-132,435 L-132,386 L-133,319 L-134,246 L-134,183 L-131,180 L-129,179 L-104,178 L-72,177 L-69,176 L-70,170 L-81,162 L-81,160 L-86,158 L-96,151 L-106,144 L-120,134 L-132,125 L-134,123 L-134,116 L-124,102 L-117,91 L-107,78 L-101,70 L-98,68 L-92,69 L-76,80 L-58,93 L-44,102 L-36,108 L-31,110 L-30,105 L-35,91 L-40,74 L-45,60 L-52,39 L-56,29 L-56,22 L-51,18 L-29,10 L-18,6 L-9,4 Z M107,246 L83,247 L79,250 L78,253 L78,300 L79,332 L82,336 L85,337 L123,338 L147,337 L151,333 L152,310 L151,254 L148,247 L146,246 Z M-13,247 L-57,248 L-62,251 L-63,253 L-63,319 L-62,334 L-57,339 L4,339 L7,336 L9,331 L9,286 L8,256 L6,249 L5,248 Z M-45,407 L-56,408 L-61,413 L-61,512 L-60,568 L-59,665 L-58,683 L-55,689 L-52,690 L7,690 L11,688 L13,684 L13,609 L12,531 L11,458 L10,415 L8,411 L3,408 L-32,408 Z M93,407 L83,408 L80,412 L79,416 L79,441 L80,522 L81,565 L82,665 L83,681 L85,686 L88,688 L94,689 L139,689 L151,688 L156,683 L156,598 L155,545 L154,438 L153,413 L150,408 L148,407 Z " fill="#000000" transform="translate(740,162)"/>
<path d="M0,0 L9,0 L17,6 L25,22 L30,32 L35,46 L35,52 L30,60 L25,64 L-4,77 L-18,84 L-31,89 L-40,93 L-61,103 L-78,111 L-94,118 L-109,124 L-124,132 L-142,139 L-158,147 L-170,152 L-200,166 L-209,170 L-236,182 L-256,191 L-268,197 L-299,209 L-311,211 L-329,210 L-341,207 L-357,197 L-367,189 L-375,178 L-380,170 L-384,158 L-386,134 L-387,82 L-387,33 L-386,18 L-381,15 L-297,14 L-254,14 L-251,16 L-249,21 L-248,66 L-247,89 L-243,98 L-239,102 L-232,103 L-219,100 L-190,86 L-179,82 L-167,76 L-152,70 L-139,64 L-123,56 L-108,50 L-91,42 L-78,37 L-71,33 L-58,27 L-50,24 L-34,16 L-14,6 L-6,3 Z " fill="#000000" transform="translate(534,165)"/>
<path d="M0,0 L5,0 L7,2 L8,9 L9,56 L11,61 L17,63 L103,63 L106,62 L113,62 L119,65 L121,74 L121,123 L122,131 L123,283 L124,380 L125,435 L125,453 L122,460 L109,467 L103,474 L101,483 L101,496 L103,503 L111,512 L111,514 L117,516 L123,520 L125,522 L125,571 L120,576 L12,577 L-34,578 L-54,578 L-134,579 L-174,578 L-189,575 L-201,570 L-212,564 L-221,557 L-233,546 L-242,533 L-246,524 L-250,516 L-254,499 L-256,467 L-256,432 L-257,327 L-257,308 L-259,191 L-259,166 L-256,147 L-250,132 L-241,118 L-228,105 L-217,98 L-198,88 L-181,81 L-169,76 L-155,69 L-146,65 L-134,60 L-126,56 L-119,53 L-107,47 L-97,43 L-87,39 L-80,35 L-70,31 L-61,26 L-52,23 L-39,17 L-21,9 L-6,3 Z M22,128 L13,130 L10,134 L9,141 L9,220 L10,274 L10,345 L7,350 L-2,354 L-23,364 L-30,367 L-42,373 L-55,378 L-62,382 L-69,384 L-81,389 L-85,392 L-94,396 L-99,400 L-98,404 L-95,405 L-62,406 L-20,406 L30,405 L42,405 L55,404 L59,399 L59,310 L56,134 L51,129 L44,128 Z M-11,467 L-27,468 L-96,468 L-169,470 L-178,474 L-183,478 L-187,485 L-187,500 L-182,508 L-173,513 L-168,515 L-121,514 L-38,514 L-32,513 L14,513 L28,512 L30,510 L29,499 L28,496 L28,484 L30,471 L28,469 L22,468 L11,468 Z " fill="#000000" transform="translate(409,346)"/>
<path d="M0,0 L1,4 Z " fill="#000000" transform="translate(0,404)"/>
<path d="M0,0 L2,2 L2,9 L0,10 Z " fill="#000000" transform="translate(0,420)"/>
<path d="M0,0 Z " fill="#000000" transform="translate(0,447)"/>
<path d="M0,0 Z " fill="#000000" transform="translate(0,457)"/>
<path d="M0,0 L1,0 L1,5 L0,5 Z " fill="#000000" transform="translate(0,493)"/>
<path d="M0,0 L1,4 Z " fill="#000000" transform="translate(0,499)"/>
<path d="M0,0 L2,2 L3,48 L4,208 L4,355 L5,497 L9,520 L13,533 L18,546 L25,559 L33,570 L42,580 L55,592 L64,598 L71,602 L80,607 L94,611 L116,615 L117,617 L78,617 L66,612 L55,605 L42,594 L34,587 L24,576 L16,564 L6,547 L3,540 L1,533 L0,532 Z " fill="#000000" transform="translate(0,511)"/>
<path d="M0,0 L1,0 L1,43 L-1,41 L-1,1 Z " fill="#000000" transform="translate(1124,746)"/>
<path d="M0,0 L1,0 L1,5 L-1,4 Z " fill="#000000" transform="translate(1124,795)"/>
<path d="M0,0 L1,0 L1,8 L-1,6 Z " fill="#000000" transform="translate(1124,813)"/>
<path d="M0,0 L1,0 L1,40 L-1,40 L-3,46 L-12,61 L-20,71 L-29,82 L-40,92 L-52,100 L-61,106 L-75,114 L-88,119 L-90,121 L-143,121 L-142,119 L-138,118 L-120,117 L-104,114 L-100,112 L-92,110 L-73,101 L-58,91 L-42,79 L-31,68 L-22,55 L-12,39 L-9,33 L-4,16 L-1,1 Z " fill="#000000" transform="translate(1124,1007)"/>
</svg>
