<?xml version="1.0" encoding="UTF-8"?>
<!-- Generator: visioncortex VTracer 0.6.12 -->
<svg version="1.1" xmlns="http://www.w3.org/2000/svg" width="834" height="1152">
<path d="M0,0 L17,1 L38,0 L57,1 L81,1 L117,2 L250,2 L267,3 L289,3 L296,4 L304,4 L308,3 L360,3 L394,4 L468,5 L477,6 L516,5 L560,5 L574,6 L579,3 L583,4 L584,5 L674,5 L683,6 L807,6 L816,7 L816,80 L696,80 L685,79 L576,79 L502,78 L446,77 L442,79 L440,85 L440,118 L441,133 L444,138 L452,145 L461,151 L471,159 L482,166 L489,172 L497,177 L505,184 L529,200 L534,205 L544,211 L554,218 L563,224 L563,226 L565,226 L569,233 L569,241 L566,246 L558,251 L542,252 L542,255 L550,262 L552,268 L551,275 L548,281 L543,285 L539,287 L530,287 L522,282 L519,278 L519,266 L523,259 L532,254 L533,252 L523,251 L498,251 L499,255 L505,260 L508,267 L508,274 L506,279 L499,285 L497,286 L487,286 L480,283 L477,279 L475,274 L476,266 L479,259 L485,255 L490,254 L490,251 L453,250 L453,254 L458,256 L462,261 L464,267 L464,274 L461,280 L455,285 L449,286 L441,285 L435,281 L432,276 L432,264 L439,256 L442,253 L443,250 L411,250 L413,254 L418,259 L420,263 L420,274 L416,281 L410,285 L405,286 L396,284 L390,280 L387,275 L387,265 L392,255 L394,253 L394,250 L365,250 L369,254 L374,259 L376,266 L375,276 L370,282 L364,285 L353,284 L348,281 L344,275 L343,267 L347,256 L353,252 L355,252 L355,249 L322,249 L320,251 L328,258 L332,266 L332,274 L328,280 L324,284 L313,286 L303,281 L300,277 L299,274 L299,266 L302,259 L311,251 L312,249 L290,249 L280,248 L283,255 L288,261 L289,270 L286,276 L279,282 L277,283 L267,283 L260,279 L256,271 L257,262 L264,254 L266,252 L266,249 L251,248 L243,245 L240,241 L239,238 L239,229 L247,219 L256,214 L260,210 L268,206 L282,197 L290,192 L296,191 L299,187 L304,185 L306,180 L310,177 L315,175 L322,168 L336,159 L350,150 L361,144 L368,138 L370,132 L370,86 L369,79 L366,77 L357,76 L333,76 L237,75 L181,74 L-13,74 L-18,73 L-18,1 Z " fill="#000000" transform="translate(18,36)"/>
<path d="M0,0 L7,1 L12,6 L16,12 L16,23 L9,31 L3,33 L-6,32 L-12,27 L-15,21 L-15,13 L-13,8 L-8,3 Z " fill="#000000" transform="translate(275,330)"/>
<path d="M0,0 L9,1 L15,5 L18,9 L19,12 L19,21 L13,29 L9,31 L-3,31 L-11,25 L-13,20 L-12,10 L-6,3 Z " fill="#000000" transform="translate(321,332)"/>
<path d="M0,0 L7,1 L15,5 L19,11 L20,20 L17,27 L14,30 L9,33 L0,33 L-7,30 L-11,25 L-13,22 L-13,15 L-10,8 L-2,1 Z " fill="#000000" transform="translate(418,332)"/>
<path d="M0,0 L10,0 L16,3 L20,8 L22,13 L21,22 L14,30 L11,31 L0,31 L-6,27 L-10,22 L-10,12 L-5,4 Z " fill="#000000" transform="translate(367,333)"/>
<path d="M0,0 L6,2 L15,6 L18,14 L18,21 L14,29 L7,33 L-1,34 L-9,30 L-14,24 L-15,16 L-12,8 L-6,2 Z " fill="#000000" transform="translate(467,332)"/>
<path d="M0,0 L8,0 L13,5 L18,11 L18,22 L12,29 L7,32 L-4,32 L-10,28 L-14,22 L-14,14 L-10,5 Z " fill="#000000" transform="translate(516,334)"/>
<path d="M0,0 L7,0 L15,5 L17,9 L17,23 L12,29 L7,32 L-6,32 L-12,28 L-16,20 L-15,12 L-11,5 L-4,1 Z " fill="#000000" transform="translate(565,334)"/>
<path d="M0,0 L8,0 L16,4 L20,10 L21,13 L21,22 L17,28 L12,32 L9,33 L1,33 L-7,28 L-11,22 L-11,13 L-7,5 L-2,1 Z " fill="#000000" transform="translate(257,378)"/>
<path d="M0,0 L7,0 L16,3 L21,9 L21,20 L17,27 L12,31 L-1,31 L-9,26 L-11,21 L-11,9 L-7,4 Z " fill="#000000" transform="translate(309,380)"/>
<path d="M0,0 L9,0 L15,3 L21,10 L22,19 L18,27 L13,31 L4,32 L-2,30 L-8,25 L-10,21 L-10,13 L-6,4 Z " fill="#000000" transform="translate(364,380)"/>
<path d="M0,0 L10,0 L18,6 L22,14 L22,20 L18,26 L13,30 L11,31 L2,31 L-6,27 L-9,23 L-10,20 L-10,13 L-6,5 Z " fill="#000000" transform="translate(415,381)"/>
<path d="M0,0 L11,0 L17,4 L22,10 L22,22 L18,28 L10,32 L2,32 L-4,29 L-9,24 L-10,21 L-10,13 L-7,6 L-2,1 Z " fill="#000000" transform="translate(467,381)"/>
<path d="M0,0 L9,0 L15,3 L20,8 L21,10 L21,18 L18,25 L12,30 L10,31 L0,31 L-6,27 L-10,22 L-11,13 L-9,7 L-6,2 Z " fill="#000000" transform="translate(523,383)"/>
<path d="M0,0 L13,0 L18,4 L22,12 L22,19 L19,25 L14,29 L10,31 L-2,31 L-10,24 L-11,22 L-11,11 L-5,3 Z " fill="#000000" transform="translate(575,383)"/>
<path d="M0,0 L12,0 L18,4 L22,12 L22,21 L18,27 L12,32 L-1,32 L-7,27 L-10,19 L-9,10 L-5,3 Z " fill="#000000" transform="translate(240,432)"/>
<path d="M0,0 L10,1 L17,9 L18,18 L15,25 L7,31 L1,32 L-8,29 L-13,23 L-14,21 L-14,13 L-8,4 Z " fill="#000000" transform="translate(301,433)"/>
<path d="M0,0 L9,1 L14,4 L19,13 L19,20 L14,28 L9,31 L1,32 L-7,29 L-12,23 L-13,20 L-13,13 L-9,5 Z " fill="#000000" transform="translate(361,434)"/>
<path d="M0,0 L10,0 L18,7 L21,13 L21,20 L18,26 L12,31 L2,32 L-4,29 L-9,24 L-10,22 L-10,11 L-6,4 Z " fill="#000000" transform="translate(416,434)"/>
<path d="M0,0 L9,1 L16,9 L18,14 L18,21 L15,26 L10,30 L7,32 L-5,32 L-12,26 L-15,20 L-13,9 L-9,4 L-4,1 Z " fill="#000000" transform="translate(475,434)"/>
<path d="M0,0 L11,0 L19,5 L21,9 L22,17 L19,25 L13,30 L9,32 L0,32 L-8,27 L-11,20 L-11,13 L-7,5 Z " fill="#000000" transform="translate(589,435)"/>
<path d="M0,0 L6,1 L12,5 L15,11 L15,20 L12,25 L6,30 L4,31 L-8,31 L-15,25 L-17,20 L-16,11 L-11,2 L-9,1 Z " fill="#000000" transform="translate(539,436)"/>
<path d="M0,0 L8,1 L16,6 L20,15 L19,23 L16,28 L10,32 L7,33 L0,33 L-6,30 L-10,26 L-13,19 L-12,11 L-9,5 Z " fill="#000000" transform="translate(226,488)"/>
<path d="M0,0 L5,0 L15,7 L18,13 L18,21 L14,27 L10,31 L1,33 L-9,29 L-13,23 L-14,20 L-14,13 L-6,2 Z " fill="#000000" transform="translate(358,489)"/>
<path d="M0,0 L5,1 L12,5 L15,10 L16,19 L13,26 L6,32 L-5,32 L-13,27 L-15,24 L-16,14 L-13,7 L-8,3 Z " fill="#000000" transform="translate(291,490)"/>
<path d="M0,0 L6,0 L12,4 L17,12 L17,23 L13,29 L7,33 L-1,33 L-8,30 L-13,26 L-14,24 L-14,14 L-11,7 L-3,1 Z " fill="#000000" transform="translate(547,491)"/>
<path d="M0,0 L7,0 L15,4 L19,9 L20,11 L20,20 L17,26 L12,30 L10,31 L-2,31 L-10,26 L-12,21 L-12,13 L-7,4 Z " fill="#000000" transform="translate(417,492)"/>
<path d="M0,0 L7,1 L14,6 L17,15 L16,22 L11,28 L5,31 L-5,31 L-10,27 L-14,19 L-12,9 L-7,2 Z " fill="#000000" transform="translate(480,491)"/>
<path d="M0,0 L6,1 L12,4 L16,9 L18,13 L18,21 L15,27 L10,31 L7,33 L-4,33 L-10,29 L-13,25 L-14,22 L-14,14 L-11,6 L-5,1 Z " fill="#000000" transform="translate(609,492)"/>
<path d="M0,0 L5,0 L7,9 L16,14 L21,20 L21,30 L18,36 L10,42 L0,42 L-8,37 L-10,34 L-10,21 L-6,15 L-2,12 L-1,1 Z " fill="#000000" transform="translate(349,543)"/>
<path d="M0,0 L7,1 L13,4 L18,14 L18,23 L11,31 L6,33 L-4,32 L-12,26 L-14,21 L-13,10 L-10,5 L-3,1 Z " fill="#000000" transform="translate(208,550)"/>
<path d="M0,0 L9,0 L16,6 L19,13 L19,20 L15,26 L9,31 L1,32 L-6,30 L-11,26 L-13,23 L-13,10 L-9,5 L-3,1 Z " fill="#000000" transform="translate(277,551)"/>
<path d="M0,0 L13,1 L20,6 L22,12 L22,21 L19,26 L11,31 L2,31 L-6,27 L-9,23 L-9,10 L-5,4 Z " fill="#000000" transform="translate(414,554)"/>
<path d="M0,0 L9,1 L14,6 L17,10 L18,13 L18,20 L15,26 L10,30 L6,32 L-3,32 L-9,29 L-14,23 L-15,12 L-12,7 L-6,2 Z " fill="#000000" transform="translate(626,554)"/>
<path d="M0,0 L8,0 L15,3 L19,7 L20,10 L20,20 L15,27 L7,31 L0,31 L-8,27 L-11,22 L-12,14 L-10,6 L-6,2 Z " fill="#000000" transform="translate(482,555)"/>
<path d="M0,0 L11,0 L16,5 L20,11 L21,14 L21,21 L17,27 L11,31 L0,32 L-6,28 L-10,24 L-11,20 L-11,12 L-8,6 L-2,1 Z " fill="#000000" transform="translate(556,555)"/>
<path d="M0,0 L10,0 L16,4 L20,10 L21,20 L18,27 L10,32 L1,32 L-7,28 L-10,25 L-11,21 L-11,12 L-7,4 L-3,1 Z " fill="#000000" transform="translate(187,615)"/>
<path d="M0,0 L8,0 L14,4 L19,12 L19,23 L14,30 L11,32 L6,33 L-1,33 L-7,30 L-11,25 L-13,18 L-10,7 L-4,2 Z " fill="#000000" transform="translate(263,615)"/>
<path d="M0,0 L8,0 L16,7 L18,10 L18,22 L14,28 L7,32 L-4,32 L-11,28 L-14,22 L-14,11 L-10,5 L-5,1 Z " fill="#000000" transform="translate(345,616)"/>
<path d="M0,0 L8,0 L17,6 L20,11 L21,18 L18,26 L13,30 L9,32 L-3,31 L-9,26 L-11,22 L-11,12 L-7,4 Z " fill="#000000" transform="translate(416,617)"/>
<path d="M0,0 L9,1 L16,9 L17,11 L17,21 L13,28 L6,32 L-1,33 L-8,30 L-13,24 L-14,22 L-14,11 L-11,6 L-6,3 Z " fill="#000000" transform="translate(490,617)"/>
<path d="M0,0 L11,0 L16,3 L21,13 L21,21 L19,26 L12,32 L10,33 L0,33 L-6,30 L-10,26 L-11,22 L-11,13 L-7,6 Z " fill="#000000" transform="translate(568,618)"/>
<path d="M0,0 L6,0 L12,3 L17,9 L19,12 L19,22 L14,29 L8,33 L-2,34 L-9,31 L-13,26 L-15,21 L-14,12 L-8,4 L-4,1 Z " fill="#000000" transform="translate(644,619)"/>
<path d="M0,0 L7,0 L17,5 L20,11 L20,23 L14,30 L8,33 L2,33 L-6,29 L-10,23 L-10,13 L-6,4 Z " fill="#000000" transform="translate(166,684)"/>
<path d="M0,0 L13,0 L20,6 L22,11 L22,20 L18,27 L13,31 L11,32 L0,32 L-8,26 L-11,20 L-9,9 L-4,2 Z " fill="#000000" transform="translate(246,686)"/>
<path d="M0,0 L8,0 L15,1 L32,2 L39,5 L51,9 L63,14 L80,24 L90,32 L96,37 L100,42 L106,46 L116,61 L126,78 L130,88 L135,106 L137,124 L137,181 L136,216 L135,275 L132,289 L127,306 L122,318 L110,337 L102,347 L97,352 L92,357 L90,359 L90,364 L104,364 L121,365 L136,364 L181,364 L185,363 L323,363 L361,364 L378,363 L408,364 L416,364 L416,435 L283,435 L132,434 L-105,434 L-215,435 L-418,435 L-418,365 L-413,364 L-379,365 L-370,364 L-250,364 L-242,365 L-191,365 L-184,364 L-155,365 L-92,365 L-92,360 L-101,351 L-106,346 L-114,336 L-122,323 L-130,307 L-134,294 L-139,270 L-143,266 L-176,265 L-180,260 L-179,254 L-175,237 L-171,227 L-163,200 L-157,183 L-155,174 L-149,155 L-145,142 L-137,118 L-133,105 L-129,94 L-120,70 L-114,60 L-110,55 L-106,49 L-99,41 L-88,32 L-81,26 L-71,19 L-63,14 L-55,12 L-46,7 L-37,6 L-33,4 L-19,1 L-3,1 Z M-66,113 L-75,119 L-78,123 L-79,131 L-77,140 L-69,147 L-65,149 L-58,149 L-48,144 L-44,139 L-43,137 L-43,127 L-47,120 L-54,114 L-57,113 Z " fill="#000000" transform="translate(418,685)"/>
<path d="M0,0 L11,0 L16,2 L20,7 L22,11 L22,21 L18,27 L11,31 L2,31 L-5,27 L-9,20 L-9,13 L-6,4 Z " fill="#000000" transform="translate(580,689)"/>
<path d="M0,0 L9,0 L17,9 L19,13 L18,21 L15,27 L9,31 L5,32 L-4,32 L-12,25 L-14,17 L-13,10 L-8,3 L-5,1 Z " fill="#000000" transform="translate(664,689)"/>
<path d="M0,0 L10,0 L16,4 L20,12 L20,21 L15,31 L12,33 L1,33 L-5,31 L-10,25 L-12,22 L-12,12 L-8,4 Z " fill="#000000" transform="translate(144,756)"/>
<path d="M0,0 L13,0 L19,5 L22,12 L22,19 L19,25 L12,31 L9,32 L0,32 L-8,27 L-10,23 L-10,11 L-6,5 Z " fill="#000000" transform="translate(232,759)"/>
<path d="M0,0 L11,0 L19,6 L22,12 L22,20 L18,27 L11,31 L5,32 L-3,29 L-8,23 L-9,20 L-9,13 L-5,4 Z " fill="#000000" transform="translate(597,762)"/>
<path d="M0,0 L12,0 L20,6 L23,15 L22,21 L18,27 L13,30 L10,31 L0,31 L-7,26 L-11,18 L-10,9 L-5,3 Z " fill="#000000" transform="translate(682,764)"/>
</svg>
