<?xml version="1.0" encoding="UTF-8"?>
<!-- Generator: visioncortex VTracer 0.6.12 -->
<svg version="1.1" xmlns="http://www.w3.org/2000/svg" width="528" height="1299">
<path d="M0,0 L9,2 L17,9 L25,17 L27,18 L43,19 L52,21 L57,24 L66,36 L68,43 L68,52 L64,65 L54,76 L52,80 L52,89 L53,99 L51,107 L47,116 L48,123 L54,135 L54,155 L47,164 L40,170 L24,178 L17,179 L7,179 L1,176 L-3,176 L-2,182 L7,194 L14,201 L25,208 L32,211 L45,213 L58,213 L70,210 L80,206 L85,202 L90,197 L96,193 L103,183 L106,176 L111,155 L110,146 L106,128 L98,114 L94,109 L86,102 L67,92 L67,90 L65,90 L60,77 L62,72 L70,68 L81,70 L98,78 L108,86 L117,96 L124,107 L130,117 L136,139 L137,150 L137,168 L132,184 L127,194 L118,208 L109,218 L100,226 L86,234 L71,239 L59,241 L40,241 L23,237 L7,229 L-5,221 L-18,206 L-25,196 L-31,182 L-31,175 L-23,170 L-14,166 L-14,164 L-21,163 L-32,163 L-42,162 L-46,158 L-53,146 L-55,135 L-53,129 L-52,128 L-47,128 L-43,133 L-40,138 L-40,140 L-36,142 L-27,146 L-17,146 L-9,144 L-3,144 L0,147 L5,157 L8,159 L17,160 L26,158 L32,153 L37,144 L36,135 L32,130 L24,123 L24,117 L30,112 L33,106 L33,92 L31,83 L32,77 L34,77 L34,75 L42,68 L49,58 L51,49 L49,40 L43,36 L37,35 L27,35 L19,36 L14,31 L9,22 L2,18 L-1,17 L-9,17 L-18,22 L-21,29 L-22,40 L-27,45 L-34,44 L-37,41 L-38,38 L-38,26 L-35,16 L-31,10 L-25,6 L-12,1 Z " fill="#000000" transform="translate(270,17)"/>
<path d="M0,0 L7,0 L13,7 L23,12 L26,13 L101,13 L108,15 L113,19 L115,27 L115,36 L111,42 L106,44 L96,44 L86,47 L82,51 L73,53 L69,62 L67,67 L64,80 L60,85 L54,86 L45,85 L39,89 L37,89 L35,93 L30,101 L26,114 L23,141 L23,178 L27,181 L46,182 L107,183 L144,184 L161,184 L171,187 L176,193 L186,212 L194,226 L202,240 L206,241 L210,237 L220,222 L233,199 L238,191 L244,187 L249,186 L283,186 L304,187 L358,187 L370,190 L379,196 L382,200 L386,210 L388,219 L388,342 L387,358 L387,605 L384,627 L379,648 L372,662 L368,670 L360,680 L353,687 L348,692 L344,697 L342,703 L342,802 L341,822 L341,1008 L342,1133 L343,1138 L341,1151 L342,1156 L342,1165 L340,1169 L336,1171 L252,1170 L222,1169 L215,1166 L214,1163 L214,966 L215,822 L215,700 L212,695 L208,692 L202,693 L198,699 L197,705 L196,726 L196,813 L195,887 L195,919 L193,1093 L193,1153 L192,1163 L190,1167 L185,1169 L166,1168 L116,1167 L73,1165 L66,1162 L63,1155 L62,1131 L62,1109 L61,1031 L60,997 L59,936 L58,914 L59,902 L59,889 L58,860 L58,768 L57,741 L57,607 L56,592 L56,550 L55,502 L55,455 L54,388 L54,351 L53,332 L53,312 L52,296 L49,295 L21,294 L-13,294 L-73,295 L-78,293 L-80,291 L-81,287 L-82,270 L-84,262 L-84,254 L-83,240 L-82,222 L-81,217 L-80,195 L-76,164 L-73,152 L-71,138 L-69,116 L-68,91 L-57,67 L-49,51 L-40,39 L-30,27 L-25,22 L-13,11 L-4,4 Z M-3,27 L-11,33 L-16,37 L-23,45 L-30,55 L-39,74 L-41,82 L-36,87 L-26,90 L-13,95 L-1,98 L7,99 L15,92 L24,81 L30,71 L35,66 L47,64 L51,59 L52,52 L45,46 L28,36 L6,27 Z M348,614 L344,617 L341,634 L341,658 L343,660 L349,659 L356,649 L359,644 L362,637 L365,629 L365,617 L361,614 Z " fill="#000000" transform="translate(114,80)"/>
</svg>
