<?xml version="1.0" encoding="UTF-8"?>
<!-- Generator: visioncortex VTracer 0.6.12 -->
<svg version="1.1" xmlns="http://www.w3.org/2000/svg" width="435" height="633">
<path d="M0,0 L7,0 L13,4 L21,11 L22,13 L22,19 L18,23 L12,27 L4,35 L-7,44 L-14,50 L-19,55 L-30,64 L-39,71 L-43,72 L-48,67 L-48,59 L-45,44 L-33,30 L-23,22 L-4,3 Z " fill="#000000" transform="translate(354,36)"/>
<path d="M0,0 L5,1 L7,7 L6,32 L4,57 L-3,67 L-13,76 L-21,83 L-31,91 L-42,101 L-53,110 L-63,119 L-74,128 L-84,136 L-89,134 L-90,130 L-90,116 L-88,88 L-85,77 L-75,67 L-71,62 L-63,56 L-61,56 L-59,52 L-47,42 L-39,35 L-28,24 L-17,15 L-5,3 Z " fill="#000000" transform="translate(394,108)"/>
<path d="M0,0 L44,0 L72,1 L80,2 L132,3 L139,2 L153,2 L159,3 L181,2 L189,4 L193,8 L195,14 L196,25 L196,48 L195,60 L194,98 L194,109 L193,123 L190,129 L185,131 L178,132 L157,132 L77,128 L58,128 L30,126 L1,126 L-10,120 L-17,111 L-28,99 L-37,88 L-43,81 L-53,68 L-54,60 L-47,49 L-42,44 L-31,32 L-26,25 L-21,20 L-10,8 L-5,3 Z " fill="#000000" transform="translate(91,117)"/>
<path d="M0,0 L4,1 L6,3 L7,16 L7,49 L5,57 L-4,69 L-15,78 L-24,85 L-30,90 L-35,95 L-46,104 L-58,113 L-66,120 L-76,128 L-80,130 L-87,129 L-89,127 L-90,118 L-89,96 L-89,83 L-85,68 L-72,57 L-61,48 L-54,43 L-49,38 L-35,28 L-29,25 L-18,14 L-16,14 L-14,10 L-2,1 Z " fill="#000000" transform="translate(390,252)"/>
<path d="M0,0 L5,0 L7,2 L8,7 L8,25 L7,50 L5,56 L-1,64 L-10,70 L-19,78 L-30,86 L-35,89 L-43,95 L-48,101 L-56,108 L-65,116 L-70,121 L-80,129 L-85,130 L-87,127 L-88,113 L-88,82 L-86,74 L-77,64 L-67,55 L-53,44 L-44,36 L-32,27 L-27,22 L-12,9 Z " fill="#000000" transform="translate(386,394)"/>
<path d="M0,0 L5,0 L7,4 L9,36 L9,62 L6,69 L0,73 L-27,74 L-45,73 L-58,71 L-71,70 L-73,68 L-72,63 L-60,52 L-52,45 L-46,41 L-33,29 L-23,21 L-15,14 L-7,7 Z " fill="#000000" transform="translate(383,527)"/>
</svg>
