<?xml version="1.0" encoding="UTF-8"?>
<!-- Generator: visioncortex VTracer 0.6.12 -->
<svg version="1.1" xmlns="http://www.w3.org/2000/svg" width="1206" height="1200">
<path d="M0,0 L22,0 L81,1 L118,2 L154,2 L178,3 L248,4 L292,5 L323,5 L394,6 L414,6 L423,7 L443,7 L510,8 L635,9 L701,10 L808,11 L876,12 L895,13 L960,13 L1030,14 L1085,15 L1119,16 L1121,19 L1121,104 L1120,164 L1119,196 L1117,353 L1116,391 L1115,483 L1115,519 L1114,560 L1114,617 L1113,635 L1112,708 L1111,754 L1111,788 L1107,1060 L1106,1126 L1104,1131 L1102,1132 L932,1132 L870,1131 L840,1130 L774,1129 L704,1128 L655,1127 L618,1126 L614,1127 L562,1126 L485,1125 L468,1124 L321,1122 L277,1122 L254,1121 L142,1119 L61,1118 L54,1117 L16,1116 L-12,1116 L-15,1114 L-16,1111 L-16,1092 L-15,1021 L-15,988 L-13,804 L-13,773 L-12,728 L-12,705 L-11,654 L-10,537 L-9,478 L-8,406 L-7,291 L-6,250 L-6,203 L-5,149 L-5,112 L-4,81 L-4,20 L-3,4 Z M280,117 L268,120 L256,127 L246,136 L237,147 L234,154 L231,163 L230,166 L230,187 L235,203 L240,213 L253,227 L264,234 L273,238 L284,240 L300,240 L315,236 L325,231 L340,217 L346,207 L351,193 L352,189 L352,167 L347,152 L341,142 L330,130 L319,123 L306,118 L301,117 Z M511,190 L494,197 L478,203 L454,213 L442,218 L432,222 L418,228 L399,236 L384,242 L368,248 L350,256 L339,260 L328,264 L310,271 L302,275 L291,279 L288,281 L279,284 L266,290 L255,294 L243,300 L236,301 L228,294 L221,286 L213,279 L202,267 L186,250 L181,245 L174,238 L169,233 L162,226 L155,218 L150,217 L142,224 L134,232 L120,243 L104,258 L94,267 L89,272 L89,278 L98,289 L106,297 L115,308 L125,318 L132,326 L145,341 L152,348 L157,354 L159,354 L161,358 L175,373 L189,388 L200,400 L206,407 L212,408 L231,400 L241,396 L261,388 L276,382 L290,376 L305,370 L318,365 L331,360 L340,356 L346,356 L353,365 L363,378 L372,389 L384,405 L398,423 L405,432 L415,445 L425,458 L434,469 L441,478 L445,483 L453,494 L465,510 L478,526 L490,542 L500,555 L505,562 L505,568 L493,578 L485,585 L472,595 L462,603 L459,606 L448,615 L438,623 L426,633 L417,640 L403,652 L392,660 L390,663 L389,699 L389,880 L388,937 L344,937 L329,938 L327,940 L326,946 L326,991 L330,996 L387,997 L405,998 L422,998 L443,999 L478,999 L481,994 L482,887 L482,820 L483,710 L487,704 L498,694 L509,685 L514,680 L524,672 L528,667 L539,658 L552,647 L560,640 L565,641 L577,657 L586,668 L598,684 L610,699 L622,715 L636,733 L638,735 L643,734 L649,730 L661,720 L675,709 L685,700 L693,694 L700,689 L700,687 L705,685 L715,676 L728,666 L736,659 L750,648 L767,634 L776,627 L786,619 L794,612 L802,606 L818,593 L829,584 L840,575 L842,573 L848,573 L859,587 L871,601 L880,612 L883,615 L890,614 L900,605 L909,598 L919,589 L928,582 L931,579 L931,574 L920,561 L912,551 L902,539 L895,530 L884,518 L875,506 L867,498 L863,492 L852,480 L848,474 L842,467 L838,463 L832,464 L822,473 L811,482 L800,491 L791,499 L783,506 L773,514 L764,521 L761,524 L750,533 L739,542 L728,551 L717,560 L705,571 L699,575 L690,583 L682,589 L672,598 L664,604 L661,607 L656,607 L646,595 L637,584 L631,576 L626,570 L620,562 L609,548 L601,538 L594,529 L590,523 L580,511 L569,496 L558,482 L545,465 L536,454 L525,439 L521,432 L510,418 L502,408 L494,397 L484,384 L473,371 L465,361 L462,356 L454,346 L447,337 L443,332 L435,321 L435,316 L444,313 L464,305 L481,298 L485,300 L499,318 L508,329 L522,346 L525,352 L538,368 L549,382 L556,390 L562,391 L576,380 L589,370 L593,366 L603,358 L608,354 L617,347 L623,341 L623,333 L612,318 L602,305 L588,287 L576,271 L574,271 L572,266 L565,257 L557,247 L549,236 L538,221 L527,207 L520,196 L515,191 Z M856,396 L842,408 L838,412 L838,418 L849,432 L861,446 L869,456 L876,464 L880,470 L885,475 L896,488 L903,496 L914,509 L926,523 L933,531 L945,545 L954,556 L960,566 L961,569 L961,586 L955,598 L954,599 L955,606 L962,615 L969,624 L976,625 L983,618 L989,609 L995,593 L996,586 L996,567 L993,556 L989,547 L983,537 L974,528 L965,516 L956,506 L947,495 L939,487 L932,479 L926,471 L917,461 L906,447 L898,439 L890,429 L878,415 L871,407 L864,399 L861,396 Z M1101,606 L1095,610 L1091,618 L1090,619 L1090,626 L1093,631 L1099,635 L1104,633 L1107,629 L1108,613 L1105,607 Z M43,813 L44,817 L48,815 L47,813 Z M271,993 L268,998 L270,1013 L278,1029 L286,1038 L295,1045 L311,1053 L330,1056 L349,1056 L391,1057 L435,1058 L470,1059 L508,1060 L512,1058 L513,1052 L513,1040 L512,1031 L507,1028 L481,1028 L476,1027 L460,1026 L422,1025 L399,1024 L361,1023 L323,1022 L314,1018 L308,1014 L303,1007 L300,997 L296,993 Z " fill="#000000" transform="translate(52,36)"/>
</svg>
