<?xml version="1.0" encoding="UTF-8"?>
<!-- Generator: visioncortex VTracer 0.6.12 -->
<svg version="1.1" xmlns="http://www.w3.org/2000/svg" width="1164" height="1221">
<path d="M0,0 L6,3 L9,10 L9,20 L8,31 L8,109 L9,121 L8,127 L8,159 L9,167 L8,195 L8,208 L9,212 L9,238 L8,251 L9,264 L9,297 L10,405 L11,432 L11,494 L12,528 L12,604 L13,628 L13,694 L15,761 L16,889 L17,911 L17,958 L18,962 L18,973 L17,989 L18,996 L19,1075 L20,1125 L24,1132 L23,1138 L19,1140 L7,1139 L-45,1139 L-77,1140 L-93,1140 L-102,1141 L-104,1140 L-123,1140 L-152,1141 L-202,1141 L-206,1142 L-275,1142 L-322,1143 L-353,1143 L-372,1144 L-392,1143 L-399,1144 L-416,1144 L-442,1145 L-575,1145 L-626,1146 L-655,1146 L-667,1147 L-727,1147 L-752,1148 L-807,1148 L-890,1149 L-909,1150 L-923,1149 L-937,1149 L-944,1150 L-984,1151 L-1064,1151 L-1071,1150 L-1071,1142 L-1050,1141 L-956,1141 L-953,1140 L-906,1140 L-885,1139 L-878,1140 L-875,1139 L-843,1139 L-761,1138 L-740,1138 L-733,1137 L-688,1138 L-671,1137 L-648,1137 L-606,1136 L-536,1136 L-520,1135 L-462,1135 L-437,1134 L-391,1134 L-382,1133 L-329,1133 L-304,1132 L-227,1132 L-210,1131 L-199,1132 L-196,1131 L-116,1130 L-88,1130 L-71,1129 L-46,1129 L-28,1128 L5,1127 L8,1126 L8,1001 L7,962 L7,942 L6,905 L5,782 L5,723 L3,687 L3,643 L1,480 L1,464 L0,431 L0,412 L-1,336 L-2,252 L-2,203 L-3,153 L-3,80 L-4,16 L-8,12 L-62,13 L-84,13 L-110,14 L-129,13 L-135,14 L-181,15 L-217,15 L-226,17 L-229,15 L-253,15 L-266,16 L-288,16 L-312,17 L-406,18 L-473,19 L-496,20 L-515,20 L-595,21 L-618,21 L-650,22 L-657,21 L-665,21 L-671,22 L-741,23 L-814,23 L-836,24 L-880,24 L-906,25 L-959,25 L-1017,27 L-1071,27 L-1071,17 L-1046,16 L-989,16 L-954,15 L-947,16 L-938,15 L-907,15 L-899,14 L-896,15 L-854,14 L-826,14 L-805,13 L-740,13 L-738,12 L-732,12 L-725,13 L-722,12 L-677,11 L-639,11 L-606,10 L-548,10 L-483,9 L-474,9 L-467,8 L-408,7 L-364,7 L-350,6 L-341,6 L-333,5 L-330,6 L-292,5 L-266,5 L-238,4 L-208,4 L-181,3 L-174,4 L-171,3 L-128,3 L-111,1 L-100,2 L-96,1 L-4,1 Z " fill="#000000" transform="translate(1071,37)"/>
<path d="M0,0 L3,0 L3,2 L0,2 Z " fill="#000000" transform="translate(410,100)"/>
<path d="M0,0 L10,0 L29,4 L45,12 L56,19 L63,26 L69,31 L75,41 L78,45 L82,59 L84,67 L85,88 L83,98 L80,101 L74,102 L65,97 L59,92 L39,84 L37,83 L12,80 L2,78 L-8,78 L-11,82 L-15,105 L-15,116 L-13,122 L-10,123 L6,120 L8,119 L19,118 L28,115 L35,115 L39,117 L45,129 L45,138 L39,150 L25,164 L17,171 L7,177 L-2,181 L-11,183 L-21,184 L-32,184 L-47,179 L-57,174 L-65,168 L-72,159 L-75,156 L-80,144 L-83,135 L-84,131 L-84,110 L-81,91 L-76,75 L-74,66 L-65,46 L-59,36 L-52,27 L-42,15 L-32,9 L-22,4 L-14,1 Z " fill="#000000" transform="translate(927,106)"/>
<path d="M0,0 L10,1 L23,3 L32,7 L38,10 L45,16 L51,28 L51,48 L45,69 L40,79 L29,92 L22,99 L9,108 L1,114 L-18,124 L-35,132 L-49,138 L-65,143 L-78,145 L-82,147 L-91,148 L-96,151 L-112,155 L-132,161 L-157,169 L-170,174 L-178,178 L-188,181 L-204,189 L-216,195 L-229,200 L-242,209 L-251,213 L-269,224 L-279,229 L-281,231 L-286,233 L-287,234 L-294,233 L-306,217 L-313,206 L-317,201 L-325,187 L-324,181 L-317,174 L-309,167 L-299,159 L-288,150 L-283,145 L-277,141 L-272,136 L-262,128 L-260,128 L-260,126 L-249,117 L-244,113 L-236,107 L-225,99 L-215,92 L-207,87 L-197,80 L-184,72 L-173,65 L-155,55 L-136,45 L-120,37 L-110,33 L-101,29 L-92,26 L-72,18 L-57,13 L-40,8 L-36,6 L-24,3 L-3,1 Z " fill="#000000" transform="translate(745,171)"/>
<path d="M0,0 L5,1 L18,10 L22,15 L23,39 L26,54 L30,64 L37,76 L46,86 L57,95 L74,103 L84,105 L99,110 L108,121 L112,132 L112,148 L107,161 L100,169 L92,175 L86,178 L77,182 L66,187 L49,192 L38,196 L33,199 L19,204 L0,211 L-9,215 L-22,219 L-30,223 L-48,229 L-57,233 L-70,238 L-77,242 L-91,247 L-111,256 L-123,261 L-138,269 L-161,280 L-178,288 L-198,299 L-214,307 L-230,316 L-241,323 L-249,329 L-259,334 L-267,340 L-275,345 L-286,354 L-301,364 L-314,374 L-322,379 L-327,385 L-340,394 L-348,401 L-359,409 L-374,422 L-384,430 L-388,435 L-396,442 L-405,453 L-416,464 L-421,469 L-432,482 L-439,491 L-448,501 L-454,509 L-464,522 L-472,531 L-481,543 L-491,557 L-501,570 L-508,581 L-516,591 L-520,597 L-529,612 L-528,615 L-522,614 L-503,604 L-494,599 L-487,596 L-480,592 L-457,580 L-438,570 L-415,558 L-407,554 L-396,548 L-368,533 L-345,521 L-334,515 L-327,512 L-309,501 L-293,493 L-283,487 L-274,483 L-258,475 L-250,470 L-238,464 L-217,452 L-201,444 L-186,436 L-178,432 L-162,424 L-144,414 L-134,409 L-112,397 L-91,386 L-86,384 L-78,379 L-68,374 L-49,364 L-33,355 L-19,348 L-1,338 L15,330 L29,322 L42,314 L54,309 L64,303 L83,293 L90,289 L101,281 L111,271 L123,254 L132,238 L135,233 L138,232 L141,236 L142,244 L142,262 L138,282 L137,285 L137,295 L141,294 L148,286 L155,275 L164,256 L166,250 L171,251 L172,252 L173,262 L173,276 L171,294 L168,305 L164,316 L158,327 L149,338 L139,346 L124,357 L117,363 L102,372 L94,377 L76,387 L66,393 L54,399 L35,410 L19,418 L5,426 L-9,433 L-23,441 L-39,450 L-58,459 L-65,464 L-79,471 L-93,479 L-104,485 L-129,499 L-139,504 L-161,516 L-171,522 L-187,530 L-202,539 L-216,546 L-239,559 L-240,561 L-247,562 L-260,570 L-280,581 L-288,585 L-303,593 L-308,596 L-321,603 L-333,611 L-349,619 L-360,625 L-376,633 L-386,640 L-399,646 L-405,650 L-421,658 L-435,666 L-447,672 L-465,682 L-482,691 L-493,697 L-509,705 L-520,711 L-543,723 L-555,730 L-578,743 L-594,751 L-600,754 L-611,760 L-621,766 L-630,770 L-646,779 L-662,787 L-674,794 L-686,799 L-692,803 L-703,809 L-718,817 L-734,825 L-745,831 L-762,840 L-771,844 L-777,848 L-787,853 L-791,852 L-794,840 L-794,760 L-785,752 L-758,738 L-742,730 L-727,722 L-720,718 L-705,709 L-699,705 L-700,701 L-703,699 L-712,697 L-719,695 L-735,692 L-741,688 L-742,683 L-738,674 L-725,649 L-717,633 L-711,623 L-706,612 L-700,601 L-692,586 L-683,570 L-670,546 L-665,538 L-659,526 L-653,517 L-647,505 L-642,497 L-637,488 L-625,467 L-619,457 L-609,440 L-600,425 L-594,415 L-589,406 L-579,390 L-567,371 L-560,360 L-554,351 L-548,343 L-543,336 L-540,331 L-532,320 L-523,306 L-516,297 L-510,289 L-496,271 L-488,262 L-484,256 L-480,251 L-472,241 L-468,236 L-461,228 L-449,215 L-438,203 L-435,202 L-434,203 L-435,210 L-443,226 L-447,240 L-451,257 L-453,274 L-448,273 L-433,261 L-419,250 L-403,237 L-399,234 L-395,235 L-394,236 L-395,245 L-397,248 L-397,254 L-392,252 L-386,247 L-373,237 L-363,230 L-351,221 L-341,214 L-331,209 L-322,202 L-311,196 L-303,191 L-298,189 L-291,184 L-280,179 L-268,174 L-256,168 L-239,161 L-223,155 L-215,151 L-206,149 L-198,145 L-189,143 L-163,135 L-148,131 L-127,125 L-106,119 L-92,113 L-69,103 L-54,95 L-46,89 L-44,89 L-44,87 L-33,78 L-24,68 L-18,60 L-9,44 L-4,30 L-1,14 L-1,6 L-2,2 Z M-568,536 L-575,543 L-581,552 L-590,562 L-601,576 L-609,586 L-617,597 L-625,608 L-632,617 L-638,626 L-644,634 L-649,643 L-658,658 L-662,663 L-668,675 L-674,685 L-675,691 L-670,692 L-656,684 L-639,676 L-627,669 L-621,666 L-615,658 L-610,646 L-604,631 L-600,623 L-595,609 L-588,593 L-583,581 L-575,566 L-571,556 L-565,540 L-565,536 Z " fill="#000000" transform="translate(809,196)"/>
</svg>
