<?xml version="1.0" encoding="UTF-8"?>
<!-- Generator: visioncortex VTracer 0.6.12 -->
<svg version="1.1" xmlns="http://www.w3.org/2000/svg" width="1146" height="1134">
<path d="M0,0 L1137,0 L1137,72 L1138,175 L1138,249 L1140,337 L1140,384 L1141,450 L1141,475 L1142,578 L1142,638 L1144,850 L1145,914 L1146,936 L1146,976 L1145,985 L1146,989 L1146,1134 L1,1134 L1,1067 L0,1065 Z M859,6 L774,7 L736,7 L695,8 L654,8 L547,9 L513,9 L474,10 L449,10 L374,11 L324,11 L209,12 L131,13 L119,13 L100,14 L57,15 L13,15 L10,17 L9,39 L9,67 L10,109 L10,178 L9,211 L9,328 L10,469 L10,493 L11,528 L12,742 L14,906 L15,964 L15,1004 L16,1039 L18,1126 L19,1128 L47,1129 L143,1129 L273,1128 L303,1128 L355,1127 L413,1127 L525,1126 L557,1126 L637,1125 L676,1124 L742,1124 L845,1123 L903,1122 L932,1122 L962,1121 L971,1122 L979,1121 L1001,1121 L1024,1120 L1063,1119 L1084,1118 L1128,1118 L1131,1115 L1131,977 L1130,890 L1129,736 L1128,642 L1127,597 L1127,535 L1125,360 L1125,334 L1124,307 L1122,178 L1122,160 L1121,107 L1120,88 L1119,40 L1118,18 L1117,9 L1114,7 L1096,7 L1032,6 Z " fill="#000000" transform="translate(0,0)"/>
<path d="M0,0 L15,0 L29,1 L43,0 L56,0 L67,3 L79,8 L91,15 L104,27 L111,36 L117,46 L123,62 L125,78 L125,88 L123,104 L114,125 L107,134 L100,143 L101,150 L110,169 L118,185 L126,200 L134,216 L138,223 L141,232 L140,237 L108,238 L87,238 L83,233 L70,207 L62,191 L54,175 L49,167 L45,166 L20,167 L18,174 L19,227 L18,239 L17,240 L-28,241 L-30,240 L-31,234 L-32,214 L-32,202 L-33,181 L-34,132 L-36,79 L-37,25 L-37,2 L-36,1 Z M20,50 L15,53 L14,58 L14,80 L15,110 L18,115 L26,116 L47,115 L56,112 L64,106 L69,101 L73,90 L74,85 L74,77 L71,68 L64,59 L56,53 L46,50 Z " fill="#000000" transform="translate(570,64)"/>
<path d="M0,0 L9,0 L11,3 L12,14 L12,27 L14,30 L27,36 L43,44 L59,53 L67,59 L78,67 L93,79 L101,86 L107,91 L114,99 L124,110 L133,121 L137,126 L208,126 L253,125 L279,125 L467,123 L486,123 L487,127 L485,128 L469,129 L401,130 L339,131 L137,133 L119,145 L102,156 L87,166 L76,174 L63,182 L45,194 L28,205 L17,212 L7,219 L-2,225 L-4,229 L174,229 L307,228 L334,228 L385,227 L387,226 L388,193 L393,189 L410,179 L435,165 L452,155 L466,147 L483,137 L492,131 L491,128 L489,127 L490,124 L492,123 L510,122 L518,117 L526,113 L547,101 L563,92 L579,92 L614,91 L618,94 L619,128 L620,270 L617,275 L607,281 L595,287 L569,288 L566,285 L565,246 L559,248 L537,261 L519,271 L513,275 L501,281 L494,285 L481,293 L470,299 L453,309 L448,312 L446,312 L444,318 L443,371 L439,376 L421,386 L418,387 L392,387 L390,381 L389,327 L388,318 L386,316 L237,318 L175,318 L69,320 L44,320 L-32,321 L-60,322 L-107,322 L-172,323 L-174,324 L-175,354 L-175,377 L-180,382 L-191,389 L-200,394 L-224,394 L-227,392 L-228,378 L-228,352 L-229,291 L-230,232 L-230,111 L-222,104 L-202,93 L-191,86 L-180,80 L-176,77 L-167,72 L-145,59 L-136,54 L-131,51 L-126,51 L-125,50 L-119,50 L-114,52 L-115,48 L-117,47 L-116,43 L-108,38 L-95,30 L-73,17 L-59,9 L-49,3 L-45,1 Z M5,34 L-5,41 L-20,50 L-28,55 L-35,59 L-45,65 L-61,75 L-74,83 L-91,94 L-106,103 L-113,107 L-122,113 L-134,120 L-145,127 L-152,131 L-162,137 L-168,141 L-168,145 L-144,152 L-137,154 L-123,159 L-109,165 L-91,175 L-81,181 L-68,190 L-59,197 L-45,208 L-32,220 L-23,230 L-17,229 L-7,221 L6,213 L21,203 L32,196 L41,190 L57,180 L67,173 L82,163 L97,153 L114,142 L123,136 L130,130 L129,126 L116,109 L106,99 L99,91 L89,82 L72,69 L59,59 L50,54 L38,47 L14,36 L10,34 Z M-124,56 L-124,59 L-122,60 L-116,60 L-115,56 Z M-174,150 L-176,152 L-176,229 L-172,233 L-76,232 L-34,231 L-32,228 L-39,220 L-49,210 L-61,201 L-75,190 L-82,185 L-89,181 L-112,168 L-124,163 L-144,155 L-154,153 L-169,150 Z M282,233 L195,234 L168,234 L56,235 L24,235 L-165,237 L-173,238 L-175,240 L-176,244 L-176,259 L-175,267 L-173,269 L-93,269 L8,268 L74,267 L98,267 L167,266 L203,266 L263,265 L292,265 L387,263 L389,259 L389,248 L388,235 L386,233 Z " fill="#000000" transform="translate(362,208)"/>
<path d="M0,0 L5,1 L6,2 L7,23 L8,137 L9,216 L9,284 L4,287 L-40,287 L-43,286 L-44,284 L-45,220 L-46,197 L-47,196 L-105,197 L-132,197 L-290,199 L-315,199 L-359,200 L-397,200 L-492,201 L-510,201 L-718,204 L-736,204 L-785,205 L-786,206 L-787,292 L-790,295 L-838,295 L-840,293 L-841,222 L-841,154 L-839,152 L-810,151 L-688,150 L-607,149 L-499,148 L-446,148 L-432,147 L-402,147 L-294,145 L-278,136 L-264,127 L-250,119 L-240,113 L-230,107 L-212,97 L-190,84 L-181,79 L-162,68 L-149,60 L-134,51 L-113,39 L-99,31 L-78,19 L-59,8 L-47,1 Z " fill="#000000" transform="translate(977,592)"/>
<path d="M0,0 L9,0 L10,1 L10,8 L22,8 L24,10 L25,14 L25,25 L23,32 L18,33 L3,33 L3,60 L5,61 L18,61 L23,63 L25,68 L25,75 L23,82 L19,84 L6,84 L3,86 L3,103 L22,103 L25,105 L25,121 L22,126 L-19,126 L-21,125 L-22,117 L-22,11 L-19,8 L-3,8 L-1,1 Z " fill="#000000" transform="translate(245,924)"/>
<path d="M0,0 L14,0 L24,4 L32,11 L37,21 L39,28 L39,96 L33,108 L24,116 L18,119 L13,120 L5,120 L-5,117 L-11,113 L-18,106 L-21,101 L-23,92 L-24,78 L-24,29 L-20,15 L-11,5 Z M5,23 L0,28 L-1,41 L0,89 L3,95 L7,97 L12,96 L15,93 L16,90 L16,36 L14,27 L11,23 Z " fill="#000000" transform="translate(855,925)"/>
<path d="M0,0 L6,0 L9,3 L14,15 L21,30 L23,35 L26,35 L27,2 L29,0 L47,0 L50,4 L51,47 L51,104 L49,109 L51,111 L50,116 L49,117 L30,117 L27,114 L22,103 L16,89 L13,82 L10,82 L9,115 L6,118 L-10,118 L-14,116 L-15,86 L-16,6 L-15,1 Z " fill="#000000" transform="translate(936,925)"/>
<path d="M0,0 L19,0 L21,3 L22,22 L22,117 L21,118 L0,118 L-2,116 L-4,28 L-4,4 Z " fill="#000000" transform="translate(782,927)"/>
<path d="M0,0 L15,0 L17,2 L17,22 L14,24 L2,24 L2,116 L-1,118 L-19,118 L-21,116 L-22,111 L-22,94 L-23,49 L-24,27 L-25,25 L-41,24 L-42,23 L-42,3 L-41,1 Z " fill="#000000" transform="translate(742,927)"/>
<path d="M0,0 L42,1 L51,6 L56,15 L57,18 L57,47 L55,58 L53,61 L54,66 L58,72 L58,116 L55,118 L40,118 L38,116 L37,91 L36,80 L33,77 L24,76 L22,79 L21,117 L18,119 L1,119 L-1,117 L-2,105 L-2,2 Z M22,25 L20,29 L20,49 L22,54 L24,55 L32,55 L36,52 L37,44 L37,33 L35,28 L32,25 Z " fill="#000000" transform="translate(455,929)"/>
<path d="M0,0 L5,2 L4,14 L1,29 L-3,55 L-9,92 L-11,101 L-13,113 L-16,118 L-39,119 L-42,116 L-50,81 L-59,43 L-65,17 L-67,6 L-66,2 L-65,1 L-46,1 L-42,6 L-39,20 L-33,48 L-31,57 L-28,58 L-25,46 L-23,33 L-18,6 L-15,1 Z " fill="#000000" transform="translate(600,928)"/>
<path d="M0,0 L20,0 L24,4 L28,19 L32,39 L40,72 L48,108 L49,115 L46,118 L29,118 L25,114 L23,108 L18,107 L4,108 L-1,118 L-8,119 L-21,119 L-23,117 L-22,108 L-19,89 L-14,59 L-11,39 L-8,22 L-5,4 L-3,1 Z M11,62 L9,64 L7,76 L7,87 L9,89 L16,89 L18,87 L18,80 L15,66 L13,62 Z " fill="#000000" transform="translate(644,928)"/>
<path d="M0,0 L11,2 L20,7 L27,15 L31,25 L31,38 L28,41 L10,41 L9,40 L8,31 L4,26 L-2,25 L-5,28 L-5,39 L2,47 L12,54 L21,60 L28,67 L32,75 L33,79 L33,98 L27,110 L20,116 L11,121 L-5,121 L-17,116 L-24,109 L-27,104 L-28,100 L-28,88 L-26,86 L-8,86 L-5,89 L-2,95 L1,97 L7,96 L9,92 L9,85 L7,80 L6,77 L2,75 L2,73 L-3,71 L-22,57 L-29,49 L-31,42 L-31,26 L-26,14 L-19,7 L-11,2 Z " fill="#000000" transform="translate(324,929)"/>
<path d="M0,0 L42,0 L44,3 L44,16 L43,23 L42,24 L24,25 L23,26 L23,51 L25,53 L41,53 L44,56 L45,64 L44,73 L41,75 L26,75 L23,78 L23,91 L26,95 L43,95 L45,97 L45,115 L42,118 L1,118 L0,117 L-1,67 L-1,2 Z " fill="#000000" transform="translate(381,930)"/>
<path d="M0,0 L38,0 L47,6 L51,12 L53,20 L53,50 L50,59 L50,64 L53,68 L54,101 L53,115 L51,117 L36,117 L33,112 L32,80 L30,76 L21,76 L20,78 L19,105 L18,115 L16,117 L-2,117 L-4,110 L-4,3 Z M22,23 L19,25 L18,28 L18,50 L20,54 L30,54 L32,52 L33,45 L33,36 L31,26 L27,23 Z " fill="#000000" transform="translate(142,933)"/>
<path d="M0,0 L2,1 L2,3 L0,3 Z " fill="#000000" transform="translate(712,1046)"/>
</svg>
