<?xml version="1.0" encoding="UTF-8"?>
<!-- Generator: visioncortex VTracer 0.6.12 -->
<svg version="1.1" xmlns="http://www.w3.org/2000/svg" width="1155" height="666">
<path d="M0,0 L27,0 L37,2 L53,4 L60,7 L68,9 L81,11 L88,14 L103,19 L117,25 L125,27 L137,32 L140,34 L150,36 L159,39 L172,44 L181,46 L193,49 L216,53 L220,55 L243,56 L273,58 L282,58 L306,55 L329,51 L340,48 L349,45 L364,42 L382,36 L396,31 L404,28 L424,24 L435,20 L460,16 L472,15 L484,14 L520,14 L524,15 L543,17 L560,21 L572,25 L588,28 L611,38 L619,42 L629,49 L638,55 L654,64 L665,71 L669,74 L678,77 L690,83 L703,88 L724,94 L741,97 L756,100 L773,101 L779,105 L782,112 L780,120 L775,124 L763,126 L753,128 L744,130 L729,132 L720,134 L713,136 L705,139 L696,141 L686,146 L673,150 L659,154 L646,160 L644,163 L642,173 L642,183 L646,199 L648,202 L654,203 L662,199 L673,189 L684,182 L694,173 L712,161 L727,153 L741,144 L748,140 L753,141 L760,145 L763,151 L764,159 L757,178 L751,185 L746,189 L744,189 L742,193 L733,204 L726,215 L720,223 L715,232 L708,241 L698,257 L694,263 L690,267 L682,282 L674,295 L669,303 L661,313 L654,325 L650,332 L640,345 L633,359 L622,376 L616,384 L611,393 L606,400 L602,408 L594,419 L584,433 L574,444 L567,452 L553,466 L548,471 L540,480 L532,487 L524,494 L519,498 L517,498 L515,502 L504,512 L496,516 L488,522 L471,532 L462,539 L442,548 L429,553 L424,557 L411,562 L402,564 L391,569 L384,571 L379,574 L376,575 L364,576 L355,578 L346,580 L343,582 L334,583 L325,586 L299,589 L286,593 L270,594 L260,595 L232,595 L222,596 L194,596 L189,594 L172,594 L159,591 L148,589 L145,588 L129,587 L127,586 L116,585 L109,582 L99,580 L84,574 L76,570 L64,567 L46,559 L37,555 L26,548 L10,539 L-2,532 L-12,523 L-26,515 L-26,513 L-30,511 L-40,504 L-51,495 L-66,482 L-75,475 L-83,467 L-91,457 L-99,451 L-110,437 L-114,432 L-118,428 L-125,420 L-133,410 L-137,404 L-142,398 L-148,389 L-154,382 L-159,373 L-166,363 L-172,352 L-178,343 L-182,334 L-187,327 L-195,311 L-203,295 L-209,284 L-214,274 L-219,265 L-228,249 L-232,244 L-238,232 L-245,221 L-249,215 L-253,210 L-260,200 L-265,194 L-274,183 L-278,177 L-286,170 L-295,161 L-300,153 L-304,148 L-304,140 L-298,131 L-291,125 L-286,122 L-277,122 L-268,128 L-257,136 L-252,140 L-244,146 L-240,151 L-229,160 L-214,172 L-206,179 L-197,189 L-190,196 L-183,204 L-174,213 L-174,215 L-170,217 L-162,225 L-158,229 L-150,236 L-150,238 L-146,240 L-141,245 L-135,250 L-130,250 L-125,240 L-124,235 L-124,214 L-122,201 L-121,156 L-125,152 L-142,146 L-147,144 L-156,142 L-178,134 L-189,131 L-192,129 L-201,126 L-215,123 L-231,117 L-242,114 L-252,112 L-272,110 L-277,108 L-295,104 L-303,97 L-305,94 L-304,86 L-298,79 L-276,79 L-273,78 L-255,76 L-250,74 L-240,72 L-231,70 L-218,66 L-209,62 L-201,60 L-185,52 L-169,44 L-153,36 L-144,32 L-135,28 L-119,22 L-104,19 L-92,15 L-87,13 L-72,10 L-68,8 L-52,6 L-49,5 L-35,4 L-30,2 L-13,1 Z M-92,159 L-97,163 L-98,169 L-99,198 L-100,203 L-100,237 L-98,252 L-97,264 L-91,281 L-83,290 L-79,296 L-68,305 L-61,309 L-51,316 L-34,326 L-16,336 L-9,340 L5,345 L15,348 L30,348 L35,342 L36,334 L36,328 L39,323 L41,314 L44,271 L43,222 L44,211 L42,193 L39,188 L37,186 L26,182 L9,180 L-7,176 L-24,173 L-49,169 L-60,165 L-81,162 L-87,159 Z M609,167 L603,170 L590,172 L570,175 L556,178 L544,181 L539,186 L540,259 L542,274 L548,285 L550,286 L556,286 L565,280 L583,267 L593,260 L602,252 L611,241 L615,236 L620,225 L620,177 L616,169 L613,167 Z M506,187 L493,189 L473,192 L457,193 L443,195 L421,198 L418,199 L402,200 L397,203 L396,205 L396,215 L395,231 L397,261 L397,298 L398,305 L399,334 L401,348 L405,355 L411,358 L420,357 L436,352 L446,349 L452,347 L462,344 L477,336 L488,330 L498,325 L507,319 L512,312 L517,297 L519,279 L519,265 L518,243 L518,206 L516,193 L513,188 Z M73,192 L70,196 L68,208 L66,256 L65,269 L65,282 L64,296 L64,311 L63,325 L64,333 L65,348 L69,361 L75,366 L87,371 L102,374 L114,378 L118,380 L130,382 L144,385 L167,386 L180,386 L189,381 L194,375 L198,368 L202,360 L204,347 L206,340 L207,320 L208,311 L207,306 L207,268 L208,242 L209,217 L206,209 L202,205 L184,201 L142,199 L110,196 L104,195 L98,195 L93,193 Z M359,202 L317,205 L276,205 L253,204 L250,206 L244,205 L242,203 L237,204 L232,210 L230,218 L229,267 L229,314 L228,317 L228,337 L230,363 L234,381 L240,388 L246,390 L259,391 L269,390 L277,391 L288,391 L303,389 L317,388 L329,385 L342,383 L346,381 L360,378 L370,375 L373,372 L375,357 L375,337 L376,327 L375,316 L374,269 L374,216 L371,207 L366,202 Z M501,356 L493,362 L481,367 L473,374 L453,381 L437,388 L422,395 L400,401 L392,405 L379,408 L369,412 L361,415 L349,418 L335,420 L332,421 L307,423 L305,424 L277,426 L275,425 L268,425 L264,426 L217,426 L213,425 L196,425 L184,423 L173,423 L158,421 L156,420 L141,418 L134,417 L132,416 L123,415 L117,413 L99,410 L90,406 L74,402 L59,398 L52,395 L46,393 L36,390 L28,386 L19,382 L11,378 L2,376 L-8,370 L-11,369 L-18,369 L-17,373 L-13,378 L-9,382 L8,394 L19,400 L30,407 L39,414 L49,420 L61,427 L73,433 L79,436 L86,442 L96,446 L106,448 L117,451 L126,454 L137,457 L148,459 L153,461 L174,463 L183,464 L191,465 L193,466 L207,467 L254,468 L276,468 L279,467 L290,466 L297,464 L308,462 L320,459 L324,457 L348,454 L369,447 L385,442 L400,435 L409,429 L424,419 L434,413 L442,408 L448,405 L454,400 L465,391 L471,387 L478,384 L488,377 L504,362 L506,357 Z " fill="#000000" transform="translate(340,37)"/>
</svg>
