<?xml version="1.0" encoding="UTF-8"?>
<!-- Generator: visioncortex VTracer 0.6.12 -->
<svg version="1.1" xmlns="http://www.w3.org/2000/svg" width="1164" height="1203">
<path d="M0,0 L8,0 L17,1 L45,0 L62,0 L67,1 L85,1 L112,2 L122,3 L158,2 L161,3 L176,4 L182,3 L194,4 L209,3 L224,3 L233,4 L239,3 L256,3 L348,5 L367,6 L404,6 L431,7 L439,6 L442,7 L513,7 L558,8 L587,8 L654,10 L689,10 L770,11 L785,12 L826,12 L830,13 L882,13 L917,14 L935,15 L979,15 L984,16 L1031,16 L1052,17 L1062,18 L1074,18 L1083,20 L1086,24 L1087,34 L1087,94 L1086,119 L1086,174 L1085,181 L1085,204 L1083,356 L1082,432 L1082,449 L1081,493 L1081,516 L1080,539 L1079,608 L1079,656 L1078,704 L1078,736 L1077,751 L1077,825 L1076,834 L1076,870 L1074,1027 L1073,1045 L1073,1091 L1072,1114 L1070,1126 L1065,1131 L1053,1132 L1036,1132 L970,1130 L968,1131 L934,1130 L914,1130 L854,1129 L827,1128 L759,1127 L713,1127 L672,1126 L645,1125 L576,1124 L556,1123 L495,1122 L396,1121 L379,1120 L361,1120 L353,1121 L351,1120 L312,1119 L263,1119 L194,1117 L146,1117 L117,1116 L87,1116 L36,1115 L16,1115 L-7,1114 L-44,1114 L-53,1112 L-56,1108 L-57,1101 L-57,1031 L-56,1008 L-56,965 L-55,953 L-55,928 L-54,920 L-54,861 L-53,802 L-52,775 L-52,756 L-50,675 L-49,660 L-49,635 L-48,604 L-48,571 L-47,560 L-46,498 L-46,480 L-45,416 L-45,403 L-44,379 L-44,351 L-43,321 L-42,267 L-41,257 L-41,177 L-40,133 L-40,96 L-39,90 L-39,56 L-38,19 L-36,6 L-31,1 L-16,1 Z M765,234 L736,235 L729,241 L725,252 L722,260 L721,268 L721,291 L724,307 L734,335 L742,351 L754,374 L759,382 L767,397 L775,413 L783,430 L786,436 L792,454 L795,468 L796,477 L796,486 L794,498 L791,509 L784,526 L784,532 L787,535 L794,537 L815,538 L853,538 L862,535 L868,528 L876,512 L880,502 L884,487 L885,476 L885,466 L880,441 L871,416 L863,400 L854,383 L849,373 L836,350 L830,340 L822,322 L818,314 L815,307 L812,300 L810,288 L808,280 L808,263 L809,252 L810,249 L810,241 L805,236 L788,235 Z M210,544 L209,548 L213,549 L215,548 L214,544 Z M134,556 L126,561 L124,575 L124,628 L127,637 L132,641 L143,642 L198,644 L292,644 L307,645 L330,645 L347,646 L389,646 L404,647 L429,647 L481,648 L519,649 L538,649 L545,650 L547,649 L559,649 L562,650 L604,650 L636,651 L642,650 L688,651 L705,651 L728,650 L733,646 L735,637 L736,611 L736,580 L734,571 L732,567 L725,565 L693,563 L608,562 L576,561 L543,561 L493,560 L462,560 L390,558 L364,558 L243,557 L189,556 Z M773,566 L768,570 L766,582 L766,636 L767,646 L771,651 L780,652 L782,653 L845,653 L854,651 L858,646 L860,641 L860,577 L857,570 L853,568 L843,566 Z " fill="#000000" transform="translate(65,37)"/>
</svg>
