<?xml version="1.0" encoding="UTF-8"?>
<!-- Generator: visioncortex VTracer 0.6.12 -->
<svg version="1.1" xmlns="http://www.w3.org/2000/svg" width="1128" height="1110">
<path d="M0,0 L29,0 L29,2 L13,7 L3,11 L-9,18 L-20,26 L-27,32 L-32,37 L-45,54 L-51,63 L-57,78 L-62,99 L-64,100 L-64,65 L-62,65 L-60,57 L-51,43 L-42,33 L-33,23 L-20,13 L-4,3 L0,2 Z " fill="#000000" transform="translate(64,0)"/>
<path d="M0,0 L28,0 L28,2 L34,4 L44,11 L50,14 L65,27 L75,37 L85,51 L97,72 L103,87 L105,94 L107,106 L108,107 L108,904 L106,903 L105,898 L104,681 L103,632 L103,566 L102,528 L101,412 L100,376 L99,212 L98,133 L96,106 L91,88 L86,74 L75,55 L68,45 L59,35 L49,26 L38,18 L24,10 L10,5 L0,1 Z " fill="#000000" transform="translate(1020,0)"/>
<path d="M0,0 L7,1 L9,2 L10,5 L10,31 L8,36 L3,39 L-8,41 L-24,47 L-33,53 L-42,60 L-51,70 L-59,84 L-64,96 L-66,107 L-66,129 L-64,142 L-57,158 L-49,169 L-42,177 L-32,185 L-18,192 L-12,195 L2,198 L41,203 L47,207 L52,215 L52,224 L46,240 L42,253 L42,269 L45,281 L51,293 L59,303 L67,309 L80,315 L93,318 L108,319 L127,319 L167,318 L213,318 L220,319 L227,319 L252,325 L273,337 L287,351 L296,364 L301,373 L306,389 L309,420 L309,441 L308,463 L304,467 L272,467 L269,462 L268,415 L266,398 L261,384 L255,376 L255,374 L251,372 L244,366 L233,361 L220,358 L197,357 L99,357 L79,355 L63,351 L49,344 L38,336 L26,325 L19,317 L13,306 L7,293 L4,283 L3,275 L3,254 L4,248 L4,239 L1,237 L-19,233 L-35,227 L-47,221 L-59,213 L-69,205 L-74,200 L-83,189 L-91,176 L-98,162 L-103,146 L-105,134 L-106,121 L-104,97 L-100,80 L-95,68 L-89,57 L-81,46 L-72,35 L-67,30 L-56,22 L-48,16 L-40,12 L-20,4 L-6,1 Z " fill="#000000" transform="translate(611,206)"/>
<path d="M0,0 L16,1 L29,3 L43,7 L61,15 L72,21 L83,29 L88,34 L95,40 L106,54 L114,67 L120,79 L125,92 L129,110 L130,135 L129,151 L124,168 L121,174 L121,182 L125,184 L166,186 L175,188 L186,189 L209,195 L218,199 L235,208 L246,215 L257,224 L265,231 L276,242 L282,251 L287,257 L294,268 L299,281 L303,289 L309,308 L312,321 L313,330 L314,355 L314,422 L312,426 L310,427 L280,427 L277,424 L276,421 L275,347 L274,333 L271,318 L268,307 L260,288 L253,277 L243,264 L237,257 L226,248 L215,241 L196,232 L188,229 L177,227 L175,226 L164,225 L124,224 L87,224 L77,221 L71,217 L67,212 L67,199 L73,187 L83,169 L88,155 L91,142 L91,117 L89,105 L82,87 L75,76 L67,66 L58,58 L44,48 L24,40 L13,38 L2,37 L-2,35 L-3,33 L-3,3 Z " fill="#000000" transform="translate(666,246)"/>
<path d="M0,0 L28,1 L32,5 L33,10 L33,108 L31,115 L29,117 L-4,117 L-7,113 L-8,102 L-7,10 L-5,3 Z " fill="#000000" transform="translate(887,695)"/>
<path d="M0,0 L24,0 L32,1 L34,3 L35,9 L35,108 L33,114 L31,116 L-1,116 L-3,113 L-4,101 L-4,6 L-2,1 Z " fill="#000000" transform="translate(946,696)"/>
<path d="M0,0 L14,1 L312,1 L331,0 L710,0 L713,4 L714,45 L714,109 L712,114 L710,115 L693,116 L582,116 L522,117 L296,117 L261,118 L133,118 L41,119 L-18,119 L-22,115 L-23,109 L-23,79 L-22,6 L-20,2 L-18,1 Z " fill="#000000" transform="translate(143,697)"/>
<path d="M0,0 L2,2 L2,47 L0,49 Z " fill="#000000" transform="translate(0,883)"/>
<path d="M0,0 L1,0 L1,46 L0,46 L-1,39 L-1,1 Z " fill="#000000" transform="translate(1127,908)"/>
<path d="M0,0 L1,0 L2,6 L4,50 L7,67 L15,87 L25,106 L36,119 L44,129 L51,137 L70,151 L82,158 L95,163 L105,166 L110,168 L110,169 L78,169 L78,167 L72,165 L63,159 L52,151 L44,144 L32,133 L22,119 L13,108 L5,90 L2,85 L0,80 Z " fill="#000000" transform="translate(0,941)"/>
<path d="M0,0 L1,0 L1,62 L-4,74 L-10,84 L-14,91 L-25,103 L-30,108 L-34,113 L-45,121 L-56,128 L-67,134 L-75,136 L-84,139 L-90,141 L-93,141 L-93,143 L-139,143 L-139,141 L-137,140 L-119,138 L-94,133 L-85,129 L-76,126 L-69,123 L-57,117 L-44,107 L-41,106 L-39,102 L-30,93 L-21,81 L-12,65 L-7,49 L-4,39 L-3,32 L-1,6 Z " fill="#000000" transform="translate(1127,967)"/>
</svg>
