<?xml version="1.0" encoding="UTF-8"?>
<!-- Generator: visioncortex VTracer 0.6.12 -->
<svg version="1.1" xmlns="http://www.w3.org/2000/svg" width="516" height="1104">
<path d="M0,0 L4,1 L8,8 L13,27 L18,42 L22,59 L30,85 L34,102 L36,111 L38,114 L44,135 L51,158 L57,180 L64,205 L70,226 L74,241 L77,246 L81,248 L96,248 L100,246 L103,236 L106,225 L105,218 L98,208 L95,189 L92,162 L92,153 L95,139 L102,123 L109,113 L114,108 L117,107 L124,107 L132,110 L150,110 L155,113 L160,118 L166,118 L171,115 L179,113 L203,113 L204,106 L201,100 L198,98 L176,97 L166,96 L161,91 L162,85 L168,80 L171,79 L192,78 L197,75 L203,61 L204,51 L204,38 L208,33 L221,25 L233,20 L250,16 L257,13 L276,13 L291,14 L296,17 L299,21 L303,31 L309,39 L313,44 L320,58 L323,67 L324,84 L325,96 L323,112 L319,124 L312,135 L307,140 L298,148 L286,154 L274,157 L255,157 L243,154 L233,150 L218,137 L210,127 L207,122 L201,122 L195,127 L189,129 L182,130 L164,130 L163,132 L163,178 L164,185 L168,186 L180,186 L190,183 L200,177 L209,169 L213,167 L221,167 L233,173 L243,180 L253,187 L261,192 L270,193 L276,190 L283,183 L290,175 L299,165 L303,161 L306,160 L315,160 L325,165 L333,172 L342,178 L351,181 L365,184 L374,184 L378,180 L382,162 L382,138 L380,126 L377,124 L350,124 L340,120 L338,117 L338,111 L341,107 L344,106 L368,106 L382,101 L386,99 L393,99 L400,103 L407,106 L426,105 L443,106 L451,111 L454,116 L455,128 L455,168 L452,180 L444,196 L438,205 L437,210 L437,218 L443,241 L448,259 L451,275 L454,311 L455,317 L456,349 L457,368 L457,376 L458,383 L458,398 L455,449 L452,479 L450,502 L445,533 L444,546 L440,564 L436,575 L431,590 L427,598 L419,618 L410,638 L403,648 L395,662 L388,669 L382,673 L381,676 L381,697 L383,713 L383,731 L385,763 L388,789 L389,810 L391,828 L393,837 L396,862 L398,868 L404,905 L406,924 L412,956 L418,990 L424,1015 L429,1029 L432,1041 L437,1047 L453,1055 L462,1059 L479,1064 L484,1068 L484,1076 L428,1076 L432,1074 L435,1072 L433,1067 L417,1058 L408,1058 L394,1065 L391,1068 L390,1073 L395,1075 L395,1076 L289,1076 L284,1062 L279,1041 L265,987 L262,975 L260,973 L256,973 L255,975 L252,1013 L252,1038 L254,1049 L258,1059 L263,1066 L264,1069 L264,1076 L242,1076 L242,1069 L232,1066 L206,1065 L197,1069 L195,1069 L196,1073 L200,1076 L161,1076 L163,1071 L173,1061 L178,1049 L178,1036 L173,1016 L170,985 L167,969 L164,955 L161,938 L156,914 L153,891 L150,871 L146,843 L141,800 L139,777 L139,759 L135,715 L134,707 L132,662 L131,624 L128,614 L123,605 L120,585 L117,578 L110,568 L101,551 L88,521 L82,502 L78,494 L73,478 L71,472 L67,456 L65,447 L63,432 L63,419 L66,407 L69,382 L75,364 L77,361 L76,355 L76,347 L82,319 L88,293 L90,286 L90,279 L86,275 L71,271 L66,266 L60,254 L57,247 L50,214 L46,196 L41,178 L34,149 L29,131 L26,121 L24,109 L19,90 L14,72 L8,51 L2,25 L-2,7 L-2,1 Z M297,81 L281,87 L272,92 L267,96 L261,98 L231,98 L222,101 L221,103 L221,110 L225,120 L229,126 L234,131 L246,138 L254,141 L268,141 L282,138 L292,132 L297,128 L297,126 L299,126 L306,115 L309,98 L309,91 L307,84 L302,81 Z M423,115 L409,116 L404,121 L401,139 L399,163 L399,180 L404,185 L418,187 L425,188 L430,185 L433,180 L437,165 L436,148 L434,122 L430,116 Z M125,126 L120,129 L116,137 L114,151 L115,168 L117,182 L121,188 L126,191 L139,190 L142,186 L143,164 L143,142 L141,134 L137,129 L128,126 Z M308,181 L303,184 L298,189 L286,203 L282,208 L282,217 L285,222 L291,226 L299,226 L303,223 L310,223 L311,228 L303,244 L300,249 L298,250 L291,250 L283,241 L276,232 L270,224 L263,223 L260,225 L248,252 L244,256 L237,255 L229,246 L228,243 L228,236 L234,234 L241,231 L248,220 L249,216 L249,206 L239,197 L228,188 L224,185 L216,185 L210,189 L201,197 L195,202 L191,216 L189,225 L186,255 L182,278 L177,296 L169,322 L165,331 L162,340 L157,340 L156,338 L156,323 L154,293 L154,277 L155,256 L156,244 L156,218 L154,213 L149,210 L133,210 L127,214 L124,220 L122,230 L120,251 L116,263 L112,274 L110,283 L110,291 L116,316 L120,335 L122,347 L128,368 L137,404 L141,425 L145,431 L150,434 L165,435 L175,432 L186,426 L194,417 L200,409 L208,400 L210,399 L210,397 L213,396 L213,394 L215,394 L222,386 L231,376 L238,368 L246,359 L252,351 L252,349 L255,348 L262,340 L269,333 L276,323 L282,316 L289,307 L297,295 L301,288 L307,279 L315,262 L322,239 L329,215 L332,203 L332,194 L328,189 L318,182 L316,181 Z M385,204 L376,207 L373,214 L372,218 L371,233 L371,259 L374,286 L381,311 L386,321 L389,327 L392,337 L392,345 L389,349 L382,348 L371,341 L363,331 L356,320 L354,318 L347,319 L340,327 L332,337 L319,353 L307,367 L298,378 L288,391 L279,402 L274,407 L272,411 L268,413 L256,423 L245,432 L235,440 L228,445 L227,449 L228,451 L231,452 L264,453 L282,453 L293,452 L318,451 L353,448 L367,445 L373,441 L376,435 L381,410 L383,393 L386,387 L392,388 L394,396 L394,407 L392,425 L390,434 L390,453 L394,469 L392,503 L388,547 L387,552 L387,560 L391,566 L403,571 L410,574 L419,574 L423,569 L427,559 L432,533 L438,485 L439,468 L440,462 L442,434 L443,429 L443,385 L441,325 L439,313 L436,280 L433,263 L429,246 L426,236 L424,225 L419,209 L414,205 L399,205 Z M99,340 L95,349 L88,371 L83,399 L78,417 L78,433 L82,455 L87,478 L94,497 L101,516 L106,528 L112,541 L118,551 L123,554 L130,553 L140,547 L148,543 L152,538 L152,530 L146,506 L143,494 L140,480 L132,445 L127,425 L119,390 L113,363 L109,351 L107,343 L104,340 Z M365,483 L288,490 L276,493 L272,498 L271,503 L271,542 L272,551 L273,571 L276,577 L289,581 L299,583 L314,584 L344,585 L347,586 L356,586 L361,583 L368,571 L372,563 L375,549 L378,534 L381,493 L379,486 L376,484 Z M216,494 L209,497 L204,499 L198,500 L168,500 L164,503 L163,506 L164,520 L167,530 L170,544 L173,559 L179,573 L184,579 L186,580 L217,583 L227,584 L250,584 L256,581 L259,573 L260,556 L259,531 L258,523 L258,500 L254,495 Z M147,563 L142,566 L140,571 L140,585 L142,597 L144,601 L153,606 L163,607 L169,604 L173,598 L173,590 L163,575 L159,567 L153,563 Z M381,585 L375,590 L374,594 L374,610 L383,627 L386,633 L392,635 L398,630 L404,618 L410,602 L410,595 L405,590 L395,585 Z M263,593 L246,598 L212,598 L206,600 L204,604 L202,613 L196,622 L194,629 L195,640 L201,666 L208,696 L210,704 L215,723 L218,735 L226,749 L232,763 L237,768 L244,768 L248,763 L251,752 L256,713 L260,697 L264,687 L269,686 L273,690 L277,705 L281,728 L287,754 L293,785 L299,811 L303,831 L305,847 L310,869 L315,893 L318,908 L324,929 L326,937 L327,946 L331,961 L335,983 L339,1005 L346,1039 L351,1052 L360,1064 L361,1065 L368,1065 L378,1056 L385,1049 L395,1043 L407,1037 L411,1033 L411,1024 L408,1009 L403,987 L396,943 L393,924 L388,895 L386,877 L382,853 L376,810 L374,780 L372,764 L370,722 L367,682 L366,671 L365,646 L366,631 L359,616 L356,604 L351,601 L348,600 L304,599 L285,596 L273,593 Z M151,627 L147,631 L146,633 L146,665 L147,694 L150,726 L152,741 L153,778 L155,801 L157,825 L160,841 L166,884 L171,914 L173,929 L176,944 L178,955 L182,972 L187,1008 L193,1031 L196,1044 L200,1046 L226,1046 L231,1041 L232,1023 L237,999 L239,984 L241,947 L244,922 L246,913 L246,906 L242,886 L238,873 L234,856 L227,832 L222,809 L215,780 L210,762 L206,746 L199,717 L191,684 L186,666 L181,645 L177,632 L173,628 L170,627 Z M266,759 L264,765 L265,777 L268,782 L270,784 L275,783 L276,782 L276,773 L274,763 L271,759 Z M253,798 L251,800 L252,808 L256,823 L260,828 L266,828 L268,825 L268,817 L264,806 L259,799 Z M284,847 L281,850 L276,862 L276,870 L279,880 L284,891 L295,919 L297,921 L302,921 L303,916 L300,897 L295,868 L291,850 L288,847 Z M307,944 L300,946 L291,954 L290,956 L290,969 L297,977 L303,980 L310,980 L314,978 L319,973 L324,963 L323,959 L319,960 L315,968 L309,973 L302,973 L299,970 L298,968 L299,958 L303,954 L313,950 L315,946 L311,944 Z " fill="#000000" transform="translate(32,28)"/>
<path d="M0,0 L18,0 L20,2 L-2,2 Z " fill="#000000" transform="translate(432,1102)"/>
</svg>
