<?xml version="1.0" encoding="UTF-8"?>
<!-- Generator: visioncortex VTracer 0.6.12 -->
<svg version="1.1" xmlns="http://www.w3.org/2000/svg" width="531" height="1197">
<path d="M0,0 L11,1 L18,2 L34,2 L40,5 L49,6 L53,8 L63,9 L68,14 L77,29 L88,32 L92,37 L94,47 L104,66 L105,76 L110,85 L110,92 L108,98 L107,125 L109,138 L111,158 L116,170 L116,172 L126,175 L140,178 L159,187 L180,196 L199,206 L206,214 L211,218 L220,232 L223,241 L228,262 L233,291 L237,308 L240,328 L242,343 L243,348 L247,403 L251,437 L254,454 L255,466 L258,469 L258,481 L260,490 L257,497 L251,514 L240,535 L236,545 L230,557 L223,576 L217,594 L216,599 L215,616 L211,648 L210,653 L210,668 L213,691 L215,712 L216,719 L219,767 L224,788 L227,827 L228,834 L229,860 L226,863 L219,865 L195,868 L161,872 L156,875 L151,891 L149,905 L147,938 L143,958 L137,967 L127,974 L125,974 L121,991 L118,1004 L115,1019 L111,1037 L109,1048 L106,1064 L105,1078 L108,1090 L112,1095 L116,1097 L132,1099 L146,1100 L156,1104 L159,1107 L160,1114 L160,1135 L158,1138 L155,1139 L126,1139 L53,1138 L41,1137 L36,1131 L34,1125 L32,1106 L34,1078 L36,1064 L37,1043 L37,1016 L36,1011 L34,977 L33,970 L28,971 L26,977 L24,1001 L21,1022 L20,1033 L19,1096 L21,1114 L21,1123 L19,1133 L16,1136 L14,1137 L-42,1137 L-91,1136 L-100,1135 L-104,1131 L-106,1121 L-104,1103 L-101,1097 L-98,1095 L-71,1094 L-58,1092 L-53,1089 L-51,1085 L-51,1072 L-57,1009 L-61,988 L-63,969 L-66,966 L-76,962 L-84,955 L-89,943 L-95,910 L-98,885 L-99,872 L-101,868 L-106,866 L-125,863 L-148,861 L-163,858 L-168,853 L-168,835 L-164,822 L-160,801 L-158,782 L-155,766 L-153,752 L-148,727 L-145,704 L-144,691 L-143,688 L-143,677 L-147,662 L-153,646 L-159,629 L-164,617 L-171,602 L-177,590 L-178,587 L-180,587 L-186,577 L-195,561 L-198,552 L-202,536 L-210,509 L-215,493 L-214,476 L-209,447 L-206,435 L-201,396 L-199,381 L-191,355 L-185,337 L-179,314 L-175,300 L-168,273 L-162,250 L-155,226 L-147,213 L-143,207 L-136,200 L-120,192 L-111,188 L-103,185 L-89,182 L-78,177 L-69,174 L-65,168 L-65,151 L-67,143 L-70,138 L-70,130 L-69,127 L-67,110 L-66,105 L-66,94 L-59,79 L-57,69 L-52,56 L-48,49 L-44,40 L-39,36 L-33,27 L-26,20 L-21,14 L-15,11 L-12,10 L-12,8 L-5,2 Z M14,49 L6,52 L3,56 L1,66 L0,76 L-3,82 L-5,92 L-10,98 L-13,111 L-13,118 L-11,123 L-9,136 L-5,146 L0,150 L10,154 L18,156 L33,156 L45,153 L49,151 L53,142 L54,136 L55,119 L56,114 L56,100 L54,87 L51,81 L51,64 L46,55 L41,51 L35,49 Z M-51,190 L-70,199 L-97,208 L-113,216 L-122,222 L-132,233 L-137,241 L-143,257 L-147,268 L-151,284 L-155,302 L-157,307 L-160,322 L-168,346 L-171,357 L-175,371 L-181,395 L-185,420 L-188,449 L-189,454 L-189,461 L-187,463 L-179,462 L-163,457 L-147,450 L-133,446 L-120,444 L-115,442 L-106,441 L-97,441 L-89,450 L-82,464 L-81,470 L-81,491 L-85,514 L-88,533 L-88,556 L-86,572 L-83,589 L-78,610 L-76,617 L-73,633 L-70,645 L-69,655 L-69,698 L-72,723 L-75,733 L-79,739 L-82,742 L-85,743 L-93,743 L-101,738 L-111,729 L-119,723 L-124,724 L-126,728 L-128,737 L-129,739 L-134,775 L-136,785 L-139,811 L-141,830 L-142,833 L-142,841 L-139,844 L-117,847 L-85,850 L-26,855 L-11,857 L28,857 L59,859 L84,859 L108,858 L131,855 L148,854 L153,853 L176,851 L196,847 L205,842 L206,840 L206,829 L203,809 L200,795 L198,780 L196,754 L193,734 L192,721 L191,719 L186,719 L176,731 L172,738 L164,742 L150,743 L142,740 L137,736 L132,727 L129,721 L127,709 L125,703 L122,677 L123,652 L125,634 L127,617 L131,606 L133,583 L132,534 L130,511 L130,486 L133,457 L135,445 L137,434 L140,431 L149,431 L172,438 L188,442 L212,449 L225,454 L232,453 L234,450 L232,425 L231,411 L228,388 L225,362 L220,337 L217,312 L212,290 L206,269 L200,253 L193,239 L185,227 L180,223 L163,213 L149,205 L133,199 L116,194 L114,193 L96,193 L85,195 L80,197 L68,199 L62,204 L54,206 L47,215 L45,216 L26,215 L23,213 L16,214 L14,216 L8,216 L-1,212 L-15,205 L-19,201 L-28,199 L-30,199 L-32,195 L-33,194 L-43,193 Z M-76,868 L-81,871 L-80,894 L-79,907 L-74,926 L-71,940 L-68,946 L-62,950 L-56,951 L-23,953 L0,956 L7,956 L18,948 L20,943 L20,921 L21,916 L21,899 L20,881 L18,876 L14,874 L-29,872 L-48,870 L-66,869 Z M116,875 L92,876 L47,876 L45,877 L44,885 L44,920 L46,943 L51,952 L58,956 L80,958 L103,957 L121,952 L126,949 L129,941 L131,910 L134,891 L135,886 L135,877 L132,875 Z " fill="#000000" transform="translate(245,30)"/>
</svg>
