<?xml version="1.0" encoding="UTF-8"?>
<!-- Generator: visioncortex VTracer 0.6.12 -->
<svg version="1.1" xmlns="http://www.w3.org/2000/svg" width="456" height="1218">
<path d="M0,0 L9,0 L22,7 L39,16 L58,26 L64,30 L67,33 L69,40 L70,69 L71,77 L73,77 L73,79 L79,80 L122,83 L125,86 L125,97 L121,100 L76,100 L71,104 L67,128 L62,140 L55,151 L43,163 L27,172 L15,175 L-3,176 L-20,172 L-32,166 L-43,157 L-48,152 L-55,144 L-61,131 L-66,109 L-68,98 L-70,95 L-76,93 L-94,91 L-115,91 L-123,89 L-126,86 L-127,80 L-124,74 L-122,73 L-93,73 L-83,74 L-73,74 L-66,71 L-64,62 L-63,49 L-63,34 L-61,27 L-56,23 L-41,17 L-26,11 L-14,6 L-2,1 Z M-37,94 L-45,96 L-49,102 L-49,118 L-47,127 L-38,140 L-33,144 L-28,149 L-13,157 L-6,159 L15,159 L28,154 L38,146 L43,141 L47,136 L51,128 L54,116 L54,108 L52,101 L47,98 L1,95 L-12,95 Z " fill="#000000" transform="translate(234,12)"/>
<path d="M0,0 L6,1 L12,5 L22,14 L32,20 L36,23 L44,23 L50,18 L55,13 L65,4 L68,2 L76,2 L88,10 L88,12 L92,14 L106,22 L117,24 L145,25 L167,25 L199,27 L209,33 L219,43 L225,53 L228,64 L232,90 L233,109 L233,171 L234,180 L235,212 L235,227 L233,257 L233,279 L234,311 L235,319 L235,337 L233,358 L232,384 L231,398 L231,410 L228,434 L227,438 L227,450 L231,463 L235,473 L237,484 L237,495 L235,510 L226,531 L217,547 L215,547 L215,549 L210,553 L207,558 L199,565 L190,576 L182,586 L171,596 L164,604 L156,611 L149,621 L143,631 L139,641 L134,651 L130,660 L125,687 L119,730 L116,755 L114,774 L109,822 L108,827 L107,845 L105,863 L103,891 L101,904 L102,914 L104,920 L108,922 L129,934 L139,939 L148,944 L153,950 L154,952 L154,971 L152,981 L149,984 L145,985 L130,985 L99,984 L95,983 L67,983 L31,981 L19,980 L-6,980 L-36,979 L-49,978 L-76,977 L-90,976 L-95,971 L-97,966 L-96,953 L-93,947 L-87,942 L-69,934 L-58,930 L-42,922 L-35,918 L-33,915 L-33,898 L-36,869 L-38,863 L-40,837 L-42,814 L-45,762 L-45,751 L-47,738 L-49,707 L-53,672 L-56,655 L-58,635 L-65,625 L-72,616 L-78,609 L-85,601 L-99,586 L-111,575 L-128,558 L-139,544 L-148,531 L-153,521 L-157,514 L-162,493 L-163,488 L-162,470 L-157,451 L-157,442 L-158,432 L-159,401 L-158,384 L-158,328 L-159,295 L-160,280 L-160,68 L-156,48 L-150,34 L-140,21 L-133,17 L-124,15 L-89,16 L-50,16 L-37,18 L-29,18 L-20,13 L-8,4 L-4,1 Z M-57,27 L-65,28 L-73,34 L-80,44 L-87,55 L-93,63 L-101,79 L-106,91 L-109,108 L-111,148 L-110,163 L-108,182 L-104,192 L-100,193 L-97,188 L-92,162 L-84,121 L-76,98 L-72,88 L-66,71 L-53,50 L-47,39 L-47,32 L-51,28 Z M130,36 L124,41 L124,47 L131,59 L136,71 L143,85 L151,104 L155,114 L162,130 L167,147 L170,158 L173,184 L175,204 L179,210 L183,211 L186,207 L189,190 L189,156 L186,131 L180,103 L173,82 L170,72 L164,63 L157,49 L151,42 L143,37 L140,36 Z M-73,270 L-79,273 L-80,275 L-80,281 L-74,291 L-70,294 L-65,294 L-60,286 L-56,276 L-61,271 L-66,270 Z M-10,273 L-15,277 L-14,284 L-5,296 L-2,299 L4,300 L8,297 L8,295 L11,294 L18,285 L19,279 L14,275 L-5,273 Z M63,276 L58,279 L56,283 L55,316 L56,336 L59,340 L62,341 L82,342 L111,342 L116,338 L117,333 L117,292 L115,283 L110,278 L106,277 L78,276 Z M144,279 L139,282 L138,287 L147,301 L149,302 L155,302 L160,295 L162,289 L161,282 L158,280 Z M-84,302 L-87,304 L-88,307 L-88,325 L-84,333 L-80,335 L-66,336 L-45,336 L-41,334 L-39,326 L-39,308 L-41,303 L-43,302 L-58,303 L-65,308 L-71,308 L-79,303 Z M-19,303 L-23,306 L-24,315 L-24,324 L-22,333 L-18,336 L-2,339 L12,340 L30,340 L36,335 L37,333 L37,309 L33,304 L31,303 L25,303 L17,309 L12,313 L8,314 L1,314 L-6,311 L-14,304 Z M134,309 L132,312 L132,331 L134,340 L138,343 L142,344 L167,344 L172,341 L174,336 L174,323 L173,312 L169,311 L163,316 L158,321 L153,322 L147,318 L142,311 L138,309 Z M-136,370 L-143,373 L-146,377 L-146,403 L-144,413 L-142,415 L-137,414 L-133,408 L-128,398 L-125,391 L-122,385 L-121,379 L-123,374 L-127,371 Z M205,384 L199,387 L198,393 L204,405 L209,412 L214,412 L216,409 L217,404 L217,390 L212,385 Z M35,445 L33,447 L31,458 L29,490 L29,527 L28,563 L28,655 L26,678 L23,683 L11,687 L1,689 L-25,689 L-29,693 L-30,699 L-28,705 L-20,709 L1,710 L14,708 L22,708 L21,714 L8,717 L4,718 L-20,719 L-26,723 L-28,728 L-27,737 L-22,742 L-10,744 L9,743 L21,743 L21,747 L13,750 L0,752 L-14,753 L-24,755 L-27,760 L-27,776 L-24,781 L-20,783 L11,783 L20,782 L22,782 L20,787 L10,791 L-1,793 L-19,794 L-23,798 L-24,807 L-22,815 L-19,819 L-16,820 L19,819 L22,820 L21,825 L14,829 L10,830 L-16,831 L-21,836 L-21,844 L-16,849 L-13,850 L-4,850 L8,847 L15,846 L13,851 L5,856 L-9,860 L-14,862 L-16,864 L-15,868 L-11,871 L19,875 L22,878 L21,885 L14,888 L-9,890 L-14,892 L-16,894 L-16,899 L-12,904 L-2,911 L20,920 L25,925 L27,927 L37,928 L64,928 L74,924 L76,922 L75,918 L74,917 L58,915 L50,913 L47,911 L48,906 L75,906 L83,904 L85,901 L85,894 L81,890 L65,888 L48,881 L45,877 L46,873 L47,872 L54,872 L68,877 L79,878 L88,875 L91,867 L91,858 L87,854 L64,853 L51,850 L47,849 L47,844 L48,843 L62,843 L69,844 L87,844 L92,841 L93,837 L93,829 L88,824 L74,824 L55,819 L48,815 L47,813 L47,807 L48,806 L55,807 L72,813 L80,815 L90,815 L95,812 L98,803 L98,791 L93,787 L86,788 L83,789 L70,790 L56,790 L48,786 L46,782 L47,775 L49,773 L55,773 L67,778 L77,780 L91,780 L98,776 L101,769 L100,758 L97,755 L93,754 L82,757 L75,758 L65,758 L52,752 L47,747 L47,743 L52,742 L59,745 L71,749 L82,750 L95,748 L100,745 L101,736 L95,731 L66,724 L56,719 L52,716 L50,716 L50,712 L57,712 L68,717 L84,722 L97,724 L103,721 L106,715 L106,706 L104,702 L99,700 L85,700 L65,693 L55,688 L49,683 L48,681 L47,670 L47,613 L48,530 L48,483 L47,457 L45,450 L41,445 Z " fill="#000000" transform="translate(192,205)"/>
</svg>
