<?xml version="1.0" encoding="UTF-8"?>
<!-- Generator: visioncortex VTracer 0.6.12 -->
<svg version="1.1" xmlns="http://www.w3.org/2000/svg" width="1086" height="1053">
<path d="M0,0 L183,0 L183,2 L194,3 L207,4 L220,8 L237,9 L239,10 L247,10 L253,9 L257,11 L281,14 L287,16 L292,17 L294,15 L300,16 L306,18 L312,18 L317,15 L321,16 L323,20 L335,20 L341,18 L346,19 L347,22 L353,24 L359,23 L365,22 L367,24 L377,23 L381,25 L385,22 L395,22 L401,24 L419,24 L423,25 L472,25 L473,20 L464,17 L453,16 L451,15 L442,14 L440,13 L430,12 L424,10 L418,10 L414,11 L411,9 L406,8 L398,8 L394,9 L390,6 L380,6 L371,4 L363,3 L358,3 L357,0 L488,0 L489,7 L494,11 L501,15 L501,20 L500,21 L487,21 L485,23 L486,27 L490,29 L503,31 L516,33 L526,33 L537,36 L547,41 L557,48 L563,50 L566,53 L573,56 L589,57 L595,59 L612,61 L614,62 L640,65 L648,65 L651,67 L667,69 L674,71 L697,73 L714,76 L730,78 L733,79 L762,82 L782,85 L787,86 L792,85 L796,87 L817,89 L827,91 L860,92 L875,94 L891,99 L893,100 L904,100 L908,103 L919,103 L929,106 L939,106 L950,109 L957,109 L963,108 L969,111 L984,112 L987,114 L994,114 L997,116 L1006,116 L1021,119 L1030,119 L1040,122 L1052,123 L1058,123 L1064,126 L1074,126 L1078,127 L1085,126 L1086,127 L1086,166 L1073,166 L1068,164 L1055,162 L1042,160 L1027,159 L1021,157 L996,153 L984,150 L961,147 L949,146 L946,144 L934,144 L925,150 L900,148 L868,145 L864,144 L849,143 L849,147 L858,148 L861,149 L878,150 L888,152 L903,155 L923,157 L931,164 L934,174 L942,172 L946,177 L958,177 L964,180 L991,183 L1007,184 L1008,185 L1022,186 L1031,189 L1039,189 L1044,191 L1056,191 L1086,196 L1086,235 L1076,233 L1064,231 L1036,227 L1029,225 L1021,225 L1013,222 L1002,221 L1000,220 L987,219 L963,215 L950,213 L933,211 L926,212 L921,217 L914,219 L896,219 L884,217 L870,216 L862,214 L846,213 L839,211 L812,208 L808,207 L775,204 L758,201 L736,199 L716,196 L698,194 L668,191 L646,188 L638,186 L625,185 L618,183 L609,182 L596,179 L576,174 L561,168 L552,165 L533,161 L524,158 L509,155 L492,152 L490,151 L475,150 L472,148 L454,146 L435,142 L410,139 L398,137 L378,135 L359,132 L315,126 L289,123 L281,121 L262,119 L247,117 L245,116 L223,114 L197,110 L174,107 L172,106 L158,105 L155,104 L131,101 L113,98 L109,97 L96,96 L75,93 L65,91 L43,89 L25,87 L18,85 L5,84 L0,82 L0,53 L21,54 L26,56 L35,57 L40,57 L45,60 L60,60 L74,62 L76,63 L88,63 L92,65 L105,66 L111,68 L117,67 L118,68 L130,68 L135,71 L145,70 L150,73 L160,73 L174,75 L177,77 L188,76 L195,79 L205,79 L208,81 L227,83 L235,85 L243,85 L247,86 L260,86 L265,85 L268,88 L297,92 L300,93 L312,94 L318,96 L333,96 L339,95 L352,97 L356,99 L369,100 L374,101 L383,100 L384,99 L390,99 L392,102 L413,104 L434,104 L445,106 L468,107 L480,107 L494,108 L496,109 L520,110 L529,110 L543,112 L545,113 L560,113 L561,114 L589,117 L604,119 L643,123 L649,124 L658,125 L669,127 L682,128 L696,135 L708,144 L712,146 L747,146 L762,138 L774,138 L803,141 L824,144 L837,144 L843,145 L842,143 L828,140 L813,137 L796,134 L783,132 L774,128 L760,123 L755,121 L744,119 L730,116 L728,115 L715,113 L705,111 L702,109 L686,106 L673,103 L657,103 L654,112 L646,114 L635,112 L619,111 L604,109 L593,108 L588,106 L576,104 L573,103 L547,100 L539,97 L518,95 L499,89 L482,85 L472,83 L467,81 L456,79 L440,75 L422,71 L404,68 L384,64 L375,62 L359,60 L353,58 L334,55 L327,53 L305,50 L288,46 L278,46 L270,44 L250,42 L238,40 L229,38 L206,35 L197,33 L190,33 L161,29 L143,27 L133,25 L124,24 L122,23 L111,22 L105,20 L96,19 L83,18 L72,15 L60,13 L41,12 L37,10 L25,9 L20,7 L5,6 L0,4 Z M486,122 L486,126 L490,126 L489,122 Z " fill="#000000" transform="translate(0,0)"/>
<path d="M0,0 L172,0 L173,1 L182,1 L186,0 L191,3 L203,5 L205,3 L210,4 L212,7 L221,7 L225,8 L228,6 L233,7 L246,10 L260,11 L266,15 L276,14 L285,17 L293,17 L293,19 L303,19 L307,20 L318,20 L322,22 L332,23 L338,25 L340,22 L347,23 L353,26 L366,28 L372,28 L387,32 L398,32 L405,35 L412,33 L417,36 L433,36 L436,39 L446,38 L451,41 L461,41 L467,43 L469,44 L494,47 L498,48 L503,47 L506,50 L516,51 L520,52 L534,53 L543,56 L560,57 L564,59 L573,58 L577,60 L588,60 L588,98 L582,98 L569,94 L537,90 L526,88 L515,86 L499,83 L494,82 L483,81 L478,79 L466,78 L460,78 L457,76 L438,73 L427,70 L411,69 L405,67 L391,66 L387,64 L370,62 L368,61 L352,59 L339,57 L321,53 L295,50 L263,44 L254,42 L234,40 L223,38 L212,37 L203,35 L182,32 L178,31 L157,29 L143,26 L128,24 L125,23 L110,22 L102,19 L89,18 L84,16 L76,16 L59,14 L56,12 L35,9 L25,7 L10,5 L1,3 Z " fill="#000000" transform="translate(498,0)"/>
<path d="M0,0 L4,0 L8,4 L19,3 L25,2 L27,3 L42,4 L44,5 L56,5 L56,34 L51,35 L42,33 L34,31 L19,29 L11,27 L2,26 L0,25 L-13,23 L-28,20 L-53,16 L-63,15 L-70,14 L-77,12 L-90,10 L-94,7 L-93,2 L-78,2 L-70,4 L-64,4 L-61,2 L-54,2 L-50,4 L-48,3 L-37,3 L-25,1 L-20,3 L-18,5 L-11,5 L-5,4 L-1,2 Z " fill="#000000" transform="translate(1030,0)"/>
<path d="M0,0 L12,1 L16,0 L27,4 L45,6 L51,7 L53,6 L60,6 L68,8 L90,10 L95,12 L119,15 L129,15 L136,16 L148,17 L158,19 L166,19 L172,21 L179,20 L189,22 L190,23 L200,25 L210,25 L212,26 L229,27 L233,28 L246,29 L249,31 L260,30 L268,31 L270,33 L301,37 L314,37 L327,40 L337,40 L338,41 L353,41 L363,43 L387,43 L395,45 L401,45 L403,44 L409,44 L416,45 L432,45 L438,48 L455,48 L458,49 L466,49 L470,47 L473,49 L482,50 L497,50 L510,51 L514,50 L521,50 L531,52 L536,50 L542,53 L558,55 L573,56 L580,56 L603,59 L610,59 L618,61 L647,63 L668,66 L701,69 L705,70 L719,71 L732,73 L756,75 L760,76 L789,78 L802,80 L816,82 L873,87 L888,89 L903,91 L908,95 L909,100 L907,104 L907,109 L912,112 L930,113 L934,114 L938,113 L950,116 L965,118 L976,118 L982,120 L988,119 L996,122 L1023,125 L1027,127 L1039,127 L1043,128 L1055,128 L1058,129 L1070,130 L1081,132 L1081,166 L1074,166 L1062,164 L1043,162 L1030,159 L1012,158 L1005,157 L994,155 L978,153 L968,151 L953,151 L944,158 L941,159 L932,159 L913,156 L899,155 L887,149 L882,146 L869,141 L858,139 L842,135 L833,134 L829,133 L812,132 L808,135 L805,142 L803,143 L783,143 L772,141 L763,141 L746,138 L713,134 L658,129 L653,128 L629,126 L590,122 L573,121 L559,118 L540,115 L515,111 L497,106 L476,102 L461,99 L441,95 L434,92 L424,91 L419,89 L396,86 L388,84 L375,81 L359,79 L344,75 L327,73 L303,69 L290,67 L282,65 L256,61 L242,60 L234,59 L223,57 L210,56 L207,55 L198,55 L184,52 L142,47 L128,45 L111,44 L99,41 L83,40 L71,38 L34,35 L30,33 L20,34 L-5,29 L-5,1 Z " fill="#000000" transform="translate(5,136)"/>
<path d="M0,0 L8,1 L20,2 L27,2 L29,3 L61,6 L68,7 L72,6 L89,9 L103,11 L119,13 L140,15 L145,17 L155,17 L164,18 L179,19 L184,21 L197,21 L201,23 L210,23 L219,22 L222,24 L232,24 L249,27 L259,26 L265,26 L270,25 L273,27 L280,27 L283,28 L304,29 L310,29 L314,31 L321,30 L326,29 L333,31 L339,30 L341,31 L356,31 L372,32 L399,33 L421,34 L426,36 L442,38 L468,40 L488,42 L520,45 L541,46 L547,47 L575,49 L594,51 L597,52 L650,57 L667,58 L692,61 L733,64 L738,65 L759,66 L771,68 L798,70 L816,74 L822,78 L828,86 L834,89 L858,91 L879,89 L885,84 L888,83 L910,83 L934,85 L944,88 L948,94 L951,103 L958,106 L966,106 L985,109 L995,109 L1008,111 L1010,112 L1021,112 L1031,114 L1037,114 L1043,116 L1064,117 L1074,119 L1080,119 L1082,120 L1082,154 L1074,154 L1066,152 L1064,151 L1040,149 L1037,148 L1022,146 L1016,145 L1000,144 L990,142 L976,141 L972,139 L963,139 L953,138 L943,138 L938,141 L931,146 L922,147 L885,144 L864,142 L848,140 L833,139 L828,138 L784,135 L765,132 L749,131 L743,130 L727,129 L720,127 L689,125 L683,124 L664,123 L654,121 L620,119 L576,115 L559,114 L556,113 L536,112 L502,108 L484,106 L455,102 L441,100 L439,99 L412,96 L393,93 L375,83 L361,79 L340,75 L334,73 L315,70 L303,69 L290,66 L272,64 L251,59 L235,57 L221,55 L201,52 L188,51 L173,49 L164,48 L162,47 L144,46 L136,44 L106,42 L102,40 L84,40 L63,36 L45,34 L32,34 L20,32 L8,31 L1,31 L-4,29 L-4,1 Z " fill="#000000" transform="translate(4,216)"/>
<path d="M0,0 L11,0 L13,1 L37,3 L44,3 L48,5 L57,5 L67,6 L69,7 L83,7 L91,10 L106,11 L108,12 L121,13 L125,12 L130,14 L147,14 L150,16 L178,17 L184,18 L191,17 L200,19 L249,21 L254,20 L280,21 L289,20 L301,22 L334,23 L351,25 L365,26 L387,28 L398,29 L434,32 L464,34 L471,35 L510,38 L524,39 L529,40 L557,42 L562,43 L570,43 L585,45 L632,49 L637,50 L658,52 L664,55 L664,67 L669,69 L685,69 L692,70 L708,70 L713,67 L716,60 L721,57 L751,59 L757,60 L777,62 L794,63 L801,64 L820,65 L828,66 L859,69 L879,71 L907,73 L916,76 L918,80 L919,89 L921,92 L930,94 L935,95 L942,95 L953,96 L961,97 L998,100 L1001,101 L1015,102 L1033,104 L1037,105 L1064,106 L1073,108 L1073,144 L1058,143 L1048,141 L1032,140 L1016,138 L1012,136 L1000,136 L982,134 L979,133 L930,128 L926,127 L902,126 L894,133 L889,139 L881,142 L877,143 L866,143 L842,140 L812,134 L798,130 L787,128 L772,125 L760,121 L746,118 L723,113 L702,108 L677,103 L659,100 L648,99 L642,97 L617,96 L612,94 L593,93 L587,95 L573,102 L556,102 L542,100 L527,101 L496,98 L493,97 L466,96 L459,94 L446,94 L431,93 L419,91 L402,90 L390,88 L365,86 L358,84 L334,81 L325,79 L312,77 L294,75 L282,69 L265,64 L251,61 L238,59 L235,58 L219,56 L195,52 L157,48 L150,46 L136,45 L125,44 L124,43 L112,42 L106,40 L88,38 L86,37 L69,37 L66,36 L53,36 L47,34 L29,33 L18,31 L-8,29 L-13,28 L-13,1 Z " fill="#000000" transform="translate(13,297)"/>
<path d="M0,0 L17,2 L47,4 L51,3 L55,5 L84,5 L89,8 L97,8 L102,7 L106,9 L123,9 L140,10 L146,9 L152,11 L202,11 L210,10 L244,10 L256,11 L263,10 L269,11 L283,10 L297,11 L300,12 L322,12 L329,13 L337,13 L347,14 L356,15 L361,14 L374,16 L427,18 L431,19 L443,19 L460,21 L471,22 L485,23 L490,24 L526,26 L547,29 L551,31 L550,38 L545,42 L545,47 L549,50 L560,51 L562,52 L623,57 L649,59 L660,60 L671,61 L689,62 L698,64 L720,65 L737,67 L756,68 L781,71 L807,73 L829,75 L842,76 L850,76 L857,77 L867,78 L873,77 L876,79 L892,80 L899,81 L907,81 L910,82 L929,82 L932,84 L973,87 L995,89 L1014,90 L1017,91 L1045,93 L1049,94 L1075,95 L1086,97 L1086,133 L1076,133 L1063,131 L1037,128 L1028,128 L1025,127 L1006,125 L997,123 L988,123 L983,122 L960,121 L957,120 L943,119 L927,117 L908,115 L903,114 L888,113 L878,112 L851,110 L848,109 L832,108 L804,105 L787,103 L755,101 L746,99 L710,96 L690,94 L687,93 L673,93 L650,90 L633,90 L632,94 L634,100 L631,103 L624,104 L610,104 L571,100 L547,99 L539,98 L516,97 L506,96 L476,94 L454,92 L436,90 L400,88 L387,86 L362,84 L356,83 L338,82 L316,79 L279,75 L259,71 L246,69 L237,63 L226,59 L205,55 L194,54 L190,52 L179,51 L154,46 L138,44 L115,41 L95,39 L87,36 L78,36 L68,35 L59,33 L37,31 L16,30 L13,29 L0,29 Z " fill="#000000" transform="translate(0,376)"/>
<path d="M0,0 L21,1 L39,3 L49,3 L56,4 L73,4 L78,3 L82,5 L155,5 L164,4 L183,4 L189,3 L239,4 L282,7 L350,11 L359,12 L397,14 L413,16 L456,18 L497,21 L518,22 L521,23 L548,24 L569,26 L601,28 L616,29 L627,30 L642,32 L670,34 L679,39 L689,47 L700,54 L711,57 L720,57 L748,59 L774,61 L777,62 L802,63 L815,64 L827,65 L838,65 L846,66 L864,68 L875,68 L901,70 L909,70 L915,72 L981,76 L988,77 L1025,79 L1029,80 L1063,82 L1066,83 L1077,83 L1079,84 L1079,120 L1063,118 L1053,117 L1045,115 L1033,115 L1029,114 L1013,113 L1008,112 L984,111 L981,110 L950,107 L932,106 L920,104 L909,104 L892,103 L886,101 L870,101 L862,100 L848,100 L835,98 L796,94 L771,92 L758,92 L750,99 L747,100 L734,100 L710,99 L706,98 L675,97 L655,95 L612,93 L598,92 L552,90 L547,89 L505,87 L473,85 L460,85 L457,84 L426,82 L402,80 L390,79 L377,77 L346,75 L320,73 L315,72 L284,70 L261,67 L238,65 L218,62 L205,61 L190,57 L185,52 L180,48 L160,45 L155,44 L148,44 L136,41 L116,38 L97,36 L80,33 L71,33 L64,31 L46,31 L41,29 L27,29 L12,27 L-3,26 L-7,24 L-7,1 Z " fill="#000000" transform="translate(7,458)"/>
<path d="M0,0 L6,1 L22,2 L28,3 L58,4 L76,4 L79,5 L139,8 L266,15 L292,16 L307,17 L360,21 L372,22 L421,24 L438,25 L474,27 L486,28 L532,30 L569,32 L580,32 L590,35 L594,40 L597,51 L604,55 L613,56 L636,57 L639,58 L686,61 L713,62 L754,65 L764,66 L772,66 L777,67 L797,68 L807,69 L831,70 L850,72 L873,73 L877,74 L911,76 L911,112 L896,111 L868,109 L865,108 L797,103 L772,101 L766,100 L736,98 L712,96 L685,94 L680,93 L631,90 L596,87 L590,87 L579,95 L570,97 L549,98 L530,97 L500,94 L485,92 L466,90 L456,88 L444,82 L417,79 L414,78 L403,77 L391,75 L370,72 L350,70 L346,69 L332,68 L319,66 L307,65 L301,63 L291,63 L257,60 L225,58 L220,57 L201,56 L198,55 L188,55 L179,58 L166,67 L158,71 L136,71 L80,68 L64,66 L45,64 L0,61 L-24,59 L-40,56 L-46,55 L-55,48 L-59,45 L-69,43 L-75,42 L-83,41 L-108,37 L-111,36 L-122,35 L-127,33 L-152,30 L-157,29 L-175,29 L-175,1 L-119,1 L-114,2 L-106,1 L-93,1 L-77,3 L-41,3 L-36,4 L-19,4 L-17,3 L-5,3 Z " fill="#000000" transform="translate(175,535)"/>
<path d="M0,0 L15,1 L46,1 L53,2 L99,2 L176,5 L197,6 L204,9 L205,13 L199,20 L199,24 L204,26 L240,29 L318,33 L322,34 L395,36 L420,37 L433,38 L498,38 L516,35 L523,32 L528,31 L548,31 L582,32 L609,32 L640,33 L648,36 L650,38 L651,50 L654,53 L680,55 L719,57 L727,58 L780,60 L787,60 L789,61 L809,62 L823,62 L839,64 L857,65 L863,65 L864,66 L876,66 L878,67 L890,67 L898,68 L912,68 L934,70 L952,70 L962,72 L989,72 L993,74 L993,109 L972,108 L966,106 L941,105 L928,103 L912,103 L896,102 L892,101 L879,101 L864,99 L843,97 L793,94 L764,91 L749,91 L726,90 L721,89 L657,85 L649,84 L623,84 L616,90 L612,95 L607,98 L598,99 L580,99 L567,97 L556,97 L553,96 L538,95 L536,94 L512,91 L496,87 L486,82 L477,81 L462,80 L446,78 L396,73 L367,68 L348,67 L332,65 L317,63 L293,62 L290,61 L276,60 L263,60 L257,58 L234,57 L224,56 L218,55 L205,55 L192,53 L181,53 L173,52 L151,51 L147,50 L133,50 L118,56 L109,61 L94,66 L65,64 L52,63 L28,62 L23,60 L7,59 L3,58 L-36,55 L-48,53 L-68,51 L-80,43 L-93,39 L-93,4 L-87,3 L-82,4 L-74,3 L-65,4 L-53,4 L-51,5 L-43,5 L-39,4 L-32,5 L-13,3 L-9,1 Z " fill="#000000" transform="translate(93,606)"/>
<path d="M0,0 L12,1 L28,0 L53,0 L94,1 L96,2 L109,3 L136,4 L139,5 L151,6 L155,8 L154,13 L143,19 L140,20 L141,25 L144,26 L151,26 L163,28 L215,31 L228,31 L237,32 L284,34 L308,36 L321,36 L369,39 L406,40 L441,40 L467,41 L485,41 L543,39 L565,38 L586,36 L608,36 L617,35 L625,36 L680,36 L689,38 L694,42 L695,53 L698,56 L722,58 L738,58 L750,59 L757,60 L789,60 L790,61 L815,62 L822,62 L828,63 L863,65 L879,65 L887,66 L913,67 L921,67 L923,68 L945,68 L955,69 L1077,75 L1084,75 L1086,76 L1086,113 L1077,113 L1065,111 L1063,110 L1046,110 L1033,109 L1007,108 L1002,107 L970,106 L955,104 L919,102 L915,101 L843,97 L826,96 L814,96 L788,94 L714,90 L710,89 L680,87 L670,87 L665,90 L658,97 L653,104 L650,105 L634,105 L631,104 L599,101 L595,100 L579,99 L568,96 L561,92 L532,86 L512,83 L485,80 L475,78 L448,76 L445,75 L413,73 L396,71 L368,69 L323,67 L305,66 L279,64 L262,64 L254,63 L246,63 L232,61 L221,61 L209,60 L194,60 L190,59 L154,57 L147,56 L111,54 L80,52 L51,52 L33,57 L8,65 L0,67 Z " fill="#000000" transform="translate(0,674)"/>
<path d="M0,0 L9,0 L20,1 L59,2 L66,3 L92,4 L135,6 L173,8 L218,10 L253,11 L265,13 L299,13 L316,14 L323,15 L332,14 L336,13 L345,14 L350,16 L377,16 L392,17 L399,16 L448,16 L471,15 L480,15 L492,14 L526,13 L544,13 L562,11 L570,10 L587,10 L593,9 L601,9 L607,8 L626,8 L637,9 L642,14 L644,25 L648,26 L665,26 L682,28 L732,28 L734,29 L748,29 L776,31 L805,31 L812,32 L857,34 L894,35 L902,36 L918,36 L926,37 L964,38 L970,39 L987,40 L1015,40 L1021,41 L1033,41 L1052,42 L1086,43 L1086,81 L1084,82 L1047,80 L1002,79 L997,78 L979,77 L964,77 L958,75 L945,75 L905,72 L864,70 L853,69 L832,69 L825,68 L801,67 L791,66 L757,65 L736,63 L680,61 L668,60 L618,58 L610,63 L606,68 L601,74 L596,76 L576,74 L552,68 L541,63 L532,61 L517,59 L507,57 L494,56 L490,55 L474,54 L465,52 L452,52 L447,51 L421,51 L416,49 L392,48 L383,47 L364,47 L350,46 L292,44 L284,44 L276,42 L224,41 L206,40 L204,39 L161,38 L152,38 L145,36 L136,37 L133,36 L65,33 L49,31 L43,30 L34,31 L10,31 L0,29 Z " fill="#000000" transform="translate(0,778)"/>
<path d="M0,0 L9,1 L12,3 L27,6 L40,5 L50,2 L60,2 L73,7 L85,6 L92,4 L118,4 L184,6 L190,5 L206,7 L218,7 L225,8 L259,8 L268,9 L283,9 L300,10 L313,10 L321,11 L344,11 L352,10 L393,10 L449,8 L458,7 L481,5 L493,4 L543,3 L553,2 L588,2 L596,6 L600,15 L609,17 L610,18 L655,18 L658,20 L683,20 L742,22 L751,20 L754,22 L772,23 L830,25 L864,25 L883,26 L900,26 L909,27 L973,29 L1023,30 L1037,30 L1064,31 L1086,31 L1086,69 L1076,69 L1073,68 L1042,68 L1012,67 L994,66 L970,65 L960,64 L946,64 L936,63 L924,63 L888,61 L874,60 L857,60 L853,59 L821,59 L813,58 L793,58 L764,56 L727,55 L724,54 L711,54 L702,53 L655,53 L653,57 L653,59 L658,61 L658,65 L651,67 L614,65 L589,64 L582,63 L558,62 L514,59 L504,54 L485,51 L468,49 L431,46 L418,46 L406,44 L385,43 L373,42 L352,41 L325,41 L313,40 L294,40 L277,39 L235,38 L197,37 L192,36 L167,36 L156,34 L130,34 L114,33 L111,32 L95,32 L51,31 L38,30 L0,29 Z " fill="#000000" transform="translate(0,857)"/>
<path d="M0,0 L49,0 L70,1 L103,1 L141,2 L154,3 L165,3 L176,4 L188,10 L193,14 L196,16 L206,18 L223,19 L280,20 L326,20 L331,19 L335,21 L393,22 L437,23 L458,24 L511,25 L573,25 L573,66 L565,66 L563,65 L540,64 L506,64 L498,63 L475,63 L447,62 L441,61 L422,60 L384,59 L372,58 L357,58 L275,55 L269,54 L227,53 L213,53 L203,52 L166,52 L162,53 L162,59 L169,61 L191,63 L228,68 L232,72 L231,77 L224,85 L223,91 L241,92 L275,92 L385,93 L402,94 L573,94 L573,122 L148,122 L147,121 L140,122 L110,122 L108,121 L67,121 L59,122 L58,121 L33,120 L2,120 L-3,122 L-7,121 L-11,120 L-47,120 L-118,119 L-167,119 L-169,118 L-264,118 L-302,117 L-397,117 L-406,116 L-473,116 L-513,115 L-513,87 L-473,87 L-428,88 L-393,88 L-389,87 L-360,88 L-310,89 L-301,88 L-282,89 L-233,89 L-214,90 L-115,90 L-108,89 L-83,90 L-15,90 L97,91 L127,90 L131,89 L132,86 L122,85 L109,81 L93,79 L82,77 L70,75 L41,71 L26,70 L19,68 L7,66 L-11,64 L-35,59 L-52,55 L-60,49 L-67,45 L-122,44 L-128,47 L-134,43 L-147,44 L-166,44 L-170,43 L-184,43 L-190,42 L-216,42 L-226,41 L-273,41 L-307,39 L-336,39 L-349,38 L-394,38 L-402,37 L-431,37 L-434,36 L-466,36 L-484,35 L-491,36 L-496,35 L-513,35 L-513,6 L-497,5 L-493,4 L-485,4 L-481,6 L-467,6 L-452,7 L-432,7 L-392,8 L-373,8 L-364,9 L-313,9 L-301,10 L-279,10 L-248,11 L-215,11 L-202,12 L-153,13 L-141,13 L-82,10 L-69,8 L-52,7 L-39,5 L-11,3 Z M88,48 L85,51 L87,55 L98,59 L112,60 L117,58 L117,53 L112,50 L103,48 Z " fill="#000000" transform="translate(513,931)"/>
</svg>
