<?xml version="1.0" encoding="UTF-8"?>
<!-- Generator: visioncortex VTracer 0.6.12 -->
<svg version="1.1" xmlns="http://www.w3.org/2000/svg" width="411" height="537">
<path d="M0,0 L9,0 L14,1 L44,1 L60,4 L71,5 L80,5 L86,4 L176,4 L194,3 L205,2 L213,3 L224,3 L232,2 L235,3 L265,3 L273,1 L286,3 L289,7 L287,13 L280,25 L277,31 L270,39 L265,44 L258,51 L245,61 L242,64 L239,65 L209,66 L128,66 L99,67 L80,67 L64,68 L52,67 L49,66 L42,66 L37,68 L25,68 L-2,66 L-13,59 L-21,52 L-29,45 L-38,34 L-46,20 L-45,10 L-40,7 L-28,6 L-15,1 L-5,2 Z " fill="#000000" transform="translate(88,37)"/>
<path d="M0,0 L18,0 L23,3 L22,7 L21,8 L14,9 L-1,9 L-5,8 L-44,8 L-52,9 L-77,8 L-107,9 L-117,9 L-125,10 L-192,10 L-196,8 L-197,5 L-195,3 L-190,2 L-94,2 L-78,1 L-64,1 L-40,2 L-9,2 Z " fill="#000000" transform="translate(293,126)"/>
<path d="M0,0 L27,1 L30,0 L47,0 L53,3 L54,7 L53,8 L45,8 L38,9 L-47,9 L-59,10 L-94,10 L-102,9 L-120,11 L-162,11 L-171,9 L-172,4 L-171,3 L-161,2 L-133,2 L-124,1 L-96,1 L-81,2 L-70,2 L-63,1 L-5,1 Z " fill="#000000" transform="translate(264,151)"/>
<path d="M0,0 L40,0 L43,1 L44,6 L41,8 L13,8 L3,7 L-7,9 L-10,8 L-30,8 L-53,10 L-70,10 L-74,9 L-105,8 L-132,11 L-148,10 L-158,9 L-161,10 L-171,10 L-172,6 L-168,3 L-102,3 L-100,2 L-79,2 L-52,1 Z " fill="#000000" transform="translate(275,176)"/>
<path d="M0,0 L71,0 L74,3 L73,6 L62,7 L3,9 L-3,8 L-24,8 L-45,7 L-55,9 L-79,9 L-85,8 L-90,9 L-115,9 L-124,8 L-147,9 L-148,5 L-141,3 L-116,3 L-68,2 L-30,1 L-10,1 Z " fill="#000000" transform="translate(245,201)"/>
<path d="M0,0 L16,1 L50,1 L53,4 L52,8 L50,10 L7,11 L-41,11 L-53,12 L-63,11 L-78,13 L-99,12 L-171,12 L-174,10 L-174,7 L-169,5 L-162,4 L-73,3 L-14,3 Z " fill="#000000" transform="translate(266,224)"/>
<path d="M0,0 L37,0 L40,2 L39,7 L-2,8 L-87,8 L-92,9 L-164,10 L-171,7 L-171,4 L-123,2 L-113,1 L-94,1 L-91,2 L-75,2 L-67,1 L-64,2 L-27,2 L-24,1 L-7,1 Z " fill="#000000" transform="translate(277,251)"/>
<path d="M0,0 L16,0 L21,3 L20,8 L-27,9 L-35,10 L-99,10 L-126,11 L-166,10 L-187,10 L-188,7 L-180,5 L-173,4 L-154,4 L-121,3 L-105,2 L-85,2 L-79,1 L-12,1 L-8,3 L-3,2 Z " fill="#000000" transform="translate(296,275)"/>
<path d="M0,0 L5,2 L4,4 L-1,4 Z " fill="#000000" transform="translate(100,281)"/>
<path d="M0,0 L38,0 L43,2 L43,6 L40,8 L15,9 L-46,9 L-93,11 L-114,10 L-131,11 L-171,12 L-176,10 L-175,5 L-139,3 L-130,2 L-122,3 L-95,3 L-86,2 L-47,1 L-11,1 Z " fill="#000000" transform="translate(273,301)"/>
<path d="M0,0 L14,1 L17,3 L17,7 L12,8 L-20,10 L-28,10 L-32,9 L-61,9 L-66,10 L-86,10 L-124,11 L-148,11 L-151,12 L-199,12 L-202,10 L-202,7 L-200,6 L-189,5 L-163,4 L-156,3 L-108,3 L-71,2 L-55,3 L-25,2 L-10,1 Z " fill="#000000" transform="translate(299,326)"/>
<path d="M0,0 L20,0 L26,3 L24,8 L-2,9 L-8,10 L-50,9 L-89,10 L-104,11 L-168,12 L-196,12 L-198,11 L-197,6 L-194,4 L-186,4 L-178,5 L-159,4 L-148,3 L-137,3 L-126,2 L-66,2 L-58,1 L-46,2 L-28,2 Z " fill="#000000" transform="translate(292,352)"/>
<path d="M0,0 L14,1 L52,0 L57,2 L58,6 L54,9 L34,9 L28,8 L22,10 L13,10 L-13,8 L-18,6 L-25,7 L-34,9 L-41,10 L-65,11 L-100,11 L-127,12 L-132,13 L-163,13 L-167,10 L-166,6 L-161,4 L-151,3 L-123,2 L-98,2 L-20,1 Z " fill="#000000" transform="translate(261,379)"/>
<path d="M0,0 L120,0 L124,3 L123,9 L121,10 L100,11 L56,11 L47,12 L-10,12 L-60,13 L-77,14 L-89,14 L-98,13 L-100,8 L-96,4 L-79,1 L-67,1 L-61,3 L-52,2 L-10,1 Z " fill="#000000" transform="translate(194,407)"/>
<path d="M0,0 L12,0 L36,1 L64,0 L73,1 L92,12 L98,17 L103,20 L112,31 L117,34 L127,51 L127,58 L125,60 L59,62 L45,62 L35,61 L21,61 L12,62 L-7,61 L-12,60 L-20,60 L-36,63 L-55,62 L-67,62 L-71,63 L-118,63 L-150,64 L-167,61 L-172,63 L-186,63 L-211,62 L-215,59 L-214,55 L-210,49 L-200,40 L-194,32 L-183,20 L-173,11 L-169,7 L-163,3 L-159,2 L-98,2 L-80,3 L-68,2 L-31,1 L-10,1 Z " fill="#000000" transform="translate(251,441)"/>
</svg>
