<?xml version="1.0" encoding="UTF-8"?>
<!-- Generator: visioncortex VTracer 0.6.12 -->
<svg version="1.1" xmlns="http://www.w3.org/2000/svg" width="1068" height="1095">
<path d="M0,0 L1064,0 L1064,380 L1060,376 L1055,362 L1051,353 L1045,345 L1041,337 L1041,335 L1038,334 L1032,323 L1027,318 L1023,312 L1023,310 L1021,310 L1016,305 L1008,296 L1005,294 L1005,292 L1003,292 L999,287 L993,283 L973,271 L959,265 L938,259 L931,257 L928,254 L930,242 L931,236 L931,227 L925,210 L915,196 L910,194 L905,197 L897,206 L891,217 L887,226 L884,231 L880,229 L877,218 L872,206 L863,191 L858,190 L849,198 L841,208 L834,223 L832,230 L831,238 L831,251 L832,262 L829,271 L816,294 L810,303 L804,314 L794,332 L782,353 L774,360 L754,363 L738,365 L675,379 L660,383 L631,392 L606,401 L581,415 L572,421 L555,433 L542,444 L536,449 L531,454 L525,461 L520,466 L510,478 L504,489 L496,505 L492,514 L488,527 L480,554 L474,590 L472,602 L470,632 L469,664 L471,697 L475,728 L478,747 L481,760 L486,781 L490,795 L492,800 L491,804 L487,803 L483,798 L476,787 L468,771 L463,760 L459,749 L455,739 L453,729 L449,713 L446,688 L444,656 L444,634 L446,588 L450,555 L456,527 L464,501 L468,487 L472,476 L476,463 L481,447 L484,430 L485,415 L485,392 L483,378 L480,364 L472,341 L463,321 L456,309 L449,299 L441,287 L432,277 L424,267 L412,257 L402,250 L394,244 L383,238 L375,233 L361,227 L339,220 L331,218 L319,215 L299,211 L288,210 L259,210 L236,211 L214,214 L193,219 L166,227 L152,233 L140,239 L130,245 L115,255 L103,264 L97,269 L90,277 L83,284 L75,294 L68,304 L57,325 L51,341 L46,356 L40,389 L39,401 L39,438 L42,459 L46,474 L51,489 L59,505 L67,520 L77,535 L87,549 L96,559 L103,567 L112,576 L125,586 L143,599 L168,612 L183,618 L195,623 L202,624 L201,618 L198,609 L191,586 L189,576 L186,560 L184,542 L184,526 L186,512 L190,501 L196,491 L205,483 L209,482 L217,482 L227,486 L235,494 L240,507 L242,515 L243,527 L243,563 L242,589 L241,596 L241,652 L245,685 L250,706 L253,718 L258,731 L267,751 L277,769 L286,783 L295,797 L305,811 L316,824 L321,829 L326,835 L334,842 L346,853 L357,861 L366,867 L376,873 L392,883 L404,889 L412,892 L429,899 L448,905 L467,910 L483,914 L496,917 L505,918 L515,920 L535,923 L580,924 L645,924 L653,925 L673,925 L706,926 L741,926 L823,927 L867,928 L869,927 L869,917 L864,905 L858,896 L849,887 L838,882 L826,880 L804,880 L795,882 L791,884 L787,883 L788,878 L796,871 L802,863 L807,858 L814,850 L828,831 L837,814 L843,796 L846,783 L846,755 L844,739 L841,730 L837,717 L829,701 L822,692 L816,685 L805,676 L802,672 L803,666 L807,659 L817,642 L823,633 L825,632 L843,633 L870,635 L873,638 L873,680 L874,683 L881,683 L900,673 L910,664 L917,653 L922,640 L923,636 L923,617 L920,605 L912,590 L903,580 L903,578 L900,577 L896,572 L883,562 L875,558 L870,552 L872,546 L883,530 L896,512 L906,497 L919,478 L932,459 L942,444 L945,441 L969,438 L995,431 L1014,423 L1029,415 L1043,406 L1054,397 L1056,397 L1058,393 L1062,388 L1064,388 L1064,1095 L-4,1095 L-4,278 L-3,276 L-3,218 L-2,189 L-1,34 Z " fill="#000000" transform="translate(4,0)"/>
<path d="M0,0 L11,0 L19,5 L23,11 L25,17 L25,25 L21,35 L14,41 L11,42 L1,42 L-8,36 L-13,29 L-13,15 L-9,7 L-2,1 Z " fill="#000000" transform="translate(967,309)"/>
</svg>
