<?xml version="1.0" encoding="UTF-8"?>
<!-- Generator: visioncortex VTracer 0.6.12 -->
<svg version="1.1" xmlns="http://www.w3.org/2000/svg" width="813" height="891">
<path d="M0,0 L33,0 L41,9 L44,18 L45,36 L47,37 L56,37 L74,39 L84,41 L100,42 L105,44 L124,45 L139,47 L168,50 L181,51 L184,52 L219,55 L222,56 L233,57 L249,61 L261,67 L272,77 L277,87 L280,96 L282,100 L286,103 L294,105 L297,110 L297,123 L293,128 L284,130 L283,140 L284,143 L289,143 L297,135 L303,131 L307,132 L309,135 L310,154 L308,165 L301,173 L291,183 L283,193 L282,199 L281,224 L281,261 L280,323 L279,404 L279,450 L278,498 L278,534 L277,554 L273,565 L267,574 L260,581 L250,587 L239,591 L219,592 L206,592 L210,596 L218,599 L228,605 L238,614 L245,622 L250,629 L254,642 L256,654 L255,680 L257,686 L260,702 L260,719 L258,727 L252,743 L244,753 L239,758 L233,765 L231,780 L228,789 L222,801 L216,809 L210,815 L208,815 L206,819 L197,825 L183,830 L164,834 L131,834 L126,831 L124,828 L124,821 L127,815 L130,813 L150,813 L173,809 L182,808 L192,802 L198,795 L202,791 L205,786 L206,780 L203,777 L198,778 L178,779 L161,776 L149,770 L141,763 L137,756 L135,752 L135,738 L138,732 L145,723 L156,717 L155,712 L148,704 L144,696 L143,690 L143,677 L147,667 L156,658 L162,654 L177,648 L185,646 L204,646 L221,650 L224,651 L231,651 L232,647 L229,638 L222,629 L218,625 L203,617 L195,615 L182,614 L162,621 L150,628 L139,638 L130,649 L120,664 L116,671 L114,678 L113,688 L113,723 L114,741 L113,769 L111,782 L107,791 L99,802 L92,808 L81,814 L66,816 L3,816 L-21,815 L-62,815 L-80,817 L-85,819 L-92,819 L-102,815 L-138,814 L-146,815 L-162,813 L-175,814 L-202,814 L-216,815 L-220,813 L-253,813 L-263,814 L-276,813 L-279,812 L-388,812 L-397,808 L-407,802 L-417,793 L-423,781 L-427,769 L-427,746 L-426,711 L-426,638 L-425,609 L-425,595 L-426,577 L-429,571 L-434,566 L-443,556 L-446,550 L-446,526 L-443,522 L-437,523 L-431,529 L-426,529 L-425,524 L-426,516 L-429,513 L-438,510 L-440,505 L-440,498 L-436,492 L-425,488 L-418,475 L-409,464 L-395,455 L-386,452 L-375,450 L-360,449 L-349,447 L-348,443 L-358,440 L-372,430 L-382,425 L-395,415 L-402,410 L-402,408 L-405,407 L-412,399 L-420,389 L-426,377 L-430,365 L-431,359 L-431,339 L-426,323 L-417,304 L-416,277 L-416,260 L-412,235 L-409,227 L-408,219 L-408,210 L-413,194 L-415,184 L-415,171 L-412,157 L-411,144 L-408,134 L-403,127 L-397,115 L-390,106 L-380,97 L-372,90 L-364,86 L-357,82 L-341,75 L-331,72 L-328,69 L-327,60 L-321,56 L-314,56 L-305,60 L-286,64 L-277,70 L-273,72 L-262,73 L-257,78 L-257,87 L-253,87 L-250,77 L-240,67 L-229,59 L-217,54 L-210,52 L-178,49 L-145,47 L-126,45 L-102,44 L-99,43 L-61,41 L-42,38 L-33,37 L-21,37 L-13,35 L-12,34 L-12,18 L-9,9 L-5,3 Z M13,12 L8,16 L7,18 L7,26 L12,31 L15,33 L20,32 L25,26 L25,18 L20,13 Z M6,57 L-25,59 L-30,60 L-53,62 L-103,67 L-117,68 L-121,69 L-154,72 L-168,74 L-194,76 L-203,77 L-218,83 L-224,91 L-223,96 L-216,98 L-196,98 L-187,99 L-154,99 L-79,100 L3,100 L21,102 L29,102 L32,101 L55,102 L80,102 L89,103 L246,103 L249,101 L248,94 L240,87 L231,84 L218,81 L191,78 L154,73 L117,69 L102,67 L100,66 L72,63 L56,61 L33,59 L15,57 Z M-339,97 L-351,102 L-362,108 L-370,115 L-370,117 L-372,117 L-381,128 L-386,135 L-393,157 L-394,169 L-393,179 L-390,182 L-386,181 L-375,171 L-361,163 L-350,158 L-325,156 L-314,157 L-301,160 L-285,168 L-276,175 L-272,177 L-270,181 L-261,193 L-257,193 L-256,191 L-256,184 L-259,179 L-261,179 L-263,175 L-267,171 L-271,164 L-275,159 L-276,156 L-276,136 L-273,126 L-268,125 L-262,133 L-258,135 L-255,132 L-255,125 L-258,122 L-268,120 L-270,103 L-273,98 L-280,99 L-285,101 L-304,105 L-312,108 L-322,109 L-325,106 L-330,97 Z M-156,120 L-199,121 L-222,121 L-226,123 L-228,129 L-228,166 L-223,174 L-218,179 L-213,187 L-212,193 L-212,215 L-213,219 L-219,219 L-223,216 L-228,217 L-230,224 L-230,243 L-231,284 L-232,340 L-232,430 L-228,435 L-211,435 L-189,433 L-184,430 L-183,429 L-183,416 L-181,408 L-175,399 L-169,394 L-159,391 L-149,392 L-135,400 L-130,408 L-129,411 L-128,431 L-126,433 L-105,436 L-101,437 L-86,438 L-74,441 L-57,442 L-44,445 L-24,446 L-7,449 L11,451 L21,453 L51,456 L71,459 L82,463 L98,473 L105,481 L112,495 L117,499 L125,501 L127,504 L127,516 L126,518 L117,521 L114,531 L114,542 L119,543 L125,538 L130,533 L130,531 L135,529 L140,528 L143,531 L143,561 L147,564 L234,564 L245,557 L248,552 L250,541 L250,484 L251,474 L251,458 L252,427 L252,374 L253,355 L253,342 L254,308 L254,273 L255,261 L255,233 L254,224 L246,220 L245,218 L244,207 L244,191 L248,184 L255,174 L256,134 L253,129 L250,127 L228,126 L209,126 L195,125 L124,125 L82,124 L17,123 L0,122 L-122,121 Z M-336,176 L-353,182 L-364,189 L-373,198 L-379,208 L-380,215 L-373,225 L-365,234 L-355,241 L-343,247 L-336,249 L-310,249 L-297,244 L-286,237 L-279,229 L-276,222 L-276,214 L-281,202 L-294,187 L-305,180 L-319,176 Z M-262,241 L-273,253 L-280,259 L-294,265 L-312,269 L-325,270 L-325,274 L-315,278 L-306,280 L-301,284 L-292,289 L-283,296 L-276,302 L-267,318 L-263,326 L-258,327 L-256,296 L-256,272 L-257,242 Z M-390,242 L-393,248 L-395,272 L-395,279 L-391,283 L-374,277 L-340,271 L-340,268 L-354,264 L-369,256 L-380,248 L-386,242 Z M-350,294 L-366,296 L-377,300 L-386,306 L-390,311 L-391,317 L-383,338 L-377,348 L-372,354 L-364,361 L-355,369 L-348,373 L-334,377 L-326,378 L-314,378 L-305,376 L-296,370 L-286,361 L-281,350 L-281,337 L-285,327 L-292,317 L-294,317 L-296,313 L-305,305 L-325,296 L-328,295 Z M-410,341 L-411,344 L-411,351 L-406,368 L-399,380 L-391,391 L-386,396 L-384,396 L-384,398 L-376,405 L-366,412 L-357,417 L-351,421 L-341,424 L-330,430 L-315,434 L-308,437 L-299,439 L-290,441 L-273,441 L-263,440 L-258,435 L-257,429 L-257,399 L-258,357 L-262,357 L-269,371 L-277,382 L-288,390 L-297,394 L-301,395 L-324,397 L-337,396 L-349,393 L-361,388 L-371,382 L-382,373 L-394,359 L-400,349 L-405,341 Z M-160,407 L-164,410 L-165,419 L-162,426 L-160,428 L-154,427 L-147,421 L-146,417 L-150,409 L-154,407 Z M-162,453 L-195,456 L-198,457 L-216,457 L-224,459 L-240,460 L-250,462 L-272,463 L-296,466 L-323,467 L-330,469 L-357,471 L-378,474 L-390,480 L-394,485 L-393,489 L-391,490 L-372,491 L-314,491 L-264,492 L-196,493 L-156,494 L-133,494 L-111,495 L-93,495 L-86,496 L-4,496 L1,497 L80,497 L82,495 L81,490 L74,483 L67,480 L43,477 L1,471 L-16,469 L-32,467 L-39,466 L-57,465 L-75,463 L-92,460 L-103,459 L-110,457 L-123,456 L-134,454 L-144,453 Z M-396,512 L-400,514 L-402,523 L-402,556 L-397,566 L-393,572 L-392,575 L-391,594 L-393,600 L-400,602 L-402,607 L-403,623 L-403,644 L-404,673 L-404,737 L-403,768 L-398,778 L-394,782 L-383,787 L-370,788 L-331,788 L-296,790 L-265,790 L-237,791 L-210,791 L-205,792 L-188,792 L-156,793 L-101,793 L-96,794 L-44,794 L-37,792 L-29,793 L-16,794 L-9,795 L64,795 L75,791 L83,784 L88,774 L90,739 L91,688 L91,671 L92,663 L92,616 L90,612 L84,608 L82,598 L82,584 L88,575 L91,569 L92,534 L90,522 L86,519 L17,518 L7,517 L-60,517 L-79,516 L-115,516 L-166,515 L-186,514 L-264,514 L-343,512 L-348,513 Z M119,589 L114,594 L113,609 L113,626 L115,631 L120,630 L126,623 L136,617 L141,612 L151,605 L167,597 L173,594 L174,592 L173,590 Z M192,666 L179,668 L171,672 L166,677 L164,683 L165,689 L168,696 L173,699 L178,702 L190,705 L206,704 L213,701 L219,697 L224,692 L227,687 L228,681 L222,674 L210,668 L198,666 Z M233,709 L223,716 L210,721 L207,724 L209,728 L219,739 L223,742 L228,741 L234,729 L239,716 L238,710 Z M169,738 L160,741 L159,747 L163,753 L172,756 L179,757 L193,757 L198,755 L199,749 L190,742 L186,740 L174,738 Z " fill="#000000" transform="translate(476,29)"/>
</svg>
