<?xml version="1.0" encoding="UTF-8"?>
<!-- Generator: visioncortex VTracer 0.6.12 -->
<svg version="1.1" xmlns="http://www.w3.org/2000/svg" width="1113" height="1104">
<path d="M0,0 L94,0 L92,2 L63,4 L55,6 L34,8 L9,13 L1,15 L-13,18 L-30,22 L-51,29 L-61,32 L-71,36 L-89,42 L-100,47 L-115,53 L-131,61 L-164,78 L-175,85 L-188,93 L-197,99 L-212,110 L-223,118 L-235,127 L-243,134 L-250,140 L-258,139 L-258,145 L-262,151 L-267,155 L-269,158 L-271,158 L-272,161 L-274,161 L-276,165 L-281,169 L-288,177 L-304,194 L-315,208 L-324,219 L-328,225 L-337,236 L-344,247 L-351,257 L-360,272 L-365,281 L-372,292 L-380,309 L-390,328 L-400,352 L-403,359 L-411,381 L-414,390 L-417,399 L-421,415 L-426,431 L-431,461 L-435,488 L-438,524 L-439,544 L-440,549 L-441,549 L-441,451 L-439,446 L-437,432 L-430,408 L-424,388 L-410,347 L-395,314 L-387,298 L-380,284 L-375,277 L-368,263 L-361,252 L-351,237 L-339,220 L-329,207 L-316,191 L-304,177 L-296,169 L-289,161 L-271,143 L-263,136 L-249,124 L-239,115 L-233,111 L-225,104 L-215,97 L-205,89 L-194,82 L-183,75 L-156,59 L-126,44 L-116,39 L-100,33 L-92,29 L-71,21 L-42,12 L-22,6 L-1,1 Z " fill="#000000" transform="translate(441,0)"/>
<path d="M0,0 Z " fill="#000000" transform="translate(538,0)"/>
<path d="M0,0 L13,0 L13,1 L0,1 Z " fill="#000000" transform="translate(569,0)"/>
<path d="M0,0 L101,0 L110,3 L132,10 L144,13 L154,16 L174,23 L184,27 L210,38 L239,52 L261,64 L282,77 L300,89 L319,103 L329,111 L346,125 L353,132 L362,139 L367,144 L376,154 L384,161 L397,174 L406,185 L416,197 L425,208 L437,224 L444,234 L461,260 L467,270 L469,272 L473,282 L476,287 L481,295 L489,311 L494,322 L502,341 L509,361 L514,374 L517,383 L519,391 L523,405 L525,415 L528,427 L529,428 L529,530 L527,527 L525,494 L520,457 L518,444 L515,429 L511,415 L508,403 L507,396 L504,389 L495,362 L489,346 L477,319 L469,303 L461,288 L457,281 L455,275 L449,268 L440,252 L433,242 L423,228 L416,219 L409,209 L398,196 L391,188 L382,178 L372,168 L365,160 L355,151 L344,141 L336,134 L324,124 L314,117 L308,112 L296,103 L286,96 L277,90 L259,78 L229,62 L213,54 L185,42 L164,34 L137,25 L126,22 L122,20 L110,18 L100,15 L81,12 L75,10 L59,8 L46,6 L32,4 L11,3 L0,1 Z " fill="#000000" transform="translate(584,0)"/>
<path d="M0,0 L41,1 L87,2 L122,3 L126,7 L126,27 L125,62 L125,75 L128,77 L142,78 L233,79 L235,81 L234,115 L234,152 L237,154 L314,156 L323,157 L332,156 L343,156 L345,159 L345,172 L344,201 L344,229 L345,231 L348,232 L455,234 L456,235 L455,258 L454,307 L459,310 L565,312 L568,315 L568,330 L567,379 L569,386 L584,387 L647,388 L674,388 L678,391 L678,462 L685,464 L724,465 L786,466 L790,470 L789,503 L789,522 L788,532 L788,547 L787,568 L783,571 L765,571 L711,570 L659,569 L596,568 L479,566 L459,566 L415,565 L197,562 L138,562 L40,561 L-15,561 L-18,558 L-18,531 L-17,494 L-14,364 L-11,261 L-10,200 L-8,156 L-8,139 L-6,71 L-5,25 L-4,6 L-1,1 Z M360,343 L360,348 L363,347 L363,343 Z " fill="#000000" transform="translate(191,268)"/>
<path d="M0,0 L1,0 L1,5 L0,5 Z " fill="#000000" transform="translate(1112,536)"/>
<path d="M0,0 L1,0 L1,105 L-2,114 L-7,135 L-12,152 L-20,176 L-23,183 L-27,195 L-34,210 L-40,225 L-46,237 L-53,251 L-62,266 L-71,281 L-80,295 L-87,305 L-91,311 L-104,329 L-115,343 L-120,348 L-128,358 L-133,363 L-137,368 L-142,372 L-149,380 L-156,386 L-161,392 L-172,401 L-180,409 L-188,416 L-201,426 L-211,434 L-227,446 L-237,453 L-245,458 L-263,469 L-272,474 L-291,484 L-301,489 L-317,497 L-328,502 L-344,508 L-370,518 L-392,525 L-405,529 L-421,533 L-436,536 L-439,536 L-439,538 L-664,538 L-664,536 L-675,535 L-682,533 L-693,531 L-707,527 L-717,525 L-752,513 L-776,503 L-795,495 L-811,487 L-828,478 L-839,472 L-861,459 L-871,452 L-881,445 L-895,435 L-908,425 L-918,417 L-928,409 L-931,407 L-931,405 L-934,404 L-939,399 L-951,388 L-959,381 L-969,371 L-976,363 L-987,350 L-995,341 L-1003,331 L-1016,313 L-1024,302 L-1030,293 L-1036,284 L-1046,267 L-1052,257 L-1064,235 L-1069,224 L-1077,207 L-1082,193 L-1090,173 L-1093,166 L-1095,157 L-1103,126 L-1106,111 L-1109,105 L-1111,92 L-1112,91 L-1112,36 L-1110,38 L-1109,48 L-1108,73 L-1105,93 L-1102,105 L-1097,108 L-1093,123 L-1087,144 L-1080,164 L-1074,182 L-1071,188 L-1068,195 L-1060,213 L-1054,227 L-1048,237 L-1041,251 L-1034,264 L-1028,272 L-1019,288 L-1011,297 L-1004,309 L-995,319 L-987,330 L-979,339 L-972,348 L-967,353 L-957,363 L-957,365 L-953,367 L-943,378 L-943,380 L-939,382 L-939,384 L-935,386 L-921,398 L-910,407 L-898,417 L-892,421 L-884,428 L-870,438 L-859,445 L-848,452 L-837,459 L-821,467 L-805,476 L-778,488 L-751,499 L-718,510 L-709,512 L-692,517 L-675,521 L-662,524 L-643,528 L-629,530 L-625,531 L-601,533 L-591,534 L-555,535 L-521,534 L-507,533 L-500,533 L-459,527 L-439,523 L-419,519 L-376,506 L-359,500 L-347,495 L-328,487 L-321,484 L-300,474 L-286,466 L-276,460 L-262,453 L-251,445 L-239,437 L-226,428 L-216,421 L-205,412 L-197,406 L-195,406 L-193,402 L-185,395 L-177,388 L-173,384 L-168,379 L-165,378 L-163,374 L-158,369 L-154,367 L-152,363 L-149,360 L-147,360 L-145,356 L-138,349 L-131,340 L-119,326 L-105,307 L-95,293 L-90,286 L-86,279 L-80,269 L-71,254 L-62,238 L-54,222 L-49,212 L-43,197 L-39,189 L-35,176 L-31,167 L-24,145 L-19,128 L-13,105 L-9,86 L-6,63 L-5,51 L-3,38 L-2,13 L-1,2 Z " fill="#000000" transform="translate(1112,566)"/>
</svg>
