<?xml version="1.0" encoding="UTF-8"?>
<!-- Generator: visioncortex VTracer 0.6.12 -->
<svg version="1.1" xmlns="http://www.w3.org/2000/svg" width="1128" height="1128">
<path d="M0,0 L872,0 L872,2 L884,4 L900,10 L917,18 L933,28 L943,35 L956,47 L964,54 L976,68 L987,83 L999,105 L1005,119 L1006,120 L1006,976 L1004,982 L1000,1001 L993,1020 L984,1040 L968,1064 L957,1077 L945,1090 L931,1101 L923,1107 L914,1113 L906,1117 L890,1125 L885,1126 L885,1128 L4,1128 L-4,1125 L-28,1115 L-41,1108 L-55,1099 L-67,1090 L-79,1078 L-84,1073 L-94,1062 L-104,1047 L-112,1034 L-121,1014 L-122,1013 L-122,142 L-120,139 L-116,122 L-110,106 L-102,90 L-92,72 L-79,56 L-70,46 L-63,39 L-49,28 L-37,19 L-31,16 L-19,9 L-3,2 L0,2 Z M51,24 L26,29 L13,33 L-6,41 L-27,54 L-34,60 L-42,67 L-50,75 L-59,86 L-65,95 L-73,108 L-78,119 L-84,136 L-88,154 L-89,159 L-91,320 L-91,339 L-92,387 L-93,442 L-95,589 L-95,609 L-96,678 L-96,697 L-98,812 L-99,890 L-99,962 L-95,985 L-89,1002 L-79,1023 L-68,1039 L-59,1050 L-47,1062 L-33,1073 L-23,1079 L-13,1084 L-1,1090 L8,1093 L25,1098 L39,1100 L63,1101 L239,1102 L391,1103 L504,1104 L664,1105 L726,1106 L825,1106 L844,1104 L863,1099 L883,1091 L903,1080 L917,1069 L931,1056 L938,1048 L948,1033 L953,1025 L961,1009 L967,991 L970,980 L973,956 L974,893 L975,856 L976,786 L977,669 L979,570 L980,444 L982,348 L982,176 L979,155 L975,140 L972,130 L966,116 L958,102 L950,91 L938,77 L927,66 L910,54 L894,45 L882,40 L858,33 L844,31 L825,30 L801,30 L702,29 L675,29 L583,28 L559,28 L461,27 L326,26 L233,25 L167,24 Z " fill="#000000" transform="translate(122,0)"/>
<path d="M0,0 L12,0 L16,9 L20,15 L26,19 L35,19 L41,16 L45,12 L48,2 L50,0 L60,0 L63,5 L67,13 L71,17 L74,18 L83,18 L90,15 L94,8 L97,1 L104,0 L109,1 L115,12 L122,16 L124,17 L131,17 L136,14 L138,14 L140,9 L145,1 L154,1 L157,6 L160,12 L165,16 L170,18 L177,18 L186,12 L191,2 L192,1 L200,1 L204,6 L207,13 L213,18 L217,19 L224,19 L232,14 L238,2 L246,1 L250,3 L255,14 L261,19 L264,20 L271,20 L278,17 L282,12 L285,4 L287,2 L296,2 L302,14 L308,19 L310,20 L320,20 L326,16 L330,11 L332,4 L335,2 L342,2 L346,5 L349,13 L353,18 L357,20 L367,20 L374,16 L378,8 L381,3 L391,3 L394,6 L396,13 L404,20 L406,21 L414,21 L420,18 L426,11 L428,4 L430,3 L438,3 L441,6 L444,15 L450,20 L452,21 L463,21 L469,17 L476,4 L487,4 L492,16 L498,21 L502,22 L509,22 L515,19 L519,14 L523,5 L524,4 L532,4 L535,7 L537,14 L543,21 L550,23 L556,23 L562,19 L567,12 L569,5 L571,4 L580,4 L583,6 L586,15 L587,18 L591,20 L600,25 L601,26 L601,34 L599,37 L590,41 L587,44 L584,51 L584,58 L588,66 L592,69 L600,73 L601,75 L601,81 L597,85 L589,88 L585,93 L584,96 L584,108 L590,116 L599,120 L600,121 L600,129 L597,132 L588,136 L584,142 L583,151 L586,159 L591,163 L598,166 L600,169 L599,177 L597,179 L589,182 L584,188 L582,192 L582,201 L586,207 L587,210 L596,213 L599,218 L598,225 L588,230 L582,239 L582,248 L587,256 L592,259 L598,263 L598,271 L594,274 L586,278 L581,287 L581,295 L587,304 L594,307 L601,307 L608,304 L612,299 L616,291 L623,290 L628,293 L632,303 L640,308 L650,308 L658,302 L661,297 L665,291 L673,291 L676,294 L681,304 L688,308 L698,308 L705,304 L711,293 L713,291 L719,291 L723,293 L727,302 L733,307 L740,311 L740,320 L738,323 L729,327 L725,332 L724,336 L724,345 L727,351 L733,355 L739,358 L739,369 L729,374 L725,378 L723,384 L724,393 L728,400 L737,405 L739,407 L739,415 L735,418 L728,421 L723,426 L722,429 L722,439 L725,445 L725,447 L730,449 L738,453 L738,463 L734,466 L727,470 L723,477 L723,487 L728,495 L737,500 L738,502 L738,510 L733,514 L725,518 L722,524 L722,537 L728,544 L736,548 L737,556 L733,560 L726,564 L722,570 L722,582 L726,588 L736,595 L736,605 L732,608 L724,612 L720,618 L719,621 L719,628 L724,636 L728,639 L733,641 L735,644 L735,652 L731,655 L723,659 L719,665 L719,677 L724,684 L733,689 L734,691 L734,699 L723,705 L719,711 L719,723 L725,731 L733,736 L734,738 L733,747 L722,753 L719,756 L714,766 L707,767 L704,764 L700,755 L693,749 L680,749 L674,754 L670,761 L668,765 L666,766 L660,766 L657,762 L653,754 L648,749 L644,748 L636,748 L630,751 L624,758 L621,765 L614,766 L610,764 L605,754 L600,750 L595,748 L588,748 L580,752 L573,764 L572,765 L562,764 L559,760 L556,753 L555,750 L550,748 L545,746 L537,747 L530,752 L527,757 L525,763 L521,765 L515,764 L512,759 L507,751 L499,747 L490,748 L483,753 L477,764 L468,764 L464,759 L459,751 L454,748 L452,747 L443,747 L437,751 L432,757 L429,763 L428,764 L421,763 L415,752 L414,749 L405,746 L398,747 L390,751 L386,759 L384,763 L377,764 L370,763 L364,751 L357,746 L351,744 L351,735 L353,733 L361,730 L366,724 L368,719 L368,711 L364,705 L363,702 L354,699 L351,696 L352,687 L362,682 L366,677 L368,673 L368,664 L365,658 L359,653 L353,650 L352,649 L352,641 L354,638 L364,635 L369,630 L371,624 L371,617 L368,611 L367,608 L362,606 L354,603 L352,599 L353,592 L360,589 L367,585 L371,576 L371,569 L368,563 L362,558 L354,555 L353,553 L353,546 L356,543 L366,539 L371,531 L372,524 L368,515 L366,512 L356,509 L354,507 L354,499 L359,496 L369,491 L372,485 L372,474 L368,468 L365,465 L356,462 L354,459 L355,450 L365,446 L370,441 L372,438 L372,426 L369,421 L363,416 L351,416 L345,420 L341,426 L338,431 L332,432 L327,430 L321,422 L321,420 L317,418 L312,416 L305,416 L298,420 L296,420 L294,425 L291,430 L289,431 L281,431 L277,428 L273,420 L267,416 L254,416 L248,421 L242,430 L235,431 L231,429 L227,421 L222,417 L220,416 L208,416 L201,421 L196,429 L195,430 L186,430 L182,425 L177,418 L170,415 L160,416 L153,422 L149,429 L147,430 L139,430 L135,425 L129,417 L125,415 L117,415 L111,418 L107,422 L103,429 L101,430 L93,430 L88,425 L84,419 L77,415 L68,415 L59,421 L54,429 L46,429 L42,424 L35,416 L30,414 L22,414 L14,419 L8,428 L7,429 L0,429 L-7,427 L-14,416 L-23,411 L-24,402 L-22,398 L-12,393 L-9,390 L-7,385 L-7,375 L-12,367 L-22,362 L-23,360 L-23,354 L-19,350 L-11,346 L-6,338 L-6,330 L-10,323 L-15,319 L-21,315 L-23,311 L-22,305 L-17,301 L-11,297 L-9,297 L-7,291 L-7,280 L-11,274 L-21,267 L-22,261 L-20,255 L-15,252 L-9,248 L-6,243 L-6,230 L-10,224 L-20,219 L-21,218 L-21,210 L-20,208 L-10,204 L-6,200 L-4,195 L-4,185 L-8,179 L-12,176 L-19,173 L-20,171 L-20,165 L-18,161 L-10,157 L-6,152 L-4,148 L-5,139 L-8,133 L-16,128 L-19,126 L-20,117 L-17,112 L-8,107 L-4,98 L-4,92 L-8,84 L-13,81 L-18,78 L-19,71 L-17,67 L-7,62 L-3,55 L-3,44 L-7,37 L-17,32 L-18,30 L-18,19 L-16,16 L-8,12 L-3,5 Z M4,5 L-2,15 L-12,23 L-11,27 L-1,34 L3,40 L4,44 L4,55 L1,62 L-3,67 L-8,70 L-9,73 L-4,79 L-2,79 L0,83 L3,90 L3,101 L-3,111 L-8,115 L-13,119 L-11,123 L-3,128 L1,134 L3,139 L3,149 L-2,158 L-11,166 L-10,170 L-1,176 L3,183 L3,198 L-3,206 L-8,210 L-11,212 L-11,216 L-5,220 L0,227 L2,235 L1,243 L-3,250 L-8,255 L-14,259 L-14,264 L-5,270 L0,278 L1,286 L-1,295 L-9,304 L-15,309 L-13,313 L-6,317 L0,327 L0,341 L-5,349 L-14,356 L-12,360 L-4,366 L0,374 L0,386 L-5,394 L-13,401 L-17,404 L-16,408 L-7,414 L-2,423 L3,424 L9,415 L19,409 L30,408 L39,412 L45,417 L47,421 L52,421 L57,414 L66,409 L80,409 L89,415 L93,420 L95,424 L100,423 L104,416 L109,412 L116,409 L126,409 L135,414 L139,419 L144,424 L151,415 L155,412 L163,409 L171,409 L179,412 L184,417 L189,424 L193,423 L197,416 L207,410 L221,410 L231,416 L235,423 L240,422 L246,414 L254,410 L260,409 L270,411 L278,416 L283,424 L287,424 L293,416 L299,412 L306,410 L316,411 L323,415 L328,421 L333,426 L337,421 L344,413 L354,409 L356,404 L356,401 L365,399 L372,393 L374,387 L374,380 L371,378 L125,376 L29,375 L28,374 L28,264 L30,143 L31,53 L34,50 L130,51 L195,51 L202,52 L247,52 L346,53 L368,53 L440,54 L542,55 L547,55 L547,164 L545,281 L545,303 L547,307 L549,308 L558,307 L566,301 L569,294 L572,287 L579,277 L584,272 L588,269 L587,264 L579,257 L575,248 L575,237 L580,229 L589,221 L587,217 L580,211 L575,201 L575,191 L579,183 L583,178 L590,173 L588,169 L581,163 L577,156 L576,153 L576,144 L580,135 L589,127 L588,123 L581,117 L578,112 L576,104 L576,98 L579,90 L583,84 L589,79 L588,75 L583,70 L578,64 L577,60 L577,50 L579,44 L584,37 L592,31 L591,27 L582,21 L578,13 L574,13 L571,17 L568,22 L563,26 L554,29 L545,28 L537,24 L535,24 L533,20 L530,15 L526,15 L522,21 L522,23 L517,25 L511,28 L501,28 L492,25 L485,17 L482,12 L478,14 L474,21 L466,26 L464,27 L451,27 L441,22 L435,13 L431,14 L426,22 L418,26 L415,27 L405,27 L395,22 L389,13 L386,10 L382,15 L379,20 L371,25 L364,27 L356,26 L348,22 L341,14 L340,12 L336,13 L330,21 L324,25 L321,26 L309,26 L302,23 L296,18 L293,13 L289,13 L283,21 L273,26 L263,26 L255,23 L248,16 L246,11 L242,10 L236,19 L228,24 L225,25 L215,25 L207,22 L202,17 L199,12 L198,10 L193,11 L189,18 L181,23 L178,24 L167,24 L157,19 L151,10 L147,11 L142,18 L133,23 L122,23 L112,18 L107,12 L105,9 L101,9 L97,17 L89,23 L81,25 L72,24 L63,19 L59,13 L57,9 L53,9 L49,17 L43,22 L36,25 L26,25 L18,22 L11,14 L7,5 Z M44,59 L40,62 L39,66 L37,202 L36,267 L36,289 L35,300 L35,366 L39,369 L281,371 L356,372 L364,372 L366,371 L365,367 L357,365 L353,359 L311,358 L284,358 L159,357 L75,356 L49,355 L48,353 L48,316 L50,182 L52,78 L53,73 L85,73 L257,75 L280,75 L375,76 L466,76 L482,77 L522,77 L525,79 L525,165 L524,192 L523,257 L523,287 L526,290 L535,290 L537,286 L537,266 L539,128 L539,66 L537,64 L345,62 L231,61 L124,60 Z M111,96 L98,100 L85,111 L80,119 L76,131 L76,139 L79,141 L99,142 L103,138 L106,129 L109,124 L116,119 L125,118 L134,121 L140,126 L142,131 L142,140 L139,146 L134,150 L127,153 L117,153 L115,155 L115,172 L116,173 L129,175 L139,179 L144,185 L145,188 L145,199 L142,206 L141,209 L137,211 L131,214 L116,214 L106,209 L101,200 L98,189 L96,187 L75,187 L72,190 L72,201 L77,214 L81,220 L87,227 L94,232 L104,236 L114,238 L134,238 L149,234 L160,228 L168,220 L173,211 L175,205 L175,186 L170,176 L162,167 L154,163 L155,160 L164,154 L169,147 L171,139 L171,129 L167,118 L163,112 L156,105 L142,98 L132,96 Z M240,97 L227,101 L217,107 L210,113 L201,127 L196,142 L193,155 L193,187 L197,204 L202,214 L213,227 L223,234 L233,238 L245,240 L255,240 L268,237 L280,231 L287,224 L292,220 L301,204 L304,195 L307,180 L307,152 L303,134 L298,124 L292,115 L284,106 L272,100 L263,97 Z M381,294 L378,297 L375,302 L370,307 L365,310 L366,315 L372,318 L376,323 L379,329 L380,333 L380,342 L376,350 L367,358 L368,362 L376,369 L380,378 L381,386 L377,396 L369,403 L364,406 L365,410 L374,417 L378,423 L379,428 L379,437 L376,444 L368,451 L362,455 L363,458 L372,463 L378,471 L379,475 L379,484 L377,490 L371,497 L366,500 L365,504 L374,512 L378,520 L378,532 L372,541 L362,548 L363,552 L372,558 L376,564 L378,570 L377,579 L374,585 L369,591 L361,596 L363,600 L369,603 L375,610 L377,615 L377,626 L373,634 L366,640 L360,644 L364,649 L370,654 L374,662 L375,671 L371,680 L366,686 L360,690 L359,694 L368,700 L372,705 L374,710 L374,720 L371,728 L366,733 L359,737 L360,741 L369,748 L372,752 L375,759 L378,760 L384,749 L391,743 L398,740 L407,740 L416,744 L421,750 L425,754 L430,750 L435,745 L441,742 L455,742 L464,747 L468,752 L470,757 L474,757 L479,749 L484,745 L492,742 L500,742 L510,746 L516,753 L518,756 L522,754 L526,748 L533,743 L539,741 L546,741 L555,744 L561,749 L566,758 L570,757 L573,751 L578,746 L584,743 L589,742 L597,742 L607,747 L612,753 L614,758 L618,757 L621,751 L622,748 L626,746 L636,742 L646,742 L654,746 L662,755 L666,754 L672,747 L680,743 L693,743 L702,748 L706,753 L709,756 L712,755 L719,747 L724,743 L723,738 L715,730 L713,727 L712,722 L712,713 L714,707 L721,699 L724,696 L723,692 L716,685 L713,680 L712,676 L712,665 L717,656 L724,650 L723,645 L716,638 L713,632 L713,616 L718,608 L726,603 L727,598 L722,594 L716,585 L715,581 L715,572 L717,566 L723,558 L727,555 L726,551 L719,545 L716,540 L714,533 L714,526 L718,517 L722,512 L729,508 L728,503 L720,496 L716,488 L716,476 L721,467 L729,461 L730,458 L726,454 L719,449 L716,444 L715,439 L715,430 L717,424 L720,420 L720,418 L724,416 L729,413 L728,408 L720,401 L716,390 L717,381 L720,374 L725,369 L730,366 L729,361 L724,357 L722,357 L720,353 L717,345 L717,335 L721,326 L728,320 L731,318 L730,313 L722,306 L719,301 L716,300 L709,309 L701,313 L697,314 L687,314 L678,309 L673,303 L671,300 L667,300 L661,309 L652,314 L644,315 L635,312 L629,308 L626,305 L623,300 L619,300 L613,308 L607,312 L602,313 L593,313 L584,309 L579,304 L576,301 L572,302 L566,309 L558,313 L546,313 L536,308 L532,301 L529,296 L524,297 L519,305 L511,311 L509,312 L495,312 L487,308 L482,302 L480,298 L475,299 L471,306 L462,312 L446,312 L437,306 L431,298 L427,299 L423,305 L419,309 L414,311 L402,312 L394,308 L387,302 L384,295 Z " fill="#000000" transform="translate(206,182)"/>
<path d="M0,0 L14,0 L22,5 L27,10 L30,14 L33,23 L34,30 L34,57 L31,73 L25,85 L17,92 L12,94 L-3,94 L-11,89 L-17,82 L-21,73 L-22,66 L-22,38 L-19,21 L-13,9 L-7,4 Z " fill="#000000" transform="translate(450,303)"/>
<path d="M0,0 L54,0 L129,1 L170,1 L277,2 L279,3 L280,6 L280,57 L279,100 L278,176 L277,217 L275,354 L274,374 L271,377 L228,377 L115,376 L86,376 L41,375 L-3,375 L-6,373 L-7,370 L-7,336 L-6,287 L-4,82 L-3,18 L-2,2 Z M9,8 L7,11 L6,28 L6,50 L5,106 L4,192 L2,322 L2,364 L3,366 L10,367 L203,368 L261,369 L264,368 L265,366 L266,356 L269,170 L270,80 L271,46 L271,14 L268,11 L216,10 L37,8 Z " fill="#000000" transform="translate(616,520)"/>
<path d="M0,0 L67,0 L232,2 L235,5 L235,33 L234,116 L233,212 L231,314 L230,330 L228,332 L191,332 L-4,330 L-6,329 L-7,326 L-7,296 L-6,244 L-4,61 L-3,15 L-2,2 Z M110,93 L106,98 L101,107 L96,111 L88,115 L71,118 L68,123 L69,135 L73,137 L100,137 L102,138 L103,143 L103,226 L106,231 L130,231 L132,226 L133,128 L133,105 L131,95 L129,93 Z " fill="#000000" transform="translate(637,543)"/>
<path d="M0,0 L2,1 Z " fill="#000000" transform="translate(1023,868)"/>
</svg>
