<?xml version="1.0" encoding="UTF-8"?>
<!-- Generator: visioncortex VTracer 0.6.12 -->
<svg version="1.1" xmlns="http://www.w3.org/2000/svg" width="777" height="1092">
<path d="M0,0 L777,0 L777,1092 L0,1092 Z M426,27 L423,31 L423,40 L426,40 L428,31 L428,27 Z M439,28 L439,39 L442,38 L443,30 L442,28 Z M146,290 L141,292 L138,296 L137,308 L136,314 L137,326 L137,373 L136,446 L135,497 L135,696 L134,738 L133,748 L133,779 L134,784 L132,789 L133,798 L135,805 L139,808 L148,809 L160,809 L170,810 L213,810 L224,811 L309,812 L317,812 L320,813 L445,813 L448,811 L457,812 L460,813 L471,813 L477,814 L561,814 L566,815 L575,815 L587,814 L589,815 L629,815 L635,811 L638,807 L640,790 L641,773 L641,554 L642,541 L642,477 L641,461 L642,426 L642,299 L638,296 L633,294 L523,293 L518,294 L512,292 L508,293 L477,293 L471,292 L397,292 L344,291 L326,292 L322,291 L284,291 L226,290 Z M709,604 L710,607 L711,604 Z M712,608 L713,613 L716,612 Z " fill="#000000" transform="translate(0,0)"/>
<path d="M0,0 L8,1 L20,6 L24,13 L26,28 L26,39 L21,47 L21,56 L25,62 L33,71 L38,77 L50,81 L55,85 L61,97 L62,101 L62,109 L61,118 L61,142 L56,147 L43,150 L39,160 L33,176 L34,185 L39,199 L44,214 L54,230 L58,231 L60,226 L64,207 L68,196 L73,181 L82,156 L90,137 L94,127 L94,115 L92,104 L88,97 L86,94 L86,87 L90,80 L96,73 L100,61 L98,54 L88,48 L84,40 L83,27 L84,16 L90,7 L99,2 L110,1 L145,1 L149,5 L148,18 L145,32 L138,39 L125,44 L124,51 L132,62 L141,72 L147,82 L154,103 L157,112 L163,126 L167,139 L168,142 L177,145 L179,148 L178,156 L175,167 L174,178 L170,184 L165,186 L165,199 L170,211 L178,227 L182,236 L185,256 L186,278 L188,287 L190,299 L188,303 L179,307 L167,308 L164,309 L152,309 L151,308 L151,303 L159,296 L164,292 L167,286 L167,275 L164,262 L155,241 L147,226 L142,221 L128,222 L92,223 L88,226 L85,242 L82,251 L82,261 L87,266 L96,270 L102,275 L103,279 L100,289 L94,300 L85,311 L80,316 L76,315 L74,312 L75,304 L77,293 L74,283 L70,282 L67,285 L65,292 L64,304 L59,309 L34,309 L22,306 L21,305 L21,300 L26,297 L34,295 L40,291 L46,286 L49,281 L51,272 L51,266 L49,262 L34,252 L20,240 L19,237 L15,235 L8,225 L-3,208 L-4,205 L-10,205 L-12,210 L-18,218 L-25,229 L-35,246 L-38,250 L-40,259 L-36,275 L-26,304 L-26,310 L-30,311 L-33,307 L-40,287 L-44,277 L-48,276 L-50,278 L-54,293 L-55,307 L-58,313 L-61,315 L-75,316 L-98,316 L-103,313 L-104,308 L-101,306 L-92,304 L-86,302 L-84,298 L-79,290 L-75,273 L-71,254 L-64,228 L-64,218 L-74,188 L-80,171 L-85,162 L-95,155 L-96,154 L-96,145 L-91,140 L-87,138 L-76,137 L-61,133 L-41,126 L-25,118 L-19,107 L-13,89 L-6,73 L-6,64 L-7,61 L-15,57 L-18,52 L-21,43 L-22,30 L-24,26 L-23,21 L-15,15 L-8,4 Z M136,122 L136,125 L138,124 L138,122 Z M-70,154 L-74,159 L-73,167 L-69,180 L-60,205 L-59,207 L-54,207 L-46,188 L-39,165 L-39,158 L-41,156 L-64,155 Z " fill="#000000" transform="translate(333,387)"/>
</svg>
