<?xml version="1.0" encoding="UTF-8"?>
<!-- Generator: visioncortex VTracer 0.6.12 -->
<svg version="1.1" xmlns="http://www.w3.org/2000/svg" width="861" height="996">
<path d="M0,0 L16,0 L31,4 L41,8 L48,7 L62,2 L71,0 L84,0 L100,1 L112,6 L127,17 L135,16 L145,12 L154,10 L173,10 L186,13 L202,21 L209,29 L217,41 L220,46 L222,47 L230,47 L237,44 L259,40 L269,39 L293,39 L305,42 L318,49 L328,58 L336,68 L338,74 L340,83 L344,92 L358,103 L363,109 L368,119 L369,123 L369,131 L365,145 L361,153 L361,162 L372,166 L384,171 L392,177 L399,185 L403,196 L407,207 L408,217 L408,230 L401,244 L394,254 L394,263 L397,275 L397,283 L393,292 L387,301 L379,308 L364,316 L357,318 L324,318 L308,314 L303,312 L294,313 L289,317 L283,324 L270,332 L249,337 L234,338 L218,338 L208,336 L194,330 L189,323 L189,321 L181,321 L179,325 L177,328 L175,328 L173,338 L168,338 L167,337 L160,337 L148,340 L130,341 L122,341 L122,343 L124,344 L162,344 L178,343 L178,337 L183,335 L192,340 L203,349 L203,354 L200,356 L190,358 L185,362 L181,367 L177,369 L168,369 L160,367 L153,371 L147,375 L133,376 L134,380 L141,391 L148,398 L157,410 L164,418 L171,426 L176,431 L182,438 L188,446 L193,452 L196,455 L202,463 L208,471 L208,473 L210,473 L217,483 L223,491 L228,496 L229,499 L233,501 L240,511 L244,515 L244,521 L228,529 L218,530 L213,527 L210,525 L205,525 L200,530 L192,535 L182,534 L176,531 L169,531 L160,538 L151,543 L145,545 L138,545 L128,544 L129,549 L133,558 L136,568 L145,587 L153,605 L167,638 L174,650 L179,662 L183,669 L186,677 L191,689 L196,699 L199,708 L209,729 L218,739 L223,744 L223,746 L226,747 L226,749 L229,750 L236,764 L241,781 L243,794 L246,828 L247,846 L247,886 L248,924 L245,929 L239,931 L172,931 L166,932 L151,932 L146,929 L145,928 L144,894 L143,881 L143,861 L146,828 L147,824 L149,792 L155,771 L160,759 L163,754 L163,750 L148,747 L127,747 L118,748 L107,749 L97,751 L87,757 L80,765 L75,774 L67,790 L61,806 L57,823 L55,838 L55,885 L56,901 L56,925 L54,930 L50,932 L24,933 L-78,934 L-110,935 L-125,935 L-170,936 L-178,937 L-224,937 L-299,938 L-345,938 L-366,939 L-373,935 L-380,923 L-386,913 L-390,905 L-395,890 L-399,880 L-403,867 L-410,848 L-415,831 L-417,822 L-420,814 L-421,810 L-421,799 L-419,788 L-405,776 L-392,766 L-384,761 L-374,754 L-366,749 L-361,746 L-353,740 L-346,734 L-333,701 L-324,676 L-319,662 L-315,649 L-311,639 L-307,628 L-304,620 L-302,611 L-295,597 L-290,582 L-281,557 L-279,553 L-279,545 L-284,535 L-287,530 L-293,525 L-297,518 L-305,506 L-310,496 L-316,489 L-325,474 L-338,455 L-344,444 L-351,434 L-358,423 L-362,418 L-367,410 L-369,401 L-368,393 L-365,390 L-353,388 L-348,383 L-338,368 L-329,357 L-317,340 L-311,330 L-309,330 L-307,326 L-300,318 L-292,307 L-283,295 L-280,291 L-277,286 L-264,267 L-258,259 L-244,240 L-239,233 L-239,228 L-245,227 L-247,231 L-253,236 L-263,236 L-268,233 L-275,233 L-277,237 L-279,238 L-286,238 L-294,231 L-300,223 L-308,220 L-309,218 L-309,212 L-305,206 L-298,196 L-286,183 L-279,174 L-276,173 L-274,169 L-269,162 L-264,157 L-257,147 L-252,143 L-243,131 L-234,120 L-233,117 L-233,53 L-234,45 L-234,11 L-230,6 L-222,6 L-220,9 L-219,27 L-218,49 L-218,66 L-217,96 L-217,115 L-214,126 L-207,134 L-203,138 L-195,145 L-189,150 L-182,158 L-174,165 L-141,198 L-136,203 L-130,207 L-129,208 L-129,215 L-139,219 L-147,230 L-149,232 L-156,232 L-162,230 L-167,234 L-171,238 L-178,238 L-184,233 L-187,230 L-193,231 L-201,234 L-204,234 L-202,239 L-196,248 L-191,252 L-184,262 L-175,272 L-166,283 L-159,291 L-154,296 L-147,304 L-146,308 L-143,309 L-143,311 L-139,313 L-132,321 L-123,332 L-110,345 L-104,353 L-98,358 L-96,358 L-97,342 L-97,326 L-98,324 L-99,301 L-97,290 L-90,276 L-91,270 L-96,260 L-99,248 L-99,226 L-95,214 L-93,211 L-93,204 L-99,188 L-99,161 L-94,153 L-90,143 L-87,137 L-88,131 L-93,124 L-96,103 L-92,81 L-88,69 L-82,60 L-78,55 L-64,45 L-55,41 L-41,40 L-38,38 L-34,28 L-28,18 L-22,10 L-14,5 Z M2,13 L-6,15 L-16,21 L-23,30 L-29,42 L-31,52 L-34,55 L-51,56 L-61,60 L-69,67 L-73,71 L-78,81 L-81,88 L-82,93 L-82,110 L-80,122 L-74,136 L-72,139 L-72,145 L-78,150 L-84,160 L-87,169 L-89,174 L-89,188 L-86,197 L-81,208 L-80,214 L-84,224 L-88,238 L-88,248 L-85,256 L-78,269 L-74,275 L-75,282 L-82,291 L-85,297 L-86,303 L-86,321 L-84,326 L-84,351 L-81,361 L-75,372 L-68,381 L-50,381 L-39,380 L-26,375 L-18,368 L-11,358 L-5,349 L-2,344 L4,343 L15,348 L31,352 L42,351 L54,348 L63,343 L70,338 L80,324 L85,318 L88,316 L94,316 L107,323 L123,328 L144,328 L153,324 L164,317 L176,306 L182,298 L185,297 L189,300 L194,310 L202,320 L213,325 L228,328 L246,327 L259,325 L273,316 L281,305 L286,297 L293,296 L300,299 L315,302 L327,303 L341,303 L362,297 L372,291 L378,284 L379,282 L379,274 L376,265 L369,255 L368,252 L371,247 L377,242 L382,236 L382,234 L385,233 L390,225 L391,221 L391,212 L388,201 L381,192 L368,184 L354,179 L347,177 L337,176 L333,172 L336,167 L348,156 L352,143 L353,136 L353,122 L349,114 L342,107 L333,100 L331,96 L329,88 L320,71 L312,64 L298,58 L285,55 L259,55 L241,57 L225,62 L218,64 L210,64 L208,63 L199,44 L195,39 L193,39 L191,35 L179,29 L168,26 L155,26 L141,28 L129,34 L123,34 L118,29 L111,23 L100,17 L90,14 L75,14 L60,17 L50,20 L43,24 L37,23 L29,17 L21,14 L12,13 Z M-236,139 L-241,144 L-248,152 L-252,157 L-252,159 L-256,161 L-263,169 L-272,180 L-279,188 L-287,199 L-290,203 L-289,208 L-286,209 L-266,209 L-234,208 L-231,207 L-229,201 L-229,184 L-230,142 L-232,139 Z M-214,144 L-216,148 L-216,173 L-215,201 L-210,206 L-173,206 L-155,205 L-153,204 L-154,199 L-163,189 L-169,182 L-175,177 L-177,177 L-178,174 L-186,167 L-202,152 L-207,146 L-210,144 Z M-177,219 L-179,221 L-178,225 L-173,226 L-170,224 L-171,219 Z M-285,222 L-287,225 L-285,228 L-280,228 L-278,226 L-279,222 Z M-258,222 L-258,224 L-255,224 L-255,222 Z M-233,245 L-238,250 L-249,264 L-258,276 L-265,286 L-272,294 L-283,309 L-291,320 L-298,329 L-308,343 L-315,352 L-324,367 L-324,369 L-328,371 L-336,382 L-336,387 L-334,388 L-291,388 L-261,387 L-241,387 L-235,388 L-228,385 L-225,379 L-225,364 L-224,359 L-224,351 L-225,348 L-227,297 L-227,260 L-228,246 Z M-211,249 L-214,252 L-214,262 L-213,281 L-213,317 L-214,321 L-212,326 L-210,367 L-210,378 L-207,384 L-205,386 L-180,386 L-111,384 L-97,383 L-95,381 L-96,377 L-102,370 L-104,365 L-111,361 L-118,353 L-122,349 L-126,342 L-131,338 L-135,332 L-140,327 L-145,322 L-154,311 L-164,300 L-173,289 L-183,278 L-184,276 L-186,276 L-188,272 L-192,267 L-197,262 L-208,250 Z M92,327 L85,338 L81,344 L70,353 L59,357 L39,359 L25,359 L14,355 L9,352 L4,352 L-2,361 L-8,370 L-17,381 L-18,383 L-18,432 L-17,498 L-14,582 L-13,625 L-12,633 L-13,653 L-11,693 L-10,736 L-6,741 L20,753 L27,753 L31,744 L35,735 L44,711 L54,686 L59,673 L67,653 L70,643 L76,630 L81,617 L85,604 L92,584 L99,570 L103,557 L106,551 L107,547 L107,539 L102,535 L96,532 L92,529 L85,530 L82,534 L82,536 L73,537 L64,534 L60,531 L54,531 L48,535 L40,534 L29,528 L22,523 L16,522 L8,522 L3,520 L3,515 L8,511 L13,507 L24,491 L38,469 L48,454 L59,436 L65,427 L75,411 L84,397 L90,387 L95,377 L97,374 L96,369 L89,367 L81,364 L80,363 L80,358 L87,349 L94,346 L103,344 L106,341 L107,334 L99,327 Z M143,356 L136,358 L137,361 L140,362 L147,362 L149,361 L148,357 Z M121,380 L120,381 L121,432 L122,451 L122,492 L124,507 L127,511 L182,511 L192,512 L216,511 L219,509 L218,503 L207,490 L200,481 L191,469 L184,461 L176,452 L168,441 L160,431 L153,421 L147,414 L141,406 L133,395 L125,381 Z M101,386 L97,391 L93,399 L87,407 L79,419 L75,426 L58,452 L52,462 L48,467 L39,482 L32,493 L26,503 L25,507 L28,510 L38,511 L104,511 L107,508 L108,502 L108,447 L107,399 L106,388 L104,386 Z M-91,394 L-100,396 L-100,400 L-94,403 L-86,402 L-83,399 L-84,395 Z M-314,398 L-317,400 L-316,405 L-313,407 L-305,407 L-301,403 L-302,399 L-305,398 Z M-200,398 L-200,401 L-196,402 L-195,398 Z M-276,399 L-277,402 L-272,403 L-272,399 Z M-351,400 L-353,401 L-353,405 L-349,408 L-343,408 L-339,405 L-340,400 Z M-184,404 L-187,407 L-191,413 L-202,416 L-204,418 L-203,423 L-197,437 L-189,453 L-178,477 L-174,486 L-164,507 L-161,510 L-156,509 L-151,499 L-148,491 L-141,476 L-133,459 L-125,443 L-118,427 L-114,419 L-111,409 L-113,406 L-119,406 L-128,412 L-137,413 L-145,409 L-149,406 L-154,407 L-160,412 L-170,412 L-176,410 L-178,406 L-180,404 Z M-259,408 L-267,413 L-278,414 L-285,411 L-289,409 L-294,410 L-305,417 L-315,417 L-326,409 L-331,410 L-338,416 L-344,419 L-345,423 L-341,431 L-331,446 L-327,454 L-321,463 L-314,474 L-308,482 L-303,491 L-291,510 L-287,515 L-283,523 L-277,530 L-273,531 L-268,526 L-262,509 L-252,483 L-249,476 L-247,468 L-241,452 L-235,437 L-231,425 L-227,415 L-227,410 L-231,409 L-239,412 L-247,412 L-255,408 Z M-100,415 L-105,420 L-109,430 L-113,441 L-117,450 L-125,465 L-133,482 L-137,490 L-141,500 L-150,520 L-152,531 L-143,551 L-135,568 L-127,584 L-119,599 L-112,615 L-107,627 L-102,635 L-91,658 L-80,679 L-75,679 L-75,647 L-76,616 L-77,601 L-77,566 L-78,533 L-78,518 L-79,482 L-80,465 L-81,428 L-82,416 L-84,415 Z M-204,486 L-207,488 L-207,499 L-205,513 L-205,533 L-204,576 L-204,589 L-202,596 L-197,595 L-192,585 L-189,578 L-181,561 L-179,557 L-179,549 L-189,520 L-200,489 Z M-227,494 L-230,497 L-238,531 L-243,551 L-245,561 L-247,570 L-246,576 L-236,593 L-228,605 L-222,605 L-221,604 L-222,550 L-223,544 L-223,496 Z M129,523 L128,528 L135,533 L143,533 L153,529 L154,524 L152,523 Z M-174,577 L-178,582 L-183,593 L-186,600 L-194,617 L-201,626 L-202,629 L-202,661 L-200,732 L-197,737 L-185,739 L-174,740 L-128,739 L-118,737 L-117,732 L-123,715 L-126,705 L-130,694 L-133,684 L-140,666 L-145,651 L-148,640 L-156,615 L-160,603 L-165,590 L-168,578 Z M-251,595 L-254,598 L-261,623 L-269,659 L-273,673 L-276,689 L-280,701 L-282,714 L-284,720 L-284,726 L-281,730 L-261,736 L-239,742 L-227,746 L-222,744 L-221,742 L-220,730 L-220,660 L-221,634 L-223,629 L-229,621 L-233,614 L-242,603 L-246,597 Z M-147,604 L-148,609 L-143,624 L-133,653 L-127,669 L-115,705 L-107,728 L-103,736 L-98,739 L-92,738 L-91,737 L-91,730 L-94,720 L-98,714 L-104,699 L-108,689 L-115,670 L-124,650 L-131,633 L-135,625 L-138,617 L-144,605 Z M105,610 L102,615 L98,623 L91,652 L83,673 L77,696 L66,729 L60,750 L59,754 L64,755 L74,746 L89,737 L96,734 L106,731 L109,727 L110,684 L110,658 L109,612 Z M128,611 L126,614 L127,671 L128,692 L128,724 L130,728 L137,729 L165,730 L167,728 L166,719 L162,711 L157,687 L153,677 L149,666 L146,654 L142,644 L137,627 L132,612 Z M-286,612 L-289,615 L-290,624 L-286,623 L-284,619 L-284,613 Z M-121,628 L-119,637 L-117,641 L-115,649 L-111,658 L-102,678 L-99,685 L-93,700 L-89,710 L-80,731 L-76,734 L-74,730 L-74,719 L-79,707 L-88,687 L-94,673 L-103,658 L-108,646 L-113,640 L-117,630 Z M-295,634 L-298,639 L-304,654 L-310,671 L-319,697 L-323,706 L-326,714 L-325,718 L-323,720 L-316,719 L-313,716 L-307,696 L-299,669 L-296,661 L-289,637 L-290,634 Z M156,649 L155,654 L159,667 L162,669 L166,668 L166,662 L162,653 L159,649 Z M-288,675 L-290,677 L-296,695 L-301,712 L-302,720 L-300,722 L-296,721 L-293,712 L-288,696 L-285,681 L-285,675 Z M166,677 L165,680 L169,697 L174,712 L179,722 L184,726 L186,730 L191,731 L193,729 L192,724 L188,716 L183,704 L179,693 L176,683 L171,677 Z M69,681 L63,690 L56,707 L51,719 L47,732 L41,748 L38,756 L39,761 L41,762 L47,762 L51,752 L57,733 L64,711 L69,694 L70,681 Z M-336,745 L-339,747 L-339,749 L-344,751 L-354,758 L-365,765 L-365,767 L-369,769 L-378,775 L-396,788 L-405,796 L-406,798 L-405,818 L-390,864 L-383,885 L-378,895 L-372,912 L-366,922 L-363,924 L-347,924 L-341,923 L-322,922 L-318,918 L-318,903 L-320,872 L-321,863 L-324,807 L-325,774 L-327,750 L-330,745 Z M-127,751 L-186,752 L-188,755 L-183,758 L-177,760 L-167,762 L-138,771 L-116,776 L-114,777 L-105,777 L-104,776 L-105,767 L-109,757 L-113,753 L-126,751 Z M-92,752 L-96,755 L-94,764 L-91,774 L-87,780 L-84,783 L-78,785 L-71,785 L-70,780 L-74,771 L-80,756 L-85,752 Z M-66,753 L-68,755 L-67,762 L-62,774 L-57,786 L-52,791 L-42,792 L-40,788 L-54,759 L-59,753 Z M-39,753 L-42,756 L-41,762 L-36,772 L-31,782 L-25,794 L-18,800 L-12,800 L-10,798 L-9,788 L-10,765 L-12,755 L-15,753 Z " fill="#000000" transform="translate(427,29)"/>
<path d="M0,0 L2,2 L0,2 Z " fill="#000000" transform="translate(549,780)"/>
</svg>
