<?xml version="1.0" encoding="UTF-8"?>
<!-- Generator: visioncortex VTracer 0.6.12 -->
<svg version="1.1" xmlns="http://www.w3.org/2000/svg" width="1332" height="669">
<path d="M0,0 L7,0 L12,1 L21,0 L32,2 L35,5 L35,7 L40,9 L48,16 L55,22 L62,30 L66,34 L72,42 L77,47 L87,56 L93,61 L98,66 L110,76 L114,81 L117,83 L117,85 L119,85 L123,92 L131,98 L135,104 L133,109 L127,112 L107,112 L76,113 L54,112 L44,114 L29,113 L20,114 L-22,114 L-56,115 L-100,115 L-105,117 L-113,117 L-118,116 L-147,116 L-162,118 L-191,118 L-204,119 L-234,119 L-242,120 L-246,118 L-290,119 L-319,121 L-329,120 L-355,121 L-365,122 L-369,120 L-372,110 L-373,89 L-375,65 L-375,40 L-376,36 L-376,27 L-374,17 L-372,10 L-367,7 L-358,5 L-344,4 L-340,3 L-272,3 L-264,4 L-240,2 L-231,1 L-200,1 L-195,2 L-175,1 L-169,2 L-147,2 L-83,1 L-49,1 Z " fill="#000000" transform="translate(407,31)"/>
<path d="M0,0 L4,1 L3,3 L-1,3 Z " fill="#000000" transform="translate(177,176)"/>
<path d="M0,0 L49,0 L66,1 L69,5 L71,12 L71,41 L72,50 L75,53 L77,54 L107,54 L111,56 L113,59 L114,69 L114,116 L117,125 L119,126 L119,128 L123,130 L132,136 L136,141 L137,143 L137,165 L138,212 L139,223 L139,255 L138,281 L138,293 L135,308 L135,320 L138,322 L150,324 L156,328 L158,332 L158,357 L155,362 L153,363 L143,364 L123,364 L95,365 L72,365 L41,366 L14,367 L-4,367 L-18,368 L-57,369 L-76,371 L-99,370 L-104,372 L-156,372 L-162,373 L-189,373 L-211,374 L-228,374 L-237,373 L-241,369 L-242,337 L-241,332 L-241,316 L-240,288 L-239,281 L-240,273 L-239,270 L-239,235 L-240,228 L-241,180 L-242,159 L-241,156 L-241,107 L-240,96 L-236,90 L-228,84 L-227,81 L-226,64 L-226,18 L-224,9 L-220,5 L-148,3 L-131,4 L-127,8 L-123,24 L-123,48 L-121,54 L-118,55 L-100,56 L-95,58 L-93,61 L-91,76 L-91,84 L-89,94 L-89,105 L-90,110 L-90,117 L-84,125 L-76,131 L-72,139 L-71,165 L-70,174 L-70,235 L-68,248 L-68,274 L-70,316 L-71,323 L-66,324 L-58,324 L-55,321 L-53,308 L-53,293 L-54,246 L-54,228 L-55,207 L-55,96 L-53,91 L-48,88 L-42,86 L-40,80 L-40,11 L-37,5 L-32,3 L-26,2 Z M42,20 L38,21 L19,21 L-9,22 L-16,25 L-18,28 L-18,60 L-14,66 L-12,67 L38,67 L48,66 L52,61 L53,59 L53,26 L49,21 Z M-184,24 L-196,26 L-202,29 L-204,40 L-205,51 L-207,56 L-207,62 L-203,68 L-198,70 L-184,70 L-161,71 L-149,69 L-144,64 L-143,54 L-143,29 L-149,24 Z M80,73 L74,75 L73,79 L76,82 L87,85 L88,93 L89,109 L91,111 L95,110 L96,108 L96,80 L94,76 L90,74 Z M-120,78 L-122,82 L-120,87 L-114,88 L-112,87 L-112,80 L-114,78 Z M91,143 L90,144 L90,161 L89,168 L90,231 L90,248 L91,262 L92,265 L96,263 L97,260 L98,206 L97,163 L96,144 Z M-88,161 L-91,167 L-90,219 L-91,226 L-91,277 L-89,300 L-85,301 L-83,300 L-82,297 L-82,204 L-83,196 L-83,173 L-85,162 Z M117,162 L116,164 L118,166 Z M117,181 L117,184 L119,184 L118,181 Z M117,186 L115,190 L115,208 L117,212 L119,212 L121,205 L120,195 L119,186 Z M117,217 L115,224 L114,228 L114,248 L116,253 L119,253 L120,252 L120,242 L121,228 L119,218 Z M116,259 L114,261 L115,285 L115,299 L119,300 L121,294 L121,286 L120,284 L120,261 L119,259 Z M92,269 L91,272 L91,299 L92,317 L95,321 L102,321 L101,312 L98,303 L98,292 L97,277 L94,269 Z " fill="#000000" transform="translate(287,182)"/>
<path d="M0,0 L5,1 L6,5 L1,19 L-4,31 L-7,34 L-11,33 L-10,22 L-6,10 L-2,1 Z " fill="#000000" transform="translate(45,252)"/>
<path d="M0,0 L34,1 L42,4 L50,14 L54,23 L61,34 L69,50 L75,59 L83,75 L89,87 L91,91 L94,92 L94,94 L98,96 L106,101 L113,109 L117,115 L122,128 L124,145 L124,157 L125,169 L127,223 L127,249 L125,251 L120,251 L110,237 L105,231 L99,226 L99,224 L94,222 L77,212 L60,208 L53,207 L32,207 L20,210 L4,218 L-5,224 L-15,233 L-24,244 L-34,261 L-38,263 L-67,264 L-77,265 L-87,264 L-139,265 L-206,265 L-265,267 L-302,267 L-350,268 L-363,269 L-401,269 L-412,271 L-411,281 L-411,310 L-414,323 L-422,339 L-426,344 L-428,344 L-429,347 L-439,355 L-454,363 L-470,368 L-491,368 L-506,364 L-518,357 L-528,350 L-533,345 L-540,335 L-546,322 L-551,306 L-551,292 L-549,282 L-549,274 L-569,274 L-569,282 L-568,289 L-568,307 L-574,326 L-576,333 L-582,341 L-584,341 L-585,344 L-593,351 L-598,355 L-605,359 L-608,362 L-620,364 L-628,366 L-642,367 L-655,366 L-668,361 L-680,355 L-685,350 L-697,337 L-705,321 L-708,308 L-708,285 L-707,275 L-707,251 L-704,244 L-698,241 L-693,240 L-628,240 L-593,238 L-581,237 L-570,238 L-559,237 L-546,238 L-389,236 L-380,236 L-367,235 L-347,236 L-313,235 L-302,235 L-277,234 L-252,234 L-232,232 L-213,233 L-184,233 L-141,232 L-140,228 L-205,228 L-232,229 L-237,230 L-241,229 L-284,229 L-300,230 L-322,230 L-337,231 L-344,230 L-370,231 L-434,232 L-465,233 L-504,233 L-508,234 L-553,234 L-559,235 L-573,235 L-579,236 L-608,235 L-624,235 L-636,236 L-641,235 L-662,235 L-667,236 L-698,237 L-703,234 L-706,230 L-707,218 L-707,186 L-708,177 L-708,95 L-709,65 L-707,45 L-703,42 L-641,40 L-634,38 L-631,30 L-630,20 L-627,17 L-620,16 L-560,15 L-554,20 L-552,32 L-547,37 L-540,39 L-510,38 L-507,36 L-505,26 L-504,20 L-501,17 L-498,16 L-458,16 L-435,15 L-429,18 L-427,25 L-425,35 L-423,37 L-413,38 L-400,38 L-384,37 L-379,34 L-378,32 L-376,17 L-373,14 L-337,12 L-311,12 L-306,14 L-303,17 L-301,33 L-297,36 L-291,37 L-275,37 L-262,35 L-259,33 L-257,16 L-251,12 L-212,12 L-207,11 L-180,12 L-175,17 L-173,31 L-168,34 L-147,34 L-138,32 L-136,24 L-136,10 L-134,5 L-128,2 L-70,1 L-15,1 Z M-68,30 L-81,32 L-85,36 L-86,38 L-87,54 L-87,86 L-84,92 L-78,94 L-39,94 L-27,95 L-2,94 L19,94 L48,93 L53,90 L54,86 L50,77 L42,62 L36,52 L30,41 L25,34 L18,31 L8,30 Z " fill="#000000" transform="translate(1177,273)"/>
<path d="M0,0 L19,2 L31,7 L43,14 L52,21 L61,32 L69,47 L73,60 L73,80 L70,92 L66,102 L60,112 L47,126 L32,135 L21,140 L13,142 L-6,142 L-23,138 L-33,133 L-45,124 L-53,116 L-53,114 L-55,114 L-65,98 L-68,90 L-70,79 L-70,64 L-67,51 L-63,40 L-56,29 L-48,22 L-44,16 L-32,8 L-21,4 L-16,2 Z " fill="#000000" transform="translate(1221,488)"/>
<path d="M0,0 L2,1 Z " fill="#000000" transform="translate(179,564)"/>
</svg>
