<?xml version="1.0" encoding="UTF-8"?>
<!-- Generator: visioncortex VTracer 0.6.12 -->
<svg version="1.1" xmlns="http://www.w3.org/2000/svg" width="2709" height="1191">
<path d="M0,0 L492,0 L592,1 L738,2 L757,2 L827,3 L907,4 L1033,5 L1105,6 L1216,7 L1286,8 L1335,8 L1467,10 L1517,10 L1586,11 L1625,11 L1735,13 L1765,13 L1882,14 L1964,15 L2052,16 L2087,16 L2178,17 L2221,18 L2259,18 L2284,19 L2315,19 L2319,21 L2325,21 L2327,20 L2339,19 L2440,20 L2454,20 L2487,21 L2530,21 L2617,22 L2635,22 L2666,23 L2667,24 L2667,29 L2666,30 L2590,30 L2462,28 L2426,28 L2411,27 L2360,27 L2339,25 L2322,26 L2315,27 L2311,26 L2289,26 L2285,25 L2276,25 L2259,26 L2227,25 L2219,24 L2214,25 L2136,25 L2100,24 L2040,24 L2009,23 L1870,22 L1763,21 L1735,21 L1691,20 L1653,20 L1597,19 L1570,19 L1489,18 L1443,18 L1365,17 L1264,16 L1147,14 L1115,14 L1053,13 L1023,13 L840,11 L766,10 L713,10 L636,9 L578,9 L524,8 L466,8 L428,7 L390,7 L290,6 L260,6 L172,5 L53,4 L0,4 Z " fill="#000000" transform="translate(0,9)"/>
<path d="M0,0 L74,0 L142,1 L344,1 L402,2 L556,2 L604,3 L626,3 L633,2 L638,3 L694,3 L735,4 L778,5 L892,5 L908,6 L989,7 L1021,8 L1153,8 L1188,9 L1203,11 L1215,16 L1223,23 L1230,30 L1238,45 L1240,53 L1241,67 L1240,107 L1238,117 L1232,122 L1228,123 L1148,123 L1040,121 L1013,120 L933,120 L872,118 L858,118 L802,116 L781,116 L741,115 L660,115 L632,114 L562,113 L520,113 L472,112 L420,112 L357,111 L338,111 L303,110 L135,110 L119,109 L-17,109 L-33,108 L-55,108 L-75,107 L-84,106 L-90,101 L-91,99 L-91,85 L-89,70 L-84,53 L-77,40 L-65,24 L-52,14 L-38,7 L-28,4 L-19,2 Z " fill="#000000" transform="translate(125,780)"/>
<path d="M0,0 L42,0 L88,1 L140,2 L265,5 L383,8 L414,8 L429,9 L486,10 L518,11 L735,14 L759,14 L793,15 L886,16 L1032,18 L1065,21 L1084,25 L1095,29 L1116,39 L1130,48 L1141,58 L1149,65 L1160,78 L1164,83 L1170,95 L1174,100 L1174,102 L1176,102 L1180,110 L1186,122 L1185,129 L1183,131 L1175,132 L1155,131 L1102,130 L1050,130 L1006,129 L875,129 L834,128 L781,128 L771,127 L685,127 L595,125 L566,125 L537,124 L467,123 L429,122 L407,122 L323,120 L196,118 L152,116 L119,115 L52,115 L22,114 L-40,113 L-51,110 L-56,106 L-57,100 L-56,42 L-54,32 L-50,24 L-41,15 L-30,8 L-17,3 Z " fill="#000000" transform="translate(1432,791)"/>
<path d="M0,0 L9,1 L15,5 L18,8 L19,18 L19,38 L16,47 L12,51 L9,52 L-8,52 L-13,49 L-16,45 L-17,41 L-16,9 L-11,3 Z " fill="#000000" transform="translate(638,902)"/>
<path d="M0,0 L21,0 L31,2 L35,7 L37,12 L37,35 L35,44 L30,49 L21,51 L9,52 L3,53 L0,52 L-20,50 L-27,47 L-30,43 L-32,35 L-31,15 L-29,8 L-24,3 L-18,1 Z " fill="#000000" transform="translate(62,902)"/>
<path d="M0,0 L69,0 L75,4 L79,9 L80,25 L79,43 L75,49 L69,52 L-3,52 L-11,49 L-15,44 L-17,36 L-16,11 L-14,6 L-9,2 Z " fill="#000000" transform="translate(227,903)"/>
<path d="M0,0 L19,0 L28,4 L31,8 L32,13 L32,38 L29,47 L25,50 L14,52 L-1,52 L-10,49 L-13,45 L-14,38 L-14,13 L-10,4 L-4,1 Z " fill="#000000" transform="translate(453,903)"/>
<path d="M0,0 L21,1 L28,4 L31,11 L31,39 L28,48 L23,52 L18,53 L1,53 L-9,51 L-13,47 L-14,43 L-14,18 L-12,5 L-7,2 Z " fill="#000000" transform="translate(809,903)"/>
<path d="M0,0 L9,0 L14,5 L16,16 L16,38 L12,45 L8,47 L0,47 L-4,45 L-7,36 L-7,11 L-3,3 Z " fill="#000000" transform="translate(153,905)"/>
<path d="M0,0 L103,0 L118,2 L122,7 L124,11 L124,45 L121,51 L116,54 L113,55 L76,55 L66,56 L60,55 L41,54 L6,53 L-3,51 L-9,47 L-11,41 L-11,14 L-9,7 L-7,3 Z " fill="#000000" transform="translate(981,906)"/>
<path d="M0,0 L8,0 L13,3 L16,8 L17,13 L18,39 L16,47 L11,52 L0,52 L-6,48 L-9,39 L-9,10 L-6,3 Z " fill="#000000" transform="translate(1157,909)"/>
<path d="M0,0 L9,0 L13,1 L81,3 L91,6 L94,9 L96,19 L96,35 L95,46 L92,51 L86,54 L71,55 L-39,55 L-47,52 L-51,47 L-52,42 L-52,12 L-49,6 L-44,2 L-30,1 Z " fill="#000000" transform="translate(1269,908)"/>
<path d="M0,0 L49,0 L116,2 L121,7 L123,10 L124,23 L124,40 L121,50 L115,54 L97,55 L81,54 L12,53 L-4,52 L-13,49 L-16,45 L-17,40 L-17,29 L-16,11 L-11,2 L-9,1 Z " fill="#000000" transform="translate(1391,911)"/>
<path d="M0,0 L45,0 L57,1 L96,2 L112,2 L145,3 L202,4 L249,6 L286,6 L300,7 L341,7 L366,8 L479,10 L607,13 L617,13 L626,15 L629,17 L631,26 L631,56 L628,61 L624,63 L608,64 L542,64 L483,63 L424,61 L336,60 L300,59 L274,59 L184,57 L125,56 L110,55 L93,55 L45,54 L9,52 L0,52 L-8,49 L-12,42 L-12,15 L-10,6 L-3,1 Z " fill="#000000" transform="translate(1592,915)"/>
<path d="M0,0 L70,0 L84,1 L95,5 L102,14 L109,28 L113,41 L112,48 L109,51 L105,52 L49,52 L0,50 L-6,46 L-9,41 L-10,11 L-5,3 Z " fill="#000000" transform="translate(2296,930)"/>
<path d="M0,0 L5,1 L10,9 L19,32 L19,39 L18,40 L12,40 L8,36 L1,21 L-4,6 L-2,1 Z " fill="#000000" transform="translate(2472,937)"/>
<path d="M0,0 L6,0 L11,5 L18,19 L23,32 L24,41 L21,44 L15,44 L9,36 L3,23 L-1,12 L-2,11 L-2,2 Z " fill="#000000" transform="translate(2551,938)"/>
<path d="M0,0 L5,0 L9,5 L16,20 L20,32 L20,37 L17,39 L12,38 L6,30 L1,16 L-2,8 L-2,2 Z " fill="#000000" transform="translate(2624,942)"/>
<path d="M0,0 L31,0 L49,1 L148,1 L152,0 L278,0 L284,1 L431,1 L452,0 L467,1 L521,1 L563,0 L602,1 L682,2 L768,2 L786,3 L839,3 L888,4 L982,3 L994,1 L1001,2 L1004,4 L1011,5 L1057,6 L1079,7 L1151,8 L1156,7 L1220,7 L1226,8 L1265,8 L1288,9 L1296,14 L1298,18 L1299,32 L1299,53 L1298,92 L1297,141 L1293,151 L1283,161 L1279,166 L1269,172 L1253,177 L1238,178 L1224,175 L1212,169 L1202,162 L1195,157 L1188,157 L1177,166 L1164,174 L1153,178 L1140,180 L1127,179 L1117,176 L1106,170 L1096,161 L1087,152 L1079,148 L1070,147 L1035,146 L978,146 L965,145 L923,144 L887,144 L819,143 L809,144 L777,143 L720,143 L685,142 L627,142 L513,141 L368,141 L241,140 L175,141 L169,143 L161,150 L151,159 L140,166 L128,170 L102,170 L88,165 L80,159 L73,154 L65,154 L49,163 L39,166 L34,167 L14,167 L-3,160 L-13,152 L-20,143 L-28,138 L-33,135 L-36,128 L-37,119 L-37,22 L-35,10 L-31,4 L-28,2 Z " fill="#000000" transform="translate(66,965)"/>
<path d="M0,0 L84,1 L115,1 L144,3 L202,4 L238,4 L246,5 L292,5 L330,6 L351,6 L355,7 L484,9 L524,10 L541,11 L595,11 L644,12 L668,12 L690,13 L736,14 L796,15 L831,16 L844,17 L964,17 L1007,18 L1033,20 L1057,20 L1086,21 L1214,23 L1240,24 L1261,26 L1268,29 L1272,33 L1282,57 L1286,68 L1290,74 L1293,80 L1295,87 L1299,95 L1303,106 L1306,111 L1310,123 L1318,140 L1320,149 L1322,149 L1322,188 L1312,187 L1285,178 L1264,173 L1245,170 L1237,169 L1120,168 L1105,169 L1095,173 L1085,181 L1074,186 L1064,189 L1052,190 L1033,186 L1017,178 L1008,170 L1006,169 L997,169 L987,177 L973,184 L961,187 L946,187 L933,184 L921,178 L912,171 L901,160 L896,158 L881,157 L842,156 L671,153 L597,152 L545,152 L457,150 L341,148 L253,146 L236,146 L221,147 L213,153 L202,164 L186,172 L174,175 L165,176 L156,176 L143,172 L130,165 L120,156 L115,153 L107,153 L102,155 L100,159 L86,168 L76,172 L61,175 L43,173 L33,169 L23,163 L13,154 L9,149 L9,147 L5,145 L0,142 L-9,139 L-13,134 L-14,131 L-14,26 L-12,9 L-8,3 L-5,1 Z " fill="#000000" transform="translate(1387,974)"/>
</svg>
