<?xml version="1.0" encoding="UTF-8"?>
<!-- Generator: visioncortex VTracer 0.6.12 -->
<svg version="1.1" xmlns="http://www.w3.org/2000/svg" width="1920" height="795">
<path d="M0,0 L6,0 L13,6 L21,18 L23,25 L23,79 L24,132 L24,144 L23,153 L25,161 L26,165 L32,165 L33,133 L33,70 L34,58 L39,55 L44,56 L52,65 L57,76 L58,79 L58,127 L60,140 L58,154 L61,154 L61,131 L62,112 L64,107 L66,105 L73,105 L85,125 L88,135 L90,154 L95,156 L100,160 L108,175 L112,185 L115,189 L120,201 L128,217 L136,230 L144,246 L149,256 L156,272 L161,284 L169,298 L171,307 L171,411 L172,427 L173,485 L174,499 L174,525 L173,548 L171,554 L165,557 L144,558 L131,558 L94,556 L85,555 L49,558 L30,559 L-3,559 L-16,558 L-16,535 L-8,532 L-6,528 L-5,504 L-5,478 L-4,455 L-4,175 L-9,165 L-16,161 L-16,123 L-13,124 L-8,129 L-4,128 L-4,38 L-3,4 Z M25,205 L23,208 L23,222 L22,234 L22,412 L23,519 L24,528 L26,531 L31,530 L32,514 L33,504 L33,382 L32,368 L33,349 L33,209 L30,205 Z " fill="#000000" transform="translate(16,28)"/>
<path d="M0,0 L7,0 L12,1 L41,1 L53,2 L117,2 L146,3 L227,4 L235,7 L242,17 L252,22 L273,23 L346,24 L384,24 L400,18 L411,14 L420,13 L436,17 L455,24 L465,26 L478,26 L485,27 L531,27 L554,28 L595,28 L632,29 L661,29 L698,30 L725,31 L734,30 L755,31 L776,31 L792,30 L798,26 L801,20 L803,20 L804,17 L809,14 L815,13 L836,13 L842,16 L849,24 L851,29 L859,32 L887,32 L893,36 L896,39 L899,47 L899,98 L905,103 L913,106 L923,108 L928,112 L930,116 L930,133 L927,138 L921,141 L906,144 L902,148 L900,153 L899,168 L898,188 L896,196 L890,201 L878,205 L874,210 L873,218 L873,246 L876,260 L880,264 L885,266 L893,267 L939,269 L947,272 L951,275 L951,277 L954,278 L962,289 L966,296 L969,301 L970,302 L970,346 L960,346 L954,342 L951,337 L947,320 L941,318 L937,338 L933,348 L925,356 L915,361 L910,362 L903,362 L892,358 L882,350 L875,336 L872,321 L868,315 L859,314 L854,319 L853,322 L852,335 L848,343 L840,354 L830,361 L819,363 L809,362 L801,358 L796,353 L790,345 L787,335 L785,315 L779,308 L776,299 L774,285 L769,280 L762,278 L722,278 L713,281 L709,287 L704,305 L698,321 L685,338 L674,347 L657,355 L647,358 L630,358 L615,356 L599,350 L587,343 L578,335 L578,333 L575,332 L566,318 L561,308 L558,299 L555,286 L553,282 L547,279 L534,278 L516,279 L511,281 L509,287 L507,290 L503,306 L499,315 L494,323 L492,323 L490,328 L482,336 L470,345 L458,350 L443,353 L418,353 L405,349 L389,341 L376,329 L368,318 L360,303 L359,294 L355,284 L350,280 L332,278 L318,281 L315,290 L308,310 L303,319 L295,329 L290,334 L282,341 L272,347 L261,351 L249,353 L228,353 L218,351 L203,345 L189,334 L182,327 L173,313 L168,302 L165,292 L161,279 L156,276 L146,275 L122,275 L116,278 L109,286 L105,292 L97,299 L93,300 L71,300 L9,299 L-22,299 L-36,297 L-41,292 L-43,287 L-43,155 L-44,113 L-43,96 L-39,89 L-33,84 L-23,81 L-15,79 L19,78 L32,76 L35,75 L38,66 L37,37 L33,30 L29,28 L23,27 L-3,26 L-19,24 L-31,17 L-38,9 L-38,4 L-33,1 Z M88,29 L81,32 L80,35 L78,35 L76,39 L75,50 L75,63 L78,71 L84,75 L89,76 L112,77 L143,76 L150,77 L173,77 L180,74 L186,66 L186,39 L182,33 L177,30 L171,29 Z " fill="#000000" transform="translate(950,263)"/>
<path d="M0,0 L49,0 L171,1 L224,2 L289,2 L292,4 L291,9 L289,10 L240,10 L57,8 L8,8 L0,7 Z " fill="#000000" transform="translate(0,758)"/>
</svg>
