<?xml version="1.0" encoding="UTF-8"?>
<!-- Generator: visioncortex VTracer 0.6.12 -->
<svg version="1.1" xmlns="http://www.w3.org/2000/svg" width="1080" height="1266">
<path d="M0,0 L22,0 L50,1 L61,1 L78,3 L86,5 L102,6 L117,9 L125,9 L135,13 L148,16 L159,18 L177,24 L188,28 L202,32 L220,40 L230,44 L246,52 L271,65 L277,69 L283,72 L293,78 L304,86 L313,92 L319,96 L330,105 L338,111 L347,119 L358,127 L363,133 L374,142 L382,150 L389,158 L400,170 L414,187 L424,200 L432,211 L438,220 L444,229 L451,240 L455,249 L462,257 L465,262 L469,273 L474,281 L476,288 L486,310 L489,315 L492,324 L495,335 L498,339 L507,366 L514,392 L519,416 L521,432 L525,460 L527,481 L527,531 L525,566 L523,587 L515,629 L509,650 L502,675 L496,691 L493,699 L489,710 L477,736 L471,748 L466,759 L462,769 L456,780 L452,785 L444,798 L432,815 L420,831 L411,842 L397,857 L390,865 L379,876 L370,887 L360,896 L358,896 L358,898 L356,898 L354,902 L346,908 L340,912 L336,916 L323,926 L312,934 L304,941 L295,946 L286,952 L274,959 L265,965 L242,976 L224,984 L208,992 L192,998 L181,1001 L176,1003 L164,1006 L156,1009 L137,1014 L118,1018 L116,1019 L103,1020 L89,1023 L75,1025 L48,1027 L44,1029 L29,1028 L22,1027 L20,1028 L-9,1027 L-37,1024 L-40,1023 L-55,1021 L-77,1018 L-95,1013 L-110,1010 L-124,1006 L-131,1002 L-143,1000 L-158,994 L-167,990 L-183,982 L-190,978 L-200,974 L-216,965 L-230,957 L-246,946 L-252,942 L-256,939 L-261,936 L-270,929 L-281,920 L-287,913 L-289,910 L-296,909 L-303,902 L-314,893 L-330,877 L-335,872 L-347,858 L-360,843 L-370,832 L-376,821 L-387,808 L-396,793 L-403,783 L-418,755 L-425,741 L-433,725 L-441,706 L-445,692 L-450,679 L-453,673 L-457,657 L-462,639 L-466,619 L-472,596 L-474,592 L-474,568 L-476,539 L-477,523 L-477,495 L-476,492 L-475,464 L-474,453 L-472,443 L-470,429 L-464,399 L-461,388 L-459,376 L-452,355 L-447,340 L-444,337 L-440,322 L-431,299 L-423,283 L-417,271 L-410,258 L-405,252 L-396,235 L-386,220 L-379,209 L-370,198 L-361,187 L-350,174 L-344,166 L-332,154 L-326,147 L-319,141 L-315,136 L-304,127 L-298,122 L-293,116 L-287,112 L-282,108 L-272,101 L-261,92 L-251,86 L-241,79 L-232,74 L-222,67 L-214,62 L-202,56 L-198,53 L-190,50 L-181,45 L-172,41 L-160,36 L-153,34 L-146,31 L-135,27 L-117,20 L-90,13 L-80,10 L-60,7 L-53,5 L-33,3 L-23,3 L-11,1 L-3,1 Z M5,71 L2,72 L-23,73 L-38,75 L-50,78 L-72,82 L-90,86 L-94,88 L-103,90 L-129,100 L-142,105 L-161,114 L-170,118 L-183,125 L-191,130 L-215,146 L-225,154 L-234,161 L-244,168 L-258,180 L-267,188 L-272,193 L-285,206 L-292,214 L-298,221 L-305,229 L-314,239 L-321,250 L-328,260 L-341,279 L-346,288 L-357,306 L-362,318 L-365,325 L-369,331 L-374,343 L-379,355 L-383,366 L-386,376 L-390,390 L-394,401 L-396,404 L-397,416 L-401,432 L-405,466 L-405,474 L-406,481 L-407,524 L-406,554 L-404,572 L-403,574 L-400,595 L-395,617 L-392,629 L-389,641 L-384,657 L-378,674 L-369,695 L-359,716 L-349,733 L-345,742 L-343,744 L-340,751 L-333,761 L-327,770 L-323,776 L-316,784 L-309,794 L-303,802 L-298,807 L-289,817 L-283,825 L-272,834 L-269,835 L-267,839 L-252,853 L-246,856 L-241,862 L-230,870 L-225,875 L-211,884 L-203,890 L-187,898 L-169,909 L-160,913 L-150,919 L-142,922 L-130,927 L-118,931 L-109,934 L-102,938 L-95,938 L-88,941 L-76,944 L-53,948 L-47,950 L-23,952 L-13,954 L2,954 L18,955 L35,955 L44,954 L49,955 L53,954 L66,953 L68,952 L85,951 L94,948 L120,944 L133,940 L148,936 L154,933 L179,926 L188,922 L202,916 L212,912 L220,907 L234,900 L244,893 L258,885 L269,878 L280,869 L288,863 L294,858 L300,854 L305,850 L305,848 L309,846 L326,830 L331,825 L335,820 L343,813 L354,800 L362,790 L369,782 L376,773 L383,762 L391,749 L398,739 L403,727 L413,709 L417,704 L425,682 L430,670 L436,653 L441,639 L443,631 L447,617 L450,603 L452,591 L453,588 L458,544 L459,519 L459,486 L457,471 L455,447 L452,434 L450,413 L446,403 L443,391 L435,367 L430,354 L425,343 L421,333 L418,324 L406,301 L403,296 L391,274 L386,268 L382,262 L378,257 L371,246 L361,233 L352,223 L345,213 L324,192 L313,183 L302,172 L293,165 L282,156 L274,150 L260,141 L246,131 L218,116 L198,107 L191,104 L184,101 L171,97 L153,91 L145,88 L128,84 L103,78 L100,77 L83,75 L79,74 L44,71 Z " fill="#000000" transform="translate(519,37)"/>
<path d="M0,0 L22,0 L34,4 L44,13 L51,21 L56,35 L58,62 L58,90 L57,144 L56,157 L56,176 L55,235 L54,254 L54,309 L53,339 L53,370 L52,381 L53,397 L54,399 L58,398 L59,395 L60,375 L60,334 L61,314 L61,291 L62,260 L63,174 L65,141 L65,120 L66,96 L69,76 L72,66 L79,55 L89,45 L99,40 L124,38 L130,41 L131,42 L139,43 L151,54 L158,66 L160,79 L161,90 L161,124 L160,137 L160,164 L159,186 L159,244 L158,265 L158,303 L156,475 L155,493 L156,522 L158,522 L160,513 L161,486 L162,433 L163,431 L162,401 L164,382 L165,371 L168,358 L173,345 L179,333 L188,321 L197,314 L204,310 L216,305 L224,303 L236,301 L251,301 L256,306 L258,324 L257,380 L256,408 L256,441 L255,510 L254,525 L254,546 L253,552 L252,578 L248,603 L245,624 L239,648 L232,666 L226,678 L222,686 L214,699 L205,711 L196,722 L190,729 L188,729 L188,731 L182,736 L178,741 L168,749 L160,756 L150,763 L141,770 L133,776 L127,779 L111,788 L101,793 L92,796 L76,802 L59,807 L47,810 L14,814 L-11,814 L-36,811 L-52,808 L-67,804 L-76,801 L-85,799 L-94,796 L-102,792 L-119,784 L-130,777 L-139,771 L-149,765 L-162,755 L-166,750 L-174,743 L-186,731 L-191,725 L-191,723 L-193,723 L-201,711 L-204,707 L-211,693 L-219,680 L-225,667 L-231,653 L-233,645 L-240,624 L-243,612 L-244,598 L-247,583 L-249,554 L-249,425 L-248,371 L-247,341 L-247,314 L-246,261 L-243,245 L-239,237 L-233,228 L-222,217 L-216,214 L-207,211 L-191,211 L-170,221 L-165,225 L-159,236 L-155,246 L-154,257 L-153,266 L-153,287 L-154,295 L-153,308 L-153,347 L-154,354 L-153,386 L-152,395 L-148,395 L-147,393 L-147,375 L-146,366 L-144,309 L-144,250 L-143,243 L-143,221 L-140,132 L-140,94 L-136,67 L-134,59 L-128,48 L-119,40 L-108,35 L-102,33 L-87,33 L-75,35 L-64,42 L-59,47 L-54,53 L-49,68 L-48,72 L-47,86 L-48,147 L-49,170 L-49,214 L-50,225 L-49,230 L-50,273 L-50,302 L-51,327 L-52,387 L-50,398 L-45,399 L-43,377 L-43,354 L-42,332 L-42,287 L-41,248 L-41,236 L-39,186 L-38,169 L-38,110 L-37,93 L-36,48 L-33,31 L-29,22 L-25,14 L-17,8 L-11,4 Z M-110,143 L-111,147 L-109,147 L-108,143 Z " fill="#000000" transform="translate(540,137)"/>
<path d="M0,0 L7,1 L9,5 L10,27 L11,30 L15,31 L24,24 L31,16 L45,3 L49,1 L56,2 L57,3 L57,8 L47,19 L43,20 L41,24 L34,31 L34,39 L40,50 L47,58 L54,67 L58,73 L60,76 L60,82 L59,83 L49,83 L45,81 L40,73 L32,61 L22,47 L18,45 L11,51 L9,60 L9,76 L6,81 L-1,82 L-4,78 L-5,69 L-5,31 L-4,20 L-3,3 Z " fill="#000000" transform="translate(42,1109)"/>
<path d="M0,0 L6,0 L8,1 L30,0 L46,0 L49,5 L46,12 L44,13 L30,12 L28,13 L10,13 L7,16 L6,23 L8,32 L10,33 L20,34 L38,34 L41,38 L40,43 L36,46 L18,46 L11,45 L7,48 L6,51 L4,75 L1,79 L-4,79 L-7,71 L-7,50 L-6,8 L-4,3 Z " fill="#000000" transform="translate(125,1109)"/>
<path d="M0,0 L5,2 L7,4 L8,12 L8,31 L7,80 L2,84 L-5,82 L-7,79 L-8,64 L-7,27 L-7,14 L-6,5 L-3,1 Z " fill="#000000" transform="translate(272,1110)"/>
<path d="M0,0 L9,0 L14,5 L20,24 L29,49 L33,59 L37,75 L36,80 L35,81 L27,81 L23,72 L21,64 L18,59 L16,58 L-11,58 L-18,71 L-21,78 L-25,81 L-31,81 L-33,79 L-32,71 L-21,45 L-17,38 L-15,32 L-8,15 L-3,2 Z M2,22 L-5,37 L-5,44 L-2,47 L6,47 L11,45 L11,33 L7,23 Z " fill="#000000" transform="translate(211,1112)"/>
<path d="M0,0 L3,1 L3,4 L-1,4 Z " fill="#000000" transform="translate(401,1228)"/>
</svg>
