<?xml version="1.0" encoding="UTF-8"?>
<!-- Generator: visioncortex VTracer 0.6.12 -->
<svg version="1.1" xmlns="http://www.w3.org/2000/svg" width="750" height="585">
<path d="M0,0 L14,0 L27,4 L37,8 L43,10 L51,15 L61,24 L74,42 L79,53 L81,66 L77,79 L70,87 L67,90 L63,97 L63,103 L70,111 L78,115 L79,119 L80,124 L87,134 L90,141 L93,155 L95,167 L102,169 L112,166 L124,161 L139,164 L151,170 L159,176 L172,183 L180,188 L190,194 L202,200 L209,204 L215,209 L219,216 L217,223 L208,236 L205,244 L203,246 L196,246 L193,239 L184,235 L168,229 L157,224 L151,223 L149,227 L140,229 L141,233 L145,238 L150,243 L154,248 L161,254 L168,264 L168,273 L163,285 L159,289 L155,291 L150,290 L144,286 L133,277 L119,267 L106,257 L101,252 L91,244 L87,240 L81,235 L77,229 L77,204 L74,199 L65,200 L56,201 L39,201 L23,197 L14,193 L-1,185 L-6,186 L-13,188 L-16,193 L-18,204 L-22,212 L-26,217 L-34,223 L-41,225 L-51,225 L-63,221 L-78,216 L-89,208 L-105,193 L-115,172 L-118,163 L-118,145 L-114,137 L-108,129 L-100,122 L-96,120 L-82,119 L-68,120 L-58,124 L-40,132 L-30,137 L-20,144 L-9,150 L2,158 L13,164 L17,167 L24,171 L31,176 L38,177 L53,177 L64,172 L67,165 L66,155 L61,141 L55,132 L44,123 L34,115 L23,109 L17,104 L6,97 L4,93 L-1,91 L-10,81 L-15,77 L-23,67 L-29,54 L-30,50 L-30,31 L-22,15 L-17,9 Z M13,27 L0,34 L-4,39 L-5,41 L-5,49 L-1,57 L5,66 L13,72 L27,77 L36,76 L43,74 L50,67 L52,58 L51,49 L44,40 L36,33 L27,27 Z M-72,142 L-82,144 L-91,150 L-93,152 L-96,161 L-95,171 L-89,183 L-79,193 L-67,199 L-55,200 L-46,196 L-39,190 L-35,180 L-35,171 L-40,161 L-49,152 L-60,146 L-68,142 Z " fill="#000000" transform="translate(156,36)"/>
<path d="M0,0 L3,1 L3,3 L0,3 Z " fill="#000000" transform="translate(513,168)"/>
<path d="M0,0 L7,1 L6,5 L-1,4 Z " fill="#000000" transform="translate(622,173)"/>
<path d="M0,0 L4,1 L3,6 L4,7 L25,9 L66,10 L69,11 L102,12 L109,11 L118,12 L131,18 L139,23 L148,35 L151,43 L151,51 L144,72 L139,80 L133,87 L124,93 L120,95 L117,103 L109,113 L107,113 L105,120 L96,131 L92,135 L83,149 L78,153 L74,162 L66,169 L59,178 L54,183 L49,189 L46,195 L41,200 L36,208 L31,216 L26,219 L17,232 L10,238 L7,244 L-1,252 L-10,265 L-14,272 L-19,277 L-28,289 L-31,290 L-37,299 L-42,307 L-46,308 L-48,313 L-56,322 L-61,327 L-72,337 L-79,338 L-85,334 L-92,325 L-97,320 L-100,318 L-100,316 L-104,314 L-116,311 L-145,309 L-159,312 L-163,310 L-175,310 L-182,312 L-187,311 L-191,310 L-194,313 L-199,312 L-205,308 L-211,309 L-213,311 L-219,311 L-223,309 L-226,306 L-231,306 L-234,310 L-242,310 L-247,306 L-253,305 L-257,308 L-263,307 L-268,306 L-274,309 L-284,310 L-286,308 L-286,304 L-292,305 L-292,310 L-297,311 L-299,307 L-298,304 L-323,305 L-328,303 L-343,303 L-357,302 L-369,302 L-372,300 L-372,294 L-363,283 L-351,269 L-346,264 L-337,254 L-324,240 L-315,229 L-309,222 L-302,216 L-294,206 L-290,201 L-284,196 L-276,186 L-267,176 L-262,171 L-259,169 L-254,169 L-244,176 L-233,184 L-220,197 L-218,198 L-218,200 L-213,202 L-202,210 L-194,218 L-188,222 L-176,230 L-169,236 L-161,242 L-153,249 L-145,255 L-136,261 L-133,264 L-122,271 L-114,277 L-107,279 L-101,278 L-99,276 L-100,269 L-106,259 L-115,249 L-122,241 L-130,233 L-137,225 L-142,220 L-152,210 L-160,203 L-168,195 L-175,187 L-185,178 L-192,171 L-199,163 L-214,147 L-222,139 L-224,136 L-224,130 L-217,120 L-209,115 L-198,115 L-184,122 L-168,129 L-152,136 L-142,140 L-135,142 L-126,147 L-118,150 L-114,153 L-103,157 L-87,164 L-77,168 L-63,174 L-45,182 L-38,184 L-29,183 L-26,180 L-26,173 L-30,164 L-37,158 L-41,154 L-54,145 L-65,139 L-73,134 L-93,123 L-112,113 L-123,106 L-145,94 L-154,89 L-165,83 L-170,77 L-171,73 L-167,65 L-159,55 L-152,47 L-145,38 L-136,29 L-127,18 L-117,10 L-110,7 L-91,4 L-75,4 L-66,5 L-61,4 L-49,6 L-23,5 L-21,6 L0,6 L-1,1 Z M-108,190 L-109,192 L-105,191 Z " fill="#000000" transform="translate(564,170)"/>
<path d="M0,0 L3,1 L2,3 L0,3 Z " fill="#000000" transform="translate(597,174)"/>
<path d="M0,0 L15,0 L43,1 L45,0 L52,0 L56,2 L69,2 L93,3 L110,5 L151,6 L158,7 L190,8 L204,9 L243,9 L255,13 L263,22 L265,26 L267,36 L267,44 L264,50 L260,55 L255,59 L252,60 L232,60 L226,64 L222,62 L220,60 L191,60 L186,58 L180,61 L166,61 L164,59 L159,58 L152,61 L146,60 L142,58 L115,56 L111,55 L90,55 L78,54 L50,54 L27,52 L10,52 L-4,51 L-15,48 L-25,42 L-32,34 L-35,26 L-35,17 L-31,11 L-26,7 L-15,2 Z M-1,17 L-5,23 L-9,27 L-8,33 L-4,35 L50,37 L73,37 L100,38 L118,38 L141,39 L160,39 L175,40 L192,40 L214,41 L227,41 L240,38 L242,34 L241,25 L237,22 L229,21 L171,21 L139,20 L126,20 L120,19 L74,18 L65,19 L63,21 L58,20 L56,18 L39,17 Z " fill="#000000" transform="translate(197,489)"/>
</svg>
