<?xml version="1.0" encoding="UTF-8"?>
<!-- Generator: visioncortex VTracer 0.6.12 -->
<svg version="1.1" xmlns="http://www.w3.org/2000/svg" width="1140" height="1122">
<path d="M0,0 L1008,0 L1013,1 L1019,0 L1022,1 L1098,1 L1106,2 L1134,2 L1134,0 L1140,0 L1140,1068 L1138,1085 L1138,1094 L1140,1097 L1140,1119 L1139,1122 L1119,1122 L1123,1117 L1124,1112 L1125,966 L1126,913 L1127,906 L1128,905 L1127,898 L1127,807 L1128,766 L1128,711 L1129,670 L1130,594 L1131,516 L1131,488 L1132,450 L1132,416 L1133,344 L1133,277 L1134,227 L1134,201 L1135,158 L1135,20 L1133,15 L1127,14 L1120,15 L1116,14 L1080,14 L1002,13 L971,13 L943,12 L802,12 L772,11 L698,11 L695,10 L641,10 L627,9 L539,9 L499,8 L459,8 L427,7 L354,7 L267,6 L251,7 L220,6 L195,5 L34,5 L21,6 L18,10 L17,16 L16,39 L14,127 L13,201 L13,217 L12,260 L11,336 L11,376 L10,389 L10,446 L9,539 L9,577 L8,590 L8,632 L7,670 L7,695 L6,716 L2,724 L4,730 L6,734 L6,778 L5,847 L4,894 L4,1105 L8,1109 L55,1110 L85,1110 L135,1111 L204,1111 L216,1112 L251,1112 L315,1113 L351,1113 L411,1114 L466,1114 L528,1116 L680,1116 L683,1117 L781,1118 L792,1119 L816,1118 L847,1118 L986,1119 L1004,1120 L1005,1122 L0,1122 Z " fill="#000000" transform="translate(0,0)"/>
<path d="M0,0 L32,0 L44,1 L48,0 L102,1 L111,0 L127,1 L147,1 L152,4 L154,8 L155,63 L159,72 L167,74 L233,76 L276,76 L281,77 L290,77 L306,79 L315,83 L329,91 L336,98 L341,103 L352,119 L358,138 L360,149 L366,175 L371,200 L373,205 L378,230 L385,259 L387,271 L388,273 L390,288 L393,300 L397,318 L401,324 L409,329 L420,337 L424,342 L428,346 L433,355 L437,368 L438,376 L439,400 L439,418 L438,438 L438,459 L437,489 L437,528 L435,619 L434,633 L430,649 L423,661 L415,670 L403,679 L395,684 L392,689 L390,735 L388,798 L380,809 L376,812 L365,815 L334,815 L323,814 L300,813 L292,808 L287,802 L283,794 L282,779 L282,700 L280,692 L275,688 L269,687 L250,687 L246,686 L219,686 L213,685 L210,686 L161,686 L69,684 L54,685 L50,684 L17,684 L8,683 L-25,684 L-28,683 L-73,683 L-78,682 L-102,683 L-127,682 L-165,682 L-174,686 L-176,691 L-177,705 L-179,773 L-180,794 L-185,802 L-192,807 L-208,809 L-259,809 L-271,806 L-277,803 L-282,798 L-284,795 L-285,790 L-286,767 L-286,748 L-285,715 L-285,694 L-287,680 L-292,674 L-303,666 L-303,664 L-307,662 L-314,654 L-317,650 L-323,633 L-325,624 L-326,605 L-324,490 L-323,462 L-323,437 L-322,388 L-320,360 L-313,344 L-306,335 L-296,325 L-280,316 L-274,309 L-269,290 L-264,273 L-261,259 L-259,247 L-255,236 L-251,215 L-247,203 L-245,193 L-242,183 L-239,169 L-231,140 L-227,123 L-221,108 L-211,94 L-202,86 L-191,79 L-175,73 L-168,72 L-141,71 L-36,71 L-30,67 L-28,59 L-27,33 L-26,10 L-23,4 L-19,1 Z M-171,113 L-173,116 L-172,121 L-165,120 L-164,117 L-167,113 Z M-128,120 L-151,122 L-162,126 L-173,133 L-180,142 L-185,153 L-191,175 L-194,187 L-196,197 L-200,209 L-203,224 L-207,240 L-213,261 L-216,275 L-221,296 L-221,304 L-217,311 L-207,316 L-184,316 L-167,317 L-94,317 L-77,318 L-48,318 L-43,321 L-38,319 L-33,318 L43,319 L76,319 L85,320 L128,320 L180,321 L323,322 L334,321 L339,318 L343,312 L343,299 L340,286 L334,257 L332,250 L330,239 L324,211 L322,205 L320,193 L317,182 L315,171 L310,154 L305,145 L298,136 L291,131 L280,127 L257,124 L240,125 L237,127 L233,127 L231,124 L135,124 L129,123 L120,124 L108,123 L77,123 L17,122 L-21,121 L-66,120 L-69,121 Z M-238,386 L-253,391 L-259,395 L-269,404 L-279,422 L-281,429 L-281,448 L-277,461 L-273,469 L-265,479 L-254,488 L-241,493 L-234,494 L-218,494 L-202,488 L-193,483 L-188,478 L-179,467 L-173,452 L-172,445 L-172,435 L-175,421 L-182,408 L-197,393 L-208,389 L-212,387 L-219,386 Z M340,393 L328,395 L316,399 L305,407 L298,414 L293,422 L289,433 L287,444 L287,452 L289,464 L298,481 L312,494 L325,500 L341,502 L354,501 L366,497 L380,488 L387,480 L394,464 L397,452 L397,443 L393,427 L389,420 L386,413 L378,405 L365,397 L349,393 Z M-114,453 L-124,457 L-130,466 L-130,479 L-127,485 L-122,489 L-117,491 L-49,492 L11,492 L69,493 L120,493 L123,494 L132,494 L140,493 L174,494 L224,494 L233,493 L240,487 L242,482 L243,472 L238,462 L233,458 L227,456 L163,456 L118,455 L109,454 L66,455 L47,455 L12,454 L-38,454 L-66,453 Z M-87,517 L-112,518 L-119,518 L-125,521 L-132,529 L-132,541 L-130,548 L-125,553 L-118,555 L-110,556 L-94,556 L-82,557 L-78,558 L-74,556 L-25,557 L22,558 L83,558 L128,559 L149,558 L194,559 L226,559 L233,557 L238,554 L241,548 L242,543 L242,532 L239,527 L234,523 L215,521 L192,520 L155,520 L137,519 L47,519 L42,518 L-73,518 Z M-96,583 L-120,584 L-130,589 L-133,595 L-134,607 L-129,615 L-124,619 L-122,620 L-76,621 L-40,621 L34,622 L62,622 L110,623 L160,623 L186,624 L223,624 L233,621 L240,613 L241,611 L241,597 L237,590 L228,586 L176,586 L96,585 L74,585 L51,584 L-67,584 Z " fill="#000000" transform="translate(512,129)"/>
<path d="M0,0 L14,0 L18,2 L-2,2 Z " fill="#000000" transform="translate(1011,1120)"/>
<path d="M0,0 L5,2 L5,3 L-4,3 L-3,1 Z " fill="#000000" transform="translate(1043,1119)"/>
<path d="M0,0 L7,1 L7,2 L-1,2 Z " fill="#000000" transform="translate(1054,1120)"/>
<path d="M0,0 L4,1 Z " fill="#000000" transform="translate(1031,1121)"/>
</svg>
