<?xml version="1.0" encoding="UTF-8"?>
<!-- Generator: visioncortex VTracer 0.6.12 -->
<svg version="1.1" xmlns="http://www.w3.org/2000/svg" width="1131" height="1128">
<path d="M0,0 L17,0 L15,5 L14,6 L13,31 L12,57 L10,164 L9,174 L10,182 L10,195 L9,212 L9,294 L8,351 L7,415 L7,443 L6,500 L5,546 L5,569 L4,655 L3,677 L3,738 L2,801 L1,841 L0,849 L1,862 L0,935 L-1,945 L-2,968 L-4,973 L-5,973 L-5,356 L-4,352 L-4,314 L-3,298 L-3,198 L-2,136 L-2,102 L-1,91 Z " fill="#000000" transform="translate(5,0)"/>
<path d="M0,0 L8,0 L7,2 L1,2 Z " fill="#000000" transform="translate(73,0)"/>
<path d="M0,0 L7,0 L3,2 Z " fill="#000000" transform="translate(106,0)"/>
<path d="M0,0 L15,0 L14,2 L2,2 Z " fill="#000000" transform="translate(119,0)"/>
<path d="M0,0 L50,0 L49,2 L1,2 Z " fill="#000000" transform="translate(137,0)"/>
<path d="M0,0 L801,0 L804,2 L815,1 L816,0 L822,0 L823,1 L865,2 L880,2 L904,3 L908,6 L914,5 L917,3 L940,2 L940,687 L939,689 L939,710 L940,716 L940,725 L939,726 L940,737 L939,743 L938,799 L937,912 L935,965 L935,1116 L936,1128 L917,1128 L919,1113 L919,1060 L920,1035 L920,1022 L919,1014 L919,1001 L920,991 L921,961 L922,903 L923,865 L923,849 L924,794 L923,784 L922,781 L924,778 L925,721 L926,685 L927,600 L928,498 L929,449 L929,420 L930,387 L931,280 L931,209 L932,187 L933,115 L933,22 L931,17 L930,16 L916,15 L886,14 L863,14 L750,12 L707,12 L699,11 L627,10 L602,10 L582,9 L533,9 L437,7 L380,7 L335,6 L281,6 L233,5 L215,4 L117,4 L14,3 L2,2 Z " fill="#000000" transform="translate(191,0)"/>
<path d="M0,0 L74,0 L161,1 L214,1 L226,5 L232,9 L240,18 L244,24 L251,34 L259,47 L265,57 L272,68 L279,79 L283,84 L289,95 L300,107 L313,114 L324,117 L351,120 L368,121 L379,123 L419,127 L427,128 L438,129 L461,131 L471,134 L475,139 L476,144 L476,162 L475,190 L474,203 L474,216 L473,224 L472,244 L469,263 L462,271 L453,274 L447,275 L373,275 L367,282 L363,292 L359,300 L349,313 L341,321 L331,327 L321,332 L311,335 L302,336 L288,336 L275,334 L266,330 L252,323 L240,312 L232,302 L226,290 L221,278 L221,276 L217,275 L189,274 L119,273 L101,273 L94,272 L-15,272 L-115,271 L-177,271 L-181,272 L-186,282 L-194,298 L-202,309 L-215,320 L-222,325 L-236,331 L-248,333 L-263,333 L-276,331 L-291,325 L-298,320 L-305,316 L-314,307 L-322,295 L-326,288 L-329,279 L-331,271 L-334,268 L-359,266 L-366,263 L-371,259 L-374,253 L-377,235 L-380,215 L-385,177 L-387,168 L-393,161 L-395,155 L-395,139 L-394,114 L-391,110 L-384,109 L-314,108 L-298,108 L-263,107 L-243,107 L-215,106 L-188,105 L-178,101 L-166,90 L-153,71 L-141,55 L-132,44 L-126,35 L-117,23 L-108,12 L-99,4 L-88,1 L-30,1 Z M11,21 L-46,22 L-89,22 L-95,26 L-104,34 L-113,47 L-126,65 L-135,77 L-142,87 L-152,102 L-152,109 L-148,114 L-138,116 L-67,116 L-30,117 L33,117 L39,114 L42,106 L43,81 L42,29 L39,23 L37,22 Z M94,21 L74,22 L69,25 L67,29 L67,103 L69,111 L73,115 L78,117 L88,118 L174,119 L224,119 L228,117 L230,113 L229,106 L225,96 L219,84 L212,71 L208,61 L202,50 L193,34 L186,26 L179,23 L172,23 L164,22 L127,22 L107,21 Z M-136,142 L-156,143 L-161,148 L-161,162 L-156,167 L-141,169 L-140,170 L-139,236 L-136,241 L-131,244 L-120,244 L-116,242 L-114,239 L-113,231 L-112,178 L-110,170 L-109,169 L-95,169 L-90,166 L-89,163 L-89,150 L-91,146 L-95,144 L-116,143 Z M-29,142 L-43,143 L-48,148 L-51,155 L-56,168 L-60,184 L-65,199 L-69,213 L-71,219 L-72,227 L-74,230 L-74,240 L-70,244 L-56,244 L-51,241 L-48,236 L-45,228 L-41,224 L-28,223 L-17,224 L-14,227 L-7,241 L-4,244 L14,244 L17,241 L16,230 L9,206 L-1,175 L-6,158 L-12,146 L-19,143 Z M52,144 L48,147 L49,156 L56,169 L65,185 L66,188 L66,196 L58,211 L52,221 L44,237 L45,243 L49,245 L68,245 L75,237 L81,228 L84,223 L87,223 L97,240 L101,244 L104,245 L120,245 L123,244 L124,238 L117,224 L109,210 L103,199 L102,197 L102,190 L108,178 L117,161 L121,153 L120,147 L118,145 L98,145 L92,150 L86,160 L82,160 L76,152 L72,146 L62,144 Z M165,147 L160,151 L158,170 L158,241 L163,247 L180,247 L183,244 L184,240 L185,224 L185,156 L183,150 L179,147 Z M-319,167 L-318,169 Z M-260,218 L-269,220 L-283,228 L-290,235 L-296,247 L-297,261 L-294,275 L-289,283 L-282,292 L-269,298 L-264,299 L-250,299 L-242,297 L-232,291 L-227,286 L-221,278 L-217,265 L-217,252 L-219,244 L-224,235 L-230,228 L-237,223 L-252,218 Z M293,221 L280,224 L271,229 L262,238 L258,245 L256,249 L255,255 L255,269 L258,279 L264,288 L270,295 L281,301 L288,303 L303,303 L315,298 L321,295 L330,284 L334,274 L335,269 L334,252 L330,242 L324,234 L318,229 L307,223 L300,221 Z " fill="#000000" transform="translate(530,407)"/>
<path d="M0,0 L4,1 L7,11 L7,18 L4,20 L-3,20 L-5,18 L-5,11 L-1,1 Z " fill="#000000" transform="translate(500,587)"/>
<path d="M0,0 L2,1 L2,7 L0,7 Z " fill="#000000" transform="translate(0,977)"/>
<path d="M0,0 L2,1 L2,9 L0,9 Z " fill="#000000" transform="translate(0,990)"/>
<path d="M0,0 L2,1 L3,35 L1,39 L0,39 Z " fill="#000000" transform="translate(0,1012)"/>
<path d="M0,0 L3,3 L4,54 L7,57 L39,59 L101,60 L117,60 L136,61 L189,61 L210,62 L218,61 L231,62 L256,62 L322,63 L325,65 L324,70 L322,75 L302,75 L301,74 L296,74 L295,75 L271,75 L269,74 L225,74 L221,73 L173,73 L16,72 L0,72 Z " fill="#000000" transform="translate(0,1053)"/>
<path d="M0,0 L51,0 L107,2 L137,2 L175,3 L209,3 L216,4 L222,3 L232,4 L264,3 L286,4 L322,5 L383,6 L417,6 L427,7 L450,7 L500,8 L537,8 L574,9 L578,11 L578,12 L-3,12 L-4,3 Z " fill="#000000" transform="translate(332,1116)"/>
<path d="M0,0 L31,0 L33,2 L-1,2 Z " fill="#000000" transform="translate(915,1126)"/>
<path d="M0,0 L4,2 L-2,2 Z " fill="#000000" transform="translate(953,1126)"/>
</svg>
