<?xml version="1.0" encoding="UTF-8"?>
<!-- Generator: visioncortex VTracer 0.6.12 -->
<svg version="1.1" xmlns="http://www.w3.org/2000/svg" width="1131" height="1119">
<path d="M0,0 L57,0 L57,1 L52,2 L37,3 L19,7 L1,14 L-11,19 L-23,27 L-36,37 L-51,51 L-57,59 L-67,74 L-72,83 L-79,100 L-81,106 L-85,122 L-88,150 L-90,151 L-90,93 L-84,81 L-78,69 L-72,60 L-63,49 L-54,38 L-41,26 L-36,23 L-31,18 L-18,10 L-12,6 L-2,2 L0,2 Z " fill="#000000" transform="translate(90,0)"/>
<path d="M0,0 L58,0 L58,2 L1,2 Z " fill="#000000" transform="translate(342,0)"/>
<path d="M0,0 L10,0 L8,2 L1,2 Z " fill="#000000" transform="translate(406,0)"/>
<path d="M0,0 L587,0 L596,4 L608,9 L620,16 L635,26 L645,35 L653,42 L661,50 L664,56 L671,65 L685,91 L692,109 L697,136 L699,169 L700,319 L700,796 L701,803 L701,850 L702,915 L702,939 L703,945 L702,955 L701,981 L699,998 L696,1010 L691,1026 L687,1036 L679,1051 L672,1061 L662,1074 L656,1082 L654,1082 L652,1086 L643,1093 L633,1101 L617,1110 L602,1117 L599,1117 L599,1119 L533,1119 L535,1117 L558,1115 L581,1112 L593,1107 L599,1105 L608,1101 L619,1095 L632,1086 L642,1079 L653,1068 L659,1059 L665,1050 L673,1036 L678,1026 L683,1010 L687,989 L688,973 L689,961 L688,948 L689,929 L688,884 L688,457 L687,376 L687,344 L686,243 L686,173 L685,142 L681,118 L677,106 L670,89 L664,79 L658,67 L649,56 L642,48 L634,41 L620,31 L609,24 L607,22 L591,16 L587,14 L578,12 L565,8 L546,6 L534,5 L497,4 L434,4 L405,5 L303,5 L222,4 L169,4 L122,3 L13,3 L0,1 Z " fill="#000000" transform="translate(419,0)"/>
<path d="M0,0 L22,0 L26,2 L27,4 L28,48 L31,53 L33,54 L67,55 L73,59 L77,65 L84,74 L95,88 L108,104 L120,120 L129,131 L138,144 L146,153 L154,164 L163,176 L174,190 L180,199 L186,206 L196,220 L200,224 L208,226 L260,226 L285,227 L346,227 L348,228 L369,228 L379,229 L399,238 L409,245 L413,250 L418,255 L425,265 L431,278 L434,291 L434,313 L433,383 L432,390 L427,394 L411,394 L342,392 L339,389 L336,372 L329,351 L321,334 L314,325 L307,317 L297,308 L286,301 L278,296 L264,291 L256,288 L237,286 L216,287 L200,290 L190,294 L175,301 L167,307 L156,316 L147,326 L140,335 L132,351 L128,362 L122,388 L121,390 L116,391 L52,390 L18,389 L10,390 L-5,389 L-101,389 L-231,388 L-238,387 L-246,387 L-248,382 L-250,367 L-252,358 L-258,341 L-264,329 L-275,314 L-280,309 L-285,304 L-294,297 L-311,287 L-322,283 L-337,279 L-343,278 L-366,278 L-391,284 L-407,292 L-417,298 L-428,307 L-433,311 L-437,317 L-444,325 L-452,339 L-457,352 L-461,368 L-463,380 L-467,385 L-507,386 L-553,385 L-556,380 L-556,316 L-555,286 L-553,273 L-548,259 L-538,245 L-526,234 L-512,226 L-504,223 L-495,221 L-406,221 L-359,220 L-354,215 L-347,198 L-343,186 L-338,175 L-332,160 L-326,144 L-322,134 L-316,118 L-312,109 L-307,95 L-303,86 L-298,72 L-292,58 L-287,52 L-279,51 L-195,52 L-152,53 L-100,53 L-80,54 L-51,53 L-36,54 L-11,54 L-8,50 L-6,40 L-5,11 L-4,2 Z M-220,77 L-226,81 L-232,93 L-237,106 L-243,123 L-248,135 L-253,148 L-259,163 L-263,174 L-271,194 L-278,214 L-277,220 L-275,222 L-250,223 L-209,223 L-204,222 L-199,224 L-114,223 L-109,218 L-108,163 L-108,127 L-107,106 L-108,85 L-110,80 L-112,79 L-125,78 L-174,77 Z M-79,79 L-83,83 L-84,87 L-85,116 L-85,216 L-82,222 L-78,224 L-6,224 L-2,220 L-1,218 L0,201 L1,181 L2,175 L13,175 L18,170 L19,154 L18,138 L13,134 L7,133 L0,133 L-4,131 L-6,127 L-6,120 L-5,116 L-3,115 L22,115 L25,118 L26,167 L28,173 L31,175 L68,176 L81,176 L85,178 L86,181 L87,218 L90,224 L100,226 L159,226 L163,223 L162,216 L153,204 L146,195 L139,185 L129,172 L122,163 L115,154 L105,140 L95,129 L84,113 L78,106 L71,97 L64,87 L56,80 L2,79 Z " fill="#000000" transform="translate(619,392)"/>
<path d="M0,0 Z " fill="#000000" transform="translate(0,484)"/>
<path d="M0,0 Z " fill="#000000" transform="translate(0,631)"/>
<path d="M0,0 Z " fill="#000000" transform="translate(0,636)"/>
<path d="M0,0 L1,0 L2,17 L0,18 Z " fill="#000000" transform="translate(0,664)"/>
<path d="M0,0 L2,1 L2,8 L0,9 Z " fill="#000000" transform="translate(0,689)"/>
<path d="M0,0 L23,1 L41,7 L57,17 L67,26 L77,40 L83,51 L88,70 L89,75 L88,93 L84,109 L77,125 L67,138 L56,148 L45,155 L30,161 L15,164 L-5,164 L-20,160 L-33,155 L-48,145 L-56,137 L-64,127 L-71,112 L-75,97 L-76,92 L-76,76 L-72,58 L-67,46 L-60,34 L-51,23 L-45,19 L-38,13 L-24,6 L-14,2 Z " fill="#000000" transform="translate(259,697)"/>
<path d="M0,0 L11,0 L28,3 L42,9 L57,19 L62,24 L68,31 L78,47 L84,63 L86,74 L86,94 L83,107 L78,121 L72,132 L64,141 L55,148 L43,155 L36,159 L15,164 L1,164 L-16,162 L-30,157 L-43,149 L-53,141 L-61,133 L-70,120 L-75,108 L-78,94 L-78,72 L-74,56 L-68,41 L-58,28 L-56,28 L-55,25 L-47,18 L-37,11 L-28,6 L-16,2 Z " fill="#000000" transform="translate(846,702)"/>
<path d="M0,0 L1,0 L1,5 L0,5 Z " fill="#000000" transform="translate(0,703)"/>
<path d="M0,0 L1,0 L1,5 L0,5 Z " fill="#000000" transform="translate(0,721)"/>
<path d="M0,0 L2,1 L1,5 L0,5 Z " fill="#000000" transform="translate(0,734)"/>
<path d="M0,0 L2,2 L1,17 L0,17 Z " fill="#000000" transform="translate(0,744)"/>
<path d="M0,0 L1,0 L1,6 L0,6 Z " fill="#000000" transform="translate(0,766)"/>
<path d="M0,0 L2,4 L1,12 L0,12 Z " fill="#000000" transform="translate(0,854)"/>
<path d="M0,0 L2,0 L7,30 L12,44 L14,51 L21,66 L30,81 L38,91 L49,104 L59,111 L68,118 L77,124 L107,137 L116,140 L128,142 L203,143 L626,143 L629,146 L91,146 L83,141 L67,133 L57,126 L48,119 L41,112 L36,107 L30,102 L16,83 L7,66 L3,58 L2,53 L0,53 Z " fill="#000000" transform="translate(0,973)"/>
<path d="M0,0 L22,1 L50,1 L52,3 L-39,3 L-35,1 Z " fill="#000000" transform="translate(673,1116)"/>
<path d="M0,0 L25,0 L26,2 L-2,2 Z " fill="#000000" transform="translate(730,1117)"/>
<path d="M0,0 L41,0 L43,2 L-1,2 Z " fill="#000000" transform="translate(782,1117)"/>
<path d="M0,0 L5,1 L5,2 L-2,2 Z " fill="#000000" transform="translate(828,1117)"/>
<path d="M0,0 L29,0 L30,2 L-2,2 Z " fill="#000000" transform="translate(844,1117)"/>
<path d="M0,0 L13,0 L14,2 L-2,2 Z " fill="#000000" transform="translate(880,1117)"/>
<path d="M0,0 L8,0 L10,2 L-1,2 Z " fill="#000000" transform="translate(932,1117)"/>
<path d="M0,0 L3,1 L-1,2 Z " fill="#000000" transform="translate(945,1117)"/>
<path d="M0,0 L9,0 L9,1 L0,1 Z " fill="#000000" transform="translate(763,1118)"/>
<path d="M0,0 L2,1 Z " fill="#000000" transform="translate(914,1118)"/>
</svg>
