<?xml version="1.0" encoding="UTF-8"?>
<!-- Generator: visioncortex VTracer 0.6.12 -->
<svg version="1.1" xmlns="http://www.w3.org/2000/svg" width="1110" height="1098">
<path d="M0,0 L13,1 L99,1 L181,0 L194,1 L395,1 L416,2 L419,6 L420,29 L419,37 L420,80 L420,147 L421,181 L420,193 L420,394 L421,400 L421,438 L422,464 L421,473 L421,492 L422,513 L422,601 L421,607 L422,615 L422,688 L423,761 L423,1011 L421,1014 L407,1015 L362,1014 L337,1015 L330,1016 L287,1014 L271,1014 L258,1015 L248,1014 L185,1014 L178,1015 L172,1014 L149,1014 L125,1013 L-42,1013 L-48,1014 L-53,1013 L-95,1012 L-116,1012 L-169,1013 L-392,1013 L-485,1014 L-533,1014 L-601,1015 L-608,1013 L-612,1008 L-612,974 L-613,884 L-613,839 L-615,637 L-615,548 L-616,465 L-616,360 L-617,270 L-617,62 L-616,35 L-616,10 L-613,6 L-610,5 L-595,4 L-522,3 L-409,3 L-396,4 L-387,3 L-336,3 L-302,2 L-274,2 L-267,3 L-264,2 L-205,2 L-177,1 L-150,2 L-122,2 L-115,1 L-17,1 Z M-140,292 L-146,295 L-149,303 L-150,337 L-153,340 L-155,341 L-239,342 L-270,343 L-290,347 L-295,350 L-309,354 L-322,361 L-332,368 L-342,376 L-349,382 L-355,387 L-361,397 L-368,407 L-376,423 L-381,436 L-386,455 L-388,466 L-391,468 L-416,469 L-421,470 L-433,469 L-490,469 L-501,471 L-512,474 L-523,481 L-530,488 L-535,493 L-539,498 L-544,511 L-546,523 L-546,595 L-545,616 L-543,626 L-539,629 L-533,630 L-461,631 L-425,631 L-405,630 L-396,629 L-391,623 L-385,600 L-377,584 L-370,575 L-364,567 L-358,563 L-349,556 L-332,548 L-308,544 L-297,544 L-288,545 L-272,550 L-257,558 L-248,565 L-243,569 L-241,569 L-239,573 L-229,587 L-224,598 L-221,607 L-217,624 L-213,629 L-193,630 L-32,630 L-26,631 L-19,630 L44,630 L79,631 L107,630 L128,630 L140,629 L145,626 L148,620 L154,597 L158,590 L164,580 L173,570 L182,562 L200,552 L211,548 L218,546 L233,545 L252,547 L265,551 L281,560 L290,567 L301,579 L309,592 L315,608 L317,622 L319,627 L325,630 L341,630 L350,628 L353,625 L355,621 L357,611 L357,520 L354,508 L350,498 L344,490 L341,486 L336,483 L325,475 L315,472 L311,471 L278,470 L253,470 L233,469 L128,469 L122,467 L120,462 L118,444 L113,428 L107,413 L97,398 L90,390 L83,381 L71,370 L63,366 L53,358 L35,350 L27,348 L23,346 L-1,342 L-10,342 L-16,341 L-114,341 L-120,339 L-121,332 L-121,318 L-123,296 L-126,293 L-129,292 Z M106,358 L103,359 L102,364 L105,367 L110,367 L113,362 L110,358 Z M-309,551 L-320,552 L-339,559 L-351,566 L-363,577 L-367,582 L-373,591 L-379,606 L-382,623 L-381,638 L-378,651 L-371,665 L-363,676 L-353,685 L-343,691 L-334,695 L-323,699 L-318,700 L-296,700 L-284,698 L-277,695 L-268,692 L-257,685 L-251,680 L-244,672 L-234,658 L-229,645 L-227,636 L-227,616 L-230,604 L-235,591 L-241,582 L-252,570 L-263,562 L-270,558 L-280,555 L-288,552 L-297,551 Z M223,553 L207,557 L197,561 L185,569 L175,578 L168,587 L163,596 L160,602 L158,611 L156,620 L156,634 L158,648 L163,660 L168,669 L177,680 L182,685 L194,693 L205,698 L215,701 L222,702 L244,702 L256,699 L269,693 L280,686 L285,681 L292,674 L298,666 L302,660 L306,646 L308,636 L308,618 L306,606 L301,593 L292,579 L287,575 L284,570 L274,564 L265,559 L248,554 L241,553 Z " fill="#000000" transform="translate(654,11)"/>
<path d="M0,0 L29,0 L33,5 L34,11 L34,41 L35,58 L34,97 L32,102 L30,103 L18,104 L-6,103 L-23,103 L-92,104 L-97,101 L-97,89 L-93,72 L-89,61 L-82,48 L-80,48 L-78,43 L-69,33 L-65,28 L-58,22 L-47,15 L-31,7 L-25,4 L-12,1 Z " fill="#000000" transform="translate(393,377)"/>
<path d="M0,0 L120,0 L127,3 L128,10 L129,50 L128,93 L126,101 L122,103 L3,103 L-3,101 L-5,98 L-6,59 L-6,14 L-5,5 Z " fill="#000000" transform="translate(460,377)"/>
<path d="M0,0 L34,0 L54,4 L75,13 L88,22 L98,31 L104,36 L110,45 L119,61 L123,72 L127,87 L127,99 L123,103 L91,103 L84,104 L54,104 L-1,102 L-3,99 L-5,56 L-5,22 L-4,4 Z " fill="#000000" transform="translate(619,377)"/>
<path d="M0,0 L11,1 L25,8 L31,16 L35,25 L36,28 L35,42 L29,53 L24,57 L21,60 L13,64 L6,65 L-4,65 L-13,61 L-19,57 L-26,48 L-29,42 L-30,38 L-30,27 L-26,16 L-21,10 L-11,3 L-6,1 Z " fill="#000000" transform="translate(347,605)"/>
<path d="M0,0 L12,0 L23,4 L32,13 L36,22 L38,33 L36,45 L30,54 L27,55 L26,58 L14,64 L9,65 L1,65 L-11,61 L-19,54 L-25,46 L-27,34 L-27,27 L-23,17 L-19,11 L-11,4 Z " fill="#000000" transform="translate(881,607)"/>
</svg>
