<?xml version="1.0" encoding="UTF-8"?>
<!-- Generator: visioncortex VTracer 0.6.12 -->
<svg version="1.1" xmlns="http://www.w3.org/2000/svg" width="1128" height="1116">
<path d="M0,0 L12,0 L12,2 L8,4 L7,9 L6,86 L6,117 L5,305 L5,365 L4,433 L4,536 L2,658 L0,660 Z " fill="#000000" transform="translate(0,0)"/>
<path d="M0,0 L13,0 L11,2 L4,2 Z " fill="#000000" transform="translate(24,0)"/>
<path d="M0,0 L35,0 L33,2 L9,2 L0,1 Z " fill="#000000" transform="translate(47,0)"/>
<path d="M0,0 L22,0 L21,2 L2,2 Z " fill="#000000" transform="translate(110,0)"/>
<path d="M0,0 L18,0 L16,2 L5,2 L0,1 Z " fill="#000000" transform="translate(139,0)"/>
<path d="M0,0 L15,0 L15,1 L2,2 Z " fill="#000000" transform="translate(162,0)"/>
<path d="M0,0 L9,0 L8,2 L1,2 Z " fill="#000000" transform="translate(187,0)"/>
<path d="M0,0 L6,0 L6,1 L0,1 Z " fill="#000000" transform="translate(213,0)"/>
<path d="M0,0 L5,0 L5,1 L0,1 Z " fill="#000000" transform="translate(224,0)"/>
<path d="M0,0 L6,0 L5,2 L0,1 Z " fill="#000000" transform="translate(258,0)"/>
<path d="M0,0 L24,0 L23,2 L2,2 Z " fill="#000000" transform="translate(278,0)"/>
<path d="M0,0 L78,0 L76,2 L61,2 L56,3 L5,3 L0,1 Z " fill="#000000" transform="translate(305,0)"/>
<path d="M0,0 L742,0 L742,1116 L729,1116 L731,1103 L731,1062 L732,1044 L732,971 L733,938 L733,893 L734,859 L734,834 L735,821 L735,712 L734,695 L735,626 L735,485 L736,455 L736,442 L735,438 L735,417 L736,362 L735,323 L736,300 L736,260 L737,250 L737,219 L738,216 L738,28 L736,7 L734,5 L692,4 L391,4 L375,5 L345,4 L299,4 L222,3 L21,3 L3,2 Z " fill="#000000" transform="translate(386,0)"/>
<path d="M0,0 L117,0 L125,1 L137,0 L173,1 L181,5 L187,14 L188,35 L187,68 L183,76 L177,81 L165,83 L137,84 L76,83 L12,83 L-5,81 L-12,77 L-15,70 L-18,60 L-18,36 L-17,13 L-11,5 L-3,1 Z M18,14 L13,18 L14,23 L18,25 L23,22 L25,20 L24,15 Z M62,18 L59,22 L60,27 L63,29 L68,29 L70,26 L69,21 L66,18 Z M166,24 L164,28 L165,37 L169,38 L172,29 L170,24 Z M114,27 L113,28 L114,35 L117,50 L123,54 L131,56 L133,55 L132,47 L131,45 L130,33 L128,28 L126,27 Z M74,45 L70,48 L71,52 L76,51 L76,46 Z " fill="#000000" transform="translate(473,354)"/>
<path d="M0,0 L25,1 L122,2 L170,3 L200,4 L214,8 L222,12 L232,20 L239,30 L245,41 L249,52 L259,73 L264,85 L276,113 L285,134 L300,167 L305,177 L313,189 L324,204 L332,216 L338,224 L342,231 L347,241 L350,256 L351,267 L351,337 L350,362 L346,373 L340,385 L336,390 L327,396 L315,401 L300,404 L275,403 L230,403 L181,401 L10,401 L-35,400 L-53,401 L-220,401 L-237,402 L-263,401 L-318,401 L-328,399 L-337,396 L-347,389 L-356,380 L-362,370 L-364,364 L-365,357 L-365,318 L-364,270 L-364,248 L-360,235 L-356,227 L-350,219 L-343,211 L-338,207 L-330,195 L-320,184 L-314,176 L-307,166 L-302,156 L-298,144 L-292,131 L-286,115 L-278,95 L-267,69 L-261,51 L-256,38 L-249,25 L-238,13 L-228,7 L-215,3 L-204,1 L-6,1 Z M-81,25 L-104,26 L-159,26 L-185,27 L-193,26 L-213,28 L-225,34 L-229,39 L-235,48 L-245,74 L-250,85 L-253,92 L-257,105 L-262,115 L-267,128 L-272,142 L-277,156 L-277,164 L-273,167 L-265,168 L-205,169 L103,169 L151,170 L174,170 L176,171 L252,171 L262,170 L268,166 L269,165 L268,155 L261,137 L256,123 L250,110 L242,94 L226,56 L218,40 L213,34 L203,28 L200,27 L147,27 L141,26 L66,26 L17,25 L-27,25 L-43,26 L-62,25 Z M-279,225 L-290,226 L-304,234 L-308,236 L-316,247 L-321,260 L-322,264 L-322,285 L-319,294 L-313,305 L-304,313 L-290,320 L-281,322 L-274,322 L-261,319 L-245,309 L-241,304 L-238,301 L-231,287 L-230,282 L-230,264 L-234,251 L-240,241 L-248,233 L-262,226 Z M250,228 L235,233 L225,242 L219,249 L213,264 L212,268 L212,289 L215,298 L222,308 L229,316 L237,321 L246,325 L269,325 L288,316 L293,311 L301,301 L305,291 L307,275 L306,265 L303,258 L297,247 L286,235 L274,230 L268,228 Z " fill="#000000" transform="translate(562,455)"/>
<path d="M0,0 L1,0 L1,6 L0,6 Z " fill="#000000" transform="translate(0,666)"/>
<path d="M0,0 L1,4 Z " fill="#000000" transform="translate(0,725)"/>
<path d="M0,0 L2,2 L2,55 L1,74 L0,74 Z " fill="#000000" transform="translate(0,752)"/>
<path d="M0,0 L2,1 L2,7 L0,8 Z " fill="#000000" transform="translate(0,852)"/>
<path d="M0,0 L38,0 L49,1 L58,5 L60,8 L60,77 L59,108 L55,119 L48,123 L40,127 L37,128 L8,129 L5,128 L-20,126 L-28,121 L-34,110 L-35,103 L-36,89 L-36,48 L-35,12 L-32,5 L-26,1 L-15,1 Z M-28,30 L-29,32 L-26,36 L-22,35 L-24,31 Z " fill="#000000" transform="translate(274,864)"/>
<path d="M0,0 L64,0 L78,2 L84,5 L87,9 L89,16 L89,99 L85,113 L78,122 L68,127 L57,127 L49,126 L34,126 L13,125 L6,122 L-1,117 L-5,110 L-7,101 L-8,81 L-8,9 L-6,4 Z " fill="#000000" transform="translate(781,869)"/>
<path d="M0,0 L1,0 L1,5 L0,5 Z " fill="#000000" transform="translate(0,878)"/>
<path d="M0,0 L2,1 L2,15 L0,16 Z " fill="#000000" transform="translate(0,897)"/>
<path d="M0,0 L2,2 L2,40 L0,42 Z " fill="#000000" transform="translate(0,926)"/>
<path d="M0,0 L1,0 L1,11 L0,11 Z " fill="#000000" transform="translate(0,985)"/>
<path d="M0,0 Z " fill="#000000" transform="translate(0,1003)"/>
<path d="M0,0 Z " fill="#000000" transform="translate(0,1015)"/>
<path d="M0,0 Z " fill="#000000" transform="translate(0,1024)"/>
<path d="M0,0 L3,3 L5,6 L149,7 L154,9 L154,10 L0,10 Z " fill="#000000" transform="translate(0,1106)"/>
<path d="M0,0 L59,0 L76,1 L86,0 L117,0 L160,1 L166,2 L166,3 L-5,3 L-4,1 Z " fill="#000000" transform="translate(161,1113)"/>
<path d="M0,0 L111,0 L115,2 L-1,2 Z " fill="#000000" transform="translate(329,1114)"/>
<path d="M0,0 L9,1 L9,2 L-3,2 Z " fill="#000000" transform="translate(454,1114)"/>
<path d="M0,0 L4,1 L4,2 L-3,2 Z " fill="#000000" transform="translate(473,1114)"/>
<path d="M0,0 L7,1 L7,2 L-2,2 Z " fill="#000000" transform="translate(512,1114)"/>
<path d="M0,0 L5,0 L5,1 L0,1 Z " fill="#000000" transform="translate(488,1115)"/>
</svg>
