<?xml version="1.0" encoding="UTF-8"?>
<!-- Generator: visioncortex VTracer 0.6.12 -->
<svg version="1.1" xmlns="http://www.w3.org/2000/svg" width="1101" height="420">
<path d="M0,0 L7,0 L12,4 L13,8 L14,30 L12,37 L6,40 L-3,37 L-4,35 L-5,23 L-4,4 Z " fill="#000000" transform="translate(439,36)"/>
<path d="M0,0 L5,2 L15,11 L24,20 L29,26 L38,33 L43,38 L59,54 L64,59 L72,67 L74,68 L74,70 L76,70 L80,75 L80,77 L84,79 L93,89 L94,95 L89,98 L66,99 L58,95 L50,89 L43,81 L36,75 L29,67 L21,59 L13,52 L2,41 L-3,37 L-10,29 L-17,22 L-17,16 L-2,1 Z " fill="#000000" transform="translate(777,66)"/>
<path d="M0,0 L6,1 L10,5 L10,7 L14,9 L19,15 L20,22 L17,27 L9,36 L4,40 L-1,47 L-7,52 L-14,60 L-21,67 L-27,74 L-35,81 L-39,86 L-44,88 L-46,93 L-51,99 L-58,104 L-62,105 L-90,105 L-97,106 L-124,106 L-127,105 L-128,101 L-125,96 L-115,87 L-106,81 L-93,70 L-85,64 L-74,57 L-67,50 L-57,43 L-47,35 L-41,31 L-30,22 L-19,15 L-8,5 Z M-6,15 L-8,20 L-6,24 L-1,23 L-1,16 Z " fill="#000000" transform="translate(415,72)"/>
<path d="M0,0 L36,0 L44,6 L49,10 L54,15 L62,23 L70,30 L75,35 L99,59 L104,64 L110,70 L111,76 L108,79 L106,80 L77,80 L50,81 L34,82 L13,82 L-5,83 L-45,83 L-53,84 L-103,84 L-107,76 L-108,63 L-108,33 L-107,10 L-103,4 L-100,3 L-47,2 L-40,1 L-20,1 Z " fill="#000000" transform="translate(693,87)"/>
<path d="M0,0 L17,1 L20,5 L22,17 L23,54 L23,76 L21,80 L11,82 L-7,82 L-57,83 L-79,84 L-98,84 L-110,85 L-135,85 L-142,86 L-152,86 L-158,83 L-157,76 L-149,69 L-142,61 L-137,56 L-130,49 L-125,43 L-123,43 L-121,39 L-117,37 L-115,33 L-110,28 L-107,25 L-103,18 L-95,11 L-87,4 L-85,3 L-76,2 L-45,1 L-3,1 Z " fill="#000000" transform="translate(547,91)"/>
<path d="M0,0 L14,1 L24,6 L27,9 L31,23 L32,77 L32,116 L27,129 L19,135 L4,138 L-34,138 L-71,139 L-92,140 L-111,140 L-115,136 L-116,110 L-118,102 L-124,84 L-131,74 L-131,72 L-134,71 L-141,62 L-153,53 L-162,48 L-165,46 L-187,41 L-199,41 L-220,43 L-230,46 L-245,54 L-255,61 L-264,70 L-275,85 L-279,93 L-283,108 L-285,117 L-285,142 L-289,145 L-295,146 L-340,147 L-371,147 L-401,148 L-413,148 L-419,149 L-439,149 L-468,150 L-494,150 L-539,152 L-580,153 L-600,154 L-655,154 L-699,156 L-710,157 L-756,158 L-760,155 L-761,152 L-761,138 L-765,114 L-770,104 L-778,89 L-783,84 L-791,76 L-804,68 L-816,63 L-825,60 L-832,58 L-854,58 L-863,61 L-871,62 L-874,64 L-883,67 L-899,77 L-911,89 L-919,99 L-927,117 L-930,131 L-930,155 L-932,161 L-960,163 L-973,163 L-982,162 L-990,158 L-995,151 L-997,142 L-998,130 L-999,73 L-999,43 L-996,35 L-989,29 L-982,26 L-950,24 L-926,24 L-890,23 L-815,21 L-803,20 L-741,19 L-728,19 L-725,18 L-676,17 L-655,17 L-645,16 L-561,14 L-511,14 L-502,12 L-454,12 L-420,10 L-389,10 L-366,9 L-331,9 L-310,8 L-294,7 L-267,7 L-249,6 L-221,6 L-203,5 L-185,5 L-183,4 L-177,4 L-171,5 L-145,4 L-100,3 L-75,2 L-57,2 Z " fill="#000000" transform="translate(1035,176)"/>
<path d="M0,0 L19,0 L40,7 L44,9 L44,11 L50,13 L56,18 L64,29 L70,38 L73,44 L77,62 L77,75 L72,96 L64,110 L56,120 L47,127 L41,130 L29,136 L12,140 L-10,137 L-21,133 L-38,123 L-45,115 L-55,101 L-60,86 L-61,70 L-59,55 L-56,45 L-49,31 L-40,20 L-26,9 L-10,3 Z " fill="#000000" transform="translate(827,230)"/>
<path d="M0,0 L28,2 L47,12 L53,17 L58,22 L66,33 L70,38 L74,49 L76,61 L76,79 L70,100 L64,110 L53,123 L48,127 L36,134 L19,139 L17,140 L0,140 L-16,137 L-24,134 L-38,124 L-45,115 L-50,110 L-59,93 L-63,74 L-61,55 L-57,42 L-51,31 L-40,18 L-31,11 L-21,5 L-7,1 Z " fill="#000000" transform="translate(182,247)"/>
</svg>
