<?xml version="1.0" encoding="UTF-8"?>
<!-- Generator: visioncortex VTracer 0.6.12 -->
<svg version="1.1" xmlns="http://www.w3.org/2000/svg" width="1161" height="1236">
<path d="M0,0 L36,0 L40,4 L39,10 L38,12 L37,30 L37,106 L38,190 L38,209 L39,266 L39,287 L40,300 L39,302 L40,495 L40,530 L41,584 L41,608 L42,637 L42,681 L43,771 L43,840 L45,905 L45,926 L46,1010 L48,1094 L49,1135 L51,1141 L51,1148 L45,1152 L-19,1153 L-42,1153 L-75,1154 L-157,1155 L-174,1155 L-222,1156 L-254,1156 L-274,1157 L-317,1157 L-338,1158 L-374,1158 L-437,1159 L-456,1159 L-475,1160 L-537,1160 L-554,1161 L-578,1161 L-703,1163 L-713,1164 L-721,1163 L-868,1165 L-915,1165 L-942,1166 L-950,1165 L-963,1166 L-999,1166 L-1024,1167 L-1074,1167 L-1074,1155 L-965,1153 L-914,1153 L-904,1152 L-854,1152 L-808,1151 L-713,1150 L-678,1150 L-668,1149 L-550,1148 L-440,1146 L-360,1145 L-339,1145 L-329,1144 L-318,1145 L-293,1144 L-271,1144 L-252,1143 L-93,1141 L-78,1141 L-55,1140 L-32,1140 L31,1139 L33,1136 L34,1131 L33,1017 L32,958 L32,926 L30,852 L29,749 L29,713 L27,599 L27,566 L26,496 L26,283 L25,269 L25,211 L24,192 L24,117 L23,29 L22,17 L20,13 L1,13 L-39,15 L-57,15 L-116,16 L-147,17 L-180,18 L-249,19 L-284,20 L-308,21 L-381,22 L-398,22 L-433,23 L-454,24 L-473,24 L-529,25 L-547,25 L-576,26 L-590,27 L-610,27 L-703,28 L-720,28 L-774,29 L-833,29 L-843,30 L-913,30 L-958,31 L-964,32 L-966,31 L-1005,31 L-1025,32 L-1074,32 L-1074,21 L-978,19 L-960,19 L-931,18 L-894,18 L-845,17 L-788,17 L-718,16 L-672,15 L-600,14 L-578,14 L-561,13 L-446,11 L-394,9 L-361,9 L-347,8 L-292,8 L-248,6 L-207,6 L-176,5 L-161,4 L-154,3 L-114,3 L-70,2 L-33,1 Z " fill="#000000" transform="translate(1074,36)"/>
<path d="M0,0 L48,0 L63,2 L77,8 L91,18 L100,28 L107,38 L112,48 L115,61 L115,88 L111,103 L107,113 L129,116 L137,118 L148,119 L161,123 L174,126 L197,134 L212,142 L221,150 L228,158 L237,175 L241,187 L247,206 L253,226 L255,235 L260,253 L265,268 L269,285 L273,300 L278,318 L282,329 L286,338 L291,341 L299,345 L310,353 L322,366 L330,382 L335,394 L340,412 L343,437 L345,470 L346,476 L347,492 L346,529 L345,557 L343,572 L341,588 L339,597 L335,606 L326,623 L317,635 L309,641 L302,645 L293,646 L248,647 L170,648 L116,649 L83,650 L10,651 L-30,652 L-64,653 L-131,654 L-184,655 L-253,656 L-301,657 L-357,658 L-378,659 L-420,659 L-433,654 L-440,648 L-446,637 L-450,627 L-455,613 L-461,588 L-464,573 L-465,558 L-468,541 L-469,532 L-469,491 L-468,473 L-467,440 L-466,424 L-463,411 L-459,400 L-449,382 L-438,370 L-429,361 L-426,358 L-420,339 L-415,318 L-409,293 L-405,279 L-400,258 L-396,243 L-394,233 L-388,213 L-382,197 L-377,185 L-367,169 L-358,159 L-354,157 L-353,154 L-340,146 L-328,140 L-312,135 L-296,130 L-288,128 L-253,123 L-242,121 L-241,117 L-248,100 L-251,83 L-251,73 L-248,58 L-242,46 L-232,31 L-223,22 L-208,13 L-190,6 L-155,4 L-136,3 L-122,2 L-52,1 L-33,1 Z M18,23 L8,24 L-32,25 L-81,25 L-107,26 L-118,26 L-132,27 L-155,27 L-182,29 L-198,35 L-207,41 L-215,49 L-223,63 L-225,72 L-225,87 L-223,95 L-219,104 L-212,113 L-204,120 L-188,128 L-168,129 L-145,129 L-69,128 L-31,127 L-4,127 L10,126 L37,125 L44,124 L54,122 L68,116 L77,109 L85,98 L90,85 L91,67 L88,55 L80,42 L75,37 L65,29 L57,26 L37,24 Z M130,165 L97,166 L22,167 L-60,169 L-81,169 L-123,170 L-158,170 L-205,171 L-236,171 L-285,172 L-310,173 L-325,177 L-333,181 L-340,186 L-348,197 L-353,207 L-361,227 L-365,240 L-371,265 L-374,277 L-376,288 L-380,304 L-382,316 L-386,333 L-386,344 L-381,345 L-363,344 L-305,343 L-290,343 L-282,342 L-236,342 L-207,341 L-183,341 L-139,340 L-85,340 L-74,339 L10,337 L80,335 L132,334 L167,333 L203,333 L220,332 L242,332 L246,329 L246,318 L240,293 L232,267 L225,241 L221,228 L217,211 L209,192 L204,183 L194,173 L183,167 L171,165 Z M233,378 L216,383 L203,391 L198,396 L191,404 L187,410 L184,414 L178,430 L177,446 L179,459 L185,475 L192,485 L203,496 L213,502 L220,505 L241,509 L256,507 L271,502 L281,496 L291,487 L297,480 L304,468 L307,460 L309,448 L309,433 L306,421 L300,410 L293,399 L288,393 L280,387 L273,383 L265,380 L252,378 Z M-379,388 L-391,391 L-407,399 L-415,406 L-423,415 L-429,427 L-433,436 L-435,447 L-435,461 L-433,471 L-428,484 L-422,492 L-416,500 L-409,507 L-393,515 L-385,518 L-355,518 L-350,516 L-341,514 L-331,507 L-320,499 L-308,482 L-304,471 L-301,455 L-302,437 L-306,426 L-316,411 L-329,398 L-339,392 L-357,388 Z M75,445 L-55,447 L-87,448 L-179,449 L-228,450 L-249,451 L-254,454 L-256,460 L-256,482 L-254,485 L-151,485 L-98,484 L-67,483 L5,482 L87,480 L118,480 L131,479 L134,476 L136,463 L136,455 L135,448 L132,445 Z M110,495 L99,496 L3,497 L-51,499 L-87,499 L-130,500 L-189,501 L-216,501 L-241,502 L-253,503 L-255,507 L-255,525 L-254,532 L-252,534 L-244,535 L-176,535 L-140,534 L-93,534 L-80,533 L-46,533 L-26,532 L0,532 L11,531 L29,531 L95,530 L127,530 L134,527 L136,525 L136,499 L134,496 Z M109,547 L32,548 L21,548 L7,549 L-25,550 L-49,550 L-92,551 L-150,552 L-165,552 L-249,554 L-252,558 L-254,567 L-254,582 L-252,589 L-249,591 L-153,591 L-75,590 L-57,589 L-17,588 L7,588 L62,587 L128,585 L135,583 L137,580 L138,574 L137,551 L135,548 Z " fill="#000000" transform="translate(614,352)"/>
<path d="M0,0 L4,1 L5,5 L-1,16 L-7,26 L-8,32 L-1,46 L6,56 L5,61 L-6,61 L-12,54 L-15,50 L-15,48 L-22,49 L-28,59 L-33,62 L-40,62 L-43,60 L-42,54 L-38,47 L-31,35 L-30,30 L-34,22 L-41,11 L-44,7 L-43,1 L-32,1 L-27,6 L-22,13 L-18,14 L-8,1 Z " fill="#000000" transform="translate(608,398)"/>
<path d="M0,0 L7,2 L8,4 L10,58 L7,61 L-3,61 L-5,57 L-5,4 L-3,1 Z " fill="#000000" transform="translate(641,398)"/>
<path d="M0,0 L22,0 L26,3 L26,10 L23,13 L12,14 L7,17 L6,60 L4,63 L-5,63 L-8,58 L-9,28 L-10,16 L-13,14 L-26,14 L-29,11 L-29,4 L-26,1 Z " fill="#000000" transform="translate(462,399)"/>
<path d="M0,0 L7,2 L10,5 L15,16 L21,32 L29,52 L31,59 L29,61 L21,61 L15,54 L13,51 L8,50 L-7,51 L-11,55 L-16,62 L-20,63 L-25,61 L-26,55 L-16,25 L-8,5 L-4,1 Z M0,24 L-3,28 L-4,34 L-2,37 L4,37 L6,36 L6,28 L3,24 Z " fill="#000000" transform="translate(519,399)"/>
<path d="M0,0 L14,0 L18,3 L20,16 L20,63 L17,73 L13,77 L7,79 L-49,80 L-69,80 L-74,77 L-78,72 L-80,61 L-80,44 L-81,20 L-80,5 L-79,3 L-75,2 Z " fill="#000000" transform="translate(893,1009)"/>
<path d="M0,0 L60,0 L63,4 L65,57 L65,65 L60,73 L54,78 L46,80 L27,81 L-20,81 L-29,76 L-33,72 L-36,60 L-37,43 L-37,4 L-35,2 Z " fill="#000000" transform="translate(234,1020)"/>
</svg>
