<?xml version="1.0" encoding="UTF-8"?>
<!-- Generator: visioncortex VTracer 0.6.12 -->
<svg version="1.1" xmlns="http://www.w3.org/2000/svg" width="1041" height="1011">
<path d="M0,0 L794,0 L806,6 L817,12 L832,23 L838,28 L846,35 L852,39 L856,45 L867,57 L871,63 L874,67 L882,83 L886,93 L891,107 L894,113 L897,133 L899,152 L900,165 L900,267 L901,270 L901,326 L902,342 L902,387 L903,428 L903,454 L904,459 L903,475 L903,527 L904,550 L903,569 L904,589 L904,656 L905,667 L905,724 L906,749 L906,807 L907,813 L907,824 L906,830 L907,838 L906,866 L904,881 L900,892 L895,906 L892,913 L882,935 L877,941 L874,946 L865,956 L860,963 L855,968 L847,975 L842,980 L837,983 L829,988 L819,995 L804,1002 L797,1005 L788,1008 L781,1009 L779,1011 L-18,1011 L-18,1009 L-24,1008 L-33,1004 L-50,995 L-58,989 L-69,981 L-78,973 L-83,969 L-90,961 L-98,950 L-104,943 L-111,931 L-119,914 L-125,895 L-126,885 L-128,885 L-128,111 L-126,111 L-124,102 L-119,89 L-114,83 L-108,72 L-100,62 L-93,54 L-88,49 L-83,44 L-74,36 L-66,29 L-57,23 L-42,15 L-28,9 L-13,4 L-12,3 L-1,2 Z M-2,18 L-3,23 L1,24 L2,19 Z M705,16 L673,17 L663,17 L657,18 L654,17 L640,17 L634,18 L615,17 L607,18 L571,18 L563,17 L546,18 L487,18 L485,19 L446,19 L438,20 L431,19 L424,20 L347,20 L328,21 L321,20 L311,21 L291,21 L272,22 L259,21 L242,21 L234,23 L218,22 L207,22 L200,21 L181,23 L175,23 L168,21 L156,23 L144,23 L142,24 L119,23 L98,24 L92,25 L89,24 L74,24 L68,23 L61,25 L42,25 L35,24 L26,26 L12,27 L-7,30 L-24,37 L-36,43 L-46,50 L-56,57 L-63,63 L-68,68 L-73,73 L-81,83 L-89,94 L-97,110 L-101,118 L-106,135 L-110,157 L-110,384 L-109,403 L-109,430 L-108,461 L-108,480 L-107,532 L-107,617 L-106,621 L-106,641 L-105,660 L-105,703 L-104,784 L-104,805 L-103,836 L-101,872 L-97,890 L-92,904 L-89,912 L-86,916 L-80,927 L-74,936 L-65,946 L-55,956 L-47,963 L-34,972 L-25,977 L-10,984 L3,988 L12,990 L41,993 L60,993 L101,992 L128,992 L130,993 L137,993 L139,992 L210,992 L213,991 L264,991 L276,990 L294,990 L309,991 L357,991 L461,990 L647,990 L661,989 L711,989 L723,988 L750,987 L755,984 L763,984 L783,978 L796,973 L812,965 L825,955 L832,950 L837,945 L847,934 L853,926 L862,912 L870,893 L874,882 L878,856 L878,828 L877,750 L877,725 L876,719 L877,698 L877,676 L876,668 L876,650 L875,614 L876,600 L875,579 L875,521 L874,493 L874,419 L873,370 L873,323 L872,303 L872,265 L873,259 L872,256 L872,214 L871,187 L871,154 L870,139 L867,130 L864,115 L859,100 L849,82 L840,70 L835,64 L831,59 L826,55 L821,50 L810,42 L803,37 L795,33 L783,26 L772,22 L752,18 L749,16 L742,16 L735,17 L718,17 Z " fill="#000000" transform="translate(128,0)"/>
<path d="M0,0 L16,0 L20,3 L21,23 L19,29 L16,33 L16,38 L17,39 L32,41 L38,45 L51,59 L55,65 L63,73 L70,81 L78,92 L83,97 L91,107 L98,114 L105,122 L114,132 L126,145 L129,147 L237,147 L242,146 L252,147 L268,147 L273,152 L275,160 L275,177 L271,188 L267,198 L266,209 L264,214 L260,240 L255,248 L246,252 L196,252 L191,253 L173,253 L169,257 L165,270 L162,279 L156,290 L146,301 L135,308 L123,313 L114,315 L106,315 L100,316 L84,312 L74,308 L64,301 L56,292 L53,290 L49,282 L44,272 L42,261 L38,255 L37,254 L-49,254 L-77,255 L-151,255 L-169,256 L-176,259 L-179,267 L-183,280 L-192,296 L-199,302 L-201,302 L-203,306 L-216,314 L-227,317 L-244,319 L-254,318 L-269,313 L-278,307 L-288,298 L-295,290 L-298,285 L-304,267 L-307,260 L-309,258 L-336,258 L-351,257 L-357,258 L-369,259 L-374,258 L-397,258 L-409,250 L-412,242 L-413,233 L-413,171 L-411,164 L-405,157 L-396,153 L-361,153 L-314,151 L-295,152 L-287,149 L-282,144 L-276,135 L-270,125 L-262,112 L-256,102 L-251,95 L-248,88 L-240,77 L-232,64 L-225,52 L-214,45 L-210,43 L-169,43 L-126,42 L-118,43 L-113,42 L-100,43 L-97,42 L-60,41 L-47,42 L-30,41 L-20,41 L-14,40 L-1,40 L3,38 L4,33 L-1,28 L-2,24 L-2,2 Z M-24,60 L-30,61 L-39,61 L-45,65 L-48,71 L-49,83 L-49,119 L-48,134 L-45,144 L-41,147 L-36,149 L39,149 L46,148 L61,149 L76,148 L84,148 L92,144 L91,140 L81,126 L75,119 L72,113 L64,106 L57,98 L51,89 L43,81 L36,73 L27,64 L22,61 L12,60 Z M-122,60 L-128,61 L-181,61 L-184,63 L-192,64 L-199,72 L-204,87 L-210,104 L-212,117 L-216,133 L-217,137 L-217,148 L-214,150 L-199,151 L-146,151 L-128,150 L-87,150 L-75,147 L-68,141 L-67,139 L-67,70 L-72,64 L-83,60 L-112,61 Z M99,221 L91,223 L81,228 L75,236 L71,250 L71,260 L78,274 L87,281 L97,286 L109,286 L117,283 L125,280 L134,270 L138,257 L138,250 L134,239 L129,231 L118,222 L113,221 Z M-245,223 L-255,226 L-265,233 L-271,241 L-274,248 L-274,266 L-270,276 L-265,280 L-260,285 L-252,289 L-239,290 L-227,287 L-217,280 L-211,272 L-208,264 L-207,254 L-210,245 L-214,237 L-222,230 L-229,226 L-239,223 Z " fill="#000000" transform="translate(580,338)"/>
</svg>
