<?xml version="1.0" encoding="UTF-8"?>
<!-- Generator: visioncortex VTracer 0.6.12 -->
<svg version="1.1" xmlns="http://www.w3.org/2000/svg" width="3432" height="1440">
<path d="M0,0 L6,0 L11,1 L29,1 L32,0 L39,0 L43,1 L45,0 L1477,0 L1477,42 L1469,43 L1423,43 L1361,44 L1280,45 L1139,46 L1068,47 L854,49 L822,49 L774,50 L746,50 L703,51 L652,51 L506,52 L356,53 L326,54 L257,54 L164,55 L94,55 L86,56 L-5,57 L-45,57 L-133,58 L-180,58 L-185,59 L-205,59 L-294,60 L-351,60 L-413,61 L-464,61 L-509,62 L-558,62 L-677,63 L-723,64 L-840,65 L-873,65 L-886,66 L-952,66 L-965,67 L-1063,67 L-1068,70 L-1074,70 L-1080,68 L-1128,68 L-1225,69 L-1373,70 L-1428,70 L-1447,71 L-1604,72 L-1638,72 L-1720,73 L-1794,74 L-1852,75 L-1955,76 L-1955,21 L-1863,20 L-1836,20 L-1768,19 L-1682,18 L-1675,17 L-1569,17 L-1385,15 L-1357,15 L-1266,14 L-1221,14 L-1218,13 L-1135,13 L-1124,12 L-1020,12 L-845,10 L-790,10 L-766,9 L-745,9 L-681,8 L-591,8 L-567,7 L-543,7 L-453,6 L-438,6 L-437,5 L-298,5 L-266,4 L-251,3 L-225,4 L-183,3 L-154,3 L-53,2 L0,2 Z " fill="#000000" transform="translate(1955,0)"/>
<path d="M0,0 L2,0 L2,2 L0,2 Z " fill="#000000" transform="translate(3268,52)"/>
<path d="M0,0 L23,0 L45,3 L60,7 L81,16 L91,23 L97,27 L106,35 L109,40 L114,45 L118,50 L121,56 L124,60 L134,85 L141,112 L143,132 L144,148 L145,150 L146,217 L146,413 L147,557 L147,608 L148,722 L149,784 L149,900 L147,920 L144,935 L139,948 L129,965 L119,978 L104,993 L93,1000 L76,1011 L58,1019 L49,1022 L39,1025 L31,1025 L12,1027 L-18,1027 L-23,1024 L-23,1020 L-21,1019 L-1,1018 L13,1018 L29,1015 L44,1013 L59,1008 L79,998 L89,992 L97,985 L105,978 L114,967 L123,955 L129,945 L135,927 L138,913 L140,894 L140,818 L139,768 L139,714 L138,604 L136,343 L136,207 L135,163 L134,143 L130,109 L126,94 L120,75 L113,61 L103,46 L94,37 L84,29 L73,23 L65,19 L47,14 L37,12 L12,10 L-54,10 L-98,11 L-194,12 L-232,12 L-281,13 L-555,14 L-685,15 L-753,16 L-772,17 L-788,21 L-796,23 L-817,34 L-825,39 L-830,44 L-835,49 L-846,61 L-852,70 L-860,83 L-863,88 L-866,103 L-868,115 L-870,144 L-870,316 L-869,365 L-869,389 L-868,526 L-868,557 L-867,692 L-867,912 L-865,928 L-861,943 L-858,954 L-848,970 L-839,983 L-831,991 L-819,1000 L-809,1007 L-802,1011 L-789,1015 L-773,1018 L-771,1019 L-748,1022 L-717,1023 L-613,1023 L-460,1022 L-398,1022 L-344,1021 L-305,1021 L-242,1020 L-220,1020 L-148,1019 L-85,1019 L-80,1020 L-78,1019 L-56,1018 L-31,1018 L-28,1020 L-28,1023 L-37,1027 L-111,1028 L-136,1028 L-207,1029 L-250,1029 L-349,1030 L-401,1030 L-471,1031 L-530,1031 L-585,1032 L-701,1032 L-750,1031 L-772,1028 L-788,1025 L-807,1019 L-817,1014 L-826,1007 L-843,993 L-852,982 L-860,970 L-864,963 L-869,953 L-873,937 L-876,921 L-877,799 L-877,617 L-878,480 L-878,391 L-879,360 L-879,340 L-880,271 L-879,254 L-879,128 L-876,102 L-871,85 L-866,74 L-862,66 L-855,56 L-846,45 L-838,38 L-828,30 L-812,20 L-800,14 L-777,8 L-773,7 L-760,6 L-682,5 L-624,5 L-528,4 L-516,4 L-497,3 L-472,4 L-460,4 L-442,5 L-376,4 L-297,3 L-252,3 L-136,2 L-76,1 L-33,1 Z " fill="#000000" transform="translate(1016,165)"/>
<path d="M0,0 L29,0 L60,2 L75,4 L95,7 L103,9 L115,11 L145,19 L165,26 L175,30 L183,35 L190,39 L202,50 L211,66 L215,81 L219,104 L225,150 L230,187 L237,235 L238,244 L238,457 L237,464 L233,466 L220,466 L205,467 L202,469 L201,472 L200,500 L199,509 L192,521 L187,525 L174,531 L162,531 L151,527 L143,521 L137,510 L136,505 L134,469 L129,467 L18,467 L-32,468 L-55,468 L-105,469 L-109,472 L-110,494 L-110,502 L-113,515 L-119,524 L-130,531 L-138,533 L-146,533 L-157,529 L-163,525 L-169,518 L-173,508 L-175,473 L-179,469 L-206,469 L-211,466 L-212,449 L-212,362 L-213,280 L-212,252 L-210,229 L-208,214 L-206,194 L-197,114 L-193,85 L-189,67 L-183,58 L-176,48 L-166,40 L-156,34 L-142,28 L-122,21 L-107,17 L-104,15 L-80,10 L-70,8 L-51,5 L-40,3 Z M56,39 L3,40 L-52,40 L-84,41 L-90,43 L-97,51 L-96,62 L-91,67 L-88,69 L-83,70 L-22,70 L90,69 L105,68 L112,65 L116,60 L117,57 L117,49 L114,43 L106,39 Z M114,92 L18,93 L-21,93 L-103,94 L-140,95 L-149,98 L-155,102 L-161,112 L-164,136 L-166,148 L-171,198 L-174,221 L-175,234 L-175,248 L-171,256 L-164,261 L-161,262 L-27,262 L65,261 L93,261 L183,260 L192,256 L198,249 L199,246 L199,231 L194,200 L189,161 L186,142 L182,113 L178,103 L172,96 L166,93 L160,92 Z M165,334 L154,337 L145,343 L138,353 L136,360 L136,370 L139,381 L146,389 L160,396 L172,396 L186,391 L191,386 L197,378 L200,368 L199,358 L197,351 L188,340 L178,335 L174,334 Z M-148,336 L-164,344 L-169,350 L-173,359 L-174,372 L-169,384 L-164,389 L-154,396 L-151,397 L-135,397 L-125,393 L-117,386 L-112,379 L-111,373 L-111,359 L-116,349 L-125,340 L-135,336 Z M-57,395 L-59,398 L-55,401 L-52,400 L-54,396 Z " fill="#000000" transform="translate(853,465)"/>
<path d="M0,0 L60,0 L67,3 L70,10 L71,15 L72,29 L74,34 L76,35 L113,35 L128,36 L140,39 L150,46 L158,53 L165,65 L175,89 L181,105 L189,125 L195,140 L200,149 L204,152 L215,156 L224,163 L231,171 L237,183 L238,187 L239,200 L239,288 L238,301 L236,303 L232,304 L209,305 L206,308 L205,317 L204,341 L201,352 L195,361 L190,365 L182,368 L169,369 L159,365 L151,359 L146,352 L144,345 L143,333 L143,318 L142,306 L139,305 L100,304 L6,304 L-40,305 L-69,305 L-80,307 L-81,316 L-82,344 L-86,355 L-92,363 L-104,369 L-119,369 L-131,364 L-140,353 L-143,340 L-144,310 L-145,307 L-147,306 L-173,305 L-177,302 L-178,200 L-176,188 L-173,177 L-167,168 L-158,159 L-143,151 L-138,142 L-132,128 L-121,103 L-115,88 L-108,71 L-102,59 L-95,50 L-85,42 L-75,38 L-63,36 L-16,35 L-13,33 L-12,28 L-11,10 L-7,3 Z M44,65 L-54,66 L-65,67 L-73,71 L-78,77 L-82,84 L-85,93 L-97,122 L-104,139 L-106,147 L-103,150 L-88,151 L95,151 L161,150 L164,148 L163,141 L156,121 L152,112 L149,103 L142,86 L137,74 L132,69 L127,66 L119,65 Z M-113,181 L-123,183 L-133,189 L-139,196 L-142,205 L-142,218 L-139,226 L-133,233 L-125,238 L-118,240 L-107,240 L-97,236 L-91,232 L-86,226 L-83,218 L-82,207 L-85,197 L-92,188 L-106,181 Z M166,181 L152,188 L146,196 L143,203 L143,217 L146,225 L153,233 L159,237 L164,239 L177,240 L188,237 L198,228 L203,218 L204,208 L201,196 L193,187 L182,181 Z " fill="#000000" transform="translate(384,630)"/>
<path d="M0,0 L3,0 L2,3 L0,3 Z " fill="#000000" transform="translate(2749,1081)"/>
<path d="M0,0 L5,1 L6,2 L8,15 L9,49 L11,51 L18,54 L19,60 L16,63 L10,66 L9,81 L6,83 L0,83 L-3,80 L-4,65 L-5,64 L-36,64 L-37,63 L-37,53 L-33,46 L-26,37 L-12,15 L-5,4 Z M-7,26 L-13,35 L-20,45 L-22,49 L-21,53 L-20,54 L-7,54 L-3,51 L-3,27 Z " fill="#000000" transform="translate(564,1239)"/>
<path d="M0,0 L7,0 L10,2 L11,5 L11,20 L5,30 L3,32 L-2,31 L-3,26 L1,21 L1,15 L-3,10 L-2,2 Z " fill="#000000" transform="translate(442,1241)"/>
<path d="M0,0 L18,0 L30,6 L38,13 L44,24 L46,30 L47,37 L47,50 L43,64 L35,75 L26,81 L21,84 L-1,85 L-11,81 L-19,74 L-25,67 L-29,58 L-30,53 L-30,33 L-28,25 L-24,17 L-17,8 L-7,2 Z M1,12 L-11,19 L-17,31 L-18,45 L-16,56 L-11,66 L-2,72 L0,73 L17,73 L24,69 L30,62 L34,51 L34,32 L30,23 L25,18 L18,13 L15,12 Z " fill="#000000" transform="translate(308,1242)"/>
<path d="M0,0 L5,0 L8,5 L7,12 L3,14 L-15,14 L-17,16 L-17,32 L-16,66 L-15,71 L-15,80 L-19,84 L-28,84 L-31,81 L-31,24 L-33,15 L-40,14 L-50,15 L-56,14 L-58,10 L-58,3 L-56,1 Z " fill="#000000" transform="translate(420,1241)"/>
<path d="M0,0 L32,0 L45,2 L56,8 L64,19 L67,28 L67,55 L62,67 L56,74 L47,80 L45,81 L32,82 L2,82 L0,78 L-1,33 L-1,16 L-2,3 Z M15,11 L12,14 L11,23 L12,45 L13,69 L15,71 L38,70 L46,66 L52,58 L54,51 L55,37 L52,25 L46,17 L43,14 L35,12 Z " fill="#000000" transform="translate(197,1243)"/>
<path d="M0,0 L22,0 L26,4 L25,13 L18,21 L9,38 L4,50 L-1,66 L-3,79 L-7,82 L-16,81 L-17,80 L-16,71 L-13,58 L-8,44 L0,28 L7,19 L7,13 L-18,15 L-25,13 L-26,12 L-26,3 L-24,1 Z " fill="#000000" transform="translate(494,1242)"/>
<path d="M0,0 L3,1 L3,3 L-1,3 Z " fill="#000000" transform="translate(3088,1326)"/>
<path d="M0,0 L57,0 L62,1 L62,55 L-116,56 L-171,56 L-245,57 L-273,57 L-338,58 L-364,58 L-515,59 L-591,60 L-618,60 L-717,61 L-847,62 L-930,63 L-957,63 L-1005,64 L-1112,64 L-1275,65 L-1321,65 L-1335,66 L-1514,66 L-1569,67 L-1602,67 L-1748,68 L-1851,69 L-1863,71 L-1865,70 L-1985,70 L-2130,72 L-2237,73 L-2276,73 L-2371,74 L-2458,75 L-2494,75 L-2548,76 L-2612,76 L-2797,77 L-2828,77 L-2951,78 L-3075,78 L-3104,79 L-3292,80 L-3370,81 L-3370,27 L-3336,25 L-3296,25 L-3204,24 L-3163,24 L-3014,23 L-2827,21 L-2609,21 L-2556,20 L-2439,20 L-2418,19 L-2387,19 L-2270,18 L-2216,18 L-2077,16 L-2017,16 L-1972,15 L-1926,15 L-1831,14 L-1802,14 L-1749,13 L-1724,13 L-1667,12 L-1570,12 L-1536,11 L-1477,11 L-1421,10 L-1410,11 L-1393,11 L-1360,10 L-1284,10 L-1160,9 L-1117,9 L-1109,8 L-1086,9 L-1028,8 L-994,8 L-923,7 L-858,7 L-819,6 L-682,6 L-628,5 L-520,4 L-490,4 L-449,3 L-444,1 L-441,3 L-423,3 L-414,2 L-410,3 L-360,3 L-349,2 L-261,2 L-136,1 L-80,1 Z " fill="#000000" transform="translate(3370,1355)"/>
</svg>
