<?xml version="1.0" encoding="UTF-8"?>
<!-- Generator: visioncortex VTracer 0.6.12 -->
<svg version="1.1" xmlns="http://www.w3.org/2000/svg" width="1128" height="1128">
<path d="M0,0 L10,0 L14,1 L15,0 L53,0 L70,2 L70,0 L510,0 L511,9 L511,36 L512,115 L513,123 L513,142 L514,193 L515,220 L516,287 L517,292 L518,318 L517,346 L518,347 L518,1113 L495,1113 L481,1114 L476,1115 L394,1115 L342,1117 L333,1118 L311,1118 L302,1119 L271,1119 L251,1120 L223,1120 L219,1121 L197,1122 L159,1122 L88,1123 L61,1124 L32,1124 L16,1125 L-5,1125 L-89,1127 L-93,1128 L-602,1128 L-604,1118 L-604,1058 L-605,1025 L-606,955 L-608,876 L-608,832 L-609,818 L-608,809 L-610,809 L-610,17 L-608,16 L-577,14 L-529,14 L-526,13 L-501,13 L-498,12 L-487,12 L-472,13 L-469,12 L-445,11 L-426,11 L-397,10 L-363,10 L-331,9 L-307,8 L-282,8 L-208,5 L-173,5 L-163,4 L-96,4 L-89,3 L-67,3 L-11,1 L-1,1 Z M-24,275 L-36,276 L-41,279 L-43,283 L-43,328 L-44,349 L-48,353 L-53,354 L-90,356 L-108,356 L-114,357 L-124,356 L-160,356 L-170,358 L-175,361 L-184,370 L-191,378 L-202,391 L-208,399 L-215,408 L-226,420 L-231,426 L-236,431 L-244,441 L-251,450 L-261,462 L-268,470 L-275,477 L-284,488 L-292,498 L-305,513 L-313,521 L-320,529 L-326,534 L-336,538 L-355,540 L-370,544 L-377,547 L-387,550 L-401,555 L-420,564 L-425,568 L-433,572 L-444,580 L-458,590 L-466,597 L-475,605 L-483,615 L-496,628 L-506,642 L-509,649 L-510,654 L-514,656 L-526,678 L-532,692 L-540,713 L-541,719 L-541,736 L-538,739 L-532,741 L-487,741 L-473,740 L-466,736 L-462,729 L-456,713 L-449,700 L-440,689 L-429,677 L-416,668 L-407,662 L-388,653 L-375,650 L-370,649 L-362,649 L-355,647 L-339,648 L-319,650 L-309,654 L-296,659 L-282,667 L-275,673 L-267,680 L-262,685 L-255,693 L-246,707 L-239,719 L-233,731 L-227,735 L-173,735 L-167,734 L-159,735 L-155,734 L-135,734 L-126,733 L-102,733 L-84,732 L-61,732 L-38,731 L7,730 L26,729 L70,729 L96,728 L112,727 L119,726 L124,722 L131,704 L135,698 L143,683 L150,674 L159,665 L164,660 L169,656 L178,650 L195,642 L206,638 L230,633 L249,634 L260,636 L276,639 L301,650 L306,654 L311,657 L316,662 L330,676 L340,690 L351,713 L355,719 L361,721 L390,721 L400,720 L419,719 L451,717 L457,712 L459,706 L459,689 L457,673 L452,650 L447,637 L443,627 L436,611 L430,601 L419,586 L412,578 L395,561 L387,554 L379,549 L368,541 L350,533 L340,528 L330,524 L322,517 L315,511 L307,500 L298,490 L293,486 L284,475 L280,471 L270,458 L261,449 L254,439 L247,433 L238,422 L229,412 L224,407 L216,397 L210,388 L194,371 L189,365 L185,360 L177,353 L170,349 L148,349 L45,353 L8,353 L3,350 L0,341 L-1,292 L-4,280 L-9,276 L-15,275 Z M227,660 L218,661 L201,667 L190,675 L179,682 L170,692 L164,700 L156,716 L150,734 L150,752 L152,771 L158,789 L165,801 L172,809 L179,817 L188,825 L201,832 L211,835 L213,836 L230,838 L246,838 L262,836 L272,832 L279,830 L288,824 L302,812 L311,802 L322,783 L325,775 L328,763 L329,743 L324,719 L316,703 L306,689 L296,680 L286,673 L276,667 L258,661 L252,660 Z M-363,674 L-376,678 L-390,685 L-400,691 L-408,698 L-416,707 L-423,717 L-430,733 L-433,743 L-435,752 L-436,755 L-436,773 L-433,789 L-429,799 L-425,807 L-421,814 L-414,823 L-404,833 L-394,839 L-388,843 L-374,847 L-365,850 L-357,851 L-347,851 L-330,849 L-314,844 L-306,840 L-297,834 L-289,827 L-282,820 L-272,805 L-266,790 L-262,774 L-262,751 L-266,733 L-270,724 L-277,712 L-286,702 L-294,693 L-299,691 L-299,689 L-316,680 L-333,675 L-339,674 Z M-314,995 L-315,1000 L-313,1004 L-309,1003 L-310,996 Z " fill="#000000" transform="translate(610,0)"/>
<path d="M0,0 L40,1 L63,4 L79,7 L90,12 L95,14 L104,16 L122,24 L133,30 L145,37 L155,43 L165,51 L178,61 L186,69 L194,76 L198,81 L201,85 L201,87 L205,89 L212,99 L222,112 L236,138 L238,143 L238,150 L234,154 L212,155 L169,156 L130,156 L89,157 L54,158 L-31,158 L-35,159 L-68,159 L-71,160 L-95,160 L-128,161 L-142,162 L-161,162 L-186,163 L-259,164 L-275,165 L-297,164 L-301,161 L-301,154 L-295,145 L-284,132 L-272,118 L-262,107 L-251,93 L-242,82 L-236,75 L-234,75 L-232,71 L-226,63 L-219,55 L-212,46 L-199,30 L-189,21 L-183,13 L-174,7 L-153,4 L-136,4 L-131,3 L-60,2 L-44,2 Z " fill="#000000" transform="translate(622,371)"/>
<path d="M0,0 L2,0 L2,2 L0,2 Z " fill="#000000" transform="translate(441,610)"/>
</svg>
