<?xml version="1.0" encoding="UTF-8"?>
<!-- Generator: visioncortex VTracer 0.6.12 -->
<svg version="1.1" xmlns="http://www.w3.org/2000/svg" width="1116" height="1122">
<path d="M0,0 L8,0 L13,3 L14,5 L14,37 L8,42 L-2,41 L-5,38 L-6,35 L-6,7 L-3,1 Z " fill="#000000" transform="translate(397,396)"/>
<path d="M0,0 L5,2 L14,9 L21,17 L39,35 L43,40 L51,47 L59,55 L65,60 L69,66 L76,71 L76,73 L80,75 L87,84 L98,95 L98,102 L95,104 L64,104 L57,100 L52,95 L40,83 L35,78 L30,72 L22,65 L21,62 L17,60 L8,52 L3,47 L-8,35 L-15,27 L-19,22 L-18,17 L-12,10 L-7,6 L-3,1 Z " fill="#000000" transform="translate(751,431)"/>
<path d="M0,0 L6,0 L20,13 L22,16 L22,24 L16,32 L8,40 L6,40 L4,44 L-3,52 L-7,57 L-13,61 L-20,69 L-38,87 L-45,95 L-58,108 L-64,110 L-103,111 L-134,111 L-137,109 L-137,104 L-132,99 L-123,92 L-109,82 L-89,68 L-78,60 L-74,56 L-65,50 L-49,37 L-39,30 L-31,24 L-13,10 L-1,1 Z " fill="#000000" transform="translate(369,434)"/>
<path d="M0,0 L6,1 L14,7 L26,18 L31,24 L42,33 L49,41 L54,47 L62,54 L69,60 L76,68 L84,77 L83,84 L80,86 L59,86 L40,87 L20,87 L-6,88 L-38,88 L-90,89 L-140,89 L-144,87 L-146,83 L-146,11 L-143,5 L-141,3 L-91,2 L-67,2 L-51,1 L-27,1 Z " fill="#000000" transform="translate(695,452)"/>
<path d="M0,0 L22,0 L27,5 L28,8 L28,32 L29,62 L29,76 L27,84 L23,87 L0,87 L-125,89 L-157,90 L-163,87 L-163,82 L-154,72 L-146,63 L-138,56 L-123,41 L-116,33 L-107,25 L-100,17 L-96,12 L-85,3 L-80,1 L-60,1 Z " fill="#000000" transform="translate(504,455)"/>
<path d="M0,0 L10,0 L22,3 L29,9 L34,19 L35,54 L35,120 L33,130 L28,139 L22,144 L11,147 L-89,148 L-117,149 L-120,146 L-121,142 L-121,124 L-126,99 L-133,84 L-142,72 L-151,62 L-162,54 L-179,46 L-200,42 L-213,42 L-231,44 L-252,52 L-265,62 L-279,75 L-286,86 L-294,102 L-298,121 L-298,149 L-301,152 L-314,153 L-401,154 L-428,155 L-461,155 L-543,156 L-574,157 L-648,158 L-675,159 L-742,160 L-767,161 L-796,161 L-801,157 L-802,133 L-805,116 L-811,101 L-821,87 L-830,77 L-843,68 L-858,60 L-871,56 L-876,55 L-898,55 L-916,58 L-932,66 L-944,73 L-956,84 L-962,92 L-970,104 L-975,117 L-979,136 L-979,160 L-982,164 L-1019,164 L-1019,19 L-1013,18 L-868,16 L-825,15 L-792,15 L-774,14 L-738,14 L-714,13 L-599,11 L-573,10 L-539,10 L-434,8 L-417,8 L-373,7 L-355,7 L-319,6 L-302,6 L-256,5 L-235,5 L-161,3 L-107,2 L-67,2 Z " fill="#000000" transform="translate(1019,549)"/>
<path d="M0,0 L19,0 L34,5 L48,12 L57,19 L64,27 L70,35 L76,49 L79,60 L80,70 L80,83 L73,104 L67,115 L60,124 L50,132 L39,139 L25,145 L14,147 L-9,146 L-21,142 L-35,135 L-43,129 L-50,121 L-56,113 L-62,103 L-65,94 L-67,77 L-66,62 L-63,51 L-58,39 L-49,25 L-38,15 L-20,5 L-9,1 Z " fill="#000000" transform="translate(803,605)"/>
<path d="M0,0 L20,1 L36,6 L46,11 L57,19 L68,30 L75,42 L79,53 L81,64 L81,86 L77,100 L71,112 L65,120 L53,133 L42,140 L27,146 L16,148 L-4,148 L-20,144 L-33,137 L-43,128 L-52,118 L-61,102 L-64,94 L-66,73 L-65,62 L-61,45 L-54,33 L-45,23 L-38,16 L-30,11 L-17,4 L-9,2 Z M29,69 L28,70 L28,84 L32,85 L34,83 L34,72 L32,69 Z " fill="#000000" transform="translate(121,617)"/>
</svg>
