<?xml version="1.0" encoding="UTF-8"?>
<!-- Generator: visioncortex VTracer 0.6.12 -->
<svg version="1.1" xmlns="http://www.w3.org/2000/svg" width="1008" height="999">
<path d="M0,0 L249,0 L246,3 L189,3 L183,2 L181,3 L151,3 L102,5 L94,5 L86,4 L73,4 L46,5 L42,6 L29,7 L13,10 L-3,15 L-21,23 L-31,29 L-40,36 L-53,48 L-64,61 L-71,72 L-79,88 L-86,108 L-89,123 L-92,125 L-92,85 L-90,85 L-89,79 L-82,67 L-73,54 L-63,43 L-56,35 L-51,30 L-41,21 L-28,14 L-23,11 L-4,2 L0,2 Z " fill="#000000" transform="translate(92,0)"/>
<path d="M0,0 L111,0 L110,2 L64,2 L43,3 L4,3 L0,1 Z " fill="#000000" transform="translate(343,0)"/>
<path d="M0,0 L5,0 L5,2 L0,1 Z " fill="#000000" transform="translate(478,0)"/>
<path d="M0,0 L5,0 L5,1 L0,1 Z " fill="#000000" transform="translate(515,0)"/>
<path d="M0,0 L5,0 L5,1 L0,1 Z " fill="#000000" transform="translate(533,0)"/>
<path d="M0,0 L39,0 L39,2 L49,5 L55,9 L64,15 L72,21 L80,28 L85,33 L92,40 L100,50 L105,58 L114,74 L118,85 L119,86 L119,199 L117,198 L116,191 L116,140 L115,120 L110,99 L105,84 L100,73 L96,66 L91,58 L84,50 L79,44 L79,42 L74,40 L69,34 L64,30 L61,27 L51,21 L40,15 L27,9 L12,4 L0,2 Z " fill="#000000" transform="translate(889,0)"/>
<path d="M0,0 L2,0 L2,120 L0,119 L0,45 L-1,21 L-1,2 Z " fill="#000000" transform="translate(1006,202)"/>
<path d="M0,0 L1,0 L1,13 L-1,12 L-1,1 Z " fill="#000000" transform="translate(1007,329)"/>
<path d="M0,0 L7,1 L12,7 L14,29 L17,38 L20,41 L47,41 L88,40 L97,41 L164,41 L173,40 L203,40 L208,39 L212,41 L220,41 L225,40 L237,41 L266,41 L272,44 L276,48 L283,62 L285,65 L287,71 L293,86 L300,100 L304,110 L312,127 L320,146 L327,158 L333,162 L355,163 L364,162 L383,163 L445,163 L458,164 L470,167 L481,168 L485,171 L496,174 L508,179 L518,188 L523,194 L533,213 L537,225 L540,239 L542,259 L542,299 L541,309 L536,314 L532,315 L515,316 L508,315 L502,316 L494,315 L464,315 L436,314 L431,311 L428,297 L425,286 L422,279 L418,272 L412,264 L407,259 L395,249 L377,241 L366,240 L348,240 L331,245 L315,255 L308,261 L301,272 L294,288 L290,306 L287,312 L285,314 L254,314 L244,313 L240,314 L158,314 L130,315 L92,314 L58,314 L28,315 L10,315 L-10,316 L-21,315 L-47,315 L-49,316 L-62,316 L-64,315 L-76,315 L-85,316 L-129,316 L-133,315 L-136,316 L-160,316 L-165,313 L-167,308 L-169,297 L-171,292 L-173,284 L-178,274 L-186,263 L-192,258 L-201,251 L-212,246 L-224,243 L-247,242 L-252,244 L-262,246 L-278,255 L-290,266 L-294,274 L-299,284 L-302,297 L-304,309 L-308,315 L-317,318 L-320,319 L-350,319 L-361,318 L-365,316 L-369,309 L-372,291 L-375,262 L-376,227 L-376,216 L-374,201 L-371,191 L-365,182 L-360,176 L-349,171 L-338,168 L-331,168 L-325,166 L-307,166 L-255,165 L-230,165 L-181,164 L-139,163 L-126,162 L-121,157 L-112,147 L-109,144 L-99,130 L-91,120 L-87,115 L-77,101 L-70,92 L-65,88 L-62,83 L-57,78 L-49,69 L-43,61 L-37,56 L-30,48 L-25,41 L-20,38 L-18,31 L-16,14 L-14,5 L-10,1 Z M133,73 L124,78 L121,87 L121,133 L123,157 L128,162 L137,164 L166,164 L216,163 L229,162 L232,163 L270,163 L278,160 L280,158 L279,145 L274,135 L269,122 L263,105 L253,81 L247,75 L241,73 Z M-6,74 L-15,76 L-24,85 L-30,95 L-32,99 L-35,100 L-41,109 L-41,111 L-45,113 L-55,126 L-58,131 L-63,135 L-69,145 L-73,149 L-77,158 L-76,162 L-75,163 L-67,164 L-31,164 L-26,159 L-24,149 L-23,139 L-20,133 L-11,130 L44,130 L54,121 L62,110 L64,107 L71,107 L76,112 L77,117 L74,121 L64,123 L58,128 L54,139 L54,154 L58,160 L62,163 L80,163 L86,158 L87,155 L87,95 L86,83 L82,77 L78,75 L18,74 L1,75 Z " fill="#000000" transform="translate(420,338)"/>
<path d="M0,0 L1,0 L1,7 L-1,6 Z " fill="#000000" transform="translate(1007,348)"/>
<path d="M0,0 L1,0 L1,11 L-1,9 Z " fill="#000000" transform="translate(1007,375)"/>
<path d="M0,0 L2,1 L1,7 L0,7 Z " fill="#000000" transform="translate(0,389)"/>
<path d="M0,0 L3,0 L3,2 L0,1 Z " fill="#000000" transform="translate(262,391)"/>
<path d="M0,0 L2,3 L3,22 L1,26 L0,26 Z " fill="#000000" transform="translate(0,403)"/>
<path d="M0,0 L1,0 L1,10 L-1,8 L-1,2 Z " fill="#000000" transform="translate(1007,424)"/>
<path d="M0,0 L2,1 L2,11 L0,11 Z " fill="#000000" transform="translate(0,433)"/>
<path d="M0,0 L2,0 L3,2 L3,33 L4,122 L4,291 L5,314 L5,403 L7,441 L13,465 L20,479 L24,487 L30,495 L37,504 L43,512 L51,518 L56,523 L67,531 L76,536 L87,542 L109,549 L116,550 L117,552 L80,552 L80,550 L73,548 L64,543 L50,533 L36,521 L35,518 L31,516 L22,505 L15,494 L10,486 L3,469 L0,464 Z " fill="#000000" transform="translate(0,447)"/>
<path d="M0,0 L1,0 L1,7 L0,7 Z " fill="#000000" transform="translate(1007,450)"/>
<path d="M0,0 L1,4 L-1,3 Z " fill="#000000" transform="translate(1007,526)"/>
<path d="M0,0 L1,4 L-1,4 Z " fill="#000000" transform="translate(1007,548)"/>
<path d="M0,0 L14,1 L27,6 L40,13 L48,22 L52,27 L57,41 L60,53 L58,74 L55,83 L48,93 L41,101 L32,108 L18,113 L9,115 L-6,115 L-16,111 L-26,107 L-32,102 L-39,94 L-45,84 L-51,65 L-51,51 L-49,41 L-44,28 L-39,19 L-29,11 L-21,6 L-9,2 Z " fill="#000000" transform="translate(776,587)"/>
<path d="M0,0 L20,0 L34,3 L43,10 L48,14 L57,26 L62,38 L63,43 L63,64 L57,80 L49,91 L42,99 L32,104 L20,109 L1,109 L-8,108 L-17,104 L-23,100 L-33,91 L-36,85 L-41,80 L-45,69 L-47,50 L-44,38 L-38,26 L-27,13 L-21,9 L-16,6 L-11,3 Z " fill="#000000" transform="translate(174,591)"/>
<path d="M0,0 L1,0 L1,37 L-4,46 L-9,56 L-18,70 L-31,84 L-39,91 L-46,98 L-55,103 L-63,108 L-72,114 L-83,117 L-83,119 L-154,119 L-152,117 L-119,115 L-100,110 L-92,108 L-79,103 L-67,97 L-59,93 L-54,89 L-50,85 L-45,83 L-44,80 L-37,74 L-29,64 L-22,55 L-13,40 L-6,23 L-3,9 Z " fill="#000000" transform="translate(1007,880)"/>
<path d="M0,0 L2,0 L2,2 L-1,1 Z " fill="#000000" transform="translate(563,997)"/>
<path d="M0,0 L3,1 L3,2 L-2,2 Z " fill="#000000" transform="translate(637,997)"/>
<path d="M0,0 L5,1 L5,2 L-2,2 Z " fill="#000000" transform="translate(679,997)"/>
<path d="M0,0 L8,0 L9,2 L-1,2 Z " fill="#000000" transform="translate(695,997)"/>
<path d="M0,0 L35,0 L37,2 L-2,2 Z " fill="#000000" transform="translate(717,997)"/>
<path d="M0,0 L15,0 L18,2 L0,2 Z " fill="#000000" transform="translate(764,997)"/>
<path d="M0,0 L52,0 L56,2 L56,3 L-12,3 L-8,1 Z " fill="#000000" transform="translate(795,996)"/>
</svg>
