<?xml version="1.0" encoding="UTF-8"?>
<!-- Generator: visioncortex VTracer 0.6.12 -->
<svg version="1.1" xmlns="http://www.w3.org/2000/svg" width="1083" height="1215">
<path d="M0,0 L16,1 L30,1 L35,0 L50,0 L50,601 L46,599 L40,590 L20,570 L12,563 L4,558 L-7,550 L-36,537 L-48,531 L-57,522 L-62,517 L-66,512 L-75,501 L-84,493 L-92,483 L-96,479 L-106,466 L-115,457 L-121,449 L-121,447 L-125,445 L-136,433 L-143,424 L-151,417 L-157,409 L-164,399 L-171,391 L-180,381 L-188,372 L-193,367 L-201,360 L-206,358 L-227,358 L-330,362 L-367,362 L-373,358 L-376,349 L-377,300 L-380,288 L-384,285 L-390,284 L-411,285 L-416,288 L-417,291 L-417,337 L-418,357 L-423,362 L-428,363 L-464,365 L-483,365 L-490,366 L-499,365 L-534,365 L-543,366 L-551,371 L-558,378 L-565,386 L-576,399 L-582,407 L-589,416 L-600,428 L-607,436 L-611,440 L-618,449 L-624,457 L-633,467 L-639,475 L-645,482 L-650,487 L-660,498 L-666,506 L-679,521 L-687,529 L-694,537 L-701,543 L-711,547 L-730,549 L-736,551 L-743,552 L-752,556 L-771,562 L-789,570 L-797,575 L-806,580 L-815,586 L-823,592 L-833,599 L-841,606 L-849,613 L-857,623 L-870,636 L-880,650 L-883,657 L-885,662 L-890,667 L-903,692 L-914,721 L-915,727 L-915,746 L-907,748 L-862,748 L-848,747 L-842,744 L-838,736 L-832,721 L-825,708 L-817,698 L-804,684 L-791,675 L-780,668 L-763,660 L-750,657 L-745,656 L-737,656 L-731,654 L-722,654 L-694,657 L-684,661 L-671,666 L-657,674 L-650,680 L-642,687 L-636,692 L-629,701 L-618,718 L-610,734 L-607,739 L-602,742 L-548,742 L-542,741 L-535,742 L-531,741 L-510,741 L-501,740 L-477,740 L-463,739 L-436,739 L-413,738 L-368,737 L-349,736 L-305,736 L-280,735 L-259,734 L-252,730 L-245,712 L-239,703 L-237,698 L-228,684 L-217,673 L-212,668 L-206,663 L-197,657 L-180,649 L-169,645 L-145,640 L-125,641 L-115,643 L-98,646 L-86,652 L-74,657 L-63,665 L-63,667 L-59,669 L-44,684 L-34,698 L-23,721 L-21,726 L-13,728 L15,728 L25,727 L50,726 L50,1123 L19,1123 L-33,1125 L-36,1126 L-63,1126 L-73,1127 L-104,1127 L-124,1128 L-152,1128 L-156,1129 L-179,1130 L-216,1130 L-287,1131 L-315,1132 L-342,1132 L-358,1133 L-379,1133 L-424,1134 L-449,1135 L-464,1135 L-499,1136 L-519,1136 L-541,1137 L-570,1137 L-572,1138 L-591,1138 L-630,1139 L-658,1140 L-674,1140 L-719,1141 L-727,1142 L-757,1142 L-801,1143 L-831,1143 L-915,1145 L-923,1146 L-969,1146 L-975,1142 L-977,1139 L-979,1126 L-979,1066 L-980,1034 L-981,964 L-983,883 L-983,841 L-984,825 L-985,780 L-986,705 L-986,686 L-987,660 L-987,648 L-988,641 L-988,599 L-989,496 L-989,484 L-990,479 L-990,448 L-991,377 L-991,347 L-992,322 L-992,301 L-993,263 L-994,241 L-995,181 L-996,134 L-996,105 L-997,36 L-994,27 L-989,24 L-952,22 L-904,22 L-901,21 L-876,21 L-873,20 L-862,20 L-848,21 L-844,20 L-820,19 L-801,19 L-772,18 L-738,18 L-730,17 L-707,17 L-681,16 L-658,16 L-583,13 L-548,13 L-538,12 L-471,12 L-465,11 L-443,11 L-433,10 L-416,10 L-386,9 L-361,9 L-346,8 L-327,8 L-317,9 L-306,9 L-303,8 L-289,7 L-246,7 L-225,6 L-209,6 L-200,5 L-190,6 L-179,5 L-162,5 L-151,4 L-144,5 L-135,4 L-113,4 L-108,3 L-85,3 L-50,2 L-40,1 L-6,1 Z M-148,668 L-157,669 L-175,676 L-188,685 L-197,691 L-204,699 L-211,708 L-219,724 L-225,742 L-225,760 L-223,779 L-218,794 L-210,809 L-202,818 L-195,826 L-185,834 L-174,840 L-166,842 L-162,844 L-145,846 L-129,846 L-114,844 L-103,840 L-96,838 L-87,832 L-73,820 L-64,810 L-53,791 L-49,777 L-47,771 L-46,751 L-51,727 L-59,711 L-69,697 L-79,688 L-89,681 L-99,675 L-117,669 L-123,668 Z M-738,682 L-756,688 L-765,693 L-775,699 L-783,706 L-791,715 L-797,724 L-804,738 L-808,751 L-810,760 L-811,764 L-811,781 L-808,797 L-804,806 L-797,820 L-790,830 L-779,841 L-770,846 L-763,851 L-749,855 L-740,858 L-732,859 L-722,859 L-705,857 L-689,852 L-681,848 L-672,842 L-664,835 L-657,828 L-647,813 L-642,801 L-637,782 L-637,759 L-641,741 L-645,732 L-653,719 L-662,709 L-669,701 L-677,695 L-694,687 L-708,683 L-715,682 Z M-688,1003 L-690,1004 L-689,1011 L-685,1012 L-684,1011 L-685,1004 Z " fill="#000000" transform="translate(1033,37)"/>
<path d="M0,0 L40,1 L64,4 L79,7 L90,12 L95,14 L104,16 L122,24 L133,30 L147,38 L158,45 L169,54 L178,61 L186,69 L194,76 L198,81 L205,89 L211,97 L215,103 L224,115 L236,138 L238,143 L238,150 L234,154 L212,155 L169,156 L131,156 L89,157 L53,158 L-31,158 L-35,159 L-68,159 L-70,160 L-95,160 L-128,161 L-142,162 L-161,162 L-186,163 L-259,164 L-276,165 L-293,165 L-299,163 L-301,161 L-301,154 L-295,145 L-286,134 L-277,123 L-275,123 L-273,119 L-262,107 L-251,93 L-242,82 L-231,70 L-227,64 L-219,55 L-212,46 L-199,30 L-189,21 L-183,13 L-174,7 L-153,4 L-137,4 L-132,3 L-60,2 L-45,2 Z " fill="#000000" transform="translate(670,416)"/>
<path d="M0,0 L2,0 L2,2 L0,2 Z " fill="#000000" transform="translate(489,655)"/>
</svg>
