<?xml version="1.0" encoding="UTF-8"?>
<!-- Generator: visioncortex VTracer 0.6.12 -->
<svg version="1.1" xmlns="http://www.w3.org/2000/svg" width="729" height="1038">
<path d="M0,0 L11,0 L29,3 L37,2 L44,0 L56,0 L68,5 L78,11 L83,15 L92,28 L95,36 L97,43 L98,46 L102,48 L111,52 L119,56 L132,68 L140,84 L142,91 L142,107 L137,117 L131,122 L124,125 L115,128 L102,135 L96,135 L85,144 L70,155 L55,161 L45,163 L41,165 L22,165 L5,161 L-9,154 L-25,142 L-30,136 L-40,130 L-48,127 L-59,121 L-69,114 L-77,105 L-81,94 L-82,89 L-82,80 L-79,70 L-71,58 L-63,52 L-54,49 L-42,43 L-36,34 L-29,23 L-17,10 L-11,5 L-4,1 Z M30,57 L24,60 L16,66 L2,74 L-21,86 L-26,92 L-24,102 L-19,114 L-8,128 L5,137 L15,141 L24,143 L39,143 L51,141 L64,134 L70,130 L77,122 L83,113 L88,103 L88,94 L80,87 L64,77 L54,69 L41,61 L36,58 Z " fill="#000000" transform="translate(230,31)"/>
<path d="M0,0 L7,1 L18,9 L19,11 L19,17 L11,31 L11,38 L13,42 L21,49 L30,57 L43,74 L49,83 L53,90 L60,111 L63,124 L64,137 L64,149 L62,162 L56,183 L51,194 L47,201 L37,215 L21,231 L15,235 L0,245 L-14,252 L-35,258 L-38,259 L-59,261 L-80,259 L-87,257 L-96,256 L-106,253 L-111,255 L-115,260 L-121,269 L-124,277 L-123,282 L-88,287 L-70,293 L-58,299 L-46,306 L-37,313 L-29,320 L-29,323 L-32,324 L-29,329 L-23,331 L-22,327 L-24,323 L-22,322 L-12,322 L5,321 L45,321 L50,325 L51,328 L51,573 L52,585 L52,615 L53,632 L54,703 L55,752 L56,756 L56,763 L55,766 L55,793 L56,822 L56,870 L53,876 L44,879 L33,878 L28,875 L17,861 L11,853 L2,837 L-9,824 L-14,820 L-22,818 L-76,818 L-104,819 L-169,819 L-180,820 L-281,820 L-305,821 L-360,821 L-407,822 L-429,822 L-448,823 L-512,824 L-542,824 L-550,829 L-559,845 L-569,864 L-580,882 L-587,887 L-596,888 L-602,885 L-605,876 L-606,863 L-605,795 L-605,742 L-604,686 L-605,654 L-605,616 L-606,592 L-606,407 L-607,370 L-607,344 L-604,337 L-600,335 L-570,334 L-402,331 L-394,330 L-316,330 L-289,329 L-263,329 L-246,330 L-241,329 L-226,329 L-212,322 L-207,316 L-205,316 L-206,311 L-209,310 L-254,311 L-294,312 L-324,313 L-420,314 L-535,314 L-542,312 L-545,307 L-546,305 L-547,293 L-547,227 L-548,185 L-548,145 L-546,132 L-541,110 L-534,97 L-529,93 L-523,90 L-520,88 L-498,86 L-463,85 L-449,84 L-442,90 L-433,110 L-427,120 L-419,129 L-419,131 L-415,133 L-407,139 L-391,145 L-377,147 L-364,146 L-353,144 L-339,137 L-330,130 L-325,125 L-321,120 L-316,111 L-312,98 L-309,88 L-306,86 L-287,86 L-244,85 L-230,87 L-220,90 L-211,95 L-203,104 L-199,114 L-196,132 L-195,164 L-194,178 L-193,218 L-193,239 L-192,280 L-191,290 L-188,300 L-182,300 L-162,291 L-157,287 L-153,278 L-146,264 L-136,243 L-129,231 L-125,225 L-118,224 L-102,232 L-92,236 L-77,239 L-72,239 L-71,233 L-72,230 L-90,226 L-101,223 L-115,215 L-123,207 L-132,200 L-144,183 L-149,170 L-153,158 L-155,142 L-155,128 L-151,110 L-139,86 L-127,73 L-122,68 L-113,61 L-94,52 L-82,48 L-74,47 L-47,47 L-42,50 L-29,53 L-16,59 L-3,68 L2,74 L9,80 L18,92 L26,107 L29,116 L31,128 L32,131 L32,146 L30,152 L28,164 L22,180 L15,191 L11,198 L6,203 L-1,209 L-17,220 L-32,226 L-41,229 L-54,230 L-60,230 L-62,231 L-62,239 L-60,240 L-53,240 L-30,236 L-12,228 L0,221 L8,215 L13,210 L20,202 L29,191 L36,176 L40,164 L43,146 L43,129 L40,113 L34,97 L27,84 L17,71 L6,60 L-4,53 L-16,44 L-20,40 L-20,33 L-9,15 L-3,2 Z M-379,206 L-383,210 L-382,217 L-376,222 L-371,221 L-368,215 L-369,210 L-373,206 Z M-378,254 L-383,260 L-382,269 L-378,272 L-372,271 L-368,266 L-367,259 L-371,255 Z " fill="#000000" transform="translate(637,122)"/>
</svg>
