<?xml version="1.0" encoding="UTF-8"?>
<!-- Generator: visioncortex VTracer 0.6.12 -->
<svg version="1.1" xmlns="http://www.w3.org/2000/svg" width="1131" height="1134">
<path d="M0,0 L2,1 L1,5 L-1,4 Z " fill="#000000" transform="translate(7,116)"/>
<path d="M0,0 L27,0 L59,3 L67,5 L95,9 L110,13 L121,15 L126,18 L137,21 L140,23 L149,26 L160,32 L176,42 L186,50 L196,63 L204,75 L216,96 L223,110 L224,114 L224,131 L217,142 L204,153 L193,162 L179,174 L167,185 L159,191 L145,203 L134,212 L121,223 L112,230 L103,238 L89,249 L79,258 L73,262 L66,269 L61,272 L56,277 L43,287 L32,295 L28,297 L17,298 L0,289 L-13,278 L-28,264 L-35,259 L-40,254 L-45,249 L-54,243 L-63,241 L-72,241 L-81,246 L-94,258 L-104,271 L-106,271 L-108,275 L-119,289 L-127,299 L-138,313 L-147,325 L-158,340 L-163,348 L-167,353 L-176,367 L-181,375 L-185,383 L-190,391 L-198,407 L-206,423 L-215,442 L-223,457 L-232,476 L-242,499 L-252,523 L-259,540 L-262,547 L-264,556 L-264,568 L-262,575 L-260,575 L-253,583 L-237,591 L-226,596 L-209,601 L-200,604 L-187,610 L-178,614 L-170,619 L-166,625 L-164,632 L-165,646 L-170,674 L-172,683 L-174,696 L-180,730 L-185,758 L-190,783 L-191,794 L-193,802 L-196,817 L-198,829 L-203,859 L-207,873 L-211,882 L-219,889 L-222,891 L-236,893 L-276,893 L-296,890 L-304,887 L-316,882 L-330,874 L-346,862 L-356,853 L-363,845 L-377,831 L-386,820 L-396,807 L-408,793 L-416,782 L-420,776 L-429,762 L-437,746 L-437,727 L-430,696 L-427,685 L-421,665 L-416,646 L-409,622 L-406,610 L-399,589 L-394,571 L-386,547 L-379,528 L-369,503 L-359,477 L-357,474 L-353,461 L-348,449 L-337,425 L-326,403 L-318,387 L-305,362 L-297,348 L-291,337 L-283,323 L-270,302 L-264,293 L-258,283 L-250,273 L-244,264 L-235,253 L-230,245 L-224,237 L-211,219 L-203,209 L-195,199 L-188,190 L-177,176 L-169,167 L-161,157 L-153,147 L-141,134 L-134,125 L-129,119 L-124,114 L-101,91 L-96,86 L-83,72 L-75,65 L-67,56 L-59,49 L-36,26 L-28,19 L-19,12 L-11,5 L-3,1 Z " fill="#000000" transform="translate(671,129)"/>
</svg>
