<?xml version="1.0" encoding="UTF-8"?>
<!-- Generator: visioncortex VTracer 0.6.12 -->
<svg version="1.1" xmlns="http://www.w3.org/2000/svg" width="780" height="1095">
<path d="M0,0 L780,0 L780,894 L778,901 L780,901 L780,949 L779,956 L779,1044 L780,1051 L779,1053 L779,1060 L780,1062 L780,1095 L0,1095 L0,30 L1,24 L0,16 Z M171,289 L168,290 L148,290 L143,293 L141,296 L139,308 L138,372 L138,405 L137,437 L137,451 L136,469 L135,525 L135,684 L134,757 L134,782 L135,802 L139,808 L155,808 L160,809 L214,810 L245,810 L311,812 L319,813 L356,812 L437,813 L444,812 L454,812 L457,813 L482,814 L518,814 L550,815 L571,815 L630,816 L635,811 L639,793 L640,778 L641,739 L641,634 L642,565 L642,545 L641,538 L638,537 L642,529 L643,365 L645,334 L645,306 L642,299 L637,293 L632,294 L629,296 L594,296 L576,295 L490,295 L467,294 L395,293 L386,294 L364,293 L320,292 L278,292 L244,291 L217,291 L184,290 Z M667,1052 L667,1056 L671,1055 L670,1052 Z " fill="#000000" transform="translate(0,0)"/>
<path d="M0,0 L26,0 L34,3 L37,7 L40,19 L40,41 L38,57 L34,75 L32,80 L30,88 L27,95 L22,99 L14,101 L4,102 L-6,95 L-23,95 L-25,102 L-25,110 L-16,158 L-14,171 L-13,188 L-13,218 L-15,239 L-19,260 L-19,270 L-17,272 L-13,271 L-9,265 L0,261 L9,261 L19,262 L30,269 L40,277 L48,285 L56,292 L64,301 L65,305 L65,313 L59,324 L49,334 L30,347 L22,356 L17,359 L16,362 L21,363 L33,362 L44,358 L57,355 L78,348 L101,343 L117,343 L127,348 L131,353 L130,359 L125,362 L116,360 L101,360 L85,363 L72,367 L56,372 L34,378 L20,379 L3,377 L-11,370 L-21,362 L-28,358 L-39,351 L-45,342 L-51,326 L-55,311 L-59,296 L-65,269 L-67,257 L-69,236 L-71,225 L-72,181 L-72,163 L-67,107 L-63,82 L-59,53 L-55,39 L-50,27 L-42,17 L-35,10 L-23,4 L-18,2 Z " fill="#000000" transform="translate(371,372)"/>
<path d="M0,0 L3,0 L2,4 L0,4 Z " fill="#000000" transform="translate(627,796)"/>
</svg>
