<?xml version="1.0" encoding="UTF-8"?>
<!-- Generator: visioncortex VTracer 0.6.12 -->
<svg version="1.1" xmlns="http://www.w3.org/2000/svg" width="1119" height="1119">
<path d="M0,0 L1062,0 L1063,1 L1080,2 L1098,2 L1100,0 L1109,0 L1109,28 L1106,27 L1106,25 L1089,22 L1039,22 L1028,20 L1006,20 L999,19 L991,19 L988,20 L981,20 L978,19 L966,19 L962,20 L954,19 L917,18 L893,18 L887,19 L879,19 L875,18 L856,17 L841,17 L835,16 L676,16 L670,15 L654,15 L626,14 L559,14 L533,13 L438,12 L380,11 L369,12 L352,11 L334,12 L321,11 L267,11 L263,10 L233,9 L226,7 L182,7 L178,8 L137,10 L117,10 L101,9 L52,8 L43,7 L33,7 L15,9 L12,12 L10,27 L10,37 L11,41 L11,84 L10,100 L10,263 L9,272 L9,307 L8,361 L7,380 L7,418 L6,451 L5,588 L5,613 L4,632 L4,662 L3,714 L3,759 L2,874 L2,937 L1,962 L0,1013 L1,1040 L1,1092 L2,1095 L16,1094 L24,1093 L38,1093 L49,1092 L81,1093 L100,1094 L109,1095 L155,1096 L171,1097 L243,1099 L256,1100 L333,1100 L353,1101 L378,1101 L403,1102 L451,1102 L463,1103 L499,1104 L501,1105 L514,1105 L517,1104 L564,1104 L568,1105 L591,1104 L610,1104 L630,1105 L633,1106 L678,1106 L719,1107 L735,1108 L795,1108 L815,1109 L904,1109 L913,1107 L994,1107 L1009,1108 L1013,1109 L1042,1109 L1053,1110 L1056,1111 L1068,1112 L1085,1112 L1093,1106 L1100,1102 L1100,1096 L1094,1094 L1092,1091 L1091,1078 L1090,1069 L1091,1067 L1090,1045 L1092,1023 L1092,1000 L1093,992 L1093,919 L1092,914 L1092,878 L1093,855 L1093,840 L1095,804 L1096,795 L1096,787 L1097,779 L1096,776 L1095,765 L1095,753 L1096,743 L1095,728 L1095,699 L1096,695 L1097,673 L1097,652 L1098,649 L1101,646 L1099,639 L1099,627 L1100,623 L1100,614 L1099,608 L1099,525 L1100,516 L1100,504 L1099,501 L1099,491 L1100,488 L1101,469 L1101,450 L1100,442 L1102,419 L1102,410 L1101,406 L1101,353 L1103,347 L1103,319 L1101,289 L1101,281 L1102,277 L1104,222 L1104,185 L1103,146 L1104,122 L1105,119 L1105,95 L1104,83 L1104,70 L1105,64 L1106,44 L1108,38 L1109,38 L1109,826 L1108,842 L1109,853 L1108,857 L1107,881 L1106,925 L1106,1025 L1105,1054 L1105,1075 L1103,1102 L1105,1119 L247,1119 L247,1117 L240,1119 L206,1119 L204,1117 L192,1116 L175,1116 L153,1117 L146,1116 L126,1116 L121,1114 L97,1114 L91,1113 L79,1113 L57,1114 L47,1110 L35,1110 L13,1109 L0,1108 L-10,1104 L-10,1094 L-8,1094 L-9,1086 L-8,1076 L-10,1076 L-10,1065 L-8,1065 L-10,1058 L-10,1047 L-8,1043 L-10,1043 L-10,831 L-8,827 L-8,818 L-10,817 L-10,689 L-7,687 L-8,683 L-10,682 L-10,657 L-8,657 L-10,654 L-10,642 L-7,639 L-7,632 L-10,630 L-10,614 L-6,614 L-7,606 L-5,596 L-6,592 L-10,590 L-10,462 L-8,462 L-8,456 L-10,456 L-10,448 L-5,445 L-5,439 L-8,435 L-6,426 L-8,421 L-7,414 L-6,408 L-10,402 L-10,385 L-8,385 L-8,373 L-10,368 L-10,342 L-9,341 L-9,313 L-10,312 L-10,306 L-9,305 L-8,298 L-8,282 L-7,237 L-7,199 L-6,191 L-6,133 L-7,116 L-5,108 L-5,93 L-3,90 L1,88 L1,82 L-4,82 L-5,81 L-6,69 L-5,61 L-4,35 L-4,20 L-5,14 L-2,5 Z M1097,1046 L1095,1049 L1098,1051 L1099,1047 Z M1096,1071 L1095,1074 L1099,1076 L1100,1073 L1099,1071 Z " fill="#000000" transform="translate(10,0)"/>
<path d="M0,0 L51,0 L57,3 L59,5 L60,20 L62,33 L65,33 L69,24 L74,18 L78,16 L99,16 L119,17 L159,18 L189,18 L194,24 L195,39 L197,45 L195,52 L199,52 L199,44 L206,36 L215,33 L259,33 L272,35 L280,39 L285,44 L288,44 L291,36 L291,26 L290,21 L290,10 L294,5 L303,5 L311,6 L362,6 L447,8 L471,8 L475,9 L562,9 L573,3 L579,4 L585,9 L613,10 L622,9 L634,10 L689,10 L700,11 L732,11 L738,14 L742,23 L744,28 L747,25 L752,15 L757,11 L782,10 L790,11 L794,10 L805,10 L811,11 L882,11 L887,14 L889,18 L888,25 L888,45 L887,90 L883,96 L877,100 L870,103 L862,105 L853,109 L844,112 L832,116 L816,123 L807,125 L798,129 L774,137 L763,141 L754,142 L749,139 L744,136 L742,140 L741,149 L740,249 L740,335 L738,342 L733,346 L598,346 L539,345 L516,344 L507,345 L504,344 L420,343 L390,343 L373,342 L345,342 L323,341 L300,341 L293,338 L290,334 L289,331 L289,317 L290,307 L289,215 L289,138 L288,131 L289,120 L288,111 L285,111 L284,128 L279,135 L275,137 L237,137 L213,136 L203,132 L201,130 L199,110 L196,110 L195,116 L194,140 L189,146 L186,147 L152,146 L98,145 L79,144 L71,141 L67,135 L65,125 L62,124 L61,128 L59,152 L55,157 L50,158 L15,157 L8,157 L1,154 L-4,148 L-4,123 L-3,115 L-3,28 L-4,20 L-4,5 L-2,1 Z M62,39 L63,44 L66,43 L65,39 Z M285,54 L284,56 L284,73 L283,90 L285,93 L288,93 L290,86 L290,74 L289,70 L290,66 L290,55 Z M197,64 L195,65 L194,83 L197,90 L200,90 L201,85 L201,72 L199,65 Z M63,69 L61,71 L61,82 L65,84 L66,82 L66,71 Z M62,89 L61,92 L60,114 L62,117 L65,117 L66,113 L66,90 Z " fill="#000000" transform="translate(133,155)"/>
<path d="M0,0 L56,0 L63,4 L65,11 L65,104 L64,124 L59,130 L41,130 L1,129 L-5,125 L-8,119 L-8,11 L-5,3 Z " fill="#000000" transform="translate(620,507)"/>
<path d="M0,0 L7,1 L10,5 L11,8 L12,54 L15,59 L18,61 L33,64 L45,65 L61,70 L69,72 L70,73 L84,75 L93,76 L112,81 L127,84 L142,88 L152,90 L170,95 L187,99 L190,100 L198,100 L202,98 L209,98 L216,100 L228,102 L239,106 L249,108 L264,112 L279,115 L293,119 L298,124 L299,127 L299,135 L296,147 L291,152 L284,153 L270,148 L253,144 L229,139 L225,137 L208,133 L202,129 L199,126 L179,120 L160,116 L145,112 L140,110 L124,107 L112,103 L99,101 L84,97 L69,94 L57,90 L37,86 L19,81 L7,79 L-6,74 L-8,69 L-8,19 L-7,7 L-2,1 Z " fill="#000000" transform="translate(775,508)"/>
<path d="M0,0 L2,1 L0,5 L-2,4 L-2,1 Z " fill="#000000" transform="translate(1069,572)"/>
<path d="M0,0 L11,0 L17,1 L53,1 L61,2 L82,2 L86,4 L87,6 L87,66 L88,67 L87,87 L87,145 L86,153 L78,160 L72,161 L46,160 L37,159 L25,159 L23,160 L24,164 L70,164 L94,166 L99,170 L99,216 L100,288 L101,304 L104,308 L104,310 L119,310 L124,309 L189,309 L209,308 L226,309 L244,310 L253,313 L267,322 L279,333 L283,341 L285,346 L287,361 L287,386 L284,393 L279,396 L270,397 L234,396 L176,396 L151,395 L134,396 L100,394 L59,394 L56,393 L42,393 L24,394 L11,393 L-46,393 L-86,392 L-119,392 L-183,391 L-200,391 L-211,390 L-283,390 L-292,389 L-316,389 L-323,388 L-348,388 L-406,387 L-431,386 L-436,385 L-457,385 L-477,384 L-488,378 L-490,374 L-490,350 L-488,342 L-483,327 L-478,319 L-471,313 L-467,309 L-458,304 L-443,300 L-350,302 L-324,302 L-310,303 L-231,303 L-202,304 L-191,304 L-185,305 L-107,305 L-98,306 L-62,306 L-42,308 L-36,308 L-31,304 L-28,294 L-29,263 L-29,207 L-30,191 L-29,172 L-26,167 L-23,165 L3,164 L12,165 L15,163 L14,159 L-2,158 L-10,155 L-14,150 L-15,147 L-15,121 L-16,75 L-15,63 L-15,5 L-11,1 Z " fill="#000000" transform="translate(612,645)"/>
</svg>
