<?xml version="1.0" encoding="UTF-8"?>
<!-- Generator: visioncortex VTracer 0.6.12 -->
<svg version="1.1" xmlns="http://www.w3.org/2000/svg" width="1110" height="1251">
<path d="M0,0 L31,0 L37,1 L51,1 L58,2 L63,1 L124,1 L143,2 L252,2 L277,3 L283,4 L286,3 L327,3 L337,5 L346,4 L363,4 L373,5 L448,5 L453,6 L461,6 L466,5 L526,6 L633,6 L663,7 L709,7 L747,8 L765,8 L782,9 L793,9 L799,10 L806,8 L837,9 L894,9 L898,10 L918,10 L925,11 L1006,11 L1011,10 L1013,12 L1021,12 L1024,16 L1025,21 L1025,67 L1024,117 L1023,177 L1023,202 L1022,209 L1022,232 L1021,317 L1020,362 L1019,429 L1018,472 L1017,476 L1018,479 L1018,515 L1017,551 L1017,598 L1016,635 L1016,685 L1015,797 L1014,829 L1009,832 L1010,836 L1014,839 L1014,865 L1013,872 L1013,884 L1011,890 L1012,895 L1013,896 L1013,998 L1011,1010 L1007,1013 L987,1012 L984,1013 L977,1013 L972,1012 L950,1012 L926,1011 L920,1012 L887,1012 L860,1011 L848,1010 L812,1011 L810,1012 L794,1013 L791,1014 L783,1014 L760,1010 L747,1009 L710,1008 L703,1009 L685,1009 L670,1008 L664,1007 L663,1008 L604,1008 L596,1009 L592,1008 L567,1008 L563,1007 L546,1008 L513,1006 L507,1006 L505,1007 L486,1007 L428,1006 L318,1006 L297,1005 L238,1005 L232,1004 L218,1005 L195,1004 L129,1004 L89,1003 L64,1002 L55,1003 L25,1003 L5,1002 L-6,1002 L-14,1001 L-18,996 L-17,985 L-17,914 L-16,901 L-16,800 L-15,699 L-14,663 L-13,584 L-13,493 L-12,489 L-11,450 L-11,390 L-10,355 L-10,338 L-9,301 L-9,231 L-8,222 L-8,191 L-6,184 L-7,177 L-6,172 L-7,168 L-7,119 L-6,50 L-6,4 L-4,1 Z M502,117 L498,119 L477,124 L467,127 L463,129 L454,131 L439,138 L421,146 L404,153 L399,159 L377,169 L364,178 L353,185 L339,195 L333,199 L323,207 L315,217 L312,227 L310,245 L309,274 L308,294 L308,331 L310,372 L311,395 L314,431 L315,447 L320,479 L324,506 L327,519 L332,536 L335,554 L342,580 L346,592 L350,602 L355,619 L362,637 L373,670 L381,690 L388,704 L394,718 L402,734 L410,749 L414,759 L419,769 L427,783 L433,792 L446,817 L451,823 L457,835 L464,845 L472,858 L480,869 L487,880 L497,892 L503,901 L511,909 L520,912 L537,914 L576,914 L585,913 L596,913 L602,914 L606,913 L627,912 L650,909 L654,908 L666,908 L677,904 L687,903 L692,900 L701,899 L720,892 L725,888 L724,878 L719,870 L715,862 L709,853 L701,839 L695,832 L689,823 L685,815 L676,801 L666,785 L660,775 L653,765 L643,749 L637,738 L632,729 L626,722 L619,710 L613,701 L610,696 L603,692 L594,693 L575,698 L566,701 L545,710 L531,716 L521,717 L516,711 L511,702 L504,692 L498,676 L488,657 L481,641 L476,630 L467,607 L458,580 L454,569 L449,553 L446,543 L443,529 L439,514 L436,496 L433,479 L431,461 L429,449 L427,421 L426,385 L428,374 L432,370 L444,368 L462,365 L467,363 L476,363 L498,356 L505,353 L510,348 L513,339 L513,315 L514,291 L514,237 L515,170 L515,151 L514,122 L510,118 Z M313,184 L311,185 L311,189 L315,189 L316,185 Z M691,259 Z M936,598 L933,599 L932,604 L936,607 L940,605 L941,601 Z M623,690 L622,691 L622,696 L626,700 L630,699 L631,698 L631,692 L629,690 Z M554,988 L552,992 L553,995 L557,994 L555,988 Z " fill="#000000" transform="translate(53,36)"/>
<path d="M0,0 L7,1 L9,3 L9,10 L6,13 L-22,13 L-30,16 L-32,22 L-32,29 L-27,34 L-1,35 L2,38 L1,43 L-8,46 L-28,46 L-31,49 L-33,58 L-34,76 L-37,81 L-43,80 L-45,75 L-45,14 L-43,4 L-39,1 L-5,1 Z " fill="#000000" transform="translate(165,1108)"/>
<path d="M0,0 L7,0 L9,3 L10,12 L9,21 L10,39 L9,79 L5,82 L-1,82 L-4,79 L-5,75 L-5,58 L-4,4 Z " fill="#000000" transform="translate(272,1110)"/>
<path d="M0,0 L5,0 L9,5 L9,19 L10,29 L12,32 L17,30 L24,22 L29,17 L39,8 L47,1 L52,0 L58,2 L57,7 L53,12 L45,19 L36,27 L33,32 L34,39 L38,45 L50,62 L57,73 L60,77 L60,81 L58,82 L50,82 L44,77 L37,68 L29,55 L23,47 L22,46 L17,46 L14,49 L12,49 L10,55 L9,75 L6,81 L4,82 L-2,82 L-4,80 L-5,74 L-4,48 L-4,15 L-3,4 Z " fill="#000000" transform="translate(44,1110)"/>
<path d="M0,0 L9,1 L13,7 L20,28 L26,46 L30,59 L35,69 L36,73 L36,80 L31,82 L26,79 L23,74 L19,61 L17,58 L-9,58 L-13,60 L-17,68 L-22,78 L-26,81 L-31,80 L-33,78 L-32,72 L-26,57 L-19,41 L-14,28 L-10,17 L-6,6 Z M1,21 L-2,26 L-7,39 L-7,44 L-3,47 L9,46 L11,44 L10,33 L6,22 Z " fill="#000000" transform="translate(214,1111)"/>
<path d="M0,0 L5,1 L6,6 L4,8 L-1,7 Z " fill="#000000" transform="translate(1035,1211)"/>
</svg>
