<?xml version="1.0" encoding="UTF-8"?>
<!-- Generator: visioncortex VTracer 0.6.12 -->
<svg version="1.1" xmlns="http://www.w3.org/2000/svg" width="1119" height="1119">
<path d="M0,0 L1119,0 L1119,1119 L0,1119 Z M177,3 L162,4 L55,4 L20,5 L14,8 L12,10 L11,37 L11,135 L9,257 L9,404 L8,524 L8,572 L7,636 L6,682 L6,844 L5,895 L5,935 L4,955 L4,1077 L5,1100 L6,1109 L10,1113 L15,1114 L75,1114 L113,1115 L119,1114 L144,1114 L241,1115 L268,1115 L287,1116 L296,1115 L520,1115 L594,1116 L927,1116 L1000,1117 L1103,1117 L1106,1114 L1107,1102 L1107,943 L1108,891 L1109,835 L1109,722 L1110,693 L1110,556 L1111,468 L1111,441 L1112,398 L1112,273 L1113,84 L1112,19 L1112,12 L1108,7 L1099,5 L940,5 L933,3 L927,4 L657,4 L651,5 L635,4 L383,4 L337,3 L292,3 L275,4 L237,3 Z " fill="#000000" transform="translate(0,0)"/>
<path d="M0,0 L10,0 L32,3 L56,8 L66,12 L74,14 L92,21 L111,30 L122,37 L122,39 L126,41 L135,48 L144,54 L156,66 L160,73 L162,77 L162,85 L154,100 L142,121 L136,129 L127,140 L118,152 L114,159 L108,166 L95,185 L88,195 L84,203 L77,213 L68,227 L56,243 L49,253 L46,257 L42,264 L35,271 L29,274 L18,274 L6,269 L-4,266 L-15,260 L-26,253 L-34,248 L-46,240 L-52,232 L-62,220 L-69,219 L-71,219 L-74,228 L-75,264 L-77,276 L-77,350 L-78,426 L-77,479 L-76,489 L-71,494 L-73,499 L-77,505 L-78,568 L-77,597 L-77,653 L-76,685 L-73,710 L-70,715 L-65,714 L-57,707 L-48,696 L-40,688 L-32,681 L-26,676 L-19,672 L-12,672 L-3,678 L5,684 L10,689 L18,696 L26,703 L39,713 L51,724 L64,735 L73,742 L79,746 L88,754 L88,756 L93,758 L111,772 L118,780 L127,786 L132,789 L147,803 L155,812 L156,815 L156,824 L150,840 L142,854 L136,864 L123,879 L114,890 L104,897 L100,902 L92,908 L83,913 L70,922 L41,936 L28,942 L21,943 L8,946 L-8,948 L-41,949 L-60,949 L-67,947 L-77,946 L-87,943 L-103,937 L-112,933 L-124,927 L-133,921 L-141,916 L-145,911 L-151,907 L-155,902 L-161,897 L-173,881 L-179,872 L-186,864 L-191,855 L-200,840 L-208,824 L-216,806 L-220,793 L-225,781 L-227,774 L-231,766 L-232,756 L-237,744 L-242,720 L-244,715 L-250,678 L-253,666 L-257,635 L-259,613 L-259,596 L-260,583 L-261,580 L-261,525 L-260,499 L-259,495 L-259,474 L-256,441 L-255,423 L-253,410 L-252,386 L-250,375 L-245,337 L-242,327 L-239,299 L-236,280 L-232,263 L-230,253 L-225,229 L-217,203 L-213,187 L-210,178 L-207,168 L-199,151 L-196,142 L-189,126 L-181,113 L-175,104 L-171,97 L-163,86 L-160,81 L-155,76 L-148,64 L-143,60 L-138,54 L-136,54 L-134,50 L-129,45 L-116,35 L-110,30 L-93,20 L-77,12 L-59,7 L-46,3 L-33,3 L-17,2 L-15,1 Z " fill="#000000" transform="translate(606,86)"/>
</svg>
