<?xml version="1.0" encoding="UTF-8"?>
<!-- Generator: visioncortex VTracer 0.6.12 -->
<svg version="1.1" xmlns="http://www.w3.org/2000/svg" width="1182" height="1158">
<path d="M0,0 L41,0 L54,2 L56,4 L57,10 L58,52 L58,90 L59,122 L58,134 L59,194 L60,307 L60,333 L62,578 L62,618 L63,654 L63,687 L64,740 L64,774 L65,872 L66,923 L66,953 L67,1017 L67,1102 L64,1112 L62,1113 L52,1112 L13,1112 L-4,1113 L-131,1113 L-153,1114 L-160,1116 L-183,1119 L-191,1118 L-208,1115 L-226,1114 L-241,1114 L-264,1115 L-270,1114 L-288,1114 L-331,1115 L-383,1115 L-389,1116 L-486,1116 L-494,1117 L-525,1117 L-543,1118 L-611,1118 L-669,1119 L-733,1119 L-809,1120 L-862,1120 L-875,1121 L-960,1121 L-999,1122 L-1069,1122 L-1072,1119 L-1073,1114 L-1072,1106 L-1072,1092 L-1073,1081 L-1073,1054 L-1074,988 L-1074,905 L-1075,887 L-1074,875 L-1075,865 L-1075,845 L-1076,836 L-1076,743 L-1077,664 L-1077,593 L-1078,562 L-1078,444 L-1079,385 L-1079,345 L-1080,229 L-1080,195 L-1081,128 L-1081,73 L-1082,14 L-1078,10 L-1058,10 L-1055,9 L-1044,10 L-1034,9 L-973,9 L-894,8 L-867,7 L-816,7 L-809,8 L-799,6 L-790,8 L-786,7 L-762,7 L-685,6 L-559,6 L-529,5 L-497,5 L-452,4 L-360,4 L-352,3 L-275,2 L-237,2 L-218,1 L-209,2 L-165,1 L-73,1 Z M-749,124 L-749,127 L-745,126 L-745,124 Z M-522,127 L-539,132 L-549,136 L-573,144 L-582,148 L-604,159 L-613,163 L-625,170 L-632,176 L-644,182 L-654,187 L-670,198 L-679,204 L-695,216 L-701,220 L-709,227 L-720,236 L-725,244 L-728,259 L-729,274 L-729,348 L-727,390 L-726,402 L-725,430 L-722,463 L-719,484 L-717,508 L-714,522 L-708,559 L-700,591 L-694,617 L-688,638 L-684,651 L-681,656 L-675,676 L-672,683 L-669,692 L-662,707 L-656,725 L-650,740 L-643,760 L-635,776 L-627,792 L-622,803 L-613,820 L-605,836 L-597,850 L-595,855 L-585,870 L-581,877 L-573,891 L-569,899 L-564,908 L-556,919 L-549,931 L-541,942 L-533,954 L-524,967 L-513,982 L-505,992 L-498,1000 L-490,1007 L-485,1010 L-475,1012 L-454,1014 L-424,1014 L-420,1013 L-412,1013 L-403,1011 L-379,1011 L-342,1007 L-318,1003 L-312,1000 L-298,998 L-289,995 L-279,993 L-261,988 L-253,983 L-252,981 L-252,973 L-256,964 L-273,936 L-281,924 L-289,913 L-295,904 L-299,897 L-309,882 L-319,868 L-327,855 L-331,850 L-336,840 L-343,831 L-350,820 L-357,807 L-368,792 L-379,776 L-385,768 L-389,765 L-404,765 L-412,768 L-422,771 L-434,776 L-444,780 L-457,786 L-473,794 L-481,795 L-488,787 L-494,777 L-500,768 L-505,760 L-515,739 L-520,731 L-523,724 L-526,719 L-529,712 L-537,693 L-542,681 L-548,665 L-552,656 L-558,640 L-566,617 L-571,602 L-575,583 L-578,573 L-586,535 L-589,514 L-593,492 L-595,470 L-595,456 L-596,452 L-596,430 L-595,419 L-592,414 L-586,411 L-569,409 L-554,406 L-550,404 L-535,402 L-527,399 L-512,394 L-507,392 L-502,386 L-501,382 L-500,366 L-500,333 L-501,308 L-501,237 L-503,141 L-506,130 L-511,127 Z " fill="#000000" transform="translate(1097,18)"/>
<path d="M0,0 L3,0 L3,8 L-2,13 L-7,15 L-8,12 L-8,4 L-4,1 Z " fill="#000000" transform="translate(428,655)"/>
</svg>
