<?xml version="1.0" encoding="UTF-8"?>
<!-- Generator: visioncortex VTracer 0.6.12 -->
<svg version="1.1" xmlns="http://www.w3.org/2000/svg" width="987" height="996">
<path d="M0,0 L697,0 L697,2 L709,4 L716,8 L726,10 L755,24 L764,30 L773,36 L783,44 L788,48 L793,54 L801,61 L809,71 L814,76 L815,82 L811,87 L811,95 L814,99 L815,100 L816,85 L821,84 L827,93 L833,103 L841,118 L847,133 L849,135 L850,143 L852,143 L852,844 L849,849 L847,860 L839,883 L834,891 L830,900 L822,913 L817,921 L815,922 L812,927 L807,932 L804,937 L798,942 L793,948 L788,953 L775,964 L767,970 L755,977 L751,981 L738,986 L721,995 L720,996 L18,996 L18,994 L5,993 L-11,987 L-35,976 L-46,969 L-56,962 L-65,956 L-73,949 L-80,942 L-86,937 L-97,923 L-104,914 L-109,907 L-113,899 L-116,895 L-124,879 L-131,865 L-134,854 L-135,853 L-135,150 L-132,141 L-127,129 L-124,122 L-116,104 L-112,98 L-109,91 L-102,81 L-94,70 L-83,57 L-73,46 L-63,39 L-58,34 L-46,25 L-36,19 L-31,15 L-19,9 L-8,4 L0,2 Z M733,28 Z M512,59 L508,64 L507,66 L507,79 L509,82 L513,81 L515,64 L517,62 L517,59 Z M522,68 L522,73 L525,72 L524,68 Z M521,78 Z M412,111 L397,116 L389,118 L380,122 L370,124 L361,127 L345,133 L330,137 L321,140 L307,147 L301,151 L292,163 L283,182 L277,198 L274,203 L271,211 L265,227 L260,242 L254,259 L250,276 L245,292 L239,318 L236,335 L232,354 L229,375 L227,391 L224,411 L223,427 L221,441 L221,451 L220,458 L219,478 L219,522 L220,565 L226,621 L230,652 L234,675 L238,693 L242,713 L246,729 L248,739 L252,748 L255,755 L258,767 L261,776 L261,785 L266,791 L272,807 L277,817 L283,828 L289,837 L302,845 L325,855 L349,863 L360,867 L375,873 L389,878 L400,880 L410,880 L419,878 L427,874 L428,869 L426,860 L424,848 L420,835 L418,823 L416,818 L409,787 L403,763 L401,754 L395,731 L393,721 L388,706 L384,702 L375,700 L346,698 L331,691 L329,691 L327,687 L320,677 L316,669 L314,649 L315,630 L315,544 L316,534 L316,493 L318,427 L318,404 L319,367 L319,336 L321,318 L326,308 L335,298 L349,292 L387,292 L395,289 L398,282 L400,277 L405,255 L408,247 L412,229 L415,220 L418,208 L425,180 L430,163 L436,140 L440,124 L439,119 L434,115 L426,111 Z M460,122 L455,127 L446,156 L442,172 L439,184 L434,201 L430,216 L425,234 L419,261 L414,274 L413,288 L416,291 L428,293 L447,293 L456,290 L462,283 L471,256 L477,230 L484,204 L490,182 L495,161 L499,147 L499,136 L494,131 L486,128 L478,124 L469,123 L467,122 Z M646,510 L645,514 L649,515 L650,511 Z M542,566 L542,570 L546,571 L547,567 Z M421,702 L408,703 L405,706 L405,715 L409,731 L416,759 L422,789 L426,802 L432,829 L437,848 L440,857 L442,865 L446,870 L457,870 L474,865 L480,863 L485,857 L486,853 L485,839 L481,820 L479,815 L477,805 L475,799 L473,787 L469,771 L465,755 L461,738 L459,728 L452,710 L447,705 L436,702 Z " fill="#000000" transform="translate(135,0)"/>
</svg>
