<?xml version="1.0" encoding="UTF-8"?>
<!-- Generator: visioncortex VTracer 0.6.12 -->
<svg version="1.1" xmlns="http://www.w3.org/2000/svg" width="1020" height="999">
<path d="M0,0 L19,0 L15,6 L14,26 L13,70 L12,93 L11,113 L10,252 L9,275 L9,320 L8,350 L7,408 L7,421 L6,442 L6,466 L5,499 L5,526 L4,601 L3,634 L3,659 L2,665 L2,724 L0,797 L0,812 L-1,864 L-1,986 L3,989 L24,990 L118,990 L142,991 L158,991 L163,992 L167,991 L192,991 L237,992 L278,992 L368,993 L418,993 L442,994 L480,994 L489,995 L493,994 L538,995 L677,995 L701,996 L793,996 L812,997 L813,999 L-5,999 L-5,310 L-4,307 L-4,290 L-5,280 L-4,279 L-3,255 L-2,180 L-3,169 L-3,160 L-1,147 L-1,100 L2,90 L1,79 L-1,63 L-1,43 L0,16 Z " fill="#000000" transform="translate(5,0)"/>
<path d="M0,0 L17,0 L14,2 L1,2 Z " fill="#000000" transform="translate(73,0)"/>
<path d="M0,0 L9,0 L7,2 L0,1 Z " fill="#000000" transform="translate(100,0)"/>
<path d="M0,0 L72,0 L69,2 L1,2 Z " fill="#000000" transform="translate(123,0)"/>
<path d="M0,0 L812,0 L812,12 L808,10 L774,9 L763,9 L737,8 L729,8 L723,9 L696,8 L672,7 L648,7 L646,8 L637,8 L624,7 L552,7 L519,6 L430,6 L428,5 L421,5 L418,6 L404,6 L385,5 L378,6 L376,5 L364,5 L355,4 L352,5 L345,5 L343,4 L328,5 L300,4 L279,5 L270,4 L262,5 L252,4 L134,4 L124,3 L13,3 L1,2 Z " fill="#000000" transform="translate(208,0)"/>
<path d="M0,0 L5,1 L9,7 L10,24 L9,60 L9,201 L7,227 L4,234 L2,235 L-21,236 L-34,237 L-52,241 L-65,249 L-67,249 L-69,253 L-77,261 L-82,272 L-85,284 L-85,300 L-83,312 L-77,324 L-67,348 L-59,364 L-51,378 L-43,394 L-33,412 L-26,428 L-18,440 L-15,445 L-7,461 L1,474 L8,485 L16,499 L25,513 L33,528 L37,536 L44,546 L51,561 L62,578 L67,587 L74,599 L82,612 L84,615 L86,622 L91,628 L95,636 L99,641 L103,649 L111,662 L116,671 L121,680 L124,685 L129,690 L133,697 L142,705 L158,713 L161,714 L178,715 L188,713 L204,708 L217,695 L225,684 L233,667 L238,660 L244,656 L253,658 L264,665 L278,673 L289,681 L297,685 L313,694 L324,702 L336,708 L337,711 L343,713 L352,719 L364,726 L375,732 L388,740 L398,747 L406,751 L415,757 L421,761 L436,769 L440,775 L439,781 L433,789 L422,801 L417,805 L412,808 L407,813 L397,821 L387,827 L371,835 L355,842 L334,848 L329,850 L299,855 L292,856 L261,856 L259,855 L230,853 L220,851 L197,846 L177,839 L167,836 L162,833 L149,828 L141,824 L125,816 L111,808 L102,802 L90,795 L84,790 L79,785 L71,779 L63,772 L51,761 L47,758 L47,756 L43,754 L38,750 L31,741 L23,734 L20,730 L20,728 L16,726 L10,721 L3,713 L-3,705 L-13,692 L-20,684 L-31,671 L-37,663 L-43,655 L-49,646 L-59,633 L-63,625 L-74,609 L-80,600 L-84,593 L-87,588 L-92,579 L-101,565 L-111,546 L-119,530 L-123,521 L-130,507 L-140,484 L-144,474 L-150,459 L-153,450 L-157,440 L-160,431 L-163,421 L-170,397 L-172,390 L-174,380 L-178,364 L-181,351 L-186,315 L-188,288 L-189,264 L-188,260 L-186,231 L-184,223 L-182,211 L-174,173 L-172,168 L-169,155 L-162,143 L-159,133 L-156,128 L-148,112 L-142,104 L-132,87 L-124,76 L-114,65 L-109,60 L-97,47 L-81,35 L-76,31 L-67,26 L-50,16 L-43,14 L-34,10 L-20,5 L-19,4 L-10,3 Z M-110,105 L-111,109 L-107,109 L-108,105 Z " fill="#000000" transform="translate(303,59)"/>
<path d="M0,0 L10,0 L20,4 L28,8 L49,15 L51,17 L61,19 L67,24 L69,29 L69,200 L66,205 L61,209 L53,213 L45,214 L36,218 L26,222 L16,225 L8,229 L2,229 L-2,227 L-4,217 L-3,181 L-4,146 L-4,49 L-6,10 L-2,2 Z " fill="#000000" transform="translate(327,63)"/>
<path d="M0,0 L1,0 L1,9 L-1,8 L-1,2 Z " fill="#000000" transform="translate(1019,123)"/>
<path d="M0,0 L1,0 L1,18 L-1,17 L-1,1 Z " fill="#000000" transform="translate(1019,142)"/>
<path d="M0,0 L1,0 L1,643 L0,646 L1,648 L1,671 L0,673 L0,693 L-1,716 L-1,787 L0,822 L-1,827 L-17,827 L-15,822 L-14,811 L-14,784 L-13,775 L-13,747 L-12,680 L-11,650 L-11,611 L-10,593 L-10,507 L-9,489 L-8,426 L-8,376 L-7,351 L-6,302 L-4,174 L-4,141 L-3,131 L-3,101 L-2,23 L-2,3 Z " fill="#000000" transform="translate(1019,172)"/>
<path d="M0,0 L7,1 L18,9 L30,15 L38,20 L48,27 L60,32 L68,38 L85,48 L95,55 L104,61 L124,72 L134,76 L139,80 L148,85 L154,92 L155,101 L152,116 L149,131 L144,156 L140,164 L138,166 L133,165 L124,158 L112,152 L107,147 L91,139 L82,133 L72,126 L56,117 L44,109 L36,105 L26,99 L16,92 L7,86 L-9,78 L-15,73 L-22,69 L-30,63 L-39,58 L-46,54 L-53,48 L-53,43 L-44,35 L-34,27 L-24,18 L-16,11 L-8,5 Z " fill="#000000" transform="translate(611,653)"/>
<path d="M0,0 L8,1 L9,3 L-5,3 L-4,1 Z " fill="#000000" transform="translate(828,996)"/>
<path d="M0,0 L11,0 L13,2 L-2,2 Z " fill="#000000" transform="translate(844,997)"/>
<path d="M0,0 L6,0 L6,1 L0,1 Z " fill="#000000" transform="translate(864,998)"/>
<path d="M0,0 L4,1 L4,2 L-4,2 Z " fill="#000000" transform="translate(875,997)"/>
</svg>
