<?xml version="1.0" encoding="UTF-8"?>
<!-- Generator: visioncortex VTracer 0.6.12 -->
<svg version="1.1" xmlns="http://www.w3.org/2000/svg" width="1035" height="1005">
<path d="M0,0 L28,0 L35,1 L48,1 L55,2 L61,1 L120,1 L141,2 L249,2 L273,3 L280,4 L283,3 L323,3 L334,5 L343,4 L359,4 L370,5 L445,5 L449,6 L458,6 L463,5 L524,6 L630,6 L660,7 L705,7 L744,8 L762,8 L779,9 L790,9 L796,10 L802,8 L823,9 L890,9 L895,10 L915,10 L922,11 L1003,11 L1007,10 L1010,12 L1018,12 L1021,16 L1022,28 L1022,66 L1021,118 L1020,177 L1020,202 L1019,209 L1019,232 L1018,317 L1017,362 L1016,430 L1015,471 L1014,476 L1015,479 L1015,515 L1014,539 L1014,575 L1013,636 L1013,684 L1012,796 L1011,829 L1006,832 L1007,836 L1011,839 L1011,865 L1010,872 L1010,884 L1008,890 L1009,895 L1010,896 L1010,997 L1009,1002 L-11,1002 L-11,189 L-9,189 L-10,178 L-9,171 L-11,166 L-11,123 L-10,120 L-9,53 L-9,5 L-7,1 Z M499,117 L489,120 L466,126 L460,129 L451,131 L438,137 L420,145 L408,150 L400,154 L396,159 L374,169 L361,178 L350,185 L336,195 L330,199 L320,207 L311,218 L308,234 L307,245 L306,274 L305,285 L305,331 L307,372 L308,395 L311,431 L312,448 L316,473 L319,492 L321,506 L325,522 L329,536 L332,554 L339,580 L343,592 L347,602 L352,619 L359,637 L365,656 L373,678 L379,692 L384,702 L391,718 L399,734 L407,749 L411,759 L416,769 L424,783 L430,792 L443,817 L448,823 L454,835 L461,845 L469,858 L477,869 L484,880 L494,892 L500,901 L508,909 L517,912 L534,914 L565,915 L577,913 L593,913 L600,914 L603,913 L624,912 L647,909 L651,908 L663,908 L674,904 L684,903 L689,900 L698,899 L717,892 L722,888 L721,878 L716,870 L712,862 L706,853 L698,839 L692,832 L686,823 L682,815 L673,801 L659,778 L652,768 L641,750 L632,734 L628,728 L622,720 L610,700 L605,695 L600,692 L591,693 L572,698 L563,701 L553,705 L528,716 L518,717 L513,711 L508,702 L501,692 L495,676 L485,657 L478,641 L473,630 L467,614 L463,603 L453,575 L447,557 L444,546 L438,520 L436,514 L433,496 L430,479 L428,461 L426,449 L424,421 L423,385 L426,373 L429,370 L441,368 L456,366 L464,363 L473,363 L495,356 L502,353 L507,348 L510,339 L510,315 L511,290 L511,237 L512,170 L512,151 L511,122 L507,118 Z M309,184 L308,189 L310,190 L313,188 L312,184 Z M688,259 Z M933,598 L930,599 L929,604 L933,607 L937,606 L938,601 Z M620,690 L619,691 L619,696 L623,700 L627,699 L628,698 L628,692 L626,690 Z M551,988 L549,993 L550,995 L554,994 L553,989 Z " fill="#000000" transform="translate(11,3)"/>
</svg>
