<?xml version="1.0" encoding="UTF-8"?>
<!-- Generator: visioncortex VTracer 0.6.12 -->
<svg version="1.1" xmlns="http://www.w3.org/2000/svg" width="1017" height="1002">
<path d="M0,0 L1009,0 L1009,23 L1007,21 L1005,10 L991,8 L948,7 L943,8 L920,8 L913,6 L898,7 L868,7 L858,8 L854,7 L806,6 L780,7 L740,6 L652,6 L630,5 L604,6 L586,6 L580,5 L558,5 L549,4 L544,5 L499,5 L494,4 L476,4 L470,5 L457,5 L451,4 L443,5 L432,5 L428,4 L301,4 L300,3 L294,3 L293,4 L20,4 L14,7 L11,8 L11,50 L8,53 L6,51 L0,52 L-1,51 L-1,2 Z M2,12 L3,16 Z " fill="#000000" transform="translate(8,0)"/>
<path d="M0,0 L1,0 L1,15 L-1,14 L-1,2 Z " fill="#000000" transform="translate(1016,24)"/>
<path d="M0,0 L1,0 L1,10 L0,10 Z " fill="#000000" transform="translate(1016,43)"/>
<path d="M0,0 L1,0 L1,17 L-1,16 L-1,2 Z " fill="#000000" transform="translate(1016,58)"/>
<path d="M0,0 L3,4 L2,16 L2,34 L1,46 L-1,46 L-2,43 L-2,11 L-4,11 L-6,27 L-9,27 L-10,6 L-8,2 L-2,3 Z " fill="#000000" transform="translate(16,59)"/>
<path d="M0,0 L1,0 L1,5 L0,5 Z " fill="#000000" transform="translate(1016,78)"/>
<path d="M0,0 L1,0 L1,755 L-1,765 L-1,817 L-2,913 L-23,913 L-20,910 L-16,906 L-15,903 L-14,836 L-13,812 L-13,784 L-12,716 L-11,641 L-10,591 L-10,564 L-9,537 L-9,516 L-8,468 L-8,460 L-9,451 L-8,447 L-8,430 L-7,401 L-6,348 L-5,333 L-5,267 L-4,255 L-3,205 L-2,22 L-1,15 L-1,1 Z " fill="#000000" transform="translate(1016,89)"/>
<path d="M0,0 L2,3 L1,9 L-2,6 L-1,1 Z " fill="#000000" transform="translate(8,91)"/>
<path d="M0,0 L16,0 L25,4 L31,12 L36,22 L39,34 L43,48 L49,69 L54,84 L57,97 L62,113 L66,125 L70,140 L73,147 L80,172 L87,195 L89,205 L89,214 L87,219 L78,229 L64,236 L49,241 L38,242 L29,246 L16,248 L9,248 L-8,251 L-18,261 L-26,273 L-27,286 L-24,292 L-18,303 L-2,327 L6,338 L12,348 L20,359 L24,366 L31,377 L35,383 L42,395 L45,401 L55,415 L67,435 L71,442 L83,458 L90,470 L94,477 L101,485 L108,496 L118,512 L124,521 L124,523 L128,525 L140,544 L148,555 L154,564 L157,569 L164,579 L171,589 L181,607 L183,611 L192,615 L200,617 L209,617 L221,615 L226,612 L228,612 L230,608 L235,603 L242,590 L251,576 L259,566 L267,555 L272,549 L280,542 L290,537 L309,538 L313,542 L324,549 L331,549 L337,546 L342,542 L347,544 L357,551 L362,556 L371,563 L375,567 L388,577 L388,579 L393,581 L401,587 L407,592 L412,597 L417,600 L422,605 L435,616 L443,622 L448,628 L448,638 L446,642 L446,651 L449,652 L455,659 L463,666 L466,671 L467,675 L466,691 L459,704 L455,709 L446,723 L432,738 L425,746 L416,754 L405,763 L395,771 L382,779 L371,786 L354,793 L340,797 L318,799 L309,798 L291,796 L276,792 L266,787 L262,784 L255,782 L246,778 L230,770 L213,760 L210,757 L201,754 L193,747 L182,740 L177,735 L165,727 L158,721 L153,715 L140,705 L130,697 L125,691 L120,688 L115,683 L113,680 L107,677 L92,662 L85,653 L77,646 L72,641 L63,633 L61,629 L55,625 L48,616 L39,607 L32,599 L21,586 L14,575 L11,572 L10,569 L4,565 L-2,556 L-10,546 L-17,536 L-26,521 L-34,510 L-40,500 L-43,494 L-51,481 L-54,477 L-57,469 L-66,455 L-77,432 L-81,423 L-88,404 L-94,392 L-98,380 L-100,377 L-103,367 L-110,351 L-115,335 L-119,324 L-122,317 L-128,296 L-133,278 L-137,262 L-140,246 L-142,241 L-144,227 L-148,208 L-153,170 L-153,154 L-150,120 L-147,108 L-145,104 L-143,95 L-137,86 L-132,77 L-124,66 L-117,59 L-111,52 L-100,43 L-94,39 L-85,33 L-80,29 L-63,22 L-58,19 L-48,15 L-35,10 L-22,5 L-8,1 Z " fill="#000000" transform="translate(356,98)"/>
<path d="M0,0 L2,1 L4,6 L6,9 L2,15 L0,15 L-1,6 Z " fill="#000000" transform="translate(7,105)"/>
<path d="M0,0 L1,0 L1,10 L-1,10 L-2,3 Z " fill="#000000" transform="translate(16,108)"/>
<path d="M0,0 L2,0 L5,10 L6,11 L8,6 L11,9 L11,71 L10,118 L8,135 L5,138 L5,136 L3,136 L3,157 L5,152 L8,152 L9,156 L9,175 L8,190 L9,196 L8,209 L7,214 L8,221 L7,232 L5,233 L4,231 L3,237 L3,256 L7,257 L7,286 L5,289 L4,287 L3,292 L3,456 L2,484 L2,511 L1,517 L2,520 L2,528 L1,533 L3,539 L0,544 L-7,540 L-7,536 L-2,535 L-3,531 L-7,528 L-7,521 L-2,518 L-3,513 L-5,511 L-4,499 L-7,495 L-6,487 L-3,485 L-3,480 L-5,477 L-6,465 L-7,460 L-6,456 L-7,452 L-6,450 L-6,443 L-7,441 L-7,408 L-4,396 L-5,387 L-5,293 L-6,287 L-5,253 L-5,172 L-4,141 L-4,111 L-5,104 L-4,102 L-4,84 L-2,66 L-2,6 Z M5,62 L4,64 L6,64 Z M6,77 Z M3,210 L1,214 L2,216 L5,215 L4,210 Z M3,273 L3,283 L5,283 L5,273 Z " fill="#000000" transform="translate(7,127)"/>
<path d="M0,0 Z " fill="#000000" transform="translate(12,368)"/>
<path d="M0,0 Z " fill="#000000" transform="translate(12,440)"/>
<path d="M0,0 L2,2 L2,10 L3,16 L1,21 L-3,19 L-6,15 L-6,12 L-1,8 L-1,1 Z " fill="#000000" transform="translate(6,676)"/>
<path d="M0,0 L3,4 L3,30 L2,45 L0,47 L-6,43 L-6,35 L-5,31 L-6,30 L-6,20 L-4,20 L-6,16 L-6,2 Z " fill="#000000" transform="translate(6,698)"/>
<path d="M0,0 L3,0 L4,8 L4,42 L3,49 L4,57 L2,63 L3,72 L3,80 L-1,82 L-4,79 L-4,76 L-2,76 L-1,65 L-4,64 L-4,53 L-1,50 L-2,45 L-4,44 L-4,33 L-2,33 L-2,25 L-4,25 L-4,12 L-2,12 L-4,7 L-4,2 Z " fill="#000000" transform="translate(4,750)"/>
<path d="M0,0 L3,4 L2,28 L3,34 L1,39 L-4,34 L-2,23 L-4,23 L-4,8 Z " fill="#000000" transform="translate(4,836)"/>
<path d="M0,0 Z " fill="#000000" transform="translate(4,880)"/>
<path d="M0,0 L2,1 L3,4 L3,75 L1,80 L-1,76 L-3,76 L-3,52 L-1,52 L-2,47 L-3,42 L-1,42 L-1,37 L-3,37 L-3,2 Z " fill="#000000" transform="translate(3,887)"/>
<path d="M0,0 L2,1 L3,18 L7,22 L10,23 L60,24 L136,24 L206,25 L219,24 L238,24 L283,25 L359,25 L366,26 L372,25 L413,25 L487,26 L502,26 L504,27 L511,27 L515,25 L528,26 L537,27 L539,26 L562,26 L570,27 L578,26 L620,26 L629,27 L702,27 L751,28 L812,29 L930,29 L946,30 L950,32 L-3,32 L-3,6 L-1,6 Z " fill="#000000" transform="translate(3,970)"/>
<path d="M0,0 L8,0 L9,2 L-1,2 Z " fill="#000000" transform="translate(964,1000)"/>
<path d="M0,0 L10,0 L11,2 L-2,2 Z " fill="#000000" transform="translate(979,1000)"/>
</svg>
