<?xml version="1.0" encoding="UTF-8"?>
<!-- Generator: visioncortex VTracer 0.6.12 -->
<svg version="1.1" xmlns="http://www.w3.org/2000/svg" width="1110" height="1125">
<path d="M0,0 L64,0 L62,2 L34,4 L13,8 L3,12 L-6,15 L-16,21 L-25,26 L-38,35 L-51,45 L-60,55 L-67,66 L-74,76 L-81,91 L-88,116 L-90,125 L-91,125 L-91,84 L-82,68 L-70,51 L-64,43 L-59,38 L-49,29 L-39,22 L-28,15 L-24,12 L-12,6 L-5,3 L0,2 Z " fill="#000000" transform="translate(91,0)"/>
<path d="M0,0 L6,0 L6,1 L0,1 Z " fill="#000000" transform="translate(167,0)"/>
<path d="M0,0 L5,0 L5,1 L0,1 Z " fill="#000000" transform="translate(187,0)"/>
<path d="M0,0 L14,0 L12,2 L2,2 Z " fill="#000000" transform="translate(199,0)"/>
<path d="M0,0 L9,0 L8,2 L2,2 Z " fill="#000000" transform="translate(223,0)"/>
<path d="M0,0 L2,1 Z " fill="#000000" transform="translate(275,0)"/>
<path d="M0,0 L41,0 L41,2 L50,4 L61,11 L68,17 L81,25 L92,37 L104,54 L110,64 L114,71 L114,109 L112,108 L109,94 L102,73 L96,61 L88,49 L81,40 L73,33 L71,29 L67,27 L53,18 L45,13 L38,10 L24,6 L1,2 Z " fill="#000000" transform="translate(996,0)"/>
<path d="M0,0 L42,1 L51,3 L61,9 L66,16 L69,23 L70,42 L70,186 L69,232 L66,242 L59,252 L51,257 L45,259 L27,260 L-26,260 L-29,255 L-29,96 L-28,5 L-25,2 L-22,1 Z " fill="#000000" transform="translate(608,111)"/>
<path d="M0,0 L7,2 L9,7 L9,213 L8,251 L6,258 L-12,262 L-22,271 L-28,283 L-32,296 L-37,316 L-40,332 L-44,364 L-47,417 L-46,498 L-45,522 L-44,530 L-43,552 L-39,578 L-36,598 L-29,622 L-24,634 L-18,643 L-10,647 L3,652 L5,655 L6,671 L6,752 L5,855 L4,902 L1,906 L-10,906 L-24,901 L-41,891 L-50,885 L-63,875 L-77,863 L-89,850 L-98,840 L-106,829 L-117,815 L-126,801 L-134,787 L-142,770 L-147,760 L-158,733 L-165,713 L-171,694 L-176,677 L-178,666 L-182,645 L-184,629 L-188,604 L-191,581 L-193,558 L-194,550 L-196,497 L-196,421 L-194,373 L-191,339 L-187,309 L-183,282 L-178,257 L-175,242 L-167,210 L-157,180 L-149,160 L-143,147 L-135,131 L-128,117 L-121,106 L-113,94 L-104,82 L-93,68 L-86,60 L-83,56 L-81,56 L-79,52 L-70,44 L-65,39 L-54,30 L-38,18 L-29,12 L-10,3 L-2,1 Z " fill="#000000" transform="translate(551,113)"/>
<path d="M0,0 L2,1 L2,7 L0,8 Z " fill="#000000" transform="translate(0,353)"/>
<path d="M0,0 Z " fill="#000000" transform="translate(0,367)"/>
<path d="M0,0 L2,2 L1,6 L0,6 Z " fill="#000000" transform="translate(0,392)"/>
<path d="M0,0 L1,0 L1,10 L-1,6 Z " fill="#000000" transform="translate(1109,394)"/>
<path d="M0,0 L2,3 L2,13 L0,17 Z " fill="#000000" transform="translate(0,563)"/>
<path d="M0,0 Z " fill="#000000" transform="translate(0,631)"/>
<path d="M0,0 L2,1 L3,9 L3,50 L2,61 L3,90 L3,105 L2,124 L0,125 Z " fill="#000000" transform="translate(0,643)"/>
<path d="M0,0 L49,0 L72,1 L83,7 L90,15 L93,24 L94,33 L94,145 L93,227 L90,239 L84,249 L71,256 L67,257 L1,257 L-5,255 L-6,253 L-7,204 L-6,107 L-6,79 L-5,14 L-4,4 Z " fill="#000000" transform="translate(582,764)"/>
<path d="M0,0 L1,0 L2,15 L0,17 Z " fill="#000000" transform="translate(0,890)"/>
<path d="M0,0 L2,4 L1,11 L0,11 Z " fill="#000000" transform="translate(0,920)"/>
<path d="M0,0 L2,2 L4,33 L8,68 L12,84 L17,99 L22,111 L34,132 L41,140 L49,147 L60,156 L65,160 L82,168 L89,171 L102,175 L109,177 L109,178 L74,178 L74,176 L68,174 L55,167 L43,159 L27,143 L18,130 L10,114 L6,104 L2,91 L2,89 L0,89 Z " fill="#000000" transform="translate(0,947)"/>
<path d="M0,0 L1,0 L1,38 L-1,38 L-2,44 L-12,60 L-20,70 L-26,77 L-28,77 L-30,81 L-42,91 L-53,98 L-66,106 L-77,112 L-86,114 L-87,115 L-440,115 L-439,113 L-426,112 L-310,112 L-296,111 L-172,111 L-135,110 L-127,109 L-106,108 L-87,104 L-80,101 L-70,97 L-60,91 L-47,82 L-40,75 L-38,75 L-36,71 L-25,59 L-21,54 L-15,43 L-8,31 L-3,15 L-1,2 Z " fill="#000000" transform="translate(1109,1010)"/>
<path d="M0,0 L8,0 L10,2 L-1,2 Z " fill="#000000" transform="translate(596,1123)"/>
<path d="M0,0 L25,1 L35,1 L36,3 L-12,3 L-12,2 Z " fill="#000000" transform="translate(629,1122)"/>
</svg>
