<?xml version="1.0" encoding="UTF-8"?>
<!-- Generator: visioncortex VTracer 0.6.12 -->
<svg version="1.1" xmlns="http://www.w3.org/2000/svg" width="1014" height="1011">
<path d="M0,0 L83,0 L82,2 L38,4 L20,8 L0,15 L-11,21 L-22,27 L-30,34 L-35,39 L-46,50 L-53,59 L-59,69 L-62,74 L-68,87 L-69,88 L-71,98 L-73,103 L-77,127 L-78,135 L-78,191 L-79,228 L-81,230 L-81,228 L-83,228 L-82,237 L-79,240 L-78,246 L-79,294 L-80,301 L-81,301 L-82,286 L-83,313 L-83,343 L-82,349 L-83,358 L-82,364 L-83,384 L-83,593 L-84,610 L-83,615 L-83,748 L-84,753 L-84,762 L-83,772 L-85,779 L-84,787 L-83,802 L-83,821 L-84,826 L-84,855 L-83,887 L-82,903 L-80,903 L-75,918 L-70,930 L-61,947 L-51,959 L-46,964 L-37,973 L-29,979 L-5,992 L2,995 L28,1000 L32,1001 L47,1002 L142,1003 L147,1004 L171,1003 L180,1003 L191,1004 L200,1005 L202,1004 L240,1004 L247,1005 L268,1004 L281,1004 L294,1005 L300,1004 L333,1004 L359,1005 L379,1005 L387,1006 L397,1005 L446,1005 L476,1006 L510,1006 L515,1007 L523,1006 L569,1007 L620,1007 L631,1008 L639,1007 L804,1007 L807,1005 L818,1002 L829,999 L839,994 L851,988 L865,979 L875,971 L879,966 L884,961 L894,949 L900,940 L905,929 L911,914 L916,888 L917,880 L918,832 L919,792 L920,726 L922,720 L920,709 L920,654 L921,553 L922,546 L924,545 L924,916 L920,925 L916,933 L912,943 L907,952 L898,962 L891,972 L885,979 L877,985 L869,992 L863,996 L850,1004 L843,1008 L835,1011 L8,1011 L-5,1005 L-19,1000 L-34,991 L-38,988 L-38,986 L-42,984 L-51,978 L-55,974 L-56,971 L-58,970 L-58,968 L-61,967 L-65,961 L-71,954 L-71,952 L-73,952 L-78,943 L-80,935 L-82,935 L-88,923 L-90,918 L-90,120 L-88,120 L-88,110 L-84,92 L-82,88 L-80,88 L-79,79 L-73,68 L-69,60 L-62,50 L-53,39 L-45,32 L-40,26 L-35,22 L-31,18 L-22,12 L-9,4 Z M-83,214 L-84,219 L-83,221 L-81,221 L-81,215 Z " fill="#000000" transform="translate(90,0)"/>
<path d="M0,0 L164,0 L163,2 L153,3 L98,3 L64,2 L1,2 Z " fill="#000000" transform="translate(177,0)"/>
<path d="M0,0 L33,0 L32,2 L29,3 L2,3 L0,2 Z " fill="#000000" transform="translate(346,0)"/>
<path d="M0,0 L550,0 L550,2 L559,5 L573,13 L580,17 L589,24 L597,31 L611,46 L623,64 L630,81 L632,82 L632,125 L630,125 L629,123 L627,107 L624,96 L615,76 L612,70 L606,60 L599,52 L591,43 L588,40 L580,33 L570,26 L552,16 L541,12 L525,7 L520,6 L506,5 L481,5 L413,4 L403,3 L400,4 L275,4 L237,3 L218,4 L172,4 L157,3 L155,4 L124,4 L117,3 L112,4 L63,3 L19,3 L1,2 Z " fill="#000000" transform="translate(382,0)"/>
<path d="M0,0 L9,0 L26,3 L28,5 L28,21 L20,50 L18,60 L15,68 L13,80 L11,84 L8,100 L0,128 L-4,143 L-9,164 L-14,181 L-17,193 L-23,217 L-27,224 L-31,226 L-47,227 L-59,233 L-66,239 L-73,251 L-76,259 L-77,267 L-78,297 L-80,346 L-80,374 L-81,380 L-82,400 L-83,451 L-85,487 L-85,508 L-86,529 L-85,563 L-82,573 L-78,580 L-70,587 L-61,593 L-55,596 L-42,597 L-37,601 L-33,616 L-31,628 L-27,649 L-23,665 L-21,677 L-19,689 L-15,709 L-12,719 L-9,737 L-1,778 L1,784 L2,795 L4,800 L5,808 L5,820 L-1,825 L-27,825 L-33,823 L-44,821 L-63,816 L-75,811 L-87,805 L-92,800 L-99,796 L-104,793 L-117,782 L-126,775 L-130,770 L-134,757 L-137,749 L-144,724 L-151,694 L-154,679 L-157,664 L-159,656 L-163,632 L-165,616 L-167,604 L-169,581 L-172,563 L-174,542 L-175,538 L-175,526 L-176,521 L-177,505 L-178,447 L-178,418 L-176,369 L-173,328 L-170,299 L-168,290 L-165,269 L-160,243 L-158,230 L-155,215 L-151,200 L-148,188 L-146,176 L-141,160 L-136,139 L-131,123 L-127,108 L-123,97 L-119,83 L-115,75 L-113,65 L-109,57 L-107,48 L-99,41 L-90,34 L-82,29 L-71,24 L-66,22 L-62,18 L-47,13 L-39,9 L-33,7 L-22,5 L-10,2 Z " fill="#000000" transform="translate(542,93)"/>
<path d="M0,0 L5,2 L18,4 L36,9 L41,11 L50,13 L53,17 L53,32 L50,42 L47,50 L45,62 L38,90 L34,102 L30,122 L25,142 L22,152 L18,167 L10,199 L3,218 L-1,223 L-6,226 L-22,226 L-30,224 L-45,222 L-57,218 L-59,213 L-57,202 L-51,177 L-44,152 L-40,136 L-35,119 L-32,104 L-30,100 L-28,92 L-24,77 L-19,57 L-14,37 L-9,19 L-7,10 L-3,2 Z " fill="#000000" transform="translate(587,102)"/>
<path d="M0,0 Z " fill="#000000" transform="translate(9,347)"/>
<path d="M0,0 Z " fill="#000000" transform="translate(9,361)"/>
<path d="M0,0 L1,4 L-1,3 Z " fill="#000000" transform="translate(1013,365)"/>
<path d="M0,0 L1,0 L1,6 L-1,4 Z " fill="#000000" transform="translate(1013,407)"/>
<path d="M0,0 L1,0 L1,8 L-1,6 Z " fill="#000000" transform="translate(1013,421)"/>
<path d="M0,0 L1,0 L1,24 L-1,22 L-1,2 Z " fill="#000000" transform="translate(1013,440)"/>
<path d="M0,0 L1,0 L1,16 L0,16 L-1,11 L-1,1 Z " fill="#000000" transform="translate(1013,467)"/>
<path d="M0,0 L1,0 L1,10 L-1,9 L-1,1 Z " fill="#000000" transform="translate(1013,488)"/>
<path d="M0,0 L1,0 L1,8 L-1,7 L-1,1 Z " fill="#000000" transform="translate(1013,503)"/>
<path d="M0,0 L1,0 L1,20 L-1,19 L-1,1 Z " fill="#000000" transform="translate(1013,519)"/>
<path d="M0,0 L13,0 L18,4 L21,10 L26,36 L27,45 L29,51 L31,64 L34,74 L36,87 L38,93 L43,122 L44,131 L47,140 L50,152 L53,169 L58,192 L59,196 L59,210 L54,216 L47,220 L37,222 L24,224 L11,226 L3,226 L-1,220 L-4,209 L-6,197 L-10,178 L-15,152 L-20,128 L-23,108 L-25,102 L-27,88 L-32,68 L-34,53 L-40,25 L-42,16 L-42,9 L-38,5 L-31,4 L-23,3 L-20,2 L-4,2 Z " fill="#000000" transform="translate(559,684)"/>
</svg>
