<?xml version="1.0" encoding="UTF-8"?>
<!-- Generator: visioncortex VTracer 0.6.12 -->
<svg version="1.1" xmlns="http://www.w3.org/2000/svg" width="1230" height="1317">
<path d="M0,0 L62,0 L98,1 L129,1 L140,2 L252,2 L279,3 L333,3 L370,4 L393,4 L435,5 L438,4 L468,5 L629,5 L696,6 L716,6 L743,7 L763,9 L782,13 L788,15 L798,17 L816,25 L827,34 L836,40 L841,44 L848,52 L856,63 L863,74 L868,85 L871,96 L875,116 L876,129 L876,157 L875,198 L875,220 L874,312 L873,354 L872,408 L872,425 L871,480 L871,646 L870,780 L870,882 L868,920 L865,941 L857,962 L849,975 L839,988 L828,999 L816,1008 L806,1014 L787,1024 L779,1026 L770,1029 L755,1031 L740,1032 L705,1032 L542,1030 L475,1030 L428,1029 L331,1029 L257,1028 L143,1028 L68,1027 L15,1027 L-26,1026 L-40,1025 L-61,1019 L-84,1008 L-95,1000 L-103,993 L-111,985 L-118,975 L-127,958 L-133,942 L-137,929 L-140,913 L-144,869 L-143,796 L-143,744 L-142,627 L-142,610 L-141,590 L-141,522 L-140,506 L-140,429 L-139,273 L-139,232 L-138,159 L-137,128 L-135,108 L-132,94 L-127,80 L-121,69 L-111,55 L-103,45 L-94,36 L-82,28 L-72,21 L-66,17 L-44,7 L-32,4 L-22,2 L-18,1 L-3,1 Z M9,10 L-18,12 L-35,15 L-50,21 L-67,30 L-77,37 L-87,44 L-97,53 L-107,66 L-114,77 L-121,93 L-124,102 L-127,115 L-129,151 L-130,237 L-130,364 L-131,480 L-131,524 L-132,566 L-132,663 L-133,695 L-133,880 L-130,911 L-126,929 L-123,939 L-118,953 L-113,961 L-108,970 L-100,980 L-93,987 L-85,994 L-71,1003 L-60,1008 L-51,1011 L-41,1014 L-21,1017 L42,1018 L132,1018 L210,1019 L264,1019 L341,1020 L494,1020 L510,1021 L529,1021 L556,1020 L642,1020 L661,1021 L714,1021 L753,1020 L769,1018 L781,1015 L796,1009 L808,1002 L813,998 L824,989 L837,975 L847,959 L851,953 L857,935 L859,919 L860,905 L861,836 L861,789 L862,728 L863,556 L863,373 L864,335 L865,308 L866,160 L866,124 L863,105 L858,88 L850,72 L843,62 L836,53 L828,46 L819,39 L808,32 L803,29 L787,24 L775,21 L755,18 L710,15 L642,15 L592,14 L418,14 L411,13 L358,13 L310,12 L261,12 L226,11 L217,10 L214,11 L76,11 L49,10 Z " fill="#000000" transform="translate(301,36)"/>
<path d="M0,0 L7,1 L8,3 L9,15 L8,112 L6,217 L5,229 L2,232 L-14,236 L-21,242 L-27,253 L-33,274 L-37,291 L-42,321 L-45,363 L-45,445 L-43,487 L-41,510 L-36,540 L-29,563 L-23,573 L-21,577 L-12,580 L-2,584 L-1,586 L-1,718 L-2,773 L-3,807 L-5,812 L-10,813 L-20,812 L-35,804 L-47,797 L-61,786 L-74,775 L-83,766 L-92,755 L-105,738 L-115,724 L-121,714 L-125,707 L-130,698 L-133,691 L-138,679 L-142,669 L-148,654 L-154,636 L-160,617 L-165,593 L-166,591 L-168,576 L-172,554 L-174,534 L-175,530 L-177,500 L-178,494 L-180,426 L-180,401 L-178,343 L-176,327 L-175,310 L-173,298 L-172,283 L-169,268 L-165,245 L-162,229 L-160,217 L-155,202 L-151,184 L-147,174 L-141,157 L-138,149 L-130,131 L-122,116 L-116,104 L-106,89 L-97,76 L-83,58 L-77,53 L-73,47 L-65,41 L-61,36 L-52,29 L-43,22 L-29,12 L-14,5 Z M-135,261 L-136,266 L-132,267 L-131,263 Z " fill="#000000" transform="translate(667,150)"/>
<path d="M0,0 L60,0 L70,3 L78,8 L85,22 L85,49 L84,108 L84,147 L83,195 L82,209 L79,218 L74,225 L65,231 L58,233 L-1,233 L-5,229 L-6,212 L-6,196 L-3,43 L-3,26 L-2,1 Z " fill="#000000" transform="translate(695,150)"/>
<path d="M0,0 L42,0 L50,1 L65,2 L74,8 L80,15 L82,20 L83,27 L83,91 L82,187 L81,206 L77,219 L73,225 L63,231 L55,233 L13,232 L-4,231 L-7,228 L-8,198 L-7,162 L-5,30 L-4,6 L-2,1 Z " fill="#000000" transform="translate(689,733)"/>
<path d="M0,0 L3,0 L3,3 L0,2 Z " fill="#000000" transform="translate(1053,871)"/>
<path d="M0,0 L36,1 L46,4 L55,10 L59,14 L62,23 L64,32 L64,47 L60,63 L56,70 L51,76 L45,81 L38,83 L-3,84 L-5,82 L-4,16 L-3,4 Z M12,12 L10,13 L8,18 L8,66 L11,71 L35,71 L41,68 L47,61 L50,52 L50,30 L46,22 L38,15 L33,13 Z " fill="#000000" transform="translate(187,1122)"/>
<path d="M0,0 L13,0 L23,2 L35,10 L42,20 L45,29 L47,40 L45,56 L40,68 L31,78 L24,83 L15,86 L4,86 L-5,85 L-13,81 L-21,75 L-25,70 L-31,55 L-31,32 L-28,22 L-21,12 L-16,8 L-6,2 Z M-2,13 L-7,16 L-14,24 L-18,32 L-19,40 L-19,50 L-16,61 L-8,70 L-2,73 L2,74 L13,74 L23,69 L28,63 L32,55 L33,48 L33,36 L31,27 L27,21 L19,14 L17,13 Z " fill="#000000" transform="translate(295,1122)"/>
<path d="M0,0 L15,1 L61,1 L63,4 L63,11 L58,16 L51,15 L39,15 L37,16 L36,22 L36,82 L33,85 L23,85 L22,84 L22,20 L21,16 L19,15 L-1,15 L-4,12 L-3,4 Z " fill="#000000" transform="translate(353,1122)"/>
<path d="M0,0 L6,0 L10,3 L10,18 L7,26 L2,32 L-3,32 L-4,31 L-4,26 L0,21 L0,16 L-4,12 L-4,5 Z " fill="#000000" transform="translate(430,1123)"/>
<path d="M0,0 L6,1 L8,3 L8,31 L7,49 L10,52 L16,53 L18,55 L18,62 L14,65 L8,66 L7,69 L7,79 L5,83 L-2,84 L-6,81 L-6,66 L-7,64 L-36,64 L-39,61 L-38,52 L-32,43 L-17,21 L-8,9 L-2,1 Z M-9,27 L-16,38 L-22,45 L-23,52 L-22,53 L-6,53 L-5,51 L-4,37 L-3,29 L-5,27 Z " fill="#000000" transform="translate(552,1123)"/>
<path d="M0,0 L49,0 L51,2 L50,11 L46,17 L39,27 L31,41 L25,56 L23,65 L21,78 L19,81 L13,82 L8,80 L7,74 L12,54 L18,41 L26,27 L33,18 L34,14 L1,14 L-2,11 L-2,4 Z " fill="#000000" transform="translate(457,1125)"/>
<path d="M0,0 L17,0 L64,1 L82,1 L120,2 L146,2 L228,3 L263,3 L269,2 L270,3 L304,4 L345,4 L421,5 L479,5 L552,6 L997,6 L1003,5 L1007,6 L1067,7 L1196,7 L1198,9 L1198,58 L1197,60 L296,60 L295,59 L259,59 L253,60 L251,59 L227,59 L201,58 L107,57 L80,57 L28,56 L12,56 L0,55 Z " fill="#000000" transform="translate(0,1257)"/>
</svg>
