<?xml version="1.0" encoding="UTF-8"?>
<!-- Generator: visioncortex VTracer 0.6.12 -->
<svg version="1.1" xmlns="http://www.w3.org/2000/svg" width="990" height="993">
<path d="M0,0 L49,0 L62,1 L64,2 L85,3 L92,6 L109,7 L115,9 L122,9 L136,14 L148,16 L176,26 L184,30 L202,36 L227,48 L239,54 L261,66 L270,72 L283,80 L293,89 L305,97 L310,101 L315,106 L323,112 L328,117 L336,126 L347,135 L361,149 L368,158 L374,166 L382,173 L390,184 L398,195 L410,212 L418,227 L425,238 L436,259 L447,285 L454,302 L461,324 L465,337 L473,375 L476,389 L479,421 L480,426 L481,441 L481,454 L482,464 L478,515 L475,533 L473,550 L468,567 L463,588 L451,624 L448,631 L443,644 L439,651 L435,661 L432,666 L424,681 L420,689 L414,700 L408,709 L402,718 L395,729 L391,734 L386,742 L376,753 L368,765 L363,769 L356,777 L346,787 L341,792 L333,799 L328,804 L316,815 L303,825 L294,832 L278,843 L272,847 L257,857 L248,862 L238,868 L223,876 L211,881 L203,886 L191,891 L178,896 L168,899 L147,906 L132,910 L122,913 L111,915 L101,917 L92,919 L71,922 L57,923 L49,924 L43,923 L39,924 L20,925 L-8,925 L-12,924 L-51,921 L-69,919 L-76,916 L-92,913 L-101,910 L-118,906 L-134,901 L-143,897 L-167,888 L-184,880 L-203,870 L-218,862 L-223,859 L-239,849 L-246,842 L-262,833 L-267,829 L-272,824 L-280,817 L-290,809 L-304,796 L-304,794 L-308,792 L-321,779 L-328,771 L-337,761 L-344,752 L-350,746 L-354,739 L-362,728 L-374,708 L-379,700 L-387,687 L-395,671 L-402,656 L-411,634 L-416,620 L-422,605 L-428,585 L-435,552 L-440,520 L-442,480 L-442,446 L-440,419 L-435,385 L-426,344 L-420,324 L-416,312 L-405,285 L-398,270 L-388,251 L-382,239 L-373,224 L-365,211 L-358,200 L-346,184 L-332,167 L-319,152 L-307,139 L-292,125 L-286,118 L-275,109 L-272,108 L-271,105 L-263,99 L-250,89 L-242,83 L-222,70 L-207,61 L-195,54 L-179,47 L-167,41 L-155,36 L-145,32 L-138,29 L-131,27 L-123,23 L-112,20 L-87,13 L-58,7 L-45,5 L-42,4 L-16,2 Z M113,74 L101,76 L91,84 L82,90 L75,96 L67,103 L51,116 L48,121 L43,126 L34,135 L28,143 L20,153 L12,163 L6,171 L0,179 L-10,194 L-19,207 L-25,217 L-32,227 L-38,237 L-43,245 L-47,252 L-55,265 L-68,290 L-72,296 L-80,313 L-86,325 L-91,337 L-100,357 L-106,373 L-110,384 L-114,393 L-117,403 L-121,413 L-129,438 L-132,446 L-136,462 L-141,479 L-144,495 L-149,517 L-153,533 L-158,556 L-162,582 L-167,628 L-170,670 L-170,722 L-169,732 L-168,760 L-162,802 L-157,819 L-151,827 L-142,835 L-138,841 L-121,853 L-111,860 L-100,866 L-85,874 L-78,878 L-61,886 L-52,889 L-28,897 L-22,898 L-12,898 L-9,895 L-7,876 L-5,824 L-4,816 L-3,770 L-1,710 L-1,692 L-3,685 L-9,681 L-16,682 L-28,684 L-37,683 L-46,678 L-50,672 L-50,659 L-45,643 L-39,627 L-33,611 L-26,591 L-20,575 L-12,553 L-4,529 L2,513 L9,494 L16,475 L21,462 L29,438 L35,422 L41,404 L48,384 L56,361 L60,350 L68,329 L78,299 L87,273 L92,264 L97,258 L100,256 L107,256 L117,260 L123,267 L131,279 L136,281 L144,274 L150,267 L162,248 L168,239 L179,222 L184,218 L188,209 L196,198 L204,185 L211,175 L217,166 L225,153 L230,146 L233,140 L237,135 L244,124 L249,116 L252,110 L252,104 L250,100 L239,94 L226,90 L212,85 L201,82 L189,80 L187,79 L169,77 L166,76 L141,75 L129,74 Z M274,119 L268,123 L260,133 L255,142 L249,151 L242,163 L232,177 L228,184 L220,194 L212,208 L200,227 L191,240 L183,253 L173,268 L166,279 L159,288 L155,296 L155,303 L166,311 L179,315 L196,315 L205,310 L213,301 L217,295 L223,286 L232,272 L238,264 L242,256 L251,243 L257,235 L257,233 L259,233 L267,219 L281,198 L288,187 L295,177 L301,167 L304,161 L305,157 L305,147 L300,135 L290,126 L281,119 Z M31,684 L27,689 L26,692 L24,726 L23,756 L22,780 L20,798 L18,848 L17,864 L17,889 L19,897 L22,899 L37,899 L50,897 L61,893 L66,890 L72,881 L74,870 L76,830 L78,795 L79,761 L80,746 L80,714 L78,704 L73,697 L63,691 L58,688 L48,686 L43,684 Z " fill="#000000" transform="translate(477,35)"/>
</svg>
