<?xml version="1.0" encoding="UTF-8"?>
<!-- Generator: visioncortex VTracer 0.6.12 -->
<svg version="1.1" xmlns="http://www.w3.org/2000/svg" width="1125" height="1113">
<path d="M0,0 L702,0 L703,2 L703,8 L699,12 L647,12 L635,11 L596,10 L491,10 L484,9 L468,10 L451,10 L446,9 L425,9 L418,10 L404,8 L344,8 L331,7 L301,7 L295,8 L278,7 L247,7 L245,8 L244,11 L242,11 L241,7 L234,6 L168,6 L137,5 L110,5 L101,4 L68,4 L61,5 L16,5 L13,10 L12,26 L11,83 L10,198 L9,217 L9,262 L8,296 L7,369 L7,398 L6,419 L4,635 L3,655 L3,739 L4,746 L4,762 L3,768 L2,791 L1,910 L1,971 L0,1048 L0,1067 L-2,1068 L-2,118 L-1,114 L-1,95 L-2,93 L-2,79 L-1,77 L-1,61 L0,52 Z " fill="#000000" transform="translate(2,0)"/>
<path d="M0,0 L42,0 L43,1 L63,1 L73,0 L78,1 L152,2 L198,3 L304,3 L311,4 L336,4 L365,6 L375,6 L393,8 L397,8 L397,19 L385,18 L347,17 L281,17 L262,16 L205,15 L169,14 L115,13 L92,12 L16,12 L-5,13 L-8,11 L-8,6 L-3,2 L0,2 Z " fill="#000000" transform="translate(728,0)"/>
<path d="M0,0 L24,1 L27,3 L26,12 L19,33 L15,44 L13,52 L9,62 L5,77 L2,89 L0,93 L-4,109 L-7,119 L-10,126 L-17,150 L-23,169 L-29,188 L-36,209 L-40,225 L-43,236 L-46,244 L-49,257 L-49,266 L-47,269 L-42,270 L29,272 L79,272 L84,271 L106,271 L110,274 L110,282 L103,305 L97,324 L90,345 L86,360 L87,369 L90,371 L212,371 L257,372 L340,373 L358,373 L377,374 L387,374 L392,379 L391,394 L391,472 L389,658 L389,731 L388,757 L388,784 L387,824 L387,861 L386,907 L386,964 L385,989 L383,997 L381,999 L266,999 L217,998 L187,997 L179,998 L154,997 L134,997 L112,996 L75,996 L34,995 L-123,993 L-154,992 L-168,991 L-262,991 L-269,993 L-273,991 L-284,990 L-315,990 L-318,989 L-344,989 L-429,987 L-438,985 L-441,982 L-441,973 L-440,971 L-440,941 L-441,931 L-440,918 L-440,826 L-439,770 L-439,749 L-438,733 L-439,715 L-439,704 L-438,698 L-438,653 L-437,636 L-437,611 L-436,598 L-436,509 L-435,486 L-436,454 L-435,415 L-435,390 L-436,386 L-436,374 L-433,365 L-430,363 L-330,363 L-319,364 L-273,364 L-173,366 L-143,368 L-95,370 L-60,370 L7,371 L14,369 L16,364 L21,348 L21,340 L16,335 L10,334 L2,335 L-32,335 L-42,334 L-83,334 L-118,333 L-131,332 L-137,329 L-138,322 L-131,300 L-128,295 L-124,280 L-120,271 L-118,257 L-114,246 L-109,231 L-106,214 L-102,203 L-98,192 L-96,184 L-93,174 L-89,163 L-84,146 L-81,133 L-78,123 L-73,112 L-70,100 L-68,96 L-66,83 L-62,73 L-58,56 L-53,40 L-49,27 L-45,15 L-40,5 L-35,1 Z M-83,196 L-85,197 L-85,208 L-82,212 L-79,212 L-78,210 L-79,199 L-82,196 Z M-103,268 L-104,269 L-104,274 L-101,276 L-98,274 L-98,269 Z M79,290 L76,295 L77,302 L81,303 L83,301 L83,292 Z M-303,377 L-308,381 L-314,384 L-313,388 L-311,389 L-302,388 L-298,385 L-298,378 Z M-386,393 L-395,397 L-396,402 L-391,410 L-382,419 L-376,426 L-371,431 L-332,470 L-325,478 L-319,483 L-314,488 L-305,498 L-299,506 L-289,515 L-287,515 L-285,519 L-274,531 L-256,549 L-251,554 L-209,596 L-203,604 L-188,620 L-181,628 L-167,642 L-162,647 L-153,656 L-144,667 L-128,682 L-121,690 L-114,699 L-107,706 L-102,711 L-94,719 L-89,724 L-82,730 L-75,738 L-65,748 L-58,756 L-54,761 L-49,766 L-39,775 L-32,781 L-24,781 L-17,777 L-8,768 L0,761 L7,753 L13,748 L19,741 L26,735 L31,730 L38,723 L43,718 L54,707 L61,699 L72,690 L80,683 L87,675 L105,657 L113,650 L122,640 L127,636 L134,628 L141,620 L152,611 L164,598 L180,583 L185,578 L195,568 L199,564 L207,557 L217,547 L222,542 L226,537 L234,530 L243,521 L248,516 L254,511 L261,503 L274,490 L285,481 L292,473 L300,466 L305,461 L313,454 L313,452 L315,452 L322,444 L334,431 L341,423 L349,415 L350,408 L346,402 L258,401 L204,400 L173,399 L81,399 L73,404 L68,414 L64,428 L59,443 L55,458 L50,471 L48,481 L44,491 L42,499 L38,510 L33,527 L26,549 L22,562 L17,577 L15,591 L18,598 L24,600 L84,600 L86,601 L85,607 L76,617 L71,622 L56,637 L49,643 L44,648 L30,663 L22,670 L15,678 L7,685 L2,689 L-5,697 L-12,704 L-19,710 L-23,714 L-29,714 L-37,708 L-67,678 L-76,667 L-111,632 L-120,621 L-125,616 L-135,605 L-137,601 L-137,595 L-120,595 L-117,596 L-91,597 L-82,598 L-67,598 L-58,597 L-53,593 L-45,569 L-41,558 L-36,538 L-31,526 L-20,487 L-16,475 L-12,462 L-10,457 L-6,441 L-2,427 L1,420 L2,414 L2,402 L-2,399 L-5,398 L-33,397 L-96,397 L-143,396 L-193,396 L-214,395 L-229,395 L-268,394 L-340,394 L-365,393 Z M375,411 L374,416 L378,417 L379,412 Z M-424,413 L-426,415 L-425,419 L-420,418 L-419,415 L-421,413 Z M-403,414 L-408,418 L-413,420 L-414,423 L-411,426 L-406,425 L-400,420 L-400,415 Z M-405,441 L-408,445 L-409,484 L-409,541 L-410,584 L-410,616 L-411,669 L-411,713 L-412,843 L-412,881 L-411,907 L-408,910 L-401,909 L-391,900 L-386,895 L-377,886 L-369,879 L-361,871 L-354,863 L-344,853 L-339,848 L-328,836 L-319,828 L-312,820 L-302,811 L-296,807 L-283,792 L-266,775 L-259,767 L-248,758 L-227,737 L-219,730 L-214,725 L-206,718 L-200,711 L-192,704 L-179,691 L-175,685 L-174,677 L-178,669 L-187,660 L-196,649 L-220,625 L-227,617 L-241,603 L-248,595 L-251,592 L-253,592 L-255,588 L-267,575 L-272,570 L-276,565 L-281,560 L-291,551 L-300,541 L-313,528 L-320,520 L-327,514 L-334,506 L-341,499 L-348,491 L-359,480 L-366,474 L-373,466 L-384,455 L-392,448 L-400,441 Z M355,449 L351,452 L351,454 L347,456 L341,461 L336,467 L328,474 L319,483 L314,488 L308,495 L300,502 L289,513 L281,520 L265,537 L257,544 L248,553 L241,561 L233,568 L222,579 L214,586 L200,600 L195,606 L187,613 L182,619 L174,626 L165,635 L165,637 L162,638 L157,643 L147,653 L142,658 L130,671 L123,677 L120,683 L121,690 L128,699 L169,740 L175,747 L186,756 L195,767 L207,779 L212,783 L217,788 L224,796 L229,801 L238,812 L248,821 L253,827 L261,834 L270,843 L281,857 L293,869 L298,874 L312,889 L319,896 L326,905 L334,912 L346,924 L352,926 L356,923 L357,911 L359,904 L359,859 L360,797 L361,773 L361,759 L360,749 L361,743 L362,694 L363,671 L362,662 L362,652 L363,641 L363,626 L362,599 L363,535 L363,468 L362,454 L357,449 Z M-426,465 L-427,470 L-425,472 L-420,471 L-421,466 Z M-309,512 L-310,513 L-310,521 L-308,523 L-303,523 L-302,519 L-305,513 Z M-423,517 L-424,518 L-424,523 L-420,523 L-419,519 Z M-424,563 L-426,567 L-425,572 L-421,573 L-420,572 L-420,565 L-421,563 Z M207,571 L203,576 L203,581 L204,582 L209,582 L211,578 L211,572 Z M-427,642 L-430,647 L-430,656 L-426,657 L-423,651 L-424,643 Z M-426,672 L-426,674 L-423,673 Z M89,688 L89,692 L92,691 Z M-153,705 L-160,710 L-165,715 L-178,728 L-185,736 L-202,752 L-218,768 L-223,773 L-230,779 L-237,787 L-242,792 L-248,797 L-255,805 L-263,812 L-270,820 L-282,832 L-287,837 L-299,849 L-304,854 L-315,865 L-320,870 L-331,880 L-336,885 L-342,892 L-350,899 L-355,904 L-365,914 L-373,921 L-373,923 L-377,925 L-387,936 L-392,941 L-398,946 L-400,950 L-400,956 L-396,959 L-378,960 L-309,960 L-300,961 L-187,961 L-160,962 L-149,963 L-82,963 L-48,964 L21,964 L42,966 L54,966 L56,965 L67,965 L71,966 L162,966 L188,968 L223,968 L293,970 L312,971 L333,970 L340,967 L342,962 L340,956 L329,945 L322,936 L315,929 L310,925 L305,918 L297,911 L290,904 L283,896 L274,886 L269,882 L268,880 L266,880 L264,876 L259,870 L251,863 L246,859 L239,850 L234,846 L227,838 L212,823 L205,815 L200,810 L192,802 L188,797 L182,792 L177,787 L170,779 L165,774 L145,754 L138,746 L134,741 L126,734 L103,711 L97,708 L92,709 L84,716 L60,740 L52,747 L47,752 L40,760 L24,775 L11,788 L6,793 L-11,809 L-20,819 L-24,822 L-32,823 L-48,806 L-54,799 L-62,792 L-71,781 L-84,769 L-89,762 L-94,757 L-97,752 L-103,749 L-110,741 L-115,736 L-126,724 L-131,718 L-139,711 L-147,705 Z M68,707 L66,713 L67,715 L72,714 L73,709 L71,707 Z M-249,776 L-251,780 L-247,781 L-245,778 Z M-428,790 L-430,793 L-429,803 L-428,805 L-424,805 L-423,803 L-423,793 L-424,790 Z M-274,804 L-275,808 L-271,807 L-272,804 Z M-428,847 L-429,851 L-425,852 L-424,848 Z M-425,950 L-428,953 L-427,965 L-423,965 L-419,957 L-420,952 L-422,950 Z M-216,974 L-218,976 L-217,981 L-212,980 L-212,975 Z M320,981 L317,984 L318,988 L322,990 L325,987 L324,982 Z " fill="#000000" transform="translate(601,33)"/>
<path d="M0,0 L1,0 L1,6 L0,6 Z " fill="#000000" transform="translate(1124,564)"/>
<path d="M0,0 L1,0 L1,492 L-9,492 L-8,416 L-7,387 L-6,297 L-6,280 L-5,246 L-4,170 L-3,150 L-3,118 L-2,21 L-1,7 Z " fill="#000000" transform="translate(1124,621)"/>
<path d="M0,0 L4,2 L9,5 L16,8 L20,9 L23,4 L37,3 L53,3 L81,5 L96,5 L106,6 L126,6 L158,7 L176,7 L235,9 L276,10 L321,10 L342,11 L351,10 L361,11 L400,12 L409,13 L431,13 L439,14 L444,13 L469,13 L502,14 L506,13 L524,14 L592,14 L631,15 L672,15 L737,16 L747,17 L751,20 L751,22 L173,22 L172,21 L75,20 L59,20 L11,19 L0,18 Z " fill="#000000" transform="translate(0,1091)"/>
<path d="M0,0 L41,0 L56,1 L63,2 L65,1 L136,1 L164,2 L220,2 L247,3 L249,5 L-3,5 Z " fill="#000000" transform="translate(758,1108)"/>
</svg>
