<?xml version="1.0" encoding="UTF-8"?>
<!-- Generator: visioncortex VTracer 0.6.12 -->
<svg version="1.1" xmlns="http://www.w3.org/2000/svg" width="1110" height="1119">
<path d="M0,0 L1110,0 L1110,1119 L0,1119 Z M511,101 L507,105 L506,113 L505,145 L505,175 L504,224 L504,293 L508,297 L513,298 L534,298 L541,296 L544,292 L545,266 L546,210 L551,209 L553,214 L560,222 L569,232 L578,243 L586,251 L592,259 L599,266 L604,273 L607,275 L613,274 L618,268 L631,248 L639,235 L646,225 L653,214 L663,199 L670,188 L676,179 L678,176 L684,176 L686,182 L699,200 L708,213 L712,219 L719,229 L732,248 L742,262 L752,276 L758,277 L767,267 L774,256 L783,244 L793,230 L797,224 L806,211 L819,193 L831,176 L835,175 L837,175 L839,180 L847,193 L856,208 L867,225 L881,247 L890,261 L898,273 L903,276 L908,273 L918,262 L923,257 L930,249 L935,244 L943,234 L948,229 L962,215 L967,207 L972,207 L972,272 L971,350 L971,364 L966,363 L959,355 L949,347 L933,337 L918,330 L909,327 L882,323 L870,323 L852,326 L837,330 L827,334 L810,344 L797,355 L785,367 L783,370 L783,379 L790,388 L800,398 L811,407 L821,413 L835,420 L851,425 L863,427 L873,428 L895,427 L917,422 L937,413 L947,406 L952,403 L963,393 L968,388 L971,388 L970,465 L969,515 L965,519 L899,518 L887,519 L882,524 L881,531 L881,560 L879,563 L863,564 L842,563 L828,556 L820,546 L817,539 L816,524 L813,519 L801,517 L789,517 L781,520 L779,528 L779,541 L781,553 L789,570 L796,579 L800,581 L801,584 L819,595 L830,599 L836,600 L879,601 L883,604 L887,629 L888,640 L892,658 L897,679 L905,704 L918,732 L922,738 L923,743 L822,743 L802,742 L771,742 L741,741 L719,737 L707,733 L692,726 L682,720 L675,716 L662,705 L653,697 L642,683 L631,665 L625,652 L620,636 L617,625 L616,617 L616,491 L617,438 L616,332 L614,325 L610,326 L602,333 L593,343 L584,354 L570,369 L563,377 L555,385 L548,393 L536,407 L523,421 L523,423 L519,425 L516,429 L512,428 L505,418 L490,395 L482,382 L475,372 L469,363 L460,349 L456,341 L447,328 L443,323 L438,323 L429,334 L422,345 L412,359 L401,375 L393,387 L384,399 L374,416 L369,424 L367,427 L363,427 L356,416 L350,409 L342,398 L335,388 L327,377 L319,366 L309,352 L303,344 L295,333 L288,324 L287,323 L280,324 L273,334 L266,345 L260,354 L250,369 L241,383 L234,393 L226,406 L216,421 L215,423 L210,423 L198,410 L191,402 L179,388 L166,373 L150,356 L142,346 L128,331 L121,323 L116,323 L113,330 L112,336 L112,400 L111,451 L111,539 L114,544 L115,545 L127,546 L146,545 L151,540 L152,528 L152,498 L153,449 L153,431 L157,430 L168,443 L180,456 L187,465 L198,477 L205,485 L210,491 L214,494 L220,494 L225,488 L235,472 L245,457 L255,442 L261,431 L268,422 L276,409 L283,398 L285,396 L290,396 L292,401 L296,406 L301,415 L311,428 L318,438 L324,446 L329,452 L333,459 L341,470 L351,485 L358,494 L362,498 L366,497 L370,491 L377,482 L384,470 L393,458 L401,447 L410,433 L418,422 L431,403 L436,397 L436,395 L441,395 L447,405 L454,415 L461,427 L471,442 L484,463 L492,476 L502,490 L506,495 L511,494 L518,488 L525,480 L534,470 L541,462 L548,454 L553,449 L565,436 L573,426 L577,427 L576,582 L571,580 L564,573 L553,564 L539,556 L530,551 L516,546 L500,543 L468,543 L452,547 L438,551 L417,562 L412,567 L402,576 L391,587 L388,593 L389,599 L401,613 L409,621 L415,625 L424,631 L440,639 L451,643 L474,647 L491,647 L508,645 L535,636 L544,631 L556,623 L569,611 L573,607 L575,607 L575,733 L574,738 L493,738 L488,743 L487,748 L486,781 L485,784 L450,784 L434,786 L422,790 L409,798 L400,806 L394,814 L387,827 L384,836 L383,844 L383,861 L386,865 L395,866 L412,867 L418,863 L420,858 L423,841 L428,832 L435,826 L442,823 L454,822 L487,822 L489,824 L492,850 L495,868 L497,875 L499,885 L507,915 L517,940 L525,955 L527,959 L528,967 L448,966 L350,965 L332,962 L318,958 L306,953 L294,947 L283,940 L271,931 L264,924 L259,918 L255,914 L249,906 L241,893 L234,878 L229,864 L225,846 L223,825 L223,740 L220,736 L217,735 L191,735 L186,738 L184,741 L183,746 L182,818 L183,847 L187,869 L190,879 L196,896 L204,912 L209,921 L215,930 L223,940 L235,954 L242,960 L247,965 L263,977 L280,987 L297,995 L307,998 L318,1002 L339,1006 L361,1007 L388,1007 L528,1009 L561,1009 L569,1010 L581,1010 L585,1009 L603,1009 L608,1006 L607,1001 L598,992 L591,984 L578,967 L570,954 L562,941 L554,925 L545,900 L538,877 L533,848 L532,840 L530,804 L530,780 L533,778 L558,778 L595,779 L609,779 L613,775 L614,772 L615,745 L615,721 L619,720 L626,729 L634,736 L645,745 L659,755 L670,762 L685,769 L707,776 L722,780 L747,783 L869,784 L895,785 L993,786 L1001,784 L1001,779 L993,770 L988,765 L982,758 L972,745 L961,728 L955,718 L947,702 L937,674 L933,660 L928,639 L925,608 L923,572 L923,562 L925,558 L930,557 L934,558 L961,558 L985,559 L1003,559 L1008,554 L1009,528 L1009,494 L1010,401 L1010,315 L1011,289 L1011,250 L1012,194 L1011,109 L1007,107 L999,114 L991,122 L984,130 L980,134 L980,136 L976,138 L967,148 L960,156 L949,167 L940,178 L933,185 L926,193 L919,200 L911,210 L906,209 L900,199 L894,191 L888,180 L882,171 L874,158 L865,145 L855,129 L847,116 L839,105 L838,104 L831,105 L823,116 L810,135 L799,150 L791,162 L782,175 L775,185 L769,194 L761,206 L758,207 L754,203 L743,188 L734,175 L722,159 L712,145 L699,127 L686,109 L680,102 L676,103 L672,107 L666,115 L657,129 L641,152 L636,160 L629,170 L620,184 L609,201 L607,203 L602,202 L593,192 L583,179 L573,169 L566,161 L553,146 L544,136 L537,128 L528,118 L521,110 L514,102 Z " fill="#000000" transform="translate(0,0)"/>
<path d="M0,0 L15,1 L29,5 L45,13 L48,18 L43,23 L32,28 L23,31 L14,33 L-6,33 L-20,30 L-33,25 L-43,18 L-42,12 L-28,5 L-14,1 Z " fill="#000000" transform="translate(876,359)"/>
<path d="M0,0 L14,0 L32,3 L46,9 L54,15 L53,20 L45,25 L34,30 L18,33 L3,33 L-13,30 L-26,25 L-36,18 L-35,13 L-27,8 L-14,3 Z " fill="#000000" transform="translate(475,578)"/>
</svg>
