<?xml version="1.0" encoding="UTF-8"?>
<!-- Generator: visioncortex VTracer 0.6.12 -->
<svg version="1.1" xmlns="http://www.w3.org/2000/svg" width="1278" height="1221">
<path d="M0,0 L25,0 L31,5 L36,16 L36,227 L37,295 L37,330 L38,412 L39,433 L40,494 L40,537 L43,725 L45,823 L46,913 L46,997 L47,1042 L48,1060 L49,1114 L50,1117 L50,1136 L46,1139 L38,1140 L28,1139 L-62,1139 L-127,1140 L-162,1141 L-190,1141 L-270,1142 L-289,1142 L-353,1143 L-479,1145 L-519,1145 L-583,1146 L-611,1146 L-646,1147 L-681,1147 L-777,1148 L-857,1149 L-919,1150 L-943,1150 L-1071,1151 L-1089,1151 L-1095,1147 L-1098,1143 L-1099,976 L-1099,920 L-1100,821 L-1100,719 L-1101,673 L-1102,600 L-1102,560 L-1103,499 L-1103,454 L-1104,391 L-1105,357 L-1105,341 L-1107,257 L-1108,179 L-1109,163 L-1110,114 L-1112,36 L-1113,28 L-1113,19 L-1109,14 L-1106,13 L-1087,13 L-1064,14 L-997,14 L-956,13 L-907,13 L-808,12 L-753,11 L-654,10 L-518,7 L-367,6 L-207,3 L-172,3 L-137,2 L-46,2 L-31,1 Z M-120,13 L-131,14 L-134,16 L-140,16 L-147,14 L-150,15 L-193,16 L-228,16 L-324,18 L-426,19 L-518,20 L-628,22 L-703,23 L-747,24 L-769,24 L-861,25 L-936,26 L-1051,28 L-1088,30 L-1092,33 L-1093,42 L-1093,135 L-1092,196 L-1091,228 L-1090,289 L-1089,318 L-1088,410 L-1087,459 L-1086,617 L-1084,766 L-1084,823 L-1083,950 L-1083,1040 L-1081,1073 L-1080,1128 L-1077,1134 L-1074,1136 L-795,1136 L-694,1135 L-667,1135 L-625,1134 L-539,1133 L-512,1133 L-459,1132 L-374,1131 L-331,1130 L-313,1130 L-191,1128 L-146,1127 L-98,1126 L-13,1125 L11,1124 L27,1124 L31,1120 L31,1091 L30,964 L28,783 L27,661 L25,502 L24,438 L24,398 L25,377 L23,366 L23,244 L25,239 L25,222 L22,212 L21,164 L21,141 L20,137 L19,92 L18,75 L17,38 L16,20 L14,17 L-23,17 L-73,15 L-98,16 L-110,15 L-113,13 Z " fill="#000000" transform="translate(1155,38)"/>
<path d="M0,0 L8,1 L20,5 L28,12 L32,21 L33,26 L34,426 L34,464 L35,467 L47,474 L54,478 L62,484 L67,488 L74,496 L82,506 L88,516 L93,527 L97,541 L99,551 L99,566 L96,585 L90,600 L85,610 L79,619 L73,627 L65,634 L54,643 L33,653 L18,657 L13,658 L-9,658 L-20,657 L-34,653 L-53,643 L-64,635 L-76,623 L-80,617 L-86,608 L-93,592 L-97,578 L-98,571 L-98,549 L-93,526 L-83,508 L-74,496 L-63,485 L-53,478 L-38,470 L-36,468 L-35,462 L-35,357 L-36,221 L-36,27 L-32,15 L-25,8 L-15,3 L-9,1 Z M-9,9 L-17,14 L-22,19 L-26,28 L-27,44 L-26,147 L-25,161 L-20,164 L-6,164 L-4,161 L-3,135 L-3,114 L-2,103 L3,105 L2,161 L4,163 L19,164 L23,161 L24,108 L24,25 L20,17 L14,12 L5,9 Z M-21,168 L-25,171 L-25,198 L-22,203 L-6,203 L-3,200 L-3,179 L-4,169 L-6,168 Z M8,167 L3,169 L2,172 L3,185 L4,203 L5,204 L20,204 L23,201 L23,169 L19,167 Z " fill="#000000" transform="translate(932,234)"/>
<path d="M0,0 L19,0 L25,3 L36,11 L39,16 L44,27 L45,32 L46,261 L46,404 L47,451 L48,459 L64,468 L78,479 L89,491 L96,503 L100,511 L104,521 L107,537 L108,555 L106,571 L100,589 L91,605 L78,620 L69,628 L60,634 L41,643 L27,646 L17,647 L0,647 L-13,645 L-24,642 L-36,637 L-47,630 L-58,622 L-65,614 L-72,605 L-82,587 L-87,568 L-88,563 L-89,545 L-86,527 L-79,508 L-72,496 L-65,487 L-57,478 L-49,472 L-39,465 L-30,460 L-28,455 L-28,409 L-29,255 L-29,224 L-30,104 L-30,30 L-27,18 L-19,9 L-9,3 Z M2,11 L-7,15 L-14,21 L-18,31 L-18,135 L-17,155 L-15,157 L-1,158 L2,156 L3,139 L3,99 L7,98 L8,152 L9,156 L11,157 L30,157 L32,156 L33,152 L33,95 L32,33 L28,23 L24,17 L12,11 Z M-13,162 L-16,163 L-17,165 L-17,218 L-13,221 L-1,221 L3,217 L3,166 L-1,162 Z M12,162 L9,164 L8,174 L8,226 L9,248 L9,281 L12,284 L29,284 L33,282 L34,279 L34,209 L33,171 L32,164 L30,162 Z M-3,225 L-14,226 L-16,228 L-16,281 L-13,284 L1,284 L4,281 L3,227 L0,225 Z M-13,289 L-16,292 L-16,347 L-14,349 L-1,350 L4,347 L4,314 L3,290 L1,289 Z M10,289 L9,291 L9,355 L10,406 L13,410 L29,411 L33,407 L34,401 L34,294 L31,289 Z M-12,354 L-15,356 L-16,360 L-16,375 L-15,399 L-14,408 L-12,410 L0,410 L3,408 L4,401 L4,359 L1,354 Z M-13,417 L-15,424 L-15,447 L-16,464 L-18,474 L-34,481 L-42,487 L-50,494 L-57,504 L-66,519 L-70,530 L-73,547 L-73,556 L-71,575 L-61,599 L-52,609 L-48,614 L-32,624 L-17,631 L-5,634 L2,635 L17,635 L26,634 L39,629 L48,626 L64,616 L70,611 L77,603 L83,594 L88,584 L94,566 L94,538 L90,521 L87,512 L79,500 L62,484 L57,480 L48,476 L35,471 L34,470 L33,459 L33,420 L30,417 Z " fill="#000000" transform="translate(290,245)"/>
<path d="M0,0 L4,0 L5,6 L5,58 L3,62 L-4,62 L-5,61 L-6,36 L-7,27 L-15,24 L-16,20 L-14,15 L-6,10 L-1,1 Z " fill="#000000" transform="translate(587,810)"/>
<path d="M0,0 L13,0 L19,3 L23,10 L23,25 L18,35 L8,44 L8,47 L12,48 L22,48 L25,51 L25,57 L22,60 L-7,61 L-10,59 L-10,47 L-6,40 L-2,35 L8,27 L10,22 L9,15 L7,13 L2,13 L-1,22 L-4,24 L-9,24 L-11,22 L-11,10 L-7,4 Z " fill="#000000" transform="translate(652,810)"/>
<path d="M0,0 L5,1 L5,9 L-3,33 L-8,50 L-11,57 L-13,59 L-18,59 L-19,54 L-16,45 L-9,24 L-2,4 Z " fill="#000000" transform="translate(622,812)"/>
<path d="M0,0 L81,0 L120,3 L142,5 L157,8 L193,14 L218,19 L238,25 L268,33 L283,38 L308,47 L324,53 L351,64 L377,76 L383,79 L384,84 L379,96 L374,102 L366,119 L360,129 L354,140 L346,154 L341,163 L328,186 L326,189 L320,188 L310,182 L292,172 L273,162 L242,147 L215,136 L206,133 L196,129 L164,118 L142,111 L125,107 L120,104 L107,104 L102,102 L86,99 L67,96 L31,90 L7,88 L3,87 L-33,85 L-91,85 L-98,86 L-121,87 L-152,90 L-180,94 L-199,97 L-223,102 L-230,104 L-251,108 L-267,112 L-279,115 L-289,118 L-298,121 L-317,128 L-330,133 L-352,141 L-364,146 L-382,154 L-390,158 L-406,166 L-422,174 L-438,183 L-452,191 L-462,197 L-467,198 L-468,194 L-460,187 L-452,180 L-442,172 L-432,163 L-420,154 L-403,141 L-392,134 L-375,122 L-369,118 L-360,112 L-352,109 L-338,102 L-320,92 L-298,81 L-282,73 L-265,65 L-255,61 L-236,53 L-221,47 L-192,37 L-158,27 L-137,22 L-121,18 L-104,14 L-83,10 L-70,8 L-59,6 L-34,3 Z M-3,25 L-43,27 L-55,28 L-61,29 L-71,30 L-93,33 L-110,36 L-140,42 L-163,47 L-181,52 L-205,59 L-217,63 L-244,72 L-262,79 L-281,87 L-293,92 L-310,100 L-323,106 L-328,109 L-342,114 L-352,120 L-366,128 L-383,138 L-398,148 L-400,152 L-395,151 L-376,141 L-358,133 L-350,129 L-324,118 L-311,113 L-294,110 L-284,106 L-274,102 L-251,95 L-232,90 L-213,85 L-197,80 L-182,77 L-175,75 L-152,71 L-118,66 L-90,63 L-48,60 L0,60 L22,62 L40,63 L80,68 L95,70 L109,73 L121,75 L144,80 L183,90 L202,96 L212,100 L215,102 L240,107 L265,118 L294,131 L304,136 L309,135 L313,130 L324,111 L330,99 L330,93 L325,89 L312,83 L302,80 L288,74 L268,67 L244,59 L237,57 L219,52 L204,48 L166,39 L131,33 L102,29 L70,26 L42,25 Z " fill="#000000" transform="translate(660,880)"/>
<path d="M0,0 L5,1 L4,10 L0,30 L-3,47 L-7,62 L-9,64 L-13,63 L-13,54 L-9,36 L-5,16 L-2,2 Z " fill="#000000" transform="translate(1085,1005)"/>
<path d="M0,0 L6,0 L7,1 L7,58 L5,61 L-5,61 L-7,60 L-8,52 L-8,35 L-9,25 L-18,24 L-19,23 L-19,16 L-15,13 L-9,10 L-5,2 Z " fill="#000000" transform="translate(1115,1005)"/>
<path d="M0,0 L5,0 L6,2 L6,57 L2,60 L-5,59 L-7,56 L-8,23 L-15,22 L-17,20 L-16,15 L-7,8 Z " fill="#000000" transform="translate(1054,1007)"/>
<path d="M0,0 L13,0 L21,7 L24,11 L26,20 L25,53 L22,60 L16,65 L12,67 L-4,66 L-9,61 L-13,53 L-13,14 L-10,7 L-4,2 Z M3,11 L-1,15 L-2,21 L-1,49 L3,53 L10,52 L13,47 L13,18 L10,13 L8,11 Z " fill="#000000" transform="translate(151,1013)"/>
</svg>
