<?xml version="1.0" encoding="UTF-8"?>
<!-- Generator: visioncortex VTracer 0.6.12 -->
<svg version="1.1" xmlns="http://www.w3.org/2000/svg" width="537" height="594">
<path d="M0,0 L6,0 L12,5 L14,13 L15,25 L15,63 L16,119 L17,145 L17,244 L18,296 L18,328 L15,334 L10,336 L-15,337 L-22,334 L-24,332 L-25,324 L-25,255 L-26,235 L-26,154 L-25,132 L-26,76 L-26,43 L-28,18 L-26,10 L-22,4 L-3,1 Z " fill="#000000" transform="translate(492,31)"/>
<path d="M0,0 L77,0 L85,2 L102,2 L132,4 L144,9 L146,16 L147,27 L147,48 L148,57 L148,79 L149,151 L149,184 L150,192 L151,232 L150,253 L147,261 L137,278 L131,290 L125,300 L118,309 L111,317 L107,319 L103,324 L87,335 L70,344 L53,351 L44,357 L32,363 L18,374 L10,381 L2,388 L-7,399 L-13,407 L-23,423 L-27,433 L-31,440 L-34,451 L-35,463 L-35,479 L-38,492 L-45,501 L-52,506 L-61,506 L-71,501 L-80,489 L-86,477 L-89,462 L-89,430 L-86,410 L-80,392 L-74,380 L-67,370 L-61,362 L-51,349 L-44,340 L-40,335 L-38,328 L-38,320 L-41,318 L-55,319 L-65,319 L-70,318 L-87,317 L-94,316 L-103,317 L-111,316 L-130,315 L-136,314 L-157,313 L-160,312 L-178,311 L-185,309 L-196,309 L-200,308 L-221,307 L-242,301 L-252,294 L-258,288 L-260,283 L-261,273 L-261,263 L-255,253 L-251,246 L-240,239 L-226,234 L-214,232 L-204,230 L-190,229 L-183,230 L-171,228 L-168,227 L-152,227 L-146,226 L-106,225 L-102,224 L-103,217 L-108,215 L-124,215 L-142,216 L-147,217 L-179,217 L-215,219 L-227,218 L-241,211 L-245,205 L-245,198 L-239,182 L-232,171 L-220,164 L-211,161 L-204,160 L-177,159 L-170,158 L-141,158 L-131,157 L-101,157 L-90,155 L-90,147 L-92,144 L-97,143 L-119,143 L-152,144 L-168,145 L-175,146 L-185,144 L-194,138 L-197,133 L-197,121 L-193,111 L-188,103 L-183,98 L-174,90 L-158,82 L-135,81 L-98,80 L-88,81 L-73,79 L-68,76 L-67,73 L-68,70 L-70,69 L-85,69 L-108,70 L-134,70 L-140,67 L-146,62 L-148,52 L-145,42 L-139,32 L-132,22 L-126,15 L-110,9 L-95,3 L-82,3 L-74,2 L-25,1 Z " fill="#000000" transform="translate(290,61)"/>
</svg>
