<?xml version="1.0" encoding="UTF-8"?>
<!-- Generator: visioncortex VTracer 0.6.12 -->
<svg version="1.1" xmlns="http://www.w3.org/2000/svg" width="1119" height="1113">
<path d="M0,0 L287,0 L285,2 L276,3 L21,3 L6,4 L4,10 L3,53 L3,527 L4,704 L4,1086 L5,1106 L7,1110 L9,1111 L9,1113 L0,1113 Z " fill="#000000" transform="translate(0,0)"/>
<path d="M0,0 L16,0 L12,2 L2,2 Z " fill="#000000" transform="translate(298,0)"/>
<path d="M0,0 L10,0 L6,2 L0,1 Z " fill="#000000" transform="translate(346,0)"/>
<path d="M0,0 L24,0 L22,2 L2,2 Z " fill="#000000" transform="translate(362,0)"/>
<path d="M0,0 L6,0 L6,1 L0,1 Z " fill="#000000" transform="translate(396,0)"/>
<path d="M0,0 L82,0 L80,2 L10,2 L0,1 Z " fill="#000000" transform="translate(412,0)"/>
<path d="M0,0 L5,0 L4,2 Z " fill="#000000" transform="translate(543,0)"/>
<path d="M0,0 L8,0 L6,2 L1,2 Z " fill="#000000" transform="translate(782,0)"/>
<path d="M0,0 L11,0 L11,1 L0,1 Z " fill="#000000" transform="translate(830,0)"/>
<path d="M0,0 L2,1 Z " fill="#000000" transform="translate(854,0)"/>
<path d="M0,0 L7,0 L5,2 L0,1 Z " fill="#000000" transform="translate(872,0)"/>
<path d="M0,0 L2,1 Z " fill="#000000" transform="translate(985,0)"/>
<path d="M0,0 L7,0 L6,2 L1,2 Z " fill="#000000" transform="translate(989,0)"/>
<path d="M0,0 L13,0 L13,1113 L4,1113 L7,1106 L8,1092 L8,968 L7,901 L7,838 L8,826 L8,556 L7,479 L7,178 L6,98 L6,7 L1,2 Z " fill="#000000" transform="translate(1106,0)"/>
<path d="M0,0 L25,0 L35,1 L39,6 L39,47 L40,120 L40,161 L41,225 L41,389 L36,394 L34,395 L-1,396 L-44,396 L-125,397 L-149,396 L-161,397 L-190,397 L-198,399 L-201,404 L-201,447 L-200,559 L-200,617 L-202,635 L-205,644 L-212,657 L-223,670 L-239,680 L-252,685 L-263,686 L-286,687 L-308,687 L-357,688 L-377,685 L-396,677 L-406,671 L-416,662 L-421,657 L-427,650 L-434,640 L-438,632 L-442,612 L-443,602 L-443,590 L-441,577 L-437,567 L-433,557 L-426,547 L-419,538 L-412,533 L-408,528 L-400,523 L-380,514 L-370,511 L-328,510 L-320,508 L-315,503 L-315,478 L-314,452 L-315,439 L-316,396 L-315,361 L-310,343 L-303,330 L-294,321 L-280,313 L-271,309 L-251,309 L-235,314 L-224,320 L-215,330 L-207,341 L-204,350 L-200,371 L-185,373 L-177,374 L-172,373 L-22,373 L3,372 L12,371 L16,367 L17,365 L17,227 L16,175 L16,90 L15,46 L14,30 L11,26 L2,25 L-87,25 L-103,26 L-111,25 L-117,26 L-457,26 L-496,27 L-814,27 L-819,30 L-821,35 L-820,142 L-819,212 L-818,266 L-818,290 L-817,327 L-816,361 L-815,368 L-812,371 L-809,372 L-783,373 L-747,373 L-716,374 L-649,374 L-633,375 L-624,374 L-617,375 L-443,375 L-392,374 L-357,373 L-348,374 L-340,374 L-335,377 L-333,383 L-331,451 L-332,486 L-334,490 L-339,492 L-373,493 L-390,498 L-402,503 L-417,511 L-427,519 L-432,524 L-441,534 L-452,554 L-458,572 L-460,587 L-460,604 L-457,625 L-453,640 L-445,656 L-437,667 L-424,680 L-417,684 L-413,689 L-394,698 L-388,700 L-381,703 L-365,706 L-291,706 L-286,710 L-284,718 L-283,743 L-282,753 L-283,766 L-283,779 L-286,785 L-287,786 L-297,787 L-523,787 L-528,782 L-529,776 L-530,714 L-532,705 L-537,701 L-548,694 L-558,684 L-565,673 L-570,662 L-573,653 L-574,630 L-576,505 L-577,421 L-578,407 L-581,400 L-586,398 L-643,398 L-789,397 L-835,396 L-839,392 L-840,389 L-841,370 L-842,291 L-842,219 L-843,203 L-844,161 L-844,126 L-845,72 L-845,12 L-843,6 L-840,4 L-811,2 L-765,3 L-451,3 L-429,2 L-381,2 L-372,3 L-358,2 L-254,2 L-243,1 L-36,1 Z " fill="#000000" transform="translate(957,152)"/>
<path d="M0,0 L12,0 L22,1 L38,7 L47,13 L61,26 L72,45 L74,48 L81,47 L95,47 L98,45 L99,35 L108,22 L119,13 L128,7 L145,1 L150,0 L167,0 L179,1 L186,5 L196,9 L207,18 L217,29 L223,38 L228,54 L229,58 L229,75 L224,92 L218,104 L209,115 L198,123 L181,131 L161,134 L148,134 L145,136 L142,146 L136,155 L131,159 L124,167 L108,176 L92,180 L74,180 L58,176 L42,167 L32,158 L24,147 L20,142 L15,130 L9,131 L5,133 L-7,133 L-10,136 L-10,143 L-15,151 L-24,162 L-34,170 L-47,176 L-58,179 L-65,180 L-75,180 L-89,178 L-102,173 L-116,164 L-126,154 L-132,145 L-137,134 L-139,129 L-144,130 L-147,133 L-163,132 L-182,125 L-188,121 L-196,115 L-203,107 L-208,100 L-214,85 L-216,76 L-216,59 L-213,47 L-209,36 L-198,22 L-191,15 L-177,7 L-165,2 L-153,1 L-136,1 L-121,6 L-110,12 L-101,19 L-90,31 L-81,48 L-71,47 L-57,46 L-54,34 L-43,21 L-36,14 L-24,6 L-10,1 Z M-151,20 L-169,24 L-178,29 L-184,34 L-193,50 L-195,58 L-195,70 L-193,79 L-188,91 L-179,101 L-171,108 L-160,113 L-148,115 L-142,115 L-139,110 L-134,91 L-128,79 L-121,70 L-116,64 L-105,58 L-104,52 L-108,43 L-116,33 L-125,27 L-135,22 L-145,20 Z M-2,20 L-17,25 L-27,33 L-37,44 L-42,50 L-40,54 L-28,63 L-20,70 L-13,80 L-6,95 L-6,106 L-3,111 L7,114 L12,114 L15,109 L17,101 L22,86 L31,71 L43,61 L49,57 L50,56 L50,49 L43,38 L38,32 L32,27 L21,22 L19,21 Z M153,20 L141,23 L131,28 L119,40 L113,49 L114,54 L123,61 L131,68 L137,75 L144,87 L147,94 L148,103 L148,109 L149,111 L158,114 L171,113 L184,108 L194,101 L202,90 L207,77 L207,59 L202,43 L193,33 L185,27 L173,21 Z M-75,65 L-78,66 L-83,84 L-88,97 L-95,108 L-105,118 L-113,122 L-115,124 L-114,132 L-109,141 L-100,150 L-91,156 L-85,159 L-62,160 L-53,158 L-47,154 L-38,147 L-31,139 L-25,131 L-26,126 L-36,118 L-43,113 L-53,99 L-59,83 L-59,73 L-60,70 L-64,68 L-72,66 Z M78,66 L75,71 L72,85 L61,105 L52,115 L47,119 L41,122 L40,123 L40,130 L45,140 L50,146 L52,146 L54,150 L64,156 L76,160 L85,160 L96,159 L105,155 L114,149 L121,142 L128,132 L128,127 L122,122 L113,115 L106,107 L100,98 L95,88 L94,85 L94,72 L90,68 L86,66 Z " fill="#000000" transform="translate(548,255)"/>
<path d="M0,0 L3,1 Z " fill="#000000" transform="translate(609,1112)"/>
<path d="M0,0 L5,0 L5,1 L0,1 Z " fill="#000000" transform="translate(623,1112)"/>
<path d="M0,0 L2,1 Z " fill="#000000" transform="translate(785,1112)"/>
</svg>
