<?xml version="1.0" encoding="UTF-8"?>
<!-- Generator: visioncortex VTracer 0.6.12 -->
<svg version="1.1" xmlns="http://www.w3.org/2000/svg" width="1122" height="1110">
<path d="M0,0 L113,0 L111,2 L85,2 L48,4 L30,7 L23,7 L18,9 L5,11 L-15,18 L-28,23 L-37,28 L-47,35 L-60,48 L-66,56 L-74,66 L-82,81 L-87,96 L-90,108 L-92,108 L-92,74 L-84,60 L-72,44 L-56,28 L-45,20 L-32,12 L-20,7 L-7,3 L-1,2 Z " fill="#000000" transform="translate(92,0)"/>
<path d="M0,0 L18,0 L14,2 L0,1 Z " fill="#000000" transform="translate(222,0)"/>
<path d="M0,0 L36,0 L46,6 L56,13 L66,21 L73,27 L83,35 L90,45 L96,53 L104,65 L113,84 L116,90 L116,223 L115,223 L114,207 L114,175 L113,142 L111,115 L108,101 L102,84 L93,68 L86,58 L79,48 L70,37 L61,29 L46,18 L30,10 L23,7 L13,4 L1,2 Z " fill="#000000" transform="translate(1006,0)"/>
<path d="M0,0 L22,0 L36,3 L51,11 L60,18 L70,28 L78,41 L80,46 L83,61 L83,77 L79,94 L70,111 L66,117 L61,122 L57,124 L57,126 L44,134 L33,139 L17,142 L3,142 L-13,138 L-28,130 L-40,119 L-47,111 L-55,97 L-59,82 L-59,58 L-55,44 L-49,33 L-42,23 L-33,15 L-20,7 L-7,2 Z M-22,69 L-24,71 L-23,75 L-18,76 L-16,72 L-17,69 Z " fill="#000000" transform="translate(812,142)"/>
<path d="M0,0 L22,0 L40,5 L49,10 L58,16 L66,24 L73,35 L78,45 L81,57 L82,71 L81,85 L78,95 L72,107 L68,113 L58,125 L48,132 L34,139 L24,142 L1,142 L-16,136 L-27,130 L-38,121 L-47,110 L-55,93 L-55,86 L-58,82 L-59,79 L-59,66 L-57,50 L-51,35 L-43,24 L-31,12 L-15,4 L-6,1 Z " fill="#000000" transform="translate(303,146)"/>
<path d="M0,0 L1,0 L1,13 L-1,9 Z " fill="#000000" transform="translate(1121,226)"/>
<path d="M0,0 L25,2 L37,5 L53,13 L61,21 L66,28 L70,39 L72,45 L73,65 L74,107 L76,255 L78,258 L88,259 L109,259 L115,262 L117,272 L117,335 L112,340 L90,340 L27,341 L24,344 L23,348 L23,468 L24,555 L25,616 L25,678 L23,690 L19,698 L11,708 L1,714 L-9,718 L-24,718 L-34,714 L-45,706 L-50,700 L-56,688 L-58,675 L-60,502 L-61,371 L-62,346 L-66,342 L-75,342 L-78,345 L-78,493 L-77,508 L-77,582 L-76,669 L-77,686 L-82,698 L-88,706 L-95,712 L-108,718 L-122,719 L-135,715 L-147,707 L-154,697 L-158,686 L-159,681 L-160,640 L-161,534 L-162,488 L-163,356 L-164,347 L-165,343 L-303,343 L-423,344 L-459,344 L-548,345 L-578,345 L-594,346 L-628,346 L-721,347 L-814,347 L-817,343 L-818,325 L-818,272 L-815,267 L-809,266 L-792,266 L-774,265 L-687,264 L-596,263 L-403,263 L-359,262 L-334,261 L-292,262 L-199,261 L-183,261 L-169,260 L-166,257 L-165,254 L-164,226 L-165,205 L-165,180 L-166,88 L-168,80 L-173,81 L-186,95 L-195,107 L-203,116 L-214,130 L-223,140 L-229,148 L-241,161 L-252,175 L-265,190 L-276,203 L-280,209 L-294,226 L-308,241 L-317,247 L-323,249 L-335,249 L-346,245 L-354,239 L-360,231 L-363,224 L-363,212 L-359,200 L-349,186 L-339,173 L-332,165 L-323,154 L-312,141 L-303,131 L-295,121 L-287,111 L-280,103 L-271,92 L-260,79 L-249,66 L-241,56 L-232,45 L-224,35 L-215,25 L-210,19 L-196,8 L-185,4 L-178,3 L-111,1 L-21,1 Z " fill="#000000" transform="translate(900,299)"/>
<path d="M0,0 L53,0 L57,3 L58,9 L59,109 L59,130 L57,141 L54,143 L29,144 L24,146 L23,147 L24,154 L24,166 L21,176 L13,187 L7,195 L-1,204 L-8,212 L-11,217 L-18,224 L-27,235 L-36,246 L-45,256 L-52,264 L-60,274 L-70,285 L-80,290 L-83,291 L-95,291 L-101,288 L-110,281 L-115,273 L-120,258 L-128,234 L-134,214 L-139,201 L-143,199 L-149,199 L-151,201 L-151,208 L-146,228 L-144,233 L-142,241 L-132,271 L-127,291 L-122,309 L-117,324 L-116,329 L-116,336 L-121,339 L-150,339 L-284,340 L-337,340 L-340,336 L-338,326 L-334,313 L-330,295 L-325,278 L-323,270 L-319,257 L-315,241 L-308,217 L-306,201 L-313,201 L-318,203 L-322,211 L-330,241 L-335,257 L-343,287 L-350,311 L-357,336 L-360,340 L-368,341 L-417,341 L-420,339 L-420,332 L-412,305 L-408,289 L-400,260 L-395,242 L-391,229 L-387,213 L-382,197 L-375,171 L-369,156 L-360,140 L-349,127 L-338,117 L-327,110 L-316,105 L-303,101 L-294,99 L-276,98 L-174,98 L-158,100 L-140,106 L-119,117 L-105,130 L-97,141 L-90,153 L-83,169 L-76,190 L-74,193 L-68,192 L-61,183 L-56,179 L-51,173 L-45,174 L-41,175 L-42,170 L-43,164 L-37,156 L-28,146 L-21,138 L-16,135 L-8,132 L-6,126 L-6,8 L-3,2 Z " fill="#000000" transform="translate(546,207)"/>
<path d="M0,0 L2,2 L3,56 L4,152 L4,295 L5,312 L5,332 L4,373 L4,410 L5,478 L7,506 L10,522 L15,535 L20,547 L27,557 L33,566 L44,579 L53,587 L66,595 L78,602 L93,608 L105,612 L121,613 L122,615 L76,615 L76,613 L71,611 L58,604 L45,594 L35,585 L26,575 L17,563 L4,540 L0,531 Z " fill="#000000" transform="translate(0,495)"/>
<path d="M0,0 L1,0 L1,43 L-1,43 L-3,52 L-7,58 L-15,69 L-19,75 L-28,85 L-44,97 L-53,103 L-69,111 L-75,114 L-691,114 L-688,112 L-590,112 L-542,111 L-501,111 L-495,112 L-473,111 L-382,110 L-307,111 L-213,111 L-111,110 L-99,108 L-79,103 L-54,90 L-43,81 L-37,76 L-30,68 L-21,56 L-12,42 L-5,21 L-1,1 Z " fill="#000000" transform="translate(1121,996)"/>
<path d="M0,0 L2,1 Z " fill="#000000" transform="translate(305,1109)"/>
<path d="M0,0 L3,1 Z " fill="#000000" transform="translate(355,1109)"/>
</svg>
