<?xml version="1.0" encoding="UTF-8"?>
<!-- Generator: visioncortex VTracer 0.6.12 -->
<svg version="1.1" xmlns="http://www.w3.org/2000/svg" width="429" height="639">
<path d="M0,0 L32,0 L51,5 L61,7 L80,15 L96,23 L107,30 L116,39 L123,50 L127,66 L127,75 L123,94 L120,103 L114,113 L105,123 L100,128 L93,136 L85,143 L75,150 L60,159 L44,166 L32,169 L10,171 L-17,171 L-22,169 L-37,166 L-49,164 L-64,161 L-78,159 L-96,149 L-105,143 L-107,138 L-111,136 L-119,121 L-122,110 L-122,92 L-116,71 L-108,57 L-100,47 L-92,38 L-84,31 L-79,27 L-58,15 L-49,11 L-40,8 L-23,3 Z M5,24 L-15,28 L-26,30 L-44,38 L-58,45 L-66,51 L-75,58 L-81,66 L-87,76 L-91,91 L-88,105 L-82,117 L-73,127 L-69,130 L-63,130 L-59,125 L-59,119 L-68,107 L-71,99 L-72,95 L-72,88 L-68,79 L-58,66 L-51,59 L-27,46 L-14,42 L4,39 L27,40 L39,41 L44,38 L45,33 L41,28 L30,24 Z " fill="#000000" transform="translate(269,36)"/>
<path d="M0,0 L33,1 L37,2 L50,3 L54,4 L70,5 L91,9 L111,13 L129,19 L145,27 L153,33 L158,38 L160,46 L157,53 L151,60 L145,61 L136,51 L136,49 L132,47 L119,39 L112,36 L99,31 L83,27 L64,24 L42,22 L19,22 L3,23 L-11,26 L-28,28 L-45,32 L-73,43 L-83,50 L-89,54 L-95,54 L-99,48 L-99,42 L-93,32 L-85,26 L-75,20 L-63,15 L-54,12 L-48,9 L-39,8 L-35,6 L-23,4 L-21,3 Z " fill="#000000" transform="translate(139,204)"/>
<path d="M0,0 L6,0 L16,5 L33,11 L50,16 L65,19 L89,24 L127,28 L161,28 L188,25 L190,24 L204,22 L216,18 L228,16 L236,12 L245,9 L255,4 L260,2 L265,5 L266,15 L266,170 L265,256 L262,278 L257,286 L248,294 L233,304 L224,308 L207,314 L198,318 L180,323 L164,325 L154,327 L133,329 L118,329 L97,327 L77,324 L61,318 L47,311 L39,307 L28,301 L17,294 L8,287 L1,277 L-2,266 L-2,2 Z M26,288 L26,292 L30,291 L29,288 Z " fill="#000000" transform="translate(38,276)"/>
</svg>
