<?xml version="1.0" encoding="UTF-8"?>
<!-- Generator: visioncortex VTracer 0.6.12 -->
<svg version="1.1" xmlns="http://www.w3.org/2000/svg" width="486" height="642">
<path d="M0,0 L33,0 L38,1 L63,3 L88,6 L94,8 L111,11 L118,14 L133,17 L144,22 L164,30 L175,37 L188,47 L196,54 L203,63 L208,72 L211,81 L211,90 L206,103 L198,114 L194,116 L189,121 L184,125 L168,130 L162,134 L156,137 L147,138 L138,142 L137,143 L127,143 L119,144 L114,145 L112,147 L104,146 L99,149 L88,149 L84,151 L74,152 L67,153 L56,154 L50,155 L49,156 L16,155 L13,157 L9,156 L7,155 L-22,155 L-25,157 L-30,157 L-35,153 L-43,154 L-46,152 L-66,152 L-73,153 L-79,150 L-101,147 L-111,143 L-114,141 L-140,137 L-153,132 L-163,127 L-169,122 L-177,116 L-188,104 L-194,92 L-195,82 L-193,74 L-188,64 L-177,52 L-172,46 L-163,40 L-153,34 L-145,30 L-135,25 L-124,20 L-108,15 L-96,11 L-83,8 L-57,7 L-53,5 L-40,3 L-20,3 L-3,1 Z M-34,18 L-43,23 L-45,21 L-52,22 L-63,24 L-86,29 L-98,32 L-114,36 L-131,44 L-142,52 L-157,67 L-160,76 L-160,88 L-156,100 L-151,108 L-143,116 L-124,127 L-120,128 L-112,128 L-106,124 L-105,119 L-112,111 L-126,103 L-135,95 L-139,88 L-139,75 L-134,67 L-123,57 L-114,52 L-101,50 L-81,42 L-71,40 L-64,39 L-51,36 L-38,33 L-21,30 L-10,29 L5,25 L5,24 L-9,23 L-19,24 L-21,22 L-28,20 L-30,18 Z M32,24 L32,26 L36,25 Z M60,26 L57,28 L64,28 Z " fill="#000000" transform="translate(242,37)"/>
<path d="M0,0 L9,2 L20,7 L39,15 L57,20 L61,22 L73,24 L88,28 L96,28 L107,31 L120,32 L126,34 L142,34 L163,35 L166,36 L185,37 L201,37 L236,34 L253,33 L261,31 L277,29 L302,24 L315,20 L329,16 L350,9 L358,5 L363,5 L368,10 L370,15 L371,47 L371,103 L370,127 L371,136 L370,156 L371,158 L371,190 L369,199 L370,207 L371,218 L369,238 L369,255 L371,260 L371,291 L370,296 L370,306 L371,310 L371,324 L377,344 L376,351 L369,362 L364,367 L356,376 L351,381 L343,386 L331,395 L320,401 L304,409 L295,412 L285,416 L272,420 L269,422 L259,424 L246,426 L242,429 L225,430 L220,432 L215,431 L210,429 L205,432 L198,432 L194,428 L189,430 L187,432 L178,431 L168,432 L166,428 L161,429 L158,431 L149,431 L144,427 L139,427 L136,429 L132,428 L130,426 L119,424 L102,421 L87,417 L69,411 L58,405 L48,403 L31,396 L15,388 L5,380 L-12,369 L-18,364 L-25,354 L-27,348 L-27,335 L-23,326 L-16,319 L-10,307 L-7,299 L-4,297 L5,298 L30,309 L44,313 L64,320 L76,322 L91,327 L108,331 L128,334 L154,336 L159,337 L197,337 L214,336 L218,335 L243,333 L252,331 L259,326 L260,322 L260,280 L261,270 L261,240 L262,222 L262,199 L263,164 L263,142 L264,124 L264,102 L261,96 L258,94 L238,95 L227,97 L217,97 L210,96 L208,97 L201,97 L198,96 L172,96 L140,94 L119,91 L99,89 L78,85 L65,83 L43,77 L22,70 L12,62 L4,57 L-2,52 L-6,41 L-6,16 L-4,3 Z " fill="#000000" transform="translate(64,175)"/>
<path d="M0,0 L8,1 L26,11 L32,13 L41,15 L50,18 L67,22 L83,25 L98,28 L111,29 L115,30 L157,33 L169,35 L195,36 L218,36 L237,35 L243,38 L246,43 L247,47 L248,109 L247,139 L247,204 L245,224 L242,231 L228,238 L211,239 L200,239 L189,240 L162,239 L137,238 L120,236 L104,231 L79,226 L69,222 L54,219 L38,214 L23,208 L11,198 L0,192 L-6,184 L-7,177 L-7,136 L-5,9 L-2,1 Z " fill="#000000" transform="translate(62,254)"/>
<path d="M0,0 L5,1 L5,5 L0,4 Z " fill="#000000" transform="translate(177,276)"/>
</svg>
