<?xml version="1.0" encoding="UTF-8"?>
<!-- Generator: visioncortex VTracer 0.6.12 -->
<svg version="1.1" xmlns="http://www.w3.org/2000/svg" width="606" height="975">
<path d="M0,0 L23,0 L44,3 L53,6 L62,8 L73,12 L84,16 L96,22 L100,27 L101,32 L101,45 L103,53 L108,58 L118,63 L127,66 L136,70 L144,75 L145,77 L145,100 L149,107 L167,117 L180,124 L183,129 L183,137 L180,149 L177,158 L177,167 L180,172 L193,181 L202,186 L209,193 L208,201 L204,210 L200,219 L198,229 L203,237 L213,246 L217,250 L223,254 L228,260 L227,270 L221,285 L219,292 L219,300 L231,314 L236,318 L242,326 L244,329 L243,335 L236,349 L233,358 L233,365 L238,374 L246,384 L252,392 L252,398 L241,416 L239,419 L239,431 L246,441 L256,453 L262,463 L262,470 L252,484 L246,491 L240,501 L240,509 L247,525 L252,535 L256,541 L257,547 L254,552 L247,559 L239,566 L235,572 L234,580 L239,592 L247,608 L252,618 L252,625 L244,632 L239,637 L232,643 L224,650 L223,653 L223,661 L228,684 L230,691 L230,700 L221,707 L216,711 L204,717 L198,724 L198,736 L199,745 L201,750 L203,764 L203,773 L199,777 L187,782 L174,787 L169,790 L167,794 L167,829 L163,833 L143,839 L134,843 L129,845 L126,856 L121,875 L116,882 L106,888 L94,892 L86,895 L75,899 L68,899 L64,901 L50,904 L36,906 L23,907 L-2,906 L-20,904 L-31,900 L-32,897 L-30,894 L-23,894 L-22,895 L-17,895 L-13,893 L4,894 L8,892 L12,883 L16,870 L21,865 L30,862 L51,859 L57,855 L59,850 L61,826 L64,820 L72,814 L83,810 L93,804 L100,796 L102,790 L103,762 L106,752 L113,746 L132,737 L138,728 L138,720 L135,705 L131,695 L130,689 L133,684 L141,676 L149,670 L153,668 L156,657 L155,648 L147,626 L146,619 L150,611 L159,602 L168,591 L170,589 L170,582 L165,570 L160,562 L155,550 L156,541 L169,523 L174,516 L174,506 L164,488 L160,482 L158,477 L158,470 L162,461 L172,447 L175,440 L175,432 L169,423 L160,411 L157,406 L157,397 L169,377 L171,372 L170,364 L166,358 L158,351 L150,345 L147,340 L148,332 L152,323 L157,310 L156,300 L152,295 L146,291 L136,282 L134,278 L135,269 L141,244 L139,235 L132,227 L126,223 L118,218 L112,214 L110,211 L110,202 L115,181 L115,173 L111,167 L88,154 L84,150 L84,140 L86,124 L85,115 L81,109 L71,103 L55,96 L52,94 L51,91 L51,62 L48,57 L40,53 L26,52 L14,50 L9,45 L7,41 L5,30 L1,16 L-3,13 L-7,12 L-15,12 L-31,19 L-38,17 L-41,12 L-39,6 L-22,2 L-6,1 Z " fill="#000000" transform="translate(305,36)"/>
<path d="M0,0 L7,0 L13,7 L18,19 L21,22 L28,24 L39,20 L50,17 L55,18 L58,22 L63,44 L67,48 L77,51 L89,52 L98,54 L101,57 L102,65 L101,77 L101,88 L103,93 L120,102 L132,107 L137,111 L138,113 L137,123 L136,128 L136,136 L138,144 L143,149 L156,159 L165,165 L167,168 L167,179 L164,188 L163,201 L166,210 L175,216 L185,223 L190,228 L192,231 L191,240 L185,258 L184,268 L187,274 L197,283 L206,289 L208,291 L208,300 L201,320 L199,325 L200,334 L207,342 L218,351 L222,357 L221,364 L214,375 L209,385 L208,394 L213,404 L224,418 L225,425 L222,431 L219,434 L215,442 L210,449 L209,453 L209,466 L216,478 L223,490 L223,498 L216,510 L206,525 L205,528 L205,539 L214,554 L220,566 L219,572 L212,580 L203,591 L200,594 L198,601 L198,611 L202,620 L205,631 L205,643 L197,652 L190,656 L185,661 L182,666 L181,668 L181,677 L187,692 L189,700 L189,706 L185,711 L170,720 L162,725 L159,729 L157,745 L156,769 L154,774 L149,778 L137,785 L126,789 L117,795 L113,803 L110,811 L110,820 L111,825 L109,829 L104,831 L92,833 L77,837 L73,839 L69,850 L67,863 L62,867 L53,867 L39,865 L33,865 L24,870 L17,879 L15,880 L9,880 L-12,871 L-20,866 L-30,861 L-51,848 L-58,842 L-60,838 L-60,835 L-53,836 L-41,840 L-22,842 L-14,842 L-4,840 L13,837 L29,830 L45,821 L54,814 L64,807 L69,801 L75,796 L83,785 L86,782 L92,773 L96,768 L103,757 L107,752 L114,738 L124,719 L132,702 L140,684 L145,669 L149,660 L152,651 L156,637 L162,617 L167,592 L171,575 L172,560 L173,555 L175,532 L177,486 L177,453 L174,397 L172,378 L169,360 L167,346 L162,322 L158,305 L155,293 L146,257 L140,238 L132,216 L125,201 L113,172 L105,156 L99,146 L94,138 L83,120 L76,110 L69,104 L62,96 L50,84 L40,77 L21,66 L15,62 L-3,55 L-20,52 L-26,51 L-47,52 L-64,56 L-80,62 L-84,62 L-85,59 L-80,54 L-74,47 L-61,37 L-53,30 L-43,23 L-38,19 L-27,12 L-18,8 L-4,1 Z M-29,28 L-29,31 L-24,30 L-25,28 Z M18,859 L16,864 L18,866 L23,865 L24,860 L23,859 Z " fill="#000000" transform="translate(236,50)"/>
<path d="M0,0 L5,1 L11,6 L16,10 L15,13 L9,13 L0,7 L-1,6 L-1,1 Z " fill="#000000" transform="translate(426,75)"/>
<path d="M0,0 L29,0 L47,6 L56,9 L68,16 L74,21 L89,32 L97,39 L108,53 L114,61 L123,73 L131,86 L143,105 L149,117 L153,127 L162,148 L165,155 L172,176 L177,190 L182,210 L186,224 L193,253 L196,264 L201,294 L205,324 L208,358 L208,378 L209,407 L209,434 L208,453 L207,458 L204,489 L199,520 L195,539 L192,554 L188,567 L184,581 L176,604 L172,613 L165,631 L159,641 L155,649 L145,670 L136,686 L130,694 L121,704 L112,715 L105,724 L97,731 L88,738 L83,743 L68,751 L59,755 L50,759 L30,761 L11,761 L-9,756 L-18,751 L-28,745 L-38,738 L-45,731 L-52,726 L-61,715 L-68,706 L-74,696 L-83,683 L-95,660 L-101,649 L-111,624 L-115,613 L-118,604 L-123,589 L-128,571 L-133,555 L-138,530 L-141,508 L-144,492 L-149,455 L-149,446 L-151,430 L-153,390 L-153,333 L-152,326 L-150,287 L-145,250 L-142,235 L-139,216 L-133,190 L-129,173 L-124,155 L-118,137 L-112,121 L-105,102 L-100,90 L-88,69 L-80,58 L-74,49 L-70,45 L-63,37 L-56,28 L-48,22 L-44,18 L-36,13 L-23,7 L-13,4 Z M-8,48 L-20,51 L-35,59 L-49,71 L-61,84 L-61,86 L-65,88 L-74,102 L-84,121 L-88,130 L-93,139 L-100,156 L-103,165 L-107,181 L-108,188 L-111,195 L-115,209 L-123,252 L-128,284 L-130,299 L-131,323 L-132,330 L-133,362 L-133,401 L-130,430 L-128,450 L-126,467 L-124,484 L-121,499 L-118,520 L-113,538 L-107,562 L-102,577 L-96,594 L-89,611 L-85,621 L-77,639 L-68,654 L-57,671 L-53,676 L-45,686 L-35,698 L-30,702 L-25,705 L-20,709 L-11,715 L-6,717 L2,718 L5,720 L24,720 L40,715 L56,707 L64,700 L72,694 L79,685 L86,678 L90,670 L96,661 L109,638 L116,626 L124,605 L128,599 L136,576 L142,557 L151,523 L155,499 L157,482 L158,476 L161,413 L161,369 L160,352 L158,337 L157,318 L153,287 L149,271 L146,251 L140,227 L125,181 L121,173 L116,160 L105,139 L102,132 L95,119 L85,105 L79,95 L68,81 L62,76 L57,71 L50,64 L33,54 L13,49 L6,48 Z " fill="#000000" transform="translate(190,117)"/>
<path d="M0,0 L5,0 L12,10 L14,16 L10,18 L1,12 L-1,9 L-1,2 Z " fill="#000000" transform="translate(468,119)"/>
<path d="M0,0 L5,1 L10,12 L11,20 L10,21 L4,21 L-2,17 L-4,14 L-3,4 Z " fill="#000000" transform="translate(503,181)"/>
<path d="M0,0 L4,1 L8,10 L9,14 L9,21 L2,20 L-3,14 L-4,6 Z " fill="#000000" transform="translate(528,249)"/>
<path d="M0,0 L14,0 L23,3 L37,10 L49,22 L51,23 L51,25 L55,27 L60,32 L67,41 L73,50 L82,67 L90,83 L99,111 L106,138 L109,152 L111,175 L114,192 L116,227 L115,268 L113,286 L111,312 L109,321 L107,334 L104,343 L95,372 L88,386 L80,403 L68,417 L60,427 L53,433 L49,434 L42,442 L28,450 L10,453 L-3,450 L-17,442 L-25,435 L-36,421 L-37,420 L-37,415 L-36,413 L-42,412 L-47,404 L-53,393 L-59,380 L-67,360 L-73,336 L-76,323 L-80,307 L-83,291 L-85,266 L-87,251 L-87,180 L-86,162 L-82,138 L-80,123 L-75,105 L-69,84 L-63,70 L-51,44 L-45,36 L-38,28 L-31,20 L-26,15 L-21,10 L-11,3 Z M35,33 L30,35 L25,40 L13,57 L4,74 L-3,88 L-9,103 L-14,117 L-17,127 L-22,158 L-25,176 L-27,205 L-27,229 L-26,234 L-25,260 L-18,303 L-16,316 L-13,326 L-5,346 L0,357 L7,373 L15,384 L25,399 L35,410 L45,416 L52,415 L64,403 L68,395 L67,386 L61,377 L56,367 L51,354 L45,341 L39,320 L33,296 L31,289 L27,257 L26,245 L26,191 L29,164 L33,144 L35,130 L44,99 L51,78 L58,64 L58,55 L52,45 L43,35 L40,33 Z M74,98 L69,104 L63,119 L59,129 L53,155 L50,175 L49,199 L49,212 L51,244 L53,260 L56,281 L62,301 L68,320 L77,346 L81,352 L87,352 L91,344 L97,318 L99,299 L100,295 L102,265 L102,218 L100,186 L96,153 L89,124 L85,110 L79,99 Z " fill="#000000" transform="translate(194,269)"/>
<path d="M0,0 L5,1 L7,7 L9,15 L9,21 L8,22 L3,22 L-3,13 L-2,4 Z " fill="#000000" transform="translate(546,318)"/>
<path d="M0,0 L4,1 L5,2 L6,16 L3,18 L-1,14 L-2,11 L-2,3 Z " fill="#000000" transform="translate(559,386)"/>
<path d="M0,0 L4,2 L6,10 L6,25 L2,26 L-5,18 L-6,9 L-2,1 Z " fill="#000000" transform="translate(567,448)"/>
<path d="M0,0 L5,0 L6,1 L6,20 L4,23 L0,21 L-4,15 L-4,7 Z " fill="#000000" transform="translate(568,530)"/>
<path d="M0,0 L5,0 L6,1 L5,9 L3,15 L-1,17 L-5,13 L-5,6 Z " fill="#000000" transform="translate(564,606)"/>
<path d="M0,0 L4,1 L5,6 L1,20 L-4,21 L-6,16 L-6,7 L-2,1 Z " fill="#000000" transform="translate(553,685)"/>
<path d="M0,0 L5,0 L7,4 L2,14 L-1,25 L-5,27 L-8,24 L-9,19 L-9,8 Z " fill="#000000" transform="translate(531,758)"/>
<path d="M0,0 L4,2 L2,9 L-4,18 L-7,19 L-10,16 L-10,7 L-6,3 Z " fill="#000000" transform="translate(499,830)"/>
<path d="M0,0 L6,0 L5,4 L0,10 L-3,11 L-5,10 L-5,4 Z " fill="#000000" transform="translate(452,888)"/>
</svg>
