<?xml version="1.0" encoding="UTF-8"?>
<!-- Generator: visioncortex VTracer 0.6.12 -->
<svg version="1.1" xmlns="http://www.w3.org/2000/svg" width="1104" height="1107">
<path d="M0,0 L595,0 L593,16 L593,483 L594,676 L594,724 L595,901 L595,975 L596,1065 L596,1096 L597,1107 L3,1107 L4,1028 L3,792 L3,763 L2,630 L2,368 L1,271 L1,143 Z M170,53 L65,54 L61,58 L61,508 L62,633 L62,925 L63,998 L63,1034 L64,1050 L67,1053 L73,1055 L108,1055 L195,1056 L252,1056 L325,1057 L530,1057 L535,1052 L535,916 L534,769 L534,532 L533,419 L533,368 L532,59 L528,54 L503,53 Z M555,403 L554,408 L558,410 L560,408 L559,404 Z " fill="#000000" transform="translate(254,0)"/>
<path d="M0,0 L22,0 L32,4 L43,10 L50,16 L57,26 L62,36 L66,52 L66,75 L64,85 L59,97 L53,106 L48,112 L36,120 L27,124 L14,126 L4,126 L-14,120 L-22,115 L-31,106 L-37,97 L-43,81 L-44,73 L-44,52 L-42,41 L-37,29 L-30,18 L-26,13 L-20,9 L-14,5 Z M8,15 L7,19 L12,20 L11,15 Z " fill="#000000" transform="translate(541,117)"/>
<path d="M0,0 L45,0 L70,1 L80,3 L88,6 L103,14 L116,27 L123,37 L129,49 L132,58 L135,77 L136,95 L136,127 L137,260 L137,382 L134,387 L130,388 L85,388 L82,387 L80,378 L80,339 L79,231 L78,171 L78,132 L76,128 L78,125 L77,96 L71,96 L70,108 L69,115 L72,123 L75,126 L75,128 L71,129 L71,179 L72,241 L72,308 L73,584 L73,655 L74,727 L74,741 L71,749 L67,751 L5,751 L1,746 L0,737 L-1,481 L-1,427 L-2,396 L-4,392 L-7,393 L-8,402 L-8,439 L-7,610 L-7,735 L-8,746 L-10,749 L-13,750 L-70,751 L-76,751 L-79,748 L-80,746 L-81,729 L-81,709 L-80,705 L-81,698 L-81,648 L-82,377 L-83,242 L-84,124 L-85,97 L-89,96 L-91,101 L-91,132 L-90,183 L-90,387 L-93,390 L-103,391 L-141,391 L-145,388 L-146,381 L-146,340 L-147,246 L-148,122 L-148,93 L-147,75 L-144,60 L-137,44 L-131,35 L-123,24 L-111,15 L-105,11 L-92,5 L-79,2 L-68,1 L-44,1 Z M60,98 L61,105 L65,107 L64,101 L62,98 Z M44,109 L45,114 L49,117 L51,121 L53,121 L52,117 L49,110 Z " fill="#000000" transform="translate(561,253)"/>
<path d="M0,0 L2,0 L2,2 L0,2 Z " fill="#000000" transform="translate(0,1105)"/>
</svg>
