<?xml version="1.0" encoding="UTF-8"?>
<!-- Generator: visioncortex VTracer 0.6.12 -->
<svg version="1.1" xmlns="http://www.w3.org/2000/svg" width="1029" height="1005">
<path d="M0,0 L510,0 L508,2 L500,3 L490,3 L482,2 L452,3 L403,3 L269,4 L234,5 L223,4 L208,4 L202,5 L139,5 L132,6 L80,6 L72,7 L65,6 L34,7 L5,7 L0,10 Z " fill="#000000" transform="translate(0,0)"/>
<path d="M0,0 L5,0 L5,1 L0,1 Z " fill="#000000" transform="translate(525,0)"/>
<path d="M0,0 L13,0 L12,3 L2,2 Z " fill="#000000" transform="translate(540,0)"/>
<path d="M0,0 L11,0 L11,82 L11,85 L11,1005 L-335,1005 L-334,1003 L-327,1002 L-179,1002 L-114,1001 L-58,1001 L-26,1002 L-18,1001 L2,1001 L7,998 L8,994 L8,979 L9,958 L8,953 L7,806 L7,757 L6,742 L6,695 L5,675 L5,517 L4,483 L4,228 L3,143 L3,96 L2,85 L2,53 L1,9 Z " fill="#000000" transform="translate(1018,0)"/>
<path d="M0,0 L14,0 L26,3 L36,6 L46,13 L53,19 L57,25 L65,40 L68,47 L70,57 L69,77 L67,87 L60,101 L54,109 L52,114 L49,117 L43,120 L38,124 L27,129 L19,130 L-2,130 L-16,126 L-34,114 L-40,109 L-43,103 L-50,94 L-52,91 L-55,81 L-57,67 L-56,57 L-52,40 L-42,25 L-33,15 L-25,9 L-14,9 L-12,5 L-7,2 Z " fill="#000000" transform="translate(748,63)"/>
<path d="M0,0 L20,0 L26,2 L42,5 L50,9 L60,13 L69,19 L82,28 L90,35 L96,42 L103,50 L106,56 L112,63 L120,80 L123,89 L125,93 L130,114 L130,145 L127,163 L123,173 L120,184 L116,191 L111,200 L105,210 L104,212 L104,220 L111,228 L119,234 L126,240 L133,248 L143,259 L152,272 L157,280 L162,289 L167,300 L174,318 L175,321 L175,331 L171,337 L167,339 L84,339 L68,338 L65,337 L58,339 L48,340 L20,339 L15,338 L-2,338 L-9,339 L-32,338 L-57,338 L-76,339 L-78,338 L-170,338 L-174,334 L-174,326 L-172,320 L-168,312 L-162,295 L-153,278 L-142,263 L-134,253 L-128,246 L-123,241 L-118,236 L-105,226 L-99,221 L-99,214 L-106,202 L-110,197 L-113,190 L-117,183 L-122,168 L-125,157 L-126,148 L-126,111 L-124,102 L-120,90 L-118,83 L-111,69 L-105,58 L-98,47 L-92,40 L-84,33 L-76,27 L-66,21 L-61,17 L-45,9 L-40,7 L-32,5 L-17,2 Z " fill="#000000" transform="translate(755,230)"/>
<path d="M0,0 L2,4 L2,10 L0,11 Z " fill="#000000" transform="translate(0,463)"/>
<path d="M0,0 L1,0 L1,13 L0,13 Z " fill="#000000" transform="translate(0,485)"/>
<path d="M0,0 L2,3 L2,47 L0,48 Z " fill="#000000" transform="translate(0,512)"/>
<path d="M0,0 L2,1 L2,20 L0,23 Z " fill="#000000" transform="translate(0,565)"/>
<path d="M0,0 L20,0 L25,3 L26,7 L28,68 L27,98 L27,140 L29,269 L28,328 L28,338 L23,344 L14,349 L4,348 L-8,342 L-12,337 L-15,332 L-16,328 L-17,306 L-17,178 L-16,152 L-16,139 L-15,131 L-16,124 L-16,9 L-13,2 L-11,1 Z " fill="#000000" transform="translate(725,582)"/>
<path d="M0,0 L20,0 L25,6 L25,328 L21,338 L13,345 L7,348 L-4,347 L-11,342 L-14,336 L-14,321 L-13,317 L-13,235 L-14,177 L-13,173 L-14,122 L-14,7 L-11,2 L-10,1 Z " fill="#000000" transform="translate(779,582)"/>
<path d="M0,0 L2,2 L3,7 L3,43 L4,95 L5,189 L5,218 L6,237 L6,308 L7,388 L8,411 L0,411 Z " fill="#000000" transform="translate(0,594)"/>
<path d="M0,0 L24,0 L25,2 L0,2 Z " fill="#000000" transform="translate(546,1003)"/>
<path d="M0,0 L7,0 L8,2 L-1,2 Z " fill="#000000" transform="translate(590,1003)"/>
<path d="M0,0 L41,0 L42,2 L-1,2 Z " fill="#000000" transform="translate(626,1003)"/>
<path d="M0,0 L3,1 Z " fill="#000000" transform="translate(580,1004)"/>
<path d="M0,0 L10,0 L10,1 L0,1 Z " fill="#000000" transform="translate(605,1004)"/>
<path d="M0,0 L5,0 L5,1 L0,1 Z " fill="#000000" transform="translate(676,1004)"/>
</svg>
