<?xml version="1.0" encoding="UTF-8"?>
<!-- Generator: visioncortex VTracer 0.6.12 -->
<svg version="1.1" xmlns="http://www.w3.org/2000/svg" width="1164" height="1218">
<path d="M0,0 L19,0 L25,1 L25,12 L8,13 L-11,14 L-39,15 L-47,14 L-64,15 L-112,15 L-137,16 L-165,16 L-172,17 L-197,18 L-236,18 L-316,19 L-429,21 L-448,21 L-515,23 L-539,23 L-548,24 L-597,25 L-616,25 L-640,26 L-740,28 L-786,29 L-803,30 L-835,30 L-875,31 L-883,33 L-885,37 L-885,74 L-883,196 L-883,233 L-882,283 L-882,313 L-881,338 L-879,480 L-879,499 L-878,550 L-877,644 L-877,669 L-875,736 L-874,836 L-874,860 L-873,920 L-871,1072 L-871,1091 L-870,1115 L-868,1131 L-866,1133 L-841,1133 L-818,1132 L-795,1132 L-744,1131 L-688,1130 L-657,1129 L-638,1129 L-621,1128 L-557,1127 L-512,1126 L-435,1124 L-409,1123 L-406,1122 L-388,1122 L-381,1123 L-373,1122 L-349,1121 L-339,1122 L-325,1122 L-309,1121 L-255,1121 L-249,1120 L-179,1120 L-174,1119 L-121,1118 L-116,1120 L-110,1119 L-61,1118 L-47,1117 L-1,1117 L2,1116 L25,1116 L25,1126 L-2,1126 L-18,1128 L-76,1128 L-115,1129 L-117,1124 L-122,1127 L-124,1129 L-167,1130 L-202,1130 L-226,1131 L-263,1131 L-307,1132 L-342,1133 L-383,1134 L-396,1135 L-401,1133 L-413,1134 L-427,1134 L-482,1136 L-498,1136 L-561,1138 L-613,1139 L-625,1139 L-648,1140 L-688,1140 L-733,1141 L-750,1141 L-845,1144 L-853,1143 L-856,1144 L-867,1145 L-876,1147 L-880,1144 L-881,1136 L-883,1027 L-884,959 L-885,861 L-886,816 L-886,796 L-887,756 L-887,735 L-888,659 L-889,647 L-889,579 L-890,548 L-891,457 L-892,408 L-893,380 L-893,347 L-894,260 L-895,200 L-896,170 L-896,143 L-897,61 L-897,23 L-895,18 L-891,16 L-884,16 L-880,17 L-842,17 L-818,16 L-759,15 L-725,14 L-672,13 L-609,11 L-584,11 L-553,10 L-540,10 L-526,9 L-479,8 L-453,8 L-383,7 L-339,6 L-263,5 L-181,3 L-157,3 L-77,2 L-26,1 Z " fill="#000000" transform="translate(1139,36)"/>
<path d="M0,0 L12,0 L15,5 L19,27 L20,45 L20,64 L21,99 L21,148 L22,226 L22,245 L24,315 L25,327 L25,376 L26,434 L27,490 L28,518 L28,533 L29,567 L30,648 L31,699 L32,813 L32,901 L34,975 L34,994 L35,1022 L36,1091 L36,1100 L37,1108 L37,1118 L34,1121 L27,1123 L-25,1123 L-48,1124 L-56,1125 L-59,1124 L-100,1125 L-131,1125 L-131,1116 L-97,1113 L-82,1113 L-72,1114 L-66,1113 L-45,1113 L-26,1112 L-13,1112 L-5,1111 L14,1111 L22,1109 L24,1103 L24,1053 L23,1047 L21,953 L20,890 L20,745 L19,708 L18,631 L16,564 L15,507 L14,472 L14,443 L15,436 L13,430 L12,364 L12,327 L10,273 L8,80 L8,51 L7,26 L6,17 L3,13 L-2,12 L-87,13 L-101,14 L-131,14 L-131,5 L-128,4 L-114,3 L-15,1 Z " fill="#000000" transform="translate(131,60)"/>
<path d="M0,0 L4,0 L5,2 L7,87 L7,125 L8,128 L10,272 L11,307 L13,449 L15,539 L15,566 L16,637 L16,672 L17,703 L17,731 L18,767 L18,821 L19,834 L18,849 L17,851 L14,850 L14,815 L13,807 L12,760 L13,755 L12,732 L13,727 L12,724 L11,705 L11,686 L10,647 L9,584 L7,497 L5,417 L4,289 L3,220 L1,128 L-1,41 L-1,2 Z " fill="#000000" transform="translate(847,165)"/>
<path d="M0,0 L22,0 L37,5 L47,10 L58,19 L67,30 L75,45 L78,55 L79,65 L79,74 L77,89 L69,105 L61,116 L49,127 L38,133 L32,136 L23,138 L22,139 L4,139 L-8,138 L-23,132 L-33,126 L-46,114 L-53,103 L-57,95 L-60,84 L-60,58 L-56,44 L-48,30 L-40,20 L-30,12 L-16,4 Z " fill="#000000" transform="translate(1059,209)"/>
<path d="M0,0 L16,1 L32,7 L43,14 L53,23 L61,34 L67,46 L70,54 L71,64 L71,73 L70,84 L65,100 L57,112 L48,122 L38,130 L30,134 L17,139 L9,140 L-6,140 L-23,136 L-33,130 L-42,124 L-53,112 L-59,102 L-65,89 L-66,80 L-66,62 L-63,48 L-55,32 L-47,22 L-45,22 L-43,18 L-33,11 L-22,5 L-13,2 Z " fill="#000000" transform="translate(578,223)"/>
<path d="M0,0 L3,1 L3,4 L11,5 L21,5 L32,4 L99,2 L146,0 L168,0 L168,178 L165,176 L159,159 L152,144 L147,145 L140,164 L136,181 L136,190 L146,220 L150,229 L156,247 L159,254 L163,267 L166,277 L168,279 L168,435 L149,437 L144,439 L139,455 L134,490 L130,512 L126,538 L120,574 L115,599 L112,616 L109,637 L105,645 L101,647 L77,645 L74,641 L71,631 L68,618 L62,590 L58,575 L54,555 L52,546 L49,533 L43,505 L40,487 L36,473 L33,458 L28,443 L24,441 L4,440 L-9,441 L-52,441 L-55,438 L-53,427 L-50,417 L-46,405 L-41,388 L-30,354 L-22,327 L-18,314 L-14,301 L-7,280 L-2,263 L4,242 L11,221 L17,200 L20,191 L19,182 L14,170 L6,151 L1,150 L-2,159 L-8,177 L-16,203 L-20,216 L-24,229 L-32,254 L-38,275 L-47,305 L-51,309 L-53,310 L-102,311 L-111,310 L-113,308 L-112,301 L-107,283 L-100,260 L-94,239 L-91,232 L-87,216 L-82,202 L-79,193 L-72,170 L-67,157 L-64,145 L-60,132 L-55,118 L-49,97 L-43,79 L-38,61 L-31,37 L-22,11 L-19,7 L-16,6 L1,5 Z M-8,432 L-9,437 L-5,437 L-4,433 Z " fill="#000000" transform="translate(996,375)"/>
<path d="M0,0 L11,0 L15,5 L19,15 L26,35 L31,49 L37,65 L45,85 L47,94 L51,103 L58,124 L65,143 L75,170 L81,186 L88,207 L96,229 L101,243 L105,253 L112,273 L115,280 L122,301 L129,319 L128,324 L125,326 L64,329 L57,329 L52,324 L45,306 L41,290 L36,279 L33,270 L28,255 L25,248 L22,238 L18,228 L15,219 L11,207 L8,200 L4,190 L-5,166 L-10,154 L-14,153 L-19,159 L-31,182 L-38,197 L-41,205 L-40,214 L-35,230 L-29,246 L-22,266 L-17,278 L-14,289 L-6,310 L2,333 L7,346 L14,365 L23,390 L26,399 L30,408 L38,429 L45,448 L47,458 L51,468 L58,486 L61,494 L67,511 L72,523 L78,543 L84,557 L89,571 L95,587 L102,606 L107,624 L111,633 L110,637 L104,639 L93,639 L61,641 L21,642 L11,642 L6,637 L0,624 L-5,607 L-9,598 L-13,585 L-24,555 L-31,535 L-37,519 L-44,500 L-50,482 L-57,464 L-67,435 L-73,419 L-78,408 L-82,395 L-88,379 L-94,365 L-96,363 L-101,364 L-104,371 L-110,393 L-114,408 L-118,419 L-123,439 L-125,443 L-129,459 L-133,473 L-137,488 L-141,502 L-149,526 L-151,535 L-154,545 L-160,565 L-166,586 L-173,608 L-177,622 L-179,626 L-181,636 L-184,645 L-188,649 L-190,650 L-230,651 L-266,653 L-284,653 L-286,651 L-285,642 L-280,622 L-275,605 L-269,586 L-265,574 L-260,553 L-257,541 L-250,520 L-244,498 L-239,482 L-235,469 L-232,457 L-228,444 L-224,430 L-220,418 L-218,410 L-211,387 L-206,369 L-200,348 L-197,337 L-189,311 L-182,287 L-175,262 L-170,244 L-164,219 L-165,212 L-171,202 L-176,192 L-183,182 L-190,170 L-196,163 L-196,161 L-203,161 L-206,171 L-214,198 L-223,229 L-230,253 L-232,262 L-236,272 L-238,281 L-242,294 L-246,307 L-248,312 L-250,320 L-255,336 L-259,341 L-269,342 L-279,342 L-315,344 L-326,344 L-330,341 L-329,333 L-327,327 L-320,304 L-313,280 L-306,255 L-298,228 L-294,211 L-291,202 L-286,185 L-280,163 L-276,150 L-262,101 L-257,83 L-253,67 L-246,42 L-242,30 L-239,19 L-236,13 L-231,10 L-163,7 L-139,5 L-94,4 L-26,1 Z " fill="#000000" transform="translate(696,388)"/>
<path d="M0,0 L12,0 L28,5 L38,11 L48,19 L57,31 L62,41 L65,51 L66,69 L64,79 L61,89 L52,103 L43,113 L30,121 L20,125 L15,126 L-8,126 L-23,121 L-25,120 L-25,111 L-16,113 L-13,115 L-5,116 L13,116 L22,114 L35,107 L45,98 L49,92 L52,87 L51,81 L48,79 L36,78 L8,79 L-25,79 L-25,56 L-17,49 L1,31 L4,28 L10,29 L16,37 L24,44 L28,49 L36,56 L48,69 L50,71 L55,71 L57,67 L56,53 L54,44 L49,34 L40,23 L31,16 L18,10 L12,9 L-6,9 L-18,13 L-22,15 L-25,15 L-25,7 L-17,3 L-10,1 Z " fill="#000000" transform="translate(25,502)"/>
<path d="M0,0 L13,0 L24,1 L40,9 L49,16 L56,23 L65,37 L69,50 L70,56 L70,69 L68,82 L64,91 L60,99 L51,109 L46,115 L34,122 L23,126 L19,127 L-4,127 L-14,124 L-22,120 L-22,111 L-17,112 L-5,117 L11,118 L24,116 L33,113 L44,105 L49,99 L51,99 L53,94 L56,89 L60,79 L61,74 L61,54 L59,49 L54,48 L45,55 L30,71 L19,83 L14,88 L8,92 L3,89 L-4,83 L-10,75 L-18,68 L-22,65 L-22,42 L-11,40 L9,41 L25,41 L46,40 L52,39 L52,33 L46,25 L37,17 L27,12 L18,10 L1,9 L-14,13 L-19,17 L-22,17 L-22,8 L-15,4 L-7,2 Z " fill="#000000" transform="translate(22,665)"/>
</svg>
