<?xml version="1.0" encoding="UTF-8"?>
<!-- Generator: visioncortex VTracer 0.6.12 -->
<svg version="1.1" xmlns="http://www.w3.org/2000/svg" width="1113" height="1128">
<path d="M0,0 L374,0 L373,2 L354,3 L128,3 L48,4 L42,5 L17,7 L-6,14 L-21,22 L-33,30 L-43,37 L-51,45 L-58,53 L-65,63 L-70,71 L-76,83 L-82,104 L-83,117 L-85,128 L-86,128 L-86,77 L-78,63 L-71,52 L-62,42 L-59,38 L-57,38 L-55,34 L-48,27 L-32,16 L-21,9 L-5,2 Z " fill="#000000" transform="translate(86,0)"/>
<path d="M0,0 L58,0 L58,1 L26,3 L2,2 Z " fill="#000000" transform="translate(466,0)"/>
<path d="M0,0 L31,0 L31,2 L38,4 L48,11 L59,19 L69,28 L81,41 L87,51 L95,67 L100,81 L100,83 L102,83 L102,143 L100,142 L96,108 L89,82 L83,67 L77,55 L70,45 L65,40 L54,28 L40,18 L26,10 L19,7 L11,5 L0,2 Z " fill="#000000" transform="translate(1011,0)"/>
<path d="M0,0 L3,1 Z " fill="#000000" transform="translate(821,76)"/>
<path d="M0,0 L26,0 L39,4 L56,12 L67,21 L74,30 L80,39 L86,53 L89,70 L88,86 L85,98 L78,115 L65,130 L54,139 L48,143 L32,150 L15,152 L0,152 L-16,148 L-31,140 L-42,131 L-53,118 L-60,104 L-64,88 L-64,67 L-60,50 L-54,38 L-47,28 L-39,20 L-26,10 L-22,7 L-11,3 Z " fill="#000000" transform="translate(538,86)"/>
<path d="M0,0 L112,0 L131,1 L150,6 L167,14 L184,27 L196,40 L202,50 L205,55 L210,70 L213,82 L215,100 L215,252 L214,264 L215,267 L215,325 L214,346 L210,356 L206,362 L201,367 L194,371 L185,373 L177,373 L167,370 L157,363 L151,352 L149,338 L149,132 L147,123 L144,122 L137,122 L133,123 L131,129 L130,300 L130,393 L129,583 L129,717 L128,732 L124,745 L118,753 L107,763 L99,767 L84,769 L75,769 L58,760 L51,754 L47,748 L43,740 L40,728 L40,566 L41,489 L40,413 L40,393 L39,375 L25,375 L23,378 L22,680 L22,721 L19,739 L12,752 L5,760 L-5,766 L-18,770 L-31,770 L-42,766 L-52,759 L-60,750 L-65,740 L-66,727 L-66,665 L-67,394 L-67,131 L-70,125 L-81,125 L-84,128 L-85,142 L-85,205 L-86,348 L-92,362 L-100,370 L-113,375 L-127,375 L-137,371 L-142,366 L-147,360 L-149,355 L-151,345 L-151,173 L-150,91 L-148,79 L-142,61 L-135,49 L-132,44 L-123,34 L-119,29 L-110,22 L-101,16 L-87,9 L-75,5 L-54,2 Z M201,128 L201,131 L204,130 L203,128 Z " fill="#000000" transform="translate(518,259)"/>
<path d="M0,0 L1,0 L1,33 L-6,43 L-12,52 L-21,64 L-30,74 L-34,79 L-53,92 L-66,101 L-78,106 L-89,111 L-93,113 L-357,113 L-354,111 L-312,111 L-237,110 L-150,110 L-107,106 L-94,101 L-84,97 L-62,85 L-52,78 L-42,70 L-37,65 L-26,54 L-14,36 L-8,22 L-3,9 Z " fill="#000000" transform="translate(1112,1015)"/>
<path d="M0,0 L3,3 L5,15 L7,23 L7,30 L14,38 L21,50 L29,60 L38,70 L50,81 L64,90 L71,94 L80,97 L91,100 L121,105 L121,107 L75,107 L62,101 L54,97 L46,90 L32,79 L23,70 L15,59 L3,39 L2,34 L0,34 Z " fill="#000000" transform="translate(0,1021)"/>
</svg>
