<?xml version="1.0" encoding="UTF-8"?>
<!-- Generator: visioncortex VTracer 0.6.12 -->
<svg version="1.1" xmlns="http://www.w3.org/2000/svg" width="1014" height="1017">
<path d="M0,0 L811,0 L814,2 L820,4 L833,10 L848,19 L858,26 L863,31 L868,36 L881,48 L892,62 L897,71 L904,81 L909,93 L913,101 L914,102 L914,923 L912,923 L909,932 L904,942 L893,959 L884,970 L877,978 L869,985 L859,994 L855,996 L851,1000 L840,1006 L832,1011 L825,1014 L822,1017 L15,1017 L8,1012 L-1,1011 L-11,1006 L-22,1000 L-38,990 L-44,986 L-56,975 L-68,964 L-76,953 L-80,948 L-88,936 L-96,920 L-99,910 L-100,909 L-100,98 L-98,98 L-97,92 L-87,73 L-81,64 L-74,54 L-62,41 L-57,36 L-47,27 L-35,19 L-26,13 L-17,8 L-7,3 Z M58,18 L41,20 L24,23 L16,26 L8,28 L-11,38 L-25,46 L-33,54 L-41,61 L-46,66 L-55,76 L-64,92 L-72,107 L-79,130 L-82,167 L-82,823 L-81,862 L-78,879 L-75,892 L-71,902 L-67,912 L-59,926 L-51,935 L-45,944 L-33,956 L-23,964 L-12,971 L-5,976 L14,984 L33,989 L41,991 L54,992 L58,993 L164,993 L212,994 L269,995 L319,994 L321,995 L424,995 L430,996 L446,995 L470,996 L482,996 L487,995 L492,997 L502,996 L631,996 L656,997 L689,996 L694,997 L749,997 L778,996 L783,994 L796,991 L812,985 L823,980 L835,973 L845,966 L853,958 L858,953 L867,943 L873,935 L881,921 L886,910 L893,887 L896,872 L896,411 L895,223 L895,210 L893,145 L889,126 L884,110 L874,91 L871,85 L864,76 L861,71 L852,61 L839,49 L825,40 L805,31 L798,27 L791,25 L786,24 L780,23 L778,22 L739,20 L732,21 L726,20 L541,20 L533,19 L522,20 L422,20 L416,19 L373,20 L307,19 L296,20 L285,19 L192,19 L186,18 Z " fill="#000000" transform="translate(100,0)"/>
<path d="M0,0 L7,0 L19,3 L28,8 L37,16 L44,28 L46,34 L47,53 L45,66 L37,82 L33,88 L26,94 L20,104 L18,110 L18,118 L22,126 L29,134 L43,141 L53,148 L62,155 L70,163 L79,177 L84,186 L91,201 L93,208 L97,216 L101,226 L108,243 L113,253 L119,269 L124,279 L131,297 L134,305 L139,315 L145,331 L150,344 L150,351 L144,359 L139,362 L131,361 L126,358 L118,347 L112,333 L105,318 L101,308 L97,300 L92,287 L88,280 L83,265 L79,256 L74,245 L69,231 L63,221 L62,219 L58,219 L57,225 L57,245 L56,253 L56,290 L63,313 L67,323 L69,332 L73,342 L76,353 L80,364 L86,381 L88,385 L90,395 L95,409 L106,442 L111,458 L116,475 L115,481 L110,484 L98,483 L91,484 L45,484 L37,485 L35,496 L34,507 L33,510 L33,523 L32,535 L31,562 L29,580 L28,608 L25,654 L24,664 L23,679 L21,686 L17,688 L-12,688 L-17,685 L-20,675 L-22,649 L-23,643 L-24,604 L-26,586 L-27,558 L-29,537 L-30,509 L-32,492 L-34,486 L-39,483 L-85,483 L-90,482 L-110,481 L-113,478 L-113,471 L-108,458 L-106,448 L-103,440 L-98,425 L-90,401 L-88,393 L-75,355 L-68,331 L-65,323 L-62,313 L-59,304 L-54,290 L-51,265 L-51,250 L-52,242 L-52,223 L-53,216 L-55,215 L-58,218 L-64,231 L-67,241 L-73,251 L-78,265 L-82,273 L-85,280 L-93,297 L-99,310 L-104,324 L-108,333 L-116,350 L-123,358 L-132,361 L-141,356 L-143,354 L-145,347 L-145,339 L-140,325 L-134,310 L-126,294 L-118,274 L-114,265 L-110,255 L-104,240 L-100,231 L-95,219 L-90,208 L-81,188 L-78,181 L-70,166 L-62,157 L-60,157 L-58,153 L-52,148 L-39,140 L-27,134 L-21,128 L-18,122 L-17,110 L-19,100 L-25,91 L-34,81 L-39,70 L-42,59 L-42,40 L-40,31 L-34,19 L-25,9 L-12,2 Z " fill="#000000" transform="translate(503,160)"/>
</svg>
