<?xml version="1.0" encoding="UTF-8"?>
<!-- Generator: visioncortex VTracer 0.6.12 -->
<svg version="1.1" xmlns="http://www.w3.org/2000/svg" width="1158" height="1128">
<path d="M0,0 L1140,0 L1140,945 L1139,947 L1138,1018 L1138,1058 L1137,1093 L1137,1128 L-13,1128 L-14,1122 L-13,1083 L-13,1067 L-11,985 L-10,960 L-10,939 L-9,859 L-8,832 L-7,793 L-6,704 L-6,670 L-5,618 L-5,577 L-4,552 L-3,395 L-2,324 L-2,285 L-1,173 L-1,40 Z M69,4 L68,5 L22,6 L17,11 L15,38 L15,70 L14,139 L14,192 L13,258 L13,289 L12,346 L12,392 L11,423 L11,474 L10,536 L10,568 L9,641 L8,758 L7,797 L6,830 L4,943 L2,1025 L2,1071 L1,1102 L2,1111 L4,1115 L6,1116 L21,1117 L39,1117 L56,1118 L205,1118 L266,1119 L313,1119 L511,1121 L546,1121 L586,1120 L614,1120 L638,1121 L715,1121 L808,1122 L879,1123 L1106,1123 L1116,1122 L1119,1119 L1120,1103 L1122,1013 L1123,952 L1123,931 L1125,874 L1125,848 L1126,805 L1127,789 L1128,716 L1128,637 L1129,550 L1129,519 L1130,488 L1130,428 L1131,402 L1131,376 L1132,258 L1132,197 L1133,145 L1133,108 L1134,49 L1134,17 L1130,11 L1127,10 L1102,9 L1027,9 L1026,8 L964,9 L928,9 L849,8 L815,8 L746,7 L739,8 L720,7 L697,7 L690,6 L655,7 L615,7 L606,6 L567,6 L542,7 L416,6 L324,6 L258,5 L211,5 L183,6 L155,6 L105,5 L75,5 Z " fill="#000000" transform="translate(18,0)"/>
<path d="M0,0 L2,0 L2,2 L0,2 Z " fill="#000000" transform="translate(423,234)"/>
<path d="M0,0 L16,1 L29,2 L53,6 L67,10 L82,16 L94,21 L111,31 L120,37 L129,44 L134,47 L140,54 L147,60 L154,68 L166,81 L176,99 L180,107 L180,115 L173,121 L162,128 L146,136 L130,145 L120,150 L113,153 L107,156 L102,154 L96,147 L91,136 L86,127 L80,118 L67,105 L53,95 L36,88 L24,85 L17,84 L-9,84 L-14,86 L-24,88 L-34,92 L-47,99 L-59,108 L-69,119 L-74,129 L-80,140 L-83,150 L-88,163 L-92,178 L-100,229 L-102,253 L-103,259 L-103,275 L-104,282 L-103,328 L-101,356 L-97,385 L-89,418 L-80,438 L-74,448 L-67,457 L-58,466 L-48,473 L-32,482 L-18,486 L-4,488 L11,488 L20,487 L36,483 L46,479 L56,474 L66,467 L74,460 L80,455 L84,449 L92,437 L99,429 L106,429 L122,437 L136,445 L150,452 L157,456 L173,465 L178,469 L179,471 L179,478 L172,491 L165,500 L162,505 L160,505 L158,509 L153,514 L146,521 L134,530 L130,534 L122,539 L107,549 L91,557 L85,560 L77,563 L66,567 L49,571 L40,573 L29,575 L-9,575 L-29,573 L-54,567 L-70,562 L-84,555 L-107,542 L-117,534 L-126,529 L-131,524 L-152,503 L-158,494 L-165,484 L-176,466 L-188,441 L-195,427 L-199,414 L-202,404 L-206,390 L-211,372 L-212,362 L-212,351 L-216,343 L-217,325 L-217,262 L-215,240 L-211,213 L-208,194 L-201,169 L-197,155 L-190,138 L-185,128 L-178,114 L-172,105 L-166,93 L-157,81 L-148,71 L-142,63 L-134,56 L-121,45 L-108,35 L-96,27 L-80,19 L-67,13 L-46,7 L-29,3 Z " fill="#000000" transform="translate(909,303)"/>
<path d="M0,0 L13,0 L30,1 L34,0 L81,1 L87,5 L90,13 L96,42 L98,55 L102,73 L104,87 L108,102 L110,116 L115,142 L117,148 L125,191 L130,210 L133,224 L136,240 L140,260 L142,273 L147,283 L148,301 L152,322 L155,331 L158,339 L162,338 L164,333 L166,323 L169,314 L172,299 L181,263 L185,245 L187,232 L195,196 L199,176 L203,160 L207,139 L209,132 L213,109 L215,104 L217,90 L221,78 L226,52 L235,13 L239,5 L242,2 L253,0 L273,0 L307,1 L335,1 L341,4 L345,10 L350,33 L354,49 L356,63 L363,95 L368,117 L371,134 L374,146 L379,166 L383,190 L387,209 L389,218 L391,230 L394,242 L398,259 L403,287 L407,299 L409,312 L416,339 L418,342 L422,342 L424,334 L431,308 L434,294 L439,273 L442,260 L445,244 L451,220 L456,193 L460,178 L468,139 L472,124 L477,100 L482,82 L485,68 L488,53 L490,39 L495,17 L499,8 L504,3 L506,2 L516,1 L544,1 L578,2 L586,3 L590,8 L590,16 L585,35 L581,50 L579,62 L575,79 L571,94 L564,122 L559,144 L554,163 L552,172 L548,190 L541,218 L536,240 L529,266 L523,291 L515,325 L513,338 L509,350 L503,381 L499,393 L495,414 L491,430 L487,452 L482,470 L480,482 L478,487 L476,497 L472,510 L465,538 L461,551 L455,556 L448,558 L373,558 L365,555 L360,549 L354,528 L350,506 L346,487 L344,474 L342,469 L336,440 L334,429 L330,413 L327,400 L324,388 L322,377 L323,369 L320,368 L314,343 L309,325 L306,309 L302,294 L296,268 L292,248 L290,243 L287,229 L283,216 L282,214 L277,215 L271,229 L268,243 L266,254 L261,275 L257,289 L251,317 L249,329 L247,338 L240,368 L231,406 L227,425 L223,441 L217,463 L214,475 L213,487 L209,497 L201,533 L199,538 L197,546 L193,552 L188,555 L167,556 L109,556 L102,551 L97,542 L95,535 L91,512 L87,496 L81,470 L77,452 L71,423 L68,413 L64,394 L60,380 L57,364 L51,339 L45,310 L41,290 L32,253 L27,229 L21,200 L15,175 L7,137 L-3,90 L-5,81 L-8,72 L-12,48 L-18,22 L-19,15 L-19,6 L-16,2 Z " fill="#000000" transform="translate(114,309)"/>
</svg>
