<?xml version="1.0" encoding="UTF-8"?>
<!-- Generator: visioncortex VTracer 0.6.12 -->
<svg version="1.1" xmlns="http://www.w3.org/2000/svg" width="1164" height="1203">
<path d="M0,0 L2,1 Z " fill="#000000" transform="translate(326,25)"/>
<path d="M0,0 L35,1 L51,0 L70,1 L75,5 L76,8 L77,97 L77,147 L78,161 L78,185 L79,233 L79,352 L80,413 L80,530 L81,579 L81,668 L82,712 L83,814 L84,872 L84,886 L85,896 L84,912 L85,918 L85,956 L86,1009 L87,1035 L87,1060 L88,1081 L88,1094 L87,1104 L85,1108 L79,1111 L-15,1113 L-89,1115 L-119,1115 L-136,1116 L-174,1116 L-195,1118 L-232,1118 L-235,1119 L-254,1119 L-286,1120 L-321,1120 L-334,1121 L-348,1121 L-377,1122 L-403,1122 L-419,1123 L-454,1123 L-469,1124 L-529,1124 L-533,1125 L-547,1126 L-598,1127 L-616,1127 L-638,1128 L-651,1129 L-659,1128 L-662,1129 L-698,1129 L-719,1130 L-729,1131 L-735,1130 L-751,1130 L-763,1131 L-796,1131 L-799,1132 L-830,1133 L-881,1133 L-901,1134 L-928,1134 L-944,1135 L-993,1136 L-1021,1136 L-1026,1131 L-1027,1129 L-1029,1111 L-1029,1053 L-1030,1046 L-1030,975 L-1031,952 L-1031,908 L-1032,881 L-1032,815 L-1034,769 L-1033,758 L-1034,725 L-1034,707 L-1035,629 L-1036,511 L-1036,473 L-1037,449 L-1038,374 L-1038,290 L-1039,241 L-1040,226 L-1041,141 L-1042,96 L-1042,42 L-1040,33 L-1036,30 L-1032,29 L-1015,29 L-954,27 L-935,27 L-907,26 L-846,25 L-810,24 L-799,23 L-762,23 L-751,22 L-719,21 L-710,20 L-693,21 L-688,20 L-659,19 L-631,19 L-607,18 L-578,17 L-516,16 L-475,15 L-450,15 L-440,14 L-408,13 L-402,12 L-379,12 L-335,11 L-275,9 L-223,8 L-203,8 L-196,9 L-186,6 L-148,6 L-126,5 L-119,4 L-84,4 L-47,3 L-4,1 Z M-502,40 L-505,41 L-546,45 L-559,48 L-572,50 L-588,53 L-599,57 L-620,62 L-636,66 L-648,70 L-657,73 L-667,77 L-679,82 L-682,84 L-690,86 L-706,94 L-716,99 L-727,104 L-734,107 L-748,118 L-759,124 L-768,129 L-777,135 L-791,145 L-799,151 L-807,158 L-817,167 L-823,170 L-827,175 L-835,181 L-843,188 L-848,193 L-859,205 L-864,210 L-872,217 L-881,228 L-889,237 L-894,245 L-902,256 L-910,267 L-919,279 L-927,293 L-934,302 L-939,311 L-943,318 L-946,324 L-956,342 L-959,349 L-962,354 L-967,367 L-974,382 L-983,408 L-986,417 L-993,442 L-1001,479 L-1004,495 L-1006,510 L-1008,527 L-1010,553 L-1011,572 L-1010,608 L-1009,622 L-1006,643 L-1003,666 L-1000,683 L-991,722 L-987,731 L-985,740 L-980,752 L-973,771 L-969,779 L-964,792 L-959,805 L-956,810 L-949,824 L-940,839 L-935,849 L-927,861 L-914,880 L-904,894 L-899,899 L-893,908 L-888,914 L-881,922 L-873,929 L-866,937 L-861,942 L-856,947 L-851,952 L-845,957 L-841,963 L-831,971 L-822,979 L-811,988 L-801,996 L-795,1000 L-786,1007 L-780,1011 L-771,1017 L-765,1020 L-754,1027 L-743,1033 L-727,1041 L-719,1045 L-707,1051 L-694,1057 L-681,1062 L-658,1072 L-643,1076 L-622,1082 L-614,1084 L-604,1086 L-592,1090 L-582,1092 L-569,1094 L-564,1096 L-555,1097 L-546,1097 L-516,1100 L-470,1101 L-466,1100 L-420,1097 L-414,1096 L-406,1096 L-387,1092 L-378,1091 L-359,1086 L-345,1083 L-335,1080 L-326,1077 L-310,1072 L-301,1069 L-289,1064 L-281,1062 L-271,1057 L-238,1042 L-214,1029 L-204,1023 L-186,1012 L-178,1006 L-171,1002 L-166,997 L-158,993 L-147,984 L-139,978 L-135,974 L-130,971 L-123,964 L-119,960 L-113,955 L-113,953 L-109,951 L-104,946 L-89,930 L-80,921 L-71,910 L-61,899 L-54,888 L-45,877 L-41,871 L-34,860 L-26,851 L-21,841 L-13,827 L-3,808 L0,801 L5,791 L9,782 L16,770 L23,749 L26,740 L34,720 L38,704 L42,695 L43,693 L45,680 L47,670 L50,647 L52,641 L54,629 L56,605 L57,601 L58,576 L58,551 L56,506 L54,497 L52,482 L47,457 L45,446 L40,425 L33,403 L28,386 L24,375 L18,360 L15,353 L9,341 L-2,318 L-6,310 L-11,301 L-20,285 L-28,275 L-34,266 L-42,254 L-45,249 L-54,238 L-60,230 L-67,221 L-79,209 L-85,202 L-90,198 L-95,193 L-100,188 L-107,179 L-115,173 L-129,161 L-141,152 L-150,145 L-158,139 L-172,130 L-177,126 L-193,117 L-198,113 L-206,109 L-215,103 L-224,98 L-229,95 L-239,91 L-260,82 L-274,76 L-283,73 L-295,68 L-306,65 L-312,62 L-324,60 L-337,56 L-352,52 L-355,51 L-369,50 L-377,48 L-400,45 L-412,42 L-422,42 L-425,41 L-455,40 Z " fill="#000000" transform="translate(1073,35)"/>
<path d="M0,0 L16,0 L31,3 L45,10 L56,18 L62,23 L69,33 L73,41 L79,54 L80,66 L80,82 L76,95 L68,113 L63,120 L55,127 L44,136 L35,140 L27,144 L15,146 L-9,146 L-19,143 L-32,136 L-41,129 L-51,120 L-58,110 L-61,103 L-65,93 L-67,87 L-67,67 L-62,46 L-55,32 L-50,26 L-45,21 L-35,12 L-23,6 L-14,2 Z " fill="#000000" transform="translate(778,207)"/>
<path d="M0,0 L13,1 L15,2 L33,4 L46,11 L60,21 L70,32 L75,40 L79,50 L83,63 L84,71 L83,94 L79,106 L74,116 L63,130 L54,139 L45,145 L38,149 L24,154 L10,156 L-10,155 L-18,153 L-30,148 L-39,142 L-44,137 L-52,130 L-59,121 L-70,98 L-72,86 L-72,69 L-68,53 L-63,41 L-58,33 L-49,23 L-45,18 L-33,10 L-25,7 L-17,4 L-11,2 Z " fill="#000000" transform="translate(397,212)"/>
<path d="M0,0 L10,0 L20,1 L44,11 L53,17 L63,23 L70,30 L76,34 L83,42 L89,52 L93,57 L99,66 L106,80 L109,88 L116,103 L125,126 L130,140 L135,152 L140,167 L143,176 L148,193 L153,210 L158,232 L161,244 L163,254 L167,270 L170,288 L171,297 L173,302 L174,315 L177,330 L180,351 L181,370 L182,374 L183,395 L184,401 L184,428 L181,434 L179,435 L154,437 L141,437 L128,436 L126,435 L120,435 L117,437 L77,437 L74,438 L56,439 L46,441 L43,444 L42,453 L41,484 L40,489 L40,522 L39,543 L38,577 L37,611 L35,664 L32,672 L26,675 L-1,676 L-17,675 L-22,669 L-23,666 L-25,639 L-27,598 L-28,589 L-30,551 L-31,545 L-32,517 L-34,501 L-35,476 L-37,464 L-38,449 L-42,443 L-45,441 L-93,441 L-115,442 L-140,442 L-173,443 L-178,439 L-180,435 L-181,422 L-181,400 L-179,385 L-179,369 L-177,351 L-174,334 L-172,311 L-167,285 L-165,267 L-162,255 L-157,230 L-153,216 L-149,202 L-146,190 L-140,173 L-134,152 L-131,146 L-128,137 L-125,130 L-121,117 L-114,101 L-106,85 L-100,73 L-94,61 L-86,49 L-75,36 L-68,28 L-57,19 L-45,12 L-35,7 L-21,3 L-12,1 Z M120,404 L120,409 L122,409 L122,404 Z " fill="#000000" transform="translate(787,364)"/>
<path d="M0,0 L29,0 L35,3 L36,5 L37,15 L37,49 L36,72 L35,76 L33,106 L30,134 L29,138 L28,152 L25,165 L21,185 L19,200 L17,208 L16,217 L14,222 L12,231 L8,247 L5,261 L-1,281 L-9,306 L-13,318 L-20,339 L-30,363 L-35,375 L-42,388 L-51,405 L-60,417 L-64,423 L-71,431 L-82,440 L-88,444 L-92,447 L-94,447 L-94,449 L-97,452 L-98,459 L-99,468 L-99,516 L-100,565 L-99,574 L-100,612 L-100,636 L-101,657 L-105,661 L-107,662 L-147,664 L-165,664 L-169,662 L-172,653 L-173,640 L-174,597 L-176,541 L-177,510 L-177,493 L-178,477 L-179,472 L-179,460 L-183,451 L-189,446 L-197,442 L-211,430 L-218,423 L-223,418 L-231,407 L-239,395 L-242,389 L-245,385 L-247,380 L-252,370 L-261,350 L-265,336 L-272,318 L-277,305 L-284,286 L-290,268 L-293,256 L-297,242 L-299,236 L-301,226 L-304,217 L-307,201 L-310,189 L-312,182 L-317,145 L-322,106 L-323,100 L-324,82 L-326,63 L-327,40 L-327,25 L-326,12 L-316,8 L-291,8 L-265,6 L-219,6 L-194,5 L-182,5 L-157,4 L-132,4 L-50,2 L-34,1 L-5,1 Z " fill="#000000" transform="translate(548,385)"/>
</svg>
