<?xml version="1.0" encoding="UTF-8"?>
<!-- Generator: visioncortex VTracer 0.6.12 -->
<svg version="1.1" xmlns="http://www.w3.org/2000/svg" width="1113" height="1110">
<path d="M0,0 L1113,0 L1113,9 L1110,8 L1106,4 L1027,4 L968,5 L953,5 L929,4 L913,4 L907,5 L850,5 L813,6 L718,6 L675,7 L562,7 L534,8 L504,8 L481,9 L331,9 L310,10 L173,10 L150,11 L125,11 L87,12 L43,12 L9,13 L4,16 L1,28 L0,28 Z " fill="#000000" transform="translate(0,0)"/>
<path d="M0,0 L15,0 L33,4 L49,12 L59,20 L66,27 L76,42 L79,47 L85,69 L85,88 L81,103 L77,113 L67,129 L58,138 L46,147 L33,153 L20,157 L15,158 L3,158 L-9,156 L-17,154 L-33,146 L-44,138 L-51,131 L-62,115 L-68,98 L-70,85 L-70,73 L-67,57 L-63,46 L-58,36 L-51,27 L-47,22 L-29,9 L-21,5 L-8,1 Z M-40,27 L-39,31 L-36,31 L-36,28 Z " fill="#000000" transform="translate(539,85)"/>
<path d="M0,0 L91,0 L98,2 L107,3 L123,11 L132,17 L141,25 L149,35 L156,49 L159,57 L162,70 L163,91 L163,114 L164,233 L164,282 L165,358 L165,371 L163,378 L160,380 L114,381 L104,381 L99,378 L98,376 L97,364 L96,284 L96,243 L95,158 L94,120 L92,112 L86,112 L85,117 L85,234 L86,349 L86,518 L87,542 L87,732 L85,739 L84,740 L51,740 L46,741 L13,741 L10,736 L9,714 L8,625 L8,587 L7,566 L7,529 L6,405 L5,390 L2,385 L-4,385 L-6,389 L-7,424 L-6,517 L-5,625 L-5,735 L-7,739 L-10,741 L-31,742 L-80,742 L-83,737 L-84,673 L-85,570 L-85,520 L-87,384 L-88,274 L-89,200 L-89,137 L-90,119 L-92,114 L-95,113 L-98,116 L-99,120 L-99,209 L-98,317 L-98,377 L-100,381 L-108,384 L-134,384 L-160,382 L-164,377 L-165,356 L-166,274 L-166,227 L-167,141 L-167,76 L-164,59 L-157,42 L-150,32 L-142,23 L-130,14 L-114,6 L-103,3 L-93,2 L-76,2 L-17,1 Z M114,241 L112,243 L113,248 L117,250 L119,248 L119,242 Z " fill="#000000" transform="translate(551,258)"/>
<path d="M0,0 L3,1 L2,4 L-1,4 Z " fill="#000000" transform="translate(896,461)"/>
<path d="M0,0 L3,1 L4,5 L0,5 Z " fill="#000000" transform="translate(0,1105)"/>
<path d="M0,0 L3,0 L3,7 L-749,7 L-748,5 L-723,5 L-649,4 L-622,4 L-614,3 L-584,4 L-437,3 L-389,3 L-343,2 L-49,2 L-5,1 Z " fill="#000000" transform="translate(1110,1103)"/>
<path d="M0,0 L11,0 L14,2 L-2,2 Z " fill="#000000" transform="translate(315,1108)"/>
<path d="M0,0 L8,0 L9,2 L-1,2 Z " fill="#000000" transform="translate(344,1108)"/>
<path d="M0,0 L3,1 Z " fill="#000000" transform="translate(235,1109)"/>
<path d="M0,0 L3,1 Z " fill="#000000" transform="translate(283,1109)"/>
</svg>
