<?xml version="1.0" encoding="UTF-8"?>
<!-- Generator: visioncortex VTracer 0.6.12 -->
<svg version="1.1" xmlns="http://www.w3.org/2000/svg" width="1140" height="1131">
<path d="M0,0 L20,0 L25,1 L34,1 L39,0 L432,0 L430,2 L386,3 L290,5 L266,6 L248,6 L223,7 L197,7 L191,8 L165,8 L155,9 L100,10 L61,11 L37,11 L22,12 L11,11 L5,12 L-61,13 L-90,14 L-109,14 L-118,15 L-143,15 L-183,16 L-241,18 L-287,18 L-301,19 L-316,19 L-327,20 L-352,20 L-356,21 L-390,22 L-403,22 L-424,23 L-446,23 L-482,24 L-495,25 L-499,28 L-500,31 L-500,120 L-499,169 L-498,223 L-497,323 L-495,414 L-495,433 L-493,525 L-492,577 L-492,601 L-491,641 L-491,668 L-490,727 L-489,752 L-488,809 L-487,866 L-487,874 L-486,886 L-486,913 L-484,1053 L-483,1071 L-483,1103 L-482,1121 L-480,1127 L-477,1129 L-477,1131 L-496,1131 L-496,1029 L-497,1001 L-497,975 L-498,938 L-499,833 L-502,701 L-502,665 L-503,619 L-504,618 L-504,14 L-440,12 L-370,11 L-340,9 L-322,9 L-295,8 L-246,7 L-225,7 L-213,6 L-120,4 L-102,3 L-23,2 L0,2 Z " fill="#000000" transform="translate(504,0)"/>
<path d="M0,0 L17,0 L18,2 L20,92 L20,128 L21,150 L21,175 L23,261 L23,290 L24,376 L25,407 L25,435 L27,479 L27,1118 L18,1117 L11,1116 L-12,1116 L-63,1117 L-126,1118 L-147,1119 L-176,1119 L-190,1120 L-220,1120 L-225,1121 L-283,1122 L-323,1123 L-349,1123 L-355,1124 L-405,1125 L-448,1126 L-466,1127 L-497,1127 L-512,1128 L-593,1129 L-610,1130 L-634,1130 L-642,1131 L-1059,1131 L-1057,1129 L-1023,1128 L-954,1127 L-901,1125 L-826,1124 L-791,1123 L-761,1123 L-759,1124 L-753,1124 L-750,1122 L-705,1121 L-675,1120 L-628,1120 L-602,1119 L-507,1118 L-502,1117 L-470,1117 L-419,1115 L-390,1115 L-356,1114 L-342,1113 L-250,1111 L-238,1110 L-208,1110 L-161,1109 L-143,1108 L-99,1108 L-90,1107 L-70,1107 L15,1105 L19,1103 L20,1099 L20,1063 L18,951 L18,937 L17,893 L15,772 L14,735 L13,654 L12,612 L12,585 L11,554 L10,495 L9,451 L9,400 L8,384 L7,289 L6,224 L5,167 L4,143 L3,90 L3,36 Z " fill="#000000" transform="translate(1113,0)"/>
<path d="M0,0 L17,0 L30,4 L44,13 L50,18 L57,28 L63,41 L65,46 L68,63 L67,71 L65,84 L59,99 L51,109 L47,114 L39,121 L34,126 L33,129 L33,158 L35,168 L37,171 L58,177 L85,183 L94,186 L98,190 L103,204 L112,229 L119,247 L124,262 L138,303 L146,327 L149,333 L154,350 L159,362 L166,382 L172,401 L175,412 L179,422 L187,447 L191,457 L195,471 L195,477 L191,480 L157,482 L149,480 L145,475 L140,464 L136,451 L129,431 L119,403 L108,370 L99,342 L95,332 L91,319 L86,306 L80,290 L74,289 L73,295 L69,308 L66,321 L64,333 L63,336 L63,347 L69,368 L77,390 L81,404 L86,416 L91,429 L99,452 L107,473 L113,488 L118,502 L128,528 L135,548 L140,561 L144,574 L149,588 L154,607 L152,611 L145,612 L130,613 L88,614 L70,616 L66,619 L64,624 L58,672 L55,700 L50,757 L48,771 L46,791 L41,836 L38,848 L33,851 L26,852 L4,852 L-1,849 L-4,844 L-10,819 L-14,791 L-19,765 L-21,740 L-26,713 L-28,705 L-30,689 L-34,669 L-37,650 L-40,637 L-42,626 L-44,617 L-48,616 L-123,616 L-127,612 L-126,604 L-119,581 L-114,564 L-110,551 L-106,537 L-101,523 L-97,506 L-92,493 L-88,479 L-81,458 L-77,447 L-70,422 L-66,411 L-63,399 L-56,378 L-53,369 L-47,351 L-47,338 L-54,313 L-57,302 L-59,296 L-61,290 L-66,290 L-69,296 L-77,319 L-83,337 L-86,347 L-89,358 L-96,379 L-101,396 L-110,424 L-113,435 L-119,454 L-126,475 L-130,481 L-167,482 L-174,480 L-175,479 L-175,468 L-170,450 L-164,431 L-162,423 L-155,399 L-148,372 L-146,367 L-143,355 L-137,337 L-129,311 L-117,275 L-110,254 L-106,240 L-103,231 L-98,217 L-93,201 L-89,192 L-85,189 L-67,184 L-59,182 L-43,178 L-30,174 L-26,170 L-25,166 L-24,147 L-25,133 L-27,128 L-37,119 L-43,114 L-47,109 L-47,107 L-49,107 L-56,93 L-60,78 L-61,72 L-61,56 L-57,41 L-52,31 L-45,22 L-33,11 L-18,4 L-8,1 Z M-39,274 L-46,277 L-52,284 L-53,293 L-50,302 L-44,308 L-38,309 L-38,305 L-43,302 L-47,294 L-46,288 L-41,281 L-32,280 L-28,281 L-27,291 L-29,298 L-32,303 L-31,307 L-27,306 L-23,299 L-20,297 L-20,289 L-23,281 L-26,277 L-32,274 Z " fill="#000000" transform="translate(550,137)"/>
<path d="M0,0 L4,1 L3,5 L0,5 L-1,2 Z " fill="#000000" transform="translate(267,942)"/>
<path d="M0,0 L6,1 L8,3 L7,7 L1,4 L-1,1 Z " fill="#000000" transform="translate(1039,991)"/>
<path d="M0,0 L2,1 Z " fill="#000000" transform="translate(35,1130)"/>
</svg>
