<?xml version="1.0" encoding="UTF-8"?>
<!-- Generator: visioncortex VTracer 0.6.12 -->
<svg version="1.1" xmlns="http://www.w3.org/2000/svg" width="1020" height="1008">
<path d="M0,0 L882,0 L882,2 L891,5 L906,11 L915,14 L928,26 L937,37 L943,48 L950,59 L952,68 L953,70 L953,453 L952,458 L953,460 L953,592 L952,596 L952,604 L953,605 L953,634 L952,640 L953,641 L953,910 L951,912 L950,925 L948,930 L946,938 L942,944 L939,953 L932,964 L924,975 L916,983 L911,988 L896,999 L886,1004 L880,1008 L-2,1008 L-2,1006 L-7,1005 L-21,997 L-30,991 L-30,989 L-34,987 L-41,981 L-45,975 L-45,973 L-47,973 L-47,971 L-51,969 L-63,953 L-65,948 L-67,938 L-67,79 L-64,70 L-62,62 L-54,49 L-50,42 L-43,34 L-38,27 L-33,25 L-31,21 L-20,11 L-5,3 L0,2 Z M57,39 L45,42 L30,44 L16,49 L7,55 L2,59 L-4,67 L-9,74 L-9,76 L-13,78 L-17,87 L-21,103 L-22,118 L-22,164 L-23,175 L-23,194 L-22,212 L-23,221 L-23,260 L-22,284 L-23,290 L-23,334 L-22,360 L-23,376 L-23,435 L-22,459 L-23,481 L-23,493 L-22,504 L-23,525 L-23,599 L-22,606 L-23,629 L-24,644 L-23,672 L-22,674 L-23,703 L-21,719 L-22,723 L-23,749 L-24,778 L-23,787 L-23,799 L-22,813 L-23,821 L-23,900 L-19,920 L-15,928 L-12,935 L-8,940 L-1,948 L4,953 L20,960 L27,964 L49,966 L57,966 L65,965 L71,966 L75,965 L84,966 L86,965 L97,965 L103,966 L130,966 L142,965 L145,964 L163,965 L172,966 L178,965 L186,966 L205,966 L218,965 L222,967 L241,966 L268,966 L281,967 L289,967 L293,966 L313,967 L319,965 L329,965 L335,966 L353,966 L379,967 L398,966 L407,965 L421,965 L424,966 L434,966 L439,965 L446,966 L464,964 L472,965 L481,963 L486,965 L496,965 L506,966 L511,963 L520,963 L527,965 L540,965 L544,966 L570,964 L573,965 L590,965 L597,966 L602,965 L611,966 L641,966 L647,965 L650,966 L660,966 L664,965 L674,965 L683,966 L696,966 L703,965 L710,966 L720,965 L732,966 L736,964 L741,965 L743,966 L755,966 L760,963 L765,964 L768,966 L778,964 L791,965 L792,964 L797,964 L801,965 L805,964 L814,965 L820,966 L831,966 L837,965 L843,965 L850,962 L869,954 L879,946 L883,942 L894,924 L897,914 L899,900 L899,792 L898,779 L899,762 L899,624 L898,587 L898,536 L899,525 L899,409 L900,365 L901,360 L901,264 L902,219 L902,171 L901,156 L900,149 L901,145 L902,115 L899,100 L890,79 L885,73 L875,68 L870,65 L865,62 L856,58 L848,55 L840,55 L831,53 L826,50 L819,50 L809,48 L792,47 L786,46 L770,46 L766,47 L745,46 L737,45 L733,46 L731,45 L690,45 L672,46 L668,45 L646,44 L640,43 L635,44 L615,44 L589,43 L571,43 L566,44 L560,45 L557,46 L553,44 L537,44 L527,42 L503,42 L500,43 L471,42 L405,42 L384,43 L380,42 L323,42 L313,41 L281,42 L264,41 L251,42 L227,42 L176,41 L152,42 L148,41 L103,41 L91,42 L88,41 L74,41 L62,39 Z " fill="#000000" transform="translate(67,0)"/>
<path d="M0,0 L7,0 L13,3 L34,3 L45,5 L54,4 L63,4 L69,0 L75,1 L78,3 L91,4 L96,5 L97,4 L107,3 L111,5 L123,6 L126,4 L140,4 L147,0 L153,1 L160,3 L161,4 L175,5 L182,5 L185,6 L194,6 L196,5 L202,5 L208,6 L214,2 L221,3 L224,4 L234,4 L244,6 L291,6 L298,7 L323,6 L331,5 L343,6 L356,6 L362,7 L367,6 L399,8 L414,8 L431,7 L434,8 L438,6 L443,6 L448,9 L456,9 L459,8 L467,8 L472,9 L480,7 L487,8 L490,9 L496,8 L508,12 L515,13 L526,19 L539,28 L549,38 L555,51 L556,56 L556,103 L555,147 L556,153 L556,179 L555,200 L555,223 L556,227 L556,240 L555,249 L555,339 L554,345 L554,428 L553,440 L553,519 L554,602 L554,698 L553,788 L553,810 L554,825 L553,850 L549,863 L542,877 L531,887 L520,893 L513,895 L487,896 L468,895 L441,895 L421,894 L418,895 L319,895 L313,893 L309,894 L248,894 L242,895 L237,894 L197,894 L181,895 L173,894 L88,894 L69,893 L33,894 L22,893 L17,894 L-1,894 L-2,893 L-7,893 L-8,894 L-99,894 L-104,895 L-149,894 L-165,894 L-168,895 L-196,894 L-221,895 L-237,895 L-243,896 L-251,895 L-273,895 L-291,893 L-303,889 L-313,884 L-322,875 L-322,873 L-324,873 L-328,865 L-331,856 L-333,840 L-332,827 L-332,792 L-333,780 L-332,775 L-332,758 L-333,754 L-332,714 L-331,699 L-333,687 L-333,634 L-334,594 L-333,591 L-333,567 L-332,558 L-332,495 L-334,436 L-333,425 L-333,308 L-332,294 L-333,284 L-333,249 L-331,240 L-332,196 L-332,141 L-331,87 L-331,60 L-328,44 L-324,31 L-317,24 L-312,19 L-304,12 L-297,9 L-286,6 L-278,6 L-270,7 L-258,5 L-240,6 L-237,5 L-211,5 L-203,1 L-198,1 L-196,3 L-187,3 L-184,5 L-172,4 L-130,4 L-124,3 L-119,4 L-116,2 L-101,2 L-99,3 L-78,3 L-57,4 L-52,3 L-6,3 Z M518,91 L518,93 L521,93 L521,91 Z M492,247 L492,251 L495,251 L494,247 Z M331,317 L328,318 L315,319 L308,320 L300,320 L287,326 L278,328 L266,333 L256,340 L246,347 L241,352 L232,362 L225,373 L216,392 L211,404 L209,414 L208,417 L205,452 L205,469 L206,480 L208,488 L210,500 L212,510 L216,518 L221,532 L227,541 L232,547 L239,556 L242,557 L244,562 L252,568 L261,574 L276,581 L286,586 L297,588 L301,590 L321,590 L324,591 L339,591 L360,590 L376,586 L395,578 L402,574 L412,567 L419,561 L428,550 L437,538 L442,526 L446,516 L448,502 L445,493 L442,491 L437,490 L424,490 L414,489 L406,490 L385,490 L379,497 L374,511 L370,519 L363,529 L348,539 L343,541 L334,543 L321,542 L309,537 L298,529 L290,520 L284,505 L281,497 L280,494 L280,482 L278,460 L279,433 L281,416 L285,403 L290,391 L297,381 L305,374 L305,372 L314,369 L319,365 L328,363 L335,363 L340,365 L349,366 L358,372 L368,380 L374,389 L380,407 L384,412 L390,415 L400,414 L419,414 L422,415 L437,415 L442,411 L444,403 L439,378 L430,361 L419,346 L412,339 L395,328 L376,322 L365,319 L347,318 L346,317 Z M-238,325 L-244,328 L-248,332 L-248,339 L-244,350 L-242,358 L-239,367 L-229,394 L-226,405 L-222,416 L-213,443 L-208,455 L-205,467 L-199,482 L-195,496 L-189,512 L-186,521 L-184,529 L-176,549 L-171,564 L-165,574 L-158,580 L-155,581 L-123,582 L-121,581 L-109,580 L-88,580 L-82,573 L-78,563 L-70,541 L-66,529 L-63,521 L-56,497 L-52,482 L-48,474 L-45,464 L-41,451 L-35,429 L-31,411 L-29,407 L-27,395 L-22,397 L-16,411 L-13,429 L-6,449 L-3,458 L-1,467 L3,477 L5,487 L7,491 L10,503 L14,512 L19,527 L24,537 L28,547 L35,569 L40,577 L50,580 L101,580 L110,577 L118,570 L122,559 L130,540 L134,527 L138,518 L145,501 L150,488 L153,479 L158,468 L168,438 L175,421 L184,392 L189,382 L197,356 L203,344 L204,341 L204,329 L199,327 L194,326 L190,325 L151,325 L141,329 L136,335 L132,344 L128,357 L123,370 L113,397 L105,424 L101,433 L96,450 L93,462 L88,477 L81,504 L79,508 L75,508 L72,496 L65,472 L58,446 L53,431 L48,414 L43,398 L40,385 L36,375 L33,362 L29,353 L26,344 L21,329 L17,326 L12,325 L-37,325 L-48,326 L-56,332 L-60,341 L-64,350 L-72,371 L-76,382 L-81,399 L-89,419 L-94,434 L-102,461 L-106,468 L-109,478 L-115,496 L-120,508 L-124,508 L-128,495 L-131,480 L-135,462 L-142,438 L-144,428 L-148,408 L-150,400 L-154,389 L-159,372 L-162,359 L-166,351 L-169,345 L-172,335 L-177,327 L-189,325 Z " fill="#000000" transform="translate(395,53)"/>
</svg>
