<?xml version="1.0" encoding="UTF-8"?>
<!-- Generator: visioncortex VTracer 0.6.12 -->
<svg version="1.1" xmlns="http://www.w3.org/2000/svg" width="1089" height="1203">
<path d="M0,0 L102,1 L284,1 L294,2 L317,1 L370,1 L411,2 L418,1 L429,1 L443,2 L462,1 L498,2 L567,2 L595,3 L709,3 L719,4 L725,4 L725,1132 L685,1132 L673,1133 L662,1133 L656,1132 L546,1132 L501,1131 L491,1132 L455,1132 L408,1131 L381,1131 L280,1130 L269,1131 L254,1130 L168,1130 L151,1129 L145,1130 L134,1130 L109,1129 L60,1129 L-29,1128 L-102,1128 L-124,1127 L-130,1128 L-141,1127 L-260,1127 L-314,1126 L-324,1125 L-326,1122 L-327,1116 L-327,1073 L-326,1006 L-326,962 L-325,889 L-325,867 L-324,858 L-325,843 L-324,825 L-324,754 L-323,730 L-324,710 L-322,536 L-321,535 L-322,520 L-322,461 L-321,450 L-321,323 L-322,317 L-321,296 L-321,221 L-320,196 L-319,191 L-320,188 L-320,77 L-319,11 L-316,4 L-312,2 L-293,2 L-284,1 L-66,1 Z M-104,51 L-105,53 L-102,54 L-101,51 Z M248,109 L234,112 L222,117 L211,125 L201,136 L196,145 L191,158 L190,166 L190,180 L193,196 L199,208 L208,218 L213,223 L220,228 L235,235 L238,236 L263,237 L272,236 L293,225 L305,214 L311,205 L316,194 L319,182 L319,163 L316,151 L310,139 L304,131 L289,117 L281,114 L265,109 Z M225,273 L210,275 L192,283 L167,297 L153,305 L137,314 L126,320 L108,330 L94,338 L88,342 L76,348 L64,355 L49,363 L36,371 L25,377 L12,385 L-9,397 L-15,400 L-35,412 L-58,425 L-63,429 L-71,432 L-79,438 L-86,443 L-88,446 L-88,455 L-80,471 L-71,486 L-66,496 L-58,507 L-54,513 L-49,517 L-43,516 L-24,506 L-9,498 L4,491 L21,481 L38,472 L48,466 L57,461 L79,449 L89,444 L97,439 L108,433 L129,422 L143,414 L170,399 L185,391 L191,388 L202,382 L207,382 L208,383 L209,411 L209,450 L208,466 L205,472 L195,488 L188,499 L178,515 L173,523 L161,543 L154,554 L143,571 L130,593 L115,618 L109,627 L103,637 L96,648 L87,663 L79,676 L74,686 L69,694 L63,702 L57,713 L52,723 L52,730 L56,733 L66,734 L97,735 L174,735 L202,736 L205,740 L205,835 L204,888 L203,943 L203,1019 L208,1025 L213,1027 L224,1026 L237,1027 L279,1027 L285,1024 L287,1021 L288,1016 L290,984 L291,948 L291,900 L293,810 L293,790 L294,744 L296,738 L300,736 L320,735 L352,735 L434,734 L446,732 L449,728 L448,723 L435,700 L428,687 L415,665 L403,645 L394,629 L390,623 L386,616 L383,611 L374,595 L368,586 L359,570 L351,557 L345,547 L336,532 L327,517 L323,511 L317,500 L309,488 L303,478 L299,471 L297,467 L296,460 L296,424 L297,392 L299,379 L309,383 L325,393 L336,399 L344,404 L367,417 L372,422 L380,425 L386,429 L391,431 L400,437 L406,440 L414,445 L428,453 L439,459 L449,465 L464,474 L472,478 L480,483 L491,489 L501,495 L520,506 L543,518 L549,519 L557,510 L567,494 L576,479 L586,461 L589,455 L590,448 L587,443 L576,435 L562,426 L557,423 L541,414 L529,408 L518,401 L505,393 L494,387 L477,377 L460,368 L455,364 L435,353 L423,346 L414,340 L398,332 L379,321 L368,315 L359,309 L338,297 L319,287 L298,275 L283,273 Z M-28,860 L-28,862 L-26,862 L-26,860 Z " fill="#000000" transform="translate(364,36)"/>
</svg>
