<?xml version="1.0" encoding="UTF-8"?>
<!-- Generator: visioncortex VTracer 0.6.12 -->
<svg version="1.1" xmlns="http://www.w3.org/2000/svg" width="1029" height="1005">
<path d="M0,0 L82,0 L81,2 L68,3 L57,3 L53,2 L44,3 L20,3 L14,4 L13,10 L12,86 L12,135 L11,148 L12,162 L11,168 L11,198 L10,218 L9,247 L7,417 L6,466 L5,506 L5,550 L4,625 L3,677 L2,739 L1,754 L-1,760 L1,763 L1,988 L2,996 L37,997 L106,997 L133,998 L192,998 L214,999 L222,998 L229,999 L233,998 L384,998 L395,999 L470,999 L475,998 L481,999 L540,1000 L572,1000 L578,999 L580,1000 L599,1000 L606,1001 L732,1001 L760,1002 L802,1002 L812,1003 L814,1005 L-5,1005 L-5,266 L-4,264 L-2,181 L-2,137 L-1,89 L-1,66 L0,27 Z " fill="#000000" transform="translate(5,0)"/>
<path d="M0,0 L939,0 L939,690 L938,695 L938,719 L939,723 L938,730 L939,733 L938,735 L937,787 L936,865 L935,884 L936,894 L936,931 L935,936 L935,1005 L915,1005 L918,1000 L920,970 L921,931 L922,894 L923,872 L923,771 L925,698 L925,679 L926,671 L926,599 L927,505 L928,496 L928,460 L932,455 L931,451 L928,447 L928,432 L929,408 L930,344 L930,314 L931,303 L931,285 L932,279 L931,270 L931,257 L933,194 L934,180 L934,51 L935,34 L935,17 L934,10 L926,8 L868,8 L813,7 L802,7 L800,8 L771,7 L734,7 L727,6 L701,7 L690,6 L544,6 L502,5 L496,6 L468,5 L351,5 L345,4 L319,4 L295,5 L285,4 L133,4 L127,5 L125,4 L94,4 L75,3 L19,3 L11,2 L2,3 Z " fill="#000000" transform="translate(90,0)"/>
<path d="M0,0 L10,1 L19,4 L29,9 L39,17 L46,26 L49,32 L52,42 L54,59 L51,72 L46,84 L35,97 L27,103 L11,110 L-3,111 L-15,110 L-32,102 L-40,96 L-48,86 L-50,85 L-56,71 L-58,60 L-58,52 L-54,36 L-47,23 L-41,15 L-28,7 L-17,2 Z " fill="#000000" transform="translate(521,106)"/>
<path d="M0,0 Z " fill="#000000" transform="translate(25,184)"/>
<path d="M0,0 L3,1 L2,3 L0,3 Z " fill="#000000" transform="translate(712,204)"/>
<path d="M0,0 L56,0 L60,1 L69,1 L83,5 L91,8 L101,12 L112,19 L117,23 L117,25 L122,27 L132,39 L141,54 L147,70 L149,78 L151,98 L151,125 L150,132 L150,159 L146,282 L145,310 L144,325 L143,340 L139,345 L133,346 L51,346 L46,345 L34,347 L6,346 L-22,347 L-48,345 L-91,345 L-95,341 L-97,332 L-97,290 L-98,243 L-98,217 L-99,151 L-100,117 L-100,102 L-97,77 L-91,62 L-86,52 L-83,45 L-79,39 L-62,22 L-50,13 L-31,4 L-11,1 Z " fill="#000000" transform="translate(493,233)"/>
<path d="M0,0 L54,1 L60,4 L63,11 L62,30 L57,87 L56,100 L54,135 L53,143 L50,182 L47,234 L43,278 L41,302 L38,309 L35,311 L2,311 L-18,310 L-21,306 L-23,296 L-24,280 L-26,246 L-28,218 L-31,158 L-33,138 L-34,98 L-35,75 L-36,68 L-37,50 L-38,44 L-38,28 L-39,24 L-39,9 L-37,4 L-31,1 L-12,1 Z " fill="#000000" transform="translate(504,593)"/>
<path d="M0,0 L7,0 L13,1 L42,1 L43,3 L-4,3 L-3,1 Z " fill="#000000" transform="translate(883,1002)"/>
<path d="M0,0 L6,0 L9,3 L-21,3 L-20,1 Z " fill="#000000" transform="translate(841,1002)"/>
<path d="M0,0 L14,0 L16,2 L-2,2 Z " fill="#000000" transform="translate(855,1003)"/>
<path d="M0,0 L5,0 L6,2 L-1,2 Z " fill="#000000" transform="translate(933,1003)"/>
<path d="M0,0 L14,1 L16,3 L-26,3 L-25,1 Z " fill="#000000" transform="translate(969,1002)"/>
</svg>
