<?xml version="1.0" encoding="UTF-8"?>
<!-- Generator: visioncortex VTracer 0.6.12 -->
<svg version="1.1" xmlns="http://www.w3.org/2000/svg" width="1140" height="1116">
<path d="M0,0 L1137,0 L1137,1066 L1136,1084 L1136,1096 L1137,1100 L1137,1116 L1081,1116 L1081,1115 L1086,1114 L1117,1113 L1121,1112 L1122,1109 L1123,1077 L1125,948 L1125,912 L1126,799 L1127,742 L1128,688 L1129,561 L1130,497 L1130,433 L1131,395 L1132,326 L1132,291 L1133,222 L1134,125 L1134,15 L1130,11 L1127,10 L1097,9 L1035,9 L988,8 L859,8 L853,7 L833,7 L825,8 L793,7 L766,7 L746,6 L732,7 L706,7 L648,6 L638,7 L574,6 L501,6 L457,5 L380,5 L372,4 L362,4 L349,5 L322,5 L272,4 L19,4 L16,6 L14,32 L14,47 L13,81 L13,102 L12,142 L12,163 L10,278 L9,378 L8,409 L8,431 L7,472 L6,571 L5,593 L5,669 L4,723 L4,791 L3,829 L3,874 L1,884 L2,888 L2,940 L0,1062 L1,1105 L5,1106 L112,1106 L135,1107 L190,1107 L335,1109 L410,1109 L489,1110 L567,1110 L610,1111 L703,1112 L937,1112 L1007,1113 L1039,1113 L1058,1114 L1077,1114 L1080,1116 L-3,1116 L-3,118 L-2,101 L-3,94 L-1,88 L-1,59 Z " fill="#000000" transform="translate(3,0)"/>
<path d="M0,0 L14,0 L29,3 L46,12 L59,23 L68,34 L75,48 L79,61 L81,75 L80,88 L76,103 L68,120 L55,134 L42,143 L36,146 L23,151 L12,154 L1,152 L-7,152 L-18,149 L-30,144 L-39,139 L-43,134 L-51,127 L-59,116 L-68,97 L-70,85 L-70,70 L-67,55 L-64,46 L-58,34 L-45,20 L-33,11 L-21,5 L-11,1 Z " fill="#000000" transform="translate(560,75)"/>
<path d="M0,0 L17,1 L35,5 L50,11 L60,18 L68,23 L72,28 L80,35 L90,50 L96,60 L101,74 L103,82 L104,92 L104,113 L102,155 L101,164 L100,194 L100,210 L102,214 L118,223 L132,233 L146,244 L155,252 L164,263 L172,270 L183,286 L198,311 L202,319 L207,332 L212,344 L216,360 L220,378 L222,395 L223,431 L223,462 L221,501 L216,505 L206,506 L153,507 L141,506 L115,505 L89,507 L83,510 L81,514 L78,561 L77,566 L76,596 L74,612 L74,627 L70,688 L69,698 L67,745 L65,768 L63,796 L60,803 L57,805 L45,806 L39,805 L16,805 L10,802 L8,795 L7,754 L7,725 L5,578 L5,549 L4,539 L4,516 L-1,515 L-2,590 L-4,650 L-5,706 L-7,786 L-8,800 L-13,805 L-15,806 L-55,806 L-61,803 L-63,795 L-65,779 L-66,740 L-67,725 L-69,671 L-71,638 L-72,605 L-75,541 L-76,521 L-78,509 L-87,507 L-139,506 L-188,506 L-212,505 L-216,503 L-218,498 L-218,429 L-217,393 L-215,380 L-212,362 L-210,357 L-206,341 L-197,320 L-191,308 L-184,297 L-175,283 L-167,273 L-160,264 L-156,259 L-148,252 L-138,243 L-125,233 L-115,226 L-105,220 L-95,214 L-93,214 L-91,205 L-91,179 L-92,171 L-94,109 L-94,100 L-92,81 L-88,66 L-80,51 L-72,40 L-62,28 L-52,20 L-31,8 L-16,3 Z " fill="#000000" transform="translate(560,242)"/>
</svg>
