<?xml version="1.0" encoding="UTF-8"?>
<!-- Generator: visioncortex VTracer 0.6.12 -->
<svg version="1.1" xmlns="http://www.w3.org/2000/svg" width="1014" height="1017">
<path d="M0,0 L828,0 L828,2 L837,4 L846,7 L858,11 L868,19 L877,25 L882,30 L887,35 L892,41 L897,46 L903,53 L912,67 L916,72 L919,77 L920,83 L922,83 L922,125 L920,125 L916,104 L911,92 L906,80 L898,67 L889,56 L886,52 L885,47 L880,45 L867,34 L856,28 L837,17 L811,11 L798,9 L760,7 L736,8 L705,7 L550,7 L527,6 L512,6 L489,7 L483,6 L391,6 L385,7 L332,6 L305,6 L299,5 L296,6 L177,6 L144,7 L128,6 L120,5 L111,6 L83,5 L45,6 L27,8 L16,12 L6,14 L-3,17 L-11,21 L-22,27 L-27,31 L-36,37 L-44,45 L-52,52 L-58,61 L-68,74 L-76,89 L-82,110 L-85,127 L-85,148 L-86,200 L-86,305 L-90,304 L-92,303 L-92,91 L-84,75 L-78,63 L-74,58 L-64,45 L-58,36 L-49,29 L-44,26 L-42,26 L-40,22 L-35,17 L-26,12 L-18,8 L-10,4 L-1,1 Z " fill="#000000" transform="translate(92,0)"/>
<path d="M0,0 L21,0 L34,3 L43,10 L51,16 L61,26 L66,37 L71,50 L72,63 L70,80 L65,92 L59,100 L50,109 L45,112 L40,119 L41,124 L42,125 L56,126 L74,126 L85,132 L94,143 L99,151 L110,184 L114,197 L122,223 L125,235 L130,245 L133,262 L137,272 L143,293 L152,321 L157,338 L158,339 L159,348 L164,360 L166,369 L171,385 L177,404 L178,414 L175,417 L140,417 L135,413 L131,402 L126,384 L122,372 L120,363 L112,337 L107,320 L101,304 L95,280 L92,272 L86,251 L84,241 L80,240 L78,240 L76,250 L70,265 L66,280 L65,283 L65,294 L67,302 L70,314 L79,341 L82,350 L85,362 L89,377 L92,390 L96,403 L99,410 L103,425 L107,436 L112,456 L118,470 L120,482 L123,492 L124,500 L122,503 L119,504 L69,504 L62,506 L60,510 L58,529 L57,532 L55,561 L52,587 L50,613 L48,627 L47,647 L45,654 L44,668 L42,681 L41,695 L38,707 L35,709 L26,709 L12,710 L7,709 L3,713 L-4,710 L-14,710 L-19,706 L-21,697 L-24,673 L-24,650 L-26,632 L-28,611 L-29,593 L-31,579 L-33,548 L-35,535 L-36,517 L-38,505 L-39,502 L-82,501 L-102,501 L-105,497 L-103,481 L-98,472 L-93,452 L-90,442 L-87,434 L-81,413 L-74,395 L-72,385 L-69,374 L-66,362 L-60,345 L-54,324 L-50,313 L-48,305 L-44,292 L-45,279 L-49,267 L-52,255 L-56,245 L-56,243 L-61,243 L-64,254 L-71,272 L-78,300 L-83,313 L-89,334 L-95,355 L-99,367 L-102,373 L-104,384 L-106,394 L-108,397 L-112,410 L-115,413 L-131,414 L-141,414 L-153,413 L-156,410 L-155,403 L-151,386 L-146,371 L-143,359 L-140,353 L-137,341 L-134,335 L-132,327 L-125,302 L-116,275 L-114,266 L-111,259 L-105,239 L-96,210 L-91,194 L-87,181 L-84,173 L-78,153 L-73,144 L-65,134 L-59,130 L-49,127 L-34,126 L-21,126 L-18,124 L-18,116 L-25,109 L-30,104 L-38,95 L-45,81 L-47,72 L-48,54 L-44,39 L-39,29 L-32,19 L-27,14 L-22,9 L-15,5 L-9,2 Z " fill="#000000" transform="translate(244,174)"/>
<path d="M0,0 L23,0 L38,6 L46,12 L54,18 L62,28 L67,36 L69,44 L71,50 L71,65 L67,82 L61,94 L52,104 L47,109 L40,115 L39,122 L40,123 L49,124 L54,126 L86,126 L99,128 L109,133 L116,140 L121,148 L125,161 L127,170 L130,176 L136,198 L140,208 L146,228 L148,233 L151,247 L157,263 L163,284 L165,289 L167,298 L169,301 L173,315 L177,328 L181,343 L184,349 L190,370 L196,388 L199,399 L200,410 L197,414 L157,414 L146,411 L142,404 L140,395 L135,379 L133,375 L131,367 L125,345 L121,334 L116,316 L111,301 L107,286 L104,276 L101,267 L99,263 L97,254 L92,242 L92,240 L87,242 L80,259 L75,272 L71,281 L68,289 L68,303 L74,322 L82,346 L88,367 L95,391 L100,406 L103,415 L107,431 L111,443 L118,465 L123,482 L126,490 L131,511 L134,519 L139,535 L143,548 L145,552 L148,564 L153,582 L160,602 L162,611 L172,641 L176,658 L178,662 L180,670 L184,680 L187,693 L187,706 L186,707 L178,708 L146,708 L139,707 L132,707 L125,704 L120,691 L113,672 L106,658 L104,652 L100,643 L97,634 L93,626 L90,618 L86,608 L79,591 L69,566 L65,557 L58,540 L52,524 L41,496 L33,480 L29,465 L26,459 L22,451 L17,439 L14,433 L9,433 L1,451 L-5,464 L-10,475 L-18,496 L-22,504 L-29,524 L-35,536 L-44,561 L-46,566 L-47,573 L-52,579 L-59,595 L-63,604 L-69,619 L-72,628 L-76,639 L-82,649 L-85,658 L-90,670 L-95,682 L-100,695 L-105,704 L-106,705 L-123,706 L-162,705 L-166,702 L-165,690 L-162,681 L-160,673 L-149,636 L-147,633 L-143,619 L-141,615 L-139,604 L-133,588 L-130,577 L-126,563 L-117,536 L-114,522 L-110,513 L-103,490 L-97,471 L-92,454 L-89,446 L-86,434 L-83,426 L-74,395 L-71,387 L-66,371 L-61,355 L-57,343 L-55,333 L-49,316 L-46,307 L-43,295 L-44,287 L-46,279 L-56,255 L-61,241 L-63,239 L-67,239 L-69,246 L-71,248 L-73,257 L-79,274 L-84,292 L-93,320 L-99,341 L-103,352 L-107,366 L-110,376 L-113,383 L-116,397 L-120,407 L-125,411 L-130,412 L-172,411 L-176,407 L-175,395 L-170,380 L-168,377 L-166,368 L-163,359 L-161,355 L-158,343 L-155,334 L-153,324 L-150,317 L-145,300 L-141,286 L-131,253 L-128,244 L-123,229 L-120,220 L-118,208 L-111,192 L-105,169 L-98,148 L-90,136 L-82,130 L-68,125 L-58,124 L-56,123 L-49,123 L-44,124 L-35,123 L-26,124 L-18,121 L-18,115 L-23,111 L-31,104 L-37,97 L-37,95 L-39,95 L-47,79 L-50,64 L-49,49 L-41,29 L-35,20 L-30,16 L-24,9 L-12,3 Z " fill="#000000" transform="translate(710,180)"/>
<path d="M0,0 L38,0 L45,1 L52,2 L55,5 L56,12 L56,548 L55,554 L55,627 L54,699 L52,703 L45,704 L20,704 L7,705 L-4,702 L-6,698 L-7,636 L-7,288 L-6,280 L-7,246 L-6,237 L-6,159 L-7,143 L-6,116 L-6,52 L-5,47 L-5,7 L-3,2 Z " fill="#000000" transform="translate(454,182)"/>
<path d="M0,0 L5,2 L6,8 L6,72 L5,93 L5,162 L4,244 L3,389 L3,425 L1,433 L0,433 Z " fill="#000000" transform="translate(0,319)"/>
<path d="M0,0 L1,0 L1,6 L-1,5 Z " fill="#000000" transform="translate(1013,322)"/>
<path d="M0,0 L1,0 L1,21 L-1,21 L-1,2 Z " fill="#000000" transform="translate(1013,337)"/>
<path d="M0,0 L1,0 L1,39 L-1,38 L-1,2 Z " fill="#000000" transform="translate(1013,384)"/>
<path d="M0,0 L1,0 L1,495 L-1,495 L-2,501 L-10,517 L-17,530 L-24,540 L-34,551 L-38,556 L-46,563 L-55,570 L-60,574 L-71,580 L-77,582 L-77,584 L-117,584 L-114,581 L-105,579 L-95,576 L-86,572 L-73,567 L-60,560 L-47,548 L-38,540 L-32,530 L-26,522 L-16,503 L-11,488 L-9,483 L-7,466 L-6,462 L-4,428 L-4,385 L-3,308 L-3,162 L-2,39 L-1,18 L-1,2 Z " fill="#000000" transform="translate(1013,433)"/>
<path d="M0,0 L2,2 L2,11 L0,15 Z " fill="#000000" transform="translate(0,757)"/>
<path d="M0,0 L2,1 L2,16 L0,17 Z " fill="#000000" transform="translate(0,783)"/>
<path d="M0,0 L2,1 L1,5 L0,5 Z " fill="#000000" transform="translate(0,817)"/>
<path d="M0,0 L2,1 L2,7 L0,8 Z " fill="#000000" transform="translate(0,855)"/>
<path d="M0,0 L2,1 L3,19 L6,36 L10,55 L14,65 L18,72 L21,79 L28,89 L34,97 L34,99 L37,100 L42,105 L50,113 L63,122 L69,125 L77,130 L89,135 L93,137 L103,139 L108,142 L116,142 L127,144 L156,145 L162,145 L167,143 L171,146 L204,145 L211,146 L275,146 L277,145 L298,146 L336,146 L342,147 L358,147 L362,149 L362,150 L90,150 L82,146 L73,141 L65,138 L57,133 L50,127 L41,121 L27,107 L16,93 L12,87 L8,79 L3,71 L0,66 Z " fill="#000000" transform="translate(0,867)"/>
<path d="M0,0 L11,0 L14,3 L-6,3 L-5,1 Z " fill="#000000" transform="translate(466,1014)"/>
<path d="M0,0 L7,1 L8,3 L-2,3 Z " fill="#000000" transform="translate(500,1014)"/>
<path d="M0,0 L10,0 L11,2 L-1,2 Z " fill="#000000" transform="translate(368,1015)"/>
<path d="M0,0 L12,1 L15,3 L-8,3 L-7,1 Z " fill="#000000" transform="translate(392,1014)"/>
<path d="M0,0 L5,1 L6,4 L-40,4 L-38,2 L-24,1 L-18,2 L-9,1 L-2,1 Z " fill="#000000" transform="translate(448,1013)"/>
<path d="M0,0 L4,1 L4,3 L-4,3 L-3,1 Z " fill="#000000" transform="translate(487,1014)"/>
<path d="M0,0 L7,0 L10,2 L-1,2 Z " fill="#000000" transform="translate(516,1015)"/>
<path d="M0,0 L3,1 L-1,2 Z " fill="#000000" transform="translate(713,1015)"/>
</svg>
