<?xml version="1.0" encoding="UTF-8"?>
<!-- Generator: visioncortex VTracer 0.6.12 -->
<svg version="1.1" xmlns="http://www.w3.org/2000/svg" width="1137" height="1131">
<path d="M0,0 L456,0 L457,16 L458,107 L459,181 L460,267 L461,272 L461,280 L460,289 L461,304 L461,944 L460,944 L459,926 L458,858 L457,792 L456,750 L455,663 L453,549 L452,441 L451,399 L451,355 L449,240 L448,142 L447,60 L446,11 L442,7 L438,6 L404,6 L360,7 L312,8 L285,9 L212,10 L178,12 L99,12 L74,13 L46,13 L39,14 L14,15 L-25,15 L-105,16 L-218,18 L-304,20 L-328,20 L-337,21 L-386,22 L-405,22 L-429,23 L-529,25 L-575,26 L-592,27 L-625,27 L-664,28 L-672,30 L-675,35 L-676,35 L-676,13 L-669,14 L-631,14 L-607,13 L-548,12 L-514,11 L-461,10 L-398,8 L-373,8 L-342,7 L-329,7 L-315,6 L-268,5 L-243,5 L-172,4 L-128,3 L-52,2 L-7,1 Z " fill="#000000" transform="translate(676,0)"/>
<path d="M0,0 L2,3 L3,54 L4,125 L4,162 L5,212 L5,242 L6,267 L8,409 L8,428 L9,479 L10,573 L10,598 L12,665 L13,765 L13,789 L14,849 L16,1001 L16,1020 L17,1044 L19,1060 L20,1063 L6,1063 L4,955 L3,888 L2,789 L1,745 L0,740 L1,733 L1,725 L0,723 Z " fill="#000000" transform="translate(0,68)"/>
<path d="M0,0 L4,0 L5,2 L7,87 L7,125 L8,128 L10,272 L11,307 L13,449 L14,485 L15,551 L16,637 L16,672 L17,703 L17,731 L18,767 L18,821 L19,834 L18,849 L17,851 L14,850 L14,815 L13,807 L12,760 L13,755 L12,732 L13,727 L12,724 L11,705 L11,686 L10,646 L9,584 L7,497 L5,417 L4,289 L3,220 L1,128 L-1,41 L-1,2 Z " fill="#000000" transform="translate(595,126)"/>
<path d="M0,0 L22,0 L37,5 L47,10 L57,18 L67,30 L75,45 L78,55 L79,65 L79,74 L77,89 L69,105 L61,116 L49,127 L38,133 L32,136 L23,138 L22,139 L4,139 L-8,138 L-22,133 L-33,126 L-46,114 L-53,103 L-57,95 L-60,84 L-60,58 L-56,44 L-48,30 L-40,20 L-30,12 L-16,4 Z " fill="#000000" transform="translate(807,170)"/>
<path d="M0,0 L16,1 L32,7 L43,14 L53,23 L61,34 L67,46 L70,54 L71,64 L71,73 L70,84 L65,100 L57,112 L48,122 L38,130 L30,134 L17,139 L9,140 L-6,140 L-23,136 L-33,130 L-42,124 L-53,112 L-59,102 L-65,89 L-66,80 L-66,62 L-63,48 L-55,32 L-47,22 L-45,22 L-43,18 L-33,11 L-22,5 L-13,2 Z " fill="#000000" transform="translate(326,184)"/>
<path d="M0,0 L3,1 L3,4 L11,5 L20,5 L32,4 L99,2 L146,0 L169,0 L173,2 L178,13 L182,25 L186,35 L191,50 L196,63 L204,85 L208,96 L211,104 L218,124 L222,136 L228,151 L235,171 L240,182 L244,194 L249,208 L258,232 L267,256 L276,282 L280,294 L279,300 L273,302 L239,303 L215,303 L210,298 L205,286 L194,255 L192,251 L190,243 L179,213 L173,197 L166,177 L157,154 L152,144 L147,145 L140,164 L136,181 L136,190 L146,220 L150,229 L156,247 L159,254 L163,267 L166,277 L171,287 L174,296 L182,318 L189,337 L194,350 L198,361 L202,374 L208,390 L216,410 L220,423 L221,425 L221,432 L218,434 L212,435 L187,436 L160,436 L149,437 L144,439 L140,451 L136,475 L132,503 L130,512 L126,538 L120,574 L115,599 L112,616 L109,637 L105,645 L101,647 L77,645 L74,641 L71,631 L68,618 L62,590 L58,575 L54,555 L51,543 L47,523 L43,505 L40,487 L36,473 L33,458 L28,443 L24,441 L4,440 L-9,441 L-52,441 L-55,438 L-53,427 L-50,417 L-46,405 L-40,384 L-30,354 L-22,327 L-18,314 L-14,301 L-7,280 L-2,263 L4,242 L11,221 L17,200 L20,191 L19,182 L14,170 L6,151 L1,150 L-2,159 L-8,177 L-16,203 L-20,216 L-24,229 L-32,254 L-39,279 L-44,295 L-47,305 L-51,309 L-53,310 L-102,311 L-111,310 L-113,308 L-112,301 L-107,283 L-100,260 L-94,239 L-91,232 L-87,216 L-82,201 L-76,183 L-68,159 L-62,139 L-57,122 L-54,113 L-44,82 L-40,69 L-38,61 L-31,37 L-22,11 L-19,7 L-16,6 L1,5 Z M-8,432 L-9,437 L-5,437 L-4,433 Z " fill="#000000" transform="translate(744,336)"/>
<path d="M0,0 L11,0 L15,5 L19,15 L26,35 L31,49 L37,65 L45,85 L47,94 L51,103 L58,124 L65,143 L75,170 L81,186 L88,207 L96,229 L101,243 L105,253 L112,273 L115,280 L122,301 L129,319 L128,324 L126,326 L64,329 L57,329 L52,324 L45,306 L41,290 L36,279 L28,255 L25,248 L22,238 L18,228 L15,219 L11,207 L8,200 L4,190 L-5,166 L-10,154 L-14,153 L-19,159 L-31,182 L-38,197 L-41,205 L-40,214 L-35,230 L-29,246 L-22,266 L-17,278 L-14,289 L-6,310 L2,333 L7,346 L14,365 L24,392 L26,399 L30,408 L38,429 L45,448 L47,458 L51,468 L58,486 L61,494 L67,511 L72,523 L78,543 L84,557 L89,571 L95,587 L102,606 L107,624 L111,633 L110,637 L104,639 L93,639 L61,641 L21,642 L11,642 L6,637 L0,624 L-5,607 L-9,598 L-13,585 L-24,555 L-31,535 L-37,519 L-44,500 L-50,482 L-57,464 L-67,435 L-73,419 L-78,408 L-82,395 L-88,379 L-94,365 L-96,363 L-101,364 L-104,371 L-110,393 L-114,408 L-118,419 L-123,439 L-125,443 L-129,459 L-133,473 L-137,488 L-141,502 L-149,526 L-151,535 L-154,545 L-160,565 L-166,586 L-173,608 L-177,622 L-179,626 L-181,636 L-185,647 L-190,650 L-230,651 L-266,653 L-284,653 L-286,651 L-285,642 L-280,622 L-275,605 L-269,586 L-265,573 L-260,553 L-257,541 L-250,520 L-244,498 L-239,482 L-235,469 L-232,457 L-228,444 L-224,430 L-220,418 L-218,410 L-208,376 L-202,354 L-199,346 L-197,337 L-189,311 L-182,287 L-175,262 L-170,244 L-164,219 L-165,212 L-171,202 L-176,192 L-183,182 L-190,170 L-196,163 L-196,161 L-203,161 L-206,171 L-214,198 L-223,229 L-230,253 L-232,262 L-236,272 L-238,281 L-242,294 L-246,307 L-248,312 L-250,320 L-255,337 L-259,341 L-269,342 L-279,342 L-315,344 L-326,344 L-330,341 L-329,333 L-327,327 L-320,304 L-313,280 L-306,255 L-298,228 L-294,211 L-291,202 L-286,185 L-280,163 L-276,150 L-262,101 L-257,83 L-253,67 L-246,42 L-241,25 L-237,14 L-234,11 L-231,10 L-163,7 L-139,5 L-94,4 L-52,2 Z " fill="#000000" transform="translate(444,349)"/>
<path d="M0,0 L1,0 L1,12 L0,12 Z " fill="#000000" transform="translate(1136,948)"/>
<path d="M0,0 L2,0 L2,13 L-35,13 L-132,15 L-159,16 L-203,17 L-250,17 L-266,19 L-324,19 L-363,20 L-365,15 L-370,18 L-372,20 L-415,21 L-450,21 L-474,22 L-511,22 L-556,23 L-581,24 L-587,25 L-596,24 L-599,25 L-648,25 L-652,24 L-653,25 L-1045,25 L-1043,23 L-1003,22 L-936,21 L-905,20 L-886,20 L-869,19 L-805,18 L-760,17 L-683,15 L-657,14 L-654,13 L-636,13 L-629,14 L-621,13 L-598,12 L-587,13 L-573,13 L-557,12 L-503,12 L-497,11 L-427,11 L-422,10 L-369,9 L-364,11 L-358,10 L-309,9 L-295,8 L-249,8 L-246,7 L-229,7 L-174,6 L-157,7 L-151,5 L-70,3 L-10,2 L-1,1 Z " fill="#000000" transform="translate(1135,1106)"/>
<path d="M0,0 L3,2 L-2,2 Z " fill="#000000" transform="translate(68,1129)"/>
</svg>
