<?xml version="1.0" encoding="UTF-8"?>
<!-- Generator: visioncortex VTracer 0.6.12 -->
<svg version="1.1" xmlns="http://www.w3.org/2000/svg" width="1002" height="999">
<path d="M0,0 L818,0 L818,2 L826,4 L837,8 L845,14 L851,18 L862,27 L869,34 L874,38 L885,52 L893,63 L898,72 L902,82 L907,93 L908,101 L910,101 L910,692 L908,691 L907,666 L906,568 L905,519 L905,494 L904,456 L903,350 L902,316 L902,269 L901,254 L901,147 L900,116 L896,100 L892,91 L889,82 L880,66 L877,60 L865,47 L855,36 L839,25 L822,16 L819,14 L798,8 L789,6 L782,4 L732,3 L714,4 L706,3 L651,4 L560,4 L535,5 L356,5 L333,6 L321,5 L311,6 L293,6 L291,7 L284,7 L282,6 L258,6 L256,5 L227,6 L46,6 L31,7 L11,11 L5,13 L-8,18 L-21,23 L-35,32 L-41,36 L-45,40 L-52,46 L-57,51 L-61,56 L-69,67 L-74,76 L-82,91 L-88,114 L-90,125 L-92,126 L-92,81 L-90,81 L-88,75 L-82,64 L-75,55 L-68,46 L-56,33 L-48,25 L-42,21 L-32,15 L-24,10 L-12,5 L-3,2 L0,2 Z " fill="#000000" transform="translate(92,0)"/>
<path d="M0,0 L15,0 L36,6 L50,13 L63,25 L71,35 L79,51 L82,67 L82,86 L78,100 L73,112 L63,125 L55,134 L48,139 L46,143 L45,150 L45,160 L46,172 L49,179 L54,183 L66,187 L76,189 L85,192 L94,194 L112,200 L118,204 L122,214 L127,228 L131,242 L137,259 L141,272 L144,283 L152,307 L157,322 L163,343 L167,354 L175,379 L187,415 L192,432 L195,442 L205,473 L214,501 L215,512 L212,518 L203,521 L174,522 L162,521 L156,516 L151,506 L141,478 L133,452 L128,434 L124,424 L119,409 L115,400 L111,382 L106,371 L100,355 L96,342 L91,343 L87,353 L81,379 L80,387 L84,402 L88,413 L90,421 L100,452 L109,479 L114,496 L124,526 L129,542 L132,553 L139,569 L144,586 L147,596 L154,614 L162,640 L165,656 L162,663 L157,665 L147,666 L97,666 L75,667 L69,671 L67,678 L62,735 L60,755 L59,760 L57,791 L55,817 L53,834 L50,876 L49,895 L46,912 L41,918 L35,920 L8,921 L-3,920 L-10,916 L-13,907 L-15,892 L-16,875 L-18,860 L-19,844 L-20,839 L-22,806 L-23,801 L-23,781 L-25,772 L-26,748 L-28,737 L-30,710 L-33,682 L-36,672 L-44,667 L-101,667 L-125,666 L-130,663 L-131,661 L-131,651 L-128,642 L-124,629 L-117,609 L-114,600 L-108,583 L-103,565 L-100,554 L-96,543 L-92,529 L-83,503 L-76,485 L-64,449 L-57,427 L-54,419 L-50,401 L-46,388 L-46,376 L-49,363 L-55,346 L-59,336 L-62,333 L-66,334 L-70,344 L-77,364 L-80,372 L-88,395 L-92,409 L-100,430 L-102,440 L-109,461 L-119,491 L-125,508 L-131,516 L-136,519 L-171,519 L-181,517 L-183,514 L-183,502 L-181,494 L-176,478 L-171,464 L-169,455 L-159,425 L-155,412 L-147,387 L-143,374 L-136,351 L-132,343 L-128,330 L-126,324 L-124,314 L-118,297 L-114,287 L-112,278 L-105,257 L-102,249 L-100,238 L-91,213 L-87,207 L-82,203 L-65,197 L-49,191 L-29,184 L-19,178 L-17,172 L-17,155 L-19,147 L-31,138 L-38,134 L-47,124 L-54,114 L-59,105 L-62,96 L-63,86 L-63,65 L-62,56 L-55,40 L-49,31 L-38,20 L-27,11 L-21,7 L-7,2 Z " fill="#000000" transform="translate(479,39)"/>
<path d="M0,0 L2,4 L0,5 Z " fill="#000000" transform="translate(0,129)"/>
<path d="M0,0 L2,1 L2,9 L3,13 L3,22 L1,36 L0,36 Z " fill="#000000" transform="translate(0,148)"/>
<path d="M0,0 L1,0 L2,17 L2,32 L3,54 L3,100 L2,113 L0,114 Z " fill="#000000" transform="translate(0,192)"/>
<path d="M0,0 L4,1 L5,6 L1,7 L-1,5 Z " fill="#000000" transform="translate(681,292)"/>
<path d="M0,0 L2,0 L2,6 L0,7 Z " fill="#000000" transform="translate(0,312)"/>
<path d="M0,0 L2,1 L1,5 L0,5 Z " fill="#000000" transform="translate(0,322)"/>
<path d="M0,0 L2,1 L3,4 L3,87 L4,187 L4,303 L5,319 L5,386 L6,449 L6,545 L10,569 L13,578 L18,591 L27,608 L34,617 L41,625 L53,636 L60,641 L60,643 L64,645 L80,654 L95,660 L109,664 L116,665 L117,667 L77,667 L75,665 L65,661 L54,653 L46,647 L41,643 L37,638 L30,632 L26,626 L21,621 L16,612 L6,595 L1,582 L0,581 Z " fill="#000000" transform="translate(0,332)"/>
<path d="M0,0 L1,0 L1,5 L0,5 Z " fill="#000000" transform="translate(1001,715)"/>
<path d="M0,0 L3,1 Z " fill="#000000" transform="translate(856,838)"/>
<path d="M0,0 L2,2 L-1,2 Z " fill="#000000" transform="translate(225,870)"/>
<path d="M0,0 L1,0 L1,46 L-6,58 L-12,69 L-18,77 L-26,87 L-31,92 L-44,103 L-60,114 L-76,122 L-86,124 L-86,126 L-544,126 L-542,124 L-518,124 L-493,123 L-444,123 L-385,122 L-276,122 L-267,121 L-242,121 L-178,120 L-127,120 L-100,116 L-88,112 L-74,106 L-59,98 L-47,88 L-39,81 L-34,76 L-27,69 L-16,51 L-9,36 L-6,28 L-3,15 L-1,1 Z " fill="#000000" transform="translate(1001,873)"/>
<path d="M0,0 L5,1 L5,2 L-1,2 Z " fill="#000000" transform="translate(407,997)"/>
</svg>
