<?xml version="1.0" encoding="UTF-8"?>
<!-- Generator: visioncortex VTracer 0.6.12 -->
<svg version="1.1" xmlns="http://www.w3.org/2000/svg" width="1131" height="1113">
<path d="M0,0 L1130,0 L1131,1 L1131,1113 L3,1113 L3,1111 L0,1110 L0,926 L2,926 L0,920 L0,841 L2,840 L8,840 L10,843 L10,1090 L13,1099 L20,1102 L161,1102 L199,1103 L446,1103 L628,1104 L707,1105 L875,1105 L884,1106 L1118,1106 L1121,1093 L1122,930 L1122,851 L1123,820 L1123,762 L1124,758 L1124,747 L1123,739 L1123,685 L1124,414 L1124,345 L1125,158 L1125,35 L1124,14 L1119,9 L1030,9 L987,8 L893,8 L843,7 L780,7 L689,6 L390,6 L383,5 L77,5 L19,6 L15,10 L14,14 L13,73 L13,202 L12,403 L12,497 L11,594 L10,833 L8,835 L4,834 L0,830 L0,637 L1,632 L0,631 L0,549 L1,539 L0,530 L0,493 L1,485 L1,462 L0,445 L1,434 L2,187 L2,23 L1,12 L0,11 Z " fill="#000000" transform="translate(0,0)"/>
<path d="M0,0 L23,0 L33,3 L42,8 L52,16 L61,27 L67,40 L70,57 L69,69 L66,79 L60,91 L50,103 L40,110 L27,116 L27,120 L47,120 L71,121 L90,121 L144,122 L148,125 L149,145 L148,233 L147,284 L145,420 L144,440 L140,453 L134,462 L131,467 L125,472 L112,478 L102,480 L99,482 L98,485 L96,564 L96,587 L94,717 L94,765 L93,787 L93,802 L92,814 L89,817 L16,817 L14,816 L13,813 L13,733 L14,704 L15,599 L16,511 L16,454 L13,451 L10,450 L2,450 L-4,452 L-6,485 L-7,556 L-8,640 L-10,771 L-11,813 L-14,817 L-85,817 L-90,814 L-91,807 L-90,738 L-90,715 L-89,617 L-88,531 L-88,482 L-92,478 L-102,476 L-112,471 L-121,464 L-129,451 L-132,442 L-132,389 L-130,255 L-128,144 L-127,125 L-125,120 L-124,119 L-4,119 L-4,115 L-9,114 L-21,107 L-32,97 L-41,82 L-44,74 L-45,68 L-45,47 L-43,39 L-35,23 L-26,13 L-18,7 L-10,3 Z " fill="#000000" transform="translate(392,140)"/>
<path d="M0,0 L17,0 L27,2 L39,7 L52,19 L60,30 L65,42 L67,52 L67,65 L65,76 L61,85 L56,93 L49,102 L38,110 L26,116 L24,116 L25,119 L35,120 L55,121 L64,123 L74,127 L83,132 L88,137 L95,145 L101,157 L105,174 L105,181 L108,186 L110,189 L112,199 L107,200 L105,199 L104,235 L103,324 L105,334 L117,356 L125,370 L131,380 L137,391 L146,406 L153,420 L160,431 L169,447 L183,471 L196,495 L201,504 L201,509 L196,513 L183,521 L175,525 L162,533 L151,539 L136,547 L118,557 L99,568 L85,576 L66,587 L50,596 L47,601 L46,614 L45,688 L44,731 L44,759 L43,804 L42,811 L40,813 L-36,813 L-39,811 L-40,807 L-40,777 L-39,760 L-39,711 L-38,665 L-38,600 L-42,593 L-50,588 L-61,582 L-81,570 L-103,557 L-114,551 L-134,539 L-159,524 L-173,516 L-183,510 L-189,505 L-190,502 L-184,490 L-172,471 L-156,444 L-149,433 L-143,422 L-136,411 L-121,386 L-105,360 L-100,351 L-92,338 L-90,333 L-89,321 L-88,189 L-87,166 L-84,155 L-78,143 L-67,131 L-57,125 L-50,122 L-41,120 L-7,119 L-8,116 L-23,108 L-34,98 L-40,89 L-46,71 L-47,55 L-45,42 L-39,26 L-31,16 L-22,9 L-9,2 Z " fill="#000000" transform="translate(736,145)"/>
<path d="M0,0 L3,2 L2,6 L-1,6 L-1,1 Z " fill="#000000" transform="translate(91,474)"/>
<path d="M0,0 L5,2 L4,8 L0,12 L-3,10 L-4,3 Z " fill="#000000" transform="translate(203,923)"/>
</svg>
