<?xml version="1.0" encoding="UTF-8"?>
<!-- Generator: visioncortex VTracer 0.6.12 -->
<svg version="1.1" xmlns="http://www.w3.org/2000/svg" width="1122" height="1110">
<path d="M0,0 L73,0 L73,2 L63,3 L21,3 L11,5 L8,9 L7,41 L6,159 L6,200 L5,241 L5,296 L4,386 L4,495 L3,675 L3,844 L2,866 L0,868 Z " fill="#000000" transform="translate(0,0)"/>
<path d="M0,0 L57,0 L55,2 L1,3 Z " fill="#000000" transform="translate(82,0)"/>
<path d="M0,0 L18,0 L16,2 L2,2 Z " fill="#000000" transform="translate(143,0)"/>
<path d="M0,0 L26,0 L25,2 L1,2 Z " fill="#000000" transform="translate(181,0)"/>
<path d="M0,0 L7,0 L6,2 L1,2 Z " fill="#000000" transform="translate(212,0)"/>
<path d="M0,0 L51,0 L50,2 L40,3 L2,2 Z " fill="#000000" transform="translate(228,0)"/>
<path d="M0,0 L3,1 Z " fill="#000000" transform="translate(290,0)"/>
<path d="M0,0 L9,0 L8,2 L1,2 Z " fill="#000000" transform="translate(296,0)"/>
<path d="M0,0 L28,0 L26,2 L3,2 Z " fill="#000000" transform="translate(327,0)"/>
<path d="M0,0 L24,0 L22,2 L1,2 Z " fill="#000000" transform="translate(372,0)"/>
<path d="M0,0 L2,1 Z " fill="#000000" transform="translate(412,0)"/>
<path d="M0,0 L11,0 L10,2 L2,2 Z " fill="#000000" transform="translate(423,0)"/>
<path d="M0,0 L11,0 L9,2 L1,2 Z " fill="#000000" transform="translate(448,0)"/>
<path d="M0,0 L28,0 L28,1 L14,2 L0,1 Z " fill="#000000" transform="translate(463,0)"/>
<path d="M0,0 L15,0 L12,2 L5,2 L0,1 Z " fill="#000000" transform="translate(506,0)"/>
<path d="M0,0 L24,0 L22,2 L12,2 L0,1 Z " fill="#000000" transform="translate(527,0)"/>
<path d="M0,0 L32,0 L30,2 L3,2 Z " fill="#000000" transform="translate(558,0)"/>
<path d="M0,0 L13,0 L10,2 L2,2 Z " fill="#000000" transform="translate(604,0)"/>
<path d="M0,0 L8,0 L8,1 L0,1 Z " fill="#000000" transform="translate(620,0)"/>
<path d="M0,0 L98,0 L98,1 L91,2 L3,2 Z " fill="#000000" transform="translate(630,0)"/>
<path d="M0,0 L4,1 Z " fill="#000000" transform="translate(741,0)"/>
<path d="M0,0 L39,0 L35,2 L2,2 Z " fill="#000000" transform="translate(755,0)"/>
<path d="M0,0 L47,0 L46,2 L18,3 L0,1 Z " fill="#000000" transform="translate(796,0)"/>
<path d="M0,0 L275,0 L275,1110 L261,1110 L261,1108 L265,1107 L266,1099 L267,1059 L266,926 L266,891 L267,857 L268,808 L269,571 L269,521 L270,424 L270,323 L271,184 L271,65 L270,8 L266,4 L232,3 L80,3 L1,2 Z " fill="#000000" transform="translate(847,0)"/>
<path d="M0,0 L14,0 L26,2 L42,8 L50,13 L57,18 L62,23 L63,26 L65,26 L70,33 L74,40 L79,52 L81,67 L80,84 L76,97 L69,110 L57,123 L48,130 L36,137 L16,142 L-6,142 L-26,136 L-38,129 L-50,118 L-57,110 L-64,96 L-68,82 L-68,61 L-64,47 L-57,33 L-49,23 L-36,13 L-24,6 L-13,2 Z " fill="#000000" transform="translate(551,62)"/>
<path d="M0,0 L109,0 L126,3 L140,8 L151,14 L161,21 L172,32 L182,48 L188,66 L189,75 L190,118 L190,304 L189,320 L185,335 L177,350 L167,363 L160,370 L154,374 L149,378 L137,384 L123,389 L110,392 L105,397 L104,401 L104,582 L105,629 L104,641 L105,701 L104,806 L102,811 L92,813 L78,813 L72,812 L71,813 L-35,813 L-47,814 L-65,813 L-70,810 L-71,808 L-72,775 L-73,619 L-73,468 L-74,402 L-77,395 L-85,392 L-109,385 L-121,379 L-135,368 L-138,365 L-138,363 L-140,363 L-148,352 L-156,339 L-160,327 L-162,313 L-162,294 L-163,288 L-163,180 L-164,99 L-162,74 L-158,58 L-154,48 L-144,34 L-134,23 L-116,12 L-108,8 L-93,3 L-71,1 Z " fill="#000000" transform="translate(544,230)"/>
<path d="M0,0 L1,0 L1,5 L0,5 Z " fill="#000000" transform="translate(0,957)"/>
<path d="M0,0 Z " fill="#000000" transform="translate(0,972)"/>
<path d="M0,0 L1,0 L2,16 L0,17 Z " fill="#000000" transform="translate(0,996)"/>
<path d="M0,0 Z " fill="#000000" transform="translate(0,1089)"/>
<path d="M0,0 L7,6 L9,7 L77,7 L205,8 L227,8 L264,9 L267,8 L304,8 L350,9 L352,11 L0,11 Z " fill="#000000" transform="translate(0,1099)"/>
<path d="M0,0 L18,0 L26,1 L120,1 L121,3 L-5,3 L-4,1 Z " fill="#000000" transform="translate(359,1107)"/>
<path d="M0,0 L15,0 L17,2 L-2,2 Z " fill="#000000" transform="translate(490,1108)"/>
<path d="M0,0 L94,0 L113,1 L113,2 L-1,2 Z " fill="#000000" transform="translate(517,1108)"/>
<path d="M0,0 L8,0 L9,2 L-2,2 Z " fill="#000000" transform="translate(642,1108)"/>
<path d="M0,0 L7,0 L8,2 L-2,2 Z " fill="#000000" transform="translate(772,1108)"/>
<path d="M0,0 L7,1 L7,2 L-2,2 Z " fill="#000000" transform="translate(793,1108)"/>
<path d="M0,0 L6,0 L7,2 L-1,2 Z " fill="#000000" transform="translate(838,1108)"/>
<path d="M0,0 L7,0 L9,2 L-1,2 Z " fill="#000000" transform="translate(897,1108)"/>
<path d="M0,0 L6,1 L6,2 L-3,2 Z " fill="#000000" transform="translate(943,1108)"/>
<path d="M0,0 Z " fill="#000000" transform="translate(705,1109)"/>
<path d="M0,0 L6,0 L6,1 L0,1 Z " fill="#000000" transform="translate(725,1109)"/>
<path d="M0,0 L11,0 L11,1 L0,1 Z " fill="#000000" transform="translate(753,1109)"/>
<path d="M0,0 L12,0 L15,2 L-4,2 Z " fill="#000000" transform="translate(806,1108)"/>
<path d="M0,0 L5,0 L5,1 L0,1 Z " fill="#000000" transform="translate(910,1109)"/>
<path d="M0,0 L5,0 L5,1 L0,1 Z " fill="#000000" transform="translate(967,1109)"/>
</svg>
