<?xml version="1.0" encoding="UTF-8"?>
<!-- Generator: visioncortex VTracer 0.6.12 -->
<svg version="1.1" xmlns="http://www.w3.org/2000/svg" width="1119" height="1113">
<path d="M0,0 L918,0 L918,2 L927,4 L958,19 L967,25 L981,36 L988,42 L988,44 L990,44 L999,55 L1007,65 L1018,83 L1023,93 L1023,970 L1021,981 L1019,996 L1016,1011 L1012,1022 L1004,1038 L999,1048 L992,1057 L983,1068 L979,1073 L973,1078 L968,1083 L960,1090 L952,1096 L941,1102 L937,1106 L928,1109 L923,1111 L920,1111 L920,1113 L12,1113 L8,1110 L-2,1108 L-20,1100 L-33,1093 L-42,1087 L-50,1080 L-60,1072 L-68,1064 L-78,1051 L-85,1041 L-91,1030 L-94,1025 L-94,1023 L-96,1023 L-96,982 L-94,983 L-90,999 L-85,1013 L-81,1021 L-78,1028 L-68,1044 L-56,1057 L-46,1067 L-35,1076 L-25,1082 L-15,1088 L4,1095 L20,1100 L32,1102 L35,1103 L61,1104 L123,1104 L191,1105 L204,1106 L214,1106 L227,1105 L289,1105 L335,1106 L340,1105 L347,1107 L356,1106 L398,1106 L446,1107 L501,1107 L538,1108 L620,1108 L665,1109 L708,1109 L727,1110 L843,1110 L877,1109 L889,1106 L898,1104 L912,1099 L927,1093 L938,1087 L951,1078 L963,1067 L971,1060 L982,1046 L989,1035 L995,1023 L997,1018 L1001,1009 L1004,999 L1007,984 L1009,891 L1010,841 L1011,773 L1011,728 L1013,642 L1013,604 L1014,547 L1015,512 L1015,497 L1016,452 L1015,440 L1016,434 L1017,387 L1017,357 L1019,288 L1019,244 L1020,169 L1020,145 L1018,128 L1015,115 L1008,97 L998,78 L991,69 L984,60 L979,54 L971,47 L961,39 L951,33 L943,28 L931,22 L922,19 L914,16 L901,13 L891,11 L886,10 L746,10 L715,9 L627,9 L616,8 L441,8 L423,7 L411,8 L403,7 L343,7 L207,6 L139,6 L126,5 L48,6 L34,7 L17,11 L-4,19 L-19,26 L-27,30 L-37,39 L-47,47 L-52,52 L-59,60 L-68,75 L-74,84 L-79,94 L-83,107 L-85,116 L-89,128 L-91,175 L-91,196 L-92,244 L-92,297 L-93,507 L-93,600 L-94,627 L-93,647 L-95,653 L-96,653 L-96,99 L-94,99 L-91,89 L-84,75 L-78,68 L-72,56 L-67,50 L-60,42 L-54,35 L-44,27 L-33,19 L-18,11 L-16,11 L-14,7 L-6,3 L0,2 Z " fill="#000000" transform="translate(96,0)"/>
<path d="M0,0 L17,0 L34,3 L49,9 L59,13 L69,20 L80,30 L87,36 L95,47 L103,63 L108,75 L111,97 L111,111 L108,130 L100,150 L97,155 L88,165 L81,173 L76,177 L71,182 L65,186 L63,196 L64,215 L68,222 L70,223 L100,225 L130,226 L140,227 L171,228 L179,232 L184,240 L190,258 L193,265 L200,285 L204,294 L208,307 L213,319 L221,343 L230,367 L238,390 L243,402 L251,426 L256,438 L263,459 L268,472 L279,503 L284,518 L291,537 L298,557 L304,574 L309,586 L313,600 L317,611 L321,622 L321,631 L317,635 L311,636 L247,636 L238,635 L232,631 L228,626 L215,592 L207,571 L205,566 L203,559 L199,549 L193,530 L187,514 L182,502 L175,481 L168,462 L160,440 L153,423 L150,414 L144,399 L140,393 L136,393 L130,409 L125,426 L121,437 L119,447 L116,459 L116,468 L122,489 L129,507 L135,526 L140,540 L143,550 L152,577 L158,595 L164,611 L170,629 L176,647 L180,658 L182,666 L186,676 L191,693 L195,702 L198,713 L207,738 L212,752 L219,774 L225,792 L228,801 L232,815 L237,825 L241,842 L246,853 L251,869 L255,879 L260,896 L267,915 L277,945 L280,953 L284,968 L288,978 L291,989 L291,998 L286,1002 L244,1002 L210,1001 L201,1002 L193,1001 L184,1000 L178,993 L172,978 L168,969 L164,956 L152,923 L148,913 L142,897 L136,880 L131,867 L124,848 L118,832 L113,820 L105,800 L100,786 L92,763 L84,743 L79,729 L70,705 L63,688 L59,677 L54,667 L51,658 L47,653 L42,654 L31,687 L26,700 L23,711 L15,737 L7,759 L5,767 L1,778 L-7,802 L-10,813 L-16,831 L-25,858 L-29,870 L-34,888 L-41,906 L-46,923 L-50,933 L-52,941 L-58,959 L-67,987 L-72,995 L-79,999 L-125,999 L-131,1000 L-171,999 L-176,997 L-180,993 L-179,979 L-175,968 L-170,947 L-163,922 L-159,904 L-157,899 L-155,889 L-147,861 L-143,845 L-139,831 L-135,815 L-127,788 L-123,770 L-118,755 L-112,730 L-109,721 L-105,705 L-101,687 L-98,681 L-93,658 L-91,654 L-87,637 L-85,633 L-80,612 L-76,600 L-73,586 L-68,571 L-65,556 L-55,520 L-48,492 L-45,479 L-45,469 L-47,459 L-53,442 L-59,423 L-65,406 L-70,394 L-74,385 L-77,384 L-80,386 L-86,404 L-89,412 L-93,428 L-95,433 L-100,455 L-106,476 L-114,507 L-118,520 L-121,533 L-124,544 L-126,550 L-133,580 L-140,604 L-144,622 L-150,630 L-155,633 L-166,635 L-171,634 L-221,635 L-233,633 L-238,629 L-239,620 L-234,597 L-231,587 L-227,572 L-223,557 L-218,537 L-209,505 L-207,496 L-203,481 L-200,470 L-195,450 L-188,426 L-182,402 L-178,390 L-176,383 L-175,382 L-174,373 L-172,369 L-169,355 L-161,324 L-153,294 L-149,279 L-146,268 L-139,241 L-134,228 L-129,224 L-116,222 L-96,222 L-85,221 L-71,222 L-40,222 L-27,221 L-23,220 L-20,213 L-20,200 L-23,192 L-28,188 L-44,178 L-52,171 L-57,166 L-66,156 L-72,148 L-79,134 L-82,124 L-84,120 L-86,108 L-86,82 L-82,66 L-77,54 L-70,40 L-58,27 L-48,18 L-37,11 L-25,6 L-15,2 Z M180,819 L177,824 L182,826 L184,824 L183,819 Z M169,821 L168,826 L169,827 L174,827 L175,823 L173,821 Z " fill="#000000" transform="translate(504,55)"/>
<path d="M0,0 L2,2 L2,15 L0,17 Z " fill="#000000" transform="translate(0,655)"/>
<path d="M0,0 L1,0 L3,18 L3,25 L0,28 Z " fill="#000000" transform="translate(0,686)"/>
</svg>
