<?xml version="1.0" encoding="UTF-8"?>
<!-- Generator: visioncortex VTracer 0.6.12 -->
<svg version="1.1" xmlns="http://www.w3.org/2000/svg" width="1116" height="1119">
<path d="M0,0 L1116,0 L1116,7 L1112,5 L1090,4 L799,4 L763,5 L653,5 L618,4 L595,5 L517,5 L508,4 L489,5 L432,5 L419,4 L402,5 L326,5 L308,4 L3,4 L0,5 Z " fill="#000000" transform="translate(0,0)"/>
<path d="M0,0 L9,0 L10,4 L1,14 L-7,21 L-16,28 L-24,36 L-33,42 L-40,50 L-51,59 L-58,65 L-63,70 L-73,79 L-81,86 L-88,92 L-94,96 L-102,104 L-108,108 L-124,123 L-132,130 L-142,139 L-150,145 L-158,152 L-170,163 L-184,174 L-192,182 L-202,190 L-211,197 L-223,208 L-232,215 L-240,222 L-248,229 L-255,236 L-269,247 L-280,257 L-290,265 L-301,274 L-311,281 L-317,288 L-328,297 L-335,304 L-340,308 L-341,323 L-345,332 L-354,345 L-363,354 L-374,361 L-387,360 L-396,367 L-405,376 L-416,385 L-428,395 L-432,400 L-440,407 L-450,415 L-464,428 L-472,435 L-480,443 L-486,447 L-495,456 L-504,463 L-511,469 L-519,476 L-526,483 L-535,490 L-547,501 L-552,506 L-565,516 L-568,519 L-570,519 L-571,522 L-573,522 L-575,526 L-578,530 L-577,537 L-571,548 L-567,553 L-565,554 L-552,553 L-540,551 L-523,545 L-513,541 L-504,537 L-484,526 L-478,521 L-473,522 L-469,535 L-466,554 L-461,582 L-461,595 L-470,601 L-482,607 L-502,615 L-523,620 L-527,622 L-526,630 L-521,641 L-516,652 L-509,667 L-502,682 L-493,701 L-488,714 L-482,726 L-475,746 L-467,765 L-463,774 L-460,784 L-454,799 L-448,815 L-440,835 L-436,847 L-431,852 L-425,851 L-410,845 L-405,843 L-397,841 L-383,833 L-355,822 L-322,807 L-309,801 L-292,795 L-259,780 L-246,775 L-237,771 L-225,766 L-212,760 L-199,755 L-187,748 L-177,741 L-168,731 L-163,726 L-156,720 L-148,709 L-141,699 L-134,685 L-130,684 L-127,688 L-127,707 L-131,726 L-141,747 L-149,757 L-158,765 L-168,771 L-194,782 L-210,789 L-238,801 L-246,805 L-257,810 L-264,813 L-271,816 L-285,822 L-315,835 L-322,838 L-332,842 L-343,847 L-358,853 L-366,857 L-383,864 L-399,872 L-418,880 L-419,882 L-419,890 L-416,897 L-415,898 L-408,897 L-393,891 L-388,888 L-372,882 L-349,872 L-338,867 L-325,862 L-307,854 L-290,847 L-276,840 L-263,835 L-240,825 L-231,821 L-220,817 L-208,812 L-184,801 L-172,796 L-164,792 L-130,778 L-115,771 L-97,763 L-87,756 L-79,750 L-69,741 L-63,736 L-56,728 L-51,724 L-41,710 L-36,702 L-31,695 L-28,689 L-24,688 L-22,691 L-21,697 L-21,708 L-24,722 L-27,733 L-32,745 L-39,756 L-48,768 L-59,777 L-69,784 L-79,789 L-84,792 L-97,797 L-126,810 L-138,815 L-166,827 L-174,831 L-188,837 L-201,843 L-211,847 L-221,852 L-240,860 L-252,866 L-263,870 L-283,879 L-300,886 L-309,891 L-322,896 L-342,905 L-352,910 L-363,913 L-369,917 L-390,925 L-399,929 L-420,939 L-427,942 L-441,948 L-461,957 L-481,966 L-491,970 L-509,977 L-517,981 L-528,985 L-540,990 L-550,995 L-557,997 L-565,1001 L-573,1004 L-591,1012 L-608,1019 L-621,1024 L-636,1030 L-646,1034 L-651,1035 L-705,1036 L-721,1036 L-723,1035 L-722,1031 L-717,1028 L-701,1021 L-690,1016 L-680,1013 L-670,1008 L-655,1002 L-643,997 L-613,985 L-588,974 L-577,970 L-565,965 L-552,959 L-542,954 L-528,949 L-520,945 L-510,941 L-482,928 L-479,925 L-479,917 L-483,911 L-490,910 L-500,915 L-515,920 L-530,927 L-545,933 L-556,938 L-570,944 L-585,951 L-603,958 L-612,961 L-622,966 L-633,970 L-646,976 L-663,983 L-671,986 L-691,994 L-705,1000 L-714,1004 L-725,1008 L-738,1014 L-745,1017 L-759,1023 L-769,1027 L-778,1030 L-786,1034 L-798,1037 L-862,1037 L-863,1033 L-853,1028 L-837,1021 L-825,1016 L-814,1011 L-787,1000 L-772,994 L-765,991 L-757,987 L-742,982 L-730,977 L-720,973 L-700,965 L-676,955 L-667,951 L-655,947 L-638,939 L-625,934 L-616,930 L-606,926 L-578,914 L-573,911 L-571,905 L-576,891 L-589,863 L-596,849 L-600,839 L-608,823 L-612,815 L-618,804 L-629,784 L-634,774 L-648,750 L-653,743 L-659,731 L-670,715 L-676,705 L-683,695 L-692,681 L-700,670 L-711,655 L-717,647 L-725,637 L-736,624 L-749,619 L-762,615 L-768,611 L-773,606 L-773,600 L-766,601 L-758,604 L-751,607 L-717,611 L-687,614 L-666,615 L-635,615 L-597,613 L-567,610 L-558,608 L-543,606 L-527,603 L-502,597 L-490,592 L-482,587 L-479,583 L-479,574 L-481,562 L-485,551 L-490,550 L-499,553 L-518,561 L-532,566 L-542,569 L-560,572 L-569,575 L-596,579 L-609,580 L-613,581 L-631,582 L-660,582 L-662,580 L-661,575 L-653,566 L-651,566 L-649,562 L-644,558 L-635,551 L-627,544 L-623,540 L-612,531 L-609,530 L-607,526 L-594,515 L-582,504 L-577,501 L-573,497 L-565,490 L-554,480 L-546,474 L-532,462 L-524,455 L-517,449 L-506,440 L-498,433 L-492,428 L-487,423 L-477,414 L-469,407 L-459,398 L-448,389 L-438,379 L-433,376 L-428,371 L-420,364 L-414,360 L-407,354 L-408,349 L-412,350 L-423,359 L-432,367 L-444,375 L-449,379 L-460,388 L-474,399 L-490,411 L-500,419 L-510,427 L-518,433 L-528,441 L-539,450 L-555,462 L-571,474 L-578,478 L-586,484 L-596,493 L-598,493 L-598,495 L-615,507 L-625,515 L-636,524 L-652,535 L-668,547 L-678,555 L-683,558 L-693,566 L-702,572 L-710,577 L-714,578 L-731,577 L-751,575 L-772,570 L-781,566 L-786,562 L-791,553 L-796,554 L-805,581 L-809,594 L-814,610 L-820,631 L-825,648 L-831,668 L-837,689 L-843,709 L-846,720 L-851,737 L-856,753 L-861,770 L-869,797 L-872,808 L-875,816 L-877,827 L-877,834 L-872,839 L-862,848 L-857,853 L-857,859 L-864,858 L-870,853 L-876,849 L-878,847 L-883,847 L-886,856 L-889,863 L-893,876 L-897,886 L-900,889 L-907,888 L-912,882 L-910,871 L-904,848 L-902,839 L-902,830 L-908,822 L-916,816 L-920,812 L-919,807 L-914,807 L-903,816 L-898,817 L-894,813 L-890,801 L-886,788 L-880,768 L-873,745 L-869,732 L-865,719 L-858,697 L-857,689 L-854,682 L-847,659 L-844,648 L-841,637 L-837,625 L-837,619 L-841,621 L-846,632 L-853,646 L-859,656 L-862,664 L-866,671 L-872,682 L-880,697 L-888,713 L-899,736 L-910,756 L-919,775 L-927,791 L-937,810 L-945,826 L-948,838 L-942,847 L-932,858 L-932,863 L-936,864 L-946,855 L-951,851 L-958,852 L-964,862 L-967,869 L-976,884 L-977,885 L-982,885 L-988,880 L-989,875 L-981,859 L-972,840 L-971,833 L-977,824 L-986,815 L-987,813 L-987,807 L-981,808 L-976,813 L-969,820 L-963,821 L-957,812 L-949,796 L-939,777 L-931,761 L-919,739 L-911,722 L-903,706 L-894,690 L-890,680 L-887,675 L-879,660 L-871,644 L-863,628 L-852,607 L-844,591 L-835,572 L-825,553 L-814,530 L-809,518 L-808,516 L-808,506 L-811,497 L-813,491 L-821,466 L-823,455 L-827,438 L-834,400 L-837,391 L-841,393 L-841,400 L-839,410 L-834,440 L-828,466 L-825,478 L-821,494 L-817,511 L-818,520 L-821,521 L-836,519 L-852,516 L-858,513 L-868,510 L-879,500 L-882,491 L-883,486 L-883,465 L-882,458 L-881,441 L-878,417 L-876,409 L-873,388 L-868,365 L-860,336 L-854,320 L-846,306 L-835,297 L-819,289 L-806,284 L-803,278 L-804,272 L-809,264 L-821,246 L-831,237 L-831,235 L-834,234 L-843,223 L-848,217 L-856,200 L-860,185 L-861,168 L-860,154 L-855,144 L-848,134 L-840,125 L-829,118 L-817,113 L-801,111 L-784,111 L-765,114 L-751,119 L-742,126 L-735,134 L-728,147 L-723,160 L-718,178 L-716,187 L-715,197 L-715,226 L-718,238 L-722,245 L-729,251 L-738,254 L-739,255 L-739,262 L-731,273 L-724,278 L-708,286 L-693,291 L-683,294 L-669,298 L-656,301 L-640,304 L-625,306 L-611,308 L-583,311 L-550,313 L-533,313 L-528,314 L-486,314 L-478,313 L-445,313 L-421,312 L-408,310 L-398,304 L-387,297 L-377,292 L-370,292 L-359,295 L-353,292 L-339,280 L-326,270 L-311,257 L-304,251 L-293,242 L-288,238 L-283,233 L-270,222 L-262,215 L-257,210 L-244,200 L-233,191 L-225,184 L-221,182 L-216,177 L-208,170 L-194,159 L-177,143 L-168,136 L-165,133 L-163,133 L-162,130 L-157,125 L-147,117 L-133,105 L-122,95 L-112,87 L-102,78 L-98,75 L-96,75 L-94,71 L-83,62 L-76,55 L-70,51 L-61,42 L-53,35 L-47,30 L-45,30 L-44,27 L-39,25 L-37,21 L-32,18 L-24,10 L-14,2 L-12,1 Z M-465,359 L-478,361 L-480,362 L-491,363 L-501,365 L-517,368 L-529,369 L-532,370 L-571,373 L-576,374 L-602,375 L-609,376 L-642,377 L-655,378 L-659,381 L-659,390 L-652,408 L-645,422 L-641,431 L-631,450 L-625,460 L-614,479 L-613,480 L-606,479 L-594,471 L-577,458 L-564,449 L-551,439 L-540,430 L-528,421 L-522,417 L-515,411 L-500,400 L-492,394 L-482,386 L-468,375 L-457,365 L-455,360 L-456,359 Z M-593,708 L-595,709 L-594,715 L-584,739 L-579,749 L-568,777 L-560,796 L-556,807 L-549,822 L-538,850 L-534,860 L-529,873 L-523,887 L-520,889 L-510,887 L-502,883 L-498,880 L-497,872 L-507,849 L-517,830 L-525,814 L-532,802 L-538,790 L-541,786 L-548,772 L-553,764 L-560,752 L-570,737 L-581,722 L-587,714 L-592,708 Z " fill="#000000" transform="translate(1052,51)"/>
<path d="M0,0 Z " fill="#000000" transform="translate(0,505)"/>
<path d="M0,0 L2,1 L1,6 L0,6 Z " fill="#000000" transform="translate(0,530)"/>
<path d="M0,0 Z " fill="#000000" transform="translate(0,550)"/>
<path d="M0,0 L2,2 L1,7 L0,7 Z " fill="#000000" transform="translate(0,559)"/>
<path d="M0,0 L2,0 L2,2 L0,2 Z " fill="#000000" transform="translate(813,564)"/>
<path d="M0,0 L2,1 L2,9 L0,9 Z " fill="#000000" transform="translate(0,609)"/>
<path d="M0,0 L1,0 L1,5 L0,5 Z " fill="#000000" transform="translate(0,655)"/>
<path d="M0,0 L2,3 L2,13 L0,16 Z " fill="#000000" transform="translate(0,730)"/>
<path d="M0,0 L2,2 L2,7 L0,8 Z " fill="#000000" transform="translate(0,751)"/>
<path d="M0,0 L2,2 L1,11 L0,11 Z " fill="#000000" transform="translate(0,765)"/>
<path d="M0,0 L2,3 L2,11 L0,14 Z " fill="#000000" transform="translate(0,778)"/>
<path d="M0,0 L2,1 L2,30 L0,33 Z " fill="#000000" transform="translate(0,794)"/>
<path d="M0,0 L2,1 L3,17 L2,25 L2,36 L0,37 Z " fill="#000000" transform="translate(0,829)"/>
<path d="M0,0 L2,1 L3,12 L3,44 L2,65 L0,66 Z " fill="#000000" transform="translate(0,875)"/>
<path d="M0,0 L1,0 L2,9 L3,35 L1,41 L0,41 Z " fill="#000000" transform="translate(0,948)"/>
<path d="M0,0 L2,2 L3,7 L3,26 L2,44 L3,105 L3,117 L4,123 L13,125 L82,126 L95,126 L109,127 L110,129 L0,129 Z " fill="#000000" transform="translate(0,990)"/>
<path d="M0,0 L2,0 L2,4 L-3,4 Z " fill="#000000" transform="translate(1114,1115)"/>
<path d="M0,0 L14,0 L16,2 L-1,2 Z " fill="#000000" transform="translate(114,1117)"/>
<path d="M0,0 L11,0 L13,2 L-4,2 Z " fill="#000000" transform="translate(136,1117)"/>
<path d="M0,0 L6,0 L8,2 L-2,2 Z " fill="#000000" transform="translate(156,1117)"/>
<path d="M0,0 L7,0 L8,2 L-2,2 Z " fill="#000000" transform="translate(185,1117)"/>
<path d="M0,0 L8,0 L8,1 L0,1 Z " fill="#000000" transform="translate(199,1118)"/>
<path d="M0,0 L2,1 Z " fill="#000000" transform="translate(216,1118)"/>
<path d="M0,0 Z " fill="#000000" transform="translate(1101,1118)"/>
</svg>
