<?xml version="1.0" encoding="UTF-8"?>
<!-- Generator: visioncortex VTracer 0.6.12 -->
<svg version="1.1" xmlns="http://www.w3.org/2000/svg" width="1524" height="1191">
<path d="M0,0 L6,1 L9,6 L9,13 L8,16 L8,26 L7,32 L7,66 L6,129 L6,204 L5,221 L4,279 L4,306 L3,445 L1,614 L1,668 L0,737 L0,794 L-1,804 L-3,1055 L-3,1110 L-6,1114 L-51,1113 L-91,1113 L-98,1112 L-237,1112 L-237,1106 L-225,1105 L-208,1105 L-159,1106 L-136,1105 L-35,1106 L-13,1106 L-12,1100 L-11,1062 L-11,1041 L-10,1003 L-10,971 L-9,843 L-9,804 L-8,746 L-7,688 L-7,629 L-6,513 L-5,438 L-5,399 L-4,302 L-4,228 L-3,14 L-4,12 L-7,11 L-70,10 L-115,10 L-140,9 L-185,9 L-223,8 L-237,8 L-237,1 L-2,1 Z " fill="#000000" transform="translate(237,35)"/>
<path d="M0,0 L78,1 L119,1 L137,2 L140,1 L185,2 L226,2 L258,3 L400,3 L469,4 L498,5 L509,4 L513,5 L554,5 L571,6 L577,5 L619,5 L626,6 L697,6 L771,7 L824,7 L885,8 L920,9 L951,9 L982,10 L992,10 L1005,11 L1012,10 L1033,11 L1050,11 L1056,12 L1060,11 L1069,11 L1079,12 L1115,12 L1118,15 L1117,79 L1117,282 L1116,288 L1116,313 L1115,367 L1115,495 L1114,504 L1114,616 L1113,663 L1113,698 L1112,735 L1111,817 L1111,851 L1110,880 L1110,902 L1109,963 L1109,998 L1108,1025 L1108,1080 L1107,1096 L1102,1101 L1012,1100 L965,1099 L940,1099 L868,1097 L817,1096 L789,1096 L711,1095 L695,1095 L653,1094 L634,1094 L626,1093 L620,1094 L588,1094 L569,1093 L495,1092 L416,1091 L333,1090 L10,1090 L-9,1091 L-15,1088 L-17,1084 L-16,1058 L-16,1002 L-15,897 L-15,824 L-14,817 L-14,668 L-13,632 L-13,560 L-12,512 L-12,467 L-11,456 L-10,395 L-10,279 L-9,239 L-8,155 L-7,86 L-7,65 L-6,7 Z M67,69 L64,73 L63,81 L63,167 L62,262 L62,285 L61,319 L61,364 L60,402 L59,502 L59,522 L58,533 L58,576 L57,593 L57,681 L56,710 L56,832 L55,839 L56,842 L56,929 L55,933 L55,971 L56,976 L56,985 L55,990 L55,1003 L54,1016 L57,1021 L58,1022 L68,1023 L233,1023 L240,1024 L245,1023 L322,1023 L359,1024 L375,1024 L415,1025 L422,1024 L471,1026 L495,1026 L547,1027 L581,1027 L639,1028 L681,1028 L686,1029 L698,1029 L719,1030 L831,1030 L871,1032 L919,1032 L938,1033 L993,1033 L1002,1034 L1031,1035 L1037,1032 L1040,1027 L1041,992 L1042,927 L1043,886 L1045,782 L1046,706 L1047,647 L1047,622 L1048,550 L1048,423 L1049,350 L1049,309 L1048,295 L1049,291 L1050,271 L1051,203 L1051,84 L1047,80 L1040,79 L964,77 L944,77 L915,76 L811,74 L796,74 L759,73 L710,73 L617,72 L613,75 L604,72 L584,72 L515,71 L441,71 L397,70 L323,70 L267,69 Z " fill="#000000" transform="translate(372,57)"/>
<path d="M0,0 L22,1 L60,1 L94,2 L208,3 L265,3 L339,4 L429,4 L435,5 L455,5 L485,6 L533,6 L574,7 L608,7 L627,8 L682,8 L689,9 L701,8 L712,9 L723,9 L727,8 L737,8 L746,9 L757,8 L775,9 L780,10 L836,10 L839,13 L840,20 L840,45 L837,50 L836,51 L794,51 L741,50 L709,50 L707,53 L709,69 L714,102 L716,118 L717,134 L719,151 L720,189 L720,224 L719,245 L719,256 L716,293 L709,342 L708,354 L700,390 L696,408 L690,434 L683,457 L677,477 L674,487 L668,503 L663,515 L656,532 L651,546 L642,566 L634,581 L624,603 L616,617 L610,626 L605,636 L597,649 L591,657 L584,661 L567,665 L554,666 L551,667 L525,669 L497,669 L470,667 L457,665 L445,662 L435,660 L425,657 L424,656 L414,654 L399,649 L389,644 L377,640 L367,634 L351,626 L342,620 L330,613 L314,604 L298,596 L278,587 L270,585 L261,582 L242,576 L227,573 L223,572 L210,571 L202,569 L154,569 L130,572 L110,575 L104,577 L94,579 L82,583 L74,587 L64,589 L49,595 L32,602 L13,612 L7,611 L6,610 L6,605 L11,598 L15,594 L25,580 L32,570 L46,551 L55,538 L68,518 L76,505 L80,500 L88,484 L99,464 L107,448 L113,436 L124,411 L131,395 L137,379 L142,365 L148,342 L155,321 L159,303 L161,297 L164,281 L169,252 L171,237 L173,229 L174,220 L176,199 L177,178 L178,171 L178,129 L176,83 L174,56 L172,47 L167,45 L99,44 L47,44 L8,43 L-22,43 L-25,39 L-26,13 L-24,3 L-21,1 Z M200,44 L198,45 L199,50 L205,55 L217,61 L223,65 L241,73 L260,81 L276,87 L295,94 L306,97 L316,99 L333,105 L351,108 L353,109 L365,111 L372,111 L383,114 L419,117 L470,117 L476,116 L498,115 L518,112 L521,111 L538,109 L550,106 L562,104 L588,97 L593,95 L600,93 L618,87 L632,81 L641,78 L657,70 L674,62 L686,54 L685,49 L642,48 L604,47 L573,47 L469,46 L440,46 L288,44 Z M678,86 L659,96 L646,102 L629,108 L609,116 L577,125 L552,131 L534,134 L518,136 L509,138 L483,140 L479,141 L453,142 L407,141 L383,138 L346,133 L320,127 L289,119 L269,112 L258,108 L245,103 L218,91 L214,88 L209,87 L206,90 L206,106 L207,125 L207,141 L206,174 L202,222 L199,246 L193,279 L190,291 L188,304 L183,324 L181,333 L175,354 L171,365 L169,374 L165,383 L161,396 L156,406 L150,422 L142,440 L134,456 L131,464 L121,483 L114,495 L107,509 L99,522 L91,535 L85,544 L83,547 L83,552 L84,553 L93,552 L103,549 L111,549 L115,547 L142,544 L145,543 L160,543 L166,542 L192,542 L208,544 L220,545 L250,552 L264,556 L273,558 L288,563 L296,567 L313,574 L330,583 L339,588 L352,595 L365,603 L382,612 L396,617 L408,623 L420,627 L434,631 L450,635 L473,640 L488,642 L519,642 L527,641 L547,641 L572,637 L578,632 L586,616 L592,605 L600,591 L603,584 L607,575 L615,558 L621,544 L630,525 L638,503 L648,477 L653,461 L659,441 L665,422 L668,410 L671,399 L677,371 L683,340 L686,322 L689,300 L692,266 L693,246 L694,185 L693,179 L690,124 L688,110 L687,93 L684,87 Z " fill="#000000" transform="translate(519,212)"/>
<path d="M0,0 L4,1 L6,3 L8,19 L16,36 L23,46 L30,57 L36,65 L43,81 L45,87 L45,102 L42,112 L35,123 L28,130 L16,136 L12,138 L-5,139 L-17,135 L-27,129 L-36,120 L-41,111 L-44,96 L-42,81 L-37,69 L-31,60 L-25,52 L-19,44 L-10,28 L-4,11 L-2,3 Z M-1,62 L-10,72 L-17,86 L-18,89 L-18,100 L-13,108 L-7,113 L7,114 L13,110 L19,102 L20,100 L20,91 L16,81 L6,66 L2,62 Z " fill="#000000" transform="translate(1107,899)"/>
</svg>
