<?xml version="1.0" encoding="UTF-8"?>
<!-- Generator: visioncortex VTracer 0.6.12 -->
<svg version="1.1" xmlns="http://www.w3.org/2000/svg" width="1002" height="1203">
<path d="M0,0 L20,0 L76,1 L348,1 L380,2 L512,1 L593,1 L660,2 L793,2 L793,791 L785,798 L780,801 L774,806 L758,817 L747,824 L738,830 L722,839 L711,846 L701,851 L698,853 L692,852 L689,846 L686,835 L678,811 L673,796 L670,786 L665,769 L661,758 L657,745 L643,701 L638,683 L633,667 L631,660 L630,649 L630,622 L629,510 L634,509 L641,534 L650,561 L658,586 L665,609 L670,623 L678,649 L682,660 L685,664 L694,664 L705,660 L726,654 L753,646 L765,642 L768,636 L766,627 L762,612 L749,574 L743,555 L730,517 L724,501 L717,488 L711,480 L702,475 L697,472 L688,470 L670,470 L657,474 L649,476 L628,482 L613,483 L452,483 L416,482 L338,482 L333,477 L329,468 L324,457 L311,427 L307,418 L300,402 L289,379 L278,360 L268,345 L258,329 L249,318 L239,305 L232,297 L227,292 L220,285 L212,278 L203,271 L195,265 L190,260 L185,255 L179,247 L169,234 L161,224 L156,218 L151,219 L150,220 L149,247 L148,260 L143,265 L122,273 L106,279 L90,285 L77,290 L59,297 L43,303 L28,309 L15,314 L10,318 L9,325 L18,356 L23,374 L28,389 L33,394 L62,390 L97,384 L109,382 L114,382 L118,387 L125,406 L132,426 L139,445 L144,460 L152,481 L156,493 L160,505 L166,520 L170,535 L171,729 L171,840 L170,878 L167,880 L162,879 L138,868 L114,857 L99,848 L87,842 L72,833 L54,822 L43,815 L33,807 L28,804 L20,798 L10,791 L6,790 L-1,796 L-9,807 L-15,815 L-20,820 L-31,835 L-42,850 L-42,856 L-30,867 L-24,871 L-24,873 L-19,875 L-8,883 L4,891 L19,900 L27,906 L38,912 L52,920 L69,929 L88,939 L104,947 L122,955 L132,959 L156,968 L164,971 L195,981 L208,985 L218,988 L227,990 L237,993 L248,995 L250,996 L263,998 L286,1002 L303,1005 L314,1007 L329,1008 L333,1009 L362,1011 L370,1012 L437,1012 L458,1011 L477,1009 L493,1007 L509,1005 L512,1004 L528,1002 L546,999 L562,995 L580,991 L585,989 L601,985 L626,978 L644,971 L658,967 L667,963 L687,955 L711,944 L727,936 L742,928 L756,920 L774,910 L783,904 L792,898 L793,898 L793,1134 L534,1134 L412,1133 L367,1133 L278,1132 L182,1132 L97,1131 L91,1132 L78,1131 L-168,1131 L-171,1128 L-173,1119 L-172,1082 L-173,1050 L-173,1027 L-172,956 L-173,798 L-173,654 L-172,518 L-173,303 L-172,227 L-171,73 L-171,10 L-169,3 L-166,1 L-19,1 L-16,4 L-11,3 L-6,2 L-2,1 Z M-159,268 L-161,269 L-160,274 L-156,275 L-154,271 L-157,268 Z " fill="#000000" transform="translate(209,37)"/>
<path d="M0,0 L31,1 L112,1 L184,2 L257,2 L261,4 L267,23 L272,41 L278,63 L283,80 L288,97 L293,118 L299,137 L304,156 L312,183 L318,206 L322,221 L321,227 L315,230 L293,237 L275,242 L257,245 L245,249 L232,251 L198,256 L188,258 L176,258 L159,260 L144,261 L105,261 L73,259 L56,257 L35,255 L11,251 L-14,246 L-21,242 L-22,238 L-23,114 L-23,6 L-21,2 L-19,1 Z " fill="#000000" transform="translate(492,702)"/>
</svg>
