<?xml version="1.0" encoding="UTF-8"?>
<!-- Generator: visioncortex VTracer 0.6.12 -->
<svg version="1.1" xmlns="http://www.w3.org/2000/svg" width="1137" height="1140">
<path d="M0,0 L1137,0 L1137,16 L1135,14 L1134,9 L1130,8 L1112,7 L379,7 L357,6 L274,6 L262,7 L253,6 L140,6 L134,5 L104,5 L95,6 L37,6 L32,5 L10,5 L7,7 L6,11 L5,51 L4,144 L4,185 L3,305 L2,344 L2,379 L0,381 Z " fill="#000000" transform="translate(0,0)"/>
<path d="M0,0 L1,0 L1,5 L0,5 Z " fill="#000000" transform="translate(1136,63)"/>
<path d="M0,0 L1,0 L1,7 L-1,4 Z " fill="#000000" transform="translate(1136,78)"/>
<path d="M0,0 L1,0 L1,8 L0,8 Z " fill="#000000" transform="translate(1136,93)"/>
<path d="M0,0 L28,0 L30,1 L93,1 L159,2 L282,2 L289,3 L300,2 L306,3 L396,3 L411,4 L423,4 L451,3 L459,4 L631,4 L640,5 L643,8 L644,12 L645,162 L646,185 L646,198 L647,206 L646,211 L645,227 L644,273 L645,354 L645,438 L644,477 L642,501 L637,505 L633,506 L601,506 L591,510 L576,521 L564,530 L555,536 L544,543 L535,547 L526,553 L513,563 L500,574 L486,582 L478,586 L411,586 L359,585 L312,585 L205,584 L168,584 L134,583 L51,583 L36,582 L-10,584 L-15,580 L-16,576 L-17,555 L-17,16 L-18,4 L-14,1 Z M10,200 L5,205 L4,224 L4,301 L5,378 L7,382 L16,384 L76,384 L91,385 L150,386 L286,386 L350,387 L460,387 L469,386 L498,387 L538,386 L559,386 L604,385 L617,384 L620,381 L621,353 L622,283 L622,214 L620,207 L618,205 L607,204 L600,203 L544,203 L464,202 L453,202 L439,201 L427,201 L415,202 L355,202 L323,201 L130,201 L78,200 Z " fill="#000000" transform="translate(121,103)"/>
<path d="M0,0 L1,0 L1,12 L-1,10 L-1,1 Z " fill="#000000" transform="translate(1136,120)"/>
<path d="M0,0 L1,4 Z " fill="#000000" transform="translate(1136,134)"/>
<path d="M0,0 L1,4 Z " fill="#000000" transform="translate(1136,170)"/>
<path d="M0,0 L1,0 L1,6 L-1,6 L-1,1 Z " fill="#000000" transform="translate(1136,286)"/>
<path d="M0,0 L1,0 L1,5 L-1,4 Z " fill="#000000" transform="translate(1136,321)"/>
<path d="M0,0 L1,0 L1,22 L0,22 L-1,16 L-1,1 Z " fill="#000000" transform="translate(1136,377)"/>
<path d="M0,0 L1,0 L1,15 L-1,13 L-1,1 Z " fill="#000000" transform="translate(1136,409)"/>
<path d="M0,0 Z " fill="#000000" transform="translate(0,429)"/>
<path d="M0,0 L1,0 L1,706 L-7,706 L-6,696 L-5,646 L-5,508 L-4,455 L-3,448 L-3,438 L-4,433 L-4,377 L-3,346 L-3,268 L-2,236 L-2,47 L-1,1 Z " fill="#000000" transform="translate(1136,434)"/>
<path d="M0,0 L1,4 Z " fill="#000000" transform="translate(0,475)"/>
<path d="M0,0 L2,1 Z " fill="#000000" transform="translate(722,619)"/>
<path d="M0,0 L6,1 L15,2 L72,4 L112,4 L171,5 L228,5 L268,6 L359,6 L363,10 L365,15 L365,34 L361,42 L357,47 L348,54 L341,62 L320,83 L318,83 L316,87 L302,101 L295,109 L290,114 L261,143 L253,150 L246,158 L241,163 L231,173 L222,184 L180,226 L175,231 L167,240 L160,246 L153,254 L136,271 L130,279 L122,286 L115,293 L110,298 L103,305 L101,305 L99,309 L91,317 L84,325 L75,334 L68,342 L61,348 L57,354 L52,359 L39,372 L32,380 L24,387 L12,400 L7,405 L-2,415 L-17,430 L-24,438 L-43,457 L-49,458 L-73,458 L-108,457 L-155,457 L-164,456 L-218,456 L-352,454 L-408,453 L-453,452 L-470,452 L-505,451 L-534,449 L-544,449 L-549,446 L-551,442 L-553,418 L-553,409 L-544,399 L-540,394 L-528,386 L-523,382 L-517,378 L-505,369 L-497,363 L-488,357 L-480,351 L-474,347 L-465,340 L-451,329 L-437,319 L-424,309 L-414,302 L-406,296 L-396,289 L-382,280 L-375,274 L-365,269 L-359,259 L-354,243 L-344,225 L-336,213 L-329,204 L-318,193 L-306,186 L-294,180 L-288,176 L-273,172 L-267,169 L-246,163 L-237,160 L-225,158 L-214,155 L-204,149 L-193,140 L-189,136 L-177,128 L-167,120 L-148,107 L-138,100 L-119,86 L-107,77 L-97,70 L-86,62 L-81,59 L-77,55 L-68,49 L-56,40 L-45,32 L-36,25 L-29,21 L-26,20 L-24,16 L-13,9 L-2,1 Z M15,26 L4,27 L-6,33 L-16,40 L-33,52 L-44,60 L-54,67 L-66,75 L-69,77 L-69,79 L-73,81 L-84,88 L-92,94 L-104,102 L-113,109 L-122,115 L-140,128 L-153,139 L-160,145 L-159,150 L-153,151 L-135,150 L-122,151 L-97,151 L-78,153 L-56,157 L-42,158 L-35,160 L-24,162 L-16,162 L-11,157 L4,143 L15,134 L28,122 L39,113 L52,101 L60,94 L65,89 L73,81 L80,75 L79,71 L70,73 L45,81 L37,84 L29,86 L18,89 L13,91 L4,93 L-15,102 L-31,105 L-33,106 L-39,106 L-43,104 L-47,97 L-47,92 L-35,89 L-19,82 L-7,79 L14,72 L29,68 L42,64 L50,61 L59,59 L66,56 L76,54 L96,47 L106,44 L115,42 L128,37 L136,37 L142,42 L149,53 L158,68 L167,80 L173,91 L179,100 L180,102 L180,111 L172,113 L163,117 L157,117 L150,109 L137,89 L131,82 L124,70 L120,67 L116,68 L102,79 L88,91 L80,98 L70,107 L62,114 L50,126 L42,133 L34,141 L25,147 L20,153 L12,160 L4,167 L3,172 L8,178 L17,183 L25,189 L32,197 L43,216 L50,235 L55,246 L58,255 L60,266 L61,269 L61,282 L57,292 L51,297 L46,302 L39,311 L30,318 L16,326 L-23,345 L-42,351 L-60,356 L-73,358 L-75,359 L-92,361 L-94,362 L-108,363 L-121,365 L-142,367 L-164,367 L-176,368 L-223,368 L-228,372 L-228,374 L-233,376 L-246,388 L-255,399 L-264,402 L-285,402 L-285,397 L-274,387 L-266,380 L-255,369 L-254,364 L-257,361 L-274,355 L-292,354 L-295,352 L-304,349 L-313,345 L-322,342 L-333,333 L-345,324 L-347,324 L-349,320 L-356,311 L-360,303 L-365,300 L-371,302 L-382,309 L-393,318 L-411,331 L-422,339 L-436,349 L-442,354 L-448,358 L-459,367 L-470,374 L-474,378 L-478,380 L-483,385 L-494,392 L-495,395 L-499,397 L-512,407 L-513,412 L-509,415 L-488,415 L-435,417 L-411,417 L-348,418 L-250,418 L-243,419 L-120,419 L-108,420 L-59,419 L-54,416 L-44,407 L-39,402 L-34,398 L-28,391 L-21,385 L-14,377 L34,329 L41,321 L50,312 L55,308 L62,300 L70,293 L76,286 L84,279 L91,272 L96,267 L121,242 L121,240 L125,238 L140,223 L146,218 L151,213 L160,205 L164,199 L172,192 L187,177 L195,170 L199,165 L207,158 L212,153 L217,149 L222,142 L230,135 L243,123 L261,105 L269,98 L279,88 L286,80 L294,73 L312,55 L316,50 L324,43 L330,35 L329,31 L324,29 L312,28 L291,28 L242,27 L103,27 L81,26 Z M-130,174 L-144,175 L-147,176 L-163,176 L-170,177 L-189,178 L-209,180 L-212,181 L-225,181 L-242,186 L-250,189 L-258,191 L-279,200 L-289,206 L-306,217 L-314,228 L-316,233 L-317,246 L-312,256 L-304,264 L-294,272 L-268,284 L-252,288 L-225,292 L-199,293 L-162,293 L-134,291 L-123,289 L-111,288 L-101,286 L-88,284 L-75,281 L-64,278 L-51,273 L-38,268 L-22,260 L-10,253 L0,244 L5,240 L11,228 L12,222 L9,213 L-1,200 L-12,193 L-20,188 L-31,185 L-48,180 L-58,178 L-81,175 L-107,174 Z M29,251 L23,260 L16,266 L8,271 L-2,278 L-26,290 L-34,294 L-43,297 L-53,301 L-74,308 L-95,310 L-105,314 L-107,315 L-155,320 L-192,319 L-211,319 L-215,318 L-230,317 L-237,315 L-250,313 L-270,308 L-283,303 L-290,302 L-302,296 L-313,292 L-322,286 L-327,283 L-329,283 L-331,279 L-336,280 L-336,287 L-331,301 L-326,306 L-312,314 L-295,322 L-269,331 L-260,334 L-253,336 L-227,338 L-217,340 L-183,342 L-141,342 L-114,339 L-112,338 L-94,336 L-89,334 L-78,333 L-64,329 L-49,326 L-45,324 L-32,321 L-15,313 L3,303 L13,296 L20,289 L25,284 L32,275 L35,269 L35,255 L33,251 Z " fill="#000000" transform="translate(721,623)"/>
<path d="M0,0 L6,1 L14,7 L30,15 L38,20 L51,26 L57,29 L61,34 L68,45 L74,55 L89,77 L94,86 L94,91 L92,93 L88,92 L85,89 L85,87 L79,85 L54,72 L38,64 L31,59 L25,57 L20,53 L13,44 L7,28 L4,20 L-1,9 L-2,2 Z " fill="#000000" transform="translate(525,812)"/>
<path d="M0,0 L1,4 Z " fill="#000000" transform="translate(0,821)"/>
<path d="M0,0 L2,1 L1,8 L0,8 Z " fill="#000000" transform="translate(0,831)"/>
<path d="M0,0 Z " fill="#000000" transform="translate(0,861)"/>
<path d="M0,0 L2,1 L3,82 L3,147 L2,174 L0,176 Z " fill="#000000" transform="translate(0,928)"/>
<path d="M0,0 Z " fill="#000000" transform="translate(0,1116)"/>
<path d="M0,0 L2,0 L6,4 L21,5 L72,6 L161,7 L184,7 L207,9 L243,9 L323,10 L356,10 L429,11 L505,12 L569,12 L648,13 L728,13 L750,14 L764,14 L765,16 L0,16 Z " fill="#000000" transform="translate(0,1124)"/>
<path d="M0,0 L16,0 L17,2 L-4,2 Z " fill="#000000" transform="translate(780,1138)"/>
<path d="M0,0 L12,0 L13,2 L-2,2 Z " fill="#000000" transform="translate(808,1138)"/>
<path d="M0,0 L4,1 Z " fill="#000000" transform="translate(837,1139)"/>
<path d="M0,0 L5,0 L5,1 L0,1 Z " fill="#000000" transform="translate(852,1139)"/>
</svg>
