<?xml version="1.0" encoding="UTF-8"?>
<!-- Generator: visioncortex VTracer 0.6.12 -->
<svg version="1.1" xmlns="http://www.w3.org/2000/svg" width="1119" height="1098">
<path d="M0,0 L14,0 L14,2 L11,5 L10,10 L10,34 L11,41 L11,56 L10,105 L10,174 L9,187 L8,252 L8,283 L7,301 L6,310 L6,331 L7,342 L6,362 L6,409 L5,415 L6,429 L5,462 L5,580 L4,642 L3,661 L3,697 L2,704 L2,765 L1,827 L0,882 L0,923 L-1,960 L-1,1018 L-2,1044 L-1,1078 L1,1082 L5,1084 L39,1084 L55,1085 L117,1085 L122,1086 L153,1086 L165,1087 L199,1086 L315,1086 L319,1087 L341,1086 L359,1087 L494,1087 L547,1088 L598,1088 L649,1089 L677,1089 L682,1091 L695,1091 L700,1090 L730,1089 L745,1088 L789,1088 L817,1089 L830,1089 L845,1091 L848,1090 L889,1088 L891,1089 L914,1091 L921,1092 L927,1089 L934,1089 L939,1091 L963,1091 L980,1092 L1095,1092 L1097,1083 L1098,1070 L1099,1023 L1099,1011 L1100,1002 L1100,961 L1101,947 L1101,927 L1103,911 L1103,884 L1104,879 L1104,827 L1105,770 L1105,737 L1107,727 L1106,707 L1106,641 L1107,631 L1107,500 L1108,409 L1109,399 L1109,305 L1110,295 L1110,134 L1109,124 L1110,120 L1111,22 L1110,14 L1070,14 L1003,12 L980,11 L952,11 L893,10 L841,10 L802,9 L781,8 L747,9 L731,9 L726,8 L692,8 L671,9 L643,8 L609,8 L579,7 L467,7 L416,8 L367,8 L330,7 L217,7 L175,6 L150,7 L134,6 L82,6 L33,3 L26,1 L26,0 L1114,0 L1114,835 L1113,838 L1112,858 L1112,980 L1111,1022 L1111,1074 L1108,1098 L18,1098 L12,1097 L11,1098 L-5,1098 L-5,179 L-3,169 L-3,141 L-4,125 L-4,107 L-5,106 L-5,95 L-3,91 L-2,41 Z " fill="#000000" transform="translate(5,0)"/>
<path d="M0,0 L6,0 L12,4 L28,16 L38,25 L47,35 L56,46 L62,55 L71,71 L80,90 L83,98 L86,110 L89,122 L91,135 L91,182 L90,231 L89,281 L89,305 L88,328 L88,357 L87,366 L86,416 L86,443 L85,485 L81,503 L75,520 L66,539 L57,554 L48,567 L38,582 L30,594 L22,605 L13,618 L6,625 L2,634 L-8,650 L-12,657 L-13,661 L-14,712 L-14,759 L-15,793 L-15,836 L-16,852 L-19,857 L-22,859 L-116,859 L-124,858 L-227,858 L-255,857 L-260,854 L-259,849 L-251,838 L-244,827 L-233,813 L-224,799 L-216,788 L-213,781 L-206,771 L-200,762 L-190,746 L-180,733 L-170,717 L-163,708 L-153,692 L-146,683 L-141,675 L-133,663 L-124,651 L-117,641 L-113,634 L-106,624 L-98,612 L-90,601 L-83,592 L-74,578 L-66,567 L-56,553 L-47,538 L-41,530 L-30,515 L-15,492 L-12,484 L-11,461 L-11,435 L-10,417 L-9,367 L-8,274 L-8,252 L-7,243 L-10,237 L-15,237 L-20,242 L-25,248 L-29,255 L-39,263 L-121,263 L-214,262 L-219,257 L-221,252 L-221,243 L-222,229 L-220,223 L-215,219 L-173,219 L-137,220 L-122,220 L-117,221 L-105,220 L-90,220 L-86,221 L-35,221 L-32,222 L-18,222 L-12,219 L-10,219 L-7,209 L-6,200 L-6,169 L-5,143 L-5,113 L-4,76 L-4,34 L-3,3 Z M29,546 L28,550 L32,552 L34,551 L33,546 Z " fill="#000000" transform="translate(683,50)"/>
<path d="M0,0 L26,1 L80,1 L87,0 L136,1 L169,1 L175,4 L178,10 L179,37 L178,48 L171,69 L164,81 L158,90 L152,97 L144,104 L139,109 L123,117 L111,122 L90,126 L75,125 L63,123 L46,117 L30,108 L17,97 L7,84 L3,79 L-2,66 L-5,55 L-9,46 L-13,42 L-17,40 L-27,41 L-32,39 L-34,36 L-33,30 L-26,22 L-19,14 L-11,7 L-5,2 Z " fill="#000000" transform="translate(467,343)"/>
<path d="M0,0 L3,1 L3,3 L0,3 Z " fill="#000000" transform="translate(453,477)"/>
<path d="M0,0 L7,1 L38,1 L47,2 L88,2 L148,3 L176,4 L199,4 L205,5 L225,4 L237,4 L259,5 L313,5 L352,6 L355,5 L389,6 L398,7 L483,7 L540,8 L559,7 L562,8 L579,8 L586,12 L586,20 L580,27 L574,36 L570,41 L563,51 L556,61 L547,75 L540,85 L531,99 L521,114 L513,125 L500,144 L492,156 L482,172 L476,180 L472,186 L461,202 L457,207 L453,214 L446,224 L439,234 L429,249 L424,256 L420,264 L411,277 L401,292 L390,308 L383,319 L380,322 L375,321 L375,276 L376,266 L376,197 L377,163 L377,133 L374,119 L370,113 L362,107 L358,106 L328,105 L230,104 L208,104 L201,103 L136,103 L120,102 L52,101 L12,100 L-4,99 L-8,94 L-11,83 L-10,76 L-9,12 L-5,4 Z " fill="#000000" transform="translate(45,526)"/>
<path d="M0,0 L134,0 L147,1 L186,1 L203,2 L230,2 L236,5 L242,13 L250,34 L256,43 L262,58 L270,74 L279,93 L287,108 L292,118 L294,123 L293,128 L290,129 L282,125 L275,126 L268,127 L260,127 L253,129 L211,129 L203,126 L196,126 L192,129 L174,130 L77,130 L61,129 L54,130 L-9,130 L-15,125 L-14,110 L-13,53 L-13,40 L-12,34 L-13,27 L-13,10 L-10,3 L-8,1 Z " fill="#000000" transform="translate(430,933)"/>
</svg>
