<?xml version="1.0" encoding="UTF-8"?>
<!-- Generator: visioncortex VTracer 0.6.12 -->
<svg version="1.1" xmlns="http://www.w3.org/2000/svg" width="1011" height="1002">
<path d="M0,0 L1011,0 L1011,711 L1009,710 L1009,697 L1008,694 L1004,693 L1001,697 L997,695 L995,691 L981,690 L934,690 L927,692 L918,692 L923,697 L931,702 L938,709 L945,720 L949,727 L951,733 L951,752 L948,763 L943,773 L934,783 L933,788 L936,790 L952,790 L956,791 L990,791 L996,784 L1001,785 L1000,817 L996,821 L990,823 L954,823 L918,822 L913,823 L904,823 L891,822 L838,822 L834,821 L827,821 L824,822 L785,822 L783,821 L764,821 L756,820 L749,821 L720,821 L707,820 L581,820 L571,819 L545,820 L535,819 L521,820 L504,820 L486,819 L310,819 L282,820 L277,819 L244,819 L224,818 L51,818 L23,819 L14,822 L12,827 L11,862 L11,989 L16,996 L19,997 L83,997 L139,995 L479,995 L513,994 L524,995 L731,995 L738,994 L764,995 L989,995 L1004,994 L1011,992 L1011,1002 L0,1002 Z M520,2 L465,3 L447,4 L445,3 L371,3 L362,4 L333,3 L281,3 L256,4 L224,4 L212,6 L207,5 L181,4 L169,7 L142,7 L125,6 L88,7 L73,7 L50,9 L18,9 L11,11 L8,13 L7,16 L7,194 L8,230 L9,238 L14,240 L49,239 L209,239 L222,240 L400,242 L433,243 L438,246 L440,249 L440,352 L439,361 L436,366 L431,368 L415,368 L384,367 L379,371 L376,382 L376,438 L375,485 L374,600 L375,615 L378,621 L382,624 L391,627 L406,630 L420,635 L441,640 L448,642 L463,644 L470,643 L474,639 L478,629 L484,615 L486,613 L492,613 L494,622 L493,633 L492,662 L490,677 L488,681 L483,682 L480,671 L475,659 L470,656 L457,658 L440,663 L405,672 L396,676 L388,678 L379,683 L366,684 L357,686 L317,685 L300,685 L286,686 L275,686 L268,685 L264,686 L237,686 L233,688 L234,692 L244,699 L252,707 L259,718 L265,728 L267,740 L266,748 L262,763 L254,776 L248,784 L250,788 L256,789 L274,789 L283,788 L293,789 L304,788 L310,789 L370,789 L449,791 L456,791 L465,790 L468,791 L707,791 L713,790 L723,790 L730,791 L743,791 L750,788 L749,783 L739,769 L736,764 L735,760 L734,747 L734,734 L737,722 L746,705 L755,699 L764,694 L764,689 L759,688 L709,687 L668,686 L657,686 L630,684 L618,678 L602,675 L597,672 L587,670 L578,667 L577,666 L563,665 L558,662 L532,657 L527,658 L522,661 L514,677 L511,681 L506,680 L504,674 L505,625 L508,612 L514,611 L518,627 L523,641 L526,645 L532,646 L546,644 L557,642 L564,640 L576,638 L578,637 L589,636 L604,632 L615,629 L621,626 L624,621 L626,613 L626,595 L627,557 L627,472 L628,425 L627,383 L624,374 L618,370 L588,368 L576,366 L573,364 L572,361 L572,326 L573,300 L573,283 L574,254 L578,245 L580,244 L645,243 L654,244 L926,244 L946,245 L979,245 L995,244 L1004,241 L1006,239 L1007,235 L1008,216 L1008,81 L1007,11 L1003,6 L970,5 L931,5 L906,4 L882,4 L875,3 L815,3 L811,4 L791,4 L772,3 L687,3 L608,2 L585,3 Z M62,394 L48,395 L40,399 L38,402 L36,465 L36,492 L37,514 L41,518 L50,520 L155,520 L160,517 L163,512 L164,505 L164,401 L162,397 L156,395 L130,394 Z M254,394 L219,396 L213,400 L210,408 L209,450 L208,466 L208,514 L211,519 L224,521 L282,522 L318,521 L327,519 L330,516 L332,500 L333,424 L332,404 L329,399 L323,396 L302,396 L265,395 Z M684,397 L676,401 L673,409 L672,412 L671,468 L671,488 L672,519 L675,523 L679,524 L698,524 L723,523 L728,524 L771,525 L779,525 L783,523 L788,523 L793,525 L800,521 L802,517 L803,493 L803,413 L801,402 L797,399 L771,399 L755,398 L752,397 L737,397 L717,398 L713,397 Z M860,399 L855,404 L852,413 L852,443 L851,490 L852,517 L858,524 L864,525 L961,525 L970,522 L973,518 L974,515 L975,446 L974,408 L970,402 L968,401 L959,400 L938,400 L929,399 Z M20,685 L11,689 L10,691 L10,784 L14,787 L18,788 L36,788 L56,787 L62,784 L61,779 L56,773 L50,764 L46,753 L44,748 L44,734 L45,724 L51,710 L56,705 L62,698 L70,692 L69,688 L64,686 L56,685 Z M114,686 L107,688 L108,692 L114,696 L123,702 L131,713 L136,727 L137,738 L135,754 L130,767 L122,781 L122,785 L125,787 L136,788 L169,788 L187,787 L189,785 L188,780 L181,770 L176,760 L174,755 L172,744 L172,729 L177,714 L182,707 L190,700 L200,694 L207,691 L205,687 L200,686 Z M805,689 L796,690 L797,694 L813,704 L820,713 L825,723 L827,730 L827,745 L824,760 L818,775 L812,784 L813,789 L816,791 L868,791 L871,789 L870,782 L866,776 L862,771 L858,760 L856,753 L856,738 L859,724 L864,715 L877,703 L887,696 L887,692 L880,689 Z " fill="#000000" transform="translate(0,0)"/>
<path d="M0,0 L1,0 L1,5 L0,5 Z " fill="#000000" transform="translate(1010,721)"/>
</svg>
