<?xml version="1.0" encoding="UTF-8"?>
<!-- Generator: visioncortex VTracer 0.6.12 -->
<svg version="1.1" xmlns="http://www.w3.org/2000/svg" width="1179" height="1218">
<path d="M0,0 L9,1 L27,1 L58,2 L108,3 L125,2 L141,3 L195,3 L231,4 L268,4 L276,5 L281,4 L305,5 L356,5 L362,6 L381,6 L402,7 L428,7 L442,8 L482,8 L515,9 L541,9 L544,10 L567,10 L572,11 L615,11 L648,13 L667,15 L684,20 L693,23 L706,24 L721,30 L737,38 L753,46 L763,52 L768,56 L779,64 L784,68 L788,73 L794,77 L795,80 L799,82 L809,93 L816,101 L823,110 L829,120 L835,129 L840,141 L848,157 L859,187 L862,204 L864,217 L865,232 L866,240 L865,290 L864,315 L864,349 L863,378 L863,386 L864,396 L863,445 L861,540 L860,593 L859,627 L859,682 L858,698 L858,735 L857,768 L857,792 L856,839 L856,859 L855,864 L855,879 L854,892 L852,938 L844,978 L840,986 L836,1001 L830,1014 L821,1031 L811,1045 L805,1055 L799,1063 L784,1079 L779,1084 L771,1091 L764,1097 L756,1103 L749,1109 L741,1113 L733,1118 L725,1123 L713,1128 L706,1131 L702,1134 L688,1138 L675,1142 L669,1143 L662,1144 L651,1147 L639,1148 L609,1148 L596,1147 L587,1148 L568,1148 L541,1147 L485,1147 L477,1148 L459,1147 L425,1147 L409,1146 L390,1146 L382,1145 L381,1146 L319,1145 L251,1144 L241,1144 L235,1145 L228,1144 L195,1144 L164,1143 L146,1143 L134,1142 L103,1142 L98,1143 L91,1142 L83,1143 L80,1142 L68,1142 L59,1141 L-7,1141 L-34,1140 L-65,1135 L-89,1127 L-108,1119 L-125,1111 L-132,1106 L-139,1102 L-144,1098 L-158,1088 L-163,1083 L-170,1077 L-175,1072 L-175,1070 L-179,1068 L-192,1053 L-199,1045 L-205,1034 L-214,1020 L-222,1004 L-228,989 L-234,974 L-237,959 L-241,944 L-242,931 L-244,922 L-244,861 L-243,825 L-243,767 L-242,764 L-242,712 L-241,669 L-240,580 L-240,554 L-241,547 L-240,542 L-240,477 L-239,438 L-239,344 L-238,317 L-239,295 L-239,281 L-238,273 L-238,229 L-236,205 L-231,179 L-226,161 L-221,150 L-216,139 L-213,132 L-199,106 L-191,94 L-184,87 L-178,79 L-173,74 L-166,67 L-158,60 L-153,54 L-139,44 L-132,40 L-130,40 L-128,36 L-114,28 L-90,17 L-79,12 L-48,5 L-28,2 L-21,1 L-6,1 Z M592,52 L594,54 L595,52 Z M566,63 L567,69 L569,69 L570,65 L569,63 Z M604,68 L604,72 L607,71 L606,68 Z M568,71 L569,77 L573,91 L577,92 L578,91 L578,85 L573,73 L571,71 Z M601,82 L600,83 L599,91 L598,96 L602,95 L602,90 L603,86 Z M-105,162 L-108,165 L-109,170 L-105,170 L-100,166 L-101,163 Z M280,346 L271,347 L250,347 L240,348 L188,350 L164,352 L159,353 L140,353 L134,355 L122,356 L119,357 L99,359 L78,362 L64,364 L57,366 L45,368 L32,368 L10,374 L-1,376 L-17,380 L-38,388 L-46,394 L-52,401 L-57,410 L-58,419 L-59,490 L-59,500 L-60,504 L-60,625 L-61,663 L-61,676 L-63,689 L-64,690 L-98,691 L-121,691 L-135,690 L-141,695 L-143,700 L-143,707 L-140,711 L-130,713 L-110,713 L-80,714 L-41,714 L20,715 L71,715 L96,716 L110,715 L122,716 L134,715 L164,716 L188,716 L200,713 L203,708 L208,689 L210,680 L220,661 L226,653 L237,641 L247,632 L257,627 L265,622 L277,618 L286,616 L297,615 L316,615 L343,624 L359,634 L372,646 L379,654 L388,668 L395,689 L399,706 L402,713 L407,717 L422,718 L431,717 L439,718 L493,718 L522,719 L581,719 L586,718 L613,719 L630,718 L639,715 L649,708 L654,704 L661,695 L664,687 L667,673 L668,584 L668,569 L670,501 L670,440 L668,421 L664,410 L658,402 L651,395 L639,390 L630,387 L620,384 L616,382 L603,380 L588,376 L572,374 L557,371 L552,369 L538,368 L536,367 L524,366 L515,364 L498,362 L484,359 L467,357 L450,356 L425,353 L418,352 L400,351 L390,350 L371,350 L362,348 L348,348 L343,347 L306,347 Z M300,630 L280,633 L263,639 L255,645 L249,649 L240,658 L233,667 L229,674 L221,691 L220,697 L219,716 L220,732 L223,743 L232,762 L238,771 L240,771 L242,776 L255,786 L265,792 L279,798 L295,801 L306,801 L319,799 L323,797 L335,794 L345,788 L348,785 L354,781 L365,769 L371,760 L376,752 L381,739 L383,728 L384,708 L382,694 L379,683 L374,672 L364,659 L352,646 L345,642 L339,639 L335,636 L326,634 L315,630 Z M-94,729 L-103,730 L-115,737 L-123,750 L-125,761 L-125,771 L-122,778 L-118,784 L-112,791 L-105,794 L-97,796 L-86,796 L-74,791 L-63,780 L-58,769 L-60,752 L-66,740 L-74,733 L-85,729 Z " fill="#000000" transform="translate(281,36)"/>
<path d="M0,0 L64,1 L81,1 L87,2 L95,2 L100,0 L106,1 L108,2 L120,2 L124,5 L125,10 L125,76 L123,88 L121,91 L92,92 L88,90 L83,90 L80,93 L35,93 L28,92 L-5,92 L-13,88 L-15,85 L-15,50 L-14,8 L-13,4 L-7,1 Z " fill="#000000" transform="translate(324,465)"/>
<path d="M0,0 L60,0 L87,1 L107,0 L133,1 L164,1 L171,2 L199,2 L215,3 L222,6 L224,12 L224,60 L223,83 L220,90 L210,92 L129,92 L112,91 L106,92 L53,91 L46,92 L41,91 L-21,91 L-26,87 L-28,80 L-28,31 L-27,8 L-24,3 L-17,1 Z " fill="#000000" transform="translate(615,468)"/>
<path d="M0,0 L12,0 L25,5 L37,14 L45,29 L47,37 L46,55 L41,65 L38,71 L32,78 L23,84 L14,88 L2,88 L-10,85 L-21,78 L-26,73 L-32,64 L-36,49 L-35,33 L-32,23 L-24,12 L-16,6 L-5,1 Z " fill="#000000" transform="translate(577,708)"/>
</svg>
