<?xml version="1.0" encoding="UTF-8"?>
<!-- Generator: visioncortex VTracer 0.6.12 -->
<svg version="1.1" xmlns="http://www.w3.org/2000/svg" width="1206" height="1245">
<path d="M0,0 L26,0 L49,1 L65,2 L77,2 L83,1 L87,2 L114,3 L152,3 L174,4 L202,5 L264,6 L315,6 L320,7 L368,7 L379,8 L431,8 L477,9 L512,9 L543,10 L620,10 L629,11 L675,12 L689,13 L709,17 L731,23 L748,30 L756,35 L766,39 L777,45 L783,48 L789,53 L797,59 L805,65 L816,75 L820,79 L825,85 L832,91 L840,102 L849,113 L856,124 L860,132 L866,142 L871,154 L877,168 L881,181 L887,202 L892,234 L892,289 L891,318 L891,358 L888,483 L888,495 L887,500 L886,520 L885,527 L883,583 L882,600 L880,614 L881,634 L880,677 L879,686 L878,715 L877,769 L876,778 L875,808 L874,838 L873,850 L872,865 L871,905 L869,937 L866,956 L860,978 L858,985 L855,991 L852,1001 L848,1009 L844,1018 L836,1032 L827,1046 L819,1056 L812,1064 L805,1072 L799,1079 L791,1086 L782,1095 L772,1102 L761,1110 L749,1117 L732,1125 L727,1127 L721,1131 L708,1136 L707,1137 L696,1139 L674,1144 L672,1145 L652,1147 L607,1147 L585,1146 L581,1147 L555,1146 L551,1145 L527,1144 L514,1145 L501,1144 L478,1144 L428,1143 L393,1142 L323,1141 L299,1140 L269,1140 L239,1139 L207,1138 L196,1139 L189,1138 L150,1138 L126,1137 L119,1136 L111,1137 L96,1137 L74,1135 L67,1136 L30,1135 L0,1134 L-26,1133 L-45,1129 L-61,1128 L-71,1125 L-80,1123 L-84,1121 L-92,1119 L-104,1114 L-111,1112 L-124,1104 L-133,1099 L-146,1090 L-156,1083 L-164,1076 L-172,1069 L-177,1064 L-184,1057 L-192,1047 L-197,1042 L-203,1033 L-209,1025 L-216,1012 L-219,1007 L-225,995 L-230,984 L-235,967 L-238,959 L-242,942 L-246,914 L-246,861 L-245,835 L-244,828 L-244,800 L-243,769 L-243,743 L-242,719 L-240,650 L-239,602 L-238,578 L-238,551 L-236,498 L-235,473 L-235,460 L-234,439 L-233,409 L-233,397 L-231,357 L-229,294 L-229,261 L-228,255 L-228,232 L-226,210 L-223,191 L-218,171 L-213,159 L-209,146 L-201,130 L-192,113 L-188,108 L-178,94 L-168,83 L-159,72 L-151,65 L-139,54 L-132,48 L-124,44 L-114,37 L-97,27 L-87,22 L-75,17 L-71,15 L-61,13 L-52,9 L-27,4 Z M465,300 L459,301 L449,302 L445,306 L444,308 L444,315 L446,321 L449,324 L472,326 L476,327 L493,327 L500,328 L522,328 L535,331 L539,341 L541,357 L542,366 L546,393 L547,396 L550,423 L552,430 L553,441 L556,457 L560,490 L564,509 L567,532 L570,557 L570,565 L566,569 L555,575 L534,589 L520,602 L512,609 L503,619 L495,629 L487,640 L483,647 L471,669 L463,685 L459,691 L456,692 L392,692 L378,690 L363,690 L357,691 L352,689 L342,687 L328,681 L322,677 L317,672 L309,664 L305,658 L298,649 L290,634 L285,622 L280,604 L278,596 L277,583 L277,567 L278,558 L281,548 L290,533 L296,529 L300,526 L317,522 L323,518 L325,515 L326,509 L326,488 L325,480 L320,476 L312,474 L265,472 L253,472 L222,470 L181,470 L180,469 L174,469 L172,470 L166,470 L159,469 L126,469 L123,468 L93,468 L72,467 L51,467 L42,466 L-22,465 L-40,464 L-52,465 L-79,463 L-89,468 L-92,473 L-93,477 L-94,497 L-92,512 L-88,515 L-74,517 L-70,518 L-47,520 L-42,523 L-42,529 L-54,545 L-61,553 L-70,565 L-78,578 L-83,586 L-89,597 L-97,612 L-104,627 L-112,649 L-115,660 L-121,684 L-124,713 L-124,723 L-121,736 L-116,741 L-109,742 L-96,742 L-65,744 L-36,744 L-30,745 L15,746 L21,747 L55,747 L77,748 L105,748 L116,749 L155,750 L201,750 L203,754 L208,752 L210,751 L273,751 L290,752 L307,752 L315,753 L327,753 L353,754 L371,754 L411,755 L453,756 L480,756 L493,754 L498,752 L502,745 L504,734 L511,712 L513,704 L523,686 L527,678 L537,666 L544,657 L558,645 L568,639 L579,631 L596,623 L610,618 L620,616 L635,612 L648,611 L661,610 L687,612 L710,618 L724,626 L738,634 L749,641 L757,646 L763,646 L766,643 L766,632 L762,619 L757,608 L753,601 L748,595 L742,586 L730,575 L718,565 L706,558 L689,553 L675,551 L662,551 L650,549 L646,540 L638,508 L634,490 L632,486 L630,475 L627,467 L626,455 L628,451 L644,445 L664,441 L674,436 L678,431 L679,425 L679,379 L676,372 L666,367 L657,367 L642,364 L630,362 L617,361 L605,357 L600,349 L597,340 L594,325 L591,320 L588,309 L583,305 L578,303 L553,301 L524,301 L515,300 Z M650,647 L635,649 L617,655 L609,659 L601,663 L591,670 L583,675 L578,680 L569,690 L562,699 L556,709 L549,725 L544,744 L543,754 L543,776 L544,787 L553,814 L560,824 L566,832 L574,842 L582,849 L593,858 L609,866 L626,872 L627,873 L644,875 L647,876 L662,875 L675,874 L692,869 L702,866 L714,859 L720,856 L727,850 L735,844 L742,836 L752,823 L760,809 L766,796 L769,781 L770,764 L770,750 L768,736 L762,715 L755,703 L751,696 L744,688 L738,680 L729,672 L724,667 L716,662 L704,656 L688,651 L679,650 L673,649 L664,647 Z M-3,758 L-23,759 L-28,764 L-29,767 L-29,776 L-22,799 L-17,811 L-8,822 L-1,830 L9,841 L14,844 L24,851 L37,858 L51,862 L55,864 L70,866 L94,866 L110,863 L120,859 L133,855 L145,848 L155,841 L169,827 L176,818 L180,813 L190,795 L195,778 L195,768 L191,764 L189,763 L175,761 L137,761 L132,760 L90,760 L83,759 L39,759 L12,758 Z " fill="#000000" transform="translate(281,36)"/>
</svg>
