<?xml version="1.0" encoding="UTF-8"?>
<!-- Generator: visioncortex VTracer 0.6.12 -->
<svg version="1.1" xmlns="http://www.w3.org/2000/svg" width="1086" height="1158">
<path d="M0,0 L8,1 L74,1 L101,0 L119,1 L122,0 L149,0 L171,1 L198,1 L205,2 L211,1 L218,2 L232,2 L249,4 L259,8 L268,9 L274,11 L284,14 L300,20 L307,23 L317,29 L326,34 L329,37 L339,42 L346,49 L355,55 L363,64 L368,68 L373,73 L382,83 L389,92 L395,101 L402,111 L408,121 L413,133 L417,140 L426,167 L431,190 L435,237 L435,448 L434,551 L434,570 L433,599 L434,630 L434,765 L435,779 L435,879 L432,903 L430,910 L428,922 L425,932 L421,941 L418,947 L415,954 L405,976 L399,983 L392,993 L388,998 L384,1004 L374,1016 L368,1020 L362,1027 L354,1034 L346,1041 L338,1046 L333,1050 L316,1060 L306,1066 L299,1066 L295,1071 L280,1074 L275,1078 L260,1081 L253,1081 L245,1083 L216,1083 L197,1084 L131,1084 L102,1085 L35,1085 L-14,1086 L-34,1086 L-70,1087 L-76,1085 L-81,1087 L-86,1087 L-91,1086 L-139,1087 L-304,1087 L-310,1088 L-315,1087 L-329,1087 L-364,1088 L-401,1088 L-423,1087 L-441,1084 L-458,1079 L-474,1073 L-485,1068 L-501,1060 L-506,1056 L-517,1049 L-522,1045 L-528,1041 L-535,1034 L-540,1031 L-544,1026 L-544,1024 L-548,1022 L-555,1014 L-563,1006 L-565,1000 L-567,1000 L-574,989 L-579,982 L-587,966 L-596,946 L-600,934 L-605,914 L-607,905 L-609,883 L-609,588 L-610,565 L-610,500 L-611,485 L-610,480 L-610,317 L-609,262 L-608,250 L-604,232 L-602,222 L-601,220 L-599,208 L-596,192 L-591,168 L-589,155 L-587,149 L-585,133 L-580,120 L-576,112 L-571,105 L-567,98 L-557,83 L-552,78 L-541,67 L-535,60 L-525,52 L-520,47 L-508,39 L-500,33 L-490,27 L-474,20 L-464,15 L-443,9 L-439,7 L-430,7 L-422,5 L-409,3 L-400,2 L-227,2 L-125,3 L-99,2 L-16,2 Z M-165,123 L-187,124 L-194,125 L-199,124 L-204,125 L-213,124 L-222,124 L-227,126 L-244,127 L-252,127 L-255,128 L-271,129 L-283,129 L-301,131 L-304,132 L-337,136 L-339,137 L-352,138 L-359,140 L-374,141 L-384,143 L-401,147 L-411,148 L-423,151 L-435,153 L-441,156 L-449,157 L-466,161 L-476,166 L-482,169 L-491,178 L-498,194 L-497,332 L-497,451 L-500,461 L-505,462 L-552,462 L-557,463 L-561,462 L-569,462 L-574,465 L-576,468 L-575,474 L-571,479 L-562,482 L-560,481 L-526,480 L-494,480 L-478,481 L-469,480 L-460,481 L-455,480 L-403,481 L-377,480 L-288,480 L-259,479 L-250,477 L-247,473 L-244,456 L-239,440 L-234,432 L-227,418 L-219,409 L-212,404 L-212,402 L-208,400 L-193,391 L-188,388 L-181,386 L-180,385 L-171,383 L-160,382 L-141,382 L-126,386 L-115,390 L-101,397 L-90,406 L-85,412 L-80,417 L-74,426 L-69,437 L-65,446 L-61,458 L-59,469 L-56,476 L-51,479 L-47,480 L-36,480 L-29,479 L-17,480 L-14,479 L44,479 L48,484 L49,521 L50,538 L49,546 L50,553 L49,562 L50,595 L50,652 L49,659 L50,665 L51,688 L54,693 L56,694 L73,694 L77,690 L79,683 L79,580 L78,494 L79,484 L81,480 L83,479 L106,479 L109,478 L135,478 L157,477 L169,473 L173,469 L179,466 L190,448 L192,436 L192,397 L191,373 L191,241 L190,228 L189,190 L185,180 L178,170 L166,162 L149,158 L136,154 L123,151 L97,147 L87,144 L78,142 L71,141 L52,138 L31,136 L23,134 L13,134 L11,133 L-25,129 L-43,127 L-48,126 L-67,126 L-96,125 L-111,124 Z M-168,399 L-178,403 L-188,407 L-191,410 L-197,412 L-201,416 L-206,421 L-217,433 L-224,447 L-227,455 L-230,467 L-230,486 L-227,503 L-222,514 L-216,525 L-212,530 L-206,538 L-195,547 L-186,553 L-168,559 L-164,561 L-140,561 L-122,555 L-108,548 L-92,533 L-84,522 L-81,517 L-79,509 L-75,495 L-74,482 L-73,475 L-76,459 L-79,451 L-85,436 L-89,431 L-92,426 L-106,413 L-119,405 L-126,402 L-140,399 Z M-499,503 L-505,505 L-527,504 L-533,508 L-541,524 L-543,530 L-539,545 L-529,558 L-521,563 L-514,563 L-511,565 L-503,564 L-489,556 L-481,548 L-478,542 L-477,527 L-481,518 L-485,512 L-490,506 Z M290,571 L282,572 L238,572 L230,573 L155,573 L151,574 L118,574 L112,575 L106,575 L102,579 L99,585 L99,701 L101,712 L105,716 L115,718 L151,718 L157,717 L162,718 L176,718 L183,717 L224,718 L228,722 L230,738 L228,814 L228,845 L227,913 L227,940 L225,956 L223,961 L204,962 L-41,962 L-47,961 L-71,962 L-88,962 L-98,960 L-100,957 L-101,947 L-101,872 L-100,803 L-100,756 L-99,730 L-96,722 L-79,721 L-49,720 L-33,720 L-30,719 L-14,719 L-8,720 L19,718 L24,715 L27,708 L28,607 L27,587 L25,580 L20,576 L9,575 L-5,575 L-34,576 L-42,575 L-49,576 L-69,575 L-81,575 L-95,576 L-235,576 L-244,577 L-264,577 L-269,578 L-275,577 L-331,577 L-344,578 L-366,578 L-380,579 L-382,582 L-388,583 L-438,582 L-442,584 L-449,583 L-450,582 L-464,583 L-477,584 L-479,583 L-491,582 L-494,581 L-508,580 L-511,579 L-551,579 L-559,581 L-574,581 L-589,580 L-595,583 L-599,592 L-598,643 L-598,806 L-597,818 L-597,874 L-596,892 L-591,922 L-583,942 L-577,956 L-574,963 L-561,986 L-553,994 L-547,1002 L-539,1013 L-531,1020 L-526,1024 L-521,1029 L-517,1034 L-509,1039 L-505,1042 L-500,1045 L-488,1052 L-482,1056 L-472,1060 L-467,1063 L-458,1066 L-455,1068 L-445,1069 L-437,1073 L-420,1075 L-417,1076 L-377,1075 L-340,1076 L-324,1075 L-320,1076 L-313,1075 L-309,1076 L-276,1075 L-246,1075 L-240,1076 L-231,1075 L-189,1075 L-183,1076 L-179,1074 L-174,1075 L-170,1077 L-163,1076 L-162,1075 L-110,1075 L-104,1074 L-78,1074 L-72,1075 L-49,1075 L-44,1074 L-6,1074 L3,1073 L62,1073 L93,1072 L174,1072 L223,1071 L232,1071 L264,1068 L269,1066 L279,1065 L293,1058 L302,1055 L308,1051 L313,1049 L323,1043 L332,1037 L338,1033 L343,1030 L350,1022 L362,1011 L374,999 L380,989 L385,984 L393,970 L399,962 L405,950 L411,937 L417,921 L421,901 L424,876 L424,701 L423,693 L424,627 L423,615 L423,580 L420,574 L412,572 L397,572 L396,571 L373,572 L344,572 L310,573 L305,572 L297,572 Z M62,726 L55,727 L52,730 L51,737 L50,764 L48,767 L39,769 L30,770 L27,772 L27,779 L32,788 L38,796 L43,806 L49,815 L53,821 L61,832 L68,833 L75,823 L83,812 L89,802 L97,788 L101,777 L100,772 L97,769 L85,767 L79,764 L78,755 L78,736 L76,729 L71,726 Z " fill="#000000" transform="translate(618,36)"/>
<path d="M0,0 L68,0 L108,1 L110,3 L112,19 L112,81 L110,87 L105,90 L65,90 L59,89 L55,91 L46,90 L41,89 L37,91 L-124,91 L-127,86 L-129,80 L-129,13 L-127,6 L-125,3 L-111,1 L-105,2 L-83,2 L-81,1 Z " fill="#000000" transform="translate(594,239)"/>
<path d="M0,0 L6,1 L18,1 L24,3 L28,1 L56,1 L63,0 L67,2 L74,4 L76,9 L76,79 L74,88 L72,90 L63,91 L-44,91 L-51,92 L-56,89 L-59,83 L-60,33 L-59,10 L-56,4 L-54,2 L-30,1 L-10,1 Z " fill="#000000" transform="translate(260,240)"/>
<path d="M0,0 L14,0 L27,5 L31,7 L31,9 L35,11 L42,19 L46,27 L48,34 L48,56 L45,63 L41,68 L34,76 L31,79 L17,86 L2,86 L-7,84 L-17,78 L-24,72 L-30,63 L-33,56 L-34,51 L-34,32 L-27,18 L-18,8 L-13,5 Z " fill="#000000" transform="translate(459,473)"/>
</svg>
