<?xml version="1.0" encoding="UTF-8"?>
<!-- Generator: visioncortex VTracer 0.6.12 -->
<svg version="1.1" xmlns="http://www.w3.org/2000/svg" width="1131" height="1110">
<path d="M0,0 L1127,0 L1127,885 L1126,887 L1126,936 L1125,978 L1125,1031 L1123,1110 L-4,1110 L-4,268 L-3,244 L-4,239 L-4,232 L-3,230 L-3,198 L-2,168 L-1,66 L-1,45 Z M556,570 L551,572 L548,575 L547,579 L546,604 L545,711 L544,775 L543,896 L541,900 L528,901 L481,901 L478,899 L477,880 L477,855 L478,766 L478,742 L475,737 L472,735 L436,734 L431,731 L426,718 L419,709 L412,704 L401,701 L387,701 L375,705 L366,713 L362,719 L357,731 L355,733 L336,734 L184,732 L166,732 L149,736 L137,741 L126,748 L121,753 L114,760 L106,774 L102,787 L100,800 L99,887 L99,932 L103,937 L106,938 L126,938 L130,939 L132,944 L135,956 L140,969 L146,978 L157,990 L167,997 L180,1003 L189,1005 L209,1006 L220,1004 L231,1000 L242,994 L251,987 L258,980 L265,969 L270,958 L274,943 L275,941 L301,941 L304,956 L310,971 L322,987 L324,987 L326,991 L339,1000 L349,1004 L362,1007 L367,1008 L381,1008 L394,1005 L410,997 L416,993 L425,985 L434,973 L439,964 L443,954 L445,944 L446,942 L526,941 L540,942 L570,942 L575,943 L579,958 L583,969 L589,978 L595,986 L603,994 L612,1000 L622,1005 L629,1007 L641,1009 L659,1008 L675,1003 L691,994 L700,986 L709,972 L716,957 L719,945 L720,944 L842,944 L845,946 L851,967 L858,981 L869,993 L876,999 L892,1007 L903,1011 L929,1011 L943,1007 L960,998 L972,986 L979,976 L985,963 L989,947 L991,945 L1016,944 L1019,941 L1021,935 L1021,882 L1022,775 L1022,672 L1023,596 L1022,577 L1018,572 L984,571 L862,571 L834,570 Z M387,618 L379,621 L370,628 L363,636 L359,649 L359,662 L363,673 L371,683 L385,690 L405,690 L415,685 L424,677 L429,668 L431,662 L431,646 L426,634 L417,624 L405,618 Z " fill="#000000" transform="translate(4,0)"/>
<path d="M0,0 L5,1 L11,10 L21,17 L28,19 L45,19 L57,13 L65,6 L67,1 L71,0 L75,4 L79,9 L79,11 L83,13 L94,19 L108,19 L118,17 L127,11 L134,3 L137,0 L141,2 L147,10 L158,17 L166,19 L175,19 L185,17 L194,11 L199,6 L204,0 L208,1 L214,10 L223,16 L231,19 L245,19 L257,15 L262,11 L267,6 L271,0 L275,1 L285,14 L297,20 L313,20 L325,15 L333,10 L339,0 L344,1 L349,9 L357,16 L366,20 L379,21 L388,20 L390,23 L390,89 L389,110 L385,114 L376,115 L371,118 L367,133 L361,153 L355,175 L352,181 L350,182 L317,183 L310,185 L305,195 L305,214 L304,236 L303,244 L299,247 L280,246 L277,245 L276,243 L275,119 L272,115 L257,115 L253,118 L247,140 L243,156 L237,178 L235,181 L230,182 L198,182 L192,185 L188,190 L187,196 L186,234 L184,243 L180,246 L161,246 L157,241 L157,154 L156,120 L154,115 L152,114 L139,114 L136,116 L131,129 L125,154 L121,168 L118,177 L115,181 L74,182 L69,185 L67,188 L66,197 L66,210 L65,239 L62,245 L41,245 L38,242 L37,238 L37,126 L35,116 L32,114 L21,113 L16,116 L12,127 L5,153 L1,168 L-1,175 L-5,179 L-11,180 L-42,180 L-44,179 L-45,176 L-45,109 L-44,40 L-43,19 L-42,18 L-26,18 L-17,15 L-8,10 Z " fill="#000000" transform="translate(615,624)"/>
</svg>
