<?xml version="1.0" encoding="UTF-8"?>
<!-- Generator: visioncortex VTracer 0.6.12 -->
<svg version="1.1" xmlns="http://www.w3.org/2000/svg" width="1260" height="1209">
<path d="M0,0 L15,0 L40,1 L59,2 L93,2 L129,3 L165,3 L195,4 L271,4 L306,5 L316,6 L346,6 L360,7 L370,7 L375,8 L382,8 L385,7 L397,7 L401,8 L410,8 L414,7 L428,8 L435,9 L451,8 L466,8 L491,9 L511,9 L524,10 L589,11 L602,11 L607,12 L657,13 L677,14 L696,13 L731,13 L750,15 L793,15 L804,16 L820,21 L832,23 L845,30 L852,32 L866,40 L872,45 L880,52 L891,63 L901,76 L906,83 L914,99 L917,111 L921,122 L924,133 L924,179 L923,207 L922,218 L921,252 L921,272 L920,277 L921,293 L921,320 L920,345 L920,366 L921,370 L921,377 L919,389 L918,429 L918,493 L917,500 L916,537 L915,606 L915,657 L914,665 L913,685 L913,718 L912,748 L911,761 L911,789 L909,860 L909,908 L908,968 L907,979 L905,1021 L903,1040 L897,1058 L890,1072 L884,1081 L877,1092 L869,1101 L858,1110 L849,1117 L834,1126 L817,1133 L799,1137 L793,1139 L776,1140 L752,1140 L737,1139 L682,1139 L667,1138 L628,1137 L614,1137 L608,1136 L558,1136 L542,1135 L530,1135 L506,1136 L495,1135 L490,1134 L484,1135 L448,1135 L435,1133 L425,1134 L385,1134 L374,1133 L348,1133 L332,1132 L313,1132 L302,1131 L269,1131 L248,1130 L232,1130 L218,1131 L215,1130 L180,1129 L143,1129 L136,1128 L62,1128 L45,1127 L1,1126 L-10,1125 L-19,1126 L-58,1126 L-73,1124 L-102,1125 L-118,1123 L-136,1117 L-144,1113 L-153,1109 L-165,1102 L-175,1094 L-195,1074 L-203,1061 L-211,1045 L-214,1038 L-219,1026 L-221,1013 L-222,999 L-222,912 L-221,909 L-221,861 L-219,834 L-219,804 L-218,785 L-218,741 L-217,732 L-218,721 L-217,714 L-217,645 L-216,554 L-214,544 L-215,534 L-216,530 L-215,491 L-215,481 L-214,473 L-213,412 L-212,398 L-211,359 L-210,291 L-209,250 L-209,202 L-208,183 L-207,108 L-200,81 L-192,65 L-182,51 L-168,36 L-160,29 L-150,22 L-133,13 L-121,7 L-113,5 L-112,4 L-93,2 L-66,1 L-50,2 L-38,2 L-27,1 L-15,1 Z M-85,56 L-105,61 L-114,67 L-119,71 L-125,75 L-135,84 L-141,93 L-145,105 L-150,117 L-151,132 L-152,154 L-152,197 L-153,239 L-153,308 L-155,401 L-155,441 L-156,472 L-157,557 L-157,570 L-158,577 L-158,623 L-159,645 L-159,680 L-160,726 L-160,788 L-161,799 L-162,842 L-162,859 L-163,883 L-163,950 L-164,966 L-164,994 L-162,1013 L-158,1026 L-151,1035 L-141,1048 L-136,1053 L-127,1059 L-113,1066 L-99,1069 L-61,1070 L-32,1070 L-2,1072 L3,1071 L44,1071 L48,1072 L94,1072 L104,1073 L126,1073 L167,1074 L190,1075 L256,1076 L281,1076 L314,1077 L351,1077 L365,1076 L374,1077 L409,1077 L412,1078 L437,1078 L453,1079 L467,1079 L497,1080 L511,1080 L523,1079 L556,1081 L586,1081 L625,1082 L628,1081 L639,1081 L650,1082 L698,1084 L771,1085 L786,1084 L800,1080 L816,1071 L823,1065 L828,1060 L836,1049 L840,1042 L845,1026 L846,1022 L846,1003 L847,984 L848,919 L848,900 L849,881 L850,770 L851,760 L851,733 L852,725 L851,694 L852,689 L853,665 L853,615 L854,612 L855,547 L856,491 L856,442 L858,434 L858,407 L859,384 L859,344 L860,314 L861,297 L861,281 L862,245 L862,164 L863,159 L863,143 L860,122 L854,110 L846,100 L842,95 L833,88 L827,84 L817,79 L808,77 L802,75 L795,74 L750,73 L741,72 L713,72 L690,71 L683,70 L656,70 L616,69 L590,69 L579,68 L496,66 L446,66 L440,65 L410,65 L393,64 L367,64 L361,65 L354,64 L334,63 L290,62 L240,62 L228,61 L147,60 L121,59 L106,59 L98,58 L62,58 L57,59 L52,58 L20,57 L-42,57 L-46,56 Z " fill="#000000" transform="translate(303,35)"/>
<path d="M0,0 L80,0 L125,1 L139,2 L190,2 L193,3 L222,3 L287,4 L298,5 L307,4 L317,4 L326,5 L353,4 L359,5 L407,7 L467,7 L493,8 L508,9 L563,9 L570,10 L600,9 L613,11 L645,11 L718,13 L733,13 L740,14 L788,14 L800,15 L867,15 L876,17 L886,20 L894,23 L902,28 L913,39 L919,50 L922,63 L923,73 L923,102 L922,150 L921,177 L920,193 L919,289 L918,318 L916,433 L915,444 L915,467 L913,574 L912,597 L912,625 L916,627 L912,629 L911,642 L911,667 L910,725 L908,774 L907,869 L906,883 L906,917 L904,945 L900,955 L893,966 L888,971 L882,976 L870,982 L857,986 L842,986 L820,985 L791,985 L764,984 L751,983 L658,983 L648,982 L610,982 L603,983 L582,981 L536,980 L443,979 L427,979 L424,978 L410,978 L403,977 L320,977 L306,976 L270,976 L262,975 L255,976 L242,976 L239,975 L213,974 L177,974 L120,973 L98,972 L80,972 L62,971 L-11,971 L-23,969 L-35,965 L-44,959 L-56,948 L-60,940 L-63,934 L-65,927 L-66,912 L-66,887 L-65,827 L-64,821 L-64,772 L-63,735 L-63,691 L-62,678 L-62,662 L-61,631 L-61,619 L-60,610 L-59,488 L-59,432 L-58,427 L-58,348 L-57,343 L-57,294 L-56,276 L-56,233 L-54,182 L-54,168 L-55,155 L-54,147 L-54,122 L-53,68 L-52,42 L-48,31 L-42,22 L-32,13 L-12,2 Z M554,233 L542,235 L523,244 L510,252 L500,258 L492,262 L476,270 L467,275 L461,279 L452,285 L441,289 L428,297 L421,300 L407,308 L403,313 L400,319 L400,328 L404,334 L418,344 L428,351 L439,357 L449,364 L460,370 L462,373 L461,378 L454,384 L452,388 L453,395 L455,397 L467,398 L476,398 L495,399 L562,401 L612,401 L645,403 L653,399 L654,398 L654,392 L649,385 L645,381 L646,376 L658,367 L670,361 L677,358 L685,354 L701,344 L706,340 L709,333 L708,324 L701,316 L691,309 L677,300 L664,293 L659,289 L652,286 L637,277 L628,271 L615,263 L604,256 L594,251 L585,245 L576,239 L566,234 Z M344,408 L342,413 L308,412 L269,412 L243,411 L221,410 L204,410 L153,409 L134,410 L129,409 L88,409 L72,413 L62,419 L55,425 L47,441 L42,455 L37,465 L33,478 L30,485 L26,497 L20,511 L17,519 L13,528 L10,537 L5,559 L4,567 L3,606 L3,614 L2,619 L2,637 L4,646 L11,652 L18,653 L42,653 L51,654 L58,653 L84,653 L92,649 L102,642 L102,640 L106,638 L113,630 L122,617 L135,609 L143,604 L147,603 L207,603 L248,604 L267,607 L276,612 L287,623 L297,637 L303,645 L308,650 L315,655 L322,658 L346,659 L354,660 L415,660 L437,661 L469,661 L506,662 L526,661 L539,657 L546,650 L550,647 L550,645 L552,645 L563,631 L575,620 L585,615 L592,612 L597,611 L649,612 L657,612 L660,613 L685,613 L699,615 L709,617 L720,623 L724,625 L726,629 L733,637 L739,646 L746,654 L751,659 L762,667 L778,668 L810,669 L813,670 L841,669 L847,666 L850,659 L851,654 L852,633 L852,587 L849,568 L845,553 L841,540 L837,524 L833,514 L827,497 L821,480 L819,473 L815,464 L810,450 L804,440 L795,430 L781,424 L771,422 L753,421 L723,421 L696,420 L678,420 L669,419 L648,418 L583,418 L577,417 L563,417 L550,416 L515,416 L483,415 L451,415 L417,414 L394,414 L383,413 L366,414 L363,413 L351,413 L347,411 Z M152,620 L144,624 L136,632 L131,644 L130,654 L134,665 L140,673 L150,679 L153,680 L169,679 L175,675 L186,664 L192,660 L215,660 L221,664 L230,675 L240,681 L254,681 L263,678 L270,673 L276,660 L276,644 L271,634 L266,628 L253,622 L239,621 L226,621 L204,620 Z M598,629 L583,637 L577,645 L574,654 L574,666 L578,675 L582,681 L592,687 L594,688 L613,688 L622,682 L633,670 L638,668 L659,668 L664,673 L672,684 L685,691 L692,692 L702,690 L712,684 L718,675 L721,666 L721,656 L717,646 L710,638 L701,634 L691,631 L670,631 L620,630 Z M289,673 L288,675 L291,678 L296,677 L296,674 Z M797,896 L798,900 L801,899 L801,896 Z M792,901 L793,906 L796,906 L795,901 Z " fill="#000000" transform="translate(224,113)"/>
<path d="M0,0 L15,0 L25,5 L41,15 L63,28 L72,35 L88,43 L105,53 L114,59 L130,68 L136,73 L137,75 L137,81 L133,86 L112,98 L94,106 L89,110 L73,117 L57,125 L51,128 L35,129 L-1,129 L-40,128 L-58,120 L-73,109 L-89,101 L-107,90 L-122,81 L-126,76 L-125,69 L-114,61 L-107,56 L-91,49 L-80,43 L-64,35 L-54,29 L-47,25 L-27,14 L-11,6 Z " fill="#000000" transform="translate(773,364)"/>
<path d="M0,0 L17,0 L26,3 L30,7 L31,14 L31,71 L29,80 L25,85 L20,88 L-21,88 L-33,86 L-38,81 L-38,71 L-34,63 L-27,42 L-23,32 L-19,21 L-16,11 L-11,4 Z " fill="#000000" transform="translate(297,566)"/>
<path d="M0,0 L22,0 L33,1 L87,1 L93,4 L97,9 L98,13 L98,79 L95,84 L90,88 L79,90 L68,90 L63,89 L29,89 L4,88 L-4,86 L-9,81 L-11,76 L-11,17 L-9,7 L-2,1 Z " fill="#000000" transform="translate(356,567)"/>
<path d="M0,0 L39,0 L60,1 L83,1 L91,6 L93,8 L94,16 L94,35 L95,63 L93,81 L91,85 L82,89 L68,89 L60,88 L4,88 L-6,87 L-12,83 L-14,79 L-14,25 L-13,8 L-11,4 Z " fill="#000000" transform="translate(486,569)"/>
<path d="M0,0 L29,0 L38,1 L87,2 L93,7 L95,12 L96,36 L96,60 L94,75 L92,85 L88,89 L83,90 L60,90 L12,89 L-4,88 L-10,84 L-13,80 L-15,71 L-14,20 L-13,9 L-10,4 L-5,1 Z " fill="#000000" transform="translate(612,571)"/>
<path d="M0,0 L60,0 L64,1 L91,2 L97,6 L99,9 L100,14 L101,39 L99,78 L96,86 L91,89 L6,89 L-5,86 L-9,81 L-10,76 L-11,40 L-10,33 L-10,17 L-8,7 L-4,2 Z " fill="#000000" transform="translate(735,574)"/>
<path d="M0,0 L61,0 L77,1 L86,1 L93,3 L98,8 L99,11 L99,68 L98,82 L95,87 L87,91 L68,91 L44,90 L3,89 L-4,86 L-8,82 L-10,75 L-10,17 L-7,4 Z " fill="#000000" transform="translate(862,576)"/>
<path d="M0,0 L11,1 L19,5 L24,12 L29,27 L34,43 L41,63 L45,74 L46,83 L43,89 L40,91 L24,91 L-6,90 L-16,88 L-21,85 L-24,78 L-24,13 L-20,4 L-15,1 Z " fill="#000000" transform="translate(1002,578)"/>
</svg>
