<?xml version="1.0" encoding="UTF-8"?>
<!-- Generator: visioncortex VTracer 0.6.12 -->
<svg version="1.1" xmlns="http://www.w3.org/2000/svg" width="1074" height="1233">
<path d="M0,0 L30,0 L34,4 L35,9 L35,75 L36,149 L36,180 L37,293 L36,328 L36,434 L37,495 L37,532 L38,809 L38,982 L36,994 L33,997 L17,998 L2,998 L-26,999 L-88,999 L-112,1000 L-143,1000 L-174,1001 L-307,1002 L-408,1003 L-500,1003 L-534,1002 L-661,1002 L-780,1001 L-818,1001 L-860,1000 L-880,1001 L-907,1000 L-925,1001 L-948,1001 L-954,997 L-955,979 L-955,948 L-956,920 L-956,846 L-957,787 L-959,700 L-961,610 L-962,573 L-963,467 L-965,377 L-965,315 L-966,216 L-967,162 L-967,16 L-964,12 L-955,11 L-937,11 L-892,10 L-873,10 L-799,8 L-719,7 L-541,5 L-468,5 L-385,4 L-332,4 L-239,2 L-202,2 L-119,1 L-22,1 Z M-207,40 L-212,41 L-430,41 L-439,42 L-517,42 L-526,43 L-632,43 L-759,44 L-826,45 L-865,46 L-879,47 L-894,53 L-902,59 L-910,66 L-917,73 L-926,89 L-929,96 L-931,108 L-931,172 L-930,213 L-929,293 L-929,333 L-928,394 L-928,418 L-927,469 L-926,591 L-925,630 L-925,657 L-923,759 L-922,820 L-921,847 L-920,895 L-918,908 L-914,921 L-907,933 L-898,943 L-888,951 L-873,959 L-860,963 L-834,963 L-795,964 L-695,964 L-576,965 L-309,965 L-281,964 L-249,965 L-240,964 L-205,963 L-184,964 L-137,963 L-67,963 L-49,958 L-37,953 L-31,949 L-20,939 L-11,928 L-5,915 L-2,904 L-1,897 L0,856 L0,726 L-1,705 L-1,656 L-2,504 L-2,178 L-3,102 L-6,88 L-13,74 L-23,61 L-31,54 L-47,45 L-69,40 Z M8,822 L7,826 L11,827 L12,823 Z " fill="#000000" transform="translate(1004,37)"/>
<path d="M0,0 L7,0 L14,5 L54,8 L59,9 L73,10 L80,12 L96,15 L108,20 L114,25 L119,33 L126,37 L131,41 L131,121 L130,139 L130,170 L126,175 L119,180 L113,181 L91,181 L89,185 L91,187 L107,188 L110,190 L122,192 L133,193 L139,193 L141,197 L141,203 L138,212 L134,220 L120,225 L114,232 L110,234 L92,235 L71,235 L67,231 L64,225 L57,220 L57,209 L52,209 L52,229 L54,237 L53,244 L52,245 L46,245 L45,244 L44,236 L40,236 L36,247 L27,258 L28,261 L143,261 L147,263 L147,278 L144,281 L81,281 L66,282 L-26,282 L-84,283 L-206,283 L-414,284 L-606,284 L-659,285 L-665,283 L-667,278 L-667,267 L-665,264 L-649,263 L-591,263 L-550,262 L-549,260 L-555,252 L-561,243 L-564,243 L-567,248 L-572,249 L-576,245 L-574,232 L-574,211 L-578,212 L-579,222 L-584,227 L-586,227 L-588,233 L-593,236 L-604,237 L-632,237 L-637,234 L-643,227 L-648,225 L-656,223 L-663,209 L-663,197 L-661,195 L-650,196 L-627,191 L-614,190 L-612,189 L-613,184 L-642,183 L-651,177 L-653,171 L-654,148 L-655,78 L-655,44 L-650,39 L-645,35 L-638,25 L-631,21 L-621,16 L-595,11 L-585,10 L-570,9 L-566,8 L-548,7 L-541,7 L-533,1 L-523,1 L-518,7 L-510,8 L-386,8 L-365,7 L-324,7 L-291,8 L-250,8 L-207,7 L-148,7 L-40,6 L-16,5 L-9,5 L-3,2 Z M-508,18 L-507,22 L-504,21 L-505,18 Z M-451,62 L-463,64 L-468,69 L-469,77 L-469,107 L-468,116 L-463,122 L-446,122 L-437,123 L-398,122 L-394,120 L-391,113 L-391,74 L-394,65 L-397,63 L-408,62 Z M-349,62 L-355,66 L-356,67 L-357,78 L-357,109 L-354,119 L-351,121 L-289,121 L-285,118 L-284,115 L-283,75 L-285,67 L-290,63 L-300,62 Z M-241,62 L-246,64 L-249,69 L-249,113 L-246,120 L-239,122 L-222,122 L-178,121 L-173,117 L-172,115 L-171,101 L-172,71 L-175,65 L-181,62 Z M-125,62 L-131,64 L-134,69 L-135,73 L-135,112 L-132,119 L-129,121 L-62,121 L-57,117 L-56,113 L-56,72 L-58,65 L-62,63 L-97,62 Z M-3,63 L-7,67 L-8,78 L-8,100 L-7,116 L-5,119 L4,120 L21,119 L24,115 L24,71 L22,64 L20,63 Z M62,63 L56,65 L54,68 L54,113 L57,119 L63,120 L72,118 L74,116 L75,91 L74,71 L71,65 L68,63 Z M-534,64 L-546,67 L-549,76 L-548,114 L-546,120 L-541,124 L-524,124 L-519,120 L-517,115 L-517,75 L-519,67 L-524,64 Z M-593,66 L-597,70 L-599,76 L-598,116 L-596,121 L-591,124 L-584,124 L-579,120 L-578,116 L-578,78 L-580,69 L-584,66 Z M122,205 L121,209 L123,211 L128,210 L129,206 L128,205 Z M-350,230 L-361,232 L-366,236 L-367,243 L-371,245 L-378,244 L-385,252 L-393,259 L-392,263 L-167,263 L-134,262 L-133,257 L-140,251 L-145,244 L-150,245 L-155,247 L-158,245 L-160,234 L-162,232 L-168,231 L-202,231 L-271,230 L-288,231 L-327,231 Z M-498,236 L-502,240 L-507,250 L-516,259 L-516,262 L-514,263 L-505,263 L-494,264 L-438,264 L-422,263 L-420,262 L-421,258 L-429,251 L-435,241 L-438,240 L-442,246 L-451,246 L-454,242 L-457,237 L-459,236 Z M-39,235 L-62,236 L-68,239 L-72,245 L-78,246 L-82,242 L-83,238 L-86,237 L-90,242 L-95,251 L-101,257 L-101,261 L-99,262 L-5,262 L-4,258 L-14,249 L-20,239 L-22,235 Z " fill="#000000" transform="translate(801,455)"/>
<path d="M0,0 L7,0 L11,3 L11,75 L9,82 L5,85 L-1,84 L-3,81 L-4,71 L-4,4 Z " fill="#000000" transform="translate(60,1115)"/>
<path d="M0,0 L7,0 L19,3 L28,9 L33,15 L35,21 L35,27 L32,29 L25,29 L17,18 L5,13 L-2,14 L-12,19 L-18,27 L-20,33 L-20,54 L-16,62 L-9,70 L1,73 L8,72 L16,68 L21,61 L25,53 L27,51 L34,52 L36,54 L35,62 L29,74 L22,81 L11,86 L-7,86 L-19,81 L-27,71 L-33,58 L-35,43 L-34,34 L-32,25 L-25,12 L-17,5 L-12,2 Z " fill="#000000" transform="translate(123,1114)"/>
<path d="M0,0 L13,2 L21,6 L26,11 L32,19 L35,25 L36,30 L36,49 L34,57 L30,67 L20,78 L9,84 L5,85 L-11,85 L-21,81 L-33,68 L-37,60 L-40,49 L-40,34 L-36,20 L-27,9 L-22,5 L-14,1 Z M-9,13 L-18,18 L-24,26 L-27,37 L-27,48 L-25,58 L-21,64 L-13,71 L-8,73 L5,73 L13,68 L19,61 L23,51 L23,33 L20,23 L13,15 L6,13 Z " fill="#000000" transform="translate(286,1115)"/>
<path d="M0,0 L10,0 L14,4 L20,22 L26,38 L30,52 L38,73 L39,81 L38,83 L31,83 L26,79 L23,70 L19,60 L16,59 L0,59 L-6,58 L-12,60 L-14,65 L-19,79 L-24,83 L-29,83 L-32,80 L-31,72 L-25,56 L-20,44 L-14,30 L-5,6 L-2,1 Z M3,22 L-1,27 L-3,34 L-5,39 L-5,45 L-3,47 L10,47 L13,45 L13,38 L8,25 L5,22 Z " fill="#000000" transform="translate(199,1117)"/>
</svg>
