<?xml version="1.0" encoding="UTF-8"?>
<!-- Generator: visioncortex VTracer 0.6.12 -->
<svg version="1.1" xmlns="http://www.w3.org/2000/svg" width="1125" height="1122">
<path d="M0,0 L1125,0 L1125,1122 L0,1122 Z M559,109 L554,114 L497,171 L490,179 L483,185 L476,193 L448,221 L441,229 L437,233 L437,235 L433,237 L426,245 L418,252 L411,260 L406,265 L399,272 L394,277 L378,293 L373,298 L365,306 L360,311 L345,327 L301,371 L296,376 L256,416 L256,418 L252,420 L241,431 L236,436 L138,534 L130,541 L123,549 L117,554 L110,563 L112,569 L124,582 L141,599 L148,607 L154,612 L161,620 L174,633 L179,638 L186,646 L191,650 L198,658 L210,670 L214,675 L219,679 L226,687 L234,695 L239,700 L249,710 L254,716 L259,721 L268,729 L275,737 L280,742 L299,761 L306,769 L311,773 L318,781 L326,790 L334,797 L343,806 L348,811 L353,817 L359,818 L361,825 L378,842 L383,847 L392,857 L394,857 L394,859 L399,864 L441,906 L450,917 L472,939 L476,944 L484,951 L491,959 L493,959 L495,963 L510,978 L515,983 L521,989 L523,989 L525,993 L552,1020 L557,1019 L572,1005 L580,998 L587,990 L596,982 L601,977 L606,972 L635,943 L643,936 L654,925 L659,920 L669,911 L674,906 L697,883 L702,878 L707,873 L716,864 L724,857 L725,854 L729,852 L749,832 L754,827 L763,818 L769,813 L776,805 L781,800 L791,791 L804,778 L809,773 L821,762 L826,757 L830,752 L838,745 L847,737 L852,732 L877,707 L882,702 L902,682 L910,675 L920,664 L928,657 L944,641 L951,635 L958,627 L965,620 L973,613 L1013,573 L1014,569 L1005,558 L993,546 L986,538 L910,462 L905,457 L887,439 L886,437 L884,437 L883,434 L878,430 L873,425 L867,418 L859,411 L852,403 L800,351 L794,344 L788,339 L781,331 L756,306 L755,304 L753,304 L751,300 L743,293 L736,285 L712,261 L708,256 L706,256 L704,252 L687,235 L680,227 L677,226 L675,222 L648,195 L641,187 L634,180 L632,180 L630,176 L623,168 L615,161 L610,155 L605,150 L588,134 L582,127 L574,120 L564,109 Z " fill="#000000" transform="translate(0,0)"/>
<path d="M0,0 L5,2 L17,14 L24,22 L43,41 L43,43 L47,45 L54,52 L61,60 L71,71 L76,76 L100,100 L107,108 L131,132 L132,138 L125,146 L96,175 L92,180 L87,184 L80,192 L70,202 L62,209 L55,216 L50,221 L24,247 L19,252 L16,253 L15,256 L7,263 L-2,272 L-7,272 L-16,262 L-55,223 L-62,215 L-70,208 L-84,193 L-90,188 L-97,180 L-114,163 L-121,155 L-132,143 L-133,142 L-133,136 L-122,125 L-117,120 L-111,112 L-109,112 L-107,108 L-86,87 L-81,82 L-74,75 L-67,67 L-59,60 L-50,51 L-45,46 L-35,35 L-30,30 L-25,24 L-17,17 Z " fill="#000000" transform="translate(561,232)"/>
<path d="M0,0 L5,0 L26,21 L31,26 L40,35 L40,37 L44,39 L50,46 L55,51 L60,55 L67,63 L98,94 L104,101 L109,106 L128,125 L132,131 L130,136 L106,160 L101,165 L95,172 L87,179 L82,185 L77,189 L75,192 L73,192 L71,196 L66,201 L58,209 L50,216 L45,221 L40,226 L30,237 L25,242 L16,250 L9,258 L1,265 L-3,269 L-8,268 L-14,261 L-16,260 L-16,258 L-20,256 L-25,250 L-30,245 L-56,219 L-61,214 L-76,198 L-106,168 L-113,160 L-133,140 L-134,133 L-127,125 L-111,108 L-101,99 L-96,94 L-34,32 L-29,27 L-13,12 L-6,5 Z " fill="#000000" transform="translate(756,433)"/>
<path d="M0,0 L5,2 L16,14 L23,21 L27,26 L35,33 L44,42 L51,50 L64,63 L69,68 L75,73 L82,81 L94,94 L106,107 L121,122 L130,133 L129,138 L124,143 L117,151 L110,157 L103,165 L94,173 L87,181 L78,191 L35,234 L30,239 L19,250 L14,255 L3,266 L-1,267 L-9,260 L-16,252 L-21,247 L-54,214 L-58,209 L-63,204 L-70,198 L-77,190 L-104,163 L-111,155 L-122,144 L-129,136 L-130,135 L-130,129 L-114,113 L-107,105 L-105,105 L-105,103 L-97,96 L-87,85 L-79,78 L-74,72 L-66,65 L-56,55 L-51,50 L-25,24 L-17,17 Z " fill="#000000" transform="translate(362,434)"/>
<path d="M0,0 L5,1 L12,8 L19,16 L32,29 L37,34 L41,39 L49,46 L54,51 L62,60 L64,61 L64,63 L67,64 L74,72 L92,90 L97,96 L102,101 L117,116 L122,121 L131,132 L129,137 L120,147 L118,147 L116,151 L108,158 L101,166 L94,172 L89,177 L84,183 L82,183 L80,187 L66,201 L61,205 L55,212 L47,219 L38,228 L31,236 L23,243 L5,261 L2,265 L-4,264 L-11,256 L-18,249 L-23,244 L-25,240 L-27,240 L-32,235 L-40,227 L-47,219 L-64,202 L-69,197 L-76,190 L-83,182 L-92,173 L-97,168 L-108,156 L-117,146 L-125,138 L-129,132 L-128,127 L-115,114 L-110,109 L-103,101 L-40,38 L-35,34 L-28,26 L-18,17 L-7,7 L-2,1 Z " fill="#000000" transform="translate(555,634)"/>
<path d="M0,0 L3,1 L4,4 L0,6 L-1,1 Z " fill="#000000" transform="translate(316,739)"/>
</svg>
