<?xml version="1.0" encoding="UTF-8"?>
<!-- Generator: visioncortex VTracer 0.6.12 -->
<svg version="1.1" xmlns="http://www.w3.org/2000/svg" width="426" height="588">
<path d="M0,0 L24,0 L37,2 L46,6 L63,10 L72,12 L88,20 L105,29 L111,32 L121,42 L129,49 L139,58 L146,65 L156,82 L164,95 L170,104 L174,115 L178,124 L184,145 L188,178 L188,188 L187,203 L187,211 L180,242 L178,251 L168,268 L162,278 L157,288 L151,296 L141,309 L136,314 L129,321 L117,327 L110,333 L97,340 L89,346 L76,350 L59,356 L57,357 L37,359 L31,362 L28,369 L27,436 L27,511 L25,515 L19,518 L10,517 L-6,517 L-11,512 L-13,505 L-14,493 L-13,397 L-14,367 L-18,360 L-30,355 L-56,349 L-68,345 L-87,335 L-92,331 L-96,327 L-108,319 L-121,308 L-127,301 L-135,294 L-142,285 L-147,278 L-153,263 L-157,255 L-161,242 L-165,234 L-167,222 L-169,217 L-170,208 L-170,167 L-168,157 L-166,138 L-163,125 L-160,117 L-157,107 L-150,94 L-142,80 L-134,69 L-129,63 L-124,58 L-119,53 L-112,46 L-104,39 L-92,30 L-86,25 L-65,15 L-46,6 L-37,5 L-35,4 L-26,3 L-21,1 Z " fill="#000000" transform="translate(205,36)"/>
</svg>
