<?xml version="1.0" encoding="UTF-8"?>
<!-- Generator: visioncortex VTracer 0.6.12 -->
<svg version="1.1" xmlns="http://www.w3.org/2000/svg" width="756" height="765">
<path d="M0,0 L5,2 L13,8 L38,17 L42,19 L49,21 L55,27 L58,34 L58,43 L51,51 L35,58 L27,60 L4,67 L-9,71 L-10,72 L-24,74 L-43,79 L-52,81 L-63,84 L-69,86 L-80,90 L-99,99 L-112,106 L-114,112 L-112,114 L-108,115 L-100,115 L-96,116 L-64,115 L-11,115 L-4,116 L13,116 L25,119 L34,123 L39,129 L39,135 L32,141 L22,146 L15,149 L4,153 L-5,156 L-15,160 L-25,163 L-36,165 L-52,173 L-62,178 L-71,181 L-79,184 L-88,187 L-94,190 L-98,193 L-98,197 L-96,198 L-58,198 L-52,197 L-36,196 L-3,196 L12,199 L21,205 L22,206 L22,214 L14,221 L-3,230 L-8,232 L-8,239 L-6,243 L0,246 L11,246 L39,245 L59,244 L69,246 L78,252 L83,257 L88,262 L89,264 L88,279 L85,289 L81,308 L81,330 L85,336 L101,343 L109,345 L124,352 L132,354 L141,358 L156,362 L160,362 L162,357 L160,317 L158,313 L158,302 L165,294 L170,290 L188,282 L200,272 L205,268 L208,262 L209,257 L211,230 L216,226 L234,213 L248,205 L259,199 L268,194 L276,189 L287,182 L292,179 L306,170 L315,165 L323,161 L333,154 L347,146 L354,142 L360,140 L366,137 L372,134 L378,135 L385,139 L389,142 L401,148 L408,154 L414,164 L418,173 L418,184 L413,201 L411,209 L406,214 L398,221 L384,230 L369,238 L360,243 L350,250 L340,255 L329,264 L318,270 L305,278 L295,284 L286,290 L264,299 L254,300 L241,294 L233,287 L230,285 L224,285 L208,293 L195,298 L189,305 L188,307 L188,324 L190,339 L190,374 L194,381 L207,386 L216,389 L222,392 L232,396 L237,399 L250,404 L265,411 L280,416 L287,420 L296,423 L313,430 L314,435 L312,437 L312,452 L303,463 L295,469 L282,481 L277,486 L272,490 L265,494 L253,503 L244,509 L231,516 L217,524 L212,528 L196,534 L177,545 L170,550 L154,558 L137,565 L127,569 L117,573 L101,581 L92,585 L80,593 L64,599 L54,604 L44,607 L33,612 L17,620 L-1,626 L-13,631 L-19,633 L-41,642 L-53,647 L-65,651 L-86,658 L-108,664 L-126,670 L-138,672 L-154,676 L-173,681 L-192,684 L-204,687 L-211,690 L-227,694 L-238,695 L-246,697 L-258,697 L-266,693 L-269,690 L-270,677 L-265,665 L-253,642 L-250,635 L-244,626 L-238,615 L-228,600 L-219,585 L-209,573 L-202,561 L-195,552 L-188,544 L-180,533 L-173,526 L-164,515 L-156,505 L-145,493 L-136,481 L-131,476 L-129,476 L-127,472 L-122,467 L-114,458 L-109,451 L-109,444 L-115,429 L-119,420 L-121,412 L-124,402 L-127,395 L-134,377 L-137,368 L-140,361 L-142,353 L-149,333 L-151,325 L-160,299 L-163,287 L-166,282 L-164,270 L-159,260 L-151,253 L-146,251 L-100,249 L-83,249 L-76,248 L-72,245 L-68,236 L-63,232 L-47,231 L-28,224 L-21,221 L-13,216 L-14,212 L-17,211 L-48,210 L-55,212 L-84,214 L-127,214 L-139,209 L-143,204 L-143,197 L-134,191 L-125,188 L-111,181 L-95,175 L-90,172 L-76,168 L-58,159 L-50,157 L-42,153 L-33,151 L-24,146 L-8,141 L-1,137 L-1,134 L-5,133 L-20,132 L-29,131 L-122,131 L-134,127 L-142,121 L-144,117 L-143,109 L-139,104 L-126,96 L-116,90 L-99,82 L-83,76 L-70,71 L-52,66 L-45,64 L-30,61 L-11,55 L6,52 L32,41 L35,38 L33,34 L29,31 L8,23 L-4,17 L-8,11 L-8,5 L-3,1 Z M74,355 L70,359 L65,377 L61,387 L59,394 L56,407 L51,422 L45,452 L40,467 L33,495 L30,504 L24,520 L18,528 L-4,529 L-41,529 L-48,528 L-60,529 L-71,526 L-79,515 L-84,503 L-89,494 L-94,481 L-98,471 L-102,468 L-107,469 L-120,482 L-127,490 L-152,515 L-156,519 L-161,523 L-166,533 L-176,543 L-182,551 L-191,564 L-196,573 L-206,585 L-213,597 L-218,606 L-225,616 L-231,627 L-239,643 L-242,650 L-247,660 L-248,663 L-248,671 L-246,673 L-234,673 L-215,665 L-188,660 L-167,654 L-150,648 L-136,645 L-109,636 L-94,631 L-91,629 L-83,627 L-71,624 L-61,620 L-50,615 L-35,610 L-19,603 L-10,600 L0,594 L8,591 L20,588 L29,585 L39,581 L49,578 L62,572 L74,568 L80,563 L95,557 L104,554 L125,543 L144,533 L153,528 L158,524 L172,516 L195,504 L205,498 L220,490 L224,485 L243,474 L251,470 L257,465 L263,462 L270,455 L278,449 L283,446 L286,442 L285,437 L278,431 L265,426 L257,421 L255,421 L255,419 L239,414 L229,411 L218,406 L209,403 L203,400 L193,397 L187,394 L178,395 L163,404 L147,414 L142,418 L136,421 L126,421 L121,415 L108,408 L107,404 L121,395 L132,389 L138,384 L138,379 L128,373 L115,370 L111,368 L102,366 L91,362 L82,359 L78,355 Z " fill="#000000" transform="translate(305,35)"/>
</svg>
