<?xml version="1.0" encoding="UTF-8"?>
<!-- Generator: visioncortex VTracer 0.6.12 -->
<svg version="1.1" xmlns="http://www.w3.org/2000/svg" width="405" height="399">
<path d="M0,0 L5,0 L8,3 L10,11 L12,75 L13,85 L15,123 L19,124 L26,111 L34,99 L38,90 L43,83 L48,82 L51,84 L50,92 L43,105 L37,116 L29,132 L22,146 L21,151 L24,154 L39,155 L65,155 L81,154 L84,152 L85,142 L85,115 L88,109 L94,104 L102,100 L110,100 L123,105 L129,109 L133,114 L137,124 L139,172 L145,174 L161,182 L175,188 L185,192 L191,197 L192,199 L192,229 L194,240 L199,239 L202,234 L208,233 L233,246 L249,256 L255,261 L255,281 L250,307 L243,330 L238,338 L233,340 L202,340 L142,341 L112,341 L74,342 L8,342 L-21,343 L-45,342 L-50,339 L-58,338 L-61,335 L-64,319 L-68,303 L-72,286 L-77,271 L-83,248 L-88,227 L-91,210 L-92,206 L-93,171 L-90,162 L-83,155 L-72,141 L-68,136 L-64,134 L-58,135 L-54,136 L-54,134 L-50,132 L-43,133 L-25,138 L-21,140 L-14,140 L-15,133 L-19,127 L-27,112 L-37,93 L-38,91 L-38,85 L-35,83 L-30,83 L-25,91 L-18,104 L-10,117 L-6,123 L-2,124 L-2,71 L-3,28 L-3,4 Z M82,165 L56,166 L51,169 L51,185 L55,189 L68,194 L85,200 L87,201 L94,201 L95,200 L96,186 L95,169 L92,166 L89,165 Z M107,173 L106,180 L106,190 L107,204 L110,209 L130,217 L140,222 L161,230 L170,234 L173,236 L179,236 L181,234 L182,224 L180,207 L177,202 L167,197 L144,187 L130,180 L117,175 L113,173 Z " fill="#000000" transform="translate(123,29)"/>
<path d="M0,0 L7,0 L17,3 L21,7 L21,23 L18,28 L16,30 L-34,30 L-77,32 L-88,30 L-93,24 L-97,18 L-106,11 L-108,6 L-105,3 L-94,2 L-22,1 Z " fill="#000000" transform="translate(356,119)"/>
</svg>
