<?xml version="1.0" encoding="UTF-8"?>
<!-- Generator: visioncortex VTracer 0.6.12 -->
<svg version="1.1" xmlns="http://www.w3.org/2000/svg" width="879" height="969">
<path d="M0,0 L55,0 L133,1 L273,1 L340,2 L363,2 L380,3 L382,4 L383,9 L383,52 L382,65 L379,68 L369,68 L358,69 L355,72 L354,77 L354,99 L360,100 L393,101 L409,102 L413,99 L414,83 L414,35 L418,31 L460,30 L469,31 L472,35 L473,63 L472,129 L471,153 L467,159 L457,166 L441,174 L429,180 L413,188 L394,198 L379,206 L363,214 L357,217 L347,223 L334,230 L332,235 L332,317 L334,323 L345,331 L353,337 L358,342 L365,348 L372,356 L378,361 L385,369 L392,378 L401,390 L408,398 L411,404 L415,410 L418,416 L428,435 L435,451 L439,461 L446,482 L451,503 L455,529 L456,533 L457,573 L456,594 L451,624 L444,651 L434,677 L429,689 L421,705 L418,711 L411,721 L407,729 L399,738 L395,744 L384,757 L375,767 L370,772 L362,780 L357,785 L356,786 L356,793 L362,800 L366,804 L373,812 L386,825 L393,835 L400,840 L404,846 L409,851 L414,856 L423,866 L431,875 L436,881 L444,888 L445,893 L439,897 L429,896 L423,900 L322,899 L302,899 L261,898 L239,898 L225,899 L183,899 L178,900 L105,899 L-44,899 L-134,900 L-311,901 L-318,899 L-319,895 L-314,887 L-312,887 L-310,883 L-303,875 L-298,870 L-290,863 L-287,858 L-285,858 L-283,854 L-269,839 L-257,826 L-251,818 L-246,813 L-239,806 L-231,795 L-227,782 L-223,766 L-220,756 L-214,735 L-214,728 L-215,727 L-273,727 L-282,728 L-295,728 L-305,725 L-315,719 L-323,709 L-326,700 L-327,687 L-325,675 L-325,664 L-333,650 L-336,643 L-338,627 L-338,619 L-335,606 L-330,594 L-324,587 L-321,581 L-320,564 L-319,559 L-318,539 L-315,537 L-310,537 L-307,540 L-305,566 L-305,590 L-313,602 L-316,621 L-316,630 L-312,640 L-303,649 L-302,651 L-302,658 L-305,666 L-306,672 L-306,683 L-303,691 L-300,693 L-295,693 L-294,643 L-296,570 L-297,543 L-294,538 L-273,538 L-269,541 L-267,621 L-266,690 L-262,691 L-250,691 L-248,689 L-247,659 L-249,587 L-249,569 L-250,546 L-252,539 L-256,535 L-258,530 L-258,474 L-259,439 L-260,427 L-262,423 L-268,419 L-280,407 L-288,402 L-291,397 L-291,349 L-290,335 L-291,314 L-288,309 L-277,304 L-265,301 L-253,295 L-247,292 L-239,286 L-236,281 L-228,275 L-219,272 L-215,272 L-213,260 L-210,249 L-204,240 L-198,233 L-187,219 L-181,212 L-173,200 L-168,195 L-161,196 L-151,198 L-148,196 L-147,189 L-147,181 L-143,167 L-132,153 L-120,139 L-113,130 L-109,125 L-101,114 L-93,105 L-71,105 L-69,101 L-67,77 L-61,67 L-52,56 L-42,43 L-40,43 L-38,38 L-28,27 L-20,16 L-14,9 L-4,3 Z M13,15 L9,18 L8,30 L7,89 L7,267 L8,288 L9,291 L16,292 L27,288 L42,282 L45,281 L56,280 L67,276 L83,273 L85,272 L97,270 L121,267 L151,266 L170,266 L203,269 L224,273 L239,278 L255,282 L270,288 L282,292 L296,299 L303,303 L310,308 L315,308 L316,303 L316,278 L317,264 L317,225 L320,218 L339,209 L358,199 L373,191 L389,182 L397,178 L405,173 L419,166 L423,163 L442,154 L447,151 L453,147 L456,142 L458,101 L458,77 L457,47 L450,44 L441,45 L437,49 L436,58 L435,118 L433,120 L342,120 L341,119 L341,55 L343,52 L362,52 L367,49 L368,48 L369,23 L367,19 L361,18 L308,18 L303,17 L295,18 L245,17 L201,17 L184,16 L93,16 L31,15 Z M-80,181 L-90,184 L-98,190 L-105,200 L-107,206 L-107,216 L-103,227 L-97,236 L-92,239 L-86,242 L-79,243 L-67,243 L-56,237 L-50,232 L-46,224 L-45,219 L-45,203 L-50,194 L-58,186 L-72,181 Z M-175,267 L-185,272 L-195,281 L-199,293 L-199,302 L-195,315 L-188,322 L-178,328 L-175,329 L-160,329 L-150,324 L-142,317 L-138,309 L-136,297 L-137,290 L-143,278 L-150,272 L-156,269 L-163,267 Z M157,290 L126,292 L114,294 L94,298 L73,304 L42,317 L23,327 L17,331 L8,337 L-1,342 L-7,347 L-15,354 L-27,366 L-35,373 L-47,386 L-56,397 L-66,411 L-71,421 L-76,428 L-81,438 L-89,454 L-96,471 L-104,502 L-108,517 L-110,534 L-110,588 L-106,612 L-99,640 L-91,661 L-84,678 L-74,696 L-70,703 L-60,718 L-50,731 L-39,743 L-33,750 L-26,756 L-19,764 L-11,771 L-2,778 L10,786 L21,794 L29,798 L37,803 L60,814 L76,820 L94,825 L114,829 L130,831 L133,832 L168,833 L194,831 L212,829 L216,827 L225,825 L227,824 L240,823 L256,817 L276,809 L290,802 L308,792 L325,780 L336,771 L344,763 L354,755 L358,750 L366,743 L376,730 L382,721 L382,719 L384,719 L395,702 L403,689 L409,676 L417,656 L422,641 L426,629 L430,608 L432,591 L433,572 L432,541 L430,523 L425,497 L422,487 L418,474 L414,463 L407,448 L399,432 L392,420 L383,406 L374,394 L365,384 L359,376 L353,371 L349,366 L340,359 L330,350 L319,342 L305,333 L291,325 L276,317 L261,310 L247,305 L223,298 L209,295 L198,293 L164,290 Z M-256,308 L-262,312 L-263,329 L-263,395 L-260,407 L-255,413 L-251,413 L-250,411 L-249,371 L-249,354 L-250,310 L-252,308 Z M-55,785 L-63,792 L-71,803 L-78,812 L-82,818 L-86,822 L-96,835 L-100,840 L-100,842 L-102,842 L-113,858 L-121,867 L-125,875 L-124,880 L-121,881 L-3,881 L58,882 L189,882 L267,883 L398,883 L402,880 L401,876 L392,866 L385,858 L375,846 L370,841 L354,824 L349,819 L338,807 L333,806 L317,814 L298,824 L278,833 L263,839 L242,845 L238,847 L222,850 L205,853 L190,855 L168,856 L135,855 L114,853 L96,849 L78,845 L66,842 L46,835 L36,831 L7,818 L-10,810 L-18,805 L-25,801 L-44,790 L-52,785 Z " fill="#000000" transform="translate(373,35)"/>
<path d="M0,0 L5,1 L8,6 L17,26 L17,32 L13,36 L8,35 L4,31 L-3,14 L-6,6 L-2,1 Z " fill="#000000" transform="translate(293,232)"/>
<path d="M0,0 L5,1 L6,2 L6,9 L3,18 L0,33 L-2,35 L-7,35 L-10,31 L-7,22 L-5,10 Z " fill="#000000" transform="translate(209,321)"/>
<path d="M0,0 L23,1 L37,4 L55,10 L70,18 L79,23 L83,27 L83,29 L87,31 L98,43 L104,52 L114,70 L118,82 L122,94 L124,109 L124,127 L122,144 L118,156 L114,166 L102,187 L90,200 L79,210 L69,217 L55,224 L31,232 L10,234 L-5,234 L-18,233 L-35,232 L-50,228 L-70,219 L-82,211 L-97,196 L-102,191 L-110,180 L-116,170 L-121,157 L-124,148 L-127,134 L-128,127 L-128,117 L-126,100 L-121,80 L-115,66 L-106,52 L-98,42 L-91,34 L-83,28 L-71,20 L-53,12 L-33,6 L-25,3 L-17,1 Z M3,26 L-16,28 L-29,32 L-43,39 L-54,47 L-61,55 L-67,63 L-76,75 L-82,88 L-86,107 L-86,123 L-85,136 L-78,156 L-71,167 L-59,181 L-54,186 L-47,192 L-38,196 L-24,203 L-13,206 L4,208 L17,208 L34,204 L44,200 L55,194 L65,187 L74,179 L83,168 L91,152 L95,141 L98,122 L97,105 L95,95 L88,77 L82,68 L78,62 L76,59 L74,59 L74,57 L66,50 L58,43 L47,37 L37,32 L17,27 L8,26 Z " fill="#000000" transform="translate(528,479)"/>
</svg>
