<?xml version="1.0" encoding="UTF-8"?>
<!-- Generator: visioncortex VTracer 0.6.12 -->
<svg version="1.1" xmlns="http://www.w3.org/2000/svg" width="708" height="834">
<path d="M0,0 L10,0 L32,8 L40,13 L41,20 L33,37 L30,44 L27,49 L23,60 L18,70 L15,77 L10,85 L5,98 L-4,115 L-8,124 L-17,143 L-22,151 L-30,167 L-34,177 L-39,190 L-41,196 L-45,207 L-47,214 L-46,221 L-43,226 L-36,227 L-28,217 L-23,209 L-18,196 L-14,188 L-6,169 L-2,160 L7,144 L10,137 L13,131 L17,124 L21,115 L30,96 L41,73 L52,50 L55,43 L58,34 L63,26 L70,25 L80,31 L89,41 L93,46 L93,52 L83,68 L78,74 L73,84 L66,94 L59,105 L51,118 L47,128 L40,141 L32,155 L28,160 L21,174 L14,184 L6,198 L-2,212 L-12,230 L-20,240 L-24,247 L-24,254 L-20,262 L-15,263 L-9,259 L-3,251 L3,243 L11,230 L19,219 L25,210 L35,194 L43,178 L57,152 L61,147 L68,134 L74,125 L78,117 L84,108 L89,99 L94,92 L98,82 L105,71 L109,70 L115,77 L119,84 L123,101 L125,106 L125,122 L119,130 L111,140 L101,153 L93,163 L89,169 L87,169 L85,174 L79,182 L73,189 L63,202 L52,215 L45,223 L34,237 L24,247 L17,255 L5,268 L-2,276 L-8,283 L-9,285 L-9,295 L-7,299 L-2,302 L3,301 L12,294 L20,284 L29,273 L41,259 L45,254 L50,249 L57,241 L66,229 L75,218 L84,208 L91,200 L99,189 L107,179 L117,169 L128,155 L132,154 L135,158 L135,193 L134,211 L131,223 L126,229 L111,239 L103,245 L97,248 L93,253 L83,259 L73,267 L60,277 L50,283 L40,291 L32,297 L22,304 L8,314 L6,317 L5,324 L6,328 L9,329 L19,329 L25,326 L35,319 L47,310 L56,304 L67,296 L77,289 L87,283 L98,274 L109,268 L114,264 L119,260 L124,260 L125,264 L121,283 L117,294 L113,300 L107,305 L86,313 L76,317 L60,325 L39,334 L32,339 L21,344 L10,351 L9,353 L9,363 L10,365 L14,366 L31,361 L50,355 L55,352 L63,349 L73,344 L83,340 L96,333 L101,333 L103,335 L103,342 L97,360 L93,368 L88,372 L71,373 L69,374 L57,375 L53,377 L37,379 L27,379 L17,382 L12,388 L12,395 L18,397 L28,398 L45,398 L67,396 L75,395 L79,397 L80,399 L80,406 L77,412 L73,415 L48,414 L26,413 L15,415 L10,423 L4,423 L8,427 L16,427 L21,429 L35,431 L43,433 L56,435 L62,439 L62,451 L54,466 L52,470 L50,486 L47,489 L42,489 L33,482 L23,473 L14,466 L8,464 L0,464 L-2,468 L-4,472 L-4,479 L1,485 L10,492 L20,499 L26,504 L30,508 L35,513 L40,518 L43,524 L42,528 L38,529 L32,525 L24,518 L13,509 L2,502 L-5,497 L-11,496 L-17,499 L-21,506 L-21,515 L-13,523 L-7,526 L1,534 L13,543 L18,549 L26,556 L33,566 L33,573 L31,575 L25,574 L16,564 L16,562 L12,560 L1,553 L-9,543 L-20,536 L-30,531 L-36,531 L-42,536 L-46,544 L-45,553 L-44,556 L-40,558 L-32,564 L-19,576 L-7,587 L3,596 L9,601 L14,606 L18,611 L19,613 L19,619 L17,622 L12,621 L3,614 L-1,610 L-6,606 L-6,604 L-10,602 L-19,592 L-27,585 L-36,578 L-45,572 L-58,565 L-64,565 L-69,568 L-74,576 L-72,583 L-67,588 L-57,596 L-50,603 L-45,608 L-35,617 L-23,629 L-16,637 L-12,642 L-3,657 L-1,663 L-2,670 L-7,671 L-18,658 L-25,650 L-30,644 L-38,637 L-43,631 L-51,625 L-60,624 L-69,630 L-85,638 L-96,642 L-100,645 L-107,649 L-111,654 L-114,664 L-117,693 L-117,711 L-114,722 L-110,727 L-93,732 L-88,735 L-88,739 L-92,740 L-108,738 L-115,738 L-127,744 L-135,750 L-141,753 L-151,762 L-155,765 L-159,765 L-158,761 L-154,754 L-151,749 L-150,747 L-150,741 L-152,739 L-159,739 L-169,742 L-174,742 L-175,739 L-157,728 L-149,721 L-147,717 L-147,709 L-152,704 L-156,702 L-168,701 L-171,700 L-179,700 L-189,703 L-200,710 L-207,712 L-216,707 L-217,706 L-224,706 L-230,708 L-232,704 L-224,699 L-213,696 L-202,691 L-197,686 L-193,667 L-192,653 L-194,649 L-199,647 L-223,647 L-241,646 L-255,643 L-272,637 L-284,631 L-295,625 L-306,616 L-313,610 L-326,600 L-341,584 L-348,577 L-356,570 L-365,562 L-374,555 L-383,548 L-394,539 L-402,534 L-412,527 L-421,521 L-434,510 L-439,506 L-446,498 L-453,491 L-460,479 L-467,464 L-472,452 L-474,443 L-475,441 L-478,420 L-479,396 L-479,385 L-482,377 L-486,373 L-496,367 L-502,359 L-505,350 L-505,341 L-502,316 L-499,305 L-495,291 L-489,275 L-479,256 L-467,239 L-461,230 L-455,223 L-448,213 L-441,203 L-432,188 L-426,181 L-418,165 L-416,160 L-417,154 L-419,151 L-426,148 L-427,147 L-427,140 L-420,133 L-408,126 L-401,120 L-393,107 L-387,97 L-373,88 L-357,80 L-340,73 L-328,67 L-309,67 L-300,69 L-291,74 L-283,82 L-277,91 L-274,100 L-274,113 L-280,133 L-284,143 L-287,149 L-296,160 L-308,171 L-313,177 L-315,177 L-316,180 L-326,187 L-331,192 L-336,197 L-349,209 L-354,216 L-358,220 L-365,230 L-372,244 L-378,259 L-384,278 L-386,290 L-387,296 L-387,304 L-384,312 L-380,314 L-372,314 L-364,309 L-350,294 L-347,293 L-345,289 L-339,282 L-334,277 L-328,266 L-311,249 L-306,244 L-294,231 L-287,225 L-273,215 L-265,211 L-260,207 L-250,201 L-230,190 L-210,182 L-186,177 L-179,175 L-174,172 L-172,165 L-170,151 L-168,147 L-164,148 L-162,155 L-159,168 L-155,171 L-150,169 L-148,165 L-147,159 L-146,130 L-147,115 L-148,105 L-146,93 L-138,77 L-134,75 L-132,77 L-132,88 L-135,110 L-135,168 L-132,174 L-126,175 L-122,171 L-120,163 L-118,130 L-114,86 L-112,71 L-110,47 L-108,39 L-98,29 L-93,26 L-88,27 L-88,38 L-91,59 L-95,79 L-97,95 L-102,118 L-103,137 L-107,161 L-107,178 L-102,183 L-95,182 L-92,177 L-89,167 L-85,143 L-80,115 L-76,85 L-72,67 L-70,52 L-68,42 L-65,16 L-62,11 L-55,4 L-47,4 L-36,1 L-31,1 L-29,3 L-30,14 L-35,32 L-38,41 L-45,64 L-50,69 L-52,70 L-51,74 L-49,76 L-50,85 L-53,97 L-57,108 L-59,117 L-63,128 L-74,161 L-78,175 L-79,180 L-79,190 L-74,196 L-72,197 L-66,197 L-61,192 L-57,184 L-50,163 L-47,153 L-45,143 L-38,115 L-33,97 L-27,79 L-23,65 L-21,55 L-15,39 L-9,18 L-6,8 L-2,1 Z M-346,94 L-354,98 L-360,105 L-360,112 L-355,117 L-348,116 L-340,111 L-337,108 L-337,101 L-341,95 Z M-117,277 L-120,280 L-119,283 L-115,283 L-114,279 Z M-138,303 L-140,305 L-139,312 L-137,314 L-133,313 L-132,312 L-133,305 L-135,303 Z M-167,649 L-172,654 L-174,670 L-173,685 L-170,692 L-165,696 L-153,699 L-145,699 L-139,696 L-136,691 L-133,683 L-131,670 L-131,658 L-134,654 L-146,651 L-158,650 L-160,649 Z " fill="#000000" transform="translate(541,36)"/>
</svg>
