<?xml version="1.0" encoding="UTF-8"?>
<!-- Generator: visioncortex VTracer 0.6.12 -->
<svg version="1.1" xmlns="http://www.w3.org/2000/svg" width="432" height="1167">
<path d="M0,0 L12,0 L29,7 L43,15 L56,25 L58,29 L62,31 L70,39 L70,41 L74,43 L78,46 L85,49 L92,49 L99,46 L111,43 L129,36 L137,33 L160,25 L182,17 L191,17 L195,22 L198,32 L199,48 L196,60 L190,69 L181,77 L171,84 L157,91 L137,98 L130,101 L128,104 L129,111 L132,121 L133,131 L133,148 L131,158 L126,170 L120,180 L112,190 L102,197 L90,204 L77,208 L63,210 L56,210 L36,205 L25,199 L14,191 L6,183 L-4,166 L-8,158 L-10,153 L-12,152 L-19,152 L-36,158 L-48,161 L-55,163 L-72,165 L-86,165 L-97,161 L-109,150 L-114,143 L-118,132 L-118,126 L-113,122 L-94,115 L-64,105 L-44,97 L-31,93 L-15,87 L-12,84 L-12,74 L-15,60 L-18,47 L-18,14 L-14,8 L-3,1 Z M100,110 L84,116 L67,121 L51,127 L41,131 L26,136 L16,142 L13,146 L13,153 L17,163 L27,176 L39,184 L53,189 L68,189 L79,187 L89,182 L98,176 L106,167 L112,157 L114,150 L115,140 L112,120 L108,112 L104,110 Z " fill="#000000" transform="translate(157,30)"/>
<path d="M0,0 L50,1 L76,2 L87,6 L96,13 L100,18 L106,30 L112,48 L115,68 L116,132 L116,172 L118,181 L120,183 L125,184 L162,184 L165,182 L166,179 L167,146 L167,119 L169,109 L174,104 L168,100 L167,89 L168,70 L170,58 L175,43 L183,27 L189,18 L200,8 L209,4 L213,3 L245,3 L286,4 L303,9 L309,13 L317,21 L321,29 L324,43 L325,60 L325,93 L324,153 L324,256 L323,321 L322,329 L320,380 L316,400 L309,417 L305,426 L297,436 L290,444 L281,451 L272,457 L270,462 L267,483 L265,507 L263,527 L261,547 L259,573 L256,612 L252,652 L251,673 L251,703 L252,723 L250,730 L247,736 L247,742 L253,748 L254,753 L252,760 L251,761 L251,770 L259,777 L261,781 L260,787 L258,790 L258,795 L268,803 L272,808 L271,813 L269,818 L269,825 L274,827 L287,834 L295,843 L299,852 L299,858 L297,859 L205,859 L109,858 L34,858 L-11,857 L-14,855 L-14,848 L-9,839 L-1,832 L7,827 L7,821 L6,814 L10,809 L20,807 L21,806 L21,800 L18,794 L19,789 L28,783 L27,777 L24,773 L25,766 L36,760 L37,754 L31,743 L29,739 L29,725 L31,707 L32,695 L32,657 L31,651 L30,630 L28,616 L27,598 L26,593 L21,526 L19,513 L19,504 L17,494 L16,477 L14,461 L9,449 L-7,441 L-18,433 L-26,426 L-34,414 L-41,400 L-44,391 L-49,363 L-50,350 L-50,129 L-49,46 L-43,27 L-36,15 L-27,6 L-17,2 L-13,1 Z M211,82 L200,89 L185,97 L185,99 L192,98 L202,94 L214,90 L218,86 L217,82 Z M193,156 L190,157 L188,160 L188,166 L191,170 L199,171 L202,168 L202,160 L199,157 Z M87,160 L84,163 L83,169 L86,174 L90,175 L95,172 L96,166 L93,161 Z M84,199 L82,201 L82,207 L86,212 L92,212 L96,208 L97,205 L95,202 L88,199 Z M190,199 L187,202 L188,209 L190,211 L197,212 L201,209 L200,202 L196,199 Z M143,203 L136,206 L129,206 L120,208 L116,213 L115,229 L116,249 L120,255 L122,256 L157,257 L162,255 L165,251 L167,223 L167,216 L165,210 L163,208 L151,206 L145,203 Z M85,237 L82,241 L83,247 L87,251 L92,250 L94,248 L94,239 L92,237 Z M194,242 L187,246 L188,253 L195,254 L200,249 L200,243 L199,242 Z M-23,352 L-29,355 L-30,362 L-28,377 L-25,387 L-17,403 L-9,415 L-5,419 L0,422 L2,424 L8,424 L11,419 L9,392 L7,384 L6,374 L5,372 L5,362 L-4,359 L-7,355 Z M285,353 L280,356 L278,358 L275,382 L274,402 L274,419 L276,421 L283,420 L292,411 L302,392 L304,384 L305,370 L305,356 L300,353 Z M142,450 L142,453 L145,452 L145,450 Z M145,459 L146,463 L149,463 L149,460 Z M133,463 L130,476 L127,500 L125,528 L125,551 L124,580 L125,605 L127,630 L129,636 L129,650 L131,668 L138,693 L140,702 L144,703 L147,700 L151,674 L154,660 L156,637 L157,632 L159,592 L160,564 L160,547 L159,538 L158,513 L156,495 L153,483 L152,476 L146,472 L142,467 L137,463 Z " fill="#000000" transform="translate(81,241)"/>
</svg>
