<?xml version="1.0" encoding="UTF-8"?>
<!-- Generator: visioncortex VTracer 0.6.12 -->
<svg version="1.1" xmlns="http://www.w3.org/2000/svg" width="2460" height="1188">
<path d="M0,0 L191,0 L188,2 L151,3 L19,5 L0,5 Z " fill="#000000" transform="translate(0,0)"/>
<path d="M0,0 L20,0 L29,3 L38,10 L45,16 L53,31 L56,37 L62,57 L67,69 L76,96 L80,103 L80,105 L91,107 L100,106 L111,101 L118,101 L121,105 L122,112 L119,117 L111,122 L99,126 L89,127 L85,131 L82,148 L80,159 L76,168 L66,184 L58,192 L42,202 L21,209 L15,210 L1,210 L-13,207 L-25,202 L-33,196 L-40,192 L-48,184 L-54,173 L-59,165 L-63,146 L-65,133 L-71,131 L-85,128 L-95,125 L-105,120 L-107,117 L-107,111 L-103,106 L-99,104 L-90,106 L-88,107 L-74,109 L-65,110 L-60,108 L-53,97 L-49,90 L-43,74 L-36,57 L-29,40 L-26,30 L-21,18 L-12,7 L-3,1 Z M-7,127 L-37,129 L-43,133 L-45,137 L-45,146 L-41,159 L-37,166 L-28,177 L-17,185 L-4,190 L4,191 L17,191 L29,188 L41,181 L50,174 L56,165 L63,149 L64,145 L64,132 L62,128 L60,127 Z " fill="#000000" transform="translate(215,31)"/>
<path d="M0,0 L12,1 L24,5 L42,8 L55,12 L72,21 L80,25 L90,33 L102,41 L109,48 L116,52 L124,60 L131,63 L170,64 L187,67 L197,71 L202,76 L202,82 L198,85 L193,86 L173,87 L153,91 L147,95 L145,98 L145,122 L143,138 L139,151 L129,167 L118,180 L109,187 L99,193 L88,198 L69,203 L50,203 L33,200 L22,195 L15,190 L10,185 L5,181 L-4,170 L-10,161 L-16,148 L-21,136 L-26,132 L-34,130 L-49,128 L-62,124 L-72,118 L-80,111 L-88,105 L-94,96 L-95,89 L-92,85 L-85,85 L-72,89 L-60,93 L-50,95 L-40,96 L-28,95 L-23,90 L-18,53 L-17,43 L-15,35 L-11,15 L-7,5 L-3,1 Z M104,99 L89,104 L68,113 L52,117 L40,121 L14,126 L8,129 L7,130 L7,140 L15,157 L20,163 L28,169 L43,176 L53,179 L76,178 L88,173 L104,162 L112,152 L117,142 L121,127 L121,112 L118,103 L112,99 Z " fill="#000000" transform="translate(1365,102)"/>
<path d="M0,0 L7,0 L12,5 L18,14 L22,25 L29,40 L33,48 L36,58 L44,74 L52,90 L61,110 L66,120 L81,145 L85,155 L90,164 L98,180 L108,199 L113,208 L120,216 L135,223 L151,230 L182,243 L198,250 L212,255 L224,260 L233,263 L251,265 L267,271 L283,280 L290,287 L293,292 L298,305 L303,318 L306,330 L305,343 L302,353 L302,359 L306,365 L315,373 L323,380 L330,387 L338,394 L351,405 L360,413 L368,419 L381,430 L394,441 L405,450 L405,452 L407,452 L407,454 L411,456 L426,470 L437,479 L448,489 L456,496 L466,505 L477,512 L477,514 L479,514 L483,518 L483,520 L487,522 L501,534 L509,540 L524,554 L538,566 L547,574 L557,581 L566,591 L571,594 L586,598 L601,601 L622,608 L633,612 L657,621 L670,625 L683,630 L691,633 L718,642 L729,646 L742,651 L756,657 L766,660 L785,670 L803,678 L827,689 L842,697 L851,702 L874,715 L885,721 L906,733 L923,741 L936,750 L949,758 L958,764 L982,778 L995,786 L1010,796 L1021,803 L1034,813 L1053,826 L1065,836 L1076,845 L1084,852 L1092,859 L1104,870 L1104,875 L1101,877 L1096,878 L1064,879 L1008,880 L1002,881 L989,881 L958,884 L881,885 L833,886 L786,886 L767,887 L744,887 L716,888 L653,888 L616,890 L550,890 L502,891 L490,892 L435,893 L432,894 L340,894 L341,887 L350,877 L361,863 L374,847 L384,832 L392,818 L402,799 L410,784 L421,761 L428,741 L435,711 L437,697 L438,665 L433,644 L425,621 L422,614 L418,609 L406,601 L387,589 L387,587 L383,585 L375,579 L361,570 L347,560 L335,552 L322,543 L311,536 L300,528 L290,521 L275,511 L265,504 L254,497 L243,489 L228,480 L216,472 L211,468 L193,457 L182,450 L172,445 L165,440 L157,438 L141,438 L128,434 L120,435 L118,439 L116,454 L113,461 L108,465 L104,466 L94,466 L83,464 L78,461 L75,453 L75,433 L80,414 L78,403 L71,392 L65,385 L56,374 L49,367 L42,359 L41,356 L37,354 L30,345 L19,334 L13,327 L8,322 L-2,313 L-14,302 L-19,301 L-24,302 L-26,306 L-30,311 L-40,330 L-48,346 L-56,363 L-56,374 L-50,392 L-39,418 L-34,430 L-25,451 L-15,473 L-10,486 L-2,502 L7,526 L14,540 L19,553 L23,559 L26,567 L33,583 L38,599 L48,622 L52,633 L56,642 L60,650 L73,681 L78,693 L84,704 L88,716 L101,745 L109,766 L116,782 L125,802 L131,815 L136,827 L140,836 L149,857 L154,869 L159,882 L161,889 L161,894 L7,894 L2,878 L-4,862 L-11,842 L-15,833 L-25,810 L-29,798 L-39,776 L-43,768 L-54,737 L-58,727 L-62,716 L-70,695 L-76,679 L-85,656 L-93,633 L-99,617 L-105,602 L-108,594 L-115,576 L-121,562 L-126,549 L-130,542 L-133,533 L-135,530 L-140,529 L-145,534 L-150,542 L-158,557 L-162,565 L-167,575 L-170,581 L-182,603 L-186,611 L-194,628 L-202,644 L-212,663 L-221,680 L-231,699 L-238,713 L-242,721 L-250,738 L-259,755 L-266,767 L-274,783 L-285,802 L-289,810 L-297,824 L-307,844 L-314,857 L-323,874 L-331,890 L-333,894 L-500,894 L-499,889 L-490,870 L-482,856 L-473,836 L-467,826 L-462,816 L-454,802 L-444,783 L-434,765 L-426,749 L-416,731 L-412,723 L-404,707 L-392,684 L-389,677 L-381,661 L-374,649 L-367,635 L-358,618 L-352,606 L-349,601 L-341,585 L-331,566 L-323,550 L-316,538 L-309,522 L-299,503 L-295,497 L-287,481 L-279,465 L-271,450 L-263,433 L-258,425 L-248,404 L-239,387 L-236,381 L-232,374 L-221,353 L-213,337 L-208,327 L-205,322 L-202,314 L-192,295 L-182,276 L-172,257 L-164,241 L-157,227 L-147,208 L-140,193 L-136,186 L-132,176 L-128,170 L-120,154 L-112,142 L-106,131 L-98,115 L-86,93 L-75,76 L-69,66 L-61,56 L-57,49 L-49,40 L-42,32 L-29,20 L-20,12 Z M213,288 L208,291 L201,301 L200,308 L206,316 L209,317 L211,321 L222,333 L228,336 L237,336 L253,332 L266,331 L272,328 L276,323 L276,313 L270,302 L263,296 L256,293 L239,290 L232,288 Z M117,303 L115,305 L116,310 L124,319 L131,327 L139,333 L153,342 L166,344 L176,344 L180,341 L182,336 L181,329 L174,325 L159,319 L152,314 L137,308 L126,305 L121,303 Z M228,359 L224,361 L218,374 L216,382 L215,400 L221,420 L225,429 L229,434 L245,445 L251,449 L262,456 L271,462 L290,475 L309,489 L321,496 L335,506 L350,516 L365,526 L376,533 L387,540 L400,550 L409,556 L426,568 L437,575 L452,585 L461,590 L471,590 L485,588 L490,585 L491,578 L485,570 L475,561 L462,551 L459,550 L458,547 L450,540 L439,530 L429,523 L425,519 L417,513 L405,502 L396,496 L387,488 L382,483 L377,481 L377,479 L366,470 L357,461 L348,454 L338,445 L330,439 L320,430 L312,424 L307,419 L293,408 L285,401 L269,389 L262,382 L253,375 L242,366 L235,360 Z M120,364 L111,369 L101,378 L97,384 L96,390 L100,396 L110,401 L132,408 L147,414 L169,418 L179,419 L187,417 L190,414 L189,400 L183,384 L178,377 L169,371 L159,368 L133,364 Z " fill="#000000" transform="translate(1346,294)"/>
<path d="M0,0 L5,1 L13,8 L20,16 L28,21 L37,22 L64,22 L103,23 L113,27 L122,33 L130,40 L136,67 L136,130 L135,185 L135,375 L134,439 L134,453 L130,475 L125,490 L118,503 L111,512 L103,518 L101,518 L101,520 L86,530 L84,535 L83,666 L83,829 L82,851 L79,857 L74,859 L-30,861 L-46,861 L-51,858 L-52,856 L-52,681 L-51,651 L-51,519 L-53,513 L-58,512 L-70,515 L-73,520 L-74,528 L-74,768 L-75,818 L-75,839 L-76,855 L-80,860 L-90,862 L-139,863 L-195,863 L-206,862 L-211,859 L-212,857 L-213,847 L-213,756 L-214,725 L-214,618 L-215,548 L-218,542 L-228,536 L-239,527 L-248,512 L-251,505 L-255,484 L-257,465 L-257,296 L-256,184 L-256,80 L-253,55 L-246,41 L-241,36 L-231,29 L-226,27 L-211,26 L-146,24 L-138,19 L-128,9 L-126,8 L-119,8 L-106,18 L-98,25 L-87,36 L-77,44 L-73,49 L-73,51 L-68,53 L-64,55 L-58,55 L-50,49 L-46,44 L-41,39 L-36,34 L-28,27 L-15,14 L-12,9 L-6,5 L-2,1 Z M-3,26 L-8,29 L-11,32 L-11,34 L-14,35 L-14,37 L-18,39 L-21,43 L-20,50 L-17,52 L-11,51 L2,38 L4,33 L3,28 Z M-122,32 L-126,36 L-127,41 L-123,47 L-114,55 L-107,56 L-102,51 L-102,45 L-107,38 L-115,32 Z M83,42 L58,43 L54,47 L53,49 L52,112 L51,119 L47,122 L32,122 L28,118 L27,113 L26,97 L25,52 L22,47 L19,45 L12,46 L2,54 L-8,64 L-13,67 L-22,66 L-34,59 L-40,60 L-45,65 L-52,71 L-52,73 L-56,75 L-64,76 L-73,69 L-83,60 L-90,59 L-96,63 L-105,71 L-107,72 L-113,72 L-116,71 L-118,67 L-125,61 L-130,56 L-138,49 L-144,48 L-148,50 L-150,58 L-151,79 L-151,121 L-153,126 L-155,128 L-159,129 L-170,129 L-176,127 L-178,124 L-179,110 L-179,93 L-180,51 L-184,46 L-209,45 L-221,48 L-227,53 L-231,64 L-233,76 L-232,123 L-232,421 L-230,434 L-226,438 L-218,437 L-214,430 L-206,399 L-202,375 L-199,362 L-192,347 L-187,323 L-181,290 L-179,281 L-179,175 L-178,149 L-175,144 L-173,143 L-161,143 L-153,145 L-151,149 L-150,182 L-150,194 L-149,204 L-150,240 L-149,284 L-148,296 L-144,315 L-141,322 L-137,344 L-134,354 L-129,359 L-125,361 L-73,362 L-67,361 L-23,360 L-5,359 L2,357 L5,354 L10,342 L15,327 L19,315 L22,303 L26,285 L27,170 L29,145 L32,140 L39,138 L48,139 L51,144 L52,157 L53,202 L53,288 L55,302 L60,325 L66,352 L71,371 L74,396 L79,422 L82,432 L85,435 L88,436 L103,436 L109,433 L112,428 L113,412 L113,374 L114,288 L114,248 L115,178 L114,122 L115,98 L115,65 L111,55 L106,49 L98,44 L88,42 Z M-167,304 L-170,307 L-172,313 L-174,325 L-176,334 L-176,341 L-170,346 L-157,343 L-154,341 L-154,333 L-160,307 L-164,304 Z M36,315 L33,318 L27,338 L23,349 L23,355 L26,358 L29,359 L41,359 L46,356 L48,351 L46,335 L42,317 L40,315 Z M91,459 L85,463 L84,466 L83,487 L85,497 L86,498 L92,498 L97,493 L100,490 L108,473 L109,463 L105,459 Z M-227,462 L-232,465 L-233,467 L-233,482 L-229,499 L-224,507 L-223,508 L-218,508 L-216,506 L-215,491 L-215,469 L-218,464 L-222,462 Z " fill="#000000" transform="translate(288,237)"/>
<path d="M0,0 L6,1 L9,4 L9,12 L4,17 L-3,18 L-7,15 L-8,8 L-2,1 Z " fill="#000000" transform="translate(228,398)"/>
<path d="M0,0 L7,0 L12,5 L12,12 L9,15 L7,16 L1,16 L-4,12 L-4,4 Z " fill="#000000" transform="translate(223,498)"/>
<path d="M0,0 L4,0 L4,3 L0,3 Z " fill="#000000" transform="translate(392,770)"/>
<path d="M0,0 L10,2 L14,7 L13,22 L11,40 L9,47 L7,68 L5,81 L-135,81 L-135,11 L-132,6 L-121,2 L-112,3 L-67,2 L-41,2 L-28,1 L-7,1 Z " fill="#000000" transform="translate(371,1107)"/>
<path d="M0,0 L9,0 L16,2 L20,8 L21,26 L21,77 L-120,77 L-123,58 L-125,36 L-126,31 L-127,13 L-125,6 L-120,3 L-96,2 L-53,1 Z " fill="#000000" transform="translate(194,1111)"/>
</svg>
