<?xml version="1.0" encoding="UTF-8"?>
<!-- Generator: visioncortex VTracer 0.6.12 -->
<svg version="1.1" xmlns="http://www.w3.org/2000/svg" width="1164" height="1230">
<path d="M0,0 L27,1 L97,2 L171,3 L185,4 L198,4 L221,3 L238,3 L252,4 L311,4 L356,6 L463,6 L477,5 L501,5 L511,6 L515,5 L547,6 L577,6 L634,7 L663,8 L685,8 L693,7 L698,8 L717,8 L720,9 L835,9 L901,10 L1004,10 L1033,13 L1037,17 L1038,20 L1039,50 L1041,60 L1041,74 L1039,78 L1038,148 L1037,210 L1037,262 L1038,304 L1039,319 L1038,368 L1039,428 L1042,436 L1042,444 L1039,455 L1039,803 L1037,939 L1037,959 L1036,983 L1035,1061 L1034,1069 L1033,1107 L1031,1112 L1022,1115 L983,1114 L962,1114 L947,1113 L877,1113 L859,1112 L752,1112 L744,1113 L731,1113 L726,1112 L663,1112 L639,1111 L611,1111 L584,1110 L569,1111 L556,1111 L546,1110 L511,1110 L474,1109 L466,1109 L458,1108 L386,1108 L350,1107 L285,1107 L279,1106 L224,1106 L216,1105 L182,1105 L145,1103 L129,1103 L118,1104 L97,1104 L93,1103 L24,1103 L11,1104 L-7,1104 L-10,1103 L-47,1102 L-51,1101 L-51,1089 L-15,1090 L21,1090 L74,1092 L110,1092 L140,1093 L162,1092 L186,1093 L214,1094 L247,1093 L300,1095 L333,1096 L367,1097 L396,1097 L422,1098 L482,1099 L640,1099 L690,1100 L783,1101 L856,1101 L925,1102 L975,1102 L1011,1103 L1018,1100 L1020,1093 L1020,1054 L1022,1000 L1021,984 L1020,980 L1020,958 L1022,936 L1023,902 L1023,865 L1024,811 L1024,779 L1025,708 L1025,407 L1024,387 L1024,315 L1023,305 L1022,242 L1022,158 L1018,147 L1010,143 L962,142 L938,142 L861,141 L794,140 L738,140 L671,139 L567,139 L551,138 L539,139 L513,139 L410,138 L403,139 L385,139 L376,138 L370,139 L361,138 L54,138 L39,139 L2,138 L-8,138 L-10,137 L-23,137 L-34,133 L-51,131 L-51,2 L-12,1 Z M953,16 L951,18 L951,31 L956,32 L958,29 L957,19 L954,16 Z M770,122 L770,126 L774,125 L773,122 Z " fill="#000000" transform="translate(51,35)"/>
<path d="M0,0 L67,0 L71,3 L74,66 L76,70 L80,72 L137,72 L141,68 L143,52 L144,26 L144,9 L147,3 L151,0 L277,0 L305,1 L405,1 L415,0 L427,1 L467,2 L635,2 L646,3 L712,3 L733,4 L766,4 L772,5 L795,6 L801,9 L804,13 L803,26 L800,30 L789,33 L744,33 L671,32 L652,31 L648,32 L627,33 L610,31 L599,32 L547,31 L426,31 L332,30 L264,30 L254,31 L239,30 L181,31 L175,34 L173,37 L172,48 L172,107 L171,160 L171,219 L173,230 L179,231 L202,231 L214,232 L291,232 L309,233 L364,233 L370,236 L377,235 L378,234 L450,233 L473,234 L483,234 L491,235 L498,234 L546,235 L559,234 L569,234 L575,235 L640,235 L649,236 L654,235 L661,235 L664,236 L692,236 L763,237 L789,237 L796,238 L797,239 L797,255 L796,262 L793,264 L767,265 L757,264 L648,264 L644,263 L624,263 L612,264 L603,263 L576,263 L561,262 L469,262 L458,263 L453,262 L435,261 L289,261 L286,260 L207,260 L156,259 L146,259 L143,255 L142,249 L141,196 L140,193 L135,190 L85,190 L76,192 L72,196 L71,233 L70,253 L66,259 L61,260 L41,259 L9,259 L2,260 L-7,257 L-10,252 L-9,242 L-8,139 L-7,95 L-6,26 L-7,8 L-3,2 Z " fill="#000000" transform="translate(263,483)"/>
<path d="M0,0 L16,0 L25,4 L33,10 L41,18 L47,32 L47,50 L43,62 L36,72 L26,80 L13,85 L0,85 L-13,81 L-22,75 L-31,65 L-35,57 L-37,51 L-38,40 L-36,31 L-32,22 L-26,13 L-18,6 L-9,1 Z " fill="#000000" transform="translate(436,830)"/>
<path d="M0,0 L9,0 L18,1 L29,7 L38,14 L46,28 L48,35 L48,49 L46,58 L40,68 L35,74 L25,81 L18,85 L-3,85 L-15,79 L-25,70 L-32,61 L-34,55 L-35,48 L-35,35 L-33,28 L-28,18 L-21,10 L-13,4 Z " fill="#000000" transform="translate(547,830)"/>
<path d="M0,0 L17,3 L27,9 L34,15 L40,23 L44,36 L45,49 L42,59 L39,65 L33,73 L25,80 L17,84 L3,87 L-3,86 L-13,83 L-21,79 L-31,69 L-38,56 L-41,46 L-39,33 L-36,26 L-31,17 L-23,10 L-14,5 L-3,1 Z " fill="#000000" transform="translate(662,831)"/>
<path d="M0,0 L18,0 L30,6 L37,11 L44,21 L49,31 L49,50 L45,62 L35,75 L27,81 L16,84 L-2,84 L-18,77 L-26,68 L-32,58 L-35,50 L-35,31 L-26,14 L-20,9 L-18,9 L-18,7 L-10,2 Z " fill="#000000" transform="translate(773,834)"/>
<path d="M0,0 L14,0 L23,2 L35,11 L43,20 L46,26 L48,37 L48,50 L45,61 L39,70 L31,78 L15,85 L-1,85 L-13,81 L-21,75 L-29,68 L-35,56 L-36,52 L-36,32 L-31,21 L-25,13 L-16,6 L-7,2 Z " fill="#000000" transform="translate(887,834)"/>
<path d="M0,0 L11,0 L23,3 L35,9 L40,14 L44,19 L49,29 L51,41 L51,50 L47,61 L40,71 L32,78 L21,83 L15,85 L5,85 L-11,81 L-20,74 L-26,67 L-30,60 L-34,49 L-34,38 L-31,24 L-23,14 L-21,11 L-19,11 L-18,8 L-6,2 Z " fill="#000000" transform="translate(998,836)"/>
<path d="M0,0 L12,0 L25,4 L31,7 L40,17 L44,23 L48,39 L47,54 L43,65 L33,77 L18,85 L3,86 L-6,85 L-20,77 L-29,68 L-35,55 L-36,51 L-36,35 L-34,27 L-28,17 L-22,10 L-16,6 L-6,1 Z " fill="#000000" transform="translate(491,920)"/>
<path d="M0,0 L13,1 L27,6 L37,17 L44,33 L44,54 L38,69 L34,71 L32,75 L23,81 L11,85 L-8,85 L-20,79 L-30,70 L-37,59 L-39,51 L-39,42 L-37,25 L-29,14 L-20,6 L-11,2 Z " fill="#000000" transform="translate(607,921)"/>
<path d="M0,0 L15,0 L23,2 L35,9 L43,19 L47,27 L49,32 L50,46 L46,61 L40,70 L32,78 L22,83 L21,84 L12,85 L2,85 L-10,82 L-19,76 L-28,66 L-35,55 L-36,46 L-36,37 L-34,29 L-30,20 L-22,10 L-19,7 L-6,1 Z " fill="#000000" transform="translate(716,923)"/>
<path d="M0,0 L17,1 L29,5 L32,7 L32,9 L36,11 L41,16 L48,26 L52,36 L52,48 L48,62 L40,73 L33,79 L18,85 L5,86 L-3,84 L-16,78 L-22,73 L-29,63 L-33,55 L-35,45 L-34,34 L-30,24 L-20,11 L-14,6 L-9,3 Z " fill="#000000" transform="translate(827,923)"/>
<path d="M0,0 L17,0 L28,4 L34,9 L42,16 L47,23 L51,39 L51,51 L48,61 L44,69 L36,76 L33,79 L21,84 L16,85 L0,85 L-12,80 L-20,75 L-29,65 L-34,51 L-34,34 L-30,23 L-24,14 L-14,6 L-6,1 Z " fill="#000000" transform="translate(941,926)"/>
<path d="M0,0 L7,0 L8,5 L5,11 L4,20 L5,28 L8,36 L9,52 L9,76 L7,83 L5,85 L-3,84 L-16,79 L-27,70 L-35,56 L-37,51 L-37,36 L-33,24 L-27,14 L-18,6 L-6,1 Z " fill="#000000" transform="translate(1057,927)"/>
<path d="M0,0 L17,1 L27,5 L40,17 L44,22 L46,27 L48,41 L47,52 L45,60 L41,68 L33,77 L17,85 L12,86 L-2,85 L-13,81 L-22,74 L-29,68 L-35,57 L-37,46 L-37,35 L-34,25 L-25,11 L-15,5 L-9,2 Z " fill="#000000" transform="translate(434,1011)"/>
<path d="M0,0 L8,0 L24,7 L33,15 L40,25 L43,33 L44,48 L42,57 L38,66 L32,74 L23,81 L14,86 L11,87 L-5,87 L-17,82 L-28,74 L-36,63 L-41,51 L-41,38 L-37,26 L-30,14 L-25,10 L-13,3 Z " fill="#000000" transform="translate(551,1010)"/>
<path d="M0,0 L12,0 L24,1 L39,10 L47,21 L52,31 L54,46 L51,58 L45,70 L35,79 L22,84 L13,86 L2,85 L-10,80 L-21,72 L-27,63 L-31,54 L-32,51 L-32,31 L-23,14 L-19,9 L-9,3 Z " fill="#000000" transform="translate(653,1012)"/>
<path d="M0,0 L8,0 L21,3 L29,9 L35,14 L41,24 L44,30 L44,54 L36,70 L31,75 L23,81 L7,85 L-5,85 L-15,81 L-24,76 L-31,69 L-38,58 L-40,47 L-40,32 L-35,20 L-27,11 L-17,4 L-7,1 Z " fill="#000000" transform="translate(777,1014)"/>
<path d="M0,0 L13,4 L19,8 L30,19 L36,32 L36,53 L32,62 L26,72 L18,79 L7,84 L1,86 L-13,86 L-26,81 L-37,73 L-44,65 L-48,56 L-49,45 L-48,29 L-42,18 L-32,9 L-22,3 L-16,1 Z " fill="#000000" transform="translate(897,1014)"/>
<path d="M0,0 L21,0 L36,8 L44,15 L50,27 L52,33 L52,50 L49,60 L41,72 L32,79 L20,84 L5,84 L-7,81 L-16,76 L-26,67 L-32,53 L-34,37 L-31,26 L-26,18 L-20,10 L-10,3 Z " fill="#000000" transform="translate(995,1017)"/>
</svg>
