<?xml version="1.0" encoding="UTF-8"?>
<!-- Generator: visioncortex VTracer 0.6.12 -->
<svg version="1.1" xmlns="http://www.w3.org/2000/svg" width="1110" height="1098">
<path d="M0,0 L1110,0 L1110,1098 L0,1098 Z M849,78 L847,79 L845,85 L846,92 L849,96 L853,96 L852,91 L851,89 L851,79 Z M749,211 L725,214 L699,220 L690,223 L678,228 L662,237 L651,245 L640,254 L633,262 L625,271 L615,286 L606,303 L600,321 L596,343 L595,350 L595,366 L598,387 L602,403 L606,414 L615,433 L627,450 L638,462 L640,462 L641,465 L649,472 L660,480 L671,487 L694,497 L711,502 L719,503 L720,506 L705,512 L680,525 L675,529 L658,542 L645,555 L638,563 L630,573 L623,584 L616,596 L608,615 L603,630 L598,658 L597,684 L600,710 L604,726 L609,741 L616,757 L623,769 L626,775 L635,786 L643,796 L650,804 L657,810 L662,815 L670,822 L679,827 L694,836 L710,844 L721,848 L725,850 L751,856 L776,858 L787,858 L809,856 L833,851 L848,846 L860,841 L876,833 L885,828 L896,820 L901,816 L911,808 L919,801 L934,786 L943,774 L949,767 L959,752 L967,739 L974,727 L979,719 L987,700 L991,692 L1001,661 L1005,646 L1010,626 L1014,603 L1017,565 L1017,522 L1014,488 L1009,463 L1004,444 L999,429 L991,408 L974,372 L964,353 L960,347 L955,338 L947,327 L937,313 L930,304 L919,292 L913,285 L907,280 L900,272 L886,260 L876,252 L861,242 L850,235 L840,230 L830,225 L815,220 L802,216 L788,213 L773,211 Z M355,214 L350,215 L333,216 L328,218 L317,220 L305,223 L285,231 L269,239 L255,248 L244,256 L231,266 L219,277 L214,282 L206,289 L199,297 L199,299 L197,299 L189,310 L178,323 L163,346 L159,352 L154,361 L144,380 L136,397 L129,412 L117,443 L110,467 L105,488 L102,508 L100,541 L100,572 L103,607 L108,639 L115,665 L120,681 L127,700 L132,712 L140,728 L150,745 L158,756 L164,765 L173,777 L177,782 L185,792 L187,792 L189,796 L193,798 L193,800 L198,805 L209,814 L217,820 L230,829 L244,837 L254,843 L271,850 L280,853 L284,855 L311,860 L319,861 L354,861 L375,859 L388,855 L407,849 L410,847 L419,844 L430,838 L439,832 L445,828 L454,821 L462,814 L467,809 L476,800 L485,789 L493,778 L501,764 L507,751 L509,745 L513,735 L516,722 L519,706 L520,690 L520,673 L519,656 L513,629 L508,616 L506,610 L498,593 L488,578 L482,570 L472,558 L467,553 L460,547 L455,542 L445,534 L434,527 L420,519 L409,514 L400,510 L397,510 L397,505 L408,504 L421,500 L433,495 L446,488 L462,477 L473,468 L477,463 L482,458 L490,448 L501,431 L509,414 L514,397 L516,389 L518,378 L518,344 L513,321 L509,308 L503,295 L500,289 L487,270 L478,260 L470,251 L462,245 L451,237 L428,225 L410,219 L396,216 L383,215 L375,214 Z " fill="#000000" transform="translate(0,0)"/>
</svg>
