<?xml version="1.0" encoding="UTF-8"?>
<!-- Generator: visioncortex VTracer 0.6.12 -->
<svg version="1.1" xmlns="http://www.w3.org/2000/svg" width="1071" height="1368">
<path d="M0,0 L57,1 L200,2 L288,2 L304,3 L309,4 L311,3 L444,3 L490,4 L520,3 L736,3 L815,4 L908,5 L918,4 L1006,4 L1025,2 L1030,7 L1033,15 L1034,19 L1033,86 L1034,255 L1034,301 L1033,321 L1034,338 L1033,390 L1033,435 L1034,468 L1033,481 L1033,515 L1034,582 L1034,776 L1035,828 L1035,1139 L1033,1142 L1026,1144 L1012,1145 L975,1144 L968,1145 L963,1144 L942,1144 L928,1146 L922,1146 L913,1144 L832,1144 L795,1143 L639,1143 L622,1142 L521,1142 L513,1143 L389,1142 L287,1142 L255,1141 L197,1141 L84,1140 L38,1140 L-9,1139 L-9,1131 L32,1132 L56,1132 L137,1133 L219,1133 L331,1134 L484,1134 L492,1135 L838,1135 L944,1136 L964,1136 L972,1135 L997,1137 L1019,1136 L1023,1135 L1025,1113 L1023,1104 L1023,1093 L1024,1086 L1023,1083 L1023,1041 L1024,1035 L1024,1014 L1023,1011 L1023,988 L1024,958 L1025,956 L1024,942 L1024,897 L1023,880 L1025,875 L1025,865 L1024,855 L1024,824 L1023,818 L1024,814 L1024,799 L1025,791 L1025,757 L1024,744 L1025,718 L1023,711 L1023,591 L1024,579 L1024,537 L1023,521 L1023,493 L1022,478 L1024,456 L1023,445 L1023,409 L1022,366 L1022,345 L1023,335 L1022,327 L1022,298 L1023,249 L1023,174 L1024,171 L1024,155 L1023,148 L1023,120 L1024,109 L1023,106 L1023,18 L1020,15 L1014,12 L965,12 L954,13 L893,12 L883,13 L865,12 L786,12 L779,11 L384,11 L364,10 L353,11 L335,11 L309,10 L225,10 L217,9 L152,10 L119,10 L114,11 L111,10 L25,10 L10,9 L-6,9 L-9,8 L-9,2 Z " fill="#000000" transform="translate(9,34)"/>
<path d="M0,0 L111,0 L138,1 L177,1 L283,2 L380,3 L408,3 L458,4 L506,4 L545,5 L571,5 L638,6 L667,7 L684,10 L704,15 L720,21 L741,31 L747,35 L754,39 L766,48 L776,56 L783,64 L795,77 L802,87 L811,102 L820,121 L825,136 L830,157 L832,173 L832,360 L830,383 L827,398 L819,422 L813,434 L805,447 L796,460 L786,472 L781,477 L766,490 L756,498 L750,501 L740,507 L726,514 L709,520 L688,525 L674,528 L659,529 L645,529 L632,528 L605,528 L578,527 L539,527 L508,526 L480,526 L420,525 L414,524 L361,524 L357,527 L357,540 L358,545 L358,582 L359,657 L359,928 L358,977 L355,982 L353,984 L347,983 L320,982 L260,982 L188,981 L112,981 L81,980 L28,980 L21,979 L3,979 L0,976 L-1,957 L-2,914 L-1,863 L-2,784 L-2,556 L-1,523 L-2,507 L-2,244 L-3,197 L-2,89 L-2,3 Z M361,63 L357,67 L356,73 L356,159 L355,294 L356,440 L356,452 L358,460 L363,462 L401,463 L429,462 L441,457 L453,449 L459,444 L467,430 L471,418 L472,408 L472,121 L469,102 L463,90 L457,82 L446,73 L440,69 L423,65 L409,63 Z M168,312 L150,316 L131,326 L120,335 L112,345 L104,361 L101,374 L100,381 L100,393 L103,408 L111,424 L117,433 L124,440 L128,445 L141,453 L155,459 L158,460 L169,461 L177,462 L192,461 L210,456 L226,446 L237,436 L247,421 L253,404 L254,395 L254,381 L252,371 L248,358 L243,349 L237,341 L232,335 L218,324 L204,317 L195,314 L180,312 Z M190,479 L120,480 L107,485 L98,489 L89,495 L79,504 L73,511 L65,527 L62,535 L60,569 L60,843 L59,912 L61,917 L65,920 L109,920 L119,921 L179,921 L255,922 L289,922 L294,919 L296,909 L296,880 L297,866 L297,781 L296,773 L296,598 L295,546 L293,535 L289,525 L283,513 L277,506 L271,499 L261,492 L249,486 L236,482 L226,480 L197,480 Z " fill="#000000" transform="translate(128,129)"/>
<path d="M0,0 L168,0 L447,1 L690,1 L747,2 L749,7 L754,2 L834,2 L834,60 L827,61 L824,63 L813,64 L809,60 L786,60 L784,59 L-106,59 L-109,60 L-132,60 L-138,59 L-237,59 L-237,1 L-56,1 Z " fill="#000000" transform="translate(237,1274)"/>
</svg>
