<?xml version="1.0" encoding="UTF-8"?>
<!-- Generator: visioncortex VTracer 0.6.12 -->
<svg version="1.1" xmlns="http://www.w3.org/2000/svg" width="1107" height="1245">
<path d="M0,0 L26,0 L40,3 L43,6 L44,8 L45,43 L46,63 L45,72 L46,112 L46,148 L47,189 L47,271 L48,278 L48,320 L49,347 L50,400 L50,489 L51,539 L52,568 L52,683 L53,698 L53,759 L54,781 L54,797 L55,810 L55,873 L56,890 L56,964 L57,1001 L55,1013 L53,1016 L50,1017 L-9,1017 L-16,1018 L-193,1018 L-205,1019 L-226,1018 L-236,1019 L-242,1018 L-253,1019 L-271,1019 L-298,1020 L-302,1019 L-382,1020 L-423,1021 L-426,1020 L-506,1021 L-678,1021 L-686,1022 L-748,1022 L-752,1021 L-755,1022 L-769,1023 L-854,1023 L-859,1020 L-866,1021 L-868,1023 L-885,1024 L-914,1023 L-927,1023 L-946,1025 L-957,1025 L-966,1022 L-968,1020 L-969,1004 L-970,957 L-970,881 L-971,845 L-971,773 L-972,729 L-972,707 L-971,699 L-972,693 L-973,673 L-973,605 L-974,587 L-974,503 L-975,479 L-975,382 L-976,338 L-977,310 L-976,296 L-977,287 L-977,227 L-976,221 L-976,212 L-977,207 L-978,132 L-978,102 L-976,95 L-976,89 L-978,81 L-979,60 L-979,23 L-977,14 L-974,12 L-956,10 L-921,10 L-903,9 L-775,9 L-723,8 L-699,7 L-687,8 L-685,7 L-673,7 L-664,8 L-661,7 L-593,7 L-568,6 L-564,5 L-546,6 L-467,6 L-463,7 L-453,5 L-412,5 L-358,4 L-294,4 L-287,3 L-238,4 L-234,3 L-150,2 L-136,2 L-98,1 L-92,2 L-63,1 Z M-171,307 L-209,308 L-218,308 L-225,309 L-233,308 L-255,308 L-283,309 L-291,308 L-306,309 L-406,309 L-424,310 L-458,310 L-463,309 L-472,309 L-477,311 L-483,310 L-495,310 L-503,309 L-505,310 L-528,310 L-531,311 L-552,310 L-564,309 L-568,310 L-588,310 L-591,311 L-638,312 L-648,311 L-653,312 L-732,312 L-737,313 L-745,312 L-759,313 L-761,312 L-767,312 L-771,314 L-788,313 L-794,312 L-801,313 L-808,313 L-816,314 L-824,313 L-832,317 L-836,324 L-843,345 L-848,361 L-855,382 L-863,408 L-869,425 L-873,439 L-880,459 L-884,469 L-886,478 L-890,489 L-895,506 L-896,512 L-896,549 L-897,559 L-901,565 L-908,572 L-914,584 L-914,597 L-910,605 L-898,617 L-896,622 L-895,652 L-892,663 L-889,666 L-824,666 L-815,663 L-809,653 L-803,641 L-796,632 L-787,621 L-776,613 L-762,605 L-754,603 L-744,599 L-735,597 L-712,597 L-699,598 L-693,601 L-686,604 L-668,614 L-663,618 L-661,618 L-660,621 L-652,628 L-646,635 L-643,641 L-639,647 L-636,655 L-628,662 L-619,664 L-578,664 L-512,663 L-441,663 L-412,662 L-385,662 L-376,660 L-372,655 L-365,643 L-363,636 L-359,631 L-353,623 L-348,618 L-340,610 L-331,605 L-322,600 L-310,595 L-302,593 L-283,592 L-261,594 L-241,601 L-225,611 L-208,628 L-201,638 L-196,650 L-190,658 L-185,660 L-58,660 L-25,659 L-19,656 L-17,649 L-17,603 L-18,568 L-18,517 L-19,488 L-20,444 L-20,433 L-22,413 L-25,394 L-30,377 L-35,367 L-43,356 L-50,348 L-54,343 L-59,338 L-64,333 L-85,321 L-93,316 L-117,309 L-149,307 L-154,308 L-162,308 Z M-279,612 L-299,614 L-308,616 L-318,620 L-327,627 L-337,636 L-346,649 L-350,657 L-353,668 L-354,675 L-354,689 L-352,701 L-349,711 L-345,716 L-339,727 L-336,732 L-324,741 L-315,746 L-302,752 L-288,755 L-277,756 L-263,752 L-251,747 L-239,740 L-234,736 L-224,723 L-217,712 L-212,695 L-212,670 L-215,660 L-223,644 L-232,634 L-237,629 L-247,622 L-259,616 L-277,612 Z M-731,615 L-747,619 L-764,628 L-774,637 L-783,648 L-787,653 L-793,671 L-794,676 L-794,697 L-791,710 L-783,726 L-779,734 L-767,745 L-756,753 L-744,758 L-731,760 L-719,760 L-699,757 L-691,753 L-680,747 L-667,735 L-662,728 L-656,717 L-653,710 L-650,694 L-650,683 L-651,671 L-656,658 L-663,645 L-670,635 L-682,627 L-698,619 L-717,615 Z " fill="#000000" transform="translate(1016,36)"/>
<path d="M0,0 L3,0 L3,3 L0,3 Z " fill="#000000" transform="translate(555,357)"/>
<path d="M0,0 L5,3 L8,10 L136,10 L144,9 L176,10 L196,9 L217,8 L279,8 L304,9 L306,10 L333,12 L337,14 L346,16 L362,24 L369,30 L379,38 L385,45 L392,57 L396,68 L401,89 L402,97 L402,108 L403,127 L401,138 L398,142 L382,142 L379,143 L310,143 L300,145 L283,142 L263,144 L237,143 L204,143 L185,144 L-1,144 L-39,145 L-76,144 L-80,145 L-100,146 L-234,146 L-248,145 L-250,143 L-253,121 L-254,81 L-254,19 L-251,14 L-249,13 L-235,12 L-170,12 L-129,11 L-63,11 L-57,13 L-51,12 L-1,10 L-1,1 Z " fill="#000000" transform="translate(565,364)"/>
<path d="M0,0 L55,0 L60,2 L62,9 L63,29 L63,128 L60,133 L59,134 L38,135 L14,135 L0,134 L-11,135 L-48,135 L-53,130 L-51,116 L-44,93 L-40,83 L-36,67 L-34,64 L-31,54 L-29,45 L-25,34 L-20,14 L-14,4 L-8,1 Z " fill="#000000" transform="translate(219,377)"/>
<path d="M0,0 L2,0 L2,3 L-1,2 Z " fill="#000000" transform="translate(735,580)"/>
<path d="M0,0 L9,0 L13,4 L16,13 L18,20 L22,28 L27,41 L32,54 L39,71 L40,72 L40,80 L35,83 L29,81 L24,71 L20,61 L14,58 L3,58 L-10,60 L-13,64 L-18,79 L-22,83 L-28,83 L-32,80 L-31,74 L-26,60 L-22,49 L-14,29 L-11,19 L-8,11 L-4,3 Z M2,23 L-1,26 L-5,38 L-5,45 L-2,48 L9,48 L12,46 L12,39 L9,30 L6,24 Z " fill="#000000" transform="translate(152,1128)"/>
<path d="M0,0 L6,0 L8,3 L7,10 L1,13 L-11,13 L-17,15 L-18,25 L-17,43 L-17,77 L-20,81 L-24,82 L-29,80 L-31,69 L-31,38 L-32,31 L-33,14 L-53,14 L-57,10 L-56,3 L-50,1 L-23,1 Z " fill="#000000" transform="translate(107,1129)"/>
</svg>
