<?xml version="1.0" encoding="UTF-8"?>
<!-- Generator: visioncortex VTracer 0.6.12 -->
<svg version="1.1" xmlns="http://www.w3.org/2000/svg" width="1131" height="1110">
<path d="M0,0 L885,0 L890,1 L891,0 L923,0 L928,2 L931,0 L962,0 L962,2 L990,2 L1052,3 L1088,4 L1091,5 L1118,5 L1131,4 L1131,74 L1130,76 L1130,98 L1127,156 L1127,187 L1126,353 L1126,378 L1125,408 L1126,440 L1126,482 L1125,502 L1125,518 L1124,545 L1122,772 L1121,855 L1120,943 L1120,1035 L1119,1059 L1119,1101 L1120,1110 L1100,1110 L1103,1100 L1106,1084 L1107,1070 L1107,1051 L1109,990 L1109,950 L1108,942 L1109,936 L1111,868 L1111,838 L1112,799 L1112,674 L1113,647 L1113,582 L1114,535 L1115,508 L1115,482 L1116,471 L1115,468 L1115,431 L1116,418 L1115,409 L1115,342 L1116,253 L1116,182 L1117,154 L1117,134 L1113,126 L1108,124 L1104,125 L1056,125 L1004,124 L967,124 L936,123 L886,123 L857,122 L797,121 L776,121 L708,119 L677,118 L628,118 L592,117 L530,117 L522,116 L442,115 L360,113 L322,112 L250,110 L214,110 L178,109 L158,109 L98,107 L92,102 L85,103 L74,112 L70,110 L65,106 L59,105 L32,105 L24,103 L16,101 L13,103 L12,106 L10,168 L11,234 L10,283 L10,307 L9,363 L9,426 L8,448 L7,499 L6,649 L6,670 L5,708 L5,792 L4,829 L3,868 L3,955 L2,970 L0,974 L0,278 L1,276 L1,269 L0,267 L0,235 L1,231 L2,209 L2,190 L0,172 L0,167 L1,166 L1,131 L0,127 L1,125 L1,73 L0,71 L0,55 L1,53 L2,8 L0,8 Z " fill="#000000" transform="translate(0,0)"/>
<path d="M0,0 L10,0 L23,2 L37,9 L47,18 L57,30 L61,39 L64,54 L63,72 L60,82 L54,94 L47,103 L36,111 L21,119 L0,119 L-16,113 L-28,106 L-37,97 L-45,86 L-50,72 L-51,67 L-51,48 L-47,38 L-43,29 L-34,17 L-24,9 L-13,3 Z " fill="#000000" transform="translate(345,229)"/>
<path d="M0,0 L61,0 L86,1 L96,2 L143,2 L172,3 L230,4 L277,5 L301,6 L316,3 L320,5 L319,10 L315,15 L310,18 L303,27 L294,38 L289,40 L287,44 L275,55 L269,60 L262,68 L246,84 L239,92 L228,104 L226,104 L224,108 L216,115 L210,118 L120,117 L95,116 L58,116 L56,118 L56,125 L65,135 L72,143 L84,156 L91,164 L97,171 L105,178 L111,186 L114,191 L115,201 L114,211 L110,219 L103,228 L83,248 L78,255 L78,261 L83,269 L88,274 L101,287 L110,298 L118,309 L127,321 L135,332 L139,343 L149,361 L151,369 L155,377 L159,394 L164,416 L167,432 L168,444 L168,468 L167,492 L161,524 L157,537 L151,554 L142,575 L129,598 L122,608 L115,618 L104,632 L101,635 L99,635 L97,639 L84,652 L78,657 L76,657 L76,659 L67,666 L58,673 L39,684 L29,689 L19,694 L-11,705 L-32,710 L-65,714 L-81,714 L-113,711 L-128,708 L-143,705 L-161,700 L-178,693 L-192,685 L-208,676 L-224,665 L-228,662 L-228,660 L-232,658 L-241,651 L-247,644 L-254,638 L-261,630 L-269,622 L-282,605 L-292,590 L-300,573 L-306,561 L-310,552 L-313,546 L-318,527 L-323,508 L-327,476 L-328,464 L-327,444 L-325,421 L-320,392 L-312,370 L-306,353 L-302,343 L-296,332 L-285,315 L-280,309 L-276,301 L-268,293 L-262,285 L-249,270 L-244,266 L-240,261 L-226,252 L-220,247 L-206,238 L-195,232 L-178,223 L-166,219 L-152,214 L-140,211 L-131,210 L-123,208 L-104,207 L-98,205 L-61,205 L-42,208 L-27,212 L-15,215 L3,221 L13,226 L22,226 L30,219 L37,212 L41,206 L42,200 L39,193 L31,183 L20,173 L16,168 L16,166 L12,164 L7,160 L4,156 L4,154 L0,152 L-12,139 L-18,132 L-25,126 L-32,116 L-38,111 L-45,100 L-52,90 L-56,79 L-59,65 L-58,47 L-54,37 L-48,27 L-40,17 L-30,8 L-18,2 Z M-105,219 L-130,223 L-143,228 L-154,229 L-164,233 L-179,241 L-189,245 L-209,257 L-214,261 L-221,265 L-231,274 L-247,289 L-252,293 L-261,304 L-268,313 L-278,328 L-285,340 L-292,354 L-300,374 L-306,389 L-311,414 L-313,424 L-315,442 L-315,477 L-312,502 L-308,522 L-303,538 L-294,558 L-286,574 L-279,585 L-268,600 L-260,611 L-249,624 L-239,634 L-231,641 L-226,646 L-215,654 L-204,661 L-197,667 L-181,675 L-161,683 L-150,687 L-135,692 L-126,694 L-109,695 L-90,697 L-87,698 L-74,699 L-45,697 L-38,695 L-27,694 L-8,687 L13,681 L28,673 L36,668 L50,659 L64,649 L73,644 L89,628 L98,617 L109,605 L117,594 L122,587 L126,578 L137,561 L141,548 L146,533 L151,516 L155,503 L158,471 L158,449 L154,416 L150,402 L147,390 L140,369 L136,360 L128,343 L121,331 L111,316 L100,303 L93,295 L88,290 L75,278 L68,273 L60,273 L55,276 L49,281 L42,289 L32,300 L23,307 L18,312 L-27,357 L-34,361 L-40,362 L-50,362 L-61,359 L-69,352 L-74,341 L-75,330 L-71,317 L-59,306 L-51,300 L-41,290 L-41,288 L-37,286 L-21,271 L-2,252 L4,243 L3,236 L-2,232 L-8,229 L-20,226 L-29,225 L-35,223 L-44,222 L-48,220 L-59,219 Z " fill="#000000" transform="translate(487,281)"/>
<path d="M0,0 L4,1 L6,5 L5,62 L5,107 L4,162 L4,247 L3,289 L3,367 L2,469 L2,491 L1,500 L1,537 L0,553 L-2,561 L-5,568 L-9,573 L-15,578 L-27,581 L-42,579 L-54,571 L-58,566 L-61,551 L-61,525 L-60,509 L-60,483 L-59,438 L-60,425 L-67,415 L-76,405 L-83,397 L-88,392 L-93,387 L-98,382 L-106,373 L-113,365 L-124,353 L-132,343 L-149,326 L-149,324 L-153,322 L-164,310 L-171,302 L-176,297 L-185,288 L-190,281 L-196,276 L-203,268 L-208,262 L-214,252 L-217,244 L-216,232 L-213,220 L-204,207 L-193,196 L-191,196 L-189,192 L-174,177 L-169,172 L-163,167 L-158,161 L-147,152 L-139,142 L-136,139 L-134,139 L-133,136 L-131,136 L-129,132 L-121,124 L-119,124 L-117,119 L-110,111 L-98,100 L-90,93 L-86,88 L-84,88 L-82,84 L-78,82 L-76,78 L-65,68 L-59,63 L-55,58 L-49,54 L-44,47 L-37,41 L-32,35 L-27,31 L-25,31 L-23,27 L-11,14 L-3,3 Z M-15,52 L-15,56 L-11,56 L-12,52 Z M-65,160 L-77,171 L-81,174 L-81,176 L-85,178 L-99,192 L-107,199 L-118,210 L-124,218 L-134,226 L-143,238 L-144,243 L-141,250 L-129,263 L-125,268 L-118,274 L-112,281 L-108,286 L-100,293 L-93,301 L-88,306 L-77,316 L-72,323 L-65,327 L-61,326 L-59,324 L-57,313 L-56,269 L-55,194 L-56,168 L-59,161 Z " fill="#000000" transform="translate(841,334)"/>
<path d="M0,0 L6,1 L9,5 L9,11 L7,13 L-10,14 L-37,19 L-44,22 L-53,25 L-71,32 L-82,38 L-92,43 L-99,47 L-108,53 L-119,61 L-130,70 L-135,75 L-148,87 L-157,98 L-167,110 L-173,119 L-179,129 L-187,143 L-194,160 L-201,180 L-208,210 L-211,234 L-211,261 L-209,290 L-203,315 L-198,332 L-185,360 L-180,368 L-176,375 L-170,383 L-159,401 L-151,409 L-146,414 L-131,430 L-117,441 L-110,447 L-101,453 L-94,457 L-84,463 L-71,471 L-62,475 L-51,479 L-39,482 L-36,484 L-26,486 L-18,489 L-6,490 L0,493 L3,496 L3,504 L2,505 L-9,505 L-19,503 L-33,500 L-62,491 L-74,485 L-85,481 L-100,472 L-110,466 L-118,460 L-129,452 L-139,442 L-145,438 L-158,425 L-164,417 L-172,408 L-182,393 L-188,383 L-194,374 L-203,354 L-208,342 L-213,329 L-218,309 L-222,291 L-225,263 L-225,248 L-224,235 L-224,227 L-219,198 L-216,183 L-213,174 L-209,163 L-204,151 L-194,129 L-190,124 L-186,114 L-180,106 L-176,98 L-169,89 L-164,85 L-154,72 L-141,61 L-132,52 L-121,43 L-103,31 L-95,26 L-72,16 L-57,11 L-44,7 L-35,4 L-13,1 Z " fill="#000000" transform="translate(1095,500)"/>
<path d="M0,0 L3,1 L0,1 Z " fill="#000000" transform="translate(1037,938)"/>
<path d="M0,0 L3,0 L2,4 L-1,4 Z " fill="#000000" transform="translate(919,986)"/>
<path d="M0,0 L2,0 L6,8 L7,9 L19,9 L23,4 L33,3 L113,3 L130,4 L152,5 L162,6 L185,5 L194,6 L248,7 L289,8 L295,9 L335,9 L366,10 L372,9 L381,9 L384,12 L384,15 L387,14 L389,10 L393,9 L417,10 L428,11 L502,12 L531,12 L578,13 L638,13 L661,14 L734,14 L742,15 L817,15 L865,16 L875,16 L882,18 L882,19 L89,19 L88,18 L76,18 L70,19 L61,17 L55,19 L47,18 L27,17 L14,17 L0,16 Z " fill="#000000" transform="translate(0,1091)"/>
<path d="M0,0 L18,0 L21,1 L21,3 L-9,3 L-8,1 Z " fill="#000000" transform="translate(1046,1107)"/>
<path d="M0,0 L31,0 L32,2 L-6,2 L-6,1 Z " fill="#000000" transform="translate(911,1108)"/>
<path d="M0,0 L8,0 L10,2 L-3,2 Z " fill="#000000" transform="translate(1004,1108)"/>
<path d="M0,0 L3,1 Z " fill="#000000" transform="translate(1073,1109)"/>
<path d="M0,0 Z " fill="#000000" transform="translate(1083,1109)"/>
</svg>
