<?xml version="1.0" encoding="UTF-8"?>
<!-- Generator: visioncortex VTracer 0.6.12 -->
<svg version="1.1" xmlns="http://www.w3.org/2000/svg" width="1143" height="1110">
<path d="M0,0 L1126,0 L1126,1110 L-4,1110 L-4,973 L-3,754 L-3,703 L-2,403 L-2,331 L-1,13 Z M109,102 L107,105 L106,127 L107,192 L106,217 L106,953 L107,1002 L110,1007 L148,1008 L272,1009 L383,1009 L386,1004 L387,940 L388,842 L390,624 L391,512 L391,465 L392,409 L394,230 L395,177 L395,145 L396,110 L394,105 L390,103 L259,102 Z M557,213 L539,216 L521,222 L501,233 L490,242 L485,247 L477,256 L467,271 L459,287 L454,304 L452,314 L451,325 L451,337 L454,358 L460,375 L469,394 L476,403 L485,413 L496,423 L507,430 L521,438 L528,441 L538,444 L548,446 L550,448 L551,453 L546,455 L541,458 L532,466 L531,470 L537,478 L544,485 L548,490 L556,497 L562,502 L569,510 L577,518 L584,526 L590,533 L595,538 L604,548 L611,556 L616,560 L623,568 L638,584 L649,595 L656,603 L667,614 L672,619 L683,631 L688,636 L700,648 L704,653 L709,658 L719,668 L726,676 L734,685 L739,690 L759,710 L766,718 L773,726 L778,731 L790,743 L797,751 L804,758 L808,763 L813,768 L830,785 L837,793 L844,800 L851,808 L858,815 L860,815 L862,819 L870,828 L872,828 L874,832 L890,848 L895,853 L911,870 L922,882 L935,894 L951,911 L968,928 L975,936 L986,947 L993,955 L1008,970 L1011,974 L1015,973 L1017,957 L1018,884 L1018,837 L1019,715 L1019,665 L1020,548 L1020,457 L1019,429 L1015,423 L1004,411 L998,404 L996,404 L994,400 L987,391 L982,386 L974,377 L972,377 L970,373 L958,361 L953,355 L951,355 L949,351 L940,341 L931,336 L918,332 L901,326 L881,319 L869,315 L834,303 L805,293 L792,289 L781,285 L768,281 L750,275 L741,272 L719,264 L702,259 L692,255 L687,255 L684,259 L679,275 L677,286 L673,286 L667,271 L657,257 L651,250 L643,243 L635,236 L616,224 L608,220 L598,217 L588,215 L571,213 Z M1090,890 L1091,894 L1095,894 L1094,890 Z " fill="#000000" transform="translate(17,0)"/>
<path d="M0,0 L48,0 L51,5 L51,52 L50,177 L50,195 L49,233 L46,237 L25,237 L-3,236 L-5,233 L-6,224 L-6,75 L-5,12 L-3,2 Z " fill="#000000" transform="translate(301,207)"/>
<path d="M0,0 L5,5 L13,15 L24,20 L45,28 L65,36 L75,40 L92,47 L106,52 L130,62 L141,66 L155,73 L196,114 L204,121 L207,125 L207,137 L203,178 L199,212 L198,225 L194,243 L186,257 L178,264 L170,267 L163,267 L144,260 L119,251 L104,245 L83,238 L74,234 L58,228 L46,224 L17,195 L12,190 L0,178 L-5,173 L-15,164 L-29,150 L-37,143 L-45,135 L-53,128 L-60,121 L-72,116 L-81,114 L-80,110 L-61,100 L-50,93 L-39,84 L-35,79 L-33,79 L-31,74 L-23,64 L-15,49 L-8,32 L-5,19 L-3,2 Z " fill="#000000" transform="translate(703,330)"/>
</svg>
