<?xml version="1.0" encoding="UTF-8"?>
<!-- Generator: visioncortex VTracer 0.6.12 -->
<svg version="1.1" xmlns="http://www.w3.org/2000/svg" width="1140" height="1128">
<path d="M0,0 L193,0 L193,4 L198,3 L200,0 L1133,0 L1135,5 L1135,29 L1134,74 L1135,196 L1136,272 L1136,302 L1137,372 L1137,443 L1138,550 L1139,671 L1140,673 L1140,1128 L1081,1128 L1076,1127 L1074,1128 L1036,1128 L1032,1127 L1030,1128 L4,1128 L4,1098 L3,1065 L3,969 L2,811 L1,789 L0,782 Z M922,5 L843,6 L804,6 L764,7 L685,8 L656,8 L572,9 L500,9 L412,10 L359,10 L310,11 L248,11 L189,12 L101,12 L97,13 L73,13 L70,8 L66,9 L65,13 L58,14 L11,14 L10,15 L9,61 L9,195 L11,422 L12,508 L13,599 L15,736 L16,792 L16,884 L17,918 L18,995 L20,1047 L21,1118 L23,1122 L48,1123 L112,1123 L252,1122 L352,1122 L439,1121 L549,1120 L637,1120 L732,1119 L800,1118 L856,1118 L863,1117 L914,1116 L985,1115 L1010,1114 L1027,1114 L1097,1112 L1124,1112 L1127,1109 L1128,1093 L1128,970 L1127,828 L1126,768 L1126,731 L1125,620 L1124,561 L1124,508 L1122,382 L1121,320 L1120,231 L1119,119 L1118,58 L1115,8 L1112,5 Z " fill="#000000" transform="translate(0,0)"/>
<path d="M0,0 L16,1 L44,6 L78,15 L92,22 L94,25 L93,32 L88,40 L83,39 L72,33 L46,26 L26,21 L8,19 L1,18 L-12,18 L-13,13 L-6,6 L-2,1 Z " fill="#000000" transform="translate(559,100)"/>
<path d="M0,0 L7,1 L30,15 L40,22 L51,30 L61,38 L70,45 L84,59 L92,66 L103,80 L109,87 L113,93 L120,103 L127,114 L131,120 L135,130 L134,136 L118,144 L96,155 L73,166 L57,174 L40,182 L25,190 L2,201 L-14,209 L-30,217 L-31,218 L-30,229 L-28,233 L-25,247 L-25,274 L-28,289 L-30,295 L-30,300 L-27,303 L-4,314 L15,323 L31,331 L45,337 L60,345 L84,356 L103,366 L119,374 L135,382 L137,385 L136,392 L130,404 L124,414 L117,424 L105,440 L98,448 L95,452 L93,452 L91,456 L84,463 L78,470 L70,477 L60,486 L46,496 L34,504 L25,510 L13,517 L10,519 L5,519 L0,511 L-17,476 L-26,457 L-34,441 L-42,425 L-47,416 L-57,396 L-65,380 L-67,377 L-69,369 L-77,352 L-79,350 L-85,351 L-92,354 L-109,357 L-121,357 L-142,355 L-152,352 L-155,350 L-160,351 L-163,360 L-168,368 L-177,387 L-183,400 L-190,415 L-199,434 L-207,449 L-212,461 L-222,480 L-233,503 L-238,515 L-242,520 L-249,520 L-267,510 L-275,505 L-286,497 L-296,490 L-303,484 L-311,479 L-315,474 L-315,472 L-319,470 L-332,457 L-339,449 L-350,436 L-357,425 L-365,414 L-373,401 L-378,390 L-376,385 L-354,373 L-333,363 L-323,358 L-306,350 L-290,342 L-275,334 L-257,326 L-251,322 L-228,311 L-212,303 L-211,302 L-212,291 L-215,281 L-217,269 L-217,249 L-214,233 L-212,228 L-212,221 L-219,217 L-235,209 L-255,199 L-267,193 L-283,185 L-294,180 L-320,167 L-332,162 L-351,152 L-370,143 L-378,139 L-378,132 L-369,116 L-359,101 L-353,93 L-343,79 L-332,67 L-325,59 L-312,46 L-301,37 L-291,29 L-280,21 L-266,12 L-258,7 L-252,3 L-247,3 L-244,6 L-237,23 L-229,39 L-222,53 L-216,65 L-212,74 L-203,93 L-193,112 L-189,120 L-182,134 L-174,150 L-168,160 L-164,170 L-162,172 L-152,170 L-140,166 L-117,164 L-100,166 L-95,168 L-87,170 L-81,170 L-73,154 L-68,144 L-64,134 L-58,122 L-50,106 L-46,96 L-40,84 L-30,62 L-21,42 L-13,26 L-5,9 L-2,2 Z M-132,170 L-155,176 L-170,184 L-180,192 L-189,201 L-200,217 L-205,229 L-208,238 L-210,255 L-210,269 L-207,285 L-201,301 L-196,311 L-189,320 L-176,333 L-163,341 L-153,346 L-134,351 L-117,352 L-101,350 L-85,345 L-71,338 L-61,329 L-49,317 L-40,303 L-36,290 L-34,286 L-31,268 L-32,246 L-37,227 L-45,211 L-51,203 L-63,190 L-68,185 L-84,177 L-95,173 L-109,170 Z " fill="#000000" transform="translate(664,128)"/>
<path d="M0,0 L24,3 L38,5 L51,9 L68,14 L76,16 L78,18 L77,25 L73,31 L70,33 L64,32 L56,28 L37,22 L29,20 L14,18 L-10,16 L-9,11 L-3,3 Z " fill="#000000" transform="translate(555,149)"/>
<path d="M0,0 L8,0 L38,5 L57,12 L59,14 L58,21 L54,28 L51,29 L43,24 L20,18 L8,16 L-8,16 L-10,12 L-7,8 L-5,8 L-3,3 Z " fill="#000000" transform="translate(553,198)"/>
<path d="M0,0 L9,0 L35,6 L37,8 L37,15 L32,21 L26,21 L11,17 L6,16 L-5,16 L-10,14 L-9,9 Z " fill="#000000" transform="translate(554,246)"/>
<path d="M0,0 L5,0 L12,6 L11,14 L5,31 L0,48 L-4,70 L-6,90 L-7,113 L-11,114 L-24,100 L-25,94 L-22,67 L-17,43 L-14,32 L-7,11 L-2,2 Z " fill="#000000" transform="translate(280,277)"/>
<path d="M0,0 L7,1 L11,5 L12,9 L4,34 L-1,57 L-3,88 L-8,89 L-14,82 L-19,78 L-20,69 L-16,44 L-11,23 L-5,5 Z " fill="#000000" transform="translate(324,299)"/>
<path d="M0,0 L7,1 L12,4 L13,8 L6,34 L3,52 L2,65 L-3,66 L-12,56 L-12,40 L-8,20 L-2,2 Z " fill="#000000" transform="translate(366,320)"/>
<path d="M0,0 L5,2 L11,7 L11,14 L7,29 L5,50 L3,52 L-1,51 L-7,43 L-10,39 L-10,24 L-5,7 L-2,1 Z " fill="#000000" transform="translate(411,338)"/>
<path d="M0,0 L7,0 L19,6 L26,14 L29,20 L29,35 L22,47 L13,53 L4,55 L-4,54 L-14,50 L-21,42 L-25,33 L-25,22 L-20,12 L-12,4 Z " fill="#000000" transform="translate(541,360)"/>
<path d="M0,0 L4,1 L10,8 L14,11 L14,27 L9,53 L4,68 L-1,73 L-10,71 L-12,69 L-10,59 L-8,54 L-3,31 L-2,24 L-1,1 Z " fill="#000000" transform="translate(718,386)"/>
<path d="M0,0 L5,1 L7,5 L11,7 L14,10 L14,24 L9,47 L6,55 L2,54 L1,51 L-4,49 L-6,47 L-5,39 L-2,22 L-1,1 Z " fill="#000000" transform="translate(670,387)"/>
<path d="M0,0 L5,1 L9,6 L14,11 L15,13 L15,28 L11,52 L8,67 L3,81 L0,93 L-4,95 L-14,89 L-15,88 L-14,81 L-8,62 L-3,37 L-1,21 Z " fill="#000000" transform="translate(765,387)"/>
<path d="M0,0 L5,2 L10,7 L10,9 L13,10 L15,13 L15,27 L14,39 L10,58 L7,72 L-1,97 L-4,103 L-7,110 L-13,110 L-21,104 L-20,96 L-11,69 L-5,40 L-3,20 L-2,2 Z " fill="#000000" transform="translate(814,391)"/>
<path d="M0,0 L9,2 L33,6 L41,6 L43,10 L35,20 L28,21 L2,16 L-4,11 L-3,4 Z " fill="#000000" transform="translate(500,511)"/>
<path d="M0,0 L6,1 L9,3 L38,10 L60,11 L61,16 L53,26 L47,27 L17,22 L9,19 L-1,16 L-4,13 L-3,3 Z " fill="#000000" transform="translate(480,553)"/>
<path d="M0,0 L6,0 L15,4 L23,6 L45,11 L63,13 L67,14 L82,14 L83,19 L79,24 L72,30 L58,30 L48,28 L30,25 L7,18 L-1,15 L-4,11 L-2,3 Z " fill="#000000" transform="translate(460,597)"/>
<path d="M0,0 L4,1 L10,6 L24,10 L31,12 L40,15 L56,18 L71,20 L95,21 L102,22 L101,27 L94,35 L86,39 L78,38 L48,34 L43,32 L27,29 L19,26 L2,21 L-5,18 L-6,17 L-5,10 L-1,1 Z " fill="#000000" transform="translate(441,638)"/>
<path d="M0,0 L10,1 L20,2 L51,4 L68,6 L93,8 L125,13 L146,17 L156,20 L171,23 L190,29 L201,32 L225,38 L236,42 L249,46 L286,58 L307,67 L310,71 L309,78 L297,104 L289,120 L280,140 L274,154 L266,167 L259,181 L254,181 L247,176 L228,167 L215,162 L200,156 L185,149 L163,140 L134,130 L123,126 L112,123 L96,118 L82,114 L67,110 L51,106 L36,103 L31,101 L16,99 L4,96 L-15,93 L-33,91 L-41,89 L-70,86 L-93,84 L-107,83 L-146,82 L-201,83 L-217,85 L-232,86 L-268,90 L-293,94 L-301,94 L-308,97 L-321,99 L-341,103 L-350,105 L-375,111 L-383,114 L-393,116 L-410,121 L-427,126 L-456,136 L-470,141 L-481,146 L-501,154 L-527,165 L-542,172 L-554,177 L-560,177 L-559,173 L-546,163 L-536,157 L-523,148 L-510,140 L-494,129 L-482,122 L-470,116 L-448,104 L-429,95 L-419,89 L-396,79 L-378,71 L-355,61 L-335,54 L-308,45 L-295,41 L-282,37 L-256,30 L-242,26 L-230,24 L-216,21 L-195,16 L-152,9 L-132,6 L-122,6 L-108,4 L-75,2 L-53,1 Z M-103,28 L-127,29 L-148,31 L-171,34 L-196,37 L-209,40 L-233,44 L-252,48 L-277,54 L-307,62 L-318,66 L-329,68 L-344,73 L-380,86 L-391,90 L-410,98 L-420,102 L-453,118 L-476,129 L-488,136 L-490,140 L-484,140 L-463,131 L-443,123 L-423,116 L-410,112 L-392,106 L-376,101 L-360,97 L-341,92 L-312,85 L-285,79 L-261,75 L-249,73 L-238,72 L-231,70 L-192,66 L-187,65 L-143,63 L-72,63 L-32,66 L-28,67 L-4,69 L-1,70 L13,70 L15,72 L36,75 L60,80 L82,85 L93,87 L120,94 L128,97 L137,99 L153,105 L166,109 L176,112 L197,120 L212,125 L217,128 L227,131 L232,132 L236,127 L241,114 L248,98 L250,91 L250,86 L240,80 L224,74 L193,64 L176,59 L164,56 L159,54 L130,48 L124,46 L103,42 L93,41 L91,40 L79,38 L58,35 L20,31 L-25,28 Z " fill="#000000" transform="translate(685,728)"/>
<path d="M0,0 L7,1 L15,8 L15,10 L19,12 L30,22 L34,25 L39,24 L47,17 L53,9 L59,5 L63,1 L67,2 L68,3 L68,61 L66,68 L60,69 L51,68 L47,64 L48,42 L49,35 L44,35 L32,47 L25,46 L19,41 L18,39 L13,39 L13,57 L10,68 L8,69 L0,69 L-2,67 L-3,9 L-2,2 Z " fill="#000000" transform="translate(788,952)"/>
<path d="M0,0 L5,2 L10,14 L19,30 L29,51 L33,58 L34,66 L32,68 L17,68 L13,62 L13,60 L4,59 L-18,59 L-23,62 L-26,67 L-30,68 L-37,66 L-38,61 L-32,49 L-19,29 L-11,15 L-4,3 Z M-7,32 L-14,45 L-13,50 L-12,51 L3,51 L5,50 L5,45 L-2,33 Z " fill="#000000" transform="translate(900,952)"/>
<path d="M0,0 L10,0 L13,3 L14,34 L14,59 L11,64 L10,65 L2,65 L-2,61 L-3,52 L-3,3 Z " fill="#000000" transform="translate(1021,953)"/>
<path d="M0,0 L8,1 L10,3 L10,9 L5,14 L0,19 L-9,28 L-10,35 L-2,45 L10,58 L11,64 L9,65 L-13,66 L-19,59 L-24,54 L-29,50 L-34,51 L-41,58 L-50,65 L-56,65 L-60,62 L-59,57 L-50,47 L-45,43 L-43,40 L-44,33 L-58,15 L-63,9 L-64,3 L-61,1 L-43,1 L-35,6 L-28,14 L-25,18 L-20,18 L-8,7 L-3,2 Z " fill="#000000" transform="translate(1001,953)"/>
<path d="M0,0 L14,0 L24,5 L29,9 L33,18 L35,25 L35,48 L31,56 L23,63 L13,68 L0,68 L-9,65 L-15,61 L-21,52 L-24,42 L-24,27 L-20,13 L-16,8 Z M3,14 L-3,17 L-5,20 L-6,35 L-5,47 L0,52 L6,53 L12,51 L15,48 L15,18 L11,15 Z " fill="#000000" transform="translate(91,962)"/>
</svg>
