<?xml version="1.0" encoding="UTF-8"?>
<!-- Generator: visioncortex VTracer 0.6.12 -->
<svg version="1.1" xmlns="http://www.w3.org/2000/svg" width="726" height="927">
<path d="M0,0 Z " fill="#000000" transform="translate(387,26)"/>
<path d="M0,0 L6,1 L7,4 L11,6 L17,15 L22,24 L30,37 L40,52 L44,60 L48,68 L52,73 L60,88 L64,93 L73,112 L79,120 L82,126 L87,133 L93,135 L92,141 L96,150 L102,159 L106,164 L111,163 L119,148 L123,142 L127,133 L133,122 L142,106 L148,94 L154,83 L162,65 L170,49 L174,41 L179,35 L183,25 L190,11 L194,7 L196,6 L203,6 L219,9 L223,11 L238,14 L241,16 L252,17 L260,23 L262,30 L266,28 L271,25 L282,26 L306,32 L320,36 L347,43 L358,45 L369,49 L382,51 L397,57 L410,65 L420,72 L425,77 L432,79 L431,88 L433,91 L434,96 L434,119 L432,134 L430,159 L429,185 L429,207 L430,239 L432,275 L433,279 L433,289 L435,320 L435,340 L436,344 L438,384 L438,427 L439,436 L440,438 L442,485 L443,490 L443,523 L442,525 L442,531 L443,537 L437,549 L431,552 L421,553 L419,554 L405,555 L398,559 L396,571 L391,572 L389,569 L389,564 L391,561 L391,557 L386,558 L384,562 L384,577 L390,578 L391,579 L391,589 L387,590 L386,589 L386,583 L383,586 L382,590 L382,603 L385,618 L386,620 L386,628 L385,632 L385,646 L383,655 L383,673 L382,680 L383,686 L383,816 L384,830 L384,840 L382,851 L378,856 L374,858 L369,858 L366,856 L347,855 L340,855 L333,854 L327,853 L320,852 L317,854 L311,853 L303,848 L296,845 L288,845 L283,848 L278,848 L273,844 L269,842 L267,838 L263,841 L260,840 L256,832 L256,830 L251,831 L250,832 L245,832 L240,827 L233,826 L232,822 L234,816 L229,811 L217,805 L212,802 L207,796 L197,789 L186,779 L180,772 L175,767 L164,755 L162,751 L157,748 L150,735 L146,730 L142,722 L139,718 L128,695 L125,688 L122,678 L118,667 L114,657 L113,655 L109,656 L105,671 L102,675 L97,690 L90,703 L86,709 L82,718 L74,731 L66,742 L62,747 L57,752 L48,761 L42,769 L28,783 L19,790 L13,794 L-2,807 L-12,813 L-20,818 L-31,822 L-39,827 L-44,830 L-55,833 L-63,838 L-74,839 L-81,843 L-88,845 L-101,846 L-106,848 L-117,850 L-120,852 L-142,852 L-154,849 L-159,844 L-160,835 L-158,826 L-159,794 L-158,782 L-159,774 L-158,758 L-158,732 L-157,686 L-157,646 L-158,543 L-159,534 L-165,531 L-201,531 L-212,527 L-214,524 L-215,516 L-214,504 L-214,466 L-213,437 L-213,374 L-214,340 L-214,250 L-215,152 L-214,125 L-211,101 L-210,76 L-208,64 L-197,52 L-189,47 L-167,41 L-155,38 L-146,36 L-130,32 L-123,31 L-119,29 L-110,28 L-95,24 L-87,22 L-77,22 L-72,25 L-68,24 L-63,18 L-57,15 L-44,12 L-37,10 L-30,9 L-17,4 L-7,2 Z M-4,81 L-5,88 L-3,91 L1,89 L1,83 L-1,81 Z M186,88 L185,93 L189,94 L191,92 L190,88 Z M201,124 L198,128 L198,130 L203,129 L204,125 Z M98,283 L92,286 L86,294 L84,302 L83,313 L85,321 L92,329 L100,333 L111,333 L121,328 L127,321 L129,312 L129,303 L125,293 L117,286 L103,283 Z M105,417 L96,421 L91,425 L88,433 L87,443 L93,455 L99,460 L111,463 L119,459 L127,453 L130,447 L130,438 L126,426 L118,419 L114,417 Z " fill="#000000" transform="translate(250,37)"/>
<path d="M0,0 L4,2 L6,4 L6,7 L0,8 L-2,6 L-1,1 Z " fill="#000000" transform="translate(62,569)"/>
</svg>
