<?xml version="1.0" encoding="UTF-8"?>
<!-- Generator: visioncortex VTracer 0.6.12 -->
<svg version="1.1" xmlns="http://www.w3.org/2000/svg" width="1698" height="1284">
<path d="M0,0 L30,0 L141,1 L211,2 L285,2 L344,3 L432,3 L509,4 L562,4 L591,5 L623,5 L695,6 L728,6 L828,7 L833,9 L846,11 L858,16 L878,25 L892,33 L903,40 L915,51 L920,56 L930,67 L937,77 L941,83 L946,89 L952,102 L956,112 L961,128 L964,141 L965,155 L964,281 L963,318 L963,345 L961,453 L961,473 L960,502 L958,662 L958,689 L956,770 L956,792 L955,875 L954,922 L953,958 L951,990 L948,1011 L943,1028 L940,1033 L931,1052 L921,1066 L910,1079 L899,1091 L889,1099 L876,1108 L867,1113 L860,1117 L840,1124 L836,1126 L826,1128 L816,1131 L807,1131 L805,1132 L780,1134 L738,1134 L709,1133 L611,1133 L534,1132 L494,1132 L412,1131 L390,1131 L360,1130 L289,1130 L186,1129 L32,1129 L26,1130 L23,1129 L-25,1129 L-48,1126 L-64,1122 L-70,1119 L-78,1118 L-83,1115 L-93,1111 L-110,1102 L-118,1096 L-123,1093 L-138,1079 L-145,1072 L-154,1061 L-165,1043 L-172,1031 L-179,1012 L-182,1002 L-183,989 L-185,976 L-184,946 L-183,918 L-182,869 L-182,793 L-181,789 L-180,766 L-180,675 L-179,477 L-179,372 L-178,309 L-178,279 L-179,266 L-179,255 L-177,231 L-178,225 L-178,182 L-177,155 L-176,142 L-174,129 L-170,112 L-163,96 L-155,82 L-148,70 L-140,60 L-135,54 L-130,49 L-123,42 L-112,33 L-99,25 L-95,22 L-72,11 L-64,8 L-45,3 L-18,1 L-4,1 Z M-16,16 L-37,18 L-50,20 L-62,23 L-81,31 L-92,37 L-103,45 L-108,48 L-118,57 L-123,62 L-130,69 L-139,82 L-143,88 L-151,104 L-155,112 L-162,138 L-163,140 L-165,174 L-166,195 L-166,227 L-167,303 L-167,370 L-168,485 L-168,604 L-170,701 L-170,805 L-171,910 L-173,968 L-172,974 L-171,984 L-169,999 L-164,1015 L-160,1025 L-154,1037 L-144,1053 L-134,1065 L-129,1070 L-121,1078 L-109,1087 L-89,1099 L-78,1103 L-62,1108 L-52,1110 L-50,1111 L-27,1113 L-6,1113 L56,1114 L107,1114 L128,1115 L133,1116 L138,1115 L268,1115 L308,1116 L335,1116 L339,1118 L344,1118 L347,1116 L394,1116 L406,1117 L572,1117 L590,1118 L626,1118 L650,1119 L784,1119 L810,1117 L816,1115 L825,1114 L837,1109 L842,1107 L843,1103 L855,1101 L855,1106 L861,1104 L872,1095 L889,1081 L893,1074 L901,1068 L911,1055 L920,1040 L928,1024 L934,1006 L937,992 L938,940 L939,915 L939,888 L940,865 L941,791 L942,775 L942,707 L943,684 L944,640 L944,610 L945,583 L946,489 L946,450 L948,397 L948,356 L949,309 L950,213 L950,183 L951,179 L951,160 L949,141 L945,125 L940,111 L930,92 L923,82 L915,71 L907,64 L900,57 L887,47 L873,39 L864,34 L837,25 L817,21 L718,21 L664,20 L612,20 L585,19 L499,19 L478,18 L286,18 L279,17 L267,18 L260,17 L134,17 L127,16 L9,16 L3,17 L-5,16 Z " fill="#000000" transform="translate(659,35)"/>
<path d="M0,0 L2,1 L0,2 Z " fill="#000000" transform="translate(1630,123)"/>
<path d="M0,0 L7,1 L13,8 L14,15 L11,20 L6,23 L-1,22 L-7,17 L-8,9 L-6,4 L-3,1 Z " fill="#000000" transform="translate(985,158)"/>
<path d="M0,0 L8,1 L14,6 L15,10 L15,17 L11,22 L6,24 L1,23 L-5,19 L-7,15 L-7,7 L-2,1 Z " fill="#000000" transform="translate(925,170)"/>
<path d="M0,0 L7,0 L12,3 L15,7 L15,15 L10,21 L3,22 L-3,18 L-6,13 L-5,7 L-2,2 Z " fill="#000000" transform="translate(1036,175)"/>
<path d="M0,0 L4,1 L6,5 L7,13 L8,59 L8,82 L6,90 L-1,96 L-17,103 L-40,115 L-55,123 L-69,131 L-76,135 L-82,134 L-83,129 L-78,124 L-71,117 L-65,112 L-63,112 L-63,110 L-50,100 L-41,94 L-29,85 L-22,79 L-18,68 L-15,54 L-13,42 L-9,26 L-7,17 L-3,4 Z " fill="#000000" transform="translate(989,202)"/>
<path d="M0,0 L6,1 L11,5 L13,12 L11,18 L7,21 L-2,21 L-7,16 L-9,9 L-6,3 Z " fill="#000000" transform="translate(885,210)"/>
<path d="M0,0 L9,1 L13,6 L14,8 L14,16 L9,21 L8,22 L2,22 L-4,18 L-7,14 L-7,6 Z " fill="#000000" transform="translate(1078,218)"/>
<path d="M0,0 L6,0 L12,4 L14,8 L14,14 L10,20 L8,21 L0,21 L-5,18 L-7,14 L-7,6 L-2,1 Z " fill="#000000" transform="translate(867,268)"/>
<path d="M0,0 L7,1 L12,4 L15,11 L14,17 L9,23 L1,23 L-4,20 L-7,16 L-8,8 L-5,3 Z " fill="#000000" transform="translate(1092,276)"/>
<path d="M0,0 L4,0 L4,3 L0,3 Z " fill="#000000" transform="translate(921,288)"/>
<path d="M0,0 L7,0 L13,6 L14,14 L11,19 L8,22 L-1,22 L-6,17 L-8,14 L-8,8 L-4,2 Z " fill="#000000" transform="translate(878,323)"/>
<path d="M0,0 L8,1 L13,6 L14,8 L14,16 L10,21 L8,22 L0,22 L-4,20 L-7,14 L-6,5 Z " fill="#000000" transform="translate(1073,339)"/>
<path d="M0,0 L7,2 L11,6 L13,10 L13,16 L9,21 L5,23 L-1,22 L-7,17 L-8,15 L-8,6 L-4,1 Z " fill="#000000" transform="translate(920,368)"/>
<path d="M0,0 L6,0 L12,4 L14,8 L14,15 L9,21 L1,22 L-4,19 L-7,14 L-7,6 Z " fill="#000000" transform="translate(1033,372)"/>
<path d="M0,0 L5,1 L11,6 L12,9 L12,16 L6,23 L2,24 L-4,21 L-8,17 L-9,8 L-5,3 Z " fill="#000000" transform="translate(980,383)"/>
<path d="M0,0 L9,2 L37,13 L47,17 L66,25 L70,29 L70,43 L65,56 L57,79 L53,92 L54,99 L59,103 L72,109 L78,116 L78,125 L72,142 L65,161 L61,174 L58,181 L54,193 L47,212 L40,232 L35,245 L31,258 L23,278 L20,288 L19,354 L18,390 L17,444 L16,524 L14,586 L14,603 L13,660 L10,672 L6,675 L0,676 L-20,674 L-23,668 L-24,649 L-24,573 L-28,568 L-49,567 L-71,567 L-123,565 L-175,564 L-215,563 L-233,562 L-252,563 L-260,562 L-290,561 L-298,560 L-353,559 L-413,557 L-445,556 L-463,556 L-483,555 L-508,555 L-510,554 L-590,552 L-595,555 L-596,557 L-597,568 L-598,591 L-599,651 L-603,657 L-606,659 L-630,659 L-637,656 L-640,648 L-640,612 L-638,523 L-636,480 L-636,453 L-638,444 L-643,441 L-650,435 L-651,432 L-650,409 L-648,401 L-644,367 L-641,340 L-635,299 L-631,292 L-629,291 L-613,291 L-596,294 L-556,300 L-535,303 L-523,305 L-507,307 L-500,309 L-485,310 L-473,313 L-453,315 L-428,319 L-389,325 L-373,327 L-362,328 L-354,330 L-331,333 L-322,335 L-293,339 L-257,344 L-242,346 L-222,350 L-207,351 L-204,352 L-193,353 L-179,356 L-172,356 L-162,358 L-144,361 L-133,362 L-125,364 L-95,368 L-47,375 L-41,380 L-40,383 L-40,399 L-43,422 L-47,457 L-49,467 L-53,501 L-56,521 L-55,526 L-51,527 L-32,527 L-25,526 L-22,519 L-21,501 L-19,414 L-19,392 L-18,352 L-18,308 L-19,306 L-23,307 L-28,313 L-34,314 L-54,306 L-70,300 L-79,296 L-96,289 L-102,284 L-104,279 L-102,269 L-97,251 L-90,231 L-84,216 L-76,192 L-65,161 L-59,145 L-48,113 L-43,101 L-37,83 L-28,59 L-24,48 L-20,35 L-15,22 L-11,12 L-7,4 L-4,1 Z M-589,449 L-593,452 L-595,459 L-596,483 L-596,499 L-595,508 L-589,513 L-557,514 L-518,515 L-469,517 L-450,517 L-435,518 L-407,519 L-350,520 L-290,522 L-268,522 L-242,523 L-213,523 L-206,524 L-131,525 L-110,525 L-109,522 L-121,519 L-133,517 L-135,516 L-149,515 L-170,511 L-209,506 L-224,503 L-254,499 L-272,497 L-277,495 L-307,491 L-318,489 L-340,486 L-373,481 L-388,479 L-418,474 L-427,473 L-461,468 L-473,466 L-488,464 L-496,462 L-510,461 L-527,458 L-537,457 L-543,455 L-558,453 L-586,449 Z " fill="#000000" transform="translate(1331,351)"/>
<path d="M0,0 L14,0 L16,2 L2,2 Z " fill="#000000" transform="translate(1484,1135)"/>
<path d="M0,0 L63,1 L178,2 L226,3 L256,3 L274,4 L312,3 L313,2 L319,2 L326,4 L355,4 L410,5 L441,5 L478,6 L511,6 L546,7 L585,7 L654,8 L814,9 L867,9 L874,8 L878,10 L909,9 L915,10 L916,6 L919,7 L919,9 L926,10 L972,10 L979,11 L996,10 L1045,10 L1173,11 L1213,11 L1240,12 L1338,12 L1447,13 L1495,13 L1638,14 L1658,14 L1684,15 L1684,53 L-14,53 L-14,1 Z " fill="#000000" transform="translate(14,1231)"/>
</svg>
