<?xml version="1.0" encoding="UTF-8"?>
<!-- Generator: visioncortex VTracer 0.6.12 -->
<svg version="1.1" xmlns="http://www.w3.org/2000/svg" width="744" height="1242">
<path d="M0,0 L19,1 L34,5 L49,12 L60,21 L65,26 L73,35 L73,37 L75,37 L79,41 L82,42 L92,42 L111,39 L131,36 L149,34 L161,32 L174,32 L178,37 L179,41 L179,49 L175,53 L156,57 L135,60 L111,63 L95,66 L90,68 L89,70 L87,98 L83,113 L75,130 L68,137 L61,145 L51,154 L35,162 L24,166 L11,168 L-6,168 L-21,165 L-33,160 L-49,151 L-60,139 L-69,127 L-75,115 L-81,95 L-85,91 L-98,91 L-147,97 L-156,97 L-161,93 L-163,81 L-160,76 L-150,73 L-129,71 L-116,69 L-102,68 L-99,67 L-87,66 L-79,61 L-74,51 L-70,43 L-62,31 L-48,17 L-35,9 L-24,4 Z M49,70 L23,74 L-3,77 L-28,81 L-48,84 L-54,87 L-55,89 L-55,100 L-51,111 L-45,121 L-38,129 L-29,136 L-21,140 L-17,142 L-5,144 L7,144 L22,141 L41,131 L46,126 L54,118 L61,103 L64,88 L64,80 L62,74 L59,71 Z " fill="#000000" transform="translate(373,57)"/>
<path d="M0,0 L7,0 L11,4 L11,13 L9,23 L6,30 L6,38 L7,42 L13,44 L25,51 L30,57 L35,69 L37,79 L37,87 L33,97 L21,109 L13,116 L11,121 L12,126 L24,129 L27,132 L31,148 L32,159 L36,163 L39,162 L48,141 L54,126 L62,105 L65,96 L69,86 L71,79 L79,67 L87,60 L97,54 L106,50 L122,48 L148,49 L175,50 L204,50 L217,52 L237,65 L246,69 L253,72 L263,74 L275,74 L293,70 L303,66 L314,59 L321,52 L325,51 L352,51 L372,53 L404,53 L429,58 L440,65 L452,79 L458,91 L461,98 L465,107 L472,130 L477,144 L480,155 L485,169 L491,199 L498,227 L503,248 L508,269 L511,279 L513,289 L517,304 L532,364 L537,382 L543,396 L547,405 L553,410 L562,414 L585,420 L598,425 L606,433 L611,442 L613,448 L614,460 L611,477 L606,490 L598,504 L587,524 L585,540 L584,577 L584,597 L583,655 L580,721 L576,846 L575,894 L574,965 L574,999 L570,1005 L568,1006 L557,1007 L544,1007 L524,1005 L520,1003 L517,996 L514,954 L512,939 L512,925 L511,920 L509,898 L507,861 L504,832 L500,774 L498,747 L496,717 L494,684 L492,656 L489,622 L488,604 L486,586 L483,550 L480,534 L477,530 L468,528 L438,526 L389,526 L295,525 L251,524 L208,522 L177,521 L116,520 L58,518 L38,519 L34,521 L31,531 L29,540 L26,567 L22,598 L21,609 L20,612 L18,635 L16,650 L15,667 L10,703 L5,753 L0,801 L-9,887 L-10,892 L-11,914 L-15,944 L-17,973 L-21,1003 L-26,1008 L-62,1008 L-70,1006 L-74,1002 L-74,961 L-73,915 L-73,874 L-71,839 L-72,821 L-72,792 L-70,694 L-69,586 L-68,516 L-66,449 L-64,444 L-59,441 L-33,440 L-30,439 L-31,432 L-39,421 L-45,411 L-50,399 L-54,395 L-60,392 L-63,388 L-64,385 L-64,370 L-62,311 L-62,287 L-59,277 L-54,273 L-38,270 L-36,268 L-36,259 L-39,246 L-45,212 L-53,175 L-56,161 L-56,148 L-55,146 L-55,133 L-57,124 L-59,112 L-60,81 L-57,62 L-52,47 L-43,33 L-34,23 L-26,16 L-15,8 L-8,3 Z M-20,33 L-27,40 L-35,53 L-40,67 L-41,70 L-42,86 L-42,108 L-39,127 L-35,135 L-33,137 L-23,137 L-12,133 L-9,129 L-6,117 L-1,107 L15,91 L19,84 L21,77 L21,69 L18,63 L15,60 L9,58 L-11,56 L-17,53 L-17,44 L-14,34 L-15,33 Z M271,134 L267,136 L264,141 L266,150 L270,154 L276,153 L280,148 L282,142 L279,136 L276,134 Z M266,200 L260,203 L258,206 L258,214 L262,221 L268,223 L276,219 L279,214 L278,207 L273,201 Z M104,237 L100,242 L96,250 L90,260 L88,266 L89,272 L94,275 L99,277 L100,279 L99,288 L95,298 L89,308 L85,316 L83,321 L83,330 L89,341 L96,355 L103,372 L105,372 L106,370 L106,348 L103,322 L103,315 L106,308 L117,304 L120,299 L120,291 L116,266 L111,240 L108,237 Z M262,262 L258,267 L257,269 L258,278 L261,282 L267,283 L272,280 L275,277 L276,271 L273,265 L270,262 Z M-39,288 L-44,292 L-46,302 L-48,332 L-48,339 L-47,342 L-43,343 L-38,339 L-30,329 L-30,327 L-26,325 L-16,318 L-5,312 L11,307 L28,306 L40,307 L53,311 L60,314 L69,313 L70,310 L73,309 L78,299 L78,292 L75,290 L46,288 Z M16,320 L-2,326 L-11,332 L-23,343 L-31,356 L-35,367 L-36,389 L-34,398 L-29,412 L-19,425 L-7,434 L4,439 L14,442 L33,442 L51,436 L60,431 L70,422 L78,412 L82,405 L85,394 L86,387 L86,373 L83,360 L75,346 L66,335 L56,328 L46,323 L35,320 Z M412,299 L409,304 L407,316 L404,325 L397,355 L394,367 L391,384 L388,397 L386,408 L383,419 L383,428 L380,433 L378,434 L347,435 L269,434 L239,433 L196,430 L179,428 L175,425 L174,422 L174,413 L177,396 L180,377 L184,360 L186,348 L187,333 L184,326 L180,323 L173,322 L127,322 L122,325 L120,329 L121,355 L122,387 L123,394 L124,419 L127,438 L130,443 L131,444 L168,445 L192,445 L239,446 L267,446 L316,447 L358,447 L396,448 L467,448 L471,445 L470,440 L463,423 L460,414 L452,397 L443,373 L438,361 L432,344 L423,315 L419,303 L416,299 Z M104,382 L101,390 L97,406 L88,423 L81,432 L78,437 L79,441 L82,443 L88,444 L99,444 L107,443 L111,438 L112,436 L112,425 L110,411 L109,392 L107,384 Z M516,414 L501,419 L491,422 L488,427 L490,435 L494,440 L509,447 L514,448 L529,449 L575,449 L581,452 L584,458 L585,480 L587,482 L592,481 L595,478 L601,460 L600,452 L597,446 L590,440 L579,436 L554,431 L540,424 L528,415 L526,414 Z " fill="#000000" transform="translate(103,178)"/>
<path d="M0,0 L28,0 L94,2 L108,2 L119,3 L149,3 L162,4 L202,4 L231,5 L250,5 L257,7 L261,12 L264,28 L268,53 L272,83 L274,99 L277,119 L279,134 L283,160 L285,177 L288,193 L290,214 L292,223 L294,240 L298,268 L301,283 L305,309 L308,326 L308,334 L303,338 L248,337 L192,337 L188,339 L185,345 L182,358 L179,377 L175,400 L173,414 L169,434 L168,447 L165,463 L163,477 L159,482 L156,483 L82,483 L67,479 L62,473 L60,467 L56,435 L52,405 L49,381 L45,350 L42,340 L39,337 L33,336 L-74,336 L-81,333 L-82,331 L-82,320 L-79,308 L-77,293 L-72,271 L-69,257 L-66,241 L-59,206 L-54,184 L-52,172 L-43,127 L-38,103 L-33,80 L-30,61 L-26,43 L-21,16 L-17,5 L-10,1 Z M145,361 L144,365 L147,371 L148,371 L147,362 Z " fill="#000000" transform="translate(241,708)"/>
</svg>
