<?xml version="1.0" encoding="UTF-8"?>
<!-- Generator: visioncortex VTracer 0.6.12 -->
<svg version="1.1" xmlns="http://www.w3.org/2000/svg" width="1134" height="1110">
<path d="M0,0 L931,0 L936,3 L956,12 L970,20 L981,27 L993,38 L998,43 L1008,54 L1015,64 L1019,70 L1024,76 L1030,89 L1035,102 L1038,112 L1039,113 L1039,487 L1038,489 L1036,649 L1036,675 L1034,757 L1034,778 L1033,862 L1031,944 L1029,976 L1026,997 L1021,1015 L1018,1020 L1009,1039 L998,1054 L989,1065 L977,1078 L968,1085 L960,1091 L954,1095 L945,1100 L937,1104 L924,1109 L923,1110 L15,1110 L8,1106 L1,1105 L-17,1097 L-32,1089 L-40,1083 L-46,1079 L-59,1067 L-67,1059 L-76,1048 L-86,1032 L-91,1023 L-93,1017 L-95,1017 L-95,967 L-93,967 L-92,970 L-90,986 L-85,1002 L-81,1012 L-75,1024 L-65,1040 L-55,1052 L-50,1057 L-42,1065 L-28,1075 L-12,1084 L0,1089 L16,1094 L26,1096 L28,1097 L51,1099 L72,1099 L134,1100 L185,1100 L206,1101 L211,1102 L216,1101 L346,1101 L387,1102 L413,1102 L417,1104 L422,1104 L425,1102 L471,1102 L485,1103 L650,1103 L668,1104 L703,1104 L728,1105 L862,1105 L888,1103 L894,1101 L903,1100 L915,1095 L920,1093 L925,1088 L933,1088 L935,1092 L940,1089 L950,1081 L966,1068 L970,1061 L978,1055 L988,1042 L997,1027 L1005,1011 L1011,993 L1014,979 L1015,927 L1016,902 L1016,879 L1017,852 L1018,779 L1019,761 L1019,695 L1020,671 L1021,626 L1021,597 L1022,569 L1023,476 L1023,437 L1025,384 L1025,344 L1026,296 L1027,199 L1027,170 L1028,166 L1028,147 L1026,128 L1022,112 L1017,98 L1007,79 L1000,69 L993,60 L993,58 L989,56 L978,45 L965,35 L951,27 L942,22 L915,13 L895,9 L796,9 L742,8 L690,8 L663,7 L577,7 L555,6 L365,6 L357,5 L345,6 L337,5 L212,5 L205,4 L87,4 L81,5 L72,4 L61,4 L41,6 L28,8 L16,11 L-9,22 L-20,29 L-25,33 L-30,36 L-39,44 L-44,49 L-51,56 L-60,69 L-64,75 L-72,91 L-76,99 L-83,125 L-84,127 L-86,160 L-87,183 L-87,214 L-88,290 L-89,494 L-89,590 L-90,621 L-90,645 L-91,688 L-91,792 L-92,899 L-93,923 L-95,925 L-95,107 L-91,97 L-86,85 L-77,69 L-70,57 L-62,47 L-58,42 L-53,37 L-45,29 L-34,20 L-21,12 L-17,9 L-1,1 Z M931,1093 Z " fill="#000000" transform="translate(95,0)"/>
<path d="M0,0 L7,1 L13,8 L14,14 L11,20 L6,23 L-1,22 L-7,17 L-8,9 L-6,4 L-3,1 Z " fill="#000000" transform="translate(499,110)"/>
<path d="M0,0 L8,1 L14,6 L15,10 L15,17 L11,22 L6,24 L1,23 L-4,20 L-7,15 L-7,7 L-2,1 Z " fill="#000000" transform="translate(439,122)"/>
<path d="M0,0 L6,0 L12,4 L14,7 L14,15 L9,21 L3,22 L-3,19 L-7,13 L-6,7 L-3,2 Z " fill="#000000" transform="translate(551,127)"/>
<path d="M0,0 L4,1 L6,5 L7,13 L8,59 L8,82 L6,90 L-1,96 L-17,103 L-40,115 L-55,123 L-71,132 L-77,135 L-82,134 L-83,129 L-78,124 L-71,117 L-65,112 L-63,112 L-63,110 L-50,100 L-41,94 L-29,85 L-22,79 L-18,68 L-15,54 L-13,42 L-9,26 L-7,17 L-3,4 Z " fill="#000000" transform="translate(503,154)"/>
<path d="M0,0 L6,1 L11,5 L12,7 L12,17 L7,21 L-2,21 L-7,16 L-8,14 L-8,7 L-6,3 Z " fill="#000000" transform="translate(399,162)"/>
<path d="M0,0 L9,1 L13,6 L14,8 L14,16 L9,21 L2,22 L-4,18 L-7,13 L-7,6 Z " fill="#000000" transform="translate(592,170)"/>
<path d="M0,0 L6,0 L12,4 L14,8 L14,14 L10,20 L8,21 L0,21 L-5,18 L-7,14 L-7,6 L-2,1 Z " fill="#000000" transform="translate(381,220)"/>
<path d="M0,0 L7,1 L12,4 L15,11 L14,17 L10,22 L8,23 L1,23 L-4,20 L-7,16 L-8,8 L-5,3 Z " fill="#000000" transform="translate(606,228)"/>
<path d="M0,0 L4,0 L4,3 L0,3 Z " fill="#000000" transform="translate(435,240)"/>
<path d="M0,0 L7,0 L13,6 L14,14 L11,19 L8,22 L-1,22 L-6,17 L-8,14 L-8,8 L-4,2 Z " fill="#000000" transform="translate(392,275)"/>
<path d="M0,0 L7,1 L12,6 L13,9 L13,16 L9,21 L7,22 L-1,22 L-5,20 L-8,14 L-7,5 L-2,1 Z " fill="#000000" transform="translate(588,291)"/>
<path d="M0,0 L7,2 L11,6 L13,10 L13,16 L9,21 L5,23 L-1,22 L-7,17 L-8,15 L-8,6 L-4,1 Z " fill="#000000" transform="translate(434,320)"/>
<path d="M0,0 L6,0 L12,4 L14,8 L14,15 L9,21 L1,22 L-4,19 L-7,14 L-7,6 Z " fill="#000000" transform="translate(547,324)"/>
<path d="M0,0 L6,2 L11,6 L12,9 L12,16 L6,23 L-1,23 L-8,17 L-9,8 L-5,3 Z " fill="#000000" transform="translate(494,335)"/>
<path d="M0,0 L10,0 L25,6 L39,11 L48,15 L68,23 L74,28 L74,42 L68,58 L61,78 L57,91 L58,98 L63,102 L77,109 L82,115 L82,124 L76,141 L69,160 L62,180 L49,217 L39,244 L35,257 L27,277 L24,287 L23,353 L22,380 L20,505 L19,555 L18,586 L17,659 L14,671 L10,674 L5,675 L-16,673 L-19,667 L-20,647 L-20,572 L-24,567 L-43,566 L-66,566 L-118,564 L-171,563 L-211,562 L-230,561 L-248,562 L-257,561 L-286,560 L-295,559 L-349,558 L-432,555 L-459,555 L-478,554 L-503,554 L-506,553 L-587,551 L-592,556 L-593,566 L-594,590 L-595,650 L-599,656 L-603,658 L-626,658 L-633,655 L-636,647 L-636,611 L-634,522 L-632,479 L-632,451 L-634,443 L-639,440 L-646,434 L-647,431 L-646,408 L-644,400 L-640,366 L-637,339 L-631,298 L-627,291 L-625,290 L-609,290 L-592,293 L-552,299 L-531,302 L-514,305 L-503,306 L-496,308 L-481,309 L-469,312 L-449,314 L-424,318 L-385,324 L-369,326 L-358,327 L-351,329 L-327,332 L-320,334 L-289,338 L-254,343 L-239,345 L-218,349 L-203,350 L-186,353 L-166,356 L-140,360 L-129,361 L-122,363 L-91,367 L-71,370 L-48,373 L-40,376 L-37,379 L-36,382 L-36,397 L-39,420 L-43,455 L-45,466 L-49,500 L-52,520 L-51,525 L-47,526 L-20,526 L-18,518 L-17,501 L-16,448 L-15,417 L-14,351 L-14,306 L-18,305 L-24,312 L-30,313 L-50,305 L-66,299 L-75,295 L-92,288 L-98,283 L-100,275 L-95,258 L-93,250 L-83,223 L-73,194 L-64,168 L-54,141 L-44,112 L-39,100 L-33,82 L-24,58 L-20,47 L-16,34 L-11,21 L-7,11 L-3,3 Z M-585,448 L-589,451 L-591,457 L-592,482 L-592,498 L-591,507 L-585,512 L-553,513 L-514,514 L-465,516 L-447,516 L-431,517 L-403,518 L-346,519 L-287,521 L-264,521 L-239,522 L-209,522 L-202,523 L-127,524 L-106,524 L-105,521 L-117,518 L-129,516 L-131,515 L-145,514 L-165,510 L-205,505 L-220,502 L-250,498 L-267,496 L-273,494 L-303,490 L-314,488 L-350,483 L-369,480 L-384,478 L-393,476 L-414,473 L-423,472 L-452,468 L-469,465 L-480,464 L-492,461 L-506,460 L-523,457 L-533,456 L-539,454 L-554,452 L-582,448 Z " fill="#000000" transform="translate(841,304)"/>
<path d="M0,0 Z " fill="#000000" transform="translate(0,931)"/>
<path d="M0,0 L2,1 L1,4 Z " fill="#000000" transform="translate(0,958)"/>
<path d="M0,0 L13,0 L15,2 L3,2 Z " fill="#000000" transform="translate(998,1087)"/>
</svg>
