<?xml version="1.0" encoding="UTF-8"?>
<!-- Generator: visioncortex VTracer 0.6.12 -->
<svg version="1.1" xmlns="http://www.w3.org/2000/svg" width="1137" height="1131">
<path d="M0,0 L10,0 L9,10 L8,60 L8,254 L7,367 L7,414 L6,486 L6,530 L5,656 L5,731 L4,771 L4,1125 L6,1127 L30,1128 L61,1128 L68,1129 L76,1128 L82,1129 L120,1129 L122,1131 L0,1131 Z " fill="#000000" transform="translate(0,0)"/>
<path d="M0,0 L12,0 L11,2 L1,2 Z " fill="#000000" transform="translate(591,0)"/>
<path d="M0,0 L7,0 L7,1 L0,1 Z " fill="#000000" transform="translate(605,0)"/>
<path d="M0,0 L5,0 L2,2 Z " fill="#000000" transform="translate(625,0)"/>
<path d="M0,0 L24,0 L24,1 L2,2 Z " fill="#000000" transform="translate(664,0)"/>
<path d="M0,0 L18,0 L17,2 L9,3 L0,2 Z " fill="#000000" transform="translate(701,0)"/>
<path d="M0,0 L47,0 L47,2 L1,2 Z " fill="#000000" transform="translate(727,0)"/>
<path d="M0,0 L353,0 L353,6 L348,5 L314,4 L207,3 L33,3 L1,2 Z " fill="#000000" transform="translate(784,0)"/>
<path d="M0,0 L8,0 L14,4 L14,24 L10,31 L4,35 L-1,34 L-6,29 L-7,27 L-7,16 L-5,4 L-2,1 Z " fill="#000000" transform="translate(517,52)"/>
<path d="M0,0 L12,0 L17,5 L18,10 L18,26 L15,31 L11,34 L2,34 L-3,29 L-4,26 L-4,10 L-3,3 Z " fill="#000000" transform="translate(557,52)"/>
<path d="M0,0 L8,1 L12,6 L13,8 L13,25 L10,32 L4,35 L-2,34 L-6,31 L-8,24 L-8,9 L-5,2 Z " fill="#000000" transform="translate(605,51)"/>
<path d="M0,0 L12,0 L17,4 L18,15 L18,27 L15,32 L11,34 L3,33 L-2,28 L-4,21 L-4,6 L-1,1 Z " fill="#000000" transform="translate(643,52)"/>
<path d="M0,0 L8,1 L13,6 L13,36 L12,48 L8,54 L5,56 L-4,56 L-8,52 L-9,49 L-9,25 L-8,11 L-4,2 Z " fill="#000000" transform="translate(515,109)"/>
<path d="M0,0 L7,1 L11,6 L12,9 L12,41 L10,51 L4,56 L-3,56 L-9,51 L-10,49 L-10,12 L-6,3 Z " fill="#000000" transform="translate(562,109)"/>
<path d="M0,0 L8,0 L14,5 L15,9 L16,28 L16,48 L12,54 L10,55 L1,55 L-4,52 L-6,46 L-6,8 L-2,1 Z " fill="#000000" transform="translate(604,109)"/>
<path d="M0,0 L7,0 L12,4 L14,12 L16,36 L15,49 L10,55 L3,56 L-2,53 L-5,50 L-7,44 L-8,31 L-8,6 L-6,2 Z " fill="#000000" transform="translate(650,109)"/>
<path d="M0,0 L8,0 L13,3 L15,8 L15,50 L12,56 L7,59 L-1,59 L-7,54 L-8,51 L-8,18 L-6,6 L-1,1 Z " fill="#000000" transform="translate(558,187)"/>
<path d="M0,0 L7,0 L12,4 L14,11 L15,42 L14,52 L10,58 L8,59 L0,59 L-5,56 L-7,51 L-8,34 L-8,11 L-6,5 Z " fill="#000000" transform="translate(607,187)"/>
<path d="M0,0 L6,1 L11,6 L13,15 L15,38 L15,51 L12,57 L10,59 L-2,59 L-6,55 L-6,50 L-4,49 L-3,43 L-7,41 L-8,40 L-9,32 L-9,9 L-6,3 Z " fill="#000000" transform="translate(656,187)"/>
<path d="M0,0 L6,2 L10,7 L10,33 L8,50 L6,55 L0,59 L-9,59 L-13,55 L-14,52 L-14,37 L-12,11 L-10,6 L-4,1 Z " fill="#000000" transform="translate(515,187)"/>
<path d="M0,0 L6,1 L10,6 L11,9 L11,49 L8,58 L4,61 L-8,61 L-12,57 L-13,52 L-13,27 L-12,9 L-8,3 Z " fill="#000000" transform="translate(561,269)"/>
<path d="M0,0 L6,0 L11,4 L13,9 L13,26 L11,53 L7,59 L-2,61 L-9,58 L-11,53 L-11,30 L-10,14 L-7,5 L-3,1 Z " fill="#000000" transform="translate(508,270)"/>
<path d="M0,0 L9,0 L14,5 L16,14 L17,29 L17,41 L16,55 L12,60 L9,61 L1,61 L-4,56 L-7,51 L-7,17 L-5,4 Z " fill="#000000" transform="translate(607,270)"/>
<path d="M0,0 L11,0 L16,4 L18,8 L20,46 L19,56 L15,61 L13,62 L4,62 L0,59 L-2,54 L-4,40 L-5,27 L-5,11 L-3,3 Z " fill="#000000" transform="translate(656,270)"/>
<path d="M0,0 L5,1 L10,5 L12,11 L12,35 L11,52 L7,61 L4,63 L-9,63 L-13,57 L-13,39 L-11,11 L-9,6 L-3,1 Z " fill="#000000" transform="translate(505,351)"/>
<path d="M0,0 L8,0 L13,3 L15,6 L16,18 L15,55 L11,61 L7,63 L-2,63 L-7,60 L-9,57 L-9,31 L-8,13 L-5,4 Z " fill="#000000" transform="translate(555,352)"/>
<path d="M0,0 L8,0 L14,5 L16,15 L16,54 L14,61 L10,63 L0,63 L-5,60 L-6,58 L-8,22 L-7,9 L-4,3 Z " fill="#000000" transform="translate(609,352)"/>
<path d="M0,0 L9,1 L14,6 L16,16 L18,46 L18,53 L14,61 L11,64 L3,64 L-2,62 L-6,55 L-7,23 L-7,8 L-4,3 Z " fill="#000000" transform="translate(663,353)"/>
<path d="M0,0 L6,1 L15,8 L24,17 L25,20 L25,27 L19,34 L12,42 L7,48 L2,52 L-7,63 L-17,73 L-28,87 L-40,100 L-47,108 L-58,120 L-69,133 L-77,142 L-86,154 L-88,157 L-87,164 L-82,170 L-70,179 L-65,178 L-55,169 L-52,168 L-50,164 L-42,156 L-37,150 L-33,146 L-26,138 L-16,128 L-9,120 L7,103 L14,96 L21,88 L32,77 L39,69 L54,54 L58,52 L65,53 L72,59 L77,64 L85,71 L88,77 L88,83 L82,93 L73,104 L62,118 L57,124 L48,135 L39,146 L29,158 L16,175 L8,184 L-2,197 L-10,206 L-17,216 L-18,218 L-18,224 L-9,234 L-2,239 L3,239 L10,234 L19,223 L29,212 L36,204 L48,191 L57,180 L59,180 L61,176 L75,159 L83,149 L90,141 L100,131 L110,118 L120,107 L124,106 L135,115 L143,123 L145,130 L142,139 L137,151 L130,163 L124,176 L122,181 L110,202 L101,215 L94,227 L83,243 L76,252 L68,263 L60,273 L52,284 L46,291 L37,302 L32,306 L25,314 L16,323 L5,332 L-8,341 L-22,349 L-38,355 L-56,359 L-69,360 L-89,360 L-106,358 L-110,356 L-115,357 L-119,359 L-121,363 L-135,378 L-140,385 L-145,390 L-156,402 L-165,413 L-176,426 L-183,434 L-194,447 L-199,457 L-201,462 L-208,466 L-216,473 L-223,481 L-232,491 L-239,498 L-248,509 L-260,522 L-266,530 L-269,538 L-271,543 L-276,547 L-285,551 L-293,560 L-300,568 L-315,584 L-325,595 L-332,604 L-341,615 L-345,627 L-351,632 L-361,637 L-368,645 L-375,653 L-385,664 L-387,667 L-389,667 L-391,671 L-400,682 L-410,692 L-416,699 L-420,701 L-457,701 L-538,700 L-542,698 L-541,692 L-532,681 L-525,673 L-517,663 L-508,653 L-501,645 L-491,634 L-487,628 L-471,612 L-464,604 L-452,591 L-444,581 L-435,571 L-423,557 L-420,551 L-420,548 L-430,547 L-435,543 L-437,538 L-437,520 L-435,495 L-432,488 L-427,485 L-417,485 L-413,488 L-411,495 L-412,525 L-412,537 L-411,539 L-406,539 L-404,535 L-392,523 L-385,515 L-376,504 L-369,497 L-359,484 L-354,479 L-346,470 L-345,464 L-358,463 L-363,459 L-365,454 L-365,420 L-363,407 L-361,403 L-358,401 L-349,401 L-343,404 L-340,408 L-339,445 L-338,457 L-334,456 L-324,446 L-315,435 L-310,430 L-301,420 L-292,407 L-287,402 L-281,397 L-272,386 L-265,378 L-258,370 L-247,358 L-238,348 L-232,339 L-229,323 L-224,319 L-214,318 L-206,311 L-198,302 L-193,294 L-193,286 L-199,270 L-201,263 L-204,242 L-203,225 L-201,208 L-192,184 L-181,163 L-173,152 L-167,145 L-160,136 L-154,129 L-152,129 L-150,125 L-145,119 L-137,112 L-133,107 L-128,102 L-113,88 L-100,75 L-92,68 L-81,58 L-73,51 L-59,40 L-52,34 L-42,27 L-31,19 L-26,15 L-20,11 L-10,4 Z " fill="#000000" transform="translate(903,368)"/>
<path d="M0,0 L7,1 L28,11 L44,19 L55,26 L64,31 L81,41 L85,44 L92,48 L102,55 L113,62 L124,70 L135,78 L144,85 L149,88 L154,87 L157,73 L161,67 L162,66 L175,66 L179,70 L180,73 L180,113 L184,119 L188,123 L188,125 L192,127 L206,141 L213,146 L225,146 L232,149 L235,154 L237,172 L241,179 L249,189 L258,200 L267,211 L274,222 L281,230 L293,233 L296,240 L297,259 L297,284 L293,290 L289,292 L280,292 L273,286 L271,283 L265,283 L257,288 L245,295 L234,302 L225,308 L225,313 L231,320 L232,325 L232,346 L231,365 L228,372 L223,375 L213,375 L208,370 L206,365 L206,328 L204,324 L198,324 L185,332 L172,339 L168,344 L166,353 L165,365 L161,372 L157,374 L149,374 L142,370 L138,362 L132,363 L123,369 L105,379 L96,385 L79,395 L68,402 L53,411 L44,417 L33,424 L22,430 L7,440 L-7,448 L-12,452 L-30,463 L-37,467 L-48,474 L-59,481 L-77,491 L-86,497 L-101,506 L-109,510 L-114,507 L-121,497 L-126,490 L-131,490 L-142,502 L-149,509 L-158,516 L-170,522 L-189,527 L-208,527 L-220,525 L-235,519 L-245,513 L-254,506 L-256,502 L-259,501 L-269,487 L-273,479 L-276,472 L-281,447 L-282,434 L-278,410 L-273,392 L-264,371 L-256,357 L-252,349 L-243,335 L-237,325 L-227,304 L-222,292 L-218,281 L-212,260 L-209,238 L-209,227 L-210,222 L-212,169 L-211,139 L-209,131 L-205,126 L-191,118 L-174,107 L-166,102 L-153,94 L-143,88 L-134,82 L-121,74 L-106,65 L-93,57 L-73,45 L-57,35 L-47,28 L-33,20 L-20,12 L-13,8 L-5,3 Z M-197,327 L-204,340 L-206,345 L-212,356 L-219,367 L-225,378 L-235,397 L-240,414 L-242,433 L-241,450 L-237,462 L-230,473 L-220,481 L-212,485 L-200,487 L-190,487 L-177,483 L-166,475 L-156,461 L-153,453 L-153,435 L-157,422 L-162,410 L-167,398 L-170,389 L-175,376 L-180,359 L-190,331 L-192,327 Z " fill="#000000" transform="translate(333,372)"/>
<path d="M0,0 L1,0 L1,44 L-1,40 L-1,6 Z " fill="#000000" transform="translate(1136,379)"/>
<path d="M0,0 L1,0 L1,707 L-7,707 L-6,703 L-5,685 L-3,596 L-3,521 L-2,376 L-2,120 L-1,105 L-2,93 L-2,24 L-1,5 Z " fill="#000000" transform="translate(1136,424)"/>
<path d="M0,0 L11,0 L15,5 L16,7 L16,39 L14,55 L10,58 L5,60 L-3,60 L-7,57 L-9,50 L-8,15 L-6,4 Z " fill="#000000" transform="translate(553,438)"/>
<path d="M0,0 L9,1 L14,6 L15,9 L16,22 L16,51 L12,57 L7,60 L-3,58 L-6,54 L-7,50 L-8,29 L-8,9 L-4,3 Z " fill="#000000" transform="translate(611,438)"/>
<path d="M0,0 L12,0 L18,7 L19,11 L20,30 L20,50 L17,56 L13,59 L3,59 L-2,53 L-4,41 L-5,21 L-5,9 L-2,2 Z " fill="#000000" transform="translate(665,439)"/>
<path d="M0,0 L10,0 L14,3 L16,12 L16,48 L14,58 L11,60 L0,62 L-6,57 L-7,55 L-8,24 L-8,13 L-5,3 Z " fill="#000000" transform="translate(612,520)"/>
<path d="M0,0 L9,0 L15,5 L17,14 L19,42 L19,54 L17,59 L13,62 L0,62 L-3,58 L-5,51 L-7,11 L-5,3 Z " fill="#000000" transform="translate(671,520)"/>
<path d="M0,0 L5,0 L8,8 L12,38 L15,58 L18,74 L20,80 L23,94 L25,109 L29,133 L29,163 L25,178 L18,191 L11,198 L3,202 L0,203 L-7,203 L-18,197 L-20,193 L-22,193 L-28,184 L-31,174 L-31,149 L-27,132 L-22,115 L-18,106 L-11,84 L-6,61 L-3,39 L-2,27 L-1,1 Z " fill="#000000" transform="translate(1027,576)"/>
<path d="M0,0 L7,0 L12,5 L14,9 L16,44 L15,53 L13,58 L10,61 L-3,61 L-6,59 L-9,46 L-10,28 L-10,9 L-6,3 Z " fill="#000000" transform="translate(679,603)"/>
<path d="M0,0 L7,1 L12,7 L13,18 L14,51 L11,59 L8,61 L-4,61 L-9,56 L-10,50 L-11,11 L-8,3 L-5,1 Z " fill="#000000" transform="translate(618,686)"/>
<path d="M0,0 L12,0 L16,4 L17,6 L17,22 L16,46 L14,55 L10,60 L3,61 L-5,59 L-7,57 L-8,53 L-7,17 L-4,4 Z " fill="#000000" transform="translate(478,769)"/>
<path d="M0,0 L7,0 L12,3 L15,8 L17,33 L17,54 L14,60 L8,63 L-1,62 L-4,59 L-6,54 L-9,8 L-6,3 L-4,1 Z " fill="#000000" transform="translate(690,854)"/>
<path d="M0,0 L10,0 L15,5 L16,8 L17,25 L17,49 L13,58 L8,60 L-1,58 L-4,55 L-6,47 L-6,5 L-3,1 Z " fill="#000000" transform="translate(618,941)"/>
<path d="M0,0 L11,0 L16,5 L18,25 L18,49 L15,55 L11,58 L4,58 L-1,54 L-3,48 L-5,28 L-5,5 Z " fill="#000000" transform="translate(692,942)"/>
<path d="M0,0 L25,0 L40,3 L54,10 L66,18 L75,28 L82,39 L84,44 L85,50 L85,70 L81,80 L75,85 L71,90 L61,94 L56,95 L48,95 L37,91 L26,82 L21,77 L8,64 L-4,58 L-11,55 L-38,55 L-50,58 L-59,63 L-66,66 L-78,73 L-91,85 L-100,94 L-105,101 L-109,102 L-112,99 L-111,91 L-104,77 L-95,62 L-83,48 L-68,33 L-58,25 L-47,18 L-37,12 L-21,5 L-7,1 Z " fill="#000000" transform="translate(879,942)"/>
<path d="M0,0 L28,0 L44,3 L54,6 L69,13 L79,19 L89,27 L97,34 L102,43 L101,48 L99,49 L94,46 L87,40 L74,33 L58,29 L49,29 L36,32 L22,38 L11,48 L6,58 L-1,78 L-8,91 L-17,101 L-27,107 L-33,108 L-45,107 L-57,101 L-64,93 L-68,85 L-70,77 L-70,64 L-66,49 L-59,36 L-48,23 L-37,15 L-26,9 L-11,2 Z " fill="#000000" transform="translate(280,946)"/>
<path d="M0,0 L7,1 L13,5 L14,8 L14,33 L12,43 L7,46 L-2,46 L-8,44 L-10,41 L-10,10 L-7,4 L-2,1 Z " fill="#000000" transform="translate(544,1023)"/>
<path d="M0,0 L6,1 L11,6 L13,12 L13,40 L8,45 L-4,45 L-8,42 L-9,39 L-10,19 L-8,6 L-4,2 Z " fill="#000000" transform="translate(623,1024)"/>
<path d="M0,0 L12,0 L16,4 L18,12 L19,38 L15,43 L2,43 L-2,39 L-4,24 L-4,10 L-1,1 Z " fill="#000000" transform="translate(695,1026)"/>
<path d="M0,0 L3,1 L3,5 L-2,4 Z " fill="#000000" transform="translate(491,1119)"/>
<path d="M0,0 L12,0 L17,1 L17,2 L-1,2 Z " fill="#000000" transform="translate(126,1129)"/>
<path d="M0,0 L29,0 L30,2 L-6,2 L-6,1 Z " fill="#000000" transform="translate(155,1129)"/>
<path d="M0,0 L20,0 L35,1 L35,2 L-1,2 Z " fill="#000000" transform="translate(192,1129)"/>
<path d="M0,0 L17,0 L20,2 L-2,2 Z " fill="#000000" transform="translate(241,1129)"/>
<path d="M0,0 L14,1 L14,2 L-3,2 Z " fill="#000000" transform="translate(268,1129)"/>
<path d="M0,0 L3,1 Z " fill="#000000" transform="translate(299,1130)"/>
<path d="M0,0 L9,0 L9,1 L0,1 Z " fill="#000000" transform="translate(319,1130)"/>
<path d="M0,0 L6,1 L6,2 L-4,2 Z " fill="#000000" transform="translate(335,1129)"/>
<path d="M0,0 Z " fill="#000000" transform="translate(449,1130)"/>
</svg>
