<?xml version="1.0" encoding="UTF-8"?>
<!-- Generator: visioncortex VTracer 0.6.12 -->
<svg version="1.1" xmlns="http://www.w3.org/2000/svg" width="1128" height="1146">
<path d="M0,0 L219,0 L236,1 L240,2 L240,0 L252,0 L253,1 L285,2 L285,0 L334,0 L349,2 L370,2 L390,3 L400,2 L403,4 L409,3 L415,2 L454,3 L556,3 L594,4 L678,4 L727,5 L762,5 L800,6 L841,6 L972,7 L1039,8 L1104,8 L1127,9 L1127,18 L1115,19 L1073,18 L1063,19 L1052,17 L1048,18 L991,18 L985,19 L982,18 L970,18 L967,17 L958,17 L949,18 L936,17 L835,17 L805,16 L739,16 L711,15 L545,15 L489,14 L458,14 L446,13 L419,13 L412,12 L407,13 L372,13 L358,12 L341,13 L323,13 L310,15 L298,15 L286,16 L277,12 L240,12 L236,11 L229,11 L224,12 L182,12 L174,11 L127,12 L119,11 L88,11 L58,10 L11,10 L9,16 L8,44 L8,194 L7,238 L6,347 L6,385 L5,479 L5,571 L4,668 L4,708 L3,786 L3,817 L2,904 L2,1009 L1,1035 L1,1069 L-1,1070 L-1,1 Z " fill="#000000" transform="translate(1,0)"/>
<path d="M0,0 L8,1 L20,4 L32,8 L37,12 L38,14 L43,13 L44,12 L51,13 L56,15 L63,16 L75,21 L89,26 L97,28 L115,34 L133,40 L144,44 L161,49 L176,54 L197,60 L208,65 L216,67 L244,77 L250,80 L271,86 L287,91 L295,94 L307,98 L313,101 L323,103 L333,106 L344,110 L381,122 L404,130 L415,133 L423,137 L431,139 L438,139 L447,145 L458,148 L474,153 L479,157 L478,164 L467,183 L461,198 L453,214 L443,234 L439,244 L434,253 L430,263 L428,267 L427,275 L439,271 L464,259 L479,251 L502,240 L535,224 L547,218 L561,210 L580,201 L591,196 L600,191 L623,179 L636,173 L644,170 L650,170 L659,176 L664,183 L664,193 L660,201 L653,207 L642,212 L630,218 L624,221 L612,227 L599,233 L586,241 L557,253 L545,258 L526,267 L521,270 L511,275 L499,281 L491,284 L479,291 L467,296 L459,300 L443,308 L410,323 L401,328 L396,333 L384,359 L378,369 L373,380 L362,404 L354,420 L346,436 L338,454 L330,470 L322,487 L313,506 L307,518 L301,532 L297,538 L292,550 L287,561 L283,571 L278,581 L274,596 L267,600 L260,599 L246,591 L238,584 L227,575 L218,570 L207,562 L197,554 L187,547 L176,539 L162,530 L151,523 L140,515 L130,509 L126,505 L119,501 L103,491 L87,479 L72,469 L61,462 L50,455 L35,444 L22,436 L8,426 L-8,416 L-18,409 L-29,402 L-42,394 L-54,386 L-64,378 L-74,372 L-83,366 L-92,360 L-106,351 L-112,347 L-117,343 L-126,337 L-135,330 L-142,326 L-145,321 L-151,316 L-156,305 L-158,298 L-157,281 L-154,272 L-148,259 L-142,247 L-138,237 L-132,225 L-121,202 L-115,190 L-111,182 L-106,171 L-98,155 L-89,134 L-81,119 L-75,104 L-67,90 L-58,71 L-50,55 L-45,45 L-37,27 L-30,13 L-20,6 L-15,3 L-3,1 Z M-83,138 L-83,141 L-80,141 L-80,138 Z M307,313 L291,317 L286,321 L280,328 L274,338 L273,345 L273,357 L276,366 L280,374 L289,383 L296,387 L311,390 L326,386 L335,380 L343,371 L346,365 L346,358 L341,357 L326,365 L318,369 L308,368 L300,364 L297,356 L297,347 L302,339 L327,326 L330,323 L329,319 L321,314 L317,313 Z " fill="#000000" transform="translate(224,120)"/>
<path d="M0,0 L1,2 L-1,1 Z " fill="#000000" transform="translate(928,396)"/>
<path d="M0,0 L3,1 L2,4 L0,4 Z " fill="#000000" transform="translate(858,420)"/>
<path d="M0,0 L6,1 L15,7 L30,17 L46,29 L52,33 L65,43 L73,50 L84,58 L94,66 L107,77 L120,89 L132,100 L139,106 L139,108 L141,108 L148,116 L155,123 L155,125 L159,127 L176,144 L185,156 L193,163 L202,174 L213,188 L222,199 L232,212 L241,223 L251,238 L260,251 L268,261 L279,279 L289,295 L299,314 L306,325 L317,343 L322,355 L331,374 L339,389 L352,418 L356,429 L364,450 L367,459 L377,488 L386,516 L392,544 L396,558 L398,569 L400,579 L400,588 L397,590 L355,590 L349,588 L347,581 L343,557 L340,549 L337,531 L333,516 L330,504 L321,474 L317,461 L312,449 L308,435 L299,414 L292,398 L281,373 L273,357 L267,347 L263,338 L250,314 L244,304 L237,293 L224,273 L214,258 L205,244 L196,233 L187,220 L178,209 L171,201 L161,187 L161,185 L159,185 L154,178 L148,173 L139,162 L125,148 L125,146 L121,144 L110,133 L105,129 L100,124 L78,102 L68,94 L56,84 L45,75 L34,67 L25,61 L16,55 L3,45 L-12,37 L-15,33 L-14,26 L-10,17 L-1,1 Z " fill="#000000" transform="translate(615,515)"/>
<path d="M0,0 L5,0 L21,11 L34,21 L42,28 L53,36 L58,41 L67,48 L76,56 L80,61 L91,70 L120,99 L125,103 L132,111 L141,121 L153,134 L165,148 L173,159 L183,173 L187,178 L193,186 L201,198 L208,209 L218,223 L222,231 L231,244 L240,258 L248,274 L260,296 L269,316 L276,331 L283,347 L290,364 L294,371 L297,379 L299,388 L303,397 L308,414 L318,445 L322,462 L325,474 L330,495 L333,514 L335,526 L335,535 L333,537 L283,537 L278,532 L273,505 L268,475 L262,451 L260,441 L257,432 L251,410 L245,393 L241,382 L241,380 L237,378 L236,377 L235,365 L230,353 L226,343 L218,323 L212,310 L204,294 L198,282 L191,268 L183,254 L173,238 L164,223 L153,205 L150,200 L145,195 L137,183 L129,173 L120,161 L115,154 L110,149 L99,136 L87,123 L77,112 L70,104 L51,85 L39,76 L31,68 L17,57 L8,49 L2,45 L-8,36 L-14,31 L-13,25 L-7,12 L-1,1 Z " fill="#000000" transform="translate(588,567)"/>
<path d="M0,0 L7,1 L19,12 L30,21 L40,30 L48,37 L52,42 L60,49 L68,57 L73,62 L84,74 L95,86 L98,90 L98,92 L102,94 L111,106 L124,123 L133,133 L143,147 L149,156 L158,170 L172,193 L178,203 L186,219 L193,233 L199,244 L204,254 L208,263 L213,274 L223,298 L232,322 L239,343 L244,359 L246,369 L251,387 L256,409 L262,444 L264,468 L265,473 L265,486 L261,489 L233,489 L216,488 L213,484 L211,472 L209,446 L204,414 L200,395 L197,381 L193,363 L186,338 L181,326 L177,311 L169,291 L163,275 L158,263 L154,255 L149,244 L141,228 L135,216 L128,204 L120,191 L112,177 L106,169 L101,160 L93,149 L83,135 L76,127 L65,113 L56,102 L49,95 L42,87 L35,79 L30,75 L23,66 L12,57 L-1,45 L-9,38 L-14,33 L-14,27 L-6,8 L-2,2 Z " fill="#000000" transform="translate(563,614)"/>
<path d="M0,0 L6,1 L22,17 L29,23 L36,31 L49,45 L57,55 L67,67 L75,78 L81,86 L89,98 L97,109 L107,124 L113,134 L125,154 L136,175 L143,191 L149,203 L156,220 L161,232 L167,247 L175,272 L178,284 L183,303 L191,338 L193,350 L196,378 L199,409 L199,433 L196,438 L187,439 L144,438 L140,435 L140,418 L139,401 L138,367 L135,341 L132,322 L129,303 L125,287 L119,264 L116,252 L110,234 L104,217 L94,192 L86,176 L79,161 L75,154 L69,144 L64,136 L55,120 L49,111 L39,97 L32,87 L26,79 L16,66 L12,60 L0,47 L-10,36 L-14,31 L-14,22 L-4,4 Z " fill="#000000" transform="translate(539,663)"/>
<path d="M0,0 L1,0 L1,5 L0,5 Z " fill="#000000" transform="translate(1127,683)"/>
<path d="M0,0 L1,0 L1,8 L0,8 Z " fill="#000000" transform="translate(1127,689)"/>
<path d="M0,0 L1,0 L1,5 L-1,4 Z " fill="#000000" transform="translate(1127,707)"/>
<path d="M0,0 L1,0 L1,16 L-1,15 L-2,11 L-2,3 Z " fill="#000000" transform="translate(1127,747)"/>
<path d="M0,0 L1,0 L1,10 L-1,9 L-1,1 Z " fill="#000000" transform="translate(1127,769)"/>
<path d="M0,0 L1,0 L1,45 L-1,45 L-2,31 L-2,5 Z " fill="#000000" transform="translate(1127,782)"/>
<path d="M0,0 L8,0 L16,3 L23,9 L29,14 L30,29 L29,40 L23,49 L15,56 L14,58 L12,58 L10,62 L0,71 L-5,77 L-11,91 L-12,94 L-12,115 L-14,117 L-18,116 L-23,110 L-29,96 L-32,81 L-33,63 L-32,44 L-29,37 L-21,21 L-13,5 Z " fill="#000000" transform="translate(1049,900)"/>
<path d="M0,0 L19,0 L34,6 L44,11 L52,14 L58,19 L64,23 L68,28 L73,33 L80,41 L88,48 L92,54 L95,63 L99,71 L103,79 L105,89 L104,90 L99,90 L89,77 L82,69 L73,63 L63,57 L57,55 L41,53 L26,54 L21,56 L8,64 L-3,66 L-10,66 L-17,63 L-23,59 L-28,53 L-30,49 L-32,39 L-31,29 L-28,20 L-20,9 L-3,1 Z " fill="#000000" transform="translate(549,967)"/>
<path d="M0,0 L5,1 L4,8 L2,10 L-2,9 L-3,4 Z " fill="#000000" transform="translate(663,1040)"/>
<path d="M0,0 L2,0 L2,303 L-1126,303 L-1126,288 L-1121,290 L-1020,292 L-940,292 L-924,293 L-906,293 L-895,292 L-863,293 L-803,293 L-751,294 L-654,294 L-602,295 L-594,296 L-588,295 L-563,295 L-550,296 L-481,296 L-413,297 L-347,297 L-281,298 L-148,298 L-105,299 L-86,299 L-73,300 L-15,299 L-10,297 L-3,295 L-2,283 L-2,199 L-1,45 L-2,31 L-1,7 Z " fill="#000000" transform="translate(1126,843)"/>
</svg>
