<?xml version="1.0" encoding="UTF-8"?>
<!-- Generator: visioncortex VTracer 0.6.12 -->
<svg version="1.1" xmlns="http://www.w3.org/2000/svg" width="1299" height="1230">
<path d="M0,0 L4,2 L6,4 L6,43 L5,57 L4,115 L3,179 L2,209 L0,211 Z " fill="#000000" transform="translate(0,30)"/>
<path d="M0,0 L15,0 L41,1 L118,1 L132,2 L181,3 L234,3 L279,4 L352,4 L366,5 L462,5 L464,6 L587,6 L591,7 L687,7 L784,8 L824,8 L857,9 L908,8 L916,9 L926,10 L957,10 L965,9 L990,10 L1123,10 L1126,8 L1131,8 L1136,13 L1138,16 L1137,21 L1136,23 L1135,64 L1134,138 L1134,172 L1133,203 L1133,237 L1132,315 L1131,342 L1131,384 L1130,471 L1129,532 L1128,567 L1128,593 L1127,642 L1127,666 L1126,745 L1125,781 L1125,855 L1124,892 L1123,968 L1122,1023 L1122,1041 L1121,1074 L1121,1106 L1120,1155 L1115,1160 L1093,1160 L1084,1158 L1079,1159 L1056,1159 L1047,1158 L998,1158 L974,1157 L927,1157 L902,1156 L880,1156 L747,1154 L738,1153 L736,1154 L698,1153 L674,1153 L651,1152 L583,1152 L580,1151 L551,1151 L527,1150 L478,1150 L433,1149 L399,1149 L323,1148 L303,1148 L273,1147 L267,1148 L250,1146 L235,1147 L228,1146 L207,1146 L142,1144 L126,1144 L86,1143 L50,1142 L38,1143 L28,1142 L-7,1142 L-10,1145 L-13,1150 L-18,1149 L-20,1140 L-20,1114 L-19,1067 L-19,1045 L-17,928 L-15,829 L-14,735 L-13,677 L-12,603 L-11,522 L-10,501 L-9,397 L-5,154 L-5,121 L-4,71 L-4,17 L-3,4 Z M133,8 L118,10 L57,10 L28,9 L12,9 L7,12 L6,14 L5,50 L4,108 L4,132 L3,173 L3,199 L0,387 L-1,420 L-1,450 L-2,534 L-3,593 L-3,633 L-4,725 L-5,747 L-5,776 L-7,871 L-7,892 L-8,930 L-9,1002 L-9,1025 L-10,1101 L-10,1128 L-7,1132 L1,1132 L4,1133 L34,1134 L41,1133 L60,1134 L100,1134 L102,1135 L126,1135 L207,1137 L243,1137 L254,1138 L304,1139 L327,1139 L378,1140 L386,1139 L391,1140 L493,1140 L549,1141 L584,1142 L627,1142 L671,1143 L710,1143 L746,1144 L770,1145 L791,1145 L879,1146 L886,1145 L892,1147 L924,1147 L940,1148 L948,1147 L954,1148 L1039,1148 L1064,1149 L1106,1149 L1109,1147 L1110,1143 L1111,1126 L1112,1035 L1114,955 L1115,872 L1116,831 L1116,782 L1117,727 L1117,703 L1118,658 L1118,638 L1119,614 L1119,577 L1120,528 L1121,468 L1121,436 L1122,420 L1122,368 L1123,320 L1124,209 L1125,141 L1125,28 L1123,23 L1121,21 L1096,20 L1071,20 L1031,19 L976,19 L963,18 L915,18 L908,19 L903,18 L868,18 L808,17 L736,17 L695,16 L663,16 L651,15 L560,15 L484,14 L384,14 L321,13 L230,13 L219,12 L183,11 L148,11 L138,8 Z " fill="#000000" transform="translate(89,37)"/>
<path d="M0,0 L66,2 L105,2 L164,3 L240,4 L353,6 L374,7 L392,11 L403,12 L413,15 L425,18 L441,24 L450,29 L461,38 L472,46 L479,53 L486,61 L491,67 L497,79 L503,88 L509,104 L512,112 L515,127 L518,144 L521,191 L521,236 L524,251 L528,264 L529,268 L529,276 L525,286 L520,291 L513,292 L500,293 L478,293 L472,292 L366,292 L339,289 L331,283 L328,277 L326,266 L329,254 L335,245 L336,241 L336,205 L329,188 L325,184 L306,174 L285,174 L273,173 L232,173 L216,172 L145,171 L93,170 L86,172 L80,172 L79,170 L68,170 L43,168 L16,167 L7,166 L-2,165 L-6,161 L-7,136 L-6,109 L-6,39 L-5,11 L-4,3 Z M259,28 L258,33 L263,34 L263,30 Z M55,155 L54,159 L56,161 L60,160 L60,156 Z " fill="#000000" transform="translate(140,129)"/>
<path d="M0,0 L1,0 L2,12 L0,15 Z " fill="#000000" transform="translate(0,247)"/>
<path d="M0,0 L19,0 L36,5 L46,11 L52,14 L59,22 L70,33 L74,44 L75,62 L72,78 L66,86 L55,94 L49,97 L33,96 L22,88 L14,78 L8,67 L-1,56 L-13,50 L-18,48 L-42,48 L-57,54 L-73,67 L-82,77 L-89,88 L-94,87 L-95,83 L-87,66 L-78,50 L-67,35 L-59,26 L-48,19 L-40,14 L-21,5 L-14,2 L-3,1 Z " fill="#000000" transform="translate(881,397)"/>
<path d="M0,0 L8,1 L16,4 L19,8 L20,16 L20,49 L17,55 L13,58 L3,57 L-3,53 L-5,48 L-6,40 L-6,15 L-4,3 Z " fill="#000000" transform="translate(620,451)"/>
<path d="M0,0 L9,1 L13,6 L14,9 L15,26 L15,42 L11,53 L8,56 L5,57 L-2,57 L-7,54 L-10,45 L-11,35 L-11,22 L-10,8 L-7,3 Z " fill="#000000" transform="translate(567,454)"/>
<path d="M0,0 L11,0 L17,5 L18,8 L18,43 L15,50 L10,54 L7,55 L-2,55 L-7,50 L-8,44 L-8,15 L-6,5 L-2,1 Z " fill="#000000" transform="translate(507,456)"/>
<path d="M0,0 L22,0 L40,4 L46,7 L53,10 L64,16 L73,23 L79,28 L81,34 L77,36 L69,32 L52,27 L43,27 L30,29 L20,33 L12,41 L6,53 L1,71 L-7,87 L-15,95 L-25,100 L-39,99 L-44,96 L-51,89 L-57,79 L-58,75 L-58,54 L-55,42 L-49,31 L-38,19 L-31,13 L-13,3 Z " fill="#000000" transform="translate(340,460)"/>
<path d="M0,0 L9,0 L16,3 L20,10 L22,37 L25,42 L28,43 L69,45 L104,46 L149,46 L157,47 L176,47 L230,48 L258,49 L266,49 L271,52 L272,54 L272,77 L268,129 L266,148 L265,177 L262,206 L261,228 L260,232 L258,266 L257,272 L254,322 L251,352 L250,372 L247,395 L245,400 L242,414 L237,433 L229,476 L227,486 L224,508 L222,531 L221,540 L219,572 L218,584 L215,587 L212,588 L147,587 L109,587 L77,586 L61,586 L26,585 L-49,584 L-52,583 L-90,583 L-133,582 L-151,582 L-180,581 L-189,580 L-192,576 L-192,548 L-193,535 L-194,507 L-195,496 L-195,486 L-198,457 L-200,447 L-202,429 L-207,403 L-212,384 L-215,352 L-215,326 L-216,312 L-217,277 L-217,261 L-218,247 L-219,219 L-220,208 L-222,139 L-222,120 L-223,108 L-225,55 L-225,48 L-223,42 L-219,40 L-204,40 L-193,39 L-188,40 L-153,40 L-133,39 L-128,37 L-126,32 L-126,16 L-123,6 L-119,2 L-114,1 L-105,2 L-101,6 L-99,10 L-98,30 L-96,37 L-91,40 L-72,40 L-68,37 L-66,25 L-66,13 L-63,4 L-58,1 L-46,1 L-42,5 L-40,20 L-40,28 L-38,37 L-34,41 L-9,41 L-7,37 L-6,8 L-4,3 Z M-135,104 L-146,105 L-151,110 L-152,126 L-151,148 L-150,184 L-149,202 L-148,240 L-147,255 L-144,340 L-142,357 L-139,360 L-127,358 L-108,358 L-90,365 L-80,372 L-74,377 L-72,377 L-70,381 L-64,388 L-61,390 L-56,390 L-44,378 L-39,375 L-36,372 L-24,365 L-12,360 L3,357 L12,356 L24,356 L39,358 L50,363 L60,368 L72,375 L84,388 L90,393 L96,393 L103,388 L108,383 L117,376 L123,372 L134,367 L144,363 L162,363 L171,367 L176,367 L178,364 L181,338 L182,316 L184,300 L188,249 L189,242 L191,204 L194,173 L195,167 L197,131 L197,116 L193,112 L191,111 L92,109 L62,108 L56,107 L47,108 L39,107 L24,107 L-21,106 L-53,105 L-108,105 Z M-126,386 L-135,390 L-139,395 L-138,405 L-136,418 L-131,450 L-129,464 L-127,489 L-126,495 L-124,524 L-120,529 L-118,530 L-93,531 L-79,531 L-72,530 L-69,526 L-68,509 L-68,478 L-69,445 L-69,422 L-70,409 L-73,404 L-82,396 L-98,388 L-110,386 Z M3,386 L-22,393 L-30,398 L-35,401 L-40,407 L-40,460 L-38,525 L-35,530 L-30,532 L-16,533 L7,534 L59,534 L64,531 L66,526 L67,517 L68,492 L71,455 L74,421 L74,410 L71,405 L62,398 L53,393 L45,390 L44,389 L34,388 L25,386 Z M154,392 L141,393 L126,397 L116,405 L107,412 L104,420 L103,454 L101,485 L97,511 L97,527 L99,533 L105,535 L143,536 L150,533 L152,530 L155,511 L158,486 L160,476 L163,455 L166,441 L168,431 L174,404 L172,398 L167,394 L162,392 Z " fill="#000000" transform="translate(623,532)"/>
</svg>
