<?xml version="1.0" encoding="UTF-8"?>
<!-- Generator: visioncortex VTracer 0.6.12 -->
<svg version="1.1" xmlns="http://www.w3.org/2000/svg" width="987" height="1077">
<path d="M0,0 L6,1 L16,7 L25,13 L42,26 L51,32 L66,42 L75,49 L86,57 L92,61 L101,68 L120,81 L129,88 L134,91 L146,100 L156,107 L164,113 L175,121 L190,131 L199,138 L210,145 L221,153 L231,161 L242,168 L253,176 L257,180 L257,185 L250,188 L238,190 L222,191 L219,192 L206,193 L204,199 L203,201 L202,261 L204,274 L209,284 L213,293 L219,302 L227,316 L230,323 L236,331 L250,355 L258,368 L264,379 L271,392 L276,398 L281,409 L289,419 L297,433 L305,448 L310,455 L314,462 L322,475 L331,490 L338,500 L346,515 L351,523 L357,535 L363,544 L369,555 L375,564 L378,570 L378,572 L381,573 L386,583 L396,599 L404,614 L412,627 L418,636 L427,652 L432,662 L439,672 L442,678 L449,689 L460,707 L468,720 L472,728 L484,749 L490,757 L493,763 L496,769 L500,774 L505,783 L515,800 L524,815 L526,818 L527,826 L535,833 L538,838 L541,846 L547,855 L550,862 L557,872 L563,884 L570,895 L574,901 L577,908 L583,917 L588,925 L594,934 L602,948 L608,957 L612,967 L620,977 L624,985 L630,994 L638,1009 L638,1016 L637,1017 L608,1018 L604,1017 L546,1017 L540,1016 L521,1016 L511,1013 L506,1008 L500,999 L496,991 L491,983 L486,972 L480,963 L476,955 L471,946 L468,942 L462,930 L453,916 L442,895 L438,888 L427,868 L420,856 L413,845 L409,837 L401,824 L396,816 L388,800 L379,786 L375,780 L367,764 L359,751 L349,732 L341,718 L337,708 L327,694 L321,683 L316,678 L314,669 L305,655 L293,633 L287,623 L281,614 L272,598 L262,582 L256,568 L250,560 L246,555 L238,535 L234,529 L227,518 L224,514 L219,504 L210,488 L204,481 L194,462 L185,448 L176,438 L172,438 L170,466 L170,920 L169,977 L169,987 L170,993 L170,1018 L167,1022 L164,1023 L152,1024 L121,1025 L101,1024 L95,1023 L77,1023 L68,1022 L34,1022 L-26,1024 L-40,1023 L-132,1023 L-158,1024 L-174,1023 L-186,1024 L-192,1020 L-193,1013 L-193,997 L-192,960 L-192,912 L-191,889 L-190,837 L-190,722 L-189,645 L-190,601 L-192,571 L-192,517 L-191,506 L-190,504 L-189,486 L-190,449 L-193,442 L-197,440 L-218,437 L-222,433 L-222,260 L-221,240 L-221,228 L-222,215 L-222,195 L-224,190 L-228,186 L-232,184 L-245,185 L-261,182 L-264,179 L-264,174 L-259,169 L-236,155 L-228,150 L-221,146 L-211,139 L-202,133 L-197,129 L-178,118 L-168,110 L-159,105 L-150,99 L-145,95 L-137,90 L-129,86 L-122,80 L-109,72 L-93,61 L-82,53 L-64,41 L-49,33 L-46,30 L-39,26 L-29,19 L-18,11 L-4,3 Z M-30,218 L-38,221 L-41,227 L-41,250 L-38,256 L-34,259 L-23,259 L-19,257 L-17,252 L-16,233 L-17,224 L-21,219 Z M63,220 L58,225 L57,253 L59,258 L65,261 L79,262 L83,258 L84,256 L84,234 L82,224 L79,220 Z M-137,352 L-144,355 L-147,363 L-146,384 L-141,389 L-129,390 L-125,385 L-124,382 L-123,365 L-126,356 L-131,352 Z M220,406 L215,409 L213,416 L213,425 L216,431 L218,432 L227,432 L232,427 L233,420 L231,410 L226,406 Z M290,515 L285,519 L284,536 L287,541 L291,544 L305,544 L310,539 L310,527 L308,520 L302,515 Z M-18,519 L-23,522 L-26,526 L-27,551 L-23,557 L-21,558 L-13,558 L-1,555 L2,552 L3,542 L3,528 L-1,521 L-10,519 Z M-23,678 L-27,680 L-29,685 L-30,693 L-30,711 L-28,716 L-21,719 L-5,720 L0,716 L2,712 L3,704 L3,686 L0,681 L-4,679 Z M438,766 L433,771 L431,774 L432,795 L435,801 L438,803 L453,803 L457,800 L458,781 L456,772 L452,768 L447,766 Z M-25,846 L-28,847 L-32,854 L-33,864 L-33,881 L-30,888 L-25,891 L-8,890 L-3,888 L1,883 L6,874 L5,870 L2,867 L0,855 L-4,849 L-9,847 Z " fill="#000000" transform="translate(299,29)"/>
</svg>
