<?xml version="1.0" encoding="UTF-8"?>
<!-- Generator: visioncortex VTracer 0.6.12 -->
<svg version="1.1" xmlns="http://www.w3.org/2000/svg" width="1146" height="1143">
<path d="M0,0 L640,0 L646,1 L648,0 L704,0 L717,2 L811,2 L830,3 L901,3 L917,4 L928,4 L943,5 L999,5 L1043,6 L1045,7 L1055,7 L1071,6 L1090,6 L1096,5 L1110,7 L1144,7 L1145,8 L1145,722 L1143,728 L1145,737 L1145,825 L1144,829 L1143,858 L1142,1042 L1141,1079 L1140,1143 L1113,1143 L1114,1141 L1124,1139 L1126,1135 L1128,1111 L1128,1047 L1129,1007 L1129,975 L1130,914 L1131,871 L1131,844 L1133,697 L1134,686 L1135,626 L1135,585 L1136,568 L1136,461 L1137,353 L1138,329 L1138,281 L1140,149 L1140,121 L1141,97 L1141,25 L1140,22 L1128,19 L1118,20 L1116,19 L1090,19 L1063,18 L1054,17 L1036,18 L1013,17 L981,17 L970,16 L940,16 L885,15 L862,15 L857,14 L805,14 L798,13 L699,13 L687,12 L676,12 L654,11 L599,11 L548,10 L522,10 L490,9 L456,9 L440,8 L424,8 L381,7 L298,6 L279,6 L207,5 L153,4 L115,4 L53,3 L18,3 L15,6 L13,22 L13,51 L12,83 L11,138 L10,154 L10,195 L9,211 L9,255 L8,292 L8,332 L7,360 L6,435 L6,489 L5,585 L5,631 L4,674 L4,704 L3,721 L3,742 L2,839 L2,903 L0,913 L-1,913 L-1,35 L0,31 Z " fill="#000000" transform="translate(1,0)"/>
<path d="M0,0 L22,0 L37,4 L48,9 L53,13 L60,19 L67,30 L72,40 L79,72 L84,91 L87,118 L87,126 L83,142 L77,151 L68,157 L59,160 L57,163 L57,169 L61,173 L77,177 L107,183 L128,187 L137,189 L163,193 L183,197 L222,204 L237,206 L239,207 L253,209 L284,215 L307,219 L312,220 L316,219 L323,219 L329,224 L347,227 L358,229 L380,232 L393,235 L414,238 L446,244 L457,249 L465,254 L472,266 L477,268 L497,269 L536,271 L544,272 L583,273 L610,274 L638,275 L690,278 L716,278 L731,279 L840,283 L865,284 L903,286 L943,287 L972,289 L977,294 L976,299 L972,302 L913,300 L898,300 L888,299 L829,297 L786,295 L706,292 L657,290 L635,289 L622,289 L607,288 L575,287 L545,285 L513,284 L489,283 L457,282 L419,282 L398,292 L385,298 L371,303 L359,309 L347,314 L340,316 L335,319 L325,323 L313,328 L305,333 L293,337 L284,342 L274,344 L271,345 L200,344 L183,343 L138,343 L136,344 L136,355 L142,377 L150,406 L157,431 L161,437 L175,442 L184,444 L195,449 L216,454 L233,460 L250,464 L259,467 L279,473 L287,477 L313,488 L327,501 L333,510 L340,520 L345,531 L352,557 L360,584 L362,593 L366,609 L375,641 L379,657 L389,694 L392,704 L396,720 L404,745 L407,755 L410,762 L412,764 L415,764 L414,754 L411,744 L409,734 L402,711 L396,687 L392,670 L387,653 L382,632 L378,620 L374,604 L371,595 L369,587 L362,562 L358,545 L353,528 L353,519 L354,517 L358,516 L370,521 L381,530 L385,535 L391,545 L397,559 L403,582 L408,595 L416,625 L423,654 L429,679 L431,689 L433,693 L436,707 L441,725 L446,742 L451,760 L454,766 L457,768 L473,766 L490,762 L496,760 L515,757 L527,754 L557,748 L576,743 L592,740 L604,737 L614,735 L634,730 L641,730 L659,725 L670,723 L691,718 L705,715 L712,713 L726,711 L742,707 L752,705 L766,701 L774,699 L790,693 L800,690 L808,686 L822,681 L832,675 L838,672 L843,668 L854,661 L866,650 L875,643 L885,636 L892,635 L898,639 L900,641 L901,646 L900,657 L896,666 L892,674 L892,677 L898,676 L909,667 L918,655 L927,649 L933,649 L938,654 L939,656 L939,666 L932,682 L922,695 L911,705 L905,709 L892,718 L878,726 L866,731 L850,739 L818,750 L795,756 L777,761 L765,764 L752,766 L736,770 L727,772 L709,776 L707,777 L695,779 L678,783 L660,787 L649,790 L640,791 L632,794 L617,797 L609,800 L593,802 L580,806 L561,810 L543,815 L533,816 L524,819 L512,822 L514,828 L520,833 L531,840 L545,848 L560,855 L573,859 L586,861 L603,861 L619,859 L623,857 L632,855 L642,849 L653,842 L665,830 L676,821 L687,813 L699,807 L706,804 L722,800 L751,800 L766,803 L784,810 L795,816 L805,824 L813,831 L819,838 L828,845 L845,856 L856,861 L870,865 L879,866 L902,866 L922,862 L932,857 L944,851 L956,841 L961,836 L965,830 L968,828 L971,828 L972,830 L973,867 L972,882 L968,892 L961,902 L951,911 L937,920 L919,927 L910,929 L899,930 L878,930 L860,926 L849,922 L843,918 L829,911 L818,901 L810,894 L800,884 L790,878 L781,872 L768,867 L755,864 L744,863 L730,863 L711,867 L701,870 L686,878 L681,882 L675,886 L660,901 L650,909 L634,917 L618,923 L613,924 L591,925 L576,923 L561,919 L547,913 L525,901 L519,897 L509,892 L500,886 L485,878 L475,872 L458,863 L439,852 L418,843 L411,839 L394,831 L377,824 L364,818 L342,810 L316,802 L304,798 L297,797 L288,794 L272,790 L270,789 L257,787 L255,786 L242,785 L232,783 L202,780 L194,779 L178,779 L167,780 L149,780 L129,782 L107,786 L87,792 L66,798 L55,803 L45,807 L35,812 L23,818 L14,824 L4,830 L-4,836 L-18,847 L-24,853 L-26,853 L-27,856 L-35,863 L-38,864 L-40,868 L-47,875 L-54,884 L-59,883 L-60,878 L-60,778 L-54,766 L-38,749 L-28,740 L-16,730 L-5,724 L0,720 L27,706 L38,702 L65,693 L83,689 L103,687 L106,686 L124,685 L134,684 L144,684 L183,688 L191,690 L200,691 L204,693 L230,698 L250,703 L256,706 L273,710 L280,713 L290,717 L314,726 L324,731 L329,730 L328,721 L316,686 L312,671 L309,664 L305,651 L300,639 L295,622 L289,606 L283,590 L280,581 L275,569 L272,564 L264,562 L243,560 L239,559 L225,559 L220,558 L206,558 L187,557 L178,555 L141,554 L135,553 L93,551 L89,550 L70,548 L60,546 L45,540 L36,535 L32,531 L25,527 L18,521 L11,513 L-1,498 L-8,479 L-9,477 L-14,435 L-18,406 L-19,393 L-21,383 L-23,363 L-26,340 L-27,336 L-29,316 L-35,269 L-36,265 L-37,245 L-38,242 L-41,210 L-41,192 L-38,184 L-31,174 L-26,170 L-14,164 L-6,163 L-5,162 L-6,155 L-14,144 L-24,135 L-37,116 L-45,102 L-50,86 L-53,71 L-53,48 L-50,37 L-45,27 L-40,21 L-35,16 L-25,10 L-13,3 Z M180,269 L178,270 L179,274 L191,277 L209,282 L219,284 L237,288 L245,290 L262,290 L277,286 L290,282 L300,280 L301,275 L299,274 L280,273 L261,271 Z " fill="#000000" transform="translate(111,52)"/>
<path d="M0,0 L25,0 L47,2 L65,5 L85,9 L106,13 L133,22 L146,27 L153,29 L161,32 L175,37 L184,41 L202,48 L223,56 L236,63 L246,67 L256,71 L272,79 L289,87 L308,96 L317,100 L333,108 L341,112 L350,116 L379,130 L397,134 L407,135 L424,134 L435,133 L448,128 L466,118 L476,109 L483,102 L488,97 L495,91 L504,85 L521,77 L542,72 L565,72 L586,76 L602,83 L610,88 L616,92 L629,103 L638,112 L646,119 L651,123 L666,132 L686,138 L704,140 L721,139 L731,137 L746,132 L759,125 L767,120 L772,115 L778,110 L782,104 L786,103 L789,107 L789,156 L783,168 L777,176 L769,183 L760,189 L746,196 L739,199 L725,202 L700,203 L684,200 L669,196 L652,187 L647,184 L634,174 L617,157 L609,152 L608,149 L599,146 L588,140 L578,138 L566,136 L551,135 L532,138 L514,144 L509,148 L499,153 L490,160 L483,168 L473,177 L463,184 L443,193 L431,196 L420,197 L404,197 L392,195 L370,190 L355,185 L343,180 L336,178 L328,175 L297,164 L269,153 L250,147 L226,139 L197,130 L173,123 L160,119 L150,118 L139,114 L118,108 L94,104 L90,102 L52,98 L49,97 L22,95 L-11,96 L-30,98 L-37,98 L-44,100 L-66,103 L-86,107 L-91,109 L-104,111 L-137,122 L-158,130 L-172,137 L-188,146 L-203,156 L-212,163 L-222,170 L-229,176 L-237,183 L-242,182 L-243,179 L-243,126 L-239,118 L-231,108 L-224,101 L-217,93 L-204,80 L-199,75 L-188,65 L-180,60 L-172,54 L-163,48 L-140,34 L-128,28 L-117,24 L-114,22 L-106,20 L-97,16 L-79,11 L-65,7 L-57,6 L-34,2 L-28,1 Z M93,47 L89,51 L91,55 L96,54 L97,48 Z " fill="#000000" transform="translate(294,884)"/>
<path d="M0,0 L2,2 L2,46 L1,51 L0,51 Z " fill="#000000" transform="translate(0,916)"/>
<path d="M0,0 Z " fill="#000000" transform="translate(1072,964)"/>
<path d="M0,0 Z " fill="#000000" transform="translate(0,1011)"/>
<path d="M0,0 L2,0 L4,4 L33,6 L107,6 L128,7 L208,8 L264,8 L281,9 L289,10 L298,9 L330,10 L376,11 L402,11 L416,12 L456,12 L467,13 L502,13 L530,14 L552,14 L576,15 L630,16 L719,18 L834,21 L848,22 L864,22 L889,23 L914,23 L921,24 L981,25 L1006,26 L1052,26 L1061,27 L1071,26 L1082,27 L1090,28 L1090,29 L676,29 L674,28 L640,27 L619,27 L576,26 L558,26 L532,25 L523,24 L509,25 L455,23 L428,23 L415,22 L396,22 L361,21 L334,21 L329,20 L309,20 L258,19 L212,19 L162,18 L139,18 L89,17 L48,17 L42,16 L0,16 Z " fill="#000000" transform="translate(0,1114)"/>
<path d="M0,0 L4,1 Z " fill="#000000" transform="translate(1105,1142)"/>
</svg>
