<?xml version="1.0" encoding="UTF-8"?>
<!-- Generator: visioncortex VTracer 0.6.12 -->
<svg version="1.1" xmlns="http://www.w3.org/2000/svg" width="636" height="933">
<path d="M0,0 L19,0 L33,4 L48,13 L58,21 L66,32 L71,42 L73,50 L75,57 L74,89 L75,97 L76,156 L72,166 L69,169 L66,170 L58,170 L52,167 L49,162 L48,137 L48,112 L47,81 L44,71 L39,59 L35,49 L27,40 L21,36 L12,34 L-1,34 L-9,36 L-18,42 L-24,50 L-28,58 L-30,68 L-32,77 L-32,122 L-34,165 L-36,171 L-39,173 L-50,173 L-56,169 L-58,163 L-58,88 L-59,77 L-60,74 L-60,58 L-57,41 L-49,27 L-41,17 L-32,11 L-18,4 L-10,2 Z " fill="#000000" transform="translate(230,29)"/>
<path d="M0,0 L26,1 L62,1 L74,3 L82,10 L85,17 L86,22 L86,135 L85,145 L85,389 L81,394 L74,397 L67,398 L52,398 L50,399 L51,404 L53,409 L53,417 L51,421 L48,447 L46,463 L40,480 L29,496 L17,509 L9,517 L-2,524 L-14,530 L-27,535 L-37,537 L-47,537 L-61,534 L-64,530 L-66,520 L-63,511 L-57,506 L-49,503 L-36,501 L-26,498 L-17,492 L-3,481 L3,472 L9,462 L12,453 L13,447 L13,437 L10,427 L6,422 L6,406 L8,403 L8,399 L0,397 L-25,396 L-29,394 L-30,391 L-30,326 L-31,282 L-30,278 L-30,213 L-29,166 L-30,145 L-29,136 L-29,53 L-30,48 L-30,34 L-31,21 L-31,14 L-28,6 L-24,3 L-20,2 L-4,1 Z M3,27 L-2,31 L-3,33 L-4,57 L-3,71 L-3,202 L-4,245 L-3,268 L-2,279 L-2,363 L0,369 L7,371 L27,372 L35,373 L48,372 L53,369 L55,366 L56,361 L57,298 L58,276 L59,267 L59,253 L58,248 L58,154 L59,148 L58,134 L59,99 L60,86 L60,37 L57,30 L54,28 L46,27 Z " fill="#000000" transform="translate(523,151)"/>
<path d="M0,0 L4,1 L6,4 L38,7 L46,10 L49,16 L51,23 L52,38 L51,49 L50,52 L48,52 L48,56 L50,57 L95,57 L101,60 L105,65 L109,77 L110,108 L111,114 L110,140 L109,148 L109,201 L108,254 L108,312 L109,366 L109,385 L110,431 L109,456 L110,462 L110,472 L109,485 L110,565 L111,638 L106,644 L102,646 L48,647 L45,649 L50,656 L52,663 L53,680 L53,690 L50,696 L44,700 L41,701 L11,701 L-1,700 L-18,700 L-26,699 L-47,699 L-76,698 L-203,698 L-212,699 L-250,698 L-255,695 L-258,690 L-261,675 L-261,646 L-268,643 L-300,642 L-306,639 L-311,631 L-312,628 L-311,603 L-310,570 L-311,555 L-311,286 L-312,256 L-311,249 L-312,231 L-311,221 L-311,188 L-310,176 L-311,157 L-311,108 L-312,89 L-312,71 L-310,60 L-305,55 L-300,53 L-276,54 L-257,54 L-260,41 L-261,32 L-258,13 L-255,7 L-252,5 L-240,4 L-231,3 L-223,4 L-214,4 L-206,5 L-203,4 L-182,4 L-175,3 L-154,3 L-145,2 L-126,3 L-115,4 L-84,4 L-70,3 L-65,2 L-59,3 L-36,4 L-24,5 L-3,5 L-2,1 Z M-153,29 L-221,30 L-231,32 L-234,36 L-235,39 L-235,52 L-232,54 L-165,55 L-142,54 L-85,54 L-65,55 L-49,56 L-8,56 L2,58 L20,57 L31,56 L33,53 L28,47 L22,35 L13,32 L-8,32 L-58,30 L-82,30 L-97,29 Z M-134,79 L-137,80 L-252,80 L-274,81 L-279,83 L-281,86 L-282,92 L-282,136 L-283,150 L-283,199 L-282,208 L-283,288 L-283,377 L-282,386 L-282,420 L-283,484 L-283,563 L-282,610 L-280,613 L-271,615 L-202,615 L-188,614 L-180,615 L-127,615 L-122,616 L-108,616 L-101,617 L-51,617 L-6,618 L3,618 L12,619 L35,619 L39,620 L46,620 L49,619 L73,619 L78,616 L81,611 L83,599 L84,577 L83,535 L83,505 L84,489 L83,485 L83,341 L82,306 L82,294 L80,249 L81,243 L81,194 L80,172 L80,159 L81,153 L81,139 L80,135 L79,92 L77,87 L68,84 L53,83 L46,82 L39,84 L29,83 L-46,82 L-57,81 L-93,80 L-125,80 Z M-230,642 L-237,645 L-236,664 L-231,670 L-225,671 L-215,671 L-206,670 L-192,671 L-90,671 L-52,672 L-21,672 L-13,676 L-8,677 L-3,674 L6,673 L20,673 L25,671 L31,656 L38,650 L37,646 L33,645 L1,644 L-64,643 L-105,643 L-108,642 L-129,642 L-133,643 L-203,642 Z " fill="#000000" transform="translate(341,205)"/>
<path d="M0,0 L16,0 L21,1 L64,1 L72,0 L86,1 L136,2 L148,3 L166,3 L214,4 L219,8 L220,11 L223,69 L223,87 L222,122 L219,131 L213,135 L209,136 L159,135 L83,134 L7,134 L-3,132 L-8,127 L-10,116 L-12,113 L-12,107 L-10,102 L-10,87 L-9,70 L-11,18 L-10,8 L-5,3 Z M20,27 L17,31 L16,36 L16,82 L17,100 L22,105 L29,107 L34,102 L36,96 L37,49 L35,31 L32,27 Z M119,27 L115,31 L114,34 L114,97 L117,105 L120,107 L141,106 L145,101 L146,98 L146,88 L145,84 L145,36 L142,30 L138,27 Z M175,27 L170,31 L169,33 L169,46 L168,52 L168,82 L169,100 L172,105 L176,107 L185,107 L190,105 L193,101 L194,95 L194,53 L193,35 L191,30 L185,27 Z M65,28 L61,31 L60,34 L59,57 L60,67 L59,77 L61,100 L66,106 L69,107 L83,107 L88,102 L89,100 L90,79 L91,72 L91,48 L89,32 L86,29 Z " fill="#000000" transform="translate(135,643)"/>
</svg>
