<?xml version="1.0" encoding="UTF-8"?>
<!-- Generator: visioncortex VTracer 0.6.12 -->
<svg version="1.1" xmlns="http://www.w3.org/2000/svg" width="1041" height="1017">
<path d="M0,0 L33,0 L33,1 L19,3 L16,5 L14,14 L13,42 L13,76 L12,168 L11,229 L11,244 L10,293 L10,343 L9,371 L8,386 L8,453 L7,517 L6,607 L5,676 L4,729 L4,770 L3,854 L2,862 L2,875 L1,901 L1,923 L0,979 L1,1004 L4,1007 L63,1007 L67,1008 L110,1008 L118,1009 L153,1008 L168,1009 L251,1009 L268,1010 L379,1010 L392,1011 L483,1011 L536,1012 L542,1013 L608,1013 L699,1014 L857,1014 L860,1017 L-3,1017 L-3,475 L-1,475 L-1,465 L-3,465 L-3,337 L-2,331 L-2,322 L-3,321 L-3,304 L-1,304 L-3,298 L-3,291 L-2,289 L-2,279 L-3,274 L-2,272 L-1,252 L0,93 L1,83 L0,77 L0,46 L1,21 L0,14 Z " fill="#000000" transform="translate(3,0)"/>
<path d="M0,0 L18,0 L15,2 L2,2 Z " fill="#000000" transform="translate(38,0)"/>
<path d="M0,0 L984,0 L984,677 L983,680 L983,695 L982,703 L982,733 L981,787 L981,836 L979,931 L979,1017 L965,1017 L966,1012 L967,990 L968,930 L969,871 L970,861 L970,807 L971,752 L973,635 L973,603 L974,578 L974,538 L975,485 L975,462 L976,446 L976,417 L977,379 L978,260 L978,216 L980,206 L979,200 L979,152 L981,50 L980,17 L978,13 L948,12 L931,12 L901,11 L847,11 L837,10 L777,10 L718,9 L644,9 L631,8 L578,8 L568,7 L463,7 L418,6 L362,6 L323,5 L287,5 L240,4 L154,4 L20,3 L4,2 Z " fill="#000000" transform="translate(57,0)"/>
<path d="M0,0 L10,0 L14,4 L15,8 L15,33 L14,50 L12,92 L11,107 L10,137 L9,163 L9,171 L12,174 L24,174 L27,175 L39,175 L53,176 L57,185 L61,196 L64,205 L69,209 L137,210 L141,208 L144,202 L149,160 L152,143 L156,139 L163,138 L174,139 L178,140 L199,141 L241,144 L252,148 L254,161 L257,188 L261,208 L270,212 L302,212 L361,213 L389,214 L414,214 L421,217 L427,232 L433,251 L438,261 L441,263 L474,263 L477,260 L480,237 L482,212 L486,173 L487,156 L489,139 L493,92 L495,73 L497,48 L499,40 L500,39 L514,39 L517,43 L517,59 L516,65 L515,78 L514,106 L512,117 L510,135 L510,154 L507,182 L503,242 L503,264 L577,266 L582,271 L586,281 L591,296 L596,308 L597,314 L604,316 L619,316 L659,317 L661,319 L661,326 L652,352 L648,362 L644,373 L641,383 L638,389 L634,392 L586,391 L495,390 L476,389 L470,388 L467,389 L406,389 L365,388 L326,388 L275,387 L213,387 L200,386 L170,386 L156,385 L108,385 L44,384 L-9,384 L-38,383 L-124,383 L-130,381 L-136,382 L-141,383 L-161,382 L-182,383 L-242,383 L-268,382 L-272,377 L-275,368 L-279,352 L-281,349 L-283,339 L-287,323 L-290,314 L-292,306 L-299,282 L-303,267 L-302,261 L-298,258 L-283,258 L-277,257 L-270,258 L-241,258 L-206,257 L-99,257 L-90,256 L-86,252 L-82,236 L-78,220 L-76,210 L-71,187 L-67,177 L-63,175 L-58,175 L-55,177 L-45,176 L-29,175 L-21,172 L-19,170 L-16,151 L-15,139 L-14,121 L-12,110 L-9,76 L-8,67 L-8,59 L-6,40 L-5,20 L-3,7 L-1,1 Z M-47,193 L-53,197 L-57,208 L-63,235 L-71,267 L-73,274 L-74,275 L-180,275 L-258,276 L-276,277 L-278,281 L-276,294 L-272,305 L-268,308 L-140,308 L-120,309 L-106,308 L-57,308 L-26,309 L66,309 L70,310 L77,310 L85,309 L94,310 L115,310 L155,311 L202,311 L224,312 L251,312 L302,313 L313,314 L319,313 L383,314 L442,314 L446,315 L503,315 L543,316 L552,317 L561,316 L566,317 L575,315 L576,314 L576,305 L570,289 L566,285 L558,284 L536,283 L518,283 L487,282 L455,282 L429,281 L423,276 L416,258 L410,242 L406,234 L394,231 L330,231 L296,230 L243,230 L206,229 L181,229 L169,227 L163,227 L161,228 L65,227 L54,226 L50,221 L44,205 L42,198 L37,194 L8,193 Z " fill="#000000" transform="translate(344,252)"/>
<path d="M0,0 L72,0 L81,1 L85,2 L87,5 L87,25 L85,29 L83,30 L10,29 L3,27 L-1,21 L-4,10 L-4,2 Z " fill="#000000" transform="translate(409,501)"/>
<path d="M0,0 L16,0 L57,1 L76,1 L81,5 L82,12 L81,27 L76,30 L5,30 L-3,29 L-7,25 L-8,14 L-6,4 L-3,1 Z " fill="#000000" transform="translate(532,502)"/>
<path d="M0,0 L42,1 L45,2 L54,2 L65,1 L76,2 L80,6 L83,12 L85,21 L86,28 L81,31 L49,31 L-2,30 L-6,28 L-7,26 L-7,4 L-4,1 Z " fill="#000000" transform="translate(649,503)"/>
<path d="M0,0 L2,2 L-1,3 Z " fill="#000000" transform="translate(751,897)"/>
<path d="M0,0 L20,0 L23,2 L0,2 Z " fill="#000000" transform="translate(870,1015)"/>
</svg>
