<?xml version="1.0" encoding="UTF-8"?>
<!-- Generator: visioncortex VTracer 0.6.12 -->
<svg version="1.1" xmlns="http://www.w3.org/2000/svg" width="1308" height="1227">
<path d="M0,0 L21,1 L42,1 L102,2 L154,3 L180,3 L188,4 L234,4 L247,5 L290,6 L352,6 L362,7 L394,7 L420,8 L434,8 L463,7 L470,8 L506,9 L537,9 L552,10 L600,10 L612,11 L677,11 L691,13 L726,13 L752,14 L780,14 L792,15 L833,15 L862,16 L879,18 L888,21 L898,23 L918,31 L928,37 L944,43 L949,47 L957,53 L963,60 L969,69 L980,87 L985,100 L986,122 L989,135 L987,188 L986,205 L985,245 L985,291 L984,300 L983,324 L982,387 L981,410 L981,430 L980,461 L979,511 L978,536 L978,560 L977,579 L977,608 L976,614 L976,651 L974,692 L974,732 L973,797 L972,824 L971,888 L971,908 L970,935 L970,953 L969,975 L969,1020 L968,1038 L963,1063 L959,1074 L953,1088 L950,1092 L948,1092 L946,1096 L941,1106 L930,1118 L920,1128 L916,1132 L902,1142 L874,1154 L862,1157 L852,1159 L794,1160 L764,1159 L742,1158 L697,1158 L649,1157 L622,1157 L569,1156 L528,1154 L490,1153 L456,1153 L428,1152 L366,1152 L346,1151 L315,1151 L286,1150 L217,1150 L207,1149 L128,1149 L121,1147 L118,1148 L80,1148 L-15,1146 L-20,1147 L-28,1147 L-45,1145 L-62,1144 L-88,1136 L-111,1124 L-120,1118 L-128,1111 L-140,1099 L-148,1089 L-156,1078 L-161,1071 L-166,1057 L-168,1050 L-170,1038 L-171,1034 L-172,1003 L-171,980 L-172,974 L-172,905 L-171,823 L-169,771 L-168,703 L-167,671 L-166,585 L-165,534 L-164,499 L-163,448 L-163,437 L-162,421 L-159,314 L-158,187 L-158,167 L-157,147 L-156,143 L-155,117 L-154,108 L-149,93 L-147,84 L-143,77 L-132,60 L-121,47 L-116,41 L-105,32 L-101,28 L-96,25 L-86,19 L-75,13 L-59,7 L-51,4 L-23,1 Z M-9,54 L-29,57 L-40,58 L-52,62 L-63,68 L-77,82 L-83,91 L-88,95 L-92,102 L-96,117 L-100,137 L-101,177 L-99,186 L-99,194 L-100,196 L-101,227 L-101,240 L-102,252 L-103,294 L-103,354 L-104,364 L-105,393 L-103,408 L-105,422 L-105,451 L-106,474 L-106,528 L-107,546 L-107,577 L-108,607 L-108,631 L-109,648 L-109,696 L-111,729 L-110,764 L-111,799 L-111,819 L-113,856 L-113,891 L-114,931 L-115,953 L-114,968 L-115,982 L-115,1006 L-113,1026 L-110,1040 L-103,1054 L-98,1062 L-96,1062 L-96,1064 L-91,1069 L-85,1074 L-69,1082 L-55,1087 L-44,1089 L-21,1089 L-4,1090 L21,1090 L59,1091 L62,1090 L86,1090 L120,1091 L131,1092 L186,1092 L231,1094 L284,1094 L301,1095 L354,1096 L415,1096 L427,1095 L446,1095 L453,1096 L470,1096 L485,1095 L489,1097 L518,1098 L567,1098 L615,1100 L654,1100 L695,1101 L708,1101 L736,1102 L809,1102 L813,1103 L844,1103 L858,1099 L873,1092 L885,1085 L892,1078 L896,1074 L902,1065 L906,1056 L910,1040 L912,1029 L913,995 L913,951 L914,928 L914,889 L916,868 L916,813 L917,785 L917,766 L918,747 L918,660 L919,645 L920,614 L921,530 L922,511 L922,480 L923,444 L925,420 L926,324 L927,314 L928,290 L928,250 L929,226 L929,189 L930,166 L930,150 L928,139 L924,128 L921,122 L919,115 L914,108 L904,101 L891,93 L882,88 L874,86 L861,85 L842,79 L829,77 L811,76 L795,73 L788,74 L775,74 L765,73 L701,71 L692,71 L683,72 L651,69 L627,69 L595,68 L590,67 L555,67 L547,68 L542,67 L523,67 L503,65 L490,65 L477,66 L472,65 L451,65 L447,64 L422,64 L375,63 L327,61 L238,61 L230,59 L222,60 L205,60 L155,59 L138,58 L99,58 L92,57 L27,57 L20,56 L2,55 L-1,54 Z " fill="#000000" transform="translate(247,35)"/>
<path d="M0,0 L13,5 L82,6 L103,6 L110,3 L115,4 L120,6 L150,6 L156,7 L204,7 L209,8 L217,8 L225,4 L226,3 L231,3 L238,7 L242,8 L253,8 L259,7 L276,10 L292,10 L300,6 L308,6 L315,9 L326,11 L341,11 L354,13 L364,12 L372,11 L379,10 L384,7 L391,7 L400,11 L409,13 L424,13 L427,14 L457,14 L462,11 L468,11 L473,14 L525,17 L539,16 L571,17 L594,16 L628,18 L639,18 L670,20 L707,20 L731,21 L739,20 L761,20 L780,23 L792,26 L803,31 L817,39 L826,49 L833,55 L838,65 L840,78 L840,94 L839,107 L838,145 L837,172 L837,200 L836,241 L836,274 L834,322 L833,388 L831,425 L830,487 L828,553 L827,618 L826,709 L825,735 L825,789 L824,799 L823,844 L823,875 L822,901 L822,930 L820,957 L818,967 L813,980 L807,988 L802,993 L793,1001 L785,1005 L774,1008 L735,1008 L694,1006 L613,1006 L575,1005 L561,1005 L542,1004 L500,1003 L489,1003 L485,1002 L439,1002 L340,1000 L318,999 L294,999 L237,998 L206,998 L194,997 L156,997 L95,996 L67,996 L42,995 L6,995 L-2,994 L-14,994 L-31,995 L-97,994 L-119,991 L-128,989 L-143,981 L-150,974 L-158,959 L-162,945 L-162,921 L-161,902 L-161,876 L-162,865 L-161,857 L-161,811 L-160,799 L-160,751 L-159,716 L-159,657 L-157,641 L-157,612 L-156,582 L-156,489 L-154,461 L-154,435 L-152,333 L-152,280 L-150,268 L-150,233 L-149,196 L-149,150 L-148,98 L-147,85 L-147,69 L-145,54 L-141,40 L-135,28 L-123,17 L-113,11 L-103,8 L-101,6 L-32,5 L-23,7 L-18,8 L-6,5 Z M3,60 L-2,63 L-5,65 L-5,68 L-10,69 L-13,75 L-13,90 L-10,95 L-4,100 L9,100 L16,97 L26,88 L28,82 L27,70 L24,65 L20,63 L18,68 L21,73 L21,79 L17,85 L9,91 L4,96 L0,95 L-6,92 L-7,83 L-5,72 L-4,67 L7,66 L10,62 L10,60 Z M583,360 L567,361 L554,363 L543,365 L530,371 L521,373 L509,378 L497,387 L488,393 L478,403 L471,411 L465,420 L456,437 L451,450 L448,460 L445,469 L444,476 L443,496 L441,510 L441,523 L442,543 L445,560 L448,577 L454,593 L461,607 L474,623 L481,632 L490,641 L502,649 L518,657 L536,664 L553,668 L565,669 L607,669 L627,665 L642,659 L652,655 L670,643 L678,635 L683,631 L693,618 L699,609 L707,593 L712,572 L712,564 L708,558 L702,555 L686,554 L671,554 L641,555 L635,559 L633,564 L630,573 L623,587 L614,598 L612,599 L612,601 L607,603 L594,609 L584,612 L574,612 L559,607 L551,602 L544,596 L539,591 L532,577 L529,565 L526,550 L525,540 L525,495 L528,474 L531,464 L533,455 L537,447 L539,442 L546,433 L553,427 L562,421 L571,416 L580,414 L589,415 L604,418 L613,424 L625,436 L630,447 L636,468 L641,472 L646,474 L701,475 L707,472 L710,467 L710,452 L705,432 L696,412 L687,400 L680,392 L676,387 L667,381 L649,371 L640,368 L632,366 L620,363 L594,360 Z M-51,359 L-56,361 L-59,365 L-59,374 L-52,397 L-49,405 L-41,430 L-34,453 L-29,467 L-27,475 L-23,485 L-20,493 L-14,516 L-9,530 L-5,545 L1,560 L6,578 L14,601 L17,612 L21,623 L24,632 L28,639 L37,646 L43,648 L57,648 L80,649 L100,647 L103,648 L116,648 L120,646 L128,630 L134,616 L140,596 L145,584 L150,571 L154,555 L159,540 L164,529 L175,494 L186,451 L189,442 L193,442 L196,455 L198,460 L203,488 L206,497 L209,509 L214,524 L219,543 L222,555 L230,577 L232,586 L238,599 L246,623 L250,636 L256,647 L262,650 L270,651 L309,652 L334,651 L340,646 L349,629 L352,619 L360,603 L364,591 L372,572 L380,551 L389,531 L396,511 L401,499 L409,475 L412,470 L417,454 L421,443 L428,428 L435,409 L439,398 L444,385 L445,381 L445,373 L441,368 L439,367 L416,367 L387,366 L372,370 L366,378 L355,408 L347,429 L343,440 L337,457 L332,473 L328,481 L323,498 L314,526 L310,541 L306,554 L303,567 L301,569 L297,570 L295,557 L293,551 L290,537 L284,514 L277,487 L270,462 L265,445 L260,427 L256,412 L251,397 L245,379 L241,368 L235,364 L232,363 L168,362 L160,365 L156,370 L147,389 L140,407 L133,424 L124,450 L117,469 L113,479 L101,515 L93,535 L91,540 L89,550 L84,560 L83,566 L78,566 L73,541 L67,513 L63,500 L59,481 L51,451 L49,441 L43,421 L38,404 L33,386 L29,377 L26,367 L21,362 L14,360 L-1,360 L-25,359 Z " fill="#000000" transform="translate(316,108)"/>
<path d="M0,0 L2,0 L4,7 L3,29 L0,32 Z " fill="#000000" transform="translate(0,137)"/>
</svg>
