<?xml version="1.0" encoding="UTF-8"?>
<!-- Generator: visioncortex VTracer 0.6.12 -->
<svg version="1.1" xmlns="http://www.w3.org/2000/svg" width="258" height="363">
<path d="M0,0 L6,1 L9,6 L10,10 L10,20 L11,29 L11,113 L12,125 L15,129 L34,131 L46,131 L66,132 L113,132 L122,133 L122,165 L46,165 L17,166 L13,169 L12,173 L12,283 L11,292 L7,295 L-41,295 L-46,290 L-46,278 L-48,257 L-50,253 L-53,252 L-77,252 L-95,251 L-100,247 L-100,213 L-101,164 L-101,43 L-97,39 L-77,39 L-54,38 L-51,34 L-50,28 L-49,6 L-45,1 L-14,1 Z " fill="#000000" transform="translate(136,36)"/>
</svg>
