<?xml version="1.0" encoding="UTF-8"?>
<!-- Generator: visioncortex VTracer 0.6.12 -->
<svg version="1.1" xmlns="http://www.w3.org/2000/svg" width="1107" height="1101">
<path d="M0,0 L991,0 L992,2 L1001,6 L1010,12 L1016,18 L1020,20 L1027,28 L1032,33 L1038,43 L1040,47 L1042,47 L1048,61 L1049,66 L1053,68 L1053,520 L1049,521 L999,521 L906,520 L846,520 L831,518 L827,516 L823,507 L823,505 L821,505 L812,488 L807,485 L803,482 L787,476 L784,472 L782,464 L780,447 L778,438 L775,437 L771,430 L771,428 L767,426 L762,423 L750,417 L740,416 L731,418 L720,422 L709,422 L697,419 L685,419 L673,422 L665,426 L656,432 L655,433 L642,433 L641,432 L634,431 L621,431 L610,435 L601,440 L599,440 L599,442 L594,445 L590,451 L585,453 L561,454 L549,460 L544,466 L539,470 L534,481 L532,487 L529,490 L524,507 L519,515 L515,517 L447,517 L439,513 L437,508 L437,248 L436,186 L436,164 L433,155 L428,151 L421,149 L376,148 L328,148 L322,151 L319,158 L318,263 L319,272 L319,500 L317,510 L312,515 L310,516 L298,516 L292,512 L290,507 L290,338 L289,254 L288,250 L290,239 L290,173 L289,159 L286,152 L281,149 L277,148 L241,147 L210,147 L185,146 L179,150 L177,152 L176,156 L175,219 L176,234 L176,502 L173,511 L169,514 L166,515 L81,515 L50,516 L42,517 L40,521 L40,555 L42,561 L46,564 L51,565 L103,566 L166,565 L173,569 L175,573 L176,582 L176,917 L179,926 L184,931 L186,932 L215,933 L232,933 L281,932 L287,928 L289,925 L290,886 L290,638 L289,589 L290,575 L294,568 L297,566 L313,566 L317,570 L319,585 L319,915 L321,927 L326,932 L328,933 L411,934 L426,933 L432,930 L435,926 L436,922 L437,849 L437,595 L438,572 L442,568 L446,566 L504,566 L512,569 L515,573 L519,588 L523,598 L528,621 L533,631 L538,648 L542,658 L548,670 L551,679 L556,690 L562,709 L564,717 L566,724 L569,740 L573,770 L576,788 L577,790 L582,829 L586,850 L590,883 L592,896 L594,915 L599,941 L603,974 L606,994 L608,1000 L612,1035 L615,1060 L619,1086 L620,1101 L-5,1101 L-14,1097 L-23,1092 L-33,1083 L-46,1066 L-53,1052 L-54,1051 L-54,61 L-52,61 L-50,53 L-43,41 L-34,30 L-23,18 L-18,13 L-5,3 Z " fill="#000000" transform="translate(54,0)"/>
<path d="M0,0 L133,0 L159,1 L194,3 L197,4 L197,478 L192,483 L187,496 L183,501 L180,504 L176,512 L172,514 L172,516 L167,520 L162,525 L156,529 L153,533 L51,533 L45,517 L41,505 L37,497 L32,478 L30,472 L28,472 L24,456 L20,444 L16,435 L11,418 L5,408 L-1,385 L-6,376 L-12,354 L-12,351 L-14,351 L-19,338 L-24,321 L-24,319 L-27,318 L-31,302 L-35,292 L-43,268 L-45,260 L-47,260 L-52,243 L-55,235 L-60,224 L-63,212 L-66,202 L-69,200 L-71,192 L-76,175 L-81,166 L-87,142 L-90,125 L-90,118 L-88,114 L-87,106 L-80,92 L-78,90 L-75,90 L-73,85 L-68,78 L-63,75 L-56,67 L-49,59 L-48,57 L-43,55 L-37,47 L-31,44 L-26,37 L-22,33 L-19,28 L-16,20 L-15,9 L-13,7 L-12,9 L-8,2 Z " fill="#000000" transform="translate(910,568)"/>
</svg>
