<?xml version="1.0" encoding="UTF-8"?>
<!-- Generator: visioncortex VTracer 0.6.12 -->
<svg version="1.1" xmlns="http://www.w3.org/2000/svg" width="513" height="711">
<path d="M0,0 L6,1 L9,4 L10,14 L7,24 L4,38 L-2,51 L-6,67 L-14,93 L-19,104 L-25,118 L-32,139 L-39,149 L-41,149 L-43,153 L-47,157 L-51,158 L-56,153 L-55,145 L-49,130 L-43,114 L-39,99 L-35,86 L-32,77 L-25,61 L-22,46 L-17,30 L-7,5 L-3,1 Z " fill="#000000" transform="translate(328,30)"/>
<path d="M0,0 L7,0 L12,5 L12,14 L9,22 L0,37 L-5,47 L-7,47 L-9,51 L-16,60 L-29,84 L-32,88 L-34,88 L-36,92 L-39,94 L-47,94 L-50,92 L-51,83 L-46,71 L-38,60 L-28,44 L-25,37 L-22,30 L-13,21 L-4,4 Z " fill="#000000" transform="translate(423,51)"/>
<path d="M0,0 L7,0 L12,5 L11,12 L7,25 L3,40 L-1,53 L-5,64 L-10,78 L-13,90 L-18,93 L-24,95 L-32,95 L-33,94 L-33,86 L-27,74 L-23,65 L-20,56 L-17,45 L-7,11 L-3,3 Z " fill="#000000" transform="translate(250,74)"/>
<path d="M0,0 L6,0 L11,5 L11,11 L4,22 L-5,33 L-19,48 L-32,63 L-38,70 L-44,80 L-52,87 L-61,97 L-68,106 L-70,106 L-72,110 L-81,118 L-86,124 L-94,130 L-99,131 L-102,128 L-100,123 L-89,108 L-79,85 L-65,70 L-58,60 L-52,55 L-48,50 L-43,45 L-34,34 L-31,29 L-23,22 L-8,6 L-2,1 Z " fill="#000000" transform="translate(474,117)"/>
<path d="M0,0 L7,0 L11,3 L12,6 L12,15 L8,26 L4,38 L1,49 L-9,79 L-13,85 L-23,100 L-30,111 L-38,127 L-42,136 L-45,137 L-47,136 L-48,130 L-44,116 L-40,105 L-37,96 L-34,88 L-30,74 L-27,66 L-24,56 L-19,41 L-11,16 L-6,6 L-2,1 Z " fill="#000000" transform="translate(191,156)"/>
<path d="M0,0 L6,2 L13,8 L16,17 L15,26 L11,41 L6,53 L0,61 L-12,82 L-20,91 L-27,103 L-26,109 L-24,110 L-1,111 L16,113 L24,117 L27,121 L27,131 L22,143 L18,149 L10,154 L-5,158 L-9,160 L-19,162 L-32,166 L-45,166 L-53,167 L-75,167 L-81,170 L-83,175 L-80,177 L-65,177 L-61,178 L-47,179 L-30,185 L-21,196 L-20,199 L-20,207 L-23,213 L-36,222 L-48,228 L-59,231 L-68,233 L-78,236 L-93,236 L-110,233 L-118,233 L-124,236 L-125,243 L-87,243 L-74,248 L-66,252 L-60,259 L-59,269 L-62,278 L-69,284 L-81,291 L-97,297 L-102,298 L-134,298 L-150,296 L-159,296 L-165,299 L-169,306 L-168,310 L-143,312 L-122,318 L-113,324 L-108,329 L-107,332 L-107,340 L-112,347 L-128,358 L-145,365 L-162,370 L-177,372 L-186,371 L-195,369 L-209,369 L-213,372 L-215,372 L-217,378 L-217,384 L-215,386 L-197,389 L-186,391 L-179,394 L-169,397 L-160,403 L-158,409 L-159,417 L-162,422 L-172,429 L-177,433 L-202,438 L-216,440 L-228,443 L-253,443 L-262,447 L-266,452 L-276,468 L-287,483 L-296,499 L-299,517 L-304,522 L-311,522 L-320,519 L-321,518 L-320,511 L-315,503 L-313,497 L-312,488 L-304,472 L-290,448 L-285,440 L-283,434 L-283,424 L-287,414 L-300,393 L-306,380 L-312,358 L-313,350 L-313,332 L-309,321 L-305,317 L-303,316 L-294,317 L-288,321 L-272,337 L-268,343 L-263,353 L-258,361 L-254,371 L-251,373 L-246,372 L-242,367 L-240,367 L-238,362 L-237,360 L-237,352 L-246,338 L-254,323 L-260,308 L-267,280 L-268,266 L-268,257 L-266,252 L-261,247 L-258,245 L-249,245 L-242,248 L-234,254 L-226,265 L-216,283 L-212,293 L-208,302 L-204,303 L-198,298 L-191,288 L-189,283 L-190,277 L-198,265 L-201,260 L-207,252 L-213,238 L-217,225 L-221,209 L-222,202 L-222,193 L-220,181 L-217,175 L-211,171 L-201,170 L-194,174 L-183,189 L-174,204 L-168,216 L-161,226 L-155,227 L-150,223 L-147,218 L-147,210 L-154,196 L-158,190 L-166,171 L-170,155 L-173,143 L-174,136 L-174,121 L-169,107 L-164,102 L-162,101 L-154,101 L-146,105 L-138,113 L-129,127 L-123,137 L-118,147 L-114,152 L-114,154 L-107,153 L-105,149 L-105,142 L-112,129 L-117,117 L-123,101 L-125,93 L-126,78 L-130,69 L-131,64 L-131,56 L-127,46 L-123,38 L-118,34 L-111,33 L-105,36 L-98,45 L-92,55 L-83,72 L-78,84 L-75,88 L-69,87 L-64,77 L-59,64 L-49,45 L-46,38 L-38,31 L-31,23 L-17,8 L-4,1 Z " fill="#000000" transform="translate(352,162)"/>
<path d="M0,0 L8,1 L11,5 L11,12 L7,18 L1,23 L-3,28 L-12,35 L-17,41 L-25,48 L-33,56 L-35,56 L-35,58 L-49,69 L-55,76 L-60,77 L-61,72 L-57,63 L-53,47 L-47,40 L-40,34 L-38,34 L-38,32 L-28,24 L-22,19 L-17,13 L-9,6 L-6,5 L-5,2 Z " fill="#000000" transform="translate(457,231)"/>
<path d="M0,0 L7,0 L10,3 L11,6 L11,19 L6,36 L-2,66 L-7,84 L-11,97 L-14,109 L-17,123 L-22,135 L-26,141 L-27,142 L-34,142 L-38,139 L-40,132 L-40,125 L-34,103 L-29,85 L-24,68 L-18,48 L-13,29 L-7,8 L-3,2 Z " fill="#000000" transform="translate(126,245)"/>
<path d="M0,0 L6,0 L10,3 L9,12 L-1,24 L-11,31 L-18,37 L-25,45 L-40,56 L-48,63 L-62,74 L-67,79 L-82,95 L-91,100 L-97,101 L-102,98 L-102,90 L-97,80 L-80,64 L-70,57 L-59,50 L-48,41 L-37,29 L-23,18 L-9,5 Z " fill="#000000" transform="translate(422,317)"/>
<path d="M0,0 L6,1 L10,8 L10,20 L6,32 L3,47 L-3,71 L-8,84 L-14,107 L-19,124 L-23,130 L-29,132 L-33,130 L-35,127 L-36,118 L-33,99 L-28,83 L-24,67 L-22,58 L-17,37 L-11,13 L-7,5 L-2,1 Z " fill="#000000" transform="translate(76,318)"/>
<path d="M0,0 L6,1 L9,4 L10,6 L10,13 L6,19 L-4,27 L-23,40 L-32,48 L-47,58 L-54,66 L-62,73 L-78,85 L-91,93 L-95,94 L-101,91 L-103,87 L-101,78 L-96,73 L-86,64 L-77,56 L-67,49 L-59,41 L-48,34 L-38,25 L-28,18 L-18,11 L-9,4 Z " fill="#000000" transform="translate(361,410)"/>
<path d="M0,0 L7,1 L10,5 L9,12 L4,18 L-4,25 L-19,35 L-28,43 L-36,49 L-44,56 L-54,62 L-67,73 L-75,80 L-80,82 L-87,81 L-89,78 L-89,72 L-81,62 L-67,52 L-55,41 L-47,35 L-38,32 L-38,30 L-36,30 L-34,26 L-26,19 L-18,13 L-9,4 L-4,1 Z " fill="#000000" transform="translate(307,488)"/>
</svg>
