<?xml version="1.0" encoding="UTF-8"?>
<!-- Generator: visioncortex VTracer 0.6.12 -->
<svg version="1.1" xmlns="http://www.w3.org/2000/svg" width="633" height="717">
<path d="M0,0 L10,0 L38,11 L49,15 L55,20 L70,29 L90,43 L95,47 L105,55 L110,60 L117,67 L124,77 L130,87 L137,101 L142,100 L144,74 L148,66 L152,63 L163,61 L174,61 L179,65 L181,70 L182,86 L181,110 L180,123 L185,122 L187,117 L197,101 L201,96 L205,90 L207,90 L209,86 L220,75 L228,68 L239,58 L251,51 L265,40 L277,33 L298,24 L313,17 L319,15 L326,16 L328,19 L328,30 L322,56 L320,67 L312,83 L306,95 L292,113 L284,124 L277,131 L272,137 L257,148 L246,155 L234,161 L217,166 L208,166 L184,168 L179,171 L178,174 L177,196 L176,221 L175,227 L174,270 L173,284 L178,283 L186,269 L190,262 L199,248 L213,233 L222,221 L227,216 L236,208 L250,198 L261,190 L277,182 L297,173 L310,169 L314,168 L322,168 L327,173 L327,182 L321,201 L318,211 L310,228 L302,244 L294,259 L282,273 L275,281 L268,288 L263,293 L254,300 L242,306 L233,312 L217,320 L204,324 L178,326 L173,329 L171,335 L169,363 L169,381 L168,401 L167,409 L167,444 L172,443 L179,429 L183,420 L188,410 L196,400 L203,392 L212,383 L214,383 L216,379 L220,374 L230,368 L239,362 L259,350 L268,346 L284,339 L297,336 L310,334 L318,334 L323,337 L325,344 L323,356 L318,368 L314,381 L302,400 L294,411 L288,421 L280,432 L273,441 L271,441 L270,444 L268,444 L266,448 L262,450 L261,453 L259,453 L257,457 L250,461 L241,466 L235,470 L221,477 L207,480 L191,485 L181,488 L170,489 L166,490 L165,493 L163,517 L162,555 L161,560 L160,575 L160,591 L158,614 L157,632 L157,652 L154,657 L147,660 L128,658 L123,655 L122,652 L123,601 L123,558 L121,556 L116,557 L102,567 L86,576 L66,584 L46,588 L33,588 L10,586 L-6,582 L-27,575 L-40,568 L-48,563 L-48,561 L-52,559 L-62,551 L-69,543 L-76,536 L-85,522 L-90,515 L-98,497 L-103,484 L-106,463 L-108,454 L-109,427 L-112,423 L-128,421 L-149,412 L-164,404 L-173,398 L-191,380 L-198,372 L-209,359 L-218,344 L-230,324 L-236,308 L-241,295 L-247,264 L-246,255 L-243,253 L-233,253 L-216,257 L-203,262 L-189,269 L-179,275 L-169,283 L-159,291 L-152,300 L-152,302 L-150,302 L-138,318 L-125,342 L-122,346 L-114,365 L-111,371 L-106,371 L-105,365 L-102,317 L-100,268 L-99,239 L-100,229 L-110,223 L-128,218 L-144,210 L-154,205 L-162,199 L-167,196 L-173,191 L-180,183 L-193,170 L-200,162 L-207,152 L-215,136 L-221,120 L-225,111 L-230,96 L-233,86 L-236,81 L-239,67 L-239,58 L-234,53 L-226,54 L-210,61 L-200,68 L-190,74 L-185,77 L-174,84 L-162,94 L-157,99 L-149,108 L-145,113 L-140,118 L-133,126 L-116,152 L-110,162 L-106,172 L-103,180 L-102,183 L-97,183 L-94,176 L-92,174 L-65,174 L-60,178 L-59,181 L-59,192 L-60,198 L-62,245 L-62,260 L-63,275 L-62,278 L-57,277 L-47,258 L-35,241 L-23,227 L-11,216 L0,207 L12,198 L19,194 L28,188 L41,183 L49,180 L64,177 L83,177 L88,181 L88,191 L84,205 L80,215 L74,225 L65,244 L56,254 L50,263 L38,276 L35,279 L33,279 L33,281 L25,288 L15,297 L5,304 L-11,315 L-20,318 L-29,321 L-40,323 L-56,325 L-61,328 L-64,332 L-66,354 L-68,398 L-68,410 L-69,416 L-71,460 L-71,467 L-65,486 L-61,496 L-54,507 L-51,513 L-50,516 L-48,516 L-41,525 L-33,531 L-26,537 L-21,539 L-16,538 L-17,519 L-18,502 L-18,469 L-15,447 L-9,423 L0,402 L4,393 L8,385 L14,375 L25,361 L31,353 L33,353 L34,350 L36,350 L37,347 L45,340 L51,335 L56,330 L63,324 L70,324 L73,329 L78,349 L79,362 L79,403 L74,422 L68,443 L63,460 L56,475 L51,488 L42,504 L36,511 L32,517 L23,529 L17,537 L15,537 L13,541 L11,545 L12,550 L14,551 L34,552 L50,550 L70,544 L87,535 L96,528 L104,521 L111,511 L120,497 L123,489 L127,473 L129,445 L130,407 L131,400 L132,383 L133,350 L134,339 L135,303 L137,262 L138,231 L139,218 L139,206 L140,194 L140,173 L138,168 L115,156 L99,148 L86,141 L76,133 L69,128 L69,126 L65,124 L57,116 L49,105 L37,91 L30,82 L24,73 L14,52 L9,42 L-2,15 L-3,12 L-3,4 Z " fill="#000000" transform="translate(277,29)"/>
</svg>
