<?xml version="1.0" encoding="UTF-8"?>
<!-- Generator: visioncortex VTracer 0.6.12 -->
<svg version="1.1" xmlns="http://www.w3.org/2000/svg" width="921" height="1074">
<path d="M0,0 L5,0 L8,3 L10,8 L11,21 L20,57 L22,64 L24,76 L30,105 L31,121 L35,145 L38,164 L40,177 L40,190 L37,199 L32,201 L28,197 L25,188 L23,170 L22,167 L21,153 L19,135 L16,119 L14,111 L9,75 L7,68 L5,57 L3,44 L-1,18 L-3,11 L-3,3 Z " fill="#000000" transform="translate(185,29)"/>
<path d="M0,0 L6,1 L11,10 L17,19 L24,30 L31,41 L36,51 L43,61 L51,76 L59,92 L67,109 L75,125 L79,136 L79,143 L72,144 L64,134 L54,115 L50,107 L45,95 L39,86 L26,61 L18,45 L14,38 L8,21 L0,6 L-1,2 Z " fill="#000000" transform="translate(114,81)"/>
<path d="M0,0 L4,1 L5,5 L1,25 L-8,51 L-12,61 L-20,81 L-25,93 L-31,109 L-39,125 L-42,129 L-47,128 L-48,123 L-42,103 L-38,94 L-32,76 L-29,68 L-24,56 L-20,45 L-14,29 L-8,16 L-4,3 Z " fill="#000000" transform="translate(292,94)"/>
<path d="M0,0 L5,1 L10,6 L18,14 L24,21 L31,26 L40,37 L52,49 L57,54 L63,61 L67,65 L77,78 L83,83 L88,91 L95,99 L100,107 L99,112 L94,117 L88,117 L80,110 L73,103 L73,101 L71,101 L64,93 L55,81 L55,79 L53,79 L40,62 L33,54 L29,48 L22,41 L17,33 L11,26 L7,20 L0,10 L-2,5 L-1,1 Z " fill="#000000" transform="translate(54,123)"/>
<path d="M0,0 L4,1 L5,5 L-2,21 L-10,37 L-16,48 L-28,70 L-42,97 L-49,109 L-55,116 L-60,116 L-62,113 L-61,104 L-55,92 L-49,81 L-46,75 L-43,68 L-39,64 L-32,48 L-22,32 L-16,23 L-6,7 Z " fill="#000000" transform="translate(346,130)"/>
<path d="M0,0 L3,0 L4,5 L0,15 L-13,44 L-18,56 L-27,71 L-31,80 L-37,91 L-41,100 L-51,118 L-59,132 L-62,135 L-67,135 L-71,131 L-72,128 L-72,121 L-67,112 L-59,99 L-50,86 L-42,70 L-33,54 L-25,41 L-13,18 L-2,1 Z " fill="#000000" transform="translate(363,207)"/>
<path d="M0,0 L5,0 L15,10 L21,14 L25,19 L32,24 L41,35 L49,42 L55,46 L64,57 L72,63 L75,66 L75,68 L77,68 L83,75 L88,80 L96,90 L97,96 L95,106 L93,108 L88,108 L75,95 L67,85 L61,77 L48,65 L44,59 L35,50 L32,46 L32,44 L28,42 L18,29 L12,22 L4,12 L0,8 L-2,2 Z " fill="#000000" transform="translate(59,213)"/>
<path d="M0,0 L9,1 L15,6 L19,16 L19,31 L14,45 L7,56 L2,62 L-12,69 L-19,68 L-24,62 L-25,58 L-25,47 L-24,38 L-18,22 L-10,8 L-3,1 Z " fill="#000000" transform="translate(251,243)"/>
<path d="M0,0 L13,2 L23,9 L33,19 L43,36 L47,44 L48,52 L46,65 L41,74 L33,78 L34,84 L43,94 L43,96 L50,97 L52,91 L59,82 L71,69 L79,65 L93,58 L99,59 L103,66 L104,71 L104,79 L100,95 L95,104 L87,115 L77,123 L68,125 L61,124 L58,122 L53,122 L48,131 L43,135 L38,136 L39,142 L46,151 L52,161 L53,165 L53,184 L50,190 L46,193 L34,192 L39,197 L47,203 L50,206 L50,208 L52,208 L55,217 L57,226 L56,234 L53,242 L46,250 L47,257 L52,262 L60,272 L62,273 L64,272 L69,262 L80,252 L88,246 L101,240 L106,238 L113,238 L118,242 L120,247 L120,254 L116,269 L111,279 L103,290 L101,290 L101,292 L95,296 L94,300 L108,301 L115,307 L116,311 L116,319 L113,332 L109,340 L106,348 L101,355 L98,357 L98,361 L108,363 L117,366 L121,372 L120,381 L117,388 L108,398 L102,404 L100,404 L100,406 L92,413 L76,420 L75,421 L68,420 L64,418 L61,414 L61,412 L56,412 L52,427 L46,434 L43,437 L44,442 L50,450 L54,458 L56,465 L55,478 L51,486 L43,491 L41,491 L42,499 L46,506 L50,518 L49,528 L46,535 L40,540 L31,539 L15,531 L9,527 L2,519 L-2,511 L-3,506 L-3,491 L1,484 L7,478 L6,472 L2,464 L0,444 L2,437 L5,434 L17,432 L16,426 L9,416 L4,405 L3,399 L3,387 L6,377 L11,372 L17,369 L26,368 L24,363 L15,353 L9,344 L6,334 L7,319 L10,312 L15,308 L22,306 L29,305 L30,301 L20,292 L12,277 L9,268 L9,258 L12,252 L17,248 L22,245 L22,240 L18,238 L11,230 L6,218 L5,215 L5,202 L8,196 L15,193 L31,192 L26,186 L17,179 L10,171 L4,161 L1,149 L2,140 L6,135 L17,131 L15,126 L7,116 L1,106 L-2,97 L-2,82 L1,76 L8,70 L7,63 L-4,47 L-10,31 L-11,22 L-11,12 L-7,4 Z M63,292 L56,300 L56,302 L51,304 L43,308 L42,312 L48,323 L53,333 L56,339 L60,339 L66,325 L75,314 L85,306 L85,302 L75,298 L68,292 Z M57,347 L53,357 L49,363 L43,368 L40,369 L39,373 L46,383 L51,391 L54,397 L58,396 L66,383 L74,374 L82,367 L81,363 L72,360 L64,354 L60,347 Z " fill="#000000" transform="translate(174,246)"/>
<path d="M0,0 L4,1 L4,6 L-3,21 L-11,37 L-20,51 L-32,72 L-40,88 L-50,106 L-58,118 L-68,133 L-73,139 L-79,139 L-82,135 L-81,126 L-75,118 L-67,105 L-60,94 L-56,83 L-50,75 L-38,56 L-33,50 L-27,39 L-21,30 L-14,20 L-7,9 L-2,1 Z " fill="#000000" transform="translate(388,261)"/>
<path d="M0,0 L9,3 L19,9 L36,25 L45,32 L55,42 L60,47 L67,53 L75,63 L87,75 L91,80 L96,85 L105,98 L107,104 L106,111 L104,113 L99,113 L91,106 L82,95 L75,87 L68,78 L62,73 L54,62 L48,58 L42,50 L26,35 L24,31 L22,31 L17,26 L12,21 L3,10 L-2,4 Z " fill="#000000" transform="translate(58,285)"/>
<path d="M0,0 L24,0 L35,4 L52,13 L62,22 L67,26 L80,47 L87,59 L92,72 L99,88 L103,103 L104,114 L107,130 L110,154 L110,165 L108,202 L106,215 L102,230 L97,243 L93,262 L85,278 L75,297 L71,305 L70,312 L79,309 L87,298 L93,291 L97,285 L103,276 L109,266 L118,247 L125,226 L130,221 L143,216 L152,214 L172,207 L179,204 L196,199 L205,196 L215,193 L230,188 L241,185 L254,180 L263,177 L282,172 L303,164 L319,159 L337,153 L344,151 L351,150 L358,147 L365,147 L366,152 L356,159 L340,167 L306,183 L285,188 L272,192 L256,197 L245,201 L239,204 L227,207 L199,216 L178,222 L162,228 L152,231 L142,237 L139,244 L135,255 L125,273 L120,282 L108,300 L99,311 L94,318 L94,323 L100,322 L116,316 L133,307 L142,302 L150,298 L157,296 L161,292 L181,281 L193,275 L201,275 L215,283 L229,291 L239,298 L250,304 L268,311 L277,311 L288,309 L296,305 L320,296 L329,293 L339,288 L344,288 L345,290 L340,295 L331,302 L314,313 L297,321 L284,329 L272,333 L265,332 L245,322 L235,316 L223,310 L209,301 L202,297 L200,295 L194,294 L182,298 L167,307 L148,317 L143,320 L134,325 L125,331 L119,335 L118,341 L122,347 L134,350 L142,352 L146,354 L155,353 L157,352 L166,352 L178,358 L188,357 L199,357 L206,361 L229,362 L236,365 L245,365 L252,364 L258,367 L265,367 L274,365 L283,369 L297,369 L304,372 L316,372 L326,375 L334,375 L345,374 L351,379 L352,381 L352,389 L350,396 L344,401 L337,404 L330,404 L326,403 L318,403 L315,404 L307,404 L298,403 L291,406 L285,405 L280,402 L276,401 L251,400 L237,401 L227,400 L214,400 L207,397 L198,398 L191,399 L182,396 L181,395 L174,395 L167,398 L158,397 L149,391 L131,391 L123,389 L117,389 L115,391 L115,397 L119,402 L129,410 L133,413 L133,415 L137,417 L149,425 L160,433 L168,439 L174,444 L182,448 L188,448 L201,442 L218,436 L234,428 L253,420 L257,419 L266,419 L276,422 L294,430 L306,436 L310,439 L319,444 L333,453 L349,465 L351,467 L350,471 L345,471 L326,460 L310,452 L283,441 L271,437 L263,437 L250,442 L228,451 L214,457 L206,461 L188,468 L178,468 L168,461 L155,452 L141,441 L130,433 L117,424 L109,418 L104,413 L98,409 L92,409 L94,416 L101,425 L107,433 L120,455 L128,471 L136,491 L138,498 L146,505 L160,511 L186,523 L202,531 L210,534 L235,546 L247,551 L255,555 L267,559 L273,564 L283,568 L299,576 L310,580 L319,586 L331,591 L339,595 L349,600 L372,613 L384,621 L388,627 L387,631 L381,632 L360,622 L348,618 L332,610 L316,602 L309,599 L299,594 L278,585 L270,581 L254,575 L239,567 L219,558 L191,545 L175,537 L160,531 L139,521 L128,515 L122,508 L116,488 L109,476 L101,460 L92,448 L91,443 L89,443 L82,434 L73,424 L67,417 L67,415 L62,414 L64,423 L69,437 L73,444 L78,457 L82,465 L88,485 L90,496 L92,505 L94,521 L95,527 L96,544 L97,577 L95,589 L94,601 L88,622 L84,638 L74,668 L66,684 L56,698 L49,709 L40,719 L30,727 L19,733 L7,738 L1,739 L-14,739 L-30,731 L-39,724 L-47,715 L-56,702 L-61,692 L-66,674 L-68,662 L-69,651 L-70,613 L-69,596 L-66,584 L-64,574 L-57,547 L-55,535 L-49,518 L-47,513 L-45,504 L-31,466 L-24,452 L-12,423 L-5,409 L-2,405 L-2,402 L-7,402 L-17,412 L-25,419 L-37,431 L-48,440 L-55,446 L-60,451 L-71,462 L-76,467 L-88,472 L-109,482 L-121,486 L-135,493 L-145,496 L-158,503 L-165,512 L-171,520 L-175,526 L-180,532 L-188,543 L-194,551 L-201,563 L-211,578 L-217,586 L-222,592 L-227,597 L-229,603 L-225,604 L-212,605 L-207,609 L-205,613 L-205,619 L-211,630 L-220,641 L-228,651 L-238,658 L-245,660 L-262,660 L-272,658 L-275,675 L-281,683 L-286,687 L-288,688 L-294,688 L-306,682 L-319,670 L-325,661 L-327,655 L-328,646 L-328,636 L-325,631 L-321,629 L-312,629 L-302,633 L-287,641 L-284,643 L-279,642 L-271,632 L-260,619 L-255,613 L-254,609 L-265,603 L-270,597 L-272,590 L-272,583 L-268,575 L-257,561 L-248,554 L-243,551 L-239,550 L-221,550 L-217,546 L-210,544 L-204,536 L-197,526 L-185,508 L-176,498 L-168,487 L-161,482 L-151,478 L-142,474 L-129,468 L-117,464 L-98,456 L-90,453 L-82,447 L-67,434 L-62,428 L-51,419 L-46,414 L-36,404 L-34,404 L-32,400 L-23,391 L-17,383 L-17,377 L-21,376 L-35,381 L-48,385 L-63,390 L-85,400 L-90,404 L-99,411 L-110,417 L-117,423 L-128,430 L-133,433 L-142,440 L-150,446 L-163,458 L-170,468 L-175,475 L-183,481 L-188,486 L-192,489 L-199,489 L-202,486 L-202,480 L-197,472 L-189,463 L-183,454 L-179,443 L-172,437 L-165,433 L-162,430 L-160,430 L-160,428 L-158,428 L-157,425 L-146,417 L-139,413 L-137,413 L-136,410 L-131,406 L-121,403 L-119,399 L-115,394 L-113,394 L-112,391 L-98,381 L-86,378 L-76,372 L-64,367 L-56,360 L-58,356 L-69,352 L-82,347 L-87,345 L-96,342 L-101,339 L-106,334 L-113,331 L-121,327 L-124,324 L-135,320 L-153,310 L-160,302 L-164,296 L-167,294 L-167,292 L-169,292 L-174,285 L-179,280 L-186,270 L-193,262 L-200,253 L-201,251 L-201,244 L-197,239 L-192,239 L-189,242 L-189,244 L-185,246 L-179,252 L-172,256 L-165,263 L-155,278 L-147,285 L-143,291 L-140,297 L-127,304 L-117,310 L-108,312 L-102,316 L-97,320 L-83,327 L-80,329 L-69,331 L-67,332 L-56,332 L-43,338 L-33,341 L-31,342 L-23,342 L-14,335 L-13,329 L-17,323 L-28,310 L-38,299 L-43,294 L-56,281 L-63,273 L-70,267 L-74,263 L-85,260 L-101,254 L-122,249 L-143,243 L-155,240 L-165,236 L-174,226 L-180,217 L-189,208 L-195,200 L-203,189 L-214,178 L-219,177 L-224,182 L-236,195 L-242,200 L-246,202 L-258,202 L-268,196 L-272,188 L-272,180 L-267,167 L-258,156 L-249,148 L-233,139 L-225,138 L-220,141 L-214,150 L-208,161 L-200,171 L-199,175 L-195,177 L-183,190 L-175,201 L-171,206 L-165,214 L-155,222 L-137,227 L-118,232 L-97,236 L-81,240 L-69,244 L-63,248 L-57,255 L-51,260 L-44,268 L-43,271 L-39,273 L-31,283 L-18,296 L-11,302 L-7,308 L-2,309 L-4,304 L-14,287 L-24,266 L-28,257 L-33,245 L-42,219 L-47,197 L-50,182 L-53,162 L-56,148 L-58,131 L-58,107 L-57,87 L-51,63 L-45,47 L-35,26 L-26,16 L-17,8 L-8,3 Z M5,18 L-7,22 L-13,27 L-14,29 L-15,42 L-16,44 L-24,46 L-30,55 L-36,73 L-39,90 L-40,98 L-40,132 L-36,160 L-33,166 L-24,176 L-19,181 L-8,193 L5,205 L10,209 L14,208 L15,201 L12,187 L7,164 L5,153 L0,131 L-4,116 L-9,88 L-13,72 L-17,57 L-16,52 L-12,52 L-9,59 L-6,70 L-3,77 L0,99 L2,111 L4,119 L10,150 L15,174 L18,192 L20,200 L23,212 L25,223 L25,233 L20,230 L15,222 L6,214 L-2,208 L-4,208 L-5,205 L-16,196 L-21,191 L-25,191 L-26,192 L-26,202 L-20,225 L-16,236 L-7,259 L1,272 L3,275 L6,284 L15,296 L23,307 L27,313 L31,314 L36,310 L45,311 L47,309 L48,297 L49,294 L53,295 L56,298 L60,296 L66,287 L71,276 L78,259 L85,238 L91,213 L93,205 L94,190 L95,178 L95,165 L93,134 L90,117 L86,100 L81,92 L75,91 L73,91 L76,84 L77,83 L77,76 L73,67 L66,54 L64,52 L59,53 L57,58 L56,85 L57,95 L57,105 L56,108 L55,142 L55,191 L54,201 L53,203 L53,215 L50,214 L51,205 L49,200 L49,161 L46,149 L41,141 L41,136 L47,131 L48,128 L48,110 L49,105 L48,34 L41,25 L34,21 L22,18 Z M13,421 L9,425 L2,437 L-2,446 L-6,454 L-16,479 L-21,495 L-29,517 L-34,533 L-40,551 L-43,568 L-43,575 L-40,580 L-35,580 L-24,571 L-11,558 L-3,548 L0,539 L3,520 L6,517 L9,518 L10,527 L6,548 L3,572 L3,591 L9,612 L12,621 L15,636 L20,647 L24,659 L29,684 L32,691 L33,692 L38,692 L47,681 L57,663 L63,646 L66,635 L74,606 L75,596 L71,588 L64,579 L58,571 L51,563 L48,562 L45,565 L44,568 L45,605 L47,637 L47,650 L43,649 L42,647 L39,614 L39,586 L40,578 L38,569 L37,540 L35,520 L31,472 L30,467 L28,440 L24,438 L22,439 L19,453 L17,472 L15,481 L11,481 L11,470 L13,454 L15,436 L17,428 L17,423 Z M38,423 L37,424 L37,439 L38,470 L42,521 L44,537 L47,545 L49,545 L51,550 L56,557 L60,561 L67,569 L70,572 L75,572 L77,566 L77,537 L75,508 L71,491 L69,479 L63,463 L58,454 L51,440 L48,434 L43,425 L41,423 Z M-9,566 L-15,570 L-26,581 L-26,583 L-29,584 L-29,586 L-32,587 L-37,592 L-45,599 L-48,605 L-50,614 L-51,639 L-49,660 L-46,669 L-43,684 L-36,696 L-28,704 L-23,702 L-21,698 L-20,682 L-15,655 L-11,624 L-8,601 L-6,589 L-4,570 L-5,567 Z M-3,619 L-5,622 L-9,655 L-12,683 L-13,712 L-11,716 L-6,716 L-1,710 L8,686 L13,666 L13,649 L11,641 L5,628 L2,620 Z M17,680 L13,685 L10,693 L7,709 L8,715 L13,716 L20,712 L24,707 L25,701 L21,681 Z " fill="#000000" transform="translate(507,285)"/>
<path d="M0,0 L7,1 L17,10 L25,16 L36,24 L40,29 L49,35 L59,44 L64,50 L72,57 L82,65 L97,80 L106,91 L113,98 L118,105 L119,108 L119,119 L117,122 L111,121 L91,101 L83,90 L71,78 L67,73 L62,68 L62,66 L58,64 L51,56 L44,48 L22,26 L22,24 L18,22 L7,12 L2,8 L0,5 Z " fill="#000000" transform="translate(48,341)"/>
<path d="M0,0 L6,1 L11,6 L13,10 L14,20 L11,31 L3,47 L-4,56 L-11,63 L-19,67 L-26,66 L-30,62 L-30,60 L-33,59 L-38,51 L-39,42 L-33,26 L-22,14 L-20,14 L-19,11 L-9,4 Z " fill="#000000" transform="translate(271,362)"/>
<path d="M0,0 L4,0 L3,6 L-6,23 L-10,29 L-18,45 L-26,61 L-32,70 L-37,71 L-39,69 L-39,63 L-35,55 L-32,48 L-27,39 L-20,29 L-14,19 L-4,4 Z " fill="#000000" transform="translate(382,375)"/>
<path d="M0,0 L5,1 L19,10 L30,19 L38,26 L45,32 L50,37 L54,42 L63,49 L69,53 L76,61 L85,70 L90,75 L98,83 L98,85 L102,87 L106,93 L119,107 L122,114 L121,121 L116,123 L103,113 L96,104 L87,94 L77,85 L71,77 L61,68 L54,59 L52,58 L52,56 L48,54 L42,49 L35,41 L25,31 L14,23 L9,18 L-1,8 L-2,2 Z " fill="#000000" transform="translate(39,393)"/>
<path d="M0,0 L5,0 L21,10 L31,16 L46,30 L51,35 L60,41 L68,49 L74,53 L81,58 L81,60 L84,61 L84,63 L88,65 L99,79 L99,81 L101,81 L109,92 L109,99 L106,106 L105,107 L100,107 L95,102 L84,92 L77,83 L72,78 L59,65 L52,57 L45,50 L35,42 L27,38 L20,29 L15,24 L5,14 L0,9 L-1,7 L-1,1 Z " fill="#000000" transform="translate(56,478)"/>
<path d="M0,0 L4,1 L9,25 L10,34 L10,46 L8,47 L4,43 L3,41 L-1,7 L-1,1 Z " fill="#000000" transform="translate(530,522)"/>
<path d="M0,0 L6,0 L20,11 L29,18 L42,26 L48,30 L52,34 L60,40 L65,45 L81,60 L91,71 L98,77 L105,85 L109,91 L109,100 L106,105 L102,106 L96,102 L88,95 L81,86 L70,75 L63,66 L58,62 L52,54 L44,47 L32,36 L24,29 L14,21 L9,15 L1,8 L-1,5 Z " fill="#000000" transform="translate(58,542)"/>
<path d="M0,0 L5,1 L5,5 L0,4 Z " fill="#000000" transform="translate(51,576)"/>
<path d="M0,0 L5,1 L9,4 L17,8 L25,15 L36,24 L44,31 L53,37 L56,40 L67,48 L80,59 L89,66 L103,81 L108,87 L111,93 L111,106 L106,110 L100,108 L96,103 L91,98 L81,88 L77,83 L72,78 L72,76 L69,75 L62,67 L54,60 L43,49 L35,42 L24,31 L16,24 L4,13 L-1,8 L-2,2 Z " fill="#000000" transform="translate(49,592)"/>
<path d="M0,0 L6,0 L19,8 L30,15 L40,23 L54,33 L63,41 L68,44 L76,52 L84,59 L88,64 L96,70 L110,84 L118,91 L125,98 L127,104 L127,112 L124,117 L118,116 L112,111 L108,106 L108,104 L104,102 L96,94 L90,87 L87,85 L87,83 L84,82 L77,74 L69,68 L64,62 L53,53 L41,42 L32,33 L22,25 L14,18 L5,12 L-1,7 L-2,1 Z " fill="#000000" transform="translate(37,642)"/>
<path d="M0,0 L7,1 L11,7 L11,22 L6,34 L-4,45 L-9,50 L-23,59 L-32,63 L-42,63 L-48,59 L-51,53 L-51,38 L-45,26 L-37,16 L-28,9 L-12,2 Z " fill="#000000" transform="translate(287,662)"/>
<path d="M0,0 L5,1 L14,7 L29,15 L38,22 L48,28 L55,35 L65,41 L73,48 L80,54 L88,61 L94,66 L94,68 L99,70 L107,77 L115,83 L124,92 L131,100 L133,105 L133,113 L129,120 L124,122 L116,116 L109,110 L102,102 L92,93 L87,87 L80,81 L73,73 L61,62 L56,57 L47,48 L36,40 L29,33 L23,29 L17,22 L6,14 L-1,8 L-2,2 Z " fill="#000000" transform="translate(36,704)"/>
<path d="M0,0 L22,0 L28,3 L35,11 L35,22 L30,32 L22,41 L20,41 L20,46 L29,51 L32,58 L30,71 L23,85 L16,91 L5,98 L2,99 L-8,99 L-15,95 L-19,88 L-19,78 L-14,67 L-2,53 L0,52 L0,48 L-12,43 L-17,37 L-18,34 L-18,26 L-14,14 L-5,4 L-2,1 Z " fill="#000000" transform="translate(256,729)"/>
<path d="M0,0 L10,2 L19,7 L34,17 L49,27 L57,34 L62,37 L62,39 L67,41 L80,50 L86,54 L86,56 L91,58 L97,63 L105,70 L113,78 L121,85 L134,96 L136,100 L136,109 L133,115 L130,117 L125,116 L120,111 L105,97 L97,89 L87,81 L83,76 L75,70 L60,57 L53,51 L49,46 L39,39 L30,32 L20,26 L13,20 L1,11 L-3,6 L-2,1 Z " fill="#000000" transform="translate(33,778)"/>
<path d="M0,0 L5,1 L6,6 L-6,22 L-18,36 L-27,47 L-38,57 L-45,65 L-53,74 L-58,79 L-62,82 L-66,81 L-68,76 L-65,71 L-61,69 L-59,65 L-52,56 L-42,46 L-33,35 L-21,22 L-10,10 Z " fill="#000000" transform="translate(402,782)"/>
<path d="M0,0 L12,0 L21,3 L35,10 L42,18 L46,26 L46,42 L44,53 L38,61 L30,63 L31,68 L41,78 L44,85 L45,91 L45,103 L41,111 L35,118 L33,119 L24,119 L13,113 L9,110 L9,108 L6,107 L-2,96 L-5,92 L-8,75 L-8,66 L-4,58 L11,56 L13,55 L12,49 L5,41 L-3,27 L-6,17 L-6,7 L-3,2 Z " fill="#000000" transform="translate(185,788)"/>
<path d="M0,0 L6,0 L11,4 L12,8 L12,20 L10,28 L8,44 L5,60 L2,63 L-2,64 L-12,64 L-16,62 L-19,56 L-20,46 L-15,11 L-11,5 L-6,1 Z " fill="#000000" transform="translate(233,982)"/>
</svg>
