<?xml version="1.0" encoding="UTF-8"?>
<!-- Generator: visioncortex VTracer 0.6.12 -->
<svg version="1.1" xmlns="http://www.w3.org/2000/svg" width="603" height="807">
<path d="M0,0 L16,0 L22,3 L24,7 L24,16 L17,32 L12,42 L8,48 L-2,56 L-12,63 L-17,66 L-25,69 L-42,71 L-52,73 L-61,73 L-77,76 L-91,78 L-114,80 L-123,82 L-140,84 L-152,86 L-157,88 L-165,90 L-169,92 L-170,97 L-166,102 L-162,103 L-126,100 L-120,99 L-106,98 L-98,96 L-91,96 L-53,90 L-27,87 L-18,85 L-2,83 L7,82 L19,82 L27,88 L27,96 L23,106 L19,113 L16,121 L6,133 L2,138 L-5,144 L-22,152 L-42,159 L-46,160 L-61,161 L-64,162 L-75,163 L-77,164 L-102,166 L-110,166 L-132,171 L-151,173 L-160,176 L-161,185 L-157,189 L-152,191 L-141,191 L-138,189 L-127,187 L-125,186 L-104,184 L-101,183 L-82,182 L-67,179 L-51,178 L-46,177 L-28,176 L-19,174 L1,173 L6,171 L20,172 L24,176 L26,181 L26,190 L20,205 L10,219 L1,227 L-4,231 L-18,236 L-40,241 L-68,245 L-73,247 L-74,251 L-71,255 L-71,257 L-66,259 L-49,259 L-26,256 L5,254 L14,253 L21,254 L24,259 L24,266 L21,276 L16,286 L10,295 L8,295 L6,299 L-4,312 L-6,320 L-3,329 L4,340 L15,361 L18,370 L21,375 L27,391 L31,404 L36,421 L37,427 L38,444 L41,448 L42,464 L43,473 L43,483 L42,496 L41,500 L40,516 L36,541 L32,560 L29,569 L26,575 L22,590 L12,609 L5,620 L-3,634 L-13,647 L-19,655 L-28,665 L-33,670 L-40,677 L-49,684 L-55,691 L-66,699 L-83,711 L-97,719 L-107,725 L-125,731 L-134,735 L-151,741 L-167,745 L-185,747 L-187,748 L-199,750 L-210,752 L-217,751 L-245,750 L-268,748 L-275,746 L-292,743 L-305,739 L-331,730 L-341,725 L-349,721 L-363,713 L-372,709 L-381,703 L-387,699 L-395,692 L-403,686 L-410,680 L-416,673 L-423,667 L-430,659 L-440,649 L-448,638 L-454,629 L-461,619 L-467,610 L-473,600 L-480,588 L-486,572 L-490,556 L-495,541 L-501,509 L-503,490 L-504,469 L-503,459 L-502,442 L-498,426 L-494,407 L-493,394 L-487,380 L-481,364 L-473,348 L-463,332 L-454,315 L-445,305 L-442,300 L-432,290 L-428,285 L-420,278 L-418,278 L-416,274 L-406,264 L-395,256 L-387,251 L-376,244 L-368,238 L-358,232 L-356,232 L-353,220 L-354,202 L-356,186 L-355,163 L-353,151 L-351,139 L-347,125 L-339,109 L-332,97 L-322,83 L-319,79 L-317,79 L-315,75 L-306,68 L-296,60 L-280,52 L-270,45 L-251,37 L-232,33 L-211,30 L-199,29 L-182,26 L-149,22 L-128,18 L-107,16 L-97,14 L-73,12 L-57,10 L-52,8 L-41,7 L-31,5 L-12,3 Z M-83,221 L-84,225 L-81,225 L-82,221 Z M-344,322 L-356,330 L-362,335 L-362,337 L-366,339 L-369,341 L-369,343 L-371,343 L-380,356 L-388,366 L-394,374 L-399,384 L-406,398 L-410,406 L-412,411 L-414,425 L-417,437 L-419,458 L-419,495 L-415,515 L-413,526 L-408,542 L-406,545 L-404,556 L-400,562 L-396,570 L-389,580 L-376,597 L-373,602 L-368,605 L-363,612 L-357,616 L-353,622 L-344,629 L-333,637 L-318,645 L-310,649 L-300,654 L-293,658 L-286,659 L-276,663 L-259,667 L-247,669 L-240,670 L-211,669 L-200,667 L-186,666 L-169,661 L-146,652 L-131,644 L-120,637 L-116,634 L-116,632 L-112,630 L-102,622 L-97,618 L-92,613 L-81,599 L-73,589 L-67,578 L-61,569 L-53,551 L-50,543 L-46,527 L-43,509 L-41,488 L-42,464 L-44,446 L-48,433 L-50,424 L-59,398 L-64,387 L-74,371 L-84,360 L-91,352 L-100,344 L-108,345 L-121,353 L-126,358 L-133,366 L-143,382 L-153,405 L-155,415 L-156,423 L-157,449 L-155,461 L-155,471 L-157,476 L-157,483 L-155,488 L-155,499 L-157,506 L-165,522 L-171,531 L-176,537 L-184,543 L-193,547 L-201,552 L-208,554 L-218,555 L-245,555 L-264,548 L-275,541 L-282,535 L-290,528 L-298,517 L-303,506 L-306,494 L-308,472 L-311,461 L-314,437 L-315,434 L-316,422 L-319,409 L-322,392 L-326,372 L-330,349 L-334,332 L-338,323 Z " fill="#000000" transform="translate(534,30)"/>
</svg>
