<?xml version="1.0" encoding="UTF-8"?>
<!-- Generator: visioncortex VTracer 0.6.12 -->
<svg version="1.1" xmlns="http://www.w3.org/2000/svg" width="675" height="885">
<path d="M0,0 L12,0 L25,3 L29,8 L31,18 L31,57 L30,66 L31,91 L29,135 L29,171 L32,176 L35,178 L57,177 L101,177 L121,176 L139,176 L174,175 L184,174 L194,174 L203,173 L219,173 L231,172 L245,174 L271,177 L278,178 L287,178 L297,184 L307,189 L315,199 L315,207 L312,223 L308,240 L306,250 L301,254 L279,254 L277,255 L275,267 L274,289 L273,296 L273,306 L272,322 L272,333 L269,336 L253,339 L250,349 L247,363 L245,381 L239,402 L239,420 L247,434 L247,450 L242,475 L239,498 L236,503 L229,504 L221,504 L218,507 L214,518 L209,549 L207,561 L203,583 L205,595 L207,600 L214,609 L214,627 L213,645 L212,651 L211,667 L208,673 L202,677 L192,680 L186,685 L181,699 L173,727 L171,735 L166,759 L164,763 L162,772 L157,792 L151,801 L141,808 L130,812 L123,813 L81,814 L-106,814 L-114,813 L-126,814 L-144,814 L-157,810 L-168,805 L-175,802 L-181,795 L-190,788 L-194,786 L-207,785 L-220,785 L-227,786 L-256,783 L-258,780 L-262,755 L-262,738 L-259,727 L-255,722 L-247,718 L-231,717 L-221,716 L-210,715 L-207,713 L-207,699 L-211,684 L-214,681 L-224,677 L-227,666 L-230,640 L-230,615 L-227,610 L-223,604 L-224,596 L-229,565 L-234,544 L-237,532 L-237,518 L-240,513 L-245,511 L-255,509 L-261,504 L-263,500 L-262,494 L-262,484 L-263,466 L-263,448 L-261,439 L-253,426 L-253,411 L-257,394 L-258,382 L-263,367 L-267,354 L-273,350 L-282,348 L-288,343 L-289,336 L-289,323 L-290,307 L-291,268 L-290,256 L-282,242 L-281,222 L-282,200 L-282,182 L-276,177 L-262,177 L-240,178 L-179,179 L-119,178 L-66,178 L-55,177 L-51,174 L-50,87 L-50,48 L-49,21 L-47,7 L-41,2 L-34,1 L-3,1 Z M34,188 L29,194 L28,201 L28,272 L27,283 L27,310 L26,324 L25,327 L20,329 L11,330 L1,330 L-8,326 L-15,327 L-22,329 L-37,329 L-43,326 L-46,321 L-48,295 L-48,247 L-49,236 L-48,230 L-48,210 L-50,192 L-55,190 L-58,192 L-59,196 L-59,219 L-58,235 L-61,247 L-64,250 L-71,251 L-168,251 L-185,250 L-232,250 L-245,249 L-258,250 L-262,252 L-262,257 L-258,260 L-246,261 L-237,260 L-198,260 L-166,259 L-132,259 L-126,260 L-75,260 L-64,257 L-61,254 L-57,254 L-55,260 L-59,271 L-59,335 L-55,341 L-43,341 L-41,340 L2,340 L6,341 L25,341 L34,338 L37,333 L37,297 L40,288 L41,287 L46,287 L53,295 L57,301 L59,311 L60,313 L61,322 L61,344 L59,353 L54,366 L48,375 L43,381 L33,389 L17,399 L-5,404 L-25,403 L-30,401 L-39,399 L-55,391 L-66,382 L-69,379 L-73,380 L-72,385 L-62,394 L-49,402 L-39,407 L-29,409 L-27,410 L-11,410 L8,409 L22,404 L33,398 L42,391 L49,385 L58,372 L64,363 L69,350 L70,342 L70,321 L66,305 L62,295 L57,286 L50,277 L41,267 L37,260 L37,226 L38,213 L39,209 L45,210 L49,215 L57,221 L65,228 L73,234 L86,245 L92,254 L99,265 L104,274 L108,283 L114,308 L117,327 L118,338 L115,350 L113,361 L110,373 L102,390 L95,400 L89,408 L83,415 L69,426 L61,431 L55,436 L55,438 L49,440 L43,445 L40,450 L25,450 L22,452 L8,455 L-8,456 L-19,456 L-38,454 L-51,450 L-64,447 L-70,444 L-75,440 L-82,438 L-93,430 L-102,423 L-106,418 L-112,413 L-119,403 L-124,396 L-133,377 L-136,368 L-139,352 L-139,319 L-133,314 L-110,314 L-99,317 L-95,321 L-95,336 L-91,352 L-86,365 L-81,373 L-76,374 L-75,370 L-82,356 L-85,344 L-85,324 L-83,310 L-87,305 L-89,304 L-105,303 L-133,304 L-141,303 L-146,307 L-149,316 L-151,326 L-156,329 L-173,331 L-246,331 L-249,333 L-248,338 L-244,340 L-228,339 L-223,340 L-167,340 L-155,341 L-150,347 L-147,357 L-145,367 L-139,382 L-132,396 L-122,412 L-116,424 L-116,429 L-119,431 L-193,430 L-222,431 L-223,432 L-223,437 L-219,439 L-199,439 L-164,440 L-142,440 L-136,439 L-123,439 L-93,441 L-79,450 L-67,456 L-57,459 L-48,462 L-39,465 L-29,466 L-2,466 L15,463 L26,461 L35,458 L42,453 L51,451 L59,447 L71,442 L82,440 L114,439 L137,439 L146,438 L174,438 L183,439 L202,438 L207,435 L206,431 L201,429 L98,429 L95,428 L94,426 L94,420 L96,414 L98,414 L104,405 L109,397 L118,378 L120,373 L120,366 L125,358 L128,346 L132,342 L137,340 L199,338 L220,338 L227,336 L228,331 L226,329 L210,330 L187,331 L163,331 L146,330 L141,329 L134,329 L129,324 L126,312 L123,296 L118,282 L113,272 L112,264 L113,259 L124,258 L145,258 L245,257 L248,254 L247,250 L246,249 L199,250 L177,251 L118,251 L102,250 L95,246 L88,238 L73,224 L65,216 L56,205 L45,191 L41,188 Z M181,188 L177,192 L178,199 L179,200 L185,200 L188,197 L188,192 L183,188 Z M215,188 L212,192 L212,198 L217,203 L221,201 L225,196 L224,191 L219,188 Z M146,189 L143,193 L144,197 L149,198 L152,196 L152,191 L150,189 Z M-147,191 L-151,197 L-149,201 L-145,202 L-141,200 L-142,193 L-144,191 Z M107,191 L105,198 L107,201 L112,201 L115,196 L112,191 Z M-110,192 L-113,195 L-112,200 L-110,202 L-106,201 L-104,199 L-105,194 Z M67,192 L65,194 L66,199 L67,200 L72,200 L73,199 L73,194 L71,192 Z M-255,192 L-259,195 L-258,200 L-256,202 L-251,201 L-250,197 L-252,193 Z M-185,193 L-187,196 L-187,201 L-185,203 L-181,202 L-178,199 L-179,194 L-180,193 Z M-221,194 L-223,196 L-223,201 L-218,202 L-216,200 L-216,195 Z M-78,194 L-80,198 L-79,200 L-74,200 L-73,197 L-75,194 Z M-202,269 L-203,270 L-203,277 L-198,279 L-195,277 L-195,272 L-198,269 Z M-242,272 L-244,274 L-244,280 L-242,282 L-237,281 L-236,274 L-238,272 Z M-116,272 L-119,276 L-118,281 L-115,284 L-110,283 L-110,276 L-114,272 Z M237,273 L238,278 L241,277 L240,273 Z M158,274 L157,275 L157,280 L161,281 L162,280 L162,275 Z M-90,274 L-92,275 L-92,281 L-87,282 L-86,281 L-86,276 Z M-241,303 L-243,306 L-242,311 L-240,313 L-235,312 L-234,306 L-236,303 Z M-205,303 L-208,307 L-207,312 L-200,313 L-198,311 L-198,306 L-201,303 Z M187,305 L187,311 L192,313 L194,310 L193,305 Z M71,449 L68,452 L68,457 L69,458 L74,458 L76,456 L76,450 Z M167,486 L157,487 L6,488 L-28,488 L-34,489 L-98,488 L-143,488 L-213,489 L-217,493 L-214,496 L-177,496 L-153,497 L-126,497 L-118,496 L-109,497 L-92,497 L-71,496 L-53,496 L-19,497 L1,496 L75,496 L96,495 L177,495 L186,494 L190,492 L191,489 L187,487 Z M96,602 L91,603 L-75,603 L-98,604 L-126,603 L-194,604 L-197,606 L-196,611 L-194,612 L-100,612 L-95,613 L-68,613 L-61,612 L53,612 L78,611 L174,611 L184,610 L186,608 L185,604 L184,603 L158,603 Z M122,661 L88,662 L-178,662 L-182,664 L-183,668 L-180,675 L-174,676 L-91,676 L-85,675 L-60,675 L-43,674 L-25,674 L-22,673 L-10,672 L76,671 L123,671 L148,670 L162,671 L167,668 L168,664 L164,661 Z M92,781 L88,783 L89,790 L92,792 L98,792 L100,787 L97,782 Z M-37,782 L-38,784 L-37,786 L-33,786 L-32,783 Z M127,781 L124,782 L123,787 L128,793 L132,792 L134,790 L134,785 L131,782 Z " fill="#000000" transform="translate(326,37)"/>
</svg>
