<?xml version="1.0" encoding="UTF-8"?>
<!-- Generator: visioncortex VTracer 0.6.12 -->
<svg version="1.1" xmlns="http://www.w3.org/2000/svg" width="1314" height="1365">
<path d="M0,0 L1314,0 L1314,42 L1135,42 L1058,43 L1025,43 L1018,42 L967,43 L931,43 L864,44 L819,44 L757,45 L737,45 L671,46 L605,47 L548,47 L540,48 L506,48 L425,49 L347,50 L317,51 L295,51 L218,52 L188,53 L122,53 L101,54 L78,54 L0,55 Z " fill="#000000" transform="translate(0,0)"/>
<path d="M0,0 L51,0 L55,4 L58,20 L58,110 L57,121 L58,130 L58,192 L59,307 L60,390 L60,420 L61,475 L61,497 L62,578 L62,882 L63,891 L63,911 L64,956 L64,1004 L62,1010 L60,1011 L-22,1011 L-140,1012 L-174,1012 L-178,1013 L-221,1013 L-239,1014 L-277,1013 L-279,1012 L-285,1012 L-287,1013 L-302,1014 L-357,1014 L-436,1015 L-479,1015 L-546,1016 L-552,1015 L-556,1016 L-585,1016 L-648,1017 L-696,1017 L-746,1018 L-805,1018 L-833,1019 L-877,1019 L-912,1020 L-976,1021 L-979,1016 L-980,1013 L-980,960 L-982,897 L-981,743 L-982,727 L-981,720 L-982,677 L-982,550 L-983,542 L-983,494 L-984,367 L-985,314 L-984,283 L-985,249 L-985,49 L-986,43 L-986,31 L-983,19 L-976,15 L-966,13 L-929,12 L-904,12 L-819,11 L-772,10 L-740,10 L-704,9 L-631,8 L-580,8 L-574,7 L-565,8 L-561,7 L-535,7 L-469,6 L-449,6 L-385,5 L-319,5 L-316,4 L-265,3 L-222,3 L-142,2 L-85,1 L-21,1 Z M-111,12 L-134,13 L-151,13 L-180,14 L-215,14 L-290,15 L-320,15 L-378,16 L-407,16 L-428,17 L-447,17 L-519,18 L-566,18 L-634,19 L-652,19 L-684,20 L-793,21 L-823,21 L-829,22 L-872,22 L-966,24 L-971,29 L-972,91 L-972,221 L-973,240 L-972,265 L-972,307 L-971,388 L-971,426 L-970,469 L-970,578 L-969,597 L-969,888 L-967,970 L-967,996 L-965,1006 L-963,1008 L-849,1008 L-802,1007 L-741,1007 L-729,1006 L-720,1007 L-711,1006 L-636,1006 L-600,1005 L-561,1005 L-530,1004 L-508,1005 L-458,1004 L-360,1004 L-350,1003 L-267,1003 L-260,1004 L-257,1003 L-201,1002 L-171,1002 L-151,1001 L-132,1001 L-128,1000 L-74,1000 L-70,1002 L-63,1001 L-61,1000 L29,1000 L35,1001 L47,999 L50,996 L52,986 L51,911 L50,874 L50,746 L51,732 L51,674 L50,660 L50,625 L49,437 L49,378 L48,362 L47,312 L47,140 L46,116 L46,54 L45,24 L43,13 L42,12 Z " fill="#000000" transform="translate(1121,129)"/>
<path d="M0,0 L2,0 L2,2 L0,2 Z " fill="#000000" transform="translate(912,190)"/>
<path d="M0,0 L28,1 L32,5 L33,25 L33,192 L31,220 L27,245 L20,268 L15,281 L10,294 L1,310 L-5,319 L-10,328 L-23,344 L-27,349 L-29,349 L-31,353 L-53,375 L-59,379 L-61,379 L-63,386 L-64,387 L-73,388 L-86,396 L-102,405 L-108,408 L-114,410 L-122,414 L-138,419 L-146,423 L-149,431 L-149,666 L-148,675 L-145,680 L-142,681 L-125,682 L-64,681 L-48,683 L-38,682 L-29,685 L-17,692 L-10,698 L-2,711 L1,718 L2,725 L2,737 L-1,748 L-6,757 L-14,766 L-16,766 L-17,769 L-31,776 L-37,778 L-50,779 L-130,779 L-136,780 L-153,780 L-162,779 L-184,779 L-208,780 L-217,781 L-320,781 L-359,782 L-369,780 L-374,777 L-383,772 L-388,767 L-394,758 L-398,749 L-401,742 L-401,730 L-397,714 L-389,703 L-383,696 L-373,690 L-365,687 L-355,685 L-334,684 L-309,684 L-263,683 L-256,681 L-253,677 L-251,668 L-251,488 L-252,467 L-251,450 L-252,429 L-254,424 L-262,420 L-277,416 L-285,412 L-294,409 L-311,401 L-325,393 L-331,388 L-342,383 L-348,376 L-358,369 L-367,359 L-373,354 L-376,351 L-376,349 L-378,349 L-386,338 L-394,327 L-406,306 L-415,287 L-419,278 L-426,258 L-428,248 L-431,231 L-432,220 L-432,208 L-433,204 L-433,186 L-434,131 L-434,23 L-432,10 L-427,7 L-415,7 L-409,6 L-376,5 L-291,5 L-264,4 L-257,3 L-202,3 L-124,2 L-104,2 L-71,1 Z M-417,152 L-417,157 L-413,156 L-414,152 Z M-319,268 L-319,272 L-315,272 L-315,268 Z " fill="#000000" transform="translate(855,264)"/>
<path d="M0,0 L10,0 L22,4 L30,9 L32,13 L32,25 L27,26 L23,22 L20,17 L13,13 L-2,13 L-12,19 L-16,23 L-19,37 L-19,47 L-16,59 L-10,67 L-5,71 L8,73 L16,71 L16,69 L22,64 L28,53 L30,51 L36,51 L38,53 L36,62 L30,73 L25,78 L17,82 L11,84 L-2,84 L-11,83 L-21,74 L-26,68 L-30,59 L-32,50 L-32,35 L-29,24 L-24,15 L-16,6 Z " fill="#000000" transform="translate(658,1224)"/>
<path d="M0,0 L7,1 L11,7 L13,14 L17,24 L23,38 L27,49 L32,61 L36,74 L36,80 L34,82 L28,81 L24,75 L19,61 L19,59 L9,57 L-11,58 L-15,60 L-19,69 L-23,79 L-26,82 L-32,82 L-34,80 L-34,74 L-31,68 L-25,51 L-20,39 L-15,25 L-10,13 L-7,4 L-3,1 Z M-1,22 L-4,27 L-8,37 L-9,44 L-6,47 L8,47 L11,43 L10,37 L5,24 L3,22 Z " fill="#000000" transform="translate(739,1226)"/>
<path d="M0,0 L29,1 L37,1 L49,6 L56,13 L60,23 L62,30 L62,41 L60,56 L57,61 L53,69 L47,76 L40,81 L28,82 L0,82 L-3,80 L-4,54 L-4,3 L-3,1 Z M12,12 L9,15 L8,18 L7,57 L9,68 L16,71 L35,71 L41,68 L45,63 L48,55 L49,51 L49,35 L46,23 L43,17 L35,13 L31,12 Z " fill="#000000" transform="translate(550,1227)"/>
<path d="M0,0 L6,2 L10,10 L16,24 L21,39 L21,47 L25,51 L30,62 L34,75 L34,80 L30,82 L24,79 L18,64 L15,59 L13,58 L-13,58 L-18,63 L-25,79 L-29,82 L-35,81 L-36,76 L-29,56 L-24,47 L-20,36 L-17,26 L-13,16 L-10,9 L-7,3 L-5,1 Z M-2,22 L-6,26 L-10,39 L-10,46 L-7,48 L7,47 L9,44 L8,37 L3,24 Z " fill="#000000" transform="translate(497,1228)"/>
<path d="M0,0 L8,0 L14,3 L24,28 L29,40 L33,49 L36,58 L40,66 L40,80 L39,81 L32,80 L27,72 L22,59 L20,57 L-8,57 L-11,60 L-17,76 L-22,81 L-28,80 L-29,79 L-28,69 L-24,57 L-18,45 L-12,28 L-6,12 L-2,2 Z M4,22 L0,27 L-4,38 L-4,43 L-1,46 L7,47 L14,44 L15,42 L14,33 L9,24 L7,22 Z " fill="#000000" transform="translate(323,1234)"/>
<path d="M0,0 L9,0 L14,5 L21,25 L25,35 L31,47 L37,45 L36,54 L40,61 L42,66 L41,74 L43,84 L37,83 L31,80 L28,77 L21,59 L21,57 L11,57 L4,59 L-8,59 L-14,67 L-19,78 L-25,82 L-30,80 L-31,75 L-29,67 L-28,57 L-20,47 L-16,37 L-13,29 L-8,15 L-3,3 Z M2,22 L0,27 L-2,34 L-3,35 L-3,42 L-1,45 L3,44 L7,42 L8,45 L13,45 L14,44 L14,36 L10,29 L7,22 Z " fill="#000000" transform="translate(245,1235)"/>
<path d="M0,0 L35,0 L47,5 L53,12 L54,16 L54,27 L50,34 L51,39 L56,45 L60,53 L59,59 L55,69 L50,75 L46,77 L34,80 L30,82 L25,81 L2,80 L-1,79 L-4,73 L-4,55 L-5,15 L-4,3 Z M11,10 L7,16 L7,25 L9,31 L14,34 L33,34 L39,31 L43,25 L43,17 L38,11 L36,10 Z M13,42 L9,44 L8,46 L7,58 L9,66 L12,69 L20,69 L23,67 L28,68 L29,69 L40,68 L46,61 L46,51 L42,45 L35,42 Z " fill="#000000" transform="translate(146,1237)"/>
<path d="M0,0 L2,1 L3,7 L-1,6 L-1,1 Z " fill="#000000" transform="translate(271,1324)"/>
</svg>
