<?xml version="1.0" encoding="UTF-8"?>
<!-- Generator: visioncortex VTracer 0.6.12 -->
<svg version="1.1" xmlns="http://www.w3.org/2000/svg" width="489" height="903">
<path d="M0,0 L50,0 L74,1 L82,5 L83,7 L83,59 L80,67 L77,72 L76,83 L76,113 L77,130 L83,156 L92,181 L100,199 L110,213 L118,224 L122,228 L132,246 L141,263 L146,280 L149,290 L152,311 L153,326 L153,767 L152,827 L149,836 L143,843 L137,846 L117,847 L105,847 L77,846 L38,846 L10,847 L-12,847 L-22,846 L-68,846 L-85,844 L-93,839 L-97,834 L-98,830 L-97,595 L-97,475 L-96,464 L-96,443 L-97,334 L-97,299 L-91,281 L-87,271 L-80,257 L-77,251 L-69,240 L-63,231 L-54,219 L-52,219 L-50,214 L-43,200 L-37,189 L-28,173 L-23,161 L-16,138 L-13,125 L-11,83 L-11,75 L-13,63 L-17,54 L-18,50 L-18,6 L-13,2 Z M11,16 L0,17 L-5,22 L-6,31 L-5,48 L0,53 L25,54 L47,54 L64,53 L68,50 L69,47 L69,25 L67,20 L64,18 L41,17 L30,16 Z M10,67 L6,69 L4,76 L5,102 L9,105 L15,106 L45,106 L54,105 L57,102 L59,87 L58,73 L55,68 L26,67 Z M16,117 L7,118 L4,121 L3,123 L3,135 L6,137 L25,138 L54,138 L58,135 L58,123 L56,119 L47,117 Z M-45,231 L-48,234 L-47,240 L-40,252 L-30,263 L-26,269 L-17,275 L-7,283 L4,288 L17,292 L26,294 L28,295 L38,295 L59,291 L67,287 L77,280 L85,273 L90,269 L96,261 L100,256 L110,240 L110,235 L108,233 L92,233 L89,235 L89,245 L77,248 L71,252 L68,253 L48,254 L39,255 L-5,255 L-17,252 L-19,247 L-20,234 L-25,231 Z M-12,232 L-13,237 L-9,240 L-2,242 L1,244 L8,244 L13,241 L23,240 L27,242 L35,241 L37,243 L42,243 L45,238 L44,234 L41,232 Z M70,232 L62,233 L59,236 L59,243 L63,243 L67,241 L70,245 L75,245 L79,239 L79,234 L76,232 Z M50,236 L51,238 Z M-27,406 L-44,407 L-78,407 L-83,411 L-83,435 L-80,438 L-62,438 L-56,436 L-56,434 L-66,431 L-69,426 L-69,419 L-66,416 L-28,417 L-25,429 L-39,432 L-52,433 L-54,436 L-52,437 L-20,439 L1,439 L4,436 L2,433 L-15,430 L-17,424 L-16,417 L-9,415 L2,416 L4,415 L29,416 L32,418 L38,417 L45,415 L61,417 L62,420 L62,425 L67,427 L70,424 L72,419 L73,418 L80,417 L100,417 L120,418 L127,417 L129,418 L128,427 L125,433 L125,438 L126,439 L134,439 L138,435 L138,411 L135,408 L97,407 L6,407 Z M17,431 L14,434 L15,438 L23,439 L55,439 L57,438 L56,434 L52,431 L43,432 L30,433 L24,431 Z M65,432 L64,437 L67,439 L72,438 L73,433 L71,432 Z M106,433 L106,436 L110,435 L109,433 Z M-76,450 L-82,452 L-84,460 L-84,466 L-80,468 L-70,463 L-65,457 L-58,458 L-52,460 L-49,459 L-42,459 L-35,464 L-32,469 L-29,476 L-24,479 L-16,479 L-9,476 L-7,473 L-6,465 L-1,463 L5,459 L6,454 L3,451 L-19,450 L-57,450 L-65,452 Z M45,452 L42,454 L42,457 L51,461 L55,465 L60,464 L65,458 L64,453 L63,452 Z M81,452 L78,454 L79,458 L82,471 L83,472 L95,471 L108,461 L119,462 L123,458 L122,454 L121,453 L114,452 Z M130,454 L128,456 L129,461 L132,464 L132,466 L128,469 L129,476 L132,483 L131,494 L124,506 L125,514 L127,527 L131,531 L138,531 L139,530 L140,491 L138,456 L136,454 Z M26,459 L25,463 L26,465 L26,474 L21,480 L21,482 L13,482 L6,481 L-1,486 L-2,481 L-8,481 L-10,483 L-9,487 L-7,489 L-9,490 L-18,490 L-25,486 L-28,484 L-36,484 L-39,485 L-46,485 L-49,482 L-49,477 L-39,478 L-39,471 L-44,466 L-50,466 L-56,471 L-61,482 L-62,491 L-61,494 L-59,494 L-56,490 L-52,490 L-52,497 L-56,511 L-57,514 L-54,519 L-45,519 L-48,524 L-49,525 L-48,532 L-42,536 L-33,539 L-31,542 L-31,553 L-36,564 L-35,572 L-31,579 L-32,590 L-36,600 L-42,605 L-44,610 L-43,616 L-38,619 L-33,617 L-31,611 L-28,604 L-24,597 L-22,597 L-26,609 L-25,614 L-24,619 L-25,627 L-22,629 L-5,629 L0,619 L0,617 L2,617 L5,612 L5,605 L3,603 L-2,604 L-5,607 L-9,607 L-8,601 L-5,595 L-6,591 L-13,588 L-13,586 L-5,586 L9,601 L14,604 L13,608 L12,612 L14,616 L29,620 L33,622 L41,622 L45,620 L47,616 L46,609 L36,601 L31,600 L31,598 L40,600 L48,604 L54,613 L67,618 L72,617 L76,604 L78,600 L83,598 L88,593 L92,590 L92,577 L93,573 L93,559 L95,555 L95,549 L87,538 L87,532 L89,531 L91,536 L96,543 L98,544 L104,544 L105,543 L105,530 L98,524 L91,525 L89,526 L90,519 L94,517 L97,513 L96,506 L91,497 L88,492 L87,491 L77,490 L68,486 L63,487 L53,492 L45,492 L40,489 L36,479 L34,467 L31,459 Z M71,464 L68,466 L69,469 L74,469 L74,465 Z M6,469 L4,470 L4,474 L7,475 L10,474 L9,469 Z M48,471 L44,475 L43,481 L45,487 L48,489 L54,488 L59,484 L58,480 L52,472 Z M107,471 L104,473 L105,477 L110,476 L111,472 Z M91,474 L83,481 L84,486 L92,485 L95,482 L96,476 L94,474 Z M118,476 L112,485 L106,487 L99,487 L95,492 L96,497 L100,498 L106,495 L105,504 L106,505 L114,505 L121,501 L126,492 L126,480 L123,476 Z M-82,480 L-84,482 L-85,509 L-84,521 L-85,525 L-85,570 L-81,574 L-83,580 L-85,587 L-86,641 L-85,650 L-82,653 L-75,653 L-72,651 L-74,645 L-78,639 L-79,634 L-72,634 L-70,633 L-66,620 L-66,606 L-71,601 L-78,597 L-79,595 L-69,595 L-67,594 L-67,586 L-70,580 L-69,574 L-63,567 L-64,563 L-66,563 L-65,557 L-64,555 L-67,551 L-69,551 L-72,542 L-76,529 L-79,522 L-79,516 L-74,518 L-70,517 L-66,513 L-66,505 L-71,502 L-73,501 L-75,493 L-76,484 L-79,480 Z M117,517 L117,521 L122,522 L123,518 L122,517 Z M-67,523 L-69,525 L-69,528 L-64,528 L-63,524 Z M-61,531 L-62,532 L-62,537 L-57,538 L-55,537 L-55,532 Z M114,531 L112,533 L113,537 L117,536 L116,531 Z M127,536 L125,541 L128,546 L130,546 L127,552 L122,556 L119,560 L119,569 L125,574 L128,579 L131,591 L134,596 L133,601 L128,597 L124,598 L123,599 L123,605 L125,607 L131,607 L131,624 L127,635 L127,647 L124,648 L121,647 L118,643 L101,643 L95,647 L92,650 L93,654 L95,655 L135,655 L139,651 L140,638 L140,604 L139,596 L140,584 L140,563 L139,547 L135,545 L133,537 L132,536 Z M-43,542 L-45,544 L-44,549 L-41,555 L-36,555 L-34,553 L-34,546 L-37,542 Z M108,564 L107,568 L112,567 L111,564 Z M109,576 L104,578 L103,582 L106,588 L111,592 L120,592 L124,588 L123,581 L119,576 Z M83,599 L79,604 L77,616 L80,621 L79,626 L75,632 L74,640 L78,644 L80,645 L87,645 L92,642 L93,637 L90,632 L89,618 L88,616 L88,608 L90,604 L89,599 Z M102,605 L99,609 L101,615 L106,614 L107,612 L107,606 Z M-57,607 L-58,608 L-58,614 L-54,618 L-50,616 L-50,610 L-52,607 Z M-59,625 L-60,629 L-55,634 L-48,634 L-46,632 L-47,628 L-52,625 Z M-35,626 L-37,628 L-37,634 L-30,640 L-23,640 L-22,636 L-27,632 L-31,626 Z M117,628 L113,632 L112,636 L118,636 L121,632 L120,628 Z M26,629 L21,632 L19,635 L20,640 L22,642 L28,641 L32,637 L31,630 Z M5,632 Z M40,633 L36,638 L33,643 L27,646 L19,645 L16,642 L14,638 L8,637 L-3,641 L-5,644 L-4,653 L1,656 L18,655 L60,655 L64,653 L63,648 L54,637 L47,633 Z M-47,639 L-50,640 L-64,641 L-69,649 L-69,652 L-64,654 L-52,655 L-15,655 L-11,651 L-11,646 L-12,645 L-20,645 L-23,646 L-31,646 L-41,639 Z M-82,668 L-85,672 L-86,677 L-86,705 L-84,714 L-80,716 L-9,716 L-6,711 L-1,703 L-3,699 L-9,697 L-49,696 L-55,693 L-57,690 L-56,685 L-54,684 L-44,684 L-40,686 L-26,686 L-17,689 L-12,689 L-10,687 L-9,680 L2,679 L5,677 L12,677 L17,678 L29,678 L33,675 L32,671 L30,670 L4,670 L-7,669 L-59,668 Z M48,669 L41,671 L41,677 L44,688 L47,690 L54,690 L59,687 L65,687 L68,691 L85,690 L105,691 L107,695 L107,697 L75,697 L66,699 L36,699 L28,698 L16,701 L16,704 L21,706 L29,707 L45,707 L50,709 L52,715 L53,716 L75,717 L121,717 L136,716 L140,713 L140,674 L136,670 L134,669 Z M6,700 L6,703 L11,704 L13,703 L13,701 Z " fill="#000000" transform="translate(128,29)"/>
<path d="M0,0 L5,1 L11,3 L20,3 L26,1 L33,1 L35,6 L33,11 L29,13 L17,15 L8,14 L0,7 L-2,5 L-2,1 Z " fill="#000000" transform="translate(140,297)"/>
<path d="M0,0 L4,1 L5,6 L1,9 L-3,8 L-4,4 Z " fill="#000000" transform="translate(395,424)"/>
<path d="M0,0 L5,1 L7,4 L6,9 L3,12 L-4,11 L-4,4 Z " fill="#000000" transform="translate(393,446)"/>
<path d="M0,0 L5,0 L7,3 L6,9 L1,14 L-7,18 L-11,21 L-16,20 L-19,14 L-17,7 L-15,6 L-6,5 Z " fill="#000000" transform="translate(408,470)"/>
<path d="M0,0 L6,0 L10,4 L12,14 L9,21 L4,25 L1,26 L-7,26 L-10,24 L-11,21 L-11,13 L-5,4 Z M-2,10 L-5,13 L-2,18 L3,17 L3,12 L1,10 Z " fill="#000000" transform="translate(363,492)"/>
<path d="M0,0 L6,1 L7,7 L4,14 L1,17 L2,24 L4,30 L14,32 L17,36 L19,42 L24,50 L23,60 L27,62 L42,62 L70,63 L72,67 L67,79 L61,88 L51,104 L47,110 L40,119 L32,132 L28,139 L22,147 L11,163 L4,176 L-2,186 L-3,209 L-3,238 L-4,290 L-4,356 L0,357 L58,358 L60,361 L60,369 L58,374 L52,376 L25,376 L-8,375 L-67,375 L-75,374 L-77,372 L-77,356 L-76,355 L-68,356 L-52,357 L-25,357 L-22,354 L-21,325 L-20,271 L-20,200 L-21,183 L-28,169 L-34,160 L-40,150 L-50,134 L-59,121 L-68,107 L-75,97 L-81,87 L-91,73 L-93,69 L-93,64 L-90,62 L-80,61 L6,61 L7,60 L6,50 L3,43 L2,40 L-4,40 L-6,41 L-11,51 L-13,51 L-13,53 L-18,56 L-25,56 L-32,50 L-33,48 L-32,39 L-25,31 L-16,19 L-9,15 L-7,15 L-4,4 Z M-9,24 L-12,26 L-12,31 L-11,32 L-6,32 L-4,27 Z M-23,41 L-23,45 L-18,44 L-19,41 Z M-54,74 L-66,75 L-71,78 L-70,84 L-64,91 L-56,92 L-25,92 L8,93 L41,93 L46,89 L50,82 L49,78 L44,76 L19,76 L-5,75 L-32,75 Z " fill="#000000" transform="translate(390,500)"/>
</svg>
