<?xml version="1.0" encoding="UTF-8"?>
<!-- Generator: visioncortex VTracer 0.6.12 -->
<svg version="1.1" xmlns="http://www.w3.org/2000/svg" width="642" height="600">
<path d="M0,0 L35,0 L38,5 L40,10 L41,25 L38,35 L32,39 L28,40 L-15,41 L-25,42 L-49,42 L-68,43 L-77,45 L-128,46 L-132,47 L-164,48 L-169,47 L-191,48 L-208,52 L-210,52 L-212,56 L-213,59 L-213,66 L-209,72 L-205,74 L-192,75 L-183,73 L-131,74 L-122,72 L-110,71 L-84,71 L-53,69 L-30,69 L-23,68 L-11,68 L4,66 L25,66 L29,71 L29,78 L25,89 L19,99 L14,108 L10,113 L6,115 L-11,115 L-33,114 L-59,114 L-76,115 L-98,115 L-107,117 L-146,117 L-194,118 L-203,120 L-211,125 L-212,127 L-212,136 L-209,142 L-200,144 L-167,144 L-153,143 L-143,144 L-131,142 L-122,141 L-106,142 L-72,140 L-51,141 L-47,140 L-31,140 L-20,146 L-21,151 L-26,156 L-35,162 L-43,169 L-55,175 L-65,180 L-75,184 L-88,188 L-93,193 L-95,198 L-94,203 L-87,213 L-80,226 L-70,245 L-65,257 L-61,268 L-59,284 L-55,304 L-54,317 L-55,353 L-57,360 L-59,376 L-61,386 L-66,394 L-68,402 L-72,408 L-77,413 L-84,420 L-91,431 L-96,439 L-99,447 L-101,457 L-107,466 L-110,469 L-112,469 L-114,473 L-122,480 L-138,492 L-147,499 L-163,508 L-179,517 L-187,519 L-196,520 L-214,527 L-229,531 L-265,531 L-268,530 L-279,530 L-306,525 L-321,519 L-333,515 L-359,501 L-366,495 L-380,485 L-388,478 L-396,471 L-404,462 L-411,453 L-419,444 L-427,432 L-432,423 L-439,410 L-444,394 L-448,385 L-451,373 L-454,358 L-454,295 L-451,274 L-447,261 L-439,237 L-431,224 L-424,213 L-415,202 L-408,193 L-400,184 L-389,175 L-384,170 L-373,162 L-368,157 L-352,147 L-345,143 L-331,136 L-316,131 L-305,128 L-294,126 L-287,122 L-284,118 L-282,110 L-281,93 L-283,71 L-283,57 L-279,46 L-276,37 L-268,26 L-259,19 L-242,12 L-232,10 L-227,8 L-220,9 L-205,9 L-202,8 L-167,6 L-146,6 L-144,5 L-116,5 L-112,4 L-69,2 L-56,1 L-20,1 L-12,2 L-5,2 Z M-300,163 L-312,166 L-326,172 L-335,177 L-345,182 L-352,188 L-364,197 L-373,205 L-379,213 L-387,223 L-391,229 L-396,238 L-405,254 L-408,264 L-411,274 L-415,285 L-417,294 L-420,303 L-421,317 L-421,338 L-418,361 L-414,376 L-408,393 L-402,407 L-392,423 L-385,431 L-378,440 L-373,445 L-359,459 L-350,465 L-341,471 L-333,475 L-323,480 L-311,485 L-309,486 L-300,487 L-293,490 L-277,495 L-267,496 L-255,496 L-237,494 L-212,488 L-195,487 L-182,479 L-165,470 L-154,462 L-146,456 L-138,449 L-132,441 L-124,430 L-115,422 L-109,410 L-103,398 L-99,388 L-95,377 L-91,359 L-90,349 L-88,344 L-88,308 L-91,294 L-96,272 L-104,249 L-109,240 L-112,235 L-118,225 L-129,212 L-135,208 L-139,204 L-149,200 L-161,200 L-169,202 L-182,205 L-197,213 L-207,217 L-216,223 L-224,230 L-232,238 L-238,254 L-238,266 L-237,276 L-236,283 L-232,289 L-227,296 L-221,308 L-217,317 L-217,326 L-219,338 L-222,348 L-229,356 L-234,360 L-246,365 L-251,366 L-260,366 L-270,361 L-275,357 L-284,352 L-291,342 L-294,333 L-294,318 L-291,308 L-283,292 L-277,280 L-276,218 L-277,197 L-277,184 L-279,171 L-284,166 L-290,163 Z " fill="#000000" transform="translate(568,36)"/>
</svg>
