<?xml version="1.0" encoding="UTF-8"?>
<!-- Generator: visioncortex VTracer 0.6.12 -->
<svg version="1.1" xmlns="http://www.w3.org/2000/svg" width="492" height="1296">
<path d="M0,0 L14,0 L26,4 L35,11 L39,16 L42,28 L44,36 L53,42 L57,45 L64,44 L71,40 L78,41 L82,47 L81,54 L74,61 L67,66 L65,70 L64,88 L60,106 L52,116 L52,123 L56,139 L56,158 L54,167 L46,183 L40,192 L32,200 L17,209 L0,214 L-7,215 L-21,215 L-30,213 L-42,208 L-53,201 L-60,201 L-74,208 L-79,209 L-92,209 L-106,203 L-109,200 L-114,199 L-125,204 L-132,203 L-137,198 L-136,191 L-131,185 L-130,183 L-130,177 L-134,166 L-134,158 L-130,147 L-124,138 L-123,112 L-119,95 L-114,86 L-101,78 L-91,73 L-90,70 L-88,52 L-84,39 L-76,29 L-67,23 L-61,21 L-50,19 L-37,20 L-28,21 L-20,13 L-16,8 L-6,2 Z M-3,112 L-15,119 L-28,128 L-35,134 L-37,138 L-38,161 L-42,175 L-43,177 L-43,183 L-39,188 L-30,193 L-21,196 L-11,197 L3,195 L19,187 L27,180 L33,172 L38,159 L39,152 L39,137 L33,123 L28,119 L12,115 L5,112 Z " fill="#000000" transform="translate(314,51)"/>
<path d="M0,0 L9,0 L27,6 L48,16 L55,23 L66,29 L75,37 L84,44 L89,48 L89,50 L93,52 L99,57 L108,70 L112,76 L118,86 L126,103 L132,119 L134,128 L135,141 L135,156 L130,175 L125,188 L122,192 L118,203 L105,225 L100,232 L100,239 L111,253 L118,260 L125,271 L129,275 L135,279 L145,288 L149,299 L151,308 L151,320 L149,335 L146,343 L144,348 L145,368 L147,383 L149,408 L154,434 L156,437 L166,436 L177,433 L183,432 L195,432 L200,435 L202,442 L202,554 L201,622 L200,660 L200,924 L201,935 L199,942 L198,943 L193,943 L190,936 L185,919 L181,908 L176,886 L173,871 L170,858 L167,845 L164,830 L159,813 L151,774 L148,763 L146,751 L142,737 L138,719 L135,709 L129,683 L125,663 L121,649 L114,621 L112,607 L104,574 L98,548 L95,533 L88,504 L85,492 L82,476 L79,468 L77,456 L79,452 L104,447 L116,445 L130,442 L132,440 L132,428 L128,392 L123,354 L119,347 L113,339 L106,327 L100,323 L91,319 L82,312 L79,309 L74,309 L73,311 L71,341 L71,367 L69,425 L69,436 L68,455 L68,474 L65,559 L63,637 L62,720 L60,809 L60,824 L59,832 L58,877 L58,929 L57,942 L53,945 L4,947 L-207,947 L-228,943 L-232,939 L-230,913 L-225,868 L-222,844 L-221,831 L-219,818 L-216,794 L-214,776 L-212,752 L-210,737 L-205,686 L-201,644 L-197,600 L-192,552 L-191,537 L-189,522 L-187,503 L-183,472 L-181,446 L-179,438 L-178,414 L-177,400 L-172,377 L-168,342 L-166,322 L-160,297 L-155,285 L-149,276 L-141,265 L-131,256 L-120,248 L-108,242 L-98,239 L-73,238 L-69,235 L-64,220 L-61,206 L-52,173 L-48,162 L-44,146 L-41,131 L-35,106 L-31,96 L-25,73 L-20,52 L-16,38 L-12,24 L-10,16 L-5,4 Z M53,167 L51,170 L52,176 L57,186 L59,188 L61,193 L65,194 L65,188 L66,185 L63,180 L69,178 L69,173 L67,171 L59,168 L58,167 Z M74,187 L75,194 L68,196 L68,199 L70,201 L75,201 L78,198 L78,188 Z M123,288 L118,296 L110,307 L109,312 L114,318 L120,323 L127,333 L129,335 L134,334 L138,328 L140,316 L140,305 L138,296 L133,290 L129,288 Z M-192,798 L-194,805 L-193,808 L-185,808 L-182,806 L-183,801 L-186,798 Z " fill="#000000" transform="translate(262,284)"/>
</svg>
