<?xml version="1.0" encoding="UTF-8"?>
<!-- Generator: visioncortex VTracer 0.6.12 -->
<svg version="1.1" xmlns="http://www.w3.org/2000/svg" width="675" height="1182">
<path d="M0,0 L12,0 L25,2 L37,6 L52,14 L62,23 L70,31 L74,38 L74,40 L76,40 L80,47 L83,61 L82,66 L73,72 L71,98 L68,117 L64,127 L57,135 L52,140 L51,145 L57,157 L69,179 L78,194 L84,204 L91,212 L93,213 L110,214 L115,218 L119,225 L121,226 L136,228 L142,232 L144,241 L142,250 L137,254 L128,257 L126,260 L126,269 L127,274 L127,288 L122,296 L112,304 L105,308 L104,314 L110,315 L122,307 L132,299 L140,293 L147,293 L151,295 L152,297 L152,305 L145,313 L134,320 L126,328 L123,333 L124,337 L127,340 L129,341 L164,341 L173,344 L176,346 L176,348 L180,350 L185,355 L185,357 L197,359 L215,360 L271,360 L277,364 L279,367 L279,389 L278,401 L277,481 L277,531 L276,547 L275,643 L275,710 L274,726 L273,772 L272,866 L272,887 L271,930 L271,974 L270,1087 L265,1090 L193,1090 L169,1091 L124,1091 L-4,1090 L-18,1088 L-23,1083 L-24,1080 L-24,1065 L-23,1054 L-21,1000 L-20,961 L-20,938 L-18,882 L-18,862 L-17,791 L-16,727 L-15,677 L-14,592 L-13,539 L-12,469 L-12,462 L-18,462 L-26,469 L-28,469 L-29,472 L-36,478 L-39,485 L-41,538 L-42,588 L-43,624 L-44,669 L-45,697 L-45,708 L-46,732 L-47,781 L-47,792 L-49,831 L-50,920 L-52,936 L-54,940 L-59,942 L-111,941 L-116,942 L-118,949 L-120,983 L-122,1030 L-123,1042 L-124,1067 L-127,1082 L-131,1086 L-149,1086 L-174,1085 L-180,1082 L-184,1077 L-186,1069 L-186,986 L-187,970 L-187,959 L-189,943 L-191,941 L-195,940 L-234,939 L-317,938 L-320,937 L-333,936 L-338,934 L-340,931 L-339,925 L-333,909 L-328,889 L-322,870 L-316,846 L-308,816 L-301,792 L-298,787 L-298,780 L-302,773 L-314,767 L-327,763 L-332,760 L-333,758 L-333,750 L-329,733 L-323,716 L-315,693 L-312,686 L-308,672 L-302,654 L-292,624 L-288,612 L-284,598 L-281,590 L-272,560 L-261,527 L-254,505 L-248,487 L-240,462 L-226,419 L-222,408 L-217,391 L-212,376 L-209,366 L-203,348 L-189,305 L-177,267 L-174,258 L-169,241 L-162,221 L-157,209 L-148,184 L-144,173 L-141,163 L-133,150 L-126,139 L-121,133 L-115,130 L-108,130 L-92,138 L-78,150 L-70,157 L-61,169 L-55,180 L-51,188 L-43,214 L-40,224 L-36,252 L-35,263 L-35,314 L-30,315 L-22,308 L-12,298 L-7,294 L0,286 L15,271 L22,262 L30,253 L31,251 L31,242 L29,232 L29,214 L33,204 L37,197 L37,187 L27,169 L23,163 L21,162 L13,162 L5,165 L-19,165 L-34,162 L-53,153 L-62,149 L-67,144 L-74,135 L-83,121 L-89,113 L-110,103 L-120,94 L-126,86 L-134,72 L-135,66 L-135,58 L-131,45 L-124,35 L-115,27 L-107,23 L-104,22 L-90,22 L-79,28 L-72,28 L-59,18 L-56,15 L-42,8 L-28,3 L-13,1 Z M22,61 L11,65 L0,73 L-7,80 L-14,88 L-21,96 L-36,106 L-50,114 L-52,116 L-51,122 L-42,131 L-28,138 L-21,140 L4,140 L10,138 L20,136 L28,129 L29,126 L31,126 L39,115 L46,100 L48,90 L47,72 L43,64 L39,61 Z M-105,163 L-110,168 L-113,172 L-117,181 L-124,196 L-133,221 L-138,239 L-141,249 L-145,259 L-150,276 L-152,280 L-155,293 L-159,303 L-170,336 L-176,357 L-181,370 L-187,388 L-193,407 L-197,418 L-204,442 L-211,461 L-218,486 L-223,498 L-228,516 L-233,530 L-242,559 L-247,572 L-255,599 L-265,631 L-277,667 L-285,694 L-293,719 L-297,734 L-297,741 L-292,745 L-277,749 L-260,751 L-251,753 L-232,756 L-216,758 L-176,765 L-144,770 L-116,775 L-89,779 L-82,778 L-79,773 L-78,764 L-78,748 L-76,726 L-75,706 L-74,668 L-72,615 L-71,598 L-69,544 L-67,502 L-66,471 L-61,462 L-53,455 L-46,448 L-38,442 L-23,428 L-15,421 L-5,412 L0,407 L6,403 L23,386 L34,377 L39,372 L49,362 L51,358 L51,350 L42,327 L36,310 L32,305 L27,305 L17,314 L-43,374 L-43,376 L-47,378 L-53,385 L-55,386 L-61,386 L-62,384 L-63,361 L-63,306 L-64,270 L-65,250 L-68,229 L-73,208 L-78,195 L-84,185 L-91,174 L-97,167 L-101,163 Z M88,232 L77,236 L72,242 L65,261 L60,273 L57,281 L56,287 L59,299 L62,304 L64,305 L70,305 L83,297 L93,290 L104,280 L106,270 L101,244 L97,234 L94,232 Z M81,339 L79,343 L81,345 L86,344 L85,340 Z M68,375 L67,376 L67,381 L71,382 L73,381 L73,376 Z " fill="#000000" transform="translate(369,31)"/>
</svg>
