<?xml version="1.0" encoding="UTF-8"?>
<!-- Generator: visioncortex VTracer 0.6.12 -->
<svg version="1.1" xmlns="http://www.w3.org/2000/svg" width="477" height="1155">
<path d="M0,0 L23,0 L46,6 L59,14 L69,23 L72,28 L70,37 L68,46 L69,55 L76,63 L82,70 L90,80 L102,86 L113,92 L123,99 L130,105 L138,118 L139,126 L137,137 L133,147 L126,156 L119,160 L108,162 L90,162 L85,167 L74,178 L52,191 L41,195 L24,198 L13,198 L-8,193 L-20,187 L-25,184 L-32,184 L-42,188 L-55,188 L-71,182 L-76,177 L-83,166 L-86,159 L-88,150 L-95,142 L-99,138 L-100,135 L-100,127 L-96,117 L-89,107 L-83,100 L-82,89 L-82,80 L-89,72 L-96,65 L-99,57 L-98,51 L-92,43 L-90,43 L-88,39 L-77,30 L-67,22 L-55,15 L-32,5 L-9,1 Z M0,15 L-16,18 L-31,21 L-52,28 L-66,36 L-76,42 L-81,48 L-81,57 L-76,62 L-69,62 L-56,52 L-42,48 L-37,49 L-31,61 L-26,73 L-20,74 L-1,62 L12,59 L22,59 L33,61 L39,60 L42,55 L45,43 L48,35 L48,27 L43,22 L37,20 L10,15 Z M38,82 L24,88 L16,94 L7,100 L3,105 L-5,121 L-10,135 L-15,144 L-19,154 L-19,159 L-14,163 L1,171 L12,174 L25,175 L40,171 L57,162 L64,153 L70,144 L75,128 L75,112 L73,103 L67,95 L57,87 L48,82 Z " fill="#000000" transform="translate(205,31)"/>
<path d="M0,0 L75,0 L83,2 L93,8 L103,17 L111,27 L118,40 L123,44 L135,49 L144,51 L147,54 L148,60 L145,70 L136,86 L129,101 L127,107 L127,114 L131,127 L131,137 L129,148 L127,155 L127,168 L130,188 L132,211 L132,235 L131,263 L126,281 L120,291 L111,298 L106,301 L88,306 L82,307 L57,307 L52,309 L52,318 L60,349 L66,370 L79,416 L83,432 L88,451 L94,472 L99,492 L106,516 L117,558 L123,579 L132,614 L137,632 L138,638 L136,642 L134,643 L115,643 L108,642 L79,643 L32,644 L28,645 L25,655 L22,666 L18,697 L17,718 L9,766 L5,788 L1,815 L-2,834 L-4,842 L-7,847 L-12,849 L-23,850 L-83,851 L-102,851 L-107,846 L-114,822 L-118,796 L-120,784 L-125,752 L-128,733 L-133,703 L-138,690 L-142,664 L-147,648 L-150,645 L-152,644 L-175,643 L-229,643 L-233,642 L-243,642 L-254,643 L-257,641 L-257,634 L-255,629 L-251,613 L-246,596 L-241,577 L-236,558 L-232,545 L-227,523 L-222,508 L-217,487 L-213,473 L-205,443 L-199,421 L-190,386 L-185,365 L-176,333 L-174,328 L-169,306 L-166,292 L-166,284 L-167,283 L-176,284 L-192,292 L-207,300 L-214,299 L-220,290 L-222,284 L-224,274 L-229,256 L-235,232 L-238,224 L-243,203 L-245,194 L-251,174 L-255,158 L-259,143 L-264,124 L-270,109 L-272,93 L-272,71 L-269,61 L-263,46 L-255,31 L-250,25 L-248,25 L-246,21 L-235,13 L-223,7 L-212,4 L-195,3 L-61,1 Z M-35,21 L-66,22 L-183,24 L-207,24 L-224,30 L-230,35 L-239,46 L-245,58 L-248,72 L-249,79 L-249,103 L-247,112 L-241,128 L-237,142 L-234,157 L-227,185 L-219,216 L-217,225 L-212,245 L-206,265 L-202,270 L-195,270 L-179,262 L-164,254 L-148,246 L-126,234 L-117,229 L-107,223 L-97,218 L-84,210 L-74,204 L-68,199 L-68,190 L-77,169 L-83,157 L-87,154 L-96,155 L-114,165 L-130,173 L-157,187 L-165,187 L-170,184 L-173,179 L-177,162 L-182,143 L-185,125 L-184,122 L-179,120 L-172,121 L-169,125 L-161,151 L-158,159 L-154,162 L-148,162 L-131,153 L-119,147 L-102,137 L-94,132 L-91,128 L-87,116 L-81,101 L-80,92 L-87,86 L-99,81 L-114,75 L-123,71 L-132,68 L-153,59 L-165,53 L-164,44 L-163,41 L-153,41 L-141,46 L-116,56 L-102,62 L-81,69 L-71,70 L-68,69 L-42,69 L-34,70 L-18,70 L-12,65 L-6,52 L2,31 L4,25 L2,23 L-6,22 Z M75,23 L72,25 L73,29 L75,30 L82,30 L83,25 L79,23 Z M-54,84 L-60,88 L-63,92 L-70,110 L-74,121 L-75,126 L-75,136 L-67,155 L-62,164 L-58,167 L-53,166 L-50,161 L-39,135 L-29,109 L-25,96 L-25,90 L-30,85 Z M107,137 L87,139 L74,141 L69,146 L68,149 L67,184 L70,190 L77,196 L88,196 L96,192 L101,186 L105,176 L114,166 L116,159 L118,147 L117,140 L113,137 Z M109,201 L104,204 L97,208 L87,210 L84,214 L71,243 L66,248 L54,255 L44,260 L40,265 L41,271 L46,276 L51,280 L61,284 L71,286 L90,286 L106,278 L114,269 L117,255 L118,240 L118,229 L116,211 L114,203 Z M-90,237 L-113,248 L-128,257 L-132,260 L-132,262 L-134,262 L-138,271 L-143,288 L-150,315 L-155,332 L-161,355 L-180,425 L-183,435 L-186,449 L-192,470 L-194,479 L-198,492 L-211,544 L-216,563 L-221,578 L-225,595 L-230,610 L-230,622 L-227,624 L-220,625 L-199,625 L-137,623 L-71,622 L11,621 L104,618 L109,615 L109,606 L107,596 L99,565 L94,548 L86,516 L82,502 L78,485 L70,456 L59,415 L51,384 L44,359 L41,348 L34,321 L26,294 L22,281 L18,275 L15,273 L6,273 L-24,283 L-35,287 L-58,295 L-75,302 L-86,305 L-95,309 L-101,311 L-107,311 L-108,306 L-98,283 L-91,266 L-87,256 L-83,245 L-84,238 Z M-35,646 L-44,648 L-48,652 L-48,668 L-47,702 L-46,726 L-45,781 L-45,812 L-44,825 L-40,829 L-38,830 L-22,831 L-16,828 L-12,813 L-10,798 L-9,785 L-5,768 L-2,748 L1,717 L4,697 L6,685 L8,669 L9,650 L6,646 Z M-107,647 L-120,649 L-124,653 L-123,673 L-121,688 L-117,719 L-113,736 L-110,755 L-108,761 L-105,788 L-104,796 L-102,799 L-100,818 L-97,827 L-94,830 L-67,829 L-64,827 L-63,824 L-63,798 L-65,787 L-66,774 L-67,745 L-68,687 L-69,661 L-71,650 L-75,647 Z " fill="#000000" transform="translate(301,243)"/>
</svg>
