<?xml version="1.0" encoding="UTF-8"?>
<!-- Generator: visioncortex VTracer 0.6.12 -->
<svg version="1.1" xmlns="http://www.w3.org/2000/svg" width="504" height="876">
<path d="M0,0 L33,0 L45,4 L61,12 L69,17 L79,26 L83,32 L87,37 L93,49 L97,63 L99,78 L98,93 L94,107 L85,124 L76,134 L67,143 L53,151 L39,156 L29,158 L11,158 L-7,154 L-23,146 L-37,136 L-37,134 L-41,132 L-47,124 L-56,110 L-61,96 L-63,86 L-63,68 L-58,48 L-50,33 L-39,20 L-30,13 L-14,5 Z M34,59 L-31,60 L-36,65 L-37,71 L-37,87 L-35,95 L-28,109 L-22,116 L-14,123 L-10,126 L4,132 L10,133 L27,133 L39,130 L51,124 L57,119 L64,111 L69,101 L73,88 L74,79 L72,68 L70,63 L65,60 Z " fill="#000000" transform="translate(224,30)"/>
<path d="M0,0 L34,0 L45,4 L58,6 L86,6 L101,3 L110,1 L112,0 L157,0 L176,2 L192,8 L206,15 L218,27 L226,39 L237,56 L245,72 L251,85 L255,96 L264,123 L268,132 L279,164 L284,177 L286,184 L289,191 L297,215 L302,224 L303,250 L303,267 L302,288 L303,291 L303,298 L298,299 L293,293 L285,282 L264,251 L254,239 L246,228 L237,216 L226,202 L218,191 L209,178 L201,168 L197,162 L191,155 L191,153 L185,153 L183,158 L177,194 L175,214 L172,229 L171,245 L176,260 L184,281 L194,309 L202,329 L212,359 L218,374 L222,387 L225,392 L231,410 L236,423 L243,444 L253,470 L257,480 L266,506 L272,521 L274,526 L278,540 L282,548 L286,562 L290,571 L297,590 L301,602 L304,608 L305,621 L304,628 L299,631 L266,631 L252,629 L248,624 L242,615 L231,588 L226,576 L214,549 L210,543 L204,527 L196,513 L192,510 L172,510 L169,511 L101,511 L-20,512 L-26,516 L-33,530 L-36,534 L-43,551 L-52,570 L-55,578 L-61,590 L-65,601 L-68,607 L-71,616 L-75,626 L-79,631 L-89,630 L-122,629 L-128,629 L-130,627 L-130,620 L-126,607 L-116,579 L-107,552 L-101,535 L-95,517 L-90,500 L-84,483 L-80,470 L-76,459 L-72,446 L-65,419 L-59,401 L-47,365 L-43,353 L-38,336 L-24,293 L-22,288 L-19,276 L-12,257 L-10,248 L-10,238 L-14,219 L-16,209 L-25,171 L-29,158 L-29,155 L-35,155 L-45,167 L-59,188 L-66,199 L-74,213 L-83,225 L-87,232 L-93,241 L-99,250 L-105,259 L-115,273 L-125,289 L-129,294 L-136,305 L-140,304 L-141,302 L-142,237 L-136,212 L-133,205 L-130,195 L-122,171 L-113,144 L-108,128 L-99,102 L-91,76 L-86,66 L-82,57 L-77,48 L-71,41 L-67,33 L-56,21 L-46,15 L-41,11 L-26,6 L-15,3 Z " fill="#000000" transform="translate(171,218)"/>
</svg>
