<?xml version="1.0" encoding="UTF-8"?>
<!-- Generator: visioncortex VTracer 0.6.12 -->
<svg version="1.1" xmlns="http://www.w3.org/2000/svg" width="414" height="1167">
<path d="M0,0 L414,0 L414,41 L378,42 L350,42 L258,43 L240,43 L194,44 L158,43 L154,44 L81,45 L37,46 L0,45 Z " fill="#000000" transform="translate(0,0)"/>
<path d="M0,0 L118,0 L127,2 L129,7 L130,13 L130,28 L131,31 L132,105 L133,182 L134,199 L134,223 L135,294 L136,323 L136,354 L138,469 L140,524 L141,568 L141,608 L143,673 L143,693 L144,740 L144,767 L145,816 L145,841 L146,864 L147,952 L147,976 L148,982 L148,997 L146,1011 L143,1014 L132,1016 L98,1016 L51,1017 L45,1016 L20,1017 L-20,1017 L-24,1016 L-27,1017 L-58,1018 L-109,1019 L-139,1019 L-139,975 L12,975 L22,976 L35,974 L50,973 L66,967 L73,961 L81,954 L87,947 L94,933 L96,921 L97,902 L97,858 L96,755 L96,725 L95,694 L95,643 L94,560 L93,501 L93,486 L92,472 L92,429 L91,347 L90,307 L90,263 L89,240 L88,124 L87,102 L85,89 L81,79 L71,65 L64,59 L64,57 L60,55 L46,48 L27,45 L21,44 L-47,45 L-137,45 L-139,44 L-139,2 L-90,1 L-41,1 Z " fill="#000000" transform="translate(139,115)"/>
</svg>
