<?xml version="1.0" encoding="UTF-8"?>
<!-- Generator: visioncortex VTracer 0.6.12 -->
<svg version="1.1" xmlns="http://www.w3.org/2000/svg" width="1257" height="1224">
<path d="M0,0 L5,1 L7,4 L9,25 L10,43 L12,106 L14,129 L15,138 L13,161 L8,175 L2,185 L-8,195 L-17,201 L-29,207 L-44,210 L-56,210 L-69,208 L-85,202 L-96,194 L-104,187 L-116,170 L-121,155 L-123,140 L-123,131 L-120,115 L-112,99 L-104,88 L-97,81 L-86,72 L-75,62 L-61,51 L-51,42 L-40,34 L-27,22 L-16,13 L-8,6 L-4,4 L-4,2 Z M-64,91 L-74,95 L-83,101 L-88,106 L-94,113 L-98,122 L-100,133 L-100,144 L-98,155 L-94,164 L-88,172 L-80,179 L-67,186 L-62,187 L-49,187 L-35,183 L-26,178 L-21,173 L-14,165 L-10,157 L-7,146 L-7,136 L-9,125 L-13,115 L-18,107 L-26,99 L-40,92 L-44,91 Z " fill="#000000" transform="translate(753,30)"/>
<path d="M0,0 L9,0 L14,5 L22,25 L27,40 L32,54 L35,64 L44,91 L48,104 L50,112 L62,148 L67,163 L72,180 L79,199 L84,215 L93,242 L101,266 L106,283 L116,312 L119,327 L121,345 L123,375 L124,379 L127,413 L128,419 L129,440 L132,471 L134,490 L137,528 L140,559 L140,567 L142,574 L143,588 L145,597 L145,610 L148,636 L150,661 L152,676 L153,690 L155,705 L155,719 L151,724 L148,725 L109,725 L92,726 L91,736 L91,871 L90,882 L88,887 L84,889 L74,890 L-2,889 L-30,889 L-39,887 L-44,884 L-47,877 L-47,775 L-48,757 L-51,751 L-53,750 L-78,749 L-110,749 L-118,752 L-123,762 L-128,775 L-133,787 L-141,809 L-153,838 L-157,847 L-163,863 L-171,883 L-177,888 L-209,888 L-218,887 L-223,883 L-223,875 L-218,864 L-214,852 L-208,837 L-204,823 L-202,815 L-198,806 L-194,793 L-186,769 L-184,758 L-184,751 L-188,749 L-210,749 L-215,747 L-218,741 L-219,718 L-219,667 L-221,619 L-224,614 L-227,612 L-240,611 L-287,611 L-314,610 L-323,608 L-327,604 L-328,598 L-328,557 L-329,511 L-329,435 L-328,410 L-328,389 L-326,358 L-323,325 L-323,310 L-321,298 L-312,273 L-307,253 L-303,243 L-298,231 L-291,217 L-282,207 L-274,207 L-258,215 L-242,224 L-228,234 L-216,245 L-208,249 L-199,250 L-194,255 L-190,259 L-190,261 L-188,261 L-188,263 L-179,264 L-163,256 L-150,249 L-128,237 L-105,226 L-100,222 L-98,217 L-100,205 L-104,184 L-105,175 L-105,145 L-102,127 L-96,106 L-89,86 L-76,62 L-69,51 L-59,42 L-56,39 L-49,31 L-41,23 L-28,13 L-16,6 Z M-14,32 L-25,39 L-32,46 L-38,51 L-45,60 L-55,73 L-61,83 L-67,93 L-73,108 L-78,123 L-82,143 L-83,160 L-82,183 L-78,211 L-74,222 L-74,231 L-79,236 L-98,246 L-108,251 L-124,259 L-150,273 L-158,279 L-158,286 L-147,309 L-139,324 L-132,325 L-116,317 L-97,306 L-86,299 L-66,287 L-57,283 L-51,284 L-48,288 L-40,306 L-37,313 L-32,324 L-25,345 L-26,358 L-32,373 L-35,383 L-39,394 L-47,416 L-51,429 L-60,455 L-65,471 L-67,476 L-69,485 L-69,493 L-64,497 L-36,508 L-27,514 L-15,521 L-3,532 L8,544 L10,544 L12,549 L22,564 L28,575 L31,582 L36,604 L39,624 L42,645 L43,652 L44,672 L45,677 L46,691 L49,697 L60,699 L118,699 L124,696 L126,690 L126,680 L122,643 L118,599 L117,595 L114,563 L110,519 L109,515 L106,481 L104,451 L99,405 L96,365 L93,342 L91,319 L88,304 L84,294 L80,283 L77,271 L69,245 L62,225 L58,211 L53,199 L49,186 L46,174 L43,165 L39,154 L30,126 L25,109 L21,98 L17,86 L9,67 L4,54 L-3,36 L-7,32 Z M-207,270 L-217,275 L-230,284 L-242,287 L-256,295 L-260,298 L-260,300 L-264,302 L-269,306 L-271,309 L-271,315 L-263,325 L-257,334 L-246,346 L-244,347 L-218,348 L-203,350 L-181,351 L-172,345 L-167,341 L-164,333 L-164,325 L-169,312 L-177,296 L-182,291 L-189,286 L-194,278 L-199,272 L-204,270 Z M-65,315 L-81,323 L-102,334 L-121,345 L-132,351 L-148,360 L-155,367 L-156,370 L-156,379 L-154,390 L-149,395 L-130,407 L-119,417 L-113,425 L-101,442 L-93,456 L-92,457 L-86,457 L-83,453 L-74,430 L-71,420 L-62,393 L-58,382 L-53,364 L-50,357 L-47,343 L-49,333 L-55,319 L-60,315 Z M24,749 L14,752 L9,759 L8,775 L8,792 L9,836 L13,844 L23,853 L32,859 L39,859 L41,856 L41,766 L39,754 L35,750 L31,749 Z " fill="#000000" transform="translate(777,217)"/>
<path d="M0,0 L23,0 L36,4 L46,8 L55,14 L65,23 L71,32 L76,43 L80,51 L82,60 L83,69 L83,80 L80,96 L72,112 L63,123 L54,131 L38,139 L24,143 L6,143 L-10,140 L-22,134 L-37,122 L-43,119 L-63,118 L-74,114 L-83,106 L-89,94 L-90,90 L-90,75 L-86,65 L-80,57 L-71,50 L-65,47 L-54,44 L-50,39 L-43,28 L-35,18 L-19,7 L-8,2 Z M5,23 L-5,26 L-15,32 L-20,36 L-27,47 L-32,57 L-35,63 L-38,65 L-54,67 L-62,71 L-66,76 L-67,79 L-67,87 L-64,92 L-56,96 L-45,95 L-41,94 L-29,94 L-22,102 L-15,110 L-8,115 L4,119 L20,119 L30,117 L39,112 L49,103 L52,100 L59,84 L60,77 L60,63 L54,47 L50,41 L42,33 L32,27 L19,23 Z " fill="#000000" transform="translate(549,286)"/>
<path d="M0,0 L16,0 L21,3 L23,9 L23,34 L24,63 L24,94 L25,173 L25,208 L26,261 L26,406 L27,448 L26,615 L23,620 L19,622 L4,623 L-3,620 L-5,618 L-6,609 L-6,151 L-7,91 L-7,6 L-3,1 Z " fill="#000000" transform="translate(406,484)"/>
<path d="M0,0 L71,0 L71,7 L36,8 L-175,8 L-181,9 L-251,10 L-260,9 L-330,10 L-334,9 L-343,9 L-346,10 L-449,10 L-511,11 L-611,10 L-621,11 L-624,9 L-622,5 L-619,4 L-572,4 L-562,3 L-505,4 L-501,3 L-331,3 L-300,2 L-172,2 L-70,1 Z " fill="#000000" transform="translate(1186,1182)"/>
<path d="M0,0 L20,1 L33,0 L40,1 L41,5 L33,7 L8,7 L-88,8 L-115,8 L-129,9 L-160,9 L-220,10 L-293,10 L-354,11 L-377,10 L-381,11 L-423,11 L-439,12 L-506,12 L-507,11 L-507,5 L-506,4 L-375,4 L-232,2 L-203,3 L-199,2 L-158,2 L-64,1 L-32,1 Z " fill="#000000" transform="translate(516,1186)"/>
</svg>
