<?xml version="1.0" encoding="UTF-8"?>
<!-- Generator: visioncortex VTracer 0.6.12 -->
<svg version="1.1" xmlns="http://www.w3.org/2000/svg" width="447" height="1074">
<path d="M0,0 L15,0 L27,2 L39,8 L50,16 L58,24 L67,39 L72,59 L72,69 L68,86 L60,102 L51,112 L41,120 L29,126 L19,129 L-3,129 L-18,124 L-31,117 L-41,108 L-51,91 L-56,77 L-56,55 L-53,43 L-47,31 L-40,22 L-33,15 L-19,6 L-7,1 Z M-18,32 L-23,35 L-27,41 L-31,46 L-39,53 L-42,60 L-42,75 L-36,92 L-25,104 L-14,111 L0,115 L12,115 L24,113 L37,106 L45,99 L53,87 L57,76 L58,61 L56,53 L52,50 L30,51 L8,45 L-8,38 L-14,33 Z " fill="#000000" transform="translate(233,31)"/>
<path d="M0,0 L44,1 L67,3 L83,19 L88,24 L97,33 L103,33 L110,28 L117,20 L125,13 L130,7 L135,4 L151,4 L210,6 L223,11 L233,20 L239,28 L244,40 L248,50 L253,78 L257,102 L260,123 L262,139 L264,145 L266,162 L269,176 L272,196 L273,198 L275,215 L277,225 L279,240 L282,255 L284,270 L287,288 L288,301 L285,306 L269,314 L250,324 L234,332 L218,340 L202,348 L193,353 L182,359 L156,372 L150,372 L147,368 L147,337 L148,279 L150,229 L150,216 L148,206 L144,204 L95,204 L77,205 L61,205 L58,206 L56,209 L55,214 L53,268 L52,281 L52,304 L51,347 L49,368 L47,370 L41,370 L9,355 L-17,343 L-33,335 L-49,327 L-64,320 L-85,310 L-88,306 L-88,298 L-83,274 L-79,247 L-75,227 L-72,207 L-65,173 L-62,149 L-56,113 L-52,94 L-50,80 L-45,55 L-41,32 L-33,18 L-27,13 L-23,9 L-9,3 Z " fill="#000000" transform="translate(133,162)"/>
<path d="M0,0 L37,0 L46,3 L47,6 L47,45 L46,80 L45,91 L46,116 L49,119 L55,118 L77,106 L85,102 L104,91 L118,84 L123,85 L126,92 L128,101 L129,116 L131,124 L133,137 L136,163 L138,173 L140,188 L142,207 L144,222 L146,232 L149,261 L152,277 L154,298 L156,310 L157,315 L158,330 L161,349 L165,380 L166,382 L168,403 L171,418 L173,438 L175,444 L176,461 L181,498 L184,511 L184,533 L181,536 L175,537 L-98,537 L-134,536 L-156,535 L-177,535 L-186,534 L-190,531 L-192,519 L-191,502 L-184,466 L-179,444 L-175,421 L-171,405 L-167,381 L-165,375 L-160,344 L-154,316 L-149,294 L-147,281 L-143,263 L-140,245 L-136,226 L-135,224 L-133,210 L-128,185 L-123,158 L-117,132 L-115,118 L-113,109 L-111,96 L-108,88 L-103,86 L-84,94 L-68,102 L-52,110 L-35,118 L-28,118 L-26,113 L-24,100 L-24,89 L-25,82 L-24,34 L-22,11 L-20,4 L-17,1 Z " fill="#000000" transform="translate(222,436)"/>
<path d="M0,0 L30,1 L38,1 L54,7 L59,10 L64,15 L69,24 L71,34 L69,50 L65,60 L59,67 L24,67 L-17,66 L-27,63 L-31,58 L-36,48 L-38,38 L-36,18 L-32,12 L-22,4 L-12,1 Z M11,10 L9,11 L10,14 L16,16 L35,17 L37,14 L32,11 L26,10 Z " fill="#000000" transform="translate(137,977)"/>
<path d="M0,0 L20,1 L32,6 L41,11 L46,16 L49,19 L52,28 L52,51 L48,62 L44,67 L30,68 L-20,67 L-29,67 L-39,65 L-45,58 L-49,50 L-49,25 L-46,16 L-37,9 L-26,4 L-13,1 Z M-6,13 L-13,15 L-12,18 L4,19 L19,19 L21,16 L16,13 Z " fill="#000000" transform="translate(281,978)"/>
</svg>
