<?xml version="1.0" encoding="UTF-8"?>
<!-- Generator: visioncortex VTracer 0.6.12 -->
<svg version="1.1" xmlns="http://www.w3.org/2000/svg" width="516" height="870">
<path d="M0,0 L9,0 L22,3 L34,7 L42,11 L51,16 L61,25 L68,31 L73,40 L80,52 L84,67 L85,77 L85,91 L82,106 L77,120 L71,128 L64,138 L56,145 L47,151 L36,157 L17,162 L-10,162 L-23,158 L-35,153 L-41,149 L-46,144 L-56,137 L-67,123 L-72,112 L-77,96 L-78,84 L-77,66 L-73,52 L-68,42 L-57,27 L-47,18 L-33,9 L-26,6 L-18,4 L-14,2 L-3,1 Z M-5,24 L-19,28 L-28,33 L-37,41 L-41,45 L-47,55 L-52,69 L-52,92 L-48,105 L-43,113 L-34,123 L-25,130 L-14,135 L-6,138 L7,138 L16,137 L17,136 L26,134 L37,127 L41,124 L41,122 L43,122 L50,113 L54,107 L59,94 L59,73 L55,59 L49,49 L36,36 L25,30 L18,27 L3,24 Z " fill="#000000" transform="translate(238,30)"/>
<path d="M0,0 L8,0 L24,2 L30,5 L36,13 L42,21 L49,35 L54,39 L58,39 L60,34 L67,22 L73,10 L77,5 L86,2 L94,1 L114,1 L127,2 L139,5 L149,8 L159,14 L164,19 L174,32 L180,42 L192,57 L200,70 L203,75 L211,87 L221,102 L231,118 L237,126 L244,137 L253,149 L260,160 L265,165 L274,180 L278,183 L286,199 L291,205 L296,210 L297,225 L299,235 L299,244 L296,254 L291,254 L279,240 L271,230 L265,222 L258,213 L248,200 L239,189 L225,170 L218,163 L214,157 L203,144 L196,134 L184,122 L177,111 L171,104 L164,96 L159,91 L148,78 L148,76 L141,75 L138,80 L131,114 L129,123 L128,136 L125,150 L123,162 L118,189 L116,199 L117,215 L120,225 L125,251 L130,282 L133,294 L135,315 L142,349 L143,352 L145,369 L149,385 L153,416 L154,423 L154,436 L149,440 L142,440 L139,439 L123,438 L116,440 L114,460 L112,463 L113,467 L114,468 L115,479 L115,497 L116,547 L117,588 L116,619 L112,622 L102,624 L73,624 L70,622 L69,619 L67,559 L65,535 L65,511 L64,484 L64,438 L62,403 L61,367 L58,340 L57,334 L54,335 L52,344 L51,357 L51,368 L50,382 L48,430 L48,448 L47,500 L47,571 L46,588 L46,603 L45,617 L43,621 L40,622 L7,622 L2,620 L1,619 L0,601 L0,514 L-1,447 L-2,442 L-14,440 L-21,440 L-34,437 L-36,435 L-36,426 L-34,417 L-32,394 L-29,374 L-27,368 L-25,348 L-23,337 L-22,320 L-18,300 L-16,283 L-14,271 L-9,231 L-8,228 L-7,215 L-7,199 L-11,173 L-16,132 L-19,113 L-22,97 L-24,93 L-29,94 L-37,105 L-43,112 L-53,125 L-58,131 L-65,140 L-73,152 L-81,162 L-90,173 L-98,184 L-110,199 L-117,207 L-124,217 L-128,222 L-136,233 L-145,245 L-153,256 L-156,258 L-159,256 L-159,200 L-154,190 L-147,180 L-134,160 L-124,144 L-118,136 L-113,126 L-104,115 L-99,105 L-91,94 L-87,88 L-77,72 L-71,61 L-61,46 L-54,35 L-45,23 L-36,12 L-30,7 L-23,4 L-16,2 Z M39,78 L39,81 L43,80 L43,78 Z " fill="#000000" transform="translate(190,220)"/>
</svg>
