<?xml version="1.0" encoding="UTF-8"?>
<!-- Generator: visioncortex VTracer 0.6.12 -->
<svg version="1.1" xmlns="http://www.w3.org/2000/svg" width="1176" height="1335">
<path d="M0,0 L8,0 L15,4 L29,3 L38,6 L47,8 L60,16 L69,22 L76,30 L82,37 L89,46 L96,60 L101,72 L103,77 L102,85 L98,102 L96,114 L93,126 L88,139 L81,150 L79,153 L77,153 L75,157 L66,167 L48,178 L38,183 L19,187 L7,187 L-13,184 L-31,177 L-45,167 L-56,157 L-65,144 L-73,129 L-77,118 L-81,94 L-86,83 L-85,76 L-80,64 L-76,57 L-71,51 L-66,43 L-56,36 L-50,26 L-40,19 L-38,19 L-36,15 L-20,7 L-14,3 L-3,1 Z " fill="#000000" transform="translate(468,16)"/>
<path d="M0,0 L11,0 L22,1 L30,5 L40,10 L47,12 L50,15 L55,32 L62,43 L70,58 L75,76 L78,98 L76,116 L71,131 L67,138 L66,140 L64,140 L62,145 L58,150 L46,158 L36,162 L26,164 L11,165 L0,165 L-19,162 L-30,157 L-47,148 L-53,144 L-65,128 L-73,111 L-79,100 L-83,94 L-84,80 L-84,70 L-79,61 L-76,51 L-69,40 L-65,27 L-60,22 L-53,16 L-41,11 L-33,5 L-19,1 L-4,1 Z " fill="#000000" transform="translate(778,182)"/>
<path d="M0,0 L16,1 L26,4 L39,11 L51,23 L58,39 L60,47 L60,67 L56,79 L48,93 L45,98 L44,105 L48,113 L57,122 L64,134 L67,144 L69,152 L71,184 L72,192 L73,227 L73,253 L70,269 L63,284 L63,293 L66,302 L72,313 L79,324 L80,328 L80,338 L77,344 L63,351 L45,363 L31,371 L20,379 L17,383 L15,392 L12,412 L8,427 L5,431 L2,438 L-4,448 L-11,457 L-21,466 L-25,470 L-28,477 L-28,484 L-24,501 L-20,514 L-11,544 L-7,559 L-1,576 L6,600 L11,618 L15,630 L19,643 L27,670 L32,684 L38,707 L47,737 L53,757 L57,767 L64,793 L68,809 L75,832 L77,841 L80,850 L80,856 L75,861 L71,862 L10,863 L-48,863 L-57,864 L-63,867 L-67,871 L-72,887 L-81,930 L-84,949 L-88,965 L-91,985 L-95,1004 L-97,1014 L-102,1019 L-105,1020 L-179,1021 L-191,1020 L-198,1016 L-201,1007 L-206,975 L-208,959 L-212,926 L-214,908 L-216,901 L-218,886 L-221,874 L-224,869 L-230,865 L-234,864 L-312,864 L-322,867 L-326,871 L-328,880 L-329,885 L-330,922 L-332,934 L-332,944 L-334,960 L-333,965 L-333,981 L-334,1012 L-337,1021 L-340,1023 L-362,1024 L-417,1024 L-423,1021 L-426,1017 L-427,1014 L-427,960 L-428,907 L-428,763 L-429,737 L-431,732 L-439,731 L-449,731 L-455,733 L-457,740 L-458,784 L-458,920 L-459,1006 L-462,1016 L-465,1019 L-471,1021 L-515,1021 L-538,1020 L-547,1018 L-551,1013 L-552,1010 L-554,988 L-554,976 L-553,963 L-553,942 L-555,882 L-555,780 L-557,770 L-564,761 L-573,754 L-583,742 L-591,726 L-596,714 L-599,699 L-601,680 L-604,670 L-608,665 L-621,657 L-630,651 L-642,639 L-650,628 L-654,619 L-656,608 L-657,592 L-657,576 L-649,546 L-651,534 L-657,517 L-661,499 L-663,463 L-663,302 L-664,187 L-664,140 L-663,89 L-659,70 L-656,65 L-654,65 L-652,61 L-646,53 L-637,47 L-625,42 L-611,39 L-603,38 L-587,38 L-562,37 L-531,37 L-503,38 L-492,39 L-481,46 L-467,60 L-459,71 L-451,79 L-441,84 L-435,83 L-430,79 L-423,71 L-414,61 L-408,53 L-401,44 L-393,39 L-378,37 L-327,38 L-263,38 L-254,41 L-253,43 L-253,52 L-256,61 L-262,65 L-281,66 L-369,66 L-380,69 L-388,77 L-397,88 L-403,95 L-405,98 L-407,98 L-409,103 L-417,113 L-428,127 L-433,133 L-437,134 L-441,133 L-441,131 L-443,131 L-450,123 L-461,110 L-474,96 L-474,94 L-476,94 L-483,85 L-490,79 L-490,77 L-494,75 L-500,70 L-506,68 L-517,67 L-562,67 L-610,68 L-622,72 L-629,78 L-634,85 L-637,95 L-637,106 L-636,117 L-636,245 L-633,251 L-629,253 L-616,255 L-594,256 L-588,259 L-583,269 L-582,275 L-583,300 L-584,307 L-584,333 L-583,353 L-580,359 L-575,361 L-557,363 L-521,365 L-508,365 L-488,364 L-468,364 L-440,365 L-383,364 L-365,364 L-354,363 L-324,362 L-315,359 L-312,356 L-310,346 L-309,323 L-309,229 L-304,212 L-298,203 L-290,196 L-279,189 L-268,185 L-252,182 L-246,181 L-218,180 L-188,180 L-166,179 L-159,178 L-75,178 L-68,176 L-65,173 L-63,173 L-59,156 L-54,139 L-49,129 L-41,119 L-34,112 L-31,107 L-31,100 L-35,92 L-43,79 L-48,63 L-48,50 L-44,34 L-37,21 L-33,16 L-23,8 L-11,2 Z M11,117 L-4,119 L-18,125 L-29,134 L-35,142 L-41,157 L-43,164 L-44,180 L-44,238 L-46,255 L-49,261 L-49,263 L-54,265 L-64,273 L-78,281 L-91,289 L-98,294 L-101,298 L-101,307 L-94,314 L-80,321 L-77,322 L-69,322 L-52,316 L-33,308 L-10,300 L2,295 L19,288 L28,285 L39,279 L45,274 L52,265 L55,258 L56,250 L56,179 L54,158 L50,141 L43,131 L36,124 L26,119 Z M-253,292 L-266,296 L-282,304 L-285,308 L-287,313 L-290,317 L-290,336 L-286,350 L-284,357 L-278,365 L-270,372 L-263,376 L-261,376 L-259,380 L-250,385 L-242,387 L-233,387 L-233,385 L-240,382 L-248,375 L-254,367 L-258,364 L-272,359 L-277,353 L-277,349 L-269,347 L-271,343 L-274,339 L-276,329 L-279,323 L-279,316 L-276,313 L-271,312 L-261,313 L-250,306 L-245,304 L-236,305 L-234,309 L-227,319 L-226,322 L-226,332 L-231,343 L-231,350 L-227,360 L-226,373 L-227,381 L-222,382 L-218,377 L-215,363 L-214,350 L-218,348 L-217,345 L-212,341 L-211,332 L-214,329 L-213,324 L-212,320 L-217,310 L-224,301 L-233,295 L-247,292 Z M-371,391 L-505,392 L-561,393 L-572,395 L-584,401 L-594,412 L-599,427 L-601,458 L-601,577 L-600,608 L-600,642 L-598,650 L-594,654 L-586,656 L-564,657 L-557,654 L-554,646 L-553,631 L-552,610 L-551,604 L-549,604 L-546,601 L-539,599 L-345,599 L-335,601 L-332,606 L-331,610 L-329,646 L-327,655 L-321,660 L-298,660 L-280,658 L-276,655 L-273,637 L-273,488 L-274,481 L-274,455 L-275,431 L-277,418 L-281,407 L-286,399 L-299,392 L-313,391 Z " fill="#000000" transform="translate(919,183)"/>
<path d="M0,0 L8,2 L24,4 L40,8 L50,16 L59,22 L69,31 L75,43 L78,48 L80,65 L81,71 L74,92 L70,107 L65,118 L57,131 L52,136 L45,142 L33,150 L19,155 L12,156 L-1,156 L-17,154 L-33,148 L-44,141 L-51,135 L-62,121 L-67,108 L-72,96 L-74,89 L-80,76 L-80,68 L-74,50 L-69,42 L-65,35 L-52,21 L-42,15 L-33,9 L-18,4 L-6,2 Z " fill="#000000" transform="translate(478,368)"/>
<path d="M0,0 L91,0 L92,1 L92,6 L91,7 L44,8 L-233,9 L-366,10 L-588,11 L-702,11 L-705,8 L-704,5 L-702,4 L-612,3 L-426,3 L-317,2 L-256,2 L-156,1 L-80,1 Z " fill="#000000" transform="translate(1081,1295)"/>
<path d="M0,0 L150,0 L152,4 L149,7 L39,8 L-98,8 L-214,9 L-215,2 L-211,1 Z " fill="#000000" transform="translate(221,1299)"/>
</svg>
