<?xml version="1.0" encoding="UTF-8"?>
<!-- Generator: visioncortex VTracer 0.6.12 -->
<svg version="1.1" xmlns="http://www.w3.org/2000/svg" width="390" height="1200">
<path d="M0,0 L9,0 L22,2 L39,10 L49,18 L57,25 L61,31 L64,33 L77,36 L85,43 L91,56 L92,61 L93,76 L93,87 L90,103 L86,118 L80,129 L73,134 L57,135 L46,144 L31,153 L17,158 L11,159 L-10,159 L-31,154 L-50,144 L-55,140 L-68,135 L-77,128 L-82,123 L-92,110 L-95,94 L-97,84 L-96,70 L-91,53 L-86,44 L-80,39 L-69,35 L-53,19 L-42,12 L-32,6 L-13,1 Z M-2,27 L-7,29 L-18,34 L-26,37 L-43,38 L-50,42 L-57,52 L-61,60 L-64,81 L-60,102 L-54,113 L-48,121 L-41,128 L-28,136 L-17,140 L-11,141 L4,141 L20,137 L30,133 L37,129 L46,118 L53,107 L58,94 L59,87 L59,70 L55,57 L49,47 L45,42 L32,38 L12,32 L3,27 Z " fill="#000000" transform="translate(208,52)"/>
<path d="M0,0 L11,0 L23,2 L28,7 L29,8 L29,16 L24,37 L20,62 L17,76 L13,110 L12,114 L11,129 L8,140 L5,142 L-16,144 L-22,143 L-95,141 L-106,139 L-109,136 L-110,133 L-112,114 L-114,105 L-116,80 L-121,56 L-125,41 L-128,22 L-130,11 L-127,6 L-124,4 L-105,1 L-97,1 L-92,5 L-87,14 L-82,33 L-74,49 L-68,59 L-58,74 L-55,79 L-50,81 L-45,78 L-37,68 L-31,56 L-25,46 L-14,23 L-10,15 L-6,5 Z " fill="#000000" transform="translate(251,225)"/>
<path d="M0,0 L7,0 L23,6 L33,13 L41,24 L45,38 L50,66 L52,76 L53,105 L52,159 L49,191 L47,235 L45,252 L43,280 L42,286 L40,322 L35,348 L35,364 L36,376 L36,386 L33,395 L29,403 L20,418 L13,426 L1,434 L0,440 L3,449 L5,461 L6,464 L7,482 L11,496 L14,528 L17,547 L17,558 L20,575 L21,595 L23,603 L25,622 L27,634 L27,645 L31,665 L34,685 L39,710 L40,712 L40,719 L35,723 L13,728 L2,729 L-24,727 L-46,727 L-51,730 L-55,752 L-59,790 L-64,834 L-65,851 L-69,880 L-71,901 L-74,922 L-76,945 L-80,960 L-83,962 L-110,963 L-141,963 L-146,959 L-148,950 L-151,918 L-154,886 L-156,860 L-158,843 L-161,793 L-164,750 L-166,734 L-168,730 L-176,728 L-221,729 L-261,729 L-267,724 L-270,715 L-267,702 L-266,687 L-262,666 L-259,654 L-257,632 L-252,604 L-250,582 L-248,569 L-245,541 L-242,517 L-239,502 L-237,486 L-234,468 L-232,447 L-231,440 L-233,435 L-249,426 L-261,415 L-266,408 L-270,390 L-271,359 L-273,351 L-274,336 L-276,322 L-277,305 L-278,291 L-278,237 L-277,206 L-277,172 L-274,135 L-270,114 L-267,94 L-265,75 L-263,67 L-261,54 L-256,26 L-252,18 L-240,9 L-227,4 L-219,2 L-213,3 L-209,8 L-206,18 L-204,27 L-200,43 L-198,54 L-195,73 L-192,98 L-191,147 L-191,201 L-190,249 L-191,287 L-196,303 L-201,331 L-203,350 L-205,360 L-206,372 L-208,382 L-212,412 L-214,421 L-216,442 L-216,454 L-219,470 L-220,474 L-223,505 L-228,542 L-230,559 L-233,586 L-236,598 L-239,624 L-241,645 L-243,655 L-246,677 L-247,696 L-243,699 L-234,700 L-196,701 L-171,703 L-149,705 L-69,705 L-54,706 L0,705 L12,704 L14,702 L14,691 L10,654 L8,646 L5,612 L4,591 L1,573 L-1,557 L-3,535 L-7,511 L-10,488 L-12,470 L-14,459 L-17,434 L-19,419 L-20,397 L-22,378 L-24,357 L-26,353 L-26,335 L-29,308 L-31,299 L-32,278 L-34,268 L-34,238 L-33,228 L-32,200 L-31,195 L-28,146 L-26,125 L-24,110 L-23,96 L-21,90 L-20,75 L-18,67 L-16,49 L-10,19 L-7,7 L-4,2 Z M-249,377 L-253,381 L-254,384 L-254,392 L-251,402 L-241,411 L-234,415 L-229,414 L-228,412 L-225,387 L-226,381 L-232,378 L-238,377 Z M9,384 L0,386 L-3,391 L-3,406 L0,410 L6,410 L13,402 L16,393 L15,386 Z " fill="#000000" transform="translate(309,235)"/>
</svg>
