<?xml version="1.0" encoding="UTF-8"?>
<!-- Generator: visioncortex VTracer 0.6.12 -->
<svg version="1.1" xmlns="http://www.w3.org/2000/svg" width="738" height="1299">
<path d="M0,0 L728,0 L728,17 L675,17 L671,18 L506,20 L434,21 L429,22 L295,22 L257,23 L172,23 L116,24 L0,24 L-1,23 L-1,1 Z " fill="#000000" transform="translate(10,9)"/>
<path d="M0,0 L18,2 L28,4 L42,10 L53,17 L56,20 L56,22 L60,24 L66,29 L74,43 L80,56 L87,87 L91,92 L95,106 L95,123 L89,142 L84,158 L82,164 L83,170 L86,171 L145,172 L157,174 L170,179 L182,187 L190,196 L197,208 L200,215 L204,229 L205,249 L205,258 L201,282 L193,320 L190,328 L187,340 L180,364 L175,379 L171,394 L160,421 L155,434 L149,455 L143,467 L141,476 L142,491 L146,534 L149,564 L151,578 L151,588 L155,621 L157,644 L159,659 L163,702 L165,717 L168,751 L170,765 L173,793 L175,809 L176,828 L179,847 L181,863 L186,903 L190,921 L189,926 L185,932 L183,933 L166,935 L161,940 L160,967 L160,1040 L159,1082 L158,1100 L155,1105 L152,1107 L122,1108 L74,1108 L19,1109 L14,1106 L10,1099 L9,1066 L9,1020 L10,949 L8,943 L4,941 L-7,940 L-29,940 L-34,942 L-37,954 L-39,984 L-41,997 L-42,1016 L-42,1074 L-44,1101 L-48,1107 L-55,1110 L-103,1110 L-134,1111 L-169,1111 L-190,1110 L-195,1105 L-197,1097 L-196,1076 L-195,1071 L-194,1020 L-194,1004 L-192,980 L-188,971 L-188,959 L-190,952 L-190,937 L-189,931 L-189,905 L-192,888 L-191,872 L-190,861 L-188,855 L-186,840 L-184,833 L-182,819 L-178,801 L-176,789 L-173,773 L-169,745 L-164,723 L-158,691 L-154,678 L-149,656 L-146,641 L-138,613 L-133,592 L-127,571 L-124,559 L-119,540 L-120,535 L-133,527 L-143,511 L-150,500 L-154,489 L-157,477 L-157,451 L-154,438 L-147,426 L-140,420 L-129,416 L-120,412 L-121,406 L-125,398 L-128,391 L-134,379 L-144,356 L-148,350 L-154,338 L-164,319 L-173,302 L-183,278 L-188,264 L-189,256 L-189,243 L-187,228 L-181,210 L-175,201 L-167,191 L-158,185 L-149,181 L-111,179 L-38,179 L-30,177 L-30,171 L-42,149 L-52,134 L-59,126 L-69,111 L-73,100 L-75,91 L-75,70 L-71,53 L-61,32 L-51,21 L-36,11 L-23,5 Z M0,33 L-12,35 L-23,41 L-33,50 L-35,55 L-37,55 L-41,63 L-43,70 L-43,88 L-38,102 L-31,111 L-23,118 L-7,125 L-4,126 L9,126 L22,123 L34,116 L43,106 L47,100 L50,94 L51,89 L51,75 L45,57 L36,45 L27,39 L19,35 L7,33 Z M57,139 L43,149 L26,156 L17,159 L3,161 L0,166 L2,175 L10,188 L15,192 L22,194 L33,194 L40,191 L47,181 L53,166 L58,154 L62,145 L61,140 Z M122,200 L82,202 L77,207 L75,215 L72,235 L67,251 L61,271 L58,278 L53,298 L49,306 L43,323 L38,333 L29,354 L17,376 L6,399 L3,405 L4,411 L9,413 L28,413 L37,408 L45,399 L52,386 L60,370 L70,349 L80,326 L86,312 L93,292 L95,287 L104,287 L108,291 L109,294 L109,304 L105,319 L101,329 L92,353 L89,361 L83,373 L76,387 L70,398 L64,407 L57,419 L47,432 L42,436 L32,438 L11,440 L-25,443 L-57,446 L-65,449 L-68,453 L-67,476 L-65,485 L-61,489 L-28,489 L-13,487 L47,483 L58,483 L64,482 L81,481 L97,479 L105,475 L111,467 L122,443 L127,432 L132,421 L136,410 L141,399 L147,382 L154,359 L159,334 L164,319 L166,310 L168,304 L171,288 L175,277 L177,263 L177,236 L174,221 L168,212 L161,205 L147,201 L133,200 Z M-52,205 L-101,206 L-138,208 L-146,212 L-152,218 L-157,231 L-159,252 L-157,264 L-151,277 L-145,293 L-136,312 L-130,324 L-122,340 L-116,352 L-104,379 L-95,395 L-87,412 L-82,416 L-76,418 L-63,418 L-44,417 L-34,413 L-29,407 L-23,395 L-16,384 L-10,373 L-2,358 L1,351 L9,335 L18,315 L22,306 L27,294 L30,284 L35,273 L40,259 L44,239 L45,232 L45,224 L42,221 L38,220 L5,220 L-4,222 L-8,227 L-15,253 L-20,271 L-26,286 L-32,298 L-38,311 L-41,321 L-51,336 L-57,342 L-63,342 L-74,323 L-84,302 L-91,288 L-93,283 L-93,277 L-91,272 L-82,269 L-75,269 L-70,274 L-65,281 L-62,287 L-61,288 L-55,288 L-52,283 L-44,263 L-40,251 L-37,239 L-32,226 L-31,209 L-35,205 Z M-124,445 L-130,448 L-133,454 L-133,467 L-130,471 L-130,482 L-125,492 L-118,502 L-116,503 L-104,503 L-97,499 L-94,495 L-94,482 L-96,462 L-99,454 L-110,448 L-114,446 Z M89,510 L69,511 L62,512 L6,515 L-19,517 L-24,518 L-67,521 L-76,523 L-82,527 L-90,544 L-99,573 L-102,588 L-114,629 L-118,645 L-122,664 L-124,675 L-130,696 L-133,710 L-137,727 L-141,748 L-143,760 L-146,777 L-148,794 L-152,819 L-154,834 L-157,863 L-159,877 L-160,897 L-157,905 L-151,908 L-15,908 L4,909 L38,906 L105,905 L133,905 L146,904 L152,901 L155,897 L155,877 L152,850 L149,818 L146,789 L144,781 L143,762 L141,750 L140,731 L135,700 L132,666 L130,641 L126,608 L125,590 L121,563 L118,531 L114,515 L111,512 L109,511 Z " fill="#000000" transform="translate(507,132)"/>
</svg>
