<?xml version="1.0" encoding="UTF-8"?>
<!-- Generator: visioncortex VTracer 0.6.12 -->
<svg version="1.1" xmlns="http://www.w3.org/2000/svg" width="450" height="1236">
<path d="M0,0 L57,0 L60,6 L66,9 L73,7 L75,5 L76,0 L136,0 L140,10 L137,16 L132,20 L125,32 L122,39 L118,40 L108,34 L96,28 L89,20 L86,18 L79,19 L73,23 L67,23 L58,16 L53,17 L45,27 L29,34 L18,41 L16,43 L10,43 L5,31 L1,25 L-8,18 L-9,12 L-2,3 Z " fill="#000000" transform="translate(160,0)"/>
<path d="M0,0 L18,2 L36,5 L52,14 L55,18 L55,23 L43,34 L32,39 L14,42 L-5,42 L-23,34 L-33,28 L-37,23 L-36,16 L-25,9 L-15,4 Z " fill="#000000" transform="translate(220,36)"/>
<path d="M0,0 L6,1 L14,11 L19,17 L23,21 L22,27 L20,37 L21,57 L24,72 L29,80 L38,88 L46,92 L61,96 L77,95 L91,90 L101,84 L109,75 L112,69 L113,43 L114,40 L114,30 L111,21 L112,16 L118,10 L122,2 L128,2 L135,8 L138,15 L138,37 L141,42 L141,53 L138,63 L131,72 L126,75 L117,77 L102,91 L88,99 L82,101 L60,102 L48,99 L32,91 L24,86 L8,81 L0,75 L-3,70 L-4,66 L-4,57 L1,48 L2,40 L-4,28 L-4,6 L-2,1 Z " fill="#000000" transform="translate(164,52)"/>
<path d="M0,0 L10,0 L14,6 L19,23 L27,48 L31,59 L36,77 L41,92 L44,99 L49,116 L54,117 L58,83 L61,35 L62,25 L66,25 L68,31 L70,57 L72,69 L74,86 L78,113 L81,114 L83,113 L93,80 L99,57 L106,33 L110,20 L113,4 L117,1 L124,1 L147,7 L178,15 L208,23 L220,29 L233,40 L238,48 L242,59 L246,74 L246,87 L248,93 L254,144 L256,167 L258,197 L259,222 L259,293 L257,347 L255,359 L253,387 L247,442 L244,457 L242,470 L237,474 L226,475 L223,479 L219,497 L215,513 L211,521 L208,530 L201,539 L193,546 L188,549 L186,549 L184,559 L187,597 L188,601 L190,619 L194,651 L196,677 L200,702 L202,719 L204,743 L206,763 L206,779 L203,781 L160,780 L123,780 L120,784 L114,827 L111,846 L108,870 L105,891 L99,936 L96,956 L94,972 L90,1007 L88,1014 L84,1017 L60,1017 L35,1016 L18,1016 L12,1014 L9,1010 L6,993 L1,937 L0,934 L-6,867 L-9,833 L-11,807 L-14,780 L-16,778 L-24,777 L-89,776 L-96,773 L-96,757 L-92,716 L-89,681 L-86,655 L-83,632 L-82,614 L-80,593 L-78,578 L-76,567 L-75,552 L-78,545 L-85,538 L-93,525 L-99,507 L-102,495 L-104,474 L-116,472 L-121,468 L-124,449 L-128,409 L-132,368 L-135,306 L-135,243 L-132,201 L-129,168 L-126,152 L-123,129 L-121,114 L-117,93 L-114,77 L-110,61 L-104,45 L-98,36 L-87,29 L-69,21 L-42,12 L-27,7 Z M155,43 L146,49 L147,56 L150,58 L156,57 L163,47 L162,43 Z M175,218 L171,224 L163,248 L159,261 L159,263 L151,261 L150,262 L149,280 L146,296 L146,311 L150,316 L153,318 L156,329 L161,345 L166,368 L168,381 L173,404 L175,406 L179,405 L181,396 L183,367 L184,331 L184,275 L182,237 L180,221 L178,218 Z M-50,227 L-52,235 L-56,266 L-58,292 L-60,318 L-60,359 L-58,403 L-54,404 L-51,399 L-43,365 L-38,343 L-36,339 L-31,317 L-28,309 L-27,302 L-27,288 L-33,269 L-43,231 L-46,227 Z M58,230 L52,235 L51,241 L54,247 L57,249 L64,249 L70,245 L71,238 L67,232 L64,230 Z M57,311 L52,317 L51,326 L55,330 L62,331 L67,329 L69,325 L69,317 L64,311 Z M128,372 L127,376 L131,377 L132,374 L131,372 Z M54,385 L51,389 L50,396 L52,401 L57,405 L63,404 L68,400 L69,393 L63,386 Z M-9,470 L-88,472 L-93,474 L-94,476 L-94,493 L-91,511 L-84,525 L-80,529 L-74,529 L-70,524 L-66,504 L-64,492 L-60,482 L-60,480 L-51,479 L-33,479 L-4,481 L68,481 L83,480 L101,481 L110,481 L121,482 L167,483 L179,485 L180,496 L182,504 L184,525 L186,532 L190,535 L197,533 L203,526 L207,522 L209,510 L212,500 L215,484 L215,478 L212,475 L209,474 L174,474 L149,473 L120,473 L113,472 L82,472 L3,471 Z M0,777 L-4,780 L-5,784 L-4,812 L0,848 L1,862 L1,875 L3,883 L6,920 L7,924 L8,942 L12,974 L14,996 L16,1006 L21,1011 L38,1012 L43,1009 L45,1005 L45,974 L47,887 L48,830 L48,787 L46,780 L43,778 L19,777 Z M64,778 L59,781 L57,786 L56,798 L54,873 L51,943 L50,973 L49,994 L49,1005 L52,1010 L59,1012 L74,1012 L79,1010 L82,1003 L85,980 L87,972 L90,942 L92,933 L95,906 L98,881 L104,842 L106,831 L107,817 L110,797 L110,781 L107,779 L88,778 Z " fill="#000000" transform="translate(164,191)"/>
</svg>
