<?xml version="1.0" encoding="UTF-8"?>
<!-- Generator: visioncortex VTracer 0.6.12 -->
<svg version="1.1" xmlns="http://www.w3.org/2000/svg" width="681" height="1002">
<path d="M0,0 L10,0 L24,5 L31,9 L51,9 L61,13 L70,20 L76,29 L81,43 L90,50 L95,55 L97,59 L99,59 L101,66 L99,70 L91,76 L89,80 L89,99 L87,116 L82,130 L71,147 L64,155 L50,166 L34,173 L25,176 L11,178 L-6,179 L-25,173 L-41,164 L-51,155 L-56,151 L-60,146 L-64,144 L-72,145 L-82,150 L-85,151 L-98,151 L-110,145 L-120,135 L-124,128 L-125,124 L-125,116 L-122,106 L-113,95 L-102,86 L-100,84 L-100,77 L-101,74 L-101,66 L-97,58 L-90,50 L-80,44 L-72,40 L-69,36 L-64,26 L-59,19 L-46,10 L-43,9 L-21,9 L-7,2 Z M20,73 L9,77 L-1,86 L-8,97 L-15,106 L-24,117 L-30,122 L-30,124 L-33,125 L-35,128 L-35,134 L-30,141 L-17,149 L-3,153 L10,154 L27,152 L36,149 L40,145 L40,143 L45,141 L52,133 L57,127 L64,112 L65,106 L65,87 L62,77 L60,75 L52,75 L44,79 L39,78 L34,73 Z " fill="#000000" transform="translate(199,30)"/>
<path d="M0,0 L8,1 L24,9 L35,16 L44,22 L53,29 L65,39 L73,45 L77,51 L76,58 L72,65 L66,68 L30,68 L27,71 L24,78 L20,82 L8,86 L3,89 L3,92 L5,93 L15,92 L29,91 L37,89 L56,89 L69,93 L74,96 L81,104 L88,114 L92,122 L98,131 L109,154 L113,158 L117,159 L124,159 L126,158 L126,147 L130,144 L137,145 L141,149 L143,154 L148,155 L153,153 L154,152 L153,142 L155,139 L167,139 L171,142 L176,142 L178,134 L179,118 L182,106 L188,98 L197,94 L238,94 L244,99 L247,116 L249,147 L253,186 L256,195 L264,199 L269,202 L271,206 L272,256 L272,396 L273,471 L273,495 L274,532 L274,651 L276,659 L290,668 L297,675 L305,688 L309,701 L309,714 L307,725 L302,738 L295,747 L287,755 L281,758 L269,762 L251,763 L241,761 L232,757 L221,750 L213,742 L208,735 L204,724 L203,720 L203,698 L207,688 L212,679 L221,669 L233,660 L238,656 L240,652 L241,617 L241,468 L240,436 L240,387 L239,354 L239,333 L238,315 L237,273 L235,260 L230,257 L189,256 L56,257 L38,258 L34,261 L33,265 L33,304 L36,311 L39,312 L96,313 L102,318 L107,330 L114,365 L120,383 L122,387 L123,401 L129,426 L133,446 L136,460 L141,485 L144,497 L148,517 L157,555 L162,581 L168,609 L177,648 L182,673 L188,698 L195,732 L198,750 L197,754 L182,753 L155,754 L150,751 L147,744 L138,715 L132,699 L125,677 L120,660 L112,639 L104,615 L101,605 L94,584 L89,568 L78,537 L73,521 L67,503 L63,493 L59,484 L53,483 L45,487 L38,492 L36,497 L35,514 L36,565 L37,620 L37,635 L39,657 L43,661 L55,670 L55,672 L58,673 L67,684 L71,694 L73,701 L73,719 L69,734 L63,743 L56,750 L54,750 L53,753 L42,760 L39,761 L20,760 L11,762 L4,762 L-7,756 L-13,752 L-18,747 L-24,739 L-30,729 L-32,719 L-32,699 L-26,684 L-18,673 L-8,665 L3,658 L6,652 L6,621 L4,522 L1,519 L-5,519 L-18,528 L-37,540 L-56,552 L-75,564 L-82,566 L-89,563 L-97,556 L-102,551 L-109,544 L-114,539 L-119,533 L-127,526 L-134,519 L-139,514 L-146,507 L-152,502 L-157,497 L-164,490 L-167,488 L-167,486 L-171,484 L-173,480 L-177,478 L-185,470 L-185,468 L-189,466 L-195,459 L-203,452 L-206,449 L-206,447 L-208,447 L-213,442 L-218,438 L-221,434 L-221,432 L-224,431 L-224,429 L-228,427 L-236,418 L-241,413 L-249,404 L-255,395 L-257,386 L-259,361 L-259,341 L-258,320 L-258,278 L-257,248 L-257,228 L-258,203 L-258,176 L-257,170 L-256,125 L-252,100 L-246,79 L-240,63 L-232,43 L-224,27 L-214,10 L-207,2 L-200,1 L-181,6 L-170,12 L-158,21 L-158,23 L-154,25 L-140,39 L-130,52 L-122,65 L-118,71 L-113,82 L-113,84 L-107,85 L-101,81 L-88,67 L-81,59 L-69,47 L-61,36 L-55,33 L-42,30 L-31,22 L-20,13 L-11,5 Z M1,23 L-9,28 L-16,34 L-27,42 L-31,48 L-31,55 L-27,61 L-19,70 L-12,73 L-1,71 L4,68 L8,52 L11,51 L21,51 L29,52 L46,52 L47,48 L42,43 L29,33 L5,23 Z M45,110 L26,112 L15,116 L10,120 L9,127 L15,143 L21,148 L28,151 L37,151 L50,146 L57,146 L67,150 L80,159 L85,160 L87,158 L86,152 L78,136 L73,127 L65,116 L61,112 L55,110 Z M54,164 L48,168 L43,171 L35,171 L25,169 L13,169 L-3,177 L-22,186 L-32,192 L-48,200 L-62,209 L-73,214 L-84,221 L-88,226 L-89,228 L-89,292 L-87,306 L-83,311 L-79,312 L-34,313 L-13,313 L-3,311 L0,308 L1,298 L1,253 L0,215 L1,206 L6,205 L29,204 L34,201 L35,199 L36,189 L41,184 L55,179 L65,176 L68,173 L66,168 L61,164 Z " fill="#000000" transform="translate(345,212)"/>
<path d="M0,0 L10,0 L20,2 L25,5 L26,7 L27,18 L30,232 L31,291 L31,320 L27,325 L24,326 L17,326 L1,321 L-3,315 L-4,309 L-4,285 L-5,215 L-5,197 L-6,148 L-6,109 L-7,75 L-7,8 L-4,2 Z " fill="#000000" transform="translate(36,304)"/>
<path d="M0,0 L6,0 L14,7 L21,13 L27,20 L29,21 L29,23 L33,25 L33,27 L35,27 L39,32 L44,37 L48,44 L49,57 L49,143 L51,149 L60,153 L87,164 L99,172 L113,184 L120,190 L128,200 L135,210 L141,221 L145,230 L149,242 L153,260 L152,270 L147,274 L144,275 L105,275 L101,271 L99,261 L97,249 L91,237 L81,224 L74,217 L60,208 L44,202 L32,200 L22,200 L7,202 L-2,205 L-19,214 L-30,223 L-38,233 L-44,243 L-49,255 L-53,270 L-58,275 L-81,276 L-97,276 L-103,273 L-105,271 L-104,258 L-100,240 L-90,214 L-83,203 L-75,192 L-70,186 L-65,182 L-60,177 L-44,165 L-28,157 L-21,154 L-9,151 L-5,147 L-4,144 L-3,118 L-2,107 L-2,3 Z " fill="#000000" transform="translate(143,698)"/>
</svg>
