<?xml version="1.0" encoding="UTF-8"?>
<!-- Generator: visioncortex VTracer 0.6.12 -->
<svg version="1.1" xmlns="http://www.w3.org/2000/svg" width="1092" height="1242">
<path d="M0,0 L14,1 L19,5 L21,15 L21,83 L22,124 L22,209 L21,218 L22,221 L23,245 L24,252 L24,304 L25,400 L26,425 L26,439 L27,442 L27,504 L26,514 L27,525 L28,605 L28,758 L29,763 L30,792 L29,800 L29,815 L30,835 L30,889 L31,942 L31,965 L34,972 L43,977 L44,978 L43,985 L40,995 L38,997 L13,1000 L-12,1001 L-16,1004 L-35,1004 L-41,1007 L-47,1006 L-50,1004 L-55,1003 L-72,1002 L-83,1000 L-104,1001 L-107,1002 L-119,1002 L-140,1001 L-152,1001 L-168,1003 L-219,1002 L-235,1003 L-260,1002 L-263,1003 L-271,1003 L-284,1002 L-286,1001 L-299,1001 L-308,1002 L-338,1003 L-341,1002 L-388,1003 L-419,1003 L-429,1004 L-490,1004 L-506,1003 L-515,1005 L-582,1005 L-588,1006 L-608,1006 L-627,1005 L-631,1006 L-673,1006 L-711,1007 L-731,1007 L-758,1008 L-782,1008 L-791,1007 L-806,1008 L-853,1009 L-876,1010 L-902,1010 L-912,1009 L-933,1010 L-943,1010 L-948,1009 L-956,1010 L-961,1008 L-969,998 L-971,997 L-970,993 L-968,989 L-968,934 L-969,924 L-969,867 L-970,774 L-971,714 L-971,675 L-972,660 L-972,611 L-973,552 L-973,451 L-974,438 L-974,405 L-975,396 L-975,366 L-976,292 L-977,171 L-978,119 L-978,13 L-975,9 L-966,9 L-954,8 L-947,9 L-933,9 L-919,7 L-916,8 L-871,8 L-865,7 L-808,7 L-800,8 L-777,8 L-767,7 L-764,8 L-716,7 L-706,6 L-701,8 L-692,7 L-673,7 L-605,6 L-487,6 L-474,5 L-460,5 L-432,6 L-399,5 L-389,6 L-380,5 L-372,5 L-364,4 L-353,4 L-346,5 L-340,4 L-302,4 L-275,3 L-198,3 L-111,2 L-90,2 L-83,1 L-76,2 L-43,2 L-39,1 L-32,1 L-27,2 L-2,1 Z M-497,58 L-501,60 L-512,59 L-528,61 L-552,63 L-566,67 L-581,70 L-604,76 L-607,78 L-616,80 L-622,83 L-630,85 L-633,87 L-643,90 L-660,99 L-674,104 L-686,110 L-703,120 L-713,126 L-721,130 L-731,138 L-740,144 L-755,155 L-761,162 L-770,168 L-775,173 L-783,181 L-788,185 L-792,190 L-797,195 L-805,203 L-811,211 L-819,220 L-824,226 L-827,229 L-830,235 L-838,244 L-844,253 L-851,263 L-857,272 L-867,289 L-875,305 L-882,320 L-888,332 L-893,345 L-898,361 L-900,364 L-905,381 L-907,393 L-911,406 L-914,417 L-917,434 L-920,454 L-922,485 L-923,506 L-922,526 L-920,562 L-916,583 L-914,597 L-910,612 L-908,623 L-902,643 L-896,660 L-892,670 L-890,677 L-886,683 L-881,698 L-877,704 L-873,714 L-867,725 L-860,737 L-852,751 L-844,762 L-837,771 L-830,783 L-820,794 L-812,804 L-807,809 L-800,816 L-796,822 L-789,827 L-782,835 L-775,840 L-769,847 L-761,854 L-754,861 L-743,870 L-733,877 L-730,880 L-722,884 L-711,892 L-702,897 L-692,903 L-674,913 L-661,918 L-647,925 L-637,929 L-621,935 L-604,941 L-588,945 L-580,948 L-557,953 L-544,955 L-528,957 L-525,958 L-518,958 L-515,954 L-514,950 L-513,919 L-512,831 L-511,824 L-511,736 L-513,730 L-515,729 L-535,728 L-543,727 L-591,727 L-596,728 L-608,728 L-628,727 L-646,728 L-653,731 L-660,730 L-663,726 L-664,723 L-664,712 L-659,689 L-655,665 L-653,651 L-651,638 L-647,612 L-646,610 L-644,594 L-637,563 L-633,548 L-631,538 L-626,518 L-622,505 L-618,485 L-613,469 L-607,448 L-605,441 L-601,432 L-595,414 L-591,404 L-586,392 L-577,368 L-572,356 L-564,340 L-558,329 L-552,320 L-548,312 L-537,299 L-532,294 L-525,286 L-517,279 L-498,267 L-479,258 L-474,255 L-474,250 L-488,246 L-497,242 L-505,239 L-516,229 L-521,224 L-528,214 L-536,199 L-540,181 L-540,158 L-538,147 L-531,130 L-523,119 L-511,107 L-501,100 L-491,95 L-476,92 L-463,91 L-448,94 L-428,101 L-418,109 L-410,116 L-403,125 L-396,140 L-392,158 L-392,183 L-397,202 L-401,211 L-405,216 L-413,228 L-422,235 L-435,243 L-440,246 L-449,248 L-452,250 L-451,254 L-447,257 L-437,261 L-430,263 L-422,270 L-413,276 L-401,287 L-390,299 L-385,307 L-377,320 L-370,330 L-364,340 L-359,353 L-349,374 L-339,397 L-335,407 L-331,415 L-326,432 L-320,447 L-315,468 L-312,475 L-305,498 L-301,514 L-298,522 L-292,548 L-289,562 L-284,586 L-279,611 L-277,618 L-274,639 L-269,669 L-268,671 L-265,701 L-263,711 L-263,725 L-264,727 L-268,728 L-277,727 L-303,726 L-321,726 L-327,725 L-329,726 L-355,726 L-365,727 L-371,726 L-409,727 L-413,731 L-414,743 L-415,849 L-415,886 L-416,897 L-416,934 L-415,953 L-412,956 L-404,956 L-392,955 L-385,954 L-381,952 L-364,949 L-352,946 L-346,945 L-340,942 L-331,939 L-319,936 L-309,932 L-306,930 L-296,928 L-286,923 L-274,918 L-264,913 L-254,908 L-246,904 L-231,895 L-222,889 L-211,882 L-203,876 L-197,871 L-191,867 L-181,859 L-170,849 L-159,841 L-137,819 L-128,808 L-121,799 L-115,794 L-109,784 L-102,774 L-92,760 L-86,751 L-74,731 L-67,718 L-62,710 L-51,685 L-44,665 L-39,650 L-36,641 L-33,629 L-30,620 L-28,607 L-24,592 L-22,587 L-20,561 L-19,554 L-18,536 L-18,480 L-19,465 L-23,443 L-24,430 L-29,412 L-31,400 L-34,387 L-38,379 L-42,364 L-44,361 L-47,350 L-53,335 L-61,318 L-66,306 L-77,288 L-85,272 L-93,261 L-101,249 L-107,240 L-115,228 L-122,219 L-127,214 L-137,203 L-144,195 L-149,190 L-165,174 L-171,169 L-175,165 L-192,152 L-196,147 L-205,143 L-211,138 L-216,136 L-217,133 L-235,123 L-251,113 L-273,101 L-279,97 L-292,93 L-308,86 L-317,83 L-334,78 L-338,76 L-354,72 L-363,71 L-376,67 L-385,66 L-392,64 L-401,63 L-407,61 L-444,58 Z M-612,71 L-612,73 L-610,73 L-610,71 Z M-471,466 L-471,469 L-468,469 L-468,466 Z M-464,729 L-467,733 L-468,738 L-468,754 L-469,800 L-469,848 L-470,871 L-470,917 L-471,920 L-471,954 L-469,958 L-463,958 L-459,955 L-458,933 L-457,876 L-457,787 L-456,734 L-460,729 Z " fill="#000000" transform="translate(1014,35)"/>
<path d="M0,0 L5,1 L4,4 L0,4 Z " fill="#000000" transform="translate(763,764)"/>
<path d="M0,0 L54,0 L58,4 L57,10 L51,13 L35,13 L33,17 L32,33 L33,52 L33,70 L31,79 L28,81 L23,80 L20,76 L19,71 L19,20 L17,15 L11,13 L-1,13 L-5,11 L-5,2 Z " fill="#000000" transform="translate(47,1128)"/>
<path d="M0,0 L9,0 L14,6 L19,20 L23,30 L25,37 L28,46 L33,57 L37,67 L40,74 L39,81 L38,82 L31,82 L26,79 L21,65 L17,59 L16,58 L-6,58 L-11,60 L-15,67 L-17,73 L-21,80 L-23,81 L-30,81 L-32,79 L-32,72 L-26,60 L-22,47 L-14,30 L-10,17 L-5,5 Z M3,22 L-1,26 L-4,36 L-4,44 L0,47 L7,47 L11,45 L11,35 L7,25 Z " fill="#000000" transform="translate(142,1128)"/>
<path d="M0,0 L2,0 L2,2 L0,2 Z " fill="#000000" transform="translate(1027,1173)"/>
</svg>
