<?xml version="1.0" encoding="UTF-8"?>
<!-- Generator: visioncortex VTracer 0.6.12 -->
<svg version="1.1" xmlns="http://www.w3.org/2000/svg" width="1194" height="1227">
<path d="M0,0 L13,2 L20,3 L29,4 L44,8 L62,11 L76,17 L81,20 L89,23 L98,27 L112,34 L120,40 L129,46 L143,56 L151,63 L159,70 L166,78 L173,86 L182,97 L191,110 L195,116 L200,121 L205,133 L211,146 L217,164 L220,171 L224,184 L230,217 L232,241 L232,275 L233,300 L233,369 L234,390 L234,458 L235,477 L235,521 L236,546 L236,595 L237,665 L237,700 L238,727 L238,776 L240,830 L240,861 L241,909 L236,944 L232,961 L227,980 L220,994 L216,1002 L213,1009 L207,1020 L202,1029 L194,1040 L184,1053 L175,1063 L168,1071 L164,1076 L158,1080 L150,1087 L140,1094 L130,1102 L121,1108 L111,1113 L103,1116 L75,1128 L65,1131 L56,1132 L49,1135 L39,1137 L30,1138 L20,1138 L15,1140 L-6,1139 L-40,1139 L-57,1140 L-172,1140 L-226,1141 L-244,1140 L-259,1140 L-275,1141 L-369,1141 L-376,1142 L-400,1141 L-433,1142 L-436,1143 L-443,1143 L-450,1142 L-476,1142 L-481,1143 L-522,1143 L-588,1144 L-606,1144 L-616,1145 L-652,1145 L-666,1144 L-698,1137 L-707,1135 L-721,1131 L-731,1126 L-754,1115 L-760,1111 L-776,1102 L-784,1094 L-795,1086 L-809,1073 L-809,1071 L-813,1069 L-820,1060 L-827,1051 L-833,1043 L-840,1033 L-848,1017 L-852,1009 L-857,993 L-862,984 L-867,967 L-870,955 L-872,943 L-874,928 L-875,907 L-875,876 L-876,819 L-876,803 L-877,797 L-877,742 L-878,670 L-878,622 L-879,579 L-879,560 L-880,553 L-880,544 L-879,539 L-879,526 L-880,514 L-880,445 L-881,431 L-881,344 L-882,335 L-882,291 L-883,265 L-882,249 L-881,230 L-875,194 L-869,172 L-863,154 L-860,150 L-858,143 L-854,136 L-850,128 L-841,114 L-836,108 L-828,97 L-820,88 L-813,80 L-806,72 L-801,67 L-792,62 L-784,56 L-776,49 L-770,46 L-759,39 L-740,30 L-716,22 L-704,20 L-702,18 L-686,16 L-679,13 L-673,11 L-642,10 L-631,9 L-574,9 L-533,8 L-515,8 L-486,7 L-446,6 L-439,7 L-411,6 L-358,6 L-353,5 L-347,7 L-343,5 L-338,5 L-336,7 L-322,8 L-316,7 L-304,7 L-295,6 L-288,7 L-282,5 L-278,6 L-256,5 L-242,6 L-239,4 L-234,5 L-219,5 L-216,4 L-190,4 L-187,5 L-171,5 L-164,3 L-94,3 L-88,2 L-54,3 L-40,2 L-21,2 Z M-706,24 L-706,27 L-703,27 L-703,24 Z M-301,172 L-310,173 L-318,175 L-332,182 L-344,193 L-349,199 L-355,208 L-359,223 L-360,236 L-358,252 L-351,265 L-343,276 L-336,283 L-325,290 L-319,293 L-309,295 L-288,295 L-267,288 L-258,281 L-251,275 L-241,261 L-237,246 L-236,237 L-236,227 L-238,215 L-244,199 L-249,194 L-255,187 L-263,183 L-269,178 L-273,176 L-284,174 L-286,173 Z M-323,316 L-348,317 L-373,317 L-381,318 L-387,325 L-391,335 L-397,350 L-399,357 L-403,366 L-407,379 L-413,394 L-416,402 L-421,415 L-427,431 L-431,444 L-435,453 L-440,465 L-446,480 L-450,492 L-458,512 L-467,536 L-469,541 L-471,550 L-480,571 L-485,585 L-488,595 L-491,603 L-491,611 L-486,616 L-477,621 L-469,624 L-463,623 L-454,611 L-448,601 L-444,593 L-436,577 L-427,560 L-422,553 L-417,541 L-404,517 L-396,501 L-391,493 L-385,482 L-381,472 L-375,462 L-364,442 L-363,439 L-359,438 L-357,443 L-351,469 L-350,474 L-350,481 L-355,493 L-361,507 L-367,522 L-373,532 L-377,542 L-384,557 L-388,566 L-392,576 L-396,585 L-403,599 L-407,608 L-414,623 L-422,640 L-432,664 L-439,679 L-447,696 L-449,703 L-457,719 L-460,730 L-456,735 L-415,736 L-406,736 L-403,735 L-395,735 L-394,736 L-366,735 L-354,738 L-350,743 L-346,767 L-344,780 L-343,789 L-338,830 L-334,860 L-332,869 L-329,894 L-321,948 L-319,967 L-314,985 L-310,989 L-300,991 L-285,990 L-282,987 L-279,980 L-277,968 L-274,933 L-271,913 L-271,901 L-268,867 L-265,845 L-263,827 L-260,788 L-259,779 L-258,765 L-254,742 L-249,737 L-244,735 L-217,735 L-182,736 L-177,735 L-163,735 L-150,733 L-147,730 L-148,724 L-155,709 L-158,700 L-164,690 L-169,675 L-176,661 L-180,652 L-188,632 L-196,612 L-204,594 L-205,587 L-210,578 L-216,560 L-222,548 L-226,537 L-231,527 L-236,515 L-240,507 L-246,494 L-249,484 L-249,470 L-244,451 L-242,440 L-240,437 L-236,438 L-228,455 L-223,464 L-219,473 L-209,492 L-203,506 L-198,517 L-191,531 L-182,550 L-179,555 L-176,563 L-172,569 L-166,582 L-160,594 L-152,610 L-145,620 L-141,622 L-131,622 L-117,615 L-114,611 L-115,602 L-119,589 L-123,580 L-126,568 L-133,549 L-137,538 L-146,514 L-153,494 L-156,487 L-159,478 L-170,446 L-173,436 L-180,422 L-184,408 L-186,402 L-189,393 L-195,376 L-202,356 L-204,353 L-206,343 L-210,332 L-215,322 L-222,316 L-232,316 L-239,317 L-249,316 Z " fill="#000000" transform="translate(919,48)"/>
</svg>
