<?xml version="1.0" encoding="UTF-8"?>
<!-- Generator: visioncortex VTracer 0.6.12 -->
<svg version="1.1" xmlns="http://www.w3.org/2000/svg" width="1113" height="1122">
<path d="M0,0 L780,0 L783,1 L825,2 L849,2 L903,3 L914,3 L917,0 L920,0 L921,2 L924,3 L953,4 L972,4 L1029,5 L1060,6 L1088,6 L1108,7 L1108,870 L1107,872 L1105,997 L1103,1097 L1102,1122 L375,1122 L366,1121 L353,1121 L352,1122 L339,1122 L332,1121 L318,1120 L240,1119 L187,1119 L169,1118 L151,1118 L61,1116 L39,1116 L2,1115 L-5,1114 L-5,285 L-4,284 L-5,268 L-4,262 L-3,213 L-2,120 L-2,92 Z M401,105 L390,107 L378,112 L369,118 L358,129 L351,140 L346,153 L345,161 L345,179 L348,190 L355,204 L364,215 L378,225 L385,228 L396,231 L417,232 L433,228 L446,221 L451,217 L456,212 L462,205 L469,193 L472,181 L473,163 L471,152 L467,141 L462,132 L450,119 L439,112 L429,108 L419,105 Z M722,136 L721,138 L723,138 Z M143,246 L141,248 L142,252 L146,250 L146,246 Z M364,267 L338,281 L331,285 L308,298 L289,308 L275,316 L252,329 L228,342 L205,355 L189,364 L172,373 L154,383 L138,392 L120,402 L102,412 L88,420 L72,429 L67,434 L67,440 L76,459 L87,477 L95,493 L99,498 L102,504 L106,507 L112,506 L141,491 L157,482 L167,476 L185,466 L197,460 L214,451 L224,446 L242,436 L256,429 L264,424 L280,416 L290,410 L317,396 L333,387 L347,379 L355,375 L360,373 L362,373 L362,401 L361,455 L358,464 L344,486 L336,499 L325,516 L316,530 L304,550 L296,562 L292,570 L283,583 L279,590 L272,601 L268,608 L261,620 L254,631 L248,641 L241,651 L228,673 L219,687 L214,694 L208,705 L204,712 L204,718 L207,720 L214,721 L279,723 L306,723 L353,724 L356,727 L357,742 L355,838 L355,864 L354,929 L353,959 L353,1000 L355,1009 L359,1012 L368,1012 L375,1013 L409,1014 L435,1013 L439,1008 L441,967 L444,799 L446,730 L448,726 L595,726 L598,723 L598,717 L590,702 L586,695 L579,683 L571,669 L565,658 L554,641 L550,633 L542,619 L536,610 L532,602 L518,578 L514,571 L509,563 L506,556 L498,542 L486,522 L480,512 L472,498 L465,486 L458,476 L450,462 L449,459 L449,391 L451,372 L458,375 L478,387 L501,401 L511,408 L521,414 L532,420 L545,428 L563,438 L571,443 L584,451 L599,460 L611,467 L620,473 L639,484 L664,499 L683,510 L693,515 L698,514 L706,504 L712,493 L718,484 L724,473 L730,463 L735,453 L738,448 L738,442 L734,436 L714,424 L695,413 L674,400 L658,391 L639,380 L629,374 L617,367 L606,360 L595,354 L581,345 L573,341 L551,328 L538,320 L522,311 L509,303 L496,295 L483,287 L472,281 L457,272 L449,268 L438,267 L423,268 L419,267 Z M843,317 L825,319 L809,328 L799,337 L792,347 L789,352 L785,365 L784,372 L784,383 L788,399 L794,411 L803,421 L811,428 L821,433 L833,437 L855,437 L865,434 L879,427 L890,417 L898,406 L903,391 L904,386 L904,370 L900,355 L895,345 L887,335 L878,327 L867,321 L857,318 Z M810,463 L802,468 L787,484 L780,491 L780,493 L776,495 L762,510 L752,520 L745,528 L729,544 L722,552 L709,565 L702,573 L694,581 L687,589 L674,602 L667,610 L658,619 L653,624 L644,634 L637,642 L633,647 L633,653 L636,658 L641,663 L655,678 L680,703 L683,705 L688,705 L706,687 L715,676 L721,669 L726,664 L735,655 L744,644 L751,637 L758,629 L769,617 L778,606 L789,595 L799,582 L803,582 L802,638 L794,654 L781,677 L775,687 L766,702 L751,727 L745,738 L735,755 L723,776 L718,784 L712,795 L706,806 L706,812 L710,814 L723,815 L799,817 L800,819 L800,852 L799,925 L799,1015 L805,1020 L870,1020 L874,1016 L875,987 L877,851 L878,819 L966,819 L971,815 L971,809 L960,788 L950,771 L942,756 L937,748 L929,733 L925,727 L919,716 L914,708 L908,697 L894,670 L884,653 L880,642 L880,584 L885,585 L892,596 L900,605 L909,616 L919,629 L927,638 L938,652 L945,660 L953,670 L963,682 L971,692 L982,706 L986,709 L992,708 L1000,702 L1005,696 L1013,689 L1023,679 L1031,672 L1038,664 L1044,659 L1045,652 L1039,644 L1030,634 L1017,619 L1005,606 L996,595 L983,581 L974,570 L967,563 L960,555 L948,541 L935,527 L928,519 L919,509 L912,501 L905,494 L898,486 L888,475 L881,467 L875,464 L850,463 Z M36,572 L37,576 L40,575 L39,572 Z " fill="#000000" transform="translate(5,0)"/>
</svg>
