<?xml version="1.0" encoding="UTF-8"?>
<!-- Generator: visioncortex VTracer 0.6.12 -->
<svg version="1.1" xmlns="http://www.w3.org/2000/svg" width="1041" height="1203">
<path d="M0,0 L13,1 L120,2 L326,3 L344,3 L362,4 L371,3 L391,4 L575,4 L631,5 L781,5 L818,6 L949,6 L956,7 L965,6 L981,6 L987,7 L987,19 L979,20 L949,19 L577,19 L478,18 L409,17 L357,17 L350,16 L316,17 L299,17 L285,16 L278,15 L276,16 L125,16 L83,15 L13,15 L8,18 L7,20 L6,42 L6,63 L5,105 L4,167 L4,187 L3,227 L3,264 L1,394 L0,487 L-1,567 L-2,612 L-2,627 L-3,662 L-3,717 L-4,775 L-4,835 L-6,961 L-7,1042 L-8,1107 L-7,1115 L-6,1116 L36,1117 L76,1117 L183,1118 L289,1119 L371,1119 L426,1120 L483,1120 L554,1121 L578,1121 L637,1122 L740,1122 L785,1123 L883,1123 L980,1124 L987,1125 L987,1136 L954,1135 L868,1135 L728,1134 L695,1134 L612,1133 L562,1133 L476,1132 L416,1132 L320,1131 L279,1131 L245,1130 L149,1129 L50,1129 L10,1128 L-1,1126 L-8,1127 L-13,1128 L-16,1127 L-18,1123 L-18,1109 L-19,1103 L-19,1054 L-17,918 L-15,740 L-14,658 L-14,629 L-13,567 L-12,516 L-11,429 L-10,395 L-10,353 L-9,253 L-8,230 L-8,200 L-7,136 L-6,50 L-4,6 L-1,1 Z " fill="#000000" transform="translate(54,36)"/>
<path d="M0,0 L18,2 L33,9 L42,15 L51,23 L59,34 L67,50 L70,59 L72,69 L72,89 L68,104 L60,123 L54,131 L43,144 L33,151 L31,151 L28,161 L27,168 L27,182 L28,195 L31,202 L41,207 L58,211 L64,213 L73,214 L80,217 L95,221 L102,227 L106,235 L113,254 L123,285 L128,299 L132,308 L136,325 L139,338 L144,356 L146,365 L152,381 L159,404 L163,418 L166,426 L170,437 L175,455 L179,466 L186,489 L191,506 L198,529 L203,545 L207,558 L209,566 L209,573 L205,577 L188,579 L154,579 L148,575 L142,565 L138,552 L135,537 L126,509 L121,493 L117,481 L113,466 L109,455 L103,432 L97,414 L93,403 L90,392 L84,372 L79,360 L77,356 L73,355 L70,358 L65,371 L61,387 L59,400 L57,407 L57,420 L62,436 L73,469 L81,495 L84,503 L93,530 L96,540 L100,548 L110,577 L114,589 L120,607 L127,624 L131,636 L136,658 L141,679 L151,709 L154,721 L154,727 L149,732 L124,734 L60,734 L52,737 L48,743 L42,776 L38,806 L35,827 L30,864 L28,888 L23,922 L21,947 L18,959 L15,979 L9,1006 L5,1011 L3,1012 L-18,1013 L-28,1013 L-37,1011 L-43,1007 L-46,998 L-51,970 L-53,957 L-57,924 L-62,891 L-70,838 L-71,830 L-73,815 L-75,805 L-77,789 L-78,785 L-79,770 L-82,754 L-86,738 L-88,734 L-97,731 L-175,729 L-183,728 L-186,725 L-186,716 L-181,698 L-176,684 L-171,672 L-159,636 L-152,616 L-146,600 L-135,568 L-128,550 L-117,519 L-114,510 L-109,496 L-105,487 L-96,460 L-88,439 L-85,432 L-81,419 L-80,417 L-80,402 L-89,366 L-92,354 L-94,350 L-99,351 L-104,361 L-109,372 L-113,385 L-117,395 L-123,410 L-133,439 L-137,451 L-140,457 L-144,471 L-150,487 L-156,505 L-162,523 L-169,543 L-178,566 L-183,571 L-226,571 L-237,568 L-239,566 L-239,554 L-227,518 L-221,499 L-210,469 L-202,442 L-194,416 L-190,407 L-186,394 L-180,378 L-176,371 L-170,350 L-166,340 L-161,325 L-154,309 L-152,301 L-147,287 L-142,276 L-136,260 L-130,242 L-126,230 L-121,224 L-112,220 L-100,217 L-88,214 L-74,212 L-55,206 L-49,203 L-46,196 L-46,158 L-50,152 L-58,145 L-66,138 L-77,120 L-81,114 L-83,104 L-87,86 L-86,74 L-84,59 L-77,44 L-73,36 L-66,26 L-60,21 L-49,13 L-37,7 L-28,5 L-18,2 Z M30,764 L25,767 L26,771 L28,773 L33,772 L35,765 Z " fill="#000000" transform="translate(624,95)"/>
</svg>
