<?xml version="1.0" encoding="UTF-8"?>
<!-- Generator: visioncortex VTracer 0.6.12 -->
<svg version="1.1" xmlns="http://www.w3.org/2000/svg" width="1053" height="1224">
<path d="M0,0 L7,1 L74,1 L74,123 L72,119 L71,97 L71,31 L70,17 L66,13 L64,12 L18,11 L9,12 L2,13 L0,12 L-60,12 L-73,13 L-77,12 L-97,12 L-104,13 L-133,13 L-139,14 L-147,13 L-158,13 L-173,14 L-178,13 L-227,13 L-250,14 L-279,14 L-283,12 L-288,13 L-308,14 L-324,15 L-538,15 L-556,16 L-611,16 L-621,17 L-732,17 L-810,18 L-902,18 L-926,20 L-929,25 L-930,30 L-931,51 L-932,55 L-931,57 L-930,80 L-930,162 L-929,219 L-929,263 L-928,334 L-927,413 L-927,451 L-926,489 L-926,566 L-925,595 L-924,684 L-924,792 L-923,859 L-923,905 L-922,971 L-921,996 L-918,1001 L-916,1002 L-892,1002 L-879,1003 L-872,1002 L-868,1003 L-786,1003 L-781,1002 L-727,1002 L-725,1001 L-641,1001 L-606,1003 L-599,1002 L-571,1003 L-549,1003 L-523,1002 L-449,1001 L-344,1001 L-335,1003 L-332,1001 L-325,1001 L-322,1003 L-317,1002 L-311,1000 L-251,1001 L-186,1000 L-182,998 L-64,997 L69,997 L74,996 L74,1007 L53,1008 L-88,1008 L-93,1009 L-129,1009 L-173,1008 L-182,1009 L-210,1008 L-226,1008 L-252,1009 L-261,1010 L-265,1009 L-294,1010 L-314,1010 L-320,1008 L-323,1010 L-343,1010 L-375,1011 L-614,1011 L-619,1012 L-743,1012 L-750,1013 L-816,1013 L-843,1014 L-850,1013 L-912,1013 L-930,1011 L-934,1007 L-934,991 L-933,951 L-934,905 L-934,810 L-936,511 L-937,479 L-937,409 L-938,383 L-939,303 L-940,227 L-941,106 L-942,60 L-942,14 L-940,8 L-938,6 L-924,7 L-908,7 L-902,6 L-900,7 L-791,7 L-757,6 L-712,5 L-704,6 L-689,5 L-659,6 L-645,5 L-580,4 L-496,4 L-459,3 L-450,4 L-434,3 L-365,3 L-354,2 L-315,2 L-299,3 L-279,3 L-256,2 L-132,2 L-117,1 L-100,2 L-79,2 L-5,1 Z " fill="#000000" transform="translate(979,37)"/>
<path d="M0,0 L14,0 L35,7 L41,11 L54,23 L63,33 L73,54 L74,78 L72,88 L66,106 L62,115 L53,126 L44,132 L38,135 L33,140 L17,144 L14,146 L8,145 L-2,143 L-12,143 L-24,137 L-27,134 L-36,131 L-44,122 L-50,113 L-56,103 L-59,96 L-61,88 L-63,75 L-61,56 L-57,44 L-49,28 L-42,19 L-34,13 L-15,3 Z " fill="#000000" transform="translate(545,109)"/>
<path d="M0,0 L1,0 L1,26 L-1,25 L-1,1 Z " fill="#000000" transform="translate(1052,165)"/>
<path d="M0,0 L8,1 L28,3 L42,9 L55,16 L65,24 L81,40 L90,57 L95,71 L97,88 L98,108 L98,147 L99,176 L100,192 L100,201 L104,207 L113,213 L121,219 L128,225 L136,230 L148,243 L153,248 L167,263 L171,269 L177,281 L181,286 L189,304 L196,323 L201,339 L204,353 L206,380 L206,446 L205,465 L200,473 L187,474 L159,474 L146,475 L85,475 L80,476 L74,475 L69,478 L67,481 L65,499 L65,641 L64,657 L64,695 L61,710 L57,721 L51,729 L46,733 L40,740 L30,747 L20,749 L11,749 L5,750 L-2,747 L-13,745 L-22,740 L-30,733 L-37,722 L-42,711 L-44,701 L-45,685 L-46,603 L-45,584 L-45,500 L-46,484 L-48,478 L-50,477 L-68,476 L-77,475 L-84,476 L-133,476 L-140,475 L-144,476 L-157,476 L-171,477 L-173,476 L-182,475 L-186,471 L-187,467 L-187,440 L-188,424 L-188,371 L-184,345 L-180,331 L-177,320 L-173,308 L-167,296 L-164,290 L-162,284 L-155,276 L-151,267 L-147,261 L-138,251 L-131,244 L-124,236 L-110,224 L-104,219 L-98,215 L-87,206 L-85,201 L-84,152 L-84,101 L-83,92 L-83,82 L-78,61 L-70,47 L-66,40 L-59,32 L-57,29 L-55,29 L-53,25 L-45,16 L-37,16 L-35,12 L-24,6 L-14,4 L-3,1 Z " fill="#000000" transform="translate(546,267)"/>
<path d="M0,0 L9,0 L19,2 L27,7 L33,15 L34,23 L31,27 L26,26 L19,17 L12,13 L0,12 L-10,17 L-16,25 L-18,33 L-18,53 L-15,62 L-10,68 L-2,72 L13,72 L21,65 L28,52 L30,51 L36,51 L38,53 L37,62 L29,75 L19,82 L11,84 L-3,84 L-15,79 L-23,72 L-27,66 L-31,53 L-32,37 L-29,24 L-23,14 L-15,6 L-6,1 Z " fill="#000000" transform="translate(239,1106)"/>
<path d="M0,0 L13,1 L34,1 L43,3 L49,7 L54,12 L58,19 L61,28 L62,43 L60,57 L56,67 L51,72 L44,78 L36,82 L-1,82 L-4,79 L-5,60 L-4,4 Z M23,11 L12,12 L9,15 L7,23 L6,42 L7,61 L9,69 L10,70 L17,71 L31,71 L41,66 L46,60 L48,54 L50,44 L50,37 L47,27 L42,18 L38,14 L28,12 Z " fill="#000000" transform="translate(132,1108)"/>
<path d="M0,0 L9,0 L13,5 L18,17 L23,32 L28,44 L30,54 L37,73 L37,80 L35,82 L28,81 L25,76 L20,60 L12,57 L-7,58 L-12,61 L-16,68 L-20,78 L-24,81 L-30,81 L-32,79 L-31,71 L-27,63 L-20,43 L-12,23 L-7,8 L-4,2 Z M1,22 L-5,34 L-5,44 L0,47 L10,47 L12,45 L12,38 L7,25 L4,22 Z " fill="#000000" transform="translate(317,1109)"/>
<path d="M0,0 L7,0 L10,3 L17,21 L22,35 L27,48 L37,76 L35,80 L30,81 L25,77 L20,62 L15,57 L8,56 L-1,56 L-11,58 L-16,60 L-18,65 L-23,78 L-29,81 L-33,78 L-32,71 L-29,65 L-24,52 L-19,40 L-12,20 L-6,4 Z M1,18 L-2,21 L-8,39 L-8,44 L-3,48 L8,47 L12,44 L11,35 L6,21 L3,18 Z " fill="#000000" transform="translate(76,1110)"/>
</svg>
