<?xml version="1.0" encoding="UTF-8"?>
<!-- Generator: visioncortex VTracer 0.6.12 -->
<svg version="1.1" xmlns="http://www.w3.org/2000/svg" width="966" height="1323">
<path d="M0,0 L966,0 L966,45 L931,46 L840,46 L782,47 L748,47 L718,48 L659,48 L535,50 L506,50 L440,51 L328,52 L227,53 L177,53 L59,54 L0,54 Z " fill="#000000" transform="translate(0,0)"/>
<path d="M0,0 L19,0 L29,1 L29,44 L-41,44 L-47,43 L-55,44 L-87,44 L-109,45 L-168,45 L-188,46 L-260,46 L-306,47 L-366,47 L-392,48 L-431,48 L-459,49 L-531,49 L-561,50 L-603,50 L-644,51 L-690,51 L-702,54 L-718,62 L-726,68 L-732,76 L-738,85 L-741,91 L-744,103 L-745,139 L-745,170 L-743,312 L-743,361 L-742,392 L-741,485 L-740,545 L-739,586 L-738,700 L-738,720 L-736,792 L-736,816 L-735,917 L-731,937 L-722,953 L-711,965 L-697,973 L-679,978 L-602,978 L-523,977 L-480,976 L-413,976 L-374,975 L-352,976 L-338,975 L-264,975 L-217,974 L-196,975 L-160,974 L29,974 L29,1017 L-13,1018 L-73,1018 L-115,1019 L-203,1019 L-213,1020 L-219,1019 L-255,1019 L-267,1020 L-300,1019 L-304,1021 L-319,1020 L-449,1020 L-455,1021 L-460,1020 L-497,1020 L-507,1021 L-550,1021 L-557,1019 L-560,1021 L-647,1021 L-662,1022 L-758,1021 L-774,1022 L-781,1020 L-784,1017 L-786,1009 L-786,800 L-787,762 L-788,645 L-789,608 L-790,561 L-791,496 L-792,447 L-793,415 L-794,334 L-794,315 L-795,246 L-796,212 L-797,106 L-797,11 L-795,9 L-782,7 L-773,8 L-745,7 L-690,7 L-629,6 L-562,6 L-469,5 L-417,5 L-407,4 L-360,4 L-224,2 L-192,1 L-99,1 Z " fill="#000000" transform="translate(937,116)"/>
<path d="M0,0 L16,1 L28,5 L38,12 L45,21 L50,31 L53,43 L54,58 L52,74 L46,86 L35,98 L31,102 L31,113 L35,117 L60,130 L79,140 L87,146 L93,155 L96,162 L100,186 L102,201 L105,217 L107,236 L112,272 L115,285 L118,309 L118,386 L115,394 L113,397 L112,437 L108,446 L104,452 L97,459 L90,464 L89,466 L89,517 L86,520 L72,521 L65,523 L62,528 L60,545 L60,579 L62,612 L61,631 L58,649 L56,654 L51,676 L48,687 L44,702 L42,715 L44,738 L46,743 L48,752 L51,765 L52,769 L52,778 L44,785 L33,787 L22,783 L16,775 L13,750 L13,728 L17,713 L17,685 L12,652 L10,647 L9,630 L8,623 L8,598 L10,578 L10,560 L9,538 L7,533 L7,527 L6,525 L3,526 L2,528 L1,544 L-1,552 L-1,580 L2,604 L1,635 L-4,664 L-6,681 L-7,703 L-2,734 L-2,754 L-3,759 L-4,774 L-6,779 L-14,784 L-23,787 L-37,784 L-41,780 L-41,770 L-36,752 L-33,738 L-32,722 L-32,710 L-35,695 L-38,687 L-40,677 L-44,664 L-47,651 L-50,632 L-51,616 L-50,580 L-49,559 L-53,529 L-55,524 L-59,522 L-73,521 L-78,519 L-80,515 L-80,501 L-79,486 L-79,467 L-83,462 L-91,457 L-98,449 L-103,438 L-103,399 L-108,391 L-109,351 L-109,332 L-108,305 L-106,290 L-103,267 L-99,238 L-96,220 L-94,203 L-91,184 L-88,163 L-81,149 L-74,142 L-51,130 L-29,118 L-24,115 L-22,112 L-22,104 L-26,98 L-34,91 L-41,81 L-46,67 L-45,44 L-43,35 L-37,22 L-26,9 L-17,4 L-7,1 Z M-55,254 L-58,257 L-59,259 L-63,289 L-65,300 L-68,327 L-69,342 L-71,351 L-73,369 L-74,373 L-75,386 L-77,393 L-77,403 L-74,406 L-70,405 L-68,402 L-66,387 L-63,368 L-60,351 L-57,331 L-54,317 L-51,308 L-45,296 L-44,288 L-49,266 L-51,257 Z M62,257 L59,266 L55,281 L55,296 L60,306 L63,315 L65,328 L68,341 L71,362 L74,378 L77,395 L80,403 L85,402 L85,391 L83,385 L81,368 L79,350 L77,334 L71,289 L69,274 L67,259 L66,257 Z " fill="#000000" transform="translate(662,269)"/>
<path d="M0,0 L3,0 L2,3 L0,2 Z " fill="#000000" transform="translate(558,1083)"/>
<path d="M0,0 L18,0 L28,2 L37,8 L43,15 L46,19 L49,29 L50,43 L48,55 L42,67 L35,75 L26,81 L17,84 L6,84 L-6,81 L-15,74 L-22,64 L-26,55 L-27,38 L-25,25 L-21,16 L-14,8 L-10,4 L-1,1 Z M6,10 L-4,15 L-9,21 L-13,29 L-14,32 L-14,52 L-9,62 L-1,69 L5,72 L17,72 L27,66 L34,56 L36,46 L36,33 L33,23 L27,15 L20,11 L17,10 Z " fill="#000000" transform="translate(371,1203)"/>
<path d="M0,0 L10,0 L21,2 L29,7 L36,15 L38,24 L35,27 L28,26 L21,18 L12,12 L0,12 L-6,15 L-8,15 L-10,19 L-15,28 L-17,34 L-17,50 L-14,60 L-9,67 L-3,70 L5,72 L12,71 L19,68 L25,61 L29,53 L32,50 L37,50 L39,52 L39,61 L34,69 L30,76 L21,82 L8,85 L0,84 L-10,82 L-16,78 L-24,69 L-29,57 L-30,54 L-30,31 L-26,18 L-15,6 L-9,2 Z " fill="#000000" transform="translate(216,1204)"/>
<path d="M0,0 L6,1 L8,5 L8,79 L4,83 L-2,84 L-5,81 L-6,71 L-6,3 L-4,1 Z " fill="#000000" transform="translate(159,1205)"/>
<path d="M0,0 L9,0 L13,4 L16,11 L18,19 L25,36 L30,49 L35,63 L40,75 L40,80 L38,82 L30,82 L25,74 L20,61 L18,59 L-10,59 L-14,66 L-20,81 L-24,83 L-31,82 L-32,81 L-32,76 L-29,69 L-21,49 L-15,31 L-9,17 L-5,7 L-1,1 Z M1,22 L-3,35 L-5,39 L-5,45 L-4,47 L7,48 L12,46 L13,39 L11,35 L9,27 L6,22 Z " fill="#000000" transform="translate(296,1205)"/>
</svg>
