<?xml version="1.0" encoding="UTF-8"?>
<!-- Generator: visioncortex VTracer 0.6.12 -->
<svg version="1.1" xmlns="http://www.w3.org/2000/svg" width="1119" height="1296">
<path d="M0,0 L15,1 L26,1 L36,0 L121,0 L126,1 L129,0 L149,0 L158,2 L161,6 L162,12 L163,72 L163,150 L164,157 L165,240 L166,253 L166,321 L167,377 L168,494 L168,533 L169,572 L170,635 L170,674 L171,712 L171,768 L172,795 L172,818 L173,843 L173,866 L174,941 L174,1004 L172,1013 L167,1016 L157,1016 L153,1014 L41,1014 L34,1015 L24,1014 L-7,1015 L-15,1014 L-52,1016 L-89,1016 L-248,1018 L-309,1018 L-332,1019 L-378,1019 L-414,1020 L-418,1021 L-423,1019 L-439,1021 L-460,1021 L-465,1020 L-478,1020 L-487,1021 L-518,1021 L-559,1022 L-643,1022 L-661,1023 L-668,1024 L-676,1023 L-698,1024 L-714,1024 L-756,1025 L-814,1025 L-839,1026 L-845,1027 L-850,1023 L-851,1018 L-851,937 L-852,909 L-852,859 L-855,651 L-855,637 L-856,623 L-855,607 L-855,583 L-856,555 L-857,464 L-858,402 L-858,352 L-859,346 L-859,290 L-860,240 L-860,223 L-861,188 L-863,49 L-863,31 L-860,24 L-857,15 L-852,12 L-827,12 L-824,11 L-800,11 L-767,10 L-697,10 L-654,8 L-576,8 L-568,7 L-494,7 L-476,6 L-420,6 L-408,5 L-334,5 L-312,4 L-280,4 L-237,3 L-224,4 L-219,3 L-174,3 L-168,2 L-72,2 L-57,1 L-2,1 Z M-10,10 L-67,11 L-148,11 L-162,12 L-180,12 L-191,13 L-227,13 L-259,14 L-308,14 L-314,15 L-332,15 L-342,16 L-355,15 L-359,16 L-471,16 L-529,17 L-567,17 L-598,19 L-657,19 L-708,20 L-743,20 L-752,21 L-795,21 L-845,22 L-850,26 L-851,28 L-851,101 L-850,193 L-849,233 L-849,301 L-848,338 L-848,359 L-847,425 L-846,473 L-846,494 L-845,520 L-846,530 L-845,555 L-844,659 L-843,701 L-843,720 L-842,771 L-842,810 L-841,861 L-840,954 L-839,989 L-838,1009 L-834,1014 L-820,1015 L-803,1014 L-707,1014 L-675,1013 L-646,1013 L-621,1012 L-592,1013 L-577,1012 L-571,1011 L-524,1011 L-409,1010 L-368,1011 L-361,1010 L-319,1010 L-303,1009 L-280,1009 L-252,1008 L-247,1009 L-235,1008 L-194,1008 L-176,1007 L-117,1007 L-59,1006 L-33,1006 L-20,1007 L-14,1006 L6,1006 L84,1005 L153,1005 L157,1000 L158,998 L158,928 L157,872 L157,815 L156,811 L156,760 L155,677 L155,657 L154,639 L154,600 L153,529 L152,453 L152,429 L151,390 L150,368 L151,355 L150,322 L150,262 L149,228 L149,145 L148,127 L148,86 L147,34 L146,18 L143,12 L142,11 L123,10 L15,10 L8,11 Z " fill="#000000" transform="translate(913,37)"/>
<path d="M0,0 L14,0 L25,4 L38,11 L46,20 L52,29 L58,44 L59,60 L58,73 L54,85 L48,96 L39,107 L30,114 L29,116 L28,134 L29,149 L32,154 L44,158 L73,164 L82,168 L86,173 L90,182 L94,193 L96,200 L103,218 L106,227 L112,243 L115,252 L117,261 L121,271 L132,304 L137,318 L143,336 L145,339 L150,356 L153,368 L158,381 L165,403 L169,413 L172,425 L171,432 L168,435 L132,436 L127,433 L120,413 L114,397 L109,381 L103,365 L92,332 L88,320 L85,311 L77,288 L69,266 L69,264 L63,264 L61,276 L57,292 L54,307 L55,316 L59,330 L61,334 L63,342 L72,368 L79,386 L87,409 L94,427 L98,440 L104,454 L108,467 L112,476 L124,511 L132,538 L134,547 L132,551 L125,553 L88,554 L66,555 L59,556 L54,561 L51,575 L50,593 L47,612 L46,628 L43,655 L41,665 L37,714 L35,725 L33,743 L30,761 L25,766 L-3,766 L-8,762 L-11,752 L-14,738 L-16,725 L-18,712 L-21,695 L-25,667 L-27,656 L-29,644 L-32,628 L-35,609 L-38,594 L-40,577 L-45,557 L-49,554 L-67,554 L-84,553 L-102,554 L-115,553 L-119,550 L-118,541 L-112,521 L-106,501 L-99,477 L-95,464 L-91,450 L-83,427 L-81,422 L-79,414 L-73,395 L-69,385 L-64,368 L-54,338 L-49,323 L-46,314 L-46,307 L-52,286 L-56,271 L-59,263 L-64,263 L-66,269 L-69,278 L-76,298 L-81,314 L-91,344 L-93,351 L-97,362 L-103,385 L-109,401 L-116,424 L-121,432 L-123,433 L-137,433 L-142,432 L-156,433 L-162,429 L-163,428 L-162,418 L-159,409 L-155,393 L-152,383 L-147,367 L-145,358 L-139,338 L-133,318 L-127,299 L-114,261 L-101,221 L-97,209 L-93,199 L-89,185 L-85,175 L-80,170 L-67,166 L-45,161 L-32,157 L-28,153 L-27,151 L-27,116 L-37,108 L-44,101 L-50,93 L-56,79 L-58,67 L-58,48 L-53,32 L-45,21 L-38,14 L-25,7 L-16,3 Z " fill="#000000" transform="translate(554,165)"/>
<path d="M0,0 L19,0 L33,7 L40,15 L43,25 L39,29 L32,28 L28,24 L22,16 L15,14 L4,14 L-4,17 L-9,22 L-13,32 L-13,50 L-10,60 L-3,68 L5,71 L18,71 L26,64 L31,52 L34,50 L41,50 L43,52 L43,59 L39,69 L31,78 L21,84 L2,84 L-9,81 L-19,72 L-26,58 L-28,49 L-27,37 L-25,24 L-18,13 L-7,3 Z " fill="#000000" transform="translate(203,1128)"/>
<path d="M0,0 L5,0 L9,5 L9,74 L6,80 L4,82 L-2,81 L-6,77 L-6,21 L-4,3 Z " fill="#000000" transform="translate(150,1129)"/>
<path d="M0,0 L6,1 L8,4 L8,53 L3,70 L-4,78 L-10,81 L-17,82 L-25,83 L-38,80 L-47,75 L-52,69 L-55,61 L-56,54 L-56,6 L-54,2 L-52,1 L-46,1 L-44,3 L-43,15 L-43,52 L-40,64 L-32,70 L-18,70 L-10,66 L-6,58 L-4,20 L-4,6 L-1,1 Z " fill="#000000" transform="translate(117,1129)"/>
<path d="M0,0 L2,1 Z " fill="#000000" transform="translate(37,1261)"/>
</svg>
