<?xml version="1.0" encoding="UTF-8"?>
<!-- Generator: visioncortex VTracer 0.6.12 -->
<svg version="1.1" xmlns="http://www.w3.org/2000/svg" width="1320" height="1332">
<path d="M0,0 L198,0 L198,54 L47,55 L-10,56 L-70,57 L-117,57 L-238,58 L-265,59 L-355,60 L-431,61 L-471,61 L-513,62 L-592,63 L-720,64 L-755,65 L-821,66 L-837,66 L-853,68 L-857,67 L-951,67 L-1034,68 L-1093,69 L-1122,68 L-1122,14 L-1055,13 L-992,12 L-963,12 L-871,11 L-843,11 L-792,10 L-717,9 L-682,9 L-597,8 L-513,7 L-446,6 L-341,5 L-286,4 L-235,3 L-69,2 L-2,1 Z " fill="#000000" transform="translate(1122,0)"/>
<path d="M0,0 L5,2 L8,6 L26,6 L79,5 L169,4 L194,4 L283,3 L288,2 L297,3 L350,2 L391,1 L425,1 L440,0 L460,0 L476,1 L492,2 L497,7 L499,18 L500,29 L500,110 L501,255 L502,313 L502,377 L503,460 L503,516 L504,591 L505,718 L505,802 L506,808 L507,897 L507,962 L508,974 L507,994 L508,1010 L505,1017 L495,1019 L440,1019 L417,1020 L360,1020 L343,1022 L340,1021 L305,1021 L259,1022 L175,1023 L111,1023 L104,1024 L53,1024 L46,1025 L12,1025 L-46,1026 L-79,1026 L-152,1027 L-173,1028 L-207,1028 L-221,1029 L-318,1029 L-323,1030 L-359,1031 L-387,1031 L-442,1032 L-451,1033 L-458,1032 L-492,1033 L-505,1034 L-514,1035 L-519,1032 L-520,1030 L-521,1016 L-521,941 L-522,932 L-523,882 L-523,859 L-524,768 L-524,744 L-526,603 L-527,485 L-528,429 L-528,344 L-529,335 L-529,245 L-530,184 L-530,125 L-531,94 L-531,65 L-532,36 L-532,21 L-527,18 L-513,16 L-489,16 L-480,15 L-447,15 L-416,14 L-333,13 L-316,12 L-277,12 L-272,11 L-188,10 L-166,10 L-158,9 L-129,9 L-126,10 L-119,10 L-116,8 L-88,9 L-83,8 L-57,7 L-26,7 L-5,6 Z M391,11 L379,12 L357,12 L329,13 L269,13 L251,14 L151,14 L120,15 L83,15 L58,16 L27,16 L-2,17 L-63,17 L-70,18 L-93,18 L-137,19 L-164,19 L-170,20 L-213,20 L-221,21 L-247,21 L-256,22 L-275,21 L-279,20 L-284,22 L-310,22 L-335,23 L-342,22 L-363,23 L-371,24 L-379,23 L-389,23 L-399,24 L-412,25 L-455,25 L-515,26 L-518,31 L-519,39 L-520,73 L-519,161 L-519,195 L-518,219 L-518,310 L-517,353 L-517,451 L-516,486 L-515,545 L-515,568 L-512,830 L-512,854 L-511,951 L-511,981 L-510,1009 L-507,1018 L-500,1022 L-480,1023 L-464,1022 L-444,1021 L-436,1022 L-423,1021 L-394,1021 L-363,1020 L-335,1020 L-303,1019 L-283,1018 L-228,1018 L-224,1017 L-173,1017 L-157,1016 L-121,1016 L-90,1015 L-66,1015 L-17,1014 L79,1013 L113,1013 L155,1012 L161,1013 L174,1011 L333,1011 L372,1010 L387,1009 L432,1009 L440,1008 L468,1008 L492,1007 L494,1005 L496,998 L496,906 L495,888 L495,862 L494,756 L494,667 L493,620 L492,553 L491,443 L491,364 L490,312 L491,292 L490,256 L490,178 L489,153 L488,25 L486,15 L482,12 L478,11 Z " fill="#000000" transform="translate(673,124)"/>
<path d="M0,0 L14,0 L23,1 L43,9 L52,15 L56,19 L57,25 L63,27 L67,32 L75,49 L77,61 L77,80 L74,92 L66,108 L58,118 L53,125 L42,131 L28,138 L19,140 L6,141 L-11,139 L-27,131 L-33,127 L-42,120 L-50,110 L-56,100 L-61,88 L-62,81 L-62,64 L-60,51 L-56,42 L-52,33 L-44,22 L-31,11 L-19,5 L-11,2 Z " fill="#000000" transform="translate(642,205)"/>
<path d="M0,0 L50,0 L65,3 L81,11 L90,18 L96,23 L104,33 L112,49 L115,62 L116,70 L116,129 L117,149 L118,198 L119,227 L119,292 L115,295 L101,296 L97,299 L98,306 L104,322 L110,334 L117,352 L122,361 L125,369 L134,389 L137,398 L132,403 L108,403 L97,404 L66,406 L63,409 L60,423 L58,446 L57,449 L53,493 L51,507 L46,543 L44,568 L42,586 L40,603 L38,619 L37,631 L36,634 L35,650 L32,673 L28,681 L22,682 L-6,682 L-10,679 L-13,665 L-16,644 L-17,632 L-20,618 L-22,608 L-24,589 L-31,550 L-33,532 L-37,509 L-42,474 L-46,452 L-48,438 L-51,419 L-55,409 L-73,409 L-86,408 L-113,409 L-126,409 L-128,406 L-126,394 L-120,378 L-115,368 L-106,344 L-101,334 L-96,319 L-92,309 L-92,303 L-95,301 L-105,300 L-111,300 L-115,296 L-117,241 L-118,192 L-119,106 L-119,67 L-117,57 L-112,43 L-106,33 L-97,23 L-86,14 L-69,5 L-63,3 L-56,2 L-37,1 Z M58,78 L56,80 L56,126 L58,184 L59,221 L61,223 L65,223 L66,221 L65,137 L64,125 L63,88 L62,79 Z M-65,80 L-67,82 L-67,135 L-65,208 L-64,227 L-60,228 L-58,226 L-58,139 L-60,85 L-61,81 Z " fill="#000000" transform="translate(655,357)"/>
<path d="M0,0 L37,0 L49,8 L53,17 L53,27 L50,36 L45,42 L39,46 L31,48 L8,48 L6,75 L4,79 L-1,80 L-4,77 L-5,58 L-5,3 Z M12,10 L8,12 L7,16 L7,34 L10,37 L16,38 L34,36 L40,31 L42,25 L41,18 L36,12 L27,10 Z " fill="#000000" transform="translate(160,1218)"/>
<path d="M0,0 L5,0 L8,3 L11,15 L19,19 L19,25 L15,29 L12,31 L11,41 L11,54 L12,64 L19,67 L20,73 L17,78 L16,79 L7,78 L0,74 L-2,66 L-3,44 L-4,31 L-10,27 L-10,20 L-5,17 L-4,8 L-2,2 Z " fill="#000000" transform="translate(343,1218)"/>
<path d="M0,0 L5,0 L8,5 L7,9 L4,12 L-3,15 L-7,19 L-9,26 L-9,56 L-13,61 L-18,61 L-21,57 L-22,32 L-22,5 L-18,1 L-13,2 L-10,5 L-5,4 Z " fill="#000000" transform="translate(318,1236)"/>
<path d="M0,0 L12,0 L19,2 L28,8 L32,14 L35,20 L36,33 L32,48 L26,55 L18,61 L13,62 L4,62 L-5,60 L-11,56 L-17,48 L-21,35 L-21,26 L-18,17 L-15,11 L-10,6 L-3,1 Z M5,10 L-2,13 L-8,21 L-9,24 L-9,38 L-4,48 L1,52 L11,53 L16,50 L21,44 L24,35 L23,21 L19,15 L14,11 L12,10 Z " fill="#000000" transform="translate(247,1238)"/>
</svg>
