<?xml version="1.0" encoding="UTF-8"?>
<!-- Generator: visioncortex VTracer 0.6.12 -->
<svg version="1.1" xmlns="http://www.w3.org/2000/svg" width="1119" height="1245">
<path d="M0,0 L4,1 L10,2 L16,3 L41,4 L57,3 L72,3 L82,4 L91,4 L99,3 L114,5 L149,5 L168,4 L170,3 L176,3 L178,4 L195,4 L202,5 L207,4 L218,4 L241,5 L275,5 L297,8 L301,10 L313,12 L322,18 L332,23 L335,26 L343,31 L354,41 L362,48 L367,54 L376,69 L380,78 L386,94 L389,110 L390,131 L389,138 L388,158 L388,221 L387,228 L387,296 L386,333 L386,359 L385,473 L384,568 L384,588 L383,614 L382,625 L383,635 L383,686 L382,691 L383,743 L383,810 L382,825 L382,840 L383,858 L382,896 L381,925 L379,930 L377,941 L366,967 L358,977 L350,987 L336,998 L328,1005 L319,1010 L311,1014 L304,1016 L299,1019 L290,1021 L288,1023 L271,1024 L269,1025 L200,1025 L162,1024 L125,1025 L119,1026 L111,1026 L107,1025 L50,1024 L46,1025 L42,1024 L-8,1024 L-59,1023 L-139,1023 L-142,1022 L-184,1022 L-198,1023 L-270,1023 L-273,1024 L-282,1024 L-293,1022 L-313,1022 L-326,1021 L-339,1022 L-355,1022 L-359,1021 L-378,1022 L-381,1023 L-391,1023 L-398,1022 L-429,1022 L-434,1021 L-495,1021 L-538,1020 L-552,1020 L-562,1018 L-568,1015 L-580,1013 L-589,1008 L-610,997 L-623,986 L-634,974 L-643,959 L-648,949 L-651,943 L-654,934 L-656,926 L-659,914 L-660,903 L-659,889 L-659,795 L-660,792 L-660,785 L-658,769 L-659,765 L-659,686 L-660,651 L-660,611 L-658,598 L-658,581 L-659,571 L-659,446 L-660,439 L-659,430 L-659,381 L-657,366 L-657,336 L-659,322 L-660,319 L-660,300 L-658,295 L-655,266 L-656,244 L-657,241 L-657,180 L-658,167 L-656,152 L-656,120 L-651,88 L-644,73 L-641,66 L-632,54 L-625,46 L-618,38 L-609,31 L-605,26 L-596,22 L-588,18 L-583,14 L-572,9 L-563,6 L-544,3 L-539,2 L-497,2 L-485,3 L-470,3 L-453,2 L-444,2 L-441,3 L-355,3 L-352,2 L-344,2 L-335,3 L-263,3 L-255,2 L-228,3 L-216,4 L-78,4 L-70,3 L-4,4 Z M76,60 L74,61 L43,61 L4,62 L-11,63 L-20,61 L-38,62 L-264,62 L-269,61 L-278,61 L-286,63 L-296,62 L-337,63 L-343,62 L-383,63 L-447,63 L-453,65 L-456,64 L-488,64 L-491,63 L-501,63 L-509,65 L-516,65 L-524,63 L-542,65 L-554,68 L-561,72 L-568,77 L-573,80 L-580,87 L-586,95 L-592,110 L-594,120 L-594,146 L-595,185 L-597,211 L-596,252 L-596,265 L-595,274 L-596,288 L-596,312 L-597,355 L-598,370 L-598,543 L-599,574 L-598,613 L-598,752 L-599,761 L-599,776 L-598,780 L-599,809 L-599,889 L-598,898 L-598,906 L-594,922 L-590,931 L-584,939 L-576,946 L-568,952 L-561,957 L-551,961 L-545,962 L-541,963 L-511,964 L-495,963 L-477,964 L-446,964 L-419,965 L-406,965 L-402,964 L-385,964 L-376,965 L-351,965 L-344,964 L-323,966 L-231,966 L-219,965 L-204,966 L-142,966 L-118,967 L7,967 L44,968 L65,967 L68,968 L102,968 L116,969 L220,969 L224,968 L245,968 L250,969 L271,969 L287,964 L297,959 L310,949 L316,940 L321,931 L324,922 L326,912 L325,899 L326,891 L326,851 L325,838 L325,785 L326,761 L325,746 L325,733 L326,719 L325,667 L326,661 L326,628 L325,592 L325,570 L326,553 L326,423 L327,384 L327,328 L329,255 L330,227 L330,208 L331,198 L330,176 L331,140 L331,120 L328,104 L325,97 L316,83 L309,77 L298,70 L288,64 L278,62 L271,62 L268,60 L167,60 L163,61 L133,61 L115,60 L108,61 L93,61 L86,60 Z " fill="#000000" transform="translate(696,36)"/>
<path d="M0,0 L4,0 L5,4 L4,8 L14,8 L32,7 L53,7 L84,8 L134,8 L143,7 L169,7 L190,8 L209,8 L224,10 L239,9 L252,10 L265,12 L273,14 L284,21 L291,29 L298,42 L301,56 L301,104 L300,123 L299,130 L299,165 L300,177 L299,198 L299,242 L298,259 L298,354 L297,430 L297,461 L296,474 L296,561 L295,575 L295,642 L296,668 L296,687 L295,706 L295,737 L296,748 L296,781 L295,808 L297,818 L295,847 L289,862 L285,868 L278,874 L274,878 L263,884 L253,887 L237,888 L206,888 L180,887 L28,887 L17,886 L3,886 L-21,887 L-38,887 L-76,886 L-82,885 L-91,886 L-152,886 L-199,885 L-260,885 L-324,884 L-343,885 L-415,884 L-455,884 L-458,883 L-475,882 L-502,882 L-512,883 L-547,883 L-563,881 L-579,874 L-588,868 L-597,853 L-600,846 L-602,830 L-602,816 L-601,805 L-601,780 L-602,727 L-603,722 L-603,712 L-602,707 L-602,630 L-601,567 L-601,487 L-602,458 L-601,430 L-601,392 L-602,381 L-601,368 L-601,296 L-600,181 L-599,157 L-599,116 L-600,106 L-600,92 L-599,85 L-599,72 L-597,50 L-594,40 L-587,29 L-580,21 L-569,14 L-557,9 L-535,7 L-501,8 L-492,9 L-464,7 L-455,8 L-448,9 L-365,9 L-363,8 L-354,8 L-341,7 L-336,9 L-320,8 L-304,8 L-289,9 L-280,9 L-258,7 L-243,8 L-195,8 L-193,7 L-168,8 L-137,8 L-110,7 L-98,8 L-58,8 L-55,9 L-34,9 L-21,8 L-11,7 L-4,8 L-1,1 Z M-155,97 L-173,101 L-178,107 L-186,112 L-194,122 L-200,139 L-204,149 L-210,165 L-214,176 L-218,188 L-218,198 L-215,204 L-209,209 L-201,210 L-170,211 L-105,211 L-103,210 L-94,209 L-86,203 L-84,200 L-84,188 L-90,175 L-99,147 L-103,134 L-110,120 L-119,108 L-124,104 L-144,97 Z M-158,235 L-168,237 L-180,240 L-189,244 L-198,247 L-206,249 L-217,253 L-230,261 L-240,271 L-250,292 L-256,310 L-260,320 L-263,331 L-270,347 L-277,373 L-282,385 L-289,406 L-295,423 L-300,435 L-305,448 L-309,463 L-314,476 L-314,489 L-310,494 L-307,495 L-296,495 L-287,492 L-283,490 L-278,480 L-272,465 L-264,445 L-262,436 L-257,426 L-253,413 L-248,399 L-245,389 L-242,382 L-237,367 L-232,356 L-228,342 L-222,333 L-219,331 L-214,332 L-211,336 L-206,355 L-202,365 L-199,379 L-199,396 L-206,417 L-209,421 L-212,430 L-217,446 L-222,457 L-226,468 L-230,478 L-235,495 L-242,513 L-248,529 L-251,539 L-259,558 L-266,578 L-271,593 L-271,605 L-266,610 L-260,613 L-215,615 L-211,617 L-208,621 L-206,631 L-204,646 L-201,664 L-199,681 L-198,697 L-196,704 L-194,730 L-191,742 L-188,768 L-184,789 L-179,796 L-175,798 L-139,798 L-134,796 L-129,788 L-125,769 L-123,749 L-121,739 L-119,723 L-114,693 L-111,667 L-108,651 L-107,640 L-104,633 L-103,624 L-99,618 L-92,615 L-57,615 L-47,613 L-41,609 L-38,604 L-37,598 L-43,578 L-48,560 L-51,550 L-54,545 L-57,535 L-62,523 L-67,507 L-74,484 L-80,468 L-85,456 L-88,447 L-91,435 L-100,410 L-104,401 L-105,391 L-104,374 L-99,358 L-96,347 L-91,332 L-85,329 L-80,331 L-73,344 L-69,357 L-64,369 L-60,386 L-53,406 L-46,426 L-41,441 L-37,451 L-30,472 L-26,485 L-20,493 L-18,495 L-3,496 L4,493 L8,488 L8,481 L2,457 L-2,446 L-7,429 L-10,422 L-12,416 L-15,407 L-19,394 L-24,381 L-26,377 L-29,365 L-37,345 L-41,330 L-45,317 L-51,301 L-57,284 L-63,273 L-76,260 L-88,254 L-106,247 L-124,241 L-134,237 L-147,235 Z M58,250 L59,252 Z " fill="#000000" transform="translate(711,103)"/>
<path d="M0,0 L7,0 L12,3 L21,17 L25,25 L33,38 L38,47 L43,55 L47,54 L49,6 L52,2 L57,2 L60,5 L61,11 L60,63 L59,78 L57,83 L52,84 L45,81 L39,72 L34,63 L23,45 L18,38 L14,31 L10,29 L8,49 L7,76 L5,81 L4,82 L-2,82 L-5,77 L-5,63 L-3,3 Z " fill="#000000" transform="translate(51,1124)"/>
<path d="M0,0 L22,1 L38,1 L48,5 L55,12 L58,18 L58,31 L52,41 L53,50 L55,53 L59,78 L58,84 L50,84 L45,81 L43,72 L42,58 L38,52 L35,50 L11,50 L9,58 L8,79 L6,83 L1,84 L-5,80 L-5,37 L-4,5 L-2,1 Z M11,13 L9,18 L9,32 L11,36 L13,37 L35,37 L41,34 L44,29 L45,25 L42,17 L38,14 L35,13 Z " fill="#000000" transform="translate(134,1125)"/>
<path d="M0,0 L37,1 L49,4 L56,12 L58,19 L58,27 L56,34 L52,39 L52,46 L56,54 L58,72 L60,81 L57,84 L49,84 L45,79 L41,55 L38,50 L29,48 L14,48 L9,53 L8,76 L5,82 L-1,82 L-4,79 L-4,20 L-3,3 Z M30,11 L20,12 L13,12 L9,16 L9,34 L13,37 L37,37 L42,33 L44,29 L44,20 L38,13 Z " fill="#000000" transform="translate(213,1127)"/>
</svg>
