<?xml version="1.0" encoding="UTF-8"?>
<!-- Generator: visioncortex VTracer 0.6.12 -->
<svg version="1.1" xmlns="http://www.w3.org/2000/svg" width="1119" height="1206">
<path d="M0,0 L8,0 L14,1 L20,0 L101,0 L117,1 L173,1 L196,0 L220,1 L226,2 L239,1 L351,1 L429,2 L437,1 L468,1 L486,2 L496,1 L506,2 L511,3 L542,2 L561,2 L570,3 L636,3 L649,2 L657,3 L713,3 L792,4 L806,5 L855,4 L863,5 L948,5 L956,6 L1070,6 L1072,7 L1072,18 L1071,24 L1068,110 L1067,173 L1067,197 L1065,277 L1064,367 L1063,417 L1063,439 L1062,513 L1061,572 L1060,693 L1059,730 L1059,763 L1058,789 L1058,829 L1057,940 L1056,1000 L1055,1071 L1055,1130 L1051,1134 L1045,1136 L1019,1138 L925,1137 L815,1137 L713,1136 L646,1136 L592,1135 L510,1135 L468,1134 L228,1134 L201,1133 L148,1133 L-14,1132 L-14,1121 L168,1121 L248,1122 L266,1122 L283,1121 L306,1122 L479,1122 L620,1123 L643,1124 L650,1123 L674,1123 L731,1124 L760,1125 L854,1125 L868,1126 L894,1126 L905,1125 L916,1125 L932,1126 L941,1125 L1034,1125 L1038,1124 L1039,1120 L1040,1089 L1041,1069 L1041,1054 L1042,1021 L1042,979 L1043,909 L1044,866 L1045,777 L1046,708 L1047,702 L1045,688 L1046,652 L1047,612 L1047,592 L1048,533 L1048,505 L1049,469 L1050,366 L1051,287 L1051,227 L1052,169 L1053,126 L1054,49 L1054,24 L1052,20 L1050,19 L998,18 L968,18 L947,17 L926,17 L919,18 L846,18 L839,17 L744,17 L729,16 L675,16 L635,15 L610,15 L593,14 L537,15 L530,14 L526,15 L493,14 L294,14 L201,13 L54,13 L31,12 L-14,12 L-14,1 Z " fill="#000000" transform="translate(14,35)"/>
<path d="M0,0 L18,0 L28,3 L44,11 L54,21 L62,35 L65,44 L66,55 L65,68 L61,80 L54,92 L45,101 L34,108 L22,113 L20,116 L21,118 L37,126 L45,133 L52,141 L57,148 L61,159 L63,175 L62,231 L60,288 L59,337 L60,346 L68,353 L78,366 L83,377 L85,386 L85,403 L82,416 L76,428 L66,438 L52,447 L43,450 L34,452 L28,454 L27,458 L25,511 L25,553 L34,570 L41,581 L46,591 L58,613 L61,621 L65,626 L76,646 L85,661 L93,677 L101,691 L106,703 L113,715 L119,726 L132,750 L135,756 L135,762 L126,768 L118,772 L105,779 L88,789 L73,797 L70,799 L65,799 L62,796 L56,785 L51,776 L40,756 L29,736 L26,732 L26,730 L21,731 L20,734 L18,781 L17,798 L15,800 L-23,800 L-63,798 L-66,795 L-66,764 L-62,639 L-62,619 L-59,536 L-58,487 L-57,467 L-55,384 L-54,356 L-54,336 L-53,311 L-52,265 L-52,209 L-58,211 L-64,218 L-74,223 L-86,223 L-95,219 L-100,214 L-104,208 L-106,202 L-106,194 L-100,182 L-93,176 L-88,174 L-82,173 L-74,173 L-63,180 L-56,188 L-53,189 L-51,185 L-49,162 L-45,150 L-39,140 L-28,128 L-12,119 L-4,116 L-5,112 L-20,104 L-30,95 L-37,87 L-43,75 L-46,64 L-46,47 L-41,31 L-33,20 L-28,14 L-26,14 L-26,12 L-16,6 L-4,1 Z " fill="#000000" transform="translate(466,192)"/>
</svg>
