<?xml version="1.0" encoding="UTF-8"?>
<!-- Generator: visioncortex VTracer 0.6.12 -->
<svg version="1.1" xmlns="http://www.w3.org/2000/svg" width="1164" height="1224">
<path d="M0,0 L2,0 L2,9 L-18,10 L-73,10 L-101,11 L-185,12 L-188,13 L-214,13 L-247,14 L-337,15 L-357,16 L-468,18 L-485,18 L-505,19 L-547,19 L-570,20 L-596,20 L-652,21 L-734,23 L-769,23 L-791,24 L-838,24 L-873,25 L-889,25 L-933,26 L-1008,27 L-1058,28 L-1081,29 L-1106,28 L-1109,30 L-1110,33 L-1110,95 L-1109,175 L-1108,217 L-1107,293 L-1106,346 L-1106,361 L-1105,385 L-1104,513 L-1103,602 L-1102,632 L-1101,713 L-1100,787 L-1099,817 L-1097,945 L-1097,967 L-1096,1011 L-1094,1116 L-1092,1147 L-1088,1148 L-1029,1148 L-982,1147 L-939,1147 L-914,1146 L-911,1145 L-858,1146 L-832,1145 L-800,1145 L-745,1144 L-693,1144 L-689,1143 L-645,1143 L-622,1142 L-593,1142 L-566,1141 L-534,1141 L-502,1140 L-458,1139 L-386,1138 L-359,1137 L-319,1137 L-299,1136 L-213,1135 L-170,1134 L-150,1133 L-122,1133 L-63,1132 L-42,1132 L2,1131 L2,1140 L-52,1142 L-79,1142 L-109,1143 L-134,1143 L-227,1145 L-333,1146 L-350,1147 L-403,1148 L-431,1148 L-486,1149 L-504,1149 L-512,1150 L-561,1150 L-581,1151 L-603,1151 L-677,1152 L-727,1152 L-742,1153 L-792,1154 L-807,1154 L-853,1155 L-944,1156 L-971,1157 L-998,1157 L-1093,1158 L-1099,1155 L-1102,1151 L-1103,1147 L-1103,1122 L-1104,1048 L-1105,1028 L-1106,963 L-1106,911 L-1109,781 L-1110,706 L-1111,653 L-1113,477 L-1114,414 L-1115,319 L-1116,265 L-1117,230 L-1118,127 L-1119,63 L-1119,24 L-1115,20 L-1103,20 L-1095,21 L-1093,20 L-1036,19 L-1009,18 L-959,18 L-920,17 L-900,17 L-865,16 L-802,16 L-785,15 L-744,15 L-740,14 L-600,12 L-596,11 L-589,11 L-580,12 L-564,11 L-501,10 L-466,9 L-453,9 L-444,8 L-351,7 L-296,6 L-260,5 L-234,5 L-194,4 L-170,3 L-121,3 L-65,1 L-59,2 L-21,1 L-4,1 Z " fill="#000000" transform="translate(1162,34)"/>
<path d="M0,0 L28,0 L46,5 L61,13 L73,22 L87,35 L97,50 L103,60 L108,64 L138,62 L163,66 L171,69 L181,70 L191,75 L205,79 L228,92 L241,100 L255,108 L265,116 L277,125 L287,134 L295,141 L304,150 L309,155 L318,165 L327,176 L337,187 L349,204 L358,217 L365,229 L375,245 L383,261 L391,278 L400,299 L408,320 L414,339 L418,353 L422,369 L425,384 L425,399 L422,410 L418,415 L415,431 L412,438 L408,451 L400,471 L398,482 L392,499 L389,510 L384,529 L382,545 L382,564 L387,570 L398,577 L407,587 L413,594 L420,603 L431,618 L442,636 L448,648 L459,675 L464,695 L469,711 L471,718 L474,740 L477,751 L486,765 L495,780 L498,787 L498,792 L496,794 L453,796 L401,796 L397,792 L399,787 L407,779 L415,772 L423,763 L424,756 L415,744 L407,733 L394,718 L383,706 L374,694 L369,689 L365,684 L360,680 L353,671 L346,663 L337,652 L327,641 L320,633 L309,620 L298,607 L291,599 L284,591 L281,586 L282,573 L286,553 L292,543 L305,532 L323,514 L331,507 L336,502 L350,489 L358,482 L367,474 L374,466 L385,452 L390,443 L395,435 L398,427 L398,410 L395,407 L393,407 L392,412 L391,423 L386,436 L379,447 L373,453 L371,453 L369,457 L362,464 L354,471 L342,483 L334,490 L328,497 L317,506 L309,514 L301,521 L294,527 L289,532 L276,544 L266,553 L254,564 L249,569 L239,578 L231,585 L226,590 L223,593 L221,597 L222,603 L231,612 L240,618 L249,626 L256,635 L267,647 L274,657 L282,667 L292,685 L297,693 L302,703 L310,716 L318,732 L332,759 L341,776 L351,795 L360,809 L366,819 L375,834 L384,848 L387,858 L387,867 L375,873 L336,875 L306,876 L224,878 L205,878 L202,875 L206,871 L211,868 L230,855 L238,849 L248,841 L255,837 L266,829 L277,820 L279,820 L280,812 L272,802 L259,786 L246,772 L239,764 L228,752 L219,741 L214,736 L207,729 L200,720 L188,707 L181,698 L176,693 L169,685 L164,680 L159,675 L145,660 L138,651 L128,641 L122,633 L114,623 L108,618 L101,610 L91,599 L89,589 L91,579 L97,564 L100,556 L108,537 L120,517 L125,507 L133,496 L141,486 L150,476 L157,468 L171,457 L178,449 L188,441 L199,433 L208,426 L214,425 L224,429 L234,431 L240,434 L249,435 L258,439 L269,443 L283,450 L289,453 L291,453 L289,448 L282,441 L264,430 L257,424 L247,418 L235,410 L228,399 L218,387 L208,373 L201,362 L194,353 L185,341 L175,328 L167,318 L159,308 L153,300 L143,285 L135,272 L128,262 L122,251 L111,233 L107,228 L102,229 L97,236 L91,248 L88,252 L81,266 L73,279 L67,290 L57,308 L44,331 L40,337 L34,343 L0,357 L-25,368 L-41,374 L-50,378 L-64,385 L-77,390 L-91,397 L-100,400 L-121,409 L-132,414 L-152,422 L-164,428 L-172,430 L-181,429 L-198,424 L-223,417 L-237,413 L-247,411 L-271,404 L-280,402 L-296,397 L-308,394 L-324,389 L-340,384 L-358,379 L-363,374 L-365,359 L-365,329 L-362,308 L-357,273 L-351,249 L-349,244 L-347,235 L-343,224 L-339,213 L-335,204 L-327,188 L-317,174 L-311,164 L-299,148 L-292,138 L-286,130 L-281,125 L-273,117 L-259,108 L-244,101 L-229,95 L-208,88 L-194,84 L-186,82 L-174,81 L-169,79 L-160,77 L-147,75 L-125,70 L-107,68 L-90,65 L-72,61 L-59,59 L-42,56 L-33,56 L-15,58 L-1,65 L10,75 L19,89 L25,105 L24,110 L16,121 L7,133 L-4,151 L-12,171 L-16,184 L-20,192 L-25,196 L-36,200 L-48,202 L-79,202 L-82,201 L-95,201 L-104,199 L-119,191 L-124,185 L-129,181 L-136,171 L-139,163 L-141,155 L-143,129 L-146,130 L-148,136 L-148,154 L-145,170 L-142,179 L-135,189 L-130,194 L-122,201 L-110,208 L-95,213 L-80,216 L-77,219 L-78,228 L-85,237 L-90,242 L-103,255 L-104,261 L-100,264 L-70,272 L-61,276 L-52,279 L-43,281 L-40,286 L-41,289 L-64,299 L-73,304 L-83,308 L-98,316 L-118,324 L-135,330 L-143,334 L-158,339 L-163,341 L-170,341 L-176,338 L-185,335 L-196,331 L-216,324 L-232,319 L-244,312 L-247,310 L-247,302 L-241,276 L-234,248 L-227,226 L-222,204 L-221,180 L-225,181 L-228,190 L-233,205 L-239,227 L-243,245 L-248,262 L-251,274 L-253,286 L-256,294 L-260,310 L-260,321 L-254,323 L-230,331 L-226,333 L-218,335 L-209,339 L-195,343 L-179,349 L-166,354 L-158,354 L-142,346 L-133,343 L-118,336 L-102,329 L-79,319 L-65,313 L-52,307 L-41,303 L-32,298 L-30,293 L-27,263 L-24,241 L-19,224 L-14,203 L-9,186 L-4,175 L4,153 L12,138 L24,124 L29,118 L34,113 L38,108 L38,99 L30,86 L20,73 L10,62 L-6,51 L-22,47 L-49,46 L-62,47 L-64,45 L-63,39 L-55,29 L-51,24 L-42,17 L-32,12 L-17,5 L-2,1 Z M315,197 L316,203 L320,209 L324,211 L325,219 L332,239 L340,259 L343,268 L346,277 L348,288 L350,304 L350,320 L346,336 L338,356 L332,365 L324,373 L308,384 L301,387 L285,390 L276,393 L258,393 L258,397 L270,400 L280,400 L300,398 L307,395 L320,391 L328,385 L338,376 L342,370 L345,367 L353,350 L358,331 L360,319 L360,300 L353,264 L346,248 L343,240 L339,233 L332,219 L326,212 L321,200 L319,197 Z M297,761 L296,765 L300,765 L299,761 Z " fill="#000000" transform="translate(618,236)"/>
<path d="M0,0 L5,0 L12,8 L17,17 L21,23 L24,30 L28,35 L36,48 L44,59 L49,69 L50,75 L46,81 L38,89 L33,93 L28,98 L21,105 L14,113 L11,116 L9,116 L7,121 L0,126 L-5,132 L-13,139 L-20,146 L-28,150 L-37,151 L-46,148 L-61,146 L-67,143 L-84,139 L-97,136 L-102,134 L-112,133 L-113,130 L-111,127 L-100,123 L-85,117 L-65,108 L-59,104 L-54,95 L-46,81 L-40,70 L-32,55 L-24,41 L-18,30 L-6,8 Z " fill="#000000" transform="translate(720,482)"/>
<path d="M0,0 L8,0 L24,4 L40,8 L55,12 L66,15 L75,17 L97,24 L105,26 L118,30 L123,33 L126,39 L128,55 L134,104 L138,130 L142,162 L143,169 L143,177 L140,182 L132,192 L118,210 L108,223 L95,240 L89,248 L81,258 L75,266 L62,283 L54,293 L41,310 L31,323 L21,336 L13,346 L6,356 L0,363 L-6,371 L-13,379 L-17,385 L-25,395 L-38,413 L-38,423 L-34,433 L-26,449 L-24,454 L-23,466 L-25,468 L-38,469 L-78,470 L-133,470 L-136,468 L-135,462 L-129,453 L-122,446 L-112,433 L-105,424 L-99,412 L-94,395 L-92,383 L-88,368 L-86,360 L-83,351 L-77,331 L-72,318 L-67,308 L-61,292 L-53,274 L-47,264 L-41,254 L-37,249 L-32,240 L-25,232 L-17,221 L-10,214 L-5,209 L2,202 L10,196 L21,188 L32,180 L43,172 L44,170 L44,162 L38,148 L34,139 L30,131 L28,124 L24,114 L18,99 L12,82 L3,53 L1,44 L-2,32 L-4,22 L-4,7 L-2,2 Z " fill="#000000" transform="translate(264,629)"/>
<path d="M0,0 L9,0 L14,5 L22,14 L32,28 L43,41 L53,54 L62,65 L72,79 L81,91 L85,97 L90,102 L94,108 L97,127 L100,148 L104,174 L109,207 L111,223 L114,244 L118,269 L123,304 L129,343 L132,351 L142,359 L159,371 L171,379 L182,387 L192,395 L199,399 L212,406 L218,413 L218,417 L216,418 L186,419 L167,420 L115,421 L82,421 L79,418 L79,400 L80,393 L80,376 L77,370 L70,362 L64,351 L58,342 L54,332 L44,313 L38,302 L33,292 L27,277 L22,264 L20,255 L16,244 L13,233 L6,193 L4,169 L2,161 L-2,155 L-10,147 L-16,140 L-24,133 L-43,114 L-48,109 L-57,99 L-62,94 L-75,81 L-75,79 L-79,77 L-90,65 L-95,60 L-104,50 L-103,45 L-93,39 L-73,32 L-63,27 L-54,23 L-19,7 L-9,3 L-1,1 Z " fill="#000000" transform="translate(554,633)"/>
</svg>
