<?xml version="1.0" encoding="UTF-8"?>
<!-- Generator: visioncortex VTracer 0.6.12 -->
<svg version="1.1" xmlns="http://www.w3.org/2000/svg" width="480" height="996">
<path d="M0,0 L7,1 L18,7 L24,12 L30,15 L31,16 L30,25 L24,35 L18,46 L13,53 L7,65 L1,75 L-3,83 L-9,91 L-20,110 L-25,120 L-35,137 L-42,149 L-45,154 L-51,164 L-57,174 L-63,184 L-71,197 L-77,209 L-84,220 L-91,233 L-103,252 L-106,258 L-111,267 L-116,274 L-122,286 L-128,294 L-133,304 L-142,321 L-149,333 L-149,339 L-143,342 L-68,342 L-28,343 L-10,343 L10,344 L68,344 L79,343 L89,343 L98,344 L100,343 L152,343 L173,342 L202,342 L220,343 L225,346 L228,351 L230,356 L238,360 L241,364 L242,367 L242,374 L239,379 L229,380 L228,395 L227,419 L227,429 L221,437 L218,438 L196,439 L178,439 L171,440 L162,439 L-38,439 L-51,441 L-55,440 L-96,439 L-146,439 L-154,436 L-158,431 L-159,429 L-159,405 L-160,366 L-160,351 L-162,344 L-168,339 L-174,335 L-186,329 L-186,308 L-184,308 L-182,302 L-177,292 L-166,274 L-160,264 L-156,256 L-150,247 L-141,232 L-130,214 L-126,207 L-121,197 L-118,193 L-115,187 L-111,182 L-107,173 L-100,164 L-95,154 L-90,146 L-85,137 L-81,132 L-76,122 L-70,113 L-66,106 L-61,100 L-58,91 L-52,83 L-45,69 L-39,59 L-33,49 L-28,43 L-23,36 L-15,20 L-5,5 Z M33,363 L20,365 L12,369 L7,374 L3,382 L4,390 L8,396 L15,403 L17,404 L36,405 L46,402 L51,398 L57,393 L59,387 L59,378 L51,368 L41,364 Z M115,369 L103,372 L97,376 L98,382 L107,390 L114,394 L119,392 L121,386 L121,374 L118,369 Z " fill="#000000" transform="translate(186,35)"/>
<path d="M0,0 L1,0 L1,77 L-7,77 L-10,72 L-11,60 L-11,42 L-7,22 L-3,10 L-2,2 Z " fill="#000000" transform="translate(479,237)"/>
<path d="M0,0 L8,0 L8,174 L2,173 L-3,170 L-4,168 L-5,140 L-5,101 L-4,73 L-5,56 L-4,5 Z " fill="#000000" transform="translate(472,345)"/>
<path d="M0,0 L9,1 L56,1 L67,2 L74,0 L87,0 L103,1 L117,1 L120,0 L133,1 L139,2 L156,1 L169,2 L176,3 L180,1 L215,1 L224,2 L246,2 L266,1 L279,1 L285,3 L297,1 L334,1 L343,0 L364,0 L390,1 L394,6 L395,10 L395,25 L396,56 L394,101 L390,105 L375,105 L369,102 L367,99 L364,41 L361,36 L360,35 L351,35 L344,36 L339,34 L248,34 L227,32 L220,33 L197,33 L190,34 L170,34 L147,33 L101,33 L56,32 L46,33 L26,33 L22,36 L20,44 L20,79 L19,97 L15,103 L13,104 L4,105 L-5,105 L-11,103 L-14,99 L-15,55 L-14,8 L-12,3 L-8,1 Z " fill="#000000" transform="translate(29,482)"/>
<path d="M0,0 L7,1 L45,1 L54,0 L62,1 L80,1 L135,2 L159,2 L162,1 L274,1 L333,2 L378,2 L401,3 L401,11 L321,12 L294,12 L222,11 L215,12 L196,11 L37,11 L8,10 L-79,10 L-79,1 L-5,1 Z " fill="#000000" transform="translate(79,691)"/>
<path d="M0,0 L16,1 L26,5 L36,16 L39,21 L39,27 L36,30 L30,30 L25,25 L19,17 L11,14 L2,14 L0,13 Z " fill="#000000" transform="translate(0,776)"/>
<path d="M0,0 L6,0 L8,2 L8,11 L3,21 L-1,26 L-9,32 L-16,34 L-32,34 L-32,22 L-19,21 L-13,17 L-7,8 L-3,2 Z " fill="#000000" transform="translate(32,827)"/>
<path d="M0,0 L22,0 L22,57 L-13,57 L-96,58 L-216,60 L-249,61 L-304,62 L-320,62 L-369,64 L-421,65 L-447,66 L-451,67 L-458,67 L-458,9 L-422,8 L-388,7 L-339,6 L-285,4 L-220,3 L-196,2 L-115,1 Z " fill="#000000" transform="translate(458,899)"/>
</svg>
