<?xml version="1.0" encoding="UTF-8"?>
<!-- Generator: visioncortex VTracer 0.6.12 -->
<svg version="1.1" xmlns="http://www.w3.org/2000/svg" width="618" height="600">
<path d="M0,0 L7,1 L10,2 L17,1 L23,5 L27,5 L27,3 L31,2 L41,10 L52,16 L65,23 L65,25 L69,27 L76,35 L87,54 L92,66 L95,81 L95,92 L93,113 L89,125 L86,135 L82,142 L78,152 L71,164 L64,174 L53,186 L46,194 L31,207 L22,216 L7,224 L-5,234 L-20,242 L-32,248 L-40,251 L-49,253 L-53,255 L-67,258 L-71,259 L-80,259 L-85,256 L-100,242 L-107,234 L-119,221 L-136,204 L-145,193 L-151,186 L-153,177 L-153,172 L-145,162 L-139,157 L-137,157 L-135,153 L-124,142 L-120,138 L-108,133 L-98,128 L-93,122 L-89,121 L-82,120 L-76,118 L-67,118 L-60,114 L-57,110 L-49,111 L-42,107 L-28,106 L-23,102 L-13,99 L-11,95 L-6,88 L-5,85 L-5,77 L-6,72 L-7,67 L-14,62 L-23,62 L-26,63 L-29,67 L-29,75 L-25,80 L-26,85 L-37,92 L-45,96 L-56,100 L-68,103 L-79,107 L-88,110 L-95,113 L-104,116 L-113,122 L-130,132 L-138,137 L-143,136 L-146,131 L-145,124 L-143,120 L-141,111 L-136,105 L-129,87 L-124,82 L-122,77 L-117,72 L-114,67 L-106,59 L-99,49 L-92,43 L-87,38 L-82,32 L-73,27 L-66,25 L-62,20 L-54,16 L-51,14 L-44,12 L-42,10 L-37,10 L-34,12 L-28,11 L-20,8 L-14,1 Z " fill="#000000" transform="translate(489,37)"/>
<path d="M0,0 L7,0 L20,12 L27,20 L31,25 L31,27 L35,29 L45,39 L50,44 L58,53 L64,60 L71,66 L81,80 L80,86 L73,95 L59,107 L48,118 L40,125 L30,134 L24,141 L11,150 L5,150 L-7,139 L-19,128 L-24,123 L-35,111 L-42,103 L-47,98 L-56,89 L-65,78 L-68,73 L-68,62 L-65,57 L-58,51 L-51,43 L-45,38 L-38,30 L-32,25 L-26,17 L-15,8 L-8,2 Z " fill="#000000" transform="translate(307,230)"/>
<path d="M0,0 L12,0 L24,9 L34,20 L39,26 L44,31 L50,38 L55,43 L66,55 L73,63 L78,67 L84,75 L84,83 L77,94 L70,101 L56,111 L46,118 L21,131 L11,135 L4,139 L-5,141 L-17,144 L-28,148 L-40,154 L-50,162 L-56,169 L-57,174 L-57,185 L-54,193 L-50,197 L-50,199 L-44,198 L-37,193 L-36,186 L-39,180 L-38,174 L-33,169 L-25,164 L-6,155 L3,152 L24,145 L45,136 L68,124 L72,121 L78,122 L79,123 L79,130 L74,145 L68,155 L60,168 L47,184 L39,192 L32,200 L25,207 L20,212 L10,221 L-14,235 L-31,242 L-47,246 L-54,248 L-76,248 L-91,246 L-99,244 L-111,240 L-126,232 L-136,224 L-140,222 L-142,216 L-148,207 L-152,201 L-152,199 L-158,197 L-162,188 L-164,183 L-163,173 L-167,168 L-167,157 L-168,151 L-166,146 L-165,134 L-163,131 L-163,121 L-157,110 L-153,94 L-147,85 L-142,79 L-137,76 L-131,67 L-127,62 L-121,59 L-112,50 L-104,43 L-100,39 L-88,35 L-81,29 L-73,25 L-68,22 L-56,17 L-46,16 L-45,12 L-29,7 L-19,5 Z " fill="#000000" transform="translate(204,313)"/>
<path d="M0,0 L0,3 Z " fill="#000000" transform="translate(52,522)"/>
<path d="M0,0 L4,1 L3,3 L0,2 Z " fill="#000000" transform="translate(98,559)"/>
<path d="M0,0 L6,1 L5,5 L-2,4 L-2,1 Z " fill="#000000" transform="translate(120,563)"/>
</svg>
