<?xml version="1.0" encoding="UTF-8"?>
<!-- Generator: visioncortex VTracer 0.6.12 -->
<svg version="1.1" xmlns="http://www.w3.org/2000/svg" width="507" height="879">
<path d="M0,0 L9,1 L21,4 L37,12 L43,15 L57,28 L65,38 L72,54 L75,63 L76,69 L76,93 L74,101 L71,110 L65,123 L56,134 L48,142 L37,149 L30,153 L19,157 L12,159 L-11,159 L-21,158 L-38,152 L-49,145 L-63,134 L-74,119 L-78,109 L-83,97 L-84,91 L-84,67 L-80,50 L-72,34 L-63,24 L-56,18 L-41,8 L-30,3 L-22,1 Z M-20,24 L-32,29 L-40,34 L-47,41 L-53,46 L-58,58 L-61,68 L-61,82 L-56,101 L-49,113 L-38,124 L-25,131 L-20,133 L-7,135 L7,134 L21,130 L35,120 L44,109 L50,96 L51,92 L51,70 L48,60 L42,48 L33,38 L22,31 L13,27 L3,25 L-9,24 Z " fill="#000000" transform="translate(253,31)"/>
<path d="M0,0 L20,0 L41,1 L49,5 L60,23 L65,32 L76,50 L86,64 L92,71 L97,71 L103,62 L111,46 L120,29 L125,18 L132,6 L136,3 L171,3 L193,5 L205,8 L217,13 L226,19 L235,27 L235,29 L237,29 L246,40 L252,49 L260,63 L270,89 L274,99 L280,115 L284,128 L298,166 L304,182 L310,200 L313,208 L316,218 L318,231 L319,238 L318,242 L319,263 L322,298 L322,305 L318,307 L311,299 L304,288 L292,271 L280,255 L268,239 L261,229 L250,214 L246,209 L246,207 L244,207 L236,196 L224,178 L215,166 L209,157 L201,147 L196,147 L194,149 L187,172 L180,197 L174,218 L173,225 L176,237 L184,261 L190,274 L197,295 L209,326 L213,337 L220,356 L236,400 L243,419 L248,431 L257,456 L267,482 L278,512 L285,532 L290,544 L296,560 L306,585 L310,596 L318,620 L319,622 L319,629 L317,631 L264,631 L258,628 L250,611 L244,598 L231,568 L226,556 L215,532 L206,513 L199,497 L189,475 L183,465 L179,461 L148,460 L136,460 L130,457 L123,448 L116,432 L109,420 L100,401 L99,398 L92,398 L90,404 L80,423 L74,439 L69,450 L65,458 L64,459 L14,459 L7,467 L1,481 L-2,488 L-6,497 L-16,519 L-23,535 L-30,550 L-38,567 L-45,583 L-58,613 L-66,627 L-70,630 L-112,630 L-124,628 L-127,624 L-127,616 L-120,613 L-115,601 L-107,579 L-102,566 L-94,543 L-88,527 L-84,515 L-71,477 L-67,464 L-60,443 L-53,422 L-47,406 L-36,375 L-31,360 L-25,345 L-15,315 L-11,303 L-5,286 L2,268 L9,247 L10,245 L10,232 L-1,180 L-4,165 L-10,149 L-12,146 L-17,146 L-26,156 L-34,167 L-39,171 L-41,171 L-42,177 L-46,185 L-55,197 L-61,206 L-70,220 L-78,231 L-85,241 L-96,256 L-103,267 L-109,278 L-116,288 L-119,291 L-123,290 L-124,289 L-123,221 L-120,208 L-110,178 L-98,141 L-95,133 L-88,111 L-80,90 L-72,69 L-68,58 L-59,44 L-53,34 L-44,23 L-33,15 L-25,10 L-9,2 Z M23,401 L27,402 Z " fill="#000000" transform="translate(157,221)"/>
</svg>
